<svg version="1.1" id="Calque_1" xmlns="http://www.w3.org/2000/svg" x="0" y="0" viewBox="0 0 900 900" style="enable-background:new 0 0 900 900" xml:space="preserve"><style>.st0,.st1,.st2,.st3{fill:#545454;stroke:#000;stroke-width:4;stroke-linecap:round;stroke-linejoin:round;stroke-miterlimit:10}.st1,.st2,.st3{fill:red}.st2,.st3{fill:#ffce00}.st3{fill:#0068ff}.st4{fill:#fff}.st4,.st5,.st6,.st7{stroke:#000;stroke-width:4;stroke-linecap:round;stroke-linejoin:round;stroke-miterlimit:10}.st6,.st7{fill:#008e0d}.st7{fill:none}.st8{fill:#fff}.st9{fill:#0068ff}.st10{fill:red}</style><path class="st0" d="m494 524.6 83.9 3.6 7.2-46-81.1-19.1z"/><path class="st1" d="M694.5 482.3s14.3-6.2 17.7-4.3c3.5 2 2.1 10.4 1.2 15.2 7.7-4.7 13.5-17.1 12.4-20.4s-8.1-1.5-8.2-6c-.1-4.4 3.4-9.3 9.3-8.1 5.9 1.2 5.5 6 6.1 11.3 5.9-8.2 4-16.2 1.1-20.9-3-4.7-10.3-.6-10.4-3.1-.1-2.4 4.8-6.9 11.5-6.6s9.6 5.1 10.6 11.8c3-4.9 4.3-13.4 2.7-18.2s-17-8.6-21.6-7.2c-4.5 1.4-18.7 5.9-18.7 5.9l-24 35.1 10.3 15.5z"/><path class="st2" d="M726.8 426c-1.4-5.5-33.8-19.5-38.8-17.3-1.3.5-5.9 11.4-12.1 27.6l37.5 15.1c8.3-14.2 13.7-24.1 13.4-25.4z"/><path class="st1" d="m713.3 451.4-37.5-15.1c-1.4 3.4-2.8 7.1-4.3 11.1l36.4 13c2-3.3 3.8-6.2 5.4-9z"/><path class="st3" d="M671.6 447.3c-2.9 7.6-6 15.9-9 24.6l31.9 10.5c4.9-7.8 9.5-15.3 13.5-22.1l-36.4-13z"/><path class="st4" d="m694.5 482.3-31.9-10.5c-2.6 6.9-5.1 14.2-7.7 21.4l27.2 8.9c4.2-6.7 8.4-13.3 12.4-19.8z"/><path class="st5" d="m345.2 359.7 9.9 57.6 73.8-19.2-8.5-73.9-4.4 47.2-66.2-28.3z"/><path class="st6" d="M323.1 767.5s3.4 22.4-3.1 35.5-26.7 32.9-61.5 23.8c.7 4.1 1.4 10.3-2.1 12.8-2.3 1.7-8.2 2.3-12.4.6-4.3-1.8-4.5-5.2-5.3-10.6-7.6 1.8-17.9-1.6-17.3-9.9-8 1.6-19.4.1-21.6-10.9s4.6-13.5 8.8-12.9c-2.7-6.6-10.7-11.8-13.5-27.5-2.8-15.6 2.7-29.8-1.8-31.4-1.3 7.2-8.9 9.6-14.6 6.4-5.6-3.2-5.6-6.8-5.6-12.8s3.2-9.8 6.7-11c-2.1-3.5-3.3-14.3 7.8-18.4-3.5-8.6-1.4-17.8 5-20.5 6.4-2.9 17 2.2 12.8 12.3 5.3 1.1 23.4-28.1 36.2-36.5 12.8-8.4 81.6-72.4 81.6-72.4l31.9 3.2 45.8 76.9s47.3 6.2 47.1 6.4c-.2.1-11.2 56-11.2 56l-56.9 4.4-41.2 1.8-15.6 34.7zM678.4 705.6c4.8-2.4 13 5.4 12.1 11-.7 5.5-6.9 8.6-11 6.6 3.6 8.2-2.1 85.3-28 95.4-25.9 10.1-65.9 14.7-89.6 1.1-23.7-13.6-21.1-49.8-21.1-49.8l6.7-78.2 42.1-17.2 70.1 1.5 7.8 22.4c.3 0 10.9-.8 10.9 7.2z"/><path class="st1" d="M551.7 713.5c.1 0 24.9 21.9 24.9 21.9v26.3L472 758.2l4.6-25.4 75.1-19.3z"/><path class="st4" d="m429.6 768.1 141 8.2c0-8.3-1.1-22.1-1.1-22.1L450 746.9l-16.4 6.8-4 14.4z"/><path class="st1" d="M698.4 749.7s4.7 6.2 4.7 13.3-10.4 13.3-10.4 13.3L629.4 760l-9-17.7 14.9-6.1 33 1.4 30.1 12.1z"/><path class="st1" d="M635.7 729.3s63.4 2.1 70.3 6c6.9 3.8 10.6 18.5 0 18.5S636.8 741 636.8 741l-1.1-11.7z"/><path class="st1" d="M631.3 723.2c5.6-1.4 11.9 5 10.4 15.7s-16.3 10.7-16.3 10.7l-22.3-2.7.5-16.2c0 .3 22.1-6.1 27.7-7.5z"/><path class="st1" d="M567.5 723.9c-4 2.9-4 16.1-1.1 18.6 3 2.6 43.9 1.3 46.9-.5s1.9-18.1 1.9-18.1-43.6-2.9-47.7 0z"/><path class="st1" d="m555.7 705.7.6 1.2 9.7 22.4 48-2.6-3.9-22.7z"/><path class="st3" d="m613 679.7-44.7-19.3-12.6 4.8 3.8 28.3 54.8.6c-.6-7.3-1.3-14.4-1.3-14.4z"/><path class="st1" d="m614.5 694.1-54.8-.6 1.1 7.9H615c-.1-2.3-.3-4.9-.5-7.3z"/><path class="st4" d="m574.1 701.3.1 8.7H586v-8.7h-11.9z"/><path class="st4" d="m560.7 701.3 1.2 8.5s5.2.1 12.4.2l-.1-8.7h-13.5zM597.2 701.3v8.6c3.4-.1 6.6-.2 9.4-.3v-8.3h-9.4zM615 701.3h-8.4v8.3c5-.3 8.3-.7 8.5-1.4.2-.8.1-3.5-.1-6.9z"/><path class="st4" d="M586.2 701.3v8.7c3.7 0 7.6 0 11.1-.1v-8.6h-11.1 0z"/><path class="st1" d="M621 713.8s3.6-4 8.4-2c4.8 2 6.7 8.4 5.6 14.9-1.1 6.5-12 12.3-17.1 5.2-5.1-7.2 3.1-18.1 3.1-18.1z"/><path class="st1" d="M615.4 714.4c5.5-6.2 12.1.1 10 9.5s-11.1 11.6-14.6 7.1 4.3-6.7 4.6-16.6z"/><circle class="st4" cx="561.8" cy="721.8" r="10.1"/><circle class="st4" cx="561.8" cy="721.8" r="4.4"/><circle class="st4" cx="610.8" cy="720.9" r="10.1"/><circle class="st4" cx="610.8" cy="720.9" r="4.4"/><path class="st4" d="m621 768.9-4.8-23.3-3.4-3.5c-5.2 1.6-39.7 2.7-45.8.6-2.3 2.6-6.5 8.6-6.5 20 0 16 6.8 20.2 6.8 20.2l58.3 5.7-4.6-19.7z"/><path class="st0" d="M693 783c1.1-3.2 4.6-3 7.4-2.2-.9-1.8-2.1-3.4-3.7-4.5-5.1-3.1-83.7-34.2-83.7-34.2s-6.7 2.8-5.4 18 13.4 24.5 13.4 24.5 46.2 6.7 48.3 9.4 13.9 8 15.9-2.4c2.7 3.8 8 3.7 11.8 2.4-2.2-2.9-5.2-7.5-4-11z"/><path class="st4" d="M693 783c-1.2 3.6 1.7 8.1 4 11 1.8-.6 3.3-1.5 3.9-2.4 1.5-2 1.3-6.8-.5-10.7-2.7-.9-6.4-1.1-7.4 2.1z"/><path class="st7" d="M673.6 777.7s13.5 6.4 11.6 13.8"/><path class="st4" d="M668.3 786.9c2.1 1.4 2.1 12.8 0 14.2s-105.7-9.2-106.5-12.3c-.9-3.1-1.9-9.4 0-11.1 1.9-1.8 104.4 8 106.5 9.2z"/><path class="st0" d="M355.8 810.8c-6.7 1.1-8.8 8.3-6.2 12.8-3 1.2-.9 7.9.5 10.3 2.1 3.9 14.4-3.2 14.4-3.2s11.2 3.1 13.3-.3c2.1-3.4 51.5-67.3 51.5-67.3l-11.4-36.3-47.6-2.9s-7.8 85.8-14.5 86.9z"/><path class="st4" d="M358.3 827.2c-2.6 1.1-11.4 8.5-11.4 11.4s3.2 6.1 6.7 5.3c3.5-.7 11.9-8.8 11.9-12s-4.6-5.8-7.2-4.7z"/><path class="st7" d="m349.1 823.7 11-2.9"/><path class="st1" d="M414.8 768.9c-1.3.9-15.1 10.3-22.1 27-7.2 17.6-19.2 39.7-19.2 46.1 0 3.1 10 6.6 20.4 8.8 3.2-16.8 11-48.7 27.6-81.4-2.7-.2-5.2-.4-6.7-.5z"/><path class="st1" d="M421.5 769.5c-16.6 32.6-24.4 64.6-27.6 81.4 11.2 2.3 23 3.3 23.5.3 1.1-5.6 14.9-71.3 14.9-76.6.1-2.9-5.6-4.4-10.8-5.1z"/><path class="st1" d="M419 756s-11.6 6.6-10.1 13.7 19.3 11.4 23.6 8.2c4.4-3.2 3.5-14.9 3.5-14.9l-17-7z"/><path class="st1" d="M423.5 739s-11.4 11.9-8 19.4 18.1 13.1 24.8 9.3c6.7-3.9 3.4-17.9 3.4-17.9L423.5 739z"/><circle class="st4" cx="437.9" cy="745.6" r="10.1"/><circle class="st7" cx="437.9" cy="745.6" r="4.4"/><path class="st4" d="M365.7 699c.7 1.9 8.2 45.5 8.2 45.5l39.4-1.6V697c-22.7.4-47.9.9-47.6 2z"/><path class="st1" d="M427.8 697c-4.5 0-9.5.1-14.6.1V743l14.7-.5-.1-45.5z"/><path class="st1" d="m457.3 741.2-9.3-44.3s-8.6 0-20.2.1l.1 45.3 29.4-1.1z"/><path class="st4" d="M365.7 699c-1.8 2.3-16.7 108.3-16.7 113s13.6 5.6 14.6 2.1c.9-3.5 16.6-113.7 16.3-116.3-.4-2.6-12.4-1.2-14.2 1.2z"/><path class="st1" d="m454.2 666.8 3.5 83.9c4.3-.1 9.7-.5 15.6-1.1l-3.9-92.5-15.2 9.7z"/><path class="st3" d="m501.6 637.1-32.1 20.1 3.9 92.5c11.4-1.1 25-2.9 38-5.2l-4-104.9c-3.6-1.6-5.8-2.5-5.8-2.5z"/><path class="st0" d="M564.7 668.6c-2.3-4.9-42.2-22.4-57.3-29l4 104.9c22.8-4 43.8-9.9 48.3-16.7 7.6-10.7 7.8-53.2 5-59.2z"/><path class="st4" d="M445.2 739c.4 6 1.1 10 1.9 11 .6.7 4.7 1.1 10.7.9l-.5-11.7-12.1-.2zM454.2 666.8l-10.5 6.6s-.1 22.9.4 43.7l12.1-.2-2-50.1zM456.4 716.9l-12.1.2c.1 3.3.2 6.5.3 9.6l12.2-.2-.4-9.6zM456.8 726.5l-12.2.2c.2 4.5.4 8.7.6 12.2l12.1.1-.5-12.5z"/><path class="st3" d="m284.8 348.7 10.7 4.7c-2.9 1.4-14 35.4-12.4 77.7 1.3 33.3 18.3 82.7 25.4 102.1 29.9-17.3 57.1-33.6 57.1-33.6l-23.4-61.2 20.6-18.2-13.1-77.1s-42.2-26.2-70.3-41.3c-9 15.9-28.2 55.6-32.7 115.8-4.6 61.5 10.7 118.2 17.9 140.6 9.4-5.1 19.8-11.1 30.4-17.1-6.2-16.6-22.8-65.5-22.8-108.3.3-52.5 12.6-84.1 12.6-84.1z"/><path class="st5" d="M247 417.5c4.5-60.1 23.6-99.9 32.7-115.8-11.7-6.4-21-10.7-23.6-10.5-8.7.9-41 26.9-42.8 121.5s14.6 157.5 18.3 161.2c1.2 1.2 15-5.7 33.3-15.9-7.2-22.3-22.5-79-17.9-140.5z"/><path class="st5" d="M283.2 431c-1.7-42.2 9.5-76.4 12.4-77.7l-10.7-4.7s-12.4 31.6-12.4 83.9c0 42.7 16.6 91.6 22.8 108.3 4.5-2.6 8.9-5.1 13.4-7.8-7.2-19.2-24.2-68.5-25.5-102z"/><path class="st7" d="m264.8 364 39.6 16.8M258.2 380.8l46.2 9.6M258.2 401.5h46.2M271.4 526.1l44.7-26.5M273.8 537.8l46.8-25.6M327.9 408.5l4.4 43.2M323 359.7l3.8 36.6M345.3 402.5l4.5 30.1M338.4 354.1l5.7 39.3"/><path class="st8" d="M219.3 646.3c0 9 77.8 50 89.6 42 2.2-1.5 6.2-8.7 11.1-19.4l-88.2-41.7c-7.7 10.3-12.5 17.4-12.5 19.1z"/><path class="st9" d="m231.7 627.1 88.2 41.7c2.4-5.2 5.1-11.3 7.9-18L243 612.2c-4.1 5.6-8 10.6-11.3 14.9zM349.1 598.1c-1.5-27.7 4.7-53 13.8-80.3-4.7-11.8-8.5-22.4-11.3-30.1-1.1-1.5-2.1-2.9-3.2-4.3-8.9 10.6-61.2 73.1-96.4 117.7l81.5 36.3c5.1-12.4 10.4-25.9 15.6-39.3z"/><path class="st8" d="M252.1 601c-3.2 3.9-6.2 7.8-8.9 11.4L328 651c1.8-4.4 3.7-8.9 5.6-13.7L252.1 601z"/><circle cx="255.7" cy="628.4" r="6.5"/><circle cx="277.2" cy="638.9" r="6.5"/><circle cx="296.1" cy="646.8" r="6.5"/><circle cx="314.4" cy="655.3" r="6.5"/><circle cx="320" cy="611.7" r="6.5"/><circle cx="296.5" cy="603.7" r="6.5"/><circle cx="274.7" cy="593.1" r="6.5"/><circle cx="292.1" cy="574" r="6.5"/><circle cx="312.5" cy="582" r="6.5"/><circle cx="331.5" cy="590.6" r="6.5"/><circle cx="308.8" cy="555.7" r="6.5"/><circle cx="326.4" cy="562.1" r="6.5"/><circle cx="347.3" cy="571.3" r="6.5"/><circle cx="326.4" cy="537.8" r="6.5"/><circle cx="345.3" cy="546.8" r="6.5"/><path class="st7" d="m233.1 639.6-8.2 12.2M239.1 644.2l-7.8 12.7M250.3 647.6l-10.1 15.5M256.9 651.4l-7.7 16.5M271.4 661.8l-6.2 13.5M280.6 663.1l-6.8 16.6M296.5 671.4l-6.6 14.8M304.4 673.4l-4.5 14.9M219.3 646.3c0 9 77.8 50 89.6 42 5.7-3.9 23.5-47.1 40.2-90.2-1.5-27.7 4.7-53 13.8-80.3-4.7-11.8-8.5-22.4-11.3-30.1-1.1-1.5-2.1-2.9-3.2-4.3-13.6 16.2-129.1 154.4-129.1 162.9z"/><path class="st3" d="M501 515.1c-16.9-6.9-120.8-47.2-135.2-5.7-15.9 45.2-24.8 83.7-7.4 134.8 14.9 43.7 125.4 50 156.7 51l-19-163.9 4.9-16.2z"/><path class="st4" d="M503.4 516.1s-.9-.3-2.3-1l-4.9 16.2L515.1 695c5.2.1 8.2.1 8.2.1l-19.9-179zM481.4 628.4l-60.9-2.8-13.1 53.9c27.8 8.8 61.3 12.7 85.1 14.3l-11.1-65.4z"/><path class="st2" d="M357.9 499.6c-2.9 0-21 3.8-22.3 8.2-1.4 4.4 1 14 6.7 16.1 5.4 1.9 26-7.8 26-7.8l5 17.9s-23.3 6.4-24.6 10.9c-1.3 4.5.4 12.4 7.6 15.6 7.1 3.1 27-11.2 27-11.2v11.2s-17.8 9.6-18.5 15.2c-.7 5.6 4.3 15.6 9.3 15.6s20.5-15.6 20.5-15.6l7.3 9.8S385 595.9 385 601.2s5.2 14.6 11.1 12.8 18.1-18.1 18.1-18.1l66-.7s10 9.9 16.2 8.5 8.3-12.7 6.2-17.1c-2.1-4.5-18.7-7.3-18.7-7.3l6.4-14.9s16.1 7.1 22.3 4.6c6.3-2.4 6.5-14.6 6.4-17.3-.1-2.9-22.7-4.3-23.6-4.8-.9-.5 3.2-16.4 3.2-16.4s22.1 4.9 25.3 3.7c3.2-1.3 4.6-13.3 3.2-15.5-1.4-2.3-24.2-5.1-24.2-5.1l3.9-13.7s25.2 6.6 27.7 4c2.4-2.4 5-16.4 1.4-20.4-3.5-4-29-3-29-3l-149 19.1z"/><path class="st3" d="M347.5 475.8s36.2 108.2 60.1 123.1 68.5 15.4 79.6-11.2c11.1-26.6 28.4-111.2 28.4-111.2l-84.9-17.6-83.2 16.9z"/><circle class="st2" cx="445.1" cy="560.4" r="38.5"/><circle class="st4" cx="341.4" cy="499.6" r="13.6"/><circle class="st4" cx="341.4" cy="499.6" r="5.9"/><circle class="st4" cx="401.8" cy="535.6" r="13.6"/><circle class="st4" cx="401.8" cy="535.6" r="5.9"/><circle class="st4" cx="481.4" cy="529.8" r="13.6"/><circle class="st4" cx="481.4" cy="529.8" r="5.9"/><circle class="st4" cx="559" cy="476.7" r="12.8"/><circle class="st4" cx="559" cy="476.7" r="5.4"/><circle class="st4" cx="531.3" cy="475.8" r="12.8"/><circle class="st4" cx="531.3" cy="475.8" r="5.4"/><circle class="st4" cx="549.5" cy="523.9" r="12.8"/><circle class="st4" cx="549.5" cy="523.9" r="5.4"/><path class="st0" d="M563.8 327.1c-.6 0-15.7 14.2-25.2 14.9-9.4.7-43-4.6-43-4.6l-20.7-38 62.2-22.3 26.7 50z"/><path class="st4" d="M563.8 199.7c-1.4.2-19.9 3.6-23.1 14.5-3.2 10.9 12.1 23.8 23.1 19.6 11-4.3 9.8-11.7 9.8-16.4 6.9 4.5 89.4 117.7 97.4 113.2s-87.9-135.1-91.5-138.5c-3.6-3.5-6.7-5.1-11.5-3.3-4.8 1.8-4.2 10.9-4.2 10.9z"/><path class="st0" d="m483.6 297.6 29.2 29.8 29.2 32.1v23.8s-25 6.7-25.6 7.8c-.5 1.1-5.3 62.5-5.3 62.5l-92.6-28.7-17.3 8.8-18.1-3.4-12-21.3 5-18.6s17.3-7.4 17-7.8 16.3-22.1 16.3-22.1l1-44.3 18.5-20.5 52.2-7.9 2.5 9.8z"/><path class="st0" d="M423.6 366.5s-7.9-14.2-18.6-11-15.1 20.1-11.5 30.1c4.4 12 17.1 14.9 27 12.8"/><path class="st7" d="M404 365.7c8.2-2.9 16.3 11.7 16.3 11.7M438.5 376s-10.6 3.7-12.4 8.5c-1.8 4.8.6 11.7 6.5 11.7h26.5"/><path class="st3" d="M430.6 496.8c38.8-1.3 64.6-33.3 72.9-46.5-32.2-11.3-85-25.3-85-25.3l-22.6 12.3-19.9-11.7-18.6 13.6c9.9 18.4 36 58.9 73.2 57.6z"/><path class="st1" d="M428.9 513.3c50.9-1.8 79.1-43.9 87.1-58.3-3.6-1.5-7.8-3.1-12.4-4.7-8.4 13.2-34.2 45.2-72.9 46.5-37.3 1.3-63.3-39.2-73.2-57.5l-14 10.3c10.7 21.2 38.7 65.3 85.4 63.7z"/><path class="st4" d="m374.6 491.8-8 12.3c2.3 2.1 4.8 4.1 7.3 6.2l6.5-13.6c-1.9-1.6-3.8-3.2-5.8-4.9z"/><path class="st4" d="m368.5 485.8-8.6 11.6c2.1 2.3 4.4 4.6 6.8 6.8l8-12.3c-2.2-2-4.2-4-6.2-6.1zM380.4 496.7l-6.5 13.6c3.3 2.6 6.8 4.9 10.5 7l5.3-14.3c-3.2-1.9-6.3-4.1-9.3-6.3zM399.9 508.1l-3.4 14.9c4 1.5 8.2 2.8 12.6 3.6l2.3-15c-4-.8-7.8-2-11.5-3.5zM362.7 479.3l-9.2 10.7c1.9 2.4 4 4.9 6.3 7.2l8.6-11.6c-2-1.9-3.9-4.1-5.7-6.3zM350.8 462.8l-10 8.6c1.3 2.2 2.8 4.6 4.4 7l9.8-9.5c-1.5-2.1-2.9-4.1-4.2-6.1z"/><path class="st4" d="m343.5 449.6-10 7.3s2.4 6 7.3 14.5l10-8.6c-3-4.9-5.4-9.4-7.3-13.2zM411.5 511.7l-2.3 15c4.5.9 9 1.4 13.9 1.6v-15c-4.1-.2-7.9-.8-11.6-1.6zM355 468.9l-9.8 9.5c2.4 3.7 5.2 7.7 8.4 11.7l9.2-10.7c-2.9-3.6-5.5-7.1-7.8-10.5zM389.7 503l-5.3 14.3c3.7 2.1 7.8 4 12 5.7l3.4-14.9c-3.5-1.5-6.9-3.2-10.1-5.1zM527.9 461.8c-.3-1.6-4.8-4-11.8-6.9-1.1 1.9-2.6 4.3-4.3 7l14 6.6c1.5-3.8 2.1-6.3 2.1-6.7zM492.6 485l11.3 13.3c3.4-3.1 6.5-6.2 9-9.2l-14.6-10c-1.6 2-3.6 4-5.7 5.9zM505.6 470.6c-2.1 2.8-4.5 5.6-7.1 8.5l14.6 10c3.1-3.6 5.5-7.1 7.6-10.3l-15.1-8.2z"/><path class="st4" d="m525.8 468.5-14-6.6c-1.7 2.7-3.8 5.5-6.2 8.7l14.9 8.2c2.5-3.9 4.2-7.4 5.3-10.3zM484 492.5l10.4 13.2c3.5-2.4 6.7-4.9 9.5-7.4L492.6 485c-2.6 2.5-5.5 5.1-8.6 7.5zM452.7 509.2l5.1 13.5c4.4-1.3 8.5-2.7 12.4-4.3l-6.1-13.7c-3.5 1.8-7.3 3.3-11.4 4.5z"/><path class="st4" d="m472.8 500.2 8.7 13.3c4.8-2.4 9-5 13-7.8l-10.4-13.2c-3.6 2.7-7.3 5.4-11.3 7.7zM437.9 512.5l2.8 14.3h.2c6.1-1.1 11.7-2.4 17-4l-5.1-13.5c-4.7 1.3-9.6 2.5-14.9 3.2zM428.9 513.3c-2 .1-3.9 0-6 0v15c5.6.1 11.5-.3 17.8-1.4l-2.8-14.3c-2.9.3-5.9.6-9 .7z"/><path class="st4" d="m464.2 504.8 6.1 13.7c3.9-1.6 7.7-3.3 11.2-5l-8.7-13.3c-2.7 1.6-5.6 3.2-8.6 4.6z"/><path class="st6" d="M258.7 94.4c-18.4 0-97.9-23.1-103.5-18.7s-6.1 14.8 2.1 18.7c8.2 3.9 84.1 16.4 84.4 21 .3 4.6-82-11.7-86.3-11.7s-6.1 11.4-1.1 14.9 89.5 10.6 89.1 12.8c-.4 2.2-81.6-2.4-85.9 0-4.3 2.4-2.2 11.8 2.9 12.4s58.5 2.4 76.6 7.1c-22.3 2-74.9-.3-80.5 2.9-5.5 3.2-5.3 14.6.3 16.3 5.6 1.8 58.5-.7 82.2 0-8.8 6.5-48.9 6.1-61 8.5-12.1 2.4-22.7 11.3-18.1 15.2 4.6 4 53.9-4.3 71-.6-35.1 7.9-64.6 17.3-67.8 21.1-3.2 3.8-3.5 10.9 2.1 10.9s71.6-16.4 82.7-13.6c11 2.8 36.9-11.6 36.9-11.6L270.7 98.8c0-.1 6.4-4.4-12-4.4z"/><path class="st7" d="M247.3 170.3c-1.4 0-4.6 0-8.2-.3M231 193c8.8 1.6 20.2-3.1 18.6-3.6"/><path class="st2" d="m310.7 94.4 3.4 104.4c5.3-1.3 12.6-4.5 17.3-5.7l3.1-96.7-23.8-2zM262.5 90.9c-.3.7-6.7 67 4.6 114.6 2.8 2.3 24.7-3 46.9-8.5l-3.4-102.6-48.1-3.5z"/><path class="st1" d="m389.7 164.4-1.8-47-51-21-2.4-.2-3.1 96.7c13.6-3.5 24-6.5 24-6.5l34.3-22z"/><path class="st6" d="M331.2 85.1s-20.9 8.2-47.1-1.1-44.4-35.8-52.1-35.8c-7.8 0-9 9.8-6.4 16 2.7 6.3 19.6 32.6 56.4 42.6 40 10.9 55 0 55 0l-5.8-21.7zM211.9 239.6c-5-2.4 16.3-25.7 33.7-35.3 17.3-9.6 88.1-24.5 93.8-21.3 5.7 3.2-26.8 26.8-26.8 26.8-14.2 1.5-20.6 1-48.2 12-27.7 11.1-47.7 20.3-52.5 17.8z"/><path class="st6" d="M383.2 126s-30.1-5.6-45-14.6c-14.9-8.8-20.5-32.5-21.3-39.4-.7-6.9 7.2-10 10.3-6.1 3.1 3.9 13.8 20.2 26.9 28.4s33.7 8.2 33.7 8.2l1.4 70.2s6.4-24.3-21 18.1C302.6 221 298 231 291.9 231s-2.9-13.3 9.3-26.8c12-13.4 77.7-44.7 77.7-44.7l4.3-33.5z"/><path class="st10" d="M470.8 153.2c-2.7-6.2-33.2-26.5-57.5-39.6-5.5 5.7-12.3 15.2-16.1 29.9-4.3 16.7-1.1 29.7 2.2 37.5 4.9-1.4 9.7-2.7 14.2-3.6 18.4-4.1 53.2-3 53.2-3s7.9-12.2 4-21.2z"/><path d="M397.3 143.7c3.7-14.7 10.4-24.3 16.1-29.9-10.7-5.7-20.2-10.1-25.6-11.2-2.1-.3-12.4 12.8-17.3 42.6-5 29.8-2.1 45.8-2.1 45.8s15.6-5.3 31.3-9.8c-3.5-7.8-6.5-20.9-2.4-37.5z" style="fill:#ffce00"/><path class="st7" d="M413.6 177.5c-18.4 4.1-45.4 13.3-45.4 13.3s-2.9-16 2.1-45.8 15.2-42.9 17.3-42.6c17.8 3.5 79.4 41.8 83.1 50.8 3.7 8.8-4 21.3-4 21.3s-34.6-1-53.1 3z"/><path class="st4" d="M466.8 207.8s23.8-30.1 28.7-31.2c5-1.1 5 2.1 5 5.3 0 3.2-29.7 39-29.7 39l-4-13.1z"/><path class="st4" d="M472.1 211.4s31.6-22 35.1-22 3.5 7.1 1.1 9.4c-2.4 2.1-36.9 20.4-36.9 20.4l.7-7.8z"/><path class="st4" d="M466.8 220.4s47.6-25.5 52.1-25.5 1.7 9.3-1.8 11.1-40.8 19-40.8 19l-9.5-4.6z"/><path class="st4" d="M480 221.1s33.1-17.3 37.2-16.3 4.9 8.5 1.8 9.5-35.9 11.4-36.9 11.7c-1.1.3-2.1-4.9-2.1-4.9zM455.1 211.4c1.1-1.8 15.9-42.9 21.9-46.1 6-3.2 13.8 2.1 11.7 13.1s-18 38.9-18 38.9l-15.6-5.9zM450.7 215.9c-1.3-2.9-2.9-5.2-4.7-6.7-8.1-6.1-39.5 2.2-43.3 8.9-1.2 2-1.2 5.3-.7 9 10.4-6.6 34.5-12.8 48.7-11.2z"/><path class="st4" d="M401.9 227.2c.3 2.4 1 5.1 1.6 7.6 12.1-6.8 37.3-12.8 50.2-9.8-.9-3.1-1.8-6.3-3.1-9-14.1-1.7-38.2 4.5-48.7 11.2z"/><path class="st4" d="M403.5 234.7c1.6 6.1 3.7 11.2 3.7 11.2l49.3-5.6s-.7-7.6-2.8-15.3c-12.9-3-38.1 2.9-50.2 9.7z"/><path class="st1" d="M405.5 199.4c-9.2-2.1-12.8-12.4-6.4-21.3 6.4-8.8 18.8-16 38-16s32.2.3 36 10.3c3.7 9.9-5.2 19.4-5.2 19.4s-53.3 9.7-62.4 7.6z"/><path class="st4" d="M476.4 225s40.6-12.4 42.6-10.6c1.9 1.8 2.3 7.4 0 7.9s-35.3 6-35.3 6l-7.3-3.3z"/><path class="st5" d="m500.5 241.7-18.4-15.6s-61.9 12.9-87.8 18.1c10.6 12.9 17.3 29 18.4 46.8l92.9-24-5.1-25.3z"/><path class="st2" d="M397.3 377.6c-17.4 0-31.6 14.2-31.6 31.6s14.2 31.6 31.6 31.6 31.6-14.2 31.6-31.6c0-17.4-14.1-31.6-31.6-31.6zm0 52.8c-11.7 0-21.3-9.6-21.3-21.3s9.6-21.3 21.3-21.3 21.3 9.6 21.3 21.3c0 11.8-9.5 21.3-21.3 21.3z"/><path class="st4" d="M382.7 481.7c-2.1 5.6-4.1 16 .3 22 4.6 6.1 26.6 5.3 29.8-1.4 3.2-6.7 3.1-16.7 1.1-20.5s-11.4-10.6-11.4-10.6-17.6 4.9-19.8 10.5z"/><path class="st7" d="M392.2 478.2s-3.8 11.7-1.1 16c2.8 4.3 10 2.9 11.5 0s0-16 0-16h-10.4z"/><path class="st1" d="M383.2 454.8c-.3 14.4-.4 26.9-.4 26.9H414s-.9-12.6-1.8-26.9h-29z"/><path class="st3" d="M409.3 411.8c0-3.5-20.5-2.9-23.4 1.1-1.6 2.2-2.4 23.5-2.8 41.8H412c-1.2-18.8-2.7-40.9-2.7-42.9z"/><circle class="st4" cx="433.6" cy="696.9" r="10.1"/><circle class="st7" cx="433.6" cy="696.9" r="4.4"/><path class="st7" d="M179.9 719.7c7.4-2.8 17.3.3 17.3.3M199.6 702.7s-6.7-4-11.9-1.4M195.9 689.3c-1.9 5.9 7.8 7.1 9.6 3.7M193.3 737c1.2-4.3-5.2-8.5-8.9-5.6M209.4 806.6c8.2-2.7 3.9-10.7-.9-10.7M238.8 829.6c-.9-4.6 0-9.2 0-9.2M225.7 811.3l-4.3 8.4M258.7 826.8c0-3.5-13.3-3.8-10.1 8.2M678.4 705.6c-4.9 1.1-7.8 6.1-7.8 6.1M661.7 706.9s1.3-7 6-8.5"/><path class="st3" d="m574.1 523.9 11.2 12.8s28.2-3.9 30.1-6.9c1.9-3 7.4-30.5 5.6-34.9-3-7-28.2-14.7-28.2-14.7l-17.3 26-1.4 17.7z"/><path class="st7" d="M647.8 532.7c-1.3.7-2.2 1.4-2.2 1.4.5.2 1.2-.4 2.2-1.4zM651.1 528c-1.3 1.9-2.4 3.6-3.4 4.7 3.3-2.1 8.1-5.6 3.4-4.7z"/><path class="st4" d="M665.5 466.7c1.9-.6 4.4-5.9 5.9-9.5-2.1-.4-4.3-.3-5.2.4-.7.5-2.8 3.8-5.4 8.3 1.6.8 3.5 1.3 4.7.8zM599.1 234.7c1.5-1.2 1.4-9.4 1.3-14-1.5 0-3 .4-3.9 1.2-.9.8-1.8 6.4-2.7 13.5 2 .2 4.3.1 5.3-.7z"/><path class="st0" d="M613.7 256.3c-6.5-12.1-6.4-24.2-7.2-30.3-.5-4-3.5-5.3-6.2-5.3.2 4.8.3 12.9-1.3 14-1 .7-3.2.7-5.3.6-1.4 11.7-3 27.5-6.2 31.5-5.1 6.5-14.9 6.3-16.8 10.2s7.2 20.5 7.2 20.5l16.8 11.6s29 1.5 33.3-7.7c5.8-12.4-8.6-34.7-14.3-45.1z"/><path class="st7" d="M557.3 214.8c4-7.2 16.3-4 16.3 2.6"/><path class="st1" d="M622.5 219.8c-1.4-.3-11.2-1.6-11.7-5.9-.5-4.1-4.5-8.5-10.4-8.2 1.6-4.3 10.4-4.8 10.4-10.2 0-5.5-3.2-9.5-9.4-8 3-6.7 10.4-3.2 11.5-7.7s-8-7.2-12.6-7.2c1.6-5 11-7.4 16.5-6.6 5.6.9 6.7 8.5 6.7 8.5l10.7 13.3-11.7 32z"/><circle class="st3" cx="463.6" cy="346.5" r="31"/><circle class="st4" cx="463.6" cy="346.5" r="17.6"/><circle class="st7" cx="463.6" cy="346.5" r="7.4"/><path class="st1" d="M448.3 355.1c-4.8-8.4-1.7-19.2 6.7-23.9 8.4-4.8 19.2-1.7 23.9 6.7l-30.6 17.2z"/><path class="st3" d="M526 317.5c-14.4-3.2-19.5 7.2-22.6 14.7-3 7.3 2.7 20.7 9.6 22s17.1-2.6 21.1 1.9c3.9 4.6 2.4 18.3-2.9 19.9s-41.6 5.3-44.7 7.1c-3.1 1.8-5 13.1-7.9 13.5-2.8.3-3-7.4-6.8-9.6-3.8-2.1-16.8-1.4-22.2.9s-6.4 16.3-2.4 19.4c3.9 3.1 16.8 3.5 19.2 6.7 2.3 3.2 3.5 13.8 6.9 16.5s20.7 1.3 21.5-2.3c.7-3.5-1.8-24.5 2.4-28 4.3-3.5 46.5-.3 50.3-5.6 1.4-1.9 7.8-50.5 1.8-56.1-2.8-2.6-10.2-2.1-12-5.3 1.3-6.5-.5-13.2-11.3-15.7z"/><path class="st7" d="M518.5 335.9c2 6.8 16.6 8.3 18.9-2.8"/><path class="st8" d="M495 408.2c-.4 6.2.1 14.2 0 18.1 5.9 1.2 20.5 3.5 30.9.9 6.8-1.7 8.8-10.4 9.2-18.5-8.6-.7-23.8-1.4-40.1-.5z"/><path class="st10" d="M535 408.6c.2-4.4-.1-8.5-.4-11.2-14 1-34.4.3-37.2 2.7-1.4 1.2-2.1 4.3-2.3 8 16.2-.8 31.4-.1 39.9.5z"/><path class="st7" d="M497.3 400.1c-3.7 3.1-2.2 19.8-2.3 26.2 5.9 1.2 20.5 3.5 30.9.9 10.5-2.7 9.6-22 8.8-29.7-14.1.9-34.5.2-37.4 2.6z"/><path class="st7" d="M501.1 427.3c2.8-2.9 2.4-19.9 2.4-19.9M509.8 428.4c3-5.5 2.4-20.6 2.4-20.6M518.5 427.3c2.7-6.1 2.7-18.8 2.7-18.8M527.9 408.2c1.6 9.2-2 18.9-2 18.9"/><path class="st9" d="M506.5 281.9c-1.1-.4-1.9-1.1-2.4-1.6-1.6-1.8-3-8.2-4.6-15.1l-87.7 17.6c.7 4.4 1.1 8.7 1.1 13.3 0 3.3-.2 6.7-.6 9.9l94.5-21.9c-.1-.8-.2-1.6-.3-2.2z"/><path class="st8" d="M412.3 305.8c-.4 3.4-1.1 6.7-1.8 9.9 3.1 4.1 15.5 3.3 15.5-2.4 3.5 5.1 11.2 1.4 11.2-2.4 5.1 2.9 18.9-.7 18.9-5.3 1.6 4.3 8.5 1.1 9.6-2.4 1.8 2.7 13.2 1.6 14.3-2.4 2.1 2.9 8.8 2.3 8.5-1.2 7.8 1.8 19.5-1.4 19.5-6.1 0-1.5-.5-5.2-1.2-9.5l-94.5 21.8z"/><path class="st7" d="m486 291.3 2.5 8.1M480 300.5l-1.2-6.4M464.3 295.9l1.4 7M456.1 305.4l-1-6.9M435 302.3l2.2 8.4M426 313.3l.2-8.5M499.4 265.1l-87.7 17.6c.7 4.4 1.1 8.7 1.1 13.3 0 6.8-.9 13.4-2.4 19.8 3.1 4.1 15.5 3.3 15.5-2.4 3.5 5.1 11.2 1.4 11.2-2.4 5.1 2.9 18.9-.7 18.9-5.3 1.6 4.3 8.5 1.1 9.6-2.4 1.8 2.7 13.2 1.6 14.3-2.4 2.1 2.9 8.8 2.3 8.5-1.2 7.8 1.8 19.5-1.4 19.5-6.1 0-1.8-.6-6.4-1.5-11.5-1.1-.4-1.9-1.1-2.4-1.6-1.5-2-2.9-8.4-4.6-15.4z"/><path class="st4" d="M482.1 226s20.2-5.5 26.6-3.8c6.4 1.7 20.5 49.2 20.5 56.6s-21.5 5.6-25.2 1.4c-3.6-4.3-6.3-33-13.3-36.5-7.1-3.5-7.1-10.3-7.1-10.3l-1.5-7.4z"/><path class="st4" d="M487.4 231.1s47.6 1.4 48.9 4.8c1.4 3.4.3 10.3-5.3 10.3s-41.8-6.6-41.8-6.6l-1.8-8.5z"/><path class="st4" d="M483.6 248.4s49.9 14.2 54.5 11.7c4.6-2.4 5-9.6 1.4-11.7-3.5-2.1-50.3-8.7-50.3-8.7l-5.6 8.7z"/><circle class="st4" cx="473.4" cy="237.5" r="20.4"/><path class="st7" d="M465.7 226.7 480 219M471.9 232.6l16.6-8.3M474.9 236.6l17.4-3.2M476.4 243l16.2.3M474.9 250.8l12.5 1.1"/><circle class="st4" cx="516.4" cy="284.9" r="12.8"/><circle class="st4" cx="516.4" cy="284.9" r="5.3"/><path class="st3" d="M401.6 217.1c-5.2-1.8-6.7-9.6-3.9-16.3 2.9-6.7 23.1-16.3 41.5-16.3s28.7 4.3 31.2 11.4c2.4 7.1-4.8 17.3-15.2 15.6-10.4-1.7-8-3.5-21.2-2.4-13.3 1-27.2 9.8-32.4 8z"/><circle class="st4" cx="445.2" cy="245.2" r="19.2"/><circle class="st7" cx="445.2" cy="245.2" r="6.9"/><path class="st1" d="M427.6 252.7c-4.1-9.7.2-21 10-25.2 9.7-4.1 21 .2 25.2 10l-35.2 15.2z"/><path class="st8" d="M331.2 214.3c-3.8 0-7.6.3-11.2.7-20.7 11.7-24 16.1-28.1 16.1-2.3 0-3.3-1.9-2.9-5.1-23.6 14.3-39.5 40.2-39.5 69.9 0 2.3.1 4.6.3 6.9 19.3-1.4 73.3-5.3 73.3-4.1 0 1.2-51.9 23.3-66.9 29.6 12.6 29 41.4 49.3 75 49.3 45.1 0 81.7-36.6 81.7-81.7s-36.6-81.6-81.7-81.6z"/><path class="st7" d="M321.5 215.4v15.7M332.3 214.3l.2 16.8M393 274.1l16.3-2M395.8 283.9l16.1-1.3M396.2 306.9l15.7 2.3M395.8 316.5l13.5 3.4M383.2 340.9l9 9.4M374.3 348.7l8.1 11M337 360.7l1.4 15.3M326 360.7v16.7M290.9 350.3l-6.1 10.4M284.8 343.1l-9.2 11M264.6 279.5l-12.6-2.9M271.4 269.2l-13.2-7.3M282.2 251.9l-9.5-11.8M288.4 245.4l-8.1-11.9"/><path class="st9" d="M331.2 238.5c-31.7 0-57.5 25.7-57.5 57.5 0 1.7.1 3.4.2 5.1 4.7-.3 9.6-.6 14.4-1-.1-1.4-.2-2.8-.2-4.1 0-23.8 19.3-43.1 43.1-43.1s43.1 19.3 43.1 43.1-19.3 43.1-43.1 43.1c-17.7 0-32.9-10.6-39.5-25.9-4.4 1.9-8.9 3.8-13.2 5.6 8.8 20.3 29.2 34.6 52.7 34.6 31.7 0 57.5-25.7 57.5-57.5s-25.8-57.4-57.5-57.4z"/><path class="st9" d="M331.2 330c18.8 0 34-15.2 34-34s-15.2-34-34-34-34 15.2-34 34c0 1.2.1 2.4.2 3.6 14.3-.9 25.7-1.4 25.7-.9s-10.3 5.2-23.2 10.9c5.4 12 17.4 20.4 31.3 20.4z"/><path class="st4" d="M307 431c2.1-1.2 4.3-2.3 6.3-3.5-1.7-12.4-4-25.3-6.3-26.1-4.5-1.6-102.7 23.5-106.4 26-3.7 2.4-2.7 22.1 2.7 24.2 2.9 1.1 36 1.1 65.5.7 8.3-4.7 17.4-9.8 26.8-15 3.8-2 7.5-4.1 11.4-6.3z"/><path class="st4" d="m261.6 421 2 24.3c3.7 0 7.4-.1 11.1-.1l-2.7-26.9c-3.3.9-6.8 1.9-10.4 2.7z"/><path class="st5" d="M213.1 432.6c-5.7 1.7-3.3 11.4 1.3 12.4 2.1.5 24.9.4 49.3.2l-2-24.3c-23.6 6.2-43.5 10.1-48.6 11.7z"/><path class="st4" d="M307 431c2.1-1.2 4.3-2.3 6.3-3.5-1-7-2.1-14.2-3.3-19.2-6.9 1.8-16.7 4.5-27.6 7.2l1.6 28.2c3.8-2.1 7.8-4.3 11.6-6.5 3.8-1.9 7.5-4 11.4-6.2zM272.1 418.4l2.7 26.9c2.2 0 4.6 0 6.8-.1.9-.4 1.6-1 2.4-1.4l-1.6-28.2c-3.4 1-6.8 1.8-10.3 2.8z"/><path class="st4" d="M307 431c-3.8 2.1-7.6 4.1-11.4 6.3l4.5 7.2 11.7-6.3-4.8-7.2zM311.8 438.4l-11.7 6.3 4.3 7 11.7-6.6zM314.5 468.2l5.5 8.9c3.8-2.8 7.8-5.5 11.5-8.3l-5.3-8.2-11.7 7.6zM316.1 445.1l-11.7 6.6 4.4 7.2 11.8-6.9z"/><path class="st4" d="m320.6 452-11.8 6.9 5.7 9.3 11.7-7.7z"/><path class="st2" d="M233.1 474.2c0 3.9 26.6 42.2 30.1 42.2 1.7 0 28.9-19.4 56.7-39.4l-24.4-39.8c-32 18-62.4 35.2-62.4 37z"/><path class="st1" d="M319.3 424.3c-4 2.2-8.2 4.5-12.3 6.7l24.6 37.7c3.6-2.7 7.2-5.3 10.7-7.8l-23-36.6z"/><path class="st2" d="M365.7 409.1c0-3.9.7-7.7 2-11.2-7.4 4-26.8 14.5-48.5 26.4l23.1 36.6c16.9-12.2 31.2-22.8 36.2-26.4-7.8-5.7-12.8-14.9-12.8-25.4z"/><path class="st1" d="m541.3 271.4 29.6 58.2c3.3-2.3 6.9-5 10.4-7.7l-26.7-54c-4.5 1.1-9.2 2.4-13.3 3.5z"/><path class="st3" d="M594.9 309.2c0-3.5-21.6-44.9-23.7-44.9-.9 0-8.3 1.6-16.6 3.6l26.7 54.2c7.2-5.6 13.6-11.2 13.6-12.9z"/><path class="st4" d="m553 294.3-14.3 6.6c1.2 2.4 2.3 4.9 3.6 7.3l14.4-6.7-3.7-7.2z"/><path class="st4" d="m549.3 287.2-14.2 6.2c1.1 2.4 2.2 4.9 3.5 7.6l14.3-6.6-3.6-7.2zM541.3 271.4c-6.5 1.9-11.7 3.6-12.3 4.8-.4.6.6 4.1 2.7 9l13.8-5.6-4.2-8.2zM545.5 279.6l-13.8 5.6c1 2.4 2.1 5.2 3.5 8.1l14.2-6.2-3.9-7.5zM560.4 309.1l-13.9 7.2c1.2 2.2 2.4 4.4 3.5 6.3l13.7-6.9-3.3-6.6zM553.9 328.8c3.1 4.7 5.6 7.6 6.9 7 1.7-.6 5.5-3.1 10.1-6.2l-4.3-8.3-12.7 7.5z"/><path class="st4" d="m563.8 315.7-13.7 6.9c1.4 2.3 2.7 4.4 3.8 6.2l12.8-7.4-2.9-5.7zM556.7 301.6l-14.4 6.7c1.4 2.8 2.8 5.4 4.1 8l13.9-7.2-3.6-7.5z"/><path class="st1" d="M599.4 347.5c-.4 3.4 5.6 4.8 6.9 1.1.9-2.3 21.2-69.8 35.9-119.8l-25.7-1.9c-7.1 50.1-16.8 118.5-17.1 120.6zM649.9 202.5l-29.8-2c-.4 3.3-1 6.7-1.5 10.4l28 2.9c1.2-4 2.3-7.8 3.3-11.3z"/><path class="st3" d="M618.7 210.9c-.7 5-1.5 10.3-2.2 16l25.7 1.9c1.6-5.2 3-10.3 4.5-15l-28-2.9z"/><path class="st0" d="M610 252.9c-6.2 0-4 11.4 1.9 11.4-3.5.6-3.5 7.8 2.1 9.8-3.7 2.7-2.4 10.3 3 10.7-4 1.7-2.7 11.4 3 11.5 5.5.1 20-7.4 22.9-10.1s3.7-9 0-10.6c3.2-3.6 3-8.9-1.6-11.4 3.2-4.3 1.4-10.5-1.9-11.4 3-4.6 2.7-8.1-1.9-11.2-4.6-2.8-16.3 10.5-27.5 11.3z"/><path class="st7" d="M630 255.5s-8.5 8.1-18.1 8.8M614 274.1c8.5 1.4 17-6.4 17-6.4M616.9 284.9c7.4.4 17.9-6.5 17.9-6.5"/><path class="st2" d="M657.3 175.7c0-3.5-33.8-4-33.8-1.1 0 .5-.6 5.5-1.8 13.6l31.7 1.8c2.6-8.3 3.9-13.7 3.9-14.3z"/><path class="st4" d="m632.4 188.9-1.7 12.3 8.7.6 1.9-12.5zM621.8 188.2c-.5 3.5-1.1 7.7-1.7 12.2l10.6.7 1.6-12.3-10.5-.6zM653.5 190.1l-12.2-.7-1.9 12.4 10.5.7c1.4-4.7 2.5-8.8 3.6-12.4z"/><circle class="st4" cx="494.1" cy="681.4" r="12.8"/><circle class="st7" cx="494.1" cy="681.4" r="5.4"/><circle class="st4" cx="400.5" cy="686.2" r="12.8"/><circle class="st7" cx="400.5" cy="686.2" r="5.4"/><circle class="st4" cx="447.6" cy="692.4" r="14.5"/><circle class="st7" cx="447.6" cy="692.4" r="6.2"/><path class="st1" d="M431.8 688.2c3.2 4.5 26.9 1.8 28.6-.9.5-.9.2-6.9-.4-14.9h-28.5c-.7 8-.8 14.4.3 15.8zM388.2 676.7c0 3.2 26 9.3 27.3 6.1.4-1.1 1.7-7.2 3.1-15l-25.1-6.2c-3.1 7.9-5.3 14.1-5.3 15.1z"/><path class="st6" d="m481.4 614.3-72.5 9.9c-.9 1.5-9.6 22.4-15.4 37.5l25.1 6.2c3-16.2 6.8-39.4 6.8-39.4l11 2.3s-3.6 24.7-4.9 41.8H460c-1.4-18-4.7-45.8-4.7-45.8l12.7-2.7s4 24.7 7.6 40.9l23.8-6.7c-6.7-16.1-18-44-18-44z"/><path class="st1" d="m499.3 658.2-23.8 6.7c1.6 7.3 3.1 12.9 4 13.5 3 2.1 25.7-5.6 24.2-9.6-.4-.8-2.1-5-4.4-10.6zM447.6 634.2c25-2.4 37.9-9.8 43.8-14.9-1.6-3.6-3.6-7.9-5.7-12.3-3 4-12.1 10.7-40.3 14.2-20.5 2.4-32.9-1.7-40.1-6.6-2.8 5.2-5.3 10.1-7.1 13.8 8.9 3.7 25.1 8.2 49.4 5.8z"/><path class="st4" d="m432.8 634.9-.7 11c3 .1 6.2.1 9.6 0v-11.3c-3.2.2-6.1.3-8.9.3zM423.7 634.4l-.6 10.7c2.9.3 5.9.6 9 .7l.7-11c-3.3 0-6.3-.1-9.1-.4z"/><path class="st4" d="M447.6 634.2c-2.1.2-4.1.3-6.1.4v11.3l5.7-.3c1.2-.1 2.2-.2 3.4-.3l-.3-11.3c-.9.1-1.7.2-2.7.2zM405.8 631.1l-2.6 9.3c2.4 1.1 5.4 2 8.8 2.9l2.2-10c-3-.7-5.8-1.5-8.4-2.2z"/><path class="st4" d="M398.4 628.3c-1.5 3.1-2.4 5.4-2.4 6.2 0 1.5 2.7 3.7 7.4 5.7l2.6-9.3c-3.1-.7-5.6-1.6-7.6-2.6zM414.4 633.1l-2.2 10c3.2.7 6.8 1.5 10.7 1.9l.6-10.7c-3.2-.2-6.2-.7-9.1-1.2zM484.4 624.2l4 10c4.3-2.6 6.5-4.8 6.5-6 0-.7-1.4-4.1-3.5-8.8-1.6 1.4-3.9 3.1-7 4.8z"/><path class="st4" d="m476.6 627.8 3 10.6c3.6-1.5 6.6-3 9-4.4l-4-10c-2.4 1.3-4.9 2.6-8 3.8zM450.3 633.9l.3 11.3c3.4-.3 6.6-.9 9.7-1.4l-1.3-11.3c-2.6.6-5.5 1-8.7 1.4zM459.1 632.6l1.3 11.3c3.7-.6 7.1-1.5 10.2-2.3l-2.9-10.7c-2.6.5-5.5 1.1-8.6 1.7z"/><path class="st4" d="m467.6 630.6 2.9 10.7c3.3-1 6.3-1.9 8.9-3l-3-10.6c-2.5 1.1-5.4 2.1-8.8 2.9z"/><path class="st6" d="M412.4 601.6c-2.2 4.1-4.7 8.6-7 12.9 7.2 4.9 19.6 9 40.1 6.6 28.2-3.4 37.3-10.1 40.3-14.2-1.6-3.3-3.2-6.7-4.8-9.9-15.3 15.7-47.4 15-68.6 4.6z"/><path class="st1" d="M266.1 724c-21.6 15-20.5 51.1 0 64.6 15.9 10.4 34.6 3.1 38.1.7 3.5-2.4 6.6-11.6 4.8-16.7-1.4-3.9 33.5-18.3 48.6-24.3 1.7-11.6 3.4-22.7 4.8-31.5-15.6-.6-82.2-2.6-96.3 7.2z"/><path class="st4" d="M285.9 745.6c-9.6 2.1-8.5 22.3-1.1 25.5 6.4 2.8 56.2-.4 69.7-1.3 1.2-8.3 2.4-16.9 3.6-25.3-12.7-.2-63.8-.8-72.2 1.1z"/><path class="st0" d="M599.9 613.6c-.7-8-4.8-22.8-23.4-34-17-10.2-43.4-13.4-60.4-14.4-1 1.7-2.1 3.1-3.8 3.7-.9.3-1.8.5-3 .5l5.1 46.1 85.5-1.9z"/><path class="st8" d="m635.7 612.8-8.1 74.3c4 1.1 8.2 2.1 12.4 3.2l8.5-77.8-12.8.3zM683.7 611.7l-20.3.4-9 82.2c7.3 2.1 15 4.5 22.7 6.9 15.7-39 6.6-89.5 6.6-89.5z"/><path class="st9" d="m648.5 612.5-8.5 77.8c4.7 1.3 9.6 2.7 14.5 4l9-82.2-15 .4zM514.3 615.5l3.2 28.4c18.1 8 45.3 20.5 47.1 24.6.4 1 .9 2.9 1.1 5.3 13 2.2 35.2 6.4 61.7 13.2l8.1-74.3-121.2 2.8z"/><path class="st7" d="m668.3 686.2 13 2.1M670.3 679l13 .7M671.7 666.8h13.5M671.7 657.2H686M673.6 637.5H686M673.6 630.6h12.1M683.7 611.7l-20.3.4-14.9.3-12.8.3-121.3 2.8 3.2 28.4c18.1 8 45.3 20.5 47.1 24.6.4 1 .9 2.9 1.1 5.3 13 2.2 35.2 6.4 61.7 13.2 4 1.1 8.2 2.1 12.4 3.2 4.7 1.3 9.6 2.7 14.5 4 7.3 2.1 15 4.5 22.7 6.9 15.7-38.9 6.6-89.4 6.6-89.4z"/><circle cx="535" cy="634.2" r="6.4"/><circle cx="558.7" cy="631.1" r="6.4"/><circle cx="558.7" cy="649.5" r="6.4"/><circle cx="588.5" cy="628.3" r="6.4"/><circle cx="588.5" cy="647.6" r="6.4"/><circle cx="588.5" cy="666.8" r="6.4"/><circle cx="614" cy="669.5" r="6.4"/><circle cx="616.5" cy="647.6" r="6.4"/><circle cx="619" cy="625.8" r="6.4"/><path class="st1" d="M592.8 480.3s-14.2-6-16.8-6.8c-2.9 6-6.5 16.3-7.9 32.8-1.2 13.8-.9 25.6-.2 34.3 3.2.3 17.6-3.8 17.6-3.8s-.3-20.1 1.6-29.3c2.8-14.6 6.7-22.6 5.7-27.2z"/><path class="st4" d="m558.3 533.1 9-1.4c-.1-2.8-.1-5.7-.1-8.9h-9.6c-.1 4 .2 7.6.7 10.3zM557.5 522.8h9.6c0-2.4.1-5.1.2-7.8l-9.6-.7c-.1 2.9-.2 5.8-.2 8.5zM557.9 514.2l9.6.7c.1-2.8.3-5.7.5-8.7 0-.3.1-.6.1-1l-9.4-.6c-.4 3.3-.6 6.5-.8 9.6z"/><path class="st4" d="M560.1 537.4c1.9 1.8 4.7 2.7 7.7 3-.2-2.7-.4-5.5-.5-8.7l-9 1.4c.4 2.1.9 3.6 1.8 4.3zM573.4 479.5l-9.8-2.2c-.7 2.3-1.5 5.4-2.2 8.9l9.5 1.7c.8-3.2 1.6-6.1 2.5-8.4z"/><path class="st4" d="M561.4 486.2c-.5 2.6-1 5.4-1.5 8.4l9.4 1.2c.4-2.9 1-5.5 1.6-7.9l-9.5-1.7zM575.9 473.4c-4.1-1.4-8-1.9-9.8-1.1-.7.4-1.7 2.1-2.6 4.9l9.8 2.2c.9-2.4 1.8-4.3 2.6-6z"/><path class="st4" d="m558.7 504.6 9.4.6c.3-3.4.7-6.5 1.2-9.5l-9.4-1.2c-.4 3.4-.9 6.7-1.2 10.1z"/><path class="st0" d="M677 461.7c.1-2.3-2.8-3.8-5.6-4.4-1.5 3.6-3.9 8.7-5.9 9.5-1.3.4-3.1 0-4.8-.7-5.4 9.2-13.3 23-18.1 26.6-4 3.1-13.9 3-21.8 2.3h0c1.7 3.8-2.6 26-4.8 33 4.4 2.2 15 6.4 28.7 1.8 3-1 4.9-1.5 6.3-1.7 5.5-8.6 13.5-23.4 18.5-24.6l4.6-13.9c-8.5-16.5 2.7-24 2.9-27.9z"/><path class="st1" d="M649 509.9c-13.3 38.3-24.6 73.3-23.3 74.9 1.4 1.8 25.1-33.5 49.3-71.4l-26-3.5z"/><path class="st4" d="M654.9 493.2c-2 5.5-3.9 11.2-5.9 16.7l25.9 3.5c2.4-3.7 4.8-7.6 7.1-11.3l-27.1-8.9z"/><path class="st0" d="M651 496.8c-3.8 1.8-5.9 8.8-1.9 10.5-5.6 1.7-5.4 10.9-1.9 10.9-6.8.2-6.7 8.4-3.6 10 3.2 1.6 29.6 2.4 33.5-1.4s1.7-6.9 1.7-6.9 5.4-.9 6.8-4.8c1.4-3.9-4-6.7-4-6.7s6.7 1.2 7.4-4.1c.9-5.4-4-5.4-4-5.4s4.7-1.2 4.8-4.9c.3-6.9-29.8-8.3-34.4-6.5s-4.4 9.3-4.4 9.3"/><path class="st7" d="M678.7 498.8c-10.5-2.1-25.3-3.2-27.8-2M649.1 507.3c7.2 0 19.5 1.1 19.5 1.1M666.2 518.4s-14.4-.9-18.9-.2M331.2 214.3c-3.8 0-7.6.3-11.2.7-20.7 11.7-24 16.1-28.1 16.1-2.3 0-3.3-1.9-2.9-5.1-23.6 14.3-39.5 40.2-39.5 69.9 0 2.3.1 4.6.3 6.9 19.3-1.4 73.3-5.3 73.3-4.1 0 1.2-51.9 23.3-66.9 29.6 12.6 29 41.4 49.3 75 49.3 45.1 0 81.7-36.6 81.7-81.7s-36.6-81.6-81.7-81.6z"/><path class="st4" d="M455 228.7c3.3-6.8 10.3-11.6 18.4-11.6h.6c.4-1.1 2.4-6.4-3.8-9.2-8.7-3.8-16.8-3.3-22.1.2-4.9 3.2-6.1 9.2-1.1 11-2.6 1.6-3.1 4.4-2.2 6.7 3.6.1 7.1 1.1 10.2 2.9z"/><path class="st7" d="M447 219.2c1.9 1.2 7 1.8 12.3 1.8"/></svg>