<svg version="1.1" id="Calque_1" xmlns="http://www.w3.org/2000/svg" x="0" y="0" viewBox="0 0 900 900" style="enable-background:new 0 0 900 900" xml:space="preserve"><style>.st0,.st1,.st2,.st3,.st4{fill:#847461;stroke:#000;stroke-width:5.168;stroke-linecap:round;stroke-linejoin:round;stroke-miterlimit:10}.st1,.st2,.st3,.st4{fill:red}.st2,.st3,.st4{fill:#ffce00}.st3,.st4{fill:none}.st4{fill:#fff}.st5{fill:#007c5e}.st5,.st6{stroke:#000;stroke-width:5.168;stroke-linecap:round;stroke-linejoin:round;stroke-miterlimit:10}.st7{fill:#fff}.st8{fill:red}.st9{fill:#847461}.st10{fill:#2f8900;stroke:#000;stroke-width:5.168;stroke-linecap:round;stroke-linejoin:round;stroke-miterlimit:10}</style><path class="st0" d="M639.9 643.4c33.6 32.3 62.7 81.4 62.7 81.4s24.5 8.4 32.3-1.9c-17.4-61.4-40.7-93.7-40.7-93.7l-29.1-39.4-36.2 14.9s6.5 14.8 11 38.7z"/><path class="st1" d="M674.1 737.1s-33.6 9.7-66.5 10.3c-1.9 16.1 7.1 22 7.1 22l51.7-10.3 15.5-13.6-7.8-8.4z"/><path d="M645.7 634.4c25.8 25.2 65.9 88.5 65.9 88.5l12.3-1.3s-19.4-66.5-41.3-88.5c-1.3-19.4-18.7-33.6-18.7-33.6l-27.8 5.8-2.6 9c-.1.1 6.4 11.1 12.2 20.1z"/><path class="st1" d="M697.4 728.7s-20 0-25.2 4.5 1.9 16.8 1.9 16.8l25.8-3.9 2.6-13.6-5.1-3.8z"/><path class="st2" d="M697.4 737.8c-5.8 0-79.5 27.1-82.7 31.7-3.2 4.5-6.5 10.3-3.2 14.9s12.9 3.2 16.8 1.9c1.9 5.2 9.7 5.2 14.2 1.3 5.8 3.9 12.9 2.6 16.8 0 7.1 5.2 14.9 2.6 17.4 0 5.2 4.5 14.2 1.9 18.7-1.9 4.5-3.9 12.9-7.1 18.1-11 1.9-16.8-1.3-36.8-1.3-36.8s-9-.1-14.8-.1z"/><path class="st3" d="m628.3 786.2 14.8-18.7M642.5 787.5l14.8-18.1M659.3 787.5l14.2-18.1M676.7 787.5l12.9-18.1"/><path class="st0" d="m741.3 735.8-30.3-1.9-4.6 9.7v4.4l38.7-1z"/><path class="st4" d="m745.1 747-38.7 1-.2 10.4h42.9z"/><path class="st0" d="m706.2 758.4-.4 20.1 31.6 1.2 16.8-6.4-5.1-14.9z"/><path class="st1" d="M697.4 738.4c-1.9-3.2-1.3-13.6 3.2-16.1 4.5-2.6 31.7-3.2 34.9 0s9 12.9 5.8 16.1c-3.2 3.2-42 3.2-43.9 0z"/><path class="st4" d="m695.4 785.6 8.4-12.3h50.4s3.9 9 3.2 12.3-62 0-62 0zM680.6 602.7l-56.2 16.1s-.6 24.5 6.5 27.8 17.4-1.9 19.4-9.7-12.9-25.2-12.9-25.2l26.5-7.1s5.2 27.8 14.9 30.4 18.7-3.2 17.4-11c-1.4-7.7-15.6-21.3-15.6-21.3z"/><path class="st5" d="m606.4 589.1 18 29.8 56.2-16.2-16.9-30.3z"/><path class="st6" d="m661.2 567.9-41.3-33-34.9 15.5 16.8 31 4.6 7.7 57.3-16.7z"/><path class="st3" d="m462.2 745.8-.6-1.6s-1.7 3 .6 1.6z"/><path class="st4" d="M563 621.5c-4.6 33-60.7 132.4-68.5 139.5-5.3 4.8-17.6 5.2-24.8 4.9l3.5 9.3s12.9 1.9 23.9-4.5c16.8-12.9 61.4-98.2 64.6-115.6 3.2-17.4 7.8-32.3 7.8-32.3l-6.5-1.3z"/><path class="st0" d="m522.3 613.7-14.2 33.6s-7.6 42.4-21.2 69.5l33.3 2.3c18.3-33.4 40-77.6 42.7-97.5l-40.6-7.9z"/><path d="M493.9 721.6c22-52.3 32.3-98.8 32.3-98.8s34.9-26.5 27.1 1.9c-7.8 28.4-42.6 96.9-42.6 96.9s-11.6 3.2-16.8 0z"/><path class="st2" d="M476.5 732.6c-8.6 8.9-12.5 12.3-14.3 13.2l7.6 20.1c7.2.3 19.5-.1 24.8-4.9 3-2.8 13.7-20.1 25.8-42l-33.3-2.3c-3.3 6.5-6.8 12-10.6 15.9z"/><path class="st2" d="m380.2 728.7 33.6 1.9 42.6 7.1s5.8 1.3 15.5 8.4c9.7 7.1 12.9 16.1 1.3 29.1-10.3 7.8-31 2.6-31 2.6l-64-12.3-7.8-23.9 9.8-12.9z"/><path class="st5" d="M423.5 747.4s-8.4 2.6-12.3 0c-3.9-2.6-5.2-14.9 3.2-20 8.4-5.2 35.5 1.3 40.1 1.9-.6-5.2-.6-9 5.2-10.3s14.9 1.9 16.8 7.8c1.9 5.8.6 16.8-5.2 20s-25.2.6-25.2.6h-22.6z"/><path class="st3" d="M454.5 729.4c1.9 5.8 5.8 5.2 9 4.5"/><path class="st7" d="M419.6 739.1c-2.6 1.9-1.9 10.3 2.6 11.6 2.4.7 8.3 1 13.7.8l.3-13.8c-6.8-.3-15 .2-16.6 1.4z"/><path class="st8" d="M445.4 739.1c-.8-.8-4.7-1.2-9.2-1.4l-.3 13.8c4.8-.2 9.2-.8 10.2-2.1 1.9-2.6 1.3-8.4-.7-10.3z"/><circle class="st4" cx="432.5" cy="744.9" r="3.9"/><path class="st3" d="M419.6 739.1c-2.6 1.9-1.9 10.3 2.6 11.6s22 1.3 23.9-1.3 1.3-8.4-.6-10.3-23.3-2-25.9 0z"/><path class="st5" d="M357.6 752.6s-3.9-7.8 3.9-12.9c-.6-7.1 3.2-12.3 9.7-13.6s14.2 2.6 14.9 9.7-6.5 13.6-6.5 13.6l-22 3.2z"/><path class="st3" d="M372.4 732.6c-3.9 10.3 12.3 4.5 12.3 4.5"/><path class="st4" d="M359.5 771.4c-3.9-5.2-5.8-12.3-1.9-18.7 3.9-6.5 18.7-8.4 22.6-5.8 3.9 2.6 11 9.7 17.4 12.9s43.9 1.3 46.5 5.2 3.9 10.3.6 14.2c-3.2 3.9-64-1.3-64-1.3s-17.3-1.4-21.2-6.5z"/><path class="st3" d="M424.1 770.7s-25.2 0-32.3-2.6-11-6.5-18.7-7.8-13.6 9-13.6 9"/><path class="st8" d="M380.8 772.1c0-3.2.6-6.1 1.9-8.3-2.8-1.5-5.7-2.8-9.6-3.4-7.8-1.3-12.3 4.5-13.6 9-.5 1.8-.2 4.9 1.2 8.5 9.2-6.8 16.7-6.5 20.1-5.8z"/><path class="st7" d="M385.4 787.5c-3.2-4.7-4.6-10.4-4.6-15.4-3.4-.7-10.9-1-20.1 5.9 2.1 5.4 6.8 12 14.9 16.7.6-5.2 0-9 0-9s4.6 1.2 9.8 1.8z"/><path class="st3" d="M382.7 763.8c-2.8-1.5-5.7-2.8-9.6-3.4-7.8-1.3-12.3 4.5-13.6 9s2.6 17.4 16.1 25.2c.6-5.2 0-9 0-9s4.5 1.3 9.7 1.9c-5.1-7.8-5.7-18.1-2.6-23.7z"/><path class="st3" d="M375.7 785.6c-4.5-3.2-7.8-16.1-2.6-25.2M488.1 772l-2.6-6.5M499.1 766.8l-4.6-5.8M507.5 755.8l-5.2-3.8M513.9 745.5l-5.1-4.5M520.4 735.2l-5.8-5.2M528.1 722.3l-7.1-5.9M533.9 708.7l-5.8-4.5M541.7 698.4l-7.8-4.6M546.9 686.7l-6.5-4.5M551.4 674.5l-5.8-3.9M557.2 664.1l-7.1-2.6"/><path class="st4" d="m565.6 627.3-53-1.3s-13.6 11-11 18.7c2.6 7.8 16.8 7.1 20.7 3.2 3.9-3.9 3.9-25.2 3.9-25.2l23.9 1.3s-10.3 24.5-4.5 29.1c5.8 4.5 20.7 1.3 20.7 1.3l9-18.7-9.7-8.4z"/><path class="st5" d="m521.4 587.2-8.8 38.8 53 1.3 8.3-40.1z"/><path class="st6" d="m575.3 580.8-8.4-26.5-43.9 25.8-1.6 7.1h52.5z"/><path class="st1" d="m602.4 554.9-11.6-21.3-27.1 33-.8 63.5 51.3-3.6z"/><path class="st4" d="m614.2 626.5-51.3 3.6-.2 19 54.6-3.2z"/><path class="st0" d="m561.7 730.7 69.1-2.6-5.6-34.7-63.1 1.6z"/><path class="st2" d="m620.3 663.5-57.8 2.9-.1 11.2 60-1z"/><path class="st4" d="m562.4 677.6-.3 17.4 63.1-1.6-2.8-16.8z"/><path class="st5" d="m617.3 645.9-54.6 3.2-.2 17.3 57.8-2.9z"/><path class="st3" d="m572.1 727.4-1.3-32.3M581.8 727.4l-1.3-30.3M594 726.8l-1.9-31M605 728.1l-1.9-34.3M617.9 727.4l-2.6-32.3"/><path class="st7" d="M590.2 513.9c-4.8-17.2-13-31.9-13-31.9l-50.4 16.8 10.1 66.5c37-1.8 49.8-37.6 53.3-51.4z"/><path class="st9" d="M590.2 513.9c-3.6 13.9-16.3 49.7-53.4 51.4l1.6 10.4s29.1 7.8 54.3-29.7c2.2-9.9.6-21.5-2.5-32.1z"/><path class="st0" d="m573.4 489.7-11-2.6s5.2 30.4-1.9 42.6c-5.7 9.9-21 13-26.8 14l1.2 7.8.5.9s23.3-1.3 32.9-18.1c9.6-16.8 5.1-44.6 5.1-44.6z"/><path class="st3" d="M538.5 575.6s29.1 7.8 54.3-29.7c5.8-25.8-15.5-64-15.5-64l-50.4 16.8 11.6 76.9z"/><path class="st7" d="M609.5 543.3c18 16.9 47 16 58.1 14.8l-3.2-69.7-36.2-14.2-42.2 9.6c1.4 13.1 6.2 43.2 23.5 59.5z"/><path class="st9" d="M609.5 543.3c-17.4-16.3-22.2-46.4-23.4-59.6l-14.7 3.4s3.2 47.2 27.1 69.1c23.9 22 69.8 16.8 69.8 16.8l-.7-14.9c-11.1 1.2-40.1 2.2-58.1-14.8z"/><path class="st0" d="M625.7 528.5c-15.5-15.5-16.1-43.9-16.1-43.9l-9 .6s1.9 32.3 16.8 49.1c12.5 14.2 41.2 13.2 49.8 12.5l-.5-9.4c-7 1.3-28.2 3.9-41-8.9z"/><path class="st3" d="M571.4 487.1s3.2 47.2 27.1 69.1c23.9 22 69.8 16.8 69.8 16.8l-3.9-84.6-36.2-14.2-56.8 12.9z"/><path class="st4" d="M658 464.6c-19.1-1.2-73.4-2.3-119.2 16.5 1 6 1.6 12.3 1.6 18.9 60.7-16.8 124-11.6 124-11.6l-5.8-22.6-.6-1.2z"/><path class="st6" d="m658 464.6-51.7-99-50.4-31.6-21.3-31-30.4 7.1 4.5 102.1s23.6 28 30 69c45.9-18.9 100.2-17.7 119.3-16.6z"/><path class="st2" d="M707.5 325s28.1 66.9 24.2 88.2c-10.7 34.9-63 57.2-97.9 32-26.2-18.4-77.9-125.4-74.7-166.1 5.8-37.5 60.7-49.7 91.7-40.1 20.1 6.5 56.7 86 56.7 86z"/><path class="st5" d="M451.2 441.3c-2.3 32.4-5.7 65.4-10.9 83.3 11-.6 29.1 1.3 29.1 1.3l65.2-49.7 7.6-34.4-91-.5z"/><path class="st1" d="M548.8 412.2 510 320.4s-64 20.7-63.3 35.5c.4 8.2 7.3 45 4.5 85.3l91 .5 6.6-29.5z"/><path class="st0" d="m367.3 458 58.8-63.3 1.3 11-45.9 73-13.6-11z"/><path class="st4" d="M415.1 449c-1.3-3.9 9.7-27.8 9-37.5-.3-4.4-2.2-7.6-4.2-9.8-21.4 25.3-43 66.7-43 66.7s25.2 28.4 33.6 29.1c3.9-2.9 14.7-17.6 24.5-31.6-6.9-9.9-18.8-13.3-19.9-16.9z"/><path class="st0" d="M432.5 388.9c-4.1 3.3-8.3 7.8-12.6 12.8 1.7 1.8 3.2 4.3 3.9 7.7l15.1-14.7 16.8 5.2-7.8 30.4-22 26.9c3.2 2.3 6.5 5 9.1 8.7 9.9-14 18.7-27.2 18.7-27.2l4.5-49.7c.2-.1-8.2-16.9-25.7-.1z"/><path d="m455.8 399.9-16.8-5.2-15.1 14.7c.1.6.3 1.4.3 2.1.6 9.7-10.3 33.6-9 37.5.7 2.2 5.6 4.4 10.9 8.1l22-26.9 7.7-30.3z"/><path class="st10" d="M520.4 507.1s-7.1 2.6-12.9-.6c-7.8 2.6-13.6 0-13.6 0s-7.1 3.9-12.3.6c-5.7 2.2-10.5.8-13-.3-3 10.5-6.1 21.8-8.5 30.7h77.5l-.5-31.7c-7 5.9-16.7 1.3-16.7 1.3z"/><path class="st4" d="M455.8 553.7s-6.5 17.4-4.5 24.5 19.4 8.4 29.1 2.6c3.9 7.8 25.8 5.8 30.4 1.3 5.2 5.2 26.5 5.8 27.8-2.6s-.6-25.2-.6-25.2l-31.7-15.5-50.5 14.9z"/><path class="st3" d="m480.3 580.8 2-28.4M510.7 582.1l.6-30.4M466.1 546.5s-6.5 28.4-.6 27.8 7.1-27.1 7.1-27.1M493.3 549.8s-4.5 28.4 1.3 27.8c5.8-.6 6.5-27.1 6.5-27.1M522.3 549.1s-3.9 28.4 1.9 27.8c5.8-.6 4.5-27.1 4.5-27.1"/><path class="st1" d="m455.8 553.7 82 .6-.2-16.8h-77.5c-2.6 9.4-4.3 16.2-4.3 16.2z"/><path class="st3" d="m482.3 552.4 3.2-46.6M511.3 552.4l1.3-47.2"/><path class="st4" d="M555.3 454.8s3.2-11-1.9-18.7c-5.2-7.8-30.4-2.6-30.4-2.6s1.3 38.1-2.6 42c-3.9 3.9-39.4 0-42 1.3-.8.4-3.1 7.5-6 17.2 16.1.9 58.5 2.5 64.1-4.3 7.1-8.4 5.8-52.3 5.8-52.3s1.3 43.9-5.8 52.3c-5.7 6.8-48 5.2-64.1 4.3-1.2 3.9-2.5 8.3-3.7 12.9 2.5 1.1 7.3 2.5 13 .3 5.2 3.2 12.3-.6 12.3-.6s5.8 2.6 13.6 0c5.8 3.2 12.9.6 12.9.6s9.7 4.5 16.8-1.3c0 0 8.4-2.6 9-10.3 7.1-3.2 6.5-12.3 6.5-12.3s5.2-3.9 1.9-15.5c7-3.9.6-13 .6-13z"/><path class="st3" d="m537.2 505.8-6.5-12.2M546.2 495.5l-9.7-5.8M552.7 483.2l-12.3-1.9M554.6 467.7l-11.6.7M555.3 454.8l-11 .7M495.2 494.9l-1.3 11.6M507.5 494.2v12.3M521.7 494.9l-1.3 12.2M484.9 494.9l-3.3 12.2"/><path class="st1" d="M523 433.5s1.3 38.1-2.6 42c-3.9 3.9-39.4 0-42 1.3-.8.4-3.1 7.5-6 17.2 16.1.9 58.5 2.5 64.1-4.3 7.1-8.4 5.8-52.3 5.8-52.3M105 381.2s3.2 323.6 4.5 330.7 16.8 5.8 18.1 0c1.3-5.8 3.9-330.1 3.9-330.1l-26.5-.6z"/><circle class="st10" cx="450.3" cy="389.2" r="19.1"/><circle class="st10" cx="457.1" cy="425.1" r="19.1"/><circle class="st10" cx="548.8" cy="383.8" r="19.1"/><circle class="st10" cx="532" cy="343.7" r="19.1"/><circle class="st10" cx="532.7" cy="425.7" r="19.1"/><path class="st2" d="M245.2 428.3c-23.3-12.9-52.3-10.3-56.8-14.2-4.5-3.9-6.5-9-3.9-12.9-2.6-5.2-.6-12.3 3.2-14.9-1.3-3.9-1.9-8.4 1.3-9.7s8.4.6 8.4-7.1c1.9-4.5 12.3-8.4 12.3-8.4l18.7 5.2s7.8-.6 11.6.6c8.4 5.2 6.5 22 9.7 27.8s12.3 11.6 12.3 11.6v18.1c0 .1 2.6 12.3-16.8 3.9z"/><path class="st0" d="M364.1 511.7s-29.7-29.1-45.2-32.3c-26.4 1.1-67.7-.8-99.4-2.7l.5 30.6c73.5 5.7 144.1 4.4 144.1 4.4z"/><path class="st4" d="M115.3 423.8c1.9-1.6 3-4.5 3.4-6.7-8.3-1.2-16.6-1.8-18.3-1.1-1.7.7-3.3 4.1-3.2 7.8 6 .8 15.9 1.8 18.1 0z"/><path class="st1" d="M266.5 262.3c0 27.8-12.9 48.4-56.5 47.2-37.1-1.1-53.3-20-53.3-47.8s23.9-48.4 56.2-48.4c32.3-.1 53.6 21.2 53.6 49z"/><path class="st4" d="M239.4 264c0 14.1-6.5 23.6-28.7 22.9-18.9-.6-27-9.2-27-23.3 0-14.1 12.1-24.5 28.5-24.5s27.2 10.7 27.2 24.9z"/><path d="m209.7 486.5 123.3 2.6 20.1 15.5-140.9-3.9z"/><path class="st4" d="M705.1 310.1c-71.4.5-127.8-12.5-145.4-17.2.6 5 1.7 10.3 3.2 16.1 13.4 3.7 69.6 17.6 144.6 16 11.2-4.6-2.4-14.9-2.4-14.9z"/><path class="st4" d="M617.9 432.9s58.8-91.7 89.8-110.5c18.1-11 49.1-25.2 5.8 16.8s-79.7 106-79.7 106l-15.9-12.3zM231.5 393.4c-3.4-56.5-7.6-123.8-8.3-127.8-1.3-7.1-17.4-6.5-17.4.6 0 3.8 1.9 62.1 3.1 115.7 8.3 8.6 17.2 11 22.6 11.5zM209.6 417.9c.5 31 .7 63.5.7 63.5l25.8-1.3s-1.2-29.2-2.8-56.9c-8.2-2.9-16.5-4.4-23.7-5.3z"/><path class="st7" d="M131.5 173.2s0-35.5-12.9-42.6c-12.9 16.8-12.9 42-12.9 42s-9.7-16.1-31.7-11c7.4 13.3 13.4 31.1 17.8 46.7 25.2-9.9 47.1-5.6 56-3 4.9-18.5 11-38.7 16.6-48.3-20 1.9-32.9 16.2-32.9 16.2z"/><path class="st8" d="M91.8 208.2c5.6 20 8.7 36.6 8.7 36.6l38.1-1.3s3.9-18.2 9.2-38.3c-8.9-2.6-30.8-6.9-56 3z"/><path class="st3" d="M74 161.5c16.8 30.4 26.5 83.3 26.5 83.3l38.1-1.3s14.2-66.5 25.8-86.6c-20 1.9-32.9 16.1-32.9 16.1s0-35.5-12.9-42.6c-12.9 16.8-12.9 42-12.9 42s-9.7-16-31.7-10.9z"/><path class="st3" d="M109.5 192.5s-3.2-10.3-3.9-20M130.2 191.9s1.9-9 1.3-18.7"/><path class="st4" d="M99.2 264.9s-7.8-7.8-8.4-12.9c-.6-5.2 5.8-7.8 9.7-7.1 1.9-5.2 9.7-6.5 12.9-3.2 3.2-2.6 7.1-3.9 12.3 0 3.9-3.2 11-2.6 12.9 1.9 5.8 0 9 2.6 9.7 6.5s-6.5 14.2-6.5 14.2l-42.6.6z"/><path class="st3" d="m100.5 244.9 6.4 12.9M113.4 241.6l1.9 13M125.7 241.6v13M138.6 243.6l-5.2 12.9"/><path class="st10" d="M103.7 283s-12.3-12.3-7.1-23.3c5.2-11 40.7-11 47.8 1.3 7.1 12.3-11 23.3-11 23.3l-29.7-1.3z"/><path class="st5" d="M96 292c0-11 12.3-17.4 23.9-16.8s20 7.1 20.7 18.1 1.3 75.6 0 82c-1.3 6.5-11 13.6-23.3 12.9S96 383.8 96 376v-84z"/><path class="st1" d="M110.2 295.9v73c0 5.2 16.8 5.2 17.4-.6.6-5.8-.6-67.2-.6-72.4s-16.8-5.2-16.8 0z"/><path class="st2" d="M156.7 462.6c-3.9-9-1.3-22.6-5.8-29.1s-9-9-14.9-12.3c-2.7-1.5-9.9-3-17.2-4.1-.5 2.1-1.5 5.1-3.4 6.7-2.3 1.8-12.1.8-18.1 0 .1 3 1.3 6.3 4.5 8.4 7.1 4.5 25.2 33.6 35.5 52.3s36.2 18.1 36.2 18.1l.6-29.1s-13.5-1.9-17.4-10.9z"/><path class="st5" d="M173.5 502.6c.6-12.3.6-29.1.6-29.1l-.6 29.1z"/><path class="st2" d="M97.9 481.3c-3.9-5.2-3.2-7.8-.6-10.3-3.9-5.2-3.9-11-1.3-13.6-1.9-5.2-1.3-9 .6-11.6-.6-4.5-3.2-11 2.6-12.9 5.8-1.9 35.5 5.2 36.8 9s2.6 10.3-.6 13.6c3.2 4.5 3.2 11 0 12.9 2.6 2.6 2.6 9 .6 11.6 1.3 4.5 2.6 5.8 0 9-2.6 3.3-34.2-2.5-38.1-7.7z"/><path class="st3" d="m96.6 445.8 38.8 9.7M96 457.4l39.4 11M97.3 471l38.7 9"/><path class="st4" d="m219.9 507.3-.5-30.6s18.7-3.1 22.5-1.8c3.9 1.3 3.9 10.3.6 14.9-3.2 4.5-25.8-1.3-25.8-1.3v7.8s23.9-.6 26.5 3.2c2.6 3.9 1.9 11-1.9 12.3-3.9 1.2-21.4-4.5-21.4-4.5z"/><path class="st5" d="M174.1 473.5s0 16.8-.6 29.1c15.2 1.9 30.8 3.4 46.4 4.7l-.5-30.6c-25.8-1.6-45.3-3.2-45.3-3.2z"/><path class="st0" d="M262 406.4s85.9 62.7 95.6 61.4c9.7-1.3 47.2 34.9 47.2 34.9s-6.5 11-12.3 14.2-12.9 4.5-24.5-1.3-65.9-44.6-84.6-64.6-21.4-44.6-21.4-44.6z"/><path d="M285.2 447.1s82 58.1 87.2 60.1 13.6 1.9 16.8 0 7.8-11 7.8-11l-13.6-14.9s-9.7 8.4-12.3 8.4-67.1-43.3-67.1-43.3l-17.4-14.9-1.4 15.6z"/><path class="st4" d="m297.1 431.3-17.6 24.2s7.8 14.2 14.2 14.9 8.4-5.8 8.4-9.7c-1.3-7.1-19.4-14.2-19.4-14.2s2.6-15.5 7.1-9.7 16.1 16.1 21.3 14.9c5.2-1.3 6.5-7.8 5.2-11s-19.2-9.4-19.2-9.4z"/><path class="st5" d="M262 406.4s16.1 11.7 35.1 24.9l-17.6 24.2-34.2-27.1 16.7-22z"/><path class="st1" d="M357.6 467.7c.6 3.9 56.2 47.8 58.8 48.4s9.7-7.8 8.4-9.7-54.3-47.2-57.5-48.4-10.4 5.9-9.7 9.7z"/><circle class="st1" cx="389.9" cy="487.8" r="9"/><path class="st2" d="M403.5 326.3c-11.1-26-2.6-71.2 4.5-88.8l-23.2-8.1-45.3 20.6s1.9 34.9 1.3 39.4c-.6 4.5 3.2 7.1 3.2 7.1s-16.8 40.1-17.4 49.1c-.6 9 3.9 16.8 11.6 16.8 7.8 0 12.9-6.5 20.7-7.8 0 5.2-2.6 17.4 0 20s12.9.6 12.9.6-1.3 9 5.2 10.3 16.8-1.3 16.8-1.3-.6 14.2 4.5 17.4 11 1.9 18.7-.6c3.8-1.3 17.8-16.5 31-31.6-10.6-5.3-34.7-19.8-44.5-43.1z"/><path class="st0" d="m483.6 290.1-20-32.9-55.6-19.6c-7.1 17.6-15.5 62.7-4.5 88.8 9.9 23.3 33.9 37.9 44.6 43.3 13.4-15.3 25.8-30.4 25.8-30.4l9.7-49.2z"/><path class="st3" d="M371.8 375.4c0-3.9 14.9-9 21.3-7.8M354.4 337.2c15.5-5.2 16.8 6.5 14.2 14.9-1.3 3.9-9.7 2.6-9.7 2.6"/><path class="st8" d="M415.1 288.1c-1.3-1.5-7 .4-14.1 1-2.5.2-5.3.5-8.1.8l2.4 16.2c1.9-3 3.6-6.2 6.9-8.3 5.1-3.2 16.8-5.1 12.9-9.7z"/><path class="st7" d="M363.4 294.6c-2.6 2.6 0 16.8 6.5 19.4s18.1.6 22-3.2c1.4-1.4 2.4-3 3.4-4.7l-2.4-16.2c-13.4 1.3-28.1 3.3-29.5 4.7z"/><path class="st3" d="M363.4 294.6c-2.6 2.6 0 16.8 6.5 19.4s18.1.6 22-3.2 5.2-9.7 10.3-12.9c5.2-3.2 16.8-5.2 12.9-9.7-1.3-1.5-7 .4-14.1 1-14.9 1.3-35.9 3.7-37.6 5.4z"/><circle class="st4" cx="380.2" cy="303" r="5.2"/><path class="st3" d="m574 297.2 4.5 14.2M591.4 301.7l5.9 13.6M610.2 305.6l5.1 12.3M628.3 307.5l7.1 12.9M647 308.8l7.1 14.2M663.8 310.8l5.8 12.2M684.5 311.4l5.8 11.6M698 330.8l2.6 18.7M685.8 343.7l2.5 22M674.8 356.6l2.6 20M662.5 371.5l4.5 20.7M648.9 388.3l7.1 19.4M638.6 404.4l7.1 18.8M628.3 421.2l9 14.2"/><path class="st4" d="M745.2 346.9s62 140.2 78.8 162.1c-18.1 14.2-44.6 20.7-44.6 20.7l-36.8-105.3-21.3-89.8 13.6-2.6 10.3 14.9z"/><path class="st3" d="M736.8 369.5 802.7 522"/><path class="st4" d="M733.6 318.5s20.7 22 18.7 25.8-7.8 7.1-12.9 6.5c-5.2-.6-16.1-25.8-16.1-25.8l10.3-6.5z"/><path class="st4" d="M328.6 255.3s1-44.6 26.2-57.2 97.9-27.1 139.5 10.7c21.3 24.2 24.7 34.5 45.2 71.7 26.2 47.5 68.2 146.3 94.3 164.7 34.9 25.2 87.2 2.9 97.9-32 3.9-21.3-24.2-88.2-24.2-88.2l15.5-2.9s26.2 58.1 23.3 95c-8.7 58.1-85.3 64.9-121.1 44.6C596 449.1 540.8 326 528.7 312c-12.1-14.1-22.8-33.5-22.8-33.5l-23.3 1.9s-12.7 1.9-18.4-1.9c-5.9 3.8-10.3 3.3-15.5 1.6s-6.4-21.6-14.5-25.8c-8.1-4.3-105.6 1-105.6 1z"/><path class="st3" d="M459 257.1s1.9 9 5.2 21.4M424.8 217.9s22.6-2.1 37.5 7.6 43.7 53 43.7 53M476.5 256.5l9 26.5M523 290.7l23.2 3.9M527.5 306.2l25.2 3.3M538.5 323l23.2 2.6M546.9 340.5l23.9 1.9M557.9 358.6l21.3 2.5M568.8 377.3l20.1 1.9M579.2 396.7l20 2.6M589.5 415.4l19.4-1.3M603.1 434.1l14.2-3.2M616.6 452.9l17.2-7.7M638 464.5l10.3-11M659.9 470.3l7.8-13.5M681.2 469l7.1-14.8M703.2 464.5l1.3-16.8M721.9 453.5l-1.9-18.1M737.4 438l-7.1-16.8M744.5 415.4l-11.6-8.4M743.3 396.7l-13-8.4M740.7 374.7l-13.6-3.2"/><path class="st4" d="M469.1 335.7s-6.5 104.3-8.4 112.1 10.3 12 12.3 2.3c9.7-50.4 10.3-104.7 10.3-104.7l-14.2-9.7zM550.8 444.5c6.5 10.3 14.2.6 12.3-4.2-8.7-18.4-32.9-105.3-37.8-114.7-4.8-9.4-14.5 10-14.5 10s33.5 98.6 40 108.9zM499.1 401.8s.6 47.8 3.2 53c2.6 5.2 10.3 3.2 14.2-.6s-1.3-52.3-1.3-52.3h-16.1v-.1z"/><circle class="st5" cx="492.3" cy="312" r="36.3"/><path class="st4" d="M492.3 371.5s-4.8 21.3 1 31 29.1 4.8 29.1-7.8-7.8-25.2-7.8-25.2l-22.3 2z"/><path class="st3" d="M501.1 373.5s-3.9 24.2 4.8 22.3c8.7-1.9 1-23.3 1-23.3"/><path class="st4" d="M483.6 358s-3.9 16.5 2.9 18.4c6.8 1.9 36.8-2.3 37.1-7.4.3-5.2-5.2-15.8-5.2-15.8l-34.8 4.8z"/><path class="st1" d="M483.3 345.4c-3.9 1-3.6 17.4 2.3 18.4 5.8 1 31-1 32.9-6.8s0-12.6-2.9-15.5-28.4 2.9-32.3 3.9z"/><path class="st10" d="M485.6 307.6c-1.9 3.9 3.3 38.2 4.8 42s17.2.7 17.4-2.3c.3-3-2.9-34.9-6.8-40.7-3.8-5.8-13.5-2.9-15.4 1z"/><path class="st4" d="M707.5 325s5.4 32.2 10.6 32.9 12.3-1.3 12.9-5.2c.6-3.9-8-30.6-8-30.6l-15.5 2.9zM703.2 302.4s-3.9-31 3.2-35.5 26.5-1.3 27.8 8.4c1.3 9.7-5.2 27.1-5.2 27.1h-25.8z"/><path class="st3" d="M717.4 298.5s-1.3-13.6.6-20.7"/><path class="st4" d="M709.7 329.5c3.9.6 27.1-5.8 29.1-7.1s0-12.3-7.8-12.9-23.9.6-26.5 5.8c-2.6 5.1 1.3 13.5 5.2 14.2z"/><path class="st4" d="M700 303.7c-3.2 3.2-.6 10.3 3.9 11.6s23.9-3.2 27.1-5.8 1.3-9.7-3.9-12.3-23.9 3.2-27.1 6.5z"/><path class="st3" d="m712.2 316.6 3.9 9M723.9 314l4.5 8.4M708.4 302.4l2.6 10.9M721.9 297.2l.7 12.9M716.1 288.8l-11.6 1.9M716.1 280.4l-11-7.1M718.1 277.8l1.2-12.9M718.1 277.8l15.5-4.5M720 284.9l11 .7M713.5 339.2l12.3-3.2M716.8 350.2l9.7-2.6M732.3 336.6l9-5.2M738.7 346.3l8.4-6.5"/><path d="m424.8 217.9 12.9.1c-7.4-.6-12.9-.1-12.9-.1z" style="fill:none"/><path class="st1" d="M462.2 225.5c-7.6-4.9-17.1-6.8-24.6-7.4l-12.9-.1-71.1-.8-20 22.6 144.8 1.9c-5.8-7.2-11.6-13.2-16.2-16.2z"/><path class="st10" d="M302.6 183.4c1.9 8.4 3.9 15.7 3.9 15.7l29.1 3.9s3.2-5.7 6.5-12.6c-5.7-2.8-19.3-7.7-39.5-7z"/><path class="st1" d="M299.8 169.2c.6 4.3 1.7 9.4 2.8 14.2 20.2-.6 33.8 4.3 39.5 7 1.9-3.7 3.7-7.7 5.3-11.2-5.3-3.8-18.9-10.3-47.6-10z"/><path class="st4" d="M350.5 169.3c-.6-5.2-46.5-12.9-50.4-10.3-1.2.8-1 4.9-.3 10.1 28.7-.3 42.2 6.2 47.6 9.9 2-4.4 3.3-8.1 3.1-9.7z"/><circle class="st10" cx="346.6" cy="227.4" r="16.1"/><path class="st3" d="m311.1 168.6 1.3-9.7M319.5 169.9l1.9-9.7M329.8 171.2l2-7.7M338.9 174.5l3.2-8.4"/><path class="st7" d="M265.9 200.3c-3.2 1.3-1.3 5.2 1.3 7.1-4.5 2.6-2.6 8.4 0 9-2.6 2.6-1.3 5.2.6 7.1.8.8 5.9.7 11.4.3l-1.4-23.8c-5.3-.2-10.5-.3-11.9.3z"/><path class="st8" d="M290.4 200.9s-6.4-.6-12.7-.9l1.4 23.8c7-.6 14.5-1.6 14.5-1.6l-3.2-21.3z"/><path class="st3" d="M290.4 200.9s-21.3-1.9-24.5-.6-1.3 5.2 1.3 7.1c-4.5 2.6-2.6 8.4 0 9-2.6 2.6-1.3 5.2.6 7.1 1.9 1.9 25.8-1.3 25.8-1.3l-3.2-21.3zM267.2 207.4h10.9M267.2 216.4h10.3"/><path class="st2" d="M302.7 215.1c-3.2-7.8 2.6-26.5 2.6-36.2s-16.1-15.5-25.2-12.9c-4.5 1.3-9.7 11-7.1 17.4 2.5 6.3 9.7 9.7 16.8 5.8-1.3 8.4-5.2 20-2.6 29.7s11.6 13.6 11.6 13.6-18.1-.6-22.6 9.7c-4.5 10.3 3.9 18.7 12.9 18.7 16.1-2.6 7.8-16.1 7.8-16.1s29.7 1.9 35.5-.6c5.8-2.6 7.8-15.2 1.9-21.3-3.8-1.3-25.2 6.5-31.6-7.8z"/><path class="st3" d="M287.2 250.7c-1.9-7.1 7.1-10.3 9.7-5.8M287.2 177c8.4.6 5.8 9 2.6 12.3"/><path class="st5" d="M305.9 216.8c-3.9-2.3-7.1-9.4-3.9-17.1 4.5-9.7 38.1-6.5 38.1 11.6.6 10.3-7.1 13.6-13.6 11.6-6.4-1.9-16.7-3.9-20.6-6.1z"/><path class="st7" d="M317.2 205.5c-6.3 0-11.3 5-11.3 11.3 0 5.6 4 10.1 9.3 11.1l4.3-22.2c-.7-.2-1.5-.2-2.3-.2z"/><path class="st8" d="m319.5 205.7-4.3 22.2c.6.1 1.4.2 2 .2 6.3 0 11.3-5 11.3-11.3 0-5.5-3.9-10-9-11.1z"/><circle cx="317.5" cy="217.7" r="4.2" style="fill:#fff;stroke:#000;stroke-width:6.137;stroke-linecap:round;stroke-linejoin:round;stroke-miterlimit:10"/><circle cx="317.2" cy="217.1" r="12.3" style="fill:none;stroke:#000;stroke-width:5.6109;stroke-linecap:round;stroke-linejoin:round;stroke-miterlimit:10"/><circle class="st10" cx="415.7" cy="224.8" r="16.1"/><path class="st3" d="M622.4 194.5s-4.5 3.2-10.3 1.9"/><path class="st1" d="M627 210.6s21.3 11 31 19.4c4.5.6 7.1-9 7.1-9l-3.9-16.1-27.8-11-9 1.9 2.6 14.8z"/><path class="st5" d="m649.6 142.2 29.7 46.5-11.6 5.8-54.9-13.6-13-32.9 20.1-5.2z"/><path class="st10" d="M675.4 202.2s18.7 2.6 23.3-10.3c4.5-12.9 11.6-70.4 9.7-72.4-1.9-1.9-7.1-3.2-9-1.3s-8.5 60.1-11 65.9c-2.5 5.8-9 4.5-9 4.5l-10.3 9 6.3 4.6zM707.7 195.1c13.6-11 45.2-49.1 49.1-49.1s7.1 3.9 5.2 7.8-38.8 41.3-44.6 49.7c-5.8 8.4-21.3 11-21.3 11l-1.3-9 10.3-10.3"/><path class="st10" d="M670.3 222.3s21.3 1.9 28.4 0 12.3-9.7 18.7-8.4 12.3 5.8 12.9 11.6c.6 5.8 0 10.3-5.8 11-10.3.6-8.4-7.1-7.1-10.3 1.3-3.2-7.8-3.9-9.7 1.3-1.9 5.2 0 11.6 3.9 15.5s11.6 3.2 18.1.6 10.3-14.2 9-22-11.6-16.8-19.4-18.1-16.1 4.5-22 7.8c-5.8 3.2-25.2 2.6-25.2 2.6l-1.8 8.4z"/><path class="st10" d="M672.2 213.9s25.2 2.6 32.9-7.8c7.8-10.3 32.9-70.4 32.3-74.3-.6-3.9-3.2-5.8-7.1-5.8s-31 62.7-34.2 68.5-23.3 5.2-23.3 5.2l-.6 14.2z"/><path class="st2" d="M612.1 214.5s-5.2 4.5-13.6 7.1c-8.4 2.6-11.6 1.3-16.8 1.9s-8.4 5.2-9 9-.6 16.8 3.2 20c3.9 3.2 9.7 0 9.7 0s6.5 3.2 9-1.3c5.8 0 8.4-7.1 8.4-7.1s-7.8-7.8-3.2-11.6 25.8-1.9 27.1.6-6.5 11.6-6.5 11.6 6.5 4.5 12.3 1.3 5.8-8.4 4.5-12.9-6.5-5.2-9-16.8c-6.4-.5-16.1-1.8-16.1-1.8z"/><path class="st3" d="M594.7 251.3c-5.8-3.9-5.2-17.4-5.2-17.4M585.6 252.6c-6.5-5.2-4.5-18.1-4.5-18.1"/><path class="st4" d="M648.3 184.1s20.7 5.2 31 4.5c-.6 8.4-.6 31.7-12.9 35.5-7.1-9.7-21.3-14.2-23.3-18.7-1.9-4.5 5.2-21.3 5.2-21.3z"/><path class="st1" d="M602.4 135.7s38.8 0 45.9-3.9c3.2 1.9 7.1 9 .6 12.9s-43.3 4.5-43.3 4.5l-3.2-13.5zM580.5 152.5s6.5 5.2 7.1 12.3c.6 7.1 0 29.7 6.5 36.8 6.5 7.1 18.1 5.8 18.1 5.8l3.9-23.9-28.4-53.6-11.6 7.1 4.4 15.5z"/><path class="st10" d="M544.3 120.8s-13.6-9-16.1-17.4c9.7 2.3 45.2.6 53.6 5.8 8.4 5.2 18.1 20 20.7 26.5 2.6 6.5 10.3 28.4 20.7 37.5 10.3 9 25.2 11 25.2 11s-.6 15.5-5.2 21.3c-6.5.6-12.9-3.9-12.9-3.9s0 11.6-1.9 14.9c-6.5.6-12.9 0-16.1-1.9s0-18.1 0-18.1-7.8 2.6-12.3-9 1.9-25.2-3.9-34.9-14.2-9.7-14.2-9.7l-15.5-9-22.1-13.1z"/><path class="st10" d="m566.9 138.3 1.3 16.1s10.3 1.3 12.3-1.9c1.9-3.2 2.6-12.3.6-15.5-1.9-3.2-11.6-1.9-11.6-1.9l-2.6 3.2z"/><path class="st2" d="M533.3 109.2s-10.3 1.3-12.9 4.5c-2.6 3.2 0 11.6 0 11.6s-11.6.6-13.6 9.7c-1.9 9 1.3 19.4 12.3 24.5 1.3-5.2.6-7.1.6-7.1s43.3 4.5 47.2 1.3 2.6-18.7 2.6-18.7l-22.6-12.3-13.6-13.5z"/><path class="st3" d="M544.3 144.7s-20-2.6-23.3.6c-3.2 3.2-1.3 7.1-1.3 7.1M529.4 120.2c1.9 8.4-7.8 9.7-9 5.2"/><path class="st4" d="M572.8 131c-6.5-1.4-19.1-3.9-22-3-3.9 1.3-2.6 4.5-3.2 9 0 0 18.7 5.2 22 2.6 3.1-2.6 5.4-8.1 3.2-8.6z"/><circle class="st4" cx="559.5" cy="132.1" r="4.2"/><path class="st5" d="M543.6 118.3c-3.9 1.9-5.2 17.4 3.9 18.7.6-4.5-.6-7.8 3.2-9 3.9-1.3 25.8 3.9 25.8 3.9s2.6-9.7-5.8-12.9c-8.3-3.3-23.2-2.7-27.1-.7z"/></svg>