<svg version="1.1" id="Calque_1" xmlns="http://www.w3.org/2000/svg" x="0" y="0" viewBox="0 0 900 900" style="enable-background:new 0 0 900 900" xml:space="preserve"><style>.st0{fill:#ff7300;stroke:#000;stroke-width:6.2278;stroke-linecap:round;stroke-linejoin:round;stroke-miterlimit:10}.st1{fill:#fff}.st2{fill:#ff7300}.st3,.st4{fill:none;stroke:#000;stroke-width:6.2278;stroke-linecap:round;stroke-linejoin:round;stroke-miterlimit:10}.st4{fill:#fff}</style><path class="st0" d="M450 270.4c26.6 0 48.6-10.1 52.8-23.3-14.7-10.2-28.2-9-28.2-9s3.3-22.1 5.5-34.4c2.3-12.2-30.1-19.3-30.1-2.4 0-16.9-32.4-10-30.1 2.4 2.3 12.2 5.5 34.4 5.5 34.4s-13.5-1.1-28.3 9.1c4.3 13.2 26.3 23.2 52.9 23.2z"/><path class="st1" d="m379.9 412 20.7 59.3 39.1-3.4 10.4-16.7 10.4 16.7 39.1 3.4 20.7-59.3c-19.8 6.3-44 10-70.2 10-26.2 0-50.3-3.7-70.2-10z"/><path class="st2" d="M538.1 355c-19 12.9-51.4 21.3-88.1 21.3s-69.1-8.4-88.1-21.3c.6 5.6 1.2 8.9 1.2 8.9l16.7 48.1c19.8 6.3 44 10 70.2 10 26.1 0 50.2-3.7 70.2-10l16.7-48.1s.7-3.2 1.2-8.9z"/><path class="st1" d="M450 301.6c-34.5 0-64-9.1-77.6-22.4-2.1 4.7-3.8 9.4-5.3 14.1 9.5 16.7 43.1 29 82.9 29s73.4-12.4 82.9-29c-1.5-4.7-3.2-9.4-5.3-14.1-13.5 13.2-43.1 22.4-77.6 22.4z"/><path class="st2" d="M527.7 279.2c-.3-.6-.5-1.3-.8-2-7-15.1-15.7-24.3-24-30-4.3 13.2-26.3 23.3-52.8 23.3s-48.6-10.1-52.8-23.3c-8.3 5.7-17 15.1-24 30-.3.6-.6 1.3-.8 2 13.6 13.2 43.3 22.4 77.6 22.4 34.4 0 64-9.2 77.6-22.4z"/><path class="st1" d="M360.9 337.8c0 6.9.4 12.8.9 17.2 19 12.9 51.4 21.3 88.1 21.3S519 367.9 538 355c.5-4.5.9-10.4.9-17.2-18.9 13.2-51.7 21.9-89.1 21.9s-70-8.7-88.9-21.9z"/><path class="st2" d="M532.9 293.4c-9.5 16.7-43.1 29-82.9 29s-73.4-12.4-82.9-29c-4.9 16.2-6.2 32-6.1 44.4 18.9 13.2 51.7 21.9 89.1 21.9s70.2-8.7 89.1-21.9c0-12.5-1.4-28.3-6.3-44.4z"/><path class="st3" d="M450 227v-25.6M450 322.3c39.9 0 73.4-12.4 82.9-29-1.7-5.4-3.6-10.8-6.1-16.1-7-15.1-15.7-24.3-24-30-4.3 13.2-26.3 23.3-52.8 23.3s-48.6-10.1-52.8-23.3c-8.3 5.7-17 15.1-24 30-2.5 5.4-4.5 10.8-6.1 16.1 9.5 16.8 43 29 82.9 29z"/><path class="st3" d="M532.9 293.4c-9.5 16.7-43.1 29-82.9 29s-73.4-12.4-82.9-29c-7.6 25.1-6.5 49.2-5.2 61.7 19 12.9 51.4 21.3 88.1 21.3s69.1-8.4 88.1-21.3c1.5-12.5 2.4-36.6-5.2-61.7z"/><path class="st3" d="M361.9 355c.6 5.6 1.2 8.9 1.2 8.9l37.4 107.3 39.1-3.4 10.4-16.7h0l10.4 16.7 39.1 3.4 37.4-107.3s.7-3.3 1.2-8.9c-19 12.9-51.4 21.3-88.1 21.3s-69.1-8.4-88.1-21.3zM450 301.6c-34.5 0-64-9.1-77.6-22.4-2.1 4.7-3.8 9.4-5.3 14.1 9.5 16.7 43.1 29 82.9 29s73.4-12.4 82.9-29c-1.5-4.7-3.2-9.4-5.3-14.1-13.5 13.2-43.1 22.4-77.6 22.4z"/><path class="st3" d="M527.7 279.2c-.3-.6-.5-1.3-.8-2-7-15.1-15.7-24.3-24-30-4.3 13.2-26.3 23.3-52.8 23.3s-48.6-10.1-52.8-23.3c-8.3 5.7-17 15.1-24 30-.3.6-.6 1.3-.8 2 13.6 13.2 43.3 22.4 77.6 22.4 34.4 0 64-9.2 77.6-22.4zM360.9 337.8c0 6.9.4 12.8.9 17.2 19 12.9 51.4 21.3 88.1 21.3S519 367.9 538 355c.5-4.5.9-10.4.9-17.2-18.9 13.2-51.7 21.9-89.1 21.9s-70-8.7-88.9-21.9z"/><path class="st3" d="M532.9 293.4c-9.5 16.7-43.1 29-82.9 29s-73.4-12.4-82.9-29c-4.9 16.2-6.2 32-6.1 44.4 18.9 13.2 51.7 21.9 89.1 21.9s70.2-8.7 89.1-21.9c0-12.5-1.4-28.3-6.3-44.4zM399.5 270.4l-7.2 14.1M420.5 277.5l-2.7 15.9M450 280.3v14.1M434.7 332.2l-3.7 20.1M407.4 326.6l-2.7 19.5M500.7 270.4l7.1 14.1M479.5 277.5l2.8 15.9M465.3 332.2l3.8 20.1M492.6 326.6l2.8 19.5"/><path class="st4" d="M619.2 405.6c2.1 0 25.4-30.8 69.5-16.9 66.8 21.8 55 164.7 86.9 180.3s39.8-11 46.7-3.4c7 7.6 0 25.7-16.6 34.6-16.6 8.8-39.2 8-60.9-8.6S715 457.7 681.6 436.2c-33.3-21.5-56.2 5.9-56.2 5.9l-6.2-36.5zM280.8 405.6c-2.1 0-25.4-30.8-69.5-16.9-66.8 21.8-55 164.7-86.9 180.3s-39.8-11-46.7-3.4c-7 7.6 0 25.7 16.6 34.6 16.6 8.8 39.2 8 60.9-8.6s29.8-133.9 63.2-155.4c33.3-21.5 56.2 5.9 56.2 5.9l6.2-36.5z"/><path class="st3" d="M460.4 440.5c-3.4-.2-6.9-.3-10.4-.3s-7 .1-10.4.3c-57.8 3.7-103.1 38.2-103.1 80.2s45.3 76.6 103.1 80.2c3.4.2 6.9.3 10.4.3s7-.1 10.4-.3c57.8-3.7 103.1-38.2 103.1-80.2s-45.3-76.5-103.1-80.2z"/><path class="st0" d="M602.5 303.8c-23.4-2.9-33.5-11.9-38-19.3-10.7 16.1-21.2 33.5-30.2 51.5-37.3 74.7-32.2 120.7-34.9 124.2l38.7 46.3 76.8-38.7s16.3-30.2 33.5-114.5c3.8-18.8 5.2-36.6 5-53.2-10.9 3.4-28.2 6.6-50.9 3.7zM651.8 272.9c-5.1-43.3-18.9-72.5-18.1-74.2.9-1.8-25.2 24.8-53.9 63.9 6 5 15.7 9.5 31 11.4 16.7 2.1 30.5 1 41-1.1z"/><path class="st4" d="M610.9 274c-15.4-1.9-25-6.4-31-11.4-5.1 7-10.2 14.2-15.4 21.9 4.5 7.4 14.5 16.4 38 19.3 22.7 2.8 40-.3 51.1-3.7-.1-9.5-.8-18.7-1.8-27.2-10.5 2.1-24.3 3.2-40.9 1.1z"/><path class="st3" d="m576.5 317-47.1 121.7M597.1 325.3l-35.9 93.4M625.4 325.3l-28.3 77.3"/><path class="st0" d="M297.5 303.8c23.4-2.9 33.5-11.9 38-19.3 10.7 16.1 21.2 33.5 30.2 51.5 37.3 74.7 32.2 120.7 34.9 124.2l-38.7 46.3-76.8-38.7s-16.3-30.2-33.5-114.5c-3.8-18.8-5.2-36.6-5-53.2 11 3.4 28.3 6.6 50.9 3.7zM248.3 272.9c5.1-43.3 18.9-72.5 18.1-74.2-.9-1.8 25.2 24.8 53.9 63.9-6 5-15.7 9.5-31 11.4-16.8 2.1-30.5 1-41-1.1z"/><path class="st4" d="M289.1 274c15.4-1.9 25-6.4 31-11.4 5.1 7 10.2 14.2 15.4 21.9-4.5 7.4-14.5 16.4-38 19.3-22.7 2.8-40-.3-51.1-3.7.1-9.5.8-18.7 1.8-27.2 10.6 2.1 24.3 3.2 40.9 1.1z"/><path class="st3" d="m323.5 317 47.1 121.7M303 325.3l35.9 93.4M274.6 325.3l28.4 77.3"/><path class="st4" d="M512 460.3c7-33.9 55-72.6 81.7-78 26.7-5.5 45.7 14.2 44.9 36.7-.7 22.5-16.3 48.8-16.3 48.8l-83.3 53s-34-26.5-27-60.5z"/><path class="st3" d="M526.8 474.8c8.6-25.6 62-75.5 77.1-71.9 15.3 3.4 4.9 20 4.9 20"/><path class="st4" d="M388.1 460.3c-7-33.9-55-72.6-81.7-78-26.7-5.5-45.7 14.2-44.9 36.7.7 22.5 16.3 48.8 16.3 48.8l83.3 52.9c0 .1 33.9-26.4 27-60.4z"/><path class="st3" d="M373.2 474.8c-8.6-25.6-61.9-75.5-77.1-72-15.3 3.4-4.9 20-4.9 20"/><path class="st2" d="M541.3 491c19-33.5 48.5-68.2 98.9-56.8 50.5 11.4 45.4 106.3 40.8 145.6 11.4 4.2 46 14.1 63.3 45.7 13.3 24.2 11.9 45.7 9.7 65.1-1.9 15.7-11.7 22.1-22.8 15.3-7.7-4.8 4.7-32.7.7-53.6-1.8-9.1-65.1-55.1-76.8-53s-6.2 20-27 20-17.3-31.8-17.3-31.8-13.7 29.7-34.5 35.7-36-.3-36-.3l-51.2-63.7s33.2-34.6 52.2-68.2zM358.7 491c-19-33.5-48.4-68.1-98.9-56.7S214.4 540.6 219 579.9c-11.4 4.2-46 14.1-63.3 45.7-13.3 24.2-11.9 45.7-9.7 65.1 1.9 15.7 11.7 22.1 22.8 15.3 7.7-4.8-7.8-25.9-3.8-46.8 2.9-15.4 68.2-61.9 79.9-59.8 11.7 2.1 6.2 20 27 20s17.3-31.8 17.3-31.8 13.8 29.6 34.6 35.6 36-.3 36-.3l51.2-63.6c0-.1-33.2-34.7-52.3-68.3z"/><path class="st3" d="M289.1 587.5c-13.2-23 4.2-58.4-2.1-78.2s-20.8-21.8-20.8-21.8M655.2 599.3c-11.7 2.1-6.2 20-27 20s-17.3-31.8-17.3-31.8-13.8 29.6-34.6 35.6-36-.3-36-.3l-51.2-63.7s33.2-34.6 52.2-68.2c19-33.5 48.5-68.2 98.9-56.8 50.5 11.4 45.4 106.3 40.8 145.6 11.4 4.2 46 14.1 63.3 45.7 13.3 24.2 11.9 45.7 9.7 65.1-1.9 15.7-11.7 22.1-22.8 15.3-7.7-4.8 4.8-32.7.7-53.6"/><path class="st3" d="M610.9 587.5c13.2-23-4.2-58.4 2.1-78.2s20.8-21.8 20.8-21.8M672.1 598.6l-3.7 24.9M692.9 609.8l-9.4 27.5M707.8 623.5 696 651.2M721.3 640.7 712 664M244.9 599.3c11.7 2.1 6.2 20 27 20s17.3-31.8 17.3-31.8 13.8 29.6 34.6 35.6 36-.3 36-.3l51.2-63.6s-33.2-34.6-52.2-68.2c-19.1-33.6-48.5-68.2-99-56.8-50.5 11.4-45.4 106.3-40.8 145.6-11.4 4.2-46 14.1-63.3 45.7-13.3 24.2-11.9 45.7-9.7 65.1 1.9 15.7 11.7 22.1 22.8 15.3 6.9-4.3-5.8-28.4-3.8-46.8M228 598.6l3.7 24.9M206.1 609.8l10.4 27.5M192.3 623.5l10.7 27.7M177.7 639.6l9.4 23.4"/><path class="st0" d="M336.5 520.8c0 42 45.3 76.6 103.1 80.2V440.5c-57.8 3.7-103.1 38.2-103.1 80.3zM563.6 520.8c0-42-45.3-76.6-103.1-80.2v160.6c57.7-3.8 103.1-38.4 103.1-80.4z"/><path class="st4" d="M450 440.1c-3.5 0-7 .1-10.4.3V601c3.4.2 6.9.3 10.4.3s7-.1 10.4-.3V440.5c-3.4-.3-6.9-.4-10.4-.4zM525 460.3c-17.6 9.2-29.7 27.7-29.7 49.1 0 28.8 22 52.4 50 55.1 11.4-12.6 18.1-27.6 18.1-43.7.2-24.1-14.8-45.7-38.4-60.5zM375 460.3c17.6 9.2 29.7 27.7 29.7 49.1 0 28.8-22 52.4-50 55.1-11.4-12.6-18.1-27.6-18.1-43.7-.1-24.1 14.8-45.7 38.4-60.5z"/><path class="st4" d="M463.2 574.4h-26.3c-6.9 0-12.5-5.6-12.5-12.5v-5.2c0-6.9 5.6-12.5 12.5-12.5h26.3c6.9 0 12.5 5.6 12.5 12.5v5.2c-.1 6.9-5.7 12.5-12.5 12.5zM450 601.4v24.2c0 8.3-23.1 9-28 1.3s-1.3-34.6 0-34.6c1.4.1 28 9.1 28 9.1zM450 601.4v24.2c0 8.3 23.1 9 28 1.3s1.3-34.6 0-34.6c-1.3.1-28 9.1-28 9.1z"/><path class="st4" d="M541.8 594.8c-18.7-20-76.4-22.8-91.7-22.8s-73 2.7-91.7 22.8-7.9 55.3 16.6 52.6 27.7-28 18.7-37.1c15.3-9 56.4-9 56.4-9h0s41.2 0 56.4 9c-9 8.9-5.8 34.3 18.7 37.1 24.4 2.8 35.2-32.5 16.6-52.6z"/><path class="st3" d="M375 631.8c-10.4-22 8.3-30.4 18.7-21.5M525.1 631.8c10.4-22-8.3-30.4-18.7-21.5"/><path class="st4" d="M519.9 530.8h-24.1c-6.9 0-12.5-5.6-12.5-12.5v-6.2c0-6.9 5.6-12.5 12.5-12.5h24.1c6.9 0 12.5 5.6 12.5 12.5v6.2c-.1 6.9-5.7 12.5-12.5 12.5zM380.1 530.8h24.1c6.9 0 12.5-5.6 12.5-12.5v-6.2c0-6.9-5.6-12.5-12.5-12.5h-24.1c-6.9 0-12.5 5.6-12.5 12.5v6.2c.1 6.9 5.7 12.5 12.5 12.5z"/></svg>