<svg version="1.1" id="Calque_1" xmlns="http://www.w3.org/2000/svg" x="0" y="0" viewBox="0 0 900 900" style="enable-background:new 0 0 900 900" xml:space="preserve"><style>.st1,.st2,.st3{fill:#602900;stroke:#000;stroke-width:11.6873;stroke-linecap:round;stroke-linejoin:round;stroke-miterlimit:10}.st2,.st3{fill:#fff}.st3{fill:none}</style><path d="M497.4 274.5c-64.1-17.2-52.1-60.1-46.8-73.5-57.4 32-49.4 64.1-46.8 77.4-14.7-30.7-76.1-29.4-76.1-94.9-44 26.7-30.7 58.8-30.7 58.8s-38.7-28.1-109.5 17.3c-22.7-8-36.1-38.7-40.1-53.4-49.4 70.8-8 96.2-8 96.2s-24.7 32.7-27.4 76.8c-2.7 44 17.3 73.1 18.7 111.9.7 19.7-35.4 79.5-34.1 98.2 1.4 18.7 20 15.1 29.4 9.7 9.4-5.3 53.4-100.2 53.4-100.2s-1.4 162.9 5.3 175c6.7 12 37.4 5.3 38.7-5.3 1.4-10.7-2.7-137.6 13.4-169.6s49.4-62.8 49.4-62.8l25.4 112.2 76.2-12 149.6-149.6 41.4-66.8-40.1-30.7c.1 0-37.2-13.3-41.3-14.7z" style="fill:#0052c9;stroke:#000;stroke-width:11.6873;stroke-linecap:round;stroke-linejoin:round;stroke-miterlimit:10"/><path class="st1" d="M536.1 257.3s-30.7-64.2 10.7-76.3c17.3 40.1 66.8 41.4 66.8 41.4l-6.7 46.8-70.8-11.9z"/><path class="st2" d="M263.7 718c-5.3 4-4 13 2.7 15.7-9.4 8.4-1 22.7 8.4 22.7-3 11 7.7 21.7 17 16.4 1.8-1.1 4.2-2.7 6.9-4.6L273 711.6c-4.1 2.7-7.3 4.9-9.3 6.4z"/><path class="st1" d="M364.2 635.2c5.3-21.4 25-56.1 25-56.1l-5.3-33.4-46.8 25.4s-1.4 25.4-28.1 42.7-32 50.7-13.4 82.8c-7.6 5-16.1 10.6-22.8 15l25.7 56.6c23.7-16.3 77.3-57.9 77.3-66.2.1-9.4-17-45.4-11.6-66.8z"/><path class="st1" d="M309.1 613.8c-26.7 17.3-38.7 56.1-13.4 82.8 5.3 5.3 19.7-1 14.4-9-5.3-8-5-35.1 9.7-56.4"/><path class="st2" d="M295.7 696.6c5.3 5.3 19.7-1 14.4-9-1.8-2.7-3-7.6-3.2-13.7l-21.6 6.8c2.3 5.6 5.7 11 10.4 15.9z"/><path class="st3" d="M266.3 733.7c13.4-9 37.4-23.7 58.8-29.1M274.7 756.4c13.4-9 35.7-22.4 50.4-27.7"/><path class="st1" d="M705.8 611.1c0-21.4-8-42.7-17.3-54.8-9.4-12-26.7-18.7-36.1-34.8-9.4-16-25.4-49.4-25.4-49.4s-54.8-38.7-54.8 5.3 32 65.4 32 65.4.3 31.7 12.3 45.1c12 13.4 49.1 31 49.1 31s-13.2 22.6-21.5 39l49.6 12.1c5.4-16.7 12.1-43.7 12.1-58.9z"/><path class="st2" d="M644.3 658.2c-3.8 7.5-6.6 13.7-6.6 15.8 0 6.6 13.6 9.9 16.5 3.7.1-.1.1-.2.1-.3-.1.1-.1.2-.1.3-4.2 9.7 12.8 11 15.5 3 4 8 14.7 10.7 18.7 4 1.2-2 3.2-7.2 5.4-14.3l-49.5-12.2z"/><path class="st3" d="M654.2 677.6c.1-.1.1-.2.1-.3 0 .1 0 .2-.1.3zM654.4 677.2l18-41.3M669.7 680.6l16.1-40.1"/><path class="st1" d="M616.6 588.1c12 13.4 50.4 36.4 57.1 37.7 6.7 1.4 15.1-13.4 5.7-28.1-9.4-14.7-41.8-25.4-47.8-46.8"/><path class="st2" d="M679.4 597.8c-1.4-2.2-3.4-4.4-5.7-6.5L659 618.6c7 4 12.6 6.8 14.8 7.2 6.6 1.4 14.9-13.3 5.6-28zM409 766.8c-5.3 9.4-3.7 20.7 7 22.1-5.3 8 2.7 20 13.4 17.3-4 9.4 9.4 14.7 17.3 10.7 2.8-1.4 6.9-4 11.2-8.1l-44-48.3c-2.2 2.1-3.9 4.4-4.9 6.3z"/><path class="st1" d="M786.3 232.8c-18.7-12-57.7 3-57.7 3s-42.7-41.4-92.2-29.4c-49.4 12-58.8 48.1-60.1 73.5-32 22.6-30.2 43.1-41.8 57.1-13.1 15.9-42.4-13.7-106.5 19.7s-60.1 165-60.1 165-18.7 8.4-27.1 7c-8.4-1.4-21.1-16.7-18.3-31.4 2.7-14.7 35.4-71.9 22.4-134.9-15.1-72.8-102.5-73.1-137.9-58.1-26.1 11.1-48.8 43.7-44.7 81.2 4 37.4 49.4 58.8 73.5 54.8s50.7-28.1 54.8-46.4c.3 29.7-21.4 86.5-21.4 110.5s8 56.1 34.8 70.8c26.7 14.7 54.8-1.4 54.8-1.4s21.4 25.7 40.1 25.7 56.1-13.7 89.5-21.7c-20 22.7-29.1 52.4-39.7 60.5-10.7 8-31 6.3-35.7 13-9.4 38.7 21.7 90.1 21.7 90.1s-12.6 10.1-20.5 19l44 48.3c7.7-7.4 16.1-19.7 19.6-38.6 5.3-29.4-20-78.8-20-89.5 25.4-44 90.8-70.1 98.8-83.5s14.7-62.1-29.4-79.5c6.7-8 9.4-16.4 24-23 14.7-6.7 76.1-22.4 76.1-22.4l20-69.5s87.9-11 105.5-26.7c36.1-32 50.7-70.8 42.7-92.2 7.8-7.9 9.5-39-9.2-51z"/><path class="st3" d="M457.3 748.7c-12 9.4-46.8 49.4-41.4 40.1M462.7 768.8c-12 9.4-38.7 46.8-33.4 37.4M290.4 393.7c1.4-37.7-2.7-43.1-17.3-57.7-22.4-22.4-70.8-2.7-73.5 25-2 20.6 17.3 44.7 32 38s6.7-24.3 0-31M526.8 517.7c-14.7-2.7-82.8 17.3-97.5 25.4M525.5 563.1s-18.7 9.4-37.4 14.7M772.6 265.2s-17.3 9.4-6.7 22.7c4.9 6.1 24 2.7 29.4-4"/><circle class="st2" cx="664.4" cy="277.2" r="33.4"/><circle class="st3" cx="664.4" cy="276.5" r="11.3"/><path class="st3" d="M673.7 336s48.1-21.4 72.1-20 42.7 12 42.7 12"/><path d="M745.9 315.9c24 1.4 42.7 12 42.7 12s13.4-1.4 9 20.4c-2.7 8 29.7 13.7 25.7 28.4s-45.4 20.7-64.1 15.4c16-4 35.4-16.4 19-22.7-16.4-6.3-17.7-24-17.7-24s2.7-16.1-14.6-29.5z" style="fill:red;stroke:#000;stroke-width:11.6873;stroke-linecap:round;stroke-linejoin:round;stroke-miterlimit:10"/><path class="st2" d="M745.9 315.9c-7.6-.4-17.5 1.4-27.5 4.1-.2 13.8-2.2 35.4-9.9 60 32-6.7 38.7-48.1 38.7-48.1s2.7 16 5.3 44c25.4-20 26.7-50.7 26.7-50.7l-2.5-2.7c-7.7-2.7-18.6-5.9-30.8-6.6z"/><path class="st1" d="M607 356s48.1 29.4 53.4 86.8c5.3 6.7 113.2 15.7 133.3 29.1 20 13.4 33.7 52.4 31 61.8s-12 9.4-20 5.3c0 9.4-14.7 8-20 4-2.7 8-20 4-20-1.4 0-5.3 4-22.7 4-22.7s-16 11-25.4 7-24-17.7-37.4-21.7-49.4-6.7-68.1-12-73.5-90.8-73.5-90.8"/><path class="st3" d="M735.1 491s36.1 20 33.4 28.1c-2.7 8-16 11-25.4 7"/><path class="st2" d="M766.3 529.5c-.9 4.7-1.8 9.7-1.8 12.2 0 5.3 17.3 9.4 20 1.4 5.3 4 20 5.3 20-4 8 4 17.3 4 20-5.3.9-3-.1-8.9-2.4-15.9l-55.8 11.6zM112.8 588.5c61.5 1.4 46.8 88.2-6.7 125.6-29.4-18.8-54.8-127 6.7-125.6z"/><path class="st3" d="M94 699.3c16-16 36.1-41.4 37.4-58.8 1.4-17.3 0-41.4-20-38.7s-17.3 29.4-1.4 38.7M80.2 657.8l44.6-5.3M83 677.6l29.8-4.3"/><path class="st2" d="M200.6 665.9c75.8 1.7 57.7 108.8-8.2 154.9-36.3-23.1-67.6-156.6 8.2-154.9z"/><path class="st3" d="M177.6 802.7c19.8-19.8 44.5-51.1 46.2-72.5s0-51.1-24.7-47.8-21.4 36.2-1.7 47.8M159.9 751.5l55.6-6.5M163.9 775.9l36.7-5.3"/><path class="st2" d="M134.3 218.4c68-5.8 45.7-101-16.2-138.7-31.3 22.8-51.9 144.5 16.2 138.7z"/><path class="st3" d="M105.8 96.9c18.9 16.7 42.9 43.4 45.5 62.5 2.7 19.1 2.9 45.9-19.5 44.4s-21.3-31.3-4.2-42.9M90 143.6l53.1 2.9M95.1 121.7l33.2 2.7"/><path class="st2" d="M416.3 202.6c59.3 33.8 94.9-57.2 65.4-123.4-38.7 1-124.7 89.5-65.4 123.4z"/><path class="st3" d="M461.7 86.3c6.1 24.4 10.7 60 2 77.3s-23.7 39.5-41.2 25.5.2-37.9 20.9-37.7M422.2 115.6l42.1 32.7M438.9 100.6l25.8 21.2"/><path class="st2" d="m754.2 502.9-20.1 17.8c3.3 2.2 6.4 4.1 9 5.3 9.4 4 22.7 1 25.4-7 1.3-3.8-6.1-10.3-14.3-16.1z"/><circle class="st2" cx="327.8" cy="139.7" r="44"/><circle class="st3" cx="327.8" cy="139.7" r="14"/><path class="st3" d="M763.2 488.3c22.7 14.7 21.4 34.8 21.4 54.8M777.9 480.2c22.7 14.7 26.7 34.8 26.7 54.8"/><path class="st1" d="M436 675.3c-4 21.4 16 53.4 14.7 58.8-1.4 5.3-11.3 9.4-16.4 7.4-5-2-31-51.4-21.7-90.1"/><path class="st2" d="M424.3 725.6c4.3 9.1 8.3 15.1 10 15.7 5 2 15.1-2 16.4-7.4.5-2-1.9-7.6-5-15.1l-21.4 6.8z"/><path d="M586.9 257.3s-62.8-25.5-95.5 10.5c10 48.1 58.1 77.4 58.1 77.4l81.7-24.5-44.3-63.4z" style="fill:#602900"/><path class="st1" d="M549.5 345.4S501.4 316 491.4 268c32.7-36.1 95.5-10.5 95.5-10.5"/></svg>