<svg version="1.1" id="Calque_1" xmlns="http://www.w3.org/2000/svg" x="0" y="0" viewBox="0 0 900 900" style="enable-background:new 0 0 900 900" xml:space="preserve"><style>.st0,.st1,.st2,.st3,.st4,.st5{fill:#078e00;stroke:#000;stroke-width:6.3685;stroke-linecap:round;stroke-linejoin:round;stroke-miterlimit:10}.st1,.st2,.st3,.st4,.st5{fill:none}.st2,.st3,.st4,.st5{fill:#ffce00}.st3,.st4,.st5{fill:#0080d6}.st4,.st5{fill:red}.st5{fill:#fff}.st6{fill:#595959}.st6,.st7,.st8{stroke:#000;stroke-width:6.3685;stroke-linecap:round;stroke-linejoin:round;stroke-miterlimit:10}.st8{fill:#ff7300}.st9{fill:#fff}</style><circle class="st0" cx="738.7" cy="251.9" r="79.4"/><path class="st1" d="M667.2 217.3c-13.5 28.3 12.9 82.5 43.8 90.7 31 8.2 55.2-10.6 61.1-29.3 5.9-18.7-3.1-43.3-20.4-51.2-7.1-3.3-17.6-2.9-27.3-1.3"/><path d="M703 199s-30.6 20-28 46.7 20.4 45.9 35.7 49.3c15.3 3.4 37.2-.9 44.5-10.6 7.3-9.8 10.2-29.7 1.9-38.6s-40.5-8.3-47.8-1.1c-7.3 7.1-9.6 25.7 2.4 29.2s28.8-6 32.2-5.1 5 7.6 1.3 10.6c-3.7 2.9-18 6.4-32.2 3.4-14.4-2.9-22-10.7-22-33.5s16.2-31.7 16.2-31.7L703 199z"/><path class="st2" d="M816.7 237.7c-6-1.9-47.1.4-49 5.1-1.9 4.7 1.7 18.2 6.2 21.1 4.6 2.9 39.2 6 42.7 2.8 3.6-3 6.1-27.1.1-29z"/><path class="st3" d="M742.5 180.4s-15.8-12.7-31-2.8-23.1 42.9 0 52c23.1 9 38.6-7.3 38.6-7.3l-7.6-41.9z"/><path id="XMLID_5_" class="st4" d="M723 201.6c0 13.5 11 24.5 24.5 24.5 6.1 0 11.7-2.3 16-6.1l-32.2-36.6c-5.1 4.5-8.3 11-8.3 18.2z"/><path id="XMLID_6_" class="st5" d="M771.8 201.6c0-13.5-11-24.5-24.5-24.5-6.2 0-11.8 2.3-16.2 6.2l32.2 36.6c5.3-4.4 8.5-10.9 8.5-18.3z"/><circle class="st1" cx="747.3" cy="201.6" r="24.5"/><circle class="st5" cx="747.3" cy="201.6" r="9"/><path class="st4" d="M227.9 758.1c.4-.9-3.4-30.6 0-36.6s82.4 10.1 82.4 10.1l-17.8 26.5h-64.6z"/><path id="XMLID_4_" class="st5" d="m181.2 792.9 1 14.9c4.3.1 9.6.1 15.3.1l-1-15.4-15.3.4z"/><path id="XMLID_7_" class="st5" d="M166.5 793.1c-2.2 6.1-1.8 11.5.8 13.8.5.4 6.1.8 15 .9l-1-14.9-14.8.2z"/><path id="XMLID_8_" class="st5" d="m237.2 791.7 1 15.9c47.9-.5 103-1.9 106.5-3.4 2-.9 2.7-6.9 2.9-14.8l-110.4 2.3z"/><path id="XMLID_9_" class="st5" d="m196.5 792.6 1 15.4h20.4l-1-15.8-20.4.4z"/><path id="XMLID_10_" class="st5" d="m216.8 792.2 1 15.8c6.5 0 13.4-.1 20.4-.1l-1-15.9-20.4.2z"/><path id="XMLID_11_" class="st6" d="M479.7 587.4c-.9-.4-47.5 8.9-75.1 26.7s-109.5 127.8-115 133.4c-5.5 5.5-39.1 1.3-63.3 6.8s-55.2 28.9-58.6 36c-.5 1-.9 1.9-1.1 2.8l21.9-.4c5.7-7.4 20-19.4 42.2-25.7 28.4-8.2 72.6-5.6 72.6-5.6l5.6 29 38.8-.8c.3-15.3-1.4-37.4.5-41.7 2.9-6.4 70.8-57.6 91.5-70.4 20.6-12.9 48.3-13.2 48.3-13.2l16.2-61.1-24.5-15.8z"/><path id="XMLID_12_" class="st7" d="M230.5 767c-22.2 6.4-36.3 18.3-42.2 25.7l120.4-2.4-5.6-29s-44.2-2.6-72.6 5.7z"/><path d="M313.5 736.8s50.8-75.5 85.1-101.5c34.3-25.9 86.2-36.9 86.2-36.9l25.3 6.8-14.3 45s-50.1 10.3-75.5 22.8c-25.5 12.5-83 69.8-83 69.8l-23.8-6z"/><path class="st5" d="M314.5 631.5c3.8 5.9 48.8 22.2 69.2 31.8s44.3 32.7 48.8 33.5c4.6.9 19.5-20.3 18.2-23.3-1.3-3.1-22.5-19.1-47.1-39.5s-47.1-50.8-52.2-53.1c-5.1-2.3-17.8 10.2-14.5 19.5 3.4 9.3 51.5 44.5 51.5 44.5s-57.3-32.6-63.7-32.6c-6.5 0-14 13.5-10.2 19.2z"/><path class="st1" d="m400 650.2 44.8 35.3"/><path class="st5" d="M373.1 663.9c0-6.8 25.9-39.1 30.6-39.1s13.1 5.5 11.1 11.1c-2 5.5-21.5 30.2-25.6 35.3-4.1 5-16.1-.6-16.1-7.3z"/><path id="XMLID_3_" class="st5" d="M501.4 612.9 397.3 758.7l51.1 21.5C498.2 698 554 598.4 554 598.4l-52.6 14.5z"/><path id="XMLID_13_" class="st4" d="M341.3 837.5s25.5 19.1 64.6 10.6c12.4-18.6 27.3-42.4 42.5-67.8l-51.1-21.5-56 78.7z"/><path class="st6" d="M628.2 612.9 610.8 505l-110-86.7-80.9 29.4-11.1 39.5s53.9 89.2 66.2 97.7 60.8 18.7 60.8 18.7-39.5 60.8-41.1 76.8c-1.7 16.2 15.3 104.4 12.4 111.7s-55.2 9.8-70.4 16.9c-15.3 7.3-36.6 23.3-39.1 29.3h18.9c8.3-7 27.1-21.4 44.5-23.3 22.9-2.5 67.5-1.3 67.5-1.3l2 24.6h55.7c-5.3-18.7-15.3-47.5-15.3-47.5s-4.2-108.6-3.8-113.4c.1-4.6 61.1-64.5 61.1-64.5z"/><path id="XMLID_14_" class="st6" d="M622.8 465.5c-11.5 2.5-77.1-47.1-99.5-47.1-22.4 0-65.2 6.9-65.2 6.9l34.3 41.7s112.6 86.9 153 70.9c31.7-12.6 52.5-89.7 69.2-129L662 395.7c-17.1 34.3-33.3 68.4-39.2 69.8z"/><path class="st8" d="M727.2 387.2c14.4-10.7 56.7-23.6 80-30.1L792.7 306c-11 4.6-22.5 9.9-22.5 9.9s0-14.8-8.9-13.6c-8.9 1.2-39.1 11-58.2 23.4-9.2 6-25.5 38-41.1 69.8l52.5 13.1c4.4-10.4 8.6-18.3 12.7-21.4z"/><path class="st6" d="M524.4 263.4c.6-2.5 35.7-42 20.4-75.8-15.3-33.8-43.9-29-43.9-29l-46.2 5.5-57.7 42.4 8.4 101.5 119-44.6z"/><path class="st1" d="m429.2 249.1-6.9-45.6M448.1 238.6l-6.6-37.1M464.8 229.5l-10.2-34.4"/><path class="st8" d="M570.3 308 534 273.6l-37.4-47.1-20-2.5c-11.3 4.8-25.2 12.6-37.6 20 1.1-.6 2.3-1.4 3.4-2l-22 13.5c-1 .6-2 1.3-2.9 1.9.4-.3.4-.3 0-.1l-10.4 6.4-5.2-.6 1.1 14.5s3.8 80.1 15.3 103 40.1 34.4 65.6 34.4 23.4-8.8 32.5-10.2c9-1.4 32.5 8.3 40.8-6.4 8.3-14.6 1.3-35 1.3-35s19.1 2.5 7.6-28.7c14.4-14.6 4.2-26.7 4.2-26.7z"/><path class="st4" d="M213.5 283.4c-1.7 0-92.1-3.3-110.8-3.3s-33.5 17.1-25.5 22.3c8 5.2 125.3 3.9 125.3 3.9l11-22.9zM247 226.3s-89.2-90.3-91.3-97.9c-2.2-7.6 8.9-18.2 17.8-13 8.9 5.3 91.3 93 91.3 93L247 226.3z"/><path id="XMLID_16_" class="st0" d="M185.2 162.4c-15.9 20.6-54.5 96-65.6 117.9 27.3.6 74.1 2.4 89 2.9 10.1-18 23.6-41.5 35-60.2-9.1-9.4-36.6-37.4-58.4-60.6z"/><path d="m219 274.5-72.2-8.2 41.8-75.9 50.1 48.2z"/><path id="XMLID_18_" class="st9" d="M193.9 221.2c-10.8 0-19.6 8.8-19.6 19.6 0 7.5 4.2 14 10.3 17.3l19.4-33.9c-2.8-1.8-6.4-3-10.1-3z"/><path id="XMLID_19_" d="m204.1 224.2-19.4 34c2.8 1.5 5.9 2.3 9.2 2.3 10.8 0 19.6-8.8 19.6-19.6 0-7.2-3.8-13.3-9.4-16.7z" style="fill:red"/><circle class="st1" cx="193.9" cy="240.9" r="19.6"/><circle class="st5" cx="193.9" cy="240.9" r="7.3"/><path class="st6" d="M314.1 342.4s-.9-25 1.5-31.8c2.3-6.8 6.1-10.6 14-7-2.5-14.6 1.8-41.4 1.8-41.4l55.2-45.5 18.1 5.5.8 85.7-15 43.3-15.5 15.2-51.5-1.5-9.4-22.5z"/><path class="st1" d="M329.4 320.7s-.9 11.2 5.5 11.2 11.5-7.3 9.8-13.8c-1.7-6.5-15-14.6-15-14.6"/><path class="st1" d="M350.6 260.9c3.6 19.5-5.6 59.9-5.6 59.9M368 245.7s3.3 42.9-2.5 62.4c-5.9 19.5-20.5 33.1-20.5 33.1M383.3 233.2s3.8 61.1-1.7 78.2-19.5 34.5-19.5 34.5"/><path id="XMLID_15_" d="m390.3 408.6-10.4-56.9s-40.8-10.2-87-25.1-67.9-33.1-82.4-33.1c-14.4 0-41.1 33.2-33.5 54.8 11.2 31.8 38.2 58.3 56.8 80.2l7.8-6.1c-12.5-15.9-50.7-65.5-52.7-78.3-2.5-15.4 15-34.8 28.9-33.5 13.9 1.3 48.8 20.8 81.3 32.2 32.4 11.5 80.5 20.3 80.5 20.3l-2.5 45s-52.6 3.3-77.8-11c-25.2-14.3-65-46.1-68.3-45.7s-10.8 8.2-8.2 13.4c2 3.9 23.3 32.4 33.6 46.1l6.8-5.3c-14.8-21.3-26.2-36.9-25.3-38 2.5-2.8 37.4 46.1 107.9 52.7 70.2 6.6 44.5-11.7 44.5-11.7z" style="fill:#595959"/><path id="XMLID_17_" d="M230.8 351.3c3.3-.4 42.9 31.5 68.3 45.7 25.2 14.3 77.8 11 77.8 11l2.5-45s-48-8.7-80.5-20.3c-32.4-11.5-67.3-31-81.3-32.2-13.9-1.3-31.5 18.1-28.9 33.5 2.2 12.9 40.2 62.4 52.7 78.3l14.6-11.6c-10.3-13.8-31.6-42.2-33.6-46.1-2.5-5.2 5.1-12.8 8.4-13.3z"/><path class="st1" d="m390.3 408.6-10.4-56.9s-40.8-10.2-87-25.1-67.9-33.1-82.4-33.1c-14.4 0-41.1 33.2-33.5 54.8 11.2 31.8 38.2 58.3 56.8 80.2l7.8-6.1 14.6-11.6 6.8-5.3c-14.8-21.3-26.2-36.9-25.3-38 2.5-2.8 37.4 46.1 107.9 52.7 70.4 6.7 44.7-11.6 44.7-11.6z"/><path d="m235.9 501.8-22.4-12.9c-15.7 18.9-74.8 92.1-72.3 120.1 2.8 32.2 24.8 38.5 49.9 32.2 34.3-8.5 71.1-103.6 71.1-103.6l11.8-.3 4.1-27.8-42.2-7.7zm-39.4 108.9c-17.8 11-36.6 6.6-34.8-12.4 1.9-21.1 67.9-83.9 67.9-83.9l10.6 22.8c.1 0-21.6 59.9-43.7 73.5z" style="fill:#ff7300"/><path class="st9" d="M262 537.8s-5 12.9-13 29.4c-1.9 4.1-4.1 8.3-6.2 12.6-2 4.1-4.3 8.2-6.6 12.4-2.7 4.7-5.5 9.3-8.3 13.8-2.3 3.6-4.6 7-7 10.2-3.4 4.6-6.9 8.8-10.4 12.4-2.9 2.9-5.9 5.6-8.8 7.6-3.4 2.4-6.9 4.2-10.2 5.1-.1 0-.3.1-.4.1-5 1.3-9.8 1.9-14.4 2.2-4.8.1-9.4-.4-13.6-1.7-4.8-1.5-9.2-4.1-12.7-8-2.5-2.8-4.6-6.4-6.2-10.7-1.4-3.9-2.4-8.7-2.9-14-.1-.8-.1-1.5 0-2.4.1-4.6 1.7-10.2 4.1-16.3 2-5.1 4.7-10.6 7.8-16.3 2.8-5.1 5.9-10.3 9.3-15.7 3.1-4.7 6.2-9.6 9.4-14.4 3.7-5.5 7.5-10.8 11.3-15.9 2.9-4.1 5.9-7.9 8.8-11.7 3.6-4.7 7-9.2 10.2-13.1 4.8-6.1 8.9-11.1 11.6-14.4l-12-6.9s-4.3 4.8-10.8 12.7c-2.9 3.6-6.5 7.8-10.2 12.5-2.7 3.4-5.6 7.1-8.5 11-3.9 5.2-8 10.7-12 16.3-3.4 4.8-6.9 9.8-10.1 14.8-3.6 5.5-7 11.1-10.2 16.6-3.1 5.5-5.9 10.8-8.2 15.9-2.9 6.5-5.1 12.6-6.2 18.2-.6 2.8-.9 5.5-.9 8 0 5.2.8 10.2 2.3 14.9 2.4 7.8 6.6 14.6 12.1 20.3 5 5.2 11.1 9.4 17.8 12.4 5.9 2.5 12.4 4.2 18.9 4.6 6.2.4 12.7-.3 19.1-2 3.6-1 7-2.4 10.4-4.2 1.7-.9 3.3-1.8 4.8-2.9 3.9-2.7 7.6-5.9 11.3-9.7 4.2-4.2 8.2-9 12-14.1 3.1-4.1 6-8.5 8.8-12.9 3.1-4.8 5.9-9.7 8.5-14.5 2.3-4.1 4.3-8.2 6.2-12 2.3-4.6 4.3-9 6.2-13 5.2-11.5 8.2-19.5 8.2-19.5l2.7-18.1-12 .4z"/><path class="st1" d="M126.5 623.1H144M141 606.7l-15.7-6.5M180.5 507.4l11.2 9M201.9 503.4l-11.2-8.6M149.8 549.5l12.4 8.9M171.6 544l-11.7-9.3M150.2 633.8l-11.4 9.5M183 528.1l-11-9.7M131.5 582l13.6 8.2M152.9 574.1l-13.3-8.1M163 641.8l-6.4 13.9M242.8 579.8l14 8.1M249.1 567.2l14 7.8M250.6 599.9l-14.5-7.8M227.8 605.9l14.3 8.5M176.6 643.5l-1.2 16.8M233.3 627.4l-12.5-11.3M210.3 628.4l11 13.2M191.4 641.2l3.1 17.1M201.5 636.1l8.5 15M235.9 501.8l-22.4-12.9-12-6.9s-4.3 4.8-10.8 12.7c-2.9 3.6-6.5 7.8-10.2 12.5-2.7 3.4-5.6 7.1-8.5 11-3.9 5.2-8 10.7-12 16.3-3.4 4.8-6.9 9.8-10.1 14.8-3.6 5.5-7 11.1-10.2 16.6-3.1 5.5-5.9 10.8-8.2 15.9-2.9 6.5-5.1 12.6-6.2 18.2-.6 2.8-.9 5.5-.9 8 0 5.2.8 10.2 2.3 14.9 2.4 7.8 6.6 14.6 12.1 20.3 5 5.2 11.1 9.4 17.8 12.4 5.9 2.5 12.4 4.2 18.9 4.6 6.2.4 12.7-.3 19.1-2 3.6-1 7-2.4 10.4-4.2 1.7-.9 3.3-1.8 4.8-2.9 3.9-2.7 7.6-5.9 11.3-9.7 4.2-4.2 8.2-9 12-14.1 3.1-4.1 6-8.5 8.8-12.9 3.1-4.8 5.9-9.7 8.5-14.5 2.3-4.1 4.3-8.2 6.2-12 2.3-4.6 4.3-9 6.2-13 5.2-11.5 8.2-19.5 8.2-19.5l2.7-18.1 4.1-27.8-41.9-7.7zm-39.4 108.9c-17.8 11-36.6 6.6-34.8-12.4 1.9-21.1 67.9-83.9 67.9-83.9l10.6 22.8c.1 0-21.6 59.9-43.7 73.5z"/><path class="st5" d="M403.4 211.2c14 9.6 62.2-5.1 62.4-20.4s4.5-87.9-20.4-87.9-24.2 17.8-44.6 26.7-35.7 0-44.6 19.7 33.2 52.3 47.2 61.9z"/><circle class="st5" cx="337.2" cy="122.7" r="31.2"/><circle class="st5" cx="423.4" cy="74.8" r="31.2"/><path id="XMLID_20_" class="st6" d="M521.9 129.7c-11.5 0-17.2 8.3-12.7 19.1-12-5.2-31.1.3-43.2 5 .3 6 .4 11.8.3 17.2 7.8-3.7 20.3-8.2 30.3-5 15.7 5 32 3.8 39.4-10.8 7.3-14.7-2.7-25.5-14.1-25.5z"/><path class="st6" d="M472.8 238.6s-3.2-29.9 4.5-42.7c7.6-12.7 28-21 43.3-11.5 15.3 9.6 18.1 29.7 25.3 39.2-.5-8.5-2.4-16.3 7.8-19.5 10.2-3.2 21.7 5.1 21.7 19.1s-12.1 28.7-31.8 25.5-19.1-38.2-28-44.6c-8.9-6.4-20.4-7.5-26.1 1.9s1.9 27.1 1.9 27.1l-18.6 5.5z"/><path id="XMLID_25_" class="st5" d="M515.5 388.4c6-1.3 7-14 7-20.8l-14 1.7c0-.2-1.1 20.8 7 19.1z"/><path id="XMLID_26_" class="st5" d="M529.8 385.8c5.2-1 5.3-13.9 5.1-19.6l-12.1 1.4c.5 6.6 2 19.2 7 18.2z"/><path id="XMLID_27_" class="st5" d="M544.2 384.4c5.7-.8 3.6-15.3 2.8-19.7l-12 1.4c1 5.8 4 19.1 9.2 18.3z"/><path id="XMLID_28_" class="st5" d="m558.2 363.4-11.2 1.3c1.1 4.5 5.3 19.1 11.2 18.1 4.8-.9 4.7-12.9 4.2-19.7-2.2.5-4.2.3-4.2.3z"/><path id="XMLID_29_" class="st5" d="M397.3 838.4c-2.5 6-3.8 9.3-1.3 14.4.4.8 5.5 1.4 13.6 2l-.8-16.4h-11.5z"/><path id="XMLID_30_" class="st5" d="m408.9 838.4.8 16.4c4.3.3 9.4.5 15.3.8l-.8-17.2h-15.3z"/><path id="XMLID_31_" class="st5" d="m438.2 838.4.8 17.6c5.2.1 10.7.3 16.6.3l-.8-17.8c-5.8-.1-11.2-.1-16.6-.1z"/><path id="XMLID_32_" class="st5" d="M585.8 838.4H454.9l.8 17.8c56 .8 131.6-.3 133.2-2.2.7-.9-.8-7.2-3.1-15.6z"/><path id="XMLID_33_" class="st5" d="m424.2 838.4.8 17.2c4.3.1 9 .3 14 .4l-.8-17.6h-14z"/><path class="st8" d="M253 462.7c.3 12.6-48 58.8-50.1 65.6-2.2 6.8 4.7 14.9 10.6 14.4 6-.4 14-10.2 14-10.2s30.2 34 56 34 39.9-31.5 39.9-48.8c-1.3-25.1-35.7-76.5-60.5-112.2l-29.2 23.1c11 12.9 19.1 24.2 19.3 34.1z"/><path class="st5" d="M213.8 514.6c-6 6.8-10.3 11.8-11 13.9-2.2 6.8 4.7 14.9 10.6 14.4 6-.4 14-10.2 14-10.2s1.7 1.8 4.5 4.6l4.1-4.6-22.2-18.1z"/><path id="XMLID_35_" class="st5" d="M166.5 408v30.7c4.6 1.9 9.6 3.4 14.6 4.5l-2.4-28.7c-4.5-1.6-8.6-3.9-12.2-6.5z"/><path id="XMLID_36_" class="st5" d="M145.1 391.7c-6 3.6-6.8 16-2.9 26.6 1.5 4.2 5.2 8.4 10.2 12.4l2-33.5c-4.1-4.1-7-6.8-9.3-5.5z"/><path id="XMLID_37_" class="st5" d="m154.4 397.1-2 33.5c3.9 3.1 8.8 5.7 14 8v-30.7c-4.8-3.5-8.8-7.6-12-10.8z"/><path id="XMLID_38_" class="st5" d="M184.6 415.7c-2-.3-3.9-.8-5.9-1.4l2.4 28.7c.8.1 1.7.3 2.4.4 4.7.8 11 1.1 17.7 1.5l-2.9-27.6c-4.5-.3-9.2-.8-13.7-1.6z"/><path id="XMLID_39_" class="st5" d="m198.4 417.5 2.9 27.6c6 .4 12.5.6 18.9.9l-4.7-27c-5.4-.5-11.3-.8-17.1-1.5z"/><path id="XMLID_40_" class="st5" d="M234.3 446.4c4.8.3 9.4.5 13.4.8-3.9-6.9-10.1-14.3-16.9-22.2l3.5 21.4z"/><path id="XMLID_41_" class="st5" d="M225.9 419.4c-3.1-.1-6.6-.3-10.4-.5l4.7 27c4.8.1 9.7.4 14.3.5l-3.6-21.4c-1.7-1.7-3.4-3.7-5-5.6z"/><path id="XMLID_34_" class="st5" d="m251.6 508.2 13.4 20c3.6-2.9 7.3-5.9 11-8.5L264 497c-4.4 3.7-8.6 7.5-12.4 11.2z"/><path id="XMLID_42_" class="st5" d="m264 497 12 22.7c4.6-3.4 9.2-6.6 13.8-9.4l-12-24.5c-4.8 3.4-9.4 7.3-13.8 11.2z"/><path id="XMLID_43_" class="st5" d="m277.6 485.7 12 24.5c4.5-2.7 8.8-5.1 12.9-6.8l-3.4-31.6c-6.9 3.5-14.3 8.4-21.5 13.9z"/><path id="XMLID_44_" class="st5" d="m299 471.9 3.4 31.6c5.1-2.2 9.8-3.3 13.8-3.1.3 0 .4 0 .6.1l2.3-33.6c-5.6-.9-12.6 1.2-20.1 5z"/><path id="XMLID_45_" class="st5" d="M227.5 532.7s6.2 7.1 15.5 14.8c2.5-2.4 5.7-5.3 9.4-8.7l-14.1-17.7c-6.7 6.9-10.8 11.6-10.8 11.6z"/><path id="XMLID_46_" class="st5" d="m238.4 521.2 14.1 17.7c3.7-3.3 7.9-7 12.4-10.6l-13.4-20c-5 4.6-9.4 9.1-13.1 12.9z"/><path id="XMLID_47_" class="st5" d="M416.8 550.9c-1.8-3.7-7-5.9-14.8-9.8l-8.4 27.5c6.5 1.5 12.1 1.7 15.2.5 6-2 11.1-11.9 8-18.2z"/><path id="XMLID_48_" class="st5" d="M382.7 529.2c-2-1.5-4.2-3.6-6.2-5.7l-15 23.7c3.8 4.5 7.9 8.7 12.6 12.2 1 .8 1.9 1.4 2.9 2l14-26.5c-2.6-1.6-5.4-3.5-8.3-5.7z"/><path id="XMLID_49_" class="st5" d="M364.8 508.5 350.7 533c3.3 4.8 6.9 9.7 10.7 14.1l15-23.7c-3.8-4.1-7.6-9.3-11.6-14.9z"/><path id="XMLID_50_" class="st5" d="M320.5 467.1c-.4-.1-.9-.1-1.3-.3l-2.3 33.6c5.3.5 10.2 3.3 14.5 7.4l5.9-32.4c-5.2-4-10.7-7.1-16.8-8.3z"/><path id="XMLID_51_" class="st5" d="m390.9 534.8-14 26.5c5.5 3.6 11.3 5.9 16.7 7.1l8.4-27.5c-3.2-1.5-7-3.4-11.1-6.1z"/><path id="XMLID_52_" class="st5" d="m337.2 475.5-5.9 32.4c3.3 3.1 6.5 7 9.7 11.3l11.8-27c-4.6-6.3-9.9-12.1-15.6-16.7z"/><path id="XMLID_53_" class="st5" d="m353 492.2-11.8 27c3.2 4.3 6.4 9 9.7 13.8l14.1-24.5c-4-5.3-7.8-11-12-16.3z"/><path d="M519.2 789.6s-12.2-94.8-10.1-109c2.3-14.3 44.9-86.4 44.9-86.4s56.4-10.6 56.4 0-56.3 79.7-58.7 91.2 4.3 67.8 7.5 104.2h-40z"/><path id="XMLID_54_" class="st7" d="M460.6 814.9c-17.2 1.9-36.2 16.3-44.5 23.3h114l-2-24.6s-44.6-1.2-67.5 1.3z"/><path id="XMLID_55_" class="st5" d="M647 600.2c-8.5-19.4-29.7 0-29.7 0s-5 76.8-7.6 136l49.5-1.7c-2.4-54-7-122.7-12.2-134.3z"/><path id="XMLID_56_" class="st4" d="M609.6 736.2c-1.7 36.3-2.5 65.9-.9 67.1 4.2 3.2 49.7 4.5 51.8-1.4.9-2.4.3-31.6-1.4-67.3l-49.5 1.6z"/><path class="st1" d="M703 325.8c19.1-12.5 49.3-22.3 58.2-23.4 8.9-1.1 8.9 13.6 8.9 13.6s-47.5 20-56 29.3"/><path class="st5" d="M761.2 302.4c-2.9.4-8.2 1.7-14.5 3.7l7.5 16.9c9-4.1 15.9-7 15.9-7s0-14.8-8.9-13.6zM809.1 300c-3.7.9-9.9 3.3-16.6 6.1l14.5 51.1c7.5-2.2 13.1-3.6 15.2-4.1 8.2-2.2-3.3-55.6-13.1-53.1z"/><path class="st1" d="m770.1 330 47.9-18.6M774.3 341.1l48.3-15.7M778.2 353.1l46.6-14.2"/><path id="XMLID_57_" d="M676.4 399.3c-7.6 16-35.5 73.7-48.1 78.5-14.6 5.3-85.7-44.1-109.5-52.1-23.8-8-23.6 28-23.6 28s109.3 74.1 137.4 72.6c25.2-1.4 65.3-99.7 73.2-119.6l-29.4-7.4z"/><path class="st1" d="M546 223.7c2.8 6.2 11.1 7.9 16.8 2.7 5.7-5.2-3.6-11.6-3.6-11.6M509.1 148.8c5.7 9.8 19.7 2.5 14.6-6.4M324.6 94.1l23.7 22.4M311.9 106l24.5 19.1M306 120.7l23.3 15.3M393.5 66l14.4 20.4M405.3 49.3l10.2 28.6M423.4 43.6l2.3 31.2M439.5 47.9l-1.8 26.9M365.6 138.5l25 41.9M384.6 134.1l18.7 38.9M400.9 129.7l18.5 36.9M414 120.7l16.8 37.7M424.6 110.2l16.9 42.1M439.5 103.4l13.4 42.1"/><path id="XMLID_58_" class="st2" d="m238.7 304.2 59.6-93.1c-15.8-11.3-29.4-20-32.7-18.9-7 2.5-47.6 74.4-64.7 105 3.4-2.2 6.6-3.4 9.6-3.4 7.1-.2 15.8 4.1 28.2 10.4z"/><path id="XMLID_59_" class="st4" d="m278.4 321.6 53.8-85.2c-10.6-8.3-22.7-17.4-33.8-25.5L238.8 304c10.3 5.1 23 11.5 39.6 17.6z"/><path id="XMLID_60_" class="st2" d="m642.9 307.6-55.2 3.9c1.9 2 2.9 4.1 2.9 6.6 0 2-.6 4.1-1.7 6.1l53.4-.9.6-15.7z"/><circle class="st5" cx="651" cy="316.1" r="13.8"/><circle class="st5" cx="651" cy="316.1" r="5.1"/><path class="st6" d="M411.7 303.5s3.2-69.4-2.5-91.1-18.1-30.6-33.1-21-23.2 29.3-29.3 36.3c3.6-9.6-8.3-28-25.5-25.5s-26.7 18.5-26.7 33.8 12.1 32.5 31.2 32.5c31.2 0 58-43.9 66.2-42.7 8.3 1.3 7.6 70.7 7.6 70.7l12.1 7z"/><path class="st1" d="M346.8 227.7c-1.8 7.6-6.4 9-12.4 7.3-6-1.8-5.5-6.8-11.1-7.3s-12.7 5.7-11.5 14.1c1.2 8.4 12.2 12.1 25.2 8.3 14.3-4.2 37.6-38.1 49.9-41.1 12.4-2.9 22.4 4.2 23.6 14"/><path class="st8" d="M412.6 326.5s10.7-11.7 3.7-23.9c-7.1-12.4-16.3-14.4-26.6-11.1s-18.3 15.4-18.1 29.3c.3 14 10.8 20.4 10.8 20.4s-11.1 6.9-15.3 21.9-.9 34.1 17.8 37.3c27.6 3.2 25.5-15.9 25.5-15.9s-.3-21.4 7.1-21.4 7.1-27.8 3.8-31.5-8.7-5.1-8.7-5.1z"/><path class="st2" d="M391.3 364.3c-7.3 3.1-8 16.2-2.5 20.1s28.1 2.8 32.4 1.4 3.6-22.8 0-22.8-22.6-1.8-29.9 1.3z"/><path class="st1" d="M412.6 326.5c-6.9 6.8-17.4-.9-18.1-8.7-.6-7.8 5.5-14 10.8-9.8"/><path class="st8" d="M425.5 252.2c23.2-14.4 61.9-37.1 71.1-32.6 13.2 6.4 29.9 34.4 50.8 59.2 20.9 24.8 43.3 28 43.3 39.5s-19.1 22.9-28 22.9c-8.9 0-16.6-3.2-15.9-10.8.6-7.6 14.6-11.5 14.6-11.5"/><path id="XMLID_61_" class="st6" d="m429.5 395.6 58.8-107.5-59.9-37.8c-4.2 2.7-8.2 5.1-11.3 7.1l56.8 35-53 93.6c2.7 3.5 5.5 6.7 8.6 9.6z"/><path id="XMLID_62_" class="st6" d="M442.4 241.9c-4.8 2.8-9.6 5.7-13.8 8.3l59.9 37.8-58.8 107.5c3.3 3.1 7.1 5.7 11.1 8.2l65.3-120-63.7-41.8z"/><path id="XMLID_64_" class="st5" d="M512.2 286.3c0-13.4-10.8-24.2-24.2-24.2-2 0-3.9.3-5.9.8l10.7 47.1c11.1-2.1 19.4-12 19.4-23.7z"/><path id="XMLID_65_" class="st4" d="M463.8 286.3c0 13.4 10.8 24.2 24.2 24.2 1.7 0 3.3-.1 4.8-.5l-10.7-47.1c-10.5 2.7-18.3 12.2-18.3 23.4z"/><circle class="st1" cx="488" cy="286.3" r="24.2"/><circle class="st5" cx="488" cy="286.3" r="7.3"/><path id="XMLID_66_" class="st2" d="M546.7 330.3c.1-1.9 1.1-3.4 2.4-4.8h-57.6l1.7 15.7 56.9-3.2c-2.2-1.7-3.6-4.3-3.4-7.7z"/><circle class="st5" cx="484.2" cy="334.6" r="13.8"/><circle class="st5" cx="484.2" cy="334.6" r="5.1"/><path id="XMLID_63_" class="st3" d="M330.6 268.2c-1.5.3-3.2.4-4.8.4-4.5 0-8.7-1-12.4-2.7l-35.2 55.8c4.6 1.7 9.4 3.4 14.5 5.1 7.3 2.3 14.3 4.5 21 6.6 0-7.9.3-18.6 1.7-22.8 2.3-6.8 6.1-10.6 14-7-1.6-10.4 0-26.7 1.2-35.4z"/><path class="st6" d="M412.6 259.8c3.4-1.9 5.9-3.3 4.7-2.5"/><path class="st5" d="M374.8 400.7s-34.8-6.5-48 5.9c8 12.7 19.1 20.9 19.1 20.9l35.7-11-6.8-15.8zM378.2 435s-13.1 39.1-9.6 64.1c28.3-14.9 43.9-43.3 43.9-43.3L378.2 435zM452.5 471s31.7 21.7 55.9 11.1c0-21.3-38.1-35.3-38.1-35.3l-22.9-.9 5.1 25.1z"/><g id="XMLID_67_"><path id="XMLID_68_" class="st5" d="M483.4 432.8s40 9.9 54-5.3c-4.5-9.9-15.8-16.8-25.5-21-4.5 2.5-7 7.4-21.9 8.4l-6.6 17.9z"/></g><path class="st5" d="M386.5 445.4s-11.7 23.6-45.6 29.9c2.9-25.1 31-47.9 31-47.9s-26.5 17.7-48.4 16.9c8-25.9 48.4-34 48.4-34l14.6 35.1zM439 475.3s8.5 28.9 45.2 26.4c-3.4-22.9-32.9-48-32.9-48l-14.1 3.7 1.8 17.9z"/><path class="st5" d="M416 459.2s4.1 42.9 25.9 53.1c14-24.6 3.4-55.7 3.4-55.7l-29.3 2.6z"/><path class="st5" d="M400.2 452.4s-2 42.4 7.8 59.5c17.8-12.7 20-56.4 20-56.4l-27.8-3.1zM470.3 452.4s40.9 19.1 60.8-1.7c-14.8-19.5-44.1-23.3-44.1-23.3l-16.7 25z"/><path id="XMLID_69_" class="st4" d="M461.9 412.3c-1.7 5.1-4.6 10.4-10.2 13-12.1 5.5-39.9 0-45.7-11.1-2.7-5.2-4.1-10.7-4.7-15.2-3.7 1.5-8.9 2.3-16.3 1.4-5.7-1-10.1-3.4-13.1-6.9-3.2 10.3-5.9 26.7 1.1 42.3 16.2 32.2 74.6 32.2 99.7 16.9 16.8-10.3 19.5-27.8 19.5-38.2-2.4.3-5.2.4-8.5.4-7.2.1-14.7-.8-21.8-2.6z"/><path id="XMLID_70_" class="st2" d="M421.1 385.8c-1.5.5-5.9 1-10.7 1.3-.4 3.3-2 9-9.2 12 .6 4.5 1.9 10.1 4.7 15.2 5.9 11.1 33.6 16.6 45.7 11.1 5.6-2.5 8.5-7.9 10.2-13-16.3-4.3-31.6-13.1-40.7-26.6z"/><path id="XMLID_71_" class="st5" d="M647 564.6c-2.8-6.8-6.2-12.1-10.7-13.6-13.1-4.6-32.1 4.2-34.4 15.5-.6 2.9-.1 6.9.9 11 19.6-12.4 35-13.8 44.2-12.9z"/><path id="XMLID_72_" class="st5" d="M605.7 586.3c3.8 9.4 9.2 18.2 11.6 19.9 4.3 2.9 33.9 6 36-2.5 1-3.9.3-14.5-2.2-25.2-9-2-25-2.5-45.4 7.8z"/><path id="XMLID_73_" class="st5" d="M651.2 578.3c-1-4.7-2.4-9.6-4.2-13.8-9.2-.8-24.6.6-44.1 13 .8 2.8 1.8 5.7 2.9 8.7 20.3-10.2 36.3-9.7 45.4-7.9z"/><path class="st5" d="M590.5 535.2c-9.8 0-112.1 42-116.8 49.7-4.7 7.6-1.7 19.1 7.6 18.2-6.4 1.7-7.3 21.7 8.9 15.7 9.8-3.6 50.3-12 82.4-15.8 21-2.5 38.5-.1 41.1-3.3 6.8-8 3.8-32.7-10.2-36.9 3.1-10.3-3.3-27.6-13-27.6z"/><path class="st1" d="M481.4 603.1s101.9-40.4 122.3-40.4"/><path id="XMLID_75_" class="st5" d="M573 701c-1.1-11.6-3.4-22.7-6.2-23.7-6-2.2-98.5 11-101 15.3-1.3 2-.3 14.5 1.8 26.9 11.5-3.4 32-9.3 52-14.1 21.1-5 42.5-4.9 53.4-4.4z"/><path id="XMLID_76_" class="st5" d="M519.5 705.4c-20.1 4.7-40.5 10.7-52 14.1 2 12.9 5.3 25.6 8.3 26.5 5.7 1.8 39.7-10.3 55.4-14.4 15.7-4.1 35.3-.8 40.4-2.4 2.7-.9 2.9-14.9 1.5-28.1-11-.6-32.4-.7-53.6 4.3z"/><path class="st5" d="M510.2 685.5c-.8 6.1 6.6 48.8 10.2 52.5 3.6 3.7 20 3.2 20-3.9 0-7.3-10.3-50.1-12.7-53.1-2.4-3.1-16.8-1.6-17.5 4.5z"/><path id="XMLID_77_" class="st5" d="M573.2 798.7h-52.6v39.6h65.2c-3.5-12.6-9.3-29.6-12.6-39.6z"/><path class="st4" d="M528.1 786.5s-48.3-13.1-52.5-10.2c-4.1 2.9-4.5 19.7-1.9 23.3 2.5 3.6 54.4 4.8 54.4 4.8v-17.9z"/><path class="st4" d="M521.9 785.6c-4.8 3.9-4.7 13.9 0 18.9s50.9 7.9 55.4 6.2 7.8-15.9 3.1-20.1c-4.8-4.1-53.7-8.8-58.5-5z"/><path id="XMLID_74_" d="M508.5 482.1c-10.4 4.6-22.2 3.2-32.4.1 3.9 6.2 7 13 7.9 19.5-17.6 1.3-28.7-4.7-35.4-11.3-.8 6.9-2.5 14-6.1 20.6 13.4 19.6 35.4 51.5 46 64.8 23.3-11.6 68-30.1 90.1-37.4l-55.4-49.7c-5.6-3.8-10.7-7.4-15-10.4.2 1.4.3 2.5.3 3.8z"/><path id="XMLID_78_" class="st5" d="m347.5 749.8-47.9-2.4-7.1 43.3 54.9-1.1c.4-13.8-.9-32.9.1-39.8z"/><path class="st4" d="M296.3 732.1c-7.6 2.5-9.8 16.2-2.5 20 7.3 3.8 45.7 7.6 52.1 5.1s7.8-14 3.9-17.4c-3.8-3.5-45.8-10.2-53.5-7.7z"/></svg>