<svg version="1.1" id="Calque_1" xmlns="http://www.w3.org/2000/svg" x="0" y="0" viewBox="0 0 900 900" style="enable-background:new 0 0 900 900" xml:space="preserve"><style>.st0,.st1,.st2,.st3,.st4{fill:#fff;stroke:#000;stroke-width:4.6377;stroke-linecap:round;stroke-linejoin:round;stroke-miterlimit:10}.st1,.st2,.st3,.st4{fill:red}.st2,.st3,.st4{fill:none}.st3,.st4{fill:#00a804}.st4{fill:#ffce00}</style><g id="XMLID_1_"><path id="XMLID_92_" class="st0" d="m435.5 293.6-8.7 55.8 42.7 54.1 64-16.5 8.5-37.6-3.9-42.8-30.7-47.1-62.5 1.1z"/><path id="XMLID_65_" class="st0" d="M449.7 389.3v81.9S396.8 586.1 394 615c20.4 5.3 57.8 7.4 57.8 7.4-1.1-3.9 26.7-52.3 26.7-52.3s-3.9 12.2-5.3 28.3c20.3 8 56.6 11.3 71.7 12.4 7.1-24.9 15.1-58.7 11.9-98.6-5.4-66.6-6.6-134.3-13.6-151.3"/><g id="XMLID_70_"><path id="XMLID_76_" class="st1" d="M334.8 780.4c-1.2-2-14.4-12.2-10.8-19.3 3.6-7.1 43.1-10 43.1-10s4.2.8 7.4-6.2c3.4-7 1.2-23.2 6.6-25 5.4-1.9 18.4 15.9 18.4 15.9l-2.2 36-31.1 13.6-31.4-5z"/><path id="XMLID_77_" class="st2" d="M324.6 768.1c11.4-6.5 40.3-5.4 51.2-13.6 10.8-8.2 8.2-24.7 8.2-24.7"/><path id="XMLID_75_" class="st1" d="M375.5 768.1c-.8-1.2-9.1-9.1-9.1-14.1s7.6-10.7 12.5-9.6c4.9 1.1 10.7 16.4 10.7 16.4l-14.1 7.3z"/></g><g id="XMLID_89_"><path id="XMLID_79_" class="st1" d="M454.6 814.8c-1.2 0-14.8-15.5-12.8-21.6 2-6.2 35.9-15.8 36.8-24.4.9-8.7-5.1-28.9 5.4-31.7s21.3 10.7 21.3 10.7l5.6 40.3-23.3 19-33 7.7z"/><path id="XMLID_81_" class="st2" d="M445.7 804.4c4.3-7.7 36.2-20.9 40.2-30.9s0-25.7 0-25.7"/></g><path id="XMLID_15_" class="st0" d="M412.9 240.1c0 1.2-2.9 22.6 0 24.4 2.9 1.9 8.2 1.2 14.7 2.3 6.5 1.1 8.2 9.7 8.2 9.7s-15.3-1.2-19.8 0c-4.3 1.2-3.9 6.6-1.5 10 2.3 3.4 7.9 3.4 9.3 7 1.4 3.6-.8 13.1 3.6 15.9s30.9 7.4 40.7 2.8c9.7-4.6 34.3-41.7 34.3-41.7l5.3-30.1-66.6-44.1-12.6 4.7-9.4 35-6.2 4.1z"/><path id="XMLID_10_" class="st3" d="M604.3 194.5s15.9 22.1 36.3 22.1 40.2-5.1 40.2-5.1-22.4 33.9-46.8 30.8c-24.4-2.9-26.3-9.7-26.3-9.7l-34.8 4.9-70.8-26.1 9.7-30.1 19.3-7 39.9 21.6 33.3-1.4z"/><path id="XMLID_14_" class="st0" d="M422.6 247.4s3.6 7 0 7.7c-3.6.7-27.5 2-27.5-3.1s13.1-9.3 19.8-21.6c6.6-12.4 7.7-34.5 7.7-34.5l33.2 15.5"/><path id="XMLID_20_" class="st0" d="M451.5 276s-4.3 13.1 0 16.2c4.3 3.1 31.4 0 31.4 0s6.5-7 6.5-7.4c0-.5-6.6-20.6-6.6-20.6H473s3.9 6.5-.8 10.7c-4.4 4.2-20.7 1.1-20.7 1.1z"/><path id="XMLID_16_" class="st0" d="M430.7 232c-3.1 3.7 3.6 12.1 9 13.9 5.4 1.9 12.5.8 16.2.5 3.7-.5 3.7-7.4 3.7-7.4s-25.8-10.8-28.9-7z"/><path id="XMLID_22_" class="st1" d="m495.3 275.9 26.6 60.6s25.5-13.1 27.8-17.8c2.3-4.6-22-50.2-22-50.2l-32.4 7.4z"/><g id="XMLID_35_"><path id="XMLID_37_" class="st1" d="M293.7 469.7c7.9-12.2 13.1-34.6 16.5-56.1-3.4-.5-6.5-1.9-8.7-3.7-2.9 10.7-9.3 30.6-16.7 43 2.7 5.5 5.7 11.1 8.9 16.8z"/><path id="XMLID_117_" class="st0" d="M313.3 392c2.2-18.4 2.9-32.5 2.9-32.5s-11.6 10-24.9 9-24.9-14.4-24.9-14.4-2.3 14.8.6 37.9h1.5c8.5 0 15.3 4.9 15.3 11 0 5.4-5.6 9.9-12.7 10.8 2.9 12.1 7.3 25.4 13.9 39.3 7.4-12.4 13.8-32.3 16.7-43-2.2-1.9-3.6-4.3-3.6-7 .1-6.2 6.7-11.1 15.2-11.1z"/></g><path id="XMLID_39_" class="st4" d="M322.2 448.8s-14.1-56-5.6-74.5c8.7-18.6 30-10.7 33.4 1.4 4.5 16.2 4.5 44.5 4.5 44.5s10.4 20.6 10.2 20.3c-.2-.2-12.5 17.9-12.5 17.9l-30-9.6z"/><path id="XMLID_41_" class="st4" d="M333.7 445.7s-8.2-51.8-5.1-58.3 7.7-5.9 9.3 0c1.5 5.9 7 63.7 7 63.7l-11.2-5.4z"/><path id="XMLID_67_" class="st2" d="M488.3 491.4c33.2-6.5 57.2-2.5 57.2-2.5"/><path id="XMLID_68_" class="st2" d="M554 501.7c-44.5-2.2-75.4 7.4-75.4 7.4"/><path id="XMLID_78_" class="st1" d="M499.2 782s-16.5-2.3-20.6-5.9c-3.9-3.6-3.7-12.4 4.3-14.4s21.3 6.2 21.3 6.2l-5 14.1z"/><g id="XMLID_61_"><path id="XMLID_87_" d="M528.8 820.3c5.3-2 10.5-4.9 13.3-7.7l-13.3 7.7z" style="fill:none"/><path id="XMLID_88_" class="st2" d="m542.3 812.6 2-1.2-.3-1.2c0 .2-.2.3-.2.5-.4.5-.9 1.1-1.5 1.9z"/><path id="XMLID_93_" class="st0" d="M543.8 810.6c.2-.2.2-.3.2-.5l-7.4-34.8c-17.2 6.2-31.1 1.4-38.6-2.9 0 4-1.5 7.7-4 11.3 4.9.8 10.4 2.5 12.2 6.6 3.4 7.9 2 28.6 8 31.7 2.9 1.5 8.8.3 14.7-1.9l13.3-7.7c.7-.6 1.2-1.2 1.6-1.8z"/><path id="XMLID_94_" class="st0" d="M514.2 822.2c-6.2-3.1-4.6-23.8-8-31.7-1.9-4.2-7.3-6-12.2-6.6-11.1 15.6-41.6 24.9-43.4 28.3-2.3 4.3-1.5 9 2.8 8.5-3.1 2-3.1 9.7 2.8 8.5-5.1 2.8-1.5 10.8 3.6 10.8s53.8-10.5 53.8-10.5l15.9-9.3c-6.5 2.3-12.4 3.4-15.3 2z"/></g><path id="XMLID_84_" class="st2" d="M453.1 820.6c2.3 0 15.5-5.9 15.5-5.9"/><path id="XMLID_85_" class="st2" d="m455.9 829.1 15-4.3"/><path id="XMLID_62_" class="st0" d="M452 622.3s-4.5-.3-11.3-.8c2.2 10.2 5.1 32.6.9 71-6 56-15.9 79.3-15.9 79.3s9.9-23.5 15.9-79.3c4.2-38.3 1.2-60.6-.9-71-3.4-.3-7.4-.6-11.6-1.1-.5 11.1-2 45.3-4.8 78.8-2.6 32.2.5 59.5-7.1 76.5 7.4-17 4.5-44.4 7.1-76.5 2.6-33.5 4.3-67.7 4.8-78.8-4.6-.5-9.7-1.1-14.7-1.7-1.2 12.8-4.2 45-2.2 71 2.5 33.2-2.5 69.6-7.7 82.2 5.3-12.7 10.2-49 7.7-82.2-1.9-26 .9-58.1 2.2-71-4-.6-8-1.2-11.7-1.9-.3 10.4-.9 35.1.3 78.2 1.5 59.2-10.5 74.7-10.5 74.7s12.1-15.5 10.5-74.7c-1.1-43.1-.6-67.9-.3-78.2-3.1-.6-5.9-1.2-8.5-1.9 0 .8-.2 1.4-.2 2-.2 25 3.6 43.3 2.3 71.6-1.2 28.3-3.9 58.7-12.1 69.6-8.2 10.8-52.1 13.6-54.9 17.5s-.8 9.3 3.1 9.7c-4.3 1.5-1.5 8.5 2.3 8.2-1.9-.3-3.9 9.7 4.6 8.2-4.3 2-3.1 8.5 2.3 7.4 5.4-1.2 25 .8 26.6 0s51-9.3 51-9.3l13.8-32s15.5-28.3 21.6-74.2c6.2-46-1.7-67.4-2.6-71.3z"/><g id="XMLID_82_"><path id="XMLID_83_" class="st0" d="M502.4 605.7c-4.3-.8-8.7-1.5-12.7-2.5-.6 32.9 5.9 75.7 6.6 93.7.8 18.7 12.7 49.5 11 79.6 3.4 1.1 7.4 1.7 11.7 1.9-2.8-12.2-9.9-44.7-13.4-78.7-3.5-33-3.3-75.7-3.2-94z"/><path id="XMLID_95_" class="st0" d="M511.1 607.1c-2.9-.5-5.7-.9-8.7-1.4-.2 18.2-.3 60.9 3.2 93.8 3.7 34 10.7 66.5 13.4 78.7 2.8 0 5.6-.2 8.7-.6-3.1-12.1-11.7-47.3-14.8-77.3-3.1-28.4-2.3-74.1-1.8-93.2z"/><path id="XMLID_96_" class="st0" d="M496.4 697c-.8-17.9-7.3-60.8-6.6-93.7-6-1.4-11.6-2.9-16.4-4.8-.5 5.4-.6 11.3-.2 17.3 1.5 23.7 5.4 32.2 9.6 47.1 4.2 15 14.7 86.3 15.1 109v.6c2.5 1.4 5.7 2.9 9.4 4 1.8-30.1-10.2-60.8-10.9-79.5z"/><path id="XMLID_97_" class="st0" d="M526.7 609.1c-4.9-.5-10.2-1.2-15.6-2-.5 19-1.2 64.8 1.9 93.2 3.1 30 11.7 65.2 14.8 77.3 2.5-.5 4.9-1.1 7.4-1.9-2.8-13.1-10.2-52.1-10.2-81.2 0-27.7 1.2-68.8 1.7-85.4z"/><path id="XMLID_98_" class="st0" d="M545.1 610.7c-4.5-.3-11-.8-18.4-1.5-.5 16.7-1.7 57.7-1.7 85.6 0 29.1 7.6 68 10.2 81.2.5-.2.9-.3 1.4-.5 0 0 3.9-19.8 5.4-60.3-.3-28.1-5.9-47.6-5.9-67.2.2-8.1 4.3-20.8 9-37.3z"/></g><g id="XMLID_138_"><path id="XMLID_140_" class="st4" d="M326 50h-60.8s1.5 6 3.9 15.1h53.6C324.6 56 326 50 326 50z"/><path id="XMLID_141_" class="st4" d="M322.6 65h-53.5c.8 3.2 1.7 7 2.6 10.8h48.7c.8-3.8 1.6-7.6 2.2-10.8z"/><path id="XMLID_142_" class="st4" d="M320.3 75.8h-48.5c4.6 19.3 10.2 44.8 11.2 58.8 2 24.4 3.6 44.5 3.6 44.5s-10.2-21.6-13.8-22.4-11-5.4-11 9 22.1 58.1 19 60.4c-3.1 2.3-7.4-8.2-11.3-8.2-3.9 0-9 5.9-7.4 12.7 1.5 6.8 11.3 25.4 15.9 37.9s6.6 118.6 7 122.6c.2 3.9 12.1 2.5 13.9 0 1.9-2.5 6.6-100.9 10.7-122.6 4.1-21.7 7.1-36.3 16.4-60.8 9.3-24.5-2.3-27.1-8.5-23.2-6.2 3.9-13.1 14.4-13.1 14.4s.8-44.5 5.1-68.5c2.1-13.3 6.9-36.5 10.8-54.6z"/></g><g id="XMLID_2_"><path id="XMLID_19_" class="st0" d="M480.6 270.6s-6.2 5.9-10.8 4.3c-4.6-1.5-9.3-12.7 5.1-15.1 14.4-2.4 19 9.7 23.2 19.6 4.2 9.7-3.6 31.5-13.3 34.6-9.7 3.1-18.4 3.1-20.7-7s8.2-13.9 13.6-15.5 2.9-20.9 2.9-20.9z"/><g id="XMLID_130_"><path id="XMLID_9_" class="st3" d="M505.5 189.9c28.3-1.2 21.6 21.6 21.6 21.6h-33.9l-3.4-15.9c.1 0-12.6-4.6 15.7-5.7z"/><path id="XMLID_12_" class="st3" d="M533.8 178.6s26.4 23.5 52.3 23.5 35.4-11.9 48.7-10.7c13.3 1.1 27.8 9.3 27.8 9.3s-2-26.3-33.7-27.7-37.9 12.2-50.7 12.7c-12.8.5-35.1-20.1-44.5-20.1-9.5-.1.1 13 .1 13z"/><path id="XMLID_13_" class="st3" d="M548.9 211.5s20.9 13 31.4 13 17-3.4 31.4 4.6c14.4 8 15.1 17.8 23.2 28.3 8 10.5 27.8 12.5 27.8 12.5s-25.5 7.4-39.1 0c-13.6-7.4-15.9-20.1-20.6-21.3-4.6-1.2-20.1 2.8-32.2-1.2-12.1-4-41.4-23.8-41.4-23.8l19.5-12.1z"/><g id="XMLID_129_"><path id="XMLID_11_" class="st3" d="M517.2 206.1s15.1-5.4 29.8 0 24 21.3 24 21.3-26.6 1.9-37.3-3.7c-10.7-5.6-16.5-4-16.5-4v-13.6z"/><g id="XMLID_128_"><path id="XMLID_6_" class="st3" d="M477.5 210s19.3-11.6 39.9-7c20.6 4.6 15.6 17 15.6 17l-34.9 10.4-20.6-20.4z"/><g id="XMLID_127_"><path id="XMLID_8_" class="st3" d="M497.9 171.4s16.2-15.1 28.6-13.1c12.4 2 29.8 19.3 29.8 19.3s-15.9 9.7-29.8 12.4-22.4-1.5-22.4-1.5l-6.2-17.1z"/><path id="XMLID_17_" class="st3" d="M496.1 221.9s11.3-7.4 22.1-7.4 24 12.4 24 12.4-16.5 7-27.5 5.4c-11.1-1.6-18.6-10.4-18.6-10.4z"/><g id="XMLID_18_"><path id="XMLID_21_" class="st0" d="M485.6 169.8s8.2-5.4 17-1.5c8.8 3.9 11.3 12.8 8.2 24.7-3.1 11.9-28.3 25.2-28.3 25.2l-18.6-10 21.7-38.4z"/><circle id="XMLID_23_" cx="474.7" cy="182.9" r="23.2" style="fill:#008cff;stroke:#000;stroke-width:4.6377;stroke-linecap:round;stroke-linejoin:round;stroke-miterlimit:10"/><g id="XMLID_24_"><path id="XMLID_26_" class="st1" d="M425.7 181.4c-3.6 0-10.5 14.4-4.3 21.3 2.8 3.2 33.5 18.9 66.5 38 38.8 22.7 80.5 49.3 83.5 49.3 5.4 0 18.6-24 12.4-27.1s-150.3-81.5-158.1-81.5z"/><g id="XMLID_27_"><circle id="XMLID_30_" class="st1" cx="510.9" cy="260.6" r="22.9"/><circle id="XMLID_31_" class="st1" cx="513.1" cy="247.4" r="15.9"/></g></g></g></g></g></g></g></g><g id="XMLID_132_"><path id="XMLID_134_" class="st2" d="M439.8 232.3c-.5.8-.6 1.7-.6 2.6 0 3.2 2.6 5.7 5.7 5.7 2.9 0 5.4-2.2 5.7-5.1-3.4-1.1-7.2-2.5-10.8-3.2z"/></g><path id="XMLID_131_" class="st2" d="M430.4 423c8.3 4.8 12.8 37.4 19.3 41"/><g id="XMLID_100_"><path id="XMLID_118_" class="st0" d="M278.1 118.8C273 101.3 292.8 75 297.6 75c4.8 0 23.3 23.7 18.7 43.7s-33.3 17.4-38.2.1z"/><g id="XMLID_116_"><path id="XMLID_119_" class="st2" d="M292 109.8s.8-22.4 5.6-22.4 4 22.4 4 22.4H292z"/><g id="XMLID_5_"><circle id="XMLID_115_" class="st0" cx="297.6" cy="127.8" r="24.6"/><circle id="XMLID_7_" class="st2" cx="299.1" cy="146.9" r="4.3"/><path id="XMLID_121_" class="st2" d="m273 127.8 9.9 5.1"/><path id="XMLID_122_" class="st2" d="m278.1 112.9 10 9.8"/><path id="XMLID_123_" class="st2" d="m292 105.7 2.9 12"/><path id="XMLID_124_" class="st2" d="m310.3 106.9-5.9 13.4"/><path id="XMLID_125_" class="st2" d="m320.9 120.3-9.3 10.1"/><g id="XMLID_32_"><path id="XMLID_139_" class="st2" d="M299.1 135.8c-6.2 0-11.1 4.9-11.1 11.1 0 1.4.3 2.6.8 3.9 2.8 1.1 5.7 1.7 8.8 1.7 4.6 0 9-1.2 12.5-3.6.2-.6.2-1.2.2-2 0-6.2-5-11.1-11.2-11.1z"/></g></g></g></g><g id="XMLID_38_"><path id="XMLID_40_" class="st0" d="M415.4 343.3c-22.3-7.7-66.8-23.3-72.8-27.5-8.2-5.6-17-15.8-28.3-17.6-11.3-1.9-21.3-.8-30.6 1.5s-10 10.8-3.9 11.6c6.2.8 22.3 28.6 28.3 36.3 6 7.7 20.1 2 26.7 3.1s52.1 34.8 71.1 40.2c10.7 3.1 24.6 2.6 34.5 1.7-14.1-16.1-23.7-28.9-24.9-35.4-.7-4.7-.7-9.3-.1-13.9z"/></g><path id="XMLID_48_" class="st2" d="M340.4 327.8c28.8 3.9 64.3 29.4 75.1 29.4"/><path id="XMLID_50_" class="st2" d="M341.9 336.3c2.2 1.5 57.8 33.1 81.3 34.3"/><path id="XMLID_49_" class="st2" d="M338.4 345.1s58.9 32.6 77 36c18.1 3.2 16.5 1.2 16.5 1.2"/><g id="XMLID_3_"><path id="XMLID_34_" class="st0" d="M282 327.8s-6.5 8.2-2.8 13.9c3.7 5.7 25.5 10.8 29.1 5.9s.5-10.8.5-10.8l-26.8-9z"/><path id="XMLID_4_" class="st0" d="M281.2 319s-6.2 9.3-1.5 14.4c4.6 5.1 25.8 7.4 29.1 3.6 3.2-3.9-2.3-10.8-2.3-10.8l-25.3-7.2z"/><path id="XMLID_33_" class="st0" d="M299.3 311.6c9 5.9 10 5.1 12.1 9.7 2 4.6-2.8 6.6-6.2 6.6-3.4 0-22-1.2-25.5-5.4-3.6-4.2.5-11.3.5-11.3s8.3 3.1 19.1.4z"/></g><g id="XMLID_52_"><g id="XMLID_59_"><path id="XMLID_145_" class="st4" d="M351.5 487.3c-3.7-2.9-5.4-6-6.2-8.5-2.6.9-5.1 1.7-7.4 2.3-.5 2.6-1.5 6.5-4.5 10.5 9.8 3.6 15.5-1.2 18.1-4.3z"/><path id="XMLID_148_" class="st4" d="M378.7 496.8c-14.1-1.9-22.4-5.6-27.2-9.4-2.6 3.2-8.3 7.9-18.1 4.5-3.2 4.6-8.8 9.4-18.2 13 30.3.1 52.7-5 63.5-8.1z"/><path id="XMLID_149_" class="st4" d="M299.7 567.6c2.8 3.7 6.2 7.1 10.4 9.7h0c22.9 2.6 73.9-.3 89.7-4.9 1.2-2 2.5-4.3 3.7-6.6-23.4.4-77 1.3-103.8 1.8z"/><g id="XMLID_60_"><path id="XMLID_171_" class="st4" d="m356.5 508.7 7.6-8.2-.2-.2c-3.9.8-8.2 1.5-13.1 2.2l5.7 6.2z"/><path id="XMLID_172_" class="st4" d="M364.2 500.2c-.2 0-.3 0-.5.2l.2.2.3-.4z"/><path id="XMLID_173_" class="st4" d="m371.5 508.7 7.6-8.2-2.8-3.1c-3.2.9-7.3 1.9-11.9 2.8l-.3.3 7.4 8.2z"/><path id="XMLID_174_" class="st4" d="m356.5 541.4 7.4 8.2 7.6-8.2-7.6-8.2z"/><path id="XMLID_175_" class="st4" d="m341.3 508.7-4.3-4.8c-2.2.2-4.5.3-6.8.5l-4 4.3 7.6 8.2 7.5-8.2z"/><path id="XMLID_176_" class="st4" d="m333.7 516.9-7.4-8.2-7.5 8.2 7.5 8.2z"/><path id="XMLID_177_" class="st4" d="m318.8 533.2 7.5-8.1-7.5-8.2-7.6 8.2z"/><path id="XMLID_178_" class="st4" d="m386.6 525.1 7.4-8.2-7.4-8.2-7.6 8.2z"/><path id="XMLID_179_" class="st4" d="m371.5 525.1 7.5 8.1 7.6-8.1-7.6-8.2z"/><path id="XMLID_180_" class="st4" d="m371.5 541.4 7.5 8.2 7.6-8.2-7.6-8.2z"/><path id="XMLID_181_" class="st4" d="m386.6 541.4 7.4-8.2-7.4-8.1-7.6 8.1z"/><path id="XMLID_182_" class="st4" d="m303.6 516.9-7.4 8.2 7.4 8.1 7.6-8.1z"/><path id="XMLID_183_" class="st4" d="m379 516.9 7.6-8.2-7.6-8.2-7.5 8.2z"/><path id="XMLID_184_" class="st4" d="m371.5 525.1-7.6 8.1 7.6 8.2 7.5-8.2z"/><path id="XMLID_185_" class="st4" d="m318.8 516.9-7.6-8.2-7.6 8.2 7.6 8.2z"/><path id="XMLID_186_" class="st4" d="m371.5 508.7-7.6-8.2-7.4 8.2 7.4 8.2z"/><path id="XMLID_187_" class="st4" d="m341.3 525.1 7.6 8.1 7.6-8.1-7.6-8.2z"/><path id="XMLID_188_" class="st4" d="m337 503.9 4.3 4.8 5.3-5.7c-3.1.4-6.2.7-9.6.9z"/><path id="XMLID_189_" class="st4" d="m311.2 541.4 7.6 8.2 7.5-8.2-7.5-8.2z"/><path id="XMLID_190_" class="st4" d="m371.5 525.1 7.5-8.2-7.5-8.2-7.6 8.2z"/><path id="XMLID_191_" class="st4" d="m356.5 525.1 7.4 8.1 7.6-8.1-7.6-8.2z"/><path id="XMLID_192_" class="st4" d="M409.2 517c0-.1 0-.1 0 0h0z"/><path id="XMLID_193_" class="st4" d="m322.6 504.6 3.7 4 4-4.3c-2.6.2-5.1.3-7.7.3z"/><path id="XMLID_194_" class="st4" d="m401.6 508.7-7.6-8.2-7.4 8.2 7.4 8.2z"/><path id="XMLID_195_" class="st4" d="M382.1 497.1c-1.2-.2-2.3-.3-3.4-.3-.8.2-1.7.5-2.6.8l2.8 3.1 3.2-3.6z"/><path id="XMLID_196_" class="st4" d="m356.5 525.1-7.6 8.1 7.6 8.2 7.4-8.2z"/><path id="XMLID_197_" class="st4" d="m326.3 525.1-7.5 8.1 7.5 8.2 7.4-8.2z"/><path id="XMLID_198_" class="st4" d="m326.3 541.4 7.4 8.2 7.6-8.2-7.6-8.2z"/><path id="XMLID_199_" class="st4" d="m318.8 533.2-7.6-8.1-7.6 8.1 7.6 8.2z"/><path id="XMLID_200_" class="st4" d="m341.3 525.1-7.6 8.1 7.6 8.2 7.6-8.2z"/><path id="XMLID_201_" class="st4" d="m341.3 525.1-7.6-8.2-7.4 8.2 7.4 8.1z"/><path id="XMLID_202_" class="st4" d="m356.5 525.1 7.4-8.2-7.4-8.2-7.6 8.2z"/><path id="XMLID_203_" class="st4" d="m356.5 508.7-5.7-6.2c-1.4.2-2.8.3-4.2.5l-5.3 5.7 7.6 8.2 7.6-8.2z"/><path id="XMLID_204_" class="st4" d="m348.9 516.9-7.6-8.2-7.6 8.2 7.6 8.2z"/><path id="XMLID_205_" class="st4" d="m341.3 541.4 7.6 8.2 7.6-8.2-7.6-8.2z"/><path id="XMLID_206_" class="st4" d="M317.7 567.3h1.7l-.9-.9-.8.9z"/><path id="XMLID_207_" class="st4" d="m326.3 557.8-7.7 8.3.9.9c4.3 0 9-.2 13.6-.3l.8-.9-7.6-8z"/><path id="XMLID_208_" class="st4" d="m311 558.1-8.7 9.4c4.5-.2 9.7-.2 15.3-.3l.9-.9-7.5-8.2z"/><path id="XMLID_209_" class="st4" d="m341.3 557.8-7.6 8.2.8.9c4.5-.2 9.1-.2 13.8-.3l.6-.6-7.6-8.2z"/><path id="XMLID_210_" class="st4" d="M333 566.9h1.7l-.8-.9-.9.9z"/><path id="XMLID_211_" class="st4" d="M295.9 541.7 291 547c.9 4.2 2.2 8.3 3.9 12.2l8.5-9.3-7.5-8.2z"/><path id="XMLID_212_" class="st4" d="M303.6 533.2 296 525l-7.3 7.9c0 .3 0 .8.2 1.1l7 7.6 7.7-8.4z"/><path id="XMLID_213_" class="st4" d="m303.4 549.9-8.5 9.3c1.2 2.9 2.8 5.9 4.8 8.3h2.6l8.7-9.4-7.6-8.2z"/><path id="XMLID_214_" class="st4" d="M287.4 515.5c.5 5.4.9 11.4 1.5 17.5l7.3-7.9-8.8-9.6z"/><path id="XMLID_215_" class="st4" d="M348.3 566.8h1.1l-.6-.6-.5.6z"/><path id="XMLID_216_" class="st4" d="M288.9 534.2c.5 4.3 1.1 8.7 2.2 12.8l4.9-5.3-7.1-7.5z"/><path id="XMLID_217_" class="st4" d="M378.9 566.2c.1 0 .1 0 0 0h0z"/><path id="XMLID_218_" class="st4" d="m401.6 541.4 8.2 8.8c1.4-4.6 2.3-9.3 2.3-13.8l-2.9-3.2-7.6 8.2z"/><path id="XMLID_219_" class="st4" d="m394 549.6 11.3 12.2c1.7-3.7 3.2-7.6 4.5-11.6l-8.2-8.8-7.6 8.2z"/><path id="XMLID_220_" class="st4" d="m356.5 557.8-7.6 8.2.6.6c4.8-.2 9.6-.2 14.2-.3l.3-.3-7.5-8.2z"/><path id="XMLID_221_" class="st4" d="m409.2 516.9-7.6 8.2 7.6 8.2 2.6-2.8c-.8-5.1-1.7-9.6-2.6-13.6h0z"/><path id="XMLID_222_" class="st4" d="m386.6 557.8 7.4 8c3.6 0 6.8-.2 9.6-.2.6-1.2 1.2-2.5 1.9-3.9l-11.3-12.2-7.6 8.3z"/><path id="XMLID_223_" class="st4" d="M412.1 536.5c0-2 0-3.9-.3-5.9v-.3l-2.6 2.8 2.9 3.4z"/><path id="XMLID_224_" class="st4" d="m371.5 557.8-7.6 8.2.3.3c5.1-.2 10-.2 14.7-.3v-.2l-7.4-8z"/><path id="XMLID_225_" class="st4" d="M363.6 566.5h.6l-.3-.3-.3.3z"/><path id="XMLID_226_" class="st4" d="M379 566h0c5.4 0 10.4-.2 14.8-.2l-7.4-8-7.4 8.2z"/><path id="XMLID_227_" class="st4" d="m303.6 516.9-7.1-7.7c-3.1.5-6.3.6-9.9.9.2 1.7.5 3.6.6 5.4l8.8 9.6 7.6-8.2z"/><path id="XMLID_228_" class="st4" d="M314.6 505c-1.7.6-3.4 1.2-5.3 1.7l1.9 2 3.4-3.7z"/><path id="XMLID_229_" class="st4" d="m356.5 557.8 7.4 8.2 7.6-8.2-7.6-8.2z"/><path id="XMLID_230_" class="st4" d="m356.5 541.4-7.6 8.2 7.6 8.2 7.4-8.2z"/><path id="XMLID_231_" class="st4" d="m371.5 557.8 7.5 8.2 7.6-8.2-7.6-8.2z"/><path id="XMLID_232_" class="st4" d="m371.5 541.4-7.6 8.2 7.6 8.2 7.5-8.2z"/><path id="XMLID_233_" class="st4" d="m341.3 557.8 7.6 8.2 7.6-8.2-7.6-8.2z"/><path id="XMLID_234_" class="st4" d="m326.3 541.4-7.5 8.2 7.5 8.2 7.4-8.2z"/><path id="XMLID_235_" class="st4" d="m341.3 541.4-7.6 8.2 7.6 8.2 7.6-8.2z"/><path id="XMLID_236_" class="st4" d="m311.2 541.4-7.8 8.5 7.6 8.2 7.8-8.5z"/><path id="XMLID_237_" class="st4" d="m311 558.1 7.6 8.2 7.7-8.5-7.5-8.2z"/><path id="XMLID_238_" class="st4" d="m379 549.6 7.6 8.2 7.4-8.2-7.4-8.2z"/><path id="XMLID_239_" class="st4" d="m326.3 557.8 7.4 8.2 7.6-8.2-7.6-8.2z"/><path id="XMLID_240_" class="st4" d="m303.6 533.2-7.7 8.5 7.5 8.2 7.8-8.5z"/><path id="XMLID_241_" class="st4" d="M396.7 497.8c-1.7 0-3.4 0-5.1-.2l2.6 2.8 2.5-2.6z"/><path id="XMLID_242_" class="st4" d="m379 500.5 7.6 8.2 7.6-8.2-2.6-2.8c-3.4-.2-6.5-.3-9.3-.6l-3.3 3.4z"/><path id="XMLID_243_" class="st4" d="m318.8 516.9 7.6-8.2-3.7-4c-2.3 0-4.8.2-7.3 0-.3.2-.5.2-.8.3l-3.4 3.7 7.6 8.2z"/><path id="XMLID_244_" class="st4" d="m311.2 508.7-1.9-2c-3.7 1.1-8 1.9-12.8 2.5l7.1 7.7 7.6-8.2z"/><path id="XMLID_245_" class="st4" d="m401.6 508.7 4.3-4.6c-.6-2.2-1.1-4.3-1.4-6.3-2.8.2-5.4.2-8 .2l-2.5 2.8 7.6 7.9z"/><path id="XMLID_246_" class="st4" d="m401.6 541.4 7.6-8.2-7.6-8.1-7.6 8.1z"/><path id="XMLID_247_" class="st4" d="m386.6 525.1 7.4 8.1 7.6-8.1-7.6-8.2z"/><path id="XMLID_248_" class="st4" d="m386.6 541.4 7.4 8.2 7.6-8.2-7.6-8.2z"/><path id="XMLID_249_" class="st4" d="m394 516.9 7.6 8.2 7.6-8.2-7.6-8.2z"/><path id="XMLID_250_" class="st4" d="M409.2 516.9h0c-1.1-4.9-2.3-9.1-3.2-12.8l-4.3 4.6 7.5 8.2z"/></g></g><path id="XMLID_150_" class="st4" d="M338.1 481.1c-2.8.8-5.1 1.2-6.6 1.2-1.7 0-3.4-.6-4.6-1.4-10.6 17.4-42.9 18.2-42.9 18.2 1.4 2.8 2.3 6.5 2.9 11 42.1-2.1 49.8-21.1 51.2-29z"/><path id="XMLID_151_" class="st4" d="M404.6 497.7c-.3-1.7-.5-3.6-.6-5.3-.2-2.2.9-4 2.6-5.6-6.5.6-18.4 1.4-30.1-1.1-10.4-2-16.5-7.4-19.6-11.4-3.7 1.5-7.7 3.1-11.4 4.3 2.2 7.3 12.5 20.5 59.1 19.1z"/></g><g id="XMLID_69_"><path id="XMLID_53_" class="st1" d="M248.3 502.2c-4 13.3 1.5 46.1-29.1 94.8 39.4-9.7 46.2-36.3 46.2-36.3s7.9 31.4 44.5 16.9c-28.3-17.6-18.4-63.2-26.3-78.4-7.9-15.2-31.3-10.3-35.3 3z"/><path id="XMLID_55_" class="st2" d="M264.6 505.6s4.6 41 .9 54.9"/><path id="XMLID_56_" class="st1" d="M316.3 601.4c5.7-4.6 21-26.7 22-43.3.9-16.5-4.6-30.8-1.1-41.7 3.6-10.8 23-11.3 27.5-2.3s4.2 23 7.6 43.7 16.2 32.2 27.2 37.1c-29.5 6.8-43.9-24.7-43.9-24.7s-12.7 34.3-39.3 31.2z"/><path id="XMLID_57_" class="st2" d="M349.5 519.5s9.3 39.9 6.2 50.7"/><path id="XMLID_63_" class="st1" d="M392.5 583.3c7.1-9 22.3-33.7 19.5-52.6-2.8-18.9-7.4-28.3-7.9-38.3s23.7-14.4 34.5-3.6 7.4 23.3 12.1 39.9c4.6 16.5 16.7 29.4 28.3 41.4-38.3 5.4-50.2-21.3-50.2-21.3s-8.6 26.8-36.3 34.5z"/><path id="XMLID_64_" class="st2" d="M423.4 492.9s10 35.9 5.1 56"/><g id="XMLID_66_"><path id="XMLID_51_" class="st1" d="M236.4 520.7c-5.9 4-2.3 12.4 1.5 13.1 3.9.8 53.6-2.8 56.3-3.9 2.5-1.2 4.6-11.3 0-12.8-4.8-1.5-52.1-.5-57.8 3.6z"/><path id="XMLID_54_" class="st1" d="M328.6 531.5c-2.3 2-2 11.7 2.3 11.7s42.5-4.3 46.4-5.1c3.9-.9 1.5-13-3.1-13s-43.2 4.4-45.6 6.4z"/><path id="XMLID_58_" class="st1" d="M401.9 507.9c-2 3.6-.2 7.6 4.5 8.7 4.5 1.1 45.3-2.5 47.9-4.3 2.8-1.9.5-10.5-3.9-10.5s-46.6 2.5-48.5 6.1z"/></g></g><g id="XMLID_135_"><path id="XMLID_137_" class="st0" d="M549.7 318.5c-1.4 2.8-11.4 8.8-19 13 1.2 13.4-1.1 36.5-19.9 68.2-31.8 53.8-64.5 94-66.2 98.6-1.7 4.6 20.4 38.3 24.9 36.8s48.9-58.4 69.4-121.4 10.8-95.2 10.8-95.2z"/></g><g id="XMLID_120_"><g id="XMLID_133_"><path id="XMLID_136_" class="st0" d="M446.3 344c-4-9.1-3.4-22.7-2.5-30.9-6.6-.8-12.7-2.2-15.5-3.4-6.3 10.2-15.9 29.4-12.7 47.5 4.9 26.3 153.8 164.9 159.7 164.9 5.9 0 35.2-25.5 37.6-33.2-16.8-8.8-160.7-131-166.6-144.9z"/></g><g id="XMLID_42_"><path id="XMLID_43_" class="st0" d="M507.4 368.5c-8.2 5.1-21.8 88.1-54 95.8-24.7 5.4-75.7.8-83.9 4.6-8.2 3.9-30.9 13.6-38.2 13.6s-12.4-9.7-8.2-11.6c-4.6 0-7-6.2-3.1-8.2-5.4-.5-3.9-8.5-.8-9.7-4.3-.8-4.6-11 2.3-11 6.9 0 29.7 6.3 32.5 1.4 2.8-4.9.5-23.2.5-23.2s11.6 10.8 21.3 12.4c9.7 1.6 49.9-5.4 54.6-9.4 4.6-4 7.7-42.7 38.6-73.6"/><path id="XMLID_44_" class="st2" d="M319.4 453c12.8 2.3 37.9-2 37.9-2"/><path id="XMLID_45_" class="st2" d="M320.1 462.8c12.9 2.3 40.5-5.8 40.5-5.8"/><path id="XMLID_46_" class="st2" d="M323.2 470.8c12.8 2.3 37.4-6.8 37.4-6.8"/><path id="XMLID_47_" class="st2" d="m369.3 460.1 60.6-6.3"/><path id="XMLID_71_" class="st2" d="m373.2 451.2 53.6-7.6"/><path id="XMLID_72_" class="st2" d="m380.4 440.5 43-7.7"/></g></g><g id="XMLID_86_"><path id="XMLID_80_" class="st0" d="M457.7 840c-5.1 3.9-2.6 10 3.7 10 6.3 0 81-21.6 83.3-27.1 2.3-5.4 3.2-12.4-.9-12.4s-81 25.6-86.1 29.5z"/></g><g id="XMLID_91_"><path id="XMLID_99_" class="st0" d="M433 767.3s-29.1 3.1-35.6-.5c-3.9-2-8.7-6.6-12.2-10.4-.3.5-.6.9-.9 1.4-1.4 2-4.2 3.7-7.4 5.1 20.7 9.4 19.5 37.7 19.5 37.7l27.5 3.6s1.9-2.8 7.7-7.7c5.9-4.9 1.4-29.2 1.4-29.2z"/></g><path id="XMLID_36_" class="st0" d="M344 817.5c-2.9-.8-4-4.6-2.2-9s88.1-14.4 89.7-12.1c1.5 2.3 3.4 11.6 0 12.1-3.5.5-84.6 9.8-87.5 9z"/><g id="XMLID_73_"><path id="XMLID_74_" class="st2" d="m339.5 801.3 14.7-2.8"/><path id="XMLID_90_" class="st2" d="m350 790.8-15.2 2.3"/><path id="XMLID_101_" class="st2" d="M332.5 785.1 350 782"/></g></g></svg>