<svg version="1.1" id="Calque_1" xmlns="http://www.w3.org/2000/svg" x="0" y="0" viewBox="0 0 900 900" style="enable-background:new 0 0 900 900" xml:space="preserve"><style>.st1,.st2{stroke-width:4.4362;stroke-linecap:round;stroke-linejoin:round}.st1{fill:#fff;stroke:#000;stroke-miterlimit:10}.st2{fill:#7a3400}.st2,.st3,.st4{stroke:#000;stroke-miterlimit:10}.st3{fill:red;stroke-width:4.4362;stroke-linecap:round;stroke-linejoin:round}.st4{fill:none}.st4,.st5,.st6{stroke-width:4.4362;stroke-linecap:round;stroke-linejoin:round}.st5{fill:#005400;stroke:#000;stroke-miterlimit:10}.st6{fill:#ffce00}.st6,.st7,.st8{stroke:#000;stroke-miterlimit:10}.st7{fill:#003f9b;stroke-width:4.4362;stroke-linecap:round;stroke-linejoin:round}.st8{stroke-width:1.4787}</style><path class="st1" d="M417.5 516.9c29.6-34 25.1-77.6 25.1-77.6l-12.6-5.2-21.4 62.1-6.7 18.5s9.6 4.4 15.6 2.2zM346.5 576.1s16.3 3.7 49.5-3.7c-.7-20-23.7-32.5-23.7-32.5l-31.1 6.7 5.3 29.5z"/><path class="st2" d="M356.8 551.7c15.5 19.2 55.5 28.1 57.7 35.5 2.2 7.4-5.9 27.4-2.2 68 3.7 40.7 30.3 88.7 30.3 88.7l17.7 7.4 8.1-11.1s-6.3-25.1-4.8-60.6 6.7-109.8-1.5-123.1c-8.1-13.3-52.1-51.4-52.1-51.4s-68.7 27.3-53.2 46.6z"/><path class="st3" d="M479.1 742.4c8.1 5.2 16.6 17 47 10.4 5.9 11.1-5.2 18.5-5.2 18.5l-51-5.2-3-15.5c.1 0 4.1-13.4 12.2-8.2z"/><path class="st2" d="M470.6 748.7c17.7 16.6 35.5 17.4 47.3 18.1 11.8.7 22.6-.4 27 2.6s.4 11.5.4 11.5l-54 5.5h-25.9l-5.9-21.8s.9-13.3 11.1-15.9z"/><path class="st3" d="M468.5 740.2s0-10.7 4.4-12.2 7.4 6.3 8.1 10.7c.7 4.4-8.1 17-8.1 17l-14-1.5 9.6-14z"/><path class="st1" d="m473 769.6.2-16.8-26.2-3s-5.9 0-7.8 6.7c-3 4.2-3.5 10.1-3.3 15.1 13 1.1 30-1 37.1-2z"/><path class="st1" d="M436 771.6c.3 5.5 1.5 10.1 1.5 10.1l35.5 1.5.1-13.5c-7.2.9-24.2 3-37.1 1.9z"/><path class="st3" d="M442.5 743.9c13.3-.7 21.4 0 25.9-3.7 5.9 0 4.8 8.9 4.8 12.6s-34 7.4-34 3.7c.1-3.7-.3-9.6 3.3-12.6z"/><path class="st1" d="M437.4 781.6c-3 3-3 13.3 2.2 11.8s100.2-1.1 103.9-2.6c3.7-1.5 3.3-7 1.8-10-1.4-2.9-104.9-2.1-107.9.8z"/><path class="st2" d="M365 554.6c-21.4 40.7-64.3 82.8-74.7 99.1s-65.1 106.5-65.1 106.5-10.4 2.2-20-4.4c-9.6-6.7-6.7-14-6.7-14l12.6-20s8.1-37.7 22.9-65.1 50.3-60.6 50.3-60.6S386.4 514 365 554.6z"/><path class="st3" d="M222.3 758.7s11.1.7 14 5.9c3 5.2-4.4 28.1-4.4 28.1l-13.3-6.7 3.7-27.3z"/><path class="st3" d="M228.1 787.5s12.6-32.5 15.5-34c3-1.5 5.9.7 5.9 5.9s-14.8 37-14.8 37l-6.6-8.9z"/><path class="st2" d="M222.3 763.9c3 31.1 33.6 45.8 33.6 51.8s-4.1 12.2-10 10.7-20-7-20-7l-29.6-31.1 1.5-14.8 13.3-16.3s2.9 3 11.2 6.7z"/><path class="st1" d="m174.1 771.3 7.4 9.6 20.7 4.4 4.6-7.3-26.7-16.9c-3.3 5.1-6 10.2-6 10.2zM190.5 750.6c-3.2 1.1-7 5.8-10.2 10.5L207 778l9.4-14.8c0-.1-19.4-14.9-25.9-12.6z"/><path class="st3" d="M199.4 739.5c1.5 5.9 14 16.3 27.7 20-.7 5.2-7 10.4-13.7 8.9s-22.9-13.3-22.9-17.7c0-4.6 5.1-11.2 8.9-11.2z"/><path class="st1" d="M174.1 771.3s25.9 11.1 28.1 14c20.7 22.2 42.1 37.7 43.6 41.4 1.5 3.7-3.7 9.6-8.9 7.4-5.2-2.2-31.8-33.3-41.4-40.7-9.6-7.4-21.1-11.1-24-14-2.9-3 2.6-8.1 2.6-8.1z"/><path class="st2" d="M409.3 291.8s17.7 38.8 46.6 41.8c28.8 3 84.3-9.6 100.6-48.8 16.3-39.2 24.4-77.3 28.8-79.5s8.5 4.8 8.5 4.8 10-15.5 11.5-17.7 6.7-.7 5.9 3.7c5.2-1.5 10.4.7 8.9 5.9s-14 25.9-14 25.9 7 3 4.8 8.9-5.5 25.9-9.2 38.4-46.6 68-65.8 82.1-70.2 29.6-94.6 23.7c-24.4-5.9-56.2-71-56.2-71l11.1-21.4 13.1 3.2z"/><path class="st4" d="M606 227.8s-13.3 11.8-14 28.8M611.1 196c-5.9 11.1-31.1 49.5-32.2 55.1M593.8 210.1s-12.2 21.4-10.7 19.2"/><path class="st1" d="M262.9 286.2c-16.3 21.4-31.1 65.1-37.7 115.3-6.7 50.3-9.6 111.6-7.4 119.8 2.2 8.1 8.9 11.8 8.9 11.8s-4.1 57.7-.4 61.4c33.6 28.1 103.9-13.3 146-46.6 42.1-33.3 58.4-65.8 65.1-106.5 1.5-9.6 8.9-14 9.6-28.1.7-14.1-7-39.2-21.8-69.5-14.8-30.3-29.9-48.8-29.9-48.8l-39.9-.7c0 .1-76.3-29.5-92.5-8.1z"/><path class="st2" d="M265.9 304.7s-9.6 11.8-11.1 26.6 1.8 42.5 6.3 50.6 26.2 9.2 37.3 3.3c11.1-5.9-32.5-80.5-32.5-80.5z"/><path class="st4" d="M329.5 565s46.6-29.6 64.3-59.1c17.7-29.6 28.8-64.3 28.8-64.3"/><path class="st1" d="M410 291c13.3-.4 14 14.4 22.9 19.6-6.7 3.7-15.5 0-15.5 0l-10.4-14s0-3.7 3-5.6z"/><path class="st5" d="M481.8 326.9c-5.9-17-22.2-25.9-25.1-30.3-3-4.4 0-7.4 6.7-8.1 6.7-.7 17.7 11.8 17.7 11.8s.4-18.1 3.3-21.1c3-3 7.8-4.1 10 .4 2.2 4.4 2.2 19.2 2.2 19.2s18.1-16.6 25.5-15.2c7.4 1.4 9.2 6.3 9.2 10.7-4.4 2.2-18.5 5.9-23.7 27.4-11.8 3-20 22.2-25.8 5.2z"/><path class="st4" d="M226.6 533.2c3-15.5 3.7-67.3 3.7-67.3M287.3 542.1s-24.4 4.4-38.4 0-20-23.7-20-23.7M286.5 519.1c-34.8-6.7-38.4-28.1-38.4-28.1"/><path class="st4" d="M230.4 482.2c11.1 35.5 32.5 28.1 32.5 28.1M230.4 445.9c11.8 50.3 64.3 39.9 64.3 39.9M305.8 469.6s-26.6 8.9-54-14-26.6-54-26.6-54"/><path class="st4" d="M285 438.5c-19.2-2.2-42.9-22.2-45.1-30.3-2.2-8.1-1.5-22.9.7-34.8 2.2-11.8 14-42.1 14-42.1"/><path class="st4" d="M274.8 414.1c-33.3-8.1-35.9-25.1-35.9-25.1M312.5 431.9c12.6-5.2 24.4-21.4 24.4-21.4M319.9 437.1c14.8-8.1 24.4-25.1 24.4-25.1M318.4 468.9c25.1-17 51.8-48.1 51.8-48.1M353 495.5c24.4-25.9 31.8-66.5 31.8-66.5s-22.9 40.7-49.5 62.8"/><path class="st4" d="M351.6 485.9c11.8-15.5 15.5-28.8 15.5-28.8M226 575.3c25.1 22.9 73.2-1.5 73.2-1.5M377.5 361.6c-15.5-19.2-5.2-66.5-5.2-66.5s-.7 37.7 14 59.1M403.4 346.7c7.4 14 3.7 37.2 3.7 37.2M398.1 303.2c7.4 14.8 4.4 36.2 4.4 36.2M412.3 338c9.6 23.7 5.9 42.9 5.9 42.9M426.3 348.3c3.7 16.3 0 40.7 0 40.7"/><path class="st6" d="M494.4 372s3.7 117.6 4.4 124.2c.7 6.7 10.4 5.9 11.1-1.5.7-7.4-5.9-123.5-5.9-123.5l-9.6.8z"/><path class="st1" d="M278 225.3c1.5-6.8 2.3-13.2 1.8-18.2-12.6-18.5-34-28.5-44.4-24.8-3.5 1.3-9 7-14.8 14.5 18.9 22.6 47 27.5 57.4 28.5z"/><path class="st3" d="M220.8 196.9c-11.1 14.5-23.2 35.5-23.7 42.8-.7 11.1 13.3 8.1 21.4 1.5 3.7 2.2 25.1 3.7 25.1 3.7s4.4 21.1 13.3 21.8c6.6.6 16.8-21.8 21.1-41.3-10.4-1.1-38.5-6-57.2-28.5z"/><path class="st4" d="m263.6 198.2-17.7-5.9s-5.2 7.7-11.1 17.4c6.6 4.6 13.5 7.9 20 10.2 5.3-12.6 8.8-21.7 8.8-21.7z"/><path class="st3" d="M234.8 209.7c-6.5 10.6-13.9 23.7-16.2 31.4-8.1 22.9 14 27.4 25.1 3.7 4.1-8.8 7.9-17.4 11.1-24.8-6.5-2.3-13.4-5.6-20-10.3z"/><path class="st6" d="m285 144.3-24.4 25.8 24.4 13.4 23-36.3zM257 168.7s-25.1 6.7-27.4 11.1c-2.2 4.4.7 9.6 6.7 9.6-3 5.9 4.4 11.8 9.6 10.4 1.5 5.2 8.1 5.9 12.6 3.7 2.2 5.9 8.1 7.4 12.6 4.4 3 5.2 10.4 1.5 14 .7 3.7-.7 0-20.7 0-20.7L257 168.7z"/><path class="st4" d="m236.3 189.4 17.7-14.1M243.6 200.5l14.9-20M258.5 203.4l6.6-19.2M271 207.9l5.1-20M268.9 171.6l25.1-31M280.6 177.5l21.4-34.7"/><path class="st1" d="M249.5 169.4c-3 4.4 2.2 13.7 7.4 13.7-1.5 4.8 5.2 8.5 8.1 7 3 3.7 9.6 5.9 13.3 3 4.4 3.7 8.9 3 11.1 0s3-15.5.7-17c-11.1-2.2-23.7-9.6-23.7-12.6s-13.9 1.5-16.9 5.9z"/><path class="st6" d="M322.8 148.7s-25.9 3-26.6-1.5 8.1-32.5 17-35.5 25.1 5.9 25.1 5.9l-15.5 31.1z"/><path class="st5" d="m292.4 117.6 4.5-8.4-79.1-4.8s-.9 4.4-1.7 11.7c26.7-2 60.4.2 76.3 1.5z"/><path class="st5" d="M292.4 117.6c-15.8-1.3-49.6-3.5-76.2-1.6-.3 3.1-.6 6.9-.7 11 26.3-1.6 60.4-2.4 73.3-2.6l3.6-6.8z"/><path class="st5" d="M215.5 127c-.1 5-.1 10.6.3 16.7 40.1-14.7 68.6-12 68.6-12s-28.5-2.7-68.6 12c.3 3.7.6 7.5 1.1 11.4 34.9-16.1 58.2-17 64.4-16.9l7.5-13.9c-12.9.3-47 1.1-73.3 2.7z"/><path class="st5" d="M217 155.1c.4 3.2 1 6.5 1.6 9.8 43.6-23.7 59.9-21.4 59.9-21.4l2.8-5.2c-6.3-.1-29.5.7-64.3 16.8z"/><path class="st7" d="M294.4 107.3c-7 3.7-17.4 34.8-17.4 39.2s9.6 1.5 9.6 1.5 5.2 5.9 14 .7c.7-14 11.1-31.8 15.5-37 .7-5.2-5.2-5.2-10.7-3.7-3.4-2.9-6.6-3-11-.7z"/><path class="st4" d="M286.5 148c.7-12.6 14-39.2 18.9-39.9"/><path class="st2" d="M333.9 216c-4.4 17-11.1 20.7-21.4 25.9s-36.2 27.4-49.5 44.4c-3 5.2-.7 43.6 7.4 62.8 8.1 19.2 37 57.7 72.5 67.3 31.1 8.1 46.6 24.8 59.1 27.7 12.6 3 54-3.7 64.3-4.4 10.4-.7 23.3 2.2 28.5 0 5.2-2.2 14.4-7 16.6-13.7s1.5-22.9-1.5-22.9-12.6 11.1-16.3 12.6c-3.7 1.5-11.8.7-11.8.7l13.3-14s-3.7-2.2-10.4-.7c-6.7 1.5-13.3 16.6-22.2 17.4-8.9.8-29.6-16.6-44.4-21.8-14.8-5.2-32.5-4.4-32.5-4.4s-2.6-5.5-27.2-16.1c-11.2-17.9-14.9-21.6-19.4-25.3 11.8-13.3 13.3-35.5 20-43.6-6.7-9.6 18.5-34 18.5-34l14.8-39.9s33.3.7 34.8-4.4 1.1-13.3-.4-17.7-9.2-9.6-9.2-9.6 12.9-9.6 14.4-28.8-4.8-25.9-4.8-25.9-.7-22.2-5.9-27.4c-5.2-5.2-28.8-3-28.8-3l-45.1 24.4-20 45.1c0-.3 11.1 12.3 6.6 29.3z"/><path class="st4" d="M417.5 201.9c-15.5-1.5-22.2 2.2-22.2 2.2"/><path class="st1" d="M368.6 161.3c1.5-5.9 9.6-11.8 15.5-12.6 5.9-.7 12.6 3 11.8 6.7s-17.6 9.6-27.3 5.9zM426.3 131s-14.8 5.9-16.3 20c14 2.2 20.7-3 20.7-3l-4.4-17z"/><path class="st4" d="M410 150.9c2.2 11.8 8.1 12.6 8.9 19.2s1.5 9.2-.7 10.7-14 .7-17.7 0 .7-10.7.7-10.7"/><circle class="st8" cx="420.8" cy="143.8" r="2.8"/><circle class="st8" cx="384.1" cy="154.6" r="2.8"/><path d="M396.4 101.5c3.1 2.5 11.6 10.3 12.2 20.6-.6-10.3-9.1-18.1-12.2-20.6-7.1-1-15-.9-22.6-.1 0 0-20 19.2-21.4 53.2 1.5-34 21.4-53.2 21.4-53.2-5.7.6-11.7 1.8-17.5 3.6-2.3 3-12.2 17.1-18.7 43.7-7.4 30.3-3.7 67.3-3.7 67.3s-3.7-37 3.7-67.3c6.5-26.6 16.4-40.7 18.7-43.7-15.2 4.7-29.5 13.6-36.5 27.5-9.6 19.2-14.8 90.2-14.8 90.2l16.9-2.1c-.6-4.1-3.1-27 1.6-57.7 5.2-34 17-50.3 17-50.3s-11.8 16.3-17 50.3c-4.7 30.8-2.1 53.6-1.6 57.7l41.5-5.2-7.4-18.5s-11.8 1.5-14-8.9 10.4-14.8 10.4-14.8-10.4-5.9-5.2-12.6c5.2-6.7 11.8-3 11.8-3s3.3-14 7.8-17.7c4.8-26.6 17.4-38.4 17.4-38.4s8.9 6.7 9.6 25.1c-.7-18.5-9.6-25.1-9.6-25.1s-12.6 11.8-17.4 38.4c4.4-3.7 48.4-19.2 54.3-20-2.3-11.3-12.5-16.6-24.7-18.4zM348 197.1c-1.5 7.8 1.5 18.9 1.5 18.9s-3-11.1-1.5-18.9z" style="fill:#3d1400;stroke:#000;stroke-width:4.4362;stroke-linecap:round;stroke-linejoin:round;stroke-miterlimit:10"/><path class="st1" d="M312.5 241.9s9.6 28.1 31.1 31.8c5.9.7 11.1-8.1 17-7.4 5.9.7 8.9 5.5 11.1 2.6s13.3-12.2 20-12.9c7.4 5.9 3.7 15.5 3.7 15.5s-37.3 36.2-50.6 34-18.9-10.4-26.2-26.6-6.1-37-6.1-37z"/><path class="st1" d="M460.4 251.5c-1.5-5.2-11.1-8.9-20-8.1-8.9.7-28.1 20.7-45.1 28.1 4.4 2.2 12.6 11.1 22.2 5.9s31-20 42.9-25.9z"/><path class="st1" d="M359 296.6s-2.2-14.8.7-18.5c3-3.7 12.6-5.2 17.7-4.4 5.2.7 8.9 4.4 8.9 4.4l8.9-6.7s20.7 4.4 20 15.5c-.7 8.1-9.6 17.7-17 16.3-7.4-1.5-22.9-11.8-22.9-11.8l-16.3 5.2z"/><path class="st1" d="M395.3 271.4c-3.7.7-7.4 4.4-8.9 6.7-1.5 2.2 8.5 13.7 12.9 12.9 4.4-.7 5.5-8.5 4.8-11.5-.7-2.9-5.1-8.8-8.8-8.1zM344.5 304.7c-5.5 3 9.2 9.6 12.2 6.7 3-3 3.7-14 17.7-13.3 14 .7 13.3 10.4 20 11.8 6.7 1.5 9.6-2.2 7.4-7.4s-20-17.7-30.3-17.7-21.4 17-27 19.9z"/><ellipse class="st7" cx="497.1" cy="347" rx="29.9" ry="29.6"/><circle class="st6" cx="480.4" cy="340.4" r="4.8"/><circle class="st6" cx="482.3" cy="357" r="4.8"/><circle class="st6" cx="496.6" cy="348.3" r="4.8"/><circle class="st6" cx="494.5" cy="329.7" r="4.8"/><circle class="st6" cx="510.6" cy="335.6" r="4.8"/><circle class="st6" cx="514" cy="354.8" r="4.8"/><circle class="st6" cx="497.8" cy="364.4" r="4.8"/><path class="st7" d="M421.9 210.8c4.8.7 18.5 4.1 20.7 9.2 2.2 5.2-3.2 14.4 2.2 14.4 8.1 0 10.4-11.5 6.7-18.5s-26.6-15.2-32.2-14.8-2.3 9 2.6 9.7zM473.3 185.3c0-3.3 40.3-47 50.6-48.4s20.7-3.7 25.9 5.2c5.2 8.9 3.7 22.2-7.4 22.2s-17.7-11.8-16.3-15.5c-5.2 0-39.9 40.7-42.9 42.9-2.9 2.1-9.9-3.1-9.9-6.4z"/><path class="st7" d="M539.5 152.4c0-9.6-10.4-8.9-13.3-3.7M608.5 127.3c-3.7 1.5-2.6 7.4 2.6 6.7s55.4-21.5 64.3-22.2c9.6-.7 14 4.4 15.9 7.4-9.2 0-9.9 10.9-8.5 15.9 2.2 7.8 6.7 10.7 14.8 8.5 8.1-2.2 13.3-11.8 11.1-21.4-2.2-9.6-11.8-20-26.6-22.2-22.1-2.3-69.8 25.8-73.6 27.3z"/><path class="st7" d="M691.4 119.1c4.1 5.2 7.4 13.3 0 14M719 190.1s24.4 47.3 17.7 63.6c-4.4-3-8.9-3.3-13.3-3.3s-10.7 8.5-7.8 13.7c3 5.2 15.9 14.8 28.5 7.4s2.2-62.1-14-81.3c-2.8-3-11.1-.1-11.1-.1z"/><path class="st7" d="M736.9 253.7c-3 6.7-4.1 12.2-12.9 7M716.9 320.2c-4.4 3.7-17.4 45.5-15.9 54.3s8.5 15.9 14.4 15.9 14.8-3 14.8-11.8c.7-14.8-8.1-14.8-14-14.8-.7-20 11.1-39.2 11.1-39.2s-6-8.1-10.4-4.4z"/><path class="st4" d="M724.3 378.7c-9.6.7-6.7-6.7-8.1-14.8M339 351.3c-2.2-3-6.7-2.8-6.7-2.8s-5.1-30.5-29.5-57.9M312.5 221.2c-4.4-13.3-2.6-45.1-2.6-45.1M383.5 131c-3.7-14-7.4-17.7-7.4-17.7"/></svg>