<svg version="1.1" id="Calque_1" xmlns="http://www.w3.org/2000/svg" x="0" y="0" viewBox="0 0 900 900" style="enable-background:new 0 0 900 900" xml:space="preserve"><style>.st0{fill:red}.st0,.st1{stroke:#000;stroke-width:5.5941;stroke-linecap:round;stroke-linejoin:round;stroke-miterlimit:10}.st1,.st2{fill:#c44545}.st3{fill:red}.st10,.st12,.st4,.st5,.st6,.st7,.st8{fill:none;stroke:#000;stroke-width:5.5941;stroke-linecap:round;stroke-linejoin:round;stroke-miterlimit:10}.st10,.st12,.st5,.st6,.st7,.st8{fill:#ffce00}.st10,.st12,.st6,.st7,.st8{fill:#007706}.st10,.st12,.st7,.st8{fill:#fff}.st10,.st12,.st8{fill:#eaa9a9}.st10,.st12{fill:none;stroke-width:4.5452}.st12{fill:#6b2b00;stroke-width:5.5941}.st13{fill:#fff}.st14{fill:none}</style><path class="st0" d="m330.1 275.5-23.1 8.8 26.6 44.7 23.8-7.7-15.4-37.7zM337.8 762.6c23.1-4.2 37.1-20.3 37.1-20.3s9.1 20.3 25.9 23.8c-1.8-13.3-2.9-27.6-3.5-41.6l-55.5-3.4c-3.2 16.1-5.5 32.6-4 41.5z"/><path class="st1" d="M343.7 711.3c-.7 3.2-1.4 6.4-2 9.7l55.5 3.4c-.1-3.3-.3-6.6-.4-9.9l-53.1-3.2zM396.5 701.6l-50.3-1.2c-.8 3.4-1.6 7.1-2.4 10.9l53.1 3.2c-.3-4.4-.4-8.7-.4-12.9z"/><path class="st2" d="M397.2 646.5 386 630.4l-29.5 40.9 39.9 4.5c.2-17.5.8-29.3.8-29.3zM396.4 686.1l-45.9-3.2c-.6 2.4-1.5 5.7-2.4 9.4l48.3 1.6v-7.8z"/><path class="st3" d="m346.2 700.5 50.3 1.2c0-2.6-.1-5.2-.1-7.7l-48.3-1.6c-.6 2.4-1.3 5.2-1.9 8.1zM396.4 675.9l-39.9-4.5-4.8 6.6s-.5 1.8-1.3 5l45.9 3.2c.1-3.7.1-7.1.1-10.3z"/><path class="st4" d="M397.2 646.5 386 630.4l-34.3 47.5s-2.6 9.6-5.6 22.5l50.3 1.2c-.4-30.7.8-55.1.8-55.1z"/><path class="st0" d="M233.6 715c17.5 4.9 41.3-11.5 44.8-9.4s2.1 28.3 21.7 40.9c-1.1-16-1.8-35.5.7-51.5l-37.6-12.7c-8.6 11.7-18.6 21.8-29.6 32.7z"/><path class="st1" d="m263.2 682.2 37.6 12.7c.5-3 1-6 1.8-8.8L268 675.3c-1.6 2.4-3.1 4.7-4.8 6.9z"/><path class="st1" d="m268.6 674.5-.6.9 34.6 10.8c.3-1.2.6-2.2 1-3.3.7-2.1 1.3-4.3 1.9-6.5l-32.8-9.6c-1.2 2.5-2.5 5.1-4.1 7.7z"/><path class="st3" d="m278.5 647.6 30.5 12.8c.7-3.3 1.3-6.6 2-9.6l-28.6-15.4c-1.7 3.9-2.8 8-3.9 12.2zM272.7 666.8l32.8 9.6c.8-2.9 1.4-5.8 2.1-8.7l-30.9-12.4c-1.2 3.7-2.4 7.6-4 11.5z"/><path class="st2" d="m276.5 655.3 30.9 12.4c.6-2.4 1-4.9 1.5-7.3l-30.5-12.8c-.5 2.5-1.2 5.1-1.9 7.7zM284.7 631.1c-.8 1.4-1.5 2.8-2.2 4.3l28.6 15.4c.5-2.4 1-4.6 1.6-6.7L287 627.7c-.9 1.1-1.7 2.3-2.3 3.4z"/><path class="st3" d="m286.9 627.6 25.7 16.4c1-3.8 2.1-7.1 3.4-9.3l-20.6-16.8c-3.1 3.3-6.1 6.6-8.5 9.7zM356.7 568.9s-6.3-30.8-19.6-17.5-15.4 34.3-18.9 42.7c-1.4 3.4-5.8 7.8-11 12.8L327 622c7.6-8.1 16.8-17.6 20.7-25.8 6.2-13.4 9-27.3 9-27.3z"/><path class="st2" d="m295.5 618 20.6 16.8s0-.1.1-.1c1.9-3.2 6-7.7 10.8-12.7l-19.8-15.1c-3.7 3.5-7.9 7.2-11.7 11.1z"/><path class="st4" d="M337.1 551.4c-13.3 13.3-15.4 34.3-18.9 42.7s-25.9 23.8-33.6 37.1c-6.4 11-6.5 23.1-12 35.7l32.8 9.6c4.3-16.2 6.4-34.4 10.7-41.7 4.9-8.4 25.2-25.2 31.5-38.5s9.1-27.3 9.1-27.3-6.3-30.9-19.6-17.6z"/><path class="st0" d="M180.5 654.2c10.5 22.4 32.9 19.6 32.9 19.6s-5.6 23.8 7 34.6c6.3-10.1 7.7-26.9 21.7-38.8.3-.2.6-.5.9-.8l-24.3-26.6c-12.7 7.2-19.9 9.9-38.2 12z"/><path class="st1" d="M219.6 641.6c-.3.2-.7.4-1.1.6l24.3 26.6c2.4-2.1 4.7-4.4 6.7-6.7L227 636.9c-2.2 1.6-4.7 3.3-7.4 4.7zM227.1 636.8l22.5 25.2c3.1-3.5 5.9-7.2 8.4-10.9l-21.9-22.3c-2.7 2.9-5.7 5.5-9 8z"/><path class="st2" d="m243.8 619.8 20.3 21.3c1.6-2.9 3-5.7 4.4-8.4l-19.6-19.8c-1.6 2.3-3.3 4.6-5.1 6.9z"/><path class="st3" d="m248.9 612.8 19.6 19.8c1.5-2.9 2.8-5.7 4.2-8.4l-18.1-19.8c-1.9 2.9-3.7 5.6-5.7 8.4zM236.1 628.8l21.9 22.3c2.2-3.4 4.2-6.7 6.1-10.1l-20.3-21.3c-2.4 3.2-4.9 6.2-7.7 9.1zM266.5 589.8c-2.5 2.3-4.9 5.1-7.3 8.2l17.8 18.2c2.1-3.4 4.1-6 6.3-7.5.2-.2.5-.3.7-.5l-15.9-19.8c-.6.5-1.1 1-1.6 1.4z"/><path class="st2" d="m268.1 588.5 15.9 19.8c4.7-3.3 9.6-6.9 14.3-10.5l-14.8-19.5c-5.3 3-10.8 6.3-15.4 10.2zM254.6 604.6l18.1 19.8c1.5-3 2.9-5.7 4.3-8.1l-17.8-18.2c-1.5 2-3.1 4.2-4.6 6.5z"/><path class="st3" d="M346.2 558.4s-1.4-41.3-9.8-37.1-21 30.8-28.7 40.6c-4.8 6.1-14.4 10.8-24.2 16.4l14.8 19.5c13.6-10.3 25.6-20.5 25.6-20.5l22.3-18.9z"/><path class="st4" d="M336.4 521.3c-8.4 4.2-21 30.8-28.7 40.6s-28 16.1-41.3 28c-9.8 8.7-17.3 25.5-30.3 39l21.9 22.3c12.1-18.1 17.6-37.3 25.3-42.4 18.2-12.6 40.6-31.5 40.6-31.5l22.4-18.9c-.1 0-1.5-41.3-9.9-37.1z"/><path class="st2" d="m205.6 209.8 61.6 76.6 9.9-5.4-59.5-79.6z"/><path class="st3" d="m242.7 196.9-10.5-5.6-14.6 10.1 59.5 79.6 16-8.6zM188.2 264l-23.1-2.8-7.8 17.7 74.7 40.7 9.3-15.8z"/><path class="st2" d="m151.8 291.3 73.4 39.8 6.8-11.5-74.7-40.7z"/><path class="st3" d="m182.6 345.8-38.5-5.6-3.5 16.6 86.4 22 5.2-16.9z"/><path class="st2" d="m137.1 373.1 86 18.2 3.9-12.5-86.4-22z"/><path class="st4" d="m232.2 191.3-26.6 18.5 61.6 76.6 25.9-14-50.4-75.5zM165.1 261.2l-13.3 30.1 73.4 39.8 16.1-27.3-53.1-39.8zM144.1 340.2l-7 32.9 86 18.2 9.1-29.4-49.6-16.1z"/><path class="st5" d="m337.1 321.3-96.5-137.7-8.4 7.7L328 329zM170.7 251l-5.6 10.2 146.5 88.1 6.6-10.5zM144.1 340.2l2.1-9.8 158.7 44.1-4.2 9.8z"/><path class="st1" d="m249.7 436.5-2.6 53.1 11.2 3.3 2.9-59.3z"/><path class="st6" d="m261.2 433.6-2.9 59.3 25.9 7.6 3.5-73.5z"/><path class="st1" d="m241.6 438.5-2.8 48.7 8.3 2.4 2.6-53.1z"/><path class="st1" d="m231.7 441-2.5 43.4 9.6 2.8 2.8-48.7z"/><path class="st0" d="m150.4 461.2 78.8 23.2 2.5-43.4zM361.6 500.3l-4.9-72.7-38.8-.8-2.4 82.9 25.1 7.4z"/><path class="st1" d="m291 426.2-3.3.8-3.5 73.5 7.7 2.3 4.2-76.5zM306.9 426.6l-1.9 80.1 10.5 3 2.4-82.9z"/><path class="st7" d="m296.1 426.3-4.2 76.5 13.1 3.9 1.9-80.1z"/><path class="st4" d="M374.9 245.1c-13.3 30.1-30.8 44.1-30.8 44.1M381.2 251.4c-7 33.6-27.3 52.4-27.3 52.4"/><path class="st8" d="M374.9 300.3c12.6 12.6 45.5 10.5 45.5 10.5s4.2-5.6 5.6-14c4.2 0 5.5 1.3 9.1-.7 6.3-3.5 3.8-16.8 3.8-16.8s3.8-.7 3.8-10.5c4.9.7 9.1-.7 9.1-.7-.7-6.3-6.3-10.5-6.3-10.5s1.7-26.6-.3-31.5c-2.1-4.9-19.2-16.8-19.2-16.8l-44.1 16.8c0 .1-19.6 61.7-7 74.2z"/><path class="st5" d="M505.6 415.7c11.2 2.8 54.5-4.9 54.5-4.9l2.1-31.5s-26.6.7-42.7.7c-8.4-12.6-54.5-63.6-62.2-65.7s-30.8 1.4-37.1-3.5c0 0-32.9 2.1-45.5-10.5-1.3-1.3-2.2-3-2.9-5.2l-20.9 22s-9.8.3-18.9 4.5-18.2 16.4-23.8 29c-5.6 12.6-18.2 68.5-26.6 85.3-2.1 5.6 15 27.6 31.8 28.3 16.8.7 33.9-6.6 33.9-6.6l-.7 25.2-.7 20.3s-10.5 17.5-11.2 23.8-3.5 28-.7 32.2 7.7 14.7 9.8 15.4c.7 28.7 8.4 54.5 5.6 59.4s-20.3 25.9-25.2 42c-4.9 16.1-11.2 79.7-14.7 93 7.7 7.7 28 5.6 28 5.6s-.7-7 4.2-14.7c4.9-7.7 38.5-76.9 40.6-94.4 8.4-7 9.8-15.4 9.8-15.4l55.9-60.1s37.1 33.6 39.2 39.2c2.1 5.6-.3 35.7 2.4 48.9 2.8 13.3 31.1 60.8 38.8 89.5 17.5 4.2 26.6-1.4 26.6-1.4s-19.6-103.5-21-118.9-24.5-59.4-24.5-59.4l-53.8-99.3s-11.9-72.7 8.4-116.8c3.8 15.4 30.3 41.2 41.5 44z"/><path class="st4" d="M442.7 268.9s-4.9 1.4-7 0 .3-4.9.3-4.9M438.8 279.4l-10.4-1.6"/><path d="M410.5 262.6c19.6 2.1 24.5-11.2 24.5-11.2s-15.4-3.7-24.5 11.2z" style="fill:#fff;stroke:#000;stroke-width:4.5452;stroke-linecap:round;stroke-linejoin:round;stroke-miterlimit:10"/><path class="st10" d="M410.2 253.8c7.7-9.8 21.3-8.7 21.3-8.7M414 240.9c9.1-7 21.7-3.5 21.7-3.5"/><path class="st1" d="M423.8 252.8s-2.1 3.5 2.8 5.6"/><path class="st4" d="M406.3 292s7 4.9 19.6 4.9"/><path class="st2" d="m398.6 175.9 30.2-5c-1.1-2.6-2.4-5.5-3.8-8.6l-28.5 4.5 2.1 9.1zM395.1 159.1l26.8-3.6c-1.2-2.6-2.5-5.3-3.8-8.1l-25.8 4.8 2.8 6.9z"/><path class="st3" d="m442.7 198.3-8.4-14.7s-2-4.9-5.5-12.7l-30.2 5-2.1-9.1 28.5-4.5c-1-2.2-2-4.4-3.1-6.8l-26.8 3.6-2.8-7 25.8-4.8c-1-2.2-2.1-4.4-3.3-6.7l-24.6 3.8L377 78.6c-2.7-2.8-5.2-4.9-7.7-6.3-5.6-2.1-9.8-2.8-11.9 6.3s14.7 111.9 14.7 111.9 1-2.1-1 18.9-33.9 61.5-33.9 61.5 14.7 33.6 23.8 45.5c50.3-55.2 31.3-71.3 37.8-79 13.3-16.1 44.8-12.6 44.8-12.6l-.9-26.5z"/><path class="st2" d="M414.9 140.6c-11.2-23-25.5-49.1-37.9-61.9l13.3 65.8 24.6-3.9z"/><path class="st8" d="m324.5 795.4 23.1 3.5 17.5 21.7-6.3 23.8-37.1-25.2z"/><path class="st0" d="M355.3 771.6c6.3-.7 11.5 7.3 10.1 11.5s-10.8 8-12.9 12.9-9.1 2.1-9.8-3.5c-.7-5.5 6.3-20.2 12.6-20.9z"/><path d="M346.9 794.7s4.2-12.6 9.8-15.4" style="fill:#e28383;stroke:#000;stroke-width:5.5941;stroke-linecap:round;stroke-linejoin:round;stroke-miterlimit:10"/><path class="st0" d="M356.7 802.4s23.4 13.3 25.5 17.5-9.4 11.9-9.4 11.9l-21-24.5 4.9-4.9z"/><path class="st0" d="M346.2 804.5s14.7 37.4 18.9 38.1c4.2.7 11.9-5.2 11.2-8.7-.7-3.5-23.8-29.4-23.8-29.4h-6.3 0z"/><path class="st0" d="M336.4 788.4s21 5.6 21.7 11.2c.7 5.6-7.7 9.8-11.9 8.4s-13.3-12.6-13.3-12.6l3.5-7z"/><path class="st7" d="M309.8 768.9s-3.5 7-2.1 11.2 29.4 16.1 29.4 16.1l.7-21.7-14.7-10.5-13.3 4.9z"/><path class="st0" d="m296.5 796.8 11.2-16.8 29.4 16.1-11.2 24.5-21-10.5z"/><path class="st7" d="M296.5 796.8s55.9 40.6 75.5 46.2c0 0-.7 5.6-4.9 7s-74.8-41.3-75.5-46.2 4.9-7 4.9-7z"/><path class="st8" d="M617.5 795.4s2.8-7.7-.7-11.9-51.7-11.2-51.7-11.2l-7.7 3.5-.7 21 29.4 3.5 31.4-4.9z"/><path class="st0" d="M564.4 743c-3.5 4.9.7 29.4.7 29.4l10.5 2.1s7.7-12.6 8.4-22.4c.6-9.8-16.1-14-19.6-9.1z"/><path class="st4" d="M574.9 748.6c-4.9 7-4.9 23.8-4.9 23.8"/><path class="st0" d="M578.3 776.2c8.4-.3 33.6-3.8 36.4-1s-4.2 12.6-4.2 12.6l-26.6-2.1c0-.1-7.6-6.4-5.6-9.5z"/><path class="st0" d="M572.8 781.4c1.4 4.9 24.1 17.5 29 16.8s10.1-7.7 8.7-10.5c0 0-23.1-2.1-32.2-9.8-9-7.6-6.9-1.4-5.5 3.5z"/><path class="st0" d="M557.4 770.3s21-1.4 23.1 2.8-.7 9.1-4.2 9.8-18.9-7-18.9-7v-5.6z"/><path class="st0" d="m560.9 775.1 2.8 23.1s-28 0-33.6-3.1c-2.8-11.5.7-20.6.7-20.6l30.1.6z"/><path class="st7" d="M530.1 795.1s-2.8 7.3.7 9.4c3.5 2.1 83.9 0 87.4-2.1s-.7-7-.7-7l-87.4-.3zM528.7 767.5c-2.8 1.4-1.4 9.8 1.4 10.5s30.1-.7 30.8-2.8c.7-2.1-1.4-9.1-5.6-9.1s-23.8 0-26.6 1.4z"/><path class="st4" d="M443.4 224.8s-36.4-4.2-46.9 14.7c-4.9 8.8 14.7 21.7-35.7 76.9-9.1-11.9-23.8-45.5-23.8-45.5s31.8-40.6 33.9-61.5 1-18.9 1-18.9-16.8-102.8-14.7-111.9 6.3-8.4 11.9-6.3c25.2 14 65 111.2 65 111.2s5.6 5.6 9.1 13.3c3.7 7.7.2 28 .2 28z"/><path class="st6" d="M372.1 240.2c2.8-4.2 50.3-38.5 67.8-67.8 6.3-.7 15.4 9.1 15.4 12.6s-69.9 68.5-74.1 69.9c-4.2 1.4-11.9-10.5-9.1-14.7z"/><path class="st6" d="M367.2 187.8c-4.2 7-9.1 19.6-8.4 22.4.7 2.8 51.7 3.5 103.5 25.9 3.5-4.9 2.4-20.6 0-22.4-2.5-1.8-46.9-6.4-95.1-25.9z"/><circle class="st7" cx="411.2" cy="209.8" r="18.5"/><circle class="st0" cx="411.2" cy="210.1" r="7"/><path class="st7" d="M343.6 390.9c-1.4 2.7-2.9 5.3-4.4 7.9-7.1 12-7.6 20-23 23.9 10-2.1 19.2-3.3 27.5-3.8.2-7 .3-18.3-.1-28z"/><path class="st1" d="m447.4 704.8-34.5 9.5c.2 3.1.3 6.2.5 9.5l37.1-11c-1.2-2.7-2.2-5.4-3.1-8z"/><path class="st1" d="m450.4 712.7-37.1 11c.1 3.1.2 6.4.3 9.6l41-11.2c-1.5-3.1-2.9-6.2-4.2-9.4z"/><path class="st0" d="m454.7 722.2-41 11.2c.3 14.7-.1 30.6-1.7 47.4 21.7-17.5 28-37.1 28-37.1s7.7 13.3 30.8 4.9c-6.6-8.6-11.8-17.5-16.1-26.4z"/><path class="st3" d="m437.9 664.8-28.9 4.4c.3 3 .6 6.2 1 9.6l29.4-5c-.7-3.1-1.2-6.1-1.5-9z"/><path class="st2" d="M436.4 631.1s-26.6-6.3-28.7 12.6c-.6 5.7.1 14.4 1.2 25.6l28.9-4.4c-2.6-20.1-1.4-33.8-1.4-33.8zM439.2 673.8l-29.4 5c.3 2.6.5 5.3.8 8.1l30.1-5.1c-.5-2.7-1-5.4-1.5-8z"/><path class="st3" d="M412.1 703.7c.2 3.4.5 7 .7 10.6l34.5-9.5c-1-2.8-1.9-5.6-2.7-8.3l-32.5 7.2zM440.8 681.8l-30.1 5.1c.3 2.8.5 5.6.8 8.6l31.2-6c-.7-2.6-1.3-5.2-1.9-7.7z"/><path class="st2" d="m442.7 689.5-31.2 6.1c.2 2.7.5 5.3.7 8.1l32.5-7.2c-.7-2.4-1.4-4.7-2-7z"/><path class="st4" d="M436.4 631.1s-26.6-6.3-28.7 12.6c-1.3 11.9 3.2 37.1 5.1 70.6l34.5-9.5c-13.9-39.3-10.9-73.7-10.9-73.7z"/><path class="st1" d="M455.4 601.3c-1.2-3-2.2-6-3.1-8.9-7.4 1-24.8 2.9-42 1.8 0 .1 0 .3-.1.5-.5 3.5-1.2 6.8-2.1 10 24.5 1.7 40.6-1.6 47.3-3.4z"/><path class="st1" d="M461 614.2c-2-4.2-4-8.5-5.7-12.8-6.6 1.8-22.8 5.1-47.3 3.4-1.2 4.3-2.6 8.4-4.1 12.2 26.9 4.4 50.4-1 57.1-2.8z"/><path class="st1" d="M466.2 624.2c-1.7-3.2-3.5-6.5-5.2-10-6.7 1.8-30.2 7.2-57.1 2.7-1.4 3.4-2.9 6.4-4.4 9.3 29.6 5.8 57.7.2 66.7-2z"/><path class="st0" d="M466.2 624.2c-9.1 2.2-37.1 7.9-66.7 1.9-7.4 13.5-15.6 21-15.6 21s25.2 12.6 52.4-16.1c15.4 24.5 42.7 14.7 42.7 14.7s-6.1-9.1-12.8-21.5z"/><path class="st3" d="M449.2 575.9c-.4-3.6-.8-7.3-1.2-11-7 1.1-21 2.6-34.6 0-.3 3.8-.6 7.6-.9 11.3 12 3.5 27.1 2 36.7-.3zM446.4 551.8c-2.1-18-4.5-35.2-7.2-42.4-4.9-.7-23.8 2.1-23.8 2.1s-.1 18.1-1.3 39.6c8.9 1.8 23.2 1.9 32.3.7z"/><path class="st2" d="M447.9 564.8c-.5-4.3-1-8.7-1.5-13-9.1 1.2-23.5 1-32.3-.7-.2 4.4-.5 9-.8 13.6 13.7 2.7 27.6 1.2 34.6.1z"/><path class="st3" d="M411.6 583.4c-.4 3.7-.9 7.4-1.4 10.8 17.2 1.1 34.6-.8 42-1.8-.9-3-1.7-6-2.2-8.8-9.2 1.5-26 3.1-38.4-.2z"/><path class="st2" d="M450.1 583.7c-.2-1-.3-2-.4-2.9-.2-1.6-.3-3.2-.5-4.9-9.5 2.3-24.6 3.8-36.8.2-.2 2.5-.5 4.9-.7 7.3 12.3 3.3 29.1 1.7 38.4.3z"/><path class="st4" d="M452.3 592.5c-1.3-4.1-2.2-8.1-2.6-11.7-2.8-25.2-6.3-60.1-10.5-71.3-4.9-.7-23.8 2.1-23.8 2.1s-.3 49.9-5.2 82.8c17.3 1 34.7-.9 42.1-1.9z"/><path class="st8" d="M417.5 413.3s16.1-3.8 19.6-2.4 1.4 7 1.4 7l-14 7.7-7-12.3z"/><path class="st7" d="M346.9 482.9c4.2-1.4 30.8 25.9 107.7 12.6 6.3 3.5 11.9 10.5 6.3 16.1-90.2 7.7-110.5-4.5-114.7-8-4.2-3.6-3.5-19.3.7-20.7z"/><path class="st7" d="M415.4 488.4c-3.5 2.8-6.3 9.1-4.9 15.4s10.5 8.7 16.8 8 11.9-5.9 13.3-12.9-7-14-7-14-14.7.8-18.2 3.5z"/><path class="st7" d="M404.2 482.2c2.1 1.4 7-1 10.5.3 3.5 1.4-.3 9.4 5.2 12.2s9.4 0 11.5-4.9 1.4-16.4-.7-19.9-12.9-6.3-17.8-5.6c-4.8.7-12.2 9.5-8.7 17.9z"/><path class="st4" d="M421 474.5c7 2.8 4.2 19.6 4.2 19.6M435 507.3s-4.2-4.2-8.4-4.5c-4.2-.3-6.3-7.7-6.3-7.7"/><path class="st12" d="m223.8 106.7 34.3 62.9 28-16.1-31.5-62.9z"/><path class="st5" d="m229.4 99.7 36.7 67.1 12.3-9.8-34.3-63.6z"/><path class="st12" d="M230.1 94.8s-7.7-10.5-7.7-14 5.6-5.2 8.4-3.8c2.8 1.4 8 14.3 8 14.3l-8.7 3.5zM267.9 168.9l186.5 333.5s149.9 278.3 165.2 287.4c7 4.9 16.1-.7 11.2-9.8-2.6-4.7-99.4-170.8-189-329.7-83.3-147.7-160-289.1-160-289.1l-13.9 7.7z"/><path class="st12" d="M252.1 171c-1.7 3.5.3 5.6 3.8 6.3s41.3-21 42-23.1 0-5.6-3.5-6.3c-3.4-.7-40.5 19.6-42.3 23.1zM214 103.9c-.7 2.8 2.1 9.1 4.9 9.1s41.3-21 42-23.8-.3-7.3-3.1-8.7c-2.9-1.5-43.1 20.6-43.8 23.4z"/><path class="st8" d="M392.3 423.4c-2.8 2.8 1.4 21.7 4.9 23.1s22.4 9.1 32.9 13.3c10.5 4.2 26.6 16.1 30.1 15.4s5.6-2.8 2.8-7-24.5-17.8-24.5-17.8 10.5 1.7 11.2-1.7-2.1-9.8-2.1-9.8 1.4-9.1-6.3-12.6c0-4.2-2.8-8.4-2.8-8.4s-9.8 1.4-15.4 0c-8.4 6.3-14 4.2-18.9-3.5-3.5 2-9.1 6.2-11.9 9z"/><path class="st4" d="M426.6 429.7s9.8-.7 14.7-3.5M433.6 440.9s9.1.7 14-2.1"/><path class="st5" d="M308.4 350.7c-5.6 12.6-18.2 68.5-26.6 85.3-2.1 5.6 15 27.6 31.8 28.3 16.8.7 24.8-3.1 33.9-5.9s49.6-11.9 49.6-11.9l-4.9-23.1s-30.1-10.5-76.2-.7c15.5-4 15.9-12 23-23.9 11.9-20 18.9-43.2 18.9-43.2"/><path class="st7" d="M510.7 133.3 537 135c0-.6 0-1.2.1-1.7.1-1.7.4-3.7.9-6.1l-26.3-3.7c-.4 3.8-.7 7.1-1 9.8zM511.7 123.4l26.3 3.7c.4-2.1 1-4.4 1.7-6.8l-26.4-7.3c-.7 3.8-1.2 7.3-1.6 10.4z"/><path class="st0" d="M510.5 135.3c-1.4 12.6-10.5 25.9-18.2 44.8 14.7-2.8 31.5-28 31.5-28s3.5 28 16.1 30.1c0-14.7-3.2-33.9-2.9-47.2l-26.3-1.7c0 .7-.1 1.4-.2 2z"/><path class="st7" d="m513.3 113.1 26.4 7.3c.5-1.6 1-3.3 1.7-5l-25.1-14.2c-1.3 4.1-2.2 8.1-3 11.9z"/><path class="st13" d="m520 91.6 23.6 18.1c.8-1.9 1.7-3.7 2.7-5.5l-23.4-18.3c-1.1 1.9-2 3.8-2.9 5.7z"/><path class="st3" d="m522.9 86 23.4 18.3c1-2 2.1-3.9 3.3-5.8l-22-19.8c-1.7 2.4-3.3 4.8-4.7 7.3zM516.3 101.3l25.1 14.2c.7-1.9 1.4-3.7 2.3-5.6l-23.6-18.1c-1.5 3-2.8 6.3-3.8 9.5zM532.2 73.2l20.1 21.3c1.1-1.4 2.2-2.8 3.4-4.1L539.1 67c-2.6 2-4.8 4-6.9 6.2z"/><path class="st13" d="M545.5 62.6c-2.3 1.4-4.4 2.8-6.4 4.4l16.7 23.4c4.9-5.3 10.6-9 17-9.6 9.1-1.4 22.4-4.2 22.4-4.2l7.7-11.9c-.1 0-19-18.2-57.4-2.1zM527.6 78.7l22 19.8c.9-1.4 1.8-2.7 2.7-4l-20.1-21.3c-1.6 1.8-3.2 3.6-4.6 5.5z"/><path class="st4" d="M545.5 62.6c-16.3 9.7-24.7 24.6-29.2 38.7l25.1 14.2c5.6-15.3 16.5-33.2 31.4-34.6 9.1-1.4 22.4-4.2 22.4-4.2l7.7-11.9c-.1-.1-19-18.3-57.4-2.2z"/><path class="st7" d="m750 149-26.3-1.3c.1-.6.1-1.2.1-1.7.1-1.7.1-3.8-.2-6.1l26.5-.7c.1 3.7 0 7.1-.1 9.8zM750.2 139l-26.5.7c-.2-2.1-.5-4.5-1-7l27.1-4.2c.3 3.8.4 7.4.4 10.5z"/><path class="st0" d="M750 151c-.1 12.7 7.4 26.9 12.9 46.5-14.3-4.5-28-31.4-28-31.4s-6.7 27.4-19.4 28c1.7-14.6 7.1-33.4 8.3-46.6l26.3 1.3c-.1.9-.1 1.6-.1 2.2z"/><path class="st7" d="m749.8 128.6-27.1 4.2c-.3-1.6-.7-3.4-1.1-5.1l26.5-11.2c.9 4.2 1.4 8.3 1.7 12.1z"/><path class="st13" d="M745.6 106.5 720 121.8c-.6-1.9-1.3-3.9-2-5.8l25.3-15.5c.9 2.1 1.6 4 2.3 6z"/><path class="st3" d="M743.4 100.6 718 116c-.8-2.1-1.7-4.1-2.6-6.1l24.1-17.1c1.5 2.6 2.8 5.1 3.9 7.8zM748.2 116.5l-26.5 11.2c-.5-1.9-1-3.9-1.6-5.9l25.6-15.3c1 3.4 1.8 6.7 2.5 10zM735.6 86.8l-22.4 18.8c-.9-1.6-1.9-3.1-2.9-4.5l19.3-21.3c2.2 2.3 4.2 4.6 6 7z"/><path class="st13" d="M723.6 74.8c2.1 1.6 4.1 3.4 5.9 5.1l-19.3 21.3c-4.2-5.8-9.4-10.1-15.8-11.5-8.9-2.4-21.7-6.7-21.7-6.7l-6.3-12.7s20.9-16 57.2 4.5zM739.5 92.8l-24.1 17.1c-.7-1.5-1.5-2.9-2.3-4.3l22.4-18.8c1.5 2 2.8 4 4 6z"/><path class="st4" d="M723.6 74.8c15.1 11.5 21.7 27.3 24.5 41.7l-26.5 11.2c-3.8-15.9-12.6-34.9-27.2-38-8.9-2.4-21.7-6.7-21.7-6.7l-6.3-12.7s20.9-16 57.2 4.5z"/><path class="st0" d="M663 125.5s6.3-23.1 24.5-23.1c10.5-.7 7-8.4 7-8.4l-9.1-25.2-21.7 4.9L649 115l-6.3 18.2 20.3-7.7z"/><path class="st7" d="m702.9 126-18.4-2.9c-.2 3.2-.4 6.5-.6 9.8L702 135c.2-3 .5-5.9.9-9z"/><path class="st7" d="m701.9 134.8-18.1-2.1c-.2 4-.4 7.9-.5 11.8l17.8.4c.2-2.8.5-6.2.8-10.1z"/><path class="st13" d="M685.9 92.9v5.9l19.4 4.5c.2-2 .4-3.9.6-5.8l-20-4.6z"/><path class="st3" d="m684.5 123 18.4 2.9c.2-2.2.5-4.5.7-6.9l-18.6-4.3c-.2 2.8-.4 5.6-.5 8.3zM685.6 105.5l19 4.7c.2-2.3.5-4.5.7-6.7L685.9 99c-.1 2-.2 4.2-.3 6.5z"/><path class="st13" d="m685 114.8 18.6 4.3c.3-3 .7-6 1-9l-19-4.7c-.2 3.1-.4 6.2-.6 9.4zM707 75.9c-1.4-9.1-7-24.5-25.2-25.9-28-.7-40.6 31.5-43.4 44.1s-9.8 14-9.8 14l1.4 27.3 18.9-9.8s14-47.2 30.8-48.6c3.6-.3 5.3 3.7 5.9 10.3l20.7 4.8c.7-7.8 1.1-13.8.7-16.2z"/><path class="st3" d="m706.3 92-20.7-4.8c.2 1.7.2 3.6.3 5.6l19.9 4.7c.2-1.9.4-3.7.5-5.5z"/><path class="st7" d="M701.1 152.1c-.2-1.1-.2-3.7 0-7.1l-17.8-.4c-.1 3.5-.1 6.9-.1 10.2l18.3-.8c-.2-.7-.3-1.3-.4-1.9z"/><path class="st0" d="m701.5 153.9-18.3.8v.1c0 11.2-2.1 20.3-7.7 31.1 14.7-7.3 16.8-17.1 16.8-17.1s9.8 13.3 25.2 12.6c-7.1-8.3-13.8-20.2-16-27.5z"/><path class="st4" d="M707 75.9c-1.4-9.1-7-24.5-25.2-25.9-28-.7-40.6 31.5-43.4 44.1s-9.8 14-9.8 14l1.4 27.3 18.9-9.8s14-47.2 30.8-48.6c8.3-.7 6.4 21.4 4.7 46.1l18.4 2.9c2.2-19.9 5.1-44.6 4.2-50.1z"/><path class="st0" d="M582.5 96.2c27.3 0 21.7 30.1 21.7 30.1l21.7 9.1 4.2-21.7L614 76.6l-23.1 2.8s-11.9 10.5-8.4 16.8zM550.4 164.7c-.7 8.4-.7 18.9-7 36.4 21-11.9 26.6-27.3 26.6-27.3s7.7 17.5 27.3 15.4c-5.4-6.7-15-17.4-15.7-27.6l-31.1 2c-.1.4-.1.8-.1 1.1z"/><path class="st1" d="m551.2 151.9 30.4-1c0-2.7.1-5.7.2-8.9l-29.8-.9c-.3 3.9-.6 7.5-.8 10.8z"/><path class="st1" d="m550.4 163.6 31.1-2v-1.1c0-2.4 0-5.8.1-9.6l-30.4 1c-.4 5-.6 9.1-.8 11.7zM552 141.1l29.8.9c.1-3 .1-6 .2-9.1l-28.7-3.1c-.5 3.8-.9 7.7-1.3 11.3z"/><path class="st13" d="M638.5 94.1c-1.4-8.4-15.4-28.7-35.7-29.4-20.3-.7-35.7 18.2-43.4 38.5-2.9 7.7-4.8 17.3-6.1 26.6l28.7 3.1c.2-8.8.6-17.5.9-23.4.7-13.3 10.1-23.8 19.9-23.1 23.1 2.8 18.9 40.6 18.9 40.6l16.1.7c0-.1 2.1-25.2.7-33.6z"/><path class="st14" d="m582.7 114.2-24.4-7.6c-.7 2.1-1.3 4.2-1.8 6.5l26.1 5.1c-.1-1.4 0-2.7.1-4z"/><path class="st14" d="m584.2 118.5.2-3.8-1.8-.6c-.1 1.3-.1 2.6-.2 4l1.8.4z"/><path class="st3" d="M556.4 113.1c-.6 2.2-1 4.5-1.5 6.8l27.3 5.3c.1-2.4.2-4.8.2-7.1l-26-5zM559.5 103.2c-.4 1.1-.8 2.3-1.2 3.5l24.4 7.6c.1-1.7.1-3.3.2-4.8 0-.8.1-1.6.2-2.4l-22.4-7c-.4 1-.8 2-1.2 3.1z"/><path class="st4" d="M638.5 94.1c-1.4-8.4-15.4-28.7-35.7-29.4-20.3-.7-35.7 18.2-43.4 38.5-2.9 7.7-4.8 17.3-6.1 26.6l28.7 3.1c.2-8.8.6-17.5.9-23.4.7-13.3 10.1-23.8 19.9-23.1 23.1 2.8 18.9 40.6 18.9 40.6l16.1.7c0-.1 2.1-25.2.7-33.6z"/><path class="st7" d="M618.2 154.9c-6.4-13.4-6.4-13.4-14-28.7 25.9-6.3 58.7-.7 58.7-.7l-16.8 28.7-27.9.7z"/><path class="st5" d="M628 170.3s-14.7 4.9-14-8.4c0-6.3 9.1-15.4 17.5-15.4s18.2 3.5 16.8 12.6c-1.4 9.1-12.6 9.8-12.6 9.8l-7.7 1.4z"/><path class="st3" d="m636.4 163.3-2.8 92.3 21.1-3.2 2.4-88.3z"/><path class="st2" d="m674.1 164.7-17-.6-2.4 88.3 11.8-1.7z"/><path class="st4" d="m636.4 163.3 37.7 1.4-7.6 86-32.9 4.9z"/><path class="st5" d="M625.2 163.3c-.7 4.9-1.4 154.5-1.4 154.5l11.9-1.4s4.9-151.7 3.5-154.5c-1.4-2.8-13.3-3.5-14 1.4z"/><circle class="st6" cx="638.8" cy="396.1" r="62.9"/><circle class="st7" cx="593.7" cy="375.9" r="16.8"/><path class="st4" d="m597.2 382.2 6.3 4.9M602.8 377.3l4.9 2.1M599.3 370.3l7.7-1.4M594.4 366.1l3.5-4.9M586.7 368.2l-2.8-4.9M583.9 375.2l-4.2-2.8M590.2 389.9v-10.5"/><circle class="st7" cx="668.9" cy="359.4" r="16.8"/><path class="st4" d="m675.9 361.2 7.9-1.2M676.1 353.8l4.9-2.2M668.7 351.5l4.2-6.5M662.3 352.2l-1.2-5.9M658.5 359.3l-5.5-1.4M661.7 366.1l-4.9 1.1M676.7 371.6l-7.7-7.2"/><circle class="st7" cx="669.1" cy="431.1" r="16.8"/><path class="st4" d="m676.1 432.8 7.9-1.2M676.4 425.4l4.8-2.1M668.9 423.1l4.2-6.5M662.4 423.8l-1.1-5.9M658.7 430.9l-5.5-1.3M661.9 437.7l-4.9 1.2M676.9 443.2l-7.6-7.2"/><circle class="st7" cx="616.8" cy="440.2" r="16.8"/><path class="st4" d="m619.2 447 5.3 5.9M625.5 443.2l4.5 2.9M623.3 435.7h7.8M619.2 430.7l4.3-4.2M611.3 431.4l-1.9-5.3M607.3 437.8l-3.6-3.5M610.9 453.3l1.9-10.3"/><circle class="st7" cx="635.3" cy="395.8" r="23.1"/><path class="st4" d="M633.9 399.3c8.7 6.6 1.4 19.6 1.4 19.6M623.1 412.2l3.5-6.3M614.7 403.1l6.3-4.2M614.7 389.9l9.1 1.4M622.4 378.7l4.2 7M630.1 375.2l2.1 6.3M638.8 374.5l-.7 6.3M642 385.7l4.9-6.3M646.9 392.6l8.4-2.7M646.2 403.1l9.8 1.4"/><path class="st0" d="M638.8 315c-46.3 0-83.9 37.6-83.9 83.9s37.6 83.9 83.9 83.9 83.9-37.6 83.9-83.9-37.5-83.9-83.9-83.9zm0 144.1c-34.8 0-62.9-28.2-62.9-62.9s28.2-62.9 62.9-62.9 62.9 28.2 62.9 62.9-28.1 62.9-62.9 62.9z"/></svg>