<svg version="1.1" id="Calque_1" xmlns="http://www.w3.org/2000/svg" x="0" y="0" viewBox="0 0 900 900" style="enable-background:new 0 0 900 900" xml:space="preserve"><style>.st0,.st1,.st2,.st3,.st4,.st5{fill:#ffce00;stroke:#000;stroke-width:4.103;stroke-linecap:round;stroke-linejoin:round;stroke-miterlimit:10}.st1,.st2,.st3,.st4,.st5{fill:#fff}.st2,.st3,.st4,.st5{fill:red}.st3,.st4,.st5{fill:none}.st4,.st5{fill:#107f00}.st5{fill:#ffeb99}</style><path class="st0" d="M682.9 435.6s4-.4 8.3-1.2l1.7-14.8c-5.7.7-12 1.6-12 1.6s5.3-1.9 10.1-4.7l-10.1-15.4c-1 .9-2.2 1.8-3.4 2.7-17 12.7-55 13-67.7 4-11.8-8.3-19.9-22.6-27.4-39.3-3.5.6-7.2 2.2-9.8 4.2 3.7 4.7 10.2 13.6 10.2 17 0 2.1-2 4-4.2 5.4.1.1.1.1.1.2 4.5 6.8 9.6 19.1 3.8 33.5s-26.5 36.6-34.2 41.5-53.2-3.8-53.2-3.8l23.5 40.5s22.9 6.5 37.3 1.6c14.5-4.9 50.8-57.7 50.8-57.7s18.5 11.1 31.5 15.6c9.3 3.2 31.1 4.1 44 4.3l4.7-13.3c-7.7-.6-14.8-2.4-23.3-3.5 11.4-.8 21.5-2.2 29-3.4l.8-15.8c-5.5.5-10.5.8-10.5.8z"/><path class="st1" d="m563.3 639.1-11.4-7.8c-.1 2.6-.1 5.3-.1 8.2 0 2.1.1 4.3.2 6.4l11.1 5.2c0-3.8 0-7.8.2-12zM563.4 636.5c.9-16.1 3.1-29.3 5.7-39.4l-9.8-11.3c-4 15.5-6.8 26.1-7.2 45.5l11.4 7.8c-.2-.9-.1-1.8-.1-2.6z"/><path class="st1" d="m577.3 573.2-14.2-2.7c-1.4 5.7-2.6 10.7-3.8 15.3l9.8 11.3c3.9-15.8 8.2-23.9 8.2-23.9zM563.3 651.2l-11.1-5.2c.3 5.9.8 11.6 1.6 16.9l10.9 4.9c-.8-5.1-1.2-10.6-1.4-16.6zM556.6 680.2c2.4 11.6 4.9 19.1 4.9 19.1h12.3s-2.9-4.9-5.6-14.6l-11.6-4.5z"/><path class="st1" d="m564.6 667.6-10.9-4.9c.8 6.4 1.9 12.3 2.9 17.4l11.6 4.6c-1.3-4.5-2.6-10.3-3.6-17.1zM630.3 582.8c0-17-14.7-31.9-14.7-31.9l-14.9 5.4 9.5 15.8 20.2 11.6c-.1-.4-.1-.6-.1-.9zM630.3 583.7l-20.2-11.6 7.5 12.4s-.8 3.1-1.6 7.7l11.1 10.6c1.5-5.6 3-11.3 3.2-19.1zM628.4 640.7l-14.4-3.6c1.6 5.5 4 11.2 6.5 16.3l15.1 3.1c-2.3-4.5-5-10.1-7.2-15.8zM641.2 666.9s-2.5-4.2-5.6-10.3l-15.1-3.1c5.8 11.8 12.5 21 12.5 21l8.2-7.6z"/><path class="st1" d="M623.8 622.4c-.2-7.9 1.6-13.6 3.3-19.7L616 592.1c-8.9 10.6-4.3 23.9-3.8 34.4.1 3.4.8 6.9 1.8 10.5l14.4 3.6c-2.6-6.5-4.6-13.1-4.6-18.2z"/><path class="st0" d="m377.9 725.7-26.6 65 33.1 1.7 44.1-68.4z"/><path class="st2" d="M402.9 808.4s29.1-1.7 34.2 3.1-3.4 23.6-9.2 25.6c-5.8 2.1-28.4-9.2-28.4-9.2l3.4-19.5zM587.9 800.7s40.1-1.6 45.9 2.3c5.8 3.9-9 19.7-14.4 22.6-5.4 3-31.8-5.1-31.8-5.1l.3-19.8z"/><path class="st0" d="m502.9 725 31 67.4s32.6-2.5 32.3-3.4c-.2-.9-21.4-68.8-21.4-68.8l-41.9 4.8z"/><path class="st2" d="M384.4 794.9s19.5-1.2 23.6 6.2-6.2 18.1-6.2 18.1l-17.4-6.4v-17.9h0zM567.4 790.4s19-4.3 24.3 2.2c5.3 6.6-3.1 18.9-3.1 18.9l-18.3-3.4-2.5-15.3-.4-2.4z"/><path class="st0" d="M383.4 803s39.4 25.6 45.1 30.1c5.7 4.4 6.8 10.4 5.5 13.3-1.4 2.9-9.2 2.9-11.3 0-1.7 6-8.9 3.8-9.2-1.4.3 4.4-8.9 4.8-10.6 0-.7 3.8-7.2 5.5-8.9-1.4-1 3-6.2 4.1-8.5 2.7s1.2-9-5.1-9.9c-4.1-.6-16.1-17.3-16.1-17.3l8.8-19.4 10.3 3.3z"/><path class="st3" d="M394 843.7c1.7-6.2-1.4-10.1-1.4-10.1M402.9 845c1.7-6.2-1.6-12.4-1.6-12.4M413.5 845c1.7-6.2-3.8-12.4-3.8-12.4M422.7 846.4c1.7-6.2-3.7-13.8-3.7-13.8"/><path class="st0" d="M567.8 798.5s43.1 18.8 49.5 22.2 8.5 9.1 7.6 12.2-8.6 4.4-11.1 1.8c-.7 6.2-8.1 5.2-9.3.2 1.1 4.3-8 6.2-10.5 1.8-.1 3.8-6.2 6.6-9 .1-.5 3.1-5.4 5.1-8 4.1s-.6-9.3-3-9c-4.1.6-22.4-14.4-22.4-14.4l5.5-20.7 10.7 1.7z"/><path class="st3" d="M584.9 836.9c.7-6.4-3-9.7-3-9.7M593.9 836.8c.7-6.4-3.6-12-3.6-12M604.3 835c.7-6.4-5.8-11.6-5.8-11.6M613.7 834.8c.7-6.4-5.9-13-5.9-13"/><path class="st1" d="m377.9 800.2-24.6-2.4s-10.1 17.3-16.3 28.7l42.2 3.1-1.3-29.4z"/><path class="st1" d="M337 826.5c-2.9 5.1-4.9 9.1-4.9 9.6 0 1.7 43.2 5.3 46.2 4.4 2.9-.9.9-11 .9-11l-42.2-3zM567.4 794.8l-30.2 3.7s-1.7 11.4-5.9 23.6l45.1 1.4-9-28.7z"/><path class="st1" d="M531.2 822c-2 5.5-3.4 9.8-3.2 10.3.3 1.7 44.4 1.7 47.2.3s1.2-9.2 1.2-9.2l-45.2-1.4z"/><path class="st2" d="M348.5 786.2c-4.8 2.7-5.1 12 0 14s33.2 4.4 37.6 4.4 5.7-11.6 3.8-14.7-36.6-6.4-41.4-3.7zM530.6 787.7c-4.2 3.5-3.1 12.7 2.3 13.8s33.4-1.1 37.8-1.8c4.4-.8-.1-11.8-2.5-14.6s-33.3-.9-37.6 2.6zM315.7 747.9c0 8.2 20 16.4 23.1 11.6.9-1.3 4.3-14.6 8.9-33.2L322 712.7c-3.6 17.4-6.3 32.1-6.3 35.2zM241.8 716.7c0 4.4 17.4 14 21.5 10.3 1.7-1.5 10.3-17 19.8-34.7L261.6 681c-11.3 19.7-19.8 34.2-19.8 35.7zM276 733.2c.7 6.2 22.2 12.3 23.6 8.5.5-1.5 6.2-16.3 12.9-33.9l-23.4-12.3c-7.3 18.6-13.3 35.2-13.1 37.7zM300.3 667.1c-1.9 4.7-3.9 9.7-5.9 14.8l23.5 12c1.8-4.9 3.7-9.7 5.5-14.4l-23.1-12.4zM325.1 697.5l26.4 13.5c1.2-4.7 2.3-9.6 3.5-14.5l-26.7-14.3c-1 4.9-2.1 10.1-3.2 15.3z"/><path class="st1" d="M325.1 697.5c-1.1 5.1-2.1 10.3-3.1 15.2l25.7 13.6c1.2-4.8 2.5-10 3.8-15.4l-26.4-13.4zM268.8 668.8c-2.5 4.2-4.8 8.3-7 12.2l21.5 11.3c2.3-4.2 4.5-8.4 6.8-12.7l-21.3-10.8zM294.4 681.9c-1.8 4.5-3.6 9.1-5.3 13.5l23.5 12.4c1.7-4.5 3.6-9.2 5.3-14l-23.5-11.9z"/><path class="st2" d="m297.4 665.6-20.4-11c-2.8 4.9-5.5 9.6-8.2 14.2l21.2 10.8c2.5-4.8 5-9.5 7.4-14z"/><path class="st1" d="M312.9 636.3s-5.7 13.7-12.6 30.8l23 12.4c6.8-17.9 12.5-32.8 12.5-32.8s-3.5 16.1-7.6 35.4l26.7 14.3c11.4-47.8 24.7-105.3 24.7-105.3l-29.5-30.2s-12.6-1-30.4 8.5c-3.6 15-23.8 52-42.8 85.1l20.4 11c8.8-16.2 15.6-29.2 15.6-29.2z"/><path class="st3" d="m340.5 575.6-27.6 60.7M358.1 582.8l-22.2 63.9"/><path class="st2" d="m376.2 580.2-12 151.6s8.6.3 22.2.6l11-166.3-21.2 14.1zM557.7 731.9c-11.4-36.9-42.9-162.1-42.9-162.1l-14.6-5.1 41.2 168.7c7.4-.4 13-.9 16.3-1.5z"/><path class="st1" d="M500.2 564.7 460 550.8l-61.9 14.9-.5.4-11.1 166.3c7.8.2 17.2.4 27.6.7l5.7-95.4 15.5 2.3-2.5 93.4c15.2.3 31.6.5 47.3.6l-16.8-90.6 14.5-6.1 19.3 96.8c17.3 0 33-.2 44.4-.8l-41.3-168.6z"/><path class="st2" d="m419.7 637.8-5.7 95.4c5.9.1 12.2.3 18.7.4l2.5-93.4-15.5-2.4zM463.3 643.6l16.8 90.6c5.7.1 11.4.1 16.8.1l-19.1-96.7-14.5 6zM313 545.8c1 10.1 16.1 20 16.1 20l21.2-3.2-1.7-31.5-26-4.1c-.1 0-10.7 8.7-9.6 18.8z"/><path class="st1" d="M504 462.9c20.2-1.9 25 38.8 11.7 56.2s-18.2 17.8-18.2 17.8L465 541s-22.7-3.4-23.8-4.9c-1.2-1.6-9-57.9-9-57.9l17.6-16s34.1 2.6 54.2.7z"/><circle class="st0" cx="473.1" cy="524" r="7.9"/><circle class="st0" cx="493.8" cy="517.1" r="7.9"/><circle class="st0" cx="510.5" cy="496.3" r="7.9"/><circle class="st0" cx="513.6" cy="466.7" r="7.9"/><path class="st4" d="m463.1 446 29.9-12 18.6 5.3-4.5 22s2.5 41-18.5 50.6c-21 9.6-28.7 2.7-28.7 2.7l-11.1-61.1 14.3-7.5z"/><path class="st2" d="M308.5 382.3c-4.4-4.2-28.4 4-30.4 9.4-.7 1.8 4.2 15 10.9 31.8l29.5-14.6c-4.8-14.7-8.7-25.4-10-26.6zM353.7 375.4c-3.1-3.6-33.4-1.2-33.4 3.1 0 1.4 2.7 14.2 6.4 31.1l32.2-7.8c-2.4-14.5-4.4-25.3-5.2-26.4z"/><path class="st1" d="m318.4 408.8-29.5 14.6c1.6 3.9 3.2 7.9 4.9 12.1l28.9-13.6c-1.5-4.6-2.9-9-4.3-13.1z"/><path class="st2" d="m322.7 421.9-28.9 13.6c1.5 3.6 3.1 7.4 4.7 11.1l27.8-13.5c-1.2-3.8-2.4-7.5-3.6-11.2z"/><path class="st1" d="m362.3 424.9-30.9 6.2c7.4 33.2 15.8 69.8 15.8 69.8s-10.7-35.6-20.9-67.7l-27.8 13.5c12.1 29 25.2 58.5 25.2 58.5l31.4 8.5 16.3-24.3s-4.5-33.7-9.1-64.5z"/><path class="st2" d="m360.7 413.7-31.7 6.8c.8 3.5 1.6 7 2.4 10.7l30.9-6.2c-.5-3.9-1.1-7.6-1.6-11.3z"/><path class="st1" d="m358.9 402-32.2 7.7c.8 3.4 1.6 7 2.4 10.8l31.7-6.8c-.7-4.1-1.3-8-1.9-11.7zM301.4 298.4l-29.3 6.6c3.1 11 8.3 25.6 17.1 39.9l27.4-13.2c-7.3-11.2-12.1-23-15.2-33.3z"/><path class="st1" d="m297.5 282.6-29.4 3.6s.9 7.6 4 18.8l29.3-6.6c-1.8-5.8-3-11.2-3.9-15.8zM327 345.3c-4-4.3-7.4-8.9-10.4-13.5L289.2 345c3.9 6.3 8.4 12.6 13.7 18.5 6.3 7 12.9 12.7 19.4 17.4l18.2-23.9c-4.7-3.2-9.3-7.1-13.5-11.7zM340.5 357l-18.2 23.9c16.4 11.9 32.6 17.1 45 19.4l7.7-29.5c-10.5-2.1-22.9-6-34.5-13.8zM386.2 375.8c-.1-1.3-.1-2.5-.2-3.8-3.3-.3-7-.7-10.9-1.4l-7.7 29.5c7.7 1.4 13.8 1.6 17.7 1.6 1-7.9 1.6-16.6 1.1-25.9z"/><path class="st2" d="M317.4 277.9s-52.5-1.3-57 1.2-2.4 12.7 1.9 12.7 59.9-5.6 59.9-5.6l6.7 18.2s-65.9 19.8-68.5 22.1-1.8 10.1 3.3 10.1c5 0 68.6-23.5 68.6-23.5l12 19.1c-23.4 15.5-57.2 31.2-60.4 34.9-3.1 3.7 2.3 11.8 8.5 9.4s57.9-37.5 57.9-37.5l9.7 7s-30.2 48.7-31.2 54.4c-1 5.7 11.6 9.6 15.4 6.8 3.8-2.9 29.1-58.8 29.1-58.8l23-2.4-78.9-68.1z"/><path class="st2" d="m375.1 262.7-33.2 14.5-14 1.7c2.2 11.6 8 25.7 21.5 39.8 11.2 11.8 23 17.8 33.7 20.6-2.1-19.5-3.1-29 4.4-44.3 1.9-4 5.6-7.9 10.4-11.5l-22.8-20.8z"/><path class="st2" d="M341.4 333.5c-17.3-16.1-23.5-37.2-25.5-53.1l-18.4 2.3c2.9 15.6 10.4 41.7 29.5 62.6 18.5 20.2 43.4 25.6 59 26.8-.3-5-.6-9.5-1-13.7-10-2.2-25.6-8.3-43.6-24.9z"/><path class="st1" d="M341.4 333.5c18 16.7 33.6 22.7 43.6 24.8-.6-7.3-1.3-13.5-1.8-18.9-10.7-2.8-22.5-8.8-33.7-20.6-13.5-14.2-19.3-28.2-21.5-39.8l-12.2 1.4c2.2 15.9 8.4 37 25.6 53.1zM376.2 460.6c-.7-.2-9.8.7-15.7 7.5s-9 24 1.4 40.1c11.4 17.8 56.6 17.8 56.6 17.8l-15-67.2-27.3 1.8z"/><path class="st0" d="M310.9 234s-9.4-10.9-30.8-16.4c-21.4-5.5-30.8-10.6-39-10.6s-47.9 11.6-50.6 15.4c-2.7 3.8 6.8 7.3 11.3 7.1 4.4-.2 45.8-13.3 52.8-6.9 2 1.8-3.9 7-9 8.9-5.1 1.8-15.4 1.2-21.2 1.2s-12 7.8-7.9 9.9c4.1 2.1 20.7 6.5 30.4 2.7s13.3-11 21.2-13.2 29.4 5.7 29.4 5.7l13.4-3.8zM253.5 160.2s-10.4-5.5-14.4-19.5-1.6-16.1-4.1-23.9-9.4-7.2-9.6-14c-.2-6.8 18.6 3.1 22.8 10.9 4.2 7.9 2.5 13.7 6.6 23.7s21.5 20.9 21.5 20.9l-6.1 13.1-16.7-11.2zM221 147.3c-12-12.2-10.3-25.8-16.8-27.9s-16.1 3.1-16.1-1.4 16.9-10.6 25.5-4.1 13.7 31 25.4 39.5c11.9 8.5-6 6.1-18-6.1z"/><circle class="st0" cx="122.5" cy="180.5" r="9.2"/><circle class="st0" cx="170.4" cy="188.8" r="9.2"/><circle class="st0" cx="188.2" cy="123.6" r="9.2"/><circle class="st0" cx="145.1" cy="102.7" r="9.2"/><path class="st0" d="M192.7 129.9s-66.4-29.3-70.2-27.1c-3.8 2.1-2.7 12 4.4 16.4 7.2 4.4 50.3 24.6 50.3 24.6s-57.8-15.8-62.6-13.9c-4.8 1.9-2.4 8.8 2.7 12.9s51.6 13.7 51.6 13.7-55.4-1.6-58.5 2.9 6.5 15.9 12.7 15.9 50.6-3.9 50.6-3.9l16.4-35 2.6-6.5z"/><path class="st1" d="M192.7 129.9 172.9 180c3.7 2.1 10.5 5.1 19.4 9l18.8-51.5c-8-3.4-14.3-6-18.4-7.6z"/><path class="st0" d="M188.5 128.2c-13-5-17.8 6.4-9.2 13.8-11.6-2.4-19.1 9.6-5.5 18.1-14-3.4-18.1 8.1-3.1 18.5.5.3 1.2.8 2.1 1.3l19.8-50.1c-1.8-.7-3.3-1.3-4.1-1.6zM380.7 202.1c-15.1-6.2-53.9-16.8-87.7-30.8l-17.1 50.2c26.3 9.5 50.3 17.4 61.6 19.4 30.9 5.6 79.5-24.1 43.2-38.8zM210.9 137.3l-18.8 51.5c7 3 15.4 6.5 24.5 10.1l18.5-51.6c-8.9-3.7-17.1-7.1-24.2-10z"/><path class="st1" d="m276.2 164.3-17.2 51c5.7 2.1 11.3 4.2 16.8 6.2l17.1-50.2c-5.4-2.3-11-4.6-16.7-7zM235.2 147.3l-18.5 51.6c8.7 3.5 18.1 7.2 27.8 10.9l17.2-51.6c-9.3-3.8-18.3-7.5-26.5-10.9z"/><path class="st0" d="m261.5 158.3-17.2 51.6c4.9 1.8 9.8 3.7 14.7 5.5l17.2-50.9c-4.9-2.2-9.8-4.2-14.7-6.2z"/><path class="st3" d="m179.3 142 112 43.8M173.8 160.2l113.5 43.4"/><path class="st0" d="M324.2 237.4s-15.7-10.6-28-8.6S278.8 242 274 248s-19.1 4.3-17.1 9.2c2.1 4.9 16.8 4.5 26.3.7 9.6-3.8 7.2-11.8 16.1-15.6 8.9-3.8 26.7 3 26.7 3l-1.8-7.9zM347.8 209.4s-19.1-6.2-20.5-17.8c-1.4-11.6 5.1-10.9 2.1-20.5-3.1-9.6-7.9-9.2-7.9-12.7 0-3.4 14-.3 16.2 10.9 2.2 11.2 1.4 13 1.4 20.2s14.6 10.9 14.6 10.9l-5.9 9zM268.2 161s-14.8-7.1-17.3-2.6c-2.5 4.6-2.7 15 .3 16.6 3 1.6 18.4-.7 18.4-.7l-1.4-13.3z"/><path class="st0" d="M270.9 158.9s-7.5-9.4-8.2-14.9 8.8-12.7 15-6.2c6.3 6.5 6.4 19.2 6.4 19.2s7.9 1.8 7.2 0c-.6-1.8 2.8-17.5 7.9-18.5 5.1-1 12 7.5 11.6 13-.3 5.5-13.3 11.3-13.3 11.3l4.8 6.2s14.7 3.8 17.8 5.3c3.1 1.6 2.4 11.5-.7 13.5s-19.5-6.2-19.5-6.2l-7 7.5s9.8 14 8.4 17.8c-1.4 3.8-14.4 8.2-17.3 2.4-2.9-5.8-5.3-19.8-5.3-19.8s-7.1 11.4-12.9 11.4c-5.8 0-11.6-4.6-7.9-10.7 3.7-6.2 13.1-20.9 13.1-20.9l-.1-10.4h0z"/><circle class="st0" cx="284" cy="174.3" r="22.8"/><circle class="st2" cx="284" cy="174.3" r="8.9"/><path class="st0" d="M422 149.8c-1.6-33.4 48.3-33.6 48.3-33.6l81.2-16.5 7.7 47.6s-72.1 6.3-87.5 22.8c-15.5 16.6-20.2 47.2-20.2 47.2l-29.4-4.2s-8.8-13.9-9.6-14.8c-1-.9-8-8.3 9.5-48.5zM447.3 323.8l61.6-23s13.2 15.9 14.2 21.4-.5 9.8 1.4 14.4c1.8 4.6 27.6 23 31.9 30.4 4.4 7.4.7 11.5-4.8 13.5-5.5 2.1-15.9 2.5-21.9 1.6s-5.3-10.1-.9-12.5c4.3-2.5 10.7.7 11.4.7L518.3 398l4.8 30.8-60.5 28.1-37.5-51.8-14.4-78.8 36.6-2.5z"/><path class="st5" d="M531.6 343.8 495.7 405s5.2 1 7.2 2.4 40.4-13.7 40.4-13.7l-3.2-15.2 10.3-18.4c-5.5-5.1-13.3-11.3-18.8-16.3z"/><path class="st0" d="M457.6 189.8s.3-18 14.8-28.9c14.5-10.9 56.4-3.4 60.7-2.6s9.6 10.4 1.4 11.4c-6.9.9-38.3-4.7-50.5 2.1-12.2 6.8-19.9 24.3-19.9 24.3l-6.5-6.3z"/><path class="st1" d="M412.2 516.2c-11.8-1.8-55.5 15.6-63.4 31.3-7.9 15.7-9.6 49 21.9 49s70.8-30.9 73.6-40.5c2.7-9.6-20.3-38-32.1-39.8z"/><path class="st0" d="M407.4 201s-8.1-27.1-12-33.7c-3.8-6.6-13.1-11.5-16.1-20s.7-28.2 5.1-28.2 2.6 17.1 5.4 22.9c2.8 5.8 11.4 12 17.6 20.5 6.2 8.5 7.6 19.4 7.6 19.4l-7.6 19.1zM478.1 95.2s.4-12.7-2.7-17.1-13.9-3.8-14.4 2.7 5.5 14.4 5.5 14.4l-10.1 5.2s-10.5-9.3-15.2-8.8-11.5 8.9-7.8 12.5 17.7 7.1 17.7 7.1l-.3 5.9s-17.1 1-21.2 3.8c-4.1 2.7-.2 14 4.5 14s17-7.8 17-7.8l1.4 7.8s-10.9 8.6-12.3 14.4c-1.4 5.8 10.6 12.7 16.3 9.2 5.7-3.4 7.8-19.6 7.8-19.6l6.1 1.4s.4 20 3.6 23.6c3.2 3.6 12.8 1.4 14.2-3.8 1.4-5.1-4-21.3-4-21.3l7-4.1s7.2 15.1 13 15.1 9.9-7.7 9.9-12.6c0-4.9-18.8-13.7-18.8-13.7l-17.2-28.3z"/><circle class="st0" cx="472.4" cy="119.3" r="27.7"/><circle class="st2" cx="472.4" cy="119.3" r="11.6"/><path class="st0" d="M444.9 207s6.4-20.4 11.5-23.8c5.1-3.4 13.3-2.1 13.9 2.6.6 4.7-13.9 29.5-13.9 29.5l-11.5-8.3z"/><path class="st2" d="m482.2 220.8-10.5-21.9c-2.9 1.9-6 3.8-9.2 5.7l9 20.3c3.7-1.3 7.2-2.7 10.7-4.1z"/><path class="st1" d="M331.5 261c-3.2.5-6.6 1.2-10.3 1.8l11.6 22.4c2.9-1.4 5.9-2.8 9-4.2l-10.3-20z"/><path class="st2" d="M352.1 276.2 341.8 259c-3.4.8-6.8 1.4-10.3 2.1l10.3 20c3.4-1.7 6.7-3.2 10.3-4.9z"/><path class="st3" d="M316.5 278.1c.6-.1 1-.3 1-.3s-.5.1-1 .3z"/><path class="st1" d="M412.3 249.2c16-7 38.1-15.9 59.2-24.2l-9-20.3c-16.1 9.8-34.5 20.2-54.2 29.3-34.7 16.1-51.2 21.6-66.5 25l10.3 17.2c18.2-8.3 39-17.8 60.2-27z"/><path class="st2" d="M300 266.8c5.6 12.9 13.7 12 16.5 11.4.6-.2 1-.3 1-.3s-.3.1-1 .3c-3.1 1.2-12.8 5.9-7.9 18.7 6.6-3.2 14.8-7.2 24.3-11.7l-11.6-22.4c-6.1 1-13 2.3-21.3 4zM537.9 199.5s-12.4-9.6-28.4-4.4c17.8-12.3 10.7-30.4 10.7-30.4s-14.4 11.8-37.4 27.1l11.9 24.3c24.4-9.6 43.2-16.6 43.2-16.6z"/><path class="st1" d="m494.7 216-11.9-24.3c-3.6 2.3-7.2 4.8-11.2 7.3l10.5 21.9c4.4-1.8 8.6-3.4 12.6-4.9z"/><path class="st2" d="M310.9 302.6c7.5 15.1 26 5.9 26 5.9s-12.7 7.7-6.2 23.7c6.1-6.1 11.8-11.4 17.8-16.3l-10.9-21.2c-9.6 4.4-18.5 7.3-26.7 7.9z"/><path class="st1" d="m337.7 294.7 10.9 21.2c2.6-2.1 5.3-4.2 8.1-6.2l-10-19.3c-3.1 1.5-6.1 2.9-9 4.3zM488.5 231.8l3.8 22.9c4.2-.5 8.3-1.1 12.4-1.5l-3.6-25.4c-4 1.3-8.3 2.7-12.6 4z"/><path class="st2" d="M555.8 250.4s-.8-16.4-23-17.8c18.7-4.1 15.4-19.1 15.4-19.1s-20.7 6.1-47 14.4l3.6 25.4c28.6-3.2 51-2.9 51-2.9zM476.5 235.6l4.2 20.8c3.9-.6 7.8-1.2 11.6-1.8l-3.8-22.9c-4 1.4-7.9 2.6-12 3.9z"/><path class="st1" d="M412.3 257.9c-20.4 8.1-38.7 18.3-55.1 27.1l10.3 17.4c12.9-8.1 29.1-16.7 52.6-28.2 17.6-8.7 39.6-14.2 60.6-17.6l-4.2-20.8c-23.4 7.4-47.7 15.5-64.2 22.1z"/><path class="st2" d="m346.7 290.4 10 19.3c3.4-2.5 7-4.9 10.9-7.3L357.3 285c-3.6 1.8-7.2 3.7-10.6 5.4z"/><path class="st4" d="M348.9 547.4c3.1-6.2 12-12.7 22.2-18.2 1-14.2.2-31.1-9.2-34.7-16.6-6.4-33 0-34.8 13.2-2.6 5.7-20.6 3.6-20.6 7.7s8.5 4.1 9.1 7.3c.7 3.2-2.7 9.1-2.7 9.1l27.7 6.8v13.2l-31.8 8.7s-1.2 9.1 3.2 10.9c4.3 1.8 5.1-.5 9.8 0s-.5 10.3 8.1 10.3c3 0 8.5-3.8 14.5-8.9-1.1-9 1.1-18.7 4.5-25.4z"/><path class="st2" d="M322.1 511s-4.4-6.2.2-9.4c6.3-4.4 21.3.8 21.7 8.7.2 4.6-9.4 6.7-9.4 6.7l-12.5-6z"/><path class="st1" d="M461 560.6s7.9 23.4 39.3 19.3 29.8-25.8 29.8-25.8l-69.1 6.5z"/><path class="st0" d="M447.8 524.8c-11.8-6-25.8-72-25.8-72l-32.6 12c.1 1 6.2 83 33.9 96.8 10.7 5.3 42.8 3.4 69.7.5l-2-31c-18-1.2-37.3-3.3-43.2-6.3z"/><path class="st2" d="M585 469.3s9.4 41 11.4 44.4c2 3.4 10.3-4 10.3-9.5s-14.5-37.5-14.5-37.5 28.2 34.3 32.3 34.3 7.3-9.9 4.1-12.7c-3.2-2.7-32.1-28-32.1-28s37.6 20.5 41 18.9 1.4-18.9 1.4-18.9L604 442.2l-21.2 16.5 2.2 10.6z"/><path class="st1" d="M648.4 602.6s-33.2 5.3-74.5 6.2c-41.4.9-35.6 17.2 0 15.8s72.8 2.1 72.8 2.1l1.7-24.1zM640.5 637.5s32.1 4.8 35.6 7.9 4.1 8.9 0 10.5-28.4-6-28.4-6l-7.2-12.4zM643.9 674.4s25.6 27.6 25.6 32.1-4.4 8.9-7.9 8.9-22.2-35.9-22.2-35.9l4.5-5.1zM562.9 701.1c-1 1.7-9.6 25.3-9.6 30.1s11.5 7 12.2 3.4c.7-3.6 4.2-30.4 4.2-30.4s5.1 25.3 7.7 29.1 10.5-1.4 10.5-6.2-12.3-28.9-12.3-28.9l-12.7 2.9z"/><path class="st2" d="M613.1 215.4c-11-4.9-24.3-.8-24.7 4-.2 1.9 2.3 8.8 5.5 18.8l26.9-5.6c-1.7-9.1-4.1-15.7-7.7-17.2z"/><path class="st4" d="M593.9 238.1c4.7 14.7 10.9 36.2 12.3 58.7 2.4 37.9 17.9 25.5 17.9 0 0-17.2 0-46-3.4-64.4l-26.8 5.7z"/><path class="st2" d="M661.7 206.6c-2.6-8.1-28.2-4.2-29.8 4.2-.6 3.1 1.1 10.3 2.9 19.8l28.2-5.2c-.3-9.2-.7-16.5-1.3-18.8z"/><path class="st4" d="M634.6 230.5c2.9 15.9 5.7 38.2-2.9 58.7-13.7 32.8 7.6 13.4 7.6 13.4l22.8-21.1s1-33.8.7-56.3l-28.2 5.3z"/><path class="st0" d="M719.2 314.4s.8-12.7 12.1-18.5c11.3-5.7 12.7-13 15.7-15.8 3-2.8 6.7-4.2 7-1 .3 3.2-7.2 10.2-6.4 12 .8 1.8 26.1-9.4 29.1-9.4s3.8 4.9.7 6.6c-3.1 1.8-20.5 6-21.7 9.4S782 294 785 294s4.7 7 .7 8.6-27 2.1-27 5.7 27.7-.7 30.4 1.4c2.7 2.1.3 6.4-2 8.3s-30.4-2.6-30.6-.7c-.3 1.9 13 4.1 13.7 7.1s-3.8 6.1-8 4.7c-4.2-1.5-5.9-3.3-15-3.3-9 0-25-6.6-25-6.6l-3-4.8z"/><path class="st1" d="M702.1 430.4c2.7-3.6 2.4-11.5-1.4-11.5-1.4 0-4.4.3-7.8.8l-1.7 14.8c4.5-1 9.4-2.3 10.9-4.1zM582.7 389.8c0-3.4-6.5-12.2-10.2-17-3.3 2.4-5.1 5.4-3.5 8.1 3.4 5.4 5 7.6 9.4 14.3 2.3-1.4 4.3-3.4 4.3-5.4zM691.8 471.1c3.4 0 5.5-10.7 2.1-12.4-1-.5-3.7-.8-7.1-1l-4.7 13.3c5.1.1 8.8.1 9.7.1zM704.5 434.4c-1.6 0-6.5.3-11.3.5l-.8 15.8c6.2-1 10.5-2 12-2.4 3.5-.7 3.5-13.9.1-13.9zM697.3 411.5c3.8-5.3-4.2-17.7-15-11.4-.4.4-.9.8-1.3 1.2l10.1 15.4c2.5-1.6 4.9-3.4 6.2-5.2z"/><path class="st4" d="M483.6 350.3s-12.3-.7-12.3-10.9c0-10.3 28-17.8 35.2-10.9 7.2 6.8-3.4 20-3.4 20l-19.5 1.8z"/><circle class="st1" cx="495" cy="353.8" r="14.6"/><circle class="st3" cx="495" cy="353.8" r="5.5"/><path class="st1" d="M502.9 403.3c-.4-.7-4.2-7.7-6.6-9.6-2.3-2-11.8 2.3-11.4 6.2.5 3.9 7.8 6.1 6.6 8.7-1.7 3.8-13.2 2.5-16.2 4.8-2.9 2.3-3.1 11.2.7 12.3s10.1-.5 12 4.6-6.9 13-7.2 17.1 7 9.1 10.9 6.8 4.2-9.8 6.5-11.8c2.3-2.1 7.2-.9 7.5 1.8s-1.4 13.7.2 16.2 10.5 2.5 12.5 0c2.1-2.5.7-9.8 2.7-13.5 2.1-3.6 29.4 2.1 31.7-1.6s3.2-12.1-2.5-13.5-13.5-33.8-13.5-33.8l-33.9 5.3z"/><path class="st2" d="m500.5 411.5 1.8 9.7s37.3 1 49.2.5c12-.5 23.2-9.4 22.5-10.2-.7-.8-8-13.4-25.8-12.3-12.2.8-32.4 4.9-32.4 4.9l-15.3 7.4z"/><path class="st1" d="m500.5 411.5 47.7-12.3s-2.2-8.5-5.8-10.3c-3.6-1.7-8.9 1-9.6 4.9-5.7-3.8-10.9 0-11.6 3.7-2.7-3.7-11.6-1.2-11.6 4.1-3.2-4.6-10.1-1.6-11.1 1.4-1 2.9 2 8.5 2 8.5z"/><path class="st3" d="m532.8 393.7 3 8.6M521.2 397.5l2 8.1M509.6 401.6l2 7"/><path class="st1" d="m551.6 421.7-49.2-.5s-.1 8.8 2.9 11.4 8.8 1.3 10.5-2.2c4.5 5.1 10.6 2.9 12.2-.5 1.6 4.3 10.8 4.1 12.3-1 1.9 5.3 9.4 4.2 11.1 1.6s.2-8.8.2-8.8z"/><path class="st3" d="m515.8 430.4-.8-9.1M528 429.8l.1-8.4M540.3 428.8l-.1-7.3"/><path class="st5" d="M540.3 370.3c-.7 0-7-3.2-11.4-.7-4.3 2.5-5.1 11.6.9 12.5s16.4.5 21.9-1.6 9.1-6.2 4.8-13.5c-2.3-3.9-10.5-10.9-18.1-17.3"/><path class="st0" d="M349.9 250.1c-1-.3-29.7.5-32.5-4.1s-2.7-12.4 0-13.3c2.7-1 22.6 6.2 22.6 6.2s-12.3-7.9-15.7-14c-3.4-6.2 7.7-14.7 15.7-11.3-2.3-6.5 6.5-17.4 13.7-13s27 28.3 27 28.3l-30.8 21.2z"/><path class="st3" d="m362.5 232.6-22.6-19.1"/><path class="st0" d="M404.9 218s-3.9-27.8.6-42.2 11.1-14.6 11.9-24.1c.8-9.6-10.3-23.9-12.5-33.8s5.9-25.8 10.1-25.8 2.3 14.7 5.3 24.3 13.2 23.3 10.4 38c-2.8 14.7-8.2 20-11.1 26.3-2.9 6.2 4 28.7 4 28.7l-18.7 8.6zM425.2 209.4s.3-24 5.9-30.8 15.1-7.2 13.6 0-.5 25-.5 25l-19 5.8z"/><path class="st1" d="M415 264.5c42.3-17.5 28.6-52.8 22.6-64.5l-20 7.9c5.1 9.2 13.8 31.2-9.2 42.9s-38-11.1-43.6-21.9l-14.9 5.9c5.9 14 24.4 46.5 65.1 29.7z"/><path class="st2" d="M408.4 250.8c23-11.7 14.2-33.6 9.2-42.9l-52.7 21c5.5 10.7 20.5 33.6 43.5 21.9z"/><path class="st2" d="m447.3 196.1-9.8 3.9c6 11.7 19.7 47-22.6 64.5-40.7 16.8-59.2-15.7-65-29.6l-10.1 4s21.9 63.5 81 39.8c59.3-23.8 26.5-82.6 26.5-82.6z"/><path class="st0" d="M368.2 175.9s-19.4 1.4-24.8-15.7-3.7-32.3-7-33.8c-3.4-1.6-10.7.7-13.5-5.5s9.2-5.1 7.5-8.9-10.3-.4-10.3-7.2 5.1-1.4 8.2-4.8c3.1-3.4-3.8-15.4 3.8-15.4 7.5 0 2.9 8.9 7.2 12 4.2 3.1 12.3-2.1 14 3.4s-2.1 4.8-2.1 7.9c0 3.1 5.8 1 8.5 6.5s-12 8.2-12 12.7 20.5 48.8 20.5 48.8z"/><path class="st1" d="m392.4 188.1-27.1 8.8c1.4 4 2.7 7.8 4 11.4l28.7-9.9c-1.7-3.3-3.6-6.7-5.6-10.3z"/><path class="st2" d="M337.9 102.7c-2.3 1.4 14.1 55.6 27.4 94.2l27.1-8.8c-20-36-52.1-86.9-54.5-85.4z"/><path class="st1" d="m403.9 209.9-29.7 11.6c2.5 6.3 4.5 10.9 5.7 12.7 9.9 14.6 32.3 3.6 28.3-13.5-.5-2.3-2-6-4.3-10.8z"/><path class="st2" d="m398 198.3-28.7 9.9c1.8 4.9 3.4 9.4 4.9 13.1l29.7-11.5c-1.6-3.3-3.6-7.2-5.9-11.5z"/><circle cx="393.7" cy="224.8" r="5.3"/><circle class="st0" cx="615.7" cy="73.5" r="8.4"/><circle class="st0" cx="647.7" cy="58.4" r="8.4"/><circle class="st0" cx="643.9" cy="126.7" r="8.4"/><circle class="st0" cx="674.3" cy="119.3" r="8.4"/><path class="st0" d="M608 87s45.8-23.9 51.3-23.9 5.8 7.6 3.8 10.9c-2 3.3-50.9 21.5-49.2 23.4 1.7 1.8 47.5-18.1 51.3-17.2 3.8.9 7.2 8.8 3.4 12.6s-47.8 12.8-48.6 14.9c-.8 2.1 47.9-5.7 50.9-2.5 3.1 3.1.3 6.4-2.7 9.6s-50.9 5.7-50.9 5.7l-11.6-8.5 2.3-25zM522.8 101l11.7 36 12.7 14s29.9-7.4 48.3-13.7l-17.8-55.2c-20.3 5.6-53.6 18.9-54.9 18.9z"/><path class="st2" d="M592.7 87.7c20.9 1 7.5-9.4 18.5-8.2 9.6 1 2.7 17.9 2.7 17.9s8.5-2.3 9.2 5.3-9.6 9.2-9.6 9.2 17.8 6.2 12.7 13.7c-5.1 7.5-13.7-7-21.5 2.5-9.6-4.1-32.9-41.4-12-40.4z"/><path class="st1" d="M592.7 80.2c-1.4-1.2-7.2-.2-15 2l5.7 17.6 16.3-5.1c-2.7-7.2-5.3-13-7-14.5z"/><path class="st1" d="m599.6 94.7-16.3 5.1 6 18.6 16.3-5.1c-1.7-6.1-3.8-12.8-6-18.6z"/><path class="st1" d="m589.4 118.3 6.2 18.9c8.3-2.8 14.2-5.4 14.2-7 0-2-1.7-8.9-4-17l-16.4 5.1z"/><path class="st0" d="M554 147s34.2-12.5 48.2-9.8 11.3 8.3 19.1 12.4c7.9 4 26.3-1 26.3 6.2 0 7.1-17.2 9.9-28.7 4-11.6-5.9-14.7-9.9-23.6-10.6s-26.3 7.9-26.3 7.9L554 147zM530.1 91.6s18.7-1.9 31.3-14.6c12.6-12.7 11.5-26.9 19.7-26.9s4.1 29.7-9.2 38.3c-13.3 8.5-45.8 17.1-44.7 16.1 1.1-1.1 2.9-12.9 2.9-12.9z"/><path class="st0" d="M518.4 118.3s-8-8.8-5.5-16.3 23-20.5 14.3-31.5c-3.4-4.2-10.8 6.8-13.9 1.7s9.5-18.8 22.6-10.6 1.7 30.1-.7 38.3.7 12.3.7 12.3l8.6 31.1s17.7-1 24.9 3.6c7.2 4.6 5.5 9.5 15 11.3 9.6 1.8 19.8-11.5 24.3-6 4.4 5.5-6.2 14.8-17.4 15.4-11.3.5-22-1.5-28.7-7.6-6.7-6.1-21.5-.1-26.7-15-5.2-14.9-17.5-26.7-17.5-26.7z"/><path class="st4" d="m533.8 123.4-10.2 2.1c-4.3.9-8.5-2-9.4-6.2h0c-.9-4.3 2-8.5 6.2-9.4l10.2-2.1c4.3-.9 8.5 2 9.4 6.2h0c.9 4.3-1.9 8.6-6.2 9.4z"/><path class="st4" d="m538.1 134.9-10.2 2.1c-4.3.9-8.5-2-9.4-6.2h0c-.9-4.3 2-8.5 6.2-9.4l10.2-2.1c4.3-.9 8.5 2 9.4 6.2h0c.9 4.3-1.9 8.5-6.2 9.4z"/><path class="st4" d="m542.5 148.8-10.2 2.1c-4.3.9-8.5-2-9.4-6.2h0c-.9-4.3 2-8.5 6.2-9.4l10.2-2.1c4.3-.9 8.5 2 9.4 6.2h0c.9 4.4-1.9 8.5-6.2 9.4z"/><path class="st0" d="M488.5 102.7s18.3-6.5 21.9-4.1 5 12 2.3 14.8c-2.7 2.8-20.3 2.7-20.3 2.7l-3.9-13.4z"/><path class="st0" d="M478.1 95.2s.4-12.7-2.7-17.1-13.9-3.8-14.4 2.7 5.5 14.4 5.5 14.4l-10.1 5.2s-10.5-9.3-15.2-8.8-11.5 8.9-7.8 12.5 17.7 7.1 17.7 7.1l-.3 5.9s-17.1 1-21.2 3.8c-4.1 2.7-.2 14 4.5 14s17-7.8 17-7.8l1.4 7.8s-10.9 8.6-12.3 14.4c-1.4 5.8 10.6 12.7 16.3 9.2 5.7-3.4 7.8-19.6 7.8-19.6l6.1 1.4s.4 20 3.6 23.6c3.2 3.6 12.8 1.4 14.2-3.8 1.4-5.1-4-21.3-4-21.3l7-4.1s7.2 15.1 13 15.1 9.9-7.7 9.9-12.6c0-4.9-18.8-13.7-18.8-13.7l-17.2-28.3z"/><circle class="st0" cx="472.4" cy="119.3" r="27.7"/><circle class="st2" cx="472.4" cy="119.3" r="11.6"/><path class="st0" d="M491.1 531.1s-7.3-2.9-10.1-1.6c-2.9 1.3-2.6 11.1 0 14 2.6 2.9 14.6-1.7 14.6-1.7l-1.7 9.2s-10.7 1.4-12.9 4.7c-2.1 3.4.9 10 4 11.6s8.1-5.1 8.1-5.1L504 551l-6.5-14-6.4-5.9z"/><path class="st2" d="m501.8 531.7 2.2 29.2c3.8-.5 7.5-.9 10.7-1.3l-1.2-27.5c-3.4-.1-7.4-.2-11.7-.4z"/><path class="st1" d="m491.1 531.1 2 31c3.8-.4 7.5-.8 10.9-1.2l-2.2-29.2c-3.4-.1-7.1-.3-10.7-.6z"/><path class="st4" d="m513.6 532.1 1.2 27.5c5.7-.8 10.5-1.4 13.9-1.9l-2-25.7c-1.8.2-6.7.2-13.1.1z"/><path class="st1" d="M311.6 537s.3-9.9 6.2-7.9 4.1 9.9 4.1 9.9-.5-8.5 6.6-7.9c7.1.6 4.7 10.3 4.7 10.3s1.7-8.9 6.8-8.2c5.1.7 3.4 10.3 3.4 10.3l-31.8-6.5zM306.5 554.7s3.3 12.3 7.9 10.9c4.6-1.4 4.1-13 4.1-13s3 11.6 7.9 9.9 2.7-12 2.7-12 3.8 10.9 8.5 9.2c4.7-1.7 3-12 3-12l-34.1 7z"/><circle class="st1" cx="329" cy="517.1" r="9.9"/><circle class="st1" cx="329" cy="517.1" r="3.4"/><path class="st5" d="M384.1 553.4c0 6.5 14.3 5.5 16.3 0 2.1-5.5-1.4-89.2-1.4-89.2s9.3 86.6 13.1 91.4c3.8 4.7 11.6 3.5 12.3-3.8s-9.9-91-9.9-91 19.9 88.7 23.3 93.5c3.4 4.8 12.2 1.6 12.8-4.9.5-6.5-12.4-73.8-12.4-73.8s24.3 77.4 28.4 79.4 10.6 1.2 10.6-4.9c0-6.2-22.6-89.2-22.6-89.2l-20.2-21.4-49.6 17.3c0-.2-.7 90.1-.7 96.6z"/><path class="st2" d="M372.1 447.1c-2.7 6.8-4.5 11.4-3.7 13.3 2.7 5.9 20.2 14.2 40.6 7.7 20.3-6.4 27.8-21.7 27.8-21.7l-1.2-10.8c-7.9 5.1-18.3 10.3-30.1 12.4-14.5 2.7-25.9 1.2-33.4-.9z"/><path class="st5" d="M520.2 282.1c-.7-.5-9.1-19.8-32.8-23.7-23.7-3.9-88.9 14.2-99.8 36.7-10.9 22.6-3.6 32.6-1.4 80.7 1.6 32.6-8.4 57-14.1 71.3 7.5 2.1 18.9 3.6 33.5 1 11.8-2.1 22.2-7.2 30.1-12.4l-12.1-113.9 96.6-39.7z"/><path class="st1" d="M425.7 338c11.1-7.6 90.9-29.9 94.5-32.4s-1.7-12.8-1.7-12.8l-91.6 28.5c-.1 0-12.4 24.3-1.2 16.7z"/><path class="st2" d="M419.3 359.3s-8.7-20.9-1.4-38.9 96.6-42.4 101.7-41.2c5 1.2 7.4 13 5 15.5s-90 20.9-93.2 34 1.6 28.9 1.6 28.9l-13.7 1.7z"/><path class="st0" d="M440.2 373.5c7.9-5.1 4-15.7-2.7-19.7-6.8-4-23.3-.9-26 8.2s1 16.6 6.8 18.7c-4.8 12.3-6.5 25.6-2.7 43.4s22.2 15 22.2 15-3.4-38.6 6.2-45.8c9.5-7.1 6.9-20.5-3.8-19.8z"/><path class="st1" d="M430.2 401.6c-3 10.3 3.1 70.4 5.2 74.9s40.7.3 40.7-8.5c0-8.9-18.3-64.6-21.5-70.1s-21.4-6.6-24.4 3.7z"/><path class="st3" d="M425.2 368.4s3.6 11.5 14.9 5.1"/><path class="st2" d="M399.5 327.2s-8 9.6-8 22.5c7.7 2.5 10.9 0 19-1.4 0-13.3-11-21.1-11-21.1zM432 287.9s-12.1-3.2-23.7 2.2c1 8.1 4.6 9.9 9.2 16.8 12.1-5.7 14.5-19 14.5-19zM484.8 268.7s-11.8-4.3-23.9.1c.3 8.1 3.7 10.3 7.7 17.5 12.6-4.5 16.2-17.6 16.2-17.6zM400 394.3s-9 8.6-10.5 21.4c7.4 3.4 10.9 1.2 19.1.9 1.5-13.3-8.6-22.3-8.6-22.3z"/><circle class="st1" cx="401.1" cy="349.7" r="9.6"/><circle class="st1" cx="401.1" cy="349.7" r="3.8"/><circle class="st1" cx="412.3" cy="298.8" r="9.6"/><circle class="st1" cx="412.3" cy="298.8" r="3.8"/><circle class="st1" cx="464.2" cy="277.9" r="9.6"/><circle class="st1" cx="464.2" cy="277.9" r="3.8"/><circle class="st1" cx="399.1" cy="416.8" r="9.6"/><circle class="st1" cx="399.1" cy="416.8" r="3.8"/><circle class="st0" cx="412.2" cy="596.5" r="7.6"/><circle class="st0" cx="407.7" cy="617.7" r="7.6"/><circle class="st0" cx="410.1" cy="645.3" r="7.6"/><circle class="st0" cx="444.5" cy="666.9" r="7.6"/><circle class="st0" cx="483.2" cy="645.3" r="7.6"/><circle class="st0" cx="483.2" cy="617.7" r="7.6"/><circle class="st0" cx="483.2" cy="594.3" r="7.6"/><path class="st0" d="M418.3 611.5s-7-20.7-4.4-28 18-8.3 22.8 1c1-6.6 17.8-10 24.3-1.6 3.8-5 16.4-8.3 21.2 0s-9.6 28.7-9.6 28.7h-54.3v-.1z"/><path class="st1" d="M446.3 629.3c-15.8 0-27.3 1.4-34.5 2.8.3 4.3 1.1 8.5 2.3 12.2 4.1 12 18.8 19.8 31.7 19.8 17.9 0 31.3-13.3 34.3-24.3.7-2.5.9-5.3.8-8.1-8.2-1.2-20-2.4-34.6-2.4z"/><path class="st3" d="M412 631.8s4.7 15.2 10.9 14.2c6.3-1 5.6-16.1 5.6-16.1s-1 13.6 8.2 13.6 7.7-13.6 7.7-13.6-.2 15.4 9.4 15.4c9.7 0 9.4-15.4 9.4-15.4s1.4 15.4 6.7 15.4 10.1-13.7 10.1-13.7"/><path class="st3" d="M423.5 645.9c1.1 4.4 3.8 11.4 10.5 11.6 9.7.4 10.4-19.6 10.4-19.6s-.1 19.6 10.1 19.4c6.6-.1 10.6-8 12.7-13.7M460 605.8l1-23M436.7 584.5V606"/><path class="st2" d="M525 609.8c1.4 5.3 2.9 11.1 4.4 17 .2 0 .3 0 .5-.1l-4.5-16.9h-.4z"/><path class="st1" d="M574.7 548.3c.8 1.9 1.6 3.7 2.6 5.4 3.1 5.5 14 9.2 14 9.2.3 1.6-.3 3.4-1.4 4.8 8 4 13.3 10.9 13.3 18.7 0 12.3-13.2 22.4-29.4 22.4s-29.4-10-29.4-22.4c0-1.2.1-2.4.3-3.6-.6-.8-1.3-1.5-2.1-2.5-2.7-3.3-4.9-9.2-6.2-14.2-4.2 5.9-6.8 12.8-6.8 20.2 0 21.1 19.8 38.2 44.1 38.2s44.1-17.1 44.1-38.2c.2-20.8-19.2-37.6-43.1-38z"/><circle class="st1" cx="711.4" cy="505" r="14"/><circle class="st1" cx="711.4" cy="505" r="5.1"/><path class="st1" d="M697.3 497.4c-3.4-2.9-95.7 26.5-95.7 26.5s-28.4 7.2-29.1 12.2 1.6 12.1 4.8 17.6c.3.5.7 1.1 1.2 1.6L698 522c0-.1 2.7-21.8-.7-24.6z"/><path class="st1" d="M702.1 510.6c-3.9-3.4-104.1 26.9-128.6 34.3.9 3 2.2 6.1 3.8 8.7 3.1 5.5 14 9.2 14 9.2s105.7-17.2 110.8-21.9c5.1-4.6 4.4-26.4 0-30.3z"/><path class="st0" d="M577.3 553.7c-3.1-5.5-5.5-12.6-4.8-17.6s29.1-12.2 29.1-12.2 0-13.3-6.5-13.3-28.9 7.2-40.8 8.5c-11.9 1.4-22.9 11.3-26.9 12.7-.1.1-.3.1-.5.1l2 25.7c3.6-.5 5.7-.8 5.7-.8s2.9 17 8.4 23.5c1.7 2 2.9 3.5 3.8 4.6l37.4-25.4c-2.9-1.5-5.6-3.5-6.9-5.8z"/><path class="st1" d="M552.2 590.3c3.6 2.7 11.6-1.7 7.7-5.8 3.8 3.1 12.3-2.4 8.5-6.5 5.7 4.4 15.4-2.9 10.9-7.5 7.5 2.1 12.7-2.9 12-7.5 0 0-3.6-1.2-7.2-3.4L546.7 585c2 2.5 2.9 3.4 5.5 5.3z"/><path class="st3" d="M579.3 570.5c-16.3-6.8-20.4-27-20.4-27M568.4 578c-15-6.8-20.2-31.7-20.2-31.7M559.8 584.5c-14.4-8.9-18.5-29.2-18.5-29.2"/><path class="st1" d="M573.8 608.8c-9.8 0-34.3.7-48.4 1l4.5 16.9c14.4-1.1 31.9-2.2 44-2.2M562 633.6s-5.7 29.4-5.7 34.5 9.1 4.4 12.3 0 2.6-32.9 2.6-32.9 5.5 29.1 11.3 32.6 9.8-2.1 10.2-7.5c.4-5.5-15.3-31-15.3-31l-15.4 4.3z"/><circle class="st1" cx="568.2" cy="701.1" r="9.2"/><path class="st1" d="M565.3 624.7c-2.1 1.7-3.3 4.2-3.3 7.1 0 5.1 4.1 9.2 9.2 9.2s9.2-4.1 9.2-9.2c0-3-1.4-5.6-3.6-7.3-1 .1-2 .1-3 .1-2.6-.1-5.5 0-8.5.1zM636.9 643.6s27.9 30.2 31.7 30.2 8.5-6.7 5.5-11.7-27.4-24.3-27.4-24.3l-9.8 5.8zM635.1 679.5s-.7 30.1 1.8 34.5c2.6 4.4 12.8 3.1 12.8-1.4 0-4.4-5.8-33.2-5.8-33.2h-8.8v.1z"/><circle class="st1" cx="640.5" cy="636.1" r="9.2"/><circle class="st1" cx="639.5" cy="674.4" r="9.2"/><path class="st0" d="M553.1 453.5s-13.1 4.8-14.5 8.8c-1.3 4 4.1 12.3 9.6 12.3 5.5.1 15.9-14.2 15.9-14.2l12.2 10.1s-5.1 21.1-3.6 25.2 13.7 4.9 14.8.7-1.6-16.3-1.6-16.3l-8.3-23-24.5-3.6z"/><path class="st4" d="m606.7 451.1-24.3-22.3s-7 4.9-14.2 10.3l30.1 26.4c4.5-7.1 8.4-14.4 8.4-14.4z"/><path class="st2" d="M568.2 439.2c-4.2 3.1-8.3 6.5-11.3 9.3l35.2 26.1c2-2.5 4-5.7 6.1-9l-30-26.4z"/><path class="st1" d="m579 464.7-5.1 7.4c5.5 4 10.4 7.1 12 7.7 1.3.5 3.7-1.8 6.4-5.3l-13.3-9.8zM556.9 448.5c-2.3 2.2-3.8 4-3.8 5 0 1.5 3.3 4.9 7.7 8.6l5.9-6.4-9.8-7.2z"/><path class="st1" d="m566.7 455.7-5.9 6.4c3.8 3.3 8.6 6.9 13 10.1l5.1-7.4-12.2-9.1z"/><path class="st5" d="M650 309.3s62-38.8 65.6-38.8c3.7 0 5 4.2 3.6 8s-65.4 44.9-65.4 44.9 86.4-19 90.5-19 3 6.1.7 9.3c-2.3 3.2-87.6 25.8-87.6 25.8l-11.4-5.7 4-24.5z"/><path class="st0" d="M675.9 224.3c-8.7 13.5-5.3 24.3-10.7 43.9-3.8 14-25.6 29.5-37.6 37.3l14.8 1.4s22.2-15.6 29.8-30.6c7.7-15.1 5-34.3 12-47 4.5-8.1 13.5-12.5 23.2-18.5l-5.7-6.2c-9.3 4.8-21 12.1-25.8 19.7z"/><path class="st4" d="M718.9 150.6c-5.4 3.6 10.1 20.1-2 34.9-6 7.4-13 10.7-20.1 13.8l10.6 11.3c5.3-3.3 10.8-7.1 15.9-12.3 14.3-14.7.9-51.3-4.4-47.7z"/><path class="st1" d="M654.5 269c-.2.6-.5 1.2-.7 1.8l6.5 6.8c2.3-3.1 4.1-6.4 4.9-9.5s1.5-6 2-8.7l-9.8-1.1c-.8 3.6-1.7 7.2-2.9 10.7zM645.9 282.3l4.7 5.8c3.6-3.4 7-6.8 9.6-10.4l-6.5-6.8c-1.6 3.9-4.4 7.8-7.8 11.4z"/><path class="st1" d="m615.5 304.3 12.1 1.1c6.4-4.1 15.4-10.3 23.1-17.4l-4.7-5.8c-12 12.8-30.5 22.1-30.5 22.1zM657.3 258.4l9.8 1.1c1.2-6.6 1.6-12.2 2.4-17.5l-8.8-1c-1.2 5.7-2.1 11.6-3.4 17.4zM685.7 214.5l-5.5-6.4c-1.6 1.2-3.1 2.5-4.5 4-3.3 3.4-5.8 6.8-7.8 10.3l6.8 4.2c.4-.8.9-1.6 1.4-2.3 2-3.4 5.5-6.8 9.6-9.8z"/><path class="st1" d="m701.7 204.5-4.9-5.2c-5.6 2.5-11.3 4.7-16.7 8.8l5.5 6.4c5-3.9 10.9-7.3 16.1-10zM660.8 241l8.8 1c.8-5.3 2.1-10.1 4.9-15.4l-6.8-4.2c-3.4 6-5.4 12.3-6.9 18.6z"/><path class="st2" d="M551.5 297.8c-.9 2.9 24.4 20.4 43.9 30.5l8.2-35.4c-19.6.3-51.2 1.6-52.1 4.9z"/><path class="st1" d="M657.8 305.3c-6.4-3.8-29.1-12.5-46.8-12.5-2.2 0-4.7 0-7.4.1l-8.2 35.4c5.4 2.8 10.4 5 14.3 6.2 17.8 5.4 33.7 5.5 42.1 4.5 8.3-1 12.4-29.9 6-33.7z"/><path class="st2" d="M620.5 283.9c-.7 1.8 0 8.4.8 14.6.8 6.2 1.8 11.9 1.8 11.9l-14.4 29.7 25 4.4-4.3-32.6s9.5-23.8 9.9-27.3c.5-3.5-17.4-4.4-18.8-.7z"/><path class="st2" d="M647.5 350.8c37.1-2.9 67.9-12.7 82.3-18 2.8-4.8 1.7-13.5-4.3-13.5-7.3 0-38.5 17.2-88.6 17.2s-70.2-11.3-76.9-10.3c-6.7 1-8.3 6.1-5.6 11.1.5 1 1.5 1.9 2.8 2.9 17.9 5.1 53.8 13.5 90.3 10.6z"/><path class="st1" d="M647.5 350.8c-36.5 2.9-72.4-5.5-90.2-10.6 5.5 4.2 16.9 9.7 23.4 24.6 8.1 18.3 16.5 34.1 29.1 43.1 12.7 9 50.7 8.7 67.7-4s18.9-24.4 26.4-43.2c7.5-18.7 18.3-22.4 23.7-25.6 1-.5 1.7-1.4 2.3-2.4-14.5 5.3-45.3 15.2-82.4 18.1z"/><circle class="st4" cx="626.4" cy="311.8" r="9.2"/><path class="st0" d="M763.3 264.3c2.3-2.5 3-7.9 0-7.9s-28.9 8.5-28.7 5.9c.2-2.7 24.3-11.4 26.3-15.7s0-5.7-4-5.7-21.3 14-22.4 11.6c-1-2.5 10.3-20 11.7-23.9 1.4-3.9-2.7-5.5-5.4-2.4-2.7 3.2-15.3 26.2-18.3 24.6-3-1.6 3-12.9-3-12.9s1.2 11.8-7 18.3c-5.7 4.5-6.9 14-7 19.2 5.4-3.1 9.2-5.1 10.1-5.1 3.7 0 5 4.2 3.6 8-.3.8-3.8 3.6-9.1 7.4h0c8.5-1.8 30.8 12.1 34.1 6.9 3.4-5.2-10.3-6.6-10.7-8.8-.4-2.2 23-1.8 25.7-3.8s3-7.9.7-7.2c-2.3.7-23.9 2.3-24.8-.3-1-2.5 25.8-5.7 28.2-8.2z"/><path class="st2" d="M480.9 631.7c-.3-9.6-4.4-20-6.2-23.4-2.4-4.5-50.9-5.7-57.3 0-4.4 4-6.2 14-5.5 23.7 7.2-1.4 18.7-2.8 34.5-2.8 14.5.1 26.3 1.3 34.5 2.5z"/><path class="st3" d="M680.9 421.3c-17 6.5-47.8 4-47.8 4M682.9 435.6c-20 2.2-47.3.3-47.3.3M663.4 454.2c-12.8 1.4-21.1-.7-21.1-.7"/></svg>