<svg version="1.1" id="Calque_1" xmlns="http://www.w3.org/2000/svg" x="0" y="0" viewBox="0 0 900 900" style="enable-background:new 0 0 900 900" xml:space="preserve"><style>.st0,.st1{fill:red;stroke:#000;stroke-width:3.7061;stroke-linecap:round;stroke-linejoin:round;stroke-miterlimit:10}.st1{fill:#fff}.st2{fill:#ffce00}.st2,.st3{stroke:#000;stroke-width:3.7061;stroke-linecap:round;stroke-linejoin:round;stroke-miterlimit:10}.st3,.st4{fill:none}.st5{fill:#0080ff;stroke:#000;stroke-width:3.7061;stroke-linecap:round;stroke-linejoin:round;stroke-miterlimit:10}.st6{fill:#3b5600}.st6,.st7,.st8,.st9{stroke:#000;stroke-width:3.7061;stroke-linecap:round;stroke-linejoin:round;stroke-miterlimit:10}.st8,.st9{fill:#bf9b00}.st9{fill:#803a00}</style><path class="st0" d="M705 797.6s38.1 2.7 39.4 6.2-8.5 22.1-8.5 22.1l-32.4-16 1.5-12.3zM537.7 798.8s40.8 17.4 42.1 20.9-8.6 19.8-8.6 19.8l-41.4-28.4 7.9-12.3z"/><path class="st1" d="M535.3 847.6c3.6 2.5 8.4 1.3 9.7-2.7 2.4 6.2 12.8 7.2 11.9.7 2.7 5.9 12 5.4 12 0 2.8 6.9 11.3 3.9 13.6 0 1-1.7.7-3.8-1.1-6.2l-49.4 1.9c1.3 2 1.4 5 3.3 6.3z"/><path class="st2" d="M567.4 828.1c-12.3-7.7-31.5-20-31.5-20s4-20.2 14.8-31.6c10.8-11.3 68.7-114.5 68.7-114.5l-80.7-4.2-2.8 16.2c-.2.2-21.4 103-27.3 120.3-5.8 17.3-13.9 34.1-13.9 34.1s32.7 3.9 32.2 5.4c-.6 1.5-3.4 6.4 1.5 6.1 2-.1 3 .5 3.8 1.6l49.4-1.9c-2.5-3.3-7.2-7.1-14.2-11.5z"/><path class="st1" d="M709 846.5c4.4.5 8.4 1.3 9.7-2.7 2.4 6.2 12.8 7.2 11.9.7 2.7 5.9 12 5.4 12 0 2.8 6.9 11.3 3.9 13.6 0 1-1.7.7-3.8-1.1-6.2l-47.9 1.2c1.3 1.8-3.7 6.3 1.8 7z"/><path class="st2" d="M741 824c-12.3-7.7-40-18.8-40-18.8s-4.4-51.9-4.9-67.6c-1-33.1 0-58.7 0-58.7l-37-19.7-30.3 10.8c-.2.2 24.6 84.9 30.4 102.3 8.5 25.4 4.5 61.7 4.5 61.7s37.4-2.9 36.8-1.4c-.6 1.5-3.4 6.4 1.5 6.1 2-.1 4.5-.2 5.3.8l47.9-1.2c-2.4-3.2-7.1-9.9-14.2-14.3z"/><path class="st0" d="M526.8 697c-4.7 0-3.6 9.1-1 10.7 2.6 1.6 72.2 14.3 75.4 14s6.4-7.9 2-10.2c-4.5-2.3-71.6-14.5-76.4-14.5zM520.1 715.2c-3.9 1.1-3.9 11.3-.4 12.4 3.6 1 30.4 1.8 44.7 4.4 14.3 2.7 30.5 5.6 30.5 5.6l3.5-10.6s-11.2-4.8-32.9-7.4c-21.7-2.6-41.6-5.5-45.4-4.4zM516.6 745.3c-3.1-1.7-3-9 2.7-10.8 5.6-1.9 29.7 1.1 42.8 3.1 13.2 2 29.6 11.9 29.6 11.9l-4 9.9s-13.2-8.4-25.8-11.3c-12.5-3.1-42.1-1-45.3-2.8zM633.6 731.2c-4.1 2.6-4.9 13.3.7 13.4 5.6.1 46.4-5.1 46.4-5.1s38.6-2.6 42.5-4.1 4.9-14.2-.7-13.6c-5.6.5-21 2.1-43.8 4.5-22.9 2.4-41.1 2.4-45.1 4.9z"/><path class="st0" d="M638 761.6c-5.6 0-7-9-3-12.7 4.1-3.8 30-7.7 45.6-9.2s45.7.3 48.4 4 3.7 11.6-1.3 11.6-26.8-3.2-46.4-1.3c-19.6 2.1-37.7 7.6-43.3 7.6z"/><path class="st0" d="M636.2 768.5c2.6-3.7 34.7-8.9 46.6-11.6 11.9-2.7 44 1.5 47 4.7 3.1 3.2-.2 10.4-3 10.4-2.7 0-25.6-5.3-43.3-1.9-17.7 3.4-38.5 10-42.9 9.6-4.3-.4-7-7.5-4.4-11.2z"/><path class="st1" d="m579.8 759.9 27.1 12.3c1.6-4.7 3.2-9.9 4.8-15.4l-26-10.3c-2.1 4.7-4.1 9.1-5.9 13.4z"/><path class="st0" d="m585.7 746.5 26 10.3c1-3.5 2.1-7 3.2-10.7l-24.4-10.4c-1.7 3.7-3.3 7.3-4.8 10.8zM568.9 790.3c2.4 8.2 19.9 14.3 27.1 7.9 2.2-2 6.2-12.1 10.7-25.9L579.6 760c-6.7 15.6-11.5 27.5-10.7 30.3zM596.8 721.5l21.9 10.5c1-3.4 1.9-6.9 2.7-10.3L601 711.5c-1.3 3.3-2.7 6.6-4.2 10z"/><path class="st1" d="m590.4 735.8 24.4 10.4c1.3-4.7 2.7-9.4 3.9-14.2l-21.9-10.5c-2.1 4.7-4.2 9.5-6.4 14.3zM610.6 688.6c-.1 0-.1 0 0 0-2.7 7-5.9 14.9-9.4 23.1l20.4 10.2c3.1-11.9 5.9-23.5 8-33.3-6-.1-12.3 0-19 0z"/><circle class="st2" cx="567.5" cy="710.6" r="7.9"/><circle class="st2" cx="678.6" cy="731.2" r="7.9"/><circle class="st2" cx="680.6" cy="747.4" r="7.9"/><circle class="st2" cx="682.8" cy="764.1" r="7.9"/><circle class="st2" cx="564.7" cy="726.8" r="7.9"/><circle class="st2" cx="562" cy="743.6" r="7.9"/><path class="st1" d="M508.6 794.3c-3.6 2.4-18.6 31.6-18.6 31.6l36.8 7.9 9-32.9c.1 0-23.6-9.2-27.2-6.6zM666.2 803c-6.7 8.7-4.1 30.8-4.1 30.8l37.7 4.4-.6-34.8s-30.3-3.9-33-.4z"/><path class="st1" d="M526.8 842.1c4.4 0 3.6-8.4 0-8.4s-32.5-7.9-36.8-7.9c-4.2 0-4.3 8.7-1.2 9.4s33.6 6.9 38 6.9zM702 845.8c4.4 0 3.5-10.2 0-10.2-3.6 0-35.9-5-40.1-5-4.2 0-2.8 10.1.3 10.7 3 .8 35.4 4.5 39.8 4.5z"/><path class="st0" d="M509.3 784.6c-3.6 1-7 8.7-4.4 12.1 2.7 3.4 25.4 11.3 30.2 11.3 4.7 0 7.9-8.9 4.3-12.1-3.5-3.1-26.4-12.3-30.1-11.3zM665.4 793.8c-3.6 1-4.4 8.7-1.8 12.2 2.7 3.5 39.7 3.5 44.4 3.5s3.2-9.9-.4-13.1c-3.5-3.3-38.5-3.6-42.2-2.6z"/><path class="st3" d="M540.9 834s5 3.9 4.1 10.9M551.4 834s5.4 3.5 5.4 11.6M562 833.8c6.8 3.5 6.8 11.9 6.8 11.9M714.7 832.9s5 3.9 4.1 10.9M725.1 832.9s5.4 3.5 5.4 11.6M735.5 832.9s7 4 7 11.6"/><path class="st4" d="m489.6 625.9 3.8 1.7c1.2-4.8 2-9.3 2.4-13.4-1.7 3.3-3.7 7.2-6.2 11.7z"/><path class="st0" d="m481.4 661.3 33.7 16.1c2.4-5.6 4.8-11.3 7.2-17.3l-34.2-15.3c-2 5.4-4.3 10.9-6.7 16.5zM376.7 740.3c0 6.9 24.2 23 32.1 19 4.5-2.3 27.1-38.9 48.6-75.9l-37.2-17.9c-28.4 47.4-43.5 69.7-43.5 74.8z"/><path class="st1" d="m468.4 688.6 34.1 16.5c1.6-3.3 3.3-6.8 4.9-10.5l-33.9-16.4c-1.7 3.6-3.4 7-5.1 10.4z"/><path class="st2" d="m473.5 678.3 33.9 16.4c2.6-5.6 5.2-11.3 7.7-17.3l-33.7-16.1c-2.4 5.6-5.1 11.3-7.9 17z"/><path class="st0" d="M435.7 749.4c0 4.4 32.6 18 35.3 14.1 1.6-2.4 15.5-25.1 31.4-58.3l-34.1-16.5c-15.8 31.1-32.6 58.3-32.6 60.7z"/><path class="st1" d="M426.2 655.4c-2.1 3.5-4.1 6.8-6 10.1l37.2 17.9c1.9-3.3 3.9-6.7 5.9-10.1l-37.1-17.9z"/><path class="st2" d="m472.5 657.1-36.9-17.6c-3.3 5.6-6.4 10.9-9.3 15.9l37.1 17.9c3-5.5 6.1-11 9.1-16.2z"/><path class="st1" d="M495.8 614.3c-.3 4.1-1.1 8.6-2.4 13.4l35.1 16.1c1.5-4 3-8.1 4.3-12.2 30.9-95.4 44.5-148.2 44.5-148.2l-73.6-6.4c-.5 1.9 2.4 38.2-48.4 128.2-.7 1.3-1.5 2.7-2.3 4l36.7 16.8c2.4-4.6 4.4-8.5 6.1-11.7z"/><path class="st0" d="m481.1 641.7-37.2-16.6c-2.9 5-5.6 9.8-8.3 14.4l36.9 17.6c3-5.4 5.9-10.6 8.6-15.4z"/><path class="st3" d="M541.2 493.8c2.4-4.5-7 34.5-45.4 120.5M458.3 621c59.8-105.4 60.3-151.7 60.3-151.7M472.3 625.9c59.8-105.4 60.3-151.7 60.3-151.7M551.1 491.2c-3 40.9-49.3 146.3-49.3 146.3M566.3 491.4c-4 44.4-53 150-53 150"/><path class="st5" d="M493.4 627.6c-1.3 5.4-3.2 11.1-5.3 17.1l34.2 15.3c2.1-5.3 4.2-10.7 6.2-16.3l-35.1-16.1zM489.6 625.9l-36.7-16.8c-3.1 5.5-6.2 10.8-9.1 15.9l37.2 16.6c3.3-5.7 6.2-10.9 8.6-15.7z"/><path class="st1" d="m696.4 668.3-32.8-179.7 21.6-36.8-51.3-90.4-117.2 81.2 53.4 35.1-50.8 186.1c14.9 3.9 45.2 10.3 97.8 10.3 38.2-.2 63.3-2.9 79.3-5.8z"/><path class="st1" d="M617.2 673.9c-52.6 0-82.9-6.4-97.8-10.3l-3.9 14.4s31.7 10.5 95.2 10.5 88.6-4.6 88.6-4.6l-2.8-15.6c-16.1 2.9-41.2 5.6-79.3 5.6z"/><path class="st0" d="M570.2 489.8s4.2 33.1 11.3 31.9-.7-33.1-.7-33.1l15.9-3.2s4.4 44 12.7 42 2.7-49.9 2.7-49.9l-22.8-2.6-19.1 14.9z"/><path class="st1" d="M601.9 382.1s4.7 22.2.8 41.1c-3.9 18.8-14.8 35.6-14.8 35.6l17.9 6s11.9-13.6 15.3-37.5c3.5-23.9 0-57.7 0-57.7l-13.3-10.2-5.9 22.7zM624.5 368.1s35.4 87.8 39.1 89.9c3.7 2.1 11.3 0 11.3 0s39.5 92.7 42.5 97.1c3 4.4 27.2 2 27.2-9.9S651 349 651 349l-26.5 19.1z"/><path class="st3" d="m645.3 388.3 29.6 69.7M655.2 386.1l79 169.6"/><path class="st1" d="M534.5 440.3c-6.9-3.4-4.3-59-4.3-59l-49.9 3.1c0 1.1-4.5 87 23.1 104.1 13.1 8.2 37.3 8.1 60.6 5.8l-1.7-47.3c-13.8-2.5-25.2-5.3-27.8-6.7z"/><path class="st0" d="m598.7 452 .1 37.7c10.1-1.5 18.2-2.7 22.9-2.9l-3.2-35.1c-4.9.9-12 .9-19.8.3z"/><path class="st2" d="M720.4 454.8c5-8.4-3.2-18.2-5.7-13.6.7-7.4-5-14.1-7.9-10.3-2.7-5.7-8.3-7.2-11.1-3.6s3 16.1-16.8 23.8c-19.8 7.7-26.5 1.5-27.4-.7-1-2.2 16.5-10 16.5-13.3s-1.5-9-7.9-9-20.8 17.3-38 23.1c-1 .4-2.2.6-3.6.8l3.2 35.1h1.3c15.8.5 24.5 10.2 40.2 10.2s29.1-5.5 38-9.2 19-11.3 22-20.2c3-9.2 3.6-14.2-2.8-13.1z"/><path class="st1" d="M614.2 354.9s3.5 21.3 8.4 21.3c5 0 31.4-17.6 31.1-21.4s-11.1-17.3-11.1-17.3l-28.4 17.4zM739.7 415.5c-17.3-21.5-51-12.3-60-9.3 1.3 2.6 2.7 5.3 4 8 14.5-3.6 42.9-7.1 50.6 16.7 9.2 28.7-5 44.8-18.2 47.5-4.3 4.1-9.7 7.5-14.8 9.6-3.3 1.4-7.3 3-11.7 4.5h0s23.6 8.4 43.8-5.3c20.4-13.7 26.3-46.8 6.3-71.7zM564 494.4c4.6-.4 9.1-1 13.6-1.6v-15l-14.2 1.1.6 15.5z"/><path class="st1" d="m562.9 461.6.6 17.3 14.1-1.1v-15.2z"/><path class="st1" d="M577.6 449.6c-5.3-.7-10.4-1.6-15.3-2.5l.5 14.5 14.8 1v-13h0z"/><path class="st3" d="M663.6 464.7c2 1.9 15.3-1.8 25.2-7.7 10.2-6.1 18-14.6 18-26.2M667.3 474.8c4.7.7 14.1-1.4 23.9-7.3 10.2-6.1 23.5-14.8 23.5-26.3M720.4 454.8c-2.4 7.9-11.5 15.9-22 21.6s-27.4 7.5-27.4 7.5"/><circle class="st2" cx="583.6" cy="78.4" r="28.4"/><path class="st0" d="M605 215.4c-8.5 5.5-26.2 16-30.9 12.3-6.2-5-62.7-119.4-60.7-124.3 1.4-3.5 22.5-5.8 34.2-6.8-.8-1.9-1.5-3.3-1.8-4.1-3.4-7.2-8.4-9-12.8-9.6-4.4-.6-9.9 7.2-17.2 7-7.3-.1-16.8-3.8-20.5 5.1-3.6 8.9 6.6 14.6 8.7 22.5 2.1 7.9-5 14.3-9.9 12.8s-5.9-12.1-10.2-12.1c-4.2 0-4.7 3.7-4.7 9.6s4 17 16.2 17.6c12.1.5 17.6-10.6 17.6-10.6s11.6 19 14.1 22.2c2.4 3.2-6.2 8.3-3.7 16.6 2.4 8.3 9.4 6.2 11.3 12.2 1.9 6-2 5.3 3 17.3 5 11.9 13.2 6 16.1 10.6 2.9 4.6-2.2 11.7 1.6 16.7s7.3 3.4 13 5.1c5.7 1.7 3.2 10.9 9.6 11.3 6.4.4 5-5.3 10.9-8s6.4 3.6 12.5 0 10.7-12.5 10.7-12.5l-7.1-10.9z"/><path class="st1" d="M513.3 103.4c-2 4.9 54.5 119.3 60.7 124.3 4.7 3.7 22.4-6.8 30.9-12.3L581.4 178s-26.3-63.7-33.9-81.5c-11.6 1.1-32.7 3.4-34.2 6.9z"/><path class="st0" d="M593.5 175c-4.1 1-8.2 2-12 3 12.4 35.1 101.3 181 109.5 178.2.4-.1.7-.9.6-2.1L593.5 175zM617.8 166.7c-7.1 3.7-15.8 6.2-24.2 8.4l98.1 179.1c4-18.5-70.5-164.8-73.9-187.5zM638.8 342.7s17.3 28.6 24.8 25.3-9.9-34.8-9.9-34.8l-14.9 9.5z"/><path class="st2" d="m598.9 326.8 3 42.8c1.6.1 16.6-9.5 30.3-18.4l-19.9-34.6-13.4 10.2z"/><path class="st0" d="m634.9 299.2-22.6 17.3 19.9 34.6c12-7.8 22.9-15.2 22.9-15.2l-20.2-36.7z"/><circle class="st0" cx="583.6" cy="78.4" r="13"/><path class="st6" d="M598.9 173.6s-12.4-14.9-16.6-34.2c-4.2-19.3 9.2-43.5 9.2-43.5s20.1 22.2 23.2 36.5 3.1 34.1 3.1 34.1l-18.9 7.1z"/><path class="st6" d="M574.9 172.8c-3.6 3.2-.6 14.6 5.9 12.6s45.2-12.1 51.1-15c5.9-2.9.2-12.6-3.9-12.6s-49.6 11.8-53.1 15z"/><path class="st2" d="M631.5 313c-5.4-13.8-2-22.9 3.9-29.8s16.3-16.6 23.7-16.6 4.4 13.1 4.4 13.1 21.7 47.4 16.8 54.7c-5 7.3-20.8 8.9-27.2 7.3-6.3-1.5-16.2-14.9-21.6-28.7z"/><path class="st2" d="M648.7 294.7c2.8-7.1 10.5-15 21.6-16.8 5-.8 12.7 3.3 7.2 7.6 7.8-.7 11.9 8.5 7.8 11.8 7.6 0 11 7.3 5.8 12.3 6.2 0 7.6 6.9 4.7 12.5-3 5.6-18.3 15.4-24.7 15.4s-9.6-7.8-6.7-11.4c-5.7.7-9.6-8.2-5.7-11.3-5.4 0-8.7-3.1-6.9-8.7-5-1.6-5.9-4.3-3.1-11.4z"/><path class="st3" d="M651.7 306c4.1-8.7 18.8-19 25.7-20.5M658.6 314.7c3.1-5 14.8-17.3 26.5-17.3M691 309.6c-5.8-1-23.7 11.2-26.7 16.5"/><path class="st1" d="M548.5 403.9c35.6-12 35.4-42.9 29.1-68-4.4-17.6-25.5-38.1-37.7-48.7-28.7 10.5-68.6 35.7-68.6 35.7l11.9 42.4s12.1 11 12.3 29.4c9.9 7.4 29 17.3 53 9.2z"/><path class="st1" d="M563.3 283.1c-1.6-.4-3.6-.5-5.8-.4l-.1 5.5s34.6 17.8 42.8 50c7.8 30.7-9.1 74.6-49.1 82.3-28.1 5.4-47.6-6.4-56.8-14-.5 2.1-1.2 4.2-2 6.3 23.1 25.7 80.1 36 113.6-18.3 33.5-54.4-22.2-106.1-42.6-111.4z"/><path class="st7" d="M550.9 420.5c40-7.7 56.9-51.6 49.1-82.3-8.2-32.2-42.8-50-42.8-50l.1-5.5c-4.8.4-10.8 2-17.5 4.4 12.1 10.6 33.2 31.1 37.7 48.7 6.3 25 6.4 55.9-29.1 68-24 8.1-43.1-1.9-52.9-9.2.1 3.6-.4 7.6-1.4 11.7 9.2 7.7 28.7 19.6 56.8 14.2z"/><path class="st2" d="M210.3 331.3c0 1.5-67 136.3-67 136.3s15.3 11.1 22 4.7 59.6-121.7 59.6-121.7l-14.6-19.3z"/><path class="st1" d="M241.6 474.3s-13.7 33.8-13.2 39.3 12.4 5 15 1.5c2.6-3.5 13.1-43 13.1-43s-8.7 42.5-5.8 46.9c2.9 4.4 16.7 2.7 16.7-.7s3.4-44 3.4-44 1.6 38.1 3.8 42.7c2.2 4.7 16.3 2 16.3-1.5s-2-41.2-2-41.2l-18.2-15.6-29.1 15.6zM170.9 444.4s-19.3 38.3-19.3 42.2 11.9 9.3 14.1 5c2.2-4.4 20.5-43.3 20.5-43.3s-15 43.5-15 47.4 12.6 8.4 14.6 3.2 14.3-40.8 14.3-40.8-8.9 41.3-8.4 45.7c.5 4.4 10.7 4.7 15 .7 4.4-3.9 8.4-42.8 8.4-42.8l-8.2-29.5-36 12.2z"/><path class="st2" d="m174.8 432.5 44.3 16.2c2.2-8.7 5.2-21 8.6-35l-40.2-12.5c-5.3 12.7-9.8 23.6-12.7 31.3z"/><path class="st0" d="M170.9 444.4c0 7.9 40.2 22.5 44.3 17.6.7-.8 2-5.6 3.9-13.2l-44.3-16.2c-2.5 6.4-3.9 10.6-3.9 11.8z"/><path class="st5" d="m187.4 401.3 40.2 12.5c1.7-7 3.6-14.4 5.4-21.9l-36.9-11c-3 7.1-5.9 14-8.7 20.4z"/><path class="st2" d="M240.7 415.9c-.5 13.3-.7 25.9-.5 35.9l48 .7c-1-10.5-2.3-23.9-3.6-37.4l-43.9.8z"/><path class="st8" d="M283.6 347.7c7.7-13.3 33.9-24.6 33.9-24.6l-10.2-24.5c-1.5 1-40.5 8.6-54.3 31.3-3.2 5.2-5.6 15.3-7.5 27.9l36.2 1c.2-5.4.8-9.3 1.9-11.1z"/><path class="st0" d="M241.6 474.3c3 4.2 44.5 4.4 47.4 0 .8-1.2.2-9.6-.9-21.7l-48-.7c.2 12.7.7 21.3 1.5 22.4z"/><path class="st5" d="M282.7 391.8H242c-.5 8-1 16.2-1.3 24l44-.7c-.8-7.8-1.5-15.7-2-23.3z"/><path class="st1" d="m221.2 388.3 12 3.6c.8-3.3 1.6-6.5 2.5-9.8l-10.7-3.6-3.8 9.8z"/><path class="st1" d="m212 374.4-3.7 10 12.9 3.9 3.7-9.7zM200.6 370.6c-1.5 3.4-3 6.8-4.4 10.2l12.1 3.6 3.7-10.1-11.4-3.7zM282 381.4h-13.8l-.3 10.5h14.8c-.3-3.6-.5-7.2-.7-10.5zM253.7 381.4v10.4h14.2l.3-10.4zM242.7 381.4c-.3 3.5-.6 7-.8 10.5h11.8v-10.5h-11z"/><path class="st0" d="m223.9 346.4-11.6 28.1 12.2 3.9 9.6-27.8z"/><path class="st2" d="M213.2 342c-4.2 9.5-8.4 19.2-12.5 28.6l11.8 3.9 11.6-28-10.9-4.5zM243 354.3l-9-3.7-9.6 27.9 11.1 3.6c2.5-9.2 5-18.6 7.5-27.8z"/><path class="st8" d="M250.1 265c-5.3 7.7-21 41.1-36.9 77l29.9 12.3c9.2-32.8 19-62.3 27.2-69.3 20.2-17.6 39.5-8.8 39.5-8.8l2.8-29s-50.2 0-62.5 17.8z"/><circle class="st2" cx="212.7" cy="279.8" r="8.4"/><circle class="st2" cx="189.7" cy="314.5" r="8.4"/><path class="st0" d="M261.9 243.2c-1.5 2-21.7 6.6-28.9 19.8-7.2 13.2-3 48.9-13 63.7-10 14.8-24.1 10.3-28 19.4s1.6 22.4-3.8 30.8-18.8 3.1-20.2-3.5c-2-8.7 12.4-7.6 7.6-16.1-4.7-8.4-25.7.4-18.3 21.5 7.4 21.1 25 24.8 36.8 15.8s9.9-27.4 12.4-36.5c2.4-9.1 20.5-6.2 27.9-25.1 7.3-18.8 4.7-49.5 12.9-62.8 8.2-13.3 23.6-17.6 23.6-17.6l-9-9.4z"/><path class="st2" d="M312.6 253.2s-38.4 6.7-51.3.7c-12.9-5.9-12.4-19.9-9.9-27.6 2.4-7.9 15.2-16.8 27.6-11.6s7.2 19 2.5 18.8c-8.4-.5-1-13.6-12.1-9.8-5.4 1.9-11.1 12.1-1.3 18.2 9.9 6.2 44.3-1 44.3-1v12.3h.2z"/><path class="st2" d="M301.4 325.3c-8.9 0-8.4-20.4-1.5-20.4-8.9-3.9-5-12.7.7-16.3-6.7-3.6-3.9-15.1 1.5-17.7-6.7-4.7-4.7-16.8 4.2-18.5-4.4-5.3-4.2-12.8 2-17.6 6.2-4.7 22.3 3.5 22.3 3.5l-7 88.5s-13.3-1.5-22.2-1.5z"/><path class="st1" d="m358.2 271.3-2.7-22.2c-5.9.3-15 .4-22.8-1.6-2 7.3-4.7 19.4-5.6 35.9-1 17.9 0 29.4.7 35.1 11.6-1 23.1-3 29.9-13 1.7-2.5 3.3-4.5 4.7-6l-4.2-28.2z"/><path class="st1" d="M313.2 306h13.6c-.1-3.9-.2-8.4-.1-13.7h-13.1c-.2 5.3-.4 9.9-.4 13.7z"/><path class="st1" d="M313.9 319.9c4.4-.6 9.2-.8 13.9-1.3-.4-2.8-.8-7-1-12.7h-13.6c0 7 .4 11.5.7 14zM313.7 292.3h13.1c.1-2.7.1-5.6.4-8.8.1-1.3.1-2.6.2-3.9l-12.6-1c-.5 5.1-.9 9.6-1.1 13.7zM316.1 266.5c-.4 2.8-.7 6.1-1.1 9.6-.1.8-.1 1.6-.2 2.4l12.6 1c.3-4.4.7-8.4 1.3-12l-12.6-1zM332.8 247.6c-3.7-1-7.1-2.3-9.7-4.4h-.9s-1.8.1-4.1 11.3l12.3 3.1c.8-4 1.6-7.3 2.4-10z"/><path class="st1" d="m330.3 257.6-12.3-3.1c-.6 3.1-1.3 7-1.9 12l12.5 1c.6-3.6 1.1-6.9 1.7-9.9z"/><path class="st8" d="M291.5 190.5c-3.2 4.5 11.1 11.2 17 20.3s2.7 21.9 13.6 31.7c10.9 9.9 39.5 6.2 39.5 6.2v-16.3s-20 2.7-29.9-5c-9.9-7.6-7.6-18.2-14.6-27.2-6.8-9-22.4-14.2-25.6-9.7zM357.7 305.6c-15.3 22.6-54.9 4.3-65.7 26.4-10.9 22.1 11.9 33.2 11.9 39.7 0 6.4-13.3 10.6-10.9 14.1 2.5 3.5 19.3 4.4 24.2-9.9 5-14.3-20.8-21.4-14.1-38 6.7-16.5 41.5 6 58.6-15.1 17-21.1 11.3-39.7-4-17.2z"/><path class="st2" d="M366.1 173.6c-5.6 1.5-7.6-10.6-1.9-12.1-3.4-2.2-6.8-12.6.6-13.7-4.4-5.6-1.3-12.2 8.2-12.6-.6-7.3 3.8-14.1 11-10 .5-8.9 11.2-9.3 13.7-5.6 2.5-5.9 11-5.6 13.2 0 5.2-6.3 13-2.2 13 2.2 6.4-1.9 13.6 5.9 10 10 6.2 1.1 9.5 13 4.7 14.8 7.5 11.2-3.5 20.3-7.8 16.8-4.7 5.5-11.8 3.9-14.4-.9-2.6-4.7 4.4-11 4.4-11l.4-16.7h-15.6l-18.2 4.4-1.4 14.5-5.2 29.1s-9.2-10.7-14.7-9.2z"/><path class="st3" d="m430.8 163.4-3.4-7.9M426.4 149l12.2-2.4M433.8 131.8l-12.7 6.9M415.5 132.1l8.3-10.3M410.8 119.6l-2.4 10.7M397.6 132.3v-12.7M383.9 125.2l4.5 10.9M382.7 143.9l-9.8-8.7M364.7 147.8l14.3 3.8M379 164.9l-14.9-3.4"/><path class="st0" d="M375.9 179.5c1.2-2-1.6-25.2 5-38.5 6.7-13.3 32.8-16.5 41.7-9.1 8.9 7.4 8.4 20.5 6.3 25.2-2.1 4.7-8.4.8-9.6-3.3-1.3-4.1 1.1-12.3-4.8-14.2-5.9-2-19.6-2.4-23.3 8.9s-3.7 31.1-3.7 31.1l-11.6-.1h0zM342.3 354.5l42 .4c-.2-5.2-.4-11-.5-17.4l-38.7-1.5c-.9 6.9-1.9 13.1-2.8 18.5z"/><path class="st2" d="m345.2 336 38.7 1.5c-.1-4.6-.1-9.5-.2-14.5l-36.6-.7c-.6 4.8-1.3 9.4-1.9 13.7zM337.5 381.6h48.4s-.8-10.2-1.5-26.8l-42-.4c-2.9 17.7-4.9 27.2-4.9 27.2z"/><path class="st0" d="m397.6 193.5-43.6-2.3c.3 3.5.5 7.5.7 11.9l40 1.7c1-4.1 2-7.9 2.9-11.3z"/><path class="st2" d="M354.7 203.1c.2 5 .4 10.5.4 16.7l36.1 1.6c1.2-5.9 2.4-11.5 3.6-16.5l-40.1-1.8zM403.4 174.3l-51.7-2.2s1.3 6.4 2.3 19.1l43.6 2.3c3.2-12.1 5.8-19.2 5.8-19.2z"/><path class="st0" d="M352.5 273.4c-1.7 18.3-3.6 34.7-5.4 48.8l36.6.7c-.1-14.2.1-30.1.8-46.7.9-20.2 3.6-39.1 6.7-54.8l-36.1-1.6c0 14.6-.6 32.5-2.6 53.6z"/><circle class="st2" cx="364.7" cy="276.2" r="16.2"/><path class="st2" d="M551.4 260.1s14.8-9 19.3 2.2c4.4 11.3-15 50.8-31.9 57.6-16.8 6.9-22 3.3-22 3.3L471.4 351l-52-26.2 4-86.9 7.9-12.3 37.4 7.9h36.7l2.4 39.7 19.7 5.6 13.9-11 10-7.7z"/><path class="st1" d="M461.8 250.9c-5.3 1.8-7.9 27.2-5.3 31.9 2.6 4.7 17.6-6.2 17.6-15.2-.1-9-7-18.5-12.3-16.7z"/><path class="st0" d="M515.1 275.2s9.9-46.3 18-46.3 1.3 49.1 1.3 49.1l-19.3-2.8z"/><circle class="st1" cx="464.4" cy="266.6" r="5"/><path class="st2" d="M483.3 239.8s-4.4 11.4 7.9 10.3c12.4-1 9.3-24.7 9.3-24.7-1-4.2-11.5-5.2-16.5-1.9s-6.2 5.3-14.5 6.3-6.3-6.4-27-5l-10.2 32.8"/><path class="st9" d="m505.5 233.4-4.7-2.9c.1 7-.9 18.9-9.6 19.6-12.4 1-7.9-10.3-7.9-10.3s-4.4 11.4 7.9 10.3c8.7-.7 9.7-12.7 9.6-19.6l-6.7-4.1-3.6-4.7c-2.4.1-4.8.8-6.5 1.9-5 3.3-6.2 5.3-14.5 6.3-.5.1-1 .1-1.5.1 1 5 2.6 11.7 5.6 19.3 6.7 17.2 23.4 42.3 43.2 34.5-15.6-9.9-11.3-50.4-11.3-50.4z"/><path class="st1" d="M512.9 228.9s11.8.8 10.7 5.8c-1.2 4.9-10.7 4.9-10.7 4.9s11 .7 9.9 4.4-12.6 4.8-12.6 4.8 11.9-1 11.9 3.9-11.9 7.4-11.9 7.4 10.4-2.1 11.9 1.8c1.5 3.9-4.7 7.6-6.9 9.6l-7.7-5.7v-34.9l5.4-2zM534.5 273.1c-.2.3-9.4-4.2-8.7-8.2s15.1.8 15.1.8-12.6-2.9-10.7-8.6c1.9-5.7 12.9.2 12.9.2s-10.3-5.3-8.7-9.7 9.4.6 9.4.6-6.2-8.2-3.6-11.1c2.6-2.9 9.3 8.3 9.3 8.3l-3.9 19.1-11.1 8.6z"/><path class="st0" d="M498.5 232.6s14.3-8 15.8-2.2-3 20.1-.5 32.4c2 10.2 8.7 12 18.6 6.5 9.9-5.5 6.4-18.8 11.3-24.7 5-5.9 13.1 2.9 12.1 12.9s-7 21.4-18 27.1c-11 5.7-29.9 5-36.7-6.1-6.8-11-7-39.1-7-39.1l4.4-6.8z"/><path class="st9" d="M483.3 239.8s-4.4 11.4 7.9 10.3c12.4-1 9.3-24.7 9.3-24.7-1-4.2-11.5-5.2-16.5-1.9s-6.2 5.3-14.5 6.3"/><path class="st6" d="M466.9 336s-15-17.7-9-29.9c5.9-12.2 22.6-10 24.4-3.1 1.8 6.8.4 11.8-8.2 11.8 4.8 8.5 24.5 8.4 24.5 8.4l-5 25.9-26.7-13.1z"/><path class="st3" d="M470.4 304.5s-5.6 8.9 3.6 10.2"/><path class="st6" d="M592.1 598.1s-1.5 8.4 2.5 12.4c4 3.9 7.9 3.8 10.7 5.1 2.9 1.3 1.4 18.8 13.1 16.9 11.7-1.9 5.8-11 7.8-14.8 2-3.9 16.2-4.8 16.2-11.9s-3.7-9.6-3.7-9.6l-46.6 1.9z"/><path class="st0" d="M610.5 582.9c.4-5.2-14.5-1.5-19.9-4.7 0-2 16.2-4.2 16.2-8.9 0-4.2-11.6.8-21.6-4.1-.3.6-.6 1.3-.8 1.9-2.5 6.7.1 16.5 3.3 23.6 8.3-1.5 22.6-4.2 22.8-7.8z"/><path class="st1" d="M614.7 592.9c.8-3.7 22.5-3 21.4-8.2-1-5.2-23.7-6.6-19-15.2 3.1-2.2 12.4 5.9 16.8 3 3.3-2.2 2.5-10.5 1.9-14.6-7.2-4.9-17.6-7.9-24.8-7.9-10.4 0-21.4 6.2-25.9 15.1 10 4.9 21.6-.1 21.6 4.1 0 4.7-16.2 7-16.2 8.9 5.5 3.3 20.3-.4 19.9 4.7-.2 3.6-14.5 6.4-23 7.7 1.6 3.3 3.2 6 4.5 7.5 13.2 14.5 40 7.3 46.6-1.9.4-.5.7-1 1-1.7-9.7 3.6-25.4 1.7-24.8-1.5z"/><path class="st0" d="M643.6 567c-1-3.4-3.9-6.5-7.8-9.1.6 4.1 1.4 12.4-1.9 14.6-4.4 3-13.6-5.2-16.8-3-4.7 8.6 17.9 10 19 15.2s-20.5 4.4-21.4 8.2c-.7 3.3 15 5.1 25.1 1.6 3.6-6.3 6.4-18.5 3.8-27.5z"/><path class="st4" d="M400.8 427.4c.1-.1 0-.1 0-.1.1 0 .1 0 0 .1zM394.5 426.2l1.9.4c-.5-.5-1.1-.7-1.9-.4zM430.8 432.8l2.5.4c-.3-1-.5-2-.8-3-.5.9-1.1 1.7-1.7 2.6z"/><path class="st3" d="m400.8 427.4-4.4-.8c1.3 1.1 2.2 3.4 4.4.8z"/><path class="st7" d="M466.9 442.4c.7-.8 1.4-1.7 2-2.8l-35.5-6.4c6.1 21.7 19.7 23.7 33.5 9.2zM364.7 424.3c-1 8.8 20.5 16.2 26.5 5.9 1.4-2.4 2.5-3.6 3.3-4l-29.2-5.3c-.3 1.6-.5 2.7-.6 3.4zM430.8 432.8l-29.9-5.4c4.4 12.9 21.1 16.9 29.9 5.4z"/><path class="st6" d="m469.4 354.9-83.5-66.6S380.8 360 373 390.1l101 18.2c.1-25.1-4.6-53.4-4.6-53.4zM368.1 409.3c-1.2 4.8-2.1 8.8-2.7 11.6l29.2 5.3c.8-.4 1.4-.1 1.9.4l4.4.8.1-.1c0 .1.1.1.1.1l29.8 5.4c.6-.8 1.2-1.6 1.7-2.6.2 1 .5 2.1.8 3l35.5 6.4c2-3.5 3.3-8.4 4.1-14.2l-104.9-16.1z"/><path class="st7" d="m473.6 418.6-103.5-17.2c-.7 2.8-1.4 5.5-2 7.9L473 425.5c.2-2.2.5-4.5.6-6.9z"/><path class="st6" d="M474 408.2 373 390c-1 4-2 7.9-2.9 11.4l103.5 17.2c.2-3.4.4-6.9.4-10.4z"/><circle class="st0" cx="507.9" cy="331.3" r="19.7"/><circle class="st1" cx="507.9" cy="331.3" r="8.9"/><path class="st0" d="M391.2 368.1s-10.4 98.6-10.4 106.2 12.5 6.2 15.4 0 11.4-103.7 11.4-103.7l15.7 3.7s-3.1 92-1.5 104.7 13.9 10.4 15 3.2c1-7.1 3.3-107.8 3.3-107.8l16 3.2s6.2 98 8.2 105.7c1.9 7.6 12.7 6.4 12.7 1s-5-109.8-5-109.8l-48.6-19.8-32.2 13.4z"/><path class="st6" d="M399.7 329.9s-13.6 39.5-12.1 43.7 86.2 9.9 89.2 5.7-33.1-37.7-33.1-37.7l-44-11.7z"/><path class="st6" d="M512.6 360.9c-8.2-22.8-71.4-31.6-78.8-53.9s19.3-93.6 12.8-96.1c-1.4-.5-5-.8-10.1-.3-7.3 19-29.9 83.5-10.2 107.8 23.2 28.7 70.2 31.2 76.1 52.4 4.6 16.4-10 26.3-16.9 30 4.2 6.8 6.5 12 6.5 12s32.2-19.8 20.6-51.9z"/><path class="st0" d="M502.5 370.7c-5.9-21.2-52.8-23.7-76.1-52.4-19.7-24.3 2.9-88.7 10.2-107.8-18.2 1.9-54 14.3-59.4 63.5-6.9 62.8 53.6 86.7 75.4 93.6 13.8 4.4 25.9 21.2 33 33 6.8-3.5 21.5-13.4 16.9-29.9zM245.5 357.7c-1.1 7.3-2 15.3-2.7 23.6h11.9l2-23.3-11.2-.3z"/><path class="st2" d="m256.7 358-2 23.4h13.7l1.3-23.1z"/><path class="st0" d="m281.6 358.6-11.9-.3-1.3 23.1H282c-.5-8.8-.7-16.8-.4-22.8z"/><path class="st2" d="M598.7 452c-6.7-.5-13.9-1.3-21.1-2.4v43.2c7.6-1 14.8-2.1 21.2-3l-.1-37.8zM600.4 555.7c-5.8-6.5-18.2-14.9-24.8-9.9-6.5 5 9.5 7.6 5.9 11.4-3.6 3.9-18.2.9-17.5-9.9s7.3-12.3 15-12.3 24.5 6.7 31.1 13.7c3.9-7.3 13.3-13.6 24.2-13.6s27.6 9.5 21.2 18.4c-4.3 6-14.3 4.5-15.8-.5s8-4.3 5-7.2c-3.1-2.9-12.5-.7-12.5-.7s-7.6 3.9-9.6 9.2c-2 5.3-16.4 7.9-22.2 1.4z"/><path class="st0" d="M561.4 657.4c3.6-4.7 13.3.2 13.3-4.5s-12.3-3-14.8-10.9c-2.4-7.9 22.2 1.9 23.3-5.4 1.2-7.3-16.8-11.3-18.5-15.8-1.8-4.4 9.9-11.1 10.9-14.5s-1.7-9.1-6.2-9.3c-4.4-.2-3.2-12.5.7-16.9s7.4 8.2 10.4 5.2-5-20.3-13.9-18.2-5 31.6-9.6 33.6c-4.7 2-13.1 13.6-15.2 27-2.1 13.4 1.4 11 1.9 16.4.5 5.3-7.9 2.6-7.9 9 0 3.5 2 9.9 3.8 15.1 7.9 1.4 17.3 2.7 28.5 3.8-3.3-3.8-9.3-11.1-6.7-14.6zM527.6 331.3c0 1.2-.1 2.3-.3 3.4 5 10.6 17.3 38 31.1 75.2 17.8 48.3 34.8 100.3 37.8 104.7 3 4.4 11.4 3.2 10.2-1-1.2-4.2-18.3-58.3-38-107.5-14.9-37.1-28.7-70.2-34.5-84.3-3 1-5.5 1.6-7.6 1.9.8 2.3 1.3 4.9 1.3 7.6zM519.8 347c2.6 15.7 5.9 42.1 5.9 73.8 0 52-9 103.4-9 110.8 0 7.4 9.3 1.3 10.8-7.2 1.6-8.4 10.7-51.6 9.7-103.6-.7-39-7.3-70.6-10.5-84-1 4.1-3.6 7.7-6.9 10.2zM647.3 517c-2.9-7-29.1-72.1-56.3-120.1-19.7-34.8-39.2-65.1-48.4-79.1-1.3.8-2.5 1.6-3.8 2-1.3.5-2.5 1-3.7 1.4 8.7 13.1 28.5 44.4 47.4 82.6 25.1 50.7 53.4 112 56.9 117.8 3.4 5.8 10.8 2.5 7.9-4.6z"/><circle class="st2" cx="234.4" cy="323.1" r="39.5"/><circle class="st0" cx="234.4" cy="323.1" r="18.5"/></svg>