<svg version="1.1" id="Calque_1" xmlns="http://www.w3.org/2000/svg" x="0" y="0" viewBox="0 0 900 900" style="enable-background:new 0 0 900 900" xml:space="preserve"><style>.st0{opacity:.4}.st1,.st10,.st11,.st2,.st3,.st4,.st5,.st6,.st7,.st8,.st9{fill:#0d4c00;stroke:#020202;stroke-width:3.3661;stroke-linecap:round;stroke-linejoin:round;stroke-miterlimit:10}.st10,.st11,.st2,.st3,.st4,.st5,.st6,.st7,.st8,.st9{fill:#333}.st10,.st11,.st3,.st4,.st5,.st6,.st7,.st8,.st9{fill:#fff}.st10,.st11,.st4,.st5,.st6,.st7,.st8,.st9{fill:#914100}.st10,.st11,.st5,.st6,.st7,.st8,.st9{fill:#331600}.st10,.st11,.st6,.st7,.st8,.st9{fill:none}.st10,.st11,.st7,.st8,.st9{fill:#ffce00}.st10,.st11,.st8,.st9{fill:red}.st10,.st11,.st9{fill:#0059aa}.st10,.st11{fill:none;stroke-width:5.0491}.st11{fill:#004070;stroke-width:3.3661}</style><path class="st2" d="M226.4 140.9c1.7 2.2 18.5 11.2 20.8 11.2 2.2 0 6.2-6.7 3.9-8.4-2.2-1.7-15.7-10.7-18.5-10.7s-7.8 5.6-6.2 7.9zM236 124.1c2.2 2.2 17.7 10.9 21 10.4 3.4-.6 3.1-5.3 3.1-7s-17.4-11.8-19.6-11.8c-2.3-.1-6.8 6.1-4.5 8.4zM252.2 97.7c-2.2-1.1-6.2 4.5-5 7.9 1.1 3.4 17.4 10.7 19.1 10.7 1.7 0 5.6-5.6 4.5-7.9-1.2-2.3-16.3-9.6-18.6-10.7zM265.1 74.1c-2.8-.6-9.5 8.4-7.9 11.2 1.7 2.8 18 14.6 20.2 14.6 2.2 0 10.1-10.7 7.9-13.5-2.2-2.8-7.9-2.8-7.9-2.8l-7.3-4.5c.1.1-2.1-4.4-5-5z"/><path class="st3" d="M209.6 275.5c-13.5 12.3-12.9 29.7-18 42.1-5 12.3-28.6 60-23 64 5.6 3.9 22.4-2.2 26.4 7.3 3.9 9.5-3.4 16.8-1.1 24.7 2.2 7.9 16.3 14 27.5 8.4 7.9-1.1 13.5 9.5 26.9 9.5 13.5 0 26.4-9.5 26.4-9.5s7.9-100.4 8.4-100.4 72.4 10.7 72.4 10.7l-5.6-37.6s-18-15.1-24.1-13.5c-5.6-2.2-75.2-17.4-75.2-17.4s-27.5-.6-41 11.7z"/><path class="st4" d="M317.3 312.6s14.6 8.4 24.1 8.4 17.4 15.1 6.2 18.5c-11.2 3.4-31.4-2.8-31.4-2.8l1.1-24.1z"/><path class="st5" d="M181 224.8c42.1-60.3 89.2-145.6 89.2-145.6s7.9.6 7.3 4.5c-4.5 16.8-79.1 133-91.4 145.3-3.4 2.2-6.8-1.4-5.1-4.2z"/><path class="st4" d="M272.4 274.4c8.4-4.5 19.6-23 28.6-25.8 13.5 2.8 19.6 13.5 19.6 13.5l-2.2 10.1-2.8 16.3-6.5 12.9H287c0-.1-23-22.5-14.6-27z"/><path class="st6" d="M228.1 288.4s-21.9 54.4-16.3 84.2"/><path class="st4" d="M201.2 188.6 204 206s2.8 14.6.6 23.6c-2.2 9-7.3 20.8-7.9 26.9-.6 6.2.6 14 6.7 20.8 6.2 6.7 46 25.8 64 26.4-5.6 6.7-5 47.1-2.8 52.2 2.2 5 3.9 12.3 3.9 12.3s-9.5 3.6-12.3 5.3c-2.8 1.7-5 14.9-1.1 21 3.9 6.2 11.2 23 11.2 31.4 0 8.4-2.2 16-4.5 20.5-2.2 4.5-11.8 9.3-14.6 14.9-2.8 5.6-2.2 18-3.9 24.1-1.7 6.2-15.7 9.5-15.1 14.6.6 5 16 13.2 17.1 16.5 1.1 3.4 2.5 8.7 5.3 10.9 2.8 2.2 17.4 1.7 16.8-2.8-.6-4.5-7.3-14.6-9-18.5-1.7-3.9 1.4-21.9 6.5-26.4 5-4.5 31.7-26.4 31.1-49.4s0-28.6 0-28.6 27.2 25.2 28.3 28.1c1.1 2.8-3.1 11.2-3.6 20.8-.6 9.5 4.8 21.3 4.2 27.5-.6 6.2-1.4 20.8 4.2 21.9 5.6 1.1 16.8-1.1 20.2 0s7.9 6.7 13.5 7.3c5.6.6 16.3-4.5 16.8-6.2.6-1.7-3.9-9-5.6-10.7-1.7-1.7-15.7-.8-19.1-.8s-14-7-14.6-18.2c-.6-11.2 7.9-34.8 5-50.5s-39.8-55-39.8-55 21.3-41 12.9-66.2c-11.8-7.3-18.5-5-18.5-5s-60-36.5-75.7-40.4c1.1-18-2.8-32.5-2.8-32.5s3.1-3.9 3.9-7.9c.8-3.9 2.2-21.9 1.1-26.9s-3.9-11.2-6.7-11.8-6.5 1.1-5.3 3.9c1.1 2.7-13.2 9.5-13.2 9.5z"/><path class="st3" d="M318.4 272.2c-5.6 3.4-5 19.1-5 19.1l3.9 2.8s8.4-8.6 8.4-12.9c0-4.4-3.3-8.5-7.3-9z"/><path class="st4" d="M324.1 209.9c5.6 4.5 5.6 14 7.3 17.4 1.7 3.4 8.4 7.9 9 9.5.6 1.7-6.2 2.8-6.2 2.8s3.4 7.9 1.1 10.7c.6 2.8.6 3.9-.6 7.3s-8.4 7.3-12.9 7.3-14-5-15.7-7.9c-1.7-2.8-5-8.4-5-8.4l-11.2-15.7 8.4-22.4 15.1-2.8c0-.1 5-2.3 10.7 2.2z"/><path class="st6" d="M306.1 222.8c2.2-4.5 11.8-7.9 11.8-7.9M321.2 255.3s9.5-4.5 14-5"/><path class="st7" d="M351 267.1c-15.7 6.2-21.3 32-11.8 58.9s31.1 40.7 44.6 36.2 19.9-25.5 12.1-54.1c-7.9-28.6-29.2-47.2-44.9-41z"/><path class="st3" d="M355.5 274.4c-9.5 2.4-13.5 25.8-7.3 44.9 6.2 19.1 20.8 32 30.9 29.2s10.7-25.2 6.2-43.2c-4.6-18-20.3-33.3-29.8-30.9z"/><path class="st6" d="m221.4 421.9 13.5-33.1"/><path class="st3" d="M264.6 355.8c2.8-1.7 10.1 7.3 41 10.1 5.6 11.2 3.1 15.4-2 17.1-5 1.7-45.2-4.8-47.4-9.5-2.2-4.8 6.2-9.8 6.2-9.8s-.6-6.3 2.2-7.9z"/><path class="st6" d="M262.3 363.6s26.4 10.7 42.6 7.3"/><path class="st3" d="M305 370.9c-4.8 1-10.5.8-16.2-.1-1.8-4.4-.4-11.7 4.7-12.3 5-.6 7.6 6.7 7.6 6.7l3.9 5.7z"/><path class="st3" d="M301.1 365.3s9.5 27.5-4.8 36.5c-2.2 2.2 5.9 16.8 19.4 19.1 14.6-43.8-5.6-54.4-8.7-56.1-3.1-1.8-5.9.5-5.9.5z"/><path class="st6" d="m366.1 494.3 8.4-2.2M370.1 498.8l7.5-2.2"/><path class="st4" d="M201.8 199.5c-3.4.6-10.7-4.8-13.5-8.7-2.8-3.9 11.2-20.2 16.8-20.2 5.6 0 12.9 6.7 12.9 6.7s-12.9 21.6-16.2 22.2z"/><path class="st6" d="m191.1 183.5 14 10.1M196.1 177.9l14.1 10.7M202.3 172.9l11.8 9.5"/><path class="st4" d="M225.3 213.8c.8-3.9 2.2-21.9 1.1-26.9s-3.9-11.2-6.7-11.8-6.5 1.1-5.3 3.9c1.1 2.8 3.1 14.6 3.1 14.6"/><path class="st5" d="M273.6 264.3s3.9-8.4 3.4-12.3c-.6-3.9-3.9-6.7-2.2-10.1 1.7-3.4 5.3-2.5 5.9-7 .6-4.5-3.9-9-1.1-14s19.4-18.2 25-18.8c5.6-.6 20.2-1.7 24.7.6 4.5 2.2 4.8 9.8-.8 10.9-5.6 1.1-14.9-.8-18.8-.3-3.9.6-7.6 6.2-8.1 11.8-.6 5.6-.3 23.6-.3 23.6l-5 15.1-19.4 16.2-3.3-15.7z"/><path class="st3" d="M224.2 254.2c2.8-8.4 47.7 2.8 53.3 10.1 5.6 7.3 16.3 25.2 32 29.2 5.6 2.8 0 7.9 0 7.9s-31.4-.6-50.5-10.7-32.6-30.9-34.8-36.5z"/><path class="st3" d="M316.5 290.7c2.2 1.1 3.6 9 2 10.7-1.7 1.7-8.1 2.2-9.3 0-1.1-2.2-2.2-7-1.1-9s6.1-2.8 8.4-1.7zM311.7 226.2l8.4-3.9s2.5 1.7.3 4.5c-2.2 2.7-8.7-.6-8.7-.6z"/><path class="st6" d="m253.4 521.2 3.3 7.3M259.5 521.8l3.4 6.7"/><path class="st4" d="M191.1 567.8s7.9 10.1 9 18c1.1 7.9-7.3 20.2-7.3 20.2l29.7 18.5 32-4.5s0-6.7-3.9-10.7c-3.9-3.9-23.6-14.6-24.1-16.8-.6-2.2-1.1-7.9-1.1-7.9s8.7-.3 10.4-3.6-.8-7-.8-7 4.2-.6 4.8-2.8c.3-1.4-1.8-3.7-5.8-2.4-4 1.3-3.2-1.9-3.5-4.3l6.7-1.7-1.1-7.3s9.8-.6 8.7-3.4c-1.1-2.8-8.4-6.7-10.1-10.7s-.3-12.3-4.8-14.6c-4.5-2.2-27.5 1.1-27.5 1.1l-11.8 12.3.5 27.6z"/><path class="st6" d="M225.3 584.6s-10.1.6-15.1-3.4M230.4 564.4l-9.6 1.7M236 555.5s-2.4.8-5-.6c-3.4-1.7-1.1-5-1.1-5"/><path class="st3" d="M158.6 612.1c10.1-3.9 24.7-2.2 24.7-2.2l2.2 13.5-8.4 1.7c0-.1-16.3-6.2-18.5-13z"/><path class="st4" d="M194.5 695.2s-5.3 7-4.2 18.8c1.1 11.8 12.1 32.8 11.5 36.7-5 .6-10.7 6.2-14.6 14.6-3.9 8.4 1.7 27.5 0 32.5s-.6 8.4-2.8 10.7c-2.2 2.2-8.4 6.2-7.9 11.8s14 6.2 17.4 10.1c3.4 3.9 14.6 19.6 19.1 19.6s20.2-15.7 17.4-17.4c-2.8-1.7-25-14.6-25.5-20.2s4.2-23.6 7.6-29.7c3.4-6.2 23-50.5 23-50.5l10.1-3.9s12.9 5 13.5 7.9-1.1 21.9-.6 29.2c.6 7.3 11.8 19.1 12.9 24.1 1.1 5 1.7 21.9 6.2 23.6 4.5 1.7 11.8-4.8 18-3.6s16.3 10.9 21.9 11.5c5.6.6 15.7-1.4 14.6-4.8-1.1-3.4-23.6-14.9-32-23-3.4-2.2-12.3-3.6-12.3-3.6s2.8-25.2 1.1-28.6c-1.7-3.4-3.9-7.3-3.9-7.3s8.1-18 2.5-25.2-24.4-27.5-26.6-32.5c-7.9-1.1-25.8 6.7-25.8 6.7l-40.6-7.5z"/><path class="st3" d="M214.1 548.2c1.1-1.7 9-7.9 9-7.9s4.2 4.2 2.5 6.5c-1.7 2.2-11.5 1.4-11.5 1.4z"/><path class="st6" d="m312.8 813.5 7.3 5.6M319 811.3l7.9 6.2M210.2 838.2l9.5 6.2M216.9 830.4l11.2 8.4"/><path class="st5" d="M181.6 528.5c4.5-8.4 34.2-12.3 42.6-11.2s7.9 7.3 5.6 9.5c-2.2 2.2-24.7 6.2-27.5 10.1-2.8 3.9 1.1 17.4-1.1 21.9s-7.9 11.8-9 15.7c-1.1 3.9 1.4 9.3-2 10.4s-11.5-1.4-13.2-7.6c-1.7-6.2-1.7-11.2.6-14.6 2.2-3.4 5-4.5 3.9-9.5s-4.4-16.2.1-24.7z"/><path class="st3" d="M168.7 614.4c7.9-.6 15.7 4.5 15.7 4.5M190.5 607.6s-7.3-7.9-12.3-12.3c-5.6 10.1 2.2 19.6 2.2 19.6l11.2 7.3-1.1-14.6z"/><path class="st3" d="M180.4 614.9s2.2-9 12.3-9c10.1 0 41 6.7 54.4 7.3 13.5.6 4.5 19.1 4.5 19.1l6.7 42.1-2.2 11.8-21.3 16.3-36.5-15.7 6.2-16.3-24.1-55.6z"/><path class="st6" d="M214.1 628.4c-10.1-16.8-28.6-19.6-28.6-19.6"/><path class="st7" d="M299.1 592.2c-33.7-7.9-54.1 14.9-57.5 34.5-3.4 19.6 11.2 47.7 39.8 53.3 28.6 5.6 48.8-9 54.4-34.8 5.6-25.8-3.1-45.1-36.7-53z"/><path class="st3" d="M298.8 601.5c-20.8-4.5-39.3 7.9-44.3 26.4s7.9 35.9 24.7 41.5c21.9 7.3 42.9-7 46.8-27.8 3.9-20.8-6.4-35.6-27.2-40.1z"/><path class="st2" d="M273.6 630.4c-3.4-.6-5.6 7.6-2.8 9.8 2.8 2.2 21.9 5 25.2 5.6s3.9-5.6 1.7-7.9c-2.3-2.2-20.8-7-24.1-7.5zM277.5 613c-3.4-.6-5.6 7.6-2.8 9.8s21.9 5 25.2 5.6 3.9-5.6 1.7-7.9c-2.2-2.2-20.7-7-24.1-7.5z"/><path class="st5" d="M273 663.7s10.7-45.7 12.3-49.4c1.7-3.6 10.1.6 9 5-1.1 4.5-14 47.7-14 47.7l-7.3-3.3z"/><path class="st4" d="M216.9 651.4c-4.5-17.4-24.1-34.2-29.2-35.9-5-1.7-9.8-2.2-12.1 3.4-2.2 5.6 15.4 49.9 32.8 54.4s44.3 2.2 49.4 3.9c5 1.7 14.6 9.5 18.5 8.4 3.9-1.1 9.5-19.1 7.9-20.8-1.7-1.7-7.3-3.4-11.2-4.5s-21.9 2.2-27.5 0c-5.6-2.2-16.8-8.9-28.6-8.9z"/><path class="st6" d="M214.1 668.2c9.5 2.8 28.6-1.1 28.6-1.1M268 676.9l11.5 3.7M270.2 672.2l10.1 2.8M273 666.5l9 2.9"/><path class="st3" d="M236.5 748.5c-.6-2.8-3.6-35.9-5.9-39.8-2.2-3.9 8.7-4.5 10.4-1.1 1.7 3.4 8.1 39 7.6 41.2-.6 2.2-11.5 2.5-12.1-.3z"/><path class="st3" d="M198.4 686.7c5-1.1 31.4 11.8 31.4 11.8l9.5-1.1s14-12.3 18-13.5c3.9-1.1 6.7 9.5 3.4 11.8S241 707.5 241 707.5l-10.7 1.1-35.9-13.5c.1.1-1.1-7.2 4-8.4z"/><path class="st3" d="M228.4 696.3c-2.2 1.7.6 10.1 2 12.3 1.4 2.2 9.5.6 10.7-1.1 1.1-1.7 0-10.7-1.1-12.3-1.2-1.7-9.4-.6-11.6 1.1z"/><path class="st4" d="M489.2 783.5c-8.2 6.4-16.3 11.8-18.8 12-5 .6-11.2-5.6-19.1-6.2-7.9-.6-20.2 5-28.6 4.5-8.4-.6-11.2-10.7-29.2-20.2-3.4-3.4.3-11.2-4.8-11.2-5 0-2.5 11.8-4.8 11.8-2.2 0-16.5 2.2-18.2 4.5-1.7 2.2-.3 4.5-.3 4.5s-5.6 3.1-5 6.5c.6 3.4 2.8 3.6 6.2 3.1-1.7 1.7.6 5 5 5-2.8.6-1.1 7.9 2.8 5.6 3.9-2.2 15.7-5 15.7-5s15.4 3.6 21 4.8c5.6 1.1 17.7 10.9 27.2 10.9s32.5 2 41 .8c6-.8 16.7-8.2 22.5-12.5-.4-5.5-2.9-14.1-12.6-18.9z"/><path class="st8" d="M456.5 669.4s-3.9 9-3.4 14c3.9-2.8 8.4-10.7 11.2-9 2.8 1.7 4.5 11.2 4.5 11.2s.6-12.3 2.8-13.5c2.2-1.1 1.7 5 2.8 7.9 1.1 2.8 2.8-2.2 2.8-2.2s1.8-2.8 3.7-6.3c-4-2.8-10.2-7-14.3-9.4-2.9 6.7-10.1 7.3-10.1 7.3z"/><path class="st4" d="M485.1 658.4c-1.7-4.5-27.5-14.3-34.2-16.5s-29.7-1.1-33.1-2.2c-3.4-1.1-19.1-24.7-23-25.8-3.9-1.1-5-.6-6.7 1.7-6.2-1.1-7.3 1.1-7.3 1.1s-4.5-2.2-7.3-3.4-4.5 1.7-2.8 5c1.7 3.4 19.1 14.6 19.1 17.4 0 2.8-18.5-2.2-19.1.6s1.1 5 5 6.2c3.9 1.1 10.7 2.2 10.7 2.2s4.5 6.2 7.6 6.7c3.1.6 12.9-1.7 15.7-.6 2.8 1.1 21 14.9 28.3 16.5 7.3 1.7 18.5 2 18.5 2s7.3-.6 10.1-7.3c4.2 2.4 10.3 6.6 14.3 9.4 2.5-4.6 5.1-10.5 4.2-13z"/><path class="st8" d="M558.6 752.9c1.1-2.8 8.4.6 12.3 2.8.6-3.9-5.6-11.2-5-12.9.5-1.5 17.1 2.7 25.2-.5-1.5-1-2.8-1.8-3.9-2.3-7.9-3.9-30.3-4.5-30.3-4.5v10.7l-9.5 5s1.7 7.3 7.3 9.5c1.4.6 6.1 1.5 12.3 2.8-4.4-4.1-9.1-9-8.4-10.6z"/><path class="st4" d="M647.8 766.4c-1.1-7.3-9.5-3.4-21.3-4.5-10.2-1-26.1-13.6-35.4-19.6-8.2 3.2-24.7-1-25.2.5-.6 1.7 5.6 9 5 12.9-3.9-2.2-11.2-5.6-12.3-2.8-.6 1.5 4 6.5 8.4 10.7 19 3.9 52.9 10.5 57.5 16 6.2 7.3-7.6 34.5-7.6 37.9 0 3.4 6.2 9 10.1 8.4 3.9-.6 10.7-5 12.3-10.7s.3-25.2 1.4-30.9c1.2-5.5 8.2-10.6 7.1-17.9z"/><path class="st6" d="M382.4 781c-6.2-2.2-16.8 2.2-16.8 2.2M383.5 787.2c-13.5 1.1-16.8 5.6-16.8 5.6M389.7 792.8c-13.5 1.1-18 5-18 5"/><path class="st8" d="M464.3 750.1s-3.9 2.4-6.9 6.6c1.2.1 1.9.1 1.9.1s6.7 7.9 11.2 10.7c.6-5.6.6-11.8.6-11.8s3.9 6.7 10.1 7.9c-2.2-3.9-2.8-10.7-2.8-10.7s8.4.6 14.6 5.6c-.6-3.9-8.4-10.1-8.4-10.1s7.3-.6 11.8-1.1c-3.9-4.5-15.7-2.8-23-5-1.6-.5-3.1-1.1-4.6-1.7-3.3 1.4-7.3 3.1-9.4 4 3.2 2.2 4.9 5.5 4.9 5.5zM395.5 674.1l-10.3-15.4-1.1 14.6s-6.7-2.8-12.3-3.4c0 6.2 5 16.8 5 16.8s-3.9-2.2-7.3 2.2c1.7.8 4.7 2.7 7.7 5.1 1.3-4.1 3.4-8.9 6.3-12.4 3.4-3.9 8.2-6.2 12-7.5zM372.9 722.1c-5.6 5.8-13.8 17.5-12.9 26.9 7.9-9 14.6-11.2 14.6-11.2s-4.5 18-1.7 23c3.4-7.3 7.9-15.1 7.9-15.1s1.7 7.9 6.7 12.3c3.4-4.5-.6-18 1.7-16.8 2.2 1.1 6.7 8.4 15.7 14 1.7-7.3-12.3-20.8-12.3-20.8s-5.2-9.7-19.7-12.3z"/><path class="st3" d="M492.2 684.7c8.8 13.4 11.7 37.5 12.6 48.2 6.5-2.1 10.5-4.7 12.7-4.7 0 0-2.9-30.8-8.1-46.3-5.4 1.1-11.2 2.2-17.2 2.8z"/><path class="st4" d="M478.9 685.3c-24.7-.6-72.9 4.8-72.9 4.8l-8.4-12.9-2-3.1c-3.7 1.3-8.6 3.6-12 7.6-2.9 3.4-4.9 8.2-6.3 12.4 5.9 4.5 12.1 10.6 9.9 12-3.4 2.2-6.2 10.1-10.7 12.9-.9.6-2.2 1.7-3.6 3.1 14.5 2.6 19.6 12.3 19.6 12.3s11.8-8.4 15.7-7.9c3.9.6 1.1 9 2.8 15.1 4.4 10.8 38.1 14.3 46.4 15 3-4.2 6.9-6.6 6.9-6.6s-1.7-3.4-5-5.6c2.1-.9 6.1-2.6 9.4-4-5.5-2.4-10-5.6-10-5.6s18.5 1.7 33.1.6c5.2-.4 9.5-1.4 13.1-2.6-.9-10.7-3.8-34.8-12.6-48.2-4.4.6-8.9.8-13.4.7zM516.8 680.6c-2.4.4-4.9.9-7.4 1.4 5.2 15.5 8.1 46.3 8.1 46.3 3.4 0 10.1 9 14 14.6 4.5-8.4 1.7-23.6 1.7-23.6l10.1 2.2 1.7-6.7 6 3.9c-1-8.8-6.8-26-34.2-38.1z"/><path class="st4" d="M676.4 732.7c-.6-7.3 3.9-23-1.7-25.8s-24.1 6.2-24.1 6.2-20.8-7.3-33.1-7.9-18 2.8-27.5 3.9c-8.4-7.3-24.7-11.8-24.7-11.8s-8.1-14.9-23.8-18.2c-7-1.5-15.3-.3-24.6 1.4 27.3 12.1 33.2 29.3 34.2 38.1l1.8 1.2s44.9 15.7 60 14c15.1-1.7 33.1-11.8 46-7.9 12.9 3.9 4.5 39.3 7.9 40.4 3.4 1.1 13.5-3.9 14-7.9.6-3.8-3.9-18.4-4.4-25.7z"/><path class="st8" d="M513.4 790c0-3.4 10.9-10.7 14.3-15.7-5-.6-6.7 3.9-11.8 5.6-.6-3.4 4.5-9 6.7-12.9-8.4 1.1-12.3 16.3-20.8 20.2-2.2-4.5 10.1-18 6.7-22.4-2.6 4.5-11 12.3-19.4 18.8 9.7 4.8 12.2 13.3 12.7 18.9 2.4-1.7 3.9-3 3.9-3s7.3 7.3 7.9 18.5c8.4-8.4-.6-18.5 2.2-20.8s9 3.4 18-4.5c-2.2-3.3-20.4.6-20.4-2.7z"/><path class="st6" d="m670.2 754.1 1.1 11.7M675.8 751.8l.6 10.1M380.7 616.6s6.7 5.6 14.6 14.6M388 615.5s6.2 4.5 12.1 14.6M626.4 810.2l-1.6 12.9M633.2 810.2l-1.7 12.9"/><g class="st0"><path class="st3" d="M635.1 553.1c.2 1.3.5 2.3.9 2.9 2.8 4.5 7.3 3.9 10.1 2.8 1.1-.4 3.7-7.5 6.4-16.4l-3.6-2.1-13.8 12.8z"/><path class="st9" d="M661.2 506.7c-1.1-3.4-29.7-21.3-29.7-21.3s-5.3-15.4-10.4-22.2c-5-6.7-16-14.3-16-14.3s6.7-24.1 4.5-42.1-12.9-30.3-12.9-30.3l-28.1-5 5 64.5s-.6 14 2.2 23.6 42.1 39.8 45.4 43.2c3.4 3.4 10.1 12.3 11.8 16.8 1.5 3.9.4 25.1 1.9 33.6l13.8-12.8 3.6 2.1c4.7-14.6 9.6-33.8 8.9-35.8z"/><path class="st3" d="M661.2 506.7c-.3-.8-2.3-2.6-5.1-4.7-3.9 11.1-13.2 38-12.3 40.6.8 2.5 4.7 4.9 6.6 6.1 5-14.6 11.6-39.7 10.8-42z"/><path class="st8" d="M630.4 510c2.1 7.9 0 37 0 37s8.7-6.2 9.8-9.5c1.1-3.4.8-20.8-4.2-31.4-1.7-3.4-7.7-4-5.6 3.9z"/><path class="st6" d="m638.5 551.8 6.2 5.6M642.1 548.7l5.1 4"/><path class="st10" d="M579.3 404.6s5 19.1 2.8 49.4c1.7 11.8 42.6 43.2 42.6 43.2"/><path class="st3" d="M494.5 547.1c-3 1.8-5 3.3-5.5 4.4-2.2 5 20.8 14.6 27.2 11.8 1.6-.7 4.5-2.2 7.9-4.2l-12.1-3.7-17.5-8.3z"/><path class="st9" d="M579.6 391.9 563 360.8l-16.3 6.2-6.2 31.4s-10.9 33.1-12.3 39.3-5.6 9.5-7.3 15.7c-1.7 6.2 4.5 53.3 13.5 72.4-3.6 3.6-28.6 14.5-39.9 21.4l17.5 8.3 12.1 3.7c10.9-6.1 27.6-16.8 28.8-21.1 1.7-5.6-2.8-12.9-2.8-23s1.4-54.1 2.5-58.1c1.1-3.9 17.1-11.5 21-21 10.8-29.2 6-44.1 6-44.1z"/><path class="st3" d="M552.9 538.1c.5-1.7.4-3.5.1-5.5l-41 22.9 6.4 6.8c9.1-4.8 33-19.1 34.5-24.2z"/><path class="st8" d="M493.5 543.1s3.4 10.1 9 8.4 41.5-20.8 41.5-29.7c-3.4 0-3.4 1.1-9.5 3.9-9 5.1-41 17.4-41 17.4zM630.4 269.9c-13.5 16.8-10.7 48.8-10.7 48.8l-10.6 1.1c-.1 3.2-.1 5.1-.1 5.1s-.1-1.9.1-5.1l-9.5 1-9.6 14.8 4.5 34.2s28.1 3.4 42.6 12.9c23-5.6 32-49.9 32-49.9s-21.9-18.5-25.2-24.1c-3.4-5.6-2.8-20.2-1.1-26.4 1-3.7 11.6-13.3 19.8-20.4-7-2.1-22.2-4.6-32.2 8z"/><path class="st7" d="M626.4 264.3c14.2-16.8 33-10.5 41-6.6 3-2.5 5-4.1 5-4.1s-9.5-7.5-16.8-8.4c-14-1.7-25.6 4.7-35.3 15.7-17.4 19.6-18 55.5-18 55.5l-2.7 4.3 9.5-1c.4-11.2 2.9-38.4 17.3-55.4z"/><path class="st7" d="M626.4 264.3c-14.4 17-16.9 44.2-17.3 55.5l10.6-1.1s-2.8-32 10.7-48.8c10.1-12.6 25.2-10.1 32.2-8.1 1.8-1.5 3.5-2.9 4.9-4.2-8-3.8-26.9-10.1-41.1 6.7z"/><path class="st9" d="M531.1 254.8s-25.8-13.5-29.7-20.2-15.1-48.8-15.1-48.8 9-16.3 6.7-25.8c-2.2-9.5-20.2-9.5-20.2-9.5l-9.5 15.7s-.8 15.1.8 18.5c1.7 3.4 6.5 6.7 6.5 6.7s6.2 48.8 13.5 61.2c7.3 12.3 54.4 35.9 54.4 35.9l21.3-6.7-14.6-32-14.1 5z"/><path class="st11" d="M444.7 180.7 544 50l5 5-97.6 130.8z"/><path class="st9" d="M453.1 154.3c-.6 3.9 11.2 16.3 14 15.7 2.8-.6 17.4-13.5 16.3-15.7-1.1-2.2-9.5-14.6-11.8-14.6s-18 10.7-18.5 14.6z"/><path class="st9" d="M486.2 185.8s9-16.3 6.7-25.8c-2.2-9.5-7.3-15.7-10.1-16.8-2.8-1.1-8.4 1.7-7.3 5.6 1.1 3.9 5.6 11.8 5 20.8"/><path class="st6" d="m457 148.7 13.5 16.9M465.4 144.5l10.7 17.1"/><path class="st9" d="m437.9 209.9 5-10.7-5.6-4.5s-15.1 19.1-15.1 23.6c0 2.4 2.9 5.8 6.2 8.4l13-13c-1.9-2.1-3.5-3.8-3.5-3.8z"/><path class="st11" d="m441.4 213.7-13 13c3 2.4 6.3 4.2 8.1 4.2 3.9 0 11.5-8.1 10.4-10.4-.6-1.2-3.2-4.3-5.5-6.8z"/><path class="st3" d="M439.5 179.3c-5.1 1.2-8.9 5.8-8.9 11.2 0 6.3 5.2 11.5 11.5 11.5 3.2 0 6.1-1.3 8.2-3.5-4.6-1.3-13.1-5.9-10.8-19.2z"/><path class="st3" d="M442.1 179c-.9 0-1.8.1-2.6.3-2.4 13.3 6.2 17.8 10.8 19.3 2-2.1 3.3-4.9 3.3-8.1 0-6.3-5.1-11.5-11.5-11.5z"/><path class="st10" d="m560.8 375.9-26.9 65.6s-3.4 4.5-5.6 18 12.6 65.6 12.6 65.6"/><path class="st10" d="M574.3 378.2c-5 26.4-31.1 56.1-33.9 79.7s6.5 61.7 6.5 61.7"/><path class="st10" d="M576.5 385.5c1.7 38.7-25.2 65.1-25.2 65.1M587.7 371.5c.6 1.7 24.7 30.9 10.7 79.1 19.1 16.8 31.4 41 31.4 41"/><path class="st10" d="M580.4 369.8c16.3 41 10.4 81.3 10.4 81.3s32.3 34.2 40.7 49.4"/><path class="st7" d="M550.2 507.7 529 510c.6 2.4 1.3 4.7 2 6.9l19.1-2.3c0-1.7.1-4 .1-6.9z"/><path class="st8" d="m550.1 514.6-19.1 2.3c1.1 3.3 2.2 6.3 3.4 8.8l16.7-1.9c-.6-2.7-1-5.6-1-8.8v-.4z"/><path class="st9" d="M524.9 300.8s14-11.8 17.4-19.6c3.4-7.9 2.2-23 2.2-23l30.3-6.7s24.1 28.6 26.4 38.7-4.5 86.4-4.5 86.4l-48.2 5-24.7-21.9 1.1-58.9z"/><path class="st2" d="M499.1 97.1c1.7 2.2 17.4 12.9 19.6 13.5s6.7-7.3 5.6-9-15.1-12.3-18-13.5c-2.7-1.1-8.9 6.8-7.2 9zM510.9 80.3c1.1 2.8 16.3 13.5 19.1 14 2.8.6 7.3-7.9 6.2-10.1S519.8 73 517 70.8c-2.8-2.3-7.3 6.7-6.1 9.5zM523.8 61.2c1.1 2.2 19.9 15.1 22.2 15.1s7-9 4.8-11.8c-2.2-2.8-15.7-12.3-18.5-13.5-2.9-1-9.6 8-8.5 10.2z"/><path class="st8" d="M593.3 228.4c12.3 5.6 10.7 14 14 14.6 3.4.6 7.6-4.5 6.5-9.5-1.1-5-13.7-14.6-13.7-14.6s-19.1 3.9-6.8 9.5zM573.7 281.1c.6-13.5-2.2-28.1-2.2-28.1l11.8-6.2 21.3 13.5-12.1 5 3.9 6.5-12.6 3.6c0 .1-3.9 4.6-10.1 5.7z"/><path class="st6" d="m592.5 265.4-12.1-15.1M577.1 250.8l6.7 24.7"/><path class="st1" d="m579.9 170.1 33.6-34.8-28 44.3 35.3-33.1-27.5 38.1 35.4-30.8-25.3 38.1 32.6-28-24.7 34.8 44.3-34.3-38.1 40.4-34.3-6.1z"/><path class="st9" d="m547.3 209.3-19 18.5 6.1 6.2 11.3 11.8 26.3-.6 12.9-5v-21.9z"/><path class="st6" d="M553.5 218.9v5.6M549 225.6s10.1-1.1 12.9 1.1"/><circle class="st6" cx="554.6" cy="228.4" r="2.2"/><path class="st7" d="m534.4 234 37 8.4s2.8 6.2 0 10.7c-7.9 8.4-36.7 9.5-39 7.9-2.2-1.7.3-12.9.3-12.9s-2.8-3.9-2.2-6.2c.6-2.3 3.9-7.9 3.9-7.9z"/><path class="st6" d="m532.7 248 9.9.6"/><path class="st3" d="m548.5 209.3 36.4 30.9 13.7-14.9-37.3-32z"/><path class="st7" d="m617.5 204.8-37.6-34.7-11.8 14.7 38.7 31.5z"/><path class="st7" d="m568.1 184.8-6.8 8.5 37.3 32 8.2-9z"/><path class="st6" d="m575.4 177.9 17.4 15.2"/><circle class="st3" cx="575.4" cy="246.9" r="7.9"/><path class="st1" d="m653.9 379.3-1.1 20.8s33.1 32 56.7 79.1c-1.1-41-29.2-67.9-29.2-67.9s23.6 28.1 35.9 35.9c-8.4-33.7-26.4-52.2-26.4-52.2s23.6 23.6 35.9 28.6c-10.7-25.2-27.5-40.4-27.5-40.4s29.7 16.8 43.2 16.3c-28.6-28.1-56.7-49.9-56.7-49.9l-18 6.7-12.8 23z"/><path class="st1" d="M698.2 383.2c-11.2-11.2-28.1-21.9-28.1-21.9M689.8 395c-15.7-15.7-28.1-21.9-28.1-21.9M680.3 411.3c-14-16.8-25.2-25.8-25.2-25.8"/><path class="st9" d="M652.8 400.1c2.8-2.2 35.3-47.7 34.2-52.7-1.1-5-15.1-15.7-18-14.6-2.8 1.1-31.4 46-32 49.9-.5 3.9 13 19.6 15.8 17.4z"/><circle class="st7" cx="651.1" cy="348.5" r="7.9"/><path class="st8" d="m568.1 345.7-1.1-14.6s2.2-7.9 5.6-7.9c3.4 0 15.1 9 15.1 9l-19.6 13.5z"/><path class="st8" d="m568.1 345.7 10.7 8.9 20.7-12.9 9.5-7.3-10.1-9.5-16.8 6.2zM550.7 350.4l-30.3 34 20.2 14 23.6-34.8-5.9-13.2z"/><path class="st8" d="m578.8 354.6 20.2-29.7s-19.1-.6-18.2 1.4c.8 2-10.4 17.1-10.4 17.1l8.4 11.2zM556.9 353.5l16.8 42.1 11.8-8.4-23.6-34.8z"/><path class="st8" d="m556.9 345.1 10.1-14 11.8 23.5-16.9.3zM553.5 347.9l-16.8-11.2s-2.2-9 .6-12.3c10.7 5 21 18.5 21 18.5l-4.8 5z"/><circle class="st8" cx="558.3" cy="350.4" r="7.6"/><ellipse class="st3" cx="487" cy="328.3" rx="51.3" ry="48.2"/><ellipse class="st3" cx="488.1" cy="328.3" rx="42.9" ry="40.4"/><circle class="st7" cx="488.7" cy="303" r="9.8"/><circle class="st7" cx="459.8" cy="328.8" r="9.8"/><circle class="st7" cx="489" cy="328" r="9.8"/><circle class="st7" cx="518.2" cy="327.1" r="9.8"/><circle class="st7" cx="490.7" cy="353.2" r="9.8"/><path class="st3" d="M596.4 329.4c0 9.6 7.8 17.4 17.4 17.4 6.3 0 11.8-3.4 14.9-8.4l-30.5-16.7c-1.1 2.3-1.8 4.9-1.8 7.7zM631.2 329.4c0-9.6-7.8-17.4-17.4-17.4-4.2 0-8.1 1.5-11.2 4.1l28.4 15.5c.2-.8.2-1.5.2-2.2z"/><path d="M602.7 316c-1.9 1.5-3.4 3.5-4.4 5.7l30.5 16.7c1.3-2 2.1-4.4 2.4-6.9L602.7 316z" style="stroke:#020202;stroke-width:3.3661;stroke-linecap:round;stroke-linejoin:round;stroke-miterlimit:10"/><path class="st6" d="m499.6 551-4.4 5.9M504.4 553.2l-2.8 6.2M512 555.5l-2.8 6.1"/><path class="st7" d="M528.3 437.7c-.3 1.1-.6 2.1-1 3l25.5 16c.6-1.3 2.7-3.1 5.5-5.2l-28.6-18.8c-.7 2.2-1.2 3.9-1.4 5zM605.1 448.9s.8-2.9 1.8-7.5l-32.6 9.4c.3 3 .9 6.1 1.7 8.8.1.3.2.5.3.8 6.8-2 22.8-6.9 30-10.7-.8-.5-1.2-.8-1.2-.8zM631.5 485.3s-.1-.1-.1-.4l-11.2 16.7c.6.5 1 .9 1.3 1.2 1.3 1.3 3.1 3.4 4.9 5.8l12.4-18.6c-4.3-2.7-7.3-4.7-7.3-4.7z"/><path class="st8" d="M647.6 495.9c-3.1-2.1-6.2-4.2-8.9-5.9l-12.4 18.6c2.4 3.1 4.8 6.7 6.1 9.4l15.2-22.1z"/><path d="M593.9 571.2c-4.5-10.7-35.3-33.7-43.8-56.1 0 10.1 4.5 17.4 2.8 23-1.3 4.2-18 14.9-28.8 21.1-3.5 2-6.4 3.5-7.9 4.2-6.4 2.8-29.4-6.7-27.2-11.8.5-1 2.5-2.6 5.5-4.4.2-.1.4-.3.6-.4-1.1-1.9-1.7-3.6-1.7-3.6s32-12.3 41-17.4c-9-19.1-15.1-66.2-13.5-72.4 1.3-4.8 4.2-7.9 6-12-6.7-30.7-47-34.1-55.9-34.6-9-.6-39.8 9.5-52.2 29.2-12.3 19.6-28.9 77.4-38.4 92.6-9.5 15.1-36.7 13.2-44 24.4-7.3 11.2-2.2 42.4 24.7 41.8 7.8-.7 12.4-5.6 17.1-9.6-10.9-.3-27.9-1.7-27.2-6.6 1.1-7.3 26.9-10.4 38.7-11.5 11.8-1.1 118.9 3.9 142.5 5 23.6 1.1 38.1 7.6 37.6 13.7-.6 6.2-21.9 0-21.9 0 5 2.8 5.6 17.4 21.3 16.8 15.7-.6 29.2-20.8 24.7-31.4z" style="fill:#117200;stroke:#020202;stroke-width:3.3661;stroke-linecap:round;stroke-linejoin:round;stroke-miterlimit:10"/><path class="st1" d="M511.4 415.2c-7.9-.6-15.7-14-24.7-15.7-9-1.7-18.5 3.9-23 2.8s18.5-9.5 14.6-16.3-19.6-4.5-25.2-6.2c-5.6-1.7-18.5-13.5-25.8-12.9-7.3.6-5.9 10.4-12.1 13.7s-13.7.3-14.3 4.8c-.6 4.5 9.5 11.5 17.4 11.5 7.9 0 11.8-3.6 12.9-7.6 7.3 6.2 30.3 3.4 30.3 3.4s-17.1 7.3-18.2 11.2c-1.1 3.9 4.2 12.9 13.7 12.9s19.4-9 27.8-6.7c8.4 2.2 17.1 14 27.2 13.5 6.5-.4 16.3-3.8 22.4-6.1.9-2.7 1.7-5.4 2.5-7.8-6.5 2-19.7 5.9-25.5 5.5z"/><path class="st9" d="M536.9 409.7c-.8 2.5-1.7 5.1-2.5 7.8.1 0 .2-.1.3-.1l2.4-7.8c-.1 0-.1.1-.2.1z"/><path class="st7" d="M569.8 585.8c.6-6.2-14-12.6-37.6-13.7-23.6-1.1-130.7-6.2-142.5-5-11.8 1.1-37.6 4.2-38.7 11.5-.8 5 16.3 6.3 27.2 6.6 2.7-2.4 5.5-4.4 9-5.2 9.5-2.2 155.7 3.1 160.7 5.9 0-.1 21.3 6 21.9-.1z"/><path class="st1" d="M418.9 388.8c-6.2 3.4-12.3-.6-18-3.4"/><path class="st8" d="M423.4 381.6c8.4 1.1 10.7-3.4 10.7-3.4s-6.8-5.1-10.7 3.4zM400.9 385.5s-12.9 2.8-24.1-4.5c0 8.4 9 10.7 9 10.7s-5 7.3-.6 13.5c3.4-10.7 19.6-14.6 19.6-14.6l-3.9-5.1z"/></g><path class="st8" d="M473.3 499.4s1.1 1.7 3.4 5c2.2 3.4.6 15.1 5.6 15.1s2.2-7.3 5.6-7.3 12.3 18.5 15.1 14c2.8-4.5-6.7-19.1-2.8-20.2 3.9-1.1 6.7 9 10.1 9.5 3.4.6 7.8-5.6 5.9-10.1-1.9-4.5-14.3-5.6-15.4-9-1.1-3.4 5-3.9 3.9-7.3s-7.9-4.5-7.9-4.5l-15.7-1.1-7.8 15.9z"/><path class="st4" d="M424.5 452.8s.6 11.8 5.6 14.6c0 2.8-2.8 12.3-.6 13.5s9.5-4.5 9.5-4.5-1.1 3.9 1.1 6.2c2.2 2.2 10.1-2.2 12.3-1.7s4.5 1.1 3.9 3.4-6.7 5.6-6.7 5.6 5 5.6 7.3 5.6c2.2 0 9-5 9-5s4.5 6.2 7.3 9c6.7-4.5 23.6-14.6 23.6-14.6l-10.1-10.1-25.2-30.9-28.1 2.2-8.9 6.7z"/><path class="st5" d="M416.6 447.8c-1.1 3.4 5.6 9.5 7.9 8.4 2.2-1.1 8.1-7.6 11.5-5.3 3.4 2.2 21.6.6 24.4 2.2 2.8 1.7 1.4 9.5 3.1 14 1.7 4.5 11.8 10.7 15.7 10.7 3.9 0 12.6-5.3 11.5-8.7-1.1-3.4-23.6-32-26.4-33.1-2.8-1.1-46.6 8.4-47.7 11.8z"/><path class="st6" d="M436.3 462.9c4.5 2.8 12.9-.6 12.9-.6M439.1 476.4l4.4-2.8M466 490.4c5-2.8 6.2-6.2 6.2-6.2"/><path class="st8" d="M489 520.7s-7.3 15.1-1.1 15.1 1.1-15.1 1.1-15.1z"/></svg>