<svg version="1.1" id="Calque_1" xmlns="http://www.w3.org/2000/svg" x="0" y="0" viewBox="0 0 900 900" style="enable-background:new 0 0 900 900" xml:space="preserve"><style>.st0{fill:#00776e}.st1{fill:#fff}.st2,.st3,.st4,.st5,.st6,.st7{fill:none;stroke:#000;stroke-width:3.809;stroke-linecap:round;stroke-linejoin:round}.st3,.st4,.st5,.st6,.st7{fill:#ffce00}.st4,.st5,.st6,.st7{fill:#fb0f0c}.st5,.st6,.st7{fill:#fff}.st6,.st7{fill:#3c5e00}.st7{fill:#00776e}.st9{fill:#fb0f0c}.st10{fill:#3c5e00}</style><path class="st0" d="m197.2 813.7-22.4-6.7 7.1-11.4-8.6-3.3-7.1 10.5-23.3-9 6.2-9.5-8.1-4.8-6.7 9-30.5-10 6.7-10-11-5.7s52.6-70 76.9-113.3 40.2-83.8 40.2-83.8l42.9-56.7 44.3 19-21.9 86.2-20.5 60.5-56.2 137.1-8 1.9z"/><path class="st1" d="m197.2 813.7-22.4-6.7 7.1-11.4-8.6-3.3-7.1 10.5-23.3-9 6.2-9.5-8.1-4.8-6.7 9-30.5-10 6.7-10-11-5.7s6.8-9.1 16.7-22.8c64.2 26.6 100 45 100 45l-11 26.8-8 1.9z"/><path class="st2" d="m197.2 813.7-22.4-6.7 7.1-11.4-8.6-3.3-7.1 10.5-23.3-9 6.2-9.5-8.1-4.8-6.7 9-30.5-10 6.7-10-11-5.7s52.6-70 76.9-113.3 40.2-83.8 40.2-83.8l42.9-56.7 44.3 19-21.9 86.2-20.5 60.5-56.2 137.1-8 1.9z"/><circle cx="242.9" cy="561.4" r="8.1"/><circle cx="265.7" cy="566.6" r="8.1"/><circle cx="234.3" cy="582.3" r="8.1"/><circle cx="259.1" cy="589.9" r="8.1"/><circle cx="278.1" cy="592.8" r="8.1"/><circle cx="223.8" cy="602.3" r="8.1"/><circle cx="251.9" cy="612.8" r="8.1"/><circle cx="272.4" cy="616.1" r="8.1"/><circle cx="194.3" cy="634.7" r="5"/><circle cx="189.1" cy="646.6" r="5"/><circle cx="202.9" cy="651.8" r="5"/><circle cx="215.7" cy="655.6" r="5"/><circle cx="232.4" cy="662.3" r="5"/><circle cx="249.1" cy="667.1" r="5"/><circle cx="183.4" cy="658" r="5"/><circle cx="198.6" cy="662.3" r="5"/><circle cx="210.5" cy="667.5" r="5"/><circle cx="225.3" cy="672.3" r="5"/><circle cx="241.5" cy="677.5" r="5"/><circle cx="177.7" cy="669.9" r="5"/><circle cx="191.5" cy="675.6" r="5"/><circle cx="205.3" cy="681.8" r="5"/><circle cx="219.6" cy="687.1" r="5"/><circle cx="156.7" cy="706.6" r="5"/><circle cx="172.9" cy="712.8" r="5"/><circle cx="186.7" cy="718.5" r="5"/><circle cx="201" cy="724.2" r="5"/><circle cx="214.8" cy="729.9" r="5"/><circle cx="148.1" cy="718" r="5"/><circle cx="166.2" cy="723.2" r="5"/><circle cx="181" cy="730.4" r="5"/><circle cx="197.7" cy="736.1" r="5"/><circle cx="213.8" cy="743.7" r="5"/><circle cx="139.6" cy="728.5" r="5"/><circle cx="154.3" cy="734.2" r="5"/><circle cx="167.7" cy="739.4" r="5"/><circle cx="182.9" cy="745.1" r="5"/><circle cx="196.7" cy="750.4" r="5"/><circle cx="210.5" cy="756.1" r="5"/><circle cx="186.7" cy="759.9" r="5"/><circle cx="171.5" cy="754.7" r="5"/><circle cx="138.1" cy="741.8" r="5"/><circle cx="153.4" cy="749" r="5"/><circle cx="126.2" cy="750.4" r="5"/><circle cx="142.4" cy="756.6" r="5"/><circle cx="158.6" cy="762.8" r="5"/><circle cx="175.3" cy="769.4" r="5"/><circle cx="195.3" cy="777.5" r="5"/><circle cx="202.9" cy="766.1" r="5"/><circle cx="207.7" cy="638.5" r="5"/><circle cx="221" cy="643.3" r="5"/><circle cx="234.8" cy="648.5" r="5"/><circle cx="248.6" cy="652.8" r="5"/><circle cx="261.9" cy="657.1" r="5"/><path class="st1" d="M652.8 273.3s1.9 21.4 11.4 21.9 91.4-29.5 91.4-29.5l-13.3-34.8-67.1 32.4-20 4.3-2.4 5.7z"/><path class="st0" d="M652.8 273.3s1.9 21.4 11.4 21.9c6.2.3 43-12.3 68-21.1l-11.6-32.7-45.5 21.9-20 4.3-2.3 5.7z"/><path class="st2" d="m723.3 246.6 21.4-9.5M726.2 254.3l21.4-9.6M727.8 261.2l23.1-9.8M730.4 267.8l21.5-7.8"/><circle cx="670.9" cy="279.5" r="5.7"/><circle cx="684.7" cy="268.1" r="5.7"/><circle cx="702.8" cy="260.9" r="5.7"/><circle cx="688.5" cy="280" r="5.7"/><circle cx="705.2" cy="273.3" r="5.7"/><circle cx="720.4" cy="269" r="5.7"/><circle cx="715.7" cy="256.2" r="5.7"/><path class="st2" d="M652.8 273.3s1.9 21.4 11.4 21.9 91.4-29.5 91.4-29.5l-13.3-34.8-67.1 32.4-20 4.3-2.4 5.7z"/><path class="st3" d="M230 737s-45.7 97.6-45.7 100.9 101.7 11 105.5 9c3.8-1.9 11.7-49.8 10.7-52.6-1-2.9-30-1.7-32.4-.2-2.4 1.4-5.2 17.6-5.2 17.6s-18.1 1.4-19-1c-1-2.4 7.1-27.1 9-28.6s11.9-.7 13.8-1.2 3.3-13.1 5.2-13.6c1.9-.5 20.5-1.4 22.4-2.4 1.9-1 4.3-13.3 5.7-14.3 1.4-1 11-.5 12.9-1.9 1.9-1.4 1.4-6.2 1.4-6.2l20-1.4s-1.4 5.7-.5 8.1c1 2.4 18.6.5 18.6.5s-1 10 1 11.4c1.9 1.4 19.5 1.4 19.5 1.4s-1.9 12.9.5 14.8c2.4 1.9 29 1.4 31.4 2.9 2.4 1.4 6.7 23.3 5.7 24.8-1 1.4-20.2 6.9-22.1 6.4-1.9-.5-.7-13.1-2.1-15-1.4-1.9-32.4-3.3-34.8-.5-2.4 2.9-3.3 52.4-.5 53.8 2.9 1.4 98.1-11.4 102.4-21.9 1.9-7.1-25.2-79.5-25.2-79.5l-43.8-45.7L230 737z"/><path class="st4" d="M238.6 741.3s-38.8 85.5-37.4 87.4c1.4 1.9 80.2 7.4 82.1 5 1.9-2.4 6.4-26.2 6.9-28.1.5-1.9-13.1-2.9-15-1.9-1.9 1-4.3 18.1-6.7 18.6-2.4.5-40.5-1.9-40.9-3.8-.5-1.9 15.2-45.2 17.1-46.2 1.9-1 13.8 0 15.7-1 1.9-1 2.4-11.9 4.8-13.8 2.4-1.9 16.7-.5 18.1-2.4 1.4-1.9 1-9 2.4-10.5 1.4-1.4 12.4-.5 13.3-1.9 1-1.4 2.4-9.5.5-13.3 1-5.2 40.5-7.6 40.5-7.6s-1 14.8 1.4 15.7c2.4 1 14.3-.5 16.2 1 1.9 1.4 1 10.5 3.8 11.4s17.6 0 19.5 1c1.9 1 .7 15.2 3.6 16.7s23.1 1.4 26.9 4.3c3.8 2.9 10.5 37.1 9.5 40-1 2.9-39.5 11.9-41.9 10.5-2.4-1.4-1.9-15.2-3.3-16.7-1.4-1.4-14.3-1-15.7.5-1.4 1.4-1 29 1.4 30.9 2.4 1.9 76.2-11.9 77.6-18.1 1.4-6.2-23.3-72.8-23.3-72.8l-18.6-30-15.7-9.5-114.3 24.8-28.5 9.8z"/><path class="st3" d="M305.7 661.8s-69.5 12.4-80.9 22.4c-16.7 11.9-4.3 59.5 11.9 59.5s151.9-32.4 151.9-32.4l14.3-15.2-4.3-29.5-63.3-11-29.6 6.2z"/><path class="st4" d="M316.2 670.4s-71.9 16.7-79 20.9c-10 5.7-6.7 34.3 7.1 36.7 11.4 1.4 150.9-31.9 150.9-31.9l6.7-14.3-31.4-23.8-54.3 12.4z"/><circle class="st3" cx="264.1" cy="704.4" r="20"/><circle class="st3" cx="309.5" cy="694.2" r="20"/><circle class="st3" cx="356.2" cy="683.7" r="20"/><path class="st3" d="M601.9 700.4s11 5.7 12.4 12.4c1.4 6.7 0 18.1-11.4 13.3-3.3 4.8-9 1.4-9 1.4l-56.7 8.1-1.9-27.1 7.1-25.2 29 3.8 30.5 13.3z"/><path class="st5" d="M614.3 712.8c1.2 5.7.3 14.9-7.1 14.4-1.2-.1-1.9-7.3.5-11.6 2.3-4.3 6.6-2.8 6.6-2.8z"/><path class="st2" d="M602.8 726.1c1-10-6.7-10.5-6.7-10.5"/><path class="st5" d="M544.3 688.5s-8.6 17.1 6.2 40.5c-8.1 4.3-26.2 10-39 6.2-14.8-11.4-14.3-39.5-14.3-39.5l26.7-12.4 14.8-4.3 5.6 9.5z"/><path class="st5" d="M504.5 733.5c53.1-7.4 82.1-14 85.9-13.6 3.8.5 5 10.5 3.1 12.4S502.8 747 502.8 747s-51.4-6.1 1.7-13.5z"/><path class="st4" d="M555.2 677.1c11.4 1.4 53.8-2.4 58.6-2.4 4.8 0 4.8 10 1 13.3 3.3 1.9 2.9 11 .5 12.4-2.4 1.4-57.1 0-66.7-8.1-3.9-3.3-4.8-16.7 6.6-15.2z"/><path class="st2" d="M554.3 684.2c8.6 3.3 30.5 4.8 60.5 3.8"/><path class="st4" d="M541.9 679.4s-2.4 3.8-1 6.2c1.4 2.4 4.3 6.2 7.6 6.7s11.9-11 9.5-15.2c-2.4-4.3-7.6-4.8-7.6-4.8l-8.5 7.1z"/><path class="st4" d="M532.4 680.4s5.2 6.2 8.6 5.2c3.3-1 12.4-6.7 11.9-11.4-.5-4.8-11.9-9-11.9-9l-14.8 1 6.2 14.2z"/><path class="st4" d="M486.7 682.8s.2 7.1 6 11.4c5.7 4.3 33.6 4.3 44.5-8.1 3.3-5.7-5.2-18.1-5.2-18.1l-45.3 14.8zM458.1 694.7c18.1 8.1 58.1 16.7 58.1 16.7L501 754.7s-56.2-21.9-56.2-23.3c0-1.4-3.8-30.5-3.8-30.5s-1-14.3 17.1-6.2z"/><path class="st2" d="M458.1 699.4c7.1 11.4 51.9 28.1 51.9 28.1"/><path class="st3" d="M447.6 707.1c6.2 11.4 28.6 25.7 41.4 35.7 12.9 10 20.9 19 14.3 31.4-2.4 3.8-6.7.5-6.7.5s-2.9 3.8-7.1-1.4c-6.2.5-8.1-1.9-8.1-1.9l-50-20.9-6.7-23.3 1.4-19 5.7-4.8c.1-.2 9.6-7.8 15.8 3.7z"/><path class="st2" d="M490 762.3s3.8 4.8-.5 11M497.6 763.7s3.3 4.8-1 11"/><path class="st5" d="M390.5 699s-9 11.4-7.6 20.9c3.8 6.7 17.1 14.8 17.1 14.8l39 12.4s-10.5-14.3-9-23.8 12.4-14.3 12.4-14.3l-34.3-15.2-17.6 5.2z"/><path class="st4" d="M459 688.5s3.3 9.5 0 14.8-16.7 5.7-16.7 5.7l-8.6-11.4 1.9-9.5 23.4.4z"/><path class="st4" d="M392.4 685.2s-3.3 11.4-1.9 13.8 48.6 12.4 51.9 10 5.7-12.4-2.9-17.6-47.1-6.2-47.1-6.2z"/><path class="st5" d="M382.9 719.9c-1.9-1-4.3 7.1-2.4 10 5.2 7.6 85.2 40.9 100 44.3 2.4-.5 5.7-9.5 3.3-11-38.1-14.2-99-42.3-100.9-43.3z"/><path class="st6" d="M369.1 679s37.1 17.1 86.2 12.4c49-4.8 85.7-26.2 85.7-26.2l-41-102.4-23.3-14.3-58.6 13.3-28.6 39.5-20.4 77.7z"/><path class="st5" d="m521.2 615.9-5.3-13.3-49.3 5.9-4.8-6.1-44.7 13.2s-3.8 13.8 0 16.2c66.2-7.1 104.1-15.9 104.1-15.9zM373.1 663.5l-4.1 15.4s37.1 17.1 86.2 12.4c49-4.8 85.7-26.2 85.7-26.2l-6.5-16.3s-22.5 17.2-80.2 23.4-81.1-8.7-81.1-8.7z"/><path class="st2" d="m509.5 617.5 6.7-13.3M500.9 618.5l9.1-14.8M492.9 619l7.1-12.9M471.9 623.7l8.1-14.3M452.9 625.6l8.1-15.2M428.1 628.5l5.2-10M394.3 686.1l5.2-31.4M440.5 689.4l-1.5-40.9M481.4 686.1l-7.6-32.4M511.9 678l-11.4-42.8M416.2 689.9l.5-10.9M423.8 690.9v-11.5M459 691.3l-1.4-13.8M466.2 690.4l-1.4-13.3M494.8 683.7l-2.9-11.9M501.9 681.3l-3.8-11.9M523.3 674.2l-2.8-10.5M530 670.9l-3.8-10.5"/><path class="st1" d="m277.2 518.5-112.4 95.2s-39-67.6-42.9-151.4 48.6-149.5 48.6-149.5l80 55.2 26.7 150.5z"/><path class="st0" d="m277.2 518.5-95.9 81.3s-35.5-55.9-35.5-139.8c0-80 40.6-136.2 40.6-136.2l64.1 44.3 26.7 150.4z"/><circle cx="184.8" cy="400.9" r="7.4"/><circle cx="165.3" cy="398" r="7.4"/><circle cx="162.4" cy="422.3" r="7.4"/><circle cx="173.4" cy="374.7" r="7.4"/><circle cx="182.4" cy="352.8" r="7.4"/><circle cx="189.6" cy="380" r="7.4"/><circle cx="201.9" cy="359.5" r="7.4"/><circle cx="182.9" cy="422.3" r="7.4"/><circle cx="165.8" cy="519" r="7.4"/><circle cx="171.9" cy="538.5" r="7.4"/><circle cx="178.1" cy="555.2" r="7.4"/><circle cx="185.3" cy="575.6" r="7.4"/><circle cx="160.5" cy="500.9" r="7.4"/><circle cx="186.7" cy="514.2" r="7.4"/><circle cx="198.1" cy="547.6" r="7.4"/><circle cx="191.9" cy="530.4" r="7.4"/><circle cx="206.2" cy="564.7" r="7.4"/><circle cx="181" cy="497.6" r="7.4"/><path class="st2" d="m157.2 598 112.3-81.4M149.6 583.3 263.4 509M143.9 565.6l83.3-44.7M139.1 551.8l84.7-39M133.9 538l87.6-36.6M131 522.3l72.8-28.1M126.7 506.6l58.1-19M124.8 426.6l85.7-1.9M127.7 407.6l80.4 11.4M131 392.8l70.9 15.7M136.7 376.6l62.9 21M143.9 360.9l65.2 30M150.5 346.6l67.6 36.2M156.7 334.7l71.9 38.1M164.3 322.3l74.8 46.7M277.2 518.5l-112.4 95.2s-39-67.6-42.9-151.4 48.6-149.5 48.6-149.5l80 55.2 26.7 150.5z"/><circle cx="265.7" cy="566.6" r="8.1"/><path class="st0" d="M205.9 424.2s-97.9 21.4-100.7 22.9c-2.9 1.4-2.1 37.9-2.1 37.9s55.7 1.4 117.1 18.6c14.3-22.3-14.3-79.4-14.3-79.4z"/><path class="st1" d="M123.4 442.6c-10.3 2.4-17.5 4.1-18.2 4.5-2.9 1.4-2.1 37.9-2.1 37.9s7.2.2 19.4 1.2l.9-43.6z"/><path class="st2" d="M196.7 438s-77.1 12.9-79.5 15.2c-2.4 2.4-2.9 22.4-1 23.3s72.8 4.3 97.1 14.8"/><path class="st7" d="M158.1 456.6s-11.4-1.4-14.3-.5-3.8 11.9.5 12.9 11.4-1 11.4-1H171s11.4 1.9 13.8 0 1.4-11-.5-12.9c-1.9-1.9-13.3.5-13.3.5l-12.9 1z"/><path class="st2" d="M157.2 460.9s-10.5-1-10.5 1.9 10.5 2.4 10.5 2.4l13.8-.5s11 0 10.5-2.9-11.9-1.9-11.9-1.9l-12.4 1z"/><path class="st7" d="M171 468c0 1.6-1.3 2.9-2.9 2.9h-9.5c-1.6 0-2.9-1.3-2.9-2.9v-12.4c0-1.6 1.3-2.9 2.9-2.9h9.5c1.6 0 2.9 1.3 2.9 2.9V468z"/><path class="st2" d="M166 465.1c0 .8-.4 1.5-1 1.5h-3.3c-.6 0-1-.7-1-1.5v-6.5c0-.8.4-1.5 1-1.5h3.3c.6 0 1 .7 1 1.5v6.5z"/><path class="st2" d="M205.9 424.2s-97.9 21.4-100.7 22.9c-2.9 1.4-2.1 37.9-2.1 37.9s55.7 1.4 117.1 18.6c14.3-22.3-14.3-79.4-14.3-79.4z"/><path class="st1" d="M205.3 428.5s1.9 62.4 18.6 96.2c11.9-7.1 24.3-14.3 24.3-14.3l7.1-27.6-16.7-28.1-23.8-28.1-9.5 1.9z"/><path class="st0" d="M238.5 516c5.6-3.3 9.6-5.6 9.6-5.6l7.1-27.6-16.7-28.1-13.5-16c.1.1-1.2 34.6 13.5 77.3z"/><path class="st2" d="m218.1 506.1 24.8-9.5M213.4 491.4l34.2-9.1M210.5 476.6l29.5-7.1M208.4 462.8l24.5-4.3M205.3 428.5s1.9 62.4 18.6 96.2c11.9-7.1 24.3-14.3 24.3-14.3l7.1-27.6-16.7-28.1-23.8-28.1-9.5 1.9z"/><path class="st1" d="M194.5 238.5s-22.1 25.7-13.6 110.7l96.4-.7-89.2 38.5s8.6 48.6 60 99.3c32.1-5 91.4-22.9 91.4-22.9l19.3-65.7-5-78.6-29.3-53.6s-97.9-11.4-100.7-12.1c-2.9-.6-29.3-14.9-29.3-14.9z"/><path class="st0" d="M210.4 246.9C189.6 299.5 201 349 201 349l76.4-.6-69.6 30.1s15.6 57.1 71.5 101.3c29.3-7.1 60.2-16.4 60.2-16.4l19.3-65.7-5-78.6-29.3-53.6s-97.9-11.4-100.7-12.1c-1.3-.2-7.2-3.2-13.4-6.5z"/><path class="st2" d="m181.9 273.8 11.9 2.4M180 282.8l11.9 1.5M179.1 303.3l10.9 1M178.4 311.9l11.2.9M179.6 329l9.5.5M180 337.6l9.6.5M191.9 397.6l7.7-3.8M195.7 405.2l7.7-3.8M205.7 426.6l10-5.2M210 435.2l10-6.2M221.9 455.2l8.6-6.2M227.2 461.4l9-6.7M240.5 475.2l7.6-7.6"/><circle cx="211.5" cy="289" r="8.1"/><circle cx="210" cy="311.4" r="8.1"/><circle cx="210" cy="334.2" r="8.1"/><circle cx="225.4" cy="390.9" r="8.1"/><circle cx="234.8" cy="411.3" r="8.1"/><circle cx="246.2" cy="429.9" r="8.1"/><circle cx="259.5" cy="445.7" r="8.1"/><circle cx="251.9" cy="397.1" r="8.1"/><circle cx="242.9" cy="380.4" r="8.1"/><circle cx="263.8" cy="417.6" r="8.1"/><circle cx="282.9" cy="404.2" r="8.1"/><circle cx="274.8" cy="386.1" r="8.1"/><circle cx="266.2" cy="369" r="8.1"/><circle cx="293.8" cy="423.8" r="8.1"/><circle cx="277.2" cy="432.8" r="8.1"/><circle cx="233.8" cy="334.2" r="8.1"/><circle cx="234.8" cy="312.3" r="8.1"/><circle cx="237.2" cy="290.9" r="8.1"/><circle cx="259.1" cy="335.2" r="8.1"/><circle cx="260" cy="313.3" r="8.1"/><circle cx="262.4" cy="291.9" r="8.1"/><path class="st2" d="M194.5 238.5s-22.1 25.7-13.6 110.7l96.4-.7-89.2 38.5s8.6 48.6 60 99.3c32.1-5 91.4-22.9 91.4-22.9l19.3-65.7-5-78.6-29.3-53.6s-97.9-11.4-100.7-12.1c-2.9-.6-29.3-14.9-29.3-14.9zM426.6 359.9c1.5-1 3.2-1.9 5-2.7 11.7-5.6 27.8-9.4 27.8-9.4l-17.1 15"/><path d="M510.2 70s36.4 64.3 41.2 100.9c12.4 1.4 26.7-28.6 26.7-28.6L569.5 50c-19 4.3-59.3 20-59.3 20z" style="fill:#894e00;stroke:#000;stroke-width:3.809;stroke-linecap:round;stroke-linejoin:round"/><path class="st7" d="M570.9 247.1c-1.4 6.7 14.3 67.6 17.1 69.5 2.9 1.9 22.4-2.4 23.8-9.5 1.4-7.1-19-69-19-69l-17.6 1.4s-2.8 1-4.3 7.6z"/><path class="st2" d="m573.3 262.8 12.4-22.8M577.6 283.3l18.6-32.4M582.8 301.9l19.1-31.9M591.4 316.6l16.7-24.7"/><path class="st1" d="m517.6 135.2-1.4 27.6 40.9-.5s38.6-18.1 18.1-18.6-57.6-8.5-57.6-8.5z"/><path class="st0" d="m537.7 139.1-.5 23.5 20-.2s38.6-18.1 18.1-18.6c-10.6-.2-25.6-2.5-37.6-4.7z"/><path class="st2" d="m517.6 135.2-1.4 27.6 40.9-.5s38.6-18.1 18.1-18.6-57.6-8.5-57.6-8.5z"/><path class="st0" d="M546.7 176.2c-.5-4.8 42.4-50.9 42.4-50.9l18.1 18.1s-8.1 6.2-11.4 11.4-30.5 41.9-30.5 41.9l-9 4.3c-.1-.1-9.2-20.1-9.6-24.8z"/><path class="st1" d="M572.7 143.2c8.7-9.8 16.3-18 16.3-18l18.1 18.1s-8.1 6.2-11.4 11.4c-.6.9-2 2.9-3.8 5.5l-19.2-17z"/><path class="st2" d="M546.7 176.2c-.5-4.8 42.4-50.9 42.4-50.9l18.1 18.1s-8.1 6.2-11.4 11.4-30.5 41.9-30.5 41.9l-9 4.3c-.1-.1-9.2-20.1-9.6-24.8zM586.6 140l8.1-8.6M592.4 144.7l9-7.1"/><path class="st7" d="M589 208.1s23.3-30 23.3-40-11.4-19-18.6-12.9c-3.8 1.9-32.4 34.3-33.3 40.9-1 6.7 4.3 16.2 4.3 16.2l24.3-4.2z"/><path class="st2" d="M597.1 167.1c-6.2 6.7-27.6 42.9-27.6 42.9M584.7 175.7l2.4 31.4"/><path class="st3" d="m443.1 289.9 35.7-20 38.6 1.4s12.1-31.4 18.6-36.4c6.4-5 13.6-21.4 14.3-31.4.7-10-5-19.3-5-24.3s2.1-5 7.1-1.4 13.6 33.6 13.6 33.6 8.6 20.7 7.9 32.9c-.7 12.1-5.4 22.7-20.4 23.4-15 .7-36.7 41.6-36.7 41.6l-50 32.1-23.7-51.5z"/><path class="st3" d="M516.6 309.2c-2.9-2.9-30.7-49.3-27.1-52.1 0 0-12.9 2.9-15.7 8.6-2.9 5.7-.7 13.6 5 14.3 5.7.7 17.9-11.4 17.9-11.4l16.4 27.9s-17.9 7.1-18.6 12.9c-.7 5.7 3.6 9.3 7.9 10 4.2.5 14.2-10.2 14.2-10.2z"/><path class="st4" d="M489.5 257c-3.6 2.9 24.3 49.3 27.1 52.1 2.9 2.9 40-27.1 40.7-32.1.7-5-18.6-40.7-21.4-42.1s-42.8 19.3-46.4 22.1z"/><path class="st7" d="M553.8 266.6c-5.5-12.3-15.9-30.7-17.9-31.7-2-1-21.6 8.6-34.8 15.5 4.8 8.1 20.5 35.9 20.5 35.9s23.6-15 32.2-19.7z"/><path class="st3" d="M590.9 205.7c-4.3-1.9-23.8 3.3-26.2 6.7-2.4 3.3 0 7.6 2.4 9-1.4 3.8-1 6.2 2.4 7.1-2.4 3.3-1.9 6.7 2.4 9-1.9 3.3-.1 5.6 1.9 6.6 1.9 1 21.5-4.7 23.4-6.1 1.9-1.4-1.4-8.1 0-9.5 1.4-1.4 6.2-5.7 5.2-10s-6.7-3.8-7.6-6.2.4-4.7-3.9-6.6z"/><path class="st2" d="m567.1 221.4 19.1-6.2M569.5 228.5l18.1-6.1M571.9 237.6l16.2-6.7"/><path class="st5" d="M547.8 188.8c-1.3-3.9-2.6-7.3-2.6-9.6 0-5 2.1-5 7.1-1.4 1.5 4.1-1.8 10.8-4.5 11z"/><path class="st2" d="m517.6 144.3 15.2 2.4M516.7 153.3l17.6 1"/><path class="st5" d="m376.7 524.7.9 10.5h11l.9-10z"/><path class="st3" d="m501.4 514.7 52.9 8.6 13.8-8.6-1.4-35.7-31-9.5-23.8 4.3z"/><path class="st7" d="m673.3 451.8-6.7 85.8-20 29.9-9-8.5 3.3-50 5.7-51.4 3.8-12.4zM637.6 568s-7.1 56.2-6.7 64.8 26.7 14.3 33.8 1.4c1.9-7.6 4.8-60 4.8-60l-31.9-6.2z"/><path class="st2" d="m648.5 641.8 17.7-26.2M640.5 639.4l26.6-37.1M633.3 636.1l33.8-44.7M631.9 627.5l29.5-39.5M632.4 612.8l21.9-25.7M633.3 601.8l13.3-15.7M652.4 540.4l14.7-26.2M639 548l22.4-34.7M640.9 531.8l12.9-19M640 524.2l8.5-10.9M659 477.6l13.4-15.3M649.5 479l20.9-26.2M650 469.9l14.3-19"/><path class="st4" d="M530.9 419c-1.9 1-2.9 9 1.4 11 4.3 1.9 13.8.5 20.9-5.2s14.8-11.4 21.4-7.1c6.7 4.3 3.1 15.2-.2 14.8s2.1-10.5-3.6-10.5-14.3 9.5-5.2 20.5c6.2 6.7 17.6 2.9 21.9-2.4 4.3-5.2 7.1-21.9-6.2-31.9-7.6-4.3-9-4.3-18.1-2.9s-13.3 8.6-19 11.4-11.4 1.3-13.3 2.3zM548.6 385.2c-1.4 1.6 3.4 8.6 8.1 8.6 4.7 0 10.5-7.1 14.8-15.2 4.2-8.1 9.3-15 17.1-13.8 7.8 1.2 5.6 11 2.4 11.9-3.2.9 0-8.4-5.2-6.2-3.3 1.4-6.2 10.5 2.9 15.2 8.4 3.6 13-3.5 14.8-10 1.8-6.5 1.3-18.6-14.9-22.4-8.7-.8-10-.2-17.7 4.7-7.7 5-8.7 13.2-12.8 18.2-4.3 4.9-8.2 7.3-9.5 9z"/><path class="st2" d="m370.5 413.8-.5-17.2"/><path class="st7" d="m504.8 541.4 12.8 12.8 7.6-14.7-14-3.3zM513.6 520.8l15.3 9.7 4.3-16.1h-14.4zM520.6 497l15.1 4.8 2.9-14.7-17.2 1.9zM524.5 476.4l13.6 1.6.9-14.7-14.9 5z"/><circle class="st7" cx="503.2" cy="536.2" r="8"/><circle class="st7" cx="511" cy="516.1" r="8"/><circle class="st7" cx="517.1" cy="492.9" r="8"/><circle class="st7" cx="520.5" cy="472.9" r="8"/><path class="st3" d="M468.6 587.1c16.2-5.2 11.4-18.6 11.4-18.6l-16.7-7.1-7.6 6.7-1.4 9.5c0-.1 9 5.7 14.3 9.5z"/><path class="st7" d="m493.8 536.1 10.5 25.3-19.1 3.8-4.3-26.2zM459.5 567.1s16.7 4.3 20.5 1.4c3.8-2.9 4.3-11.9 1-15.7-3.3-3.8-18.6-5.7-18.6-5.7l-5.7 3.3 2.8 16.7z"/><path class="st3" d="M480.9 539s4.5 12.1.2 15.5-20.7-2.1-20.7-2.1l1-15.7 19.5 2.3z"/><path class="st4" d="M460 539.5s21.9 5.7 31.9-1 24.3-65.2 21.9-68.1c-2.4-2.9-9-3.8-9-3.8l-20-4.3-29.5 30.5 4.7 46.7z"/><path class="st5" d="m455.2 529.5 26.7-3.9-3.3-14.2-19.6.9z"/><path class="st7" d="M410 648s-12.9 35.2-60.9 34.8-68.1-50-71.2-86.7c-3.8-42.9 11.2-62.4 11.2-62.4l24.3-21.4 72.8-1 33.8 65.2-10 71.5z"/><path class="st3" d="M410 648s-12.9 35.2-60.9 34.8-68.1-50-71.2-86.7c-.4-4-.5-7.8-.6-11.4 46.1-33.3 122.6-46.8 122.6-46.8l20.1 38.8-10 71.3z"/><path class="st4" d="M410 648s-12.9 35.2-60.9 34.8c-46.6-.5-66.8-47-70.9-83.3-.1-1.1 37-25.3 75.9-37.7 31.7-10.5 65.9 14.8 65.9 14.8L410 648z"/><path class="st6" d="M410 648s-12.9 35.2-60.9 34.8c-32.3-.3-51.9-22.8-62.3-48.6 43.7-33.3 108-53.8 108-53.8l25.2-3.8-10 71.4z"/><path class="st2" d="M357.6 567.5c-35.2 10.5-78.6 39-78.6 39"/><path class="st7" d="m290 646.6-3.3 18.6s18.1-4.3 19-6.2c1.4-4.8-7.1-15.2-7.1-15.2l-8.6 2.8zM309.1 634.2l4.3 21.4 13.3-9-10.5-17.2zM331.9 620.9l3.4 20.9 12.8-10-10.5-14.3zM355.7 607.1l2.9 21.4 12.4-8.6-8.1-15.7zM374.8 596.1l3.8 20.5 13.3-6.2-7.1-17.1z"/><circle class="st7" cx="292.9" cy="641.3" r="8.1"/><circle class="st7" cx="310.5" cy="627.5" r="8.1"/><circle class="st7" cx="331.9" cy="615.6" r="8.1"/><circle class="st7" cx="356.7" cy="601.8" r="8.1"/><circle class="st7" cx="378.6" cy="591.4" r="8.1"/><path class="st3" d="M369.1 540.4s-15.7 5.2-20 5.7-8.1-8.1-2.9-11.4c5.2-3.3 21.9-3.8 21.9-3.8l1 9.5zM372.9 549.9s-17.1 5.7-18.8 9.5c-1.7 3.8.2 9 6 8.6 5.7-.5 20.5-9 20.5-9l-7.7-9.1zM386.2 570.9s-16.7 10-17.6 13.3c-1 3.3 2.4 10 7.1 9 4.8-1 18.6-14.8 18.6-14.8l-8.1-7.5zM405.7 591.4s-16.2 13.3-17.6 16.7 3.8 9.5 7.6 9 16.2-14.3 16.2-14.3l1.4-11.4h-7.6z"/><path class="st7" d="M366.7 523.3c-3.8 35.2 42.4 72.4 42.4 72.4l51.4-20.9 5.7-73.8-70.9 7.1c-.1-.1-24.8-20.1-28.6 15.2z"/><path class="st5" d="m421 660.9-15.2-1s-1 9 1.9 12.4 11.9 2.9 13.3-.5c1.4-3.3 0-10.9 0-10.9zM506.7 625.2l-10.5 10s4.3 7.6 8.1 6.7c3.8-1 9.5-6.2 8.1-10-1.5-3.9-5.7-6.7-5.7-6.7zM485.2 647.1l-13.3 5.2s-.5 10.5 4.8 12.9c5.2 2.4 11-1 11.9-4.8.9-3.8-3.4-13.3-3.4-13.3zM452.9 657.1l-13.3 2.4s-2.9 17.6 10.5 14.3c11.8-2.9 2.8-16.7 2.8-16.7z"/><path class="st2" d="M411.4 658.5s-1.4 9 2.9 9 2.4-10 2.4-10M444.3 657.5s-1.4 11.9 4.3 9.5c3.8-1.9.5-11 .5-11M474.8 649s1.9 12.9 6.2 10-1.9-11.9-1.9-11.9M499 629s6.2 8.6 8.1 5.2c1.9-3.3-4.8-9-4.8-9"/><path class="st9" d="m406.2 624.7-.5 35.2 15.3 1v-40.5l12.3-1.9 6.2 40.9 13.4-2.3-7.7-42.4 12.4-3.3 14.3 40.9 13.3-5.2-18.1-40 5.3-2.4 23.8 30.5 10.5-10-27.2-27.2-30 1.9z"/><path class="st10" d="m406.2 624.7-.3 24.3H421v-28.6l12.3-1.9 4.6 30 12.8-3.3-5.5-30.5 12.4-3.3 10.6 30.2 13-3.5-14.1-31 5.3-2.4 17.7 22.7 8.2-10.6-18.8-18.8-30 1.9z"/><path class="st2" d="m406.2 624.7-.5 35.2 15.3 1v-40.5l12.3-1.9 6.2 40.9 13.4-2.3-7.7-42.4 12.4-3.3 14.3 40.9 13.3-5.2-18.1-40 5.3-2.4 23.8 30.5 10.5-10-27.2-27.2-30 1.9z"/><path class="st9" d="m410.5 571.4-4.3 53.3s57.8-2.9 73.3-26.7l-27.6-35.2-41.4 8.6z"/><path class="st10" d="m410.5 571.4-2.6 32.4s14 0 32.6-5.7 29.4-12.4 29.4-12.4L452 562.8l-41.5 8.6z"/><path class="st2" d="m410.5 571.4-4.3 53.3s57.8-2.9 73.3-26.7l-27.6-35.2-41.4 8.6z"/><path class="st5" d="M441.9 607.8c-24.7 7.8-34.9 6.8-34.9 6.8l-.8 10s57.8-2.9 73.3-26.7l-4.6-5.9c0 .1-8.3 8.1-33 15.8z"/><path class="st2" d="m414.3 624.2-.5-9M421.9 622.8l-1.4-9.1M430 621.4l-2.4-8.6M439 618.5l-2.3-7.6M448.6 616.6l-3.8-10M456.7 614.2l-2.4-8.6M466.7 608.5l-3.8-6.2M474.3 603.3l-3.8-6.2"/><circle class="st3" cx="429.3" cy="554.2" r="27.6"/><circle class="st5" cx="383.6" cy="542.1" r="9.8"/><circle class="st2" cx="383.6" cy="542.3" r="3.8"/><circle class="st5" cx="426.7" cy="539.9" r="11.4"/><circle class="st2" cx="426.7" cy="540.2" r="4.5"/><circle class="st5" cx="474.5" cy="509.4" r="8.8"/><circle class="st2" cx="474.5" cy="509.6" r="3.4"/><circle class="st5" cx="498.6" cy="468.3" r="8.8"/><circle class="st2" cx="498.6" cy="468.5" r="3.4"/><path class="st5" d="M362.4 524.2s45.2 10 82.4-6.7c37.1-16.7 47.6-57.6 47.6-57.6l-25.7-11.4-36.7-16.2-43.8 4.8-12.4.5-19.8 12.9 8.4 73.7z"/><path class="st2" d="M376.7 524.7v-13.3M387.2 526.6l-1-15.2M395.7 525.6l-1.4-12.8M401.9 526.1l-.9-13.3M411 525.2l-1.9-12.4M420 524.2l-2.4-11.9M428.6 521.4l-1.9-10.5M437.6 519l-2.4-9.1M446.2 515.2l-4.3-10M452.4 510.9l-3.8-7.6M460.5 505.7l-4.3-6.2M467.1 499.5l-4.2-6.2M474.3 491.8l-6.7-5.2M479 482.3l-6.1-4.7M484.3 475.2l-6.7-3.4M488.6 466.6l-7.7-2.8"/><path class="st4" d="M361.1 513.2s43.6 12.9 80.8-3.7 42.1-53.2 42.1-53.2l-17.3-7.7-36.7-16.3-43.8 4.8-12.4.5-19.8 12.9 7.1 62.7z"/><path class="st6" d="M358.8 492.8s40.2 13.8 72.1-.5c37.2-16.6 37.8-42.9 37.8-42.9l-2.1-.9-36.6-16.2-43.8 4.8-12.4.5-19.8 12.9 4.8 42.3z"/><path d="M408.8 440.6s5.7 6.4 9.3 7.1c3.6.7 12.1-8.6 17.9-8.6s27.9 10 32.1 9.3c7.1-2.9 3.6-15 7.1-17.1 3.6-2.1 6.4 2.2 9.3 2.2 2.9 0 2.1-6.5 1.4-10.1-1.4-6.4-21.4-.7-25-9.3-3.6-8.6-1.4-10.7-1.4-10.7l38.6-13.6 3.6-15.7s-2.9 0-10-4.3-9.3-12.1-11.4-13.6c-5.7-4.3-6.7-2.1-8.1-5.7-1.4-3.6-.5-5-.5-10s-5.7-16.4-5.7-16.4L411 342l-15.7 45.7 13.5 52.9z" style="fill:#ffce00"/><path class="st9" d="M428.1 435.7s5.7-3.3 12.9-2.1 31.4 9.3 31.4 9.3c1.2-4.5.5-10.1 2.8-11.5 3.6-2.1 6.4 2.2 9.3 2.2 2.9 0 2.1-6.5 1.4-10.1-1.4-6.4-21.4-.7-25-9.3-3.6-8.6-1.4-10.7-1.4-10.7l38.6-13.6 3.6-15.7s-2.9 0-10-4.3-9.3-12.1-11.4-13.6c-5.7-4.3-6.7-2.1-8.1-5.7-1.4-3.6-.5-5-.5-10 0-1.9-.9-4.9-1.9-7.7l-44.9 18.9s10 33.3 9 35.2c-1 1.9-13.8 8.1-17.6 9.5 15.1 16.3 11.8 39.2 11.8 39.2z"/><path class="st5" d="M431.7 357.2c11.7-5.6 27.8-9.4 27.8-9.4s-7.9 13.6-17.1 15c-9.3 1.4-10.7-5.6-10.7-5.6z"/><path class="st2" d="M440.2 353.5s-.7 5 4.3 3.6 2.9-5 2.9-5"/><path d="M430.2 395.6c0 4.3 3.6 27.9 7.1 31.4s15 .7 14.3-3.6-3.6-28.6-6.4-30.7c-2.9-2.1-15-1.4-15 2.9z"/><path class="st2" d="M408.8 440.6s5.7 6.4 9.3 7.1c3.6.7 12.1-8.6 17.9-8.6s27.9 10 32.1 9.3c7.1-2.9 3.6-15 7.1-17.1 3.6-2.1 6.4 2.2 9.3 2.2 2.9 0 2.1-6.5 1.4-10.1-1.4-6.4-21.4-.7-25-9.3-3.6-8.6-1.4-10.7-1.4-10.7l38.6-13.6 3.6-15.7s-2.9 0-10-4.3-9.3-12.1-11.4-13.6c-5.7-4.3-6.7-2.1-8.1-5.7-1.4-3.6-.5-5-.5-10s-5.7-16.4-5.7-16.4L411 342l-15.7 45.7 13.5 52.9z"/><path class="st7" d="M491.6 369.9c-2.1-4.3-.7-12.9 15-14.3 5-.7 5.2 7.9 7.4 10.7 2.1 2.9 5.5.7 7.6 2.9 2.1 2.1.7 14.3-2.1 15-2.9.7-6.7-2.1-9.5-2.1-2.9 0-4.8 3.6-3.3 6.4 1.4 2.9 10 6.4 10 6.4s-3.6 17.1-32.1 18.6c.7-3.6 1.4-7.1-.7-8.6-2.1-1.4-5.5-2.4-6.9-.2s-3.1 9.5-3.8 7.4c-8.6.7-11.4-2.1-15-6.4-3.6-4.3-1.4-17.9-1.4-17.9s-9.3 5.7-11.4-2.1c-2.1-7.9 8.6-16.4 18.6-12.1 6.4 3.6 2.9 15.7 6.4 17.9s24.3-4.3 25.7-12.9c-.2-4.4-2.3-4.4-4.5-8.7z"/><path d="m410.2 404.2-2.9-11.4s15.7-1.4 17.9-6.4c2.1-5-8.6-37.1-5.7-39.3s47.1-18.6 47.1-18.6l-5.7-21.4-95 35-15.7 74.3-12.1 17.9-28.6 17.7-47.9 64.3 45.7 36.4 17.1-34.3 35-62.1 15.7-15.7 35.1-36.4z" style="fill:#595959;stroke:#000;stroke-width:3.809;stroke-linecap:round;stroke-linejoin:round"/><path class="st5" d="M377.2 409.5c4.3-31.4 1.4-58.1 1.4-58.1M385.2 404.7s1.4-33.8 0-50.5M391 347.1c2.9 18.6 1 55.2 1 55.2M394.8 332.3c3.8 21.9 3.8 68.1 3.8 68.1M407.3 392.8l-4.9-60.5"/><path class="st2" d="m413.3 390.9-5.7-53.8M419.5 389l-7.1-50M426.2 342.8l-4.3-18.6M452.9 333.3l-6.7-19.1M309.1 459.9l33.3-20.4M301.9 473.8l35.3-23.9M301.9 480.9l71.9-47.4M300.5 488l70-44.2M298.6 499.5l24.8-19.6M277.2 529.5l41.4-28.6M292.9 510.9l26.6-18.6M285.3 532.8l26.6-18.1M290 538l23.8-17.6M294.3 542.3l24.8-19.5M300.5 545.2l17.1-14.8"/><path class="st0" d="M305.9 524.9s25.7-70.7 31.4-79.3c5.7-8.6 21.4-7.1 24.3 3.6 2.9 10.7 4.3 86.4 4.3 86.4l-60-10.7z"/><path class="st1" d="M333.4 453.6c1.7-3.8 3-6.6 3.9-8 5.7-8.6 21.4-7.1 24.3 3.6.5 1.9 1 5.7 1.4 10.8-10.6 1.4-27.3-3.4-29.6-6.4z"/><path class="st2" d="m315.9 526.3 21.9-72.1M328.6 527.6l14.7-71.8M340.5 529.9l8.3-71.9M350.9 532.7l3.2-73.5M358.8 533.5v-73.4M305.9 524.9s25.7-70.7 31.4-79.3c5.7-8.6 21.4-7.1 24.3 3.6 2.9 10.7 4.3 86.4 4.3 86.4l-60-10.7z"/><path class="st0" d="M233.1 504.9c-.7-2.9 46-74.8 57.4-75.5 11.4-.7 24 6.9 23.3 15.5-.7 8.6-7.1 46.4-17.9 79.3-32.1-5-62.1-16.5-62.8-19.3z"/><path class="st1" d="M279.6 437.7c4.6-5 8.5-8.1 10.8-8.3 11.4-.7 24 6.9 23.3 15.5-.1 1.1-.3 2.6-.5 4.5-8.4 5.8-32.2-4.7-33.6-11.7z"/><path class="st2" d="M233.1 504.9c-.7-2.9 46-74.8 57.4-75.5 11.4-.7 24 6.9 23.3 15.5-.7 8.6-7.1 46.4-17.9 79.3-32.1-5-62.1-16.5-62.8-19.3zM243.1 509.9l40.7-69.8M290 442.3l-37.7 71.2M295.9 444.9 265.2 517M301.4 445.8l-24.1 74.8M307.2 446.6l-19.1 76.1"/><path class="st5" d="M400.2 329.9s1.4 13.6 5.7 17.1c4.3 3.6 13.6-.7 13.6-7.1s-3.6-16.4-3.6-16.4l-15.7 6.4zM453.8 311.3s.7 12.1 4.3 14.3c3.6 2.1 11.4 4.3 12.9-6.4s-10-12.1-10-12.1l-7.2 4.2z"/><path class="st7" d="M392.3 351.3c.7-6.4-4.3-15.7-4.3-15.7l-16.4 6.4s.7 14.3 6.4 17.1 13.6-1.3 14.3-7.8zM427.3 320.6s-1.4 11.4 3.6 15 13.6-2.1 13.6-6.4-4.3-15-4.3-15l-12.9 6.4z"/><path class="st7" d="M347.3 354.9c-1.4 10.7-8.6 31.4-7.1 43.6s16.4 21.4 29.3 4.3c3.8-7.1 4.7-28 4.1-43.6-.3-8.1-1-14.7-2-17.1-1.8-4.4-8.6-1.5-13.7 1.4-3.2 1.8-5.6 3.6-5.6 3.6s-3.5-2.9-5 7.8z"/><path class="st7" d="M320.9 359.9s-10 20.7-12.1 27.9c-2.9 12.1 11.4 16.4 22.9 6.4 11.4-10 15.7-39.3 15.7-39.3l-2.9-7.1-23.6 12.1z"/><path class="st5" d="M338.9 383.9c-2 4.1-4.4 7.8-7.2 10.3-11.4 10-25.7 5.7-22.9-6.4 0 0 5.7 7.1 11.4 5s9.3-11.4 12.1-12.1c2.9-.8 6.6 3.2 6.6 3.2zM344.5 347.8l-23.6 12.1s-2.5 5.2-5.3 11.2c0 0 6.7 8 12.4.9s4.3-15 4.3-15l12.2-9.2zM352.3 347s16.4-12.1 19.3-5c1 2.4 1.7 9 2 17.1 0 0-14.9 9.3-15.6-6.4-5.7-9.9-5.7-5.7-5.7-5.7zM373 386.3c-.5 5.5-1.3 10.3-2.4 13.7-.3 1.1-9.7-5.1-20.4-5.1-.7-2.1-.7-8.6.7-11.4 1.4-2.9-9.3-2.3-9.3-2.3.8-4.3 1.9-8.6 2.8-12.7 0 0 15 1.4 16.4 4.3 1.4 2.9-.7 7.1 0 10 .8 2.8 12.2 3.5 12.2 3.5z"/><circle class="st5" cx="306.9" cy="415.6" r="17.9"/><path class="st7" d="M312 398.5c7.3 2.2 12.7 9 12.7 17.1 0 9.9-8 17.9-17.9 17.9-3.7 0-7.1-1.1-9.9-3 0 0 2.8-12 4.9-13.4.7-.5 6.2 2.3 9.7 1.5 1.9-.5 2.5-4.4 2.9-5 1.2-1.9-6.9-4.9-6.9-6.7.1-3.7 2.9-8.9 4.5-8.4z"/><circle class="st5" cx="349.9" cy="428.6" r="16"/><path class="st7" d="M351.7 412.7c6.8.8 12.6 5.9 13.9 13 1.6 8.7-4.2 17-12.9 18.5-3.2.6-6.4.2-9.2-1.1 0 0 .5-11 2.2-12.6.5-.5 5.9 1 8.8-.3 1.6-.7 1.5-4.2 1.8-4.9.7-1.9-6.8-3.2-7.1-4.8-.7-2.9 1-7.9 2.5-7.8zM242.3 219.2c32.9-54.3 112.9-107.9 200-77.9-29.3 39.3-27.9 68.6-27.9 68.6l14.3 67.9-73.6 22.1-20.7-30-30-21.4c.1 0-45.6-20-62.1-29.3z"/><path class="st2" d="M253.8 203.5c37.1 19.3 67.9 44.3 67.9 44.3M265.2 189.2c25.7 13.6 65.7 49.3 65.7 49.3M281.6 174.2c24.3 17.9 57.1 60.7 57.1 60.7M300.9 160.6c20 18.6 46.4 67.9 46.4 67.9M327.3 147c10 13.6 30.7 78.6 30.7 78.6M355.2 137.8c2.9 30.7 15.7 81.4 15.7 81.4M381.6 133.5c-6.4 29.3 0 82.9 0 82.9M405.2 134.2c-3.6 5-14.3 80.7-14.3 80.7M423.8 137s-8.1 16.4-20.5 76.4"/><path class="st3" d="M314.5 252c42.9-42.1 100-43.6 100-43.6l16.4 72.1-82.9 25c.1.1-34.2-42.7-33.5-53.5z"/><path class="st4" d="M330.9 259.2c40-25.7 80.7-33.6 80.7-33.6l19.3 55-78.6 23.6s-17.1-36.4-21.4-45z"/><path class="st6" d="M193.8 232s-5 39.3 50 45c55 5.7 60.7 10 60.7 10l41.4 5.7 7.1-9.3s-.3-23.6-40.7-34.3c-48.5-12.8-87.1 3.7-118.5-17.1z"/><path class="st4" d="M193.8 232s-6.4 22.1 48.6 25c55.2 2.9 79.3-2.1 103.6 35.7-7.1 2.9 7.1-9.3 7.1-9.3s-.3-23.6-40.7-34.3c-48.6-12.8-87.2 3.7-118.6-17.1z"/><path class="st5" d="M342.3 288.5s12.1-9.3 15.7-8.6c3.6.7 6.4 15 6.4 15l-17.1 7.9-5-14.3z"/><path class="st7" d="M381.6 288.5s-7.1-7.1-6.4-12.1c.7-5 10.7-6.4 14.3-5.7 3.6.7 2.9 12.1 2.9 12.1l-10.8 5.7z"/><path class="st5" d="M411.6 279.2s-9.3-10-7.1-13.6 13.6-5.7 13.6-5.7l6.4 15.7-12.9 3.6z"/><path d="M421.6 274.2s-22.1-37.9-5.7-68.6c16.4-30.7 45-45 55-67.1 17.1 25-2.1 54.3-20.7 75.7s-6.4 52.9-6.4 52.9l-22.2 7.1z" style="fill:red;stroke:#000;stroke-width:3.809;stroke-linecap:round;stroke-linejoin:round"/><path class="st6" d="M430 271.5s-18.4-30.6-2-61.3 36.4-40.2 47.5-62.5c7.9 22.8-9 47.7-25.4 66.6-18.6 21.4-6.4 52.9-6.4 52.9l-13.7 4.3z"/><path class="st7" d="M433.1 253.5c-1.4 2.9 5 14.3 5 14.3s12.9-2.9 12.9-6.4c0-3.6-2.1-10-5-11.4s-11.5.6-12.9 3.5z"/><path class="st5" d="M447.3 271.3s5.7 2.9 4.3 9.3c0 3.6-4.3 7.1-4.3 7.1l7.9 1.4s4.3 2.1 2.1 9.3l-2.1 7.1-92.9 33.6-12.1-35.7 25.7-9.3 64.3-23.6 7.1.8z"/><path class="st7" d="M348.1 299.9s91.9-33.6 95.5-35c3.6-1.4 3.8 6.4 3.8 6.4s-92.7 32.9-91.4 34.3c.5.5-22.4 14.7-4.3 9.3 23.6-5 100.4-36.5 100-34.3 2.9 2.1 3.6 8.6 3.6 8.6s-94.1 33.4-93.6 35c.2.7-22.1 17.2 0 10.7 17.1-6.4 24.5-5.8 95.7-36.4 3.6 2.1 5 5 3.6 8.6S370.4 344 370.4 344L346 323.5l2.1-23.6z"/><path class="st5" d="M307.1 323.2s-12.6-12.6-11.2-25.5c1.4-12.9 29.5-24.3 41-18.6 11.4 5.7 15.5 25 15.5 25l-2.1 12.9-43.2 6.2z"/><path class="st7" d="M318.1 326.3s-14.8-17.1-12.6-27.9c2.1-10.7 21.2-15.1 27.6-12.1 10.7 5 15.7 25.7 15.7 25.7l-9.3 3.6s-7.1-18.6-9.3-21.4c-2.1-2.9-15-.7-15 5.7s10.7 23.6 10.7 23.6l-10 2.9"/><path class="st2" d="m323.1 300.6 10 21.4"/><path class="st5" d="M317.7 351.3c-5.2 2.3-.2 9.5 3.4 10.4 3.6.9 17.6-.6 28.1-4.4 10.4-3.8 19.5-9.8 21.1-13.3 1.6-3.5 2.1-8.6-3-7.6-3 .6-7 7.3-22.9 11.4-18.5 4.8-22.7 1.8-26.7 3.5z"/><path class="st7" d="M314.2 343.1c-5 2.5.2 9.5 3.8 10.2s17.1-1.4 27.1-5.7c10-4.3 19-9.1 22.2-11.3 5-3.6.8-13.5-4.1-12.3-2.9.7-7.7 9.5-23 14.4-17.9 5.7-22.2 2.8-26 4.7z"/><path class="st5" d="M310.6 331.4c-5.2 2.3-.2 9.5 3.4 10.4 3.6.9 17.6-.6 28.1-4.4 10.4-3.8 19.5-9.8 21.1-13.3 1.6-3.5-.4-10.5-5.4-9.5-3 .6-4.5 9.2-20.4 13.4-18.6 4.7-22.9 1.7-26.8 3.4z"/><path class="st7" d="M307.1 323.2c-5 2.5.2 9.5 3.8 10.2s17.1-1.4 27.1-5.7c10-4.3 18.6-10.7 20-14.3 1.4-3.6-.8-10.5-5.7-9.3-2.9.7-4 9.4-19.3 14.3-17.8 5.8-22.1 2.9-25.9 4.8z"/><path class="st5" d="M389.5 482.8s-8.6 8.6-5.2 15.2c3.3 6.7 19 9.5 22.4 1.9 3.3-7.6-2.4-16.7-2.4-16.7l-14.8-.4z"/><path class="st2" d="M392.9 483.3c-2.4 5.2-3.3 15.7 3.8 15.2s5.2-10.5 2.9-14.8c-2.4-4.2-4.4-5.7-6.7-.4z"/><path class="st3" d="M368.8 417.8c-6.4 11.4 3.1 28.7 10 31.2 10 3.6 33.6-2.6 41.4-11.9 7.9-9.3 5.7-33.6-12.1-36.4-17.9-2.9-32.9 5.6-39.3 17.1z"/><path class="st4" d="M377.3 421.3c3.6-7.1 20.7-12.1 27.9-8.6 7.1 3.6 9.3 9.2 6.4 15s-22.9 10.7-28.6 10c-5.7-.7-9.2-9.2-5.7-16.4z"/><path class="st6" d="M383.3 426.1c-1.9 2.4-7.1 60.9-7.1 60.9l39-2.4s-10-59-11.4-60.9-18.6.1-20.5 2.4z"/><path class="st5" d="M378.6 462.3c-1.3 13.1-2.4 24.8-2.4 24.8l39-2.4s-1.9-11.2-4.1-23.9l-32.5 1.5z"/><path class="st2" d="m376.7 479 35.7-1.9M385.7 485.7V479M394.3 484.2l.5-5.7M404.3 483.3l.5-5.7"/><path class="st1" d="M637.6 559s7.1-24.8 30-23.3c22.9 1.4 112.8 13.8 112.8 13.8L767.1 599l-90-32.9-17.1 6.2-19-2.4-3.4-10.9z"/><path class="st0" d="M637.6 559s7.1-24.8 30-23.3c16.2 1 66 7.5 93.8 11.2l-12.8 45.3-71.5-26.1-17.1 6.2-19-2.4-3.4-10.9z"/><path class="st2" d="M637.6 559s7.1-24.8 30-23.3c22.9 1.4 112.8 13.8 112.8 13.8L767.1 599l-90-32.9-17.1 6.2-19-2.4-3.4-10.9z"/><path class="st1" d="m638.5 575.2-10-20 12.9.4v8.1l4.8 1 .4-8.1 13.4.9-1.9 8.1 5.7 1 2.4-8.1 14.7 1.9-8.5 18.1-14.8 4.3z"/><path class="st0" d="m638.5 575.2-7.1-14.3 10 .9v1.9l4.8 1 .1-2.9 12.4 1-.6 2.8 5.7 1 .9-3 13.7 2.2-6 12.7-14.8 4.3z"/><path class="st2" d="m638.5 575.2-10-20 12.9.4v8.1l4.8 1 .4-8.1 13.4.9-1.9 8.1 5.7 1 2.4-8.1 14.7 1.9-8.5 18.1-14.8 4.3z"/><path class="st7" d="M680.4 591.8c3.3-1 2.9-11 0-12.9-2.9-1.9-24.8-1.4-24.8-1.4s-19.5-5.7-24.3-4.8c-4.8 1-6.7 11.4-1.4 13.3 5.2 1.9 19 1.9 19 1.9l14.3 1c.1.1 13.9 3.9 17.2 2.9z"/><path class="st7" d="M650 576.6c-2.9 1.4-3.3 9.5-1 11.4 2.4 1.9 12.4 2.4 14.3 1 1.9-1.4 2.4-8.1-1-11s-9.5-2.8-12.3-1.4z"/><path class="st2" d="m755.2 569 19 5.2M763.8 561.8l10.4 2.9M765.7 555.6l10.4 2.9M757.6 587.1l10.5 2.8M759.5 580.9l10.5 2.8"/><circle cx="664.3" cy="544.2" r="5.7"/><circle cx="681.9" cy="545.9" r="5.7"/><circle cx="700.4" cy="548" r="5.7"/><circle cx="718.1" cy="550.4" r="5.7"/><circle cx="733.8" cy="552.8" r="5.7"/><circle cx="749.5" cy="556.1" r="5.7"/><circle cx="729.5" cy="572.3" r="5.7"/><circle cx="744.2" cy="576.4" r="5.7"/><circle cx="714.7" cy="567.1" r="5.7"/><circle cx="699" cy="563" r="5.7"/><circle cx="681.9" cy="558.5" r="5.7"/><path class="st1" d="M686.6 347.6s93.3-27.6 107.6-28.1l4.3 20.9s-102.8 20-112.4 27.1-7.1-1.4-7.1-1.4l7.6-18.5z"/><path class="st0" d="M686.6 347.6s54.9-16.3 87-24l5 20.9c-30.4 6.2-85.6 18-92.4 23.1-9.5 7.1-7.1-1.4-7.1-1.4l7.5-18.6z"/><path class="st2" d="M686.6 347.6s93.3-27.6 107.6-28.1l4.3 20.9s-102.8 20-112.4 27.1-7.1-1.4-7.1-1.4l7.6-18.5z"/><path class="st1" d="M701.4 375.7c4.3-2.9 96.2 2.4 96.2 2.4l2.9-20.9s-87.6-.5-98.6 2.4-17.6 10-17.6 10l3.3 5.2c0-.1 9.5 3.7 13.8.9z"/><path class="st0" d="M701.4 375.7c3.1-2 50.5 0 77.6 1.4l1.9-20c-26.5 0-71.4.4-79 2.4-11 2.9-17.6 10-17.6 10l3.3 5.2s9.5 3.8 13.8 1z"/><circle cx="697.6" cy="352.1" r="4.3"/><circle cx="712.8" cy="348.5" r="4.3"/><circle cx="729.5" cy="344.7" r="4.3"/><circle cx="748.1" cy="340" r="4.3"/><circle cx="766.6" cy="336.2" r="4.3"/><circle cx="710.9" cy="366.1" r="4.3"/><circle cx="727.6" cy="366.1" r="4.3"/><circle cx="745.2" cy="366.1" r="4.3"/><circle cx="759.5" cy="366.6" r="4.3"/><circle cx="774.7" cy="367.1" r="4.3"/><path class="st2" d="m781.9 329 11.9-2.4M783.3 335.7l11.9-2.9M788 363.8l11.5.4M785.9 370.4l11.2.5M701.4 375.7c4.3-2.9 96.2 2.4 96.2 2.4l2.9-20.9s-87.6-.5-98.6 2.4-17.6 10-17.6 10l3.3 5.2c0-.1 9.5 3.7 13.8.9z"/><path class="st6" d="M660 363.3s6.2-36.9-10.5-36.4c-14.3.4-18.1 20.7-9 37.4 6.7 6.2 12.4 2.9 12.4 2.9l7.1-3.9z"/><path class="st2" d="M648.1 338.5c-2.9 10.5 1 21.9 1 21.9"/><path class="st6" d="M681.9 365.2c2.9-2.4 15.7-30 0-36.7-15.7-6.7-21.9 20.9-22.4 32.4 4.8 6.2 10.5 7.1 10.5 7.1s9-.4 11.9-2.8z"/><path class="st2" d="M676.2 341.4c-6.2 4.3-5.7 21.9-5.7 21.9"/><path class="st1" d="M631.4 376.9s7.9 19.3 8.3 29.8c.5 10.5 3.6 27.6 7.9 31.9 4.3 4.3 18.1 7.6 18.1 7.6s-4.3 1.9 8.6-3.3c12.9-5.2 12.4-24.8 14.3-32.9 1.9-8.1 14.8-29 14.8-29l-37.6-13.3-34.4 9.2z"/><path class="st0" d="M639.7 406.6c.5 10.5 3.6 27.6 7.9 31.9 4.3 4.3 18.1 7.6 18.1 7.6s-4.3 1.9 8.6-3.3c12.9-5.2 12.4-24.8 14.3-32.9-16.2-4.2-42.4-4.7-48.9-3.3z"/><path class="st2" d="M647.6 395.2v9M653.3 395.2l-.5 9.5M661.9 396.1v8.1M668.5 395.7l-.9 9.5M677.6 397.1l-.5 8.6M684.3 398.5l-1.5 8.1M631.4 376.9s7.9 19.3 8.3 29.8c.5 10.5 3.6 27.6 7.9 31.9 4.3 4.3 18.1 7.6 18.1 7.6s-4.3 1.9 8.6-3.3c12.9-5.2 12.4-24.8 14.3-32.9 1.9-8.1 14.8-29 14.8-29l-37.6-13.3-34.4 9.2z"/><path class="st6" d="M631.4 376.9s4.2 10.4 6.7 20.1c7.6-2.7 46.6.1 54 4.1 4.4-9.1 11.2-20.1 11.2-20.1l-37.6-13.3-34.3 9.2z"/><circle class="st3" cx="634.3" cy="369.7" r="7.9"/><circle class="st3" cx="648.1" cy="366.6" r="7.9"/><circle class="st3" cx="664.3" cy="367.1" r="7.9"/><circle class="st3" cx="680" cy="371.4" r="7.9"/><circle class="st3" cx="695.7" cy="377.6" r="7.9"/><path class="st7" d="M632.4 436.1c-2.4 1.4-5.2 12.4 0 14.3 5.2 1.9 25.7 1.4 25.7 1.4l12.4 1s20 5.7 23.3 3.8c3.3-1.9 2.9-11 0-13.3-2.9-2.4-23.3-.5-23.3-.5l-11.9-1.4c-.1 0-23.9-6.7-26.2-5.3z"/><path class="st3" d="m556.2 529 7.9-54.5s-1.2-5-10.2-6c-5.2-1-11.2 8.6-6 14.3 5.2 5.7 18.8 3.3 18.8 3.3l-5.7 30.5s-9-3.8-13.8-3.3-6.7 11.4-3.3 14.3 12.3 1.4 12.3 1.4z"/><path class="st4" d="m564 474.5-7.9 54.5s49.5 3.3 51.4-1.9c1.9-5.2 4.3-37.1 4.3-37.1L564 474.5z"/><path class="st7" d="m577.5 478.8 34.4 11.1s-1.3 16.9-2.7 28.1c-3 .5-37.3-2.9-37.3-2.9l5.6-36.3z"/><path class="st3" d="M607.6 527.1c1.9-5.2 4.3-37.1 4.3-37.1s16.2-3.8 22.9-14.3c6.7-10.5 9-21.9 10.5-26.2 1.4-4.3 6.7-4.3 7.1 1.9.5 6.2 1.9 18.6-2.9 27.6-5.7 11-7.6 36.2-7.6 36.2s-5.2 9.5-14.3 12.4-20-.5-20-.5z"/><path class="st5" d="M641.6 461.1c1.8-5.1 2.8-9.4 3.6-11.7 1.1-3.2 4.3-4 6-1.6.6.8-2.2 12.1-4.1 13.5-1.9 1.5-5.2 1.5-5.5-.2z"/><path class="st7" d="M658.5 439.9c-2.4 1.9-2.4 9.5-.5 11.9 1.9 2.4 11 2.9 12.4 1 1.4-1.9 2.4-9 1-11.4-1.4-2.4-10.5-3.4-12.9-1.5z"/><path class="st3" d="M671.9 476.1c-2.9-1.4-26.4.5-28.8 4.3-2.4 3.8-3.3 5.5 0 8.3-2.4 2.9-3.6 6.4-.2 9.8-3.3 2.4-2.9 6.7 0 10-2.9 1.9-4.3 7.1 0 8.6 4.3 1.4 28.3-3.6 31.2-7.4s-.7-5 .7-6.9c1.4-1.9 5.2-3.8 4.3-7.6-1-3.8-5.7-5.2-5.2-7.6.5-2.4 2.9-3.3 2.9-5.7-.2-2.4-2.1-4.3-4.9-5.8z"/><path class="st5" d="M649.2 477.7c-3.1.7-5.4 1.7-6.1 2.7-2.4 3.8-3.3 5.5 0 8.3-2.4 2.9-3.6 6.4-.2 9.8-3.3 2.4-2.9 6.7 0 10-2.9 1.9-4.3 7.1 0 8.6 1.3.4 4.3.3 8.1-.2-.6-18.9-1.8-39.2-1.8-39.2z"/><path class="st2" d="m663.8 485.2-20.7 3.5M664.7 494.2l-21.9 4.3M665.2 503.3l-22.4 5.2"/><path class="st4" d="M661.1 348.1c-.1-10.1-2.3-21.5-11.6-21.2-5.8.2-9.9 3.6-12.1 8.7l23.7 12.5zM687.7 352.9c2.7-9.1 3.5-20.4-5.9-24.3-7.5-3.2-12.9 1.5-16.4 8.4 0 0 17.4 13 22.3 15.9z"/><path class="st1" d="m627.6 206.6 96.7-45.7s2.4 11-1.4 17.1c-3.8 6.2-14.3 10.5-18.6 23.3-4.3 12.9 2.9 37.6-15.7 52.8-18.6 15.2-38.1 20-38.1 20l-16.7-29.5-6.2-38z"/><path class="st0" d="m627.6 206.6 81.3-38.4c.6 8.4-14.1 13.7-18.4 26.5-4.3 12.9 2.4 35.7-12.4 48.6-18.1 15.8-35 17.9-35 17.9l-9.3-16.5-6.2-38.1z"/><path class="st2" d="m659.5 261.4 3.8 7.1M665.2 259.5l3.3 6.2M679.5 249l3.8 6.2M683.8 245.2l7.1 6.2M691.4 231.4l8.6 1.9M692.8 225.2l7.6 1.4M694.3 210.5l7.6.9M694.3 204.3l6.6 2.3M701.4 187.6l6.2 6.2M704.3 183.8l6.1 5.7M715.7 173.8l7.1 4.3M717.6 169l6.6 2.4"/><circle cx="645.7" cy="211.9" r="5.7"/><circle cx="661.9" cy="204.3" r="5.7"/><circle cx="678.5" cy="196.6" r="5.7"/><circle cx="664.7" cy="219.5" r="5.7"/><circle cx="648.1" cy="227.6" r="5.7"/><circle cx="653.8" cy="243.8" r="5.7"/><circle cx="679.5" cy="213.3" r="5.7"/><circle cx="671.9" cy="233.8" r="5.7"/><path class="st2" d="m627.6 206.6 96.7-45.7s2.4 11-1.4 17.1c-3.8 6.2-14.3 10.5-18.6 23.3-4.3 12.9 2.9 37.6-15.7 52.8-18.6 15.2-38.1 20-38.1 20l-16.7-29.5-6.2-38z"/><path class="st7" d="M620.5 210.9c-3.3-2.9-10-1.4-10.5 4.8-.5 6.2 18.1 63.8 22.4 66.7 4.3 2.9 10 .5 11-2.9 5.2 1.4 9.5.5 9.5-4.3 0-2.3-6.5-15.5-11.9-31.8-5.5-16.8-9.8-36.7-11.5-37.7-3.3-1.9-8.1-1-9 5.2z"/><path class="st2" d="M643.3 279.5c-4.8-6.7-22.4-64.3-22.9-68.6"/><ellipse transform="rotate(-19.7 624.826 246.887)" class="st7" cx="624.9" cy="246.9" rx="4.9" ry="6.9"/><ellipse transform="rotate(-19.7 635.629 243.53)" class="st7" cx="635.7" cy="243.5" rx="5" ry="6.9"/></svg>