<svg version="1.1" id="Calque_1" xmlns="http://www.w3.org/2000/svg" x="0" y="0" viewBox="0 0 900 900" style="enable-background:new 0 0 900 900" xml:space="preserve"><style>.st0,.st1{fill:#ffce00;stroke:#000;stroke-width:5.9289;stroke-linecap:round;stroke-linejoin:round;stroke-miterlimit:10}.st1{fill:none}.st2{fill:#ffce00}.st3{fill:red}.st4{fill:#fff}.st5{fill:#ff9d00}.st6,.st7,.st8,.st9{fill:none;stroke:red;stroke-width:8.8934;stroke-linecap:round;stroke-linejoin:round;stroke-miterlimit:10}.st7,.st8,.st9{fill:red;stroke:#000;stroke-width:5.9289}.st8,.st9{fill:#0057e2}.st9{fill:#fff}.st10{fill:none}.st11,.st12,.st13,.st14,.st15,.st16{fill:#ff9d00;stroke:#000;stroke-width:5.9289;stroke-linecap:round;stroke-linejoin:round;stroke-miterlimit:10}.st12,.st13,.st14,.st15,.st16{fill:#ffce00;stroke-width:6.0967}.st13,.st14,.st15,.st16{fill:#0057e2}.st14,.st15,.st16{fill:none}.st15,.st16{fill:#fff}.st16{fill:red}</style><path class="st0" d="M362.9 680s-6.7 13.3 5.2 19.3c-8.9 5.2-11.9 18.5-1.5 25.2-3 8.2 2.2 20 17.8 17.8-2.2 13.3 12.6 17 24.5 11.9 1.5 8.9 12.6 8.9 19.3 1.5 6.7-7.4 6.7-17.8 6.7-17.8l-31.1-66-40.9 8.1z"/><path class="st1" d="m368.1 699.2 20.7-.7M366.6 724.4l25.2-3.7M384.4 742.2l12.6-10.4M408.9 754.1l3.7-17.8"/><path class="st2" d="M508.2 671.8s9.6 11.9 8.2 23.7-6.7 16.3-12.6 17.8c-5.9 1.5-43.7-1.5-50.4 0-6.7 1.5-14.1 6.7-15.6 12.6-1.5 5.9 2.2 11.1-5.2 14.8-7.4 3.7-35.6 8.2-43-17-4.4-17-.7-47.4-.7-47.4l119.3-4.5z"/><circle class="st3" cx="453.3" cy="683.7" r="8.2"/><circle class="st3" cx="461.5" cy="701.5" r="8.2"/><circle class="st3" cx="487.4" cy="691.8" r="8.2"/><path class="st3" d="M512.5 678.5c-4.4.1-7.9 3.7-7.9 8.2 0 4.5 3.6 8.2 8.2 8.2 1.4 0 2.7-.4 3.9-1 0-5.8-2.1-11.3-4.2-15.4z"/><circle class="st3" cx="406.6" cy="689.6" r="8.2"/><circle class="st3" cx="430.3" cy="694.8" r="8.2"/><circle class="st3" cx="414" cy="708.9" r="8.2"/><circle class="st3" cx="422.9" cy="728.1" r="8.2"/><path class="st1" d="M508.2 671.8s9.6 11.9 8.2 23.7-6.7 16.3-12.6 17.8c-5.9 1.5-43.7-1.5-50.4 0-6.7 1.5-14.1 6.7-15.6 12.6-1.5 5.9 2.2 11.1-5.2 14.8-7.4 3.7-35.6 8.2-43-17-4.4-17-.7-47.4-.7-47.4l119.3-4.5z"/><path class="st4" d="M391.5 679.8c13.3-.9 27.3-1.7 41.2-2.4L389 639.2l2.5 40.6zM386.2 591.4l90.2 83.7c6.7-.4 13.3-.7 19.5-1L385 570.1l1.2 21.3zM388.2 625l56.2 51.8c6.6-.4 13.1-.7 19.5-1l-76.9-72 1.2 21.2zM384.2 556.3l123 117.1c4.1-.2 7.9-.4 11.6-.7L383.1 537.1l1.1 19.2z"/><path class="st2" d="m387 603.8 76.9 72c4.2-.2 8.4-.4 12.5-.7l-90.2-83.7.8 12.4zM389.1 639.2l43.7 38.2c3.9-.2 7.9-.4 11.7-.6L388.3 625l.8 14.2zM385 570.1l110.9 104c3.9-.2 7.6-.4 11.2-.7l-123-117.1.9 13.8zM383.1 537.1l135.7 135.7c3.9-.2 7.6-.5 11.1-.7L382.3 524.5l.8 12.6zM448.9 577.7l2.2-11.1-42.2-40.8 2.2-26.4-15.4 2.6.6 26.8zM519.3 554.7l-1.7-13.8-24.4 94.4 7.9 7.9 23.5-84c-3.2-2.9-5.3-4.5-5.3-4.5z"/><path class="st4" d="m494.5 522.4-20.6 93.7 8.5 8.5 20.5-97.4c-2.7-1.5-5.5-3.1-8.4-4.8zM516.8 534.3c-1.7-.7-3.6-1.6-5.4-2.5l-23.3 98.4 5.1 5.1 24.4-94.4-.8-6.6zM451.1 493l-39.9 6.4-2.3 26.4 42.2 40.8-2.2 11.1-52.6-48.9-.6-26.8-5.3.9-9.3.1 1.3 21.6 82.5 82.5 20.2-90.5c-12.5-8.1-24.8-16.9-34-23.6z"/><path class="st2" d="m485 516.4-20.2 90.5 9.1 9.1 20.6-93.7c-3.1-1.8-6.3-3.8-9.5-5.9zM502.9 527.2l-20.5 97.3 5.6 5.6 23.3-98.5c-2.7-1.3-5.5-2.7-8.4-4.4zM549.6 593.9l-26.2 71.6 6.5 6.5c.3 0 .7-.1 1-.1l22.8-63.3c-.8-5.1-2.3-10-4.1-14.7z"/><path class="st4" d="m524.6 559.3-23.5 84 10.1 10.1 25.7-80.6c-4.4-5.8-9-10.4-12.3-13.5zM530.8 671.9c2.1-.1 4.1-.3 5.9-.4 6.4-10.2 16.8-30.4 17.3-54.5.1-2.8-.1-5.6-.5-8.3l-22.7 63.2zM543.4 581.9l-25.8 77.8 5.8 5.8 26.2-71.6c-1.8-4.3-3.9-8.3-6.2-12z"/><path class="st2" d="m536.9 572.7-25.7 80.6 6.4 6.4 25.8-77.8c-2-3.3-4.3-6.4-6.5-9.2z"/><path class="st1" d="m519.3 554.7-2.6-20.5c-19.6-8.5-48.1-28.5-65.7-41.3l-60.8 9.9-9.3.1 10.4 176.9c52.1-3.4 113.9-5.7 145.3-8.4 6.4-10.2 16.8-30.4 17.3-54.5 1-34.8-34.6-62.2-34.6-62.2z"/><path class="st5" d="M314.7 515.4s-51.9 0-60.8 7.4c-8.9 7.4-6.7 35.6 5.9 48.2 8.2 5.9 22.2 7.4 22.2 7.4l52.6 4.4-19.9-67.4z"/><path class="st6" d="m280.6 545.8 14.1 24.5M299.2 544.3l12.6 24.5M251 534l63-3"/><path class="st1" d="M314.7 515.4s-51.9 0-60.8 7.4c-8.9 7.4-6.7 35.6 5.9 48.2 8.2 5.9 22.2 7.4 22.2 7.4l52.6 4.4-19.9-67.4z"/><path class="st7" d="m305.1 487.3 5.9 34.1 43-11.1-13.3-38.6-27.5.8zM268 611s0-31.1 11.1-34.8 40-1.5 40-1.5l11.9 34.8-40 11.1-23-9.6z"/><path class="st8" d="m335.9 694.4-75.2-2.3-4.4 14.8 80.5 2.3z"/><path class="st7" d="m335.8 691.1-1.8-30.4-64.5 1.5-6.3 21.4-2.5 8.5 75.2 2.3z"/><path class="st9" d="m256.3 706.9-17.2 58.3 100.8-1.5-3.1-54.5z"/><path class="st1" d="m257.7 764.5 15.5-43M273.2 764.5l14.1-43M292.5 765.2l10.4-43.7M308.1 763.7l9.6-40.7"/><path class="st0" d="M617.1 539.7c-1.5-12.7-4.2-22.5-7.3-27.2-8.2-11.9-141.6-22.2-141.6-22.2l-17 2.7c19.7 14.5 53.5 37.9 72.6 43.9 25.3 8 74 6.4 93.3 2.8z"/><path class="st10" d="M554.5 669.2c-.6.1-1.3.2-1.9.4 0 0 .7-.1 1.9-.4z"/><path class="st8" d="M696.1 801.5c-1.5-27.3-7.9-57.8-7.9-57.8l-26.5 1.3c.6 17.1 2.5 47.9 9.4 55.8 7 7.9 18.9 3.7 25 .7z"/><path class="st8" d="M653.4 815.6c13.2 9 35.1 1 43-2.4 0-3.8-.1-7.7-.3-11.7-6.2 3-18 7.2-24.9-.7-6.8-7.9-8.8-38.7-9.4-55.8l-21.9 1c0 21 1.6 61.4 13.5 69.6z"/><path class="st7" d="M696.4 813.2c-7.9 3.4-29.8 11.3-43 2.4-11.9-8.2-13.6-48.6-13.6-69.6l-15.6.7c-1.5 22.6-2.3 70.4 15 82.2 18.4 12.5 45.8 3 56-1.2l.3-1.8c.7-3.8.9-8.2.9-12.7z"/><path class="st9" d="m626.6 804-17.3 4.6c.9 9.9 2.6 18.9 5.6 25.1l18.4-11.4c-3.1-4.9-5.2-11.2-6.7-18.3zM623.6 763.9l-14.5.8c-.4 6.2-.7 13.6-.7 21.4l15.7-1.7c-.5-7-.6-14-.5-20.5zM624.1 784.4l-15.7 1.7c0 7.5.2 15.2.9 22.5l17.3-4.6c-1.3-6.2-2.1-12.9-2.5-19.6z"/><path class="st9" d="m624.3 746.7-13.9.7s-.7 7-1.3 17.3l14.5-.8c.1-6.5.4-12.4.7-17.2zM695.4 827.7c-4.7 1.9-13 5-22.4 6.4l.9 13c10.8-3.2 19.4-9.5 21.5-19.4zM656.2 834.8l-.5 15.1c6.2-.1 12.5-1 18.1-2.7l-.9-13c-5.3.9-11 1.3-16.7.6zM633.3 822.3l-18.4 11.4c1.1 2.3 2.3 4.2 3.8 5.6 4.2 4.2 11 7.2 19 9l1.8-19.3c-2.5-1.7-4.5-4-6.2-6.7z"/><path class="st9" d="m639.3 828.9-1.8 19.3c5.7 1.3 12 1.9 18.2 1.7l.5-15.1c-5.9-.7-11.7-2.4-16.9-5.9z"/><path class="st8" d="m673.4 687.4-52.6 3.7s-2.7 15.2-9.9 33.6l80.6-3.2c-9.2-17.3-18.1-34.1-18.1-34.1z"/><path class="st9" d="M604.1 739.8c-1.9 3.8-4 7.6-6.3 11.3 54.1 3 100.8-1.5 106.7-4.4-1.3-2.6-2.9-5.6-4.5-8.7l-95.9 1.8z"/><path class="st1" d="m640.8 725.2-.7-26M655.6 725.9l-1.4-26.7"/><circle class="st8" cx="647.1" cy="676.6" r="32.2"/><circle class="st1" cx="647.1" cy="677.4" r="10"/><path class="st9" d="M592.6 650.3s23 9.6 77.1 3c-4.4-43.7-7.4-66-7.4-66l-35.6-35.6-23 5.2-11.1 93.4z"/><path class="st1" d="M630.4 655.5v-35.6M613.4 748.9l.7-13.4M629 748.1l.7-12.6M647.5 748.1l.7-11.8M669.7 748.9l-.7-12.6M688.3 748.1l-1.5-12.6"/><path class="st7" d="M610.9 724.7c-1.9 4.9-4.2 10-6.7 15.1l95.9-1.9c-2.7-5.2-5.7-10.8-8.7-16.5l-80.5 3.3z"/><path class="st9" d="M580 601.4c-4.6-33.2-13.8-50.5-20.4-59.1-13.4-.7-26.4-2.4-35.9-5.3-2.1-.7-4.5-1.6-7-2.7l2.6 20.5s35.6 27.4 34.8 62.3c-.5 24.1-11 44.3-17.3 54.5 6.9-.6 12.4-1.2 15.9-1.9.6-.1 1.3-.2 1.9-.4 7.1-1.9 33.2-12.3 25.4-67.9z"/><path class="st9" d="M593.4 594.7c-3.8-27-9.5-43.1-13.7-52.1-6.5.1-13.3 0-20-.4 6.7 8.6 15.8 25.9 20.4 59.1 7.6 55.6-18.3 66-25.6 67.8 11.9-2.4 22.8-6.2 32.2-13.2 5.1-11.3 10.8-31.8 6.7-61.2z"/><path class="st9" d="M617.1 539.7c-8.3 1.6-22.2 2.7-37.4 3 4.2 9 9.9 25.1 13.7 52.1 4.2 29.3-1.7 49.9-6.7 61.3 12.3-9.1 21.8-23.4 26.7-46.5 5.3-25 5.9-50.8 3.7-69.9z"/><path class="st1" d="m531.1 565.1 6-8.9M542.3 577l7.4-13.4M547.4 586.6l10.4-11.1M552.6 599.2l11.1-8.9M555.6 613.3l11.1-6.7M554.9 628.8l14-4.4M550.4 642.9l12.6-1.5M544.5 658.5l11.1.7"/><path class="st0" d="M762.4 199.7s1.5-56.3 5.9-61.5c4.4-5.2 24.5-.7 30.4 8.9 8.2-3.7 34.1 3 37.8 13.3 3.7 10.4-20.8 57.8-20.8 57.8l-53.3-18.5z"/><path class="st1" d="m798.7 147.1-10.4 58.6"/><path class="st0" d="M649 360.5s41.5 4.4 67.4 27.4c25.9 23 38.5 46.7 38.5 46.7l17-8.2v-22.2s-10.4-23.7-20-34.8c-9.6-11.1-34.1-37.8-34.1-37.8l-49.7.7-19.1 28.2z"/><path class="st11" d="M788.3 426.5c13.3 3 28.9 18.5 28.9 18.5s3-3.7 3.7-6.7c6.7 7.4 5.9 19.3.7 25.2s-17.8 3.7-17.8 3.7l-28.2-1.5-1.5-24.5c.1.1.9-17.7 14.2-14.7z"/><path class="st1" d="M700.8 320.5c-5.9-7.4-5.2-24.5-5.2-24.5M713.4 316.1c-5.9-7.4-4.4-20.8-4.4-20.8M729.8 309.4c-5.9-7.4-6.7-15.6-6.7-15.6M749.8 302.7c-10.4-6.7-13.3-14.8-13.3-14.8"/><path class="st0" d="M738.6 284.2c-12.6 16.3-53.4 10.4-53.4 10.4l-18.5 3-11.1 30.4 16.3 14.8 42.2.7s32.6-10.4 51.1-23c10.7-7.3 18.8-17.1 24-25.9-8.5-2-31.1-8.2-44.2-19.6-1.6 2.8-3.8 5.9-6.4 9.2z"/><path class="st8" d="M768.3 253.1 752 259s-1.3 6.5-6.9 15.9c13.2 11.6 35.7 17.6 44.2 19.6 3.8-6.4 6.2-12.2 7.1-16.3 2.3-9.6-28.1-25.1-28.1-25.1z"/><path class="st7" d="M305.1 116s-5.2-23.7-5.2-28.2c0-4.4 11.1-4.4 12.6 0 3-5.2 11.9-4.4 13.3.7 1.5-5.2 10.4-4.4 11.1 0 3-4.4 10.4-3.7 13.3 0 3.7-3 13.3-2.2 14.8 3s-9.6 29.6-9.6 29.6l-23 11.9-25.2-2.2-2.1-14.8z"/><path class="st1" d="m312.5 87.8 2.2 13.4M325.8 88.6l1.5 13.3M337 88.6v11.8M350.3 88.6l-2.2 12.6"/><path class="st11" d="M294.7 174.5c-8.2 5.2-16.3 22.2-5.9 31.9 10.4 9.6 24.5.7 24.5.7s-1.5 12.6 21.5 9.6 33.4-14.8 33.4-14.8l3.7-41.5s-47.4-17-54.8-34.1c-7.4-17-21.5-16.3-29.6-13.3-8.2 3-15.6 8.9-14.8 23.7.7 14.8 16.3 11.1 16.3 11.1s-5.4 8.2 5.7 26.7z"/><path class="st1" d="M293.2 130.8c7.4 9.6-1.5 16.3-4.4 17M294.7 174.5c12.6-2.2 33.6 1.5 31.9 15.6-1.5 11.9-24.5 5.9-24.5 5.9"/><path class="st6" d="m298.4 152.3 23.7-5.9M302.1 163.4l22.3-4.4"/><path class="st11" d="m343.6 400.6-94.8-37.8-38.6-5.2-11.1 43 28.9 9.6 60 22.2z"/><path class="st6" d="m219.1 368 118.6 42.9"/><path class="st9" d="M66.5 294.6c-3.7 0-4.4 9.6-1.5 14.1 1 1.4 6.5 5.6 13.7 10.7l6-16.1c-9.6-5-17.1-8.7-18.2-8.7z"/><path class="st11" d="M205 347.9c-36.3-20.8-60-17-66.7-17.8-4.5-.5-33.8-16.5-53.7-26.8l-6 16.1c15.6 11 38.9 26.3 38.9 26.3s-8.2 9.6-5.9 23c0 .1.1.2.1.4 7.9-.4 25.6-.4 48.8 5.5.4 3.1 1.3 6.6 3 10.4 0 0 11.1 8.9 19.3 8.9 8.2 0 14.1-8.9 14.1-8.9l13.3-27.4-5.2-9.7z"/><path class="st9" d="M111.7 369.1c2.2 13 7.4 17.4 12.5 18.9 5.2 1.5 8.2-.7 8.2-.7s8.2 6.7 15.6 2.2c4.4 3 8.9 6.7 12.6 4.4 3.7-2.2 3-8.9 3-8.9-1.7-3.9-2.6-7.4-3-10.4-23.3-6-41-6-48.9-5.5z"/><path class="st1" d="M148 389.4c-6.7-10.4-5.9-26.7-2.2-32.6M132.4 387.2c-5.2-5.9-6.7-24.5-1.5-33.4M163.5 385c-7.4-17 0-26.7 0-26.7"/><path class="st0" d="M206.5 387.2s19.3 3 20 8.9c.7 5.9-5.2 17-10.4 17s-17-8.9-17-8.9l7.4-17zM225.1 354.6s16.3-4.4 20.8 1.5c4.4 5.9.7 15.6-3 17.8-3.7 2.2-25.2-3.7-25.2-3.7l7.4-15.6z"/><path class="st8" d="M205 347.9c-4.4 2.2-23 39.3-22.2 47.4.7 8.2 9.6 14.1 16.3 8.9 6.7-5.2 26.7-42.2 25.9-49.7-.7-7.3-15.5-8.8-20-6.6z"/><path class="st9" d="M609.7 413.2s16.3-4.4 17.8-9.6-.7-14.1-.7-14.1 22.2-4.4 25.2-8.2c3-3.7-3-20.8-3-20.8s27.4-7.4 27.4-17.8-6.7-14.1-6.7-14.1 14.8-5.2 13.3-14.1c-1.5-8.9-10.4-19.3-10.4-19.3L640 256.7l-24.5 7.4-40 84.5-16.3 21.5 7.4 25.2 43.1 17.9z"/><path class="st1" d="M626.7 389.4s-28.9-25.9-37.1-34.1M649 360.5s-10.4-14.8-30.4-23M669.7 328.7s-17-11.9-37.1-20M576.3 370.9s19.3.7 39.3 24.5M605.2 348.7s22.2 11.1 30.4 24.5M626 325.7c13.3 3 31.1 15.6 31.1 15.6M629 290.1c8.2 4.4 23 14.8 23 14.8"/><path class="st0" d="M557.8 379.1s35.6 4.4 45.9 20.8c10.4 16.3 16.3 45.9 23.7 54.8 7.4 8.9 23 8.9 28.9 2.2-2.2 9.6-8.2 20.8-24.5 21.5-16.3.7-29.6-3-29.6-3l-45.9-60-13.3-32.6 14.8-3.7z"/><path class="st6" d="M554.9 386.5s33.4 5.9 46.7 43c13.3 37.1 30.4 40 30.4 40"/><path class="st5" d="M560.8 408c53.4 26.7 48.9 104.5 48.9 104.5l-94.9-3L405.9 485l-13.3-30.4s-21.5 17.8-67.4 24.5c-28.9 5.2-71.9 11.9-71.9 11.9s-29.6 17-48.9 16.3c-19.3-.7-31.9-43.7-22.2-48.9 9.6-5.2 51.9-17.8 51.9-17.8l74.9-31.1 38.5-15.6 48.9-59.3 99.3-52.6 32.6 12.6c-.1 0 17.7 106 32.5 113.4z"/><path class="st3" d="M399.7 392.3c-.8-2.3-3.4-3.5-5.7-2.7l-215.3 77.7c0 2.7.4 5.8 1.1 9L397 398c2.4-.8 3.5-3.3 2.7-5.7z"/><path class="st6" d="m199.9 476.9 16.3 23M214.7 471.7l14.1 20.8M339.2 439.8l14.8 23M353.3 435.4l14.8 20M421.4 410.2l17.1 17M431.1 399.8l14.8 17.1M533.4 471h27.4M536.3 483.6h28.2"/><circle class="st3" cx="380.7" cy="430.2" r="13.3"/><circle class="st3" cx="440.7" cy="366.5" r="13.3"/><circle class="st3" cx="543" cy="449.5" r="13.3"/><circle class="st3" cx="540" cy="415.4" r="13.3"/><circle class="st3" cx="245.8" cy="472.5" r="13.3"/><path class="st6" d="m594.1 510.3-17.8-77.9"/><path class="st1" d="M560.8 408c53.4 26.7 48.9 104.5 48.9 104.5l-94.9-3L405.9 485l-13.3-30.4s-21.5 17.8-67.4 24.5c-28.9 5.2-71.9 11.9-71.9 11.9s-29.6 17-48.9 16.3c-19.3-.7-31.9-43.7-22.2-48.9 9.6-5.2 51.9-17.8 51.9-17.8l74.9-31.1 38.5-15.6 48.9-59.3 99.3-52.6 32.6 12.6c-.1 0 17.7 106 32.5 113.4z"/><path class="st9" d="M299.9 303.5s-52.6-2.2-57.1 2.2c-4.4 4.4-4.4 14.1.7 16.3 5.2 2.2 63.7-4.4 63.7-4.4l-7.3-14.1z"/><path class="st7" d="M279.9 322.7c.7-6.7 0-23-2.2-25.9-2.2-3-11.9-3-13.3 1.5-1.5 4.4-2.2 21.5 0 25.9 2.2 4.5 14.8 5.2 15.5-1.5z"/><path class="st11" d="M466.7 319.8s-94.1 71.1-119.3 74.1c-5.9 0-8.2-3.7-9.6-8.2s0-20.8 0-20.8-3 0-7.4-2.2-1.5-13.3-1.5-13.3-6.7 3-7.4-5.2c-.7-8.2 11.1-25.2 11.1-25.2s-19.3 5.2-25.2 3.7-7.4-10.4-7.4-19.3 31.9-37.1 31.9-40c0-3 0-5.2-3-9.6-3-4.4 6.7-43 9.6-48.2 3-5.2 13.3-19.3 13.3-19.3l125.2 17-10.3 116.5z"/><path class="st1" d="M328.8 349.4c10.4-3 40.8 0 46.7 3.7M337.7 365c7.4 0 16.3 1.5 16.3 1.5"/><path class="st9" d="M354 302s37.8 5.2 44.5 8.9c6.7 3.7 1.5 17-5.9 15.6-7.4-1.5-40-7.4-40-7.4L354 302z"/><path class="st7" d="M372.5 300.5c-3 1.5-5.2 20.8-3.7 24.5 1.5 3.7 11.9 4.4 12.6 1.5.7-3 5.9-20.8 3.7-23.7-2.2-3-9.6-3.8-12.6-2.3z"/><path class="st9" d="M365.9 254.6c-3.7 3-.7 15.6 5.2 17 5.9 1.5 42.2-5.2 45.2-7.4s1.5-11.1-.7-13.3-46 .7-49.7 3.7z"/><path class="st11" d="M332.5 319c6.7-1.5 17 5.9 23 .7s8.2-23-5.9-25.9"/><circle class="st0" cx="400" cy="402.8" r="16.7"/><circle class="st1" cx="400" cy="402.8" r="5.2"/><circle class="st0" cx="408.9" cy="466.5" r="16.7"/><circle class="st1" cx="408.9" cy="466.5" r="5.2"/><circle class="st8" cx="488.1" cy="468.7" r="16.7"/><circle class="st1" cx="488.1" cy="468.7" r="5.2"/><circle class="st0" cx="497.8" cy="435.4" r="16.7"/><circle class="st1" cx="497.8" cy="435.4" r="5.2"/><circle class="st8" cx="507.4" cy="407.2" r="16.7"/><circle class="st1" cx="507.4" cy="407.2" r="5.2"/><circle class="st0" cx="498.5" cy="382.8" r="16.7"/><path class="st7" d="m521.5 338.3 24.5-11.1L578.6 222l-17.1-30.4-49.6-4.5-11.9 20-.7 91.9z"/><path class="st9" d="M564.5 222.7C537.1 247.2 546 327.2 546 327.2l13.3 43 17-5.2s48.2-10.4 54.1-45.9c5.9-35.6-.7-48.2-.7-48.2s-37.8-72.7-65.2-48.2z"/><path class="st0" d="M523.7 335.3s18.5-10.4 22.2-8.2c3.7 2.2 30.4 41.5 34.8 45.9-5.9 8.2-15.6 5.9-15.6 5.9s-7.4 8.2-16.3 8.2c-8-10.3-25.1-51.8-25.1-51.8z"/><path class="st1" d="m536.3 330.9 28.9 48.2"/><path class="st0" d="M471.8 189.3s41.5-3 44.5 3.7-9 55.7.7 103c8.2 39.3 52.6 118.6 52.6 127.5 0 8.9-10.4 13.3-17.8 5.9S511 344.9 511 344.9l-23.7-19.3s-22.2-83-22.2-86c.1-2.8 6.7-50.3 6.7-50.3zM457 316.8s-16.3 137.8-15.6 153.4 17.8 11.9 22.2-2.2 15.7-100 15.7-100l2.2-52.6-24.5 1.4z"/><path class="st6" d="M469.6 322.7s-6.7 106-17.8 143M488.9 268.6l-.8-73.3M557.8 421.3S508.5 328 506.4 305c-2-23-5-109-5-109"/><path class="st11" d="M639.3 224.9s54.1 60.8 53.4 66c-.7 5.2-30.4 12.6-35.6 10.4-5.2-2.2-23-31.9-23-31.9s-29.6-8.2-29.6-10.4c0-2.2-18.5-66-18.5-66l31.9 2.2 21.4 29.7zM606.7 73c23.7-1.5 137.8-23.7 145.3-23 7.4.7 14.8 9.6 13.3 14.8-1.5 5.2-41.5 21.5-67.4 25.2s-64.5 11.1-64.5 11.1H606c0 .1-23-26.6.7-28.1z"/><path class="st11" d="M611.2 94.5s152.7-11.9 156.4-7.4c3.7 4.4 5.2 22.2-.7 23.7S615 115.2 615 115.2l-3.8-20.7zM609.7 149.3c21.5.7 115.6 48.9 126 66 3 9.6-4.4 21.5-14.1 19.3-9.6-2.2-40-28.9-119.3-63-11.1-14.8-3.7-19.3-3.7-19.3s-10.4-3.7 11.1-3zM600.8 174.5c35.6 16.3 112.6 74.9 113.4 80.8.7 5.9-8.9 23-12.6 23.7-3.7.7-53.4-48.2-111.9-76.3-10.4 8.2-14.1-15.6-14.1-15.6s-10.4-28.9 25.2-12.6z"/><path class="st11" d="M611.2 131.5c33.4 2.2 131.9 34.8 134.9 40.8 3 5.9-.7 24.5-10.4 23-9.6-1.5-73.4-32.6-126.7-45.2-53.4-12.6-8.9-14.9 2.2-18.6z"/><path class="st0" d="M548.2 144.1s27.4 45.2 31.1 45.9 13.3-4.4 14.1-9.6c5.9-.7 14.1-13.3 10.4-24.5s-49.7-34.1-49.7-34.1l-14.8 11.9 8.9 10.4z"/><path class="st1" d="m593.4 180.5-36.3-39.3"/><path class="st0" d="M550.4 119.7s6.7 10.4 7.4 16.3c.7 5.9 40.8 23.7 48.9 20 8.2-3.7 8.2-17 4.4-24.5 8.9-9.6 11.1-20.8 3-30.4 7.4-17 .7-32.6-8.9-33.4-9.6-.7-41.5 14.8-41.5 14.8l-16.3 8.9 3 28.3z"/><path class="st1" d="m611.2 131.5-51.9-11.1M614.1 101.2H560"/><path class="st6" d="M556.3 96 606 80.4M559.3 113l46.7 3.7M557.8 128.6l48.2 15.5"/><path class="st11" d="m583.8 187.9-34.9-61.5-20 40.7 20.1 39.7 35.6-17.6z"/><path class="st0" d="M584.6 189.2 549 206.8l10.2 20.3 37.7-18z"/><path class="st9" d="M605 222.3 565.8 240l10.2 20.2 40-20.2z"/><path class="st11" d="m596.9 209.1-37.7 18 6.6 12.9 39.2-17.7zM634.1 269.4 616 240l-40 20.2 16.6 32.9z"/><path class="st7" d="M508.2 90c4.4-7.4 45.2-8.9 55.6-7.4 6.7 33.4-6.7 58.5-6.7 58.5l-18.5-12.6-29.6-13.3c-.1 0-5.3-17.8-.8-25.2z"/><path class="st11" d="M507.4 157.5s-.7-23 0-27.4 20-17 25.9-14.1c5.9 3 5.2 12.6 5.2 12.6L523 170.1l-15.6-12.6z"/><ellipse class="st9" cx="492.2" cy="109.3" rx="33" ry="23.7"/><path class="st1" d="m465.2 96.7 3.7 8.2M477.8 91.5l1.5 8.2M488.9 89.3v8.1M500.7 88.6l-3.7 8.1M512.6 94.5l-4.4 5.2M523 102.6l-10.4 3.7M519.3 117.5l-10.4.7"/><path class="st2" d="M348.1 201.2s94.1 1.5 111.2 13.3c17 11.9 17.8-18.5-3.7-23.7s-97.1-6.7-97.1-6.7l-10.4 17.1z"/><path class="st10" d="m390.9 185.2-1.3 17.7c1.9.1 3.7.2 5.6.4l1.6-17.9c-2.1-.1-4-.1-5.9-.2zM373.3 184.5l-1.9 17.4c3 .1 6.2.3 9.4.4l1.3-17.6c-3.2 0-6.2-.1-8.8-.2zM422.9 186.9l-1.3 18.8c2.8.3 5.6.7 8.2 1l1-19.2c-2.5-.2-5.2-.4-7.9-.6zM405.6 185.9 404 204c2.9.2 5.9.5 8.7.8l1.3-18.4c-2.8-.2-5.6-.4-8.4-.5z"/><path class="st3" d="M439.8 188.4c-2.8-.3-5.8-.6-8.9-.8l-1 19.2c3.1.4 6 .9 8.8 1.4l1.1-19.8zM414 186.3l-1.3 18.4c3 .3 5.9.6 8.8 1l1.3-18.8c-2.8-.2-5.8-.4-8.8-.6zM396.7 185.4l-1.6 17.9c3 .2 5.9.4 8.9.7l1.6-18.1c-3-.2-6-.3-8.9-.5zM382 184.8l-1.3 17.6c2.9.1 5.9.3 8.9.5l1.3-17.7c-3.1-.2-6.1-.3-8.9-.4zM364.4 184.3l-1.9 17.3c2.7.1 5.7.2 8.9.4l1.9-17.4c-3.5-.1-6.5-.3-8.9-.3z"/><path class="st1" d="M348.1 202.7s94.1 3 111.2 14.8c17 11.9 17.8-21.5-3.7-26.7s-97.1-6.7-97.1-6.7l-10.4 18.6z"/><path class="st11" d="M426.6 108.9V157l16.4 3.1.5-46.8z"/><path class="st0" d="m443.5 113.3-.5 46.8 5.1 1.1 15.5-.2-.5-42.6zM397 101.2l-1.5 49.6 31.1 6.2v-48.1z"/><path class="st11" d="m463.1 118.4.5 42.6 12-.2.5-39zM507.4 130.1l-16-4.3-.2 34.8 16.2-.2z"/><path class="st0" d="m476.1 121.8-.5 39 15.6-.2.2-34.8z"/><path class="st7" d="M448.1 155.3s19.3-11.1 51.1-3c31.9 8.2 34.8 25.9 34.8 25.9l-53.4 3.7-23.7-5.2-8.8-21.4z"/><path class="st7" d="M512.5 195.9c3 1.5 26.7 3.7 30.4.7s3.7-19.3-3-20c-5.3-.6-23.6-2.1-23.6-2.1s-6.8 19.9-3.8 21.4z"/><path class="st2" d="M361.4 155.3c12.6-11.9 83.7-5.9 95.6 0 11.9 5.9 14.8 12.6 17.8 24.5s2.2 80 2.2 80l-22.2.7s2.2-89.7-5.9-92.6c-8.2-3-86.7-2.2-86.7-2.2s-13.4 1.4-.8-10.4z"/><path class="st10" d="m408.8 148.5-1.5 17.1c2.7 0 5.4.1 8.1.1l1.1-16.9c-2.5-.1-5.1-.1-7.7-.3zM393.5 148.5l-1.2 17h6.2l1.5-17.2c-2.3.1-4.4.1-6.5.2zM425.5 149.5l-1.1 16.5c2.7.1 5.3.1 7.8.3l.9-15.9c-2.5-.3-5.1-.6-7.6-.9zM377.2 149.8l-1.8 15.8h7.9l1.2-16.6c-2.6.2-5 .4-7.3.8z"/><path class="st3" d="m433 150.3-.9 15.9c3.3.1 6.3.3 8.9.5l.9-15.2c-2.8-.4-5.8-.8-8.9-1.2zM416.6 148.9l-1.1 16.9c3 .1 6.1.1 8.9.2l1.1-16.5c-2.9-.2-5.9-.4-8.9-.6zM399.9 148.4l-1.5 17.2c3 0 5.9.1 8.9.1l1.5-17.1c-3-.2-6-.2-8.9-.2zM384.5 149l-1.2 16.6h8.9l1.2-17c-3 0-6 .1-8.9.4zM368 151.8l-1.6 13.8c2.3 0 5.3 0 9-.1l1.8-15.8c-3.5.6-6.6 1.3-9.2 2.1z"/><path class="st1" d="M361.4 155.3c12.6-11.9 83.7-5.9 95.6 0 11.9 5.9 14.8 12.6 17.8 24.5s2.2 80 2.2 80l-22.2.7s2.2-89.7-5.9-92.6c-8.2-3-86.7-2.2-86.7-2.2s-13.4 1.4-.8-10.4z"/><path class="st6" d="m467.4 270.9-1.5-89.7"/><path class="st7" d="M362.2 165.6c21.5-4.4 146.7 3.7 154.2 8.9 7.4 5.2 5.9 18.5 5.9 18.5l-6.7 13.3-156.4-14.8c0 .1 0-20.7 3-25.9z"/><path class="st0" d="M344.4 168.6c-.7 14.1-3.6 23.5-8.9 28.2-6.7 5.9-.7 8.9 3 8.9s24.5-9.6 25.2-15.6c.7-5.9 5.9-34.1-1.5-38.5s-30.4-4.4-30.4-4.4-7.4-23-8.9-26.7c-1.5-3.7-6.7-5.2-8.9-.7-2.2 4.4-.7 38.5 6.7 44.5 7.4 5.8 20.7 1.3 23.7 4.3z"/><path class="st8" d="M368.1 134.5c0 10.7-3 19.3-23 19.3-18.5 0-23-8.6-23-19.3s9.6-20 22.2-20c12.7 0 23.8 9.3 23.8 20z"/><circle class="st9" cx="338.8" cy="140.1" r="14.5"/><circle class="st1" cx="338.8" cy="140.1" r="4.8"/><circle class="st0" cx="529.7" cy="159.7" r="11.9"/><circle class="st0" cx="539.3" cy="137.5" r="11.9"/><path class="st9" d="M661.6 127.1s-5.2 5.2-8.9 7.4-5.9 14.1-3 18.5c3 4.4 13.3 1.5 16.3-3.7 0 9.6 12.6 8.9 19.3 4.4 5.9 5.2 17 7.4 22.2 1.5 5.2 5.9 19.1 5.9 20.7 0 9.7 1.5 20.1-5.2 18.6-14.8 8.9-5.9 14.1-20.8-3.7-23.7 4.4-10.4-4.4-16.3-14.9-17.8-5.1 0-6.6 2.2-9.6 5.2-3-6.7-16.3-6.7-22.2-.7-2.2-7.4-17-9.6-20.8-.7-3-5.9-14.8-6.7-20-1.5s-3 20-3 20l9 5.9z"/><path class="st1" d="m673.4 121.2 2.3-18.6M694.9 122.6l1.5-19.2M714.9 124.1l3.7-20M728.2 125.6l14.9-8.9M730.5 133l16.3 7.4M724.6 136l3.6 19.3M707.5 133v22.3M686 130.8l-.7 23M666.8 131.5l-.8 17.8"/><path class="st7" d="M652.7 121.2v13.3s63.7 2.2 71.9 1.5 8.9-12.6 0-14.1-71.9-.7-71.9-.7z"/><ellipse class="st8" cx="473" cy="289" rx="36.7" ry="33.7"/><path class="st11" d="M469.6 290.9c0 3.7 2.2 27.4 3.7 49.7 5.2 2.2 30.4-4.4 32.6-8.9-15.6-16.3-24.5-39.3-25.9-42.2-1.5-3.1-10.4-2.3-10.4 1.4z"/><path class="st9" d="M469.6 354.6s-3.7 15.6-.7 18.5c3 3 12.6 1.5 14.8-1.5 6.7 3.7 14.8.7 16.3-3 8.9 3 14.8-4.4 14.8-7.4 5.9.7 11.1-.7 10.4-8.2-.7-7.4-9.6-13.3-9.6-13.3l-46 14.9z"/><path class="st1" d="m483.7 371.7-1.5-21.5M500 368.7l-4.4-20.8M514.8 361.3l-8.9-19.3M457.8 259l6.6 21.5M469.6 257.5l6.7 19.3M438.5 296.1l18.5-6.7M445.2 305.7l12.6-4.4M504.5 278.3l-11.2 4.4M508.9 287.9l-12.6 4.5"/><path class="st7" d="M468.1 357.6c-6.7-3-6.7-11.9-.7-15.6s37.8-13.3 44.5-11.1c6.7 2.2 6.7 8.9 5.9 12.6-5.2 9.6-43 17-49.7 14.1z"/><circle class="st8" cx="400" cy="433.2" r="16.7"/><circle class="st1" cx="400" cy="433.2" r="5.2"/><circle class="st8" cx="399.6" cy="374.8" r="16.7"/><circle class="st1" cx="399.6" cy="374.8" r="5.2"/><path class="st9" d="M265.8 502.1s3 26.7 7.4 31.1c4.4 4.4 19.3 3 19.3-3 0-5.9-5.2-35.6-5.2-35.6l-21.5 7.5z"/><path class="st4" d="m274.7 439.1-24.5-23.7s-1.6-4.1-3.7-9.3l-23.6 8.4c10.5 31.6 31.3 88.6 34.6 91.3 4.4 3.7 22.2-1.5 23-5.2.8-3.7-5.8-61.5-5.8-61.5z"/><path class="st3" d="M236.2 384.3c-3-2.2-19.3 3.7-19.3 9.6 0 1.6 2.4 9.6 6.2 20.6l23.6-8.4c-3.6-8.6-8.7-20.5-10.5-21.8z"/><path class="st1" d="M216.9 393.9c0 5.9 36.3 108.2 40.8 111.9 4.4 3.7 22.2-1.5 23-5.2.7-3.7-5.9-61.5-5.9-61.5l-24.5-23.7s-11.1-28.9-14.1-31.1-19.3 3.7-19.3 9.6zM245.8 440.6l17.8 51.1"/><path class="st8" d="M270.3 412.4s-12.6-37.1-11.9-42.2 17-7.4 20.8-4.4c3.7 3 8.9 43.7 8.9 43.7l-11.9 17-5.9-14.1z"/><path class="st8" d="M298.4 489.5c7.4 7.4 29.6 5.2 28.9-7.4-.4-6.1-6.5-22.4-9.9-38.3-3.6-17.1-4.4-33.8-8.7-37.3-8.2-6.7-32.6 4.4-32.6 4.4l-1.5 19.3c.1 0 16.4 51.9 23.8 59.3z"/><path class="st1" d="m296.9 425.8 13.4 42.2"/><path class="st7" d="M299.9 488.8c-1.5-8.2-19.3-72.6-23.7-77.8-4.4-5.2-25.9-.7-25.9 4.4s23.7 80 30.4 85.2c6.6 5.2 20.7-3.7 19.2-11.8z"/><path class="st1" d="m271 439.1 11.9 37.1"/><path class="st5" d="M759.4 198.2c-1.6 2.4-2.4 16-2.7 27.9 30.1 6.2 48.8 15.5 58.6 21.6 5.6-9 11.5-19 12.2-22.1-5.8-17-65.1-31.8-68.1-27.4z"/><path class="st3" d="m756.4 244.9 48.9 18.5s4.8-7.4 10-15.8c-9.8-6.1-28.5-15.3-58.6-21.6-.3 10.1-.3 18.9-.3 18.9z"/><path class="st1" d="m782.4 250.1 7.4-45.9"/><path class="st3" d="M761.7 219.8c-.4 2.4 1.3 4.7 3.8 5 .2 0 .4.1.7.1 2.1 0 4.1-1.6 4.4-3.8l3.3-22.2c-3.4-.7-6.4-1.1-8.8-1.3l-3.4 22.2zM772.8 222.8c-.4 2.4 1.3 4.7 3.8 5 .2 0 .4.1.7.1 2.1 0 4.1-1.6 4.4-3.9l3.3-22.7c-3-.8-5.9-1.6-8.7-2.1l-3.5 23.6zM793 226.5c-.7 2.4.5 4.8 2.9 5.6.4.1.9.2 1.4.2 1.9 0 3.6-1.2 4.2-3.1l6.3-19.3c-2.7-1.2-5.4-2.4-8.2-3.5l-6.6 20.1zM803.4 232.3c-.9 2.3.3 4.9 2.6 5.7.5.2 1 .3 1.6.3 1.8 0 3.5-1.1 4.2-2.9l7.2-19.3c-2.3-1.6-5-3.1-7.8-4.6l-7.8 20.8z"/><path class="st1" d="M756.4 244.9s0-42.2 3-46.7 62.3 10.4 68.2 27.4c-1.5 5.9-22.2 37.8-22.2 37.8l-49-18.5z"/><path class="st7" d="M756.4 240.5c-5.9 2.2-5.9 14.1-4.4 18.5.8 2.4 11.9 4.8 22.8 9.3 9.5 3.9 18.9 10 21.6 10 5.9 0 14.1-10.4 9.6-18.5-4.4-8.2-43.6-21.5-49.6-19.3z"/><circle class="st11" cx="744.8" cy="343.3" r="29.6"/><circle class="st7" cx="744.8" cy="343.3" r="12.2"/><path class="st7" d="M755 434.7c7.4-8.9 11.9-14.1 17-30.4 11.1-2.2 23.7 14.1 23 25.2-.7 11.1-8.2 22.6-14.1 24.5-11.9 3.6-27.4-12.7-25.9-19.3z"/><path class="st3" d="M728.2 528c-17.6 6.7-22.2 24.4-22.8 38.5 1.2 5 2.1 8.2 2.1 8.2s6.7 9.6 24.5 11.9c22.2 3 19.3 12.6 28.9 12.6 9.6 0 8.2-15.6 8.2-15.6l23-52.9c-5.2-2.1-35.5-13.5-63.9-2.7z"/><path class="st2" d="M807.6 470.2c-3-12.6-9.6-11.9-14.8-10.4-3.7-17.8-18.5-8.2-23.7-2.2-2.2-8.9-12.6-7.4-15.6-5.2s-8.9 32.6-8.9 32.6c-1.5-14.8-8.9-22.2-14.8-20.8-5.9 1.5 2.2 28.9-20.8 40.8-14.8 5.7-7.6 44.2-3.6 61.4.6-14.1 5.1-31.7 22.8-38.5 28.4-10.8 58.7.6 63.8 2.7l3.7-8.6c0 .1 14.8-39.2 11.9-51.8z"/><path class="st1" d="M709 505.1c23-11.9 14.8-39.3 20.8-40.8 5.9-1.5 13.3 5.9 14.8 20.8 0 0 5.9-30.4 8.9-32.6 3-2.2 13.3-3.7 15.6 5.2 5.2-5.9 20-15.6 23.7 2.2 5.2-1.5 11.9-2.2 14.8 10.4 3 12.6-11.9 51.9-11.9 51.9L769 583.6s1.5 15.6-8.2 15.6c-9.6 0-6.7-9.6-28.9-12.6-17.8-2.2-24.5-11.9-24.5-11.9s-17.6-62.2 1.6-69.6z"/><path class="st1" d="M792.7 459.9c-.7 7.4-3.7 19.3-6.7 29.6M769 457.6c-.7 7.4-.7 21.5-3.7 31.9M734.9 531.7c-5.2-5.9-5.9-21.5 4.4-24.5 10.4-3 28.9-1.5 35.6 2.2 6.7 3.7 11.9 15.6 11.9 15.6"/><path class="st5" d="M737.9 550.3c-6.7 2.2-9.6 17.8-2.2 22.2 7.4 4.4 21.5 9.6 33.4 9.6 11.9 0 23.7-.7 31.9 5.9 5.2-4.4 11.9-8.9 15.6-13.3 3.7-4.4 1.5-23-.7-27.4-2.2-4.4-14.8-8.2-14.8-8.2s4.4-8.2-5.2-17c-2.2 0-8.2.7-8.9 3-1.3 3.8-4.4 20.8-15.6 23.7-11.3 3-26.8-.8-33.5 1.5z"/><path class="st1" d="M746.8 562.9c32.6 7.4 54.8-.7 54.1 25.2"/><circle class="st3" cx="796.8" cy="537.3" r="4.1"/><circle class="st3" cx="799.4" cy="554" r="4.1"/><circle class="st3" cx="783.9" cy="557.7" r="4.1"/><circle class="st3" cx="757.2" cy="557.7" r="4.1"/><circle class="st3" cx="772" cy="574" r="4.1"/><circle class="st3" cx="744.6" cy="571" r="4.1"/><path class="st1" d="M737.9 550.3c-6.7 2.2-9.6 17.8-2.2 22.2 7.4 4.4 21.5 9.6 33.4 9.6 11.9 0 23.7-.7 31.9 5.9 5.2-4.4 11.9-8.9 15.6-13.3 3.7-4.4 1.5-23-.7-27.4-2.2-4.4-14.8-8.2-14.8-8.2s4.4-8.2-5.2-17c-2.2 0-8.2.7-8.9 3-1.3 3.8-4.4 20.8-15.6 23.7-11.3 3-26.8-.8-33.5 1.5z"/><path class="st9" d="M746.8 522.8c-5.9 14.1 17 23 25.2 9.6 5.9-10.3-20-20.7-25.2-9.6z"/><path class="st8" d="M649.7 538.4c-1.8-39.4 44.8-52 62-55.3l.3-19.6s-98.6 3.7-98.6 72.6 96.3 68.2 96.3 68.2l.4-22.8c-13.8.2-58.5-2.5-60.4-43.1z"/><path class="st8" d="M649.7 538.4c1.9 40.7 46.5 43.3 60.4 43.1l1.6-98.4c-17.2 3.3-63.8 16-62 55.3z"/><circle class="st1" cx="688.6" cy="538" r="11.5"/><circle class="st9" cx="381.1" cy="261.6" r="5.2"/><circle class="st9" cx="760.1" cy="526.6" r="5.2"/><path class="st5" d="M323.6 662.9s-32.6 4.4-58.5 4.4-12.6-59.3 2.2-62.3 59.3.7 59.3.7l-3 57.2z"/><path class="st6" d="m277.7 631.8 17 26.7M294 630.3l15.5 25.2M257.7 619.2l68.9-2.2"/><path class="st1" d="M323.6 662.9s-32.6 4.4-58.5 4.4-12.6-59.3 2.2-62.3 59.3.7 59.3.7l-3 57.2z"/><path class="st9" d="m309.5 503.6 11.9 183.1c5.9-1 12.9-1.9 21-2.8l-12.2-180.5-20.7.2zM356.8 503.1l7.9 178.6c8.4-.7 17.5-1.3 26.8-1.9l-10.4-176.9-24.3.2z"/><path class="st1" d="M311 521.4h31.9M312.5 539.2h32.6M313.2 564.4h32.7M317 591.8h32.6M317.7 616.2h32.6M319.9 642.9h32.6M322.1 665.1h32.6"/><path class="st7" d="m330.1 503.4 12.2 180.5c6.8-.7 14.3-1.4 22.3-2.1l-7.9-178.6-26.6.2z"/><path class="st12" d="m396 543.7-9.1 50.3s22.1.7 22.1-1.6 6.1-46.5 6.1-46.5l-19.1-2.2z"/><path class="st13" d="m439.5 545.3 6.8 56.4 22.1-3.1-3.8-56.3z"/><path class="st12" d="m495 545.3 10.7 52.6 23.7-5.4-10-48.8z"/><path class="st14" d="M520.2 595.6 508 539.2M459.2 603.2l-7.6-64M398.3 596.4l6.8-56.4"/><circle class="st15" cx="397.5" cy="618.5" r="13.7"/><circle class="st15" cx="463.8" cy="624.5" r="13.7"/><circle class="st15" cx="526.3" cy="616.9" r="13.7"/><path class="st15" d="m379.7 536.8-1.2 13.8 147.1-3-3.5-12.7z"/><path class="st14" d="m390.7 548.3 1.5-13.7M405.9 549.1v-15.3M421.2 548.3l-.8-15.2M435.6 546.8l-.7-13M449.3 548.3v-13.7M464.6 547.6l-.8-13M485.2 546.8l-1.6-14.5M501.2 545.3l-.8-13.7"/><path class="st16" d="m516.4 514.2-135 2-1.7 20.6 142.4-1.9z"/><path class="st13" d="m491.5 483.9-14 .4 2.6 30.4 15.2-.2zM383.8 486.6l-2.4 29.6 34.4-.5v-29.9zM415.8 485.8v29.9l14.5-.3v-30z"/><path class="st13" d="m516.4 514.2-8.4-30.6-16.5.3 3.8 30.6zM430.3 485.4v30l49.8-.7-2.6-30.4z"/><circle class="st14" cx="454.7" cy="500.3" r="8.4"/><circle class="st14" cx="399.8" cy="500.3" r="8.4"/><path class="st16" d="M442.5 598.6c-3 3-3 12.2 3 15.3 6.1 3 26.7 0 30.5-5.3 3.6-5 2.3-13-3-14.5-5.4-1.6-27.5 1.5-30.5 4.5zM382.3 591c-2.3 2.3-3.8 11.4 1.6 13.7 5.3 2.3 25.9 1.6 28.2-1.6 2.2-3.1 3-11.4 0-13.7-3.2-2.2-27.6-.7-29.8 1.6zM502.7 593.3c-1.6 3.8-.7 15.3 5.3 15.3 6.1 0 26.7-5.3 29-9.1 2.3-3.8 1.6-13.7-4.6-15.3-6.1-1.5-28.2 5.3-29.7 9.1z"/></svg>