<svg version="1.1" id="Calque_1" xmlns="http://www.w3.org/2000/svg" x="0" y="0" viewBox="0 0 900 900" style="enable-background:new 0 0 900 900" xml:space="preserve"><style>.st0{fill:#fff}.st1,.st2,.st3,.st4{fill:none;stroke:#ffce00;stroke-width:5.2966;stroke-linecap:round;stroke-linejoin:round;stroke-miterlimit:10}.st2,.st3,.st4{stroke:#000}.st3,.st4{fill:#065600}.st4{fill:#fff}.st5{fill:red}.st5,.st6{stroke:#000;stroke-width:5.2966;stroke-linecap:round;stroke-linejoin:round;stroke-miterlimit:10}.st6,.st7{fill:#ffce00}.st8{fill:#4c4c4c;stroke:#000;stroke-width:5.2966;stroke-linecap:round;stroke-linejoin:round;stroke-miterlimit:10}.st9{fill:red}.st10{fill:#043800;stroke:#000;stroke-width:5.2966;stroke-linecap:round;stroke-linejoin:round;stroke-miterlimit:10}.st12{fill:none}</style><path class="st0" d="m579.5 654-86.3-16.6-1.5 61.7 95.3-3.7c-4.9-23.8-7.5-41.4-7.5-41.4z"/><path class="st1" d="M503.1 702.5v-70.4M512.2 702.5v-70.4M522.8 702.5v-70.4M534.1 702.5v-70.4M545.5 702.5v-70.4M556.1 702.5v-70.4M567.4 702.5v-70.4M578 702.5v-70.4"/><path class="st2" d="m579.5 654-86.3-16.6-1.5 61.7 95.3-3.7c-4.9-23.8-7.5-41.4-7.5-41.4z"/><path class="st3" d="m587.1 695.4-95.3 3.7-.5 22.9 101.5-2c-2.2-8.5-4.1-16.9-5.7-24.6z"/><path class="st4" d="M447.1 734.2c41.6-13.6 47.7-67.3 47.7-67.3l12.1-55.2L462.2 508l-120.3 27.2-59 81.7 19.7 118.8s102.9 12.2 144.5-1.5z"/><path class="st1" d="M344.9 612.4s3 62 15.9 81c12.9 18.9 64.3 18.2 77.9-3.8 12.1-18.2 17.4-101.4 17.4-101.4"/><path class="st1" d="M333.6 621.5s6.1 65.8 20.4 81.7c14.4 15.9 77.2 18.2 91.6-6.1 12.1-21.2 21.9-86.3 21.9-86.3"/><path class="st1" d="M320.7 628.3s7.6 60.5 25.7 81c18.2 20.4 84 21.2 103.7-3.8 16.6-21.9 28.8-85.5 28.8-85.5"/><path class="st1" d="M311.7 636.6s10.6 59 24.2 75.7c13.6 16.6 28.8 18.9 28.8 18.9M422.1 731.2s16.6-.8 35.6-20.4c18.9-19.7 30.3-89.3 30.3-89.3"/><path class="st1" d="M444.8 734.2s15.1-12.1 25.7-27.2 26.5-71.1 26.5-71.1M354.8 602.6s3.8 46.2 6.1 52.2c2.3 6.1 73.4 7.6 75.7 0 2.3-7.6 11.3-79.4 11.3-79.4"/><path class="st1" d="M363.1 589s3.8 48.4 6.8 52.2c3 3.8 53.7 6.1 57.5-2.3 3.8-8.3 9.8-59 9.8-59"/><path class="st1" d="M370.7 576.8s7.6 49.2 12.1 53c4.5 3.8 19.7 1.5 25.7-4.5 6.1-6.1 14.4-46.9 14.4-46.9"/><path class="st1" d="M379 555.7s5.3 45.4 8.3 49.9c3 4.5 15.1 2.3 17.4-.8 2.3-3 6.8-37.1 6.8-37.1"/><path class="st3" d="M353.3 471.7c41.9 1.2 60.2-33.2 65.6-46l-9.6-10.7-87-12.9-24.8 24.4c2.8 12.3 14.3 44 55.8 45.2z"/><path class="st5" d="M355.5 489.1c55-1.3 70.9-38.5 74.7-50.6l-11.3-12.7c-5.4 12.8-23.7 47.2-65.6 46-41.5-1.2-53-32.9-55.8-45.2l-12.3 12c4.2 16 19.3 51.7 70.3 50.5z"/><circle class="st6" cx="296.5" cy="502.7" r="12.1"/><circle class="st6" cx="344.2" cy="516.3" r="12.1"/><circle class="st6" cx="397.2" cy="508" r="12.1"/><circle class="st6" cx="441.8" cy="477.7" r="12.1"/><path class="st3" d="M325.3 589.7c12.1-15.9 16.6-49.2 29.5-69.6 12.9-20.4 64.3-32.5 92.3-18.2 28 14.4 40.9 85.5 67.3 103.7 21.7 14.8 54 12.5 65 11.1-13.8-42.8-22.2-97.2-25.7-105.7-4.5-11.3-13.6-18.9-24.2-25-10.6-6.1-71.9-28-71.9-28l-59-49.9-93.1 8.3-43.1 33.3 15.3 158.8c12.6-1.8 38.6-6.9 47.6-18.8z"/><path class="st5" d="M384.3 528.4c17.4-12.1 49.2-8.3 60.5 4.5 11.3 12.9 15.9 71.1 55.2 95.3 32.6 20.1 74.6 14.1 88 11.5-3.1-7-6-14.8-8.6-23.1-11 1.4-43.4 3.7-65-11.1-26.5-18.2-39.3-89.3-67.3-103.7-28-14.4-79.4-2.3-92.3 18.2-12.9 20.4-17.4 53.7-29.5 69.6-9 11.9-35 16.9-47.5 18.8l2 20.1c13.4-1.1 41.5-4.7 56.1-15.4 19.6-14.3 31-72.6 48.4-84.7z"/><path class="st2" d="M422.1 611.7c9.1-12.9 12.9-29.5 12.9-29.5"/><path class="st4" d="m370.1 548.9 14.1 10.1c1.7-3.9 3.3-7.3 4.8-10.1l-12-12.4c-2.4 3.5-4.7 7.7-6.9 12.4zM363.7 563.4l15.7 6.5c1.7-3.8 3.3-7.5 4.8-10.8L370.1 549c-2.1 4.5-4.3 9.3-6.4 14.4zM404.3 521.5l1.7 16c3.3-.5 6.8-.7 10.4-.6l1.7-15.4c-4.5-.5-9.2-.5-13.8 0zM418.1 521.5l-1.7 15.4c4.2.2 8.4.8 12.3 2.1l6.7-12.9c-5.1-2.3-11.1-3.9-17.3-4.6zM389.3 525.6l7.1 14.3c2.4-1 5.8-1.8 9.5-2.3l-1.7-16c-5.2.5-10.4 1.8-14.9 4z"/><path class="st4" d="M384.3 528.4c-2.6 1.7-5 4.5-7.3 8l11.9 12.4c2.3-4.4 4.2-7.4 6-8.3.5-.2 1-.5 1.5-.7l-7.1-14.3c-1.8 1-3.4 1.9-5 2.9zM357.5 578.1l15.7 5.4c2.2-4.6 4.3-9.2 6.3-13.5l-15.7-6.5c-2.1 4.7-4.2 9.7-6.3 14.6zM335.9 613.2c-3 2.1-6.4 4-10.1 5.6l5 11.7c4.5-2.3 9.2-5.1 13.5-8.2l-7.4-9.7c-.4.1-.7.4-1 .6zM313.5 623l5.8 12.8c3.6-1.5 7.6-3.3 11.4-5.3l-5-11.7c-3.8 1.6-8 3-12.2 4.2z"/><path class="st4" d="m279.7 628.6.9 9.5 17.4 4.5s9.4-2.1 21.3-7l-5.8-12.8c-12.6 3.6-25.8 5.1-33.8 5.8zM336.8 612.5l7.4 9.7c4.8-3.5 9.2-7.5 12.9-12 .2-.3.5-.6.7-.9l-13.1-5.9c-2.5 3.7-5.1 6.8-7.9 9.1zM350.9 592.6 366 597c2.6-4.4 4.9-8.9 7.2-13.5l-15.7-5.4c-2.1 5-4.4 9.9-6.6 14.5z"/><path class="st4" d="m344.6 603.4 13.1 5.9c3-3.7 5.7-7.9 8.2-12.3l-15.1-4.5c-1.9 4-4 7.7-6.2 10.9zM512.2 634.5l-5.2 14.4c5.7 2.2 11.3 3.9 16.6 5.3l2-15.2c-4.4-1.2-9-2.7-13.4-4.5zM538.4 641.5l-.9 15.4c4.8.7 9.5 1.1 13.9 1.2l-.5-15.4c-4.1-.3-8.2-.6-12.5-1.2zM525.7 639l-2 15.2c4.8 1.1 9.3 2 13.8 2.6l.9-15.4c-4.2-.5-8.4-1.4-12.7-2.4zM500.7 628.8l-7.6 13.8c.5.3 1.1.6 1.6.9 4.2 2 8.2 3.9 12.3 5.4l5.2-14.4c-3.9-1.6-7.7-3.6-11.5-5.7z"/><path class="st4" d="m550.8 642.6.5 15.4c5.3.2 10.3.1 14.8-.2l-1.7-15.2c-4.1.2-8.7.2-13.6 0zM444.8 533c-2.3-2.7-5.7-5-9.5-6.8l-6.7 12.9c2.6.9 5.1 2.2 7.1 3.8 6.1 4.8 7 24.7 14.7 46.8l14-7c-9.1-21.6-13.3-42.6-19.6-49.7zM595.4 654c-2.6-4.2-5-8.9-7.3-14.2-2.3.5-5.7 1.1-9.6 1.5l2.7 14.8c6-.8 10.8-1.7 14.2-2.1z"/><path class="st4" d="M578.5 641.4c-4 .5-8.7 1-13.9 1.2l1.7 15.2c5.5-.4 10.6-1 15-1.6l-2.8-14.8zM469.4 593.2l-14.8 7c2 4.3 4.3 8.6 7 12.9l13.8-9.4c-2.1-3.5-4.2-7-6-10.5zM464.4 582.6l-14 7c1.2 3.5 2.6 7 4.2 10.5l14.8-7c-1.8-3.5-3.5-6.9-5-10.5z"/><path class="st4" d="m475.5 603.6-13.8 9.4c2.3 3.6 4.9 7.1 7.9 10.5l12.3-11.2c-2.3-2.8-4.5-5.7-6.4-8.7z"/><path class="st4" d="m481.8 612.3-12.3 11.2c3 3.5 6.4 6.9 10.3 10.1l11.7-11.3c-3.5-3.2-6.7-6.5-9.7-10z"/><path class="st4" d="M500.1 628.3c-3-1.9-5.8-3.9-8.5-6.1l-11.7 11.3c3.9 3.3 8.3 6.3 13.2 9.1l7.6-13.8c-.2-.2-.4-.3-.6-.5zM307 474.1 294.1 487c9.4 9.4 23.2 17.3 43.2 18.8l-.5-18c-12.7-2.4-22.4-7.5-29.8-13.7z"/><path class="st4" d="m296.6 463-13.4 9.6c2.7 4.8 6.3 9.8 10.9 14.5l12.9-12.9c-4.2-3.5-7.6-7.4-10.4-11.2zM355.5 489.1c-6.9.2-13.1-.4-18.8-1.4l.5 18c6.7.5 13.9.3 22-.8 7.6-1 14.5-2.3 20.8-4l-2.6-14.7c-6.3 1.7-13.7 2.7-21.9 2.9zM285.2 438.5 274.6 449s.7 4.8 3.1 11.6l12.9-7.5c-2.7-5.5-4.4-10.6-5.4-14.6z"/><path class="st4" d="m290.6 453.1-12.9 7.5c1.3 3.6 3.1 7.7 5.5 12l13.4-9.6c-2.4-3.4-4.4-6.7-6-9.9zM390.3 482.3l8.1 12.6c5.4-2.3 10.2-4.9 14.4-7.6l-8.8-12.6c-4 2.7-8.6 5.4-13.7 7.6zM422.4 455.3c-2.3 3.6-5.1 7.3-8.6 10.9l11.3 10.8c4.7-4.8 7.9-9.5 10.2-13.7l-12.9-8z"/><path class="st4" d="m440.3 449.7-10.1-11.3c-1.1 3.8-3.5 10.1-7.9 16.9l12.9 8.1c4.4-7.8 5.1-13.7 5.1-13.7zM377.6 486.4l2.6 14.7c6.8-1.7 12.8-3.9 18.2-6.2l-8.1-12.6c-3.9 1.6-8.1 2.9-12.7 4.1zM404 474.6l8.6 12.6c5-3.3 9.1-6.7 12.4-10.1l-11.3-10.8c-2.8 2.8-5.9 5.7-9.7 8.3zM632.5 390c2.3-5.3-2.3-8.3-6.8-7.6-1.1.2-3.1 2-5.5 4.6l9.3 7.9c1.4-2.1 2.5-3.8 3-4.9zM607.5 378.6c.8-3.8-7.6-4.5-8.3-2.3-.2.7-1.4 4.5-3 9.9l9.7 1c.8-4.1 1.4-7.5 1.6-8.6z"/><path class="st6" d="M618.9 427.8c9.7-7.6 18.7-10.8 25.1-12.6l-4.3-10.8c-11.1 4.8-27.6 13.5-27.6 13.5s11.6-14.5 17.4-23l-9.3-7.9c-7.4 8.2-18.7 24.1-18.7 24.1s2.6-14.1 4.4-23.8l-9.7-1c-3.5 11.9-9.3 31.3-12.9 42.3-5.3 15.9-16.6 39.3-24.2 45.4-7.6 6.1-43.1 38.6-43.1 38.6l-23.5 2.3s-51.5 29.5-56.7 28c-.2-.1-.3-.2-.4-.3-11.4-8.7-33-5.7-40.5-2-.2.1-.4.2-.5.3l-.1.1c-.2.2-.4.3-.5.5l-.1.1-.5.5-.1.1c-.2.2-.4.5-.5.7l-.2.2c-.4.5-.8 1.1-1.1 1.7-.1.1-.1.2-.2.2-.2.3-.4.6-.6 1 0 .1-.1.1-.1.2-.2.3-.4.7-.6 1 0 .1-.1.1-.1.2-.2.4-.5.8-.6 1.2-.1.1-.1.2-.2.2-.5.8-.9 1.7-1.4 2.7 0 .1-.1.2-.1.2-.2.5-.5 1-.7 1.4 0 .1-.1.1-.1.2-.2.5-.5 1.1-.8 1.6v.1c-.2.5-.5 1.1-.8 1.7 0 .1-.1.1-.1.2-.5 1.1-1.1 2.3-1.6 3.6 8.1 8.6 30 27.5 45.9 25.2 15.9-2.3 81.7-46.9 81.7-46.9l21.2-22.7 43.1-15.1s8.3-6.8 11.3-6.1c3 .8 17.4 7.6 21.2 5.3 3.8-2.3 4.5-5.3 3-8.3-1.5-3-18.2-4.5-18.9-9.1s18.2-41.6 28-44.6c6.3-2 15.7-.2 22.7.8v-11.8c-7.2-.7-18.2.1-23.6.6z"/><path class="st4" d="M651.4 427.8c-1.1-.8-4.2-1.1-8.3-1.2v11.8c3.9.5 7 .8 8.3 0 3.8-2.3 3-8.3 0-10.6zM653.7 411.9c.8-3-.8-9.8-4.5-10.6-1.1-.2-4.8 1.1-9.5 3.2l4.3 10.8c5.7-1.5 9.3-2 9.7-3.4z"/><path class="st5" d="M492.5 514.8c4.5 2.3 14.4 17.4 20.4 25.7 4.5 0 53-36.3 53-36.3l-14.4-25.7s-59 32.5-59 36.3z"/><circle class="st3" cx="530" cy="496.3" r="11.7"/><circle class="st3" cx="550" cy="483.8" r="11.7"/><circle class="st3" cx="563.6" cy="502.7" r="11.7"/><circle class="st3" cx="542.4" cy="516.3" r="11.7"/><path class="st2" d="M312.4 688.8c9.1 32.5 29.5 42.4 29.5 42.4"/><circle class="st3" cx="398.7" cy="660.8" r="38.6"/><circle class="st5" cx="398.7" cy="662" r="11.7"/><path class="st0" d="M193.6 325.6c-2.3 5.8 3.1 87 9.8 175.4l13.4-1.1-16-181.4c-3.5 2.1-6.1 4.6-7.2 7.1zM208.3 562.5c7.1 89.6 14.1 170.2 14.1 170.2l15.4 5.8-15.6-177.2-13.9 1.2z"/><path class="st2" d="m223.1 720.6 11.4-3M223.1 710.8l11.4-3.1M223.1 700.9l11.4-3M222.4 689.6l11.3-3M220.9 679l11.3-3M220.9 667.6l11.3-3M219.3 656.3l11.4-3M217.1 644.2l11.3-3M216.3 632.8l11.4-3M216.3 620.7l11.4-3M214.8 608.6l11.4-3M214 597.3l11.4-3M213.3 585.9l11.3-3M211 573.1l11.4-3.1M204.2 490.6l11.4-3M204.2 478.5l11.4-3M204.2 466.4l11.4-3.1M201.9 455.8l11.4-3M201.9 443.7l11.4-3.1M201.9 431.6l11.4-3.1M200.4 419.5l11.4-3.1M198.9 407.4l11.4-3.1M198.9 394.5l11.4-3M197.4 381.6l11.4-3M197.4 368l11.4-3M197.4 355.9l11.4-3M195.9 343l11.3-3M195.9 330.9l11.3-3"/><path class="st7" d="M251.9 321.1c-7.9-14.5-36.9-11.1-51-2.6l16 181.5 66.9-5.5c-14.1-86.6-27.6-165.5-31.9-173.4zM320.7 732s-12.7-84.4-27.3-176.9l-71.2 6.3 15.6 177.2 26.9 10.1 56-16.7z"/><circle cx="226.2" cy="327.2" r="6.8"/><circle cx="246.6" cy="353.6" r="6.8"/><circle cx="213.3" cy="357.4" r="6.8"/><circle cx="218.6" cy="397.5" r="6.8"/><circle cx="251.9" cy="394.5" r="6.8"/><circle cx="258.7" cy="434.6" r="6.8"/><circle cx="226.2" cy="439.9" r="6.8"/><circle cx="229.2" cy="483" r="6.8"/><circle cx="239.8" cy="579.9" r="6.8"/><circle cx="279.9" cy="573.1" r="6.8"/><circle cx="246.6" cy="618.5" r="6.8"/><circle cx="282.1" cy="613.9" r="6.8"/><circle cx="289" cy="658.6" r="6.8"/><circle cx="251.1" cy="709.3" r="6.8"/><circle cx="248.1" cy="660.8" r="6.8"/><circle cx="295.8" cy="707.7" r="6.8"/><path class="st5" d="m283.7 494.4-80.3 6.7c.8 10.7 1.7 21.6 2.5 32.4l82.6-9.3c-1.6-10-3.2-19.9-4.8-29.8zM288.5 524.2l-82.6 9.3c.8 9.8 1.5 19.5 2.3 29.1l85.2-7.5c-1.6-10.3-3.2-20.6-4.9-30.9z"/><path class="st2" d="M320.7 732s-59-392.7-68.9-410.9c-9.8-18.2-53-8.3-58.3 4.5-5.3 12.9 28.8 407.1 28.8 407.1l42.4 15.9 56-16.6z"/><path class="st4" d="M466.8 390.7s0 9.1 3 10.6 30.3 0 32.5-1.5c2.3-1.5-1.5-11.3-1.5-11.3l-34 2.2z"/><path class="st2" d="m480.4 399-1.5-11.3M491 399l-1.5-12.1"/><path class="st8" d="M323 420.2s-22.7 102.1-22.7 108.2c0 6.1 8.3 12.9 10.6 7.6s23.5-87.8 23.5-87.8L345 455s9.1 70.4 11.3 74.2c2.3 3.8 12.9 3 15.9-1.5s-9.8-56.7-9.8-56.7l-15.1-57.5-24.3 6.7z"/><path class="st2" d="m304.8 533.7 28-115.8M364.6 528.4l-9.1-52.9"/><path class="st3" d="m520.5 353.6-3 14.4s15.5.6 31 1.1v-16.2c-14.3.2-28 .7-28 .7z"/><path class="st5" d="M548.5 353v16.2c5.2.2 10.5.3 15.1.5V353c-4.7-.2-10-.1-15.1 0z"/><path class="st4" d="M580.3 354.4c-.8-1-7.7-1.4-16.6-1.5v16.6c8.5.2 14.9.2 15.9 0 2.9-.7 2.9-12.1.7-15.1z"/><path class="st6" d="M360.8 443.7c20.4 0 31.8-16.6 31.8-16.6s57.5 29.5 65.1 31 18.2-4.5 19.7-9.1-1.5-18.9.8-20.4 15.1.8 15.9-2.3c.8-3 3-10.6-1.5-12.1s-28.8 1.5-31.8-1.5-3-18.9 6.1-20.4 31.8 0 34.8-.8c3-.8 3-3.8 3-7.6s-7.6-6.8-6.8-11.3c4.5-.8 25.7-3 27.2-9.1s-2.3-14.4-9.1-20.4c-6.8-6.1-34-19.7-35.6-23.5-1.5-3.8-1.5-10.6-3.8-15.9-2.3-5.3-12.9-25.7-12.9-25.7l-58.3 5.3-45.4 18.9-9.8 45.4-6.8 59s-3 37.1 17.4 37.1z"/><path class="st4" d="M419.9 366.5c-4.5 1.5-3.8 15.1 3.8 15.1 1.8 0 6.4-.5 12.3-1.4l-2.3-15.7c-7.2.9-12.6 1.6-13.8 2z"/><path class="st5" d="M449.9 363.1c-5.7.5-11.4 1.1-16.3 1.6l2.3 15.7c4.8-.7 10.4-1.5 16-2.3l-2-15z"/><path class="st3" d="m485.7 372.6-6.1-12.1s-14.8 1.2-29.7 2.6l2 14.9c16.5-2.5 33.8-5.4 33.8-5.4z"/><path class="st8" d="M353.3 358.9s15.1-10.6 18.9-15.9c3.8-5.3 0-28.8 0-33.3 0-4.5 46.9-25 102.1-32.5-1.5-3.8-6.1-19.7-6.1-19.7l-141.5 34.8 3 67.3-24.2 38.6s-49.9 36.3-58.3 50.7-6.1 40.1 9.8 48.4c-1.5-13.6 2.3-32.5 11.3-40.9s49.2-30.3 54.5-36.3c5.5-5.9 30.5-61.2 30.5-61.2z"/><path class="st2" d="m463.7 278-8.3-25M453.2 279.5l-7.6-26.5M444.1 281.8l-9.1-27.3M434.2 284.8l-9-28.8M422.9 287.8l-9.1-28M412.3 290.1l-8.3-28M400.9 294.6l-9-28.7M390.3 299.2l-9-30.3M380.9 303.2l-8.7-29M372.2 309.7l-7.6-31M348 355.9s10.6-10.6 14.4-19.7c3.8-9.1-7.6-53.7-7.6-53.7M335.9 285.5s6.8 51.5 2.3 69.6"/><path class="st2" d="M345.3 352.1s5.7-13.6 5.7-22.7-7.6-46.9-7.6-46.9M309.4 406.6s-50.7 30.3-58.3 50.7c-7.6 20.4 6.1 40.1 6.1 40.1"/><path class="st2" d="M320 412.7s-50.5 25.7-61.3 44.6c-12.9 22.7-1.5 40.1-1.5 40.1"/><path class="st9" d="M427.5 331.7c-1.7 3.3-4.9 8.3-8.4 9.8 7.6.8 15.9 6.1 15.9 6.1l-.1-.2c2.5 1.7 5.4 2.9 8.6 3.2l-8-32.6c-4.6 2.9-7.7 7.9-8 13.7z"/><path class="st0" d="M445.2 315c-3.6 0-6.9 1.1-9.7 2.9l8 32.6c.5.1 1.1.1 1.7.1 9.8 0 17.8-7.9 17.8-17.8 0-9.7-8-17.8-17.8-17.8z"/><path class="st2" d="M445.2 315c-9.5 0-17.2 7.3-17.7 16.6-1.7 3.3-4.9 8.3-8.4 9.8 7.6.8 15.9 6.1 15.9 6.1l-.1-.2c2.9 2 6.4 3.3 10.3 3.3 9.8 0 17.8-7.9 17.8-17.8 0-9.7-8-17.8-17.8-17.8z"/><circle class="st4" cx="444.1" cy="334" r="6.1"/><path class="st5" d="m327.5 302.9 109-38.6-7.6-20.4-15.9 1.5-94.5 15.9z"/><circle class="st3" cx="318.5" cy="293.1" r="20.4"/><circle class="st2" cx="318.5" cy="293.1" r="6.1"/><circle class="st3" cx="381.3" cy="270.4" r="20.4"/><circle class="st2" cx="381.3" cy="270.4" r="6.1"/><path class="st10" d="M289 188.7s-14.4-20.4-28-26.5c-13.6-6.1-62.8-15.1-67.3-18.9-4.5-3.8-2.3-10.6 1.5-10.6s51.5 8.3 68.9 15.1c17.4 6.8 25 2.3 25 2.3l15.9 33.3-16 5.3z"/><path class="st10" d="M199.7 107.7c2.3 4.5 83.2 43.9 99.9 71.9 9.1-.8 15.1.8 14.4-4.5-20.4-38.6-102.1-76.4-106.7-76.4s-9.9 4.5-7.6 9z"/><path class="st10" d="M223.9 79c1.5 6.1 69.6 62.8 90 96.1 20.4 33.3 21.9 24.2 11.3-8.3-4.5-25-87.8-92.3-91.6-96.1s-11.2 2.2-9.7 8.3z"/><path class="st10" d="M253.4 57.8c2.3 5.3 61.3 96.1 68.1 112.7 6.8 16.6 33.3 28.8 16.6-3C321.5 135.7 268.5 54 264 51c-4.6-3.1-12.9 1.5-10.6 6.8z"/><path class="st10" d="M326 174.3s-14.4-43.1-10.6-49.9c3.8-6.8 16.6-9.8 23.5-6.8 6.8 3 9.1 11.3 6.8 18.2-2.3 6.8-9.1 6.1-13.6 5.3 0 9.8 6.1 26.5 6.1 26.5l-4.5 13.6-7.7-6.9z"/><path class="st2" d="M334.4 127.4c-11.3 0-9.1 10.6-2.3 13.6"/><path class="st6" d="M354.8 211.4s-.8-37.1-1.5-43.9c-.8-6.8-18.9-5.3-21.9 1.5-3.8-6.1-17.4-2.3-17.4 6.1-7.6-6.1-21.9.8-21.2 8.3-6.8-3-18.2 5.3-15.1 12.9 3 7.6 20.4 25 20.4 25l33.3.8 23.4-10.7z"/><path class="st2" d="m309.4 215.2-16.7-31.8M324.5 209.1l-10.6-34M340.4 206.1l-9.1-37.1"/><path class="st3" d="M305.6 243.9S295 231 298 221.2c3-9.8 44.6-20.4 55.2-16.6 10.6 3.8 10.6 20.4 10.6 20.4l-58.2 18.9z"/><path class="st3" d="M318.8 235c-9.2 2.7-18.1 5.4-26.1 7.6l12.2 38.2c8.6-2.7 18.2-5.8 28-9l-11.6-37.6c-.9.3-1.7.6-2.5.8z"/><path class="st4" d="M260.2 253c-4.5 4.5-.8 14.4 6.1 18.9-3.8 5.3 0 18.9 7.6 18.2 1.4-.2 7.1-1.7 15.5-4.3L278.1 247c-10.2 2.9-16.9 5.1-17.9 6z"/><path class="st5" d="m278.1 246.9 11.3 38.8c4.5-1.4 9.8-3 15.6-4.9l-12.2-38.2c-5.5 1.6-10.4 3.1-14.7 4.3zM321.3 234.2l11.6 37.6 18.3-6-10.8-37.4c-6.3 2.1-12.8 3.9-19.1 5.8z"/><path class="st3" d="m340.3 228.5 10.8 37.4c10.1-3.3 20.1-6.6 28.9-9.5l-10.9-36.5c-8.7 2.5-18.6 5.6-28.8 8.6z"/><path class="st5" d="m369.2 219.8 10.9 36.6c5.4-1.8 10.5-3.5 14.9-4.9l-10.1-36.3c-4.6 1.3-10 2.8-15.7 4.6z"/><path class="st4" d="M407.8 228.8c2.3-6.1 0-17.4-5.3-18.2-1.1-.2-7.7 1.6-17.6 4.5l10.1 36.3c10.1-3.4 17-5.7 18-6 4.6-1.5.8-15.1-5.2-16.6z"/><path class="st2" d="m266.3 271.9 141.5-43.1"/><path class="st3" d="M436.5 229.5s-18.9-18.2-22.7-22.7c-3.8-4.5 6.8-9.8 13.6-8.3 0-7.6 9.8-10.6 16.6-7.6 2.3-6.1 14.4-8.3 17.4-4.5 3 3.8 6.8 21.9 6.8 21.9l-2.3 18.9-29.4 2.3z"/><path class="st2" d="m427.4 198.5 16.7 23.5M444.1 191l9.8 25.7"/><ellipse class="st3" cx="436.1" cy="254.9" rx="16.3" ry="15.5"/><path class="st9" d="m475.1 220.5 4.5 15.9s10.8-1.2 18.8-2.7l-6.1-19.4c-7.7 2.4-17.2 6.2-17.2 6.2z"/><path class="st0" d="M504.6 222s.8-9.1-3-9.8c-1.4-.3-5 .7-9.2 2l6.1 19.4c4.5-.8 8.2-1.7 8.4-2.6 1.5-5.2-2.3-9-2.3-9z"/><path class="st2" d="M475.1 220.5s22.7-9.1 26.5-8.3c3.8.8 3 9.8 3 9.8s3.8 3.8 2.3 9.1c-.7 2.3-27.2 5.3-27.2 5.3l-4.6-15.9zM504.6 222l-22.7 6"/><path class="st6" d="M446.3 247.7c-7.6 4.5-3.8 18.2 5.3 19.7s28-7.6 35.6-7.6c-3 5.3-2.3 12.9 6.8 13.6 9.1.8 13.6-6.8 13.6-13.6s-2.3-11.3-7.6-12.9c-5.3-1.5-15.9-.8-15.9-.8s5.3-12.9-1.5-22.7c-6.8-9.8-9.1-14.4-9.1-21.9 3.8 3.8 13.6 2.3 16.6-1.5s1.5-15.9-1.5-18.2c-3-2.3-11.3-6.1-18.9-2.3-7.6 3.8-12.1 11.3-11.3 21.2.8 9.8 9.8 21.2 9.8 21.2s-14.3 21.3-21.9 25.8z"/><path class="st2" d="M463 253.8s20.4-5.3 21.2-7.6M487.2 259.8c3.8-4.5 9.1-3 12.1 1.5M473.6 201.5c-3-3.8-1.5-9.8 4.5-9.8"/><ellipse transform="rotate(-112.03 452.24 231.965)" class="st3" cx="452.2" cy="232" rx="15.4" ry="18.6"/><circle class="st4" cx="456.2" cy="237.9" r="9.8"/><circle cx="456.2" cy="238.2" r="3.7" style="fill:none;stroke:#000;stroke-width:3.0266;stroke-linecap:round;stroke-linejoin:round;stroke-miterlimit:10"/><path class="st6" d="M497.8 372.6c-6.1.8-13.6 3-18.2 2.3-4.5-.8-5.3-7.6-3.8-12.9s18.2-10.6 18.2-10.6"/><circle class="st3" cx="342.7" cy="391.8" r="38.2"/><path class="st4" d="M335.9 455.8c-2.3 5.3-7.6 21.9-1.5 31s33.3 5.3 33.3-9.1c0-14.4-10.6-27.2-10.6-27.2l-13.6-2.3c-.1 0-5.4 2.3-7.6 7.6z"/><path class="st2" d="M341.9 440.6s-.8 38.6 6.8 38.6.8-40.1.8-40.1"/><path class="st4" d="M363.1 439.9c-15.1 6.8-34.8 2.3-34.8 2.3s-3.8 11.3-2.3 13.6 7.6 2.3 9.8 0c1.5 2.3 6.1 2.3 9.1-.8 3.8 2.3 6.8 1.5 9.8-1.5 6.1 1.5 10.6 0 12.1-2.3 1.6-2.2-3.7-11.3-3.7-11.3z"/><path class="st2" d="m335.9 455.8.7-15.9M344.9 455l-1.5-14.4M354.8 453.5l-3-13.6"/><path class="st3" d="m358.1 422.8-7.9-26.8-16.6 2.3-3.3 27.2c10.5.9 20.5-.8 27.8-2.7z"/><path class="st5" d="m330.3 425.5-2 16.7s19.7 4.5 34.8-2.3l-5-17.2c-7.3 2-17.3 3.7-27.8 2.8z"/><circle class="st3" cx="342.7" cy="391.8" r="10.2"/><path class="st5" d="M213.3 728.9H494V850H213.3z"/><path class="st10" d="M230.7 748.6h243.6v84H230.7z"/><path class="st12" d="M298 745.6s1.7 1.1 4.2 3h109.3c3.2-2.3 5.2-3.8 5.2-3.8l-118.7.8z"/><path class="st3" d="M330.6 785.7c5.3.8 8.3-9.8 6.1-12.1-1.8-1.8-24.7-18.1-34.4-25h-43c9.6 5.3 66.4 36.4 71.3 37.1zM411.6 748.6c-10.3 7.5-32.4 23.6-34.1 26.5-2.3 3.8 4.5 11.3 9.8 9.8 4.4-1.3 44.9-27.3 58.9-36.3h-34.6z"/><path class="st12" d="M414.6 834.9s-1.4-.8-3.7-2.3H295.6c-3.6 2.3-5.9 3.8-5.9 3.8l124.9-1.5z"/><path class="st3" d="M331.3 807.6c2.3-3.8-1.5-10.6-4.5-11.3-2.6-.7-51.5 28-65.8 36.3h34.6c11.1-7.1 34-22.1 35.7-25zM387.3 798.5c-5.3-.8-14.4 6.1-12.1 9.8 1.8 3 26.3 18.4 35.6 24.2h33.5c-7.7-4.9-52.1-33.2-57-34z"/><path class="st5" d="m592.7 720.1-101.5 2-.5 21.2 107.6-1.9c-2.1-7.2-3.9-14.4-5.6-21.3zM628.7 769.8l80.2 12.9-10.6 28-71.9-19.7z"/><path class="st5" d="M630.2 781.9s2.3-12.1.8-15.9c-1.5-3.8-27.2-.8-27.2-.8l-5.3 12.1 31.7 4.6z"/><path class="st5" d="M603.7 759.2c3.8 3 1.5 17.4 1.5 17.4l-56-6.1 3-16.6c.1 0 47.7 2.3 51.5 5.3z"/><path class="st6" d="M644.6 787.2c15.1-.8 51.5 13.6 55.2 18.9 3.8 5.3 6.1 9.8 5.3 13.6s-9.1 6.1-15.1 1.5c-3.8 4.5-13.6 5.3-17.4 1.5-3 2.3-12.1 5.3-17.4.8-6.8 3-10.6 0-10.6 0l-22.7-15.9s7.6-19.6 22.7-20.4z"/><path class="st2" d="M675.6 807.6s11.3 7.6 14.4 13.6M657.4 806.9s12.1 9.8 15.1 15.9M646.1 811.4s6.1 6.1 9.1 12.1"/><path class="st5" d="M640 811.4c0-2.3 8.3-30.3 8.3-30.3l-84-13.6-9.1 19.7 84.8 24.2z"/><path class="st5" d="M549.2 759.2s17.4 3.8 18.9 9.1-3 14.4-3 14.4l-27.2-.8-8.3-13.6 8.3-12.9 11.3 3.8z"/><path class="st6" d="M543.9 776.6c18.9 2.3 88.5 23.5 94.6 29.5 6.1 6.1 6.8 13.6 6.1 17.4-.8 3.8-14.4 2.3-15.9-.8-5.3 3-16.6 3.8-20.4.8-4.5 2.3-17.4 3.8-19.7.8-5.3 3-15.1 3-18.2 0-6.1 2.3-15.1 3-18.9 0-3.8-3-32.5-5.3-32.5-5.3l-4.5-18.2 7.6-25 15.9-5.3c-.1.1-13 3.8 5.9 6.1z"/><path class="st2" d="M612 806.1s13.6 10.6 16.6 16.6M593.1 807.6s12.1 9.8 15.1 15.9M571.9 806.1s13.6 12.1 16.6 18.2M553.8 806.1s13.6 12.1 16.6 18.2"/><path class="st3" d="m529.6 774.3-.8 41.6-40.9-2.3s1.5-33.3 4.5-37.8c3.1-4.5 37.2-1.5 37.2-1.5z"/><path class="st5" d="M489.5 778.1c1.5 2.3 52.2 0 54.5-1.5s3-12.9-1.5-15.1c-4.5-2.3-49.2-1.5-52.2.8-3.1 2.2-2.3 13.5-.8 15.8z"/><path class="st4" d="M488 825s-2.3-9.1 0-11.3c2.3-2.3 53.7-1.5 53.7-1.5 3 2.3 9.8 12.1 9.8 12.1l-63.5.7zM503.1 743v18.9l13.6-.4v-18.7zM516.7 742.8v18.7l12.1-.3v-18.6z"/><path class="st4" d="M528.8 742.6v18.6l13.6-.3v-18.6zM490.7 743.2l-.5 19 12.9-.3V743zM542.4 742.3v18.6l12.9-.3v-18.5zM578.8 741.6v18.3l12.1-.3v-18.2zM598.3 741.3l-7.4.2v18.2l12.9-.4c-2-5.9-3.9-12-5.5-18zM567.4 741.9v18.3l11.4-.3v-18.3zM555.3 742.1v18.5l12.1-.4v-18.3z"/></svg>