<svg version="1.1" id="Calque_1" xmlns="http://www.w3.org/2000/svg" x="0" y="0" viewBox="0 0 900 900" style="enable-background:new 0 0 900 900" xml:space="preserve"><style>.st0,.st1,.st2,.st3,.st4,.st5{fill:red;stroke:#000;stroke-width:3.2362;stroke-linecap:round;stroke-linejoin:round;stroke-miterlimit:10}.st1,.st2,.st3,.st4,.st5{fill:#149188}.st2,.st3,.st4,.st5{fill:#ffce00}.st3,.st4,.st5{fill:#3f7a00}.st4,.st5{fill:#fff}.st5{fill:none}.st6{fill:#fff}.st7{fill:red}</style><path class="st0" d="M242.4 475.2c2.3 70.9 5.3 130.8 5.3 130.8s8.5 4 10.5-.8c.8-2 4.3-60.8 7-130h-22.8 0z"/><path class="st1" d="M267.2 416.8h-26.3c.4 19.7 1 39.4 1.5 58.5h22.8c.7-19.1 1.4-38.8 2-58.5z"/><path class="st2" d="M655.3 735.2s-16.2-6.7-23.1-2.8-7 17.2 1.9 20.5 27.2-.4 27.2-.4l-6-17.3z"/><path class="st0" d="m662.3 726.2 2.8 21c4.8-1.6 9.8-3.4 14.7-5.3l-3.5-15.9c-5.3.3-10.1.2-14 .2z"/><path class="st3" d="M710.8 717.4c-9.9 6-23.1 8.4-34.5 8.7l3.5 15.9c10.7-4.1 21-8.8 27.8-13.7 2.3-1.7 4.9-4.4 7.4-7.7-1.2-.9-2.6-1.9-4.2-3.2z"/><path class="st4" d="m663.1 732.2-11.1 1.4c.2 2.8.6 6.1 1.1 9.1l11.1-2.1-1.1-8.4zM662.3 726.2c-5.3 0-9.1.1-9.8 1.1-.7 1-.7 2.8-.5 6.2l11.1-1.4-.8-5.9zM653.2 742.7c.5 3 1 5.9 1.4 8.1 3.2-1.1 6.8-2.3 10.5-3.5l-.8-6.6-11.1 2z"/><path class="st1" d="M665 575.6s-45.9-20.6-44.6-1.1c.8 11.7 2.8 20.6 6 28.3l46.4-16.7c-4.8-6.4-7.8-10.5-7.8-10.5z"/><path class="st4" d="M672.1 768c-21.7-.5-34-.3-39.6-.2-.2 1.5-.2 3.1-.2 4.4 0 4.9 10.9 7.3 13.8.8.4 7.7 12.1 7.7 15.4 0-.8 8.1 10.5 8.9 12.9 1.6 2 7.3 11.7 6.1 14.6 0 .1 8.1 10.8 5.7 13.5 1.6.2-.2.3-.4.4-.6-2.9-2.8-10.6-7.1-30.8-7.6z"/><path class="st1" d="m710 770.4 38.5-1.6-6.4-49.8s-16.2-50.6-35.2-81.8c-6-9.9-12.4-19.7-18.4-28.4L640 628.5c5 6.5 10.1 12.9 19.9 24.6 27.8 33.1 59.5 66.7 47.7 75.2-19.3 13.9-66.3 25.9-70.4 29.1-2.9 2.3-4.1 6.6-4.6 10.5 5.6-.2 18-.3 39.6.2 20.2.4 27.8 4.8 30.7 7.8 2.7-3.8 7.1-5.5 7.1-5.5z"/><path class="st2" d="M640 628.5s.6 18 4.5 21.8 14.1 2.7 16.8-5.1c2.8-7.8-8.3-25.1-8.3-25.1l19.7-6.7s7.4 19.2 15 22.1c7.7 3 16.1-3.5 14.6-11.6-1.5-8.1-13.9-15.2-13.9-15.2l-25.4-3.4-21.8 9.1-1.2 14.1z"/><path class="st3" d="m672.7 586.2-46.4 16.7c3.7 9.1 6.6 16.6 13.6 25.6l48.5-19.7c-5.9-9-11.5-16.8-15.7-22.6z"/><path class="st5" d="M688.9 774.8c-.4-9.1 10.9-11.9 10.9-11.9M687.3 761.3s-16.2 5-12.9 13.5M661.4 773.2c-.3-8.5 12.1-14.2 12.1-14.2M655.3 759.8s-10.9 6.4-9.3 13.3"/><path class="st3" d="M722.1 731.5c-1.6 1.2-2.4 34.6-2.4 34.6h37.7l-8.8-37.2-26.5 2.6z"/><path class="st3" d="M709.1 717.4c-6.5 2.6-4.9 10.4-2.1 13.7s34.5 2.9 41.5 1.3c7-1.6 4.6-15.6-1.4-15.6-5.9-.1-31.5-2-38 .6z"/><path class="st4" d="M710.4 763.1c-3.2 2-4.6 7.9-2.6 9.2 3.8 2.5 48.2.9 51.9.9 3.6 0 1.9-11.7-3-11.9-4.9-.2-43.1-.2-46.3 1.8z"/><path class="st2" d="M442.3 736s-17-2.3-23.9 1.6c-6.9 3.9-8.1 15.8.8 19 8.9 3.2 29.1-3.4 29.1-3.4l-6-17.2z"/><path class="st0" d="m449.3 727.8 2.8 21.8c4.8-1.6 9.8-3.4 14.7-5.3l-3.5-16.7c-5.4.3-10.1.2-14 .2z"/><path class="st3" d="M498.5 719.8c-9.9 6-23.9 7.6-35.4 7.9l3.5 16.7c10.7-4.1 21-8.8 27.8-13.7 2.3-1.7 4.9-4.4 7.4-7.7-1.2-.9-1.6-1.9-3.3-3.2z"/><path class="st4" d="M450.1 734.6 439 736c.2 2.8.6 6.1 1.1 9.1l11.1-2.1-1.1-8.4zM449.3 727.8c-5.3 0-9.1.1-9.8 1.1-.7 1-.7 3.6-.5 7l11.1-1.4-.8-6.7z"/><path class="st4" d="M440 745.1c.5 3 1 5.9 1.4 8.1 3.2-1.1 6.8-2.3 10.5-3.5l-.8-6.6-11.1 2z"/><path class="st1" d="M590.8 567.9s-46.3 5-44.1 24.4c2.2 19.4-29.1 120.1-52.2 136.7-19.3 13.9-64.2 26.7-68.2 29.9-2.7 2.2-4.9 5.5-6.1 9 8.5 0 23.1.2 37.5 1.1 14.2 1 28.6 2 32 7.8 2.7-3.9 5.3-1.4 5.3-1.4l40.6-6.1 1.9-48 56.7-83.9-3.4-69.5z"/><path class="st4" d="M457.7 769.2c-14.3-1-29-1.1-37.5-1.1-.6 1.8-1 3.6-1 5.2 0 4.9 10.9 7.3 13.8.8.4 7.7 12.1 7.7 15.4 0-.8 8.1 10.5 8.9 12.9 1.6 2 7.3 11.7 6.1 14.6 0 3.5 7.9 10.8 5.7 13.5 1.6l.2-.2c-3.4-5.9-17.8-7-31.9-7.9z"/><path class="st2" d="m544.9 616.6-7.6 7.3s-8.3 11.6-8.3 17.6c0 5.9 14.3 7.7 18.6 3.2 4.3-4.4 5.4-23.2 5.4-23.2l17.8 1.4s-3.8 21.9-.4 26.6 17.6.8 17.6.8v-28.2l-26.4-13.3-16.7 7.8z"/><path class="st3" d="m544.3 592.3-7 31.6 53.2 3-2.6-32.2zM509.1 732.3c-1.6 1.2-2.4 34.6-2.4 34.6h33.6l-3.4-31.8-27.8-2.8z"/><path class="st3" d="M497.7 719c-6.5 2.6-4.9 12.1-2 15.4s34.1 2.4 41.1.8c7-1.6 7-13.1.6-14.4-6-1.2-33.2-4.4-39.7-1.8z"/><path class="st4" d="M499.8 764.7c-3.2 2-6.5 12.1-4 12.1h45.7c3.6 0 3.2-11.9-1.6-12.1-4.9-.2-36.9-2-40.1 0z"/><path class="st5" d="M475.9 775.6c-2.8-6.7 10.9-11.9 10.9-11.9M474.3 762.1s-16.2 5-12.9 13.5M448.4 774c-.3-8.5 12.1-14.2 12.1-14.2M442.3 762.9s-10.9 4-9.3 11.1"/><path class="st2" d="m630.3 635.5-45.6.2c0 5.2-.1 10.4-.1 15.7l47.7-1.2c-.8-4.8-1.5-9.8-2-14.7z"/><path class="st0" d="M626.5 586.5c0-45.9-4.9-25.8-4.9-25.8l-24.3-7.1-13 16.4s.5 30.7.3 65.8l45.6-.2c-2.2-18-3.7-35.5-3.7-49.1z"/><path class="st4" d="M634.7 667.6h-50.5c-.1 2.8-.1 5.6-.2 8.3h52c-.4-2.7-.8-5.5-1.3-8.3zM636.1 675.9h-51.9c-.5 20-1.3 38-2.8 48.9 30.5.5 63-2.1 63-2.1s-4.1-20.5-8.3-46.8z"/><path class="st1" d="m632.2 650.3-47.7 1.2c-.1 5.4-.2 10.8-.2 16.2h50.5c-.9-5.7-1.8-11.6-2.6-17.4z"/><path class="st5" d="m591.6 692.6-1.1 32.1M601.5 692.6v32.1M614.8 692.6l-.1 31.8M626.1 691.9l2.8 31.8"/><path class="st4" d="M568.5 543.7c7.1-8.7 7.4-34.3 7.1-46l-40.3-3.5s-.4 29.8-.1 56.9c9.9.6 26.9.4 33.3-7.4z"/><path class="st4" d="M574.2 550.4c16.3-15.1 14.4-40.9 12.7-51.7l-11.2-1c.2 11.7 0 37.4-7.1 46-6.5 7.8-23.5 8-33.3 7.4.1 3.7.1 7.4.2 11 8.9 1.3 24.7 1.2 38.7-11.7z"/><path class="st4" d="m594.8 499.3-7.9-.6c1.7 10.8 3.6 36.6-12.7 51.7-14 12.9-29.7 13.1-38.8 11.7.4 17.4 1.1 31.6 2.7 32.4 4.1 2 42.2-5.7 58.7-30 16.6-24.6-2-65.2-2-65.2z"/><path class="st5" d="m541.9 582.2 3.6 12.4M552.9 577.8l5.6 13M563.9 572.6l5.7 13.1M573.8 568.9l6.2 11.3M583.2 560.7l6.6 11.9"/><path class="st1" d="M477.5 456.5c.8.8 8.5 11.3 8.5 11.3l55.3 27.5H611l-5-59.4-44.6-103.4-11.7-24.9-99.1 64.1L469 420l8.5 36.5z"/><circle class="st2" cx="369.3" cy="544" r="44.7"/><circle class="st0" cx="369.3" cy="544" r="21"/><path class="st5" d="m344.3 565-6.6 9.2M388.2 504.3l-5.4 7.5M350.6 569.7l-7.6 10.5M394.9 507.4l-5.7 8.1M370.1 575.4l2.3 13.3M357.3 502l1.6 9M378.2 574.2l2.5 13.1M364 500.1l1.9 9.7M334.9 542.5l-10.3 1.5M411.7 531.7l-10.5 1.4M335.9 550.4l-10.7 1.5M412.9 539.2l-9.5 1.4M404.8 571.2l-10.1-6.7M409.1 564.3l-9.9-6.2"/><path class="st4" d="M367.5 534.8c-3.6-2.8-89.2-60.8-133.4-90.7l-11.3 16.7c40 22.9 103.8 63.8 139.1 82.4 7.6 4.2 10.4-4.6 5.6-8.4zM208.1 426.5s-9.3 13.3-10.5 21c3.1 1.4 6.6 3.2 10.8 5.3l10.8-18.9c-7-4.6-11.1-7.4-11.1-7.4z"/><path class="st4" d="M234.1 444.1c-5.7-3.9-10.8-7.3-14.9-10L208.4 453c4.3 2.3 9.1 4.9 14.4 7.9l11.3-16.8z"/><path class="st5" d="m200.1 440.4 9 4.3M204.6 433.2l7.9 5.5"/><path class="st2" d="m486.2 406.8-30.2 10s-27.2 43.9-40.4 53.9l26.5 24.6c17.8-11.7 29.7-31.1 29.7-31.1l27.3-20.2-12.9-37.2zM299.1 471c-7.7-2-33.2-20.2-38.4-23.5-5.3-3.2-13.9-.6-10.5 5.7 3.4 6.2 19.1 13.5 18.7 15.9-.4 2.3-15.7 3-21.1.8-5.4-2.2-16.2-9-19.4-8.6-3.2.4-2.7 7.8 0 11.3 2.7 3.5 10.4 5.2 12.9 8.5 2.6 3.3 1.2 9.7 9.7 12.5 8.5 2.8 34.8-1.6 48.1-1.1 3.2 0 10.1.7 19.3 1.8l.9-21.6c-10.6-.5-18.2-1.2-20.2-1.7z"/><path class="st1" d="M415.7 470.7c-.9.6-1.7 1.2-2.5 1.5-8.7 3.9-63.3 2.4-93.9.6l-.9 21.6c34.8 4 101.9 12.7 118.4 4 1.9-1 3.6-2 5.4-3.2l-26.5-24.5z"/><path class="st4" d="M333.1 471.8s21.5-3.5 23.1-.5c1.6 3 1.2 9.7-1.6 10.5-2.8.8-19 0-19 0l-.4 9.3s17-.2 19.4.6.8 11.7-2.8 12.5-16.6-4.9-16.6-4.9L324.7 488l8.4-16.2z"/><path class="st3" d="M299.1 471c-2 2.4-2.8 20.6 0 21.6s33.6 6.7 36 6.7 4-28.9.8-29.1c-3.2-.2-34.8-1.6-36.8.8z"/><path class="st0" d="M403.4 468c0-4.9 4-9.4 8.3-9.4s12.4 12.9 20.8 20.1c8.3 7.3 26.7 16.7 26.9 19.7s-8.1 11.6-11.6 10.6-12.1-18-19.7-25.4c-7.5-7.3-24.7-10.7-24.7-15.6z"/><path class="st5" d="M462.5 423.4c-7.4 8.1 0 25.2 0 25.2"/><circle class="st0" cx="431.1" cy="483.1" r="7.8"/><circle class="st3" cx="215.7" cy="186" r="23.4"/><path class="st1" d="M210.9 187.9c-.4-3.9-2.8-25.2-2.8-25.2l14.2-1.9s1.2 26 0 28.3c-1.3 2.2-11 2.7-11.4-1.2z"/><circle class="st4" cx="213.3" cy="133" r="13.9"/><circle class="st5" cx="213.3" cy="133" r="4.9"/><circle class="st3" cx="142" cy="241.3" r="23.4"/><path class="st1" d="M143.9 246.1c-3.9.4-25.2 2.8-25.2 2.8l-1.9-14.2s26-1.2 28.3 0c2.2 1.3 2.6 11-1.2 11.4z"/><circle class="st4" cx="88.9" cy="243.7" r="13.9"/><circle class="st5" cx="88.9" cy="243.7" r="4.9"/><circle class="st3" cx="291.4" cy="249.7" r="23.4"/><path class="st1" d="M289.2 254.3c3.8.7 25 4.7 25 4.7l3-14s-25.8-3.2-28.2-2.1c-2.5 1.1-3.6 10.7.2 11.4z"/><circle class="st4" cx="344.2" cy="256" r="13.9"/><circle class="st5" cx="344.2" cy="256" r="4.9"/><path class="st4" d="M198.9 145.5c-2.4 3 4.3 8.3 4.3 8.3l7.7 3.1-1.3-13.8c-5.3.5-9.8 1.2-10.7 2.4z"/><path class="st4" d="M229.4 144.7c-.6-1.1-4.9-1.6-10.2-1.7l.2 14.3-.2-14.3c-3.1-.1-6.5 0-9.6.2l1.3 13.8 3.2 1.2 8.7-1.1 4.1-4s4.1-5.7 2.5-8.4zM101.5 258.1c3 2.4 8.3-4.3 8.3-4.3l3.1-7.7-13.8 1.3c.5 5.3 1.2 9.8 2.4 10.7zM100.6 227.6c-1.1.6-1.6 4.9-1.7 10.2l14.3-.2-14.3.2c-.1 3.1 0 6.5.2 9.6l13.8-1.3 1.2-3.2-1.1-8.8-4-4.1c.1.1-5.6-4-8.4-2.4zM330.6 269.5c-3.2 2.2-8-4.9-8-4.9l-2.5-7.8 13.6 2.3c-.8 5.1-1.9 9.5-3.1 10.4zM333.7 239.1c1 .7 1.2 5.1 1 10.3l-14.2-1.3 14.2 1.3c-.2 3.1-.5 6.5-1 9.6l-13.6-2.3-1.1-3.2 1.7-8.7 4.4-3.8c.1 0 6-3.7 8.6-1.9z"/><path class="st0" d="M203.2 153.9c-1.6 2.7 0 10.4 1.2 12.5 1.2 2 20.8 2.1 22.5-.8 1.7-2.9 1.3-11.2 0-12.5-1.3-1.3-22-1.9-23.7.8zM109.9 253.8c2.7 1.6 10.4 0 12.5-1.2 2-1.2 2.1-20.8-.8-22.5s-11.2-1.3-12.5 0c-1.3 1.3-2 22.1.8 23.7zM322.6 264.5c-2.8 1.4-10.4-.7-12.4-2.1-2-1.4-.5-20.9 2.5-22.3 3-1.5 11.3-.5 12.5.9 1 1.4.2 22.1-2.6 23.5z"/><path class="st4" d="m797.6 675.9-27.4 16.7c10.3 18.7 18.3 34 20.5 39.7 23.8-8.2 34.4-21.4 34.4-21.4s-12-14.9-27.5-35z"/><path class="st0" d="M724.7 573.4c-2.4-14.6-34.4-7.4-18.6 12.3 7.4 9.3 25.2 38.5 42.6 68.7l21.5-14.1c-22.9-30.3-44.4-60.2-45.5-66.9z"/><path class="st2" d="m770.1 640.2-21.6 14.2c3 5.2 5.9 10.3 8.8 15.4l23.9-14.9c-3.6-4.9-7.3-9.8-11.1-14.7z"/><path class="st0" d="m791.1 667.6-25.5 16.8c1.5 2.8 3.1 5.5 4.5 8.2l27.4-16.7c-2-2.7-4.2-5.5-6.4-8.3z"/><path class="st4" d="m781.2 654.8-23.9 14.9c2.8 5 5.6 10 8.3 14.7l25.5-16.8c-3.2-4.1-6.6-8.4-9.9-12.8z"/><path class="st5" d="m784.1 702.4 15.1 26.5M789.4 699.6l17.2 25.6M795.1 695.1l17 26.5M800.8 691.9l17.7 23.8"/><path class="st3" d="m547.9 507.4-63.7-.8-1.1 12.4s-1.8 7.8-3.6 17.6l69.3 1.6c-.3-15.5-.9-30.8-.9-30.8z"/><path class="st4" d="M476.8 572.1c3.9 7.5 18.2 4.6 22.2-2.4 1.6 10 22.1 8.7 26.1.2.2 7.8 22.2 8.9 23.5-.8.3-2.8.4-9.3.4-17l-71.9-.2c-1.2 9.2-1.8 17.4-.3 20.2z"/><path class="st0" d="M479.6 536.6c-.9 4.9-1.8 10.3-2.5 15.4l71.9.2c0-4.4-.2-9.1-.2-13.9l-69.2-1.7z"/><path class="st5" d="M484.8 552.2s-3.2 17 1.9 16.5c5.1-.6 5.1-16.5 5.1-16.5M507.4 551.9s-1.6 16.7 3.8 16.7 3.5-16.5 3.5-16.5M533.5 551.9s-1.7 16.7 3.1 16.7 4.8-16.5 4.8-16.5M525.2 570v-63.4M505 507.4l-6 62.3"/><path class="st4" d="M402.3 381s.8 6.5 2.6 9.5c1.8 3.1 9.2.6 9.2-2.4 2.3 3.9 10.4 1.1 9.6-1.9 1.8 3.5 9.5 1.7 9.3-1.6 1.6 2.9 7.4 2 8.4-1.7s-1.1-12.9-1.1-12.9l-16.6-3.1-21.4 14.1z"/><path class="st5" d="m423.7 386.1-2.8-10.3h9.7l2.4 8.7M411.7 378.7l2.3 9.4"/><path class="st1" d="M478.3 368.3c-11.3-22.6-28.3-7.7-35.6-16.2-6.1-7.2 10.7-56.3 16.1-71.8l-47.3-9.1-5 50.2-18.3 33.3s15.4 0 18.2 7.5-9.5 15.1-6.6 19.4c3 4.3 31.8-7 38.3-3.9 6.5 3.1 7.3 7.1 6.2 12.5-1.1 5.4-23.7 5.4-24.8 10.8-1.1 5.4-.6 9.9 3.5 9.5 4.2-.4 13.5-3 17.2-1.4 3.7 1.6-2.4 10.3 2.4 12.9s10 1.9 20.8-4c3.9-2.1 11.3-8.9 19.4-17 1.5-9.2 1.2-21.4-4.5-32.7z"/><path class="st0" d="M526.9 304.6 462 280.9l-3.2-.6c-5.4 15.5-22.2 64.6-16.1 71.8 7.3 8.5 24.3-6.4 35.6 16.2 5.7 11.3 6 23.5 4.6 32.8 14.5-14.6 30.7-33.3 31.6-37.2 1.2-6 12.4-59.3 12.4-59.3z"/><path class="st1" d="M402.3 349.9c13.5-3.2 10.2 14.9 5.4 16.2-4.8 1.3-12.9 3.8-20.5 3.8s-11.1-6.2-11.1-14.8c0-8.7 22.9-27.6 24.3-35.8 1.4-8.3.2-33.4 7.3-38.8 7-5.4 29.1 0 29.1 0"/><path class="st2" d="M552.9 427.3s25.4-2.4 28.4 0 4.6 12.2-.5 14.7-22.7 0-22.7 0l-5.2-14.7z"/><circle class="st3" cx="548.7" cy="443.9" r="16.6"/><circle class="st3" cx="554.4" cy="410.7" r="16.6"/><circle class="st3" cx="554.4" cy="374.7" r="18.5"/><circle class="st1" cx="524.9" cy="349.4" r="31.6"/><circle class="st0" cx="524.9" cy="349.4" r="17.4"/><path class="st2" d="M528.7 250.9c-18.6-16.2-73.6-21.8-98.1-14.3s-38.6 41.3-34.2 45.9c4.3 4.5 61.2 5.4 79.9 8.1 18.6 2.7 11.3 16.7 13.5 24.3s14.6 7.4 15.6 1.4c2.3 9.5 18 5.7 18.9.8 5.7 9.1 21.6 8.1 19.8.8 5.4 8.6 6.6 13.7 12.1 24.6l18.8-1.6c-19.6-58.3-27.9-74-46.3-90z"/><path class="st0" d="M509.1 263.6c-11.4-6.9-62.7-11.2-102.3-9-4.9 6.5-8.4 13.3-10 18.8 21.6 1.1 102 5.3 130.4 11.7-5.8-10-11.6-17.6-18.1-21.5z"/><path class="st3" d="m382.3 248.5 19.2 3.1s10.5-12.2 18.7-23c-8.3-5.1-29.3-7.8-37.9-8.8-.3 13.3 0 28.7 0 28.7z"/><path class="st0" d="M382.8 209.5c-.2 3-.4 6.6-.5 10.2 8.6 1 29.5 3.7 37.9 8.8 2.2-2.9 4.3-5.7 5.9-8.1-15.3-6.6-32.5-9.9-43.3-10.9z"/><path class="st4" d="m396.4 200.7-1.9 10.4c3.6.6 7.4 1.5 11.4 2.5l2.5-10.1c-4.1-1.1-8.2-2.1-12-2.8zM384.5 200.4c-.8.9-1.4 4.4-1.8 9.1 3.4.3 7.4.8 11.7 1.6l1.9-10.4c-5.9-1.1-10.7-1.5-11.8-.3z"/><path class="st4" d="m408.4 203.5-2.5 10.1c2.9.7 5.8 1.6 8.8 2.6l3.2-9.7c-2.9-1-6.2-2.1-9.5-3zM429.8 213.3c0-1.9-5-4.4-11.8-6.8l-3.2 9.7c3.8 1.2 7.6 2.7 11.3 4.3 2.2-3.4 3.7-6 3.7-7.2z"/><path class="st3" d="M400.2 233.1c-9.1 0-16.6 6.4-16.6 14.4s7.4 14.4 16.6 14.4c.6 0 1.2 0 1.8-.1 3.6-6.1 8.4-12.4 14.5-17.3-1.7-6.5-8.3-11.4-16.3-11.4z"/><path class="st4" d="M376.1 233.1s-7.8-.4-14.3 0c-5.1.3-6.1 7.3-.8 8.1-4.4.2-3.2 8.5 0 8.5h15.1v-16.6z"/><path class="st5" d="M361 241.2h12.9M395.6 255.4c40.3-3.8 101 .6 113.5 8.2s22.2 28.5 35 54.2"/><path class="st3" d="M546.4 229.1c-1 4.3 19.7 40 30.6 85 10.9 44.9 15.8 60.3 18.6 87.4 2.8 27.1 6.9 89.8 6.9 89.8h64.7s-9.1-104.6 3.6-151.2c12.8-46.6 27.9-102.7 29.9-107s-8.5-9.8-12.5-6.3c-4 3.5-21.4 46.4-39.6 133.1-2-17.8 8.1-135 6.9-139.2-1.2-4.3-13.3-6.6-15.8-.6S634 348 627.5 359c-3.2-36.4-15.4-138.6-18.2-143.2s-16.8-.6-16.2 4.1c.6 4.8 15 115.5 12.9 139.5-17-75.8-41.3-135.5-46.1-136.3-4.8-.9-12.6 1.7-13.5 6z"/><path class="st0" d="M588.3 394.2s70.4-2.8 78.5 0c8.1 2.8 9.7 19.8-.8 19.8h-70.8l-6.9-19.8z"/><path class="st2" d="M532.9 209s-20.2-13.3-40.9-23.2c10.1-14.2 28.7 1.2 27.9 0-.8-1.2-15.9-11.7-12.4-28.7 19.3 4 25 21.4 25 21.4s-3.2-20.6 9.7-25.1c.9 23.9 11 46.2 11 46.2l-22.4 9.9M588.3 195.7s-8.3-22.4-24.3-42.2c15.9-10.1 23.9 13.3 24.3 12.1s-8.1-25.1 0-34.4c12.7 11.3 12.8 36.4 12.7 35.2-.2-1.2.8-23.9 16.4-22.2-6.9 22.2-4.4 49.8-4.4 49.8l-24.7 1.7zM633.9 145.8c4.6 22.3 8.3 49.9 8.3 49.9l24.4 4s6.8-26 19.7-46.2c-15-5.7-20.2 16.6-20.2 16.6s5.3-18.6-2.8-33.6c-13.3 2.4-10.8 33.6-10.8 33.6s2.3-28.8-18.6-24.3zM695.6 205.4s7.3-20.4 10.6-45.5c16.5 3.6 9.2 21.6 9.2 21.6s7.7-21.6 21.8-21.6c.6 15.5-8.1 28.6-8.1 28.6s15-16 24.3 0c-21.8 12.1-36.4 27.7-36.4 27.7l-21.4-10.8z"/><path class="st4" d="M523.6 211.1c0 7.1 14.2 11.2 14.2 11.2l3.5-1.5-12.5-16c-3.2 2.2-5.2 4.4-5.2 6.3z"/><path class="st4" d="m528.8 204.8 12.5 16 7-3-9.1-18.4c-3.8 1.6-7.6 3.5-10.4 5.4zM556.5 196.3c-1.4-1-4.5-.7-8.5.2l7 18.4 3.4-1.5c0 .1 2.8-13.7-1.9-17.1z"/><path class="st4" d="m539.2 199.4 9.1 18.4 6.8-2.9-7-18.4c-2.8.7-5.9 1.7-8.9 2.9zM588.3 189.5l3.6 16.9 9-.4-1.8-17.5c-3.9.2-7.6.5-10.8 1zM616.6 191.1c-.8-.9-3.7-1.6-7.5-2l.2 16.6 4.9-.2c0-.1 5.3-11.2 2.4-14.4z"/><path class="st4" d="M580.7 193.1c-3.2 6.1 6.1 13.6 6.1 13.6l5.2-.2-3.6-16.9c-3.9.7-6.8 1.8-7.7 3.5zM599 188.6l1.8 17.5 8.5-.4-.2-16.6c-3-.4-6.6-.5-10.1-.5zM634.7 193.9c-3.4 4.5 1.4 12.6 1.4 12.6l5.5 1.5-.4-15.7c-3.3.1-5.7.6-6.5 1.6zM641.2 192.2l.4 15.7 7.6 1.9 3-16.9c-4-.4-7.9-.8-11-.7zM652.2 193l-3 16.9 8.4 2.2 4.9-17c-3.1-.9-6.8-1.6-10.3-2.1zM671.3 199.7c0-1.6-3.7-3.2-8.7-4.6l-4.9 17 5.5 1.5c0-.1 8.1-9.2 8.1-13.9zM697.3 201.5l-3.2 14.8c2.7 1.3 5.9 2.8 8.9 4.3l6.6-14.3c-4.2-2-8.6-3.7-12.3-4.8z"/><path class="st4" d="M689.5 200.7c-3.2 3.1-.8 13-.8 13s2.3 1.1 5.5 2.7l3.2-14.8c-4-1.3-7.1-1.7-7.9-.9zM720 211.8l-10 12.1c1.4.6 2.3 1.1 2.5 1.1 1.2.4 12.9 0 14.2-6.1.3-1.8-2.5-4.4-6.7-7.1z"/><path class="st4" d="m709.7 206.4-6.6 14.3c2.7 1.3 5.2 2.4 6.9 3.2l10-12.1c-2.9-1.9-6.6-3.7-10.3-5.4z"/><path class="st2" d="M251.4 241.3c-1.6-22.2-57-28.6-66.3-4.1-7.3 19.1-5.7 66.2-4.6 85.9 4.8-5.3 8.7-11.5 8.7-11.5s-.8-45.1 4.9-66.3c5.7-21.3 46.5-17 47.7 4.4.5 9.2-2.3 76.9-1.1 150.9.1 5.3.2 10.8.3 16.2h10.6c.3-42.1 1.1-157.4-.2-175.5z"/><path class="st3" d="M268.8 249.3c0-19-6.9-29-17.4-35.8-10.5-6.7-46.5-15.1-69.6-.1-23.1 15-19.2 56.1-19.4 98.5 0 3.9-8.1 16.2-7.7 18.8 2.3 14.8 19.1-.2 25.7-7.7-1.1-19.7-2.7-66.7 4.6-85.9 9.3-24.5 64.7-18 66.3 4.1 1.3 18.1.5 133.3.2 175.5h15.6c0-1 .1-1.9.1-2.8 2.1-79.5 1.6-155.8 1.6-164.6z"/><path class="st5" d="M146.8 323.9c7.6 1.5 11.8-4.4 7.8-10.1"/><path class="st3" d="M165.4 310.9c4.7-2.8 19.5-2.6 23.7 1.5 4.2 4 5.2 17-2.6 18.6-7.7 1.6-21.1 4.5-21.1 4.5l-8.3-7s3.6-14.8 8.3-17.6z"/><path class="st0" d="M114.7 351c2.3-1.2 6.1-2 10.3-2.6l-3.2-10.1c-7 .6-13.3 2.2-15.6 5.4-5.6 7.5-.4 9.6 1.5 16.7 1-3.8 2.7-7.2 7-9.4z"/><path class="st3" d="m149.3 347.4.2.4v-8.9s-15.1-1.8-27.8-.6l3.2 10.1c10.9-1.3 24.4-1 24.4-1z"/><path class="st0" d="M114.7 351c-8.3 4.3-7 13-10.3 20.5-3.2 7.4-13 10.1-14.3 9.5 12.8 6.8 21-1.9 24.5-7.3v-.2c0-6.2 1.4-11.6 8.9-13.2.4-.1.9-.2 1.4-.2l.5-11.6c-4.2.4-8.2 1.2-10.7 2.5z"/><path class="st3" d="M149.3 347.4s-13.1-.4-23.7 1l-.5 11.6c6.1-.7 19.1.2 28.2-.1l2.9-3.1-6.9-9.4z"/><path class="st4" d="M160.8 365.2s8.3 15.2 3.6 29.5c-4.5 14.2-10 10-10.3 27.8-.3 17.7 15.9 17 15.9 17s-5.7-6.7-5.7-18.9c0-12.1 9.6-13.1 11.1-27.3 1.5-15 4-43.9 4-43.9l-18.6 15.8z"/><path class="st4" d="M166.6 366.8c4.6 27.8-9.1 33.8-18.9 44.3-9.9 10.5-7 20.5-5.3 31.3-7.8-2.7-13.4-9.2-10-23.2 3.5-14 18.1-22.7 21.4-31.6 3.2-8.9 0-19.1 0-19.1s7-3.3 12.8-1.7zM272.4 343.2c1.5.6 3.8-1.2 5.7-3.2-3.9-3.8-8.3-7.1-11-8-2.3-.7-4.4-.4-6.1.5 3.3 3.6 9.2 9.9 11.4 10.7z"/><path class="st2" d="M287.9 374.3c-1.1-4.3-.2-18.3-1.9-23.9-.8-2.8-4.1-6.9-7.8-10.5-1.9 1.9-4.2 3.7-5.7 3.2-2.2-.8-8.1-7-11.5-10.7-2.3 1.2-3.8 3.5-3.8 5.7 0 4 10.5 11.1 11.7 16.7 1.1 5.7 1.5 33.5 1.5 33.5s7.3 9.6 21 15.7c2.7 1.1 8.5 3.6 16.3 6.9l10.8-22.1c-17.9-7.2-30.2-13.1-30.6-14.5z"/><path class="st1" d="M446.7 431.3c-29.1-4.1-90.9-26.8-128.2-42.2l-10.8 22.1c31.5 12.9 95.6 38.6 121 45.5 6.3-8.1 12.9-17.6 18-25.4z"/><path class="st0" d="M240.6 404.4s-7.2 1.9-7.4 8.9c-.2 7 4 9.1 8.2 10.4 4.1 1.2 20.7 2 25.5.8 4.8-1.2 7-4.4 7-9.9 0-5.4-6.5-7.8-6.5-7.8s-1.8 4.6-13.4 4c-11.7-.6-13.4-6.4-13.4-6.4zM555.2 489.6c8.7-3.6 103.6-4.9 109.2-1.6 5.7 3.2 0 20.1 0 20.1L545.5 510c0-.2.9-16.7 9.7-20.4z"/><path class="st4" d="M665.2 518.7s31.1 67.2 33.6 71.6 14.4.7 11.9-4.7c5.9 4.7 13.6-1 11.2-6.6 6.5 3.6 12.5-1.2 10.5-5.3-2-4-42.1-54.2-42.1-54.2l-15.9-15.4-9.2 14.6z"/><path class="st5" d="m721.8 579-28.3-40.4M687.9 544.4l22.7 41.3"/><path class="st4" d="m580.8 358.7-10.5 19.9c1.9 4.9 3.9 10 6.1 15.3l9-22.2c-1.6-4.2-3.1-8.6-4.6-13zM585.4 371.7l-9 22.2c2.4 5.7 5 11.7 7.8 17.6l9.2-19.1c-2.7-6.7-5.4-13.6-8-20.7zM593.5 392.4l-9.2 19.1c2.3 4.9 4.9 9.7 7.6 14.4l8-19.6c-2.2-4.5-4.3-9.1-6.4-13.9zM575.6 343.4c-.3-.9-.6-1.8-.9-2.6l-10.4 22.1c1.8 4.8 3.7 10.1 5.8 15.7l10.5-19.9c-1.6-5-3.3-10.1-5-15.3z"/><path class="st4" d="m574.8 340.8-18.8 1.6.6 1.2c2.3 4.4 4.8 11.2 7.8 19.3l10.4-22.1h0zM614.6 431.6l-4.6 20.2c2.9 3.3 6 6.4 9.2 9.2l4-18.9c-3.1-3.3-5.9-6.8-8.6-10.5zM664.6 464.3c-5.4-.6-10.4-1.9-15.2-3.7l-1.2 16.3c4.9 1.3 10.2 1.9 15.7 1.9 69.5.1 42.1-9.6.7-14.5zM633.9 451.8l-.8 19c4.8 2.6 9.8 4.7 15 6l1.2-16.3c-5.4-2.1-10.5-5.1-15.4-8.7zM599.8 406.3l-8 19.6c2.9 5.1 6 10 9.3 14.6l6-20.6c-2.5-4.2-4.9-8.8-7.3-13.6z"/><path class="st4" d="m623.1 442-4 18.9c4.4 3.8 9 7.1 13.9 9.8l.8-19c-3.7-2.7-7.3-6-10.7-9.7zM607.1 420l-6 20.6c2.8 4 5.7 7.7 8.8 11.2l4.6-20.2c-2.5-3.6-5-7.5-7.4-11.6z"/><path class="st3" d="M519.8 346.2c-1.5 5.1 0 30.1.8 32.4.8 2.3 15 2.3 15.3 0 .3-2.3-2.1-23.9-3.8-31.2-1.8-7.4-10.8-6.2-12.3-1.2z"/><circle class="st4" cx="532.8" cy="415.6" r="16.8"/><circle class="st5" cx="532.8" cy="415.6" r="6.5"/><path class="st0" d="M532.1 218.3c2.9-6.6 21.4-13.5 27.9-11.1 6.5 2.4 5.9 10.8 4 15s-20.2 10.6-26.3 8.5-8.5-5.9-5.6-12.4zM588.3 218.1c-3.6-1.5-6.5-10.2-2.8-15.4 3.6-5.2 24.3-5.9 29.5-2s3.2 13.2-.8 15.5c-4 2.3-22.2 3.4-25.9 1.9zM634.5 216.2c-2.8-5.1-1.2-11.4 4-13.9 5.3-2.5 24.7 1.7 27.1 5.7s0 13.3-4.4 13.3c-4.5.1-23.9 0-26.7-5.1zM684.2 225.1c-2.8-5.3 0-12.3 6.1-14.7 6.1-2.4 26.7 9.1 26.7 14.7 0 5.7-4.7 9.3-10.8 9.7-6.2.4-19.1-4.5-22-9.7z"/><path class="st2" d="M405.2 258.6c4.4 1.2 6.2 12.9-1.7 14.6-7.9 1.6-23.9 0-23.9 0s2.5 8.4-3.6 11.3c-4.9 2.3-9.7 2.3-13.8-1.8-4-4.1-3.6-13.4 1.2-16.7 4.9-3.2 7.3-2.4 15.8-2.4-7.7-2.5-7.3-7.2-8.5-17.5-1.2-10.3.4-12.7 3.2-21-3.2 2.4-10.5 2.8-14.2-4-3.6-6.9 1.6-13.8 6.9-15.8 5.3-2 15.4.4 18.6 8.9 3.2 8.5-9.1 33.2 1 44.7 6 6.7 14.6-1.5 19-.3z"/><path class="st5" d="M367.5 275.6s2.4-3.1 12.1-2.4M373.9 225.1c8.1-5.4-2.8-10.9-2.8-10.9"/><path class="st6" d="M394 240.4c-6.1 0-11.2 5-11.2 11.2 0 4.6 2.8 8.5 6.7 10.3l10-20c-1.6-1-3.5-1.5-5.5-1.5z"/><path class="st7" d="m399.5 241.9-10 20c1.4.6 2.9 1 4.4 1 6.1 0 11.2-5 11.2-11.2.1-4.3-2.2-7.9-5.6-9.8z"/><circle class="st5" cx="394" cy="251.6" r="11.2"/><circle class="st4" cx="394" cy="251.6" r="3.6"/><path class="st5" d="m524.1 317-2.7-21.3M505 295.7l.3 20.5"/><path class="st4" d="M517.4 386.1s-5.7 9.9-4.6 13.9c1.1 4 8.7 4.9 9.1 1.6 3 4 10.1 3.2 10.1 0 3.1 3.8 7 2.7 9.1-.8 4.3 2.4 8.7 1.4 8.7-2.4s-5.9-13.2-5.9-13.2l-26.5.9z"/><path class="st5" d="m541.1 400.9-1.8-10.8M531.3 390.1l.8 11.6M522 401.7l2.1-11.6"/><path d="M489.6 427.8c-5.7 1.4-10.3 5.7-12 11.3 7.6-1.9 14.2-2.9 14.2-2.9l-2.2-8.4z" style="fill:none"/><path class="st1" d="m485.2 403.5-6.5 1.8c-6.4 6.2-12.1 11.2-15.2 12.9-1.5.8-2.9 1.5-4.2 2.2.5 2.3 1.5 4.7 3.2 6.1 5.3 4.4 25.3-5.3 25.3-5.3l1.8 6.6c1-.2 1.9-.4 2.9-.4l-7.3-23.9z"/><path class="st1" d="m495.3 436.6-2.8-9.2c-1 .1-2 .2-2.9.4l2.3 8.4s-6.6 1.1-14.2 2.9c-.5 1.5-.7 3.2-.7 4.8 0 5.8 3 11 7.6 13.9 4.2-3.6 7.4-6.6 7.4-6.6l3.3-14.6z"/><circle class="st3" cx="493.4" cy="443.9" r="16.6"/><path class="st3" d="M489.6 394.2c-6.2 6.6-12.5 12.9-17.7 17.4.5 8.7 7.7 15.7 16.5 15.7 9.1 0 16.6-7.4 16.6-16.6 0-8.7-6.8-15.9-15.4-16.5z"/><path class="st4" d="M491.7 512.3c1.7 5.7 13.3 2.7 13.3-.8 0 5.9 9.7 4 9.7 1.6 2.2 4 10.8 1.9 10.3 0 1.9 4 12.2 2.4 12.5-.8 4.8 3.2 12.8.2 10.4-4.9 4.3 1.4 11.9-3 8.7-10.5 7.1-4.4 5.9-12.5 2.3-14.2 4.4-1.6 6.3-8.8 1.6-11.3 4.9-2.6 4.4-10.9 0-10.9h-11.7l-60.3 32.1c-.1 0 1.5 14 3.2 19.7z"/><path class="st5" d="M558.8 482.7h-13.3l.9-10.6 14-.7M547.9 507.4l-6-9.9 4.5-3.8 10.1 3.2M524.9 513.1l-1.3-13h9.9l3.9 12.2M505 511.5v-11.4h9.7v13"/><path class="st0" d="M488.4 502.2s48.5 4.4 56.6-3.2c8.1-7.7 3.6-38.4 3.6-38.4H532l-40.9 13.3-2.7 28.3z"/><path class="st3" d="M480.7 460.5s-5.3 30.7-12.9 65.5c28.7 7.3 27.9-34.4 29.1-38.4s29.9 1.6 34.4-2.8c4.4-4.4.8-24.3.8-24.3h-51.4 0z"/><path class="st4" d="M623.7 549.9c-11.8-9.1-14.9-29.4-15.7-40.9l-26.7.4c.1 14 2.7 49.1 26.5 61.9 29.9 16.1 69.6 15.3 69.6 15.3l-2.9-26.1c-12.6.6-36.7.2-50.8-10.6z"/><path class="st4" d="M631.6 544.5c10.6 8.7 29.5 7.5 41.7 5.7l-4.4-40.3-2.9-7.5c-.7 3.2-1.5 5.7-1.5 5.7l-46.9.7c.2 9.4 2.6 26.3 14 35.7z"/><path class="st4" d="M631.6 544.5c-11.4-9.3-13.8-26.3-14.2-35.7l-9.4.2c.8 11.5 3.9 31.9 15.7 40.9 14.1 10.8 38.2 11.2 50.7 10.5l-1.1-10.3c-12.1 1.9-31.1 3-41.7-5.6z"/><path class="st5" d="m596.1 517.9-14.3 1.9M596.1 526l-12.9 4.2M598.5 534.7l-12.7 6.3M603.6 541l-14 11.2M608.3 551.3l-9.8 13M614.6 556.5l-6.8 14.7M621.5 560.7l-4.1 15M630.3 565.7l-1.8 13.8M640 568.2l-1.5 14M649.1 569.7l.3 14.5M657.8 570l1.4 15.7M666.5 571.2l2.4 14.5"/><path class="st1" d="M687.9 491.8c0-11 14.2-11.2 22.7-10.4-.2-12.1-1.3-22.1-3.6-23-5.9-2.4-46.6-2-48.2 32.8s46.1 34.8 48.9 34.8c1.1 0 2.1-9.8 2.7-21.9-8.5.1-22.5-1.4-22.5-12.3z"/><path class="st0" d="M710.5 481.5c-8.4-.8-22.7-.6-22.7 10.4 0 10.9 14 12.4 22.5 12.3.3-7.3.4-15.4.2-22.7z"/><path class="st1" d="M164.6 355.2c6.2-1.3 4.3-7 3-9.6-2.3-4.9-11.9-13.8-8.4-15.1s8.9-7.4 8.3-13.4c-.6-6.1-2-9.5-7-11.1-5-1.6-14.3-1.3-17.2 2.7-3.7 5.1-4.4 13.2 3.4 15.3-1.3 6.2-2.5 22.2 0 29.9.8 2.6 2.3 4.5 4 6.1 5.2 0 9.5-.3 11.4-1.4 1.2-.6 2-1.8 2.5-3.4z"/><path class="st2" d="M168.9 330.8c-3.6 6.5-1.3 24.8-6.7 27.8s-31 0-38.6 1.6-8.9 7-8.9 13.2c0 6.2 2.2 10 10.8 10s11.6-7.7 7.8-12.1c6.2.2 28.2 0 35.6-1.4 7.4-1.4 10.5-20.5 10.5-20.5s-3.2 24.4-1.1 31.6c2.2 7.1 11.9 7.9 17 5.2 5.1-2.8 8.9-10.8 3.5-16.3s-9.5-3.1-12.4 0c.2-10.3 5.4-29 3-37.5s-16.9-8.1-20.5-1.6z"/><path class="st5" d="M191.9 378.7s-5.4 2.3-5.4-8.8M123.6 374.3c-1.4-4.5 6.2-8.8 9.7-3.2"/><path class="st6" d="M154.4 340c-.2 6.5.9 13.8 4 13.7 2.4-.1 10.3 2.7 10.3-10 0-1.4-.1-2.6-.2-3.7h-14.1z"/><path class="st7" d="M156.8 330.5c-1.4.4-2.3 4.7-2.3 9.5h14.2c-.8-9.5-4.5-11.5-11.9-9.5z"/><path class="st5" d="M156.8 330.5c8.2-2.3 11.9.6 11.9 13.2s-7.8 10-10.3 10c-5.3.2-4.8-22.3-1.6-23.2z"/><circle class="st4" cx="159.7" cy="342" r="3.6"/><path class="st2" d="M234.1 351c-6 2.9-4.4 27.6 1.6 33.3 4.2 4 18.4 5.3 27.3 5.1l-.4-38.9c-9.2-1.1-24.1-1.7-28.5.5z"/><path class="st4" d="M269.6 351.8c-1.1-.5-3.6-.9-7-1.3l.4 38.9c3.8-.1 6.6-.4 7.4-.9 2.4-1.5 3.2-35-.8-36.7z"/><path class="st5" d="m242.3 358.8 29.4 1.5M242.3 368.4l29.4 1.7M242.3 377.2l29.4 2.1"/><path class="st4" d="M323.2 410.7c.8.6 4 12.9 4 12.9s13.2 9.3 17.6 9.3c4.3 0 7.3-7.1 5.9-10.7-1.4-3.6-21.8-7.1-21.8-7.1l3.8-10.8s18 7.8 22.1 6.3c4.1-1.5 3.7-10.4 2.3-12-1.5-1.6-18.5-3.6-18.5-3.6l-13.9 5.2-1.5 10.5z"/><path class="st3" d="M292.7 406c-1.9-4.5 5.9-21.9 7.9-24.3 2-2.3 37.8 13.4 37.8 13.4l-11.2 28.5c.1.1-32.5-13.1-34.5-17.6z"/><path class="st1" d="M476.8 443.9c0-1.7.2-3.2.7-4.8-8.7 2.1-18.7 5.2-21.6 8.8-5.5 6.9 1.4 19.4 8.7 21 4.4 1 13.4-5.7 19.8-11.2-4.5-2.9-7.6-8-7.6-13.8z"/><circle class="st3" cx="475.1" cy="266.1" r="17.6"/><path class="st3" d="M421.5 248.5c-7 0-12.9 4.8-14.6 11.2 2 2.3 2.8 7 1 10.3 2.4 5.1 7.6 8.6 13.6 8.6 8.3 0 15-6.7 15-15 .1-8.4-6.6-15.1-15-15.1z"/><path class="st4" d="M418.4 318.7c-3.6 2.3-4 16 .8 19.3 4.9 3.2 20.2 2.3 22.2 0 1.9-2.3 4-9.6 7.4-11.7 3.4-2 16.2-.2 16.2-5.2s-42.9-4.8-46.6-2.4z"/><circle class="st5" cx="430.3" cy="328.2" r="4.3"/><path class="st0" d="M514.7 377.8c-1.6 3.9-1.6 10.5 1.4 13.3 3 2.8 25.3 3 28.6-1.1s1.9-15.4-2.3-15.5c-4.1.1-26.1-.5-27.7 3.3z"/></svg>