<svg version="1.1" id="Calque_1" xmlns="http://www.w3.org/2000/svg" x="0" y="0" viewBox="0 0 900 900" style="enable-background:new 0 0 900 900" xml:space="preserve"><style>.st0,.st2,.st3,.st4,.st5{fill:#fff;stroke:#000;stroke-width:4.5905;stroke-linecap:round;stroke-linejoin:round}.st2,.st3,.st4,.st5{fill:none}.st3,.st4,.st5{fill:red}.st4,.st5{fill:#007068}.st5{fill:#ffce00}.st6{fill:red}.st7{fill:#fff}.st8{fill:#7c7c7c;stroke:#000;stroke-width:4.5905;stroke-linecap:round;stroke-linejoin:round}</style><path class="st0" d="M137.8 639.4c-9.8-7.9-7.9-30.8-2.6-32.8-8.5-5.2-3.9-30.2 0-30.8-7.2-7.2-9.2-27.5 0-33.4-6.6-4.6-9.2-30.2 0-36.7-5.9-5.2-5.9-29.5-.7-32.8-5.9-6.6-5.2-30.8-.7-33.4-4.6-5.9-7.2-27.5-1.3-34.1-4.6-6.6-3.3-28.9 0-33.4-3.9-6.6-3.9-24.9.7-32.8-7.9-6.6-4.6-30.2 0-34.1-6.6-7.9-4.6-28.2 0-34.8-4.6-9.2-3.9-26.2 1.3-32.8-4.6-7.2-3.3-30.2 2-34.8-2.6-7.9-3.3-24.3 3.9-30.2-3.9-9.2-.7-32.1 9.8-35.4-2-10.5 5.9-30.2 18.4-28.2-.7-8.5 10.5-21 23.6-20.3 0-9.2 18.4-18.4 28.2-17.1 4.6-6.6 21.6-11.8 32.8-7.9 5.9-5.2 27.5-8.5 36.1-3.3 3.9-5.2 26.9-8.5 32.1-1.3 3.3-5.9 27.5-7.9 32.1-3.3 5.2-5.9 26.2-7.2 32.1-1.3 3.9-2.6 24.9-5.9 30.8-1.3 5.9-3.3 23.6-5.2 31.5.7 3.3-5.2 27.5-3.9 31.5 1.3 3.3-5.2 24.9-5.2 30.8 0 3.3-6.6 28.9-4.6 31.5 1.3 2.6-5.9 25.6-3.3 29.5 2 5.9-5.2 26.9-2.6 31.5 3.3 4.6-4.6 26.2-.7 28.9 5.2 5.9-4.6 28.9.7 32.1 8.5 7.9-2 25.6 5.2 26.9 16.4 7.2-.7 25.6 12.5 24.9 24.3 6.6.7 18.4 15.7 15.7 27.5 7.2 4.6 10.5 21 7.2 30.2 8.5 4.6 8.5 21 2.6 28.2 5.9 5.9 5.2 23.6-2 30.8 4.6 4.6-1.3 26.9-7.2 28.9 2 6.6-6.6 21.6-16.4 23.6-.7 9.2-9.8 20.3-23.6 19 1.3 9.2-22.3 15.7-27.5 11.1-4.6 7.9-21 8.5-28.9 4.6-7.2 7.9-29.5 4.6-33.4 0-9.2 3.9-31.5-3.9-32.8-10.5-11.1 0-28.2-11.1-24.3-20.3-11.8 0-19-17.7-17.1-26.2-7.9-8.5-11.8-26.9-3.9-32.1-5.2-11.1 2-25.6 2-25.6s-23 1.3-25.6-5.2c-7.9 9.2-28.2 5.2-30.8-.7-7.2 9.2-25.6 6.6-34.1.7-6.6 5.9-28.2 5.2-32.8 0-5.9 6.6-26.9 6.6-31.5 2.6-5.9 7.9-30.2 6.6-32.8 4.6-7.9 6.6-9.8 11.1-11.1 17.7 3.3 3.3 4.6 15.1-1.3 28.9 7.2 11.8 2.6 25.6 2 31.5 3.9 8.5 1.3 31.5 1.3 31.5s3.9 17.7.7 30.2c2.6 10.5.7 30.8.7 30.8l18.4-2 13.8-76.7 35.4-4.6 42 56.4 4.6 45.9 12.5 62.3-10.5 8.5s-36.7-1.3-41.3.7c-4.6 2-3.3 10.5.7 12.5 9.2 4.6 279.4 1.3 288.5 3.9 9.2 2.6 7.9 20.3 3.3 22.3 3.3 3.9 4.6 22.3-.7 27.5 6.6 5.9 3.9 24.3 0 26.9 7.9 6.6 4.6 25.6 0 27.5 5.9 3.9 4.6 19 0 24.3 6.6 4.6 2.6 26.2-1.3 28.2-3.9 2-26.9 19-26.9 19L452 654.6 151 669c-.1-.1-3.4-21.7-13.2-29.6z"/><path d="M163.5 640.8s-5.8-325.9-1-415.1c4.9-89.3 28.6-120.5 87.5-134.7s334.5-18 381.7-1c47.2 17 93.8 44 79.6 150.5-8.3 42.9-51.4 52.9-79.7 55.1-28.3 2.2-75.4-7.5-78.7-60-1.4-27 15.8-41.2 35.4-40.3 24.2.3 22.2 29.1 36.7 29.1s18.4-28.2 2-36.7l-5.9-9-12.7-6.1-22.3-3.1-17.5 2.6-7.4 3.9s-207-.2-226.1 2.4-36.9 7-37.4 46.6c-.5 39.5 5.2 180.1 7.2 184.5 2 4.3 13.6.5 13.6.5l24.9-42.8 6.6-75.6 59.9 6.6 28 60.3 12.3 39.8-3.5 69.5s-36.7-1.3-41.3.7c-4.6 2-3.3 10.5.7 12.5 7.5 3.7 187.9 2.2 259.7 3l-3.1 160.1-254 38.2-245.2-41.5z" style="fill:#007068"/><path class="st0" d="M446.6 467.6s-36.7-1.3-41.3.7c-4.6 2-3.3 10.5.7 12.5 9.2 4.6 279.4 1.3 288.5 3.9"/><path class="st2" d="M330.6 377.7c-6.6-1.3-15.1-.7-16.4 5.9-1.3 6.6 7.9 5.9 7.9 5.9M329.9 346.9c-5.9-2-14.4-2.6-15.7 3.3-2 7.9 3.9 13.1 8.5 8.5M329.2 316.8c-23-7.2-21 17.7-9.2 11.1M327.9 285.3c-3.9-2.3-16.4-2.6-17.7 3.9-.6 3 2 11.8 11.1 5.9M319.4 265c-15.1 7.2-10.5-19 6.6-11.1M320.1 234.8c-16.4 8.5-13.8-17.7 7.2-9.8M327.9 205.9c-16.4.7-6.8-12.5-.7-12.5 10.5.7 11.7 9.6 11.1 13.8M358.1 197.4c-5.9.7-7.9-9.2 3.9-9.8 7.9-1.3 9.2 10.8 9.2 15.1M390.9 196.1c-7.9-.7-2-11.1 5.2-9.2 2.8-.2 9.8 4.6 6.6 13.1M435.5 200c2.3-3.3 1.4-10.8-2-12.5-5.2-2.6-14.1 2.3-8.5 7.9M457.1 196.1c-5.2-2.6-1.3-8.5 5.9-7.9 7.2.7 7.7 7.9 6.6 11.1M500.4 200c2-6.6-2-13.1-8.5-11.8-6.6 1.3-6.6 7.2-2 8.5M526 205.3s4.6-8.5 8.5-9.2c3.9-.7 9.8 1.3 11.8 5.9 2 4.6 1.3 11.1-3.3 11.8-8.5 2-8.5-5.2-8.5-5.2M531.2 240.7c13.1 3.9 9.8-20.3-7.2-9.8M537.1 267.6c2 7.9 15.1-2.6 3.3-9.8-4.6-2.2-12.5-.7-12.5 5.2M557.5 294.5c14.4-7.9-7.2-19-12.5-5.2M583.7 308.2c6.7-5.1-.9-11.1-7.2-9.8-4.3.9-9.2 5.2-7.2 11.1M613.2 313.5c4.6 0 3.9-9.8-4.6-7.2-7.9 1.3-7.7 10-6.6 13.8M645.3 313.5c3.3-12.5-17.7-5.2-9.8 6.6M675.5 306.3c-1.3-11.8-19-3.3-11.1 9.2M700.4 293.8c-1.3-13.1-19-.7-8.5 10.5M717.5 272.8c-3.9-7.2-9.4-2.2-10.5 2 0 5.9 4.6 9.8 8.5 10.5M730.6 249.2c-9.2-8.5-17.7 9.8 1.3 12.5M735.2 219.7c-5.9-2.6-9.2.4-8.5 5.2 0 6.6 7 8.7 12.5 7.9M733.9 189.5c-5.2-.7-8.1 4.7-5.9 8.5.7 5.2 9.2 6.2 13.1 3.9M731.2 162.6c-13.8-2.6-7.9 18.4 7.2 11.1M721.4 136.4c-5.2-2-9.6 3.9-6.6 7.2 3.3 6.6 13.4 3.9 16.4 0M703 111.5c-5.6-1-7.1 6.6-2.6 9.2s11.8 3.3 15.1-4.6M679.4 90.5c-7.9 1.3-5.8 7.3-2.6 9.2 7.2 4.6 13.8.2 13.8-7.9M648 79.4c-4.6 3 1.3 10.4 7.2 9.2 8.5-.7 8.8-9 8.5-13.1M618.4 71.5c-5.9 7.9 17.7 11.8 13.1-4.6M590.9 66.9c-4.7 6 4.7 8.1 9.8 4.6 2.7-1.8 3.7-6.9 2-9.8M558.8 64.3c-1.5 4.9 5.2 8.9 9.8 6.6 6.6-3.3 6-8.5 2.6-12.5M529.3 61c-2.3 3.9 0 9.2 7.2 7.9 5.9-1.3 9.2-6.9 5.2-12.5M496.5 61.7c-2 10.5 21 9.2 13.8-6.6M466.3 61c-2.8 4.4 0 10.5 8.5 7.9 7.2-1.3 6.9-10.5 4.6-13.8M435.5 59c-4.6 13.1 21.6 11.8 12.5-5.2M407.3 59.7c-5.9 5.9 3.4 8.5 7.9 5.9 4.6-2 4.7-9.6 1.3-12.5M375.1 59.7c-7.9 3.9.7 10.2 5.2 9.2 8.5-2.6 9.5-10.5 5.2-14.4M342.4 62.3c-6.6 14.4 24.3 9.2 11.1-6.6M310.9 64.9c-7.9 5.9 2.5 9.7 7.2 7.2 7.2-2.6 5.5-9.8 3.3-13.1M282 67.6c-8.5 0-5.2 13.1 4.6 9.2 7.2-4.6 6.7-12.9 2.6-16.4M242 75.4c-1.3 11.8 28.2 3.9 11.1-11.8M213.8 82c-3.9 6.6 2.2 8.7 7.9 5.9 4.9-2.4 7.8-9.7-1.3-16.4M188.2 97.7c-6 7.4 3.7 8.7 8.5 4.6 3.7-3.1 3.9-11.5-4.6-13.8M165.9 120c-1.6 6.2 5.4 7.1 8.5 3.3 5.9-4.6 2.4-12.8-5.9-14.4M152.2 149.5c3.1 7.9 10.8 1 10.5-5.2-2-6.6-5.2-8-12.5-7.2M146.3 182.3c17.7 4.6 9.2-19.7-5.9-9.8M143 214.5c17.1 6.6 11.8-23-6.6-11.8M141.7 249.9c17.1 3.9 10.5-24.9-7.2-12.5M141 284.6c15.1 3.9 13.8-24.3-7.9-14.4M138.4 317.4c15.1 10.5 17.1-21.6-5.2-12.5M139.7 350.9c13.8 2.6 11.8-23-6.6-11.8M139.1 385c15.1 1.3 12.5-23-6.6-13.1M140.4 417.8c14.4 3.9 13.8-22.3-7.9-12.5M142.3 447.9c-5.9 6.6 9.8 8.5 8.5-3.9-1.3-5.2-8.9-8.4-17.1-4.6M141 484.6c2.2 7.5 11.1 3.3 10.5-7.9-.4-4.9-7.8-8.1-17.1-3.9M139.7 518.1c2.8 7.4 11.2 1.2 11.1-5.2-.1-5.5-7.5-11.5-15.7-7.2M141 554.2c-.4 7.6 10.5 5.2 9.2-6.6.4-5-6.6-8.5-15.1-5.2M141 586.3c1 6.6 10.5 5.9 9.8-2.6.7-7.9-6.2-11.8-15.7-7.9M141 619.7c15.7 2.6 11.8-18.4-5.9-13.1M562 177.1c2-7.2 28.9-10.5 33.4-3.9 4.6 6.6 0 12.5-5.9 13.1-5.9.7-9.2-5.9-4.6-7.9M594.8 171.2c17.7-.7 34.1 9.8 32.1 16.4-2 6.6-8.5 9.2-11.8 7.2-7.9-3.9-5.2-11.1.7-11.1"/><path class="st2" d="M623.7 213.8s2-7.9-6.6-5.2c-8.5 2.6-5.2 17.1 7.9 15.7 13.1-1.3 18.4-28.2 2-36.7M523.4 196.1c-9.8-.7-7.9-10.5 2.6-9.8 7.9 0 8.5 9.8 8.5 9.8 2-8.5 16.4-22.3 27.5-19 11.1 3.3 5.2 14.4.7 15.7-7.9 2-11.1-6.6-3.9-7.2"/><path class="st0" d="M698.5 642.8c2.6 5.2 0 22.6 0 22.6s-94.4-3-284.3-3-282.2 4-282.2 4-1.4-12.5 1.2-15.1c-3.3-3.3-3.3-11.1 2.6-13.1 7.9-2.6 17.1-2 20.3.7 1.3-4.6 20.3-7.2 24.3 0 2.6-3.9 14.4-6.6 24.3-.7 3.3-5.2 23.6-5.2 26.2 0 1.3-3.3 15.7-8.5 27.5 0 13.8 1.3 113.5 5.2 113.5 5.2s180.3-4.6 190.2-2.6c2-5.9 24.9-5.9 27.5.7 3.9-7.9 24.9-5.9 26.2-.7 0-4.6 23-6.6 26.9.7 0-4.6 23.6-9.2 28.9 0 8.5-6.7 24.4-3.9 26.9 1.3z"/><path class="st2" d="M671.6 641.4c-6.6 9.8 11.8 18.4 11.8 5.9M642.7 641.4c-5.2 9.8 14.4 17.1 13.8 3.9M615.8 640.7c-3.9 11.8 13.1 17.1 13.1 5.9M602.7 646.6c-2 10.5-15.1 3.3-13.1-5.2M230.9 638.1c-4.6 9.8 11.1 16.4 11.8 6.6M204.6 638.1c-5.2 16.4 20.3 16.4 11.1 5.2M180.4 638.8c-5.2 9.8 11.1 17.1 11.1 4.6M156.1 638.8c-3.3 11.1 11.1 17.7 12.5 5.9M133.2 651.2c3.9 4.6 17.1 2.6 10.5-5.2M577.8 645.3c3.3 7.9-6.6 8.5-13.1 5.9"/><path class="st3" d="M158.5 832.6c33.4 21.6 61 16.7 250.8 16.7s240 4.9 269.5-11.8c29.5-16.7 20.7-154.4 20.7-154.4s-157.4-2-285.3-3-280.3 3.9-280.3 3.9-8.8 127 24.6 148.6z"/><path class="st4" d="M150.9 680.1s-4.6 118.7 16.4 136.4 81.3 13.8 245.3 15.1 244 4.6 257.1-13.1c13.1-17.7 10.5-139 10.5-139l-272.8-7.9-256.5 8.5z"/><path class="st3" d="M132 666.4s92.5-3.9 282.3-3.9 284.3 3 284.3 3l1 17.7s-157.4-2-285.3-3-280.3 3.9-280.3 3.9l-2-17.7z"/><path class="st2" d="M689.3 496.4c-13.1 2-5.9 17.1 8.5 10.5M687.3 522c-8.5 2-9.2 16.4 9.8 12.5M689.9 548.3c-13.8.7-10.5 19 7.2 13.1M687.3 574.5c-11.1 1.3-5.9 19.7 9.8 14.4M689.3 603.3c-12.5-3.9-13.8 16.4 7.9 9.8M687.3 626.9c-7.2 0-6.6 7.2-3.3 11.8"/><path class="st3" d="M182.3 237.4c7.9 7.2 20.3 33.4 19.7 59-.7 25.6-1.3 41.3.7 57.7 2 16.4 7.9 91.8 3.9 101.6-3.9 9.8-16.4 18.4-18.4 24.3-2 5.9 11.8 0 12.5 2 .7 2-17.1 21.6-17.1 24.9 0 3.3 10.5 2 13.1 2.6-.7 3.3-15.1 24.3-10.5 26.2 4.6 2 14.4-5.9 14.4-5.9 0 7.2-11.1 32.1-11.1 34.8 2 5.2 15.1-1.3 18.4-6.6.7 7.2 2 24.3-1.3 34.8s-13.8 18.4-12.5 20.3c3.3 4.6 16.4-1.3 22.3-8.5s5.9-29.5 5.9-29.5c1.3 7.2 3 5.8 7.9 19 4.6 12.5 2.6 25.6 5.2 26.2 8.5-.7 11.8-13.1 7.9-28.9-3.9-15.7-8.5-21.6-6.6-28.9s10.5-26.9 10.5-26.9l3.3-38 8.5-11.1s7.9-15.1 2-24.9c9.2-19 0-66.9-5.9-83.3s-19-47.2-13.8-81.3c2-18.4 16.4-42 26.9-54.4C220.3 230.1 221 297 221 297s9.2-74.7-38.7-59.6z"/><path class="st5" d="M241.4 297.1c2-18.4 16.4-42 26.9-54.4-47.9-12.5-47.2 54.4-47.2 54.4s9.2-74.8-38.7-59.7c7.9 7.2 20.3 33.4 19.7 59M241.4 297.1c-5.2 34.1 7.9 64.9 13.8 81.3 5.9 16.4 15.1 64.3 5.9 83.3 5.9 9.8-2 24.9-2 24.9L248 455.1s5.2-35.4-7.2-74.8-15.7-47.9-15.1-63c.6-15 15.7-20.2 15.7-20.2"/><path class="st3" d="M238.1 456.4c3.9-2.6 16.4-5.9 23 5.2 6.6 11.1-2 24.9-2 24.9l-8.5 7.2M240.3 319.4c-.4-7.2-.1-14.7 1-22.3l-39.3-.7c-.2 8.9-.5 16.7-.6 23.6l38.9-.6z"/><path class="st2" d="M222.3 575.1c-3.9-13.8-1.3-28.2 2.6-32.1M207.9 558.1c-.7-4.6 0-11.8 2.6-16.4M196.8 509.6l3.9-7.3"/><circle class="st3" cx="220.1" cy="492.2" r="13.4"/><path class="st5" d="M244 486.6c-2 3.9-.7 43.3-.7 43.3s-8.5 25.6-8.5 36.1 15.1 16.4 22.3 7.9c7.2-8.5.7-18.4-9.2-15.7 3.3-8.5 6.6-19 7.2-31.5 3.3 6.6 13.1 7.2 17.1 4.6 13.1-13.1-2.6-21-7.2-16.4-1.3-5.2-1.3-26.9-4.6-30.2-3.3-3.3-14.4-2-16.4 1.9z"/><path class="st2" d="M270.2 522c-4.6.7-7.9-2-5.2-7.2M250.5 567.3c-4.6 0-6.6-3.9-2.6-9.2M254.5 506.9s.7 7.9.7 19.7"/><path class="st6" d="M220.4 489.9c-2.6-.7-4.6 15.1-7.9 19-3.3 3.9-7.2 20.3 7.2 20.3s11.1-15.7 7.2-21c-3.9-5.2-3.9-17.7-6.5-18.3z"/><path class="st7" d="M212.5 508.9c-3.3 3.9-7.2 20.3 7.2 20.3s11.1-15.7 7.2-21c0 0-12.4-.6-14.4.7z"/><path class="st2" d="M220.4 489.9c-2.6-.7-4.6 15.1-7.9 19-3.3 3.9-7.2 20.3 7.2 20.3s11.1-15.7 7.2-21c-3.9-5.2-3.9-17.7-6.5-18.3z"/><circle class="st2" cx="219.4" cy="518.4" r="3.6"/><path class="st3" d="M280.7 142.3c-8.5 9.2-47.2 52.5-9.8 66.2 9.2-34.8 21-51.2 32.1-59.7 11.1-8.5 72.1-2 119.4-.7 47.2 1.3 63.6 2.6 76.1-.7s24.3-9.2 24.3-9.2l73.4-1.3s36.7 24.3 52.5 23c10.5-1.3 13.1-3.9 10.5-8.5-2-2.6-16.4-.7-32.1-10.5-14.4-7.9-17.1-13.8-22.3-17.1 9.2.7 27.5 11.1 47.2 6.6 6.6-2 5.2-9.8 2.6-9.8s-21 2-45.2-8.5c-24.3-10.5-47.9-2.6-47.9-2.6l-62.3-4.6s-139.7.7-171.2 2.6c-31.5 2-45.9 13.1-59.7 21-13.8 7.9-35.4 18.4-59 24.9 25.5 32.2 66.8-6.5 71.4-11.1z"/><path class="st5" d="M280.7 142.3c-8.5 9.2-47.2 52.5-9.8 66.2 9.2-34.8 21-51.2 32.1-59.7 11.1-8.5 72.1-2 119.4-.7 10.6.3 19.7.6 27.5.9 5.9-6.8-2.6-15.9-10.5-14.6-7.9 1.3-119.4-6.6-134.4 2s-9.6-22.9-19.9-17.5c-6.3 3.2-11.6 6.7-16.8 9.6-13.8 7.9-35.4 18.4-59 24.9 25.5 32.2 66.8-6.5 71.4-11.1z"/><path class="st3" d="M295 114.4c-11.1 4.3-19 9.7-26.8 14.2 4.6 6.6 21 23 26.3 28.4 2.8-3.3 5.6-5.9 8.5-8.1 1.9-1.4 5.2-2.5 9.8-3.1 0-.1-18.3-33-17.8-31.4z"/><path class="st2" d="M604.7 124c-7.2-6.6-24.3-5.2-27.5-3.9"/><ellipse class="st3" cx="514.2" cy="109.9" rx="18.4" ry="14.8"/><path class="st7" d="M512.2 110.2c-.7-2.6 19-4.6 24.3-7.2 9.8-9.2 26.9-8.5 27.5 3.9.7 12.5-17.1 14.4-26.9 8.5-3.9-2.6-24.2-2.6-24.9-5.2z"/><path class="st6" d="M512.2 110.2c-.7-2.6 19-4.6 24.3-7.2 1-1 2.2-1.9 3.5-2.7l1.4 17.1c-1.5-.5-2.9-1.1-4.2-1.9-4-2.7-24.3-2.7-25-5.3z"/><path class="st2" d="M512.2 110.2c-.7-2.6 19-4.6 24.3-7.2 9.8-9.2 26.9-8.5 27.5 3.9.7 12.5-17.1 14.4-26.9 8.5-3.9-2.6-24.2-2.6-24.9-5.2z"/><circle class="st0" cx="548.9" cy="107.6" r="3.3"/><path class="st5" d="M500.4 133.1c-5.9 1.3-7.2 13.8-1.3 16.4s28.2.7 32.8 3.3c-2.6 4.6-2 9.2 2.6 10.5 4.6 1.3 12.5 3.3 15.7-5.9.7-5.2-5.9-13.1-5.9-13.1l35.4-2s-5.9 7.9 2 11.8c5.2 2.6 12.5 2 16.4-3.3 3.9-5.2 0-17.1-6.6-20.3-4.6-2-26.9 3.3-44.6 3.9-17.6.7-40.6-2.6-46.5-1.3z"/><path class="st2" d="M544.3 144.3c-2.6-2-24.9-.7-24.9-.7M579.8 142.3c2.6-2 8.5-1.3 8.5 1.3M531.9 152.8c4.6-3.3 7.2 0 8.5 2.6"/><path class="st5" d="M435.5 105.5c10-.1 19.7-.2 28.2-.3l.7 44.3c-7.5-.2-16.5-.5-27.5-.8l-1.4-43.2z"/><path class="st4" d="M711.6 445.3s51.8 11.1 55.1 15.1c3.3 3.9 5.9 9.8 4.6 11.8-1.3 2-58.4-13.1-58.4-13.1l-1.3-13.8z"/><path class="st4" d="M631.6 418.4s38-5.9 50.5-5.9 46.6 13.1 51.2 15.7c4.6 2.6.7 9.8-6.6 11.1s-17.7-4.6-17.7-4.6 9.2 18.4 8.5 26.2c-.7 7.9-24.3 14.4-40.7 7.2-7.9-3.3-8.5-13.1-16.4-17.1s-22.3-3.3-22.3-3.3l-6.5-29.3zM501.1 466.3l69.5-11.2-2.7-31.4-72.1 2.6z"/><path class="st0" d="M470.2 468.9s32.1 105.6 32.1 128.5c5.2.7 34.8-3.9 47.9-14.4-30.8-60.3-49.2-116.7-49.2-116.7l-30.8 2.6z"/><path class="st2" d="M486.6 470.2c8.5 34.1 42.6 121.3 42.6 121.3"/><path class="st5" d="M499.7 424.3c-3.3-5.9-22.3-5.2-26.2 0-3.9 5.2-.7 38.7 1.3 43.9s25.6 7.2 27.5 0c2-7.2.7-38-2.6-43.9z"/><path class="st5" d="M445.3 421.7c-4.6 4.6-2 40 1.3 45.9 3.3 5.9 23 8.5 28.2.7s-1.3-43.9-1.3-43.9-23.6-7.3-28.2-2.7z"/><path class="st0" d="M599.4 419.7s-34.1-1.3-38.7-.7c-3.3 6.6 2.6 7.9 2.6 7.9s-4.6 4.6 1.3 7.9c-2 3.9.7 7.9.7 7.9s-3.9 3.9 0 7.2c-2 4.6-.7 7.2 2 8.5 2.6 1.3 36.1-7.2 36.1-7.2l-4-31.5z"/><path class="st2" d="M584.3 447.9s-12.5 2.6-19 2M583.7 440l-18.4 2.7M581.1 433.5l-16.4 1.3M563.4 426.9h17"/><path class="st0" d="M635.5 417.1c-2-2.6-36.1-2-38.7-1.3-2 3.9-2 5.2 1.3 8.5-2 5.2 1.3 7.9 1.3 7.9s-3.3 3.3.7 7.9c-2 4.6-1.3 6.6 2 7.9-1.3 2.6-1.3 5.9 2 7.2 3.3 1.3 24.3-5.2 34.1-7.2 1.2-2.7-.7-28.3-2.7-30.9z"/><path class="st2" d="m621.1 444-19.1 3.9M620.4 437.4l-20.3 2.6M619.8 429.6l-20.4 2.6M617.8 423s-21.6 1.3-19.7 1.3M708.9 434.8l-16.4-2-16.3-1.3-11.9 1.3 15.8 27.6M692.5 432.8l11.2 25M678.1 431.5l13.1 26.9"/><path class="st0" d="M708.9 434.8c-1.3-3.9-15.7-8.5-16.4-2-.6 6.6 16.4 11.2 16.4 2z"/><path class="st0" d="M692.5 432.8c-.7-7.9-15.1-7.2-14.4-1.3.7 5.9 15.1 9.2 14.4 1.3z"/><path class="st0" d="M678.1 431.5c2 5.2-11.8 7.2-13.8 1.3s11.2-8.5 13.8-1.3zM710.2 419.3c10.8 3.7 20.7 7.7 23 9 2.3 1.3 2.5 3.8 1.2 6.1s-21.5-4.8-24.1-7.4c-2.7-2.7-1.4-4-.1-7.7zM747.8 467.9c12.1 2.9 23 5.2 23.5 4.3.6-.9.4-2.6-.3-4.5 0 0-16.1-6.7-20-5.4-4 1.4-3.2 5.6-3.2 5.6z"/><path class="st2" d="M333.8 701.1c0 3.3-3.9 10.5-1.3 11.8 2.6 1.3 7.2-2.6 11.8-1.3l-10.5-10.5z"/><path class="st5" d="M350.9 631.5c-5.2 3.9-68.9 2.6-80.7 4.6-11.8 2-16.4 4.6-20.3 19.7-3.9 15.1-5.9 86.6-10.5 86.6h-38.7c-5.9 0-14.4 1.3-17.1 3.3s-2.6 7.2 1.3 10.5c-2.6 3.9-1.3 8.5 2.6 10.5 0 4.6 3.3 8.5 7.9 9.2 0 3.3 2.6 5.9 5.2 5.9s9.8-13.1 19-15.7c0 0 .7 3.9 3.3 5.9 2.6 2 28.9-2 32.8-7.9 3.9-5.9 13.8-72.8 14.4-77.4 1.3 11.1 9.8 98.4 8.5 102.3-1.3 3.9-47.9 10.5-57.7 17.7-3.9 2.6-5.2 3.9-5.2 7.9 0 3.9 5.2 5.9 12.5 3.9 5.2 5.2 12.5 1.3 12.5 1.3s5.9 4.6 12.5-.7c5.2 5.2 11.8.7 11.8.7s7.2 3.3 11.1.7c3.9-2.6 5.2-6.6 9.2-7.2 3.9-.7 21 .7 23-1.3s-4.6-10.5-5.9-18.4c-1.3-7.9-4.6-105.6-4.6-105.6s6.6 68.9 33.4 86.6c26.9 17.7 61 11.1 66.2 10.5 5.2-.7 13.1-7.9 13.1-7.9s6.8 7.2 12 7.9c5.2.7 39.3 7.2 66.2-10.5 26.9-17.7 33.4-86.6 33.4-86.6s-3.3 97.7-4.6 105.6c-1.3 7.9-7.9 16.4-5.9 18.4s19 .7 23 1.3c3.9.7 5.2 4.6 9.2 7.2 3.9 2.6 11.1-.7 11.1-.7s6.6 4.6 11.8-.7c6.6 5.2 12.5.7 12.5.7s7.2 3.9 12.5-1.3c7.2 2 12.5 0 12.5-3.9s-1.3-5.2-5.2-7.9c-9.8-7.2-56.4-13.8-57.7-17.7-1.3-3.9 7.2-91.2 8.5-102.3.7 4.6 10.5 71.5 14.4 77.4 3.9 5.9 30.2 9.8 32.8 7.9 2.6-2 3.3-5.9 3.3-5.9 9.2 2.6 16.4 15.7 19 15.7 2.6 0 5.2-2.6 5.2-5.9 4.6-.7 7.9-4.6 7.9-9.2 3.9-2 5.2-6.6 2.6-10.5 3.9-3.3 3.9-8.5 1.3-10.5s-11.1-3.3-17.1-3.3h-38.7c-4.6 0-6.6-71.5-10.5-86.6-3.9-15.1-8.5-17.7-20.3-19.7S442 626.3 442 626.3l5.2-70.2-76.7-42s-22.3 21.6-21 28.2c-7.2 4.6-23.6 14.4-23.6 14.4l-11.8 5.2-.7 15.1 26.2 8.5c.1.1 16.5 42.1 11.3 46z"/><path class="st2" d="M278.1 662.4c3.1-1.6 21.1-2 38.7-1.9 6.6-.1 23.6 47.9 29.5 60.3 7.2 15.1 31.5 5.9 31.5 5.9"/><path class="st3" d="M354.2 661s-28.2 9.2-20.3 40c0 0 7.8 8.8 4.5.7-7.4-18.2-17.1-41.3-21.6-41.2l37.4.5z"/><path class="st0" d="M233 821c-1.6-.3-3.2-1-4.7-2.6-7.2 2-12.5 0-12.5-3.9s11.8-3.9 15.1 0c5.9 0 9.8 2 9.8 2s9.2-2.6 13.1-.7c7.2-1.3 11.8.7 11.8.7 7.2-2.6 11.8-.7 13.6 1.2-.9 1-1.9 1.9-3.1 2.8-3.9 2.6-11.1-.7-11.1-.7s-6.6 4.6-11.8-.7c-6.6 5.2-12.5.7-12.5.7s-3.7 2-7.7 1.2"/><path class="st2" d="M279.4 808.6c-3.3-.7-17.1 9.8-14.4 11.1M266.9 807.9s-13.1 7.9-13.8 11.1M228.2 818.4c0-4.6 8.5-8.5 12.5-9.8M240.7 819.7c-2-2.6 3.9-5.9 12.5-11.8M248.6 756.8c-4.6 5.2-20.3 5.2-28.9 9.2 0 0 .7 3.9 3.3 5.9 2.6 2 28.9-2 32.8-7.9"/><path class="st0" d="M233.5 771.8c-5.2.7-9.5.8-10.5.1-2.6-2-3.3-5.9-3.3-5.9 3.1-1.4 7.1-2.3 11.1-3.1l2.7 8.9zM206.1 776.7c-2.5 2.8-4.3 5-5.4 5-2.6 0-5.2-2.6-5.2-5.9-4.6-.7-7.9-4.6-7.9-9.2-3.9-2-5.2-6.6-2.6-10.5-3.9-3.3-3.9-8.5-1.3-10.5 1.3-1 4.1-1.8 7.3-2.4-1.4 9 3.1 23.4 15.1 33.5z"/><path class="st2" d="M195.5 775.8c3.3-6.6 10.5-12.5 16.4-13.1M187.6 766.6c4.6-4.6 13.1-9.2 21.6-11.1M185 756.1c7.9-6.6 19.7-7.2 22.3-6.6"/><path class="st0" d="M587 821c1.6-.3 3.2-1 4.7-2.6 7.2 2 12.5 0 12.5-3.9s-11.8-3.9-15.1 0c-5.9 0-9.8 2-9.8 2s-9.2-2.6-13.1-.7c-7.2-1.3-11.8.7-11.8.7-7.2-2.6-11.8-.7-13.6 1.2.9 1 1.9 1.9 3.1 2.8 3.9 2.6 11.1-.7 11.1-.7s6.6 4.6 11.8-.7c6.6 5.2 12.5.7 12.5.7s3.7 2 7.7 1.2"/><path class="st2" d="M540.6 808.6c3.3-.7 17.1 9.8 14.4 11.1M553.1 807.9s13.1 7.9 13.8 11.1M591.8 818.4c0-4.6-8.5-8.5-12.5-9.8M579.3 819.7c2-2.6-3.9-5.9-12.5-11.8M571.4 756.8c4.6 5.2 20.3 5.2 28.9 9.2 0 0-.7 3.9-3.3 5.9-2.6 2-28.9-2-32.8-7.9"/><path class="st0" d="M586.5 771.8c5.2.7 9.5.8 10.5.1 2.6-2 3.3-5.9 3.3-5.9-3.1-1.4-7.1-2.3-11.1-3.1l-2.7 8.9zM613.9 776.7c2.5 2.8 4.3 5 5.4 5 2.6 0 5.2-2.6 5.2-5.9 4.6-.7 7.9-4.6 7.9-9.2 3.9-2 5.2-6.6 2.6-10.5 3.9-3.3 3.9-8.5 1.3-10.5-1.3-1-4.1-1.8-7.3-2.4 1.4 9-3.1 23.4-15.1 33.5z"/><path class="st2" d="M624.5 775.8c-3.3-6.6-10.5-12.5-16.4-13.1M632.4 766.6c-4.6-4.6-13.1-9.2-21.6-11.1M635 756.1c-7.9-6.6-19.7-7.2-22.3-6.6M549.8 686.6c-2-10.5-1.3-21-7.9-24.3-6.6-3.3-76.1-1.3-76.1-1.3s28.2 9.2 20.3 40c0 3.3 3.9 10.5 1.3 11.8-2.6 1.3-7.2-2.6-11.8-1.3-28.2 1.3-41.3-15.1-43.3-33.4"/><path class="st2" d="M541.9 662.4c-3.1-1.6-21.1-2-38.7-1.9-6.6-.1-23.6 47.9-29.5 60.3-7.2 15.1-31.5 5.9-31.5 5.9"/><path class="st3" d="M465.8 661s28.2 9.2 20.3 40c0 0-7.8 8.8-4.5.7 7.4-18.2 17.1-41.3 21.6-41.2l-37.4.5z"/><path class="st2" d="m406.6 763.4-.6-7.9M402 766l-3.9-7.2M396.8 769.3l-3.9-5.3M394.8 773.2l-6.5-3.9M394.8 779.7l-7.8-3.2M413.4 763.4l.4-7.9M418 766l3.9-7.2M422.4 769.3l4.8-5.3M425.2 773.2l6.5-3.9M425.2 779.7l7.9-3.2"/><path class="st0" d="M361.4 549.6c-9.2 4.6-5.9 10.5 0 15.1s18.4-1.3 18.4-1.3 3.9 3.9 12.5 3.9c-2.6-3.3-1.3-6.6-6.6-7.9-5.3-1.3-18.4-5.9-24.3-9.8z"/><path class="st3" d="M326.6 608.6s-15.7 3.9-15.1-7.2c9.8 0 13.1-2 13.1-2l7.9-15.7 21.6 9.8 5.2 18.4-32.7-3.3z"/><path class="st8" d="M418.4 588.9c-1.3-9.2 5.9-23.6 5.2-29.5-6.6-17.7-71.5-47.2-71.5-47.2s14.4-23.6 38.7-24.3c24.3-.7 66.2 27.5 69.5 47.2 2 17.1-9.8 57.7-9.8 57.7s-30.8 5.3-32.1-3.9z"/><path class="st2" d="m360.1 514.8 14.4-21.6M443.3 583s8.5-30.2 17.1-38M458.4 531.2c-14.4 16.4-21.6 51.2-21.6 51.2M455.2 524.6c-20.3 23.6-27.5 59-27.5 59M450.6 518.1c-9.2 8.5-26.9 47.9-26.9 47.9M444.7 513.5c-11.1 10.5-24.3 40-24.3 40M438.1 508.9c-14.4 15.1-23 38-23 38M432.2 503.7c-7.2 9.8-24.3 39.3-24.3 39.3M425.6 499.7c-8.5 10.5-22.3 38.7-22.3 38.7M419.1 496.4c-11.8 12.5-22.3 38-22.3 38M412.5 493.8c-13.1 13.8-21.6 36.7-21.6 36.7M404 490.5c-11.8 14.4-19.7 36.1-19.7 36.1M395.5 489.2c-9.2 9.2-19.7 34.1-19.7 34.1M367.9 518.7s13.8-26.2 17.7-29.5"/><path class="st7" d="M460.4 545c-.3 4.5-1 9.4-2 14.3-9.2-3.8-103.6-55-105.6-58.9-2-3.9 1.3-13.8 9.2-13.1s77.4 45.9 98.4 57.7z"/><path class="st6" d="M382 518.2c-16.1-9-28.5-16.5-29.2-17.8-2-3.9 1.3-13.8 9.2-13.1 3 .3 15 7 29.8 15.9l-9.8 15zM407 512.4c4.4 2.7 8.9 5.5 13.3 8.2l-10 13.3c-4.1-2.2-8.1-4.5-12.1-6.7l8.8-14.8z"/><path class="st2" d="M460.4 545c-.3 4.5-1 9.4-2 14.3-9.2-3.8-103.6-55-105.6-58.9-2-3.9 1.3-13.8 9.2-13.1s77.4 45.9 98.4 57.7z"/><path class="st8" d="M331.2 588.9s27.5 8.5 20.3 18.4c-3.9 0-21.6.7-24.9 1.3-3.3.7-2.6 8.5-.7 9.8 2 1.3 11.1.7 11.1.7s-4.6 11.8-1.3 13.8 24.3 2 34.1-5.2c11.8-9.2 9.2-30.2 2.6-36.7-6.6-6.6-20.3-7.9-20.3-7.9l-20.9 5.8z"/><path class="st0" d="M320.7 586.3 324 602l11.1-13.1zM335.1 588.9l3.3 16.4 10.5-15.7z"/><path class="st0" d="M339.1 568.6c.7-4.6 8.5-7.9 14.4-.7 8.5 11.1-2.6 21.6-5.9 23.6-3.3 2-40.7 1.3-43.9-15.7-3.3-17.1 13.1-25.6 22.3-19-3.9 2-10.5 10.5-7.9 15.7 2.6 5.2 19.7 9.2 23.6 7.2 7.2-5.9 1.3-9.8-2.6-11.1z"/><path class="st2" d="M366 552.8s-4.6 4.6-.7 6.6c3.9 2 8.5-2.6 8.5-2.6"/><path class="st0" d="M412.5 613.2s-16.4 25.6-16.4 36.7c0 11.1 25.6 23 40.7 8.5 3.9-5.9 5.2-36.7 5.2-36.7l-29.5-8.5z"/><path class="st2" d="M421.7 619.7s-8.5 21.6-9.2 26.9c-.7 5.2 8.5 6.6 11.8 3.3 3.3-3.3 5.2-26.9 5.2-26.9l-7.8-3.3z"/><ellipse class="st4" cx="432.5" cy="603.7" rx="25.9" ry="22.6"/><path class="st2" d="M270.2 686.6c2-10.5 1.3-21 7.9-24.3s76.1-1.3 76.1-1.3-28.2 9.2-20.3 40c0 3.3-3.9 10.5-1.3 11.8 2.6 1.3 7.2-2.6 11.8-1.3 28.2 1.3 41.3-15.1 43.3-33.4"/><path class="st5" d="M465.8 661s28.2 9.2 20.3 40c0 3.3 3.9 10.5 1.3 11.8-2.6 1.3-7.2-2.6-11.8-1.3-28.2 1.3-41.3-15.1-43.3-33.4"/><path d="M486.2 701.1c0 3.3 3.9 10.5 1.3 11.8-2.6 1.3-7.2-2.6-11.8-1.3l10.5-10.5z"/><path class="st5" d="M354.2 661s-28.2 9.2-20.3 40c0 3.3-3.9 10.5-1.3 11.8 2.6 1.3 7.2-2.6 11.8-1.3 28.2 1.3 41.3-15.1 43.3-33.4"/><path d="M333.8 701.1c0 3.3-3.9 10.5-1.3 11.8 2.6 1.3 7.2-2.6 11.8-1.3l-10.5-10.5z"/><path class="st8" d="M328.6 268.2s2.6 101 1.3 116.1-8.5 23-13.1 26.2c22.3 6.6 40 3.3 44.6-22.3 4.6-25.6 9.2-68.2 7.2-77.4-2-9.2 11.1-19.7 11.1-19.7l82.6-17.1s-4.6-13.8 5.9-30.8c-73.4-1.2-139.6 25-139.6 25zM426.3 350.2c-29.5 6.6-36.1 34.8-23 58.4 7.2 8.5 59 21 69.5 23 2-7.2-4.6-30.2-4.6-30.2s-12.4-57.8-41.9-51.2z"/><path class="st2" d="m462.4 411.2 3.9 19M455.8 410.5l2 17.1M448.6 409.9l2.6 16.4M442 409.9l3.3 14.4M437.4 422.3l-1.3-13.7M428.3 419.1l.6-12.5M421.7 416.4l2-13.1M413.8 413.8l4-13.1M406 410.5l7.8-18.3M400.1 402.7l9.1-14.5M396.8 392.8l12.4-11.1M397.4 383l10.5-7.2M399.4 374.5l10.5-5.3M404 365.9l7.9-1.3M407.3 359.4h9.2M457.8 244c-5.9 12.5-4.6 28.9-4.6 28.9M448.6 244c-4.6 14.4-2.6 30.2-2.6 30.2M438.8 245.3c-2.6 15.1-2 30.2-2 30.2M430.9 244.6c-2 8.5-3.3 30.8-3.3 30.8M336.5 266.3s4.6 111.5 0 125.9c-4.6 14.4-11.1 19.7-11.1 19.7"/><path class="st2" d="M345 263s1.3 115.4 0 125.9c-3.3 15.1-9.2 24.3-9.2 24.3M352.2 261s2 116.1.7 126.6-7.9 23.6-7.9 23.6M359.4 307.6l1.3 23.6"/><path class="st0" d="M348.9 377.7s-19 1.3-16.4-9.8c2.6-11.1 18.4-6.6 18.4-6.6l-2 16.4z"/><path class="st3" d="M383 306.3s40 42.6 43.3 46.6c3.3 3.9-17.7 10.5-11.1 32.1 5.9 19 41.3 23 53.1 18.4 3.9-2.6.7-15.1 2-17.1 1.3-2 63 2.6 65.6 1.3 2.6-1.3 3.9-3.3 2-7.2-2-3.9-77.4-8.5-78-15.1 2-3.3 74.8-9.8 77.4-11.8 2.6-2 1.3-7.9-2.6-8.5-3.9-.7-39.3.7-54.4 1.3 3.3-5.2 42.6-9.2 44.6-12.5-2-8.5-13.1-32.1-17.1-36.1-5.2.7-19 16.4-28.9 17.7-3.3-1.3-16.4-21-16.4-21L383 306.3z"/><path class="st2" d="M480.1 346.3c-21.6 11.8-26.2-9.2-11.1-11.1"/><ellipse class="st0" cx="442" cy="315.1" rx="17.7" ry="15.4"/><path class="st7" d="M439.4 318.1c-2-3.3 8.5-6.6 9.8-9.2 1.3-2.6 2-12.5 13.1-14.4s16.4 6.6 17.7 13.1-5.2 13.6-10.5 14.4c-7.9 1.3-12.5-2-16.4-3.3s-11.7 2.6-13.7-.6z"/><path class="st6" d="M439.4 318.1c-2-3.3 8.5-6.6 9.8-9.2 1-2 1.6-8 6.6-11.7l8.5 25.1c-4.8-.5-8.1-2.5-11.1-3.5-3.9-1.4-11.8 2.5-13.8-.7z"/><path class="st2" d="M439.4 318.1c-2-3.3 8.5-6.6 9.8-9.2 1.3-2.6 2-12.5 13.1-14.4s16.4 6.6 17.7 13.1-5.2 13.6-10.5 14.4c-7.9 1.3-12.5-2-16.4-3.3s-11.7 2.6-13.7-.6z"/><circle class="st2" cx="464" cy="309.2" r="4.3"/><path class="st0" d="M447.9 371.8c2.6 5.2 6.6.7 7.9 3.3 1.3 2.6-1.3 6.6-2.6 8.5 13.8 4.6 13.8-13.8 8.5-17.7-5.2-3.9-16.4.7-13.8 5.9z"/><path class="st4" d="M352.2 291.8c3.9-9.8 9.2-58.4 9.2-58.4l49.2-7.9s17.7 42.6 27.5 52.5c9.8 9.9-89.8 23.7-85.9 13.8z"/><path class="st3" d="M352.2 291.8c3.9-9.8 9.2-58.4 9.2-58.4l26.8-4.3 7.3 56.1c0 14-47.2 16.5-43.3 6.6z"/><path class="st0" d="M384.3 286.6s.7-30.8 2-35.4c2-2 7.2-3.3 9.8-1.3 2.6 2 13.1 32.8 13.1 32.8l-24.9 3.9z"/><path class="st0" d="M329.2 294.5c2-2 127.9-23.6 137.1-22.3 9.2 1.3 14.4 19 5.2 24.3-4.6 0-139.7 21.6-142.3 20.3-2.6-1.4-1.9-20.4 0-22.3z"/><path class="st3" d="M408 305.9c-8.1 1.2-16.3 2.5-24.2 3.7l-2.1-25.1c7.7-1.3 15.7-2.7 23.5-3.9l2.8 25.3zM425.6 277.2c20.8-3.2 37.6-5.4 40.7-5 9.2 1.3 14.4 19 5.2 24.3-1.6 0-20.1 2.8-43.3 6.3l-2.6-25.6zM346.3 333.8c-5.9 6.6 2.6 28.2 2.6 28.2s-5.9 19-.7 24.3c5.2 5.2 17.1 5.2 19.7-1.3 6.6-5.9 5.9-9.2 14.4-17.7s-2-13.8-2-13.8 0-20.3-10.5-24.3c-10.4-3.9-17.6-1.9-23.5 4.6z"/><path class="st2" d="M371.9 356.1c5.2.7 8.5-2.6 8.5-2.6"/><path class="st0" d="M367.9 385c3.3 2 0 38 0 38s25.6-1.3 43.3-8.5c-13.8-19-21-36.7-23.6-42.6-2.6-5.9-19.7-7.9-23.6-2.6-7.2 9.8.7 13.7 3.9 15.7z"/><path class="st2" d="M375.8 386.3c3.3 10.5 5.2 34.1 5.2 34.1M383 384.3c3.3 4.6 14.4 33.4 14.4 33.4"/></svg>