<svg version="1.1" id="Calque_1" xmlns="http://www.w3.org/2000/svg" x="0" y="0" viewBox="0 0 900 900" style="enable-background:new 0 0 900 900" xml:space="preserve"><style>.st0{fill:#fff}.st1{fill:red}.st2,.st4,.st6,.st7{fill:none;stroke:#000;stroke-width:5.6855;stroke-linecap:round;stroke-linejoin:round;stroke-miterlimit:10}.st4,.st6,.st7{fill:#ffce00}.st6,.st7{fill:red}.st7{fill:#ff4200}.st8{fill:#0046b7}.st10,.st9{fill:#fff;stroke:#000;stroke-width:5.6855;stroke-linecap:round;stroke-linejoin:round;stroke-miterlimit:10}.st10{fill:none;stroke-width:4.7878}</style><path class="st0" d="M299.6 593.6c-1.3 14-.7 32.6 3.4 33.4 4.1.7 12.9-15.2 18.4-28-4.1-2.7-11.4-5.9-21.8-5.4z"/><path class="st1" d="M302.7 579c-1.3 1.6-2.5 7.5-3.1 14.7 10.5-.6 17.7 2.6 21.8 5.3 2.9-6.7 4.9-12.5 4.9-14.6 0-6.3-19.6-10.3-23.6-5.4z"/><path class="st0" d="M232.1 577.1c-2.5 13.8-3.9 29.1-.7 30 3.5 1.1 12.9-12.2 19.8-24.4-2.5-2.5-7.8-5.9-19.1-5.6z"/><path class="st1" d="M238.5 555.4c-1.7 1.3-4.4 11-6.4 21.7 11.3-.2 16.6 3.1 19 5.6 4.3-7.6 7.6-14.9 7.8-18 .6-7.9-16.5-12.2-20.4-9.3z"/><path class="st2" d="M302.7 579c-4 4.8-6 46.9.3 48s23.3-36.4 23.3-42.6-19.6-10.3-23.6-5.4zM238.5 555.4c-4 2.8-12.8 50-7.1 51.7 5.7 1.7 27-34.4 27.6-42.4s-16.6-12.2-20.5-9.3z"/><path class="st0" d="M99.1 357.1c-12.5 7.1-24.4 16.1-24 18.6.4 2.5 16.7 1.2 31.3-1.7-.9-5.2-2.9-12.7-7.3-16.9z"/><path class="st1" d="M118.8 348.4c-5.3 1.2-12.6 4.6-19.7 8.6 4.5 4.3 6.4 11.8 7.2 17 8.6-1.7 16.7-4 20.5-6.3 10.2-6.2 6.8-22.7-8-19.3z"/><path class="st2" d="M118.8 348.4c-14.8 3.4-44.3 23.3-43.8 27.3.6 4 41.5-1.7 51.7-8 10.3-6.2 6.9-22.7-7.9-19.3z"/><path class="st0" d="M139.3 427.7c-7.4 11.4-14.3 25.8-10.9 28.2 3.4 2.4 15.6-7.1 25-16.7-1.9-3.5-5.9-8.3-14.1-11.5z"/><path class="st1" d="M151.8 413.2c-2.5.7-7.6 6.9-12.4 14.4 8.2 3.2 12.1 8 14.1 11.5 6.1-6.3 11-12.6 11.4-15.7-1.8-5.6-6.9-11.9-13.1-10.2z"/><path class="st2" d="M151.8 413.2c-6.3 1.7-29 38.7-23.3 42.6 5.7 4 35.3-24.4 36.4-32.4-1.8-5.6-6.9-11.9-13.1-10.2z"/><path class="st0" d="M672 433.7c-2.3 0-4.5 16.3-4.5 28.6 6.9-.2 14.6-1.8 19.1-3-4.7-11.4-12.4-25.6-14.6-25.6z"/><path class="st1" d="M669.7 475.2c4.5 5.1 19.6 3.1 20.8-2.6.4-2-1.3-7.3-3.8-13.4-4.6 1.2-12.2 2.8-19.1 3 0 6.2.6 11.3 2.1 13zM658.3 558.1c-5.1 6.3-9.4 12.5-9.9 15.7-1.1 8 13.9 15.1 19.6 9.9 2.2-1.9 4.6-8.6 6.7-16.2-5.3-1-12.3-3.5-16.4-9.4z"/><path class="st0" d="M677.7 540c-2.4-.3-11.9 8.9-19.4 18.1 4.2 5.9 11.2 8.4 16.4 9.5 3.3-12.4 5.4-27.2 3-27.6zM729.4 538.3c-2.6 1-4.4 13.6-4.3 25.1 7.6-.6 14.4-5.3 18.2-8.5-4.7-8.7-11.2-17.6-13.9-16.6z"/><path class="st1" d="M743.3 554.9c-3.8 3.2-10.6 7.9-18.2 8.5.1 8.7 1.3 16.7 4.3 18.1 6.8 3.4 19.3-5.7 19.3-12.5 0-2.7-2.3-8.4-5.4-14.1z"/><path class="st2" d="M669.7 475.2c-4.5-5.1-1.1-41.5 2.3-41.5s19.6 33.3 18.5 38.9-16.2 7.7-20.8 2.6zM648.4 573.9c1.1-8 25.3-34.4 29.3-33.8 4 .6-4 38.7-9.7 43.8-5.7 5-20.7-2.1-19.6-10zM729.4 581.5c-6.8-3.4-4.5-41.5 0-43.2 4.5-1.7 19.3 23.9 19.3 30.7s-12.5 15.9-19.3 12.5z"/><path d="M673 472.1c-24.6 1.1-56.6 1.6-72.1 10.5-16.6 9.4-16.7 22.3-11.2 32.7 31.6-10.1 69.6-14.5 87.2-16.1-.5-8.6-1.6-18.6-3.9-27.1z" style="fill:#e58800;stroke:#000;stroke-width:5.6855;stroke-linecap:round;stroke-linejoin:round;stroke-miterlimit:10"/><path class="st4" d="M589.7 515.4c2.8 5.3 7 10 11.2 13.3 18.9-9 49.7-13.3 76.3-15.8 0-3.6-.1-8.3-.3-13.6-17.6 1.6-55.6 6-87.2 16.1z"/><path class="st0" d="M506.9 580.3c1.1-11.2 1-23.5-.9-23.8-2-.3-9.4 10.5-14.9 20.8 5.8 3.8 11.7 3.8 15.8 3z"/><path class="st1" d="M491.1 577.3c-3.8 7.1-6.6 14-6.1 16.7 1.1 6.8 13.9 7.1 17.9 4.3 1.7-1.3 3.2-9.3 4-18-4.1.8-10 .8-15.8-3zM441.4 509.5c-9-2.2-17.5-3.2-19.6-1.3-5.1 4.5-2.3 13.6 2.8 18.8 2 2 9 2.2 16.9 1.5-1.5-4.1-2.7-10.7-.1-19z"/><path class="st0" d="M441.4 509.5c-2.6 8.3-1.4 14.9.1 19 12.3-1.1 26.7-4.7 26.3-7.8-.3-3-13.9-8.2-26.4-11.2z"/><path class="st2" d="M484.9 594c-1.1-6.8 17.6-38.1 21-37.5s.9 38.9-3.1 41.8c-3.9 2.8-16.7 2.6-17.9-4.3zM421.8 508.2c5.1-4.5 45.5 7.4 46.1 12.5.6 5.1-38.1 11.4-43.2 6.3-5.1-5.2-8-14.3-2.9-18.8z"/><path class="st1" d="M143 290.8c-4.7 5.2-8.5 10.5-9.4 14.2-2.6 10.2 2.8 15.6 10.2 12.8 3.1-1.2 7.9-8.5 12.2-16.8-4.2-1.6-9.6-4.6-13-10.2z"/><path class="st0" d="M165.1 273.9c-2.2-1.8-13.6 7.3-22.1 16.8 3.5 5.7 8.9 8.6 13 10.1 6.1-11.6 11.1-25.2 9.1-26.9z"/><path class="st2" d="M133.6 304.9c2.6-10.2 28.1-33.8 31.6-31 3.4 2.8-13.9 40.9-21.3 43.8-7.5 2.9-12.9-2.5-10.3-12.8z"/><path class="st0" d="M207.6 368.5c-.9-13.4-3.2-29.1-6.4-29.1-3.1 0-9.1 14.9-12.6 28 5.5 1.9 13.2 2.4 19 1.1z"/><path class="st1" d="M188.7 367.4c-2.3 8.7-3.6 16.7-2.2 19.2 3.4 6.3 18.5 4.8 20.8-.3.9-2 .9-9.4.4-17.8-5.9 1.3-13.6.8-19-1.1z"/><path class="st2" d="M186.4 386.5c-3.4-6.3 9.7-47.2 14.8-47.2 5.1 0 8.2 41.8 6 46.9-2.3 5.2-17.3 6.6-20.8.3z"/><path class="st1" d="M556.6 287.6c5.1 5 16.2.6 18.2-4.5.7-1.7-.6-7.4-2.8-14.3-4.9.1-12.3 1-18.4 4.3.4 7 1.3 12.9 3 14.5z"/><path class="st0" d="M557.1 237.6c-2.7.8-4.3 20.9-3.6 35.5 6.1-3.4 13.6-4.2 18.4-4.3-4.3-13.8-12.1-32-14.8-31.2zM615.6 266.8c-.8-9.6-2.3-19.9-3.9-20.2-1.6-.3-5.6 9.8-8.3 19.3 4.6-.2 8.8.3 12.2.9z"/><path class="st1" d="M603.4 266c-1.9 6.8-3.2 13.4-2.5 15.6 1.7 5.4 13.9 4.5 15.1 1.1.5-1.5.3-8.5-.3-15.9-3.5-.6-7.7-1.1-12.3-.8z"/><path class="st2" d="M556.6 287.6c-5.1-5-3.4-48.9.6-50 4-1.1 19.6 40.4 17.6 45.5s-13.1 9.5-18.2 4.5zM600.9 281.6c-1.7-5.4 8-35.5 10.8-35 2.8.6 5.4 32.7 4.3 36.1s-13.4 4.3-15.1-1.1z"/><path d="M729.4 291s-23.3 2.8-44.9-1.1c0 0-63.7-14.4-104.6-10.8-40.9 3.6-50.6 33.5-50.6 33.5s-12.5-19.3-26.2-25.6c-13.6-6.3-30.7-4-39.2 1.7-6.8 9.7-7.4 27.9 11.4 40.4s37.5 13.1 37.5 13.1-6.3 10.2-10.8 30.1c-4.5 19.9 3.4 38.7.6 41.5-10.2 2.3-25.9-36.4-52.6-54-26.7-17.6-76.5-29-135-12.5-58.6 16.5-116 46.1-137 33.5S135.4 279 120.6 265.4c-14.8-13.6-30.7-10.2-38.4-6.8 7.7-3.4 21.9 8 23.6 17.6 15.9 60.8 47.2 131.3 73.9 134.2s37-14.2 55.7-19.9 26.2 5.1 24.4 22.2c-1.7 17.1-32.4 38.1-20.5 71.6 8 25 61.4 40.4 83 56.3 21.6 15.9 6.3 30.1-8 29.6-12.8-.5-59.2-25.7-67.9-30.5-2.4 6.1-5.8 12.8-9.9 18.4.5.3 1.1.5 1.6.8 14.8 6.8 87 34.1 98.9 27.9 11.9-6.3 26.2-16.5 25-28.4-1.1-11.9-8-25-8-25s21-23.3 22.7-52.9c2.5 9 4.1 45.1 8.6 76 20.8 6.3 37.5 2 45.9-1.1-3.5-17.4-10.1-90.3-16.1-104.4 13.9 5.7 40.7 24.4 82.2 36.4.6 8.5-.3 17.6 3.7 29 4 11.4 42.4 17.1 42.4 17.1s-3.7 27.6 2 38.9c3.9 7.8 63.6 24.7 102.9 36.9l15.9-30.5c-27.6-13-59.6-29.4-61.1-31.4-2.6-3.4 7.4-52 4-78.2s-25-39.8-25-39.8 20.5 1.1 32.4-13.1c15.4-17.6 2.8-33.5 2.8-33.5l-15.9 4.5c7.4 10.2-3.4 22.7-17.6 19.3s-17.6-19.3-5.7-31.3c10.2-10.2 32.4-7.4 65.4-20.5 33-13.1 72.8-39.2 84.7-40.4-.5-12.8 1.2-23.4 1.2-23.4z" style="fill:#e26100;stroke:#000;stroke-width:5.6855;stroke-linecap:round;stroke-linejoin:round;stroke-miterlimit:10"/><path class="st6" d="M763 270.2c-19.9-6.3-25 9.9-58.6 3.1-33.5-6.8-42.6-38.7-42.6-38.7s-7.6 6.8-8 21.6c-.6 23.9 30.7 33.5 30.7 33.5 21.6 4 44.9 1.1 44.9 1.1s-1.7 10.6-1.1 23.3h0c32.4-2.3 41.5 15.4 41.5 15.4 14.8-1.1 8-13.6 8-13.6s9.1.6 11.9-10.2c2.8-10.7-6.8-29.2-26.7-35.5z"/><path class="st2" d="M729.4 291s7.4-2.2 17.2-1.8M770.3 292.1c-7.4-1.1-13.6 9.1-10.8 15.9 2.8 6.8 16.5 3.4 18.2 8"/><path class="st2" d="M773 304.1c4.7 2.6 9.4 5.1 4.7 11.9M543.5 533.2c4-64.8-17.1-58.6-10.8-71.6 3.7-4.7 7-10.1 9.5-14.6"/><path class="st4" d="M322.3 540.6c-21.6-15.9-75-31.3-83-56.3-11.9-33.5 18.8-54.6 20.5-71.6 1.7-17.1-5.7-27.9-24.4-22.2s-29 22.7-55.7 19.9-58-73.3-73.9-134.2c-1.7-9.7-15.9-21-23.6-17.6 4.8 7.4 42.9 131.3 60.6 150.7 17.6 19.3 30.7 21.6 47.8 22.7 33-.6 46.6-23.9 50.6-27.3-2.3 9.1-22.2 16.5-27.3 54-5.1 37.5 22.2 59.1 35.8 68.2 0 3-1.2 7.6-3.1 12.7 8.7 4.8 55.1 30 67.9 30.5 14.1.6 29.4-13.6 7.8-29.5zM398.5 470.1c-4-9.7-18.5-13.1-26.4-6.8-7.6 6-12.8 28-32.1 51.7 5.6 6.2 10.5 12.3 14.2 18.2 0 0 21-23.3 22.7-52.9 2.5 9 4.1 45.1 8.6 76 8 2.4 15.4 3.3 21.9 3.2-1-15.2-5.4-80.9-8.9-89.4z"/><path class="st2" d="M617.4 382.5s12.5 15.9-2.8 33.5c-11.9 14.2-32.4 13.1-32.4 13.1s-15.4 0-26.2-8.5-26.2-27.3-8.5-58c5.1-9.1 18.5-17.1 38.4-13.6M523.6 422.6c2.6 2.6-1.1 12.7 5.3 15.2 6.4 2.6 9.2-6.8 12.2-5.5 3 1.3-2.1 14.6 5.5 15.5 7.7.9 8.1-11.9 12.4-11.1 4.3.9 3 17.6 9 17.6s6-9.9 11.9-8.2.4 11.5 4.7 12.4c4.3.9 5.4-3.4 10.1-3s4.4 8.1 10.4 6.4"/><path class="st0" d="M728 350.6c.7.9 1.3 1.9 2 2.9 8 12.5-1.1 29.6 2.3 31.8 18.2 1.1 26.7-16.5 30.1-28.4s5.7-9.7 5.7-9.7l-1.2-2.9c-6.6 3.4-20.1 8.5-38.9 6.3z"/><path class="st1" d="m766.9 344.4-8.5-21-31.3-5.1-15.4 15.9s8.6 5.8 16.2 16.4c18.9 2.2 32.4-2.9 39-6.2zM702.5 364.3c-6.7-9.3-18-13-18-13l-23.3 13.6s11.9 3.4 23.9 12.5c5.6-8.3 12.8-11.7 17.4-13.1z"/><path class="st0" d="M702.5 364.3c-4.6 1.4-11.7 4.8-17.4 13.1 11.9 9.1 2.2 17.6 2.2 26.1 18.8-9.7 23-15.6 19-31-.7-3.1-2.1-5.8-3.8-8.2zM639 398.5c8 6.3-2.8 18.8 0 23.3 15.4-4.5 20.2-15.4 18.5-26.7-.3-1.8-.8-3.5-1.5-5.3-5.1.7-12.4 2.4-19.1 6.8.7.6 1.4 1.3 2.1 1.9z"/><path class="st1" d="m642.4 371.7-18.8 6.3s6.1 11.7 13.2 18.6c6.7-4.4 14-6.1 19.1-6.8-3.9-9.5-13.5-18.1-13.5-18.1z"/><path class="st2" d="M762.4 357c-3.4 11.9-11.9 29.6-30.1 28.4-3.4-2.3 5.7-19.3-2.3-31.8s-18.2-19.3-18.2-19.3l15.4-15.9 31.3 5.1 9.7 23.9c-.1-.1-2.4-2.4-5.8 9.6zM661.2 364.9s11.9 3.4 23.9 12.5c11.9 9.1 2.3 17.6 2.3 26.2 18.8-9.7 23-15.6 19-31s-21.9-21.3-21.9-21.3l-23.3 13.6zM623.7 378s7.4 14.2 15.4 20.5c8 6.3-2.8 18.8 0 23.3 15.4-4.5 20.2-15.4 18.5-26.7-1.7-11.4-15.1-23.3-15.1-23.3l-18.8 6.2z"/><path class="st0" d="M654.9 646.9c2.4 1 9.1-9.6 13.4-19.3-3.4-1.6-9.4-3.8-16.3-4.1-.6 10.5.6 22.4 2.9 23.4z"/><path class="st1" d="M671.7 613.4c-2.8-5.1-10.5-9.4-15.9-5.4-2.2 1.6-3.4 8.2-3.8 15.5 7 .3 12.9 2.5 16.3 4.1 2.8-6.3 4.5-12.2 3.4-14.2zM587.3 586.6c-1.9 1.9-3 10.2-3.2 19.2 11.3-1.1 17.6 1.4 21 3.7 2.9-6.5 5-12.6 5-15.3-.1-7.3-18.3-12.1-22.8-7.6z"/><path class="st0" d="M584 605.9c-.3 12.5 1.1 26.4 4.4 27.4 3.6 1.1 11.4-12.1 16.6-23.7-3.3-2.3-9.7-4.8-21-3.7z"/><path class="st2" d="M655.8 608c-5.4 4-4.8 37.2-.9 38.9 4 1.7 19.6-28.4 16.8-33.5-2.8-5.1-10.5-9.4-15.9-5.4zM587.3 586.6c-4.5 4.5-4.5 44.9 1.1 46.6 5.7 1.7 21.6-31.6 21.6-38.9s-18.2-12.2-22.7-7.7z"/><path class="st4" d="M728.3 314.3c-11.9 1.1-51.7 27.3-84.7 40.4-33 13.1-55.1 10.2-65.4 20.5-11.9 11.9-8.5 27.9 5.7 31.3s25-9.1 17.6-19.3l15.9-4.5s30.1-3.4 67.7-27.9c29-17.6 40.4-27.9 58-23.9 19.9 5.1 19.3 26.2 19.3 26.2s19.9-6.3 7.4-27.3c0-.1-9.1-17.8-41.5-15.5z"/><path class="st2" d="M587.8 391.6c0-6.3 7.4-11.4 13.6-4.5"/><path class="st7" d="M703.5 594.9c-3.2.1-20.1-7.3-39.2-16.3L648.4 609c17.7 5.5 31.4 10 33.8 12.3 2.6 2.4 4.7 6 6.9 9.9 5.8-5.3 17-12.2 28.7-.5 3.1-2 16.2-6 33.8-19.6 7.1-5.5 12.1-10 16.2-13.5l-18.1-32.1c-18.8 12.2-41.3 29.2-46.2 29.4z"/><path class="st1" d="m749.7 565.5 18.1 32.1c3.9-3.3 7.1-5.7 10.7-7l-11.8-34.9c-4.7 2.2-10.6 5.7-17 9.8z"/><path class="st0" d="M774.3 553.4c-1.8-.1-4.4.8-7.6 2.3l11.8 34.9c2-.8 4.2-1.3 6.7-1.4 1.9-.1 3.7.3 5.4.9l3.2-32.6c-7.9-2.3-15.2-3.9-19.5-4.1z"/><path class="st8" d="M824.4 570.7c-1.4-3.3-16.7-9.3-30.7-13.3l-3.2 32.6c8.7 3.2 15.2 13.8 18.5 12.2 4-2 6.8-4.3 6.3-8.8 8-3.4 6.8-11.4 6.8-11.4s4.5-6.2 2.3-11.3z"/><path class="st1" d="M717.8 630.7c-11.7-11.7-22.9-4.8-28.7.5 3.8 7.2 7.5 15.7 13.9 20.6 6.7-2.7 14.2-9 18.9-13.3-2.8-1.8-4.5-4.3-4.1-7.8z"/><path class="st0" d="M721.8 638.5c-4.7 4.3-12.1 10.6-18.9 13.3.7.5 1.3 1 2 1.4 6 3.6 17.9 4.8 28.1 4.9 1.8-3.8 3.8-9.1 4.8-15.3-5.8-.5-12-1.7-16-4.3z"/><path class="st8" d="M752.7 642.9s-7.1.5-14.8-.1c-1 6.2-3 11.5-4.8 15.3 9.1.1 16.9-.7 18.5-1.5 3.4-1.7 1.1-13.7 1.1-13.7z"/><path class="st2" d="M822.1 582.1s-15.9-11.9-45.5-17.6M815.3 593.5s-5.1-10.2-34.7-15.9M707.8 639.2c13.1 16.2 44.3 10.5 44.3 10.5"/><path class="st2" d="M689.1 631.2c4.2 7.9 8.3 17.4 15.9 21.9 11.4 6.8 43.2 5.1 46.6 3.4 3.4-1.7 1.1-13.6 1.1-13.6s-36.4 2.8-35-12.2c-11.6-11.6-22.9-4.8-28.6.5zM824.4 570.7c-2.3-5.1-38.1-16.8-50-17.3-4.3-.2-13.9 5.2-24.6 12.1l18.1 32.1c6.2-5.2 10.5-8 17.3-8.4 11.4-.6 19.9 15.1 23.9 13.1s6.8-4.3 6.3-8.8c8-3.4 6.8-11.4 6.8-11.4s4.4-6.3 2.2-11.4z"/><path class="st7" d="M495.4 592.8c-17.5-3-36.9-5.5-42.9-7.8-10.2-4-17.3-14.8-20.8-27.9-.1-.5-.3-1.2-.4-1.9-8.4 3.2-25.1 7.4-45.9 1.1 2.6 17.9 6.1 34 11.3 42.2 14.2 22.5 38.1 26.7 52.3 26.2 10.1-.4 26.2-2 38 0-2.6-16.4 4.7-27.5 8.4-31.9z"/><path class="st1" d="M528 602.7c-1.1-1-2.2-1.8-3.3-2.4-5-2.8-16.7-5.3-29.3-7.5-3.7 4.4-11 15.5-8.3 32 4.8.8 8.8 2.2 11.5 4.5.7.6 1.3 1.3 1.9 2.1 10.8-19.6 21.8-26.4 27.5-28.7z"/><path class="st0" d="M539.4 616.9c-3.4-5.8-7.5-11-11.4-14.2-5.7 2.4-16.7 9.2-27.5 28.7 1.7 2.2 3 5 4 8 13.5-17.8 27.7-21.7 34.9-22.5z"/><path class="st8" d="M539.4 616.9c-7.2.8-21.4 4.7-34.9 22.5 3.4 10 3.8 22.5 5.5 24.6 2.3 2.8 15.9 1.1 17.6-6.8 9.7 1.1 11.4-4.8 11.9-9.7 10.1-4.6 6.8-18.7-.1-30.6z"/><path class="st2" d="M524.7 600.3c-5-2.8-16.7-5.3-29.3-7.5-3.7 4.4-11 15.5-8.3 32 4.8.8 8.8 2.2 11.5 4.5 9.1 8 9.1 31.8 11.4 34.7 2.3 2.8 15.9 1.1 17.6-6.8 9.7 1.1 11.4-4.8 11.9-9.7 16.5-7.4-2.8-40.4-14.8-47.2z"/><path class="st2" d="M518.5 612.2c13.6 6.8 18.8 23.3 21 35.3M508.2 621c11.4 12.2 17.1 24.2 19.3 36.1"/><path class="st0" d="M407.6 625.9c-.3-4.1 1.4-6.9 3.3-9.8-5.4.1-13-1.2-20.1-7.8-2.1 5.7-3.4 12.5-3.4 19.2 0 3.9.9 7.5 2.4 10.8 8.7-.1 15.5-3.3 19.9-6.1-1.2-1.9-1.9-4-2.1-6.3z"/><path class="st1" d="M410.9 616.1c1.8-2.8 3.8-5.7 4.3-9.8 1.1-8.5-8.8-12.8-15.1-10.8-3.4 1.1-6.9 6.1-9.4 12.9 7.2 6.5 14.9 7.8 20.2 7.7z"/><path class="st8" d="M423.5 641.2c-5.3-.4-10.9-4-13.8-8.9-4.3 2.8-11.2 6-19.9 6.1 4.2 9.2 12.8 15.5 17.8 15.9 6.8.6 8-4 8-4s8.5-1.1 7.9-9.1z"/><path class="st2" d="M400.2 595.5c-6.3 2-12.8 17.3-12.8 32.1s13.4 26.2 20.2 26.7 8-4 8-4 8.5-1.1 8-9.1c-7.4-.6-15.4-7.4-15.9-15.4-.6-8 6.5-11.1 7.7-19.6 1-8.5-8.9-12.7-15.2-10.7z"/><path class="st2" d="M404.8 604.8s-8 14.2-5.7 25.6 11.9 19.9 16.5 19.9"/><path class="st7" d="M196.7 501.9c-13.2 1.1-29.3 41.3-42.5 56.2l11.7 38.7c.2-.2.5-.3.7-.5 27.9-21.6 33-48.9 36.4-51.2 6-2.7 19.4 6.1 33.6 12.9 7.4-10.2 13-24.4 13-31.1-9.1-3.9-38.7-26.1-52.9-25z"/><path class="st8" d="M110.8 555.4s-5.1 1.1-4 10.2c-9.1 5.1-7.4 13.6-7.4 13.6s-4.5 6.8-1.7 11.9c1.3 2.4 10.1 8.2 21.9 11.7l4.8-40.9c-7.6-2.7-13.6-6.5-13.6-6.5z"/><path class="st1" d="m165.8 596.8-11.7-38.7c-1 1.1-2 2.1-3 3-3.9 3.2-8.8 4.2-13.8 3.9l-.9 40.8c9.9.2 20.2-2.1 29.4-9z"/><path class="st0" d="m124.5 562-4.8 40.9c5.2 1.5 10.9 2.6 16.9 2.8l.9-40.8c-4.5-.2-9-1.4-13-2.9z"/><path class="st2" d="M151.2 561.1c-13.6 11.4-40.4-5.7-40.4-5.7s-5.1 1.1-4 10.2c-9.1 5.1-7.4 13.6-7.4 13.6s-4.5 6.8-1.7 11.9c2.8 5.1 40.3 26.4 68.1 5.6L154.1 558c-.9 1.2-1.9 2.2-2.9 3.1z"/><path class="st2" d="M99.5 579.3s29 18.8 46.1 13.6M106.8 565.6s23.9 16.5 40.9 11.4"/><path class="st0" d="M174.3 485c-.3 5.2-1.4 12.3-3.9 20.9 2.5.9 5.9 2.9 9.6 5.2 5.4-7.6 7.9-14.2 9.1-19.1-5-2.7-10.2-5.1-14.8-7z"/><path class="st8" d="M162.8 481.8c-9.7-.6-16.5 3.7-19.9 10.5s-3.7 21.6-.3 23.9c3.4-.6 6.8-3.4 6.8-3.4s1.7 4 5.7 5.7c7.4-4.5 7.4-12.5 12.5-13.1.7-.1 1.6.1 2.7.5 2.6-8.6 3.6-15.6 3.9-20.9-4.6-1.9-8.7-3.1-11.4-3.2z"/><path class="st1" d="M206.3 504.2c-2.1-3.1-9.2-7.9-17.3-12.3-1.1 4.9-3.7 11.6-9.1 19.1 7.2 4.4 15.2 9.9 18.5 10.2 5.7.6 12.5-10.2 7.9-17z"/><path class="st2" d="M198.4 521.3c5.7.6 12.5-10.2 8-17.1s-33.8-21.9-43.5-22.5c-9.7-.6-16.5 3.7-19.9 10.5s-3.7 21.6-.3 23.9c3.4-.6 6.8-3.4 6.8-3.4s1.7 4 5.7 5.7c7.4-4.5 7.4-12.5 12.5-13.1 5.1-.5 25 15.4 30.7 16z"/><path class="st2" d="M149.5 512.7c-2.3-6.8 4.5-18.8 13.1-21.6 8.5-2.8 33 15.4 33 15.4"/><path class="st7" d="M730.8 415.6c-15.7 19.8-17.8 45-26.1 51.6-4.1 3.2-16.5 4.2-31.7 4.9 3.7 13.6 4.3 31.2 4.2 40.7 25.5-2.4 47.2-3.3 51.1-5.2 8-4 7.7-11.1 12.8-22.5 3.6-8.1 7.7-27.2 15.7-38.8-7.4-3.4-19.9-11.9-26-30.7z"/><path class="st0" d="M748.7 400.2c-.5.3-1.1.6-1.6.9l18.3 37.1c1-.5 2-.8 3.2-1.1 2.6-.4 5.8-.7 9-.9l-6.3-38.5c-8.9.2-18.1 1.1-22.6 2.5z"/><path class="st1" d="M730.8 415.6c6.1 18.8 18.6 27.3 25.9 30.7 2.5-3.7 5.4-6.6 8.8-8.2L747.2 401c-6.8 4.2-12.1 9.2-16.4 14.6z"/><path class="st8" d="M799.3 428.6s3.4-7.4-1.7-13.6c3.4-3.4 6.3-10.2-4.5-15.4-3.5-1.4-12.5-2-21.7-1.8l6.3 38.5c5.9-.3 11.9-.2 13.7.6 2.8 1.1 1.7 3.7 2.8 7.1 10.8-4.6 5.1-15.4 5.1-15.4z"/><path class="st2" d="M797.6 414.9c-14.8-8-43.2-4.5-49.5.6M799.3 428.6c-14.8-8-37-5.7-43.2-.6"/><path class="st2" d="M799.3 428.6s3.4-7.4-1.7-13.6c3.4-3.4 6.3-10.2-4.5-15.4-6.8-2.8-35.3-2.3-44.3.6-7.5 4.3-13.3 9.6-17.9 15.5 6.1 18.8 18.6 27.3 25.9 30.7 3.2-4.7 7.1-8.2 11.9-9.2 7.4-1.1 19.9-1.4 22.7-.3 2.8 1.1 1.7 3.7 2.8 7.1 10.8-4.6 5.1-15.4 5.1-15.4z"/><path class="st0" d="M759.6 491.4c-2.7 2-5.6 3.5-8.3 3.7-1.7.2-3.2-.2-4.4-.9-2.1 8.4-4.7 14.5-7 18.7 6.7 1.4 14.7 1.3 20.5-.5.6-5.6.8-13.2-.8-21z"/><path class="st1" d="M735.7 488.6c-7.4-.6-14.2 11.7-7.4 19 2.3 2.5 6.7 4.3 11.6 5.3 2.2-4.2 4.9-10.3 7-18.7-3.4-1.7-5.9-5.2-11.2-5.6z"/><path class="st8" d="M768.1 494.5s3.4-6.8 0-12.5c-1.9 3.2-5 6.7-8.4 9.4 1.5 7.8 1.3 15.4.8 21 2.4-.7 4.5-1.8 6-3.1 8.4-6.2 1.6-14.8 1.6-14.8z"/><path class="st2" d="M768.1 494.5s-11.4 15.4-26.2 6.8"/><path class="st2" d="M728.3 507.6c-6.8-7.4 0-19.6 7.4-19s9.4 7.1 15.6 6.5c6.3-.6 13.4-7.4 16.8-13.1 3.4 5.7 0 12.5 0 12.5s6.8 8.5-1.7 14.8c-7.4 6.8-31.3 5.7-38.1-1.7z"/><path class="st4" d="M543.8 509.5c-4 2.6-10.4 5-16.2-1.9-9.1-10.8-8-28.4-17.1-34.7-9.1-6.3-87-47.8-103.5-56.9-16.5-9.1-37.5-6.3-54 5.1-13.7 9.4-38.7 49.4-46.8 62.7 4.2 3.4 8.6 7 12.9 10.8 7.2-10.4 33.7-47.9 42.5-54.8 10.2-8 43.2-11.9 53.7 10.8 13.9 5.7 40.7 24.4 82.2 36.4.6 8.5-.3 17.6 3.7 29 4 11.4 42.4 17.1 42.4 17.1.5-9.1.5-17 .2-23.6z"/><path class="st4" d="M656.6 591.8c-29.6-13.1-84.4-23-91.3-37.8s3.7-77.6-13.9-90.1c-5.7-5.1-14.8-5.7-18.8-2.3-6.3 13.1 14.8 6.8 10.8 71.6 0 0-3.7 27.6 2 38.9 3.9 7.8 63.6 24.7 102.9 36.9l8.9-17-.6-.2z"/><path class="st2" d="M249.6 527c22.2 11.4 59.7 22.2 59.7 22.2"/><path class="st9" d="M508.8 320.6c-1.7-6.3-3.4-14.8-19.9-11.4-4 9.1 9.1 14.2 19.9 11.4z"/><path class="st2" d="M325.2 487.7c2.3 2.3 8-2.3 10.2-1.7 2.3.6 5.4 6.8 9.4 4.5s2.6-6.3 6-6.8c3.4-.6 7.1 2 7.1 2M363.5 440s2.3 10.2 9.7 9.7c7.4-.6 8.2 10.2 8.2 10.2M401.1 480l17.6-10.5M404.2 516.7s8 8.5 11.4 7.4 11.9 4.5 11.9 4.5M113.4 301.5c16.2-9.8 14.1-24.7 14.1-24.7M116.4 311.4c6.4 4.7 27.4 6.4 27.4 6.4M151.4 334.8s-16.6 16.6-15.4 24.3c6.8 14.1 32 11.5 32 11.5M204.2 384.7c11.9 3.4 11.9 14.9 11.9 14.9M497.4 487.2c-1.1-10.2 14.2-19.3 34.1-23.9M463.9 288.7c1.7 5.1 7.4 3.4 9.1 5.7 1.7 2.3.3 8.2 3.1 11.1 2.8 2.8 9.9-3.1 12.8 3.7M508.8 354.1 523 357M501.4 387.1h14.2M543.5 375.1s6.5-1.7 8.8 1.1c2.3 2.8.3 8.2 2.6 9.4 2.3 1.1 5.1-3.1 8.5-3.1s7.4 5.7 7.4 5.7M581.6 295l-1.7-15.9M632.2 306.4s21.3-1.7 29.8-6.3c8.5-4.5 31.6-2.8 39.5-8.5M636.7 316.6s10.8-.6 14.8 2.8 12.5 2.8 21 3.4c8.5.6 13.6 10.2 13.6 10.2M704.4 292.1c2.3 8.5-4.3 34.1-4.3 34.1M599.1 349.2c9.8 3.2 13.8 13.4 13.8 13.4M643.6 302.4c2.8-5.7 4-19.3 4-19.3M254.7 429.7c18.8 5.1 18.8-7.4 24.4-10.8 5.7-3.4 12.5 4 19.3-13.6M309.8 401.9s-2.8 17.1 1.1 19.9c4 2.8 11.9-.9 16.5 1.4 4.5 2.3 8.5 15.6 8.5 15.6M318.3 392.2c8 .6 9.7-5.1 11.4-10.2s8.5-10.8 8.5-10.8M371.2 358.7s9.1-3.4 12.5-1.1c3.4 2.3-2.3 14.2-1.1 18.2 1.1 4 12.5 2.8 13.6 6.8 1.1 4-2.6 11.1-2 13.9.6 2.8 9.9 2.8 11.7 6.3s1.1 13.4 1.1 13.4M240.5 451.9s9.1-3.4 11.4-1.7c2.3 1.7 1.7 7.4 5.1 8.5 3.4 1.1 14.2-4 15.9-2.8 1.7 1.1.6 5.1.6 5.1 15.9 8.5 63.1 43.8 80.7 72.2"/><path class="st2" d="M263.5 508.8s11.9.9 14.8-3.1c2.8-4 1.4-11.7 4.3-13.4 2.8-1.7 7.4 1.7 17.6-11.9M317.8 537.8s7.7-9.9 11.4-9.9 4 4.5 6.8 4c2.8-.6 7.4-6.5 14.2-3.1M286.5 560.8c-2.3 4 3.4 16.2 3.4 16.2M330.9 563.1s.6 9.1 6.8 9.1c6.3 0 8 7.7 8 7.7M411.6 416.7s10.2-8 13.1-8c2.8 0 7.4 3.4 10.8 1.7s6.3-6.8 13.6-7.4M487.8 405.8s-8 10.8-8.5 22.7c-.6 11.9-5.1 22.7-5.1 22.7M564 509.3s10.8-2.3 11.9-5.7c1.1-3.4 4.5-6.8 11.4-7.4 6.8-.6 14.2-13.6 19.9-14.8M564.5 527.5c6.3-.6 6.5 10.8 8.5 12.5 2 1.7 5.7-8.5 9.7-6.8 4 1.7-.6 9.4 4.5 11.1 5.1 1.7 9.7-2 14.2.3M614 554.8s-3.1 5.4-.9 9.4c2.3 4 6.5 1.4 9.9 4.8s.6 10.2.6 10.2M610.6 479.2c5.1 9.1 22.7 0 24.4 2.3s3.4 8 6.3 9.7c2.8 1.7 9.1-1.7 12.5-.6 3.4 1.1 6.8 9.7 6.8 9.7M521.9 304.1s-4.5 15.4 4.5 20.5c9.1 5.1 11.4 10.8 11.4 10.8"/><circle class="st10" cx="593.5" cy="557.7" r="4.5"/><circle class="st10" cx="260.4" cy="482.6" r="4.5"/><circle class="st10" cx="297.9" cy="445.6" r="4.5"/><circle class="st10" cx="313.2" cy="509.3" r="4.5"/><circle class="st10" cx="345.6" cy="549.7" r="4.5"/><circle class="st10" cx="264.3" cy="557.7" r="4.5"/><circle class="st10" cx="355.9" cy="467.3" r="4.5"/><circle class="st10" cx="397.9" cy="449.1" r="4.5"/><circle class="st10" cx="336" cy="501.9" r="4.5"/><circle class="st10" cx="413.3" cy="495.7" r="4.5"/><circle class="st10" cx="417.3" cy="543.4" r="4.5"/><circle class="st10" cx="322.3" cy="364.3" r="4.5"/><circle class="st10" cx="267.7" cy="389.9" r="4.5"/><circle class="st10" cx="180.2" cy="399" r="4.5"/><circle class="st10" cx="134.1" cy="331.4" r="4.5"/><circle class="st10" cx="352.5" cy="401.3" r="4.5"/><circle class="st10" cx="433.8" cy="385.9" r="4.5"/><circle class="st10" cx="453.7" cy="424.6" r="4.5"/><circle class="st10" cx="509.4" cy="446.8" r="4.5"/><circle class="st10" cx="577.6" cy="474.1" r="4.5"/><circle class="st10" cx="622.5" cy="495.1" r="4.5"/><circle class="st10" cx="589.7" cy="515.4" r="4.5"/><circle class="st10" cx="593.5" cy="557.7" r="4.5"/><circle class="st10" cx="568.5" cy="366.6" r="4.5"/><circle class="st10" cx="522.5" cy="338.2" r="4.5"/><circle class="st10" cx="551.5" cy="304.6" r="4.5"/><circle class="st10" cx="611.2" cy="291" r="4.5"/><circle class="st10" cx="719.2" cy="305.8" r="4.5"/><circle class="st10" cx="668.6" cy="310.3" r="4.5"/><circle class="st10" cx="644.7" cy="338.8" r="4.5"/><path class="st6" d="m579.9 319.4-23.9 3.4s-10.3.9-23.9 21c-17.6 26.2-4 35.3-29.6 69.9-4.5 9.1 10.8 17.6 21.6 10.2 4.5-3 11.1-12.7 17.3-23-3.4-9.8-3.1-22.5 6-38.4 4.2-7.4 13.9-14.1 28.2-14.4l8.2-10.6-3.9-18.1z"/><path class="st1" d="M562.8 326.5c2.3 7.1 3.1 19 23 22.5 4.4.8 8.9.8 13.2.3-1.9-4.3-4.4-12.4-5.8-27-11.4 2.8-24.3 6-30.4 4.2z"/><path class="st0" d="M626.5 330.2c-1.1-2.8-6.3-10.8-13.1-11.9-3-.5-11.1 1.6-20.2 4 1.4 14.6 3.9 22.7 5.8 27 15.2-1.9 28-10.7 27.5-19.1z"/><path class="st2" d="M562.8 326.5c2.3 7.1 3.1 19 23 22.5 19.9 3.4 41.2-8 40.7-18.8-1.1-2.8-6.3-10.8-13.1-11.9-6.8-1.1-43.3-.5-50.6 8.2z"/><circle class="st9" cx="599.8" cy="330.3" r="9"/><path class="st6" d="M626.5 330.2c-1.1-2.8-6.3-10.8-13.1-11.9-6.8-1.1-43.4 8.5-50.6 8.2-7.2-.3-23.4.6-29-7.1 13.6-9.1 19.6-12.5 32.1-18.8 12.5-6.3 56-12.8 64 2 8.5 21.9-3.4 27.6-3.4 27.6z"/><path class="st0" d="M268.9 322.3c-2.4.4 3.1 35.7 10.4 59.4 12.1-10.3 22.5-13.2 28.8-13.9-13.9-19.4-36.7-46-39.2-45.5z"/><path class="st1" d="M318.3 384.8c-1.1-3.4-5.1-9.7-10.3-17-6.3.7-16.7 3.6-28.8 13.9 3 9.9 6.3 17.7 9.5 20.2 10.9 8.5 33.6-4.6 29.6-17.1z"/><path class="st0" d="M367.8 347.1c-8.1-22.4-23-54.1-25.5-54.4-2.4-.3-6.6 35.2-6 60 14.4-6.7 25.2-6.6 31.5-5.6z"/><path class="st1" d="M367.8 347.1c-6.3-1-17.1-1-31.5 5.6.3 10.3 1.3 18.8 3.7 22 8.1 11.1 33.5 4.6 33.1-8.5-.1-3.6-2.2-10.7-5.3-19.1zM396.2 354c-3.6 9.7-5.7 17.9-4.6 21.9 3.5 13.3 29.5 16.6 33.9 4.3 1.2-3.4 1.8-10.8 2.1-19.8-5.5-3.3-15.5-7.3-31.4-6.4z"/><path class="st0" d="M423.8 300.4c-2.2-1.1-19.1 30.3-27.6 53.6 15.8-.9 25.9 3.1 31.3 6.3.7-23.8-1.4-58.8-3.7-59.9z"/><path class="st1" d="M447.1 397.7c.9 11 21 17.1 26.1 8 1.4-2.5 2.9-8.2 4.4-15.3-3.8-3.3-11.2-7.8-23.8-9.3-4.1 7.2-6.9 13.4-6.7 16.6z"/><path class="st0" d="M482.9 342.7c-1.5-1.2-19.2 21.3-29.1 38.5 12.6 1.4 20 6 23.8 9.3 3.8-18.7 6.9-46.6 5.3-47.8z"/><path class="st2" d="M288.8 401.9c10.8 8.5 33.5-4.5 29.6-17.1-4-12.5-46.1-63.1-49.5-62.5-3.4.5 9.1 71 19.9 79.6zM340 374.7c8.1 11.1 33.5 4.6 33.1-8.5-.5-13.1-27.4-73.2-30.8-73.5-3.5-.4-10.4 70.9-2.3 82zM391.6 375.8c3.5 13.3 29.5 16.6 33.9 4.3 4.4-12.4 1.4-78.1-1.6-79.7-3.1-1.6-35.7 62.1-32.3 75.4zM447.1 397.7c.9 11 21 17.1 26.1 8 5.1-9.2 11.8-61.4 9.6-63.1-2.1-1.6-36.6 44.2-35.7 55.1z"/></svg>