<svg version="1.1" id="Calque_1" xmlns="http://www.w3.org/2000/svg" x="0" y="0" viewBox="0 0 900 900" style="enable-background:new 0 0 900 900" xml:space="preserve"><style>.st0,.st1,.st2,.st3{fill:#ffce00;stroke:#000;stroke-width:3.3598;stroke-linecap:round;stroke-linejoin:round;stroke-miterlimit:10}.st1,.st2,.st3{fill:#fff}.st2,.st3{fill:red}.st3{fill:none}.st4{fill:#fff}.st5{fill:#ff7300}.st6{stroke:#000;stroke-width:3.3598;stroke-linecap:round;stroke-linejoin:round;stroke-miterlimit:10}.st6,.st7{fill:#0068ff}.st8{fill:red}.st10,.st11,.st12,.st9{fill:none;stroke:#000;stroke-width:2.5198;stroke-linecap:round;stroke-linejoin:round;stroke-miterlimit:10}.st10,.st11,.st12{fill:#ff7300;stroke-width:3.3598}.st11,.st12{fill:#4c4a53}.st12{fill:#bf9b00}.st13{fill:#ffce00}</style><path class="st0" d="M557.6 493.6c1.7.8 11.7 12.9 21.1 14.4 9.4 1.5 44.2-15.6 44.2-15.6l-.9-30.8-45-43.9-49 41.1 29.6 34.8z"/><circle class="st1" cx="658.1" cy="669.5" r="9.5"/><circle class="st1" cx="658.1" cy="669.5" r="3.4"/><path class="st2" d="m671.9 659.2 1.6 20.6 13.2.6-1.3-20.2c-5-.5-9.8-.9-13.5-1z"/><path class="st0" d="M709.9 662.6s-12.6-1.5-24.6-2.5l1.3 20.2 17.6.8 5.7-18.5z"/><path class="st1" d="m665.8 679.4 7.6.3-.8-10.2-7.6.6c.4 4.7.8 9.3.8 9.3z"/><path class="st1" d="M664.5 664.4c.2 1.7.3 3.7.5 5.7l7.6-.6-.4-5.5-7.7.4z"/><path class="st1" d="M671.9 659.2c-4.6-.2-7.7 0-7.7.8s.2 2.4.3 4.5l7.7-.4-.3-4.9z"/><path class="st0" d="M643.7 536.6s-2.5 52 12.2 62.4c14.7 10.5 32.3 28.5 45.4 64.8 15 2.4 19.3 4 19.3 4s7.1.2 13.9-6.2c-5-41.6-30.2-67.2-33.2-76.4s2.5-58.4 2.5-58.4l-60.1 9.8z"/><path class="st1" d="M636.9 700.4c-6.1-.7-10.8-.9-14.4-2.2-2.4 2.9-3.6 5.5-3.3 7.2.7 4.3 27.5 2.6 54.3-.1V699s-24.6 2.7-36.6 1.4z"/><path class="st0" d="m739.7 663-40.5 1.3-2.8 6.7s-25.6 1.3-44.1 7.1c-12.9 4.1-24.4 13.1-29.9 20.1 3.5 1.3 8.3 1.4 14.4 2 12 1.3 36.5-1.3 36.5-1.3v6.3c27-2.8 54.1-6.6 54.1-6.6l12.3-35.6z"/><path class="st1" d="M709.9 669.5c.4 1.1 3.6 31.2 3.6 31.2l35.4-3.6-7.1-27.6h-31.9z"/><path class="st3" d="M626.8 707.1c.6-5.5 4.6-9.2 4.6-9.2M634.7 708c.9-6.7 1.1-6.6 2.9-10.1M641.9 708c0-5 3.6-10.1 3.6-10.1"/><path class="st2" d="M697.3 661.3c-5 2.9-3.4 10.1.9 11.8 4.4 1.7 39.8.8 43.6 0 3.8-.8 4.6-12.2-2.1-12.6s-37.3-2.1-42.4.8z"/><path class="st1" d="M756.5 698.4c3.7-1.7 1.1-11.6-4.8-11.6s-77.7 6.5-82.3 8c-4.6 1.5-8.1 8.3-5.4 10.1 2.7 1.6 88.8-4.8 92.5-6.5z"/><path class="st3" d="M654.7 697.9c-2.5 4.6-2.7 9.2-2.7 9.2"/><circle class="st1" cx="447" cy="667.2" r="9.5"/><circle class="st1" cx="447" cy="667.2" r="3.4"/><path class="st2" d="m460.5 656.9 1.9 20.6 11.3.5-1.3-20.3c-4.5-.4-8.7-.7-11.9-.8z"/><path class="st0" d="M498.8 660.3s-14-1.7-26.5-2.7l1.3 20.3 19.5.8 5.7-18.4z"/><path class="st1" d="M460.5 656.9c-4.5-.2-7.4 0-7.4.8 0 .7.2 2.1.3 3.9l7.5-.3-.4-4.4zM454.7 677.1l7.6.3-.9-10.4-7.6.2c.4 4.9.9 9.9.9 9.9z"/><path class="st1" d="M453.3 661.5c.2 1.7.3 3.6.5 5.6l7.6-.2-.5-5.8-7.6.4zM408.8 699.8c-.8 1.8-1.2 3.6-1.2 5.4 0 4.2 47.1 3.8 48.8 0 .3-.7-4.2-1.8-.7-2.5l-.1-1c.1 0-31.3.9-46.8-1.9z"/><path class="st0" d="m595.9 510.6-13.8 12.1s-26.3 25-37 45.2-56.9 94.1-56.9 94.1l-2.8 6.7s-25.6 1.3-44.1 7.1c-15.5 5-28.6 14.5-32.4 23.9 15.5 2.8 47 1.8 47 1.8l.1 1c16.5-3.4 60.6-7.1 60.6-7.1l12.2-34.9s28.3-43.8 42.8-60.1c16.4-18.4 44.1-29 44.1-29l6.3-48-26.1-12.8z"/><path class="st1" d="M498.8 667.2c.4 1.1 3.6 31.2 3.6 31.2l35.4-3.6-7.1-27.6h-31.9z"/><path class="st2" d="M486.2 658.2c-5 2.9-3.4 10.9.9 12.6 4.4 1.7 44 .8 47.8 0 3.8-.8 4.6-12.2-2.1-12.6s-41.5-2.9-46.6 0z"/><path class="st1" d="M542.5 701.5c3.7-1.7-3.4-13-9.2-13s-78.4 7.3-83 8.8-4.5 11-1.1 11 89.5-5.1 93.3-6.8z"/><path class="st3" d="m420.7 707.4 2.1-9.3M429.5 708.2l2.1-10.1M438.6 707.1l.9-9M413.1 707.1l3-10.8"/><path class="st2" d="M746.2 501c-29.8-53.1-34.4-73.1-40.7-74.7-6.2-1.6-15.7.2-19.8 10.2-4.1 10 13.9 35 36.5 74.2 6.2 10.8 12.7 22.7 18.9 34.7l24-11.7c-6.6-11.3-13.1-22.4-18.9-32.7z"/><path class="st0" d="M632.4 447c1.3 0 36.9 16 36.9 16l-36.9 22.6-7.2-8.7-5-24 12.2-5.9z"/><path class="st4" d="M137.5 524.8c-9.1-6-18.7-75.9-21.9-79.6-.7-.8-1.9-1.9-3.4-3.2-1.5 3.3-2.5 5.2-2.5 5.2s15.4 80 23.5 84.9c8.1 4.9 51-17.6 51-17.6l-.6-7.1c-13 7.5-39.4 21.9-46.1 17.4z"/><path class="st5" d="M115.6 445.1c3.2 3.7 12.9 73.7 21.9 79.6 6.7 4.5 33.1-9.9 46.1-17.5l-3.4-43.3s-21 3.9-25.5.3-11.8-40.3-31.9-55.7c-2.3 13.5-7.6 26.5-10.7 33.4 1.5 1.3 2.8 2.5 3.5 3.2z"/><path class="st3" d="M184.2 514.4s-42.9 22.4-51 17.6c-8.1-4.8-23.5-84.9-23.5-84.9s8.1-20.2 11.5-40.1c22.6 16.7 29.1 53.7 33.6 57.3 4.5 3.6 25.5-.3 25.5-.3l3.9 50.4z"/><circle class="st3" cx="132.3" cy="441.5" r="3.8"/><circle class="st3" cx="132.3" cy="455.8" r="3.8"/><circle class="st3" cx="132.3" cy="473.2" r="3.8"/><circle class="st3" cx="137.5" cy="489.6" r="3.8"/><circle class="st3" cx="148.5" cy="476" r="3.6"/><circle class="st3" cx="160.6" cy="481.8" r="3.8"/><circle class="st3" cx="155" cy="496.6" r="3.8"/><circle class="st3" cx="139.9" cy="505.5" r="3.8"/><path class="st6" d="M127.2 531.7c-.8-2.9 1.8-16 12.3-13.6 6.6 1.5 10.1 11.5 8.7 16.8-1.3 5.3-5.3 9.8-10.5 9.8-7.2 0-9.1-7.9-10.5-13z"/><path class="st7" d="M112.9 525.4c-1-2.9-6.4-2.9-8.1.2-1.5 2.8 2.9 13.6 11.3 16l.5-10.1c-1.6-1.5-3-4-3.7-6.1z"/><path class="st4" d="M118.6 533.2c-.7-.3-1.4-.9-2-1.6l-.5 10.1c1.1.3 2.2.5 3.4.5 3.4 0 6.6-.6 9.4-1.5l-2.5-8.4c-3.2 1.1-6.1 1.7-7.8.9z"/><path class="st8" d="M136.7 527.3c-1.5.9-6 3.4-10.3 5l2.5 8.4c5.8-1.9 9.7-5.1 10.5-7.1 1-2.9-.2-7.9-2.7-6.3z"/><path class="st3" d="M136.7 527.3c-2.5 1.5-14 7.9-18.1 6-2.4-1.1-4.8-4.8-5.7-7.8-1-2.9-6.4-2.9-8.1.2-1.7 3.1 4 16.5 14.7 16.5s17.9-4.9 19.1-7.7c1-2.9.6-8.8-1.9-7.2z"/><path class="st9" d="M107.5 524.1c1.3 8.3 8.3 13.4 8.3 13.4"/><path class="st3" d="M133.5 538.8c5.3 5 10.2-3.8 10.1-7.6-.2-3.9-2.2-8.7-6.7-8.7s-4.8 7.2-4.8 7.2"/><path class="st6" d="M114.1 399.5c-.8-.1-1.7-.1-2.4 0 2.8 4.7 5 11.7 5 21.2-.1 15.4-5.8 22.7-12.7 23.6 1.3 2.9 3.3 4.7 5.7 4.5 5.6-.3 11.4-10 13.1-22 1.7-12-1.1-26.4-8.7-27.3z"/><path class="st6" d="M116.7 420.7c0-9.5-.6-17.6-5-21.2-6 .6-9.1 5.9-9.1 5.9s-.8 17.2-1.1 25.4c-.2 4.6.7 9.9 2.4 13.5 9.7 1.7 12.7-8.3 12.8-23.6z"/><path class="st7" d="M75 412c0 2.8 7.1 5.5 7.1 5.5s4.2-.8 9.2-1.7l-3.2-11.4c-5.9 1.9-13.1 5.4-13.1 7.6z"/><path class="st4" d="M92.1 403.3c-1.2.3-2.5.7-3.9 1.2l3.2 11.4c3.6-.7 7.6-1.3 10.8-1.8l-1.1-11.7c-3.1-.1-6.1.2-9 .9z"/><path class="st8" d="M108.7 403.3c-2.4-.7-5-1-7.8-1L102 414c2.4-.4 4.2-.7 5-.8 3.2-.3 6.6-8.6 1.7-9.9z"/><path class="st3" d="M82.1 417.5S75 414.8 75 412s11.3-8.2 17.1-9.6c5.8-1.3 11.8-.5 16.6.8s1.5 9.7-1.8 9.9c-3.2.4-24.8 4.4-24.8 4.4z"/><path class="st9" d="M89.2 407.3c-5.4.6-12.4 7.3-12.4 7.3"/><path class="st7" d="M78 418.8c-.7 2.6 8.5 9.9 8.5 9.9l6.7-5.8c-.9-3.4-2.4-8.9-3.9-11.8-4.8 1.9-10.8 5.6-11.3 7.7z"/><path class="st8" d="M110.8 413.2c-1.3-1.8-5.6-2.7-9.8-3.1 1.2 3.5 1.8 9.2 2 12.3l3.4.2c0-.1 6.5-6.4 4.4-9.4z"/><path class="st4" d="M93.4 410c-1.1.1-2.5.5-4 1.1 1.5 2.9 3 8.5 3.9 11.8l1.1-.9 8.6.4c-.3-3-.8-8.7-2-12.3-3-.2-5.8-.2-7.6-.1z"/><path class="st3" d="M86.5 428.7s-9.2-7.3-8.5-9.9c.7-2.6 10.9-8.4 15.4-8.7s15.3.3 17.4 3.2-4.4 9.3-4.4 9.3l-12-.6-7.9 6.7z"/><path class="st9" d="M79.6 422.3c2.4-3.6 10.1-6.5 10.1-6.5"/><path class="st4" d="M94 417.5c1.9 2.8 2.8 7.7 3.1 11.3.1 0 .2-.1.3-.1 1.8-.6 3.4-.4 4.7-.2-.2-3.3-.8-8.8-2.6-12.6-2.1.3-4 .9-5.5 1.6z"/><path class="st7" d="M92.5 418.2c-3.8 2.1-13.6 8.8-14.4 10.5-.8 1.8 2.4 9.8 4.1 9.3 1.7-.4 9.7-7.5 15-9.2-.3-3.6-1.1-8.6-3.1-11.3-.6.2-1.1.4-1.6.7z"/><path class="st8" d="M108.7 416.2c-2.9-.8-6.3-.7-9.3-.2 1.8 3.9 2.4 9.4 2.6 12.6 2.5.6 4.4 1.7 6.6.2 2.9-2 5.7-11.3.1-12.6z"/><path class="st3" d="M78 428.7c-.8 1.8 2.4 9.8 4.1 9.3 1.7-.5 9.9-7.7 15.2-9.3 5.3-1.6 7.9 2.4 11.4 0 2.9-1.9 5.5-10.3 0-11.8-5.5-1.4-12.4-.9-16.2 1.2-3.7 2.2-13.6 8.9-14.5 10.6z"/><path class="st9" d="M79.3 433.8c7.2-7.9 17.3-10.8 17.3-10.8"/><path class="st7" d="M82.1 443.9c0 2.1 5.1 5.9 7.6 3.5 1.7-1.6 4.6-4.9 7.6-7.1-.6-2-1.8-6.2-2.4-8.3-6 3.8-12.8 10.5-12.8 11.9z"/><path class="st8" d="M111.6 429.6c-2.3-1.5-5.5-1.1-8.6-.9.5 1.9.8 5.6.3 9.2 3.1.3 6.1 2 8.2.7 2.7-1.5 2.6-7.4.1-9z"/><path class="st4" d="M103.1 428.7h-.8c-1.1 0-4.3 1.3-7.4 3.3.5 2.1 1.8 6.2 2.4 8.3 1.4-1.1 2.9-1.9 4.1-2.2.7-.2 1.3-.2 2-.1.5-3.7.2-7.4-.3-9.3z"/><path class="st3" d="M89.7 447.4c2.4-2.4 7.9-8.6 11.7-9.3 3.8-.8 7.6 2.2 10.2.6 2.6-1.6 2.5-7.5 0-9.1-2.5-1.6-5.7-2.1-10.2-.8-6.5 1.8-19.3 13.1-19.3 15.2 0 2.1 5.2 5.8 7.6 3.4z"/><path class="st9" d="M84.2 446.9c2.4-4.6 14.9-12.5 14.9-12.5"/><circle class="st0" cx="211.6" cy="264.1" r="11.3"/><circle class="st0" cx="211.6" cy="264.1" r="4.6"/><circle class="st0" cx="134.3" cy="304.9" r="11.3"/><circle class="st0" cx="134.3" cy="304.9" r="4.6"/><circle class="st6" cx="261" cy="324.6" r="11.3"/><circle class="st6" cx="261" cy="324.6" r="4.6"/><circle class="st6" cx="165.6" cy="283.3" r="11.3"/><circle class="st6" cx="165.6" cy="283.3" r="4.6"/><circle class="st6" cx="146.7" cy="362.6" r="11.3"/><circle class="st6" cx="146.7" cy="362.6" r="4.6"/><path class="st0" d="M275.7 418.2s-.8-28.3-.8-46.2c0-17.9 11.7-33.3 2.6-39.8s-37.3 6.9-38.7 22.9c-2.8-8.3-5.9-21.2-5.9-41.1 0-19.9 5.6-41.7 0-43.4s-24.9 1.7-51.2 14.5c-26.3 12.9-51.5 33.8-51 36.4.5 2.5 16.8 11.7 33 23.2s28.8 23.4 28.8 23.4-22.7-6.5-33.3-2.4c-10.7 4.1-14.3 12.6-11.8 16.9 2.5 4.3 25.7 7.6 42 19.6s40.1 33.7 40.1 33.7 31.8-1.1 32.4-2.1c.6-1.1 13.8-15.6 13.8-15.6z"/><path class="st0" d="M185 292.1v1c.5-.3.9-.4 1.4-.7l-1.4-.3zM213.8 404l-.7 8 6.5.9.8-8.2z"/><path class="st0" d="m220.4 404.7 47.2 5.8c-1-3.9-2.4-12-2.6-27.6 0-2 0-3.9.1-5.8l-41.7-5.5-3 33.1z"/><path class="st0" d="m223.5 371.6-6.5-.9-3.2 33.3 6.6.7zM219.6 412.9l44 5.6 5.2-4.5s-.5-.8-1.2-3.4l-47.2-5.8-.8 8.1zM161.4 372.8c-6.1 2.4-7.6 5-4.5 7 2.2 1.4 13.6 5 24.4 9.9l.6-16.3c-8.1-1.5-16-2.3-20.5-.6zM191.7 299.6l-6.9-1.4-.9 21.5 7 1.1z"/><path class="st0" d="m183.9 319.7-.2 7.3 7 1 .2-7.2zM204 368.9c4.2 4.7 6.7 8.4 6.7 9.7 0 1.6-10.2-1.3-21.7-3.8l-.6 18.4c2.1 1.1 4 2.3 5.7 3.4 2.3 1.5 5 3.6 7.8 6l11.8 1.4 3.1-33.3-12.8-1.8z"/><path class="st0" d="m221.2 325.4-30.3-4.6-.2 7.2 29.8 4zM272.3 340.1c-1.2-.6-13.4 3.2-20.7 11.2-4.1 4.5-6.6 10.2-8.6 14.4l22.9 2.8c2.4-17.2 8.2-27.6 6.4-28.4z"/><path class="st0" d="m217.7 362.6 2.9-30.6-29.8-4-.9 27.3c1.8 1.6 3.6 3.1 5.3 4.7l22.5 2.6zM223.5 371.6l.8-8.2-6.6-.8-.7 8.1z"/><path class="st0" d="m204 368.9 12.9 1.8.8-8.1-22.6-2.7c3.4 3.2 6.4 6.3 8.9 9zM191.7 299.6l-.8 21.2 30.2 4.6.9-9.8c-.3-3.7-.4-7.1-.5-10.1l-29.8-5.9zM143.2 321.5c-.1.1-.2.3-.3.3 6.1 3 19.2 13.8 36.4 25.5 1.2.8 2.4 1.6 3.4 2.4l.8-22.8-40.3-5.4zM184.8 298.2l-7.3-1.4c-10.8 5.5-20.9 11.8-27.8 17.7l34.3 5.2.8-21.5zM190.7 328l-7-.9-.8 22.8c2.4 1.8 4.7 3.6 6.9 5.5l.9-27.4z"/><path class="st0" d="m183.9 319.7-34.3-5.2c-2.8 2.4-5 4.7-6.5 7l40.5 5.5.3-7.3zM189.1 374.7c-2.4-.5-4.7-1-7.1-1.4l-.6 16.3c2.4 1.1 4.9 2.3 7.1 3.4l.6-18.3zM213.8 404l-11.8-1.4c3.5 2.9 7.4 6.2 11.1 9.5h.1l.6-8.1z"/><path class="st0" d="M213.1 412h0c2.1 1.9 4.1 3.8 6 5.5l.4-4.7-6.4-.8zM219.6 412.9l-.4 4.7c6.6 6 11.7 10.9 11.7 10.9l25.5-3.8 7.2-6.2-44-5.6zM213.1 412h0zM191.7 299.6l.2-6.1-5.5-1.1c-.5.3-.9.4-1.4.7l-.2 5.1 6.9 1.4zM220.5 332l3.7.5c-.4-2.3-.8-4.5-1.1-6.8l-2-.3-.6 6.6zM220.5 332l-2.9 30.6 6.6.8 2-21.3c-.8-3.1-1.5-6.3-2.1-9.5l-3.6-.6zM234.2 364.6c-2.7-5.3-5.5-13.4-7.8-22.5l-2 21.3 9.8 1.2z"/><path class="st0" d="M223.1 325.7c-.3-1.7-.4-3.4-.6-5-.2-1.8-.3-3.4-.4-5l-.9 9.8 1.9.2zM221.6 299.5c.3-10.7 1.8-16.9 2.3-20.8-6 .8-18.4 5.1-31.9 11.1l-.2 3.7 29.8 6zM192 289.8c-1.8.8-3.7 1.7-5.6 2.6l5.5 1.1.1-3.7zM223.5 371.6l41.7 5.5c.2-3.1.4-6 .8-8.7l-22.9-2.8c-1.4 3.2-2.4 5.5-3.5 5.5-1.4 0-3.4-2.4-5.5-6.6l-9.8-1.2-.8 8.3zM184.9 293.1c-2.5 1.2-5 2.4-7.5 3.7l7.3 1.4.2-5.1z"/><path class="st0" d="m191.7 299.6 29.9 5.9v-6l-29.7-6-.2 6.1z"/><circle class="st3" cx="242.7" cy="388.9" r="3.6"/><circle class="st3" cx="170.4" cy="378.4" r="3.6"/><circle class="st3" cx="202" cy="389.3" r="3.6"/><circle class="st3" cx="204.2" cy="344.1" r="3.6"/><circle class="st3" cx="172.7" cy="333.4" r="3.6"/><circle class="st3" cx="174" cy="309.6" r="3.6"/><circle class="st3" cx="213.5" cy="311.7" r="3.6"/><circle class="st3" cx="209.9" cy="289.9" r="3.6"/><circle class="st3" cx="259.2" cy="359" r="3.6"/><circle class="st10" cx="195.9" cy="320.7" r="13"/><circle class="st10" cx="195.9" cy="320.7" r="4.6"/><circle class="st0" cx="220.2" cy="374.9" r="10.3"/><circle class="st0" cx="220.2" cy="374.9" r="4.6"/><path class="st0" d="m572.2 397.7-19.3 1L530 396l-56.8 3.5s9.1 50-1.9 56.3-27.1 35.9-32.7 38.5c-11.2 5.3-136.2-33.5-137.9-37.3-1.8-3.8-12-37.3-21.8-42.5-5.3-2.8-16.9-7.3-26.7-10.7-.5 2.5-1.3 4.9-3.1 5.5-2.7.9-11.3-2.1-17.1-4.5-1 2.8-1.3 5.7-.3 6.9 1.9 2.3 9.5 3.5 12.9 8 3.4 4.4 35.3 52 42 57 6.7 5 124.9 55.7 161.3 53.2 15.5-1.1 26.3-16.6 26.3-16.6l47.9-20 50.1-95.6z"/><path class="st1" d="M248.9 409.3c1.8-.6 2.7-2.9 3.1-5.5-8.2-2.8-15.4-4.8-16.6-4.3-1.3.5-2.7 2.9-3.6 5.3 5.8 2.4 14.4 5.4 17.1 4.5z"/><path class="st2" d="M290.8 393.6c10.5-2.5 23.4 5.8 21.3 26.1s-22.7 45.8-37.9 61.7-34.6 19.9-47.8 19.9-14.8-43.4-14.8-43.4 30.2-9.5 48.7-26c18.5-16.6 20-35.8 30.5-38.3z"/><path class="st6" d="M218.6 474.1s25.9 1.4 46.6-19.6c20.7-21 24.7-40.5 27.5-44.5 2.8-4 9.6 3.8 7.5 9-2.1 5.2-11.4 30.4-28.7 45.9-17.4 15.6-48.1 20.1-48.1 20.1l-4.8-10.9z"/><path class="st3" d="m313.1 492.4 2.5 3.9"/><path class="st1" d="M337.1 506.4c5.6 3.8 10.5 6.9 11.7 6.9 3.1 0 6.7-8.7 5.6-11.9s-8.4-6.9-8.4-6.9l-3.2-1.7-5.7 13.6zM320.5 480.9l-4 10.8s11.3 8.3 20.6 14.5l5.7-13.7-22.3-11.6zM353.9 466c-11.5-2.9-25.5-6-25.5-6l-3.1 8.3 24.1 8.7 4.5-11z"/><path class="st1" d="M368.3 470.8c-.8-1-7.1-2.9-14.5-4.8l-4.5 10.9 3.9 1.4s10.8 4.9 12.9 3.1c2-1.7 4.2-8.1 2.2-10.6zM349.3 476.9l-24.1-8.6-4.7 12.6 22.3 11.7z"/><path class="st1" d="m342.8 492.6 3.2 1.7s8.4 2.5 11.8 2.5 7-6.7 5-10.3c-1.9-3.6-9.5-8.1-9.5-8.1l-3.9-1.4-6.6 15.6z"/><path class="st6" d="M320.8 474.4c3.9-11.4-.3-17.3-.3-17.3-3.9-2.3-9.3-.8-7.3 6.2.8 8.1-9.6 21-10.1 21.5-2.8 2.5.8 7 4.2 6.7 4.2-2.4 10.6-8.8 13.5-17.1z"/><path class="st6" d="M330.1 459.9c-1.3-4.5-6.6-7.3-9.6-2.9 0 0 4.1 6 .3 17.3-2.9 8.3-9.2 14.7-13.4 17.1-.3 3.9 5.1 6 8.3 4.8 3.4-1.4 8.4-7.8 11.8-14.5 3.4-6.7 3.9-17.2 2.6-21.8z"/><path class="st9" d="m325.7 461.3 4.4-1.4M325.7 466.6l4.2.3M325.2 471.3l5.1 1M324.4 476.9l3.9 1M322.4 480.4l4.2 2.4M320.5 484.8l3.6 3M317.7 488.7l2.4 3"/><path class="st3" d="M219.1 479.6s31.6-.4 49.1-19.7c17.5-19.2 27.2-43.2 27.2-43.2"/><path class="st0" d="M292 487.3c-1.4-2.8-2.8-5.5-4.2-8.3l-25.1-4.9-.2 3.4 2.7 4.5 26.8 5.3h0zM292 487.5h0l-3.9 32.3c1.7 2.8 3.1 5 4.2 6.6l4.5-29.1c-1.5-3.3-3.2-6.6-4.8-9.8z"/><path class="st0" d="m296.8 497.1-4.5 29.1c.8 1.1 1.3 1.8 1.6 2.2 3.6 4 16.1-2.8 14.5-7.4-.6-1.5-5.5-11.7-11.6-23.9zM265.2 482.1c8.2 13.7 17.2 28.6 22.9 37.7l3.8-32.3-26.7-5.4zM245.7 449.5s4.5 7.7 10.9 18.3l2.2-18.3h-13.1zM260.1 473.7c.8 1.3 1.5 2.5 2.3 3.9l.2-3.4-2.5-.5zM292 487.5c0-.1-.1-.1-.1-.2l.1.2h0z"/><path class="st0" d="M264 449.5h-5.3l-2.2 18.3c1.1 1.8 2.3 3.9 3.5 5.9l2.5.5 1.5-24.7zM287.8 479c-7.8-15.5-14.9-29.5-14.9-29.5h-8.8l-1.4 24.6 25.1 4.9z"/><circle class="st3" cx="271.5" cy="466" r="3.6"/><circle class="st3" cx="283" cy="494.7" r="3.6"/><circle class="st3" cx="300.6" cy="518" r="3.6"/><path class="st0" d="M224.2 424.7c-5.6 6.3-7 14.1-3.9 20.3 3.1 6.1 10.7 17.6 17.4 16.2 6.7-1.3 5-4.5 9.5-6.7 3.3-1.6 16.1-2.2 24.1-2.4-4.1-13.4-9.9-27.2-14.7-35.4-10 .8-28 3.1-32.4 8z"/><path class="st1" d="M276.3 443c3.7-1.1 3.4-7.9-3.9-9.3 4.5-2.7.8-9-4.2-9 3.6-1.8-.8-8.2-5.9-8.2-1.1 0-3.1.1-5.7.3 4.8 8.1 10.6 22 14.7 35.4 2.9-.1 5.3-.1 6.1-.1 3.3-.1 3.9-8.9-1.1-9.1z"/><path class="st3" d="M268.1 424.7c-12.5-1.8-29.1 2.6-29.1 2.6M272.3 433.7c-12.5-1.8-29.7 2.6-29.7 2.6M276.3 443c-11.7-1.5-31.8 3.5-31.8 3.5"/><path class="st2" d="M204.1 448.9c-2.9-.8-6-1.8-9-2.9-2.4-.9-4.6-1.8-6.9-2.9-1.1 7.6-1.8 21.1 1.7 41.9 3.5 21.3 8.7 37.5 12.2 47 4-1.5 8.4-3.2 12.4-4.8-2.8-8.2-6.2-22-8.5-43-1.9-17.6-2.2-28.7-1.9-35.3z"/><path class="st0" d="M188.2 443.1c-11.5-5.1-21.4-11-21.4-11s-2.5 7.3 4.5 49.6c7 42.3 16 55.6 16 55.6S194 535 202 532c-3.4-9.5-8.7-25.8-12.2-47-3.4-20.8-2.7-34.3-1.6-41.9z"/><path class="st6" d="M219.4 452c-1.3-.3-7.6-1.1-15.3-3.1-.3 6.7-.1 17.6 1.8 35.4 2.3 21 5.7 34.8 8.5 43 7.5-3 13.6-5.9 13.9-7.2.6-3.4-4.8-67.2-8.9-68.1z"/><path class="st3" d="m166.7 441.5 8.4 1.6M166.7 448.5l9.3.4M167.5 454.8h8.5M168.5 461.7h7.5M169.3 468.3h8.1M170.4 475h7.8M171.3 481.8h7.8M172.3 488.1h7.9M174 493.6h7.6M174.7 500.1l8.1-1M176.2 506.4l8-.9M177.8 512.7l8.6-.9M180.2 518.6l7.1-.8M181.6 524.8l8.6-1.5M185 532.1l7.5-2.5M209.9 457.1l11.2-.9M211.6 464.9l10.6-.9M211.6 472.2l12.3-.9M213.8 479.1l11-.8M214.4 487.4l11.3-.9M216.2 495.1l9.7-.8M217.7 504.1l9.8-1.2M217.9 511.8l9.6-.8M218.6 518.6l9.7-.8"/><path class="st2" d="M557.6 493.6c1.7.8 11.7 12.9 21.1 14.4 9.4 1.5 44.2-15.6 44.2-15.6l-11 18.1s-29.5 20.2-40 18.5c-10.5-1.7-50.1-35.9-50.1-35.9"/><circle class="st1" cx="245.7" cy="694.8" r="11.6"/><circle class="st1" cx="245.7" cy="694.8" r="4.6"/><path class="st2" d="M239.7 659.2c-1.5 6.4-2.8 12.1-3.6 16.4h24.4c.3-4.2.5-9.7.8-15.9l-21.6-.5z"/><path class="st6" d="M261.6 651.4h-20.1c-.7 2.7-1.3 5.3-1.8 7.8l21.6.5c.1-2.6.2-5.4.3-8.3zM263.2 602.4l-9.3-1.2s-3.9 15-8.1 32.3h16.4c.6-16.8 1-31.1 1-31.1z"/><path class="st6" d="M245.8 633.4c-1.4 5.9-2.9 12.1-4.4 18h20.1c.3-6 .4-12.1.7-18h-16.4z"/><circle class="st3" cx="254.9" cy="624.5" r="3.4"/><circle class="st3" cx="254.5" cy="642.4" r="3.4"/><circle class="st1" cx="203.4" cy="680.2" r="11.6"/><circle class="st1" cx="203.4" cy="680.2" r="4.6"/><path class="st2" d="m199.9 657.7 23.6 12.2c1.8-2.9 3.9-6.5 6.2-10.5L207 648.7c-2.7 3.3-5.1 6.4-7.1 9z"/><path class="st0" d="M213.1 640.9c-2.2 2.7-4.2 5.3-6.1 7.7l22.8 10.8c1.7-2.9 3.4-6 5.3-9.3l-22-9.2z"/><path class="st0" d="m213.1 640.9 21.8 9.2c2.9-5.3 6-10.8 8.8-16l-17.3-9.7c-4.2 5.4-8.9 11.1-13.3 16.5z"/><path class="st0" d="M243.5 604.1s-7.6 9.2-17 20.4l17.3 9.7c7.3-13.4 13.4-24.7 13.4-24.7l-13.7-5.4z"/><circle class="st3" cx="228.2" cy="637.6" r="3.4"/><circle class="st3" cx="241.1" cy="619.2" r="3.4"/><path class="st1" d="m207.9 661.9-6 9.8c2.7 1.3 5.8 2.5 8.6 3.4l4.5-9.6-7.1-3.6zM210.5 675.1c3.9 1.3 7.1 2 8.2 1.6.6-.3 2.4-2.8 4.8-6.7l-8.5-4.4-4.5 9.5z"/><path class="st1" d="M199.9 657.7c-3.4 4.6-5.6 7.9-5.5 8.6.2 1.3 3.4 3.4 7.6 5.3l6-9.8-8.1-4.1zM236.1 675.6c-.8 4.3-1.3 7.1-1.1 7.7.4 1.2 3.4 2 7.1 2.4l.8-10.2-6.8.1h0zM251.6 675.6l-.9 10.5c4.5-.3 8.5-1.1 9-2.7.3-.7.5-3.5.8-7.7l-8.9-.1h0z"/><path class="st1" d="m243.1 675.6-.8 10.2c2.7.3 5.7.4 8.5.3l.9-10.5h-8.6z"/><path class="st0" d="M255.8 579.3c-.2 1.3-22.4 19-22.4 22.8s34.4 18 38 17.1c3.6-.8 0-27.7 0-27.7l-15.6-12.2z"/><path class="st1" d="M488.6 553.1c-1.8 1.3-2.9 11.2-3.4 17.4 2.1.6 4.5-.8 6.4-3.8 1.8-3.1 2.8-7.7 4.5-12.9-3-1-6.2-1.7-7.5-.7z"/><path class="st0" d="M669.3 380.3c-18.9-7.5-134.2-12.3-134.2-12.3l22.3 42.1s85.5-3.1 86.3 2.9-75.7 46.8-96.7 53c-20.9 6.2-25.3 12.3-25.3 12.3l-4.5 15.3s-23.6 37.9-30 43.8c-6.4 6-8.2 23.8-5.7 29.2 1 2.2 2.4 3.4 3.7 3.8.5-6.2 1.6-16 3.4-17.4 1.3-1 4.5-.3 7.6.8 1.1-3.3 2.6-6.6 4.9-10 5.8-8.6 12.7-8.1 20-15s19.1-27.1 19.1-27.1 130.6-60.3 146.2-77 1.8-36.9-17.1-44.4z"/><path class="st8" d="M276.3 269.8c-3.1-.8-16.8 9-16.8 11.8 0 .8 3.9 7.1 9.4 15.4l18.1-9.7c-5.4-9.8-9.7-17.3-10.7-17.5zM299.4 259.9c-1.2-1.9-16.1 3.4-16.5 8.1-.1 1.5 2.7 8.7 6.6 17.7l16.7-8.9c-3.7-9.2-6.4-16.2-6.8-16.9z"/><path class="st4" d="M311.5 290.7c-1.8-4.9-3.7-9.7-5.4-13.9l-16.7 8.9c1.8 4.3 3.9 9.1 6 13.9l16.1-8.9zM286.8 287.2l-18.1 9.7c2.6 3.9 5.5 8.3 8.6 12.8l16.5-9.2c-2.3-4.6-4.7-9.2-7-13.3zM310.8 333.6s-5.5-10.9-12.1-23.8l-14.8 9.4c8.3 12.1 15.5 22.5 15.5 22.5l26.4-13.7s-5.1-13.4-10.9-28.5l-15.1 9.7c5.8 13.1 11 24.4 11 24.4z"/><path class="st8" d="M295.5 299.7c1.4 3.2 2.9 6.5 4.3 9.6l15.2-9.7c-1.1-2.9-2.3-5.9-3.4-8.7l-16.1 8.8zM293.9 300.5l-16.5 9.2c2.2 3.2 4.4 6.5 6.6 9.6l14.9-9.4c-1.7-3.1-3.3-6.3-5-9.4z"/><path class="st3" d="M314.9 299.6c-1.1-2.9-2.3-5.9-3.4-8.7-1.8-4.9-3.7-9.7-5.4-13.9-3.6-9.3-6.4-16.3-6.8-16.9-1.2-1.9-16.1 3.4-16.5 8.1-.1 1.5 2.7 8.7 6.6 17.7 1.8 4.3 3.9 9.1 6 13.9 1.4 3.2 2.9 6.5 4.3 9.6 5.9 13.2 11.1 24.4 11.1 24.4s-5.5-10.9-12.1-23.8c-1.6-3-3.2-6.2-4.8-9.3-2.4-4.6-4.8-9.2-7.1-13.3-5.3-9.7-9.6-17.1-10.6-17.5-3.1-.8-16.8 9-16.8 11.8 0 .8 3.9 7.1 9.4 15.4 2.6 3.9 5.5 8.3 8.6 12.8 2.2 3.2 4.4 6.5 6.6 9.6 8.3 12.1 15.5 22.5 15.5 22.5l26.4-13.7c-.1-.3-5.2-13.8-11-28.7z"/><path class="st8" d="M329.2 325.2c-4.2-2.9-34.4 14.3-34.4 19 0 1.3 1.9 3.7 4.7 6.6l31.8-21.2c-.7-2.3-1.4-3.8-2.1-4.4z"/><path class="st4" d="m320.3 368.9 13-9.2s0-6.9-.4-14.5l-22.2 16c5.3 4.2 9.6 7.7 9.6 7.7zM331.1 329.6l-31.8 21.2c1.7 1.8 3.7 3.6 5.8 5.5l27.1-18.4c-.2-3.2-.5-6.1-1.1-8.3z"/><path class="st8" d="M305.2 356.3c1.8 1.7 3.8 3.3 5.6 4.9l22.1-16c-.2-2.4-.3-4.9-.6-7.2l-27.1 18.3z"/><path class="st3" d="M332.9 345.1c-.2-2.4-.3-4.9-.6-7.2-.3-3.1-.8-6-1.3-8.3-.5-2.2-1.2-3.8-1.9-4.4-4.2-2.9-34.4 14.3-34.4 19 0 1.3 1.9 3.7 4.7 6.6 1.7 1.8 3.7 3.6 5.8 5.5 1.8 1.7 3.8 3.3 5.6 4.9 5.1 4.4 9.6 7.8 9.6 7.8l13-9.2c0-.2 0-7.1-.5-14.7z"/><circle class="st0" cx="528" cy="427.9" r="7.1"/><path class="st2" d="m475.6 395.2 22 28.5 26.8-17.7 1.6-49.2-43.3-.5z"/><path class="st6" d="M544.3 364.6c-2.7-11.8-17-20.2-28.1-18.1-11.2 2-11.5 13.2-11.5 14.6 0 0 9.6 8.5 14 12.3 5-.2 14.7-9.5 4.2 17.9-8.4 21.9-27 29.7-34 31.8.7 4.8 2.7 10.7 8.7 11.9 14.5 3.1 27.6-8.4 38-23.8 11-16.9 11.4-34.8 8.7-46.6z"/><path class="st3" d="m532.3 357.9 7.4-2.3M534.2 364.8l10.1-.2M526 407.8l8.2 4.4M520.1 414l8.6 5.9M512.5 420.7l6.7 7.9"/><path class="st6" d="M522.9 394.6c9.1-25.1 6.8-25.7-1.1-20.2-6.4 7.3-.8 6-5.9 17.9-10.2 24.2-27.3 24.1-27.3 24.1s-.3 2.9.3 6.6c6 .5 26-6.3 34-28.4z"/><path class="st11" d="M488.6 349s2.4-.3 11.9 2.4c9.5 2.6 42.8-2.9 57.6-8.9 16.2-6.6 31.3-13.6 33.8-14.8 2.5-1.2 4.4-11.7-2.4-12.3-6.8-.6-33.1 11.8-47.4 13.5-44.4 5.2-46.8-11.3-46.8-11.3l-5.2-15-24.9 12.2 3.2 24.2 20.2 10z"/><path class="st3" d="M484.6 299c3.9 19.9 6.6 34.9 30.7 36.7 16.3 1.3 34.9-1.1 42.9-4.8 11.6-5.3 35.5-13 35.5-13"/><path class="st3" d="M480.4 314.4s5.5 22.1 20.2 26.7 40.9 1.7 56.9-4.3c12-4.5 36.3-13.7 36.3-13.7"/><path class="st12" d="M573.3 259.7c-7.5 5-24.9 8.4-35.5 9.9l3.6 9.2s19.3-2.1 33.3-11.9c11.7-8.1 22.8-26.2 30.7-35.5l-4.2-3.6c-6.9 8.3-19.8 26.4-27.9 31.9z"/><path class="st12" d="m601.2 227.8-3.1-2.6c-7.4 8.8-16.8 21.1-26.8 27.4-14.5 9.1-36.3 9.9-36.3 9.9l2.8 7.1c10.5-1.5 28-4.9 35.5-9.9 8.1-5.5 21-23.6 27.9-31.9z"/><path class="st12" d="M616 236.7c-3.3 4.8-9.2 16.5-26.5 28-19.2 12.8-40.1 14.1-40.1 14.1s20.7-1.3 40.1-14.1c17.3-11.4 23.2-23.2 26.5-28l-4.1-4.2c-6 6.4-7.6 14.3-20.2 23.5-13.7 10.1-44.7 19.8-44.7 19.8l3.9 12.2c12.7-3.3 33-8.3 46.4-18 13.4-9.7 15.6-21.7 22.5-29.3l-3.8-4z"/><path class="st12" d="M599 275c-13.4 8.8-48.1 15-48.1 15l26 1.4s18.5-6.5 30-15.5c7.7-6 17.2-14.4 24.8-20.7l-3-4.3c-6.6 5.7-19.9 17.6-29.7 24.1z"/><path class="st12" d="m628.7 250.7-2.4-3.4c-4.8 4.3-13.9 9.9-22.8 17.1-19.1 15.7-50 18.2-50 18.2l-2.8 7.1s34.7-6.2 48.1-15c10-6.2 23.3-18.1 29.9-24z"/><path class="st0" d="M584.2 289.9c4.5 3 5.3 5.5 5.3 9.7 0 4.1-8.1 10-12 5.9-3.9-4-.6-7.4-.6-7.4s-16.2-3.4-24.9-1.7-18.7-1.7-18.7-1.7-4.2-5.5 1.8-8.7c6-3.1 44.6.9 49.1 3.9z"/><path class="st3" d="M583.1 299.6s-1.1-4.9-6.1-1.5"/><path class="st13" d="M561.2 296.9c-1.9-3.1-24.4-8.7-24.4-8.7s20.7 0 22.4-2.4c1.7-2.4 3.9-8.9.8-11.8-3.1-2.9-22.7-1.3-22.7-1.3s18.5-3.8 19.9-6.8c1.4-3-1.7-10.9-3.9-12s-18.3.8-18.3.8 13.6-8.7 13.9-12c.3-3.4-4.2-8.1-9-8.1-2.5 0-12.9 6.5-22.4 12.9 5.5 6.1 13.5 18.2 12.9 34.8-.7 15-6 28.1-10.1 36.2l23.6 4.4c13.4 3.4 15.4-10.3 7-13.2 7.8-.6 12.3-9.7 10.3-12.8z"/><path class="st8" d="M517.6 247.3c-8.8 5.9-16.9 11.7-17.5 12.3l-1 54.8 21.3 3.9c4.1-8.1 9.4-21.3 10.1-36.2.6-16.6-7.5-28.6-12.9-34.8z"/><path class="st3" d="M508.5 301.4s33.4 4 42.4 8.1M536.9 288.2c-7.2-1.2-27.2 1.7-27.2 1.7M509.7 278.8s15.5-5.7 27.8-6.1M535 254.6c-9.7 6.1-26.6 12.3-26.6 12.3"/><path class="st3" d="M561.2 296.9c-1.9-3.1-24.4-8.7-24.4-8.7s20.7 0 22.4-2.4c1.7-2.4 3.9-8.9.8-11.8-3.1-2.9-22.7-1.3-22.7-1.3s18.5-3.8 19.9-6.8c1.4-3-1.7-10.9-3.9-12s-18.3.8-18.3.8 13.6-8.7 13.9-12c.3-3.4-4.2-8.1-9-8.1-2.5 0-12.9 6.5-22.4 12.9-8.8 5.9-16.9 11.7-17.5 12.3l-1 54.8 21.3 3.9 23.6 4.4c13.4 3.4 15.4-10.3 7-13.2 7.8-.6 12.3-9.7 10.3-12.8z"/><path class="st6" d="M490.3 282.8c2.4 7.1-.4 15.2-7.4 18.4 1.3 1.1 2.6 2.3 3.9 3.6 7.6-4.1 15.7-12.2 13.4-24.7-2.5-13-21.3-14.8-38.6-8.1-1.2 2-2.1 4-2.9 6 10.9-3.5 29.1-2.4 31.6 4.8z"/><path class="st2" d="M490.3 282.8c-2.5-7.1-20.7-8.2-31.7-4.7-1.6 4.4-2.3 8.4-2.4 11.9 2.9.3 15.5 1.9 26.7 11.3 7-3.3 9.8-11.5 7.4-18.5z"/><path class="st6" d="M500.1 280.1c2.4 12.5-5.7 20.6-13.4 24.7 1.3 1.3 2.5 2.8 3.7 4.5 12.3-4.8 25.5-17.9 18.3-35.5-7.3-17.9-28.1-15.2-43.4-7.2-1.5 1.8-2.9 3.7-3.9 5.5 17.4-6.8 36.3-5 38.7 8z"/><path class="st6" d="M469.7 260.3c-1.6 1.5-3 4.7-4.3 6.2 6-3.2 13-5.5 19.7-6l2.3-9.5c-6.4 1.3-12.5 4.5-17.7 9.3z"/><path class="st6" d="m487.2 250.9-2.3 9.5c2.4-.2 4.7-.2 6.9.2l6.7-10.2c-3.5-.6-7.4-.4-11.3.5zM490.5 309.2c1.8 2.4 3.5 5.2 5 8.4 0 0 .6 1.2 1.6 2.8 2.1-.7 4.2-1.7 6.2-2.9l-7.6-10.8c-1.6 1-3.4 1.9-5.2 2.5zM501.4 302.7l8.7 9.5c2.5-2.6 4.8-5.8 6.6-9.7l-10.2-5.5c-1.4 2.1-3.2 4-5.1 5.7z"/><path class="st6" d="m495.7 306.7 7.6 10.8c2.4-1.4 4.7-3.2 6.8-5.5l-8.7-9.5c-1.8 1.7-3.7 3-5.7 4.2zM515 260.1l-10.1 7.1c1.5 1.8 2.9 3.9 3.9 6.4v.1l10.6-4.1c-.9-3.7-2.4-6.8-4.4-9.5zM509.9 290c-.8 2.5-1.9 4.8-3.4 6.9l10.2 5.5c1.6-3.4 2.8-7.1 3.4-11.4l-10.2-1z"/><path class="st6" d="m520.9 280.6-10.1 1.8c.2 2.7-.2 5.3-.9 7.6l10.3 1c.6-3.2.8-6.6.7-10.4zM520.9 280.4c-.1-4-.6-7.6-1.4-10.8l-10.6 4.1c1.2 3 1.8 5.9 1.9 8.6l10.1-1.8v-.1zM507.8 253.5l-8.8 9.2c2.2 1.1 4.2 2.6 6 4.6l10.1-7.1c-2.1-2.9-4.5-5.1-7.3-6.7zM498.6 250.3l-6.7 10.2c2.5.3 5 1 7.1 2.1l8.8-9.2c-2.8-1.5-5.9-2.6-9.2-3.1z"/><path class="st1" d="M385.6 282.3c-32.5-18.4-74.8-47.5-81.3-63.5-2.7-6.5 5.1-13.4 9.5-12.3s14.5 9.8 14.5 9.8l70.6 62.4c.1 0 22.7 24-13.3 3.6zM347 193.6c1.5-4.5 10.2-8.7 17.7-4.5s55.9 70.4 55.9 70.4l-15.9 12.4-48.5-62.1c-.1.1-10.7-11.7-9.2-16.2z"/><path class="st0" d="M356.9 203.8c4.5 5.2 52.7 64.3 52.7 64.3l-14.5 10.7s-76.4-52.2-78.5-57.4c-2.2-5.2 6.3-13.5 9.1-13.3s50.1 37.8 74.3 63.8c-24.2-26-53.4-58.5-55.5-64.8-2.2-6.2 7.9-8.5 12.4-3.3z"/><circle class="st10" cx="385.8" cy="248.2" r="9.2"/><circle class="st6" cx="376.5" cy="258.9" r="8.8"/><circle class="st6" cx="364" cy="248.2" r="8.8"/><circle class="st10" cx="375.6" cy="237.2" r="8.8"/><path class="st3" d="m379.1 275.5-10 3.3M371.4 269.6l-12.8 4.6M361.3 262.4l-12 4.6M353 255.6l-13.7 3.9M342.6 249l-14.3 4.3M332.4 243.2l-13.3 4.1M325.2 236.3l-12.2 4.4M316.5 227.8l-12.8 4.7M310.1 220.6h-12.9M310.8 213l-10.1-6.7M315.7 209l-5.6-8M409.6 253.3l11-7.1M403.8 243.2l11.3-6.9M397.3 235.3l10.1-6.7M390 226.8l9-7.9M382.8 216.2l9.4-6.5M375.6 206.3l8.3-6.2M369.9 199.2l5.7-10.1M363.3 194.2l1.7-12.6M355.3 192.5l-3.2-9.5M350.2 196.7l-8-4.2M340.5 384.4c-8 8-2.1 14.3-11.3 14.3s-6.1-12.6-.4-18.1c4.4-4.1-1.7-12.6-1.7-12.6"/><path class="st2" d="M376.2 302.8s-13.2 5.6-18.2 5.9c-5 .3-4.5-9.5-1.1-12.6 3.4-3.1 10.8-2.3 55.2-32.2s63-47.6 69.5-47.6 8.7 9.2 6 15.7c-2.9 6.5-66.8 46.4-66.8 46.4l-44.6 24.4z"/><path class="st12" d="M606.9 216.2c-2.4 1.7-5.4 4.9-8.7 8.9l7.3 6.2c1.6-1.9 3.1-3.4 4.5-4.5 8.1-6.1 19.9-10.1 19.9-14.9 0-4.6-15.1-.9-23 4.3zM642.5 215.4c-3.1 0-21.3 8.7-28.8 15.4-.6.6-1.2 1.1-1.7 1.7l8 8.2c.1-.1.1-.2.2-.2 7-7.6 24-15.2 26.3-16.7 2.2-1.4-1-8.4-4-8.4zM660.4 231.4c-3.1 0-13.2 1.4-20.7 5.6-4 2.3-7.7 5.5-13.3 10.4l5.3 7.6c3.8-3.1 7.1-5.7 9.4-7.4 9.4-6.5 17.6-7 20.7-8 2.8-.8 1.7-8.2-1.4-8.2zM619.9 302.7s4.1-14.3 10.1-17.9c6-3.6 14-2.9 18.1-2.9s13.9-13 16.7-10.1c2.8 2.9-5.3 13.4-5.6 18.1s3.1 8.3-.3 16.4c-3.4 8.1-14.1 11.3-14.1 11.3l-24.9-14.9z"/><circle class="st3" cx="641.5" cy="300.3" r="7.4"/><path class="st1" d="M594.3 518.5s9.7 25.7 24.1 27.2c16 1.7 71.6-2.6 75.1-4.3 3.4-1.7-3-10-9.4-18.6-6.4-8.6-32.1-9.6-32.1-9.6l-57.7 5.3z"/><path class="st3" d="m613.7 539.2 2 6.1M621.9 540.5l2 5.8M628.9 539.2l2.6 7M637.4 538.4l2.2 6.9M646.3 537.4l2.5 7.8M653.8 535.8l3.5 9.4M660.5 534.9l3.5 9.4M669.8 534.9l3.2 8.6M678 534.9l3.5 7.7M684.9 533.2l4.1 8.1"/><path class="st1" d="M590.2 500.3c0 16 7.2 34.6 28.9 34.6s64.9-6.5 64.9-11.3c0-4.8-37-45.4-50.8-48-25.6-5.1-43 8.8-43 24.7z"/><path class="st1" d="M609.5 490.2c-12.4 18.6 15.3 35.7 40.9 22.8-5.9-16.5-28.5-41.4-40.9-22.8z"/><path class="st2" d="M618.5 545.7c-3.1-.3-6-1.8-8.6-3.8-2.7 18.6-7 38.9-11.8 58.5l42.2 5.7c3.3-24.9 6.3-48.2 7.9-60.5-12.1.5-23.7.7-29.7.1z"/><path class="st6" d="m640.5 606-42.2-5.7c-.6 2.4-1.2 4.6-1.8 7l43.1 5.9c.3-2.4.6-4.9.9-7.2z"/><path class="st1" d="M591.5 626.6c-.9 3.4-1.8 6.6-2.7 9.7l46.7 7.4c.4-3.4.9-6.8 1.3-10.3l-45.3-6.8z"/><path class="st2" d="m638.3 622.9-44.2-6.2c-.8 3.4-1.8 6.6-2.6 9.9l45.4 6.8c.4-3.5.9-7 1.4-10.5z"/><path class="st6" d="m639.5 613.2-43.1-5.9c-.8 3.2-1.6 6.3-2.4 9.4l44.2 6.2c.5-3.2.9-6.5 1.3-9.7z"/><path class="st2" d="M700.4 464c.4-4.1 16.4-11.2 20.6-11.2s7.1 6.2 4.6 10.2c5-1.3 8.8 7.5 5.9 10s-14.7 9.7-19.7 9.7-7-8-4.5-10.5c-5.2.8-7.3-4.1-6.9-8.2z"/><path class="st3" d="m725.6 463-18.4 9.2"/><path class="st6" d="m765.2 533.7-24 11.7c1.3 2.6 2.7 5.1 4 7.7l24.1-12.6c-1.4-2.3-2.8-4.6-4.1-6.8z"/><path class="st6" d="m769.3 540.5-24.1 12.6c1.4 2.9 2.9 5.7 4.4 8.5l24.4-13.4c-1.7-2.5-3.2-5.1-4.7-7.7z"/><path class="st2" d="m773.9 548.2-24.4 13.4c2.4 4.7 4.7 9.3 7 13.9l26.1-13.3c-2.9-4.5-5.8-9.2-8.7-14z"/><path class="st6" d="M710.1 479.1c-2.9-8.1-6.7-15-10.4-20.4l-46.3 30.2c4.5 3.9 9 8.4 13.2 12.7l44-21c-.2-.4-.3-.9-.5-1.5z"/><path class="st10" d="M331.6 573.4c2.2 0 32.3-7.6 34.1-15.1 1.8-7.5-12.8-25.8-9.3-33.3 3.4-7.5 10.3-5.3 14.2-4.5 3.9.8 8.1 5.9 7.3 11.4-.8 5.5-7.3 5.5-7.3 5.5s10.2 17.1 10.2 23-4.6 13-4.6 13l-36.7 12.5-7.9-12.5z"/><path class="st10" d="M345.8 579.4s33.8-14.1 40.9-13.3c7.1.8 13.9 11.3 11.8 17-2.1 5.8-10.5 10.8-16 7.2s-4.2-10.4-4.2-10.4l-25.3 9-7.2-9.5z"/><path class="st3" d="M389.6 582.3c.8-8.4-9.2-10.9-11.3-2.4M367 527.3c-3.8 3.6-.7 10.2 3.6 10.2"/><path class="st1" d="M452.4 339.5c-1.8-8.7-3.1-14.7-3.1-14.7s-1.6 2.4-5.5 6.6l6 10.2 2.6-2.1zM427 346.4c-.2 6.1 3 11.9 3 11.9l6.9-5.8-5.6-9.5c-1.4 1.2-2.8 2.3-4.3 3.4z"/><path class="st1" d="M438.2 337c-2 1.8-4.3 3.9-7 6.1l5.6 9.5 7.1-5.9-5.7-9.7zM449.9 341.7l-6-10.2c-1.5 1.6-3.4 3.4-5.5 5.5l5.7 9.7 5.8-5zM458.6 403.1s6.9-2.1 10.3-6c-1-.3-1.8-.9-2.4-1.8-.5-.7-1.2-2.6-2-5.3l-8.4 5.1 2.5 8zM460.5 374.8c-2.7 1.3-9.1 5.6-9.1 5.6l2 6.3 8.7-5.2c-.5-2.1-1.1-4.3-1.6-6.7z"/><path class="st1" d="m453.4 386.8 2.7 8.4 8.4-5.1c-.7-2.3-1.5-5.2-2.4-8.5l-8.7 5.2z"/><path class="st5" d="M473.3 242.9s-18.6-7-29.7-.3c-8.7 5.2-12.1 20.3-13.2 26.7 18-2.4 25.1 20.6 25.1 20.6s4 .3 9.7 1.9c2.4-3.9 5.6-9.9 8.6-18.7 6.6-19-.5-30.2-.5-30.2z"/><path class="st1" d="M475.6 398.7s17.1-11.6 24.9.8c-2.9 10.5-18.6 8.3-18.6 8.3l-6.3-9.1zM476.7 422.6s21 26.3 33 30.8c-7.5-19.5-21.1-39.5-21.1-39.5l-11.9 8.7z"/><path class="st1" d="M471.8 439.4s18.8 23.3 32.1 24.6c-11.5-16.2-25.5-39.3-25.5-39.3l-6.6 14.7z"/><path class="st1" d="M466.9 447.8c1.1.3 2.4 19.6 20.9 30.5 1.4-21.6-13.4-36.8-13.4-36.8l-7.5 6.3zM475.6 406.1s16-1.1 20.7 3.4c4.7 4.5 8.1 14 14.5 24.4-8.1 1.4-15.4-8.4-20.1-13.6-2.6-2.9-12.9-.3-12.9-.3l-2.2-13.9z"/><path class="st0" d="M488.6 353.6c9 29.6-16.3 98.4-20.2 98.4-3.9 0-15.5-23.5-26.9-31.3-11.4 10.9-17.9 11.2-17.9 11.2L409 421.2l-22.9-3.9 1.5-18.6-16.1-27.7 60.7-41.3 23.4-12.1 3.2 10.3c0 .1 20.8-3.8 29.8 25.7z"/><path class="st1" d="M428.1 433.3s10.2 10.9 14.4 11.2c4.2.3 12-7.1 9.1-13.4s-13.3-13.4-13.3-13.4l-10.2 15.6z"/><path class="st3" d="M433.8 429.3s7.1 10.1 10 6.5c2.9-3.6-11.8-15.1-11.8-15.1"/><path class="st13" d="M446.8 417.6c-14.3 6.7-16.2 26.9-19.6 26.9-3.4 0-13.7-12.9-13.7-12.9l-10.7-5.3 22.6-23.3 21.4 14.6z"/><path class="st3" d="M446.8 417.6c-14.3 6.7-16.2 26.9-19.6 26.9-3.4 0-13.7-12.9-13.7-12.9l-10.7-5.3"/><path class="st0" d="M404.2 431c-5-3.9-1.4-10.3 3.4-10.9 4.8-.6 6.1 4.6 7 8.4.8 3.8-4.5 14.3-10.3 16s-19.3-16.8-20.4-26.9.8-17.2 0-19.1c-.8-1.8-3.9.2-5.6-2.5s-6.7-24.9-6.7-24.9l45-30.7"/><path class="st1" d="M391.6 382.6c-1.4 2.9 5.3 8.5 10.1 8.5s12.6-8.3 14.9-12.4c2.3-4.1 1.8-12.8-.8-13.9-2.7-1.2-9.1 11.4-12.9 14.5-3.9 3-9.9.3-11.3 3.3z"/><circle class="st1" cx="406.5" cy="383" r="4.6"/><path class="st3" d="m487.8 478.3-16-31.5M503.9 464c-14.5-7.2-27.2-29-27.2-29M509.7 453.4l-27.4-34.3M483.7 412.5s5.2-1 9.5 1.2c4.3 2.3 11.5 19.9 17.7 20.2M500.5 399.5l-14 1.4M328.7 380.6c-5.7 5.5-8.8 18.9.4 18.9s3.4-7.1 11.3-15.1"/><path class="st2" d="M614.4 316.2c-.3-.8-4.8-11.2-1.1-14.4 3.6-3.2 14.4-5.2 26.8 2 12.3 7.3 10.2 19.7 7.9 23.2-2.3 3.5-14 0-14 0l-19.6-10.8z"/><path class="st6" d="M604.3 323.3s-4.5-4.1-1.7-8.4c2.8-4.2 11.2-7 23.9-1.7 8.3 3.4 17.9 13.9 13 21.7-2.6 4-11-.9-11-.9l-24.2-10.7z"/><path class="st6" d="M603 331.3c0-.5-4.9-6.7-2.6-10.2 2.3-3.5 14.4-4.5 23.3 2.1 9 6.6 13.7 12.3 11.2 17.1-2.5 4.7-13.4 1.7-13.4 1.7L603 331.3z"/><path class="st0" d="M604.3 326.5c-5.3 2.5-106.8 159.7-114 165.8-7.2 6.1-8.1 5-8.1 5l3.9 14.3s.3.6.9 1.5l124.6-186c-2.9-1-5.7-1.3-7.3-.6z"/><path class="st2" d="m611.8 327.1-124.6 186c2.9 4.3 11.6 15.6 21.7 8C528.7 506 622.3 349 626.2 341.4c2.7-5.4-6.7-11.8-14.4-14.3z"/><path class="st8" d="M328.3 397.4s1.2 7.3 5.4 12.9c.8-3 2.1-6.6 4.2-10-3.1-5.4-4.5-9.4-4.5-9.4l-5.1 6.5z"/><path class="st4" d="M350.4 415.6c-5.6-4.9-9.7-10.6-12.5-15.3-2.1 3.4-3.4 7-4.2 10 3.4 4.5 8.7 7.8 16.7 5.3z"/><path class="st3" d="M328.3 397.4s3.9 23.8 22.1 18.2c-12-10.3-17.1-24.6-17.1-24.6l-5 6.4z"/><path class="st4" d="M342.6 394.6c-1.5 1.4-2.9 3-3.9 4.7 3.6 4.5 9.7 8.6 19.9 8.6-5.5-6.1-9.1-11.8-11.5-16.6-1.5.8-3 1.9-4.5 3.3z"/><path class="st8" d="M342.6 394.6c1.5-1.4 3-2.5 4.5-3.4-3.9-7.6-4.5-12.7-4.5-12.7l-7.8 4.4-1.4 4.6s.8 6.1 5.3 11.7c1.1-1.6 2.3-3.2 3.9-4.6z"/><path class="st3" d="M333.4 387.6s2.5 20.2 25.2 20.2c-14.3-16-16-29.2-16-29.2l-7.8 4.4-1.4 4.6z"/><path class="st8" d="m354.3 377.8-11.7.8s-.2 7.4 2.9 13.6c3.1-2.2 6.2-3.3 8.7-3.8-.9-4.7.1-10.6.1-10.6z"/><path class="st4" d="M355.1 391c-.3-.8-.7-1.6-.8-2.5-2.6.5-5.6 1.6-8.7 3.8.5 1 1.1 2 1.8 2.9 5 6.6 14 7 19.9 2.7-6-.5-9.9-2.2-12.2-6.9z"/><path class="st3" d="M355.1 391c-.3-.8-.7-1.6-.8-2.5-1-4.7 0-10.7 0-10.7l-11.7.8s-.2 7.4 2.9 13.6c.5 1 1.1 2 1.8 2.9 5 6.6 14 7 19.9 2.7-5.9-.4-9.8-2.1-12.1-6.8z"/><path class="st5" d="M347.6 371c-3.9 0-13 2.9-18.9 9.6-5.7 5.5-8.8 18.9.4 18.9s3.4-7.1 11.3-15.1"/><path class="st4" d="m318.2 371 27.3-26.9s-28.9 15.5-27.3 26.9z"/><path class="st5" d="M495.5 319.1c-12.2-26.3-39.9-27.7-39.9-27.7s-7.1 24.4-29.8 40.3-80.2 13.9-80.2 13.9l-27.3 26.9c1.7 11.3 8.4 3.8 11.3 6.3 2.1 1.8-3.8 12.4-3.9 18.3.9-4.2 2.9-8.3 6.9-11.8 22.8-20.4 28.2-5 68.5-28 42.7-24.4 41-39.4 50.3-39.6 8.7-.2 7.8 39.8 21.8 80.9 4-1.1 8.2-4.9 8.5-10.2.4-8.8-11.1-36.4-11.1-63.3-.1 0 8.5-6 24.9-6z"/><path class="st4" d="M451.4 317.7c-12.7 0-6.5 12.9-49.2 37.4-40.2 23-45.8 7.6-68.5 28-3.9 3.5-6 7.6-6.9 11.8 0 2.4.8 3.9 3.4 3.9 9.2 0 3.4-7.1 11.3-15.1s24.4.4 61.1-21c36.8-21.4 47.7-38.6 47.7-38.6s13.7 65.5 17.2 70.6c1.4 2 4 2.4 6.6 1.8-13.7-41.2-14.1-78.8-22.7-78.8z"/><path class="st10" d="M405.6 312.8c24.1-14.1 24.3-32.9 22.1-43.1-17.5 3.3-37.4 15.3-56.9 35.3-4.7 4.8-8.5 9.4-11.7 13.7 9.5 4 25.6 6.4 46.5-5.9z"/><path class="st3" d="M347.6 371c-3.9 0-13 2.9-18.9 9.6M436.8 309.2c3.9-6.6 33.5-6.8 33.7 14.4"/><path class="st3" d="M340.5 384.4c8-8 24.4.4 61.1-21 36.8-21.4 47.7-38.6 47.7-38.6s13.7 65.5 17.2 70.6c1.4 2 4 2.4 6.6 1.8 4-1.1 8.2-4.9 8.5-10.2.4-8.8-11.1-36.4-11.1-63.3 0 0 8.6-6 24.9-6-12.2-26.3-39.9-27.7-39.9-27.7"/><path class="st10" d="M345.5 344.1s-30.7 15.1-29.1 26.5c-1.4 11 16.5 11.3 18.1 3.4 1.3-6-7.6-5.9-7.6-5.9"/><path class="st0" d="M430.4 269.3c-.8.1-1.8.3-2.7.4 2.2 10.2 1.9 28.9-22.1 43.1-20.9 12.3-37 9.8-46.5 5.9-10.8 14.6-13.5 25.4-13.5 25.4s57.5 2.1 80.2-13.9 29.8-40.3 29.8-40.3-7.2-23.1-25.2-20.6z"/><path class="st8" d="M422.9 296c-4.7 0-6.7 6.4-11.5 12l9.8 7c4.9-9.5 5.6-19 1.7-19z"/><path class="st4" d="M411.4 307.9c-2.3 2.7-5.1 5.1-9.1 6.7-12.5 5-14.4 5-21.5.3 0 10.9 1.6 21.5 21.5 16.5 8.7-2.2 15.1-9.3 18.9-16.6l-9.8-6.9z"/><path class="st3" d="M403.1 316.2c0 2.4-1.8 4.2-4.2 4.2-1.9 0-3.5-1.3-4-3-1.8.6-3.4.9-4.8 1 1 3.9 4.5 6.8 8.7 6.8 5 0 9.1-4 9.1-9.1 0-1.5-.3-2.9-1-4.1-1.3.9-2.6 1.7-4.2 2.4.2.6.4 1.2.4 1.8z"/><path class="st3" d="M398.9 320.4c2.4 0 4.2-1.8 4.2-4.2 0-.6-.2-1.2-.4-1.8-.2.1-.3.1-.4.2-3 1.2-5.5 2.1-7.5 2.8.6 1.7 2.2 3 4.1 3z"/><path class="st3" d="M380.8 314.9c0 10.9 1.6 21.5 21.5 16.5 20-5 27.5-35.5 20.6-35.5-6.9 0-8.1 13.7-20.6 18.7-12.5 5-14.3 5-21.5.3z"/><path class="st1" d="M515.3 373.7c-3.9 5-4.3 16.8 6.4 24.6 10.7 7.8 35.6 3.6 35.6 3.6s-8.4-22.8-17.6-30c-9.3-7.1-20.4-3.3-24.4 1.8z"/><path class="st3" d="M526 380.9c-5.9 8.5 7.8 12.1 14 10.7-2.7-8-9.3-17.4-14-10.7z"/><path class="st2" d="M500.1 363.2s-5.7 11.5 0 15.7 14.1 1.1 18.6-5.6c4.5-6.7 3.6-13.4 0-17.1-3.6-3.6-16 2.1-16 2.1l-2.6 4.9z"/><path class="st0" d="M476.7 329.8c-8.3 1.3-8.1 10.4-8.1 17.1 0 6.6 5 15.3 11.3 11.5 1.3 2.8 2.6 6.6 5.9 7.6 3.3 1 8 2.9 14.3 2.1 6.3-.8 8.4-4.8 8.4-10.5s-3.5-10.5-8.8-12.6c-5.3-2.1-10.3 1.9-10.3 1.9s-4.5-18.4-12.7-17.1z"/><path class="st3" d="M476.7 344.8c-.2-.3 8.2-1.6 8.2 4s-2.7 8.8-4.9 9.7"/><path class="st1" d="M493.5 356c-3.1 2.4-9 10.4-9 13.7s3.9 4.8 7 4.8 9.7-14.6 8.4-16.1c-1.4-1.5-3.3-4.8-6.4-2.4zM599.8 467.9c6.9-4.3 2.8-15.9-5.9-14.6 4.4-5.5-1-12.6-6.3-10.6-1.6.6-4.8 2.2-8.7 4l17.4 38.1c4.8-1.3 8.8-2.7 10.8-3.6 6.6-3 1.8-15.2-7.3-13.3zM557.3 457.9l13.7 33.6s14.4-3.4 25.3-6.6l-17.4-38.1c-9.1 4.5-21.6 11.1-21.6 11.1z"/><path class="st3" d="m593.9 453.3-29.5 14.6 6.7 12.5 28.7-12.5"/><path class="st6" d="M560.2 496.3c4.2-3.9 7.3-9.5 1.4-23.9-2.4-5.7-5.5-9.3-8.6-11.6-1.2 1.8-2.4 3.7-3.6 5.5 8.8 5.5 15.1 23.1 1.1 30.5 0 0 5.5 3.3 9.7-.5z"/><path class="st6" d="M557.9 453.2c-1.7 2.5-3.3 5-4.9 7.6 3 2.3 6.2 5.8 8.6 11.6 5.9 14.4 2.8 20.1-1.4 23.9-4.2 3.9-9.7.6-9.7.6 2.5 4.5 7.1 10.9 16.4 5.3 9.2-5.6 9.7-18.6 3.4-33.7-4-9.6-9.1-13.6-12.4-15.3z"/><path class="st9" d="m562.3 499.8 4 2.2M566.9 493.6l5.9 1.8M568.9 485.4l5.4-.7M568.6 477.8l4.7-.8M565.2 470.5l5-1.7M561.5 463.4l4.5-2.9"/><path class="st6" d="M267.9 553.1s-12.6 2.1-17.4 11.8c-4.8 9.7 1.9 22.7 9.2 29.1 1.9 1.7 4.7 2.9 7.8 3.8l2.3-38.3c-.9-3.1-1.9-6.4-1.9-6.4z"/><path class="st6" d="M271.5 564.1c-.3-.5-1-2.5-1.7-4.7l-2.3 38.3c2.5.8 5.3 1.3 7.9 1.7l1-31.6c-2.2-1.5-4.6-3.1-4.9-3.7zM280.9 570.6s-2.1-1.3-4.4-2.8l-1 31.6c2.8.4 5.5.6 7.5.8l.9-28.9-3-.7z"/><path class="st3" d="m252.2 564.1 11.8 8.5M256.4 559l6.8 6.6M249.6 570.5l12.9 7.9M249.6 577.7l13 8.2"/><path class="st8" d="M306.9 560.3c-2-1.2-7.1-.7-11.6-.3l-2.6 11.3 14.6.5c0-.1 3.4-9.3-.4-11.5z"/><path class="st4" d="M287 559.4c-1.8-2.2 3.4-5.4 5.6-8.4-9.2-6.4-21.2 4.7-21.2 4.7v8.3l3.9 6.6 17.2.6 2.6-11.3c-3.7.3-7.3.6-8.1-.5z"/><path class="st3" d="M271.5 555.8s12-11.1 21.2-4.7c-2.3 3-7.5 6.2-5.6 8.4 1.8 2.2 16.1-1.3 19.9.8 3.8 2.2.4 11.4.4 11.4l-31.8-1.1-3.9-6.6-.2-8.2z"/><path class="st2" d="M358.4 596.1c-1.5-8-7.8-20.2-15-17.6-6.1 2.2-.7 10.9-.7 10.9l-21.3-9.2-37.6-8.8-.9 28.8c2.7.2 5.3.2 5.3.2l11.6 22.6v15.5s13.9 3.5 17.8 21.6c3.9 18.1 24.5 12 32.5 3 8-9.2 9.7-59 8.3-67z"/><path class="st4" d="M314.4 621.7c0-7.6-5.4-17.6-13.1-17.6s-10.6 10-10.6 17.6c0 1.1.1 2.2.2 3.3H314c.3-1.1.4-2.2.4-3.3z"/><path class="st8" d="M291 625c.8 6.7 3.8 13.1 10.3 13.1 6.6 0 11.5-6.5 12.8-13.1H291z"/><path class="st3" d="M314.4 621.7c0 7.6-5.4 16.5-13.1 16.5s-10.6-8.7-10.6-16.5c0-7.7 2.9-17.6 10.6-17.6s13.1 9.9 13.1 17.6z"/><circle class="st3" cx="301.3" cy="621.7" r="5"/><path class="st6" d="M307.3 604.3c-.3 3.7-3.9 7.1-7.5 4.3-.3 3-1.6 21.8 2.5 25.6 4.1 3.9 14.4 4.1 16.7 9.8 2.3 5.7 2.5 15-5 20.6-11.3 8.2-21.8-5-12.9-13.3-4.6-2.8-10.1-7.6-11.8-13.9-1.8-6.6-6-30.5-1-37.2s19.5-2.2 19 4.1z"/><path class="st3" d="M299.9 608.7s.3-7.1-4.4-5.5c-4.6 1.7-1.8 27.6 2 34.1s8.6 2.7 14 10.5c5.5 7.8-2.9 11.9-2.9 11.9 4.9-4.6-3.2-11.1-7.6-8.3"/><path class="st0" d="M275.1 552.6s-3.9-3.4-7.3.4c-3.4 3.9-2.1 15.4 7.3 20.8 9.3 5.4 43.1 4.9 52.7 15 9.7 10.2-6.2 39.6-4.4 49.5s8.9 11.8 15.1 2.9 8.9-34.4 8.9-42.1c0-7.6-1.8-10.3-4.4-13.2-3.4-3.9-8.4 0-8.4 0s-3.7-8.8-17.6-13.6c-13.9-4.8-35.7-4.1-40.1-8.2-4.3-4.1-1.8-11.5-1.8-11.5z"/><path class="st3" d="M334.9 585.9c6.4 13.2 3.4 37.4-4.1 49.2"/><path class="st4" d="m332.7 582.5 6.6-4c-1.1-1.7-2-2.9-3.1-4.6 6.3 2.1 8-6-.4-9.8-7.4-3.4-13 5.5-15.1 9.7 6.3 2.6 10 6.1 12 8.7z"/><path class="st8" d="M342.8 584c-1.4-2.4-2.4-4.1-3.4-5.5l-6.6 4c1.6 2 2.2 3.4 2.2 3.4.9 1.8 1.6 3.9 2.2 6.1-.1 0 8.6-2.6 5.6-8z"/><path class="st3" d="M342.8 584c-3-5.4-4.5-7.1-6.5-10.2 6.3 2.1 8-6-.4-9.8-7.4-3.4-13 5.5-15.1 9.7 11.1 5 14.2 12.3 14.2 12.3.9 1.8 1.6 3.9 2.2 6.1h0c-.1-.1 8.6-2.7 5.6-8.1z"/><path class="st2" d="M618.1 475.5c.5 9.7-4.5 17-11.5 26 .8 5 4.4 9.4 9.7 12.3 14.1-14.8 24.2-32.2 21.5-42.9-.7-2.6-3.3-7.4-7-13.4-5.5 2.8-11 5.6-16.6 8.4 2.3 3.8 3.7 7.1 3.9 9.6zM585.4 409.4c-2.9 4.9-6 9.7-9.2 14.7 4.7 4.4 12.3 11.6 19.7 19.4 5.6-2.9 11.2-6 16.4-8.9-11.7-13-24.6-25.2-26.9-25.2z"/><path class="st3" d="m666.8 493.6 6.2 3.2M673 489.8l8.5 3.8M683.6 485.4l7.7 4.4M691.3 480.4l9 5.3M700.3 477.2l6.9 5.5"/><path class="st6" d="m694.2 451.6-45.7 33.2c1.6 1.3 3.2 2.7 4.8 4.1l46.4-30.2c-1.9-2.6-3.8-5.1-5.5-7.1z"/><path class="st6" d="m689.6 446.6-46.6 34c1.8 1.3 3.7 2.7 5.6 4.3l45.6-33.2c-1.7-2.1-3.3-3.8-4.6-5.1z"/><path class="st1" d="m684 523.6.2-.8c5 6.8 10.2 13.4 10.4 16.7 8.8-.8 15-1.7 16.4-2.9 3.2-2.9 5.2-11.3 5.2-22.1l-33.8 5.7c1 1.6 1.6 2.8 1.6 3.4z"/><path class="st2" d="m682.4 520.1 33.8-5.7c0-2.1-.1-4.3-.2-6.6l-37 7.7c1.4 1.9 2.5 3.4 3.4 4.6z"/><path class="st0" d="M676 512.1c1.1 1.3 2.1 2.5 2.9 3.6l37-7.7c-.2-2-.3-4-.6-6.1L676 512.1zM710.6 480.6l-44 21c1.9 2 3.9 4 5.6 6l42.4-11.2c-.9-5.2-2.2-10.5-4-15.8z"/><path class="st0" d="m714.6 496.5-42.4 11.2c1.3 1.5 2.7 3 3.9 4.5l39.4-10.2c-.4-1.9-.6-3.8-.9-5.5z"/><path class="st2" d="M684 479.5c2.3-3.4.8-13.6-2.5-12.6-1.7.5-23.9 10.1-46 19.6-3.2 7.5-8.7 15.8-15.6 23.6 25.7-11.6 62.6-28.4 64.1-30.6z"/><path class="st11" d="m814.8 612.1-33.2 19.2c3.6 8.2 6.5 14.1 9.1 17.3 4.2 5.1 20.2-.8 17.6-11.4 9.2 8.9 18.3-5.4 16.4-9.2-1.9-3.8-5.3-9-9.9-15.9z"/><path class="st1" d="m781.6 631.3 33.2-19.2c-2.5-3.7-5.3-8-8.5-12.7L775.4 617c2.3 5.3 4.4 10.1 6.2 14.3z"/><path class="st11" d="m782.6 562.3-26.1 13.3c1.8 3.7 3.5 7.3 5.2 10.8l26.4-15.1c-1.8-2.9-3.7-5.9-5.5-9z"/><path class="st1" d="m788 571.2-26.4 15.1c1.4 3.1 2.9 6 4.1 8.9l28-15.1c-1.8-2.8-3.7-5.8-5.7-8.9z"/><path class="st11" d="m793.7 580.1-28 15.1c.7 1.4 1.3 2.9 1.9 4.2l28.6-15.3c-.7-1.3-1.6-2.6-2.5-4zM772.3 609.9c1.1 2.4 2.1 4.8 3.1 7.1l30.9-17.6c-1.2-1.8-2.4-3.5-3.6-5.5l-30.4 16z"/><path class="st1" d="m796.3 584.1-28.6 15.3c1.7 3.7 3.2 7.2 4.7 10.5l30.3-16c-2-3-4.2-6.3-6.4-9.8z"/><path class="st3" d="m771.1 569 37.3 68.1M759.6 574.3c3.6 1.3 27.6 53.3 27.6 53.3s8 15.3 11.8 13.7c3.7-1.6-5.2-17.5-5.2-17.5S766 573.4 766 571.2M774.5 566.8l29 52.2s8.4 12 11.3 10.6c2.9-1.4-5.2-14.4-5.2-14.4l-30.6-51"/><path class="st11" d="M629.3 691.2c.4-3.4 1-7.8 1.7-13l-52-7.3c-3 10.3-5 17.6-5.4 20.1-1.3 9.7 12.9 13.9 16.5 0 0 16.4 15.1 14.3 18.2 3.8.4 5.9 5.9 8.6 11 8.7.4-1.4 1.5-3.3 3.1-5.3 1.8-2.2 4.1-4.6 6.9-7zM633 663.2l-49.6-7.6c-.7 2.3-1.3 4.5-1.9 6.6l50.6 7.6c.3-2.1.5-4.3.9-6.6z"/><path class="st1" d="M581.5 662.3c-.9 3.1-1.8 6-2.5 8.7l52 7.3c.3-2.6.8-5.5 1.1-8.5l-50.6-7.5z"/><path class="st11" d="m635.6 643.7-46.7-7.4c-.8 3.1-1.7 6-2.5 9l48.1 7c.3-2.9.7-5.7 1.1-8.6z"/><path class="st1" d="m634.4 652.3-48.1-7c-1 3.5-2 7-2.9 10.2l49.6 7.6c.4-3.4.9-7.1 1.4-10.8z"/><path class="st3" d="M592.3 637.1c-.8 7.5-15 52.6-10.3 53.8 4.7 1.3 14-50.5 16.2-53.2M606.2 639.7s-13.3 54.9-8 56.6c5.3 1.6 14.6-56.1 14.6-56.1M621.9 641.5s-8.7 54.3-4.2 54.8c4.5.4 12.6-53.4 12.6-53.4M617.7 641.3l-9.2 53.5M590.2 691l11.6-52.6"/><path class="st2" d="M593.7 518.3c0 .1-.1.1-.1.2-9.5 13.5-19.1 53.3-19.1 53.3l19.3-1.4s4.1-19 10.6-34.2c-3.2-4-5.8-8.7-7.5-12.1-1.3-1.9-2.4-3.8-3.2-5.8z"/><path class="st0" d="M490.7 509.4c-1.9-4.2-1.3-10.9 1.4-16.2 2.8-5.3 9.2-12.7 9.2-14.8 0-2.1-4.7-2.9-10.9-2.9s-18.7 12.3-21.8 19.9-.7 22.9 3.2 31.1c2.5 5.3 6 9.2 8.9 11.8l22.2-20c-4.9-2.9-10.9-6.1-12.2-8.9z"/><path class="st1" d="m502.8 518.4-22.2 20c1.6 1.4 3 2.5 4.2 3.3 3.3 2.3 9.7-2.5 6.7-5 1.7 1.9 6.3-1.9 5-4.2 3.9.8 7.8-1.1 5.9-4.2 1.4.6 8.7-.8 6.1-5-.8-1.6-3-3.2-5.7-4.9z"/><path class="st3" d="M502.4 528.2c-13.9-5.6-18.7-19.3-18.7-19.3M496.6 532.4c-11.8-3.1-17.9-19.2-17.9-19.2M491.5 536.6c-12.9-4.8-17.6-19.6-17.6-19.6"/><path d="M398.7 668.2c-3.7 6.4-6.3 10.8-7.6 12.3 1.3-1.5 4-5.9 7.6-12.3z" style="fill:none"/><path class="st2" d="M484.4 541.3c-1.1-.8-2.4-1.7-3.7-2.9-2.4-2.1-4.9-4.9-7.1-8.5-17 30.7-57.4 107.7-74.8 138.3-3.6 6.4-6.3 10.8-7.6 12.3-.1.2-.2.3-.3.3-8 8.3-19.5 8.5-31.7 3.3-5.8-2.4-11.5-9.3-16-15.8-7.6 4.1-17.6 5.3-22.8-1.7.1 12 4.5 26.4 19 39.1 10.9 9.5 26 18.7 52.2 7.6 24-10.2 75.3-111.2 91.5-144-.7-.7-1.3-1.5-1.8-2.6-1.9-4.6-1-17.8 3.1-25.4z"/><path class="st0" d="M359.2 684.1c12.3 5.2 23.7 5 31.7-3.3l.3-.3c1.3-1.5 3.9-5.9 7.6-12.3 17.5-30.7 57.8-107.6 74.8-138.3-.4-.7-.8-1.3-1.2-2.1l-.6-1.2c-.8-1.8-1.6-3.8-2.2-6-48 76.4-69.2 129.7-77.4 143-9.7 15.7-18.9 18.2-28.8 14.2-5.9-2.4-10.9-8.8-14-13.8-1.7 1.7-3.7 3.2-6 4.4 4.3 6.4 10 13.3 15.8 15.7z"/><path class="st11" d="M689.6 446.6c-2.9-2.9-4.7-4.2-4.7-4.2l-46.7 33.8c0 .4-.1.8-.2 1.3 1.5.8 3.2 1.8 4.9 3.1l46.7-34z"/><path class="st3" d="M328.7 380.6c-5.7 5.5-8.8 18.9.4 18.9s3.4-7.1 11.3-15.1M473.3 242.9s-18.6-7-29.7-.3c-8.7 5.2-12.1 20.3-13.2 26.7 18-2.4 25.1 20.6 25.1 20.6s4 .3 9.7 1.9c2.4-3.9 5.6-9.9 8.6-18.7 6.6-19-.5-30.2-.5-30.2zM330.8 358.9l9.7-3.6M335.5 363.2l10.7-3.2M339.8 367.5l9.2-2.7M349.2 351.9l8.6-2.4M351.2 358.3l11.1-3.5M356.6 363.8l6.8-2.1M368.1 351.1l11.4-1.9M371.8 357.7l9.9-3.8M389.1 348.8l10-4M392 352.7l10.1-4M408 343.6l10-4M450.5 310.9l10.5 2.3M448.7 315.4l9.4 1.9M462.1 322.2l7.1 1.5M462.5 330l7.1 1.9M462.7 336.1l6.6 1.7M463.9 344.4l3.9.9M465.7 351.1l3.1.1M467.8 358.6l7.1.8M468 364.5l7.2 1.1M471 370.8l6.9 1.4M474 376.6l5.9 1.7M475.9 383.8l4.5 1.1M436.5 265.3l.9-4.9M441.8 266.5l1.6-5.7M446.7 269.8l2.8-7.6M452.8 274.7l2.9-9.7M458 277.3l3.5-10.1M464.7 279.3l2.9-8.5M443.2 254l2.3-6.9M449.2 255.6l3.4-9.9M454.4 257.7l4.2-12M461 261.3l4.7-14.1M468.2 262.9l3.2-10.9M458.5 286.5l2-4.6M328.7 394.6l5.1 1.9M331.1 388.4l5.4 1.5M335.6 382.5l3.1 2.5M341.7 378.3l2.4 3.2M348.5 374.9l1.8 4.4M356.6 372.5l1.1 5.5M363.4 371.3l1.5 5M369.6 368.8l1.9 5.8M376.1 366.7l2.5 5.3M382.8 363.4l3 6.2M390.8 360.5l2.4 5.4M397 357.5l3.2 4.6M403.2 353.4l3.4 5.6M410.7 349l4.5 5.2M418.2 344.8l3.1 4.2M423.5 340.6l4 4.4M430.5 336.4l2.7 3.7M435.6 332.2l2.3 4.1M440.6 328l1.5 3.2M445.2 322.9l1.6 4.5M455.9 328.8l-5.1 3.1M457.3 337.8l-4.9.8M458.4 345.5l-4.4 1.1M460.2 352.5l-4 1.1M462 359.7l-4 1.1M464 366.7l-4 1.3M464.6 373.6l-3.5 1M466.9 380l-3.9 1M469 386.2l-4.3 1.3M471 393l-4.4.4M367.6 314.7l6.5-4.6M372.2 317.6l3.9-2.3M380.8 302.5l11.2-8.4M384.4 306.6 395 300M388 313.2l9.3-6.2M398.1 289.2l12.6-6.9M401.9 295.8l11.1-5.9M403.2 303.3l9.9-5.5M418.2 278.8l6.6-3M418.9 285.8l4.6-1.6M458.6 295.8l9.2 2.5M455.6 301.2l9.8 3.3M473.2 302.3l11.9 8.6M471 306.7l8.6 7.1M466.2 311.9l7.4 5.6M112 452.1l4.7 1.6M112.1 458.7l5.4.9M113.6 464.9l4.9 1.1M115.8 470.8l4.4 1.4M116.7 477.5l5.4.8M117.5 484.4h5.8M120.4 490.7l4.2.4M122.1 496.8l4.2.3M123.3 502.9l3.9.6M125.2 509.3h3.6M127 514.3l3.4 1.1M152.2 524.1v4.8M158.7 521.7l-.3 4.7M164.4 518.2l-.4 5.9M171.3 515.4l-.9 5.1"/><path class="st9" d="m313.1 492.4 2.5 3.9M751.2 554.7l3 4.3M756.5 552l3.1 4.1M761.7 549.3l1.7 3.8M766.9 546.2l1.6 3.9M599.4 612.1l-1.2 4.5M603.6 613.2l-.4 3.8M608.9 613.2l-.4 5.5M613.8 614l-.1 4.7M619.1 614.4l-.6 5.7M623.9 615.3l-.6 4.8M628.9 615.9l-1.2 5.5M633.8 617l-.8 4.4"/></svg>