<svg version="1.1" id="Calque_1" xmlns="http://www.w3.org/2000/svg" x="0" y="0" viewBox="0 0 900 900" style="enable-background:new 0 0 900 900" xml:space="preserve"><style>.st0,.st1{stroke-width:3.8871}.st0{fill:#007706;stroke:#000;stroke-linecap:round;stroke-linejoin:round;stroke-miterlimit:10}.st1{fill:none}.st1,.st2,.st3{stroke:#000;stroke-linecap:round;stroke-linejoin:round;stroke-miterlimit:10}.st2{fill:#ff7300;stroke-width:3.8871}.st3{fill:red}.st3,.st4,.st5{stroke-width:3.8871}.st4{fill:#2d2d2d;stroke:#000;stroke-linecap:round;stroke-linejoin:round;stroke-miterlimit:10}.st5{fill:#fff}.st5,.st6,.st7{stroke:#000;stroke-linecap:round;stroke-linejoin:round;stroke-miterlimit:10}.st6{fill:#ffce00;stroke-width:3.8871}.st7{stroke-width:4.373}.st7,.st8{fill:none}.st10{fill:#fff}.st11{fill:red}</style><path class="st0" d="M219.1 623c-3.9 6.8 6.8 18 14.6 16-2.4 13.6 3.9 18 8.3 17s15.1-8.7 15.1-8.7-4.4 6.8-4.4 11.7c0 4.9 4.4 8.1 9.7 10.7 3.3 1.6 7.3-.5 8.7-1.9-2.4 11.7 8.3 14.6 12.6 11.2 4.4-3.4 18.5-28.2 18.5-28.2l20.9-15.5.6-1.6-65.5-46c-19.3 16.4-37.3 32.3-39.1 35.3z"/><path class="st1" d="m272.5 596.3-38.8 42.8M286.2 604.1 257 647.3M299.8 613.8l-28.7 54M223 634.7l46.6-46.6M236.6 652.7l46.2-53.5M258.5 668.2l36.4-61.2M275.5 678.9l34.5-62.2"/><path class="st2" d="m258.1 587.6 65.5 46 8.3-22.3-59.3-36.2c-4.7 4.2-9.6 8.3-14.5 12.5z"/><path class="st3" d="m348.8 566.2 18-24.8-3.4-32.6-19.4-2.4-37 39.9s-.3.2-.9.7l39.2 28.5 3.5-9.3z"/><path class="st4" d="M306.2 547c-3.6 3-17.7 14.8-33.5 28.2l59.4 36.1 13.4-35.9-39.3-28.4z"/><path class="st0" d="M580.6 514.2c3.4 5.8 50 63.7 56.8 67.1 6.8 3.4 18.9-1 13.6-11.7-5.3-10.7-21.9-30.1-21.9-30.1l-46.6-62.7-9.2 3.4s3.9 28.2 7.3 34z"/><path class="st1" d="M648.6 579.3c-45.2-45.7-66.1-80.2-66.1-80.2"/><path class="st0" d="M551.9 462.7s13.6 45.2 18.9 53c5.3 7.8 13.6 9.7 12.6-8.3s-12.6-51-12.6-51l-18.9 6.3z"/><path class="st1" d="m578.7 519.6-17.5-63.7"/><path class="st0" d="m604.9 446.7 17 42.7-27.7 3.9-15.1-43.2z"/><path class="st1" d="m607.8 486-13.6-37.4"/><path class="st0" d="M595.2 479.2s85 27.7 90.9 34c5.8 6.3 1 15.1-5.8 15.1s-51.5-16-60.3-18.9-24.8-30.2-24.8-30.2z"/><path class="st1" d="m688 521-87.5-31.6"/><path class="st0" d="M566.5 454.9s19.4 44.7 32.1 57.3c12.6 12.6 62.1 53.4 70.4 53 8.3-.5 8.4-8.3 4.9-13.6-3.4-5.3-24.3-18.5-51-41.3-26.7-22.8-37.4-59.8-37.4-59.8l-19 4.4z"/><path class="st1" d="M674.9 560.9s-48.1-28.2-70.5-54.4c-17.6-20.7-26.7-53-26.7-53"/><path class="st5" d="m534.4 426.7-9.7 32.6 12.7 10.2 67.5-22.8-10.7-30.6-22.8-17z"/><path class="st1" d="m570.4 457.8-10.7-34M596.6 449.1l-10.2-34.5M542.2 452l8.3 3.9M542.2 442.8l9.3 7.8M546.1 436.5l8.8 8.2M572.3 446.7l9.8.9M571.4 437.4l10.2 2.5M572.8 427.2l8.8 5.4"/><path class="st4" d="M578.2 345.6c-18.5.5-21.9 8.3-21.9 8.3l-4.1 30.5 30.2-11c-1.9-9.2-3.5-18.8-4.2-27.8z"/><path class="st0" d="m546.1 429.2 48.1-13.1s-3.1-8.8-6.6-21.6l-38.2 10.7-3.3 24z"/><path class="st4" d="m582.4 373.3-30.2 11-1.4 10 34-10.4c-.8-3.4-1.6-7-2.4-10.6zM550.9 394.3l-1.5 10.9 38.2-10.7c-.9-3.3-1.8-6.9-2.8-10.6l-33.9 10.4z"/><path class="st0" d="M517.4 450.6s1 32.1 3.9 38.9c2.9 6.8 10.7 5.3 14.1-5.8 3.4-11.2-1-56.8-1-56.8l-19.9 9.2 2.9 14.5z"/><path class="st1" d="m527.2 491.4-1-65.1"/><path class="st0" d="M248.7 560.9c-1.9 6.8 7.8 10.7 10.2 7.3 2.4-3.4 19.4-31.1 22.4-31.6 2.9-.5 17 1.9 23.3-3.4 6.3-5.3 13.1-21.4 13.1-21.4l11.2-8.4-37.1-13c-19.1 30.5-42.5 67.9-43.1 70.5z"/><path class="st1" d="m290.5 520.5 4.9 10.2M295.4 514.2l4.8 10.2M301.2 509.4l4.9 10.2M305.1 503l4.9 10.2M250.7 567.2l49.5-78.7"/><path class="st6" d="M305 469.6c-3.8 6.1-8.4 13.2-13.1 20.8l37.1 12.9 2.4-1.8 1.5-13.2-27.9-18.7z"/><path class="st3" d="m336.2 458.8-8.7-16-10.7 8.3s-4.8 7.5-11.8 18.6l27.8 18.8 3.4-29.7z"/><path class="st0" d="M291.5 585.2c.5 4.9 10.7 8.3 12.1 5.3s16.5-44.7 18.5-45.7 18-.5 21.4-9.2c3.4-8.7 5.3-27.2 5.3-27.2l2.3-5.3-29.6-3.5c-11 29.5-30.3 82.1-30 85.6z"/><path class="st1" d="m295.9 588.6 37.4-103.5M324.5 526.4l4.9 10.2M327.9 518.6l4.9 10.2M332.3 508.9l4.9 10.2M334.7 500.6l4.9 10.2"/><path class="st3" d="m359 485.1 11.7-44.7-25.8-7.3-9.7 13.1-6.3 33.5s-.4 1.1-1.2 3.1l30.7 3.7.6-1.4z"/><path class="st6" d="M327.7 482.8c-1.3 3.4-3.5 9.3-6.3 16.7L351 503l7.2-16.6-30.5-3.6z"/><path class="st5" d="M591.8 118.9c5.4-6.1 9-10.7 8.8-12.4-1-3.9-6.8-7.8-8.7-5.8 0-3.9-4.9-9.7-7.8-7.8-1.9-3.9-6.3-6.8-9.2-5.8-1.5-1.9-5.3-4.4-9.2-2.4-1.3.6-3.9 3.2-6.9 6.3 21.4 9.3 30.3 22.8 33 27.9z"/><path class="st6" d="M591.8 118.9c-2.7-5.2-11.5-18.7-33-27.9-6.2 6.7-14 16-14 16s-3.9-4.4-6.8-3.9-24.3 21.4-29.6 36.9c-5.3 15.5 26.2 88.4 26.2 88.4l25.3 35 27.7-.5s-44.7-88.4-41.8-95.2c2-4.9 31-32.1 46-48.8z"/><path class="st5" d="M544.6 107c-.5-1.9-3.9-4.4-6.8-3.9-1.5.2-8.1 6.1-14.8 13.8l11.3 8.8c4.8-7.7 10.6-17.6 10.3-18.7zM534.3 125.8c-3.3 4-11 13.8-11 13.8"/><path class="st1" d="m574.3 121.1 17.5-20.4M566 114.3l18-21.4M559.2 107l15.6-19.9"/><path class="st6" d="M652 638.1c-20.9-10.7-66.6-16-72.4-20.9-11.2-9.2-29.6-73.9-35.5-80.7s-21.9 8.7-21.9 8.7l-9.2 26.7s34.5 53.9 37.9 65.6c1.5 5.8 1 10.2-.5 14.6s3.4 14.6 9.7 14.6c6.3 0 56.8-3.9 63.2-3.4 2.9.2 5.1 3.8 6.8 7.7l42.4-6.7c-2.4-8.2-8-19.8-20.5-26.2z"/><path class="st5" d="m637.1 669.9 2.1 10 6.9-1.2-1.6-9.9zM630.1 671.1c1.9 4.7 3 9.8 3 9.8l6.1-1-2.1-9.9-7 1.1z"/><path class="st5" d="m644.5 668.8 1.6 9.9 8.9-1.4-1.5-9.9z"/><path class="st5" d="m662.8 665.9-9.3 1.5 1.5 9.9 9.3-1.6z"/><path class="st5" d="M674.4 674.1s-.2-4.1-1.9-9.7l-9.7 1.5 1.5 9.8 10.1-1.6zM313.5 643.5h-13.8 13.8l.8-8.3s-13.1-1.9-14.1 0c-.4.8-.7 7.7-.8 15.5h13.4l.7-7.2zM299.4 650.7c-.1 10.8.2 23.2 1.3 23.8 1.9 1 9.7-.5 9.7-.5l.7-7.3h-10.9 10.9l.9-8.8-12.3-.4 12.3.4.7-7.2h-13.3z"/><path class="st6" d="M395.3 583.3c-15.1-2.6-64.8-26.7-69.1-27.1-4.4-.4-11.2 22.6-13.4 54.7s-1 65.2-1 65.2 11.7-.2 18.7-11.6c12.6-21.7 16.8-51.9 18.1-58.7 5.3.9 76 50.8 95.9 49.9 19.9-.9 45.3-16.1 47.2-39-.2-11.7-4.9-20.8-4.9-20.8s-76.4-10-91.5-12.6z"/><path class="st5" d="M430.5 620.6s6.3 8.7 9.7 10.7c88.9-51 111.3-109.3 111.3-109.3l-8.7-3.9-45.8 12.1-66.5 90.4z"/><path class="st1" d="m447.5 626.5-6.8-8.8M455.2 622.1l-9.2-9.7M464 616.7l-9.2-11.1M470.8 610.4l-9.2-10.7M478.1 605.1l-9.3-10.7M485.9 599.2l-10.7-12.6M493.6 592.9l-10.2-13.1M501.4 585.6l-11.2-14.1M508.2 578.8l-11.7-14.1M516 571.5l-13.6-14M522.3 564.3l-11.7-13.6M528.6 554.1l-10.2-12.2M536.4 545.3l-11.2-10.7M544.2 536.6 534 526.4"/><path class="st3" d="m431 435-20.9 5.8s-48.1 23.3-54.4 31.6-15.1 40.3 2.9 63.2c.4.5.7.9 1.1 1.4 19.3-18.2 75-65.4 98-84.7L431 435z"/><path class="st0" d="m495 476.5-37.4-24.2c-22.9 19.4-78.6 66.6-98 84.7 7.4 9.5 17.4 23.6 27.3 38l104.7-89.9 3.4-8.6z"/><path class="st6" d="m405.5 559.1 43.8 50.7c2.2-1.9 4.5-3.9 6.9-6l-43.3-50.9-7.4 6.2z"/><path class="st3" d="M387 575c18.6 26.9 37.1 54.7 38.6 54.4.7-.1 10.3-8 23.7-19.6l-43.8-50.7L387 575z"/><path class="st6" d="m412.8 552.8 43.3 50.9c5.9-5.2 12.3-10.9 18.9-16.9l-45.9-48.2-16.3 14.2z"/><path class="st0" d="m457.8 514.2 44.3 47.7c6.6-6.3 12.8-12.4 18.5-18.2l-45.5-44.3-17.3 14.8z"/><path class="st6" d="M507.7 500.6s3.9-4.9 2.9-6.8c-1-1.9-12.1-15.1-12.1-15.1l-3.5-2.2-3.3 8.6-16.7 14.2 45.5 44.3c9.9-10.2 17.9-19.1 22.1-25.6-8.2-4.8-34.9-17.4-34.9-17.4z"/><path class="st3" d="m429.2 538.7 45.9 48.2c7.3-6.7 14.9-13.6 22.2-20.5l-45.9-46.7-22.2 19z"/><path class="st0" d="m451.4 519.7 45.9 46.7c1.6-1.5 3.2-3.1 4.8-4.6l-44.3-47.7-6.4 5.6z"/><path class="st5" d="m561.8 285.5-74.2 136.3 46.8 4.9 11.7 2.4s18-70 51-107.9c-2.6-10.1-20.2-24.8-35.3-35.7z"/><path class="st7" d="m531.5 356.8 6.8 20.9 22.9-8.8-6.3-20.4z"/><path class="st7" d="m539.3 361.2 2.9 8.2 12.2-3.9-2.5-8.2z"/><path class="st8" d="m531.8 391.5-12.1-30.7-2.5 4.2 12.7 31.1 30.2-9.4c.8-2.1 1.7-4.3 2.7-6.5l-30.1 11.6c-.3.3-.7.1-.9-.3z"/><path class="st8" d="m556.4 341.7-32.2 11.2 10.7 30.7 31.8-11.9c.2-.6.5-1.1.8-1.7 0 0-.1-.1-.1-.2l-11-28.1z"/><path class="st8" d="m526.5 403.7-12.1-32.5-4.9 9 11.8 35.5 32.1-10.1c1.3-3.6 2.6-7.6 4.2-11.7l-30.2 10.3c-.3.1-.8-.1-.9-.5zM530.2 339.3l-2.2 6 30.6-10.6c.3-.1.8 0 .9.4l11.5 27.5 2.1-4.2-11.8-30.3-31.1 11.2z"/><path class="st8" d="m540.3 321.9-3.4 6.5 28.4-8.7c.4-.1.8.1.9.4l11 30.4c.9-1.7 1.8-3.3 2.8-4.9l-11.5-34.1-28.2 10.4z"/><path d="m570.6 306.1-26.7 9.7 1.3-3.5 21.5-6.7c.4-.1.6-.5.5-.9l-1-3.4c0-.2-.2-.3-.3-.4-.2-.1-.4-.1-.6 0l-16.1 5.3 3.9-11.2c.1-.3 0-.8-.4-.9-.3-.1-.8 0-.9.3l-49.1 91.8c-.1.1-.1.4 0 .5l11.2 37.4c.1.3.4.5.7.5h.2L550 416c1-3.1 2.1-6.6 3.4-10.4l-32.1 10.1-11.8-35.5 4.9-9 12.1 32.5c.1.4.5.6.9.4l30.2-10.3c.8-2.2 1.7-4.6 2.7-6.9l-30.2 9.4-12.7-31.1 2.5-4.2 12.1 30.7c.1.4.6.5.9.4l30.1-11.6c1.2-2.9 2.5-5.8 3.8-8.7l-31.8 12-10.7-30.7 32.2-11.2 10.9 28c0 .1.1.1.1.2 1.1-2.4 2.3-4.9 3.4-7.3l-11.5-27.5c-.1-.3-.5-.5-.9-.4l-30.6 10.6 2.2-6 31.1-11.3 11.8 30.3c1.4-2.7 2.8-5.3 4.2-8l-11-30.4c-.1-.4-.5-.6-.9-.4l-28.4 8.7 3.4-6.5 28.2-10.3 11.5 34.1c1.3-2.1 2.5-4.2 3.8-6.3l-12.2-32.8c-.1-.5-.6-.7-1-.5zM582.8 310.9c-.1-.4-.4-.6-.8-.5l-2.9.5c-.2 0-.4.1-.5.3s-.1.4-.1.6l6.6 25.8c1-1.6 2-3.1 3.1-4.6l-5.4-22.1z"/><path class="st3" d="m475.3 279.2-21 14.4-21.9 76.8-26.7 33 8.2 10.7 30.7 3.2 51.5-82.9z"/><path class="st0" d="m539.3 270.3-48.1-1.9-15.9 10.9 20.7 55.2-51.5 82.9 43.1 4.5 74.2-136.3c-12-8.9-22.5-15.3-22.5-15.3z"/><path class="st6" d="M474.2 317.9s0 20.6 2.9 23.3c3 2.7 22.8-.8 23.8-4.9 1-4.1-4.9-19.4-4.9-19.4l13.1-5.3s5.5 12.6 9.7 14.1 17.2-8.8 16.5-13.1c-.7-4.3-11.7-12.6-11.7-12.6l-26.2 9.7-23.2 8.2z"/><path class="st3" d="M496.5 292.2c12.6-7.3 14.1-23.5 13.9-32l-10.1-11.3-19.9 1.9-22.4 18-1.5 25.9c8.5 2.1 26.9 5.1 40-2.5z"/><path class="st0" d="M500.4 304.8c16-7.8 20.6-23.1 21.9-31.5l-11.8-13.1c.1 8.5-1.4 24.6-13.9 32-13.2 7.7-31.6 4.6-39.9 2.6l-.7 13c7.7 2 26.8 5.6 44.4-3z"/><path class="st0" d="m529.6 281.5-7.3-8.2c-1.3 8.4-5.8 23.7-21.9 31.5-17.6 8.6-36.8 5.1-44.5 3l-.7 11.6s24.3 9.2 50.5-2.4c26.3-11.7 23.9-35.5 23.9-35.5z"/><path class="st5" d="M232.7 483.6c0 3.4 6.8 6.3 10.2 2.4 1.9 4.9 4.9 6.8 10.7 4.4-.5 5.3 5.3 7.3 11.2 3.4 1.5 3.9 7.8 3.9 11.2-.5.9-1.1 2.4-6.1 4.2-12.9l-44.5-9.3c-1.7 5.9-3 11.2-3 12.5z"/><path class="st6" d="M458.6 404.3c1.6 4 3.5 12.1.5 24.3-2.9 12-9.5 18.8-13.6 22 .7.3 1.4.6 1.9.8 10.7 5.3 45.7 35.5 45.7 35.5s13.6-7.8 41.3-60.3c-24.8-11.6-51.3-18.6-75.8-22.3z"/><path class="st6" d="M459.1 428.7c3-12.2 1-20.4-.5-24.3-17.2-2.6-33.2-3.5-47.1-3.4-33.5.5-62.7-1.9-62.7-1.9s-48.1 4.4-62.2-1.5c-14.1-5.8-41.3-.5-44.2 3.9-2.9 4.4-11.2 40.8-11.2 45.2 0 4.4 10.2 3.9 10.2 3.9s-3.3 11.1-5.8 20.6l44.5 9.3c5.2-20 12.8-55.6 12.8-55.6l35.5-12.1 56.8 25.8s46.4 7 60.3 12.3c4.1-3.4 10.7-10.2 13.6-22.2z"/><path class="st5" d="M234.1 431.3c-1.7 7.4-2.8 13.7-2.8 15.4 0 4.4 10.2 3.9 10.2 3.9l4.6-15.7-12-3.6z"/><path class="st1" d="m250.2 420.4-4.1 14.4M242.9 486l7.8-32M253.6 490.4l7.3-33M264.8 493.8l4.8-33"/><path class="st3" d="M373.1 769.8c5.8 2.4 48.1 39.8 51 40.3 2.9.5 24.3-1.9 32.1 4.4 2.9 2.9 0 10.7 0 10.7L410 833l-50.5-44.7s7.8-20.9 13.6-18.5z"/><path class="st3" d="M367.3 785.3c6.8 5.8 48.6 40.8 53 40.3 4.4-.5 27.2-6.3 31.6-4.4 4.4 1.9 6.8 4.4 6.3 8.7s-45.2 16-49.6 15.1c-4.4-1-8.7-7.3-11.7-12.1-2.9-4.9-17.5-16-25.8-14.6-8.3 1.5-22.8 27.7-39.4 31.1-16.5 3.4-43.2-9.7-39.4-40.3 2.4-8.7 22.4-29.2 26.2-50s14.6-16 14.6-16l31.1 8.3c.2-.1-3.7 28.1 3.1 33.9zM371.7 731.9s39.8-13.1 45.7-13.6 11.2 11.7 4.4 18.9c-3.4 3.4-26.7 11.2-26.7 11.2l-25.3 1.9-7.8-6.3 1.5-11.2 8.2-.9z"/><path class="st6" d="M359.5 757.2s-22.4 36-25.3 50c.5 2.4 6.8 1.5 6.8 1.5l-1.5 3.9s9.2 6.3 25.3 3.9c7.3-44.2 12.1-53.9 12.1-53.9l-17.4-5.4z"/><path class="st4" d="M331.8 747s0 11.2-.5 22.4c-4.9-9.2-7.3-1.5-7.3-1.5s-5.3-8.7-8.7-3.9c-4.4-8.7-9.2-3.4-9.2-3.4s-2.4-10.7-8.7-4.4c0-11.2-6.8-7.8-6.8-7.8s-.5-9.2-5.8-7.3c.5-7.3-3.9-8.3-3.9-8.3s2.4-4.9-2.4-6.8c1.5-5.3-1.9-9.2-1.9-9.2s3.9-4.4-.5-8.3c5.8-5.3 2.4-8.7 2.4-8.7l24.3 2.9 25.3 18 3.7 26.3z"/><path class="st1" d="m301.7 708.1-25.7.5M303.2 713.4l-26.8 3.4M304.6 716.8l-26.2 7.8M306.6 721.2l-25.8 11.7M310.4 725.6l-25.7 15.5M312.4 730.4l-21.9 18M315.8 733.8l-18.5 22.4M319.2 735.3l-13.1 25.3M324.1 736.3l-8.8 27.7M327.9 736.3l-3.8 31.5"/><path class="st5" d="m341.1 808.7-1.5 3.9s9.2 6.3 25.3 3.9c.3-1.8.6-3.5.9-5.2l-23.2-4.9c-1 1.4-1.5 2.3-1.5 2.3z"/><path class="st5" d="M334.3 807.2c.5 2.4 6.8 1.5 6.8 1.5s2.2-3.3 4.8-8.5l-8-3.3c-1.7 3.9-3.1 7.5-3.6 10.3z"/><path class="st5" d="M350.3 787.8s-7 17.6-4.5 12.4"/><path class="st1" d="m346.9 815 1.9-7.3M353.2 815.5l1-5.9M359 815.9l1-5.3"/><path class="st3" d="M369.2 740.2s53.4 12.6 54.9 19.4-1.9 13.1-9.2 14.6c-15.1 1.9-57.3-15.5-57.8-18s12.1-16 12.1-16zM333.8 740.6s-16.5-.5-25.3-12.1-7.8-22.4-5.8-25.8 22.8-18.9 25.3-19.4c2.4-.5 8.7 1 11.2-1.5 2.4-2.4 14.6-13.1 20.4-14.1s14.6 0 17 3.4c2.4 3.4 2.9 7.8 2.9 7.8l5.8 1-2.9 5.8s2.9.5 2.9 3.4-1.9 3.9-1.9 6.3 6.8 3.9 6.8 9.2c0 5.3-16.5 27.2-21.9 31.1s-34.5 4.9-34.5 4.9z"/><path class="st1" d="M372.2 704.7c-1-3.9 8.3-15.1 10.2-18.9M365.8 675.5s-4.9 3.9-2.4 7.3c2.4 3.4 16-3.9 16-3.9"/><path class="st5" d="M339.6 706.6c-1.7-3.7-6.2-4.1-9.6-3.7l6.1 12c2.5-1.6 5.3-4.4 3.5-8.3z"/><path class="st5" d="M347.4 699.3c-5.8-11.7-20.4-2.4-20.4-2.4l3.1 6c3.4-.3 7.8 0 9.6 3.7 1.8 3.9-1 6.7-3.4 8.3l2.5 4.9c-.2-.1 14.4-8.8 8.6-20.5z"/><path class="st6" d="M332.3 733.8c-6.3 5.8-2.4 22.8 6.3 24.3 6.3 1 7.3-3.9 10.2-3.4 2.9.5 9.7 4.4 16-1.5 6.3-5.8 5.8-16.5 2.4-20.9s-28.6-4.3-34.9 1.5z"/><path class="st1" d="M343 730.4s1.9 8.7-1.5 11.7-7.8-1.5-7.8-1.5M350.3 729.5s-2.4 13.6 3.4 14.1 5.3-6.8 5.3-6.8"/><path class="st3" d="M566 741.6s25.8 36.4 32.6 38.4c6.8 1.9 35 8.3 36.4 12.1 1.5 3.9-2.9 7.8-2.9 7.8l-50-3.4-37.4-47.6 7.8-11.7 13.5 4.4z"/><path class="st3" d="M551.9 748.9s31.6 43.7 38.9 45.7c7.3 1.9 35 0 39.4 1.5 4.4 1.5 6.8 7.8 5.8 9.7-1 1.9-47.6 12.1-53.4 9.7s-20.4-28.7-24.8-30.6c-4.4-1.9-13.1-.5-15.1.5-1.9 1-18.5 31.6-26.7 37.4-8.3 5.8-19.4 7.8-30.6 7.3-30.1-8.3-25.3-35-21.4-44.7 3.9-9.7 16-20.9 20.9-31.1 4.9-10.2 7.8-19.4 7.8-19.4l26.7-3.9 32.5 17.9zM582.1 726.5s14.1-10.7 16.5-18.5c2.9-10.2-8.3-13.1-14.1-12.1-5.8 1-46.6 31.6-46.6 31.6l3.9 7.8 40.3-8.8z"/><path class="st6" d="M532 743.6s-16.5 24.3-14.6 36c2.9 1.9 7.8 1 7.8 1s.5 7.3.5 8.7c0 1.5 20.9 0 21.4-2.4s.5-19.4 2.4-25.3c1.9-5.8 9.7-17.5 9.7-17.5l-27.2-.5z"/><path class="st4" d="m467.9 670.7-20.9-4.9s1.5 2.9-1.5 6.8c.5 2.9-2.9 6.8-2.9 6.8s1.5 4.4-1.5 8.7c3.4 3.4 0 6.8 0 6.8s2.4 2.9 1.5 7.8c3.4 2.9 2.9 5.8 2.9 5.8s2.9 1.5 3.4 6.3c4.9 0 5.3 5.3 5.3 5.3s4.9 0 7.8 5.3c5.3 1.5 6.3 4.4 6.3 4.4s4.9 0 6.8 3.4c5.3-.5 9.7.5 9.7.5l6.8-5.3-10.2-42.8-13.5-14.9z"/><path class="st1" d="m466.4 675-20.9-2.4M465.9 679.4h-23.3M465.9 684.8l-24.7 3.4M466.4 689.6l-25.2 5.4M465.9 695.9l-23.3 6.8M468.4 700.8l-22.9 7.8M470.3 705.7l-21.4 9.2M474.2 708.6l-19.9 11.6M476.6 712.9 462 725.6M480.5 714.4l-12.1 15.5M485.4 716.8l-10.2 16.5M531 763c-3.4 5.3-5.8 17.5-5.8 17.5l22.3-1c.3-6.1.7-14.3 2-18"/><path class="st5" d="M525.2 780.5s.5 7.3.5 8.7c0 1.5 20.9 0 21.4-2.4.2-.9.3-3.7.4-7.3l-22.3 1z"/><path class="st1" d="M525.2 780.5s2.4-12.1 5.8-17.5"/><path class="st5" d="M518.8 769.5c-1.2 3.7-1.7 7.2-1.3 10 2.9 1.9 7.8 1 7.8 1s.8-4.2 2.2-8.8l-8.7-2.2z"/><path class="st3" d="M524.7 745.5s63.7 1 74.8-2.4 7.3-15.5 0-18-69 2.4-69 2.4l-5.8 18zM467.9 670.7c-4.4 3.4-14.1 32.6 18.5 50 11.2 3.9 28.7 8.7 28.7 8.7l15.5-3.4s24.3-22.8 24.3-27.7c0-4.9-7.8-7.8-7.8-12.6s3.9-7.3 3.9-7.3c-3.9-3.4-7.3-1.5-7.3-1.5l4.9-6.8s-3.9-1.5-7.8-1c-1.5-1.9-17-9.2-17-9.2l-19.9 11.7s-5.3.5-7.3-1c-1.9-1.5-2.9-6.3-4.4-7.3-1.5-.9-19.9 4-24.3 7.4z"/><path class="st1" d="M543.7 677c-5.8 5.8-8.7 16-8.7 16"/><path class="st3" d="M524.2 670.7c-5.3 4.4-.5 10.2 5.8 8.7s11.7-13.1 10.7-16.5c-1-3.4-12.6-3.9-17-2.9s-19.9 11.7-19.9 11.7"/><path class="st5" d="M495.6 690.6c.5-3.7-3.2-5.2-6.6-5.9V695c3-.1 6.1-1.1 6.6-4.4zM488.8 679.9s0 0 0 0 0 0 0 0z"/><path class="st5" d="M503.8 681.4c-2.9-2.4-14.6-1.5-15.1-1.5.1.1.2 2 .2 4.8 3.4.6 7.1 2.2 6.6 5.9-.5 3.3-3.5 4.3-6.7 4.5 0 6.3-.1 12.1-.1 12.1s14.1-4.9 16.5-10.7 1.5-12.7-1.4-15.1z"/><path class="st6" d="M509.7 725.1s-12.6-11.2-18.9-8.7c-6.3 2.4-7.3 7.3-4.4 9.7-1.5 1.5-2.9 7.8 0 10.7 2.9 2.9 17-1 17-1l6.3-10.7z"/><path class="st1" d="M486.3 726.1c8.3-.2 20.7 4.2 20.7 4.2M530.6 790.2v-8.3M536.4 788.3l-.5-7.8M542.2 787.3l-.5-7.3"/><path class="st6" d="M522.3 738.2c4.5-.7 8.1 0 10.7 1.1.9-1.7 1.5-3.5 1.5-5.4 0-7.2-7.2-13.1-16-13.1s-16 5.9-16 13.1c0 5.3 3.9 10 9.6 12 1.4-2.9 4.5-6.8 10.2-7.7z"/><path class="st6" d="M522.3 738.2c-5.7.9-8.8 4.8-10.3 7.6 2 .7 4.2 1.1 6.5 1.1 6.5 0 12.1-3.2 14.6-7.7-2.7-.9-6.3-1.7-10.8-1z"/><path class="st4" d="M246.3 251.3s-9.2-16.5 1.5-26.2 39.4-12.1 39.4-12.1l17.5 21.9-9.7 16.5h-48.7z"/><path class="st1" d="M242.4 239.2C271.6 225.1 291 229 291 229"/><path class="st4" d="M258 271.7s-26.2 13.6-35.5 14.6c-9.2 1-14.1-9.2-9.2-18 4.9-8.7 32.6-24.8 67.5-26.2 35-1.4-22.8 29.6-22.8 29.6z"/><path class="st4" d="M239.5 278.6c-4.9 4.9-13.6 33-12.6 40.8 2.9 13.6 14.6 12.6 18.5 1.5 2.9-8.7 18.5-23.3 18.5-23.3l-2.4-30.1c-.1-.1-17.1 6.2-22 11.1z"/><path class="st4" d="M253.6 292.2c-9.2 18.5-4.9 29.6-4.9 40.8 0 11.2 1 26.2 3.4 31.1 2.4 4.9 15.5 5.8 20.4-2.4 4.9-8.3 4.4-16.5 4.4-16.5l-10.7-34c0-.1-3.4-37.5-12.6-19z"/><path class="st4" d="M276.9 349s5.8 21.9 6.3 35.5c.5 13.6-.5 34 3.9 40.3 4.4 6.3 14.6 4.4 19.9-2.4 5.3-6.8 8.3-12.1 8.3-12.1l-4.9-33-26.2-30.6-7.3 2.3zM371.7 451.5c6.3-1 15.5-6.8 14.6-13.6-1-6.8-53.4-54.9-53.4-54.9l-13.1 1.5 27.2 57.8c-.1 0 18.4 10.2 24.7 9.2z"/><path class="st1" d="M213.3 282c31.1-28.2 54.4-23.8 54.4-23.8M382.4 445.7 340.1 400M297.8 427.7c-5.8-31.6-4.9-64.1-4.9-64.1M261.4 368.4c1.9-14.6 0-58.8 0-58.8M234.2 328.6c5.3-42.8 19.9-44.7 19.9-44.7"/><path class="st4" d="M329.9 384c6.8 1.9 19.9-10.2 16.5-15.1s-16-15.1-31.6-27.7c-15.5-12.6-31.1-36.4-31.1-36.4l-6.3 14.6 18 40.8s27.7 21.8 34.5 23.8z"/><path class="st1" d="M341.1 378.6c-13.1-10.2-38.9-36.4-38.9-36.4"/><path class="st4" d="M304.6 389.3s1 31.1 6.8 52 12.6 44.2 17 49.1c4.4 4.9 20.9 1 20.4-10.2s-10.2-33.5-11.7-40.8c-1.5-7.3-12.6-38.9-12.6-38.9l-19.9-11.2z"/><path class="st1" d="M340.6 490.9s-19.4-46.6-21.9-83.1"/><path class="st4" d="M295.9 236.8c-7.8 1-26.2 10.2-34.5 22.4-8.3 12.1-14.8 26.8-3.9 53.4 9.5 23.4 55 93.2 69.5 113.7 14.5 20.4 32.6 49.6 34.9 51.5 4.7 4.1 25.1-3.2 19.9-13.1-16-30.6-81.6-118.6-98.2-161.8-5.7-14.9-3.4-21.9-3.4-21.9l24.3-10.2 8.7-15.1-9.2-18.9c.1 0-.4-1-8.1 0zM327.5 166.3l-5.4 20.4-2.4 7.3 4.4 6.8 25.7-17 3.4-16.5-12.6-6.3z"/><path class="st1" d="m327.5 193.5 5.8-27.7M335.7 188.7l4.9-24.3"/><path class="st4" d="m301.7 186.7-1-16s17.5.5 19.9 1.5 3.9 22.8 3.9 22.8L306 219.8l-8.7-9.2 4.4-23.9z"/><path class="st1" d="m310.4 211-1.9-38.9"/><path style="fill:none;stroke:#000;stroke-width:3.7901;stroke-linecap:round;stroke-linejoin:round;stroke-miterlimit:10" d="m316.5 206.6-.4-34.9"/><path class="st4" d="m304.1 212.5 46.2-39.4 30.6 12.6-1.5 8.3-60.7 48.1-16.5-21.9z"/><path class="st1" d="m312.4 231.9 56.4-52M303.2 225.6l58.8-52"/><path class="st4" d="M323.1 234.8c-22.4-23.3-18.9-42.3-21.4-48.1-2.4-5.8-18.9-5.3-20.9 1-1.9 6.3 2.9 41.3 25.3 65.1 14.6 2.4 39.3 5.3 17-18z"/><path class="st1" d="M287.6 183.8s-1.9 35 21.9 64.6M295.4 183.8c0 42.3 23.3 58.3 23.3 58.3M303.6 244.1s-33.5 8.7-35.5 42.8 106.9 190 106.9 190"/><path class="st6" d="M416.9 201.3 374.6 178l-8.3-37.4 31.6-37.4s23.8 5.8 25.8 8.7c1.9 2.9 1.9 5.8 4.9 7.3 2.9 1.5 21.4-4.4 32.6-1.9 5.8 1.9 7.8 8.7 6.3 14.1-1.5 5.3-12.6 11.7-12.6 11.7s8.3-2.9 18 2.4c-4.4 1-7.8 3.9-10.7 10.7 2.9-1.5 9.2-3.4 10.7.5s-2.4 9.2-1.5 11.7c1 2.4 6.3 4.9 5.8 11.7s-4.4 23.3-4.4 23.3l-55.9-2.1z"/><path class="st1" d="M460.1 170.7s-3.4-5.3 1.9-14.6M412.5 140.6h12.6"/><path class="st6" d="M461.1 117.2c5.8 1.9 7.8 8.7 6.3 14.1-1 3.7-6.7 7.9-10.1 10.1-7.4 3-8.8-3.3-8.4-5.7s3.9-4.4 3.9-4.4"/><path class="st10" d="M410.5 147.8c8.7-16.5-8.3-22.8-8.3-22.8l-8.6 20.1 14.2 6.9c1-1.2 1.9-2.5 2.7-4.2z"/><path class="st11" d="m393.7 145-5 11.6s10.7 6.3 19.2-4.6l-14.2-7z"/><path class="st5" d="M401.8 143c2-3.6-1.2-7-3.4-8.8l-5 11.5c3.1.3 6.9.1 8.4-2.7z"/><path class="st1" d="m402.3 125-3.9 9.1c2.2 1.8 5.4 5.2 3.4 8.8-1.6 2.8-5.2 3.1-8.4 2.7l-4.7 10.9s13.1 7.8 21.9-8.7-8.3-22.8-8.3-22.8z"/><path class="st5" d="M425.1 140.6c-3.4 6.8-12.6 31.6-20.4 43.2-7.8 11.7-1 16-1 16l1.4 1c7.7-12.7 19.8-35.1 27.3-60.6-3.1-.2-5.6-.2-7.3.4z"/><path class="st4" d="M628.7 275.6c-3.9-4.9-58.3-17.5-63.7-20.9 17-1.5 20.4-15.5 14.6-18.9-5.8-3.4-58.3-10.2-63.2-11.7 3.9-2.9 6.3-10.7 1.9-15.1s-44.7-9.7-52.5-9.2c4.4-2.9 28.7-2.9 31.6-2.4 2.9.5 3.9-2.4 2.9-5.3S477 180 477 180s-4.9 7.8-16.5 13.1c-6.8 2.4-27.2-4.9-27.7-12.6-.5-7.8 16-34 21.9-37.4-3.5 0-14.4-2.3-22.4-2.8-7.4 25.5-19.5 47.9-27.3 60.6l32.1 21.9 52 34.5s105.9 69 113.7 69.5c7.8.5 11.2-8.7 8.3-15.5-2.9-6.8-42.8-30.1-42.8-30.1s44.2 16.5 53.4 13.1 10.9-13.8 7-18.7z"/><path class="st1" d="M568.5 281c-53-32.6-80.7-40.3-80.7-40.3M483.4 233.4c4.4-2.9 51.5 12.1 81.6 21.4M516.5 224.1c-40.3-10.2-61.7-3.4-61.7-3.4M429.5 207.6s22.8-7.8 36.4-7.8M627.7 286.3l-106.4-32.5M610.7 319.4l-120-71.5M580.6 245.5c-54.9-6.8-88.9-26.2-103.5-16.5M446.5 215.9s22.4-17 72.9 1M477.1 189.1c10.2-.5 23.3 5.8 23.3 5.8"/><path class="st6" d="M290.5 291.2s32.1 27.7 35 29.2c2.9 1.5 5.8 1.9 7.8 2.9 1.9 1 4.4 10.7 6.3 14.6 1.9 3.9 18.9 30.6 23.8 32.6 4.9 1.9 15.1-1.9 18.9-5.8 5.3-7.3 5.3-29.2 5.3-29.2l23.3-.5 48.1-56.4 4.4-18.5-22.8-38.4-53.4-16-27.2 2.9-68.5 68.5-1 14.1z"/><path class="st6" d="M339.6 337.8c1.9 3.9 18.9 30.6 23.8 32.6 4.9 1.9 15.1-1.9 18.9-5.8 5.3-7.3 5.8-25.3 5.3-29.2 0-2.4-1.5-3.9-4.4-5.3-2.9-1.5-12.9-.4-14.5 3.9-1.6 4.3-.1 13.1-.1 13.1"/><path class="st11" d="M377.5 272.7c0-6.3-4.9-10.7-7.3-11.2-1-.2-7.4 5.1-14.4 11.5l18.2 11.5c2.3-4.2 3.7-8.5 3.5-11.8z"/><path class="st10" d="M355.9 273c-9.4 8.6-19.7 19-19.1 20.1 1 1.9 8.3 11.2 18.5 9.2 6.8-1.3 14.5-9.6 18.9-17.8L355.9 273z"/><path class="st1" d="M336.7 293.1c-1-1.9 31.1-32.1 33.5-31.6 2.4.5 7.3 4.9 7.3 11.2.5 9.7-12.1 27.7-22.4 29.6-10.2 2-17.4-7.2-18.4-9.2z"/><path class="st5" d="M343.5 284.9c3.8 2 11.1 4.7 16-.5 5.4-5.8 1-11.6-1.1-13.8-4.9 4.5-10.6 9.9-14.9 14.3z"/><path class="st1" d="m387.7 335.4 9.2 22.4s29.2-19.4 42.3-43.2l-14.1-16c0-.1-24.8 26.1-37.4 36.8z"/><path class="st5" d="M472.7 284.9c-2.9-7.8-19.4-12.1-25.3-12.1s-9.7 4.9-9.7 4.9 3.9 7.8-1.5 12.1c-5.3 4.4-15.5-3.9-15.5-3.9s-8.7 7.3-7.8 9.7c1 2.4 7.8 12.1 7.8 12.1l3.4 11.1 15.1-4.3 7.3 1.9-17.2 57.3 14.3 5.4 20.4-74.8c6.3-7.3 11.7-11.7 8.7-19.4z"/><path class="st10" d="m439.2 314.5-15.1 4.2 3.4 11.4-13.6 37.9 9.3 3.5 17.1-56.7z"/><path class="st11" d="m446.5 316.5-6.2-1.7-17.1 56.7 6 2.2z"/><path class="st1" d="m439.2 314.5-15.1 4.2 3.4 11.4-13.6 37.9 15.3 5.7 17.3-57.2zM440.2 335.4l-12.7-3.9M434.4 355.8l-13.7-3.9"/><path class="st11" d="M425.1 298.5s-24.8 26.2-37.4 36.9l3.4 8.2 38.7-39.8-4.7-5.3z"/><path class="st10" d="M429.7 303.7 391 343.5l5.9 14.2s29.2-19.4 42.3-43.2l-9.5-10.8z"/><path class="st1" d="m387.7 335.4 9.2 22.4s29.2-19.4 42.3-43.2l-14.1-16c0-.1-24.8 26.1-37.4 36.8zM414.9 343.2l-17-15.6M427.5 330.1 411 314.5"/><path class="st5" d="M447.5 272.7c5.8 0 22.4 4.4 25.3 12.1 2.9 7.8-1.5 19.4-8.7 19.4-9.2-1-3.9-11.7-3.9-11.7"/><path class="st4" d="m291 133.8 37.6 10.2c1.4-3.6 1.4-6.9-1.7-8.7-9.2-5.3-34.5-9.7-34.5-9.7l-8.7 29.6 34 4.4s3.2-3.3 6.3-7.5l-36.4-7.6L324 152c1.8-2.5 3.6-5.3 4.6-8L291 133.8z"/><path class="st5" d="m335.7 168.7-20.9-3.4s10.7-29.2 12.1-30.1l22.4 5.8-13.6 27.7z"/><path class="st4" d="m347.4 70.6-33.5-11.7-7.8 21.4s25.8 3.4 35 6.3 6.3-16 6.3-16zm-37-.5 36.9 8.7-36.9-8.7z"/><path class="st5" d="m370.2 78.4-23.8-11.7s-8.3 22.8-8.3 25.3c0 2.4 24.3 10.7 24.3 10.7l7.8-24.3zM370.2 78.4s7.8-26.2 10.2-28.2 36.4 12.1 37.4 17-11.7 28.2-11.7 28.2l-34.5-1.9-1.4-15.1z"/><path class="st1" d="m379 85.7 13.1-33.1M391.1 91.5l13.1-33.1"/><path class="st5" d="m378.5 121.6 15.6 4.9 12.1-31.1-36.9-18.5s-23.3 69-33.5 91.8c12.1 5.8 33 16 38.9 18.5 5.8 2.4 11.7-15.5 11.7-15.5l-7.8-4.9-18-6.8 17.9-38.4z"/><path class="st5" d="m374.1 140.6-15.5-7.8 3.8-7.3 14.1 6.3z"/><path class="st3" d="M279.4 279c-.5 4.4 8.7 12.1 11.2 15.1 8.7-5.3 26.2-29.6 43.7-48.1s36.4-35 36.4-35 21.9 20.4 47.1 14.6c8.3-2.4 7.8-6.8 7.8-6.8s-28.2-50.5-49.1-33.5-96.7 89.4-97.1 93.7z"/><circle class="st2" cx="467.4" cy="250.3" r="24.3"/><circle class="st0" cx="467.4" cy="250.3" r="14.8"/><circle class="st1" cx="467.4" cy="250.3" r="6.8"/><path class="st2" d="M408 207.3s5.8-5.5 6.9-9.4c0 0 2.4-6.3-1-9.7s-9.2-4.4-9.2-4.4 1.9-2.4-1-4.9c-2.9-2.4-17-8.7-21.9-8.3-4.9.5-9.2 9.7-7.3 16.5s12.6 11.7 15.5 14.1c2.9 2.4 6.6 8 12.1 14.1 5.3 5.8 13.1 3.4 13.1 3.4s1.7-.6 3.8-1.8c-7.4-2.9-11-9.6-11-9.6z"/><path class="st5" d="M425.6 205.2c-5.3-7.8-10.7-7.3-10.7-7.3-1.1 3.9-6.9 9.4-6.9 9.4s3.6 6.7 11.3 9.7c4.2-2.3 9.9-6.6 6.3-11.8zM403.7 178.9c-.8-.7-2.6-1.7-4.8-2.8l-6.3 10.6 7.2 3.4 4.9-6.3s2-2.4-1-4.9z"/><path class="st1" d="M397.4 195.5s0-1.9 2.4-5.3M386.7 183.8l6 3"/><path class="st2" d="M425.6 234.3c2.9 0 8.7-6.8 10.7-4.4s0 9.7-1 11.7c-1 1.9 1.5 2.4 4.9 1.9 3.4-.5 19.4-18 18-21.4s-20.4-18.5-32.1-17c-2.9 1-9.7 9.7-10.7 13.6-1 4 4.4 14.7 10.2 15.6z"/><path class="st4" d="m378.5 121.6-18 38.4 18 6.8 15.6-40.3z"/></svg>