<svg version="1.1" id="Calque_1" xmlns="http://www.w3.org/2000/svg" x="0" y="0" viewBox="0 0 900 900" style="enable-background:new 0 0 900 900" xml:space="preserve"><style>.st0,.st1,.st10,.st11,.st2,.st3,.st4,.st5,.st6,.st7,.st8,.st9{fill:red;stroke:#000;stroke-width:3.7855;stroke-linecap:round;stroke-linejoin:round}.st1,.st10,.st11,.st2,.st3,.st4,.st5,.st6,.st7,.st8,.st9{fill:#0080ff}.st10,.st11,.st2,.st3,.st4,.st5,.st6,.st7,.st8,.st9{fill:#009912}.st10,.st11,.st3,.st4,.st5,.st6,.st7,.st8,.st9{fill:none}.st10,.st11,.st4,.st5,.st6,.st7,.st8,.st9{fill:#fbce14}.st10,.st11,.st5,.st6,.st7,.st8,.st9{fill:#fff}.st10,.st11,.st6,.st7,.st8,.st9{fill:#face15}.st10,.st11,.st7,.st8,.st9{fill:#00680a}.st10,.st11,.st8,.st9{fill:#fdce12}.st10,.st11,.st9{fill:#ffce00}.st10,.st11{fill:#00447c}.st11{fill:none;stroke-width:6.0568}</style><path class="st0" d="M510.9 791s-.5 8.3 5.7 18.2c8.7 1 30 9.5 30 9.5s9 4.1 12.3-6c7.4.2 7-6.8 7-6.8s7-.3 5.4-8.2c6.1-.6 5.6-2.7 2.7-7.3-2.9-4.6-20.5-5.8-20.5-5.8l-20.2-2.7-8.2 1.1-14.2 8z"/><path class="st1" d="M548.1 814.6s-23.6-13.5-34.4-10-33 7.6-33 7.6-2 8.5 2.2 9.9c4.1 1.5 20.2-7.7 30.6-7.7 10.4 0 26.7 6.7 30 5.5 3.1-1.2 4.6-5.3 4.6-5.3z"/><path class="st1" d="M500.5 759.1c5.7-.2 11.9 28.9 10.4 31.8-2.8 5.8 2.8 13.6 2.8 13.6s-27.3 10.5-33 7.6c-5.8-2.8-2.7-16-2.7-16l6.8-15.9 4.1-19.8c0 .1 6.2-1.1 11.6-1.3z"/><path class="st2" d="M482.4 783.8c-2.8-.7-7.1 9.3-4.4 12.4 2.7 3.1 22.4 3.8 46.2-8.6 8.6 3.5 18.2 11.2 22.1 9.6 3.8-1.6 7.7-9.6 7.7-9.6s6.5-2.4 4.2-7.4c-10.3-2.4-22.2-.7-26-5.6-3.8-4.9-13.9-10.7-13.9-10.7l-7.7 16.1c-.1 0-25.4 4.5-28.2 3.8z"/><path class="st3" d="m553.9 787.6-17.4-6"/><path class="st0" d="M461.6 709c3.3 9.2 17.9 24.4 18.8 35.1 1 10.6-6.8 25.8-6.8 25.8l1.6 10.3s6.3 4.9 13 1.6c6.7-3.4 1.1-15.1 6.8-16.3 3-.3 6 21.2 25.1 15.8 7.1-2.8 8.1-11.5 8.1-11.5s7.8-1.6 6.5-8.9c2.2-3.3-1.3-7.2-1.3-7.2s7-4.3-2.2-9.9c-3.8-.9-16.7-.9-16.7-.9s-10.8-.5-16.7-11.3c-5.9-10.8 2.4-37.6 2.4-37.6l-36.4 4.9c.3-.2-5.5.9-2.2 10.1z"/><path class="st4" d="M474.1 793.8c1.2-7.2 4.3-20.3 7.8-25 1.6-2.6-3.7-7.3-7.1-3.6s-8.2 20.4-.7 28.6zM518.4 771.9c3 2.2 9.8 2.8 18.1 9.7-2.2-9.9-10.9-14.9-15.8-15.1-5-.2-5.3 3.2-2.3 5.4zM520.4 761c5.4 2.3 13-2.4 22.7 6.8 3.2-11.6-12.2-15.7-20.2-15.6s-7.9 6.5-2.5 8.8zM516.9 742.3c2.8-5.7 27.5-5 29.4 5.9-11.7-.8-14.8-4.5-26-.4-4.6 1.7-4.8-2.8-3.4-5.5z"/><path class="st5" d="M567 786.7c3.2.9 6.1 2.1 7.1 3.7 2.9 4.6 3.4 6.7-2.7 7.3 1.6 7.8-5.4 8.2-5.4 8.2s.3 7-7 6.8c-3.4 10.1-12.3 6-12.3 6s-2-1.1-2.7-4.8c1.6-9.1 8.7-6.2 8.7-6.2s0-6.5 5.9-6.1c-1.5-6.3 5.2-7.2 5.2-7.2s-3.3-5.2 3.2-7.7z"/><path class="st3" d="M552.7 807.7c5.3.7 6.3 4.9 6.3 4.9M558.5 801.6c5.3.7 7.4 4.2 7.4 4.2M563.7 794.4c5.3.7 7.7 3.3 7.7 3.3"/><path class="st0" d="M400.8 803.6s-4.8 6.8-4.8 18.4c6.8 5.5 20.5 23.9 20.5 23.9s5.5 8.2 13.7 1.4c6.1 4.1 9.6-2 9.6-2s6.1 3.4 8.9-4.1c5.5 2.7 6.1.7 6.1-4.8s-13.7-17.1-13.7-17.1l-15.7-13-8.2-2-16.4-.7z"/><path class="st1" d="M406.9 763.2c26.2 12.5 9.6 45.8-11.6 33-4.5-2.7 8 5.7 5.4 7.3-5.5 3.4-4.8 13-4.8 13s-28.7-5.5-32.1-10.9c-3.4-5.5 6.1-15 6.1-15l25.3-29.4c.1 0 10 1.3 11.7 2z"/><path class="st2" d="M375.5 777.6c-2.2-2-6.1 8.9-5.5 13 .7 4.1 17.1 15 43.7 17.1 5.5 7.5 9.6 19.1 13.7 19.8 4.1.7 11.6-4.1 11.6-4.1s6.8 1.4 7.5-4.1c-7.5-7.5-18.4-12.3-19.1-18.4s-6.1-16.4-6.1-16.4l-15 9.6c-.1-.1-23.3-9.7-30.8-16.5z"/><path class="st3" d="M439 823.4 427.4 809"/><path class="st0" d="M402.1 707.9c-2 9.6 2.3 30.2-2.5 39.7-4.8 9.6-19.4 18.3-19.4 18.3l-4.1 9.6s2.7 7.5 10.3 8.2c7.5.7 8.9-12.3 14.3-10.3 2.7 1.4-6.1 21.2 13 26.6 7.5 1.4 13-5.5 13-5.5s7.5 2.7 10.3-4.1c3.6-1.7 2.7-6.8 2.7-6.8s8.2 0 3.4-9.6c-2.7-2.7-13.7-9.6-13.7-9.6s-8.9-6.1-8.2-18.4c.7-12.3 21.9-30.7 21.9-30.7l-33.5-15c0 .1-5.4-2-7.5 7.6z"/><path class="st4" d="M368 786.5c4.8-5.5 14.3-15 19.8-17.1 2.7-1.4.7-8.2-4.1-6.8-4.8 1.3-17.8 12.9-15.7 23.9zM417.1 791.3c1.4 3.4 6.8 7.5 10.3 17.8 3.4-9.6-1.4-18.4-5.5-21.2-4.1-2.8-6.1-.1-4.8 3.4zM424.7 783c3.4 4.8 12.3 4.8 15.7 17.8 8.9-8.2-2-19.8-8.9-23.9-6.8-4.1-10.3 1.4-6.8 6.1zM431.5 765.3c8.2-2 26 10.3 21.9 20.5-9.6-6.8-10.3-11.6-21.9-14-4.8-1-3-5.8 0-6.5z"/><path class="st1" d="M419.9 843.2s-13-23.9-23.9-26.6c-10.9-2.7-32.1-10.9-32.1-10.9s-6.1 6.1-3.4 9.6c2.7 3.4 21.2 4.1 30.1 9.6 8.9 5.5 19.1 19.8 22.5 20.5 3.4.5 6.8-2.2 6.8-2.2z"/><path class="st5" d="M450.7 829.5c2.3 2.5 4.1 5 4.1 6.9 0 5.5-.7 7.5-6.1 4.8-2.7 7.5-8.9 4.1-8.9 4.1s-3.4 6.1-9.6 2c-8.2 6.8-13.7-1.4-13.7-1.4s-1.1-2 .2-5.5c6.1-6.8 10.7-.7 10.7-.7s3.4-5.5 8.2-2c2-6.1 8.2-3.4 8.2-3.4s0-6.2 6.9-4.8z"/><path class="st3" d="M427.4 839.8c4.1 3.4 2.7 7.5 2.7 7.5M435.6 837.7c4.1 3.4 4.1 7.5 4.1 7.5M443.8 834.3c4.1 3.4 4.8 6.8 4.8 6.8"/><path class="st1" d="M270.9 797.4s9.6 11.6 26.6 9.6c17.1-2 42.4-31.4 42.4-31.4l8.9-15.7-4.1-15.7-38.9 20.5-34.9 32.7z"/><path class="st6" d="M245 780.3s0 21.9 23.2 19.8c23.2-2.1 71-45.1 77.9-47.8 6.8-2.7 16.4-14.3 16.4-14.3l-8.2-11.6-36.9 7.5-41.7 26.6-30.7 19.8z"/><path class="st1" d="M231.7 763.9c-5.2 7.6 5.7 20.5 13.9 21.2 22.5 0 36.2-15 49.9-24.6 13.7-9.6 32.8-18.4 32.8-18.4l13.7-23.2-10.9-5.5-68.3 29.4c-.1-.1-25.9 13.5-31.1 21.1z"/><path class="st4" d="M230 731.1c-14.3 10.9-10.9 33.6 1.4 36.3 12.3 2.7 26-13.1 47.1-23.3 21.2-10.3 54-21.9 54-21.9l4.1-15.7-28.7-4.8c-.1.1-63.6 18.5-77.9 29.4z"/><path class="st1" d="M301 697.7s-56.3 5.7-62.9 10.3c-8.9 6.1-13 21.2-8.2 26 10.9 8.2 75.8-20.5 75.8-20.5l19.8-.7-4.8-17.1-19.7 2zM335.2 716.1s-13.7 16.4-15 26.6c21.2 2.7 34.8-4.8 34.8-4.8l15-5.5 2.7-17.1-11.6-8.9-25.9 9.7z"/><path class="st1" d="M328.3 700.4s-5.5 6.8-22.5 13c19.8 14.3 50.6 5.5 50.6 5.5l23.2-8.9 1.4-23.2-21.9-7.5-15 5.5-15.8 15.6z"/><path class="st1" d="M287.3 681.9s9.9 29.1 32.4 25c22.5-4.1 30.4-16.2 30.4-16.2l4.8-16.4-67.6 7.6zM369.3 720.2s-28 19.8-29.4 55.3c18.4-13 29.4-21.9 29.4-21.9l14.3-15.7 8.9-25.3h-13l-10.2 7.6z"/><path class="st1" d="M404.8 657.4s-32.1 13.7-44.4 13.7c-8.9.7-17.8 15-17.1 19.8 6.8 1.4 21.2-.7 29.4 4.8s21.2-2 21.2-2l22.5-13.7 2-21.2-13.6-1.4z"/><path class="st1" d="M413 676.5c-11.6 12.3-45.1 13-56.7 42.4 17.8 10.9 44.4-6.8 44.4-6.8l11.6-9.6c.1-.1 12.4-38.3.7-26z"/><path class="st1" d="M403.5 706.5s-34.2 17.8-34.2 47.1c23.2-6.1 34.2-11.6 34.2-11.6l9.6-34.8-9.6-.7z"/><circle class="st7" cx="414.4" cy="233.1" r="18.7"/><path class="st8" d="M433.1 232c.4 7.4-3.6 14.7-10.8 18-4.7 2.2-9.8 2.2-14.3.6-1.2-3.5-1.8-12.6 6.4-17.5 8.2-4.9 18.5-3.4 18.7-1.1z"/><path d="M430.5 242.6c-1.9 3.1-4.7 5.8-8.2 7.4 0 0-4-4.7.2-8.1 4.2-3.3 8 .7 8 .7z"/><circle class="st7" cx="468.4" cy="209.2" r="18.7"/><path class="st4" d="M485.6 216.3c-2.8 6.9-9.7 11.6-17.5 11.5-5.2-.1-9.8-2.2-13.1-5.7.5-3.7 3.9-12.2 13.4-13 9.5-.7 18.1 5.1 17.2 7.2z"/><path d="M478.7 224.7c-3 2-6.7 3.2-10.6 3.1 0 0-1.5-5.9 3.7-7.1s6.9 4 6.9 4z"/><path class="st1" d="M537.4 198.9s27.3-19.8 44.4-50.6c17.1-30.7 47.8-95 72.4-98.4 2.7 12.3-48.5 83.3-53.3 102.5-4.8 19.1-18.4 53.3-53.3 56-34.8 2.8-10.2-9.5-10.2-9.5z"/><path class="st8" d="M545.6 205.8c35.5-9.6 37.6-26 55.3-53.3 17.8-27.3 72.4-80.6 84.7-85.4 4.1 10.3-50.6 56-69.6 103.8-23.5 59.2-65.7 52.6-65.7 52.6s-40.2-8.2-4.7-17.7z"/><path class="st1" d="M550.5 235.2c-10.5-1.5-30.5-5.8-.9-13.7 38.3-10.3 50.6-27.3 64.7-46.5 26.6-30.7 46.7-60.1 89.7-73.8-.7 6.1-50.6 40.3-75.8 88.1-25.3 47.8-72.4 46.5-72.4 46.5s-2.2-.2-5.3-.6z"/><path class="st8" d="M623.4 195.2c26.6-25.3 49.3-46.8 82.8-49.5-8.2 10.3-54.5 44.7-70.3 63.2-15.7 18.4-37 60.5-80 44.1-17.8-16.4-33.5-8.2 0-17.1 33.4-9 48.4-21.9 67.5-40.7z"/><path class="st1" d="M549.7 252.9c29.4 0 40.3 2.7 75.8-34.2 35.5-36.9 84-43 93.6-43.7 0 4.8-54 34.8-58.8 47.1s-35.5 41.7-35.5 41.7l-64.2 17.8-16.4-3.4s-23.9-25.3 5.5-25.3z"/><path class="st9" d="M549 270s52.6 2 84-26.6c31.4-28.7 66.3-38.3 96.3-34.2-6.1.7-61.5 16.4-86.8 47.8s-57.4 34.2-88.1 32.1c-30.7-2-5.4-19.1-5.4-19.1z"/><path class="st3" d="M542.8 203.7s34.2-17.8 47.8-51.2c10.3-26 58.8-100.4 63.5-102.5M544.2 214.7c54.6-18.4 58.8-41.6 68.3-60.1 13.7-26.6 73.1-87.4 73.1-87.4M554.5 230.4s42.4-9.6 66.3-47.1 74.5-79.9 83.3-82M553.8 244.7s34.8 1.4 65.4-34.8c28.9-33.5 87-64.2 87-64.2M553.1 261.8s43 2.7 71.7-28c28.7-30.7 94.3-58.8 94.3-58.8M555.8 280.9s45.1 4.8 75.8-26c38.3-40.3 95.7-46.5 95.7-46.5"/><path class="st1" d="M546.9 298c10.3-6.8 13.7-23.9 5.5-30.7-8.2-6.8-41.7-6.8-41.7-6.8l-30.7 1.4-2 26c-.1-.1 58.7 16.9 68.9 10.1z"/><path class="st3" d="m542.8 280.2-53.2-5.4"/><path class="st8" d="m488.2 268.6 64.2-1.4c6.1-7.5 9.6-17.1 2.7-25.3-6.8-8.2-17.1-5.5-17.1-5.5l-53.3 17.1 3.5 15.1z"/><path class="st3" d="m543.5 255.6-54.6 6.2"/><path class="st1" d="M488.9 255s45.8-10.9 66.3-13c10.3-15.7-8.9-26-8.9-26l-65.6 22.5 8.2 16.5z"/><path class="st3" d="m488.2 248.8 56-17.1"/><path class="st8" d="M473.2 229s48.2-32.3 62.2-32.3c10.3 0 19.8 12.5 9.6 22.1l-58.8 21.9-13-11.7z"/><path class="st3" d="m482.7 233.1 50.6-23.2"/><path class="st4" d="M484.8 284.3s7.5-19.8 6.1-32.1c-1.4-12.3-5.5-23.9-13-26.6-7.5-2.7-13 4.8-13 4.8l-7.5 32.8 10.9 24.6 16.5-3.5z"/><path class="st1" d="M449.9 239.9s5.5-10.3 10.9-10.3c5.5 0 13.7 4.8 17.8 20.5 4.1 15.7-4.1 32.1-4.1 32.1l-19.1 6.8-5.5-49.1z"/><path class="st1" d="M437 246.1s1.6-12.2 16.6-8.8c15 3.4 17.5 35.4 10.7 44.3-6.8 8.9-25.3 8.2-25.3 8.2l-2-43.7z"/><circle class="st7" cx="433.2" cy="263.5" r="19.5"/><path class="st8" d="M426 281.6c-7.2-2.9-12.3-9.9-12.3-18.1 0-5.4 2.2-10.3 5.7-13.8 3.9.4 12.7 3.9 13.8 13.8 1 9.9-5 19-7.2 18.1z"/><path d="M417.2 274.6c-2.2-3.1-3.4-7-3.4-11.1 0 0 6.1-1.7 7.5 3.8 1.3 5.4-4.1 7.3-4.1 7.3z"/><path class="st2" d="M521.7 381.4s7.5-45.1 45.1-73.8c-54.6-44.4-160.5-20.5-160.5-20.5l8.2 46.5 21.9 64.9 85.3-17.1z"/><path class="st3" d="m374.8 384.8-58.1-9.6"/><path class="st6" d="M195.8 399.1c-8.9 2.7-9.6 17.1 0 22.5 9.6 5.5 36.2 2.7 36.2 2.7l-2-15c0 .1-25.3-12.9-34.2-10.2z"/><path class="st3" d="M195.8 421.7c4.1-10.9 26-15 26-15"/><path class="st1" d="M227.9 396.4s-1.4 36.2 5.5 38.3c6.8 2 32.1-3.4 32.1-3.4l9.6-19.1-34.8-19.8-12.4 4z"/><path class="st10" d="M227.9 396.4s-1.4 36.2 5.5 38.3c2.1.6 6 .5 10.3.1l-3.5-42.5-12.3 4.1z"/><path class="st1" d="m369.6 517-9.1 89.3 57.4 40.1 55.6 10.9 51-19.1s.9-99.3-1.8-99.3S489 507 489 507l-119.4 10M329.6 359.4s-21.2-9.1-30.3-36.9c-9.1-27.8-27.1-51-47.6-56 19.6 23.7 24.1 46.5 24.1 46.5l19.1 43.7 27.8 15 6.9-12.3z"/><path class="st3" d="M251.7 266.5c31.4 22.3 32.3 49.7 44.2 67.9 11.8 18.2 26.9 29.1 26.9 29.1"/><path class="st6" d="M241.2 291.5c34.6 12.7 39.2 34.6 54.2 53.3 15 18.7 25.1 24.1 25.1 24.1l-6.4 11.8-25.5-7.7-9.1-22.3c0 .1-10.5-26.3-38.3-59.2z"/><path class="st3" d="M321 376.7s-21-11.8-34.2-31.4c-13.2-19.6-31.9-46-45.5-53.8"/><path class="st1" d="M216.2 308.4c18.7 2.3 50.6 28.7 67 46.9s31 25.5 31 25.5l3.5 10.7-6.7 3.5s-35.2-9.8-39.6-21.4c-6-15.5-37-47.9-55.2-65.2z"/><path class="st6" d="M309.6 393.6s-17.7-5-44.5-24.1c-26.9-19.1-53-34.6-62.5-36.4 4.6 7.3 22.8 26 27.8 32.3 5 6.4 35.1 40.6 35.1 40.6l42.4 9.1 6.8-12.7-5.1-8.8z"/><path class="st3" d="M217.6 308.9c17.3 9.6 47.8 38.7 60.1 54.2 12.3 15.5 33.7 23.7 33.7 23.7M202.5 333c4.1 2.7 29.6 26.4 61.5 47.8s44.2 24.1 44.2 24.1"/><path class="st1" d="M304.6 412.7s-29.1-15-50.6-29.6-36.9-25.1-57.8-25.1c15.9 12.3 49.7 38.3 49.7 38.3l32.3 23.7 27.8 9.1 2.3-9.6-3.7-6.8z"/><path class="st3" d="M303.7 416.8s-22.8-6.4-44.2-21c-21.4-14.6-35.5-28.7-62-37.4"/><path class="st4" d="M190.2 385.8c35.1-14.1 58.3 12.7 74.3 22.3 15.9 9.6 44.2 14.1 44.2 14.1l-2.7 10.5-41.5-10.5c0 .1-27.3-21.8-74.3-36.4z"/><path class="st3" d="M190.2 385.8c18.2-1.4 44.2 8.7 66 24.1 21.9 15.5 48.3 16.9 48.3 16.9M384.4 578.8c-5.5 0-11.6 6.8-14.3 18.4-2.7 11.6-15.7 25.3-15.7 25.3s12.3 4.8 17.8-8.9c-3.4 14.3 10.3 15.7 10.3 15.7l8.2-8.9 10.3-25.3c-.2.1-11.2-16.3-16.6-16.3z"/><path class="st1" d="M184.9 712.7s4.8-32.1 26-51.2 36.2-39.6 36.2-39.6l26-28 19.8 2.7-29.4 56.7s-8.9 6.8-22.5 21.9c-13.8 14.9-56.1 37.5-56.1 37.5z"/><path class="st1" d="M280.5 612.9s-51.2 50.6-40.3 92.9c33.5-28.7 38.3-32.8 38.3-32.8l15-14.3 2.7-36.2-15.7-9.6z"/><path class="st1" d="M311.2 592.4s-24.6 45.1-32.1 64.2 6.1 41 6.1 41 26.6-49.2 38.3-60.1l11.6-10.9-8.2-28-15.7-6.2z"/><path class="st1" d="M325.6 619.8c-2 17.8-18.4 33.5 2 57.4 21.9-19.1 29.4-30.1 29.4-30.1l6.8-14.3 1.4-48.5-8.9-18.4-17.1 10.3c.1-.1-11.6 25.8-13.6 43.6z"/><path class="st1" d="M354.3 593.1s-6.8 56.7 8.2 75.8c14.3-23.9 26.6-32.8 26.6-32.8l-4.8-25.3-30-17.7zM291.4 576.1l-10.9 18.4s-13.7 30.7 6.8 41c21.9-26.6 26-48.5 26-48.5l2.7-19.1-24.6 8.2z"/><path class="st1" d="M324.2 575.4s-4.1-.7-10.9 11.6-5.5 38.9-.7 41.7c24.6-5.5 37.6-49.9 37.6-49.9l-12.3-10.3-13.7 6.9z"/><path class="st1" d="M349.5 573.3c-13 19.1-2.7 42.4-9.6 58.1 20.5-2.7 35.5-26 35.5-26l15-35.5c.1 0-27.9-15.7-40.9 3.4z"/><path class="st1" d="M355 559s4.1 18.4 13 23.2c10.3-8.9 22.5-12.3 22.5-12.3l12.3-27.3-11.6-21.9-19.1 5.5L355 559zM239.5 625.2C256.6 603.4 273 574 273 574l13-2-4.8 25.3c0-.1-10.9 25.9-41.7 27.9z"/><path class="st1" d="M329 576.1s11.6 7.5 21.2 2.7 15.7-15.7 15.7-15.7l6.1-28-21.9 1.4-16.4-2.7-4.8 11.6v30.7zM278.5 568.5s.7 9.6 1.4 30.7c17.1-7.5 30.1-30.7 30.1-30.7l-.7-25.3-15.7-.7-15.1 26z"/><path class="st1" d="M304.4 545.3s-2 25.3 8.9 45.1c32.1-8.9 20.5-51.9 20.5-51.9l-6.1-4.8-23.3 11.6zM273.7 543.3s-2 16.4-6.1 36.9c26-7.5 31.4-33.5 31.4-33.5l-.7-15.7-24.6 12.3z"/><path class="st1" d="M277.8 541.9s14.3 8.2 26 7.5 26.6-14.3 26.6-14.3l-8.6-15.8-34.4 7.6-9.6 15z"/><path class="st1" d="M307.1 528.2s10.9 10.3 23.2 11.6 21.9-.7 21.9-.7l10.9-15.7-6.1-9.6-49.9 14.4zM615.9 707.9s36.9 30.1 51.2 29.4c4.1-25.3-48.5-94.3-48.5-94.3l-14.3-15-15 5.5 1.4 21.2 25.2 53.2z"/><circle class="st1" cx="425.7" cy="296.5" r="6.5"/><circle class="st1" cx="448.6" cy="292.5" r="6.5"/><circle class="st1" cx="470.8" cy="292.5" r="6.5"/><circle class="st1" cx="493" cy="295.3" r="6.5"/><circle class="st1" cx="517.6" cy="302.1" r="6.5"/><circle class="st1" cx="536.7" cy="308.9" r="6.5"/><circle class="st1" cx="527.1" cy="324.6" r="6.5"/><circle class="st1" cx="508.7" cy="319.2" r="6.5"/><circle class="st1" cx="488.2" cy="315.1" r="6.5"/><circle class="st1" cx="467.7" cy="312.3" r="6.5"/><circle class="st1" cx="447.2" cy="311" r="6.5"/><circle class="st1" cx="446.5" cy="331.5" r="6.5"/><circle class="st1" cx="465" cy="332.2" r="6.5"/><circle class="st1" cx="484.8" cy="334.2" r="6.5"/><circle class="st1" cx="503.1" cy="338" r="6.5"/><circle class="st1" cx="521" cy="343.1" r="6.5"/><circle class="st1" cx="512.1" cy="364.3" r="6.5"/><circle class="st1" cx="493.7" cy="360.2" r="6.5"/><circle class="st1" cx="476.6" cy="356.1" r="6.5"/><path class="st1" d="M579.7 692.9s27.3 32.1 47.8 40.3c4.1-25.3-35.5-84-35.5-84L576.3 628l-13.7 6.8-5.5 16.4 22.6 41.7z"/><path class="st1" d="M558.6 708.6s27.3 19.1 36.9 19.1c-2-10.9-8.2-30.1-13-47.8s-19.1-32.8-19.1-32.8l-19.1-16.4-10.9 10.3 4.1 25.3 21.1 42.3z"/><path class="st1" d="M523 687.4s24.6 34.8 43.7 31.4c0-26.6-27.3-69-27.3-69l-14.3-8.2-14.3 12.3 12.2 33.5z"/><path class="st1" d="M506.6 688.1s10.3 16.4 20.5 19.8c9.6-32.8-5.5-47.8-5.5-47.8l-15 28zM404.8 688.1s-8.9 12.3-4.1 23.9c11.6.7 21.9-5.5 21.9-5.5l7.5-19.1-10.9-10.9-14.4 11.6z"/><path class="st1" d="M427.4 689.5s-8.9 15-11.6 30.7c11.6 4.1 19.1-1.4 19.1-1.4l20.5-14.3 4.8-34.2-28-5.5-4.8 24.7z"/><path class="st1" d="M452 689.5s-17.1 17.8-17.1 29.4c19.8 2 28.7-1.4 28.7-1.4l23.9-21.9 32.8-49.2-19.8-30.7-32.8 41.7-15.7 32.1zM428.1 669s2 27.3 4.8 31.4c16.4-10.3 17.8-29.4 17.8-29.4l-2.7-6.8-19.9 4.8z"/><path class="st1" d="M485.5 664.2c17.1 2.7 23.2-30.1 23.2-30.1s-2-14.3-4.1-15c-2.1-.7-14.3 2.7-14.3 2.7L476 656.6c-.1.1-4.9 2.1 9.5 7.6zM503.2 664.9s-30.1 19.1-39.6 52.6c27.3-4.1 37.6-19.8 37.6-19.8l5.5-23.9-3.5-8.9zM450.6 671s-8.9 23.9 4.8 33.5c15.7-8.9 16.4-19.8 16.4-19.8l-2.7-25.3-18.5 11.6z"/><path class="st1" d="M509.4 626.6s-19.8 51.9-8.2 71c20.5-6.1 24.6-51.2 24.6-51.2l-16.4-19.8z"/><path class="st1" d="M501.2 625.2s17.1 31.4 38.9 29.4c4.1-9.6 1.4-21.2 1.4-21.2l-15-28-22.5-5.5-2.8 25.3z"/><path class="st1" d="M529.2 623.9s18.4 28.7 32.8 32.1c10.3-9.6 10.9-21.2 10.9-21.2s7.5 8.2-1.4-13.7-18.4-27.3-18.4-27.3l-28-10.3-11.6-17.1s-13-6.1-15-2.7c-2 3.4-6.8 19.1-6.8 19.1l37.5 41.1z"/><path class="st1" d="M546.9 600.7c16.4 12.3 28.7 59.4 60.1 51.2-15.7-32.8-22.5-57.4-22.5-57.4L562 587l-17.1-1.4s-14.4 2.8 2 15.1z"/><path class="st1" d="M580.4 583.6s3.4 31.4 16.4 47.1 34.2 17.8 41 15.7c-23.9-26-23.2-38.9-23.2-38.9l-16.4-19.1-17.8-4.8zM508.7 601.3l10.2 11.6 8.9-18.4-15.7-30.1h-21.9l6.2 24.6z"/><path class="st1" d="M505.3 567.9s18.4 41.7 43 48.5c13.7-13-9.6-43.7-9.6-43.7l-33.4-4.8zM532.6 569.2s25.3 39.6 48.5 43.7c15.7-15-4.8-37.6-4.8-37.6l-43.7-6.1z"/><path class="st1" d="M570.2 571.3s22.5 44.4 51.2 35.5c-11.6-15-19.1-27.3-19.1-27.3l-10.9-7.5-21.2-.7z"/><path class="st4" d="M496.4 567.2s28.2 4 54.6 7.5c30.7 4.1 44.4 2 51.2 4.8-4.1-13.7-13-13.7-13-13.7l-62.9-13-26.6-10.3-9.6 13.7 6.3 11z"/><path class="st1" d="M490.9 533.7s15.7 26.6 39.6 30.7c23.9 4.1 59.4 4.8 64.2-.7 4.1-6.8 9.6-25.3 9.6-25.3l-60.8-2.7s-6.1-23.9-13.7-30.1c-7.5-6.1-23.9-5.5-23.9-5.5l-15 33.6z"/><path class="st4" d="M612.5 474.3S594.7 460 590 464s19.1 28 15.7 31.4c-3.4 3.4-10.9-8.2-15-4.8-4.1 3.4 21.4 23.2 11.6 26-4.1 2-6.1-5.5-9.6-3.4-3.4 2 13.7 18.4 13.7 18.4l12.3-.7 5.5-36.2-11.7-20.4z"/><path class="st1" d="M604.3 538.5c-2.7-4.8-34.2-4.8-39.6-1.4s-11.6 26-6.8 30.1 32.8 2 36.9-3.4c4.1-5.5 12.3-20.5 9.5-25.3z"/><path class="st11" d="m566.7 542.9 6.6.4M564.8 553.1l7.6.2M564.1 562.4h7.4M583.1 542.2l7-.7M580.5 552.4l8.3-.5M580.5 562.4l9.2-.9"/><path class="st6" d="M493.7 633.4c23.9-8.9 10.3-21.2 10.3-21.2s10.3 17.8 26.6 11.6c-15.7-20.5-30.7-48.5-30.7-48.5l-20.5 4.8-2 13c-.1 0-7.6 49.2 16.3 40.3z"/><path class="st6" d="M468 576.8c-1-3.5 3.5-13.7 17.2-13.6 13.7.1 20.3 9.4 20.3 9.4s-8.9 12.8-21.3 12.9c-12.3 0-15.2-5.1-16.2-8.7z"/><path class="st4" d="M467.7 559.7c-1.4-3.4 2-14 15.7-15.4 13.7-1.4 21.2 7.2 21.2 7.2s-7.5 13.7-19.8 15c-12.3 1.4-15.7-3.4-17.1-6.8zM422.6 592.4c-3.4 23.9-17.8 95.7-17.8 95.7s10.3 6.1 15-6.1c-1.4 15.7 15.7 11.6 15.7 11.6s-.7-84.7 3.4-101.1c5.5 15 21.9 79.9 30.7 96.3 13.7-4.1 6.8-15 6.8-15s7.5 15 17.1 6.8c-12.3-25.3-41.7-101.1-40.3-122.3 1.4-16.4 2.7-22.5 2.7-22.5l-32.1-.7-11.6 17.2c.2 0 13.8 16.2 10.4 40.1z"/><path class="st3" d="M439 592.4c.7-18.4 0-54 0-54"/><path class="st7" d="M385.7 612.9c-13 15 12.3 61.5 60.8 59.4 48.5-2 58.8-55.3 43.7-67-5.5-7.5-15-11.6-15-11.6l-2 8.9s5.5 36.9-30.7 39.6c-27.3 1.4-34.8-30.1-34.8-30.1l-5.5-7.5c-.1.1-3.5-6.7-16.5 8.3z"/><path class="st3" d="M394.6 612.3s4.8 47.8 51.2 42.4c46.5-5.5 37.6-49.2 37.6-49.2"/><path class="st7" d="M453.4 584.9s6.1 16.4 13 19.8c6.8 3.4 23.9.7 23.9.7s-2.7-15.7-13.7-20.5c-11-4.8-23.2 0-23.2 0zM422.6 592.4s-6.1 16.4-13 19.8c-6.8 3.4-23.9.7-23.9.7s2.7-15.7 13.7-20.5c10.9-4.8 23.2 0 23.2 0z"/><path class="st4" d="M419.9 549.4c-2 7.5-28.7 4.8-28.7 4.8s-11.6 30.7-10.9 38.3c.7 7.5 9.6 10.3 13.7 6.1 6.1 4.8 14 4.1 16.7-1.4 8.9 4.1 12-.7 12.6-6.1.7-5.5-3.4-41.7-3.4-41.7z"/><path class="st3" d="m393.9 598.6 3.4-30.1M410.7 597.2l-.4-27.3"/><path class="st6" d="M301.4 443.3s-100.7.9-118 1.8c.9 4.1 44.2 21.4 44.2 21.4l31.9 3.2 50.1-3.6-8.2-22.8z"/><path class="st1" d="M188.4 470.1c43.3-3.6 53.3-10 79.3-10.5s36 1.4 36 1.4l2.3 19.1s-54.7 6.4-70.6 4.1c-16-2.2-32-9.1-47-14.1z"/><path class="st3" d="M252.2 451.9c-57.4-.5-68.8-6.8-68.8-6.8M188.4 470.1c37.4 7.3 56.5 0 76.5-2.7s37.4 1.4 37.4 1.4"/><path class="st6" d="M303.7 472.4s-31.1-1.3-57.5 5.6c-26.4 6.8-37.7 19.5-71.4 21.3 23.2 16.4 76.1-3.2 76.1-3.2l14.1 5.5 43.7-10-5-19.2z"/><path class="st3" d="M303.7 482s-28.2-2.7-50.6 2.7c-22.3 5.5-55.1 22.8-76.5 15"/><path class="st1" d="M170.6 527.1c49.2-4.1 65.1-25.1 85.2-32.8s50.1-2.7 50.1-2.7v15l-33.7 15-22.8-1.8c.1 0-55.7 27.6-78.8 7.3z"/><path class="st3" d="M309.6 499.7s-26-2.3-50.6 5-48.3 31.9-87 22.8"/><path class="st6" d="M252.2 518c-13.7 9.6-24.6 22.3-72 41.5 3.6.5 23.2 3.6 50.1-3.6 26.9-7.3 21.9-2.7 21.9-2.7l47.8-27.3 13.2-3.2-.9-15c0-.2-28.2-6.6-60.1 10.3z"/><path class="st3" d="M310 513.4s-17.3-5.5-50.1 11.4-33.7 32.3-77.9 34.2"/><path class="st1" d="M310 516.1s-21.9-.9-56 23.7c-31.3 22.5-38.7 37.8-61.5 51 48.7-.5 53.3-24.1 72.4-39.2 19.1-15 49.7-22.1 49.7-22.1l-.5-9.8-4.1-3.6z"/><path class="st3" d="M309.6 522.5s-30.5 7.7-50.1 21.4-25.1 41-67 46.9"/><path class="st10" d="m306.4 452.8-54.2-.9s-1.4-28.2 5-30.5c6.4-2.3 50.6 2.3 50.6 2.3l-1.4 29.1z"/><path class="st1" d="m307.3 433.2-.9 19.6-54.2-.9s-.5-11.2.7-20.1l54.4 1.4z"/><path class="st4" d="m270 452.2-6.9-.1.9-20 6.4.2zM278.2 432.5l6.4.1.8 19.9-6.8-.1z"/><path class="st1" d="M362.5 520.7s-43.7 8.9-47.8 8.9c-4.1 0-10.3-10.3-6.1-17.8-10.9-6.8-6.1-11.6-4.1-16.4-4.1-7.5-4.8-16.4-2-17.8-5.5-7.5-3.4-13 0-15.7-7.5-6.1-4.8-15 .7-19.1-4.1-6.1-2-14.3 2-17.8-3.4-6.8-3.4-14.3 2.7-17.8-2.7-6.1 0-15 3.4-16.4-1.4-5.5-2-14.3 5.5-15.7 0-8.2 4.1-13.7 10.9-15.7 6.8-2 21.2 6.1 21.2 6.1l34.8 15 18.4 44.4 2.7 69.7-42.3 26.1z"/><path class="st3" d="M335 526.1c-9.7 1.8-18.6 3.5-20.4 3.5-4.1 0-10.3-10.3-6.1-17.8-10.9-6.8-6.1-11.6-4.1-16.4-4.1-7.5-4.8-16.4-2-17.8-5.5-7.5-3.4-13 0-15.7-7.5-6.1-4.8-15 .7-19.1-4.1-6.1-2-14.3 2-17.8-3.4-6.8-3.4-14.3 2.7-17.8-2.7-6.1 0-15 3.4-16.4-1.4-5.5-2-14.3 5.5-15.7 0-8.2 4.1-13.7 10.9-15.7 4.2-1.3 11.2 1.3 16 3.5-2.3 3.4-34.4 100.4-8.6 163.2zM398 470.8l-95.6 6.9M394.6 485.9l-90.2 9.5M382.3 502.3l-73.8 9.5M397.3 457.2l-94.9 4.8M398 444.9l-94.9-2.1M385 429.8l-79.9-4.7M377.5 415.5l-69.7-8.2M384.4 400.5l-73.2-9.6"/><path class="st4" d="M331.3 515.5c1.1 3.6 2.3 7.2 3.8 10.7-5.2 1-10.2 1.9-13.9 2.6-2.1-2.9-2.1-7.3.7-9.4 2.6-2.2 9.4-3.9 9.4-3.9zM327.5 499.1c.5 3.1 1.2 6.8 1.9 9.9l-14.1 2.1s-3.4-6.8.7-9.9c4-3.1 11.5-2.1 11.5-2.1zM325.5 481.4c.2 3.8.6 7.8 1.1 11.5l-16.1 1.8s-2-8.5 2.4-11.6c4.4-3.1 12.6-1.7 12.6-1.7zM325 465.8c0 3.6 0 6.8.2 10.5l-16.5 1s-1.7-9.7 3.4-11.1c5.2-1.3 12.9-.4 12.9-.4zM325.7 449.6c-.2 3.6-.4 7.3-.5 10.9l-17.1 1s-4.1-9.6 1.4-11.6 16.2-.3 16.2-.3zM327.5 431.5c-.5 3.9-1 7.9-1.3 12l-17-.7s-2-9 3.4-11.1c5.4-2 14.9-.2 14.9-.2zM329.9 415.8c-.6 3.4-1.2 7-1.7 10.6l-17.7-1s-2-10.4 5.5-11.4c7.4-1.1 13.9 1.8 13.9 1.8zM332.8 400.7c-.6 2.9-1.2 6.1-1.8 9.2l-17.8-2.1s1.4-9.3 7.5-9.7c6.2-.3 12.1 2.6 12.1 2.6zM336.8 384.4c-.8 2.9-1.6 6.1-2.4 9.5l-16.7-2.4s0-9.2 5.5-9.6c5.4-.3 13.6 2.5 13.6 2.5zM341.3 369c-.8 2.5-1.8 5.7-2.9 9.5l-15.3-2.4s.7-12 7.2-12c6.5.1 10.9 4.2 11 4.9z"/><path class="st3" d="m316.7 375.2 6.4.9"/><path class="st4" d="M394.6 488.6s-17.4 2.7-27.7 17.1c-10.3 14.3-14 28-25.6 43.7 14.3 3.4 24.6-5.5 24.6-5.5l19.8-25.3 17.8-14.3-8.9-15.7z"/><path class="st4" d="M396 499.5s-12.3 1.3-21.9 16.3c-9.6 15-8.2 40.4-23.9 63 21.2-2.7 30.7-41 35.5-47.8 4.8-6.8 13.7-6.8 13.7-6.8l-3.4-24.7z"/><circle class="st2" cx="423.6" cy="552.3" r="11.3"/><circle class="st2" cx="461.5" cy="550.8" r="11.3"/><circle class="st2" cx="501.2" cy="536.4" r="11.3"/><circle class="st2" cx="523.7" cy="501.6" r="11.3"/><path class="st2" d="M416.5 541.9s59.4 6.1 78.6-7.5c19.1-13.7 27.3-37.6 12.3-51.2-8.3-10.3-10.9-9.6-10.9-9.6l-71 39.6-15.7 6.1 6.7 22.6z"/><path class="st2" d="m393.2 498.2-2 56s26.6 2.7 28.7-4.8-2-17.8 2.7-20.5c4.8-2.7 43 7.5 65.6-8.2 22.5-15.7 13.7-34.2 13.7-34.2l-17.1-27.3-60.1.7-31.5 38.3z"/><path class="st1" d="M486.1 472.2s9.6 15 15.7 14.3c2.6-.3 4.9-6.1 17.8-6.2 12.9-.2 20.4-2 32-5.4 11.6-3.4 21.9-13 21.9-13l-15-31.4s-10.9 8.9-21.9 7.5c-6.8 2-34.2 3.4-34.2 3.4l-18.4 7.5 2.1 23.3z"/><path class="st0" d="M590.7 418.9s13.2-5.5 13.9-11.6 3.9-19 12.1-19 12.3-2.2 12.3-2.2l-5.5 39.6s-1.4 16.4-14.3 19.8c-13.1 3.5-18.5-26.6-18.5-26.6z"/><path class="st9" d="M627.6 331.5s10.3-21.9 15.7-19.1c5.5 2.7-8.9 29.4-4.1 31.4 4.8 2 10.9-7.5 14.3-4.1 3.4 3.4-17.8 22.5-10.9 32.1 2.7 2.7 15-4.1 14.3.7-.7 4.8-21.2 21.9-21.2 21.9l-14.3-38.3 6.2-24.6z"/><path class="st1" d="M592 414.8c3.4 2 20.5 30.7 19.8 34.2-2.7 6.1-34.2 14.3-38.3 13-6.8-2.7-19.8-28-15-33.5 2.8-4.1 30.1-15.7 33.5-13.7z"/><path class="st7" d="M594.1 339c17.1 24.6 42.4 115.5 51.9 115.5 2.7-1.4-18.4-123-18.4-123s-17.1-3.4-33.5 7.5z"/><path class="st1" d="M603.2 334.3c-3 1.2-6 2.7-9.1 4.7 4 5.7 8.3 14.9 12.9 25.7 0 0 4.9-1.8 4.9-10.7-.1-8.9-8.7-19.7-8.7-19.7z"/><path class="st9" d="M633.8 368.3c1.1 6.3 2.2 13 3.3 19.8-4.8.7-19.3 4.2-19.3 4.2-2.2-5.9-6.7-17.4-6.7-17.4 3.5-5.2 22.7-6.6 22.7-6.6z"/><path class="st3" d="M393.2 522.8s23.9-1.4 27.4-14.7c2.3-8.7-4.9-14-4.9-14"/><path class="st2" d="m396 422.3-2.7 75.8c21.2-.7 27.3-8.9 26-13.7-1.4-4.8 12.4-32.8 12.4-32.8l-4.2-56.7-33.5 6.8 2 20.6z"/><path class="st1" d="m395.5 434.6-2.3 63.6c21.2-.7 27.3-8.9 26-13.7-1.4-4.8 12.4-32.8 12.4-32.8l-1.4-18.5-34.7 1.4z"/><circle class="st4" cx="406.6" cy="443.8" r="5.1"/><circle class="st4" cx="406.6" cy="458.5" r="5.1"/><circle class="st4" cx="406.6" cy="471.6" r="5.1"/><circle class="st4" cx="406.6" cy="486.5" r="5.1"/><circle class="st2" cx="416.1" cy="316.2" r="14"/><circle class="st2" cx="456.1" cy="358.1" r="14"/><circle class="st2" cx="387.1" cy="416.5" r="14"/><circle class="st2" cx="350.2" cy="374.1" r="14"/><circle class="st2" cx="402.8" cy="368.1" r="40.3"/><circle class="st3" cx="402.8" cy="367.7" r="32.1"/><circle class="st3" cx="402.8" cy="367" r="25.3"/><circle class="st3" cx="402.8" cy="366.3" r="16.4"/><path class="st0" d="M493.7 382.7c-31.4-14.3-71 3.4-74.5 32.1-1.4 13-1.4 20.5-1.4 20.5s3.4 6.1-.7 10.9c-.7 2 6.1 4.1.7 15-1.4 2.7 7.5 10.3 0 18.4-.7 2 1.4 4.8 1.4 4.8s7.6-.7 12.4 0c4.7.7 6.8 2.7 13.6 4.1 6.8 1.4 30.1-.7 41-16.4 2.7-6.1-4.4-11.6 12.8-22.5-8.7-13.7-1.9-21.2-1.9-21.2l15.7-23.9c0 .1 2-13.6-19.1-21.8z"/><path class="st2" d="M460.2 378.4c-7.7 1.3-15 4-21.2 7.8 10.3 14.9.1 63.4.8 66.8.7 3.4 23.9 3.4 24.6 0 .6-3.3 5.4-52.5-4.2-74.6z"/><path class="st5" d="M436.3 410.7s7.5-11.6 22.5-12.3 18.4 10.5 18.4 10.5-8.9 6.5-20.5 6.5-20.4-4.7-20.4-4.7z"/><path class="st1" d="M444.9 402.7c3.5-2.2 8.2-4.1 13.9-4.3 6.3-.3 10.6 1.5 13.4 3.7-.4 6.8-7.9 13.3-15.5 13.3-7.4.1-13.6-9.5-11.8-12.7z"/><path d="M451 399.9c2.3-.8 4.9-1.3 7.8-1.4 2.1-.1 4 0 5.6.3 1.2 2.4-1.6 7.8-7 7.8s-6.8-4.8-6.4-6.7z"/><path class="st9" d="M493.7 382.7s10.3 10.9 6.8 22.5c-8.2 21.2-34.8 29.4-35.5 36.9-.7 7.5 22.9 8.2 34 7.5 11.1-.7 32.3-5.5 37.7-11.6-.7-5.5-34.8-8.2-34.8-8.2s24.6-32.8 47.8-26c10.9 4.1 4.1 15.7 4.1 15.7 16.4-6.8 17.8-28 2-38.3-15.7-10.1-62.1 1.5-62.1 1.5z"/><path class="st0" d="M480 439.4c1.4-4.1 13.7-10.9 26-12.3 12.3-1.4 26-5.5 35.5-12.3-2.7 17.8-21 20.3-31.8 21.7-10.7 1.6-20.8 5-29.7 2.9zM609.1 566.5s-12.3 2-14.3-2.7c-2-4.8-1.4-17.1 4.1-21.2 6.8-7.5 7.5-19.8 10.3-23.2 2.7-3.4 5.5 2 5.5 2l9.6 14.3-15.2 30.8z"/><path class="st7" d="M612.5 474.3c-.7 7.5-1.4 114.1 4.1 113.4 5.5-.7 27.3-107.3 27.3-107.3s-11.6-11.6-31.4-6.1z"/><path class="st1" d="M637.4 511.1c3.8-17.3 6.5-30.7 6.5-30.7s-5.1-5.1-14.2-6.9c-2.8 4.9-8.3 29.5 7.7 37.6z"/><path class="st4" d="M635.9 517.9c-1.2 5.3-2.4 10.9-3.7 16.5l-20-1.3c-.1-6.5-.2-12.9-.2-19.1l23.9 3.9z"/><path class="st0" d="M610.6 540.4c-4.4 1.1-4 6.6-4 6.6s-2.8 2.1-1.3 6c-2.5 3-.8 6.3-.8 6.3s-2.5 6.7 1.7 8.5c4.2 1.8 20.1 1.5 23.1.3s1.7-6.5 1.7-6.5 4.8-3.1 2.6-8.2c3.4-3.2.8-6.3.8-6.3s2.6-4.4-.1-6.1c-2.9-1.6-19.3-1.7-23.7-.6z"/><path class="st3" d="m634.3 547.2-27.7-.1M633.6 553.4l-28.3-.4M630.9 561.6l-26.4-2.3"/></svg>