<svg version="1.1" id="Calque_1" xmlns="http://www.w3.org/2000/svg" x="0" y="0" viewBox="0 0 900 900" style="enable-background:new 0 0 900 900" xml:space="preserve"><style>.st0,.st1,.st2,.st3,.st4,.st5{fill:#fff;stroke:#000;stroke-width:6.768;stroke-linecap:round;stroke-linejoin:round;stroke-miterlimit:10}.st1,.st2,.st3,.st4,.st5{fill:#ffce00}.st2,.st3,.st4,.st5{fill:none}.st3,.st4,.st5{fill:red}.st4,.st5{fill:#00a2aa}.st5{fill:#515251}</style><path class="st0" d="M243.7 249.1c.4-11.8.4-21.3-.1-24-1.9-8.8-24.4-12.9-27.7-.3-1.1 4.1-1.4 12.2-1.5 22.2 14.9 7.9 24.8 4.8 29.3 2.1z"/><path class="st1" d="M291.6 397.6c-4.7-15.3-3.4-44.8-8.1-66.2-4.7-21.4-42.6-20.3-42.6-20.3s2.2-36.4 2.8-62c-4.6 2.7-14.3 5.8-29.4-2 0 21.3 1.4 51.4.1 71.7-3.4-9.2-27.1-11.2-30.5 4.1-3.4 15.3-5.4 48.2 10.8 81.9s83.2 50.9 83.2 50.9l33.8-25.3c.2 0-15.4-17.5-20.1-32.8z"/><path class="st2" d="M194.8 404.8c-16.2-33.7-14.3-66.6-10.8-81.9 3.5-15.3 27.1-13.3 30.5-4.1-1.4 64 8.9 70.9 20.3 81.5"/><path class="st0" d="M214.4 318.8c-3.4-9.2-27.1-11.2-30.5 4.1-1.8 8.1-3.2 21.1-1.8 36.5 15.7 3.7 26.8-15.7 32.1-27.7.1-4.1.1-8.3.2-12.9z"/><path class="st1" d="M315.3 424.8s-118.4 59.6-127.9 76.5.7 52.8 31.1 50.8 79.9-42 79.9-42l16.9-85.3zM250.3 768c-8.1 10.8-88.5 37.2-95.3 44s-5.4 37.9 23.7 24.4c7.4 7.6 21.9 8.8 26.5 0 3.7 7.6 16.8 7.4 19.5 0 4.7 6.1 16.5 5.4 19 0 5.8 7.6 8.8-16.2 12.2-23.7 27.7 6.1 51.7-7.2 57.1-15.3 5.4-8.1 27.5-2.4 27.5-2.4l-4.1-42.6s-78 4.7-86.1 15.6z"/><path class="st2" d="M209.8 815.3s-11.5 10.2-4.6 21M178.7 836.3c-7.7-13.5 12.9-21 12.9-21"/><path class="st1" d="M343 768c-8.1 10.8-109.6 43.3-116.4 50.1-6.8 6.8-5.4 37.9 23.7 24.4 7.4 7.6 21.9 8.8 26.5 0 3.7 7.6 16.8 7.4 19.5 0 4.7 6.1 16.5 5.4 19 0 5.8 7.6 14.9 7.4 18.3 0 27.7 6.1 73.1 8.1 78.5 0 5.4-8.1 0-41.3 0-41.3l-4.1-42.6c0-.1-56.9-1.5-65 9.4z"/><path class="st2" d="M333.5 842.4s3.4-13.1 9.5-15.6M315.3 842.4c-6.8-10.6 3.5-21 3.5-21M296.3 842.4c-6.1-9.1 6.1-21 6.1-21M281.4 821.4s-11.5 10.2-4.6 21M250.3 842.4c-7.7-13.5 12.9-21 12.9-21"/><path class="st3" d="M381.2 683.5s20.8 121.3 31.5 138.6c16.2 26.4 112.4 38.6 175.3 16.2 62.9-22.3 49-101.9 49-101.9l-42.2-120.7s-110.6 24.4-142.9 16.9c-32.4-7.4-70.7 50.9-70.7 50.9z"/><path class="st3" d="m414.1 686.1-123.9-9.5 82.6-90.7s19.6-16.2 60.5 5.4 54.4 109.4 54.4 109.4"/><path class="st1" d="M404.6 561.5c-5.8 3.1-11.2 10-16.4 19 10-1.2 25 .1 45.2 10.8 15 7.9 26.3 24.6 34.5 42.6 12 0 27.5-1.4 43.2-3.5-5.8-23.4-10.6-43.9-17.1-52.1-17.3-21.5-66.4-28.9-89.4-16.8z"/><path class="st4" d="M301.7 625.8c51.8-19 36.7-75.8 71.1-94.1s111.8-17.6 153.9 19.6c42.1 37.2 22.7 113 54.6 136.7 22.6 16.8 50.4 13.1 64.6 9.6-3-32.9-10.8-84.1-15.8-128.7-7.7-69-3.4-100.7-3.4-100.7L511.3 349l-179.1 42.6s-21.1 14.9-25.7 32.5c-1.8 6.8-7.6 40.5-19.2 80.7-11.1 38.2-25 82-34.7 114.2 8.8 9.4 23.8 16 49.1 6.8z"/><path class="st1" d="M581.2 688.1c-31.8-23.7-12.6-99.5-54.6-136.7-42.1-37.2-119.4-37.9-153.9-19.6-34.4 18.3-19.2 75.1-71.1 94.1-25.3 9.2-40.3 2.6-49.3-6.8-6.9 23-11.6 39.9-11.6 44.7 0 18.3 56.7 19 91.4 0s49.4-90 72.4-102.2c23-12.2 72.3-4.7 89.5 16.9 17.2 21.7 22.2 129.9 67.5 148.9s75.8 12.9 83.2 4.1c2.6-3.1 2.4-15.7.9-33.7-14 3.4-41.7 7.1-64.4-9.7z"/><circle class="st1" cx="340.3" cy="456.6" r="28.4"/><circle class="st1" cx="522" cy="481.7" r="28.4"/><circle class="st1" cx="424.9" cy="517.9" r="43.6"/><path class="st3" d="M447.4 466.8c-44.5 0-80.5-30.9-80.5-69s36.1-69 80.5-69 80.5 30.9 80.5 69-36 69-80.5 69z"/><ellipse class="st3" cx="447.4" cy="397.7" rx="80.5" ry="69"/><ellipse class="st4" cx="450.6" cy="383.9" rx="47.4" ry="44.3"/><path class="st0" d="m392.8 448.5-8.9 13.1c5.4 4.1 11.5 7.4 17.9 10.4l5.4-14.5c-5.2-2.5-10-5.5-14.4-9zM369.5 415.6l-15.3 8c3.5 9.2 8.7 17.6 15.4 25.2l11-12.5c-5-6.2-8.8-13.2-11.1-20.7z"/><path class="st0" d="m380.5 436.3-11 12.5c4.2 4.7 9.1 9.1 14.3 13l8.9-13.1c-4.5-3.8-8.7-7.9-12.2-12.4zM366.8 397.7c0-38.2 36.1-69 80.5-69s80.5 30.9 80.5 69c0 11.8-3.5 22.9-9.6 32.6l11.6 12.3c9.6-13 15.2-28.4 15.2-44.9 0-46.3-43.9-83.9-98-83.9s-98 37.6-98 83.9c0 9.1 1.6 17.7 4.7 25.9l15.3-8c-1.2-5.7-2.2-11.6-2.2-17.9z"/><path class="st0" d="m505.6 445.5 8.5 13.7c6.1-4.9 11.5-10.4 16-16.5l-11.6-12.3c-3.4 5.5-7.9 10.7-12.9 15.1zM425.3 464.2l-2.7 14.8c5.7 1.4 11.8 2.2 17.9 2.4l1.1-14.9c-5.7-.3-11.1-1.1-16.3-2.3zM473 463.3l3.5 14.6c6.2-1.6 12-3.8 17.6-6.4l-6.2-14.1c-4.8 2.5-9.8 4.4-14.9 5.9zM505.6 445.5c-5.3 4.6-11.2 8.7-17.7 11.9l6.2 14.1c7.3-3.4 14.1-7.6 20.2-12.5l-8.7-13.5zM407.2 457.6l-5.4 14.5c6.5 3 13.4 5.3 20.7 6.9l2.7-14.8c-6.3-1.6-12.3-3.8-18-6.6zM461.6 465.7l1.8 14.9c4.5-.7 8.8-1.5 13-2.6l-3.5-14.6c-3.6.9-7.4 1.8-11.3 2.3z"/><path class="st0" d="M447.4 466.8c-2 0-4.1-.1-6-.3l-1.1 14.9c2.3.1 4.7.3 7 .3 5.4 0 10.7-.4 16-1.1l-1.8-14.9c-4.5.7-9.3 1.1-14.1 1.1z"/><path class="st1" d="m467.5 349 21-75.8s29.1-39.9 14.2-64.3c-14.9-24.4-127.9-62.3-138.1-58.2-10.2 4.1-25 21-30.5 31.1-5.4 10.2 0 30.5 0 30.5s-10.2 5.1-17.6 10.2c-7.4 5-40.6 37.9-40.6 50.1s2.7 23.7 12.2 25c9.5 1.4 12.9-4.1 19.6-4.7s3.4 7.4 10.8 7.4c.7 11.5 4.1 46-3.4 56.9-7.4 10.8-17.6 10.8-12.2 29.8 5.4 19 29.8 14.8 53.5 12.9 25.7-2 123.2-50.8 123.2-50.8h-12.1z"/><path class="st1" d="M376.8 349c-15.6-33.8-68.4-4.7-75.1-17.6s17.6-19.6 16.9-31.1c-7.4 0-4.1-8.1-10.8-7.4s-10.2 6.1-19.6 4.7c-9.5-1.4-13.9-13-12.2-25 2.3-14.9 33.2-45.1 40.6-50.1 7.4-5 17.6-10.2 17.6-10.2s-5.4-20.3 0-30.5 20.3-27.1 30.5-31.1c10.2-4.1 123.2 33.8 138.1 58.2 14.9 24.4-12.9 64.3-12.9 64.3L467.5 349"/><path class="st2" d="M327.4 269.2s11.5 4.7 10.8 14.9c-.7 10.2-12.2 16.2-19.6 16.2-7.4 0-4.1-8.1-10.8-7.4s-10.2 6.1-19.6 4.7c-9.5-1.4-14.2-13-12.2-25 2.7-16.2 33.2-45.1 40.6-50.1 7.4-5 17.6-10.2 17.6-10.2s-5.4-20.3 0-30.5 20.3-27.1 30.5-31.1c10.2-4.1 123.2 33.8 138.1 58.2 14.9 24.4-12.9 64.3-12.9 64.3L467.5 349"/><path class="st0" d="M337.6 332.2c-2.6 10.4-3.8 25.9 8.8 32.4 19.6 10.2 30.5-15.6 30.5-15.6-7.6-16.4-23.7-18-39.3-16.8z"/><path class="st2" d="M354.2 208.2c20.8 19.6 65.9 25 65.9 25"/><path class="st0" d="M366.4 216.9c-8.5 1.5-16.5 4.2-18.7 8.9-5.4 11.5-1.6 27.1 14.2 34.5s42.6 5.3 51.4-2.7c8.8-8 6.8-24.4 6.8-24.4s-31.1-3.7-53.7-16.3z"/><circle class="st2" cx="378.9" cy="236.7" r="9.5"/><path class="st5" d="m430.6 115.5-25.9 44.1c5.7 1.9 11.8 3.9 17.9 6.1l22.6-44.7c-4.9-1.8-9.7-3.7-14.6-5.5zM416.6 110.6l-27.5 44.3c4.7 1.4 10 2.8 15.6 4.7l25.9-44.1c-4.7-1.7-9.5-3.4-14-4.9zM403.9 106.6l-32.4 44.1c4.3.7 10.4 2 17.6 4.1l27.5-44.3c-4.3-1.3-8.6-2.7-12.7-3.9zM375.9 100.4 326 151.9l19 8.8 45.9-57.5c-5.5-1.4-10.5-2.3-15-2.8z"/><path class="st5" d="m390.8 103.2-45.9 57.5 4.2 1.9c5.3-5.4 11-10 15.7-11.9 1.1-.4 3.5-.4 6.9.1l32.4-44.1c-4.8-1.5-9.1-2.6-13.3-3.5zM361.3 101.3c-23 10.8-46.7 45.3-46.7 45.3l11.4 5.3 49.9-51.6c-6.4-.6-11.5-.5-14.6 1zM445.3 121.1l-22.6 44.7c4.5 1.6 8.9 3.2 13.4 5l21.9-44.7c-4.3-1.7-8.5-3.4-12.7-5zM473.2 132.6l-22.9 44c6.9 3 13.5 6 19.6 9.1l23.4-44c-6.3-3-13-6-20.1-9.1z"/><path class="st5" d="m458.1 126.2-21.9 44.7c4.9 1.9 9.6 3.8 14.3 5.8l22.9-44c-5.2-2.3-10.2-4.5-15.3-6.5zM745.7 388.3c-6.1-4.7-187.2-40.9-192.9-75.8s6.6-59.7 9.5-85.3c1.5-13.5-.5-25.6-5.8-36.5l-55.9 180.4c7.7 15.7 19 35.5 29.5 44.3 19 15.6 130.4 100.2 145.2 111.7 14.9 11.5 32.5-8.8 25.7-21s-115-92.8-113.7-94.8 104.9 63.1 117.8 63.1 23.7-13 19-23.1c-4.7-10.2-134.7-74.4-134.7-74.4s134.7 36.1 146.2 39.3c11.5 2.9 16.2-23.2 10.1-27.9zM534.5 164.2c-.9-.8-2.2-1.6-3.7-2.6L505.7 216c6.8 24.4-17.2 57.3-17.2 57.3l-7 25.6 6.1 33.3 58.6-156.9c-3.5-3.9-7.3-7.5-11.7-11.1z"/><path class="st5" d="m546.1 175.2-58.6 156.9 3.1 16.9s4.1 9.7 10 22.1l55.9-180.4c-2.7-5.5-6.1-10.6-10.4-15.5zM493.4 141.6l-23.4 44c7.9 3.9 14.8 7.9 20.4 11.8l23.6-45.6c-6.1-3.1-13-6.5-20.6-10.2zM514 151.9l-23.6 45.6c5.8 4.1 10.2 7.9 12.3 11.5 1.4 2.2 2.3 4.6 3 7l25.2-54.3c-4.1-2.7-9.9-6.1-16.9-9.8z"/><path class="st2" d="M531.4 354.4c3.8 33.2 33.2 44.7 55.9 56.9M589.4 376.8c-29.9-6.1-41.3-42.6-41.3-42.6"/><path class="st4" d="M673.3 135.1s66.9 131.6 71.3 141.6c4.5 10-15.3 26.7-23.3 14.1-8.1-12.6-90-140.4-90-140.4l42-15.3z"/><path class="st3" d="M595.5 114.6s38.8 12 50.2 29.1 56 159.2 55.4 166.8c-.7 7.6-19.6 17.5-29.8 5.7s-34.7-97.7-51.4-146.6l-41.3-19.2 16.9-35.8z"/><path class="st1" d="M587.3 150.8c0-1.5 29.6 4.5 37.2 18.8C632 183.9 655 326 655 332.1c0 6.1-19 13.3-26.4.7-7.4-12.6-29.8-152.3-29.8-152.3l-20.3-9.7 8.8-20zM598.8 87.5c2-1.1 37.5 13.3 50.9 25.9 1.9-6.6 3.2-13.7 14.8-18.4s21.1 1.9 26.5 6.8c5.3 4.9 5.3 22.2-.1 32.2-5.3 10-19.6 16.5-35.9 16.5-16.2 0-76.5-31.4-76.5-31.4l20.3-31.6z"/><path class="st2" d="M669.9 118.9c-7.4 11.6-20.2 1.8-20.2-5.5"/><path class="st4" d="M381.2 683.5h0l-91-6.9-17.5 39.9L389.8 730c-5-25.5-8.6-46.5-8.6-46.5z"/><path class="st1" d="M272.8 716.5 250.3 768l148.9 7.9c-3.4-14.8-6.6-31-9.5-45.8l-116.9-13.6z"/><path class="st2" d="m349.5 343.2-3.1 21.4M361.3 349l-2.9 17.5M517.6 362.6s7.3 26.3 33.2 46c25.9 19.8 145.7 115.2 145.7 115.2M541.3 343.2s8.5 31.5 34.5 47.1c26 15.6 145.5 76.1 145.5 76.1M552.1 328s18.3 21.7 43.3 33.2c25 11.5 151.9 43.6 151.9 43.6"/><circle class="st4" cx="511.3" cy="318.8" r="55.2"/><circle class="st3" cx="511.3" cy="318.8" r="15.3"/><path class="st1" d="M530.9 154.9s42.9 41.2 47.6 34.4c4.7-6.8 37.9-111.7 37.9-115.7s-64.3 2.7-64.3 2.7l-21.2 78.6z"/><path class="st4" d="M492 135.1s35.1 37.5 43.2 34.7c8.1-2.8 19-19 12.9-28.2l-51.7-20.8-4.4 14.3z"/><path class="st3" d="m556.5 103.2-38.8-3.2-11.1-12.5-10.2 33.3 51.7 20.8c11.4-3.1 18.8-26.5 8.4-38.4z"/><path class="st1" d="M556.5 103.2c10-13.4 10.2-33.7 3-37.8s-48.2 6.8-48.2 6.8l-4.7 15.3 11.1 12.5 38.8 3.2z"/><path class="st3" d="M471.9 67.5c2.4-.7 29.4-26.4 48.7.7s-7 76.8-29.1 78.2c-21.9 1.5-31.4-25.3-31.4-25.3l11.8-53.6z"/><circle class="st4" cx="450.4" cy="92.2" r="42.2"/></svg>