<svg version="1.1" id="Calque_1" xmlns="http://www.w3.org/2000/svg" x="0" y="0" viewBox="0 0 900 900" style="enable-background:new 0 0 900 900" xml:space="preserve"><style>.st0,.st1,.st2,.st3,.st4,.st5{fill:#face15;stroke:#000;stroke-width:4.6843;stroke-linecap:round;stroke-linejoin:round}.st1,.st2,.st3,.st4,.st5{fill:red}.st2,.st3,.st4,.st5{fill:#fbce14}.st3,.st4,.st5{fill:#00f}.st4,.st5{fill:none}.st5{fill:#f87311}.st6{fill:#fff}.st7,.st8,.st9{fill:none;stroke:#000;stroke-width:7.0265;stroke-linecap:round;stroke-linejoin:round}.st8,.st9{fill:#fff;stroke-width:4.6843}.st9{fill:#fdce12}.st10{fill:#f37316}.st10,.st11,.st12,.st13,.st14{stroke:#000;stroke-width:4.6843;stroke-linecap:round;stroke-linejoin:round}.st12,.st13,.st14{fill:none;stroke-width:3.5132}.st13,.st14{fill:#ffce00;stroke-width:4.6843}.st14{fill:#ff7300}.st15{fill:red}</style><path class="st0" d="m471.8 821.9 45.7 2.1 6.2-33.4 24.6 2.3 3.2-25.4 32.3 2.4 5.1-26.2 30 1.6.5 27.1 24.1 1.8.4 28L674 805l1.6 26.3 37.8 1.8-5.5-87-215.5-9z"/><path class="st1" d="m476.3 811.1 32.5.6 8.2-31.3 21.9 2.6 4.7-25.2 32.2 2.9 5.3-22.8-91.4-6.7zM629.9 745.3l-1.6 19.9 25.4 2.3.3 28.1 27.8 3.2 1.8 24.6 21-.6-5.8-79.6z"/><path class="st2" d="m701.7 655.6 23.1-93-22.3-8.6 21.8-65.5-27.3-12.9 24.3-91.4-91.4-28.9-41 297.1 54.3 8.6z"/><path class="st1" d="M602.2 652.4 640 371l62.9 20.6-22.3 91 28.1 13.7-21.9 69.1 22.3 9.4-20.6 79.6-47.3 8.5z"/><circle class="st3" cx="664.5" cy="578.9" r="15"/><circle class="st4" cx="663.9" cy="579.8" r="5.9"/><circle class="st5" cx="658.6" cy="509.8" r="15"/><circle class="st4" cx="658" cy="510.7" r="5.9"/><circle class="st3" cx="666.8" cy="431.3" r="15"/><circle class="st4" cx="666.2" cy="432.2" r="5.9"/><path class="st2" d="M429.2 670.8c-9 68.3-43.7 174.5-43.7 174.5s59.7 15.2 81.6-9c21.9-24.2 29.6-110.1 29.6-110.1l5.5-90.5-55.4-44.5-27.4 33.5c.1-.1 18.8-22.3 9.8 46.1z"/><path class="st6" d="M390 831.2c-2.7 8.8-4.5 14.1-4.5 14.1s59.7 15.2 81.6-9 29.6-110.1 29.6-110.1l5.5-90.5s-12.3-53.8-10.9-8.7c1.5 45-11 198-42.6 207.7-28.4 8.6-58.7-3.5-58.7-3.5z"/><path class="st4" d="M429.2 670.8c-9 68.3-43.7 174.5-43.7 174.5M385.5 845.3s59.7 15.2 81.6-9 29.6-110.1 29.6-110.1M392.9 846.5l.8-7.5M403.1 840.9l.3 6.7M412.4 842.1l.9 6.7M422.6 842.9l.4 6.2M432.4 842.1l1.5 6.7M442.5 839.8l2.7 7M452.3 837.4l2.7 6.2M458.5 833.1l5.5 5.2M466 825.4l5.4 2.7M470.2 815.2l6.7 2M473.3 807.3l7.1 1.2M476 796.4l8.2 2.4M479.6 787.1l6.6 1.5M481.5 776.9h6.2M482.4 767.2l8.2 1.1M484.7 758.2l7.7.8M487.4 750l6.7 1.1"/><circle class="st7" cx="428.8" cy="753.5" r="9"/><circle class="st7" cx="460.5" cy="755.8" r="9"/><circle class="st7" cx="453.4" cy="787.4" r="9"/><circle class="st7" cx="421.8" cy="786.3" r="9"/><circle class="st7" cx="413.6" cy="819" r="9"/><circle class="st7" cx="446.4" cy="815.5" r="9"/><circle class="st7" cx="471.8" cy="655.1" r="9.7"/><circle class="st7" cx="481.2" cy="689.1" r="9.7"/><path class="st5" d="m371.1 572.8-69.1 73-41.3 19.9s-58.9 4.7-63.6 7c-4.7 2.3-3.9 10.2-7.4 11.4s-36.7.8-36.7-2c0-2.7 10.5-30.4 46.5-43.3s64.1-9.7 64.1-9.7l73.4-70.6 34.1 14.3z"/><path class="st8" d="M197 672.7c-4.7 2.3-3.9 10.2-7.4 11.4s-36.7.8-36.7-2c0-1.1 1.5-5.6 5.3-11.5 12.7 2.1 38.8 2.1 38.8 2.1z"/><path class="st4" d="m159.5 683.2 4.7-11.7M167.7 683.7l3.9-11.4M177.9 683.7l3.8-10.6"/><path class="st2" d="m259.9 667.3 7-35.2 39.8 9.4-3.2 31.6z"/><path class="st2" d="M197 672.7s2-9.4 6.7-10.2c4.7-.8 100.7 6.2 101.9 8.2s.4 10.9-2 11.7-107.5-9.4-107.5-9.4"/><path class="st8" d="M271.1 659.8c-1.5-2-.4-9.4.8-10.2 1.2-.8 21.9.8 22.6 2.7.8 2 1.5 8.5-.4 9.4-1.9.9-21.4.1-23-1.9z"/><path class="st1" d="m269.9 622.8-60-7.9-.9 22.6 57.9-5.4z"/><path class="st9" d="m220.4 636.5-11.4 1 .9-22.6 10.8 1.4z"/><circle class="st8" cx="201.1" cy="625.7" r="13.5"/><circle class="st4" cx="200.2" cy="625.7" r="4.9"/><path class="st2" d="m229.8 635.5 37-3.2 3.2-9.4-39.8-5.4z"/><path class="st1" d="M262.2 635.2c-1.5-3.2-.4-12.9 5-14.9 5.5-2 44.1 9 46.5 12.5s-3.2 10.5-7.4 11.7c-4.3 1.2-42.6-6.1-44.1-9.3z"/><circle class="st9" cx="367.4" cy="587.8" r="11.9"/><circle class="st9" cx="392" cy="598.3" r="11.9"/><path class="st8" d="m326.1 564.2 57.4 18.8 2-58.6-40.2 12.1z"/><path class="st4" d="m330.2 559.1 6.7-5.9M341 569l6.2-7.4M350.6 571.4l5.1-7.4M358.2 574.8l5.1-7.1M367.1 577.5l4.4-6.7"/><path class="st8" d="M377.3 534.9s-4.3 52.3 2.7 56.2 48-3.9 48-3.9l-12-75.7-38.7 23.4z"/><path class="st4" d="M387.5 533.3s-.8 22.3 1.5 24.9 28.5.4 28.5.4"/><path class="st3" d="M396.1 529.1s-1.5 17.6 0 19.6 20.3 0 20.3 0l-3.2-30.8-17.1 11.2z"/><path class="st4" d="M383.5 591.9 382 572M389.8 591.9l-1.9-20.3M395.7 591.5l-1.2-19.5M403.1 590.3l-1.8-18.7M410.7 589.8l-2.9-17.4"/><path class="st5" d="m400.4 587.6 21.8 99.6 36.7.3-15.7-83.1-29.9-28.5z"/><path class="st10" d="M310.6 730c-.4-2 17.2-35.5 59.4-40.6 42.2-5 74.6-1.5 74.6-1.5v36.3s-85.8-6.7-89-3.9c-3.2 2.7-3.9 10.2-5.9 10.9-2 .8-38.8.8-39.1-1.2z"/><path class="st8" d="M317.7 718.2c-5 6.2-7.3 11.1-7.1 11.8.4 2 37.1 2 39 1.2 2-.8 2.7-8.2 5.9-10.9-.1 0-35.6-1.5-37.8-2.1z"/><path class="st4" d="m318.8 731.2 5.5-12M328.9 730.9l3.6-11.4M339 730.9l3.2-10.6"/><path class="st2" d="m419.1 720.3 1.5-30.1 43 2.8 6.2 29.7-33.6.8z"/><path class="st0" d="M352.7 724.7s1.5-5.9 6.2-7.4 108.1 2.7 110.9 3.5 4.3 9.4 3.2 10.9-120.3-7-120.3-7z"/><path class="st1" d="M437.5 683.1 379 667.4l-3.9 22.4 58.1 2.2z"/><path class="st2" d="m386.4 690.1-11.3-.3 3.9-22.4 10.6 2.8z"/><circle class="st8" cx="368.8" cy="676.9" r="13.5"/><circle class="st4" cx="367.9" cy="676.8" r="4.9"/><path class="st2" d="m395.9 690.5 37.3 1.5 4.3-8.9-38.8-10.4z"/><path class="st1" d="M418 679c-3.2 2-3.2 11.7-.4 13.2 2.7 1.5 43.3 4.7 46 3.2 2.7-1.5.8-14.4-2-15.6-2.8-1.2-40.6-2.8-43.6-.8z"/><path class="st8" d="M432 703.6c-2 2-2.3 7 0 8.5s23.8 2.7 25.8 1.2c2-1.5-.4-8.5-1.5-9.7s-22.4-2-24.3 0z"/><path class="st2" d="m492.9 648.1-5.5 96 227.2 5.2.3-97.7z"/><path class="st1" d="m509.6 666.8-2.6 60.9 192.4 5.2 2.3-61.4z"/><circle class="st3" cx="539.2" cy="699.1" r="15"/><circle class="st4" cx="538.6" cy="700.1" r="5.9"/><circle class="st5" cx="607.1" cy="701.1" r="15"/><circle class="st4" cx="606.4" cy="702.1" r="5.9"/><circle class="st3" cx="667.9" cy="702.9" r="15"/><circle class="st4" cx="667.3" cy="703.8" r="5.9"/><path class="st5" d="M443.2 611.8s25.8 47.7 87.8 44.9c62.1-2.7 87-55 84.3-77.6s-19.1-96-28.9-108.1c-9.7-12.1-45.7-43.7-45.7-43.7L474 367.1l-50.4 12.5-23.1 38.6-9.7 43 23.4 30.8 17.2 112.4 11.8 7.4z"/><path class="st3" d="M631.1 583.7c13.2 27.8 51.2 32.8 57.7 32.8 6.6 0 38.6-3.9 44.1-1.2s9.4 14.1 7.4 26.9-9 19.6-16 18.4-36-17.6-41-17.6-62.1-10.9-72.6-39.5c-10.5-28.5-2-29.6-2-29.6s9-17.9 22.4 9.8z"/><path class="st1" d="M646.8 633.1c-15.5-6.3-30.9-15.9-36-29.5-10.5-28.5-2-29.6-2-29.6s9-17.9 22.3 9.7c5.7 11.8 15.9 19.6 26.2 24.5-.9-.6-9.1 24.6-10.5 24.9z"/><path class="st2" d="M673.6 614.1c7.1 1.9 13 2.3 15.2 2.3l-5.5 26.6c-1.6 0-9-1.2-18.5-3.9l8.8-25z"/><path class="st8" d="M688.8 616.5c6.7 0 38.6-3.9 44.1-1.2s9.4 14.1 7.4 26.9-9 19.6-16 18.4-36-17.6-41-17.6"/><path class="st11" d="M691.3 645.8c-3.7-1.6-6.7-2.8-8-2.8l5.5-26.6c1.8 0 5.2-.2 9.4-.6l-6.9 30zM707.2 615.7c3.2-.2 4.2-.8 7.4-1.1L704.4 652c-2.5-1.2-3.9-1.6-6.2-2.7l9-33.6zM724.3 614.3c4 0 7.1.2 8.5.9 5.5 2.7 9.4 14.1 7.4 26.9s-9 19.6-16 18.4c-1.8-.4-4.9-1.5-8.7-3.3 7.6-21.2 8.8-42.9 8.8-42.9z"/><path class="st4" d="m704.4 643.9 17.6 5.3M709.1 621.1l17.5 2M708.4 628.2l16.7 2.3M705.6 636.8l18 3.9M655.2 636.4l9.4-25"/><path class="st1" d="M458.1 571.6s13.7 24.2 37.8 26.6c24.2 2.3 72.6-21.4 93.7-21.1 21.1.4 41.3 6.7 41.3 6.7s14.1-88.2-36.3-120.3c-57 35.1-105.4 65.6-105.4 65.6l-28.1 3.5-3 39z"/><path class="st2" d="M489.4 529.1s48.4-30.4 105.4-65.6c30.4 19.3 37.4 59.3 38.1 87.8 0 0-19.7-8.5-41.2-6.2-21.5 2.3-57.7 18.4-71.4 18.4s-30.9-34.4-30.9-34.4z"/><path class="st8" d="M596.7 521.6c23.1-1.5 33.1.9 33.1.9-4.2-22.5-14.1-45.7-35.1-59.1-35.2 21.8-67.2 41.7-86.5 53.8 0 0 2.6 21.2 19.3 21.7 16.9.3 38.4-15.3 69.2-17.3z"/><circle class="st3" cx="551.8" cy="512.7" r="10.5"/><circle class="st12" cx="551.8" cy="512.2" r="2.7"/><circle class="st5" cx="592.2" cy="498.8" r="11.9"/><circle class="st12" cx="592.6" cy="498.4" r="2.9"/><path class="st4" d="m604.2 521.6-1.7 22.2M611.9 521.2l-1.5 23.5M569.7 527.1l.8 22.2M577.2 524.8V547M540.1 536.8v21.6M532.7 539.2l-.5 21M516.7 535.3l-6.7 10.2M512.3 529.8l-7 10.2"/><circle class="st4" cx="521.9" cy="549.9" r="4.9"/><circle class="st4" cx="554.7" cy="544.1" r="4.9"/><circle class="st4" cx="591" cy="534.7" r="4.9"/><circle class="st4" cx="621.5" cy="535.9" r="4.9"/><path class="st8" d="M458.1 571.6s13.7 24.2 37.8 26.6c24.2 2.3 72.6-21.4 93.7-21.1 21.1.4 41.3 6.7 41.3 6.7s.8-5.4 1.4-14.1c-1.1-.4-19.3-6.2-44.4-4.2-24.9 2-71.8 22.3-90.2 20.7-18.4-1.5-34-26.6-34-26.6l-5.6 12z"/><path class="st4" d="m467.5 583.3 6.2-11.3M474.2 589.5l5.8-12M494.8 597.7l-.4-12M503.4 597.7l-.8-10.9M516.7 595.4l-2.7-13.6M524.1 594.2l-2.7-14.4M536.6 590.7l-2.4-11.3M544.4 588.8l-2.3-11.3M560 583.3l-2.3-10.2M568.2 580.1l-1.5-8.9M587.8 576.6l-.9-10.5M594 576.6l.3-10.5M607.2 578.3l1.2-11.4M614.2 578.6l2-11.3"/><path class="st1" d="m471.4 540.8 44.1 50.7 23.4-22.2-58.9-59.4-12.9 19.2z"/><path class="st8" d="m397.6 483.4-164.7 58.1 25 64.1 154.9-83.2 5.2-31.3z"/><path class="st11" d="m291.5 520.9-10.3 3.6 20.1 57.8 8.9-4.8zM260.8 531.7l-10.9 3.8 23.1 62 10.5-5.8zM257.9 605.6 233 541.5s-26.6 7-22.3 19.6c4.3 12.5 29.3 0 29.3 0s-26.6 9-21.4 22.3c5 13.2 30.8 1.2 30.8 1.2s-26.1 10.9-20.3 22.3c5.7 11.2 28.8-1.3 28.8-1.3z"/><path class="st4" d="m236.8 548.2 64.4-24M240.3 562.8l67.1-27.2M238.8 555.2l67.1-24.6M243.8 569.6l65.9-26.9M246.5 575.5l64.9-26.5M249.3 584.5l64-29.6M251.7 590.7l63.5-30M255.2 597.7l61.6-31.6"/><path class="st5" d="m397.6 483.4-77.3 27.3 20.7 50.2 71.8-38.5 5.2-31.3z"/><path class="st9" d="m319.2 572.7 11.2-6-18-53.2-10.6 3.8z"/><path class="st1" d="m367 547 45.8-24.6 5.2-31.3-20.4-7.7-47.3 16.8z"/><path class="st3" d="m330.4 566.7 14.1-7.6-18.2-50.5-13.9 4.9z"/><path class="st8" d="m337.5 518.9 8.2 21.9 67.1-27.4V499z"/><path class="st4" d="m318.8 511.1 17.9 50.8"/><path class="st5" d="m396.1 478.3-134.3 23.1s-41.8 7.8-53 1.2c-5.4-3.2-8.4-19.4-14.1-33.6-6.2-15.7-14.4-29-10.9-30.1 25.4-4.7 23.8 48 36.7 42.2 12.1-6.7-30.1-78.1-16-83.1 9.6-3.5 18.4 44.1 21.4 43.3 3.2-.8-9.4-47.2-.8-46.8 8.5.4 9 44.9 12.1 44.1 3.2-.8-1.2-43 7-43.3 8.2-.4 2.7 44.9 5.5 45.3 2.7.4 8.2-38.3 14.9-37.8 10.5 2-14.4 71.8-10.9 77.6s121.4-46.5 139.4-48.4c17.8-2.1 3 46.3 3 46.3z"/><path class="st10" d="M394.1 338.6S279 313.7 273.5 311.3c-5.5-2.3-13.2-7.4-12.9-11.7s10.9-19.1-3.5-37.8c-.8-1.2 9-47.2 1.5-48.8-7.4-1.5-7.4 41.8-11.7 40.6s-3.9-54.7-12.1-54.7 4.7 53.5 1.5 53.9c-3.2.4-16-48.8-23.8-46-7.8 2.7 16.7 50 15.2 51.2s-26.9-39-33.1-32.8c-6.2 6.2 27.8 44.1 30.1 52.3 2.3 8.2 5.9 16.4.4 19.6-13.7 5.9-21.1-36.7-29.6-35.1-8.5 1.5 10.2 50 17.6 55 7.4 5 57 20.3 57 20.3s121.4 48.4 134.7 60.5c13.2 12.1 10.2-57 10.2-57l-20.9-2.2z"/><path class="st8" d="M332.8 326.8s49.2 10.5 57.7 10.2c15.2 0 14.4-24.2-1.2-24.6-15.5-.4-56.5 14.4-56.5 14.4z"/><circle class="st13" cx="304.5" cy="317.2" r="10.8"/><circle class="st13" cx="289.7" cy="352.8" r="10.3"/><path class="st3" d="M269.9 337c-1.2 1.2-5.7-1.8-13.6-4.2 0 0-5.6 17.9 10.4 21.4 14.1 2.7 21.4-11.4 24.9-23.8 3.5-12.5 9.4-30.8-2.7-35.5S265.8 307.4 269 309c10.3 3.4 2.1 26.9.9 28z"/><path class="st4" d="M262.5 335.4s-1.2 13.2 6.2 12.1c14.1-2 19.6-39.5 14.1-42.5-5.5-3-11.4 4.7-11.4 4.7"/><path class="st8" d="M256.5 418.5c2.3-8.4 5.2-16.2 8.1-15.9 3.5.7 3 8.7 1.2 19.4l-9.3-3.5zM238.9 415c.4-10.1 1.5-19.7 5.4-19.9 4-.2 4.8 10.4 4.8 21.4l-10.2-1.5zM223.1 414.8c-1.4-10.7-2-20.5 2-20.4 3.9.1 6.1 9.3 7.6 19.1l-9.6 1.3zM205.2 420.9c-3.9-11.9-5.6-21.3-.8-23.1 4.6-1.6 8.9 8.1 12.5 18.7l-11.7 4.4zM189 456.1c-4.5-9.5-7.8-16.5-5.4-17.2 8.7-1.6 14.2 3.5 18.2 10.7l-12.8 6.5zM261 230.8c.8-9.4.6-17.3-2.3-17.9-2.9-.6-4.7 5.6-6 13.4l8.3 4.5zM241.8 220.6c-1.4-11.6-3.4-21.8-6.9-21.8-3.7 0-3 11-1.6 23.1l8.5-1.3zM224.4 223.9c-4.1-10-8.4-18.5-11.7-17.3-3.3 1.2-.8 10.1 2.9 20.3l8.8-3zM200.8 242.1c-5.2-8-8.5-14.8-6.2-17.1 2.7-2.7 8.9 3.2 15.2 10.7l-9 6.4zM196.5 282.8c-3.4-10.9-4.8-20.4-1.1-21.1 3.9-.7 7.5 7.5 11.6 16.3.2-1.2-10.5 4.8-10.5 4.8z"/><circle class="st9" cx="296.3" cy="502.3" r="10"/><circle class="st9" cx="291.6" cy="462.5" r="10"/><path class="st3" d="M265.2 478.7c13.2-3.5 9 19.6 0 22.3-6.2 1.5 0 18.7 10.5 16.7 14.9-2.7 16-19.1 15.2-32.8-.8-13.7-1.5-25.8-13.7-28.1-14.7-4.3-19.7 25-12 21.9z"/><path class="st4" d="M265.2 478.7c.8-14.4 16.4-16.7 15.2 9-1.2 25.8-15.6 22.6-15.6 22.6"/><path class="st1" d="M410.5 498.6s-17.6-9.4-23.4-28.9c-4.3-14.4-.4-58.2 13.2-73 13.7-14.9 18.4 8.5 18.4 8.5s-12.9 34.8-9.7 50 14.4 23.1 14.4 23.1l-12.9 20.3z"/><path class="st8" d="M450.3 458.4c-10.2-2.3-30.8 2-40.2 30.8-9.4 28.9 11.7 119.8 21.1 142.1 15.6-10.9 51.2-103.9 51.2-132.7s-21.9-37.9-32.1-40.2z"/><path class="st4" d="M420.6 498.6c-5.5 16 .4 65.2 12.1 95.2 14.1-13.2 41.8-69.4 39.8-89s-10.9-27.8-22.3-30.4c-11.2-2.7-24.1 8.2-29.6 24.2z"/><path class="st5" d="M429.7 499.8c-2.3 9.7-.8 54.7 6.2 73 6.7-5 26.9-59.7 26.6-70.6-.4-10.9-7.8-17.6-14.4-19.1-6.7-1.7-16.1 6.9-18.4 16.7z"/><path class="st1" d="M501.5 508.4c-32.8 18.4-72.7-.5-72.7-.5.1-3.6.5-6.4.8-8.2 1.2-4.9 4.1-9.5 7.6-12.6 3.5-3.2 26.8 10 50.6-2.6 23.8-12.5 15.2-52.7 15.2-52.7l2-32 28.9 16.7c0 .2.3 73.5-32.4 91.9zM554.5 325.3l14.5 33.5-60.2 32.1-67.9-10.5-38.6-30.1 3.1-32 14.9-20.7 46-9.4 32.8 14.1z"/><path class="st3" d="M433.5 311.6s7 26.9 44.1 31.6 47.2-13.7 47.2-13.7-28.1-37.8-29.6-38.6c-1.6-.7-61.7 20.7-61.7 20.7z"/><path class="st4" d="M445.2 310.4s5.9 18.7 36.3 21.1c30.4 2.3 32-5.9 32-5.9"/><path class="st8" d="M392.5 332.3c-12.5 9.7-43.7 58.6-43.7 58.6s58.6-21.9 67.6-38.6c8.9-16.9-7.5-32.5-23.9-20z"/><path class="st8" d="M440.9 380.4c-3.5 13.2-45.3 54.7-45.3 54.7s5.9-60.5 11.4-70.3c15.2-27.4 44.1-7.2 33.9 15.6z"/><path class="st8" d="M474.5 386.2c-1.2 14.1-31.3 70.3-31.3 70.3s-5.9-63.2-1.5-76.1c7.9-25.5 36.3-19.2 32.8 5.8zM546.3 382.7c5 16-2 77.6-2 77.6s-35.5-50-34-65.2c.9-34.6 31-28.4 36-12.4z"/><path class="st8" d="M513.5 393.9c-3.2 44.1-30.8 78.1-30.8 78.1s-14.4-70.6-8.2-85.8c7.9-23.9 39.8-21.5 39 7.7zM542.1 380.7c3.9 21.1 62.1 48.4 62.1 48.4s-19.9-62.4-35.1-70.3c-15.3-7.7-31 .8-27 21.9z"/><circle class="st4" cx="393.1" cy="348.2" r="4.9"/><circle class="st4" cx="384.9" cy="322.7" r="4.9"/><circle class="st4" cx="421.2" cy="372.7" r="4.9"/><circle class="st4" cx="455.2" cy="389.1" r="4.9"/><circle class="st4" cx="485.6" cy="396.2" r="4.9"/><circle class="st4" cx="524.9" cy="395.4" r="4.9"/><circle class="st4" cx="565.3" cy="385.6" r="4.9"/><path class="st4" d="m364.4 368.2 11.4 10.2M369.1 360.8l15.6 13.2M400.7 390.4l23.1 13.4M399.6 399.5l19.1 10.5M440.2 419.4l20.6.8M442.1 428.4l13.7.3M475.3 427.6h30.8M477.4 436.3H502M523.3 427.6l23.5-.4M528 434.9l18.3-.7M573.7 412.3l18.3-16.4M581.4 416.2l13.4-12.4"/><path class="st8" d="M454.1 146.6 543.3 50s31.6 36.4 4.9 60.7c-12.2 11.4-31.9 16.9-40.3 25.5-8.4 8.8-22.1 27.5-22.1 27.5l-31.7-17.1z"/><path class="st13" d="m454.1 146.6 76.6-83s13.7 12.2 3.5 23.8c-8 9.5-46.1 37.2-52.7 45.1-6.6 7.8-17.9 19.4-17.9 19.4l-9.5-5.3z"/><path class="st11" d="M473.8 157.3s13.2-18.6 24.8-27.1c11.6-8.5 39.6-24.4 47-38.1 9.8-18.6-8.9-34.8-8.9-34.8l6.8-7.3s31.6 36.4 4.9 60.7c-12.2 11.4-31.9 16.9-40.3 25.5-8.4 8.8-22.1 27.5-22.1 27.5l-12.2-6.4z"/><circle class="st3" cx="502.5" cy="112.4" r="12.5"/><circle class="st14" cx="484.7" cy="127.2" r="9"/><circle class="st4" cx="484.7" cy="127.2" r="3.2"/><circle class="st4" cx="502" cy="111.6" r="5"/><path class="st8" d="M494.1 155 589 64s29.3 38.3 1.2 60.9c-12.9 10.5-32.8 14.9-41.8 23.1-9 8.2-23.8 26.1-23.8 26.1L494.1 155z"/><path class="st13" d="m494.1 155 81.5-78.1s13 13 2 23.9c-8.5 9-48.4 34.3-55.4 41.8-7 7.4-19.1 18.4-19.1 18.4l-9-6z"/><path class="st11" d="M512.9 167s14.3-17.7 26.3-25.5c12.1-7.8 41-21.9 49.2-35.1 10.9-17.9-6.8-35.2-6.8-35.2l7.1-6.9s29.3 38.3 1.2 60.9c-12.9 10.5-32.8 14.9-41.8 23.1-9 8.2-23.8 26.1-23.8 26.1l-11.4-7.4z"/><circle class="st14" cx="544.4" cy="123.9" r="12.5"/><circle class="st3" cx="525.7" cy="137.5" r="9"/><circle class="st4" cx="525.7" cy="137.5" r="3.2"/><circle class="st4" cx="544" cy="123.1" r="5"/><path class="st1" d="M486.6 151.2c10.2 3.5 65.6 31.3 65.6 31.3S489.3 211 488.1 211s-17.6-15.6-17.6-15.6l6.2-31.3c.2 0-.2-16.4 9.9-12.9z"/><path class="st4" d="M480.4 168.4c7.4 2.7 39 21.9 39 21.9"/><path class="st1" d="M448.4 134.4s-53.5-32.4-72.3-41.8c-18.7-9.4-27.3 5-15.6 19.1s82.3 46 82.3 46l5.6-23.3z"/><path class="st1" d="M442.9 145.7s-52.7-17.6-71.1-21.1c-18.4-3.5-29.6 0-29.6 10.5 0 12.9 97.2 30.1 97.2 30.1l3.5-19.5z"/><path class="st1" d="M435 168.7s5.9-41.3 15.2-42.2c9.4-.8 13.2 7.4 13.2 7.4l-12.9 39.8-16.4-4.7"/><path class="st1" d="M446.8 175.8s12.1-41 16.7-41.8 12.9 5.5 12.9 5.5L466.2 182l-19.4-6.2z"/><path class="st1" d="M476 185.1s15.2-30.1 13.7-37.5c-1.5-7.4-9.4-10.2-13.2-8.2-3.9 2-14.1 38.3-14.1 38.3l13.6 7.4z"/><path class="st14" d="M631.4 219.5s21.4-2.3 29.3-9c12.9-14.1-19.1-141.7-12.5-142.5 15.6-1.2 24.9 95.2 24.9 95.2s-4.7-91.7.4-92.2c18.7 7 9 83.5 11.4 89.4 4.3-10.9-.8-92.2 4.7-91.3 19.9 2.7 5.5 92.9 7.4 95.7 1.4 1.9 8.2-95.7 19.9-94.9 10.9 2.7-11.7 100.4-10.9 104.6.8 4.3 16.7-90.5 40.6-93.3 3.5-.2-12.1 41.2-21.9 85.5-9.7 44.3-9.7 90.5-27.3 94.9-27.4 6.7-32.8 7-32.8 7l-37.8-10.9-43-.8 12.9-36.7 34.7-.7z"/><path class="st4" d="M706 174.6c-12.9 36 3.5 78.5-53.9 82.3"/><path class="st4" d="M627.9 253.1c81.6-2 61.7-57 69.1-88.2"/><path class="st4" d="M607.2 246c36-10.9 85.5 13.7 77.6-85.5"/><path class="st4" d="M593.1 237.8c24.9-19.1 92.9 26.6 80-74.6"/><path class="st4" d="M653.7 258.9s30.4-.4 42.2-9.7 17-86.3 34.5-133.2"/><path class="st14" d="M642.3 274.1s40.6-5 46 3.5c5.5 8.5 7.4 17.9-2 19.9-5 .8-7.8-12.1-13.7-8.5s-.8 16.4 7.4 19.9 21.1-.4 25.4-6.7c5-9.7 2.7-23.8-9-33.6-11.7-9.7-24.9-10.5-51.2-9.4-28.5 1.3-28.1 2.7-28.1 2.7l4.7 10.9 20.5 1.3z"/><path class="st13" d="M723.8 112.3c6.3-16.4 13.9-30 22.7-30.9 2.1-.1-2.9 15.5-9.4 37.8l-13.3-6.9zM704.7 107c3.2-19.9 7.3-37.4 12.2-37 4.6 1.2 3.3 19.1.2 39.9l-12.4-2.9zM686.8 106.7c0-20 .2-37.8 2.8-37.5 8.4 1.2 10.8 18.2 10.7 37.5h-13.5zM671.6 106.3c-.2-17.9-.1-35 2-35.1 7.8 2.9 10.7 18.2 11.5 35.1h-13.5zM664.2 103c-4.1-19.2-9.5-35.5-15.9-35-2.3.2.1 16.5 3.7 37.8l12.2-2.8z"/><ellipse class="st1" cx="686.1" cy="186.7" rx="27.3" ry="29.4"/><path class="st13" d="M608.8 163.7c1.2-.8 39-25.8 42.2-21.1 3.2 4.7-41 38.3-41 38.3l-1.2-17.2zM610.4 183.2s52.3-25.4 52.3-19.9-36.3 31.3-56.2 36.7c-19.9 5.4 3.9-16.8 3.9-16.8zM603.7 205.1s47.2-23.1 55.4-17.6c-.4 7.4-49.2 31.6-49.2 31.6l-13.2 1.2 7-15.2z"/><path class="st13" d="M603 230c26.9-4.3 56.6-12.1 57.4-18.4.8-6.2-60.5 3.2-60.5 3.2S576 234.3 603 230zM600.2 246.9c39.5-2.3 63.2-5.9 62.4-12.1-.8-6.2-62.9-3.2-62.9-3.2s-38.9 17.6.5 15.3zM596 252.7c6.7-3.2 67.6-.8 67.6 3.5s-25.8 12.1-39.5 11.4c-13.7-.8-31.6-3.5-31.6-3.5s-3.2-8.3 3.5-11.4z"/><path class="st13" d="M595.1 260.4c28.1 2.7 64.8 14.4 64.1 18.7-.8 4.3-55 0-55 0l-15.2-7.4c-.1.1-22-14 6.1-11.3z"/><path class="st13" d="M590.8 289.4c7.4 1.5 56.6 30.4 58.6 24.6s-30.8-34.8-53.9-43c-23-8.2-12.1 16.8-4.7 18.4z"/><path class="st8" d="m520.5 261.6 71.1 35.5s18.7-54.7 9.7-104.6c-9-50-82 46.5-82 46.5l1.2 22.6z"/><path class="st1" d="m520.5 261.6 48.8 24.5s15.6-34.2 3.7-101.9c-23.9 15.3-53.8 54.8-53.8 54.8l1.3 22.6z"/><path class="st3" d="m520.5 261.6 28.1 14.1s5.9-14.1-1.2-54.7c-23.9 15.3-28.1 17.9-28.1 17.9l1.2 22.7z"/><path class="st4" d="m541.3 246.9-3.2 22.9M592.8 241.9h7.6M588.7 250.7h10.5M586.9 258.9l11.7.6M585.8 267.1l11.1.6M584.6 276.5l11.1 2.3M582.3 284.1l10.5 2.9"/><path class="st13" d="M248.1 77.4s29.3 7.4 36.7 28.1 3.2 82.3 3.2 82.3l13.2 16.4s-23.4 15.6-28.9-5.5 1.5-81.6-.8-91.7-23.4-29.6-23.4-29.6z"/><path class="st9" d="m295.3 200.4-.2-.2s-13.2-1.5-14.2-11.5c-.7-7.6 3.5-88.7 2.7-98-.8-9.4-4.3-24.6-4.3-24.6s10.5 5.9 15.2 25.4-3.5 88.2-2.3 92.5 16 9 16 9l-12.9 7.4z"/><path class="st5" d="M309 215.2c-11.7-.4-16.7-12.1-18.4-16-1.5-3.9 13.7-21.9 46.8-22.3s101.1-16 128.8-1.5c27.8 14.5 33.6 25.8 33.6 25.8s4.7-9 15.6-14.4c10.9-5.5 31.3-6.2 42.2-10.5 16.7-7.4 48.8-38.6 48.8-38.6s24 69.3-13.7 96.8c-31.6 23.1-69.4 16.7-69.4 16.7l1.2 13.7s-9 49.8-20.1 55c-11.1 5.3-32.2 1.8-37.5 0s-7.6-10.9-7.6-10.9c-10.5 8.5-20.7 1.2-20.7 1.2s5 18.7-15.2 3.9c3.5 18.4-14.4 2-14.4 2s5 21.9-15.2.4c-2.3-1.5-31.3 14.4-44.1 6.7-12.9-7.7.4-9.7.4-9.7l57.7-28.9-47-23.6-41.8-40.6c.1-.1 1.8-4.8-10-5.2z"/><path class="st4" d="M309 215.2c16 .4 17.2-18.4 4.7-17.6"/><path class="st9" d="M389.8 172c-19.8 2.1-38.9 4.8-52.3 4.9 0 0 60.5 72.3 131.5 89 4.7 1.2 28.5 2.7 34-.4 5.5-3.2 9-41.3 2.3-44.5s-26.9.8-37.8-2c-10.9-2.6-61.3-23-77.7-47z"/><path class="st6" d="M323.8 234.7s-11.4 11.4-9.4 26.9 16.7 24.9 16.7 24.9-8.2 2.3-18.4-.8C302.5 282.5 299 269 299 269l-1.2-30.1 17.2-16.7 8.8 12.5z"/><path class="st15" d="m298 239 17.2-16.7 8.5 12.5s-6.1 6.1-8.5 15.5c-.9 3.4-21.1-4.2-20.5 0L298 239z"/><path class="st4" d="M323.8 234.7s-11.4 11.4-9.4 26.9 16.7 24.9 16.7 24.9-8.2 2.3-18.4-.8C302.5 282.5 299 269 299 269l-1.2-30.1 17.2-16.7 8.8 12.5z"/><path class="st6" d="M291.5 231.2s-11.4 54.2 28.9 58.2c-34.8-27.3-5.5-62.1-5.5-62.1l-12.1-8.2-11.3 12.1z"/><path class="st15" d="M291.5 231.2s-1.6 7.6-1.4 17.3l14.4.2c2.8-12.4 10.4-21.4 10.4-21.4l-12.1-8.2-11.3 12.1z"/><path class="st4" d="M291.5 231.2s-11.4 54.2 28.9 58.2c-34.8-27.3-5.5-62.1-5.5-62.1l-12.1-8.2-11.3 12.1z"/><path class="st13" d="M291.5 231.2c-3.9-6.7 3.9-21.1 32.8-14.1s28.1 31.3 28.1 31.3 8.2-4.7 11.7 4.3c10.9-1.5 11.7 8.5 11.7 8.5 5.5 2.7 46 5.5 47.2 18.7 1.1 11-21 19-40.6 27.3-15.1 6.4-28.2 14.5-32 15.2-8.5 1.5-13.2-7.4-15.6-9.7 19.1-5.5 30.8-21.4 50.4-31.3-7 0-32.4-8.5-41-15.6s-19.1-32.8-27.3-37.1c-8.3-4.1-18.9-2.6-25.4 2.5z"/><path class="st6" d="M533.1 240.2c17.6 0 46-6.2 58.6-26.9 12.6-21.2 2.2-64.1 2.2-64.1 7.4-6.6 12.6-11.7 12.6-11.7s24 69.3-13.7 96.8c-22 16-47.2 17.9-60.3 17.6l.6-11.7z"/><path class="st4" d="m601.6 152.9 6.4-3.5M603.9 159.4l6.5-1.2M605.1 168.2l6.4-1.8M605.1 176.9l6.4-.5M605.1 185.1h6.4M605.1 194.5h5.3M604.5 203.3l4.1 1.8M601 212.1l5.8 2.9M595.1 221.4l5.9 4.7M587.5 229.1l5.3 5.2M579.3 234.9l1.8 4.1M570 239l1.1 4.1M561.2 242.5l1.1 3.5M548.9 244.3l1.1 6.4M539.5 245.5v5.2M557.7 176.1c16.7-7.4 48.8-38.6 48.8-38.6s24 69.3-13.7 96.8c-31.6 23.1-69.4 16.7-69.4 16.7"/><circle class="st3" cx="532.1" cy="300.1" r="36.9"/><path class="st4" d="m495.2 298.7 70.3-11.3M496.8 308.9l71.4-12.5M532.2 335.9 521 265.6M542.4 334.2l-12.5-71.4"/><circle class="st4" cx="509.9" cy="286.1" r="4.5"/><circle class="st4" cx="548.5" cy="277.9" r="4.5"/><circle class="st4" cx="555.6" cy="315.4" r="4.5"/><circle class="st4" cx="514.6" cy="321.2" r="4.5"/><circle class="st13" cx="532.8" cy="299.3" r="19"/><path class="st14" d="M524.1 299.6c-.4 5.9 3.2 94.5 3.2 94.5l26.9-1.5s-9.7-88.2-11.4-94c-1.5-6.1-18.3-4.9-18.7 1z"/><path class="st1" d="M525.9 360.8c.7 18.2 1.3 33.1 1.3 33.1l26.9-1.5s-1.6-14.9-3.7-32.8c-15-6.2-24.5 1.2-24.5 1.2z"/><path class="st3" d="M526.5 376.8c.4 10.2.7 17.2.7 17.2l26.9-1.5s-.8-7.1-2-17.6c.1 0-10-3.9-25.6 1.9z"/><circle class="st8" cx="542.2" cy="398" r="15.8"/><circle class="st4" cx="542.7" cy="398.5" r="6.8"/><path class="st4" d="m528.4 295.6 4.7 62M535.8 295.2l6.3 62.1M459.3 308.9c28.5-18.7 0-46 5.5-52.3"/><path class="st5" d="M499.9 201.2c-3.5 6.7-1.5 17.2 6.2 22.3 14.9 9.7 25.8-10.2 10.5-13.7"/><path class="st6" d="M401.1 210.1s-10.9 20.3 12.1 32 48.4-10.5 48.4-10.5l-7.8-16-44.9-14.1-7.8 8.6z"/><path class="st15" d="M441.7 243c11.5-4 19.9-11.4 19.9-11.4l-7.8-16-20.1-6.3 8 33.7z"/><path class="st4" d="M411.6 211.7s-5 22.6 13.2 24.6c18.4 2 21.4-17.6 21.4-17.6l-9.4-10.5-25.2 3.5z"/><path class="st4" d="M421 212.9s-2 13.7 5.9 15.2c7.8 1.5 12.5-12.9 12.5-12.9l-19.1-2.3"/><path class="st4" d="M401.1 210.1s-10.9 20.3 12.1 32 48.4-10.5 48.4-10.5l-7.8-16-44.9-14.1-7.8 8.6z"/><path class="st3" d="M402.7 204.7s-8.5-6.7.8-10.9c9.4-4.2 63.6 17.6 67.6 23.4 4 5.9 2.7 21.4 2.7 21.4l3.9 12.1-3.9 5-9-4.3-2-8.2s-2.7-17.6-3.5-18.7-45.3-16-45.3-16l-11.3-3.8z"/><path class="st3" d="M401.6 211.3c5.5-1.2 55.4 10.5 57.7 13.2 2.3 2.7-2 21.4 1.5 28.1 3.5 6.7 16 7.8 19.9 4.7 3.9-3.2 5.9-18.7-5-20.3-6.2-.4.8 13.2-2 14.4-2.7 1.2-5.9 1.5-7.8-2.7-2-4.3 3.9-18.4-2.3-25.8-10.2-11.7-55.4-23.1-62.1-20.3-6.6 2.8-5.4 9.8.1 8.7z"/></svg>