<svg version="1.1" id="Calque_1" xmlns="http://www.w3.org/2000/svg" x="0" y="0" viewBox="0 0 900 900" style="enable-background:new 0 0 900 900" xml:space="preserve"><style>.st0{fill:#fff}.st1{fill:#0067ad}.st2,.st3,.st4,.st6,.st8{fill:none;stroke:#000;stroke-width:5.4849;stroke-linecap:round;stroke-linejoin:round}.st3,.st4,.st6,.st8{fill:#fff}.st4,.st6,.st8{fill:#006b24}.st6,.st8{fill:#ffce00}.st8{fill:red}</style><path class="st0" d="M531.8 408.6c5.1 4.1 8.2 6.4 12.5 6.4 6.4 0 10.4-2 15.1-4.4 4.6-2.4 9.9-5.1 17.1-5.1 6.9 0 12.8 2.7 18.4 5.3 6 2.8 12.2 5.6 20.3 5.6 5.7 0 9.4-3 14.8-8 5.6-5.1 12.6-11.5 23.6-11 7.6.3 16.4 3.8 24.2 7.7-1-4.1-2-8.1-3.1-12-7.4 1.4-15.2 2.4-20.4 2-7.8-.5-12-2.9-15.4-4.8-2.6-1.4-4.1-2.3-7.4-2.6-2.4-.2-4.5 1-8.3 3.4-5 3-11.8 7.1-22.3 7.6-11.2.5-23.4-2.7-32.2-5.1-3.7-1-8.3-2.2-9.8-2.2-.3 0-.4 0-1.8 1.1-2.6 2-7 5.4-15.6 4.8-6.9-.5-12-4.1-16.5-7.2-3.8-2.7-7.2-5-11.2-5.2-4.8-.3-17 5.6-27.6 12.2-.4 2-.8 4.1-1.2 6.1 6.1-2.6 12.7-4.6 19.2-5.1 13.2-1 21.2 5.4 27.6 10.5zM555.3 362.3c20.2 0 49.7-17 52.4-18.6.1 0 .6-.4 1.5-1-23.3-3.3-40.7-.8-40.7-.8l-19-.7s-13.2 1.1-27 6.2c7.6 2.6 12.1 6 16.1 9 4.8 3.5 8 5.9 16.7 5.9z"/><path class="st0" d="M514.8 370.4c8.1.5 13.9 4.6 18.6 7.8 3.5 2.4 6.3 4.4 9.2 4.6 3 .2 3.8-.4 5.6-1.8 2.1-1.6 5.3-4.1 10.7-4.1 3.4 0 7.7 1.1 13.6 2.7 8.4 2.2 18.8 5 27.8 4.6 6.7-.3 10.9-2.9 15.4-5.5 4.6-2.8 9.8-6 16.9-5.4 6.6.5 10.4 2.6 13.5 4.4 2.7 1.5 4.7 2.6 9.1 2.9 3.4.2 8.8-.4 14.6-1.4-5.1-12-11.7-21.1-20.1-24.9-7-3.2-14-5.6-20.8-7.5l-13 9.1c-.1.1-.3.2-.4.3-1.4.8-34.9 20.8-60.1 20.8-13.7 0-20-4.8-25.6-9-5.4-4.1-10.5-8-24.8-9.3-.6-.1-1.2-.2-1.8-.4-1.2 1.1-2.3 2.2-3.4 3.4-3.1 3.5-5.8 9.1-8.1 15.8 9.9-5.2 17.5-7.5 23.1-7.1zM639.9 419.2c-5.8 5.3-12.9 11.8-24.6 11.8-11.3 0-19.7-3.9-26.4-7-4.6-2.2-8.7-4-12.3-4-3.7 0-6.5 1.5-10.4 3.5-5.2 2.7-11.8 6-21.8 6-9.7 0-16-5.1-21.6-9.5-5.5-4.4-9.9-7.9-17.3-7.3-7.9.6-16.4 4.4-23.2 8.2-2.1 14.7-2.9 26.2-2.9 26.2l25.6 20.6 180.2-12.8c-.1-.8-.1-1.7-.2-2.6-8 .1-15-2.7-21.2-5.3-5.9-2.4-11.4-4.6-17.3-4.4-5.3.3-7.5 2.3-10.9 5.4-3.7 3.4-8.6 8-17.6 8.5-8.7.5-14.2-2.1-18.7-4.2-3.4-1.6-5.6-2.6-9-2.4-6.7.4-19.9 7.2-26.7 11.4-3.4 2.1-7.9 1-10.1-2.4s-1.1-7.9 2.4-10.1c2.1-1.3 20.9-12.7 33.3-13.5 7.1-.5 12.1 1.9 16.2 3.7 3.7 1.8 6.7 3.1 11.7 2.9 3.5-.2 5.2-1.6 8.4-4.6 4-3.7 9.5-8.8 20.1-9.3 9.2-.4 16.8 2.7 23.6 5.4 5 2.1 9.5 3.9 14.2 4.1-.5-4.6-1.2-9.2-1.9-13.7-8.6-5.3-20.5-11.6-28.5-12-4.7 0-7.9 2.7-13.1 7.4z"/><path class="st1" d="M653.6 397.4c-11-.5-18 5.9-23.6 11-5.4 5-9.1 8-14.8 8-8 0-14.3-2.9-20.3-5.6-5.7-2.6-11.6-5.3-18.4-5.3-7.2 0-12.5 2.7-17.1 5.1-4.6 2.4-8.6 4.4-15.1 4.4-4.3 0-7.4-2.3-12.5-6.4-6.4-5.1-14.4-11.4-27.5-10.4-6.5.5-13.1 2.5-19.2 5.1-1.2 6.1-2.1 12.1-2.9 17.7 6.8-3.8 15.4-7.6 23.2-8.2 7.4-.6 11.7 2.9 17.3 7.3 5.6 4.5 12 9.5 21.6 9.5 10 0 16.5-3.4 21.8-6 3.9-2 6.8-3.5 10.4-3.5 3.7 0 7.7 1.9 12.3 4 6.8 3.1 15.2 7 26.4 7 11.7 0 18.9-6.5 24.6-11.8 5.2-4.7 8.3-7.4 13.1-7.2 8 .4 19.9 6.6 28.5 12-1-6.4-2.2-12.7-3.6-18.8-7.7-4.2-16.6-7.6-24.2-7.9z"/><path class="st1" d="M513.9 384.9c4 .3 7.3 2.6 11.2 5.2 4.5 3.1 9.6 6.7 16.5 7.2 8.6.6 12.9-2.7 15.6-4.8 1.4-1.1 1.5-1.1 1.8-1.1 1.5 0 6.1 1.2 9.8 2.2 8.8 2.4 21 5.6 32.2 5.1 10.4-.5 17.3-4.6 22.3-7.6 3.9-2.3 6-3.5 8.3-3.4 3.3.2 4.8 1.1 7.4 2.6 3.4 1.9 7.6 4.3 15.4 4.8 5.3.3 13.1-.7 20.4-2-1.5-5-3.1-9.7-4.9-14-5.7 1-11.2 1.6-14.6 1.4-4.4-.3-6.4-1.4-9.1-2.9-3.1-1.8-6.9-3.9-13.5-4.4-7.1-.5-12.3 2.6-16.9 5.4-4.5 2.7-8.6 5.2-15.4 5.5-9 .4-19.4-2.4-27.8-4.6-5.9-1.6-10.2-2.7-13.6-2.7-5.3 0-8.6 2.4-10.7 4.1-1.8 1.4-2.6 2-5.6 1.8-2.9-.2-5.7-2.2-9.2-4.6-4.7-3.3-10.5-7.3-18.6-7.8-5.6-.4-13.2 1.9-23.1 7-2 6-3.8 12.8-5.3 19.8 10.3-6.5 22.6-12.5 27.4-12.2zM637.8 340.5c3.3-2.3 4.1-6.9 1.8-10.2-2.3-3.3-6.9-4.1-10.2-1.8 0 0-15.3 10.7-20.2 14.2 6.2.9 12.8 2.2 19.7 4.1l8.9-6.3z"/><path class="st1" d="M529.8 367.9c5.6 4.2 11.9 9 25.6 9 25.1 0 58.7-19.9 60.1-20.8.1-.1.3-.2.4-.3l13-9.1c-6.8-1.9-13.5-3.2-19.7-4.1-.9.6-1.4 1-1.5 1-2.6 1.5-32.1 18.6-52.4 18.6-8.8 0-12-2.4-16.7-6-3.9-3-8.5-6.4-16.1-9-6.9 2.5-13.9 6.1-19.4 10.9.6.2 1.2.4 1.8.4 14.3 1.4 19.4 5.3 24.9 9.4zM645.7 428.1c-10.6.5-16.1 5.6-20.1 9.3-3.3 3.1-4.9 4.4-8.4 4.6-5 .3-8-1.1-11.7-2.9-4-1.9-9-4.2-16.2-3.7-12.4.8-31.2 12.2-33.3 13.5-3.4 2.1-4.5 6.6-2.4 10.1 2.1 3.4 6.6 4.5 10.1 2.4 6.8-4.2 20-10.9 26.7-11.4 3.4-.2 5.6.8 9 2.4 4.5 2.1 10 4.7 18.7 4.2 9-.5 13.9-5.1 17.6-8.5 3.4-3.1 5.6-5.2 10.9-5.4 6-.3 11.5 2 17.3 4.4 6.2 2.5 13.2 5.4 21.2 5.3-.4-4.8-.9-9.7-1.5-14.7-4.6-.3-9.1-2.1-14.2-4.1-6.9-2.8-14.6-5.9-23.7-5.5z"/><path class="st2" d="M649.6 354.2c-40.2-18.3-81.2-12.4-81.2-12.4l-19-.7s-34.4 2.9-49.7 20.5c-15.4 17.6-20.5 85.6-20.5 85.6l25.6 20.6L685 455c-3.2-40.2-12-90.2-35.4-100.8z"/><path class="st3" d="m546.5 140-19 57 91.4 35.8 17.6-52.6z"/><path class="st4" d="M598.5 116.5s5.1-19 15.4-23.4c10.2-4.4 39.5 1.5 53.4-7.3C681.2 77 685.6 61.7 690 50c8 12.4 8 49-10.2 59.2s-36.6 8.8-44.6 9.5c-8 .7-25.6 26.3-25.6 26.3l-19-8.8 7.9-19.7z"/><path class="st3" d="M490.2 288.4c-3.7 4.4 1.5 16.1 1.5 16.1l23.4.7-4.4-19.7s-16.8-1.5-20.5 2.9zM522.6 482l23 18.5 141.3-8.9c-.1-5.9-.3-13.1-.8-21L522.6 482z"/><path d="m511.1 544.9 6 2.4 2-3.7c-2.7.4-5.4.8-8 1.3z" style="fill:none"/><path class="st1" d="M499 539.9c-3.7-1.6-8 .1-9.6 3.8-.7 1.6-.8 3.4-.3 5 6.9-1.2 14.4-2.5 22-3.8-4.1-1.6-8.2-3.3-12.1-5z"/><path class="st6" d="M479.3 447.1s-110.4-30.7-111.9-34.4-2.9-11-8-15.4-11.7-6.6-15-13.2-4-12.4-6.9-15.4c-2.9-2.9-8.8-2.9-11 2.2-2.2 5.1-14.6 15.4-14.6 15.4l8 48.3s24.9 12.4 43.9 18.3 95.1 33.6 95.1 33.6l20.4-39.4z"/><path class="st2" d="M343.2 406.9c-2.9-7.3-20.5-9.5-16.8-35.8"/><path class="st3" d="M348.3 152.4s-10.2-25.6-25.6-40.2-77.5-20.5-101.7 7.3-14.6 105.3-45.3 153.6c16.8 3.7 87.8 15.4 87.8 15.4s-6.6-94.3 11-109.7c17.6-15.4 57.8 55.6 57.8 55.6l16-82z"/><path class="st2" d="M323.5 191.9c-10.2-17.6-11-67.3-52.3-65.8-46.8.7-43.5 134.6-50.8 154.3M194.8 265.7l17.5-2.9M197 252.6l16.1-3M200.6 239.4l14.6-2.2M205.7 221.4l14.7.2M207.9 206.8l14.7.2M210.8 192.1l14.8.3M213 173.8l14.8.3M217 156.7l14.4 1.3M223.9 136.4l13.4 6.4M232.9 119.7l11.6 9.1M250.1 279.3l-15.9-8.1M252 266.1l-14.4-7.7M252.6 252.5l-13.3-6.6M253.3 233.8l-14.1-4.3M255.7 219.2l-14.1-4.3M257.4 204.4l-14.1-4.3M261 186.3l-14.2-4.3M262.2 170.6l-14.1-4.4M265 157.5l-13.2-6.8M271.7 149.5l-9.1-11.7M250 110l5.1 13.9M267.9 107l.9 12.9M283.6 106.7l-2.1 13.1M305.4 111.3l-7.7 12.7M320.8 125l-12.5 7.6M331.7 144l-13.6 5.8M279.8 567.3 298 597M341.5 559.3l-5.7 31.4"/><path class="st3" d="M337.5 553.2s-3.2-52.6-18.4-63.7c-15.2-11.1-54.4-44.1-75.3-19-33.6 40.2-22.8 162.7-44.3 208.7 15.2 1.3 63.6 3.1 67.7-2.5 6.6-8.8 7.3-109.7 11.7-125.8 13.6-15.5 58.6 2.3 58.6 2.3z"/><path class="st2" d="M320.2 590.8c-11-14.3-3.6-81.7-39.8-75.7-41.1 6-16.1 60-40.8 165.4M222.6 619.7l12.5 2.6M226 602.6l14.8 3.9M220.1 633.3l14.9 3.9M216.5 649.4l14.8 3.9M212.8 663.3l14.9 3.9M263.5 664l-14.9 4M264.2 650.1l-12.6 4M266.1 634l-11.6 4M267.5 617.9l-11.6 3.6M267.9 598.9l-10.2 2.5M268.6 580.6l-9.7 3.3M269 564.6l-8.7 1.7M272.9 548.8l-11.3-.8M229.1 583.5l14.7 3.3M229.9 561.9l16.1 6.6M240.6 518.9l12.7 5.7M244.5 501.5l12.4 4.1M249.7 485l11.2 6.8M248.9 546.6l-14.6-7.3M288.4 476.4l-1.8 10.9M271.3 471.8l2 11.9M295 522l-5.3 12.1M310.1 532.3l-11.3 6.7M321.9 547.8l-11.3 6.6"/><path class="st3" d="M624.8 226.2s-73.9-38-112.6-43.9l18.3-37.3s14.3 3.3 16.5 9.9c2.2 6.6-5.5 37.7-5.5 37.7s19.7-26.3 30.7-32.2c2.9-.7 14.6 8.8 14.6 8.8l-3.7 41.7 10.2 4.4s24.9-27.8 34.4-28.5c5.9 0 19 24.9 19 24.9l-13.9 19.7-8-5.2z"/><path class="st2" d="m529 178 6.6-16.8M528.3 161.9 537 178M524.6 172.9l15.4-8.1M562.8 190.5 572 175M564.7 174.5l6 17.3M559.3 184.7l16.4-5.4M615.7 214.5l11.6-13.8M620.1 199l3.2 18.1M613.2 208.3l17.1-2.7M303.7 502l18.3 27"/><path class="st6" d="M495.7 231s-.7 19.7-2.9 24.9c-2.2 5.1-16.8 14.6-19 17.6-2.2 2.9-.4 5.9 2.6 7.3 2.9 1.5 9.5.4 9.5.4s0 5.9.7 8.8 13.9-1.5 22.7 7.3c-6.6.7-22.7 5.9-22.7 5.9s-.7 4.4.7 7.3c1.5 2.9 8.8 4.4 11 6.6 2.2 2.2 1.5 6.6 2.9 9.5s8.8 7.3 13.9 8.8c5.1 1.5 21.2 0 24.9 1.5 3.7 1.5 15.4 9.5 17.6 13.9 2.2 4.4 10.2 26.3 13.2 31.4 2.9 5.1 11.7 1.5 11.7 1.5s-5.9-32.2-1.5-38c4.4-5.9 11.7-5.1 11.7-5.1l4.4-80.4-69.6-33.2-31.8 4z"/><path class="st2" d="M499 274.5s5.1 3.7 2.9 6.6c-2.2 2.9-10.2 0-16.1 0"/><circle class="st3" cx="575.1" cy="311.8" r="13.9"/><path class="st3" d="M507.7 257.3c7.2-4.8 12.9-8 18.5-7.2 5.6.8 15.3 4.8 15.3 4.8s-4.8 7.2-9.7 7.2c-4.8 0-20-.8-24.1-4.8z"/><circle class="st2" cx="525.4" cy="255.2" r="4.4"/><path class="st3" d="M586 255.5s-2.9 81.2 11 111.9c24.1-1.5 65.1-16.8 65.1-16.8s-27.1-86.3-46.8-110.4C595.5 216 586 255.5 586 255.5z"/><path class="st2" d="m630.6 359.3-26.3-95M592.6 273.1l9.5 8.7M593 288l12.4 9.6M597 305.6l13.5 10.6M597.7 322.1l13.9 10.9M603.6 343.3l13.9 10.9M614.9 272l12.1 9.8M621.1 290.6l12.5 8.8M626.2 307.8l14.7 9.9M635 335.2l13.9 11M631.4 321.3l13.9 11"/><path class="st3" d="M604.3 264.3C558.2 248.2 495.7 231 495.7 231s10.6-38.4 16.5-48.6c38.8 5.9 113.7 42.4 113.7 42.4s-4.8 18.3-21.6 39.5z"/><path class="st2" d="M509.2 193.3c21.2 2.9 113.4 40.2 113.4 40.2M501.9 213.8 611.6 254M515.5 212.4l20.1-3.7M521.3 203.6l10.6 13.9M593 240.5l16.4-5.5M597.7 230.6l6.2 14.3M554.6 225.9l21.2-.4M562.6 218.9l6.6 13.2"/><circle class="st3" cx="656.6" cy="243.8" r="38"/><path class="st2" d="M618.6 243.8c13.5-5.1 24.5 3.7 24.5 3.7s17.6 10.2 1.5 9.5c-16.1-.7-12.4 15.4-12.4 15.4M627 222.6c13.2 2.9 20.5 14.6 20.5 14.6M649.6 208s4.4 7.3 3.7 10.2c-.7 2.9-5.1 3.7-5.9 7.3s8.8 6.6 7.3 11M667.2 208.7s-6.6 5.1-6.6 10.2 6.6 7.3 6.6 11-5.1 9.5-5.1 9.5M673.8 242.3c4.4-1.5-2.2-8.8-.7-13.2 1.5-4.4 13.2-8.8 13.2-8.8M667.2 246c18.3-3.7 25.6 7.3 25.6 7.3"/><path class="st3" d="M673.1 377.6C656.2 349.8 646 262.1 648.2 254s16.1-9.5 21.2-5.9 54.8 108.2 54.8 108.2-35.1 14-51.1 21.3z"/><path class="st2" d="m699.4 364.5-42.4-117M684 370.3l-29.2-111.1M665.7 254l47.6 106.8"/><circle class="st3" cx="656.2" cy="250.7" r="16.1"/><path class="st3" d="M555.3 379.8c-2.9 2.6-1.5 13.9.7 16.8 2.2 2.9 45.3 1.5 46.1-.7.7-2.2 3.7-13.2 0-17.6-3.6-4.3-43.9-1-46.8 1.5z"/><path class="st2" d="m560.4 379.1 13.9 18.3M574.3 377.6l11.7 17.6M589 378.4l9.5 16.1"/><circle class="st3" cx="465.7" cy="191.1" r="39.1"/><path class="st2" d="M429.5 204.3c5.9-10.2 22.7-6.6 22.7-6.6s8.8-5.1.7-8c-8-2.9-7.3-10.2-11.7-11.7s-9.5 4.4-13.2 2.9M444.9 158.2c.7 6.6 11.7 4.4 12.4 8.8.7 4.4-5.1 9.5-1.5 16.1M477.1 155.3c2.9 4.4-8.8 5.9-7.3 9.5s0 11-2.2 16.1M475.6 183.8c7.3-15.4 21.2-15.4 21.2-15.4M479.3 196.3s8.8-7.3 13.2-5.9c4.4 1.5 6.6 9.5 12.4 10.2M474.1 202.8s12.1.4 15 2.6.4 9.1 5.5 12.1"/><circle class="st3" cx="465.4" cy="193" r="15.7"/><path class="st3" d="M452.6 199.9c-6.2 6.6-53 85.6-53 85.6s29.3 13.9 57 19c0-16.8 21.9-77.5 20.5-93.6-1.5-16.1-18.3-17.6-24.5-11z"/><path class="st2" d="M429.5 297.9c2.9-23.4 39.9-92.1 38-99.5M412 279.6l15.3-.7M417.8 267.9l16.1-3.6M428.8 253.3l10.2-2.9M436.8 238.7l9.5-2.9M449.6 294.4l-7.6-9.6M453.9 282l-6.8-8.9M458.3 266.6l-7.9-9.2M463 250.1l-5-7.8M443.4 224.8l7.7-2.2M464.6 227l1.9 6.2M469 213.8l3.7 4.4M450.7 211.6l5.2-1.4"/><path class="st6" d="M627 144.3c-12.4-13.9-42.4-24.5-42.4-24.5s-2.9-18.6 2.2-29.6c5.9 1.5 16.1 9.5 17.6 17.6 1.5 8-5.9 22.7-5.9 22.7s6.6 13.2 8.8 4.4 30-17.6 35.8-9.5c-2.2 9.4-16.1 18.9-16.1 18.9z"/><path d="m584.6 119.8-4.4 25.2 29.3 13.9 17.6-14.6c-12.6-13.9-42.5-24.5-42.5-24.5z" style="fill:#fdce12;stroke:#000;stroke-width:5.4849;stroke-linecap:round;stroke-linejoin:round"/><path class="st8" d="m541.4 123.1-5.1 22.7s84.1 32.9 104.6 46.8l11-15.4c-26.4-17.5-110.5-54.1-110.5-54.1z"/><circle class="st8" cx="593" cy="155.7" r="17.6"/><path class="st4" d="M321.3 531s-5.3-37.7 25.2-45.9c15.7 12.4 9.1 45.2 9.1 45.2l-57.7 18.9-22.7-20.8s-17.6-25.8-.7-38.5c28.6 6.9 33.8 40.4 33.8 40.4l13 .7z"/><path class="st2" d="m279.6 508.5 10.1 25.6M340.3 504.1l-8 29.3"/><path class="st4" d="M326.4 190.4s-2.2-38 32.2-47.5c11.7 16.1 6.6 46.8 6.6 46.8l-65.1 21.9-25.6-24.1s-10.2-34.4-.7-44.6c32.2 8 38 46.8 38 46.8l14.6.7z"/><path class="st2" d="m281.8 159.7 16.1 35.8M352 159.7l-11 34.4"/><path class="st3" d="m301.5 272.3.7 261.8 22.7.7 2.2-258.9s19 0 25.6-16.1c6.6-16.1 12.4-70.2 12.4-70.2l-90.7-2.2s8 62.2 11 71.7c3 9.6 16.1 13.2 16.1 13.2z"/><circle cx="292.4" cy="205" r="9.5"/><circle cx="319.5" cy="206.5" r="9.5"/><circle cx="319.1" cy="242.3" r="9.5"/><circle cx="346.5" cy="207.2" r="9.5"/><path class="st2" d="m302.3 479.3 21.9 27M303.7 461l21.2 21.6M303 441.3l21.9 21.9M301.5 369.6l22.7 27M302.3 342.5l24.1 28.5M303 311.8l21.9 27.1M301.5 278.9l24.9 23.4"/><path class="st6" d="M301.9 383.5v10.2s26 6.6 28.2 10.2c2.2 3.7 2.9 9.5.7 12.4 3.7 5.9-1.5 11.7-1.5 11.7s3.3 8.8-.4 12.4-28.2-.7-31.1-6.6c-1.5-3.7-2.2-7.3-.7-10.2-8-2.9-8-11-4.4-16.8-4.4-6.6-2.2-11.7.7-16.1 3.1-4.3 8.5-7.2 8.5-7.2z"/><path class="st2" d="m292.8 406.9 38 9.5M297.2 423.7l32.1 4.4"/><path class="st3" d="m299.2 601.6.5 169.4 20.8-.7 1.4-165.5s16.9 0 22.7-13.9c5.9-13.9 11-60.6 11-60.6l-80.5-1.9s7.1 53.6 9.7 61.8c2.7 8.3 14.4 11.4 14.4 11.4z"/><ellipse cx="291.1" cy="543.6" rx="8.4" ry="8.2"/><ellipse cx="315.1" cy="544.9" rx="8.4" ry="8.2"/><ellipse cx="314.8" cy="575.8" rx="8.4" ry="8.2"/><ellipse cx="339.1" cy="545.5" rx="8.4" ry="8.2"/><path class="st2" d="m299.2 602.4 21 12.1M302.3 624.8l18.3 16.1M300.8 645.3l20.5 21.2M300.8 673.1l19.8 27M300.8 706l19.8 25.6M301.5 737.4l18.3 24.2M597 471.2l21.2 30.8M581.6 473.4l21.2 30.7M612.4 469.8l21.2 30.7M630.6 468.3l21.2 30.7M645.3 466.1l21.2 30.7M664.3 463.9l21.2 30.7"/><path class="st1" d="M517.1 547.3c-2-.8-4-1.5-6-2.4-7.5 1.3-15.1 2.6-22 3.8.6 2 2 3.7 4.1 4.6 3.9 1.7 12 5.2 20.7 8.5.8-6.8 1.2-10.8 1.2-10.8l2-3.7z"/><path class="st0" d="M666.8 582.6c-.7 1.3-1.7 3.1-3.2 4.8 1.8-.8 3.9-1.3 6.6-1.3 2.8 0 7.4.6 16.3 5.4-.1-2-.3-4-.4-6-3.4-2.7-8.6-5.9-14.4-5.9-3.3-.1-3.4.2-4.9 3zM667.5 556.8c-.3.3-.7 1-1 1.5-1.8 3.1-5.2 8.8-14.2 9.4-8 .6-13.8-4.2-18.5-8-3.4-2.8-6.3-5.2-9.1-5.2-2.7 0-5.6 2.5-9.1 5.4-5 4.2-11.3 9.5-20.5 10-2.4.1-4.7-.1-6.8-.5 3.5 1.4 6.3 3.4 8.8 5.2 3.7 2.6 5.9 4.1 9.3 4.1 2.7 0 3.9-1.3 6.5-4.9 2.4-3.3 5.9-8.2 12.5-8.2 5 0 9.7 2.9 14.6 6 4.2 2.7 9 5.7 12.5 5.7h.3c.3-.4.7-1.1 1-1.7 2-3.8 5.9-10.7 17.7-10.7 4.9 0 9.4 1.2 13.3 2.9-.1-1.1-.1-2.2-.2-3.3-7.5-4.5-14.2-7.6-16.7-7.6-.2-.1-.3-.1-.4-.1zM667.7 534.4c-4.2 2.8-9.5 6.3-16.6 6.3-8.2 0-13.9-2.6-18.5-4.7-3.3-1.5-5.7-2.6-8.6-2.6-2.2 0-3.6.8-6.8 2.7-4.3 2.6-10.1 6.1-20.7 7.5-15 1.9-27.8-4.4-33.2-7.6-2.3.4-22.4 3.8-44.2 7.6l-2 3.7c10.8 4.2 20.5 7.3 23.7 7.3 2.9 0 5.9-1.9 9.4-4 4.4-2.7 9.3-5.7 15.7-6.2 7-.5 12.1 3 16.6 6.1 4 2.7 7.5 5.1 12 4.9 4.4-.3 7.9-3.2 11.9-6.6 4.9-4.1 10.5-8.8 18.5-8.8 8.1 0 13.8 4.7 18.4 8.5 3.7 3 6.1 4.9 8.1 4.7 1.3-.1 1.3-.1 2.6-2.2 1.8-3.1 5.1-8.8 14-8.8 2.7 0 7 .6 15.6 4.9-.4-5.9-.8-11.4-1.2-16.3-6.3-2-9.5.2-14.7 3.6zM569.1 522.4c.1.1 11.9 8.5 25.4 6.7 7.6-1 11.4-3.3 15.1-5.5 3.7-2.2 8-4.8 14.4-4.8 6 0 10.6 2.1 14.7 3.9 3.9 1.8 7.3 3.4 12.4 3.4 2.6 0 4.9-1.5 8.5-3.9 5.1-3.4 11.7-7.8 21.4-6.7-.5-4.7-1-7.9-1.4-9.2-3.7-11-82.6-6.6-82.6-6.6l-62.2 13.9-7.2 13.6 35.9-6.1c2-.4 4.1.1 5.6 1.3zM542.4 597.9c3.7 1.7 9.9 4.5 12.2 4.3 1.8-.2 6.6-3.8 9.2-5.8 5.5-4.2 10.6-8.1 16.4-8.1 5.3 0 9.8 3.3 14.2 6.5 3.3 2.4 7.5 5.4 10.1 5.3 2.8-.2 5.9-2.5 9.1-5 4.2-3.1 8.9-6.7 14.8-6.7 4.8 0 9.6 2 14.2 4 4 1.7 8.5 3.6 11.5 3.4 1-.1 1-.1 2.3-1.9.6-.8 1.4-1.9 2.4-3-1.7.7-3.8 1.2-6.3 1.2-7.8 0-14.8-4.4-20.3-7.9-1.8-1.2-4.4-2.8-6-3.5-.4.5-1 1.3-1.4 1.9-3 4.1-8 11-18.4 11-8.2 0-13.5-3.8-17.8-6.8-3.7-2.6-5.9-4.1-9.3-4.1-4.2 0-9 3.2-13.7 6.3-5.1 3.4-10.4 6.9-16.2 6.9-6.6 0-11-3.8-14.2-6.6-2.9-2.6-4.3-3.6-6.3-3.6-.3 0-4.4.6-17 10.1-.6.5-1.2 1-1.9 1.4-.1 1.6-.3 3.2-.5 4.9 12.1-7.7 16-8.3 18.6-8.3 4.3-.4 9 1.7 14.3 4.1zM669.5 600.8c-.3.2-.8 1-1.2 1.5-1.8 2.6-5.3 7.3-12.9 7.9-6.6.5-12.9-2.1-18.4-4.5-3.1-1.3-6.7-2.8-8.5-2.8-1.1 0-4.3 2.4-6 3.8-4.4 3.3-9.7 7.4-16.8 7.9-8 .6-14.6-4.2-19.9-8-1.8-1.3-4.4-3.1-5.6-3.6-1.6.5-5.3 3.3-7.5 5-5.3 4-10.7 8.2-16.6 8.7-6.2.6-13.1-2.5-19.7-5.5-2.6-1.2-6.3-2.9-7.9-3.1-2.9.8-11.3 5.9-20.1 12l179.4-7.6c-.1-1.1-.1-2.3-.2-3.4-7-4.5-14.6-8.4-17.4-8.4-.4 0-.6 0-.7.1zM545 578c2.1 1.9 3.4 3 4.5 3 1.5 0 5.7-2.8 8.2-4.5 5.9-3.9 13.2-8.7 21.8-8.7 1.7 0 3.3.1 4.7.4-4.1-1.5-7.3-3.8-10.1-5.7-2.9-2-5.4-3.7-7.2-3.6-2.8.2-5.7 2-9.1 4.1-4.7 2.9-10.1 6.2-17 6.2-5.6 0-16.6-3.6-26.8-7.5-.5 4.2-1.1 9.6-1.7 15.7 9.2-5.9 13.8-6.8 16.9-6.8 7.5.1 12.3 4.3 15.8 7.4z"/><path class="st1" d="M584.2 568.2c1.4.5 2.8 1 4.3 1.2-1.4-.5-2.8-.9-4.3-1.2zM663.5 587.4c-2 .9-3.5 2.1-4.7 3.3 2-.8 3.5-2 4.7-3.3zM563.2 536c5.4 3.3 18.2 9.6 33.2 7.6 10.6-1.4 16.5-4.9 20.7-7.5 3.2-1.9 4.6-2.7 6.8-2.7 2.9 0 5.3 1.1 8.6 2.6 4.6 2.1 10.2 4.7 18.5 4.7 7.1 0 12.4-3.5 16.6-6.3 5.1-3.4 8.4-5.6 14.6-3.7-.5-6-.9-11.2-1.3-15.2-9.7-1.1-16.3 3.3-21.4 6.7-3.6 2.4-6 3.9-8.5 3.9-5 0-8.4-1.6-12.4-3.4-4.1-1.9-8.6-3.9-14.7-3.9-6.4 0-10.6 2.6-14.4 4.8-3.7 2.2-7.5 4.5-15.1 5.5-13.6 1.8-25.3-6.6-25.4-6.7-1.6-1.2-3.6-1.6-5.6-1.3l-35.9 6.1-8.6 16.3c22-3.7 42-7.1 44.3-7.5z"/><path class="st1" d="M667.9 542.2c-8.9 0-12.2 5.7-14 8.8-1.2 2.1-1.2 2.1-2.6 2.2-2.1.1-4.5-1.7-8.1-4.7-4.6-3.8-10.3-8.5-18.4-8.5-8 0-13.6 4.7-18.5 8.8-4.1 3.4-7.6 6.3-11.9 6.6-4.6.3-8-2.1-12-4.9-4.5-3.1-9.7-6.6-16.6-6.1-6.4.5-11.3 3.5-15.7 6.2-3.5 2.2-6.5 4-9.4 4-3.2 0-12.8-3.2-23.7-7.3l-1.9 3.7s-.5 4-1.2 10.8c10.3 3.9 21.3 7.5 26.8 7.5 7 0 12.3-3.3 17-6.2 3.4-2.1 6.3-3.9 9.1-4.1 1.8-.1 4.4 1.6 7.2 3.6 2.7 1.9 6 2.7 10.1 4.2 1.5.3 3 .7 4.3 1.2 2.1.4 4.4 1 6.8.8 9.2-.5 15.5-4.6 20.5-8.9 3.4-2.9 6.4-5.4 9.1-5.4 2.9 0 5.7 2.4 9.1 5.2 4.6 3.8 10.4 8.6 18.5 8 9-.7 12.4-6.4 14.2-9.4.3-.5.7-1.2 1-1.5h.5c2.5 0 9.2 3.1 16.7 7.6-.4-6.1-.8-11.9-1.1-17.4-8.7-4.2-13.1-4.8-15.8-4.8z"/><path class="st1" d="M653.9 575.6c-.3.6-.7 1.3-1 1.7h-.3c-3.5 0-8.3-3-12.5-5.7-4.9-3.1-9.5-6-14.6-6-6.5 0-10.1 4.9-12.5 8.2-2.6 3.7-3.8 4.9-6.5 4.9-3.3 0-5.6-1.5-9.3-4.1-2.4-1.8-5.3-3.8-8.8-5.2-1.5-.3-2.9-.7-4.3-1.2-1.5-.3-3-.4-4.7-.4-8.6 0-15.9 4.8-21.8 8.7-2.5 1.7-6.7 4.5-8.2 4.5-1.1 0-2.4-1.1-4.5-3-3.5-3.1-8.3-7.2-16-7.2-3.1 0-7.7.9-16.9 6.8-.6 5.8-1.3 12.4-2 19.3.6-.5 1.2-1 1.9-1.4 12.7-9.5 16.7-10.1 17-10.1 2 0 3.4 1.1 6.3 3.6 3.2 2.8 7.5 6.6 14.2 6.6 5.9 0 11.2-3.5 16.2-6.9 4.7-3.1 9.5-6.3 13.7-6.3 3.3 0 5.6 1.5 9.3 4.1 4.3 3 9.6 6.8 17.8 6.8 10.4 0 15.4-6.9 18.4-11 .4-.5 1-1.3 1.4-1.9 1.6.7 4.1 2.3 6 3.5 5.6 3.5 12.5 7.9 20.3 7.9 2.5 0 4.5-.5 6.3-1.2 1.2-1.2 2.7-2.4 4.7-3.3 1.5-1.6 2.5-3.4 3.2-4.8 1.5-2.8 1.7-3.1 4.9-3.1 5.9 0 11 3.2 14.4 5.9-.4-6-.8-12-1.1-17.7-3.9-1.7-8.4-2.9-13.3-2.9-11.8.1-15.6 7.1-17.7 10.9z"/><path class="st1" d="M663.5 587.4c-1.2 1.3-2.7 2.5-4.7 3.3-1 1.1-1.8 2.1-2.4 3-1.3 1.8-1.3 1.8-2.3 1.9-3 .3-7.5-1.6-11.5-3.4-4.6-2-9.4-4-14.2-4-6 0-10.7 3.6-14.8 6.7-3.3 2.4-6.3 4.8-9.1 5-2.6.2-6.8-2.8-10.1-5.3-4.4-3.2-8.9-6.5-14.2-6.5-5.7 0-10.9 3.9-16.4 8.1-2.6 2-7.4 5.6-9.2 5.8-2.3.2-8.5-2.6-12.2-4.3-5.3-2.4-9.9-4.5-14.2-4.5-2.6 0-6.5.7-18.6 8.3-.6 5.9-1.2 12.1-1.7 18.4h.5c8.8-6.1 17.3-11.1 20.1-12 1.6.3 5.3 2 7.9 3.1 6.6 3 13.5 6.1 19.7 5.5 5.9-.5 11.4-4.7 16.6-8.7 2.2-1.7 5.9-4.5 7.5-5 1.2.4 3.8 2.3 5.6 3.6 5.3 3.8 11.8 8.6 19.9 8 7.1-.5 12.5-4.6 16.8-7.9 1.8-1.3 5-3.8 6-3.8 1.8 0 5.4 1.5 8.5 2.8 5.6 2.3 11.8 5 18.4 4.5 7.7-.7 11.1-5.4 12.9-7.9.4-.5.9-1.3 1.2-1.5h.7c2.9 0 10.5 3.9 17.4 8.4l-1.2-17.7c-8.9-4.8-13.5-5.4-16.3-5.4-2.6.2-4.8.7-6.6 1.5z"/><path class="st2" d="M679.6 506.3c-3.7-11-82.6-6.6-82.6-6.6l-62.2 13.9-19.7 37.4s-3.9 32.6-7.2 69.1l179.9-7.6c-3.4-50.1-6-99.8-8.2-106.2z"/><path class="st8" d="m569.2 519.5 117.7-11.7s.1-6.3 0-16.3l-141.3 8.9 23.6 19.1zM685.1 454.9l-180.2 12.8 17.8 14.3 163.5-11.5c-.3-4.9-.7-10.2-1.1-15.6z"/><circle class="st3" cx="518" cy="496.5" r="63.3"/><circle class="st2" cx="518.4" cy="496.8" r="48.6"/><path class="st8" d="M497.5 793s-25.6-2.9-30.7 2.2c-5.1 5.1 2.2 11 2.2 11l28.5 4.4 7.3-5.1-7.3-12.5z"/><path class="st8" d="M525.3 789s-9.5-15-20.5-10.6c-9.7 3.9-7.3 14.6-7.3 14.6l15.4 18.3 14.6-4.4-2.2-17.9z"/><path class="st2" d="M507.8 798.1s11-6.6 4.4-11-9.5 8-9.5 8l5.1 3z"/><path class="st6" d="M519.5 798.9s0-78.3 3.7-91.4c3.7-13.2 32.2-24.9 43.9.7 11.7 25.6-2.2 78.3 4.4 96.5-5.9 13.2-16.1 19-16.1 19l-20.5-7.3-17.6-9.5 2.2-8z"/><path class="st8" d="M493.9 798.1c-.7-3.7 5.9-9.5 9.5-7.3 3.7 2.2 11.7 9.5 11.7 13.2 0 3.7-5.1 5.1-5.1 5.1-4.4 1.5-15.4-7.3-16.1-11z"/><path class="st6" d="M504.8 805.5s-32.9-.7-35.8.7-4.4 6.9.7 9.1c-5.1.7-5.9 6.2-.7 8.4-5.9 2.2-2.9 8 0 9.5s11.7 6.6 11.7 6.6l47.5 1.5 13.9-11-11-16.1-19-10.2-7.3 1.5z"/><path class="st2" d="m469.7 815.7 20.5-1.1M469 823.7h19"/><path class="st3" d="M519.5 798.9s2.2 6.6 11 9.5c8.8 2.9 41-3.7 41-3.7l2.9 30-32.2 5.1-13.9-5.9s.4-8 .4-12.4-12.1-5.1-17.9-14.6c-1.6-5.8 8.7-8 8.7-8z"/><path class="st3" d="M574.3 834.7s1.5 6.6-1.5 10.2c-2.9 3.7-103.5 2.6-105.7-.4-2.2-2.9-1.8-10.6 1.8-11.3 3.8-.7 105.4 1.5 105.4 1.5z"/><path class="st8" d="M595.5 795.8s-25.6-2.9-30.7 2.2c-5.1 5.1 2.2 11 2.2 11l28.5 4.4 7.3-5.1-7.3-12.5zM623.3 791.7s-9.5-15-20.5-10.6c-9.7 3.9-7.3 14.6-7.3 14.6l15.4 18.3 14.6-4.4-2.2-17.9z"/><path class="st2" d="M605.8 800.9s11-6.6 4.4-11-9.5 8-9.5 8l5.1 3z"/><path class="st6" d="M617.5 801.6s0-78.3 3.7-91.4c3.7-13.2 32.2-24.9 43.9.7 11.7 25.6-2.2 78.3 4.4 96.5-5.9 13.2-16.1 19-16.1 19l-20.5-7.3-17.6-9.5 2.2-8z"/><path class="st8" d="M591.9 800.9c-.7-3.7 5.9-9.5 9.5-7.3 3.7 2.2 11.7 9.5 11.7 13.2 0 3.7-5.1 5.1-5.1 5.1-4.4 1.4-15.4-7.4-16.1-11z"/><path class="st6" d="M602.8 808.2s-32.9-.7-35.8.7c-2.9 1.5-4.4 6.9.7 9.1-5.1.7-5.9 6.2-.7 8.4-5.9 2.2-2.9 8 0 9.5s11.7 6.6 11.7 6.6l47.5 1.5 13.9-11-11-16.1-19-10.2-7.3 1.5z"/><path class="st2" d="m567.7 818.4 20.5-1.1M567 826.5h19"/><path class="st3" d="M617.5 801.6s2.2 6.6 11 9.5c8.8 2.9 41-3.7 41-3.7l2.9 30-32.2 5.1-13.9-5.9s.4-8 .4-12.4-12.1-5.1-17.9-14.6c-1.6-5.8 8.7-8 8.7-8z"/><path class="st3" d="M672.3 837.4s1.5 6.6-1.5 10.2c-2.9 3.7-103.5 2.6-105.7-.4-2.2-2.9-1.8-10.6 1.8-11.3 3.8-.6 105.4 1.5 105.4 1.5zM690.7 651.2l-185.8 7.7c-.7 11-1.2 21.4-1.3 30.3l189.8-8.6c-1-9-1.8-18.9-2.7-29.4z"/><path class="st2" d="m507.8 658.5 24.8 35.8M522.4 658.5l24.9 35.8M536.3 656.3l24.9 35.8M555.3 657.7l24.9 35.9M572.9 656.3l24.8 35.8M589 654.1l24.8 35.8M606.5 653.3l24.9 35.9M624.8 652.6l24.8 35.8M643.1 651.1l24.8 35.9M662.8 647.5l24.9 35.8M504.8 672.4l16.1 24.8"/><path class="st8" d="m687.8 612.5-179.9 7.6c-1.2 12.9-2.2 26.2-3 38.8l185.8-7.7c-1-12.4-2-25.6-2.9-38.7zM503.6 689.2c-.1 7.9 0 14.6.5 19.7 27.1 3.7 192.3-4.4 192.3-4.4-1.1-6.5-2.1-14.7-3.1-24l-189.7 8.7z"/><path class="st2" d="m508.5 641.6 179.9-9.5"/></svg>