<svg version="1.1" id="Calque_1" xmlns="http://www.w3.org/2000/svg" x="0" y="0" viewBox="0 0 900 900" style="enable-background:new 0 0 900 900" xml:space="preserve"><style>.st0,.st1,.st2,.st4,.st5{fill:#ffce00;stroke:#000;stroke-width:5.86;stroke-linecap:round;stroke-linejoin:round;stroke-miterlimit:10}.st1,.st2,.st4,.st5{fill:none}.st2,.st4,.st5{fill:#fff}.st4,.st5{fill:#0068ff}.st5{fill:red}</style><g id="XMLID_66_"><g id="XMLID_64_"><path id="XMLID_38_" class="st0" d="M239.3 690.9c-5.3 3.9-22.9 117-18.2 124.6 4.7 7.6 218.2 25.8 229.9 18 11.7-7.8 2-125.8 2-125.8S244.6 687 239.3 690.9z"/><g id="XMLID_39_"><path id="XMLID_47_" class="st0" d="m254.5 712.6-2.1-.2-6.6 50.8 30.6-16.4z"/><path id="XMLID_48_" class="st0" d="m309 752.3-21.8-36.2-32.7-3.5 21.9 34.2-30.6 16.4-4.5 35 39.6 3.5-14.4-23.8z"/><path id="XMLID_49_" class="st0" d="m338.5 757.9-27.1-39.2-24.2-2.6 21.8 36.2-42.5 25.6 14.4 23.8 25.2 2.3-8.8-21.3z"/><path id="XMLID_50_" class="st0" d="m396 812.2 37.3 3.4v-46.3l-46.1 28.9z"/><path id="XMLID_51_" class="st0" d="m409.1 729.2 24.2 40.1v-37.4z"/><path id="XMLID_52_" class="st0" d="m375.5 725.7 28.1 39.5-47.3 28.7 8.2 15.6 31.6 2.9-9-14.1 46.3-28.7-24.2-40-33.7-3.9z"/><path id="XMLID_53_" class="st0" d="m403.4 765-28.1-39.5-34.2-3.7 28.3 41-40.2 26.8 6.8 17 28.3 2.5-8.2-15.6 47.3-28.5z"/><path id="XMLID_54_" class="st0" d="m369.6 763-28.3-41-29.9-3.3 27.1 39.2-41.2 24.8 8.8 21.3 29.9 2.8-6.8-17.2z"/></g><g id="XMLID_62_"><path id="XMLID_45_" class="st1" d="M254.5 712.6 288 765"/><path id="XMLID_43_" class="st1" d="m319 768.9-31.8-52.8"/><path id="XMLID_41_" class="st1" d="m414.1 780-38.6-54.3"/><path id="XMLID_42_" class="st1" d="m311.4 718.7 39.1 56.6"/><path id="XMLID_40_" class="st1" d="m381.3 780-40-58"/></g></g><g id="XMLID_61_"><g id="XMLID_31_"><g id="XMLID_35_"><path id="XMLID_37_" class="st0" d="m627.8 759.3-63.7-50.2-50.8 15s10.4 21.5 10.4 30.7-6.4 7.8-11.1 17c-4.5 9.2-3.9 24.8 6.4 29.9 10.4 5.3 37.5-3.3 54.7.6 11.9 2.7 28.1 17.2 38.3 27.3l56.6-40c-14.4-10.8-40.8-30.3-40.8-30.3z"/><path id="XMLID_36_" class="st2" d="M676.1 795c-1.8-1.2-4.3-3.1-7.2-5.5l-56.6 40c4.5 4.5 7.8 8.2 9.2 9.8 4.5 5.3 20.9.6 15-8.4 7.2 5.9 18.2-2 14.3-10.4 7.2 5.3 20.9-3.9 13.1-11.7 8.9 5.2 22.2-6.3 12.2-13.8z"/></g><path id="XMLID_34_" class="st1" d="m663.8 808.7-17.8-15"/><path id="XMLID_33_" class="st1" d="m633.1 802.9 17.6 17.5"/><path id="XMLID_32_" class="st1" d="m636.4 830.8-18.9-15.2"/></g><g id="XMLID_22_"><g id="XMLID_26_"><path id="XMLID_27_" class="st0" d="m568.1 767.7-63.9-50.2-44.9 13.1s6.4 25.4 6.4 34.6-8.4 5.9-13.1 15c-4.5 9.2-3.9 24.8 6.4 29.9 10.4 5.3 37.5-3.3 54.7.6 11.9 2.7 28.1 17.2 38.3 27.3l56.6-40c-14.2-10.8-40.5-30.3-40.5-30.3z"/><path id="XMLID_28_" class="st2" d="M616.3 803.4c-1.8-1.2-4.3-3.1-7.2-5.5l-56.6 40c4.5 4.5 7.8 8.2 9.2 9.8 4.5 5.3 20.9.6 15-8.4 7.2 5.9 18.2-2 14.3-10.4 7.2 5.3 20.9-3.9 13.1-11.7 8.9 5.2 22.2-6.1 12.2-13.8z"/></g><path id="XMLID_29_" class="st1" d="m604 817.1-17.8-14.8"/><path id="XMLID_30_" class="st1" d="m573.3 811.3 17.6 17.5"/><path id="XMLID_25_" class="st1" d="m576.7 839.4-19-15.3"/></g></g><g id="XMLID_60_"><path id="XMLID_12_" class="st2" d="M368.2 300.8s-86 82-98.3 177.8 9.2 153.7 43 199.8c33.8 46.3 97.7 80.1 172.5 64.5 74.8-15.6 51.8-261.2 51.8-261.2l-71.7-178.2-97.3-2.7z"/><g id="XMLID_59_"><path id="XMLID_19_" class="st2" d="M368.2 300.8s-30.1 28.7-57.2 72.1c27.9 11.3 116.6 44.5 110 157.8-5.7 96.9 18.9 161 63.1 204.7s98.3 48.4 144.6 28.3c-13.7-28.3-45.5-120.5-33.8-209 11.7-88.5 22.9-149-32.6-179.9-40.2-22.5-64.1-10.7-77-21.9-12.9-11.1-52.9-63.9-52.9-63.9l-64.2 11.8z"/><path id="XMLID_24_" class="st1" d="M361.8 376.2s78.7 35.9 85.6 103.5c6.8 67.6-4.9 125 31.1 208.4s143.2 58.6 143.2 58.6"/></g></g><path id="XMLID_10_" class="st0" d="M359.1 298.9s5.9 30.1 37.7 36.5c31.8 6.4 65-2.5 65-2.5l-40.2-51.6-62.5 17.6z"/><path id="XMLID_7_" class="st0" d="m481 175.2 20.1 27.3v23.6l20.7 38.9s-7.2 2.7-5.9 11.7c2 11.7 5.9 7.8 9.8 15 3.9 7.2 1.2 15-3.9 15 5.9 5.9 3.5 17-3.9 19.5s-16.2-2-16.2-2 6.4 16.2 2.5 22.9c-3.9 6.4-7.2 9.8-20.1 9.8-13.1 0-81.5-43-86.5-56.6-5.1-13.7-29.9-29.9-29.9-29.9l-8.4-73.1 114.5-32.8 7.2 10.7z"/><path id="XMLID_6_" d="m374.7 298.9 25.4-3.9s-14.3-59.8-8.4-82.2c5.9-22.5 28.7-29.3 28.7-29.3s90.2-44.1 80.7 33.4c36.1-39.1-29.3-77.6-76.8-70.9-47.5 6.4-65 51.4-65 51.4l15.4 101.5z" style="fill:#353535;stroke:#000;stroke-width:5.86;stroke-linecap:round;stroke-linejoin:round;stroke-miterlimit:10"/><path id="XMLID_11_" class="st1" d="M521.8 306.7c-6.4-2.9-24.6-5.9-24.6-5.9"/><path id="XMLID_21_" class="st4" d="M575.3 291.6c-4.5 3.3-4.5 18.4 2 18.8 6.4.4 17.6-1 29.9-1-13.1 5.1-9.2 17.8 3.3 22.1 12.5 4.3 21.5-4.5 25.4-13.7 3.9-9.2-5.9-25.4-14.3-27.9-8.6-2.8-41.8-1.4-46.3 1.7z"/><path id="XMLID_23_" class="st1" d="M607.1 309.4c10.4-2.7 16.2 5.1 16.2 5.1"/><g id="XMLID_55_"><path id="XMLID_3_" class="st0" d="M502.4 261.2s-7.2 7.2-3.9 12.3c3.3 5.3 20.3 4.1 25.4 6.4 6.4 3.3 17-2 12.3-13.1-4.5-11.1-24.4-36.1-29.3-42.4s1.8-16.2-2-25.8c-3.7-9.4-18.2-27-20.9-27.7l-27 4.9"/><g id="XMLID_46_"><path id="XMLID_5_" class="st4" d="M356.1 187.1s96.7-19.1 102-32.2S462.6 50 469.8 50c7.2 0 58 115.8 51.4 122.5-6.4 6.4-135 21.3-165.1 36.5-30.1 15.2 0-21.9 0-21.9z"/><g id="XMLID_44_"><path id="XMLID_9_" class="st5" d="M311.6 144.5c-3.9 19.5 7.2 33.8 12.3 60.6 5.3 26.8 2 109.4 2 109.4l54.7-7.8s-12.3-64.5-16.2-109.6c-3.3-37.3.4-50-3.9-61.7-4.4-11.8-45-10.4-48.9 9.1z"/><path id="XMLID_13_" class="st1" d="m335.6 152.9 18.6 157.5"/><path id="XMLID_14_" class="st5" d="M314.1 188.1c-5.9 8.4-3.9 20.1 7.2 24.8 11.1 4.7 49.4-2 49.4-6.4 0-4.5 2.5-14.5-3.3-18.2-5.8-3.7-47.4-8.6-53.3-.2z"/></g></g></g><g id="XMLID_57_"><path id="XMLID_18_" class="st2" d="m341.3 328.2-103.9 40.4s19.9 19.5 39.1 22.1c19.1 2.7 34.6-3.1 34.6-3.1l42.6-45.7-12.4-13.7z"/><path id="XMLID_20_" class="st1" d="M256.9 361.8c13.7 20.5 49.2 13.3 49.2 13.3"/><g id="XMLID_56_"><path id="XMLID_15_" class="st2" d="M341.3 341.8s-27 15.6-40 37.9c-13.1 22.1-22.3 59.8-22.3 59.8s49.6-9.2 62.1-27.3c12.5-18.2 25-55.3 25-55.3l-24.8-15.1z"/><path id="XMLID_8_" class="st1" d="M311 428.4s-2.5-24 3.9-41 30.9-34.6 30.9-34.6"/><path id="XMLID_16_" class="st2" d="M341.3 328.2c-7.4 0-16 13.7-12.1 19.5 3.9 5.9 21.5 2.9 22.1 9.2.6 6.3-17.6 15.6-17.6 25.4 0 9.8 4.5 15.6 15.6 15.6s35.2-26.8 28.7-45.5c-6.6-19-29.3-24.2-36.7-24.2z"/></g></g><g id="XMLID_65_"><path id="XMLID_4_" class="st2" d="M440.5 227.8s32.6-9.4 41.6-6.6c9.2 2.7 12.3 11.9 9.2 15.2-3.1 3.3-27 4.1-33.8 1.4-7-3-17-10-17-10z"/><circle id="XMLID_17_" cx="471.8" cy="230.1" r="6.3" style="stroke:#000;stroke-width:5.86;stroke-linecap:round;stroke-linejoin:round;stroke-miterlimit:10"/></g></g></svg>