<svg version="1.1" id="Calque_1" xmlns="http://www.w3.org/2000/svg" x="0" y="0" viewBox="0 0 900 900" style="enable-background:new 0 0 900 900" xml:space="preserve"><style>.st0,.st1,.st2,.st3,.st4,.st5{fill:#fff;stroke:#000;stroke-width:4.2773;stroke-linecap:round;stroke-linejoin:round;stroke-miterlimit:10}.st1,.st2,.st3,.st4,.st5{fill:#9b4c0b}.st2,.st3,.st4,.st5{fill:none}.st3,.st4,.st5{fill:red}.st4,.st5{fill:#ffce00}.st5{fill:#00a552}.st6{fill:#743908}.st6,.st7{stroke:#000;stroke-width:4.2773;stroke-linecap:round;stroke-linejoin:round;stroke-miterlimit:10}.st8{fill:#fff}.st9{fill:red}</style><g id="XMLID_131_"><g id="XMLID_129_"><g id="XMLID_122_"><path id="XMLID_123_" class="st0" d="M647.6 342c1.4 2 7.8 3.6 13 4.6 0-1.3-.6-2.7-1.3-3.8-.7-1.3-5.8-3.6-12.5-6.1-.3 1.9-.2 3.9.8 5.3z"/><path id="XMLID_180_" class="st0" d="M626.2 324c.9 1.1 8.8 2.4 14.4 4.1-.1-.7-.3-2.7-.6-3.3-1.9-3.4-10-4.8-13.8-6-.4 2.2-.5 4.5 0 5.2z"/><path id="XMLID_181_" class="st1" d="M647.6 342c-1-1.4-1.1-3.4-.9-5.4-2.1-.9-4.3-1.6-6.6-2.4.4-1.6.7-4.6.4-6-5.6-1.7-13.5-3-14.4-4.1-.6-.7-.4-3 .1-5.1-3.4-1.3-6.7-2.3-9.3-3-7.1-1.9-18-1.4-24.5 1.4-6.7 2.9-20.4 5.3-20.4 5.3s-26.8 8-40.5 6.1c-13.7-1.9-34.4-9.4-34.4-9.4L489 325l8.1 26.4 77.6-4.4s6.4 6.3 20.4 6.3c14 0 23.8-11.8 23.8-11.8s28.9 10 35.6 10c4.4 0 6-2.1 5.8-4.7-4.9-1.2-11.3-2.8-12.7-4.8z"/></g><g id="XMLID_125_"><path id="XMLID_130_" class="st1" d="M623.8 429c-1.1-1.9.4-4.6 2.3-6.7-5.7-3.8-11.1-8.7-11.1-8.7s3.3-.4 5.8-1.7c-4.4-4.7-12-13.4-12-15.7 0-1.4 1.6-3 3.3-4.6-6.6-7.1-14.1-12.7-18.2-14.1-8.3-2.9-18.4 3.3-18.4 3.3s-10.4-4.7-25.1-8.3c-14.7-3.6-48.8-26.4-48.8-26.4l5.7 41.8s11-.7 20.5 2.4 36.4 7.7 42.1 10.7c5.7 3-1.4 18 8.6 26.1 12.5 10.1 27.8-6.7 27.8-6.7s20.4 21.4 26.1 21.4c2.6 0 4.7-1.1 6.1-2.6-6-3.5-13.6-8.1-14.7-10.2z"/><path id="XMLID_179_" class="st0" d="M623.8 429c1.3 2.1 8.7 6.7 14.7 10.3 1.7-1.9 2.3-4.6.9-6.7-1.3-2-7.6-6.4-13.3-10.3-1.9 2.1-3.4 4.8-2.3 6.7z"/><path id="XMLID_182_" class="st0" d="M608.8 396.2c0 2.3 7.6 10.8 12 15.7 1.7-.9 3-2.1 3-3.8 0-2.3-5.3-9.4-11.7-16.3-1.8 1.4-3.3 3-3.3 4.4z"/></g><path id="XMLID_178_" class="st2" d="M595.3 328.9s4.1-6.3 14.5-4c5.7 1.3 19.2 5.4 30.8 9.6"/><path id="XMLID_124_" class="st2" d="m592 394.9 22.8 18.7"/></g><path id="XMLID_171_" class="st3" d="M348.6 499.5s-10.8 15.4-20.1 15.4-10.3-9.7-10.3-9.7-13.5 11.1 0 22.5c-13.4 15-27.8 9.1-27.8 9.1s-6 17.3 12.8 17.7c-13.5 24.8-26.4 17.4-26.4 17.4s-6.4 12.8 11.4 14c-3.6 19-22.1 22.5-22.1 22.5s-.4 9.7 14.7 8.6c-5.4 25.1-24 29.4-24 29.4s-1.4 13.3 15 10.4c.4 25.7-15 33.2-15 33.2s.4 11.8 13.3 4.3c-5 19.2-3.6 20.8-3.6 33.2h33.9s-9.3-18.5-3.6-35.4c6.8 11.1 13.5 6.8 13.5 6.8s-11.8-22.1-6.1-39.2c5.4 8.6 13.5 7.8 13.5 7.8s-16.4-22.4-5-41.1c7.6 10 15.4 7.6 15.4 7.6s-13.7-19.2-6.1-41.1c5.7 9.3 15 7.6 15 7.6s-12.8-33.2 4.7-44.9c0 9 4 10.8 12.5 10.7 3.1-29.5 24.7-35.4 24.7-35.4s-8.1 11.4 3.4 20c6.4-16.8 28.7-21.1 28.7-21.1s2.7 8-12.3 20.4c5 10.7 17.8.4 17.8.4-3.1 24-19 32.8-19 32.8s15 9 23.8-14c0 27.8-25.9 44.1-25.9 44.1s10.1 13 25.9-4.8c-3.4 29.9-25.9 31.4-25.9 31.4s2.6 16.1 23.1 1.9c-3.1 26.1-22.8 29.9-23.1 30.4-.3.4 10.4 14 22.8-4.3-6.4 27.8-22.8 37.8-22.8 37.8s7.8 8.3 22.1-8.3c-1.1 21.1-14.7 29.9-14.7 29.9l113.2 2.9s-34.1-13.5-40.5-38.9c9.7 12.5 18.2 1.9 18.2 1.9s-16.8-11.8-18.5-36.1c9.3 16.4 20.4 7.8 20.4 7.8s-16.7-17.1-13.5-33.9c5.1 11.4 16.4 5 16.4 5s-18.5-17.5-15-38.9c6 9.7 15 1.1 15 1.1s-13.7-14-10.1-31.1c4.3 3.6 11.5-4.3 11.5-4.3s-9.1-9.7-11-20 0-18.5 0-18.5 20.1 12.8 29.4 17.4c9.3 4.6 9.3 16.1 9.3 16.1s7.1-1.4 10-14.3c11.4 13.5 1.4 30.4 1.4 30.4s14-2.9 15.4-14.3c8.1 27.5-9.3 41.8-9.3 41.8s12 6.4 19.5-10.4c4.3 27.5-14.5 39.2-14.5 39.2s15.7 9 23.5-9.7c-3.6 33.2-24 45.6-24 45.6s7.8 11.1 19.2-5.4c0 27.8-19.2 42.1-19.2 42.1s9.3 5.7 21.1-6.8c1.4 18.5-9.3 27.1-9.3 27.1l36.8-.4s6.8-8.3 1.4-21.4c0 0 8.3 5 13.3-2.6-9.7-6.4-14.7-27.8-14.7-27.8s10 5.7 13.3-4.7c-14-7.6-17.1-26.4-17.1-26.4s9 9.3 15 .4c-13.5-12.8-12.8-29.2-12.8-29.2s9 6.4 16.4-2.9c-16.4-6.4-20.7-32.8-21.8-32.8-1.1 0 17.8 8.6 16.1-7.6-19-3.3-22.5-19.7-22.5-19.7s14-.4 8.6-17.1c-7.1 2.6-13.8 2.1-21.1-.4s-13.1-7.1-13.1-7.1L496 473.7l-112.1 3-35.3 22.8z"/><path id="XMLID_328_" class="st1" d="M266.6 727.4h33.9s-9.3-18.5-3.6-35.4c6.8 11.1 13.5 6.8 13.5 6.8s-11.8-22.1-6.1-39.2c5.4 8.6 13.5 7.8 13.5 7.8s-16.4-22.4-5-41.1c7.6 10 15.4 7.6 15.4 7.6s-13.7-19.2-6.1-41.1c5.7 9.3 15 7.6 15 7.6s-12.8-33.2 4.7-44.9c0 9 4 10.8 12.5 10.7 3.1-29.5 24.7-35.4 24.7-35.4s-8.1 11.4 3.4 20c6.4-16.8 28.7-21.1 28.7-21.1s2.7 8-12.3 20.4c5 10.7 17.8.4 17.8.4-3.1 24-19 32.8-19 32.8s15 9 23.8-14c0 27.8-25.9 44.1-25.9 44.1s10.1 13 25.9-4.8c-3.4 29.9-25.9 31.4-25.9 31.4s2.6 16.1 23.1 1.9c-3.1 26.1-22.8 29.9-23.1 30.4s10.4 14 22.8-4.3c-6.4 27.8-22.8 37.8-22.8 37.8s7.8 8.3 22.1-8.3c-1.1 21.1-14.7 29.9-14.7 29.9l113.2 2.9s-34.1-13.5-40.5-38.9c9.7 12.5 18.2 1.9 18.2 1.9s-16.8-11.8-18.5-36.1c9.3 16.4 20.4 7.8 20.4 7.8s-16.7-17.1-13.5-33.9c5.1 11.4 16.4 5 16.4 5s-18.5-17.5-15-38.9c6 9.7 15 1.1 15 1.1s-13.7-14-10.1-31.1c4.3 3.6 11.5-4.3 11.5-4.3s-9.1-9.7-11-20c-1.9-10.3 0-18.5 0-18.5s20.1 12.8 29.4 17.4c9.3 4.6 9.3 16.3 9.3 16.3s7.1-1.4 10-14.3c11.4 13.5 1.4 30.4 1.4 30.4s14-2.9 15.4-14.3c8.1 27.5-9.3 41.8-9.3 41.8s12 6.4 19.5-10.4c4.3 27.5-14.5 39.2-14.5 39.2s15.7 9 23.5-9.7c-3.6 33.2-24 45.6-24 45.6s7.8 11.1 19.2-5.4c0 27.8-19.2 42.1-19.2 42.1s9.3 5.7 21.1-6.8c1.4 18.5-9.3 27.1-9.3 27.1l36.8-.4-331.7 4.4z"/><path id="XMLID_151_" class="st0" d="M324.7 440.4s-11.4 40.3 14 58.5 64.9 18.5 91.2 5 39.2-66.6 39.2-66.6l-30.4-61-97 20-17 44.1z"/><g id="XMLID_271_"><g id="XMLID_202_"><g id="XMLID_142_"><path id="XMLID_293_" class="st0" d="M441 441.8c-.6-12.4-2.3-29.9-2.3-29.9l-14.4-5.4.9 37.5c7-.5 12.1-1.3 15.8-2.2z"/><path id="XMLID_297_" class="st0" d="m425.2 443.9.1 6.4c2 8.1 15.8 9.6 15.8-1.6 0-2-.1-4.4-.1-7-3.7 1-8.8 1.8-15.8 2.2z"/><path id="XMLID_298_" class="st0" d="M409.6 444.4V401l-7.7-2.9-6.8 7.6-.3 38.4c4.3.1 9.1.3 14.8.3z"/><path id="XMLID_299_" class="st0" d="M394.8 443.9v4.7c.4 9.1 10.6 12.3 14.8.1v-4.6c-5.7.3-10.5.1-14.8-.2z"/><path id="XMLID_309_" class="st0" d="m395.2 405.6-13.5 14.8s-1.4 12.7-2.3 22c3.4.6 8.3 1.1 15.4 1.6l.4-38.4z"/><path id="XMLID_310_" class="st0" d="M379.4 442.5c-.3 3.1-.4 6-.4 7.7 0 7 13 8.4 15.8-1.4v-4.7c-7-.4-12-1-15.4-1.6z"/><path id="XMLID_311_" class="st0" d="M409.6 444.4v4.6c.9 9.7 12.5 15 15.7 1.4l-.1-6.4c-4.4.2-9.6.4-15.6.4z"/><path id="XMLID_312_" class="st0" d="m425.2 443.9-.7-37.5-14.7-5.6v43.3c5.8.3 11 .1 15.4-.2z"/></g><g id="XMLID_141_"><path id="XMLID_145_" class="st2" d="m433 437.2.5 13.3"/><path id="XMLID_146_" class="st2" d="m418.1 438.5.4 13.1"/><path id="XMLID_147_" class="st2" d="M402.4 438.5v12.7"/><path id="XMLID_148_" class="st2" d="m386.7 438.5-1 11.7"/></g></g><g id="XMLID_136_"><path id="XMLID_137_" class="st0" d="M383.8 426.8c0 8.6 14.1 7.8 17.1 1.4 1.1 7.8 12.4 6.1 14 1.4.6 7.1 10 4.3 11.8 0 3.1 5.4 15.7 1 16.4-5 .7-6-1.9-16.8-1.9-16.8l-34.2 2.6-16.5-4.3c-.1.1-6.7 12.2-6.7 20.7z"/><path id="XMLID_139_" class="st2" d="m400.9 428.3 2.9-19.4"/><path id="XMLID_138_" class="st2" d="m414.9 429.7.4-19.8"/><path id="XMLID_140_" class="st2" d="m426.6 429.7-1.3-18.1"/></g></g><path id="XMLID_117_" class="st3" d="M379.3 403.6s13.5 18 40.9 16.8c27.4-1.1 42.5-22.8 42.5-22.8l-12.8-15-43.5 2.1-19.5-.4-7.6 19.3z"/><g id="XMLID_105_"><path id="XMLID_121_" class="st4" d="M476.2 398.9c16.4 3.8 31.5-.1 40.8-3.8-1.6-4-2.9-8.1-3.6-11.8-8.3 3-24.1 7.3-35.1 1.7-15.4-7.8-19.2-53.9-20.4-56l-4.6-11.1-6.8 3.6-4.3 5.7 4.6 9.3c.5 1.2 2.5 56.1 29.4 62.4z"/><path id="XMLID_114_" class="st1" d="M478.4 384.8c11 5.6 26.8 1.1 35.1-1.7 0-.4-.1-.7-.1-1.1-3.6-22.1-8-53.2-16-66s-20.1-10.8-20.1-10.8l-23.8 12.5 4.6 11.1c1 2.2 4.7 48.3 20.3 56z"/></g><g id="XMLID_61_"><path id="XMLID_198_" class="st1" d="M368.2 380.5c6.8-8.1 11.1-36.4 12.8-49.2-7.7-19.7-5.7-65.9-5.7-65.9l-22.1 9.4-7.8 12s-6.1 39.9-16.1 78.1c-1.9 7.3-4.1 14.3-6.4 20.7 16.6 1.2 39.6 1.6 45.3-5.1z"/><path id="XMLID_200_" class="st4" d="M370.6 400.5c10.6-10.6 16.8-48.8 17.4-60.5-.4-.1-.9-.4-1.3-.6-2.4-1.3-4.3-4.1-5.7-8-1.7 12.8-6 40.9-12.8 49.2-5.7 6.7-28.7 6.3-45.3 5-2 5.6-4.1 10.8-6.3 15.7 20.5 3 42.7 10.3 54-.8z"/><g id="XMLID_208_"><path id="XMLID_209_" class="st3" d="m327 402.3-3.3 11.8c5.1.4 10.3.7 15.3.9l1.6-12.4c-4.5.1-9.1 0-13.6-.3z"/><path id="XMLID_210_" class="st3" d="m340.4 402.7-1.6 12.4c5.3.1 10.3-.1 15-.6l-1.6-12.8c-3.6.5-7.6.9-11.8 1z"/><path id="XMLID_211_" class="st3" d="M316.5 401.2c-1.9 4-3.6 7.8-5.4 11.4 4.1.7 8.3 1.1 12.5 1.6l3.3-11.8c-3.5-.4-6.9-.7-10.4-1.2z"/><path id="XMLID_212_" class="st3" d="M388 340c-.6 11.7-6 46.9-18 55.7-1.1.9-2.6 1.7-4.1 2.4l4.1 13.5c6-1.9 10.4-4.4 12.4-8 7.3-12.1 11.5-49.9 12.5-60.9-1.8-.4-4.1-1.3-6.9-2.7z"/><path id="XMLID_267_" class="st3" d="m352.3 401.6 1.6 12.8c6-.6 11.4-1.6 16-2.9l-4.1-13.5c-3.6 1.7-8.2 2.9-13.5 3.6z"/></g></g><g id="XMLID_109_"><g id="XMLID_106_"><path id="XMLID_107_" class="st1" d="M432 333.2s-31.2 6-32.2 6.7c-.7.4-8.7 12.3-14.1 20.4-.7 3.7-1.6 7.6-2.6 11.1l20.8 26.9h14.4c1.3 0 14.1 7.8 25.5 0 6.4-4.4 11.4-10.3 14.8-14.7-6-10.8-8.8-25-10.3-34.9L432 333.2z"/></g><g id="XMLID_197_"><path id="XMLID_115_" class="st1" d="m431.7 327.3-40.3 4s-1.4 3.8-3.6 9.1c-.6 9.7-2.3 28.5-8.7 40.8 4.4 6.8 11.8 16.4 18.5 19.5 10.3 4.7 23.8 4.6 30.7.4 6.8-4.1 5-8.1 10.4-10.8"/></g></g><g id="XMLID_185_"><path id="XMLID_189_" class="st3" d="M447.7 366.5c-1.1-8.1-4.8-37.4-4.8-37.4l-54.6-1.9v6.7s0 13.7-2.7 27.8c11.4-1 41.2-3.9 62.1 4.8z"/></g><g id="XMLID_241_"><path id="XMLID_242_" class="st4" d="M455.4 155.6V213l5.3-.9v-56.9z"/><path id="XMLID_243_" class="st4" d="M450.1 155.9v57.8l5.3-.7v-57.4z"/><path id="XMLID_244_" class="st4" d="M460.7 155.2v56.9l5.3-.8v-56.5z"/><path id="XMLID_245_" class="st4" d="M444.9 156.4v58.1l5.2-.8v-57.8z"/><path id="XMLID_246_" class="st4" d="M466 154.8v56.5l5.2-.9v-56z"/><path id="XMLID_247_" class="st4" d="M471.2 154.4v56l5.3-.9v-55.6z"/><path id="XMLID_248_" class="st4" d="M410.8 167.6s1.6 29.4 0 30.8l13 11.8v-47.8l-13 5.2z"/><path id="XMLID_249_" class="st4" d="M423.8 162.4v47.7l5.2 4.9v-54.6z"/><path id="XMLID_250_" class="st4" d="M439.6 156.8v58.6l5.3-.9v-58.1z"/><path id="XMLID_251_" class="st4" d="M476.5 153.9v55.6l5.3-.8v-55.2z"/><path id="XMLID_252_" class="st4" d="M429 160.4V215l2 1.8 3.3-.6v-58z"/><path id="XMLID_253_" class="st4" d="m437.3 157.1-3 1.1v58l5.3-.8v-58.6z"/><path id="XMLID_254_" class="st4" d="M481.8 153.5v55.2l4.7-.7.4-.2v-54.7z"/><path id="XMLID_255_" class="st4" d="M547.1 219.8c-1.1-10.7-1.6-19.4-.7-22.2 1.1-3.7 2-14.3 2.6-25.2-2.9-4.6-6.6-8.1-7.6-9.3.9 13.7 1.3 29.4-.3 34.5-1 3.3-1.4 11.8-1.7 21.7l1.6 2.4 6.1-1.9z"/><path id="XMLID_256_" class="st4" d="M529.1 154.2v49.2l5.3 8v-53.3z"/><path id="XMLID_257_" class="st4" d="m523.6 150.2-5 .5v45.9l5-1.7.3.4v-44.8z"/><path id="XMLID_258_" class="st4" d="M541.4 163.1c-.3-.1-.3-.3-.3-.3l-6.6-4.7v53.5l5 7.7c.1-9.8.7-18.4 1.7-21.7 1.5-5.2.9-20.8.2-34.5z"/><path id="XMLID_259_" class="st4" d="M513.3 151.1v47.3l5.3-1.8v-45.9z"/><path id="XMLID_260_" class="st4" d="m547.1 219.8 7.1-2s-4-20.5-1.4-31.2c1.1-4.7-1-9.8-3.8-14.3-.7 11-1.6 21.5-2.6 25.2-.9 2.9-.3 11.6.7 22.3z"/><path id="XMLID_261_" class="st4" d="M523.9 150.5v44.8l5.2 8.1v-49.2z"/><path id="XMLID_262_" class="st4" d="M508 151.5v48.8l5.3-1.9v-47.3z"/><path id="XMLID_263_" class="st4" d="M486.9 153.1v54.7l5.3-1.8v-53.3z"/><path id="XMLID_264_" class="st4" d="M492.2 152.7V206l5.3-2v-51.8z"/><path id="XMLID_265_" class="st4" d="M497.5 152.2V204l5.2-1.9v-50.3z"/><path id="XMLID_266_" class="st4" d="M502.7 151.8v50.3l5.3-1.8v-48.8z"/></g><g id="XMLID_237_"><circle id="XMLID_97_" class="st4" cx="359.2" cy="322.6" r="11.4"/><circle id="XMLID_99_" class="st4" cx="359.6" cy="291.7" r="11.4"/><circle id="XMLID_100_" class="st4" cx="375.3" cy="349.6" r="11.4"/><circle id="XMLID_101_" class="st4" cx="406.2" cy="362.7" r="11.4"/><circle id="XMLID_102_" class="st4" cx="446.6" cy="358.4" r="11.4"/><circle id="XMLID_103_" class="st4" cx="476.2" cy="336.3" r="11.4"/></g><path id="XMLID_98_" class="st5" d="M376.7 267.9s-30.8 63.3 24.4 82.4c48.8 16.8 81.4-41.5 81.4-41.5l-63.4-44.1-26.3-10.7-16.1 13.9z"/><path id="XMLID_85_" class="st5" d="M432 286.4c2.4-.4 47.6 33.2 67.6 33.2s29.9-24.2 29.9-24.2l9.7-16.1-11.4-25.4-42.2 2.1-50.2 10-3.4 20.4z"/><g id="XMLID_236_"><path id="XMLID_62_" class="st1" d="M496.9 127.4s-4.4-21.8-3.1-31.4c1.3-9.6 13.7-13.5 17.7-12.1 4 1.4 6.8 3.3 7.6 7.8s-1.4 7.6-5.4 8.3c-4 .7-5.4-7.6-9-2.9-3.6 4.7 2.9 11.8 9.3 12.5 6.4.7 14.7-2.9 18.2-12.5 3.6-9.7-2.6-25.7-14.7-28.2-16.4-4-36.1 11.8-38.9 19.2s4 39.2 4 39.2h14.3z"/><path id="XMLID_63_" class="st4" d="M485.1 130.3s-2.9-34.2-23-47.1-41.6-13.5-58.5-16.8C386.8 63.1 362.5 50 357.3 50s-8.8 3.6-5.7 9.7c3.1 6.1 49.6 19.7 66.7 21.4s25.1 2.9 35.1 9.1c10 6.3 18.8 40.1 18.8 40.1h12.9z"/><path id="XMLID_64_" class="st5" d="M344.6 79.7c-6.7-4-5-13.7 5.8-11.3 10.7 2.4 29.7 8.4 44.9 9.1 15.3.7 44.1 1.7 61 12.7 17 11 21.2 40.1 21.2 40.1l-9 4S445.4 97.8 430.7 94c-14.7-3.8-29.7-2.9-50.5-5.1s-28.9-5.3-35.6-9.2z"/><g id="XMLID_214_"><path id="XMLID_215_" class="st5" d="M335.4 91.8c-4.3 1.6-4.7 9.3 2 12.1 4.3 1.9 23.1 2.4 41.6 2.9l-.7-12.5c-22.1-.8-38.9-4.1-42.9-2.5z"/><path id="XMLID_216_" class="st3" d="M444.9 97.9c-17.4-7.7-37.4-3.3-61.7-3.6-1.6 0-3.1 0-4.7-.1l.7 12.5c10.6.1 21 .3 28.5.4 20.8.3 53.2 23.2 53.2 23.2l11.5-2.9c-.2 0-10.1-21.9-27.5-29.5z"/></g><g id="XMLID_80_"><path id="XMLID_69_" class="st4" d="M330.4 112.4c-2.1.7-7.4 7.8-.7 12.1s59.6-12.3 71.9-8.6c12.3 3.7 38.9 3.3 38.9 3.3l10 15 10.1-4s-6.7-19.7-24.1-25.9c-14-5-36.8-1.7-52.9 2.3-16.4 4.3-51.1 5.1-53.2 5.8z"/><path id="XMLID_71_" class="st1" d="M337.9 135.5c2.9-2.9 66.7-30.1 87.4-25.9s25.9 17.8 25.9 17.8l-8.1 5s-4.7-8.8-19.7-11.8-72.7 21-80.3 22.8c-7.5 1.8-8-5-5.2-7.9z"/></g></g><g id="XMLID_65_"><path id="XMLID_66_" class="st4" d="M419.2 131.7c0 3.3 7.1 9.1 13 25.4 2.1-.9 14.7-1.9 29.7-3l-4-29.7c-21.2 2.3-38.7 6-38.7 7.3z"/><path id="XMLID_67_" class="st4" d="M529.6 124.6c-.7-1.1-16.5-2.6-36.1-2.4l-1.1 29.8c15.7-1 28.4-1.7 28.4-1.7s10.6-22.5 8.8-25.7z"/><path id="XMLID_68_" class="st4" d="M473.7 122.9c-5.4.3-10.7.9-15.8 1.4l4 29.7c9.8-.7 20.8-1.4 30.7-2l1.1-29.8c-6.6.1-13.3.2-20 .7z"/></g><path id="XMLID_20_" class="st4" d="m440.6 217.2 11.1 51s70.3-6.1 72.4-5c2.1 1.1-1.1 6.1 1.4 9.3 2.6 3.1 19.7 4 21.4-3.3s-7.1-21.8-10.7-31.1c-3.6-9.3 1.1-27.8 1.1-27.8l-13.5-15.7-83.2 22.6z"/><path id="XMLID_41_" class="st3" d="M430.2 151.7c-5 3.3-1.4 14.1-1.4 14.1s20.4-7.7 48.9-8.8c28.5-1.1 50.3 1 50.3 1s4-9.6 0-12.1c-2-1.3-25.7-3.4-49.3-2.1-23.1 1.4-46.1 6.3-48.5 7.9z"/><g id="XMLID_89_"><path id="XMLID_90_" class="st0" d="m526.4 293.9-3.3-7.1h-5s-5.4 0-11 .3l1.4 9.6c8.5-1 17.9-2.8 17.9-2.8z"/><path id="XMLID_91_" class="st0" d="M495.2 288.5c-3.7 1.9-2.6 6.4 1.7 8.3.9.3 2.6.4 4.7.4l-1.4-9.6c-2.3.2-4.2.5-5 .9z"/><path id="XMLID_92_" class="st0" d="M507.3 287c-2.4.1-5 .3-7 .6l1.4 9.6c2 0 4.4-.3 7-.6l-1.4-9.6z"/></g><g id="XMLID_88_"><path id="XMLID_110_" class="st2" d="M420.2 372.7h9.5"/><path id="XMLID_111_" class="st2" d="M390.3 371.2h8.1"/><path id="XMLID_112_" class="st2" d="M406.7 380.9h7.2"/><path id="XMLID_113_" class="st2" d="M402.1 390.9s7-8.3 17 0c-11 5.6-17 0-17 0z"/></g><path id="XMLID_116_" class="st2" d="M438.7 382.6s6.1-1.7 7.6-6.6c.6-1.7.3-4-.3-6.1"/><g id="XMLID_176_"><circle id="XMLID_127_" class="st4" cx="540.5" cy="325.7" r="8.4"/><circle id="XMLID_134_" class="st4" cx="543.5" cy="369.8" r="8.4"/><circle id="XMLID_135_" class="st4" cx="536.7" cy="392.8" r="8.4"/><circle id="XMLID_128_" class="st4" cx="543.5" cy="347.7" r="8.4"/></g><g id="XMLID_177_"><path id="XMLID_126_" class="st5" d="M547.9 319.6s1.6 31.4 6.3 33.6 18.7-4.7 20.7-6.3c2-1.7-.3-29.8-3.3-29.5-3 .4-23.7 2.2-23.7 2.2z"/><path id="XMLID_133_" class="st5" d="M551.9 365.2c-3.4 1.4-8.3 32.8-5 36.4 3.3 3.6 22.2 1.7 23-.4.7-2.1 6.8-21.2 5.6-23.7-1.3-2.4-20.1-13.7-23.6-12.3z"/></g><g id="XMLID_288_"><path id="XMLID_289_" class="st3" d="M421.5 488.1s-4.8-12.4-21.2-20l-7.8 20.4c18.7 3.3 29-.4 29-.4z"/><path id="XMLID_290_" class="st3" d="M355.8 464.2s2.1 11.3 18 18.7l7.8-20.1c-15.4-2.2-25.8 1.4-25.8 1.4z"/><path id="XMLID_313_" class="st0" d="M393.8 465.6c-4.4-1.4-8.6-2.3-12.4-2.9l-7.8 20.1c2.7 1.3 5.8 2.6 9.6 3.6 3.3.9 6.4 1.6 9.3 2.1l7.8-20.4c-1.9-.9-4.1-1.8-6.5-2.5z"/></g><circle id="XMLID_173_" class="st5" cx="451.4" cy="563.8" r="11.5"/><circle id="XMLID_174_" class="st5" cx="454.4" cy="626.4" r="11.5"/><circle id="XMLID_175_" class="st5" cx="451.4" cy="679.2" r="11.5"/><g id="XMLID_319_"><path id="XMLID_331_" class="st3" d="M252.2 773.3c-1.1 7.8-2.4 15.5-3.6 22.7 133.2 5 321.2 4.1 366.3 3.7-.6-7.3-1.4-15-2.1-22.8-48.3.4-229.8 1.2-360.6-3.6z"/><path id="XMLID_332_" class="st4" d="M248.5 796c-4.4 25.8-9.1 45.3-9.1 45.3 7.1 1.9 9.7-4.7 15-5 5.3-.3 7.1 5 13.3 5s6.4-8.3 14.3-7.1c7.8 1.1 7.6 9 14.7 9.7 7.1.7 9.7-9.7 15.4-9.3 5.7.4 5 7.1 14.3 7.6 9.3.4 10.7-9 15.7-7.6 5 1.4 6.4 9 12.8 9.3 6.4.3 7.1-9.7 14.3-8.6 7.1 1.1 3.6 9 12.5 10.4 9 1.4 10-9 19-8.3s5 8.3 12.5 10.4c7.6 2.1 4.1-5.4 12.5-5.7s5 6.4 13.3 6.4 10.4-6.1 18.2-6.4c7.8-.3 8.3 7.8 16.1 7.8s10.7-8.3 17.1-7.6c6.4.7 6.1 6.1 13.5 6.1s10.4-7.1 16.8-6.8c6.4.3 7.6 6.8 14.3 6.4 6.7-.4 8.6-7.8 14.3-7.8 5.7 0 4 6.4 11.1 5.7s9.3-7.6 14.7-8.3 6.8 6.1 12.1 5.4c5.3-.7 9-9.8 13.3-9 4.3.9 6.8 10 18.2 4-.1-4.3-1.1-19.7-2.9-38.4-46 .5-234.1 1.5-367.3-3.6z"/></g><g id="XMLID_183_"><path id="XMLID_345_" class="st6" d="m318 764.2-1.1-16h-18.1s-.7-16.8-1.9-17.1c-1.1-.3-12.8 0-12.8 0l-1-14.5c-16.1-.3-26.1-.1-26.1.9 0 8-.4 16.5-1.1 25.4h13.7l1.4 16.3h16.4l1.3 15.7c14.5.4 29.5.7 44.8 1l-.7-11.4H318v-.3z"/><path id="XMLID_346_" class="st6" d="M331.1 733.1v16.4h27.1v-15.7h19.7v-14.4c-22.1-.7-43.9-1.6-62.7-2.1V733l15.9.1h0z"/><path id="XMLID_347_" class="st0" d="m270.9 758.9-1.4-16.3h-13.7c-.9 10.1-2.1 20.5-3.6 30.7 11.7.4 23.8.9 36.2 1.1l-1.3-15.7h-16.3v.2z"/><path id="XMLID_348_" class="st0" d="M589.9 730.2v18h19.7c-2.6-21-5.4-37.1-8-36.9-2 .1-11.1 1.3-24.8 2.9v16.1l13.1-.1h0z"/><path id="XMLID_349_" class="st1" d="M490.5 732.7v15.4h19.7v-15.4H525v-13.8c-15.3 1.1-31.8 2-48.9 2.4v11.4h14.4z"/><path id="XMLID_350_" class="st1" d="M609.5 748.1h-19.7v-18h-13.3V714c-5.4.6-11.7 1.3-18.5 2v15.7h-14.5v16.4H531v17.1h-16v12.1h33.9v-11.7h12.5v-17.4h14v16.5h14.7v12.4c9.3 0 17-.1 22.8-.1-1.2-10-2.4-19.8-3.4-28.9z"/><path id="XMLID_351_" class="st4" d="M375.3 767.3v-14.7h18.5v-15.4h17.8v-16.7c-11.1-.4-22.5-.7-33.9-1.1v14.4h-19.5v15.7h-27.1v-16.4h-16v-15.7c-12.1-.4-23.1-.6-32.1-.7l1 14.5s11.8-.4 12.8 0 1.9 17.1 1.9 17.1h18.1l1.1 16h14.5l.7 11.4c9 .1 18.1.3 27.1.4v-8.8h15.1z"/><path id="XMLID_352_" class="st3" d="M531.1 765.2v-17.1h12.5v-16.4h14.7V716c-10 1-21.1 2-33.2 2.9v13.8h-15v15.4h-19.7v-15.4h-14.3v-11.4c-12 .3-24.2.4-36.4.1v16h14.7v12.1h18.5v15.3h10.4v12.4h31.8V765l16 .2h0z"/><path id="XMLID_353_" class="st4" d="M575.3 764.6v-16.5h-14v17.4h-12.5v11.7c15.7 0 29.5-.1 41.1-.1v-12.4l-14.6-.1h0z"/><path id="XMLID_354_" class="st4" d="M433.6 765.2v-15.7h-14.4v14.3h-12.8v13c13.7.1 27.1.3 40.3.3v-11.8h-13.1z"/><path id="XMLID_355_" class="st5" d="M473 764.7v-15.4h-18.5v-12.1h-14.7v-16c-1.6 0-3.3-.1-4.8-.1-7.6-.3-15.4-.4-23.4-.7v16.8h-17.7v15.4h-18.5v14.7h-15v8.8c15.4.3 30.8.4 46.1.6v-13h12.8v-14.3h14.4v15.7h13V777c12.5.1 24.8.1 36.8.1v-12.4H473z"/></g><g id="XMLID_187_"><path id="XMLID_188_" class="st0" d="M521.9 234.8H517c.1.6.3 1.1.3 1.7 0 3.1-2.6 5.7-5.7 5.7s-5.7-2.6-5.7-5.7c0-.6.1-1.1.3-1.7h-18.5s-5 18.8 18 17.4c22.9-1.5 16.2-17.4 16.2-17.4z"/><path id="XMLID_190_" class="st0" d="M511.6 242.2c3.1 0 5.7-2.6 5.7-5.7 0-.6-.1-1.1-.3-1.7h-10.8c-.1.6-.3 1.1-.3 1.7 0 3.1 2.4 5.7 5.7 5.7z"/></g><path id="XMLID_186_" class="st4" d="M359.6 291.7s16.7-14 45.3-8.7c28.8 5.3 46.2-14.3 46.2-14.3L441 211.8l-33.1 3.7-25.1 33.6s57.3 4 23.4 7.8c-33.9 4-46.6 34.8-46.6 34.8z"/><g id="XMLID_28_"><path id="XMLID_227_" class="st0" d="M442 215.8c-8.1 1.4-18.5 2.6-28.2-5.7-6.6-5.6-9.6-15.7-11-21.7-2.6 2.7-4.4 4.8-4.4 4.8s-1.3 17.3 12.8 25.7c10.7 6.4 25.4 9.4 40.3 1.1 3.7-2.1 7.6-5.4 11.1-10-2.9-1.1-4.7-2.7-6.4-4.3-5.2 5.4-10.2 9.4-14.2 10.1z"/><g id="XMLID_220_"><path id="XMLID_224_" class="st0" d="M524 186.3a22.8 22.8 0 0 0-4.7-4.6c-11.1-8-31.2-8-45.9 6.7l-.3.3c1.9 1.1 2.4 4.7 4.8 5.4 5.7-4.6 13.8-10 22.5-9 2.7.3 5 .7 7 1.3 17.7 4.7 11.3 18.8 26.4 35.5.7.9 1.6 1.6 2.3 2.3l12.3-6.6c-18.4-10.8-16.3-20.3-24.4-31.3z"/><path id="XMLID_226_" class="st4" d="M519.1 181.6c1.9 1.3 3.4 2.9 4.7 4.6 8.1 11 7.3 24.7 25.7 35.4l4.4-7c-3.1-2-4.8-4.6-8-8-10.1-11.4-8.8-21-17.3-28.9-3.4-3.3-6.3-7.4-16.3-9.6-21.7-4.7-36.4 4.6-47.6 15 2.9 1.9 5.3 3.8 8.1 5.7l.3-.3c15-14.9 34.9-14.9 46-6.9z"/></g><path id="XMLID_232_" class="st4" d="M413.8 210.1c9.7 8.3 20 7.1 28.2 5.7 4-.7 9-4.7 14.4-9.8-2.3-2.1-4.1-4.3-8-5.4-.4-.1-.7-.1-1.1-.3-3.4 2.9-6.7 4.6-10 4.6-16.8 0-10.4-15-24-26.4-2.9 2-7.3 6.6-10.6 10.1 1.5 5.8 4.5 16 11.1 21.5z"/></g><path id="XMLID_221_" class="st5" d="M588.7 220.4c-.1-.1-.4-.1-.6-.3-4.4-1.7-19.1 3.8-34.1-5.6l-5.6 3-12.3 6.6c17.7 15.8 51.9 9.4 57 6 5.2-3.4.6-7.6-4.4-9.7z"/><g id="XMLID_94_"><path id="XMLID_27_" class="st4" d="M414.5 170.2s4.3 12.5 0 18.5-19.5 11-29.7 4.7c-10.1-6.3-11.1-9.7-19.7-12.3-8.6-2.6-14.3-3.3-14.3-3.3l-1.4-10.8 15-10 23.5 4 26.6 9.2z"/><path id="XMLID_38_" class="st2" d="M347.5 157.1s-4.7 1.1-14 12.3c-9.3 11.1-3.6 31.4-3.6 31.4"/><path id="XMLID_60_" class="st2" d="M312.3 194.9c4.3-8.3 16.1-11.1 16.1-11.1"/><path id="XMLID_39_" class="st0" d="M347.5 157.1s-11.5 3.6-4.7 26.8c4.6-19.2 16.8-26.8 16.8-26.8h-12.1z"/><path id="XMLID_40_" class="st0" d="M358.2 154.9s-15.7 10-8.6 28.9c3.6-13.4 17.1-21 17.1-21l-8.5-7.9z"/><g id="XMLID_93_"><path id="XMLID_35_" class="st4" d="M347.5 157.1s-1.9-9.7 8.3-7.8c-.7-5.7 1.9-9 11.1-9s18.2 16.8 18.2 16.8 16 6.1 12.1 15.7c-3.8 9.7-15.7 9-24.1 5s-7.3-13.7-13.7-17.1c-6.4-3.5-11.9-3.6-11.9-3.6z"/><circle id="XMLID_36_" class="st0" cx="400.1" cy="167.6" r="10.6"/><circle id="XMLID_37_" class="st0" cx="400.1" cy="167.6" r="4.4"/><path id="XMLID_72_" class="st2" d="M363.6 152.9s-2.1-2.7-7.8-3.8"/><path id="XMLID_34_" class="st5" d="M385 157.1c-3 2.9-2.9 8.1 1.9 10s7.1-5 14.8-2.1c7.8 2.7 6.1 7.4 9.4 11.5 3.3 4.1 15.4.7 17.8-1.9 2.4-2.6 6.1-11.4 0-17.5-2.6 3.3-7.6 5-13.8 5-6.1 0-9-10-17.4-10s-9.9 2-12.7 5z"/></g></g><path id="XMLID_230_" class="st0" d="m548.9 185.2-3.1-4.8c-2.7 1.4-6.6 3.6-11 5.8.9 1.9 1.7 3.8 2.6 5.8 7-4 11.5-6.8 11.5-6.8z"/><g id="XMLID_223_"><path id="XMLID_225_" class="st4" d="M534.7 186c4.4-2.3 8.3-4.3 11-5.8l-5.4-8.3s-4.8 2.4-11.7 5.6l.1.1c2.8 2.6 4.6 5.4 6 8.4z"/><path id="XMLID_234_" class="st4" d="M507.5 186.4h0c-10.8 4.1-21.4 7.1-26.2 5.8-12.1-3.1-14.1-11.5-28.2-13.5-8.6-1.1-23.1 1.1-34.4 5.4 2.4 3.6 3.7 7.3 5 10.4 8.6-3.7 19.1-4.4 25.4-3 9.7 2.1 11.8 12 31.4 13.4 9 .7 24.1-4.8 38.2-11.1-2.4-3.2-5.5-5.8-11.2-7.4z"/></g><g id="XMLID_87_"><ellipse id="XMLID_95_" class="st0" cx="414.1" cy="327.2" rx="14.3" ry="14.1"/><ellipse id="XMLID_96_" class="st0" cx="414.1" cy="327.2" rx="6.1" ry="6"/><g id="XMLID_70_"><path id="XMLID_213_" class="st0" d="m413.8 299.1-6.1 14.7c2.4 1 5.6 1.7 8.6 2l2.1-15.7-4.6-1z"/><path id="XMLID_217_" class="st0" d="M410.8 298.5s-11.5 7.1-7.3 12.5c.9 1.1 2.3 2 4.1 2.7l6.1-14.7-2.9-.5z"/><path id="XMLID_218_" class="st0" d="m418.2 300.1-2.1 15.7c3 .3 5.8.3 8.3-.1l-.9-14.3-5.3-1.3z"/><path id="XMLID_219_" class="st0" d="m427.3 302.1-3.7-.9.9 14.3c2.1-.4 3.8-1 4.6-2.1 2.5-4.1-1.8-11.3-1.8-11.3z"/></g><path id="XMLID_86_" class="st3" d="M412.4 289s-8 6-5.7 12.8c2.3 6.8 20 8.8 24 2.1 4-6.7-2.6-11.8-2.6-11.8l-15.7-3.1z"/></g><g id="XMLID_30_"><path id="XMLID_229_" class="st0" d="M518.7 193.9c-14 6.3-29.2 11.8-38.2 11.1-19.5-1.6-21.8-11.3-31.4-13.4-6.3-1.4-16.8-.6-25.4 3 1.3 3.3 2.6 6.1 5.1 8 6.7-3.3 13.3-4 19.5-2 9.3 2.9 8.6 12.3 29.7 13.3 16.3.7 30.4-6.4 44.1-12.8-1-2.8-2-5.2-3.4-7.2z"/></g><g id="XMLID_76_"><path id="XMLID_31_" class="st4" d="M603.1 151.8c1.7-5.6 4-10.6-5.1-12.1-9.1-1.6-26.5 13.4-26.5 13.4s-6.4 2-10.4 6.1l-19.7 3.3s-6.3 11.5-3.1 18.2c3.1 6.7 17.4 14.1 28.4 9.6 11-4.6 12.7-7.7 21.4-8.8 8.7-1.1 14.7-.9 14.7-.9l3.3-10.4-8.4-7.8h0c6.8-2.4 12.1-1.6 12.1-1.6s3.4-9.1-6.7-9z"/><path id="XMLID_82_" class="st2" d="M593.1 153.9s4.7-2.4 10-2.3"/><path id="XMLID_74_" class="st2" d="M609.8 160.9s4.4 2 11.5 14.5-1.9 31.5-1.9 31.5"/><path id="XMLID_73_" class="st2" d="M638.2 204.1c-2.9-8.8-14-13.7-14-13.7"/><path id="XMLID_29_" class="st2" d="M597.7 162.4c-10 3.4-12.5 17.1-37.1 18.1"/><g id="XMLID_33_"><circle id="XMLID_78_" class="st0" cx="556.1" cy="162.4" r="10.6"/><circle id="XMLID_77_" class="st0" cx="556.1" cy="162.4" r="4.4"/><path id="XMLID_79_" class="st5" d="M572.9 154.5c2.4 3.4 1.4 8.4-3.4 9.4s-6.1-6.1-14.3-4.7c-8.1 1.4-7.3 6.3-11.3 9.8-3.8 3.6-15.3-2-17.3-4.8s-4-12.3 3-17.3c1.9 3.7 6.7 6.3 12.7 7.3 6 1 10.3-6.8 18.5-5.4 8.5 1.4 9.7 2.3 12.1 5.7z"/></g><g id="XMLID_75_"><path id="XMLID_81_" class="st0" d="M609.8 160.9s-4-.7-9.4.7c3.3 4.1 8.7 12.8 9.4 26.4 10.9-21.7 0-27.1 0-27.1z"/></g><g id="XMLID_233_"><path id="XMLID_235_" class="st0" d="M592.3 165.5c3.6 3.7 10 11.4 10.8 21.4 6.7-11.4 3.1-20.8-.1-25.8-1.6.3-3.4.7-5.3 1.3-2 .7-3.7 1.8-5.4 3.1z"/></g></g><g id="XMLID_238_"><path id="XMLID_240_" class="st5" d="M572.8 256.9c-2.9 0-19.8 2.4-27.2 3.6 1.1 3.4 1.7 6.7 1.1 9-1.9 7.1-19 6.4-21.4 3.3-2.4-3.1.7-8.3-1.4-9.3-.9-.4-13.1.3-27.4 1.4-.1 4-.1 10 1.7 11.7 2.9 2.7 10.4 0 12.8 0 2.4 0 2.6 14.8 4.3 17.7 1.7 2.9 9.3 0 11.1 1.4 1.9 1.4.4 10.7 1.4 12.5s19.1 1.1 22-1.4c3-2.6-1.6-10.4 1.4-14.3 3-4 14.4-1.1 15.4-4s-.9-8.6-.4-12c.4-3.4 9.7-1.4 10.4-5.1.7-3.7-.1-14.5-3.8-14.5z"/></g><g id="XMLID_84_"><path id="XMLID_32_" class="st5" d="M341.1 280.4c-6.4 14.3-4 26.4-3.6 27.8 0 0 9-19 24.2-28.5 8-5 15-8.4 22.1-12.5l-8.1-14.8c-13.5 10.6-30.1 17.9-34.6 28z"/><g id="XMLID_222_"><path id="XMLID_228_" class="st4" d="M398.4 244.8c7.1-9.6 8-19.5 9.4-28.1-4-3.4-6.3-7.6-7.7-11.5-1.3 8-2.3 17.8-10 31.4-3.6 6.1-8.7 11.3-14.5 15.8l5.1 9.4c5.6-4.1 12.1-9.6 17.7-17z"/><path id="XMLID_231_" class="st0" d="M407.9 216.5c-1.4 8.7-2.4 18.5-9.4 28.1-5.6 7.4-12.1 13.1-17.5 17l3 5.4c6.7-3.8 13.5-8.6 21.4-16 10.7-10.1 9.1-21.4 9.6-30.4-1.1-.6-2.3-1.1-3.4-1.7-1.5-.7-2.7-1.5-3.7-2.4z"/></g></g><path id="XMLID_239_" class="st2" d="M359.6 291.7c4.3-7.4 26.4-23.5 43.2-22"/><circle id="XMLID_83_" class="st1" cx="423.3" cy="268.7" r="27.9"/><g id="XMLID_193_"><path id="XMLID_194_" class="st2" d="M425.6 224.5c-2-.4-3.8-.9-5.8-1.6.9 6 0 13.1-.7 18.1 1.4-.1 2.9-.3 4.3-.3 1.1 0 2.1.1 3.1.1 0-5.4-.2-11.4-.9-16.3z"/><path id="XMLID_195_" class="st2" d="M425.6 224.5c.7 4.8 1 10.8.9 16.4 2.6.3 4.8.9 7.1 1.9-.4-5.8-1.1-12.4-2.1-17.7-2 0-4-.2-5.9-.6z"/><path id="XMLID_196_" class="st2" d="M431.5 225.1c1 5.3 1.7 11.8 2.1 17.7 2.7 1.1 5.3 2.6 7.4 4.4-.9-6.7-2.1-15.5-3.7-22.2-2 .1-3.8.2-5.8.1z"/></g><path id="XMLID_274_" class="st3" d="M458.6 383.6c-1.6 2.1-3.6 4.6-6 7.1 1.3 2.9 3 6 5.4 9.1l5.8-8.6c-2-2.2-3.7-4.9-5.2-7.6z"/><g id="XMLID_150_"><g id="XMLID_118_"><path id="XMLID_205_" class="st7" d="M387 391.6c-1.1 4.1-2.4 7.7-3.7 10.4 1.1 5.4 2.3 14.4.6 24.8-7.1-3.8-11.3-10.6-13.5-15.3-.1 0-.3.1-.4.1 1.6 6.7 3.1 18.4-1.6 29.7-7.4-4.7-12.3-19-14.4-26.5 1.4 7 3 20.1-2.7 30.4-10.1-7.8-11.1-23-11.5-29.9h-.9c-.6 6.7-1.7 21.1-6.3 32.8-11.4-6.4-10.6-23.4-9.4-31.7-1.4 7-5.1 20.4-13.1 28.2-3.3-5.8-4.4-13.7-5-20.5-4.3 7.6-8 13.5-10.4 18 13.3 9 82.6 21.4 96-27.1 1.6-5.6 2.9-10.8 4-15.8-2.6-2.2-5.3-4.7-7.7-7.6z"/></g><g id="XMLID_119_"><path id="XMLID_273_" class="st8" d="M323.5 414.1c-.1.6-.3 1.3-.4 2-.6 3.8-1 9.7-.1 15.5 4.4.4 9.1.7 13.8.4 1.3-7 1.7-13.3 2-17.1-5 .1-10.1-.2-15.3-.8z"/><path id="XMLID_279_" class="st9" d="M323 431.7c1 6.4 3.6 12.8 9.6 16.3 2-5 3.3-10.6 4.3-15.8-4.8 0-9.5-.1-13.9-.5z"/><path id="XMLID_280_" class="st9" d="M383.8 426.8c.9-5.4 1-10.4.7-14.7-2.6 2.3-5.7 4.8-9.4 7.3 2.3 2.7 5.2 5.4 8.7 7.4z"/><path id="XMLID_281_" class="st8" d="M382.4 403.7c-2 3.4-6.4 6-12.1 7.8 1.1 2.3 2.7 5.1 5 7.8 3.7-2.4 6.8-5 9.4-7.3-.3-4-.7-7.4-1.3-10.1-.4.7-.7 1.3-1 1.8z"/><path id="XMLID_282_" class="st9" d="M342.2 431.7c1.7 5 4.3 10 8.8 13.4 2.9-5 3.8-10.8 4-16.1-2.3.7-4.7 1.3-7.3 1.9-1.8.2-3.6.5-5.5.8z"/><path id="XMLID_283_" class="st8" d="M353.8 414.7v-.1c-4.4.4-9.1.6-14.1.6.1 3.8.6 10.3 2.7 16.5 1.9-.3 3.7-.6 5.6-.9 2.6-.6 5-1.1 7.3-1.9-.1-5.5-.8-10.6-1.5-14.2z"/><path id="XMLID_284_" class="st9" d="M310.1 444.4c3.7-3.6 6.4-8.4 8.4-13.3-4.6-.7-9-1.7-13-2.7.6 5.6 2.1 11.4 4.6 16z"/><path id="XMLID_285_" class="st8" d="M323.4 414.1c-4.1-.4-8.3-.9-12.3-1.6-2 4.1-4 7.8-6 11.3.1 1.4.3 3 .4 4.4 4 1 8.4 2 13 2.7 2.4-5.6 3.8-11.1 4.6-15 .1-.5.3-1.2.3-1.8z"/><path id="XMLID_286_" class="st9" d="M368.2 441.4c2.9-6.7 3.4-13.5 3.1-19.5-3.8 2.1-8.1 4.3-12.8 6 2.4 5.5 5.5 10.9 9.7 13.5z"/><path id="XMLID_287_" class="st8" d="M353.6 414.6v.1c1 3.4 2.6 8.4 4.6 13.1 4.8-1.7 9.1-3.7 12.8-6-.1-4-.9-7.4-1.4-10.1-4.4 1.3-9.9 2.3-16 2.9z"/></g><g id="XMLID_104_"><path id="XMLID_270_" class="st2" d="M323.1 416.1c-1.1 8.3-2 25.4 9.4 31.7 4.6-11.7 5.7-26.2 6.3-32.8-5-.1-10.1-.4-15.3-.9-.1.6-.3 1.3-.4 2z"/><path id="XMLID_275_" class="st2" d="M370.3 411.6c2.3 4.7 6.6 11.4 13.5 15.3 1.7-10.4.6-19.2-.6-24.8-.3.6-.6 1.1-.9 1.6-1.9 3.3-6.3 6-12 7.9z"/><path id="XMLID_276_" class="st2" d="M339.5 415c.3 7 1.4 22.1 11.5 29.9 5.7-10.3 4.1-23.4 2.7-30.4v-.1c-4.5.6-9.2.7-14.2.6z"/><path id="XMLID_277_" class="st2" d="M323.1 416.1c.1-.7.1-1.4.3-2-4.1-.4-8.3-.9-12.3-1.6-2 4.1-4 7.8-6 11.3.4 6.8 1.7 14.7 5 20.5 7.9-7.6 11.6-21.2 13-28.2z"/><path id="XMLID_278_" class="st2" d="M353.8 414.7c2.1 7.6 7 21.8 14.4 26.5 4.7-11.3 3.1-23 1.6-29.7-4.6 1.4-10 2.4-16.1 2.9.1.2.1.3.1.3z"/></g></g><circle id="XMLID_108_" class="st4" cx="379" cy="388.9" r="11.4"/><g id="XMLID_199_"><g id="XMLID_201_"><path id="XMLID_207_" class="st3" d="m481.9 399.9-1.9 13h0c5.6.9 11.1.9 16.3.1l.1-13c-4.5.5-9.3.6-14.5-.1z"/><path id="XMLID_268_" class="st3" d="M521.7 405.4c-1.7-3.4-3.4-7-4.7-10.6-2.3.9-4.8 1.9-7.6 2.6l1.3 12.4c4.3-1.4 8-2.9 11-4.4z"/><path id="XMLID_269_" class="st3" d="M509.3 397.6c-3.8 1.1-8.1 2-12.8 2.6l-.1 13c5.1-.6 10-1.9 14.3-3.1l-1.4-12.5z"/></g><path id="XMLID_206_" class="st3" d="M476.2 398.9c-.7-.1-1.4-.4-2.1-.7-.4-.1-.9-.3-1.3-.4-.1-.1-.4-.1-.6-.3l-4.6 11c3.4 2.1 7.6 3.7 12.4 4.6l1.9-13h0c-1-.1-1.9-.3-2.9-.4-.9-.4-1.9-.7-2.8-.8z"/><path id="XMLID_272_" class="st3" d="M472.1 397.5c-3-1.4-5.7-3.6-8.1-6.1l-5.8 8.6c2.4 3.1 5.6 6.3 9.6 8.6l4.3-11.1h0z"/><g id="XMLID_154_"><path id="XMLID_203_" class="st2" d="M451.3 433.4c8.8-6.4 13.8-16.1 16-21.2.7-2 1.3-3.3 1.3-3.3s-.4 1.3-1.3 3.3c-2.3 6.4-6.4 20.7-2.4 28.2 9.3-4.6 13-15.4 14.4-22.4.3-2.1.6-3.8.7-5-9.3-1.6-15.8-6.1-20.4-11.4-1.6 1.7-3.7 3.8-6.4 6.1-2.3 8.6-3.9 18.7-1.9 25.7z"/><path id="XMLID_204_" class="st2" d="M510.9 412.7c.3 7.1 1.6 21 5.8 25.7 6.8-6.6 9.1-16.7 9.8-24-1.7-2.9-3.4-5.8-5-9-2.9 1.4-6.6 3-10.8 4.3.2.9.2 1.9.2 3z"/><path id="XMLID_291_" class="st2" d="M482.2 443.7c10.3-5.7 13.1-20.2 14-27.8 0-1.1.1-2 .1-2.7-5.1.6-10.7.7-16.3-.1h-.1c-.1 1.1-.3 2.9-.9 5-.8 8-1.5 21.4 3.2 25.6z"/><path id="XMLID_292_" class="st2" d="M500.2 441.4c9.3-6.7 10.7-21.2 10.7-28.5 0-1.1-.1-2.1-.1-3-4.3 1.4-9.1 2.6-14.4 3.3 0 .7-.1 1.7-.3 2.7-.2 7.2-.2 20.8 4.1 25.5z"/></g><g id="XMLID_120_"><path id="XMLID_300_" class="st8" d="M479.8 412.9c-9.3-1.6-15.8-6.1-20.4-11.4-1.6 1.7-3.7 3.8-6.4 6.1-.3 1.1-.6 2.3-.9 3.4 3.1 2.6 7 5.3 11.7 7.8 1.4-2.6 2.6-4.8 3.3-6.7.7-2 1.3-3.3 1.3-3.3s-.4 1.3-1.3 3.3c-.7 1.9-1.4 4.4-2.1 7.3 3.7 1.9 7.8 3.4 12.5 4.8.7-2.3 1.3-4.4 1.7-6.3.2-2 .5-3.9.6-5z"/><path id="XMLID_301_" class="st9" d="M451.3 433.4c5.8-4.1 9.8-9.7 12.5-14.5-4.7-2.4-8.6-5.1-11.7-7.8-1.5 7.7-2.5 16.3-.8 22.3z"/><path id="XMLID_302_" class="st9" d="M464.8 440.4c6.8-3.3 10.6-10 12.7-16.1-4.7-1.4-8.8-3-12.5-4.8-1.9 6.9-3.2 15.6-.2 20.9z"/><path id="XMLID_303_" class="st9" d="M516.9 438.5c5.6-5.3 8.1-13.1 9.3-19.7-3.7 2.4-8.4 4.7-14 6.4.8 5.3 2.2 10.6 4.7 13.3z"/><path id="XMLID_304_" class="st8" d="M521.7 405.4c-2.9 1.4-6.6 3-10.8 4.3v3c.1 3.3.4 7.8 1.1 12.4 5.6-1.6 10.3-4 14-6.4.3-1.4.4-2.9.6-4.3-1.6-2.7-3.3-5.8-4.9-9z"/><path id="XMLID_305_" class="st9" d="M478.7 424.6c-.4 7.4.1 16 3.7 19.1 6.1-3.4 9.7-10 11.7-16.4-2.1-.1-4.4-.3-6.7-.7-3.2-.6-6-1.3-8.7-2z"/><path id="XMLID_306_" class="st8" d="M496.3 413.1c-5.1.6-10.7.7-16.3-.1h-.1c-.1 1.1-.3 2.9-.9 5-.3 2-.4 4.3-.6 6.7 2.7.7 5.6 1.4 8.6 1.9 2.3.4 4.6.6 6.7.7 1.3-4.3 2-8.3 2.3-11.4.2-1.2.3-2 .3-2.8z"/><path id="XMLID_307_" class="st8" d="M510.9 409.9c-4.3 1.4-9.1 2.6-14.4 3.3 0 .7-.1 1.7-.3 2.7-.1 3.1-.1 7.3.1 11.4 4.7 0 9.1-.6 13.1-1.4 1.1-4.8 1.6-9.7 1.6-13.1-.1-1.2-.1-2.2-.1-2.9z"/><path id="XMLID_308_" class="st9" d="M500.2 441.4c5.1-3.7 7.7-9.6 9.1-15.5-4 1-8.3 1.4-13.1 1.4.6 5.7 1.6 11.4 4 14.1z"/></g><g id="XMLID_191_"><path id="XMLID_192_" class="st7" d="M480.1 411.6s-.1.6-.3 1.4c-.1 1.1-.4 2.9-.7 5 .4-2.1.7-3.8.9-5 .1-1 .1-1.4.1-1.4z"/><path id="XMLID_294_" class="st7" d="M496.5 411.1s0 .7-.1 2c0 .7-.1 1.7-.1 2.7.1-1.1.1-2 .3-2.7-.1-1.2-.1-2-.1-2z"/><path id="XMLID_295_" class="st7" d="M467.1 412.1c.9-2 1.3-3.3 1.3-3.3s-.6 1.3-1.3 3.3z"/><path id="XMLID_296_" class="st7" d="M510.9 409.9c0-.9-.1-1.4-.1-1.4s-.1.4.1 1.4v3-3z"/><g id="XMLID_143_"><path id="XMLID_144_" class="st7" d="M526.7 414.6c-.7 7.3-3 17.4-9.8 24-4.4-4.8-5.6-18.5-5.8-25.7 0 7.3-1.4 21.8-10.7 28.5-4.3-4.7-4.3-18.2-4-25.5-.7 7.6-3.6 22.1-14 27.8-4.7-4.1-4-17.5-3.1-25.7-1.4 7-5.1 17.8-14.4 22.4-4-7.4.1-21.7 2.4-28.2-2.1 5-7 14.7-16 21.2-1.9-7-.3-17.1 1.7-25.8-2.9 2.4-6.4 4.8-10.6 6.8.6 3.3.9 7.3.6 10.1-.1 1-.6 1.9-1.3 2.7 5.7 6.3 13.1 11.7 23 14.4 32.5 9 74.4-8.3 74.4-8.3s-6-7.9-12.4-18.7z"/></g></g><path id="XMLID_153_" class="st3" d="M526.7 414.6c-1.7-2.9-3.4-5.8-5-9"/><path id="XMLID_155_" class="st2" d="M521.7 405.4c-2.9 1.4-6.6 3-10.8 4.3h0c-4.3 1.4-9.1 2.6-14.4 3.3h-.1c-5.1.6-10.7.7-16.3-.1h-.3c-9.3-1.6-15.8-6.1-20.4-11.4-1.6 1.7-3.7 3.8-6.4 6.1"/></g><g id="XMLID_149_"><path id="XMLID_164_" class="st0" d="M492.2 453.6c15.1-1 27.4-4.6 35.5-7.7-.3-2.7-.4-5.6-.4-8.3-14.1 4.3-38.6 9.6-59.7 4.8-.7 2.3-1.6 5.1-2.7 8.4 5.1 2.1 13.3 3.7 27.3 2.8z"/></g><g id="XMLID_152_"><path id="XMLID_172_" class="st7" d="M487.8 465.8h0z"/><path id="XMLID_321_" class="st7" d="M529.8 458.9h0s2.3 13.5.3 27.2c-5.8-3.8-11.1-16.1-13.4-22.2 1.7 5.4 4.6 16.3 2.1 25.9-7.8-5-13.1-20-14.8-25.2h-.1c1 4.8 3 18-3.8 28.7-7-6.7-11.3-22.5-12.4-27.7h0c1 5 3.1 20.1-5.3 28.5-8.1-7-8.3-22.5-8-28.8h-.1c-.7 5.7-2.9 19.2-8.3 25.9-6.7-12.8-5.7-26.2-5.4-28.8h-.1c-3.6 8.8-8.4 18.5-14.4 26.5 9.3 3.3 23.7 7.3 41.6 6.7 29.8-1.1 51.5-9 51.5-9s-5.8-12.3-9.4-27.7z"/><path id="XMLID_325_" class="st7" d="M516.3 462.8h0c.1.4.3.7.4 1.1-.1-.4-.3-.7-.4-1.1z"/></g><g id="XMLID_158_"><path id="XMLID_335_" class="st9" d="M466.2 491.3c3.1-3.8 5.1-10 6.4-15.5-4.7-.6-8.7-1.4-11.8-2.3.7 5.2 2.2 11.6 5.4 17.8z"/><path id="XMLID_336_" class="st8" d="M460.7 462.5c-.1 1.3-.4 5.6.1 11 3.1.9 7 1.7 11.8 2.3 1-4.1 1.6-8 1.9-10.4-6.1-.5-10.5-1.6-13.8-2.9z"/><path id="XMLID_337_" class="st9" d="M520.9 473.5c2.6 5.1 5.8 10.6 9.4 12.8.9-5.7.9-11.3.7-16-2.9 1-6.2 2.2-10.1 3.2z"/><path id="XMLID_338_" class="st8" d="M529.8 458.9c-3.4 1.4-8 2.7-13.5 3.8.1.4.3.7.4 1.1.9 2.4 2.3 5.8 4.1 9.4 4-1 7.3-2.1 10.1-3.1-.2-6.5-1.1-11.2-1.1-11.2z"/><path id="XMLID_339_" class="st8" d="M487.8 465.8c-5.1.1-9.6 0-13.3-.3-.1 2.4-.1 6.4.3 10.7 4 .4 8.7.7 13.8.7.3-4.9-.4-9-.8-11.1z"/><path id="XMLID_340_" class="st9" d="M482.5 494.3c4.7-4.7 6.1-11.5 6.3-17.5-5.3 0-9.8-.3-13.8-.7.7 6.5 2.5 13.9 7.5 18.2z"/><path id="XMLID_341_" class="st9" d="M491.1 476.7c2.1 6 5.1 12.8 9.1 16.5 3.6-5.6 4.7-11.8 4.8-17.3-3.4.3-7.1.6-11.1.7-1 .1-2 .1-2.8.1z"/><path id="XMLID_342_" class="st8" d="M504 464.6c-4.3.4-9 .9-14.3 1h-1.9c.6 2.1 1.6 6.4 3.3 11h3c4-.1 7.7-.3 11.1-.7 0-4.7-.7-9-1.2-11.3z"/><path id="XMLID_343_" class="st9" d="M519 489.9c1.3-5.4 1-11.1.1-16.1-3.1.7-6.8 1.4-10.8 1.9 2.7 5.6 6.3 11.4 10.7 14.2z"/><path id="XMLID_344_" class="st8" d="M516.3 462.8c-3.6.7-7.7 1.3-12.3 1.9.7 2.4 2.1 6.6 4.3 11.1 4-.6 7.6-1.1 10.8-1.9-.6-4-1.6-7.4-2.4-9.8-.1-.6-.3-.9-.4-1.3z"/></g><g id="XMLID_157_"><path id="XMLID_320_" class="st2" d="M466.2 491.3c5.4-6.7 7.6-20.1 8.3-25.9-6.1-.6-10.6-1.7-13.8-3-.3 2.6-1.3 16 5.5 28.9z"/><path id="XMLID_322_" class="st2" d="M530.1 486.1c2-13.7-.3-27.2-.3-27.2h0c-3.4 1.4-8 2.7-13.5 3.8.1.4.3.7.4 1.1 2.3 6.2 7.6 18.5 13.4 22.3z"/><path id="XMLID_323_" class="st2" d="M482.5 494.3c8.4-8.4 6.3-23.5 5.3-28.5-5.1.1-9.6 0-13.3-.3-.3 6.2-.1 21.6 8 28.8z"/><path id="XMLID_324_" class="st2" d="M504 464.6c-4.3.4-9 .9-14.3 1h-1.9c1.1 5.1 5.4 21 12.4 27.7 6.7-10.7 4.8-23.8 3.8-28.7z"/><path id="XMLID_326_" class="st2" d="M519 489.9c2.3-9.7-.4-20.5-2.1-25.9-.1-.4-.3-.9-.4-1.1-3.6.7-7.7 1.3-12.3 1.9 1.5 5.1 6.8 20.2 14.8 25.1z"/></g><path id="XMLID_314_" class="st5" d="M489.6 465.8c19.8-.9 32.5-3.7 40.2-6.7-1-4.1-1.7-8.6-2.1-13-8.3 3.1-20.4 6.7-35.5 7.7-14 .9-22.2-.7-27.2-2.7-1.1 3.4-2.7 7.4-4.4 11.5 5.4 2 14.2 3.7 29 3.2z"/><g id="XMLID_318_"><path id="XMLID_163_" class="st1" d="M514 520.6s6.7 12.5 12.5 13.5 8.8-6.1 8.8-6.1L519 514.7l-5 5.9z"/><g id="XMLID_317_"><path id="XMLID_162_" class="st1" d="M523.6 519.4s8.1 14.8 13.1 14.8 6.8-6.7 6.8-6.7L532.3 510l-8.7 9.4z"/><g id="XMLID_159_"><path id="XMLID_160_" class="st1" d="M527.8 517.1s11.1 14.7 15.7 14.7 8.4-7.3 8.4-7.3l-15.3-13-8.8 5.6z"/><g id="XMLID_156_"><g id="XMLID_327_"><path id="XMLID_329_" class="st1" d="M564.6 525.2c-1.9-3.3-17.1-13.3-26.8-21.4-5.4-4.6-12.8-9-18.2-12-8.6 1.7-19.5 3.3-31.9 3.7h-1.6l-4 6 17.4 14.7 28.9 5.4s7.4-.4 12 0 4.8 4.7 11.4 7.1c6.6 2.5 14.7-.2 12.8-3.5z"/></g><g id="XMLID_315_"><path id="XMLID_316_" class="st1" d="M501.6 502.4c-5.8-2.1-9.4-4.7-11.5-6.8-.7 0-1.6 0-2.3.1-14 .6-25.7-1.9-34.6-4.4-.4 4.3-1.6 10.4-4.7 14.7-5.4 7.4-13 14-5.7 20s37.8 2.6 37.8 2.6 4.6 5 9.3 1.1c5 1.4 3.8 5 7.7 6.8 3.8 1.9 7.8-1.1 4.3-5.4 5.7 5.4 11.3 2.9 10.6-1.4 3.3 3.6 10 .7 8.3-5.4 6.1 4 16.1 2.3 14.8-4.3-8.5-6.6-22.2-13.3-34-17.6z"/></g></g></g></g></g><g id="XMLID_161_"><path id="XMLID_165_" class="st2" d="m501.6 530.9-5.7-6.4"/><path id="XMLID_169_" class="st2" d="m512.2 529.5-6.7-7.4"/><path id="XMLID_170_" class="st2" d="m520.4 524.2-8.2-7.1"/></g></g></svg>