<svg version="1.1" id="Calque_1" xmlns="http://www.w3.org/2000/svg" x="0" y="0" viewBox="0 0 900 900" style="enable-background:new 0 0 900 900" xml:space="preserve"><style>.st0,.st1,.st10,.st11,.st2,.st3,.st4,.st5,.st6,.st7,.st9{fill:#fdce12;stroke:#000;stroke-width:4.1254;stroke-linecap:round;stroke-linejoin:round}.st1,.st10,.st11,.st2,.st3,.st4,.st5,.st6,.st7,.st9{fill:#f37316}.st10,.st11,.st2,.st3,.st4,.st5,.st6,.st7,.st9{fill:#00f}.st10,.st11,.st3,.st4,.st5,.st6,.st7,.st9{fill:none;stroke-width:2.7503}.st10,.st11,.st4,.st5,.st6,.st7,.st9{fill:red;stroke-width:4.1254}.st10,.st11,.st5,.st6,.st7,.st9{fill:#fff}.st10,.st11,.st6,.st7,.st9{fill:none}.st10,.st11,.st7,.st9{fill:#ffce00}.st10,.st11,.st9{fill:#4f2400}.st10,.st11{fill:#f87311}.st11{fill:none;stroke:red}.st12{fill:#ff7300}.st12,.st14{stroke:#000;stroke-width:4.1254;stroke-linecap:round;stroke-linejoin:round}</style><path class="st0" d="M485.2 583.5s32.2 8.5 40.8 54.9c10.3 30.9 36.9 67.9 43.5 77 17.6 20.6 77 5 89.9 12.2 8.7 4.8 15.3 8 15.3 8l24.3-36.2s-3.9-5.5-10.5-8c-11.4-5-60.1-.8-82.2-8-12.9-4.3-71.2-123.9-71.2-123.9l-49.9 24z"/><path class="st1" d="M558.4 634.7c-8 4.5-23.8-40.8-30-37-6.1 3.9 20.2 30 11.4 35.6-8.8 5.8-6.6-1.4-8 .6-6.5 9.2-12-2.2 20.6 56.2 7.6 12 14.3 21.3 17.2 25.3 17.6 20.6 77 5 89.9 12.2 8.7 4.8 15.3 8 15.3 8l24.3-36.2s-3.9-5.5-10.5-8c-11.4-5-60.1-.8-82.2-8-15.1-7.2-66.7-88.4-76.2-92.7-3.5-1.5 36.1 39.4 28.2 44z"/><path class="st2" d="M754.3 722.4c-.7-.4-38.1-9.6-55.3-23.1-6.1.8-24.3 36.2-24.3 36.2 8.4 6.1 20.9 32.7 41.1 35.1 0 0-3.4-8.7-12.7-22.1 17.9 9.9 30.9 7.3 30.9 7.3s-14.9-13.3-20.9-20.2c19.4 7.6 35.9.8 35.9.8s-24.1-7.7-29.7-12.2c17.6 7.6 35-1.8 35-1.8z"/><path class="st3" d="M679 731.8c11 6.1 22.6 29.7 37 38.9M684.6 721.2c17.9 9.9 24.3 31.2 49.5 34.7M689.3 711.7c19.4 7.6 27.1 26.7 59.8 24.8M753.2 722.7c-10.7 1.4-29.6 1-58.3-19.8"/><path class="st4" d="M670.2 688.9c8.4.4 15.1 1.1 18.6 2.6 6.6 2.5 10.5 8 10.5 8L675 735.7s-6.6-3.2-15.3-8c-.3-.1-5.5-14.2 10.5-38.8z"/><path class="st5" d="M666.3 731.4c5 2.6 8.4 4.3 8.4 4.3l24.3-36.2s-3.9-5.5-10.5-8c.2 0-24.3 38.8-22.2 39.9z"/><path class="st6" d="M719.4 724.2c-6.1-2.6-37.3-26.5-52.5-25.9M662.9 708.9c18.7-.4 41.5 20.9 50.3 26.7M703.3 748.5c-6.9-10-22.7-31.6-43.7-31.4"/><path class="st5" d="M583.8 705.6c-5.8-.1-11.7 20.1-10.5 31.4 1.2 11.1 4.7 41.3 22.4 39.9 12.2-1.8 16-22.8 12-27.5-4-4.7-10.3 16-14.4 14.3-7.7-2.6-7.3-20.2-5.2-27.5 2.2-7.5 1.5-30.3-4.3-30.6z"/><path class="st2" d="M575 748.1c2.3 13.1 7.6 29.7 20.9 28.7 12.2-1.8 16-22.8 12-27.5-4-4.7-10.3 16-14.4 14.3-5.1-1.7-6.6-10-6.5-17.6l-12 2.1z"/><path class="st4" d="M588.2 736c2.1-7.3 1.4-30.3-4.3-30.4-5.8-.1-11.7 20.1-10.5 31.4l14.8-1z"/><path class="st3" d="M580.6 748.1s2.1 18.6 10.5 22c12 4.8 15.3-21.7 15.3-21.7"/><path class="st0" d="M326.7 778.8c-1.5.3 2.3-27.9.4-29-1.9-1.1-41.1-1.5-44.6-1.7-3.4-.3.7-44.8.7-44.8l-85.4-2.3s-4.5 43.3-8.4 43.6c-3.9.3-31.2-2.8-33.1-1.2-1.9 1.5-7.3 31.8-7.3 31.8l-74-1.7s17.7-56.1 29-114.7c11.8-62 17.2-126.7 18.3-128.9 2.3-4.1 15.7-1.5 18.7-3.4s-5.8-78.5-3-80c2.6-1.5 24.1-1.9 26-3 1.9-1.1-18.7-113.6-15.7-122.8.8-2.6 96.4-8.4 96.8-6.1.4 2.3 7.3 218.8 9.5 229.5 2.3 10.7 133.1 82 133.1 82l2.3 81.5 3.9 72.9c-.1-.2-65.7-2-67.2-1.7z"/><path class="st4" d="M109.4 693S86.8 763.5 90 764.2c3 .8 47.3.4 50.3.4s4.1-30.9 6.5-32c2.3-1.1 32 2.3 33.6.8s4.5-42.4 4.5-42.4l-75.5 2zM293.5 702.9s-3.9 33.6-1.5 35.1c2.3 1.5 44.6-1.1 45.4 3 .8 4.1-3 26.3.4 27.1s40 2.5 40.8.3c.8-2.3 1-66.4 1-66.4l-86.1.9zM123.8 617.5s8-75.5 9.9-79.3c1.9-3.9 17.6-2.6 21.3-4.1 3.9-1.5-4.1-74.4-1.5-77.4s23.7-1.9 25.6-4.1c1.9-2.3-22.8-122.8-17.6-124.3 5.4-1.5 70.1-2.3 71.6-.4s10.3 213.6 10.3 213.6l-9.9 83.9-103-1.9-6.7-6z"/><path class="st7" d="M108.1 614.5c.6-1.8 60.4.8 123.9 1.9 75.6 1.4 165.2 1.2 165.2 1.2s-3.6 88-7.3 89.9c-3.9 1.9-293.2-11-294.7-11-1.5-.1 11.8-78.3 12.9-82z"/><path class="st4" d="M124.6 627c-1.1 1.1-12.5 54.9-11 57.6.7 1.2 61.9.8 125 3.4 67.8 2.8 137.8 8.4 139.2 7.6 2.6-1.5-1.1-62.6-1.1-62.6s-251-7.1-252.1-6z"/><circle class="st2" cx="196.1" cy="364.9" r="13.9"/><circle class="st6" cx="196.1" cy="364.9" r="5.5"/><circle class="st2" cx="173.6" cy="594" r="12.9"/><circle class="st6" cx="173.6" cy="594" r="5.1"/><circle class="st2" cx="272.9" cy="666" r="12"/><circle class="st6" cx="272.9" cy="666" r="4.8"/><circle class="st7" cx="198.6" cy="490.2" r="13.9"/><circle class="st6" cx="198.6" cy="490.2" r="5.5"/><circle class="st7" cx="148.3" cy="657.1" r="14.2"/><circle class="st6" cx="148.3" cy="657.1" r="5.6"/><circle class="st7" cx="121.6" cy="721.9" r="12"/><circle class="st6" cx="121.6" cy="721.9" r="4.8"/><circle class="st7" cx="358.7" cy="731.1" r="12"/><circle class="st6" cx="358.7" cy="731.1" r="4.8"/><path class="st0" d="M389.5 649.5c13.8 16.8-16.4 116.3 5.4 138.1 18.3 16 61.1 4.5 118.9 8.4-23.2-78.9-30.9-143-30.9-143l-28.6-45.4-59.8 21.3c.1 0-18.6 3.9-5 20.6z"/><circle class="st6" cx="473.1" cy="765" r="9.5"/><circle class="st6" cx="410.1" cy="688" r="10.3"/><path d="m403.7 703.3-12.9-.8c-3.6 33.6-8.4 72.5 4.1 85 18.3 16 61.1 4.5 118.9 8.4-1.2-4.3-2.5-8.5-3.6-12.7 0 0-89.5 6.6-102.3-3.4-14-10.6-4.2-76.5-4.2-76.5z" style="fill:#fffefd;stroke:#000;stroke-width:4.1254;stroke-linecap:round;stroke-linejoin:round"/><path class="st6" d="m390.9 708.3 5.5.4M390.2 714.4l5.2.7M389.2 723.1h5.5M388.5 729.3l5.1.3M388.5 738.2l5.1-.4M387.4 745.1l5.3-.7M386.7 754.3l6-2M388.1 763l4.6-3.5M389.2 770.5l4.8-4.1M392.2 780.2l3.5-4.8M396.1 786.6l3-5.5M401.2 791.2l3.1-5.5M409.2 793.5l1.6-4.4M416.3 794.9l1.4-4.4M425.2 795.3v-4.8M434.2 795.3v-4.5M443.4 795.8l-.1-5.3M450.4 795.6l.3-4.4M458.1 795.8l-.3-5.2M465 795.6l.1-5.1M473.7 795.2l-.6-5.1M480.9 794.3l-.2-4.6M488.2 794.7l.2-5M497 795l-.5-6.4"/><path class="st0" d="M442.7 553.4s-5.1 47.6-10.2 93c-3.7 33.4-9.8 62.4-6.5 73 11.3 31.6 66.6 30.8 72.7 38.1 6.2 7.4 7.4 23 7.4 23l36.6-19.4s-8.9-19.4-13.9-24.1c-8.7-8.5-63.8-22.8-65.7-36-1.9-13.2 14.4-136.3 14.4-136.3l-34.8-11.3z"/><path class="st1" d="M462.9 561c-7.4-2.3-9.9-5.5-9.9-5.5h-4.1s-16.8 95.3-17.1 97.6c-3.7 30.5-8.8 56.4-5.8 66.3 11.3 31.6 66.6 30.8 72.7 38.1 6.2 7.4 7.4 23 7.4 23l36.6-19.4s-8.9-19.4-13.9-24.1c-8.7-8.5-63.8-22.8-65.7-36-.7-4.7 3.3-44.6 3.3-44.6-6.7-1.9 8.4-85.4 6.1-88.1-5.9-7.1-7.6-6.4-9.6-7.3z"/><path class="st4" d="M513.5 751.3c-7.4 5-13.3 8.3-12.7 9.4 4.4 8 5.2 19.8 5.2 19.8l36.6-19.4s-8.9-19.4-13.9-24.1c.1.1-7.7 9.3-15.2 14.3z"/><path class="st5" d="M504.7 771.5c1.1 5 1.4 8.8 1.4 8.8l36.6-19.4s-2.1-4.5-4.7-9.6c-4.5 4.8-23.8 16.5-33.3 20.2z"/><path class="st2" d="M527.8 830.5c-22-.8-21.7-50.1-21.7-50.1l36.6-19.4s8.3 29.2 27 43.5c-19.3 16-34.7-39.2-34.7-39.2-1.4 1.8 14.3 39.5 17.3 51.3-14.3 2.2-27.1-45.9-27.1-45.9 3.6 10.6 13.3 42.2 11.1 54.2-13.1.3-15.7-45.7-19.1-50.6 4.3 10.7 6.2 42.7 10.6 56.2z"/><path class="st6" d="M508.2 755.4c8.7 7.6 9.2 19 9.2 19M515.3 751.3s8.3 11.7 10 19.5M535 765.3s-5.6-13.5-11.1-20.4"/><path class="st3" d="M512.2 778c4.1 10.6 1 37.7 15.7 52.4M536.4 825c-2.2-1.4-2.6-7.7-4.5-12.5-5.2-13.5-7.6-34.5-11-39.5M552.3 816.7c-4.7-.6-6.1-7.8-9.5-14.7-7-14-9.4-29-13.3-34.1M569.6 804.5c-5.9 2.8-11-4.3-15.3-8.7-10.2-10.7-15.8-33.1-15.8-33.1"/><path class="st5" d="M433.4 714c-5-2.2-15.7 14.3-17.6 25-1.9 10.6-7.2 39.2 8.8 44.1 11.3 2.5 20.2-15.3 18-21-2.2-5.6-13.3 11-16.5 8.1-6.1-5-.8-20.9 2.9-27 3.7-5.9 9.3-27.1 4.4-29.2z"/><path class="st2" d="M414 749.6c-1.5 12.8-1.5 29.8 10.5 33.4 11.3 2.5 20.2-15.3 18-21-2.2-5.6-13.3 11-16.5 8.1-4-3.3-3-11.4-1-18.3l-11-2.2z"/><path class="st4" d="M428.8 743.2c3.9-6.1 9.5-27.1 4.5-29.2-5-2.2-15.7 14.3-17.6 25l13.1 4.2z"/><path class="st3" d="M419.1 751.6s-3.3 17.7 3.2 23.8c9.1 8.5 19.3-14.6 19.3-14.6"/><circle class="st9" cx="451.7" cy="671.1" r="8"/><circle class="st9" cx="446.6" cy="701.8" r="8"/><circle class="st9" cx="464.4" cy="726" r="9.8"/><circle class="st9" cx="496.8" cy="739.1" r="9.8"/><path class="st0" d="M556.8 490.8s45-16.4 87.9-31.8c31.6-11.4 50.9-16.1 68.5-26.3 19.8-11-3.4-54.9 19.4-77.3L700.7 341s-1.9 52.9-20.1 66.6c-11 7.6-128.7 47-128.7 47l4.9 36.2z"/><path class="st10" d="M554.9 469.4c1.1 7.8 83.5-26.1 82.9-19.7-.7 3.2-80.9 26.8-80.9 26.8l-.8 7.8s83.1-29.4 86.8-29.6c3.7-.1 6.2 2.8 8.4 1.9 29-10 42.2-15 62-24.1 19.8-9.1-4.3-57.1 19.4-77.3 1.5-1.1-32-14.4-32-14.4s-1.9 53.8-20.1 66.6c-3.9 2.6-41.4 16.6-41.4 16.6.7 10.6-80.3 30.1-81.8 33.4-4 8.3 78.1-22.1 79.3-19 1.6 6.4-81.9 28.8-81.8 31z"/><path class="st2" d="M727 325s14.4-10.7 20.2-19.4c11 11.4-16.8 30.8-16.8 30.8s18.3-9.9 33.6-21.7c2.6 13.3-12.9 25.2-12.9 25.2s11.8-.4 38.9-11c-22.1 27.1-52.9 22.6-57.2 26.7-4.1 4.1-33.1-6.5-32-14.4 1.1-8 16-16.8 24.8-47.3 12.1 7.2 1.4 31.1 1.4 31.1z"/><path class="st3" d="M711 334.6c4.3-8.8 19.8-22.8 14.4-40.8M719.7 339.2c1.9-6.5 24.5-16.4 27.5-33.6M727.8 344.1c3-3.4 29.7-11.8 36.2-29.4M789.9 328.8c-24.8 18.3-49.9 18.3-54.2 20.2"/><path class="st4" d="M725.7 364.6c1.7-3.4 3.9-6.5 7-9.1 1.5-1.1-32-14.4-32-14.4s-.1 5.1-1 12.5l26 11z"/><path class="st5" d="M741.5 353.2c-4.5.7-7.7 1.1-8.8 2.3-4.1 4.1-33.1-6.5-32-14.4.4-2.6 2.2-5.2 4.7-8.7 9.7 2.5 36.1 20.8 36.1 20.8z"/><path class="st6" d="M751 339.9c-30.9 4.5-31.2 21.7-31.2 21.7M712.2 358c2.6-11.4 7.6-15.1 18.2-21.6M706.2 356.5c.8-15.7 7.7-19.5 20.8-31.4M704.1 432.1c-2.3 4.8 13.9 16.1 24.5 18.4 10.6 2.3 39.1 8.3 44.3-7.4 2.9-11.1-14.7-20.6-20.5-18.6s10.6 13.6 7.6 16.6c-5.2 5.9-21 .3-26.8-3.7-5.8-3.8-26.7-10.1-29.1-5.3z"/><path class="st4" d="M733.3 437.5c-5.9-4-26.8-10.2-29-5.4-2.3 4.8 13.9 16.1 24.5 18.4l4.5-13z"/><path class="st2" d="M739.2 452.6c12.7 1.9 29.7 2.3 33.7-9.5 2.9-11.1-14.7-20.6-20.5-18.6s10.6 13.6 7.6 16.6c-3.4 4-11.6 2.8-18.3.4l-2.5 11.1z"/><path class="st3" d="M741.4 447.7s17.6 3.9 23.8-2.5c8.8-8.8-14-19.7-14-19.7"/><circle class="st9" cx="652.3" cy="439.8" r="8"/><path class="st9" d="M689.3 422.2c3.3 3 3.4 8.1.6 11.3-3 3.3-8.1 3.4-11.3.6-3.3-3-3.4-8.1-.6-11.3 3-3.3 8-3.5 11.3-.6z"/><circle class="st9" cx="706.9" cy="409.2" r="9.8"/><ellipse transform="rotate(-137.57 709.395 381.697)" class="st9" cx="709.4" cy="381.7" rx="6.5" ry="6.9"/><path class="st5" d="M704.1 432.1c-2.3 4.8 13.9 16.1 24.5 18.4 10.6 2.3 39.1 8.3 44.3-7.4 2.9-11.1-14.7-20.6-20.5-18.6s10.6 13.6 7.6 16.6c-5.2 5.9-21 .3-26.8-3.7-5.8-3.8-26.7-10.1-29.1-5.3zM636.5 469c-2.9 4.1 15.8 15.5 34.4 19.7 18.6 4.1 40 1.1 40.3-1.1.1-2.2-17.2-16.9-33.3-22.4-16-5.6-38.5-.5-41.4 3.8z"/><path class="st4" d="M672.8 488.9c18.2 3.4 38.2.7 38.4-1.5S694 470.5 677.9 465c0 .1-5.8 23.8-5.1 23.9z"/><path class="st5" d="M120.8 752.4c-3.9-3 24.8-52.9 48.4-69.4 23.7-16.4 18.7-2.6 18.7-2.6s-2.3 9.2-6.9 15.7c-4.5 6.4-56.4 59.3-60.2 56.3z"/><path class="st4" d="M155.9 722.7c-15.5 15.5-32.9 31.5-35.1 29.7-2.3-1.9 7.7-21.7 21.3-40.4l13.8 10.7z"/><path class="st11" d="m147.1 715.4 5.5-7.4M151.3 718.6l5.8-6.6"/><path class="st6" d="m142.1 712 13.8 10.7"/><path class="st5" d="M157 779.1c-3.4-2.6 14.2-49.9 38.9-71.2s24.1-30.9 14.2.4c-10 31.2-49.7 73.5-53.1 70.8z"/><path class="st4" d="M184.7 751.7c-12.9 16.6-25.9 28.9-27.8 27.4-2.1-1.7 3.3-19 13.3-37.4l14.5 10z"/><path class="st11" d="m175.7 743.7 5.5-7.3M180.9 748.1l5.8-7.9"/><path class="st6" d="m170.3 741.7 14.4 10"/><path class="st5" d="M221 723.8c-14.4 31.2-9.9 70.1-5.8 71s22.8-31.6 11.8-73.6c2.8-17.9 8.5-28.6-6 2.6z"/><path class="st4" d="M211.8 759.8c-1.8 19.1 1 34.5 3.6 34.9 2.6.4 10.9-12 14-31.6l-17.6-3.3z"/><path class="st11" d="m217.2 760.8 1.5-9.2M224.1 761.9l1.1-9.6"/><path class="st6" d="m229.4 763.1-17.6-3.3"/><path class="st0" d="M171.5 664.8s-16 18.7-8.4 25.2 26-15.3 26-15.3-18.7 21.3-9.9 26c8.8 4.5 23.2-16 23.2-16s-17.9 21.3-9.2 26c8.8 4.5 20.9-19.4 20.9-19.4s-17.6 26.3-8.4 28.6 20.6-20.9 20.6-20.9-16.4 28.6-6.9 29.7 18.7-22.8 18.7-22.8l-9.9-33.1-56.7-8z"/><path class="st4" d="M207 687.2c-17.6-10.5-37-20.2-35.5-22.6 2.6-4.1 14.4-14.2 14.4-14.2l56.1 35.9s0 20.2-3.9 19.1c-1.5-.4-17.1-9.8-31.1-18.2z"/><path class="st6" d="m188 676.3 11.5-14.4M202.3 684.6l10.2-14.4M213.9 692.2l8.9-14.2M226.4 698.6l7.7-13.3"/><path class="st2" d="M215 671.3c10.3 6.5 25.2 20.1 27.5 19.1 4.5-1.9 28.6-123.1 36.2-127.8 7.6-4.5-17.6-19.4-21.3-1.9-3.9 17.6-77.4 89.9-74 91.9 1.6.9 21.3 12.2 31.6 18.7z"/><path class="st6" d="m192.8 653.9 17.7-19.5M200.8 659.4l16.5-20.2M208 664.2l17.6-21.3M216 668.1l16.5-20.6M224.9 675.9l14-25.4M233.8 682.1l12.7-26.4"/><path class="st4" d="M262 616.4c6.6-27.1 13.2-51.8 16.6-53.9 7.6-4.5-17.6-19.4-21.3-1.9-1.5 6.7-13.2 21.6-27 37.4-21.9 25.4 23.3 52.8 31.7 18.4z"/><path class="st0" d="M224.5 600.3c.7 1.9 35.8 15.1 38.1 14.9 2.6-.4 5.2-7.4 4.1-9.9-1-2.6-30-18.6-32.3-18.3-2.2.2-10.6 11.5-9.9 13.3z"/><path class="st0" d="M220.6 605.4c.7 1.9 37 18.6 39.3 18.6 5.8 0 6.3-8.9 5.4-11.4-1-2.6-32.3-20.9-34.7-20.6s-10.7 11.5-10 13.4z"/><path class="st0" d="M214.6 611c.7 1.9 39.2 27.8 41.5 27.8 5.8 0 9.8-14.7 8.8-17.2-1-2.6-38-24.2-40.3-23.9-2.3.3-10.7 11.4-10 13.3z"/><path class="st0" d="M201.9 627.8c.8 2.3 49.9 28.6 52.7 28.6 2.6 0 6.1-12.9 5-16s-43.5-29-46.1-28.6c-2.8.3-12.3 13.7-11.6 16z"/><path class="st6" d="m221 613.4 4.6-6.5M227.6 617.5l4.2-6.9M234.8 621.6l4.1-6.4M242.4 627.1l4.1-7.1M250.3 632.3l4.2-8.2"/><path class="st5" d="M409 635.8c-2.3 28.2 2.3 51.4 5.8 51.4s13.8-22.1 17.2-62.2c3.3-40-20.6-17.4-23 10.8z"/><path class="st4" d="M408.3 650.6c0 21 3.6 36.6 6.3 36.6 2.6 0 8.9-12.4 13.5-35.5l-19.8-1.1z"/><path class="st11" d="m419.3 650.2.2-5.5"/><path class="st6" d="m428.3 651.7-20-1.1"/><path class="st9" d="M279.1 563.7s-29.7 34-10.7 83.1c16.8 44.6 96.1 35.9 111.4 31.6 15.3-4.1 46.9-50.3 46.9-50.3l-1.5-96.1-140.7 24.8-5.4 6.9z"/><path d="M405.4 655.7c2.5-2.9 5-5.9 7.2-8.8-3.6-53.9.3-98.2.3-98.2l-8 4.1.5 102.9zM398.8 663.3c-2.3 2.6-4.7 5-7 7l-.7-112.3h8.4l-.7 105.3zM384.4 676.2c-1.7 1.1-3.3 1.8-4.7 2.2-1.1.3-2.8.7-4.5 1l.3-119.6 9.2-.4-.4 115.9M369 680.5c-2.8.4-5.8.7-9.2 1 0 0-1.5-114.3-.4-120.7 1.1-6.5 11-3.4 9.2-.8-1.9 2.6.4 120.5.4 120.5zM350.3 682c-2.5.1-5 .1-7.6.1 0 0-1.1-112.6 2.3-121s7.6-1.1 6.5 0c-1.2 1.1-1.2 120.9-1.2 120.9zM335.9 681.8c-2.8-.1-5.6-.3-8.4-.6 0 0 0-111.1 3.4-119.1s11.8-5 7.6-.8c-4.1 4.3-2.6 120.5-2.6 120.5zM318.3 680.1c-3.3-.6-6.6-1.2-9.8-2.1 0 0 5.6-107 7.6-115.8 1.9-8.8 12.2-4.5 9.2.4-3.2 5-7 117.5-7 117.5zM302.6 676.2c-3.6-1.1-6.9-2.5-10.2-4.1 0 0 3.3-98.9 5.6-108.8 5.8-15.7 14.4-5 9.9-.4-4.5 4.7-5.3 113.3-5.3 113.3zM277.4 562.6s-5.4 92.4-2.8 95.7c2.8 3.6 6.2 6.6 9.9 9.2 0 0 3.9-99.1 7.7-106.4 3.9-7.3-14.8 1.5-14.8 1.5z"/><path class="st4" d="M394.9 658.2c3.2-3.6 2.1-27.6-5.8-45.8-5.2-12.2-13.9-19-25.2-26.3-22.1-12.9-49.9-11.8-64.5 8.8-14.6 20.6-3.4 42.8 14.2 54.9 17.6 12.2 75.9 14.6 81.3 8.4z"/><path class="st7" d="M297.4 631.5s3.4 25.6 34.7 26c0 0-3-11.8 5-21.7 8-9.9 19.8-5.8 19.8-5.8s-4.1-14.2 1.9-22.1c6.1-8 19.4-3 19.4-3s-1.9-26.7-29-25.6c0 0 3.4 12.5-4.1 19.8-7.6 7.3-19.4 8-19.4 8s3 11.8-6.1 17.2c-9.3 5.3-22.2 7.2-22.2 7.2z"/><path class="st12" d="M399.8 561s-116.6 2.6-138.3 9.2c-21.7 6.5-29.3-25.2-17.6-30.1 11.8-5 154.8-3.9 154.8-3.9l1.1 24.8z"/><path class="st7" d="M311.8 564.7c-22.4 1.4-42.5 3.3-50.3 5.5-21.7 6.5-29.3-25.2-17.6-30.1 4.7-1.9 30.5-3 59.8-3.4l8.1 28z"/><circle class="st6" cx="273.4" cy="553.5" r="6.3"/><circle class="st6" cx="294.9" cy="550.5" r="6.3"/><path class="st2" d="M240.8 594.9c12.5 1.1 29.3-19.4 24.1-38.9-3.9-14.2-20.2-22.6-34.7-22.6-14.4 0-29.3 14.2-29.3 14.2l-.4 21.7 34.7 19.8c0 .2-6.9 4.7 5.6 5.8z"/><path class="st2" d="M243.9 587.4s15.7-18.7 8.8-31.6c-6.9-12.9-22.8 15.3-22.8 15.3l14 16.3z"/><path class="st2" d="M219.1 545.4c10.3-9.2 30.1-1.5 33.6 6.9 3.9 12.9-16.8 19.8-20.2 14.4-4.5-9.2 10.6-7 8.1-13.6-1.7-4.5-17.7 1-17.7 1s-14.1.4-3.8-8.7z"/><path class="st2" d="M225.3 609.8c.4-4.1 24.8-17.6 21.7-28.6-3-11-17.9-18.7-17.9-18.7l-15.7 7.3 14.4 19.4-9.5 12.2c.1 0 2.3 5.8 7 8.4z"/><path class="st2" d="M224.9 587.7s-12.9 4.5-12.9 13.8 12.2 12.9 15.7 10.3c3.4-2.6-5-5.8-4.5-10.3.4-4.5 16.4-7.6 13.3-19.4-3-11.8-15.7-9.2-15.3-18.3.4-9.2 8.8-13.8 3.4-18.3s-23.2 6.9-23.2 6.9l-11 17.6 33.6 15.3.9 2.4z"/><path class="st7" d="M205.1 556.8c4.5-5 4.1-9.5-.8-13.3-5-3.9-8 4.5-8 4.5s-10.7-12.2-25.6-8.4c-14.9 3.9-17.6 7.6-20.6 15.7-3 8 1.9 23.2 16.8 26.3 0 0-4.1-5.8 4.1-8.8 4.8-1.8 17.5 3.3 32 8.8 11.1 4.1 24.9 9.9 26.7 5.8 1.9-5-3-7.3-6.1-9.2-3-1.9-16.4-3.9-18.7-7.3-2.1-3.3-4.5-9.1.2-14.1z"/><circle class="st5" cx="223.1" cy="558.2" r="11.3"/><path class="st4" d="M228.2 548.2c3.7 1.8 6.2 5.6 6.2 10 0 6.2-5.1 11.3-11.3 11.3-.3-10 3.6-22.1 5.1-21.3z"/><circle class="st5" cx="223" cy="557.5" r="5"/><path class="st6" d="M223.8 192.4c-3 3-1.9 58.3-6.5 72.9M183.4 652.6c1.7 1 21.3 12.2 31.6 18.7"/><path class="st0" d="M535.9 516.8s42.5 22.1 82.8 43.5c29.7 15.7 54.6 32 65.6 32.7 33.6 1.1 52.9-50.7 62.2-53.8 9.2-3 24.1 1.5 24.1 1.5l-4.5-41.1s-21.3 1.1-27.5 4.1c-11 5-44.6 51.2-57.6 48-12.9-3-119.1-65-119.1-65l-26 30.1z"/><path class="st10" d="M550.4 500.7c-5 6.1 83.1 44.6 80.9 50.7-1.5 3.4-89.7-43.5-89.7-43.5l-2.6 4.5s79.6 39.6 82.4 42.4c2.6 2.6 1.4 7.4 3.3 8.5 27.1 14.6 49.4 28.9 59.5 29.6 33.6 1.1 52.9-50.7 62.2-53.8s24.1 1.5 24.1 1.5l-4.5-41.1s-21.3 1.1-27.5 4.1c-11 5-44.6 51.2-57.6 48-4.5-1.1-40.3-19.3-40.3-19.3-4.3 5.6-76.3-39.1-79.8-37.8-1.7.6-8.4-1.5-4.5 1.1 17.1 11.6 81.5 43.7 80.9 45.1-3.6 5.4-85.2-41.5-86.8-40z"/><path class="st4" d="M746.1 523.3c1.9 8.8 2.8 15.4 4 15.3 8.9-1.1 20.4 2.3 20.4 2.3l-4.5-41.1s-21.3 1.1-27.5 4.1c-.1 0 5.6 10.6 7.6 19.4z"/><path class="st5" d="M761.6 538.8c5 .8 8.8 1.9 8.8 1.9l-4.5-41.1s-5 .3-10.7.8c2.7 6.1 6.4 28.3 6.4 38.4z"/><path class="st2" d="M825 539c-8.8 20.2-54.5 1.9-54.5 1.9l-4.5-41.1s30.1 3 50.3-9.2c.3 6.5-1.9 12-7.7 15.1-11.4 4.8-41.5 2.8-41.5 2.8 2.5-.3 41.9 1.1 54.2 2.6-2.2 4.1-2.2 8.1-9.9 8.8-15.7 1.5-42.8-3.7-42.8-.4 7.2-1.9 44.3 3 54.5 9.5-2.1 1.5-3.6 4.5-8.8 4.5-14.4 0-39.5-6.7-45.4-5.4 13.9-1 41.9 10 56.1 10.9z"/><path class="st6" d="M747 526.5s11.6-6.9 21.5-6.9M767 508.4s-14.4-.7-22 7.3"/><path class="st3" d="M770.4 534.3c11.4 0 33.7 14.9 54.5 4.5M823.1 529.1c-5.2 3.9-45.2-7.8-54.2-4.5M821.1 511.1c-7 8.3-46.2 0-53.8 3.4M816.2 490.6c.3 3.2-6.2 8.5-13.8 11-7.6 2.5-36.6 2.6-36.6 2.6"/><path class="st5" d="M682 584.4c-3.9 3.9 7.6 19.8 16.8 25.6s34 20.9 44.3 8c6.5-9.5-6.9-24.3-12.9-24.3s5.4 16.4 1.5 18.3c-6.9 3.9-19.8-6.9-24.1-12.5-4.3-6.1-21.8-19-25.6-15.1z"/><path class="st2" d="M708.1 615.3c11.3 6.1 27.2 12.2 34.9 2.5 6.5-9.5-6.9-24.3-12.9-24.3s5.4 16.4 1.5 18.3c-4.5 2.5-11.8-1.4-17.3-5.9l-6.2 9.4z"/><path class="st4" d="M707.6 599.2c-4.3-5.8-21.7-18.7-25.6-14.9-3.9 3.9 7.6 19.8 16.8 25.6l8.8-10.7z"/><path class="st3" d="M711.7 611.3s15.3 9.5 23.2 5.8c11.3-5.4-6.5-23.2-6.5-23.2"/><circle class="st9" cx="646.5" cy="556.8" r="8"/><circle class="st9" cx="675.5" cy="567.6" r="8"/><circle class="st9" cx="704.4" cy="559.7" r="9.8"/><circle class="st9" cx="728.5" cy="534.3" r="9.8"/><ellipse transform="rotate(-40.494 579.968 685.57)" class="st9" cx="580" cy="685.6" rx="8.8" ry="8.1"/><ellipse transform="rotate(-40.502 605.661 705.407)" class="st9" cx="605.7" cy="705.4" rx="10.7" ry="9.9"/><ellipse transform="rotate(-40.494 638.173 705.802)" class="st9" cx="638.2" cy="705.8" rx="10.7" ry="9.9"/><path class="st9" d="m577.9 579.7-32.5-72.8-117 27.1 3 77 58.5-4.2 73.8-11.9z"/><path d="m561.1 584.4-17.5-76-9.2 4.6 11.9 74.4zM539 587l-9.1-68.2-8.8 2.2 9.2 69.8zM523.7 588.1l-8.4-62.9-4.9 2.2 4.9 63.4zM508.9 590l-5-61.3-7.1 2.6 3.7 61.4zM494.4 591.9l-3.8-59.5-8.4 1.9 1.9 59.5zM476.5 594.3l-.4-58.8-8.4.7-.8 59.2zM459.4 596l3-57-6.5 1.1-4.9 58.3z"/><path class="st5" d="M587.8 608.3c9.2 12.5 16 64.8 12.5 66-3.4 1.1-40.8-38.5-40.4-48.4.4-9.9 10.7-20.6 10.7-20.6s8.1-9.5 17.2 3z"/><path d="M596.7 634.4c4 18.4 5.8 39.2 3.7 39.9-2.3.8-19.5-16.5-30.8-31.1l27.1-8.8z" style="fill:#fb0f0c;stroke:#000;stroke-width:4.1254;stroke-linecap:round;stroke-linejoin:round"/><path class="st11" d="m570.6 626.8 5.5 12M576.8 624.6l4.8 12.4M583.8 622.7l3.3 12.4"/><path class="st6" d="m569.6 643.2 27.1-8.8"/><path class="st5" d="M561.9 611.3c14.9 29 7.6 67.5 3.4 67.8-4.3.4-27.5-38.9-31.2-49.5-3.9-10.7 1.9-19.4 1.9-19.4s10.9-27.8 25.9 1.1z"/><path class="st4" d="M570 639.9c2.3 20.8-1.9 39.1-4.8 39.3-2.9.3-16.4-21.5-24.8-36.6l29.6-2.7z"/><path class="st11" d="m544.5 629.2 3.8 11.7M552.7 628.1l2.5 12.4M559.7 627.1l1.4 12.8"/><path class="st6" d="m540.5 642.7 29.5-2.8"/><path class="st5" d="M538.3 612.1c6.1 17.2 3 62.2-.4 63.3s-29.7-47.3-32-58.7c-2.4-11.4 26.2-21.8 32.4-4.6z"/><path class="st4" d="M541.7 643.3c0 16.1-1.9 31.4-3.9 32-1.9.7-10.6-13.5-18.4-28.3l22.3-3.7z"/><path class="st11" d="m519.9 634.7 3.9 9.9M527 633l1.8 10.2M533.6 631l.7 11.7"/><path class="st6" d="m519.4 647.1 22.3-3.8"/><path class="st5" d="M511.2 617.1c7.3 28.2 1.1 67.5-3.4 67.8-4.5.4-27.8-37-30.1-51-2.3-14.2.4-16 .4-16s25.8-29 33.1-.8z"/><path class="st4" d="M514.5 646.8c0 20.2-3.7 37.8-6.7 38.1-3.3.3-16.8-19.7-24.6-35.9l31.3-2.2z"/><path class="st11" d="m488.8 638.8 2 9.2M497.7 636.5l.7 10.3M506.4 635.8l.3 10.8"/><path class="st6" d="m483.1 649 31.4-2.2"/><path class="st5" d="M485.2 620.9c2.6 30.9-1.1 62.8-4.1 64.1-3 1.1-25.2-38.5-28.6-62.2-3.4-23.7 21.3-12.2 21.3-12.2s8.8-20.6 11.4 10.3z"/><path class="st4" d="M486.2 648.3c-.4 19.9-2.9 35.8-5.1 36.6-2.1.8-12.9-17.2-20.8-36.2l25.9-.4z"/><path class="st11" d="m466.9 647.7-1.5-8.5M474.1 647.3l-1-9.2M480.5 647.7l-.5-9.6"/><path class="st6" d="m460.3 648.7 25.9-.4"/><path class="st5" d="M431.4 627.4c-1.1 34 12.2 59.1 16 58.7 3.9-.4 13.8-36.2 11.8-67.1-7.8-19.5-26.5-25.6-27.8 8.4z"/><path class="st4" d="M432.5 647.6c3 23.2 12 38.8 15 38.4 2.6-.3 8.3-17.6 10.7-38.5l-25.7.1z"/><path class="st11" d="m451.4 646.8.7-10.5M444.8 646.6l.7-11.2M439.3 647.1l-1.3-11.3"/><path class="st6" d="M458.3 647.6h-25.8"/><path class="st2" d="M436.5 626.3s58-3.9 74.4-7c16.4-3.2 78.2-8.1 79.6-9.8 2.6-3-10.3-28.6-13.8-30.1-1.7-.7-31.4 5.2-64.5 9.5-36 4.8-75.5 8-75.5 8l-.2 29.4z"/><path class="st0" d="M567.6 612.5c12.7-1.4 22.4-2.5 22.8-3 2.6-3-10.3-28.6-13.8-30.1-.8-.4-8.3.8-19.4 2.8 2.8 2.2 10.4 30.3 10.4 30.3z"/><path class="st6" d="M576.7 594.8c0 1.8-1.4 3.2-3.2 3.2s-3.2-1.4-3.2-3.2 1.4-3.2 3.2-3.2 3.2 1.4 3.2 3.2z"/><path class="st0" d="M524.9 617.1c4.1-.8 18-2.1 27.8-3 0 0-3.4-28.6-8.4-29.8-7.2 1.1-15.3 2.3-23.7 3.6.1-.2.2 30 4.3 29.2zM506.7 589.6s-36.6 4.3-49.9 5.5c-4.5.3-5 30-3 30 16.4-1.2 40.4-3.3 53.1-5.1-.2-.2 3.5-23.5-.2-30.4z"/><path class="st6" d="m454.4 601.8 52.5-6M454 616.7l52.7-6.1M477.6 613.6l-1.5-13.7M485.2 612.1l-1.5-13.7"/><circle class="st6" cx="495.8" cy="604.7" r="2.9"/><circle class="st6" cx="465.8" cy="607.9" r="3"/><path class="st6" d="M515.3 617.9s1.5-19.4-3-29M561.5 589.6l19.8-3.7M566.5 604.2l22.1-4.3M558.8 612.1c1.1-8.8-6.5-29-6.5-29M445.6 624.6c1.1 5.8 2.3-27.8 2.3-27.8"/><path class="st10" d="M295.7 105.1S243 99 234.4 96.3c-8.8-2.6-12.9-15.3-5.4-22.8 12.2-11 27.5 3.7 24.3 8.8-5.8 9.2-11-7.6-16-.4-3 6.1.8 7.6 2.3 8.8 1.5 1.1 59.8 5 59.8 5l-3.7 9.4z"/><path class="st5" d="M207 134c-.4-12.9 72.1-33.6 95.3-28.9 23.2 4.5-3.4 34-3.4 34s-91.6 8-91.9-5.1z"/><path d="M240.8 141.4c-18.3-.3-33.8-2.1-34-7.4-.1-5.9 14.6-13.3 32.9-19.3l1.1 26.7z"/><path class="st14" d="M267.1 141c-2.6.1-5.2.1-8 .3l-1.7-31.5c3-.7 5.9-1.4 8.8-1.9l.9 33.1zM285.5 140c-2.3.1-5 .3-7.6.4l-1.5-34.4c3-.4 5.9-.8 8.8-1.1l.3 35.1z"/><path class="st6" d="M235.2 123.4c18.3-6.1 45.4-9.5 45.4-9.5M237.1 134c11.4 4.1 44.3.4 44.3.4M237.4 128.4c6.9-4.1 43-9.5 43-9.5M280.2 127.9s-23.7 4.1-41.5 2.6"/><path class="st12" d="M273.3 189c0 51.8 28.6 107.1 16.8 109-22.8 1.1-28.2-86.5-36.6-105.6s19.8-55.2 19.8-3.4z"/><path class="st6" d="M268.8 190.8c-3.4 37 11.4 79.3 11.4 79.3"/><path class="st12" d="M237.8 193.9c13.8 39.6 5 105.6 25.2 105.2 6.1-.4-5.8-79.6-3-108.6 2.6-29-30.4-20.6-22.2 3.4z"/><path class="st6" d="M258 271.6s-7.3-46.5-3.9-81.3"/><path class="st12" d="M226.4 192.4c5 20.9-6.5 107.9 14.2 107.1 8.8-.4 0-35.5 2.3-111.4 1.4-22.8-21.4-16.7-16.5 4.3z"/><path class="st6" d="M236.3 270.1c-2.6-23.7.8-81.3.8-81.3"/><path class="st12" d="M296.1 134.8s-67.8 10.7-77.4 40.4c-9.5 29.7-5.4 76.6-8 89.2-2.6 12.5-11 33.1-1.5 34.4 6.5.8 12.5-14.4 14.9-33.1s7.2-69.3 6.9-76.2c-.4-11.4 75.5-30.1 75.5-30.1l-10.4-24.6z"/><path class="st7" d="M210.7 264.5c-2.6 12.5-11 33.1-1.5 34.4 6.5.8 12.5-14.4 14.9-33.1l-13.4-1.3zM227.9 266.4c1 18.8 4 33.4 12.5 33.1 4.8-.3 4.4-10.9 3.3-33.1h-15.8zM248.5 267.1c2.1 18.6 5.2 32.2 14.4 31.9 2.6-.1 1.9-14.4.6-33.1l-15 1.2zM286.5 263.7c5.5 19.7 9.4 33.4 3.6 34.2-9.2.4-15.5-13.5-20.5-31.6l16.9-2.6z"/><path class="st5" d="M306.4 153.9s-86.9 14.4-82.8 38.5c2.6 9.5 78.9-1.9 94.2-11 15.3-9.2-11.4-27.5-11.4-27.5z"/><path class="st14" d="M250.7 168.5c-16 6.2-28.6 14.3-27 23.8 1.1 4.1 16.2 4.3 34.1 2.5l-7.1-26.3zM286.4 190.5c2.9-.6 5.6-1.1 8.3-1.8l-7-31.1c-2.8.7-5.6 1.4-8.7 2.1l7.4 30.8zM270 162.2c-2.6.8-5.4 1.5-8.1 2.5l7.3 28.7c2.6-.4 5.4-.8 8-1.2l-7.2-30z"/><path class="st6" d="M249.2 179.5c8.3-4.8 36.2-12.8 36.2-12.8M251 184l35.4-8.2M253.1 190.2c5.2 0 35.5-8 35.5-8"/><path class="st7" d="M348.4 162.3s-57.2 17.6-52.7 27.5c4.5 9.9 51.2-6.9 51.2-6.9l1.5-20.6z"/><path class="st7" d="M345.4 147.7s-50.3 10.7-50.3 21.3c0 10.7 48.8-1.5 48.8-1.5l1.5-19.8z"/><path class="st7" d="M342.6 152.3s-50.3 11-50.7-.4c-.4-11.4 48-13.3 48-13.3l2.7 13.7z"/><path class="st7" d="M341.5 137.8s-51.8 11.4-52.7-1.9 51.4-14.2 51.4-14.2l1.3 16.1z"/><path class="st7" d="M341.1 110.1s-51.8-5.4-52.3 7.6 37.4 7.6 53.4 7.3c16.1-.5-1.1-14.9-1.1-14.9z"/><path class="st7" d="M340.8 100.4s-48.4-13.3-52.3-1.5c-3.9 11.8 49.5 14.2 49.5 14.2l2.8-12.7z"/><path class="st2" d="M397.2 112.3S337 93.2 334.6 94.7c-2.3 1.5 6.9 94.2 6.9 94.2l71.4-22.8-15.7-53.8z"/><path class="st4" d="M397.2 112.3s-13.9-4.4-28.6-8.8v72.1l44.3-9.5-15.7-53.8z"/><path class="st6" d="m358.7 101.3 2.3 66M335.6 103.9l13.7 2.7M336.3 112.8l14 1.4M337 122.4l13.7.7M337 132.5l14.7-.4M338.6 142.1l13.1-.7M339.7 151.3l13.4-.9M340.4 160.7l13.1-1.1M341.1 170.3l14-2.1M341.8 179.5l14.4-3"/><circle class="st5" cx="411.2" cy="130" r="29"/><path class="st2" d="M421.3 127.9c-.4-13.8 12.4-16.2 12.4-16.2 4.1 5 6.5 11.4 6.5 18.3 0 5.2-1.4 10.2-3.9 14.4-.1 0-14.8-2.7-15-16.5z"/><path class="st5" d="M429.2 127.5c0-7.6 8.4-9.5 8.4-9.5 1.7 3.6 2.6 7.7 2.6 12 0 2.6-.4 5.2-1 7.6-.1 0-10-2.4-10-10.1z"/><path class="st6" d="m400.2 104.3 11.7 5.8M390.2 111.2l16.9 4.8M382.2 130h18.7M384 138.9l17.2-1.3M389.9 147.9l12.7-3M398.4 153.8l10.1-3.2M385.1 119.4l17.2 3M318 241.4l6.6-2.1M312.9 232.5l9.2.6M315 224.2l7.5 1.8M320.7 217.7l6.2 2.4"/><path class="st0" d="M243.6 421.9s9.1 8.4 5.2 27.5c15.7 8.4 8.7 22.1 8.7 22.1S270 475 269 491.1c18-.6 16.6 19.4 16.6 19.4s13.3-4 16 10.7c1.8 9.9 18.6 31.2 38.4 22.4 19.8-8.9 24.9 5.6 24.9 5.6s12.9-9.6 22.8 3.2c14-8.3 18.3 1 18.3 1s14.4-10.2 25.4-1.7c10.7-10.5 25.2-2.3 25.2-2.3s15.3-18.4 32.9-5.4c10.3-18.2 27.8-9.9 27.8-9.9s-.3-14.2 19.4-10c2.9-18.4 18.7-13.2 18.7-13.2s-3.4-19.1 19-19.3c-2.2-21 19.5-28.2 19.5-28.2l-104.6-48.1-225.7-1.9-20 8.5z"/><path class="st4" d="M259.1 420.7s17.2 123.5 156.6 117.4c139.6-6.1 159.4-82.8 159.4-82.8l-127.3-43.9-188.7 9.3z"/><path class="st5" d="M426.9 529.1c-20.6 37.7-14.9 109.5 3.9 121.6 11.8-18.7 20.6-100.2 6.5-124.7-14.3-24.4 10.2-34.7-10.4 3.1z"/><path class="st4" d="M414 588.1c-.4 28.7 6.1 55.6 16.8 62.6 6.1-9.6 11.4-35.9 13.1-62.6H414z"/><path class="st11" d="m420.2 586.6.6-13.5M428.7 587.2l.3-14.7M437.6 587.9l-.9-15.8"/><path class="st6" d="M443.8 588.1H414"/><path class="st9" d="M273.7 421.5s12.2 90.8 125 99.8 159.8-68.6 159.8-68.6-102.2-34.4-103.3-34.4c-1.1 0-155.9-8.8-155.9-8.8l-25.6 12z"/><path class="st6" d="m508.2 499 10.6-53.1M543.2 470.6l-73.5-14.8M459.4 516.8s16.8-61.3 24.1-67.5"/><path class="st6" d="M443 469.1c7.6 15.3 54.2 34.4 54.2 34.4M360.2 476.4c1.9 12.2 27.1 42.4 27.1 42.4"/><path class="st6" d="M357.6 511.9c8.4-2.3 48-24.8 48-24.8M378.5 465l24.1 37M275.2 423.7c8.4 22.6 38.9 46.9 38.9 46.9"/><path class="st6" d="M278.8 437.3c10.3-12.4 45.5-16.6 45.5-16.6M293.2 467.6c6.2-12.4 31.5-25.2 31.5-25.2"/><circle class="st6" cx="301.3" cy="440" r="4.8"/><circle class="st6" cx="381.2" cy="489.3" r="4.8"/><circle class="st6" cx="452.5" cy="496.6" r="4.8"/><circle class="st6" cx="460.9" cy="471.5" r="4.8"/><circle class="st6" cx="502.4" cy="452.7" r="4.8"/><circle class="st6" cx="534.4" cy="458.8" r="4.8"/><circle class="st6" cx="523.7" cy="477.2" r="4.8"/><circle class="st6" cx="493.3" cy="478.7" r="4.8"/><circle class="st6" cx="473.4" cy="504.6" r="4.8"/><path class="st6" d="M377.5 515.3c0 1.1-.4 2.1-1 2.9-2.6-.1-8.4-1.8-8.4-1.8-.1-.4-.1-.7-.1-1.1 0-2.6 2.2-4.8 4.8-4.8 2.7 0 4.7 2.2 4.7 4.8z"/><circle class="st0" cx="483.1" cy="484.9" r="10.9"/><path class="st10" d="m621.3 470.1-118.5-28.9-2.7-15.1 124 30.5 18 13.6-.1 7.2-8.4 5.6-7.6.4-7.8-6.7z"/><path class="st12" d="M500.5 423s122 29.2 131.2 33.4c9.2 4.3 16 12 15 19.7-1 7.7-11 13.5-20.8 9.9-9.8-3.6-14.2-18.2-1.1-18.7 2.3-.3 4.5 2.3 4.3 3.4s-8 2.1-4.1 7.3c3.9 5.2 10.9 2.5 13.3-1.9 3.2-5.4-3.7-9.1-9.1-12.8-9.4-5-130.1-33-130.1-33l1.4-7.3z"/><path class="st0" d="M413.6 467.6s5 52.7 1.9 61.3c-3 8.8-54.2 47.6-43.2 78.8 4.8-5.9 15.1-26 27.2-39.6 15.1-17.2 32-32.2 32.5-41.5 1.1 17.2 32.5 37.4 40.4 62.8 6.5-38.9-24.1-57.9-24.3-74.4-.4-16.4-2.3-53.4-2.3-53.4l-32.2 6z"/><path class="st6" d="M472.3 589.6c-6.5-40.4-29.7-54.2-30.9-69-1.1-14.9-2.9-51.6-5.2-56.1M423 463.5s7.3 43.9.4 63.3c-6.9 19.4-43.9 43.9-51.4 77.4M430.3 464.2s3.4 49.9 1.5 62.6"/><path class="st2" d="M515 430.2S478.8 471 431.1 471s-66-21.3-66-21.3l-7.3-36.6 115.9-16.4 41.3 33.5z"/><path class="st6" d="m464.9 440.8 9.6 19.4M471.6 438.6l9.5 18M450 468.3l-5.1-20.9M437.9 448.6l5.1 21.2"/><circle class="st6" cx="429.6" cy="458.5" r="3.7"/><circle class="st6" cx="458.5" cy="453.8" r="3.7"/><circle class="st6" cx="486" cy="440.2" r="3.7"/><path class="st0" d="M360.2 420.7s24.8 32.5 71.6 27.8c46.9-4.5 73.2-34.4 73.2-34.4l-55.3-39.6-85.4 20.2-4.1 26z"/><path class="st5" d="M183.4 414.7c-19.4-19.1-63.7 6.1-63.3 9.2.4 3 34.7 17.2 62.2 3.9 17.8-9.3 20.5 5.8 1.1-13.1z"/><path class="st4" d="M153.9 408.5c-17.5 3.2-34.1 13.5-33.8 15.3.3 2.1 16.2 9.2 35.1 9.5l-1.3-24.8z"/><path class="st11" d="m154.1 415.1 8.2-1.1M154.3 421.3l8.3-1.1M154.8 427.4l8.5-1.1"/><path class="st6" d="m155.2 433.2-1.3-24.7"/><path class="st12" d="m202.3 424.1 122-1.1 6.2-18.2-127.7 1.5-20.7 11.8-1.5 9.1 6.9 9.6 7.3 2.6 9.1-6z"/><path class="st10" d="M330.9 400.9s-125.4.4-135.3 3c-9.9 2.6-18.3 10.3-19.1 20.2-.8 9.9 7.6 20.2 17.9 18.7 10.3-1.5 17.9-18.7 5.4-23.2-2.3-1-5 1.5-5 3s7.3 5 2.3 10.3c-5 5.4-11.1 0-12.5-6.5-1.9-7.6 5.8-10.3 11.8-13.3 10.3-3.4 134.6-1.5 134.6-1.5v-10.7h-.1z"/><path class="st4" d="M366.3 404.8c1.1.4 28.2 27.8 57.9 27.1 29.7-.8 61.7-23.7 61.7-23.7L452.3 383l-86 21.8z"/><path class="st5" d="M582.2 354c-3 5.4 20.6 17.2 43.5 20.2 22.8 3 48.4-2.6 48.4-5.4 0-2.6-22.6-18.7-42.4-23.7-19.8-4.8-46.5 3.6-49.5 8.9z"/><path class="st4" d="M627.8 374.5c22.3 2.3 46.1-3 46.1-5.6s-22.6-18.7-42.4-23.7c.2 0-4.4 29.2-3.7 29.3z"/><path class="st9" d="M537.7 439.1c3.4-1.1 8.9-16.8 8.9-16.8L489 385.7l.8-12.2-1.1-27.5-80.4 5.8 12.9 47.3s28.6 0 37 3c8.4 3 50.9 29.2 53.6 30.1 2.8 1 22.5 8 25.9 6.9z"/><path class="st5" d="m485.6 355.9 1.9 25.2s56.1-6.1 83.9-2.3c2.6-7.3-6.9-36.6-6.9-36.6l-78.9 13.7z"/><path class="st4" d="m485.6 355.9 1.1 14.9s67.9-5 84.2-4c-1.9-11-6.3-24.5-6.3-24.5l-79 13.6z"/><path class="st6" d="m505.1 378.8-1.6-24.4M526.9 377.3l-2.8-23.7M545.8 375.7l-.6-22.5"/><path class="st5" d="M554.6 409.3c-8.8-2.3-67.1-28.2-67.1-28.2s-5 4.5-5.4 11.4c39.6 17.2 57.6 32.7 62.8 33.6 5.5.8 10.8-15.7 9.7-16.8z"/><path class="st4" d="M551.2 420.6c-11.8-7.2-67.1-34.9-67.1-34.9-1 1.8-1.8 4.1-1.9 6.9 39.6 17.2 57.6 32.7 62.8 33.6 2.4.1 4.4-2.3 6.2-5.6z"/><path class="st6" d="m498.3 398.6 4.9-10.2M516.6 408.9l6.8-12.1M531 418.1l8.8-14.2"/><path class="st5" d="M421.3 361.3c9.5-3.9 113.2-1.5 139.6-6.1-.4 6.5 5.8 11 10.7 11.4 5 .4 16.4-11 15.3-15.7-1.1-4.5-22.8-25.6-22.8-25.6l-29-83.5-113.2 7.3-12.9 73.2c-.4.1 2.6 42.7 12.3 39z"/><path class="st11" d="m435.3 358.7-2.1-105.9M445.2 358.3l-3-108.9M455.5 358.3l-3.4-111M466.9 358l-5.5-110M477.5 358l-6.2-110.7M488.9 358l-7.3-111.8M501.6 358l-10.3-112.5M513.9 358 502 246.2M527.4 356.6l-16.2-112M539.1 358l-19.7-113.4M550.8 355.9l-22.4-111.3M560.4 362.4l-4.5-26.8M571.4 366.7l-8-36.2M578.6 361.7l-4.8-24.7"/><path class="st6" d="M560.7 355.1c-.8-3.4 1.9-6.9 6.5-6.9 4.5 0 3.9 7.6 3.9 7.6"/><path class="st6" d="M560.7 355.1c-.4 6.5 5.8 11 10.7 11.4 5 .4 16.4-11 15.3-15.7"/><path class="st5" d="M586.7 351c-1.1-4.5-22.8-25.6-22.8-25.6"/><path class="st6" d="M421.3 361.3c9.5-3.9 113.2-1.5 139.6-6.1"/><path style="fill:#592600;stroke:#000;stroke-width:4.1254;stroke-linecap:round;stroke-linejoin:round" d="m426.2 300.2 69.3-.6 8.8 19.3-74.4 3.1-9.1-9.1z"/><path class="st2" d="M565 277.4s9.2-6.9 5.4-12.2c-9.2-10.3-36.2-14.9-51.4-3-15.3 11.8-10.7 32-14.9 32.5-8.8-2.6-14.4 2.3-14.4 2.3l-.4 9.2 5.8 8.4H508l19.8-11.8 21.7-16 15.5-9.4z"/><path class="st2" d="M566.5 286.9s6.9-12.9-1.5-16.8c-8.4-3.9-26-4.1-40.4 9.2-14.4 13.3-9.5 29-21.3 30.9-5.4.8-12.2-3-9.5-10.7 2.6-6.5 9.2 1.5 10.7-1.9s.4-8-2.3-9.5c-2.6-1.5-16.4-.8-18.7 11.4-2.3 12.2 6.9 21.3 20.9 19.4 14.2-1.9 21.3-10.3 21.3-10.3l40.8-21.7z"/><circle class="st5" cx="548.6" cy="306.7" r="29.3"/><path d="M539.1 334.6c-11.6-3.9-19.9-14.9-19.9-27.8 0-11.6 6.6-21.5 16.2-26.3 4-2 6.7 55.1 3.7 54.1z" style="fill:red"/><circle class="st6" cx="550.2" cy="307.3" r="19.3"/><circle class="st7" cx="549.8" cy="307.3" r="8.9"/><circle class="st6" cx="548.6" cy="306.7" r="29.3"/><path class="st9" d="M387.3 518.8c6.1-19.1 6.1-108.6 12.2-114.3 4.5-4.1 19-14.9 24.3-23.8 1.8-3 0 123.2-6.9 137.2-1.4 5.4-30 3.1-29.6.9z"/><path class="st6" d="M416.2 383.7c1.8-3 0 123.2-6.9 137.2M408.6 383.7c1.8-3 0 123.2-6.9 137.2M400.9 383.7c1.8-3 0 123.2-6.9 137.2"/><path class="st9" d="m428 299.7-.6-46.8c3.6-4.1 101.2-6.9 106.3-8.4 5.1-1.5 14.7 12 23.4.8 5-6.3-19.8-57.9-19.8-57.9l-32-8.7-130.1 22.8-5.1 51.8 16.6 75.2 23.9-5.1 17.4-23.7z"/><path class="st6" d="m426.9 227.8.5 25.1M418.9 305.6l-1.5-74.7M412 311l-2.3-80.1M403.7 315.5l-3.1-84.6M396.8 319.4l-2.2-88.5M436.8 249.9l-.3-23.6M444.5 248.4l-.4-23.6M453.6 248.4l-.4-23.6M462.8 248.4l-.4-23.6M473.4 248.4l-.3-23.6M482.6 246.9l-.4-23.7M491.7 246.9l-.3-23.7M500.9 245.4l-.4-23.7M511.6 245.4l-.4-23.7M522.2 243.9l-.3-23.7"/><path class="st4" d="M383.2 243.9s29.4-18.8 139.9-16.2c8.7-26.4-16.2-43.2-18.8-43.2-2.5 0-122 11.7-122 11.7l.9 47.7z"/><path class="st6" d="m535.3 244.3-1.3-24.1M550.1 249.2l-6.9-29"/><path class="st4" d="M386.2 429.9c14.3-.6 7.2-19.8 13.2-25.4 6.1-5.6 30-22.8 26-32-4.1-9.2-10.7-5.6-10.7-5.6l-30.4 22.4c0-.1-12.3 41 1.9 40.6z"/><path class="st4" d="M388.8 392.8s38.1-23.9 36.6-33c-1.5-9.2-7.6-11.7-7.6-11.7l-33 21.3 4 23.4z"/><path class="st4" d="M380.1 381.1s49.4-27.9 48.3-39.2c-1-11.1-4.5-14.7-4.5-14.7l-39.2 23.9-4.6 30z"/><path class="st4" d="M388.3 358.7s41.7-24.9 42.8-35.1c1-10.2-4.1-11.7-4.1-11.7l-42.8 21.3 4.1 25.5z"/><path class="st4" d="M389.4 341s40.2-23.4 42.8-30.5c2.5-7.2-1-14.7-1-14.7s-30.5 23.9-47.3 27.5c-17 3.3 5.5 17.7 5.5 17.7z"/><circle class="st5" cx="326.2" cy="230.1" r="15"/><circle class="st5" cx="315.1" cy="362.3" r="15"/><path class="st6" d="m308.8 373.8 5.7-1.4M302.2 367.6l7.9-.4M302.9 358.7l7.2 2.3M309 351.8l6.6 2.8"/><circle class="st5" cx="320.2" cy="299.3" r="15"/><path class="st6" d="m313.2 310.1 5.9-.9M308.4 302.3l7.2.3M308.4 293.6l7.5 2.1M314.5 286.8l8 3.8"/><ellipse transform="rotate(-58.244 484.881 116.843)" class="st5" cx="484.9" cy="116.8" rx="10.5" ry="14.3"/><path class="st6" d="m471.7 114.6 8.3 4.1M475.9 107l7.5 7.9M485.1 106.4l3.4 6.1"/><circle class="st5" cx="525.2" cy="116.5" r="13.5"/><path class="st6" d="m515 109.1 3.5 7.6M524.7 104.3l-.4 10.3M534.3 108.7l-5.2 8.2"/><path class="st5" d="M351.7 417.7c-3 42.8-39.6 131.2-39.6 131.2s-35.1 0-33-2.5c0 0 44.7-91 53.9-192.1 9.2-101.2-1-170.2 17.7-184 18.8-13.8 141.4-18.3 148.9-23.4 15.3-8.7 19.3-23.4 25.4-22.4 6.1 1 16.2 24.3 16.2 24.3l-14.7 30.9-56.8 13.3-89 7.2-9.2 68.1 3.6 136.3-23.4 13.1z"/><path class="st6" d="m483.7 150.6 2.1 11M475.4 152l2.1 10.3M466.9 152.7l1.4 10.7M456.9 153.4l1.4 9.6M447.9 154.1l1.1 10.3M438.7 155.2l.3 9.9M431.8 155.4l.7 10.4M422.9 157.9l1 9M414.2 158.6l1.1 8.5M406.4 158.9l1 8.9M398.8 159.6l1.4 8.2M389.5 160.9l1.8 8.3M380.6 162.7l1.1 7.9M369.6 165.1l3.1 7.9M361 167.8l4.2 9M352.1 171.3l6.2 8.2M345.5 178.8l7.6 7.3M342.5 188.2l9.6 5.5M341.4 196.4l8.2 4.8M340 205l9.3 3.1M340.4 212.5l7.6 4.8M341.1 224.2l6.5 2.5M340.7 232.9l6.9 2M339.7 241.1l7.2 3.5M339.7 250.3l7.6 3.5M337.9 259.7l9 3.4M338.6 268.6l8.3 3M338.6 278.5l7.6 2.8M337.9 287.9l8.7 2M337.2 296.8l10.1 1.4M333.5 366.3l7.2 2M332.2 374.1l6.4 1.8M330.1 383.4l7.1 1.4M328.3 394l6.9 1.8M326 403.4l7.8 1.4M324.6 413.7l7.8 1.4M323.5 425l5.9 1.1M321.8 432.9l4.4 1M318.4 441.2l6.3 1.2M315.9 450.4l6.6 1.4M312.9 459.4l7.8 2.4M311.8 467.3l7.6 2.8M308.1 477.6l7.8 2.8M304.6 486.6l8.3 2.7M302.2 495.8l6.6 3.4M296.7 506.5l6.6 3M291.9 516.8l7.9 3.5M290.2 524.7l7.6 3.1M287 532.2l8 2.5M306.3 540.2l6.6 2.1M310.1 531.3l6.9 2.7M314.3 524.7l5.7 2M317 517.5l5.1 2.4M320.7 508.9l4.6 1.3M323.5 501.3l4.5 1.8M326.2 492.8l5.3 2.3M327.3 485.5l6.5 2M330.4 479.7l5.5 1.7M332.2 471.7l6.1 2.5M334.5 463.5l5.2 2.5M337 456.3l5.5 2.1M354.4 292h5.9M354.2 284l4.1.4M354.8 277.8l3.5.4M353.1 269.6l4.1 1.4M353.7 263.4l3.5.7M353.5 254.5l3 .6M353.7 245.5l3.9 1.1M353.1 236.6l4.5 1.1M353.1 228.1l4.1.6M354.4 219.4l2.8 1.1M354.8 211.8l3.1.7M355.1 203.3l3.9 2.3M358.6 195l2.7 2.4M362.4 184l3.4 4.2M370.7 179.2l1.6 4.4M378.2 177.9l1.7 3.7M386.1 175.1l.6 4.4M392.2 174l.5 5.2M399.5 172.4l1 6.1M407.8 173l.7 5.1M416.3 172.6l.7 4.8M423.9 171.7l1.3 6.4M431.8 170.6l1 5.9M439.7 170.6l1.1 6.6M449 169.9l.3 6.6M457.3 169.6v6.2M464.2 168.5l1.6 7.6M473.8 167.5l1 6.9M482.7 167.1l1.4 6.2"/><path class="st9" d="M312.1 548.9s36.6-88.4 39.6-131.2c3-42.8 11.1-105.2 10.2-119.5s-7.6-98.6 6.6-110.3c14.3-11.7 109.3-9.6 116.3-14.2 18.3-10.7-6.1-48.8 10.7-51.8 24.3-3.6 18.8 48.8 22.8 48.3 12.2-2.1 7.2-46.8 19.3-47.7 30-1 11.1 53.9 11.1 53.9L506 195.6s-114.4 6.1-118.4 10.7c-4.1 4.5 3 103.1 4.5 130.6s-2.5 144.9-19.3 151c-7.4 3.2-2.3-41.3-2.3-41.3s-11.4 82-29.2 112.5c-1.9 2.4-29.2-10.2-29.2-10.2z"/><path class="st9" d="M380.8 359.4c5.5-34.4-7.2-148.7 7-153.2"/><path class="st9" d="M383.6 330.1s-5.9 74.7-12.8 116.5M383.6 330.1c5.5 64.6-4.5 115.1-11.4 156.8"/><path class="st6" d="M333.1 557c32-84.8 41.7-199 41.7-199M374.8 358c3.7-32.6-11.3-143 5.8-157.9 13.9-11.7 114.3-5.2 123.5-13.5 9.2-8.3 2.2-56.7-8.5-64.8"/><path class="st6" d="M367.5 354.4c3.7-32.6-9.4-145.1 7.8-159.9 16.4-13.8 112.8-5.9 121-15.5 8.1-9.4.4-47.2-5.1-51.3M321.7 551.5c23.8-39.5 50.9-202.1 50.9-202.1M536.6 124.8c5.9 12-8.7 54.6-8.7 54.6M543.5 124.2c7.3 16.9 2.5 31.2-5.5 54.6"/><circle class="st5" cx="348.9" cy="436.8" r="14.4"/><circle class="st6" cx="348.9" cy="436.2" r="5.9"/><circle class="st5" cx="526.6" cy="197.5" r="33"/><circle class="st6" cx="528.1" cy="197.1" r="20.4"/><circle class="st2" cx="527.6" cy="196.6" r="11.7"/><path class="st6" d="m540.9 220.1 3.3 5.9M511.2 168.2l3.6 6.1M550.5 210.5l4 1.7M499 180.3l6.1 3.6M554.2 197.1l4.4.6M494.4 196.8l7.2.2M550.7 183.9l4.2-2.3M498.8 213.6l6.2-3.6M541 174.1l2.9-3.9M510.9 225.7l3.6-6M527.8 170.6l.6-5.1M527.6 230.3v-7.1"/><circle class="st2" cx="360.6" cy="333.1" r="34.4"/><circle class="st2" cx="361.9" cy="332.3" r="19.8"/><path class="st6" d="m335.9 353.5 48.1-45.4M340.7 360.1l48.1-46.5M390.6 346.6 329 328.3M394.3 339.4l-63-18.1M358.6 301.8l14.8 63.1M350.4 302.7l16.1 64.9"/><path class="st7" d="m355.8 335.3-13.7 86.5 23.3 1 3.6-88z"/><path class="st6" d="m354.3 398.8 6.6-63.5"/><circle class="st0" cx="361.6" cy="332" r="9.9"/><path class="st4" d="m346.3 394.7-4.2 27.1 23.3 1 1.1-27.5z"/><path class="st5" d="m343.4 412.7-1.3 9.1 23.3 1 .4-9.2z"/></svg>