<svg version="1.1" id="Calque_1" xmlns="http://www.w3.org/2000/svg" x="0" y="0" viewBox="0 0 900 900" style="enable-background:new 0 0 900 900" xml:space="preserve"><style>.st0{fill:#1d2238}.st0,.st1,.st2,.st4,.st5{stroke:#000;stroke-width:4.9027;stroke-linecap:round;stroke-linejoin:round;stroke-miterlimit:10}.st2,.st4,.st5{fill:#ffce00}.st4,.st5{fill:none}.st5{fill:#004172}.st6{fill:#fff}.st6,.st7{stroke:#000;stroke-width:4.9027;stroke-linecap:round;stroke-linejoin:round;stroke-miterlimit:10}.st7,.st8{fill:red}.st9{fill:#fff}.st10{fill:#ff5b00;stroke:#000;stroke-width:4.9027;stroke-linecap:round;stroke-linejoin:round;stroke-miterlimit:10}</style><path class="st0" d="m443.6 381.9-27.2 77.9 56.6 22.9 15.8-14.7 11.5-85z"/><path class="st1" d="m454.5 397.7-16.3 56.1 23.9 7.1 24.5-62.1z"/><path class="st2" d="M646.2 294.8s3-74.1 5.7-81.7c2.7-7.6 10.1-13.1 14.4-12.5 4.4.5 7.9 4.1 9 9s-9.3 9-9.3 12.8c0 3.8 6.3 4.9 10.1 3.8 3.8-1.1 12-6.5 12.5-17.4.5-10.9-12-19.3-18.5-21s-31.6.3-36.8 30.8c-5.2 30.5-9 77.9-9 77.9l21.9-1.7zM345.5 183.1s-20.7 4.4-23.4 3.3c-2.7-1.1-2.7-13.6-.5-16.9 2.2-3.3 23.4-7.6 23.4-10.4 0-2.7-26.7 1.1-29.4-.5s-3.3-10.9-1.6-15.8c1.6-4.9 25.3-3.3 30.2-6-4.4-2.2-31.3-2.2-34-7.1s4.9-13.6 12-16.3c-5.4-3.8-7.1-9.8-6.5-13.6.5-3.8 7.1-7.9 13.6-9s20.2-.3 20.2-.3-21.8-8.2-25.6-13.6c-3.8-5.4-2.5-12.8 1.9-15 4.4-2.2 27.5 6.3 27.5 6.3l9.3 27.8-3.8 65.4-13.3 21.7z"/><path d="m389.7 178.7-44.1 4.4s-3.8-79 7.6-114.9c22.3 3.3 220.6 32.7 262 68.6 18.5 20.2 19.1 29.4 19.1 49.6s-3.8 113.3-3.8 113.3l-94.8 4.4-71.4-114.9-54.5 1.1-20.1-11.6z" style="fill:#ff9100;stroke:#000;stroke-width:4.9027;stroke-linecap:round;stroke-linejoin:round;stroke-miterlimit:10"/><path class="st4" d="M345 159.1c22-1.9 113.1 7.5 130.2 13.2M344.2 136.8c20.3 0 150.6 20.5 150.6 20.5M476 116.4c6.5-1.1-107.5-24.9-126.7-25.9M322.1 113.4c61.6.2 155.1 20.6 155.1 20.6M351 77.6 449.9 96M356.7 108.2l6.6-10.2M368.2 109.9l4.9-9M378.4 110.3l4.5-7.8M390.6 112.7l6.6-8.9M402.9 114.8l4.9-8.2M415.6 116.8l6.5-7.3M428.6 119.3l5.4-7M440.9 120.9l4.9-6.9M451.1 122.1l4.9-5.7M346.5 125c87.8 7.8 136 21.7 136 21.7M351.2 152.8l2-9.4M360.4 153.2l1.8-8.5M451.5 162.2l2.1-5.8M461.7 165l3.3-5.7M346.1 171.1c18.8-2 45.8-2.5 45.8-2.5M512 110.7s69 18.1 95.2 36.5c18.8 13.3 17.6 25.6 17.2 56.2s-3.7 88.7-3.7 88.7M566.7 224.3l-.8 69.8M579.4 291.3l-.4-80.9M592 272.1l14.3 8.9M593.7 261l14.7 9M593.3 248.8l15.5 10.2M594.5 238.6l17.2 10.6M595.3 227.1l15.1 9.4M595.7 216.5l15.1 9.4M597.4 204.6l15.9 9.8M521.8 139.3l10.2-13.5M530.8 143.4l9-13.1M537.7 147l12.3-14.3M548.4 148.7l10.6-11.9M556.1 151.9l12.3-13M578.2 143.4l-5.3 7.3M589.6 148.3l-4.5 5.3M597.4 155.6l-9.8 9.8M602.7 161.3l-8.2 8.6M610 167.5l-10.6 10.6M546.3 244.3l11.9 3.2M546.3 252.9l12.7 4M547.9 262.2l9.4 3.7M546.3 269.6l12.3 4.5M547.9 279.4l10.1 3.7"/><path class="st5" d="M452 584.2c-1.1 3.5-2.3 7.1-3.5 10.8-.7 2.3-1.5 4.6-2.3 6.9l70.3 17.6c1.8-5.9 3.5-11.5 5.2-16.6L452 584.2z"/><path class="st4" d="m517.7 610.2-64.8-16.9"/><path class="st0" d="M471.9 521.9s-8.6 26.6-20 62.2l60.2 16.1-21.9-77.5-18.3-.8z"/><path class="st6" d="m490.2 522.7 21.9 77.5 9.6 2.6c1.7-5.3 3.4-10.3 5-14.8l-16.3-64.4-20.2-.9z"/><path class="st0" d="m521 524.1-10.6-.5 16.3 64.4c10.5-30 17.2-42.1 17.2-42.1L521 524.1z"/><path class="st4" d="M521.5 600.6 500.3 523"/><path class="st2" d="m435.7 629.1 71.6 22.5c1.6-6 3.2-11.7 4.8-17.1l-70.5-19.9c-2 4.9-3.9 9.7-5.9 14.5z"/><path class="st7" d="m441.6 614.5 70.5 19.9c1.5-5.3 3-10.3 4.4-15l-70.3-17.6c-1.5 4.3-3 8.5-4.6 12.7z"/><path class="st6" d="M435.7 629.1c-11.4 27-23.1 48.1-23.1 48.1s2.1 5.2 18.5 13.6c8.8-17.1 19-45.2 22.9-56l-18.3-5.7zM467 638.9c-3.4 9.7-14.3 39.8-23.5 57.6 6.2 2.6 13.5 5.3 22.4 8.3l19-60.2-17.9-5.7z"/><path class="st4" d="m443.6 633.1-21.2 49.5M455 700.1l20.7-57.2"/><path class="st0" d="M454 634.8c-3.9 10.9-14.1 38.9-22.9 56 3.5 1.8 7.6 3.6 12.4 5.7 9.2-17.8 20.1-47.9 23.5-57.6l-13-4.1z"/><path class="st8" d="M465.9 704.7c7.6 2.5 16.3 5.1 26.2 7.9 2-8.7 3.9-17 5.9-24.9l-23.8-9.1-8.3 26.1z"/><path class="st9" d="m484.9 644.5-10.7 34 23.8 9.1c3.2-13.1 6.3-25.1 9.3-36.1l-22.4-7z"/><path class="st4" d="m507.3 651.5-22.4-7-19 60.2c7.6 2.5 16.3 5.1 26.2 7.9 5.2-23.1 10.4-43.4 15.2-61.1zM402.2 185.8c-.5-1.6-3.3-22.3.5-25.1 3.8-2.7 18.5-.5 23.4 4.4 4.9 4.9 1.6 27.2 1.6 27.2M280.2 394.5s-27.2.5-35.4 1.6M603.2 503.4l.6-24.5"/><path class="st7" d="m529.4 335.7 2.9 23.6c10.9-1.3 53.6-5.6 103.5 3 1.8-7.5 3.5-14.3 5.1-20.6-49.8-15.9-100-8.1-111.5-6z"/><path class="st6" d="M640.9 341.7c1.1-4.3 2.1-8.3 3.1-12-8.7-3.1-24.3-6.6-51.7-9-43.3-3.8-63.7 2.5-70.9 5.7 3.6 4.3 7.7 7.1 7.7 7.1l.3 2.2c11.5-2.1 61.7-9.9 111.5 6z"/><path class="st2" d="M592.3 320.6c27.4 2.4 43 6 51.7 9 5-19.2 8-30.4 7.1-32.4-2.2-5.2-63.7-18.2-110.6-3-30.8 10.1-26 23.9-19.1 32.1 7.2-3.1 27.6-9.4 70.9-5.7zM536.2 390.1l9.3 74.6 43 14.7s18.5 6.5 25.9-8.2c4.6-30 9.8-56.8 14.8-79.7-12.5-2.4-55.8-9.9-93-1.4z"/><path class="st5" d="m532.3 359.2 3.8 30.9c37.2-8.6 80.6-1.1 93 1.4 2.3-10.6 4.5-20.3 6.7-29.3-49.9-8.6-92.6-4.3-103.5-3z"/><path class="st4" d="M528.6 375.9c53.9-12.5 103.5 1.6 103.5 1.6M551.7 330.2l-.3-10.4M560.4 329.6l.3-9.2M569.7 329.4l.6-9.6M577.9 329.6l.5-9.5M585.8 329.6l.8-9.2M595 329.9l1.1-9M604.3 331.3l1.1-8.7M614.1 332.9l1.6-8.7M623.4 334.5l2.1-8.7M632.1 337.3l2.2-9.3"/><path class="st5" d="M566.2 466.4s21.2-17.4 28.9-15.3c7.6 2.2 6 15.8 6 15.8l-7.6 7.1-24.5.5-2.8-8.1z"/><circle class="st2" cx="587.7" cy="424.7" r="15"/><circle class="st7" cx="587.7" cy="424.4" r="6"/><path class="st9" d="M700.7 562.2c-3.3-3.3-1.1 28.3-1.1 28.3s2.4 6.8 6 13.7l18.5-11.7c-9-12.4-21.2-28.1-23.4-30.3z"/><path class="st8" d="M733.4 607.2c-.9-2.4-4.7-8.1-9.3-14.6l-18.5 11.7c3 5.9 6.9 11.7 10.9 13.5 8.2 1.1 19.6-3.5 16.9-10.6z"/><path class="st4" d="M699.6 590.6s-2.2-31.6 1.1-28.3c3.3 3.3 30 37.9 32.7 44.9s-8.7 11.7-16.9 10.6c-8.7-3.8-16.9-27.2-16.9-27.2z"/><path class="st2" d="M523.1 687c-4.4 13.6-18 36.2-19.1 41.1-1.1 4.9 4.6 9.3 7.9 8.7 3.3-.5 10.6-8.7 10.6-8.7s-22.6 47.1-23.2 55.8 7.4 15.5 11.7 16.1c4.4.5 9.8-3 9.8-3s-24 35.4-24 41.4 10.4 10.9 16.3 8.7c6-2.2 12.5-10.9 17.4-20.7 0 7.1-.5 15.3 2.7 18.5 3.3 3.3 12 2.7 15.8.5 3.8-2.2 4.9-12.5 4.9-12.5s2.7 10.9 8.2 14.2c5.4 3.3 10.4 1.1 13.6-.5 3.3-1.6 6.5-11.4 6.5-11.4s.5 12 4.9 13.6c4.4 1.6 10.9 1.6 15.3 0s5.4-10.4 5.4-10.4 1.6 7.4 5.4 10.1c3.8 2.7 11.4.8 14.2.3 2.7-.5 7.1-9.8 7.1-9.8s1.6 7.9 4.4 9.5 6 1.4 9.8-.3c3.8-1.6 8.7-12.5 8.7-12.5s1.9 8.7 4.1 10.9c2.2 2.2 7.6 1.9 10.9.3 3.3-1.6 4.1-11.7 4.1-11.7s4.4 10.1 8.7 11.7 9.3.3 11.4-3.5c2.2-3.8-1.1-18-1.1-18s9.8 21 16.3 23.7c6.5 2.7 13.1-2.5 12.5-6.3-.5-3.8-28.3-55.6-28.9-61 3.3 4.4 11.4 9.8 15.8 10.9 4.4 1.1 8.7-6 9.3-10.9 0-13.1-23.4-50.7-23.4-50.7s7.6 7.1 11.4 7.1c3.8 0 7.1-6.5 4.9-10.9-2.2-4.4-14.7-24-19.6-51.2-46.3-14.2-91-4.9-91-4.9s-75.3 2.2-79.7 15.8z"/><path class="st10" d="M550.4 694.1c-.5 37.6-11.4 112.8-11.4 112.8l148.2-3.3c-9.3-45.8-14.2-119.3-14.2-119.3s-122.1-27.8-122.6 9.8z"/><path class="st4" d="M695.8 825.4s-8.2-16.3-8.7-21.8M538.9 806.8c-1.1 4.9-8.2 19.6-8.2 19.6M559.1 711.5l2.2 15.8M566.7 712l2.7 15.8M576.5 712l3.3 15.8M585.8 711.5l3.2 15.8M595.6 712.6l2.7 15.2M604.8 711l4.4 15.2M614.1 709.9l3.8 15.8M625 709.3l4.4 16.4M635.3 708.2l3.9 16.4M644.6 706.6l3.8 16.3M652.8 705.5l3.8 15.8M661 702.2l3.8 16.9M556.1 737.1l4.3 21.8M564 737.1l4.9 19.6M573.8 737.1l4.4 18.5M582.5 736l4.9 19.1M592.9 736l3.8 19.1M601.6 736l4.9 18M611.9 734.9l4.9 18.5M621.7 734.9l4.9 18M632.1 733.8l3.8 16.9M641.9 733.3l4.3 18M651.7 732.7l3.8 18M660.4 732.2l5.5 18M553.4 765.4l3.2 20.2M563.4 766.2l2.8 17.5M573.2 766l3.3 17.4M584.1 762.7l4.9 19.6M595.6 763.8l4.3 18M603.8 763.2l5.4 18M613.6 764.3l4.3 16.9M622.8 762.4l4.9 18.6M634.3 763.2l4.3 17.5M644.6 762.7l3.8 19.1M654.7 761.6l3.3 19.1M664.5 761.6l3.3 18.5M675.1 787.8l3.8 15.2M664.2 790.5l3.8 12M653.6 791l3.3 10.4M644.1 790.2l3.2 12M631.8 790.5l2.2 10.9M620.6 790.5l2.8 12M608.7 790.5l2.7 12.5M595.6 791l2.2 14.2M583.6 791l2.7 14.2M571.6 790.5l2.7 14.2M560.7 791l2.7 12.6M550.4 792.1l2.1 13.6"/><path class="st7" d="M582 686.2c-.8 3.1-.7 11.5-.6 16.3 6.1.3 12.5.4 19.2.1-.8-5.4-2.5-15.4-4.4-17.8-2.8-3.3-13.1-3-14.2 1.4zM549.9 640c-38.3 11.3-59.8 29.6-59.8 29.6s18.2 18.6 56.4 28c3.3-12.7 8.8-38.7 3.4-57.6zM633.7 680.4c-2.7-2.2-11.4-.5-12.5 2.2-.9 2.2.3 13.5.8 18.1 5.4-.7 10.5-1.5 15.3-2.5-.3-4.8-1.5-16.1-3.6-17.8z"/><path class="st6" d="M713.8 659.7s-38.7-30.5-110-28.3c-20.4.6-38.5 4-53.8 8.6 5.4 18.9-.1 45-3.4 57.6 10.2 2.5 21.8 4.3 34.8 5-.1-4.8-.1-13.3.6-16.3 1.1-4.4 11.4-4.6 14.2-1.4 2 2.4 3.6 12.4 4.4 17.8 2.1-.1 4.3-.2 6.5-.4 5.2-.4 10.2-.8 15-1.5-.5-4.7-1.7-16-.8-18.1 1.1-2.7 9.8-4.4 12.5-2.2 2.1 1.7 3.2 12.9 3.6 17.8 56.2-11.1 76.4-38.6 76.4-38.6z"/><path class="st1" d="m563.1 583.9 52.5 88c6.2-2.2 14.1-5.9 19.9-9.3L595.4 579l-32.3 4.9z"/><path class="st0" d="M551.7 585.7s49.9 86.1 54.2 88.2c1.3.6 5-.2 9.6-1.9L563 584l-11.3 1.7zM643.5 655.9c-.5-4.4-37-78.4-37-78.4l-11.1 1.7 40.1 83.6c4.8-2.9 8.2-5.4 8-6.9zM370.2 624.7c2.7 3 4.8 5.7 6.4 7.7 22-21.7 68.6-69 68.6-69l-8.2-5.9-66.8 67.2zM411.5 539.4l-17.4.5-8.2 22.9s-23.7 23.7-38.9 40c2.3 1.7 4.7 3.6 6.9 5.5l63.1-65-5.5-3.9z"/><path class="st1" d="m417 543.3-63.1 65c6.3 5.4 12 11.4 16.3 16.4l66.8-67.2-20-14.2z"/><path class="st8" d="m226.8 261.3.9 19.5 9.4.7-.5-20.3c-3.4.1-6.7.1-9.8.1z"/><path class="st9" d="m218.2 261.5.8 18.7 8.8.7-.9-19.5c-3.2 0-6.1 0-8.7.1z"/><path class="st8" d="M203.4 262.1c-2.7 1.1-1.1 16.9-1.1 16.9l16.7 1.2-.8-18.7c-8.6.1-14.3.3-14.8.6z"/><path class="st9" d="m236.7 261.3.5 20.3 16.9 1.3 24.5-1v-20.5c-13.9-.2-29-.2-41.9-.1z"/><path class="st8" d="M322.1 263.2c-.8-.6-7.5-1.1-17.5-1.4l-.4 19.1 20.1-.8s1.1-14.2-2.2-16.9zM278.5 261.3v20.5l11.5-.4.9-19.9c-3.9-.1-8.1-.2-12.4-.2z"/><path class="st9" d="m291 261.5-.9 19.9 14.2-.5.4-19.1c-4.2-.2-8.8-.3-13.7-.3z"/><path class="st4" d="M239.3 383.3c-.4 0-.2.1.4.1 1-.1 1-.1-.4-.1z"/><path class="st0" d="m415.8 352.5-15.3 4.4s-29.2 4.1-60.3 1.9c.8 2.5 1.3 5.2 1.6 8l96.4 2.8-22.4-17.1zM341.6 378.4c-.6 5.6-1.7 11-2.8 15.2L442 406.4l-.5-14.6-99.9-13.4z"/><path class="st1" d="m440.9 371.6-2.6-2-96.4-2.8c.3 3.8.2 7.7-.3 11.6l99.9 13.5-.6-20.3z"/><path class="st0" d="M426.7 398.8s-55.9-7.3-84.8-11.2c.1 2 .2 4.8.1 8l84.7 15.1v-11.9zM337.8 419.1c26 7 64.6 19 72 22.7 5.4 2.7 9.6-2 12.5-7.5l-81.4-24.9c-.7 3.9-1.6 7.3-3.1 9.7z"/><path class="st1" d="M426.7 410.7 342 395.6c-.1 4.3-.4 9.3-1.1 13.9l81.4 24.9c2.9-5.4 4.4-11.6 4.4-11.6v-12.1z"/><path class="st5" d="m383.7 661.1-174.5-9.3c-.3 6.4-.6 13.7-.9 21.2l175.4 9.3c.1-7.8.1-15.1 0-21.2z"/><path class="st0" d="m383.3 646.8-173.1-11.7c-.2 3.9-.6 9.8-.9 16.7l174.5 9.3c-.2-6.4-.4-11.4-.5-14.3z"/><path class="st5" d="M242 752.4c13.6 5.4 118.2 8.2 131.8-8.7 2.4-3 4.2-8 5.6-14.2l-167-1c6.3 11.3 18.5 19.4 29.6 23.9z"/><path class="st0" d="M383.7 682.3 208.3 673c-.2 5.3-.3 10.6-.4 15.7l175.5 4.1c.2-3.6.2-7.1.3-10.5zM208.3 711.6c.2 3.6.6 6.6 1.1 8.7.7 2.9 1.8 5.6 3.2 8.2l167 1c1-4.5 1.8-9.8 2.4-15.3l-173.7-2.6z"/><path class="st5" d="M383.4 692.8 208 688.7c-.1 8.7-.1 16.7.3 22.9l173.6 2.6c.8-6.9 1.3-14.2 1.5-21.4z"/><path class="st4" d="M205.5 665.7s9.8-5.4 17.4-4.4c7.6 1.1 4.9 5.4 10.9 6 6 .5 5.4-4.9 11.4-4.9s7.1 6 12 6 7.1-4.4 12-4.4 2.7 3.8 9.8 4.4 13.6-3.8 13.6-3.8 15.3 7.1 22.3 7.1 8.2-3.8 12-3.8 3.8 3.3 11.4 3.3c7.6 0 8.7-3.8 13.1-3.8s3.3 3.3 7.6 3.8c4.4.5 4.4-2.7 9.3-2.7s18.5 6 18.5 6M205 702.8s6-4.9 9.8-4.9 6.5 5.4 9.8 4.9 8.7-5.4 14.7-5.4 4.9 7.1 9.8 6.5 7.6-6 11.4-6c3.8 0 4.9 4.9 8.7 4.9s7.1-4.9 12-5.4 3.8 6 9.8 6c6 0 7.1-6.5 13.1-6s7.1 4.9 15.3 5.4c8.2.5 9.3-4.9 13.6-4.9s5.4 4.9 11.4 5.4 7.1-6 13.1-5.4 5.4 6.5 11.4 6.5 16.3-4.9 16.3-4.9M223.5 742.5s4.9-4.4 11.4-4.9 4.9 4.9 9.8 5.4 4.6-4.9 9.5-4.4 5.7 4.9 11.2 4.9 7.1-4.9 13.6-4.9 8.2 5.4 14.7 5.4 8.2-6.5 14.2-6.5 8.2 6 14.7 6 10.4-6.5 16.9-6.5 5.4 5.2 11.4 5.7 5.4-4.6 12.5-4.6 10.4 5.4 10.4 5.4"/><path class="st9" d="M212.6 195.1c-2.9 4.7-5.5 9.7-7.8 14.6l12 4.8c2.5-4.8 5.4-9.6 8.9-12.9.6-.6 1.5-1.1 2.5-1.6l-12.3-10c-1.1 1.6-2.2 3.3-3.3 5.1z"/><path class="st8" d="m216 190.1 12.3 10c2.6-1.1 6.4-1.9 10.8-2.2l-17.2-15.1c-2 2.1-4 4.5-5.9 7.3zM195.7 231.6c-1.6 4.4 10.4 6.5 13.1 1.1 1.6-3.3 4.2-10.9 8-18.2l-12-4.8c-4.6 9.9-8 19-9.1 21.9z"/><path class="st9" d="M301.4 201.6c-.9-2.1-1.8-4.1-2.8-5.9l-11.1 8.6c1.4.7 2.4 1.5 3 2.3 2.2 3.1 3.8 7.6 5.9 12.2l10.8-6.7c-2.1-3-4.1-6.4-5.8-10.5z"/><path class="st8" d="M322.1 228.9c-.8-4.1-8.4-8.2-14.9-16.9l-10.8 6.7c3.1 6.9 7 13.9 14.8 16.2 6 2.1 12-.6 10.9-6z"/><path class="st9" d="m279.6 174.4-27.8-2.2s-5.4-2.2-13.1-.5c-5 1.1-10.9 4.7-16.9 11.1l17.2 15.1c12-1 28.8.6 40 3.5l14.4-13.8c-6.9-9.4-13.8-13.2-13.8-13.2z"/><path class="st8" d="M293.4 187.5 279 201.3c3.5.9 6.4 1.9 8.5 3l11.1-8.6c-1.6-3.1-3.4-5.8-5.2-8.2z"/><path class="st4" d="M238.8 171.7c-7.6 1.6-17.4 9.3-26.1 23.4-8.7 14.2-15.3 32.1-16.9 36.5-1.6 4.4 10.4 6.5 13.1 1.1 2.7-5.4 8.2-22.9 16.9-31.1 8.7-8.2 59.4-2.7 64.8 4.9 5.4 7.6 7.6 24.5 20.7 28.3 6 2.2 12-.5 10.9-6-1.1-5.4-14.2-10.9-20.7-27.2-8.2-19.6-21.8-27.2-21.8-27.2l-27.8-2.2c-.1 0-5.5-2.2-13.1-.5z"/><circle class="st0" cx="256.2" cy="223.4" r="38.7"/><path class="st7" d="M252.4 183.1s-4.9 18-3.8 24.5 10.4 4.9 13.6 0 1.1-24 1.1-24l-10.9-.5z"/><path class="st2" d="M167.4 73.1c-1.1 18.5 3 28.6 16.6 33.5s50.7 1.9 57.2 9 9 37.6 9 37.6l16.9-1.1s-1.6-35.4-7.6-46.8c-6-11.4-58.3-15.3-67-18s-18-9.9-25.1-14.2z"/><path class="st4" d="M258.4 154.8s-1.6-35.4-9.3-44.7-38.7-7.6-57.7-12.5-24-24.5-24-24.5"/><path class="st2" d="M237.7 174.4c-4.9-3.8-6-22.9-6-22.9h52.8s-1.6 20.7-4.9 22.9c-3.2 2.2-37 3.8-41.9 0z"/><circle class="st2" cx="257.8" cy="176" r="10.9"/><path class="st4" d="M202.3 279s-1.6-15.8 1.1-16.9c2.7-1.1 115.5-1.6 118.8 1.1 3.3 2.7 2.2 16.9 2.2 16.9l-70.3 2.7-51.8-3.8z"/><circle class="st7" cx="256.8" cy="270.8" r="10.4"/><path class="st2" d="M167.4 277.3c-1.6 2.2-1.6 56.9 0 59.1 1.6 2.1 49.1-7.9 62.2-9.4l.9-50.3c-33.5-.3-62.4-.3-63.1.6zM334.1 279c-1.3-.4-20.9-.9-46.3-1.4v51.6c7.9.5 41.5 2.4 42.5.4 1.1-2.1 7.6-49.5 3.8-50.6z"/><path class="st4" d="m166.3 293.7 166.2.5M166.9 316l165.6-3.3"/><path class="st6" d="m230.5 276.7-.9 50.3c.4-.1.7-.1 1-.1 11.4-1.1 55.6 2.2 55.6 2.2s.6 0 1.6.1v-51.6c-17.7-.4-38.3-.7-57.3-.9z"/><path class="st4" d="m250.2 325.8-1.6-48.5M260 325.8l.6-48.5M250.2 314.9l8.7 5.5M250.8 302.9l8.7 6.6M250.2 288.2l9.3 6M511.1 452.2c10.4 19.1 12.5 31.6 12.5 31.6"/><path class="st0" d="m338.5 617.8-8.7 10.4s0-11.4-7.6-10.9c-5.4 0-12 4.4-15.8 7.6-3.8 3.3-7.6 19.1-7.6 19.1l18 17.4 36-31.1-4.9-16.9-9.4 4.4z"/><path class="st2" d="M362.4 641.2s-16.9 15.3-20.2 26.1c-3.3 10.9-.5 17.4 3.3 16.3 0-4.4.5-8.4 6-6.8 5.4 1.6 7.1 13.3-6.8 14.7-11.4 1.6-18-6.3-18-16.6 0-10.4 5.2-22.3 5.2-22.3l6.5-5.4 17.4-20.7 6.6 14.7z"/><path class="st2" d="M303.6 640.1c2.2 6 12 19.1 12 19.1l31.1-30 10.4 3.3S335.3 657 319 671.2c-7.1 6-13.6 4.4-21.2 2.7-7.6-1.6-14.7-13.1-12.5-22.9 2.2-9.8 7.4-12.5 8.4-14.2 1.6-14.2 13.9-21.2 15.5-23.4-8.7 2.7-11.4-3.8-10.9-10.9.5-7.1 6.5-11.4 12-12 5.4-.5 12.5 3.3 14.2 10.6 1.6 7.4-.5 6.8-2.7 12.8-2.4 6.1-19.8 11.5-18.2 26.2z"/><path class="st4" d="M310.1 601.5c6.5 6 1.6 10.9-1.1 12"/><path class="st9" d="M308.2 638.8c-7.1 0-12.8 5.7-12.8 12.8 0 2.2.5 4.2 1.5 6l23.5-9.9c-1.7-5.2-6.5-8.9-12.2-8.9z"/><path class="st8" d="M296.9 657.6c2.2 4.1 6.4 6.8 11.3 6.8 7.1 0 12.8-5.7 12.8-12.8 0-1.4-.2-2.7-.6-3.9l-23.5 9.9z"/><circle class="st4" cx="308.2" cy="651.6" r="12.8"/><circle class="st6" cx="308.2" cy="651.1" r="4.4"/><path class="st2" d="M347 602.8c-6.4 6.9-11.4 12.5-12.3 14.5-3.3 6.5 4.9 11.4 9.3 9.3-2.7 3.8 4.9 12.5 9.8 9.3-1.1 4.9 7.1 10.9 12 7.1 1-.8 5.1-4.8 10.9-10.5-5.1-6.5-16.8-20.3-29.7-29.7z"/><path class="st4" d="m343.9 626.5 8.2-7.1M353.7 635.8l6.6-7.1"/><path class="st10" d="M340.3 358.7c-1-.1-1.9-.1-2.9-.2-32.1-2.7-46.8-21.8-54.5-26.7-4.9-3.1-20.8-4.7-32.8-5l-2.5 15.3c2.3.7 4 1.2 4 1.2s-9.1.2-17.1.7l1.8 39.6c1.5 0 2.7-.1 3.5-.1-.6-.1-.8-.1-.4-.1 1.4 0 1.3.1.4.1 7.8 1.1 88.4 8.9 88.4 8.9l10.6 1.3c2.4-9.4 5.1-24.5 1.5-35z"/><path class="st4" d="M281.8 344.9s-16.3-1.6-30.2-1.6"/><path class="st6" d="M223.5 345.4c-3.8 1.6-2.7 8.2 1.1 10.4-3.3 2.2-3.3 7.6 0 9.3-2.7 2.7-2.2 6 0 8.2-2.2 3.8-1.1 8.7 2.7 9.8 1.9.5 5.9.6 9 .5l-1.8-39.6c-5 .3-9.5.8-11 1.4zM236.1 327.5c-4.4 1.6-3.3 6.5-2.7 8.7.4 1.5 9 4.3 14.3 5.9l2.5-15.3c-7-.2-12.6.1-14.1.7z"/><path class="st4" d="m247.5 354.7-22.9 1.1M248.6 364.5l-24 .5M248 372.1l-23.4 1.1"/><path class="st6" d="M260 380.9c-10.4.4-19.1 1.2-20.6 2.4-3.3 2.5-4.4 10.1 5.4 12.8 3.2-.4 9.5-.8 15.8-1 .7-6.8.2-11.3-.6-14.2zM225.2 398.8c-2.7 1.1-1.6 8.2.5 9.8-2.2 2.2-3.3 6 .5 8.7-2.2 2.7-2.7 6.5 1.1 8.7-2.2 2.2-1.6 4.9 1.1 7.1 1 .8 6.7 1 13.8.8l-2.1-37.4c-5.4.7-12.9 1.5-14.9 2.3z"/><path class="st10" d="M341.9 387.6c-.6-.1-1.2-.2-1.8-.2-28.3-3.8-31.6-7.1-47.4-7.1-8.2 0-21.5.1-32.7.6.8 2.9 1.4 7.4.6 14.1-6.3.3-12.6.6-15.8 1-1.1.1-2.7.3-4.5.5l2.1 37.4c11.6-.3 27.2-1.7 33.6-3 10.4-2.2 31.1-15.8 38.1-16.9 2.3-.4 11.7 1.8 23.9 5 4.4-7.5 4.2-24.5 3.9-31.4z"/><path class="st4" d="m252.4 407.5-26.7 1.1M253.5 415.7l-27.3 1.6M254 425.5l-26.7.6"/><path class="st2" d="m398.4 647.8-15.1-1c.6 14.6 2.7 81.8-9.4 96.9-13.6 16.9-118.2 14.2-131.8 8.7-13.6-5.4-28.9-16.3-32.7-32.1-3.2-13.2-.3-67.8.8-85.1l-13.8-.9s-2.7 79.5 0 94.2c2.7 14.7 14.2 26.7 32.7 35.4s149.3 10.4 160.7-11.4c11.3-21.9 8.6-104.7 8.6-104.7z"/><circle class="st6" cx="381" cy="152" r="12.5"/><circle class="st2" cx="613.6" cy="590.4" r="11"/><circle class="st2" cx="550.4" cy="600.6" r="11"/><path class="st2" d="M538.4 543.7s3.3 41.9 6 44.1c2.7 2.2 75.7-8.2 75.2-10.9-.5-2.7-17.4-38.7-17.4-38.7l-63.8 5.5z"/><circle class="st10" cx="559.1" cy="570.1" r="7.4"/><circle class="st10" cx="580.3" cy="566.1" r="7.4"/><circle class="st10" cx="601" cy="565" r="7.4"/><circle class="st2" cx="431.3" cy="582.1" r="10.6"/><circle class="st2" cx="390.8" cy="557.9" r="10.6"/><path class="st2" d="M389.7 543.4c19.6 19.1 54.5 28.9 54.5 28.9l19.1-34.9-12.5-15.8-47.4-9.8c-.1.1-33.3 12.6-13.7 31.6z"/><circle class="st10" cx="437.1" cy="553" r="7.4"/><circle class="st10" cx="415.8" cy="545.4" r="7.4"/><path class="st5" d="M528 510.2c14.4 10.7 67.1 6.9 82.1 5.6.1-21.2-.4-47.8-.4-47.8l-43.6-1.6-14.5-11.4h-32.9l-14.9 17.5c3.2 8.6 11.4 28.2 24.2 37.7z"/><path class="st7" d="M528 510.2c-12.9-9.6-21-29.1-24.1-37.8l-6.9 8.1-1.4 22.7c8.1 8.2 26.7 23.5 56.1 26.6 30.9 3.3 50.6.8 58.2-.6.1-3.9.1-8.6.2-13.5-15 1.4-67.6 5.2-82.1-5.5z"/><path class="st4" d="M520.4 480.5s4.9 15.8 19.1 22.9 69.7.5 69.7.5M548.2 478.3c21.8 6 61-.5 61-.5M566.2 506.1l1.6-24.5M576.2 505l2.2-23.4"/><circle class="st4" cx="554.5" cy="492.2" r="6.3"/><circle class="st4" cx="591.8" cy="493.6" r="6.3"/><path class="st6" d="M551.7 529.8c-29.4-3.2-48-18.4-56.1-26.6l-1.4 22.5s14.7 20.2 61.6 24.5c41.9 3.8 51.8-4.4 53.4-9.3.4-1.1.6-5.6.7-11.8-7.6 1.5-27.3 4-58.2.7z"/><path class="st4" d="m505.2 523.6 1 10.3M513.3 527.4l1.7 10.3M521.2 532.8l1.7 8.7M529.1 533.9l2.2 10.4M538.4 536.1l2.2 10.3M547.6 537.7l2 9.8M556.9 538.8l2.2 10.4M566.2 540.4l1.6 8.2M574.9 539.9l1.9 9.5M584.7 539.6l1.6 8.5M595.6 537.7l2.2 8.7"/><path class="st5" d="M364.1 521.9c-7.6 11.4-21.8 34.3-18.5 46.8 16.9-4.9 34.3-34.9 34.3-34.9s-15.8 26.7-13.6 43c16.3-1.6 28.9-32.7 28.9-32.7l-6.5-24.5c-.1.1-17-9.1-24.6 2.3z"/><path class="st4" d="m346.6 567.1 27.3-40.8M366.2 576.9l22.4-39.7"/><path class="st5" d="m364.1 521.9 31.1 22.3 9.2-26.8-28-17.5c-4.3 7.9-8.4 15.4-12.3 22z"/><path class="st7" d="M430 387.4s-27.8 64.1-53.7 112.6l28 17.5 39.8-115.4-14.1-14.7z"/><path class="st4" d="m371.7 511.6 28.9 17.4"/><path class="st5" d="M448 550.3c-3.8 12-10.4 42.5-7.1 52.3 24-12.5 27.2-49.6 27.2-49.6s-3.8 41.4 9.8 58.8c10.4-11.2 15.8-43.6 15.3-55-.5-11.4-14.2-13.1-14.2-13.1h-19.6s-7.6-5.4-11.4 6.6z"/><path class="st4" d="m441.4 596.8 11.7-38.6M449 595.5l10.4-35.4M474.1 605.8v-43.6M481.7 604.2v-39.8"/><path class="st5" d="m448 550.3 45.2 6.5 5-26-43.4-3.3z"/><path class="st7" d="m512.8 410.8-25.6 8.7-32.4 108 43.4 3.3 9.1-47 13.7-9.3 9.2-24.5z"/><path class="st4" d="m452.3 538.8 42.5 3.8"/><circle class="st2" cx="415.3" cy="384.7" r="9.8"/><circle class="st2" cx="450.7" cy="413.5" r="9.8"/><circle class="st2" cx="491.5" cy="416.8" r="9.8"/><path class="st7" d="M458.3 373.5c5.9 5.1 41.6 4.4 57.4 3.8l-13.8-44.4-53.8 14.9c1.3 6.9 4.6 20.8 10.2 25.7z"/><path class="st2" d="M515.7 377.3c-15.7.5-51.5 1.2-57.4-3.8-5.6-4.8-8.9-18.8-10.2-25.7l-7.2 2-3.4 2.3c.9 8.3 4.1 24.4 14.9 30.4 13.4 7.5 48.3 5.7 61.1 4.8l3.2-6.9-1-3.1z"/><path class="st5" d="M452.3 382.5c-10.8-6-13.9-22.1-14.9-30.4L418 365s6 31.3 27.2 40.6 58.3 3 58.3 3l9.9-21.4c-12.8 1-47.7 2.7-61.1-4.7z"/><path class="st4" d="M426.2 359.6s6 24.5 22.3 35.4c14.4 9.6 59.4 3.8 59.4 3.8"/><path class="st0" d="M409.3 370.5c11.4 1.6 85.5-25.6 85.5-25.6l3.2-13-103.2 14c1.6 7.7 5.9 23.4 14.5 24.6z"/><path class="st2" d="m510.2 282.4 1.5-6s-18-53-20.2-53.5c-2.2-.5-80.1-7.1-80.1-7.1s-12-4.9-19.6 7.1c-10.4 15.3-4.6 28.1-6.3 31.9-1.1 2.5-16.7 10.8-28 20.2 17.4 2.6 74.6 10.2 152.7 7.4z"/><path class="st0" d="M411.5 312.2c32.2.8 71.6 2.5 90.6 3.3l8.2-33.1c-78.2 2.8-135.3-4.7-152.6-7.4-6.2 5.2-11.1 10.8-11.5 16 0 9.3 7.5 19.8 12.3 21 6.8 1.6 10.9-1.1 10.9-1.1s-.8 3.5-.9 7.1c3.5-2.7 13.9-6.5 43-5.8z"/><path class="st2" d="M411.5 312.2c-29-.7-39.4 3.1-43.1 5.7 0 1 0 2 .1 3 .5 4.4 5.4 18 9.8 20.7 4.4 2.7 15.8 0 15.8 0s.2 1.7.8 4.3l103.2-14 4.1-16.4c-19.1-.8-58.6-2.5-90.7-3.3z"/><path class="st4" d="M385.9 295.3c-1.6 3.8-2.2-6 8.7-6s12 15.3 2.7 15.3-20.2 2.7-28.1 6.3"/><path class="st9" d="M400.3 252.6c-1.5 2-1 18.4 14.4 22.9l5.5-21.3c-9.7-1.6-19.1-2.7-19.9-1.6z"/><path class="st8" d="M442.2 259.1c-.3-.8-11.4-3.2-22.1-5l-5.5 21.3c1.5.4 3.1.8 4.9 1 20.3 2 23.3-15.7 22.7-17.3z"/><path class="st4" d="M400.3 252.6c-1.6 2.2-.8 21.8 19.3 23.8 20.2 2 23.2-15.7 22.6-17.3-.5-1.6-40.3-8.7-41.9-6.5z"/><path class="st6" d="M411.2 257.7c0 4.7 3.8 8.4 8.4 8.4 4.7 0 8.4-3.8 8.4-8.4 0-.8-.1-1.6-.3-2.3-4.9-.9-10.4-1.8-15.1-2.5-.9 1.5-1.4 3.1-1.4 4.8zM366.8 323.1c2.2-3.8 34.3-4.4 36.5-1.6 2.2 2.7 6 9.8 2.7 10.9-3.3 1.1-6.5.5-7.6-1.9-2.2 1.9-6.5 2.5-7.6-.3-1.1 3.3-4.9 3.3-7.1.8-.5 3-3.3 4.1-6.5 1.9-1.1 3.3-4.4 4.9-8.2 3.3-3.8-1.7-4.4-9.3-2.2-13.1z"/><path class="st4" d="m396.8 320.9 1.6 9.6M388.6 320.4l2.2 9.8M380.4 320.9l3.3 10.1M372.2 322.6l4.9 10.3"/><path class="st0" d="M544.4 232.1c2.7 12-2.2 99.1-1.6 105.7s4.4 14.7 4.4 14.7 9.3 12.5 14.2 38.1c4.9 25.6.5 63.7 4.9 75.7-19.1 24-58.8 17.4-58.8 17.4s5.7-22.9 3.3-28.1c-3.2-6.8-15.8-35.1-19.6-88.5 10.4-15.8 8.2-77.9 8.2-77.9L497 243l-105.1-20.2 4.4-15.3-13.1-2.7 2.7-10.1 15.8-19.9 72.5 16.9 69.7 16.3c-.1.2-2.2 12.1.5 24.1z"/><path class="st4" d="M510.6 455.7c4.1 9.5 15.3 27 15.3 27M495.9 230.5l-99.7-22.9"/><path class="st6" d="M474.6 129.7s-28.9-34.3-33.8-43.6C432.1 73 449 62.7 459 68.9c10.1 6.3 27.5 47.7 27.5 47.7s-16.9-41.9-16.9-54.5 11.4-14.2 18-10.4c6.5 3.8 16.3 59.9 16.3 59.9l-10.4 13.1-18.9 5z"/><path class="st4" d="m448.5 81.2 33.2 45.8M478.5 63.8l21.2 56.1"/><path class="st7" d="M488.8 154.2s-18-15.8-17.4-25.6 34.3-24.5 43-15.8c8.7 8.7 4.9 34.9 4.9 34.9l-30.5 6.5z"/><circle class="st6" cx="509" cy="172.5" r="30.2"/><path class="st4" d="m488.8 154.2 4.4 7.7M495.9 146.6l4.4 10.3M505.2 144.4l1 10.9M514.4 143.9l-1.1 10.9M523.1 146.6l-3.2 9.8M529.1 152.6l-3.8 6"/><path class="st0" d="M389.4 180.6c-6.3-10.1-8.4-29.7 4.6-37.9s42-3.6 49 11.4c7.6 16.3 3.3 37.6 3.3 37.6l-13.1 6.5c0 .2-37.5-7.5-43.8-17.6z"/><path class="st4" d="M394.6 183.6s-3.8-26.1 1.1-32.1 33.9-5.3 39.8 8.7c5.4 13.1-2.2 32.7-2.2 32.7"/><circle class="st6" cx="416.1" cy="166.2" r="12.5"/><path class="st4" d="m404.9 167.6 5.5-4.7M411.5 174.4l3.2-7.6M420.9 174.9l-.6-8.1"/><path class="st0" d="M438.2 193.4s9.8-20.7 25.1-27.2 40.3 1.6 50.7 13.6c10.4 12 6 28.3 6 28.3l-9.8 12-49-11.4-23-15.3z"/><path class="st4" d="M449.6 196.7s7.6-20.2 24.5-22.9 37 16.9 37 16.9"/><circle class="st6" cx="483.4" cy="195.6" r="12.5"/><path class="st4" d="m477.9 192.9-3.8 7.6M483.1 195.6l-2.2 9.3M488.8 198.9l.6 7.9M525.3 338.9l-4.9-125.3M530.8 338.3V213.1M538.4 337.8l-1.1-123.1"/><circle class="st6" cx="529.9" cy="282" r="12.3"/><path class="st4" d="m537.6 288.8-1.4-8.2M529.7 292l.2-10M522.6 289.9l1.1-8.7M519.3 391.7c8.2 34.9 38.1 80.6 38.1 80.6M513.3 392.3c-.5 34.3 34.9 86.1 34.9 86.1M505.2 397.7c-.5 34.3 32.1 83.9 32.1 83.9M521 367.2c21.2 70.8 41.9 93.2 41.9 93.2M525.3 356.3c13.1 41.4 36.5 84.4 36.5 84.4M534.6 356.9c5.4 20.2 27.8 63.7 27.8 63.7M541.7 354.1c3.3 16.3 19.1 45.2 19.1 45.2"/><circle class="st6" cx="535.1" cy="407.1" r="12.9"/><path class="st4" d="m527.2 416 1.1-9.3M534.6 417.3v-9.8M542.7 414.6l-2.4-7.6"/><circle class="st6" cx="505.2" cy="384.5" r="16"/><circle class="st4" cx="505.2" cy="385.5" r="7.4"/><path class="st6" d="M513.9 338.3s42.5-7.6 46.3-5.4c3.8 2.2.5 9.8.5 9.8s4.9 10.9 1.6 13.6c-3.3 2.7-41.4 3.8-41.4 3.8l-7.1-9.3v-12.5z"/><path class="st4" d="m560.7 342.7-46.8 6.5"/><path class="st6" d="M489.4 354.7c-1.6.5-9 5.4-5.2 14.7 3.5 6.5 35.2 2.2 36.8-2.2 2.2-6-.5-12.5-3.8-14.2-7.3-3.6-8.7-6-8.7-6s-15.5 6.5-19.1 7.7z"/><path class="st4" d="m499.2 371-1.1-17.9M510.6 367.8l-2.2-16.4"/><path class="st7" d="m389.4 180.6-3.5 14.2s107.3 23.7 109.5 29.1c2.2 5.4-6 130.7-6 130.7l27.8-1.6s-2.2-122.6-4.4-135.6c-2.2-13.1-123.4-36.8-123.4-36.8z"/><circle class="st0" cx="500" cy="318.5" r="25.1"/><circle class="st0" cx="500" cy="318.5" r="14.4"/><circle class="st7" cx="500" cy="318.2" r="6.5"/><circle class="st7" cx="545.5" cy="197.8" r="38.9"/><path class="st2" d="M559.1 186.4s16.9-14.2 18-23.4c-3.8-.5-6.8-.5-7.9-6s3.5-8.4 11.7-7.4c10.4 1.4 10.4 14.4 1.1 25.9 21.8-3.8 32.1 13.6 36.5 14.7-1.6-4.4-1.6-7.6.5-9.8s6.5-2.7 10.4-.5c3.8 2.2 8.2 8.2 6.5 14.2-1.6 6-7.6 10.4-13.6 10.9s-22.9-19.6-35.7-17.7c-4.6.3-20.4 13.3-20.4 13.3l-7.1-14.2z"/><path class="st4" d="M577.1 162.9c3.3-.5 3.8-6.5 0-6.5M618.5 190.2c3.3 2.7 5.4 1.1 7.6-1.1M584.1 173.8l-17.9 17.5"/><circle class="st1" cx="545.5" cy="200.8" r="22.6"/><path class="st4" d="m374.3 143.8 5.3 2.8M371.9 153.2l4.9-1.3M375.5 160.7l4.1-3.5"/><path class="st7" d="m450.1 490.3 27.2-14.4c-5.9-18.2-22.9-31.3-43-31.3-6.8 0-13.2 1.5-19 4.2l7 35.6 27.8 5.9z"/><path class="st6" d="m450.1 490.3-27.8-6-7-35.6c-15.5 7.2-26.2 23-26.2 41.3 0 25.1 20.2 45.5 45.2 45.5 25 0 45.2-20.4 45.2-45.5 0-5-.8-9.7-2.2-14.2l-27.2 14.5z"/><circle class="st4" cx="433" cy="492.2" r="27.5"/><circle class="st2" cx="433" cy="492.8" r="19.3"/><circle class="st1" cx="433" cy="492.8" r="10.6"/><path class="st6" d="M699.6 590.6s-25.1-12.5-24-7.1c1.1 5.4 26.7 50.1 29.4 50.1 2.7 0 13.1-9.8 11.4-15.8l-16.8-27.2z"/><path class="st4" d="m684.9 582.9 25.6 44.7"/><path class="st2" d="m683.1 536.2-25.4 17 6.6 11.1 25.9-17.6zM674.4 581.4l1.3 2.1 23.9 7.1 1.1-28.4-.3-.5z"/><path class="st7" d="m690.2 546.7-25.9 17.6 10.1 17.1 26-19.7z"/><path class="st1" d="m650.7 501-7.7 1.3-2.8 5.6 24.7 40.4 10.8-7.1z"/><path class="st6" d="m635.9 516.5 21.8 36.7 7.2-4.9-24.7-40.4zM683.1 536.2l-24.9-36.6-7.5 1.4 25 40.2z"/><path class="st5" d="M642.3 517.6s-11.5 5.3-26.6 1.2c-20.2-5.4-15.3-43.2-2.2-53 3.3-7.1 1.1-20.2 7.1-24.5s19.6-8.2 28.9-4.9c9.3 3.3 19.1 20.2 19.1 20.2l-8.2 25.6-18.1 35.4z"/><path class="st5" d="M662.9 496.3c-8.2 4.9-5.7 28.3-11.2 28.9-10.9-2.2-5.4-7.1-9.8-10.9-4.4-3.8-26.7-2.7-28.3-18.5-1.6-15.8 13.6-24 20.7-24s28.3 13.6 28.3 13.6 8.4 6 .3 10.9z"/><path class="st2" d="M658.2 464.7s6.5-9.8 10.9-10.4c4.4-.5 9.5 6 6.8 10.9 5.7-1.1 17.2 2.2 20.4 12 3.3 9.8 1.1 22.3-2.7 25.6-1.6-5.4-6.5-7.7-12-8.7-8.7-1.6-10.8 6.2-18 6.8-19.1 1.6-31.6 5.2-37.6-.3-3.1-2.8-5.4-7.6-1.6-13.6 3.8-6 13.6-12 13.6-12l20.2-10.3z"/><path class="st4" d="M666.9 469.6c4.4-.5 7.1-1.1 9-4.4"/><path class="st8" d="M631.5 466.6c0 7.6 6 13.8 13.5 14.1l-1.2-28.2c-6.9 1-12.3 7-12.3 14.1z"/><path class="st9" d="M645.7 452.5c-.7 0-1.3.1-1.9.1l1.2 28.2h.7c7.8 0 14.2-6.3 14.2-14.2 0-7.8-6.4-14.1-14.2-14.1z"/><circle class="st4" cx="645.7" cy="466.6" r="14.2"/><circle class="st6" cx="645.7" cy="465.9" r="5"/><path class="st4" d="m655.5 442.4-2.2 4.9M645.7 436.9l-1.1 9.9M635.3 438l1.7 9.3M622.8 442.4l6 7.6M617.4 452.7l8.1 4.9M616.3 463.6l7.6 4.4M610.8 471.3l7.1 3.8"/></svg>