<svg version="1.1" id="Calque_1" xmlns="http://www.w3.org/2000/svg" x="0" y="0" viewBox="0 0 900 900" style="enable-background:new 0 0 900 900" xml:space="preserve"><style>.st0,.st1,.st2,.st3{fill:#ffce00;stroke:#000;stroke-width:4.1122;stroke-linecap:round;stroke-linejoin:round;stroke-miterlimit:10}.st1,.st2,.st3{fill:none}.st2,.st3{fill:#028293}.st3{fill:#fff}.st4{fill:red}.st4,.st5,.st6{stroke:#000;stroke-width:4.1122;stroke-linecap:round;stroke-linejoin:round;stroke-miterlimit:10}.st6{fill:none;stroke-width:5.483}</style><path class="st0" d="M252.3 126.2s-25.8 36.7-25.8 39.9c0 3.3 8.6 7.5 12.9 3.4 4.2-4.2 55.4-11.2 58.8-8.5 3.4 2.7 13.2-3.4 10.7-7.1-2.5-3.7-34.4-27.7-34.4-27.7h-22.2zM258.2 113.2s-1.6-50.7 1.9-50.7c3.6 0 6 50.4 6 50.4l-7.9.3z"/><path class="st1" d="M298.3 161.2 283.6 141M274.5 143.1l6.5 18.1M259.7 169.5l2.2-23.4M253.7 143.1l-14.1 26.4"/><path class="st0" d="m281 185.8 6.9-29.9c-4.2-1.2-8.8-1.9-13.4-1.9-7 0-13.6 1.5-19.5 4.1l17.3 29.1-7.5 6.3-31.1-14.8c-2.5 5.1-3.8 10.7-3.8 16.7 0 9.3 3.4 18.1 9.2 24.9l25.5-19.6 16.4-14.9zM272.2 204.5l-12.6 29.6c4.7 1.5 9.6 2.3 14.8 2.3 7 0 13.6-1.5 19.3-4.1l-14.8-28h-6.7v.2zM317.5 183.7l-32.5 6.7 2.5 8 27.4 15.1c2.9-5.5 4.5-11.5 4.5-18.1-.2-4.2-.8-8-1.9-11.7z"/><ellipse class="st1" cx="274.5" cy="195.3" rx="31.5" ry="29.1"/><path class="st2" d="m272.2 187.2-17.3-29.1c-9.5 4.2-17.1 11.5-21.4 20.4l31.1 14.8 7.6-6.1z"/><path class="st2" d="m285 190.4 32.5-6.7c-4.2-13.2-15.4-23.6-29.5-27.7l-6.9 29.9-16.6 14.8-25.5 19.6c5.2 6.3 12.5 11.2 20.8 14l12.6-29.6h6.9l14.8 28c9-4 16.4-10.8 20.8-19.1l-27.4-15.1-2.5-8.1z"/><ellipse class="st3" cx="274.5" cy="195.3" rx="14.4" ry="13.3"/><ellipse class="st3" cx="274.5" cy="195.3" rx="6.9" ry="6.3"/><circle class="st0" cx="264.5" cy="121.8" r="15.1"/><path class="st0" d="M479.9 561.6S458 637.4 458 641.5c0 4.1 135.4-6.6 135.4-6.6l-9.6-95.8-88.1-6.7-15.8 29.2z"/><path class="st0" d="m567.6 611.5 43.2 71.8 31.9-81.4z"/><path class="st0" d="m576.9 607.8 32.5 53.7 17.8-64z"/><path class="st0" d="m570.1 547-9.6 68.6 91.8-10.3-30.8-63.3z"/><path class="st0" d="M576.5 549.6c1.1 1.9 6.9 47.2 6.9 47.2l38.1-2.7 1.2-49.6-13.2 1.6v37.8l-17.7 1.4-3.2-35.6h-12.1z"/><path class="st0" d="M533.9 487c-.5 4.5-.4 73.7 11.1 68.7 11.5-5.1 100.7-6.4 100.7-6.4s-17.4-37.6-7.8-62.1c9.6-24.5-69.6-17-69.6-17L533.9 487z"/><path class="st0" d="M586.1 498.1v36.7l35.4-1 5.8-42.2-10.3.4-4.8 29.7-14-.4.7-27.1-12.8 3.9z"/><path class="st4" d="M284.6 701.9s-14-16.4-18-14.4c-4 2.1-3.2 19.2-4.1 23.7-9.7.5-21 5.5-30.8 11.4l14.7 24.1 35.9-17.7 2.3-27.1zM205.7 744.1c-2.1 5.5 14.7 15.4 14.7 15.4l25.8-12.7-14.7-24.1c-13.4 8.1-24.5 18.3-25.8 21.4z"/><circle class="st4" cx="267.3" cy="717.6" r="11.5"/><circle class="st4" cx="267.3" cy="717.6" r="4.8"/><path class="st3" d="M328.4 555.7s-16.9 34-29.1 73.1-21.7 87.7-21.7 87.7-11.7 6.2-20.6 9.6c-8.9 3.4-62.4 37.7-66.9 62.8-1.8 11.7 6.9 11 7.5 8 0 6.9 8 8.6 8.9 3.2.7 7.3 10.3 8.2 11 3.8 1.1 5.9 10.7 0 10.7 0l21.9-16.2s64.7-23.7 64.7-24.7-1.8-38.1-1.8-38.1-.7-37.7 40.8-80.6c24.7-26.7 24.7-54.8 24.7-54.8l-50.1-33.8z"/><path class="st1" d="M205.6 781.2s-7.7 6.9-7.7 15.5M211.2 784.9s-5.5 8.4-4.4 14.8M223 788.8s-7.8 5.6-5.2 14.5"/><path class="st3" d="M271.3 722.4c5.9 18.5 2.6 58.8 2.6 58.8s28.9-9.9 39.9-21.2c11-11.4-.1-39.1-.1-39.1s-31.5-3.8-42.4 1.5z"/><path class="st0" d="m382.3 501.9-67.9 49.3s47.7 39.1 72.4 46.3c2.7-26.7 32.6-58.4 32.6-58.4l-37.1-37.2z"/><path class="st1" d="M209.7 751.5c4-8.8 26.6-21.4 26.6-21.4"/><path class="st4" d="M275.4 709.9c-5.5 0-8.6 12.7-3.4 15.1s36.6-1.6 41.4-.4c4.8 1.4 7.1-11.1 1.6-12.9-5.4-1.8-34.1-1.8-39.6-1.8z"/><path class="st3" d="M231.8 795.1c-1.8 4.5-3.3 9 1.2 9.5 4.5.4 81.6-30.4 83.3-33.9 1.8-3.4 4.9-13.3-.3-13.3-5 .2-82.4 33.4-84.2 37.7z"/><path class="st4" d="M431.8 735s-13.8-7-16.6-3.4c-9.5 11.9-1.4 28.1 1.8 30.6-9.5 2.3-16.7 8.9-25.4 16.6l15.2 17.4 32.1-24-7.1-37.2z"/><path class="st4" d="M369.1 807.3c-1 5.8 15.9 8.5 15.9 8.5l21.8-19.9-15.2-17.4c-14.4 10.7-21.9 25.5-22.5 28.8z"/><path class="st3" d="M446.7 516.6s-54.3 39.9-42.9 79.2c26.5 91.6 26.5 169 26.5 169s-7 9.7-15.1 14.7c-8.1 4.9-44.3 41.8-45.6 48.7-1.4 6.9 0 11.1 5.5 9-.3 5.9 5.8 8.2 8.6 4.4 0 5.6 6.6 9.5 8.9 3.8 1.4 5.5 6.9 6.2 8.8 1.2 1.9-4.9 16.9-11.5 16.9-11.5s59.4-35.1 59.2-36.1-8.6-37.1-8.6-37.1-9.6-47.7-2.3-79.2 26.7-133 26.7-133l-46.6-33.1z"/><circle class="st4" cx="422" cy="766.2" r="11.5"/><circle class="st4" cx="422" cy="766.2" r="4.8"/><path class="st1" d="M374.3 814.1c2.3-9.3 22.3-29.7 22.3-29.7M385 821.3s-11.7 7.4-10 15.9M389.7 825.7s-7.5 8-6 15.9M399.1 829.3s-10.8 8-6.6 16.2"/><path class="st3" d="m468.2 758.1-41.1 10.7c-2.6 3-6.4 7-10.7 9.9 7.3 12.2 22.6 39.1 22.5 45.9-.1 8.9 28-15.1 36.6-28.1 8.6-13-7.3-38.4-7.3-38.4z"/><path class="st4" d="M425.9 754.8c-5.3 1-6.2 14-.5 15.5 5.5 1.4 38.4-8.9 43.5-8.4 5.1.5 4.9-12.3-.7-13-5.9-.8-37 5-42.3 5.9z"/><path class="st3" d="M400.8 841.6c-1 4.7 1.5 8.1 6 7.7 4.5-.4 72-44.5 73.1-48.3s2.9-12.6-2.3-11.7c-5.1 1-76 47.6-76.8 52.3zM249.6 236.8s16.7 27.7 21.9 50.9-16.4 67.9-16.4 67.9 46.6 2.7 78.1-8.9c0 0-20.1-42.4-24.9-70.6s1.6-45.6 1.6-45.6l-60.3 6.3z"/><path class="st3" d="M209.2 271.2c-3.4 1.1-2.7 8.2 0 11 2.7 2.7 61.8-3.6 90.7-6.2s80.2-.4 82.9-2.1c2.7-1.6 3.2-11.9 0-11.9s-62.1-1.1-85.3 2.3-84.9 5.8-88.3 6.9z"/><path class="st1" d="M279.1 322.2c-2.2 15.6-9.6 33.4-9.6 33.4M292.8 322c0 10 .4 31.7.4 31.7M304.4 320.9c3.8 15.6 12.7 30.3 12.7 30.3"/><path class="st3" d="M266.2 270.7c-1.8 7-1.1 21.9 5.9 28 6.6 5.8 10 2.1 10-3.7 5.2 3.7 8.5 1.6 8.6-2.3 4.7 4.2 12.7 1.6 12.7-1.4 0-1.5-6-7.5-8.4-14.4-2.1-6.3 1-13.6-.4-14-2.9-.8-7-2.7-10 2.7-.3-4.5-8.1-5.1-10 .3-2.7-.1-6.5-2.2-8.4 4.8z"/><path class="st1" d="M282.2 295c-7.7-5.2-8.8-20.1-7.3-29.1M285 265.8c-2.7 7.5.5 23 5.9 27"/><path class="st3" d="M451.1 540.6c32.2 9.3 57.2 35.9 60.6 35.9.7 0 1.5-3.4 2.3-8.9-8.9-7.4-32.6-26.2-48.5-31.9-20-7.3-36.1-8-56.2-19.6-15.8-9-23.4-45.6-26-61.1l-5.9 2.3c2.9 14.3 9.3 42.2 17.8 54.4 11.8 16.8 23.7 19.6 55.9 28.9z"/><path class="st3" d="M529.5 481c-.5 1.2-1.2 2.7-1.9 4.2-7 16.7-10.6 62.9-13.4 82.4-.8 5.5-1.5 8.9-2.3 8.9-3.4 0-28.4-26.7-60.6-35.9-32.2-9.3-44.3-12.1-55.9-28.8-8.5-12.2-14.9-40.2-17.8-54.4l-7.5 2.9s.4 45 25.4 68.3c24.9 23.3 31.1 16.2 62.4 27.4 31.3 11.2 56.5 38.1 62.4 38.1s5.9-83.5 13.4-102.5c-1.9-3.4-3.1-6.9-4.2-10.6z"/><path class="st0" d="m526.9 416.5-82.7-6.7-45 38.9-16 6.3c2.6 15.5 10.3 52.1 26 61.1 20.3 11.7 36.2 12.3 56.2 19.6 15.9 5.8 39.6 24.5 48.5 31.9 2.9-19.5 6.4-65.7 13.4-82.4.7-1.6 1.2-3 1.9-4.2-8.6-29.6-2.3-64.5-2.3-64.5z"/><path class="st5" d="M552.1 444.9c-5.2 3.4-4.7 26.5-4.1 36.9 9.6 11.8 27.7 22.2 54 20 41.5-3.4 53.9-21.5 60.7-31.9 2.7-4.1 5.1-10.1 7.1-17.4-11.9-6-29.9-13.8-53.6-20.6-4.2 21.9-57.5 8.6-64.1 13z"/><path class="st0" d="M691.4 233.4c-7.5-9.5-25.4-6.9-37.7-4-12.3 2.7-33.4 24.7-47.6 58.7-19.6 47-37.7 65.8-35.2 79.2 3.7 21.2 51 22.3 45.5 64 0 .3-.1.5-.1.8 23.6 6.9 41.5 14.7 53.6 20.6 3.2-11.2 5.6-25.6 7.3-41.1 2.7-25.5-8.9-51.3-23.3-55.4-14.4-4.1-11.9-38.8-7.8-66.2 4.1-27.6 17.4-36.9 32.6-45 8.2-5.6 5.8 4.5 11 4.2 5.1-.2 9.2-6.5 1.7-15.8z"/><path class="st3" d="M556.6 378.8c-1 1.1-11 12.5-9 17.8 1.9 5.3 5.6 5.5 9 2.7 0 6.9 7.3 9.7 11 6.2-1.1 6 3.8 9.2 9.6 6 5.9-3.3 9.2-19.1 9.2-19.1l12.1 13.4s-12.7 8.2-15.1 12.1c-2.3 3.8 1.1 7.1 4.8 7.1s17.5-4.9 17.5-4.9l-4.1-20.8-29.2-20.6-15.8.1h0z"/><path class="st1" d="m567.6 405.6 6.9-17.2M563.5 386l-6.9 13.4"/><path class="st3" d="M609.4 434.2s1.8 9.7 12.1 11.8c10.3 2.1 15.8-4.5 15.8-4.5l3.8-27.4-26.5-2.6-5.2 22.7z"/><path class="st3" d="M593.4 388.4c2.3-.4 11.1 12.9 18.5 25.1s26.7 6.6 26.7 6.6l6.6-16.3-12.3-17.8s-22.6-3.4-23.7-3.4c-1.1-.1-15.8 5.8-15.8 5.8z"/><path class="st3" d="M619 382.5s-4.8 14.9 2.5 23c7.1 8 19.5 6 19.5 6l-.7-20.4-21.3-8.6z"/><path class="st6" d="m648.5 382.5 15.8-3.7M656.4 394.2l13.3-3.7"/><path class="st1" d="M653.7 356.2c-16.4-5.5-79.6-6.4-81.3-.4"/><path d="M595.2 76.6c21-1 16.9 11.4 59.9 21s50.7-22.3 50.7-22.3-16 16-42.1 11.4c-26-4.5-51.1-41.5-82.7-36.1-17.1 3-31.4 17-40.7 31.4l41.9 28.4c2.9-1.4 6.2-2.1 9.6-2.1 19.6 0 21 15.9 49.8 30.2 28.8 14.1 52.1-7.8 52.1-7.8s-22.9 5.1-42.5-1.8c-19.6-6.9-20.6-29.7-42.1-42.1-21.5-12.3-50.3 6.4-50.3 6.4s15.4-15.6 36.4-16.6z" style="fill:#1f8e00;stroke:#000;stroke-width:4.1122;stroke-linecap:round;stroke-linejoin:round;stroke-miterlimit:10"/><path class="st0" d="M528 113.2c0 14.7 33.3 20.1 33.3 20.1s7.4-17 21-23l-42.1-28.4C532.5 94 528 106.5 528 113.2z"/><path class="st1" d="M549.2 88s18.1-25.5 39.6-25.5 40.2 21.9 71 29.2c30.8 7.4 45.9-16.4 45.9-16.4M571 102.6s14.7-11.7 28.8-8.2c14.1 3.4 31.5 35 52.1 41.1 20.6 6.2 42.1-5.1 42.1-5.1"/><path class="st0" d="m353.5 103.1-19.2 27s2.2 1.4 5.8 3.7l19.7-24.7-6.3-6zM359.8 109.2l-19.7 24.7c2.5 1.6 5.6 3.6 9 5.8l18-23.4-7.3-7.1z"/><path class="st0" d="m367.1 116.2-18 23.4c3.2 2.1 6.6 4.2 10.1 6.4l16.3-21.7-8.4-8.1zM375.6 124.4l-16.3 21.7c18.6 11.8 41.4 25.9 43 25.4l14.1-7.5-40.8-39.6zM381.6 69.9l-19.2 27s2.2 1.4 5.8 3.7l19.7-24.7-6.3-6z"/><path class="st0" d="m387.9 75.9-19.7 24.7c2.5 1.6 5.6 3.6 9 5.8l18-23.4-7.3-7.1z"/><path class="st0" d="m395.2 83-18 23.4c3.2 2.1 6.6 4.2 10.1 6.4l16.3-21.7-8.4-8.1zM403.7 91.3 387.4 113c18.6 11.8 41.4 25.9 43 25.4l14.1-7.5-40.8-39.6zM486.2 251.6c0 3.2-13 7.5-11.2 11 1.8 3.4 27.1 4.5 33.9 8.6 1.5 1 3.8 2.7 6.3 4.8 3.2-19.5 4.7-41.5 4.7-41.5l-65.4-40-13.7 20.5-5.3 15.5-13 8.6s16.7 15.5 31.9 16.9c15.3 1.5 31.8-7.6 31.8-4.4z"/><path class="st5" d="M508.8 271.2c-6.7-4.1-31.9-5.2-33.9-8.6s11.2-7.8 11.2-11-16.4 5.9-31.8 4.5c-15.4-1.4-31.9-16.9-31.9-16.9 3.8 3.3 2.3 37 7.3 41.1s12.7 1.8 18.8 5.5c5.9 3.7 0 15.1 10.7 17.8 10.7 2.7 13.4-5.5 17.4-4.5 3.8 1 6.6 2.3 5.2 7.3 6.4-4.5 16.6 5.5 25.1-2.7 3.4-3.3 6-14.9 8.1-27.7-2.4-2-4.5-3.8-6.2-4.8z"/><path class="st3" d="m426 262.6 20.7-2.3s1.6 8.2-3.8 9.6c-5.5 1.4-7.4-8.4-7.4-8.4s.3 9.7-4.4 9.7-5.1-8.6-5.1-8.6zM390.1 151.6c8.2 32.6 35.2 40.8 35.2 40.8l10.3-18.2c-.1 0-13.1-20.8-45.5-22.6z"/><path class="st1" d="M427.1 184.5s-10 4.5-26.5-23.3c12.2.4 31.9 18.4 31.9 18.4l-5.4 4.9z"/><path class="st3" d="M418.2 118.3c8.2 32.6 35.2 40.8 35.2 40.8l10.3-18.2c-.1 0-13.1-20.7-45.5-22.6z"/><path class="st1" d="M455.2 151.2s-10 4.5-26.5-23.3c16 2.7 31.9 18.4 31.9 18.4l-5.4 4.9z"/><circle class="st2" cx="435.5" cy="187.2" r="13"/><circle class="st2" cx="463.6" cy="153.9" r="13"/><path class="st4" d="M507 123.2c.4-2.7 1-27 5.8-27s73.7 50.3 73.7 55.2c0 5.1-12.3 12.3-12.3 12.3L507 123.2z"/><circle class="st4" cx="547.6" cy="123.2" r="13.7"/><path class="st0" d="m483.7 146.5-.4-16s-1.8-19.6 1.8-22.3c3.7-2.7 14.1-1.4 16.9 5.1 10.7-5.1 25.1 6.4 24.7 17.4 8.2-5.9 25.1 1.4 24.3 12.3 13.3-3.2 28.8 9.6 23.3 21 4.5 0 9.6-.4 12.7 1.4 3.2 1.8 6.4 13.3 4.5 16.4-1.8 3.2-15.1 6.9-15.1 6.9L496.9 163l-13.2-16.5z"/><path class="st1" d="m574.2 163.9-10.6 20.6M537.5 168.4l13.4-25.6M526.6 130.5l-7.2 21.1M498.8 147.6l3.2-34.4"/><path class="st2" d="M576.5 188.6c-19.6-16.4-93.2-58-93.2-58l-5.6 11.5 93.6 55.9c1.7-3.2 3.4-6.4 5.2-9.4z"/><path class="st3" d="M477.6 142 449 200l90.5 46.6s17.5-24.4 31.8-48.7L477.6 142z"/><circle class="st2" cx="486.2" cy="192.4" r="17.1"/><circle class="st3" cx="486.2" cy="192.4" r="8.2"/><circle class="st2" cx="528" cy="217.4" r="17.1"/><circle class="st3" cx="528" cy="217.4" r="8.2"/><path class="st4" d="M558.2 216.3c8 4.2 11-7.4 6.6-10-4.4-2.6-85.8-54.8-91.8-54.8s-13.6 8.8-7 12.3c7.7 4.2 84.2 48.2 92.2 52.5zM443 185.8c-2.7 0-7.8 4.5-4.5 9.6 3.2 5.1 92.7 52.1 99 54.8 6.3 2.7 10.8-7.1 6.3-9.6-4.7-2.5-98-54.8-100.8-54.8z"/><path class="st4" d="M558.2 216.3c8 4.2 11-7.4 6.6-10-4.4-2.6-85.8-54.8-91.8-54.8s-13.6 8.8-7 12.3c7.7 4.2 84.2 48.2 92.2 52.5z"/><path class="st0" d="M435.5 241.1s5.5 3.2.5 6.4c-4.9 3.2-6.7-2.3-10.4-2.3s-9.3 4.5-9.6 0c0-9.6 17.4-15.9 19.5-22.3-1.1-8.2 13-26 13-26l25.1 12.7"/><path d="M435.5 222.9c18.5-.1 67.4 30.3 74.3 28" style="fill:none;stroke:#000;stroke-width:4.1122;stroke-miterlimit:10"/><path class="st1" d="M455.9 217.4c17.8-3.2 27 16 27 16M455.9 248.5l17.8-1.4"/><path class="st3" d="M451.9 228.3c17.5-9.3 30.8 11.4 30.8 11.4s-23.6 6.5-30.8-11.4z"/><circle class="st3" cx="466.3" cy="233.5" r="5.6"/><path class="st3" d="M584.5 386s21.2-10.3 37-8.6c15.8 1.8 25.9 7 27.7 21.9 2.2 17.4-5.2 26.9-4.1 32.9 3.4-4.5 13.4-2.2 14.1 6.9s-5.5 10.7-10 10.7-13.3-.7-16-8.9c-2.7-8.2 5.5-20.7 4.1-34.3-1-10-2.7-16.4-17.1-18.2s-26.7 2.1-26.7 2.1l-9-4.5z"/><path class="st4" d="M704.4 230.8c-6.4-10.3-21-15.6-48-13.4-21 1.6-41.4 21.2-62 70.7s-47.6 78.5-41 93.6 24.8 11.1 37.1 20.3c12.5 9.2 13.4 29.5 8.2 32.2-5.2 2.7-46.7-2.1-50.7 0s-8.6 13.3-8.6 28.4c0 5.5 2.7 12.6 8.4 19.5-.5-10.4-1-33.4 4.1-36.9 6.7-4.5 61.3 9.3 64.3-13.7 5.5-41.8-43.9-44.4-45.5-64-1.2-13.4 15.8-32.2 35.2-79.2 14.1-34 35.2-55.9 47.6-58.7 12.3-2.7 30.2-2.6 37.7 6.7 7.5 9.3 3.2 13-2.1 13.2-5.2.1-2.7-9.9-11-4.2-6.2 5.8-1.1 12.5 7.1 14.1 8.2 1.6 19.9-.3 23.3-8.1 3.6-7.9-.2-14.3-4.1-20.5z"/><path class="st3" d="M645.1 432.3c-5.6 4.9.7 9.7.7 9.7"/><path class="st1" d="M481.9 306.5c.3-.8.3-1.5.3-2.1-.1.6-.3 1.2-.3 2.1z"/><path class="st3" d="M529.9 367.2c-2.9-17.3-15.9-51.7-21.4-65.7-.5.8-1 1.6-1.5 2.1-8.5 8.2-18.8-1.8-25.1 2.7-1 9.2-6.4 14.7-19.6 21.5-13.3 6.9-18.5 8.2-28.1 15.5-9.6 7.3-25.4 39.3-25.4 39.3s-4.8-38.5-39.8-72-61.7-64.8-67.2-64.3-10 8-5.5 13.7c4.5 5.6 9.9 7.7 11.8 15.8h.1c2.2 12.7 7.4 28.4 12.6 41.7 9.3 2.7 19.5 7.3 26.2 14.8 15.4 17.4 36.6 100.5 37 113.5.4 13 17.3 15.1 27 8s31.8-27.8 42.9-31.9c11.1-4.1 52.2-10.3 77.2-12.3.2.1 2.4-20.5-1.2-42.4z"/><path class="st3" d="M504.7 227.9s-12.3 61.5-4.4 72.1c8 10.6 27.7 11.4 39.9 10.6-9-25.1-4.1-68.1-4.1-68.1l-31.4-14.6z"/><path class="st4" d="M443 185.8c-2.7 0-7.8 4.5-4.5 9.6 3.2 5.1 92.7 52.1 99 54.8 6.3 2.7 10.8-7.1 6.3-9.6-4.7-2.5-98-54.8-100.8-54.8z"/><path class="st3" d="M443.3 376.8s13.4 13.7 7.3 55.5c-6.2 41.8-11.4 59.4-10.3 59.4h74s-6.9-38.1-7.5-63.1c-.7-24.9 5.8-51.8 5.8-51.8h-69.3z"/><path class="st1" d="m463.2 455.6-3.5 35.9M479.5 455.6v35.9M495.6 455.6l3.5 35.9"/><path class="st3" d="M429.2 403.8c-4.8 0-4.1 12.6-.4 14.1s110.3 2.3 114 2.3c3.7 0 2.1-12.9 0-14.7-2.1-1.7-108.8-1.7-113.6-1.7z"/><circle class="st3" cx="482.2" cy="411.6" r="13.6"/><circle class="st3" cx="323.3" cy="448.8" r="60.3"/><circle class="st0" cx="323.3" cy="448.8" r="49.3"/><circle class="st2" cx="323.3" cy="448.8" r="13.7"/><path class="st2" d="M286.2 481.2c5.2-5.3 8.5-12.6 8.5-20.7 0-12.3-7.5-22.8-18.2-27.1-1.6 4.8-2.5 10-2.5 15.4 0 12.4 4.7 23.7 12.2 32.4zM290.9 411.6c5.3 5.3 12.6 8.5 20.7 8.5 12.3 0 22.8-7.5 27.1-18.4-4.8-1.6-10-2.5-15.4-2.5-12.4.2-23.8 4.9-32.4 12.4zM361.9 417.9c-3.4 4.8-5.3 10.6-5.3 16.9 0 11 6 20.4 14.8 25.5 1-3.7 1.4-7.5 1.4-11.5-.1-11.7-4.2-22.4-10.9-30.9zM333.2 472.5c-13.7 0-25.1 9.3-28.4 21.9 5.8 2.3 11.9 3.6 18.4 3.6 13 0 24.9-5.1 33.7-13.3-5.2-7.3-13.8-12.2-23.7-12.2z"/><path class="st3" d="M532 496.5s-11.2 36.3-1.9 57.2c9.3 20.8 22.2 31.9 26 30.2 3.8-1.8-9.9-36.3-13.3-53.9-3.4-17.5-3.4-35.6-3.4-35.6l-7.4 2.1z"/><path class="st3" d="M545.3 485.4c-4-5.9-14.8-5.2-21.7-4.1 4.5 11.4 11.2 22.3 19.3 22.3 4.2 0 7.1-2.7 9-6.9-1.8-3.5-4.2-7.8-6.6-11.3z"/><path class="st3" d="M553.6 460.3c-1.8-4.7-33.6-9.5-35.6-4.7-.7 1.5 0 6.7 1.6 13.2 7.5-1 20.7-2.1 25.6 2.2 4.8 4.2 2.7 12.1 1.1 16 2.1 3.2 4.1 6.6 5.8 9.7 5.1-11.3 2.8-32.9 1.5-36.4z"/><path class="st3" d="M545.3 471c-4.8-4.2-18.1-3.3-25.6-2.2 1 3.8 2.3 8.2 4 12.5 6.9-1.2 17.5-1.8 21.7 4.1.4.5.7 1.1 1.1 1.6 1.4-4 3.6-11.8-1.2-16z"/></svg>