<svg version="1.1" id="Calque_1" xmlns="http://www.w3.org/2000/svg" x="0" y="0" viewBox="0 0 900 900" style="enable-background:new 0 0 900 900" xml:space="preserve"><style>.st0,.st1,.st2,.st3,.st4,.st5,.st6,.st7,.st8{fill:#fff;stroke:#000;stroke-width:4.874;stroke-linecap:round;stroke-linejoin:round;stroke-miterlimit:10}.st1,.st2,.st3,.st4,.st5,.st6,.st7,.st8{fill:red}.st2,.st3,.st4,.st5,.st6,.st7,.st8{fill:#ffce00}.st3,.st4,.st5,.st6,.st7,.st8{fill:none}.st4,.st5,.st6,.st7,.st8{fill:#fff;stroke-width:4.7814}.st5,.st6,.st7,.st8{fill:none;stroke-width:4.2048}.st6,.st7,.st8{fill:#ff7300;stroke-width:4.874}.st7,.st8{fill:#592800}.st8{fill:#00750b}.st9{fill:#fff}.st10{fill:#ff7300}.st12,.st14{fill:#0045aa;stroke:#000;stroke-width:4.874;stroke-linecap:round;stroke-linejoin:round;stroke-miterlimit:10}.st14{fill:none;stroke-width:3.0462}</style><circle class="st0" cx="543.7" cy="752.1" r="7.3"/><circle cx="543.7" cy="752.1" r="2.3"/><circle class="st0" cx="563.2" cy="778.9" r="7.3"/><circle cx="563.2" cy="778.9" r="2.3"/><circle class="st0" cx="594.1" cy="774.8" r="7.3"/><circle cx="594.1" cy="774.8" r="2.3"/><circle class="st0" cx="630.6" cy="804.5" r="7.3"/><circle cx="630.6" cy="804.5" r="2.3"/><circle class="st0" cx="615.2" cy="825.6" r="7.3"/><circle cx="615.2" cy="825.6" r="2.3"/><circle class="st0" cx="489.3" cy="831.7" r="7.3"/><circle cx="489.3" cy="831.7" r="2.3"/><circle class="st0" cx="466.6" cy="842.7" r="7.3"/><circle cx="466.6" cy="842.7" r="2.3"/><circle class="st0" cx="482.8" cy="794.3" r="7.3"/><circle cx="482.8" cy="794.3" r="2.3"/><circle class="st0" cx="439.7" cy="787" r="7.3"/><circle cx="439.7" cy="787" r="2.3"/><circle class="st0" cx="429.1" cy="755" r="7.3"/><circle cx="429.1" cy="755" r="2.3"/><circle class="st0" cx="363.8" cy="763.5" r="7.3"/><circle cx="363.8" cy="763.5" r="2.3"/><circle class="st0" cx="351.6" cy="805.3" r="7.3"/><circle cx="351.6" cy="805.3" r="2.3"/><path class="st1" d="M422.7 790.3c-2.5-4.1-10.1-.9-14.7 1.5-.7 1.8-1.2 2.7-1.2 2.7s5.5 9.7 11.6 13.4c6.1 3.7 51.2 5.5 56.1 7.3 3 1.1 6.6 2.3 9.4 3.8 2.3-3.6 6.6-10.7 10.1-17.2-28.1-9.1-67.7-5.4-71.3-11.5z"/><path class="st1" d="M408.1 779.9s12.2-1.8 14.6.6c2.4 2.4.6 5.5 0 9.7s-18.9 7.3-18.9 7.3l4.3-17.6z"/><path class="st1" d="M409.9 769s8.5-8.5 15.2-6.7 6.7 3.7 7.3 11c.6 7.3-9.1 10.4-9.1 10.4l-19.5 1.8 6.1-16.5z"/><path class="st1" d="M419.8 774c-7.3 2.4-16 11.4-16 11.4M614 781.2c-26.8-.6-65.8 7.9-65.8 7.9l-13.5 4.1.1.7s7.9 5.5 34.7 7.3c26.8 1.8 34.1-2.4 39.6-2.4 0 0 6.7-7.3 4.9-17.6zM529.3 773.8s11-9.1 18.3-6.1c7.3 3 4.3 12.8-2.4 18.9l-17.1 1.8 1.2-14.6z"/><path class="st1" d="M542.7 775.2c-5.3.8-10.4 11.8-10.4 11.8M533.6 788.6s8.5-7.5 11.6-5.1c3 2.4 1.8 3.2 1.8 7.5s-12.8 6.5-12.8 6.5l-.6-8.9z"/><path class="st2" d="m380 738.5-10.4 49.3 12.2 43.3s60.3 9.7 74.9 5.5c3.7 3 9.1-2.4 9.1-2.4s6.7 3.7 10.4 2.4c3.7-1.2 3-4.3 3-4.3s10.4-.6 8.5-9.7c-1.8-3.7-8.5-5.5-13.4-7.3-4.9-1.8-50-3.7-56.1-7.3-6.1-3.7-11.6-13.4-11.6-13.4s10.4-22.5 12.8-54.2c2.7-31.7-39.4-1.9-39.4-1.9z"/><path class="st3" d="M460.5 826.8c6.1 1.6 5.5 7.3 5.5 7.3M472.2 824.4c6.1 1.6 7.1 7.9 7.1 7.9"/><path class="st4" d="M388 832.9c-3.8-19.1 7.3-36.6 7.3-36.6s-17.1-1.2-25.6-6.1c-9.1 4.9-13.4 28.6-11 33.5s16.4 8.5 16.4 8.5 8.6.7 12.9.7z"/><path class="st2" d="m490.3 731.8 9.1 56.1 29.9 42 63.4-1.8s7.9 3.7 6.7-5.5c5.5 4.3 6.7-3 6.7-3s7.3 2.4 9.1-5.5c5.5-2.4 10.4-7.9 9.1-10.4-1.2-2.4-9.7-4.9-15.2-4.9s-12.8 4.3-39.6 2.4c-26.8-1.8-34.7-7.3-34.7-7.3l-3.7-69.5-40.8 7.4z"/><path class="st3" d="M599.4 822.6c-2-3.8-6.9-3.8-6.9-3.8M603.4 807.7s6.9-1.2 11.8 6.3M597.7 813.4s6.9-.4 9 6.9"/><path class="st4" d="M508.6 797c-9.7 19.5 3.7 32.3 3.7 32.3l17.7 4.3s9.7-1.2 11-7.3c-6.7-14-6.3-33-6.3-33s-18.2 1.9-26.1 3.7z"/><path class="st0" d="M358.7 823.8c1.2 0 24.4 4.9 49.3 8.5 25 3.7 42.6-3 46.3-1.8 3.7 1.2 3 3 2.4 6.1-.6 3-32.3 4.3-50 3-17.7-1.2-45.7-7.9-49.3-9.7-3.6-1.8 1.3-6.1 1.3-6.1z"/><path class="st4" d="M589 832.1c3-.6 3.7-7 .6-6.5-9.7 1.2-79.2 1.2-79.2 1.2s-1.2 7 3.7 8.8c4.8 1.7 71.9-3 74.9-3.5z"/><circle cx="513.2" cy="785.6" r="2.3"/><circle cx="500.9" cy="742.5" r="2.3"/><circle cx="507.1" cy="741.1" r="2.3"/><circle cx="514.9" cy="739.9" r="2.3"/><circle cx="523.4" cy="737" r="2.3"/><circle cx="524.2" cy="744" r="2.3"/><circle cx="513.6" cy="748" r="2.3"/><circle cx="509.4" cy="752.1" r="2.3"/><circle cx="500.7" cy="752.1" r="2.3"/><circle cx="505.9" cy="759.8" r="2.3"/><circle cx="500.7" cy="764.7" r="2.3"/><circle cx="510" cy="768.4" r="2.3"/><circle cx="506.2" cy="773.6" r="2.3"/><circle cx="505.1" cy="782.6" r="2.3"/><circle cx="512.9" cy="776.9" r="2.3"/><circle cx="520.2" cy="781.3" r="2.3"/><circle cx="526.6" cy="777.3" r="2.3"/><circle cx="524.2" cy="770.4" r="2.3"/><circle cx="518.9" cy="774" r="2.3"/><circle cx="515.7" cy="767.5" r="2.3"/><circle cx="519.7" cy="760.2" r="2.3"/><circle cx="513.2" cy="758.2" r="2.3"/><circle cx="520.5" cy="751.7" r="2.3"/><circle cx="384.9" cy="748.9" r="2.3"/><circle cx="391" cy="751.3" r="2.3"/><circle cx="398.3" cy="750.1" r="2.3"/><circle cx="406" cy="750.9" r="2.3"/><circle cx="412.5" cy="752.1" r="2.3"/><circle cx="410.5" cy="760.2" r="2.3"/><circle cx="402.8" cy="758.6" r="2.3"/><circle cx="397.5" cy="763.9" r="2.3"/><circle cx="388.9" cy="758.6" r="2.3"/><circle cx="380.8" cy="764.7" r="2.3"/><circle cx="388.9" cy="766.3" r="2.3"/><circle cx="384.9" cy="773.2" r="2.3"/><circle cx="380" cy="778.9" r="2.3"/><circle cx="388.1" cy="780.5" r="2.3"/><circle cx="393.4" cy="774.8" r="2.3"/><circle cx="405.2" cy="804.1" r="2.3"/><circle cx="396.2" cy="807.4" r="2.3"/><circle cx="406" cy="814.2" r="2.3"/><circle cx="412.1" cy="807.7" r="2.3"/><circle cx="421" cy="811.4" r="2.3"/><circle cx="429.1" cy="815.5" r="2.3"/><circle cx="437.7" cy="813.8" r="2.3"/><circle cx="443.8" cy="816.7" r="2.3"/><circle cx="451.5" cy="815.5" r="2.3"/><circle cx="450.7" cy="822.3" r="2.3"/><circle cx="458" cy="822" r="2.3"/><circle cx="465.3" cy="820.3" r="2.3"/><circle cx="542.5" cy="803.7" r="2.3"/><circle cx="543.3" cy="808.9" r="2.3"/><circle cx="549.4" cy="813" r="2.3"/><circle cx="544.9" cy="819.1" r="2.3"/><circle cx="550.6" cy="822.8" r="2.3"/><circle cx="554.7" cy="816.7" r="2.3"/><circle cx="557.1" cy="823.2" r="2.3"/><circle cx="557.1" cy="823.2" r="2.3"/><circle cx="562.4" cy="818.7" r="2.3"/><circle cx="558.7" cy="810.6" r="2.3"/><circle cx="553.4" cy="804.9" r="2.3"/><circle cx="562" cy="804.9" r="2.3"/><circle cx="568.5" cy="807.7" r="2.3"/><circle cx="564" cy="812.2" r="2.3"/><circle cx="568.9" cy="817.9" r="2.3"/><circle cx="572.6" cy="822.8" r="2.3"/><circle cx="580.7" cy="822.2" r="2.3"/><circle cx="572.6" cy="812.2" r="2.3"/><circle cx="575.4" cy="805.3" r="2.3"/><circle cx="581.9" cy="805.7" r="2.3"/><circle cx="579.4" cy="813" r="2.3"/><circle cx="585.5" cy="815.5" r="2.3"/><circle cx="588.4" cy="822.3" r="2.3"/><circle cx="588.4" cy="807.7" r="2.3"/><circle cx="592.4" cy="812.6" r="2.3"/><circle cx="595.7" cy="806.1" r="2.3"/><circle cx="601.8" cy="801.6" r="2.3"/><circle cx="443.4" cy="823.2" r="2.3"/><circle cx="423.5" cy="820.8" r="2.3"/><circle cx="418.6" cy="825.6" r="2.3"/><circle cx="424.7" cy="830.5" r="2.3"/><circle cx="430.4" cy="823.2" r="2.3"/><circle cx="417.4" cy="816.2" r="2.3"/><circle cx="412.5" cy="821.1" r="2.3"/><circle cx="437.3" cy="822" r="2.3"/><circle cx="404" cy="824.4" r="2.3"/><circle cx="409.7" cy="828.9" r="2.3"/><circle cx="396.7" cy="825.2" r="2.3"/><circle cx="400.8" cy="817.9" r="2.3"/><circle cx="393.8" cy="816.2" r="2.3"/><circle cx="397.9" cy="781.8" r="2.3"/><circle cx="405.2" cy="770.8" r="2.3"/><circle cx="526.6" cy="755.3" r="2.3"/><circle cx="527.1" cy="763.9" r="2.3"/><path class="st1" d="M409.3 787.9c-9.7 3-34.1 0-39.6-8.5-6.7 0-11.6 7.9-4.3 13.4s37.8 6.7 42 4.3c4.3-2.5 4.3-11.1 1.9-9.2zM499.5 787.2c-3 2.4-1.2 10.4 4.3 12.8 5.5 2.4 28.6-1.8 31.1-6.1 2.4-4.3 1.2-7.9 1.2-7.9s-29.9 3.1-36.6 1.2zM375.2 567.9l-94.4.6s-19.3 30.8-35.8 61.2c2.7-1.3 5.7-2.3 7.8-1.5 4.9 1.8 6.1 17.1 6.1 17.1s11.6-12.2 17.7-8.5c6.1 3.7 6.7 15.2 6.7 15.2s11.6-9.7 18.3-7.3c6.7 2.4 7.9 14 7.9 14s11-7.9 16.4-6.1c5.5 1.8 9.1 13.4 9.1 13.4s11.6-6.7 16.4-4.9c3.3 1.2 6.3 9 7.9 14l15.9-29.2v-78z"/><path class="st3" d="m255.8 644.7 37.1-76.8M277.1 649.6l31.7-82.3M300.8 652.6l29.3-79.2M328.4 658.7l24.8-84.7"/><path class="st0" d="M351.4 661.1c-4.9-1.8-16.4 4.9-16.4 4.9s-3.7-11.6-9.1-13.4c-5.5-1.8-16.4 6.1-16.4 6.1s-1.2-11.6-7.9-14c-6.7-2.4-18.3 7.3-18.3 7.3s-.6-11.6-6.7-15.2c-6.1-3.7-17.7 8.5-17.7 8.5s3-13.4-5.5-16.4c-2.2-.8-5.7-.4-8.4.9-6.6 12.2-12.9 24.3-17.2 34.4 58.5 32.3 117 37.8 117 37.8l14.6-26.8c-1.8-5.1-4.8-12.8-8-14.1z"/><path class="st3" d="M258.8 645.3 247 673.5M284.1 651.4l-9.7 31.7M309.4 658.7 298.8 692M335 666l-7.4 32.1"/><path class="st5" d="M313.8 667.2s3.2-5.5 9.7-3.8c6.5 1.6-2.4 28.6-2.4 28.6M311.8 673.1l7.7 2M310 679.8l7.5 1.6M307.7 685.9l7.8 2.4M341.1 672.1s3.2-5.5 9.7-3.8c6.5 1.6-2.4 28.6-2.4 28.6M339 677.9l7.7 2.1M337.2 684.7l7.5 1.6M335 690.7l7.6 2.5M288.1 660.3s3-5.5 8.9-3.8c5.9 1.6-2.2 28.6-2.2 28.6M286.2 666.2l7.1 2M284.6 672.9l6.8 1.6M282.6 679l7 2.4M264.3 649.6s3.2-5.3 9.1-3.4-3.8 28.5-3.8 28.5M262.1 655.4l6.9 2.4M260.1 662l6.7 2M257.7 668l6.9 2.8M244.1 639.6s3.5-4.9 7.9-2.3c4.4 2.6-7.7 27.7-7.7 27.7M241.4 645l5.3 3.2M238.8 651.3l5.1 2.7M235.8 656.9l5.2 3.6"/><path class="st6" d="M97.4 277.3s-1.8-22.5-11.6-29.9l46.3 3.7c-9.7 7.9-10.4 28-10.4 28l-24.3-1.8z"/><path class="st1" d="M182 252.3s12.8 9.7 12.8 32.9c6.7 9.1 23.2-.6 23.2-.6s1.8-20.1 16.4-27.4l-52.4-4.9z"/><path class="st0" d="M250.9 285.2s.6-20.1-4.3-28c9.1 1.2 29.2 1.8 29.2 1.8l-1.8 32.3-23.1-6.1zM174.9 280.3l-13.5-.5c1.6 90-11.9 236.4-14.8 266.3 4.9.1 9.9.1 15 .2 2.2-26 16.5-196.6 13.3-266z"/><path class="st7" d="m161.4 279.7-64-2.4-14.7 268.1s28.5.2 63.9.7c2.9-29.9 16.4-176.3 14.8-266.4z"/><path class="st1" d="m229 282.4-54.1-2.1c3.2 69.5-11.1 240-13.3 266 15.5.2 31.9.5 47.2.9 3.5-29.2 21.3-183 20.2-264.8z"/><path class="st0" d="m303.8 478.5-42-2.6-11.7 72.7c17.6.8 29.9 1.7 31.8 2.9 28.6-2.4 18.9-42 18.9-42l3-31z"/><path class="st7" d="m303.8 478.5 6.7-68.4 7.3-124.3-76-3c1 76.8-15.7 237.8-18.5 264.7 9.7.3 18.9.6 26.9 1l11.6-72.6 42 2.6z"/><path class="st0" d="M139.8 303.1c.5 1.9.9 4 .9 6.2 0 9.6-5.6 17.4-12.5 17.4s-12.5-7.8-12.5-17.4c0-2.7.4-5.2 1.2-7.4-5.1 3.5-8.5 9.3-8.5 16 0 10.6 8.6 19.2 19.2 19.2s19.2-8.6 19.2-19.2c-.1-6-2.8-11.3-7-14.8zM135.2 355.5c.5 1.9.9 4 .9 6.2 0 9.6-5.6 17.4-12.5 17.4s-12.5-7.8-12.5-17.4c0-2.7.4-5.2 1.2-7.4-5.1 3.5-8.5 9.3-8.5 16 0 10.6 8.6 19.2 19.2 19.2s19.2-8.6 19.2-19.2c-.1-6.1-2.8-11.4-7-14.8zM132.7 397.5c.5 1.9.9 4 .9 6.2 0 9.6-5.6 17.4-12.5 17.4s-12.5-7.8-12.5-17.4c0-2.7.4-5.2 1.2-7.4-5.1 3.5-8.5 9.3-8.5 16 0 10.6 8.6 19.2 19.2 19.2s19.2-8.6 19.2-19.2c0-6-2.7-11.3-7-14.8zM130.9 462.1c.5 1.9.9 4 .9 6.2 0 9.6-5.6 17.4-12.5 17.4s-12.5-7.8-12.5-17.4c0-2.7.4-5.2 1.2-7.4-5.1 3.5-8.5 9.3-8.5 16 0 10.6 8.6 19.2 19.2 19.2s19.2-8.6 19.2-19.2c0-6-2.8-11.3-7-14.8zM211.3 314.5c.4 1.6.7 3.4.7 5.2 0 8.1-4.7 14.7-10.5 14.7s-10.5-6.6-10.5-14.7c0-2.3.4-4.4 1-6.3-4.3 2.9-7.2 7.9-7.2 13.5 0 9 7.3 16.2 16.2 16.2s16.2-7.3 16.2-16.2c-.1-5-2.4-9.5-5.9-12.4zM209.5 364.6c.4 1.6.7 3.4.7 5.2 0 8.1-4.7 14.7-10.5 14.7s-10.5-6.6-10.5-14.7c0-2.3.4-4.4 1-6.3-4.3 2.9-7.2 7.9-7.2 13.5 0 9 7.3 16.2 16.2 16.2 9 0 16.2-7.3 16.2-16.2 0-5-2.3-9.4-5.9-12.4zM206.5 418.2c.4 1.6.7 3.4.7 5.2 0 8.1-4.7 14.7-10.5 14.7s-10.5-6.6-10.5-14.7c0-2.3.4-4.4 1-6.3-4.3 2.9-7.2 7.9-7.2 13.5 0 9 7.3 16.2 16.2 16.2s16.2-7.3 16.2-16.2c-.1-4.9-2.3-9.4-5.9-12.4zM201.6 482.8c.4 1.6.7 3.4.7 5.2 0 8.1-4.7 14.7-10.5 14.7s-10.5-6.6-10.5-14.7c0-2.3.4-4.4 1-6.3-4.3 2.9-7.2 7.9-7.2 13.5 0 9 7.3 16.2 16.2 16.2s16.2-7.3 16.2-16.2c-.1-5-2.3-9.4-5.9-12.4zM264.7 304.2c.4 1.5.7 3.1.7 4.8 0 7.4-4.3 13.5-9.7 13.5s-9.7-6-9.7-13.5c0-2.1.3-4 .9-5.7-4 2.7-6.6 7.2-6.6 12.4 0 8.2 6.6 14.9 14.9 14.9 8.2 0 14.9-6.6 14.9-14.9 0-4.6-2.1-8.8-5.4-11.5zM262.9 366.3c.4 1.5.7 3.1.7 4.8 0 7.4-4.3 13.5-9.7 13.5-5.4 0-9.7-6-9.7-13.5 0-2.1.3-4 .9-5.7-4 2.7-6.6 7.2-6.6 12.4 0 8.2 6.6 14.9 14.9 14.9s14.9-6.6 14.9-14.9c0-4.7-2.1-8.8-5.4-11.5zM259.9 425.4c.4 1.5.7 3.1.7 4.8 0 7.4-4.3 13.5-9.7 13.5-5.4 0-9.7-6-9.7-13.5 0-2.1.3-4 .9-5.7-4 2.7-6.6 7.2-6.6 12.4 0 8.2 6.6 14.9 14.9 14.9s14.9-6.6 14.9-14.9c0-4.7-2.1-8.8-5.4-11.5zM258.7 472.9c.4 1.5.7 3.1.7 4.8 0 7.4-4.3 13.5-9.7 13.5-5.4 0-9.7-6-9.7-13.5 0-2.1.3-4 .9-5.7-4 2.7-6.6 7.2-6.6 12.4 0 8.2 6.6 14.9 14.9 14.9 8.2 0 14.9-6.6 14.9-14.9-.1-4.7-2.1-8.8-5.4-11.5z"/><path class="st0" d="m241.8 282.9-12.8-.5c1.1 81.8-16.7 235.7-20.2 264.8 4.9.1 9.7.2 14.4.4 2.9-26.9 19.5-188 18.6-264.7z"/><path class="st1" d="M314.2 285.8s-33.5-1.2-40.2 5.5c-6.7 6.7-8.5 25.6 1.8 31.7 10.4 6.1 37.8 5.5 37.8 5.5l.6-42.7zM307.5 405.9s-18.3 3.7-30.5-2.4-11-31.1 1.2-37.8 34.1-1.8 34.1-1.8l-4.8 42z"/><path class="st3" d="M316.7 320.6s-29.9 1.2-34.7-3.7-5.5-15.8 3-18.3c8.5-2.4 32.3.6 32.3.6M311.2 371.7s-24.4-3-29.9.6c-5.5 3.7-6.7 18.9.6 24.4s29.2 1.2 29.2 1.2"/><path class="st0" d="M310 363.2s-23.2 1.8-33.5-4.9c-10.4-6.7-5.5-28.6 3.7-31.1s33.5 1.2 33.5 1.2l-3.7 34.8z"/><path class="st3" d="M314.2 334.6s-20.7-2.4-27.4.6c-6.7 3-7.9 13.4-1.8 18.3 6.1 4.9 28 2.4 28 2.4M294.7 120.4s-6.1-2.7-7.9-10.7c25 15.8 47.5 8.5 63.4 18.9-32.3-21.9-46.3-39.6-46.9-51.8 20.1 22.5 53 31.7 65.2 39-19.5-18.3-27.4-46.9-20.1-65.2 0 24.4 15.8 43.3 24.4 50.6 8.5 7.3 28 18.9 37.8 29.9-11.6-17.7-15.2-25.6-14.6-42s11.6-33.5 22.5-39c-3.7 9.1-11 24.4-6.7 39.6 4.3 15.2 14.6 28.6 21.3 35.3-3.7-17.1-3-46.3 15.2-54.8 18.3-8.5 28-4.9 32.9 6.1-9.1-3.7-16.4-4.3-21.9 2.4s-15.8 28.6 3 62.8c18.9 34.1 23.2 69.5 23.2 69.5l-7.9 30.5-48.1 6.7-43.9-14.6L377 198l-23.2-37.8-47.5-25-11.6-14.8z"/><path class="st0" d="M615.8 365c-6.7 18.3-11.6 65.2-11.6 65.2l25-.6s6.1-51.8-3.7-63.4c-9.7-11.5-3-19.4-9.7-1.2z"/><circle class="st0" cx="572.3" cy="397.6" r="11.9"/><circle class="st0" cx="653" cy="274.3" r="7.3"/><circle cx="653" cy="274.3" r="2.3"/><circle class="st0" cx="673.8" cy="281.6" r="7.3"/><circle cx="673.8" cy="281.6" r="2.3"/><circle class="st0" cx="679.2" cy="331.3" r="7.3"/><circle cx="679.2" cy="331.3" r="2.3"/><circle class="st0" cx="682.2" cy="300.8" r="7.3"/><circle cx="682.2" cy="300.8" r="2.3"/><path class="st2" d="M628.6 358.9s14-.6 23.8-6.1 20.7-25 20.7-25-1.8-1.2-6.1 0-13.4 9.1-13.4 9.1 6.1-14.6 11-18.9c4.9-4.3 11.6-12.8 11-14.6-.6-1.8-6.1-2.4-9.1.6s-9.7 10.4-9.7 10.4 4.3-7.9 9.7-11.6c5.5-3.7 6.1-9.7 6.7-12.2s-10.4-4.3-14.6 2.4c-4.3 6.7-11 20.1-9.7 17.1 1.2-3-1.2-7.3 1.2-13.4 2.4-6.1 3-14 1.8-15.8-1.2-1.8-7.9 3-13.4 12.8s-6.1 25.6-6.1 25.6l-9.7 6.1-10.4 12.2 6.7 20.1 9.6 1.2z"/><circle cx="639" cy="351.6" r="1.9"/><circle cx="635.5" cy="345.5" r="1.9"/><circle cx="641.2" cy="340.2" r="1.9"/><circle cx="634.3" cy="337.4" r="1.9"/><circle cx="635.1" cy="328.1" r="1.9"/><circle cx="640.8" cy="330.1" r="1.9"/><circle cx="639.2" cy="317.9" r="1.9"/><circle cx="641.6" cy="309.8" r="1.9"/><circle cx="666.4" cy="294.4" r="1.9"/><circle cx="661.1" cy="299.9" r="1.9"/><circle cx="642" cy="302.5" r="1.9"/><circle cx="642.4" cy="297.2" r="1.9"/><circle cx="646" cy="291.1" r="1.9"/><circle cx="655.8" cy="308.1" r="1.9"/><circle cx="666.8" cy="308.6" r="1.9"/><circle cx="652.6" cy="318.7" r="1.9"/><circle cx="645.7" cy="322.4" r="1.9"/><circle cx="660.7" cy="314.7" r="1.9"/><circle cx="653.3" cy="325.2" r="1.9"/><circle cx="648.1" cy="328.5" r="1.9"/><circle cx="646" cy="336.2" r="1.9"/><circle cx="649.7" cy="340.7" r="1.9"/><circle cx="645.1" cy="346.3" r="1.9"/><circle cx="652.6" cy="346.8" r="1.9"/><circle cx="658.6" cy="341.9" r="1.9"/><circle cx="662.3" cy="334.6" r="1.9"/><path class="st7" d="M547.6 332.1s12.8-7.3 25.6 1.2c3.7 6.1 3.7 36.6 3 47.5-7.3 8.5-19.5 4.9-19.5 4.9l-19.5-5.5s-6.7-31.1-6.1-32.9c.6-1.8 16.5-15.2 16.5-15.2z"/><circle class="st0" cx="561" cy="341.9" r="4.9"/><circle class="st0" cx="563.4" cy="372.4" r="4.9"/><circle class="st0" cx="561.6" cy="356.5" r="4.9"/><path class="st1" d="M583.8 326.2c-4-1.2-7.8-2.7-11.2-4.4-9.7 34.7 6.1 71.3 6.1 71.3l10.3-7.8c-2.3-11.3-5.7-33.1-5.2-59.1z"/><path class="st8" d="M618.9 332.1s-18.6-.8-35.1-5.9c-.5 26 2.9 47.8 5.2 59l26.9-20.2 3-32.9z"/><circle class="st8" cx="615.2" cy="332.1" r="12.8"/><circle class="st8" cx="618.9" cy="357.7" r="12.8"/><path class="st6" d="M488.5 416.8s63.4-27.4 68.2-31.1c4.9-3.7-11-14-11-29.2s15.8-39.6 15.2-47.5c-.4-4.4-4.9-3.7-4.9-3.7s-1.2-7.3-2.4-9.7c-1.2-2.4-6.1 1.2-6.1 1.2s.6-5.5-1.8-7.3c-2.4-1.8-7.3-1.8-8.5 1.8-1.2 3.7 1.8 9.7-1.8 20.1-.6 3.7-7.3 7.9-7.3 4.9s2.4-9.7 1.8-11.6c-.6-1.8-1.2-2.4-3-3s-7.9 7.9-7.9 11c0 3 6.1 15.2 3 26.8-3 11.6-18.3 9.7-18.3 9.7l-47.5 9.7-7.9 26.8 15.2 32.3 25-1.2z"/><path class="st3" d="M542.1 314.5s3.7-5.5 5.5-17.7M549.4 318.7s5.5-7.9 6.7-13.4"/><path class="st1" d="M360.5 684.3c9.1 1.8 5.5 15.2 5.5 15.2s4.3-12.2 13.4-11c9.1 1.2 11 12.2 11 12.2s4.9-12.8 14-11.6c9.1 1.2 13.4 11 13.4 11s6.7-12.2 17.1-11.6 11 10.4 11 10.4 3.7-12.8 15.2-12.2c11.6.6 12.8 12.8 12.8 12.8s5.5-13.4 14-13.4 11.6 8.5 11.6 8.5 2.4-12.2 10.4-12.8c7.9-.6 15.2 6.7 15.2 6.7s3-12.2 9.7-13.4c2-.4 4.7.2 7.4 1.3l-15.9-53.1-27.4-23.8H389.8l-28.6 29.2-14.1 60.3c4.1-3 9.2-5.6 13.4-4.7z"/><path class="st3" d="m519.7 687.9-13.8-77.2M497.8 692l-11.7-89.8M471.8 695.6l-6.9-92.2M445.8 696.5l-4.8-92.3M417.8 696.8l2.8-85.3M389.4 699.3l9.7-88.6M368.6 694l15.1-93.8"/><path class="st0" d="M534.8 675.1c-6.7 1.2-9.7 13.4-9.7 13.4s-7.3-7.3-15.2-6.7c-7.9.6-10.4 12.8-10.4 12.8s-3-8.5-11.6-8.5c-8.5 0-14 13.4-14 13.4s-1.2-12.2-12.8-12.8c-11.6-.6-15.2 12.2-15.2 12.2s-.6-9.7-11-10.4-17.1 11.6-17.1 11.6-4.3-9.7-13.4-11c-9.1-1.2-14 11.6-14 11.6s-1.8-11-11-12.2c-9.1-1.2-13.4 11-13.4 11s3.7-13.4-5.5-15.2c-4.3-.9-9.3 1.7-13.5 4.8l-10.3 44s31.7 17.1 121.8 7.9c90.2-9.1 96.3-21.9 96.3-21.9l-12.7-42.5c-2.7-1.2-5.3-1.8-7.3-1.5z"/><path class="st3" d="M360.9 739.5c0-.8 5.1-40 5.1-40M386.5 742.8c0-.8 2.9-43.4 2.9-43.4M415.1 742.8l1.9-43.1M445 741.6l.8-42.7M473.9 738.3v-38.8M508 733.8l-8.5-39.2M533.9 726.9l-8.9-38.4"/><path class="st5" d="M349.9 704.1s2.8-5.5 8.5-3.8c5.6 1.6-2.1 28.6-2.1 28.6M348.2 710.1l6.7 2M346.6 716.8l6.5 1.6M344.7 722.9l6.6 2.4M371.5 706.4s2.1-6.3 7.9-5.2c5.8 1.1 1.8 31.4 1.8 31.4M370.5 713l7 1.4M369.9 720.5l6.7.9M368.8 727.4l7 1.8M396.3 707.6s2.1-6.3 7.9-5.2c5.8 1.1 1.8 31.4 1.8 31.4M395.3 714.3l6.9 1.3M394.7 721.7l6.7 1M393.6 728.6l6.9 1.8M425.6 704.7s2.3-7.1 8.8-5.9c6.5 1.2 2 35.3 2 35.3M424.5 712.1l7.8 1.6M423.8 720.6l7.5 1M422.6 728.3l7.8 2M454 704.3s2.3-7.1 8.8-5.9c6.5 1.2 2 35.3 2 35.3M453 711.8l7.7 1.5M452.2 720.2l7.5 1.1M451 727.9l7.8 2M482 705.1s1.5-6.9 8-6.7 6.2 32.2 6.2 32.2M481.8 712.1l7.9.3M482.1 719.9h7.5M481.8 727.2l8 .8M508.3 700.2s.4-7 6.9-7.9c6.5-.9 10.9 30.9 10.9 30.9M509.2 707.1l7.8-.8M510.6 714.9l7.4-1.2M511.4 722.1l8-.5M532.8 691.2s.5-6.8 6-6.6c5.5.2 8.3 31.7 8.3 31.7M533.3 698.1l6.6.3M534.4 705.8l6.2-.1M534.8 713l6.7.7"/><path class="st9" d="M445.4 612.6c43.6-.8 69.7-4.8 82.6-7.5-2.7-9.2-5.5-17.1-5.5-17.1l-90.2-17.1s-57.9 6.7-67 17.7c-3.4 4.1-6.6 11-8.7 18.3 11.5 2.3 39.6 6.6 88.8 5.7z"/><path class="st10" d="M445.4 612.6c-49.2.9-77.3-3.4-88.6-5.7-3.5 12.5-3.7 26.2 4.4 29.2 4.3 0 11.6-18.9 14.6-21.9 0 9.7 2.4 22.5 9.1 23.8 6.7 1.2 7.9-15.2 11.6-21.9-2.4 9.1.6 21.9 7.9 22.5s9.7-15.2 12.2-20.1c-.6 11 .6 22.5 10.4 23.2s11.6-18.3 14.6-23.8c3 10.4 5.5 20.7 14 20.1 8.5-.6 7.9-14 9.1-20.7 2.4 6.7 4.3 17.1 11 18.3 6.7 1.2 6.7-17.7 10.4-21.3-.6 7.9 4.9 20.7 9.7 19.5s4.9-11.6 6.1-17.7c1.8 7.9 4.9 17.1 11.6 16.4 6.7-.6 3.7-14.6 3.7-18.9 4.9 7.9 8.5 19.5 16.4 16.4 0-5.2-2.7-15.7-5.5-24.9-13 2.7-39.1 6.7-82.7 7.5z"/><path class="st3" d="m506.3 602.6-1.2-7.7M496.8 604l-.6-8.7M485.6 605.1l-.4-9.4M475.4 605.1l-.3-9.4M463.7 604.7l-.4-9.4M463.7 604.7l-.4-9.4M452.3 605.1l-.4-9.4M442.2 605.1l-.4-9.4M431.6 605.9l-.4-9.3M421.5 605.4l-.5-9.3M412.9 604.7l-.4-9.4M405.6 604.7l-.4-9.4M397.9 604.2l-.4-9.3M390.6 604.7l-.4-9.4M381.3 604.2l.8-8.7M369.7 604.2l1.4-9.3M365.4 588.6c-9.1 11-17.1 42.6-4.3 47.5 4.3 0 11.6-18.9 14.6-21.9 0 9.7 2.4 22.5 9.1 23.8 6.7 1.2 7.9-15.2 11.6-21.9-2.4 9.1.6 21.9 7.9 22.5 7.3.6 9.7-15.2 12.2-20.1-.6 11 .6 22.5 10.4 23.2s11.6-18.3 14.6-23.8c3 10.4 5.5 20.7 14 20.1 8.5-.6 7.9-14 9.1-20.7 2.4 6.7 4.3 17.1 11 18.3s6.7-17.7 10.4-21.3c-.6 7.9 4.9 20.7 9.7 19.5 4.9-1.2 4.9-11.6 6.1-17.7 1.8 7.9 4.9 17.1 11.6 16.4 6.7-.6 3.7-14.6 3.7-18.9 4.9 7.9 8.5 19.5 16.4 16.4 0-10.4-11-42-11-42l-90.1-17s-57.8 6.7-67 17.6z"/><path class="st1" d="m370.9 574.6-5.5 14s105.4 2.4 157.2-.6c-9.7-28.6-16.4-49.3-16.4-49.3l-70.7-9.7-73.1 6.1 8.5 39.5z"/><path class="st6" d="M370.3 539.3s82.9 7.9 135.9-.6c.6-15.2 1.8-20.1 1.8-20.1s18.9 20.1 26.2 26.8c7.3 6.7 12.2 21.9 13.4 43.3 1.2 21.3-14 39-14 41.4 0 2.4.6 3 4.3 1.8s15.8-26.2 16.4-21.9c3 12.8-5.5 35.9-5.5 39.6s7.9 0 9.7-4.3c1.8-4.3 5.3-16.4 5.9-21.9 2 2.4-1.3 25.6 1.4 25.6 5.9 0 11-18.9 11.6-29.9.6-11 21.3-60.9 17.7-71.9S572.6 510.7 564 493c-8.5-17.7-23.2-33.5-23.2-33.5l-24.4-17.1-143.8 4.9-14.6 26.8-1.8 45.1 14.1 20.1z"/><path class="st3" d="M405 499.7s-2.4 13.4-.6 15.8c1.8 2.4 5.5-.6 7.3.6 1.8 1.2 0 14 2.4 14s3.7-12.8 6.1-13.4c2.4-.6 6.7 1.8 7.9 0 1.2-1.8.6-11 .6-11M456.2 506.4s-2.4 13.4-.6 15.8c1.8 2.4 6.7-.6 8.5.6s1.2 10.4 3.7 10.4 0-10.4 2.4-11 5.5-.6 6.7-2.4c1.2-1.8-.6-14.6-.6-14.6"/><circle class="st2" cx="446.4" cy="484.5" r="12.2"/><circle class="st2" cx="498.8" cy="475.9" r="12.2"/><circle class="st2" cx="537.2" cy="454" r="12.2"/><path class="st9" d="m375.5 532.2-92.4-2.8c-1.8 9.1-3.5 18-4.9 25.3l98.2 1c-.2-7.2-.5-15.3-.9-23.5z"/><path d="m372.7 476.5-79.2 3s-5.5 25.5-10.4 49.7l92.4 2.8c-1.2-26.7-2.8-55.5-2.8-55.5z" style="fill:#592800"/><path class="st10" d="M278.2 554.6c-1.5 8.6-2.5 15-2.4 16.9.6 7.9 9.7 8.5 14.6 2.4 4.9 7.3 14.6 6.1 20.7 1.2 3.7 7.3 14 8.5 18.9 3 4.9 5.5 12.2 6.1 15.2 0 4.9 8.5 13.4 6.1 17.7-1.2 6.7 6.1 11.6 3.7 13.4 0 .5-1 .4-9.7.1-21.5l-98.2-.8z"/><path class="st3" d="m290.5 574 .8-12.6M312.2 575.4l1.6-14.6M330.1 578.3l.6-16.9M345.1 579.5v-18.3M363 577.1l-.9-16.3M290.2 535.2l-1.5 11.4M299.6 535.8l-1.2 11M308.9 536.2l-1.2 11M319.5 537l-1.2 11M329.7 537.8l-1.3 11M339 537.5l-1.2 10.9M348.7 538.2l-1.2 11M357.7 538.7l-1.2 10.9M367.9 539l-1.3 11M275.9 571.6c.6 7.9 9.7 8.5 14.6 2.4 4.9 7.3 14.6 6.1 20.7 1.2 3.7 7.3 14 8.5 18.9 3 4.9 5.5 12.2 6.1 15.2 0 4.9 8.5 13.4 6.1 17.7-1.2 6.7 6.1 11.6 3.7 13.4 0s-3.7-100.5-3.7-100.5l-79.2 3c0 .1-18.2 84.2-17.6 92.1z"/><path class="st1" d="M524.3 434c-10.8 8.7-33.5 23.1-69.3 27.3-38.9 4.5-67-11.7-78.9-20.4l.3 22.8s39 15.8 82.9 14.6c43.9-1.2 75.5-35.3 75.5-35.3s-4-3.8-10.5-9z"/><path class="st12" d="M455 461.3c35.8-4.1 58.5-18.6 69.3-27.3-11.2-9-29.9-22.4-48-28.1-28.6-9.1-47.5-25.6-47.5-25.6l-53.6-1.2.9 61.8c11.9 8.6 40 24.9 78.9 20.4z"/><path class="st0" d="m316.1 251.1-11.6 171.2 8.5 4.9 15.9-189.5z"/><path class="st7" d="M326.4 429.6c-18.3-17.7-36.6-14.6-43.3-12.8s-5.5 9.7-5.5 9.7-8.5 1.2-11 7.3c-2.4 6.1-1.8 12.2 1.8 14.6-4.3 1.2-4.9 17.7 2.4 21.9-1.2 4.3 2.4 12.8 9.1 13.4 6.7.6 34.1-3 34.1-3l15.8-15.2c.3.1 14.9-18.2-3.4-35.9z"/><path class="st1" d="M271 470.4c-7.3-4.3-6.7-20.7-2.4-21.9 0 0 27.4 0 31.7 4.3 4.3 4.3 5.5 16.4.6 18.3-4.9 1.8-29.9-.7-29.9-.7z"/><circle class="st0" cx="298.1" cy="429.9" r="8.2"/><circle cx="297.8" cy="430.8" r="3"/><path class="st1" d="M263.1 435.1s15.2-4.3 15.8 1.8c1.2 10.4-15.8 8.5-15.8 8.5v-10.3z"/><path class="st0" d="m266.1 460.1 26.2 3s.2-3.7-.6-5.5-5.5-1.6-6.7 0c-1.6-2.4-7.3-3.7-9.1-1.2-.6-2.4-4.9-3.8-7.3-1.8-2.5 2-2.5 5.5-2.5 5.5z"/><path class="st0" d="m266.1 460.1 26.2 3s-.8 5.1-1.6 6.3c-.8 1.2-6.3.2-7.5-1.4-1.2 1.6-7.9 1-8.5-1.6-1.8 1.8-5.7 2-6.9.4-2-2.6-1.7-6.7-1.7-6.7z"/><path class="st3" d="m283.2 468 1.8-10.4M274.6 466.4l1.3-10"/><circle class="st0" cx="336.5" cy="324.5" r="10.7"/><circle class="st0" cx="323.4" cy="366.9" r="10.7"/><path class="st3" d="m315.5 373 5.4-1.3M316.1 363.8l4.2 2.5M321.6 358.9l4.2 3.7M327.6 328.5l8 .6M329.5 319.3l4.8 3.7M336.8 315.1l3.6 6.7"/><path class="st0" d="m386.1 443.6-7.3-121.2-6.1-21.9-8.5-3s-22.5 14.6-34.1 82.2-15.8 101.1-15.8 101.1L345 482c8.7-33.2 18.7-132.5 27.2-143.7-8.5 11.3-18.5 110.5-27.2 143.7l32.7 1.3 8.4-39.7z"/><path class="st3" d="m348.4 339.5 3.6-11M353.8 346.8l2.5-10.4M343.5 362l1.8-13.4M350.2 365.6l1.8-7.9M338.6 385.1l1.8-12.1M345.3 386.4l1.8-12.2M352 387l1.8-11.6M334.3 407.1l2.5-12.8M341.1 408.9l1.8-11.6M348.4 412l1.2-11M330.7 432.1l3-12.2M338 435.1l1.8-12.8M346.5 436.3l1.3-12.2M325.8 457l1.8-12.1M333.7 458.9l1.3-11M341.7 460.1l1.2-10.4"/><path class="st1" d="M489.7 312c4.9 5.5.6 14 1.2 17.7.6 3.7 7.3 5.5 9.1 10.4s6.7 10.4 6.7 13.4-15.8 6.7-15.8 6.7 4.9 10.4 0 12.2-14.6-.6-18.9.6c-4.3 1.2-6.1 6.1-3.7 8.5s14.6.6 15.2 3.7-4.3 4.3-4.9 7.3 4.9 6.7 2.4 9.7-4.3 4.9-10.4 4.9c-6.1 0-32.9-4.3-45.7-7.9-12.8-3.7-23.2-11-23.2-11l-12.2-37.8 31.7-32.9c.3 0 63.6-10.9 68.5-5.5z"/><path class="st7" d="M397.1 359.6s20.7 4.9 21.9 1.2c1.2-3.7-.6-21.3 10.4-28 11-6.7 62.1-15.2 65.2-17.1 3-1.8.6-12.2.6-12.2l-116.4-7.3-11.6 9.7 6.1 27.4 23.8 26.3z"/><path class="st0" d="m451.9 339.5 20.1-6.1s-.6 5.5-3.7 7.9-16.4-1.8-16.4-1.8z"/><path class="st3" d="M448.9 335.2c8.5-8.5 23.2-5.5 29.9-9.1M490.9 360.2c-4.9 1.2-10.4 2.4-11.6-3-1.2-5.5 4.3-9.7 4.3-9.7"/><path class="st8" d="M294.7 120.4s-6.1-2.7-7.9-10.7c25 15.8 47.5 8.5 63.4 18.9-32.3-21.9-46.3-39.6-46.9-51.8 20.1 22.5 53 31.7 65.2 39-19.5-18.3-27.4-46.9-20.1-65.2 0 24.4 15.8 43.3 24.4 50.6 8.5 7.3 28 18.9 37.8 29.9-11.6-17.7-15.2-25.6-14.6-42s11.6-33.5 22.5-39c-3.7 9.1-11 24.4-6.7 39.6 4.3 15.2 14.6 28.6 21.3 35.3-3.7-17.1-3-46.3 15.2-54.8 18.3-8.5 28-4.9 32.9 6.1-9.1-3.7-16.4-4.3-21.9 2.4s-15.8 28.6 3 62.8c18.9 34.1 23.2 69.5 23.2 69.5l-7.9 30.5-48.1 6.7-43.9-14.6L377 198l-23.2-37.8-47.5-25-11.6-14.8z"/><path class="st3" d="M408.1 203c-3-19.5-30.5-61.5-57.9-74.3M368.5 115.9c54.8 45.7 57.9 107.2 57.9 107.2M410.5 131.1c31.7 27.4 30.5 92 30.5 92M433 125c30.5 48.7 29.9 81 29.9 81M356.9 155.5c39.6 28.6 32.9 67 32.9 67"/><path class="st6" d="M420.9 236.5s.6-3.8 1.8-9.1c-1.2.1-2.4.2-3.5.3 1.1 5.1 1.7 8.8 1.7 8.8zM443.5 226.7c.8 7 1.2 12.2 1.2 12.2s1.2-5.3 3.2-12.1c-.9 0-1.7-.1-2.6-.1h-1.8zM470.2 233.4s1-2.1 2.6-5.2c-.9-.1-1.8-.2-2.7-.2.1 3.3.1 5.4.1 5.4zM492.1 204.2c-4.5 1.8-9.3 7.6-13.2 13.6 8.3 1.4 14.2 2.9 17.7 4 .3-7.1-.5-14.5-4.5-17.6zM405 198.7c-3.7 4-5.2 11.8-5.8 19.1 4-.9 9.6-1.9 16.5-2.6-2.6-6.9-6-13.6-10.7-16.5zM464.1 197.5c-4.8 1.8-9 9.2-12.2 17.3 6.5.4 12.4 1 17.5 1.6-.8-7.2-2.3-14.8-5.3-18.9z"/><path class="st6" d="M495.6 231.9c.4-2.8.9-6.4 1.1-10.2-3.5-1-9.3-2.6-17.7-4-2.4 3.7-4.6 7.6-6.2 10.5 10.6 1 17.9 2.5 22.8 3.7zM415.6 215.2c-6.9.7-12.4 1.7-16.5 2.6-.4 4.9-.4 9.6-.4 12.6 5.5-1.1 12.4-2.1 20.4-2.8-.8-3.7-2-8-3.5-12.4zM470.1 228c-.1-3.1-.3-7.3-.7-11.6-5.1-.6-11-1.2-17.5-1.6-1.6 4-3 8.2-4.1 12 8.6.1 16 .6 22.3 1.2z"/><path class="st6" d="M472.8 228.2c-1.6 3.1-2.6 5.2-2.6 5.2s.1-2.2-.1-5.5c-6.3-.5-13.8-1-22.4-1.2-2 6.8-3.2 12.1-3.2 12.1s-.3-5.2-1.2-12.2c-7.6-.1-14.6.2-20.8.6-1.2 5.3-1.8 9.1-1.8 9.1s-.5-3.7-1.7-8.8c-8 .7-14.9 1.7-20.4 2.8.1 2.3.1 3.7.1 3.7l-6.7 56.7 90.8 3.7 7.3-28.6 4.3-28.6s.5-2.1 1-5.2c-4.7-1.3-12-2.8-22.6-3.8z"/><path class="st6" d="M443.5 226.7c-.4-3.8-1-8.1-1.8-12.4-5.6-.1-10.7-.1-15.4.1-1.5 4.5-2.7 9.1-3.5 12.9 6.1-.4 13-.6 20.7-.6z"/><path class="st6" d="M441.7 214.3c-1.2-6.8-2.8-13.5-5-18-4.4 2.8-7.9 10.4-10.4 18.2 4.6-.2 9.8-.3 15.4-.2z"/><path class="st7" d="M406.2 284.6s13.4-35.3 18.9-35.9c5.5-.6 2.4 26.2 5.5 25.6 3-.6 7.3-21.3 11.6-20.7 4.3.6 3 21.9 6.1 20.1 3-1.8 1.8-18.9 6.7-19.5 4.9-.6 1.8 18.9 3 17.1 1.2-1.8 6.1-19.5 12.2-18.3 6.1 1.2 9.7 30.5 9.7 30.5l-42 12.2-31.7-11.1z"/><path class="st2" d="M261.8 144.5s-31.1-16.4-45.7-18.3-44.5-7.3-55.4-9.7-42-25-50-33.5c-2.4 11.6 9.7 37.2 31.1 46.9-15.8-2.4-40.8-2.4-59.1-22.5-2.4 9.1.6 17.1 9.1 25 8.5 7.9 49.3 18.3 49.3 18.3s-29.2 4.3-40.8 6.1c-11.6 1.8-29.2 2.4-38.4.6 9.7 15.2 68.2 14.6 68.2 14.6S98 173.7 76 201.2c50.6-15.2 92.6-17.1 116.4-11.6 23.8 5.5 65.2.6 65.2.6l32.9-9.7 3-14.6-31.7-21.4z"/><path class="st3" d="M141.2 150.6c14.6-.6 35.9 4.3 35.9 4.3M141.8 129.9c14.6-.6 51.8 10.4 51.8 10.4M130.3 171.9c20.1-3 45.1-1.2 45.1-1.2"/><path class="st0" d="M364.2 284.6c-4.3-37.2-15.8-40.8-21.9-52.4-6.1-11.6 4.3-23.8 16.4-21.9 12.2 1.8 17.1 15.2 17.1 15.2l12.8 67.6s-12.8 2.5-24.4-8.5zM500.1 293.1c32.3-14 34.7-43.9 35.3-54.2.6-10.4-2.4-14-6.7-15.2s-14 18.9-14 18.9L497 277.3s-29.2 29.9 3.1 15.8z"/><path class="st3" d="M338 221.3c24.4-2.4 23.8 15.8 23.8 15.8"/><path class="st6" d="M294.1 157.3c9.4 1.4 17.8 2 24.8 2.2l3.8-11.3-22.5-11s-19.6 0-37.4-12.2c2.9 10.6 11 29.2 31.3 32.3z"/><path class="st6" d="M294.1 157.3c-20.3-3-28.3-21.7-31.3-32.3-2.8-1.9-5.6-4.1-8.3-6.7-8.5 36.6 31.7 52.4 31.7 52.4s-26.8 13.4-35.9 23.2-11.6 19.5-6.7 38.4c2-1.8 4.2-3.6 6.6-5.2-.1-7.5 1-20.1 10.5-31.3 10.5-12.4 37.6-13 50.4-12.6l8-23.6c-7.2-.3-15.5-.9-25-2.3z"/><path class="st6" d="M260.6 195.7c-9.6 11.2-10.6 23.8-10.5 31.3 21.3-15.2 54.3-24.6 54.3-24.6l6.5-19.3c-12.7-.5-39.8.2-50.3 12.6z"/><path class="st7" d="M360.5 164s3-6.1-6.7-13.4-45.7-19.5-59.1-30.2c-8.5 15.5 13.4 28.9 13.4 28.9s-12.2.6-17.1 10.4c4.9 9.1 21.9 12.2 21.9 12.2s-15.2-.6-21.9 6.1c5.5 4.9 13.4 8.5 13.4 8.5s-10.4 1.2-14.6 14c12.8 7.3 25.6 6.7 25.6 6.7l45.1-43.2z"/><path class="st3" d="M314.9 185.3c-5.5 1.8-10.4 1.2-10.4 1.2M308.2 149.4c11 5.5 21.9 4.9 21.9 4.9"/><path class="st0" d="M387.4 287.1s-16.4-11.6-18.3-35.3 4.3-34.7 6.1-38.4c1.8-3.7-9.1-32.3-15.2-39-2.4 4.9-10.4 37.8-23.2 55.4s-39 51.8-46.3 57.9c-7.3 6.1-26.8-7.9-24.4-18.9 2.4-11 84.1-111.5 89.6-110.3 5.5 1.2 5.6 0 9.1 4.3 3 3.7 13.4 21.9 17.1 50.6 5.5.6 23.2 14.6 25 35.3 1.8 20.7-6.7 35.3-6.7 35.3l-12.8 3.1z"/><path class="st3" d="m275.3 264.5 7.3-7.9M281.3 269.4l5.5-6.7M286.8 274.9l6.1-7.3M288 248.1l7.4-8M294.1 252.9l5.5-6.7M299.6 258.4l6.1-7.3M300.8 230.4l7.4-7.9M306.9 235.3l5.5-6.7M312.4 240.8l6.1-7.4M313 213.9l7.3-7.9M319.1 218.8l5.5-6.7M324.6 224.3l6.1-7.3M327.6 203l7.4-7.9M333.7 207.9l5.5-6.7M338.6 187.8l7.3-8M344.7 192.6l5.5-6.7M384.9 223.7l-14.6 3M370.3 232.8l17.1-3M389.2 236.5l-18.9 3.6M389.2 243.2l-18.9 3.6M390.4 248.7l-19.5 4.2M391.6 255.4l-18.3 3.6M391.6 262.1l-18.3 3.6"/><path class="st0" d="M480 283.4s1.2-20.7 6.1-34.7c4.9-14 21.9-23.8 21.9-23.8s23.8-52.4 29.9-56.1 11-3 17.7.6c6.7 3.7 61.5 110.3 64 124.9 2.4 14.6-17.1 37.2-33.5 17.1s-42-133.4-43.9-134.6-26.2 49.3-26.2 49.3 6.7 15.8 0 35.9c-6.7 20.1-15.8 27.4-15.8 27.4l-20.2-6z"/><path class="st3" d="m483 263.3 18.3 5.5M486.1 257.2l20.1 6.7M487.3 251.1l20.1 6.7M489.1 244.4l21.9 7.9M494 238.3l19.5 7.3M500.7 232.8l15.2 6.1M550.6 182.3l3.7 11.5M556.7 181l3.7 11M558.6 201.8l2.4 7.9M565.9 198.1l2.4 9.1M565.3 217l4.2 9.1M572.6 215.8l4.2 9.1M567.7 235.3l3.6 10.3M576.2 233.4l2.5 9.8M583.5 232.2l3.1 10.4M575 256l3.7 10.3M583.5 254.2l2.5 9.7M590.8 252.9l3.1 10.4M584.1 275.5l3.7 10.3M592.7 273.7l2.4 9.7M600 272.4l3 10.4M596.3 300.5l2.5 9.7M603.6 299.2l3.1 10.4"/><path class="st0" d="M364.8 284c-9.1 2.4-11.6 17.7 2.4 21.9 7.9 2.4 44.6 1 76.8 1.2 25.1.1 47.5 2.1 51.2 1.3 8.5-1.8 9.1-19.5 1.2-23.8-7.9-4.2-122.5-3-131.6-.6z"/><circle class="st12" cx="388.3" cy="337.9" r="21"/><path class="st0" d="M376.4 343.1c-1.5 4.6.8 26.7.1 48.5-.7 21.8-6.8 35-3.1 47.2 2.4 7.3 23.8 12.2 29.2-3.7 5.5-15.8-1.2-86.5-6.7-94.4s-16.5-6.7-19.5 2.4z"/><path class="st3" d="m384.9 365 .6 12.2M392.8 365.6l.6 11M384.3 387.6l.6 10.3M391.6 388.2v9.1M397.7 390l.6 9.2M381.9 407.7v11M390.4 408.9l-.6 10.4M397.7 410.1v11M383.7 428.4v8.5M394.7 429.6l-1.9 7.9M324 474.1l1.2-8.5M333.1 475.3l.6-8.5M348.7 538.2l-1.2 11"/><path class="st2" d="M668.2 523.4c1.2-2.2 28.9-35 39.6-35.3 20.7-.6 32.3 6.7 44.5 21.9 12.2 15.2-15.2 34.7-15.2 34.7l-22.6-4.3-31.6-6.7-14.7-10.3z"/><path class="st1" d="M681 462.5c3 4.3.6 14.6.6 14.6s6.1 5.5 7.3 7.9c1.2 2.4.6 8.5.6 8.5s-5.5 0-7.9-1.2c-1.8 3-2.6 10.8-2.6 10.8l-6.1 1.2s-1.6 12.4-5.3 14.8c-3.7 2.4-17.1.6-17.1.6l-17.1-8.5 4.3-34.7 22.5-17.1c.1.1 17.8-1.1 20.8 3.1z"/><path class="st3" d="m663.5 504.7 9.3-.4"/><path d="M635.3 518.6s11.6-21.9 18.3-39 29.9-13.4 29.9-13.4 4.3-3.7 3-8.5-12.8-9.7-24.4-9.7c-11.6 0-34.1 11-35.9 22.5-1.8 11.6-7.9 15.8-12.2 18.3 0 4.9 4.3 9.1 4.3 9.1l17 20.7z" style="fill:#636363;stroke:#000;stroke-width:4.874;stroke-linecap:round;stroke-linejoin:round;stroke-miterlimit:10"/><path class="st3" d="M660.9 477.8c11-7.3 16.4-3.7 16.4-3.7"/><path class="st1" d="M656 522.2s21.9-4.9 27.4-8.5 14-7.3 15.8-6.7c1.8.6 4.3 3 1.8 7.9-2.4 4.9-18.3 9.7-18.3 9.7s15.9 3 23.8 2.4c7.9-.6 12.2-5.5 15.2-4.9s6.1 6.1 2.4 9.7c2.4 3-.6 8.3-2.4 9.1-4.8 2.1-32.3 3.7-32.3 3.7L656 522.2z"/><path class="st3" d="M700.9 534.4c3 .6 17.1-.8 23.3-2.4"/><path class="st1" d="M725.5 499.1c2.4-6.7-2.4-9.1-2.4-9.1s5.5-7.3 15.2-3c2.4 2.4 2.4 4.3.6 9.1-1.8 4.8-9.2 7.2-13.4 3zM742.5 499.1s9.7-4.9 12.8-3.7c3 1.2 4.9 3.7 3.7 7.3-1.2 3.7-7.3 8.5-10.4 9.7-3 1.2-7.9-1.2-6.7-4.9 1.2-3.7 3-4.3 3-4.3l-2.4-4.1zM837 630.7c-.7-1-2.5-1.9-4.9-3l-4.3 7.9s-17.7-1.2-33.5-17.1c-15.8-15.8-28-42-28-42l16.8-8.4c-5.9-14.2-12.6-27.8-20.5-33.6-16.4-12.2-25.6-2.4-25.6-2.4l-11 9.1s-6.7 7.9-3 14 15.8-.6 28 17.7 28.3 44 39 54.2c12 11.4 33.5 15.2 39.6 15.2s10.4-7.4 7.4-11.6z"/><path class="st12" d="M794.3 618.5c15.8 15.8 33.5 17.1 33.5 17.1l4.3-7.9c-8.1-3.6-23.7-8.4-31.7-20.2-5.4-7.9-10.9-24.1-17.3-39.5l-16.8 8.4s12.2 26.2 28 42.1z"/><path class="st1" d="m724.9 635.5-14-1.8-14.7 67.5 26.5-.4z"/><path class="st0" d="m696.2 701.2-9.7 44.6 34.7 1.2 1.5-46.2z"/><circle class="st8" cx="717.6" cy="629.8" r="13.1"/><circle class="st8" cx="720" cy="605.7" r="11.6"/><circle class="st8" cx="721.8" cy="584.4" r="11.6"/><path class="st8" d="m618.3 497.9-2 41.6c51.1 16.6 74.6 36.1 83.5 45.1l30.6-20.3-112.1-66.4z"/><path class="st1" d="m616.2 539.4-1 21.2 3.7 32.9 40.8 8.5 23.8-6.7 16.3-10.8c-8.9-9-32.5-28.5-83.6-45.1z"/><circle cx="671.4" cy="477.5" r="3.2"/><path class="st14" d="M619.2 494.6c11.4-8.1 5.9-13.6 18.5-29.1 12.6-15.4 38-14.4 38-14.4"/><path class="st14" d="M622.9 499.1c13.4-12.2 4.1-14.2 19.5-29.7 15.4-15.4 29.2-15.4 43.9-10.2"/><path class="st14" d="M627.8 501.5c13-11.4 5.9-16 18.9-28.2 13-12.2 26.2-11.1 29.1-7.9"/><path class="st14" d="M633.1 507.2s7.5-13.6 11.6-22.1c4.1-8.5 11.6-9.9 11.6-9.9"/><path class="st12" d="M737.7 536.8c-2.4 4.3.6 9.1 3.7 9.7s22.5-9.7 21.3-12.2c-1.2-2.4-5.5-6.7-8.5-7.9-3.1-1.1-14.1 6.2-16.5 10.4z"/><path class="st1" d="M739.5 516.1c-1.8 1.2-3 6.7 0 8.5 3 1.8 15.2 3.7 16.4 1.8 1.2-1.8 3-7.9 1.2-9.1-1.8-1.2-15.8-2.4-17.6-1.2zM588.4 607.5c.6 5.5-7.3 6.7-10.4 5.5-3-1.2-6.1-20.7-3.7-36.6 2.4-15.8 11-26.8 18.9-29.9 7.9-3 11.6 1.8 11.6 1.8s-17 53.7-16.4 59.2z"/><circle class="st0" cx="661.9" cy="651.4" r="7.3"/><circle cx="661.9" cy="651.4" r="2.3"/><circle class="st0" cx="687.5" cy="629.5" r="7.3"/><circle cx="687.5" cy="629.5" r="2.3"/><circle class="st0" cx="692" cy="603.4" r="7.3"/><circle cx="692" cy="603.4" r="2.3"/><path class="st12" d="M619.5 571.6c3.7-11.6-7.3-23.8-14.6-21.9-7.3 1.8-21.3 37.2-19.5 51.8s21.3 15.2 25.6 12.8c4.2-2.5 4.8-31.1 8.5-42.7z"/><path class="st2" d="M615.8 572.8s21.3-18.3 26.8-17.1c5.5 1.2 4.9 3.7 5.5 7.3s-12.2 12.8-12.2 17.7 2.4 14 11.6 15.8 31.1-6.1 35.3-4.3 1.2 9.1 1.2 9.1 3.7 6.7 1.2 9.7c-2.4 3-28.6 9.1-26.8 9.1s20.1 1.8 21.9 3c1.8 1.2 1.2 5.5-1.8 7.9-3 2.4-26.8-3.7-26.8-3.7s5.5 12.2 6.7 16.4-4.9 6.1-7.3 3.7c-2.4-2.4-4.9-9.1-9.1-13.4-4.3-4.3-21.9-15.2-28.6-26.2-6.7-10.6 2.4-35 2.4-35z"/><path class="st3" d="M683 602.2s-11.8 6.1-24.8 6.5"/><circle cx="643.6" cy="559.1" r="1.9"/><circle cx="634.3" cy="562.8" r="1.9"/><circle cx="625.3" cy="572.5" r="1.9"/><circle cx="629.8" cy="579.1" r="1.9"/><circle cx="619.7" cy="578.3" r="1.9"/><circle cx="631.4" cy="590.5" r="1.9"/><circle cx="615.2" cy="586" r="1.9"/><circle cx="618" cy="593.3" r="1.9"/><circle cx="631.4" cy="599" r="1.9"/><circle cx="624.5" cy="586" r="1.9"/><circle cx="624.1" cy="599" r="1.9"/><circle cx="619.2" cy="604.7" r="1.9"/><circle cx="627.4" cy="607.5" r="1.9"/><circle cx="627.8" cy="616" r="1.9"/><circle cx="635.9" cy="620.9" r="1.9"/><circle cx="634.7" cy="611.2" r="1.9"/><circle cx="639.9" cy="604.2" r="1.9"/><circle cx="650.9" cy="606.3" r="1.9"/><circle cx="652.6" cy="615.2" r="1.9"/><circle cx="645.7" cy="598.6" r="1.9"/><circle cx="659.1" cy="611.5" r="1.9"/><circle cx="669.2" cy="610" r="1.9"/><circle cx="662.3" cy="601.4" r="1.9"/><circle cx="673.7" cy="599.8" r="1.9"/><circle cx="642.4" cy="612.4" r="1.9"/><circle cx="645.7" cy="618.1" r="1.9"/><circle cx="657.4" cy="626.2" r="1.9"/><circle cx="667" cy="625.8" r="1.9"/><circle cx="674.1" cy="626.2" r="1.9"/><circle cx="654.2" cy="642.4" r="1.9"/><circle cx="644.8" cy="627.4" r="1.9"/><circle cx="649.7" cy="633.9" r="1.9"/><circle cx="632.3" cy="570.5" r="1.9"/><circle cx="639.6" cy="566.1" r="1.9"/><circle class="st0" cx="604.9" cy="534.2" r="9.9"/><path class="st3" d="m599.1 526.1 1.1 7.1M605.5 532.3l2-6.8M565.3 404.4l2-6.9M573.8 407.7l-1.7-9M581.1 403.6l-3.3-5.3M610.3 534.8l3.7-2.5"/></svg>