<svg version="1.1" id="Calque_1" xmlns="http://www.w3.org/2000/svg" x="0" y="0" viewBox="0 0 900 900" style="enable-background:new 0 0 900 900" xml:space="preserve"><style>.st0,.st1,.st2,.st3,.st4,.st5{fill:#fff;stroke:#000;stroke-width:5.4524;stroke-linecap:round;stroke-linejoin:round;stroke-miterlimit:10}.st1,.st2,.st3,.st4,.st5{fill:#ffce00}.st2,.st3,.st4,.st5{fill:none}.st3,.st4,.st5{fill:red}.st4,.st5{fill:#5f8200}.st5{fill:#1d4900}.st6{fill:#fff}.st7{fill:none;stroke:red;stroke-width:7.6334;stroke-linecap:round;stroke-linejoin:round;stroke-miterlimit:10}.st8{fill:red}.st9{fill:none}.st10{fill:#ff7300;stroke:#000;stroke-width:5.4524;stroke-linecap:round;stroke-linejoin:round;stroke-miterlimit:10}</style><path class="st0" d="M649 445.6c3.3-4.1 0-16.6-5.7-16.6-1.9 0-9.1.8-18.2 1.9l7.3 19.5c8.3-1.4 15.3-3.1 16.6-4.8zM670.3 469.6c4.1-1.6 5.7-10.6 0-12.3-1.9-.5-9.1-.2-18.2.6 6.3 14.7 4.1 37.5 2.7 47.9 6.9 1.7 10.6 3.1 13 3.1 5.7 0 5.7-11.5.8-14.7 4.9-.8 5.7-9 .8-11.5 4.1 0 6.6-9.8.9-13.1z"/><path class="st1" d="M652.1 457.9c-19.2 1.5-46.7 4.6-49.5 4-4.1-.8-1.1-6.3-1.1-9.3 5.2.7 19.3-.5 30.8-2.3l-7.3-19.5c-18.6 2.3-45 6-48.9 7.7-5.7 2.5-9.8 11.5-16.4 13.9-6.5 2.5-81 15.5-81 15.5l-36-5.7-16.4 13.9 8.2 71.2s134.1-50.7 169.3-49.1c26 1.9 41.3 5.1 50.8 7.6 1.7-10.5 3.8-33.2-2.5-47.9z"/><path class="st1" d="M588.5 487.6c-6.5 0-11.5 1.6-22.9 1.6s-126 38.4-126 38.4l5.7 36S532 531.7 551.6 526c7.4 2.7 13.1 14.7 29.7 27.5 9.1 6.8 15.3 13 19.5 17.9 8.2-7.4 26-24.4 30.8-38.4-9.1-5.6-21.6-12.4-25.2-17.6-1.5-1 9 2.1 18.4 4.4l2.5-18.8c-13.7-5.5-34.3-13.4-38.8-13.4z"/><path class="st0" d="M639.7 505.8c-1.5-.5-6.3-2.4-12.4-4.8l-2.5 18.8c6.1 1.5 11.6 2.5 13.2 1.9 4.2-1.7 6.7-14.2 1.7-15.9zM631.7 532.9c-4.8 14-22.6 31.1-30.8 38.4 5.3 6.1 7.6 10 8.8 10.3 4.1.8 9.8-4.1 10.6-9 6.5 1.6 8.2-4.1 9-10.6 5.7.8 8.2-2.5 6.5-9 5.7-.8 7.4-7.4 5.7-12.3-.4-1.8-4.5-4.5-9.8-7.8z"/><path class="st2" d="M670.3 469.6c-12.3-1.6-36 1.6-36 1.6M669.5 482.7c-12.3-1.6-36-1.6-36-1.6M668.6 494.1c-12.3-1.6-36-4.1-36-4.1M620.4 572.6c-8.2-10.6-27-26.2-27-26.2M629.4 562c-8.2-10.6-30.3-25.4-30.3-25.4M635.9 553c-8.2-10.6-27-24.5-27-24.5"/><path class="st0" d="m268.7 589-21.3 67.8-24.5-6.5 32.7-99.7 18.8 9.8zM168.1 776.2s18 11.5 36 9c8.2-13.1 14.7-39 14.7-47.7-4.9-9.5-11.5-16.1-28.4-7.1-4.3 18.8-22.3 45.8-22.3 45.8z"/><path class="st2" d="M199.2 731.2s-6.8 26.7-21.5 48M189.4 783.6c12.3-16.4 19.6-50.7 19.6-50.7"/><path class="st3" d="M247.4 656.8c-2.5-4.1-18.8-9-24.5-6.5-5.7 2.5-18 32.7-15.5 37.6s21.3 8.2 26.2 4.9c4.8-3.3 16.3-31.9 13.8-36z"/><path class="st4" d="M190.5 730.4c.8 5.7 23.4 12 28.4 7.1s8.2-16.1 6.5-20.2-18-9.8-24.5-8.2c-6.6 1.7-11.3 15.6-10.4 21.3z"/><path class="st5" d="M233.5 692.8c-1.6-4.1-22.9-8.2-26.2-4.9s-7.4 16.4-6.5 21.3c.8 4.9 20.4 10.6 24.5 8.2s9.9-20.5 8.2-24.6z"/><path class="st1" d="m373.4 714.9 54.8 65.4 28.6 9.8 19.6-11.4-40.8-66.3zM263 716.5l-23.7 67.9 45.8-3.3 34.3-65.4z"/><path class="st4" d="M445.9 672.4c-4.1-12.3-5.5-42.5-5.5-42.5l-59.7-25.4-106.3 28.6s-7.5 18.8-15.5 39.3l188.4 3.7c-.5-1.2-1-2.5-1.4-3.7z"/><path class="st2" d="M271.2 643.7h170.1M295.7 644.6l-.8 26.9M305.5 645.4v25.3M355.4 643.7 357 674M366 644.6v28.6M419.2 646.2l1.6 29.4M429 643.7l1.6 32.8"/><circle class="st2" cx="283" cy="658.1" r="5.3"/><circle class="st2" cx="331.7" cy="658.5" r="5.3"/><circle class="st2" cx="393" cy="659.3" r="5.3"/><path class="st3" d="m447.3 676.2-188.4-3.7c-4.3 11-8.8 22.4-12.4 31.8l213-2.2c-3.9-9.7-9-18.3-12.2-25.9z"/><path class="st0" d="M246.5 704.3c-2.9 7.5-5.2 13.7-6.4 17.2l224.1-4.1c-1-5.4-2.7-10.5-4.6-15.3l-213.1 2.2z"/><path class="st2" d="m255.6 705.9-2.4 13.9M269.5 705.9l-.8 15.5M284.2 705.1v14.7M296.5 704.3l1.7 13.9M308.8 705.9l1.1 13.1M323.5 705.9l1.6 13.9M336.6 705.9l.8 13.9M347.2 705.9l3.3 13.9M359.5 704.3l1.6 14.7M370.9 705.9l.9 12.3M382.4 705.9v13.9M392.2 705.1l2.5 13.9M406.1 705.9l1.6 12.5M420.8 704.3l1.7 13.9M431.7 703.4l1.7 14.8M441.5 702.9l3.3 15.3M452.2 702.1l3.5 15"/><path class="st6" d="m274.4 633.1 102.2-.8 48.3-59.7-50.7-27.8-106.3.8s-9.8 35.2 6.5 87.5z"/><path class="st7" d="M299 539.9c1.4 23.7 12.3 76.7 15.5 91.9M275.3 542.4c-.6 39.9 8 73.3 12.3 87.5M344 537.5c1.6 30.3 10.6 93.5 10.6 93.5M357.9 535c1.6 51.5 11.5 95.7 11.5 95.7M266.8 578.4l36.3-6.6M271.2 615.9l36.8-8.1M312.1 539.9c3.6 20 14 77.6 16.5 91.7"/><circle class="st8" cx="292.6" cy="593.5" r="6.1"/><circle class="st8" cx="329.2" cy="557.9" r="6.1"/><path class="st2" d="m274.4 633.1 102.2-.8 48.3-59.7-50.7-27.8-106.3.8s-9.8 35.2 6.5 87.5z"/><path class="st1" d="m374.2 544.8-106.3.8-2.5-62.9 83.5-49.1 59.7 52.3v40.9z"/><circle class="st5" cx="324" cy="597.2" r="23.7"/><path class="st2" d="M544.1 843.3s4.6 3 7.1 5.5 27.5.5 27.5.5.7-4.5-2.9-11.5c-30-3.4-31.7 5.5-31.7 5.5z"/><path class="st0" d="m475.6 791.8-45.8 4.9s-7.4 13.9-7.4 31.9c11.5 1.6 55.6 6.5 55.6 6.5l10.7 1.3-5.7-44.2-7.4-.4z"/><path class="st1" d="M575.8 837.8c-4.5-8.8-15.5-21.4-42.9-33.8-17.2-10.6-31.1-10.6-31.1-10.6l-18.6-1.1 5.7 44.2 55.2 6.8s1.7-8.9 31.7-5.5z"/><path class="st2" d="m425.7 808.1 45.8-.8 2.5 21.3"/><path class="st3" d="M482.2 784.1s43.3-6.3 49.1-1.4 4.4 21.5-2.2 23.2-12.5-7.6-44.4-10.9c-32-3.2-2.5-10.9-2.5-10.9z"/><path class="st3" d="M426 800.5c-4.1-4.1-2.7-19.1 2.2-20.7 4.9-1.6 50.7-1.9 53.2 1.4s6 12.5 3.5 17.4c-1.1 2.2-11.9.9-24 1.4-15.3.7-32.6 2.8-34.9.5z"/><path class="st2" d="m556.6 839.2 2.4 10.6M567 839.2l2.4 9.8"/><path class="st0" d="M423.8 826.1c-5.7.8-3.8 16.4-3.8 16.4l124 .3s-2.2-13.4-6.3-14.2-108.1-3.3-113.9-2.5z"/><path class="st2" d="m447 826.9 6.5 15.6M456.8 826.1l6.6 16.4M483 827.8l6.5 14.7M492.8 827.8l5.7 14.7M514.3 828.6l4.1 13.9M523.1 828.8l4.3 13.4M350.2 841.7s4.6 3 7.1 5.5 27.5.5 27.5.5.7-4.5-2.9-11.5c-29.9-3.5-31.7 5.5-31.7 5.5z"/><path class="st0" d="M281.8 790.1 236 795s-7.4 13.9-7.4 31.9c11.5 1.6 55.6 6.5 55.6 6.5l10.7 1.3-5.7-44.2-7.4-.4z"/><path class="st1" d="M382 836.2c-4.5-8.8-15.5-21.4-42.9-33.8-17.2-10.6-31.1-10.6-31.1-10.6l-18.6-1.1 5.7 44.2 55.2 6.9c-.1-.1 1.7-9.1 31.7-5.6z"/><path class="st2" d="m231.9 806.5 45.8-.8 2.5 21.2"/><path class="st3" d="M288.3 782.5s43.3-6.3 49.1-1.4 4.4 21.5-2.2 23.2-12.5-7.6-44.4-10.9c-31.9-3.3-2.5-10.9-2.5-10.9z"/><path class="st3" d="M232.2 798.9c-4.1-4.1-2.7-19.1 2.2-20.7 4.9-1.6 50.7-1.9 53.2 1.4s6 12.5 3.5 17.4c-1.1 2.2-11.9.9-24 1.4-15.3.7-32.6 2.7-34.9.5z"/><path class="st2" d="m362.8 837.6 2.4 10.6M373.1 837.6l2.5 9.8"/><path class="st0" d="M230 824.5c-5.7.8-3.8 16.4-3.8 16.4l124 .3s-2.2-13.4-6.3-14.2c-4-.9-108.2-3.3-113.9-2.5z"/><path class="st2" d="m253.2 825.3 6.5 15.5M263 824.5l6.5 16.3M289.2 826.1l6.5 14.7M299 826.1l5.7 14.7M320.5 826.9l4.1 13.9M329.2 827.2l4.4 13.4"/><path class="st9" d="m238.6 544.4-11.8 24.3 2.4 4.5 10.4-26.2z"/><path class="st9" d="m249.9 521.1-11.3 23.3 1 2.6z"/><path class="st8" d="m227.7 516.8-15.4 24.3 14.5 27.6 11.8-24.3z"/><path class="st6" d="M226.2 580.8c3.3 6.4 7.6 8.9 11.9 9.4l-8.9-17-3 7.6zM195.9 566.9c2.5 27 26.2 11.5 26.2 11.5l4.7-9.7-14.4-27.6-16.5 25.8z"/><path class="st8" d="m229.2 573.2 8.9 17c8.1 1 15.9-5.3 15.9-5.3l.3-.6-14.7-37.2-10.4 26.1z"/><path class="st6" d="m245 512.9-16.4 2.5-.9 1.4 10.9 27.6 11.3-23.3-10.3 25.9 14.7 37.3 26.7-59.1z"/><path class="st2" d="m228.6 515.4-32.7 51.5c2.5 27 26.2 11.5 26.2 11.5l27.8-57.3-23.7 59.7c9.8 18.8 27.8 4.1 27.8 4.1l27-59.7-36-12.3-16.4 2.5z"/><path class="st1" d="M163.2 620c0 4.1 7.4 8.2 13.1 6.5 4.1 6.5 13.1 6.5 13.1 6.5s4.9 7.4 13.9 4.9c3-6.1 5.3-18 6.9-28-9.4-3.2-19.4-8-29.1-15-7.8 9.7-17.9 22.7-17.9 25.1zM219.3 612.8c-3.3 14.1-7.6 26.7-7 28.6.8 2.5 8.2 5.7 12.3 1.6 4.9 4.9 12.3 0 12.3 0s8.2 3.3 10.6-.8c1.4-2.3 1.2-15.2.8-25.9-6.2 0-16.7-.5-29-3.5z"/><path class="st2" d="m176.3 626.6 9-13.9M189.4 633.1l7.3-16.4M224.5 642.9l2.5-14.7M236.8 642.9l1.6-13.9"/><path class="st3" d="M190.2 584.1s-4.1 4.9-9.1 11c9.7 7.1 19.7 11.9 29.1 15 1.4-8.9 2.1-16.2 2.1-16.2l-22.1-9.8zM248.3 616.3c-.3-8.1-.8-15-.8-15s-17.2-6.5-25.4-3.3c-.7 4.9-1.6 9.9-2.8 14.8 12.3 3 22.8 3.5 29 3.5z"/><path class="st4" d="M254 584.9c-3.3.8-18.8 3.3-27.8-4.1-4.1-2.5-8.2 13.4-4.9 19.9 3.3 6.5 27.8 11.2 31.1 3.8 3.2-7.3 4.9-20.4 1.6-19.6z"/><path class="st4" d="M222.1 578.4c-9 0-21.3-6.5-26.2-11.5-4.9-4.9-15.5 12.3-12.3 18s22.9 15.5 28.6 14.7c5.8-.8 13.2-14.7 9.9-21.2zM445.4 508s6.5 100.6 4.1 117.8c-9.8 31.9-76.1 33.5-80.2 1.6-4.1-31.9 6.5-121.9 6.5-121.9l10.6-27L433 472l12.4 36z"/><path class="st3" d="m400.7 483.5-1.1 60.5 22-1.6 1.7-59.7zM384 595.5s-7.6 33.5 23.4 32.7c31.1-.8 19.9-30.3 19.9-30.3l-43.3-2.4z"/><path class="st2" d="m388.1 488.4.8 58.9h41.7l3.3-63.8M377.2 581.6s-2.2 41.7 5.2 51.5c7.4 9.8 46.6 9 53.2-6.5 6.5-15.5 3-46.6 3-46.6"/><ellipse class="st1" cx="409.7" cy="570.6" rx="39.5" ry="37.2"/><path class="st0" d="M371.9 354.7c-5.5 35.6-24.6 152-42.7 158.2-42.5 9.5-79.2-1.9-95.9-8.7-2.7 5.2-4.4 8.9-4.7 11.1 14.7 16.4 92.4 17.2 110.4 13.1s31.1-68.7 31.1-68.7l9-97.3-7.2-7.7z"/><path class="st2" d="m236.8 519.5 6.6-11.5M248.3 523.6l3.2-13.1M259.7 526l3.3-13.9M272 528.2l1.6-12.8M284.2 529l.9-13.9M293.2 530.1l.9-13.9M303.1 530.1l.8-14.7M312.9 530.1l-.8-13.1M326 530.1l-4.1-13.9M339 528.5l-8.1-16.4M349.7 516.2l-13.9-10.6M356.2 503.1l-13.9-8.2M361.9 490.9l-15.5-6.6"/><path class="st3" d="M329.2 512.9c18-6.2 37.2-122.6 42.7-158.2l-18.3-19.4c-6.7 23-18.4 63.7-24.4 87.7-7.8 31.1-13.8 61.6-21.2 65.4-11.1 5.8-44.9-1.3-63.1-5.8-4.6 8.8-8.7 16.1-11.5 21.6 16.6 6.9 53.3 18.3 95.8 8.7z"/><path class="st4" d="M308 488.4c7.4-3.9 13.4-34.4 21.2-65.4 6.1-24 17.7-64.7 24.4-87.7l-12.9-13.7s-5-2-12.1-1.3c-4.2 37.5-29.9 137.6-42.7 144.4-11.5 6.1-25.7-.7-30.4-3.2-3.8 7.8-7.4 14.8-10.7 21.1 18.3 4.5 52 11.6 63.2 5.8z"/><path class="st2" d="m295.7 450 22.9 8.1M298.2 440.1l23.7 9M310.1 407.4l21.6 7.4M312.9 399.3l20.4 8.1M318.6 370.6l22.4 5.3M320.2 361.6l22.9 5.8M281 463.9l.8 24.5M289.2 461.4l1.6 28.6"/><circle class="st2" cx="269.4" cy="477.1" r="5.3"/><circle class="st2" cx="301.4" cy="470.4" r="5.3"/><circle class="st2" cx="316.1" cy="426.2" r="5.3"/><circle class="st2" cx="328.1" cy="386.7" r="5.3"/><path class="st0" d="M285.9 464.7c12.8-6.8 38.5-106.9 42.7-144.4-11.5 1.3-28.2 9.9-37.8 46.2-9.8 38.3-23.3 70.3-35.3 94.9 4.7 2.6 18.9 9.3 30.4 3.3z"/><circle class="st2" cx="279.3" cy="448.3" r="5.3"/><circle class="st2" cx="291.6" cy="414.8" r="5.3"/><circle class="st2" cx="303.1" cy="378.8" r="5.3"/><path class="st2" d="m271.2 432.8 27 7.3M272.8 424.3l28.6 8.2M283.4 397.6l27 7.4M287.5 389.4l25.4 8.2"/><path class="st9" d="M258.5 104.7c-.1 2.6-.1 5.1.1 7.4 15.3-2.3 31.1-4.9 38.8-7.3-9-.4-24.1-.3-38.9-.1zM292.4 87.6c-6.5-1.9-18.3-4.7-30.5-7.9-.6 2.6-1.1 5.2-1.6 7.6 13.1.9 25.7 1.3 32.1.3z"/><path class="st4" d="M334.1 75.4c-25.1-2.9-48.2-8.4-66.7-13.5-2.4 6.3-4.3 12.2-5.6 17.9 12.3 3.2 24 6.1 30.5 7.9-6.5 1-19 .5-32.1-.3-1.1 6.3-1.6 12.2-1.8 17.3 14.8-.1 29.9-.2 38.8.2-7.7 2.3-23.5 5-38.8 7.3.3 7.1 1.3 12.5 2 15.7 33-6.4 76.1-14.8 76.1-14.8l9.8-22.9c.1-.1 44.3-8.3-12.2-14.8z"/><path class="st1" d="M221.3 117.1c-6.5.8-2.5 18.5 2.5 17.7 1.8-.3 17.6-3.3 36.7-7-.7-3.2-1.6-8.6-2-15.7-17.2 2.5-33.7 4.6-37.2 5zM217.2 84.4c-3.3.8-4.1 18 .8 19.6 2.8.9 21.3.8 40.5.7.2-5.2.7-11 1.8-17.3-20-1.3-41.1-3.5-43.1-3zM225.4 50c-5.7.8-10.6 10.6-7.4 15.5 2 3.1 23.7 8.9 43.9 14.2 1.4-5.6 3.2-11.6 5.6-17.9-23.1-6.4-38.9-12.2-42.1-11.8z"/><path class="st5" d="M239.1 154.7c-4.3 9.7-12.7 36.3-18.6 103.1-6.2 70.2-3.5 107.3-1.8 121.2 44.2-16.9 72.1-12.4 72.1-12.4l27.8-60.5 4.9-121.9s-41.6-6.4-84.4-29.5z"/><path class="st1" d="M442.1 450s30.3 6.5 37.6 2.5c7.4-4.1 3.3-17.2 5.7-18.8 2.5-1.6 20.4 3.3 24.5-.8 4.1-4.1.8-12.3.8-12.3l9-20.4 33.5-9s-4.7 4.4-5.7-15.5c-1.6-32.7-25.4-43.3-27.8-46.6-2.5-3.3 0-9.8-3.3-15.5-3.3-5.7-13.1-31.9-23.7-39.3-10.6-7.4-30.3-5.7-30.3-5.7l-79.3 14.7-8.2 36.8-8.2 100.6 31.9 42.5 43.5-13.2z"/><path class="st4" d="M403.7 429.5s14.7-36 16.6-39.8c1.9-3.8 12.8 1.4 12 7.1-.8 5.7-16.4 43.3-16.4 43.3l-12.2-10.6zM425.7 445.1s12.3-39.3 15.5-44.2c3.3-4.9 9.8 1.6 9.8 4.9s-11.5 45-11.5 45l-13.8-5.7z"/><path class="st2" d="m231.1 169.4 85.9 26.2M228.6 182.5l90 24.6M221.3 209.5l91.6 18M218.8 221.8l90.8 16.3M213.9 262.7l90.8 9M213.1 274.9l96.5 9M209.8 318.3l95.7-1.7M209.8 333.8l95.7-1.6"/><path class="st5" d="M360.3 117.9s-17.2 9.3-22.1 9.3-11.5-11.7-6.5-18.3c-6.5-7.4-4.9-21.3 2.5-24.5-4.9-7.4-2.5-10.9 3.3-14.2 5.7-3.3 31.1 12.5 31.1 12.5l-8.3 35.2z"/><path class="st2" d="M345.6 108.9h-13.9M346.4 88.5l-12.3-4.1"/><path class="st1" d="M386.5 118.7c-3.3 4.9-26.2 9-31.1.8-4.9-8.2-2.5-40.1 12.3-41.7 10.6-.8 24.5 13.1 24.5 13.1s-2.4 22.9-5.7 27.8zM349.3 189.3l-27.5-11.7s-28.6 62.2-31.1 188.9c10.4-2.3 18.9-4.3 26-5.9-.7-23.4-1.7-120.8 32.6-171.3z"/><path class="st0" d="m415.1 227.5-9-13.9-28-11.9c-17.3 41.5-23.9 105.2-26.3 139.7l23.2-69.7 40.1-44.2z"/><path class="st3" d="M349.3 189.3C315 239.8 316 337.2 316.8 360.6c25.3-5.9 31.3-8 31.3-8l3.8-11.3c2.4-34.5 9.1-98.1 26.3-139.7l-28.9-12.3z"/><path class="st4" d="M431.6 124.4 385 130c5 28.1 20.3 91.1 20.3 91.1l-41.7 21.3s-11.5 8.2-15.5 26.2c-4.1 18 0 84.2 0 84.2l31.1 9.8v-75.2l47.4-13.9 31.1-11.5 5.7-51.9-31.8-85.7z"/><circle class="st2" cx="358.7" cy="292.1" r="5.3"/><circle class="st2" cx="420.8" cy="177.6" r="5.3"/><path class="st2" d="m403.7 209.9 48.2-6.1M401.2 201.3l43.3-6.5M346.4 315h21.3M347.5 329.7l21.8-1.6M352.1 256.1l22.1 25.4M358.7 246.3l27 28.6M392.2 157.2l38.4-4.1M389.8 148.2l40-4.1"/><path class="st5" d="m424.9 106.5 8.2-32.7s-21.3-.8-32.7 4.6c-17.2 9.8-20.4 23.2-15.5 51 .1.2.1.4.1.5l46.7-5.5-6.8-17.9z"/><path class="st8" d="m447.2 79.7-5.1-1.9-8.2 10.6-2.5 25.4 10.6 24s6.5.9 14 .9c-4.2-13.1-13.1-43.6-8.8-59z"/><path class="st6" d="M474 135.9c-7.4-9-18.8-13.9-18.8-13.9s9-.8 12.3-9c-5.7-8.2-16.1-11.2-16.1-11.2s7.6-3.5 12.5-3.5c-1.6-13.9-6.3-14.7-6.3-14.7l-10.4-3.9c-4.4 15.4 4.6 45.9 8.9 59 6.3 0 13.4-.6 17.9-2.8z"/><path class="st2" d="M442.1 137.8s22.1 3 31.9-1.9c-7.4-9-18.8-13.9-18.8-13.9s9-.8 12.3-9c-5.7-8.2-16.1-11.2-16.1-11.2l16.1-3.5c-4.1-11.5-9.8-14.7-9.8-14.7l-15.5-5.7-8.2 10.6-2.5 25.4 10.6 23.9zM434.7 102.1l16.7-.3M439.6 122h15.6"/><path class="st8" d="m470.7 234 7.4-4.4s12.3.3 14.7-3-4.9-22.1-4.9-22.1l-21.9 6.6 4.7 22.9z"/><path class="st6" d="M503.4 194.8c-1.6-6.5-7.4-13.1-16.4-15.5-9-2.5-26.2 7.4-26.2 7.4l5.1 24.5 21.9-6.6c.1 0 13.2 0 15.6-9.8z"/><path class="st2" d="M478.1 229.7s12.3.3 14.7-3-4.9-22.1-4.9-22.1 13.1 0 15.5-9.8c-1.6-6.5-7.4-13.1-16.4-15.5-9-2.5-26.2 7.4-26.2 7.4l9.8 47.4 7.5-4.4z"/><path class="st2" d="M487.9 204.6s-7.4-9.8-1.6-13.9"/><path class="st5" d="M384 251.2s-14.7 11.5-20.4 6.5c-5.7-4.9-8.2-26.2.8-31.1 9-4.9 60.5-12.8 68.7-7.9 8.2 4.9 10.6 20.2 4.9 25.9-4.1-1.6-10.6-6-10.6-6L384 251.2z"/><path class="st8" d="M373.4 240.6s2.4 18.2 22.9 19.1v-22.5l-22.9 3.4z"/><path class="st6" d="m427.4 232.4-31.1 4.7v22.5c3.3.2 7.1-.2 11.5-1.1 31-6.5 19.6-26.1 19.6-26.1z"/><path class="st0" d="M403.1 248.2c7.9-1.4 7-8.7 5.7-13l-15.8 2.4c.3 4.2 1.8 12 10.1 10.6z"/><path class="st2" d="m427.4 232.4-18.5 2.8c1.2 4.3 2.1 11.7-5.7 13-8.3 1.4-9.8-6.4-10.1-10.6l-19.6 3s3.3 24.5 34.4 18c30.9-6.6 19.5-26.2 19.5-26.2z"/><path class="st1" d="M390.6 348.5s-6.8-51.8-1.9-56.7c4.9-4.9 71.4-11.2 79.6-20.2s10.6-29.9 9-45.8c-4.1-22.9-15.7-46.3-26.3-78.8-10-30.5-16.1-55.5-12.9-61.1 4.9-4.9 11.5-1.6 19.6-2.5-.8-9.8-7.4-13.1-22.1-11.5-14.7 1.6-22.9 25.4-12.3 52.3 10.6 27 36.8 106.3 30.3 123.5-9 24.5-70.3 21.3-79.3 27.8-9.1 6.5-5.8 77.7-5.8 77.7l22.1-4.7zM220.5 257.8c5.9-66.7 14.4-93.4 18.6-103.1-5.9-3.2-11.9-6.8-17.8-10.6-18.8 15.5-44.2 220.8-19.6 242.1 5.9-2.8 11.6-5.2 17-7.3-1.7-13.8-4.5-51 1.8-121.1z"/><circle class="st1" cx="263" cy="236.8" r="22.9"/><circle class="st3" cx="256.4" cy="328.1" r="22.9"/><path class="st0" d="M373.4 484.3s-10.6 22.1-8.2 27.8 13.9 8.2 20.4 3.3c6.5-4.9 7.4-25.4 7.4-25.4l-19.6-5.7zM420 489.2s7.4 23.7 13.9 25.4c6.5 1.6 15.3-2.5 16.1-11.5s-16.1-19.6-16.1-19.6l-13.9 5.7zM452.7 473.7s15.5 16.4 22.1 16.4 15.5-13.9 9.8-20.4-23.7-7.4-23.7-7.4l-8.2 11.4z"/><path class="st1" d="M356.2 473.7c-1.6 9.8 33.5 26.2 44.2 18.8 5.4-3.8 4.1-9 4.1-9s4.1 10.6 10.6 10.6 27.8-9 29.4-13.1c1.6-4.1.8-9 .8-9s6.5 5.7 11.5 4.1 9-9 9-17.2-23.7-9-23.7-9l-56.4-4.1c0 .1-27.8 18.1-29.5 27.9z"/><path class="st2" d="m404.5 483.5-2.5-17.2M445.4 472l-13.9-12.2"/><circle class="st2" cx="384" cy="478.6" r="5.3"/><circle class="st2" cx="424.1" cy="477.8" r="5.3"/><circle class="st2" cx="451.1" cy="461.4" r="5.3"/><path class="st0" d="M431.5 444.3c-4.6 3.1-13.2 6.9-26.9 6.4-15.7-.6-33.1-17.3-41.8-26.9l-4 13s-14.7 8.2 13.1 25.4 62.2 10.6 70.3-12.3c-3.9-1.9-7.4-3.7-10.7-5.6z"/><path class="st3" d="M404.5 450.8c13.7.5 22.4-3.4 26.9-6.4-34.1-18.9-44.9-34.5-44.9-34.5l-18-4.9-5.8 18.9c8.7 9.5 26.1 26.3 41.8 26.9z"/><circle class="st0" cx="360.3" cy="458.1" r="16.9"/><circle class="st0" cx="360.3" cy="458.1" r="6.8"/><circle class="st5" cx="376.6" cy="375.9" r="35.5"/><path class="st2" d="m343.4 370.6 68.1-.6M343.4 382.6l68.1-.6M370.6 343.3l.6 62.2M383.2 407.1l-2.2-66"/><circle class="st5" cx="376.6" cy="376.7" r="19.2"/><path class="st4" d="M385.1 394.4c.5-8.2.8-14.6.5-16.4-.8-6.5-16.4-9-20.4-2.5-1.3 2-4.3 9.2-7.9 18.3 9.7-2.9 20.6-1.2 27.8.6z"/><path class="st1" d="M383.6 412.8c.6-6.5 1.1-12.9 1.5-18.4-7.2-1.8-18.2-3.4-27.8-.5-2 5.2-4.3 11.2-6.3 17.1 15-1.7 25.7-.2 32.6 1.8z"/><path class="st0" d="M344.1 432.4c-2.3 8.1-3.5 14.2-2.6 15.9 3.3 5.7 31.9 7.4 36 2.5 1.2-1.4 2.5-7.5 3.6-15.7-5.6-2.4-17-5.3-37-2.7z"/><path class="st3" d="M351 410.9c-2.7 7.5-5.1 15.1-7 21.5 20-2.6 31.4.2 37 2.6.9-6.6 1.8-14.4 2.6-22.2-6.9-2-17.6-3.5-32.6-1.9z"/><path class="st8" d="M447.8 318.6c-3.3 1.4 2.7 18 13.4 21.3 2.1.7 4.3 1.1 6.6 1.4l-1-24.6c-9.1.4-17.5 1.3-19 1.9z"/><path class="st6" d="M492.8 316.9c-2.2-1-14.7-.9-26-.3l1 24.6c9.7 1.4 20.7.2 25.3-3.1 5.7-4 3.8-19.3-.3-21.2z"/><circle class="st0" cx="476.3" cy="324.9" r="6.1"/><path class="st0" d="M502.6 405.8c-6.5 4.1-31.1 4.1-32.7 6.5-1.6 2.5-.8 9 2.5 9.8 3.3.8 44.2 0 48.3-.8 4.1-.8.8-16.4.8-16.4s-12.3-3.2-18.9.9z"/><path class="st2" d="m483 420.5-.8-9.8M496.9 420.5v-11.4M510.8 420.5l-1.6-12.3"/><path class="st5" d="M584.4 361.6s-34.4-.8-37.6 4.1c-3.3 4.9 3.3 18.8-2.5 20.4-5.7 1.6-30.8 7.4-34.1 4.9-3.3-2.5-11.7-20.7-15.8-21.5-4.1-.8-20.7 0-24.8.8-4.1.8-3 19.9.3 20.7 3.3.8 16.4-1.6 19.6.8 3.3 2.5 3.3 15.5 24.5 19.6 8.2 0 44.2-8.2 47.4-11.5 3.3-3.3-.3-14.4 3-16.1 3.3-1.6 17.4.5 19.9-3.5 2.6-3.9.1-18.7.1-18.7z"/><path class="st1" d="M544.3 386.2c-5.7 1.6-30.2 6.1-34.1 4.9-8.8-2.5-15.9-20 3.8-23.2"/><path class="st2" d="M447.8 318.6c-3.3 1.4 2.7 18 13.4 21.3 10.6 3.3 26.2 2.5 31.9-1.6 5.7-4.1 3.8-19.4-.3-21.3s-41.7.2-45 1.6z"/><path class="st0" d="M205.7 472s-17.2 12.3-20.4 18.8 8.2 24.5 21.3 18.8c9.8-4.9 14.7-27 14.7-27L205.7 472z"/><path class="st2" d="M209 476.1s-17.2 18.8-10.6 22.1c6.5 3.3 14.7-15.5 14.7-15.5"/><path class="st1" d="M207.6 459.8s-6.8 7.4-6.8 11.5 13.9 18.8 19.6 17.2c5.7-1.6 4.9-9 4.9-9l-17.7-19.7z"/><path class="st3" d="M230.3 437.7s-20.2 16.4-22.6 22.1c-2.5 5.7 12 22.1 17.7 19.6s18-22.9 18-22.9l-13.1-18.8z"/><path class="st4" d="M245 422.2c-7.4 2.5-19.6 14.2-19.6 19.9s9 17.7 16.4 17.7 14.7-15.5 15.5-22.9c.8-7.4-5-17.2-12.3-14.7z"/><path class="st5" d="M251.3 406.1c-7.4 2.5-11.5 10.6-11.5 15.5s11.7 14.4 17.4 15.3c5.7.8 17.4-9.8 15.8-15.5-1.6-5.8-14.4-17.8-21.7-15.3z"/><path class="st10" d="M675.7 384h61.1v43.6h-61.1zM578.9 384h29.7v43.6h-29.7z"/><path class="st2" d="M578.9 399.3h157.9M578.9 415.1h157.9"/><path class="st0" d="M608.7 384h24v43.6h-24zM649 384h26.7v43.6H649z"/><path class="st0" d="M632.7 384h16.4v43.6h-16.4z"/><path class="st2" d="m649 400.9-16.3-10.4M649 416.2l-16.3-10.4"/><path class="st4" d="M645.2 235.7c1.6-28.6 22.9-58.9 33.5-77.7s7.1-61.9 6.3-67.6c-.8-5.7 11.5-7.6 12.8-.3s5.5 49.9-4.4 71.2c-9.8 21.3-31.9 49.9-31.9 75.2s-17.9 27.8-16.3-.8z"/><path class="st1" d="m632.9 258.6-2.4-27.8 62.1 5.7-10.6 34.3z"/><path class="st0" d="m583.7 291.8 31.9 20.6c5.2-.3 11.2-.5 17.6-.6l-37.7-38.9c-4.4 5.9-8.5 12.8-11.8 18.9z"/><path class="st3" d="M576.5 306.8s7.4 9.8 28.6 6.5c2.7-.4 6.3-.8 10.5-1l-31.9-20.6c-4.4 8.4-7.2 15.1-7.2 15.1zM603.5 264.3c-2.7 2.2-5.4 5.2-8 8.6l37.7 38.9c3.2-.1 6.4-.1 9.8-.1L611.7 260c-3.1 1-6 2.4-8.2 4.3zM703 284.9l-17 27.3c7.5.2 12.3.3 12.3.3s19.6 7.4 35.2-9c-13.5-4-23.1-11.2-30.5-18.6z"/><path class="st0" d="m691 271.7-23 40.1c6.8.1 13 .2 18 .4l17-27.3c-4.8-4.7-8.6-9.3-12-13.2z"/><path class="st3" d="M682 263.5c-.3-.1-.5-.3-.8-.4l-24.9 48.6c4 .1 7.9.1 11.7.1l23-40.1c-3.3-3.7-6.2-6.7-9-8.2z"/><path class="st0" d="M652.3 258s-24.5-3.7-40.6 1.9l31.3 51.7c4.5 0 8.9 0 13.4.1l24.9-48.6c-10.8-5.3-29-5.1-29-5.1z"/><circle class="st5" cx="647.7" cy="321.6" r="46.6"/><circle class="st3" cx="650.9" cy="296.2" r="18"/><circle class="st0" cx="652.6" cy="263.9" r="13.5"/><circle class="st3" cx="652.6" cy="264.2" r="5.7"/><path class="st3" d="M595.3 358.1c-4.1 2.7-4.9 20.7 0 23.2 1.3.7 5.6 1 11.2 1v-24.8c-5.7-.2-10-.2-11.2.6z"/><path class="st0" d="M606.5 357.5v24.8c3.9.1 8.5 0 13.1-.1v-23.6c-4.6-.5-9.2-.8-13.1-1.1z"/><path class="st3" d="M708.2 363.3c-1.3-1.3-8.3-2-17.2-2.2v24.1c7.5.6 13.2 1 14.7 1 4.9 0 6.6-18.8 2.5-22.9zM644.8 361.6s-12.6-1.7-25.2-3v23.6c13.1-.3 26.4-1 26.4-1s12.4 1.1 25.9 2.3V361c-14.2.1-27.1.6-27.1.6z"/><path class="st0" d="M671.9 360.9v22.6c6.5.5 13.3 1.1 19.1 1.6V361c-5.9-.1-12.7-.1-19.1-.1z"/><circle class="st0" cx="644.8" cy="368.6" r="17.6"/><circle class="st3" cx="644.8" cy="369" r="7.4"/></svg>