<svg version="1.1" id="Calque_1" xmlns="http://www.w3.org/2000/svg" x="0" y="0" viewBox="0 0 900 900" style="enable-background:new 0 0 900 900" xml:space="preserve"><style>.st0{fill:red;stroke:#000;stroke-width:4.2271;stroke-linecap:round;stroke-linejoin:round;stroke-miterlimit:10}.st1{fill:#d3986c}.st1,.st2,.st3,.st4,.st5,.st6,.st7,.st8,.st9{stroke:#000;stroke-width:4.2271;stroke-linecap:round;stroke-linejoin:round;stroke-miterlimit:10}.st3,.st4,.st5,.st6,.st7,.st8,.st9{fill:#fff}.st4,.st5,.st6,.st7,.st8,.st9{fill:#b57931}.st5,.st6,.st7,.st8,.st9{fill:#ffce00}.st6,.st7,.st8,.st9{fill:none}.st7,.st8,.st9{fill:#e0d4a0}.st8,.st9{fill:#885b25}.st9{fill:#008e1e}</style><path class="st0" d="M615.9 751s27.5-28.8 33.3-28.3c5.8.5 9.5 19 5.8 22.6-3.7 3.6-25.4 18.5-25.4 18.5L615.9 751z"/><path class="st0" d="M619.1 751.7s49.1 16.4 50.7 20.6c1.6 4.2-18.5 22.1-18.5 22.1L612.4 767l6.7-15.3z"/><path class="st0" d="M594.3 751.2s12.7-8 18.5-8 16.9 9.1 16.9 12.8c0 3.7-15.9 15.3-15.9 15.3l-18.5-7.5-1-12.6z"/><path class="st1" d="M559.3 705.7c.6 2.6 9.6 36.7 9.6 36.7l-3.2 37.3 99.4 30.9s-5-1.5 1-8.8c-2.6-26.4-55-34.5-61.8-43.8s-7.4-47.7-7.4-47.7l-37.6-4.6z"/><path class="st2" d="m600.1 748.8 4.2 42.9-41.7-11.9s-6.9-12.6 3.7-30.9c2.6-6.4 17.1-6.4 17.1-6.4l16.4 1.8.3 4.5"/><path class="st3" d="M562.5 788.2c-4.2 0-4.2-10.3-.8-12.7 3.4-2.4 98.7 24.3 104.5 26.4 5.8 2.1-1.1 11.6-5.3 11.6-4.2 0-94.2-25.3-98.4-25.3zM564.1 738c-2.6 3.2-2.1 10.8 2.1 10.9s28-.2 33.8 0 6.3-11 0-11.9c-6.3-1-33.2-2.2-35.9 1z"/><path class="st4" d="M574.2 508.1s28 13.2 29.6 37.5c1.6 24.3-.5 160.6-6.9 164.9-6.3 4.2-40.7 4.8-44.9 0s-33.3-154.9-33.3-154.9l5.3-70.3 50.2 22.8z"/><path class="st0" d="M417.1 828.8s20.7-4.2 20.7-10-16.1-39.1-16.1-39.1 17.1 21.1 23.5 23.5c6.3 2.3 16.3-13.5 10.6-16.2-5.7-2.6-34-15.9-34-15.9l-19.3 10.6 14.6 47.1z"/><path class="st0" d="M402.4 765.4s20.6-3.7 22.9 0c2.3 3.7 5.6 12.2 1.9 16.4s-24.8 5.3-24.8 5.3v-21.7z"/><path class="st1" d="m392.9 713.9-24.5 39.4 12.3 53.9s27.6 30.2 39.2 34.9c12.2-13.2-15.9-63.9-15.3-75.6.5-11.6 20.8-33.4 20.8-33.4l-32.5-19.2z"/><path class="st2" d="M345.1 771.2s11.7-19.6 23.4-22.2c11.6-2.6 34 22.2 34 22.2l-19.3 39.4-38.1-39.4z"/><path class="st3" d="M345.1 771.2c-3.9 0-5.8 11.1-1.7 14.8 6.2 5.7 69.6 63.4 73.8 63.9 4.1.5 5.9-7.9 3.6-10.6-2.5-2.6-71.8-68.1-75.7-68.1zM373.4 744.2c-5-.4-10.5 3.8-6 10.1 4.4 6.3 33.7 20.6 38.9 20.6 5.2 0 7.8-11.2 4.1-14.8 0 .1-32-15.4-37-15.9z"/><path class="st5" d="M389.2 603.2s-8.5 36.5 1.6 44.9 30.1 9.8 34-2.5c3.9-12.4 1.9-42.4 1.9-42.4h-37.5z"/><path class="st0" d="M337.5 603.2s-14.3 13.7-15.6 31.2c-1.4 17.4 37.3 25.9 44.2 7.9 6.9-18-3.2-39.1-3.2-39.1h-25.4z"/><path class="st5" d="M269.3 569.9s-20.8 22.9-14.8 46.1c6 23.1 34.3 21.1 40.7 5.2s1.1-55.6 1.1-55.6l-27 4.3z"/><path class="st0" d="M239.2 536.6s-32.4 12.5-38.5 27.5c-11.2 28 6.2 39.1 23.1 39.1s33.3-47.7 33.3-47.7l-17.9-18.9z"/><path class="st6" d="m282.6 574.7-9.6 44.5M404.5 610.4v31.4"/><path class="st5" d="m355.3 452.1-46.9 20.6s-69.7 56-74 63.4c-4.2 7.4.5 30.6 26.4 21.7l106.4-106.9-11.9 1.2zM442.6 483.2l-6.9-39.4-59.7 6.1-86.7 128.4c-.5 15.3 17.4 25.9 30.6 14.8l37.1-95.3h9.9l-24.3 106.9c5.8 15.9 20.8 10.6 26.4 3.2l9.5-114.2 18.5 4.1-3.1 112.9c9.9 12.2 21.6 9.5 26.8 3.2l-3.8-132.2 25.7 1.5z"/><path class="st6" d="M391.9 578.4c15.1 14.3 30.1 0 30.1 0M391.9 554.2c18.5 15.7 30.1 0 30.1 0M394.1 533.7c10.5 15.2 27.9 3 27.9 3M394.1 515.6c13.9 10.5 27.9 0 27.9 0M359.8 515.6c7.3 12.6 23.5 2.4 23.5 2.4M355.3 533.7c11.6 13 23.4.7 23.4.7M352.3 551c13.1 17.3 26.4 3.2 26.4 3.2M348.6 565.7c8.6 17.4 30.1 4.2 30.1 4.2M343.4 587.4c14.2 15.9 32.7 0 32.7 0M295.7 559.5c7.2 33.2 35.4 24.2 35.4 24.2M309.3 542.5c10.5 26.4 33 14.2 33 14.2M317.1 529.2c9.8 17.4 28 7.4 28 7.4M326.9 515.6c4.8 15.9 25.4 6.1 25.4 6.1M282.5 493.7c0 19.1 20.3 21.9 20.3 21.9M268.8 506.9c0 18.6 18.3 24.5 18.3 24.5M249.3 521.7c0 21.2 23.7 23.9 23.7 23.9"/><path class="st0" d="M378.7 493.7 369.2 608c10 14.3 19.8 10 24.9 2.6l3.1-112.8-18.5-4.1zM367.3 450.8l-106.5 107c-3.2 13.7 15.3 30.1 28.5 20.6L376 450l-8.7.8zM417.1 481.6l3.8 132.2c20.8 9.9 41.7-16.4 41.7-16.4l-20.1-114.2-25.4-1.6zM357 497.9l-37 95.3c-2.9 20.1 14.8 20.6 22.7 11.6L367 497.9h-10z"/><path class="st5" d="M184.8 270.8s-13.2-12.2-27.5-12.2-35.9 9.2-35.9 9.2 16.1 10.4 33.8 12 29.6-9 29.6-9z"/><path class="st6" d="m141.4 269.2 52.3 3.8M595.3 268.2 562 283.5M593.2 220.7l-25.9 17.4M579.5 164.7l-28.2 10.8M523.4 106.5 512.9 134l17.4 16.8 31.3-32.3"/><path class="st5" d="M595.3 268.2s3.2-9.1 9.5-17.2 30.1-8.1 30.1-8.1-7.9 18.5-17.4 25.4c-9.5 6.8-22.2-.1-22.2-.1z"/><path class="st7" d="M593.2 220.7s-3.7-15.4 7.9-24.1 29.6-7.6 29.6-7.6-4.2 14.8-13.2 23.2c-9 8.5-24.3 8.5-24.3 8.5z"/><path class="st5" d="M579.5 164.7s2.2-17.1 12.2-23c9.9-5.8 25.9-11.3 25.9-11.3s-4.2 21.7-12.2 28.2c-8 6.5-25.9 6.1-25.9 6.1z"/><path class="st7" d="M561.6 118.5s-4.6-12.5 2.5-20.4 27.5-13.7 27.5-13.7-3.2 17.6-7.9 25.9c-4.8 8.2-22.1 8.2-22.1 8.2z"/><path class="st5" d="M521.3 88.6c3.2-11.1 22.1-23.8 22.1-23.8s3.8 22.2-1 31.9-19 9.8-19 9.8-5.2-6.8-2.1-17.9z"/><path class="st7" d="M473.1 175.5s-4.1-64.3 1.2-83.8c5.3-19.6 19-33.3 18.5-29.6-.5 3.7 4.2 21.6 0 35.9s-19.7 77.5-19.7 77.5z"/><path class="st2" d="M736.5 279.4s33.7-126.4 51.1-142.8c-2.6 9-8.5 30.1-9 33.8-.5 3.7 7.4-3.2 12.2-.5-11.1 7.4-18 15.2-18 20.6s6.9-2.1 14.8 1.1c-9 5.4-19.3 15.3-21.7 19.6-2.3 4.2 13.2-.5 15.9 2.1-7.1 6.7-20.8 9-20.8 13.2 0 4.2 10.3-2.1 16.6 1.1-6.6 6.9-20.6 9.5-20.6 12.7s13.2.5 15.3 4.2c-10 5.1-20.6 10.6-23.2 15.3-2.6 4.8 8.6 2.1 13.5 4.2-5.6 10-24.4 23.8-24.4 23.8l-1.7-8.4"/><path class="st8" d="M727.9 171c-1.1-5.3-9.4-5.3-9.5 0 0 2 4.2 58.8 11.3 135.1h12.9c-8.3-76.6-14.3-133.4-14.7-135.1z"/><path class="st8" d="M771.7 560.4c-9.9-80.7-20.7-177.5-29.1-254.4h-11.4c11.1 121.2 25.6 291.9 25.3 371.7 9.5 5.3 39.1 42.8 39.1 42.8s-12.8-70-23.9-160.1z"/><path class="st1" d="M552 171.5s-3.3 18.1 0 21.1 15.3 10.6 15.3 14.8c0 4.2-10 1.1-12.7 4.8-2.6 3.7 3.7 4.2 7.4 8.5 3.7 4.2 1.6 19.6 1.6 19.6h-40.7L496 224.9l2.5-47 22.8-13.2 30.7 6.8z"/><path class="st6" d="m550.9 227.5 11.1-6.8"/><path class="st3" d="M517.6 198.7c0-3.9 16.9-7.1 21.7-7.1s5.8 10.9 1.1 10.9c-4.8 0-22.8.1-22.8-3.8z"/><circle cx="535.1" cy="197.6" r="4.8"/><path class="st1" d="M725.8 279.8c-5.3 5.3-14.3 25.9-22.2 25.4-.3 0-.6-.1-1.1-.1v42.3c9.2 2.2 27.4 10.7 31.2-3.7 4.2-15.9-4-37.7-4-37.7s3.5-14.7 7.2-20.9c3.7-6.3-5.8-10.5-11.1-5.3z"/><path class="st4" d="M664 296.8c-10.6-1.1-42.8 2.1-61.3-5.3s-65.5-37-65.5-37-74.3-9.9-79.3-1.6-34.3 30.6-37.5 63.9c-3.2 33.3 10.8 56.7 17.4 68.2 6.7 11.4-21.7 88.2-25.9 122.1s31.2 54.4 36.5 79.3c5.3 24.8-6.9 41.7-31.2 67.6-24.3 25.9-31.7 58.7-31.7 63.4 0 4.8 23.2 20.6 32.8 20.6s107.8-117.3 110.4-127.3c2.6-10-3.2-143.2-3.2-143.2s126.8-122.1 130-122.6c3.2-.5 36.6 1.5 44.4 2.1.7.1 1.7.2 2.6.5v-42.3c-8.6-1-28.4-7.4-38.5-8.4z"/><path class="st1" d="M759.6 301c-4.1-7.3-12.5-9.5-18.6-9.6.5 4.9 1.1 9.7 1.6 14.7h-12.9s-8.1-.8-11.3-.3c-3.2.5-3.1 7.9 0 10.6-3.1.5-3.1 7.4 0 10-2.9 1.1-5.3 9 0 11.6-5.3-.5-2.6 10.9 3.7 13.2 6.3 2.3 30.5 5.3 34.3-3.2 3.9-8.4 6.2-41.7 3.2-47z"/><path class="st5" d="M233.9 84.3s-15.9-4.2-20.1-12.7c-4.2-8.5-3.4-21.7-3.4-21.7s13.4 6.3 19.2 12.2c5.9 5.9 4.3 22.2 4.3 22.2z"/><path class="st0" d="M159.4 62.2s.7 23.2 8.5 33.3c7.7 10 21.5 11.1 21.5 11.1s.4-13.2-5.6-24.3c-6.1-11.2-24.4-20.1-24.4-20.1z"/><path class="st5" d="M113.4 113.9s-3.2 32.4 10.6 42.8 35.9 4.8 35.4 4.2-8.6-18.5-15.9-27.5c-7.3-8.9-30.1-19.5-30.1-19.5z"/><path class="st0" d="M104.4 178.4c0 1.6-.5 25.4 10.6 35.9s38 2.6 38 2.6-8.5-19.2-19.6-24.3c-11-5-29-14.2-29-14.2zM182.6 296.2s-44.9-4.5-50.7 2.6c4.1 5.9 25.4 15.2 35.9 15.2s25.9-6.2 25.9-6.2l-11.1-11.6h0"/><path class="st5" d="M200.3 334.3s-12.7-4.2-22.6-4.2-31.5 9.5-29.9 9.7 21.3 6.2 29.9 6.2 22.6-11.7 22.6-11.7z"/><path class="st0" d="M193.7 367.3s-16.9 1.8-23.8 11.1c-6.9 9.2-6.9 28-6.9 28s17.2-4.3 25.2-14.2c8-9.7 6.4-20.9 5.5-24.9z"/><path class="st5" d="M215.4 411.9s-9 1.9-15.9 7.3c-6.9 5.5-13.7 14.9-16.9 24.9 12.2 0 28.5-10.7 33.3-15 4.8-4.4-.5-17.2-.5-17.2z"/><path class="st0" d="M245 434.1s-15 5.8-18.9 12.7c-3.9 6.9-2.7 22.2-2.7 22.2s19.6-11.2 21.7-16.9c2-5.7-.1-18-.1-18z"/><path class="st9" d="M282.6 227.5c-.7 1.6-38.8-13.2-55.7-13.2s-60.8 6.3-60.8 6.3 9.2 19.6 23.1 19.6c13.9 0 33.5-.5 46.9 0 13.4.5 36.9 16.1 59 14.2 22.1-1.9-1.1-21.6-1.1-21.6l-11.4-5.3zM309.3 182.9s-34.8-7.3-52.2-24.4-49.5-56.2-58.7-45.1c25.9 36.5 42.1 66.4 54.3 72.9 12.3 6.6 73.1 53.9 73.1 53.9l11.5 14.2 11.1-3.4-3.2-35.6-35.9-32.5z"/><path class="st9" d="M309.3 162.5c-17.9-36.2-22.6-91.9-15.2-100.4 25.7 57.6 56.5 100.4 56.5 100.4l10.5 44.8-20 20.2c.1 0-13.9-28.7-31.8-65zM355.3 141.9c-6.8-33.3 9.1-91.9 9.1-91.9s26.5 47 26.5 63.9 20 112.5 18.4 113.6c-1.6 1.1-29.1 5.3-29.1 5.3s-18.1-57.6-24.9-90.9zM417.2 243.9S411.4 80.1 444.1 50c5.3 6.9 8.6 16.4 3.5 29.1-5.1 12.7 0 176.5 0 176.5l-30.4-1.1v-10.6z"/><path class="st9" d="M394.1 231.8c-8-31.2-14.2-178.1 0-181.8 0 61.8 12.9 67.6 19.4 95.6 10 43.3 12.2 108.8 12.2 108.8H386c.1.1 16.1 8.5 8.1-22.6z"/><path class="st9" d="M341.2 161.5c-5.9-29.9-12.2-104.6-7.9-104.6 4.2 0 26.3 70.1 31.2 96.4 4.9 26.3 37.5 66.8 40.2 97.8-12.2 7.5-38.6 0-38.6 0s-19-59.7-24.9-89.6zM249.2 91.7C236 107 274 146 293.1 171.5c19 25.5 48.1 78 48.1 78l28.5 1.1 10.6.4s-30.5-54.4-51.8-77.5-67.1-71.2-79.3-81.8z"/><path class="st9" d="M289.4 249.5s-22.2-26.4-46.5-39.9-75-33.8-75-42.6 96.2 13.7 117.8 24.5c21.7 10.8 55.5 57.9 55.5 57.9h-51.8v.1zM266.7 306.1s-72.6 23.5-72.9 27.7c-.3 4.2 6.8 7.5 19.6 5.3s91.9-17 91.9-17l-11.1-19.6-27.5 3.6z"/><path class="st9" d="M299.7 306.1s-108.6 50.8-110.2 57.8 5.3 22 11.1 18.7c5.8-3.3 78.6-52.5 99.5-54.4 21-2-.4-22.1-.4-22.1zM314.2 268.2s-129.5-4.6-133.2-2.1c-3.7 2.5-7.9 11.1-3.7 16.9 4.2 5.8 91.4 13.2 91.4 13.2l72.4-5.3-26.9-22.7z"/><path class="st9" d="M313.2 314s-118.4.3-126.3-2.1c-7.9-2.4-16.9-15.1-16.9-15.1 7.9-5.4 158.5-5.8 158.5-5.8v15.1l-15.3 7.9zM285.7 375c-13.2 4.8-44.9 50.2-44.9 57.1s6.9 8.5 13.7 4.8c6.9-3.7 28.2-35.9 28.2-35.9l4.1 25.9s-19.1 17.4-21.2 28 .5 18 5.8 18 33.8-48.9 33.8-48.9-6.3-53.8-19.5-49z"/><path class="st6" d="m198.5 434.1 24.7-27.7M217.9 61.5l17.6 26.8M123.5 130.3c9.5 22.4 35.9 30.6 35.9 30.6"/><path d="M444.2 177.3c-12.2-5.3-21.7-15.9-17.4-24.8s26.4-2.1 26.4-2.1 39.1-27.5 53.9-23.8c14.8 3.7 14.3 12.7 19 15.9 4.8 3.2 34.9 10 40.7 10.6 5.8.5 5.4 8.1 2.1 10s-8.3 1-10 3.7c-1.7 2.7-.6 11.8-5.8 12.7-5.2.8-26.4-2.6-37.5 4.2-11.1 6.9-11.6 18.5-10.6 29.1 1.1 10.6 20.1 24.3 36.5 24.8s20.1-3.2 26.4-4.8 2.4 10.6 0 11.1-6.9 6.9-30.6 6.9c3.7 5.8-.5 15.3-10 18-9.5 2.6-34.3 3.7-45.4 0s-23.8-15.9-23.8-15.9l13.2-22.2s-20.1-10.6-25.9-28.5c-6-18-1.2-24.9-1.2-24.9z" style="fill:#b57930;stroke:#000;stroke-width:4.2271;stroke-linecap:round;stroke-linejoin:round;stroke-miterlimit:10"/><path class="st2" d="M488.6 157.3c-3.7-5.2 4.8-11.6 12.2-11.6s7.9 7.9 7.9 7.9-13.7 7.9-20.1 3.7z"/><path class="st6" d="M433.5 158.5c12-4.4 19.9 6.6 19.9 6.6"/><path class="st0" d="M366 481.2c-22-1.9-45.9-9.7-63.7-23.6-1.9 6.7-3.8 16.6-1.3 24 4.2 12.2 19.9 19.1 54.3 21.8 21.6 1.7 44-1 57.7-3.1 1.4-7.5 3.5-16.4 5.9-25.9-13.4 4.5-31.8 8.6-52.9 6.8z"/><path class="st9" d="m345.9 298.9 2.6-.3v-5l-18.5-2.2h-2.6S226.5 371.5 210.6 415c-2.3 6.9 15.2 2.9 24.5-10.7 5.8-8.5 34.5-30.6 55.3-46.3 21.1-32.9 55.5-59.1 55.5-59.1z"/><circle class="st5" cx="239.6" cy="88.3" r="9.8"/><circle class="st5" cx="194.5" cy="106.5" r="9.8"/><circle class="st5" cx="161.7" cy="160.6" r="9.8"/><circle class="st5" cx="157.5" cy="219.8" r="9.8"/><path class="st5" d="M437.8 385c-6.7-11.4-20.6-34.9-17.4-68.2 1-10 4.3-19 8.7-27.1l-83.2 9.1s-68.7 52.3-71.3 102c-2.6 49.7 48.1 76.6 91.4 80.3 21.1 1.8 39.5-2.2 52.9-6.7 9.4-36.1 23.9-80.8 18.9-89.4z"/><path class="st7" d="m360.7 254.5-66.6 4s28.5 41.6 43.3 47.6c10.1 4 56.2 3.6 84.2 3 5.3-23.5 22.8-40.7 31.7-50.5l-92.6-4.1z"/><path class="st6" d="M407.3 309.3c3-13 7.3-32.4 7.3-35.3 0-4.2-19.6-8.7-25.9-5.8-5 2.2-8.2 28.3-8.8 41.2 9.1 0 18.6 0 27.4-.1zM361.1 289.9c-2.7-9-13.1-25.5-30.4-25.5-11.5-.1-12.6 14.2-11.9 25.9 6.7 7.4 13.5 13.8 18.6 15.9 3.8 1.5 12.8 2.4 23.9 2.9 2.8-5.7 1.4-14.1-.2-19.2z"/><path class="st5" d="M458.1 252.7c-35.8-7.3-173.5-8.2-173.5-3.1 0 5.5 3.2 10.3 9 13.4 5.2 2.9 93-.3 151.6 4.4 5.8-6.6 10.9-11.4 12.7-14.5 0-.1.1-.2.2-.2z"/><circle class="st6" cx="317.1" cy="406.4" r="28.5"/><circle class="st6" cx="317.1" cy="406.4" r="11.6"/><path class="st6" d="M291.6 356.3c-3.4 5.1-6.4 10.4-9 15.7 11.1 4.2 39.5 9.6 78.1 3.8.2-5.1-.2-10.5.6-15.1-27.4 3.8-56.9-1.1-69.7-4.4z"/><path class="st0" d="m551.9 263.6-12.2 53.7s-43.8-35.2-79.7-34.1c-35.9 1.1-113.1 123.6-139 144.8-13 10.6-27.4 10.6-38.4 7.9 5.4 9.5 13.3 17.5 22.5 24.1 9.5-3 20.5-7.7 31.2-15.6 28.5-21.1 90.4-127.9 130-132.3 39.6-4.4 71.3 22.4 71.3 22.4s-29.1 66.6-43.9 68.2c-10.8 1.2-47 25.5-65.7 38.5-4.1 15-8.6 30.8-11.8 44.5 19.8-13.1 70.4-46.3 79.3-47.6 11.1-1.6 63.9-111.5 63.9-111.5s8-32.7 14.8-49.7c-8-4.7-15.9-9.4-22.3-13.3z"/><path class="st3" d="M357 390.8c4.1 9 20.6 15.3 23.8 20.6 3.2 5.3-7.1 22.7-7.1 22.7s26.1-15.3 19.2-27.8c-6.9-12.5-17.9-12.5-22.2-21.7-4.3-9.2-2.5-22.9.7-40.2-18.6 9.2-18.5 37.4-14.4 46.4z"/><circle class="st5" cx="591.6" cy="414.9" r="103"/><path class="st6" d="m525.3 336 8.6 10.1M546.7 337.1l-6.7-11.4M609.5 313.5l-2.4 13M494.7 379.7l12.5 4.6M502.3 363.4l11.5 6.6M512.7 348.7l10.1 8.5M573.8 313.5l2.2 13M591.6 325.1v-13.2M693.1 397l-13 2.4M680.8 363.4l-11.4 6.6M676 384.3l12.4-4.6M694.6 414.9h-13.2M670.6 348.7l-10.2 8.5M643.1 325.7l-6.6 11.4M649.3 346.1l8.6-10.1M626.8 318.1l-4.4 12.4M556.3 318.1l4.6 12.4M643.1 504.2l-6.6-11.5M622.4 499.3l4.4 12.5M609.5 516.5l-2.4-13.1M591.6 517.9v-13.2M693.1 432.9l-13-2.4M649.3 483.7l8.6 10.1M688.4 450.2l-12.4-4.5M680.8 466.5l-11.4-6.7M502.3 466.5l11.5-6.7M494.7 450.2l12.5-4.5M488.6 414.9h13.2M503.2 399.4l-13-2.4M490.2 432.9l13-2.4M573.8 516.5l2.2-13.1M525.3 493.8l8.6-10.1M522.8 472.6l-10.1 8.6M556.3 511.8l4.6-12.5M546.7 492.7l-6.7 11.5M660.4 472.6l10.2 8.6"/><path class="st0" d="M508.7 414.9c0 15.1 4 29.2 11.1 41.4h143.7c7.1-12.2 11.1-26.3 11.1-41.4 0-4.8-.4-9.5-1.3-14.1H509.8c-.7 4.6-1.1 9.3-1.1 14.1zM591.6 497.9c24.9 0 47.2-11 62.5-28.3H529.2c15.2 17.3 37.5 28.3 62.4 28.3z"/><path class="st3" d="M529.2 469.5h124.9c3.6-4.1 6.8-8.5 9.4-13.2H519.7c2.7 4.8 5.9 9.1 9.5 13.2z"/><path class="st0" d="M591.6 331.9c-35.9 0-66.6 22.9-78.1 54.8h156.2c-11.5-31.8-42.2-54.8-78.1-54.8z"/><path class="st3" d="M513.5 386.9c-1.6 4.5-2.9 9.2-3.7 13.9h163.5c-.8-4.9-2-9.5-3.7-13.9H513.5z"/><circle class="st2" cx="638.1" cy="429.8" r="18"/><circle class="st2" cx="584" cy="429.8" r="18"/><circle class="st2" cx="530" cy="429.8" r="18"/><path class="st2" d="M602.3 341.4c0 6.6-5.3 11.8-11.8 11.8s-11.8-5.3-11.8-11.8c0-3.6 1.6-6.7 4-8.9-2.9.3-5.7.7-8.5 1.4-1.1 2.3-1.7 4.9-1.7 7.5 0 9.9 8 18 18 18s18-8 18-18c0-2.9-.7-5.6-1.9-8-2.7-.5-5.6-.8-8.6-1.2 2.6 2.2 4.3 5.5 4.3 9.2z"/><path class="st3" d="M578.6 341.4c0 6.6 5.3 11.8 11.8 11.8s11.8-5.3 11.8-11.8c0-3.7-1.7-7-4.3-9.1-2.1-.2-4.2-.2-6.4-.2-3.1 0-6 .2-8.9.5-2.4 2-4 5.2-4 8.8z"/><circle class="st3" cx="530" cy="429.8" r="11.8"/><circle class="st3" cx="584" cy="429.8" r="11.8"/><circle class="st3" cx="638.1" cy="429.8" r="11.8"/><path class="st2" d="M607.2 469.5c.3 1.1.4 2.1.4 3.2 0 6.6-5.3 11.8-11.8 11.8s-11.8-5.3-11.8-11.8c0-1.1.2-2.1.4-3.2h-6.2c-.2 1.1-.3 2.1-.3 3.2 0 9.9 8 18 18 18s18-8 18-18c0-1.1-.1-2.1-.3-3.2h-6.4z"/><path class="st3" d="M584 472.7c0 6.6 5.3 11.8 11.8 11.8s11.8-5.3 11.8-11.8c0-1.1-.2-2.1-.4-3.2h-22.8c-.2 1.1-.4 2.2-.4 3.2z"/><path class="st6" d="m718.4 326.3 27.5 3.7M718.4 338l24.9 3.7M718.4 316.3l27.5 2.6M729.6 306.1h13.7M473.3 240.2l-1.6 12.7M456.7 189.8l5.7 7.2M496.8 133.2l11.3 4.5M520.8 165.2l10-12.7M609.3 301.5l9.8 9.7M588.8 547.7l2.1 19.1M580.3 552.7l3.2 16.5M572.6 536.9l1 9M570.8 569.2l1.8 10.6M558.8 547.7l5.1 14.4M556.4 573.1l2.4 12.7M545.9 543.5l2.7 14.1M535.9 551.1l5.3 22M543.7 592.4l2.2 15.4M563.9 589.3l2.5 13.7M580.3 587.9l1.1 19.9M572.6 612.2l1 15.5M556.4 618.5l2.4 11.7M577.1 637.8l1 14.9M563.9 637.8l4.8 11.9M556.4 643.2l2.4 13.1M592.3 659.4l1.4 12.9M588.8 685.9v11.6M577.1 664.8l1.8 15M562 670.3l3.9 12.2M553.2 675.3l3.2 14.4M568 695.4l.7 11.9M428.9 659.4l-6.4 10.9M410.9 679.8l-6.7 12M422.5 695.4l-11.6 11.9M440.5 691.8l-12 17.6M445.2 656.3l-6.5 11.1M459.8 659.4l-5.6 15.9M488.8 630.2l-6.8 15.1M472 630.2l-3.7 10.9M458.1 630.2l-3.9 10.9M458.1 605.1v11.3M472 594.2l-1.2 13.6M462.4 574.9v13M488.8 579.8l-1.8 19M503.9 600.9v13.7M513.4 563.3l1.4 15.1M503.9 498.8l6 22.5M481 490.7l4.2 11.3M498.4 516.4l5.5 17.9M497.2 539l2.5 24.3M485.2 545.9l1.8 13.5M479.9 521.3l2.1 13M470.8 552l2.5 14.8M462.4 518.9l4 15.4M456.7 550.2l1.4 9.9M449.3 525.2l.7 18.3M438.7 530.1l-.6 17.6M428.5 504.7l.4 16.6M462.4 487.8l.3 21.9M482.4 449.5l-.4 26.4M464.5 462.5l3.8 16.9M446.5 475.9l-2.5 24M469 391.7l1.8 14.1M453.2 403.3l-1.1 14.8M446.5 373.9v15.6M456.7 373.9v17.8M468.3 365.2l5 17.4M500.7 327.9l4.3 9.2M488.8 325.5l4.2 14.3M476.7 327.9l9.2 23.6M474.6 347.7l2.1 14M462.4 330.8l1.3 12.7M448.2 335.6l-1.7 20.5M689.9 311.2l6.3 11.4M661 304.4l10.6 13.7M631 299.7l9.5 12.4M581.4 293.8l9.2 11.9M517.3 282.8l1.4 11M493 275.3v7.5M469 270.5l-.7 9.6M459.5 262.7l-2.8 11.3M515.8 255l2.9 7.7M488.8 250l4.2 12.7M496.8 181.4l7.8-7.8M461.6 209.3l8.8.3M466.1 184.9l6.1 9.9M482.4 170.7l-1.4 10.7M466.9 165.2v10.9M481 143.3l-8.8 2.5"/><path class="st4" d="M487 120.1c-1.8-2.4-12.7-3.2-16.5 0-3 2.4-3.5 15.2-3.5 21.5 6.3-3.8 14.2-8.1 21.5-11.2-.3-4.6-.8-9.2-1.5-10.3z"/><path class="st6" d="M482.8 198.7s-4.8 23.6 10.6 38.4c15.3 14.8 31.7 14.3 43.9 13.7M433.5 342.6v13.5M433.5 482.6v11.2M518.2 536.6v14.5M518.7 592.4v15.4M483.1 610.4l-3.2 11.8M473.3 659.4l-8.8 12.9M589.8 616l-1 21.8M594.3 579.8v16.3M553.2 521.3l4.4 15.3M538.6 515.6l5.5 15.9M494.7 476.9v13.8M486.1 367.3l2.5 12.4M530.8 280l6.4 11.4M680.8 327.9l7.6 13.1M656.1 321.2l9.4 11.4"/></svg>