<svg version="1.1" id="Calque_1" xmlns="http://www.w3.org/2000/svg" x="0" y="0" viewBox="0 0 900 900" style="enable-background:new 0 0 900 900" xml:space="preserve"><style>.st0{fill:#fff}.st1{fill:#ffce00}.st2,.st3,.st4,.st5,.st6{fill:#007261;stroke:#000;stroke-width:6.6284;stroke-linecap:round;stroke-linejoin:round;stroke-miterlimit:10}.st3,.st4,.st5,.st6{fill:red}.st4,.st5,.st6{fill:#ffce00}.st5,.st6{fill:#fff}.st6{fill:none}.st8{fill:#441f00}.st8,.st9{stroke:#000;stroke-width:6.6284;stroke-linecap:round;stroke-linejoin:round;stroke-miterlimit:10}.st10{fill:red}.st11,.st12{fill:#fff;stroke:#000;stroke-width:6.711;stroke-linecap:round;stroke-linejoin:round;stroke-miterlimit:10}.st12{fill:none}</style><path class="st0" d="M472.1 601.5c-18.3 29.6-77.9 150.5-92.5 180.3l11.7.7 67.6-126.3L474 602l-1.9-.5z"/><path class="st1" d="m474 602 6.8-24.3-8-28.8-15.9 4s-26.8 42.1-39.8 67.9c-12.9 25.9-60.6 159.7-60.6 159.7l23.1 1.3c14.6-29.8 74.2-150.7 92.5-180.3l1.9.5z"/><path class="st2" d="M610 509c-1.7-1.5-5-2.5-8.8-3 1.6 4.7 3.4 10.9 3.8 16.9 1 11.9 97.4 271.4 97.4 271.4s11.4-5.1 25.1-12.6c.1-.1.2-.1.3-.2-18.4-35.9-56.7-129.1-70.1-162.2C642.8 582.6 617 515 610 509z"/><path class="st3" d="M621.9 498.1c-7-4-23.9 0-23.9 0s1.5 3.2 3.1 8c3.8.5 7.1 1.5 8.8 3 7 6 32.8 73.6 47.7 110.4 13.4 33.1 51.7 126.3 70.1 162.2 8-4.4 16.8-9.6 24.5-15-45.3-60.8-123.3-264.6-130.3-268.6z"/><path class="st2" d="m519.5 632.2-57.3-.7-2.7 21.8 60 .8z"/><path class="st3" d="m459.5 653.3-3.1 24.6 63.1-.6v-23.2zM514.5 624.4c20.9 28.8 74.6 131.2 80.5 153.1 8.9 3 29.8 0 29.8 0S601 658.2 584.8 631c-8-12.9-17.6-15.6-16.6-22.5S602 547.8 605 523c-10.9-21.9-17.9-16.9-17.9-16.9l-83.5 5-4 43.7s-5.9 40.7 14.9 69.6z"/><path class="st3" d="M577.2 335.1c-5-9.9-6.7-17.2-7-22.2l-70.5-16.6-22.9 53.7 3 127.3 30.8 23.9 79.5 6s5-1 8.9-14.9c-8.9-9.9-21.9-58.7-21.9-58.7l-9.9-27.8-14.9-20.9 17.9-14.9 25.9 10.9s14.6 8.6 23.5 9.6c4 .5 8.1-8.8 11.4-19.2-8.6-3.2-44.2-17-53.8-36.2z"/><path class="st4" d="m613 331.1-32.8-15.9-10-2.3c.3 5 2.1 12.3 7 22.2 9.6 19.2 45.2 33 53.8 36.1 4-12.8 6.8-27.2 6.8-27.2L613 331.1z"/><path class="st5" d="m498.6 357.9-11.9 109.4-25.8 4-14-62.7-5.9-99.3 67.6-19.9z"/><path class="st4" d="M634.5 340.7c-5.6 16.2-15.6 41.1-22.5 49 0 7 23.9 12.9 23.9 12.9s25.9-32.8 29.8-40.8c-9-13.8-25.9-21.8-31.2-21.1z"/><path class="st6" d="M456.9 552.8s-26.8 42.1-39.8 67.9-60.6 159.7-60.6 159.7l34.8 2 67.6-126.3 21.9-78.5-8-28.8-15.9 4z"/><path d="m652.4 157.2-.3-5-1.2-3.3c-22.2 7.4-51.8 15.2-51.8 15.2s30.1-4.4 53.3-6.9z" style="fill:none"/><path class="st5" d="M647.4 97.5c3-8.9-7.6-22.9-15.6-22.9-2.5 0-9.4 5.4-17.8 12.8l19.6 24.1c7.5-6.1 13-11.4 13.8-14zM615 64.7c1-8.9-10.9-15.6-19.9-14.6-3.2.3-9.7 9.2-17 20.5l24.2 16.2c6.9-10.3 12.3-19 12.7-22.1zM674.6 138.3c4-7-3-24.9-10.9-25.9-2.7-.3-11.9 3.2-23.1 8.2l10.3 28.3c12.3-4.2 22.3-8.2 23.7-10.6zM678.6 156.2c-1.8-1.1-12.9-.3-26.2 1.1l1.8 26.4c11.5-.1 21-.6 23.4-1.6 7-3.1 6-23 1-25.9z"/><path class="st8" d="M614.2 87.4c-18.2 16.2-42.9 41.9-42.9 41.9s18.2-23.7 31.1-42.6L590.7 79l-33.4 50.8 12.2 14.4 54.8-44.4-10.1-12.4z"/><path class="st9" d="M571.2 129.3s18.2-23.7 31.1-42.6L590.6 79l-33.4 50.8 12.2 14.4 1.8-14.9z"/><path class="st8" d="M578.1 70.6c-13.3 20.7-28.7 49.8-28.7 49.8l7.9 9.3 33.4-50.8-12.6-8.3zM640.6 120.6c-22.1 9.7-51.5 24.7-51.5 24.7s27.3-19.2 44.6-33.7l-9.5-11.8-54.8 44.4 10.9 12.9 65.2-23.3-4.9-13.2z"/><path class="st9" d="M589.1 145.2s27.3-19.2 44.6-33.7l-9.5-11.8-54.8 44.4 10.9 12.9 8.8-11.8zM593.4 172.7 602 183s29.9.9 52.2.6l-.9-13.7-59.9 2.8z"/><path class="st8" d="M652.4 157.2c-23.3 2.5-53.4 6.9-53.4 6.9s29.6-7.8 51.8-15.2l-5.4-15-65.2 23.1 13.1 15.6 59.9-2.9-.8-12.5z"/><path class="st9" d="M599.1 164.1s29.6-7.8 51.8-15.2l-5.4-15-65.3 23.1 13.1 15.6 5.8-8.5z"/><path class="st5" d="M528.5 140.6s2-27.8 24.9-26.8 58.3 52.4 53.4 72.2c-5 19.9-35.5 15.2-35.5 15.2l-42.8-60.6z"/><path class="st6" d="m544.4 124.3 4.9-9.9M553.3 127.3l10-11.9M561.3 136.3l9.9-10M569.2 142.2l13-6.9M575.2 149.2l13.9-4M579.5 157.8l17.9-3M584.1 166.4l17.9-2M587.1 176.7l18.9-1M588.4 186.6l17.6.7"/><circle cx="380.3" cy="752.6" r="7"/><circle cx="394.2" cy="720.8" r="7"/><circle cx="408.2" cy="691" r="7"/><circle cx="422.1" cy="656.2" r="7"/><circle cx="438" cy="620.4" r="7"/><circle cx="455.9" cy="591.6" r="7"/><path class="st0" d="M316.8 389.3c10.1-1.5 16.9-2.5 16.9-2.5l101.4-8 2.4-18.4-120.6 18.4-.1 10.5z"/><path class="st1" d="m428 320.2-25.9 16.9-74.5 18.8-106.4 16.9s-31.8-8.9-39.8-8.9c-8 0-26.2-.3-30.2.7s-5.6 10-.7 11.9c6 2.3 21.2 9.9 21.2 9.9l25.5 23.2s25.9 6 33.8-8c7.2-.7 58.3-8.3 85.5-12.4v-10.5l120.6-18.4L440 340l-12-19.8z"/><path class="st6" d="m327.7 355.9 74.6-18.9 25.9-16.9L440 340l-5 38.8-101.4 8s-92.5 13.9-102.4 14.9c-8 13.9-33.8 8-33.8 8l-25.5-23.2s-15.2-7.6-21.2-9.9c-5-1.9-3.3-10.9.7-11.9s22.2-.7 30.2-.7 39.8 8.9 39.8 8.9l106.3-17z"/><circle cx="354.5" cy="360.9" r="7"/><circle cx="385.3" cy="354" r="7"/><path class="st5" d="M151.4 364.5c-2.7.7-4.4 5.2-3.5 8.5 6.2.3 22.3 3.4 25.7.8 2.4-1.8 3-6.5 3-9.9-8.9-.1-22-.1-25.2.6z"/><path class="st4" d="M161.1 393.3c-5.3 8-10.7 19.5-10.7 23.6 0 6 7.3 9.6 13.3 4.6 3 5 7 8.9 12.3 4 2.7 5 9.6 8 14.6 2 0 5 4.6 6.3 9.6 5.3 3.7-5.8 10.7-15.8 14.8-23-7.7-4.6-24.2-12.2-53.9-16.5z"/><path class="st5" d="M218.3 402.7c1-5-5-8.9-9.9-5-2-8-14-6-14-6s-6.9-8-13.5-1.7c-4.3-5.3-7.3-8.3-13.3-4.3-1.9 1.2-4.2 4-6.5 7.6 29.7 4.2 46.1 11.9 53.8 16.5 1.8-3 3.1-5.6 3.4-7.1zM287.9 359.9l40.8-14.8 8.9 47.6-42.7-1z"/><path class="st5" d="m263.1 361.9 32.8-9.9 5.9 44.7-30.8 1-15.9-12.9z"/><path class="st6" d="m280 366.2 13.9-3M313.1 361.9l16.6-3.6M314.8 371.5l16.5-3.6M316.1 380.8l16.6-1.7M283.3 376.1l13.9-2.9M284.6 386.8l12.6-1.7"/><path class="st4" d="m233.2 404.7 37.8-7-2.8-12.6-39.9 7.2zM263.1 361.9l-43.8 7.6 4.5 11.3 41.4-9z"/><path class="st4" d="m223.8 380.8 4.5 11.5 39.9-7.2-3-13.3z"/><path class="st6" d="M180.9 390.1c-5.3 5-13.3 18.6-17.2 31.5M196.4 390.7c-5.3 5-16.6 21.9-20.5 34.8M208.4 397.7c-5.3 5-13.9 16.9-17.9 29.8M449.8 293.8c-1.1-.3-1.9-.5-1.9-.5s.8.2 1.9.5z"/><path class="st3" d="M524.5 181 438 148.2l-17.9 3s-16.9 20.9-17.9 26.8c-1 6-1 8.9 0 15.9-14.9 4-39.1 27.2-41.1 35.1-2 8 .3 16.6 5.3 18.6s15.9 0 15.9 0 42.8-2 43.7 3c0 0 2-15.9 17.9-13.9s11.9 15.9 9.9 22.9c7-3 14.3-6.3 19.2-6.3 5 0 6.3 8.9 5.3 13.9s-30.5 12.3-30.5 12.3 30.8 1 32.8 5c2 4-1 12.9-4 13.9-2.5.9-20.9-3.2-26.9-4.5 4.1 1.2 13.1 5.5 10 19.4-3 8.9-14.6 9.6-21.5 7.6-7-2-4.3-8.6-2.3-13.6-9.7 8.3-29.4 9.9-40.6 10.1.3 8-1.1 18.9 6.8 19.8 8.9 1 84.5-26.8 92.5-34.8 8-8 42.8-63.6 42.8-63.6L524.5 181z"/><path class="st5" d="M438.3 320.9c7 2 18.6 1.3 21.5-7.6 3.1-14-5.9-18.2-10-19.4-1.2-.3-1.9-.5-1.9-.5s.8.1 1.9.5c6 1.3 24.4 5.4 26.9 4.5 3-1 6-9.9 4-13.9s-32.8-5-32.8-5 29.5-7.3 30.5-12.3c1-5-.3-13.9-5.3-13.9s-12.3 3.3-19.2 6.3c2-7 6-20.9-9.9-22.9s-17.9 13.9-17.9 13.9c-1-5-43.7-3-43.7-3s-12.9 13.9-11.9 18.9c1 5 27.8 0 35.8 2 8 2 16.6 17.2 6.6 22.2-9.9 5-31.8 2.7-31.8 7.6s13.3 8 14.3 15.9c.1.9.2 2 .2 3.1 11.1-.2 30.9-1.8 40.6-10.1-2.2 5.1-4.8 11.7 2.1 13.7z"/><path class="st6" d="M448.9 305.3c-2-4-10.9-4-12.9 2M426.1 250.6c2 10.9 15.9 8 15.9 1M441 268.5s9.9-2 12.9-8.9"/><path class="st5" d="M446.9 209.2c-.8-9.1-8.5-16.3-17.8-16.3-9.9 0-17.9 8-17.9 17.9 0 9.9 8 17.9 17.9 17.9 5.5 0 10.3-2.5 13.7-6.4 5.9-.1 12.9.2 13.5-2.9.6-3.4-5-6.6-9.4-10.2z"/><path class="st5" d="M398.2 148.2s13.9-29.8 48.7-33.8c34.8-4 116.3 27.8 125.3 69.6s3 81.5 7 101.4c4 19.9 33.8 45.7 33.8 45.7s-74.2 15.6-85.2-24.2c-10.9-39.8-18.2-68.3-18.2-68.3s8-23.9 1-39.8c-7-15.8-112.4-50.6-112.4-50.6z"/><path class="st6" d="m407.2 151.2 19.2-21.9M418.1 155.2l15.9-21.3M429 159.1l15.9-22.8M439 162.1l14.9-21.9M447.9 165.1l14.9-20.9M457.9 169.1l15.9-22.6M467.8 173.1l15.9-22.9M480.1 176.4l14.9-19.9M489 182.7l15.9-21.9M499.6 187l15.9-20.6M504.6 192.3l22.9-17.3M510.6 198.9l22.8-11.9M512.9 205.2l24.8-4M513.5 213.8l24.9-.6M512.6 225.1l24.8-1M522.2 287.1l19.9-16.9M526.8 298.7l18.6-17.6M532.4 313.9l15.3-20.5M543 324.2l9-21.6M557.3 331.1l2.3-23.2M569.6 332.6l-1-20.7M582.5 333.7l-4.7-19.8M593.8 333.1l-7-19.2"/><circle class="st6" cx="429.4" cy="210.8" r="6"/><path class="st5" d="M494.7 303.6c-15.9 37.5 0 65 6 65s31.8-14.6 23.9-60.3c-8.1-14.9-23-7-29.9-4.7z"/><path class="st6" d="M508.6 311.3c1 16.9-4 37.8-4 37.8"/><ellipse class="st2" cx="510.8" cy="297.1" rx="21.3" ry="19.4"/><path class="st4" d="M502.6 266.5c-5-7-7.3-23.2 5.6-29.2 12.9-6 29.8-6.6 30.8 9.3s-7.6 21.9-12.6 27.8c-5 6-4.3 14.9-7.3 19.9-3 5-9.6 5-13.6 1s-2-12.9-2-12.9-8 1-10.9 0c-3-1-4-15.9 0-15.9h10z"/><path class="st6" d="M502.6 266.5c6 3 13.9 4 17.9-10.9"/><path class="st5" d="M370.4 266.5s-1 9.9 3 11.9c1.8.9 6.8.8 12.4.7l-1.1-10.4c-7.4.3-13.8.1-14.3-2.2z"/><path class="st5" d="m384.6 268.6 1.1 10.4c4-.1 8.4-.2 11.9.1l1.2-11.2c-4.2.1-9.4.5-14.2.7zM406.2 268.5c-1.7-.4-4.3-.5-7.3-.5l-1.2 11.2c2.3.2 4.2.5 5.5 1.2 1.5.7 2.4 1.6 3 2.5l5.6-11.9c-1.5-1-3.4-1.8-5.6-2.5zM411.9 271l-5.6 11.9c2.1 2.9 1.8 6.5 6.6 7.8 5.5 1.5 10.8-12.3-1-19.7z"/><path class="st3" d="M361.1 229.1c-2 8 .3 16.6 5.3 18.6s10.9 2.7 15.9.7 9.9 6.3 14.9-.7 3-21.9-9.9-17.9M491.7 489.2l-25.9 8.9-12.9 44.8 17.9 20.5-8.6 68.1 28.9.4 7.3-134.1z"/><path class="st2" d="m519.5 525-21.1-27.2-7.3 134.1 28.4.3z"/><path class="st3" d="M519.5 777.5V677.3l-30.9.3-5.4 99.4z"/><path class="st2" d="m444 776.5 39.2.5 5.4-99.4-32.2.3z"/><path class="st5" d="m465.8 522 139.2 1s9.9-28.8-6-30.8-78.5 0-78.5 0l-52.7-2-2 31.8z"/><path class="st3" d="M425.4 562.1s19.6-87.8 27.5-95.2c8-7.5 70.6-5.4 75.6 2s8.9 45.2 7 54.2-29.8 9.9-34.8 5c-5-5-3-20.9-3-20.9s-13.9 0-21.9-1c-3 7-5 57.3-5 57.3l-45.4-1.4z"/><path class="st6" d="M449.9 561.7s9.9-74.6 15.9-78.5 42.4-3 47.4 1 7.3 29.8 7.3 29.8"/><path class="st5" d="M431 347c-19.9 1-27.5 8.3-30.5 15.2-3 7 4.6 15.6 7.6 11.6s18.9-12.9 37.8-11.4c2-18.4 9-16.5-14.9-15.4zM412.1 418.6c5-1-8.9-15.9 30.8-16.9 0-11.9-8.9-15.9-8.9-15.9s-18.6-.3-26.5 8.6c-8 8.9-8.3 26.2 4.6 24.2zM438 421.6s-22.9 7-27.8 17.9c-5 10.9 4 23.9 10.9 22.9 7-1-9.9-21.9 15.9-17.9 12.9 8 14.9-1 14.9-1l-2-17.9-11.9-4zM545.9 451.4c17.4 3 9.1 18.6 14.1 19.9 5 1.3 18.6-6 13.6-20.9-5-14.9-25.2-21.9-25.2-21.9l-15.9 6-4 16.9s0-3 17.4 0zM550.7 412.9c30.5 2.7 18.6 21.5 26.5 20.5 8-1 10.9-13.6 6-25.5-5-11.9-19.9-15.2-19.9-15.2l-13.9 3-7 10.9s.3 5.3 8.3 6.3zM563.3 379.8s16.9-3 22.9 1-2 19.9 6 18.9 13.9-16.9 5-29.8-17.9-14.9-17.9-14.9l-16.9 1-6 21.9 6.9 1.9z"/><circle class="st5" cx="444.1" cy="344.2" r="17.4"/><circle class="st5" cx="445.9" cy="379.8" r="17.4"/><circle class="st5" cx="447.9" cy="414.6" r="17.4"/><circle class="st5" cx="452.9" cy="449.4" r="17.4"/><circle class="st5" cx="528.5" cy="451.4" r="17.4"/><circle class="st5" cx="537.4" cy="417.6" r="17.4"/><circle class="st5" cx="552.3" cy="384.8" r="17.4"/><circle class="st5" cx="566.2" cy="350" r="17.4"/><path class="st3" d="M475.8 506.1c1 4 20.9 5 21.9 1s7-41.8 4-45.7-16.9-4-19.9 0c-3.1 3.9-7 40.7-6 44.7z"/><path class="st2" d="M658.7 626.4s10.3 44.4 19.2 47.4 32.8-10.6 31.8-22.5c-1-11.9-11.3-25.9-11.3-25.9l-13.9-13.9-22.9 5-2.9 9.9z"/><path class="st3" d="M671.6 622.4s1 40.8 15.9 31.8c15-8.9-15.9-31.8-15.9-31.8z"/><path class="st2" d="M632.9 619.7c0-5.3 51.7-20.2 51.7-20.2l3 21.9s-42.8 17.9-46.7 17.9-8-14.3-8-19.6z"/><path class="st3" d="M707.8 588.6c-11.3-23.5-27.2-43.7-27.2-43.7v-38.8s12.9-115.3 9.9-124.3c-3-8.9-16.6-15.9-16.6-15.9l-23.2 27.8s-1 96.1 1 110.7c2 14.6 3 34.5 0 41.4-3 7 6.4 51.7 10.6 55.7 6.3 6 14.3-4.6 14.3-4.6s2.5 8.4 3.4 15.6c14.8.9 26.6 6.6 33.3 10.6.4-9.3-.7-24.4-5.5-34.5z"/><path class="st5" d="M680.1 612.6c.3 2.7.5 5.3.3 7.2-1 7 9.3 10.6 10.3 6.6-1 8 10.9 11.9 9.9 6 4 3 9.3 5 11.3 1 .7-1.4 1.3-5.2 1.5-10.1-6.8-4.2-18.6-9.9-33.3-10.7z"/><path class="st4" d="M686.5 542.9c0-4-1-36.8-1-36.8l-10.9-.3V546c6.6-.6 11.9-1.6 11.9-3.1zM647.8 505.1s0 32.8 1 37.8c.3 1.7 5 2.7 10.9 3.1v-40.6l-11.9-.3zM659.7 505.4V546c4.7.3 10.1.3 14.9-.1v-40.2l-14.9-.3z"/><path class="st6" d="M690.5 626.4c5-33.8-11.9-50.7-11.9-50.7M700.5 632.3c5-33.8-8.9-56.7-8.9-56.7M651.7 545.8c-3 7 6.4 51.7 10.6 55.7 6.3 6 14.3 1.7 14.3-4.6s-12.9-26.2-12.9-35.1"/><path class="st5" d="M658.7 592.8c1.3 4.5 2.7 7.8 3.6 8.7 6.3 6 14.3 1.7 14.3-4.6 0-2-1.3-5.4-3.1-9.4l-14.8 5.3z"/><path class="st10" d="M620.9 405.6c3 9.9 15.9 12.9 15.9 12.9s2.3-5 7.6-13.1L631.5 393c-3.6 4.5-7.2 8.7-10.6 12.6zM674.6 342l-9.5 11.3 12.2 13.3c4-3.8 8.4-7.7 13.1-11.6-6.8-9-15.8-13-15.8-13z"/><path class="st0" d="m631.5 393.1 12.9 12.4c6.4-9.7 17-23.9 32.9-39l-12.2-13.3c-8.4 10.2-21.4 25.6-33.6 39.9z"/><path class="st6" d="M620.9 405.6c21.9-25.9 53.7-63.6 53.7-63.6s8.9 4 15.9 12.9c-38.8 31.8-53.7 63.6-53.7 63.6s-12.9-2.9-15.9-12.9z"/><circle class="st3" cx="653.3" cy="380.7" r="13.4"/><path class="st3" d="m278 827.2-5-22.9 56.7-9.9 1 13.9z"/><path class="st3" d="M322.7 806.3s-7-12.6-2-17.6 29.8-3.3 29.8-3.3l-2 14.9-25.8 6z"/><path class="st5" d="M330.7 841.1s-7-6-14.9 0c-8.9-7-13.9 0-13.9 0s-4-8-14.9-3c-6.2-7.6-14.9-6-19.6-4.4-.9 3.1-.5 6.7.7 10.4 2 6 10.9 4 15.9 1 2 5 11.6 4.2 15.6.9 3.3 4 14.3 4.6 16.2 1.3 2 2.7 10.9 4.2 12.9 0 3 2.7 13.3 1.6 15.2-.7-2.6-12.2-13.2-5.5-13.2-5.5z"/><path class="st4" d="m369.4 791.4-21.9 3s-73.2 30.2-77.2 34.1c-1.5 1.5-2.5 3.2-3 5.2 4.6-1.7 13.3-3.2 19.6 4.4 10.9-5 14.9 3 14.9 3s5-7 13.9 0c8-6 14.9 0 14.9 0s10.6-6.7 13.3 5.6c2-2.3 25.5-6.6 25.5-6.6v-48.7z"/><path class="st6" d="M315.8 847.4c-3.4-9.3 4.6-17.2 9.9-19.2"/><path class="st5" d="M387.3 794.4h-27.9l-2.3 14.7 31.8-1.1z"/><path class="st5" d="m357.1 809.1-4.6 27.1h39.7l-3.3-28.2z"/><path class="st3" d="M344.3 779.5c-5 3-2.7 14.9.3 17.9 3 3 43.1 3 47.1 2s5.6-14.3-.3-17.6c-6.1-3.3-42.2-5.3-47.1-2.3z"/><path class="st5" d="m394.2 831.2 3 16.2-53.3-.6 5.7-14.6z"/><path class="st6" d="M283.9 845.1c-1-7 2-13.9 11.9-15.9M301.8 847.4c-1-7 0-17.2 9.9-19.2M328.7 847.4c-1-7 0-16.2 9.9-18.2"/><path class="st2" d="m523 827.1-6.3-22.6 57.4-13.2 1.8 13.9z"/><path class="st2" d="M567.6 803.7s-7.8-12.2-3-17.4c4.8-5.2 30.4-5 30.4-5l-1.2 15-26.2 7.4z"/><path class="st11" d="M577.7 837.9s-7.5-5.6-15.2.9c-9.5-6.4-14.3.8-14.3.8s-4.5-7.7-15.4-2.1c-6.8-7.3-15.6-5.2-20.3-3.2-.7 3.2-.1 6.7 1.3 10.3 2.4 5.8 11.4 3.3 16.3.1 2.3 4.8 12.1 3.6 16 .1 3.6 3.8 14.8 3.8 16.7.4 2.2 2.6 11.4 3.6 13.3-.7 3.2 2.5 13.7.9 15.6-1.5-3.5-12.3-14-5.1-14-5.1z"/><path class="st3" d="m614.6 786.1-22.2 4.2s-73.2 34.3-77.1 38.5c-1.5 1.6-2.4 3.4-2.8 5.4 4.7-1.9 13.5-4 20.3 3.2 10.9-5.6 15.4 2.1 15.4 2.1s4.7-7.2 14.3-.8c7.8-6.4 15.2-.9 15.2-.9s10.5-7.3 13.9 4.8c1.9-2.4 25.7-8 25.7-8l-2.7-48.5z"/><path class="st12" d="M562.8 845c-4-9.1 3.7-17.5 9-19.8"/><path class="st11" d="m633.1 788-28.5 1.6-1.6 14.9 32.5-3z"/><path class="st11" d="m603 804.5-3.2 27.2 40.7-2.2-5-28z"/><path class="st2" d="M588.2 775.6c-4.9 3.2-1.9 15 1.3 17.8 3.2 2.8 44.3.5 48.3-.7s5-14.6-1.3-17.5c-6.3-2.9-43.4-2.8-48.3.4z"/><path class="st11" d="m642.3 824.4 3.9 15.9-54.6 2.5 4.9-14.9z"/><path class="st12" d="M530.1 844.6c-1.4-6.9 1.3-14 11.3-16.6M548.6 845.8c-1.4-6.9-1-17.2 9.1-19.8M576.1 844.3c-1.4-6.9-.9-16.2 9.1-18.8"/></svg>