<svg version="1.1" id="Calque_1" xmlns="http://www.w3.org/2000/svg" x="0" y="0" viewBox="0 0 900 900" style="enable-background:new 0 0 900 900" xml:space="preserve"><style>.st0,.st1,.st2{fill:#005b02;stroke:#000;stroke-width:6.9003;stroke-linecap:round;stroke-linejoin:round;stroke-miterlimit:10}.st1,.st2{fill:#fff}.st2{fill:red}.st3{fill:none}.st3,.st4,.st5,.st6,.st7{stroke:#000;stroke-width:6.9003;stroke-linecap:round;stroke-linejoin:round;stroke-miterlimit:10}.st5,.st6,.st7{fill:#ffce00}.st6,.st7{fill:#515151}.st7{fill:#ff7300}.st8{fill:#fff}.st10{fill:none}.st11{fill:red}.st15{fill:none;stroke:#000;stroke-width:5.1752;stroke-linecap:round;stroke-linejoin:round;stroke-miterlimit:10}</style><path class="st0" d="m388.7 329.9-31.1-4.3s-.8 3.9-2 9.4l32.8 3.8c.2-5.3.3-8.9.3-8.9z"/><path class="st1" d="M353.6 345c-2.3 11.4-5 24-5.4 26.3-.9 4.3 6.9 7.8 10.4 3.5.9 3.5 12.1 6 13.8.9 3.5 3.5 13.8 5.2 14.7.9.4-2.3.9-15.7 1.3-27.5l-34.8-4.1z"/><path class="st2" d="m388.5 338.8-32.8-3.8c-.6 3-1.4 6.5-2.1 10l34.6 4c.1-3.7.2-7.2.3-10.2z"/><path class="st3" d="m358.5 374.7 4.3-18.9M372.3 375.6l3.5-17.2"/><circle class="st1" cx="650.5" cy="130.2" r="16"/><circle class="st1" cx="494.8" cy="69.4" r="16"/><circle class="st1" cx="412" cy="66" r="16"/><path class="st1" d="M729.4 647.3s-9.5 44.9-7.8 48.3c1.7 3.5 16.4 3.5 17.3-3.5s3.5-39.7 3.5-39.7 1.7 37.1 4.3 41.4c2.6 4.3 19.8.9 19-6s-12.1-41.4-12.1-41.4l-24.2.9zM776 643s0 47.4 1.7 52.6c1.7 5.2 17.3 3.5 15.5-8.6-1.7-12.1-2.6-38-2.6-38s7.8 32.8 12.1 35.4c4.3 2.6 12.1.9 12.1-7.8 0-8.6-16.4-42.3-16.4-42.3L776 643z"/><circle class="st1" cx="740.6" cy="642.1" r="17.3"/><circle class="st1" cx="784.6" cy="635.2" r="17.3"/><path class="st1" d="M716.9 563.2s3 43.6 9.1 56.5c6 12.9 54.3 15.5 59.5-6 5.2-21.6 0-58.7 0-58.7l-7.8-26.7-45.7 6.9-15.1 28z"/><path class="st3" d="M732 535.2s.9 64.7 6.9 72.5c6 7.8 29.3 6.9 33.6-5.2 4.3-12.1-4.3-71.6-4.3-71.6"/><path class="st4" d="M741.5 531.7s3.5 56.1 5.2 63c1.7 6.9 14.7 6.9 13.8-.9-.9-7.8-3.5-67.3-3.5-67.3"/><path class="st3" d="m732.8 561.1 12.1-1.8M734.6 573.1l7.7-1.7M737.2 584.3l9.4-2.5M739.7 599.9l9.5-7.8M748.4 610.2l3.4-7.7M761.3 599l8.6 4.3M759.6 587.8l13.8.9M761.3 577.4h8.6M761.3 566.2l10.4-.8M762.2 555h6"/><path class="st1" d="M707.8 561.9c0 12.1-20.7 32.8-21.6 38.8-.9 6 14.7 13.8 22.4 7.8 7.8-6 14.7-38 14.7-38s-15.5-20.7-15.5-8.6zM784.6 563.6s4.3 39.7 13.8 44c9.5 4.3 20.7.9 19.8-6.9-.9-7.8-12.9-31.1-14.7-42.3-9.4-11.1-18.9 5.2-18.9 5.2z"/><path class="st3" d="M804.4 594.7c-6.9-10.4-11.2-38-11.2-38M700.1 595.6c13.8-19 13.8-30.2 13.8-30.2"/><circle class="st1" cx="716.9" cy="563.2" r="13.4"/><circle class="st1" cx="793.2" cy="556.7" r="13.4"/><path class="st5" d="m719.6 505.2-4.9 17-.1 3.9 75.6-9.4-5.9-17.9z"/><path class="st1" d="m713.9 549.8 84.5-7.7-8.2-25.4-75.6 9.4z"/><path class="st4" d="m778.6 480.8-47.5-16.4-11.5 40.8 64.7-6.4z"/><path class="st3" d="m724.2 544.7-.8-9.5M738 546.4l-1.7-12.9M751 543.8l-.9-12.1M765.6 542.9l-1.7-12.9M780.3 541.2l-1.7-12.9"/><circle class="st5" cx="355.9" cy="404.1" r="11.2"/><circle class="st5" cx="288.6" cy="480" r="11.2"/><circle class="st5" cx="218.8" cy="563.6" r="11.2"/><circle class="st5" cx="246.4" cy="526.5" r="11.2"/><circle class="st5" cx="212.7" cy="599.9" r="11.2"/><path class="st6" d="M414.6 388.5c-1.8 1.1-29.6 35.7-63.5 74.4C305 515.5 249.8 569.6 243.8 586c-3.9 10.4-5.6 32.6-6.4 47.7l16.7-2s4.3-34.5 10.4-38c6-3.5 17.3-4.3 17.3 2.6s-8.6 4.3-12.9 10.4c-4.3 6 3.5 14.7 17.3 10.4s17.3-28.5 12.9-38.8c-4.3-10.4-16.4-12.1-16.4-12.1l44.9-46.6s5.2-.9 3.5 5.2c-1.7 6-19.8 25-22.4 32.8-2.6 7.8 1.7 19 6 22.4 4.3 3.5 23.3 0 26.7-9.5 3.5-9.5-6.9-19-6.9-19s22.4-26.7 21.6-34.5c-.9-7.8-10.4-13.8-10.4-13.8s59.5-81.1 66.4-86.3c2.6 6.9 18.1 6.9 21.6 1.7s7.8-14.7 5.2-21.6c-2.8-6.7-24.3-8.5-24.3-8.5z"/><path class="st3" d="M324 566.2c-9.5-9.5 5.2-17.3 10.4-14.7M412 417c-2.6-6.9 3.5-17.3 12.9-11.2M314.5 504.1c6.9-7.8 21.6-8.6 31.1-.9M243.8 586.1c8.6-14.7 26.7-24.2 38.8-19.8"/><path class="st0" d="m221.6 572.3 25.4 7.8c2-3.1 4.8-6.9 8.3-11.1l-19.5-19.5c-4.3 5.8-10.6 14.7-14.2 22.8zM249.6 533.8l20.1 18.4c4.5-5 9.4-10.4 14.6-16l-17.7-20c-6.7 6.9-12.5 12.9-17 17.6zM217 636.1l20.4-2.3c.5-10 1.5-23.1 3.1-33.9h-22.6c-.5 16.3-.9 36.2-.9 36.2zM218.8 581.8c-.3 3.7-.6 10.5-.8 18.1h22.6c.9-5.4 1.9-10.3 3.2-13.8.6-1.6 1.6-3.6 3.2-6l-25.4-7.8c-1.5 3.4-2.7 6.7-2.8 9.5z"/><path class="st0" d="M238.6 545.5c-.7 1-1.7 2.4-2.9 4l19.5 19.5c4.1-5 8.9-10.6 14.4-16.8l-20.1-18.4c-6.3 6.7-10.3 10.9-10.9 11.7zM371.1 402.3l18.5 15.6c6.6-7.9 12.2-14.7 16.5-19.7l-18.2-15.1c-5.1 5.8-10.8 12.3-16.8 19.2zM413.7 353.2s-10.3 12-25.8 29.9l18.2 15.1c4.9-5.8 7.8-9.3 8.5-9.7l28.5-28.5-29.4-6.8zM266.5 516.1l17.7 20c5.3-5.7 10.8-11.7 16.6-17.9L282 499.9c-5.5 5.8-10.7 11.2-15.5 16.2zM325.1 453.6c-8.6 9.4-17.3 18.7-25.6 27.6l18.6 18.1c11-11.9 22.1-24.2 32.9-36.3 14.5-16.6 27.9-32.3 38.6-45.1L371 402.3c-13.8 15.7-29.7 33.7-45.9 51.3z"/><path class="st0" d="m281.9 499.9 18.8 18.3c5.7-6.1 11.6-12.4 17.4-18.9l-18.6-18.1c-6 6.5-12 12.8-17.6 18.7z"/><circle cx="405.5" cy="380.4" r="5.6"/><circle cx="387.8" cy="399.8" r="5.6"/><circle cx="371.4" cy="418.7" r="5.6"/><circle cx="317.1" cy="479.1" r="5.6"/><circle cx="298.1" cy="499.8" r="5.6"/><circle cx="283.5" cy="516.2" r="5.6"/><circle cx="266.2" cy="533.5" r="5.6"/><circle cx="252.4" cy="551.6" r="5.6"/><circle cx="239.5" cy="567.1" r="5.6"/><circle cx="231.7" cy="586.1" r="5.6"/><circle cx="228.3" cy="614.5" r="5.6"/><path class="st1" d="M129.1 706s0 38.8-18.1 68.1l173.4-.9s-10.4-31.9-12.1-66.4c-49.2-17.2-143.2-.8-143.2-.8z"/><path class="st1" d="M140.1 704.8s5.1 32.6-10.2 57.2l137.1 1s-5.3-28.5-6.7-57.4c-41.3-14.6-120.2-.8-120.2-.8zM111.8 649s-1.7-18.1 1.7-20.7c3.5-2.6 15.5-2.6 17.3 1.7 3.5-6 17.3-6.9 18.1 0 5.2-4.3 21.6-10.4 29.3-1.7 10.4-7.8 19.8-5.2 25.9 0 6.9-5.2 18.1-6 22.4-.9 6-3.5 19-2.6 23.3.9 5.2-3.5 16.4-6 23.3 1.7 4.3-1.7 10.4-4.3 16.4-3.5 6 .9 9.5 3.5 8.6 8.6-.9 5.2-4.3 13.8-4.3 13.8l-55.2 15.5L111.8 649z"/><path class="st3" d="M130.8 630.1c-4.3 3.5-5.2 8.6-5.2 8.6M148.9 630.1c-4.3 3.5-4.3 6.9-4.3 6.9M178.2 628.3c-4.3 3.5-5.2 7.8-5.2 7.8M204.1 628.3c-4.3 3.5-6 8.6-6 8.6M226.5 627.5c-4.3 3.5-5.2 9.5-5.2 9.5M249.8 628.3c-4.3 3.5-5.2 8.6-5.2 8.6M273.1 630.1c-4.3 3.5-5.2 6.9-5.2 6.9"/><path class="st1" d="M111.8 649s-1.7 58.7.9 61.2 180.3 3.5 181.1-1.7c.9-5.2 0-59.5 0-59.5h-182z"/><path class="st3" d="M126.5 663.7h151.8v34.5H126.5z"/><path class="st5" d="M318 414.4c-18.2-9.4-32.4-17.6-32.8-19.8-.9-6-.9-20.7 0-28.5.9-7.8-10.4-25.9-10.4-25.9l-18.1-20.7s-5.2 6.9-4.3 14.7c.9 7.8 6.9 20.7 6.9 20.7s-11.2 38-4.3 72.5c17 8.4 32.9 16.5 47.4 24.2 12.5-12.3 15.4-26.7 15.6-37.2z"/><path class="st7" d="M394.7 449.8c-4.3 0-46.1-19.4-76.8-35.4-.1 10.5-3.1 24.9-15.4 37 63.7 33.6 102.7 58.7 107 58.7 5.2 0 43.1-24.2 43.1-24.2v-65.6c-.1.2-51 29.5-57.9 29.5z"/><path class="st8" d="M82.5 568.8c-4.3 6 10.4 17.3 19 11.2-2.6 6.9 10.4 17.3 16.4 13.8 0 6 13.8 15.5 21.6 11.2.9 6 11.2 12.9 16.4 10.4 4.4-2.2 8.8-16.9 10-21.2l-66.5-44.3c-9.4 10.3-15.9 17.5-16.9 18.9z"/><path d="M219.6 495.5s10.2-131.9 14.9-195.3l-44.1 4.3c1.9 20.5 4.1 46.1 4.1 59.9 0 24.2 2.6 61.2.9 72.5-1.3 8.6-64.9 78.5-96.2 113l66.5 44.3.3-1.2 53.6-97.5z" style="fill:#ff7300"/><path class="st3" d="M190.5 304.5c1.9 20.5 4.1 46.1 4.1 59.9 0 24.2 2.6 61.2.9 72.5-1.7 11.2-108.7 125.9-113 132s10.4 17.3 19 11.2c-2.6 6.9 10.4 17.3 16.4 13.8 0 6 13.8 15.5 21.6 11.2.9 6 11.2 12.9 16.4 10.4 5.2-2.6 10.4-22.4 10.4-22.4l53.5-97.5s10.2-131.9 14.9-195.3l-44.2 4.2zM121.3 555l-19.6 24.8M136 567.1l-18.1 26.7M154.1 578.3 139.4 605"/><path class="st4" d="M231.5 289.5c-6 23.1-11.5 50.1-12.8 76.6-3.5 68.1-1.7 130.2 1.7 135.4s9.5 7.8 12.9 1.7c3.5-6 21.6-60.4 26.7-130.2 2.1-27.9 1.2-56.9-.5-81.7l-28-1.8z"/><path class="st2" d="M252.4 226.4s-11.3 26.7-20.9 63.1l28.1 1.8c-2.5-37.2-7.2-64.9-7.2-64.9zM300.7 244.5c0-7.8 0-11.2-.9-19-.9-7.8-14.7-7.8-17.3-1.7-1.5 3.5-9.2 38.2-15.5 67.2l22.3 7.3c3.4-12.7 6.1-22.8 6.1-22.8 3.5 14.7 18.1 10.4 25-3.5s-4.2-30.9-19.7-27.5z"/><path class="st1" d="M224.8 508.4c-.9 6 8.6 4.3 10.4.9 0 0 48.6-190.4 54.3-211l-22.3-7.3c-4.9 21.5-41.5 211.4-42.4 217.4z"/><path class="st5" d="M253.6 386c1.8-17.9 5.7-31.1 5.7-31.1s-6-12.9-6.9-20.7c-.9-7.8 4.3-14.7 4.3-14.7l18.1 20.7s11.2 18.1 10.4 25.9c-.9 7.8-.9 22.4 0 28.5"/><path class="st7" d="M195.8 406c0-.8-.1-1.6-.1-2.4 0 .6.1 1.5.1 2.4h0z"/><path class="st5" d="M199.8 357.5c-4.3.9-19.8 7.8-21.6 28.5-1 12.9 9.7 24.7 18.2 31.7-.1-1.9-.3-7.3-.5-11.8-1.6-3.8-2.1-6.7-.3-7 0 0 25.1 2.8 55.2 4v-48.4c-18.1.8-47.8 2.4-51 3z"/><path class="st1" d="M262.8 364.4c4.3-.9 7.8-10.4.9-10.4-1.8 0-6.6.2-12.9.4v48.4c3.4.2 6.8.3 10.4.3 4.3-.9 6.9-11.2.9-12.9 5.2 0 6-10.4 0-11.2 5-.8 5.8-11.2.7-14.6z"/><path class="st7" d="M195.5 398.9c.1 1.6.2 3.1.3 4.7-.2-2.7-.3-4.7-.3-4.7zM195.8 405.9c0-.9-.1-1.6-.1-2.4-.1-1.5-.2-3-.3-4.7-1.6.4-1 3.3.4 7.1z"/><path class="st3" d="M222.2 366.1c5.2-.9 30.2-2.6 40.5-1.7M221.4 379.9c5.2-.9 30.2-1.7 40.5-.9M222.2 392c5.2-.9 29.3-2.6 39.7-1.7"/><path class="st1" d="M252.4 315.2c-.9 5.2 15.5 28.5 15.5 28.5l7.8-3.5-14.7-28.4s-7.7-1.7-8.6 3.4z"/><path class="st7" d="m637.1 641.3-16.4 38.8 23.3 29.3 46.6 86.3-48.3-2.6-51.8-72.5-37.9-31.9 4.3-61.2 8.6-12.1zM426.6 669.7l-75.9 81.1s28.5 12.1 38 14.7c8.6-12.9 73.3-59.5 80.2-75-6.9-22.5-42.3-20.8-42.3-20.8z"/><circle class="st5" cx="405.9" cy="678.8" r="11.6"/><circle class="st5" cx="469.8" cy="706.8" r="11.6"/><circle class="st5" cx="583.6" cy="736.1" r="11.6"/><circle class="st5" cx="647.5" cy="723.2" r="11.6"/><path class="st5" d="m552.6 688.7 87.1-15.5 13.8 37.9-89.7 15.6zM398.2 663.7l35.3-43.1 71.6 44.8-25.8 33.7z"/><path class="st7" d="M243.8 799.1s6.6-13 15.5-19c10.4-6.9 40.5-13.8 40.5-13.8l19.8-12.1 39.7 2.6-3.5 50.9-56.7-5.7-10.6-.3-44.7-2.6z"/><path class="st1" d="m391.9 786.7-1.5-5.7-15.5-19-31.1.9-.8 43.1 11.9-.3 2.7-22.1z"/><path class="st1" d="m391.9 786.7-34.3-3.1-2.7 22.1 41.6-1.4zM328.6 802.5c-7.2-.1-13.8-.2-19.6-.3-3.7-.1-7-.1-9.7-.2l5 13.8 9.5.3 22.7.8-7.9-14.4z"/><path class="st1" d="m365.7 803 9.1 15.1 12 .4-9.1-15.3c-3.7 0-7.7-.1-12-.2zM328.6 802.5l7.9 14.4 12.7.4-7.1-14.7c-4.6 0-9.1 0-13.5-.1zM396.5 804.3c-1.1-.4-8.5-.8-18.7-1l9.1 15.3 13.1.4c-.1-.1.8-13-3.5-14.7z"/><path class="st1" d="m342 802.6 7.1 14.7 25.6.9-9.1-15.1c-7.4-.2-15.5-.4-23.6-.5z"/><path class="st2" d="m350.7 750.8-50-11.2-.8 26.7L349 762z"/><path class="st2" d="M343.8 762.9c0-3.5 1.7-10.4 6.9-12.1 5.2-1.7 41.4 7.8 41.4 12.1s5.2 13.8-1.7 13.8-46.6-10.4-46.6-13.8z"/><path class="st7" d="m478.4 580.9-30.2 73.3 44.9 25.9 41.4-44.9-4.4-52.6z"/><path class="st1" d="m550.9 591.2-5.1 1.1 5.1 36.9-20.8 186.3-47.4-4.3L527.6 596l-14.7 3-51.8 221.7 82.8 13.8 18.2-182.9z"/><path class="st1" d="m544.8 584.3-15.5 3.5-1.7 8.2 18.2-3.7zM530.1 815.5l20.8-186.3-5.1-36.9-18.2 3.7-44.9 215.2z"/><path class="st5" d="m464.6 417.9-12.1 2.6s-18.1 119.9-10.4 140.6c7.8 20.7 37.1 39.7 70.7 43.1s103.5-8.6 106.1-15.5c2.6-6.9.9-19.8.9-19.8l-3.5-31.9-2.6-69.9-13.7-51-95.7-12.9-39.7 14.7z"/><path class="st2" d="M481.8 410.1s-10.4 74.2-4.3 91.4c6 17.3 16.4 19.8 38 24.2 21.6 4.3 39.7-6.9 43.1-18.1 3.5-11.2 17.3-85.4 17.3-85.4l-28.5-3.5s-12.9 71.6-15.5 77.6c-2.6 6-27.6 6-31.1-4.3s3.5-75 3.5-75l-22.5-6.9z"/><path class="st1" d="M645.7 553.3s7.8-10.4 14.7-5.2c6.9 5.2 6.9 27.6 6.9 27.6l-27.6 11.2-6-14.7 12-18.9z"/><path class="st3" d="M655.2 556.7c4.3 10.4 0 27.6 0 27.6"/><path class="st1" d="m660 606.4-10 2.1 61.2 173 24.2-10.9z"/><path class="st1" d="m753.5 779.3-82.8-175.1-10.7 2.2 75.4 164.2-24.2 10.9 5.3 15z"/><path class="st0" d="M641.4 582.6s16.4-9.5 25.9-6.9c9.5 2.6 4.3 15.5 4.3 15.5l-7.8 12.1-30.2 3.5 7.8-24.2z"/><path class="st2" d="M630.2 595.6s34.5-6 41.4-4.3c6.9 1.7 7.8 17.3 1.7 20.7-6 3.5-37.1 4.3-37.1 4.3l-6-20.7z"/><path class="st1" d="M595.7 620.6c-18.8-6.5-29.2-23.3-33.9-33.4-10.5 10.8-3.8 21 3.7 37.7 19.8 30.2 80.2 21.6 80.2 21.6v-23.2c-11.1 1.8-31.4 3.6-50-2.7z"/><path class="st0" d="M610.4 607.6c11.1 2.7 24.8 3 35.4 2.8v-57.1s-31 19.8-62.5 28.8c4.5 9.1 13.3 22.3 27.1 25.5z"/><path class="st2" d="M610.4 607.6c-13.8-3.3-22.6-16.5-27.2-25.5-6.8 1.9-13.6 3.4-20.3 4-.4.3-.8.8-1.1 1.1 4.7 10.1 15.1 26.9 33.9 33.4 18.6 6.4 38.9 4.6 50 2.7v-12.9c-10.6.2-24.2-.1-35.3-2.8z"/><path class="st3" d="m583.6 637.8 3.5-9.5M595.7 641.3l1.7-9.5M607.8 644.7l.8-9.5M620.7 644.7v-9.5M636.2 645.6l-.8-10.4"/><path class="st2" d="M464.6 552.4s-3.5 27.6-33.6 93.2c20.7 0 29.3-12.1 29.3-12.1s-4.3 15.5 16.4 26.7c9.5-56.1 12.1-80.2 12.1-80.2l46.6-1.7s.9 42.3-5.2 84.5c19-9.5 22.4-19 22.4-19s-.9 14.7 19.8 18.1c-6-63-12.9-112.1-12.9-112.1l-94.9 2.6z"/><circle class="st1" cx="509.9" cy="541.6" r="49.6"/><circle class="st5" cx="509.9" cy="546" r="29.8"/><circle class="st0" cx="509.9" cy="546" r="14.2"/><path class="st3" d="m573.3 631.8 3.4-9.5"/><path class="st7" d="m648.3 492-28.5-39.7-6 23.3 16.9 57.4s3.8 4.7 8.1 4.7c2.2 0 27.4-2.4 52.7-6l.6-40.2-43.8.5z"/><path class="st2" d="M787.2 438.6s21.6-85.4 19.8-98.3c-1.7-12.9-39.7-18.1-46.6-12.1-6.9 6-14.7 41.4-14.7 41.4L733.6 430l53.6 8.6z"/><path class="st4" d="M753.5 441.2s18.1-88.8 19-93.2c.9-4.3 13.8-1.7 14.7 3.5S771.7 442 771.7 442l-18.2-.8z"/><circle class="st5" cx="471.1" cy="418.3" r="11.6"/><circle class="st5" cx="502.5" cy="448.1" r="11.6"/><circle class="st5" cx="541.4" cy="446.3" r="11.6"/><path class="st5" d="M236.9 266.9c0-5.2-10.4-6.9-15.5-.9-4.3-4.3-12.9-2.6-12.1 2.6-2.6-4.3-10.4-3.5-12.1 2.6-2.6-3.5-9.5-3.5-9.5 2.6 0 2.6 1.3 15.3 2.8 30.7l44.1-4.3c1.3-19.1 2.3-32.1 2.3-33.3z"/><path class="st6" d="M479.3 103.1s-.9-13.9 4.2-18.2c5.2-4.3 23.3-.9 25.9 10.4 2.6 11.2-2.6 28.5-2.6 28.5l-27.5-20.7z"/><path class="st6" d="M485.3 116c.9-2.6 3.5-17.3 5.2-21.6 1.5-3.6 7.8-1.7 9.5 2.6s-2.6 22.4-2.6 22.4"/><path class="st5" d="M509.4 410.1c12.1 6 28.5.9 28.5.9l17.9-6.9-3.3-38.8-52 3.8-2.3 6.6c0-.1-.8 28.4 11.2 34.4z"/><path class="st0" d="M537.9 411s-16.4 5.2-28.5-.9c-12.1-6-11.2-34.5-11.2-34.5l2.3-6.6-7.5.5-9.5 13.8s-3.5 16.4 0 30.2 14.7 26.7 35.4 26.7 38.8-13.8 38.8-13.8l-1.9-22.4-17.9 7z"/><path class="st10" d="M394.3 148c-.2.5-.3 1.1-.4 1.6-.3.9-.5 1.8-.7 2.8l21.5.3-20.4-4.7zM390.6 165.2c-.3 1.8-.4 3.6-.6 5.3l20.8-4.9-20.2-.4zM400.3 130.8c-.9 1.9-1.7 4.1-2.5 6.3l19.5 6.5-17-12.8z"/><path class="st8" d="m390 170.6-45.2 10.6 7.8 11.6 37.5-7.1c-.5-3.9-.6-9-.1-15.1zM351.3 121.7l-2.6 15.5 45.6 10.8c1.1-4.1 2.2-7.6 3.5-10.8l-46.5-15.5zM342.2 151.4l2.6 12.9 45.8.9c.5-3.9 1.4-8.2 2.6-12.9l-51-.9zM369.4 89.3l-5.2 14.2 36.1 27.3c2.6-5.8 5.1-9.8 7.2-12.7l-38.1-28.8z"/><path class="st11" d="m427.6 133.3-20-15.1c-2.2 2.8-4.7 6.9-7.2 12.7l17 12.9-19.5-6.5c-1.1 3.2-2.3 6.7-3.5 10.8l20.4 4.7-21.5-.3c-1.2 4.7-2 9-2.6 12.9l20.2.4-20.8 4.9c-.5 6.1-.4 11.2.1 15.3l24.6-4.6 12.8-48.1z"/><path class="st3" d="m427.6 133.3-58.2-44-5.2 14.3 53 40.1-65.9-22-2.6 15.5 66 15.5-72.5-1.3 2.6 13 66 1.3-66 15.5 7.8 11.6 62.1-11.6zM405.6 350.7c2.1-.1 38.3-.9 46.1 1.6 7.8 2.6 19 10.4 19 10.4"/><path class="st5" d="M524.6 236.8c-13.8-6.4-81.9-20.6-105.7-25.5l-18.5 35.9 9.5 8.6s-13.4 19.3-22.7 31.1L511.7 308s12.9-44 12.9-71.2z"/><path class="st7" d="m547.9 185.1-80.2-16.8-45.3 7.8-1.3 31.1-2.2 4.2c23.7 4.8 91.9 24.3 105.7 30.7 0 27.2-12.9 66-12.9 66L387.2 287c-1.3 1.6-2.5 3.1-3.6 4.3-9.1 10.4-12.9 36.2 2.6 38.8 15.5 2.6 15.5-2.6 29.8-2.6s97 50.5 97 50.5-3.4 18.6 10.4 23.3c13.7 4.7 41.4 10.4 41.4 10.4l32.3-22 2.6-91.9-51.8-112.7z"/><path class="st3" d="M446.5 146.2s9.7-23.1 9.6-40"/><path class="st6" d="M658.8 201.9s4.2-16.9-6.5-28.5c14.2-12.9-2.7-28.5-11.7-29.8-9.1-1.3-15 6.6-15 6.6L599.7 139l-44-13.4s0-18.1-20.7-20.7-23.7 14.7-23.7 14.7-21.6-12.5-31.9-16.4-23.3 3-23.3 3-2.6-19.4-14.2-25.9-27.2-3.9-29.8 3.9c-5.2 16.8 2.2 21.6 15.1 21.6l-6.2 24.8c23.2 5.3 120.5 27.8 149 40.3 7.8 18.1-6.5 45.3-6.5 45.3l-156.2-40.9-9.4 30.5 23.3 6.5 3.9-15.5 116.4 33.6-3.9 34.9 22 3.9v23.3l15.5 54.3-5.2 29.8-10.4 64.7s-11.1 75.1-12.9 85.4c-1.8 10.3 15.6 14.7 16.8 9.1S579 440 579 440s-6.4 95.4-5.2 102.2c1.2 6.8 18.6 4.4 19.4-2.6s6.5-98.3 6.5-98.3 5.7 92.4 11.6 98.3c6 6 19.9 1.8 19.4-6.5s-9.1-95.7-9.1-95.7l-5.2-63.4 1.6-76.9 40.8-95.2z"/><path class="st6" d="M620.7 538.6c-.5-8.3-10.4-102.6-10.4-102.6M582.8 542.1c0-6.9 6-105.2 6-105.2M554.3 531.7c0-6.9 16.4-98.3 16.4-98.3"/><path class="st3" d="m197.2 271.2 3.5 19M209.3 268.7l1.7 19.8M221.4 266.1l2.5 18.9"/><path class="st1" d="M736.3 398.9c1.8-3 8.4-23.4 12.1-34.9-3.2-2.3-7.2-3.5-9.5-2.2-2.6 1.6-8.5 18.6-13.4 35.5 4.7 2.1 9.6 3.7 10.8 1.6z"/><path class="st5" d="M745.8 421.3c0-15.5 8.6-44 7.8-50-.4-2.8-2.5-5.4-5.2-7.3-3.7 11.6-10.3 31.9-12.1 34.9-1.2 2.1-6.1.5-10.8-1.6-3.4 11.5-6.2 22.9-7.3 29.2-2.6 15.5-1.7 64.7-1.7 64.7l-24.3.3-.6 40.2c24.8-3.5 49.5-8.3 52.5-12.9 6-9.5 2.6-38 2.6-38s-.9-44-.9-59.5z"/><path class="st1" d="M243.8 799.1s-7.8 6.9-6 11.2c1.7 4.3 9.5 6 12.9 2.6 0 0 5.2 3.5 12.1.9 1.7 2.6 9.5 1.7 12.1 0 2.6.9 6.9 2.6 11.2.9 4.3-1.7 5.2-12.9 5.2-12.9l-47.5-2.7z"/><path class="st3" d="m250.7 812.9 3.4-12.9M262.8 813.8l2.6-12.1M274.8 813.8l5.2-11.2"/><path class="st2" d="m601.7 787.9 1.8 24.1 56.9 6.9-4.3-23.2z"/><path class="st7" d="M550.9 832.7s12.1-22.9 38-26.7c18.2-2.8 74.2 3.5 74.2 3.5l2.6 27.6-79.4-1.7-35.4-2.7z"/><path class="st3" d="M443 137.5s5.4-17 1.7-36.2c-2.2-11.1-17.3-19.8-22.4-12.9s10.8 5.3 12.9 15.5c3.5 16.6-3.4 29.4-3.4 29.4M511.2 117.7c0 8.6 12.1 11.2 15.5 9.5s-.9-14.7 8.6-12.1c9.5 2.6 6.9 19.8.9 21.6-44.9 2.6-50.9-25-64.7-23.3-13.8 1.7-18.1 27.6-18.1 27.6"/><path d="M464.6 144.4s-.9-15.6 7.6-16.4c8.5-.8 12.5 15.5 50.1 19.2 29.9 2.9 43.2-1.9 43.2-1.9" style="fill:none;stroke:#000;stroke-width:6.5726;stroke-linecap:round;stroke-linejoin:round;stroke-miterlimit:10"/><path class="st3" d="M625.5 150.1c7.2 2.9 22.9 15.2 26.7 23.3M599.2 150.5s24.2 7.8 36.2 20.7c12.1 12.9 12.9 31.1 12.9 31.1"/><path class="st3" d="M594.8 160s26.7 6 33.6 19.8 9.5 26.7 9.5 26.7M407.7 207.4l12-35.4M425 196.7l6.8-22.9M437 198.8l6.9-20.7M449.1 202.2l6.9-21.5M463.7 205.7l6.9-20.7M474.9 210.9l6.9-20.7M486.2 214.3l9.4-23.3M498.2 216.9l7.8-21.6M508.6 219.5l6-19.9M518.9 222.1l6.9-19M530.1 226.4l7.8-23.3M539.6 231.6l7.8-25.9M548.3 265.2l7.7-56.9M558.6 268.7l8.6-62.2M565.5 292.8l9.5-75M580.2 292.8l9.5-64.7"/><path class="st8" d="M455.4 240.7c-12.5 0-22.6 10.2-22.6 22.6 0 12.5 10.1 22.6 22.6 22.6l12.3-41.7c-3.5-2.2-7.8-3.5-12.3-3.5z"/><path class="st11" d="M467.7 244.3 455.4 286c12.5 0 22.6-10.2 22.6-22.6.1-8-4.1-15-10.3-19.1z"/><circle class="st3" cx="455.4" cy="263.3" r="22.6"/><circle class="st1" cx="456.1" cy="264" r="7.8"/><path class="st1" d="M553.5 133.8c-.9 15.6-.2 29.1 6 39.6 9.1 15.5 27.2-1.3 27.2-1.3s6.4-16.9 8.9-38l-42.1-.3z"/><circle class="st5" cx="556" cy="145.3" r="9.5"/><path class="st2" d="M590.6 85.5c-15.5-34.9-49.2-25.9-49.2-25.9s16.8 24.6 14.2 50.5c-.9 8.4-1.6 16.3-2.2 23.8l42 .3c2.1-15.7 1.9-33.7-4.8-48.7z"/><path class="st0" d="M552.6 97s20.7-3.5 22.4 7.8c1.7 11.2-4.3 12.1-4.3 12.1h-19l.9-19.9z"/><circle class="st1" cx="561.2" cy="116.8" r="9.5"/><path class="st2" d="M615.2 89.3C611.3 59.6 590.6 57 590.6 57s-2.6 32.3-10.4 58.2c-1.3 4.3-2.2 8.5-2.8 12.7L607 135c5.2-14.2 10.4-28.8 8.2-45.7z"/><path class="st1" d="M577.5 127.9c-3 20.7 1.5 37.8 1.5 37.8s18.1 28.5 19.4 2.6c.6-11.3 4.6-22.1 8.6-33.1l-29.5-7.3z"/><path class="st0" d="M582.8 91s19.8-.9 22.4 7.8c2.6 8.6-6 12.9-6 12.9h-19l2.6-20.7z"/><circle class="st1" cx="589.7" cy="111.7" r="9.5"/><circle class="st5" cx="580.2" cy="140.1" r="9.5"/><path class="st1" d="M569.9 170.8c-28.4-12.5-125.7-35-149-40.3l-3.4 11c45.3 11.7 133.6 35.1 154.5 45.3.5-5.5 0-11-2.1-16zM467.7 168.3l-4.1 21.7 10.6 2.7 6.4-19.3zM431.5 157.9l-7.6 21.7 9.5 2.5 7.1-21.6z"/><path class="st1" d="M572.1 186.8c-20.9-10.1-109.2-33.6-154.5-45.3l-10.4 33.6 16.6 4.4 7.6-21.6 9.1 2.6-7.2 21.6 30.2 7.9 4.1-21.7 12.9 5.2-6.5 19.3 30.6 8 6.8-19.6 10.4 3.9-6.8 18.5 48.2 12.6c.2-.1 7.8-14.6 8.9-29.4z"/><path class="st1" d="m511.7 181.2-6.9 19.6 10.4 2.7 6.8-18.4z"/><circle class="st1" cx="586" cy="197.4" r="36.2"/><circle cx="590.1" cy="205.1" r="14.9" style="fill:none;stroke:#000;stroke-width:7.7023;stroke-linecap:round;stroke-linejoin:round;stroke-miterlimit:10"/><circle class="st3" cx="589.7" cy="204.8" r="6"/><path class="st3" d="m549.8 197.4 13.6 5.8M554.4 183.8l14.2 7.7M564.7 170.8l10.4 13M579 165.7l3.9 14.2M594.5 163.1v16.8M607.4 172.1l-2.6 13M682 231.6h-.9"/><path class="st1" d="M621.6 297.1S569 285.9 581.9 235s66.4-32.8 66.4-32.8v37.1l-26.7 57.8z"/><path class="st3" d="m630.5 260.4 6.6-1.5 8.2-20.9-19.9 4.9z"/><path class="st4" d="m645.3 238 6.5-22s-25.9-7.8-35.5-4.7l9.2 31.6 19.8-4.9z"/><path class="st3" d="m609.8 246.7 5.1 17.1 15.6-3.4-5.1-17.5zM625.4 242.9l-9.2-31.6c-5 2-9.9 5.3-14.1 10.2l7.6 25.2 15.7-3.8z"/><path class="st4" d="M595.2 268.2c6.7 11.6 20 16.6 26.7 18.5l-6.9-22.9-19.8 4.4z"/><path class="st3" d="m630.5 260.4 2.5 8.9 4.1-10.4z"/><path class="st4" d="M602.2 221.6c-3.3 3.9-6.1 8.9-8.2 15.2-1.8 5.3-2.7 10.2-2.8 14.6l18.6-4.6-7.6-25.2z"/><path class="st3" d="m614.9 263.8 6.9 22.9c2.4.7 4.1.9 4.1.9l7.2-18.4-2.6-8.8-15.6 3.4z"/><path class="st3" d="m609.8 246.7-18.6 4.6c-.2 6.8 1.4 12.3 4.1 16.9l19.8-4.4-5.3-17.1z"/><circle class="st1" cx="623.7" cy="253.6" r="17.7"/><path class="st2" d="M619.9 301.4c.9 5.2 33.6 10.4 33.6 10.4l22.4-108.7s-20.7-8.6-25-7.8-31.9 101-31 106.1z"/><path class="st10" d="M720.3 158c-1-.5-2.2-1.1-3.3-1.6-6.6 12.8-13 24.8-13.5 26-.4 1.3 8-11.2 16.8-24.4zM703.3 150.5c-1-.4-2.2-.8-3.3-1.2-4.4 13.6-8.6 26.2-8.6 26.2s5.6-12 11.9-25zM738.5 169.1c-1.2-.9-2.5-1.8-3.9-2.8-8.4 12.7-16.4 24.6-16.4 24.6s10-10.7 20.3-21.8z"/><path class="st1" d="M732 125.5c0-3.5-9.5-8.6-12.1-6.9-1.4.9-9.4 17.1-16.6 31.9 4.9 1.8 9.5 3.8 13.6 5.9 7.5-14.2 15.1-29.1 15.1-30.9zM709.6 115.1c-.9-4.3-11.2-7.8-13.8-3.5-.8 1.3-5.3 14.8-11.1 32.9 5.5 1.5 10.7 3 15.4 4.7 4.9-15.1 9.9-31.8 9.5-34.1zM752.7 136.7c0-3.5-12.1-9.5-13.8-6.9-.9 1.3-9.9 15.1-18.6 28.2 5.4 2.8 10.2 5.6 14.3 8.5 8.9-13.6 18.1-28 18.1-29.8zM760.4 147c-2.1 1.3-12.2 11.7-22 22.1 5.9 4.3 10.3 8.3 13.4 11.5 10.9-12.9 19.5-23.2 19.8-24.1.9-2.6-6.8-12.1-11.2-9.5z"/><path class="st7" d="M706.1 234.2s26.5-30.7 45.8-53.6c-3.1-3.2-7.5-7.2-13.4-11.5-10.4 11-20.4 21.9-20.4 21.9s8.1-11.9 16.4-24.6c-4.1-2.8-8.9-5.7-14.3-8.5-8.7 13.2-17.2 25.7-16.7 24.4.4-1.2 6.8-13.3 13.5-26-4.1-2-8.7-4-13.6-5.9-6.3 13-11.9 25-11.9 25s4.2-12.5 8.6-26.2c-4.8-1.7-9.9-3.3-15.4-4.7C671.5 185 651.8 248 651.8 248s-7.1 29.6-13.6 57.8l44.1 10.4c.3-1.7.6-2.7.6-2.7l23.2-79.3z"/><path class="st5" d="M638 305.7c0 .1.1.1.1.2l-.1-.2h0zM685.4 317l-3.2-.8c0 .1 0 .2-.1.3 2.1.3 3.3.5 3.3.5z"/><path class="st5" d="M638.1 305.9c2.9 3.6 33.9 8.9 44.1 10.5 0-.1 0-.2.1-.3l-44.1-10.4c-.1.1-.1.1-.1.2z"/><path class="st1" d="m641.4 288.5 47.4 11 3-15.4-45.2-10.3c-4.3 1.8-7.8 10.4-5.2 14.7z"/><path class="st5" d="M638 305.7c2.6 4.3 47.4 11.2 47.4 11.2l3.4-17.4-47.4-11c-4.3 3.4-6 12.9-3.4 17.2z"/><path class="st1" d="m697.8 252.6-44.3-10.7c-4.3 2.6-6.9 12.1-4.3 17.3l-.5.5 45.7 10.6 3.4-17.7z"/><path class="st5" d="M700.9 236.7s-38.8-11.2-43.1-8.6-5.2 9.5-4.3 13.8l44.3 10.7 3.1-15.9z"/><path d="M648.7 259.7c-3.3 3.3-6.2 6.8-2.1 14.1l45.2 10.3 2.7-13.8-45.8-10.6z" style="fill:#7c7c7c;stroke:#000;stroke-width:6.9003;stroke-linecap:round;stroke-linejoin:round;stroke-miterlimit:10"/><path class="st11" d="M677.6 338.5c.9 3.5 15.5 5.2 18.1 1.7.9-1.3 1.6-8.8 2-17.5l-17.4-2c-1.7 8.8-3 16.4-2.7 17.8zM717.3 222.1c0-2.6-17.3-4.3-19-.9-.6 1.1-2 7.4-3.7 15.3l17.3 3c3-8.9 5.4-16.4 5.4-17.4z"/><path class="st8" d="M700.9 271.2s6.2-17.6 11-31.7l-17.3-3c-3.3 15.6-7.5 37.3-7.5 37.3l-.9 18.1s-3.5 15.5-6 28.7l17.4 2c.6-14.1.6-31.6.6-31.6l2.7-19.8z"/><path class="st3" d="M698.3 221.2c-1.7 3.5-11.2 52.6-11.2 52.6l-.9 18.1s-9.5 43.1-8.6 46.6c.9 3.5 15.5 5.2 18.1 1.7 2.6-3.5 2.6-49.2 2.6-49.2l2.6-19.8s16.4-46.6 16.4-49.2-17.2-4.2-19-.8z"/><circle class="st1" cx="694.5" cy="281.2" r="14.2"/><path class="st7" d="M557.8 323c-5.2-5.2-6-31.1 1.7-36.2 7.8-5.2 37.1 0 41.4 7.8 4.3 7.8 2.6 35.4 2.6 35.4s14.7 11.2 13.8 22.4c-.9 11.2-11.2 18.1-21.6 19-10.4.9-22.4-5.2-22.4-15.5-6-10.4-15.5-18.1-15.5-18.1s-3.5-7 0-14.8z"/><path class="st3" d="M557.8 323c19.8 9.5 32.8-11.2 14.7-14.7"/><path class="st1" d="m557.8 340.2 1.7 16.4s24.2 2.6 25-.9c.9-3.5 4.3-13.8-.9-15.5-5.1-1.7-25.8 0-25.8 0zM552.6 374.7l-.9 68.2 72.5-.9-3.5-68.1z"/><path class="st3" d="m562.9 386 .9 46.5 47.4.9-1.7-47.4z"/><path class="st1" d="M523.3 401.1c-3.5 3.8-4.4 15-.9 18.5s121.6 4.3 125.9 4.3 6.9-19 3.5-20.7-124.9-5.9-128.5-2.1z"/><path class="st3" d="m530.1 410.1 113.9 2.6"/><circle class="st1" cx="589.2" cy="411.4" r="13.4"/><path class="st11" d="M470.6 374.7c3.5-6 3.5-27.6-3.5-31.9-5-3.1-40-3.1-58.8-2.8-2.1 4.2-3.2 8.1-2.8 10.7 7.8 3.9 25.9 12.9 25.9 12.9s.4 8.7 3 16.3c14.5-.3 34.1-1.4 36.2-5.2z"/><path class="st8" d="M509.1 324.8c-9.7-.5-20.7 0-20.7 0s2.5-4.1 2.5-8.4l-18.5 3.1-2.2-7.7c-14.7 2.1-34.2 4.8-41.7 7.3-7.8 2.6-16 12.3-20.1 20.8 18.8-.3 53.8-.3 58.8 2.8 6.9 4.3 6.9 25.9 3.5 31.9-2.2 3.8-21.7 4.8-36.1 5.1 1.7 5.2 4.5 9.8 8.6 10.9 10.4 2.6 28.9 1.7 36.7.4 7.8-1.3 6-10.8 9.9-10.8 2.3 0 13-.4 22.1-1.6l-2.8-53.8z"/><path class="st3" d="M488.4 324.8c-3.1 3.4-32.4 5.1-32.4 5.1"/><path class="st3" d="M488.4 324.8s2.5-4.1 2.5-8.4l-18.5 3.1-2.2-7.7c-14.7 2.1-34.2 4.8-41.7 7.3-11.6 3.9-24.2 23.7-22.9 31.5 7.8 3.9 25.9 12.9 25.9 12.9s1.3 24.6 11.6 27.2c10.4 2.6 28.9 1.7 36.7.4 7.8-1.3 6-10.8 9.9-10.8 2.3 0 13-.4 22.1-1.6l-2.7-53.9c-9.7-.5-20.7 0-20.7 0z"/><path class="st1" d="M458 355.1c-2.2-1.1-4.4-2.2-6.4-2.8-7.8-2.6-44-1.7-46.1-1.6 0 0-2.2 12 2.9 14.6 5.2 2.6 9.5.9 12.1-.9 2.6 1.7 8.6 3.5 12.9 0 1.7 3.5 8.6 3.5 12.9 0 3.5 2.6 10.4 2.6 11.2 0 1.1-2.6.5-9.3.5-9.3z"/><path class="st3" d="m420.6 364.4-.9-12.1M433.5 364.4l-1.7-12.9M446.5 364.4l-1.7-12.1"/><path class="st1" d="M490.9 316.4c0-2.6-.9-5.3-3.8-7.2-1.9.4-8.6 1.4-17 2.6l1.4 8.5 19.4-3.9zM523.3 327.4c-2.1-1.6-7.8-2.2-14.2-2.6l2.7 53.9c6-.8 11.3-2 12.9-3.5 3.8-3.8 3.8-43.9-1.4-47.8z"/><path class="st7" d="M417.2 309.3s12.9-5.2 12.9 6.5c0 11.6-9.1 11.6-14.2 11.6"/><path class="st3" d="m494.8 338.5 31-.8M495.6 352.3l31.1-.8M495.6 366.1l31.1-.8"/><path class="st1" d="M740.6 422.2c-4.3 3.5-4.3 11.2 0 15.5-3.5 1.7-4.3 12.1 0 16.4-2.6 3.5-5.2 9.5.9 14.7-3.5.9-4.3 12.9.9 12.9 1.9 0 7.5-.1 13.7-.3l-.6-59.3c-7.4-1-13.3-1.1-14.9.1z"/><path class="st5" d="M797.5 494.6c1.7-5.2 2.6-44 .9-51.8-1.7-7.8-5.2-9.5-9.5-12.9-2.8-2.2-20.3-6.2-33.5-7.8l.6 59.3c10.4-.3 22.5-.6 22.5-.6l6.8 21c5.8-2.1 11.5-4.7 12.2-7.2z"/><path class="st3" d="M782.9 442.9s-19.8-6-42.3-5.2M783.7 457.5s-20.7-4.3-43.1-3.5M783.7 468.8s-19.8-.9-42.3 0"/><path class="st1" d="m591.4 835.3-40.5-2.6s-2.6 7.8-1.7 10.4c.9 2.6 5.2 4.3 8.6 2.6 0 2.6 7.8 4.3 9.5 1.7.9 2.6 9.5 2.6 12.1.9 0 0 5.2 2.6 8.6 0 4.3-3.5 3.4-13 3.4-13z"/><path class="st3" d="m559.5 833.6-1.7 12.1M569.8 834.5l-2.6 12.9M581 835.3l-1.7 13"/><path class="st1" d="M711.1 822.4h-42.9l3 17.1 46.1-.7z"/><path class="st1" d="m711.1 822.4-5.9-15.5-49.1-.9 4.3 33.6 10.8-.1-3-17.1z"/><path class="st2" d="M642.3 793.1c-5.2 2.6-1.7 15.5 4.3 17.3 6 1.7 56.9 5.2 59.5 1.7 2.6-3.5-.9-17.3-4.3-19-3.5-1.8-54.3-2.6-59.5 0z"/><path class="st1" d="m620.9 831.6 7.8 16.5 13.4.3-7.8-16.5z"/><path class="st1" d="m593.1 831 2.6 16.4 33 .7-7.8-16.5zM725.9 850l-10.3-16.4-17.5-.3 7.1 16.3zM634.3 831.9l7.8 16.5 50.6.9-7.7-16.4z"/><path class="st1" d="m698.1 833.3-13.1-.4 7.7 16.4 12.5.3z"/><path class="st2" d="m678.9 332.1-44.6-9.8c-1.6 6.7-3 12.9-4.1 18.1l45.1 9.7c1-5.8 2.3-12.2 3.6-18z"/><path class="st0" d="M682.2 316.4c-10.2-1.6-41.1-6.9-44.1-10.5-1.3 5.6-2.6 11.1-3.8 16.4l44.6 9.8c1.3-6.5 2.5-12.4 3.3-15.7z"/><path class="st5" d="m675.2 350.1-45.1-9.7c-2 8.9-3.4 14.8-3.4 15.4 0 2.6 46.6 17.3 45.7 12.9-.3-1.5 1-9.4 2.8-18.6z"/><path class="st15" d="m397.3 63.1 9.2 6.9M406.8 52.8l4.6 10.8M419.7 63.1v-9.2M486.4 68.8l-1.7-10.9M495.6 66.8l1.8-10.3M503.2 70.5l5.6-7.4M642.9 126.9l-.6-7.5M650.9 126.9l2.9-9.8M657.8 130.4l6.3-4.1"/></svg>