<svg version="1.1" id="Calque_1" xmlns="http://www.w3.org/2000/svg" x="0" y="0" viewBox="0 0 900 900" style="enable-background:new 0 0 900 900" xml:space="preserve"><style>.st0,.st1,.st2,.st3,.st4,.st5{fill:none;stroke:#000;stroke-width:5.4869;stroke-linecap:round;stroke-linejoin:round;stroke-miterlimit:10}.st1,.st2,.st3,.st4,.st5{fill:#fff}.st2,.st3,.st4,.st5{fill:#ffce00}.st3,.st4,.st5{fill:red}.st4,.st5{fill:#90b83e}.st5{fill:#00a2aa}.st7{fill:red}.st8{fill:#fff}</style><path class="st0" d="M659 281.2c11.7-9.3 0-52.7 15.9-54.3 6.6-.7 11 2.2 11 13.2s4.4 41.7-2.2 59.3"/><path class="st1" d="M673.8 174.2c0-8.2-14.3-10.9-19.8-1.1-.5-6-10.4-12.6-17-3.8-3.2-7.1-12.1-8.2-14.8-1.1-.8 1.9-.9 10.6-.7 22.4l52.6 4.5c-.2-9.3-.3-17.8-.3-20.9z"/><path class="st2" d="m521.4 341.7-21.2 57.9 39.8 9.7s57-38.4 99.3-70.5l-32.5-48.3c-29.2 17.2-81.9 48.3-85.4 51.2z"/><path class="st2" d="M685.9 240.1c0-11-11-12.1-11-12.1s-.4-17.6-.8-32.9l-52.6-4.5c.7 32.7 4 89 4 89s-7.7 4.5-18.9 11.1l32.5 48.3c23.3-17.7 42.1-33.4 44.4-39.6 6.8-17.6 2.4-48.3 2.4-59.3z"/><path class="st0" d="M654.1 239.5v-66.4M637.1 169.3v70.2"/><path class="st1" d="M674.9 226.9c-6.5.7-8.3 8.3-9.1 17.8 6.1 8.6 14.5 8.2 20.6 6.3-.3-4.4-.5-8.2-.5-10.9 0-11-4.4-13.8-11-13.2z"/><path class="st2" d="M681.5 549s20.9 1.1 20.9-7.7-20.9-71.9-37.3-86.4c-16.5-14.5-162.6-62.3-162.6-62.3l41.9 69.1s62 14.4 65.8 20.3 2.2 34 11.5 51.6 23.9 13.2 31.3 17c4.5 2.4 10.8 21.9 16.2 37.7 6.1-2.2 14.9-5.4 22.5-8-4.6-15.1-10.2-31.3-10.2-31.3z"/><path class="st1" d="M669.2 588.4c3.4 9.9 6.6 18.3 9 20.4 6 5.3 19.8 3.3 19.8-4.2 0-3.1-2.9-13.4-6.3-24.3-7.4 2.7-16.3 5.9-22.5 8.1z"/><path class="st0" d="M665.1 455c16.5 14.5 37.3 77.6 37.3 86.4s-20.9 7.7-20.9 7.7-16-61.6-42.4-72.9"/><path class="st1" d="M677.2 535.1c2.9 8.2 4.3 13.9 4.3 13.9s20.9 1.1 20.9-7.7c0-2.6-1.9-10-4.8-19.4-7 1.3-16.2 4.6-20.4 13.2z"/><path class="st2" d="M646.2 749.5s4.6 27.2 12.3 37.1c7.7 9.9 82.9 28.8 89.4 38 6.6 9.2 6.6 15.9 1.1 20.2-5.5 4.3-80.1 1.1-80.1 1.1l-78.8-30.7-2.4-71.4 58.5 5.7z"/><path class="st2" d="M603.1 754.5s-6 37.4 1.1 45.7c7.1 8.2 33 16.4 43.7 20.3 10.6 4 23.8 1.9 28.8 6.1 4.9 4.3 6.6 18 1.1 21.3-5.5 3.3-151.5 2.2-156.9 0s-7.7-21.9-1.1-32.9 10.4-14.8 14.3-26.3c3.8-11.5 4.9-48.6 4.9-48.6l64.1 14.4z"/><path class="st3" d="M445 426.9c1.1 3.1 80.7 164.4 80.7 164.4s25.2-.7 48.7-6.1L488 399.9l-43 27zM610.2 567.1c-47.7-79.6-101.5-183.3-101.5-183.3l-20.6 15.9L574.5 585c14.9-3.5 29.2-9.1 35.7-17.9z"/><path class="st3" d="M603.1 589.7c-22.5-8.7-69.1-.9-76.8-4.4-7.7-3.5 6-41.8-27.4-57.2s-15.3-45.5-15.3-45.5l-19.9-64.1s-42.8 5.4-46.2 6.5-25.6 76.3-27.8 76.8c-2.2.5-88.4 67.5-88.4 67.5s-7.7 58.2-2.2 85.6c5.5 27.4 19.8 42.8 41.7 57.1 21.9 14.3 74.5 23 107.4 19.2 32.8-3.8 73.1-46.1 73.1-46.1l-1.2 3.6 119.1-3.2c-10.5-43.8-24.3-91.3-36.1-95.8zM507.9 726.1l-6.3 19.1 150.1-1.9c-1.1-5.5-2.4-12-3.8-19.1l-140 1.9z"/><path class="st2" d="m639.2 685.5-119.1 3.2-12.2 37.4 139.9-1.8c-2.4-11.6-5.3-25-8.6-38.8zM391.8 532c23.7-37.5 26.2-93.2 25.7-122.6l-27.9-30c-.8 29.6-4.9 108.3-26.9 134-18 21.1-60.1 19.4-87.6 15.7-2.1 9.8-4.7 19.2-7.9 28 33.5 3.2 104.7 6.3 124.6-25.1z"/><path class="st4" d="M362.7 513.3c21.9-25.7 26.1-104.3 26.9-134L363 350.7l-85.4 40.2c1.8 1.8 10.8 75.9-2.4 138.1 27.4 3.8 69.5 5.4 87.5-15.7z"/><path class="st1" d="m329 558 4.1 23.4c9.2-1.1 18.8-3.2 28.4-6.4l-7.4-20.9c-7.9 2-16.5 3.2-25.1 3.9zM306.1 559l1.2 23.5c8 .3 16.7 0 25.7-1.1l-4.1-23.4c-7.5.7-15.2 1-22.8 1z"/><path class="st1" d="m285 558.3-1.1 21.7c6.8 1.1 14.7 2.1 23.4 2.3l-1.2-23.5c-7.3.2-14.5 0-21.1-.5zM354.1 554.2l7.4 20.9c9.3-3.2 18.7-7.4 27.8-13.2l-11.1-17c-6.8 4.1-15.1 7.2-24.1 9.3z"/><path class="st1" d="M267.3 557c-2.2 6-4.8 11.9-7.7 17.2 0 0 9.4 3.4 24.4 5.9l1.1-21.7c-6.6-.4-12.7-.8-17.8-1.4zM408.8 491.3c-2 7.6-4.5 15-7.5 22.2l22.4 11c4.5-8.7 7.8-17.7 10.2-26.6l-25.1-6.6zM438 431.6l-20.6-22.2c.2 13.3-.1 31.9-2.7 51.8l24.3 4.3c1.2-19.7-1-33.9-1-33.9z"/><path class="st1" d="m439 465.5-24.3-4.3c-1.3 9.9-3.2 20.1-5.9 30.1l25.1 6.6c3-11.6 4.4-22.6 5.1-32.4zM378.2 544.8l11.1 17c.7-.4 1.3-.9 2.1-1.3 6.3-4.1 11.6-8.7 16.4-13.7l-17.2-12.9c-3.3 4.3-7.5 8-12.4 10.9z"/><path class="st1" d="M391.8 532c-.4.7-.9 1.3-1.3 2l17.2 12.9c6.6-6.9 11.9-14.6 16.1-22.6l-22.4-11c-2.8 6.6-5.9 12.9-9.6 18.7z"/><circle class="st2" cx="463.7" cy="513.3" r="47.2"/><circle class="st2" cx="348.8" cy="412.6" r="19"/><circle class="st2" cx="395.3" cy="445.8" r="19"/><circle class="st2" cx="449.3" cy="457.1" r="19"/><circle class="st2" cx="502.4" cy="426.9" r="19"/><path class="st3" d="M437.4 383.3c32.4-5.7 36.2-39 35.6-58.7L439.4 303c2.6 16.5 7.9 54.8-1.3 57.3-13.6 3.8-38.5-28.5-48.5-42.8l-15.5 16.2c9 17.7 32.2 55.1 63.3 49.6z"/><path class="st2" d="M438 360.2c9.1-2.5 4-40.8 1.3-57.3L417 288.5l-27.5 28.9c10.1 14.3 34.9 46.7 48.5 42.8z"/><path class="st5" d="M441.2 404.7c43.3-7.7 51.1-46.6 52.2-66.8l-20.5-13.3c.7 19.8-3.1 53-35.6 58.7-31.1 5.5-54.2-31.9-63.2-49.7L361.3 347c9.2 21 34.5 65.7 79.9 57.7z"/><path class="st5" d="m361.3 347.1-21.9 23s7.5 21.6 25.7 40.8l17-30.2c-10-11.6-16.8-24.7-20.8-33.6z"/><path class="st5" d="m382 380.7-17 30.2c9.1 9.5 20.9 18.4 35.8 23.7l7.4-33.7c-10.5-4.5-19.1-12-26.2-20.2z"/><path class="st5" d="M441.2 404.7c-12.5 2.2-23.5.4-33-3.8l-7.4 33.7c12.9 4.6 28.1 6.5 45.9 3.6 2.4-.4 4.8-.9 7.1-1.3l-8.2-33.1c-1.4.3-2.9.6-4.4.9z"/><path class="st5" d="m445.6 403.8 8.2 33.1c21.1-4.5 35.6-13.3 45.5-23.5l-26-24.6c-6.8 6.7-15.8 12-27.7 15zM521.3 355.9l-27.9-18c-.8 13.6-4.5 35.6-20.1 50.9l26 24.6c24.3-24.7 22-57.5 22-57.5z"/><path class="st2" d="M558.1 282.3c-4.4 6.9 8.8 23-8.2 26.3 8.2 7.7 8.8 19.6 3.3 24.7-5.5 5-9.3-3.3-13.2 0-3.8 3.3 12.6 25.8-7.1 31.3S419 320.7 410.1 308.1C401.1 295.5 381 155 381 155l47.5-11 85.6-20.9 32.4 54.9-1.1 42.6 25.8 43.6s-8.7 11.2-13.1 18.1z"/><path class="st2" d="M557.8 263.1s-12.4-4.9-16.8.5c-4.4 5.5-3.8 19.5 3.8 23.8 4 2.2 10.6.1 17.6.2 6.7.1 13.6 2.6 18.3.9 9.5-3.6 10.8-15.6 7.5-27.1-3.3-11.5-30.2-41.7-34.6-50.5s-.2-19.8.5-28c.8-8.2-24.7-53.8-24.7-53.8l-163.8 41.2"/><path class="st0" d="m518 310.9 31.8-2.2"/><path class="st3" d="M579.7 126.8s-26.7-68-108.3-44.7c-4.7 1.3-9.4 2.6-13.9 3.8l4.6 64.6c53.1-13 117.6-23.7 117.6-23.7z"/><path d="m462 150.8-4.6-64.6C384 106.2 338.8 111.4 336 157c-3 48.3 19.8 74.6 19.8 128.1s-69.9 48-94.7 90.3c-24.9 42.5-27.1 91.1-27.1 105s12.8 12.4 22.3 7.4c9.4-5 6.3-71.7 44.7-98.8s73.9-8.9 96.6-47.1c22.7-38.2-12.4-141.7-3.6-163.6 3.3-8.9 33.3-18.8 68-27.5z" style="fill:#515351;stroke:#000;stroke-width:5.4869;stroke-linecap:round;stroke-linejoin:round;stroke-miterlimit:10"/><path class="st3" d="M425.6 636.3h-75.2c.2 5.5.8 10.9 1.4 15.3l74.5.1-.7-15.4z"/><path class="st4" d="M424.2 604.6s-60.4-17.7-68.6-8.8c-4.6 4.9-5.9 23.8-5.2 40.5h75.2l-1.4-31.7z"/><path class="st1" d="m501.7 745.2-6.2 18.9 16.8-.3 2.6-18.7zM533.9 744.9l-1.7 18.5 20.6-.3 1.1-18.4z"/><path class="st1" d="m553.9 744.7-1.1 18.4 17.4-.3.8-18.4zM514.9 745.1l-2.6 18.7 19.9-.4 1.7-18.5zM630.7 743.7l-20.5.2v18.2l21.2-.3zM655.2 761.3s-1.2-6.9-3.4-17.9l-21.1.2.7 18.1 23.8-.4zM571 744.4l-.8 18.4 20.8-.4-.9-18.2z"/><path class="st1" d="m590.1 744.2.9 18.2 19.2-.3v-18.2z"/><path class="st2" d="M319.9 827.7c10.9 8.1 135-1.6 167.5-4.3-1.5-25.9-6.6-67.4-22.6-85.2-24.3-26.9-94.8-25.2-112.5-23-1.1.1-2.3.3-3.6.5-45.7 26.9-35.2 107.2-28.8 112z"/><ellipse cx="348.5" cy="749.5" rx="9.3" ry="12.4"/><ellipse cx="388" cy="752.6" rx="9.3" ry="12.4"/><ellipse cx="434.5" cy="752.6" rx="9.3" ry="12.4"/><ellipse cx="348.5" cy="801.4" rx="9.3" ry="17.6"/><ellipse cx="385.6" cy="797.6" rx="9.3" ry="17.6"/><ellipse cx="417.5" cy="797.6" rx="9.3" ry="17.6"/><ellipse cx="455" cy="797.6" rx="9.3" ry="17.6"/><path class="st0" d="M239.7 490.5s8.7-95.1 35.6-119.3c26.8-24.1 89.8-34 90.5-80.5s-16.6-98.9-18.1-121.4 8.6-34.6 22.3-45.5 84.9-28 84.9-28"/><path class="st0" d="M246.7 488.1c.8-1.6 7.7-73 29.5-103.2 21.8-30.2 90-29.1 99-80.7s-28.6-131-12.5-155.8 91.1-39 91.1-39"/><path class="st0" d="M253 488.1s3.7-72 34-100c30.4-28 86.1-23.5 100.4-58.6s-27.3-155.6-14.3-175 87.2-31.3 87.2-31.3"/><path class="st0" d="M461.5 137c-1.1 1-59.3 14.5-74.1 24.8-14.8 10.3 4.9 94.2 4.9 94.2"/><path class="st7" d="M462.9 212.6s11.7 24.1 24.9 24.1c1.4 0 3-.1 4.6-.2l1.5-32.4c-15.5 4.1-31 8.5-31 8.5z"/><path class="st8" d="M525.7 198.4c-3.6-.8-17.8 2.3-31.7 5.8l-1.5 32.4c14.2-1.2 36.9-7.1 40.4-11.3 3.8-4.6.5-25.3-7.2-26.9z"/><path class="st0" d="M462.9 212.6s11.7 24.1 24.9 24.1 41.2-6.9 45-11.5.5-25.2-7.1-26.9c-7.7-1.6-62.8 14.3-62.8 14.3z"/><path class="st1" d="M490 206.8c0 5.6 4.5 10.2 10.2 10.2 5.7 0 10.2-4.5 10.2-10.2 0-2.3-.8-4.4-2-6-5.7 1.2-12 2.9-18.1 4.4-.2.5-.3 1.1-.3 1.6z"/><circle class="st5" cx="381.1" cy="288.6" r="41.7"/><path class="st1" d="M351.9 651.6c.9 5.9 2.2 10.4 3.7 12.1 1.4 1.5 5.9 2.3 12.1 2.7v-14.7l-15.8-.1zM367.7 651.6v14.7c5.2.3 11.4.3 17.9.1v-14.8h-17.9zM385.6 651.7v14.8c6.8-.2 13.8-.5 20.2-1v-13.7l-20.2-.1z"/><path class="st1" d="M426.4 651.7h-20.6v13.7c11.9-.8 21.2-1.8 21.2-1.8l-.6-11.9z"/><path class="st5" d="M395.3 692.8c-3-6-20.6-4.6-19 13.7 1.6 18.3 19.8 19.2 30.4 15.4 10.8-3.8 10.8-21.9 10.8-21.9l74.7 1.1s1.8 19 17.1 20.9 20.7-15.4 19.1-30.7c-1.6-15.4-9.1-18.7-17.6-20.9 10.5-9.3 8.2-39.5 6.6-45 4 4.9 17.7 6.6 24.1-4.4 6.5-11 1-21.8-8.2-27.4-9.2-5.6-24.9-4.4-34.6 2.2-9.7 6.6 2.1 44.4-6.6 51.6-8.7 7.1-81.8 4.4-92.2 14.3-10.3 9.7-4.6 20.1-4.6 31.1z"/><path class="st0" d="M526.2 605c-12.7-2.7-17.6 13.2-8.8 20.3M480.7 671.4l30.2-1.1M492.2 701c0-14.8 14.3-14.6 18.7-5.9M393.5 709.8c9.3.5 7.6-11.5 1.9-17"/><path class="st7" d="M495.4 693c-2-6.7-12-4.6-14.5.1-.9 1.6-1 4.5-.9 8.2l15.1-.3c.6-3.4.7-6.3.3-8z"/><path class="st8" d="M479.9 701.3c.1 7 .9 17.2-1.4 28.3 8.4-4.8 14.6-19 16.5-28.6l-15.1.3z"/><path class="st0" d="M495.4 693c2 6.7-5.4 30.1-16.8 36.7 3.5-17-.2-31.8 2.3-36.5 2.5-4.8 12.5-6.9 14.5-.2z"/><path class="st7" d="M479.5 693c-2-6.7-12-4.6-14.5.1-.9 1.6-1 4.5-.9 8.2l15.1-.3c.6-3.4.7-6.3.3-8z"/><path class="st8" d="M464.1 701.3c.1 7 .9 17.2-1.4 28.3 8.4-4.8 14.6-19 16.5-28.6l-15.1.3z"/><path class="st0" d="M479.5 693c2 6.7-5.4 30.1-16.8 36.7 3.5-17-.2-31.8 2.3-36.5 2.5-4.8 12.5-6.9 14.5-.2z"/><path class="st7" d="M463.6 693c-2-6.7-12-4.6-14.5.1-.9 1.6-1 4.5-.9 8.2l15.1-.3c.6-3.4.7-6.3.3-8z"/><path class="st8" d="M448.2 701.3c.1 7 .9 17.2-1.4 28.3 8.4-4.8 14.6-19 16.5-28.6l-15.1.3z"/><path class="st0" d="M463.6 693c2 6.7-5.4 30.1-16.8 36.7 3.5-17-.2-31.8 2.3-36.5 2.5-4.8 12.5-6.9 14.5-.2z"/><path class="st7" d="M447.7 693c-2-6.7-12-4.6-14.5.1-.9 1.6-1 4.5-.9 8.2l15.1-.3c.6-3.4.7-6.3.3-8z"/><path class="st8" d="M432.3 701.3c.1 7 .9 17.2-1.4 28.3 8.4-4.8 14.6-19 16.5-28.6l-15.1.3z"/><path class="st0" d="M447.7 693c2 6.7-5.4 30.1-16.8 36.7 3.5-17-.2-31.8 2.3-36.5 2.5-4.8 12.5-6.9 14.5-.2z"/><path class="st7" d="M431.8 693c-2-6.7-12-4.6-14.5.1-.9 1.6-1 4.5-.9 8.2l15.1-.3c.6-3.4.8-6.3.3-8z"/><path class="st8" d="M416.4 701.3c.1 7 .9 17.2-1.4 28.3 8.4-4.8 14.6-19 16.5-28.6l-15.1.3z"/><path class="st0" d="M431.8 693c2 6.7-5.4 30.1-16.8 36.7 3.5-17-.2-31.8 2.3-36.5 2.5-4.8 12.5-6.9 14.5-.2z"/><circle class="st5" cx="442.3" cy="628.6" r="35.1"/><circle class="st8" cx="442.3" cy="628.6" r="18.7"/><path class="st7" d="M423.6 628.6c0-10.3 8.3-18.7 18.7-18.7 10.3 0 18.7 8.3 18.7 18.7h-37.4z"/><circle class="st0" cx="442.3" cy="628.6" r="18.7"/><circle class="st1" cx="442.3" cy="628.6" r="7.8"/><path class="st1" d="m314.3 786-23.9 4.4c-.3 11.9.9 23.3 2.4 32.5l22.1-13.4c-.7-6.7-1-14.8-.6-23.5zM315 809.5l-22.1 13.4c2.2 13.1 4.8 22.2 4.3 22.8h11l10.2-20.9c-1.4-3-2.6-8.4-3.4-15.3z"/><path class="st1" d="M319.9 827.7c-.5-.4-1.1-1.3-1.6-2.7l-10.2 20.9h27.7l2.4-15.1c-9.5-.5-16.1-1.4-18.3-3.1zM317.2 764.5l-21.2-5c-.4 1.3-.9 2.5-1.3 4-2.7 8.9-4 18.1-4.3 27l23.9-4.4c.4-7 1.2-14.3 2.9-21.6z"/><path class="st1" d="m325.2 741.5-13.8-7.2c-6.1 6.3-11.5 14.4-15.4 25.2l21.2 5c1.7-7.9 4.3-15.8 8-23z"/><path class="st1" d="M348.7 715.8c-11.2 1.9-25.6 6.5-37.3 18.5l13.8 7.2c5.3-10.3 12.8-19.4 23.5-25.7zM418 828.4l1.8 17.4h25.3l-1-19.1c-8.3.6-17.1 1.1-26.1 1.7zM395.9 829.6l.5 16.2h23.4l-1.8-17.4c-7.3.4-14.8.9-22.1 1.2z"/><path class="st1" d="m444 826.7 1 19.1h18.2l-2.1-20.3c-5.2.4-10.9.8-17.1 1.2zM487.4 823.5c-6 .5-15.1 1.2-26.1 2.1l2.1 20.3h24.8c-.1-.1 0-9.3-.8-22.4zM376.2 830.4v15.4h20.1l-.5-16.2c-6.6.3-13.2.7-19.6.8zM338.1 830.6l-2.4 15.1h16.9l1-14.9c-5.7.1-10.8 0-15.5-.2z"/><path class="st1" d="m353.6 830.9-1 14.9h23.7v-15.4c-8.1.3-15.8.4-22.7.5z"/><path class="st4" d="M260.7 104c-26.3 21.4-29.1 72.2-42.8 107.5s-69.1 77.7-70.8 82.9 19.2 12.1 31.8 4.9 79.6-89.4 79.6-89.4 30.7-87.2 32.9-86.7 53.2-26.9 53.2-26.9l-8.8-20.9c0 .1-48.8 7.2-75.1 28.6z"/><path class="st3" d="M332.7 88.4c-3.7 1.6-38 9-56.6 36.4-18.7 27.4-14 48.3-27 82.4-19.1 50.6-46 103.6-44.3 108.5 2.7 8.2 18.7 7.1 28.5 1.1 9.9-6 63.1-149.2 63.1-149.2s8.8-29.1 11-30.2 43.3-24.7 43.3-24.7l-18-24.3z"/><path class="st4" d="M355 99.6c-1.6 1.1-33.8 10.5-54.9 35.2-21.1 24.7-58.2 188.1-53 200.7 5.2 12.6 25.6 3.6 32.9-7.5 7.4-11.2 26.2-149.5 35.9-169.8s41.2-39.2 41.2-39.2L355 99.6z"/><path class="st2" d="M335.8 87s-55.4 25.8-75.2 25.8-32.4-6.5-36.2-20.4c-3.8-13.9-5.5-32.8 20.3-39.9S282.6 70 276 83.2c24.1-5.8 59.8-18.7 59.8-18.7V87z"/><path class="st0" d="M249.7 73.3c-7.7 18 18.7 25.8 26.3 9.9"/><path class="st2" d="M406.8 69.1s-74.1-25.6-80.7-17.6c-6.6 8 10.4 77.6 18 80.8 7.6 3.2 40.5-14 62.7-27.3V69.1z"/><ellipse class="st5" cx="423.9" cy="89.5" rx="38.4" ry="33.7"/><path class="st0" d="m423.9 68.9 30.9.8M423.9 84.8l37.9.1M426.9 107.3l32.4-6.6"/></svg>