<svg version="1.1" id="Calque_1" xmlns="http://www.w3.org/2000/svg" x="0" y="0" viewBox="0 0 900 900" style="enable-background:new 0 0 900 900" xml:space="preserve"><style>.st0,.st1,.st2,.st3,.st4,.st5,.st6{fill:#383838;stroke:#000;stroke-width:4.4608;stroke-linecap:round;stroke-linejoin:round}.st1,.st2,.st3,.st4,.st5,.st6{fill:#fff}.st2,.st3,.st4,.st5,.st6{fill:red}.st3,.st4,.st5,.st6{fill:#006cb5}.st4,.st5,.st6{fill:none}.st5,.st6{fill:#ffce00}.st6{fill:#00527f}.st7{fill:#fff}</style><path class="st0" d="m477.3 164.9 5.4 129.5 52.6 53.7 32-23.3 15.1-52.1L554.8 160z"/><path class="st1" d="m541.8 621.7-8.7 61.8 53.1 85.6L782.4 729 636.1 289.5l-61.8.6-19.5 59.6-4.7 75.9 4.7 188.5zM289.8 757s15.9-10.8 9.8-27.8.4-17.7.4-17.7l16.3-17.3-12.3-16.7h-48.8l-17.3 39.1-9 36.1 60.9 4.3z"/><path class="st2" d="M241.8 714.4c1.1 4.3 53.8 16.3 62.9 14.8 3.6-4-1.8-18.8-1.8-18.8l-48.8-10.1s-13.4 9.7-12.3 14.1z"/><path class="st3" d="M162.3 707.9s-36.1 2.9-41.2 5.1c-5.1 2.2-5.8 10.8 5.4 15.5.4 5.4-.7 11.6 6.9 14.5 1.8 4.3 6.5 9.4 12.3 9.4 1.8 5.1 6.9 6.1 11.6 4.3 1.8 4.3 8.7 4.7 10.5 4 1.8-.7 7.2-5.8 7.2-5.8s39.4-1.4 57.4-8.3c14.8-13.7 13-31.8 13-31.8l-12.6-11.2-70.5 4.3z"/><path class="st1" d="M163 751.2c-2.5-5.1-9-6.1-9-6.1s-2.2-6.9-9.4-8c-2.9-10.5-11.6-11.2-11.6-11.2s3.6-9-3.7-14.7c-3.9.6-7 1.1-8.2 1.7-5.1 2.2-5.8 10.8 5.4 15.5.4 5.4-.7 11.6 6.9 14.5 1.8 4.3 6.5 9.4 12.3 9.4 1.8 5.1 6.9 6.1 11.6 4.3 1.8 4.3 8.7 4.7 10.5 4 1.8-.7 7.2-5.8 7.2-5.8s-7.6-6.1-12-3.6z"/><path class="st4" d="M168.4 745.1c-1.1 2.2-8.7 10.1-11.2 11.6M162.7 738.6c-4.7 2.2-11.9 8.7-17 13.7M133.4 742.9c6.1-3.3 21.3-12.3 25.3-13.4M126.5 728.5c5.1-2.9 24.2-9.8 30.3-8.3"/><path class="st1" d="M290.9 755.9c-14.5-10.1-108.4-11.2-110.6-10.5-2.2.7-6.1 9-5.1 11.6.6 1.5 36.2 1.7 67.2 4.3 22.6 1.9 42.9 6.6 44.4 6.1 3.7-1 7-7.9 4.1-11.5z"/><path class="st5" d="m218.7 701.4-64.7-8.7s17.7 42.6 21 43.7c3.3 1.1 56.4-16.3 61.1-22 4.6-5.8-17.4-13-17.4-13z"/><path class="st2" d="m218.7 701.4-39.3-5.3 15.9 35.1c16.7-5.3 37.9-13.3 40.8-16.8 4.6-5.8-17.4-13-17.4-13zM229.5 676.1s-3.6 7.6-.4 14.5 23.5 11.9 23.5 11.9 11.7-4.3 13.7-21c-2.2-6.9-12.6-14.5-12.6-14.5l-24.2 9.1z"/><path class="st2" d="M216.5 702.8c1.1-8.3 9.8-12.6 12.6-12.3 10.1 8.7 22 8.7 23.5 11.9 1.4 3.3-3.3 11.2-10.5 13.7-7.2 2.6-26.7-5-25.6-13.3z"/><path class="st4" d="m163.4 711.9 57.1-1.9M245.4 675.7c-3.3 10.8-1.6 19.7-1.6 19.7"/><path class="st1" d="M272.1 507c-20.2-4.7-29.6 18.8-24.9 39.4 4.7 20.6-16.6 97.9-16.6 97.9s-7.2.4-11.6 8.7c-4.3 8.3 4 23.4 11.9 24.5 8 1.1 17.3-1.4 17.3-1.4s5.8 7.6 12.3 9c6.5 1.4 9.8-4.7 14.8-3.6 5.1 1.1 8.3 9 15.5 10.1 7.2 1.1 17.3-9.1 16.6-14.2-.7-5-4-6.1-4.7-11.5-.7-5.4 2.2-35 2.2-35l-6.1-67.9 2.5-13.7-11.8-33.3s2.9-4.3-17.4-9z"/><path class="st4" d="M255.1 666.7s-2.2 8-6.9 9.4M286.9 523.3s-12.6-2.2-18.4 1.4c-5.8 3.6-4.3 29.6-4.3 29.6s5.8 80.2 6.1 86.3c.4 6.1-1.4 21.7.4 27.4 1.8 5.8 18.4 7.2 20.6-2.5 2-8.9 1.8-28.5 1.8-28.5s-3.6-69.7-4.3-76.6c-.7-6.9 1.1-14.1 1.1-14.1l-3-23z"/><path class="st2" d="M274.7 531.9c-4.3 2.5-4 15.5-3.3 24.2.7 8.7 5.1 75.5 5.8 83.8.7 8.3-.4 18.1-.7 22.4-.4 4.3 8.3 5.8 9.8 1.4 1.4-4.3 2.2-22 1.8-26.4-.4-4.3-4-68.3-4.3-78.4-.4-10.1 2.9-28.2 2.9-28.2s-7.7-1.3-12 1.2z"/><circle class="st4" cx="237.6" cy="658.7" r="10.1"/><path class="st2" d="M241.6 659.1c0 2.2-1.8 4-4 4s-4-1.8-4-4 1.8-4 4-4 4 1.8 4 4z"/><path class="st1" d="M392.4 520c-21.3 1.4-61.4-11.2-61.4-11.2s15.2-7.2 14.5-16.6c-.7-9.4-5.8-16.6-19.9-20.6-14.1-4-23.9.4-28.5 8.3-4.7 8-.7 21 9 21.7-13-4-18.1-9-24.6-8.3-6.5.7-9.4 13.7-9.4 13.7s10.5 11.2 12.3 14.5-2.5 25.3.4 27.8 15.9.4 22.8 2.5c6.9 2.2 23.1 15.2 30 19.5s39 13 39 13l17.3-13.4c0 .1 19.8-52.3-1.5-50.9z"/><circle class="st2" cx="320.1" cy="489.2" r="5.1"/><path class="st4" d="M391.3 537.7c-65.8-10.1-82-26-88.5-25.6-6.5.4-9.8 24.6-.4 29.6s81.6 24.2 81.6 24.2l8.7-9.4c.1 0 64.4-8.7-1.4-18.8z"/><path class="st2" d="M307.5 522.2c-3.3 1.1-6.9 10.1 1.4 14.8 8.3 4.7 78 22.4 78 22.4s73.7-5.4 3.3-14.5c-70.4-9-79.4-23.8-82.7-22.7z"/><path class="st4" d="M333.3 492.7c-1.5 5.4-8.5 8.2-15.9 6.2-7.3-2-12-7.9-10.6-13.3 1.5-5.4 8.5-8.2 15.9-6.2 7.3 2 12.1 7.9 10.6 13.3z"/><path class="st1" d="M494.1 699.8s9.2-4.3 30.9-2.7c10.3-5.4 19-11.4 26.6-14.1 7.6-2.7 31.4 1.6 34.1 4.9 2.7 3.3-1.1 53.1-1.1 53.1l-62.3-.5-39-3.8 10.8-36.9z"/><path class="st3" d="M537.5 806s-1.1 10.8.5 15.2c1.6 4.3 20 27.6 23.9 28.7 3.8 1.1 10.3-4.3 7-10.3 6.5-1.1 8.7-7.6 6.5-11.4 7-2.2 8.7-7 7-12.5 4.9-1.6 6.5-7.6 2.2-10.8 3.8-4.3 2.7-9.2 2.7-11.9s-2.7-2.2-3.8-4.3c-1.1-2.2-1.6-8.1-1.6-8.1l.5-40.6s-17.3-16.3-46.6-8.1C527.7 735.5 525 761 525 761l12.5 45z"/><path class="st1" d="M572.2 824.9c-6 1.6-7.6 7.6-8.7 11.4-4.9 1.6-6 5.4-6.9 9 2.4 2.5 4.3 4.2 5.3 4.5 3.8 1.1 10.3-4.3 7-10.3 6.5-1.1 8.7-7.6 6.5-11.4 7-2.2 8.7-7 7-12.5 4.9-1.6 6.5-7.6 2.2-10.8 3.8-4.3 2.7-9.2 2.7-11.9s-2.7-2.2-3.8-4.3c-3.8 6-5.4 9.8-3.8 13.5-2.2 3.8-2.2 10.8-2.2 10.8s-4.8 4.4-5.3 12z"/><path class="st4" d="M584.6 804.9c-4.9-2.7-8.1-5.4-10.8-8.1M571.1 808.1c2.7 2.2 8.1 6 11.4 7.6M559.7 816.8c2.2 2.2 10.8 8.1 15.7 11.4M568.9 839.6c-11.4-6.5-17.3-17.9-19.5-21.7"/><path class="st2" d="M494.7 725.8s13-7 26 3.8c2.7 2.2.5 18.4.5 18.4s-13.7 5.4-19.3 1.1c-5.6-4.4-7.2-23.3-7.2-23.3z"/><path class="st4" d="m501.2 738.8 21.6-2.2"/><path class="st5" d="M520.7 749.6s-7.6 60.1-4.9 62.3c2.7 2.2 40.1-2.2 43.4-6 3.3-3.8-23.3-62.9-23.3-62.9l-15.2 6.6z"/><path class="st2" d="M520.7 749.6s-3.3 26.4-4.8 44.9c10.2 1.7 29.7-2.6 39.2-5.2-6.8-18.7-19.2-46.2-19.2-46.2l-15.2 6.5z"/><path class="st4" d="m539.1 810.3-10.3-60.2"/><path class="st2" d="M522.3 683c-2.7 2.7-3.3 48.8-2.7 53.1.5 4.3 16.3 4.3 17.3 0 1.1-4.3 4.9-47.7 3.3-52.6-1.6-4.9-15.2-3.3-17.9-.5z"/><path class="st2" d="M514.2 748.5c-.5-3.3 3.8-13.5 6-14.1 2.2-.6 16.8-.5 16.8 1.6 2.7 9.8-2.2 14.6-5.4 17.3-3.3 2.8-16.9-1.5-17.4-4.8z"/><path class="st1" d="M581.4 686.2c-1.1 1.1.7 27.1-1.1 50.4-1.6 21-7 39.6-7 41.2 0 3.3 6.5 8.7 10.8 5.4s13.5-84.5 10.3-94.3c-2.7-5.9-10.9-4.9-13-2.7zM312.2 692s-7.6 3.3-10.1 12.3-4 43.7 39 50.6c28.9 1.4 125.4-5.4 125.4-5.4s-12.3 10.1-5.8 27.5c4.3 7.2 15.5 10.8 27.1 6.9 11.6-4 16.3-12.6 15.9-22.4-.4-9.8-11.6-13.4-11.6-13.4s7.6 2.5 9.8 1.1c2.2-1.4 3.6-6.1 2.2-10.8-1.4-4.7-9.8-13-10.1-20.2-.4-7.2 2.9-14.1 2.9-17.7s-3.3-10.5-9.8-11.9c-6.5-1.4-13.4 3.3-43.7 6.5-30.3 3.3-50.6 1.8-50.6 1.8l-80.6-4.9z"/><path class="st1" d="M323.2 696.7s-5.2 4.1-6.7 10-4.1 30.4 31.9 30.8c36 .4 117.3-3.3 125.4-5.6 8.2-2.2 16-21.9-2.2-24.1-18.2-2.2-92.8 2.6-92.8 2.6l-39-12.3-16.6-1.4z"/><path class="st2" d="M331.4 699.9c-8 3.3-11.6 22 2.9 27.8 14.5 5.8 126.8.7 132.2-2.2 5.4-2.9 8.3-10.1 0-11.6-8.3-1.4-88.5 3.6-88.5 3.6s-38.7-20.8-46.6-17.6z"/><ellipse class="st4" cx="480.9" cy="765.1" rx="13" ry="11"/><circle class="st2" cx="481.3" cy="765.7" r="4.3"/><path class="st1" d="M400.4 622.6s-92.1 54.9-94.3 59.3c-2.2 4.3 1.1 11.2 3.6 12.6 2.5 1.4 11.6 1.8 14.5 2.9 2.9 1.1 5.8 5.1 7.2 8 1.4 2.9.7 13 5.4 14.8 4.7 1.8 9.8 2.5 12.6 0-.4 5.4 2.5 13.7 9.8 15.2 7.2 1.4 22.8-1.8 23.5-17.3 0-7.2-5.1-11.2-5.1-11.2l64.7-40.1s-15.2-36.5-16.6-37.6-25.3-6.6-25.3-6.6z"/><path class="st4" d="M353.8 711.1c-2.2 1.4-4.3 5.8-4.3 9M412.7 632.4s-61.4 39.3-68.3 45.1c-6.9 5.8-.4 22.8 14.1 21 6.5-2.5 73.7-47.7 73.7-47.7l-19.5-18.4z"/><path class="st2" d="M419.5 634.9s-66.2 41.5-67.9 44.1c-3.3 4.7 1.1 11.9 6.9 10.5 5.8-1.4 69-43.7 69-43.7l-8-10.9z"/><path class="st4" d="M375.2 714.3c2.1 4.2-.2 9.5-5.1 11.9-4.9 2.4-10.5 1-12.6-3.2-2.1-4.2.2-9.5 5.1-11.9 5-2.4 10.6-.9 12.6 3.2z"/><path class="st2" d="M369.5 719.1c0 1.7-1.4 3.1-3.1 3.1-1.7 0-3.1-1.4-3.1-3.1 0-1.7 1.4-3.1 3.1-3.1s3.1 1.3 3.1 3.1z"/><path class="st3" d="M298 142.1c-.5-10.8-14.1-67.2-17.3-69.4-3.3-2.2-7-1.6-7.6 1.6-3.8-4.1-11.9-4.1-14.6.2-2.7-3.3-12.6 1.1-11.6 8-5.1-1.8-9 3.3-9 7 0 3.8 5.8 16.4 5.8 16.4s-4.7 2.5-5.2 5.2 4.3 34.1 13 47.2c8.7 13 21.7 17.3 21.7 17.3l25.5-3.3c-.2.2-.2-19.3-.7-30.2z"/><path class="st1" d="M258 81.8c3.3 2.9 13 1.4 14.8.4 2.5 1.8 7.6 2.2 11.5-.1-1.6-5.2-3-8.8-3.7-9.3-3.3-2.2-8-2.5-8.5.7-3.8-4.1-11-3.3-13.7 1.1-2.7-3.3-12.6 1.1-11.6 8-5.1-1.8-9 3.3-9 7 0 1 .4 2.5.9 4.2 4.1 2.2 12.1-1.8 9.6-7.2 4.7-.5 7.9-1.9 9.7-4.8z"/><path class="st4" d="M264.9 121.2c-2.7-3.3-14.1-26-18.1-38.7M272.9 115.8c-3.8-4.1-16.6-31.4-14.5-41.2M283 112.2c-4.3-5.4-10.1-30-10.8-38.7"/><path class="st1" d="M243.6 106s-4.7 2.5-5.2 5.2c-.2 1 .3 6 1.5 12.5 5.1.3 10.2-4.7 9.5-6.9-.8-2.1-5.8-10.8-5.8-10.8z"/><path class="st4" d="M249.4 116.9c6.9 12.6 8.7 20.6 8.7 20.6"/><path class="st1" d="m390.6 211-19.5-15.2-48.8-55.8s-4.3-10.8-16.3-8.7c-11.9 2.2-9.8 18.4-10.3 20.6-.5 2.2-7.6 1.1-10.3 5.4-2.7 4.3-.5 13-2.7 13.5s-16.8.5-20.6 9.2c-6.5 24.4 6 35.2 21.7 35.8 15.7.5 20.6-17.9 20.6-17.9l74.2 60.1 23.9-14.6-11.9-32.4z"/><path class="st4" d="m390.6 211-19.5-15.2-41.5-47.5s-25 11.9-23.1 26c1.8 14.1 70.1 61.1 70.1 61.1l18.8-2.9 2.9-15.5-7.7-6z"/><path class="st2" d="m398.2 216.9-7.6-6-19.5-15.2-36.3-41.6s-19.3 11.4-19.3 20.4c0 9 76.6 62.9 76.6 62.9l11.9-8.7-5.8-11.8z"/><circle class="st4" cx="280.3" cy="194.7" r="11"/><circle class="st2" cx="280.3" cy="194.3" r="4.1"/><path class="st3" d="M239.2 382s-13.4 8.7-19.9 19.2c-6.5 10.5-9.4 25.6-10.1 30.3-.5 3 4.1 5.6 7.6 5.1 2-.3 3.2-5.1 5.4-6.5-2.2 6.9-9.8 30.3-10.1 35.8-.4 5.4 5.1 7.9 8.3 6.5 1.8 5.4 5.4 7.2 10.1 5.4 1.4 3.3 4.7 5.4 7.6 5.1 2.9-.4 4.7-5.4 4.7-5.4s4.3 5.1 9 .7c4.7-4.3 13.7-60 13.7-60l-7.2-35.4-14.8-5.1-4.3 4.3z"/><path class="st4" d="m222.3 430.1 13.1-22.9"/><path class="st1" d="M213.1 460.7c-.5 2.2-.9 4-1 5.1-.4 5.4 5.1 7.9 8.3 6.5 1.8 5.4 5.4 7.2 10.1 5.4 1.4 3.3 4.7 5.4 7.6 5.1 2.9-.4 4.7-5.4 4.7-5.4s4.3 5.1 9 .7c.9-.8 2-3.7 3.2-7.7-15.4 2.3-30.6-3.1-41.9-9.7z"/><path class="st4" d="m242.9 477.4 9.4-37.6M242.5 438l-11.9 39.8M233.1 434.8l-12.6 37.5"/><path class="st1" d="M210.3 426.1c-.5 2.3-.8 4.2-1 5.4-.5 3 4.1 5.6 7.6 5.1 1.4-.2 2.3-2.3 3.5-4.2.5-1-5-5.9-10.1-6.3zM376.5 580c-96.8-17.7-177-49.9-177-49.9s-9 12.6-12.6 121c49.5-10.5 199.8-17 199.8-17l24.9-11.9c0 .1-31.1-28.8-35.1-42.2z"/><path class="st4" d="M371.5 588.7c-84.5-14.5-163.7-44.4-163.7-44.4s-10.8 48-9.4 95.4c81.3-9.8 200.1-11.6 200.1-11.6M651.8 560.5l5.4 32.5 33.1-4.9c-8.1-30.9-38.5-27.6-38.5-27.6zM665.9 639.6l-5.4-32 34.7-4.9c-.6 34.2-29.3 36.9-29.3 36.9zM643.1 611.4l3.8 35.8c-27.6 4.3-34.7-33.1-34.7-33.1l30.9-2.7zM613.3 597.9l28.2-3.3-3.3-29.3c.1.1-31.9-2.1-24.9 32.6zM509.3 287.9l8.5-22.2M513.6 290.1l9.2-17.5M520.7 290.6l6.1-14.1M525 292.2l6-10.3M528.3 297.7l9.7-13.6M529.9 304.7l13-16.8M531.5 315.5l13-21.1M532.1 327.5l21.1-33.1"/><path class="st0" d="M417.7 89.4c3.3-1.4 9-9.4 11.6-9.8 2.5-.4 12.3 4 18.1 3.3 5.8-.7 43.4 10.8 43.4 10.8l11.2 2.2 50.9 21 30 46.2-41.2 25.3-123.9-51.3c-.1 0-3.3-46.3-.1-47.7z"/><path class="st4" d="m437.2 135.1-13-28.2M447.5 137.8l-22.2-55.3M455.1 140l-15.7-46.1M461.1 140.5l-3.8-18.9M468.7 143.2l-1.1-18.4M476.8 146.5V121M484.4 147.6l2.7-32.6M492 150.8l5.4-35.2M500.1 153l5.4-27.7M508.2 155.7l7.1-21.7M516.3 159.5l8.2-23.9M522.8 162.7l18.5-31.4M529.3 166l17.4-24.9M536.9 170.3l14.1-15.7"/><path class="st0" d="M493.2 101.3c0 15.4-12.6 27.8-28.2 27.8s-28.2-12.4-28.2-27.8c0-5.8 1.4-18.1 8-21.5 10.9-5.7 35.8-3.3 40.1-.5 4.3 2.7 8.3 6.7 8.3 22z"/><path class="st4" d="M452.4 78.2s-3.3 24.6 2.2 30c5.4 5.4 18.4 5.1 22 .4 3.6-4.7 4.7-30 4.7-30"/><path class="st4" d="M444.8 79.8s-3.6 29.4 3.6 35.9 25.3 6.9 31.4 1.4c6.1-5.4 9.9-32 9.9-32"/><path class="st2" d="M483.2 64.7c0 5.6-3.1 10.4-7.6 12.9-1.3.7-1.5 23-2.9 26.2-1.4 3.3-10.8 1.8-11.6-.4-.7-2.2.8-25.2-1.7-27.2a14.8 14.8 0 0 1-5.6-11.6c0-8.1 6.6-14.7 14.7-14.7 8.1.1 14.7 6.7 14.7 14.8z"/><path class="st1" d="M483.2 64.7c0 5.6-3.1 10.4-7.6 12.9-2.6-6.3-13.8-7-16.2-1.4a14.8 14.8 0 0 1-5.6-11.6c0-8.1 6.6-14.7 14.7-14.7 8.1.1 14.7 6.7 14.7 14.8z"/><circle class="st4" cx="468.1" cy="66.1" r="6"/><path class="st0" d="M549.9 120.5c-3.9 13.9-19.1 21.9-34.1 17.7s-24-18.8-20.2-32.7c1.4-5.2 5.9-16 13.1-17.4 11.9-2.3 35.3 6.6 38.8 10.2 3.4 3.6 6.2 8.2 2.4 22.2z"/><path class="st2" d="M549.4 84.6c-1.4 5-5.6 8.6-10.6 9.7-1.4.3-7.2 20.4-9.4 23-2.2 2.6-10.9-1.2-11-3.4-.1-2.2 7.1-22.7 5.2-25.1-2.6-3.4-3.7-7.7-2.5-12 2-7.4 10.1-11.6 17.9-9.4 7.7 2.1 12.4 9.8 10.4 17.2z"/><path class="st1" d="M549.4 84.6c-1.4 5-5.6 8.6-10.6 9.7-.9-6.4-11.5-10.1-15.3-5.5-2.6-3.4-3.7-7.7-2.5-12 2-7.4 10.1-11.6 17.9-9.4 7.8 2.1 12.5 9.8 10.5 17.2z"/><path class="st4" d="M540.2 83.4c-.8 3-4.1 4.7-7.2 3.8-3.2-.9-5.1-4-4.3-7 .8-3 4.1-4.7 7.2-3.8 3.3.9 5.2 4 4.3 7zM516.7 89s-9.7 21-5.8 27.4c3.9 6.4 16.5 9.5 21.1 6.2 4.7-3.3 12-26 12-26"/><path class="st4" d="M508.6 88.1s-10.9 25.8-5.5 33.6c5.3 7.8 22.7 13 29.9 9.7 7.3-3.3 17.6-26.4 17.6-26.4"/><path class="st0" d="M591.5 154.8c-8 11.4-24.4 13.8-36.7 5.2-12.3-8.6-15.9-24.8-7.9-36.3 3-4.3 10.5-12.7 17.4-11.6 11.6 1.7 30 17.3 32 21.7 2.1 4.4 3.2 9.6-4.8 21z"/><path class="st2" d="M602.5 122c-2.9 4.1-7.8 6.1-12.7 5.4-1.4-.2-13.1 16.3-15.9 17.9-2.8 1.6-9.5-4.6-9-6.6.6-2 13.7-18.4 12.7-21.2-1.3-3.9-.9-8.2 1.6-11.7 4.2-6.1 12.8-7.3 19.3-2.9 6.5 4.5 8.3 13.1 4 19.1z"/><path class="st1" d="M602.5 122c-2.9 4.1-7.8 6.1-12.7 5.4 1.2-6.1-7.3-12.8-12.2-9.9-1.3-3.9-.9-8.2 1.6-11.7 4.2-6.1 12.8-7.3 19.3-2.9 6.5 4.5 8.3 13.1 4 19.1z"/><path class="st4" d="M594.6 118c-1.7 2.5-5.2 3-7.8 1.2-2.6-1.8-3.3-5.3-1.6-7.7 1.7-2.5 5.2-3 7.8-1.2 2.6 1.8 3.3 5.3 1.6 7.7zM571.2 115.8s-15.4 15.9-13.9 22.9c1.5 7 12 13.9 17.3 12.4 5.3-1.5 19.3-19.8 19.3-19.8"/><path class="st4" d="M564.3 112.1s-18.1 20-15.8 28.8c2.3 8.8 16.5 19 24.1 18.4 7.7-.7 24.4-18.4 24.4-18.4"/><path class="st1" d="M383.4 412c-12.6 7.2 1.8 39 3.3 41.2-2.2 1.1-6.9 2.5-8.3 7.2s2.5 13 12.6 12.6c-4.3 5.8 1.4 14.5 9 10.5-4.7 5.4 3.4 16 6.9 17 6.5 1.8 11.2-3.3 10.5-7.2 8.7 5.8 18.4 21 18.4 21l51.7-26.7 45.9-36.5-.4-41.9-28.9-3.6-93.2-4.3c0-.1-15.9 4.6-27.5 10.7z"/><path class="st4" d="m391 473.1 4.7-2.6M403.3 480.3s-1.8 2.2-3.3 3.3M409.4 489.3c1.1-2.2 7.9.4 7.9 4M386.6 453.2c2.5 3.6 5.8 8.7 1.1 10.5"/><path class="st2" d="M405.4 433s0 14.1 6.1 25.3c6.1 11.2 32.9 23.1 34.3 47.3 1.4 22.9 62.1-27.5 62.1-27.5l27.1-31.8-1.8-41.2-44.8 15.2s-54.6-5.4-55.6-5.4c-1.1 0-24.2 4.3-24.2 4.3l-3.2 13.8z"/><path class="st4" d="M397.1 434.4s-1.1 10.5 3.6 22.4c4 10.2 28.5 30.3 32.5 37.2 4 6.9 5.1 17 5.1 17"/><path class="st1" d="M445.2 513.2s4.7-21.7 15.9-31.4c11.2-9.8 23.9-8 32.1-13.4 8.3-5.4 8-11.2 8-11.2l30.3-13 6.9-46.6 5.8-9s14.1 34.3 16.6 52.7 7.2 33.2 7.2 33.2l-9.8 17.7-95.3 27.8-17.7-6.8z"/><path class="st4" d="M458.9 511s.4-15.9 8-22.8 30-10.5 34.7-15.5c4.7-5.1 5.4-13.4 5.4-13.4"/><path class="st1" d="M486 504.5s-14.1 11.6-40.1 1.1c-8 9.8-56.4 7.9-56.4 7.9s11.9 53.1-39.4 93.2c87.8 16.6 98.3 82.4 99 86 15.2-1.1 103-54.6 95-88.1 13.4-18.8 65-45.2 65-45.2l5.4-33.6-31.4-33.6-45.5.4-51.6 11.9z"/><path class="st6" d="M445.9 505.6c-8 9.8-56.4 7.9-56.4 7.9s11.9 53.1-39.4 93.2c87.8 16.6 98.3 82.4 99 86 6.8-.5 28.3-11.6 49.2-26.7-24.3-53.5-59-79-59-79s20.7-50.9 6.6-81.4z"/><path class="st2" d="M438.2 509.8c-16.1 5-48.7 3.7-48.7 3.7s11.9 53.1-39.4 93.2c87.8 16.6 98.3 82.4 99 86 5.9-.4 23.1-8.9 41.2-21.1-20.1-49.9-63.4-84.6-63.4-84.6s27.1-45.5 11.3-77.2z"/><path class="st1" d="M424.2 512.4c-16 1.8-34.6 1.1-34.6 1.1s11.9 53.1-39.4 93.2c87.8 16.6 98.3 82.4 99 86 4.5-.3 15.2-5.2 28-12.7-9-51.2-68.1-89.7-68.1-89.7s26.5-47.7 15.1-77.9z"/><path class="st4" d="m391.2 518.8 24.9-1.1M417.2 523.1l-25.5 1.1M417.2 529.6l-26 .5M416.6 535.6l-24.9.5M415.6 540.4l-25.5 2.2M415 546.4l-25.1 2.5M413.7 552.5l-26.9 2.6M412.7 558.3l-28.6 3.3M409.6 564.3l-27.7 3.2M408 571.3l-29.8 3.3M404 578.2l-28.5 3.2M393.1 584.3l-22.7 4M391.3 590.8l-27.8 5.1M390.6 597.3l-39 9.2M398.2 600.6l-30.3 9.7M406.9 606l-28.7 7.6M416.6 610.3l-27.6 7.6M423.7 615.8l-26 6.5M426.9 621.2l-23.3 6.5M432.9 625l-20.2 7.4M439.4 629.8l-22.2 7.6M442.6 634.2l-21.6 7M445.4 639.6l-17.9 6.1M448.6 644.5l-16.4 6.3M454.2 650.3l-19 7M457.5 655.5l-19.7 7.4M459.4 660.7l-18.4 7.1M461.1 665.6l-16.3 8.1M463.6 670.7l-17.7 9.7M467 674.8l-19.3 10.7M468.1 679.7l-17.5 11.2"/><path class="st1" d="M389.2 339.8c-18.8 1.1-97.9 25.6-115.6 27.8-17.7 2.2-24.2-1.4-28.5-1.4-4.3 0-11.9 8.7-5.8 15.9 2.2.7 7.6.7 11.2 3.3 6.9 4.3 3.3 27.8 7.6 32.1 4.3 4.3 11.2 0 15.2-2.9-5.8 2.5-12.3 22.8 2.5 30s35.4-.7 40.5-12.6c5.1-11.9-4.7-20.6-4.7-20.6s55.6-14.5 80.9-10.8c25.3 3.6 24.2 2.9 24.2 2.9s-8.7-64.8-27.5-63.7z"/><path class="st4" d="M372.2 358.9s-88.1 17.7-97.9 21.3c-9.8 3.6-9 21.3 3.3 23.1 8.7 0 93.9-17.3 93.9-17.3l.7-27.1z"/><path class="st2" d="M366.1 365.8s-82.7 16.6-85.6 19.2c-2.9 2.5-4.3 11.2.7 11.6 5.1.4 84.5-15.9 84.5-15.9l.4-14.9z"/><ellipse transform="scale(-1) rotate(82.247 487.825 -334.846)" class="st4" cx="292.4" cy="425.9" rx="12.3" ry="14.1"/><circle class="st2" cx="292" cy="426.8" r="5.1"/><circle class="st5" cx="378" cy="373.5" r="16.4"/><path class="st5" d="M420.2 416.9c0 10.7-8.7 19.3-19.3 19.3s-19.3-8.7-19.3-19.3c0-10.7 8.7-19.3 19.3-19.3s19.3 8.6 19.3 19.3zM468.2 451.3c0 9.9-8 18-18 18-9.9 0-18-8-18-18 0-9.9 8-18 18-18s18 8.1 18 18zM524.1 445c0 9.7-7.8 17.5-17.5 17.5s-17.5-7.8-17.5-17.5 7.8-17.5 17.5-17.5c9.6 0 17.5 7.9 17.5 17.5z"/><path class="st1" d="M387.7 337.6c-1.8 35.4 10.8 79.1 56.4 96.5 45.5 17.3 82.7-14.5 82.7-14.5l5.4-35-68.6-50.6-45.9-10.8c0-.1-23.1.7-30 14.4z"/><path class="st6" d="M403.6 335.1s-5.4 57.8 46.6 83.1c41.9 16.3 77.3-19.2 77.3-19.2l1.4-23.5-32.9-31.1-43.7-21.3-34 4.3-14.7 7.7z"/><path class="st3" d="M418.8 189.3S434 172 463.2 179c29.3 7 52.6 24.9 47.7 73.7-1.1 8.7-3.3 23.3-7 35.8S492 375.2 492 375.2s-18.4 9.2-36.3 0-9.2-40.6-9.2-40.6l-29.2-68.3 1.5-77z"/><path class="st1" d="M377.1 322.6c-3.3 3.8-.5 16.3 3.3 17.9 3.8 1.6 36.8-7.6 42.8-7.6s15.7 4.9 19.5 5.4c3.8.5 11.9-2.2 12.5-6 .5-3.8-3.3-10.8 3.3-28.7 6.5-17.9 20.6-28.2 20.6-30.3s-10.3-7-13-6.5c-2.7.6-9.2 13-14.6 12.5s-3.3-9.2-3.8-11.9c-.5-2.7-21.1-3.8-21.1-3.8l-3.8 16.8-9.8 24.4c-.2-.1-32.7 14-35.9 17.8z"/><path class="st1" d="M391.2 226.7s-9.2-1.6-13 2.2c-3.8 3.8-6.5 14.1 2.2 19-.5 1.6-4.3 9.8-4.3 9.8l44.4 21.7s12.5-8.1 14.1-27.6c1.1-15.2-9.2-25.5-9.2-25.5l-34.2.4z"/><path class="st5" d="m414.5 226.3-23.3.4s-9.2-1.6-13 2.2-6.5 14.1 2.2 19c-.5 1.6-4.3 9.8-4.3 9.8l36.6 17.8s9.5-3.8 11.1-23.3c1-15.2-9.3-25.9-9.3-25.9z"/><path class="st4" d="M386.8 238.6c7.6 6 1.1 11.4-6.5 9.2"/><circle class="st6" cx="412.6" cy="211.2" r="24.1"/><circle class="st7" cx="402.8" cy="222.1" r="14.4"/><path d="M417.2 222.1c0 2.8-.8 5.4-2.2 7.6l-25.4-13.2c2.2-5.2 7.3-8.8 13.2-8.8 7.9 0 14.4 6.4 14.4 14.4z" style="fill:red"/><circle class="st1" cx="402.5" cy="222.3" r="6"/><circle class="st4" cx="402.8" cy="222.1" r="14.4"/><path class="st2" d="M340.2 283.6c0 11.4 84.5 26 90 25.5 5.4-.5 9.2-10.3 0-15.2 7.6-2.2 8.1-8.7 2.7-13.5-5.4-5-92.7-8.2-92.7 3.2z"/><path class="st1" d="m370 266.8 47.2 20.6s6-4.9 6-9.8-10.8-10.3-15.2-5.4c.5-8.7-10.8-11.9-14.1-7.6-3.3-9.2-13.5-10.3-17.9-7-4.3 3.2-6 9.2-6 9.2z"/><path class="st4" d="m403.1 279.8 4.9-7.6M388.4 273.8l5.5-9.2"/><path class="st1" d="M361.9 312.8s1.6 6 7 9.8c5.4 3.8 13.5-.5 16.8-7 6.5 6 14.6 1.6 17.9-3.8 6.5 2.2 13.5 0 14.6-3.3 1.1-3.3-2.2-9.8-2.2-9.8l-54.1 14.1z"/><path class="st4" d="m385.7 315.5-1.6-8.1M403.6 311.8l-1.6-9.3"/><path class="st0" d="M550.1 347s4.9 6.9 14.3 18.8 5.8 39 19.9 61.1c6.9 11.6 12.6 17 9.8 19.5-2.9 2.5-11.6.7-24.2-7.6-19.7-14.1-23.9-41.2-26.4-54.9s-7.6-24.2-7.6-24.2l-13-9.8-14.1 7.2 41.3-10.1z"/><path class="st4" d="M560.4 365c2.9 5.4 3.1 18.8 5.8 30 5.7 23.7 14.1 25.6 14.1 25.6"/><path class="st4" d="M550.1 361.6c6.9 10.3 4.7 28.2 13.9 48.8 13.5 23.9 22.8 20.6 22.8 20.6"/><path class="st4" d="M542.9 361.1c7.2 8.1 4.9 40.6 19.5 60.7 14.6 20 32 21.1 32 21.1"/><path class="st0" d="M510.2 366.8s15.2 11.9 16.3 23.1-2.5 53.8.4 67.2c2.9 13.4 13.4 19.5 15.2 19.2 1.8-.4 0-9-.4-20.6-.4-11.6 4.3-58.2 1.8-71.9-2.5-13.7-7.6-24.2-7.6-24.2l-13-9.8-14.1 7.2 1.4 9.8z"/><path class="st4" d="M525.7 358.9c22.6 25.5 7 78.4 14.5 88.9"/><path class="st4" d="M517.4 362.1c4.4 3 12.3 12.3 13.7 19.9 4 20.2-.8 58.3 2.2 69 3.2 11.2 8 14.6 8 14.6"/><path class="st0" d="M585 309c3.3 2.2 7.6 47.7 5.1 53.5s-36.8 4-43-2.2c-6.1-6.1-9.5-38.7 3-49.5 12.5-10.8 31.6-3.9 34.9-1.8z"/><path class="st2" d="M571.6 326c-7.6 0-14.1 11.2-3.6 17 6.9 3.6 30 6.9 31.8 9.8 1.8 2.9 8 8 15.5 7.6 7.6-.4 14.1-7.6 13.7-13.7-.4-6.1-3.3-13.4-13-15.2-9.8-1.8-13.4 2.2-15.9 3.3-2.5 1-23.8-9.5-28.5-8.8z"/><path class="st1" d="M599.8 352.8c1.8 2.9 8 8 15.5 7.6 7.6-.4 14.1-7.6 13.7-13.7-.4-6.1-3.3-13.4-13-15.2-9.8-1.8-13.4 2.2-15.9 3.3 1.1 4.2.8 14-.3 18z"/><path class="st4" d="M587.1 315.5s-10.5-5.4-26-2.9c-15.5 2.5-12.6 35.8-2.5 42.3s32.1 3.3 32.1 3.3"/><path class="st4" d="M588.2 323.1s-10.5-6.5-22.4-4.7c-11.9 1.8-12.3 24.2-2.9 30 9.4 5.8 27.8 5.1 27.8 5.1M601.2 340.1s11.6-.7 13 1.4c1.4 2.2 1.1 5.8-.7 7.2-1.8 1.4-12.3-1.8-12.3-1.8"/><path class="st1" d="M491.8 310.1s-5.8-3.6-9.8-3.3c-4 .4-6.1 4-6.5 8.7-.4 4.7 2.5 11.2 1.8 16.6-.7 5.4-5.8 8-7.2 13-1.4 5.1 1.8 13.7 8.3 13.4 6.5-.4 6.9-6.5 9-7.6 2.2-1.1 5.1 1.1 5.1 3.3 0 2.2-6.5 6.1-6.9 11.9.4 13 21.3 13.7 26 5.1 3.6-6.9.4-14.1 1.1-16.6.7-2.5 4.7-5.8 4.7-5.8l6.5-21.3-5.1-10.8-27-6.6zM531.9 323.5c5.8-2.9 28.5 4.7 29.3 9 .7 4.3 1.1 11.9-6.9 12.6-1.4 1.8-2.5 6.9-2.5 6.9s4 7.6-3.4 12.3c-6.7 3.3-20.8-3.3-22.6-5.4-1.9-2.2.3-32.5 6.1-35.4z"/><path class="st2" d="M494.3 328.9c-3.3.7-4.3 6.9-2.2 9 2.2 2.2 57.4 15.5 60 15.2 2.5-.4 5.1-7.6 2.9-9.4-2.2-1.8-57.4-15.5-60.7-14.8z"/><circle class="st2" cx="499.4" cy="365.9" r="5.4"/><path class="st2" d="M526.3 354.6c-4 2.2-10.5-.4-10-5.1 0 0-5.1 4.3-4 8.7 1.1 4.3 7.2 8.3 12.3 4 1.8-1.9 2.9-8.2 1.7-7.6z"/><path class="st2" d="M498.3 300c-4.3-.4-10.8 2.9-7.2 10.5 2.5 4.7 21.3 7.6 25.6 11.6 4.3 4 .4 21.3-.4 27.5-.7 6.1 10.5 8.7 12.6 1.8 2.2-6.9 6.1-41.9 2.9-51.3-3.3-9.4-10.5-14.5-21-14.1-10.4.3-14 10-12.5 14z"/><path class="st4" d="M514.9 299.3c5.4 9-11.9 10.5-16.6.7"/><path class="st2" d="M540.7 526.9c6 21.1-.5 124.1-.5 124.1s13 3.3 18.4-3.3c4.3 3.3 16.8 7 19.5-4.9 2.7-11.9-16.3-117.1-16.3-117.1s29.3 85.1 32.5 118.1c22.2 1.1 20.6-13 20.6-13s15.2 12.5 21.1-1.1c-13.5-29.3-46.6-99.7-49.9-107.3-3.3-7.6-14.6-16.8-14.6-16.8s-36.7.2-30.8 21.3z"/><path class="st4" d="M613.3 621.2s1.1 4.9 1.6 9.8M559.7 636.9s.5 7-1.1 10.8"/><path class="st7" d="m627.4 537.2-10.3-33.1-74.8 1.1-40.1 52.6s16.8 65 82.4 41.7c47.7-18.4 42.8-62.3 42.8-62.3zm-53.6 33c-31.4 11.9-44.4-19-44.4-29.8s12.5-28.2 12.5-28.2l37.4-3.8 22.2 21.1c-.1.1 3.7 28.8-27.7 40.7z"/><path class="st4" d="m627.4 537.2-10.3-33.1-74.8 1.1-40.1 52.6s16.8 65 82.4 41.7c47.7-18.4 42.8-62.3 42.8-62.3zm-53.6 33c-31.4 11.9-44.4-19-44.4-29.8s12.5-28.2 12.5-28.2l37.4-3.8 22.2 21.1c-.1.1 3.7 28.8-27.7 40.7z"/><path class="st4" d="M521.2 545.3c4.3 24.4 25.5 43.9 58.5 32.5 33.1-11.4 30.3-47.2 30.3-47.2l-13-16.8"/><path class="st2" d="M494.1 508.5c-12.5 16.8-22.2 78.6-36.3 91 9.2 0 27.6 4.9 29.3-20-.5 28.7 21.7 20.6 21.7 20.6s-5.4-49.3 1.6-66.7c7-17.3 18.4-20.6 18.4-20.6l-7-11.4s-15.2-9.7-27.7 7.1zM612.8 517.1c10.8 9.8 22.2 57.4 26.6 60.1 21.1-9.8 6-34.7 6-34.7s26 20 37.9-1.6c-22.2-11.4-43.9-40.1-58-47.2-14.1-7-32-4.9-32-4.9l-16.8 4.3 13.5 27.6c0 .2 12-13.3 22.8-3.6z"/><path class="st2" d="M484.9 506.8s11.4-18.4 23.9-20c12.5-1.6 17.3 3.8 22.2 2.7 4.9-1.1 2.7 14.1 2.7 14.1s-4.9 6.5-21.7 8.1c-16.8 1.6-27.1-4.9-27.1-4.9zM559.7 478.7s34.1-21.7 47.2.5c-8.7 18.4-40.1 16.3-40.1 16.3l-7.1-16.8z"/><path class="st2" d="M509.8 550.2c-5.4-25.5 9.2-42.3 23.9-46.6 14.6-4.3 11.4 19.5 8.7 25.5-2.8 5.9-14.1 20-32.6 21.1zM566.7 495.5c14.6-7.6 41.7.5 52.6 30.9-22.2 14.6-36.3-6.5-48.8-8.7-12.4-2.2-18.4-14.7-3.8-22.2z"/><path class="st2" d="M529.3 489.5c0 6.5 9.2 36.3 13 39.6 3.8 3.3 28.2-4.3 29.8-11.9s-7.6-35.2-10.8-38.5c-16.2-7.6-32 4.3-32 10.8z"/><path class="st4" d="m550.1 528-14.3-46.6M560.2 525.3l-11.9-47.7"/><path class="st1" d="m612.3 158.9 17.8-42.8 27.1 16.3-23.3 34.7zM646.9 177.4l28.8-29.8 18.9 26.5-36.8 19.5zM416.6 166.3s69.7 16.6 105.1 37.2 81.6 4.3 22.4-30.3C484.9 138.5 426 132.4 426 132.4l-9.4 33.9z"/><path class="st4" d="m426.7 168.2 3.7-8.7M433.6 170.7l3.3-8M453.1 176.1l2.9-7.2M461.8 178.3l3.2-6.9M475.9 183.7l2.9-7.6M483.8 186.6l3.3-8.3M499.4 192l2.5-7.2M504.8 194.5l3.6-7.6M425.7 141.8c76.2 24.2 107.7 38.3 107.7 38.3"/><path class="st1" d="M322.3 143.2c-4.3 5.8-2.2 16.6 6.9 19.5-3.3 14.8 4 19.2 12.6 20.2 1.4 10.8 12.3 13.4 19.9 12.3 3.3 4 13.7 4.7 19.2-.7 7.2 3.6 21.7-1.4 19.5-9.4 8.3 0 14.8-8 13.7-14.8 3.6-.7 8-5.8 5.8-11.2 4.3-1.1 7.2-9 5.1-15.2 4-1.4 5.8-10.5 2.5-14.8 3.6-2.9 5.1-13-1.1-17 2.5-5.4 2.2-15.9-5.1-17.3.4-7.6-3.3-13-11.2-14.5-1.8-8-14.1-10.8-19.5-5.8-4.3-6.9-19.2-6.9-22.8-1.4-8.3-3.3-21.7 3.3-21 12.6-9.8-1.1-17.7 4.3-15.2 13.7-10.1 1.1-13.4 9.8-7.6 18.1-8.9 8-5.6 21-1.7 25.7z"/><path class="st4" d="m322.3 143.2 30-4.3M329.2 162.7s20.6-11.6 26.4-13M341.8 183s17.7-19.2 19.5-24.6M361.7 195.2c2.2-4.3 5.8-32.9 7.2-41.9M380.9 194.5c-1.8-9.4-4-35.8-3.6-40.5M400.4 185.1c-7.2-9-14.8-25.3-15.9-32.1M414.1 170.3c-1.1-.7-18.1-10.8-22-14.8M419.9 159.1c-5.1-3.3-27.8-10.8-29.6-12.3M424.9 143.9c-2.5-.7-31.4-1.8-33.2-4M391.7 132s29.6-4 35.8-2.9M389.2 125.5c3.6-2.9 29.6-13.7 37.2-13.4M387.4 118.7c6.1-8.3 32.1-24.2 34-23.9M380.5 115.8c2.2-10.8 28.5-34.3 29.6-35.4M373.6 114c1.1-13 13.7-36.5 17-39.4M366.1 118.3c-2.2-13.4.4-43.7 1.8-45.2M359.2 123.7S348 94.1 346.9 85.8M359.2 130.9c-12.6-10.5-27.5-31.4-27.5-31.4"/><path class="st4" d="M324.2 117.6s29.3 24.9 39.7 26.4c10.5 1.4 18.8.4 20.2-7.6 1.2-6.4-6.1-13.7-11.2-11.6-5.1 2.2-2.9 9 1.4 10.1"/><path class="st1" d="M527.5 187.7c.7-7.6 5.1-12.6 12.3-12.3.7-7.6 8.7-12.3 14.8-9.8 1.1-6.9 12.6-9 17.7-6.9 3.3-5.1 11.6-5.1 15.2-2.2 4.3-5.1 13.7-3.6 17 .7 3.6-3.6 15.2-2.2 17.7 4 6.1-1.1 14.5 1.8 14.8 8.3 7.2.4 13.7 5.8 13.7 13.7 7.6.7 12.3 9.8 10.8 14.5 6.9 4 6.5 14.1 3.6 20.6 4.3 4.3 3.6 12.6-1.1 17 3.6 5.1 1.1 13.4-3.3 15.2 1.1 5.8-4 14.1-4 14.1s-14.8 12.6-16.3 19.5c-1.4 6.9-5.1 10.8-12.3 9.8-1.4 6.1-7.2 6.9-14.1 5.4-4.7 6.9-10.8 5.4-14.8 4-7.2 6.5-14.8 3.6-17.3 1.4-4.7 3.6-14.8 2.5-18.4-1.8-9.8 2.5-10.8-3.3-12.3-5.4-4.7.7-12.6-3.6-14.5-9.4-8-1.1-14.8-9.8-14.1-13.7-8.3-3.3-9.4-10.8-8.7-14.8-5.8-3.6-3.3-13-1.8-15.2-3.3-5.1-.7-10.5.7-11.6-2.9-4.3-3.6-10.8-.7-13.4-3.3-6.9.7-16.6 5.4-17-.8-7.2 3.9-13.7 10-14.7z"/><path class="st4" d="M629.1 240.4c3.3 1.1 27.1 7.6 31.8 10.1M545.3 227.2l-32.9-7.8M549.4 216.4l-31.6-13.9M554.8 209.1l-27.3-21.4M562.1 201.5l-22.3-26.1M625.5 232.4l38.6 2.9M605.2 263.5l23.1 30.4M599.8 274.9l14.4 24.4M592.2 276.8l7.2 26.5M583.3 276.8l-1.2 27.9M571.9 276l-8.2 26.9M564.3 272.7l-12.9 24.8M556.4 268.1l-19.5 20M550.1 260.5l-27.3 13.9M544.8 253.8l-30.6 5.8M543.7 245.1l-31.3-.7M543.4 235.9l-30.3-3.1M571.6 197.4l-17-31.8M580.6 193.8l-8.3-35M588.7 193.6l-1.2-37M597.4 195.8l7.1-38.5M605.2 197.7l17-36.4M614.7 203.6l22.3-34M622 210.7l28.7-27.4M625.8 216.9l35.8-19.1M626.3 224.8l38.9-6.4M561.9 220.5c-4.3 2.5-6.9 7.2-5.1 12.3-2.5 1.8-2.5 8-.7 11.2-1.4 2.2-.7 7.2 2.2 9.8 0 1.1 2.5 8 9 9.8 3.3 4 10.1 5.1 12.3 4 2.9.7 12.6 1.4 17-3.6s10.5-36.8 14.1-38.3 6.1-11.9 0-13.7c-.4-6.5-7.2-10.1-11.9-7.6-2.5-4.3-12.3-4-14.5 0-4.7-2.9-12.6 1.4-12.6 6.1-3.7-1.9-11.3 3.5-9.8 10z"/><path class="st4" d="M594.7 219.8c0-2.2 7.2-9 15.9-8M588.2 221.6c-2.5-6.1 5.1-14.8 10.5-17.3M583.5 225.2c-4-5.4-2.5-15.9.7-21M592.2 256.3c-3.3 5.8-7.6 8.3-12.6 11.2M585 254.5c0 1.1-9 7.6-17.7 9M580.6 248.7c-1.4 4-9.8 5.4-22.4 5.1M579.6 243.3c-2.9 2.9-12.3 3.3-23.5.7M578.1 238.6c-4.3 2.5-17-1.4-21.3-5.8M579.2 228.5c-4.7-2.9-7.2-9-7.6-18.1M577.4 232.8c-4.7-2.9-9.4-2.9-15.5-12.3"/><path class="st1" d="M603.4 220.2c-29.3-10.8-37.9 29.6-18.1 38.7 19.9 9 130.1 58.9 143.8 59.6 5.8.7 9-1.8 4.7-7.2-4.3-5.5-114.9-85.7-130.4-91.1z"/></svg>