<svg version="1.1" id="Calque_1" xmlns="http://www.w3.org/2000/svg" x="0" y="0" viewBox="0 0 900 900" style="enable-background:new 0 0 900 900" xml:space="preserve"><style>.st0,.st1,.st2,.st3,.st4,.st5,.st6{fill:#fff;stroke:#000;stroke-width:4.3614;stroke-linecap:round;stroke-linejoin:round}.st1,.st2,.st3,.st4,.st5,.st6{fill:red}.st2,.st3,.st4,.st5,.st6{fill:#ff7300}.st3,.st4,.st5,.st6{fill:none}.st4,.st5,.st6{fill:#ffce00}.st5,.st6{fill:#0062ff}.st6{fill:#075900}.st9{fill:#ff7300}.st10{fill:red}</style><path class="st0" d="M192.4 784.2c5.3-10.7 21.3-45.8 21.3-45.8l37 9.3s-3.9 40.1-6 52.9c-2.2 12.8 1.7 43.3-2.5 45.1-4.3 1.7-17.4 2.5-20.6 0-3.2-2.5 6.4-36.5 4.3-37.3-3.5-1.2-9.3 32.7-11.7 35.1-2.5 2.5-20.9-3.9-21.3-7.4-.3-3.6 13.1-32.7 10.7-34.1-2.5-1.4-11.3 28.8-16.7 29.9s-15.3-5.3-15.3-9.9c-.1-4.8 15.5-27.1 20.8-37.8z"/><path class="st1" d="M244.7 800.5c-2.2 12.8 1.7 43.3-2.5 45.1-4.3 1.7-17.4 2.5-20.6 0-3.2-2.5 6.4-36.5 4.3-37.3-3.5-1.2-9.3 32.7-11.7 35.1-2.5 2.5-20.9-3.9-21.3-7.4-.3-3.6 13.1-32.7 10.7-34.1-2.5-1.4-11.3 28.8-16.7 29.9s-15.3-5.3-15.3-9.9 15.6-27 20.9-37.6l52.2 16.2zM198.2 772.2c2-4.3 4.1-9 6.3-13.5l43.7 13.5c-.5 4.7-1.1 9.5-1.5 14l-48.5-14z"/><path class="st2" d="M381.2 765.8s39.3 7.2 41 10.4c1.7 3.2-.3 36.5 3.6 42.5s29.9 30.5 32.7 31.3 6-5 .8-10.7c6 3.2 8.5-6.8 5-11.3 5 1.1 6.4-7.9 1.1-12.1 5.2-1.1 5.3-6.8 2.2-10.7-3.2-3.9-12.4-4.6-13.8-7.9-1.4-3.2 3.6-45.5-4.9-48.6-8.5-3.2-57.2-6.1-64-7.4-9.4-1.8-3.7 24.5-3.7 24.5z"/><path class="st0" d="M452.5 845.5c2.9 2.6 5.2 4.3 5.9 4.5 2.8.8 6-5 .8-10.7 6 3.2 8.5-6.8 5-11.3 5 1.1 7.1-6 1.7-10.2 5.2-1.1 4.6-8.6 1.4-12.5-1-1.2-2.6-2.2-4.4-2.9-1 6.5-10.6 43.8-10.4 43.1z"/><path class="st3" d="M447.4 807.3s11.2 12.9 17.7 10.4M464 827.9c-12.1-.3-18.4-10.7-23.8-14.9M435.3 818.6s14.6 17.4 23.8 20.6"/><path class="st2" d="M395.6 747s40.1-1.1 41.9 2.2c1.7 3.2-1.7 32.7 2.2 38.7 3.9 6 29.9 30.5 32.7 31.3s6-5 .8-10.7c6 3.2 8.5-6.8 5-11.3 5 1.1 6.4-7.9 1.1-12.1 5.2-1.1 5.3-6.8 2.2-10.7-3.2-3.9-12.4-4.6-13.8-7.9-1.4-3.2 4.3-42.6-4.3-45.8s-56.2-6.8-64.7-10.2c-8.8-3.6-3.1 36.5-3.1 36.5z"/><path class="st0" d="M466.3 814.6c2.9 2.6 5.2 4.3 5.9 4.5 2.8.8 6-5 .8-10.7 6 3.2 8.5-6.8 5-11.3 5 1.1 6.4-7.9 1.1-12.1 5.2-1.1 5.3-6.8 2.2-10.7-1-1.2-2.6-2.2-4.4-2.9-1.2 6.6-10.8 43.9-10.6 43.2z"/><path class="st3" d="M461.2 776.4s11.3 11 17.8 8.5M477.9 797.1c-12.1-.3-18.4-10.7-23.8-14.9M449.1 787.8s14.6 17.4 23.8 20.6"/><path class="st1" d="M256 615.2s-37-6.4-52.6 7.9c-15.6 14.2-15.6 99.4-.8 114.4 14.9 14.9 107.3 11.3 196 40.9 1.1 0 3.6-71.4 3.6-71.4L256 615.2z"/><path class="st4" d="M307.8 757.1c28.5 4.5 60 10.7 90.9 21 1.1 0 3.6-71.4 3.6-71.4l-87.9-55.1-6.6 105.5z"/><path class="st5" d="M328.1 760.6c22.8 4.1 46.9 9.7 70.7 17.6 1.1 0 3.6-71.4 3.6-71.4l-66.5-41.7c-.2 0-8.5 95.4-7.8 95.5z"/><path class="st0" d="M343.2 763.6c18.1 3.7 36.9 8.5 55.5 14.6 1.1 0 3.6-71.4 3.6-71.4L345.2 683l-2 80.6z"/><path class="st3" d="m356.9 717.8 43.2 3.3M356.1 726.4l44.8 4.2M356.4 734l42.1 4.6M356.6 743.4l42.3 4.3M356.4 751.4l42.5 6.6M356.6 758.9l41.6 9.6"/><path class="st2" d="M626.4 455s9.3.8 14.6-4.3c5.3-5 1.7-141 2.5-144.9.8-7.1 11.7-7.1 12.1-2.2.3 5 5 148.1-6.4 160.2-11.3 12.1-25.2 17.4-25.2 17.4l-14.6-5 8.8-16.7 8.2-4.5z"/><path class="st2" d="M615.4 476.4s24.9-.8 37.3-15.6c12.4-14.9 27-149.2 28.8-156.6 1.7-7.4 13.1-7.1 12.8 1.4-.3 8.5-16.7 153.7-30.2 168.7-13.5 14.9-38.4 28.5-38.4 28.5l-17.4-5.7 1.4-15.6 5.7-5.1z"/><path class="st2" d="M645.6 501.9s19.7-3.7 36.2-37c18.1-36.5 45.8-150.2 46.6-156.6.8-6.3-6.4-7.9-9.3-2.5-2.8 5.3-36.2 130-48 154.1-11.7 24.1-39 37.3-59 33-19.8-4.3 6 13.1 6 13.1l18.1 3.9 9.4-8z"/><path class="st2" d="M611.5 491.3s8.2 8.5 13.8 10.2c5.7 1.7 46.9-7.1 57.1.3 10.2 7.4 14.6 24.1 7.4 36.2-7.1 12.1-24.4 12.1-31.6 9.3-5.3-2.2-11.6-20-2.8-23.1 9.9-3.6 2.5 9.3 9.3 13.2 4.6 2.5 12.1-.3 14.9-6 3.6-7.3 0-14.9-8.2-16.4-12.8-3.6-36.5 2.8-50.4 0s-19.5-12.4-19.5-12.4l10-11.3z"/><path class="st4" d="M583.8 430.1s49.4 6 50.4 10.2c1.1 4.3 1.7 14.6-5 16.4s-24.1 2.8-25.2 2.2c-1.1-.8-37.3-13.2-37.3-13.2l17.1-15.6z"/><path class="st4" d="M580.2 443.3s47.5 9.3 49 13.5c1.4 4.3-4.3 18.1-11.3 18.9-7.1.8-26.6-6.4-26.6-6.4L570.2 458l-1.4-10.7 11.4-4z"/><path class="st4" d="M574.8 453.6s45.1 19.2 45.1 25.5-7.1 17.8-11.7 17.8-31.5-18.9-31.5-18.9l-18.4-13.8 16.5-10.6z"/><path class="st4" d="M566 464.6s42.3 27.7 42.3 32.3-9.3 16-14.6 14.2c-5.3-1.7-33.7-25.5-33.7-25.5l-8.2-16 14.2-5z"/><path class="st4" d="M549.3 480.3s29.1 42.6 34.8 42.6c5.7 0 10.2-7.9 9.6-11.7-.8-3.9-37-38.4-37-38.4l-7.4 7.5z"/><path class="st0" d="M528 467.1s6 17.4 16.7 16.7c10.7-.8 45.5-43.7 41.5-55.7-3.9-12.1-26.3-16.7-26.3-16.7L519 428.1l9 39z"/><path class="st3" d="M534.7 478.9c36.5-21.7 44.7-59.3 44.7-59.3"/><path class="st1" d="m239.6 600.2-.8 106.9c116.8-4.6 180.8 11 208 5 38.7-8.2 22.4-95.8 22.4-95.8l-124-5.3-18.1 1.4-87.5-12.2z"/><path class="st4" d="m339.1 619.9.4 88c-27.9-1.4-61.3-2.2-100.5-.7l.8-106.9 87.7 12.1 11.6 7.5z"/><path class="st5" d="M322.7 707.1c-24.2-.9-52.1-1.1-83.8.1l.8-106.9 83.1 11.4c-.1 0-.7 95.2-.1 95.4z"/><path class="st0" d="M303.2 706.6c-19.4-.3-40.8-.2-64.2.7l.8-106.9 63.2 8.7c-.1-.1 1.3 97.3.2 97.5z"/><path class="st3" d="m240 608.9 43.7 3.8M240.5 618.8l43.7 2.4M240.7 627.6l43.2.4M240.3 635.1l43.6.5M240.3 642.9l43.9-.1M240.3 650l43.9-.4M239.3 656.7l44.9.1M239.3 663.8l45.2.2M239.6 671.7l44.9.1M239.3 679.8l44.6-.6M239.6 687.7l44.9-.4M239.3 694.8l45.5-.4M239.3 700.8l45-.4"/><path class="st1" d="M451.6 277.2c10.7-80.6 64.2-118.6 60-129.6-4.3-11-50 53.8-53.3 49-8.5-10.2 72.1-81.7 57.6-87-14.6-5.3-63.9 73.2-67.8 68.1-14.2-17.4 76-87.7 73.5-98.1-6-15.2-58.2 47-61.1 41.3-5.7-24.5 69.2-58.6 66.1-68.6-3.2-9.9-53.6 14.6-74.6 45.1-18.1 26.4-89.1 89.1-96.9 35.1-7.9-54-67.1-86.1-73.8-78.8-9.6 10.2 66.4 56.5 54 65-5.5 4.4-52.3-52.9-65.3-39.1-8.8 10.7 63.7 47.8 54.6 62.5-3.5 7.2-57.8-47.5-65.6-31.1-7.9 16.7 61.8 16.7 56.5 84.8-.3 5.7-37-37-63.6-23.4-13.8 9.9 62.5 4.6 70.7 74.9 1.1 10.7-35.5-12.8-50.8-1.4-15.3 11.3 32.7-1.1 47.2 39.5 14.6 40.5 45.1 36.2 45.1 36.2l48.3 2.5c-.2 0 28.6 33.7 39.2-46.9z"/><path class="st2" d="M324.5 430.1c-1.1-.3-49-.8-53.3-6.8-4.3-6 5-133.9 5-133.9s9.9-43.3 14.9-51.8 8.5-33.7 5-36.5c-7.4-3.7-13 31.9-14.6 31.9-2.7 0 14.2-63.6 8.5-65.7-5.7-2.2-12 43-13.8 42.6-1.9-.3 7.9-51.1.8-51.8-7.1-.8-7 49.6-8.8 49.4-2-.2-.3-52.9-6.4-52.2-6 .8-.2 51.1-1.7 51.1s-4.3-45.5-9.9-43.3c-5.7 2.2 8.8 85.6 3.2 109-5.7 23.4-3.9 43-3.9 43s-31.6 132-20.9 141.6c10.7 9.6 90.5 20.9 90.5 20.9l5.4-47.5z"/><path class="st2" d="M397.3 175.6s-17.8 40.5-2.2 129.6c15.6 89.1 5.7 58.2 5.7 58.2l6 21.7s-34.8 11-35.9 10.7c-1.1-.3-22.7-20.6-22.7-20.6s0-6.4-12.8-6.8c-12.8-.3-47.5 24.1-49.7 16-2.2-8.2 29.1-18.9 31.6-28.5 2.5-9.6-45.1-83.1-28-96.6 17-13.5 65.7 35.1 65.7 35.1-19.2-50 .8-85.9 1.1-89.8.3-3.9-62.5 17.4-62.5 17.4l.8-12.4 70-26.3 23.8-16.4 9.1 8.7z"/><path class="st3" d="m302.1 276.1 21 34.1"/><path class="st0" d="M525.5 281.5 674.1 125 573.4 316.2z"/><path class="st3" d="m538.8 291.1 43.6-52.1"/><path class="st2" d="M590.5 200.6c20.9-10.8 40.9 5.5 39.5 25.5-1.4 20.1-34.8 35-26.6 40.3 3.9 2.5 6.1-7 11.3-3.2 5.3 3.9-3.2 18.1-15.6 15-12.4-3.1-7.4-17.6-7.4-17.6s-7.4 8.8-16.4 2.8c-8.8-6-6.5-13.5-6.5-13.5s-13.3 4.3-17-4.3c-3.7-8.5 5.1-21.8 11.9-18.1 6.8 3.7-3.2 12.2.3 12.1 10.2.1 9.1-28.8 26.5-39z"/><path class="st1" d="M629.9 222.1c-1.2-17.1-18-30.1-36.3-22.9-1.1.4-5.2 8.4-1.7 11.2 3.6 2.8 5.7-1.7 8.5.8s-7.4 16.7-1.1 20.3c6.4 3.6 15.3-8.5 18.4-8.2s-.3 6 3.2 6.4c3.6.3 9.1-6.3 9-7.6z"/><path class="st3" d="M591.5 260.8c4.6-6.4 5-14.6 5-14.6M579.8 238.5s-8.8 2.8-11.2 11.7"/><path class="st2" d="M270.5 500.5s6.4-23.8 39-24.1c32.7-.3 12.8 58.2 12.8 58.2s-28.2 16.1-47.5-9.3c-5.5-7.7-4.3-24.8-4.3-24.8z"/><path class="st6" d="M274.8 525.3c8.1-1.6 4.1-26-4.3-24.9-5.8 1.1-4.1 7.4-6.5 8.5s-10.4 0-10.1 6.4c.2 6.4 9.8 2.9 11.7 4.3 1.8 1.4 1.1 7.5 9.2 5.7z"/><path class="st2" d="M345.5 610.9c11.7 8.8 112.5 21.7 124 5.3-6.8-3.9-11.6-28.5-11.6-28.5L385 549.1l-54.7 36.2c-.2.1 3.4 16.8 15.2 25.6z"/><path class="st4" d="M309.6 589.7s-14.6-7.9-14.9-13.8c-.3-6 25.5-39.5 25.5-39.5l20.9 12.4-10.2 26.3-21.3 14.6z"/><path class="st4" d="M322.1 613.4s-22-5.7-20.9-13.8 29.1-40.5 29.1-40.5l22.4 7.9-5.3 23.4-25.3 23z"/><path class="st4" d="M347.6 574.4s-26.5 32.1-29.2 38.4c-.1.3-.2.5-.2.8-.3 3.9 14.9 15.3 18.9 14.2 3.9-1.1 34.5-46.6 34.5-46.6l-24-6.8z"/><path class="st2" d="M503.8 740.6c4.3 5.7-1.7 62.8 6 63.9 5.3.3 7.4-4.6 8.8-8.2 1.4-3.6-1.3-25.8 1.7-26.6 5.3-1.4 8.5 24.5 7.4 28.8s-17.8 37.6-8.2 41.5c8.5 2.8 17-39 17-39s-5 36.5 8.2 35.5c7.1-1.4-.8-51.1-.8-51.1 3.1-1.6 9.6 43 23.8 36.2 7.1-3.9-15.4-43-14.9-43.7 1.3-2.2 14.6 35.9 30.2 27.7 2.8-3.6-44-57.6-47.2-75.7-3.2-18.1-24.1-3.6-24.1-3.6s-12.1 8.6-7.9 14.3z"/><path class="st0" d="M481.5 658.6c5.3 5.7 9.3 84.2 17 85.9 7.9 1.7 12.1-4.6 13.1-4.6 1.1 0 9.3 1.7 15.6-5.7 4.3 1.1 14.2-1.4 16-6.4 1.7-5-30.2-54.7-30.5-67.2-.4-12.4-36.6-7.8-31.2-2z"/><path class="st3" d="m507.8 680.2 19.5 53.9M496 682.7l15.7 57.1"/><circle class="st5" cx="500.8" cy="635.7" r="30.3"/><circle cx="509.4" cy="634.6" r="14.1" style="stroke:#000;stroke-width:4.3614;stroke-linecap:round;stroke-linejoin:round"/><path class="st0" d="M505.7 786.3c.3 10 1.3 17.8 4.1 18.2 2.5.2 4.3-.9 5.7-2.3-.4-2.9-3.6-17.3-9.8-15.9zM576.9 806.4c2 .5 4.1.3 6.4-.9.9-1.1-3.2-7.3-9.4-15.8-5.7 4.1 1.4 15 3 16.7zM563.1 821.8c1.5.5 3.2.5 5-.3 2.8-1.5.1-8.4-3.8-16.2-6.3 6.3-1.2 16.5-1.2 16.5zM540.9 835.2c1.1.9 2.5 1.3 4.1 1.2 2.8-.5 2.8-8.8 1.9-18.4 0 0-8.1 1.6-6 17.2zM516.9 834.8c.2 2.6 1.1 4.5 2.9 5.2 3.7 1.2 7.5-6.1 10.5-14.8 0 0-8-2.2-13.4 9.6z"/><path class="st2" d="M536.1 787.3s1.4 4.3.8 13.6M291.1 237.7c5-8.5 8.5-33.7 5-36.5-7.4-3.7-13 31.9-14.6 31.9"/><path class="st0" d="M297 216.3c1-7.3.9-13.8-.9-15.2-3.2-1.6-4.7 10.1-3.9 12.5.8 2.5 4.8 2.7 4.8 2.7zM290.5 181.1c1.1-7.6 1.3-13.1-.3-13.7-2-.8-4 4.4-6 11.3l6.3 2.4zM279.6 170.2c.2-6.9-.4-11.9-2.6-12.1-2.3-.2-3.8 4.7-4.9 11.6l7.5.5zM265.7 169.4c-.8-8.2-1.9-14.4-4-14.2-2.1.2-2.7 6.4-2.8 14.4l6.8-.2zM255.6 178c-1.4-8.6-3.3-15.6-5.6-14.7-1.5.5-1.6 6.7-1 15.9l6.6-1.2z"/><path class="st4" d="M252.1 313.7s-1.7 28-7.4 29.4c-5.7 1.4-14.6-2.8-15.3-7.9-.8-5 17-24.1 17-24.1l5.7 2.6zM269.1 315.6s-3.2 27.4-1.1 30.5c2.2 3.2 16.4.3 18.4-2.2 2.2-2.5-8.5-30.5-8.5-30.5l-8.8 2.2z"/><path class="st5" d="M244.2 314s11.3 0 18.1.8c6.8.8 17.8 2.2 17.8 2.2s0-37.9-.8-41.5c-.8-3.6-22.4-6.4-26.6-5-4.2 1.3-8.5 43.5-8.5 43.5z"/><path class="st2" d="M382.3 177.7s-26.6 11.7-32.5 9.6c-5.9-2.2-1.1-9.6-2.2-12.2-1.1-2.6-6.4-3.2-6.4-5.9 0-2.6 9.9-.8 10.1-2.2.3-2.8-9.6-1.6-11.2-3.2-1.6-1.6 0-7.4 0-7.4s-5.9-3.2-5.3-5.9c.5-2.6 11.2-14.9 16-16.5 4.8-1.6 3.7-18.6 11.2-26.1 7.4-7.4 18.1-6.4 18.1-6.4l15.5 9 5.3 26.6 1.6 15.5-9 8-11.2 17.1z"/><path class="st3" d="M340.2 156.4s5.3.5 9-3.2-.5-5.9-.5-5.9"/><path class="st0" d="M355.5 136.7s6.7-11.2 12.2-10.1c6.7 1.3 9.6 9 14.9 10.1-7.4.5-13.3 7-18.6 7-5.2-.1-8.5-7-8.5-7z"/><path class="st3" d="M365.1 135.1c5 1.6 3.7 7.2 3.7 7.2-1.6.8-3.3 1.3-4.8 1.3-1.7 0-3.2-.7-4.5-1.6.2 0 .6-8.5 5.6-6.9z"/><path class="st2" d="M390.2 177.4s10.2 6.8 19.5-8.5c3.2-6.4-12.1-2.8-11-6.4 1.1-3.6 15.6-13.2 15.6-13.2l-9.9-22.7s-15.6 12.8-13.8 17.8c1.7 5 8.5 1.4 8.8 3.6.3 2.2-14.6 11.7-13.1 20.3.8 4.4 3.9 9.1 3.9 9.1z"/><circle class="st0" cx="384.7" cy="172.6" r="9.3"/><path class="st6" d="M363.8 108.2c-4.3-.2-10.7-12-8.8-14.4 1.9-2.4 28.3-3.1 37.3.5 15.5 6.1 21.8 30.6 21.8 30.6s1.3 7.9-2.6 10.1c-5.5 3.2-14.4 2.5-16.5.8-3.7-2.9 4.6-18.9-7-23.7-11.4-4.7-19.9-3.6-24.2-3.9zM311.1 429.8s-12.4 109.7 25.2 138.5 137.1 39.8 137.1 39.8l-48.6-148.8 3.6-47.5-93.8-2.2-23.5 20.2z"/><path class="st0" d="M311.1 429.8s-12.4 109.7 25.2 138.5 137.1 39.8 137.1 39.8L459 564.3s-86.5-14.4-100-32.8C345.4 513 351.1 410 351.1 410l-16.7-.3-23.3 20.1z"/><path class="st3" d="M339.7 448.4s-4.3 66.4 11.7 88.4 110.1 37.6 110.1 37.6M309.2 471.4l18.9-.4M310.8 479.8l16.2.1M311.4 502.7l17.3-1.5M312.5 512.3l16.2-2.6M318.1 539.2l15.1-7.8M321.6 548.1l16.9-9.8M351.8 577.6l9.3-18.1M358.9 581.2l9.6-18.6M387.4 590.8l4.2-19.2M394.1 592.8l4.3-18.8M416.8 598.2l2.5-18.1M425.3 600.2l1.4-18.7M445.6 603.5l.3-18.8M454.1 604.9v-19.2"/><path class="st2" d="M409.4 188c-3.9-23.1-4.6-82.4.3-82 5 .3 6 27.7 9.9 27.4 3.9-.3 2.2-11.7 1.1-18.1-1.1-6.4-12.4-33.7-5.7-35.7 6.8-1.4 9.9 36 13.5 34.9 3.6-1.1-7.9-46.9-2.2-47.2 8.8-.5 11.3 46.1 11.3 46.1 3.2 0-3.6-47.5 3.2-45.8 6.8 1.7 3.2 46.6 5 46.6 1.7 0 2.2-42.6 8.8-40.1 6.8 2.5-.3 46.1-5.7 56.2-12.8 18.1-17.8 58.2-17.8 58.2L468.4 327l-29.9 14.2-22.7-39c.4-.2-3-94.2-6.4-114.2z"/><path class="st0" d="M449.4 86c1.2-7.3 2.8-12.9 5.3-12 2.3.9 2.9 6.2 2.7 13.5l-8-1.5zM437.9 84.3c-.2-9.5.2-17.4 3.1-16.7 2.5.7 3.6 7.4 4 15.5l-7.1 1.2zM425.4 81.1c-.9-7.7-1.1-13.7 1-13.8 3.1-.2 4.9 5.1 6.3 12.3l-7.3 1.5zM414.3 93.2c-1.7-6.9-2.3-12.9.8-13.7 2.4-.5 4.4 4 6.1 10l-6.9 3.7zM406.5 123.8c.4-10.6 1.5-17.9 3.3-17.8 1.4.1 2.6 2.9 3.7 7.1-.1 0-.2 14.6-7 10.7z"/><path class="st4" d="M407.6 227.1s-2.5 20.3 1.1 21.3c3.6 1.1 13.1-1.1 14.2-6 1.1-5-7.1-20.3-7.1-20.3l-8.2 5zM433.8 222.1s0 20.9 3.9 21.7c3.9.8 15.3-2.5 16-5.3.8-2.8-8.2-18.1-8.2-18.1l-11.7 1.7z"/><path class="st5" d="M409.4 188c-1.7 2.5-3.2 37.9-2.8 39.5.2.8 9.3-3.4 19.2-4.6 9.9-1.3 20.6.2 20.9-1.1.8-2.5-12.4-31.6-14.2-33.7-1.8-2.2-21.3-2.5-23.1-.1z"/><path class="st6" d="M414.8 475.6s45.8 33.4 103.4-4.3S538 349.2 538 349.2l-49.4 15.3-71.4 95.5-2.4 15.6z"/><path d="M414.8 475.6s45.8 33.4 103.4-4.3S538 349.2 538 349.2l-30.1 9.3s29.3 54.6-6.5 87.3c-35.9 32.7-80.2 8.9-80.2 8.9l-3.9 5.2-2.5 15.7z" style="fill:#053300;stroke:#000;stroke-width:4.3614;stroke-linecap:round;stroke-linejoin:round"/><path class="st3" d="m520.2 364.2 20.9-5.7M522.3 372.1l20.8-4.8M526.1 380.1l20-4.2M528.7 387.6l19.2-2.5M528.7 404.1l20.3-.6M529.2 396.1l20.3-1.6M527 412l22.3 1.1M526.2 419.9l21.7 3.6M524.1 427.8l20.6 5.6M521.3 434.8l21.6 8.5M517 441.9l19.5 11.4M510.6 448.4l17.4 12.4M505.8 454.7l15 14.2M499.9 459.5l11.8 15.8M490.3 465.9l7.1 16.8M475.4 469.9l3.2 17.5M481.8 468.2l5.4 17.4M468.3 470.3l2.2 17.7M458.7 469.9l1.4 18.6M423.9 480.3l6.2-14.4"/><path class="st1" d="m356.9 424.5 35.8 16-3.9 13.1-45.1-3.5z"/><path class="st2" d="M375.3 467.4c11-.3 10.2-6 14.9-6 4.6 0 6 15.6 24.5 14.2 18.4-1.4 24.5-20.6 17.4-31.3-12.4-18.9-28-.8-28-.8s-1.7-12.4-6.8-14.6c-5-2.2-7.1-1.7-10.2 0-3.2 1.7 1.7 18.9-1.7 21.7-3.6 2.8-18.1 1.4-18.1 1.4s-3 15.9 8 15.4z"/><path class="st3" d="M406.1 454.7s-5-6.8-2.2-11"/><circle class="st1" cx="388.8" cy="474.2" r="13.8"/><circle class="st0" cx="444.2" cy="482" r="14.6"/><circle class="st0" cx="489.8" cy="479.8" r="14.6"/><circle class="st0" cx="528.1" cy="456.3" r="14.6"/><path class="st0" d="M554.6 400.8c7.7 2.3 12.1 10.4 9.9 18.1-2.3 7.7-10.4 12.1-18.1 9.9-7.7-2.3-12.1-10.4-9.9-18.1 2.3-7.8 10.4-12.2 18.1-9.9z"/><circle class="st0" cx="553.8" cy="373.2" r="14.6"/><path class="st1" d="M458.7 482h-29.1c0-8.1 6.5-14.6 14.6-14.6s14.5 6.6 14.5 14.6zM502.7 473l-25.8 13.4c-3.7-7.2-.9-15.9 6.2-19.6 7.2-3.7 15.9-.9 19.6 6.2zM537.6 445.3l-19.1 22c-6.1-5.2-6.8-14.5-1.5-20.5 5.4-6.1 14.6-6.7 20.6-1.5zM554.6 400.8l-8.2 27.9c-7.7-2.3-12.1-10.4-9.9-18.1 2.3-7.7 10.4-12.1 18.1-9.8zM552.8 358.6l1.9 29c-8.1.5-14.9-5.6-15.5-13.6-.5-7.9 5.5-14.8 13.6-15.4z"/><circle class="st0" cx="443.6" cy="482.3" r="4.8"/><circle class="st0" cx="489.4" cy="480.1" r="4.8"/><circle class="st0" cx="527.9" cy="456.9" r="4.8"/><circle class="st0" cx="550.6" cy="415.3" r="4.8"/><circle class="st0" cx="554" cy="373.8" r="4.8"/><path class="st0" d="M410.3 305.6s-17.1-3.6-20.6-2.4c-3.5 1.1-2.5 17.1-2.5 17.1l21 5.2 2.1-19.9z"/><path class="st0" d="M403.7 320.5s-13.8-1.1-16.7-.3-2.2 16.4-2.2 16.4l20.3 2.8-1.4-18.9z"/><path class="st0" d="M401.9 336.1s-16.4-3.6-17.8-.8c-1.4 2.8-2.8 12.8-1.1 14.9 1.7 2.2 18.9 1.4 18.9 1.4v-15.5z"/><path class="st0" d="M398.4 348.9s-15.3-1.4-16.4-.3c-1.1 1.1-5 14.9-1.4 16.7s17.8 1.4 17.8 1.4v-17.8z"/><path class="st0" d="M401.6 379.8s-10.7-5.7-11-14.9c-.3-9.3 15.3-50 16.7-56.2 1.4-6-3.2-13.8.3-17.4 3.6-3.6 6.4-3.2 9.3-2.5 7.1 1.4 35.5 44.4 40.5 46.6 5 2.2 31.3 26.3 35.5 29.1 4.3 2.8 18.9 9.6 9.3 55.1-2.8 10.7-22 30.9-49 30.5-27-.3-36.2-20.6-36.2-20.6l-15.4-49.7z"/><path class="st3" d="M407.2 308.8s.8 7.9 7.9 4.6c7.1-3.2.3-11.7.3-11.7"/><circle class="st9" cx="410.1" cy="355.7" r="9.8"/><circle class="st9" cx="420.3" cy="325.4" r="10.2"/><circle class="st9" cx="458" cy="395.3" r="11.6"/><circle class="st9" cx="487.9" cy="395.5" r="10.9"/><circle class="st9" cx="465.6" cy="434.7" r="8.8"/><circle class="st9" cx="432.2" cy="413.9" r="10"/><path class="st5" d="M449.9 329.4s1.4-11.7 17.8-11.7 27.7 14.2 28.5 31.9-15.7 31.7-29.2 32.4c-13.5.8-17-14.9-17-14.9v-37.6h-.1z"/><circle class="st0" cx="451.1" cy="347.3" r="20.4"/><path class="st10" d="M465.6 361.7c-3.7 3.7-8.8 6-14.4 6-8.2 0-15.3-4.8-18.5-11.8 0 0 9.8-4.6 16.7-3.1 6.9 1.8 16.2 8.9 16.2 8.9z"/><circle class="st0" cx="450.1" cy="347.3" r="8"/><path class="st3" d="M471.6 347.3c0 11.2-9.2 20.4-20.4 20.4s-20.4-9.2-20.4-20.4M432.9 373s17.8 15.3 18.1 27.7c.3 12.4-7.9 23.8-4.3 25.5 3.6 1.7 32.7-6 27.4-31.3"/><path class="st0" d="M335.2 308s10.2-7.9 13.2-5.3c2.8 2.5 4.6 15.6 4.6 15.6l-15.3 7.1-2.5-17.4z"/><path class="st0" d="M335.2 324.1s14.6-10.7 17.8-6.8c3.2 3.9 5.7 17 5.7 17l-5 6.8-14.9 1.1-3.2-17.4"/><path class="st0" d="M335.5 343.2s19.2-14.6 22.4-12.4 5 16 5 16l-16.7 11.7-10.7-15.3z"/><path class="st0" d="M347.9 354.2s11.7-9.9 14.6-8.5c2.8 1.4 6.8 12.4 4.3 15.3-2.5 2.8-15.3 7.4-15.3 7.4l-3.6-14.2z"/><path class="st0" d="M362.2 379.4c20.6 9.3 53.6-8.2 60.4-5.3s9.9 18.1-.8 19.5c12.1 0 9.6 19.8-2.8 18.9 11.7 1.1 9.3 19.5-5.7 17.4-8.8-1.7-11.7-8.5-16.7-11.7-5-3.2-30.9.3-48-7.4-7.7-3.6-10.7-25-15.6-47.2-5.9-26.7-13-55-12.8-57.9.3-5.3 6.4-12.1 13.1-5.3 6.9 6.5 16 71.5 28.9 79z"/><path class="st10" d="M415.7 403c0-17-2.6-28-2.6-28 4.4-1.1 7.7-1.6 9.4-1 6.8 2.8 9.9 18.1-.8 19.5 12.1 0 9.6 19.8-2.8 18.9 11.7 1.1 9.3 19.5-5.7 17.4.1 0 2.5-9.7 2.5-26.8z"/><path class="st9" d="M348.5 382.8c-4.3 2.2-10.8.5-11.1.9-.8-3.7-1.7-7.6-2.5-11.8-.8-4.3 4.4-8.9 9.7-8.4 6.2.8 12.9 15.1 3.9 19.3zM328.6 343.9c-1.3-5.7-2.6-11.1-3.7-16-1.4-11.2 15-9.4 16.1-5.6 1 3.8 2.1 8 3.2 12.2.9 3.7-9.3 11.4-15.6 9.4z"/><circle class="st9" cx="381.6" cy="398" r="10.2"/><path class="st3" d="M348.7 410.6c-7.7-3.6-10.7-25-15.6-47.2-5.9-26.7-13-55-12.8-57.9M333.4 300.2c6.8 6.8 16 71.7 28.8 79.2M362.2 379.4c20.6 9.3 53.6-8.2 60.4-5.3s9.9 18.1-.8 19.5c12.1 0 9.6 19.8-2.8 18.9 11.7 1.1 9.3 19.5-5.7 17.4-8.8-1.7-11.7-8.5-16.7-11.7M405.2 410l13.8 2.5M406.9 393.3l14.9.3"/><ellipse class="st0" cx="332.7" cy="427.9" rx="26" ry="30"/><path class="st3" d="M317.1 405s17.4 5 14.2 22c-3.2 16.6-21.3 13.8-21.3 13.8"/><path class="st3" d="M322.1 454.7s16 .8 23.4-21.3-8.8-34.8-8.8-34.8"/></svg>