<svg version="1.1" id="Calque_1" xmlns="http://www.w3.org/2000/svg" x="0" y="0" viewBox="0 0 900 900" style="enable-background:new 0 0 900 900" xml:space="preserve"><style>.st0,.st1,.st2,.st3,.st4,.st5{fill:red;stroke:#000;stroke-width:3.2568;stroke-linecap:round;stroke-linejoin:round;stroke-miterlimit:10}.st1,.st2,.st3,.st4,.st5{fill:#ff7300}.st2,.st3,.st4,.st5{fill:#fff}.st3,.st4,.st5{fill:none}.st4,.st5{fill:#561400}.st5{fill:#0086f4}.st6{fill:#ffce00}.st6,.st7{stroke:#000;stroke-width:3.2568;stroke-linecap:round;stroke-linejoin:round;stroke-miterlimit:10}.st8{fill:#fff}.st9{fill:#ff7300}.st10{fill:#009b24;stroke:#000;stroke-width:3.2568;stroke-linecap:round;stroke-linejoin:round;stroke-miterlimit:10}.st11{fill:red}.st12{fill:#ffce00}.st13{fill:#0086f4}</style><g id="XMLID_1_"><g id="XMLID_3_"><path id="XMLID_926_" class="st0" d="m487.5 316.3 1.7 36.3 24.7 9.2 9.4-10-5.2-37.4z"/><g id="XMLID_925_"><g id="XMLID_711_"><path id="XMLID_712_" class="st1" d="M647.2 801.7c-1-17.9-3.7-37.1-10.3-50.4-16-32-32.4-55.9-32.4-55.9l-155-27.8-91.5-11.4-79.2-12.2-36.6 23.3s-16.9 2.9-37.2 33.8c-7.3 11.1-14 26.5-19.5 41.8 19.4 8.5 81.5 28.8 208.4 42.1 128 13.7 222.2 16.3 253.3 16.7z"/><path id="XMLID_713_" class="st2" d="M647.5 812.1c-.1-3.4-.2-6.8-.3-10.4-31-.4-125.3-3-253.5-16.5-126.9-13.4-189-33.7-208.4-42.1-1.3 3.5-2.5 6.8-3.6 10.2 25.6 13.9 100.7 31.5 236.2 43.2 117.2 10.1 198.9 14.3 229.6 15.6z"/><path id="XMLID_714_" class="st2" d="M178 764.8c-5.6 18.1-9 32.2-9 32.2s95.3 22.3 220.7 32c125.4 9.8 256.7 21 256.7 21s1.3-13 1.3-30.3c-30.6-2.1-122.8-8.3-210-13.8-99.6-6.5-221.9-27.8-259.7-41.1z"/><path id="XMLID_715_" class="st2" d="M647.5 812.1c-30.8-1.4-112.5-5.5-229.6-15.6-135.5-11.7-210.6-29.2-236.2-43.2-1.3 3.9-2.6 7.8-3.7 11.4 37.8 13.4 160.1 34.6 259.7 41 87.2 5.6 179.2 11.8 210 13.8-.1-2.3-.1-4.8-.2-7.4z"/></g><path id="XMLID_182_" class="st3" d="m174.7 788.4 9.9 12"/><path id="XMLID_183_" class="st3" d="m178.5 781.9 17.3 20.9"/><path id="XMLID_886_" class="st3" d="m185.2 779.4 24 25.8"/><path id="XMLID_893_" class="st3" d="m194.6 781.9 22.6 24.8"/><path id="XMLID_894_" class="st3" d="m205.9 781.9 21.3 25.4"/><path id="XMLID_895_" class="st3" d="m216.5 786.5 21.4 23.8"/><path id="XMLID_896_" class="st3" d="m227.2 786.6 23.7 25.5"/><path id="XMLID_897_" class="st3" d="m239.1 788.4 24.4 26"/><path id="XMLID_898_" class="st3" d="m251.4 792.2 22.2 22.2"/><path id="XMLID_899_" class="st3" d="m263.5 794.6 21.4 22.9"/><path id="XMLID_900_" class="st3" d="m275 796.9 21.4 20.9"/><path id="XMLID_901_" class="st3" d="m290.3 799.4 20.9 21.6"/><path id="XMLID_902_" class="st3" d="m302.6 800.4 26.3 22.8"/><path id="XMLID_903_" class="st3" d="m318 801.7 29.7 23.1"/><path id="XMLID_904_" class="st3" d="m334.4 802.8 29.8 23.1"/><path id="XMLID_905_" class="st3" d="m354.7 806 32.5 22.8"/><path id="XMLID_906_" class="st3" d="m373.6 810.2 25.3 19.5"/><path id="XMLID_907_" class="st3" d="m389.6 810.2 25.9 20.8"/><path id="XMLID_908_" class="st3" d="m403.5 810.2 25.2 21.9"/><path id="XMLID_909_" class="st3" d="m420.2 812.7 21.8 20.4"/><path id="XMLID_910_" class="st3" d="m434.3 813.3 21.9 21"/><path id="XMLID_911_" class="st3" d="m448 814.4 24.1 19.9"/><path id="XMLID_912_" class="st3" d="m460.9 814.4 26.8 22.4"/><path id="XMLID_913_" class="st3" d="m477.3 817.4 27.1 20.8"/><path id="XMLID_914_" class="st3" d="m494.1 817.8 25 20.4"/><path id="XMLID_915_" class="st3" d="m508.1 817.4 26.4 23.2"/><path id="XMLID_916_" class="st3" d="m522.8 818.7 22.5 21.9"/><path id="XMLID_917_" class="st3" d="m535.1 819.6 23.9 23"/><path id="XMLID_918_" class="st3" d="m551.4 823.7 20.5 18.9"/><path id="XMLID_919_" class="st3" d="m562.7 823.2 23.1 21.7"/><path id="XMLID_920_" class="st3" d="m576.9 824.3 26.4 22"/><path id="XMLID_921_" class="st3" d="m590.2 822.9 29.5 23.4"/><path id="XMLID_922_" class="st3" d="m602.3 823.2 33.5 25.8"/><path id="XMLID_923_" class="st3" d="m617.1 823.7 29.2 26.3"/><path id="XMLID_924_" class="st3" d="m633.5 824.8 12.8 13.4"/></g><g id="XMLID_885_"><g id="XMLID_884_"><g id="XMLID_266_"><path id="XMLID_267_" class="st1" d="M207.3 626.7c-16.4-1.8-31.2-3.5-41-4.6-3 13.8-5.6 25.6-7.5 34.2 15.3.5 29.3 1.5 42 2.7l6.5-32.3z"/><path id="XMLID_268_" class="st1" d="M200.7 659c14.1 1.3 26.6 2.9 37.1 4.7l7.3-32.7c-12.5-1.4-25.6-2.8-37.9-4.2l-6.5 32.2z"/><path id="XMLID_269_" class="st1" d="M237.9 663.6c13.2 2.1 23.6 4.1 30.7 5.8l20.6-33.5c-11.2-1.3-27.1-3-44.1-5l-7.2 32.7z"/></g><g id="XMLID_208_"><path id="XMLID_263_" class="st2" d="m198.4 670.6 2.4-11.5c-3.3-.3-6.5-.5-9.9-.9l-2.4 11.3c3.3.3 6.6.6 9.9 1.1z"/><path id="XMLID_272_" class="st2" d="M158.8 656.3c-1 4.6-1.7 8.3-2.3 10.5 4.1.2 8.4.5 12.5.9l2.4-10.9c-4.3-.1-8.4-.4-12.6-.5z"/><path id="XMLID_275_" class="st2" d="M178.3 668.5c3.4.3 6.7.7 10.1 1l2.4-11.3c-3.4-.2-6.7-.5-10.2-.8l-2.3 11.1z"/><path id="XMLID_276_" class="st2" d="m171.2 656.9-2.4 10.9c3.1.2 6.3.5 9.4.8l2.3-11.1c-3-.3-6.1-.5-9.3-.6z"/><path id="XMLID_277_" class="st2" d="M172.3 594.5c-2.2 9.7-4.2 19.1-6.2 27.7 3.5.4 7.6.9 12.3 1.3l6-27.7-12.1-1.3z"/><path id="XMLID_278_" class="st2" d="m207.3 626.7 5.6-27.8-9.8-1.1-5.6 27.8c3.2.3 6.4.8 9.8 1.1z"/><path id="XMLID_279_" class="st2" d="m192.8 596.7-8.5-1-6 27.7c2.8.3 5.8.7 8.8 1l5.7-27.7z"/><path id="XMLID_280_" class="st2" d="m197.5 625.6 5.8-27.7-10.3-1.1-5.8 27.7c3.4.3 6.7.7 10.3 1.1z"/></g><g id="XMLID_309_"><path id="XMLID_310_" class="st4" d="M253.3 570.5c-2.4-.2-4.8-.4-7.1-.7l-2.1 8.5c2.9.3 6 .7 9.1.9h.1l2.1-8.5c-.6-.1-1.3-.1-2.1-.2z"/><path id="XMLID_311_" class="st4" d="m212.3 564.7-2.1 8.6c2.6.4 5.4 1 8.4 1.4l2.1-8.5c-3-.5-5.8-1-8.4-1.5z"/><path id="XMLID_312_" class="st4" d="m237.6 568.7-2.1 8.5c2.8.3 5.8.7 8.7 1l2.1-8.5c-3-.2-5.9-.7-8.7-1z"/><path id="XMLID_313_" class="st4" d="m255.5 570.7-2.1 8.5c2.9.2 5.8.4 8.5.7l2.1-8.6c-2.8-.2-5.6-.4-8.5-.6z"/><path id="XMLID_314_" class="st4" d="m220.5 566.2-2.1 8.5c2.7.4 5.4.9 8.4 1.3l2.1-8.5c-2.8-.4-5.7-.8-8.4-1.3z"/><path id="XMLID_315_" class="st4" d="m228.9 567.5-2.1 8.5c2.8.4 5.6.8 8.7 1.2l2.1-8.5c-3-.3-5.9-.7-8.7-1.2z"/><path id="XMLID_316_" class="st4" d="m264.1 571.3-2.1 8.6c2.9.2 5.8.4 8.6.5l2.1-8.6c-2.9-.1-5.7-.3-8.6-.5z"/><path id="XMLID_317_" class="st4" d="M270.6 580.3c2.9.1 5.8.3 8.6.4l2.1-8.6c-2.8-.1-5.6-.2-8.6-.3l-2.1 8.5z"/><path id="XMLID_318_" class="st4" d="M280.8 538.1c2.9.1 5.8.2 8.6.3l2.1-8.6c-2.8-.1-5.6-.2-8.6-.3l-2.1 8.6z"/><path id="XMLID_319_" class="st4" d="M276.9 554.4c2.9.1 5.8.3 8.6.3l2.1-8.7c-2.8-.1-5.6-.2-8.6-.4l-2.1 8.8z"/><path id="XMLID_320_" class="st4" d="M274.7 563.1c2.9.1 5.8.2 8.6.3l2.1-8.7c-2.8-.1-5.6-.2-8.6-.3l-2.1 8.7z"/><path id="XMLID_321_" class="st4" d="M272.6 571.8c2.9.1 5.8.2 8.6.3l2.1-8.7c-2.8-.1-5.6-.2-8.6-.3l-2.1 8.7z"/><path id="XMLID_322_" class="st4" d="M278.9 545.6c2.9.1 5.8.3 8.6.4l1.8-7.5c-2.8-.1-5.6-.2-8.6-.3l-1.8 7.4z"/><path id="XMLID_323_" class="st4" d="M224.1 515.3c-2.9-.5-5.6-1.1-8.3-1.6l-1.7 7.3c2.6.5 5.3 1.1 8.3 1.6l1.7-7.3z"/><path id="XMLID_324_" class="st4" d="M225.8 508c-2.9-.5-5.6-1.1-8.3-1.6l-1.7 7.3c2.6.5 5.4 1.1 8.3 1.6l1.7-7.3z"/><path id="XMLID_325_" class="st4" d="m234.2 509.4 1.7-7.3c-2.9-.4-5.6-.9-8.4-1.4l-1.7 7.3c2.8.6 5.6 1 8.4 1.4z"/><path id="XMLID_326_" class="st4" d="M227.7 500.8c-2.9-.5-5.6-1-8.4-1.5l-1.7 7.3c2.6.5 5.4 1.1 8.3 1.6l1.8-7.4z"/><path id="XMLID_327_" class="st4" d="m242.7 510.8 1.7-7.4c-2.9-.4-5.6-.8-8.4-1.2l-1.7 7.3c2.6.4 5.4.8 8.4 1.3z"/><path id="XMLID_328_" class="st4" d="m203.9 563-2.1 8.7c2.6.5 5.3 1.1 8.3 1.6l2.1-8.6c-2.9-.5-5.7-1.2-8.3-1.7z"/><path id="XMLID_329_" class="st4" d="m251.3 511.8 1.7-7.4c-2.9-.3-5.9-.7-8.7-1.1l-1.7 7.4c2.8.4 5.7.8 8.7 1.1z"/><path id="XMLID_330_" class="st4" d="M214.3 556c-2.9-.5-5.6-1.1-8.3-1.7l-2 8.7c2.6.5 5.3 1.1 8.3 1.7l2-8.7z"/><path id="XMLID_331_" class="st4" d="M216.5 547.1c-2.9-.5-5.6-1.2-8.3-1.7l-2.2 8.9c2.6.5 5.3 1.1 8.3 1.7l2.2-8.9z"/><path id="XMLID_332_" class="st4" d="M222.4 522.6c-2.9-.5-5.6-1.1-8.3-1.6l-2 8.3c2.6.5 5.3 1.1 8.3 1.7l2-8.4z"/><path id="XMLID_333_" class="st4" d="M220.4 530.9c-2.9-.5-5.6-1.1-8.3-1.7l-1.7 7.2c2.6.5 5.3 1.2 8.3 1.7l1.7-7.2z"/><path id="XMLID_334_" class="st4" d="M218.6 538.2c-2.9-.5-5.6-1.2-8.3-1.7l-2.2 8.9c2.6.5 5.3 1.2 8.3 1.7l2.2-8.9z"/><path id="XMLID_335_" class="st4" d="M208.3 545.4c-2.9-.7-5.8-1.3-8.3-2l-2.2 8.9c2.5.7 5.3 1.2 8.3 1.8l2.2-8.7z"/><path id="XMLID_336_" class="st4" d="M212.1 529.2c-2.9-.7-5.6-1.3-8.3-1.8l-1.7 7.2c2.5.7 5.2 1.3 8.3 2l1.7-7.4z"/><path id="XMLID_337_" class="st4" d="M210.3 536.5c-2.9-.7-5.8-1.3-8.3-2l-2.2 8.9c2.5.7 5.3 1.3 8.3 2l2.2-8.9z"/><path id="XMLID_338_" class="st4" d="M214.1 521c-2.9-.7-5.6-1.2-8.3-1.8l-2 8.3c2.5.7 5.3 1.3 8.3 1.8l2-8.3z"/><path id="XMLID_339_" class="st4" d="M262 512.9c2.5.2 4.9.4 7.3.5l1.8-7.5c-2.9-.2-6-.4-9.1-.8h-.2l-1.8 7.4c.7.3 1.3.3 2 .4z"/><path id="XMLID_340_" class="st4" d="M215.9 513.8c-2.9-.7-5.6-1.2-8.3-1.8l-1.7 7.2c2.5.7 5.3 1.2 8.3 1.8l1.7-7.2z"/><path id="XMLID_341_" class="st4" d="M217.6 506.5c-2.9-.5-5.6-1.2-8.3-1.7l-1.7 7.2c2.6.5 5.3 1.2 8.3 1.8l1.7-7.3z"/><path id="XMLID_342_" class="st4" d="m201.9 571.7-1.7 7.3c2.6.4 5.4.9 8.4 1.4l1.7-7.1c-3-.6-5.8-1.1-8.4-1.6z"/><path id="XMLID_343_" class="st4" d="M219.3 499.2c-2.9-.5-5.6-1.2-8.3-1.7l-1.7 7.2c2.6.5 5.3 1.2 8.3 1.7l1.7-7.2z"/><path id="XMLID_344_" class="st4" d="m210.2 573.3-1.7 7.1c2.6.4 5.4.9 8.4 1.3l1.6-6.8c-2.9-.6-5.7-1.2-8.3-1.6z"/><path id="XMLID_345_" class="st4" d="m218.5 574.7-1.6 6.8c2.7.4 5.5.8 8.4 1.2l1.6-6.6c-2.9-.5-5.7-1-8.4-1.4z"/><path id="XMLID_346_" class="st4" d="M203.9 563c-2.9-.7-5.6-1.3-8.3-1.8l-2.1 8.8c2.5.5 5.3 1.2 8.3 1.7l2.1-8.7z"/><path id="XMLID_347_" class="st4" d="M282.8 529.5c2.9.1 5.9.2 8.6.3l1.8-7.6c-2.8-.1-5.6-.2-8.6-.3l-1.8 7.6z"/><path id="XMLID_348_" class="st4" d="m193.6 569.9-1.8 7.6c2.5.4 5.3 1 8.4 1.5l1.7-7.3c-3-.7-5.8-1.2-8.3-1.8z"/><path id="XMLID_349_" class="st4" d="M206.1 554.3c-2.9-.7-5.6-1.3-8.3-1.8l-2.1 8.7c2.5.7 5.3 1.2 8.3 1.8l2.1-8.7z"/><path id="XMLID_350_" class="st4" d="M262 505.3c3 .3 6.1.5 9.1.8l1.8-7.5c-3-.2-6.2-.4-9.3-.8l-1.8 7.5h.2z"/><path id="XMLID_351_" class="st4" d="m296.8 507.2 1.8-7.6c-2.8 0-5.6-.1-8.7-.2l-1.8 7.5c3.1.2 6 .3 8.7.3z"/><path id="XMLID_352_" class="st4" d="m279.7 506.6 1.8-7.5c-2.8-.1-5.6-.3-8.6-.5l-1.8 7.5c2.9.2 5.8.3 8.6.5z"/><path id="XMLID_353_" class="st4" d="m288.3 507 1.8-7.5c-2.8-.1-5.6-.2-8.6-.3l-1.8 7.5c2.9 0 5.7.1 8.6.3z"/><path id="XMLID_354_" class="st4" d="m226.8 576-1.6 6.6c2.8.3 5.6.8 8.7 1.1l1.6-6.5c-2.9-.3-5.9-.8-8.7-1.2z"/><path id="XMLID_355_" class="st4" d="M284.6 522c2.9.1 5.9.2 8.6.3l1.8-7.6c-2.8-.1-5.6-.1-8.6-.2l-1.8 7.5z"/><path id="XMLID_356_" class="st4" d="m227.7 500.8 1.7-7.3c-2.9-.5-5.6-1-8.4-1.5l-1.7 7.3c2.6.5 5.5 1 8.4 1.5z"/><path id="XMLID_357_" class="st4" d="m236.1 502.2 1.7-7.4c-2.9-.4-5.6-.9-8.4-1.3l-1.7 7.3c2.6.5 5.4.9 8.4 1.4z"/><path id="XMLID_358_" class="st4" d="m261.8 505.3 1.8-7.5c-.5 0-1.1-.1-1.6-.1-2.4-.2-4.8-.4-7.2-.8l-1.7 7.4c2.8.5 5.7.7 8.7 1z"/><path id="XMLID_359_" class="st4" d="M221.1 492c-2.9-.5-5.6-1.1-8.3-1.7l-1.7 7.2c2.6.5 5.3 1.2 8.3 1.7l1.7-7.2z"/><path id="XMLID_360_" class="st4" d="m253.1 504.5 1.7-7.4c-2.9-.3-5.9-.7-8.7-1l-1.7 7.4c2.8.2 5.7.6 8.7 1z"/><path id="XMLID_361_" class="st4" d="m244.4 503.4 1.7-7.4c-2.9-.3-5.6-.8-8.4-1.2l-1.7 7.4c2.7.4 5.5.7 8.4 1.2z"/><path id="XMLID_362_" class="st4" d="M286.4 514.4c2.9.1 5.9.2 8.6.2l1.8-7.6c-2.8 0-5.6-.1-8.6-.2l-1.8 7.6z"/><path id="XMLID_363_" class="st4" d="M235.3 541.1c-2.9-.4-5.6-.9-8.4-1.4l-2.2 8.9c2.7.4 5.4.9 8.4 1.4l2.2-8.9z"/><path id="XMLID_364_" class="st4" d="M237 533.8c-2.9-.4-5.6-.9-8.4-1.3l-1.7 7.3c2.7.4 5.4 1 8.4 1.4l1.7-7.4z"/><path id="XMLID_365_" class="st4" d="m224.8 548.6-2.2 8.9c2.7.4 5.4.9 8.4 1.3l2.2-8.9c-2.9-.4-5.7-.8-8.4-1.3z"/><path id="XMLID_366_" class="st4" d="m233.1 549.9-2.2 8.9c2.8.4 5.6.9 8.7 1.2l2.2-8.8c-2.9-.4-5.9-.8-8.7-1.3z"/><path id="XMLID_367_" class="st4" d="M240.8 518c-2.9-.4-5.6-.9-8.4-1.3l-1.7 7.3c2.7.4 5.4.9 8.4 1.3l1.7-7.3z"/><path id="XMLID_368_" class="st4" d="M239.1 525.4c-2.9-.4-5.6-.9-8.4-1.3l-2.1 8.4c2.7.4 5.4.9 8.4 1.3l2.1-8.4z"/><path id="XMLID_369_" class="st4" d="M263.6 536.9c2.9.2 5.8.4 8.6.7l2.1-8.6c-2.8-.2-5.6-.4-8.6-.7l-2.1 8.6z"/><path id="XMLID_370_" class="st4" d="M261.9 544.4h.2c2.8.2 5.6.4 8.4.7l1.8-7.5c-2.8-.2-5.6-.4-8.6-.7l-1.8 7.5z"/><path id="XMLID_371_" class="st4" d="m241.8 551.2-2.2 8.8c2.8.3 5.8.7 8.7 1l2.2-8.8c-2.9-.3-5.9-.6-8.7-1z"/><path id="XMLID_372_" class="st4" d="m247.8 526.6 1.7-7.4c-2.9-.3-5.9-.8-8.7-1.1l-1.7 7.4c2.8.3 5.6.7 8.7 1.1z"/><path id="XMLID_373_" class="st4" d="m261.9 544.4-2.2 8.8c2.9.2 5.8.4 8.5.7l2.1-8.8c-2.8-.3-5.6-.5-8.4-.7.1 0 0 0 0 0z"/><path id="XMLID_374_" class="st4" d="M257.7 562c2.9.2 5.8.4 8.6.7l2.1-8.8c-2.8-.2-5.6-.4-8.5-.7l-2.2 8.8z"/><path id="XMLID_375_" class="st4" d="M258.7 553.1c-2.8-.2-5.5-.5-8.3-.9l-2.2 8.8c2.4.2 4.7.5 7.2.8.8.1 1.4.1 2.1.2l2.2-8.8c-.3-.1-.6-.1-1-.1z"/><path id="XMLID_376_" class="st4" d="m254.4 536 2.1-8.5c-2.9-.3-5.9-.7-8.7-1l-2.1 8.5c2.8.4 5.8.7 8.7 1z"/><path id="XMLID_377_" class="st4" d="M247.8 526.6c-2.9-.3-5.9-.8-8.7-1.2l-2.1 8.4c2.8.4 5.6.9 8.7 1.2l2.1-8.4z"/><path id="XMLID_378_" class="st4" d="m256.5 527.6 1.7-7.4c-2.9-.3-5.9-.7-8.7-1l-1.7 7.4c2.8.3 5.6.7 8.7 1z"/><path id="XMLID_379_" class="st4" d="M245.7 535c-2.9-.4-5.9-.8-8.7-1.2l-1.7 7.3c2.8.4 5.6.9 8.7 1.2l1.7-7.3z"/><path id="XMLID_380_" class="st4" d="m344.8 489.1 2.7-12.2s-10.3-.9-25.3-2l-3.8 15.7c13.7-.1 23.1-1 26.4-1.5z"/><path id="XMLID_381_" class="st4" d="m235.3 541.1-2.2 8.9c2.8.4 5.6.9 8.7 1.2l2.2-8.8c-3.1-.4-5.9-.8-8.7-1.3z"/><path id="XMLID_382_" class="st4" d="M244 542.3c2.8.3 5.8.8 8.7 1.1l1.7-7.4c-2.9-.3-5.9-.7-8.7-1l-1.7 7.3z"/><path id="XMLID_383_" class="st4" d="M265.7 528.4c2.9.2 5.8.4 8.6.7l1.8-7.5c-2.8-.2-5.6-.3-8.6-.5l-1.8 7.3z"/><path id="XMLID_384_" class="st4" d="m256.5 527.6-2.1 8.5c2.5.2 5 .5 7.6.8.5 0 1.1.1 1.6.1l2.1-8.5c-1.2-.1-2.4-.2-3.7-.3-1.8-.3-3.7-.4-5.5-.6z"/><path id="XMLID_385_" class="st4" d="M262 528.1c1.2.1 2.5.2 3.7.3l1.8-7.5c-1.8-.1-3.6-.3-5.4-.4-1.3-.1-2.5-.2-3.8-.3l-1.7 7.4c1.7.2 3.6.3 5.4.5z"/><path id="XMLID_386_" class="st4" d="m254.4 536-1.7 7.4c3 .3 6.1.7 9.2 1l1.8-7.5c-.5 0-1.1-.1-1.6-.1-2.7-.2-5.2-.5-7.7-.8z"/><path id="XMLID_387_" class="st4" d="M250.5 552.2c2.7.3 5.4.5 8.3.9.3 0 .7 0 1 .1l2.2-8.8c-3.1-.3-6.3-.7-9.2-1l-2.3 8.8z"/><path id="XMLID_388_" class="st4" d="m277.8 514.1 1.8-7.5c-2.8-.1-5.6-.3-8.6-.5l-1.8 7.5c3 .1 5.8.3 8.6.5z"/><path id="XMLID_389_" class="st4" d="m244 542.3-2.2 8.8c2.8.3 5.8.8 8.7 1.1l2.2-8.8c-3.1-.3-5.9-.6-8.7-1.1z"/><path id="XMLID_390_" class="st4" d="m231.1 558.8-2.1 8.7c2.8.4 5.6.9 8.7 1.2l2.1-8.7c-3.1-.3-6-.7-8.7-1.2z"/><path id="XMLID_391_" class="st4" d="M266.1 562.6c2.9.2 5.8.3 8.6.5l2.1-8.8c-2.8-.1-5.6-.3-8.6-.5l-2.1 8.8z"/><path id="XMLID_392_" class="st4" d="M268.3 553.9c2.9.2 5.8.3 8.6.5l2.1-8.8c-2.8-.1-5.6-.3-8.6-.5l-2.1 8.8z"/><path id="XMLID_393_" class="st4" d="m257.7 562-2.1 8.7c2.9.2 5.8.4 8.6.7l2.1-8.7c-2.9-.3-5.8-.5-8.6-.7z"/><path id="XMLID_394_" class="st4" d="M255.5 561.8c-2.4-.2-4.8-.4-7.2-.8l-2.1 8.7c2.3.2 4.7.4 7.1.7.8.1 1.4.1 2.2.2l2.1-8.7c-.7 0-1.4 0-2.1-.1z"/><path id="XMLID_395_" class="st4" d="m239.6 560-2.1 8.7c2.8.3 5.8.7 8.7 1l2.1-8.7c-2.9-.3-5.8-.6-8.7-1z"/><path id="XMLID_396_" class="st4" d="M264.1 571.3c2.9.2 5.8.3 8.6.5l2.1-8.7c-2.8-.1-5.6-.3-8.6-.5l-2.1 8.7z"/><path id="XMLID_397_" class="st4" d="M276 521.6c2.9.2 5.8.3 8.6.4l1.8-7.5c-2.8-.1-5.6-.2-8.6-.4l-1.8 7.5z"/><path id="XMLID_398_" class="st4" d="m286.4 514.4 1.8-7.5c-2.8-.1-5.6-.2-8.6-.4l-1.8 7.5c3 .2 5.8.3 8.6.4z"/><path id="XMLID_399_" class="st4" d="M270.4 545.1c2.9.2 5.8.4 8.6.5l1.8-7.5c-2.8-.1-5.6-.3-8.6-.5l-1.8 7.5z"/><path id="XMLID_400_" class="st4" d="M274.3 529.1c2.9.2 5.8.3 8.6.4l1.8-7.5c-2.8-.1-5.6-.2-8.6-.4l-1.8 7.5z"/><path id="XMLID_401_" class="st4" d="M272.2 537.6c2.9.2 5.8.3 8.6.5l2.1-8.6c-2.8-.1-5.6-.3-8.6-.4l-2.1 8.5z"/><path id="XMLID_402_" class="st4" d="M262 520.5c1.8.2 3.7.3 5.4.4l1.8-7.5c-2.4-.2-4.8-.3-7.3-.5-.7-.1-1.3-.1-2-.2l-1.8 7.4c1.4.2 2.7.3 3.9.4z"/><path id="XMLID_403_" class="st4" d="m240.8 518 1.7-7.4c-2.9-.4-5.6-.8-8.4-1.2l-1.7 7.3c2.8.6 5.6 1 8.4 1.3z"/><path id="XMLID_404_" class="st4" d="m249.5 519.2 1.7-7.4c-2.9-.3-5.9-.8-8.7-1.1l-1.7 7.4c2.9.4 5.8.8 8.7 1.1z"/><path id="XMLID_405_" class="st4" d="M234.2 509.4c-2.9-.4-5.6-1-8.4-1.4l-1.7 7.3c2.7.5 5.4 1 8.4 1.4l1.7-7.3z"/><path id="XMLID_406_" class="st4" d="m276 521.6 1.8-7.5c-2.8-.1-5.6-.3-8.6-.5l-1.8 7.5c3 .1 5.9.3 8.6.5z"/><path id="XMLID_407_" class="st4" d="m258.2 520.2 1.8-7.4c-2.9-.3-5.9-.5-8.7-.9l-1.7 7.4c2.7.2 5.7.6 8.6.9z"/><path id="XMLID_408_" class="st4" d="M232.5 516.8c-2.9-.4-5.6-1-8.4-1.4l-1.7 7.3c2.6.5 5.4 1 8.4 1.5l1.7-7.4z"/><path id="XMLID_409_" class="st4" d="m214.3 556-2.1 8.7c2.6.5 5.4 1 8.4 1.5l2.1-8.7c-2.9-.5-5.8-1-8.4-1.5z"/><path id="XMLID_410_" class="st4" d="M224.8 548.6c-2.9-.5-5.6-1-8.4-1.5l-2.2 8.9c2.6.5 5.4 1 8.4 1.5l2.2-8.9z"/><path id="XMLID_411_" class="st4" d="m222.7 557.5-2.1 8.7c2.7.4 5.4.9 8.4 1.3l2.1-8.7c-3-.4-5.8-.8-8.4-1.3z"/><path id="XMLID_412_" class="st4" d="M228.7 532.5c-2.9-.5-5.6-1-8.4-1.5l-1.7 7.3c2.6.5 5.4 1.1 8.4 1.5l1.7-7.3z"/><path id="XMLID_413_" class="st4" d="M226.9 539.7c-2.9-.5-5.6-1.1-8.4-1.5l-2.2 8.9c2.6.5 5.4 1.1 8.4 1.5l2.2-8.9z"/><path id="XMLID_414_" class="st4" d="M230.7 524.1c-2.9-.4-5.6-1-8.4-1.5l-2 8.3c2.6.5 5.4 1 8.4 1.5l2-8.3z"/><path id="XMLID_415_" class="st4" d="m260 512.7 1.8-7.4c-2.9-.2-5.9-.5-8.7-.9l-1.7 7.4c2.8.4 5.6.7 8.6.9z"/><path id="XMLID_416_" class="st4" d="m275 490 4.3-18c-3.1-.2-6.2-.4-9.3-.7l-4.3 18c3.1.3 6.3.5 9.3.7z"/><path id="XMLID_417_" class="st4" d="m256.9 488.5 4.2-17.8c-3-.2-6-.3-8.8-.5l-4.2 17.4c2.9.4 5.9.7 8.8.9z"/><path id="XMLID_418_" class="st4" d="m309.8 491 4-16.5c-2.8-.2-5.8-.4-8.8-.7l-4.1 17.2h8.9z"/><path id="XMLID_419_" class="st4" d="m283.6 490.5 4.3-17.9c-2.8-.2-5.6-.4-8.6-.7l-4.3 18c2.8.3 5.8.4 8.6.6z"/><path id="XMLID_420_" class="st4" d="m300.8 491 4.1-17.2c-2.8-.2-5.6-.4-8.6-.7l-4.2 17.6c3 .2 5.9.2 8.7.3z"/><path id="XMLID_421_" class="st4" d="m292.2 490.8 4.2-17.6c-2.8-.2-5.6-.4-8.6-.7l-4.3 17.9c3 .3 5.9.4 8.7.4z"/><path id="XMLID_422_" class="st4" d="m262 489 3.6.3 4.3-18c-2.9-.2-6-.4-8.8-.5l-4.2 17.8c1.7.1 3.4.3 5.1.4z"/><path id="XMLID_423_" class="st4" d="m248.2 487.5 4.2-17.4c-2.9-.2-5.9-.3-8.6-.5l-4 16.7c2.8.6 5.5.9 8.4 1.2z"/><path id="XMLID_424_" class="st4" d="M206.5 480.2c-2.6-.7-5-1.2-7.2-1.7-.7 2.4-1.3 5.1-2.1 8.1 2.2.5 4.7 1.2 7.3 1.8l2-8.2z"/><path id="XMLID_425_" class="st4" d="M209.6 467.8c-2.7-2.2-5.4-5.1-7.3.4-.7 2.1-1.6 5.5-2.9 10.3 2.2.5 4.6 1.2 7.2 1.7l3-12.4z"/><path id="XMLID_426_" class="st4" d="m223.1 483.7 3.6-14.8c-3.6-.1-6.5-.2-8.7-.1l-3.1 13.2c2.5.6 5.3 1.2 8.2 1.7z"/><path id="XMLID_427_" class="st4" d="m239.7 486.4 4-16.7c-3-.2-5.9-.3-8.6-.4l-3.8 15.8c2.8.5 5.6.9 8.4 1.3z"/><path id="XMLID_428_" class="st4" d="M286.4 587.5c3 .1 5.9.1 8.7.1l1.5-6.5c-2.8 0-5.6 0-8.7-.1l-1.5 6.5z"/><path id="XMLID_429_" class="st4" d="m214.8 482.1 3.1-13.2c-2.3 0-3.7.1-4.1.3-1.4.7-2.8-.2-4.3-1.4l-3 12.5c2.6.5 5.3 1.1 8.3 1.8z"/><path id="XMLID_430_" class="st4" d="m318.4 490.8 3.8-15.7c-2.7-.2-5.5-.4-8.6-.7l-4 16.5c3.2.1 6.1 0 8.8-.1z"/><path id="XMLID_431_" class="st4" d="M292.2 563.7c3 0 5.9.1 8.7 0l2.1-8.7c-2.8 0-5.6 0-8.7-.1l-2.1 8.8z"/><path id="XMLID_432_" class="st4" d="m298.3 538.7-1.8 7.6c3 .1 5.9.1 8.7.1l1.8-7.6c-2.9 0-5.8 0-8.7-.1z"/><path id="XMLID_433_" class="st4" d="m300.3 530.1-2.1 8.7c3 0 5.9.1 8.7.1l2.1-8.7c-2.8-.1-5.6-.1-8.7-.1z"/><path id="XMLID_434_" class="st4" d="m290.1 572.4-2.1 8.7c3 .1 5.9.1 8.7.1l2.1-8.7c-2.8-.1-5.6-.1-8.7-.1z"/><path id="XMLID_435_" class="st4" d="m292.2 563.7-2.1 8.7c3 0 5.9.1 8.7 0l2.1-8.7h-8.7z"/><path id="XMLID_436_" class="st4" d="M294.3 554.9c3 0 5.9.1 8.7.1l2.1-8.7c-2.8 0-5.6 0-8.7-.1l-2.1 8.7z"/><path id="XMLID_437_" class="st4" d="M305.9 507.3c3 0 6 0 8.7-.1l1.8-7.6c-2.7.1-5.6.1-8.7.1l-1.8 7.6z"/><path id="XMLID_438_" class="st4" d="M307.7 499.7c3 0 6 0 8.7-.1l2.1-8.8c-2.7.1-5.6.1-8.7.1l-2.1 8.8z"/><path id="XMLID_439_" class="st4" d="m304 514.9-1.8 7.6h8.7l1.8-7.6H304z"/><path id="XMLID_440_" class="st4" d="m305.9 507.3-1.8 7.6h8.7l1.8-7.6h-8.7z"/><path id="XMLID_441_" class="st4" d="m302.2 522.5-1.8 7.6h8.7l1.8-7.6h-8.7z"/><path id="XMLID_442_" class="st4" d="m231.4 485.1 3.8-15.8c-3.1-.1-6.1-.2-8.6-.3l-3.6 14.8c2.7.4 5.6.9 8.4 1.3z"/><path id="XMLID_443_" class="st4" d="M306.9 538.8c11.3 0 20.5-.4 27.2-.9l2-8.8c-6.4.4-15.7 1-27.1 1l-2.1 8.7z"/><path id="XMLID_444_" class="st4" d="M305.1 546.4c11.1 0 20.4-.3 27.4-.8l1.7-7.7c-6.7.4-16.1.9-27.2.9l-1.9 7.6z"/><path id="XMLID_445_" class="st4" d="m303 555-2.1 8.7c11.6 0 21.1-.5 27.8-1l1.8-8.6c-6.7.5-16.2.9-27.5.9z"/><path id="XMLID_446_" class="st4" d="m296.7 581.1-1.5 6.5c9.6 0 17.7-.2 24.2-.7l4.1-6.7c-6.9.6-16 .9-26.8.9z"/><path id="XMLID_447_" class="st4" d="M298.8 572.4c11.7 0 21.3-.5 28-1l2-8.7c-6.7.4-16.2 1-27.8 1l-2.2 8.7z"/><path id="XMLID_448_" class="st4" d="M296.7 581.1c10.9 0 20-.3 26.8-.8l2.2-3.5 1.2-5.4c-6.7.4-16.3 1-28 1l-2.2 8.7z"/><path id="XMLID_449_" class="st4" d="M305.1 546.4 303 555c11.4 0 20.7-.4 27.6-.9l1.8-8.6c-6.9.5-16.2.9-27.3.9z"/><path id="XMLID_450_" class="st4" d="m318.4 490.8-2.1 8.8c12.7-.3 21.9-1.1 26.6-1.5l2-8.9c-3.4.4-12.8 1.3-26.5 1.6z"/><path id="XMLID_451_" class="st4" d="M309 530.1c11.4-.1 20.6-.5 27.1-1l1.7-7.7c-6.2.4-15.4 1-26.9 1.1l-1.9 7.6z"/><path id="XMLID_452_" class="st4" d="M314.5 507.2c12.2-.2 21.4-.9 26.7-1.4l1.7-7.7c-4.7.4-13.9 1.2-26.6 1.5l-1.8 7.6z"/><path id="XMLID_453_" class="st4" d="M310.8 522.5c11.6-.1 20.8-.7 26.9-1.1l1.7-7.7c-5.8.4-15 1.1-26.8 1.2l-1.8 7.6z"/><path id="XMLID_454_" class="st4" d="M312.7 514.8c11.8-.2 21.1-.8 26.8-1.2l1.7-7.7c-5.3.4-14.5 1.1-26.7 1.4l-1.8 7.5z"/><path id="XMLID_455_" class="st4" d="M195.7 525.3c-2.8-.8-5.2-1.4-7.2-2.1-.5 2.3-1.1 4.7-1.6 7.1 1.7.5 4.1 1.2 7.1 2.1l1.7-7.1z"/><path id="XMLID_456_" class="st4" d="M199.4 509.9c-2.7-.8-5.2-1.4-7.3-2-.5 2.3-1.1 4.7-1.6 7.2 2.1.5 4.5 1.3 7.2 2l1.7-7.2z"/><path id="XMLID_457_" class="st4" d="M197.6 517c-2.8-.8-5.2-1.4-7.2-2-.7 2.6-1.3 5.3-1.8 8.1 2 .5 4.3 1.3 7.2 2.1l1.8-8.2z"/><path id="XMLID_458_" class="st4" d="M193.9 532.4c-2.9-.8-5.3-1.5-7.1-2.1-.7 2.9-1.4 6-2.1 9 1.8.5 4.1 1.2 6.9 2l2.3-8.9z"/><path id="XMLID_459_" class="st4" d="M204.6 488.4c-2.7-.7-5.1-1.3-7.3-1.8-.5 2.3-1.2 4.7-1.7 7.2 2.2.5 4.6 1.2 7.3 1.8l1.7-7.2z"/><path id="XMLID_460_" class="st4" d="m295.1 587.6-1.8 7.5 19.8 2.2 6.3-10.2c-6.6.3-14.7.5-24.3.5z"/><path id="XMLID_461_" class="st4" d="M201.1 502.8c-2.7-.7-5.2-1.3-7.3-2-.5 2.3-1.1 4.7-1.7 7.2 2.1.5 4.6 1.3 7.3 2l1.7-7.2z"/><path id="XMLID_462_" class="st4" d="M202.8 495.6c-2.7-.7-5.1-1.3-7.3-1.8-.5 2.3-1.1 4.7-1.7 7.2 2.2.5 4.6 1.2 7.3 2l1.7-7.4z"/><path id="XMLID_463_" class="st4" d="M183.5 575.8c-2.7-.5-5-1-6.6-1.4-.5 2.5-1.2 5.1-1.7 7.6l6.6.8 1.7-7z"/><path id="XMLID_464_" class="st4" d="M191.8 541.4c-2.8-.8-5.1-1.4-6.9-2-.7 2.9-1.4 6-2.1 9 1.8.5 4.2 1.2 6.8 2l2.2-9z"/><path id="XMLID_465_" class="st4" d="M185.4 568c-2.7-.7-4.9-1.3-6.6-1.7-.7 2.7-1.2 5.5-1.8 8.3 1.6.3 3.9.9 6.6 1.4l1.8-8z"/><path id="XMLID_466_" class="st4" d="M187.5 559.1c-2.6-.8-4.9-1.3-6.7-1.8l-2.1 9c1.7.4 4 1.1 6.6 1.7l2.2-8.9z"/><path id="XMLID_467_" class="st4" d="M189.6 550.4c-2.7-.8-5-1.4-6.8-2-.7 2.9-1.3 5.9-2 8.7 1.8.5 4.1 1.2 6.7 1.8l2.1-8.5z"/><path id="XMLID_468_" class="st4" d="M211.1 497.5c-2.9-.7-5.8-1.3-8.3-2l-1.7 7.2c2.5.7 5.2 1.3 8.3 2l1.7-7.2z"/><path id="XMLID_469_" class="st4" d="m307.7 499.7 2.1-8.7h-8.9l-2.1 8.7h8.9z"/><path id="XMLID_470_" class="st4" d="m298.7 499.7 2.1-8.7c-2.8 0-5.6-.1-8.7-.1l-2.1 8.6c3 .1 6 .1 8.7.2z"/><path id="XMLID_471_" class="st4" d="m284.9 594.1 8.5 1 1.8-7.5c-2.8 0-5.6 0-8.7-.1l-1.6 6.6z"/><path id="XMLID_472_" class="st4" d="m290.1 499.5 2.1-8.6c-2.8-.1-5.6-.2-8.6-.3l-2.1 8.6c3 0 5.8.2 8.6.3z"/><path id="XMLID_473_" class="st4" d="M295.1 514.8c3 .1 6.1.1 8.9.1l1.8-7.6c-2.8 0-5.9 0-8.9-.1l-1.8 7.6z"/><path id="XMLID_474_" class="st4" d="m298.7 499.7-1.8 7.6c3 .1 6.1.1 8.9.1l1.8-7.6c-2.8-.1-5.8-.1-8.9-.1z"/><path id="XMLID_475_" class="st4" d="M262 497.7c.5 0 1.1.1 1.6.1l2.1-8.5-3.6-.3c-1.7-.1-3.5-.3-5.1-.5l-2.1 8.5c2.3.3 4.7.5 7.1.7z"/><path id="XMLID_476_" class="st4" d="m246.1 496 2.1-8.5c-2.9-.3-5.6-.8-8.5-1.1l-2.1 8.4c2.9.4 5.7.9 8.5 1.2z"/><path id="XMLID_477_" class="st4" d="m273 498.6 2.1-8.6c-3-.2-6.2-.4-9.3-.7l-2.1 8.5c3.1.4 6.2.6 9.3.8z"/><path id="XMLID_478_" class="st4" d="m237.8 494.8 2.1-8.4c-2.9-.4-5.6-.9-8.4-1.3l-2.1 8.4c2.6.4 5.5.9 8.4 1.3z"/><path id="XMLID_479_" class="st4" d="m254.8 497 2.1-8.5c-2.9-.3-5.9-.7-8.7-1l-2.1 8.5c2.9.3 5.8.6 8.7 1z"/><path id="XMLID_480_" class="st4" d="M293.3 522.4c3 .1 6.1.1 8.9.1l1.8-7.6c-2.8 0-5.9 0-8.9-.1l-1.8 7.6z"/><path id="XMLID_481_" class="st4" d="m281.4 499 2.1-8.6c-2.8-.1-5.6-.3-8.6-.4l-2.1 8.6c3 .2 5.9.3 8.6.4z"/><path id="XMLID_482_" class="st4" d="M279.2 580.8c3 .1 6 .2 8.9.2l2.1-8.7c-2.8 0-5.9-.1-8.9-.2l-2.1 8.7z"/><path id="XMLID_483_" class="st4" d="m270.6 580.3-1.5 6.5c2.9.1 5.8.3 8.6.4l1.5-6.5c-2.9 0-5.7-.1-8.6-.4z"/><path id="XMLID_484_" class="st4" d="M277.6 587.3c3 .1 6 .2 8.9.2l1.5-6.5c-2.8 0-5.9-.1-8.9-.2l-1.5 6.5z"/><path id="XMLID_485_" class="st4" d="m262 579.8-1.5 6.5c2.9.2 5.8.4 8.6.5l1.5-6.5c-2.8-.1-5.7-.3-8.6-.5z"/><path id="XMLID_486_" class="st4" d="M291.4 529.9c3 .1 6.1.1 8.9.2l1.8-7.6c-2.8 0-5.9-.1-8.9-.1l-1.8 7.5z"/><path id="XMLID_487_" class="st4" d="m253.5 579.1-1.5 6.5h.3c2.8.2 5.5.4 8.1.7l1.5-6.5c-2.7-.1-5.5-.4-8.4-.7z"/><path id="XMLID_488_" class="st4" d="M253.3 579.1c-3.1-.3-6.2-.5-9.1-.9l-1.5 6.5c3 .3 6.1.7 9.2.9l1.5-6.5h-.1z"/><path id="XMLID_489_" class="st4" d="M287.5 546c3 .1 6 .2 8.9.2l1.8-7.6c-2.8 0-5.9-.1-8.9-.2l-1.8 7.6z"/><path id="XMLID_490_" class="st4" d="M289.4 538.4c3 .1 6.1.2 8.9.2l2.1-8.7c-2.8 0-5.9-.1-8.9-.2l-2.1 8.7z"/><path id="XMLID_491_" class="st4" d="M281.2 572.2c3 .1 6.1.2 8.9.2l2.1-8.7c-2.8 0-5.9-.1-8.9-.2l-2.1 8.7z"/><path id="XMLID_492_" class="st4" d="M285.4 554.7c3 .1 6 .2 8.9.2l2.1-8.7c-2.8-.1-5.9-.1-8.9-.2l-2.1 8.7z"/><path id="XMLID_493_" class="st4" d="M283.3 563.5c3 .1 6.1.2 8.9.2l2.1-8.7c-2.8 0-5.9-.1-8.9-.2l-2.1 8.7z"/><path id="XMLID_494_" class="st4" d="m229.4 493.5 2.1-8.4c-2.9-.4-5.6-1-8.4-1.4l-2 8.3c2.7.5 5.4 1.1 8.3 1.5z"/><path id="XMLID_495_" class="st4" d="m208.5 580.2-1.3 5.3 8.5 1 1.2-5c-3-.4-5.8-.8-8.4-1.3z"/><path id="XMLID_496_" class="st4" d="m225.3 582.7-1.2 4.8 8.7 1 1.1-4.7c-3-.4-5.9-.7-8.6-1.1z"/><path id="XMLID_497_" class="st4" d="m216.8 581.5-1.2 5 8.5 1 1.2-4.8c-2.9-.4-5.7-.7-8.5-1.2z"/><path id="XMLID_498_" class="st4" d="m200.1 578.9-1.4 5.8 8.5 1 1.3-5.3c-3-.6-5.8-1-8.4-1.5z"/><path id="XMLID_499_" class="st4" d="m191.8 577.4-1.5 6.3 8.5 1 1.4-5.8c-3.1-.5-5.8-.9-8.4-1.5z"/><path id="XMLID_500_" class="st4" d="M193.6 569.9c-3.1-.7-5.9-1.4-8.3-2l-2 7.9c2.4.4 5.1 1 8.3 1.6l2-7.5z"/><path id="XMLID_501_" class="st4" d="m183.5 575.8-1.7 6.9 8.5 1 1.5-6.3c-3.2-.5-5.9-1.1-8.3-1.6z"/><path id="XMLID_502_" class="st4" d="m268.9 586.9-1.3 5.4 8.5 1 1.4-5.9c-2.7-.2-5.6-.3-8.6-.5z"/><path id="XMLID_503_" class="st4" d="m260.5 586.3-1.2 5 8.5 1 1.3-5.4c-2.9-.2-5.8-.4-8.6-.6z"/><path id="XMLID_504_" class="st4" d="m277.6 587.3-1.4 5.9 8.7 1 1.6-6.6c-2.9-.1-5.8-.2-8.9-.3z"/><path id="XMLID_505_" class="st4" d="m221.1 492 2-8.3c-2.9-.5-5.6-1.1-8.3-1.6l-2 8.3c2.6.5 5.3 1 8.3 1.6z"/><path id="XMLID_506_" class="st4" d="m242.7 584.7-1.1 4.7 9.2 1 1.2-4.8c-3.2-.3-6.3-.6-9.3-.9z"/><path id="XMLID_507_" class="st4" d="M252.2 585.7h-.3l-1.2 4.8 8.5 1 1.2-5c-2.6-.4-5.3-.6-8.2-.8z"/><path id="XMLID_508_" class="st4" d="m234 583.7-1.1 4.7 8.7 1 1.1-4.7c-3.1-.3-5.9-.6-8.7-1z"/><path id="XMLID_509_" class="st4" d="M209.3 504.8c-2.9-.7-5.8-1.3-8.3-2l-1.7 7.2c2.5.7 5.2 1.3 8.3 2l1.7-7.2z"/><path id="XMLID_510_" class="st4" d="M207.6 511.9c-3-.7-5.8-1.4-8.3-2l-1.7 7.2c2.5.7 5.2 1.3 8.1 2.1l1.9-7.3z"/><path id="XMLID_511_" class="st4" d="M212.8 490.3c-2.9-.7-5.6-1.3-8.3-1.8l-1.7 7.2c2.5.7 5.2 1.3 8.3 2l1.7-7.4z"/><path id="XMLID_512_" class="st4" d="M214.8 482.1c-2.9-.7-5.6-1.2-8.3-1.8l-2 8.3c2.5.7 5.3 1.2 8.3 1.8l2-8.3z"/><path id="XMLID_513_" class="st4" d="m235.5 577.2-1.6 6.5c2.8.3 5.8.7 8.7 1l1.5-6.5c-2.8-.2-5.8-.7-8.6-1z"/><path id="XMLID_514_" class="st4" d="M205.9 519.1c-3-.8-5.8-1.4-8.1-2.1l-2 8.1c2.4.7 5.1 1.3 8.1 2.1l2-8.1z"/><path id="XMLID_515_" class="st4" d="M195.8 561.1c-3-.8-5.8-1.4-8.1-2.1l-2.2 8.9c2.4.5 5.1 1.3 8.3 2l2-8.8z"/><path id="XMLID_516_" class="st4" d="M197.8 552.4c-3-.8-5.8-1.4-8.1-2.1l-2.1 8.7c2.4.7 5.1 1.3 8.1 2.1l2.1-8.7z"/><path id="XMLID_517_" class="st4" d="M203.9 527.4c-3-.8-5.8-1.4-8.1-2.1l-1.7 7.2c2.4.7 5.1 1.4 8.1 2.2l1.7-7.3z"/><path id="XMLID_518_" class="st4" d="M202.2 534.5c-3-.8-5.8-1.5-8.1-2.2l-2.2 9c2.4.7 5.1 1.4 8.1 2.1l2.2-8.9z"/><path id="XMLID_519_" class="st4" d="M200 543.4c-3-.8-5.8-1.4-8.1-2.1l-2.2 9c2.4.7 5.1 1.3 8.1 2.1l2.2-9z"/></g><g id="XMLID_258_"><path id="XMLID_259_" class="st2" d="m198.7 584.7-8.5-1-8.4-.9-6.2-.7 29.8 16 23.6 2.6-29.7-16z"/><path id="XMLID_286_" class="st2" d="M175.2 582.1c-1 4.1-1.8 8.4-2.8 12.4l33 3.6-29.7-16h-.5z"/><path id="XMLID_287_" class="st2" d="m215.6 586.5-8.4-1-7.9-.8 29.7 16 22 2.4-29.7-15.9z"/><path id="XMLID_288_" class="st2" d="m313 597.3-19.6-2.2-8.5-1-8.8-1-8.5-.8-4.8-.6 29.7 16 13.2 1.4z"/><path id="XMLID_289_" class="st2" d="m259.3 591.3-8.5-.9-8.7-.9 29.8 15.9 20.6 2.3-29.7-16z"/><path id="XMLID_290_" class="st2" d="m241.6 589.3-8.8-.9-8.7-.9-2.8-.3 29.7 15.9 20.9 2.3-29.8-15.9z"/></g><path id="XMLID_197_" class="st5" d="M195.2 474.3c-4 2.7-29.1 14.2-30.7 16.2-1.6 2 2.6 8 4.7 7.1s29.7-16 29.7-16 6.1 19.3 8.5 22.1c2.5 2.7 9.8-.9 7.9-5.1-1.8-4.2-11.7-22.8-11.7-22.8s-4.3-4.2-8.4-1.5z"/><path id="XMLID_232_" class="st5" d="M303.8 514.4s-20.4 19.5-21 23.4c-.5 3.9 4.2 7.2 7.8 6 3.6-1.2 18.8-25.2 18.8-25.2l-5.6-4.2z"/><circle id="XMLID_184_" class="st5" cx="198.9" cy="477.1" r="7.1"/><circle id="XMLID_230_" class="st5" cx="307.9" cy="515.9" r="7.1"/><path id="XMLID_242_" class="st0" d="M166.5 528.6c1.2-3.1 25.4-16.9 25.4-16.9l10.4 4.2s2.6 28 2.5 30.7c-.1 2.7-11.5 3-11.7.3-.2-2.7 2-29.3 2-29.3s-17.4 14.9-20.4 17-9.4-2.9-8.2-6z"/><path id="XMLID_244_" class="st0" d="M256 492.6s-26.8 13.9-28.8 16.8 2.3 8.1 5.6 8.1c3.4 0 26.7-20.1 26.7-20.1s5 30.9 6.5 34.1c1.5 3.1 12.3-.9 11.4-4.8s-12.9-32.6-12.9-32.6l-8.5-1.5z"/><circle id="XMLID_194_" class="st0" cx="197" cy="514.4" r="7.1"/><circle id="XMLID_231_" class="st0" cx="259.5" cy="494.3" r="7.1"/><path id="XMLID_243_" class="st6" d="M242.6 547.7s-27.5 21.1-28.9 24c-1.4 2.9 4.8 8.3 10.6 5.9 5.9-2.4 22-25.8 22-25.8s11.7 23.1 15.1 27c3.4 3.9 8.9-2.4 7.6-7.3-1.3-4.9-17.9-25.6-17.9-25.6l-8.5 1.8z"/><circle id="XMLID_219_" class="st6" cx="246.4" cy="547.7" r="7.1"/><g id="XMLID_868_"><g id="XMLID_187_"><g id="XMLID_190_"><path id="XMLID_191_" class="st2" d="m257.9 402.5-1.8 41c2.9.2 5.8.5 8.7.8l1.5-41.8h-8.4z"/><path id="XMLID_196_" class="st2" d="M282.5 402.6c-3.3 0-6.4-.1-9.7-.1l-.3 42.3c3.1.2 6.2.4 9.2.7l.8-42.9z"/><path id="XMLID_217_" class="st2" d="m248.2 402.5-3.5 40.1c3.8.3 7.5.8 11.2 1.1l1.8-41c-3.1-.2-6.3-.2-9.5-.2z"/><path id="XMLID_218_" class="st2" d="m266.1 402.5-1.5 41.8c2.6.2 5.3.4 7.8.7l.3-42.3c-2.1-.2-4.4-.2-6.6-.2z"/></g><g id="XMLID_186_"><path id="XMLID_189_" class="st2" d="M211.7 403.7c.4 13.5-.4 25.1-1.7 34.5 3.1.4 6.4.9 9.6 1.3l3.3-36.7c-5.1.3-9 .6-11.2.9z"/><path id="XMLID_201_" class="st2" d="m222.7 403-3.3 36.7c2.7.3 5.4.7 8 1l2.9-37.9c-2.6-.1-5.2 0-7.6.2z"/><path id="XMLID_215_" class="st2" d="M248.2 402.5c-3 0-6.1 0-8.9.1l-3 39.1c2.8.3 5.6.7 8.5.9l3.4-40.1z"/><path id="XMLID_216_" class="st2" d="m230.5 402.7-2.9 37.9c2.9.3 5.9.7 8.7 1l3-39.1c-3.1.1-6.1.1-8.8.2z"/></g><path id="XMLID_221_" class="st1" d="M244.7 442.5c-11.4-1.2-23.1-2.5-34.8-4.2-1.5 10.2-3.5 17.9-5.1 23 7.9 2.4 19.9 5.1 37.7 7.1l2.2-25.9z"/><path id="XMLID_222_" class="st1" d="m244.7 442.5-2.3 25.8c8.6 1 18.5 1.7 30 2.3 3 .1 6 .3 8.8.4l.4-25.5c-11.6-.8-24.1-1.7-36.9-3z"/><path id="XMLID_223_" class="st1" d="M281.3 471c15.7.7 28.2.9 38 .8v-24.4c-11.2-.3-23.9-1-37.6-1.8l-.4 25.4z"/><path id="XMLID_224_" class="st1" d="M319.3 447.4v24.4c14.7-.1 23.3-.8 28.2-1.4 5.3-6.9 8.5-15.3 11.6-22.5-8.4.1-22.4 0-39.8-.5z"/></g><g id="XMLID_245_"><path id="XMLID_246_" class="st2" d="M204.8 461.4c-1.4 4.6-2.5 6.8-2.5 6.8s.4 1.6 6.8 3.8l2.2-8.9c-2.4-.5-4.6-1.2-6.5-1.7z"/><path id="XMLID_247_" class="st2" d="m211.3 463.1-2.2 8.9c2 .7 4.5 1.3 7.6 2.1l1.8-9.2c-2.5-.7-4.9-1.3-7.2-1.8z"/><path id="XMLID_248_" class="st2" d="m226.2 466.1-1.6 9.3c2.2.3 4.6.8 7.2 1.1l1.5-9.3c-2.6-.3-4.8-.7-7.1-1.1z"/><path id="XMLID_249_" class="st2" d="M242.6 468.3c-3.3-.3-6.4-.8-9.2-1.2l-1.5 9.3c3 .4 6.3.8 10 1.2l.7-9.3z"/><path id="XMLID_250_" class="st2" d="m218.6 464.7-1.8 9.2c2.3.5 4.8 1 7.8 1.5l1.6-9.3c-2.7-.4-5.2-.9-7.6-1.4z"/></g><g id="XMLID_202_"><path id="XMLID_203_" class="st2" d="m250.6 469.2-.8 9.3c2.7.2 5.5.4 8.6.7l.7-9.2c-3-.4-5.8-.6-8.5-.8z"/><path id="XMLID_209_" class="st2" d="m242.6 468.3-.8 9.3c2.5.2 5.2.5 8.1.8l.8-9.3c-2.9-.3-5.6-.5-8.1-.8z"/><path id="XMLID_226_" class="st2" d="m259.1 469.8-.7 9.2c2.4.2 5 .3 7.6.4l.5-9.2c-2.4 0-5-.2-7.4-.4z"/><path id="XMLID_227_" class="st2" d="M272.5 470.7c-2.1-.1-4-.2-5.9-.3l-.5 9.2c2.9.2 5.9.3 9 .4v-9.3h-2.6z"/><path id="XMLID_251_" class="st2" d="M281.3 471c-2.1-.1-4.1-.2-6.3-.2v9.3c2 .1 4 .2 6.1.2l.2-9.3z"/></g><g id="XMLID_204_"><path id="XMLID_205_" class="st2" d="M319.3 471.8H312l.8 9.3c2.2 0 4.3 0 6.5.1v-9.4z"/><path id="XMLID_212_" class="st2" d="M289.8 471.3v9.2c2.2.1 4.5.1 6.7.2v-9.2c-2 0-4.3 0-6.7-.2z"/><path id="XMLID_213_" class="st2" d="m281.3 471-.1 9.2c2.8.1 5.6.2 8.7.3v-9.2c-2.8-.1-5.6-.2-8.6-.3z"/><path id="XMLID_228_" class="st2" d="M296.6 471.6v9.2c2.4.1 4.8.1 7.3.1v-9.2c-2.4 0-4.8-.1-7.3-.1z"/><path id="XMLID_252_" class="st2" d="M303.8 471.7v9.2c2.9.1 5.9.1 8.9.1l-.8-9.3c-2.5.1-5.2.1-8.1 0z"/></g><g id="XMLID_206_"><path id="XMLID_207_" class="st2" d="M319.3 471.8v9.3h7.8v-9.6c-2.4.3-5 .3-7.8.3z"/><path id="XMLID_211_" class="st2" d="M327.1 471.7v9.6h7.1c5.6-2.6 10-6.4 13.4-10.9-4.1.5-10.5 1.1-20.5 1.3z"/></g><g id="XMLID_188_"><path id="XMLID_192_" class="st2" d="m282.3 410.7-.5 35c2.7.2 5.4.3 8 .4v-35.2c-2.4-.1-4.9-.2-7.5-.2z"/><path id="XMLID_199_" class="st2" d="M289.8 410.9v35.2c3.3.2 6.4.3 9.6.5v-35.3c-3.1-.2-6.4-.3-9.6-.4z"/><path id="XMLID_220_" class="st2" d="M319.3 411.9c-2.7-.1-5.5-.2-8.5-.3V447c2.9.1 5.8.2 8.5.3v-35.4z"/><path id="XMLID_229_" class="st2" d="M299.3 411.2v35.3c3.9.2 7.7.3 11.4.5v-35.5c-3.5-.1-7.3-.2-11.4-.3z"/></g><g id="XMLID_193_"><path id="XMLID_195_" class="st2" d="M319.3 411.9v35.5c3.6.1 7.1.2 10.4.3l.5-35.4c-3.3-.2-6.9-.3-10.9-.4z"/><path id="XMLID_200_" class="st2" d="m346.7 405.1-3.5 7.6s-5-.2-13-.4l-.5 35.4c12.6.3 22.8.3 29.4.3.2-.5.4-1.1.7-1.6l-13.1-41.3z"/></g><g id="XMLID_233_"><path id="XMLID_234_" class="st2" d="M208.8 395c-.8.4-1.3 1.7-1.6 3.5l23.2 10.3c4.9.2 10.4.3 16.5.5l-32.7-14.5c-3.2 0-5.1.1-5.4.2z"/><path id="XMLID_235_" class="st2" d="m214.1 394.8 32.7 14.5c5.5.2 11.4.4 17.4.5l-32.9-14.7c-7.2-.1-13.2-.2-17.2-.3z"/><path id="XMLID_236_" class="st2" d="m231.3 395.4 32.9 14.7c6.2.2 12.5.4 18.8.7l-32.5-14.4c-7-.6-13.5-.8-19.2-1z"/><path id="XMLID_237_" class="st2" d="M210.6 408.2c1.1.1 8.7.3 19.8.7l-23.2-10.3c-.7 3.8.1 9.3 3.4 9.6z"/><path id="XMLID_238_" class="st2" d="m336.7 412.4-30.2-13.5c-5.3-.3-11.1-.5-17.3-.9l30.9 13.8c6.9.3 12.6.5 16.6.6z"/><path id="XMLID_239_" class="st2" d="m250.5 396.1 32.5 14.4c6.8.2 13.6.4 20 .7l-31.7-14.1c-7.1-.3-14.1-.7-20.8-1z"/><path id="XMLID_240_" class="st2" d="M289.2 398.1c-5.9-.3-11.9-.7-18.1-1l31.7 14.1c6.2.2 12.1.4 17.4.5l-31-13.6z"/><path id="XMLID_241_" class="st2" d="m343.1 412.6-11.7-12.3s-10.3-.5-25-1.4l30.2 13.5c4.2.2 6.5.2 6.5.2z"/></g></g></g><g id="XMLID_210_"><path id="XMLID_261_" class="st2" d="m200.7 659-2.4 11.5c3.7.4 7.4.9 10.9 1.3l2.1-11.7c-3.4-.4-6.9-.7-10.6-1.1z"/><path id="XMLID_262_" class="st2" d="m235.2 675.5 2.6-11.9c-3.4-.5-6.9-1.1-10.6-1.5l-2.4 11.9c3.7.6 7.1 1.1 10.4 1.5z"/><path id="XMLID_271_" class="st2" d="m211.3 660.1-2.1 11.7c2.7.3 5.4.7 8 1.1l2.3-11.8c-2.7-.3-5.4-.6-8.2-1z"/><path id="XMLID_273_" class="st2" d="M217.2 672.9c2.6.3 5.1.8 7.6 1.1l2.4-11.9c-2.5-.3-5-.7-7.7-1l-2.3 11.8z"/><path id="XMLID_281_" class="st2" d="m233.7 629.6 5.5-27.8-7.9-.9-5.4 27.8c2.6.4 5.2.6 7.8.9z"/><path id="XMLID_282_" class="st2" d="m231.3 601-9.1-1-5 27.9c2.8.3 5.8.7 8.7 1l5.4-27.9z"/><path id="XMLID_283_" class="st2" d="m245.2 630.9 6.2-27.8-12.2-1.3-5.5 27.8c3.8.5 7.7.9 11.5 1.3z"/><path id="XMLID_284_" class="st2" d="m212.9 598.9-5.6 27.8c3.3.3 6.5.8 9.9 1.1l5-27.9-9.3-1z"/></g><g id="XMLID_214_"><path id="XMLID_260_" class="st2" d="M244.7 677.1c3.9.7 7.3 1.2 10 1.7l2.4-11.7c-3-.5-6.3-1.2-9.9-1.8l-2.5 11.8z"/><path id="XMLID_264_" class="st2" d="m237.9 663.6-2.6 11.9c3.5.5 6.6 1.1 9.4 1.5l2.5-11.9c-2.9-.4-6-1-9.3-1.5z"/><path id="XMLID_265_" class="st2" d="m262 680.2 6.6-10.7c-3.1-.8-7.1-1.5-11.5-2.4l-2.4 11.7c4.7.9 7.3 1.4 7.3 1.4z"/><path id="XMLID_270_" class="st2" d="m269.9 605.2-10-1.1-5.9 27.8c3.5.4 6.7.8 10 1.1l5.9-27.8z"/><path id="XMLID_274_" class="st2" d="m289.2 635.9 16.5-26.7-35.8-3.9-5.8 27.9c9.6 1 18.3 1.9 25.1 2.7z"/><path id="XMLID_285_" class="st2" d="m251.4 603.1-6.2 27.8c3 .3 6.1.7 9 1l5.9-27.8-8.7-1z"/></g></g><g id="XMLID_172_"><g id="XMLID_887_"><path id="XMLID_888_" class="st2" d="M339.2 375.1c.3-23.2 9.1-44.6 18.3-60.7l-21.7 16.7s-3.5 5.8.5 8.3c-4.3 1.7-6.5 6.2-4.2 8-3.8 1-5.4 4.1-2.6 6.1-2.8.7-3.1 5.8-.5 7.7-3.4.8-4.3 5.8-2 8.1-3 1.1-2.5 6.1 0 7.9-3.5 1.7-2.5 6.4 0 7.5-3.5.8-3 6.5 0 7.6-2.9.8-2.5 6 0 7.1-3.5 1.4-2.7 4.6 0 6.7-3 3.6-.8 8 3.3 8-3.6 1.1-1.1 7.8 2.2 8-3.3 1.1-2 9 1.6 9.6-3.5 2.4-.2 8.4 4.9 7.4-4.7 4.5 2.7 10.7 6.5 7.3.4-.4 1.8-1.1 3.9-2.2-3.9-11-10.7-34.4-10.2-69.1z"/><path id="XMLID_889_" class="st2" d="M384.5 429.2c21.3-8.7 43.4-17.4 43.4-17.4l-16.6 5.6-.2-36.2-1.8-61.9c-8.7 11.8-22.1 33.2-25.3 56-3.3 23.1-1.3 43.1.5 53.9z"/><path id="XMLID_890_" class="st1" d="M360.9 364.3c6.6-36.6 30.1-58.1 40.7-66.1l-9.3-10.6-34.7 26.8c-9.2 16.1-18 37.5-18.3 60.7-.4 34.7 6.3 58.3 10.3 69 3.3-1.5 8.3-3.8 14.2-6.3-3.1-9.2-9.7-35.5-2.9-73.5z"/><path id="XMLID_891_" class="st2" d="M370.9 364c5.4-27.7 27.1-50.2 36.7-58.9l-6.1-6.8c-10.6 8-34.2 29.5-40.7 66.1-6.8 38-.2 64.3 2.8 73.5 3-1.3 6.3-2.6 9.7-4-2.2-9.9-8.2-40.3-2.4-69.9z"/><path id="XMLID_892_" class="st1" d="M383.9 375.6c3.3-22.8 16.7-44.2 25.3-56l-.3-13-1.3-1.5c-9.6 8.8-31.3 31.2-36.7 58.9-5.8 29.6.2 60 2.5 69.8 3.6-1.5 7.3-3 11-4.6-1.7-10.8-3.7-30.8-.5-53.6z"/></g><g id="XMLID_146_"><path id="XMLID_149_" class="st3" d="m344.2 436.2-5.9 3.7"/><path id="XMLID_150_" class="st3" d="m334.2 431.6 6.5-2.5"/><path id="XMLID_161_" class="st3" d="m338.9 420.1-6.3 2"/><path id="XMLID_162_" class="st3" d="m330.4 414 7-1.4"/><path id="XMLID_163_" class="st3" d="m335.8 405-8.7 1"/><path id="XMLID_164_" class="st3" d="M327.1 399.3h8.6"/><path id="XMLID_165_" class="st3" d="m335.8 392.5-8.7-.3"/><path id="XMLID_166_" class="st3" d="M327.1 384.6h8.6"/><path id="XMLID_167_" class="st3" d="M335.8 377.1h-8.7"/><path id="XMLID_168_" class="st3" d="M327.1 369.3h8.7"/><path id="XMLID_169_" class="st3" d="m336.7 361.8-7.7-.8"/><path id="XMLID_170_" class="st3" d="m329.5 353.4 8.4 1.1"/><path id="XMLID_171_" class="st3" d="m340.4 348.5-8.3-1.1"/><path id="XMLID_145_" class="st3" d="m336.4 339.3 6.7 1.1"/><path id="XMLID_147_" class="st3" d="m345.6 333-8.9-2.6"/></g></g><g id="XMLID_667_"><g id="XMLID_153_"><path id="XMLID_154_" class="st1" d="M233.4 660.7c-5.4 12.8 2.2 28.6 19.5 39.1s33.4 4.9 46.7-18.2c1.1-1.8 2-3.7 2.9-5.5l-47.3-41.3c-10.5 10.9-19 19.7-21.8 25.9z"/><path id="XMLID_156_" class="st1" d="M289.8 593.8c-5.9 8.7-12.4 16.8-19 24.2l40.3 33.1c3.4-12.9 5.6-24.5 10.6-31.5l-31.9-25.8z"/></g><g id="XMLID_141_"><path id="XMLID_142_" class="st2" d="m282.8 627.9-14.9 17.8 7.1 6.3 14.6-18.7z"/><path id="XMLID_148_" class="st2" d="M270.9 618c-5.3 6.1-10.6 11.6-15.6 16.7l12.6 11 15-17.8-12-9.9z"/><path id="XMLID_155_" class="st7" d="M289.6 633.3 275 652l5 4.2 14.7-18.7z"/><path id="XMLID_158_" class="st2" d="m311.2 651.1-10.5-8.6-13.8 19.8 15.7 13.7c3.9-8.3 6.5-16.8 8.6-24.9z"/><path id="XMLID_159_" class="st2" d="M294.7 637.5 280 656.2l6.9 6 13.7-19.8z"/></g><g id="XMLID_143_"><path id="XMLID_144_" class="st2" d="m343.4 521.5-31.6 9.7s-.2 29.5-21.1 61.3c-.3.4-.7.9-.9 1.4l6.7 5.4 47.8-66.3-.9-11.5z"/><path id="XMLID_151_" class="st2" d="M321.8 619.6c.1-.2.2-.4.4-.5 9.2-11.9 27.1-25.5 27.1-25.5l-2.1-25.5-34.1 44.6 8.7 6.9z"/><path id="XMLID_152_" class="st2" d="m344.4 532.9-47.8 66.3 6.1 5 42.7-58.4z"/><path id="XMLID_157_" class="st2" d="m345.4 545.8-42.7 58.4 4.7 3.8 38.8-52.1z"/><path id="XMLID_160_" class="st2" d="m307.4 608 5.7 4.7 34.1-44.6-1-12.2z"/></g></g><g id="XMLID_666_"><g id="XMLID_863_"><g id="XMLID_866_"><path id="XMLID_867_" class="st8" d="m607.3 658.1-59.8 5.5-.4 12.3h63.2z"/><path id="XMLID_870_" class="st8" d="m545.8 708.3-.5 11.5 71.8-3.4-1.4-8.1z"/><path id="XMLID_878_" class="st9" d="M610.3 675.9h-63.2l-.4 8.7h65.1z"/><path id="XMLID_879_" class="st9" d="m613.5 694.9-67.2.1-.5 13.3h69.9z"/><path id="XMLID_880_" class="st8" d="M611.8 684.6h-65.1l-.4 10.4 67.2-.1z"/></g><g id="XMLID_862_"><path id="XMLID_656_" class="st3" d="M555.7 710.4v9"/><path id="XMLID_657_" class="st3" d="M562.7 710.4v8.2"/><path id="XMLID_658_" class="st3" d="M569.8 710.4v8.5"/><path id="XMLID_659_" class="st3" d="m576.6 710.4.3 8.2"/><path id="XMLID_660_" class="st3" d="M583.8 710.4v7.8"/><path id="XMLID_661_" class="st3" d="m590.9 710.4-.2 7.2"/><path id="XMLID_662_" class="st3" d="m597.7 710.4.3 6.7"/><path id="XMLID_663_" class="st3" d="m604.5 708.3.8 8.8"/><path id="XMLID_637_" class="st3" d="m547.5 663.6 59.8-5.5 9.8 58.3-71.8 3.4z"/></g></g><g id="XMLID_864_"><path id="XMLID_865_" class="st9" d="M618 675.9h-13c.3 2.8.7 5.8 1 8.7h14.3c-.7-3-1.6-5.8-2.3-8.7z"/><path id="XMLID_869_" class="st8" d="M620.5 684.6h-14.3c.4 3.5.9 6.9 1.4 10.3H624c-1.4-3.4-2.5-6.9-3.5-10.3z"/><path id="XMLID_881_" class="st8" d="M614.1 652.4c-.1-3.5-9.8-4.8-10.6.4-.3 1.8.3 11.4 1.6 23H618c-2.1-8-3.6-16-3.9-23.4z"/><path id="XMLID_882_" class="st8" d="M629 708.3h-19.3c1.7 9.3 3.7 16.4 5.5 17.5 5.8 3.4 20.2-1.5 18.1-7.1-.6-1.5-2.2-5.2-4.3-10.4z"/><path id="XMLID_883_" class="st9" d="M623.8 694.8h-16.4c.7 4.8 1.4 9.3 2.2 13.6h19.3c-1.5-3.9-3.2-8.5-5.1-13.6z"/></g><g id="XMLID_664_"><path id="XMLID_648_" class="st3" d="M603.4 652.9c-.9 5.2 6 69.7 11.7 73.1 5.8 3.4 20.2-1.5 18.1-7.1-2.2-5.6-18.1-40.4-19.2-66.3-.1-3.8-9.7-5.1-10.6.3z"/><path id="XMLID_654_" class="st3" d="m618.4 717.8 2.6 8"/><path id="XMLID_655_" class="st3" d="m625.1 716 3.7 8.7"/></g><g id="XMLID_665_"><g id="XMLID_871_"><path id="XMLID_872_" class="st8" d="m551.5 655.2-16.6 4.8-4.2 15.7h22c0-15.2-1.2-20.5-1.2-20.5z"/><path id="XMLID_873_" class="st9" d="m537.4 730.2 9.6 5.2s1.1-4.6 2.3-12.9l-15.1-1 3.2 8.7z"/><path id="XMLID_874_" class="st9" d="M552.6 675.9h-22l-2.4 8.7h24.3c.1-3.3.1-6.2.1-8.7z"/><path id="XMLID_875_" class="st9" d="m552.1 695-26.6.1-.4 1.7 4.3 11.6h21.7c.3-4.1.6-8.5 1-13.4z"/><path id="XMLID_876_" class="st8" d="M552.2 691.3c.1-2.4.2-4.7.2-6.7h-24.2l-2.8 10.5 26.6-.1c.1-1.2.2-2.4.2-3.7z"/><path id="XMLID_877_" class="st8" d="m529.3 708.3 4.9 13 15.1 1c.5-3.9 1.2-8.6 1.6-13.9h-21.6v-.1z"/></g><path id="XMLID_629_" class="st3" d="m537.4 730.2 9.6 5.2s3.9-16.4 5.2-44c1.3-27.6-.8-36-.8-36l-16.6 4.8-9.9 36.7 12.5 33.3z"/></g></g><g id="XMLID_861_"><path id="XMLID_636_" class="st4" d="M486.4 596.8s43-3.9 49.9 0c6.9 3.9 8.6 46.8 4.9 61.2-3.8 14.4-34.6 11.3-34.6 11.3l-29.3-39.7 9.1-32.8z"/><path id="XMLID_668_" class="st4" d="M529.3 765.4s3.3-2.4 2.2-9.3c8.7-15-4.3-37.9-4.3-37.9l-26.5 4.6-6.8 33.3 10.4 9.3h25z"/><g id="XMLID_860_"><path id="XMLID_676_" class="st6" d="M550.8 772.2s26.2 13 58.3 23.2c-5.6 15.5-18.2 22.4-18.2 22.4l-40-22.8-9.1-17.6 9-5.2z"/><g id="XMLID_859_"><path id="XMLID_672_" class="st0" d="M550.8 759.5s10.3 10.9 7.9 17c-2.4 6.2-11.9 13.8-11.9 13.8l-15.5-8.4-8.4-16.5 16.6-11.4 11.3 5.5z"/><g id="XMLID_858_"><path id="XMLID_670_" class="st0" d="M530.9 759.5c-.4-4.5 2.6-14.9 5.5-18.2 2.9-3.4 18.6-2 20.4 2.4 1.8 4.3-.5 17.2-4.2 19.5-3.7 2.3-21.3.7-21.7-3.7z"/><path id="XMLID_673_" class="st3" d="m546.7 751.4-5.1 12.6"/><g id="XMLID_856_"><path id="XMLID_674_" class="st4" d="M529.8 764s11 14 18.5 19c7.4 5.1 21.8 8.7 28.4 12.3s12.4 10.9 15.6 15.5c3.3 4.7 3.9 12.3 2.2 14.9-1.7 2.5-35.3.3-36.9-2.9-1.6-3.3 0-13.8 0-13.8l-37.5-2.5s-3.5-19.2-3.8-20.3 13.5-22.2 13.5-22.2z"/><g id="XMLID_678_"><path id="XMLID_680_" class="st2" d="m535.1 770.4-18.5-2.2s6-6.2-8.5 1.4c-14.4 7.6-14.5 27.5-14.5 27.5l40.2 10.3s-5.1-7.3-2.6-17.3c2.6-10 9.6-13.8 9.6-13.8-2.1-1.9-3.9-4-5.7-5.9z"/></g><path id="XMLID_677_" class="st3" d="M562.7 812.7v12.1"/><path id="XMLID_679_" class="st3" d="M569.8 812.7v13.2"/><path id="XMLID_681_" class="st3" d="m576.7 812.7.2 13.2"/><path id="XMLID_682_" class="st3" d="m585.5 813.7.8 13.3"/><path id="XMLID_669_" class="st0" d="M504.1 760.2c5.1-2 15 2.8 18.7 1.4 5.5-2.2 5.2-5.4 8.7-5.4 5.4-.1 9.2 14.1 0 16.8-6.4 1.8-21.4 1.8-25.9-.4-4.7-2.3-6.6-10.4-1.5-12.4z"/><path id="XMLID_675_" class="st2" d="M494.7 807.4c-6.1-2.3-5.8-8.6-1.1-10.3 4.7-1.7 61.1 10.3 63.8 11.9 2.7 1.6 1.6 8.7-1.8 8.7-3.4.1-57.5-9-60.9-10.3z"/></g></g></g></g><g id="XMLID_601_"><path id="XMLID_671_" class="st6" d="M524.4 727s-.3 14.4 1.2 19.9c1.5 5.4 17.7 4 17.7-2.2s-5.8-14.5-5.8-14.5l-7.7-11.2-5.4 8z"/><g id="XMLID_639_"><path id="XMLID_649_" class="st10" d="M541.2 658.1c-2-3-29.9-1.8-29.9-1.8l-3.1 47.7 31.3 1.1c1.4-20.1 2.9-45.2 1.7-47z"/><path id="XMLID_650_" class="st0" d="m508.2 703.9-.8 11.7 31 2.3c.3-3.8.7-8.1 1-12.8l-31.2-1.2z"/></g><g id="XMLID_638_"><path id="XMLID_651_" class="st2" d="m507.3 715.6-.7 11.8 10.8.9 1.7-11.9z"/><path id="XMLID_652_" class="st2" d="m538.5 717.8-10.2-.8-.9 12.2 10.1.9c-.1.1.3-4.9 1-12.3z"/><path id="XMLID_653_" class="st2" d="m519.1 716.4-1.7 11.9 10 .9.8-12.1z"/></g></g></g><g id="XMLID_123_"><g id="XMLID_641_"><path id="XMLID_642_" class="st2" d="M514.9 626.6c-5.2-21.8-30.2-27.4-30.2-27.4L456.2 660l60 9.8c.9-19.4.4-36.1-1.3-43.2z"/><path id="XMLID_643_" class="st1" d="M432.7 746.7c.8 20.1 47.8 30.9 64.3 21.2 6.3-3.7 11.2-21.9 14.4-44.3L438 710.9c-3 12.7-5.7 26.7-5.3 35.8z"/><path id="XMLID_644_" class="st1" d="m516.4 669.8-60-9.8-10.1 21.5s-.9 2.7-2.1 7.1l70.2 11.6c.9-10.3 1.5-20.7 2-30.4z"/></g><g id="XMLID_623_"><path id="XMLID_626_" class="st2" d="m514.3 700.1-20.6-3.4-3.8 23.1 21.7 3.7c1-7.5 1.9-15.4 2.7-23.4z"/><path id="XMLID_640_" class="st2" d="M444.1 688.6c-1.6 5.5-3.9 13.7-6 22.5l17.7 3 5.2-22.7-16.9-2.8z"/><path id="XMLID_645_" class="st2" d="m460.9 691.3-5.2 22.7 12 2 4.7-22.8z"/><path id="XMLID_646_" class="st7" d="m472.4 693.2-4.7 22.8 9.6 1.7 4.4-22.9z"/><path id="XMLID_647_" class="st2" d="m481.7 694.8-4.4 22.9 12.6 2.1 3.8-23.1z"/></g></g><g id="XMLID_841_"><path id="XMLID_621_" class="st4" d="M481.3 613.8s17.9 4.3 23.3 24c5.4 19.6 0 51.6-20.6 57.6s-46.4-11-46.4-11l43.7-70.6z"/><path id="XMLID_624_" class="st3" d="M470.1 648.5s15 1.6 16.3 13.4"/></g><path id="XMLID_686_" class="st4" d="m339.5 645.1-3.7 21 8.6 11 9.8-3.6 46.5-1.6-5.5-30.3-41.7.2z"/><g id="XMLID_840_"><path id="XMLID_683_" class="st6" d="M366.5 630.7c-5.1 3.8-4 16.8 0 19.5s27.1 0 27.1 0l.7 18.2s-19.3-3.6-24.2 1c-5 4.6-2.1 16.2 3 18.5 5 2.3 32.7-3.4 32.7-3.4l-5.8-57.9s-28.4.3-33.5 4.1z"/><g id="XMLID_839_"><g id="XMLID_625_"><path id="XMLID_627_" class="st0" d="m397.5 626.6 3.4 68.4c4.1.2 9.3.3 14.8.3l9.2-76.1-27.4 7.4z"/><path id="XMLID_628_" class="st10" d="m427.2 618.6-2.5.7-9.2 76.1c17.4.1 37.7-.7 38.9-2 2.2-2.2 14-42.3 14-42.3l-41.2-32.5z"/></g><g id="XMLID_630_"><path id="XMLID_631_" class="st2" d="m398.3 644.5-11.1-.3c.2 3.7.5 7.8.8 12.2h10.9l-.6-11.9z"/><path id="XMLID_632_" class="st2" d="m397.5 626.6-11.1 3s.3 6.1.9 14.5l11.1.3-.9-17.8z"/><path id="XMLID_633_" class="st2" d="M390.9 693.5c.2.8 4.1 1.2 10 1.5l-.8-15.4-10.4.2c.4 7.4.8 12.9 1.2 13.7z"/><path id="XMLID_634_" class="st2" d="M388.7 667.4c.3 4.5.5 8.7.9 12.4l10.4-.2-.7-12.5-10.6.3z"/><path id="XMLID_635_" class="st2" d="M398.9 656.2H388c.2 3.7.4 7.5.8 11.2l10.7-.2-.6-11z"/></g></g></g><g id="XMLID_133_"><path id="XMLID_622_" class="st0" d="M405.8 636.8c31.3 1.5 66.5 26.8 66.5 26.8l28.2-97.5-45.1-18.5-28.3 29.1c.1.1-32.4 35.1-21.3 60.1z"/><path id="XMLID_135_" class="st2" d="M331.9 542.2s-24.3 17.2-19.4 48.1c4.9 30.9 30.8 40.6 55.5 43.6 24.6 3 37.9 2.8 37.9 2.8l23.3-47.9-40.2-58.4-57.1 11.8z"/></g><g id="XMLID_608_"><g id="XMLID_830_"><path id="XMLID_831_" class="st8" d="M464.6 556.9v9.9s40.3 12.4 44.9 5.8c1.4-2 1.8-5.9 1.8-10.6-5.9 1-23.7 3.2-46.7-5.1z"/><path id="XMLID_832_" class="st9" d="M511.4 561.9c-.1-11.2-3.1-27-5.1-32.2-2.7-7.4-20.1-11.6-20.1-11.6l-21.6 11.8v27c23 8.3 40.8 6.1 46.8 5z"/></g><path id="XMLID_610_" class="st3" d="M464.6 566.8s40.3 12.4 44.9 5.8c4.7-6.6-.5-35.5-3.3-42.9-2.7-7.4-20.1-11.6-20.1-11.6l-21.6 11.8v36.9z"/><path id="XMLID_611_" class="st3" d="M477.7 560.7v9.9"/><path id="XMLID_612_" class="st3" d="m488.3 563-.5 9.4"/><path id="XMLID_620_" class="st3" d="M498.4 563v11"/></g><g id="XMLID_140_"><g id="XMLID_822_"><path id="XMLID_823_" class="st9" d="m430.5 501.6-12.3-23-79.9-23.4c-1.3 4.6-2.7 8.8-4.1 12.9l96.2 34.2.1-.7z"/><path id="XMLID_824_" class="st8" d="M305.4 531.2c0 4.9 6.5 8.4 9.3 4.7-3.1 6.7 6.9 10.3 10.9 5.4-2.1 6.5 6.7 9.2 9.9 4.9 3.1-4.3 10.6-1.1 9.2 4-1.4 5.1 3.4 7.4 8.8 5-1.5 6 7.5 8.8 9.3 4.7 1.8-4.2 9.1 12.9 13.7 6.8-2.7 4.8 4.3 10.2 8 4 1.8 5.1 11.7 5.9 11.7 5.9l6.8-2.4 2.6-6.9-95.6-45.9c-2.8 5.1-4.6 8.2-4.6 9.8z"/><path id="XMLID_825_" class="st8" d="M390.1 425.6s-47.1 12.9-49.9 22.8c-.7 2.3-1.3 4.5-2 6.5l79.9 23.4-28-52.7z"/><path id="XMLID_826_" class="st8" d="m430.3 502.1-96.2-34.2c-1.6 4.7-3.3 9.1-4.9 13.2l95.1 36.8 6-15.8z"/><path id="XMLID_827_" class="st9" d="M329.2 481.2c-7.4 18.8-14.7 31.9-19.2 40.1l95.7 45.8 18.6-49.1-95.1-36.8z"/></g><g id="XMLID_816_"><path id="XMLID_134_" class="st3" d="M396.3 576.4s-9.9-.8-11.7-5.9c-3.6 6.2-10.6.8-8-4-4.6 6.1-11.7-11-13.7-6.8-1.8 4.2-10.9 1.4-9.3-4.7-5.5 2.4-10.3.2-8.8-5 1.4-5.1-6-8.4-9.2-4-3.3 4.3-11.9 1.5-9.9-4.9-3.9 4.9-14.1 1.3-10.9-5.4-2.8 3.7-9.3.2-9.3-4.7s20.1-30.1 34.7-82.6c2.7-9.9 49.9-22.8 49.9-22.8l40.4 75.9-27.4 72.4-6.8 2.5z"/><path id="XMLID_137_" class="st3" d="m387.8 563.7-3.2 6.9"/><path id="XMLID_138_" class="st3" d="m376.5 566.6 2.7-5"/><path id="XMLID_139_" class="st3" d="m357 548.2-3.5 6.8"/><path id="XMLID_819_" class="st3" d="m335.5 546.1 3.8-7.1"/><path id="XMLID_818_" class="st3" d="m327.9 534.4-2.3 6.7"/><path id="XMLID_136_" class="st3" d="m314.8 535.7 3.6-7.1"/></g></g><g id="XMLID_828_"><g id="XMLID_821_"><g id="XMLID_820_"><g id="XMLID_852_"><path id="XMLID_857_" class="st6" d="M384.6 570.6c-2 3.4-5 3.3-6.8 1.7-.1.5-.2 1.1-.2 1.7 0 3.9 3.1 7.1 7.1 7.1 3.4 0 6.3-2.4 6.9-5.5-2.9-.9-6.2-2.3-7-5z"/></g><circle id="XMLID_130_" class="st6" cx="393.5" cy="599.6" r="7.1"/><circle id="XMLID_131_" class="st6" cx="455.6" cy="613.8" r="7.1"/><circle id="XMLID_132_" class="st6" cx="471.7" cy="599.6" r="7.1"/><g id="XMLID_833_"><path id="XMLID_834_" class="st6" d="M467.4 574c0 3.9 3.1 7.1 7.1 7.1s7.1-3.1 7.1-7.1c0-1-.2-2-.5-2.8-4.1-1-7.9-2-10.9-2.8-1.7 1.3-2.8 3.3-2.8 5.6z"/></g></g><g id="XMLID_699_"><circle id="XMLID_118_" class="st2" cx="425.7" cy="646.7" r="15.8"/><circle id="XMLID_119_" class="st3" cx="425.7" cy="646.7" r="6.2"/><g id="XMLID_698_"><g id="XMLID_121_"><path id="XMLID_122_" class="st10" d="m446.2 622.9-4.3-35.3-24.5-1.8-8 36c4.3 1.2 10.1 2.2 17.9 2.4 7.9.2 14-.4 18.9-1.3z"/><path id="XMLID_124_" class="st0" d="M427.1 624.2c-7.8-.2-13.6-1.2-17.9-2.4l-2.1 9.1c4.5 1.5 10.9 2.8 20 3 8.7.2 15.3-.5 20.2-1.5l-1.2-9.6c-4.8 1-10.9 1.6-19 1.4z"/></g><g id="XMLID_125_"><path id="XMLID_126_" class="st2" d="M427.1 634c-3.6-.1-6.8-.3-9.7-.8l-1.2 7.4c3 .5 6.7 1 11.5 1.1l-.6-7.7c.1 0 0 0 0 0z"/><path id="XMLID_127_" class="st2" d="m407.1 630.9-1.3 6s2.5 2.3 10.5 3.8l1.2-7.4c-4.3-.6-7.6-1.5-10.4-2.4z"/><path id="XMLID_128_" class="st2" d="m427.2 634 .5 7.8c3 .1 6.5.1 10.4-.1l-.5-7.9c-3 .2-6.5.3-10.4.2z"/><path id="XMLID_129_" class="st2" d="M447.3 632.3c-2.7.5-5.9 1.1-9.7 1.3l.5 7.9c3.1-.1 6.5-.4 10.2-.8l-1-8.4z"/></g><circle id="XMLID_117_" class="st6" cx="432.4" cy="585.8" r="18.9"/></g></g></g><path id="XMLID_120_" class="st5" d="M396.3 537.1s-12.3 44 0 59.2c12.3 15.2 59.6 23.1 68.3 5.1 8.8-18.1 4.6-73.9 4.6-73.9l-72.9 9.6z"/></g><path id="XMLID_575_" class="st6" d="m619.6 409.1 5-54.6 16.5 1.1-10.8 50.4z"/><path id="XMLID_573_" class="st0" d="M628.4 393.2c.3-1.2 6.8-40.6 6.8-40.6l18.7 6-13.8 36.7-11.7-2.1z"/><path id="XMLID_301_" class="st4" d="M523.3 403s81.6 14.7 86.2 13.6c4.6-1.2 15.8-24.4 20.5-29 4.7-4.5 13.8-2.9 12.7 1.8-1.1 4.7-16.3 30.7-16.3 30.7v30.7l-8.4 9s-7.9 6.9-15.2 6.2-11-7.4-11-7.4l-16.1-10.1-72.3 4.5 2-32.9 17.9-17.1z"/><path id="XMLID_773_" class="st6" d="M514.9 393.2c.1 0 .4-.1 1.1-.3 2.6-.8 9.2-2.5 9.2-2.5l2.1 18.8 2.8 8.5-10.4 14-16.1-5.2-15.8-5.2 1.5-11.9 16.3-3.1 9.3-13.1z"/><path id="XMLID_4_" class="st4" d="M499 354.5c1 5.2-.9 19.3 1.4 23.6 7.2 13 21.5 17.7 26.8 20.8 6.1 23.9-9.4 31.3-9.4 31.3s5.8 14.4-3 15.5c-4.8 1.7-4.9 6.8-4.9 6.8s-.9 6.4-3.5 7.5c-5 2.2-2.7 2.3-7.1 1.5-4.3-.8-10.5 19.9-32.6 19.9s-26.4-9.1-26.4-9.1l-24.6-21 4.7-88.3 25.3-25.7s50.9-7.3 47.4 1.8c-3.5 9.4 4.9 10.2 5.9 15.4z"/><path id="XMLID_20_" class="st3" d="M423.8 483.4s.7 16.1-2.2 28.2"/><g id="XMLID_82_"><path id="XMLID_96_" class="st10" d="M310.8 188.9s-32.1-5.4-51-1.4c-18.8 4-43.4 24.2-66.2 30.7s-44.2 4.7-49.6 4.7c-5.4 0-1.8 9.4 2.2 11.3 4 1.8 35.8 2.4 54.6-5 18.8-7.4 62.6-23 62.6-23h57.3v-11.5l-9.9-5.8z"/><path id="XMLID_86_" class="st10" d="M316.5 202.6s-33.1-6.3-57 2.5-48.4 33.7-73.1 46.5c-25.2 13.1-40.5 16.8-42.7 20.6-2.2 3.8 5.1 7.5 12.3 4.9 7.2-2.6 24.3-7.1 38.3-15.2 14-8.1 42.3-25.6 42.3-25.6l79.8-14.5v-19.2z"/><path id="XMLID_98_" class="st10" d="M310.8 217.1s-43.2-12.2-85.9 28.9c-14.9 14.3-29.2 27.5-41.6 37.1-23.1 18.1-39.3 27.1-39.3 29.2 0 3.3 11.1 3.3 17.7-.5 18.5-10.6 60.3-45.3 74.1-59.1C249.7 238.9 284 238 284 238h30l-3.2-20.9z"/><path id="XMLID_99_" class="st10" d="M266.3 236.3s-31.8 27.2-54 52.8S162 342 162 345.2c0 3.3 8.6 2.8 13.4-1 4.8-3.9 13-9.8 45.6-50.7s76.1-48.6 76.1-48.6v-11.7l-30.8 3.1z"/><path id="XMLID_100_" class="st10" d="M302.5 243s-31.7-7.2-71.5 52.7-52.9 75.9-52.9 79.5c0 3.6 11 1.8 14.9-2.9 3.9-4.8 29.6-36.5 54-73.9 24.3-37.5 48.5-35.8 48.5-35.8l17.4-2.3-10.4-17.3z"/></g><path id="XMLID_107_" class="st3" d="m488.1 160.1-3.6 9.6"/><path id="XMLID_109_" class="st3" d="m477.3 166.5 2-8.8"/><path id="XMLID_104_" class="st3" d="m469.3 156.3-.2 8.3"/><path id="XMLID_114_" class="st3" d="M405.9 393s-8.8 14.5-15.8 19"/><path id="XMLID_116_" class="st6" d="M375.7 549.8c0 6.3 13.8 12.8 20.6 9.6s10.6-18.1 10.6-18.1l5.2 2.9s-1.8 18.5-.9 21.7c.9 3.3 12.9 5.1 16.5 0 3.5-5.1-1.6-18.9-1.6-18.9l15.7-.9s-3 15.8 3.7 19.8 13.9-.8 15.2-5.4c1.3-4.7-5.8-17.8-5.8-17.8L469 539s3.8 14.5 10.5 17.2c6.7 2.6 13.8-4.3 13.4-9.6-.3-5.2-10.2-15.4-10.2-15.4l10.5-7.2s13 12.6 17.4 13c4.3.4 10.9-10 8.4-14.1s-18.1-5.2-18.1-5.2l-25.3-6-47.1 25.3-18.6-2.3-16.5-10-16.9 10c0-.1-.8 8.7-.8 15.1z"/><path id="XMLID_179_" class="st3" d="m318.7 254.3-23.6.5"/><path id="XMLID_173_" class="st3" d="m316 332.8 17.8-12.8"/><path id="XMLID_185_" class="st3" d="M401.7 361.8c5.8-7.4 6.8-14.4 6.8-14.4"/><g id="XMLID_716_"><g id="XMLID_719_"><path id="XMLID_720_" class="st11" d="M360.5 565.1c-2.9 6.5 7.8 8.8 11.2 2.5.9-1.7 2.5-4.7 4.2-8.3l-10.5-5.1c-2.2 5-4.1 9-4.9 10.9z"/><path id="XMLID_727_" class="st11" d="M336.6 544.2c-2.5 3.5 2.3 8.4 9.4 6.7 2.4-.5 6.9-4.3 11.8-9l-10.3-9.4c-5.5 6-9.7 10-10.9 11.7z"/><path id="XMLID_728_" class="st12" d="M405.1 436h-15s-11.2 44.6-23.1 68.1c-6.2 12.3-13.6 21.6-19.4 28.3l10.3 9.4c9.4-9.2 20.4-22 20.4-22l-1.1 9.2s-6.7 14.4-11.7 25.4l10.5 5.1 11.3-22.6 16-2.3 14.1-39.9-12.3-58.7z"/></g><path id="XMLID_115_" class="st3" d="M367 504c-11.9 23.4-27.9 36.6-30.4 40.2-2.5 3.5 2.3 8.4 9.4 6.7 7.2-1.6 32.2-31 32.2-31l-1.1 9.2s-13.8 29.6-16.6 36.2c-2.9 6.5 7.8 8.8 11.2 2.5s15.5-30.8 15.5-30.8l16-2.3 14.1-39.9-12.1-58.8h-15c-.1 0-11.3 44.6-23.2 68z"/><g id="XMLID_110_"><g id="XMLID_722_"><path id="XMLID_723_" class="st11" d="M352.3 472.5c-2 4 5.6 9.1 11.1 9.1 3 0 7.4-2.6 12.6-7.7l-12.4-10.4c-5.6 4.7-10.2 6.7-11.3 9z"/><path id="XMLID_724_" class="st11" d="M374.1 406c-3.7 1.4-3.5 11.2 3.3 11.6 2.3.1 5.2-.9 8.5-2.8l-5.1-11.2c-2.8 1.2-5 1.7-6.7 2.4z"/><path id="XMLID_725_" class="st12" d="M497.7 325.5c-2.6-13.9-59.2-17-59.2-17l-42.2 6.1s3 1.3 3.5 8.8c1 20.1-4.7 29.3-10.6 33.8l7.8 10.3c1.4-1.3 2.9-3.1 4.8-5.6-2.5 17-3.7 20.6-9.1 30.4-3.7 6.5-8 9.7-11.7 11.4l5.1 11.2c1.3-.8 2.7-1.7 4.1-2.8-4 16.5-8.8 27.6-13.1 35.3s-9.1 12.7-13.4 16.3L376 474c4.1-4 8.7-9.7 13.5-16.8 10.9-16.2 45.9-47.4 45.9-47.4v-37.2s7.1-19 19.9-24.6c12.8-5.6 28.9-7.9 32 2.9 3.1 10.9 6.4-.3 7.5-.3 1-.2 5.5-11.3 2.9-25.1z"/><path id="XMLID_726_" class="st11" d="M376.3 362.9c-.8 2.9 5.6 8.6 11.9 8.4 2.8-.1 5.1-.4 8.6-3.8l-7.8-10.3c-6 4.4-12.3 4.3-12.7 5.7z"/></g><path id="XMLID_721_" class="st3" d="M396.3 314.6s3 1.3 3.5 8.8c2 40.3-22.6 36.6-23.3 39.5-.8 2.9 5.6 8.6 11.9 8.4 4-.1 6.9-.8 13.4-9.4-2.5 17-3.7 20.6-9.1 30.4-6.4 11.3-14.7 12.4-18.3 13.8s-3.5 11.2 3.3 11.6c3.3.2 7.8-1.8 12.7-5.6-4 16.5-8.8 27.6-13.1 35.3-10.3 18.1-22.7 21.3-24.6 25.3-2 4 5.6 9.1 11.1 9.1s15.2-8.4 26.1-24.6c10.9-16.3 45.9-47.4 45.9-47.4v-37.2s7.1-19 19.9-24.6c12.8-5.8 28.9-7.9 32 2.9 3.1 10.9 6.4-.3 7.5-.3s5.6-10.9 3-24.6c-2.6-13.8-59.4-17.2-59.4-17.2l-42.5 5.8z"/></g></g><g id="XMLID_772_"><g id="XMLID_771_"><g id="XMLID_31_"><path id="XMLID_32_" class="st10" d="M449 522.5c21.2-7.5 32.2-20.4 37-27.8-2.7-2.2-5.6-4.5-8.5-6.7-9.4 10.1-35 33.1-67.7 26.8-.4 2.5-.9 5-1.4 7.5 5.1 3.1 17.8 8.2 40.6.2z"/><path id="XMLID_33_" class="st10" d="M477.7 488c-13.6-10.9-27-21.8-28.7-23.3-3.3-3.4-13.8-3.3-13.8-3.3l-23.1 32.9s-.4 9.6-2.3 20.5c32.9 6.3 58.5-16.7 67.9-26.8z"/><path id="XMLID_35_" class="st0" d="M459.3 538.8c26.1-7.6 38.3-22.6 43.3-30.9-3.9-3.1-9.9-7.8-16.4-13.1-4.9 7.4-15.8 20.3-37 27.8-22.8 8-35.5 2.9-40.6-.2-1.2 5.3-2.6 10.4-4.6 14.7 8 3.5 27.5 9.7 55.3 1.7z"/></g><g id="XMLID_19_"><path id="XMLID_21_" class="st2" d="m437 542.6 1.5 9.8c3.7-.4 7.8-1.1 12.6-2l-2.4-9.1c-4.1.7-8 1.2-11.7 1.3z"/><path id="XMLID_30_" class="st2" d="m417.2 541.1-1.3 9.7c3 1 6.3 1.6 10.1 1.8v-10.3c-3.1-.2-6-.6-8.8-1.2z"/><path id="XMLID_34_" class="st2" d="M426.1 542.5v10.3c3.6.2 7.6.1 12.4-.3l-1.5-9.8c-3.9.1-7.5 0-10.9-.2z"/><path id="XMLID_36_" class="st2" d="M403.9 536.9c-1.2 2.6-2.6 4.9-4.2 6.5 6 2.9 10.7 5.6 16.3 7.4l1.3-9.7c-5.9-1.1-10.4-2.8-13.4-4.2z"/><path id="XMLID_37_" class="st2" d="m477.7 531.2 5 8.4c6.3-3.8 11.1-8 14.8-12.1l-6.2-6.1c-3.7 3.4-8.2 6.7-13.6 9.8z"/><path id="XMLID_38_" class="st2" d="M459.3 538.8c-3.7 1.1-7.2 1.8-10.5 2.5l2.4 9.1c2.9-.5 6.2-1.3 9.6-2.2 1.7-.4 3.4-.9 5-1.4l-3.6-9c-1.1.4-2.1.6-2.9 1z"/><path id="XMLID_39_" class="st2" d="M502.6 507.8c-2.2 3.7-5.8 8.6-11.3 13.7l6.2 6.1c7.6-8.5 10-15.8 10-15.8s-2-1.6-4.9-4z"/><path id="XMLID_40_" class="st2" d="m462.1 537.9 3.6 9c6.6-2.1 12.3-4.6 17-7.4l-5-8.4c-4.6 2.6-9.8 4.8-15.6 6.8z"/></g></g><g id="XMLID_701_"><path id="XMLID_18_" class="st2" d="M399.7 506.5s-10.3-1.8-17.6 1.1c-7.3 2.9-13.2 10.6-8.4 25.9 3.6 11.3 21 14.5 31.5 11.3 10.5-3.3 14.1-23.9 16.3-33.3 4.6 1.8 18.1 4.3 19.9.8 1.7-3.6-4.8-35-2.2-48.1 2.6-13.1-29.5-21.4-29.5-21.4l-10.1 6.8 1.6 49.6-1.5 7.3z"/><path id="XMLID_13_" class="st2" d="M396.3 453.9s2.5 67.1-3.3 67.8-5.8-4.7-8.4-4c-2.5.8-5.4 5.4-2.5 11.9 2.9 6.5 14.4 7.9 19.9-4 5.4-11.9 3.6-64.4 3.6-64.4l-9.3-7.3z"/><g id="XMLID_700_"><path id="XMLID_12_" class="st0" d="M405.3 429.1s-18.1 25.3-18.1 30c0 4.7 6.8 7.6 9 3.3 1.1 5.8 12.3 7.3 14.1 3.6.8 6.8 10.5 5.3 11.2 1.8 2.9 7.3 13.8 5 13.8.3 1.4 4.3 7.3 3.9 8.7 0s-2.2-31.3-2.2-31.3l-36.5-7.7z"/><path id="XMLID_14_" class="st3" d="M403.1 450.8s-6.8 3.3-6.8 11.6"/><path id="XMLID_15_" class="st3" d="m412.1 456.6-1.7 9.4"/><path id="XMLID_16_" class="st3" d="m422.3 459.1-.7 8.8"/><path id="XMLID_17_" class="st3" d="M435.4 459.1v9.1"/><circle id="XMLID_8_" class="st5" cx="426.1" cy="426.7" r="23"/><circle id="XMLID_11_" class="st0" cx="426.1" cy="426.7" r="9.2"/></g></g></g><g id="XMLID_753_"><path id="XMLID_298_" class="st6" d="M561.1 396.5s-11.4-5.2-17.2-5.2c-5.8 0-9.6 15-6.3 18.2s16.3 5.8 16.3 5.8L553 434s-14.1-.1-18.6 3c-4.5 3.1-1.7 14.8 2.8 16.8s22-2.8 22-4.1 1.9-53.2 1.9-53.2z"/><g id="XMLID_302_"><path id="XMLID_304_" class="st10" d="m600.9 405.1-21.7-8.5c-3.9 4.7-8.4 12.7-10.3 26.1-2.5 17-.8 29.6 1.5 37.2l16.4-.3 14.1-54.5z"/><path id="XMLID_524_" class="st0" d="M568.9 422.6c2-13.4 6.4-21.4 10.3-26.1l-10.2-4c-4 4.6-8.9 12.7-11 26.8-2.9 19.9-.1 33.8 2.8 40.7l9.7-.2c-2.4-7.6-4.1-20.2-1.6-37.2z"/></g><g id="XMLID_527_"><path id="XMLID_528_" class="st2" d="m548.1 448.5 9.6-1.3c-.5-3.9-.9-8.4-.8-13.5l-10.2.8c.2 5.5.7 10.1 1.4 14z"/><path id="XMLID_529_" class="st2" d="m551.3 460.2 9.6-.2c-1.2-2.9-2.5-7.3-3.3-12.8l-9.6 1.3c1.5 7.5 3.3 11.7 3.3 11.7z"/><path id="XMLID_530_" class="st2" d="m546.6 434.5 10.2-.8c.1-3.4.3-6.9.8-10.7H547c-.4 4.1-.5 8-.4 11.5z"/><path id="XMLID_531_" class="st2" d="M555.2 396.8c-2 2.6-4 6.1-5.5 11l10.6 1.4c1.1-3.5 2.3-6.3 3.5-8.8l-8.6-3.6z"/><path id="XMLID_532_" class="st2" d="m547.2 419.7-.3 3.3h10.6c.1-1.2.3-2.4.4-3.6.5-3.8 1.3-7.3 2.3-10.2l-10.6-1.4c-1 3.3-1.9 7.2-2.4 11.9z"/><path id="XMLID_533_" class="st2" d="m569.1 392.5-5.9-2.3s-3.9 1.3-7.9 6.5l8.6 3.5c1.6-3.2 3.5-5.7 5.2-7.7z"/></g><g id="XMLID_525_"><path id="XMLID_526_" class="st6" d="M570.2 498.1c0 5.2 23.8 8.6 26.2 4.6 1.5-2.5-.5-12.8-.9-28.3l-19.6-1.4c-3 11.7-5.7 22.8-5.7 25.1z"/><path id="XMLID_534_" class="st0" d="M598.5 439.9c6.8-33.9 14.4-51.5 14.4-55s-10.5-4.5-11.9.3c-1.4 4.8-16.6 56.2-16.6 56.2s-4.5 16.3-8.5 31.5l19.6 1.4c-.1-9.7.4-21.4 3-34.4z"/></g><circle id="XMLID_299_" class="st5" cx="596.8" cy="416.4" r="12.7"/><circle id="XMLID_300_" class="st5" cx="591.9" cy="439.9" r="12.7"/></g><path id="XMLID_769_" class="st5" d="M489.2 347.4c-18.8 0-34 15.2-34 34s15.2 34 34 34 34-15.2 34-34-15.2-34-34-34zm0 58.6c-13.6 0-24.6-11.1-24.6-24.6s11.1-24.6 24.6-24.6c13.6 0 24.6 11.1 24.6 24.6S502.9 406 489.2 406z"/><g id="XMLID_81_"><path id="XMLID_87_" class="st4" d="M352.4 321.1c-13 7.6-27.6 29.2-34 29.2-6.4 0-4.7-13.1-2.5-17.4-7.3 1.4-13.7-2.3-12.7-8.4-10.4-4.5-10.4-15.4-1.4-19.4-16 0-15.1-14.5-10.1-18.6-11.7-3.6-5.1-14.8 1.1-18.2-5.8-2.7-4.3-11.8 3.3-13.7-10.1-6.1-4.7-18.9 4.9-18.9 0 0-6.8-9.8 3.9-13.9-6.5-10.1 2.1-14.1 6-14.9-3.4-10.9 9.9-12.3 9.9-12.3s-8.5-4.9 0-10.9c-1.2-6.8 5.6-8.9 11.5-7.9 0-.9-7.5-5.1-3.7-11.6 3.9-6.5 12.8-1.1 12.8-1.1s-6.2-10.4 1.8-14.4 10.2 3.4 10.2 3.4 2.1-16.3 9.6-15.6 2.3 18.5 12.7 36.9-6.2 76.4-6.2 76.4-4 63.7-17.1 71.3z"/><g id="XMLID_755_"><path id="XMLID_756_" class="st0" d="m345.9 138.8-6.6 8.4c11.8 14.3 29.9 33.8 29.9 33.8l7.2-5.8c-1.7-.1-18.1-21.1-30.5-36.4z"/><path id="XMLID_757_" class="st5" d="M332.5 123.2c-2.4-.2-5.3 2.9-3.1 10 .7 2.2 4.8 7.6 10.1 14l6.6-8.4c-7.1-8.7-12.8-15.5-13.6-15.6z"/><path id="XMLID_758_" class="st5" d="M288.1 178c-5.8 0-4.3 5.8-1.1 9.4 1 1.1 6.4 3.4 13.6 6.1l-.1-12.2c-6.3-2-10.9-3.3-12.4-3.3z"/><path id="XMLID_759_" class="st0" d="M300.5 193.4c17.4 6.6 45.1 15.6 45.1 15.6l3.3-10.9s-30.5-11.3-48.5-16.9l.1 12.2z"/><path id="XMLID_760_" class="st0" d="m319.4 243.5-3-8.6s-23.9-2.9-41.1-4.6l1.4 10.9c16.6 1.2 42.7 2.3 42.7 2.3z"/><path id="XMLID_761_" class="st5" d="M263.8 239.6c1.4.4 6.4 1 12.8 1.5l-1.4-10.9c-9.3-.9-16.6-1.4-17.3-.9-1.7 1.5.8 8.6 5.9 10.3z"/><path id="XMLID_762_" class="st0" d="m305.4 287.6-1.4-8.9s-20 3.5-35.5 6.5l5.8 8.8c13.3-2.6 31.1-6.4 31.1-6.4z"/><path id="XMLID_763_" class="st5" d="M268.4 285.2c-9.8 2-17.9 3.7-18.3 4.3-1.1 1.7 3.3 7.7 10.1 6.9 2.2-.2 7.6-1.3 14-2.5l-5.8-8.7z"/><path id="XMLID_764_" class="st5" d="M277.6 339.3c-1.5 5.1 4.6 7.6 8.3 5.1.7-.4 3.1-2.2 6.6-4.6l-4.6-9.7c-5.8 4.6-9.8 8-10.3 9.2z"/><path id="XMLID_765_" class="st0" d="M338.9 294.5s-33.5 22.4-51 35.7l4.6 9.7c15.4-10.7 51.8-36 51.8-36l-5.4-9.4z"/></g><g id="XMLID_749_"><g id="XMLID_225_"><path id="XMLID_254_" class="st1" d="M362.2 247.1c5.4-34.2 21.1-50.6 28.7-56.7-8.3-11.8-12.8-20.7-14.5-20.7-3.3 0-39.8 11.1-43.4 75.8-3.6 64.5 13.4 84.4 19.2 84.4 2.6 0 10.9-7.5 22-16.6-6.6-10.5-17.1-33.3-12-66.2z"/><path id="XMLID_255_" class="st5" d="M423.2 225c-7.3-5.6-13.7-11.7-19.1-17.9-7.7 7.8-22 25.1-23.7 47.4-1.5 20.1 6.5 36 12.3 44.7 10.2-6.9 21.4-13.1 32.5-16.2 32.9-8.8 27.8-35.2-2-58z"/><path id="XMLID_256_" class="st0" d="M380.3 254.6c1.6-22.5 16-39.7 23.7-47.4-2.5-2.8-4.9-5.6-7.1-8.5-7.6 7.2-22 24.2-25.7 51.3-3.8 27.9 6.3 47.9 11.6 56.2 3-2.3 6.3-4.7 9.7-6.9-5.7-8.6-13.7-24.6-12.2-44.7z"/></g><g id="XMLID_748_"><g id="XMLID_69_"><path id="XMLID_79_" class="st2" d="M397 198.6c-2.2-2.8-4.2-5.6-6.1-8.3-3.1 2.6-7.8 6.9-12.5 13.6l8.6 6.2c3.6-5.1 7.3-8.9 10-11.5z"/><path id="XMLID_253_" class="st2" d="m366.2 229.6 9 3.4c1.7-5 3.8-9.6 6-13.6l-9.2-4.5c-2.1 4.4-4 9.3-5.8 14.7z"/><path id="XMLID_257_" class="st2" d="m372 215 9.2 4.5c1.8-3.5 3.8-6.5 5.8-9.2l-8.6-6.2c-2.1 3-4.3 6.7-6.4 10.9z"/></g><g id="XMLID_76_"><path id="XMLID_77_" class="st2" d="M371.3 250c.9-6.2 2.3-11.8 4-17l-9-3.4c-1.6 5.2-3 11.1-4 17.5-3.1 19.9-.4 36 3.6 48.1l9.4-4.7c-3.7-10.2-6.3-24-4-40.5z"/><path id="XMLID_80_" class="st2" d="M369.8 305.1c1.5 3.1 3 5.9 4.3 8 2.7-2.3 5.6-4.6 8.8-6.8-1.2-1.8-2.7-4.3-4.1-7.4l-9 6.2z"/><path id="XMLID_291_" class="st2" d="m375.3 290.5-9.4 4.7c1.2 3.7 2.6 7.1 4 9.9l9-6.3c-1.3-2.5-2.5-5.2-3.6-8.3z"/></g></g></g><g id="XMLID_747_"><path id="XMLID_67_" class="st0" d="M422.7 119.7c-15.6 3.4-24.6 12.7-29.3 19.3l15.2 14.7 41.3-8.6 4.3-25.2c-5.8-1.8-16.1-3.5-31.5-.2z"/><path id="XMLID_63_" class="st2" d="M403.1 122.1s-13-12.5-7.6-25.5 38.3-15.2 44.2-7.6c5.8 7.6 1.1 23.9 1.1 23.9l-37.7 9.2z"/><path id="XMLID_66_" class="st3" d="M413.7 115.8s-4.6-11.2-3.5-15.2c1.1-4 11.5-7.1 14.9-4 3.5 2.9 4.2 16.7 4.2 16.7l-15.6 2.5z"/><path id="XMLID_58_" class="st5" d="M419.7 180.8s-17.7 1.4-19.5-15.2 9.4-27.1 24.8-29.6 39.8 9.8 40.7 18.8c.9 9-1.1 32.6-1.1 32.6l-44.9-6.6z"/><g id="XMLID_70_"><g id="XMLID_64_"><path id="XMLID_65_" class="st2" d="m386.1 132.1 7.3 7.1c2.4-3.5 6-7.6 11.1-11.3L398 120c-8.7 6.2-11.9 12.1-11.9 12.1z"/><path id="XMLID_68_" class="st2" d="M404.1 115.8c-2.3 1.3-4.3 2.7-6.1 4l6.4 7.8c1.7-1.3 3.6-2.5 5.8-3.6l-6.1-8.2z"/></g><path id="XMLID_72_" class="st2" d="M415.8 110.3c-4.5 1.7-8.4 3.6-11.7 5.5l6.1 8.4c3.6-1.8 7.7-3.5 12.5-4.5 1.4-.3 2.8-.5 4.1-.8l-1.2-11.4c-3.2.6-6.4 1.6-9.8 2.8z"/><path id="XMLID_73_" class="st2" d="m425.6 107.6 1.2 11.4c2.2-.3 4.2-.7 6.2-.8v-11.5c-2.4.1-4.8.4-7.4.9z"/><path id="XMLID_74_" class="st2" d="M433 106.7v11.4c9.8-.9 16.8.4 21.2 1.7l1.6-9.6c0 .1-9.4-4.3-22.8-3.5z"/></g></g><g id="XMLID_746_"><path id="XMLID_57_" class="st1" d="M460.7 181.3s-6.4-17.4-17.2-19.9c-10.7-2.5-23-2.2-27.7 9S405 250.1 405 250.1l49.3-.8 16.2-17.4v-41.7l-9.8-8.9z"/><path id="XMLID_710_" class="st3" d="m442.5 210.5 25.5.7"/></g><g id="XMLID_745_"><g id="XMLID_744_"><path id="XMLID_62_" class="st10" d="M480.7 112.4s-3.8-28.9 27.2-42.7c25.5-11.4 75-17.4 80.1-19.5 5.1-2.2 5.2 10.9-4.3 12.7-9.6 1.8-45.3 7.9-63 16.6-17.7 8.7-20.4 27.1-20.4 27.1L480.9 149s-10.7-.3-10.4-1.4c.3-1.1 10.2-35.2 10.2-35.2z"/><g id="XMLID_743_"><path id="XMLID_61_" class="st10" d="M479.3 147.6s8.8-48.1 33.4-58.6c24.6-10.5 87.6-2.5 90.9-2.2s.3 9.6-4 9.4c-4.3-.2-50.3-3-64 1.1-12.8 3.9-19.2 10.3-19.2 10.3l-8.5 4.2-22.4 41.9-6.2-6.1z"/><g id="XMLID_740_"><path id="XMLID_56_" class="st1" d="m468 140 1.8-48.5s11.4-1.4 13.6 11.6c2.2 13-4.1 36.9-4.1 36.9h8s10.9-27.1 18.8-34c7.9-6.8 21.1-5.8 21.1-5.8l-31.9 47.4L468 140z"/><g id="XMLID_739_"><path id="XMLID_60_" class="st0" d="M463.6 158.8s-.3-21.3 1-24.2c1.3-2.9 6.9-3.7 8.4-.4 1.8-2.2 9.4-2.5 10.5 1.5 4.7-1.5 8.5-.4 9.2 2.8 2.7 0 7.7 0 7.7 3.3s-9 21.4-9 21.4l-27.8-4.4z"/><path id="XMLID_742_" class="st3" d="m492.7 138.5-3.8 9.1"/><path id="XMLID_741_" class="st3" d="m480.1 144.1 3.4-8.4"/><path id="XMLID_738_" class="st3" d="m472.9 134.2-1.2 9.2"/></g></g></g></g><path id="XMLID_59_" class="st10" d="M460.7 175.1s-2.4-16-.2-18.8c2.2-2.9 8.5-4 9 0 2.8-2.6 8.8-2.4 10 1.4 2.3-2.5 7.7-1.5 8.8 2.4 3.3-2.7 7.3.2 7.3 2.6s-9.8 16.8-9.8 16.8l-25.1-4.4z"/></g><g id="XMLID_737_"><path id="XMLID_106_" class="st2" d="M612.3 183.8s9.8-5.8 14.1-4.3c4.3 1.4 5.8 23.4 1.8 25.6-3.9 2.2-16-2.5-16-2.5v-18.8z"/><path id="XMLID_108_" class="st3" d="M608.3 187.4s16.6-.8 17 5.1c.3 5.8-15.4 4-15.4 4l-1.6-9.1z"/><g id="XMLID_736_"><g id="XMLID_102_"><path id="XMLID_105_" class="st0" d="m607.5 198.2-.4-12.3-.2-6.9c-3.7.7-7.5 1.8-8.3 3.5-1.7 3.5-1.5 19.5 0 22.1.8 1.3 5.1 2.3 9.3 2.8l-.4-9.2z"/><path id="XMLID_111_" class="st2" d="m614.8 185.9-.3-7.9s-3.8.2-7.6 1l.2 6.9h7.7z"/><path id="XMLID_112_" class="st2" d="m607.1 185.9.4 12.3h8l-.7-12.3z"/><path id="XMLID_113_" class="st2" d="M607.9 207.4c4.1.5 8 .9 8 .9l-.4-10.1h-7.9l.3 9.2z"/></g><g id="XMLID_735_"><circle id="XMLID_101_" class="st5" cx="591.3" cy="193.5" r="12.7"/><g id="XMLID_734_"><path id="XMLID_97_" class="st0" d="M501.4 198.2s15.7 2.1 23.3-9.8c2.7-4.2 7.1.3 6.3 2.9-.9 2.5-3.7 5.1-3.7 5.1s21.3 1.8 32.1-14.4c2.4-3.6 7.6-1.5 7.9 1.8.3 3.6-4.7 7.9-4.7 7.9s23.1-1.8 27.7-2.2c4.6-.3 4.9 10.1-1.2 10.9-6.1.8-88.7 10.2-88.7 10.2l1-12.4z"/><g id="XMLID_733_"><path id="XMLID_49_" class="st2" d="M454.3 243.5s4.9-21.7 4.9-39.1-7.1-32.2 3.4-34.4c10.4-2.2 10.4 5.8 10.4 5.8s7.3-7.9 14.1-1.8-4.3 14.1-4.3 14.1 7.9-6.2 15.5-3.3c7.6 2.9 9 27.5-.3 30.4-9.3 2.9-14.1-2.9-14.9.8-.8 3.6-5.8 28.9-5.8 28.9l-23-1.4z"/><circle id="XMLID_55_" class="st0" cx="491.4" cy="200.4" r="5.8"/><path id="XMLID_103_" class="st0" d="M459.5 239.6s3.4-10.9 6.4-26.8 2.2-21.5 2.2-24.6c0-3.1 7.4-3.3 7.4 0s1.4 11.6-1.1 26.4c-2.5 14.9-7.8 29.3-7.8 29.3l-7.1-4.3z"/></g></g></g></g></g><path id="XMLID_174_" class="st3" d="m341.4 163.1 10.2 10.4"/><path id="XMLID_175_" class="st3" d="m343.2 183.2-11-7.4"/><path id="XMLID_176_" class="st3" d="m320.7 183.8 15.9 6.3"/><path id="XMLID_177_" class="st3" d="m327.4 210.6-16.6-3.7"/><path id="XMLID_178_" class="st3" d="m304.9 221.8 20.8 2.4"/><path id="XMLID_180_" class="st3" d="m292.7 268.2 28-2.1"/><path id="XMLID_181_" class="st3" d="m322 298.1-20.2 6.9"/><g id="XMLID_732_"><g id="XMLID_88_"><path id="XMLID_89_" class="st1" d="m351.1 268.8 1.1 17.7c8.9-1.4 18.1-3 26.6-4.5l-2.5-16.5c-7.9 1-16.6 2.2-25.2 3.3z"/><path id="XMLID_90_" class="st2" d="m338.9 270.4 1.2 18c3.9-.7 8-1.3 12.3-2l-1.1-17.7c-4.3.6-8.4 1.2-12.4 1.7z"/><path id="XMLID_91_" class="st1" d="M301.4 276.8c-4.2 2.9-3.3 16.6 4.3 16.6 2.7 0 16.9-2.2 34.2-4.9l-1.2-18c-19.3 2.6-35.7 5.1-37.3 6.3z"/><path id="XMLID_92_" class="st2" d="m344.2 237.6-2.9 21.1c3.9.2 7.9.4 12.1.5l3-19.6c-4.2-.7-8.2-1.3-12.2-2z"/><path id="XMLID_93_" class="st2" d="M413.2 245.9c-8.3.4-21-.9-34.7-2.8l-1.8 17.2c18 .8 32.4 1.3 32.4 1.3s-14.3 1.7-32.6 4l2.5 16.5c19.6-3.3 35.5-6 35.5-6s26-31.8-1.3-30.2z"/><path id="XMLID_94_" class="st1" d="m356.3 239.6-3 19.6c7.9.3 15.8.8 23.2 1l1.8-17.2c-7-.9-14.6-2.1-22-3.4z"/><path id="XMLID_95_" class="st1" d="M303.6 233.7c-8.7 4.2-9 20.3 2.2 22.5 4 .8 18.6 1.6 35.5 2.5l2.9-21.1c-19.9-3.2-36.7-5.7-40.6-3.9z"/></g><g id="XMLID_305_"><path id="XMLID_306_" class="st1" d="m544.8 288.6 5.9-18.5c-6.4-2-12.6-3.9-18.3-5.6l-5.8 18c5.9 2 12.1 4.1 18.2 6.1z"/><path id="XMLID_307_" class="st2" d="m558.3 293.2 6.4-18.6c-4.6-1.4-9.2-2.9-13.9-4.5l-5.9 18.5c4.5 1.6 9 3.1 13.4 4.6z"/><path id="XMLID_308_" class="st1" d="M592.3 304.6c4.6 1.5 10.3-13.7 8.3-17-.9-1.4-17.3-7.1-36-13l-6.4 18.6c17.6 5.9 32 10.7 34.1 11.4z"/><path id="XMLID_520_" class="st2" d="m501.4 243.3-1 30.4c7.5 2.5 16.6 5.5 26.2 8.8l5.8-18c-13.9-4.2-24.3-7.4-24.3-7.4s10.4.4 24.3 1.1V243c-17.5.2-31 .3-31 .3z"/><path id="XMLID_521_" class="st1" d="M532.3 243v15.2c5.3.2 11.1.5 17 .8v-16.1c-5.8 0-11.6 0-17 .1z"/><path id="XMLID_522_" class="st1" d="M604.9 242.8c-1.6-.2-19.2-.2-39.6 0v16.9c20.2.9 38.2 1.7 39.6 1.7 3.4-.1 3.9-18.1 0-18.6z"/><path id="XMLID_523_" class="st2" d="M549.4 242.8v16.1c5.3.2 10.7.4 16.1.8v-16.9h-16.1z"/></g><g id="XMLID_731_"><path id="XMLID_47_" class="st2" d="M416.9 239.9c-10 3.3-13.8 11-13.8 19.4 0 8.5 4.6 22.3 14.9 23.3s49.9 3.7 64.9 3.3 27-15.5 27-26.2-3.4-19.1-11-21.2-19.6 3.3-43.5 4c-23.8.9-28.6-5.9-38.5-2.6z"/><path id="XMLID_48_" class="st3" d="M454.3 249.2c-23.2 0-30.2-4-37 0-6.8 4-8.8 16.3-1.4 21 7.4 4.7 19.1-.8 39.4-1.4 20.3-.8 36.6 3.3 41.3 0 4.7-3.3 6.2-18.8-1.1-22.8-7.4-3.9-18 3.2-41.2 3.2z"/><path id="XMLID_54_" class="st3" d="M425.1 255.7c-2.9.3-3.8 7.2 1.1 7.2s29.6-2.2 29.6-2.2 29.9 1.1 34.5 1.1 4.3-9.6-2.9-8.3c-7.3 1.3-15.5.8-32.2 2-15.5 1.2-27.2-.1-30.1.2z"/><g id="XMLID_50_"><path id="XMLID_51_" class="st2" d="M439.7 239.5c-6.6 6.8 2.2 44.2 2.2 44.2h7.9l-1.8-48c-3.5.6-6.6 1.9-8.3 3.8z"/><path id="XMLID_52_" class="st2" d="M469.9 239.5c-.8-2.2-4.6-3.6-9.3-4.2l-.2 48.4h7.6c0-.1 3.8-38.8 1.9-44.2z"/><path id="XMLID_53_" class="st2" d="m447.9 235.7 1.8 48h10.6l.2-48.4c-3.9-.6-8.5-.5-12.6.4z"/></g></g><g id="XMLID_730_"><path id="XMLID_41_" class="st2" d="M386.1 326c0-2.1 1.6-11.2 1.3-21.1-.2-7.4-2.9-15.7-.2-19.1 6.2-7.9 17.7-2.5 20.8 1.8 1.6-6.8 8.5-16.3 24.8-4.7 0-10.5 17.7-13.8 20.4-2.2 4.3-5.1 13.4-5.8 18.8 0 5.4-4 13.8.3 15.5 5.4 1.8-6.2 12.7-9.8 18.1-.8 5.4 9 0 41.6 0 41.6s-19.9 8.7-26.1-2.6c-2.2 4.5-9.6 4.5-9.6 4.5l-18.7-4.1-19.6-4s-8.3 10.3-18 10.3c-9.8 0-13.9-7.7-13.9-7.7s-1.1 5.5-4.6 6.6c-2.8 1-9-.3-9-3.9z"/><path id="XMLID_75_" class="st3" d="m479.4 324.5 1-32.9"/><path id="XMLID_78_" class="st3" d="M487.5 286.1v30.2"/><path id="XMLID_292_" class="st3" d="M493.4 287.6s-3 25.5 2 28.7"/><path id="XMLID_293_" class="st3" d="M471.8 280.7v35.6"/><path id="XMLID_294_" class="st3" d="M453.1 280.7v20.1"/><path id="XMLID_295_" class="st3" d="M432.7 282.9v20.9"/><path id="XMLID_296_" class="st3" d="M408 287.7c-1.1 6.8 2.4 34.1 2.4 34.1"/><path id="XMLID_297_" class="st3" d="m399.7 323.4-.2-32.6"/><path id="XMLID_71_" class="st3" d="M443.3 280.7v10.1"/><g id="XMLID_718_"><circle id="XMLID_23_" class="st5" cx="423.2" cy="296.5" r="7.4"/><circle id="XMLID_24_" class="st5" cx="469.9" cy="296.5" r="7.4"/><circle id="XMLID_28_" class="st5" cx="423.2" cy="324.8" r="7.4"/><circle id="XMLID_25_" class="st5" cx="469.9" cy="324.8" r="7.4"/><g id="XMLID_717_"><circle id="XMLID_22_" class="st5" cx="446.5" cy="310.6" r="21.5"/><g id="XMLID_26_"><path id="XMLID_27_" class="st5" d="M448.9 310.6c0-4.6 2.3-8.7 5.8-11.2-2.3-1.6-5.1-2.7-8.1-2.7-3.3 0-6.3 1.2-8.7 3 3.1 2.5 5.2 6.4 5.2 10.7s-2.1 8.3-5.2 10.7c2.4 2 5.4 3 8.7 3 3 0 5.9-1 8.1-2.7-3.5-2.1-5.8-6.2-5.8-10.8z"/><path id="XMLID_29_" class="st0" d="M460.3 310.6c0-4.6-2.3-8.7-5.8-11.2-3.5 2.5-5.8 6.6-5.8 11.2s2.3 8.7 5.8 11.2c3.7-2.5 5.8-6.6 5.8-11.2z"/><path id="XMLID_42_" class="st0" d="M443 310.6c0-4.3-2.1-8.3-5.2-10.7-3.1 2.5-5.2 6.4-5.2 10.7s2.1 8.3 5.2 10.7c3.2-2.5 5.2-6.4 5.2-10.7z"/></g></g></g><g id="XMLID_729_"><path id="XMLID_44_" class="st0" d="M498.8 310c-3.4-.9-8.8 2.5-4.5 11.7 4.3 9.2 21.7 12.4 28.2 6s5.4-28.2 2.2-35.1c-3.3-6.8-18.9-9-22.5-4.3-3.5 4.8-7.7 14.5-3.4 21.7z"/><path id="XMLID_46_" class="st3" d="m510.6 299 .8 22.8"/><path id="XMLID_45_" class="st0" d="M511.4 321.8V360s14.2 0 18.8-3.3c-6.8-16-3.7-37.7-3.7-37.7l-15.1 2.8z"/><path id="XMLID_43_" class="st0" d="M507 316c5.4.8 18.9 5.6 19.4 3.1.9-4 1-8.8.8-13.2 3.7-2.5 6.6.7 7.3 3.7.7 2.9 1.1 15.2-8.7 18.6-7.6 2.7-17.7-1.7-22-4.8-4.4-3.1-2.2-8.2 3.2-7.4z"/></g></g></g></g><g id="XMLID_770_"><g id="XMLID_754_"><path id="XMLID_7_" class="st5" d="M532 368.6c-5.4 2.2-13.6 11.8-13.4 23.3.2 11.4 6.5 15.2 6.8 22.7.3 7.5-8.9 11.3-14.4 9.3-5.6-2-18.5-10.5-25.3-8.7-6.8 1.8-6.3 5-10.1 13.8-.3-6.5-4-11.6-6.9-13.8-2.9-2.2-7.9.3-7.9 3.3s4.3 6.8 4.7 10.9c.8 7.4-4.7 22-4.7 29.3s14.1 7.4 16.6 0 3.3-29.6 11.9-31.8c8.7-2.2 22.8 9.8 30.1 8.4 7.3-1.4 14.1-11.2 14.9-21.9.5-7.3-5.8-8.8-4-20.3 1.8-11.6 10.9-13.4 10.9-17.4-.2-4.1-3.8-9.2-9.2-7.1z"/><path id="XMLID_9_" class="st3" d="m475.5 429.1-3.7 15.5"/></g><path id="XMLID_540_" class="st0" d="M489.2 426.9c-8.7 2.2-9.4 24.4-11.9 31.8-1.4 4.2-6.6 6-10.9 5.3-1.2 2.8.2 6.7 3.7 7.7-3.7.2-7.1 6-.5 9.7 19.8-1.6 25.6-20.5 29.7-19.8 4.3.8 4.2 5.8 9.4 3.3 5-2.3 1.1-12.3 1.1-12.3s.1-5.1 4.9-6.8c5.3-.7 5.3-6.2 4.6-10.5-7.3 1.4-21.4-10.5-30.1-8.4z"/><g id="XMLID_303_"><path id="XMLID_10_" class="st2" d="M514.7 445.7s-22.6-8.9-24.1-7.8c-1.4 1.2-3.3 3.8-3.3 6.7 0 2.9 8.3 5.1 9 2.5-.5 2.8 7.5 6.6 9 2.5-.3 3.6 4.2 5.1 7.3 3.6 3.1-1.3 2.1-7.5 2.1-7.5z"/><path id="XMLID_83_" class="st3" d="m496.5 447.2 2.3-7.3"/><path id="XMLID_84_" class="st3" d="m505.5 449.7 1.8-6.8"/></g></g><path id="XMLID_775_" class="st4" d="M481 381.6c-2-10.3-.4-19.1.7-23.7-9.9 3.1-17 12.5-17 23.4 0 13.6 11.1 24.6 24.6 24.6 4.1 0 8-1 11.4-2.8-6.6-3.4-17.8-10.9-19.7-21.5z"/><g id="XMLID_776_"><path id="XMLID_778_" class="st6" d="M512 390.6c-4.3-3-8.6-7.1-11.6-12.5-1.8-3.4-1.1-12.8-1.1-19.2-3-1.4-6.5-2.2-10.1-2.2-2.6 0-5.2.4-7.6 1.2h0c-1.1 4.6-2.6 13.4-.7 23.7 2 10.6 13 18 19.6 21.6h0c5.3-2.7 9.3-7.2 11.5-12.6z"/></g><g id="XMLID_5_"><path id="XMLID_198_" class="st2" d="M472.9 388.6s4.2-6.5 12.1-7.9 12.6 4 12.6 4-3.1 6.8-11.2 8.4c-8 1.3-13.5-4.5-13.5-4.5z"/><g id="XMLID_6_"><path id="XMLID_766_" class="st2" d="M476.9 384.4c.8 2.2 2.8 3.8 5.2 3.8 3 0 5.5-2.5 5.5-5.5 0-.8-.2-1.6-.5-2.3-.8 0-1.4.1-2.2.2-3.3.6-6 2.3-8 3.8z"/></g></g><g id="XMLID_814_"><g id="XMLID_808_"><path id="XMLID_572_" class="st6" d="M685.1 544.7s42.4-9.4 56-33.1c12.8 15.8 17.7 49 17.7 49s-53.6-2.5-69.9 8.5c-16.3 10.9-3.8-24.4-3.8-24.4z"/><g id="XMLID_807_"><g id="XMLID_799_"><path id="XMLID_800_" class="st8" d="M677.2 514.8c-9.8-2.8-23.1 1.1-23.1 1.1l-1.2 14.3 25.5-3.4c-.2-6.3-.6-10.9-1.2-12z"/><path id="XMLID_804_" class="st13" d="m653 530.2-2.9 36.7 9.2 19.4 20.4-17.3s-.3-26.2-1.2-42.3l-25.5 3.5z"/></g><g id="XMLID_806_"><path id="XMLID_560_" class="st3" d="M654.1 515.9s13.4-3.9 23.1-1.1c2 3.9 2.5 54.3 2.5 54.3l-20.4 17.3-9.2-19.4 4-51.1z"/><path id="XMLID_571_" class="st3" d="m664.9 513.9 1.5 10.7"/></g></g><g id="XMLID_810_"><g id="XMLID_563_"><path id="XMLID_797_" class="st13" d="M684.5 561.9c-16.3-3.6-29.9 1.4-29.9 1.4l-1.8 19.5s12.5-1.1 30.4 1.4c9.3 1.3 19.4 8.8 27.1 15.7l12.7-20.5c-12.2-6.9-28.9-15.5-38.5-17.5z"/><path id="XMLID_805_" class="st8" d="m723 579.3-12.7 20.5c7.1 6.4 11.9 12.3 11.9 12.3l15.7-24.2s-6.3-3.9-14.9-8.6z"/></g><g id="XMLID_809_"><path id="XMLID_559_" class="st3" d="M654.7 563.2s13.6-4.9 29.9-1.4c16.3 3.5 53.4 26.1 53.4 26.1L722.2 612s-21.2-25.5-39.1-28c-17.9-2.5-30.4-1.4-30.4-1.4l2-19.4z"/><path id="XMLID_567_" class="st3" d="m716.9 596.8 9 8"/><path id="XMLID_568_" class="st3" d="m723.3 589 10 6.8"/></g></g><g id="XMLID_798_"><g id="XMLID_801_"><path id="XMLID_802_" class="st8" d="M688.6 511.6c-.4-2.2-17.4 0-17.7 1.6-.1.5.4 6.5 1.1 14.4l16.7-2.3c.2-7.6 0-13-.1-13.7z"/><path id="XMLID_803_" class="st13" d="M672 527.7c1 13.8 1.8 33.3-1.3 40.4-4.9 11.1-14.4 9.9-14.4 9.9l12.5 16.3s8.7-3.6 14.4-11.9c4-6 5.3-38 5.5-56.8l-16.7 2.1z"/></g><g id="XMLID_566_"><path id="XMLID_558_" class="st3" d="M656.3 577.8s9.6 1.2 14.4-9.9c4.9-11.1 0-53.1.3-54.7.3-1.6 17.2-3.8 17.7-1.6.5 2.2.3 62.2-5.4 70.6-5.8 8.4-14.4 11.9-14.4 11.9l-12.6-16.3z"/><path id="XMLID_569_" class="st3" d="m675.6 511.6 1.1 11.7"/><path id="XMLID_570_" class="st3" d="M681.8 510.9v10.6"/></g></g></g><g id="XMLID_774_"><g id="XMLID_779_"><path id="XMLID_781_" class="st13" d="M684 322.3c-9.7-.8-15.1-2.8-18-5.3l-2.8.3-25 97.9-1.1 57.9 33.1 1.5L684 322.3z"/><path id="XMLID_782_" class="st8" d="m636.7 488 32.1 2.2 1.4-15.5-33.1-1.5z"/><path id="XMLID_783_" class="st8" d="M686.6 475.5c-.5 8.3-.9 13.7-.9 14.7 0 5.4 41.4 3.6 41.4 3.6s-1.8-6.3-4.3-16.5l-36.2-1.8z"/><path id="XMLID_784_" class="st13" d="M712.2 409c-2.5-42.9-2.5-81.5-11.2-97.6-8.8-16.1-31-13.7-31-13.7s-6.3 8.5-6.4 8.8c0 .2-3.3 6 2.4 10.4l18.8-2.4-.7 7.7c9.9 24.9 4.9 116.9 2.6 153.3l36.3 1.6c-4-16.1-9.3-41.9-10.8-68.1z"/><path id="XMLID_785_" class="st13" d="m684 322.3.7-7.7-18.8 2.4c3 2.4 8.4 4.5 18.1 5.3z"/></g><g id="XMLID_702_"><path id="XMLID_574_" class="st3" d="m636.7 488 32.1 2.2 15.8-175.6-21.5 2.8-24.9 97.9z"/><path id="XMLID_597_" class="st3" d="M670 297.8s22.4-2.5 31 13.7c8.8 16.1 8.8 54.7 11.2 97.6s15 84.7 15 84.7-41.4 2-41.4-3.6 10.4-137.4-1.7-167.9c-27.9-2.3-20.4-15.4-20.4-15.7 0-.4 6.3-8.8 6.3-8.8z"/><path id="XMLID_703_" class="st3" d="m716.9 481.5 1.5 12.4"/><path id="XMLID_704_" class="st3" d="m710 481.5 1.1 12.4"/><path id="XMLID_705_" class="st3" d="M702.1 481.5v12.3"/><path id="XMLID_706_" class="st3" d="m694.9 481.4-1.1 11.8"/><path id="XMLID_707_" class="st3" d="m660.7 479.4-1.6 10.3"/><path id="XMLID_708_" class="st3" d="m652.3 478.3-1.1 10.6"/><path id="XMLID_709_" class="st3" d="m643.8 477.2-2.2 11.6"/></g></g><g id="XMLID_543_"><path id="XMLID_544_" class="st0" d="M630.8 441.8s-16 13.9-13.4 47.1c2.5 33.2 19.5 31.4 23.7 48.7s-10 29.3.2 55.4c10.2 26.1 27.9 22.3 39.3 43.1l4.2 7.3c2.7-6.1 3.9-15.5 3.9-15.5l-35.8-46.8-.8-54.3-19-38.8 3.8-54.3h-11.4l5.3 6.2v1.9h0z"/><path id="XMLID_546_" class="st6" d="M680.5 636.1c-11.4-21-29.1-17-39.3-43.1-10.2-26.1 4-38-.2-55.4-4.1-17.4-21.2-15.6-23.7-48.7-2.5-33.2 13.4-47.1 13.4-47.1V440l-5.3-6.2-2.3 13.5s-18.1 13.9-15.5 47.1c2.5 33.2 21.7 31.4 25.8 48.7s-10 29.3.2 55.4c10.2 26.1 27.9 22.3 39.3 43.1 5.4 10 9.2 7.3 11.8 1.8l-4.2-7.3z"/></g><path id="XMLID_541_" class="st5" d="M650.1 351.3c2.9-3.3 20.8 5.2 16.1 13.1-18.1 35.9-28.4 91.6-26.3 117.1 2.3 25.5 16.5 20.6 21.5 46 5.1 25.4-1.2 29.7.8 45.7 2 16 30.7 30.6 34 39.7s1.1 15 1.1 15l28.6 26.7-8.4 22s-26.8 13-27.9 16.3c-1.1 3.3-8.7 1.8-10.5-5.1-1.8-6.8-13.8-34.2-11.9-42s16.3-11.2 13-19.5-25.3-19.5-32.2-38.4c-6.8-18.9 7.4-37.8-2.1-58.9-9.4-21.2-17.8-20.1-20.7-42.3-1.2-9.6 2.7-28 7.8-46.8 1.2-4.5-6.7-19.9-6.7-19.9s20.9-65.5 23.8-68.7z"/><path id="XMLID_556_" class="st0" d="M724.6 696.7c-11.3-22.6-32.9-46.1-35.1-44.9-2.2 1.2 4.9 35.2 15.1 56.9 10.1 21.7 26.7 44.5 31.6 42.7 4.9-1.9-.3-32.1-11.6-54.7z"/><g id="XMLID_561_"><path id="XMLID_562_" class="st6" d="M727.7 730.4c1-4.7-8.5-29.1-12.6-30.9-2.5-1.2-8.7 1.3-13 3.5.8 2 1.6 3.9 2.5 5.8 4.6 9.8 10.4 19.8 16 27.7 3.6-1.6 6.5-3.2 7.1-6.1z"/></g><g id="XMLID_547_"><path id="XMLID_557_" class="st3" d="M713.6 706.8c-1.1 0-4.8 1.2-8.7 2.7.8 1.6 1.6 3.3 2.4 4.9l10.6-1.2c-1.5-3.6-3.2-6.4-4.3-6.4z"/><path id="XMLID_564_" class="st3" d="m718.1 713.2-10.6 1.2c1.3 2.6 2.7 5.1 4.1 7.6l9.7-.8c-1-2.4-2.1-5.4-3.2-8z"/><path id="XMLID_565_" class="st3" d="M711.5 722c1.6 2.9 3.4 5.8 5.1 8.5 3-1.4 5.4-2.7 5.6-3.6.2-.9-.3-2.9-1.1-5.5l-9.6.6z"/></g><g id="XMLID_535_"><path id="XMLID_537_" class="st4" d="M626.4 420.1c-2.9 0-5.1 5.6-1.8 7.2-3.6 0-4.7 6-1.4 6.5-3.6 1.4-3.3 6.6 0 7.7-4.7 0-4 5.5-1.8 8.4 2.2 2.8 23.6 6.5 26.8 4.7s8.4-26.4 4.3-29c-4-2.7-23.2-5.5-26.1-5.5z"/><path id="XMLID_538_" class="st3" d="m624.6 427.2 21.4 3.1"/><path id="XMLID_536_" class="st3" d="m623.2 433.7 22.8 3.2"/><path id="XMLID_539_" class="st3" d="m623.2 441.4 19.5 3.2"/></g><g id="XMLID_796_"><g id="XMLID_750_"><path id="XMLID_582_" class="st10" d="M627 308.5c0-1-5.6-29.2-5.6-29.2s11.3-2.4 33.9 0c22.6 2.4 31.3 6.8 31.3 6.8l-16.3 24.4-43.3-2z"/><path id="XMLID_593_" class="st10" d="M669.9 237.9s-11.7-41.7-6-78.4c5.8-36.7 13.4-50.6 16.6-54.7s8.1-.8 7.1 3.6c-1.1 4.2-8.9 8.9-12.1 48-3.1 39.1 3.3 70.1 3.3 70.1l-8.9 11.4z"/><path id="XMLID_594_" class="st10" d="M666.6 244.8s5.8-38.6-9.2-74c-10-23.8-4.7-61.9-5.4-64.3-.8-2.4-6.3-3.3-10.6 7.4-4.3 10.6-4.6 38.6 3 60.3 11.9 34.2 4.3 46.7 4.3 46.7l2.7 35.6 15.2 2.7v-14.4z"/><path id="XMLID_588_" class="st1" d="M644.3 258c0-1.7 0-24-6-33s-11.7-15.3-11.3-18.9c.4-3.6 11.1-5.8 15.4-4.5 4.3 1.3 8.5 9.6 11.4 20.6 2.9 11.1 2.6 33.5 2.6 33.5h5.4s3.7-21.6 9.9-33.2C678 211 693 204 697.1 204s7.4 7.8 5.2 12.2c-2.2 4.3-9 5.9-16.1 16-7.1 10.1-13.5 28.1-13.5 28.1l-28.4-2.3z"/><g id="XMLID_548_"><path id="XMLID_587_" class="st0" d="M636.7 274.5s-1.1-18.7-1.1-22.6 8.9-5.1 11.1 0c2.2-3.6 9.2-3.8 10.1 1.2 2.2-3.8 8.6-3.6 10.9.3 2.7-3.5 10-2.4 10.7 2.7 3.4-5 12.9-1.4 11.8 3.4-1.1 4.8-14.8 19.8-14.8 19.8l-38.7-4.8z"/><g id="XMLID_549_"><path id="XMLID_591_" class="st3" d="m678.4 256.3-2.9 7.8"/><path id="XMLID_589_" class="st3" d="m665.5 261.9 2.2-8.4"/><path id="XMLID_592_" class="st3" d="m656.8 253.2-1.1 8.1"/><path id="XMLID_590_" class="st3" d="m645.9 259.7.9-7.8"/></g></g><g id="XMLID_550_"><circle id="XMLID_581_" class="st6" cx="621.4" cy="279.3" r="8"/><circle id="XMLID_583_" class="st6" cx="638.4" cy="278.2" r="8"/><circle id="XMLID_584_" class="st6" cx="653.9" cy="279.3" r="8"/><circle id="XMLID_585_" class="st6" cx="670" cy="281.7" r="8"/><circle id="XMLID_586_" class="st6" cx="686.5" cy="286.1" r="8"/></g></g><g id="XMLID_795_"><g id="XMLID_780_"><path id="XMLID_786_" class="st13" d="M649.8 313c-14.5-2.6-35 1.1-34.7 1.6 3.5 9.6 9.9 26.4 9.6 39.8 19.5-2.7 36.2.9 36.2.9s15.1-24.8 21.4-35.1c-7.5-1.9-19-4.7-32.5-7.2z"/><path id="XMLID_787_" class="st8" d="M649.8 313c13.6 2.5 25.1 5.3 32.4 7.3 1.2-1.8 2-3.3 2.4-3.9 2.6-4.2-4.6-10.2-31.7-12.9-27.1-2.8-39.9.7-39.9 4.2 0 .9 1.2 4.3 2.2 6.9 7.5-1.3 20-4.2 34.6-1.6z"/></g><g id="XMLID_794_"><path id="XMLID_577_" class="st3" d="M624.6 354.5c.5-18.5-11.7-43.3-11.7-46.9s12.8-7.1 39.9-4.2c27.1 2.8 34.3 8.7 31.7 12.9-2.6 4.2-23.8 39-23.8 39s-20.7-3.5-36.1-.8z"/><path id="XMLID_595_" class="st3" d="m621.2 303.8.9 9.5"/><path id="XMLID_777_" class="st3" d="M630.3 302.4v9.8"/><path id="XMLID_788_" class="st3" d="m638.4 302.4-.2 9.8"/><path id="XMLID_789_" class="st3" d="m645.8 302.8-.6 9.4"/><path id="XMLID_790_" class="st3" d="m653.9 303.3-1.6 10"/><path id="XMLID_791_" class="st3" d="m662 304.7-2.1 9.9"/><path id="XMLID_792_" class="st3" d="m669.7 305.7-3.1 10.6"/><path id="XMLID_793_" class="st3" d="m678.2 308.5-4.5 9.6"/></g></g></g><g id="XMLID_752_"><path id="XMLID_580_" class="st2" d="M641.1 347.4c-19.9 2.2-47.3-5.6-49.2-3.7-1.8 2-.3 15.2 2.5 16.4 2.8 1.2 36.2-1.3 44.3-2.2 8.1-.9 22.3-12.8 2.4-10.5z"/><g id="XMLID_751_"><circle id="XMLID_576_" class="st2" cx="646.8" cy="355.9" r="12.3"/><path id="XMLID_578_" class="st2" d="M657.9 338.7c-5.4 0-15.2 11.7-15.2 15.8s3.1 8.5 8.7 7.7c2.5-.3 12.2-10.1 12.2-13.4s-.1-10.1-5.7-10.1z"/><path id="XMLID_579_" class="st2" d="M700.8 353.7c-1.1-2.1-41.3-5.1-46-3.8s-6 8.3-4.5 11.2c.7 1.4 9.8 1.2 19.5 3.8 10.6 2.8 22.1 8.5 24.3 7.7 4.5-1.2 7.8-16.9 6.7-18.9z"/></g></g><g id="XMLID_813_"><path id="XMLID_552_" class="st6" d="M681.8 650.3c0 6.2 5.8 37.7 7.9 42.7 2.2 5 8.9 3.3 7.5-3.3-1.4-6.6-10-36.6-7.7-37.8 2.3-1.2 22.9 27.5 26.2 29.7 4.2 3 7.8-5.8 5.5-8.1-2.3-2.4-26.1-27.9-29.3-28.8-3.3-1-10.1-.6-10.1 5.6z"/><g id="XMLID_545_"><g id="XMLID_811_"><path id="XMLID_553_" class="st2" d="M701.7 627.9s-7.3 2.9-7.3 6.1c0 3.1 10.2 14.3 13.8 14.3 3.6 0 6.4-7.8 6.4-7.8l-12.9-12.6z"/><g id="XMLID_554_"><path id="XMLID_555_" class="st2" d="M713.6 643c-.7-1.4-2.1-2.4-3.7-2.4-2.3 0-4 1.8-4 4 0 1.6 1 3 2.4 3.7 2.3-.1 4.1-3 5.3-5.3z"/></g><path id="XMLID_596_" class="st5" d="M704.2 621.8c-3.3-.9-7.6 1.6-6.8 6.1.8 4.5 14.4 16.7 16.8 16.7 2.4 0 6-3 4.9-6.8-1.1-3.8-10.5-6.8-11.6-9.9-1.2-3.1-.1-5.2-3.3-6.1z"/></g><g id="XMLID_812_"><path id="XMLID_598_" class="st5" d="M717.6 676.6c-4-2.9-4.7-12.3-1.8-18.8 2.8-6.5 13.8-7.9 17.7-3.3 4 4.7 0 12.8-4.7 14.4 2.2 1.4 2.9 4.1 1.4 6.8-1.4 3-8.7 3.9-12.6.9z"/><path id="XMLID_599_" class="st3" d="M725.7 658.1c-6.3 5.5-3.1 13.1 3.1 11"/></g><g id="XMLID_815_"><path id="XMLID_817_" class="st2" d="M688.6 671.7c2.2 4.3 8.6 4.1 8.6 4.1l-5.6 2.6s2.8 3.4 9 3c3.8 4.2 9.9 2.9 13.9-1.1-2.4-2.6-7.2-8.7-11.9-14.7-3.8 2.2-9.3 5.2-14 6.1z"/></g><path id="XMLID_551_" class="st3" d="M704.6 678.5s-1.7 3.1-3.9 3"/><path id="XMLID_600_" class="st3" d="M697.2 675.9c2 0 5.3-1 5.3-1"/></g></g></g><g id="XMLID_838_"><path id="XMLID_688_" class="st0" d="m342.3 693.2 7.3 6s11.1 7.3 18.3 2.4c7.3-4.9 7.9-24.5 0-28.7-7.9-4.1-23.6 6.7-23.6 6.7l-2 13.6z"/><path id="XMLID_687_" class="st3" d="m346.2 688.1 17-1.5"/><path id="XMLID_697_" class="st0" d="M295.1 741.2c-4.1 6 1 25.9 12.3 23 11.3-2.9 35-68.8 35-68.8l-23.6-.9s-19.6 40.8-23.7 46.7z"/><g id="XMLID_837_"><path id="XMLID_685_" class="st0" d="M349.6 677.1s1.5 19.6 0 22c-1.5 2.4-25.1 2.2-25.1 2.2l13.8-29.2 11.3 5z"/><g id="XMLID_829_"><path id="XMLID_690_" class="st4" d="M344.4 677.1s-9.3 12.4-17 31.3c-7.7 18.9-11.7 28.4-18 33.4s-12.9 6.7-17.3 4.2c-3.6-2.1-5.5-12.3-5.5-21.4 0-9 6.1-17.8 8.9-18.6 2.8-.8 7.6-7.1 7.6-7.1l4.3-42.2 25.1 1.2 11.9 19.2z"/><g id="XMLID_693_"><path id="XMLID_695_" class="st2" d="M336.4 663.4c-1.5-11.5 7.3-19.1 6-23.6-3.1-11.1-33-16.4-33-16.4l-3.9 61s16.2-8 31.6 4c4.1-7.3 7.4-11.4 7.4-11.4l-8.1-13.6z"/></g><path id="XMLID_691_" class="st3" d="m288.8 714 10.9-.8"/><path id="XMLID_692_" class="st3" d="m286.9 720.9 12.8-1.1"/><path id="XMLID_694_" class="st3" d="m286.9 729.2 12.1-.9"/><path id="XMLID_696_" class="st3" d="m287.5 738.6 11.5-2.3"/><g id="XMLID_684_"><g id="XMLID_835_"><path id="XMLID_836_" class="st0" d="M363.2 639.4c-6.6-1.5-18.1-3.7-21.9-1.3-5.4 3.5-9.4 10.4-10 21.8-.5 11.4 7.5 19.6 11.4 20.6 4 1 12.8-2.4 11.5-7.1-5.6-.5-10.4-1.5-11.8-8s-.2-15.3 5-17.6c3.6-1.5 11.9-1.5 16.9-1.3-.9-2-1.2-4.6-1.1-7.1z"/></g><path id="XMLID_689_" class="st2" d="M305.1 622.5c-1.5 4.2-9.9 78.3-9.7 82.6.2 4.3 7.5 4.5 10-.3 2.5-4.7 9.4-76.1 8.4-80.7-1.1-4.5-7.3-5.9-8.7-1.6z"/></g></g></g></g><g id="XMLID_85_"><path id="XMLID_607_" class="st5" d="M579.2 589s-47.5 21.7-52.1 27.7-4.3 17.4 7.6 16.5 48.7-28.4 48.7-28.4l5.8-19-10 3.2z"/><g id="XMLID_854_"><path id="XMLID_855_" class="st5" d="M633.8 544.7c-26.8 8.7-29.3 31.6-29.3 31.6l20.6 12.6 4.9-6.9c-.9-14.9 6-24.8 3.8-37.3z"/></g><path id="XMLID_603_" class="st3" d="M625.1 563s-64.5 53.4-100.2 64.9"/><g id="XMLID_542_"><g id="XMLID_849_"><path id="XMLID_853_" class="st5" d="M604.5 604.8c6.5-9-6-14.4-6-14.4l-17.7 3.8-25 68.7 14.8-1.4c3.7-13 16.6-56.8 22.9-60.7-6.7 19.5-10.1 47.8-11.3 59.7l14.2-1.3c.6-13.9 2.9-47.4 8.1-54.4z"/></g><path id="XMLID_602_" class="st4" d="M514.4 523.3c22.3 1.4 37.8 16.2 37.8 16.2s34.2 20.3 38.3 21.1 21.2-16.4 32-14.4c6 .9 1.2 6.7-6.8 12.4-10.1 7.2-13.4 39.7-13.4 39.7l-13.6-1.4s-12.9 4.7-15.5-7.9c-12.2-8.7-61.4-18.8-65.8-21S496 537 496 537s-3.9-15.1 18.4-13.7z"/><g id="XMLID_604_"><g id="XMLID_848_"><path id="XMLID_850_" class="st4" d="M604.7 574c-4.1 1.1-4.9 4.9-2.7 6-5.2-.9-7.6 4.3-5.2 5.8-4.6.5-5.9 3.4-4.3 6.7-5.8 1.6-6.5 3.8-4.9 7.1 1.6 3.3 18.5 12.5 25.3 10.6 5-1.4 14.3-13.9 17.7-22.3-.5-2.9-.8-5.6-.8-8.3-5.5-3.9-21.4-6.6-25.1-5.6z"/></g><path id="XMLID_844_" class="st3" d="M616.7 585s-5.2-5.5-14.7-5"/><path id="XMLID_845_" class="st3" d="M615.6 592.1s-9.2-6.8-18.8-6.3"/><path id="XMLID_846_" class="st3" d="M611 599.8s-9-7.9-18.5-7.4"/></g></g><g id="XMLID_605_"><path id="XMLID_609_" class="st6" d="M560.2 529.2s-5.1-11.3-9.8-11.5c-4.7-.2-13.2 6.5-11.9 12.6 1.3 6.1 10.6 10.1 10.6 10.1l-13.6 23.3s-12.4-3-16.2 0c-3.8 3-3.4 11.1 0 13.1 3.4 2.1 16.2 0 16.2 0l22.8-28 1.9-19.6z"/><g id="XMLID_606_"><g id="XMLID_613_"><path id="XMLID_615_" class="st10" d="M587.7 555.6s-7.1-10-13.8-18.6c-5.5 4.6-11.9 11.3-16.7 20.5-5.6 11-7.5 20.8-7.9 27.5 11 .8 22.8.8 22.8.8l15.6-30.2z"/><path id="XMLID_616_" class="st0" d="M573.9 537c-2.3-2.9-4.5-5.6-6.4-7.8-6.2 4.3-14.8 11.9-20.7 23.6-6.7 13.1-8 24.8-8.1 31 3 .5 6.7.9 10.6 1.2.5-6.6 2.3-16.5 7.9-27.5 4.6-9.3 11.2-16 16.7-20.5z"/></g><g id="XMLID_614_"><path id="XMLID_617_" class="st2" d="M540.7 547c-1.2 1.6-2.3 3.5-3.3 5.2l7.9 3.1c.4-.9.9-1.7 1.3-2.6 1.2-2.3 2.5-4.5 3.8-6.4l-6.4-4c-1.1 1.6-2.1 3.1-3.3 4.7z"/><path id="XMLID_618_" class="st2" d="M531.2 581.1c.5 1.2 3.4 2.1 7.4 2.7 0-3.7.4-9 2.2-15.4l-8.8-1.6c-1.6 6.5-1.9 11.9-.8 14.3z"/><path id="XMLID_619_" class="st2" d="m531.9 566.8 8.8 1.6c1-4 2.5-8.5 4.7-13l-7.9-3.1c-2.6 4.7-4.4 9.8-5.6 14.5z"/><path id="XMLID_842_" class="st2" d="M562.4 524.6c-1.7 0-5.2 2.7-9.3 7.2l5.3 5c3.3-3.3 6.4-5.8 9-7.6-2.3-2.7-4.1-4.6-5-4.6z"/><path id="XMLID_843_" class="st2" d="m544.1 542.3 6.4 4c2.5-3.7 5.2-6.8 7.9-9.6l-5.3-5c-2.9 3-5.9 6.6-9 10.6z"/></g><g id="XMLID_847_"><path id="XMLID_851_" class="st0" d="M589.8 532.9c-4.3 1.7-.3 8.5-17.4 36.8-17 28.3-34.2 39.6-35.8 44.1-1.6 4.5 6.3 10 10.3 8s34.8-50 34.8-50S598 546.7 598 542c0-4.5-3.8-10.8-8.2-9.1z"/><circle id="XMLID_927_" class="st5" cx="581.8" cy="560.7" r="10.7"/><circle id="XMLID_928_" class="st5" cx="572" cy="575.3" r="10.7"/></g></g></g></g></g><path id="XMLID_929_" class="st3" d="m331.2 321.8-15.2 11"/></g></svg>