<svg version="1.1" id="Calque_1" xmlns="http://www.w3.org/2000/svg" x="0" y="0" viewBox="0 0 900 900" style="enable-background:new 0 0 900 900" xml:space="preserve"><style>.st0,.st1,.st2,.st3,.st4{fill:#00265e;stroke:#000;stroke-width:4.5451;stroke-linecap:round;stroke-linejoin:round;stroke-miterlimit:10}.st1,.st2,.st3,.st4{fill:red}.st2,.st3,.st4{fill:none}.st3,.st4{fill:#fff}.st4{fill:#ffce00}</style><path class="st0" d="M380.4 577.5s17.2 36 16.1 48.5c-1.1 12.5-12.7 20.3-19.5 49.8-6.8 29.5 1.1 72.2-9.7 120.4 10.2 4.5 15.3 8.5 29.5 5.7 3.4-36.4 15.9-77.8 21.6-98.9 5.7-21 22.2-64.2 24.4-78.4 2.3-14.2-3.4-44.9-3.4-44.9s25-11.9 29.5.6 25.2 49.4 25.8 53.4c.6 4-8.1 22.7-8.7 51.1s8.5 56.8 8.5 56.8l2.3 61.9 24.4 2.3s-.4-58.9 4.2-102.6c4.5-43.7 13.6-80.3 13.1-91.7-.6-11.4-11.6-30.1-11.6-30.1l-85.8-29.5-60.7 25.6z"/><path class="st1" d="M404.8 801.3s37.7 8 39.4 11.9c1.7 4-.8 13.6-5.3 14.2-4.5.6-10.2-2.3-10.2-2.3l-33-18.2 9.1-5.6z"/><path class="st0" d="M441.7 826.5s9.7-.2 11.9 2.7c2.3 2.8.6 11.4.6 11.4l-11.9 6.8-64.2-13.6.6-19.9 17-6.8 46 19.4zM574.3 826.5s11.2-.2 14 1.5c2.8 1.7 6.8 9.1 6.2 12.5-.6 3.4-9.1 1.1-9.1 1.1s-8.5 1.7-10.6.9c-2.1-.8-2.3-3.6-2.3-3.6l-25.8.4-24.4-5.1-10.2-16.5 21-13.1 36.9 13.6 4.3 8.3z"/><path class="st2" d="M585.5 841.8s.6-8.1-6.8-8.7"/><path class="st1" d="M395.1 792.8s13.8-17.6 17.2-15.3c3.4 2.3 1.7 12.1 1.1 17.2-.6 5.1-8.7 12.3-8.7 12.3l-9.6-14.2zM537.7 800.8s33.5-1.7 35.8.6c2.3 2.3 1.7 12.3 1.7 12.3l-15.9 3-23.3-10.8 1.7-5.1zM518 794.5c1.7-9.7 14.4-16.9 18.9-14s1.3 16.3 1.3 16.3L525.8 811l-13.1 2.3c0-.1 3.6-9.1 5.3-18.8z"/><path class="st1" d="M530.9 811s41.1 15.5 43.4 15.5 3.2-12.3.9-12.9c-2.3-.6-36.9-8.9-36.9-8.9l-7.4 6.3zM388.9 811s18.7 19.9 38.1 18.2c4 0 9.8-6.4 8.1-9.3-1.7-2.8-32.6-14.6-32.6-14.6l-13.6 5.7z"/><path class="st3" d="M383.8 834.8s1.1-22.2 5.1-23.9 16.5-3.4 18.2-6.8c1.7-3.4-1.7-12.5-9.1-9.1-17.6 9.7-30.7 1.1-30.7 1.1s-5.7-1.7-8 2.3-3.4 29-3.4 29l27.9 7.4zM496.3 800.8c-3.4.6-9.1 11.9-5.1 33.5 7.4 4.5 33.5.6 33.5.6s-.6-12.5 2.8-18.2c3.4-5.7 14.8-9.7 14.8-9.7l-4-10.2s-11.9 8.5-17 9.1c-5.2.6-21.6-5.7-25-5.1z"/><path class="st3" d="M452.1 849.8c4.5-2.3 3.2-5.9 2.1-9.3-15.3 4.5-96-11.4-98.9-17.6-3.4.6-4.2 7.2-3.2 9.3s95.5 19.9 100 17.6zM489.4 830.7c-4 .8-2.3 8.7 1.7 9.3 4 .6 59.1.6 61.9 0 2.8-.6 2.8-7.4-1.7-8-4.5-.6-57.9-2.1-61.9-1.3z"/><path class="st1" d="M435.1 832.4c6.2.6 3.8 7 3.8 7M445.5 831.8c4.2 1.3 2.8 7.6 2.8 7.6"/><path class="st3" d="M587.9 392.7s-26.3-22.5-20.1-49.2c18.2 8 33.5 33.5 33.5 33.5l2.3 15.9-15.7-.2z"/><path class="st2" d="m574.7 356.5 19.9 33.5"/><path class="st3" d="M614.6 387.2s30-46 32.4-45.9c10.6 5.6 14.1 66.4 24.3 77.2 10.2 10.8 19.9 13.1 24.4 2.3 6.2-19.3-16.3-76.3-24.8-84.3s-16.1-10.6-28.6-7.8-29 34.7-29 34.7"/><path class="st2" d="m655.9 336.6 16.5 15.4M662.7 354.2l2.3-17M666.1 367.3l15.4 12.5M669 382.1l7.4-19.3M674.1 398l16.5 12.5M678.1 411.6l7.4-16.5"/><path class="st3" d="m594.8 576.1 19.7-19.7c.1-8 .2-16.4.4-24.9l-19.5 20.6c-.3 8.3-.4 16.4-.6 24zM619.6 211.6 602 200.2l1.1 21.6s-.1 3.2-.2 9l16.6-14.5c0-3 .1-4.7.1-4.7z"/><path class="st3" d="m594.3 600 19.8-19.1c.1-7.8.2-16 .3-24.5l-19.7 19.7c-.1 8.4-.3 16.4-.4 23.9zM595.3 552.1l19.5-20.6c.1-8 .2-16.2.3-24.5l-19.4 19.7c0 8.7-.2 17.2-.4 25.4zM619.5 216.4l-16.6 14.5c-.1 5-.3 11.9-.5 20.4l16.8-14.1c.1-9.4.2-16.5.3-20.8zM593.4 665.6c1.1 6.8 19.5 4.7 19.5.2 0-.6.1-7.6.3-19.6l-19.8 17.5c-.1 1 0 1.6 0 1.9zM593.3 663.7l19.8-17.5c.1-5.9.2-13.1.3-21.2l-20 17.2c0 10.7-.1 18.1-.1 21.5z"/><path class="st3" d="m593.5 642.2 20-17.2c.1-6.8.2-14.4.3-22.5L593.9 622c-.1 7.6-.3 14.3-.4 20.2z"/><path class="st3" d="m593.9 622 19.9-19.5c.1-6.8.2-14 .3-21.6L594.3 600c-.2 7.9-.3 15.3-.4 22zM615.9 459 597 477.9c-.2 6-.3 12-.4 18l19.1-18.8c0-6 .1-12 .2-18.1zM617.5 351.9l-18 16.5c-.8 35-1.7 72.9-2.6 109.5l18.9-18.9c.6-36.3 1.2-73.2 1.7-107.1z"/><path class="st3" d="M617.8 330.3 600 346.7c-.2 7.1-.3 14.4-.5 21.7l18-16.5c.1-7.3.2-14.5.3-21.6zM596.6 495.9c-.2 10.5-.5 20.8-.7 30.8l19.4-19.7c.2-9.8.3-19.8.5-29.9l-19.2 18.8z"/><path class="st3" d="m618.2 305.2-17.6 18.4c-.2 7.5-.4 15.2-.6 23.1l17.8-16.3c.1-8.7.2-17.1.4-25.2zM619.2 237.1l-16.8 14.1c-.2 6.6-.3 14-.5 22.3l17-14.2c0-8.4.2-15.8.3-22.2z"/><path class="st3" d="m618.8 259.3-17 14.2c-.2 7.6-.4 15.9-.6 24.7l17.3-15.2c.1-8.4.2-16.4.3-23.7zM618.5 283.1l-17.3 15.2c-.2 8-.4 16.5-.6 25.3l17.6-18.4c.1-7.7.2-15.1.3-22.1zM609.9 215c-4 2.8-3.4 29 2.8 29.5.9.1 1.9.1 3 0l-1.7-32.2c-1.2 1.1-2.6 2-4.1 2.7z"/><path class="st0" d="M634.5 207.6c-1.7-6.8-9.8-10.8-10.4-10.2 0 0-2.5 9.2-10 15l1.7 32.2c5.8-.3 12.8-3 16.1-6.9 3.9-4.5 4.3-23.2 2.6-30.1z"/><path class="st2" d="m609.9 239.8 19.3-7.7M607.6 232.6l20.5-7.3M608.2 223.6l18.7-7.4"/><path class="st3" d="M577.5 136.6c-2.3 25.6 11.4 34.7 11.4 34.7l18.7 5.1-4.5-22.7s-7.4-13.7-25.6-17.1z"/><path class="st2" d="m583.8 145.7 15.3 29"/><path class="st3" d="M611 164.5c-3.4 5.7-1.7 10.8-1.7 10.8l14.2 4.5 34.1-41.5s-15.3-3.4-22.7-.6c-7.4 2.9-20.5 21.1-23.9 26.8z"/><path class="st3" d="M636.6 175.3s17.8-19.3 18-26.7c.2-7.4 3.6-10.8-2.7-10.2-14.2 9.1-33 34.7-33 34.7l17.7 2.2z"/><path class="st2" d="m623.5 176.4 23.3-25.6"/><path class="st3" d="M612.2 170.2s22.7-33.5 32.4-31.2c13.6 3.4 17.6 55.1 22.7 62.5s22.7 13.6 25-4c2.3-17.6-1.1-40.3-12.5-52.3-11.4-11.9-34.1-13.1-43.7-11.4s-25.6 25.6-25.6 25.6l1.7 10.8z"/><path class="st2" d="m658.2 142.9 20.4 13.6M664.4 155.4l7.4-10.8M669 166.7l16.5 9.7"/><path class="st3" d="M596.3 83.8s16.5-29.5 23.9-32.4c7.4-2.8 34.1-1.1 42.6 2.8 8.5 4 19.9 34.7 22 65.9-.6 9.1-11.2 9.7-20.3 3.4S648 86.6 642.8 84.9s-38.6 8-38.6 8l-7.9-9.1z"/><path class="st2" d="M619.6 60.5c10.9-1.2 15.9 6.8 23.3 24.4M656.5 82.7l14.8 17.6M662.2 100.9l5.6-18.8M640.6 61.1l15.9 9.7M648 74.7v-17M666.7 108.8l11.4 7.9M671.3 119l4.5-13M615.8 67.2l11.9 14.2M627.5 66.8l-14.2 14.8"/><path class="st3" d="m619 125.5-19.6 16 .5 18.8 19.1-16.9z"/><path class="st3" d="m619 117.3-20.1 1.7.5 22.5 19.6-16zM599.9 160.3l.3 14.4L619 173v-29.6z"/><path class="st3" d="M595.1 110.9c-3.4 1.3-3.4 8.1 2.3 10.4 5.7 2.3 20.3 1.5 24.4 0 4.2-1.5 5.1-8.5 3.4-10.8s-26.7-.9-30.1.4z"/><path class="st3" d="M580.3 90.6c.6 4 14.8 20.3 14.8 20.3l30.1-.4s17-20.5 17.6-25.6-6.2-4.5-8.5-2.8c-1.1-2.8-5.7-5.1-8.7-2.3-1.7-4-7.8-3.4-10.6 0-1.1-4-9.1-2.8-12.5 0-5.1-2.3-12.5.6-14.2 4.4-2.8-2.1-8.5 2.4-8 6.4z"/><path class="st2" d="m594.6 95.2-6.3-11M604.2 92.9l-1.7-13.1M613.9 92.4l1.1-12.6M622 92.4l3.6-12.6M630.9 92.4l3.4-10.3M672.4 178.1l9.6-11.9M673 187.2l11.9 10.8M675.2 196.9l9.1-12"/><path class="st3" d="M592.8 200.3s-17.6-22.7-18.2-25.6c-.6-2.8 5.1-4 10.8-1.7 0-2.8 5.7-4.5 9.1-2.3 1.7-2.3 7.4-2.8 9.1 0 3.4-2.3 10.2-2.8 11.4-.6 4-1.1 10-1.7 10.6 1.1 5.3-2.3 11.6-2.8 13.3 2.3-5.7 7.4-19.9 30.1-19.9 30.1l-26.2-3.3z"/><path class="st2" d="m585.5 173 4.5 9.1M594.6 170.7l1.1 9.7M604.8 170.7l-1.7 9.7M615 170.2l-2.8 9M627.5 170.7l-5.1 9.7"/><path class="st0" d="M365.6 299.7c-9.7 26.1-6.8 47.2-6.8 47.2l19.3 44.9 30.7 8 71-86.4s64.8 8 76.1-3.4c11.4-11.4 39-64.5 43.6-69.4 4.5-4.8 6.6-12.8 5.5-17.9 8.5-8 6.6-14.4 6.6-14.4s9.1 8 11.9 8 5.3-2.8 4.7-6.2c-.6-3.4-5.3-7.4-10.4-9.7-5.1-2.3-23.9-1.1-28.4-1.1-15.9 35.8-51.7 75-62.5 76.7-10.8 1.7-33 0-33 0l-38.1-8v-29.5l-22.2-25-26.1 11.4c.1-.2-32.2 48.7-41.9 74.8z"/><path class="st0" d="M485.8 165.8c1.3 6.6-1.7 18.2-.6 22.2s8.3 18 8.3 21.4-8.7 2.8-8.7 2.8.6 5.7-1.3 6.6c-4 .6-4.4.2-4.4.2s1.1 4-4 8.5c0 0 1.3 13.4-2.1 16.3-17.8 3-46.8-15.7-46.8-15.7l-7.4-53.4s33.5-7.4 35.2-8c1.7-.6 24.4-8.5 24.4-8.5s6.1 1 7.4 7.6z"/><path class="st2" d="M479.2 219s-8.3-1.1-12.5.2c-2.8.9-2.8 5.5-2.8 5.5M475.8 212.2s12.5.6 9.1 0"/><path class="st3" d="M614.6 387.2s23.9-42.2 35.5-48.1c9.3 7.8-12.9 48.1-12.9 48.1l-17 11.4-5.6-11.4z"/><path class="st2" d="m646.8 349.7-21 38.1"/><path class="st3" d="m361.6 513.3-15.9 68.8 196 1.7-9.6-53.4-45.5-110.8-84.1 19.9z"/><path class="st2" d="m373.9 581.9.8-41.3M380.4 583.2l1.1-43M407.6 583.2c4.5-56.2 5.7-129 5.7-129M434.9 583.2l1.1-45.5M441.7 582.4l1.2-44.3M464.8 582.2 466 543M470.7 583.2l1.7-36.9M499.7 583.2l-1.2-34.1M505.9 583.8l-1.1-37"/><path class="st3" d="M481.5 312.8s1.3 30.7-4.4 51.1c-5.7 20.5-1.9 36.9-1.9 36.9l-27.3 7.4-12.5-15.3 29.5-75 14.8-4.5"/><path class="st2" d="M461.6 185.5s.6-5.7 8.5-6.8c8-1.1 8.5 5.1 8.5 5.1"/><circle cx="470.9" cy="185.5" r="2.8"/><path class="st3" d="M429.8 278.1c.5-40.6-.6-102.3-.6-102.3s-9.5 2.3-19.4 6.4c-.7 8.7-5.1 61.5-10 97.5 12 .1 23.6-.9 30-1.6z"/><path class="st3" d="M409.8 182.2c-7.3 3-14.9 7-19.2 11.8-2.4 29.1-11 61.5-17.5 82.7 7.5 2.2 17.2 3 26.7 3 4.9-36 9.3-88.8 10-97.5zM399.8 279.7c-1.2 8.9-2.4 16.8-3.6 22.8 9.8.2 21.2-.1 33.1-1.7.3-6 .5-13.9.6-22.7-6.5.7-18.1 1.7-30.1 1.6z"/><path class="st3" d="M373.1 276.7c-4.2 13.9-7.5 23-7.5 23s12.6 2.4 30.6 2.8c1.2-5.9 2.5-13.9 3.6-22.8-9.5 0-19.2-.8-26.7-3z"/><path class="st2" d="m379.2 300.3 1.2-13.1M386 301.4l.8-14M411 301.4l-.5-13.6M417.3 301.4v-12.5M415.6 190.6l9.1 9.7M414.5 201.4l8.5-12.5M415 217.3l7.4 14.2M413.3 231.5l8.5-13.1M412.2 244.6l8.5 14.2M410.5 259.9l11.3-14.8M386 252l9.1 15.3M383.2 265.6l12.5-14.2M391.2 227l7.9 18.1M388.3 242.3l12.5-16.5M395.1 202l7.4 14.2M394 216.7l8-16.4"/><path class="st3" d="M379.2 408.8c-.6 21.6 5.7 35.8 5.7 35.8l27.8 7.4 34.7-1.1 97.7-3.4 6.2-49.4H437.2c0-.1-48.3 5.6-58 10.7z"/><path class="st2" d="m464.4 407.6 19.9 19.4M467.3 427.5l15.3-19.9M496.3 408.8l17.6 15.9M498 421.8l16.4-15.3M527.5 408.8l13.6 18.2M528.6 428.1l14.8-17.1"/><path class="st3" d="M400.2 423.5s-38.8-17.6-43.9-34.1c-5.1-16.5 1.9-54 1.9-54s-2.3 25 33 47.7c16.5-12.5 26.7 21.6 26.7 21.6l-17.7 18.8z"/><path class="st2" d="m361.6 367.9 5.7 24.4M359.3 381.5l15.4-2.3M384.3 387.8l8 21.5M379.8 403.1l21-8.5"/><path class="st3" d="M455.9 267.9s1.7 41.5-29.5 101.1-58 98.9-86.9 135.2c1.1 5.7 24.4 20.8 30.1 17.4 5.7-3.4 61-87.9 82.6-138.4 21.6-50.6 41.9-102.3 41.9-107.4-8.6-11.3-38.2-7.9-38.2-7.9z"/><path class="st2" d="m469.6 274.1 13 15.9M470.7 288.9l10.8-12.5M458.2 309.3l10.2 20.5M455.4 327.5l16.4-14.7M446.6 349.5l3.5 23.9M441.2 366.2l17-11.4M403.7 426.4l3.4 22.7M394.6 439.5l23.3-6.3M377.5 466.2l.6 24.4M367.9 482.1l23.8-9.1M356.5 496.3l4 15.3M350.8 504.2l17.6-4"/><path class="st3" d="m324.1 123.6 8-10.8 25.5 19.3-4.5 13.6zM394 149.7l-10.2-39.2s-7.2 1.2-15.1 6.2l22.5 35.2-22.5-35.2c-3.9 2.5-7.9 5.8-11.4 10.4l33.1 27.5 3.6-4.9zM346.1 180.6l33.7-12.1 6-7.9-40.2.4c-1.3 11.9.5 19.6.5 19.6z"/><path class="st3" d="M349.3 143.2c-2.1 6.5-3.2 12.5-3.7 17.8l40.2-.4 2-2.6-38.5-14.8zM390.3 154.6l-33-27.5c-2.4 3.1-4.6 6.9-6.2 11.2-.6 1.7-1.2 3.3-1.7 4.9l38.4 14.7 2.5-3.3z"/><path class="st4" d="M305.4 69.6c-9.1-5.7-36.9-14.2-63.6 7.4s-40.3 84.1-38.3 98.3c4.7-1.7 14.2-18.6 14.2-18.6l45.1-67.2 39.8.6c-.1-.1 11.9-14.8 2.8-20.5z"/><path class="st2" d="M300.3 76.4s-28-13.8-51.9 6.1-33.3 55.3-37.3 71.2"/><path class="st4" d="M292.9 81.5s-20.5-9.1-43.2 9.7-38.6 75-35.2 107.4c5.1-1.1 10.6-4 11.2-13.1.6-9.1 9.3-54.5 27.5-69.3s40.9-13.6 40.9-13.6l-1.2-21.1z"/><path class="st2" d="M290 92.3s-20.5-10.2-40.9 15.9c-23.9 28.4-25.2 49.6-27.6 64.4"/><path class="st4" d="M280.4 117.9s-20.5 3.4-27.8 25c-7.4 21.6-7.6 52.3-8.7 70.4s-10.6 18.2-14.4 17c2.1-82.9 4-88.4 19.5-112.1 13.3-20.3 33.7-21.4 33.7-21.4l-2.3 21.1z"/><path class="st2" d="M284.9 108.2s-21-3.4-35.8 25.6c-14.8 29-11.8 77.4-12.1 87.7"/><path class="st3" d="M310.5 121.3s-29 4.2-33 1.9c-4-2.3-4-9.3.6-10.4-2.3-2.8-1.7-7.4 2.8-8.5-1.7-4.5-2.3-6.8 1.7-7.4-.6-5.7-.6-8.3 4.5-8.3 0-5.9.2-9.8 6.4-9.8-1.1-4 1.5-5.1 6.6-5.1 0-5.7 2.8-7.4 7.4-5.7s15.3 29 15.3 29l-12.3 24.3z"/><path class="st2" d="m286.1 114.1-8-1.3M288.3 107.1l-7.4-2.9M290.6 100.8l-8-5.1M294 93.5l-6.8-5M299.7 85.5l-6.1-6.8M305.9 81l-5.6-7.4"/><path class="st3" d="M321.3 112.8c4.3-4.7 10.6.6 13.3 3.5.4-1.4.6-3 .6-4.6 0-8.9-7.2-16.2-16.2-16.2s-16.2 7.2-16.2 16.2 7.2 16.2 16.2 16.2c2.7 0 5.3-.7 7.6-1.9-3.4-3-9.6-8.4-5.3-13.2z"/><path class="st3" d="M334.6 116.3c-2.8-2.9-9.1-8.3-13.3-3.5-4.4 4.8 1.9 10.2 5.4 13.3 3.8-2.1 6.7-5.6 7.9-9.8z"/><path class="st2" d="m304.2 119.6 9.1.6M302.9 111.7l9.3 2.8M306.5 101.4l8.5 7.4M315 96.9l4.6 7.9M325.1 97.8l1.3 7.6"/><path class="st3" d="M480.9 115c-.6-1.7-18.7-2.3-19.3.6-.2 1-.2 6-.1 12.1l20.6-2.2c-.5-5.5-1-9.9-1.2-10.5z"/><path class="st3" d="M461.5 127.7c.2 11.4.6 26.6.6 26.6l13.1 1.7 9.1-8s-1.2-12.9-2.2-22.6l-20.6 2.3zM428.4 134.4c2.9 10.8 7 25 7 25L457 152s-5.2-14.5-9.2-24.8l-19.4 7.2zM443.4 117.1c-1.7-1.7-17 3-17.6 5.3-.2.8 1 5.8 2.6 11.9l19.4-7.1c-2-5.3-3.8-9.5-4.4-10.1zM405.7 127.7c-4.5-1.1-13.8 12.3-11 22 .3.9.6 1.9.9 2.8l17-18.8c-2.2-2.9-4.6-5.2-6.9-6zM395.7 152.5c3.5 9.4 10.8 21 10.8 21l20.5-14.2s-6.9-16.4-14.2-25.6l-17.1 18.8z"/><path class="st2" d="m433.2 137.2 14.8 8M437.7 147.4l5.2-12.5M467.3 133.2l10.2 8M468.4 142.3l9.7-11.3M408.8 158.2l4.5-13.6M402.5 150.8l17.1 3.4"/><path class="st3" d="M394.6 163.9c4.7-3.4 10.3-1 14.4 1.9.2-.9.2-1.8.2-2.7 0-9.2-7.5-16.7-16.7-16.7s-16.7 7.5-16.7 16.7 7.5 16.7 16.7 16.7c1.3 0 2.5-.2 3.7-.4-3.2-3.9-7.6-11.1-1.6-15.5z"/><path class="st3" d="M408.9 165.8c-4.1-2.9-9.6-5.3-14.4-1.9-6 4.4-1.6 11.6 1.6 15.5 6.6-1.5 11.7-6.9 12.8-13.6z"/><path class="st2" d="M378.1 170.2h7.9M376.4 158.8l9.1 4M382.1 150.3l5.1 6.8M391.2 148.6l2.8 7.3M399.9 149.5l1.3 7.8"/><path class="st3" d="M387.8 176.4c-4.5 5.7-1.1 20.6 2.8 20.6 2 0 24.8-14.2 47.6-21.7 22.8-7.4 45.6-8 47.7-9.5 4.2-3 1.9-15-1.5-17.8-1.7-1.4-24.7.8-47.9 7.6-23.2 6.7-46.5 18-48.7 20.8z"/><path class="st2" d="m395.1 179.2 15.4-3.4M399.7 184.4l6.2-13.1M417.3 170.2l17.6-3.5M421.8 174.7l6.9-11.9M440.6 159.9l17.6.6M444.6 166.2l6.8-11.4M465.6 154.2l15.9 5.7M467.9 163.3l11.3-10.8"/><path class="st0" d="M387.2 313.9S377 359.4 398 402.5s43.7 55.7 43.7 55.7l22.7-29s-27.8-33-36.4-51.1c-8.5-18.2-1.1-52.8-13.1-69.3"/><ellipse class="st3" cx="497.4" cy="484.3" rx="63.1" ry="65.3"/><path class="st4" d="M491 473.6c.3-16.4-3.7-35.1-5.7-42.9-11.2 2.8-21.1 9.3-28.2 18.3 4.5 5.1 17 18.1 33.9 24.6z"/><path class="st1" d="M491 473.6c2.3.9 4.6 1.6 7 2.2 1.2.3 2.5.6 3.7.8 2.3-17.9 10.8-36.8 14.2-43.9-5.7-2.2-11.9-3.5-18.4-3.5-4.2 0-8.2.5-12.1 1.5 1.8 7.8 5.9 26.5 5.6 42.9z"/><path class="st2" d="M491 473.6c0 1.5-.1 3-.2 4.5-.1 1.3-.3 2.7-.5 4.1 2.5.5 4.9 1.1 7.1 1.7 1.2.4 2.4.8 3.7 1.3 0-2.1.1-4.1.3-6.1.1-.9.2-1.7.3-2.6-1.2-.2-2.5-.5-3.7-.8-2.4-.5-4.8-1.3-7-2.1z"/><path class="st4" d="M549 475.4c-2.8-19.6-15.7-35.8-33.1-42.6-3.4 7.1-11.8 26-14.2 43.9 19.1 3.7 39.7.2 47.3-1.3z"/><path class="st1" d="M549 475.4c-7.5 1.6-28.1 5-47.3 1.3-.1.9-.2 1.7-.3 2.6-.2 1.9-.3 4-.3 6.1 16.3 6.3 34.8 19.8 41.5 24.9 4.4-7.9 7-17.2 7-27-.1-2.8-.3-5.4-.6-7.9z"/><path class="st1" d="M501.1 485.3c-1.2-.5-2.5-.9-3.7-1.3-2.2-.7-4.6-1.3-7.1-1.7-2.5 17.9-12 41.4-15.5 49.7 6.8 3.4 14.5 5.3 22.5 5.3 4.1 0 8-.5 11.8-1.4-2.1-7.8-8.3-31.6-8-50.6z"/><path class="st4" d="M509.2 535.8c14.2-3.4 26.2-12.9 33.4-25.6-6.7-5.1-25.1-18.6-41.5-24.9-.3 19 5.9 42.8 8.1 50.5zM445.3 481.9v1.3c0 21.4 12.1 40 29.5 48.7 3.5-8.3 13-31.8 15.5-49.7-15.4-2.9-35.3-1.4-45-.3z"/><path class="st1" d="M490.3 482.2c.2-1.4.3-2.8.5-4.1.1-1.5.2-3 .2-4.5-16.9-6.5-29.4-19.5-33.9-24.6-7.2 9-11.5 20.5-11.8 33 9.7-1.2 29.6-2.7 45 .2z"/><circle class="st3" cx="494.8" cy="478.3" r="10.5"/><path class="st3" d="M573 395.7s21 35.8 24.4 43.2c3.4 7.4 7.4 4.5 22.7 1.7 5.1-21.6 24.4-51.7 22.7-54s-5.1-2.8-8.5-1.1c-2.3-4-8-2.8-10.8 0-3.4-4-11.4-2.8-13.6.6-6.2-3.4-13.1-1.1-15 2.1-7.6-2.8-10 1.9-11.2 4.2-6.8-1.8-10.7 3.3-10.7 3.3z"/><path class="st2" d="M583.8 392.3c4 6.2 9.7 17 9.7 17M594.9 388.1c4 6.2 6.4 18.9 6.4 18.9M609.9 386v19.9M623.5 385.5c-2.8 5.7-6.2 21.6-6.2 21.6M634.3 385.5c-2.8 5.7-8.5 23.3-8.5 23.3"/><path class="st3" d="M623.5 447.7c0-8.6-7-15.6-15.6-15.6s-15.6 7-15.6 15.6c0 6.4 3.9 12 9.5 14.4.9-4.8 2.8-10.3 6.4-10.3 3.7 0 5.7 5.3 6.9 9.8 5-2.6 8.4-7.9 8.4-13.9z"/><path class="st3" d="M608.2 451.8c-3.6 0-5.5 5.5-6.4 10.3 1.9.8 4 1.2 6.2 1.2 2.6 0 5-.6 7.1-1.7-1.2-4.5-3.3-9.8-6.9-9.8z"/><path class="st2" d="m594 441.9 4.5 8.3M601.4 433.8l2.2 9.6M609.3 432.1v9.6M618.4 436.6l-3.8 6.3M616.7 451.4l6.3-5.1"/></svg>