<svg version="1.1" id="Calque_1" xmlns="http://www.w3.org/2000/svg" x="0" y="0" viewBox="0 0 900 900" style="enable-background:new 0 0 900 900" xml:space="preserve"><style>.st0{fill:#ff7300}.st1{fill:#fff}.st2,.st3,.st4,.st5,.st6{fill:none;stroke:#000;stroke-width:3.867;stroke-linecap:round;stroke-linejoin:round;stroke-miterlimit:10}.st3,.st4,.st5,.st6{fill:#ff7300}.st4,.st5,.st6{fill:#fff}.st5,.st6{fill:red}.st6{fill:#ffce00}.st7{fill:#737373}.st10,.st11,.st7,.st8,.st9{stroke:#000;stroke-width:3.867;stroke-linecap:round;stroke-linejoin:round;stroke-miterlimit:10}.st10,.st11,.st9{fill:none;stroke-width:6.445}.st10,.st11{fill:#0061d6;stroke-width:3.867}.st11{fill:#999}.st12{fill:red}</style><path class="st0" d="M705.4 249.1c3-.5 7.6-1.7 12.5-3-.6-1.5-1.2-2.6-1.2-2.6l-53.2-65.4-28-21.5s-9.4 9.9-7.3 25.8c2.2 15.9 24.9 40.6 23.2 48.1-1.7 7.5-33.1 26.4-58 37.4s-124.4 88-124.4 88l-9.3 10.7 24.9 29.8c16-9.7 69.1-42.2 96.8-65 32.9-27 114.4-80.7 124-82.3z"/><path class="st1" d="M705.4 249.1c-9.5 1.8-91 55.3-123.9 82.5-27.7 22.8-80.8 55.3-96.8 65L495 409s41.6-22.9 58-38.4 45.5-38.4 65.4-48.6c19.7-10.2 88.9-56.5 88.9-56.5s12.9-6.4 12.9-10.7c0-2.6-1.3-6.2-2.3-8.6-5.1 1.1-9.7 2.2-12.5 2.9z"/><path class="st2" d="M468.9 355.9s99.5-77.1 124.4-88c24.9-11 56.3-29.9 58-37.4 1.7-7.5-21-32.2-23.2-48.1-2.2-15.9 7.3-25.8 7.3-25.8l28 21.5 53.2 65.4s3.5 7 3.5 11.2-12.9 10.7-12.9 10.7-69.2 46.3-88.9 56.5c-19.7 10.2-49 33.1-65.4 48.6-16.4 15.5-58 38.4-58 38.4l-35.2-42.2 9.2-10.8z"/><path class="st0" d="M656.1 341.6 605.5 252s-13.8-11-15.5 4.9c-1.7 15.9 21.1 65.6 23.6 73.2 2.4 7.6-65.4 116-74.8 118.2s-45.1-62.5-66.1-76.2c-21-13.7-33.1 31.5-33.1 31.5l8.5 23.2c11.5 8.8 70.8 53.9 90.5 58.6 21.1 5.2 111.1-133.7 117.5-143.8z"/><path class="st1" d="M538.6 485.6c-19.7-4.8-79-49.9-90.5-58.6l7.9 21.4s40.9 35.2 62.8 46c21.9 10.7 34.8 10.3 45.1-.4 10.3-10.7 79.9-108 84.2-116.1 4.3-8.1 11.6-30.2 11.6-30.2l-3.5-6.1c-6.5 10.1-96.5 149-117.6 144z"/><path class="st2" d="M472.7 372.2c21 13.7 56.6 78.2 66.1 76.2 9.4-2.2 77.2-110.6 74.8-118.2-2.4-7.6-25.4-57.4-23.6-73.2 1.7-15.9 15.5-4.9 15.5-4.9l54.1 95.6s-7.3 22-11.6 30.2c-4.3 8.1-73.9 105.4-84.2 116.1-10.3 10.7-23.2 11.2-45.1.4-21.9-10.7-62.8-46-62.8-46l-16.4-44.7c.1-.1 12.2-45.2 33.2-31.5z"/><path class="st3" d="M635.9 752.9s.9-14.2-7.7-16.4c-8.6-2.2-96 18.4-98.2 15.1-2.3-3.5 8.9-134.4 3.7-151.7-5.2-17.1-14.2-27.1-34.8-33-20.6-5.9-69.5-5.9-69.5-5.9l-.4 35.8 68.6 57.7-9 125.4 87.3 21 15.5-7 4.6-18.8 39.9-22.2z"/><path class="st2" d="M580.2 744.8c-7.3 25.9 11.1 27.8 11.1 27.8M595.3 741.1c-4 11.7 3.9 25 3.9 25"/><path class="st4" d="M430.3 564.5s63.2 23.3 105.8 39.6c42.7 16.1 114.3 29.9 114.3 29.9s-12 37.8-18.9 53.8c-32.5-2.6-129.3-36.5-129.3-36.5l-75.7-67.4 3.8-19.4z"/><path class="st2" d="M544.4 623c45.6 14.1 84.2 22.2 84.2 22.2s-5.5 26.7-9.4 26.7-100.9-28.7-100.9-28.7M454.4 588.5c19.2 9.5 41.1 18.2 62.9 25.7"/><path class="st1" d="M473.5 782.8c-1.9-5.2 3.9-149.9-4.3-152.1-8.1-2.2-30.9 50.3-97.7 53.1S284 622 278.6 623c-5.4 1-11.6 78-30.5 105.3-16.1 23.2-26.2 28.9-44.7 37.9l5 7.3c17.8-9.7 40-22.7 53.8-50.3 18-36.1 18-77.7 18-77.7s16.4 54.1 87.3 52.5 91.9-47.3 91.9-47.3l3.4 117.7s-11.1 4.8-10.3 16.8c.9 12 7.9 19.2 19.7 26.7s32.6 2.6 32.6 2.6l44.7-.4 26.2-12.9s.1-.9.3-2.2c-9.4 1.4-44.1 6.4-67.4 6.6-27.3.2-33.2-17.5-35.1-22.8z"/><path class="st0" d="M565 781.8c-13.8-5.2-69.5-3.1-69.2-6.8.3-3.7 14.6-134.1 10.7-145.7-3.9-11.6-13.9-24.7-28.7-30.9s-42.9-18-42.9-18l-1.7-68.3 18.8-80.9-20-31.7s-158.8-28.4-169.9-3.1c-11.2 25.3-18.3 137.7-22.2 160.5-4 22.8-11.7 23.2-16.5 56.7s12.5 77.3-1.7 101.4c-8.9 15-21.3 25.1-31.5 32.7l13 18.8c18.6-9 28.6-14.8 44.7-37.9 19.1-27.5 25.1-104.4 30.5-105.3 5.4-.9 26.2 63.8 92.9 60.8S461 628.7 469 631c8 2.3 2.3 146.9 4.3 152.1s7.9 22.8 35.1 22.7c23.3-.1 58.1-5.2 67.4-6.6.4-4.5-.4-13.5-10.8-17.4z"/><path class="st2" d="M565 781.8c-13.8-5.2-69.5-3.1-69.2-6.8.3-3.7 14.6-134.1 10.7-145.7-3.9-11.6-13.9-24.7-28.7-30.9s-42.9-18-42.9-18l-1.7-68.3 18.8-80.9-20-31.7s-158.8-28.4-169.9-3.1c-11.2 25.3-18.3 137.7-22.2 160.5-4 22.8-11.7 23.2-16.5 56.7s12.5 77.3-1.7 101.4c-8.9 15-21.3 25.1-31.5 32.7l13 18.8 5 7.3c17.8-9.7 40-22.7 53.8-50.3 18-36.1 18-77.7 18-77.7s16.4 54.1 87.3 52.5c70.9-1.7 91.9-47.3 91.9-47.3l3.4 117.7s-11.1 4.8-10.3 16.8c.9 12 7.9 19.2 19.7 26.7 11.9 7.5 32.6 2.6 32.6 2.6l44.7-.4 26.2-12.9s.1-.9.3-2.2c.4-4.6-.4-13.6-10.8-17.5z"/><path class="st4" d="M239.8 373.8c1.4 6.7 33.1 7 33.1 7l17.1-8.4-15-30.9c0-.2-36.7 25.6-35.2 32.3zM456.3 321.8s26.7 3.2 32.2 25.9c-19.6-.6-44-2.6-44-2.6l4.8-21.3 7-2zM348.8 412.1s6.1 23.7 8.2 45.6c17.7-12.9 17.7-43.4 17.7-43.4l-25.9-2.2z"/><path class="st4" d="M442 341.3s35.3-4.8 42.2 21.5C467.4 368 442 361 442 361v-19.7z"/><path class="st4" d="M439.7 358.5s40.2-.8 40.2 27.3c-20.2-1.5-43.8-10.8-43.8-10.8l3.6-16.5z"/><path class="st4" d="M434.3 370.4s40.5 7.1 38.3 35.8c-15.5 5.9-33.1-6.4-33.1-6.4l-16.6-16.5 11.4-12.9zM335.5 412.1s-.5 21.9 0 39.2c18-9 21.5-37 21.5-37l-21.5-2.2z"/><path class="st4" d="M320.1 400.6s-6.1 22.3-2.6 41.6c17.5-6.8 23.2-30.2 23.2-30.2l-20.6-11.4z"/><path class="st4" d="M290 406.2s-4.8 12.6-10.3 21.7c26.7 11 40.3-21.7 40.3-21.7l-11.2-12-18.8 12z"/><path class="st4" d="M281.3 389s-7.6 11.6-15.2 25.4c28.1 13.5 40.2-17.7 40.2-17.7l-18.4-16.1-6.6 8.4z"/><path class="st4" d="M281.3 368s-17.1 15.3-28.7 26.7c4.8 7.9 15.1 12.5 24.9 6.1 9.8-6.4 14.2-20 14.2-20L281.3 368zM412 400.6s10.2 11.7 37.6 20.9c10.1-15.7-15.7-35.6-15.7-35.6L412 400.6z"/><path class="st4" d="M404.8 412.1s0 13.8 24.1 30.2c6.4-23.5-6.4-43.1-6.4-43.1l-17.7 12.9z"/><path class="st4" d="M386.8 417.8s1.9 19.3 15.3 35.3c12.9-18 5.5-44.2 5.5-44.2l-20.8 8.9z"/><path class="st4" d="M371.2 417.8s-.4 16.8 11.2 40c15.1-13.3 9.4-45.6 9.4-45.6l-20.6 5.6z"/><path class="st5" d="M272.9 341.3s-.8 37.4 32.2 59.3 104.5 29.3 126.3-7.7c21.8-37 17.9-69.2 17.9-69.2l-73.6-45.1-76.5 18.4-26.3 44.3z"/><path class="st4" d="M292.6 319.1s-6.6 43.3 18 64.3c33.5 28.5 81.2 27.7 102.2-1.2 21-28.7 18.4-57.9 18.4-57.9l-55.6-39.7-70.6 10.7-12.4 23.8z"/><path class="st2" d="m302.8 352.8-6.4 5.7M306.4 358l-6.6 10M324.8 380.7l-3.1 9.8M333.3 383.2l-2.7 12.9M392.9 385.6l4.5 8.6M402.6 378.3l7.2 7.3M417.6 351.1H428M419.3 341.3h10.8"/><path class="st3" d="m361.3 279.9-.9 29.5 45.8-3.1-6.5-36.9z"/><path class="st3" d="M306.4 318.1s4.4 40.2 22 52.2c17.7 11.9 62.1 9.3 73.2-5.8 11.2-15.1 10.3-49.9 10.3-49.9L371 304.5l-59.3 7.6-5.3 6zM449.6 248.3l3.6 26.9 44.8-5.8V242z"/><path class="st3" d="M390.1 293.3s-18.9-2.2-18.9 11.6 21 9.9 21 9.9l5.2-10.7-7.3-10.8zM493.2 248.2s-7.7-1.3-8.6 3c-.9 4.3-.3 5.8 3 8.6 3 2.6 8.4 1.3 12.5 0 8.1-2.6 8.1-6.8 8.1-12s-4.8-9.4-9.4-10.3c-4.8-.9-17.7.4-27.5-4.3-9.9-4.8-24.5-18-44.7-23.6-20.2-5.5-55.4-3.5-55.4-3.5l-22.4-9.5-43.4 33.6 20.8 75.7"/><path class="st3" d="M500.1 252s4.8 21.4.4 21.9c-4.4.5-17.7 2.2-24.1 3.5s-23.6 22.3-23.2 27.1c.4 4.8 44.7-4.3 44.7-4.3s-9 23.3-18.4 24.9c-9.4 1.5-54.1 10.7-73.9 0-17.1-9.3-21-20.2-17.7-33.9 3.5-13.8 12.5-18.4 12.5-18.4"/><path class="st1" d="M415.2 316.2c-26.2-9.7-14.7-43.6-14.7-43.6s-9 4.8-12.5 18.4c-3.5 13.8.4 24.6 17.7 33.9 19.7 10.7 64.4 1.5 73.9 0 4.5-.8 9-6.6 12.4-12.5-20.9 4.5-58.5 10.5-76.8 3.8z"/><path class="st2" d="M500.1 252s4.8 21.4.4 21.9c-4.4.5-17.7 2.2-24.1 3.5s-23.6 22.3-23.2 27.1c.4 4.8 44.7-4.3 44.7-4.3s-9 23.3-18.4 24.9c-9.4 1.5-54.1 10.7-73.9 0-17.1-9.3-21-20.2-17.7-33.9 3.5-13.8 12.5-18.4 12.5-18.4"/><path class="st5" d="M500.1 286.3s17.1-.6 25.8 13.8c8.6 14.6 6.1 46 6.1 49.4 0 3.4 8.1.9 8.1 7.7s-9 9.4-15.9 9.4c-6.8 0-6.4-34.3-9.9-43.7-3.5-9.4-14.2-15.6-14.2-15.6v-21zM476.4 277.3c-6.4 1.3-23.6 22.3-23.2 27.1.4 4.8 44.7-4.3 44.7-4.3l-21.5-22.8z"/><path class="st4" d="M500.5 273.9c-3.6.5-13.1 1.5-20 2.7 5.3 7 12.5 21 12.5 47.2 24.7-26.7 7.5-49.9 7.5-49.9z"/><path class="st4" d="M466.2 285.1c5.7 3.9 17 14.8 17.9 41.1 16.2-18.7 5.8-42.5 1.5-50.5-3.5.5-7 1-9.3 1.5-2.2.6-6.1 3.8-10.1 7.9z"/><path class="st3" d="m297.5 142.8 4.9-16.8s-.6-19.3-3.7-19.3-44.7 16.5-72.3 37.4-39.1 68.3-35.2 73.1c3.9 4.8 34 8.4 34 8.4v10.1s-38.4-6.8-43.1-3.9c-4.8 3-1.3 48.1 1.3 51.2 2.6 3.1 48.1-2.6 48.1-2.6l1.3 9.4s-40.9 8.1-44.2 13.3c-3.5 5.2 22.2 65.7 26.7 67 4.5 1.3 17.7-5.5 17.7-5.5l24.6-16.4L243 233.5l54.5-90.7z"/><path class="st6" d="M292.6 108.3c-.4-13.9 7.1-48.3 8.1-53.5s-8.1-6.8-10.7-1.7-11.6 42.5-11.6 53.8c0 4.8 3.2 16.1 6.8 27.6 3.6-1.8 7.2-3.5 11.1-5.3-2.1-8.3-3.6-15.9-3.7-20.9zM265.9 120.4c0-15.9 7.5-53.8 8.2-59.2.8-5.5-4.4-9-8.2-4.8s-13.3 47.3-13.3 64.8c0 5.4 3.9 15.2 9.2 26 3.5-2.3 7.1-4.4 10.8-6.6-4-8.5-6.7-15.9-6.7-20.2zM231.5 74.5c0-3.5-11.2-1.7-13.8 1.7-2.6 3.5-3.6 29.3 2.6 47.3 2.3 7 12.6 22 24.4 38 3-3.2 6.2-6.1 9.5-8.8-10.8-16.9-20.1-32.1-21.5-36.1-3.2-9.8-1.2-38.6-1.2-42.1zM206.3 147.6c-7.3-15.5-8.6-56.3-9.9-61.1-1.3-4.8-15.1-4.8-15.1 0s2.2 55.4 15.1 75.7c4.8 7.5 17.7 17.7 32 27.5 1.7-4.9 3.7-9.4 5.9-13.5-13.5-11.7-25.3-22.8-28-28.6zM172.7 154.2s-2.6 24.2 0 29 14.6 17.3 23.6 22.4c3.1 1.8 13.8 5.2 26.4 9 .6-5.3 1.5-10.1 2.6-14.6-11-5.2-20.1-9.7-23.5-11.9-10.6-7-29.1-33.9-29.1-33.9zM171.6 246c-3.9 2.4-4.1 9.9 1.3 14.6 2.7 2.3 25.7 2.6 48.5 2.1-.1-4-.3-8.1-.3-12.5-27.2-2.2-45.4-6.8-49.5-4.2zM164.1 369.1c0 4.1 6.8 12 8.8 8.4 1.8-3.5 13-34.3 23.6-46.4 8-9.2 24.4-15.3 31.8-17.8-.6-2.6-1.3-5.3-1.9-8.1-10.8 2.3-29.6 6.6-36 9.2-9.2 3.7-26.3 50.4-26.3 54.7zM197.2 352.6c-3 8.6-4.3 69.2-4.3 73.1s12.4 3 12.9-2.6c.5-5.5 3.7-60.6 6.8-67 2.2-4.5 15.2-15.3 22.8-21.4-1.2-2.6-2.2-5.4-3.4-8.4-9.6 5.5-32.5 19.4-34.8 26.3z"/><path class="st7" d="M324.8 188.1c-1.3 1.2-14.2-42.2-22.3-62-47.7 22.3-78.6 35.8-81.2 107.4-2.6 71.5 13.3 103.2 25.8 122.6 13.8-8.1 68.7-60.6 68.7-60.6l9-107.4z"/><path class="st8" d="m275 235.3-53.3-9.8-.8 9.8 52 5.8zM306.8 164.8s-6.3-18.8-10.6-35.7c-3.9 1.8-7.5 3.5-11.1 5.3 4.8 15.2 10.4 30.4 10.4 30.4h11.3zM261.7 147.4c11.7 24.2 30.8 53.9 30.8 53.9l9.9-6.4s-19.3-31.1-29.9-54c-3.7 1.9-7.3 4.1-10.8 6.5zM244.8 161.5c18.8 25.5 41.4 53.1 41.4 53.1l3.9-7.3s-19.5-29.1-35.6-54.7c-3.5 2.7-6.7 5.7-9.7 8.9zM281.3 221.9l1.8-7.3s-26.7-19.9-48.9-38.5c-2.3 4.1-4.3 8.6-5.9 13.5 24.5 16.7 53 32.3 53 32.3zM278.4 230.1l3-4.5s-32.2-14.3-55.9-25.5c-1 4.5-1.9 9.4-2.6 14.6 24.1 7 55.5 15.4 55.5 15.4zM268 261.2s15.2-8 1-11.9c-16.1 2.3-32.9 1.9-48 .8 0 4.4.1 8.5.3 12.5 23.5-.4 46.7-1.4 46.7-1.4zM272.9 267.9s-36 5.2-50.9 6.8c.4 4.6.8 8.9 1.4 13l46.4-10.7 3.1-9.1zM270.7 286.3l-45.5 13c.6 3.7 1.4 7.2 2.2 10.6l45.5-14.6-2.2-9zM275 305.6l-45.1 13.1c.9 2.8 1.8 5.7 2.7 8.2l31.2-10.2-24.1 26.6c2.2 4.3 4.5 8.1 6.6 11.5l34.9-37.1-6.2-12.1z"/><path class="st4" d="M310.7 185s-32.1 5.2-42.7 60.2 9.5 76.6 9.5 76.6l44.2-28.1 6.7-83.8-17.7-24.9z"/><path class="st3" d="M327.8 233.1s-49-43.4-46.4-72.2c32.1-4.3 69.6 4.3 83.4 21.5 12.2 15.2 12.5 28.4 9.4 34.4-3 6.1-6.8 8.1-12 5.2-.4 6.8-3.5 11.2-9.4 11.2-6.1 0-3.9-23.2-3.9-23.2"/><circle class="st4" cx="412" cy="267.9" r="21.9"/><circle class="st4" cx="412" cy="267.9" r="7.3"/><ellipse class="st9" cx="311.9" cy="193.1" rx="6.8" ry="8.1"/><ellipse class="st9" cx="334.4" cy="204.6" rx="5.8" ry="8.2"/><ellipse class="st9" cx="368.8" cy="256.9" rx="8.4" ry="11"/><ellipse class="st9" cx="397.4" cy="228" rx="7.3" ry="10.1"/><ellipse class="st9" cx="439.3" cy="236.6" rx="10.1" ry="8.5"/><ellipse class="st9" cx="468.9" cy="250.1" rx="9.3" ry="6.8"/><ellipse class="st9" cx="452.2" cy="276.3" rx="7.6" ry="8.4"/><ellipse class="st9" cx="434.3" cy="304.6" rx="7.7" ry="8.8"/><path class="st4" d="M358.7 351.1c-.8 4.9-3.4 19.1-1.7 27.2s14.2 22.3 14.2 22.3 10.7-15.5 9-29c-1.7-13.7-11.6-22-11.6-22l-9.9 1.5z"/><ellipse class="st9" cx="549.3" cy="330.1" rx="9.3" ry="10.8"/><ellipse class="st9" cx="580.1" cy="308.2" rx="8.1" ry="11.2"/><ellipse transform="rotate(-53.516 624.898 352.708)" class="st9" cx="624.9" cy="352.7" rx="8.2" ry="6.2"/><ellipse transform="rotate(-53.516 615.752 379.556)" class="st9" cx="615.8" cy="379.5" rx="12.6" ry="6.7"/><ellipse class="st9" cx="574.6" cy="433.3" rx="8.4" ry="9"/><ellipse class="st9" cx="549.3" cy="466" rx="9.3" ry="8.1"/><ellipse transform="rotate(-118.823 517.932 455.042)" class="st9" cx="517.9" cy="455" rx="11.5" ry="8.4"/><ellipse transform="rotate(-118.823 489.675 425.376)" class="st9" cx="489.7" cy="425.4" rx="13.8" ry="10.1"/><path class="st2" d="m296.7 227.5 12.2 7.9M292.6 235.4l13.4 5.7M290 246l15.1 1.6M290 254h15.4M268 301.1l13.3-4M266.7 291.1l11.7-3.5M265.4 279.9l12.1-.3M264.9 270.8l13.5-.3M268 261.2l11.7-.7M268.9 249.4l10.8.7M269.4 238.2l11.9 1.6M273.3 225.5l11.7 4.6M278.4 213.7l7.9 6.1M285 203.3l9.3 9.5"/><path class="st10" d="M444.3 792.1c0-7.3 7.2-10.3 12.9-10.3 5.5 0 18.4 14.2 18.4 18s-4.5 14.2-9.4 15.5c-5 1.3-21.9-16-21.9-23.2zM508.3 806.3c-4.8 2.2-3.9 9.9-.9 13.3 3 3.5 17.1 4.3 20.2 0 3.1-4.3 2.6-5 1.3-9.4s-15.9-6.1-20.6-3.9zM555.1 808c0-6.4 11.2-9.4 17.1-9.4 6.1 0 9.4 6.4 9.4 10.7 0 4.3-15.7 10.7-20.1 10.7-4.3 0-6.4-5.6-6.4-12zM612.7 772.8s-2.6-13.3-9-13.3-18 9.4-18 14.6 8.6 12 8.6 12l18.4-13.3z"/><path class="st10" d="M610.5 754.2c-2.3 6.4 1 20.6 8.6 21 7.6.4 21.5-5.5 24.1-11.9 2.6-6.2-2.4-16.5-9.4-18.3-6.9-1.7-21 2.8-23.3 9.2zM579.5 793.8c-2.6 4.8 2.2 11.5 6.4 11.5s17.7-6.3 17.7-11.5-1.3-9.4-6.8-10.7-14.7 5.9-17.3 10.7zM531.9 811.4c-3 6.1 0 11.6 4.3 13.8 4.3 2.2 18.9 1 23.6-2.7s-.9-17.1-4.3-17.1c-3.4-.1-20.7 0-23.6 6z"/><circle class="st2" cx="309.4" cy="446.5" r="19.2"/><path class="st2" d="M644.9 215.7c6.4-10.1 22.3-17.5 22.3-17.5"/><path class="st9" d="M674.3 250.1s-14.6-14.1-5.8-20.8c8.8-6.7 19.2 12.6 19.2 12.6M642.7 255.6s7.9 17 15.7 12.2-3.9-21.9-3.9-21.9"/><ellipse transform="scale(-1) rotate(41.923 877.633 -1014.111)" class="st9" cx="388.5" cy="336.2" rx="9.3" ry="7.1"/><path class="st2" d="M395.1 352.8c-4.8 3.9-13.1 2.6-13.1 2.6M396.9 289.8l-8.4 4.8M397.4 297.1l-8.9 7M400 304l-7.7 10.7M404.8 309.4l-6.5 10M409.8 314.4l-2.1 9.9M417.6 317.8l-1.2 10.3M426.7 319.4l-1.3 9.1M434.3 320.1l-.4 8.4M442 320.1v8.4M451.9 320.1v8.4M459.7 319.4v8.4M466.5 318l1.2 8.5M474.4 316.2l1.6 9.7M266.2 424.2l-3.1 22.3M263.1 455l-3.6 25M256.9 488.6l-1.3 18.1"/><ellipse class="st9" cx="255.7" cy="521.4" rx="7.2" ry="8.9"/><path class="st2" d="m287.8 442.3-1.5 21.4M283.3 477.6l-2 15.9M281.3 502.1l-1.6 12.9M276.6 528.4l-3.7 22.3"/><path class="st9" d="M293.4 512.7s3.6 15.9 9.8 11.3c6.2-4.5-.9-20.6-.9-20.6M307.6 541.8s13.9 13 18.4 6.3c4.5-6.7-12.2-16-12.2-16M374.6 488.6c-.1 0-13.9-7.1-10.6-14.6 3.4-7.5 17.5 0 17.5 0"/><ellipse class="st9" cx="390.7" cy="507" rx="7.6" ry="13.5"/><ellipse class="st9" cx="408.6" cy="469" rx="7" ry="11.2"/><path class="st9" d="M412 485.6s15.9.5 14.6 7.9c-1.3 7.3-14.6 5.9-14.6 5.9"/><path class="st2" d="m256.3 584.6-2.9 19.2"/><path class="st9" d="M230.2 616.6s2.3 10.1 8.1 6.4c5.8-3.6 0-15.3 0-13.9M237.6 641.7s-6.4 13.3 0 13.5 13.9-13.5 13.9-13.5M265 603.8s-5.8 15.1 0 17.9c5.8 2.8 11.6-12.6 11.6-12.6M305.6 623.8s-1.7-14.7 8.6-14.7c10.3 0 5.5 14.7 5.5 14.7"/><ellipse class="st9" cx="327.8" cy="652.9" rx="9.7" ry="8.4"/><ellipse class="st9" cx="390.4" cy="662.3" rx="11.1" ry="9.4"/><path class="st9" d="M349.1 641.7c1.7 0 8-13.5 15-6.8 7 6.8 0 15.9 0 15.9M410.8 633.1s-5.9 9.7-.8 14.2c5.2 4.5 9-2.6 9-2.6M459.7 606.9c.5 1.7-2.1 22.3 9.3 19.2 11.3-3.1 5.2-19.2 5.2-19.2"/><ellipse class="st9" cx="491.4" cy="679.1" rx="7.2" ry="11"/><ellipse class="st9" cx="488.3" cy="721.6" rx="5.8" ry="9"/><ellipse class="st9" cx="486.2" cy="768.7" rx="5" ry="9.3"/><ellipse class="st9" cx="519.9" cy="677.1" rx="5.8" ry="10.6"/><ellipse class="st9" cx="515.9" cy="722.8" rx="7.9" ry="10.2"/><ellipse class="st9" cx="523.6" cy="763.9" rx="6.3" ry="8.9"/><ellipse class="st9" cx="557.2" cy="762.7" rx="9.4" ry="5.9"/><ellipse class="st9" cx="508.4" cy="793.1" rx="9.8" ry="5.3"/><path class="st2" d="m536 778.2 4.9 24.9M549.5 779.7l4.9 22.1M605.1 309.4 632 290M613.6 330.1s11-16.6 20.8-28"/><path class="st3" d="m203.2 766.3-13-18.8c-6.2 4.6-11.5 8.2-14.4 11.5-8.1 8.6-12.2 22.8-15.5 35.7-3 11.7-2.2 28 0 33.9.9 2.7 4.4 3.7 7.7 3.7 4.3 0 8.6-1.9 8.1-5-.9-5.5-.4-34.4 17.7-45.5 4.3-2.6 9.2-5.2 14.6-8.1l-5.2-7.4z"/><path class="st2" d="m171.1 765.2 9.8 9.3M164.4 783l9.4 4.9M161 791.9l8.5 3.2M211.8 762l5.3 6.7M219.5 757.6l5.6 6.4M226.6 752.5l5.6 6.4M233.6 746.1l5 7.1M241.2 736.9l6.4 6.6M247.1 729.6l7.6 6.2M253.3 718.6l7.3 6.9M257.2 709.1l8.2 7M260.6 698.1l8.9 6.2M263.6 686.5l9.8 7M266.3 675.6l9.4 6.2M268.1 663.6l10.2 5.2M270.8 649.7l8.8 5.5M279.6 626.1l.5 19.5M287.6 636.9l-1.7 20.9M296 647.4l-2.7 20.7M302.9 655.2l-2.2 20.8M312.2 664l-2.3 19.1M322.9 671.7v17.8M334.2 677.6v16.5M344.8 681.5v14.6M353.7 683.1l.5 14.3M362.7 684v14M371.5 683.8l.3 13.6M381.6 683.8v12.3M390.6 681.6l-.2 14.1M398.7 679.6l1.4 13.6M407.2 676.9l.6 12.6M416.4 673.5v12.4M427.7 666.4 429 681M435.2 661.3 437 676M443 655.5l1.3 14.2M450.9 647.4l1.3 13.9M459.7 637.9l-.3 15M459.4 652.9l12.5-13.5M459.7 662.6l13.2-9.7M460.1 676l12.8-9.8M461.2 687.7l12-8.6M461.2 699.3l12.5-8.6M461.1 712.6l10.8-7M462.6 722.8l11-6.7M462.6 734.4l10.3-6.1M462.6 744.8l11.1-7.2M462.2 754.9l11.4-5.6M462.6 764l9.3-4.6M457.1 781.8l15.8-11.3M465 786.1l7.9-5.8M471.1 792.4l4.6-4.4M473.5 811.8l9-14.5M482.5 815.4l5.8-13M495.1 815.7l3.5-10.4M529.9 804.6l.9 10.6M467.1 457.7l4-13.5M474.5 463.7l4.1-14.1M482.5 469l1.7-15.4M489.7 474.1l2.6-14.9M498.6 482l1.5-16M510.2 488.6l1.7-16.5M523.2 496.4l2.5-14.4M537.3 499.5v-13.9M551.4 499.5l-4.7-16.4M565 492.5l-6.5-16.2M574.5 480.3l-5.7-13.7M583 469.1l-7.1-11.4M589.9 459.8l-5.2-13.3M598.8 447.6l-7.8-12.7M606.5 434.9l-6.1-10.7M615.8 424.1l-6.4-12M623.4 413.3l-5.6-12.7M632 399.2l-4.8-11.3M502.3 403.7l-1.5-15.6M511.9 399l-1.7-15.8M522.2 393.6l-2.1-17.2M530.8 385.8l-.9-13.9M540.1 379.5v-17.1M549.5 371l2.3-15.6M561.8 362.4l.3-14.9M571.8 351.1v-12.2M579.5 347.7l2-16.3M591 338.9v-14.6M599.5 331.4v-11.3M606.5 326.5l1-11.3M653.4 292.1l.9-12.8M665.9 289.8l1.4-16.8M673.3 277.9l1-10M684.2 272.9v-11.7M693 269.4V255M702.9 265.3l.6-13.8M712.7 262.2l.6-10.7"/><path class="st4" d="M335.5 331.9s-2.4 36.9 3.5 38.4c2.7.8 12.1-8 21.5-9.9 11-2.2 21.9 2.1 21.9-1.4 0-6.4-15.5-27.1-15.5-27.1h-31.4 0z"/><path class="st4" d="M330.6 309.6c-5.8 7.1 1.5 25.4 6.2 29.6 4.8 4.1 30.4 1.2 32-4 1.5-5.2-1.9-24-8.4-26-6.4-1.9-24-6.6-29.8.4z"/><path class="st7" d="M290 303.6s-58.9 57.6-63.2 63.5c-4.3 6.1.8 21 8.1 14.6S307 320 307 320l3.5-19.7-15.5-4.8-5 8.1z"/><path class="st10" d="M290 265.3v38.3l81.2 8.5V277z"/><path class="st2" d="M357.1 310.7v-17.4l-43.1-3.5"/><path class="st11" d="M305.9 304.9c-2.4 6.2-10.7 16.4-7.7 19.7 3 3.5 7.3-5.5 11.6-5.5s6.4 12 13.8 9c7.3-3-2.2-9 0-11.6s16.4 6.1 15.1-1.3-12-7.3-16.4-12c-4.3-4.8-3.9-30.5-3.9-30.5s20.2 6.4 25.4-1.3c5.2-7.7 1.4-15.1-5.5-17.1 10.7-2.2 8.6-21.9-2.6-27.1-11.2-5.2-28.4 3.5-30 16.4-2 12.7 2.6 55.1.2 61.3z"/><path class="st2" d="M328.6 243.4s0 10.3 9.5 10.7c-9.5 0-6.8 7.1-6.8 7.1"/><circle cx="315.4" cy="255.6" r="3.4"/><circle cx="324.8" cy="238.5" r="3.4"/><path class="st4" d="M364.8 182.4c-13.8-17.1-51.3-25.8-83.4-21.5 6.8 8.6 51.9 15.5 65.4 28 13.3 12.5 15.5 19.3 15.5 33.1 5.2 3 9 .9 12-5.2 2.9-6 2.6-19.2-9.5-34.4z"/><path class="st3" d="M493.2 248.2s-7.7-1.3-8.6 3c-.9 4.3-.3 5.8 3 8.6 3 2.6 8.4 1.3 12.5 0 8.1-2.6 8.1-6.8 8.1-12"/><circle class="st4" cx="447.6" cy="427.7" r="22.3"/><circle class="st6" cx="446.1" cy="463.7" r="19.5"/><circle class="st11" cx="439.6" cy="496.4" r="20.2"/><circle class="st4" cx="309.4" cy="446.5" r="19.2"/><circle class="st3" cx="321.5" cy="480" r="19.2"/><circle class="st4" cx="337.3" cy="511.1" r="19.2"/><path class="st4" d="M232.8 480.2c-13.9-.5-22.4 5.2-22.3 22 .1 16.9 25.8 36.6 25.8 36.6s2.7 2.4 5.3 4.3c.3-2.6.6-5.4.9-8.5-12.2-21-14.4-38-9.4-39.7 2.6-.9 7.6 8 11.7 16.6.8-7.6 1.5-15.6 2.3-23.7-3.7-4.1-8.5-7.5-14.3-7.6zM238.1 564.6c-1.9-.1-4.5.4-7.9 2.4-12 7.2-73.5 98.4-73.5 103.9s9.4 19.7 15.1 19.7c4 0 34.3-42.8 50.8-66.4.1-3.7.3-7.3.8-11 4.1-29 10.4-33.1 14.7-48.6z"/><path class="st4" d="M371.5 600.8s-48 1-79.8-3c-31.8-4.1-51.8-12-59-20.1-7.2-8.1-7.6-21.8-.8-25.7-1.7-5.7-2.3-19.6 9.2-21.7 11.5-1.9 11.1 23.8 62.1 29.3S346 563 346 563l35.4.9v32.7l-9.9 4.2z"/><path class="st2" d="M232 552c5.2 11.1 49 26.9 126.8 26.9"/><path class="st6" d="m372.3 563.2-.8 37.6H395l-.8-33.9h21.4v31.3l24-.7-3.7-30.6-44.5-9.8z"/><circle class="st4" cx="383.1" cy="623" r="13.9"/><circle class="st4" cx="430.3" cy="623" r="13.9"/><path class="st2" d="m383.1 609.1-.3 17.1M430.3 606.9v19.3"/><path class="st6" d="M371.2 532.5c3.5 3 36.3 2.2 38.5 0 1.4-1.4 1-12 .5-19.2-12.5-.6-27.7-.9-39.7-.5-.7 6.4-1.7 17.6.7 19.7z"/><path class="st6" d="M433.2 515.6c-.8-.8-10.4-1.7-22.9-2.3.5 7.2.9 17.8-.5 19.2-2.2 2.2-35.2 3-38.5 0-2.4-2.2-1.4-13.4-.6-19.7-10.6.4-18.7 1.2-20 2.8-2.2 2.6-3.4 12.8-3.9 23.1 38.3 8.8 73.1 4.9 89.8 1.9-.8-12.2-2.2-23.8-3.4-25z"/><path class="st5" d="M436.5 540.6c-16.6 3-51.4 6.8-89.8-1.9-.3 4.1-.4 8.2-.4 12 40.2 9.5 74.9 6.8 90.6 4.8.1-4.6 0-9.7-.4-14.9z"/><path class="st4" d="m423.7 556.9.5 14.1c5.5-.1 9.3-.4 10.2-.9 1.7-.9 2.3-6.8 2.3-14.4-3.3.3-7.7.8-13 1.2zM358.9 553.3l-1.2 13.7c4 .6 8.9 1.2 14.2 1.7l.9-13.3c-4.5-.6-9.2-1.2-13.9-2.1zM346.2 550.7c-.1 5.7-.1 10.4-.1 12.4 0 1.5 4.5 2.8 11.5 3.9l1.2-13.7c-4.1-.8-8.3-1.6-12.6-2.6zM372.8 555.5l-.9 13.3c5.9.5 12.2 1 18.7 1.3l.8-12.9c-6-.5-12.2-1-18.6-1.7z"/><path class="st4" d="m391.4 557.1-.8 12.9c5.7.3 11.3.5 16.6.6l-.3-13.3c-4.9.2-10 .1-15.5-.2z"/><path class="st4" d="m406.9 557.5.3 13.3c6.6.1 12.5.3 17.1.1l-.5-14.1c-5 .3-10.7.6-16.9.7z"/><path class="st5" d="M367.4 594c-4.4 2.2-5.3 12 2.3 16.8 7.6 4.8 25.9 4.3 29.1 1.3 3.2-3 4-13.3 0-16.4-2.1-1.5-8.8 1.4-15.6 1-6.8-.3-13.6-3.7-15.8-2.7zM412.9 596.2c-4 2.7-3.6 12.6 4.5 16.2 8.1 3.6 26.2.6 29.1-2.7 2.8-3.5 2.2-13.8-2.2-16.1-2.2-1.2-8.5 2.6-15.3 3.2-6.8.7-14.1-1.9-16.1-.6z"/><path class="st1" d="M454.9 802.4c-2.1-1.7-4.8-1.8-7.5-1.3-2.2 7.6-.1 18.9 9.3 27.5-1.5-9.4.5-15.7 3-20.2-1.5-2.4-3.1-4.6-4.8-6z"/><path class="st12" d="M454.9 802.4c1.7 1.4 3.4 3.6 4.8 5.9 1.2-2.1 2.2-3.9 3.1-5.3 2.6-4.6-6.1-13.7-12-7.7-1.4 1.4-2.6 3.5-3.2 5.8 2.5-.4 5.2-.2 7.3 1.3z"/><path class="st1" d="M511.4 828.1c-.4 5.2-.3 11.3.4 17.8 6.3-5.9 9.7-11.6 11.2-16.4-1.4-.9-3.1-1.7-4.8-2.1-1.9-.5-4.5-.1-6.8.7z"/><path class="st12" d="M522.8 820c-2.3-4.6-7.7-6.3-9.4-3.4-.9 1.5-1.7 5.8-2.1 11.5 2.3-.6 4.9-1.2 6.8-.8 1.5.4 3.2 1.2 4.8 2.1 1.2-4 1.1-7.3-.1-9.4z"/><path class="st1" d="M540.1 831.9c.4 4.5 0 10.3-4.1 17.9 9.9 1 17.7-3.7 19.1-10.7.6-3.2.9-6.6.6-9.8-1.5-.5-3.5-.8-5.9-.8-3.8.1-7.1 1.6-9.7 3.4z"/><path class="st12" d="M540.5 820c-2.3 2.8-.8 6.4-.4 11.9 2.6-1.8 5.9-3.4 9.7-3.4 2.3 0 4.3.4 5.9.8-.3-3.7-1.2-7.1-2.3-9.4-2.2-4.2-8.7-5.1-12.9.1z"/><path class="st1" d="M575.9 820c-3.9 1.8-6.1 4-7.5 5.8 1.5 4.4 2.2 9.8-1.4 16.6 11.7 1.3 18-10.8 18.4-12.6.8-3.4-.1-7.6-1.7-11.3-2-.2-4.7 0-7.8 1.5z"/><path class="st12" d="M577.6 809.3c-3.6-1.7-10.7 2.3-12.2 6.4-.8 2.2 1.7 5.5 3.2 10.1 1.3-1.9 3.6-4 7.5-5.8 3-1.4 5.7-1.7 8-1.5-2-4.5-4.6-8.3-6.5-9.2z"/><path class="st1" d="M599.1 805.3c-2.8 1.2-4.8 3.5-5.9 5.7 2.4 4.6 4.8 11 4.3 19.5 9.4-5.4 9.4-14.8 9.4-21.5 0-.6 0-1.3-.1-1.9-2.1-1.7-4.8-2.9-7.7-1.8z"/><path class="st12" d="M597.8 795.3c-4.3-.6-9.4 1.8-9.7 5.7-.1 2.1 2.4 5 5 9.9 1.2-2.2 3.1-4.5 5.9-5.7 2.8-1.2 5.5 0 7.6 1.7-.6-5.9-5-10.9-8.8-11.6zM609.8 770.8c-4.8-2.2-11.3 4.3-12.2 9-.3 1.7.8 3.6 2.6 6.1 1-2.3 3.1-4.6 7.1-5.7 3-.8 5.8-.6 8.2-.1-1.5-4.7-3.7-8.4-5.7-9.3z"/><path class="st1" d="M607.3 780.3c-4.1 1-6.1 3.4-7.1 5.7 3.2 4.4 8.8 10.3 12.5 19.3 5.4-7.9 5-17.9 2.7-25.3-2.3-.4-5.2-.5-8.1.3zM631.9 766.1c-3.4 1.3-4.6 4-5.2 6.7 4.1 6.6 8.5 15 6.7 22.6 9.7-5 11.7-13 9.3-22.6-.5-2.2-1.2-4.1-1.7-5.8-3.1-1.3-6.4-2-9.1-.9z"/><path class="st12" d="M633.2 755.8c-5-3-13.1 2.4-13.1 6.1 0 1.5 3.2 5.7 6.6 11 .5-2.7 1.8-5.4 5.2-6.7 2.8-1 6.1-.4 9.2.9-2-5.9-4.1-9.1-7.9-11.3z"/><path class="st2" d="M450.6 795.3c6.1-5.9 14.6 3.1 12 7.7-2.6 4.6-8.4 11.7-6.1 25.5-12.2-11.1-11.8-27.2-5.9-33.2zM513.4 816.6c-1.7 3-3.2 15.7-1.7 29.1 11.5-10.7 13.5-21.1 11.2-25.8-2.4-4.6-7.8-6.3-9.5-3.3zM540.5 820c-4.3 5.2 4.5 13.3-4.5 29.9 9.9 1 17.7-3.7 19.1-10.7 1.5-6.8.5-15-1.7-19.2-2.2-4.3-8.7-5.2-12.9 0zM565.4 815.7c-1.7 4.3 9.4 12.8 1.8 26.7 11.7 1.3 18-10.8 18.4-12.6 1.7-7.3-4.5-18.8-8-20.5-3.6-1.7-10.7 2.3-12.2 6.4zM588.2 801.1c-.3 4 10.3 12.1 9.4 29.4 9.4-5.4 9.4-14.8 9.4-21.5 0-6.7-4.9-12.9-9-13.5-4.4-.8-9.6 1.6-9.8 5.6zM609.8 770.8c4.8 2.2 11.9 21.4 2.8 34.4-5.8-14.1-16-20.6-15.2-25.4 1-4.6 7.5-11.1 12.4-9zM620 761.8c0 3.6 16.5 20 13.3 33.5 9.7-5 11.7-13 9.3-22.6-2.6-9.5-4.4-14.1-9.4-17-5.1-2.9-13.2 2.5-13.2 6.1z"/><path class="st10" d="M658.2 356.8c-16-7-32.4 18-15.5 29 16.8 11 33.5-21.1 15.5-29z"/><path class="st10" d="M663.3 320.5c-21 4.6-22.9 34.8-2.4 34.9 20.5.3 23.3-39.6 2.4-34.9z"/><path class="st10" d="M639.4 297.1c-14.8 10.7-3.1 37.4 16.9 26.7s6-43.3-16.9-26.7zM618.1 266.6c-17.4 12 .6 44.9 20.4 30.5 19.7-14.3-3-42.6-20.4-30.5zM594.4 236.6c-18.3 12.5 4.3 41.9 20 29.9s-1.7-42.4-20-29.9z"/><path class="st1" d="M613.7 246.4c.6 2.3 1.9 4.1 3.5 5.5.8-.6 1.8-1 3.2-1 7.1-.4 13.8 1.2 17.4 3.1 0-10.1-10.6-14.3-17.4-15.9-1.8-.4-3.5-.5-5.2-.4-1.4 2.2-2.5 5.2-1.5 8.7z"/><path class="st12" d="M613.7 246.4c-.9-3.6.1-6.4 1.7-8.5-4.4.4-8.1 3-11.3 6.8-4.5 5.4-.1 14.6 5.9 14.6 4.8 0 4.1-5 7.3-7.3-1.8-1.5-3.1-3.3-3.6-5.6zM632.8 277.9c-2.1-1.7-2.3-5.2-2.2-8.4-2.1 1.5-3.5 3.5-4.4 7-1.9 7 5.5 15.2 10.3 13.3 3.6-1.4 3.5-6.3 4.6-10.4-3.3.1-6.5-.1-8.3-1.5z"/><path class="st1" d="M632.8 277.9c1.8 1.4 5.2 1.7 8.4 1.4.4-1.4.9-2.7 1.8-3.7 3.5-4.3 16.5-12 16.5-12s-13.1-1.5-20.4 1.7c-3.6 1.7-6.4 2.7-8.5 4.3-.3 3.2.1 6.7 2.2 8.3zM654.3 300.6c1.4 1.5 3.7 2.6 6.1 3.4.6-1 1.4-1.8 2.6-2.3 4.6-1.9 8.2-1 16.8-2.1-3.1-6.2-11.9-8.4-17.5-8.6-2.7-.1-5.5 0-8.2 1-1.3 3.1-1.9 6.6.2 8.6z"/><path class="st12" d="M654.3 312.3c3.7 0 4-5 6.1-8.4-2.3-.8-4.6-1.8-6.1-3.4-2.1-2.1-1.5-5.7-.5-8.6-3 1-5.7 2.8-7.7 6.3-3.9 6.8 3.3 14.1 8.2 14.1z"/><path class="st1" d="M685.9 325c-4-4-12.4-4.6-18.9-3-1.4 2.4-2.3 5.4-.9 8.1.8 1.4 1.9 2.3 3.5 3.1 2.2-3.1 8.4-4.2 16.3-8.2z"/><path class="st12" d="M665.9 330.1c-1.4-2.7-.5-5.7.9-8.1-4.1 1-7.7 3.1-9 5.8-3.6 7.1.6 15.7 5.8 15.7s3.2-6.4 5.5-9.9c.1-.1.3-.3.3-.4-1.6-.7-2.7-1.6-3.5-3.1z"/><path class="st1" d="M656.9 380.1c-2.3 1.8-3.2 4.3-3.4 6.7 3 3.1 5.8 6.1 6.1 8 .5 4.4-4.1 7.1-13.4 10.7 19.5 0 23.3-1.5 24.6-10.7.8-5.4-2.3-11.3-5.8-16-3-.5-5.9-.5-8.1 1.3z"/><path class="st12" d="M658.2 371.6c-4.3-3.6-11.3.5-12.1 4.9-.5 2.4 3.6 6.4 7.3 10.3.3-2.3 1-4.9 3.4-6.7 2.3-1.7 5.3-1.8 8.1-1.3-2.3-3.2-4.9-5.7-6.7-7.2z"/><path class="st2" d="M603.9 244.7c-4.5 5.4-.1 14.6 5.9 14.6 6.1 0 3.5-8 10.6-8.4 7.1-.4 13.8 1.2 17.4 3.1 0-10.1-10.6-14.3-17.4-15.9-6.8-1.5-12 1.2-16.5 6.6zM626.2 276.5c-1.9 7 5.5 15.2 10.3 13.3 4.8-1.9 3-9.9 6.4-14.2 3.5-4.3 16.5-12 16.5-12s-13.1-1.5-20.4 1.7c-7.1 3.2-10.9 4.1-12.8 11.2zM654.3 312.3c-4.9 0-12.1-7.3-8.1-13.9 4-6.7 10.3-7.5 16-7.3 5.7.3 14.4 2.3 17.5 8.6-8.5 1-12 .1-16.8 2.1-4.7 1.9-3.8 10.5-8.6 10.5zM663.6 343.5c-5.2 0-9.3-8.6-5.8-15.7 3.5-7.1 21.5-9.3 28-2.8-8.1 4.1-14.4 5.2-16.8 8.6-2.3 3.5-.3 9.9-5.4 9.9zM646.1 376.5c-.9 4.4 12.9 13.9 13.4 18.3s-4.1 7.1-13.4 10.7c19.5 0 23.3-1.5 24.6-10.7s-8.1-19.6-12.5-23.2c-4.3-3.6-11.2.6-12.1 4.9z"/><path class="st10" d="M640.8 149.5c-21.7 7 1 43.4 18.7 32.2s2.8-39.1-18.7-32.2z"/><path class="st10" d="M686.8 199.2c16.8-12.1-3.9-35.4-19.5-24.5-15.6 10.9 2.7 36.6 19.5 24.5z"/><path class="st10" d="M705.9 220.8c18.7-13.9-1.3-35.6-19.1-24.2-17.8 11.3.4 38.1 19.1 24.2z"/><path class="st10" d="M725.2 247.5c18.7-12.6-.9-39.6-19.3-26.8-18.5 12.9.6 39.4 19.3 26.8zM671.2 278.6c-1.3 8.9 2.1 17.9 13 15.9 11-2.1 23.1-9.4 26-15.9 3-6.4-2.1-19.5-12-17.4-9.7 2-25.7 8.5-27 17.4z"/><path class="st12" d="M657.8 159c-2.3-2.7-2.6-6.1-2.1-8.9-4.9 2.3-7.9 5.5-9.3 9.2-1.7 4.5 6.3 12.6 13 9.4 2.7-1.3 4.1-3.9 6.1-6.6-2.7-.1-5.7-.7-7.7-3.1z"/><path class="st1" d="M657.8 159c2.1 2.4 5 3.1 7.7 3.1 2.8-4.3 6.7-9 17.4-10.4-7.1-5.8-16.2-5.4-23.5-3.1-1.4.5-2.7 1-3.9 1.5-.3 2.8 0 6.1 2.3 8.9zM679.6 179.2c2.7 2.4 6.3 3.2 9.5 3.4 2.4-4.1 5.9-8.6 16.2-9.9-5.3-7.2-13.3-8.9-20.5-6.4-3.5 1.2-6.6 3.4-9 5.9.3 2.2 1.2 4.8 3.8 7z"/><path class="st12" d="M679.6 179.2c-2.6-2.2-3.5-4.8-3.7-7.1-2.7 2.8-4.8 5.9-5.7 8.2-1.7 4.5 6.3 12.5 13 9.3 2.8-1.4 4.1-4.3 5.9-7.2-3.2 0-6.8-.8-9.5-3.2z"/><path class="st1" d="M699.6 193.5c-.4 2.7-.3 6.1 1.3 8.9.9 1.7 2.6 3 4.6 3.9 1.9-3.5 6.3-7.1 19.7-9-5.3-7.2-13.3-8.9-20.5-6.4-1.8.5-3.5 1.4-5.1 2.6z"/><path class="st12" d="M701 202.4c-1.5-3-1.7-6.2-1.3-8.9-4.6 3.2-8.2 8.2-9.5 11.5-1.7 4.5 4 13.3 10.7 10.1 3.4-1.7 2.8-5.2 4.8-8.6-2.2-1.1-3.8-2.4-4.7-4.1z"/><path class="st1" d="M743.2 224.7c-5.3-7.2-8.4-9.8-17.9-9-.5 0-1.2.1-1.7.3-1.7 2.1-3.2 5-2.2 8.9.6 2.8 2.6 4.8 4.6 6.2 1.7-3.3 4.7-6.4 17.2-6.4z"/><path class="st12" d="M721.3 224.7c-.9-3.9.5-6.8 2.2-8.9-6.7 1.3-11.3 7-13 11.1-1.7 4.5 4 13.3 10.7 10.1 2.8-1.4 3.4-3.7 4.6-6.1-1.9-1.3-3.7-3.2-4.5-6.2zM702 277.9c-3.6-1-10.1.5-11.7 5.5-1.2 3.5 1.2 6.1 2.8 9.2 2.1-1.7 4.6-3.2 7.7-3.6 2.8-.4 5.7.1 8.1 1-1-7.4-4.2-11.3-6.9-12.1z"/><path class="st1" d="M700.7 288.9c-3.1.5-5.7 1.9-7.7 3.6.8 1.4 1.3 2.8 1.3 4.5 0 5.3-3.9 25.9-3.9 25.9s17.7-13.8 18.6-25.9c.1-2.7.1-5-.1-7.2-2.5-.8-5.4-1.3-8.2-.9z"/><path class="st2" d="M646.4 159.2c-1.7 4.5 6.3 12.6 13 9.4 6.8-3.2 5.7-14.8 23.5-17-7.1-5.8-16.2-5.4-23.5-3.1-7 2.3-11.3 6.3-13 10.7zM670 180.5c-1.7 4.5 6.3 12.5 13 9.3 6.8-3.2 4.4-14.8 22.2-17-5.3-7.2-13.3-8.9-20.5-6.4-7.2 2.4-12.9 9.6-14.7 14.1zM690 205c-1.7 4.5 4 13.3 10.7 10.1 6.7-3.2-2.4-13.8 24.5-17.8-5.3-7.2-13.3-8.9-20.5-6.4-7.1 2.2-13 9.6-14.7 14.1zM710.6 227c-1.7 4.5 4 13.3 10.7 10.1 6.7-3.2.3-12.2 21.8-12.2-5.3-7.2-8.4-9.8-17.9-9-7.5.3-12.9 6.6-14.6 11.1zM690.1 283.5c-1.8 5 4.1 8.4 4.1 13.7s-3.9 25.9-3.9 25.9 17.7-13.8 18.6-25.9c.9-12.1-3.5-18.2-7.1-19.2s-9.9.4-11.7 5.5z"/></svg>