<svg version="1.1" id="Calque_1" xmlns="http://www.w3.org/2000/svg" x="0" y="0" viewBox="0 0 900 900" style="enable-background:new 0 0 900 900" xml:space="preserve"><style>.st0,.st1,.st2,.st3,.st4{fill:#fdcf16;stroke:#010101;stroke-width:7.4839;stroke-linecap:round;stroke-linejoin:round}.st1,.st2,.st3,.st4{fill:#ff000d}.st2,.st3,.st4{fill:none}.st3,.st4{fill:#fecf0a}.st4{fill:#fff}</style><path class="st0" d="M158.1 625.9s-19.1 16.8 1.1 37c20.2 20.2 43.8 16.8 43.8 16.8l16.8-70.7-28.1-6.7-33.6 23.6z"/><path class="st0" d="M203 666.3 142.4 829l102.1 2.3 2.3-51.7 48.3-1 3.3-41.6h111.1l1.2 42.6 60.6 2.3-1.1 42.7 112.2-7.9-59.5-154.9-211-29.2z"/><path class="st1" d="m221 667.4-50.6 141.4 49.4 1.2 7.9-50.6 41.5-3.3 2.3-44.9 160.5-6.7 1.1 46 57.3-3.4 8.9 51.6 47.2-6.7-58.4-129.1z"/><path class="st0" d="M252.3 668.3s249.2 4.2 270.5-2.5c35.9-7 41.7-101.7-6.6-104-34.8-1.2-75.2.2-75.2.2l-211 9.7 22.3 96.6z"/><path class="st1" d="M249 649.4s261.5 3.3 271.6-2.3c10.1-5.6 19.1-59.5-4.5-65.1-23.6-5.6-266.1 2.3-266.1 2.3l-22.5 22.5 21.5 42.6z"/><circle class="st0" cx="460.8" cy="615" r="32.6"/><circle class="st0" cx="372.5" cy="614.7" r="32.6"/><circle class="st0" cx="279.3" cy="613.5" r="32.6"/><path class="st0" d="M250.1 592.2c-11.2 21.3 11.2 74.1 11.2 85.3s-16.8 11.2-20.2 6.7c-3.3-4.5-4.5-12.4-4.5-12.4-4.5 10.1-20.2 10.1-22.5 3.3-11.2 4.5-20.2-2.3-18-9-6.7 1.1-16.1-12-9.4-16.5-12-8.2-10.8-17.2-10.8-17.2l12.4-59.5 47.1-59.5 31.4 16.8c.2.3-5.4 40.7-16.7 62z"/><path class="st2" d="m196.3 666.3 12.3-22.5M214.2 675.2l4.5-21.3M236.7 671.9l-4.5-20.2M206.4 629.2s-20.9 23.2-19.5 20.6"/><path class="st0" d="M237.8 535s-26.9 68.5-53.9 89.8c-7.9 7.9-13.4 10.1-22.5 10.1-9 0-6.7-7.9-6.7-14.6-5.6-2.3-4.5-9-3.3-14.6-6.7 1.1-5.6-7.9-1.1-13.4-10.1-1.1-6.7-15.7-1.1-20.2-6.7-5.6-3.3-14.6 2.3-18-10.1-3.3-4.1-14.6 1.5-16.8 5.6-2.3 12 2.3 18.7-7.9 6.7-10.1 13.4-43.8 22.5-56.1 14.6-18 50.5-9 50.5-9l-6.9 70.7z"/><path class="st2" d="M171.6 564.1c-5.6 4.5-15.7 6.7-22.5 7.9M177.2 577.6c-5.6 4.5-20.2 13.4-26.9 14.6M176 594.5c-5.6 4.5-18 10.1-24.7 11.2M179.4 606.8c-5.6 4.5-18 12.4-24.7 13.4M181.7 545.1c-12.4 9-26.9 10.1-30.3 9"/><path class="st3" d="M507.2 381.2s30.3-1.1 41.5-2.3c11.2-1.1 21.3-7.9 32.6-9 11.2-1.1 25.8 9 25.8 9s32.6 38.2 34.8 48.3c2.3 10.1-14.6 29.2-49.4 29.2S506 436.2 506 436.2l-21.3-25.8 22.5-29.2z"/><path class="st0" d="M594.8 180.2s52.8-7.9 60.6-12.4c7.9-4.5 26.9-38.2 29.2-43.8 2.3-5.6-4.5-16.8-3.3-23.6 1.1-6.7 15.7-30.3 23.6-28.1 7.9 2.3-6.7 18-7.9 23.6s2.3 7.9 2.3 7.9 40.4-20.2 47.1-14.6l-6.8 12.4s13.4-3.3 16.8 0c3.3 3.3 2.3 15.7-3.3 18 4.5 4.5 4.5 15.7-3.3 20.2-3.3 2.3-31.4 1.1-31.4 1.1s7.9 5.6 6.7 11.2c-1.1 5.6-31.4 48.3-31.4 48.3l-93.2 28.1-5.7-48.3z"/><path class="st2" d="M676.7 179.1c14.6-6.7 37-41.5 41.5-38.2M717.1 126.3c9-4.5 22.5-6.7 35.9-6.7M739.5 101.6c-7.9 2.3-19.1 7.9-19.1 7.9"/><path class="st4" d="M247.9 337.4c10.1 43.8-15.7 116.8 2.3 119-6.7 3.3-4.5 10.1-4.5 10.1-14.6 7.9-19.1 98.8 2.3 136.9 20.2-2.3 85.3-22.1 116.8-24.3 31.4-2.3 101-12.7 115.6-25.1 14.6-12.4 22.5-40.4 4.5-60.6-18-20.2-73-56.1-73-56.1s89.8 4.5 94.3-1.1-11.2-23.6 9-59.5c-9-13.4-48.3-15.7-55-16.8-6.7-1.1-15.7-42.7-15.7-42.7l10.1-55-35.9-32.6-73-5.6-61.7 30.3-36 5.7c-.1-.1-10.2 33.6-.1 77.4z"/><path class="st2" d="M250.1 456.4c46 2.3 151.5-5.6 161.6-19.1-5.6-3.3-31.4-19.1-41.5-44.9C328.7 352 332 306 332 306M288.7 498.6c-15.7-1.1-36.3-19.9-43.1-32.2"/><path class="st3" d="M564.5 395.7c2.3-9 30.3-3.3 40.4-20.2 3.3-5.6 75.4-6.7 78.1 2.3 2.7 9-19.4 46.7-44.1 52.4-59.9 16.1-76.7-25.4-74.4-34.5z"/><path class="st0" d="M591.4 334c-4.5-3.3 3.3-32.6 7.9-34.8 4.5-2.3 26.9-2.3 28.1 3.3s-2.3 33.7-6.7 35.9c-4.6 2.3-24.8-1-29.3-4.4zM637.4 275.6c-4.5-3.3 3.3-32.6 7.9-34.8 4.5-2.3 26.9-2.3 28.1 3.3 1.1 5.6-2.3 30.3-6.7 32.6-4.6 2.3-24.8 2.3-29.3-1.1zM703.6 275.6c-4.5-3.3 3.3-32.6 7.9-34.8 4.5-2.3 26.9-2.3 28.1 3.3 1.1 5.6-2.3 29.2-6.7 31.4-4.5 2.4-24.8 3.5-29.3.1zM781.1 282.4c-4.5-3.3 0-31.4 4.5-33.7 4.5-2.3 23.9-2.3 25.1 3.3 1.1 5.6 2.3 31.4-2.3 33.7-4.5 2.3-22.8 0-27.3-3.3zM656.1 334.5c-4.5-3.3 2.6-31.8 7.1-34 4.5-2.3 26.9-2.3 28.1 3.3 1.1 5.6 0 30.7-4.5 32.9-4.5 2.2-26.2 1.1-30.7-2.2zM730 351c-5-2.6-2.9-34.9 1.2-37.9s26.9-5.2 29 .1c2 5.4 3.4 33.6-.6 36.6-4.1 2.9-24.6 3.7-29.6 1.2zM799.6 397.4c-5-2.6-2.1-32.7 1.9-35.6 4-3 19.5-6.7 21.5-1.4 2 5.4 3.4 33.6-.6 36.6-4 2.9-17.8 2.9-22.8.4zM747.3 419.4c-5.3-1.9-6.7-32.1-3.1-35.6s21.2-8 24-3.1c2.8 5 8 32.8 4.4 36.3-3.5 3.6-20 4.3-25.3 2.4zM696.2 453.4c-3.6-4.2 1.4-32.9 6.3-34.1 4.9-1.2 30.4 6.6 30.3 12.4-.1 5.7.4 24.6-4.5 25.8-4.8 1.2-28.4.2-32.1-4.1z"/><path class="st3" d="m418.8 223.5 55.4-22.4 19.4 62.9-46.4 10.5z"/><path class="st3" d="M463.4 225.1c-7.9 19.1 20.2 63.3 49.4 62.1 29.2-1.1 39.3-34 39.3-34s12.4 4.5 20.2 4.5c4.5-6.7 0-19.1 0-19.1s16.8 5.6 21.3 2.3 7.1-9 9.4-16.8-3.7-34.8-2.6-40.4c1.1-5.6 6.7-21.3 6.7-21.3l-6.7-37-78.6-10.1-106.7 35.9-28.1 62.9 44.9 26.9"/><path class="st4" d="M565.7 257c-6.7-1.3-13.6-3.7-13.6-3.7s-2.5 8.2-8.7 16.6c-.3 6.2 17.6 10.6 22.1 4.6 4.5-6.1 2.5-17.1.2-17.5z"/><path class="st2" d="M572.3 238.6c-5.6-3.3-14.6-4.5-13.4-9s7.9-10.1 16.8-6.7M552.1 253.2c-5.6-2.3-10.1-9-15.7-15.7-5.6-6.7-18-4.5-18-4.5"/><path class="st4" d="M536.4 237.5c-5.6-6.7-18-4.5-18-4.5s-9 7.9-9 13.4c0 5.6 5.6 11.2 13.4 6.7 8-4.4 13.6-15.6 13.6-15.6zM546.5 173.5c-1.1-4.5 11.2-9 15.7-7.9 4.5 1.1 18 4.5 20.2 20.2 0 0-9 3.3-13.4 2.3-4.5-1.1-21.4-10.1-22.5-14.6z"/><path class="st2" d="M553.2 149.9c-29.2 1.1-30.3 21.3-29.2 30.3M501.6 170.1v18M509.4 197.1s13.4-5.6 19.1 1.1c5.6 6.7 24.7 4.5 30.3-2.3M489.2 200.4c-12.4 7.9-11.2 34.8-11.2 34.8M446.6 207.2 424.1 224M492.6 236.4c-7.9 16.8 6.7 22.5 6.7 22.5M500.5 218.4c1.3-7.6 12.6-9.3 23.2-6.8 8.2 1.9 15.9 7.3 18.3 6.8"/><path d="M392.7 208.6c11.2 1.1 42.7-16.1 42.7-16.1l39.3-25.8s15.7 2.3 21.3-13.4c14.6 6.7 19.1-6.7 19.1-6.7s13.4 2.3 15.7-10.1c6.7 7.9 13.4 0 13.4 0s3.3 9 16.8 3.3c1.1 7.9 3.3 7.9 9 9 5.6 1.1 11.2-12.4 21.3-9 10.1 3.3 15.7 22.5 15.7 22.5s9-7.9 9-14.6c0-6.7-2.3-12.4-2.3-12.4s26.9 1.1 32.6-6.7c5.6-7.9 3.3-12.4-2.3-12.4s-13.4 2.3-18 0c-4.5-2.3-13.4-4.5-9-10.1 4.5-5.6 10.1-7.9 10.1-12.4-.4-12.5-15.4-18.4-25-12.8-8.4-13.1-20-6.3-25.6-4s1.1 21.3-13.4 19.1c-14.6-2.3-7.9-19.1-12.4-23.6s-14.6-5.6-19.1 1.1c-5.6-2.3-16.8-3.3-21.3 3.3-4.5 6.7 4.9 22.8-7.5 22.8-18.3-1.5-10.5-21.7-20.6-23.9-10.1-2.3-19.1 10.1-18 21.3-10.1 0-24.7 3.3-24.7 12.4 0 9 11.2 4.5 11.2 10.1s-12.4 12.4-19.1 12.4c-6.7 0-3.3-10.1-9-11.2-16.8-1.1-20.2 15.7-20.2 15.7s-3.3 2.3-11.2 2.3c-7.9 0-14.6 11.2-13.4 21.3 1.1 10.1 22.5 5.6 22.5 5.6s-1.1 9-5.6 13.4c-4.5 4.5-24.7.4-31.4 1.5-6.7 1.1-3.3 16.5 1.1 23.2 4.7 6.8 17.1 3.9 28.3 4.9z" style="fill:#505050;stroke:#010101;stroke-width:7.4839;stroke-linecap:round;stroke-linejoin:round"/><path class="st2" d="m474.2 111.3-9.6-14.1M532.5 94.8l-4.4-20.9M592.4 100.8l9.9-19.8M417.8 148.8l-15-12.4M530.8 136.4l-1.2-14.6M544.2 136.4l1.2-15.7M561.1 139.8l6.7-13.5M508.3 129.3l6.8 17.3M496 153.3l-7.9-15.7"/><circle class="st4" cx="449" cy="169.2" r="26.4"/><circle class="st2" cx="449" cy="169.6" r="10.6"/><circle cx="566.2" cy="175.6" r="6" style="fill:#010101"/><path class="st1" d="M473.5 267.8c2.3-12.4-43.8-58.4-96.6-61.7-52.8-3.3-105.5 29.2-114.5 49.4-2.3 9 22.5 15.7 28.1 12.4 5.6-3.3 37-39.3 78.6-37 41.5 2.3 61.7 23.6 70.7 30.3 9 6.6 31.5 18.9 33.7 6.6z"/><path class="st1" d="M438.7 266.7s-24.3 5.6-26.6 20.2c-2.3 14.6 14.2 42.7 49 34.8 10.1-5.6 9-23.6 9-23.6l-7.9-32.6-23.5 1.2z"/><path class="st1" d="M444.3 293.6c2.3-4.5 18-3.3 15.7-13.4-2.3-10.1-22.5-9-25.8-11.2s-3.3-9-1.1-12.4c2.3-3.3 30.3-1.1 39.3 5.6 9 6.7 17.2 24.7 8.2 34.8-8.9 10.1-36.3 14.5-36.3-3.4z"/><path class="st4" d="M285 219.5s6-25.1-8.6-36.3c-14.6-11.2-37.4-43.4-71.1-84.9-18 20.2 9 41.5 9 41.5s-26.9-16.8-43.8-4.5c44.9 31.4 68.5 55 68.5 55l7.9 40.4 38.1-11.2zM144.6 225.1C124.4 236.4 89.6 341.9 75 370c11.2 10.1 57.2 25.8 57.2 25.8l39.3-88.7 37-47.1s51.5-6.5 21.6-27.4c-29.8-21.1-65.2-18.7-85.5-7.5z"/><circle class="st0" cx="191.2" cy="221.2" r="15.2"/><circle class="st0" cx="154.7" cy="248.7" r="15.2"/><circle class="st0" cx="140.1" cy="285.7" r="15.2"/><circle class="st0" cx="148" cy="330.7" r="15.2"/><circle class="st0" cx="185.1" cy="364.3" r="15.2"/><circle class="st0" cx="237.8" cy="361" r="15.2"/><circle class="st0" cx="272.6" cy="331.7" r="15.2"/><circle class="st0" cx="283.8" cy="292.5" r="15.2"/><path class="st3" d="m223.2 231.8 15.7-41.5 64 35.9-37 33.7s24.4 53.2-16.1 81.9c-49 34.8-110.7-9-90.5-67.3 12.3-39.3 63.9-42.7 63.9-42.7z"/></svg>