<svg version="1.1" id="Calque_1" xmlns="http://www.w3.org/2000/svg" x="0" y="0" viewBox="0 0 900 900" style="enable-background:new 0 0 900 900" xml:space="preserve"><style>.st0,.st1,.st2,.st3,.st4,.st5{fill:#fbce14;stroke:#000;stroke-width:4.8831;stroke-linecap:round;stroke-linejoin:round}.st1,.st2,.st3,.st4,.st5{fill:red}.st2,.st3,.st4,.st5{fill:#ffce00}.st3,.st4,.st5{fill:#0059aa}.st4,.st5{fill:none}.st5{fill:#fdce12}.st6{fill:#fff}.st7{fill:red}.st8{fill:#fff;stroke:#000;stroke-width:4.8831;stroke-linecap:round;stroke-linejoin:round}.st10{fill:#593900}.st11{fill:#59390d;stroke:#59390d;stroke-width:4.8831}.st12{stroke:#000;stroke-width:.9766}</style><path class="st0" d="m261.3 763.2-4.1 24.5-47.6 3v41l-33.7 1.1-2.2 17.2 49.8-4.6 2.2-37.9 43.2-4.4 3.7-40.3z"/><path class="st1" d="m209.6 790.7 47.6-3 4.1-24.5-76.6 2.6-8.8 67 33.7-1.1zM375.9 788.5l.7 40.3h36.7v-67.4l-23.5-8.8-57.6 6.5 1.9 27.9z"/><path class="st0" d="m376.6 828.8-.7-40.3-41.8-1.5-1.9-27.9-13.4 1.5 3.6 41.1h41v43.9h49.9v-16.8zM371.7 505.2l.7 33.6 33.7 19.9 26-12.5-7.7-45.4z"/><path class="st2" d="m326.8 537.9-8-187.5-101.9.7 11 87.2-41 8.8 22 87.9-6.6 6.1-23.4.5 21.2 110.6 133.3 11 25.6-23.4z"/><path class="st1" d="m314.4 535.7-8.1-167-71-.7 11.7 82.8-42.5 11.7 16.8 68.1-18.3 27.1h-7.3l18.3 98.9 126 5.1 16.1-21.2z"/><circle class="st3" cx="235.1" cy="599.2" r="17.3"/><circle class="st4" cx="235.1" cy="600.2" r="6.6"/><circle class="st2" cx="277" cy="485.9" r="17.3"/><circle class="st4" cx="277" cy="485.9" r="6.6"/><circle class="st3" cx="275.5" cy="419" r="17.3"/><circle class="st4" cx="275.5" cy="419.5" r="6.6"/><path class="st2" d="m174.5 648.5 2.9 120.9 237.3-8-3.6-105.5-67.4-8.1z"/><path class="st1" d="m190.6 667.6.7 82.8 204.4-3.7-2.2-76.9z"/><circle class="st3" cx="333" cy="715.8" r="29.7"/><circle class="st4" cx="333" cy="715.1" r="18.7"/><circle class="st5" cx="333" cy="715.2" r="8.8"/><path class="st1" d="m317.3 595.1-1.5-17.6-16.1.7-22 18.3-35.5 85.6 35.1 16.9c19.1-47.6 40-103.9 40-103.9z"/><path class="st0" d="M216.9 743.1s23.4 16.1 31.5 20.5c3.1-2.9 11.7-22.2 21.8-46.9l-34.3-19.4-19 45.8z"/><path class="st3" d="m242.2 682.1-6.3 15.2 34.3 19.4c2.3-5.7 4.7-11.6 7.2-17.7l-35.2-16.9z"/><path class="st4" d="m247.1 692.7 24.9 13.2M239.8 709.5l26.4 14.7M229.4 715.9l33.8 17.1"/><path class="st3" d="M196.4 736.4c0 2.9 15.4 13.9 21.2 11 3.8-5.9 7.6-12.2 11.3-18.9l-20.5-11.7c-6.9 10.8-12 18.7-12 19.6z"/><path class="st5" d="M280.7 587s-38.8 50.5-41 54.2c-2.2 3.7-.7 12.5 9.5 10.3-1 5.5-25.4 42-40.7 65.4l20.5 11.7c31.8-57 58.3-135.7 58.3-135.7l-6.6-5.9z"/><path class="st4" d="m255.9 642.9-6.7 8.6"/><path class="st2" d="M251.4 513c-8.8-2.9-19 1.5-9.5 9.5-8.8-1.5-24.9 1.5-34.4 9.5-9.5 8.1-12.5 27.8 2.9 33.7 4.4-.7 11-5.1 29.3-2.2s30.8 9.5 49.1 10.3c8.1-2.2 8.1-12.5 8.1-12.5S260.2 516 251.4 513z"/><path class="st3" d="M325.3 539.4s-30.6-26.2-45.7-29.5c-11.1-2.5-28.8-1.5-30.3 3.7-1.5 5.1-2.4 16.4 1.2 28.1s35.7 22.5 38.1 25.6c2.4 3.1-1.5 9.5-4.4 12.5-2.9 2.9-8.8 4.4-6.6 9.5 2.2 5.1 20.5 11.7 25.6-5.1 6.6 3.7 16.1 8.1 16.1 8.1l11-28.6-5-24.3z"/><path class="st4" d="M281.4 546.7c2.2 2.2 25.6 22.7 22 37.4M284.3 579.7c1.5 6.6 8.1 8.8 11.7 0 3.7-8.8-17.3-21.2-21.7-32.2"/><path class="st6" d="M272.6 524.8c-6.9 0-12.5 5.6-12.5 12.5 0 2.7.8 5.1 2.3 7.2l20.2-14.6c-2.3-3.2-5.9-5.1-10-5.1z"/><path class="st7" d="M262.4 544.4c2.2 3.2 6 5.3 10.2 5.3 6.9 0 12.5-5.6 12.5-12.5 0-2.8-.9-5.3-2.5-7.4l-20.2 14.6z"/><circle class="st4" cx="272.6" cy="537.2" r="12.5"/><circle class="st8" cx="272.6" cy="536.5" r="4.4"/><path class="st4" d="m305 565.2 10.3-25.6M295.5 552.1l8-17.6M291.8 533l3.7-7.3M286.7 524.2l2.2-4.2M280.1 520.5l1.2-4.4M273 518.3l-.2-4.4M266.2 519.1l-.8-3.7M256.6 524.2l-1.4-6.6"/><path class="st2" d="m475.7 670.7-21.4 72.4 38.8-1.5 24.9-71.8zM671.9 632.4s-1.5 58.6 0 63.7c1.5 5.1 14.6 5.9 16.1.7 1.5-5.1 4.6-65.9 4.6-65.9s5.9 61.3 8.1 68.6 15.1 5.4 15.9-1.2c.7-6.6-8.8-68.9-8.8-68.9s12.5 57.1 17.6 65.2c5.1 8.1 18.3 2.9 16.8-5.1-1.5-8.1-13.9-67.4-13.9-67.4l-20.5-8.8-35.9 19.1z"/><path class="st4" d="m673.5 679.5 15.3.7M699.1 683.2l15.2-2.4M719.5 679.3l18.4-2.7M677.7 677.1l2.2-51.3M704.1 679.3l-5.1-54.9M726.8 676.4l-12.5-52M717.4 634.8l10.3-3.6M721.1 643.6l8.8-2.9M722.5 651.7l9.6-2.2M724.7 660.5l8.1-2.2M729.1 668.5l5.9-.7M704.2 673.6l8.1-1.4M703.5 665.6l8-1.5M703.5 656.1l7.3-.8M702 648.7l6.6-1.4M701.3 638.5l6.6-.7M682.3 640.7l8.7-.7M680.1 648h9.5M679.3 655.3h10.3M678.6 664.9h9.5M679.3 672.7h8.1"/><path class="st2" d="m540.9 666.3 68.8 71.8 40.3-13.2-50.5-66.6zM718.3 581.7c-11.4 1.3-31.1 3-46.2.8l-.2 50s40.3 1.5 56.4-10.3c-4-12.7-7.3-26.4-10-40.5z"/><path class="st3" d="M714.7 560.7c-9.6-63.3-9.2-126.7-9.2-126.7l-26.4 5.9-6.6 23.4-.4 98.4c20.3.9 34.3-.1 42.6-1z"/><path class="st1" d="M718.3 581.7c-1.3-7-2.5-14-3.6-21-8.3 1-22.3 1.9-42.6.9l-.1 20.8c15.3 2.3 34.9.6 46.3-.7z"/><path class="st4" d="M674 591.4c11.7 1.5 45.4-.7 45.4-.7M682.1 562.1l-1.7-98.9M688.8 461.9l9.6 7.4M688.1 473.7l9.5 7.3M687.4 482.5l9.5 7.3M687.4 491.2l9.5 7.4M688.8 501.5l9.6 7.3M688.8 509.6l9.6 7.3M688.1 517.6l9.5 7.3M688.1 526.4l9.5 7.3M688.8 535.2l9.6 7.3M689.6 544l9.5 7.3M689.6 552.1l9.5 7.3"/><path class="st2" d="m587 464.1 11.8 7.4 36.6-35.2 22.7-11.7 19 26.4-8.8 4.3-60 69.6-41-20.5 3.6-17.6z"/><path class="st2" d="M544.5 542.5s49.1 36.6 75.4 33c18.3-2.2 27.8-12.5 19.8-24.9-8.1-12.5-66.7-57.9-66.7-57.9l-28.5 49.8z"/><path class="st1" d="M550.2 546c-12.5-30-10.3-11-10.3-11L482 587.7s-5.9 23.4-4.4 30c.2 1-.1 2.7-.9 4.9 48-2 96.1-6.8 113.1-8.6-15.9-24.8-33.4-53-39.6-68z"/><path class="st8" d="M610.8 646.1c-25 1.7-106 7.5-151 14.4-3.5 8-6.2 15.1-6.2 18.8 8.8 0 167-15.4 167-17.6 0-.5-3.9-6.5-9.8-15.6z"/><path class="st2" d="M521.8 577s-.2 22.7 2.7 27.1 12.7 3.7 14.2-2.2-3.2-28.1 5.6-27.3 9.5 25.1 6.6 33.9-29.1 11-34.2 2.2c-5.1-8.8-5.9-16.1-5.9-16.1l11-17.6z"/><path class="st4" d="m578.2 665.6-.7-9.5 8.1-.8 1.4 8.8M541.6 668.5l-.7-9.5 8-.7 1.5 8.8M506.4 671.5l-.7-9.6 8.1-.7 1.4 8.8M466.2 676.6l-.8-9.5 8.1-.8 1.4 8.8"/><path class="st1" d="M610.8 646.1c-5.6-8.6-13-19.9-20.9-32-3.8.4-9.3 1-15.9 1.6l6.7 32.5c12.9-.9 23.4-1.6 30.1-2.1z"/><path class="st2" d="M476.8 622.7c-2.8 8.4-11.2 24.5-17.1 37.8 10.2-1.6 22.2-3.1 35.1-4.5l.5-34.2c-6.1.4-12.3.6-18.5.9z"/><path class="st3" d="M574 615.7c-19 1.9-48 4.4-78.7 6.1l-.5 34.2c28.8-3.2 61.4-5.9 85.9-7.7l-6.7-32.6z"/><path class="st4" d="m510.1 651.7-2.2-27.9M508.6 631.2l55.7-4.4M565.8 645.8l-2.2-27.8M536.5 650.2l-2.2-20.5M544.5 649.5l-2.1-19.8"/><circle cx="523.6" cy="641.1" r="4"/><circle cx="554.8" cy="637.8" r="4"/><path class="st1" d="m414.1 538.1-87.9-2.2s-16.8 33-9.5 68.1 23.4 54.9 71.8 57.1 93.8-35.2 96-54.9c-2.2-20.4-70.4-68.1-70.4-68.1z"/><path class="st2" d="M383.4 587.2c-7.3-2.9-24.2 5.9-24.2 17.6 0 11.7 5.9 35.9 35.2 35.2 29.3-.7 38.8-16.8 39.6-30.8.7-13.9-16.1-25.6-24.9-22.7 4.4 5.1 11.7 37.4-15.4 37.4-27.2-.1-15.4-29.4-10.3-36.7z"/><path class="st3" d="M607.3 432.9c-1.1-.8-11.9-3.2-25-5.7-12.1 22.4-82.3 152.1-86.9 154.9-4.4 2.8-98.4-92.8-118.6-113.3l2.8 39.4s116.5 115 119.4 112.1c3-3.1 111.2-185.2 108.3-187.4z"/><circle cx="395.8" cy="505.9" r="4.8"/><circle cx="410.5" cy="519.8" r="4.8"/><circle cx="424.4" cy="533.7" r="4.8"/><circle cx="436.9" cy="546.2" r="4.8"/><circle cx="452.2" cy="560.1" r="4.8"/><circle cx="469.1" cy="577" r="4.8"/><circle cx="485.2" cy="591.6" r="4.8"/><circle cx="509.4" cy="580.6" r="4.8"/><circle cx="523.3" cy="558.7" r="4.8"/><circle cx="535" cy="538.8" r="4.8"/><circle cx="546" cy="519.1" r="4.8"/><circle cx="554.8" cy="504.4" r="4.8"/><circle cx="563.6" cy="483.2" r="4.8"/><circle cx="574.6" cy="464.1" r="4.8"/><circle cx="587" cy="444.4" r="4.8"/><path class="st8" d="M420.2 478.5 403 495.2c3.2 3.2 6.6 6.7 10.1 10.2l16.7-17.2c-3.2-3.3-6.4-6.5-9.6-9.7z"/><path class="st3" d="M486.7 535.9c-7.2-3.6-16.4-10.6-26.6-19.4l-15.9 19.6c25.8 25.3 49.2 47.3 51.4 45.9 1.8-1.1 14.2-22.6 29.1-49.4l-21.9-18.9c-5.6 7.7-11 15.2-16.1 22.2z"/><path class="st2" d="m374.1 428.8 2.9 40c5 5.1 14.5 14.8 26.1 26.5l17.2-16.7c-21.2-21.7-39.8-42.6-46.2-49.8z"/><path class="st1" d="m429.8 488.2-16.7 17.2c9.9 9.9 20.6 20.6 31 30.8l15.9-19.6c-9.6-8.4-20-18.3-30.2-28.4z"/><path class="st8" d="M542 458c-3.1 4.5-6.5 9.2-9.9 14.1l18.2 13.8c3-5.5 5.9-10.8 8.7-15.9l-17-12z"/><path class="st2" d="m502.7 513.8 21.9 18.9c8.3-14.8 17.3-31.3 25.8-46.8l-18.2-13.8c-9.5 13.4-19.7 27.8-29.5 41.7zM582.3 427.1c-5.3-1-11-2.1-16.6-3.2-5.1 7.3-13.6 19.6-23.7 34.1l17 12c10.8-19.8 19.7-36.1 23.3-42.9z"/><path class="st4" d="m409 498.3 14.7-14.1M537.2 464.9l16.1 11M466.2 545.5l27.8 24.1 11-17.5M486.7 535.9l23.4 19.1M493.3 527.1l21.9 18.9M498.6 520.8l21 17.1"/><circle cx="488.2" cy="551.7" r="4.8"/><path class="st1" d="M486.7 535.9c28.3-38.9 65.6-92.6 79.1-112-16.8-3.2-32.2-6-32.2-6l-57.9-32.2-76.2-3.7-27.1 23.4 1.7 23.2c13.6 15.6 82.3 92.2 112.6 107.3z"/><circle class="st2" cx="498.6" cy="475.9" r="11"/><circle class="st2" cx="534.4" cy="446.2" r="10.6"/><path class="st3" d="M385.6 444.4s25.6 30 81.3 26.4c55.7-3.7 68.9-53.5 68.9-53.5l-62.3-37.4-64.5-13.1-26.1 17.5 2.7 60.1z"/><path class="st4" d="M388.5 426.8s33.7 42.5 80.6 35.2c46.9-7.3 53.5-44.7 53.5-44.7"/><path class="st2" d="M387.8 412.1s28.6 35.9 75.4 38.1c34.4.7 50.5-36.6 50.5-36.6l-53.5-35.9-41.8-8.8-35.6 15.4 5 27.8z"/><path class="st1" d="M388.5 398.2s35.2 39.6 71 38.8c35.9-.7 43.2-24.9 43.2-24.9l-46.9-56.4-63 5.1-4.3 37.4z"/><path class="st2" d="M441.8 332.8c1.5-2.2-.7-57.1-.7-57.1l95.2-39.6-13.2-22-71 13.2-65.9 17.6-19.8 42.5 24.2 50.5 51.2-5.1z"/><path class="st4" d="M408.9 320.4v-59.3M416.4 321.8v-60M423.5 322.6l1.5-63M432.8 324.8l-.5-65.2M440.9 275.7l-3.3-15.9M514.5 242.9l-5.9-16.8M507.2 245.8l-6.6-18.3M499.8 249.5l-6.5-19M492.5 252.4l-7.3-19M483.7 256.1l-7.3-19M475.9 259.8l-8-19.1M466.9 262l-5.9-16.9M458.1 267.1l-4.4-16.1M450 270.7l-5.8-18.3"/><circle class="st0" cx="145.3" cy="136.7" r="16.5"/><circle class="st2" cx="324.8" cy="312.5" r="16.5"/><circle class="st8" cx="484.5" cy="129.4" r="22"/><circle class="st4" cx="484.5" cy="129.4" r="7.7"/><path class="st2" d="M468.3 385c-2.9-7.3-13.2-98.9-9.5-102.5 3.1-3.1 68.3-25.9 87.7-32.6-6.2-6.9-11-12.1-11-12.1l-11.5-7.3-52 22.7-47.6 20.5 2.9 71.8 28.6 54.2s77.6 24.2 92.3 17.6c6.9-4.1 7.9-9.9 9.5-14.7-21.3-2.7-86.9-11.4-89.4-17.6z"/><path class="st1" d="m626.6 353.5-1.5-22.7s-6.6 2.9-15.4-5.1-31.5-26.4-33.7-30.8 1.5-5.9-.7-11c-1.4-3.3-17.5-21.5-28.8-34-19.4 6.7-84.6 29.4-87.7 32.6-3.7 3.7 6.6 95.2 9.5 102.5 2.4 6.1 68 14.8 89.3 17.5.4-1.3.9-2.5 1.5-3.6 2.9-5.1 22 2.7 26.4-1 4.4-3.7.7-10 .7-10l8.1-13.2 32.3-21.2z"/><path d="M450 366.8s96.7-.8 112.8 2.1c5.1 2.9-.7 7.3-2.9 9.5-19.8-3.7-117.2-3.7-117.2-3.7l7.3-7.9z"/><path class="st4" d="M591.4 336.7c-13.2-1.5-16.1 3.7-16.1 3.7"/><path class="st8" d="M568.7 363.1s-14.6 6.6-11.7 11c2.9 4.4 24.2 13.9 29.3 12.5 5.1-1.5 8.1-11.7 8.1-11.7l-25.7-11.8z"/><path class="st4" d="m565.1 378.4 10.2-14.6M576 382.8l7.4-12.4"/><path class="st8" d="M691.8 320.6c-3.7-2.2-8.8-1.5-8.8 2.9 0 2 .6 4.9 1.6 8.4l10.6-5.3c-1.2-3.1-2.3-5.4-3.4-6zM734.3 305.9c-.7-6.6-10.3-8.1-12.5-2.2-.5 1.3-1 4.2-1.6 7.9l13.5 5.4c.5-5.1.8-9.3.6-11.1zM715.2 304.5c-2.2-3.7-8.8-2.9-11 0-1 1.4-.9 7.9-.6 16l13.1-.6c-.2-7.5-.6-14-1.5-15.4zM757.7 314.7c-1.5-6.6-5.1-8.1-8.8-5.1-1.2 1-3.8 5.9-6.6 12.1l11.8 7.8c2.4-6.3 4.2-12 3.6-14.8z"/><path class="st2" d="M758.4 361.2c-.2.9-.5 1.8-.7 2.6-2.2 8.1-6.6 19-12.5 17.6-5.9-1.5-2.4-21.2-.2-29.3 1.3-4.6 5.8-14.2 9.1-22.7l-11.8-7.8c-5.6 12.1-12.4 29-12.4 29s2.7-20.1 3.9-33.6l-13.5-5.4c-1.8 12.5-3.6 33.9-3.6 33.9s.3-13.9 0-25.6l-13.1.6c.4 9.3 1 20.8.6 29.4-3.1-4.6-6.2-16.1-9-23.3l-10.6 5.3c4.2 14.6 15.2 39.2 15.2 48.1 0 11-7.3 14.6-7.3 14.6-1.7 3.7-1.7 12 .7 19.8 3.3 10.6 12.2 10.2 16.9 10.6 1.5.1 10.2-17.2 16.8-17.9 6.6-.7 18.1-1 26.9-8.3s13.4-21 15.6-32c.1-.3.1-.7.2-1l-11.2-4.6z"/><path class="st8" d="M767.9 344.7c-4-.7-7.3 8.7-9.5 16.5l11.2 4.5c2.1-10.6 2.6-20.2-1.7-21z"/><circle class="st3" cx="259.6" cy="304" r="16.5"/><path class="st4" d="m249.7 299.4-1.3 14.6M255.8 302.3l.7 16.1M263.8 303.8l.8 12.4M269.9 300.8l2 11.8"/><circle class="st3" cx="167.2" cy="82.4" r="16.5"/><path class="st4" d="m155.4 91.3 12.1-.7M151.7 84.5l14-.7M153.4 77.4h11M158.1 70.6l9.2.9M399.5 322.8l1.3-62.5"/><path class="st2" d="M266.4 248c2.9-19.8-1-92.3 24.7-109.9 6.9-6.5 12.5-14.1 16-19.7l-35.8 6.5s-12.5 8.8-16.1 54.9c-2.6 32.8-4.8 69.5-5.9 87.9 6.3-2 15.3-7.2 17.1-19.7z"/><path class="st8" d="M307.1 118.5c-3.6 5.5-9.1 13.1-16 19.7-25.6 17.6-21.7 90.1-24.7 109.9-1.9 12.5-10.8 17.7-17.1 19.8-.4 7.5-.7 11.9-.7 11.9s19.2 9.3 24.9-3.9c4.4-10.3 7.3-68.1 9.5-86.4s4.4-33 12.5-36.6c8.1-3.7 18.3-10.3 18.3-10.3L316 117l-8.9 1.5z"/><path class="st4" d="M286 125s-20.7 17.9-24.2 65.2c-2.9 40.3-5.1 73.2-5.1 73.2M257.4 273.7l2.2 6.6M264.7 272.2l4.4 5.9M269.1 264.2l4.4 2.9M271.5 253.4l4.4 2.2M272 240.7l4.4 1.5M273.5 231.9l4.4.8M273.5 220.9l4.4.8M274.2 208.5l4.4 1.4M275.7 196l3.6 1.5M277.2 185.8l3.6.7M279.3 172.8l3.7 2.2M282 163.6l3.7 2.9M285.9 155l2.2 3.7"/><path class="st5" d="M220 91.3c22 0 90.8-13.2 111.3-8.1 13.2 3.3 36 24.2 53.3 34.7l-21.8-45s-7.3-4.4-22.7-7.3C327.6 63.2 231 74 196 78c2.7 5.3 9.2 13.3 24 13.3z"/><path class="st8" d="M382.2 115.5c-17.3-10.6-37.7-29-50.8-32.3-20.5-5.1-89.4 8.1-111.3 8.1-14.8 0-21.3-8-24-13.2-7.9.9-12.7 1.5-12.7 1.5s2.9 25.6 30.8 27.1 104 2.2 104 2.2l64.5 56.4 33-10.3-33.5-39.5z"/><path class="st4" d="M218 76c2.6 2 7.4 4.2 15.9 5 16.8 1.5 80.6-10.3 98.9-7.3 18.3 2.9 40.3 16.1 40.3 16.1M188.5 87.6l4.4-2.9M193.2 95.4l4.4-4.4M201.2 100.8l2.2-3.6M211.2 105l.8-5.9M221.5 106.2l.7-6.6M231.7 103v-4.4M241.3 101.5l-.8-5.1M250 100.1v-3.7M260.3 100.1v-5.9M270.3 97.9v-4.4M279.3 98.4v-5.9M289.1 97.2V92M299.9 96.4V92"/><path class="st5" d="M183.2 126.7c16.1 1.5 52-10.7 82.8-10.7 21.9 0 42.7.8 52.9 1.3l-6.6-19.4s-27.8-2.2-76.2 5.1c-33.9 5.1-59.8 9.9-72.3 12.3 3.1 4.4 9.2 10.5 19.4 11.4z"/><path class="st8" d="M266 116c-30.7 1.2-66.7 12.2-82.8 10.7-10.2-.9-16.3-7.1-19.4-11.5-5.4 1-8.3 1.6-8.3 1.6s2.9 25.6 30 24.9c27.1-.7 43.2-11.7 77.6-13.9 34.4-2.2 61.5 6.6 61.5 6.6l-5.8-17.2c-10.1-.4-29.1-2.1-52.8-1.2z"/><path class="st4" d="M180.3 112.3s2.2 5.9 13.2 4.4 36.8-5.3 54.3-7.3c12.7-1.4 55.8-3.3 62.9-2M160.7 127.2l3.7-2.9M166.8 134.5l2.9-4.6M175.3 137.4l1-3.4M185.6 139.1v-4.3M196.3 138.9v-5.1M208.3 136.9l-.2-5.1M218.3 134.5l.3-5.1M228.3 131.3v-4.4M237.6 129.4l-.2-3.9M246.6 127.2l-.5-3.7M255.9 126.4l-.2-3.6M265.4 125.7v-3.6"/><path class="st5" d="M323.8 269.8c1.7-7 .4-76.8-.2-105.5l-6.1-7.1-13.9 5.9v116.1c6.6-.8 18.6-3.1 20.2-9.4z"/><path class="st8" d="m340.9 184.3-17.3-20c.6 28.7 2 98.5.2 105.5-1.6 6.3-13.6 8.6-20.3 9.4V292s32.2 12.5 35.9-21.2c3.7-33.7 1.5-86.5 1.5-86.5z"/><path class="st4" d="m315.3 171.9-3 104.7M311.6 286.4l2.2 6.6M319.7 285.9l1.4 5.1M326 282.7l2.9 4.4M329.2 275.9l5.1 3.6M330.6 267.8l5.9 2.9M331.4 257.6l7.3 2.2M332.4 246.6l6.8 1.4M332.1 234.9l7.1 1.7M331.4 222.4l7.3 2.2M331.9 209.9l7.3 3M332.1 197.5l8.1 3.7"/><path d="M397.3 160.1c-.6.4-1.1.8-1.7 1.2 8.9 9.7 14.8 16.4 14.8 16.4s-5.4-7.5-12.7-17.9c-.1.1-.2.2-.4.3z" style="fill:none"/><path class="st6" d="M322.6 92c-11.7 0-16.8 7.3-16.1 16.8s23.4 30.8 23.4 30.8-25.6-18.3-36.6-6.6-.7 19.8 11 32.2c2.7 2.8 7.4 6.4 13.2 10.3l47.5-46.8C346.3 109.5 327.9 92 322.6 92zM387 151.9c-4.5-4.9-9.4-10.1-14.4-15.3l-45.2 45.2c5 3 10.2 6.1 15.2 8.9 8.5-8.7 27.7-27.4 44.4-38.8zM353.7 196.8c8.7 4.8 15.1 8 15.1 8l41.8-27.1s-6-6.7-14.8-16.4c-21.3 14.8-35.6 28.7-42.1 35.5zM422.9 86.2c-5.1-17.6-16.8-38.8-27.1-35.9-10.3 2.9-4.4 34.4-.7 47.6-8.8-8.1-22.7-34.4-33.7-27.1-11 7.3-7.3 19.8 5.9 42.5 2.1 3.6 4.6 7.7 7.4 12.1L427 99.5c-1.7-5.4-3.1-10.1-4.1-13.3zM430.2 109.6l-49.9 24.3c3.4 5.2 7 10.5 10.4 15.5 17.3-11 36.8-19 45.1-22.2-1.9-5.8-3.8-11.9-5.6-17.6z"/><path class="st6" d="M439.1 137.6c-6 1.9-19.6 7.3-41.3 22.1 7.3 10.4 12.7 17.9 12.7 17.9l14.6 2.2 21.2-19.8c.1.1-3.1-9.7-7.2-22.4z"/><path class="st10" d="m365 128.7-47.5 46.8c3.1 2 6.4 4.1 9.9 6.3l45.2-45.2c-2.6-2.7-5.1-5.3-7.6-7.9z"/><path class="st4" d="M397.3 160.1c.2-.1.3-.2.5-.4-2.2-3.2-4.7-6.7-7.2-10.4-.2.1-.5.3-.7.4-1 .6-2 1.3-3 2 3.1 3.3 6 6.5 8.7 9.4.6-.2 1.1-.6 1.7-1z"/><path class="st10" d="M395.6 161.3c-2.7-2.9-5.6-6.1-8.7-9.4-16.6 11.5-35.8 30.1-44.4 38.7 3.9 2.2 7.7 4.3 11.2 6.2 6.5-6.8 20.8-20.7 41.9-35.5zM439.1 137.6c-1.1-3.3-2.2-6.8-3.3-10.4-8.3 3.2-27.8 11.2-45.1 22.2 2.5 3.6 4.9 7.1 7.2 10.4 21.6-14.9 35.2-20.3 41.2-22.2zM427 99.5l-52.3 25.8c1.8 2.8 3.7 5.7 5.6 8.6l49.9-24.3c-1.1-3.5-2.2-7-3.2-10.1z"/><path class="st4" d="m393 168.3-46.7-47.7M387.6 172.7l-47.2-45.5M392.9 190.9l-63.7-50.5M383.6 176.5l-50-44.2M372.2 184.1l-51.8-36.4M365.8 188.7l-52.7-36.6M359.9 193.1l-52-35.9M405.4 159.4l-32.3-51.3M410.5 155l-30.8-49.8M415.6 151.4 387 103.7M431.7 170.6l-37.6-72.5M401.7 95l24.2 52.7M408.3 92l22.4 52.3M415.1 87.6l21.3 55.7M368.7 204.8s-52.7-27.1-64.5-39.6c-11.7-12.5-22-20.5-11-32.2s36.6 6.6 36.6 6.6-22.7-21.2-23.4-30.8c-.7-9.5 4.4-16.8 16.1-16.8 11.7 0 87.9 85.7 87.9 85.7l-41.7 27.1z"/><path class="st4" d="M447.8 160.1s-19.8-56.4-24.9-74c-5.1-17.6-16.8-38.8-27.1-35.9-10.3 2.9-4.4 34.4-.7 47.6-8.8-8.1-22.7-34.4-33.7-27.1-11 7.3-7.3 19.8 5.9 42.5 15.8 27.2 15.9 26.8 43 64.5l14.9 2.2 22.6-19.8z"/><path d="M304.3 165.3c-11.7-12.5-22-20.5-11-32.2s36.6 6.6 36.6 6.6-22.7-21.2-23.4-30.8S310.9 92 322.6 92c4.2 0 16.8 11.1 31.1 25.3 0 0-42.1 39.9-49.4 48zM422.9 86.2c-5.1-17.6-16.8-38.8-27.1-35.9-10.3 2.9-4.4 34.4-.7 47.6-8.8-8.1-22.7-34.4-33.7-27.1-11 7.3-7.3 19.8 5.9 42.5l55.6-27.1z"/><path class="st11" d="m401.7 96.5 15.6-7.6S404.6 56.1 398 58.3c-6.6 2.2 3.7 38.2 3.7 38.2zM371.7 111.1l18.3-8.9s-20-27.8-25.1-24.9c-5.2 3 6.8 33.8 6.8 33.8zM324.1 145.6c-5.8 5.6-11.3 10.9-15.2 14.9 0 0-14.9-16.4-9.8-22.3 5.2-5.9 25 7.4 25 7.4zM348.5 122.3c-3.4 3.3-8.3 7.9-13.5 12.9 0 0-27.8-24.8-18.2-32.9 9.5-8.1 31.7 20 31.7 20z"/><path class="st4" d="M353.7 117.3s-42.1 39.9-49.4 48M367.3 113.3l55.6-27.1"/><path class="st3" d="M456.1 156.5c-5.1-3.7-90.1 41.8-90.8 47.6-.3 2.1 2.3 6.7 5.8 11.9l91.6-51.5c-2.8-4-5.2-7-6.6-8z"/><path class="st1" d="M481 193.8s-10.7-18.2-18.4-29.3L371.1 216c6.3 9.4 15.4 20.3 15.4 20.3l94.5-42.5z"/><path class="st4" d="M367.5 209.2c30.8-20.5 91.6-49.1 91.6-49.1"/><path class="st2" d="M359.9 472.9c-.7 13.2-18.3 105.5-14.6 106.2s24.2 2.9 27.1-2.2c10.5-34.4 19.8-193.4 22-197.8s-8.1-17.6-8.1-17.6l-11.7 9.5-3.7 61.5c0 .1-10.2 27.2-11 40.4z"/><path class="st4" d="M354.8 577.7s16.8-117.9 17.6-138.5M365.1 578.4s21.1-150.9 17.9-175.8"/><path class="st2" d="M383.4 355.7c-11.7 6.6-15.4 40.3-19.8 63.7-4.4 23.4-22 46.9-24.2 55.7s3.7 19.8 12.5 15.4 25.4-48.5 28.6-69.6c4.4-29.3 5.9-49.1 5.9-49.1s8.7-22.7-3-16.1z"/><path class="st4" d="M343.1 485.4c39.8-58.6 33-108.4 33-108.4"/><path class="st2" d="M373.1 308.1c-2.9 35.2-29.3 78.4-32.2 87.9s5.1 20.5 13.9 16.8c8.8-3.7 39.6-60.8 44.7-90.1 5.1-29.3 2.2-60.1 2.2-60.1l-10.3-19.8-15.4 15.4c.1.1.1 14.7-2.9 49.9z"/><path class="st4" d="M345.9 409c43.4-64.6 33-116.5 33-116.5M389.1 327.7c.7-2.2 3.7-75.4 3.7-75.4"/><path class="st2" d="M440.5 215.1s-7.3-10.3-17.6-11.7c-10.3-1.5-51.3 13.2-57.9 30.8s-11 67.4-15.4 82c6.6.7 24.2 2.2 29.3-11 5.1-13.2 8.1-50.5 13.2-55.7 5.2-5.1 48.4-34.4 48.4-34.4z"/><path class="st2" d="M493.3 171.4s-50.5 16.6-55.7 26.1c-5.1 9.5-2.9 20.5-2.9 20.5l63-18.3 9.5-15.4-13.9-12.9z"/><path class="st4" d="M444.8 212c-.7-20.5 46.1-28.6 50.5-33M433 217.1s-5.9-5.4-11-5.4-41.8 14.2-48.3 25.1-8.1 63-19 77.6"/><path class="st4" d="M364.9 314.5c12.5-19 8.1-60.1 20.5-71.8"/><path class="st1" d="m381.9 239.2 24.9 34.5 116.5-54.2-19.8-35.9z"/><circle class="st3" cx="454.2" cy="228.7" r="19.8"/><circle cx="454.3" cy="228.9" r="12.1"/><circle class="st6" cx="454.1" cy="228.4" r="4.8"/><path class="st8" d="m513.8 130.6-36.9 24.9 5 6.4 35.8-25.6z"/><path class="st1" d="m538 165.3-20.3-29-35.8 25.6 20.9 26.8z"/><path class="st2" d="M532.8 159.4s-30.8-.7-31.5 25.6c-.7 26.4 22 34.4 22 34.4l28.6-8.1 6.6-13.9-7.3-28.6-18.4-9.4z"/><path class="st4" d="M528.7 214.1c-8.1-1.5-23.9-12-19.5-31 4.4-19 30.3-19.3 30.3-19.3"/><path class="st2" d="M518.2 217.3c-5.1 5.1 2.4 26.4 19.3 22.7 16.8-3.7 27.8-16.1 39.1-18.3-2.1 3.5-2 11.7 3.2 13.9 4.7 2 19 1.5 20.5-16.8-1.5-6.6-5.4-11.5-12.7-14.4-7.3-2.9-15.1 2.7-18.6 2.4 4.9-3.4-20.8-49.6-20.8-59.1 4.4.7 8.8.5 8.8-6.1s-4.4-17.3-16.1-18.1c-11.7-.7-15.4 10.3-16.8 17.6-1.5 7.3 24.9 38.8 24.9 49.1-.1 10.2-25.7 21.9-30.8 27.1z"/><path class="st4" d="M576.5 221.7c4.5-3.9 12.5-3.1 11.8 2.7M531.4 226.6s34.2-14.8 36.9-19.6M548.2 147.7c-5.9-2.2-6.6-9.5.7-10.3"/><path class="st6" d="M551.5 189.3c0-9.2-7.5-16.7-16.7-16.7-3.6 0-7 1.1-9.7 3.1l18.4 27.9c4.8-2.9 8-8.2 8-14.3z"/><path class="st7" d="M518 189.3c0 9.2 7.5 16.7 16.7 16.7 3.2 0 6.2-.9 8.7-2.4L525 175.7c-4.2 3-7 8-7 13.6z"/><circle class="st8" cx="534.8" cy="187.9" r="5.7"/><circle class="st4" cx="534.8" cy="189.3" r="16.7"/><path class="st2" d="M453.7 361.6c2.2 8.8 19.8 168.5 20.5 175.8-3.7 11.7-16.8 22.7-26.4-18.3-5.1-20.5-10.3-46.1-10.3-46.1l-4.4-97.4c.1-.1 18.4-22.8 20.6-14z"/><path class="st4" d="M441.2 377.7c2.2 100.3 20.5 167.8 20.5 167.8M447.8 369.7c2.2 82 22 175.1 22 175.1"/><circle class="st3" cx="416.3" cy="352.8" r="38.1"/><path class="st4" d="m381.2 358.7 69.6-19.1M382.9 366.8l70.8-18.4M386.3 334.5l56.4 47.6M447.1 374.8l-54.9-44.7M411.9 389.4l-.7-70M419.3 389.4v-68.8"/><circle class="st12" cx="404.3" cy="329.7" r="3.3"/><circle class="st12" cx="389.2" cy="347.7" r="3.3"/><circle class="st12" cx="401.7" cy="374" r="3.3"/><circle class="st12" cx="445.6" cy="358.7" r="3.3"/><circle class="st12" cx="432.5" cy="329.4" r="3.3"/><circle class="st3" cx="417.6" cy="352.3" r="19"/><path class="st8" d="M419.3 362.3c-5.1 2.2-12-4.4-11.2-8.8.7-4.4 6.1-10.7 11.2-11.5 5.1-.7 12.5 5.6 15.9 12.9 1.9 4 5.4 115 3.9 120.1-1.5 5.1-29.3-1.5-30.8-13.2-1.5-11.6 12.2-90.4 11-99.5z"/><path class="st4" d="M419.3 362.3c5.9 0 11.5-4.9 2.7-10.7"/><path class="st4" d="M425.1 475.1s-2.2-11 0-13.9c2.2-2.9 1.5-1.5 2.9-5.9s-2.9-8.1-2.9-12.5 5.9-5.9 5.1-10.3-3.7-4.4-4.4-8.1-.7-33-.7-38.1c0-5.1 2.9-5.1 3.7-8.1.7-2.9 0-16.8-2.2-20.5"/><circle class="st2" cx="417" cy="301.4" r="15"/><circle class="st4" cx="417" cy="300.8" r="5.2"/><path class="st7" d="M501.3 301.5c0 3.4 19.3 15.2 33.8 14.3l-6.8-24.1c-13 3.1-27 7.8-27 9.8z"/><path class="st6" d="M549.7 289.1c-1.9-1.3-11.3.2-21.3 2.6l6.8 24.1c1-.1 1.9-.2 2.8-.4 14.6-2.9 16.1-23.4 11.7-26.3z"/><path class="st4" d="M501.3 301.5c0 3.7 22 16.8 36.6 13.9 14.6-2.9 16.1-23.4 11.7-26.4-4.3-2.9-48.3 8.8-48.3 12.5z"/><path class="st8" d="M540.5 289.2c-6.3 1-14.7 3-22.1 5.1 1.8 2.6 6.2 9.2 15.7 8.5 9.5-.7 11-14.3 6.4-13.6z"/><path class="st8" d="M529.9 293.5s.7 3.2 3.7 2.4c2.9-.7 1.5-3.9 1.5-3.9l-5.2 1.5z"/><path class="st2" d="M578.2 338.9c-2.2-5.9-5.4-13.9-17.1-14.6-11.7-.7-20.3 14.6-18.8 21.2 2.2 12.5 13.2 8.1 17.6 5.1 2.9 7.3 9.5 19.8 21.2 24.2 11.7 4.4 47.6.2 53.5-16.6 3.7-9.8 1.5-30.3 1.5-30.3 8.8 1.5 11-2.9 10.3-12.5-.7-9.5-8.8-12.5-17.6-12.5s-15.9 10-17.3 16.6c-1.5 6.6 9.3 12.7 7.6 26.4-1.2 9.6-24.7 10.5-32 8.3-7.4-2.1-6.7-9.5-8.9-15.3z"/><path class="st4" d="M551.9 343.3c7.3-5.9 11 3.7 8.1 7.3M636.1 327.9c-8.8-2.9-8.1-15.4 0-13.9"/><circle class="st2" cx="638.9" cy="434.7" r="10.6"/><circle class="st2" cx="671.3" cy="465.6" r="10.6"/><path class="st3" d="m670.5 402.6-26.4 24.2s4.6 6.6 11.3 14.5l27.1-25.9-12-12.8zM695.1 428.9l-25.7 27.3c4.2 3.9 8.5 7.3 12.5 9.4 1.8.7 21.6-27.8 21.6-27.8l-8.4-8.9z"/><path class="st4" d="m654.7 419 31.5 38.8M660.5 413.1l31.5 38.8"/><path class="st1" d="m682.5 415.3-27.1 25.9c4.1 4.9 9 10.3 14 15l25.7-27.3-12.6-13.6z"/><path class="st2" d="M682.3 396.8c-.7-5.1-10.3-1.5-11.7 5.9-1.5 7.3 3.7 18.3 11.7 27.1s22 19 23.4 7.3c7.3-.7 8.8-8.1 7.3-11-1.5-2.9-11.5-.4-17.8-13.6-3.6-7.4-2.4-15.6-2.7-17.9-.5-4.7-7.3-3.7-10.2 2.2z"/><path class="st4" d="M705.7 437c-16.1-7.3-28.6-28.6-23.4-40.3"/><circle class="st8" cx="564.8" cy="754.4" r="11.4"/><circle class="st4" cx="564.8" cy="754.8" r="3.7"/><path class="st2" d="m494.6 739.4-1.5 16.8 35.6 6 2.4-18.9z"/><path class="st8" d="m556.8 746-11.4-1.2-2.8 19.7 12 2z"/><path class="st1" d="m531.1 743.3-2.4 18.9 13.9 2.3 2.8-19.7z"/><path class="st8" d="M555.4 787s36.8-2 39.6-1.5l8.2 10.4-43.2 2.9-4.6-11.8z"/><path class="st4" d="m570.2 796.7-2.2-10.2M578.2 796l-2.9-9.5M589.2 794.5l-2.9-8.8"/><path class="st8" d="m499 750.6-43.9 1.2-7.3 35.2 53.8 3.5 1.7-39.3c-2.8-.4-4.3-.6-4.3-.6z"/><path class="st2" d="m503.3 751.3-1.7 39.3 12.8.9 41-4.4s39.6.7 39.6-1.5c-15.2-20.8-75.1-31.7-91.7-34.3z"/><path class="st4" d="M453.6 762.1s33.7-3.7 37.4-1.5c3.7 2.2 1.5 24.9 1.5 24.9"/><path class="st1" d="M452.8 753.3c-2.9-1.5-3.2-8.3 1.2-11.2 4.4-2.9 36.1-2 40.5-2.7 4.4-.7 6.6 8.1 4.4 11.7s-43.2 3.7-46.1 2.2z"/><path class="st8" d="M449.9 785.5c3.7-1.5 106.2-4.4 108.4-1.5s2.2 5.9 2.2 9.5c0 3.7-113.5 7.3-115 4.4-1.5-2.8.7-10.9 4.4-12.4z"/><path class="st4" d="m453.7 796.7 1.5-11.7M461.8 796l1.4-11M485.2 798.2l.7-13.2M494.7 797.5l.7-13.3M528.4 794.5v-11M538.7 794.5v-10.3"/><path class="st8" d="m744.1 768-29.8 3.7s5.1 10.3 8.1 10.3 27.1-.7 27.1-3.7-5.4-10.3-5.4-10.3z"/><path class="st4" d="m727.4 779.1-3.6-8.8M735 778.4l-3.7-9.5M742.6 777.7l-4.7-9.6"/><circle class="st8" cx="725.8" cy="732" r="11.7"/><circle class="st4" cx="725.8" cy="731.9" r="4"/><path class="st2" d="m660.1 729.1-1.4 11.8 30.3.4-1.1-16z"/><path class="st1" d="m687.9 725.3 1.1 16 13.8.1v-18.1z"/><path class="st8" d="m713.6 721.8-10.8 1.5v18.1l10.1.2z"/><path class="st2" d="m651.3 733.5 13.2.7s25.6 2 39.6 5.6c13.9 3.7 40 28.1 40 28.1l-29.8 3.7-61.5 2.2-1.5-40.3z"/><path class="st8" d="M622 746.7c-5.9 7.3-10.3 30-10.3 30l52.7-7.3-2.9-35.2c.1 0-33.6 5.2-39.5 12.5z"/><path class="st4" d="m619.1 756.2 34.4-8 1 22.2"/><path class="st1" d="M608.8 736.4c-4.4 4.4-2.2 13.2 5.1 13.9 7.3.7 47.6-11 49.8-13.9 2.2-2.9.7-11.7-7.3-12.5-8-.6-43.2 8.1-47.6 12.5z"/><path class="st8" d="M611.8 776.8c3.7-4.4 87.2-14.6 101.1-11 5.1 2.2 2.2 9.5 2.2 9.5l-103.3 12.5c0-.1-3.7-6.7 0-11z"/><path class="st4" d="m625.1 782.8.8-8.8M636.1 783.5v-10.2M658.8 779.9v-8.8M667.6 778.4l1.5-10.3M690.3 775.5l-.7-8.8M698.4 774.7v-8M273.8 125.8l.2-4.6M282.1 126.3l.5-5.4M289.7 126.3l1.4-4.9M297.7 127.3l1-4.9M307.5 128.7l1-4.9"/></svg>