<svg version="1.1" id="Calque_1" xmlns="http://www.w3.org/2000/svg" x="0" y="0" viewBox="0 0 900 900" style="enable-background:new 0 0 900 900" xml:space="preserve"><style>.st1,.st2{fill:none;stroke:#000;stroke-width:3.1994;stroke-linecap:round;stroke-linejoin:round;stroke-miterlimit:10}.st2{fill:#fff}.st3{fill:red}.st4,.st5{fill:none;stroke:red;stroke-width:3.1994;stroke-linecap:round;stroke-linejoin:round;stroke-miterlimit:10}.st5{fill:red;stroke:#000}.st6{fill:#fff}.st7,.st8,.st9{fill:#002d2d;stroke:#000;stroke-width:3.1994;stroke-linecap:round;stroke-linejoin:round;stroke-miterlimit:10}.st8,.st9{fill:#2f302f}.st9{fill:#ffce00}.st11{fill:#2f302f}.st13{fill:#3d1400;stroke:#000;stroke-width:3.1994;stroke-linecap:round;stroke-linejoin:round;stroke-miterlimit:10}</style><path d="M556.2 259.5s14.4-3.2 16-12.3c1.6-9.1-17.1-67.7-17.1-72s6.9-6.4 10.1-3.7c3.2 2.7 14.9 43.7 18.7 65.6 1.1-21.9-2.7-63.5-.5-67.2s11.7-3.7 12.8-.5c1.1 3.2.5 44.8 1.1 68.8 3.2-19.7 13.3-62.4 16.5-65.1 3.2-2.7 9.1-1.1 9.1 3.2 0 4.3-12.3 63.5-16.5 70.9 4.8-4.8 18.7-2.7 23.5 2.7s8 16 2.7 21.9c-5.3 5.9-13.9 8-18.7 5.9s-6.4-8.5-4.8-11.7c1.6-3.2 5.3-4.8 7.5-3.2s-1.6 9.1 5.3 6.9c3.7-1.6 3.7-6.9 1.1-10.7-2.7-3.7-6.9-6.4-13.3-2.7s-8 10.1-17.1 17.1c-9.1 6.9-22.9 5.9-22.9 5.9l-13.5-19.8z" style="fill:#054900;stroke:#000;stroke-width:3.1994;stroke-linecap:round;stroke-linejoin:round;stroke-miterlimit:10"/><path class="st1" d="M606.3 247.2c-5.9 3.7-10.1 7.5-15.5 16-5.3 8.5-20.3 7.5-20.3 7.5"/><path class="st1" d="M597.3 238.1c-.5 8.5-1.1 16.5-6.4 25.1-5.3 8.5-20.3 7.5-20.3 7.5"/><path class="st1" d="M583.9 237.1c3.7 18.7-9.1 25.1-13.9 26.1"/><ellipse class="st2" cx="555.4" cy="272" rx="17.9" ry="16.8"/><path class="st1" d="M537 279.2c3.2 2.1 15.5 2.7 16-3.2s-6.4-2.7-6.4-2.7M562.6 281.8l7.5-1M564.7 276l7-1.6M562.6 269.6l8.5-3.2M559.9 264.8l6.4-4.3M553.5 261.1l5.4-4.3"/><path class="st3" d="M200.5 539.4s10.7-1.6 14.9-9.6 1.6-12.3 1.6-12.3l-13.3-14.9-18.1 15.5-10.1 20.8 25 .5z"/><path class="st4" d="m210.1 545.3 6.4 4.2M214.4 541.5l6.9 3.8M218.1 537.8l7.5 2.1M222.4 533l7.5.5M224 527.1l6.9-.5M224.5 521.8l7-1.1M224.5 515.9l7.5-1.6M228.8 549.5l13.3 8.6 4.3-5.4-13.3-9M258.1 564.5l-12.2-8M237.2 536.1l15.3 4 2.4-6.3-15.5-4.6M269.6 541.4l-14.1-3.9M239.9 519.9l15.5-3.1-.6-6.8-15.9 2.8M271.3 510.3l-14.4 2.8M234.4 506.1l13.6-8.2-2.9-6.2-14.1 7.9M260.8 486.3l-12.6 7.5"/><path class="st5" d="M603.9 550.8c-3.4-3.1-5.9-6.6-7.9-10-3.2 7.3-3.3 16.3-3.1 20.1 3 2.7 6.6 5 10.6 6.9-.3-4.3-.5-12 .4-17z"/><path class="st2" d="M616 558.3c-.9-.4-1.9-.9-2.8-1.3-3.6-1.6-6.7-3.7-9.3-6.2-.9 5-.7 12.6-.5 17.1l1.8.9c4.2 1.8 7.8 3.8 10.9 5.7.5-3.7 1.1-10.9-.1-16.2z"/><path class="st5" d="M579.1 529.8c-.3 7.7 1.7 15.1 5.6 21.5.5-6.6 1.8-18.7 4.7-25.3-2.5-2.8-9.8-9.8-10.3 3.8z"/><path class="st2" d="M596 540.9c-4.3-7.2-5.7-13.7-5.7-13.7s-.3-.4-.9-1.1c-2.9 6.6-4.2 18.7-4.7 25.3 2.1 3.5 4.9 6.8 8.2 9.6-.2-3.9-.1-12.9 3.1-20.1z"/><path class="st5" d="M628.5 565c-3.4-2.2-7.5-4.4-12.4-6.7 1.1 5.3.5 12.5.2 16.2 4.1 2.6 7.3 5 9.6 7 1-3.9 2.8-11.1 2.6-16.5zM731.6 656.2c-1.1-3.2-18.1-11.2-27.7-20.3-1-1-2-1.9-3-2.8l-24.7 19.1c11.7 14.7 22.6 28.2 24 29.4 3.2 2.7 11.8-3.2 10.7-7.5 4.8 1.1 12.3-3.7 11.7-9.1 4.8.8 10.1-5.6 9-8.8z"/><path class="st2" d="m690 624.6-22.3 17.1c2.8 3.5 5.7 7.1 8.5 10.6l24.7-19.1c-3.8-3.3-7.5-6.1-10.9-8.6z"/><path class="st5" d="m679.6 616-20.1 15.5c2.6 3.2 5.3 6.7 8.1 10.2l22.3-17.1c-4-3.1-7.6-5.8-10.3-8.6z"/><path class="st2" d="M679.4 615.7c-5.3-5.9-22.9-21.3-22.9-21.3s-12.8-10.1-14.9-16c-1.4-3.8-5.3-8.4-13-13.3.2 5.4-1.5 12.6-2.7 16.4 3 2.6 4.5 4.4 4.5 4.4l11.2 16.5s-1.1 5.9 3.2 10.7c1.4 1.5 7.4 9 14.9 18.5l20.1-15.5c-.3-.2-.4-.3-.4-.4z"/><path class="st1" d="m710.8 674.3-14.4-15.5M722.6 665.2l-17.1-14.4"/><path class="st3" d="m606.3 602.3 14.9 17.6s3.4-2.9 9-7.2l-12.4-18.2-11.5 7.8z"/><path class="st6" d="m652.5 571.2-34.6 23.3 12.4 18.2c8.3-6.3 21.4-15.8 35.1-23.1l-12.9-18.4z"/><path class="st3" d="M676.7 584.2c-5.9-12.3-14.9-19.2-14.9-19.2l-9.3 6.2 12.8 18.4c3.8-1.9 7.6-3.8 11.4-5.4z"/><path class="st1" d="M676.7 584.2c-1.7-3.5-3.6-6.5-5.5-9.1-9.5 4.7-32.9 17.1-56.8 36.7l6.9 8.1s28.7-24.5 55.4-35.7z"/><path class="st1" d="m661.8 565-55.5 37.3 8.1 9.5c23.9-19.6 47.4-32 56.8-36.7-4.8-6.5-9.4-10.1-9.4-10.1z"/><circle class="st5" cx="636.5" cy="585.5" r="7.2"/><circle class="st5" cx="646.8" cy="597" r="7.2"/><path class="st7" d="M673 624.2c0-8 10.7-13.3 21.9-9.1 11.2 4.3 15.8 12 6.9 21.3-9.6 10.2-28.8-4.2-28.8-12.2z"/><circle class="st2" cx="687.4" cy="629.8" r="9.1"/><circle class="st5" cx="687.4" cy="629.8" r="3.3"/><path class="st8" d="M501.9 621.4c10-10.1 10-21.8 10-21.8l-5.9-47.5-29.9 5.9-2.1 22.4-18.7 41.6-36.3 64.5 24.2 1.7 49.4-67.8 9.3 1z"/><path class="st2" d="m460.1 665.4 5.8 3.1c1.6-2.1 3.2-4.2 4.9-6.4l-5.7-3.5-5 6.8z"/><path class="st2" d="m449.7 679.6 5.8 2.3c2.8-3.6 6.5-8.3 10.5-13.5l-5.8-3.1-10.5 14.3zM465 658.5l5.7 3.5c1.4-1.9 2.9-3.8 4.3-5.7l-5.3-4.2-4.7 6.4zM443.3 688.3l6.7.5s2.1-2.6 5.3-6.8l-5.8-2.3-6.2 8.6zM480.4 637.4l5.9 3.6c1.7-2.3 3.1-4.4 4.5-6.3l-5.4-4.1-5 6.8z"/><path class="st2" d="m469.7 652.1 5.3 4.2c1.9-2.6 3.8-5.1 5.7-7.6l-5.4-4.3-5.6 7.7zM501.9 621.4l-9.2-1-7.4 10.1 5.4 4.1c2.4-3.5 4.2-6.4 5.2-8.3 2.3-1.5 4.3-3.2 6-4.9zM475.3 644.4l5.4 4.3c2-2.7 3.9-5.3 5.7-7.7l-5.9-3.6-5.2 7z"/><path class="st3" d="M467.5 669.2c-3.8-.9-7.5-.7-8.3-.7-1.6 0-4.8 5.3-2.1 7.5 1.1.9 3.7 1.3 6.6 2.3-.1-3.2.7-6.8 3.8-9.1z"/><path class="st6" d="M476.2 674.3c-2.2-2.9-5.5-4.4-8.7-5.1-3.1 2.3-3.9 5.9-3.9 9 4.4 1.5 9.2 4 8.9 10.5 6.4-1.6 8.5-8 3.7-14.4z"/><path class="st1" d="M459.2 668.4c-1.6 0-4.8 5.3-2.1 7.5s16 2.1 15.5 12.8c6.4-1.6 8.5-8 3.7-14.4-4.9-6.4-15.5-5.9-17.1-5.9z"/><path class="st5" d="m453.3 588.5-25.1 26.1 9.6 6.9 23.5-25.6z"/><path class="st5" d="m456.5 595.9-30.4 34.7 8.5 4.8 25.1-30.4zM466.1 578.3c-6.9-3.7-32-5.3-32-5.3s-2.1 9.1-.5 16.5c11.7 0 26.7 3.2 26.7 3.2s8 1.6 9.6-5.3c1.5-6.9 3.1-5.3-3.8-9.1z"/><path class="st1" d="M433 581.5c10.7-1.1 31.5 3.2 31.5 3.2"/><path class="st9" d="M486.3 607.7c-1.6 3.7-5.3 14.4-2.1 17.1 3.2 2.7 13.9 2.7 15.5-1.6s-.5-14.4-.5-14.4-11.3-4.9-12.9-1.1z"/><path class="st5" d="m500.7 581-30.9-1.6-2.2 8.1 35.1.8c-.9-4.2-2-7.3-2-7.3z"/><path class="st9" d="m467.6 587.6-5.3 19.6s20.3 3.2 36.8 1.6c6.1-2.7 5.1-13.1 3.6-20.4l-35.1-.8z"/><path class="st9" d="M458.6 601.8s-7.5 12.8-5.9 18.1 11.2 6.9 14.4.5c3.2-6.4.5-16 .5-16l-9-2.6z"/><circle class="st9" cx="469" cy="583.9" r="7.2"/><circle class="st9" cx="462.4" cy="599.3" r="7.9"/><path class="st5" d="m341.8 721.8-5.8-18.2 79.4-14.4-3.7 15.5z"/><path class="st2" d="m446.9 697.8-18.7-1.6s-1.4 2.9-3 7.6l22 .3-.3-6.3z"/><path class="st2" d="M425.2 703.7c-1.8 5.1-3.6 12.3-3.9 20.2 6.9 1.6 26.7-1.6 26.7-1.6l-.8-18.2-22-.4zM374.9 730.8c0 2.1 7.5 3.2 11.2-.5-2.7-8-9.1-2.7-11.2.5z"/><path class="st2" d="M361.6 727.6c-6.4-6.4-10.7-.5-10.7-.5s-6.4-5.3-11.7-.5c1.1 4.3 5.3 5.9 11.2 2.7.5 2.7 7.5 4.3 10.7 1.1 1.1 2.7 9.6 3.7 13.9.5-1.2-3.3-8.1-8.6-13.4-3.3zM386.1 730.3c1.1 1.6 5.9 3.7 9.6 2.1 1.4-.6 2.6-1.4 3.6-2.1-1.8-2.3-6.8-7.7-13.2 0z"/><path class="st8" d="M410.6 691.9c-14.9 8-54.9 22.4-60.3 22.9-5.3.5-12.3 7.5-11.2 11.7 5.3-4.8 11.7.5 11.7.5s4.3-5.9 10.7.5c5.3-5.3 12.3 0 13.3 3.2 2.1-3.2 8.5-8.5 11.2-.5 6.4-7.7 11.4-2.4 13.2.1 1.7-1.2 3.1-2.2 5.5-2.2 3.7 0 26.1-2.1 26.1-2.1l8.5-34.1c.1 0-16.4-.5-28.7 0z"/><path class="st5" d="M446.9 697.8c4.3-1.1 5.3-9.1 2.1-11.2-3.2-2.1-26.7-2.1-32-1.1-5.3 1.1-11.2 9.1-6.4 11.2 4.8 2.1 32 2.1 36.3 1.1z"/><path class="st1" d="M350.4 729.2c-.5-3.7 1.1-8 6.4-10.1M361 730.3c-.5-6.9 2.7-10.1 9.1-11.7M374.9 730.8c-.5-5.3 2.7-9.6 7.5-11.7M386.1 730.3c-.5-6.9 1.6-8.5 9.1-11.7"/><path class="st2" d="M402.6 730.3s1.6-5.9 4.8-6.9c3.2-1.1 37.9-2.1 40.5-1.1s1.1 9.1-1.1 8-44.2 0-44.2 0z"/><path class="st5" d="m542.9 719.1-5.4-15.5 71-12.8-1.1 9.6z"/><path class="st8" d="M630.9 685.5s-14.4-27.2-25.1-44.8-20.3-29.9-20.3-29.9l1.6-4.3-8.5-8.5-1.9-22.6-7.7.2 6.7-41.4-60 7.8 8 46.9 26.7 35.7 58.7 60.8-4.3 12.3s-56.5 16.5-60.3 20.3c-1.8 1.8-2.5 3.3-2.7 4.6 3.2-1 9.1-2.1 11.7 1.3 4.3-2.7 9.6 2.1 9.6 2.1s6.9-6.9 12.3.5c7.5-6.9 13.3-.5 13.3-.5s5.3-6.9 11.7-2.1h4.8l20.3-1.1 11.4-34.5-6-2.8z"/><path class="st2" d="M588.7 726s-5.9-6.4-13.3.5c-5.3-7.5-12.3-.5-12.3-.5s-5.3-4.8-9.6-2.1c-2.7-3.4-8.5-2.2-11.7-1.3-.2 1.4.3 2.6.5 3.9.5 2.7 6.9 3.2 10.1 1.6 1.6 2.1 8 3.7 10.7.5 1.6 2.7 9.1 3.2 12.8.5 3.7 2.7 10.7 2.1 13.3-1.1 2.1 2.7 4.3 2.1 6.9 1.1 2.7-1.1 4.3-5.3 4.3-5.3-6.3-4.7-11.7 2.2-11.7 2.2z"/><path class="st1" d="M589.3 728.2c-1.1-5.3 3.7-10.7 6.4-11.7M552.5 728.2c.5-6.9 8.5-10.7 16-12.3M563.1 728.7c.5-6.9 6.4-9.6 14.4-12.3M575.9 729.2c.5-6.9 3.7-10.7 11.2-12.3"/><path class="st2" d="m605.3 625.2-7.7 2.7c1.3 1.9 2.6 3.9 3.9 6.1l8.3-2c-1.5-2.6-3-4.8-4.5-6.8z"/><path class="st2" d="m609.9 631.9-8.3 2c1.3 2.1 2.8 4.4 4.2 6.7l8.3-1.7c-1.5-2.4-2.9-4.8-4.2-7zM591.9 611.4l-4.8-4.8-1.6 4.3s3 3.8 7.6 10.3l6.6-2.8c-4.6-4.9-7.8-7-7.8-7zM617 645c-1-2.1-2-4.1-3-6l-8.3 1.7c0 .1.1.1.1.1 1.4 2.3 2.9 4.9 4.5 7.6l7.4-1.9c-.3-.6-.5-1-.7-1.5z"/><path class="st2" d="m599.7 618.4-6.6 2.8c1.4 2 2.9 4.2 4.5 6.7l7.7-2.7c-2-2.7-3.9-4.9-5.6-6.8zM631 672.1l-6.8 1.1c1.5 2.8 2.9 5.3 3.9 7.3l7.4-.9c-1.2-1.9-2.7-4.4-4.5-7.5zM628.1 680.5c1.7 3.1 2.7 5.1 2.7 5.1l6 2.8 1.4-4.4s-1-1.5-2.8-4.3l-7.3.8z"/><path class="st2" d="m621.4 654.1-6.7 1.8c3.5 6.1 6.8 12.2 9.6 17.3l6.8-1.1c-2.8-4.7-6.1-10.7-9.7-18zM617.6 646.4l-7.4 1.9c1.4 2.5 2.9 5.1 4.4 7.6l6.7-1.8c-1.2-2.5-2.4-5-3.7-7.7zM641 695.1l-8.5-6.9-10.7 3.7-.2 9.6 21.7-.8z"/><path class="st2" d="m651.1 719.6-7.8-18.9-21.7.8-.3 21.9z"/><path class="st2" d="M607.4 721.2c-2.1 2.7-2.1 6.9-.5 7.5 1.6.5 43.7 0 45.3-1.1 1.6-1.1.5-6.4-1.1-8-1.6-1.6-41.6-1-43.7 1.6z"/><path class="st5" d="M638.3 683.9c5.9.5 7.5 10.1 2.7 11.2-6.4-2.1-30.4 0-36.3 2.7-2.1-3.2.5-11.7 4.3-12.3 3.7-.5 23.5-2.1 29.3-1.6z"/><path class="st3" d="M629.8 656.1c-5.1.5-9.3 1.6-10.7 2.7-2.7 2.1-1.6 8 1.6 8 1.2 0 5.1-1.2 9.4-1.8-1.1-2.3-1.8-5.5-.3-8.9z"/><path class="st6" d="M644.2 656.7c-4.3-1-9.7-1.1-14.3-.6-1.5 3.4-.9 6.6.3 8.9 7-1 15.4-.6 16.7 8.2 4.2-3.2 6.3-14.4-2.7-16.5z"/><path class="st1" d="M619.1 658.8c-2.7 2.1-1.6 8 1.6 8s24-8 26.1 6.4c4.3-3.2 6.4-14.4-2.7-16.5s-22.3 0-25 2.1z"/><path class="st2" d="m581 535.2.3-1.7-5.6.8-1.9 11.6 5.8 1zM569 575.7l7.7-.3-.2-2.4.8-7-6.6-.6z"/><path class="st2" d="m579.6 546.9-5.8-1-1.8 11.2 6.3.8zM572 557.1l-1.3 8.3 6.6.6 1-8.1z"/><path class="st9" d="M572.7 599.7s5.9 18.1 13.3 17.1c7.5-1.1 7.5-8 6.4-12.3-1.1-4.3-13.3-11.7-13.3-11.7l-6.4 6.9z"/><path class="st5" d="M576.5 573c-4.3-1.1-37.9 9.6-37.9 9.6l-1.4 7.3 43.5-10.3c-1.1-3.5-2.7-6.2-4.2-6.6z"/><path class="st9" d="m537.2 590-1.8 9.2 11.7 8.5s25.1-3.7 31.5-9.6c4.1-3.7 3.8-12.3 2-18.4L537.2 590z"/><circle class="st9" cx="534.3" cy="586.9" r="8.5"/><path class="st9" d="M536.5 605.5s.5 18.1 4.3 20.8c3.7 2.7 13.9.5 13.9-6.9 0-7.5-8.5-16-8.5-16l-9.7 2.1z"/><circle class="st9" cx="538.6" cy="600.7" r="8.5"/><path class="st5" d="m533.5 600.8-36 1.7c-.3 5.1-.7 10.5-1 15.9l39.5-2.7c-1-5.1-1.8-10.1-2.5-14.9z"/><path class="st2" d="m527.4 563.9-19.7-6.4-7.5 3.7s-1.3 18.4-2.8 41.2l36-1.7c-3.3-20.3-6-36.8-6-36.8z"/><path class="st5" d="M495.4 634.7c-1.6 26.7-2.8 50.8-2.1 52.4 1.6 3.7 16 4.3 16.5-.5 2.7 3.2 14.4 3.2 18.7-1.6 5.3 2.1 16.5.5 17.1-4.3.2-2.1-3.1-23.8-6.9-48l-43.3 2z"/><path class="st2" d="m535.9 615.7-39.5 2.7c-.3 5.4-.7 10.9-1 16.3l43.2-2c-.9-5.6-1.8-11.3-2.7-17z"/><path class="st1" d="m509.8 686.6-1.1-29.9M528.5 685l-2.2-28.8"/><path class="st3" d="M300.2 422.1s-3.3 3-7.3 8.9l7.9 6.9c5.6-2.8 10.1-5.7 10.1-5.7l-10.7-10.1z"/><path class="st6" d="M285.8 443.4c4.3-.5 10-3 15-5.5l-7.9-6.9c-2.3 3.3-4.8 7.5-7.1 12.4z"/><path class="st3" d="m326.4 449.8-10.7-9.6s-2.3 3.4-4.9 8.1l8.3 7.3c4.7-3 7.3-5.8 7.3-5.8z"/><path class="st6" d="M305 461c5.7-1.1 10.5-3.4 14-5.5l-8.3-7.3c-2.1 4-4.4 8.7-5.7 12.8z"/><path class="st3" d="m329.1 466.9 8.1 7.8c4.8-2.8 7.8-6.2 7.8-6.2l-10.1-10.7s-2.4 1.9-5.8 9.1z"/><path class="st6" d="M324.8 478.6c4.9-.2 9.1-2 12.5-3.9l-8.1-7.8c-1.4 3-2.9 6.8-4.4 11.7z"/><path class="st3" d="m365.3 486.6-10.7-11.2s-2.6 3.8-5.1 10.5l8.1 7.2c4.8-3.2 7.7-6.5 7.7-6.5z"/><path class="st6" d="M346.1 498.3c4.4-1.1 8.4-3.1 11.5-5.2l-8.1-7.2c-1.3 3.4-2.5 7.6-3.4 12.4z"/><path class="st3" d="M372.8 494.6s-1.8 3.1-3.9 8.3l9.6 7.9c4.2-2.7 6.6-5 6.6-5l-12.3-11.2z"/><path class="st6" d="M364.2 517c5.9-1.4 10.7-3.9 14.2-6.2l-9.7-7.9c-1.4 3.8-3.1 8.6-4.5 14.1z"/><path class="st3" d="m406.4 522.3-12.8-10.7s-1.7 3.2-3.7 9.3l9.3 7.5c5.4-3.9 7.2-6.1 7.2-6.1z"/><path class="st6" d="M385.6 537.3c6-3.5 10.5-6.5 13.6-8.7l-9.4-7.5c-1.4 4-3 9.5-4.2 16.2z"/><path class="st3" d="m427.2 536.2-15.5-10.1s-1.3 5.1-2.1 11.1l11.1 5.4c4-3.4 6.5-6.4 6.5-6.4z"/><path class="st6" d="M409 550.6c4.5-2.1 8.5-5.2 11.7-7.9l-11.1-5.4c-.6 4.3-1.1 9.3-.6 13.3zM437.3 562.3c3.6-3 7-6.9 9.7-10.2l-11.2-3.5c0 4.6.5 9.9 1.5 13.7z"/><path class="st3" d="M435.7 539.4s-.2 4.1 0 9.2l11.2 3.5c2.9-3.6 4.7-6.3 4.7-6.3l-15.9-6.4z"/><path class="st6" d="m604.1 523.5-8.3 8.3c2.9 1.9 6.9 3.8 12.1 5-.9-5.7-2.4-10.1-3.8-13.3z"/><path class="st3" d="m600.5 517-10.1 10.1s1.9 2.2 5.5 4.6l8.3-8.3c-2-4.3-3.7-6.4-3.7-6.4zM618.6 498.9l-10.7 10.7s1.9 1.8 6.3 3.6l8.5-9.1c-2.2-3.5-4.1-5.2-4.1-5.2z"/><path class="st6" d="m622.7 504.2-8.5 9.1c3.3 1.4 7.8 2.9 14 3.8-1.5-5.7-3.6-10-5.5-12.9zM640.9 483.9l-7.8 9.1c3.7 1.4 8.7 3 14.8 3.8-2.5-5.7-5-9.9-7-12.9z"/><path class="st3" d="m636.7 478.1-10.1 11.7s2.4 1.5 6.6 3.1l7.8-9.1c-2.6-3.9-4.3-5.7-4.3-5.7z"/><path class="st6" d="m663 464.6-8.1 8.1c3.8 1.2 8.4 2.4 13.3 3.3-1.5-4.3-3.4-8.2-5.2-11.4z"/><path class="st3" d="m658 456.8-12.3 12.8s3.7 1.5 9.1 3.1l8.1-8.1c-2.6-4.8-4.9-7.8-4.9-7.8z"/><path class="st6" d="m680.9 443.7-7.9 8.5c4.3 1.8 9.6 3.7 13.9 4.5-2-4.9-4.2-9.4-6-13z"/><path class="st3" d="m676.7 436.5-11.4 12.3s3.3 1.6 7.6 3.4l7.9-8.5c-2.3-4.4-4.1-7.2-4.1-7.2z"/><path class="st6" d="m700.1 426.5-7.7 7.7c4.2 2.1 9.2 4.5 12.6 5.5-1.7-5.2-3.4-9.8-4.9-13.2z"/><path class="st3" d="m697 419.4-12.3 10.7s3.4 1.9 7.7 4.1l7.7-7.7c-1.8-4.4-3.1-7.1-3.1-7.1z"/><path class="st1" d="M300.2 422.1s-8 7.5-14.4 21.3c9.1-1.1 25.1-11.2 25.1-11.2l-10.7-10.1zM315.7 440.2s-8 11.7-10.7 20.8c13.3-2.7 21.3-11.2 21.3-11.2l-10.6-9.6zM334.9 457.8s-4.8 3.7-10.1 20.8c11.7-.5 20.3-10.1 20.3-10.1l-10.2-10.7zM354.6 475.4s-5.9 8.5-8.5 22.9c11.2-2.7 19.2-11.7 19.2-11.7l-10.7-11.2zM372.8 494.6s-5.3 9.1-8.5 22.4c12.8-3.2 20.8-11.2 20.8-11.2l-12.3-11.2zM393.6 511.7s-4.8 9.1-8 25.6c16.5-9.6 20.8-14.9 20.8-14.9l-12.8-10.7zM411.7 526.1S408 541 409 550.6c10.1-4.8 18.1-14.4 18.1-14.4l-15.4-10.1zM435.7 539.4s-.5 14.9 1.6 22.9c7.5-6.4 14.4-16.5 14.4-16.5l-16-6.4zM590.3 527.1s5.9 6.9 17.6 9.6c-2.1-13.3-7.5-19.7-7.5-19.7l-10.1 10.1zM607.9 509.5s5.9 5.3 20.3 7.5c-3.2-12.3-9.6-18.1-9.6-18.1l-10.7 10.6zM626.6 489.8s8.5 5.3 21.3 6.9c-5.9-12.8-11.2-18.7-11.2-18.7l-10.1 11.8zM645.8 469.5s10.7 4.3 22.4 6.4c-3.7-10.7-10.1-19.2-10.1-19.2l-12.3 12.8zM665.4 448.8s13 6.3 21.5 7.9c-4.3-11.2-10.1-20.3-10.1-20.3l-11.4 12.4zM684.7 430.1s13.3 7.5 20.3 9.6c-3.7-11.7-8-20.3-8-20.3l-12.3 10.7z"/><path class="st8" d="M445.3 528.2c28.8 8 96.5 13.9 123.2-8 23.2-19.1 83.4-89.2 109-112.5-27.8-2-60.5 2.1-60.5 2.1L495.4 404l-109.3 6.4s-40.2 2.3-67.8 5.5c20 17.9 100.4 104.9 127 112.3z"/><path class="st9" d="M690.5 409.2c-17.2 13.3-79.4 88.3-111.9 114.8-34.1 27.7-115.2 24-146.6 6.9-29-15.7-105.3-95.9-126.4-113.2-8.9 1.4-14.1 2.9-12.2 4.4 7.5 5.9 99.7 102.4 137 118.4s123.2 19.7 156.8-9.6C620.7 501.5 682 429.6 706 413.6c-4.2-2-9.6-3.4-15.5-4.4z"/><path class="st5" d="M578.6 523.9c32.6-26.4 94.7-101.4 111.9-114.8-4.1-.7-8.5-1.2-13.1-1.5-25.6 23.3-85.7 93.4-109 112.5-26.7 21.9-94.4 16-123.2 8-26.6-7.4-107-94.4-127-112.2-4.7.5-9.1 1.1-12.7 1.7C326.7 435 403 515.2 432 530.9c31.4 17 112.5 20.8 146.6-7z"/><path class="st9" d="M192 497.8s-6.4 14.4-5.9 18.7c.5 4.3 7.5 4.3 9.1 2.1 1.6 1.6 6.9 3.7 10.7.5 3.2 2.7 9.6 2.1 11.2-1.6 1.6-3.7-1.6-11.7-1.6-11.7l-14.4-16-9.1 8z"/><path class="st1" d="m195.2 518.6 1.6-5.9M205.9 519.1l.5-4.8"/><path class="st8" d="m452.3 414.3-3.9-23.6s-49.6 8-81.6 10.7c-32 2.7-76.8-2.1-76.8-2.1l-22.9 1.1-1.2 11.9c16.1 2.4 67.1 9.5 105.3 10.4 36 .8 68.8-5.6 81.1-8.4z"/><path class="st6" d="M546.1 288.8s-4.8-13-9.5-28c-7.3 1.8-20.5 5.4-30.8 10l15.3 33.1 25-15.1z"/><path class="st2" d="M321 419.2v7.6c2.7.3 5.5.6 8.4.9l-.3-7.6c-2.7-.4-5.4-.7-8.1-.9zM313.9 418.4l-.6 7.5c2.5.3 5.1.6 7.7.9v-7.6c-2.4-.3-4.8-.5-7.1-.8zM329.1 420l.3 7.6c3 .3 6.2.5 9.3.8l.3-7.5c-3.2-.4-6.6-.6-9.9-.9zM265.9 412.2l-.3 2.9 20.3 6.9s4.3.7 11.4 1.7l.6-7.3c-14.1-1.6-25.7-3.3-32-4.2z"/><path class="st2" d="m305.9 417.5-.4 7.4c2.5.3 5.1.6 7.8 1l.6-7.5c-2.7-.3-5.4-.6-8-.9zM339.1 420.8l-.3 7.5c3.1.3 6.4.5 9.6.6l.3-7.4c-3.2-.2-6.4-.4-9.6-.7zM297.8 416.5l-.6 7.3c2.5.3 5.2.7 8.2 1.1l.4-7.4c-2.6-.3-5.3-.6-8-1zM437.3 417.3c-3.3.6-6.8 1.2-10.6 1.7l1.8 7.1c3.9-.4 7.6-.8 10.8-1.1l-2-7.7zM418.8 420.1l.6 6.9c3.1-.3 6.1-.6 9-.9l-1.8-7.1c-2.5.4-5.1.7-7.8 1.1z"/><path class="st2" d="m453.8 423.2-1.4-8.9c-3.5.8-8.7 1.9-15.1 3l1.9 7.7c9-1 14.6-1.8 14.6-1.8zM410.3 421l.5 6.7c2.9-.2 5.8-.5 8.6-.7l-.6-6.9c-2.7.3-5.6.6-8.5.9zM371.2 422.6c-7.1-.2-14.8-.5-22.5-1.1l-.3 7.4c8.2.5 16.5.7 24.4.6l10.9-.3-.5-6.6c-4 .1-8 .1-12 0zM400.9 421.8l1.2 6.5c3-.2 5.9-.4 8.7-.6l-.5-6.7c-3 .3-6.2.6-9.4.8z"/><path class="st2" d="m383.1 422.7.5 6.6c3.3-.1 6.6-.3 9.9-.4l-1.4-6.5c-3 .1-5.9.2-9 .3zM392.1 422.4l1.4 6.5c2.9-.2 5.8-.3 8.6-.5l-1.2-6.5c-2.9.1-5.8.4-8.8.5z"/><path d="m444.8 202.4 1.5 2.6c9.2-4.9 16.2-8.4 18.2-9-5 .8-11.3 2.1-18.2 3.8l.1.4-.1-.4c-4.4 1.1-9.1 2.3-13.9 3.5l.6 4.4 1.9 3.3c4-2.1 7.8-4.2 11.3-6l-1.4-2.6z" style="fill:none"/><path class="st3" d="m381.8 241.3 12.3 14.9s15-10.9 32.7-22.6l-9.1-13.2c-16.4 9.1-31.7 17.9-35.9 20.9zM370.6 201.9l4.8 18.1s18.2-5.8 39.1-11.7l-3.2-14.9c-22.3 4.4-40.7 8.5-40.7 8.5z"/><path class="st6" d="m417.7 220.4 9.1 13.2c5.1-3.4 10.3-6.7 15.5-10l-7.4-12.6c-5.6 3-11.5 6.3-17.2 9.4z"/><path class="st3" d="M444 187.2c-4.5.8-9 1.6-13.6 2.5l2 13.7c4.7-1.3 9.4-2.5 13.9-3.5l-2.3-12.7z"/><path class="st6" d="M510.3 205.6c-2.1-8-8-20.3-21.9-23.5-5.3-1.2-23.7 1.4-44.4 5l2.2 12.6c6.9-1.7 13.2-3 18.2-3.8-2 .6-9.1 4.2-18.2 9l7 12.2c12.6-7.3 23.6-12.4 28.3-11.5 6.9 1.1 9.6 6.9 9.6 6.9s21.4 1.1 19.2-6.9zM411.3 193.4l3.2 14.9c5.9-1.7 11.9-3.4 17.9-5l-2-13.7c-6.4 1.3-12.9 2.6-19.1 3.8z"/><path class="st3" d="m434.9 211 7.4 12.6c3.7-2.3 7.4-4.5 10.9-6.6l-7-12.2c-3.5 2-7.3 4.1-11.3 6.2z"/><path class="st1" d="M510.3 205.6c-2.1-8-8-20.3-21.9-23.5-13.9-3.2-117.8 19.7-117.8 19.7l4.8 18.1s62.4-19.7 89.1-24c-6.9 2.1-73.1 38.4-82.7 45.3l12.3 14.9s73.1-53.3 87.5-50.7c6.9 1.1 9.6 6.9 9.6 6.9s21.3 1.3 19.1-6.7z"/><path class="st1" d="M464.5 196c13.3-5.9 28.3-3.7 35.7 12.8"/><path class="st3" d="m482.6 214.1 5.3 8.3c2.8-1.3 7-3.1 12.2-4.9l-3.4-8.2-14.1 4.8zM518.2 212.4l-1-10-11.7 4 3 8.4c3.1-.9 6.4-1.7 9.7-2.4z"/><path d="m505.5 206.4-8.9 3 3.4 8.2c2.6-.9 5.4-1.9 8.5-2.7l-3-8.5z"/><path class="st6" d="m487.9 222.4 10.1 15.7 21.9-9.1-1.7-16.7c-13.4 2.9-24.7 7.6-30.3 10.1z"/><path class="st1" d="m498.1 238.1-15.5-24 34.7-11.7 2.6 26.7z"/><path class="st6" d="M531.4 243.2c-5.7.6-17.1 2.9-33.5 10.6l3.7 7.9c15.1-6.3 26.7-9.1 32.2-10.2-1-2.8-1.8-5.5-2.4-8.3z"/><path class="st3" d="M533.6 251.5c-5.4 1.1-17.1 3.8-32.2 10.2l4.2 9c10.3-4.6 23.6-8.2 30.8-10-.9-3-1.8-6.1-2.8-9.2zM490.6 238.1l7.3 15.6c4.6-2.1 8.8-3.9 12.6-5.3l-5.6-17.1c-10 3.8-14.3 6.8-14.3 6.8z"/><path d="M512.7 228.7c-2.9.9-5.5 1.8-7.9 2.7l5.6 17.1c3-1.1 5.8-2 8.3-2.7l-6-17.1z"/><path class="st3" d="M531.4 243.2c-1.8-6.8-3.3-13.3-3.9-18.4-5.6 1.2-10.5 2.6-14.7 3.9l6 17.1c5.5-1.5 9.7-2.3 12.6-2.6z"/><path class="st1" d="M546.1 288.8s-16-43.2-18.7-64c-26.1 5.9-36.8 13.3-36.8 13.3l30.4 65.6 25.1-14.9z"/><circle class="st2" cx="433.4" cy="259.6" r="10.7"/><circle class="st5" cx="433.4" cy="259.6" r="3.5"/><circle class="st2" cx="477.3" cy="256.8" r="10.7"/><circle class="st5" cx="477.3" cy="256.8" r="3.5"/><circle class="st2" cx="516.7" cy="274.9" r="10.7"/><circle class="st5" cx="516.7" cy="274.9" r="3.5"/><path class="st11" d="M208.1 440.1c-7.7 6.2-22.1 19.6-24 33.2-2.1 15 7.1 27.2 10.8 31.5 6.2-2.8 11.1-5.3 11.1-5.3l13.9-22.9 1.1-28.8-12.9-7.7z"/><path d="M184 473.3c1.9-13.6 16.4-27 24-33.2l-7-4.2s-11.7-8.5-19.7-2.7c-8 5.9-13.9 20.8-14.9 22.9-1.1 2.1-14.4 6.9-18.7 11.2s-3.7 7.5-1.6 10.7c2.1 3.2 10.1 4.3 10.1 4.3s-3.7 4.3-2.7 7.5 5.3 3.2 5.3 3.2-3.2 4.3.5 6.4c3.7 2.1 8 2.1 8 2.1s-4.3 9.1 3.2 10.7c4.3.9 15.5-3.5 24.1-7.5-3.5-4.1-12.8-16.4-10.6-31.4z" style="fill:#ffce00"/><path class="st1" d="M181.3 433.3c-8 5.9-13.9 20.8-14.9 22.9-1.1 2.1-14.4 6.9-18.7 11.2s-3.7 7.5-1.6 10.7c2.1 3.2 10.1 4.3 10.1 4.3s-3.7 4.3-2.7 7.5 5.3 3.2 5.3 3.2-3.2 4.3.5 6.4c3.7 2.1 8 2.1 8 2.1s-4.3 9.1 3.2 10.7c7.5 1.6 35.2-12.8 35.2-12.8l13.9-22.9 1.1-28.8-19.6-11.8s-11.8-8.6-19.8-2.7z"/><path class="st1" d="M160 473.3c4.3-1.6 6.4 4.3 4.3 7.5-2.1 3.2-8 1.6-8 1.6M158.9 493s5.9-2.7 9.6-.5M174.9 458.9c4.8 6.9 20.3 2.1 20.3 2.1"/><path class="st13" d="M198.9 402.9s-.5 20.8-1.6 22.4c-1.1 1.6-20.8 2.1-21.9 10.1 4.8 1.6 33.1 9.6 36.8 17.1 3.7 7.5 1.6 48.5 12.3 58.1 6.4 0 12.8-4.8 12.8-4.8s-6.4-19.7-6.9-30.4 0-19.2-2.1-27.7-9.1-17.6-10.7-21.3c-1.6-3.7.5-22.4.5-22.4l3.2-35.7s.5-8 2.7-9.6c2.1-1.6 28.3-9.6 31.5-18.1 3.2-8.5 3.7-9.1 2.7-14.4-1.1-5.3-4.8-6.9-6.9-6.4-2.1.5-3.2 13.3-10.1 18.1-6.9 4.8-24.5 4.3-32 9.6s-7.5 12.8-7.5 12.8l-2.8 42.6z"/><path class="st9" d="M210.7 483.9c-1.6-3.7-1.6-13.9 5.3-15.5 6.9-1.6 12.8 3.2 12.3 10.7s-4.3 7.5-6.9 11.7c-2.7 4.3-.5 14.4-4.3 17.6-3.7 3.2-11.7 2.1-13.9-3.2-2.1-5.3 2.7-12.3 4.8-13.9-2.7-2.6-2.1-8.4 2.7-7.4z"/><path class="st1" d="M208 491.4c2.1 1.6 5.9 2.1 8 .5M210.7 483.9c2.7 1.6 8 1.6 7.5-3.7"/><path class="st1" d="M209.6 501.5s3.7-5.3 2.1-8.5"/><path class="st9" d="M273.1 396.5s13.3-3.2 16.5-.5c3.2 2.7 3.2 8-1.6 10.1-4.8 2.1-16.5-3.2-16.5-3.2s-8.5 9.1-5.9 10.1 19.2-.5 21.9 2.1c2.7 2.7 1.6 10.1-4.3 10.7-5.9.5-12.8-3.7-12.8-3.7l-13.9-14.9 16.6-10.7z"/><path class="st8" d="M238.9 393.3s-9.1.5-12.3-8.5-3.2-18.7-7.5-21.9c-2.3-1.7-13-3-22.9-3.5l1 5.1-19.9-.5c.5 2.9 2.7 6.2 5.5 6.9 4.8 1.1 27.7 32 27.7 32s3.7 8 10.1 10.7c6.4 2.7 17.1 2.7 17.1 2.7l18.1-12.8-16.9-10.2z"/><path class="st2" d="M196.3 359.4c-8.4-.5-16.2-.4-17.7.3-1.3.6-1.6 2.4-1.3 4.3l19.9.5-.9-5.1z"/><path class="st8" d="M182.9 370.9c-9.6 2.7-12.3 29.3-4.3 34.1 5.5 3.3 16.7 5.1 24.4 5.2l-.9-39.4c-5.6-1.1-13.1-1.6-19.2.1z"/><path class="st2" d="M211.2 392.8c2.7-5.9-2.1-10.1-2.1-10.1s4.3-6.4.5-9.1c-1.4-1-4.1-2-7.4-2.7l.9 39.4c3.6.1 6.4-.3 7.6-.9 3.7-2.1 0-9.1 0-9.1s4.2-4.9.5-7.5z"/><path class="st1" d="m187.7 399.7 23 .5M187.7 390.6l23.5 2.2M188.8 380.5l20.3 2.1"/><path class="st7" d="m273.1 396.5-2.7 25.6-32.5-5.9s4.3-13.3 1.1-22.9c9.5.5 34.1 3.2 34.1 3.2z"/><path class="st9" d="M226.7 672.7c-.7-2.8-3.7-6.9-8.6-8.5-6.4-2.1-25.6-2.7-27.2-5.3-1.6-2.7 6.9-51.7 7.5-57.6.5-5.9-1.6-10.7-5.9-12.3-4.3-1.6-42.7-1.1-42.7-1.1l-20.3 1.6 9.6 14.9s28.3 0 44.3-1.1c-4.3 5.3-4.8 52.8-7.5 57.1-5.3 3.7-4.8 12.8-1.1 12.8s13.3.5 13.3.5.8 1.1 2.1 2.5c11.1-4.2 31.7-3.7 36.5-3.5z"/><path class="st2" d="M190.3 676.3c.5.5 1.1 1.2 1.7 1.8 2.1 2.1 8 1.1 8.5-1.1 1.1 3.7 9.1 2.7 10.7-.5 1.1 2.7 6.4 1.1 7.5-1.1 3.2 3.7 6.9 1.6 8-.5.3-.5.3-1.3.1-2.2-4.9-.2-25.5-.7-36.5 3.6z"/><path class="st1" d="M192.5 669c2.1 1.6 6.4 2.7 8 8M203.7 668.4c2.1 1.6 5.9 2.7 7.5 8M211.7 667.4c2.1 1.6 5.3 2.7 6.9 8M118.2 618.4c.8.3 1.2.5 1.2.5s-.4-.2-1.2-.5z"/><path class="st9" d="M241.1 566.6c-2.7-3.2-45.3-21.3-45.3-21.3s8-4.3 8.5-7.5-3.2-5.3-6.4-5.3c-1.1-9.1-6.9-6.9-6.9-6.9s-1.6-7.5-5.3-7.5c-3.7 0-5.3 4.8-9.6 6.9s-62.4 5.9-69.3 10.7c-6.9 4.8-8 16.5-.5 20.3 3.6 1.8 15.5 2.6 27.2 3.1-17.1 12.9-29.9 18.6-33.1 28.8-6 19.4 12.9 28.4 18 30.4.8.3 1.2.5 1.2.5s-.5-.2-1.2-.5c-4.6-1.7-20.5-7.6-23.3-8.1-3.2-.5-4.3.5-5.9 3.2-1.6 2.7 0 7.5-1.6 10.7-1.1 2.1-3 3.3-5.1 4.2.7 9.9-.4 23.8-1 30.2 2.2-.4 4.5-1.5 7.1-3.5 4.3-3.2 11.2-26.1 16-27.7 4.8-1.6 55.5 21.3 63.5 19.2 8-2.1 13.9-8.5 9.6-17.6s-37.3-26.7-37.3-26.7S166 583 176.7 567c9.1-8 30.9 2.1 30.9 2.1s16.5 5.3 17.6 6.9c1.1 1.6-28.3 38.4-29.3 42.7s-1.6 7.5 1.1 10.7c2.7 3.2 11.2 7.5 11.2 7.5 8 1.9 17.7 5 23.7 6.7 1-4 .1-11-.7-14.1-1.1-3.7-18.1-7.5-18.1-11.7s26.1-34.1 28.8-39.5c2.4-5.3 1.8-8.5-.8-11.7z"/><path class="st2" d="M210.7 641.3c0 4.3 5.9 3.2 5.9 3.2s2.1 2.7 7.5 2.1c2.7 1.6 4.8 2.1 6.9-1.1.3-.5.6-1.1.7-1.9-6-1.7-15.7-4.7-23.7-6.7 0 .1-1.1 4.4 2.7 4.4zM82.4 628.3c-1 .4-2.1.8-2.9 1.2-2.7 1.1-3.2 5.3-.5 7.5-1.6 2.1-4.3 4.3-2.1 8-1.1 2.7-3.2 5.3-.5 8-1.6 3.2-2.1 4.3 1.1 5.3 1.3.4 2.6.5 4.1.3.4-6.4 1.5-20.3.8-30.3z"/><path class="st1" d="M140.3 602.3c-6.4-4.3-12.3-4.8-12.3-4.8M196.8 629.5c2.7 3.2 8 8 11.2 7.5 3.2-.5 5.3-4.3 3.2-6.4-2.1-2.1-7.5-1.1-8-6.9M119.5 618.9l39.4 12.8"/><path class="st9" d="M106.7 535.7c-6.9 4.8-8 16.5-.5 20.3 7.5 3.7 51.2 3.2 54.4 4.8 3.2 1.6 3.2 5.3 6.4 6.4 3.2 1.1 16 1.1 16 1.1s0 4.3.5 5.9 4.3 1.6 4.3 1.6 3.2 2.1 5.9.5c2.1 2.7 5.9.5 5.9.5s6.9 1.6 8-1.6c1.1-3.2 1.6-11.7-.5-14.9-2.1-3.2-5.3-5.9-13.9-8s-68.8-3.2-75.7-6.9"/><path class="st2" d="M183.5 574.1c.5 1.6 4.3 1.6 4.3 1.6s3.2 2.1 5.9.5c2.1 2.7 5.9.5 5.9.5s6.9 1.6 8-1.6c.2-.6.4-1.5.6-2.5-8.1-1.9-25.1-4.4-25.1-4.4s-.2 4.3.4 5.9z"/><path class="st1" d="M187.7 575.7s4.3-6.4.5-15.5M193.6 576.2s4.8-5.9 1.1-14.9M199.5 576.7s5.3-4.8.5-15.5"/><path class="st2" d="M182.9 562.3c-1-.5-3.1-.6-5.4-1l-1.1 7.4c3 .3 5.8.2 6.5-.5 1.6-1.6 2.2-4.8 0-5.9z"/><path class="st1" d="M166.9 567.1c3.2 1.1 14.4 2.7 16 1.1 1.6-1.6 2.1-4.8 0-5.9-2.1-1.1-9.1-.5-13.3-3.2M201.9 634.5c.5-1.3 1.7-3.9 4.2-6.2-1.4-.7-2.6-2-2.8-4.6"/><path class="st2" d="M211.2 630.6c-1.2-1.2-3.4-1.4-5.2-2.3-2.4 2.2-3.6 4.9-4.2 6.2 2.1 1.7 4.4 2.8 6.1 2.6 3.3-.6 5.4-4.4 3.3-6.5z"/><path class="st1" d="M210.7 641.3c5.9-1.1 5.9-10.7 5.9-10.7M216.5 644.4c5.9-1.1 4.8-13.3 4.8-13.3M224 646.6c3.2-1.6 3.2-13.3 3.2-13.3M79 637l9-4.8M76.8 645l10.2-4.8M76.3 653l9.6-4.8M190.9 525.5l-5.3 4.3M197.9 532.5l-5.9 4.2"/><path class="st5" d="M362.4 386.2c-7.2.7-10.5 2.4-10.5 2.4s8 30.4 3.7 52.3c3.1 1.5 7.4 1.7 11.4 1.4-5-23.4-4.8-47-4.6-56.1z"/><path class="st5" d="M372.8 385.8c-4.1-.2-7.5 0-10.3.3-.3 9.2-.4 32.8 4.6 56 5.6-.5 10.5-1.9 10.5-1.9s-9.1-36.8-4.8-54.4z"/><circle class="st5" cx="363.7" cy="413.6" r="9.1"/><path class="st13" d="M521 303.7s-.4-2.2-1.6-5.6l-16.5 12.5 16.5-12.5c-.7-1.9-1.7-4.1-3-6.4l-14.6 11.9 14.6-11.9c-1.3-2.2-2.9-4.6-4.9-7l-11.8 13.7 11.8-13.7c-1.7-2-3.7-3.9-6-5.8l-11.1 17.9 11.1-17.9c-2-1.5-4.2-3-6.6-4.4l-8.7 18 8.7-18c-1.7-.9-3.5-1.8-5.5-2.6l-8.1 20 8.1-20c-2.5-1-5.1-1.8-7.9-2.4l-5 20.3 5-20.3c-1.9-.4-3.9-.8-6-1.1-.7-.1-1.5-.2-2.2-.3l-2.6 22.1 2.6-22.1c-3.1-.4-6.1-.6-9-.7l-.5 22.3.5-22.3c-2.7-.2-5.3-.2-7.8-.2l1 22.6-1-22.6c-2.9 0-5.7.1-8.2.3l2.8 21.8-2.8-21.8c-2.6.2-5 .4-7.2.7l3.6 21.5-3.6-21.5c-2.4.3-4.6.7-6.6 1.1l5.9 20.5-5.9-20.5c-2.9.6-5.5 1.2-7.7 1.9l8.9 18.7-8.9-18.7c-5.8 1.7-8.7 3.2-8.7 3.2l13.9 16 39.5 8 34.7 25.1 14.4-5.9-3.6-13.9z"/><path class="st8" d="M637.3 418.9c23.9-1 78.9-14.8 89.8-17.7l-3.4-13.3-23.5 1.6s-48.5 6.9-68.8 6.9c-20.3 0-57.1-5.9-57.1-5.9l-11.7-7.5-17.1 8 11.2 22.3c13.8 1.8 58.2 6.5 80.6 5.6z"/><path class="st2" d="M637.3 417.8c-1.9.1-3.9.1-6.1.1l1 7.3c2.2-.1 4.4-.3 6.7-.4.7-.1 1.5-.1 2.2-.2l-1.3-6.9c-.9.1-1.7.1-2.5.1zM590.8 416.4l-.3 9.1c9.2.5 20.5.6 34 .1l-.9-7.7c-10.1-.1-21.9-.8-32.8-1.5zM571.5 414.9l-.6 8.9c2.7.4 6 .7 9.8 1.1v-9.2c-3.2-.3-6.3-.5-9.2-.8z"/><path class="st2" d="m556.7 413.6 4.3 8.6s3.3.8 9.9 1.7l.6-8.9c-6.2-.6-11.4-1.1-14.8-1.4zM580.7 415.7v9.2c2.9.3 6.2.5 9.7.6l.3-9.1c-3.4-.2-6.8-.4-10-.7zM639.8 417.7l1.3 6.9c2.8-.2 5.4-.4 8.1-.7l-1.4-7c-2.9.4-5.6.7-8 .8zM623.5 417.9l.9 7.7c2.5-.1 5.1-.2 7.7-.4l-1-7.3c-2.3.1-4.9.1-7.6 0zM682.9 411.1l1.8 7.9c3.8-.7 7-1.4 9.8-2.1L693 409c-3.3.7-6.6 1.4-10.1 2.1z"/><path class="st2" d="m728.4 406.6-1.4-5.4c-4.9 1.2-18.4 4.5-34.1 7.7l1.5 7.8c7.7-1.9 11.5-3.3 11.5-3.3l22.5-6.8zM672 413.1l2.3 7.6c3.8-.6 7.3-1.2 10.4-1.8l-1.8-7.9c-3.6.8-7.3 1.5-10.9 2.1z"/><path class="st2" d="m663.3 414.7 2.1 7.4c3.2-.4 6.2-.9 9-1.3l-2.3-7.6c-3 .5-5.9 1-8.8 1.5zM647.7 417l1.4 7c2.8-.3 5.5-.5 8.1-.8l-1.4-7.3c-2.9.4-5.5.8-8.1 1.1z"/><path class="st2" d="m655.7 415.9 1.4 7.3c2.9-.3 5.6-.6 8.2-1l-2.1-7.4c-2.5.3-5 .7-7.5 1.1z"/><path class="st6" d="M599 436.6c-2 8.6-5.1 17.1-10.2 19.1-6 2.4-9.1-6.9-12.3-8-9.6 17.1 6.9 27.2 26.1 18.1 6.4-3 10.8-14.6 13.4-26-2.9-2.7-8-5.1-17-3.2z"/><path class="st3" d="M618.6 415.2c-1.6-3.7-13.3-4.3-15.5.5-1.1 2.5-2 11.8-4.2 20.8 9.1-1.9 14.2.5 17 3.3 2.7-11.5 3.5-22.7 2.7-24.6z"/><path class="st1" d="M603.1 415.7c-2.1 4.8-3.7 35.7-14.4 40-6 2.4-9.1-6.9-12.3-8-9.6 17.1 6.9 27.2 26.1 18.1 12.8-6 17.6-46.9 16-50.7-1.5-3.7-13.2-4.2-15.4.6z"/><path class="st9" d="M786.6 482.3c-.4-10.8-15.9-7.6-22-4.3 3.7 8.4 10.3 15.9 22.6 23.5 10.9-4.6 17.3-13.6 21-22-8.8-5.1-19.2-4.6-21.6 2.8z"/><path class="st5" d="M786.6 447.2c-2.8 11.1-20 9.4-25.2 2.8-.9 3.7-1.4 8.6-.4 15.4.7 4.5 1.8 8.7 3.6 12.7 6.2-3.3 21.6-6.5 22 4.3 2.5-7.5 12.8-7.9 21.5-2.8 2.2-5.1 3.5-10.1 4.1-13.7.7-4.5.8-9.4.6-13.8-7 4.8-25.4 5.9-26.2-4.9z"/><path class="st9" d="M825 431.7c-.5-5.3-2.7-8-9.1-9.6-14.4-2.1-16.5 10.7-16.5 10.7v-45.3l-11.7-8.5-12.8 8.5 1.6 46.4s-2.7-12.8-11.2-12.8c-9.6 0-14.9 2.1-15.5 8-.3 3.3-1.1 13.9 13.3 11.7.3 2.5-.9 5.2-1.8 9.2 5.2 6.6 22.4 8.3 25.2-2.8.9 10.8 19.2 9.7 26.2 4.9-.3-5-.9-9.1-1.1-10.8 10.2 3.2 13.9-4.3 13.4-9.6zM799.4 346.9s-2.1-10.7-4.8-25.1c3.7 3.2 11.7 3.7 14.4-2.1 2.7-5.9 2.1-10.1-1.6-13.9-3.7-3.7-13.3-4.3-20.8 0s-3.2 29.3 3.2 42.7c6.4 13.3 9.6-1.6 9.6-1.6z"/><path class="st1" d="M794.6 321.8c-3.2-3.2 0-11.7 7.5-8.5"/><path class="st9" d="M789.8 348.5s0-13.3-14.4-18.1c-14.4-4.8-30.9-3.2-36.3-5.3 3.2-.5 5.9-6.9 3.7-11.7-2.1-4.8-11.2-9.1-19.7-3.2-8.5 5.9-5.3 16.5 0 21.9 5.3 5.3 36.8 5.3 44.8 8.5s12.3 8 12.3 8h9.6z"/><path class="st1" d="M739.1 325c-4.3 1.1-10.7 0-9.1-5.3M761.5 431.7c6.4-.5 4.8 7.5 1.6 9.1M813.2 431.2c-5.3 1.6-4.8 8-1.6 10.1M788.2 433.8v-49"/><path class="st2" d="M796.2 349c1.5 1.5 8.3 1.7 11.7 1.7.2-1.8-.1-3.5-1.1-4.3-1-.8-5.9-.9-11.8-.6 0 1.1.2 2.4 1.2 3.2z"/><path class="st8" d="M796.2 349c-.9-.9-1.1-2.1-1.1-3.3-9.7.5-22 2-25 3.3-4.8 2.1-10.1 27.7-10.1 27.7l-10.7 11.7 14.4 10.1s11.2-.5 14.4-5.3c3.2-4.8 6.4-8.5 6.4-8.5s13.3-27.7 18.1-27.7c3 0 5-3.3 5.3-6.3-3.5 0-10.2-.1-11.7-1.7z"/><path class="st2" d="M779.1 358.1c-4.3 1.6-3.2 6.4-1.6 9.6-2.7-.5-3.7 4.8 0 8.5-3.7 1.1-3.2 6.9 0 9.1-2.7 2.7-2.1 5.9.5 8 .8.6 3.1.9 6.3.7l-.4-37.2c-2.1.5-3.8.9-4.8 1.3z"/><path class="st8" d="M805.8 355.4c-3.7-1.7-14.9-.2-21.8 1.4l.4 37.2c7.8-.4 20.2-3 25.1-7.6 6.9-6.4 1.1-28.8-3.7-31z"/><path class="st9" d="M716.2 386.4s-12.8-3.2-17.1.5c-4.3 3.7-1 11.2 4.8 11.2s17.6-5.3 17.6-5.3l1.1 8s-14.4 2.7-18.1 4.8-3.2 10.7 2.1 11.2c5.3.5 15.5-4.8 15.5-4.8l12.3-12.8-18.2-12.8z"/><path class="st7" d="m759.9 376.8 3.7 21.8L722 412l-5.8-25.6z"/><path class="st1" d="m798.3 363.4-20.8 4.3M800.4 373l-22.9 3.2M801.5 381l-24 4.3"/><path class="st8" d="M482.6 539.9c1.6-2.7 12.3-4.3 15.5 0 1.1-5.9 12.3-4.8 14.9 0 1.6-5.2 9.7-5 13.4-2.8-1.5-20.6-3.5-48.6-2.2-67 3.7-20.3 6.4-30.9 6.4-30.9l-18.7-20.3-35.2 16s-6.7 65.7-9.4 103.6c3.5-2.5 11.2-3.1 15.3 1.4z"/><path class="st5" d="M527.5 551.6c-.3-4.1-.6-9.1-1-14.5-3.8-2.2-11.9-2.3-13.4 2.8-2.7-4.8-13.9-5.9-14.9 0-3.2-4.3-13.9-2.7-15.5 0-4.1-4.5-11.7-3.9-15.3-1.5-.3 4.2-.5 8.1-.7 11.5 18.8 2.9 40.4 3.8 60.8 1.7z"/><path class="st2" d="M466.6 550c-.5 8.3-.5 13.8 0 14.5 2.7 3.7 10.1 4.3 13.9 1.1 3.2 3.7 13.9 4.8 17.1 0 2.1 3.7 11.7 3.7 15.5-.5 4.3 3.2 12.3 1.6 14.4-1.1.5-.7.5-5.3.1-12.3-20.5 2-42.1 1.1-61-1.7z"/><path class="st1" d="m480.5 565.5 4.8-62.9M497.5 565.5l1.6-64M513 565l-.5-60.8"/><circle class="st5" cx="482.1" cy="497.4" r="15.2"/><circle class="st2" cx="482.1" cy="497.4" r="7.5"/><circle class="st5" cx="514.1" cy="498" r="15.2"/><circle class="st2" cx="514.1" cy="498" r="7.5"/><circle class="st9" cx="436.5" cy="398.4" r="8.8"/><circle class="st9" cx="443.7" cy="431.2" r="8.8"/><circle class="st9" cx="473" cy="447.7" r="8.8"/><circle class="st9" cx="511.4" cy="446.1" r="8.8"/><path class="st7" d="M445.3 379.4s-5.3 34.1 9.6 49.1 54.4 13.9 67.7 2.1c13.3-11.7 9.1-21.9 9.1-21.9l-20.3-46.9-66.1 17.6z"/><path class="st3" d="m562.3 416.6-43.2 3 .8 10.7 44.6-4.3c-.8-3.2-1.5-6.4-2.2-9.4z"/><path class="st6" d="m556.2 385.3-38.4-20.8-1.6 16 2.9 39.1 43.2-3c-3.7-17.1-6.1-31.3-6.1-31.3zM564.5 426l-44.6 4.3L521 445l46.8-5.3c-1.1-4.6-2.3-9.2-3.3-13.7z"/><path class="st3" d="m567.9 439.5-46.8 5.3 2.1 27.9s28.3 3.2 53.9-6.4c-3.3-6.4-6.4-16.2-9.2-26.8z"/><path class="st1" d="M556.2 385.3s10.1 59.2 20.8 81.1c-25.6 9.6-53.9 6.4-53.9 6.4l-6.9-92.2 1.6-16 38.4 20.7z"/><path class="st6" d="M483.7 358.6c1.1-17.6-11.7-23.5-11.7-23.5l-27.7-4.8s-8.5-5.3-15.5-6.9c-4.9-1.1-17.7 2.2-24.8 4.3.6 3 1.3 5.3 1.3 5.3l24.5 14.4 13.9 8.5-1.1 9.6s-34.1 8.5-38.4 8.5c-4.3 0-2.1 8.5 0 9.1s60.8-2.7 67.7-4.3c0 .1 10.7-5.8 11.8-20.2z"/><path class="st11" d="m524.7 330.9-16-11.7s-4.8-21.9-14.9-28.3c-10.1-6.4-53.3-5.3-58.1-.5-4.8 4.8-5.3 19.2-9.1 21.3-3.7 2.1-16-1.1-21.3 1.6-3.4 1.7-2.5 9.2-1.3 14.5 7.1-2.1 19.9-5.4 24.8-4.3 6.9 1.6 15.5 6.9 15.5 6.9l27.7 4.8s12.8 5.9 11.7 23.5C482.6 373.1 472 379 472 379c5.3 2.1 11.2 3.2 25.6 2.7 14.4-.5 28.8-25.1 28.8-25.1l-1.7-25.7z"/><path class="st2" d="M587.1 320.8c16.5-6.9 32.5-2.1 35.2-2.1-2.1-3.7.5-8.5 8-8s11.2 13.3 1.1 19.2c-10.1 5.9-8 16-2.7 18.1 5.3 2.1 10.1 11.2 6.9 16-6.7 8.8-18.7 1.1-14.4-5.9-6.4 1.6-28 4.3-32.5-3.7s-18.1-26.7-1.6-33.6z"/><path class="st1" d="M622.3 318.6c1.6 2.7 6.9 2.7 8-1.1M629.8 361.3c.5-7.5-6.4-5.9-8.5-3.2"/><path class="st2" d="M585.5 333s6.4-9.1 25.6-8 27.7 9.1 30.9 14.4c-4.8 5.9-17.6 10.7-32 10.7-14.4 0-24-5.3-24-5.3l-.5-11.8z"/><path class="st2" d="M579.7 298.4c2.1-4.8 11.7-4.8 12.8.5s-3.7 38.9-3.7 38.9-.5 40-1.6 42.7c-1.1 2.7-10.1 2.7-12.8-.5-2.7-3.2-3.7-31.5-3.7-31.5s6.8-45.3 9-50.1z"/><circle class="st2" cx="584.2" cy="338.6" r="7.7"/><path class="st2" d="M541.3 360.8c-14.4-6.9-11.2-41.1-.5-46.9 8.7-4.8 31.5-3.9 39.4-3.4l.9-11.9c-10.5-.9-38.1-2.3-47.1 6.2-11.2 10.7-10.7 56.5 1.1 65.1 9.1 6.6 30.9 8.1 40.4 8.4l.9-12c-7.9.1-24.4-.3-35.1-5.5z"/><path class="st5" d="M540.7 313.8c-10.7 5.9-13.9 40 .5 46.9 10.8 5.2 27.2 5.6 34.8 5.5l.7-9.9c-6.7-.3-21.3-1.4-27-4.6-7.5-4.3-11.7-24 .5-28.8 9.4-3.7 23.6-1.7 28.9-.9l.9-11.6c-7.9-.4-30.5-1.4-39.3 3.4z"/><path class="st2" d="M550.3 322.9c-12.3 4.8-8 24.5-.5 28.8 5.7 3.3 20.3 4.3 27 4.6l2.5-34.3c-5.3-.8-19.5-2.8-29 .9z"/><path class="st3" d="M513 313.3c-3.2 14.4 3.2 46.9 3.2 46.9s-5.5 13.2 13.4 22.2l4.7-13.1c-10.6-9-11.5-49.6-2.1-62.8l-8.1-11.4c-7 5.5-9.8 12.1-11.1 18.2zM574.3 390.6l.9-12.4c-2.6-.1-6-.3-9.9-.6l-1.8 12.4c3.4.3 6.9.5 10.8.6zM554.4 389.1l1-12.6c-5-.7-9.9-1.9-14.1-3.4l-3.9 12.4c4.6 1.5 10.2 2.7 17 3.6z"/><path d="m563.5 390 1.8-12.4c-3.1-.3-6.5-.6-9.9-1.2l-1 12.6c2.8.5 5.9.8 9.1 1zM537.4 385.5l3.9-12.4c-2.5-.9-4.7-2-6.5-3.3-.2-.1-.4-.3-.5-.4l-4.7 13.1c2.2 1.1 4.8 2.1 7.8 3z"/><path class="st3" d="m580.9 298.5.9-11.9c-6.6-.6-12.5-.9-17.9-.8l.5 12c6.6 0 12.7.4 16.5.7z"/><path d="m555.5 286.1 1.1 12c2.7-.2 5.3-.3 7.9-.3l-.5-12c-3.1 0-5.9.2-8.5.3zM524 295.3l8.1 11.4c.5-.7 1.1-1.3 1.6-1.9 1.4-1.3 3.1-2.3 5.3-3.3l-4.7-11.6c-4.2 1.6-7.5 3.4-10.3 5.4z"/><path class="st3" d="m534.3 290 4.7 11.6c4.7-2 11-3 17.4-3.4l-1-12.1c-8.6.5-15.6 1.9-21.1 3.9z"/><path class="st1" d="M533.8 304.8c9-8.6 36.7-7.1 47.1-6.2l.9-11.9c-54.9-4.8-65.6 12.3-68.8 26.7-3.2 14.4 3.2 46.9 3.2 46.9s-11.7 28.3 58.1 30.4l.9-12.4c-9.4-.3-31.2-1.8-40.4-8.4-11.7-8.6-12.2-54.5-1-65.1z"/><path class="st1" d="M405.3 313.3c5.3-2.7 17.6.5 21.3-1.6 3.7-2.1 4.3-16.5 9.1-21.3 4.8-4.8 48-5.9 58.1.5 10.1 6.4 14.9 28.3 14.9 28.3l16 11.7 1.6 25.6s-14.4 24.5-28.8 25.1c-14.4.5-20.3-.5-25.6-2.7-6.9 1.6-65.6 4.8-67.7 4.3s-4.3-9.1 0-9.1 38.4-8.5 38.4-8.5l1.1-9.6-13.9-8.5-24.5-14.5s-5.3-17 0-19.7z"/><path class="st2" d="M529.5 344.2s7.5-4.3 11.2-3.2c3.7 1.1 4.8 6.9 2.7 10.7-2.1 3.7-11.7 4.3-11.7 4.3l-2.2-11.8z"/><path class="st8" d="M517.3 330.9s-.5 6.9-4.8 8-8.5-1.6-8.5-6.9c0-5.3 1.6-16 9.1-18.7 7.5-2.7 18.7.5 20.3 8s-3.2 11.7-2.1 18.1 5.9 12.3 3.2 17.6c-2.7 5.3-9.6 10.1-16.5 7.5-6.9-2.7-11.2-12.8-11.2-12.8"/><path class="st5" d="M496.5 378.4s-4.3 18.7-4.3 21.9c0 3.2 4.3 3.7 6.9 2.1 1.6 2.7 7.5 3.7 9.6 1.1 2.1 1.6 6.4 1.6 8-.5 1.6-2.1-.5-22.4-.5-22.4l-4.8-7.5-14.9 5.3z"/><path class="st1" d="m500.2 389.6-1.1 12.8M508.7 390.6v12.8"/><path class="st2" d="m496.5 378.4 19.7 2.1s1.2-4.7 2.4-10.4l-19.6-1.5c-1.6 5.4-2.5 9.8-2.5 9.8zM519.9 351.2c-2.7-4.8-9.1-5.9-13.3-2.1-1.8 1.6-3.9 7.1-5.7 12.9l18.9 1.7c.8-5.5 1.2-10.6.1-12.5z"/><path class="st5" d="M500.9 361.9c-.7 2.2-1.4 4.5-2 6.7l19.6 1.5c.4-2.1.9-4.3 1.2-6.5l-18.8-1.7z"/><ellipse class="st9" cx="461.3" cy="319.4" rx="21.9" ry="17.9"/><path class="st6" d="M457 312.2c-7.1 0-12.8 5.7-12.8 12.8 0 7 5.7 12.7 12.6 12.8l5.9-24.3c-1.7-.8-3.7-1.3-5.7-1.3z"/><path class="st3" d="m462.7 313.6-5.9 24.3h.2c7.1 0 12.8-5.7 12.8-12.8 0-5.1-2.9-9.4-7.1-11.5z"/><circle class="st1" cx="457" cy="325" r="12.8"/><circle class="st5" cx="457" cy="325" r="3.7"/><path class="st1" d="m474.1 340.5 8.5-2.1M472.5 372.5l6.4 3.7M474.6 366.6l9.1 3.2M476.2 361.3l9.1 1.1M476.7 355.4l8.6-.5M476.7 350.1l8-1.6M475.7 345.3l7.4-1.6"/><path class="st5" d="M396.2 337.8s-1.6-1.1-4.3-3.2c-2.7-2.1-2.7-6.4 1.6-10.7-3.2-4.3.5-11.7 2.1-17.1s-8-9.6-12.3-8c1.1-8 14.9-9.1 21.9-3.2 6.9 5.9 1.6 10.1 5.3 14.9 3.7 4.8 10.1 10.7 1.1 21.3-6.3 5-15.4 6-15.4 6z"/><path class="st1" d="M393.6 324c5.9 3.2 14.4 2.1 12.3-5.9"/><path class="st5" d="m393 359.2-21.3 9.1s6.4 6.9 15.5 5.3c9.1-1.6 12.8-7.5 15.5-6.9s24-.5 24-.5l16.5-4.8-3.2-10.7-24-12.3-18.1 1.6-3.7 11.7-1.2 7.5z"/><path class="st6" d="M390.9 349.4c-.3 2.7 0 6.3 2.1 9.9 3.7-1.6 5.3-7.5 5.3-7.5s-1.1 7.5 7.5 4.8c1.4-4.6 2.1-8 3.8-10.7-5.5-2-14.3 1.4-18.7 3.5z"/><path class="st3" d="M392 344.8s-.8 1.9-1.1 4.5c4.4-2 13.2-5.4 18.8-3.5.9-1.4 2-2.6 3.6-3.7-12.3-4.3-19.2 3.2-21.3 2.7z"/><path class="st1" d="M413.3 342.1c-12.3-4.3-19.2 3.2-21.3 2.7 0 0-3.2 7.5 1.1 14.4 3.7-1.6 5.3-7.5 5.3-7.5s3.7 6.4 7.5 4.8c2.1-6.9 2.6-11.2 7.4-14.4z"/><path class="st1" d="M398.4 351.7c-1.1-5.9 2.1-12.8 2.1-12.8"/><path class="st9" d="M392 334.6c-5.3 5.3-2.1 9.6 0 10.1s9.1-6.9 21.3-2.7c12.3 4.3 7.5 10.7 25.6 16.5 1.6 4.3-33.6 5.3-36.3 8-2.7 2.7-.5 6.9 1.6 8s46.4-2.1 48.5-5.9c2.1-3.7 2.7-14.9-1.6-17.6-4.3-2.7-14.9-3.2-29.3-16-4.2-4.1-24.5-5.7-29.8-.4z"/><path class="st3" d="M421.3 347c-1.8-1.8-3.9-3.4-8-4.8-2.5-.9-4.7-1.2-6.7-1.3-.9 1.7-1.6 3.7-2 6 2.9.1 8.2.7 13.7 4.3.8-1.6 1.9-3 3-4.2z"/><path class="st6" d="M418.3 351.1c-5.5-3.6-10.7-4.3-13.7-4.3-.3 2-.3 4.2.1 6.5 1.3 6.3 4.4 9.7 8.4 11.1 2.6-.3 5.3-.6 8.1-1-1.9-2.2-5.1-4.7-4.2-9 .2-1.1.7-2.2 1.3-3.3z"/><path class="st1" d="M417 354.4c.5-2.6 2.5-5.3 4.3-7.5-1.8-1.8-3.9-3.4-8-4.8-2.5-.9-4.7-1.2-6.7-1.3-1.6 3.1-2.8 7.5-1.8 12.5 1.3 6.3 4.4 9.7 8.4 11.1 2.6-.3 5.3-.6 8.1-1-1.9-2.2-5.1-4.8-4.3-9z"/><path class="st6" d="M446.6 484.4c-5.6 0-10.1 4.5-10.1 10.1s4.5 10.1 10.1 10.1c.3 0 .5 0 .8-.1v-20.2c-.2.1-.5.1-.8.1z"/><path class="st3" d="M456.8 494.5c0-5.3-4.1-9.7-9.3-10.1v20.2c5.1-.4 9.3-4.8 9.3-10.1z"/><circle class="st5" cx="446.6" cy="494.5" r="4"/><circle class="st1" cx="446.6" cy="494.5" r="10.1"/><path class="st6" d="M551.1 486c5.6 0 10.1 4.5 10.1 10.1s-4.5 10.1-10.1 10.1c-.3 0-.5 0-.8-.1V486h.8z"/><path class="st3" d="M541 496.1c0-5.3 4.1-9.7 9.3-10.1v20.2c-5.2-.4-9.3-4.8-9.3-10.1z"/><circle class="st5" cx="551.1" cy="496.1" r="4"/><circle class="st1" cx="551.1" cy="496.1" r="10.1"/></svg>