<svg version="1.1" id="Calque_1" xmlns="http://www.w3.org/2000/svg" x="0" y="0" viewBox="0 0 900 900" style="enable-background:new 0 0 900 900" xml:space="preserve"><style>.st0,.st1,.st2{fill:#fff;stroke:#000;stroke-width:5.5009;stroke-linecap:round;stroke-linejoin:round;stroke-miterlimit:10}.st1,.st2{fill:red}.st2{fill:none}.st3{fill:#fff}.st4{fill:red}.st11,.st5,.st6,.st7,.st8,.st9{fill:#ffce00;stroke:#000;stroke-width:5.5009;stroke-linecap:round;stroke-linejoin:round;stroke-miterlimit:10}.st11,.st6,.st7,.st8,.st9{fill:#422601}.st11,.st7,.st8,.st9{fill:#f37e0a}.st11,.st8,.st9{fill:#46a85b}.st11,.st9{fill:#fff;stroke-width:4.584}.st11{fill:#f33;stroke-width:5.5009}</style><path class="st0" d="m471.2 582.5 9.6 61.5 62.7-16.1 11.6-40.7-22.4-28.3z"/><path class="st1" d="M123.4 240.4s-3.6-43.3-1.1-47c2.5-3.9 17.3-4.8 19.1 7.4 1.8 12.2 0 45.9 0 45.9l-18-6.3z"/><path class="st0" d="M153.7 251.1c3 .1 5.2-2.8 6.9-5.8-.4-2.8-.8-5.4-1.2-7.3-1.8-9.6-8.4-14-11.7-10.7-2.2 2.2-2.5 8.9-2.5 13.2 1.7 4.7 4.7 10.4 8.5 10.6z"/><path class="st1" d="M153.7 251.1c-3.7-.1-6.7-6.1-8.5-10.6 0 2.1.1 3.6.1 3.6s-14.7-6.2-28.5-7.2-16.9 10.6-16.5 27.1 15.3 31.9 25.4 36.3c10.3 4.4 22-1 22-1s11.4-10.2 13.9-20.2c1.9-8 .4-23-1.1-33.7-1.6 2.9-3.8 5.8-6.8 5.7z"/><path class="st1" d="M117.6 342.5c-2.8-3.3-12.8-27.6-4.4-37.3 8.4-9.6 39.1-8.9 46.1-.4s4.8 38.1 4.8 38.1h-48.7"/><path class="st2" d="M100.3 264c-.4-16.5 2.8-27.9 16.5-27.1 13.8 1 26.1 4.3 28.5 7.2 2.3 2.9 2.1 8.9-1.9 8.9 4.3 2.9 4 10-1.4 9.6 5.6 1.1 4.7 10.5 0 10 4.8 2.1 2.6 8.4-1.8 8.8-4.3.4-23.8-4.7-23.8-4.7"/><path class="st2" d="M113.2 246.5s24.1 2.5 30 6.5M141.8 262.6c-13.6-4-28.6-3.4-28.6-3.4M141.8 272.7c-5.8-4.4-28.6-4.4-28.6-4.4"/><path class="st1" d="M123.8 400.2s-15.7-47.2-8.9-60.9c6.7-13.8 46.1-12 53.4 1.2 7.2 13.2-5.5 57.1-5.5 57.1l-39 2.6z"/><path class="st0" d="M138.3 405s-7.3-43.3-5.1-48.1c2.3-4.8 12-7.4 15.4.7 3.4 8.1 0 46.6 0 46.6l-10.3.8z"/><path class="st1" d="M119 443.8s-19.3-36.7-15.5-43.6c3.7-6.9 83.5-10.6 88-4.5 4.5 5.9-18.8 54-18.8 54l-53.7-5.9z"/><path class="st0" d="M141 454.5s-10.5-32.3-7.7-36.4c2.8-4.1 28.7-4.4 29.4 0 .8 4.4-9.4 36.4-9.4 36.4H141z"/><path class="st3" d="M131.4 530.3S108 582.6 75 629.2c17.5 2.1 32-10.5 32-10.5s-4.5 23.2 14.4 30c7.6-39.9 28.6-66 28.6-66s-.8 90.8-1.1 93.5c-.3 2.8-27.5 48.5-62.2 92.1 15.5 5.6 27.5-3.2 27.5-3.2s-8.7 17.9 7.2 28.9c19.7-38.1 37.8-59.3 37.8-59.3V547l-27.8-16.7zM76 429.9s41.4 10.3 72.7 12.8 71-6.3 71-6.3c-8.5 22.4-17.9 24.2-17.9 24.2s17.7 5.2 9.9 30.1c0 0-32.9-15.3-63-19.3s-71.8 2.9-71.8 2.9c-4.1-13.9 10-23.1 10-23.1S75 443.1 76 429.9z"/><path class="st4" d="M201.7 460.4s2.5-.4 6.1-4l-120.3-11h-.3l-6.3-.3c2.9 3.7 6.1 5.8 6.1 5.8s-2.9 1.9-5.8 5.2l5.4.3 124.2 11.3c-3.6-5.7-9.1-7.3-9.1-7.3zM107 629.3l64-116.1c1.5-2.6.6-6.1-2.2-7.4-2.6-1.5-6.1-.6-7.4 2.2L96.7 625.1c6.3-3 10.3-6.5 10.3-6.5s-.8 4.8 0 10.7zM170.4 680.4c-2.5-1.7-5.9-1-7.7 1.5L104 769.3c6.3-1.4 10.3-4.4 10.3-4.4s-2.6 5.5-2.3 12.1l59.8-89c1.8-2.5 1.1-5.8-1.4-7.6z"/><path class="st2" d="M76 429.9s41.4 10.3 72.7 12.8 71-6.3 71-6.3c-8.5 22.4-17.9 24.2-17.9 24.2s17.7 5.2 9.9 30.1c0 0-32.9-15.3-63-19.3s-71.8 2.9-71.8 2.9c-4.1-13.9 10-23.1 10-23.1S75 443.1 76 429.9zM131.4 530.3S108 582.6 75 629.2c17.5 2.1 32-10.5 32-10.5s-4.5 23.2 14.4 30c7.6-39.9 28.6-66 28.6-66s-.8 90.8-1.1 93.5c-.3 2.8-27.5 48.5-62.2 92.1 15.5 5.6 27.5-3.2 27.5-3.2s-8.7 17.9 7.2 28.9c19.7-38.1 37.8-59.3 37.8-59.3V547l-27.8-16.7z"/><path class="st5" d="M380.8 473.6s-24.6 16.1-61.3 21.5c-36.7 5.4-74.1-2.3-77.8-1-3.9 1.4-2.8 10.6-.6 14.7 2.2 4.3 22 8.4 22 8.4s-26.1-4.8-40.3 25.7c-14.2 30.5-15.5 54.3-15.5 59.4 0 5.1 13.8 6.9 15.4-.4 1.1 5 10.7 7.3 13.1.4 1.4 7.8 12.4 8.7 14.7 1.4 5.5 5 11.3 6.1 13.8 1.4 1.2-2.3 16-19.5 22.8-35.1s7.6-30.5 12.1-31.4c9.1-1.5 43.5-9.4 67.9-5 24.5 4.4 35.9 34.2 35.9 34.2l28.7-41-50.9-53.2z"/><path class="st2" d="M222.4 601.8c-2.8-17.9 9.9-42.9 9.9-42.9M235.5 602.3c-3.2-7.3 8.8-41.9 8.8-41.9M250.2 603.7c-5.5-9.2 8.3-39.6 8.3-39.6M313.5 694.9s-2.8-6.1 4.5-19.7 39.5-27.2 36.2-38.9c-3.2-11.7-27.9-26.1-27.9-26.1"/><path class="st0" d="m357.6 538.8-18 .7c0 3.3.3 7.2.6 11.3h16.9c.1-4.3.4-8.6.5-12z"/><path class="st6" d="M357.2 530.3c-1.9-5-14.4-4.1-16.9 1.4-.6 1.2-.7 4.1-.7 7.8l18-.7c.1-4.1 0-7.3-.4-8.5zM356.9 550.7H340c.3 3.9.6 7.7 1 11.4l15 .3c.4-3.7.6-7.8.9-11.7zM394.1 549.1c-1-6.5-12.2-18.8-18.3-14-1.2 1-2.3 3.4-3.2 6.9l20.5 14.6c.8-3.5 1.2-6.1 1-7.5z"/><path class="st0" d="m369.6 577.8-15.1.4s.8-7.2 1.5-15.8l-15-.3c.8 8.8 1.7 16.2 1.7 16.2v8.8l10.5 3.7 30.1-1s1.8-5.1 3.9-11.8l-17.2-9.5c-.4 5.5-.4 9.3-.4 9.3zM393.2 556.4l-20.5-14.6c-1 3.9-1.5 8.7-2.1 13.6l19.9 10.9c1.2-3.6 2-7 2.7-9.9z"/><path class="st6" d="M370.7 555.4c-.4 4.7-.7 9.4-.8 13.2l17.2 9.5c1.2-3.7 2.5-7.8 3.6-12l-20-10.7z"/><path class="st7" d="M326.3 578.3s-5.8-47.2-1.4-51.4c4.4-4.4 13.5-5.4 15 1.4 1.5 6.7 2.8 50.1 2.8 50.1h11.8s1.2-46.6 3.3-50.1 13.5-3.6 14.9.3c1.4 3.9-3.7 57.5-3.7 57.5l-42.7-7.8z"/><path class="st6" d="M369.8 618.5c-6.6-17.2-25.9-25.3-37.5-28.7-2.3 17.2-7.3 42.4-17.1 55.4-15.5 20.9-19.7 21.3-19.7 21.3l11.8 32.7 14.7-4.4s30.7-14 56.7-31.8l-5.4-8c0 .3 6.2-11.3-3.5-36.5z"/><path class="st8" d="M414.5 619.9c-28.2-53.8-80.3-47.9-80.3-47.9s-.4 7.4-1.9 17.7c11.7 3.4 30.9 11.6 37.5 28.7 9.6 25.3 3.6 36.7 3.6 36.7l5.4 8c20.6-13.9 38.5-30.1 35.7-43.2z"/><path class="st0" d="m295.6 575.1-21.5 1.2c.4 3.2 1.1 6.9 1.9 10.6l20.6-.8c-.3-3.9-.6-7.7-1-11z"/><path class="st6" d="M314.3 588.3c-.1 4.5-.1 9.2-.1 13.8l19.3 3.3c.8-4.3 1.5-8.8 2.2-13.1l-21.4-4zM294.5 565.5c-.7-5.4-17.7-7.6-20.5.7-.7 1.8-.4 5.6.1 10.3l21.5-1.2c-.6-5-1-8.6-1.1-9.8zM296.7 586.2l-20.6.8c.8 3.7 1.7 7.6 2.5 11.3H298c-.4-4.1-.9-8.2-1.3-12.1z"/><path class="st0" d="m337.4 580.3-22-4.1c-.6 3.4-.8 7.6-1 12.1l21.5 3.9c.5-4.6 1.2-8.7 1.5-11.9zM314.8 619.9h-14.6s-1.1-10.2-2.2-21.7h-19.4c2.8 11.6 5.6 21.7 5.6 21.7l18.6 6.2 27.5-4.4s1.5-7.4 3-16.5l-19.3-3.3c.3 9.8.8 18 .8 18z"/><path class="st6" d="M337.7 576.2c0-8.3-13.8-12.1-19.7-7.3-1.2 1-2.1 3.7-2.6 7.4l22 4.1c.3-1.9.3-3.2.3-4.2z"/><path class="st8" d="M329.4 630.6c-2.3 6.5-7 11.8-7 11.8l-.3.6c2.5 1.8 4.5 4 6.3 6.3 3.2-3.4 5.9-7.3 8.3-11.1-2.2-2.6-4.7-5.2-7.3-7.6z"/><path class="st8" d="M336.7 638.3c3.3-5.5 5.8-10.9 7.6-15.3-4.1-3.7-8.8-7-12.4-9.4-1 4.8-1.5 8.1-1.5 8.1.6 2.9 0 6.1-1 8.9 2.6 2.4 5.1 5 7.3 7.7zM328.5 649.5c2.2 3 4 6.5 5.1 10.5 4-3 8-6.1 11.6-8.9-2.1-3.7-4.8-8.3-8.3-12.7-2.5 3.8-5.3 7.6-8.4 11.1z"/><path class="st8" d="M354.2 636.1c-1.2-4.3-5.2-8.9-9.9-13.1-1.8 4.3-4.3 9.8-7.6 15.3 3.4 4.4 6.3 8.9 8.3 12.7 6.1-5.2 10.5-10.2 9.2-14.9z"/><path class="st7" d="M267.1 616.1s-14.7-42.9-13.3-48.5c1.4-5.6 10-8.1 15.5-3.4 5.5 4.8 15.5 52 15.5 52l15.8 1.4s-8.1-54.7-5.4-60c2.8-5.4 13.3-3 16.1 2.9 2.8 5.8 3.2 59.7 3.2 59.7l-47.4-4.1z"/><path class="st8" d="M273.6 637.2s-6.9-16.6-6.5-21.2 61.5-3.9 63.3 5.8c1.8 9.6-8 20.8-8 20.8l-48.8-5.4z"/><path class="st0" d="M246.1 656.4c-1.4 2.5-2.3 4.8-3 7l16.5 4.5c.7-2.2 1.5-4.3 2.6-6.2l-12.4-11.3c-1.4 1.8-2.6 3.8-3.7 6z"/><path class="st0" d="m249.7 650.5 12.4 11.3c1.4-2.3 3.2-4.4 5.1-6.3l-8.7-14.4c-3.1 2.2-6.1 5.4-8.8 9.4zM243.3 687.3l15.8-6.1c-.4-1.9-.7-4-.7-6.1V674l-17.5 1.8c.2 4.5 1.2 8.5 2.4 11.5zM248.1 696l21.9 1.2c-5.4-3.7-9.4-9.4-10.9-15.8l-15.8 6.1c2.1 5.3 4.8 8.5 4.8 8.5z"/><path class="st0" d="m241 675.9 17.5-1.8c.1-2.2.4-4.3 1-6.2l-16.5-4.5c-1.6 4.5-2 8.6-2 12.5zM258.6 641l8.7 14.4c2.2-1.9 4.7-3.6 7.4-4.8l-4.3-15.7c-4.2 1.2-8.1 3.2-11.8 6.1z"/><path class="st0" d="m270.3 635 4.3 15.7c3-1.2 6.3-1.9 9.6-2.1l.4-15.4c-4.8-.1-9.6.5-14.3 1.8zM294.6 633.9c-3.3-.4-6.6-.7-9.9-.7l-.4 15.4h.7c3.2 0 6.2.6 9.1 1.7l2.9-16c-.9-.2-1.6-.4-2.4-.4zM321.4 642.6 307 660.4c1.8 2.8 3.2 5.8 3.9 9.2l19.8-16.2c-2.2-4.5-5.3-7.9-9.3-10.8z"/><path class="st0" d="M333.5 660.1c-.7-2.5-1.7-4.8-2.8-6.9L311 669.4c.4 1.8.6 3.7.6 5.6 0 10.2-5.8 19.1-14.2 23.5l14.2.8c-.1.1 26.6-22.7 21.9-39.2zM297 634.2l-2.9 16c2.5.8 4.7 2.1 6.7 3.6l9.1-16.8c-3.9-1.3-8.3-2.2-12.9-2.8zM309.9 637.1l-9.1 16.8c2.5 1.8 4.5 4 6.3 6.5l14.4-17.6c-3.4-2.5-7.2-4.3-11.6-5.7z"/><path class="st8" d="M263 682.9c-1.8 5.4-24.3 15.5-21 24.8 3.2 9.2 12.4 0 12.4 0s-8.3 14.7-2.5 27.9c5.8 13.3 28.2 8.7 28.2 8.7s-4-10.6 0-16.5c.4 7.6 2.8 13.8 7.8 13.8 2.3 0 5.1-7.2 13.1-16.9 9.5-11.7 23.8-26.5 21.3-29.8-4.5-6.1-15.5-8.7-15.5-8.7s-42-8.7-43.8-3.3z"/><path class="st2" d="M298.6 707.7s-14.6 12.7-18.7 20.2"/><path class="st8" d="m285.8 677.8.4 1.7 18.2 13.8c4.4-4.7 7-11 7-18v-.7l-24.6 2.1-1 1.1zM311.5 674.4c-.1-7.3-3.3-13.9-8.3-18.6l-16.4 20.6 24.7-2z"/><path class="st8" d="m286.9 676.4-1.4.2.3 1.2z"/><path class="st8" d="m285.5 676.6-2.7.3 2.5 1.7.5-.8z"/><path class="st8" d="m285.3 678.6 1.1.9-.6-1.7zM285.5 676.6l-7-27.2c-6.9 1.7-12.7 6.1-16.2 12l20.5 15.5 2.7-.3z"/><path class="st8" d="m285.3 678.6-14.9 18.7c4.3 2.8 9.2 4.4 14.7 4.4 2.3 0 4.7-.3 6.9-1l-5.5-21.5-1.2-.6z"/><path class="st8" d="m304.5 693.2-18.2-13.8 5.5 21.5c5-1.4 9.3-4.1 12.7-7.7zM286.9 676.4l16.4-20.6c-4.8-4.5-11.1-7.3-18.3-7.3-2.2 0-4.4.3-6.5.8l7 27.2 1.4-.1zM282.8 676.9l-24.2 1.9c1.1 7.7 5.4 14.4 11.7 18.6l14.9-18.7-2.4-1.8z"/><path class="st8" d="M262.3 661.3c-2.5 4-3.9 8.8-3.9 13.9 0 1.2.1 2.5.3 3.6l24.2-1.9-20.6-15.6z"/><circle class="st0" cx="285" cy="675.2" r="13.6"/><circle class="st0" cx="285.1" cy="681.8" r="6.6"/><path class="st5" d="M420.9 635.5s-26.7-5.4-43.7 6.9c-16.9 12.2-24.8 83.6-60.6 120.3 6.7 21.6 53.5 19.3 53.5 19.3l35.1-54 43.3-66.4-12.5-27.4-15.1 1.3z"/><path class="st1" d="m258.5 812.2-9.7-25.6 53.7-15.7 3.1 15.7z"/><path class="st1" d="m341.1 790.2-40.2-14.9c-1.4 1.1-51.4 32.7-55.4 40.6-.4.7-.7 1.5-.8 2.2 15.7.6 54.2 1.2 54.2 1.2l6.3 11.7 38.5-11-2.6-29.8z"/><circle class="st1" cx="312.2" cy="775.3" r="16.8"/><path class="st0" d="M334.1 792.1c-7.8 4.8-5.1 29.8-5.1 29.8h38.1s3.2-20.8-1.8-27.9c-5.1-7.4-23.4-6.9-31.2-1.9zM244.7 818.1c-2.3 7.3.8 14.7.8 14.7h53.2l6.3-1.8-6.3-11.7c.2 0-38.3-.8-54-1.2z"/><path class="st2" d="M261.2 812.2c-6.5 5.5-4.5 20.2-4.5 20.2M275.9 810.8c-11 7.7-7.4 21.6-7.4 21.6M289.3 812.2c-9.4 5.1-9.4 20.2-9.4 20.2"/><path class="st1" d="M328.5 775.3c4.8-6.6 35.3.3 39.1 4.8s1.8 20.6-3.7 20.6-29.3-.7-34.7-3.7c-5.3-3.1-5.6-15.1-.7-21.7z"/><path class="st0" d="M295.6 832.8c-2.3-3-1.9-9.6 1.4-12.8 3.3-3.2 73-2.8 74.3 0 1.2 2.8 2.8 11.4 0 12.8-2.8 1.4-73.5 3.2-75.7 0z"/><path class="st1" d="M356.5 722c8.7 11.1 70.5 23.2 70.5 23.2l2.3-62.2-53.2-6.1c.1 0-28.3 33.9-19.6 45.1z"/><path class="st2" d="m400.9 717.8 28.5 3.2M405.1 698.3l28.4 2.5"/><path class="st1" d="M488.9 817.8c-.3-1.9-11.6-25.7-11.6-25.7l62.6-26.8 12.2 21.5-63.2 31z"/><path class="st5" d="M481.7 613.3c19.7 4.1 67.8-3.2 67.8-3.2s8.3 7.3 5.1 31.1c-3.2 23.8 18.8 34.5 23 48.1s31.6 55.8 31.6 55.8l-48.5 19s-41-50.6-58.7-74.7c-17.7-23.9-39.9-60.8-39.9-60.8s-.1-19.4 19.6-15.3z"/><circle class="st1" cx="551.2" cy="765.1" r="14.4"/><path class="st1" d="M510.3 696.9s6.3 14 9.9 14c3.6 0 17.3-8.3 38.9-14.7 21.6-6.5 40.3 1 42.2-8.1s-5.5-16.9-14.7-16.1c9.6-10.5 5.5-23.4-11.4-19.5 12.8-7.3 3.2-22.3-4.5-21-7.7 1.1-56.4 27.8-56.4 27.8l-4 37.6z"/><path class="st0" d="M480.3 635.5 452.9 625l-29.4 14.7c0 1 1.7 35.3 0 76.5l61.9 1.9c-2.6-48.9-5.1-82.6-5.1-82.6z"/><path class="st1" d="m485.2 718.1-61.9-1.9c-.3 5.5-.6 11.1-.8 16.8l63.5 1.8c-.4-5.7-.6-11.3-.8-16.7zM420.9 754.4c-2.3 24.9-6.3 49.5-12.9 68.3 28.1 12 33-20.5 34.8-22.4 1.8-1.9 19.7-1.8 21.6.4 1.9 2.2-3.9 31.2 24.8 28.9-.4-25.4-1.2-50.3-2.2-73.3l-66.1-1.9z"/><path class="st0" d="m485.9 734.8-63.5-1.8c-.4 7-1 14.2-1.7 21.3l66 1.9c-.1-7.3-.5-14.4-.8-21.4z"/><path class="st3" d="m693 682.9-43.8 1.4 9.4 22.5 34.4-7.4z"/><path class="st4" d="M693 788v-62.3l-24 5.6zM693 699.4l-34.4 7.4 4.4 10.3 30-7.4z"/><path class="st3" d="m663 717.1 6 14.2 24-5.6v-16z"/><path class="st2" d="M649.2 684.3 693 788V682.9z"/><path class="st3" d="m657.4 686.2-42.4 10s3.6 7.4 8.5 18.2l33.8-7.3c.1-12.2.1-20.9.1-20.9z"/><path class="st4" d="M658.2 787.8s0 .2 0 0c0 .2 0 .2 0 0zM635.3 739.2c11 23.2 22.4 47.6 22.8 48.7-.6-1.2-.7-28.1-.7-53.9l-22.1 5.2z"/><path class="st3" d="m657.4 718.5-28.5 7.2c2.1 4.4 4.3 8.9 6.3 13.5l22.1-5.2c.1-5.3.1-10.5.1-15.5z"/><path class="st4" d="m657.4 707.1-33.8 7.3c1.7 3.4 3.4 7.3 5.4 11.3l28.5-7.2c-.1-4-.1-7.8-.1-11.4z"/><path class="st2" d="M615 696.2s44.1 93.5 43.2 91.7c-1-1.8-.7-101.8-.7-101.8L615 696.2z"/><path class="st5" d="M656 533.6h-29.5l-6.4 26.8 38.1-.2zM658.2 560.2l-38.1.2 4.3 36 36.6-1z"/><path class="st1" d="m624.4 596.4-3.3 98.5 47.3-3.7-7.4-95.8z"/><path class="st0" d="M597.4 641.6c3.2 7.7 8.1 16.6 10.7 20.6 1.7 2.6 4.4 4 7 4.1-.7-6.7-2.8-22-5.2-24.3-2.3-2-8.9-1-12.5-.4zM651.1 646.3c1.7 5.6 3.4 10.5 5.1 12.4 4.7 5.1 15.3 3.7 15.3-4.1 3.9 5.9 13.9 2.8 13.9-3.7 6.1 5.1 13.3 1 13.3-3.2 0-1.7-1.8-6.3-4.5-12l-43.1 10.6z"/><path class="st1" d="M680.2 608.6c-6.5-11.6-14.4-19.8-24.1-22.7-9.6-2.9-36.9-3.4-36.9-3.4l-23.9 19.3s-2.5 25.7 0 34c.6 1.8 1.2 3.9 2.2 5.9 3.4-.7 10.2-1.7 12.5.6 2.5 2.3 4.4 17.6 5.2 24.3 2.3.1 4.5-.8 5.9-2.8 2.8-4.1.1-38 3.7-40.8 3.6-2.9 10.5-3.2 16.4 0 3.7 2.1 6.9 13.8 9.8 23.4l42.9-10.6c-3.9-8.9-9.8-20.1-13.7-27.2z"/><path class="st2" d="M685.2 650.9c-1.8-14.7-13.9-33.4-13.9-33.4M656 619.9s15.3 17.2 15.3 34.7"/><path class="st8" d="m668.4 434.7-6.1-1.5c-3.9 6.2-8 12.7-11.8 19l12.7 2.9 5.2-20.4z"/><path class="st8" d="m686.6 460.4 4.5-19.9-22.7-5.8-5.2 20.3z"/><path class="st8" d="m663.2 455-12.7-2.9c-5.6 9.1-11.3 17.9-16.2 25.9l21.7 4.5 7.2-27.5z"/><path class="st5" d="m641.2 540 26.1 2.9 12.9-55.4-24.2-5.1z"/><path class="st5" d="m663.2 455-7.2 27.4 24.2 5.1 6.4-27.1z"/><path class="st1" d="M634.3 477.9c-6.1 9.6-11.4 18.2-15 23.9 7.8 10.5 12.9 23.2 13.9 37.3l8 .8 14.9-57.5-21.8-4.5z"/><path class="st2" d="m663.2 497.4-7.2 45.5M637.7 491.5l-7.9 46.5"/><circle class="st0" cx="387.6" cy="596.8" r="11.8"/><circle class="st9" cx="387.6" cy="596.8" r="4.8"/><circle class="st0" cx="402.3" cy="629.8" r="11.8"/><circle class="st9" cx="402.3" cy="629.8" r="4.8"/><path class="st0" d="m585.3 448.3 22.3 39.2c2.1-4.7 5-11 8.3-18.7L592.7 428c-2.4 6.8-4.7 13.7-7.4 20.3z"/><path class="st0" d="M572.6 478.8c.7 13.8 31.5 16.6 31.5 16.6s1.4-2.9 3.6-8l-22.3-39.2c-4 10.8-8.3 21-12.8 30.6zM598.5 410.1l24.3 42.8c2.6-5.9 5.2-12.4 8.1-19L605 388.4c-2.1 7.1-4.3 14.4-6.5 21.7z"/><path class="st0" d="m592.6 427.9 23.2 40.8c2.1-4.8 4.4-10.2 6.9-16l-24.2-42.8c-1.9 6.1-3.8 12.1-5.9 18zM614.5 353c-1.7 6.3-3.3 13.1-5.2 19.8l27.1 47.7c2.3-5.5 4.5-11.1 6.9-16.8L614.5 353z"/><path class="st0" d="m659.9 360.8-42.6-19c-.8 3.6-1.8 7.3-2.8 11.1l28.7 50.7c6.1-14.4 11.7-29.2 16.7-42.8zM605 388.3l25.9 45.5c1.8-4.4 3.7-8.8 5.6-13.3l-27.1-47.7c-1.5 5.1-2.9 10.3-4.4 15.5z"/><path class="st3" d="m617.2 341.9 42.6 19c2.2-6.2 4.4-12.1 6.2-17.6l-45-17.1c-1.1 4.9-2.4 10.2-3.8 15.7z"/><path class="st4" d="M675.1 306.6c-6.9-3.7-45-23.8-45-23.8s-1.7 8.9-4.8 23.4l46.1 19.7c2.4-8.3 3.7-14.9 3.7-19.3zM623 317.4c-.7 2.8-1.2 5.8-2.1 8.8l45.1 17.1c.8-2.6 1.7-5.2 2.5-7.7L623 317.4z"/><path class="st3" d="m671.4 325.9-46.1-19.7c-.7 3.4-1.5 7.2-2.5 11.1l45.7 18.2c1.1-3.4 2.1-6.6 2.9-9.6z"/><path class="st2" d="M675.1 306.6c-6.9-3.7-45-23.8-45-23.8s-4.7 24.9-12.9 59l42.6 19c9-24.2 15.3-44.7 15.3-54.2z"/><path class="st1" d="m727.3 363-7.3 29.4c5.6 2.8 12 5.9 18.3 9.1l10-33-21-5.5z"/><path class="st0" d="m691.1 353.7-29.3 24.5 11 15.1 23-12.8s10.3 5.2 24.2 12.1l7.3-29.4-36.2-9.5z"/><path class="st1" d="M803 411.2c-2.1-8.3-24.8-24.1-39.6-33.8l-9.1 32c18.3 8.9 34.8 16.6 38.6 17.7 9.6 2.8 13.3-3.6 10.1-15.9z"/><path class="st0" d="m750.1 368.9-1.7-.4-10 33c5.4 2.6 10.7 5.2 16 7.8l9.1-32c-7.8-4.9-13.4-8.4-13.4-8.4zM677.9 340.5c-15.1 1.8-28.5 25.2-28.5 25.2l14.7 14.7s5.9-10 28.9-13.3c6.5-1 18.3 1.2 32.2 4.8l5.4-21.6c-25.1-6.1-46.9-10.5-52.7-9.8z"/><path class="st1" d="m730.6 350.2-5.4 21.6c6.5 1.7 13.5 3.7 20.5 5.8l6.7-22c-7.4-1.9-14.8-3.7-21.8-5.4zM822.7 376.2c-1.7-1.8-26-9.1-54.5-16.5l-6.5 22.8c26.1 8.1 50.2 16.1 54.9 14.9 9.8-2.7 9.8-17 6.1-21.2z"/><path class="st0" d="m752.3 355.6-6.7 22c5.4 1.7 10.9 3.3 16.2 5l6.5-22.8c-5.3-1.4-10.6-2.8-16-4.2z"/><path class="st4" d="m619.3 412.5 44.7 17.7c3-4.7 5.9-9.4 8.7-13.8L624.3 397c-1.5 5.1-3.2 10.3-5 15.5z"/><path class="st3" d="m595.4 487.6 18.4 23s27-43.2 50.2-80.3l-44.7-17.7c-11.5 35.8-23.9 74.6-23.9 75z"/><path class="st4" d="M697.2 377.6c0 .4-58.2-25.7-58.2-25.7s-3.3 10-8 24.8l51.8 23.7c8.6-13.7 14.4-22.9 14.4-22.8z"/><path class="st3" d="M630.9 376.6c-1.9 6.2-4.3 13.1-6.6 20.5l48.4 19.4c3.6-5.8 7-11.3 10.2-16.1l-52-23.8z"/><path class="st2" d="M595.4 487.6c0-1 43.6-135.7 43.6-135.7s58.2 26.1 58.2 25.7c0-.4-83.3 133-83.3 133l-18.5-23z"/><circle class="st0" cx="562.9" cy="544.1" r="70.5"/><path class="st1" d="M615.5 544.1c0-15.7-6.9-29.7-17.7-39.5l-34.4 92c28.8-.1 52.1-23.6 52.1-52.5z"/><path class="st0" d="m587 497.4-39.6 97.1c5 1.5 10 2.3 15.5 2.3h.4l34.5-92c-3.2-3-7-5.5-10.8-7.4z"/><path class="st5" d="M587 497.4c-7.3-3.7-15.4-5.8-24.1-5.8-20.4 0-38.1 11.6-46.8 28.5l52.3 22.8 18.6-45.5z"/><path class="st8" d="M510.3 544.1c0 23.7 15.7 43.7 37.1 50.3l15.7-38.4-51.7-22.4c-.7 3.4-1.1 7-1.1 10.5z"/><path class="st0" d="M516.2 520.1c-2.2 4.3-3.9 8.8-4.8 13.6l51.7 22.4 5.4-13.2-52.3-22.8z"/><path d="M414.5 526.8s3.9 9.9-11.3 18.6-11.8 14.6-16.6 23.4c-4.8 8.7-15.5 19.7-15.5 22 0 4.1 6.6 5.5 12 4.1 5.4-1.4 11.8-10.6 11.8-10.6-5.1 23.4 22.7 61.5 29.7 65.6 7 4.1 16.6-8.7 11.1-13.8 8.4 3.2 23 4.5 36.3 4.5l-52.7-114.4c-3 .5-4.8.6-4.8.6z" style="fill:#ffce00"/><path class="st4" d="M520.2 577.6c3.7-6.9 3.7-12-2.5-12.8-6.2-1-9.5 8.3-16.8 3.7s-2.1-35.8-4.5-35.8c-2.5 0-19.4-11.4-21.5-11.4-1.7 0-41.3 3.9-55.4 5.2L472.2 641c15.1 0 28.7-1.7 30.4-4.1 2.9-4.5-1.1-19.3-10.3-19.3 10.3-9 24.1-33.2 27.9-40z"/><circle class="st5" cx="452.1" cy="578.7" r="33.7"/><path class="st2" d="M403.3 545.4c-15.1 8.7-11.8 14.6-16.6 23.4-4.8 8.7-15.5 19.7-15.5 22 0 4.1 6.6 5.5 12 4.1 5.4-1.4 11.8-10.6 11.8-10.6-5.1 23.4 22.7 61.5 29.7 65.6 7 4.1 16.6-8.7 11.1-13.8 18 6.9 63.8 5.1 66.7.4 2.9-4.5-1.1-19.3-10.3-19.3 10.3-8.7 24.2-33 27.9-39.9 3.7-6.9 3.7-12-2.5-12.8-6.2-1-9.5 8.3-16.8 3.7-7.3-4.5-2.1-35.8-4.5-35.8-2.3 0-19.4-11.4-21.5-11.4s-60.5 5.8-60.5 5.8 4.1 9.9-11 18.6z"/><path class="st2" d="M492.2 617.4c-4.7 4.1-17.3 1.8-17.3 1.8M427.1 626.1s3.4 7.3 8.8 10"/><path class="st5" d="M385.4 487.6s-26.3 10-26.3 18.8c0 8.7 3.2 18.8 13.2 17.5 10-1.4 20.1-17.5 20.1-17.5l16.5 15.5s-13.3 20.6-10.6 27.9c2.8 7.3 17.5 9.6 22.4 5.9 5-3.7 10.6-24.8 10.6-24.8l20.2 2.8s-4.5 23.8 3.7 29.3c8.3 5.5 18.6 2.3 18.6-5.9 0-8.3-8.9-24.3-8.9-24.3l18.3-10s6.1 17.9 14.2 19.7 22.1-8.3 20.2-18.8c-1.9-10.6-25.2-17.9-25.2-17.9l-107-18.2z"/><path class="st8" d="m505.4 464.8-14.3-15c.4 11 .8 46.5-7.7 58-10.2 13.8-56 15.5-71.9 1.4-12.1-10.7-22-35.5-26.1-47.2l-12 11.4s12.1 44 35.9 56.9c23.8 12.8 62 18.3 85.8-11 23.7-29.3 10.3-54.5 10.3-54.5z"/><path class="st8" d="M423.3 490c8.4 8.3 29.2 10.7 40.4 1.4 12.9-10.9 13.3-47.7 13.3-56.4h0l-53.9-6.2c-2.4 21-5.5 55.4.2 61.2z"/><path class="st8" d="m423.2 428.8-2.5-.3-35.3 33.5c3.9 10.6 12.4 32 23 44l12.8-21.7c-2.5-12.1-.1-38.3 2-55.5zM463.8 491.3c-9.9 8.4-27.4 7.3-37 1.2l-9.5 20.5c19.3 9.9 52.7 13.1 66.3-5.2 2.5-3.3 4.1-8.5 5.4-14.7l-21.6-5.6c-1.3 1.5-2.4 2.7-3.6 3.8z"/><path class="st8" d="M423.3 490c-1.1-1-1.8-3-2.3-5.6l-12.8 21.7c1.1 1.2 2.2 2.3 3.3 3.3 1.7 1.4 3.6 2.8 5.8 3.9l9.5-20.5c-1.3-1-2.5-1.9-3.5-2.8zM471.2 479.6c-1.1 2.9-2.5 5.6-4 7.8l21.6 5.6c.7-3.2 1.1-6.6 1.5-10.2l-19.1-3.2z"/><path class="st8" d="M491.1 449.8 477 435.1c0 6.5-.1 29.3-5.9 44.7l19.1 3.4c1.5-13.3 1.2-27.2.9-33.4z"/><path class="st4" d="m651.2 106.7-51.8-41.3s-3.9 9.4-10.7 24.2l50.2 34c7.5-10.3 12.3-16.9 12.3-16.9z"/><path class="st3" d="m574.3 119.8 45.2 29.8c2.1-2.8 4-5.4 5.9-8l-47.6-29c-1 2.3-2.2 4.7-3.5 7.2z"/><path class="st4" d="M583 102c-1.7 3.3-3.3 6.9-5.1 10.5l47.6 29.2c2.1-2.8 4-5.5 5.9-8L583 102z"/><path class="st3" d="m638.8 123.6-50.1-34c-1.8 3.9-3.7 8-5.8 12.4l48.4 31.6c2.7-3.5 5.2-7 7.5-10z"/><path class="st2" d="M599.5 65.4s-9.4 22.8-25.2 54.2l45.2 29.8c17.9-24.2 31.6-42.9 31.6-42.9l-51.6-41.1z"/><path class="st0" d="M671 150.6c-29.3-8.5-29.3-11.3-29.3-11.3L619.2 153s-15.7 15.1 6.3 10.9c7.4-1.5 25.3 6.3 45.5 17.2l11.3-26c-4.1-1.9-8-3.6-11.3-4.5z"/><path class="st1" d="m682.4 155.1-11.3 26c4.7 2.6 9.6 5.2 14.4 8.1l13.1-25.2c-5.7-3.4-11.2-6.4-16.2-8.9z"/><path class="st0" d="m698.7 164-13.1 25.2c6.6 3.9 13.3 7.8 19.9 11.8l12.9-24.3c-6.7-4.6-13.4-8.8-19.7-12.7z"/><path class="st1" d="M773.2 216.3s-27-21.2-54.7-39.6l-13 24.3c28.7 17.5 53.9 34.5 53.9 34.5l13.8-19.2zM689.6 138.6l-9.4 21.6c5.5 1.9 11.3 3.9 17.3 6.1l10.7-20.8c-6.4-2.4-12.6-4.7-18.6-6.9z"/><path class="st0" d="M642.6 127.3c-27.5 3.2-36.7 25.7-36.7 25.7l10.6 11s6.9-13.5 27.5-13.5c5.8 0 19.5 4 36.3 9.6l9.4-21.6c-20.9-7.2-38.8-12.1-47.1-11.2zM708.2 145.5l-10.7 20.8c7.3 2.6 14.7 5.4 22.1 8.3l10.7-20.1c-7.3-3.3-14.7-6.1-22.1-9z"/><path class="st1" d="M797.5 183.7s-31.9-14.9-67.2-29.4l-10.7 20.2c34.1 12.9 66.4 26.3 66.4 26.3l11.5-17.1z"/><path class="st0" d="m537.1 186.7 17.2 50.6c3.7-5 8.1-10.7 12.8-16.9L548.9 167c-3.7 6.5-7.7 13.1-11.8 19.7z"/><path class="st0" d="m525 205.4 16.5 48.5c2.6-3.3 7.2-9.2 12.8-16.8l-17.2-50.6c-3.9 6.6-7.9 12.7-12.1 18.9z"/><path class="st0" d="M504.6 233.8c-54 68.8 33 23 34.4 23.2.1 0 1-1 2.6-2.9l-16.5-48.5c-6.6 9.6-13.5 19.1-20.5 28.2zM571.7 125c-3.4 6.9-7.3 14-11.3 21.5l19.3 56.9c4.1-5.5 8.4-11.3 12.7-17.1L571.7 125z"/><path class="st0" d="m619.6 149.6-45.2-29.8c-.8 1.8-1.8 3.6-2.8 5.4l20.8 61.2c9.3-12.7 18.8-25.4 27.2-36.8zM548.9 167.1l18.2 53.4c4-5.4 8.3-11.1 12.7-17.1l-19.3-56.9c-3.6 6.7-7.5 13.5-11.6 20.6z"/><path class="st3" d="m523.3 247.5 20.6 24.2 57.3-62.2-36.4-24.8c-19.7 29.8-41.2 62-41.5 62.8z"/><path class="st4" d="m565 184.7 36.4 24.8 8.8-9.5-38.8-25c-2.1 3.2-4.2 6.5-6.4 9.7z"/><path class="st3" d="M579.7 162.5c-2.6 4-5.5 8.1-8.4 12.5l38.8 25 10-10.9-40.4-26.6z"/><path class="st4" d="m643 164.4-45-29.3s-7.8 11.7-18.3 27.4l40.4 26.5 22.9-24.6z"/><path class="st2" d="M523.3 247.5c.4-1.4 74.7-112.4 74.7-112.4l45 29.3-99 107.3-20.7-24.2z"/><path class="st4" d="M551.8 245.9s-39.2.3-40.6-30.9c-35.1 14.2-40.4-5.5-40.4-5.5l-5.4 22.7 96.1 67.9c5.2-4 11-8.8 17.3-14.9-38-12.9-27-39.3-27-39.3z"/><path class="st3" d="m452.8 285.1 75.2 30.7s12.4 0 33.6-15.8l-96.2-68-12.6 53.1z"/><path class="st2" d="m452.8 285.1 18-75.6s5.2 19.7 40.4 5.5c1.4 31.2 40.6 30.9 40.6 30.9s-11 26.4 27.1 39.2c-31.6 30.7-50.9 30.7-50.9 30.7l-75.2-30.7z"/><ellipse class="st8" cx="363.7" cy="238" rx="14.4" ry="14.9"/><path class="st4" d="M326.3 148.2c1.2 6.7 1.5 15.4 1.4 22.8 18.7-1.8 27.9-10.7 27.9-10.7s-9.5-9.7-29.3-12.1z"/><path class="st3" d="M326.3 148.2c-.8-.1-1.5-.1-2.3-.3-21.5-1.8-34.8 12.4-34.8 12.4v5.5s10.9 5.9 33.3 5.5c1.9 0 3.6-.1 5.4-.3-.1-7.4-.4-16-1.6-22.8zM405.6 230.6c-1.8-.6-3.6-1.1-5.5-1.5-17.9-4-34 8.9-34 8.9s3.2 15.8 26.5 18.6c3.6.4 7 .4 10.2.1 1.4-6.2 3.2-16.3 2.8-26.1z"/><path class="st4" d="M429.8 244.8s-9.5-9.2-24.2-14c.4 9.8-1.4 19.9-2.8 26.1 17.2-1.7 27-12.1 27-12.1z"/><path class="st2" d="M289.1 160.3s13.3-14.2 34.8-12.4c21.5 1.8 31.6 12.4 31.6 12.4s-10.9 10.6-33.3 11c-22.4.4-33.3-5.5-33.3-5.5v-5.5h.2zM366.1 238s16.1-12.9 34-8.9 29.8 15.5 29.8 15.5-13.8 14.7-37.1 12c-23.5-2.8-26.7-18.6-26.7-18.6z"/><path class="st5" d="M292.8 418.5s-7.6 26 .8 27c10 1.1 15 35.5 21.7 35.5s10.3-5.9 18.3-4.1c8 1.8 22 2.8 34 2.8s32.6-9.5 53.2-32.6 19.3-82.4 19.3-82.4l-4.4-54.3L305.3 294l-27 36 10.5 35.6-8.3 34.5 12.3 18.4z"/><path class="st0" d="M294.2 171.3s34 4 42.2 22c8.3 18 2.8 24.8 2.8 30.7 3.7-3.2 11-6.5 17.9 2.8s2.6 22-11.6 24.8c-14.2 2.8-20.5-5.9-20.5-5.9s-3.2 13.2-15.1 16.5c-12 3.3-17.9 6.1-17.9 6.1l-7.3-10.2-10.6-33-39.3-53.6 11.4-16.5 15.1-.4 23.4 20.2 9.5-3.5z"/><path class="st5" d="M284.6 365.6s-16.1 20.9-17.9 30.8c-1.8 9.9 6.5 16.1 6.5 16.1s26.5 4 34.8 0c8.3-4 9.6-19.1 4.1-23.2s-15.5 1.1-15.5 1.1"/><path class="st1" d="M263 517.2s-19.7-4.1-22-8.4c-1.2-2.2-2.1-5.9-1.9-8.9-10.7 1.4-24.6 2.3-30.7-1.1-10.6-5.9-12.4-12.8-25.2-19.8-9.6-5.4-51.3-8.9-51.3-8.9s-13.3 12.7 0 19c13.3 6.5 12.4 49 12.4 49l39.5-4.4s8.4 4.3 15.1 5.8c4.7 1.1 16-.1 26.5-1.5 14.5-25.1 37.6-20.8 37.6-20.8z"/><path class="st0" d="m231.4 179.2-21.1 34.3 31.2-17 1.7 10.4-16.5 23.4 30.8-14 .4 9.6-18.7 25.2 27.5-11-10.6-33.2z"/><path class="st5" d="M257.9 225.9s-2.3 17.5 5.1 26.1c7.4 8.7 16.9 8.7 24.3 4.5 7.3-4.1 0-23.8-13.3-39.9-13.3-16.1-27.9-36.2-27.5-46.8.4-10.6 8.9-12.4 13.3-10 4.4 2.3 10.2 20.6 23.8 21.6 13.6 1 21.2-4.1 18.8-18.3-2.5-14.2-25.7-14.7-25.2-5.9-5.1-5.9-12-15.1-27.5-15.1s-26.7 16.5-23.8 33c2.7 16.4 32 50.8 32 50.8z"/><path class="st2" d="M272.6 246.5c-1.8-9.6-5.1-11.4-14.7-20.6M277.2 157.2c0 6.9 4.1 12.7 10 11.4M339 224.1c-5.1 4.3-2.8 14 3.2 14"/><path class="st11" d="m149.1 749.9 35.6 18.3-1.2-33.6-36-18.6z"/><path class="st1" d="M153 829.6h33.9l-.4-9.6-34.9-17.9zM150.4 773.8l35.2 18.2-.9-23.8-35.6-18.3zM147.5 716l36 18.6-1-30.8-36.4-18.7z"/><path class="st11" d="m151.6 802.1 34.9 17.9-.9-28-35.2-18.2zM146.1 685.1l36.4 18.7-1.3-36.4-36.9-19z"/><path class="st1" d="m178 576.3-38.1-19.6 1.4 29.7 37.8 19.4z"/><path class="st11" d="m141.3 586.4 1.5 30.9 37.3 19.3-1-30.8z"/><path class="st1" d="m144.3 648.4 36.9 19-1.1-30.8-37.3-19.3z"/><path class="st11" d="m176.4 530.3-37.6 3.3 1.1 23.1 38.1 19.6z"/><path class="st6" d="m435.6 315.4 1.4 78.7h6.8l-1.3-79.1z"/><path class="st6" d="m442.5 315 1.3 79.1h5.8l-.3-79.3zM429.4 315.7v78.4h7.6l-1.4-78.7zM464.5 313.9l-8.3.4.3 79.8h8.2z"/><path class="st6" d="m449.3 314.8.3 79.3h6.9l-.3-79.8zM483 394.1l-5.1-81-13.4.8.2 80.2zM485.4 449.1s13.1 28.2 28.3 38.2c15.3 9.9 15.7 17.3 15.7 31.5 22.4-4.5 18.3-27.8 11-38.6-7.3-10.9-18.2-17.3-23.9-27.1-5.8-9.9-3.6-18.6-3.6-18.6L483 414.3l2.4 34.8z"/><path class="st2" d="M500.5 433.9s1.8 23.5 23.8 40.3c22.1 16.8 12.4 41.3 12.4 41.3"/><path class="st2" d="M488.1 428.5s4.7 32.7 24.6 47.6c19.9 14.9 23.8 28.2 16.6 42.8"/><path class="st1" d="M309.3 283.3c3.7 5.5 149.5 25.9 153.1 23.2 2.5-1.8 6.2-16 8.4-25-55.1-14.3-127.2-20.1-163.4-22.3-.4 8.1-.5 20.5 1.9 24.1z"/><path class="st5" d="M486.7 286c-5.1-1.7-10.5-3-16-4.5-2.2 8.9-5.9 23.2-8.4 25-3.7 2.6-149.5-17.7-153.1-23.2-2.3-3.6-2.2-16-1.9-24.1-14.2-.8-23-1.1-23-1.1l2.5 45.7L480.3 330s11.9-29.8 6.4-44z"/><circle class="st5" cx="345.4" cy="276.8" r="14.7"/><circle class="st5" cx="389" cy="282.9" r="14.7"/><circle class="st5" cx="438.1" cy="290.1" r="14.7"/><path class="st0" d="M502.6 314.5c-10.3 8.9-6.3 77.7 1.9 86.9 5 5.5 18 5.4 27.8 4.3l.8-94.5c-9.4-1.4-23.8-2.5-30.5 3.3z"/><path class="st1" d="M504.6 401.5c-8.3-9.2-12.4-78-1.9-86.9 6.6-5.8 21.2-4.7 30.5-3.2l.3-32.3s-42.2 1.1-52.3 17.1-15.1 97.2.4 126.2 50.5 20.4 50.5 20.4l.3-37c-9.8 1-22.8 1.1-27.8-4.3z"/><path class="st4" d="m548.1 368.7-.4 21.5c3 .1 6.2.4 9.6.7l.3-20.9c-3.2-.6-6.5-1.1-9.5-1.3z"/><path class="st3" d="M526.1 368.1c-13.8 3.2-13.6 16.8-5.9 19.5 3.4 1.2 12.9 1.4 27.5 2.3l.4-21.5c-10.2-1-18.3-1.1-22-.3z"/><path class="st4" d="m571.5 372.5-.3 19.7c14.3 1.5 31.4 4 50.9 8-2-13.1-26.6-22.5-50.6-27.7z"/><path class="st3" d="m557.7 369.9-.3 20.9c4.3.4 8.8.8 13.8 1.2l.3-19.7c-4.7-.7-9.4-1.7-13.8-2.4z"/><path class="st4" d="m548.9 320.4-.3 21.2c3-.1 6.3-.4 9.6-.6l.3-20.5c-3.3-.1-6.6-.1-9.6-.1z"/><path class="st3" d="M517.8 324c-8.7 5.9-5.9 18.8 2.3 18.8 2.8 0 14-.4 28.3-1.2l.3-21.2c-15.3.1-27.7 1.5-30.9 3.6z"/><path class="st4" d="m572.3 321.1-.3 19c22.8-1.7 46.6-4 56-6.7-9.7-7.1-33-10.9-55.7-12.3z"/><path class="st3" d="m558.5 320.5-.3 20.5c4.4-.3 9.1-.6 13.8-1l.3-19c-4.7-.2-9.4-.3-13.8-.5z"/><path class="st2" d="M517.8 324c-8.7 5.9-5.9 18.8 2.3 18.8 8.3 0 88.4-3.7 107.7-9.4-20-14.9-101.2-15.3-110-9.4z"/><path class="st4" d="M621.9 364.5c-11.7-8.4-31.1-14.3-50.1-17.9l-.3 19c15.6 0 33.4-.1 50.4-1.1z"/><path class="st3" d="M517.8 344.6c-8.7 5.9-1.8 19.8 6.5 19.8 3.2 0 11.8.4 23.8.7l.4-21.9c-15.1-1.3-27.2-.8-30.7 1.4z"/><path class="st4" d="m548.5 343.2-.4 21.9c3 .1 6.2.1 9.6.3l.3-21c-3.2-.5-6.3-.9-9.5-1.2z"/><path class="st3" d="m558.1 344.3-.3 21c4.4.1 8.9.1 13.8.1l.3-19c-4.7-.7-9.4-1.4-13.8-2.1z"/><path class="st2" d="M517.8 344.6c-8.7 5.9-1.8 19.8 6.5 19.8s55 2.6 97.6 0c-27.1-19.2-95.3-25.7-104.1-19.8zM520.2 387.8c-7.7-2.8-7.8-16.4 5.9-19.5 13.8-3.2 92.6 8.3 95.9 31.9-57.8-12.1-94.1-9.7-101.8-12.4z"/><path class="st5" d="M462.4 408.4c-.4-4.1-9.6-5.9-13.8-2.3-3.2 2.8-3.3 31.4-3.3 44.4l17.1 2.5c.1-13.6.4-41.4 0-44.6z"/><path class="st6" d="M474.4 399.2c-2.3-5.5-29.8-8.7-34-2.8-3.2 4.5-4.4 37.3-4.8 52.5l9.9 1.4c-.1-13.1.1-41.5 3.3-44.4 4.1-3.7 13.3-1.9 13.8 2.3.4 3.2.1 31.1 0 44.6l10.5 1.5c1-17.3 2.9-51.1 1.3-55.1z"/><path class="st8" d="M488.9 380.4c-6.5-11.4-45.8-16-55.4-8.9-9.6 7-12.4 73.6-12.8 75.4l14.9 2.2c.4-15.4 1.7-48 4.8-52.5 4.1-5.9 31.6-2.8 34 2.8 1.7 4.1-.3 37.8-1.4 55.3l17.5 2.5c-.2-.2 4.9-65.3-1.6-76.8z"/><path class="st4" d="m372.2 450.6 5-14.7-27.9-12.1s-8.5 14.6-6.1 30.8c6-3 16.7-6.6 29-4z"/><path class="st3" d="M372.2 450.6c-12.1-2.6-23 1-29 4 1.8 12 9.6 24.6 31.2 33-6.9-12.7-7.3-22-7.3-22l5.1-15z"/><path class="st2" d="M349.2 423.8s-25.9 44.1 25.2 63.8c-6.2-12.7-7.3-22-7.3-22l10-29.8-27.9-12z"/><path class="st8" d="M284.6 317.1s-22 1.8-36.2-5.5c6.9-5.9-3.7-21.6-11.4-21.6s-20.6 5.1-20.2 16.1c.4 11 6.5 21 25.7 24.8 6.3 1.9 3.7 12.4-1.8 12.8s-18.8 8.7-17.5 13.8c-4.1-5.9-10.6-4.1-15.1-1.8s-7.8 8.9-5.5 16.9 9.2 8.7 12.4 11c3.2 2.3-2.3 48.1.4 55s23 8.3 28.2 4.1 1.7-16.5 4.4-18.8 105.9-1 113.2 6.5c7.3 7.3 4 28.6 5.9 35.3 3.6 12 12.1 14.9 20.2 12.4 11.6-3.4 11-13.3 11-18.3 0-5.1-2.3-5.9-6.9-7.3-4.5-1.4-9.9 2.8-9.2 8.3-2.8-4.1 3.2-36.2-1.8-45.8-5.1-9.6-127.5-4.5-131.6-7.3-4.1-2.8-4.5-34.8-.4-36.7 4.1-1.9 36.2-1 36.2-1S274 340.1 274 339.2c0-.9 10.6-22.1 10.6-22.1z"/><path class="st2" d="M235.1 302.5c-2.3 7.3 5.9 13.8 13.3 9.2M214.9 370.3c6.5 3.7 12.4-1.4 8.3-12.8"/><path class="st1" d="M341.8 337.3s30.7-.7 36.7 5.5c6.1 6.2 2.8 16.1-2.3 17.9-5.1 1.8-37.1-3.2-37.1-3.2l2.7-20.2z"/><circle class="st8" cx="308" cy="339.1" r="41.3"/><path class="st0" d="M284.9 335.5c-.1 1.2-.3 2.3-.3 3.6 0 12.9 10.5 23.4 23.4 23.4s23.4-10.5 23.4-23.4v-.4l-46.5-3.2z"/><circle class="st0" cx="308" cy="339.1" r="9.8"/><path class="st5" d="M308 315.7c-11.7 0-21.3 8.7-23.1 19.8l46.5 3.2c-.3-12.7-10.6-23-23.4-23z"/><path class="st8" d="M382.2 460.7c0 7.6 6.9 6.6 6.9 6.6"/><path class="st1" d="M310.2 440.5c11 0 16.4 9.6 10 19.3-6.3 9.6-19.9 20.2-29.4 20.6-9.5.4-14.6-12.5-10.9-19.9 3.7-7.5 19.3-20 30.3-20z"/><path class="st8" d="M284.6 184.7c-2.8 2.3-4.5 9.2 0 12.4s19.3-5.1 26.1 6.5c6.9 11.6-5.5 19.7-4.8 23.4.7 3.7 12.9 5.5 16.5 0 3.6-5.5 8.9-16.9-1.4-31.6s-33.7-13.1-36.4-10.7z"/><circle class="st4" cx="300.1" cy="209.4" r="16.9"/><path class="st0" d="M311 222.3c-7.2 6.1-17.9 5.1-23.8-2.1-6.1-7.2-5.1-17.9 2.1-23.8l21.7 25.9z"/><circle class="st0" cx="300.1" cy="209.4" r="6.9"/><circle class="st2" cx="300.1" cy="209.4" r="16.9"/><path class="st0" d="M441.2 480.3s-8 18.3-4 26.5c4 8.3 24.1 7.3 30.1-1.4 6.2-8.7-1-25.2-1-25.2h-25.1z"/><path class="st2" d="M446 482.7s-1.2 21.7 6.1 20.2 7.3-20.2 7.3-20.2"/><circle class="st1" cx="451.9" cy="458.6" r="14.6"/><path class="st0" d="M437.9 463.1c-2.8 4.1-7.4 12-5.8 17.2.4 1.5 2.2 2.8 4.8 3.7l4.4-15.4c-1.5-1.5-2.7-3.4-3.4-5.5zM441.4 468.8l-4.4 15.4c3.3 1.2 7.8 2.2 12.7 2.5l-.6-13.6c-2.9-.7-5.7-2.3-7.7-4.3zM465.4 464.1c-1.2 3-3.3 5.5-6.1 7.2l5 14.9c3.9-.7 6.6-2.1 7.4-3.9 2.3-5.1-2.8-13.4-6.3-18.2z"/><path class="st0" d="M451.9 473.2c-1 0-1.9-.1-2.8-.3l.6 13.6c5.1.4 10.5.3 14.6-.6l-5-14.9c-2.1 1.5-4.7 2.2-7.4 2.2z"/><path class="st1" d="M499.1 661.5s12.9-8 21.2-5c8.3 3 16.9 31.1 12.8 40.4s-21.7 7-21.7 7L494.5 686l4.6-24.5z"/><path class="st1" d="M462.4 700.8c-2.8 10.2.6 18.3 7.8 20.2 7.3 1.8 49.1-11.4 49.9-18.7.8-7.3-8.7-21-14.7-21s-40.2 9.3-43 19.5z"/><path class="st1" d="M448.4 676.9c-3.4 9.4 3.9 18 11.7 18 7.8 0 40.6-8.7 45.4-15.1s-.4-23.8-9.2-24.5c-8.7-.7-44.5 12.2-47.9 21.6z"/><path class="st0" d="M574.8 779.6c-.4-.4 1.1 42.6 1.1 42.6l51.2-.7s-5-44.7-11.4-53.6c-6.6-8.9-40.9 11.7-40.9 11.7z"/><path class="st1" d="m589.5 770.9-19.3-3s-65.6 32.3-77.7 41c-4.5 3.3-6.6 7-7.4 10.5l77.8.1 1.7 7 22.6-8.5 2.3-47.1z"/><path class="st0" d="M485 819.5c-1.2 5.6 1 10.3 1 10.3h70l8.7-3.3-1.7-7h-78z"/><path class="st2" d="M510.1 810.8c-6.9 4.1-5.9 19-5.9 19M524.6 810.8c-7.2 4.1-4.4 19-4.4 19M543.5 810.8c-9.2 4.1-6.9 19-6.9 19"/><path class="st0" d="M558.3 817.8c-3.2.3-4.5 9.4-1 12 3.6 2.6 67 2.5 70.1 1.2 3.2-1.2 3.2-16.1-3-16.1s-63 2.5-66.1 2.9z"/><path class="st1" d="M564.7 759.9c-3.7 7.8 2.1 19.4 9.2 22.1 7.2 2.6 46.3-7.6 48.5-13.3 2.2-5.8-5.4-25.7-11.1-26.5-5.7-.8-42.9 10-46.6 17.7zM339.7 716.5c0 6.9 22.8 10.5 29.8 5.1s20.1-40 16.4-46.3c-3.7-6.3-22-6.6-26.8-2.6-4.8 3.9-19.4 36.9-19.4 43.8z"/><path class="st1" d="M337.7 669.7c-5.2 2.6-7.6 14.4-4 16.8 3.6 2.3 23.8 5.5 30.7 3.7s6.7-11.3 4.1-15c-2.6-3.7-25.5-8.1-30.8-5.5zM327.4 692c-6.7 3.3-9.1 13.9-5.4 17.7 3.7 3.9 30.9 5.4 35.6 1.9 4.8-3.3 6.1-15.1 1.4-16.9-4.6-1.6-24.9-5.9-31.6-2.7z"/><path class="st0" d="M172.2 491.9c-1.8 0-3.6-.1-5.4-.1l3.9 45.5c8.1-1 14-2.5 14-3.9 0-3.1 6.8-41.2-12.5-41.5z"/><path class="st1" d="M126 494.2c-6.1 5.9-8.3 41.8 10 43.7 10.3 1.1 24.3.6 34.8-.8l-3.9-45.5c-17.6-.7-35.5-2.7-40.9 2.6z"/><path class="st2" d="m144 527 41.4-.2M186 514.7l-42.8 1.1M141 504.7h43.7"/><circle class="st0" cx="148.7" cy="455.9" r="15.4"/><path class="st0" d="M124.1 466.6s-1.2 3.3 1.9 7c3.2 3.7 25.2 8.9 28.9 7.8s5.5-6.7 3.9-10.2c-1.7-3.4-34.7-4.6-34.7-4.6z"/></svg>