<svg version="1.1" id="Calque_1" xmlns="http://www.w3.org/2000/svg" x="0" y="0" viewBox="0 0 900 900" style="enable-background:new 0 0 900 900" xml:space="preserve"><style>.st0,.st1,.st2,.st3,.st4,.st5,.st6,.st7,.st8{fill:#fff;stroke:#000;stroke-width:5.3649;stroke-linecap:round;stroke-linejoin:round;stroke-miterlimit:10}.st1,.st2,.st3,.st4,.st5,.st6,.st7,.st8{fill:#aa4900}.st2,.st3,.st4,.st5,.st6,.st7,.st8{fill:none}.st3,.st4,.st5,.st6,.st7,.st8{fill:#ff0013}.st4,.st5,.st6,.st7,.st8{fill:#008200}.st5,.st6,.st7,.st8{fill:#6cb700}.st6,.st7,.st8{fill:#0071aa}.st7,.st8{fill:#ffce00}.st8{fill:#ff7300}.st9{fill:#003800}.st12,.st9{stroke:#000;stroke-width:5.3649;stroke-linecap:round;stroke-linejoin:round;stroke-miterlimit:10}</style><path class="st0" d="M404.1 835.8c-9.7-4.3-19.3 1.1-19.3 1.1s-9.7-4.3-19.3 0c-4.3-5.4-13.9-2.1-13.9-2.1s-1.7-5.7-6.8-8.8c-3.2 1.9-7.6 4.7-8.2 6.7-1.1 3.2 6.4 7.5 15 6.4 1.1 3.2 4.3 4.3 13.9 3.2 5.4 3.2 8.6 1.1 16.1-1.1 2.1 3.2 7.5 6.4 19.3 0 3.2 6.4 11.8 3.2 17.2-2.1-.1-.1-4.4-5.5-14-3.3z"/><path class="st1" d="m442.7 789.6-26.8 2.1-50.4 18.3-17.2 14s-1.6.8-3.6 1.9c5.1 3.1 6.8 8.8 6.8 8.8s9.7-3.2 13.9 2.1c9.7-4.3 19.3 0 19.3 0s9.7-5.4 19.3-1.1c9.7-2.1 13.9 3.2 13.9 3.2 7.5 2.1 15-3.2 15-3.2l19.3-24.7-9.5-21.4z"/><path class="st2" d="M411.6 829.3c-5.4 1.1-7.5 6.4-10.7 11.8M366.5 825c-11.8 5.4-15 9.7-15 13.9M379.4 828.3c-11.8 5.4-13.9 9.7-13.9 13.9M394.4 827.2c-11.8 5.4-12.9 9.7-12.9 13.9"/><path class="st3" d="m466.3 797.1-21.5-3.2-9.3 33 32.6-3.3c.5-10.7-1.8-26.5-1.8-26.5zM435.5 826.9l-2.5 8.9s29 2.1 33.3-3.2c1.2-1.4 1.7-4.8 1.9-8.9l-32.7 3.2zM342.9 814.3l5.4 9.7 59-23.6-2.1-8.6z"/><path class="st3" d="M421.3 783.7s-16.1 1.6-20.4 4.8c-4.3 3.2 1.1 10.7 6.4 11.8 5.4 1.1 15-3.2 15-3.2l-1-13.4z"/><path class="st3" d="m421.3 783.2 1 13.9h44l3.2-15z"/><path class="st0" d="M560.2 836.3c-2.4-5.6-9.7-2.4-9.7-2.4s-6.4-5.6-14.5 0c-3.2-7.2-14.5-4-14.5-4s-2.1-6.4-8.5-8.6c-2.2.9-4.5 2.2-7.1 3.8-4.3 6.4 5.4 10.7 13.9 8.6-3.2 5.4 6.4 5.4 13.9 3.2 2.1 5.4 10.7 5.4 15 1.1 0 5.4 7.5 4.3 11.8 1.1 1.1 3.8 6.8 4.6 10.7.6-.5-8.1-7.2-7.1-11-3.4z"/><path class="st1" d="m601.5 792.9-26.8 1.1-40.8 16s-9.7 9.7-13.9 9.7c-2.3 0-4.5.6-6.9 1.6 6.4 2.3 8.5 8.6 8.5 8.6s11.3-3.2 14.5 4c8-5.6 14.5 0 14.5 0s7.2-3.2 9.7 2.4c3.8-3.8 10.4-4.7 11.2 3.2 7.8 0 16.5-1 21.5-3.8 7.5-4.3 13.9-13.9 13.9-13.9l-5.4-28.9z"/><path class="st2" d="M568.2 829.1s-7.9 3.7-7.6 9.9M536.6 823.7c-8-.8-15 6.2-16.7 9.9M546.5 825.8c-8 2.4-11 7.2-12.7 10.9M558.6 827.5c-4 1.6-8 6.7-9.7 10.4"/><path class="st1" d="m583.3 777.8 3.2 16.1 36.5-3.2-1.1-12.9z"/><path class="st3" d="m627.3 798.2-16.1-6.4s-19.5 4.3-19.9 2.1c2.3 9.2 2.4 22.8 2.1 32l40.8-1.7c-1.9-20.1-6.9-26-6.9-26z"/><path class="st3" d="M593.4 825.9c-.2 5.8-.5 9.9-.5 9.9s34.3-1.1 41.8-3.2c-.1-3.1-.3-5.8-.5-8.4l-40.8 1.7zM514.6 810l5.4 9.7s47.2-12.9 54.7-17.2c4.3-6.4 0-8.6 0-8.6L514.6 810z"/><path class="st3" d="M585.4 788.6s-15.6 1.6-16.6 5.9c-1.1 4.3-.5 9.1 5.9 8s16.6-8.6 16.6-8.6l-5.9-5.3z"/><path class="st3" d="M627.3 798.2s-1.1-5.4-3.8-8.6c-2.7-3.2-38.1-1.1-38.1-1.1l3.2 10.7 38.7-1zM154.1 798s-23.9-4-35.9-1.6c-12.1 2.4-15.8 13.4-43.2 10.2 3.2 8 17.7 8 17.7 8s-7.8 5.6-15.8 8.3c30.8 4.8 33.8-11.8 41-15 7.2-3.2 27.9 1.6 27.9 1.6l8.3-11.5z"/><path class="st0" d="M109.6 789.6s-.8 13.7 8.9 21.7c2.4-12.1 1.6-22.5 1.6-22.5l-10.5.8z"/><path class="st4" d="M286.1 390.5c-12.9 20.4-30 20.4-49.4 37.6s-25.8 51.5-17.2 154.5c8.6 103 7.5 165.2-32.7 177.6-8.6 2.1-16.6-4.8-16.6-4.8s-18.2-1.1-29 0c-10.7 1.1-34.9 16.1-39.2 23.6-4.3 7.5-.5 15 4.8 15s46.7-6.4 49.9-2.1c3.2 4.3-26.3 20.4-26.3 20.4s4.3 4.8 10.7 3.8c6.4-1.1 27.9-16.1 36.5-16.1 8.6 0 47.2-7 62.2-43.5s13.9-52.6 7.5-178.1c-4.3-48.3-17.2-118 1.1-136.3 18.3-18.3 41.9-24.8 37.7-51.6z"/><path class="st0" d="M161.9 763.1c-12.1-1.6-22.5-1.6-33.8 4 0 0-4.9 13.5 9.7 12.9 20.1-.8 24.1-16.9 24.1-16.9z"/><circle class="st2" cx="140.8" cy="766.7" r="6"/><path class="st5" d="M128.1 767.1c-6.4-18.5 18.5-13.1 20.9-15.6 2.4-2.4 4.5-7.9 12.6-7.5 12.3.5 13.1 11.8.3 19-12.1-1.5-26.5 1.7-33.8 4.1z"/><path class="st5" d="M149 751.5c.8 2.7 4 5.1 11.3 1.1"/><path class="st4" d="M522.1 273.5s31.7-28.6 91.7-44c49.7-12.7 92.8-35.4 96-37.6 3.2-2.1 5.4 6.4 3.2 12.9-11.8 20.4-94.4 49.4-94.4 49.4L551.1 295l-29-21.5z"/><path class="st4" d="M545.7 280s54.7-25.8 101.9-33.3c47.2-7.5 93.3-31.7 97.6-33.8 4.3-2.1 9.7 5.9 6.4 13.4-3.2 7.5-61.2 34.3-99.8 41.8-38.6 7.5-80.5 24.7-80.5 24.7L545.7 280z"/><path class="st4" d="M561.8 298.2c23.6-17.2 61.2-22.5 104.1-25.8s99.8-27.4 107.3-29.5 5.4 5.4 2.1 12.9c-3.2 7.5-73 37-100.9 38.1-27.9 1.1-86.9 22.5-86.9 22.5s-49.3-1-25.7-18.2z"/><path class="st4" d="M588.6 308.9c5.4-5.4 49.4-15.6 97.6-15.6 48.3 0 105.2-17.2 110.5-18.2 5.4-1.1 6.4 8-1.1 15.6-7.5 7.5-108.4 26.8-117 30-8.6 3.2-75.1 13.9-75.1 13.9s-20.2-20.3-14.9-25.7z"/><path class="st4" d="M603.7 328.3c21.5-8.6 76.2-10.2 105.2-7 29 3.2 95-10.7 101.4-10.7s4.8 2.7 3.8 10.2c-1.1 7.5-50.4 22-94.4 23.1-44 1.1-105.2 8-105.2 8s-32.3-15.1-10.8-23.6z"/><path class="st4" d="M601.5 351.9c21.5-10.7 73-13.9 111.6-10.2 51.5 9.1 109.4 4.8 111.6 8.6 2.1 3.8-6.4 16.1-39.7 17.2-33.3 1.1-112.7-1.6-93.3-2.7 19.3-1.1-83.7 9.7-83.7 9.7s-27.9-11.9-6.5-22.6z"/><path class="st4" d="M613.3 366.3c13.9-4.8 62.8-7 93.9 2.7 31.1 9.7 117.5 19.3 117.5 19.3s2.1 9.7-15 15-126.6-12.9-144.9-12.9-55.8 10.8-55.8 10.8l4.3-30"/><path class="st4" d="M615.5 389.4s29.5-3.8 54.2.5c12.1 2.1 49.4 13.9 84.3 22.7 36.6 9.2 70.7 15.3 70.7 17.5 0 4.3-11.8 10.7-38.6 9.7-26.8-1.1-106.2-21.5-106.2-21.5l-75.1 4.3 10.7-33.2z"/><path class="st4" d="M612.2 413c48.3-4.3 84.8 7.5 114.8 26.8s84.8 26.3 90.1 27.4c5.4 1.1 7.5 10.2-1.6 12.3-26.3 7.5-80.5-10.7-107.3-23.6-26.8-12.9-71.9-22-91.2-20.9-19.2 1.1-53-17.7-4.8-22z"/><path class="st2" d="M540.1 275.5s30.5-23.5 76.4-37c55.4-16.4 72.6-23.4 88.5-35.4M565 284.3s40.2-16.9 89.5-27.4c25.6-6.4 89.2-33.8 89.2-33.8M583.5 301.2s24.9-13.7 93.3-17.7c28.2-3.2 89.3-29.8 89.3-29.8M600.4 320.5c17.7-11.3 33.5-11.8 89.1-15 55.5-3.2 99.3-20.4 99.3-20.4M609.3 339.8c18.5-7.2 60.4-12.1 98.2-8 37.8 4 94.2-12.1 94.2-12.1M612.5 357.5s43.5-8.9 103-3.2c59.6 5.6 92.5 1.6 92.5 1.6M616.5 378.5c32.2-6.4 63.6-4 97.4 4 33.8 8 95 12.9 95 12.9M614.1 401.8s53.1-6.4 95.8 10.5c42.7 16.9 86.1 20.1 86.1 20.1M615.7 425.1c42.7-6.4 70.8 4.8 98.2 21.7 27.4 16.9 85.3 25.8 85.3 25.8M512.5 444.1c-7.5-11.8-26.8-30-26.8-30l39.7-22.5s2.1 21.5 9.7 34.3c5.3 5.4-15.1 30-22.6 18.2z"/><path class="st3" d="M518.9 758.5c34.3-5 78.3-7.4 96.1-8.3-2.1-5.9-4.6-11.7-7.2-17.3-18.3.6-65.4 2.7-94.3 7.8-30.5 5.4-78.4-.9-93.1-3.1-.8 6.3-1.6 12.4-2.3 17.9 20 2.8 67 8 100.8 3z"/><path class="st0" d="M513.5 740.8c28.9-5.1 76-7.2 94.3-7.8-7.8-16.9-16.5-31-19.7-35.6-5.9-8.6-5.4-51.5-7.5-67.6-2.1-16.1-20.9-31.1-20.9-31.1l-92.3-4.3s-13.9 40.8-25.8 46.1c-7.9 3.6-15.9 56.6-21.2 97.3 14.7 2.1 62.5 8.4 93.1 3zM518.9 758.5c-33.7 4.9-80.7-.2-100.8-2.9-1.4 11.5-2.6 20.7-3.3 25.4 5.4 6.4 59.6 10.2 108.9 4.8 49.4-5.4 77.8-5.9 98.2-8-.9-8.7-3.5-18.2-6.9-27.6-17.8.9-61.8 3.3-96.1 8.3z"/><path class="st1" d="M373 537.5s-17.7 6.4-24.1 5.4c-6.4-1.1-62.8-21.5-82.1-27.9-2.1-6.4-18.2-27.9-25.8-32.2-5.3-3.1-14.5-4.5-21.2-5l-3.9 17.9c7.6 10 19.5 26.7 21.8 32.2 3.2 7.5 13.9 11.8 20.4 11.8 3.2 6.4 42.9 29 42.9 29l24.1 12.9 29.5 3.2 26.8-22.5-8.4-24.8z"/><path class="st0" d="M213.1 477.4c-5.4 0-6.4 7.5-3.2 10.7.9.9 3.2 3.7 6.1 7.5l3.9-17.9c-2.9-.2-5.3-.3-6.8-.3z"/><path class="st6" d="M193.8 447.4c-16.1-11.8-18.2-31.1 1.1-38.6s36.5 13.4 44 28.4c7.5 15 29 38.1 56.9 42.4-17.2-13.9-30-23.6-41.8-52.6-11.8-29-35.4-63.3-74-47.7-13.9 7.5-30 27.4-21.5 49.9 8.5 22.4 22.4 19.2 35.3 18.2z"/><path class="st7" d="M486.7 277.8c88-24.7 125.5 38.6 130.9 68.7 5.4 30-2.1 79.4 0 95.5 2.1 16.1-53.6-4.3-53.6-4.3s-158.8-122.3-77.3-159.9z"/><path class="st4" d="M632.6 566.5s16.1 47.7 78.3 87.4S800 722 822.5 762.8c-4.3-25.8-6.4-57.9-32.2-86.9s-92.5-53.6-108.9-85.8c-14.6-28.6-13.4-39.7-13.4-39.7L644.4 530l-11.8 36.5z"/><path class="st0" d="M226 723.6c1.1 5.4 7.5 5.9 10.7 1.6 1-1.3 2.3-4.4 3.6-8.2l-12-4.6c-1.6 5.5-2.7 9.6-2.3 11.2z"/><path class="st1" d="M424.5 493.5s-18.2 7.5-37.6 22.5-33.8 54.2-40.2 57.4c-6.4 3.2-24.1 10.2-24.1 10.2L299 609.4s-30 11.8-38.6 13.9c-8.6 2.1-30 18.2-34.3 27.9-4.3 9.7-3.2 26.8-7 37.6-2.1 6.4 4.8 4.3 8 3.2 3.2-1.1 7.5-26.8 11.8-24.7 0 13.4-6.7 32.8-10.5 45.2l12 4.6c3.2-8.6 7-20.7 9.2-23 3.2-3.2 11.8-5.4 16.1-13.9 4.3-8.6 0-33.3 5.9-36.5 13.4-7.5 62.8-13.9 88.5-32.2 25.8-18.2 66.5-61.2 66.5-61.2l20.4-46.1-22.5-10.7z"/><path class="st0" d="M221.8 674.1c-.6 5.3-1.3 10.5-2.8 14.7-2.1 6.4 4.8 4.3 8 3.2 1.7-.5 3.5-7.5 5.6-13.9l-10.8-4z"/><path class="st4" d="M519.4 251s26.3-28.4 61.7-46.7 83.7-51 96.6-77.8c4.3-9.7 1.1-13.9-3.2-12.9-2.3.5-20.4 18.3-41.7 32.9-19.3 13.1-41.1 22.7-55.9 30.4 61.2-47.2 74.6-69.7 76.7-79.4 2.1-9.7-1.6-13.9-8-10.7-3.2 1.6-16.9 18.8-34.5 33.4-17.5 14.6-39 26.7-47.1 31 8.6-7.5 40.8-27.4 56.9-74.6 1.1-9.7 1.1-12.3-3.2-13.4s-37.2 44.9-68.6 66.6c8.9-12.1 15.8-20.1 23.6-33.1 8.6-14.4 15.5-30.2 15.5-33.5 0-6.4-4.8-11.3-10.2-5.4-5.4 5.9-35.4 46.7-71.9 77.8-38.1 32.5-46.5 82.8-46.7 84.2l2.7 20.4 57.3 10.8z"/><path class="st2" d="M509.2 241.3c9.7-22.5 44-52.6 67.6-64.4M493.1 228.1c8.6-24.9 52.6-65.2 70.8-77M475.4 223.1c17.2-54.7 61.7-79.3 73.6-93.3M515.2 244.1s31.4-40.2 71.6-60.4c62.8-27.4 82.9-57.1 82.9-57.1M498.5 234.9s26.3-40.7 62.6-64.9 74-53.9 84.5-73.2M483 224.8s13.5-36.7 57.9-73.2c45.1-37 56.6-48.6 67.1-67.1"/><path class="st2" d="M468 219.1s11-40.2 50.4-77.3 60.4-73.2 60.4-73.2"/><path class="st3" d="M486.7 277.8s32.2-23.6 32.2-27.9-4.3-7.5-9.7-8.6c-1.1-4.3-6.4-6.4-10.7-6.4-1.1-7.2-8.6-9.7-13.9-7.2-1.1-4.6-4.3-6.7-10.7-4.6-1.1-4.3-8.6-5.4-12.9-3.2 0-5.4-8.6-6.4-11.8-2.1-3.2 4.3-7.5 38.6-7.5 38.6l45 21.4z"/><path class="st2" d="m470.1 237.6 3.7-14.5M477.4 241.7l7.2-14.1M490.2 247.3l8.3-12.4M498.3 254.5l10.9-13.2M458.1 237.6l2.9-17.7"/><path class="st0" d="M439.5 256.4s19.3-15 38.6-2.1 17.2 32.2 17.2 32.2L478.1 310l-40.8-16.1 2.2-37.5z"/><path class="st2" d="m450 270.6 1.6-8.8M460.5 272.2l2.4-9.6M468 274.7l7.2-7.3M475 281.4l9.6-4.3"/><path class="st3" d="M464.2 302.5c66.5-56.9 118.6 18.2 123.9 50.4 5.4 32.2-.5 50.4 2.7 71.9 3.2 21.5-63.3 24.7-63.3 24.7l-27.9-74s-102-16.1-35.4-73z"/><path class="st8" d="M558.6 423.8s11.8-55.8-9.7-97.6c-23.6-45.1-75.1-24.7-75.1-24.7l-19.3 54.7 67.6 86.9 36.5-19.3z"/><path class="st9" d="M355.3 178c19.9 35.4 48.8 27.6 56.3 38.6s10.7 29 10.7 29l-2.1 37.6s22.5 16.1 20.4-3.2 13.9-47.2 0-63.3c-18.3-18.3-67.6-25.8-85.3-38.7z"/><path class="st9" d="M334.3 211.3c29 31.1 55.8 16.1 65.5 20.4 9.7 4.3 11.8 10.7 11.8 10.7l-2.1 22.5 5.4 22.5 15-11.3s-4.8-9.7-2.7-18.2c2.1-8.6 13.4-20.9-2.7-37s-51.5 4.3-90.2-9.6z"/><path class="st9" d="M403 281c-2.1-17.2 7.5-34.3 3.2-36.5-4.3-2.1-20.4 11.8-30 11.8-9.7 0-18.2-3.2-22.5-12.9 19.3 4.3 35.4-5.6 45.1-10.7 9.7-5.1 17.2 1.1 18.2 9.7 1.1 8.6-4.3 25.8 1.1 36.5s-12.9 19.3-15.1 2.1z"/><path class="st1" d="M435.2 616.9s-2.1 23.6 6.4 25.8c16.1 3.2 35.4-24.7 51.5-27.9s44-1.1 66.5-16.1c-11.8-13.9-16.1-24.7-16.1-24.7L506 474.2l-57.9-60.1-55.8 18.2 20.4 79.4-1.1 83.7 23.6 21.5z"/><path class="st1" d="M471.7 611.5c-4.3 5.4-19.9 14.5-33.8 13.4-13.9-1.1-18.8-10.2-18.8-10.2L408.2 582l39.4-62.8"/><path class="st1" d="M457.7 584.7c-15 5.4-25.2 28.4-34.9 31.7-14.5 4.8-16.4.7-24.1.4-4.7-.2-8.5 1.7-9.7.1-3.2-4.3 2.1-7.5 2.7-12.9.5-5.4 1.6-33.3.5-24.7-1.1 8.6 10.7-73 10.7-73l-7.5-13.4 8.6-41.3 84.8-17.2"/><path d="M324.7 462.4s-3.2 7.5 0 12.9c4.3 2.1 23.6 0 26.8 7.5-6.4 0-17.7 5.4-19.9 10.7-2.1 5.4 8 5.4 8 5.4s7.5 11.3 20.4 11.3 51.5-15.6 62.2-47.7l6.4-6.4-114.7 5.8c4.8 1.1 10.8.5 10.8.5z" style="fill:#ff0013"/><path d="m427.7 385.1-42.9-2.1s-30 3.2-45.1 0c-10.7 13.9-7.5 30-9.7 34.3-2.1 4.3-17.7 22-20.9 29.5-3.2 7.5-2.7 10.2 1.6 13.4.9.7 2.1 1.2 3.3 1.5l114.7-5.8 20.4-20.4-21.4-50.4z" style="fill:#aa4900"/><path class="st0" d="M346.2 421.9c-5.6.8-8 20.1 10.5 20.9 12.1 0 20.1-12.9 29.8-14.5-4.1-6.4-34.7-7.2-40.3-6.4z"/><circle cx="359.3" cy="429.2" r="7.2"/><path class="st1" d="M309.1 446.8c-3.2 7.5-2.7 10.2 1.6 13.4 4.3 3.2 10.1 3.2 13.9 2.1s7.8 1.7 11.1-3.2-4-8.3-4-8.3"/><path class="st2" d="M339.7 383c-10.7 13.9-7.5 30-9.7 34.3-2.1 4.3-17.7 22-20.9 29.5-3.2 7.5-2.7 10.2 1.6 13.4s13.9 2.1 13.9 2.1-3.2 7.5 0 12.9c4.3 2.1 23.6 0 26.8 7.5-6.4 0-17.7 5.4-19.9 10.7-2.1 5.4 8 5.4 8 5.4s7.5 11.3 20.4 11.3 51.5-15.6 62.2-47.7l26.8-26.8-21.5-50.4-42.9-2.1c.3-.1-29.8 3.1-44.8-.1z"/><path class="st12" d="M361.2 390.5s48.3 16.1 52.6 20.4c4.3 4.3 2.1 26.8 2.1 26.8l13.9 8.6h41.8l24.7 8.6 3.2-79.4-49.4-23.6-42.9-15-19.2 13.9-26.8 39.7z"/><path class="st3" d="M214.2 312.2s-36.2-7.7-46.6-4.5c-10.5 3.2-18.2 25.8-38.4 33.8 6.4 3.2 17.4-1.1 17.4-1.1s0 2.7-5.6 13.1c19.3-7.2 26.3-33.3 29.5-34.9 3.2-1.6 18 4.3 18 4.3l18.5-1.6 7.2-9.1z"/><path class="st0" d="M161.4 298s-2.7 16.9 8.6 27.6c.8-15.3 3.2-27.6 3.2-27.6h-11.8 0z"/><path class="st4" d="M354.7 321.8c-6.4-1.1-39.7 1.1-56.9-3.2-17.2-4.3-39.2-34.3-49.9-42.9-10.7-8.6-52.6-11.8-62.2-9.7-9.7 2.1-27.9 11.8-32.2 16.1-4.3 4.3 2.7 19.3 8 19.3s41.8-2.1 46.1-1.1c4.3 1.1 6.4 6.4 6.4 11.8S179.7 325 179.7 325s5.4 7.5 14.5 8.6c9.1 1.1 25.2-15 35.9-13.9 18.2 1.1 33.8 32.2 57.4 37.6s46.7 0 60.6 5.4c13.9 5.4 23.6 15 23.6 15l19.3-1.1 15-26.8-27.7-24.8s-17.1-2.1-23.6-3.2z"/><path class="st0" d="M212.6 276.6c-11.4-.1-20.9-2.8-25.8-.4-4.8 2.4-8 15.3 8.9 14.5 16.9-.7 18.5-9.6 16.9-14.1z"/><circle class="st2" cx="198.1" cy="278.7" r="4.8"/><path class="st5" d="M186.9 276.3s.8-8 7.2-11.3 17.7-1.6 17.7-1.6 5.6-6.4 13.7-3.2c8 3.2 7.2 12.1.8 16.1-2.4.8-39.4 0-39.4 0z"/><path class="st5" d="M211.8 263.4s0 6.4 8.9 4"/><path class="st8" d="M307.5 371.7s3.2 9.1 9.7 12.3c4.8 2.4 33.4 6.6 53.5 7.2l3.4-15.7c-17.9-.1-66.6-3.8-66.6-3.8zM382.4 320.5c1.6-9.7 20.9-29 20.6-39.5 0 0-24.7-20.4-57.9-18.2s-53.6 41.8-53.6 41.8 29 0 36.5 2.1 42.9 35.4 65.5 49.4c-1.4-18.7-12.7-25.9-11.1-35.6z"/><path class="st12" d="M570.4 360.4c-45.1-4.3-45.1-17.2-45.1-17.2s32.2-4.3 37.6-15c-39.7 4.3-47.2-2.1-47.2-2.1s19.3-9.7 26.8-18.2c-15 4.3-40.8 5.4-59-6.4-16.7-10.8-37-23.4-49.4-26.3 11.7 10.6 44.3 43.5 56.1 88 14.5 54.7 1.6 118.3 1.6 118.3l2.5 25.9 6.3-1 30-75.1-7.5-27.9s11.8 9.7 35.4 6.4c-24.7-9.7-27.9-23.6-27.9-23.6s16.1 12.9 39.7 8.6c-17.2-9.7-40.8-27.9-40.8-27.9s34.5 1.1 40.9-6.5z"/><path d="M490.2 363.2c-11.8-44.6-44.4-77.4-56.1-88-1.1-.3-2.2-.5-3.2-.5-11.8-1.1-27.9 6.4-27.9 6.4.3 10.5-19 29.8-20.6 39.5-1.6 9.7 9.7 16.9 10.9 35.6 2.1 4.3-5.4 18.2-13.9 19.3-1.1.1-3 .2-5.4.2l-3.4 15.7c6.9.2 12.7.1 16.3-.8 13.9-3.2 27.9-39.7 27.9-39.7s35.4 7 51.5 25.2 7.5 71.9 7.5 71.9L463 477.4l8.6 33.3 22.6-3.3-2.5-25.9c.2 0 13-63.6-1.5-118.3z" style="fill:#591b00;stroke:#000;stroke-width:5.3649;stroke-linecap:round;stroke-linejoin:round;stroke-miterlimit:10"/><path class="st0" d="M421.3 298.2c-9.7 5.4-8.3 23.9-1.6 29 7 5.4 18.8 0 25.2 1.1 6.4 1.1 20.4 4.3 20.4 4.3s-38.7-33.3-44-34.4z"/><path class="st2" d="M421.3 298.2c-11.8 1.1-22.5 16.1-15 27.9"/><path class="st0" d="m421.3 298.2 8.9 6.9c.4-.2.8-.3 1.2-.4-4.9-3.6-8.8-6.2-10.1-6.5zM465.2 332.5s-13-11.2-24.9-20.8c0 .4-.1.8-.1 1.2l25 19.6zM430 305.1c-2.5 1.1-4.2 3.6-4.2 6.6 0 4 3.2 7.2 7.2 7.2 3.5 0 6.5-2.6 7.1-5.9l-10.1-7.9z"/><path class="st0" d="M440.3 311.8c-3.2-2.6-6.3-5-9.1-7.1-.4.1-.8.3-1.2.4l10.1 7.9c.2-.4.2-.8.2-1.2z"/><path class="st4" d="M441.6 477.4s-19.3 64.4-19.3 79.4 7.5 15 15 4.3 20.4-79.4 20.4-79.4l-16.1-4.3zM469.5 471s32.2 68.7 23.6 101.9c-25.8-12.9-35.4-91.2-35.4-91.2l11.8-10.7z"/><path class="st2" d="m432.3 553.1 16.9-74.8M484.6 550.7l-18.5-70.8"/><circle class="st7" cx="449.4" cy="456.5" r="27.9"/><circle class="st3" cx="449.4" cy="456.5" r="9.7"/><path class="st4" d="M628.3 455.9c15 21.5 32.2 33.3 88 64.4 55.8 31.1 78.3 85.8 84.8 111.6-24.7-34.3-63.3-61.2-99.8-79.4-36.5-18.2-67.8-43.7-67.8-43.7s-20.2-74.3-5.2-52.9z"/><path class="st4" d="M636.9 505.3s36.5 50.4 67.6 65.5c31.1 15 71.9 41.8 81.5 55.8 9.7 13.9 21.5 34.3 25.8 62.2-37.6-47.2-90.1-69.7-118-88s-78-65.4-78-65.4l21.1-30.1z"/><path class="st7" d="M635.8 518.2c16.1-8.6 31.7-2.1 30.6 11.8-1.1 13.9-19.9 31.7-19.9 31.7L623 550.4s-3.2-23.6 12.8-32.2zM619.2 558.4s-7.5 10.7-9.7 35.4c-2.1 24.7 4.3 61.7 5.4 67.1 1.1 5.4 28.3 8.6 39.6-2.1-5.8-8.6-16.6-31.1-17.7-48.3s-1.1-44-1.1-44l-16.5-8.1z"/><path class="st2" d="M648.7 532.2s-30.6 33.8-25.8 83.7c3.1 32.2 11.7 49.3 11.7 49.3"/><path class="st7" d="M623 550.4s22.5 4.8 23.6 11.3-5.4 11.3-9.7 12.3c-4.3 1.1-22.5-13.9-22.5-13.9l8.6-9.7z"/><circle class="st7" cx="561.8" cy="498.3" r="79.9"/><circle class="st6" cx="561.8" cy="498.9" r="66.5"/><path class="st0" d="M236.7 519.8c4.3-5.9 0-9.1 0-9.1s4.3-8.6-1.1-11.8c-1.6-.9-4.3-1.7-7.3-2.6l1.8 41.6c1.8-.2 3.3-.4 4.5-.9 5.4-2.1 3.2-9.1 3.2-9.1s3.2-6.5-1.1-8.1z"/><path class="st1" d="M221.2 493.6c-5.3-2.6-9.3-6.6-11.4-5.5-4.3 2.1-3.2 11.8-2.1 15-4.8 2.1-4.8 10.7-1.1 12.9-3.8 4.3-3.8 10.7 2.1 10.7 1.1 3.2-1.3 6.4 2.1 9.7 4.9 4.6 12.7 2 19.2 1.4l-1.8-41.6c-2.2-.7-4.7-1.5-7-2.6z"/><path class="st2" d="M207.7 503.2c10.5 6.5 29 7.5 29 7.5M206.7 516c10.5 6.5 30 3.8 30 3.8M208.8 526.8c10.5 6.5 29 1.1 29 1.1"/><path class="st3" d="M312.9 531c-3.2 11.9-11.8 37.6-11.8 37.6s4.8 8 10.2 7 5.9-2.7 3.8-9.1c-2.1-6.4-15-11.8-15-11.8l4.3-12.9s12.9 8.6 18.2 6.4c5.4-2.1 8-8.6 5.9-12.9-2.2-4.3-15.6-4.3-15.6-4.3z"/><path class="st7" d="M301.1 568.6s-39.7-22.5-42.9-29l8.6-24.7c9.7 3.2 28.8 10 46.1 16-3.2 12-11.8 37.7-11.8 37.7z"/><path class="st3" d="M318.2 629.8c2.1-5.4-13.9-34.3-17.2-34.3 0 0 8.6-13.9 15-12.9 6.4 1.1 10.7 6.4 8.6 10.7s-21.5 12.9-21.5 12.9l5.4 10.7s21.5-10.7 25.8-7.5c4.3 3.2 4.8 8.6 3.8 13.9-1.1 5.4-19.9 6.5-19.9 6.5z"/><path class="st7" d="M260.3 623.3c1.1-5.4 37.6-27.9 40.8-27.9s19.3 29 17.2 34.3c-2.1 5.4-37.6 15-46.7 13.9-1.6-11.7-11.3-20.3-11.3-20.3z"/></svg>