<svg version="1.1" id="Calque_1" xmlns="http://www.w3.org/2000/svg" x="0" y="0" viewBox="0 0 900 900" style="enable-background:new 0 0 900 900" xml:space="preserve"><style>.st0,.st1{fill:#7c7c7c;stroke:#000;stroke-width:4.8138;stroke-linecap:round;stroke-linejoin:round;stroke-miterlimit:10}.st1{fill:#fff}.st2{fill:red}.st3{fill:none;stroke:#000;stroke-width:4.8138;stroke-linecap:round;stroke-linejoin:round;stroke-miterlimit:10}.st4{fill:#ffce00}.st5{fill:#7c7c7c}.st6,.st7,.st8{fill:red;stroke:#000;stroke-width:4.8138;stroke-linecap:round;stroke-linejoin:round;stroke-miterlimit:10}.st7,.st8{fill:#316800}.st8{fill:#ffce00}.st10{fill:#fff}.st11{fill:#7c5900}.st12{stroke:#000;stroke-width:1.2035;stroke-miterlimit:10}</style><path class="st0" d="m316.8 381.8 13.2-4.5 18.5 13.3 2.4 36.9-20.1.8-22.8-18.9z"/><path class="st1" d="M561.1 687.8s54.6 16 99.5 14.4c80.2-7.2 114.7-30.5 114.7-30.5L740 622l-54.6-107.5-87.5 9.6-12.8 76.2-24 87.5z"/><circle class="st2" cx="679.7" cy="680.5" r="7.5"/><circle class="st2" cx="702.9" cy="676" r="7.5"/><circle class="st2" cx="676.5" cy="655.6" r="7.5"/><circle class="st2" cx="695.7" cy="649" r="7.5"/><circle class="st2" cx="669.2" cy="620.1" r="7.5"/><circle class="st2" cx="683.7" cy="594.2" r="7.5"/><circle class="st2" cx="674" cy="571.3" r="7.5"/><circle class="st2" cx="598.2" cy="645.9" r="7.5"/><circle class="st2" cx="583.2" cy="674.2" r="7.5"/><circle class="st2" cx="713.8" cy="618.3" r="7.5"/><circle class="st2" cx="739" cy="667" r="7.5"/><circle class="st2" cx="637.9" cy="685.7" r="7.5"/><circle class="st2" cx="636.7" cy="658.6" r="7.5"/><circle class="st2" cx="636.1" cy="620.7" r="7.5"/><circle class="st2" cx="613.9" cy="600.2" r="7.5"/><circle class="st2" cx="620.4" cy="576.8" r="7.5"/><circle class="st2" cx="663.2" cy="552.7" r="7.5"/><circle class="st2" cx="623.5" cy="555.1" r="7.5"/><path class="st1" d="m448 705.5 69-3.2-.8-32.1-28.9-70.6-49.8 12-4 47.3zM387 760.8l-56.2-15.2 22.5-59.4 43.3-63.4 25.7 52.2-19.3 90.7-11.2 3.2z"/><path class="st3" d="m387 757.6 16-93"/><path class="st4" d="m410.3 626.9-20.9 19.3s5.9 13.9 12.1 26.2c23.4-9.4 44.5-11.8 54.6-12.4-3.3-18.7-9.7-38.7-9.7-38.7l-36.1 5.6z"/><path class="st5" d="M410.3 687c-3.2 12-3.2 42.5-3.2 42.5l35.3 4s16.4-36.9 15.6-57.8c-.2-4.8-.9-10.3-1.9-15.9-10.1.6-31.1 2.9-54.6 12.4 3.1 6 6.1 11.5 8.8 14.8z"/><path class="st4" d="M537.8 597.2 486.5 610s3.2 20 8.4 41.4c22.3-5.1 44.2-6.3 54.9-6.5-5.1-22.1-12-47.7-12-47.7z"/><path class="st5" d="M549.8 644.8c-10.8.3-32.7 1.5-54.9 6.5 4.1 16.8 9.2 34.5 14.9 43.7 0 24.1 4.8 40.1 4.8 40.1l41.7-6.4s.8-40.9-1.6-59.4c-.8-5.6-2.7-14.7-4.9-24.5z"/><path class="st3" d="M389.4 646.1s12.8 30.5 20.9 40.9c-3.2 12-3.2 42.5-3.2 42.5l35.3 4s16.4-36.9 15.6-57.8c-.8-20.9-11.6-54.6-11.6-54.6l-36.1 5.6-20.9 19.4zM486.5 610s10.4 64.2 23.3 85c0 24.1 4.8 40.1 4.8 40.1l41.7-6.4s.8-40.9-1.6-59.4-16.8-72.2-16.8-72.2L486.5 610z"/><path class="st6" d="M448 787.3s7.6 14.1 17.2 19.3c12.5 6.7 24.9 6 26.5 9.2 1.6 3.2-6.8 10-6.8 10L444 814.6l-7.2-20.1 11.2-7.2z"/><path class="st6" d="M443.9 794.5s8.8 14.4 21.7 20.1c12.8 5.6 22.9 8 23.7 11.2s-7.6 8-7.6 8l-45.7-16-5.6-16 13.5-7.3z"/><path class="st1" d="M383.8 799.3s-12.8 8-11.2 24.9c5.7 4.5 27.1 8.7 46.8 11.9l2.2-34-37.8-2.8z"/><path class="st0" d="M462.4 820.2c-20.1-7.2-24.1-16.8-24.1-16.8l-16.8-1.2-2.2 34c19.1 3 36.7 5 36.7 5s11.2 8 13.6 8.8c2.4.8 5.6-3.2 5.6-3.2s5.6 1.6 7.2-3.2c4 .8 7.2-.8 7.2-4 .1-3.3-15.2-15.4-27.2-19.4z"/><path class="st3" d="M473.7 833.7s7.2 7.2 8.8 9.8M464.6 836.1c2.4 1.8 10.6 10.6 10.6 10.6"/><path class="st0" d="m391.8 768.9-4.8 24 46.5 6.4 4.8-11.2-5.6-13.6z"/><path class="st6" d="M427.9 794.5s2.4-13.6 13.6-14.4c6.4.8 9.6 8 10.4 12.8.8 4.8-10.4 8.8-10.4 8.8l-13.6-7.2z"/><path class="st7" d="m399.8 732-5.6 33.7 41.7 8.8 7.2-34.5z"/><path class="st6" d="M397.4 722.3c-4 0-4.8 8-1.6 12 3.2 4 48.9 11.6 52.1 9.2 3.2-2.4 4-6.8 1.6-10.8-2.3-4-48.1-10.4-52.1-10.4zM387 760.8c-3.2 2-4.8 8-3.2 10.4 1.6 2.4 50.5 11.2 54.6 9.6s3.2-7.2.8-9.6c-2.5-2.3-49-12.4-52.2-10.4zM384.6 786.5c-3.2-.8-4.8 9.6-.8 12.8 4 3.2 53 8.8 56.2 7.2 3.2-1.6 4.4-10 1.2-10.8s-53.4-8.4-56.6-9.2z"/><path class="st1" d="M372.5 824.2c3.2-.8 84.2 5.6 85 8.8s2.4 6.4-1.6 8c-4 1.6-81.8-6.4-84.2-7.2-2.4-.8-2.4-8.8.8-9.6z"/><path class="st6" d="M595 780.9s12.9 13.1 22.2 13.8c10.9.9 25.5-2 27.9.6 2.5 2.6-3.6 11.6-3.6 11.6l-42.4 1.2-12.8-17 8.7-10.2z"/><path class="st7" d="m518.6 742.4 11.2 40.1 41.7-4.8-5.6-40.9z"/><path class="st6" d="M593.3 789s12.7 11.2 26.6 12.8c13.9 1.6 24.2 1 25.9 3.8 1.7 2.8-4.9 9.9-4.9 9.9l-48.4-2-10.1-13.7 10.9-10.8z"/><path class="st0" d="m533 787.3 2.4 20.1 44.1-7.2-3.2-23.3zM650.1 818.6c-.9-3.1-19.1-10.1-31.7-10.4-21.3-1-28-9.1-28-9.1l-11.6 2.6 5.2 33.9c18.3-2.6 34.3-5.7 34.3-5.7s13.1 4.4 15.6 4.5c2.5.1 4.4-4.7 4.4-4.7s5.9-.1 6-5.2c4.2-.4 6.8-2.9 5.8-5.9z"/><path class="st1" d="M537.1 811.2s-9.9 11.4-3.4 27.1c7 2.7 30.1.3 50.5-2.6l-5.2-33.9-41.9 9.4z"/><path class="st6" d="M571.5 801.8s-4.9-17.6 5.6-21.7c6.4-1.1 14-2.2 17.9.8 9.4 7.2-1.9 15.7-1.9 15.7l-21.6 5.2z"/><path class="st6" d="M525 779.3c-2.5 2.8-.6 10.2 1.6 12 2.2 1.8 53.9-4.6 57.3-7.3 3.4-2.7 1-7.9-2-9.4-3.1-1.6-54.4 1.8-56.9 4.7zM529.8 806.6c-3.3.2.8 7.7 5.6 9.6 4.8 1.9 51.9-8.7 54.6-11.2 2.6-2.5.9-7.4-2.4-7.2-3.3.1-54.5 8.6-57.8 8.8zM511.7 730.8c-3.2 0-3.2 12 1.6 14.4 4.8 2.4 55.8-3.6 56.6-7.6.8-4 2.4-12.8-2.4-14.4-17.6 4.7-52.5 7.6-55.8 7.6z"/><path class="st1" d="M533.6 838.3c2.8-1.7 82.2-19.3 83.9-16.4 1.7 2.8 4.2 5.4.8 8.1-3.4 2.7-80.1 17.8-82.7 17.8-2.4-.2-4.8-7.9-2-9.5z"/><path class="st3" d="M644.4 824.5c-2.2-4.1-12.5-7.1-12.5-7.1M626.5 823.5c4.2 1.2 11.9 6.3 11.9 6.3"/><path class="st6" d="M350.1 678.2c-5.5 1.7-12.3.6-17.5-.8-.7 3.3-1.5 6.7-2.6 10.5 7.2 4.8 16.8 6.4 24.9 2.4 8-4 28.9-42.5 67.4-59.4s109.9-18.5 109.9-18.5l5.9-9.6c-20.7.1-89.4 1.9-123.1 18.5-47.3 23.2-54.5 53.7-64.9 56.9z"/><path class="st1" d="M502.5 568.3 383 577.9l-26.5 11.2s-17.7 16.8-23.3 40.9c-.7 8.6 4.9 20.9-.6 47.3 5.1 1.4 11.9 2.6 17.5.8 10.4-3.2 17.7-33.7 65-57 33.7-16.6 102.3-18.3 123.1-18.5l10.9-17.7-46.6-16.6z"/><path class="st6" d="M454.4 561.1c38.2-2.5 71.3-5.1 83.4-6-1.5-4.8-2.7-9.3-3.2-12.4v-.2c-16 2-48.3 5.5-81.8 6.7-38.1 1.3-85.7.5-102.7.2-.8 4.4-1.8 8.4-2.7 12.2 17.2.4 67.7 2.1 107-.5z"/><path class="st1" d="M452.8 549c33.5-1.1 65.8-4.7 81.8-6.7-1.2-9.1-.6-21.6.2-24.2-1.7-6.5-5.7-25.4-5.7-25.4l-12-58.2 2.4-18.1 6.4-43.3s-10.4-4.8-18.5-2.4-11.2-1.6-11.2-1.6l-44 .8-65.9-16.8-44.1 14.4s-8.8 2.4-13.6 10.4c8.8 10.4 14 26.1 14 26.1l10.8 62.2s1.6 57-2.4 77.8c-.2 1.7-.5 3.4-.8 5 16.9.6 64.4 1.3 102.6 0zM542.2 567.8c-13.2 2.4-47 8.2-92.7 12.5-49.7 4.7-93.7-.2-106.8-1.8-.6 2.4-1.1 4.9-1.5 7.5 6.4 12 73.8 8.8 111.5 5.6 65-7.2 96.3-6.4 96.3-6.4s-3.3-8-6.8-17.4z"/><path class="st3" d="M360.5 592.4v-17.7M385.4 593.2l.8-15.3M409.5 594l.8-19.3M433.5 592.4v-16.9M456.8 590.8l-4-16.1M479.3 587.5l-2.5-14.4M499.3 585.9l-1.6-15.2M517 583.5l-.8-15.2M530.6 584.3l-2.4-16"/><path class="st8" d="M449.6 580.3c45.7-4.3 79.5-10.1 92.7-12.5-1.6-4.2-3.1-8.6-4.5-12.8-12.1 1-45.2 3.5-83.4 6-39.3 2.6-89.8 1-107.1.3-1.6 5.9-3.2 11.3-4.6 17.1 13.1 1.8 57.2 6.6 106.9 1.9z"/><path class="st0" d="m467.7 336.7 5.9 19.8-6.5 15.7-31.3-2.4-1.2-43.4z"/><path d="M307.6 167.1s-32.9-38.5-37.7-45.7c8 0 17.7 8 17.7 8s-6.4-11.2-7.2-17.7c8.8 3.2 17.7 13.6 17.7 13.6s-3.2-14.4-.8-21.7c7.2 3.2 20.1 12 20.1 12s-4.8-16-4-23.3c9.6 2.4 20.1 14.4 20.1 14.4s-4-17.7-2.4-26.5c6.4 3.2 17.7 16 17.7 16s-2.4-13.6.8-24.1c6.4 6.4 16.8 19.3 16.8 19.3s-4-17.7-1.6-25.7c5.6 4.8 14.4 20.1 14.4 20.1s-2.4-18.5-.8-28.1c6.4 6.4 15.2 20.9 15.2 20.9s-.8-15.2 0-24.9c7.2 6.4 14 20.1 14 20.1s-1.2-16 2-24.1c6.4 8 16.8 42.5 16.8 42.5l5.6 64.2-89.9 44.1-18.5-25.7-16-7.7z" style="fill:#616600;stroke:#000;stroke-width:4.8138;stroke-linecap:round;stroke-linejoin:round;stroke-miterlimit:10"/><path class="st3" d="M287.5 129.4c12 7.2 30.5 31.3 30.5 31.3M297.9 125.4c12.8 10.4 45.7 61 45.7 61M317.2 115.8c6.4 12 35.3 65 35.3 65M333.2 107c6.4 12 33.7 64.2 33.7 64.2M348.5 96.5c6.4 12 35.3 65.8 35.3 65.8M366.1 91.7c6.4 12 28.9 64.2 28.9 64.2M379 86.1c6.4 12 27.3 65.8 27.3 65.8M393.4 78.9c6.4 12 23.3 71.4 23.3 71.4M407.4 74.1c6.4 12 22.9 71.4 22.9 71.4"/><path class="st6" d="M481.7 216.9s19.3-13.6 23.3-12 5.6 12 4.8 14.4c-.8 2.4-28.9 10.4-28.9 10.4l.8-12.8z"/><path class="st6" d="M479.3 221.7s18.1 24.9 20.5 28.9c2.4 4-3.6 8-6.8 6.4-3.2-1.6-21.7-19.3-21.7-19.3l-5.6-10.4 13.6-5.6z"/><path class="st0" d="M162.3 303.5V269s-28.9-6.4-27.3-36.9c1.6-22.5 16.8-36.9 40.9-35.3s36.1 10.4 33.7 39.3-26.4 32.9-26.4 32.9l-.8 36.9-20.1-2.4z"/><path class="st8" d="M315.6 587.5c-7.6 0-14.3 3.9-18.2 9.9 7.2 1.9 17.5 5.6 17 11.4-.5 5.7-12.1 4.2-20.4 2.4 1 11 10.3 19.6 21.6 19.6 12 0 21.7-9.7 21.7-21.7s-9.8-21.6-21.7-21.6z"/><path class="st3" d="M535.4 519.3c-.2-1.8-.4-2-.7-1.1.6 2.2.9 3 .7 1.1z"/><path class="st6" d="m630.1 537 2.8 26.5 24.1-2.4-2.8-25.7z"/><path class="st3" d="m598 702.3 4-25.7"/><path class="st1" d="m586.8 570.7-43.4 16 3.8 14.8 36.4-16z"/><path class="st6" d="m547.2 601.5 3.5 13.3 29.6-14.4 3.3-14.9z"/><path class="st1" d="m551.5 603.6-9.1 2.2c1.9 30.7 19.7 50.3 24.6 55.2 2.6-4.8 3.7-10.7 3.7-15.6-10.4-12.9-19.2-41.8-19.2-41.8z"/><path class="st6" d="m542.4 605.8-11 2.6s-.8 42.5 23.3 61c5.9-.4 9.9-3.9 12.4-8.4-5-4.9-22.8-24.5-24.7-55.2zM349.3 318c-8-14.4-21.7-65-34.5-80.2-9.9-11.8-39.8-27.8-53-34.5-3.1 1.8-5 3.7-5.2 5.7-.8 9.6 25.3 22.9 43.7 42.1 18.5 19.3 19.3 55.8 28.9 69.4 9.6 13.6 31.3 28.1 31.3 28.1l16.3-9.4c-6.3-3.3-22.6-12.4-27.5-21.2z"/><path class="st8" d="M326.8 235.3c15.2 22.5 24.1 61 30.5 73.8 4.4 8.9 14.2 13.9 19.9 16.2l16.2-22.6-14.4-94.6s-14.4 2.4-46.5-8c-16.5-5.4-35.8-5.4-50.8-2.9 10.9 6.4 33.8 21.4 45.1 38.1z"/><path class="st7" d="M357.3 309.1c-6.4-12.8-15.2-51.3-30.5-73.8-11.4-16.7-34.3-31.7-45.2-38.2-8.3 1.4-15.4 3.6-19.8 6.1 13.2 6.7 43.1 22.8 53 34.5 12.8 15.2 26.5 65.8 34.5 80.2 4.9 8.8 14 14.6 20.3 17.9l7.5-10.5c-5.6-2.2-15.4-7.3-19.8-16.2z"/><path class="st0" d="M163.9 496.9s-.8 57 0 61 15.2 4.8 16.8 0c1.6-4.8.8-61 .8-61h-17.6z"/><path class="st6" d="M201.7 498.9c-9.6-50.9-11.2-104.7-11.2-104.7l-7.2-15.2s-3-.8-7-1.3c4.3 62.4 14 110.8 16.7 123.3 2.9-.6 5.8-1.3 8.7-2.1z"/><path class="st1" d="M176.2 377.7c-1.6-.2-3.5-.3-5.3-.2-1.6 22.9.4 104.5 1 125.1 6.7 0 14-.4 21.1-1.6-2.8-12.6-12.5-60.9-16.8-123.3zM158.8 381.2c-2 1.7-3.7 4.1-4.5 7.4-4 16.8-6.4 112.3-6.4 112.3s5.1.8 12.6 1.3c-.7-19.5-3.1-89.2-1.7-121z"/><path class="st6" d="M170.9 377.4c-4.3.1-8.8 1-12.1 3.8-1.4 31.8 1 101.5 1.8 121 3.4.2 7.2.4 11.3.4-.6-20.7-2.6-102.2-1-125.2z"/><path class="st2" d="M303.5 153.5c-.6 4.1.4 9.1 2.6 14.3l26.9-.5c-5.6-8.6-15.9-15.7-29.5-13.8z"/><path class="st10" d="M334 191.2c5.8-3.7 5-14.7-1-23.9l-26.9.5c5.8 14.1 19.7 28.7 27.9 23.4zM378.2 167.9c8 7.2 12 4.8 11.2-6.4-.3-4.7-1.5-14.2-4.7-23.7l-30.9-10.3c.5 21.9 18 34.7 24.4 40.4z"/><path class="st2" d="M357.3 108.6c-2.6 6.9-3.7 13.2-3.5 18.9l30.9 10.3c-4.4-13.3-12.5-26.9-27.4-29.2zM422.3 89.3c-2.9 4-4.8 8.1-6 12.3l27.2 16.1c-2-11.1-7.7-22.7-21.2-28.4z"/><path class="st10" d="M416.3 101.6c-6.5 23.2 10.8 46.3 10.8 46.3l16-3.2s3-13.1.4-27l-27.2-16.1zM290.7 334.8c-10.8-7.6-26.2-.8-32.3 2.5.2 8.6.9 17.4 1.8 19.1 1.6 3.2 12.8 2.4 13.6 0 .8-2.4 1.6-9.6 1.6-9.6 16-.8 12.8 21.7 12.8 21.7l8 4.8s3.8-.5 7.2-2.5c0-6.7-1.3-27.9-12.7-36z"/><path class="st11" d="M309.2 362.9c-1.6-44.9-34.5-37.7-34.5-37.7s-3.2-5.6-6.4-7.2c-1.6 4.8-2.4 8.8-2.4 8.8s-4-8-7.2-6.4c-.4 3.2-.4 10.1-.2 17 6.1-3.2 21.5-10.1 32.3-2.5 11.4 8.1 12.7 29.3 12.8 36 2.7-1.6 5.2-4.1 5.6-8z"/><path class="st12" d="M270.3 336c2.8 0 1.6 5.2-1.2 6-2.9.8-1.7-6 1.2-6z"/><path class="st3" d="M274.7 325.2c2.4 3.6 5.2 11.6 5.2 11.6M292.7 328.4c2.4 3.6 1.6 13.2 1.6 13.2M303.1 338.4c.4 2.8-1.6 10.8-1.6 10.8M284.3 326c2.8 2.8 3.2 12.8 3.2 12.8"/><path class="st3" d="M288.3 368.5s3.2-22.5-12.8-21.7c0 0-.8 7.2-1.6 9.6-.8 2.4-12 3.2-13.6 0s-2.4-28.9-1.6-36.1c3.2-1.6 7.2 6.4 7.2 6.4s.8-4 2.4-8.8c3.2 1.6 6.4 7.2 6.4 7.2s32.9-7.2 34.5 37.7c-.8 8.8-12.8 10.4-12.8 10.4l-8.1-4.7z"/><path class="st1" d="m158.3 362.9-24.9-61.8s48.9-4.8 77.8 5.6c-8.8 20.1-20.9 59.4-20.9 59.4l-32-3.2z"/><path class="st6" d="M215.3 329.2c0 .9-.7 1.6-1.6 1.6h-87.5c-.9 0-1.6-.7-1.6-1.6v-10.4c0-.9.7-1.6 1.6-1.6h87.5c.9 0 1.6.7 1.6 1.6v10.4z"/><circle class="st6" cx="169.2" cy="324.8" r="10"/><path class="st0" d="M185.6 392.6s-26.5 5.6-31.3 1.6c-4.8-4-6.4-25.7.8-33.7 4-3.2 9.6-1.6 9.6-1.6l15.2 6.4 12.8 19.3-7.1 8z"/><path class="st3" d="m159 369.8 21 3.5M159.6 378.2l19.2 1.8M160.8 386l18 .6"/><path class="st0" d="M257 396.6s-55.4-17.7-57.8-20.9c-2.4-3.2-6.4-14.4-10.4-15.2s-17.2-3.6-20.5-3.6c-3.2 0-5.2 2-3.6 5.2s12.8 7.2 15.2 11.2c2.4 4-2 16 1.2 20.1 3.2 4 68.6 34.5 79 46.5 9.6-1.6 8-8.8 8-8.8L257 396.6z"/><path class="st1" d="M268.2 390.2 257 372.5l60.2-11.2-6.4 25.7 12 43.3 10.4 65.8s-16 7.6-32.9 7.6c-16.8 0-32.1-4.4-32.1-4.4l11.6-66.6-11.6-42.5z"/><path class="st3" d="m297.9 453.6 2.4 50.1"/><path class="st10" d="M326.5 388.6c-1.5-4.7-2.9-7.8-3.7-8-3.2-.8-25.7 10.4-25.7 10.4l-12.8 1.6s-21.7-5.6-27.3-4c-.8.6-1.1 4.1-1 8.9 37 4.4 62.4-5.2 70.5-8.9z"/><path class="st2" d="M256 397.5c0 2.9.2 6.3.4 9.9 12.3-.9 53.4-4.4 72.5-10.7-.8-3-1.6-5.8-2.4-8.2-8.1 3.8-33.5 13.4-70.5 9z"/><path class="st10" d="M328.9 396.8c-19.1 6.3-60.2 9.7-72.5 10.7.2 3 .5 6.2.8 9.3l73.7-12.2c-.6-2.7-1.2-5.4-2-7.8z"/><path class="st2" d="M257.3 416.8c.3 3.1.7 6.3 1.2 9.2 18.6-5.3 63.4-11.6 74.4-13.1-.6-2.7-1.2-5.5-1.8-8.3l-73.8 12.2zM263.4 442.3c4.8 0 27.3-9.6 27.3-9.6l12.8-.8s26.5 1.6 30.5-.8c.9-.6 1-3.5.5-7.8-11.4.1-43.4 1.2-74.7 10.6 1.2 5.1 2.4 8.4 3.6 8.4z"/><path class="st10" d="M258.5 426c.4 2.9.9 5.6 1.4 7.9 31.3-9.4 63.3-10.5 74.7-10.6-.4-3-1-6.6-1.7-10.5-11.1 1.5-55.8 7.8-74.4 13.2z"/><path class="st3" d="M258.5 426c1.4 9.1 3.2 16.4 5 16.4 4.8 0 27.3-9.6 27.3-9.6l12.8-.8s26.5 1.6 30.5-.8c1.6-1 .7-8.9-1.2-18.3-11.1 1.4-55.8 7.7-74.4 13.1zM322.8 380.5c-3.2-.8-25.7 10.4-25.7 10.4l-12.8 1.6s-21.7-5.6-27.3-4c-1.2.9-1.3 9.1-.6 18.9 12.3-.9 53.4-4.4 72.5-10.7-2.4-8.7-4.9-15.8-6.1-16.2z"/><path class="st3" d="M328.9 396.8c-19.1 6.3-60.2 9.7-72.5 10.7.4 6.1 1.1 12.7 2 18.5 18.6-5.3 63.4-11.6 74.4-13.1-1.1-5.4-2.4-11-3.9-16.1z"/><circle class="st1" cx="290.7" cy="395.8" r="8.8"/><circle class="st1" cx="296.3" cy="425.5" r="8.8"/><circle class="st1" cx="293.1" cy="409.4" r="8.8"/><path class="st3" d="M334 191.2c11.2-7.2-2.4-41.7-30.5-37.7-2.4 15.2 19.3 44.9 30.5 37.7zM357.3 108.6c-12.8 33.7 12.8 52.1 20.9 59.4 8 7.2 12 4.8 11.2-6.4-.8-11.3-6.4-49-32.1-53zM422.3 89.3c-19.3 26.5 4.8 58.6 4.8 58.6l16-3.2s9.7-42.6-20.8-55.4z"/><path class="st6" d="M379.8 372.8s6 41.5 6 60.2c1.8 11.4 13.8 27.1 12.6 1.2-1.2-25.9-7.8-60.2-7.8-60.2l-10.8-1.2zM489.3 384.8s10.8 14.4 9.6 45.1c2.4 12.6 4.2 13.8 7.8.6 2.4-34.9-9.6-58.4-9.6-58.4l-7.8 12.7z"/><path class="st10" d="M330.8 373.3c6.7 1.2 14.8-.7 21.5-3.8l-10-14.4c-6.3 4.8-12 12-11.5 18.2zM358.9 404.6c9.4-.8 15.1-5.1 18.4-10.2L362.5 383c-4.3 5.9-6.8 14.3-3.6 21.6zM411.9 427.1c4.3-3.4 7.2-10.2 8.3-16.8l-16.2-3c1 7.9 3.7 16.5 7.9 19.8zM447.2 430.3c6.7-3.9 9.1-11.1 9.5-17.8h-19.8c.2 7.2 2.5 15.1 10.3 17.8zM491.3 425.5c1.7-8.6.9-15.8-.9-21.5l-17.1 7.8c3.3 6.2 9.1 11.8 18 13.7zM525 398.2c-1-8.3-4.5-14.5-8-18.9l-11.2 13.5c6.1 4 13.6 7 19.2 5.4z"/><path class="st3" d="m360.1 352.5-29.3 20.8M378 375.8l-19.1 28.8M413.5 392.6l-1.6 34.5M446.6 400.4l.6 29.9M477.3 395l12.6 30.7M502 377l23 21.2"/><path class="st2" d="M364.5 359.7c2.4-6.4-3.2-8.8-10.4-9.6-3-.3-7.5 1.8-11.8 5.1l10 14.4c6.2-3 11.1-6.8 12.2-9.9zM372.9 375.7c-3.3 0-7.3 3-10.5 7.3l14.8 11.4c3.1-4.9 4.1-10.4 4.1-14.3.1-8-.7-4.4-8.4-4.4zM419.1 395.8c-4-6.4-9.6-8.8-13.6-4.8-1.9 1.9-2.4 8.8-1.4 16.2l16.2 3c.9-5.8.7-11.4-1.2-14.4zM453.6 397.4c-3.2-3.2-8-4.8-8-4.8s-5.6 2.4-7.2 7.2c-.7 2.1-1.7 7.2-1.5 12.7h19.8c.4-7-1.5-13.5-3.1-15.1zM480.9 388.6s-7.2-3.2-10.4 4c-1.7 3.9-1.1 12 2.8 19.2l17.1-7.8c-3.2-10.1-9.5-15.4-9.5-15.4zM507.3 370.9s-15.2 5.6-13.6 10.4c.8 2.4 5.8 7.4 12 11.4l11.2-13.5c-4.6-5.7-9.6-8.3-9.6-8.3z"/><path class="st3" d="M354.1 350.1c-7.2-.8-24.1 12.8-23.3 23.3 12.8 2.4 31.3-7.2 33.7-13.6s-3.2-8.9-10.4-9.7zM372.9 375.7c-7.6 0-19.7 16-14 28.9 18.5-1.6 22.5-16.4 22.5-24.5s-.8-4.4-8.5-4.4zM405.4 391c-4 4-1.6 29.7 6.4 36.1 8-6.4 11.2-24.9 7.2-31.3-3.9-6.4-9.5-8.8-13.6-4.8zM438.3 399.8c-1.6 4.8-4.8 25.7 8.8 30.5 13.6-8 9.6-29.7 6.4-32.9-3.2-3.2-8-4.8-8-4.8s-5.6 2.4-7.2 7.2zM470.4 392.6c-3.2 7.2 1.6 28.9 20.9 32.9 4.8-24.1-10.4-36.9-10.4-36.9s-7.3-3.2-10.5 4zM493.7 381.4c1.6 4.8 20.1 20.1 31.3 16.8-2.4-19.3-17.7-27.3-17.7-27.3s-15.2 5.6-13.6 10.5z"/><path class="st8" d="M372.5 341.2s-19.3 3.2-18.5 8.8c.8 5.6 39.3 45.7 76.2 49.7s72.2-14.4 77-28.9c1.6-3.2-18.9-8-18.9-8l-30.1 8-50.5-14.4-35.2-15.2z"/><path class="st6" d="M378.2 349.3s25.7 30.5 57 30.5 52.6-12.8 53.4-16.8-14.8-6.4-14.8-6.4-8.8 10.4-32.1 6.4c-31.3-5.6-53-21.7-53-21.7l-5.6-8-4.9 16z"/><path class="st0" d="M484.9 285.6c-1.5 1.6-3.5 3.3-5.2 3-3-.6-5.4-10.2-12.6-9.6-3 1.2-7 8.1-20.3 7.5-13.2-.6-24.1-12.6-24.1-12.6l-4.8-.4-5.3 26.8 9.6 33.7 16 7.2s19.7 4.5 28.9 1.6c3.9-1.2 9.6-6.4 12-9.6 1.1-1.5 1.2-5 1-8.3-3 .9-6.9 1.8-9.5 1.5-4.8-.6-12.8-9.2-15.2-8.6-2.4.6-4 6.8-7 6.8s-7.7-1.4-7.2-5.4 8.4-7.8 7.8-10.8c-.6-3-6-5.4-5.4-7.8.6-2.4 6-7.2 8.4-6 2.4 1.2 2.4 8.4 5.4 8.4 3 0 15.4-6.3 15.4-6.3 5.6 1.2 16-2.8 13.6-8.4-.3-.9-.9-1.8-1.5-2.7zM456.8 265.1c9 3 15.6 4.8 15.6 4.8l1.2-.3v-3l.8-18.5-19.3-4.8-34.5 16-1.3 6.5 6.1.7c.1.1 22.4-4.5 31.4-1.4z"/><path class="st1" d="M452 294.5c-2.4-1.2-7.8 3.6-8.4 6s4.8 4.8 5.4 7.8c.6 3-7.4 6.9-7.8 10.8-.4 4 4.2 5.4 7.2 5.4s4.6-6.2 7-6.8c2.4-.6 10.4 8 15.2 8.6 2.6.3 6.5-.6 9.5-1.5-.3-3.6-1-6.9-1-6.9s4-1.6 4.8-4c.8-2.4-4.8-8.8-4.8-8.8l-8.8 3.2s3.2-6.8 2.4-11.6c0 0-12.4 6.3-15.4 6.3s-2.9-7.3-5.3-8.5zM446.8 286.5c13.2.6 17.2-6.3 20.3-7.5 7.2-.6 9.6 9 12.6 9.6 1.7.3 3.7-1.4 5.2-3-3.8-5.4-11.3-11.8-11.3-11.8v-4.2l-1.2.3s-6.6-1.8-15.6-4.8-31.3 1.6-31.3 1.6l-6.1-.7-1.5 7.6 4.8.4c0-.1 10.9 11.9 24.1 12.5z"/><path class="st3" d="M434 272.3h26.5s-1.2 9-13.2 7.8c-9.1-.9-13.3-7.8-13.3-7.8z"/><path class="st3" d="M451.4 272.9s-3 3 1.2 6M463.2 310.7l7.2-2.4M469.6 286.9s-3.2 9.4 3.2 9.8c5.6 1.2 16-2.8 13.6-8.4-2.4-5.6-12.8-14.4-12.8-14.4"/><path class="st7" d="M375 269v14.4s-8 6.4-8.4 13.6c5.2.8 11.6 0 10 3.2-1.6 3.2-10.4 8.8-12.8 17.7 2.4 4 11.2 8.8 11.2 8.8s7.2 6.4 13.6 14.4 28.1 18.5 28.1 18.5l10.4-20.1-5.6-32.9 2.8-20.3s-1.2-14.2 1.2-19.9c2.4-5.6 24.9-15.2 37.7-14.4 10.4.8 10.4 14.4 10.4 14.4s4.8-1.6 6.4-12c1.6-10.4-8.8-25.7-8.8-25.7l-34.5 7.2-41.7 20.3-20 12.8z"/><path class="st3" d="m384 290.9-7.4 9.4"/><path class="st8" d="M448.8 143.9c-58.6 3.2-121.9 50.5-121.9 50.5s4.7 6.1 11.1 14.8c62.7-32.1 100.6-40.2 114.5-42.2-1.6-7.8-2.9-15.7-3.7-23.1z"/><path class="st7" d="M452.4 167c-13.8 2-51.7 10.1-114.5 42.2 4.9 6.8 10.9 15.1 16.4 23.3 40.3-27.4 87.6-39.4 102.9-42.7-1.6-7.1-3.3-14.9-4.8-22.8zM364.4 248.2c3.4 5.8 6.1 10.8 7.3 14.4 17.7-6.4 93.9-40.9 93.9-40.9s-1.5-5.1-3.7-13.3c-13.7 3.2-52.6 13.8-97.5 39.8z"/><path class="st6" d="M457.3 189.8c-15.4 3.4-62.7 15.3-102.9 42.7 3.7 5.4 7.2 10.8 10.1 15.7 44.8-26.1 83.8-36.7 97.5-39.9-1.4-5.1-3-11.4-4.7-18.5z"/><circle class="st8" cx="357.5" cy="243.4" r="10"/><circle class="st8" cx="379.8" cy="228.1" r="10"/><circle class="st8" cx="408.6" cy="214.5" r="10"/><circle class="st8" cx="438.3" cy="204.8" r="10"/><path class="st6" d="M376.6 273c-5.6 4.8-9.6-5.6-4.8-10.4s54.6-36.9 109.9-45.7c6.4.8 4 10.4-.8 12.8-47.4 4-98.7 38.5-104.3 43.3z"/><path class="st8" d="M388.6 341.2s-10.4-1.6-16 0c0 0-4.4 29.7.4 34.5 10.8 7.2 18.9 5.6 22.9-5.6s-5.6-12.8-8.8-12c-.9-7.2 1.5-16.9 1.5-16.9z"/><path class="st3" d="M383.8 374.1c-7.2-3.2-3.2-14.4 3.2-16"/><path class="st8" d="M374.1 322.8c-4 3.2-4 12.8-1.6 18.5 5.6-1.6 16 0 16 0s4.4-12.8 3.6-16-13.9-5.7-18-2.5z"/><path class="st6" d="M425.5 307.5s2-19.3-1.2-21.1c-3.2-1.8-12.4-5.4-18.1 2.6-5.6 8 1.6 24.9 7.2 28.9 5.7-2.3 12.1-10.4 12.1-10.4z"/><path class="st1" d="M413.5 347.7c-1.6 10.4 2.4 34.5 15.2 38.5 12-4.8 21.7-30.5 16.8-43.3-4.8-12.9-30.4-5.7-32 4.8z"/><path class="st6" d="M422.3 349.3c-1.6 4-1.6 20.9 4.8 27.3 11.7-10.4 10.7-23.2 9.9-27.2s-13.1-4.2-14.7-.1z"/><path class="st3" d="M412.7 300.3c2.6-8.8 11.7-1.6 11.7-1.6"/><circle class="st1" cx="424.3" cy="323.2" r="16.4"/><circle class="st6" cx="424.3" cy="323.2" r="6.8"/><path class="st1" d="M546.6 609.2c0 8.8-16 7.2-24.1 2.4-8-4.8-7.6-16.4-2-22.9s14.8-10.8 24.5-5.2c13.7 8.9 11.3 26.5 1.6 25.7z"/><path class="st3" d="m532.2 598 14.4 11.2"/><path class="st1" d="M558.7 425.5s.8 52.1 2.4 95.5c-16 4-46.5.8-46.5.8l4.8-105.1 19.3-11.2 20 20z"/><path class="st3" d="m539.4 457.6.8 63.4"/><path class="st11" d="m592.4 326.8-4.8 8.8-3.2-13.6-4.8 8.8s-5.6-7.2-20.9-.8c-20.9 11.2-20.9 48.9-20.9 48.9l5.4 11.9c.8-9.1 5.5-51.5 22.3-54 18.7-2.8 13.7 17.8 24.6 19.2 1.3-5.4 2.2-11.3 3-14.8 1.7-7.2-.7-14.4-.7-14.4z"/><path class="st10" d="M565.5 336.8c-16.8 2.5-21.5 44.9-22.3 54l1.8 4.1 18.5-2.4s4-12 2.4-16.8c-1.6-4.8-7.2-5.6-5.6-15.2 1.6-4.8 11.2-8 12.8-4.8 1.6 3.2-.4 10.4.4 12.8.8 2.4 7.6 3.2 11.6 0 2-1.6 3.7-6.8 5-12.5-10.9-1.4-5.9-22-24.6-19.2z"/><path class="st12" d="M583.1 347.3c4 .4 3.6 8.8.4 8.8s-4.4-9.2-.4-8.8z"/><path class="st3" d="M579.5 330.8c-2.8 4.4-2 11.6-2 11.6M570.3 328c-3.6 3.6-1.2 15.2-1.2 15.2M561.1 329.2c-3.6 3.6.8 14.4.8 14.4M552.7 335.2c-1.2 4.8 2 12 2 12M545.4 346.5c-1.2 4.8 2.4 12.4 2.4 12.4"/><path class="st3" d="M563.5 392.6s4-12 2.4-16.8c-1.6-4.8-7.2-5.6-5.6-15.2 1.6-4.8 11.2-8 12.8-4.8 1.6 3.2-.4 10.4.4 12.8.8 2.4 7.6 3.2 11.6 0s6.4-20.1 8-27.3-.8-14.4-.8-14.4l-4.8 8.8-3.2-13.6-4.8 8.8s-5.6-7.2-20.9-.8c-20.9 11.2-20.9 48.9-20.9 48.9l7.2 16 18.6-2.4z"/><path class="st1" d="M529 373.4c-3.5.6-20.1 44.3-16.3 46.3 3.8 1.9 25.4 3.2 25.4 3.2l10.5 4.5s20.3 11.8 24.4 11.5c4.1-.3 13.9-41.3 11.7-43.2-2.2-1.9-25.3-4.8-25.3-4.8l-9.2-2.2c-.1-.1-2.8-13-21.2-15.3z"/><circle class="st1" cx="552.7" cy="393.7" r="7.8"/><circle class="st1" cx="545.4" cy="419.4" r="7.8"/><path class="st3" d="m522.6 390.6 60.6 20.1M517.2 405.3l62.2 20.4"/><circle class="st1" cx="549.2" cy="405.5" r="7.8"/><path class="st1" d="M342.1 399.8s36.1 32.9 103.5 37.7c32.1 0 40.1-13.6 57-12 30.5 3.2 34.5 50.5 28.1 70.6s-12 32.1-48.1 33.7-63.4 4.8-110.7-36.1c-47.5-40.9-29.8-93.9-29.8-93.9z"/><path class="st1" d="M350.9 422.3c-6.4 36.9 46.5 74.6 76.2 81.8s65.4 2.7 77.8-12.8c12.8-16 3.2-40.9-12.8-43.3-14.4-2.4-31.3 6.4-58.6 4.8-27.3-1.6-65-16.9-82.6-30.5z"/><path class="st6" d="M356.5 432.7c4 21.7 47.3 57 77 64.2 29.7 7.2 59.4-.8 65-9.6 5.6-8.8 4-29.7-8-32.1-8-1.6-29.7 8.8-57 7.2-27.3-1.6-59.4-16.1-77-29.7z"/><path class="st6" d="m448.1 471.2-3.3.3-.6 7.2s25.3 48.1 34.3 54.2c3.4-1.7 6.5-3.7 9.4-5.9-8.7-8.4-31.3-42.8-39.8-55.8z"/><path class="st1" d="m462.3 469.9-14.2 1.2c8.5 13.1 31.1 47.5 39.8 55.8 6.7-5.1 12-11.1 15.5-16.6-7.6-5.2-28.8-21.2-41.1-40.4z"/><path class="st6" d="m471.9 469-9.6.8c12.4 19.2 33.5 35.2 41.1 40.5 3.4-5.3 5.2-10.2 5.2-13.1-15.1-12.5-36.7-28.2-36.7-28.2z"/><path class="st1" d="m418.3 466-10.8 3.6s-13.8 26.5-31.9 51.1c3.4 3.9 8.2 7 13.1 9.4 17.9-27.9 33.9-57 36-60.7-3.7-2.3-6.4-3.4-6.4-3.4zM437.6 481.1c-1.3-1.7-2.6-3.2-4.1-4.6-3.2 6.5-24.2 48.9-32.1 58.6 4.6 1.4 8.1 2.2 9.1 2.5 0 0 25.9-44.5 27.1-56.5z"/><path class="st6" d="M424.7 469.4c-2 3.7-18.1 32.8-36 60.7 4.4 2.2 8.9 3.8 12.7 5 7.9-9.8 28.9-52.1 32.1-58.6-3.1-3-6.2-5.4-8.8-7.1z"/><path class="st1" d="M399 467.2c0 6.7 5.4 12 12 12s12-5.4 12-12c0-2.4-.7-4.6-1.8-6.4-5.3-1-10.6-2.4-15.9-4.2-3.7 2-6.3 6-6.3 10.6zM434 462.4c-4.5 1.8-7.7 6.1-7.7 11.2 0 6.7 5.4 12 12 12s12-5.4 12-12c0-5-3.1-9.3-7.5-11.1-2.8.1-5.8.1-8.8-.1zM452.8 468.8c0 6.7 5.4 12 12 12s12-5.4 12-12c0-4.5-2.4-8.3-6-10.4-4.6 1.1-9.8 2.2-15.5 3-1.6 2-2.5 4.6-2.5 7.4z"/><path class="st6" d="M591.6 526.6c-3.2 34.5-30.5 154-30.5 158.9 0 .8.3 1.7.8 2.6 1.8.5 6.6 1.8 13.4 3.5 4.5-18.9 29.9-157 29.9-157s-5.6-12-13.6-8zM693.5 515.3c-3.2-3.2-8.8 4-12 8.8 6.8 18.9 73.4 140.2 81.1 154.3 8.7-3.9 12.8-6.7 12.8-6.7 2.3-3.9-61.9-105.8-81.9-156.4zM594 678.2s-7.2 12.8-17.2 32.9c10.4 5.6 21.3-8.8 21.3-8.8s2.4 15.2 22.5 16c-7.2-18.5-6.4-38.5-6.4-38.5l-4-18.5-16.2 16.9z"/><path class="st6" d="M707.1 654.1s8.8 11.2 18.5 40.1c11.2-20.9 2.4-31.3 2.4-31.3s26.5 4 31.3-12c-23.3-3.2-39.7-12-39.7-12l-18.1-12 5.6 27.2zM634.9 579.5s-8.6 29.6-22.5 54.7c-14 25.1-21.6 33.5-28 45.6 13.6 9.6 23.7-8 23.7-8s.4 17.7 15.6 20.1c-.8-14.4-4-41.7 1.6-57.8s21.7-53 21.7-53l-12.1-1.6z"/><path class="st6" d="M663 581.1s22 20.5 37.7 32.5c15.7 12 27.3 18 40.2 23.6-15.2 9.6-27.3 1.6-27.3 1.6s3.2 22.9-8.8 27.7c-4-14-8-32.5-15.2-41.3s-36.9-36.9-36.9-36.9l2.4-12 7.9 4.8z"/><path class="st6" d="m642.9 578.7 9.3 123.7c2.8 0 5.6 0 8.3-.1 2-.2 4.1-.4 6.1-.6L655 576.3l-12.1 2.4zM609.2 557.9c-1.6-4.8-18.5-5.6-22.5-4.8-4 .8-4 24.9-4 24.9l23.3 5.6c0-.1 4.8-20.9 3.2-25.7zM580.3 589.1s-5.6 21.7-3.2 26.5 23.3 5.6 24.1 1.6c.8-4 .8-28.1.8-28.1h-21.7z"/><path class="st6" d="M602.8 581.9s-16.8-6.4-20.1-4c-3.2 2.4-5.6 8.8-2.4 11.2 3.2 2.4 21.7 4.8 21.7 4.8l.8-12zM707.1 606s8.8 2.4 12.8-5.6c8 2.4 13.6 0 14.4-4.8.8-4.8-9.6-18.5-9.6-18.5s-12-28.1-16.8-28.1c-4.8 0-6.4 2.4-8 5.6-8.8-.8-12 8-12 8l19.2 43.4z"/><path class="st3" d="m719.9 600.4-20-45.8"/><path class="st6" d="M697.5 578.7s20.1-12 23.3-11.2c3.2.8 4 6.4 4 9.6s-23.3 11.2-23.3 11.2l-4-9.6z"/><path class="st8" d="M605.2 534.6c1.6 24.1-14.4 69-11.2 85.8 3.2 16.8 23.3 32.9 63.4 31.3 40.1-1.6 53.8-32.1 52.1-48.9s-26.5-44.1-32.9-73c-1.6-9.6-12-7.2-12 3.2 8.8 41.7 32.1 54.6 32.9 72.2 0 24.1-21.7 31.3-44.1 32.1s-44.9-8-47.3-24.1c-2.4-16 13.6-49.7 13.6-76.2 1.6-12-16.1-26.5-14.5-2.4z"/><path class="st1" d="m699.9 399.8 3.2-127.6-88.3 4.9 1.5 123.3z"/><path class="st1" d="m613.3 393.8-8.9-116.7h10.4l9.3 113.1z"/><circle class="st1" cx="636.9" cy="463" r="79.6"/><circle class="st3" cx="636.5" cy="462.8" r="60.6"/><path class="st3" d="m576.7 466 118.4-13.2M628.1 403.8l13.2 118.8M592.2 576.8l4.2-21.7M588.6 593.6l-3 22.3"/><path class="st6" d="M630.1 584.3c-4.8-.8-3.2-9.6-.8-11.2-2.4-3.2-3.2-10.4 0-12 3.2-1.6 28.1-1.6 32.9-1.6 4.8 0 4.8 6.4 2.4 10.4 3.2 3.2 3.2 9.6.8 12.8-2.4 3.2-30.5 2.4-35.3 1.6z"/><path class="st3" d="m629.3 573.1 35.3-3.2"/></svg>