<svg version="1.1" id="Calque_1" xmlns="http://www.w3.org/2000/svg" x="0" y="0" viewBox="0 0 900 900" style="enable-background:new 0 0 900 900" xml:space="preserve"><style>.st0,.st1{fill:#fff;stroke:#000;stroke-width:4.1661}.st1{fill:none}.st2{fill:#ff7300}.st3{fill:#fff}.st4,.st5,.st6{fill:none;stroke:#000;stroke-width:5.5548}.st5,.st6{stroke-width:4.1661;stroke-linecap:round;stroke-linejoin:bevel}.st6{stroke-linejoin:round}.st7{fill:red}.st8{fill:#0062ff}.st10,.st11,.st13,.st9{stroke:#000;stroke-width:4.1661}.st9{fill:#fff;stroke-linecap:round;stroke-linejoin:round}.st10,.st11,.st13{fill:#ff7300}.st11,.st13{fill:#ffce00}.st13{fill:#0062ff}.st14{fill:none;stroke:red;stroke-width:1.3887}.st15{stroke:#000;stroke-width:4.1661}</style><path class="st0" d="M647.7 552s12.1-67.1-20.4-73.6c-15.7-2.4-37.1 26-37.1 26l1.8 50 16.2 14.3 39.5-16.7z"/><path class="st1" d="M608.8 541.9s-.4-46.8 19-44 8.3 53.2 8.3 53.2"/><path class="st1" d="M615.8 543.7s6-35.1 11.1-34.7c5.1.4-.4 41.2-.4 41.2"/><path class="st0" d="m619.4 609.9 90.2 150 37.1-29.6L642.1 577l-29.1-6.4-3.8 29.6z"/><path class="st1" d="M629.6 581.2 736 737.3"/><path class="st0" d="M623.5 551.2s30.6-9.3 33.7 1c3.2 10.1-15.3 18.5-15.3 18.5l-21.2 1.8 2.8-21.3z"/><path class="st0" d="M618 585.9s42.6.4 42.6-18.5c0-11.5-30.6-5.6-30.6-5.6l-12 24.1z"/><path class="st2" d="M572.7 673.8s-74.6 74.7-87.1 112.2-13.9 66-6.2 63.9c17.4-30.6 131.9-146.5 143-172.2 11.1-25.7-2.8-98.6-2.8-98.6l-33.3 6.2-13.6 88.5z"/><path class="st3" d="M572.7 673.8s-74.6 74.7-87.1 112.2-13.9 66-6.2 63.9c8.6-31.7-7.2-60 111.8-180.8 22.2-19.4 9.7-85.7 9.7-85.7l-14.6 1.8-13.6 88.6z"/><circle class="st4" cx="599.9" cy="673.8" r="10.8"/><circle class="st4" cx="613.4" cy="640.9" r="8.7"/><ellipse transform="rotate(-139.863 574.953 711.356)" class="st4" cx="575" cy="711.3" rx="10.1" ry="15.3"/><ellipse transform="rotate(-139.863 549.087 744.614)" class="st4" cx="549.1" cy="744.6" rx="10.1" ry="15.3"/><ellipse transform="rotate(-139.863 517.115 785.292)" class="st4" cx="517.1" cy="785.3" rx="8.3" ry="16.1"/><path class="st5" d="m474.5 836.3 7.4-3.8M483.8 820.6l-7.9 2.2M488 808.5l-9.3 3.2M491.6 796l-9.2 2.4M498.1 783.5l-9.7-.4M505.5 771l-11.5-.4M513.8 760.3l-13.3-.8M522.7 747.4l-11.6-1.8M530.1 737.3l-11.1-2.8M538.8 727l-11.1-2.8M547.7 714.5l-11.7-1.8M558.3 703.1l-9.9-2.2M568 694.2l-12-2.3M575.9 682.6l-9.7-2.3M587.4 672l-12.9-3.7M597.7 661.7l-13-4.6M600.9 651.2l-10.1-3.8M603.3 639.1l-11.1-2.8M604.6 625.2l-9.3-1"/><path class="st6" d="M572.7 673.8s-74.6 74.7-87.1 112.2-13.9 66-6.2 63.9c17.4-30.6 131.9-146.5 143-172.2 11.1-25.7-2.8-98.6-2.8-98.6l-33.3 6.2-13.6 88.5z"/><path class="st2" d="M226.6 465.2c-4.2-1.4-34.4-71.5-72.6-61.8-11.8 4.2 46.2 109 56 114.6s168-11.1 173.6-18.7c5.6-7.6 96.5-125 96.5-125s17.4-43-21.5-36.8c-38.9 6.2-95.1 100-95.1 100S328 461.1 321.1 459c-7-2.1-81.3 9.7-94.5 6.2z"/><path class="st3" d="M218.6 509c-12.5-4.2-57.9-86.1-52.4-102.9-3.3-.3-6.8 0-10.4.8C144 411.1 200.3 512.4 210 518s168-11.1 173.6-18.7c5.6-7.6-6.7-5.8-13.6-7.9-7-2.2-138.9 21.7-151.4 17.6z"/><circle class="st4" cx="193.7" cy="444.4" r="10"/><circle class="st4" cx="213.2" cy="475.5" r="10.8"/><circle class="st4" cx="265.1" cy="485.2" r="10.8"/><circle class="st4" cx="316.5" cy="482.4" r="10.8"/><circle class="st4" cx="426.9" cy="385.4" r="12.5"/><circle class="st4" cx="403.7" cy="413.7" r="12.5"/><path class="st5" d="m166.7 424-8.8 1.6M172.5 435.8l-8.6 2.1M186.4 465.6 178 468M204.8 496.5l-8.7 2.5M226.6 518.7l-.2-9.3M235.4 518.4l-1.1-9.4M246.1 518.7l-1.7-10.4M256.5 518l-1.4-11.4M269.4 516.3l-1.8-11.8M281.2 515.6l-2.5-12.9M294.7 514.2l-3.5-12.9M308.6 512.4l-3.5-13.2M322.9 511l-6.3-13.4M334.7 509.7l-5.3-13.2M347.9 506.9l-6.3-12.1M360.7 504.8l-7-11.8"/><path class="st1" d="M226.6 465.2c-4.2-1.4-34.4-71.5-72.6-61.8-11.8 4.2 46.2 109 56 114.6s168-11.1 173.6-18.7c5.6-7.6 96.5-125 96.5-125s17.4-43-21.5-36.8c-38.9 6.2-95.1 100-95.1 100S328 461.1 321.1 459c-7-2.1-81.3 9.7-94.5 6.2z"/><path class="st7" d="M166.2 406.2c2.8 11.1-10.7 13.5-10.7 13.5s-13.9 6.9-21.2 25c-15.3-21.8 24.6-53.8 31.9-38.5z"/><path class="st8" d="M146.7 407.5c7.9-5.7 7.8 12.8 6 14-4.4 3.1-13.1 10.3-18.3 23.2-9.1-12.8 1-29.1 12.3-37.2z"/><path class="st1" d="M166.2 406.2c2.8 11.1-10.7 13.5-10.7 13.5s-13.9 6.9-21.2 25c-15.3-21.8 24.6-53.8 31.9-38.5z"/><path class="st7" d="M168.6 448.4c-7.9 4.2-18.1 12.5-15.3 29.6 6.5-10.7 13.9-13.5 22.6-15.3s.5-18.4-7.3-14.3z"/><path class="st8" d="M165.4 450.2c-7.2 4.6-14.6 12.9-12.2 27.8 5.4-8.9 11.5-12.4 18.6-14.3 4.2-1-2.4-15.8-6.4-13.5z"/><path class="st1" d="M168.6 448.4c-7.9 4.2-18.1 12.5-15.3 29.6 6.5-10.7 13.9-13.5 22.6-15.3s.5-18.4-7.3-14.3z"/><path class="st7" d="M187.1 477.6c9.3-.4 13.5 10.7 8.3 12.9-5.1 2.4-16.7-2.8-21.8 6.5-.8-9.3 4.2-19 13.5-19.4z"/><path class="st8" d="M183.2 478.3c6-1.9 12.2 12.2 4.9 12.8-5.1-.1-11.2-.1-14.4 5.8-.8-7.8 2.7-16 9.5-18.6z"/><path class="st1" d="M187.1 477.6c9.3-.4 13.5 10.7 8.3 12.9-5.1 2.4-16.7-2.8-21.8 6.5-.8-9.3 4.2-19 13.5-19.4z"/><path class="st7" d="M200.5 507.2c3.7-4.6 20.8 6.5 15.3 12.1s-39.9 21.2-45.4-10.7c17.6 5.9 26.4 3.1 30.1-1.4z"/><path class="st8" d="M194 511.2c3.1-.8 13.6 13.6 6.5 15.4-11.9 3.2-26.7 1.9-30.1-18.1 11 3.8 18.6 4.1 23.6 2.7z"/><path class="st1" d="M200.5 507.2c3.7-4.6 20.8 6.5 15.3 12.1s-39.9 21.2-45.4-10.7c17.6 5.9 26.4 3.1 30.1-1.4z"/><path class="st2" d="M387.5 520.6c-68 1.4-75 64.3-87.5 86.1-12.5 21.8-61.1 79.6-68 81-6.9 1.4-111.9 33.7-114.3 51-.6 5.6-1.4 14.3 7.4 17.1 22.6 5.6 116.9.3 124.6-1.8 9.7-2.8 41.7-62.9 59.3-87.9 17.6-25 58.7-59.7 58.7-59.7s87.8-87.3 19.8-85.8z"/><path class="st3" d="M354.1 592.8c-12.5 8.3-91.2 130.1-112.9 144.4-21.8 14.3-119.4 4.7-123.6 1.4-.6 5.6-1.4 14.3 7.4 17.1 22.6 5.6 116.9.3 124.6-1.8 9.7-2.8 41.7-62.9 59.3-87.9 17.6-25 58.7-59.7 58.7-59.7s-1-21.8-13.5-13.5z"/><circle class="st4" cx="311.1" cy="622.8" r="10.8"/><circle class="st4" cx="289.4" cy="652.4" r="10.8"/><circle class="st4" cx="267.6" cy="683" r="10.8"/><circle class="st4" cx="251.9" cy="714.9" r="10.8"/><circle class="st4" cx="213.9" cy="724.2" r="10.8"/><circle class="st4" cx="164.8" cy="728.8" r="10.8"/><path class="st1" d="M387.5 520.6c-68 1.4-75 64.3-87.5 86.1-12.5 21.8-61.1 79.6-68 81-6.9 1.4-111.9 33.7-114.3 51-.6 5.6-1.4 14.3 7.4 17.1 22.6 5.6 116.9.3 124.6-1.8 9.7-2.8 41.7-62.9 59.3-87.9 17.6-25 58.7-59.7 58.7-59.7s87.8-87.3 19.8-85.8z"/><path class="st5" d="m141.7 743.2.9 13.5M152.3 744.2l1 12.9M193.6 744.2l1.8 12.5M208.3 744.2l2.8 13.3M239.4 738.7l6 14.7M248.6 733l7.9 12M267.3 711.4l8.6 7.3M272.9 701l8.6 7.2M281.5 690.2l7.4 5.5M289.8 679.8l6.3 4.6M297.9 668.4l5.8 5M305.1 658l5.6 5.5M312 648.5l5.6 5.9M319.4 637.7l7.5 8.3M326.6 628.1l8.1 9.2M334.1 618.4l8.9 10.4M340.2 610.8l9.1 11.1M345.8 603.4l9.3 12.9M258.3 724.8l7.9 9.7"/><path class="st7" d="M118.6 736.7c-9.7 14.9 2.4 57.9 26.8 44.4-12.1-8.7-17.1-28.2-12.1-35.1 5.2-6.9-5-24-14.7-9.3z"/><path class="st8" d="M116.1 742.8c-4.3 17.9 7.6 50.3 29.3 38.5-9.9-7.2-15-21.5-13.9-30.3 1.1-4.6-14.1-13.2-15.4-8.2z"/><path class="st1" d="M118.6 736.7c-9.7 14.9 2.4 57.9 26.8 44.4-12.1-8.7-17.1-28.2-12.1-35.1 5.2-6.9-5-24-14.7-9.3z"/><path class="st7" d="M172.2 745.6c-6.9 12.9-1.4 50.4 26.4 34.3-17.1-7.9-17.6-20.4-12.9-27.4 4.6-6.9-6.5-20-13.5-6.9z"/><path class="st8" d="M169.7 754.8c-1.7 15.8 6.2 38.3 28.9 25-13.3-6.1-16.5-15-15.1-21.9.8-5.2-12.7-10.1-13.8-3.1z"/><path class="st1" d="M172.2 745.6c-6.9 12.9-1.4 50.4 26.4 34.3-17.1-7.9-17.6-20.4-12.9-27.4 4.6-6.9-6.5-20-13.5-6.9z"/><path class="st7" d="M217.6 747c-4.6 11.5 6.5 31.9 23.2 25.4-8.3-8.3-12.5-14.3-8.7-22.6 3.6-8.4-9.9-14.5-14.5-2.8z"/><path class="st8" d="M216.6 751.6c-.7 11.5 9.6 26.4 24.2 20.8-6.8-6.8-10.8-12.1-10-18.2 1.1-4.4-13.9-9.2-14.2-2.6z"/><path class="st1" d="M217.6 747c-4.6 11.5 6.5 31.9 23.2 25.4-8.3-8.3-12.5-14.3-8.7-22.6 3.6-8.4-9.9-14.5-14.5-2.8z"/><path class="st7" d="M257.5 737.7c2.4 7.4 3.7 14.9-11.1 29.6 35.7-10.7 26.4-31.9 24.6-39.3-2-7.4-15.9 2.3-13.5 9.7z"/><path class="st8" d="M258.7 743c.8 6-1.1 12.9-12.4 24.3 25.8-7.8 28.1-21 26.7-30.6-.5-3.6-15.4-1.4-14.3 6.3z"/><path class="st1" d="M257.5 737.7c2.4 7.4 3.7 14.9-11.1 29.6 35.7-10.7 26.4-31.9 24.6-39.3-2-7.4-15.9 2.3-13.5 9.7z"/><path class="st0" d="m360.2 554.4-107.9-5.2v64.9L362 596.5z"/><circle class="st3" cx="617.1" cy="437.7" r="21.2"/><path class="st7" d="M614.1 438.8c1.1 10.1 0 20-1.5 19.7-9.6-2.1-16.8-10.6-16.8-20.8 0-6.8 3.2-12.9 8.3-16.8 0 0 9 7.9 10 17.9z"/><circle class="st6" cx="617.1" cy="437.7" r="21.2"/><circle class="st9" cx="615.9" cy="438.8" r="8.1"/><path class="st10" d="M728.7 261.8s31.5 8.3 43 46.2c11.5 37.9 4.6 170.4 3.7 187.9-1 17.6 1.8 38.9-12.9 39.9-10.7.4-18.1-48.2-18.1-48.2l-15.3-169.4-37.5-37.5 14.3-18.1 22.8-.8z"/><path class="st6" d="M719.4 271.5s36.5 19.4 43 51.4c5.4 26.8 3.2 179.1 3.2 179.1"/><path class="st11" d="M775.5 496.1c-1 17.6 1.8 38.9-12.9 39.9-8.1.4-14.3-27.6-16.8-41.1l29.7 1.2z"/><path class="st10" d="M710.2 325.2c16.2 4.6 4.2 156.9 3.7 169.4-.4 12.5 4.6 40.7 16.2 42.6 19.4 1 17.6-41.7 17.6-41.7s4.4-163.7-3.2-180.1c-7.9-16.7-17.6-23.6-17.6-23.6l-28.2-1.8-6.5 23.6c-.1.1 1.7 7.1 18 11.6z"/><path class="st11" d="M713.8 494.7c-.4 12.5 4.6 40.7 16.2 42.6 19.4 1 17.6-41.7 17.6-41.7l-33.8-.9z"/><path class="st6" d="m723.8 474.2 15 12.5M723.8 463.1l15 12.5M723.8 450.6l15 12.5M723.8 439.5l15 12.5M723.8 425.6l15 12.5M723.8 413.1l15 12.5M725.2 399.3l15 12.5M725.2 385.4l15 12.5M725.2 372.9l15 12.5M725.2 359l15 12.5M725.2 345.1l15 12.5M725.2 334l15 12.5M725.2 322.9l15 12.5M725.2 313.2l15 12.5"/><path class="st10" d="M709.2 322.9c19.4 14.2-7.9 205.1-8.7 209.7-9.7 2.4-23.5-22.1-22.2-42.6 1.4-22.6 17.1-140.7 11.1-145.8-6-5.1-10.7-9.7-10.7-9.7l1.4-13.9c0 .1 13.4-9.2 29.1 2.3z"/><path class="st6" d="M696.3 494.2s19.2-139.3 8.1-166.1M691.2 359l10.7 4.2M690.2 369.7l10.7 4.1M689.5 383.7l11.4 4M687.7 399.7l11.8 4.7M686.3 412.9l11.8 4M684.9 427.7l11.8 4.5M683.9 438.8l11.4 4.5M682.6 449.9l11.3 4.5M680.8 463.6l11.8 4.7M680.1 476.1l10.8 3.7"/><path class="st11" d="M705.5 492c-1.9 23.1-4.7 39.3-5 40.7-9.7 2.4-23.5-22.1-22.2-42.6l27.2 1.9z"/><path class="st10" d="M711.6 237.3s55.1-1.8 54.6-2.8c-.4-1-14.3-5.1-10.7-11.1 3.7-6 31.5-8.7 29.2 16.7-1.8 20.8-59.3 10.1-66.2 15.7-6.9 5.6-16.7-.4-16.7-.4l-4.6-15.3 14.4-2.8z"/><path class="st11" d="M726.3 122.1c6 20.8-62.5 42.6-67.2 34.7-.7-10.6-1.7-21.5-3.2-32.8.1-.1 67.2-17.2 70.4-1.9z"/><path class="st11" d="M654.6 150.7s76.8-15.7 80.1-2.4c3.2 13.5-24.2 27.4-24.2 27.4l-44 10.1-21.8-8.3 9.9-26.8z"/><path class="st11" d="M654.6 170.7s84.3-6.9 81 15.3c-2.4 14.3-39.3 25.4-39.3 25.4l-32.4 9.7-18.1-9.3 8.8-41.1z"/><path class="st11" d="M654.6 209.6s82.9-5.1 83.7 13.5c0 12.9-41.2 26-41.2 26l-51.4-6.9 8.9-32.6z"/><path class="st11" d="M655.5 241.5c1.4 0 78.2 1.4 76.8 19.9-1.4 18.5-37.9 19.9-37.9 19.9l-47.2-4.2-3.7-19.4 12-16.2z"/><path class="st11" d="M650.9 270.7c1.8 0 83.7 8.3 79.2 24.6s-57.9 10.1-57.9 10.1l-31.9-14.9 10.6-19.8z"/><path class="st11" d="M648.1 287.7c1.8-.4 81.5 15.3 68 39.3-9.3 16.7-65.7-10.1-65.7-10.1l-10.1-15.3 7.8-13.9z"/><path class="st11" d="M642.6 322.9s2.1-6.4 5-18.1c0 0 60.3 32.4 47.8 46.2-10.8 10.8-52.8-28.1-52.8-28.1z"/><path class="st11" d="m516.2 269.7 126.4 53.2s28.2-83.3 13.5-199l-137.9 52.8-15.3 17.1 13.3 75.9z"/><path d="m516.2 269.7 99.3 41.8c4.9-5.3 16.5-141 3.1-173.3l-100.4 38.5-15.3 17.1 13.3 75.9z" style="fill:red;stroke:#000;stroke-width:4.1661"/><path class="st13" d="m516.2 269.7 76.2 32.1s.4-137.8-11.4-149.3l-63 24.2-15.3 17.1 13.5 75.9z"/><path class="st6" d="m521.7 194.3 7.4 13.3M527.3 191.5l8.3 13.9M532.4 186.4l10.6 17.1M539.4 181.8l11.1 18.5M548.1 178l11.6 18.5M556 175.7l12.5 19.4M564.4 171.1l11.9 21.8M570.8 166.9l12.5 24.1M656.4 133.6l-15.9 2.9M656.9 143.3l-15.7 1.5M658.3 152.1l-16.7 1.1M658.8 161.4h-16.7M658.8 170.1h-16.2M660.2 182.2l-17.6-1.9M660.2 192.9l-17.6-2.8M659.6 202.1l-16.6-3.6M658.5 212.2l-15.9-3.6M659.2 224.3l-16.2-5.6M657.8 235.4l-16.2-5.6M656.4 246.1l-14.8-5.2M655.5 256.8l-15.3-5.6M654.1 265.9l-15.3-4.5M653.3 277.6l-16.3-6.1M651.3 286.4l-15.7-6M649.5 296.1l-15.3-7.4M645.8 304.8l-13.9-6.4M644.4 315.5l-14.8-8.3"/><path class="st2" d="M477.7 237.5c1.1.4 14.3 62.2 14.3 62.2l25-17.1 3.9-31.9-4.2-16.7-39 3.5z"/><path class="st3" d="M296.4 291.9s-2.8 38.5 27.4 41.7l-9.3-32.4 1.4-24.6-15.7 6-3.8 9.3z"/><path class="st7" d="M296.4 291.9s-.6 8.6 1.9 18.1c0 0 4.2-7.9 9.7-7.4 5.6.4 6.5-1.4 6.5-1.4l1.4-24.6-15.7 6-3.8 9.3z"/><path class="st1" d="M296.4 291.9s-2.8 38.5 27.4 41.7l-9.3-32.4 1.4-24.6-15.7 6-3.8 9.3z"/><path class="st3" d="M308.3 282.2s-10.7 45.4 23.6 47.2C321.8 315.9 325 279 325 279l-7.4-6.9-9.3 10.1z"/><path class="st7" d="M308.3 282.2s-2.4 10.3-1.2 21.4c.3-1 3.6-3.7 8.6-3.7 5.1 0 9 2.4 9 2.4-.8-12.2.1-23.2.1-23.2l-7.4-6.9-9.1 10z"/><path class="st1" d="M308.3 282.2s-10.7 45.4 23.6 47.2C321.8 315.9 325 279 325 279l-7.4-6.9-9.3 10.1z"/><path class="st11" d="M281.5 251.4s-27.1-9.7-26.4-35.4 21.5-72.2 23.6-88.9c2.1-16.7-4.2-50.7-9-77.1 16.7 11.1 27.1 56.9 25 77.8-2.1 20.8-13.9 67.4-13.9 67.4l-3.5 25.7 14.6 22.9-10.4 7.6z"/><path class="st11" d="M286.4 240.3s-25-10.4-17.4-38.9c7.6-28.5 64.6-88.9 77.1-143 31.2 28.5-48.6 100.7-60.4 141-4.2 16 7.6 35.4 7.6 35.4l-6.9 5.5z"/><path class="st2" d="M441.9 249.3s52.1-3.5 53.5 23.6c1.4 37.5-80.5 65.3-88.2 65.3-7.6 0-9-11.1-13.2-12.5s-35.4 20.8-41 15.3c-11.8-16 18.1-36.8 22.2-38.2-28.5-2.1-51.4-21.8-56.2-22.2-8.7-.7-22.2 15.3-24.3 13.2-6.9-11.1 6.9-23.6 6.9-23.6s-18.7 0-22.2-7.6c-13.2-35.4 47.9-51.4 51.4-54.9s38.2-43 75.7-49.3 61.8-1.4 61.8-1.4 17.4-69.4 83.3-47.2c34 43.7-34.7 84.7-41 84.7 0 0 10.4 16.7 10.4 26.4 22.9-26.4 87.5-15.3 98.6 16-9 46.5-96.5 43.7-100 25.7"/><path class="st2" d="m519.7 262.5-3.5 88.2-74.3 27-3.5-81.9"/><path class="st6" d="m519.7 262.5-3.5 88.2-74.3 27-3.5-81.9"/><path class="st3" d="M524.1 255.8c42.1 21.2 95.5-19 95.5-19-9 46.5-96.5 43.7-100 25.7.1 0 2.1-9.1 4.5-6.7zM509.2 186c49-31.5 42.4-76.1 42.4-76.1 34 43.7-34.7 84.7-41 84.7 0-.2-3.7-7.3-1.4-8.6z"/><path d="M518.7 220.8c3.9-6.2 56 9 75.8-7.8 9.7 4.3 17.8 10.4 22.5 18.2.4.7-11.4-2.8-28.6-3.2-27.4-.7-66.5 1-67.8.1-3.3-2.4-1.9-7.3-1.9-7.3zM484.7 179c-3.7.4-16.4-21.9-16.4-21.9s10 1.1 15-3.1c12.8-13.3 37.2-54.7 68.3-44.2 0-.1-63.2 68.7-66.9 69.2z"/><path class="st3" d="M414.1 297.2c59.7-1.4 60.4-46.5 70-40.8 6.2 3.6 10.8 8.7 11.2 16.5 1.4 37.5-80.5 65.3-88.2 65.3-7.6 0-9-11.1-13.2-12.5s-35.4 20.8-41 15.3c-11.8-16 18.1-36.8 22.2-38.2-28.5-2.1-51.4-22.1-56.2-22.2-9.3-.3-22.2 15.3-24.3 13.2-6.9-11.1 9-25 6.9-23.6 16.1-12.6 52.9 28.4 112.6 27z"/><circle class="st4" cx="559.7" cy="241.5" r="10.8"/><circle class="st4" cx="344.4" cy="260.9" r="10.8"/><circle class="st4" cx="336.1" cy="227.6" r="10.8"/><circle class="st4" cx="369.4" cy="202.6" r="10.8"/><circle class="st4" cx="375" cy="251.2" r="10.8"/><circle class="st4" cx="391.6" cy="279" r="10.8"/><circle class="st4" cx="436.1" cy="272.1" r="10.8"/><circle class="st4" cx="416.6" cy="179" r="10.8"/><circle class="st4" cx="459.7" cy="183.2" r="10.8"/><circle class="st4" cx="491.6" cy="212.3" r="10.8"/><circle class="st4" cx="499.9" cy="247.1" r="10.8"/><circle class="st4" cx="519.9" cy="156.8" r="10.8"/><circle class="st4" cx="486.3" cy="321.8" r="12.5"/><path d="M297.2 260c-5.6-.4-4.2-23.2 9.7-26.4 13.9-3.2 23.1 17.4 19 19-12.1 4.6-13.5-6-18.1-4.2-4.5 1.9-5.1 12-10.6 11.6z"/><path class="st5" d="m356.9 328.4 6.5 10.5M365.5 325l6 10.1M372.2 320.8l7.6 10.8M379.8 316.6l7 11.6M391.6 314.5l2.4 11.2M402.3 318l8.8 19.2M410.6 313.9l10.5 19.8M421.1 311.8l9 18M431.2 307.6l7.6 19.4M440.9 304.5l7.7 18.1M448.8 299.3l9.8 17.3M459.9 296.2l7.7 14.9M469 291.4l8.7 11.8M477 285.4l9.1 8.7M480.1 278.2l13.6 2.7M481.5 270.8l13.2-1.7M302.3 278.9l3.5 6.5M309 274l3 8.6M318.3 274l-.3 6.5M330.1 278.9l-3.5 5.5M338.4 283.7l-2.3 4.9M347.5 288.6l-2.8 4.8M355.1 291.6l-1.7 6M363.4 293l-2.1 6.7M529.8 257.3l-1.8 12.8M536.3 260.4l1.1 11.8M547.9 261.8l.9 11.8M556.9 261.8l2.3 12.2M566.9 260.1l4.1 12.5M577.3 257.3l4.9 13.2M587.4 253.9l4.9 12.7M597.4 250l4.9 11.5M606.5 245.5l4.1 8.6M516.6 181l4.9 7.6M523.5 175l5.2 8M530.1 168.7l6.6 8.4M534.9 162.2l8.8 8.3M540.2 155.5l10.4 6.7M543.7 147.2l11.8 6.3M548.1 141l11.6 1.8M549.9 131.7l10 .7"/><path class="st6" d="M441.9 249.3s52.1-3.5 53.5 23.6c1.4 37.5-80.5 65.3-88.2 65.3-7.6 0-9-11.1-13.2-12.5s-35.4 20.8-41 15.3c-11.8-16 18.1-36.8 22.2-38.2-28.5-2.1-51.4-21.8-56.2-22.2-8.7-.7-22.2 15.3-24.3 13.2-6.9-11.1 6.9-23.6 6.9-23.6s-18.7 0-22.2-7.6c-13.2-35.4 47.9-51.4 51.4-54.9s38.2-43 75.7-49.3 61.8-1.4 61.8-1.4 17.4-69.4 83.3-47.2c34 43.7-34.7 84.7-41 84.7 0 0 10.4 16.7 10.4 26.4 22.9-26.4 87.5-15.3 98.6 16-9 46.5-96.5 43.7-100 25.7"/><path class="st6" d="M301.6 270.1s24-3.2 15.7-18.7"/><path class="st13" d="M419 209.7s-6.2-14.6 8.3-24.3c14.6-9.7 61.8 25.7 45.8 45.8-6.2 6.2-31.9 5.6-31.9 5.6L419 209.7z"/><path class="st1" d="M421.1 192.3c36.1 7.6 40.3 42.4 40.3 42.4"/><circle class="st3" cx="421.1" cy="233.3" r="26.4"/><path class="st7" d="M437.2 212.3c6.2 4.9 10.3 12.4 10.3 21 0 11.9-7.9 21.9-18.6 25.3 0 0-7.1-16.9-5-25.3 2-8.3 13.3-21 13.3-21z"/><circle class="st1" cx="421.1" cy="233.3" r="17.4"/><circle class="st0" cx="420.8" cy="233" r="6.7"/><circle class="st1" cx="421.1" cy="233.3" r="26.4"/><path class="st14" d="M350.2 507.3h-.2M316.2 442.7h-.3M392.3 489.9l-.7-.4"/><path class="st2" d="M441.2 541.6c-2.8-41 9-88.2 9-88.2s-28.5 52.8-63.2 50.7c-17.8-1.1-50-34-85.4-60.4-34-25.4-76.4-47.6-77.1-51.4-1.4-7.6-2.8-147.9 9-145.8 54.9 13.9 33.3 116.7 36.8 119.4 20.8 6.9 104.2 80.5 113.2 80.5s44.4-104.2 137.5-109c101.4-9 72.2 181.9 72.9 202.1.7 20.1 13.9 10.4 13.9 10.4l-7.6 21.5-90.3 22.2-66.7 3.5c.1 0 .8-14.5-2-55.5z"/><path class="st3" d="M441.2 541.6c-2.8-41 9-88.2 9-88.2s-28.5 52.8-63.2 50.7c-17.8-1.1-50-34-85.4-60.4-34-25.4-76.4-47.6-77.1-51.4-1.4-7.6-2.8-147.9 9-145.8 4.6 1.1 8.6 2.9 12.2 5.3-12.5 7.6-13.3 127.6-8.2 133.2 14.9 6.9 141.9 105.1 151 105.1 29.6 1 59.7-66.2 75-56.9 3.7 1.8-18.5 81.9-3.3 163.2 4.7 34.9-16.8.8-16.8.8s.6-14.6-2.2-55.6z"/><circle class="st4" cx="338.7" cy="433.8" r="10.8"/><circle class="st4" cx="388" cy="465.5" r="10.8"/><circle class="st4" cx="417.6" cy="432.6" r="10.8"/><circle class="st4" cx="449.9" cy="404.4" r="10.8"/><circle class="st4" cx="492.2" cy="390.9" r="10.8"/><circle class="st4" cx="536" cy="392.9" r="10.8"/><circle class="st4" cx="563.8" cy="421.1" r="10.8"/><circle class="st4" cx="575.9" cy="457.2" r="10.8"/><circle class="st4" cx="576.3" cy="492.3" r="9.4"/><circle class="st4" cx="575.6" cy="524.9" r="8.7"/><circle class="st4" cx="578.4" cy="552.7" r="8.7"/><circle class="st4" cx="288.7" cy="400.5" r="10.8"/><circle class="st4" cx="255.4" cy="381.1" r="10.8"/><circle class="st4" cx="255.4" cy="346.3" r="10.8"/><circle class="st4" cx="254" cy="310.2" r="10.8"/><path class="st5" d="m226.6 268.4 12.3 4.2M226.4 280.2l11.4 2.1M223.6 315.2l12.1 2.5M223.6 325.7l11.4 3.2M223.6 371.2l12.1 3.1M252.3 394.8l-1.6 15.3M260.7 401.3l-1.4 13M272.2 408l-1.4 13.9M281.2 415.2l-1.4 13.2M291.6 424l-1.1 11.4M303.7 431.9l-.7 12.5M316.2 442.7v12.5M329.1 450.6l.3 14.3M342.3 459.7l-.4 15M350.9 465.9l.5 15.7M362.5 473.3l-.7 18.3M373.2 481.2l-.7 17.8M383.6 487.2l.4 15.9M392.3 489.9l1.4 13.5M400.2 486.5l3.9 13.9M409.7 481.6l5.1 12.8M416.6 474.2l7.2 12.5M424.5 466.6l7.4 11.8M433.3 456.9l7.2 11.1M440.5 447.2l7.6 10.8M450.9 436.5l5.6 12.1M460.4 457.6l-10.2-4.2M459.7 467.3l-10.9-3.7M457.6 480.2l-11.5-6.6M455.8 492l-10.7-7.3M455.1 504.8l-11.8-7.2M454.4 515.2l-13.2-5.8M454.8 525.6l-12.9-5.1M454.4 537.2l-13.9-6.3"/><path class="st6" d="M441.2 541.6c-2.8-41 9-88.2 9-88.2s-28.5 52.8-63.2 50.7c-17.8-1.1-50-34-85.4-60.4-34-25.4-76.4-47.6-77.1-51.4-1.4-7.6-2.8-147.9 9-145.8 54.9 13.9 33.3 116.7 36.8 119.4 20.8 6.9 104.2 80.5 113.2 80.5s44.4-104.2 137.5-109c101.4-9 72.9 183.3 73.6 203.4s13.2 9 13.2 9l-7.6 21.5-90.3 22.2-66.7 3.5c.1.1.8-14.4-2-55.4z"/><path class="st15" d="M539.4 572.4c-18.5 11.5-22.2.4-22.2.4-2.8-41-6-167.6-66.9-119.4 56.2-108.7 85.7 53.3 89.1 119z"/><path class="st15" d="M479.7 429.4s15.7-19.9 36.1-16.2c44.9 7.9 51.4 154.6 51.4 154.6l-15.3 2.8s-7-179.7-72.2-141.2z"/><ellipse class="st4" cx="479.8" cy="474.2" rx="16.4" ry="7.4"/><ellipse class="st4" cx="479.8" cy="503.4" rx="20.1" ry="7.9"/><ellipse class="st4" cx="482.6" cy="530.8" rx="21.1" ry="7.4"/><ellipse class="st4" cx="489.5" cy="556.2" rx="17.8" ry="7.9"/><path class="st7" d="M238 269.3c-3.2-3.7-22.6-14.9-38.5-19.4 12.1-12.9 47.2-.4 50.4 5.6 3.3 5.9-8.7 17.4-11.9 13.8z"/><path class="st8" d="M227.8 262.2c-7.8-4.4-18.6-9.6-28.2-12.4 7.5-8.1 24-6.2 36.1-2.4 4.8 1.9-4.5 16.9-7.9 14.8z"/><path class="st1" d="M238 269.3c-3.2-3.7-22.6-14.9-38.5-19.4 12.1-12.9 47.2-.4 50.4 5.6 3.3 5.9-8.7 17.4-11.9 13.8z"/><path class="st7" d="M233.3 291.6c-6-2.4-27.5 0-34.6 8.6 4 7.8 33.7 9.3 37.9 7.4 4.2-1.8 2.7-13.6-3.3-16z"/><path class="st8" d="M223.9 290.9c-8.7.6-20.3 3.5-25.3 9.3 2.5 4.9 15.4 7.4 25.6 7.9 5.9.5 3.7-17.4-.3-17.2z"/><path class="st1" d="M233.3 291.6c-6-2.4-27.5 0-34.6 8.6 4 7.8 33.7 9.3 37.9 7.4 4.2-1.8 2.7-13.6-3.3-16z"/><path class="st7" d="M231.5 364.1c5.1 2.8 12.1-10.7 7.9-18.1-4.2-7.4-30.1-18.1-38.9-9.7 13.9 8.4 25.9 25 31 27.8z"/><path class="st8" d="M223.3 356.5c6.1 5.7 13.5-14.2 7.1-17.6-9.6-5-23.7-8.2-29.9-2.5 8.8 5.2 16.8 13.7 22.8 20.1z"/><path class="st1" d="M231.5 364.1c5.1 2.8 12.1-10.7 7.9-18.1-4.2-7.4-30.1-18.1-38.9-9.7 13.9 8.4 25.9 25 31 27.8z"/><path class="st7" d="M239.4 404c-12.5 4.6-62.9-2.4-42.6-35.7 11.5 18.5 22.2 24.6 27.8 21.8s21.2 11.4 14.8 13.9z"/><path class="st8" d="M216.5 403.8c-16.7-3.5-32.9-14-19.7-35.6 9.4 15.1 18.3 21.9 24.3 22.4 3.9.3 4.6 15.2-4.6 13.2z"/><path class="st1" d="M239.4 404c-12.5 4.6-62.9-2.4-42.6-35.7 11.5 18.5 22.2 24.6 27.8 21.8s21.2 11.4 14.8 13.9z"/><path class="st13" d="M629.4 549.2c-6.2-12.5-34-9.7-34-9.7s-.7 20.6-5.6 22.9c-13.2 6.9-131.9 11.1-131.9 11.1l17.6 31.7c25.7 15.3 108.5-7.4 121.2-12.6 12.8-5.3 42.4-13.1 32.7-43.4z"/><path class="st0" d="M604.6 565.9c14.9-12.9-9.7-23.3-9.6-20.8.4 6-2.1 15.6-6.9 18.1-13.2 6.9-130.3 10.4-130.3 10.4l9.2 12.8c0-.1 122.8-7.4 137.6-20.5z"/><path class="st1" d="M471.3 599.2s136.5-9.3 150-34.7c6.9-16.2-27.4-25-27.4-25"/><path class="st2" d="M281.5 758.9c-25.7-48.6 111.8-47.2 111.1-56.9.7-37.5-87.5-146.5-14.6-183.3 79.2-38.2 75.7 69.4 101.4 84.7 25.7 15.3 109.7-6.9 117.3-11.8 10.4 21.5-4.9 72.9-27.8 85.4s-79.9 7.6-95.8 4.2c-41.2-9.3-51.4-79.9-53.5-79.9-2.1.7 38.2 110.4 37.5 120.1-.7 9.7-19.4 28.5-79.9 34s-92.2 10.5-95.7 3.5z"/><path class="st3" d="M293.6 754.3c3.2 2.4 151.8-12.9 149.6-37.1-2.4-24-53.7-126-29.6-132.9 14.9-4.6 19.2 62.9 53.9 80.1 34.7 17.1 81.4 8.3 104-3.7 22.6-12.1 15.3-65.4 15.3-65.4 5.3-1.7 8.9-2.9 10.3-3.9 10.4 21.5-4.9 72.9-27.8 85.4s-79.9 7.6-95.8 4.2c-41.2-9.3-51.4-79.9-53.5-79.9-2.4.8 37.9 110.5 37.2 120.3-.7 9.7-19.4 28.5-79.9 34s-92.3 10.4-95.8 3.5c-4.9-9-3.9-16.4.7-22.4 0 .1 4.9 13.7 11.4 17.8z"/><circle class="st4" cx="414.8" cy="546" r="10.8"/><circle class="st4" cx="398.1" cy="644.6" r="10.8"/><circle class="st4" cx="410.6" cy="680.7" r="10.8"/><circle class="st4" cx="368.6" cy="727.4" r="10.8"/><circle class="st4" cx="328.3" cy="732.1" r="10.8"/><circle class="st4" cx="383.2" cy="568.4" r="12.1"/><circle class="st4" cx="443" cy="584" r="12.1"/><circle class="st4" cx="465.2" cy="626.2" r="12.1"/><circle class="st4" cx="515.2" cy="642.3" r="12.1"/><circle class="st4" cx="561" cy="629.4" r="12.1"/><circle class="st4" cx="387.3" cy="605.9" r="12.1"/><circle class="st4" cx="417.2" cy="717.3" r="12.1"/><path class="st5" d="M296.5 754.5v7.9M305.5 754.1l.3 7.3M314.5 753.8l.3 6.9M323.9 752.7l.4 7.3M354.1 748.9l1 8.4M366.9 747.1l1.4 8.8M406.2 739.5l3.1 10.4M415.9 735.3l4.9 11.6M427 732.3l5.6 10.4M453 705.9l-11.1.7M448.6 692.7l-10.5.7M444.4 678.4l-12.5.4M439.1 665.2H427M435.4 655.2h-11.6M432.2 643h-13.5M427.3 629.8l-12.1.7M423.8 618.7h-13.2M419.7 606.2l-11.4-.3M419.7 601.3l-11.1-9.7M422.5 592.7l-2.8 8.6M428 606.2l-5.5.7M433.6 617.7l-9.8 1M438.1 629.8l-8 1.1M433.3 644.1l9.3-4.2M439.8 652.7l7.6-4.9M445.4 661.7l8-6.2M461.1 662.1l-7.7 7.3M469.7 667.3l-7 9.7M479.4 670.5l-5.1 9.7M490.2 673.5l-3.5 9.1M502.7 675.6v8.3M515.9 675.6v7.6M530.1 674.2l-.3 9M544.7 671.9l-1 11.8M559.7 680.5l.2-13.2M576.3 670.8l-2.5-11.2M587 654.1l-3.7-5.8M593.7 639.5l-6-5.1M597.8 624l-9-2.8M599.5 609l-10.7-3.1"/><path class="st6" d="M281.5 758.9c-25.7-48.6 111.8-47.2 111.1-56.9.7-37.5-87.5-146.5-14.6-183.3 79.2-38.2 75.7 69.4 101.4 84.7 25.7 15.3 109.7-6 117.3-10.8 10.4 21.5-4.9 71.9-27.8 84.4s-79.9 7.6-95.8 4.2c-41.2-9.3-51.4-79.9-53.5-79.9-2.1.7 38.2 110.4 37.5 120.1-.7 9.7-19.4 28.5-79.9 34s-92.2 10.5-95.7 3.5z"/><path class="st7" d="M284.3 759.9c4.6-1.8 7.9-20.4-5.1-17.1-17.1 3.2-22.6 45.8 8.3 43.5-15.7-13.5-7.8-24.6-3.2-26.4z"/><path class="st8" d="M280.7 763c3.6-3.1-6.1-20.6-10.4-13.7-8.9 12.6-7.2 39 17.2 37.2-11.8-10.3-10.3-19.1-6.8-23.5z"/><path class="st1" d="M284.3 759.9c4.6-1.8 7.9-20.4-5.1-17.1-17.1 3.2-22.6 45.8 8.3 43.5-15.7-13.5-7.8-24.6-3.2-26.4z"/><path class="st7" d="M333.3 753.4c-2.8 7.9-1.8 37.1 20.4 31.9-11.5-11.1-8.3-25.4-6.9-31.9 1.4-6.4-10.7-7.8-13.5 0z"/><path class="st8" d="M332.3 765.2c.8 10.8 6 23.6 21.4 20.1-6.7-6.5-8.5-14-8.5-20.6 0-4.5-13.2-4.4-12.9.5z"/><path class="st1" d="M333.3 753.4c-2.8 7.9-1.8 37.1 20.4 31.9-11.5-11.1-8.3-25.4-6.9-31.9 1.4-6.4-10.7-7.8-13.5 0z"/><path class="st7" d="M378.7 747.8c-1.8 12.5 15.7 41.7 36.1 23.2-14.3-1.4-18.1-15.3-17.6-26 .5-10.5-16.7-9.7-18.5 2.8z"/><path class="st8" d="M380.5 758.8c5 12.8 18.9 26.2 34.3 12.1-10.6-1-15.4-8.9-16.9-17.2-.7-4.8-20.2-2-17.4 5.1z"/><path class="st1" d="M378.7 747.8c-1.8 12.5 15.7 41.7 36.1 23.2-14.3-1.4-18.1-15.3-17.6-26 .5-10.5-16.7-9.7-18.5 2.8z"/><path class="st7" d="M441.6 733.1c5.6 6.9 14.3 10.1 9.7 31 22.6-13.5 12.5-35.7 5.8-42.6-9.4-8.4-21 4.7-15.5 11.6z"/><path class="st8" d="M446.2 737.8c4.6 4.9 8.7 10.6 5.3 26.1 18.1-10.7 15.3-26.8 10-36.5-3.6-4.6-20.6 5.8-15.3 10.4z"/><path class="st1" d="M441.6 733.1c5.6 6.9 14.3 10.1 9.7 31 22.6-13.5 12.5-35.7 5.8-42.6-9.4-8.4-21 4.7-15.5 11.6z"/><circle class="st3" cx="604.8" cy="366.2" r="21.2"/><path class="st7" d="M604.8 387.5c-11.8 0-21.2-9.6-21.2-21.2 0-7.4 3.7-13.9 9.4-17.6 3.3-2.5 5.8 28.8 11.8 38.8z"/><circle class="st9" cx="603.7" cy="367.3" r="8.1"/><circle class="st6" cx="604.8" cy="366.2" r="21.2"/></svg>