<svg version="1.1" id="Calque_1" xmlns="http://www.w3.org/2000/svg" x="0" y="0" viewBox="0 0 900 900" style="enable-background:new 0 0 900 900" xml:space="preserve"><style>.st0{fill:#0062ff;stroke:#000;stroke-width:3.2552;stroke-linecap:round;stroke-linejoin:round}.st1{fill:red}.st2,.st3,.st4,.st5,.st6{fill:#fff;stroke:#000;stroke-width:3.2552;stroke-linecap:round;stroke-linejoin:round}.st3,.st4,.st5,.st6{fill:#075900}.st4,.st5,.st6{fill:#ffce00}.st5,.st6{fill:red}.st6{fill:none}.st7{fill:#fff}.st8{fill:#fdce12;stroke:#000;stroke-width:3.2552;stroke-linecap:round;stroke-linejoin:round}.st10{fill:#ffce00}.st12{fill:#063f00;stroke:#000;stroke-width:3.2552;stroke-linecap:round;stroke-linejoin:round}.st13{fill:#0062ff}.st16,.st18{fill:none;stroke:#000;stroke-width:4.3402;stroke-linecap:round;stroke-linejoin:round}.st18{stroke:red;stroke-width:3.2552}</style><path class="st0" d="M280.5 386s-23.2 6.1-23.9 7.9c-.7 1.8-3.2 33.6-3.2 33.6s28.2-9.3 29.3-11.8c1-2.6-2.2-29.7-2.2-29.7z"/><path class="st1" d="M272.3 401.5c0 2.5-2 4.5-4.5 4.5s-4.5-2-4.5-4.5 2-4.5 4.5-4.5 4.5 2 4.5 4.5z"/><path class="st2" d="m474.9 607.9 13.4-65.4h28.4l-3.2 64.8-24.1 7zM330.9 566.1c1.6.5 58.7 19.1 58.7 19.1l6.6-46.4s-33.2-24.6-34.8-24.6-25.7 17.1-25.7 17.1l-4.8 34.8"/><path class="st3" d="m534 370.3 67.1-3.2 1.8 37.4-69.6 9z"/><path d="m541.1 379.2 57.2-5.4-.7 23.6-58.2 5.7z"/><path class="st3" d="M153.8 217.1s-73.5-3.6-75.3-2.9-1.8 6.1 0 7.5c1.8 1.4 73.9 4.6 73.9 4.6s-72.8 4.3-75.7 5-1.4 10.4 0 10 77.5-3.2 77.5-3.2-73.9 10.4-75.3 11.8-.4 8.2.7 8.6c1.1.4 76.4-11.4 76.4-11.4s-73.6 16.8-74.3 17.8.4 9.3 1.8 9.3 73.5-17.1 73.5-17.1-71.4 22.9-71.4 24.6c0 1.8 1.1 10 2.5 9.6 1.4-.4 71.8-23.2 71.8-23.2s-68.5 27.5-69.3 29.3c-.7 1.8 1.4 8.9 3.6 8.2 2.1-.7 68.9-28.2 68.9-28.2s-63.6 35.3-64.6 36.8c-1.1 1.4 3.2 10 4.3 8.9 1.1-1.1 63.2-34.3 63.2-34.3s-58.2 41.4-58.5 42.8 3.2 7.9 4.6 7.1c1.4-.7 57.5-34.6 57.5-34.6l-5.7-62.8-10.1-24.2z"/><path class="st4" d="M117.9 323.5c-6.2 4.6-10.4 7.8-10.5 8.2-.4 1.4 3.2 7.9 4.6 7.1.4-.2 5.1-3 11.7-7l-5.8-8.3zM110.5 307c-6.9 4-11.8 6.8-12.1 7.2-1.1 1.4 3.2 10 4.3 8.9.3-.3 5.1-3 12-6.7l-4.2-9.4zM104.7 290.8c-8.1 3.5-13.9 6.1-14.1 6.6-.7 1.8 1.4 8.9 3.6 8.2.6-.2 6.2-2.5 14-5.6l-3.5-9.2zM100.2 275.9c-8.6 3-14.6 5.3-14.6 5.8 0 1.8 1.1 10 2.5 9.6.4-.1 6.3-2 14.5-4.6l-2.4-10.8zM97.5 260.7c-9.1 2.2-15.7 3.9-15.9 4.2-.7 1.1.4 9.3 1.8 9.3.4 0 7.1-1.5 16.3-3.7l-2.2-9.8zM94 247c-8.6 1.4-14.8 2.5-15.2 2.9-1.4 1.4-.4 8.2.7 8.6.3.1 7.1-.8 16.4-2.2L94 247zM92.7 230.1c-8.8.6-15.2 1.1-16 1.3-2.9.7-1.4 10.4 0 10 .4-.1 6.9-.4 16.1-.8l-.1-10.5zM93.4 214.5c-8.5-.3-14.5-.4-15-.2-1.8.7-1.8 6.1 0 7.5.5.4 6.4.9 14.7 1.5l.3-8.8zM170.5 309.9l75.3-28.6-16.4-73.5-78.2 6.4c-2.1 34 19.3 95.7 19.3 95.7z"/><path class="st0" d="m203.6 297.4 42.3-16-16.4-73.5-46.1 3.8c-3.2 29.3 20.2 85.7 20.2 85.7z"/><path class="st2" d="m215.1 293 30.7-11.7-16.4-73.5s-34.6-26.7-35 2.9c-.3 29.5 20.7 82.3 20.7 82.3z"/><path class="st5" d="m220.5 291 25.4-9.6-16.4-73.5s-26.8-32.1-26.8 2.1 17.8 81 17.8 81z"/><path class="st0" d="m229.8 287.5 16.1-6.1-16.4-73.5s-9.5 3.2-17.1 1.1c-2.2 4.9 17.4 78.5 17.4 78.5z"/><path class="st2" d="M218.4 188.3s-12.5 4.5-20.4 4.1c-7.9-.3-12.5-8.6-17.8-9.3-2.6-.3-20.2 1.3-30-2.9-10.1-4.2-15.4-17.1-11.4-18.6 3.9-1.4 3.9 7.1 14.3 11.1s25 3.5 27.1 2.5c4.2-2 9.5-7.7 16.5-6.1 7 1.7 16.5 9.8 20.3 10.4 3.9.6 1.4 8.8 1.4 8.8z"/><path class="st2" d="M217 195.3s-11.8-6.1-19.6-6.8c-7.9-.7-17.8 6.4-23.2 6.4-2.6 0-16.5-1.7-26.8 1.1-10.6 2.9-17.5 10.3-16.4 13.2 1.1 2.9 9.2-3.2 20-5.7s24.5-1.6 26.4-.4c3.9 2.5 11.8 8.2 18.9 7.5 7.1-.7 17.1-7.1 21.1-7.1 3.8 0-.4-8.2-.4-8.2z"/><path class="st4" d="M612.9 361s-13.6-3.2-18.6 0c-5 3.2-4.6 43.9.7 46.4s20 .4 20 .4l-2.1-46.8z"/><path class="st3" d="M324.8 651.2s46.4-59.3 48.9-66c2.5-6.8 7.5-23.6 7.5-23.6l52.8-5.3-27.5 73.2-55 40.7-26.7-19z"/><path d="m331.6 653 40.3-50.3 38.9 10.3-13.2 15-50.3 35.7z"/><circle class="st5" cx="320.5" cy="689.1" r="39.6"/><path class="st4" d="M304.1 701.6s-8.6 15.7-14.3 16.1c-5.7.4-39.6-15.4-50.7-12.1-6.4 2.1-11.8 10-11.8 14.3 0 7.9 7.5 16.4 13.6 15.3 6.5-1.2 13.2-10.6 2.5-16.7 6.8-4.3 36.8 14.3 46.4 14.3 9.6 0 25.7-23.9 25.7-23.9l-11.4-7.3z"/><path class="st6" d="M243.4 718.4c-3.6 1.2-4.1 6-4.1 6"/><path class="st4" d="M326.2 710.5s-16.1 29.6-15 30c0 0 5.3-9.6 13.2-4.3 7.9 5.3 1.8 21.8-10 20.7-5-.4-14.3-6.8-15-17.1-.7-10.4 13.9-32.5 13.9-32.5l12.9 3.2z"/><path class="st4" d="M311.2 740.5c-1.8 4.6 3.9 8.6 3.9 8.6"/><path class="st2" d="M344.1 689.3c0 12.5-10.2 22.7-22.7 22.7s-22.7-10.2-22.7-22.7 10.2-22.7 22.7-22.7 22.7 10.1 22.7 22.7z"/><path class="st0" d="M336.2 689.1c0 7.9-6.4 14.3-14.3 14.3s-14.3-6.4-14.3-14.3 6.4-14.3 14.3-14.3 14.3 6.4 14.3 14.3z"/><path class="st3" d="m236.2 282.4-18.9-73.2s101.7-18.9 110-20c8.2-1.1 72.1-12.5 125.7-2.1-7.5-3.6-13.6-14.6-7.1-23.6 6.4-8.9 21.8-5.7 22.1 2.1.4 7.9-9.3.7-12.1 2.5-2.9 1.8-.4 9.3 5.7 8.2 6.1-1.1 28.9 1.8 40.3 10.4-.4-3.9-2.9-13.2 7.1-19.6s22.5 6.4 20.7 11.8c-1.8 5.3-8.2-1.1-10.7.4-2.5 1.4-2.9 6.8 0 7.5s36.4 15.4 33.9 45.7c-2.5 30.4-1.8 108.5-1.8 108.5l-9.3 134.6-18.6-.7-117-152.8-75-71.4-95 31.7z"/><path class="st6" d="M418.7 256.4s41.8-2.9 47.1 5.3c5.3 8.2-1.1 76.1-1.1 76.1M453 187.1c2.9 1.8 49.6 0 73.9 20.7 20 16.4 5 49.3 2.1 76.8s-6.6 150.8-7.1 158.2"/><path class="st6" d="M501.9 186.7c.7 4.6 21.1 15.7 27.5 22.1 22.1 16.8 10 57.1 7.5 76.4s-8.8 161-10 164.6M538.3 472.4s5-113.5 8.2-133.5"/><path class="st6" d="M515.8 173.5c-8.6 0-7.5 10.4-5.3 13.6s33.9 15 38.6 41.1c1.8 12.1-1.1 27.9-5.4 58.6-4.3 30.7-8.2 134.2-8.2 134.2"/><path class="st6" d="M457.2 163.2c-12.1-.4-10 15-2.1 18.2 6.2 2.5 39.3-2.5 70 25M385.1 188.5s93.5-.4 126 15.4 13.6 60.3 10.7 79.6C518.9 302.8 515 432 515 432"/><path class="st6" d="M386.9 194.2s112.8 1.1 128.2 20c15.4 18.9 1.4 51.8-.7 68.5-2.1 16.8-6.1 136.7-6.1 136.7"/><path class="st6" d="M388.7 200.7s107.1 2.1 120 20c12.8 17.8 1.8 47.5-.7 61.8-2.5 14.3-6.1 125.3-6.1 125.3"/><path class="st6" d="M388 207.5s100.3.4 113.2 19.3c12.9 18.9 3.2 46.1.7 55-2.5 8.9-7.5 94.6-7.5 94.6"/><path class="st6" d="M423.7 249.6s36.4-2.5 46.4 6.1 1.4 90 1.4 90"/><path class="st6" d="M423.7 243.9s46.1-1.4 54.3 8.2c8.2 9.6 0 91.1 0 91.1"/><path class="st6" d="M393.7 238.9s77.8-6.1 90.7 11.1c12.8 17.1-.4 91.8-.4 91.8"/><path class="st6" d="M386.9 229.6s90-4.6 103.2 14.6c14.3 20.3-.4 100.7-.4 100.7"/><path class="st6" d="M383.7 220.3s101.4 1.4 109.6 16.1c8.2 14.6 8.6 45.3 8.6 45.3s5-33.2-5.3-50.3c-10.4-17.1-111.4-16.8-111.4-16.8"/><path class="st0" d="M626.8 406.3s-10.7 4.3-16.4 2.5c-5.7-1.8-8.9-46.8-.7-49.6 8.2-2.9 15.4.4 15.4.4l1.7 46.7z"/><path class="st4" d="M598.6 362.4c0 5.1-4.2 9.3-9.3 9.3-5.1 0-9.3-4.2-9.3-9.3 0-5.1 4.2-9.3 9.3-9.3 5.2 0 9.3 4.2 9.3 9.3zM598.6 403.1c0 5.1-4.2 9.3-9.3 9.3-5.1 0-9.3-4.2-9.3-9.3 0-5.1 4.2-9.3 9.3-9.3 5.2 0 9.3 4.2 9.3 9.3z"/><path class="st2" d="M505.4 361s10.4 5.3 34.3 17.1c-8.9 5.3-29.6-6.8-29.6-6.8s16.1 14.6 13.6 25c-15.7-16.8-27.5-26.1-27.5-26.1l9.2-9.2zM471.9 347.8s4.6-9.6 9.3-9.3c4.6.4 15.7 9.6 16.1 12.5.4 2.9-13.6 13.6-13.6 13.6l-11.8-16.8z"/><path class="st2" d="M493.7 374.2s16.4-11.8 15.7-14.3c-.7-2.5-9.6-8.9-12.1-8.9S483 363.1 483 363.1l10.7 11.1z"/><path class="st4" d="M362.3 602.3c0 4.7-3.8 8.6-8.6 8.6-4.7 0-8.6-3.8-8.6-8.6s3.8-8.6 8.6-8.6c4.7.1 8.6 3.9 8.6 8.6z"/><circle class="st4" cx="381.5" cy="614.1" r="8.6"/><path class="st4" d="M413.7 624.8c0 4.7-3.8 8.6-8.6 8.6-4.7 0-8.6-3.8-8.6-8.6s3.8-8.6 8.6-8.6c4.7.1 8.6 3.9 8.6 8.6z"/><path class="st5" d="M345.5 592c-3.9-3.2-58.6-5.3-60.7-5-2.1.4-1.1-6.4.4-7.9 1.4-1.4 41.8 2.5 40.3 1.1-1.4-1.4-37.1-7.9-38.2-8.6-1.1-.7.4-9.3 2.5-8.9 2.1.4 47.1 13.2 45.3 10 0 0-42.5-15.4-43.9-16.1-1.4-.7.7-9.3 3.2-8.2 2.5 1.1 38.6 18.9 39.3 17.1.7-1.8-33.6-22.1-35.4-23.6-1.8-1.4 2.9-8.9 5-7.5 2.1 1.4 50 31.8 50 31.8s-3.9 29-7.8 25.8z"/><path class="st4" d="M298.4 587.3c-7.4-.3-12.9-.4-13.6-.3-2.1.4-1.1-6.4.4-7.9.5-.5 6.6-.3 13.9.1l-.7 8.1zM301.6 574.7c-7.4-1.5-13.9-2.8-14.3-3.1-1.1-.7.4-9.3 2.5-8.9.8.1 7.1 1.9 14.7 3.9l-2.9 8.1zM305.3 561.2c-7.5-2.4-13.5-4.3-14.1-4.6-1.4-.7.7-9.3 3.2-8.2 1 .4 6.8 3.3 13.7 6.5l-2.8 6.3zM314.2 541.4c-5.9-3.8-10.2-6.5-10.9-6.9-2.1-1.4-6.8 6.1-5 7.5.6.5 5.2 3.3 10.9 6.8l5-7.4zM421.2 592.3l-.5-.2-55.9-22.3-10.7 28.6s49.3 13.9 58.9 22.5c6-.7 8.2-28.6 8.2-28.6z"/><path class="st7" d="M363.3 585.2 409 602l-3.9 9.6-47.1-17.1z"/><path class="st5" d="m421.2 592.3-.5-.2-14.5 17s-42.5-14.3-42.9-16.1c-.4-1.8 8.7-20.3 8.7-20.3l-7.3-2.9-10.7 28.6s49.3 13.9 58.9 22.5c6.1-.7 8.3-28.6 8.3-28.6z"/><path class="st6" d="M380.1 583.2c0 1.9-1.5 3.4-3.4 3.4s-3.4-1.5-3.4-3.4 1.5-3.4 3.4-3.4 3.4 1.6 3.4 3.4zM393 588.6c0 1.9-1.5 3.4-3.4 3.4s-3.4-1.5-3.4-3.4 1.5-3.4 3.4-3.4 3.4 1.5 3.4 3.4z"/><circle class="st6" cx="401.4" cy="592.9" r="3.4"/><path class="st5" d="M354.1 598.4c-1.1.7-12.1-1.4-12.1-2.9 0-1.4 11.4-35 12.8-34.6 1.4.4 9.6 6.4 10 8.9.3 2.5-9.7 27.9-10.7 28.6zM217 565.9l39.9-58.5-12.1-7.2-43.2 53.6z"/><path class="st8" d="M227.7 503.8s5.3 8.9 12.1 8.9 9.6-9.3 9.6-9.3l-16-11.4-5.7 11.8z"/><path class="st3" d="M321.9 485.2c3.2-1.1 45-82.1 45-82.1l7.9 13.9s-28.9 120.3-40 121.7c-11.1 1.4-99.3-38.9-99.3-38.9L248 472s70.7 14.3 73.9 13.2z"/><path d="M243.7 478.1s78.9 16.4 81 15.7c2.1-.7 35.7-71.4 35.7-71.4l130-35s44.3 81.8 51.4 88.2c-12.5 9.3-77.8 24.6-77.8 24.6l-126.8 15.4s-7.1 13.6-11.4 13.9c-4.3.4-89.6-35.7-89.6-35.7l7.5-15.7z"/><path class="st2" d="M393 718c41.8-95.3 48.6-171.7 48.6-171.7l19.3-14.6s58.6-22.9 40 13.9S473 744.5 473 744.5s-71.8-15.4-80-26.5z"/><path class="st1" d="M449.3 640.2c-.4 3.1-4.5 5.2-9.2 4.6s-8.2-3.6-7.8-6.8c.4-3.1 4.5-5.2 9.2-4.6 4.8.7 8.2 3.7 7.8 6.8zM474 644.5c-.4 3.1-4.5 5.2-9.2 4.6-4.7-.6-8.2-3.6-7.8-6.8.4-3.1 4.5-5.2 9.2-4.6 4.7.6 8.2 3.7 7.8 6.8z"/><path class="st6" d="m405.1 724.8 13.6-38.2M418.3 730.5l13.2-40.7M434.4 735.1l9.3-42.4M450.5 739.1l7.1-43.9M462.2 741.9l6.5-43.9"/><path class="st0" d="M479.5 662.7c-.8 7.7-1.5 15.3-2.1 22.5-31.6 1.4-70.3-1.4-64.9-17.2 2.4-6.8 4.5-13.4 6.5-19.9l60.5 14.6zM459.4 604.8c-7.5-1.8-28.1-1.3-28.1-1.3 1.1-4.8 2.1-9.4 3.1-13.6 2.9 1 45 6.4 53.4 7.8-.7 4.4-1.4 8.9-2.1 13.6-.1 0-18.8-4.7-26.3-6.5z"/><path class="st4" d="M477.9 679.4c-.7 7.3-1.3 14.2-1.8 20.8l-69.3-16.3c2.5-6.6 4.8-13.1 6.9-19.4l64.2 14.9zM461.5 596.6c-11.4-2.1-28.1-2.5-28.1-2.5.7-3 1.3-5.9 1.8-8.6 0 0 14.4.6 27.7 2.5 11.6 1.7 22.2 4.6 25.3 6.1-.5 2.8-.9 5.7-1.4 8.6.1.1-13.8-3.9-25.3-6.1z"/><path class="st2" d="M402.3 613c12.1-.7 16.1-9.6 16.1-9.6s6.1 16.1 16.4 19.3C436.2 578 463.3 408.4 473 397c9.6-11.4-3.9-10.4-3.9-10.4s-17.1-1.4-16.1 14.3c1 15.8-50.4 211.1-50.7 212.1z"/><path d="M446.8 435.1c-4.5 20.1-10.9 46.6-17.5 72.9l18.5 8.2c3.9-24.5 8.1-49.2 12.1-69.6l-13.1-11.5z" style="fill:red;stroke:#000;stroke-width:2.1701;stroke-linecap:round;stroke-linejoin:round"/><path class="st5" d="M291.2 480.9c.3-6.4-5.1-9.4-9.3-11.4-11.1-4.3-22.1.7-22.2 4.8 5.8 1.1 13.4 1.8 20.8 4.1 8.5 2.5-51.8 92.3-50.1 91.8l13.6 8.6c.1 0 45.4-72.5 47.2-97.9z"/><path class="st8" d="M245.9 466.3s8.9-3.9 11.8-.4c2.9 3.6.7 11.4-.7 13.2-1.4 1.8-13.2-1.1-13.2-1.1l2.1-11.7z"/><path class="st4" d="M230.2 503.8c9.3-2.9 20.7-29.6 17.8-37.8-2.9-8.2-15-6.1-15-6.1l-17.8 35.7s5.7 11 15 8.2z"/><path class="st0" d="M203.4 480.9c-4.6 10 5.7 15.7 11.8 14.6 6.1-1.1 23.2-26.4 18.9-36.8-4.3-10.4-17.1-11.1-20.3-2.5 0 0 3.9 11.1.4 17.8-3.6 6.9-9.7 6.6-10.8 6.9z"/><path class="st5" d="M213.8 456.3c4.6 3.2 3.9 11.1.4 17.8-3.6 6.8-9.6 6.4-10.7 6.8 0 0-28.6 4.3-40 0s-22.7-14.5-16.2-37c-4.8-5.9-59.8-29.4-56.2-39.6 1.4-4.8 57.8 25.2 61 23.6-15-7.5-18.8-12.8-17.1-20.9 1.1-3.2 56.8 19.3 59.5 23 2.5 3.8 14.6 23.1 19.3 26.3z"/><path class="st2" d="M106.4 420.1c-9.6-6.1-16.8-11.9-15.4-15.8.5-1.8 8.7 1.3 19 5.7-.1 6.7-3.6 10.1-3.6 10.1zM141.6 421.8c-6.3-4.7-7.9-9.1-6.7-14.7.4-1.3 9.2 1.4 20 5.4 2.1 8.5-9.7 9.5-13.3 9.3zM152 427.9c7.5 1.6 35 17.7 35 17.7s-5 1.1-7.9 6.1c0 0-27.1-13.6-27.8-14.6-.7-1.1.3-7.2.7-9.2z"/><path class="st6" d="M151.3 437c-.7-1.1-4.1 7-4.1 7M174.5 462s1.1-5 4.6-10.4"/><path class="st2" d="m194.5 546.6 65.3 42.1S207 688 192.3 696.5c-7.9 4.6-34.3 12.5-55.3-3.6-21.1-16.1-19.3-34.8-17.1-47.1 4.6-26.7 74.6-99.2 74.6-99.2z"/><path class="st10" d="m202.5 551.8 47.3 30.1s-43.2 92.5-60.7 101c-12.8 6.1-33.2 8.9-45 0-11.8-8.9-16.4-18.2-15-36.8 3.2-23.8 73.4-94.3 73.4-94.3z"/><path class="st1" d="m202.5 551.8 47.3 30.1s-47.8 90.7-62.5 98.9c-7.1 3.2-29.3 7.9-41.1-1.1-11.8-8.9-14.6-23.9-13.9-32.5 1.5-19.5 70.2-95.4 70.2-95.4z"/><path class="st3" d="M163.8 658c-9.6-6.8-7.1-16.2-7.1-20.7 0-8.9 56.5-78.7 56.5-78.7l26.4 16.8s-47.9 77.6-53.3 80.8c-2.7 1.7-12.9 8.6-22.5 1.8z"/><path d="M163.8 658c-9.6-6.8-7.1-16.2-7.1-20.7 0-8.9 56.5-78.7 56.5-78.7l2.6 1.7s-53.8 68.1-54.8 81c-.9 10.3 8.6 16.6 18.6 13.2 11.4-3.9 57-81 57-81l3.1 2s-47.9 77.6-53.3 80.8c-2.8 1.6-13 8.5-22.6 1.7z"/><path d="M171.6 632.7c1.1-8.2 50.3-68.5 50.3-68.5l8.2 5.2s-41.7 70.4-45.6 73.3c-4 2.8-14-1.8-12.9-10z" style="stroke:#000;stroke-width:3.2552;stroke-linecap:round;stroke-linejoin:round"/><path class="st6" d="M200.5 566.8c0 1.9-1.5 3.4-3.4 3.4s-3.4-1.5-3.4-3.4 1.5-3.4 3.4-3.4 3.4 1.5 3.4 3.4z"/><circle class="st6" cx="177.9" cy="589.3" r="3.4"/><circle class="st6" cx="160.7" cy="611.8" r="3.4"/><circle class="st6" cx="214.5" cy="632" r="3.4"/><path class="st6" d="M230.4 610.2c0 1.9-1.5 3.4-3.4 3.4s-3.4-1.5-3.4-3.4 1.5-3.4 3.4-3.4c1.8 0 3.4 1.5 3.4 3.4zM242.8 590.9c0 1.9-1.5 3.4-3.4 3.4s-3.4-1.5-3.4-3.4 1.5-3.4 3.4-3.4 3.4 1.5 3.4 3.4zM150.6 636.1c0 2.7-2.2 4.8-4.8 4.8s-4.8-2.2-4.8-4.8 2.2-4.8 4.8-4.8 4.8 2.1 4.8 4.8zM151.6 661.8c0 2.7-2.2 4.8-4.8 4.8s-4.8-2.2-4.8-4.8c0-2.7 2.2-4.8 4.8-4.8 2.7 0 4.8 2.1 4.8 4.8zM169.8 673.6c0 2.7-2.2 4.8-4.8 4.8s-4.8-2.2-4.8-4.8 2.2-4.8 4.8-4.8c2.7-.1 4.8 2.1 4.8 4.8z"/><circle class="st6" cx="186.4" cy="670.3" r="4.8"/><path class="st6" d="M205.7 652.3c0 2.7-2.2 4.8-4.8 4.8-2.7 0-4.8-2.2-4.8-4.8s2.2-4.8 4.8-4.8c2.7 0 4.8 2.2 4.8 4.8z"/><path class="st5" d="M366.6 401.7s-57.1 184.2-65 196c14.6-3.6 21.4-11.8 21.4-11.8s-1.8 16.1 13.2 22.9c5.7-85.7 46.4-190.3 46.4-190.3l-7.1-19.6-8.9 2.8z"/><path class="st0" d="M320.7 545.4c-9.1 27.3-16.6 48.5-19.1 52.3 14.6-3.6 21.4-11.8 21.4-11.8s-1.8 16.1 13.2 22.9c1.2-18.3 4.1-37.6 7.7-56.4l-23.2-7z"/><path class="st6" d="m194.5 546.6 65.3 42.2"/><circle class="st4" cx="369.1" cy="419.9" r="8.9"/><path class="st4" d="M404.8 440.2c0 4.9-4 8.9-8.9 8.9s-8.9-4-8.9-8.9 4-8.9 8.9-8.9 8.9 4 8.9 8.9zM441.2 440.2c0 4.9-4 8.9-8.9 8.9s-8.9-4-8.9-8.9 4-8.9 8.9-8.9 8.9 4 8.9 8.9z"/><path class="st0" d="M366.6 401.7s.7 25.3 25.7 33.6c55 17.8 99.3-48.2 99.3-48.2l-32.8-49.3-26.4-2.5-59.6 28.2-6.2 38.2z"/><path class="st2" d="M382.6 384.9s-2.4 21.3 10.7 28.6c41.1 22.9 89.3-35.7 89.3-35.7l-3.9-8.2-24.7-27.9-52.8 22.1-18.6 21.1z"/><path class="st4" d="M388 378.8s0 22.5 8.6 29.3c33.9 21.1 81-34.6 81-34.6l-8.6-13.2s-36.4 40-47.5 38.9c-11.1-1.1-7.9-36.1-8.9-36.4-1.1-.4-18.9-5.3-18.9-5.3l-5.7 21.3z"/><path class="st5" d="M423.3 397s-8.9 2.5-15.7-4.3c-6.8-6.8-5.7-28.9-5.7-28.9l18.9-18.6 13.9 19.3 9.6 25.3-21 7.2z"/><path class="st2" d="M423 408.8s2.9 18.9 0 35.7c11.8-6.8 11-32.5 11-32.5s11.1 24.3 19.3 26.8c-6.1-19.3-10.7-37.1-10.7-37.1L429 401l-6 7.8z"/><path class="st5" d="M420.1 392s-2.1 18.6 1.1 18.2c3.2-.4 21.4-7.1 23.6-8.9 2.1-1.8-11.8-13.6-11.8-13.6l-12.9 4.3z"/><path class="st2" d="M435.8 384.9c0 5.7-4.6 10.4-10.4 10.4-5.7 0-10.4-4.6-10.4-10.4 0-5.7 4.6-10.4 10.4-10.4 5.8.1 10.4 4.7 10.4 10.4z"/><path class="st6" d="M219.1 215.3 324.4 195M222.7 223.3l101-21.2M225.3 234.6c10.4-5.7 98.4-26.8 98.4-26.8"/><circle class="st2" cx="414" cy="246.4" r="12.8"/><path class="st2" d="M308.4 390.3s2.5 5.3 4.3 4.3c1.8-1.1 23.6-17.8 28.2-17.8 4.6 0-9.3-7.5-9.3-7.5l-23.2 20.3"/><path class="st4" d="M418 353.5s-51.1 50.7-59.6 55.3c-8.6 4.6-13.2-12.8-18.2-12.1-5 .7-9.3 8.9-12.1 8.9s-6.1-4.3-6.4-7.5c-.4-3.2 19.3-12.5 20-16.1.7-3.6-6.8-6.4-11.1-6.1-4.3.4-19.6 13.2-22.1 14.3-2.5 1.1-5.7-6.8-5.7-6.8s-13.2 7.1-17.1 8.2c-3.9 1.1-7.5-8.9-11.1-16.1-3.6-7.1-.7-46.4-.7-46.4-16.4-6.8-14.3-22.9-17.8-26.1-3.6-3.2 5-21.4 5-21.4l104.6-38.2 58.9 53.2-6.6 56.9z"/><path class="st12" d="M255.9 303.1c-.7-.4-7.5-7.5-5.7-8.6 1.8-1.1-3.6-10.4-2.9-12.5 0 0-10.4-4.6-11.8-4.3-1.4.4-11-28.8-9.6-33.2 2.9-9.6 40-22.5 48.2-25 8.2-2.5 12.5 5 12.5 5s5.7-13.6 12.1-17.1 36.1-5.3 36.1-5.3 43.2 15.7 48.9 22.1c5.7 6.4 61.4 77.5 61.4 77.5l14.6 29.3 49.6 61.4-9.6 5s-44.3-48.9-46.4-47.8c-2.1 1.1 34.3 55.7 34.3 55.7l-9.3 7.5S442.2 355 438.7 356c-3.6 1.1 28.2 68.2 28.2 68.2l-8.9 6.1-35.7-73.9L398 295l-29.6-22.9-12.8-15.7c-.1 0-99 47.1-99.7 46.7z"/><path class="st12" d="M302.7 253.9s-10.4-22.9-16.1-29.3"/><path class="st3" d="M385.8 302.4s-102.1 46.4-113.2 57.5c.1 7.1.6 13.3 1.8 15.7 3.6 7.1 7.1 17.1 11.1 16.1 3.9-1.1 14.3-6.4 17.1-8.2 8.9-5 10.7-13.6 10.7-13.6s77.5-46.1 85-45.7c7.5.4-12.5-21.8-12.5-21.8zM427.6 324.2l-9.6 29.3s-51.1 50.7-59.6 55.3c-6 3.3-10.1-4.5-13.8-9.1l83-75.5z"/><path d="M418 353.5s-51.1 50.7-59.6 55.3c-4 2.1-7.1-.4-9.8-3.8 0 0 82.1-74.4 79.4-74l-10 22.5zM278.7 362.8c-1.4 3.6 3.9 23.9 7.5 22.5 3.6-1.4 15.7-6.4 17.5-9.6 1.8-3.2-1.4-10-3.9-9.6-2.5.4-1.1 6.1-2.1 6.4-2.9 1.4-6.4-3.2-3.6-7.9 2.9-4.6 10-7.9 11.8-6.8 1.8 1.1 3.2 7.5 5.7 7.5s76.1-44.6 83.6-44.6-8.2-13.9-8.2-13.9-106.8 52.4-108.3 56z"/><path class="st2" d="M308.7 296c9.7 7.5 15 2.5 15.7 7.1.4 3.2-7.5 7.1-8.1 10.3-1.3 8.4-8.5 14.7-17.3 14.7-9.7 0-17.5-7.8-17.5-17.5s7.8-17.5 17.5-17.5c3.6 0 6.9 1.1 9.7 2.9z"/><path class="st1" d="M308.7 296c9.7 7.5 15 2.5 15.7 7.1.4 3.2-7.5 7.1-8.1 10.3 0 0-7.3-2.1-8-6.3-.7-4.3.4-11.1.4-11.1z"/><circle class="st6" cx="299.1" cy="311.4" r="11.1"/><path class="st6" d="M305.5 311c0 3.5-2.9 6.4-6.4 6.4-3.5 0-6.4-2.9-6.4-6.4 0-3.5 2.9-6.4 6.4-6.4 3.5 0 6.4 2.9 6.4 6.4zM308.7 296c9.7 7.5 15 2.5 15.7 7.1.4 3.2-7.5 7.1-8.1 10.3"/><path class="st5" d="M540.1 231.7c0 16-12.9 28.9-28.9 28.9s-28.9-12.9-28.9-28.9 12.9-28.9 28.9-28.9c15.9 0 28.9 13 28.9 28.9z"/><path class="st10" d="M527.9 232.8c0 9.3-7.5 16.8-16.8 16.8s-16.8-7.5-16.8-16.8 7.5-16.8 16.8-16.8 16.8 7.5 16.8 16.8z"/><path class="st13" d="M523.3 232.4c0 6.7-5.4 12.1-12.1 12.1-6.7 0-12.1-5.4-12.1-12.1s5.4-12.1 12.1-12.1c6.7 0 12.1 5.4 12.1 12.1z"/><path class="st4" d="M544.7 287.8s6.8-65 16.8-74.6c10-9.6 20.9-6.3 25-1.1 5 6.4 6.8 25.3-5.3 26.4-12.1 1.1-10.4-9.3-6.8-10.4 3.6-1.1 8.9-1.8 5.7-6.4-3.2-4.6-10-2.1-14.3 2.1-4.3 4.3-11.1 65.3-11.1 65.3l-10-1.3zM453 278.9s87.8 3.2 110.7 11.8l-8.9 53.2c-20-10.7-97.8-10.4-97.8-10.4l-4-54.6z"/><path class="st0" d="M528.7 327.4c1.8 1.1 20.8-19.9 20.8-19.9-8.6-1.9-19.9-3.8-33.3-4.4 0 0 2.5 14.3.4 15.4-2.1 1.1-19.6.7-21.1-.4-1.4-1.1-2.5-5.3-.4-6.1 2.1-.7 12.5 1.8 13.6-.4 1.1-2.1 0-3.2-1.1-5-1.1-1.8-17.1-1.4-19.6-.4-2.5 1.1-.4 17.8-.4 17.8s36.8.2 41.1 3.4z"/><path class="st5" d="M451.9 289.6c53.9-1.4 110.2 10.4 110.2 10.4l-1.7 10.4s-19.5-6.1-44.2-7.2c0 0 2.5 14.3.4 15.4-2.1 1.1-19.6.7-21.1-.4-1.4-1.1-2.5-5.3-.4-6.1 2.1-.7 12.5 1.8 13.6-.4 1.1-2.1 0-3.2-1.1-5-1.1-1.8-17.1-1.4-19.6-.4-2.5 1.1-.4 17.8-.4 17.8l-25-.4-13.6-10.4c0 .2-51-22.3 2.9-23.7z"/><path d="M412.3 261.4s40-.7 44.6.7c4.6 1.4 12.5 15-3.9 16.8 1.1 2.1 2.9 23.2 2.9 23.2l-22.1 5-21.5-45.7z"/><path class="st3" d="M453.7 299.6s26.1-.7 26.1 2.1c0 2.9-15.7 15-15.7 15l-13.6-2.5 3.2-14.6z"/><path class="st2" d="M560.7 507.2s82.2 205.8 85 205.4c2.9-.4 34.6-4.6 44.6-11.8-38.9-50-85.7-174.6-85.7-174.6l-43.9-19z"/><path class="st5" d="M644.8 620.7c-.9-1.9-1.8-3.8-2.6-5.6 0 0-19.9 5.1-19.9 6.9 0 1.8.4 5.7 2.1 6.1 1.7.3 20.4-7.4 20.4-7.4z"/><path style="fill:none;stroke:#000;stroke-width:5.4253;stroke-linecap:round;stroke-linejoin:round" d="m610.1 543.1-33.2-21.5"/><path style="fill:none;stroke:#000;stroke-width:5.4253;stroke-linejoin:round" d="m622.2 568.1-38.6-20.7"/><path class="st16" d="m591.9 571.3 25.7 8.9"/><path class="st4" d="M609.3 591.6s12.8-3.9 19.2-6.9c-1.7-4-3.4-7.9-5-11.6 0 0-22.8 8.9-22.8 11 .1 2.2 8.6 7.5 8.6 7.5z"/><path class="st5" d="M560.7 507.2s17.4 43.7 36.5 90.8c4.6-1.4 9.9-9.3 9.9-9.3s-13.6-13.9-12.8-15.7c.7-1.8 9.3-1.1 9.3-1.1s-15.7-6.1-14.6-15c.7-1.1 7.9-.7 7.9-.7S583 545.8 583 543.4s7.9-1.4 7.9-1.4-20-14.3-21.8-23.2c-1.1-5.3-2.5-12.5-2.5-12.5l-5.9.9z"/><path class="st0" d="M629.9 588c-1.1-2.5-2.1-4.9-3.2-7.3-1 0-31.3 13-31.3 13 1.1 2.8 2.2 5.6 3.4 8.4l31.1-14.1zM613.8 524.1c-5.6 3-11.9 4.7-18.7 4.7-21.7 0-39.3-17.6-39.3-39.3 0-17.1 10.9-31.6 26.2-37l31.8 71.6z"/><path class="st10" d="M604.2 502.6c-3.3 3.4-7.9 5.5-13.1 5.5-10.1 0-18.2-8.2-18.2-18.2 0-9.8 7.8-17.9 17.6-18.2l13.7 30.9z"/><path class="st1" d="m593.1 477.5 8 18c-2.1 3.3-5.8 5.4-9.9 5.4-6.5 0-11.8-5.3-11.8-11.8 0-6.5 5.3-11.8 11.8-11.8.6.1 1.2.1 1.9.2z"/><path class="st6" d="m582 452.5 31.8 71.6M658.3 710.5l-25-54.2M674.3 706.6l-28.9-53.9"/><path class="st13" d="M615.8 643.4c1.9 4.6 3.8 9.2 5.6 13.6 5.5-3.2 21.5-6.8 35.1-12.5-2.3-4.4-4.5-8.9-6.7-13.4l-34 12.3z"/><path class="st6" d="M615.8 643.4c1.9 4.6 3.8 9.2 5.6 13.6 5.5-3.2 21.5-6.8 35.1-12.5-2.3-4.4-4.5-8.9-6.7-13.4l-34 12.3z"/><path class="st6" d="M615.8 643.4c1.9 4.6 3.8 9.2 5.6 13.6 5.5-3.2 21.5-6.8 35.1-12.5-2.3-4.4-4.5-8.9-6.7-13.4l-34 12.3z"/><path class="st4" d="M619.7 652.8c1.1 2.6 2.2 5.2 3.2 7.8l35.7-12c-1.4-2.7-2.8-5.5-4.2-8.3l-34.7 12.5z"/><path class="st3" d="M500.1 542.5s-5.3 48.4 3.2 64.1c6.4 11.8 73.4 55.9 69.6 67.1-1.1 3.8-52.5 18.2-56.2 23S506 716 506 719.2s31.1 2.7 31.1 2.7v-6.4l59.4-3.8 24.1-40.7-47.1-58.4s-24.1-32.1-25.2-36.9c-1.1-4.8 7.5-38.6 7.5-38.6l-55.7 5.4z"/><path d="M514 714.4s3.9-12.1 8.6-15 50-19.3 50-19.3l10.7-12.1s-54.6-46.4-68.5-63.2c-13.9-16.8-8.9-58.2-8.9-58.2l39.6-3.2s-4.6 30-3.2 37.8c1.4 7.9 67.8 90 67.8 90l-28.6 38.6-39.3 2.5-5.2 3.2-4.8 2.9-18.2-4z"/><path class="st2" d="M516.2 713.4c-1.1.4-2.1 8-2.1 8 9.2.8 23 .6 23 .6v-6.4c-.1-.1-19.9-2.6-20.9-2.2zM580.8 708l.3-24.6 37.9 2.8-1.1 23.2z"/><circle class="st4" cx="575.4" cy="687.7" r="6.1"/><path class="st4" d="M606.1 690.9c0 3.3-2.7 6.1-6.1 6.1-3.3 0-6.1-2.7-6.1-6.1s2.7-6.1 6.1-6.1c3.4 0 6.1 2.7 6.1 6.1zM629.7 690.9c0 3.3-2.7 6.1-6.1 6.1s-6.1-2.7-6.1-6.1 2.7-6.1 6.1-6.1 6.1 2.7 6.1 6.1z"/><path class="st5" d="m522.9 663.4-4.6 21.4c14.3 3.6 53.2-3.6 54.6-11.1 1.4-7.5-50-10.3-50-10.3z"/><path class="st6" d="M520.4 674.1c6.4 2.5 50.3-1.4 50.3-1.4"/><path class="st5" d="M572.9 669.8c-2.1 2.5-1.4 11.4.4 12.8 1.8 1.4 45.7 6.1 48.9 4.6 3.2-1.4 3.2-15.4-1.6-16.2-4.8-.8-45.5-3.7-47.7-1.2z"/><path class="st2" d="M580.1 674.1c-1.1.4-1.1 3.6 1.1 4.6 2.1 1.1 33.6 3.6 35.3 2.5 1.8-1.1 2.5-3.9 0-5-2.5-1-35.4-2.5-36.4-2.1zM537.9 707.7c-1.8 1.8-1.8 5.7-.9 7.9.9 2.1 82.3 2.1 83.7 1.4 1.4-.7-.4-8.2-2.5-9.6-2.1-1.5-78.5-1.5-80.3.3z"/><path class="st5" d="M461.5 500.8c65.3-17.7 85.1-33.2 88.4-31.6 3.2 1.6 12.3 25.2 13.4 73.4-69.6 15.5-110.3 0-110.3 0s-56.8-24.2 8.5-41.8z"/><path class="st2" d="M459.9 512.5s24.1 16.1 100.8-5.3c.6 4.9 1.2 10.3 1.6 16.2-84.8 18-102.5 2.5-102.5 2.5v-13.4z"/><path class="st0" d="M471.7 497.9c57.3-16.5 75.2-30.3 78.2-28.8 2 1 6.4 10.8 9.6 30.1-29.4 8.5-89.4 18.7-87.8-1.3z"/><path class="st6" d="m551.8 525.4-1.1-14.7M536 528.1l-1.4-14.5M516.4 530.7l-.2-13.3M498.5 531.8l-.8-13.4M477.3 531.3v-13.7"/><circle class="st4" cx="522.9" cy="632.3" r="8.6"/><path class="st4" d="M557.9 619.5c0 4.7-3.8 8.6-8.6 8.6s-8.6-3.8-8.6-8.6c0-4.7 3.8-8.6 8.6-8.6s8.6 3.8 8.6 8.6zM582.9 608.8c0 4.7-3.8 8.6-8.6 8.6-4.7 0-8.6-3.8-8.6-8.6 0-4.7 3.8-8.6 8.6-8.6s8.6 3.8 8.6 8.6z"/><path class="st5" d="M499 598.4s-45.7 10-47.1 11.4c-1.4 1.4-1.1 7.9 1.4 7.5s48.2-12.5 48.2-12.5-45.7 18.9-45.7 20c0 1.1 1.1 6.8 2.5 6.4 1.4-.4 46.8-20.3 46.8-20.3s-41.4 25-42.1 26.8c-.7 1.8 2.1 9.3 3.6 8.6 1.4-.7 42.5-25.7 42.5-25.7s-40 27.5-41.4 28.9c-1.4 1.4 2.5 8.2 4.3 7.5 1.8-.7 39.6-28.9 39.6-28.9l-.4-21.8-12.2-7.9z"/><path class="st4" d="M463.9 606.4c-6.6 1.6-11.5 2.9-12 3.4-1.4 1.4-1.1 7.9 1.4 7.5.8-.1 6.6-1.6 13.9-3.5l-3.3-7.4zM477.7 642.2c-5.5 3.9-9.7 6.8-10.1 7.3-1.4 1.4 2.5 8.2 4.3 7.5.6-.2 5-3.4 10.7-7.5l-4.9-7.3zM473.6 630.3c-6 3.8-10.5 6.8-10.7 7.4-.7 1.8 2.1 9.3 3.6 8.6.5-.2 5.4-3.2 11.7-7l-4.6-9zM468.3 618.9c-7.1 3.1-12.4 5.5-12.4 5.9 0 1.1 1.1 6.8 2.5 6.4.5-.1 6.2-2.6 13.4-5.7l-3.5-6.6z"/><path class="st5" d="M561.5 573.4s15.7 25 14.3 26.8c-1.4 1.8-61 30-63.2 30-2.1 0-13.6-31.8-13.6-31.8l62.5-25z"/><path class="st2" d="m508.4 594.7 44.8-17.9s11.2 16.7 9.7 18.5c-1.4 1.8-43.2 22.1-45.3 22.1-2.2-.1-9.2-22.7-9.2-22.7z"/><path class="st10" d="M513.9 610.6c-2.6-6.7-5.5-15.9-5.5-15.9l44.8-17.9s4.6 6.9 7.5 12.2c0 0-46.7 20.5-46.8 21.6z"/><path class="st6" d="M523.7 598.8c0 2.2-1.8 3.9-3.9 3.9s-3.9-1.8-3.9-3.9 1.8-3.9 3.9-3.9c2.1-.1 3.9 1.7 3.9 3.9zM538.6 592.3c0 2.2-1.8 3.9-3.9 3.9s-3.9-1.8-3.9-3.9c0-2.2 1.8-3.9 3.9-3.9s3.9 1.8 3.9 3.9zM552.6 585.9c0 2.2-1.8 3.9-3.9 3.9s-3.9-1.8-3.9-3.9 1.8-3.9 3.9-3.9 3.9 1.7 3.9 3.9z"/><path class="st6" d="m508.4 594.7 44.8-17.9s11.2 16.7 9.7 18.5c-1.4 1.8-43.2 22.1-45.3 22.1-2.2-.1-9.2-22.7-9.2-22.7z"/><path class="st2" d="M464.4 508.1c0 33.9-27.5 61.4-61.4 61.4s-61.4-27.5-61.4-61.4 27.5-61.4 61.4-61.4 61.4 27.5 61.4 61.4z"/><path class="st5" d="M456.6 478.1c-1.5.4-58.2 32.9-58.2 32.9l-44-40.4c11.2-14.5 28.8-23.9 48.6-23.9 23 0 43.1 12.6 53.6 31.4z"/><path class="st4" d="M443.7 510.2c0 21.3-17.3 38.6-38.6 38.6s-38.6-17.3-38.6-38.6 17.3-38.6 38.6-38.6c21.3.1 38.6 17.3 38.6 38.6z"/><path class="st0" d="M433.7 510.2c0 16-12.9 28.9-28.9 28.9-16 0-28.9-12.9-28.9-28.9 0-16 12.9-28.9 28.9-28.9 15.9 0 28.9 12.9 28.9 28.9z"/><path class="st2" d="M470.1 458.1s3.9 19.3 7.5 34.3c8.6-7.5 2.5-27.5 2.5-27.5s17.1 19.3 25.7 18.2c-12.1-15-22.5-31.8-22.5-31.8l-13.2 6.8zM495.1 444.9c4.3 5.7 6.4 19.6 11.8 37.1 5.3-9.6.7-37.1.7-37.1s19.6 24.3 26.8 25.3c-9.6-14.3-21.8-36.4-21.8-36.4l-10.4-2.1s-11.4 7.5-7.1 13.2zM520.4 428.8c3.9 2.9 10 22.1 17.5 38.2 2.5-14.3-5-34.6-5-34.6s12.1 21.1 24.6 20.3c-14.3-18.6-22.9-35.4-22.9-35.4s-18.1 8.6-14.2 11.5z"/><path class="st5" d="M464.4 444.5s1.1 17.8 3.2 17.1c2.1-.7 18.2-8.9 18.9-10.7.7-1.8-12.5-13.6-12.5-13.6l-9.6 7.2zM489.4 428.8s2.1 18.2 3.9 17.8c1.8-.4 20-12.1 20.3-13.9.4-1.8-15.7-11.8-15.7-11.8l-8.5 7.9zM511.2 411.7s6.8 18.9 8.6 18.6c1.8-.4 17.5-11.8 17.1-13.2-.4-1.4-17.1-15-17.1-15l-8.6 9.6z"/><circle class="st2" cx="465.8" cy="434.5" r="11.8"/><circle class="st2" cx="488.3" cy="417.4" r="11.8"/><circle class="st2" cx="509.7" cy="400.3" r="11.8"/><path class="st3" d="m263.9 207.3-51.4 9.1-2.1-52 57.3 19.8z"/><path class="st5" d="m244.2 176.1 23.5 8.1-3.8 23.1-19.8 3.5z"/><path class="st6" d="m210.9 175 27.8 6.8M212.7 198.9l26.8-2.5M212.3 186.4l26.8 2.1M212.3 208.9l29.7-5.7"/><path class="st4" d="M238 172.5c1.1-1.4 10.4 1.8 10.7 4.3.4 2.5.4 31.8-.4 34.3-.7 2.5-10.7 3.9-10.4 2.1.5-1.8-1-39.3.1-40.7z"/><circle class="st2" cx="278" cy="195.3" r="20.7"/><path class="st6" d="M242.3 274.2s-8.9-22.5-6.4-28.2c2.5-5.7 37.8-20.7 43.6-18.6 5.7 2.1 14.6 27.9 14.6 27.9"/><path class="st6" d="M249.8 272.4s-7.1-17.5-5.3-23.6c1.8-6.1 27.5-15.7 31.8-14.6 4.3 1.1 11.4 24.6 11.4 24.6"/><path class="st6" d="M256.2 269.2s-6.8-17.5-3.6-21.1c3.2-3.6 16.4-7.9 20-7.5 3.6.4 6.4 20 6.4 20"/><path class="st6" d="M262.3 266.4s-6.1-11.1-3.9-14.3c2.1-3.2 9.3-4.6 11.4-3.6 2.1 1.1 3.9 13.6 3.9 13.6M301.6 249.9s-11.4-21.1-6.4-28.2c5-7.1 31.1-11.4 31.1-11.4"/><path class="st6" d="M308.7 248.2s-10-15.4-7.1-21.8 26.8-9.6 26.8-9.6"/><path class="st6" d="M314.4 244.6s-6.1-9.6-3.6-14.6c2.5-5 19.6-8.6 19.6-8.6"/><path class="st6" d="M319.8 243.5c-6.4-15 15-16.1 15-16.1M376.6 229.6c32.5 33.9 49.6 67.7 49.6 67.7M369.4 232.4c12.8 11.4 26.8 33.9 26.8 33.9M361.6 236c10.4 8.2 21.1 27.5 21.1 27.5M359.1 244.9c7.1 6.4 20 21.8 20 21.8M358.7 253.5l16.1 15.7"/><path class="st2" d="M324.4 213.9c0 6.1-5 11.1-11.1 11.1s-11.1-5-11.1-11.1 5-11.1 11.1-11.1c6.2 0 11.1 5 11.1 11.1zM263.7 235.3c0 6.7-5.4 12.1-12.1 12.1-6.7 0-12.1-5.4-12.1-12.1s5.4-12.1 12.1-12.1c6.7 0 12.1 5.4 12.1 12.1zM415.1 334.9s0 26.8 2.9 25.7c2.9-1.1 52.1-35.7 52.5-38.6.4-2.9-16.1-16.8-16.1-16.8l-39.3 29.7z"/><path class="st6" d="M421.2 328.1s-.4 19.3 1.4 19.3c1.8 0 35.3-23.6 35-26.4-.4-2.9-11.8-11.1-11.8-11.1l-24.6 18.2z"/><path class="st5" d="M401.2 334.2c.8 0 6.4-5.9 14.6-11.1 7-4.4 16.5-7.4 18.9-16.1 5.3-18.9-12.5-20-20.3-24.3-7.9-4.3-18.6-20.7-24.3-24.3-5.7-3.6-22.5 2.1-21.8 13.6.7 11.4 12.5 22.1 17.5 21.4-1.8 1.1-1.8 10.4-.7 14.3 1.1 4 14.7 26.5 16.1 26.5z"/><path class="st6" d="M385.1 281.4c-.4-3.2 5.7-9.6 10-2.5s-5.2 14.8-9.3 14.6"/><path class="st2" d="M424.4 306c.7 9.6-10 16.1-8.6 17.1-8.2 5.2-13.9 11.1-14.6 11.1-1.4 0-15-22.5-16.1-26.4 0 0 22.9-15.4 28.2-13.9 5.4 1.4 10.4 2.5 11.1 12.1z"/><path class="st2" d="M401.9 331.7c-.7 2.5-1.4 16.1.7 15.4 2.1-.7 53.2-38.6 54.3-41.4 1.1-2.9-2.9-8.6-7.1-8.9-4.3-.4-47.2 32.4-47.9 34.9z"/><path class="st0" d="M402.3 335.3c-2.9.4-16.1-23.6-17.1-27.5 0 0 3.7-2.5 8.4-5.3 0 0 15.9 23.2 15.9 25.7s-4.4 6.7-7.2 7.1z"/><path class="st4" d="m681.8 546.6-5.7 83.6 20.4.3 1.4-82.4h5.7l-1.1 81 20.4-.7-4.7-80.7h3.3l7.8 78.9 22.9-3.6-16.5-74.9 5.4-1.8 16.4 75.3 17.9-5.3-20.7-73.2 4.6-1.5 21.4 72.9 18.9-8.6-25-62.8-24.9-17.9-61.8 10.7z"/><path class="st5" d="m677.8 605.1-1.7 25.1 20.4.3.4-25zM774 591.7l6.7 22.8 18.9-8.6-8.2-20.8zM752.6 599.1l4.9 22.5 17.9-5.3-6.6-23.3zM727 603.8l2.3 22.8 22.9-3.6-5-22.5zM702.8 605.9l-.3 23.2 20.4-.7-1.4-23.9z"/><path class="st2" d="M675.4 504.9s-3.6 46.8-3.2 50.3 1.8 10 8.9 10c7.1 0 8.2-12.4 8.2-12.4s2.1 13.4 11.1 13.1c8.9-.4 8.5-15.8 8.5-15.8s2.2 15.1 12.2 14c10-1.1 6.7-16.6 6.7-16.6s1.2 15.9 10.8 14.5c9.6-1.4 7.1-16.9 7.1-16.9s2.2 16.9 12.2 14.4c10-2.5 5.3-16.8 5.3-16.8s2.2 14 11.8 12.2c9.6-1.8 6.1-12.1 5.7-14.6-.4-2.5-13.9-43.6-13.9-43.6l-91.4 8.2z"/><path class="st6" d="m752.5 501.6 10.7 41M736.1 504.9l9.6 40.1M722.2 507l5.6 40.5M704.3 507.7l4.6 42.4M687.5 507l1.8 45.8"/><path class="st16" d="M674.3 521.3c65.3 3.2 97.1-11.1 97.1-11.1M673.6 536.6c51.8 6.1 101.7-10.7 101.7-10.7"/><path class="st6" d="M684 553.8c0 2.4-1.9 4.3-4.3 4.3s-4.3-1.9-4.3-4.3 1.9-4.3 4.3-4.3c2.3 0 4.3 1.9 4.3 4.3zM704.3 553.8c0 2.4-1.9 4.3-4.3 4.3s-4.3-1.9-4.3-4.3 1.9-4.3 4.3-4.3 4.3 1.9 4.3 4.3zM723.6 552.7c0 2.4-1.9 4.3-4.3 4.3s-4.3-1.9-4.3-4.3 1.9-4.3 4.3-4.3 4.3 1.9 4.3 4.3zM741.8 551.6c0 2.4-1.9 4.3-4.3 4.3s-4.3-1.9-4.3-4.3 1.9-4.3 4.3-4.3c2.4.1 4.3 2 4.3 4.3zM760 548.4c0 2.4-1.9 4.3-4.3 4.3s-4.3-1.9-4.3-4.3 1.9-4.3 4.3-4.3 4.3 2 4.3 4.3zM777.2 545.2c0 2.4-1.9 4.3-4.3 4.3s-4.3-1.9-4.3-4.3 1.9-4.3 4.3-4.3c2.3 0 4.3 1.9 4.3 4.3z"/><path class="st2" d="m670.4 445.2-1.1 63.2s56.8 6.4 100.7-11.1l-15.4-58.9-45.3-11.8-38.9 18.6z"/><path d="M669.3 508.4s56.8 6.4 100.7-11.1" style="fill:#fff;stroke:#000;stroke-width:4.3402;stroke-linecap:round;stroke-linejoin:round"/><path class="st4" d="m670.4 445.2-.8 47.1c60.8 4.6 96.7-9.2 96.7-9.2l-11.6-44.7-45.3-11.8-39 18.6z"/><path class="st5" d="m670.4 445.2-.6 33.9c46.3 4.6 93.1-8.9 93.1-8.9l-8.3-31.8-45.3-11.8-38.9 18.6z"/><path class="st0" d="m670.4 445.2-.4 23.2c41.5 3.2 90.2-8.5 90.2-8.5l-5.6-21.5-45.3-11.8-38.9 18.6z"/><path class="st4" d="M745.9 299.4s18.5-81.4 18.5-96.1c.3-20.6-5.9-53.3-7-55.4 16.1 1.9 11.3 49.3 11.3 49.3s1.3-17.4 3.2-51.2c8.8 15.3 2.1 53 2.1 53s4.5-25.2 13.9-49.8c3.2 13.4-7.2 50.1-7.2 50.1s7.2-26.2 18.2-43.4c.5 14.2-12.3 43.9-12.3 43.9s16.9-38 29.7-39.9c-5.6 10.2-24.6 39.4-28.1 49.3-3.5 9.9-23 111.9-23 111.9l-19.3-21.7z"/><path class="st2" d="M764.4 203.3c.3-20.6-5.9-53.3-7-55.4 16.1 1.9 11.3 49.3 11.3 49.3s1.3-17.4 3.2-51.2c8.8 15.3 2.1 53 2.1 53s4.5-25.2 13.9-49.8c3.2 13.4-7.2 50.1-7.2 50.1S788 173 799 155.8c.5 14.2-12.3 43.9-12.3 43.9s16.9-38 29.7-39.9c-5.6 10.2-24.6 39.4-28.1 49.3-4.1-1-14.3-5.8-23.9-5.8z"/><path class="st4" d="M762.2 209.4c-1.6-.8-3.2-12.9-.3-13.1 3-.3 30.3 5.6 31.3 7.8 1.1 2.1-2.4 12.1-4.5 12.3-2.1.2-24.9-6.2-26.5-7z"/><path class="st2" d="M757.2 306.4s18.6-92.5 20.7-93.2c2.1-.7 47.8 8.6 47.1 11.8-.4 1.7-8.3 36.2-14.6 69.6-5.9 30.6-10.2 60.3-11.4 60.3-2.5 0-44.6-8.9-44.6-8.9l2.8-39.6z"/><path d="M772.1 235.2c.7-3.2 1.4-6.2 2-8.9 0 0 42.3 9 48.2 10.8-.6 2.5-1.2 5.4-1.9 8.5l-48.3-10.4zM760.3 290.6c2.6-12.6 6.3-30.8 9.7-46.3l48.2 11.3c-2.5 11.6-5.3 25.4-7.9 38.9-.4 2.3-.9 4.5-1.3 6.8l-48.7-10.7zM807.7 309.2c-.7 3.8-1.3 7.5-2 11.1-16.8-6.1-48.5-13.9-48.5-13.9s.7-3.2 1.7-8.5l48.8 11.3z"/><circle class="st7" cx="773.2" cy="263.8" r="4.8"/><path class="st7" d="M777 284.1c0 2.7-2.2 4.8-4.8 4.8-2.7 0-4.8-2.2-4.8-4.8s2.2-4.8 4.8-4.8c2.6 0 4.8 2.2 4.8 4.8z"/><circle class="st7" cx="801.1" cy="287.3" r="4.8"/><path class="st7" d="M811.2 272.3c0 2.7-2.2 4.8-4.8 4.8-2.7 0-4.8-2.2-4.8-4.8s2.2-4.8 4.8-4.8c2.7 0 4.8 2.2 4.8 4.8z"/><path class="st5" d="M803.6 274c0 8.2-6.6 14.8-14.8 14.8S774 282.2 774 274s6.6-14.8 14.8-14.8 14.8 6.7 14.8 14.8z"/><path class="st5" d="M784.5 269.7s1.2-6.6-.5-8.8c-.9-1.2-5.3 1.3-7.5-3-.9-1.7.5-9.4 2.9-8.8 2.7.6 1.1 4.5 1.6 6.7.3 1.2 5.8-1.2 7.5 1.3 1.4 2 1.1 12.6 1.1 12.6h-5.1 0z"/><path class="st5" d="M788.5 267.5s4.8-12.8 12.3-9.9c6.2 2.4 5.6 12.3 1.3 13.6-4.3 1.3-1.3-7.8-5.1-8-1.1.1-5.3 8.3-5.3 8.3l-3.2-4z"/><path class="st0" d="M795.7 273.9c0 3.9-3.2 7.1-7.1 7.1-3.9 0-7.1-3.2-7.1-7.1 0-3.9 3.2-7.1 7.1-7.1 3.9-.1 7.1 3.1 7.1 7.1z"/><path class="st2" d="m633.6 254.6 22.4-1.5s-5-103.1-13.2-103.5c-8.1-.3-9.2 105-9.2 105zM656.1 253.1l20.8-1.4s-8.2-102.4-15.3-102.4c-7.3 0-5.5 103.8-5.5 103.8z"/><path class="st2" d="M675.8 215c.3 19.9 1 36.6 1 36.6l22.5-1.5s-2.3-16.9-5.4-37c-4.5-28.8-10.8-64-14.6-64.3-3.8-.1-4 36.6-3.5 66.2z"/><path class="st2" d="M698.6 148.5c5.3.4 18.2 91.8 18.2 91.8l-23.9 3.6s.3-95.7 5.7-95.4z"/><path class="st2" d="M720 147.1c-6.4-.7-9.6 102.1-9.6 102.1l28.9-1.8s-12.9-99.6-19.3-100.3z"/><path class="st5" d="M653.8 216.4c-2.2-29.7-6-66.6-10.9-66.8-4.9-.2-7.2 36.7-8.3 66.7M673.3 215.3c-3.1-29.1-7.7-66-11.9-66s-5.3 36.7-5.5 66.4M693.9 213.2c-4.5-28.8-10.8-64-14.6-64.3-3.8-.2-4 36.5-3.5 66.1"/><path class="st5" d="M693.3 212.9c.6-27.9 2-64.6 5.3-64.4 3.3.2 9.6 35.7 13.8 62.5"/><path class="st5" d="M733.9 209.3c-4.3-28.2-10.2-61.8-13.9-62.2-3.8-.4-6.4 34.7-8 63.9"/><path class="st18" d="M640.7 224v-10.2M647.2 223.6v-9.5M662.2 223.5l-.8-9.3M668.5 222.8l-.8-8.7M681.5 222.4l-.5-9.4M689.3 221.5l-1.2-9M699.6 219.7l-.4-8.7M707.2 219.2l-1.1-8.6M719.3 218.6l.1-9.3M728.8 218.6l-1.8-9.9"/><path class="st4" d="m646.5 243.2 7.8 77.1 70.7-10-1.4-73.6z"/><path class="st6" d="m665.8 241.7 4.2 67.9M687.9 240.3l.7 66.4M704.3 238.9l2.9 67.1"/><path class="st0" d="M651 319.3c4.5 4.5 4.5 11.7 0 16.2s-11.7 4.5-16.2 0-4.5-11.7 0-16.2 11.7-4.5 16.2 0zM776.7 408.7c4.5 4.5 4.5 11.7 0 16.2s-11.7 4.5-16.2 0-4.5-11.7 0-16.2 11.7-4.5 16.2 0z"/><path class="st0" d="M639.2 335.3c5.5 3.1 7.3 10.1 4.2 15.6-3.1 5.5-10.1 7.3-15.6 4.2s-7.3-10.1-4.2-15.6c3.1-5.5 10.1-7.4 15.6-4.2zM653 426.8c4.5-4.5 11.7-4.5 16.2 0s4.5 11.7 0 16.2-11.7 4.5-16.2 0-4.5-11.7 0-16.2zM742.3 301.1c4.5-4.5 11.7-4.5 16.2 0s4.5 11.7 0 16.2-11.7 4.5-16.2 0c-4.4-4.5-4.4-11.7 0-16.2zM666.5 306.9c3.1 5.5 1.3 12.5-4.2 15.6-5.5 3.1-12.5 1.3-15.6-4.2-3.1-5.5-1.3-12.5 4.2-15.6 5.4-3.1 12.4-1.3 15.6 4.2zM764.8 425.8c3.1 5.5 1.3 12.5-4.2 15.6-5.5 3.1-12.5 1.3-15.6-4.2-3.1-5.5-1.3-12.5 4.2-15.6 5.4-3.2 12.4-1.3 15.6 4.2zM783.7 389c5.5 3.1 7.3 10.1 4.2 15.6s-10.1 7.3-15.6 4.2c-5.5-3.1-7.3-10.1-4.2-15.6 3.2-5.4 10.2-7.3 15.6-4.2z"/><path class="st0" d="M640.6 411.3c5.5-3.1 12.5-1.3 15.6 4.2 3.1 5.5 1.3 12.5-4.2 15.6-5.5 3.1-12.5 1.3-15.6-4.2-3.1-5.4-1.3-12.4 4.2-15.6zM759.5 313c5.5-3.1 12.5-1.3 15.6 4.2 3.1 5.5 1.3 12.5-4.2 15.6-5.5 3.1-12.5 1.3-15.6-4.2-3.2-5.5-1.3-12.5 4.2-15.6zM669 438.6c3.1-5.5 10.1-7.3 15.6-4.2 5.5 3.1 7.3 10.1 4.2 15.6-3.1 5.5-10.1 7.3-15.6 4.2-5.5-3.1-7.4-10.1-4.2-15.6zM722.7 294c3.1-5.5 10.1-7.3 15.6-4.2 5.5 3.1 7.3 10.1 4.2 15.6-3.1 5.5-10.1 7.3-15.6 4.2s-7.3-10.1-4.2-15.6zM684.7 299c1.6 6.1-2 12.4-8.1 14-6.1 1.6-12.4-2-14-8.1-1.6-6.1 2-12.4 8.1-14 6.1-1.7 12.4 2 14 8.1zM748.9 439.2c1.6 6.1-2 12.4-8.1 14-6.1 1.6-12.4-2-14-8.1-1.6-6.1 2-12.4 8.1-14 6.1-1.6 12.3 2 14 8.1zM631.9 353.7c6.1 1.6 9.7 7.9 8.1 14-1.6 6.1-7.9 9.7-14 8.1-6.1-1.6-9.7-7.9-8.1-14 1.7-6.1 7.9-9.7 14-8.1zM785.5 368.3c6.1 1.6 9.7 7.9 8.1 14-1.6 6.1-7.9 9.7-14 8.1-6.1-1.6-9.7-7.9-8.1-14 1.6-6.1 7.9-9.8 14-8.1z"/><path class="st0" d="M632.7 393.1c6.1-1.6 12.4 2 14 8.1 1.6 6.1-2 12.4-8.1 14-6.1 1.6-12.4-2-14-8.1-1.7-6.1 2-12.4 8.1-14zM772.9 328.9c6.1-1.6 12.4 2 14 8.1 1.6 6.1-2 12.4-8.1 14-6.1 1.6-12.4-2-14-8.1-1.6-6.1 2-12.3 8.1-14zM687.4 445.9c1.6-6.1 7.9-9.7 14-8.1 6.1 1.6 9.7 7.9 8.1 14-1.6 6.1-7.9 9.7-14 8.1-6.1-1.7-9.7-7.9-8.1-14zM702 292.3c1.6-6.1 7.9-9.7 14-8.1 6.1 1.6 9.7 7.9 8.1 14-1.6 6.1-7.9 9.7-14 8.1-6.1-1.6-9.8-7.9-8.1-14z"/><path class="st0" d="M704.3 296c0 6.3-5.1 11.4-11.4 11.4-6.3 0-11.4-5.1-11.4-11.4 0-6.3 5.1-11.4 11.4-11.4 6.3 0 11.4 5.1 11.4 11.4zM730 448.1c0 6.3-5.1 11.4-11.4 11.4-6.3 0-11.4-5.1-11.4-11.4 0-6.3 5.1-11.4 11.4-11.4 6.3 0 11.4 5.1 11.4 11.4zM629.7 373.5c6.3 0 11.4 5.1 11.4 11.4 0 6.3-5.1 11.4-11.4 11.4-6.3 0-11.4-5.1-11.4-11.4 0-6.3 5.1-11.4 11.4-11.4zM781.8 347.8c6.3 0 11.4 5.1 11.4 11.4 0 6.3-5.1 11.4-11.4 11.4-6.3 0-11.4-5.1-11.4-11.4s5.1-11.4 11.4-11.4z"/><path class="st0" d="M778.9 373.1c0 40-33.2 72.5-74.1 72.5s-74.1-32.5-74.1-72.5 33.2-72.5 74.1-72.5 74.1 32.5 74.1 72.5z"/><path class="st4" d="M771.4 372.2c0 35.6-29.9 64.4-66.8 64.4s-66.8-28.9-66.8-64.4c0-35.6 29.9-64.4 66.8-64.4s66.8 28.8 66.8 64.4z"/><path class="st6" d="m657 417.2.3-90.5M663.2 322.8l-1.1 98.7M678.6 314.6l1.7 117.1M686.2 434.3l-1.6-123.7M703.3 308l1.6 127.7M710.7 308.5l.7 126.6M730.9 313.6l-.3 117.5M736.5 316.8v110.9M757.7 332.6l-.5 79.5M762.5 339.3l.5 63.7"/><circle class="st2" cx="708.6" cy="323.8" r="11.1"/><path class="st2" d="M721.8 422.4c0 6.1-5 11.1-11.1 11.1s-11.1-5-11.1-11.1 5-11.1 11.1-11.1 11.1 5 11.1 11.1zM641.7 350.8c1.9-5.1 4.3-9.8 7.3-14.2l111-.4c3.3 4.7 5.9 9.7 7.8 15.1l-126.1-.5zM767.2 394.8c-1.9 4.9-4.4 9.5-7.4 13.8 0 0-111.1-1.8-111.8-2.3-2.8-4.3-5.1-9.1-6.8-14l126 2.5z"/><path class="st6" d="m645.8 400.3 116.7 1.6M645.8 343.8l118.6.6"/><path class="st0" d="M413.5 569.9c-6.5 25.1-11.2 42.8-11.3 43.1 12.1-.7 16.1-9.6 16.1-9.6s6.1 16.1 16.4 19.3c.3-10.3 2-27.3 4.6-47.5l-25.8-5.3z"/><path class="st5" d="M390.5 202.5c0 19.1-15.5 34.6-34.6 34.6s-34.6-15.5-34.6-34.6 15.5-34.6 34.6-34.6c19.1-.1 34.6 15.4 34.6 34.6z"/><path class="st4" d="M372.6 193.2s-.7-13.9 8.2-17.1c8.9-3.2 25.3 2.5 31.8-1.4 12.5-7.9 3.9-26.1-7.9-25.7-11.8.4-15 13.2-8.2 16.8-5.7-1.1-17.1-2.5-24.3 2.1-7.1 4.6-9.3 17.5-9.3 17.5l9.7 7.8z"/><path class="st6" d="M405.8 160.7s-3.2 9.3-9.3 5"/><path class="st4" d="M353 184.6s.8-30.5.4-29.3c-1.4 3.6-6.4 10-11.8 3.9-5.7-6.8.4-19.6 15-15.4 14.6 4.3 8.6 43.2 8.6 43.2l-12.2-2.4z"/><path class="st0" d="M375.8 200.7c0 10.3-8.3 18.6-18.6 18.6s-18.6-8.3-18.6-18.6 8.3-18.6 18.6-18.6 18.6 8.3 18.6 18.6z"/><path class="st6" d="m344.4 213.2 6.5-29.3M354.8 218.5l10-34.6M365.5 217.1l7.1-25.7"/><path class="st5" d="M250.2 294.6c-1.8 1.1-7.9 2.1-10 2.1-2.1 0-6.1-15.7-4.6-18.9 1.4-3.2 112.8-46.8 115.7-45.7 2.9 1.1 14.6 18.9 14.3 20.7-.4 1.8-9.3 7.5-10.7 6.4-1.4-1.1-7.9-16.8-10.4-17.5S248 280 247.3 282.1c-.7 2.1 4.6 11.4 2.9 12.5z"/><path d="M259.1 294.2c-2.1-.7-4.3-6.8-4.3-8.9s83.6-35.7 86.4-34.3c2.9 1.4 4.6 3.9 3.6 4.6-1.1.8-83.6 39.3-85.7 38.6z"/></svg>