<svg version="1.1" id="Calque_1" xmlns="http://www.w3.org/2000/svg" x="0" y="0" viewBox="0 0 900 900" style="enable-background:new 0 0 900 900" xml:space="preserve"><style>.st0,.st1,.st2,.st3{fill:red;stroke:#000;stroke-width:3.0869;stroke-linecap:round;stroke-linejoin:round;stroke-miterlimit:10}.st1,.st2,.st3{fill:none}.st2,.st3{fill:#808181}.st3{fill:#fff}.st4{fill:red}.st5{fill:#ffce06;stroke-width:3.0869;stroke-linecap:round;stroke-linejoin:round}.st5,.st6,.st7{stroke:#000;stroke-miterlimit:10}.st6{stroke-width:2.0579;stroke-linecap:round;stroke-linejoin:round}.st7{stroke-width:1.029}.st8{fill:#fff}.st9{fill:#3e8400;stroke-width:3.0869;stroke-linecap:round;stroke-linejoin:round}.st10,.st13,.st9{stroke:#000;stroke-miterlimit:10}.st10{fill:#008cff;stroke-width:3.0869;stroke-linecap:round;stroke-linejoin:round}.st13{fill:none;stroke-width:2.0579}.st13,.st14,.st15{stroke-linecap:round;stroke-linejoin:round}.st14{fill:#ffce0f;stroke:#000;stroke-width:3.0869;stroke-miterlimit:10}.st15{fill:#ff7300}.st15,.st16,.st17{stroke:#000;stroke-width:3.0869;stroke-miterlimit:10}.st16{fill:#ffce00;stroke-linecap:round;stroke-linejoin:round}.st17{fill:none}</style><path class="st0" d="M407.4 782s12.7-16.7 16.5-16.7 9 5.2 7.2 11c-1.7 5.8-10 13.2-10.6 16.2-.7 3.1 24.1 19.9 27.8 22.9s-12.8 13.7-12.8 13.7l-33.4-29.8 5.3-17.3z"/><path class="st1" d="M422.1 773.6c-1.3 1.7-9.7 14.1-7.3 20.3 2.4 6.2 23.6 23.7 23.6 23.7"/><path class="st0" d="M501.1 782s5.7-11.8 13.7-10.5c8 1.3 3.2 21.3 16.6 28.9 13.4 7.5 21.6 7.1 24 9.4 2.4 2.3-2.1 12.1-2.1 12.1l-51.1-7.2-1.1-32.7z"/><path class="st1" d="M510.5 779.2s4.3 16.1 15.2 24.2c10.9 8.1 23.7 8.6 23.7 8.6"/><path class="st2" d="M403.3 667.2c-.3 15.7-12.6 19.8-14.1 36-1.5 16.3-9.3 76.5-9.3 76.5l-7.5 62.8s45.6.7 47 4.8c1.3 4.1 7.9 3.5 9.6-1 .7 3.8 6.2 4.6 9-1 3.1 4.8 10.6 3.1 10.3-2.1 3.1 4.8 12.7-2.1 9-7.5-3.8-5.5-13.6-4.2-26.8-16.2-13.2-11.9-20.9-18.8-20.9-18.8s4.9-39.7 10-54.5c5-14.8 24.7-66.3 24.4-75.1-.3-8.8-1-59-1-59s20.2 41.2 26 55.3c5.9 14.1 4.5 25.4 3.8 34.7-.7 9.3-1.7 84.7-1.7 84.7s32.9 44.6 41.6 47.6c8.5 3.1 60 1.7 63.8-.7 3.8-2.4 3.8-11-2.1-11.3-5.9-.3-20.6 0-39.8-5.5-19.2-5.5-28.5-24.7-28.5-24.7l1.7-110.8-.3-75.1-21.6-11.6-103.6 14.4.7 1.9c-.3-.2 20.6 40.4 20.3 56.2z"/><path class="st0" d="M407.4 790.3s12.7-4.6 15.7-2.3c3.1 2.3 3.1 7.3.3 10.2-2.8 2.9-16.2 2.9-16.2 2.9v-10.8h.2zM503.6 793.8s16.3-10.8 19-9.7c2.8 1.1 3.8 6.3 2.8 9.7-1 3.4-17.9 9.6-17.9 9.6l-3.9-9.6z"/><path class="st3" d="M364.9 607.5 343.6 687s35.3 7.9 46.6 4.8c-.3-19.2 1.7-88.4 1.7-88.4l-27 4.1zM467.8 609.6l-2.4 78.2s41.9 1.3 53.5-8.5c-13.7-33.5-22.3-75.7-22.3-75.7l-28.8 6z"/><path d="M374 644.9h-.3c-1.4-.2-2.4-1.4-2.3-2.9l3.9-31.1c.2-1.4 1.4-2.5 2.9-2.3 1.4.2 2.4 1.4 2.3 2.9l-3.9 31.1c-.2 1.4-1.4 2.3-2.6 2.3zM361.6 684h-.4c-1.4-.2-2.4-1.5-2.2-3l4.8-30.4c.2-1.4 1.5-2.4 3-2.2s2.4 1.5 2.2 3l-4.8 30.4c-.2 1.3-1.3 2.2-2.6 2.2zM381.6 687.7c-.1 0-.1 0 0 0-1.5 0-2.6-1.2-2.6-2.7l1-30.8c0-1.4 1.2-2.6 2.7-2.5 1.4 0 2.6 1.2 2.5 2.7l-1 30.8c-.1 1.4-1.3 2.5-2.6 2.5zM481 642.9c-1.3 0-2.5-1-2.6-2.5l-1.5-30.9c-.1-1.4 1-2.7 2.5-2.7 1.4-.1 2.7 1 2.7 2.5l1.5 30.9c.1 1.4-1 2.7-2.5 2.7h-.1zM499 642.9c-1.2 0-2.3-.9-2.6-2.2l-5.7-32.2c-.2-1.4.7-2.8 2.1-3 1.4-.2 2.8.7 3 2.1l5.7 32.2c.2 1.4-.7 2.8-2.1 3-.1.1-.3.1-.4.1zM481 682.8c-1.4 0-2.6-1.1-2.6-2.5l-.8-29c0-1.4 1.1-2.6 2.5-2.7 1.4-.1 2.6 1.1 2.7 2.5l.8 29c0 1.5-1.2 2.6-2.6 2.7zM500 679.9c-1.2 0-2.3-.9-2.6-2.2l-4.6-26.1c-.2-1.4.7-2.8 2.1-3 1.4-.2 2.8.7 3 2.1l4.6 26.1c.2 1.4-.7 2.8-2.1 3-.1 0-.3.1-.4.1z"/><path class="st4" d="M364.4 642.9h-.4c-1.4-.2-2.4-1.5-2.1-3l4.9-29c.2-1.4 1.5-2.4 3-2.1 1.4.2 2.4 1.5 2.1 3l-4.9 29c-.3 1.3-1.4 2.1-2.6 2.1zM382.9 649.1h-.2c-1.4-.1-2.5-1.3-2.4-2.8l2.6-33.8c.1-1.4 1.3-2.5 2.8-2.4s2.5 1.3 2.4 2.8l-2.6 33.8c-.1 1.3-1.2 2.4-2.6 2.4zM352.5 682.3c-.2 0-.4 0-.6-.1-1.3-.3-2.3-1.7-2-3.1l7.1-29.5c.3-1.3 1.7-2.3 3.1-2 1.3.3 2.3 1.7 2 3.1l-7.1 29.5c-.3 1.3-1.3 2.1-2.5 2.1zM370.9 684.9h-.2c-1.4-.1-2.5-1.4-2.4-2.8l2.9-30.1c.1-1.4 1.3-2.5 2.8-2.4s2.5 1.4 2.4 2.8l-2.9 30.1c-.1 1.3-1.3 2.4-2.6 2.4zM473 644.9c-1.3 0-2.6-1.1-2.6-2.5l-1-31.1c0-1.4 1-2.6 2.5-2.7 1.4 0 2.6 1 2.7 2.5l1 31.1c.1 1.5-1.1 2.7-2.6 2.7.1 0 .1 0 0 0zM490.7 643.9c-1.2 0-2.4-.9-2.6-2.3l-4-33.2c-.2-1.4.8-2.7 2.3-2.9 1.4-.2 2.7.8 2.9 2.3l4 33.2c.2 1.4-.8 2.7-2.3 2.9h-.3zM472.5 682.8c-1.4 0-2.6-1.1-2.6-2.6v-26.9c0-1.4 1.1-2.6 2.6-2.6 1.4 0 2.6 1.1 2.6 2.6v26.9c-.1 1.4-1.2 2.6-2.6 2.6zM490.7 683c-1.3 0-2.5-1-2.6-2.3l-3-29.3c-.1-1.4.9-2.7 2.3-2.8 1.4-.1 2.7.9 2.8 2.3l3 29.3c.1 1.4-.9 2.7-2.3 2.8h-.2zM509.6 677.4c-1.1 0-2.2-.7-2.5-2l-6.8-25.7c-.4-1.3.4-2.8 1.9-3.2 1.3-.4 2.8.4 3.2 1.9l6.8 25.7c.4 1.3-.4 2.8-1.9 3.2-.3.1-.5.1-.7.1z"/><path class="st5" d="m533.3 406.5-12.6 2.4-8.6 38.8s3.3 2.4 8.4 6.4l29.6-29-16.8-18.6z"/><path class="st2" d="M591.9 470.6 550.1 425l-29.6 29c14.8 11.5 45.4 36.4 58.3 56.3 17.7 26.6 13.1-39.7 13.1-39.7z"/><path class="st3" d="M272.3 456.3c-3 65.5 68.3 87.5 86 91.9.3-4.9.6-10 .8-15.3-17-3.4-77.7-20.5-72.1-88.8 5.5-67.1 46.4-92.6 59.1-98.9l-6.3-10.2c-24.1 10.7-64.3 50.5-67.5 121.3z"/><path class="st0" d="M287 444.2c-5.7 68.4 55.2 85.4 72.1 88.8.6-13.8 1-28.8 1-44.6 0-67.6-16.4-74.4-28.9-85.1 8.2-19.6 19.7-21.6 19.7-21.6l6.5-7.4-4.9-18.5-6.5-10.6c-12.6 6.4-53.5 31.9-59 99z"/><path class="st3" d="M272.3 456.3c3.3-70.9 43.5-110.6 67.6-121.3l-18.6-30.4s-78.8 23.6-80.4 148c-1.4 113.6 97.4 129 114.6 130.9.9-9.9 2-21.7 2.8-35.2-17.7-4.4-89.1-26.4-86-92z"/><path class="st6" d="m321.7 305.4-.4-.7s-5.1 1.5-13 6l13.4 4.8v-10.1zM262.6 531.8c5.5 7.8 11.6 14.4 18.1 20.1l-.8-18.1-17.3-2zM280.8 551.8c6.6 5.7 13.5 10.3 20.3 14.2l-2.2-16.8-18.1 2.6zM250.5 509.3c3.4 8.3 7.4 15.8 12 22.4l2.8-17-14.8-5.4zM244.5 490.1c1.5 6.9 3.6 13.3 6 19.2l6.6-14.6-12.6-4.6zM308.3 310.6c-3.9 2.3-8.5 5.2-13.5 9.2l12.2 2.9 1.3-12.1zM350.5 571.9l-11.4 8.5-5.5-11.4-13.5 5.8c16.7 6.3 30.8 8.1 35.8 8.6l-5.4-11.5z"/><path class="st6" d="M301 566c6.6 3.7 13.1 6.6 19.2 8.8l-4.2-13-15 4.2zM294.9 319.8c-4.7 3.7-9.7 8.2-14.6 13.8h14.9l-.3-13.8zM261.1 385.9l-4-13.4 13.2-1.2-7.4-12.8 13.9-.1-5-12.1 13.3-1.1-4.7-11.5c-15.8 17.6-31.5 45.3-37.1 87.7l7.4-30.4 10.4-5.1zM243.1 421.4c-.8 5.8-1.3 11.9-1.7 18.2l10.7-7.8-9-10.4zM241.3 440.7c-.2 3.8-.3 7.8-.4 11.8 0 3.2 0 6.3.1 9.4l9.5-11.4-9.2-9.8zM241 461.9c.4 10.2 1.6 19.6 3.6 28.2l7.4-16.5-11-11.7z"/><path class="st7" d="m351.8 559.6-7.6 4.6-3.1-7c-.2-.5-.6-.9-1.1-1.1-.5-.2-1.1-.2-1.6.1l-11.5 5.4-3.2-8.3c-.3-.9-1.2-1.4-2.2-1.3l-10.8 1.4-3.3-12.2c-.2-.9-1-1.5-2-1.5h-11.2l-1.5-13.6c-.1-1-.9-1.7-2-1.9l-15.4-1-.9-13.8c0-.7-.4-1.3-1.1-1.6l-8.2-4.3 2.1-11.8c.2-.9-.3-1.9-1.1-2.3l-7.6-3.5 2.1-12.7c.1-.5 0-1.1-.4-1.5l-6.9-9.7 4.7-8.4c.3-.6.3-1.2.1-1.9l-4.3-9.8 9-9.5c.7-.7.7-1.9.1-2.7l-7.3-9.7 11.7-21.2 7.9-6.1c.7-.5.9-1.4.7-2.3l-2.9-9.7 5.8-2.9c.8-.4 1.3-1.3 1.1-2.3l-1.9-8.1 5.6-1.2c.9-.2 1.6-1 1.6-2.1v-7.9l8.3-2.9c.8-.3 1.3-1 1.3-2V345l9.9-1.4c1-.1 1.7-1 1.7-2.1v-8.8l9.2 1.1c1.1.1 2.1-.6 2.3-1.6l1.2-7.1 7.9 1.5c.5.1 1.1 0 1.5-.3.4-.3.7-.8.8-1.3l1-5.9-3.2-5.2-1.5 8.3-7.9-1.5c-.5-.1-1.1 0-1.5.3-.4.3-.7.8-.8 1.3l-1.3 7.2-9.6-1.2c-.6-.1-1.1.1-1.6.5s-.7.9-.7 1.5v9.4l-9.9 1.4c-1 .1-1.7 1-1.7 2.1v6.6l-8.3 2.9c-.8.3-1.3 1-1.3 2v7.7l-6 1.3c-.5.1-1 .4-1.3.9-.3.4-.4 1-.3 1.5l2 8.5-5.9 2.9c-.9.4-1.3 1.4-1 2.5l3 10-7.2 5.5c-.2.2-.4.4-.5.6l-13 22.9c-.4.7-.3 1.5.2 2.3l7 9.3-8.6 9.3c-.6.6-.7 1.4-.4 2.3l4.5 10.1-4.9 8.7c-.4.7-.3 1.5.1 2.2l7.2 10-2.2 13.4c-.1.9.3 1.9 1.1 2.2l7.5 3.5-2.1 11.7c-.1.9.3 1.7 1 2.2l8.5 4.5 1 14.4c.1 1 .9 1.9 2 2l15.5 1 1.5 13.8c.1 1 1 1.9 2.1 1.9h11.5l3.4 12.5c.3 1 1.2 1.6 2.3 1.5l11-1.4 3.4 8.8c.2.5.6.9 1.1 1.1.5.2 1.1.2 1.6 0l11.6-5.4 3.2 7.3c.2.5.7.9 1.2 1.1.5.2 1.1.1 1.6-.2l8.2-5 4.4 4.2c.1-1.7.3-3.5.4-5.4l-3.1-3c-.1-.7-1.1-.8-1.8-.3z"/><path class="st7" d="M356.2 550.3c-.7-.6-1.7-.7-2.5-.2l-6.5 4.3-3-6.2c-.5-.9-1.6-1.4-2.6-1l-9.9 3.8-2.1-8.5c-.1-.5-.5-1-.9-1.3-.5-.3-1-.3-1.6-.2l-10.7 3.1-2.9-11c-.2-.9-1-1.5-2-1.5H301l-3.6-11.6c-.2-.7-.8-1.2-1.5-1.4l-10.8-2.3-1.5-11.5c-.1-.7-.6-1.3-1.3-1.6l-9.2-3.6 2.2-9.1c.2-.8-.1-1.7-.8-2.2l-7.4-5 2.2-10.6c.1-.6 0-1.2-.4-1.7l-7.4-9.2 5.4-6.5c.5-.6.6-1.3.3-2.1l-4.2-10.4 6.3-8.6c.2-.3.4-.8.4-1.2v-18.4l8.3-3.7c.9-.4 1.4-1.4 1.1-2.5l-2.2-7.9 6.9-4.3c.8-.5 1.1-1.4.9-2.4l-2.1-7 5.4-3c.6-.4 1-1 1-1.7v-7.6l5-1.2c.9-.2 1.5-1 1.5-2V364l7.3-2c.9-.2 1.5-1 1.5-2v-6.7l7.6-.9c.9-.1 1.5-.8 1.7-1.6l1.4-7.4h6.8c.9 0 1.7-.6 2-1.5l1.9-6.7 7.8 1.5c1.1.2 2.2-.5 2.5-1.6l1-4.9-3.2-5.1-1.4 7.2-7.7-1.5c-1-.2-2.1.4-2.4 1.4l-2 7h-6.9c-1 0-1.9.7-2.1 1.6l-1.4 7.6-7.9 1c-1 .1-1.9 1-1.9 2.1v7.1l-7.3 2c-.9.2-1.5 1-1.5 2v7.3l-5 1.2c-.9.2-1.5 1-1.5 2v8l-5.7 3.2c-.8.5-1.2 1.4-.9 2.4l2.1 7.1-6.9 4.3c-.7.5-1.1 1.4-.9 2.3l2.1 7.7-7.9 3.6c-.7.3-1.2 1-1.2 1.9v19.2l-6.6 9.1c-.4.6-.5 1.3-.2 2l4.2 10.4-5.7 6.9c-.6.7-.6 1.9 0 2.6l7.9 9.7-2.2 11c-.2.8.2 1.6.8 2.1l7.4 5-2.3 9.5c-.2 1 .3 2.1 1.2 2.4l9.7 3.8 1.5 11.7c.1.8.7 1.5 1.6 1.7l11 2.4 3.7 11.8c.3.8 1 1.4 2 1.4H310l3.1 11.5c.1.5.5 1 .9 1.2.4.2 1 .3 1.5.2l10.7-3.1 2.1 8.7c.1.6.5 1 1 1.3.5.3 1.1.3 1.7.1l10.3-4 3.2 6.6c.3.5.7.9 1.3 1.1.6.2 1.2.1 1.6-.3l7.1-4.7 3.1 2.7c.1-1.6.2-3.4.3-5.1l-1.7-2.2z"/><path class="st1" d="m339.2 579.4 27.2-83.2M320.3 574.9l47.5-93.2M301 566l65.4-84.7M280.8 551.8l85.6-76.6M262.6 531.8l104.7-64.6M250.5 509.3l113-47.4M244.5 490.1l124.5-36M241 461.9h80.7M240.7 440.1l79.6 10.8M251 388.4l76.2 39.4M256 372.5l78.4 43.9M262.9 358.5l77.6 47.2M270.3 346.2l76.1 53.3M280.2 333.6l70.7 57.5M294.9 319.8l51.5 60.7M308.3 310.6l44.3 61.7M348.8 580l7.5-34.3M331.3 574.9l14.4-34.3M312.8 567.6l21-33.9M294.4 555.6l25.9-32M274.7 537.8l30.6-25.6M260.3 516.6l34.1-16.8M252.1 496.2l32.9-10.5M245.7 473.1l34.5-2.6M245.6 449.4l33.2 5.7M248.5 430.5l32.9 8.1M256 384.2l37.2 15.3M259.9 366l36.3 20.4M270.3 352.6l32.6 24.8M281.4 341.9l28.5 25.5M291.2 329.1l26.9 29.3M304.6 317.1l22.6 31.8M317.2 310.6l21 33M352.6 355.8l-6.5-10.6-6.3-10.2-18.6-30.4s-78.8 23.6-80.4 148C239.3 577 357.9 583.7 357.9 583.7l27.5-103.6-32.8-124.3z"/><path class="st3" d="M350.9 381.8s-11.4 2.1-19.7 21.6c12.7 10.6 28.9 17.5 28.9 85.1s-7.7 121.4-8.3 125.5c-.7 4.1 12.3 5.5 13.4 0 .7 3.6 11 4.8 10.6 0 1.7 3.6 13 4.1 13.4 0 1.3 3.6 9.3 3.8 11 0 3.1 3.6 11.3 0 11.3 0s5.5-1.5 9.6 0c2.1 3.6 11.3 0 11.3 0s10 5.9 14.1 0c3.8 1 10.6 4.1 12.3 0 3.8 2.1 9.3 4.4 11.3 0 2.1 2.1 8.2 2.1 9-1.7 2.3 3.8 9.4 3.1 9.4 0 4.4 5.4 13.7 2.4 13.7-1 3 3.1 10 2.1 12-1 2.1-3.1-6-59.1-4.8-115.6 1.1-56.6 16.2-76.6 29.8-88.6 1.3-1.4-16.2-18.4-31.2-27-15.1-8.6-37-14.8-37-14.8l-8.3-10.6-62.3-8.7-30 14.9-19.5 21.9z"/><path class="st0" d="M355.7 582c-.3 3-.6 5.8-.8 8.4l158.3-5.1c-.2-2.6-.4-5.4-.6-8.3-32.4 1-133.2 4.3-156.9 5z"/><path class="st3" d="M252.3 211.8s17.7 1.7 19.4 4.1c1.6 2.4.4 7.7-2.5 8.7-2.9 1-20.7-1.1-20.7-1.1l3.8-11.7z"/><path class="st8" d="m197.1 318.6 13.3 41.3 26.7 4.4 20-40.7z"/><path class="st4" d="m200.5 329.1 1.3 4.2 49.5 1.9 2.1-4z"/><path class="st1" d="m205 319.2 1.5 8.3M211.7 319.8l1.3 7.7M226 320.9l-.1 6.6M231.7 321.8l-1 6.2M245.7 322.6l-1.2 5.4M251 323.6l-1.4 5.5M197.1 318.6l13.3 41.3 26.7 4.4 20-40.7z"/><path class="st0" d="M184.1 341.4c-4.6 2.9-2.1 8.6 1.3 9.9 1.7.6 20.5-1.5 38.8-.9 17.3.6 34.2 4 35.8 3.4 3.4-1.1 4.1-10.3 0-10.6-4-.4-71.2-4.6-75.9-1.8z"/><path class="st0" d="M218.8 341.2c-2.5.7-3.2 7.9-1 9.3 2.2 1.3 10.7 1.3 12.5.9 1.7-.4 2.4-10.1 0-10.3-2.4-.2-9-.6-11.5.1zM257.1 188.4c5.1-3.3 10.6-4 14.6-4.1.3-7.8-13.6-12.3-22.4-10.8-9.3 1.5-16.8 7.7-23.2 15.4-6.3 7.5-13 100.9-13.2 131l12.6 1c2.2-50.9 21.7-126.3 31.6-132.5z"/><path class="st3" d="M257.1 188.4c-9.9 6.3-29.3 81.6-31.6 132.5l10.2.8c.3-6.7 2-25.6 10-71.6 10.8-62.3 24.4-56.4 25.9-64.8.1-.3.1-.6.1-1-4 0-9.5.8-14.6 4.1z"/><path class="st4" d="M206.5 193.7c-23.5-3.1-35.5 8-35.5 8s1.7 5 8.5 9.8l41.8-13.9c-3.9-1.6-8.8-3-14.8-3.9z"/><path class="st8" d="m221.3 197.7-41.7 13.9c4.6 3.2 11.6 6.4 22 7.7 25.7 3.4 34-10.1 34-10.1s-3.1-6.8-14.3-11.5z"/><path class="st1" d="M171 201.8s12.1-11.1 35.5-8c23.4 3.1 29.1 15.4 29.1 15.4s-8.2 13.4-34 10.1-30.6-17.5-30.6-17.5z"/><ellipse class="st5" cx="214.3" cy="519.2" rx="9.9" ry="9.8"/><path class="st3" d="m191 498.1-2 15.4 54 1.3-.5-16.7z"/><path class="st3" d="m239.4 399.5-36 2.1-12.4 96.5h51.5z"/><path class="st1" d="M197.1 505.2v8.3M202.9 505.2l-.2 8.3M214.5 505.2v8.3M219.8 505.2v9.1M230.1 506.4v8.1M235.8 506.4l-.2 7.4"/><path class="st4" d="M206 445.8h-.2c-1.7-.1-3-1.6-2.9-3.3l3-39.1c.1-1.7 1.6-3 3.3-2.9 1.7.1 3 1.6 2.9 3.3l-3 39.1c-.2 1.7-1.5 2.9-3.1 2.9zM228.6 447.2c-1.7 0-3.1-1.3-3.1-3.1v-41.5c0-1.7 1.3-3.1 3.1-3.1 1.7 0 3.1 1.3 3.1 3.1v41.5c0 1.6-1.4 3.1-3.1 3.1z"/><path d="M200.6 493.7h-.3c-1.6-.2-3-1.6-2.8-3.4l3.9-38.6c.2-1.6 1.6-2.9 3.4-2.8 1.6.2 3 1.6 2.8 3.4l-3.9 38.6c-.2 1.7-1.5 2.8-3.1 2.8z"/><path class="st4" d="M215.3 495.2c-1.7 0-3.1-1.4-3.1-3.1l.5-40.1c0-1.6 1.4-3.1 3.1-3.1 1.7 0 3.1 1.4 3.1 3.1l-.5 40.1c0 1.8-1.3 3.1-3.1 3.1z"/><path d="M230.1 494.7c-1.6 0-3-1.3-3.1-3l-1.7-38.1c-.1-1.7 1.2-3.2 3-3.2 1.7-.1 3.2 1.2 3.2 3l1.7 38.1c.1 1.7-1.2 3.2-3 3.2h-.1zM217 443.2h-.1c-1.7-.1-3.1-1.4-3-3.2l1.1-34.9c.1-1.7 1.4-3 3.2-3 1.7.1 3.1 1.4 3 3.2l-1.1 34.9c-.1 1.6-1.5 3-3.1 3z"/><path class="st2" d="M220.5 363.7c-3.3-.5-6.3-1-7.5-1.4-4-1.2-4.4-6.4-7.2-6.4s-9.5 9-5.1 15.5c-3.1 2.3-5.1 6.9-1 10.7-2.3 1.5-4.1 8.2 0 11.9-1.5 3.9-.5 8.6 6 11.6 3.9 1.9 14.3 2 22.6 1-3.7-10-9.8-30.1-7.8-42.9z"/><path class="st3" d="M235.8 365.9s-8.4-1.1-15.2-2.2c-2 12.8 4.1 32.8 7.6 43 5.4-.6 9.9-1.5 11.3-2.8 3.5-3-3.7-38-3.7-38z"/><path class="st1" d="M200.6 371.4c4.6 8.3 27.9 5.8 27.9 5.8M199.6 382c8.7 8.8 30.7 4.4 30.7 4.4M199.6 394.1c10.1 7.6 36 0 36 0"/><path class="st9" d="M504.9 416.3c3.7-4.9 8.6-9.1 3.3-18.5-5.4-9.5-19.7-22.3-19.7-22.3l-54.3 24.2-46.9-29.5-27.1-1.5s-11.9 7.1-9.3 13.3c2.7 6.2 0 23.9 0 23.9l3.6 3s7.9-11.2 12.7-9.2c4.8 2.1 9.4 7 8.2 15.7-1.1 8.7-8.2 19.9-8.2 19.9s6.6 5.1 11.1 2.7 7.8-13.9 11.2-13c3.5.9-2.6 33.2-7.1 41.8-4.5 8.5 7.1 7.1 7.1 7.1s10.2-15 13.2-13.6-3.7 32.9-3.7 32.9l6.1 5.1s5.9-15.3 10-15.3 9.1 33.9 9.1 33.9h40.3s5.7-20.5 9.1-21.5c3.4-1 7.6 8.1 7.6 8.1l8.3-5.1s-11.1-20.9-8.3-26.8 14.2 2.3 14.2 2.3l3.6-4s-10.8-27.1-8.2-30.9 11.7 5 11.7 5l7-1.6c.1-.2-8.4-21.3-4.6-26.1zm-58.4 97.2c-3.4-26-46.8-122.6-46.8-122.6l36.3 11.6 40.4-14.9c.2.1-20 75.5-29.9 125.9z"/><circle class="st5" cx="442.1" cy="435" r="29.8"/><path class="st5" d="M369.6 386.5c-2.2-.9-5.4 2.3-7.4 4.8 1.4 2 3.4 3.5 5.8 4.2 1.7-2.9 3.9-8 1.6-9z"/><path class="st5" d="M371.4 373.7c-6.2 0-11.2 5-11.2 11.2 0 2.4.7 4.6 2.1 6.4 2.1-2.6 5.2-5.9 7.4-4.8 2.4 1 0 6.2-1.5 9.2 1 .3 2.2.5 3.4.5 6.2 0 11.2-5 11.2-11.2s-5.2-11.3-11.4-11.3zM407.3 410.3c-2.4 0-4.4 5.1-5.6 8.3 1.6.9 3.5 1.4 5.6 1.4h.7c.8-3.6 1.7-9.7-.7-9.7z"/><path class="st5" d="M418.4 409c0-6.2-5-11.2-11.2-11.2s-11.2 5-11.2 11.2c0 4.1 2.3 7.8 5.7 9.7 1-3.2 3.2-8.3 5.6-8.3s1.4 6.1.7 9.8c5.8-.4 10.4-5.3 10.4-11.2zM476.1 406.2c-2.3 1.1-1.6 6.4-.9 10.1h.9c2.7 0 5.1-.9 7.1-2.6-1.6-3.3-4.6-8.7-7.1-7.5z"/><path class="st5" d="M487.3 405.2c0-6.2-5-11.2-11.2-11.2s-11.2 5-11.2 11.2c0 5.9 4.5 10.7 10.3 11.1-.7-3.7-1.3-9 .9-10.1 2.5-1.2 5.6 4.2 7.1 7.6 2.5-2 4.1-5.1 4.1-8.6zM503.6 379.8c2.5-2 7.1.7 9.9 2.7.2-.8.3-1.7.3-2.7 0-6.2-5-11.2-11.2-11.2s-11.2 5-11.2 11.2 5 11.2 11.2 11.2c2.2 0 4.2-.6 5.9-1.6-2.2-2-7.8-7.4-4.9-9.6z"/><path class="st5" d="M513.4 382.5c-2.8-2-7.4-4.5-9.9-2.7-3 2.3 2.7 7.6 4.8 9.5 2.6-1.6 4.5-4 5.1-6.8z"/><path class="st10" d="M389.6 377.2 383 385c5.6 4.3 12.3 9.1 19.8 13l6.2-9.7c-7.3-3.1-13.9-7.2-19.4-11.1zM376.5 365.9l-9.3 4.9s6.2 6.6 15.7 14.2l6.6-7.8c-5.7-4.3-10.3-8.5-13-11.3zM409.1 388.2l-6.2 9.7c6.2 3.2 12.8 5.9 19.4 7.3l2.1-12.7c-5.4-.8-10.6-2.3-15.3-4.3zM462.6 385.9l6.5 10.8c6.4-3.4 11.7-7.2 15.8-10.7l-8.3-9.8c-3.7 3.3-8.4 6.8-14 9.7z"/><path class="st10" d="M495.5 373.1c0-1.7-4.6-4.8-9.9-7.1-2 2.7-4.9 6.4-9.1 10.2l8.3 9.8c7.1-6 10.7-11.4 10.7-12.9zM441.2 392.6l1.5 13.1c10.2-1.9 18.9-5.1 26.3-9.1l-6.5-10.8c-5.9 3.1-13 5.7-21.3 6.8zM438 393.1c-4.6.4-9.2.2-13.6-.4l-2.1 12.7c6 1.3 12 1.7 18 .8.8-.1 1.5-.3 2.4-.4l-1.5-13.1c-1 0-2.2.3-3.2.4zM402.9 372.5l-7 9c6.2 3.9 13.5 7.5 21.4 9.7l2.8-9c-6.8-2.5-12.6-6.1-17.2-9.7z"/><path class="st10" d="M485.6 366c-5.6-2.4-11.8-3.8-13.8-1.6-1.3 1.5-2.7 4.5-5.2 7.9l6.3 6.9c6.1-4.8 10.3-9.8 12.7-13.2zM420.1 382l-2.8 9c5.7 1.5 11.6 2.4 17.9 2.2v-8.3c-5.4-.1-10.5-1.2-15.1-2.9zM389.6 358.7l-13.2 7.1c3.7 3.7 10.4 10 19.3 15.5l7-9c-8.3-6.6-13.1-13.6-13.1-13.6z"/><path class="st10" d="m454.1 381.9 2.3 6.7c6.6-2.6 12.1-6 16.6-9.5l-6.3-6.9c-2.7 3.5-6.4 7.3-12.6 9.7zM435.2 384.9v8.3c.9 0 1.7-.1 2.7-.2 6.9-.6 13.1-2.2 18.4-4.3L454 382c-4.6 1.9-10.7 3.1-18.8 2.9z"/><path class="st2" d="M462.5 353.8c-1.3 4.6-5.1 9.8-10.6 11.1-5.5 1.3-9.3 5.4-11.6 10.3-3.6-6.2-12.9-8-19.6-9.3S405.1 350 405.1 350l6.9-57.1 15.6-20.9 71.3 2.6-6.2 20.4-22 51.7c.1-.2-7 2.4-8.2 7.1z"/><path class="st0" d="M503 281.5s.4 7 .1 10c-.3 3-1.7 5-1.5 10.3.2 5.2 4.6 17.8 4.6 17.8l-3.2 5.7-12.8 2.3s1 10.1-3.6 10.4c2.6.2 2.9 5.7 1 7.2s-5.1-.8-5.1-.8-1 6.9-4.4 8.2c-3.4 1.3-15.7 1.3-15.7 1.3s-3.1-4.6-8.2-6c7.5-3.6 10.8-13.6 12.8-26.4 2-12.9-1.3-37.5 1.2-39.8 2.5-2.4 34.8-.2 34.8-.2z"/><path class="st1" d="m486.7 337.8-11.9-.2M474.8 291.1c13.4-1.9 13.4 6.7 13.4 6.7h-13.4"/><circle cx="481.2" cy="300.6" r="2.9" style="stroke:#000;stroke-width:3.0869;stroke-linecap:round;stroke-linejoin:round;stroke-miterlimit:10"/><path class="st1" d="M475.9 303.3h10.8M441.2 341.9s8.1 7.8 13 6M493.6 311s-5.9 1.9-6.2 7.1"/><path class="st9" d="M456.7 99.9c-.2-1.3 9.1-42.7 18.1-49.9.8 26 2.9 49.9 2.9 49.9l-8 27.6-13-27.6zM486.1 159.6s7.2-29.8 26-53.8c18.8-24 37.6-34.7 44.2-32.9-5.7 6.9-17.8 28.3-32.2 45.8-14.4 17.5-16.6 46.3-16.6 46.3l-21.4-5.4z"/><path class="st1" d="M470.4 66.5c-6.4 24.4-3.3 69.8-3.3 69.8"/><path class="st9" d="M453.2 139.2c.8 4-14.4-80.7-11.3-87.3 11.3 26.5 27.3 51.4 29.3 62.8 2.1 11.3-.4 36.8-.4 36.8l-13.3 8-4.3-20.3z"/><path class="st1" d="M447.8 77.5c20.2 51.2 20.5 71.5 20.5 71.5"/><path class="st9" d="M415.4 53.8c-1.5 6.2 19.8 59.2 19.6 68.7s13.2 49.4 13.2 49.4l20.4-10.8s-10.3-42.5-23.7-66.7-23.3-33.1-29.5-40.6z"/><path class="st1" d="M423.4 69.6c27.6 50.4 37.4 90 37.4 90"/><path class="st9" d="M390.1 62.3c-1.5 11.8 25.7 46.3 27.3 59.2s20.7 48.9 20.7 48.9l15.1-8.7s-9.8-38.9-24-61.7-31-32.5-39.1-37.7zM489.4 161.6s2.1-24.6 13.1-48.8c11-24.2 31.4-38.2 32.4-50.5-18.3 7.4-25.9 12.9-41.1 30.7s-21.9 39.3-21.9 39.3l.1 29.3h17.4z"/><path class="st1" d="M398.2 72.7s16.6 22.1 27.6 41.4c11 19.2 20.8 53.2 20.8 53.2"/><path class="st9" d="M417 167s-3.1-30.9-19.6-47.3c-16.5-16.5-29.8-32.4-28.6-43.2 11.8 6 35.6 19.2 48.2 38.1 12.6 18.8 24.4 52.5 24.4 52.5L462 164s1.3-36.5 8.8-56.6c7.6-20.1 24.6-39.8 36.6-53.5 1.5 14.4-10.9 36-20.6 56.6-9.3 19.9-8.7 50.7-8.7 50.7l-50.2 18L417 167z"/><path class="st1" d="M376.4 86c4.4 6.2 25.3 22.7 32.6 34 8 12.3 20 45 20 45M498.5 71.3c-29.6 39.6-27.7 80.3-27.7 80.3M525.2 72.7c-42.7 41.9-44.6 88.9-44.6 88.9M542.2 82.9c-45.6 45.5-45.8 84.3-45.8 84.3"/><path d="M391.7 310.5s1 10.3-3.1 15.2c-4.1 4.9-51.9 32.2-54.2 37.4s12.3 25 19.2 25 45-37 51.6-38.1c6.6-1 10.2-5.7 10.2-5.7s28.8-34.8 31.2-38.3c2.4-3.4 1.2-15.8 3.4-18.6 2.2-2.8 31.8-2.8 42.9-2.8 11.1 0 16.8 4.3 19.9 4 3.1-.3 6.2-12.6 6.2-12.6l-7.2-8.3-95.7-.5-24.4 43.3z" style="fill:#606161;stroke:#000;stroke-width:3.0869;stroke-linecap:round;stroke-linejoin:round;stroke-miterlimit:10"/><path class="st13" d="m334.7 366.7 44.5-30.1M336.7 371.2l42.4-28M339.1 375.5l43.9-29.3M341.9 379.8l43.6-29.7M345.9 382.3l41.4-28.5M349.5 386.4l38.7-28M391.7 317.5c19.3-6.4 25.6-42.7 25.6-42.7"/><path class="st13" d="M390.2 323.6c24.4-8.7 31.5-48.5 31.5-48.5"/><path class="st13" d="M394.1 327.1c24.2-12.2 31.5-51.3 31.5-51.3"/><path class="st13" d="M397.1 332.1c25.7-14.4 33.3-56.1 33.3-56.1"/><path class="st13" d="M399.7 335.2c27.8-13.1 35.5-59.2 35.5-59.2"/><path class="st13" d="M401.8 338.9c30.9-12.3 38.5-63.5 38.5-63.5M444.5 276.1s-4.7 28.8-10.3 34M440.3 308.5c4.7-4.9 8.6-32.4 8.6-32.4M464.9 285.3v-14.8M481.5 285.1l.5-14.5M499 284.3l1.2-14.6"/><path class="st3" d="M530.9 220.2c5.8-16.9 12.6-33.2 19-41.6 0 0-16.5-22.9-83.1-21.6-66.7 1.3-89.8 27.3-89.8 27.3s17.6 20.2 28.8 46.3c9.5-4.8 29.8-13.4 60.2-16.5 30.9-3.2 54.2 2.6 64.9 6.1z"/><path class="st0" d="M527.4 230.5c1.1-3.4 2.3-6.9 3.4-10.3-10.7-3.5-34-9.3-64.8-6.1-30.4 3.1-50.7 11.6-60.2 16.5 1 2.5 2.1 5 3.1 7.7 10.3-4.8 34.4-14.7 65.6-14.7 23.2 0 41.4 3.7 52.9 6.9z"/><path class="st10" d="M474.5 223.6c-31.3 0-55.4 9.9-65.6 14.7 1.1 3.3 2.3 6.6 3.1 10 10.2-3.8 33.4-11.2 60.6-11.2 20.7 0 39.2 2.6 51.3 4.8 1.1-3.7 2.3-7.4 3.5-11.3-11.5-3.3-29.7-7-52.9-7z"/><path class="st9" d="M412.1 248.2c2.3 8.6 3.4 17.6 2.8 26.3 24.5 2.6 99.8 1.1 99.8 1.1s3.7-15.2 9.3-34c-12.1-2.3-30.6-4.8-51.3-4.8-27.2.2-50.5 7.6-60.6 11.4z"/><path class="st1" d="M388.8 184.1c5.4 4.5 18.9 30.8 18.9 30.8M393.3 173.2c7.4 7.1 20.8 38.6 20.8 38.6M413.1 164.9c5.1 5.9 11.8 42.4 11.8 42.4M430.8 160.6c4.4 6.5 7.4 45.9 7.4 45.9M445.5 158.2c2.5 4.1 4.1 40.7 4.4 45.5M462.3 157.2c4.7 10.6 1.2 45.2 1.2 45.2M480.9 157.1c3.6 11-7.1 44.5-7.1 44.5M501.1 159.3c1.4 4.9-14.7 43.1-14.7 43.1M516.7 161.7c2.5 6.9-14.6 40.7-14.6 40.7M533.1 167.2c0 13-16.4 38.7-16.4 38.7M405.9 176.3c6.2 6.2 13.1 34.1 13.1 34.1M423.9 168.5c5.5 10.6 7.2 38 7.2 38M439.2 164.9c3 7.8 5.2 39.9 5.2 39.9M455.3 163.2c1.4 11.8 0 39.2 0 39.2M471.9 163.3c2.9 10.1-3.8 38.8-3.8 38.8M489.2 164.9c0 11.3-9.6 37.2-9.6 37.2M506.7 167.2c-.8 10.4-13 35.2-13 35.2M523.2 171.9c-1.3 12.3-13.6 31.8-13.6 31.8M538.6 177.6c-2.4 10.2-13.4 28.9-13.4 28.9"/><path class="st3" d="m403.6 235.1-30.1-45.2s-26.8 16.9-36.8 63.1c-10.1 46.2 16.5 85.3 17.5 84.8s37.4-29.6 37.4-29.6l14.4-40.4-2.4-32.7z"/><circle class="st14" cx="438.9" cy="237.2" r="5.6"/><circle class="st14" cx="463.5" cy="235.8" r="5.6"/><circle class="st14" cx="486.4" cy="237" r="5.6"/><circle class="st14" cx="507.7" cy="238.3" r="5.6"/><path class="st5" d="M392 731.4s-6.5 15.9-4.8 20.6c1.7 4.6 10 4 11-1s3.4-16.7 3.4-16.7l6.7 2.3s-7.6 11.4-5 16.8c2.6 5.5 11.6 3.2 12.1 0s2.9-16.1 1.6-16.5c-1.3-.5-25-5.5-25-5.5z"/><path class="st15" d="m382.9 726.2 7.4-31.8 49.3 7.1-8.5 38.5z"/><path class="st0" d="M380.8 773.6c-5.6 0-3.3 10.7-3.3 10.7l33.3 6.1s4.2-9.7 0-10.7c-4.2-1.1-24.5-6.1-30-6.1z"/><path class="st0" d="M374.8 790.3s-2.2-8.2 1.1-10.7c3.3-2.4 33.3 4.5 35.3 7.6 2 3.1-1.3 9.7-1.3 9.7l-35.1-6.6z"/><path class="st0" d="M372.4 796.9c-3.1-1.2-1.2-7.1.3-8.8 1.4-1.7 36.6 5.2 38.6 7.1 2 1.9 1.4 7.5-2.9 8.2-4.3.6-32.9-5.2-36-6.5z"/><path class="st3" d="M356 835.3c-1.7 0-4.1 10 0 12.3 4.1 2.4 59.2.3 61.3 0 2.2-.3 2.4-7.2 0-9-2.4-1.6-59.6-3.3-61.3-3.3z"/><path class="st3" d="M390.8 836.5c3.5.2 7 .3 10.2.5l-1.4-15.1-8.8 14.6zM359.2 835.3c3.2.1 8.5.3 14.7.5l-1.2-21.2-13.5 20.7z"/><path class="st0" d="M409 803.2c-.2 0-.3.1-.5.1-.6.1-1.6.1-3-.1L393 821.8l-1.3-20.7c-.5-.1-1.1-.2-1.6-.3l-10.8 16.6-1.9-19.1c-.5-.1-1-.2-1.5-.4l-10 17.9-1.5-8.8c-3.9 10.2-6.6 23-7.6 28.3.5 0 1.3 0 2.5.1l13.6-20.7 1.2 21.2c.7 0 1.5.1 2.3.1l10.7-19.9 1.7 20.4c.7 0 1.4.1 2.2.1l8.7-14.6 1.4 15.1c.5 0 1 .1 1.6.1l6.3-34z"/><path class="st3" d="M376.3 835.9c4 .1 8.2.3 12.5.5l-1.7-20.4-10.8 19.9zM405.5 803.3c-3.3-.3-8.4-1.1-13.7-2.1l1.3 20.7 12.4-18.6zM375.9 798c-1.7-.4-3-.7-3.5-.9-.8-.3-1.3-1-1.5-1.9-2.5 2.5-4.6 6.9-6.5 11.9l1.5 8.8 10-17.9zM390 800.9c-4.6-.9-9.2-1.9-12.6-2.6l1.9 19.1 10.7-16.5z"/><path class="st1" d="M441.1 835.3s8.2 2.3 7.2 7.9M438 845.2c2.4-4.2-4.8-9.4-4.8-9.4M423.6 835.8s8.2 4.9 5.5 10.4"/><path class="st0" d="M468.8 794.4c-.6-2-2.1-5.7 0-8.4 2.1-2.8 34.5-2 37.1 0s1.1 8.4 1.1 8.4h-38.2z"/><path class="st0" d="M466.8 791.3c-2.4 2.8.9 7.1.9 7.1h42s1.5-6.8-2.2-7.9-38.3-2.1-40.7.8z"/><path class="st0" d="M467.7 805.5c-2.7-1-4.6-5.9-1.7-8.5 2.9-2.7 42.1-2.1 43.7.3 1.6 2.4 3.5 4.9.3 7.2-3.1 2.2-39.6 2-42.3 1z"/><path class="st3" d="M464.5 834.3c-2.3.6-1.5 13.3 1.3 14.5 2.9 1.2 111.6.6 114.7-2.5s1-12.8-3.2-12.9c-4.2 0-110.5.3-112.8.9zM468.2 805.6c-1.6 4-2.6 8.5-3.1 12.9l11.2-12.3c-3.8-.2-6.8-.4-8.1-.6z"/><path class="st3" d="M483.6 833.9c3.5 0 7.2-.1 11.2-.1l-4-17.7-7.2 17.8zM467.4 834.1c2.9-.1 7.8-.1 14-.2l-4.1-19.1-9.9 19.3z"/><path class="st0" d="M510.5 833.7h6.5c-2.1-4.6-3.3-10.6-4.1-16.2-2.2-3.5-5.6-9.1-7.3-12-.6.1-1.3.1-2.1.2-1.5 4.1-4.6 12.5-4.6 12.5l-5-11.9c-.9 0-1.9 0-2.9.1l-6.8 10.9-4.4-10.9c-1.2 0-2.5 0-3.6-.1L465 818.6c-1 8.4-.5 15.7-.5 15.7.2 0 1.2-.1 2.9-.1l10-19.4 4.1 19.1h2.1l7.2-17.8 4 17.7h2.3l7.5-17.7 5.9 17.6z"/><path class="st3" d="m504.5 816.1-7.5 17.7c4.3 0 8.8-.1 13.6-.1l-6.1-17.6zM503.6 805.6c-2.8.2-6.1.4-9.7.5l5 11.9c.1.1 3.2-8.3 4.7-12.4zM491.1 806.2c-3.8.1-7.7.1-11.2 0l4.4 10.9 6.8-10.9zM511.8 802c-.1.8-.6 1.7-1.6 2.5-.5.4-2.2.7-4.4 1 1.7 3 5.1 8.6 7.3 12-1.1-7.1-1.3-13.5-1.3-15.5z"/><path class="st5" d="M474.5 747.4s-5.1 18.9-3.4 21.6c1.9 2.7 10.3 2.8 11.4-1s1-20.6 1-20.6l11.2 1.7s-5.1 11-5.1 16.2 13 3.4 14.5.3-.5-19.8-.5-19.8l-29.1 1.6z"/><path class="st15" d="M465.9 705.3v40.6l44.6-2.4v-38.2z"/><path class="st10" d="M700.4 430.3c-3.5-3.3-120-12.1-121.5-8.7-.8 1.9-1.3 73.6-4.5 139.2-.3 5.5-.5 10.9-.8 16.2H697c-3.5-36.4 7-143.2 3.4-146.7z"/><path class="st5" d="M696.9 576.9H573.4c-.5 9.4-1.1 18.3-1.7 26.7l128.1 1.6c-1-9.3-2-18.9-2.9-28.3z"/><path class="st2" d="m699.8 605.2-128.1-1.6c-.4 4.9-.7 9.7-1.1 14.1l130.7 1.4c-.5-4.5-1-9.1-1.5-13.9z"/><path class="st3" d="M569.3 632.6c-1.7 19.1-3.1 32.1-3.1 35.9 0 7.5 17.2 10.3 19.2 0 1 13.1 19.9 12.3 21.6 2.8 3.8 12.7 22.3 8.2 24.4 0 3.4 10 16.8 10.6 19.2 2.4 2.8 9.3 20.3 6.9 22.3-1 4.1 7 28.1 9.3 30.6-5.1 1.1-6.9.5-19.7-.9-35.1l-133.3.1z"/><path class="st1" d="m672.9 672.7 2.3-95.8M652 576.9l-1.4 96.9M631.4 671.3v-94.4M613.2 576.9l-6.2 94.4M585.4 668.6l6.2-91.7M574.9 675.2l5.1-46.9M595.4 678.4l4.1-50.1M618.6 679.2l2.3-50.9M640.6 679.2l.9-50.9M661.6 679.6l2-51.3M688.3 678.4v-50.1"/><path class="st6" d="m686.9 647-14.2 9.5-9-4.7c-.8-.4-1.7-.4-2.6.1l-10.6 6.5-8.8-4.5c-.7-.4-1.5-.4-2.3 0l-8.2 4.1-10.7-4.2c-.7-.3-1.4-.2-2.2.1l-10.5 5.6-8.7-7.4c-.8-.7-2-.8-2.9-.3l-10.1 5.5-7.5-5.2c-.7-.5-1.7-.6-2.6-.2l-9 4c-.2 2.2-.4 4.1-.5 5.9l10.3-4.5 7.6 5.4c.8.5 1.9.6 2.7.2l10-5.4 8.7 7.4c.8.7 2 .8 2.9.3l11-5.9 10.6 4.2c.7.3 1.4.2 2.1-.1l8.1-4 9 4.5c.8.4 1.7.4 2.5-.1l10.6-6.5 9 4.7c.8.4 1.9.4 2.7-.1l14.1-9.5 15.5 8.5V655l-14.4-7.9c-.8-.7-1.8-.7-2.6-.1z"/><path class="st6" d="M689.5 635.3c-.7-.4-1.6-.4-2.5 0l-13.7 7.6-9.4-3.6c-.6-.2-1.3-.2-2 .1l-10.7 4.9-9-4.1c-.7-.3-1.5-.3-2.3.1l-8.7 4.5-9.9-4.8c-.8-.4-1.7-.3-2.5.1l-10.2 6.2-8.4-7.7c-.8-.8-2.2-.9-3.2-.2l-10.2 6.7-7.9-6.5c-.7-.6-1.6-.7-2.5-.4-3.6 1.2-6.2 2.2-8.1 3-.2 2.1-.4 4-.5 5.9 1.9-.9 5.5-2.4 9-3.6l8.2 6.8c.8.7 2.1.8 3.1.2l10.1-6.6 8.4 7.7c.5.4 1.1.7 1.7.7.4 0 .9-.1 1.3-.4l10.6-6.5 9.9 4.7c.7.3 1.5.3 2.3 0l8.7-4.5 9 4.1c.7.3 1.4.3 2.2 0l10.8-4.9 9.5 3.6c.7.3 1.5.2 2.2-.1l13.6-7.5 14.5 7.5.9.3c-.1-1.9-.2-3.8-.4-5.8l-13.9-7.5zM610.3 676.6c4.6 3.9 12.1 3.1 16.9 0l-8.1-8-8.8 8zM587.3 674c3.8 5.5 12.5 5.7 17 2l-7.7-10.4-9.3 8.4zM569.4 673.5c3.3 2.1 8.5 2.6 12.2.5l-5.8-6.8-6.4 6.3zM689.4 661.4l-12.9 14.3c6.5 3.4 18.9 3.8 24.4-2.7l-11.5-11.6zM633.4 674.9c4 5.1 11.5 5.8 15.2 2.1l-7.5-8.4-7.7 6.3zM652.8 677.2c4.2 3.7 12.7 3.1 17.2-.4l-8-8.1-9.2 8.5z"/><path class="st3" d="M218.8 363.9c1.5-.8 1.5-2.8 1.2-4.5-4.5-.3-8.5-.2-9.8.6-.9.6-1.3 1.7-1.4 2.9 2.7.8 7.8 2.3 10 1z"/><path class="st2" d="M327.2 413.5c-7.4 8.8-16.8 19.6-19.9 19.6-5.1 0-35.2-21.9-39.1-26.4-3.9-4.5-12.1-14-12.1-14s-15.4-29.5-21.1-31.1c-3.1-.8-9.5-1.7-14.9-2.2.3 1.7.3 3.7-1.2 4.5-2.3 1.2-7.3-.2-9.9-1-.1 2.2.9 4.7 2.5 5.8 2.4 1.5 18.3 2.6 18.3 2.6l6.4 25s-4.4 15.5 4.1 19.1c8.5 3.6 22.4 17.2 37.8 30.9 15.3 13.7 31.7 21.1 42.2 21.1 7.6 0 23.8-16.7 32.3-25.9l-25.4-28z"/><path d="M358 324.3c-.9 0-1.9-.5-2.3-1.4-.6-1.2-.1-2.8 1.1-3.5l29.1-14.7c1.2-.6 2.8-.1 3.5 1.1.6 1.2.1 2.8-1.1 3.5l-29 14.7c-.4.2-.8.3-1.3.3zM347.4 296.8c-1.2 0-2.3-.8-2.5-2.1-.3-1.3.6-2.8 2-3.1l31.7-6.8c1.4-.3 2.8.6 3.1 2 .3 1.3-.6 2.8-2 3.1l-31.7 6.8c-.1.1-.4.1-.6.1zM381.4 266.2l-32.2-1.2c-1.4-.1-2.6-1.2-2.5-2.7.1-1.4 1.2-2.5 2.7-2.5l32.1 1.2c1.4.1 2.6 1.2 2.5 2.7 0 1.4-1.2 2.5-2.6 2.5zM384.2 247.6c-.2 0-.4 0-.6-.1l-27.1-7.1c-1.3-.3-2.2-1.7-1.9-3.1.3-1.3 1.7-2.2 3.1-1.9l27.1 7.1c1.3.3 2.2 1.7 1.9 3.1-.4 1.2-1.4 2-2.5 2zM386.2 233.2c-.5 0-1.1-.2-1.6-.5l-17.1-13.6c-1.1-.9-1.3-2.5-.4-3.6s2.5-1.3 3.6-.4l17.1 13.6c1.1.9 1.3 2.5.4 3.6-.5.5-1.2.9-2 .9z"/><path class="st4" d="M352.6 311c-1.1 0-2.2-.7-2.5-1.9-.4-1.3.4-2.8 1.7-3.2l28.4-8.5c1.3-.4 2.8.4 3.2 1.7.4 1.3-.4 2.8-1.7 3.2l-28.4 8.5c-.3.2-.5.2-.7.2zM346.4 281.1c-1.3 0-2.5-1-2.6-2.4-.1-1.4.9-2.7 2.4-2.8l33.2-2.8c1.4-.1 2.7.9 2.8 2.4.1 1.4-.9 2.7-2.4 2.8l-33.2 2.8h-.2zM381.6 256.2h-.4l-29-4.5c-1.4-.2-2.4-1.5-2.2-3 .2-1.4 1.5-2.4 3-2.2l29 4.5c1.4.2 2.4 1.5 2.2 3-.3 1.3-1.4 2.2-2.6 2.2zM384.5 239.7c-.3 0-.7-.1-1-.2l-22.3-10.1c-1.3-.6-1.9-2.2-1.2-3.4.6-1.3 2.2-1.9 3.4-1.2l22.3 10.1c1.3.6 1.9 2.2 1.2 3.4-.5.8-1.4 1.4-2.4 1.4zM391.7 228.2c-.7 0-1.3-.3-1.9-.8L373 210.1c-1-1-.9-2.7 0-3.6 1-1 2.7-.9 3.6 0l16.8 17.3c1 1 .9 2.7 0 3.6-.4.6-1 .8-1.7.8z"/><path class="st1" d="m367.3 195.3 6.2 6.9M363.3 199l6.9 6.9M356.4 207.4l7.1 5.8M352.6 214.3l7.6 4M345.9 225.7l8.5 4M342.9 232.2l8 3.6M337.3 250.5l9.4 1.5M336.7 257l8.2 1.1M334.7 278.5h6.3M334.8 283.7l7.1-1.1M337.9 301.5l7-2M339.8 308.5l6.9-2.5M345.9 322.2l5-2.4M350 329.1l4.4-2.4"/><circle class="st16" cx="440.3" cy="282.1" r="5"/><circle class="st16" cx="456.4" cy="280.7" r="5"/><circle class="st16" cx="473.8" cy="280.5" r="5"/><circle class="st16" cx="490.3" cy="280.5" r="5"/><circle class="st16" cx="507.7" cy="280.5" r="5"/><ellipse class="st16" cx="457.7" cy="303.6" rx="4.6" ry="7"/><ellipse class="st16" cx="456.4" cy="326.7" rx="4.6" ry="7"/><circle class="st17" cx="408.8" cy="702.4" r="3.6"/><circle class="st17" cx="405.5" cy="723.7" r="3.6"/><circle class="st17" cx="425.5" cy="722.2" r="3.6"/><circle class="st17" cx="475.5" cy="717.2" r="3.6"/><circle class="st17" cx="498.8" cy="717.7" r="3.6"/><circle class="st17" cx="479.9" cy="732.8" r="3.6"/><circle class="st17" cx="498.8" cy="732.8" r="3.6"/><path class="st1" d="m400.4 602.2-.2 11.9M389.2 614.1v-11.5M376 601l-.2 13.1M365.2 614.1V601M502.4 599l-.3 12.3"/><path class="st0" d="M421.3 307.1s-1-18.6 1-21c2.1-2.4 11.2-1.5 13.4 0 2.2 1.5.8 5.4-2.4 5.7 2.2 1.3 2 7-.5 7 2.2 1 .5 9.7.5 9.7l-12-1.4z"/><path class="st1" d="M433.4 291.8c-3 .7-7.3-1.6-7.8-.3-.6 1.9-1.2 5.5 0 6.9s5.7-.7 7.3.5"/><path class="st0" d="M410.3 337.1h36.2v6.2h-36.2zM410.3 312.4h36.2v6.2h-36.2z"/><path class="st16" d="M410.3 318.6h36.2v18.5h-36.2z"/><path class="st3" d="m425.5 346.5-2.8 11.8c2.9.4 6.3.5 9.2.1l-2.5-11.8h-3.9v-.1z"/><path class="st3" d="M423.4 346.5s-8.4 5.8-6.4 9.4c.7 1.2 3 2.1 5.9 2.5l2.8-11.8h-2.3zM432.3 346.5h-2.8l2.5 11.8c2.9-.4 5.4-1.2 6.2-2.6 2.4-3.6-5.9-9.2-5.9-9.2zM418.4 306.1v6.3h10.3V306z"/><path class="st3" d="M410.3 306.1v6.3h8.1v-6.3zM446.5 306H439v6.4h7.5zM428.7 306v6.4H439V306zM415.6 343.3v5.6h24.7v-5.6zM410.3 343.3v5.6h5.3v-5.6zM446.5 343.3h-6.2v5.6h6.2z"/><path class="st0" d="M423.7 341.9s-4.1 5.5-2.7 7.7c1.4 2.3 12 2.3 13 .3.8-1.9-2.3-8-2.3-8h-8z"/><path class="st16" d="M423.4 326.5c-.8 3.6-2.6 16.8-1 17.8 1.5 1 10.3 1 11.1 0 .8-1 .1-14.4-.7-17.7-1-3.2-8.6-3.7-9.4-.1z"/><path class="st5" d="M486.1 310.8c-3.9-4.7-14.3-.6-11.1 6.7 1.9 4.3 5.7 3.6 6.6 1.7-.4 6-.1 9.4 3.5 11.8s20.5 1.4 24.2-1.7c4.1-3.6 4.1-9.8 2.1-12.2 2.6 2.2 8 .9 9.1-2.5 1-3.4 0-5.7-3.4-7.6-3.4-2-7.7-1.5-10.8 1-3.1 2.5-.1 9.8-1 11.5-.9 1.7-15.9 4.6-17 1.7-1.1-2.7.6-6.9-2.2-10.4z"/><path class="st1" d="M480.9 314.1s2.7 2 .8 5.1M512.7 310.6c-2.4 0-4.4 3.9-1.3 6.5"/><path class="st14" d="M490.3 267.3c0 1.5 4.3 7.2 6.4 7.2 2.1 0 59.4-11.4 59.4-14.1 0-2.7.2-9.1-2.6-9.9-2.8-.8-16.1 8.7-15.1 7 .9-1.7 9.8-17 9.6-19.9-.2-2.9-5.1-4.9-7.2-3.9-2.1 1-7.9 21.9-9.5 21.6-1.5-.3 2.6-21.6 2.6-23.9 0-2.3-6.7-2.4-8.2-1s-3.4 23.7-3.4 23.7-2.7-19-2.9-20.8c-.2-1.7-7.6-2.6-8.4-.3-.8 2.3 6.9 23.2 4.9 22.1-2-1-9.2-16.5-11.3-17.8-2.2-1.3-5.1 1-5.7 3.1-.5 2.1 11.6 17 11.6 17s-11.8-10.6-13.9-11.1c-2.1-.5-7.3 4.8-5.1 6.1s15.2 8.4 16.3 10.4c.7 2.3-17.5 2.9-17.5 4.5z"/><path class="st14" d="M503.3 259.9c-.9.9 8.7 16.8 12.9 19.9 4.1 3.1 11.1 1.9 14.7 0s14.6-17.7 13.4-19.9c-5.5-8.7-31.4-9.6-41 0z"/><path class="st1" d="M514.6 267.3s3.5 5.7 4.5 7.2c1.1 1.5 8.7 1.5 9.3 0 .5-1.5 3.4-9.3 3.4-9.3"/><path d="M503.3 265.3c-1.2 2.1 1.1 10 3.9 9.1 2.8-.9 12-8.8 17.7-8 6.7 1 18.3 14.4 21.4 14.4 3.1 0 6.4-4.8 5.1-7.2-1.2-2.4-20.9-13.1-27.1-13.1-6.1-.1-19.7 2.8-21 4.8z" style="fill:#ffce0d;stroke:#000;stroke-width:3.0869;stroke-linecap:round;stroke-linejoin:round;stroke-miterlimit:10"/><path d="M520.6 260.4c-1.9 1.3-1.9 4.9 0 6.5 1.9 1.5 6.5 1.2 7.2-1 .8-2.3 1.2-4.1 0-5.5s-5.4-1.3-7.2 0z" style="fill:#ffce0a;stroke:#000;stroke-width:3.0869;stroke-linecap:round;stroke-linejoin:round;stroke-miterlimit:10"/><path class="st0" d="M414.3 233.9c-2.6-4.4-8-3.9-12.1-1.7 3.5 6.8 9.3 21.7 4.4 38.8-5.4 18.7-18.9 31.7-24.2 36.1 3.3 3.3 7.8 6.3 10.3 6.3 4.4 0 16.5-18.8 20.6-32.8 4.1-14.1 5.1-39.7 1-46.7z"/><path class="st0" d="M406.6 270.9c4.8-17.1-.9-32-4.4-38.8-2.4 1.2-4.3 3.1-5.1 4.8-2.1 4.8 2.9 10.3 0 28.6s-19 31.3-19 34.9c0 1.5 1.9 4.1 4.4 6.6 5.2-4.3 18.8-17.3 24.1-36.1z"/><path class="st0" d="M395.8 255.5c-2.9 1.3-1.9 6.4 0 8.1 1.9 1.6 13.5 9.2 19.2 7 4.2-1.5 6.3-11.5 6.3-13.6 0-2.1-1.7-5.9-4.1-4.9-2.4.9-3.6 7.3-8.6 8.2-2.9.5-9.9-6-12.8-4.8z"/><path class="st3" d="M381.7 328s-8.2 2.9-8.2 7.2c0 4.3 18.3 29 20.6 29 2.3 0 6.9-6 6.9-6L381.7 328z"/><path class="st3" d="M402.3 359.7c2.6 1 7-1 7-5.9s-18.1-31.6-21.1-31.6-9.2 2.2-9.2 5.4c.1 3 20.7 31.1 23.3 32.1z"/><circle class="st5" cx="350.9" cy="408.7" r="7.1"/><circle class="st5" cx="367.3" cy="440.1" r="7.1"/><circle class="st5" cx="382.6" cy="473.6" r="7.1"/><circle class="st5" cx="400.2" cy="498.1" r="7.1"/><circle class="st5" cx="488.4" cy="503.3" r="7.1"/><circle class="st5" cx="498" cy="472.4" r="7.1"/><circle class="st5" cx="506.2" cy="443.8" r="7.1"/><circle class="st5" cx="512.1" cy="416.7" r="7.1"/><path class="st5" d="M333.8 405.4c-1.7 2.2-4 5-6.6 8l25.4 27.8c1-1.1 2.1-2.3 2.8-3.1-5.3-20.1-13.9-26.4-21.6-32.7z"/><path class="st3" d="M245.7 418.4s2.3 8.2 6.2 7 17.3-18.7 16.8-23.7c-.5-4.9-8.2-5.9-8.2-5.9l-14.8 22.6z"/><path class="st3" d="M256.7 389.3c-3.1 1.6-12 24.5-15.9 26.3-3.9 1.9 2.1 7.1 5.1 5.8s16.8-22 16.8-25.7-2.9-8.1-6-6.4z"/><path class="st2" d="M231.2 368.5s-5.4 8.8-1 18.1c4.3 9.3 12.9 9.1 12.9 9.1"/><path class="st9" d="M415.4 603.4c0 4.1 1.7 6.1 4.1 4.1 2.4-2 6.4-8.2 9.1-7.2 2.6 1 1.2 13.1 4 13.7 2.8.7 4.3-12.2 7.6-12.7 5.8-.7 4.4 15.3 7.8 15.3 3.4 0 3.4-16.4 5.9-15.9 2.4.3 5.6 13.7 7.2 14.4 1.6.7 2.5-13.4 5.1-13.4s9.3 12.7 12.6 10.3c3.1-2.4.9-14.5-.1-21.3l-58.8-.3c-2.6 6.5-4.5 11.4-4.5 13z"/><path class="st3" d="M471.9 551.6c0-12 11.2-38.1 11.2-38.1h-67.9s13.2 21.6 13.2 40.8c0 8.1-2.4 17.3-5 25.6l52.8-.5c-1.9-8.6-4.3-19.9-4.3-27.8z"/><path class="st3" d="m476.2 579.4-52.8.5c-1.2 3.7-2.5 7.3-3.7 10.4l58.8.3c0-.2-.1-.4-.1-.6-.4-2.3-1.2-6.1-2.2-10.6z"/><path class="st1" d="m442.8 525.1 11.1.6M449.4 520.5l-2 11.3M461.9 527.2l10 3.5M469.8 522.1l-5.5 12.6M427.7 526.2l12.7 4.9M435.2 523.6l-2.6 11.1M429.8 572.8l8.4-6.8M431.6 565.3l5.6 10.6M451.9 559.5l-2.5 12.9M444 564.3l14.6 3.3M461.9 574.9l7.9-9M463.3 565.3l5.5 9.6M488.4 612.3V601M470.2 614.1l-1.4-9.8"/><path class="st0" d="M404 555.7c3.3-3.8 40.1-16.4 47.8-15s41.3 19.1 43.6 21.5c2.5 2.4-1.9 9.3-7.1 8.2-5.2-1-27.6-18.5-36.6-19.2-9-.7-39.3 15.6-43.5 14.8-4.2-.7-7.5-6.5-4.2-10.3z"/><path class="st0" d="M444.2 541c-2 2.4-1.3 10 0 11.6.7.8 4.2 1.3 7.7 1.2v-14.2c-3.4-.1-6.8.2-7.7 1.4zM459.6 541c-.8-.5-4.3-1.1-7.7-1.3v14.2c3.4-.1 6.9-.8 7.7-2.3 1.6-3.1 1.6-9.5 0-10.6z"/><circle class="st5" cx="478.4" cy="614.1" r="5.9"/><circle class="st5" cx="461.9" cy="619.1" r="5.9"/><circle class="st5" cx="448.4" cy="617.8" r="5.9"/><circle class="st5" cx="432.6" cy="617.8" r="5.9"/><circle class="st5" cx="414.9" cy="610.8" r="5.9"/><path class="st0" d="m701.2 619.1-130.7-1.4c-.4 5.2-.8 10.3-1.2 14.9l133.3-.2c-.5-4.2-.9-8.6-1.4-13.3z"/><path class="st9" d="M596.3 220s16.7-12.3 36.9-21.3c20.3-9 47.8-6 59.2-8 11.3-2.1 23.9-3.4 23.9-3.4s-1.2 12.3-21.3 15.9-46.9 8.2-46.9 8.2l-16.9 8.5-14.9 19.2-23.9-5.4"/><path class="st9" d="M634.3 231.5s33.1-3.5 42.7 4.4c9.6 7.9 18.8 27.7 26.2 31.4 3.4-15.1-3.9-37.4-13.2-43.7s-36.3-5-36.3-5l-19.4 12.9z"/><path class="st1" d="M616.3 221c1-.8 19.9-20.4 41.5-20.9s49.7-6.5 49.7-6.5M651.3 222.4c38.4-4 48.2 34.3 48.2 34.3"/><path class="st9" d="M623.9 220s19.4-13.1 39.2-13.1 50.9 14.1 57.4 31.4c-16.5 0-20.1-11.5-47.8-13.7-27.8-2.2-54 23.7-54 23.7l-29.1-.5-13.9-7.8s4.9-25.7 35.2-46.3c30.1-20.6 44.9-17.3 66.2-36.6 5.7-4.8 11.6-.7 5.7 9.1-6 9.8-40.9 30-55.8 39.6-15 9.6-26.5 25.8-26.5 25.8"/><path class="st1" d="M592.3 227.7c.5-1 14.9-23.7 37.6-35.5s37-19.2 43.7-27.3M616.3 233.9c.8 0 20.6-17.4 45.6-19 25-1.6 52 19 52 19"/><path class="st5" d="M616.3 267.6c3.8-11.7 7.6-19.4 7.6-19.4s-9.2-10-48.3-8.3c-1.5 5.8-1.5 14.9-.8 24.1 21.8-3.9 35 .3 41.5 3.6zM576.1 276.1c1.2 10.2 2.8 18.2 2.8 18.2l30.7 2.5c.8-6.4 2.2-12.6 3.6-18.1-7.2-2.9-19.2-5.6-37.1-2.6z"/><path class="st9" d="M574.8 263.9c.3 4.1.7 8.3 1.2 12.1 17.9-3 29.9-.3 37 2.5 1-3.9 2.1-7.6 3.2-10.9-6.4-3.3-19.6-7.5-41.4-3.7z"/><circle class="st0" cx="593.9" cy="299.5" r="17"/><path class="st9" d="M713.2 325.5s16.8 3.1 15.7 8.7c-1 5.7-17 6.5-17 6.5v8s17 .8 17 6.2S714 360 714 360l.8 6.5s14.2 1.5 13.1 6.7-15.9 7.7-15.9 7.7 14.9 6.7 14.9 11.1c0 4.4-14.9 8.2-14.9 8.2s16.5 4.6 16.5 9.6-14.6 9.3-14.6 9.3 12.6 3.6 12.9 8.2c.3 4.6-10.5 6.4-10.5 6.4s11.8 5.1 11.8 9.3-13.1 8.5-13.1 8.5l-10.3-4.1-8.5-124 17 2.1z"/><path class="st2" d="m589.9 432-5.8 132.3h102.2l2-127.5z"/><path class="st10" d="m584.1 314.1-5.2 107.4c.3-.7 6.4-.9 15.6-.6l2-106.6c-7.8-.1-12.4-.2-12.4-.2z"/><path class="st0" d="m596.3 314.3-2 106.6c3.6.1 7.6.3 11.9.5l2.1-106.9c-4.3-.1-8.5-.1-12-.2z"/><path class="st9" d="M704.3 392.9s20.1-3.6 21.4-11.6-16.8-9.6-16.8-9.6 18-.5 17.8-7.7c-.2-7.2-17-10.3-17-10.3s18.2-2.1 18.2-9.5-10-8.5-20.3-11.7c13.9-1.7 18.3-4.8 19.6-9 1.2-4.1-5.5-7.4-8.5-7.4-1.4 0-32.8-.4-64.8-.9l-4.5 109.1c25.9 2.1 49.5 4.6 51 6.1 1.1 1.1.9 12.6.1 28.9 6.9-.2 23.8-1.1 24.2-6.3.5-6.4-13.2-10.4-13.2-10.4s13.6.2 13.6-6.9c0-7.1-14.1-9.4-14.1-9.4s13.9-1 13.9-6.4-11.8-8.5-12.9-8.5 13.9-1.9 14.9-8.7c1.1-7-22.6-9.8-22.6-9.8zM608.5 314.5l-2.1 106.9c5.5.3 11.3.6 17.5 1l3.8-107.6c-6.9 0-13.4-.1-19.2-.3z"/><path class="st1" d="m701.1 442.2 10.4.4M711 426.3l-61.7-2.1M647.4 409.6l64.6 1.8M708.9 371.8l-59.6-.6-1.9 22.2 56.9-.5M707.6 332.6h-58.3v19.6l60.3 1.6M716.1 323.2h-66.8M716.1 345l-70-1.8M716.1 362.8l-70-1M712.5 382.3h-69.2M716.1 401.4l-70-.5M711.5 418.9l-68.2-.3M717.6 434.2l-16.5.2M717.6 451.3l-16.5-.3"/><path class="st5" d="M669.5 456.3c7.5 0 7.5 20.2 0 20.3-7.4.1-7.4-20.3 0-20.3z"/><path class="st1" d="M669.5 461.9v9.3"/><path class="st5" d="M664 510.9c7.5 0 7.5 20.2 0 20.3s-7.6-20.3 0-20.3z"/><path class="st1" d="M664 516.4v9.3"/><path class="st5" d="M602.1 513.5c7.5 0 7.5 20.2 0 20.3-7.4 0-7.4-20.3 0-20.3z"/><path class="st1" d="M602.1 519v9.3"/><path class="st5" d="M605 447.2c7.5 0 7.5 20.2 0 20.3-7.5 0-7.5-20.3 0-20.3z"/><path class="st1" d="M605 452.6v9.3"/><path class="st0" d="M645.4 499.1c1.3-32.5 19-54.5 27.3-63.2l-62.6-3.1c7.3 8.6 19.4 28.8 15.7 65.9-3.7 38-20.3 57.6-28.9 65.5h68.5c-7.5-10.6-21.2-34.2-20-65.1z"/><path class="st5" d="M609.8 487.8c-1.9-4.4.5-8.2 3.4-10s9.1-1.4 10.6 3.5-.7 11.2 2.1 14.3c2.8 3.1 15.4 4.5 18.5 1.4s3.9-13.2 6.9-14.4c2.9-1.2 7.9-.4 9.3 1.6s2.1 6.2 1 7.9-4.9 3.8-6.5.7c-.8 1.5-5.4 12.7-9.6 14.7-4.2 2.1-16.7 2.4-22-1-5.4-3.4-5.9-13.3-5.1-17.1-.9 2.3-6.7 2.9-8.6-1.6z"/><path class="st1" d="M614.8 484.2c2-2.3 5.5 3.1 3.6 5.4M655.1 493c-1.5-2.9.2-5.7 2.3-5.7"/><path class="st5" d="m627.7 314.9-3.8 107.6c8.2.5 17 1.1 25.4 1.9l4.5-109.1c-8.8-.2-17.7-.3-26.1-.4zM382.6 730.4s-5.4 15.1-5.4 18.5c0 3.4 9.3 5.5 12 2.1 2.8-3.4 6.9-18.5 6.9-18.5l19.2 6.5s-4.4 10-2.4 15.1c2.1 5.1 13.7 7.7 17.2-.8 3.4-8.4-2.8-13.2-2.8-13.2l-38.4-11.7-6.3 2zM465.9 745.9s-5.9 20.8-2.7 24.2c3.2 3.4 9.6.7 12.5-2.1 2.8-2.8.6-22.1.6-22.1h22.5s2.7 17.3 5.4 20.8c2.7 3.4 12.9 2.1 12.9-5.1s-7.7-18-7.7-18l-43.5 2.3z"/><path class="st0" d="M382.4 692.6c-2.1 1.6.1 9.5 2.4 8.5s7-4.9 11.6-4.3c4.6.6 39.6 4.3 41.2 7 1.5 2.7 4.1 11.3 6.5 11.3 2.4 0 3.7-1.7 4.1-6.9.4-5.1-4.1-9.7-9-12.7-4.8-3.1-39.7-8.4-44.5-7.8-4.5.8-10.2 3.2-12.3 4.9zM373.5 728.9c-2.4 3.1 1.6 7.6 3.8 6.9s4.2-4.2 8.6-2.9c4.4 1.3 40.1 9 41.2 11.1 1 2.3 2.4 9 4.1 11 1.7 2.1 8.2-3.1 6.2-7.2-2.1-4.1-1-8.2-7.2-10.6-6.2-2.4-37.2-11.8-43.2-12.7-6.1-.8-11.2 1.3-13.5 4.4zM465.9 701.5c-2.7 1-3.4 6.2-.8 7.2 2.7 1 42.7 1.7 45.7 0s2.2-6.8-2.3-7.2c-4.3-.5-39.9-1-42.6 0zM465.4 743.5c-2.2 1.5-1 7.1 1 8.1 2.1 1 41.8-1.3 44.1-3.1s2.7-8.5-.5-8.5c-3.1 0-42.5 1.9-44.6 3.5z"/></svg>