<svg version="1.1" id="Calque_1" xmlns="http://www.w3.org/2000/svg" x="0" y="0" viewBox="0 0 900 900" style="enable-background:new 0 0 900 900" xml:space="preserve"><style>.st0,.st1,.st2,.st3,.st4{fill:none;stroke:#000;stroke-width:2.9976;stroke-linecap:round;stroke-linejoin:round;stroke-miterlimit:10}.st1,.st2,.st3,.st4{fill:red}.st2,.st3,.st4{fill:#fff}.st3,.st4{fill:#004cc6}.st4{fill:#ffce00}.st5{fill:#0a8200}.st5,.st6{stroke:#000;stroke-width:2.9976;stroke-linecap:round;stroke-linejoin:round;stroke-miterlimit:10}.st7{fill:red}.st8{fill:#fff}.st11{fill:none}</style><path class="st0" d="m569.1 671.6 8.4 2.7M567.6 676.7l7.8 1.2M565.5 682.7h7.2M564 689.6l7.5-1.5M564 696.5l6.9-2.7M566.1 707l6-5.1M575.7 708.2l-3.9 5.4M578.7 713.3l-2.4 7.8M582.3 716.6l-1.2 6.9M586.8 719.9l-.6 7.5M591.3 721.4l-.3 7.5M596.1 722.6l.3 7.2M600.3 722.9l1.2 7.2M605.4 722.9l1.8 6.9M611.1 721.4l2.1 4.8M615.9 719.6l2.4 5.7M620.4 717.5l3.3 4.8M625.8 713.6l3.9 4.8M628.5 709.4l6.9 3.6M630.6 704.3l8.7 3M632.1 698.9l7.5.6M632.7 693.8l6.3-.3M632.1 688.7l6-1.2M630.6 684.5l5.7-2.7M628.8 680.6l5.7-3.3M626.4 676.7l4.8-3.6M623.1 673.1l4.8-3.9"/><path class="st1" d="m535.7 506.9-1.2 38.3 17.1 4.8 32-13.2 5.6-13.9-3.2-20.1z"/><path class="st2" d="M522.1 654.8c-3.2 18-23.2 55.2-23.2 55.2s17.2 15.2 46.8 15.6c7.2-16.4 16-37.9 20.8-75.1 4.8-37.2-11.2-65.5-11.2-65.5l-18.8 2c0-.2-11.3 49.8-14.4 67.8z"/><path class="st0" d="M560.9 638c.8 24.8-13.6 65.2-20.8 78.4-25.2-5.6-30-12-30-12l20.8-47.2"/><path class="st3" d="M553.2 652.4c-15.2 9.6-31.2 6.8-36 1.6-4.8-5.2-4.8-20.8-4.8-20.8l6.4-26 29.6-7.2 8.4 12.8s11.6 30-3.6 39.6zM475.3 618.8c-.4-.4-21.2.8-26-4-4.8-4.8-20.8-8.8-20.8-8.8l-6.4 8.8-1.2 21.2s18 .4 24.8 2.8c6-1.2 12.4 0 12.4 0l9.6 5.6 16 6 4.4-25.2-12.8-6.4z"/><path class="st2" d="M427.3 681.1s14.2 9.6 18.6 5.2c1.7-1.7 3.7-9.5 5.5-18.4l-18-6.8c-3.2 10.5-6.1 20-6.1 20z"/><path class="st2" d="M440.9 635.2c0 .7-3.9 13.8-7.6 26l18 6.8c2.8-13.8 5.1-30.3 5.1-30.3s-15.5-3.7-15.5-2.5z"/><circle class="st4" cx="469.7" cy="648.8" r="8.4"/><circle class="st4" cx="477.7" cy="621.2" r="8.4"/><path class="st3" d="m487.7 612-11.2 44.4s6.4 1.1 14 2.5l14.2-46.8h-17z"/><path class="st5" d="M516.8 612h-12.2l-14.2 46.8c10.8 1.9 24 4 25.2 3.5 2-.8 4.8-34 4.8-34l-3.6-16.3z"/><path class="st2" d="m506.1 580-.2.2-9.9 38.4c1.8 1.1 3.8 2.2 5.9 3.2l10.5-40-6.3-1.8zM512.5 581.9l-10.5 40c10.2 5.2 22.1 10.1 22.1 10.1s4.4-10.4 6-19.2c1.6-8.8 3.6-24.8 3.6-24.8l-21.2-6.1z"/><path class="st2" d="M489.3 600s-4 6-1.6 12c.7 1.7 4 4.1 8.3 6.7l9.9-38.4-16.6 19.7z"/><path class="st0" d="m516.7 621.4 9.4 3M517.3 616.4l10 2.8M518.9 610.4l7.2 1.6M520.1 605.2l8.4 1.2M521.3 600.8l7.5 1.2M523.7 596.4l6.3 1.2"/><path class="st3" d="M410.6 658.4s-7.2 4.8-5.2 10.4c-4 4.8-1.6 8.8-1.6 8.8s-3.2 4 .4 6.8c-2 2.4-2 5.6.8 5.6-.8 2.4-.4 6.8 4 6.8s24-14 29.2-30.4c5.2-16.4 7.6-27.6 7.6-27.6l.8-16L421 624l-10.4 34.4z"/><path class="st0" d="M405.3 668.7c6.8 3.2 14.4-2.8 14.4-2.8M403.8 677.5c5.2 1.2 12.8-3.2 12.8-3.2M404.1 684.3c6 .4 12.8-4 12.8-4M405 689.9c6 .4 12.8-4.4 12.8-4.4"/><path class="st2" d="M449.3 614.8c-4.8-4.8-20.8-8.8-20.8-8.8l-6.4 8.8-1.2 21.2s18 .4 24.8 2.8c6-1.2 8.4-19.2 3.6-24z"/><path class="st1" d="M461.7 618c-.4 1.6-5.2 3.2-5.6 8.4-.4 5.2 2.6 9.2 1.4 12.4-1.2 3.2-5.4 3.8-9.4 1.8s-7.2-9.4-6-16.2c1.2-6.8 7.6-14 13.6-13.6 6 .4 6.4 5.6 6 7.2z"/><path class="st2" d="M406.5 656.7s9.2-24.8 11.2-41.2c-.4-4.4 2-14.8 2-14.8s7-2.8 8.2 1.2c.6 18.8-14.4 58.9-16.4 59.8-2 .9-5-5-5-5zM653.5 374.2l-10.4-9.2s-17.6-55.6-21.6-83.5h15.6s5.2 58.8 15.2 83.9c-4.8-43.9-3.2-83.2-3.2-83.2l16 .4s-2.4 77.2-2 82.7c.4 5.7-9.6 8.9-9.6 8.9z"/><path class="st2" d="m649.2 408.1-9.6-43.1 30.7-.4.9 38.4z"/><path class="st4" d="m614.8 462.5 20 20 6.4-10.7-17-16.6c-5.4 4.2-9.4 7.3-9.4 7.3z"/><path class="st1" d="M663.5 428.1s-3.6-7.2-8.4 0c-3.2 4.8-20 18.4-30.9 27l16.9 16.7 14-23.3 8.4-20.4zM705.1 445.3s6.2 22.4 21.6 27.2c15.3 4.8 27.2.4 40.3 4 4-12.8-9.6-12.8-9.6-12.8s8.8-5.6 8-16.4c-9.2 3.2-16.4 8.4-32.4 8.8-16 .4-21.6-15.6-21.6-15.6s13.2 7.6 26 4.8 24.8-11.2 31.2-20c-12-10.4-20.4-.4-20.4-.4s8.4-13.6 0-18.8c-20 27.2-33.2 26.4-33.2 26.4l-11.6.4 1.7 12.4z"/><circle class="st4" cx="648" cy="390.6" r="9.6"/><circle class="st4" cx="658" cy="442.1" r="9.6"/><path class="st3" d="M598.4 401.8c7.6-1.6 55.9 3.6 55.9 3.6s6 10.8 4.4 24.8c-34.4 9.2-61.9 5.2-66.7.6-4.8-4.6-9.2-14.6-9.2-14.6s8-12.9 15.6-14.4z"/><path class="st2" d="M663.1 417.4c-1.2-14.9 9.2-24.9 16.1-25.5-2.5-1.7-6.7-4-11.7-3.2-8 1.2-17.8 10.4-14.6 27.2 3.2 16.8 11.8 22.4 20.6 21.6 2.2-.2 4-.8 5.4-1.5-3.4-1.3-14.8-5.8-15.8-18.6z"/><path class="st2" d="M667.7 415.9c-.7-14 10-19.1 14-20.6l-.2-1.6s-.8-.9-2.3-2c-6.8.7-17.2 10.6-16.1 25.5 1 12.9 12.4 17.4 15.8 18.5 2-1 3.4-2.3 4.4-3.4-4.5-.4-15-3-15.6-16.4z"/><path class="st2" d="M681.7 395.4c-4 1.4-14.6 6.5-14 20.6.6 13.4 11 15.9 15.6 16.5 1.3-1.4 1.7-2.7 1.7-2.7l-3.3-34.4z"/><path class="st0" d="m665.9 390.1 2.4 2.4M661.2 392.5l4 3.3M657.6 396.6l4 1.9M654.7 400.9l4.1.9M653.2 406h4.8M653.2 411.4l5.6.3M654 416.9l4.3-.7M655.6 422.2l3.9-1.2M658.8 427.7l2.4-1.2M661.9 433.3l2.4-2"/><path class="st1" d="M685.9 424.6c-5.6 8.4-4.8 23-1.6 23s6.8-12.2 6.8-12.2-.8 15.2 3.6 14.8c4.4-.4 4.8-13.2 4.8-13.2s2.6 12 6.2 11.2c3.6-.8 1.8-10.8 1.8-10.8s6.8 7.6 9.2 4.4c2.4-3.2-1.6-14.8-6-16s-20.8-2.9-24.8-1.2z"/><path class="st2" d="M685.3 377.8c-2.4 1.6-3.4 9.6-5.4 12-2 2.4-.4 10.8-1.2 12.8-.8 2-2.8 2-3.6 6-.8 4 2.4 18.8 8.8 19.6 6.4.8 21.2-9.2 21.2-9.2l-6.4-42.7c0-.1-11-.1-13.4 1.5z"/><path class="st1" d="m709.1 303.8-6-48.7 4-6.8s-2.8-9.6-4-9.6c-1.2 0-12.4 3.6-12.4 3.6l-2.4 19.6 11.2 48 9.6-6.1z"/><path class="st2" d="M685.9 301.4s-4-7.6-8.8-14.8c3.2-.8 7.2 3.6 7.2 3.6s-3.6-8.4-9.6-11.2c2.8-1.6 8.8.8 8.8.8s-4.4-7.6-10-12c3.2-1.2 8 1.2 8 1.2s-1.2-6.8-8.4-10.4c4.8-1.2 6.8 1.2 6.4 0-.4-1.2-2-6-6.4-11 3.6-.4 6.4 2.2 6.4 2.2s-.4-6.8-4.8-11.4c2.4-.4 6 2.6 5.6 1.4-.4-1.2-.8-10 2.8-12.8.8 9.2 4.4 13.2 4.4 13.2l6.8 67.6-8.4-6.4zM691.1 381c.4 12-6.4 33.4-6.4 33.4l7.2 6.6 11.6-.4 4.4-25.2.8-16.4s-18-10-17.6 2z"/><path class="st5" d="M690.7 304.2s-9.6-51.6-6.4-60.7 14.8-13.8 23.6-10.6c8.8 3.2 7.2 12.6 7.2 16.6 0 4 3.8 5.2 3.4 8-.4 2.8-11.2 6-14.4-.4-3.2-6.4-.2-9.2-1.8-12.4-1.6-3.2-6.8-2.8-7.6 2.8-.8 5.6 6.8 56.8 6.8 56.8h-10.8z"/><path class="st4" d="m686.3 346.6-7.6-47.2 46.8 4-8.4 34.8-16 15.6z"/><path class="st5" d="M673.5 332.2c12.8 0 12 10.8 12 10.8s-1.2-10.8 2-14.8c5.6 4 7.2 12 7.2 12s4.4-8.8 8.4-12c3.2 5.6 2 14 2 14s6.8-11.6 11.2-14c2.4 6.4.4 16 .4 16s4.8-6.4 9.6-8.4c-2 13.6-8 18.8-8 18.8l-10 14.4-18.8-.8-7.2-15.2s-2.4-10.8-8.8-20.8z"/><path class="st1" d="m691.5 374.2-5.6-2.4s-6-12-5.6-20.8c6.8.4 9.2 9.6 9.2 9.6s-.8-9.6 4.8-14.8c6.4 6.8 3.6 14.8 3.6 14.8s4.4-8.4 9.6-11.2c2.4 4 .8 13.2.8 13.2s3.2-6.8 10-8c0 8.4-6 17.6-6 17.6l-20.8 2z"/><path class="st5" d="M684.7 414.4c-2 3.8-.8 11 .4 12.6s22.4 2.8 24.8.4c2.4-2.4 1.2-8.4.4-11.2-14.8 5.1-22 1.2-25.6-1.8z"/><path class="st2" d="M707.5 382.9c-1.2-.4-3 6.4-3 6.4s-7.8 3.6-9.4 6.4c-1.6 2.8-2 5.6.4 7.2-.8 1.6-2 5.2.4 7.2-2 2-.8 5.2 1.6 5.2 0 1.6 1.2 4.4 4.4 4 3.2-.4 8.6-2.8 10.2-5.2 1.6-2.4.2-5.6.2-5.6s2-3.2 0-6.4c2.8-5.2-1.2-9.6-1.2-9.6s1.2-7.2-1.2-10c-1.2-1.1-2.4.4-2.4.4z"/><path class="st0" d="M695.5 403c8.4-3.2 15.6-10.4 15.6-10.4M695.9 410.2c8.4-3.2 16.4-8 16.4-8M697.5 415.3c8.4-3.2 14.4-5.2 14.4-5.2"/><path class="st5" d="M690.7 382.2c2.4-.8 13.2-3.2 16.4 2.4 4.4 1.2 6.8-5.2 5.6-9.6s-5-7.4-11.8-8.6c-6.8-1.2-14.8 3.6-16 6.8-1.3 3.1 3.4 9.7 5.8 9z"/><path class="st0" d="m624.4 472.7 15.2-14.8"/><path class="st2" d="M439.3 521.3s-11.2 13.2-10 18.8c1.2 5.6 21.2 8.8 21.2 8.8l17.2-10.4-.8-16-27.6-1.2z"/><path class="st3" d="M383.3 496.9c-7.6 10.4-28.7 24.5-46.5 35.2 9.2 21.8 39.7 55.5 45.8 62l41-57.2c.1-.1-17.1-23.3-40.3-40z"/><path class="st2" d="m351 539.7 6.4 7.2s10.8-9.2 13.6-12-2-8.8-4.4-7.6c-2.3 1.1-15.6 12.4-15.6 12.4z"/><path class="st0" d="m357 540.4 8.2-7.3"/><path class="st2" d="m366.2 560.8 6.4 7.2s10.8-9.2 13.6-12c2.8-2.8-2-8.8-4.4-7.6-2.4 1.2-15.6 12.4-15.6 12.4z"/><path class="st0" d="m372.2 561.6 8.2-7.4"/><path class="st2" d="M339.6 553.4 320.2 566l11.3 19.1 19.9-13.8c-4-5.9-8.2-12.1-11.8-17.9z"/><path class="st2" d="M329.6 536.4c-11.5 6.7-20.1 11.2-20.1 11.2l10.9 18.4 19.4-12.6c-4.4-6.5-8-12.4-10.2-17zM371.5 599.9c-4-5.6-11.9-16.7-20-28.5l-19.9 13.8 7.1 12.1 32.8 2.6z"/><path class="st2" d="M336.9 532h0l.6 18.1c2.1 3.4 4.4 6.9 6.8 10.5l-.6-15.9c-2.8-4.4-5.2-8.7-6.8-12.7z"/><path class="st2" d="M329.6 536.4c1.9 3.8 4.7 8.6 8 13.8l-.7-18.1c-2.5 1.5-5 2.9-7.3 4.3zM362.2 570.3l.6 16.7-.6-16.7c-3.4-4.1-6.8-8.6-10.1-13.1l.6 16c7.6 11.2 15 21.4 18.8 26.7l6.7.5 4.6-6.4c-3-3.1-11.5-12.4-20.6-23.7z"/><path class="st2" d="m343.7 544.8.6 15.9c2.8 4.1 5.6 8.4 8.4 12.5l-.6-16c-3-4.2-5.9-8.3-8.4-12.4zM374.2 521.3c-1.6 3.2 2.8 8.2 5.6 8.2s13.8-9.8 13.8-11.8-2.2-7.6-5-8c-2.8-.4-12.8 8.4-14.4 11.6z"/><path class="st0" d="m378.8 521.9 6.8-6M381.8 524.1l6.4-5.2"/><path class="st2" d="M389.4 542.4c-1.6 3.2 3.4 8.2 6.2 8.2 2.8 0 13.2-10.4 13.2-12.4s-2.2-7-5-7.4c-2.8-.4-12.9 8.4-14.4 11.6z"/><path class="st0" d="m393.9 542.4 6.9-6M396.9 545.2l6.5-5.2"/><path class="st4" d="M488.1 380.2s-25.2-11.6-37-16.8-22.6-14.8-41.8-14c-19.2.8-38.5 3.6-43.8 19.6s2.2 26 9.8 28.8c7.6 2.8 24.8 4 25.2-10 0-10.8-14.8-10.8-14.8-10.8 2 3.2 2.8 7.2 2.4 9.6-.4 2.4-3.6 3.6-6.8 2-3.2-1.6-8-15.6.8-23.2s32.8-8.6 46.3 6.6c9.6 10.7 30.3 21.5 41.7 26.9l13.9-1.6 4.1-17.1z"/><path class="st1" d="M428.5 372c-13.6-15.2-37.6-14.2-46.3-6.6-8.8 7.6-4 21.6-.8 23.2 3.2 1.6 6.4.4 6.8-2 .4-2.4-.4-6.4-2.4-9.6 0 0-3.2-9.6 12.4-9.6 24.4-.4 27.4 15.4 38.2 22.6s19.4 10.6 19.4 10.6l14.4-1.6c-11.4-5.5-32.1-16.4-41.7-27z"/><path class="st5" d="M177.5 416.9s-13.2-12.8-21.2-42.4c-8-29.6-11.6-34.8-32.8-51.6 42 3.2 49.6 36.4 49.6 36.4s-2.8-22.8-8-38.4c-5.2-15.6-25.2-24.4-25.2-24.4s30-7.6 43.9 16.8c14 24.4 16.8 56.8 16.8 56.8s4.2-40 1.4-61.6c-2.8-21.6-24.6-27.6-19.4-50.4 6 4.8 28 13.2 37.2 32.8 9.2 19.6 10.8 46.8 10.8 46.8s.8-32.4-4.4-54-12.4-23.6-12.8-38.4c7.2 9.2 18.4 8.4 28.8 34.4s7.6 54.4 7.6 54.4 6.8-35.6 9.2-53.5c2.4-18-2.8-35.2-4.4-42.4 18 6 22.2 23 19.8 55-2.4 32-8.6 52.2-5 61.3 3.6 9.2 12 11.2 12 11.2l7.2 55.6-20.8 28.4-10.8 94.7-12 2s-15 9.2-23.4 30-4.2 45.1-21.4 64.7c9.6-25.2 3.2-49.9 11.2-70-4.4 8-20 38.8-45.6 41.5 10.8-13.6 18-19.6 23.6-35.2 5.6-15.6 3.2-34.4 27.6-58.3-14.8 9.6-27.2 27.6-42.7 47.2-15.6 19.6-36.8 22.4-46.8 18.8 37.2-34.8 39.6-55.9 59.5-70.3-72.4 25.6-85.9-3.6-85.9-3.6s26.4 9.2 64.7-12.4c27.1-15.2 40.8-28.8 40.8-28.8l-10.4-9.6s-5.6 3.2-12.4 9.2c-49.6 8.8-100.3 5.2-102.3-.4 14.4-9.6 43.6-8.8 61.6-10.4 18-1.6 36.4-8.4 36.4-8.4l-2-33.5z"/><path class="st0" d="M243.9 502.8s-14 4-26.8 16.4M245.4 526.8s-19.6 6.8-34 44.4M187.1 514.8c36.8-31.2 57.6-33.2 57.6-33.2M249.9 334.2c-2 17.6-.4 37.2 6 47.2s14 8.8 14 8.8M230.7 337.8c-2 17.6-.8 55.6 13.6 71.2 11.9 12.9 32.4 11.2 32.4 11.2M200.7 370.2c.4 8.4 6.8 27.2 22.8 43.6 16 16.4 34 14 34 14M173.1 359.4c2.8 18 13.2 40.8 22.8 54.4 9.6 13.6 36.4 26 36.4 26"/><path class="st2" d="m210.7 442.5-4.2 30.3 9.1 1.2 4.8-30.7z"/><path class="st2" d="m187.1 440.5-3.2 29.2 22.6 3.1 4.2-30.3z"/><path class="st6" d="m220.4 443.3-4.8 30.7 9.3 1.3 5.7-31.1z"/><path class="st2" d="m253.8 446.1-17-1.4-4.5 31.6 10.3 1.4s14.4-4.8 15.2-6c.8-1.2-4-25.6-4-25.6z"/><path class="st2" d="m230.6 444.2-5.7 31.1 7.5 1 4.5-31.6z"/><path class="st7" d="M129.7 418.1c-4.6-3.1-11.3-6.5-20.1-8C91.2 407 75 420.8 75 420.8s5.9 8.9 15.9 14.7c11.7-15 31.3-17.1 38.8-17.4z"/><path class="st8" d="M129.7 418.1c-7.5.2-27.1 2.4-38.7 17.3 4.3 2.6 9.4 4.6 15 5 18.8 1.6 29.2-5.2 29.2-5.2l2-10.8c0 .2-2.5-2.9-7.5-6.3z"/><path class="st6" d="m139.1 403-8 44.4s3.8.4 9.4.8l6.7-42.7c-4.8-1.6-8.1-2.5-8.1-2.5z"/><path class="st2" d="m147.2 405.4-6.7 42.7c1.6.1 3.4.3 5.2.4l6.9-41.4c-1.8-.7-3.7-1.2-5.4-1.7zM152.7 407l-6.9 41.5c1.3.1 2.8.2 4.2.3l7-40.5c-1.5-.4-2.9-.8-4.3-1.3z"/><path class="st2" d="M186.3 419.3c-1.4-1.8-16.6-6.9-29.4-11l-7 40.5c13.5 1 29.8 2.2 32.7 1.7 5.3-.8 6.1-28 3.7-31.2z"/><path class="st0" d="M75 420.7s16.2-13.8 34.6-10.6c18.4 3.2 27.6 14.4 27.6 14.4l-2 10.8s-10.4 6.8-29.2 5.2c-18.8-1.6-31-19.8-31-19.8z"/><path class="st1" d="M265 443.3s-84.1-13.8-86.9-13.8c-2.8 0-3.4 7.4-1.8 9.8s72.7 13.2 72.7 13.2l16-9.2z"/><path class="st2" d="m279.4 533.7-7.6 14s-12 6-20.8 3.6-11.2-13.2-2.4-19.6c-8.8-2.4-9.2-14.8 1.2-19.6-11.2-4-12.8-15.2-.4-22.8-10.8-4-10.4-16.8.4-23.6-2.8-5.2-4.4-8.8-2.4-14.8s9.2-7.6 17.6-7.6c-9.2-4-14.4-10-10.8-18.4 3.6-8.4 14.4-6.4 21.2-5.2-15.2-7.2-16.4-18-12-26.4 4.4-8.4 18.4-4.4 18.4-4.4s-15.6-21.2.4-29.2c12.8-6.8 23.2 13.2 23.2 13.2L285.8 500l-6.4 33.7z"/><path class="st0" d="M296.6 394.2s-11.6-2.8-14.8-5.2M288.2 424.6s-7.2-2-10.8-4M282.7 446.5s-10-.8-17.6-3.2M276.7 469.3s-19.2-1.2-26.8-3.6M275.8 488.1s-13.6 0-26.4 1.2M275.5 510.5s-12.8 3.6-25.6 1.6M274.3 528.9s-12.8 4.8-25.6 2.8"/><path class="st0" d="M300.6 377.8s-11.6-10-14.8-6c-3.2 4 11.6 12 11.6 12l-6.4 18s-14.4-6.8-16.4-2.8c-2 4 12 8.8 12 8.8l-4.8 22.4s-14-4.4-16.4.4c-2.4 4.8 14.4 7.6 14.4 7.6l-3.6 16s-18.8-6-19.6 0c-.8 6 20 5.6 20 5.6l-2.4 16.8s-18.4-4.4-18.8.8c-.4 5.2 18 5.2 18 5.2l.8 11.2s-20 0-20.8 4.4c-.8 4.4 18.8 2 18.8 2l.8 16.8s-20 .4-20.8 5.6c-.8 5.2 22.4.8 22.4.8l-1 11.6s-20.4 1.2-20 6.4c.4 5.2 21-1.2 21-1.2"/><path class="st3" d="M335.4 505.2s-8.8-9.2-2.4-18c-7.6-10.4 2-18.4 2-18.4s-3.2-18 10-26.4c2-15.6 14.8-21.2 14.8-21.2s-2.4-10.4 4.2-17.1c-.9-.5-1.7-1.1-2.6-1.6-19.2-12.8-41.2-31.2-53.2-33.2-3.6.4-24.6 27.2-34.6 86.3s-1.8 91.9-1.8 91.9 40.9-24.6 66.5-32.7c-3.7-3.6-2.9-9.6-2.9-9.6z"/><path class="st2" d="m383.3 496.9 33.2-54.7-11.2-25.6s-22.6-1.1-41.4-12.4c-6.6 6.7-4.2 17.1-4.2 17.1s-12.8 5.6-14.8 21.2c-13.2 8.4-10 26.4-10 26.4s-9.6 8-2 18.4c-6.4 8.8 2.4 18 2.4 18s-.8 6 2.9 9.7c.1 0 .2-.1.2-.1 25.7-8 44.9-18 44.9-18z"/><path class="st0" d="m303.8 382.6 46.4 21.6M299.8 397l44.8 16.3M293.8 408.5l47.2 13.7M293.5 418.1l44.3 11.2M289.4 427.3l46.4 10.4M285.9 436.5l44.7 10M285.9 448.1l43.1 7.2M282.7 460.1l40.7 4.4M279.4 474.1l42.8 3.6M277.9 487.3l41.5 1.2M277.9 498.9l43.5-2.8M279.1 513.3l45.1-7.6M283.5 525.6l40.7-11.1M383.8 418.9l8.8 3.3M382.6 424.3l7.6 2.4M381.4 429.5l7.6 2M378.6 433.9l8.6 2M376.6 438.9l9.2 1.2M375 443.3l8.4.8M371.8 448.3l8 .8M368.6 452.7l8.8 1M367.2 456.7l8.8.8M365.8 461.3h8.4M365.4 465.7h7.2M364.6 469.7l8-.4M364.2 474.1l8.8-.8M365 479.7l7.2-1.2M364.6 484.1l7.6-1.6M365.4 488.5l8-2M366.6 492.5l7.2-2M369.4 495.7l7.2-2M348.2 504l6.8-1.5M346 497.5l7.2-1.6M343 491.3l8.4-2M340.2 480.9l9.8-.6M341 470.9h8.8M343.4 460.9l8.8.4M347.4 452.1l8.2.8M352.6 441.7l8.8.4M356.6 431.7l9.6.8M363.4 421l8 2.4M367 412.6l8.4 2.4"/><path class="st2" d="M341.4 403.3c-6.8 10.4 18 25.6 24.4 16.4 6.4-9.2-17.6-26.7-24.4-16.4zM325 433.7c-4 10.4 17.2 17.4 21.6 7.4 4.4-10-17.6-17.7-21.6-7.4zM314.2 462.9c-3.6 10.4 18 14 20.8 6 2.8-8-17.2-16.4-20.8-6zM313 492.1c-.8 11.2 19.6 9.6 19.6.8 0-8.8-18.8-12-19.6-.8zM326.2 518.9c4 7.6 25.2 1.6 20.8-8.4s-24.8.7-20.8 8.4z"/><path class="st0" d="m348.2 401.3 5.8 5.9M342.2 405.5l7.4 3.8M344 413.9l7.2 1.7M332.6 430.3l5 3.2M326.2 434.5l8 2M327.8 441.3l7.4-.6M317.8 470.5l6.4-1M315.4 464.1l7.6 1.6M321.2 459.1l5.2 4M316.6 488.1l5.6 1M315 494.1l6.4-1.2M318.4 499.3l5.8-3.6M328.8 512.3l7.2-1.2M327.2 518.4l7.2-2.7M332.6 521.3l5.4-3.2"/><path class="st3" d="M464.9 529.2s-48-5.6-61.6-14.4c-13.6-8.8-28-19.6-24.8-39.1 3.2-19.6 16-28.8 21.2-37.2 5.2-8.4 5.6-22 5.6-22l13.6-10.8 46.8 13.2 22.8 89.9-23.6 20.4z"/><path class="st5" d="M435.7 487.7s-5.2 7.6-12.4 7.2c-7.2-.4-13.2-4-12.4-14 .4-4.4 7.6-5.6 7.6-5.6s-4.8-8.8-3.2-16.8 12-19.8 18-22.2c6-2.4 18.8-2.6 18.8-2.6l-3.6 16.8-12.8 37.2z"/><path class="st0" d="M418.9 486.5s4.6.4 5-4c.4-4.4-3-7.2-5.4-7.2"/><path class="st2" d="M434.1 477.3c-10-2.4-14.4-13.6-7.6-24.8 6.8-11.2 22-9.2 22-9.2l-3.2 17.6s-1.2 18.8-11.2 16.4z"/><path class="st0" d="M426.5 452.5c-1.4 2.4-2.4 4.8-2.9 7.1 1.2 1.1 2.8 1.7 4.5 1.7 3.8 0 6.8-3.1 6.8-6.8 0-3-1.9-5.5-4.6-6.4-1.4 1.2-2.7 2.6-3.8 4.4z"/><path class="st1" d="M448.5 415.3s3.4 17.2-4.2 32.8-15.8 18-11 38.4c4.8 20.4 32.4 26.4 36 26 3.6-.4 40.3-36.4 40.3-36.4l-8.8-75.1-30.4-3.2-21.9 17.5z"/><path class="st4" d="M458.5 413.3s1.8 17.8-5 34.6-13.8 29-12.2 37.4 8.4 13.6 16.4 13.2 13.2-8.8 12.8-16.4c-.4-7.6-5.2-14-10.4-14.8 10.4-29.6 8.8-55.6 8.8-55.6l-10.4 1.6z"/><path class="st0" d="M457.6 487.3c-16.2-6.9-4.2-20.4 2.5-20"/><path class="st2" d="M405.3 401.9s-13.6 3.4-7.6 19.8c12.4 2.4 16-11.2 16-11.2s-6.4 13.6 2 21.6c12.4-5.2 11.6-16 11.6-16s.4 11.2 8 15.2c10.8-5.6 7.2-14.8 7.2-14.8l-20.8-11.6-16.4-3z"/><path class="st0" d="m402.9 412.9 6.5-8.7M417.7 422.5l4.1-9.9M435 424.6l-.5-9.3"/><path d="M394.2 340.6c11.2 20.4 9.2 52 35.2 63.5 21.4 9.5 40.2 2.6 48.9-1.8l-6.9-6.6-11.2 1.6s-19.2 7.2-32-4.6-16.8-46.9-26.4-59.4c-9.6-12.4-20.4-16-27.2-16-2.3 0-4.4.5-6.4 1.3 7 2.6 18.6 8.6 26 22z" style="fill:#ff7300;stroke:#000;stroke-width:2.9976;stroke-linecap:round;stroke-linejoin:round;stroke-miterlimit:10"/><path class="st3" d="M429.3 404.2c-26-11.6-24-43.2-35.2-63.5-7.4-13.4-18.9-19.4-25.9-21.9-3.7 1.6-6.1 4.3-5 6.7 1.6 3.6 17 8 23.4 16 19.6 23.2.8 50.8 27.2 69.1 23.6 16 61.2-.4 61.2-.4l4.8-6.4-1.5-1.4c-8.8 4.4-27.6 11.3-49 1.8z"/><path class="st5" d="M588.8 260.6s-3.2-32.4-28-54.4-34.4-24.4-39.1-64c-.4-4-7.2-1.2-8.8 4s-2.4 37.6 6.8 49.9c-12-9.2-22.6-21-25-29.8-2.4-8.8-8.2-31.4-11.4-33.8-3.2-2.4-7.6-1.2-8.8 3.6-1.2 4.8.8 33.6 14.8 53.2-10.4-10-21.6-9.8-33.2-17.8-26-20.2-25.2-30.2-26.8-30.6s-5.5 6.1-4.4 12.4c5.2 28.8 43.2 43.2 50.8 51.6-15.2-8.4-29.6-6.8-43.9-6.8-40 .4-43.9-14-45.6-11.6-2.4 6.8 1 20.6 9.8 25 8.8 4.4 19.8 2.6 40.2 3.8 20.4 1.2 38.4 7.6 46.3 16.4-14.4-8.4-28-10.2-46.3-9-18.3 1.2-31.6 10.2-47.2 11.8-15.6 1.6-26-3.6-26-3.6s1.6 10.2 7.6 13c6 2.8 17.2 5 26.8 3.8s26-7.2 44.8-7.6c38.4 1.6 42.7 21.6 42.7 21.6l4.8 12 99.1-13.1z"/><path class="st0" d="M482.5 231.9c14.4 10.4 13.2 25.2 13.2 25.2M475.7 205.1c42.4 22.8 40.8 43.9 40.8 43.9M489.3 189.5c42.7 31.6 47.2 65.9 47.2 65.9M519.7 196.3c12.8 18 33.6 28 38.8 52.8"/><circle class="st1" cx="524" cy="373.8" r="9.6"/><path class="st0" d="M479.1 483.3c-.7 2.5-1.4 4.8-2.2 7.1 16.3 7.9 46 11.6 54.4 12.6l-.4-7.4c-10-1.6-39.8-6.4-51.8-12.3z"/><path class="st5" d="M530 478.1s-12.5-42.9-23.6-43.6c-9.9-.6-18 40.9-25.6 42.4-.5 2.2-1.1 4.3-1.7 6.4 11.9 5.9 41.7 10.7 51.8 12.3l-.9-17.5z"/><circle class="st2" cx="357.1" cy="363.9" r="9.2"/><circle class="st0" cx="357.1" cy="363.9" r="3.4"/><circle class="st2" cx="377.8" cy="343.8" r="9.2"/><circle class="st0" cx="377.8" cy="343.8" r="3.4"/><circle class="st2" cx="358.6" cy="393.4" r="9.2"/><circle class="st0" cx="358.6" cy="393.4" r="3.4"/><circle class="st2" cx="386.2" cy="407.9" r="8.2"/><circle class="st0" cx="386.2" cy="407.9" r="3.1"/><path class="st1" d="M552.2 545.4c1.8-3.8 31.8-13 36.2-13 4.4 0 6 6 4.8 9.2s-22.8 10-22.8 10-20-2.3-18.2-6.2z"/><path class="st2" d="M487.3 602.4c0-3.3-7.2-4.1-11.6-4.3-.8 1.5-1.3 3.3-1.3 5.2 0 .8.1 1.6.2 2.3 4.6.2 12.7.2 12.7-3.2z"/><path class="st2" d="M484.9 592.6c-4 0-7.4 2.2-9.2 5.5 4.5.2 11.6 1 11.6 4.3 0 3.4-8 3.4-12.7 3.1 1 4.7 5.3 8.3 10.3 8.3 5.9 0 10.6-4.7 10.6-10.6 0-5.9-4.8-10.6-10.6-10.6z"/><path class="st5" d="M450.5 548.8c-7.2 2-19.6 28-11.2 43.6 5.3 10 14.6 16.3 21.9 18.7 10.9-15 17.7-46.7 19.7-57.4-9-3.1-25.1-6.3-30.4-4.9z"/><path class="st1" d="M487.3 556.8c-.4-.9-2.9-2-6.2-3.2-2.1 10.7-8.9 42.4-19.7 57.4 4.2 1.3 7.7 1.4 9.6.1 5.1-3.5 17.9-51.1 16.3-54.3z"/><path class="st3" d="M607.2 599.3v-.1c-2.8-18-5.6-28-10-31.6-4.4-3.6-18.4-7.6-18.4-7.6l-23.6 4v16.4s11.1 13.4 13.8 23c20.8.9 33.1-2.3 38.2-4.1z"/><path class="st1" d="M573.5 638.6c.8 8.6 1.3 15.3 1.3 15.3s17.6-13.2 43.2-4.8c-1.3-4.4-2.5-9.2-3.7-14.2-6.5-1.4-21-3.2-40.8 3.7z"/><path class="st5" d="M614.3 634.9c-2.6-11-5.2-23.3-7.1-35.6-5.1 1.8-17.4 5-38.1 4.1.1.2.1.4.2.6 1.4 5.7 3.1 22.1 4.3 34.6 19.7-6.9 34.2-5.1 40.7-3.7z"/><path class="st3" d="m575.2 471.3 35.6 23.6 11.6 12-9.6 22.3-20.4-5.5-27.6-38.4z"/><path class="st2" d="M489.6 495.2c-4.6-1.4-8.9-2.9-12.6-4.7-1.9 5.8-3.8 11.3-5.8 16.4l12.5 4.4 5.9-16.1z"/><path class="st2" d="M531.4 503c-6.5-.7-25.8-3.1-41.8-7.9l-5.9 16.1-12.5-4.4c-9.9 25.2-20.7 41.9-20.7 41.9l44.4 9.6 38.4-21.2-1.9-34.1z"/><path class="st4" d="m540 532-.4-17.9 13.6 1.2V532h11.2v-17.9l19.2-.8.4 19.5 17.6-4.8-4-17.5-46-6.5-48.4-13.1-10.8 40.4 41.2 3.6zM776.3 510l45.5-9.9 3.2 50.3-42 4.4-16.8-16.3z"/><path class="st2" d="m588.8 428.9-.4 9.6-16 6.4-5.6-10 2.4-6z"/><path class="st0" d="m578.8 427.3 1.2 13.6"/><circle class="st4" cx="584.2" cy="661.3" r="11"/><circle class="st4" cx="615.9" cy="660" r="9.8"/><path class="st1" d="M694.7 665.9c-1.1.7-2.3 1.3-3.6 1.8-9.9 4.2-26.4-.3-26.4-.3l-14.4 5.7 4.2 17.4s29.1-9 36.9-10.5c1.7-.4 3.7-.8 5.6-1.4.2-3 .2-8.8-2.3-12.7z"/><path class="st3" d="M711.2 654.2c-2.9.2-8.5 7.1-16.5 11.7 2.5 3.8 2.5 9.7 2.3 12.7 6.7-2 14-5.8 17.5-11.8 4.5-7.8 0-12.9-3.3-12.6z"/><path class="st1" d="M661.7 656c-3.5 4-9.3 9.4-18.5 15.3.9 3.3 3 9.6 3 9.6s16.2-4.2 24.3-13.5c.6-.7 1.1-1.4 1.5-2.1-2.2-2.4-6.3-6.9-10.3-9.3z"/><path class="st3" d="M671.9 665.3c4.8-8.4-5.7-15.6-5.7-15.6s-1.2 2.4-4.6 6.3c4.1 2.4 8.2 6.9 10.3 9.3z"/><path d="M726.1 742.4c-5.2 5.7-10.2 7.8-12.9 8.6-.3 6.8-1.8 12.6-2.6 17.5 10.8-8.1 9.3-15.3 9.3-15.3s12.6 10.2 19.5-1.5c-5.3-1.7-9.7-5.1-13.3-9.3z" style="fill:#ffce00"/><path class="st7" d="M726.1 742.4c-2.9-3.5-5.2-7.5-6.8-11.4-3.6-8.7-6.3-15-9.3-18.3-3-3.3-6.9-6.9-6.9-6.9l-3.9 10.5s8.4 3.3 12.3 18c1.6 6.2 2 11.7 1.7 16.7 2.8-.8 7.8-2.9 12.9-8.6z"/><path class="st5" d="M596.6 500.9c-18.2-22.7-26-41.6-26-41.6s-36.2-23.6-37.8-23.6-11.2 2.8-11.2 2.8l-2.8 52.3 3.5 10.5c29.6 6.9 62.8 1.8 74.3-.4z"/><path class="st1" d="M596.6 500.9c-11.5 2.2-44.7 7.3-74.2.4l3.7 11.1s37.2 11.2 77.9-2.8c-2.7-2.9-5.1-5.8-7.4-8.7z"/><path class="st4" d="M501.3 480.5c-6.7 30.8-6.7 30.5-8.8 50.8 12-23.6 13.2-36 13.2-36s-3.6 25.2.4 37.6c6.8-15.2 7.2-36.4 7.2-36.4s-.4 29.2 4 36.8c2.8-14.4 4.6-36.2 4.6-36.2s-.6 26.6 11 36.6c-5.2-28.4-6-52.3-6-52.3l-25.6-.9z"/><path class="st2" d="M503.5 496.9c3.1.7 4.6-9.2 4.6-9.2s1.4 10.8 4.2 10.4c2.8-.4 5-11.2 5-11.2s1 10.7 4.6 10.2c6.6-1 5.4-11 5-15.8v-.1l-25-.3c-2.6 2.8-3.8 14.8 1.6 16z"/><path class="st5" d="M528.1 440.1c-2.8-12.4-7.2-22.8-7.2-22.8l-15.6.8s-7.2 6-2.8 16c1.6 3.7 2 10.9 1.8 18.3l22.5 1.9c.2-5.6.6-10.8 1.3-14.2z"/><path class="st1" d="m526.7 454.4-22.5-1.9c-.3 12.5-2.2 26-2.2 26s-.1 1-.2 2.5l25 .3c-.2-3.3-.5-15.9-.1-26.9z"/><path class="st2" d="M607.6 279s2.4-28.8-6.8-34.8c-7.6 3.2-12.4 17.6-12.4 17.6s-4.4-10.4-9.2-15.6c-6 4.4-8.8 17.6-8.8 17.6s-5.2-14.8-10.8-18.8c-6.8 6.4-9.6 19.2-9.6 19.2s-4.8-14.4-11.6-18c-7.6 5.6-9.6 20.8-9.6 20.8s-6.8-17.2-13.2-19.2c-8.8 5.6-11.2 18.4-11.2 18.4s-4.4-12-13.6-14.4c-8.4 3.6-5.6 12-5.6 12s-6-8.4-16.4-8c-9.6 12.4-5.6 34.4-5.6 34.4l23.6 67.6 46.8-13.2 61.2-9.6-2-40 14.8-16z"/><path class="st0" d="m470.9 262.7 2 16.8"/><path class="st11" d="M490 291.4c0-.2 0-.5.1-.7-.1.4-.2.6-.1.7z"/><path class="st3" d="M479.9 307c-.8-15.6 3.8-22.8 10.6-26.4-8 9.2-.2 11-.5 10.7-.1 3.5 4.3 7.9 7.3 7.9 3.2 0 14-8.2 14-14.2s-3.6-15.2-8-18.8c-4.4-3.6-14-4.8-21.6-2.4s-17.4 13.4-19 37.8c-1.6 24.4 16.2 53.8 16.2 53.8l16.5 2.3.7-4.7s-15.4-30.4-16.2-46z"/><path class="st1" d="M490 291.4c.3.3-.3-4 3.7-5.5 3.2-1.2-.8-6-3.2-5.2-6.8 3.6-11.4 10.8-10.6 26.4.8 15.6 16.2 46 16.2 46l-.7 4.7 3.1.4 5.6-10.4s-14.2-23.6-16.2-34.8c-2-11.2-1-17.8 2.2-21.8-.1.3-.1 0-.1.2z"/><path class="st2" d="M598.8 295.4s11.2-9.7 15.6-9.2c3.6.4 11.7 10.6-2.4 20-4.4 2-14.4 0-14.4 0l1.2-10.8z"/><path class="st0" d="m514.9 259.9 1.9 23.5M538.4 256.7l.4 22.8M559.7 255.5l-.5 23.5M578 254.6l.4 21.3M598.8 253.9l-1.6 22.3M588.4 261.8c-2 9.6.8 27.2.8 27.2M570.8 263c-.4 5.2-.4 14.4-.4 14.4M550.1 264.2l.7 16.5M528.8 267.1l.5 13.6M522.9 287.6l1.4 10.1M528.5 286.8l1.3 10.2M536 285.8l1.4 10.2M543.5 284.9l1.3 10.2M550.7 284l1.3 10.1M555.8 283.3l1.3 9.5M561 282.6l1.3 10.2M566.5 281.9l1.4 10.2M518.2 288.2l1.3 10.1M513 288.8l1.3 10.2M505.9 320.4l2.3 12.7M511 319.7l2.3 12.6M516.1 318.9l2.4 12.7M520.9 318.2l2.3 12.6M525.6 317.5l2.3 12.6M530.8 316.7l2.3 12.6M535.1 316.1l2.3 12.6M540.2 315.3l2.4 12.7M544.6 314.7l2.3 12.6M550.9 313.7l2.3 12.6M557.7 312.7l2.3 12.6M565.2 311.6l2.2 12.7M571.9 310.6l2.3 12.6M577.8 309.7l2.3 12.6M501.9 321l2.3 12.7M497.5 321.7l2.4 12.6M610.6 291.5l6.8-1.2M610.8 295.1l8.4-.9M610.4 298.7h7.6M606.8 303l8.2.6"/><path class="st4" d="M583.2 326.6s10.4-25.2-14-49.6c15.2 2 20 12 20 12s7.6-16.8 22-11.2c-19.6 27.6-10.8 49.9-10.8 49.9l-12 9.6-5.2-10.7z"/><path class="st3" d="m598.4 354.2-46.8-4.8-24.7 27.2 1.4 9.5 68.5-.3 2.8-7.7z"/><path class="st1" d="m531.2 405.7 23.2 10.8 33.2 1.2 8.8-12.3.4-19.6-68.5.3z"/><path class="st2" d="M570.8 391.3c10.4 7.6 22-1.2 22-1.2s-12.8-6.3-22 1.2z"/><path class="st1" d="M594.4 422.5s.4 6.6-2.4 8.2-9.6-3-21.6 3c-.4 1.2 0 6.4 2.8 6.4s12.4-5.2 15.2-4c2.8 1.2 2.8 4 2.4 6.4-.4 2.4-12.8 10-12.8 10l-30.8-11.2-1.6-16.4 4.4-8.8 37.6 1.6 6.8 4.8z"/><path class="st5" d="m526.3 424.6-.6 1.9s-.7 2.4.2 5.5c12.1-.2 25.4 5.6 25.4 5.6s.8-10.8.4-17.2c-8.8 5.9-20.3 5-25.4 4.2z"/><path class="st3" d="M525.9 432c.6 2 1.9 4.3 4.6 6.5 6.4 3.6 12 12 16 14.4 4 2.4 10.8 5.2 19.6 6.8 8.8 1.6 15.2 2 16.4-1.2 1.2-3.2-1.6-7.6-3.2-8-9.6-.4-13-5.8-15-7.4-2-1.6-13-5.4-13-5.4s-13.4-5.9-25.4-5.7zM547.2 410.2l-17.6 3.6-3.4 10.9c5.1.8 16.6 1.7 25.4-4.1 2.9.7 12.1 1.2 23.3 1.6l.2-10.3c-17.1-.8-27.9-1.7-27.9-1.7z"/><path class="st5" d="M626.8 413.3c-2.8.4-22.4-.4-43.9-1.2-2.7-.1-5.2-.2-7.7-.3l-.2 10.3c21.5.8 49.9 1 52.5.8 3.9-.4 2.1-10-.7-9.6z"/><circle cx="580.8" cy="391" r="3"/><path class="st1" d="M518.9 424.1c1.6 3.2 1.6 8.8 2.8 12.4 1.2 3.6 5.2 6.8 8 3.6 2.8-3.2-6.8-12 2.8-21.2 4.4-3.2 6.8-4.4 8.4-5.2 2.4 2.8 10 .4 10.8-7.6 0-3.6-3.2-6.4-8-8-5.2-7.2-14-18.8-14-18.8l-21.6 8-2.8 22 1.6 10s10.4 1.7 12 4.8z"/><path class="st0" d="M540.8 413.8c-3.2-2-1.2-6-1.2-6"/><path class="st4" d="M594 366.6s1.2 10.6 5.6 13.4c2.8 1.8 4.8 3 9.2.6-6.4-5.2-6.8-14.8-6.8-14.8s4 9.6 11.6 6c-6.4-11.2-3.2-17.6-3.2-17.6l-56.8-11.6-53.5 17.2-8.8 32s0 24.8-2.4 29.6c-2.4 4.8-8.2 6.8-9.8 8.4-1.6 1.6-.8 4.6 2 4.6s9.4-1.8 13.8-8.2c-8.4 23.6-20.4 26.4-23.2 29.6-2.8 3.2-1.6 6 2 5.6 3.6-.4 9.2-3.2 15.2-9.6-2.4 15.2-10.4 20.8-11.2 24-.8 3.2.8 6 4.8 4.4s13.2-15.4 17.2-24.6c4-9.2 2.8-21.4 2.8-21.4s3.6 4.4 9.2 2.4c1.6-1.6-1.6-11.2.4-12.8 2-1.6 8.5 1.5 6.8.4-1.2-.8-3.8-5.4-3-10.2s5-7.4 3.8-10.6-7.6-10.2-1.2-13.4c6.4-3.2 9.4 8.2 9.4 8.2s9.4-3.2 15.8 0c1.2-4 3.2-5.6 3.2-5.6s4.6-2.6 4.2-5.8c-.4-3.2.6-3.2-2.6-4-3.2-.8-6 1-6 1s-1.6-8.4 8-17.6c9.6-9.2 16.8-10.4 16.8-10.4s-8.4 7.2-8.8 20.8c5.2-7.6 12.2-10.8 21.8-11.6 9.3-.8 13.7 1.6 13.7 1.6z"/><path class="st0" d="M602 365.8c-.8-2-.6-5.6-.6-5.6M594 366.6c-.4-1.2 0-6 0-6M546.8 392.5s-6.8 1.6-9.6-2.4-7.2-13.2 4.4-26.4"/><path class="st1" d="M509.3 363c26-11.6 55.6-16 74.3-14 18.8 2 31.6 10.4 31.6 10.4s2-3 1.2-5.8-8.4-5-8.4-5 6.4-1.8 6.8-5.8c.4-4-12.4-3-12.4-3s12.6-1 12.6-5.4-7.4-4.6-7.4-4.6 5.6-4.8 5.2-14c-9.6 10-25.6 15.2-25.6 15.2s-13.2-5.4-40.8.2-49.9 19.4-49.9 19.4 3.6 14.8 12.8 12.4z"/><path class="st0" d="M608 348.6s-4-1.6-10.4-2M602.4 339.8l-4.4.2M607.6 329.8l-9.2 3.6"/><path class="st11" d="M530.3 335.6c-2.8.8-5.3 1.6-7.6 2.5 1.1 1.6 2.2 3.6 2.8 6.1.8 3.2.8 6.4.2 9.2 2.2-.7 4.7-1.4 7.3-2.1-1.1-2-2-4.3-2.6-7.1-.6-3.2-.5-6-.1-8.6zM573 328.4c-1.4.1-3 .2-4.6.3.9 2.2 1.6 4.6 1.9 7.4.3 3.4-.1 6.2-.9 8.8 1.4-.1 2.7-.2 3.9-.3-.7-2.5-1.3-5.3-1.3-8.5 0-2.9.4-5.4 1-7.7zM553 330.5c-1.3.2-2.6.4-4 .7-.8.1-1.6.3-2.5.5 1 1.9 1.9 4.2 2.6 7 .9 3.4 1 6.4.7 9.1.5-.1 1-.2 1.6-.3 1.3-.2 2.6-.4 3.8-.7-1.1-2.6-2.1-5.8-2.4-9.8-.2-2.4-.1-4.5.2-6.5z"/><path class="st1" d="M586.4 328.5c-2.7-6.6-7.2-11.1-7.2-11.1s-4.3 3.5-6.2 11c5.7-.2 10.2-.1 13.4.1z"/><path class="st4" d="M588.4 337.4c-.1-3.2-.9-6.2-2-8.9-3.2-.2-7.7-.3-13.4 0-.6 2.2-1 4.8-1 7.7 0 3.2.5 6 1.3 8.5 7.9-.5 12.2-.1 14.1.2.7-2.3 1.1-4.8 1-7.5z"/><path class="st1" d="M573.3 344.6c2.2 7.3 6.8 11.2 6.8 11.2s5-4.1 7.3-11c-1.9-.3-6.3-.6-14.1-.2zM560 317.8s-5.8 3.5-7.1 12.7c5.7-.9 10.9-1.5 15.4-1.8-2.9-7.3-8.3-10.9-8.3-10.9z"/><path class="st4" d="M570.2 336.2c-.3-2.8-1-5.3-1.9-7.4-4.6.4-9.7.9-15.4 1.8-.3 1.9-.4 4.1-.1 6.5.4 4 1.3 7.2 2.4 9.8 5.5-.8 10.1-1.4 14.1-1.8.8-2.6 1.3-5.6.9-8.9z"/><path class="st1" d="M562.4 355.4s4.8-3.7 6.9-10.4c-4 .4-8.6 1-14.1 1.8 3 6.3 7.2 8.6 7.2 8.6zM543.6 360.6s5.2-4.7 6.2-12.9c-6.4 1.1-12.1 2.4-16.8 3.7 4.1 7.4 10.6 9.2 10.6 9.2zM537.6 323s-5.9 4.4-7.3 12.6c4.9-1.4 10.4-2.8 16.3-4-3.9-7.3-9-8.6-9-8.6z"/><path class="st4" d="M549.2 338.6c-.7-2.8-1.7-5-2.6-7-5.9 1.1-11.4 2.5-16.3 4-.5 2.5-.5 5.3.1 8.6.6 2.8 1.5 5.2 2.6 7.1 4.9-1.3 10.4-2.5 16.8-3.7.4-2.6.3-5.7-.6-9zM525.5 344.2c-.7-2.5-1.6-4.5-2.8-6.1-7 2.4-12.2 4.7-15.2 6.2-.2 1.8-.2 3.8.2 5.9.7 3.5 2.2 6.4 4 8.5 2.8-1.3 7.4-3.2 14-5.3.5-2.8.6-6-.2-9.2z"/><path class="st1" d="M520.9 365s3.7-4.9 4.9-11.6c-6.6 2-11.2 4-14 5.3 3.8 4.6 9.1 6.3 9.1 6.3zM513.2 331.8s-5 4.7-5.8 12.5c3-1.4 8.3-3.8 15.2-6.2-3.8-5.3-9.4-6.3-9.4-6.3z"/><path class="st4" d="M475.3 387s-8-3.6-13.2.8c-5.2 4.4-6 19.6 12.8 18 1.3-4.4 5.9-11.9 9.4-17l-9-1.8z"/><path class="st5" d="m502.9 392.5-9.7-2 .7 20c2.4 4 13.4 5 14.2-7.4 0-5.5-5.2-10.6-5.2-10.6z"/><path class="st1" d="M484.3 388.8c-3.4 5.1-8.2 12.5-9.4 17-3.2 5.6-.8 12.8 7.6 16.4 8.4 3.6 10.2-5.2 11.4-11.6l-.7-20-8.9-1.8z"/><circle class="st5" cx="493.3" cy="343.2" r="10"/><ellipse class="st1" cx="492.3" cy="374" rx="23.6" ry="23.8"/><ellipse class="st4" cx="492.3" cy="374.2" rx="15.8" ry="16"/><ellipse class="st2" cx="492.3" cy="374.8" rx="8.9" ry="9"/><path class="st4" d="M449.7 347.8c8 22.4 39.1 23.2 42.7 24 3.6.8 3.2 6.4-.4 6-3.6-.4-18-3.6-48.7 9.2 3.6-10.8 18.4-14.8 18.4-14.8s-19.6-8.4-12-24.4z"/><path class="st1" d="M596.8 385.8c.4 12 8.4 20.4 7.6 24-.8 3.6-16.4 4-18.4 3.2-2-.8-3.6-8.4-.8-10.4s5.6 0 5.6 0"/><circle class="st2" cx="503.5" cy="306.6" r="11"/><circle class="st2" cx="536.5" cy="299.9" r="11"/><circle class="st2" cx="567.2" cy="297" r="11"/><path class="st0" d="m557.6 291.8 3.3 7.6M563.6 287.6l1.2 8.7M570 286.8l-.4 7.8M575.8 291.5l-2 6.3M527.3 295.4l3.2 7.6M533.3 291.2l1.2 8.7M539.6 290.4l-.3 7.8M545.4 295.1l-1.9 6.3M494.9 302.6l3.2 7.6M500.9 298.4l1.2 8.6M507.3 297.6l-.4 7.8M512.5 301.6l-2 6.4"/><path class="st1" d="M529.3 545.2c-13.6 28.4-22.8 67.6-25.2 68.3-11.6 2-15.6-15.6-9.2-26.8-6.4 5.2-12.8 10.4-16 10.4s-6.8-5.6-5.6-9.6C482.5 572.3 522 540 522 540s5.6-1.2 7.3 5.2z"/><path class="st0" d="m494.9 586.8 6.5-10"/><path class="st1" d="M530 542.8s2 56.8-5.6 69.5c15.6 13.2 18-7.2 18-7.2s4.4 14 23.6 3.6c-22-11.6-19.2-58-19.2-58l-5.4-9.2-4 .4-7.4.9z"/><path class="st2" d="M523.7 582c25.2 3.1 33.3-15.6 35.4-21.5-2.8-1.7-6.2-1.7-6.2-1.7s-7.2 20.4-27.6 16c-20.4-4.4-14.4-27.2-14.4-27.2s-3.7-.3-7.7 0c-1.6 7.8-4.3 31.4 20.5 34.4z"/><path class="st2" d="M559 560.5c-2.1 5.9-10.2 24.5-35.4 21.5-24.7-3-22.1-26.6-20.6-34.4-4.3.3-8.8 1.3-9.8 4-2 5.2-6.4 31.2 27.6 38.8s40-12.4 41.4-22c.6-4.2-1-6.5-3.2-7.9z"/><path class="st1" d="M484.9 539.1c-4.2 8.2 3.2 14.6 14.8 13.4 11.6-1.2 22.4-12.4 22.4-12.4s5.6-3.2 1.6-6.4c-18.8-7.7-34.6-2.9-38.8 5.4zM562.2 568.4c-7.2-1.6-21.8-18-22.6-24.4-.8-6.4 2.2-4.4 2.2-4.4s26.2 6.2 31.8 10.6c5.6 4.4 8 12.6 5.6 15.4-2.4 2.8-9.8 4.4-17 2.8z"/><path class="st0" d="M491.3 541.2c9.6-6 22.4-4.8 22.4-4.8"/><path class="st1" d="M540 532c2 1.2 3.4 4.4 1.4 9.6-2 5.2-12.6 6-17 2.4s-4-8.8-.8-10.4c3.3-1.6 14.5-2.8 16.4-1.6z"/><path class="st5" d="M366.6 585.6s-34.4 18-54 19.2c-19.6 1.2-61.2-17.6-62.4-15.6-1.2 2 9.6 27.6 62.8 30.4s32 1.6 32 1.6l20.4-22 1.2-13.6z"/><path class="st5" d="m367.4 609.2-20.4-4s-5.2 12.8-44.8 15.6-49.6-6.8-60.4-11.6c-4.6 18 32 30 56.4 30.4 24.4.4 35.6-4 35.6-4s-16 14.4-43.2 16c-27.2 1.6-44.8-8-48.4-12 .4 17.2 23.2 25.2 44.8 26 21.6.8 25.6-1.6 31.2-2.8-25.6 18-46.3 49.6-47.5 54.4-1.2 4.8 8.4 4.4 8.4 4.4s15.6-21.4 28.4-30.2c12.8-8.8 21.6-9.8 28-11.8-28 26.4-36 40.8-37.9 47.2-2 6.4 4.8 6.4 4.8 6.4s11.6-24.4 34.4-36.8c22.8-12.4 37.9-17.6 44.8-22.4-2.8 5.6-20.8 18.2-39.1 30.2-18.4 12-26.4 31-23.6 43 6.4-4 11.6-19.8 24.8-23.8 13.2-4 33.6-13.8 48.7-33 15.2-19.2 15.2-50.4 15.2-50.4l-25.2-24-15-6.8z"/><path class="st0" d="M333.8 635.6c9.6-2.4 21.2-11.2 21.2-11.2M318.2 662.7c10.8-2.8 25.6-11.6 40.3-22.8M381.4 674c6.8-8.4 10.8-23.6 12-30.4M335.4 679.5c6-4.4 35.6-12 45.1-41.5"/><path class="st4" d="M347 605.2c7.6-5.6 16.4-15.6 16.4-15.6l52 21.2-8 29.2s-51.6-20.8-60.4-34.8z"/><path class="st1" d="M377.9 575.7s-14.2 9.8-14.6 13.8c-.4 4 .4 8.4 9.6 6.4-3.2 6 .8 11.6 7.2 6.4-1.2 4 2.4 8.8 9.6 5.2.4 4 3.2 8.4 7.6 4.4.8 6.4 5.2 10 9.6 5.2.8 5.6 8.4 4 10.4-.4s4.8-17.6 4.8-17.6l-12.8-20-31.4-3.4z"/><path class="st0" d="m373 596 14.6-15.6M380.2 602.4l12.2-16.8M389.7 607.6l8.9-17.2M397.4 612l8.8-18.8M407 617.2l8.3-20.4"/><path class="st5" d="M418.9 564.8c8.7 4.5 15.8 3.6 18.8 2.9 2.3-10 4.1-18.6 4-20.1-.4-3.6-14.4-11.2-18-10.8-1.5.2-9.8 6.5-18.9 14.1.6 2.3 3.3 8.3 14.1 13.9z"/><path class="st1" d="M418.9 564.8c-10.9-5.6-13.5-11.6-14.2-13.8-6.1 5.1-12.6 10.7-17.7 15.3 2 6.2 7.1 16.4 18.6 20.9 11.4 4.5 20.5 5.5 25.4 5.6 2.1-6.8 4.6-16.5 6.7-25.2-3 .8-10.1 1.7-18.8-2.8z"/><path class="st5" d="M387.1 566.3c-5.2 4.8-8.9 8.5-9.1 9.5-.6 3.4 3 5.9 7.4 6.2-.4 2.8 2.8 7.6 8 7.6 1.2 4 5.6 6.4 10 5.2 2 3.2 6.4 3.6 9.2 2.4 1.6 2.4 6.4 3.2 9.6 2 .4 2 2.4 3.2 5.2 2.8.7-.1 2.2-3.8 3.8-9.1-4.9-.2-14-1.1-25.4-5.6-11.6-4.7-16.7-14.8-18.7-21z"/><ellipse class="st1" cx="601.5" cy="694.1" rx="25.8" ry="24.3"/><ellipse class="st2" cx="601.5" cy="694" rx="17" ry="16.1"/><circle class="st4" cx="601.2" cy="694.3" r="9.1"/><path class="st0" d="M699.2 716.3s8.4 3.3 12.3 18c3.9 14.7.6 25.8-.9 34.2 10.8-8.1 9.3-15.3 9.3-15.3s12.6 10.2 19.5-1.5c-9.6-3-16.5-12-20.1-20.7s-6.3-15-9.3-18.3c-3-3.3-6.9-6.9-6.9-6.9l-3.9 10.5z"/><path class="st1" d="M653.4 704.3s13.5 2.1 24.6 1.8c11.1-.3-1.2-10.8-1.2-10.8l-25.2.9 1.8 8.1z"/><circle class="st2" cx="674.3" cy="734.8" r="8.9"/><circle class="st0" cx="674.3" cy="734.8" r="3.3"/><circle class="st2" cx="652.2" cy="757.3" r="8.9"/><circle class="st0" cx="652.2" cy="757.3" r="3.3"/><path class="st3" d="M695 682.4c10.8 2.4 25.8 16.2 26.4 20.4.6 4.2-2.1 6.6-5.4 6.6-.3 3.9-3.9 5.4-6 5.4s-3.6 0-4.5-1.2c-2.7 4.5-15.3 7.2-21.6 3.6-6.3-3.6-8.1-13.5-8.4-16.8-3.9-.9-25.8 1.2-29.7.3-4.8-11.4 2.1-19.8 2.1-19.8s36.3-.9 47.1 1.5z"/><path class="st0" d="M712.1 707.6s.9 1.8 3.9 1.8M698.9 710s2.7.6 6.6 3.6"/><path class="st2" d="M692.8 695.6c-2.7-1.1-5-.6-5-.6s-.8 6.2 6.1 7.6c-.5-1.6-1.1-4-1.1-7z"/><path class="st2" d="M699.2 702.8c-1.7-4.3-4.2-6.3-6.4-7.2 0 3 .6 5.5 1.1 7 1.4.3 3.2.4 5.3.2z"/><path class="st5" d="M638.4 724.1c.3-.9 5.1-11.7 5.1-11.7s6.3-4.8 12-2.7 16.5 11.1 14.1 16.5c-2.4 5.4-12.6 7.5-14.1 5.1 1.2 3 2.4 10.2 1.2 13.8s-4.2 6-9.6 5.7-7.5-15.6-7.5-15.6l-1.2-11.1z"/><path class="st0" d="M643.5 712.4c1.8 7.8 8.4 16.8 12 18.9M651 745.4c-5.1-6-8.6-21.1-8.6-21.1M651 712.7c2.4 7.2 12.6 14.1 12.6 14.1"/><circle class="st2" cx="637.2" cy="662" r="9"/><circle class="st2" cx="647.1" cy="683.6" r="9"/><circle class="st2" cx="648.3" cy="707.3" r="9"/><circle class="st2" cx="634.8" cy="728.9" r="9"/><circle class="st2" cx="615" cy="736.1" r="9"/><circle class="st2" cx="588.3" cy="736.1" r="9"/><circle class="st2" cx="564.3" cy="715.1" r="9"/><path class="st0" d="m560 713.9-.3 7.2M564.3 715.1v9M568.2 713.9l1.6 7.6M583.6 733.9l-1.2 6.8M588.4 735.1l-.4 9.2M592.4 734.7l1.2 7.2M611.2 735.5l.8 7.6M615.2 735.1l2 8M618.8 733.9l2.8 5.2M631 729.7l2.8 7.4M634.8 728.9l4.2 6.4M636.8 725.9l5.9 3.6M646.8 710.7l7.2 1.6M647.5 706.9l8.4.8M647.5 703.5l6-1.6M647.5 687.5l6.6-.2M647.1 683.6l7-2.1M645.6 679.3l5.4-3M632.8 661.1l1.6-6.3M637.2 661.1l3.1-7.2M640.3 662.7l4.5-4.8M814.6 514.1l-38.3 7.6M816.2 527.7l-34.7 6M817.8 541.6l-32.4 4.1"/><path class="st2" d="m665.3 500.9-.1-44.4 37.1-.8 6 43.6z"/><path class="st0" d="m674.8 500.1.3-42.8"/><path class="st8" d="M642.3 568.8s-19.2 50.4-18.6 52.5c.6 2.1 8.7 9.9 8.7 9.9l19.2-54.6-9.3-7.8zM658.2 580.2l-10.5 61.5s3.9 4.8 12.9 1.2l7.8-59.1-10.2-3.6zM676.4 585.3l14.1 62.1s6.3 2.4 9.6-3.6l-12.9-59.7-10.8 1.2zM693.8 582.3l20.7 58.2s7.8-2.7 10.8-7.5c-3.3-10.2-21.3-54.3-21.3-54.3l-10.2 3.6z"/><circle class="st7" cx="627.9" cy="618.9" r="1.4"/><circle class="st7" cx="630.9" cy="622.8" r="1.4"/><circle class="st7" cx="633.6" cy="616.8" r="1.4"/><circle class="st7" cx="630" cy="613.8" r="1.4"/><circle class="st7" cx="631.8" cy="608.4" r="1.4"/><circle class="st7" cx="635.5" cy="610.8" r="1.4"/><circle class="st7" cx="637.5" cy="605.7" r="1.4"/><circle class="st7" cx="633.3" cy="603.6" r="1.4"/><circle class="st7" cx="635.7" cy="599.1" r="1.4"/><circle class="st7" cx="639.3" cy="600" r="1.4"/><circle class="st7" cx="640.8" cy="594.9" r="1.4"/><circle class="st7" cx="637.5" cy="592.8" r="1.4"/><circle class="st7" cx="639.6" cy="587.7" r="1.4"/><circle class="st7" cx="643.5" cy="589.2" r="1.4"/><circle class="st7" cx="645.3" cy="584.4" r="1.4"/><circle class="st7" cx="641.4" cy="582.6" r="1.4"/><circle class="st7" cx="642.9" cy="577.8" r="1.4"/><circle class="st7" cx="660.3" cy="587.7" r="1.4"/><circle class="st7" cx="664.4" cy="588.6" r="1.4"/><circle class="st7" cx="680.9" cy="591" r="1.4"/><circle class="st7" cx="685.1" cy="590.1" r="1.4"/><circle class="st7" cx="699.2" cy="587.7" r="1.4"/><circle class="st7" cx="703.7" cy="585.6" r="1.4"/><circle class="st7" cx="701" cy="592.8" r="1.4"/><circle class="st7" cx="705.5" cy="590.4" r="1.4"/><circle class="st7" cx="703.1" cy="597.6" r="1.4"/><circle class="st7" cx="707.9" cy="595.8" r="1.4"/><circle class="st7" cx="705.2" cy="602.7" r="1.4"/><circle class="st7" cx="709.8" cy="600.6" r="1.4"/><circle class="st7" cx="707.3" cy="608.1" r="1.4"/><circle class="st7" cx="712.1" cy="606" r="1.4"/><circle class="st7" cx="709.4" cy="614.1" r="1.4"/><circle class="st7" cx="714.2" cy="611.7" r="1.4"/><circle class="st7" cx="710.9" cy="619.8" r="1.4"/><circle class="st7" cx="715.7" cy="617.4" r="1.4"/><circle class="st7" cx="713.3" cy="624.6" r="1.4"/><circle class="st7" cx="717.8" cy="622.5" r="1.4"/><circle class="st7" cx="715.1" cy="630.5" r="1.4"/><circle class="st7" cx="719.9" cy="627.8" r="1.4"/><circle class="st7" cx="717.2" cy="634.7" r="1.4"/><circle class="st7" cx="721.1" cy="632.3" r="1.4"/><circle class="st7" cx="682.4" cy="596.6" r="1.4"/><circle class="st7" cx="686.9" cy="595.7" r="1.4"/><circle class="st7" cx="683.9" cy="602.1" r="1.4"/><circle class="st7" cx="688.1" cy="601.5" r="1.4"/><circle class="st7" cx="685.7" cy="607.5" r="1.4"/><circle class="st7" cx="689.6" cy="606.9" r="1.4"/><circle class="st7" cx="686.3" cy="612.6" r="1.4"/><circle class="st7" cx="690.8" cy="612.3" r="1.4"/><circle class="st7" cx="687.5" cy="618.6" r="1.4"/><circle class="st7" cx="692.3" cy="617.7" r="1.4"/><circle class="st7" cx="688.7" cy="624" r="1.4"/><circle class="st7" cx="690.2" cy="629.6" r="1.4"/><circle class="st7" cx="694.7" cy="629" r="1.4"/><circle class="st7" cx="691.2" cy="635.9" r="1.4"/><circle class="st7" cx="696.2" cy="634.7" r="1.4"/><circle class="st7" cx="692.3" cy="641.3" r="1.4"/><circle class="st7" cx="697.1" cy="640.4" r="1.4"/><circle class="st7" cx="692.9" cy="623.4" r="1.4"/><circle class="st7" cx="660" cy="592.2" r="1.4"/><circle class="st7" cx="663.8" cy="593.1" r="1.4"/><circle class="st7" cx="659.4" cy="597.6" r="1.4"/><circle class="st7" cx="663.2" cy="598.2" r="1.4"/><circle class="st7" cx="657.9" cy="603.7" r="1.4"/><circle class="st7" cx="662.3" cy="603.6" r="1.4"/><circle class="st7" cx="657" cy="609" r="1.4"/><circle class="st7" cx="661.5" cy="609" r="1.4"/><circle class="st7" cx="655.9" cy="615.3" r="1.4"/><circle class="st7" cx="660.3" cy="615.6" r="1.4"/><circle class="st7" cx="655.8" cy="621.9" r="1.4"/><circle class="st7" cx="659.4" cy="621.3" r="1.4"/><circle class="st7" cx="654.3" cy="627.5" r="1.4"/><circle class="st7" cx="658.8" cy="626.9" r="1.4"/><circle class="st7" cx="652.9" cy="633.8" r="1.4"/><circle class="st7" cx="657.9" cy="632.9" r="1.4"/><circle class="st7" cx="651.9" cy="639.5" r="1.4"/><circle class="st7" cx="656.7" cy="639.2" r="1.4"/><circle class="st7" cx="646.5" cy="579.3" r="1.4"/><path class="st0" d="M642.3 568.8s-19.2 50.4-18.6 52.5c.6 2.1 8.7 9.9 8.7 9.9l19.2-54.6-9.3-7.8zM658.2 580.2l-10.5 61.5s3.9 4.8 12.9 1.2l7.8-59.1-10.2-3.6zM676.4 585.3l14.1 62.1s6.3 2.4 9.6-3.6l-12.9-59.7-10.8 1.2zM693.8 582.3l20.7 58.2s7.8-2.7 10.8-7.5c-3.3-10.2-21.3-54.3-21.3-54.3l-10.2 3.6z"/><path class="st3" d="M734.3 508.1c6-6 28.8-16.4 34.4-15.6 5.6.8 7.6 7.6 0 12.4 8 0 18.8 4.8 7.6 16.8 9.6-.4 16 7.2 7.2 17.2 8 3.2 7.6 13.2 1.2 19.2 4 2.4 7.2 11.2-3.2 15.2-6 1.6-40.8 4.8-40.8 4.8s-12.4-64-6.4-70z"/><path class="st0" d="m743 525.9 33.3-4.2M746.6 543l36.9-4.2M751.4 560.7l33.3-2.7M755.9 567.6l26.5-2.2M753.5 551.2l26.5-3.1M754.3 534l25.3-3.6M747.5 519l26.4-6.1M751.1 504.5l16.3-6.4"/><path class="st2" d="M706.7 576.4s32 1.6 34 1.6c7.6-55.2-5.6-79.9-5.6-79.9l-29.6 12.8 1.2 65.5z"/><path class="st0" d="m745.7 511.2 22.9-6.3"/><circle class="st2" cx="614.8" cy="498.9" r="8.4"/><path class="st1" d="M626 494.1c-6.8 2.4-16.4 33.2-16.4 33.2l8.8 1.1 11.8-29.9c-1.6-1.6-3-3.1-4.2-4.4z"/><path class="st5" d="M649.2 515.7s-11.3-9.6-19-17.2l-11.8 29.9 20 2.5 10.8-15.2z"/><path class="st1" d="M600.8 525.3c-2 3.6 9.6 51.6 12.4 51.6 1 0 5.8-1.2 11.5-2.8-2.6-4.6-9.7-19.8-10.6-49.7-4.9.3-9.5.6-13.3.9z"/><path class="st2" d="M622.4 548.1c-2.5-11.4-2.6-19.5-2.4-24.1-2 .2-4 .3-5.9.4.8 29.9 8 45.1 10.6 49.7 1.7-.5 3.4-1 5.2-1.4-1.7-3.6-4.7-11.6-7.5-24.6z"/><path class="st4" d="M622.4 548.1c2.8 13.1 5.9 21 7.4 24.6 8.2-2.3 16.2-4.6 16.2-4.6l-3.2-46s-11 1-22.8 1.9c-.3 4.5-.1 12.7 2.4 24.1z"/><path class="st0" d="m602.8 539.2 25.6-3.4M604.8 549.3l26-4.5M608.8 565.2l23.6-6.4M713.6 514.5l21.9-8.4M714.2 518.7l21-6M719.3 521.7l16.8-3.3M718.7 526.8l17.7-2.7M719.3 532.5l16.5-1.8M720.2 537.9l17.1-.9M719.9 543l19.2-.6M718.7 548.4h20.1M717.2 553.5l21.3.3M716.6 558.9l21.6 1.5M715.4 563.7l21.6 2.1M712.1 568.8l24.3 2.1"/><ellipse class="st2" cx="679.1" cy="543.3" rx="46.2" ry="43.6"/><ellipse class="st0" cx="679.1" cy="542.8" rx="37.5" ry="35.4"/><circle class="st2" cx="721.1" cy="498.1" r="7.6"/><circle class="st2" cx="738.7" cy="505.7" r="8.8"/><circle class="st2" cx="742" cy="535.2" r="8.8"/><circle class="st2" cx="743.5" cy="560" r="8.8"/><circle class="st2" cx="735.1" cy="584" r="8.8"/><path class="st0" d="m718.4 495.4 2.4-4.8M722 496.9l4.8-2.7M723.2 500.7l4.2-.6M735.5 501.6l6.5-3.8M738.5 504.6l7.5-1.8M737.9 509.1l6.6.3M739.4 530.7l6.6-1.8M742.7 534l6.6.3M740.6 538.2l7.5 1.2M743 555.3l6.9-.3M744.5 559.8l6.9.9M742 563.4l7.3 2.4M732.2 587.4l6.6 3.6M734.6 583.8l7.4 3M736.1 580.5l6.6 1.2"/></svg>