<svg version="1.1" id="Calque_1" xmlns="http://www.w3.org/2000/svg" x="0" y="0" viewBox="0 0 900 900" style="enable-background:new 0 0 900 900" xml:space="preserve"><style>.st0{fill:#fff}.st1{fill:red}.st10,.st2,.st3,.st4,.st5,.st6,.st7,.st8,.st9{fill:none;stroke:#000;stroke-width:2.8293;stroke-linecap:round;stroke-linejoin:round}.st10,.st3,.st4,.st5,.st6,.st7,.st8,.st9{fill:red}.st10,.st4,.st5,.st6,.st7,.st8,.st9{fill:#ffce00}.st10,.st5,.st6,.st7,.st8,.st9{fill:#979b8f}.st10,.st6,.st7,.st8,.st9{fill:#fff}.st10,.st7,.st8,.st9{fill:#ff7300}.st10,.st8,.st9{fill:#bf9b00}.st10,.st9{fill:none;stroke:red}.st10{fill:#474747;stroke:#000}.st11{fill:none;stroke:#000;stroke-width:4.7156}</style><path id="XMLID_650_" class="st0" d="M652.4 574.9c.9 0 3.8-.1 7.1-.1l-.5-7.6c-3.9.8-7.3 1.6-7.9 2.4-1.8 1.6-1.3 5.3 1.3 5.3z"/><path id="XMLID_651_" class="st1" d="m673.9 574.4-1.2-9.7s-7.5 1.1-13.6 2.4l.5 7.6c6.2-.1 14.3-.3 14.3-.3z"/><path id="XMLID_665_" class="st0" d="m662.1 605.4-.1-8.2c-4.9.9-9.9 2-10.8 2.9-1.8 1.8-1.3 5.5 1.3 5.5 1.1-.1 5.2-.1 9.6-.2z"/><path id="XMLID_679_" class="st1" d="m674 605.1-1.2-9.7s-5.4.8-10.8 1.8l.1 8.2c5.7-.2 11.9-.3 11.9-.3z"/><path id="XMLID_680_" class="st0" d="M653.2 641.4c-1.8 1.8-1.3 5.5 1.3 5.5 1.1 0 5.2-.1 9.5-.2v-8.2c-4.9.9-9.9 2-10.8 2.9z"/><path id="XMLID_681_" class="st1" d="M674.9 636.9s-5.4.8-10.8 1.8v8.2c5.8-.1 11.9-.3 11.9-.3l-1.1-9.7z"/><path id="XMLID_682_" class="st0" d="M719.7 564.8c2.6 0 3.1-3.7 1.3-5.5-1-1-9.1-1.7-15.7-2v8.5c6.1-.4 13-1 14.4-1z"/><path id="XMLID_683_" class="st1" d="M705.6 557.5c-4.5-.2-8.3-.3-8.3-.3L696 567s4.4-.4 9.4-.8l.2-8.7z"/><path id="XMLID_684_" class="st1" d="M697.3 587.2 696 597s4.1-.4 8.9-.8v-8.6c-4.2-.3-7.6-.4-7.6-.4z"/><path id="XMLID_685_" class="st0" d="M704.7 587.3v8.6c6.1-.5 13.5-1.1 15-1.1 2.6 0 3.1-3.7 1.3-5.5-1.1-1-9.7-1.7-16.3-2z"/><path id="XMLID_686_" class="st1" d="m697.3 616.4-1.2 9.7s4-.4 8.6-.8l.6-8.6c-4.5-.2-8-.3-8-.3z"/><path id="XMLID_687_" class="st0" d="m705.1 616.5-.6 8.6c6.2-.6 13.7-1.1 15.2-1.1 2.6 0 3.1-3.7 1.3-5.5-1.1-1.1-9.4-1.6-15.9-2z"/><path id="XMLID_690_" class="st2" d="M652.4 574.9c.9 0 3.8-.1 7.1-.1 6.3-.1 14.3-.4 14.3-.4l-1.2-9.7s-7.5 1.1-13.6 2.4c-3.9.8-7.3 1.6-7.9 2.4-1.8 1.7-1.3 5.4 1.3 5.4z"/><path id="XMLID_691_" class="st2" d="M662.1 605.4c5.8-.1 11.9-.3 11.9-.3l-1.2-9.7s-5.4.8-10.8 1.8c-4.9.9-9.9 2-10.8 2.9-1.8 1.8-1.3 5.5 1.3 5.5 1.1-.1 5.2-.1 9.6-.2z"/><path id="XMLID_692_" class="st2" d="M654.4 646.9c1.1 0 5.2-.1 9.5-.2v-8.2c-5 .9-10 2.1-10.8 2.9-1.7 1.8-1.2 5.5 1.3 5.5z"/><path id="XMLID_693_" class="st2" d="M664.2 638.6v8.2c5.8-.1 11.9-.3 11.9-.3l-1.2-9.7c0 .1-5.3.9-10.7 1.8z"/><path id="XMLID_694_" class="st2" d="M705.6 565.8c5.9-.5 12.7-1 14.1-1 2.6 0 3.1-3.7 1.3-5.5-1-1-9.1-1.7-15.7-2v.2c-4.4-.2-8.1-.3-8.1-.3L696 567s4.4-.4 9.4-.8l.2-.4h0z"/><path id="XMLID_695_" class="st2" d="M704.7 587.3v.2c-4.1-.2-7.5-.3-7.5-.3L696 597s4.1-.4 8.9-.8v-.2c6.1-.5 13.3-1.1 14.8-1.1 2.6 0 3.1-3.7 1.3-5.5-1.1-1.1-9.7-1.8-16.3-2.1z"/><path id="XMLID_696_" class="st2" d="M705.1 616.5v.2c-4.3-.2-7.8-.3-7.8-.3l-1.2 9.7s4-.4 8.6-.8v-.2c6.1-.5 13.5-1.1 15-1.1 2.6 0 3.1-3.7 1.3-5.5-1.1-1.1-9.4-1.6-15.9-2z"/><path id="XMLID_667_" class="st0" d="m727.9 486.1-6.1 7.1c5.6 4.8 11.4 9.5 13.1 9.9 3.6.8 5.7-.8 4.2-4.1-.6-1.5-6-7.5-11.2-12.9z"/><path id="XMLID_668_" class="st1" d="m717.3 474.9-6.6 8.3s5.4 5 11.1 9.9l6.1-7.1c-5.4-5.7-10.6-11.1-10.6-11.1z"/><path id="XMLID_669_" class="st1" d="m736.6 452.5-6.3 7.5s5.8 4 11.7 7.7l4.8-6.4c-5-4.4-10.2-8.8-10.2-8.8z"/><path id="XMLID_670_" class="st0" d="m746.9 461.3-4.8 6.4c5.5 3.6 11 7.1 12.2 7.3 2.4.5 4-3.1 1.5-5.7-1.2-1.2-5.1-4.6-8.9-8z"/><path id="XMLID_671_" class="st1" d="m760.8 431-4.5 5.3c.2.2 3.8 3.1 8 6.6l4-5.5c-4.1-3.5-7.5-6.4-7.5-6.4z"/><path id="XMLID_672_" class="st0" d="M781.4 448.5c-1.5-1.2-7.8-6.7-13.1-11.1l-4 5.5c6.2 4.9 14 10.8 15.6 11 2.9.2 4.1-3.2 1.5-5.4z"/><path id="XMLID_673_" class="st0" d="m716.8 407.1 3.5-6.3c-4.1-2.2-7.9-4.1-8.7-4.1-1.7 0-3.8 1.2-2.2 4.3.8 1.3 3.9 3.8 7.4 6.1z"/><path id="XMLID_674_" class="st1" d="m727.2 413.8 3.1-7.5s-5.1-2.9-10-5.6l-3.5 6.3c4.9 3.5 10.4 6.8 10.4 6.8z"/><path id="XMLID_675_" class="st0" d="M690.9 428.1c-2.1-.1-4.8.4-3.8 3.8.5 1.6 4 4.7 7.5 7.6l5.1-6.7c-4-2.4-7.9-4.7-8.8-4.7z"/><path id="XMLID_676_" class="st1" d="M710.7 439.6s-5.6-3.6-10.8-6.7l-5.1 6.7c4.2 3.5 8.7 6.6 8.7 6.6l7.2-6.6z"/><path id="XMLID_677_" class="st0" d="M647.6 485.8c-1.2 0-4.8.9-2.2 4.6 1 1.5 4.2 3.9 7.6 6.1l4.4-6.2c-4.7-2.3-9.3-4.5-9.8-4.5z"/><path id="XMLID_678_" class="st1" d="M652.9 496.4c4.9 3.3 10.2 6.3 10.2 6.3l3.6-7.8s-4.6-2.4-9.3-4.7l-4.5 6.2z"/><path id="XMLID_434_" class="st2" d="M717.3 474.9s20.6 20.9 22 24c1.4 3.1-.7 4.7-4.2 4.1-3.6-.7-24.3-19.8-24.3-19.8l6.5-8.3z"/><path id="XMLID_439_" class="st2" d="M730.3 459.9s21.5 14.5 23.9 15 4-3.1 1.5-5.7c-2.5-2.5-19.1-16.8-19.1-16.8l-6.3 7.5z"/><path id="XMLID_440_" class="st2" d="M756.3 436.3c.6.5 20.8 17.4 23.7 17.6 2.8.3 4.1-3.2 1.4-5.4-2.6-2.2-20.6-17.5-20.6-17.5l-4.5 5.3z"/><path id="XMLID_441_" class="st2" d="M730.3 406.3s-17.1-9.7-18.7-9.7c-1.6 0-3.8 1.2-2.2 4.3 1.6 3.1 17.7 12.8 17.7 12.8l3.2-7.4z"/><path id="XMLID_442_" class="st2" d="M703.3 446.2s-15.2-10.8-16.2-14.2c-1-3.4 1.7-4 3.8-3.8 2.1.1 19.7 11.4 19.7 11.4l-7.3 6.6z"/><path id="XMLID_443_" class="st2" d="M666.7 494.9s-17.9-9.2-19.1-9.2-4.8.9-2.2 4.6c2.6 3.7 17.7 12.4 17.7 12.4l3.6-7.8z"/><path id="XMLID_653_" class="st1" d="M183 210.9s-1-7.4-1.9-13.8l-7.8-1.3c-.6 6-.9 13.3-.9 13.3l10.6 1.8z"/><path id="XMLID_654_" class="st0" d="M179.9 188.2c-.3-1.9-4.1-3.1-5.4 0-.5 1.1-.8 4.1-1.2 7.6l7.8 1.3c-.6-4.3-1.1-8.1-1.2-8.9z"/><path id="XMLID_655_" class="st1" d="m210.8 214.1 9.7 2.1s.3-4.9.6-10l-7.8-1.5c-1.4 4.7-2.5 9.4-2.5 9.4z"/><path id="XMLID_656_" class="st0" d="M221.5 195c-.2-2.1-4-2.6-5-.9-.6.8-2 5.8-3.2 10.5l7.8 1.5c.3-5 .5-10.1.4-11.1z"/><path id="XMLID_657_" class="st0" d="M258.8 201.2c-1 .7-4.1 4.3-7.1 8l6.9 4.4c2.2-4.1 4.3-8.1 4.6-9.1.5-1.9-2.2-4.8-4.4-3.3z"/><path id="XMLID_658_" class="st1" d="m245.2 217.6 8.6 4.7s2.5-4.3 4.8-8.8l-6.9-4.4c-3.3 4.4-6.5 8.5-6.5 8.5z"/><path id="XMLID_659_" class="st0" d="M158.9 272.5c1.6 2.1 5.8 1.3 5.8-1.9 0-1.6-.4-7.8-.8-13.5l-8.9 1.5c1.4 5.9 3 12.7 3.9 13.9z"/><path id="XMLID_660_" class="st1" d="M153.7 249.6c-.1.5.6 4.4 1.5 9.1l8.9-1.5c-.4-5.5-.7-10.6-.7-10.6l-9.7 3z"/><path id="XMLID_661_" class="st0" d="M187.7 265.9c1.6 2.7 4.2 1.5 5-1.3.3-1.3.4-6.3.3-11.2l-8.1.9c.8 5 2 10.3 2.8 11.6z"/><path id="XMLID_662_" class="st1" d="M183 244.1s.8 4.9 1.8 10.1l8.1-.9c-.1-5.7-.3-11.3-.3-11.3l-9.6 2.1z"/><path id="XMLID_663_" class="st1" d="M205.1 242.1s.8 4.9 1.7 10.1l8.8-.9c.4-5.6.6-10.9.6-10.9l-11.1 1.7z"/><path id="XMLID_664_" class="st0" d="M209.4 263.8c1.2 2.3 3.8 1.5 5-1.4.6-1.4.9-6.2 1.3-11l-8.8.9c.8 5 1.8 10.3 2.5 11.5z"/><path id="XMLID_225_" class="st2" d="M172.3 209.2s.8-17.9 2.2-21 5.1-1.9 5.4 0c.3 1.9 3.1 22.7 3.1 22.7l-10.7-1.7z"/><path id="XMLID_235_" class="st2" d="M210.8 214.1s4.5-18.3 5.7-19.9c1.1-1.7 4.9-1.1 5 .9.1 2.1-.9 21-.9 21l-9.8-2z"/><path id="XMLID_242_" class="st2" d="M245.2 217.6s11.3-15 13.6-16.4c2.3-1.5 4.9 1.4 4.4 3.4s-9.4 17.7-9.4 17.7l-8.6-4.7z"/><path id="XMLID_469_" class="st2" d="M153.7 249.6c-.3 1 3.6 20.7 5.2 22.8 1.6 2.1 5.8 1.3 5.8-1.9s-1.4-24-1.4-24l-9.6 3.1z"/><path id="XMLID_476_" class="st2" d="M183 244.1s3.1 19.1 4.7 21.8c1.6 2.7 4.2 1.5 5-1.3s0-22.5 0-22.5l-9.7 2z"/><path id="XMLID_477_" class="st2" d="M205.1 242.1s3 19.3 4.2 21.7c1.2 2.3 3.8 1.5 5-1.4 1.2-2.9 1.8-22.1 1.8-22.1l-11 1.8z"/><path id="XMLID_302_" class="st3" d="M430.8 499.1s-7 4.9-10.4 12.6c-3.4 7.7-3.3 16.7-3.3 16.7l-39.2-3.9-13.5-16.1 5.7-12 24.8-10.2 35.9 12.9z"/><path id="XMLID_295_" class="st4" d="M258 554.7c-9.4 15.6-31.1 21.4-32.5 23.8-1.4 2.4-.3 6.4 1.9 7.1 2.2.7 12.7-7.1 12.3-3.8-.5 3.3-11.8 14.1-23.6 25.3-11.8 11-28.6 17.4-30.2 19.6-1.6 2.2 1.1 8 3.8 7.4 2.6-.8 12.3-5 12.3-3.1s-46.4 38-48.1 40.1c-1.7 2.1.9 12.3 7.5 7.5-3 4.7 2.4 12.1 6.6 7.5-.8 4.7 3.8 9 9 6.4 5.2-2.5 21.2-34.4 21.2-34.4l58.9-54.7 14-56.9c-.1-.2-3.7-7.3-13.1 8.2z"/><path id="XMLID_637_" class="st5" d="m231.9 612.1 28.4 13.2c.8-1.6 1.8-3.2 2.6-4.8l-27.9-13c-1 1.4-2 2.9-3.1 4.6z"/><path id="XMLID_638_" class="st5" d="m235 607.4 27.8 13 3.3-6-27.4-12.8c-1.1 2-2.3 3.9-3.7 5.8z"/><path id="XMLID_639_" class="st3" d="m219.6 628.7 31.3 13.9c2.9-5.5 6.1-11.3 9.4-17.4L231.9 612c-3.8 5.6-8 11.3-12.3 16.7z"/><path id="XMLID_640_" class="st6" d="M192.8 657.4c7 8.8 40.6 17.9 40.6 17.9s7.4-14 17.4-32.7l-31.3-13.9c-8.2 10.5-17.3 20.5-26.7 28.7z"/><path id="XMLID_641_" class="st3" d="m287.7 536.3-21.2 9.3-4.5 16.3s-5.6 11.1-14.8 26.5l26.6 12.4c14.3-25.5 28.2-48.7 33.5-52.9 12.4-10.2-19.6-11.6-19.6-11.6z"/><path id="XMLID_642_" class="st4" d="m238.8 601.7 27.4 12.8c1-2 2.2-3.9 3.2-5.8l-27-12.6c-1.1 1.7-2.3 3.7-3.6 5.6z"/><path id="XMLID_643_" class="st4" d="m242.5 596 27 12.6c1.4-2.5 2.9-5.2 4.3-7.7l-26.6-12.4c-1.5 2.3-3.1 4.9-4.7 7.5z"/><path id="XMLID_298_" class="st2" d="m202.5 663.7 18.9-25"/><path id="XMLID_299_" class="st2" d="m213.3 668.7 15.6-25.2"/><path id="XMLID_300_" class="st2" d="m224.3 672.6 12.9-24"/><circle id="XMLID_324_" class="st6" cx="370.8" cy="653.1" r="9.6"/><circle id="XMLID_325_" class="st6" cx="370.8" cy="653.1" r="3.5"/><circle id="XMLID_353_" class="st6" cx="566.5" cy="652.9" r="9.6"/><circle id="XMLID_352_" class="st6" cx="566.5" cy="652.9" r="3.5"/><path id="XMLID_365_" class="st3" d="M556 655.5c-20.3-5-39.7-1.4-39.7-1.4L464.8 590l-12.3-12.5-38.5 11.1 4.5 8.5s62.2 44 64.9 47.3c2.7 3.3 2 29.5 2 29.5l10.7 5.3 64.3-4s1 2.7 2.5 5.8l27.4-.6C583.4 672 570 659 556 655.5z"/><path id="XMLID_344_" class="st6" d="M563 681.2c1.5 3.1 3.5 6.4 5.6 7.6.9.6 2.7.8 5.1 1.1l-5-8.9-5.7.2z"/><path id="XMLID_623_" class="st6" d="m568.6 681 5 8.9c1.7.2 3.8.3 5.8.3l-5.2-9.2h-5.6z"/><path id="XMLID_624_" class="st6" d="M595.1 687.8c0-.8-1.8-3.6-4.8-7.3l-5 .1 5 8.9c2.8-.4 4.8-1 4.8-1.7z"/><path id="XMLID_625_" class="st6" d="m574.2 680.9 5.2 9.2c1.9 0 3.8 0 5.6-.2l-5.2-9.2-5.6.2z"/><path id="XMLID_626_" class="st6" d="m579.7 680.8 5.2 9.2c2-.1 3.8-.3 5.4-.5l-5-8.9-5.6.2z"/><path id="XMLID_350_" class="st2" d="m518.9 651.5 1.1 23.9s-31.2 2.4-34.6 1.2c-3.4-1.1-1-22-1-22l34.5-3.1z"/><path id="XMLID_364_" class="st4" d="M520 643.5v10.1c4.1-.5 11-1 19.2-.5l1.1-11.7c-9.9.9-20.3 2.1-20.3 2.1z"/><path id="XMLID_355_" class="st6" d="M558.3 641c-.7-.4-2.7-.4-5.8-.4l-.8 5.3 7.5.2c.3-2.5.1-4.6-.9-5.1z"/><path id="XMLID_366_" class="st6" d="M550.5 654.4c1.8.3 3.6.7 5.5 1.1.7.2 1.2.3 1.9.5.2-1 .5-2.4.7-3.8l-7.5-1-.6 3.2z"/><path id="XMLID_367_" class="st6" d="m551.7 645.9-.8 5.3 7.5 1c.4-2 .7-4.2.8-6.1l-7.5-.2z"/><path id="XMLID_368_" class="st3" d="m540.4 641.5-1.1 11.7c3.6.2 7.4.7 11.2 1.3l2-13.8c-3.3 0-7.6.3-12.1.8z"/><path id="XMLID_349_" class="st3" d="M483.2 643.9c-1.9 4.8-3.9 12.9 2.3 14.8s35.4-.5 38-4.2c2.6-3.8.4-13.8-3.4-14.5-3.8-.8-35-.7-36.9 3.9z"/><path id="XMLID_343_" class="st6" d="M482.6 684c-2.1-1.7-.3-8.8 2.8-10.1 3.1-1.4 73.7-.4 75 1.4s6.2 7.7 4.1 8.8c-2.2.9-79.8 1.6-81.9-.1z"/><circle id="XMLID_377_" class="st6" cx="487.9" cy="621.5" r="12"/><circle id="XMLID_378_" class="st6" cx="487.9" cy="621.5" r="4.1"/><circle id="XMLID_381_" class="st6" cx="527.2" cy="612.3" r="12"/><circle id="XMLID_380_" class="st6" cx="527.2" cy="612.3" r="4.1"/><path id="XMLID_359_" class="st3" d="M468.2 580.4c1 7 2.1 13.7 2.9 18.9l23.5-2.5c-.9-5.4-2.2-12.3-3.4-19.4l-23 3z"/><path id="XMLID_360_" class="st4" d="M468.1 548.9c-2.1.1-4.1.3-5.8.4 2 7.2 4 19.5 5.8 31.1l8-1-6.1-30.6c-.7.1-1.4.1-1.9.1z"/><path id="XMLID_362_" class="st4" d="m488.5 562.3-15.6 1 .8 4.4 15.5-1.1c-.2-1.5-.5-2.9-.7-4.3z"/><path id="XMLID_373_" class="st4" d="m473.8 567.7 2.4 11.6 15.1-2c-.7-3.6-1.3-7.3-1.9-10.8l-15.6 1.2z"/><path id="XMLID_374_" class="st4" d="M485.9 547.5h-.5c-2 .2-3.9.4-5.8.5-2 .2-3.9.3-5.8.5-1.4.1-2.7.2-4.1.3l2.9 14.5 15.6-1c-.8-6.1-1.7-11.4-2.3-14.8z"/><path id="XMLID_617_" class="st4" d="M523.1 573.8c-2.1-4.1-4.3-8.3-6.5-12.6l-14.3 6.2 5.3 12.4 15.5-6z"/><path id="XMLID_620_" class="st4" d="m513.9 555.9-14.2 5.6 2.5 5.8 14.3-6.2c-.9-1.7-1.7-3.5-2.6-5.2z"/><path id="XMLID_621_" class="st4" d="M508.5 544.8c-1.7.3-3.4.6-5.3.8-1.9.3-3.8.5-5.7.8-1.4.2-2.8.3-4.2.5l6.3 14.6 14.2-5.6c-1.8-3.8-3.7-7.6-5.3-11.1z"/><path id="XMLID_616_" class="st4" d="M491.9 547c-1.8.2-3.6.4-5.4.5 2.6 7 8.2 22.1 13.2 35.1l7.6-2.9-14.1-32.8c-.3 0-.8 0-1.3.1z"/><path id="XMLID_337_" class="st6" d="m478.7 598.4 1.4 11.5c2.5 0 5.1-.3 7.5-.6l-1.4-11.7-7.5.8z"/><path id="XMLID_375_" class="st6" d="M471 599.2c.8 5.1 1.5 8.7 2.1 9.3.7.9 3.6 1.3 7.1 1.3l-1.4-11.5-7.8.9z"/><path id="XMLID_376_" class="st6" d="m486.3 597.5 1.4 11.7c4.5-.7 8.3-1.6 8.3-2.6 0-.6-.7-4.4-1.6-10l-8.1.9z"/><path id="XMLID_614_" class="st6" d="M505.9 598.2c1.8 4.2 3 7.2 3.4 7.5.7.6 3.3 0 6.7-1.1l-3.5-9.1-6.6 2.7z"/><path id="XMLID_615_" class="st6" d="M534.5 595.2c-.2-.5-1.7-3.1-3.9-7.2l-8.3 3.4 3.5 9.2c5.1-2.2 9.1-4.6 8.7-5.4z"/><path id="XMLID_618_" class="st6" d="m512.7 595.5 3.5 9.1c3-1 6.6-2.5 9.7-3.9l-3.5-9.2-9.7 4z"/><path id="XMLID_619_" class="st3" d="m523.1 573.8-23.2 8.8c2.3 5.9 4.4 11.5 6.1 15.7l24.7-10.1c-2.1-3.9-4.8-8.9-7.6-14.4z"/><path id="XMLID_327_" class="st3" d="M425.1 540.2c-11.1-4.4-34 12.3-33.8 12.5.1.1 4.9 10.9 10 22.5l47.5-15.9c-8.8-8.7-18.5-17-23.7-19.1z"/><path id="XMLID_336_" class="st7" d="m448.9 559.3-47.5 15.9c1.4 3.1 2.8 6.3 4.1 9.3l50.3-18.3-6.9-6.9z"/><path id="XMLID_342_" class="st4" d="M414 598.2s2 11.1 4.5 14.1 10.7.7 11.4-2.5c.8-3.1-2.3-16.3-2.3-16.3l25-6.9s4.9 11.4 9.6 12.4c4.7.8 9.7-2.6 9.7-6.9s-12.3-11.6-12.3-11.6l-30.4 2.3-15.2 15.4z"/><path id="XMLID_335_" class="st4" d="m455.7 566.3-50.3 18.3c4.2 9.6 7.8 17.6 7.8 17.6s53.9-14.9 54.8-19.4c.5-1.9-5-8.8-12.3-16.5z"/><path id="XMLID_417_" class="st5" d="M451.9 246.9c15-2.2 22.2 0 22.2 0l13.1 7c5.2-2.6 10-4.9 13.8-6.3-4.3-2.3-14.1-6.9-24.3-7.5-13.6-.9-27.5-.6-44.8 3.5s-30.5 16.7-36.5 32.3c-4.5 12-6.1 38.7-6.7 50.8l9.6 2c.3-10.7 1.5-44 6.2-56.3 6.1-16.4 32.4-23.4 47.4-25.5z"/><path id="XMLID_419_" class="st5" d="m404.5 272 23.8 17.2 1.2-2.4s1.1-.8 3.2-2l-25.2-18.1c-1.2 1.6-2.2 3.4-3 5.3z"/><path id="XMLID_421_" class="st5" d="M404.4 272.2c-4.7 12.4-5.9 45.6-6.2 56.3l8.3 1.7 21.8-41.1-23.8-17.1c0 .1-.1.2-.1.2z"/><path id="XMLID_124_" class="st5" d="M451.9 246.9c-2.5.4-5.5.9-8.6 1.6l23.1 16.3 3.7-18.6c-3.6-.5-9.7-.6-18.2.7z"/><path id="XMLID_127_" class="st5" d="m487.1 253.9-13.1-7s-1.3-.4-4-.7l-3.7 18.6.2.2c7.1-4.1 14.2-7.9 20.6-11.1z"/><path id="XMLID_423_" class="st5" d="M443.3 248.5c-2.3.5-4.6 1.1-7.1 1.8l24.7 17.8c1.9-1 3.8-2.2 5.7-3.2l-23.3-16.4z"/><path id="XMLID_405_" class="st5" d="M436.2 250.3c-10.9 3.2-22.5 8.4-28.7 16.4l25.2 18.1c1.4-.8 3.2-2 5.4-3.2l5.2-26.3-7.1-5z"/><path id="XMLID_409_" class="st5" d="m443.3 255.3-5.2 26.3c2.2-1.3 4.7-2.8 7.5-4.4l3.5-17.6-5.8-4.3z"/><path id="XMLID_420_" class="st5" d="m449 259.4-3.5 17.6c4.6-2.7 9.9-5.8 15.5-9.1l-12-8.5z"/><path id="XMLID_427_" class="st4" d="M682.5 280.2c-3.1-6.1-46.5-21.5-47 19.6.3-50 19.6-78.6 19.6-78.6s-43.7-9.2-107 15.1c34 34 44.5 60.8 44.5 60.8s-22.6-22.4-46.6 2.2c52.1 28.2 60.5 51.2 60.5 51.2l5.3-.2-2.6-5.7s-11.6-24-50.6-45.5c20.1-9.1 31.4 2.7 34 4.5 2.6 1.8 7.8-.8 6.9-6.7s-11.6-33.3-39.1-58.8c54.2-10.2 82.5-10.7 82.5-10.7-8.8 17.7-15.4 68.8-13 73.6s10.4 4.1 11.1.3c.8-3.8 1.2-19.8 17.9-22.8 9.4-2.1 14.4 3 14.4 3s-25 33-34.7 65.4c-.1.9-.4 1.8-.7 2.5l5.8-.2c.2.3 9.4-37.6 38.8-69z"/><path id="XMLID_576_" class="st2" d="M614.4 355.6s19.4 5.1 23.7-5.9l-26.1.8 2.4 5.1z"/><path id="XMLID_577_" class="st8" d="m604.3 278-5.6-2.6-4.4 6.5 5.5 2.5z"/><path id="XMLID_579_" class="st8" d="m614.3 252.9 5.4 2.6 4.5-6.5-5.5-2.5z"/><path id="XMLID_580_" class="st8" d="m581.5 311 20.8 9.7 4.4-6.4-20.7-9.7z"/><path id="XMLID_584_" class="st8" d="m599.8 284.4 20.8 9.7 4.4-6.5-20.7-9.6z"/><path id="XMLID_588_" class="st8" d="m618.7 246.5-27.2-12.7-4.4 6.4 27.2 12.7z"/><path id="XMLID_589_" class="st8" d="m606.7 314.3-4.4 6.4 6.2 2.9 4.4-6.5z"/><path id="XMLID_590_" class="st8" d="m586 304.6-5.6-2.6-4.4 6.5 5.5 2.5z"/><path id="XMLID_591_" class="st8" d="M597 328.4c1.8 1.9 3.3 3.7 4.6 5.3l6.9-10-6.2-2.9-5.3 7.6z"/><path id="XMLID_592_" class="st8" d="m581.5 311-1.5 2.2c7.1 5.4 12.6 10.7 17 15.2l5.3-7.6-20.8-9.8z"/><path id="XMLID_593_" class="st8" d="m609.3 344.8 2.6 5.7 26.1-.8c.3-.8.5-1.6.7-2.5.8-2.7 1.7-5.5 2.7-8.1l-32.9-15.4-6.9 10c5.5 6.6 7.7 11.1 7.7 11.1z"/><path id="XMLID_594_" class="st8" d="m576 308.5-.8 1.1c1.7 1.2 3.3 2.4 4.9 3.6l1.5-2.2-5.6-2.5z"/><path id="XMLID_595_" class="st8" d="M567.3 304.4c2.8 1.7 5.4 3.5 7.8 5.2l.8-1.1-8.6-4.1z"/><path id="XMLID_596_" class="st8" d="m590.5 233.3.9.5.5-.7c-.5.1-.9.2-1.4.2z"/><path id="XMLID_597_" class="st8" d="M635.1 254.1c2.2-10.6 4.9-20.4 7.8-26.3 0 0-1.4 0-4.2.2l-14.5 21 10.9 5.1z"/><path id="XMLID_598_" class="st8" d="M631.1 228.5c-8.6.7-21.6 2-39 4.6l-.5.7 27.2 12.6 12.3-17.9z"/><path id="XMLID_599_" class="st8" d="m624.2 249 14.5-21c-1.9.1-4.5.3-7.6.6l-12.4 17.9 5.5 2.5z"/><path id="XMLID_600_" class="st8" d="M593.4 281.4c.2.4.4.7.5 1l.4-.6-.9-.4z"/><path id="XMLID_601_" class="st8" d="M644.3 331.9c3.3-7.6 7.1-15 10.8-21.6l-14.9-7c-2.4 2.3-8.2 2.1-10.2-1.9-.3-.5-.4-1.6-.5-3.1l-2.7-1.2-13.9 20.2 31.4 14.6z"/><path id="XMLID_602_" class="st8" d="m568.3 296.4 12.1 5.7 2.8-4.1c-3.8-1.6-8.7-2.6-14.9-1.6z"/><path id="XMLID_603_" class="st8" d="m599.8 284.4-5.6-2.5-.4.6c1.1 2.4 2.2 4.4 2.9 6.4l3.1-4.5z"/><path id="XMLID_604_" class="st8" d="M596.8 288.8c1.6 4 2.5 6.9 2.7 8.4.9 5.9-4.2 8.5-6.9 6.7-.8-.5-2.1-1.7-4.1-3.1l-2.6 3.9 20.7 9.7 13.9-20.2-20.7-9.7-3 4.3z"/><path id="XMLID_605_" class="st8" d="M588.6 300.7c-1.4-.9-3.2-2-5.4-2.8l-2.8 4.1 5.6 2.5 2.6-3.8z"/><path id="XMLID_606_" class="st8" d="m612.9 317.1 13.9-20-6.2-3-13.9 20.2z"/><path id="XMLID_607_" class="st8" d="m619.7 255.5-5.4-2.6-15.6 22.5 5.6 2.6z"/><path id="XMLID_608_" class="st8" d="m587.1 240.2-10.6 15.4c4 4.9 7.5 9.7 10.3 14.2l12 5.6 15.5-22.5-27.2-12.7z"/><path id="XMLID_609_" class="st8" d="M577 235.5c-5.2.8-10.8 1.9-16.5 2.9 4.2 3.9 8 7.8 11.5 11.8l8.9-12.9-3.9-1.8z"/><path id="XMLID_610_" class="st8" d="m625 287.6 5.9-8.7c.7-5.4 1.6-11.2 2.6-17.1l-13.9-6.4-15.3 22.6 20.7 9.6z"/><path id="XMLID_611_" class="st8" d="m580.9 237.4-8.9 12.9c1.6 1.8 3.1 3.6 4.5 5.4l10.6-15.5-6.2-2.8z"/><path id="XMLID_612_" class="st8" d="M629.8 289.9c.3-3.2.7-6.9 1.1-10.9l-5.9 8.7 4.8 2.2z"/><path id="XMLID_581_" class="st8" d="M558.7 299.3c3 1.7 5.8 3.4 8.6 5l74.1 34.6c.8-2.4 1.9-4.8 2.8-7.2l-76-35.5c-2.8.7-6 1.6-9.5 3.1z"/><path id="XMLID_582_" class="st8" d="m635.1 254.1-44.6-20.8c-4.2.7-8.8 1.3-13.6 2.2l56.7 26.4c.5-2.6.9-5.2 1.5-7.8z"/><path id="XMLID_583_" class="st8" d="m629.8 289.9-43-20.1c2.6 4.1 4.8 8.1 6.6 11.6l36.1 16.9c-.1-2.1 0-4.9.3-8.4z"/><path id="XMLID_585_" class="st8" d="m640.2 303.3 14.9 7c1.3-2.4 2.6-4.5 3.9-6.7l-16.9-7.9c-.6 2.6-.8 4.9-1 5.9-.1.6-.4 1.2-.9 1.7z"/><path id="XMLID_587_" class="st8" d="M673.4 281.8s-5-5.1-14.4-3c-11.8 2.1-15.5 10.7-16.9 16.8l16.9 7.9c7.7-12.9 14.4-21.7 14.4-21.7z"/><circle id="XMLID_119_" class="st4" cx="607" cy="257.3" r="11.8"/><circle id="XMLID_120_" class="st4" cx="616.9" cy="308" r="11.8"/><path id="XMLID_570_" class="st7" d="M624.5 336.3c-.9-.9-.9-3.3-.7-5.4-7.2 2.4-14.3 5.8-17.3 10.5-6.4 10.1 1.2 44.5 0 51.2-.4 2-8.6 8.6-20.1 17 4.6 4.9 10.8 12 15.1 17.4l27.3-21.8.3-58.2s15.4-10.2 16.8-13.3c.5-1.1.7-2.5.5-3.7-7.3 2.9-20.4 7.6-21.9 6.3z"/><path id="XMLID_574_" class="st7" d="M624.5 336.3c1.3 1.3 14.5-3.4 21.9-6.2-.3-2.3-1.7-4.2-4-3.8-1.9.4-10.3 1.8-18.6 4.6-.2 2.1-.2 4.4.7 5.4z"/><path id="XMLID_572_" class="st3" d="m513.3 459.6 18.2 23.6 70.3-56c-4.3-5.5-10.5-12.6-15.1-17.4-27.5 19.9-73.4 49.8-73.4 49.8z"/><path id="XMLID_68_" class="st3" d="M554.3 499c-3.1-4.1-33-42-48.1-54.5-15.1-12.5-14.2 21.9-14.2 21.9s24.4 55.5 29.5 59.6c3.7 3 77.9 15.5 119.5 22.3 1.5-5.7 2.8-16.2 3.1-23.4-23-5-87.3-22.5-89.8-25.9z"/><path id="XMLID_542_" class="st7" d="M685.4 496.1c-2.4-.7-1.3-4.2-.2-6.8-7.4.6-15.1 1.4-21.5 4.4-16.3 7.8-10.9 30.5-11.6 32.3-.1.4-3.1-.2-8-1.2-.3 7.2-1.6 17.7-3.1 23.4 16.3 2.6 30.8 4.8 30.8 4.8l22.3-49.9s12.3-2.6 15.1-5.4c1-.9 1.8-2.5 2.3-4.1-8.5 1.3-23.4 3.3-26.1 2.5z"/><path id="XMLID_543_" class="st6" d="M685.4 496.1c2.6.8 17.6-1.2 26-2.5.8-2.7.4-5.7-2.3-5.7-2.2 0-10.3.4-19.8.9l-4.2.3c-1 2.8-2 6.4.3 7z"/><path id="XMLID_74_" class="st5" d="m506.3 441.4-26.6-6.6 9.6 47.2 24.8-1.4z"/><path id="XMLID_75_" class="st5" d="m499.7 533.2 24.4-2.6-8.5-42.5-24.8 1.3z"/><path id="XMLID_79_" class="st5" d="m489.3 482 1.5 7.4 24.8-1.3-1.5-7.5z"/><path id="XMLID_36_" class="st5" d="M442.5 539.4c4.2 10.8 12.7 10.1 12.7 10.1L466 524l-27.4 1.7c1.4 5.5 2.7 10.5 3.9 13.7z"/><path id="XMLID_382_" class="st5" d="M470.2 514.3 454.3 488l-20.7 11.1s1.7 10.4 3.9 21l31-1.9 1.7-3.9z"/><path id="XMLID_383_" class="st5" d="M437.5 520.2c.4 1.9.8 3.8 1.2 5.6l27.4-1.7 2.5-5.8-31.1 1.9z"/><path id="XMLID_81_" class="st6" d="m504.1 497.7-51.8 6.6.4 5.7 53.6-6.9c-.8-1.8-1.5-3.6-2.2-5.4z"/><path id="XMLID_66_" class="st3" d="M504.1 497.7c-7-17.9-12.6-35.4-16.6-48.4-3.8 1.2-8.2 2.3-12.9 2.6l8.2 48.5 21.3-2.7z"/><path id="XMLID_70_" class="st3" d="m448.7 446.6 3.8 57.7L471 502l-7.6-50.2c-5.2-.6-10.2-2.2-14.7-5.2z"/><path id="XMLID_71_" class="st4" d="M474.7 452c-3.7.4-7.5.3-11.3-.2L471 502l11.9-1.5-8.2-48.5z"/><path id="XMLID_85_" class="st4" d="m506.3 503.1-53.6 6.9.5 6.5 55.7-7.2c-.9-2-1.8-4.1-2.6-6.2z"/><path id="XMLID_64_" class="st6" d="m473 539.2.9 9.2c1.8-.1 3.8-.3 5.8-.5l-1-9.6-5.7.9z"/><path id="XMLID_76_" class="st6" d="m478.7 538.5 1 9.6c1.9-.2 3.8-.3 5.8-.5l-1-9.8-5.8.7z"/><path id="XMLID_77_" class="st6" d="m461.5 540.8.9 8.5c1.7-.1 3.6-.2 5.8-.4l-.9-9-5.8.9z"/><path id="XMLID_78_" class="st6" d="m454.8 541.6.6 8s2.7-.1 7.1-.4l-.9-8.5-6.8.9z"/><path id="XMLID_82_" class="st6" d="m484.4 537.7 1 9.8c2.2-.2 4.3-.4 6.5-.7l-1.5-10-6 .9z"/><path id="XMLID_83_" class="st6" d="m467.1 540 .9 9c1.9-.1 3.9-.3 5.9-.4l-.9-9.2-5.9.6z"/><path id="XMLID_86_" class="st6" d="M524.1 540.8c-1.4-2.5-2.7-5-4.1-7.5l-6.4.8 2.6 9.3c3.4-.9 6.1-1.7 7.9-2.6z"/><path id="XMLID_90_" class="st6" d="m513.6 534.1-6 .8 1.8 9.9c2.5-.4 4.8-.8 6.9-1.3l-2.7-9.4z"/><path id="XMLID_91_" class="st6" d="m496.1 536.3 1.5 10.1c1.9-.2 3.8-.5 5.7-.8l-1.5-10.1-5.7.8z"/><path id="XMLID_92_" class="st6" d="m490.4 537 1.5 10c1.9-.2 3.8-.4 5.7-.7l-1.5-10.1-5.7.8z"/><path id="XMLID_93_" class="st6" d="m501.8 535.6 1.5 10.1c2.1-.3 4.1-.6 6-.9l-1.8-9.9-5.7.7z"/><path id="XMLID_87_" class="st4" d="m508.8 509.4-55.7 7.2.7 10.4 59.4-7.6c-1.5-3.4-3-6.7-4.4-10z"/><path id="XMLID_88_" class="st3" d="m454.3 534.1.5 7.5 65.3-8.4c-1.2-2.4-2.5-4.7-3.6-7.1l-62.2 8z"/><path id="XMLID_89_" class="st3" d="m513.3 519.3-59.4 7.6.5 7.2 62.2-7.9c-1.3-2.3-2.3-4.6-3.3-6.9z"/><path id="XMLID_390_" class="st5" d="m439.2 318.6-26.1 33.1c0 3.4.1 7.1.2 11l29-37-3.1-7.1z"/><path id="XMLID_418_" class="st5" d="m435 308.9-13.4 6.5.8 2.2s-5.8 5.3-8.2 12c-1 3-1.2 10.9-1.1 22.2l26.1-33.1-4.2-9.8z"/><path id="XMLID_391_" class="st5" d="M412.1 474.7c-1.3 9.5-3.4 17.4-6.5 23-.4.8-.9 1.4-1.6 2.2 14.9 6.1 39.7.9 47.9-1.1.4-.1.5-5 .3-12.6l-32.6-20.9-7.5 9.4z"/><path id="XMLID_397_" class="st5" d="m449.6 426.9-25.9 32.9 28.1 18c-.4-14.7-1.4-34.6-2.2-50.9z"/><path id="XMLID_398_" class="st5" d="m423.8 459.8-4.2 5.4 32.6 20.9c-.1-2.5-.1-5.3-.3-8.2l-28.1-18.1z"/><path id="XMLID_522_" class="st5" d="m448.3 363.5-34 43.2c0 3.8.1 7.5.1 11.2l33.9-43v-11.4z"/><path id="XMLID_395_" class="st5" d="M413.4 362.7c.3 11.7.7 25.7.8 41v3l24.6-31.3-23.7-15.2-1.7 2.5z"/><path id="XMLID_416_" class="st5" d="m418.7 356-3.4 4.2 23.6 15.2 3.4-4.2z"/><path id="XMLID_519_" class="st5" d="m448.3 363.5.2-24-6.1-13.7-23.7 30.2 23.6 15.2z"/><path id="XMLID_530_" class="st5" d="M413.4 461.6c-.4 4.6-.8 9-1.4 13.1l37.6-47.8c-.2-3.8-.4-7.4-.6-10.7l-35.6 45.4z"/><path id="XMLID_393_" class="st5" d="M449.1 416.3c-.6-10.8-.9-18.2-.9-18.2l.1-23.1-30.1 38.2 22.2 14.2 8.7-11.1z"/><path id="XMLID_399_" class="st5" d="M414.4 418c.1 15.4 0 30.5-1 43.7l23.5-29.9-22.2-14.2-.3.4z"/><path id="XMLID_402_" class="st5" d="m418.2 413.1-3.5 4.5 22.2 14.2 3.5-4.4z"/><path id="XMLID_155_" class="st6" d="M412.3 304.8s-17 1.6-18.2 41.9-83.9-7.2-83.9-7.2L291.1 366s-1.2 52.3 0 66.5c1.2 14.1-5.5 42.3 11.3 62.7s93.7 19.7 103.1 2.5c9.4-17.2 9.2-56.3 8.8-94s-2.4-67.5 0-74.2c2.4-6.7 8.2-12 8.2-12l-10.2-12.7z"/><path id="XMLID_528_" class="st7" d="m221.8 437.2-25 1.9s-2.4 8.5-16 5.5c-9.1-2.1-46.2-21.5-70.3-34.8-.9 2.5-2 5.7-2.9 9.7 12.1 6.8 24.6 13.5 24.6 13.5s-12.7-3.5-25.9-6.9c-.6 3.2-1 6.7-1.4 10.8 12.6 4.5 26.1 9.7 31.6 12.4-10.6-2.8-22-4.6-32.1-5.8-.2 3.8-.1 7.6.2 11.4 8 1.1 17.3 2.7 27.2 5.3-9.3 0-18.6.5-26.6 1.1.5 4 1 7.8 1.7 11.4 13.8-.5 29.5-.2 39.1 2.8-14 .5-27 2.8-37.4 5.4 1 4.7 2.2 8.9 3.2 12.3 12.7-1.9 29-3.5 45.6-2.9 33.5 1.2 50.5 2.3 58.9-3.8s22.4-6 22.4-6l8.3-28.1-25.2-15.2z"/><path id="XMLID_407_" class="st6" d="M300.5 321.7c-13.3 15.4 4.8 81.6-24.4 129.7-22.7 37.4-53.8 38.9-66.4 37.6-6.6 6.1-11.1 9.5-11.1 9.5s58.3 9.4 88.2-43.2c29.9-52.6 11.4-101 25.2-115 10.8-10.9 56.4-2.2 76.2 1.8.1-5.8.3-9.3.3-9.3s.1-2.4.2-6.2c.2-3.9.5-9.2.8-15.1-15.7-.4-77.3-3.2-89 10.2z"/><path id="XMLID_495_" class="st7" d="M282.3 285.4c-26.1 24-31.3 46.1-27.2 107.3 3 44.4-28.1 80.1-45.5 96.3 12.6 1.2 43.7-.2 66.4-37.6 29.2-48.1 11.1-114.3 24.4-129.7 11.6-13.4 73.3-10.6 88.9-10.1.8-10.6 2.2-22.8 4.4-31.3-20.3-3.7-89.1-15.5-111.4 5.1z"/><path id="XMLID_161_" class="st0" d="M198.5 303.1s-75 54.7-76.2 56.8 2.1 6.8 4.2 5.7c2.2-1.1 78.6-41.7 78.6-41.7s-70.1 55.4-71.2 57.7c-1.1 2.4 2.7 6.2 5.5 4.7 2.6-1.5 71.9-43.9 71.9-43.9s-54.9 54.8-56.3 57.1 1.9 6.7 5.4 5c3.6-1.7 72-50 72-52.1-.1-2.1-33.9-49.3-33.9-49.3z"/><path id="XMLID_493_" class="st1" d="M133.9 381.6c-1.2 2.4 2.7 6.2 5.5 4.7 1.6-.9 28-17.1 48.4-29.5l-8.5-12.4c-20.1 16-44.7 35.7-45.4 37.2z"/><path id="XMLID_494_" class="st1" d="M154.9 399.5c-1.4 2.3 1.9 6.7 5.4 5 1.9-.9 22.1-15 40.6-28.3l-9.5-14c-15.9 16-35.7 35.9-36.5 37.3z"/><path id="XMLID_496_" class="st1" d="M122.3 359.9c-1.2 2.2 2.1 6.8 4.2 5.7 1.2-.7 27.4-14.5 49.2-26.1l-9-13.1c-20.4 15.1-43.7 32.3-44.4 33.5z"/><path id="XMLID_215_" class="st9" d="m166.2 332.2 19.2-12.1"/><path id="XMLID_216_" class="st9" d="m168.5 336.5 20.6-10.8"/><path id="XMLID_217_" class="st9" d="m178.8 350.4 15-11.3"/><path id="XMLID_218_" class="st9" d="m182 355.6 15.6-9.9"/><path id="XMLID_219_" class="st9" d="m191.7 368.4 13.4-12.8"/><path id="XMLID_220_" class="st9" d="m195 373.4 15.8-12.6"/><path id="XMLID_213_" class="st2" d="M198.5 303.1s-75 54.7-76.2 56.8 2.1 6.8 4.2 5.7c2.2-1.1 78.6-41.7 78.6-41.7s-70.1 55.4-71.2 57.7c-1.1 2.4 2.7 6.2 5.5 4.7 2.6-1.5 71.9-43.9 71.9-43.9s-54.9 54.8-56.3 57.1 1.9 6.7 5.4 5c3.6-1.7 72-50 72-52.1-.1-2.1-33.9-49.3-33.9-49.3z"/><path id="XMLID_211_" class="st3" d="M418.9 230.4c-1.6 0-15.4 5.4-30.8 11.5 2.5 5.1 4.4 9.5 5.8 12.7 18-6.2 29.8-9.3 30.6-10.1 1.5-1.5-2.7-14.1-5.6-14.1z"/><path id="XMLID_490_" class="st3" d="M417.8 225c2.2-2.8-4.2-18.9-8-18.7-2 .1-17.1 8.8-32.3 17.2 3.7 5.4 6.8 10.8 9.4 15.8 15.1-6.6 29.9-12.9 30.9-14.3z"/><path id="XMLID_491_" class="st4" d="M353.4 256.1c2.8-3 18.3-10.1 33.4-16.7-2.6-5-5.8-10.5-9.4-15.8-14.3 7.9-28.7 15.7-32.4 16.1 6.5-4.1 18.5-11.9 30.1-19.4-3.2-4.3-6.8-8.6-10.8-12.3-18.7 13.3-44.8 31.7-75.8 51-62 38.7-96.8 57.4-96.8 57.4l20.3 33s34.8-20.3 94.1-55c32.9-19.2 65.3-32.1 87.8-39.8-1.3-3.3-3.2-7.7-5.8-12.7-12.3 5-25.7 10.4-34.7 14.2z"/><path id="XMLID_492_" class="st3" d="M375 220.2c14.4-9.4 28.1-18.4 29.2-19.2 2.2-1.4-7-15.1-9.3-15.1-1.1 0-12.3 8.6-30.7 22 4 3.7 7.6 8 10.8 12.3z"/><path id="XMLID_471_" class="st7" d="M202.3 241.5c2.1-.8 2.3-4.6 4.6-6.2 2.5-1.6 3.1.4 5.3-2.1 2.2-2.5-1.2-4 .5-6.4 1.3-2 5.8-4.3 7.8-7.9-15.8-1.8-35.2-3.7-49.1-4.9-.1 4.1.1 13.2 2.9 15.2 3.7 2.5 6.4.5 8.5 2.2s-.4 4.9 1.6 7.2 4.2.8 6.4 3.5c.8 1 1.3 2.6 1.5 4.2 2.5-.3 5.1-.7 7.6-.9.1-1.6.8-3.2 2.4-3.9z"/><path id="XMLID_473_" class="st7" d="M184.4 238.6c-2-2.3.5-5.4-1.6-7.2s-4.9.3-8.5-2.2c-2.8-1.9-3-11.1-2.9-15.2-6.1-.6-11.2-1-14.6-1.3l.4 38.6c8.8-1.3 22.3-3.3 35.2-5-.3-1.6-.8-3.2-1.5-4.2-2.3-2.8-4.5-1.4-6.5-3.5z"/><path id="XMLID_474_" class="st7" d="M249.6 223.9c-.1 1.7-.6 3.6-1.8 4-2.5.7-4.1-.9-6 .9-1.9 1.9.4 5-1.2 6.7s-7.3-1.8-8.1 2.1c-.7 3 .3 5.3-.9 7.9 6.4 3.4 9.2 8.9 10 9.1l19.5-14.3c-2.6-5.3-6.9-13.4-11.5-16.4z"/><path id="XMLID_475_" class="st7" d="M232.3 237.5c.8-4 6.5-.4 8.1-2.1s-.7-4.7 1.2-6.7 3.7-.3 6-.9c1.2-.4 1.7-2.3 1.8-4-.3-.2-.7-.4-.9-.6-2.5-1.1-14-2.7-28.1-4.3-2.1 3.6-6.5 5.9-7.8 7.9-1.7 2.5 1.7 4-.5 6.4-2.2 2.5-2.8.5-5.3 2.1s-2.5 5.3-4.6 6.2c-1.6.7-2.3 2.3-2.4 4 13.7-1.5 25.4-2.5 28.6-1.3 1 .4 2 .8 2.9 1.3 1.4-2.7.3-4.9 1-8z"/><path id="XMLID_30_" class="st3" d="m502.1 296.2 26.4 32.7 8.2 24.2 18.6 7.8.7 8.3-15.1 9.6s8.5 2.2 11 5.9c2.5 3.8 3.5 7.8 1.2 12-2.2 4.1-11.3-2.1-11.3 3.8-2 .7 2.2 7.8-4.4 9.7-6.6 1.9-6.3-6.3-10.1-3.1-3.8 3.1-2.2 6.6-2.5 12-.3 5.4-5.4 8.2-14.8 8.2s-59-31.4-59-31.4l-10.2-82.7 50.9-17h10.4z"/><path id="XMLID_31_" class="st3" d="M445.3 323.6s62.2-26.7 67.6-25.2c5.4 1.6 20.5 26.4 21.7 29.2 1.2 2.8-1.2 8.5.9 10.4 2.2 1.9 6.3-.8 9.1 1.9 2.8 2.6 14.1 12.9 16.3 17 2.2 4.1 1.6 13.8 0 15.6-1.6 1.9-12.3 6.4-20.1 6.4-7.8 0-9.7-6.3-5.7-12 4.1-5.7 9.4.3 9.4.3"/><path id="XMLID_32_" class="st6" d="M488.9 370.1c-3.5 3.2-2.5 9.3 3.5 10.6 2.5.5 10.4-.5 18.9-1.8l-1.1-11.5c-10.2.6-19.8 1.3-21.3 2.7z"/><path id="XMLID_538_" class="st6" d="M535.1 366.9c-3.8 0-11.8.1-20.2.4l1.1 10.8c6.8-1.1 13.4-2.4 17.4-3.1-.8-2.2-.3-5.2 1.7-8.1z"/><path id="XMLID_39_" class="st2" d="m493 374.3 40.3-3.1"/><path id="XMLID_396_" class="st3" d="M519.4 331.4c-5.7-2.5-27.1 3.1-27.1 7.3 0 .9.5 2.1 1.2 3.2 11.8-5.6 23.1-6.8 29-7.1-.4-1.3-1.3-2.6-3.1-3.4z"/><path id="XMLID_40_" class="st6" d="M522.6 334.8c-2.3.1-5.5.4-9.1.9.4.8.7 1.7.7 2.6 0 3-2.5 5.5-5.5 5.5s-5.5-2.5-5.5-5.5v-.2c-3.1.9-6.3 2.2-9.5 3.7 2.5 4.1 8.8 8.7 12.7 8.7 5.2 0 13.7-3.5 14.9-6.4.9-2 2.3-6.1 1.3-9.3z"/><path id="XMLID_537_" class="st6" d="M508.6 343.8c3 0 5.5-2.5 5.5-5.5 0-.9-.3-1.8-.7-2.6-3.1.5-6.6 1.2-10.3 2.5v.2c.1 3 2.5 5.4 5.5 5.4z"/><path id="XMLID_67_" class="st4" d="M485.4 449.4s8 14.5 14.2 14.5 8.5-5.8 6.5-10.2c-2-4.4-12.2-10.8-12.2-10.8l3.6-4.4s8.8 9.9 13.6 7.1c4.8-2.8 3.8-10.8.8-13.2s-14.2-3.1-14.2-3.1l-12.3 20.1z"/><path id="XMLID_84_" class="st4" d="M634.3 516.5s-6.3-8.9-12-8.9-9.2 6.8-6.6 10.7c2.6 3.9 13.5 6.5 13.5 6.5l-2.4 16s-19.1-6.9-22.2-1.6c-3 5.3-1.2 12.1 3.8 13.4 5 1.2 20.7-1.9 20.7-1.9l7.5-19.8-2.3-14.4z"/><path id="XMLID_105_" class="st4" d="M749.3 386.9c0-.8 19.3-30.7 18.2-39.9-.5 4.6-9.9 6.9-13 0-3.1-6.9 1.7-16.5 10.8-17.3 9.1-.8 11.1 2.7 15.4 6.8 4.2 4.1 3.1 14 3.1 14s18.2 19.1 17.7 19.8 10.4-2.6 16 .9 8.7 11.6 6.9 16.5c-1.8 5-4.2 9.6-11.1 8.2s-6.9-6.6-6.9-9.4c-8.2 6.4-29 27.1-29 27.1l-28.1-13.7v-13z"/><path id="XMLID_106_" class="st2" d="M760.8 342.1c3.3-2.8 6.6-.3 6.6 5"/><path id="XMLID_104_" class="st2" d="M814.1 389.3c4.5-6.9-7.8-10.2-7.8-1.7"/><path id="XMLID_97_" class="st4" d="M720.6 416.1c-14 21.8-33.4 50.5-57.4 77.9.2-.1.3-.2.5-.2 4.6-2.3 10-3.3 15.4-3.9l52.2-65.9-10.7-7.9z"/><path id="XMLID_111_" class="st3" d="M730.3 401c-2.8 4.5-6 9.6-9.6 15.1l34.4 25.3c4.5-4.6 8.9-9 12.6-12.9L730.3 401z"/><path id="XMLID_107_" class="st8" d="M704.2 668.3c0 7.8-9.1 11.3-19.3 11.3s-17.4-3.5-17.4-11.3 8.2-14.1 18.4-14.1 18.3 6.2 18.3 14.1z"/><path id="XMLID_113_" class="st4" d="M672 693c-1.7-4.2-4.1-7.1-10.7-5.9-6.6 1.1-8.2 8.1-7.5 12.1.8 4 1.9 8.8 9.8 9.2 7.8.5 9.2-7.1 11.3-6.6 2.1.5-.9 8.8 1.7 12.7 2.6 4 12.7 2.6 15.1-.3 2.4-2.9-.5-12.1 1.2-12.6 1.7-.6 3.8 7.5 12.3 6.5 8.5-.9 10.8-7.4 9.4-12.5-1.4-5.2-5.3-7.1-7.5-7.1-3.6 0-5.7 2.4-6.6 4.5-5.7-5.5-14.4-6.9-14.4-6.9s-11.3 3.6-14.1 6.9z"/><path id="XMLID_114_" class="st2" d="M672 693c2.4 6.1-9.1 10.3-11.1 2.6"/><path id="XMLID_115_" class="st2" d="M700.5 693c-3.1 3.4 1.5 9.9 6.9 4.9"/><path id="XMLID_154_" class="st6" d="M409.8 296.2s-17 10.7-23.4 38.4c-6.4 27.7 3.5 33.8 8.5 8.7 5-25.1 20.1-37 20.1-37l-5.2-10.1z"/><path id="XMLID_156_" class="st4" d="M307.9 343.2c-6.1 15.3-9.9 128 4.7 144.4 14.6 16.4 73.6 19.6 82.3-1.4 8.7-20.9 13.7-148.3 0-152.4-13.7-4.1-80.8-5.8-87 9.4z"/><path id="XMLID_157_" class="st4" d="M316.9 346.7c-3.1 10.1-7.4 121 1.9 133.9 9.2 12.9 59.7 19.5 68.8 1.4 9.1-18.2 11.3-136.5 3.5-141-7.7-4.5-71.2-4.5-74.2 5.7z"/><path id="XMLID_486_" class="st10" d="m309.2 242.2 25.7 42.3c2.7-1.3 5.4-2.6 8-4l-26.4-43.4c-2.7 1.8-5.3 3.6-7.3 5.1z"/><path id="XMLID_487_" class="st6" d="m303.4 246.4 6.6 49.8s12.3-5.7 24.8-11.9L309.1 242c-3.2 2.4-5.5 4.1-5.7 4.4z"/><path id="XMLID_489_" class="st10" d="M353.4 256.1c6.4-7.2-.8-17.4-8.5-16.4 6.1-9.3-5-16.8-9.4-14.9-1.8.8-7.3 4.2-13.2 8.2l26.9 44.1c6.1-3.2 10.8-5.8 12.1-7.1 4.2-4.3-1.3-13.9-7.9-13.9z"/><path id="XMLID_164_" class="st2" d="m344.9 239.6-36.7 23.7"/><path id="XMLID_207_" class="st2" d="m353.4 256.1-42.5 25.1"/><path id="XMLID_208_" class="st2" d="M323.2 238.7s10-6.4 12.2-6.4 5 3.2 2.9 5.8c-1.5 1.9-11.8 6.1-11.8 6.1"/><path id="XMLID_163_" class="st2" d="M333 253.3s10-6.4 12.2-6.4 5 3.2 2.9 5.8c-1.5 1.9-11.8 6.1-11.8 6.1"/><path id="XMLID_209_" class="st2" d="M341.1 269.1s10-6.4 12.2-6.4 5 3.2 2.9 5.8c-1.5 1.9-11.8 6.1-11.8 6.1"/><path id="XMLID_212_" class="st2" d="m241.4 303.1-42.9 24.5"/><path id="XMLID_210_" class="st2" d="M248 313.5 205.1 338"/><path id="XMLID_233_" class="st4" d="M150.2 208.7s-26.3-5.2-30.9-9c3.8-2.4 5.2-5 3.6-9.9s-5.7-7.8-13.7-6.4-11 7-10.8 14.4c.2 7.5 11.6 15.4 11.6 15.4l-5 22.4s-8.4 6-10.1 13c-1.7 7 1.7 19.4 12.5 20 10.8.6 15.8-6.2 15.8-9.2s.3-7.7-5.2-10.5c13.7-4.8 34.4-2.4 34.4-2.4l-2.2-37.8z"/><path id="XMLID_234_" class="st2" d="M112.4 191c-7.8 4.9-1.7 13.7 6.9 8.8"/><path id="XMLID_236_" class="st2" d="M117.9 249c-5.2-2.4-13.7 6-4.1 9.8"/><path id="XMLID_472_" class="st7" d="M250.8 217.2c-9-3.6-19.4-2.2-47.5-6.6-18.1-2.9-36.1-6.6-46.6-8.8l.1 10.9c18 1.6 85.4 7.6 91.9 10.7 5 2.4 9.7 11.3 12.4 17l6.4-4.7c-.2-.1-7.8-14.9-16.7-18.5z"/><circle id="XMLID_238_" class="st2" cx="166.2" cy="235.8" r="4"/><circle id="XMLID_239_" class="st2" cx="196.4" cy="226.9" r="4"/><circle id="XMLID_240_" class="st2" cx="221.5" cy="234.7" r="4"/><path id="XMLID_267_" class="st2" d="M132.2 433c11.8 4.2 46.4 23.6 57.2 22.4 10.8-1.1 15.6-9.6 15.6-9.6"/><path id="XMLID_272_" class="st2" d="M136.5 449.2c10.8 3 45.6 17.4 58.5 14.9 9.4-1.8 20.7-13.7 20.7-13.7"/><path id="XMLID_273_" class="st2" d="M131.8 460c10.4 0 46.1 15.9 64.8 11.4 18.7-4.5 24-19.2 24-19.2"/><path id="XMLID_274_" class="st2" d="M145.9 475.5c9.2-.8 40.7 9.4 54.2 5.4 16.5-5 27.5-26.1 27.5-26.1"/><path id="XMLID_275_" class="st2" d="M103.8 410.8c19.1 12.7 70.5 39.9 83.7 39.6 9.1-.4 12.7-9 12.7-9"/><path id="XMLID_276_" class="st2" d="M101.4 430.8c13 1.2 78.8 30.9 90.7 29.1 12.1-1.8 17.7-13.3 17.7-13.3"/><path id="XMLID_277_" class="st2" d="M97.3 449.5c27.2-1.7 74.6 20.6 93.8 19.3 15.8-1.7 26.4-15.1 26.4-15.1"/><path id="XMLID_278_" class="st2" d="M101.4 469.5c30.9-8 71.4 10.1 95.7 6 14.4-1.8 25.9-19.2 25.9-19.2"/><path id="XMLID_280_" class="st2" d="M105.6 487.8s20.3-4.2 40.4-5c20.1-.8 43.2 6.1 58 .9 14.8-5.2 26.7-24.5 26.1-24.7"/><path id="XMLID_287_" class="st5" d="M312.2 516.5s-8.1-14.5-21.5-16.9c-13.4-2.4-27.3 3.3-29.6 10.9-2.4 7.6-4.7 22.6-4.7 22.6s9.9 5.4 8.5 7.7-7.1 2.1-8.5 9.4c-1.4 7.4 1.7 14 7.4 15.4 5.7 1.4 10.4-6.6 5.5-13 0 0 1.9-5 4.7-4.8 2.8.2 8.8 3.8 14.9.1 13 2.9 23.6 5.9 23.6 5.9v-37.4h-.3z"/><path id="XMLID_284_" class="st2" d="M262.7 557.6s-1.9-4.6.3-6.9c2.2-2.3 4.9 0 6.1 2"/><path id="XMLID_288_" class="st2" d="M260.9 519.2s8.8-18.1 24.9-15.3c16.1 2.8 20.6 25.6 20.6 25.6"/><path id="XMLID_292_" class="st2" d="M288.6 547.9c4.5-2.1 6.4-6.7 5.5-13.9s-10-11-10-11"/><path id="XMLID_296_" class="st2" d="m175.6 663.7-14.3 14.7"/><path id="XMLID_297_" class="st2" d="m167.9 685.9 13.9-16.7"/><path id="XMLID_306_" class="st2" d="m294 542.9 27.6 5.8"/><path id="XMLID_629_" class="st3" d="M362.2 654.6c-21.2-5-38-3.8-39.6-5.9s12.3-25 25.9-43.4c13.7-18.4 19.8-40.3 17.3-51.3-2.6-11-53.6 3.2-53.6 3.2l2.4 25.7s-37.1 81.4-37.1 86.4c0 4.1 59.1 7.2 79.7 8.1l36.5-3.5c-5.4-6.6-16.3-15.7-31.5-19.3z"/><path id="XMLID_315_" class="st6" d="M357.2 677.3c4.2.2 6.9.3 6.9.3s1.9 6 6.2 7.2c.1 0 .2 0 .3.1l-2.9-8.6-10.5 1z"/><path id="XMLID_631_" class="st6" d="m367.6 676.3 2.9 8.6c1.2.3 3.5.3 6.2.2l-3.2-9.3-5.9.5z"/><path id="XMLID_632_" class="st6" d="m379.4 675.1 3.3 9.4c2.5-.3 5.1-.7 7.4-1.1l-4.5-8.9-6.2.6z"/><path id="XMLID_633_" class="st6" d="M397.3 679.6c-.4-1.2-1.6-3.3-3.7-5.8l-8.1.8 4.5 8.9c4.5-1 7.7-2.3 7.3-3.9z"/><path id="XMLID_634_" class="st6" d="m373.7 675.7 3.2 9.3c1.8-.1 3.8-.2 5.8-.5l-3.3-9.4-5.7.6z"/><path id="XMLID_285_" class="st5" d="M418.1 605.4 385.4 616l1.8 6 33.3-10.8c-.9-1.9-1.6-3.9-2.4-5.8z"/><path id="XMLID_331_" class="st5" d="m416 599.8-32.3 10.5 1.7 5.8 32.7-10.6-2.1-5.7z"/><path id="XMLID_488_" class="st3" d="M399.1 553.8h-31.9l16.4 56.5 32.3-10.5c-9.3-24.7-16.8-46-16.8-46z"/><path id="XMLID_578_" class="st3" d="m425.1 623.2-34.4 11.1 4.2 14.6 35.9-11.6c-1.9-4.5-3.7-9.2-5.7-14.1z"/><path id="XMLID_586_" class="st4" d="M420.4 611.3 387.1 622l3.6 12.4 34.4-11.1c-1.6-4-3.1-8-4.7-12z"/><path id="XMLID_613_" class="st6" d="M449.9 673.9c-4.3-4-11.4-18.7-19-36.6L395 648.9l11.5 39.8s30.6-7.7 43.4-14.8z"/><circle id="XMLID_369_" class="st2" cx="511.5" cy="570.4" r="2.6"/><circle id="XMLID_370_" class="st2" cx="504.1" cy="553" r="2.6"/><circle id="XMLID_371_" class="st2" cx="479.7" cy="555.7" r="2.6"/><circle id="XMLID_372_" class="st2" cx="482.8" cy="573" r="2.6"/><circle id="XMLID_385_" class="st2" cx="448.1" cy="535.9" r="2.7"/><circle id="XMLID_386_" class="st2" cx="445.4" cy="511.7" r="2.7"/><circle id="XMLID_387_" class="st6" cx="432.7" cy="482.8" r="11.2"/><circle id="XMLID_388_" class="st6" cx="432.7" cy="420.6" r="11.2"/><path id="XMLID_426_" class="st4" d="M574.1 411.4s-14 5.8-16 9.2c-2.1 3.5.5 11.3 6.1 11.3s14.6-12.5 14.6-12.5l9.4 9.8s-10.9 9.2-11.9 15.4c-.9 6.1 4.9 9.4 11.9 7.3 7-2.2 9.7-15.1 9.7-15.1l-23.8-25.4z"/><path id="XMLID_573_" class="st5" d="M607.1 434.8c-1.2-3.6-22.9-29-26.4-30.7-2-.9-4.6-.1-6.6 1.7l31.1 33.6c1.5-1.4 2.5-3 1.9-4.6z"/><path id="XMLID_575_" class="st5" d="M574.1 405.9c-1.6 1.4-2.8 3.5-2.8 5.5 0 4.5 23.6 29.6 27.2 30.5 2 .5 4.9-.7 6.9-2.5l-31.3-33.5z"/><path id="XMLID_384_" class="st4" d="m669.2 532.3 3.1 126.8 11.4-.8c-1.1-27.2-4.2-102.8-5.9-125.8-4 0-7.2 0-8.6-.2z"/><path id="XMLID_450_" class="st8" d="M687 552.5c-.8-5.1 10-5.6 12.2-5.7 0-8.2-.2-13.5-.5-13.7-1.1-.8-12.5-.8-20.9-.8.5 6.3 1 16.8 1.7 29.1 4.1-1.1 8.1-4.6 7.5-8.9z"/><path id="XMLID_545_" class="st8" d="M686 573.5c2 2.8-1.1 6.6 3.1 8.8 2.5 1.3 6.8 1 9.6.6.2-13.8.3-26.7.3-35.8-2.2.1-13 .6-12.2 5.7.7 4.2-3.4 7.7-7.6 9 .2 3.3.4 6.7.5 10.3 2.3-.4 5.2-.3 6.3 1.4z"/><path id="XMLID_546_" class="st8" d="M689.5 632.9c2 2.8-1.1 6.6 3.1 8.8 1.4.7 3.2.9 5.1.9.2-10.8.6-26.4.8-42.4-3.9.5-9.5 1.7-9 5.4.7 4.3-3.5 7.8-7.8 9.1.3 5.8.5 11.5.8 16.8 2.2-.4 5.7-.5 7 1.4z"/><path id="XMLID_547_" class="st8" d="M692.6 641.7c-4.2-2.2-1.2-5.9-3.1-8.8-1.3-1.9-4.8-1.8-7.1-1.6.5 10.8.8 20.3 1.1 26.9l13.9-1s.1-5.7.3-14.6c-1.8 0-3.6-.3-5.1-.9z"/><path id="XMLID_548_" class="st8" d="M689.6 605.5c-.6-3.8 5.1-5 9-5.4.1-5.8.2-11.6.3-17.3-2.9.4-7.1.7-9.6-.6-4.2-2.2-1.2-5.9-3.1-8.8-1.1-1.7-4.1-1.8-6.2-1.7.7 13.7 1.3 28.7 2 42.7 4.1-1 8.3-4.5 7.6-8.9z"/><path id="XMLID_72_" class="st6" d="M673.6 501c-4.1 0-5.7 4.9-3.1 6.6-2.4.3-3.6 7.9-.3 7.9-3.6.8-3.8 7.6-1.2 7.8-1.7.5-4.5 8.3 0 8.8 1.4.1 4.5.2 8.3.2l2.8-31.2c-2.8-.1-5.2-.1-6.5-.1z"/><path id="XMLID_460_" class="st7" d="M700.3 504.3c-4.8-2.3-13.7-3-20.1-3.2l-2.8 31.2c8.5 0 20.1-.1 21.2.8-4.1 3.2 0 18.1 0 18.1 9 0 16.5-11.5 16.5-24.2s-7.8-19.3-14.8-22.7z"/><path id="XMLID_462_" class="st2" d="M670.6 507.7c7.4-.3 24 1.4 24 1.4"/><path id="XMLID_461_" class="st2" d="M670.3 515.7c7.4-.3 22.3 1.7 22.3 1.7"/><path id="XMLID_463_" class="st2" d="M669.2 523.5c7.4-.3 22.9 2.2 22.9 2.2"/><path id="XMLID_452_" class="st8" d="M709.6 470c1.8-4.1-2-9.4-4.8-12.5l-25.7 32.4c3.5-.4 7-.7 10.3-.8 8.1-.6 15.2-.8 18.5-.9.9-.9 2.1-2.1 3.4-3.3-3.8-4.5-3.7-10.3-1.7-14.9z"/><path id="XMLID_464_" class="st8" d="M728.9 448.8c-4.3 2-10.2-2.3-13.3-5l-10.8 13.6c2.8 3.1 6.6 8.4 4.8 12.5-2 4.6-2.1 10.4 1.7 14.7 7.6-7.5 20.6-20.2 33.4-32.9-4.8-3.4-11.6-4.8-15.8-2.9z"/><path id="XMLID_465_" class="st8" d="m755.1 441.3-23.8-17.4-15.8 20c3.1 2.7 8.9 7 13.3 5 4.3-2 11-.5 15.8 3 3.6-3.6 7.1-7.1 10.5-10.6z"/><circle id="XMLID_466_" class="st2" cx="699.5" cy="477.9" r="2.9"/><circle id="XMLID_467_" class="st2" cx="719.6" cy="458" r="2.9"/><circle id="XMLID_468_" class="st2" cx="733.4" cy="437.2" r="2.9"/><path id="XMLID_256_" class="st4" d="M324.1 335.6c-1.5-5.2-21.2-32.5-21.2-32.5l-6.3 3.9 25.7 33.9c1.5-1.4 2.3-3.1 1.8-5.3z"/><path id="XMLID_257_" class="st4" d="m296.5 307-17.4 10.7s31.2 24.3 35.2 25.4c2.3.6 5.8-.3 7.9-2.1l-25.7-34z"/><path id="XMLID_253_" class="st2" d="m313.2 334-.4 7.9"/><path id="XMLID_254_" class="st2" d="m308.5 330.3-.4 8.8"/><path id="XMLID_258_" class="st2" d="m302.8 325.5-.3 8.9"/><path id="XMLID_259_" class="st2" d="m298.1 320.8-.3 10.8"/><path id="XMLID_260_" class="st2" d="m292.5 319.9-.4 7"/><path id="XMLID_169_" class="st5" d="m273 275.7-3 3.4 3.6-.7-.6-2.7z"/><path id="XMLID_170_" class="st5" d="m267 274-6.8 1.4 3.9 1.9 3-3.3z"/><path id="XMLID_171_" class="st5" d="M267.1 274h0z"/><path id="XMLID_172_" class="st5" d="M268.1 279.4v.1l1.1.5.8-.9z"/><path id="XMLID_173_" class="st5" d="m269.2 280 5.4 2.8-1-4.4-3.6.7z"/><path id="XMLID_174_" class="st5" d="M268.1 279.4h0z"/><path id="XMLID_175_" class="st5" d="m268 273.1-1.3-.6.3 1.5h.1z"/><path id="XMLID_176_" class="st5" d="m267.1 274-3 3.3 4 2.1h0z"/><path id="XMLID_177_" class="st5" d="m261.1 280.8 7-1.4-4-2.1z"/><path id="XMLID_178_" class="st5" d="m276 272.3-3.5.7.5 2.6z"/><path id="XMLID_179_" class="st5" d="m268.4 280.8.8-.8-1.1-.5z"/><path id="XMLID_180_" class="st5" d="M273 275.7v-.1.1z"/><path id="XMLID_181_" class="st5" d="m269 273.7-1-.6-.9.9z"/><path id="XMLID_182_" class="st5" d="m272.5 273-.9-4.1-3.6 4.2 1 .6z"/><path id="XMLID_183_" class="st5" d="M267.1 274h0l1 5.4 1.9-.3 3-3.4-4-2z"/><path id="XMLID_184_" class="st5" d="M273 275.7v-.1l-.5-2.6-3.5.7z"/><path id="XMLID_185_" class="st5" d="M298.4 238.7c-7.4-5.2-16.3-8.2-26-8.2-2.9 0-5.8.3-8.6.8l7.8 37.6 26.8-30.2z"/><path id="XMLID_186_" class="st5" d="m264.1 277.3-4-2.1-32.7 6.2c.2 1.9.6 3.7 1 5.5l32.6-6.2 3.1-3.4z"/><path id="XMLID_187_" class="st5" d="M242.7 310c8 7 18.4 11.2 29.8 11.2 1.5 0 2.9-.1 4.3-.2l-8.3-40.1-25.8 29.1z"/><path id="XMLID_188_" class="st5" d="M228.4 287.1c1.8 7.2 5.4 13.8 10.2 19.1l22.4-25.3-32.6 6.2z"/><path id="XMLID_189_" class="st5" d="m273.6 278.4 3.3-.6-3.9-2.1z"/><path id="XMLID_190_" class="st5" d="M268.1 279.5h0l-7.1 1.3-22.4 25.3c1.2 1.4 2.5 2.6 4 3.9l25.8-29.1-.3-1.4z"/><path id="XMLID_191_" class="st5" d="m317.5 270.1-40.6 7.7 35.9 18.7c3.2-6.2 5-13.2 5-20.7 0-1.9-.1-3.8-.3-5.7z"/><path id="XMLID_192_" class="st5" d="m273.6 278.4.9 4.3 35.6 18.4c1-1.5 2-3.1 2.8-4.8L277 277.6l-3.4.8z"/><path id="XMLID_193_" class="st5" d="M282.3 320.1c11.5-2.5 21.4-9.4 27.7-18.9l-35.6-18.4 7.9 37.3z"/><path id="XMLID_194_" class="st5" d="m269.2 280-.8.8 8.3 40.1c1.9-.2 3.7-.5 5.5-.8l-7.7-37.3-5.3-2.8z"/><path id="XMLID_195_" class="st5" d="m272.5 273 3.5-.7 26.9-30.3c-1.4-1.2-2.8-2.4-4.3-3.5l-26.8 30.3.7 4.2z"/><path id="XMLID_196_" class="st5" d="M230 259.7c-1.9 5-2.9 10.5-2.9 16.1 0 2 .1 3.9.4 5.8l32.7-6.2-30.2-15.7z"/><path id="XMLID_197_" class="st5" d="M273 275.6h0l3.9 2.1 40.6-7.7c-.2-1.9-.6-3.7-1-5.5l-40.4 7.7-3.1 3.4z"/><path id="XMLID_198_" class="st5" d="M316.4 264.6c-2.3-8.9-7.1-16.6-13.6-22.5L276 272.4l40.4-7.8z"/><path id="XMLID_199_" class="st5" d="m267 274-.3-1.5-34.4-17.9c-.8 1.6-1.6 3.3-2.3 5.1l30.2 15.7 6.8-1.4z"/><path id="XMLID_200_" class="st5" d="m268 273.1 3.8-4.2-7.8-37.6c-1.8.4-3.6.8-5.4 1.4l8.3 39.9 1.1.5z"/><path id="XMLID_201_" class="st5" d="M258.4 232.6c-11.3 3.7-20.7 11.6-26.1 22l34.4 17.9-8.3-39.9z"/><path id="XMLID_166_" class="st4" d="m247.8 259.8.3 32.3c1.6 2.4 3.5 4.5 5.8 6.3l-.4-45.1c-2.3 2-4.2 4.1-5.7 6.5z"/><path id="XMLID_167_" class="st4" d="m253.3 253.5.4 45.1c3 2.5 6.6 4.3 10.5 5.5l-.6-56.3c-3.8 1.2-7.2 3.1-10.3 5.7z"/><path id="XMLID_202_" class="st4" d="m263.7 247.7.6 56.3c1.8.6 3.7.8 5.7 1l-.6-58.6c-2 .4-3.9.8-5.7 1.3z"/><path id="XMLID_203_" class="st4" d="M243.1 275.8c0 6.1 1.9 11.7 5 16.4l-.3-32.3c-3 4.5-4.7 10-4.7 15.9z"/><path id="XMLID_204_" class="st4" d="M301.8 275.8c0-9.6-4.6-18.1-11.7-23.5l.5 46.7c6.8-5.4 11.2-13.8 11.2-23.2z"/><path id="XMLID_205_" class="st4" d="M272.5 246.4c-1 0-2.1.1-3.1.2l.6 58.6c.8.1 1.7.1 2.5.1 4.4 0 8.7-1 12.4-2.7l-.5-53.5c-3.6-1.7-7.7-2.7-11.9-2.7z"/><path id="XMLID_206_" class="st4" d="m284.5 249 .5 53.5c2-.9 3.9-2.1 5.7-3.5l-.5-46.7c-1.9-1.4-3.8-2.4-5.7-3.3z"/><path id="XMLID_223_" class="st5" d="M183 220.9c-1.6 3-9.7 5.7-12.5 3.1-5.9-5.5-1.8-20.1 3.3-21.2 5.1-1.1 11.7 5.9 11.7 5.9s-.9 9.2-2.5 12.2z"/><path id="XMLID_480_" class="st1" d="M179.3 210.9c-.8 1.6-1.4 3.4-1.4 5.3 0 5.9 4.8 10.8 10.8 10.8 4 0 7.4-2.1 9.2-5.2l-18.6-10.9z"/><path id="XMLID_481_" class="st0" d="M199.4 216.1c0-5.9-4.8-10.8-10.8-10.8-4.1 0-7.5 2.2-9.3 5.5l18.6 10.8c.9-1.6 1.5-3.5 1.5-5.5z"/><circle id="XMLID_221_" class="st2" cx="188.6" cy="216.1" r="10.8"/><circle id="XMLID_224_" class="st6" cx="188.6" cy="216.1" r="4.1"/><path id="XMLID_230_" class="st4" d="M223.5 213.3c-1.3 1.6-2.1 3.6-2.1 5.8 0 5.2 4.1 9.3 9.3 9.3 5.2 0 9.3-4.1 9.3-9.3 0-1.6-.4-3-1-4.3-4.1-.5-9.1-.8-15.5-1.5z"/><path id="XMLID_484_" class="st1" d="M75.7 220.1s9.9 14.1 36.3 16.6l1.6-25.7c-18.8-.5-37.9 9.1-37.9 9.1z"/><path id="XMLID_485_" class="st0" d="M152.8 222.4s-15.8-9.2-35.6-11.2c-1.2-.1-2.5-.2-3.7-.2l-1.6 25.7c1.5.2 3.1.3 4.7.3 30 1.1 37.1-4.4 37.1-4.4l-.9-10.2z"/><path id="XMLID_229_" class="st9" d="m128.7 217.6-17.7-1.5"/><path id="XMLID_231_" class="st9" d="m130.6 224.1-19.6-1.7"/><path id="XMLID_232_" class="st9" d="M128.7 230.4h-18.8"/><path id="XMLID_227_" class="st2" d="M152.8 222.4s-15.8-9.2-35.6-11.2-41.5 9-41.5 9 11.1 15.8 41 16.9 37.1-4.4 37.1-4.4l-1-10.3z"/><path id="XMLID_470_" class="st4" d="M147.3 199.7v53.1s3.8-.7 9.7-1.5l-.5-49.5c-5.6-1.2-9.2-2.1-9.2-2.1z"/><path id="XMLID_497_" class="st10" d="m458.8 304.7 8.1 9.8c1.8-.8 3.6-1.4 5.4-2.2l-8-9.8c-2 .8-3.8 1.5-5.5 2.2z"/><path id="XMLID_499_" class="st10" d="m464.2 302.5 8 9.8c2-.8 3.9-1.6 5.8-2.4l-8-9.7c-1.9.8-3.9 1.6-5.8 2.3z"/><path id="XMLID_500_" class="st10" d="m470.2 300.2 8 9.7c2.1-.8 4.1-1.6 6.1-2.5l-8.1-9.8c-2 1-4.1 1.8-6 2.6z"/><path id="XMLID_501_" class="st10" d="m453.5 306.8 8.1 9.8c1.7-.7 3.5-1.4 5.3-2.2l-8.1-9.8c-1.8.8-3.6 1.5-5.3 2.2z"/><path id="XMLID_502_" class="st10" d="m476.3 297.7 8.1 9.8c1.7-.7 3.4-1.3 5-1.9l-8.1-9.8c-1.7.6-3.4 1.3-5 1.9z"/><path id="XMLID_503_" class="st10" d="M442.4 311.4c-1.8.8-3.9-1.8-5.8-5.7l-1.6.6 7.3 19 2.9-1.7s4.6-2 11.5-4.8l-8.2-9.9c-3.1 1.2-5.2 2.1-6.1 2.5z"/><path id="XMLID_504_" class="st10" d="m448.6 308.8 8.2 9.9c1.5-.7 3.2-1.3 4.9-2.1l-8.1-9.8c-1.9.7-3.6 1.4-5 2z"/><path id="XMLID_505_" class="st10" d="m534.8 304.6-19.2-23.4c-1.1.6-2.5 1.2-4.1 1.9l19.1 23.3 4.2-1.8z"/><path id="XMLID_506_" class="st10" d="m539.9 302.5-20.7-23.3c-.3.3-.7.5-.9.7-.7.4-1.6.8-2.6 1.4l19.2 23.4 5-2.2z"/><path id="XMLID_507_" class="st10" d="m501 287.6 9.1 11c1.3-.3 2.3-.4 2.8-.3 2.3.7 6.3 5.6 10.3 11.1l2.5-1-19.1-23.2c-1.8.8-3.7 1.7-5.6 2.4z"/><path id="XMLID_508_" class="st10" d="M511.4 283.2c-1.5.7-3.1 1.4-4.8 2.2l19.1 23.2 4.9-2.1-19.2-23.3z"/><path id="XMLID_509_" class="st10" d="m481.2 295.7 8.1 9.8c1.7-.7 3.4-1.3 5-1.9l-8.2-10c-1.6.8-3.2 1.5-4.9 2.1z"/><path id="XMLID_510_" class="st10" d="m486.2 293.8 8.2 10c1.8-.7 3.5-1.2 5.1-1.8l-8.4-10.2c-1.6.5-3.3 1.3-4.9 2z"/><path id="XMLID_511_" class="st10" d="m496.1 289.7 8.6 10.5c2.2-.7 4-1.2 5.4-1.5l-9.1-11c-1.6.6-3.3 1.3-4.9 2z"/><path id="XMLID_512_" class="st10" d="m491.1 291.7 8.4 10.2c1.9-.7 3.6-1.2 5.2-1.7l-8.6-10.5c-1.7.7-3.3 1.3-5 2z"/><path id="XMLID_24_" class="st4" d="M429.5 286.8s68.7-42.4 79.1-41.2c10.5 1.2 20 28.3 9.5 34.2-10.5 5.9-70.6 29-75.7 31.5-5.1 2.6-12.9-24.5-12.9-24.5z"/><path id="XMLID_139_" class="st4" d="m435 290.3 4.2 14.5s1.6-.6 4.3-1.6l4.9-20.7c-7.9 4.5-13.4 7.8-13.4 7.8z"/><path id="XMLID_142_" class="st4" d="m510.5 255.7-5.6 23.5c3.6-1.5 6-2.7 6.9-3.4 4.1-3.1 2.8-14.7-1.3-20.1z"/><path id="XMLID_134_" class="st4" d="m448.5 282.7-4.9 20.5c3.7-1.3 9.3-3.5 15.8-5.9l2.6-10.9-13.5-3.7z"/><path id="XMLID_136_" class="st4" d="M465.2 273c-6 3.4-11.8 6.7-16.7 9.4l-.1.4 13.6 3.5 3.2-13.3z"/><path id="XMLID_145_" class="st4" d="M482.9 263.3c-5.7 3-11.8 6.4-17.7 9.7l-.1.3 14.8 2.6 3-12.6z"/><path id="XMLID_146_" class="st4" d="m465.2 273.3-5.7 24c5.3-2 11.1-4.2 17-6.5L480 276l-14.8-2.7z"/><path id="XMLID_141_" class="st4" d="m482.2 265.9-5.8 24.7c4.6-1.8 9.2-3.6 13.6-5.4l4.2-17.8-12-1.5z"/><path id="XMLID_147_" class="st4" d="M496.8 256.2c-4 1.9-8.8 4.3-14 7.1l-.7 2.6 11.9 1.6 2.8-11.3z"/><path id="XMLID_144_" class="st4" d="M510.5 255.7c-1.3-1.8-2.8-2.9-4.6-2.9-1.3 0-4.5 1.2-8.9 3.3l12.6 2.8.9-3.2z"/><path id="XMLID_148_" class="st4" d="M497.1 256.1c-.1 0-.1.1-.2.1l-7 29.1c5.8-2.4 11-4.4 15-6.2l4.8-20.2-12.6-2.8z"/><path id="XMLID_29_" class="st10" d="M455.3 354.7s-4-29.9-9.1-42.2c-5.2-12.3-24.8-4.4-18.6 4.4 6.3 8.8 12 31.8 12 31.8l15.7 6z"/><path id="XMLID_412_" class="st2" d="M432.7 316.2c7.5 12.3 10 31.4 10 31.4"/><path id="XMLID_411_" class="st2" d="M439.3 316.2c7.5 12.3 10 31.4 10 31.4"/><path id="XMLID_35_" class="st7" d="M452.5 347.1c6.9 5 5.6 19.1 2.7 22 2.3 5.7 3.2 23.9-2.4 29.9-5.6 5.9-20.9 5.1-22.8-5-2.6-14.2 6.6-24.5 6.6-24.5s-5.4-9.7-2.8-17.9c2.6-8.2 11.8-9.5 18.7-4.5z"/><path id="XMLID_37_" class="st2" d="M443.6 366c-1.4 5.5 8 9.7 11.8 3.1"/><path id="XMLID_38_" class="st6" d="M443.4 378.9c-2.8.9-3.5 12.9 0 12.9s12.3-.7 15.8-1.2c3.5-.7 2-12.6-1.5-12.5-3.7-.1-11.5-.1-14.3.8z"/><path id="XMLID_152_" class="st6" d="m476.6 239.9-5.4-.3c-1.5 2.4-2.5 5.2-2.5 8.2 0 5 2.5 9.4 6.3 12.4 9.9-5.4 19.3-10.2 25.8-12.7-4.1-2.2-14-6.8-24.2-7.6z"/><path id="XMLID_151_" class="st6" d="M415.7 250.2c-1.4 2.4-2.2 5-2.2 7.9 0 8.5 6.9 15.4 15.4 15.4s15.4-6.9 15.4-15.4c0-7.3-5-13.3-11.7-14.9-.3.1-.6.1-.8.2-5.9 1.3-11.3 3.7-16.1 6.8z"/><circle id="XMLID_241_" class="st11" cx="275" cy="370.5" r="6.7"/><circle id="XMLID_249_" class="st11" cx="273.2" cy="397.2" r="6.7"/><circle id="XMLID_250_" class="st11" cx="268.5" cy="423.5" r="6.7"/><circle id="XMLID_251_" class="st11" cx="259.9" cy="448" r="6.7"/><circle id="XMLID_252_" class="st11" cx="245.2" cy="467.9" r="6.7"/><circle id="XMLID_245_" class="st11" cx="277.1" cy="340.7" r="6.7"/><circle id="XMLID_246_" class="st11" cx="330.8" cy="299.5" r="6.7"/><circle id="XMLID_247_" class="st11" cx="354.5" cy="298.9" r="6.7"/><circle id="XMLID_248_" class="st11" cx="377.7" cy="298.4" r="6.7"/><path id="XMLID_408_" class="st4" d="m245.2 417.6-31.6-1.7S193 434.2 193 438.4s5.7 10.3 10.8 6.1c-.9 4 4.8 11.8 9.8 5.8-.5 5.9 6.9 10.8 11.1 5.9-1.3 6 4.1 7.3 7.3 7.5 7.9-11 15.4-24.3 19.6-39.2l-6.4-6.9z"/><path id="XMLID_514_" class="st6" d="M205.1 415.6s21.1 14.2 43.1 19c.7-1.8 1.3-3.5 2-5.3-19.9-7.5-29.2-11.4-39.3-17.4-3.4 2.5-5.8 3.7-5.8 3.7z"/><path id="XMLID_515_" class="st3" d="M215.1 408.2c-1.6 1.4-3 2.5-4.4 3.6 10.2 6 19.4 9.9 39.3 17.4.5-1.5.9-2.9 1.4-4.4-17.7-6.7-26.4-10.5-36.3-16.6z"/><path id="XMLID_498_" class="st3" d="M222.7 400.4c-2.5 3-5.1 5.7-7.5 7.8 9.9 6 18.6 9.8 36.4 16.6.9-3.3 1.8-6.8 2.4-10.3-8.1-.7-20.8-3.7-31.3-14.1z"/><path id="XMLID_516_" class="st5" d="M255.1 392.7c-.1-.9-.1-1.8-.2-2.7-5.4-.9-13.1-2.3-23.9-4-2 5.5-5 10.3-8.4 14.3 10.5 10.4 23.2 13.4 31.2 14.1 1.3-6.8 1.8-14.2 1.3-21.7z"/><path id="XMLID_513_" class="st4" d="M228.9 388.3c0 9.2 8.9 16.7 19.8 16.7 2.3 0 4.3-.3 6.4-.9.2-3.7.2-7.5 0-11.3-.5-7.4-.8-14.2-1-20.6-1.7-.4-3.5-.7-5.3-.7-11 .1-19.9 7.5-19.9 16.8z"/><path id="XMLID_268_" class="st2" d="m203.8 444.6 15-21.1"/><path id="XMLID_269_" class="st2" d="m213.6 450.4 14.2-22.6"/><path id="XMLID_270_" class="st2" d="m224.7 456.3 11.3-25.2"/><path id="XMLID_520_" class="st4" d="M216 499c-5.5.4-10 .3-13 .1-5.9 6.4-10.2 14.7-9.9 23.1.5 11.9 9 16.2 18.7 15.5 9.7-.8 11.3-7.6 11.3-12.4s-3.6-7-7.4-7.7c-3.8-.8-4.7.8-5.8 3.7s4.6 4.8 1.8 6.8c-4.7 3.4-10.2-4.3-6.9-13.1 2.2-5.8 7.5-12.2 11.2-16z"/><path id="XMLID_521_" class="st6" d="M418.3 350.2c-1.9 0-3.6.5-5.2 1.2.1 5.8.3 12.6.5 20.1 1.4.7 3 1 4.7 1 6.2 0 11.2-5 11.2-11.2s-5-11.1-11.2-11.1z"/><path id="XMLID_400_" class="st6" d="M553.1 396.8s-5-3.6-13-5.1c-8-1.5-20.1.1-20.1.1s1.4 6.3 4.2 8.2c2.8 1.9 6.6.8 6.6-2.2.9 3.2 6.6 4.3 6.6-.3.3 4.2 4.1 6.1 6.9 1.9-.3 4.2 3.4 5.4 5.4 3.3 1-1.1 1.2-1.8 3.4-5.9z"/><path id="XMLID_401_" class="st2" d="m530.7 397.8-1.2-6.7"/><path id="XMLID_529_" class="st2" d="M537.3 397.6v-6.2"/><path id="XMLID_531_" class="st2" d="m544.3 399.5 1.3-6.2"/><path id="XMLID_534_" class="st6" d="M562.3 366.6c-.2 2.7-.7 5.1-1.4 5.9-.4.5-1.4 1.1-2.8 1.9h0s6.9-.5 14.3-1l-.7-8.9c-3.8.7-7.3 1.6-9.4 2.1z"/><path id="XMLID_535_" class="st6" d="M591.4 361.8c-.8-.8-7.4.2-14.1 1.6l.9 9.5c5.9-.5 11.1-1 12.3-1.5 2.8-1.2 2.8-8 .9-9.6z"/><path id="XMLID_28_" class="st2" d="m561.7 370.6 27.9-3.7"/><path id="XMLID_536_" class="st6" d="m571.7 364.5.7 8.9c1.9-.2 3.9-.3 5.8-.5l-.9-9.5c-1.9.2-3.8.7-5.6 1.1z"/><path id="XMLID_533_" class="st6" d="m510.1 367.5 1.1 11.5c1.6-.3 3.2-.5 4.8-.8l-1.1-10.8c-1.5 0-3.2 0-4.8.1z"/><path id="XMLID_61_" class="st4" d="M486.9 434.2c2.9-2 2.6-9.1 1.5-16.2-3.4-1.9-7-3.9-10.5-5.8-1.1 4.8-3.6 10.2-8.9 13.3-6.8 4-14.4.8-19.6-2.2.1 1.2.1 2.5.2 3.7.2 2.8.3 5.8.5 8.9 12.8 5 31.7 1.8 36.8-1.7z"/><path id="XMLID_539_" class="st3" d="M469.1 425.4c5.3-3.1 7.7-8.4 8.9-13.3-9.9-5.8-19.4-11.6-24-14.4-.3.5-.7.9-.9 1.3-1.1 1.2-2.8 2.3-4.6 2.8.2 3.2.5 8.3.8 14.4.1 2.2.2 4.5.4 7 4.9 3.1 12.6 6.2 19.4 2.2z"/><path id="XMLID_540_" class="st5" d="M489.2 440.2c4.5-2.4 5.5-10.9 5.3-19-2-1-4-2.1-6.1-3.2 1.1 7.1 1.4 14.2-1.5 16.2-5.1 3.4-24 6.7-36.9 1.6l.3 5.7c12.8 5.4 31.4 2.6 38.9-1.3z"/><path id="XMLID_541_" class="st5" d="M502.1 424.8c-2.3-.9-4.8-2.2-7.5-3.6.2 8-.8 16.6-5.3 19-7.6 4-26.2 6.8-39 1.3.1 2.1.2 4.2.3 6.4 17.7 9.5 42.3 1.4 47.7-4.2 3.5-3.7 4-12.1 3.8-18.9z"/><path id="XMLID_80_" class="st5" d="M636.5 514.7c-3-.2-6 .4-6.7 1.8-1.4 2.8-6.6 30.7-5.2 34.3.6 1.5 3 2.5 5.8 2.9 5.7-16.5 6.2-32.5 6.1-39z"/><path id="XMLID_94_" class="st5" d="M643.7 518.2c-.8-2.1-4.1-3.2-7.2-3.4.1 6.5-.4 22.4-6.1 39 3.7.6 7.8 0 9.3-2 2.6-3.5 5.6-29.5 4-33.6z"/><circle id="XMLID_455_" class="st2" cx="688.9" cy="592.7" r="2.9"/><circle id="XMLID_456_" class="st2" cx="689.6" cy="565" r="2.9"/><circle id="XMLID_457_" class="st2" cx="686" cy="542.8" r="2.9"/><circle id="XMLID_458_" class="st2" cx="690" cy="647.9" r="2.9"/><circle id="XMLID_98_" class="st2" cx="689.6" cy="621.4" r="2.9"/><path id="XMLID_544_" class="st3" d="M700.5 684.9v-9.3c-3.6 2.7-9.4 4.1-15.6 4.1-5.6 0-10.3-1-13.4-3.3 0 2.7 0 6.1.1 9.2 8.7 3.6 21.6 2.3 28.9-.7z"/><path id="XMLID_549_" class="st6" d="M671.7 685.5c.1 4.1.3 7.5.3 7.5h28.6v-8.2c-7.4 3.1-20.3 4.4-28.9.7z"/><path id="XMLID_552_" class="st0" d="M781.4 348.1c-20.6 28.6-24.9 48.1-24.9 48.1l12.2 9.2s19.3-16 38.5-38.2c.1-.1.2-.3.3-.4l-24.7-20.5c-.6.5-.9 1.2-1.4 1.8z"/><path id="XMLID_553_" class="st1" d="M824.3 313.2s-21.4 6.1-41.6 33.1l24.7 20.5c18.8-22.1 16.9-53.6 16.9-53.6z"/><path id="XMLID_101_" class="st9" d="m777.3 365.1 18.4-22.2"/><path id="XMLID_102_" class="st9" d="m782.3 370.4 19.1-23.3"/><path id="XMLID_103_" class="st9" d="m789.1 374.5 17.3-21.7"/><path id="XMLID_557_" class="st2" d="M824.3 313.2s-21.4 6.1-41.6 33.1c-.5.6-.8 1.2-1.3 1.8-20.6 28.6-24.9 48.1-24.9 48.1l12.2 9.2s19.3-16 38.5-38.2c.1-.1.2-.3.3-.4 18.7-22.1 16.8-53.6 16.8-53.6z"/><path id="XMLID_110_" class="st4" d="M782.3 411.9c0-3.8-4.5-5.9-7.8-5.9.3-3.6-3.1-5.7-6.9-5.2 1.9-4.7-4.2-9.1-8.3-7.7 1.2-4.5-2.8-7.8-6.9-6.4-.3-4.7-1.4-6.9-6.9-6.9-2 0-7.3 8.1-15.5 21.1l37.4 27.4c9-8.7 14.9-15.2 14.9-16.4z"/><path id="XMLID_117_" class="st2" d="m752.6 386.7-7.9 10.7"/><path id="XMLID_125_" class="st2" d="m759.4 393.1-7.3 9.7"/><path id="XMLID_454_" class="st2" d="m767.7 400.9-7.8 8.2"/><path id="XMLID_459_" class="st2" d="m774.5 406.1-7.3 7.7"/><path id="XMLID_567_" class="st6" d="M618.9 347.1c-4.1 1.9-2.4 8.5.5 8.5-2.8.3-2.4 7.1 0 7.5-3.1.5-2.4 6 0 6-2.8.6-1.9 6.7.9 6.4 1-.1 4.5-.9 8.7-1.8l-2.3-28.4c-3.3.6-6.4 1.2-7.8 1.8z"/><path id="XMLID_568_" class="st7" d="M660.4 359.8c-2.6-15.9-20.6-15.6-20.6-15.6s-7.1.5-13.1 1.3l2.3 28.4c6.8-1.5 15.3-3.2 17.5-2.4 3.7 1.4 2.3 16.1 2.3 16.1 5.9-1.1 14.2-12 11.6-27.8z"/><path id="XMLID_563_" class="st2" d="m619.4 355.6 16.5-1.7"/><path id="XMLID_556_" class="st2" d="m619.4 363.2 19.3-2.9"/><path id="XMLID_565_" class="st2" d="m619.4 369.2 20.6-3.3"/><path id="XMLID_558_" class="st6" d="m684.9 449-21 4.1c-1.2 2.5-3 4.7-3 4.7s5.8 5 10.4 0c1.2 3.1 4.5.8 5-.8.9 1.5 5.9.8 5.5-1.9 1.7 1.9 6.9-.8 5.2-3.2-.5-.6-1.2-1.6-2.1-2.9z"/><path id="XMLID_564_" class="st8" d="M684.9 449c-3.9-5.7-9.6-12.4-10.6-18s-2.5-15.1-7.6-19.6-6.5-2.3-11.7-10.4c-5.2-8.1-3.7-25.3-8.4-29.4-3.7-1.4-23.4 3.9-26.2 4.1-.6 6.4 5.9 31 6.1 41.7-3.3 3.2-3.8 9-2.2 15.5 1.7 6.5 2.5 10.6 0 12.6.3-4.1-3.5-5.5-5.4-2.6s-2.2 8.9 3.3 11.5c5.5 2.6 11-4 11-7.9 0-4-4-12.3-3.3-17.9.7-5.7 5.5-5.7 8.4-5.7 2.9 0-1.8 11.5 9.5 16.7 11.3 5.2 16.8-2.3 16.8-2.3s7.4 3.9 0 10.8c.6 1.4.1 3.3-.8 5l21.1-4.1z"/><path id="XMLID_431_" class="st2" d="M626.4 417.4c3.1-3.6 11.5-4.2 16.3-1.3 4.8 2.9 5.9 10.5 5.9 10.5"/><path id="XMLID_435_" class="st2" d="m671.2 457.7-1.4-5.8"/><path id="XMLID_436_" class="st2" d="m676.2 456.9-1.5-6.1"/><path id="XMLID_437_" class="st2" d="m681.6 455-1.6-5.1"/><path id="XMLID_433_" class="st4" d="M664.6 448c7.4-7 0-10.8 0-10.8s-5.5 7.5-16.8 2.3-6.6-16.7-9.5-16.7-7.6 0-8.4 5.7 1.1 11.9 3.3 17.9c2.2 6 10.2 16 7.8 20.3s-5.7 1.7-9.4-.8c2.5 5.7 9.9 13.7 20.7 10.2s17.5-17.7 12.3-28.1z"/><path id="XMLID_554_" class="st2" d="M664.6 448c-3.1 1.9-6.5 0-6.5-1.5"/><path id="XMLID_561_" class="st0" d="M648.1 431.4c1.5 2.1 4 3.4 6.7 3.4 4.5 0 8.3-3.7 8.3-8.3 0-1.7-.6-3.3-1.4-4.7l-13.6 9.6z"/><path id="XMLID_562_" class="st1" d="M654.8 418.3c-4.5 0-8.3 3.7-8.3 8.3 0 1.8.6 3.5 1.6 4.8l13.5-9.5c-1.5-2.1-4-3.6-6.8-3.6z"/><circle id="XMLID_429_" class="st2" cx="654.8" cy="426.5" r="8.3"/><circle id="XMLID_430_" class="st2" cx="654.8" cy="426.5" r="3.3"/><path id="XMLID_137_" class="st6" d="M429.7 280.8c-6.7-2.5-13 6.9-13 6.9l15.6 29.7s12.6 1.4 14-4.9-10-29.2-16.6-31.7z"/><path id="XMLID_149_" class="st6" d="M409.8 289.5s3.9-5.1 8.8-3.2 17.5 26.7 16.6 31.1c-.9 4.4-10.7 2.3-10.7 2.3l-14.7-30.2z"/><path id="XMLID_153_" class="st6" d="M405.3 293.3c.8 4.1 12.3 25.8 14.9 27.7 2.6 1.9 7 1.7 7.2-2.5s-13.9-27.6-16.1-29.5c-2.4-1.9-6.7.2-6 4.3z"/><path id="XMLID_129_" class="st6" d="m331.6 248.2-6 3.9 9.1 15 6.2-3.6z"/><path id="XMLID_131_" class="st6" d="M322.3 233c-2 1.3-4 2.6-5.8 4l9.1 15.1 5.9-3.9-9.2-15.2z"/><path id="XMLID_132_" class="st6" d="m334.7 267.1 8.1 13.3c2.3-1.1 4.3-2.2 6.3-3.2l-8.3-13.7-6.1 3.6z"/><path id="XMLID_283_" class="st5" d="M313.7 502.9c-1 1.9-2.5 4.5-3.9 8.5 21.2 7.5 72.1 9.8 75.8 6.8 2-1.6 2.5-4.4 2.5-7.1-1.7-.8-3.6-1.7-5.5-2.6-20.9 3.9-51.2 2.4-68.9-5.6z"/><path id="XMLID_266_" class="st4" d="M347.1 523.7c26.7 2.4 32 4.1 41.2 2.4 6.5-1.2 8.8-6.7 9.5-11.1-2.9-1-6.1-2.4-9.5-3.9 0 2.5-.6 5.5-2.5 7.1-3.8 3-54.7.7-75.8-6.8-1.2 3.5-2.6 7.8-3.9 13.5 8.3-1.2 23.4-2.7 41-1.2z"/><path id="XMLID_410_" class="st3" d="M403.5 541.6c13.7-5 15.2-16.4 15.1-22-4.9-.4-11.6-1.3-20.7-4.6-.8 4.4-3 9.9-9.5 11.1-9.2 1.7-14.5 0-41.2-2.4-17.5-1.6-32.7 0-41.1 1.2-.2 1-.5 2-.7 3.1-1.2 5.7-1.7 10.9-1.8 15.8 4.7-3.8 13.7-8 29.9-8 29.3 0 51.6 12.5 70 5.8z"/><path id="XMLID_332_" class="st2" d="m406.3 654.6 10.7 31.6"/><path id="XMLID_333_" class="st2" d="m416.4 652.9 11.3 29.3"/><path id="XMLID_334_" class="st2" d="m425.1 649.6 13.2 28.8"/><path id="XMLID_310_" class="st4" d="M310.1 582.8s-11.6 7.6-11.6 11.9 6.6 7.8 12.7 5 4.5-15.7 6.9-16.8c2.4-1.1 30.6 10.5 30.6 10.5s-4.1 9.2-4 14.6c.3 6.4 11.5 6.9 14.9 3.6 3.3-3.3.8-19.3.8-19.3l-38.7-14.6-11.6 5.1z"/><path id="XMLID_347_" class="st7" d="M369.4 576c-3-3.1-50.6-13.2-54.5-10.8-1 .6-2.2 2-3.4 3.8l58.6 13.5c.4-3.1.3-5.5-.7-6.5z"/><path id="XMLID_348_" class="st4" d="M311.6 569.3c-3.4 5.1-7 13-7 13l61.8 18.9s3-10.9 3.8-18.4l-58.6-13.5z"/><path id="XMLID_422_" class="st6" d="M427.2 520.4c-1.7-.6-4.4-.5-8.7-.8.1 5.5-1.4 16.9-15.1 22-18.4 6.8-40.6-5.8-70.1-5.8-16.2 0-25.2 4.2-29.9 8-.3 14.8 4.1 24.4 8.2 25.6 5.5 1.4-2.5-10.4 41.1-12.1 43.6-1.7 49.7 7.9 63.1-1.2 13.5-9.3 16.2-34 11.4-35.7z"/><path id="XMLID_357_" class="st4" d="m321.6 644.9 2.2 8.3s9.9 1.1 19.4 2.3v-13.8c-10.6 1.4-21.6 3.2-21.6 3.2z"/><path id="XMLID_622_" class="st3" d="M343.2 641.7v13.8c4 .5 7.9.8 10.9 1.2l.8-16.3c-3.4.2-7.5.7-11.7 1.3z"/><path id="XMLID_320_" class="st6" d="M362.4 640.4c-.5-.5-2.3-.8-7.5-.1l-.2 5.1h8.3c0-2.5-.2-4.6-.6-5z"/><path id="XMLID_627_" class="st6" d="M354.2 656.7c3.2.4 5.6.6 6.1.6 1.1 0 1.9-2.8 2.3-6.2l-8.1-.8-.3 6.4z"/><path id="XMLID_628_" class="st6" d="m354.6 645.3-.2 4.8 8.1.8c.2-1.9.4-3.9.4-5.6h-8.3 0z"/><path id="XMLID_317_" class="st6" d="M311.6 674.6c1.9-7.7 5.3-20.1 8.3-23.3l-34.6-2.5c-4.6 10.8-7.8 19.1-7.8 20.5 0 2.1 15.9 3.9 34.1 5.3z"/><path id="XMLID_309_" class="st3" d="M320.7 655.5c-3.3 1.5-32.9.3-35.6-2.8-2.7-3.1-.8-9.8 3.7-11.9 4.5-2.1 35.7.2 37.8 3.8 2.1 3.7-2.6 9.4-5.9 10.9z"/><path id="XMLID_313_" class="st6" d="M272.8 677.6c-.5-2.3 1.2-6.2 4.7-8.4s80.9-.9 83.7 1.9 2.8 4.2 2.8 6.5-90.8 2.2-91.2 0z"/><path id="XMLID_290_" class="st4" d="M261.9 511.5c2.2 1.6.3 7.5 3.8 13.3 3.5 5.8 20.6 6.3 21.5 9.3.9 3 1 7.7-5 8.4-6 .7-30.4-4.3-34.3-3.7-4.1.7-7.5 2.7-9.7 3.4-6.1-5.3-9.4-21.4.3-25.9 9.7-4.5 10.9 0 11.6-2.4.8-2.8 2.4-4.2 4.7-4.6 2.3-.3 5 .5 7.1 2.2z"/><path id="XMLID_323_" class="st0" d="M280.4 507.1c-5.2 0-9.4 4.2-9.4 9.4 0 4.8 3.7 8.9 8.4 9.3l2.3-18.7h-1.3z"/><path id="XMLID_630_" class="st1" d="m281.6 507.2-2.3 18.7c.4 0 .7.1 1 .1 5.2 0 9.4-4.2 9.4-9.4 0-4.9-3.5-8.9-8.1-9.4z"/><circle id="XMLID_312_" class="st2" cx="280.4" cy="516.4" r="9.4"/><circle id="XMLID_314_" class="st6" cx="280.4" cy="516.4" r="4.1"/><path id="XMLID_444_" class="st2" d="M249.9 514.1c-.8 4.7 4.2 5.3 6.6 4.1"/><path id="XMLID_523_" class="st4" d="M85.1 487.8c-4.1 1.4-1.7 9.2 2.4 9.2 2 0 11.2-2.1 24.2-4-1-3.4-2.2-7.6-3.2-12.3-12.5 3.2-21.2 6.5-23.4 7.1z"/><path id="XMLID_524_" class="st4" d="M78.8 465.2c-2.8 1.7-1.9 9.3.5 9.3 1.2 0 13.4-1.4 27.6-1.9-.7-3.7-1.2-7.5-1.7-11.4-14.1 1.2-24.6 3-26.4 4z"/><path id="XMLID_525_" class="st4" d="M77.8 419.4c-4.2 0-2.6 8.4 1.2 8.9 1.9.3 13.5 4.1 25.9 8.6.4-4 .8-7.5 1.4-10.8-12.9-3.4-26.4-6.7-28.5-6.7z"/><path id="XMLID_526_" class="st4" d="M104.5 443.4c-14.4-1.7-25.8-2.1-27.4-2.1-2.6 0-3.1 8.1 0 10 2 1.2 12.5 1.4 27.5 3.5-.2-3.7-.3-7.6-.1-11.4z"/><path id="XMLID_527_" class="st4" d="M88.4 398.2c-3.6 0-5 4.4-2.4 7.9 1.2 1.6 11.2 7.5 21.6 13.4.9-4.1 2-7.3 2.9-9.7-11.9-6.7-20.9-11.6-22.1-11.6z"/><path id="XMLID_646_" class="st2" d="m210.5 494.1-.8 3.9"/><path id="XMLID_708_" class="st2" d="m216.6 494.1.2 4"/><path id="XMLID_714_" class="st2" d="m223.1 493.3.4 3.9"/><path id="XMLID_717_" class="st2" d="m228.9 492.1 1.1 4"/><path id="XMLID_719_" class="st2" d="m234.6 490.8 1.4 4.3"/><path id="XMLID_720_" class="st2" d="m240.1 488.5 2.2 4.2"/><path id="XMLID_721_" class="st2" d="m245.7 486.2 3 4.6"/><path id="XMLID_722_" class="st2" d="m252.9 483.2 3.1 3.7"/><path id="XMLID_724_" class="st2" d="m257.7 479.6 3.2 3.6"/><path id="XMLID_725_" class="st2" d="m263 476 3.6 3.6"/><path id="XMLID_726_" class="st2" d="m266.6 470.8 4.4 3.9"/><path id="XMLID_727_" class="st2" d="m272 465.7 4.3 4.3"/><path id="XMLID_728_" class="st2" d="m275.9 461.6 4.2 3.3"/><path id="XMLID_729_" class="st2" d="m278.9 457 4.7 3.1"/><path id="XMLID_730_" class="st2" d="m281.8 450.9 6.1 3.4"/><path id="XMLID_731_" class="st2" d="m285 444.6 4.7 2.6"/><path id="XMLID_732_" class="st2" d="m287.9 438.4 5.3 2.4"/><path id="XMLID_733_" class="st2" d="m290.5 432.8 5.4 1.7"/><path id="XMLID_734_" class="st2" d="m292.3 426.9 5.7 1.5"/><path id="XMLID_735_" class="st2" d="m294.8 420.6 6.2 1.6"/><path id="XMLID_736_" class="st2" d="m295.9 414.2 5.9 1.2"/><path id="XMLID_738_" class="st2" d="m297.5 407.9 4.3.1"/><path id="XMLID_739_" class="st2" d="M297.5 401.2h4.4"/><path id="XMLID_741_" class="st2" d="m297.5 393.8 4.3.3"/><path id="XMLID_745_" class="st2" d="m298.4 386.1 4.4.2"/><path id="XMLID_746_" class="st2" d="m298.4 379.1 5-.2"/><path id="XMLID_748_" class="st2" d="M298.7 372.1h4.7"/><path id="XMLID_750_" class="st2" d="m298.9 364.4 5.5.1"/><path id="XMLID_752_" class="st2" d="m299.6 356 4.8.4"/><path id="XMLID_753_" class="st2" d="m299.8 349.2 6.2.5"/><path id="XMLID_755_" class="st2" d="m300.6 341 6.1 1.8"/><path id="XMLID_761_" class="st2" d="m323.5 322.9 4.2 9"/><path id="XMLID_762_" class="st2" d="m330.8 321.5 3.5 10.1"/><path id="XMLID_766_" class="st2" d="m337.4 320.5 3.8 10.4"/><path id="XMLID_768_" class="st2" d="m344.8 320.5 3.1 9.8"/><path id="XMLID_772_" class="st2" d="m353 320.5 3.3 9.9"/><path id="XMLID_773_" class="st2" d="m360.8 320.5 2.7 8.7"/><path id="XMLID_778_" class="st2" d="m368.7 320.5 2.2 9.5"/><path id="XMLID_781_" class="st2" d="m375.9 320.5 2.4 10.4"/><path id="XMLID_783_" class="st2" d="m383 320.5 1.5 11.1"/><path id="XMLID_789_" class="st2" d="m420.3 257.8-.9 11.3"/><path id="XMLID_790_" class="st2" d="m425.4 258.8.8 13.5"/><path id="XMLID_792_" class="st2" d="m429.9 257.8 4.6 13.4"/><path id="XMLID_793_" class="st2" d="m434.5 256.2 5.6 10.5"/><path id="XMLID_794_" class="st2" d="m437.2 252.8 5.2 7.8"/><path id="XMLID_795_" class="st2" d="m475 246.4-3.8 9.4"/><path id="XMLID_796_" class="st2" d="m479.9 248.2-1.7 9.6"/><path id="XMLID_797_" class="st2" d="M484.8 249.9v4.8"/><path id="XMLID_798_" class="st2" d="m490 248.2 1.1 4.1"/><path id="XMLID_799_" class="st2" d="m293.2 440.8 9.7-5.2"/><path id="XMLID_800_" class="st2" d="m291 450.4 11.9-6.7"/><path id="XMLID_801_" class="st2" d="m303.5 450.9-12.5 7.5"/><path id="XMLID_802_" class="st2" d="m304.6 458.4-13.1 8.9"/><path id="XMLID_803_" class="st2" d="m306.2 465.8-13 8.9"/><path id="XMLID_804_" class="st2" d="m306.9 472.9-11 9.9"/><path id="XMLID_805_" class="st2" d="m308.7 479.6-9 10.2"/><path id="XMLID_806_" class="st2" d="m311.6 486.2-8.1 10"/><path id="XMLID_807_" class="st2" d="m315.1 490.6-5.3 9.9"/><path id="XMLID_808_" class="st2" d="m320.5 493.3-3.3 9.8"/><path id="XMLID_809_" class="st2" d="m326.4 496.2-1.8 9.1"/><path id="XMLID_810_" class="st2" d="m333.8 499-1.2 8.3"/><path id="XMLID_811_" class="st2" d="m341.5 499.6-.5 9.4"/><path id="XMLID_812_" class="st2" d="M349.1 500.8v8.5"/><path id="XMLID_813_" class="st2" d="M356.6 500.9v8.5"/><path id="XMLID_814_" class="st2" d="m363.2 500.9 2.6 8.9"/><path id="XMLID_815_" class="st2" d="m371.2 499.8 2.4 8.4"/><path id="XMLID_816_" class="st2" d="m378.3 498.2 3.8 9.1"/><path id="XMLID_817_" class="st2" d="m385.3 495.6 6 8.7"/><path id="XMLID_818_" class="st2" d="m391.3 492.9 8 8"/><path id="XMLID_819_" class="st2" d="m395.4 486.9 10.8 6.2"/><path id="XMLID_820_" class="st2" d="m397 479.1 12.5 4.9"/><path id="XMLID_821_" class="st2" d="m399.3 471.5 11.1 5.4"/><path id="XMLID_822_" class="st2" d="m400.8 462.1 11.3 5.2"/><path id="XMLID_823_" class="st2" d="m400.6 453.1 11.5 4.8"/><path id="XMLID_824_" class="st2" d="m400.8 443.7 11.3 4.4"/><path id="XMLID_825_" class="st2" d="m402.6 435.6 10.8 5.2"/><path id="XMLID_826_" class="st2" d="m402.6 427.7 10.8 5.1"/><path id="XMLID_827_" class="st2" d="m403.3 420.6 10.1 4.5"/><path id="XMLID_828_" class="st2" d="m403.3 412.5 8.8 3.4"/><path id="XMLID_829_" class="st2" d="m403.9 403.7 9.2 4.3"/><path id="XMLID_830_" class="st2" d="m403.5 396.4 9.7 3.6"/><path id="XMLID_831_" class="st2" d="m403.9 388.2 9.5 3.8"/><path id="XMLID_832_" class="st2" d="m403.9 381.4 9.2 4.4"/><path id="XMLID_833_" class="st2" d="m403.5 373.2 9.9 4.7"/><path id="XMLID_834_" class="st2" d="m403.5 364.4 8.6 5"/><path id="XMLID_835_" class="st2" d="m401.9 356 10.2 4.2"/><path id="XMLID_836_" class="st2" d="m401.9 348.5 10.2 4.8"/><path id="XMLID_837_" class="st2" d="m398.2 338.9 13.9 7.9"/><path id="XMLID_838_" class="st2" d="m400.6 328.6 11.5 12"/><path id="XMLID_839_" class="st2" d="m403.5 320.7 9.6 12"/><path id="XMLID_840_" class="st2" d="m408.3 314.5 6.7 10.8"/><path id="XMLID_841_" class="st2" d="m416.6 363.6 1.3 8.1"/><path id="XMLID_842_" class="st2" d="m420.7 361.7 3.6 7.9"/><path id="XMLID_843_" class="st2" d="m424.3 359.2 4 5.7"/><path id="XMLID_844_" class="st2" d="m426.2 419.8-2.4 7.6"/><path id="XMLID_845_" class="st2" d="m430.6 419.8-.8 11.3"/><path id="XMLID_846_" class="st2" d="m434.4 419.8 2.5 10.4"/><path id="XMLID_847_" class="st2" d="m438.9 418 3.1 8.9"/><path id="XMLID_848_" class="st2" d="m427.4 481.1-3.6 7"/><path id="XMLID_849_" class="st2" d="m430.8 482-1.4 10.9"/><path id="XMLID_850_" class="st2" d="m435 481.5 1.6 11.8"/><path id="XMLID_851_" class="st2" d="m438.7 480.6 3.2 8.7"/><path id="XMLID_852_" class="st2" d="m423.4 525.8 5.8 1"/><path id="XMLID_853_" class="st2" d="m421.5 531.8 7.2 2.3"/><path id="XMLID_854_" class="st2" d="m420.2 537 6.6 4"/><path id="XMLID_855_" class="st2" d="m416.6 542.5 5.6 4.9"/><path id="XMLID_856_" class="st2" d="m411.4 547 4.6 7.4"/><path id="XMLID_857_" class="st2" d="m404.8 548.8 1.4 10.5"/><path id="XMLID_858_" class="st2" d="m397.6 549.6.2 10"/><path id="XMLID_859_" class="st2" d="M388.3 548.9v9.4"/><path id="XMLID_860_" class="st2" d="m380.9 548.3.2 9.1"/><path id="XMLID_861_" class="st2" d="m310.1 554.6 4.1 11.2"/><path id="XMLID_862_" class="st2" d="m317.2 550.8 3.3 10.8"/><path id="XMLID_863_" class="st2" d="m324.6 548.3 2.8 12"/><path id="XMLID_864_" class="st2" d="m331.9 547.4 1.9 10.9"/><path id="XMLID_865_" class="st2" d="m339.4 546.8 1.8 10.6"/><path id="XMLID_866_" class="st2" d="m347.5 545.7 1.6 10.5"/><path id="XMLID_867_" class="st2" d="m354.5 545.7 1.3 10.2"/><path id="XMLID_868_" class="st2" d="M364.2 545.4V556"/><path id="XMLID_869_" class="st2" d="m372.4 547.3.2 8.9"/><path id="XMLID_870_" class="st2" d="m626.7 381.6 2.4 11.5"/><path id="XMLID_871_" class="st2" d="m634.3 379.7 2.3 11.5"/><path id="XMLID_872_" class="st2" d="m641.8 378.7 2.4 11.5"/><path id="XMLID_873_" class="st2" d="m630.7 400.8 3.6 9.1"/><path id="XMLID_874_" class="st2" d="m639.2 399.9 3.5 9.1"/><path id="XMLID_875_" class="st2" d="m647.7 398.9 3.5 9.2"/><path id="XMLID_715_" class="st4" d="m395.8 380.7-66.7-40c-4.7.9-8.4 2.2-10.5 3.7l77.2 46.3c.1-3.4.1-6.7 0-10z"/><path id="XMLID_448_" class="st4" d="m379.7 409.4 7.1 4.1 4.8-7-7.1-4.2z"/><path id="XMLID_711_" class="st4" d="m379.7 409.4 4.8-7.1-11.9-7.2-4.8 7.1z"/><path id="XMLID_712_" class="st4" d="m347 389.8 13.8 8.3 4.8-7.2-13.8-8.3z"/><path id="XMLID_718_" class="st4" d="m367.8 402.2 4.8-7.1-7-4.2-4.8 7.2z"/><path id="XMLID_644_" class="st4" d="m365.4 362.5-7-4.2-12.4-7.4-4.8 7.1 12.4 7.4 7 4.2 13.8 8.3 4.8-7.1z"/><path id="XMLID_723_" class="st4" d="m332.5 371.1-4.8 7.1 12.3 7.3 4.8-7.1z"/><path id="XMLID_697_" class="st4" d="m345.9 434.7-7-4.2-13.9-8.3-4.8 7.2 13.9 8.2 6.9 4.2 12 7.2 4.7-7.2z"/><path id="XMLID_701_" class="st4" d="m349.1 469.3-7-4.2-12-7.2-4.8 7.1 12 7.2 7 4.1 15.1 9.2 4.8-7.2z"/><path id="XMLID_698_" class="st4" d="m378.4 425.9-7-4.2-12-7.1-4.8 7 12 7.2 7 4.2 15.2 9.1 4.8-7.1z"/><path id="XMLID_648_" class="st4" d="m338.6 402.1-7-4.2-12.3-7.4-4.9 7.1 12.4 7.4 7 4.2 13.8 8.3 4.9-7.1z"/><path id="XMLID_737_" class="st4" d="m332.5 371.1-7-4.3-4.8 7.2 7 4.2z"/><path id="XMLID_703_" class="st4" d="m379.9 455.1-15.1-9-4.8 7 15.1 9.2 7 4.1 4.8-7z"/><path id="XMLID_740_" class="st4" d="m349.1 469.3 15.1 9 10.9-16-15.1-9.2z"/><path id="XMLID_742_" class="st4" d="M313.2 425.1h0z"/><path id="XMLID_743_" class="st4" d="m353 449-12-7.2-10.9 16.1 12 7.2z"/><path id="XMLID_744_" class="st4" d="M381.1 488.5c2.9-1.7 5.2-3.8 6.5-6.5 1.1-2.2 2.1-5.8 3-10.5l-8.5-5.1-10.9 16.1 9.9 6z"/><path id="XMLID_747_" class="st4" d="m320.2 429.4-6.8 10c.1 3 .2 5.9.3 8.8l9.3 5.7 10.9-16.1-13.7-8.4z"/><path id="XMLID_749_" class="st4" d="m354.6 421.6-8.7 13.1 11.8 7.1 8.9-13z"/><path id="XMLID_751_" class="st4" d="M313.5 397c0 .7 0 1.4-.1 2.1l1-1.5-.9-.6z"/><path id="XMLID_754_" class="st4" d="M392.1 462.4c.5-3.9.9-8.2 1.4-12.7l-6.5 9.7 5.1 3z"/><path id="XMLID_756_" class="st4" d="m314.4 397.6-1 1.5-.3 16 4.8 2.9 8.8-13-12.3-7.4z"/><path id="XMLID_757_" class="st4" d="m364.8 446.1 15.1 9 8.9-13-15.2-9.1z"/><path id="XMLID_758_" class="st4" d="m347.6 417.5-13.8-8.3-8.8 13 13.9 8.3z"/><path id="XMLID_759_" class="st4" d="M314.4 458.5c.2 2.5.5 4.9.7 7.2l3.2-4.8-3.9-2.4z"/><path id="XMLID_760_" class="st4" d="m344.3 476.3-9.1 13.4c5.8 1.7 12.5 2.8 19.1 3.2l5.1-7.5-15.1-9.1z"/><path id="XMLID_763_" class="st4" d="m337.3 472.2-9.9 14.7c2.4 1.1 5 2.1 7.8 2.9l9.1-13.4-7-4.2z"/><path id="XMLID_764_" class="st4" d="m370.6 492.1-4.1-2.5-2.3 3.3c2.2-.2 4.3-.3 6.4-.8z"/><path id="XMLID_765_" class="st4" d="m325.3 465-8.1 12c.5 1.5 1 2.7 1.6 3.6 1.7 2.4 4.7 4.4 8.6 6.3l9.9-14.7-12-7.2z"/><path id="XMLID_767_" class="st4" d="M395.7 408.9c.1-3 .1-5.9.2-8.9l-4.3 6.4 4.1 2.5z"/><path id="XMLID_769_" class="st4" d="m391.6 406.5 4.3-6.4c0-3.1.1-6.2.1-9.2l-2.5-1.5-8.8 13 6.9 4.1z"/><path id="XMLID_770_" class="st4" d="m351.8 382.6 13.8 8.3 8.8-13-13.8-8.3z"/><path id="XMLID_771_" class="st4" d="M318.7 344.5c-.9.7-1.5 1.4-1.8 2.2-.6 1.8-1.1 6.9-1.7 14.1l10.3 6.1 8.8-13-15.6-9.4z"/><path id="XMLID_774_" class="st4" d="m384.5 402.3 8.9-13.1-12-7.2-8.8 13.1z"/><path id="XMLID_775_" class="st4" d="M394.5 435.6c.1-.8.1-1.5.1-2.3l-1.1 1.7 1 .6z"/><path id="XMLID_776_" class="st4" d="m393.6 435 1.1-1.7c.3-4.8.6-9.6.8-14.6l-8.7-5.2-8.4 12.4 15.2 9.1z"/><path id="XMLID_777_" class="st4" d="m371.4 421.7 7 4.2 8.4-12.4-7.1-4.1z"/><path id="XMLID_779_" class="st4" d="M314.5 370.3c-.3 4.1-.5 8.8-.7 13.6l6.7-9.9-6-3.7z"/><path id="XMLID_780_" class="st4" d="m359.4 414.6 12 7.1 8.3-12.3-11.9-7.2z"/><path id="XMLID_782_" class="st4" d="m347 389.8-8.4 12.3 13.9 8.3 8.3-12.3z"/><path id="XMLID_784_" class="st4" d="m340 385.5-12.3-7.3-8.4 12.3 12.3 7.4z"/><path id="XMLID_785_" class="st4" d="m358.4 358.3 13.5-20c-5.4-.2-11.3-.3-17.4-.1l-8.6 12.6 12.5 7.5z"/><path id="XMLID_786_" class="st4" d="m365.4 362.5 15.9-23.5c-2.7-.3-5.9-.5-9.4-.7l-13.5 20 7 4.2z"/><path id="XMLID_787_" class="st4" d="m379.2 370.8 14.6-21.7c-.8-4.5-1.6-7.5-2.7-8.1-1.5-.8-5.1-1.6-9.8-2.1l-15.9 23.5 13.8 8.4z"/><path id="XMLID_788_" class="st4" d="m329.2 340.8 9.9 5.9 5.4-7.9c-5.6.4-10.9 1.1-15.3 2z"/><path id="XMLID_449_" class="st4" d="m393.9 349.1-14.6 21.7-4.8 7.1-8.8 13 7 4.1 8.8-13 4.8-7.1 9-13.2c-.5-4.9-.9-9.2-1.4-12.6z"/><path id="XMLID_645_" class="st4" d="m344.4 338.8-5.4 7.9-4.8 7.1-8.8 13 7 4.1 8.8-13 4.8-7.1 8.6-12.6c-3.4.2-6.9.3-10.2.6z"/><path id="XMLID_791_" class="st4" d="M395.8 380.7c-.1-7-.4-13.4-.8-19l-9 13.2 9.8 5.8z"/><path id="XMLID_713_" class="st4" d="M315.2 360.7c-.2 2.9-.5 6.1-.7 9.6l80.8 48.4c.1-3.3.2-6.5.3-9.8l-80.4-48.2z"/><path id="XMLID_647_" class="st4" d="m353.6 365.4-8.8 13-4.8 7.1-8.4 12.4 7 4.2 8.4-12.3 4.8-7.2 8.8-13z"/><path id="XMLID_709_" class="st4" d="m313.2 425.1 77.4 46.4c.5-2.7 1-5.8 1.4-9.1l-78.8-47.3v10z"/><path id="XMLID_710_" class="st4" d="m314.4 458.5 56.1 33.7c4-.8 7.6-2 10.6-3.7l-67.3-40.4c.1 3.7.4 7.1.6 10.4z"/><path id="XMLID_716_" class="st2" d="m313.5 397 80.4 48.1c.3-3.1.5-6.3.7-9.6l-80.7-48.4c-.2 3.3-.3 6.6-.4 9.9z"/><path id="XMLID_705_" class="st4" d="m320.7 374-6.7 9.9c0 1.1-.1 2.2-.1 3.3-.1 3.2-.2 6.5-.3 9.8l.9.6 4.8-7.1 8.4-12.4-7-4.1z"/><path id="XMLID_704_" class="st4" d="m360.8 398.1-8.3 12.3-4.9 7.1-8.7 13 7 4.2 8.7-13.1 4.8-7 8.4-12.4z"/><path id="XMLID_706_" class="st4" d="m393.6 435-4.8 7.1-8.8 13 7 4.1 6.5-9.7c.1-1.4.3-2.9.4-4.4.3-3.1.5-6.3.7-9.6l-1-.5z"/><path id="XMLID_688_" class="st4" d="m326.8 405-8.8 13-4.8 7.1h0c0 4.8.1 9.6.2 14.1l6.8-10 4.8-7.1 8.8-13-7-4.1z"/><path id="XMLID_699_" class="st4" d="m366.6 428.8-8.9 13-4.7 7.2-10.9 16.1 7 4.2 10.9-16.2 4.8-7 8.8-13.1z"/><path id="XMLID_702_" class="st4" d="m375.1 462.3-10.8 16-4.8 7.1-5.1 7.5c3.3.2 6.7.2 9.9-.1l2.3-3.3 4.8-7.1 10.9-16.1-7.2-4z"/><path id="XMLID_700_" class="st4" d="m334.1 437.6-10.9 16.1-4.8 7.1-3.2 4.8c.6 4.7 1.2 8.6 2.1 11.4l8.1-12 4.8-7.1 10.9-16.1-7-4.2z"/></svg>