<svg version="1.1" id="Calque_1" xmlns="http://www.w3.org/2000/svg" x="0" y="0" viewBox="0 0 900 900" style="enable-background:new 0 0 900 900" xml:space="preserve"><style>.st0,.st1,.st2,.st3{fill:#fff;stroke:#000;stroke-width:4.0682;stroke-linecap:round;stroke-linejoin:round;stroke-miterlimit:10}.st1,.st2,.st3{fill:none}.st2,.st3{fill:#ff7300}.st3{fill:#ffce00}.st4{fill:none}.st5{fill:#fff}.st6{fill:red}.st7{fill:#ffce00}.st8{fill:#ff7300}.st10,.st11,.st14,.st9{fill:#097700;stroke:#000;stroke-width:4.0682;stroke-linecap:round;stroke-linejoin:round;stroke-miterlimit:10}.st10,.st11,.st14{fill:red}.st11,.st14{fill:#ff3c00}.st14{fill:#682c00}</style><path class="st0" d="M655.7 556.5s-23.1 15.6-36.6 13.6c-13.6-2-63.7-29.8-63.7-29.8L505.9 421l35.9-33.9 37.3-2 88.8 118-12.2 53.4z"/><path class="st1" d="m566.2 502.2 66.5-8.8M610.3 515.8l37.3-7.5M631.9 557.4l5.5 7.2M637.6 554.5l5 7.7M643.5 552l4.5 6.8"/><path class="st0" d="m376.8 451.9-18 .1-2.7 14.9-6.1 14.2.7 23.1 25.4.7-1.7-14.2s-12.8-13.3 2.4-38.8z"/><path class="st2" d="m551.3 491.4-10.2-19.7-10.8-21-153.5 1.2c-15.2 25.5-2.4 38.8-2.4 38.8l1.7 14.2L527 509l24.3-17.6z"/><path class="st1" d="M357.6 482.9h4.5M356.7 476.5h6.3M358 469.3h5M359 462l5.8.9"/><path class="st0" d="M490.9 458.9s17.6 25.8 6.1 44.3c-17 10.4-41.8-7.3-41.8-7.3l-1.8-36.6 37.5-.4z"/><path class="st2" d="M636.6 401.7 583 429.9c1.8 3.8 3.7 7.7 5.7 11.9l54.6-29.8c-2.3-3.7-4.6-7.1-6.7-10.3z"/><path class="st0" d="M622.5 382.2c-8.8-6.8-55.6 12.2-55.6 12.2s6.2 14.5 16.1 35.5l53.6-28.2c-7-10.6-12.2-18-14.1-19.5zM643.3 412.1l-54.6 29.8c2.4 4.9 4.9 10 7.5 15.3l55.7-31.5c-2.9-4.8-5.8-9.4-8.6-13.6z"/><path class="st2" d="m652 425.6-55.7 31.5c13.8 27.5 31.1 59.3 48.2 84.1l52.7-42.2c-11.5-18.9-29.6-48.6-45.2-73.4z"/><path class="st0" d="M644.5 541.2c3.8 5.4 7.5 10.6 11.3 15.3 28.5-6.1 52.8-38.6 52.8-38.6s-4.5-7.5-11.4-18.8l-52.7 42.1z"/><path class="st1" d="m655.7 541.6 9.5 11.5M664.6 534.8l10.1 13.6M672 529.4l8.8 12.2M680.2 523.3l10.1 12.8M686.9 517.8l8.9 12.2M693.7 512.4l8.8 11.5"/><path class="st0" d="M609 591.7s35.9 79.3 40 81.4c4.1 2 17-2.7 20.3-7.5-21.7-29.8-49.5-81.4-49.5-81.4s51.5 61 58.3 61.7c6.8.7 14.9-10.8 12.9-21.7-32.5-11.5-64.4-53.6-64.4-53.6L609 591.7z"/><path class="st0" d="M584.6 571.4s13.6 17 19 28.5c19-9.5 27.8-33.2 27.8-33.2L608.3 545l-23.7 26.4z"/><path class="st3" d="M522.2 577.5s7.5 25.1 14.9 30.5c7.5 5.4 25.8 3.4 33.9-2s19.7-34.6 19.7-34.6l-25.1-25.8-43.4-6.8-14.9 15.6 14.9 23.1z"/><path class="st3" d="M552 559.9s-8.8 8.8-8.1 12.9 6.1 7.5 10.8 5.4c4.7-2 8.1-12.2 8.1-12.2l18.3 5.4s-3.4 12.9-.7 17 12.9.7 14.9-2.7c2-3.4 0-18.3 0-18.3L579 555.9l-27 4z"/><path class="st0" d="M556.1 561.2s8.8 19.7 31.2 12.2 19-23.7 19-23.7l-17-10.8-28.5 2.7-4.7 19.6z"/><path class="st1" d="M564.1 546.6s2.2 8.6 16.3 13.6c14 4.9 23.9-1.8 23.9-1.8M565.1 570.5l4.9-7.2M573.2 572.8l3.2-6.8M580.9 573.2l1.3-5.4M590.7 571.4l.6-4.9"/><path class="st4" d="M631.4 500.2c-.7-.3-1.4-.5-2.1-.8-.3 3.5-1.1 6.6-1.6 8.3.6-1.5 1.7-4.2 3.7-7.5zM647.3 507.6c-1.5-.8-3.1-1.6-4.9-2.5-1.9 6.3-3.6 11.4-3.6 11.4s3.8-4.4 8.5-8.9z"/><path class="st5" d="M621.8 483.9c0 3.9-.3 8.3-.8 12.8 2.8.7 5.6 1.6 8.3 2.6.4-5.5-.8-12.2-7.5-15.4z"/><path class="st6" d="M591.3 521.9c1.3-.9 3.5-1.6 6-2.2-1-3.1-3.1-7.8-6.5-10.7h-.1c-5 0-9.2 3.1-12.2 6.6 3.3 1.4 7.7 5.3 10.8 8.2.5-.7 1.2-1.3 2-1.9z"/><path class="st5" d="M597.3 519.7c5.3-1.3 11.7-1.9 11.7-1.9s-6.7-8.7-18.2-8.8c3.5 2.9 5.5 7.8 6.5 10.7zM646.9 483.9c-7.6 5.3-12.5 11.4-15.5 16.3 3.9 1.5 7.6 3.2 10.9 4.9 2.3-7.4 4.6-16.4 4.6-21.2z"/><path class="st1" d="M627.7 507.7c-.3.9-.5 1.4-.5 1.4s.2-.5.5-1.4z"/><path class="st5" d="M660.5 497.5c-3.3 1-8.7 5.6-13.2 10.1 3.6 1.9 6.4 3.7 8.3 4.7 2.3-4.9 3.9-9.9 4.9-14.8z"/><path class="st6" d="M647.3 507.6c-4.7 4.5-8.5 8.9-8.5 8.9s1.8-5.1 3.6-11.4c-3.3-1.6-7.1-3.3-10.9-4.9-2 3.3-3.2 6-3.7 7.5-.3.9-.5 1.4-.5 1.4s.1-.5.5-1.4c.5-1.7 1.4-4.8 1.6-8.3-2.7-1-5.5-1.9-8.3-2.6-.6 5.6-1.6 11.3-3 15.7 14.7.9 24.3 8.3 28.9 13 3.5-4.3 6.4-8.7 8.5-13.2-1.9-1-4.7-2.8-8.2-4.7z"/><path class="st7" d="M618 512.6c-.9 3.1-1.9 5.7-3.1 7.3-4.1 6.1-21 12.9-25.1 11.5-3.3-1.1-3.1-4.7-.7-7.5-3.1-2.9-7.5-6.8-10.8-8.2-3.9 4.5-6.1 9.7-6.1 9.7l-17.6 2-.7 19 18.3 2s18.3 10.8 45.4-1.4c12.9-5.8 22.4-13.3 29.2-21.5-4.5-4.6-14-12.1-28.8-12.9z"/><path class="st1" d="M572.4 525.3s6.8-16.3 18.3-16.3 18.3 8.8 18.3 8.8-13.6 1.4-17.6 4.1c-4.1 2.7-5.4 8.1-1.4 9.5 4.1 1.4 21-5.4 25.1-11.5s6.8-23.7 6.8-35.9c12.9 6.1 5.4 25.1 5.4 25.1s4.1-14.2 19.7-25.1c0 8.8-8.1 32.5-8.1 32.5s14.9-17 21.7-19c-3.4 17.6-15.6 37.3-42.7 49.5-27.1 12.2-45.4 1.4-45.4 1.4l-18.3-2 .7-19 17.5-2.1z"/><path class="st8" d="M634.1 675.8c-4.1-18.3-10.2-54.9-41.4-47.5-13.5 3.7-14.6 12.8-14.5 17 4.9-1.3 28.8-7 35.7 1.2 7.7 9 7.7 39.5 18.3 55.6 3.7 5.6 11.6 10.2 17.7 13.2 2.8-.3 5.6-1.2 8.5-2.8-10.1-6.2-20.3-18.4-24.3-36.7z"/><path class="st1" d="m634.7 708 17.6.4M632.2 702.1l13.8-.5M627.5 695.3l12.9-.2M624.3 687.1h12.2M622.1 679.5h12.2M619.7 670l11.2.4M618.4 661.4l10.6.5M613.9 654.1l12.9-1.5M611.2 649.6l11.9-6.7M607.1 646.5l8.2-12.2M601.7 644.2l3.1-15.2M594 643.3l1.3-15.3M585.8 645.1v-13.8"/><path class="st5" d="M632.2 702.1c-10.6-16.1-10.6-46.6-18.3-55.6-6.9-8.1-30.9-2.4-35.7-1.2.1 1.3.3 2 .3 2l33.2 41.4s17.4 29 38.2 26.6c-6.1-3-14-7.6-17.7-13.2z"/><path class="st1" d="M592.7 628.4c31.2-7.5 37.3 29.2 41.4 47.5s14.2 30.5 24.4 36.6c-24.4 13.6-46.8-23.7-46.8-23.7l-33.2-41.4c0-.1-3.4-14.3 14.2-19z"/><path class="st3" d="M511.3 625s12.9-16.3 29.2-19.7 36.6-2 45.4 6.8 19 38.6 19 38.6l-35.3 1.4-39.3 6.1-19-33.2z"/><path class="st4" d="M636.4 754.1c.8-1.2 1.6-2.3 2.3-3.5-4.5-2.3-8.1-2.9-8.1-2.9s2.8 2.6 5.8 6.4zM584.6 761.6c1.3-.6 2.4-1.2 3.5-1.7-1.9-.5-3.7-1.4-5.5-2.7.2 1.7.9 3.2 2 4.4z"/><path class="st7" d="M606.3 726c-4.7-4.1-1.4-10.8-1.4-10.8v-21l-38.6-6.8.7 19.7s-2.9 19.9-1.6 37c4.9 2 10.4 3 14.4 3.4-.2-2.8-.1-5.9.7-9.2-.8 3.3-.9 6.3-.7 9.2 3.3.3 5.5.3 5.5.3s-2.2 0-5.5-.3c.3 4.3 1.6 7.8 2.8 9.8 1.8 1.3 3.6 2.1 5.5 2.7 8.5 2.6 18.1-.5 25.3 2.5 10.2-11.3 13.4-22.6 14.3-28.9-9.2-2.8-18.8-5.3-21.4-7.6z"/><path class="st5" d="M605.6 775.5c-.5-7.5-15.3-7.1-21-14-3.2 1.4-7.2 3-11.9 4.3 9.5 11.3 22.8 12.2 32.9 9.7z"/><path class="st6" d="M579.7 747.4c-3.9-.4-9.4-1.4-14.4-3.4.6 7.5 2 14.3 4.9 18.6.7 1.2 1.6 2.2 2.4 3.2 4.7-1.2 8.7-2.8 11.9-4.3-1-1.2-1.8-2.6-2-4.3-1.3-2-2.5-5.6-2.8-9.8z"/><path class="st5" d="M644.2 740.2c-.1-.1-.3-.2-.4-.3-.9 2.6-2.4 6.3-5.2 10.6 6.4 3.3 14.6 10.2 17 24.2 7.6-12.8-4.6-29-11.4-34.5zM620.1 770.4c1.7 6.6-1.2 15.1-6.4 19.3 21.7-9.5 17.6-28.5 17.6-28.5s8.1 9.5 4.1 21.7c14.7-7.3 7.3-21 1-28.9-3.7 5.2-8.9 10.9-16.3 16.4z"/><path class="st6" d="M627.5 733.5c-.9 6.2-4 17.5-14.3 28.9.6.3 1.2.5 1.8.9 2.7 1.6 4.3 4.2 5 7.1 7.4-5.5 12.6-11.2 16.3-16.3-3-3.8-5.8-6.4-5.8-6.4s3.6.6 8.1 2.9c2.7-4.3 4.3-8.1 5.2-10.6-3.1-2.3-9.5-4.4-16.3-6.5z"/><path class="st1" d="M566.9 707s-6.1 41.4 3.4 55.6c9.5 14.2 24.4 15.6 35.3 12.9-.7-8.8-21-6.8-23.1-18.3 10.2 7.5 23.7.7 32.5 6.1 8.8 5.4 6.1 20.3-1.4 26.4 21.7-9.5 17.6-28.5 17.6-28.5s8.1 9.5 4.1 21.7c21.7-10.8-4.7-35.3-4.7-35.3s21 3.4 25.1 27.1c7.5-12.9-4.7-29.2-11.5-34.6s-33.2-10.2-38-14.2-1.4-10.8-1.4-10.8v-21l-38.6-6.8.7 19.7z"/><path class="st1" d="M617.8 744.3s5.4 1.4 12.9 3.4M614.4 754.5s6.1-2 17 6.8M579.7 747.4c.3 4.3 1.6 7.8 2.8 9.8 1.8 1.3 3.6 2.1 5.5 2.7"/><path class="st1" d="M579.7 747.4c.3 4.3 1.6 7.8 2.8 9.8 1.8 1.3 3.6 2.1 5.5 2.7M579.7 747.4c-.2-2.8-.1-5.9.7-9.2-.7 3.3-.9 6.4-.7 9.2"/><path class="st3" d="M558.8 688.7s-10.8 13.6-9.5 20.3 8.1 7.5 14.2 5.4c6.1-2 7.5-16.3 7.5-16.3l8.1 1.4s-4.1 15.6-.7 20.3c3.4 4.7 12.9 4.1 15.6-1.4 2.7-5.4-2-18.3-2-18.3l7.5-4.1s-.7 17.6 4.1 21.7c4.7 4.1 15.6-.7 16.3-8.1s-8.1-21-8.1-21l-27.1-1.4-25.9 1.5z"/><path class="st2" d="M557.4 668.4s-4.7 17 0 24.4 35.3 23.1 54.2-4.1c1.4-7.5-3.4-27.1-3.4-27.1l-25.8-6.8h-25.1v13.6z"/><path class="st1" d="m561.4 696.2-.4-41.6M569.2 698.9l-1-42.5M575 701.6v-44.8M582.7 702.9l-.5-46.1M589 702.5v-46.1M596.3 699.8l-.5-42M603.5 695.3l-.4-37.1"/><path class="st0" d="M563.5 650.1c4.7-3.4 38.6-1.4 43.4 2s4.7 7.5 1.4 9.5c-3.4 2-36.6 0-43.4-4.7-6.8-4.8-6.1-3.5-1.4-6.8zM552 666.3s15.6 17 32.5 17.6 23.7-1.4 27.1-4.1c3.4-2.7 2-4.7 0-6.1-2-1.4-12.2 4.7-26.4 3.4-14.2-1.4-28.5-14.9-28.5-14.9l-4.7 4.1z"/><path class="st3" d="M311.5 566.5c5.9 6.3 8.1 16.3 8.1 16.3s7.7-15.4 12.7-16.7c4.9-1.4 21.7 10.4 21.7 10.4L318.8 613l-34.4-12.7-9.5-23.9 1.8-21.7s28.9 5.4 34.8 11.8z"/><path class="st8" d="M237.4 655.5c3.6-22.6 3.6-29.8 12.2-36.1 4.6-3.4 11.7-6 17.2-7.7l-3.6-3.6-5.4-5.4s-16.3 2-25.8 14.2-8.1 38-14.9 48.8c-6.8 10.8-18.3 17-23.7 19 3.1 7.5 8.5 11.1 14.7 12 17.6-8.9 25.8-19.3 29.3-41.2z"/><path class="st1" d="m197.6 692.1 36.6-11.7M197.6 683.3l38.9-12M214.4 670l25.2-7.7M219.8 660.9l20.7-8.1M221.5 653.2l20.4-9.9M223.4 643.8l19.8-10.9M226.1 633.8l20.8-11.3M229.3 624.3l20.3-11.7"/><path class="st5" d="M249.6 619.3c-8.6 6.3-8.6 13.6-12.2 36.1-3.5 21.9-11.7 32.3-29.4 41.2 8.8 1.4 18.9-2.4 25.3-7.3 10.8-8.1 29.2-14.9 29.2-14.9l5.4-61.7-1.2-1.2c-5.5 1.8-12.5 4.5-17.1 7.8z"/><path class="st1" d="M257.7 602.6s-16.3 2-25.8 14.2-8.1 38-14.9 48.8c-6.8 10.8-18.3 17-23.7 19 7.5 18.3 29.2 12.9 40 4.7s29.2-14.9 29.2-14.9l5.4-61.7-4.7-4.7-5.5-5.4z"/><path class="st3" d="M246.9 624.3s3.4-28.5 12.9-37.3c9.5-8.8 29.2-14.9 42.7-3.4 13.6 11.5 23.1 38.6 23.1 38.6l-27.1 14.9-30.5 6.1-21.1-18.9z"/><path class="st4" d="M193.3 721.2c-5.2-.5-11.7 2-17.8 4.5.6 2 1.4 4 2.2 6 3.4-4.8 8.6-7.9 15.6-10.5z"/><path class="st5" d="M169.6 717.9c-6.8 2-12.9 2.7-17.6 2.7 2 6.8 8.8 10.8 16.3 8.1 2.2-.8 4.7-1.9 7.3-3-1.2-3.7-2-7.1-2.5-9.6-1.3.9-2.5 1.5-3.5 1.8zM177.7 731.8c-.3.3-.5.7-.7 1.1-3.4 5.4-5.4 12.9-16.3 14.9 2 6.1 14.9 6.8 23.7-2-4.1 7.5-2 18.3-6.1 24.4 14.8-2.6 16.8-16.2 18.7-22.2-9.4 1.1-15.5-7.2-19.3-16.2z"/><path class="st6" d="M245.5 737.5c-6.2.9-11.1 2.5-15.3 4.4 4.7 5.8 16.7 8.3 23.4 9.3 4.5-3.5 8.5-8.4 11.9-13.5-4.8-.5-11.7-.9-20-.2z"/><path class="st7" d="m281.5 679.2-19-4.7-26.4 21s-6.8 6.1-14.9 8.1c-8.1 2-14.9-4.1-23.7-2.7-2 .3-4.1 1.2-6.4 2.5 4.1 15.3 15.1 25.9 20.1 30.1 2.3-1.2 4.8-1.9 7.3-2.1 9.5-.7 19 3.4 27.1 6.1 8.3-.7 15.2-.3 20 .1 8.3-12.5 13.2-26.6 13.2-26.6l2.7-31.8z"/><path class="st5" d="M230.3 741.9c-10.6 4.8-15.7 11.7-24.1 14.6 4.1 2.7 27.8 7.5 44.7-3.4.9-.6 1.8-1.2 2.7-1.9-6.7-1-18.6-3.5-23.3-9.3z"/><path class="st6" d="M191 703.4c-6.2 3.5-12.8 9.6-18 12.7.5 2.5 1.4 6 2.5 9.6 6-2.5 12.5-4.9 17.8-4.5-7 2.5-12.1 5.6-15.6 10.4 3.8 9 9.9 17.4 19.3 16.1.1-.3.2-.6.3-.8 1.5-4 7.1-10.2 13.8-13.5-5-4.1-16-14.7-20.1-30z"/><path class="st1" d="M201.5 721.2s-12.2 10.8-17 24.4M245.5 737.5c5.2-.4 9.7-.5 13.6-.3"/><path class="st1" d="M278.8 711.1s-10.8 31.2-27.8 42-40.7 6.1-44.7 3.4c11.5-4.1 17-15.6 39.3-19-8.1-2.7-17.6-6.8-27.1-6.1s-19 10.2-21 15.6-3.4 20.3-19 23.1c4.1-6.1 2-17 6.1-24.4-8.8 8.8-21.7 8.1-23.7 2 10.8-2 12.9-9.5 16.3-14.9 3.4-5.4 8.8-8.8 16.3-11.5-7.5-.7-17.6 4.7-25.1 7.5-7.5 2.7-14.2-1.4-16.3-8.1 4.7 0 10.8-.7 17.6-2.7 6.8-2 19-15.6 27.8-17 8.8-1.4 15.6 4.7 23.7 2.7s14.9-8.1 14.9-8.1l26.4-21 19 4.7-2.7 31.8z"/><path class="st3" d="M242.8 677.9s-12.9 9.5-10.2 16.3c2.7 6.8 10.2 10.8 17.6 8.8 7.5-2 6.8-12.2 6.8-12.2l14.9 4.1s-6.8 12.9-2.7 18.3 25.8 5.4 28.5-3.4-5.4-17.6-5.4-17.6l-30.5-12.9-19-1.4z"/><path class="st2" d="M307.9 689.4c-44.1 19.7-64.4-4.1-65.1-11.5-.7-7.5 6.8-45.4 6.8-45.4l21-1.4 27.8 6.1s20.4 34.6 9.5 52.2z"/><path class="st1" d="m248.7 686.3 5.9-53.4M255 689l5.5-56.1M261.3 692.1l5.5-57.4M269 696.2l4.1-61.5M275.8 694.8l3.6-60.1M283.5 694.4l3.1-58.8M290.7 692.1l1.4-39.3M297.5 691.2l1.8-27.1"/><path class="st0" d="M284.9 628.4c-4.7-2.7-34.6-6.8-38-4.1-3.4 2.7-2.7 6.8 2 8.8 4.7 2 41.4 4.7 41.4 4.7s-.7-6.7-5.4-9.4zM244.9 657.5c4.1 0 10.8 11.5 29.2 12.2s29.8-6.1 29.8-6.1l-1.4 8.1s-11.5 4.7-29.2 4.7c-17.6 0-27.1-8.1-29.2-10.8s-3.3-8.1.8-8.1zM392 408c8.8 4.1 41.4 4.7 41.4 4.7l46.8 28.5s28.1 5.4 53.5-9.8c-1.9-8.1-2.6-13.3-2.6-13.3l-75.3-64.4-97 31.2s6.2 7.7 7.7 21.2c7.5-.5 19.6-.8 25.5 1.9z"/><path class="st2" d="M476.7 460.9s29 14.5 64-5.8c-3.3-8.9-5.6-17.2-7.1-23.6-25.4 15.1-53.5 9.8-53.5 9.8l-46.8-28.5s-32.5-.7-41.4-4.7c-5.8-2.7-18-2.4-25.5-1.9 1 8.7 0 19.9-6 33 10.8.3 29.4 2 48.5 8.9 29.9 10.8 67.8 12.8 67.8 12.8z"/><path class="st0" d="m376.9 440.4-7.2 19.3c3.7 1.2 7.1 2 10.2 2.6l6.8-20.4c-3.4-.6-6.7-1.1-9.8-1.5zM476.7 460.9s-38-2-67.8-12.9c-1.9-.7-3.8-1.4-5.6-1.9l-4.5 17.6c5.7-.4 8.8-1.5 8.8-1.5l69.2 8.1s4.7 3.2 12.7 5.7l.6-11.3c-8.4-1.3-13.4-3.8-13.4-3.8z"/><path class="st0" d="m394.8 443.7-6.6 19.9c4.1.4 7.7.3 10.6.1l4.5-17.6c-2.9-.9-5.7-1.7-8.5-2.4z"/><path class="st0" d="m386.8 442-6.8 20.4c2.9.6 5.7.9 8.2 1.2l6.6-19.9c-2.8-.6-5.4-1.3-8-1.7zM360.5 439.1c-2 4.3-4.5 8.9-7.8 13.6 3.1 1.6 6.1 2.9 9 4.1l7.5-17.2c-3.3-.3-6.2-.4-8.7-.5z"/><path class="st0" d="m369.1 439.6-7.5 17.2c2.8 1.2 5.5 2.1 8.1 2.9l7.2-19.3c-2.8-.3-5.4-.6-7.8-.8zM514.7 464.8l2.1 14c3.1-.4 6.4-1 9.6-2l-2.4-14.3c-3.2 1-6.3 1.8-9.3 2.3z"/><path class="st0" d="M532.7 459.2c-3 1.4-5.8 2.4-8.7 3.3l2.4 14.3c3-.9 6.1-2 9.2-3.5l-2.9-14.1z"/><path class="st0" d="M545.9 467.7c-2-4.3-3.7-8.5-5.2-12.5-2.7 1.6-5.4 2.9-8 4.1l3 14.2c3.4-1.6 6.7-3.5 10.2-5.8zM490 464.9l-.6 11.3c3.1 1 6.8 2 10.8 2.5l-.9-12.7c-3.4-.2-6.6-.6-9.3-1.1zM507.5 465.7l1.3 13.6c2.6 0 5.2-.1 7.9-.5l-2.1-14c-2.4.4-4.8.8-7.1.9z"/><path class="st0" d="m499.4 465.9.9 12.7c2.7.4 5.6.6 8.7.7l-1.3-13.6c-3 .3-5.7.3-8.3.2z"/><path class="st9" d="M552.7 140.2s19-8.1 40.7 25.1c21.7 29.2 42 41.4 51.5 41.4s10.8-6.1 3.4-9.5c-23.7-8.8-35.3-43.4-67.8-69.2 14.2 5.4 65.8 57 90.9 60.3 6.8.9 10.2-2.7 9.5-5.4-27.1-12.2-54.9-46.1-85.4-64.4 19.7 8.1 54.2 36.6 86.8 40 9.4 1 12.4-4.6 5.4-6.8-12.9-4.1-52.9-29.8-92.9-50.9 21 10.8 52.9 23.1 86.1 25.8 6.1 0 5.4-8.1 0-8.1-2.7 0-24.9-7.9-48.1-17-21.9-8.5-42-19.7-42-19.7S623.3 92 645 92.6s44.7-3.4 48.1-8.8c-32.5-2-73.2-6.8-104.4-15.6s-50.9 2.7-57 7.5c-6.1 4.7-9.5 27.1-9.5 27.1l30.5 37.4z"/><path class="st1" d="M549.3 121.9s16.3-3.4 31.2 6.1M546.6 110.3c16.3-9.5 33.9-1.4 48.8 8.1M542.5 96.1c16.3-9.5 37.3-4.7 52.2 4.7M538.4 85.3c16.3-9.5 31.9-12.9 52.2-3.4"/><path class="st10" d="M670 261.5h.9L644 229.9c-2.7 1.7-5 3.8-6.9 6.2l30 29.5c.8-1.7 1.7-3.1 2.9-4.1zM637 236.1c-1.8 2.4-3.3 5-4.6 7.9l32.3 28.4c.6-2.6 1.4-4.9 2.3-6.8l-30-29.5z"/><path class="st1" d="M620.5 368c41.4-25.8 15.6-97 43.4-120.7"/><path class="st2" d="M653.8 262.8c-11.1 30.8 1.1 83.8-33.4 105.3-24.3 16.7-65.9 11.9-81.8 9.4l-2.3 2.2 13.6 17s62.4 8.1 89.5-26.4c22.2-28.2 19.9-75.5 25.3-97.7l-10.9-9.8z"/><path class="st0" d="m595.9 349.8 7.8 26c3.7-1.2 7.3-2.5 10.7-4.3l-12-24.5c-2 1.1-4.2 2-6.5 2.8z"/><path class="st0" d="m588 352.1 7.3 25.8c2.8-.5 5.7-1.2 8.5-2.1l-7.8-26c-2.7.9-5.3 1.7-8 2.3z"/><path class="st9" d="m562.9 354.4-24.1 22.9c11.1 1.8 35 4.7 56.6.5l-7.3-25.8c-13.2 3-25.2 2.4-25.2 2.4zM653.8 262.8 632.4 244c-7.2 17-4.9 42.4-7.2 63.7l21.7 2.1c1.7-17 2.3-34 6.9-47z"/><path class="st3" d="M616.4 335.5c-3.5 5.1-8.4 8.9-13.9 11.6l12 24.5c2.1-1.1 4.1-2.2 6-3.5 14-8.7 20.3-22.7 23.6-38.2l-21.2-8c-1.5 5.1-3.6 9.8-6.5 13.6z"/><path class="st0" d="M625.3 307.7c-.3 2.4-.5 4.8-.9 7.1l21.6 3.6c.4-2.8.7-5.8.9-8.6l-21.6-2.1zM622.8 321.8l21.2 8c.8-3.7 1.4-7.5 1.9-11.4l-21.6-3.6c-.4 2.4-.9 4.7-1.5 7z"/><path class="st10" d="M718.8 215.4s3.4-4.7 3.4-9.5c0-4.7-4.1-7.5-8.1-9.5s-16.3 4.1-21 7.5-22.4 6.1-31.9 9.5c-9.5 3.4-12.2 10.2-17 16.3-.1.1-.2.1-.3.2l26.9 31.7c5.5-.1 19.3-.8 28.3-14.2 6.1-6.1 20.3-12.2 23.1-19.7s-3.4-12.3-3.4-12.3z"/><path class="st1" d="M722.2 227.6c-5.4-4.7-15.6 8.1-38 10.8"/><path class="st0" d="M742.8 253.8c-2.8-23.2-20.7-26.2-20.7-26.2l-4.1 6.8s9.3 8.7 12.1 22.3c3.1.8 7.4.7 12.7-2.9z"/><path class="st2" d="M743.2 258.8c-.1-1.8-.1-3.5-.3-5-5.4 3.6-9.7 3.7-12.5 2.9.3 1.6.6 3.1.7 4.8 1.4 16.3-3.4 41.4-11.5 47.5 11.5 8.1 19-4.1 19-4.1s5.4 8.8 19-.7c-9.6-9.4-13.7-17.6-14.4-45.4z"/><path class="st0" d="M697 235.6c13.7-4.5 20.9-11.7 25.2-7.9 0 0 7.5 6.8-6.8 17-2.7 2.7-6.8 4.1-10.2 2-2.7 4.7-6.1.7-6.1.7s.7-6.9-2.1-11.8z"/><path class="st1" d="M703.9 233.7c2.7 2 4.7 8.8 1.4 12.9M713.4 229c2.7 2 1.4 7.5 2 15.6"/><path class="st0" d="M674.1 222.6c0-.6.1-1.2.2-1.8-6.4 4-9 9.6-9 9.6s3.4.5 12.8-1.4c-2.4-1.2-4-3.6-4-6.4zM698.5 215.4s-5.2-.5-13.2 1.4c1.8 1.3 3 3.4 3 5.8 0 1.2-.3 2.2-.7 3.1 7.1-4 10.9-10.3 10.9-10.3z"/><path class="st0" d="M685.2 216.8c-1.6.3-3.3.8-5.2 1.4-2.2.7-4.2 1.6-5.9 2.6-.1.5-.2 1.2-.2 1.8 0 2.8 1.6 5.2 4 6.4.9-.2 1.8-.4 2.8-.6 2.5-.6 4.7-1.6 6.7-2.6.5-.9.7-2 .7-3.1.2-2.5-1-4.6-2.9-5.9z"/><path class="st11" d="M272.7 336.8s-19.7 4.1-31.2 14.9-21.7 45.4-18.3 56.3c-3.4 4.1-14.9 4.7-17 7.5-2 2.7-2.7 4.7.7 7.5s14.9-1.4 14.9-1.4-10.8 11.5-11.5 16.3c-.7 4.7 4.7 10.8 7.5 8.8 2.7-2 11.5-10.8 18.3-18.3-6.8 8.1-12.2 23.7-10.8 30.5s10.8 2 11.5-1.4c.7-3.4 2.7-11.5 8.8-19-.7 5.4 1.4 11.5 4.7 10.2 3.4-1.4 2-8.1 4.7-13.6 2.7-5.4 8.8-9.5 11.5-16.3 2.7-6.8.7-18.3 3.4-23.1 2.7-4.7 4.7-8.8 4.7-8.8l18.3-7.5-20.2-42.6z"/><path class="st1" d="M245.5 438.5c0-6.1 8.1-16.3 8.1-16.3M259.1 388.3c-2 6.8-.7 14.9-4.1 20.3-3.4 5.4-15.6 14.2-19 19.7M251.6 377.5c-3.4 1.4-6.8 12.9-8.1 24.4-1.4 11.5-14.9 17.6-21.7 19.7"/><path class="st1" d="M241.5 351.7c-11.5 10.8-21.7 48.8-18.3 56.3 2.7 4.1 8.1 5.4 10.8 0 2.7-5.4 5.4-37.3 12.9-40"/><path class="st1" d="M223.9 392.1c-1.5 7.3-1.9 13.4-.7 15.9 2.7 4.1 8.1 5.4 10.8 0 1-2 2-7.7 3.3-14.2-2.9-1.3-7.4-2.4-13.4-1.7z"/><path class="st11" d="m321.5 387 36.6-7.5 23-19-25.7-32.5-14.3 5.4-7.4-6.1-17.6 7.5z"/><path class="st9" d="M418.4 391.7c2.7 12.9-19 56.3-9.5 77.3s59 21.7 66.4 5.4c7.5-16.3 3.4-49.5 12.9-67.8 6.9-15.6-72.5-27.8-69.8-14.9z"/><path class="st0" d="M409.6 469.7c-8.1 0-16.3 6.8-17 12.2-.7 5.4 4.7 7.5 12.9 5.4-2 6.8 1.4 12.9 14.9 12.2 13.6-.7 10.8-23.1 10.8-23.1s-13.4-6.7-21.6-6.7z"/><path class="st1" d="M404.9 488.1c.6-4.8 2.8-9.6 16.2-11.6"/><path class="st0" d="M472.1 469.7c8.1 0 16.3 6.8 17 12.2.7 5.4-4.7 7.5-12.9 5.4.3 7.3-1.4 12.9-14.9 12.2-13.6-.7-10.8-23.1-10.8-23.1s13.5-6.7 21.6-6.7z"/><path class="st1" d="M476.8 488.1c-.6-4.8-2.8-9.6-16.2-11.6M387.9 612.8s-4.7 9.5-2 21.7"/><path class="st0" d="M221.8 559.9c-10.2 12.2-79.3 33.9-79.3 33.9s5.4 11.5 8.8 21c20.3-3.4 79.3-35.9 79.3-35.9s-61 33.9-71.2 47.5c.7 6.1 8.8 13.6 8.8 13.6s46.8-38.6 69.8-46.8c7.5-16.3 1.4-23.7 1.4-23.7s-10.1-5.6-17.6-9.6z"/><path class="st1" d="m305.9 642.6-4.8-17.6M315.4 641.9l-5.4-18.3"/><path class="st0" d="M495.1 722.6c23.7 1.4 17.6 21.7 20.3 24.4 2.7 2.7 8.1 0 9.5 3.4 1.4 3.4.7 4.1-6.8 6.1.7 22.4-6.1 38-9.5 40-1.5.9-6.8-1.2-12.8-1.8-7.7-.9-16.3-.9-19.1-3.6-8.8 5.4-23.7-2-23.7-2l-3.4-41.4 6.1-19.7s15.6-6.8 39.4-5.4z"/><path class="st1" d="M475.4 761.9c3.4 7.5-1.4 24.4 1.4 29.2"/><path class="st0" d="M517.4 764c-3.4-3.4-7.5-2-9.5 1.4-3.4-5.4-10.8-4.1-12.2.7-3.4-4.1-11.5-5.4-12.2-1.4-.3 2.1-.3 5.8-.1 9.4l35.7-1.2c.2-3.8-.3-7.5-1.7-8.9zM483.5 774.1c.3 3.5.7 6.9 1.4 9 1.4 4.1 10.2 2.7 11.5 0 4.1 3.4 12.2.7 12.2.7s3.4 2 7.5 1.4c1.6-.8 2.9-6.6 3.1-12.1l-35.7 1z"/><path class="st1" d="m495.7 766 .7 17M507.9 765.3l.7 18.3"/><circle class="st0" cx="491.5" cy="743.8" r="12.2"/><circle class="st0" cx="491.5" cy="743.8" r="3.7"/><path class="st0" d="M321 710.2c-23.7-2.4-20.8 18.7-23.9 21-3.1 2.2-8.1-1.3-9.9 1.9-1.9 3.1-1.3 3.9 5.8 7.1-4.1 22 .1 38.4 3.1 41 1.4 1.1 6.9-.1 13 .1 7.7.3 16.3 1.7 19.4-.5 7.9 6.7 23.7 1.7 23.7 1.7l9.8-40.3-3-20.3c0-.2-14.3-9.3-38-11.7z"/><path class="st1" d="M334.3 752.1c-4.5 6.8-2.4 24.3-5.9 28.6"/><path class="st0" d="M292.5 747.6c3.9-2.8 7.7-.8 9.2 2.8 4.2-4.8 11.3-2.3 11.9 2.6 4-3.5 12.2-3.5 12.3.5 0 2.1-.5 5.8-1.4 9.3l-35.1-6.7c.4-3.8 1.4-7.3 3.1-8.5zM324.5 762.8c-.8 3.4-1.8 6.7-2.8 8.6-2 3.8-10.4 1.1-11.4-1.8-4.5 2.7-12.1-1.2-12.1-1.2s-3.7 1.5-7.6.2c-1.4-1-1.8-7.1-1.2-12.4l35.1 6.6z"/><path class="st1" d="m313.6 753-3.3 16.6M301.6 750.4l-3.5 18"/><circle class="st0" cx="321.3" cy="731.7" r="12.2"/><circle class="st0" cx="321.3" cy="731.7" r="3.7"/><path class="st1" d="m491 218.8 7.4-17.6M494.4 100c-3.2 2.2-6.3 4-9.3 5.6 2 2.8 3.7 6.2 3.9 10.2.4 6.6-2.6 12.1-5.2 15.7l4.5 4 17.5 1.3c.6-8.4.2-25.6-11.4-36.8z"/><path class="st3" d="M526.2 66.3c-4.1 7.5-9.2 13.9-14.6 19.4 13.6 15.1 14.5 41.3 14.2 52.5l26.8 2c.1 0 .1-40.7-26.4-73.9zM489 115.8c-.2-4-1.8-7.4-3.9-10.2-11.6 6.4-20.5 8.8-20.5 8.8l19.2 17c2.5-3.4 5.5-9 5.2-15.6z"/><path class="st10" d="M504.2 92.6c-3.3 2.8-6.6 5.2-9.8 7.4 11.7 11.3 12.1 28.5 11.4 36.7l11.1.8c.1-7.7-.9-27.7-12.7-44.9z"/><path class="st0" d="m517.3 93.7-9.8 4.2c1.2 2.2 2.3 4.5 3.3 6.8l10-3.1c-1-2.7-2.1-5.4-3.5-7.9z"/><path class="st0" d="m520.8 101.6-10 3.1c1.2 2.8 2.1 5.6 2.9 8.3l9.7-2.6c-.7-3-1.6-5.9-2.6-8.8zM511.7 85.7c-2.4 2.5-4.9 4.8-7.5 6.9 1.2 1.8 2.3 3.5 3.3 5.4l9.8-4.2c-1.6-2.9-3.5-5.7-5.6-8.1z"/><path class="st0" d="m523.3 110.4-9.7 2.6c.8 2.9 1.5 5.8 2 8.5l9.6-.9c-.5-3.3-1.1-6.7-1.9-10.2z"/><path class="st0" d="M515.5 121.5c1.2 6.8 1.4 12.6 1.3 16l9 .7c.1-4.2.1-10.5-.7-17.6l-9.6.9z"/><path class="st3" d="M423.9 103.6s-10.8-21.7 0-24.4 21.7 25.1 21.7 25.1l-8.1 9.5-13.6-10.2zM389.3 566.7s9.5 22.4 37.3 24.4c27.8 2 39.3-8.8 39.3-8.8l-7.5-19.7-54.2-6.8-14.9 10.9z"/><path class="st1" d="m427.3 153.1-1.4-1.4"/><path class="st11" d="m342.5 242.6-27.8-10.9 23.1-38.6 29.1 5.4-2 37.3zM269.9 205.9s-15.6-3.4-19-19c-1.7-7.8-2.2-14.4 6-31.6 2.1-9.1.1-20.6 6.2-22-9.5-4.7-22.4-7.5-24.4-11.5-2-4.1-2-6.8 1.4-6.8s21.7 9.5 21.7 9.5-15.6-11.5-17-16.3c-1.4-4.7 3.4-7.5 6.1-4.7 2.7 2.7 17.6 18.3 17.6 18.3s-12.2-20.3-13.6-23.1c-1.4-2.7 4.7-3.4 6.8-1.4s15.6 23.7 15.6 23.7-5.4-21.7-6.8-24.4c-1.4-2.7 3.4-4.7 7.5-.7 4.1 4.1 12.9 25.8 12.9 42s-6.8 29.8-6.8 29.8l8.1 19-9.2 16.6-13.1 2.6z"/><path class="st1" d="M263.8 185.6c0-5.4 2-21.7 4.1-29.8 2-8.1 6.8-25.8-4.7-22.4"/><path class="st9" d="M298.4 170.7c-4.1-1.4-18.3 16.3-20.3 37.3 7.9 3.7 14.7 11.9 20.4 18.2 18.2-18.8 24.2-39.7 25.8-47.2-11.8-4.1-23.2-7.4-25.9-8.3z"/><path class="st10" d="M332.1 181.9c-2.6-1-5.2-2-7.9-2.8-1.6 7.5-7.7 28.4-25.8 47.2 2.4 2.7 4.7 5.2 6.6 6.8 7.5-7.3 21.5-24 27.1-51.2z"/><path class="st7" d="M243.3 216.3c-16.1 2.4-32.4 3.3-32.4 3.3s-3.4 12.2 2 25.1c10.8-1.5 22.9-5.1 33.8-9.5-1.5-4.3-3.8-11.8-3.4-18.9z"/><path class="st6" d="M305.2 148.3c-4.1 0-6.1 13.9-6.1 13.9l-10.2 25.4s-12.2 17.6-19.7 21.7c-5.8 3.1-15.8 5.4-25.9 6.9-.5 7.1 1.9 14.6 3.5 18.8 14.4-5.8 26.9-13 31.9-18.3 8.8-9.5 27.1-46.8 27.1-46.8s4.1-8.1 10.2-14.2c-2.7-4-6.7-7.4-10.8-7.4z"/><path class="st1" d="M316.1 155.8c-6.1 6.1-10.2 14.2-10.2 14.2s-18.3 37.3-27.1 46.8-40.7 24.4-65.8 27.8c-5.4-12.9-2-25.1-2-25.1s43.4-2 58.3-10.2c7.5-4.1 19.7-21.7 19.7-21.7l10.2-25.4s2-13.9 6.1-13.9c4 0 8 3.4 10.8 7.5z"/><circle class="st9" cx="283.2" cy="203.6" r="14.6"/><circle class="st9" cx="295.7" cy="176.8" r="14.6"/><path class="st0" d="m315.2 221 7.7 5.6c2.1-2.2 4.3-4.9 6.4-8.1l-9.4-4.8c-1.5 2.6-3 5.1-4.7 7.3z"/><path class="st0" d="m310.1 227.7 5.9 4.8c2.2-1.4 4.5-3.4 7.1-6l-7.7-5.6c-1.9 2.7-3.7 4.8-5.3 6.8z"/><path class="st0" d="M305.1 233c1.8 1.4 3.4 2.2 4.8 2.1 1.5-.1 3.7-1 6.1-2.6l-5.9-4.8c-1.8 2.1-3.5 3.9-5 5.3zM320.1 213.7l9.4 4.8c1.8-2.6 3.4-5.6 4.9-9l-10.2-3.7c-1.4 2.8-2.7 5.4-4.1 7.9z"/><path class="st0" d="M327.9 196.7c-1.2 3.3-2.4 6.2-3.8 9.1l10.2 3.7c1.4-3.1 2.6-6.4 3.7-10l-10.1-2.8zM341.1 185.6c-2.8-1.2-5.8-2.5-9-3.7-.5 2.4-1.1 4.7-1.7 7l9.7 2.5c.4-1.9.7-3.8 1-5.8z"/><path class="st0" d="m340.1 191.4-9.7-2.5c-.7 2.7-1.6 5.4-2.5 7.8l10.1 2.8c.8-2.5 1.5-5.2 2.1-8.1z"/><path class="st3" d="M201.5 249.3c-5.4 5.4.7 28.5.7 28.5l47.5-7.5-.7-15.6c-.1.1-31.9.1-47.5-5.4z"/><path class="st0" d="M309.3 264.9s-.7 18.3 4.7 21c5.4 2.7 14.9 0 16.3-5.4 1.4-5.4-4.1-14.2-4.1-14.2l-16.9-1.4z"/><path class="st2" d="M291 273.1s-29.2 10.2-39.3 4.7c-10.2-5.4-12.9-22.4 0-29.2 12.9-6.8 40.7-2 40.7-2l.7 6.8s-35.9 4.1-35.9 8.1 33.2.7 33.2.7l.6 10.9z"/><path class="st1" d="m316.9 276.3 3.2 10.3M323 275.4l2.3 9"/><path class="st0" d="M297.1 245.3s0-15.6-4.7-18.3c-4.7-2.7-12.9 0-12.9 8.8s10.2 15.6 10.2 15.6l7.4-6.1z"/><path class="st1" d="m286.2 239.6-3.2-10.3M291.2 237.4l-2.3-9.1"/><path class="st3" d="M309.3 250.7c-4.7 6.1-1.4 17.6-1.4 17.6s44.7 12.2 65.1 10.8c11.5-4.7-7.5-23.7-7.5-23.7s-40 1.4-56.2-4.7z"/><path class="st0" d="M290.3 262.2c-4.7.7-10.8 15.6-9.5 22.4s16.3 7.5 18.3 2c2-5.4-1.4-17.6-1.4-17.6s-2.7-7.5-7.4-6.8z"/><path class="st1" d="m286.2 278.5-.5 8.6M291.8 278.1v11.7"/><circle class="st0" cx="301.5" cy="257.1" r="15.3"/><path class="st1" d="m293.2 267.9 11.7-2.3M288 261.8l14.9-1.8M288.5 255.9l14.9-2.2M292.3 246.6l12 .3"/><path class="st10" d="M442.4 82.8c1.1 7.4 2.4 16.4 3.1 21.4 6.1 2.7 22.4 9.5 22.4 9.5s6.2-6.5 14-13c-4.1-5.8-14.7-16.1-39.5-17.9z"/><path class="st0" d="M455.7 76.4c1.4-6.8-.7-24.4-.7-24.4s19-2 41.4 16.3c-11.5 8.8-16.3 18.3-16.3 18.3s-23-6.8-24.4-10.2z"/><path class="st1" d="m467.3 64.2-4.1 14.3 8.1 3.4 7.5-14.3z"/><path class="st0" d="M440.8 71s.7 5.2 1.7 11.8c3 .2 5.8.5 8.4 1l1.4-11.2c-6.8-1.4-11.5-1.6-11.5-1.6zM452.3 72.6l-1.4 11.2c3.7.6 7 1.5 10 2.4l3.5-10.3c-4.4-1.4-8.5-2.5-12.1-3.3zM474.9 80.7l-5.4 9.4c2.6 1.4 4.7 3 6.6 4.5l7.1-8.3c-2.7-2.1-5.4-4-8.3-5.6z"/><path class="st0" d="m483.2 86.3-7.1 8.3c2.6 2.2 4.5 4.5 5.8 6.2 2.8-2.4 6-4.7 9.1-6.7-2.4-2.9-5-5.6-7.8-7.8zM464.4 76l-3.6 10.2c3.3 1.1 6.2 2.4 8.7 3.8l5.4-9.4c-3.5-1.8-7-3.3-10.5-4.6z"/><path class="st3" d="m306.6 347.7 10.2-25.8s14.2-9.5 17.6-8.1c3.4 1.4 4.7 13.6 4.1 17.6-.7 4.1-18.3 5.4-18.3 5.4l4.1 22.4s14.9-3.4 18.3 0c3.4 3.4 1.4 10.2-.7 13.6-2 3.4-17 1.4-17 1.4l-3.4 12.9s19 1.4 20.3 6.8c1.4 5.4-1.4 17-5.4 17.6-4.1.7-17.6-7.5-17.6-7.5l-12.2-56.3z"/><path class="st9" d="M309.3 361.2c-.4-16-4.8-26.3-8.2-31.9l-16.9 7.5 9.5 57s3.1 1.8 8.3 4.2c3.1-6.7 7.7-19.4 7.3-36.8z"/><path class="st10" d="m310.8 324.9-9.8 4.3c3.4 5.6 7.8 15.9 8.2 31.9.5 17.4-4.1 30.1-7.3 36.7 2.8 1.2 6.1 2.6 9.9 3.9 2.8-7.4 7.5-22.4 7.5-39.3.1-16.6-5.3-30.7-8.5-37.5z"/><path class="st0" d="m320.9 330.6-6.9 2.2c1 2.9 2.1 6.3 3 10l7.5-1.4c-1.1-4.3-2.4-7.8-3.6-10.8z"/><path class="st0" d="m324.5 341.3-7.5 1.4c.7 3.1 1.4 6.4 1.8 10l7.9-.7c-.5-3.9-1.4-7.4-2.2-10.7zM316.7 321.9l-6 3.1c.9 2 2.1 4.7 3.3 7.9l6.9-2.2c-2.2-5.7-4.2-8.8-4.2-8.8zM311.9 401.8c2.2.7 4.4 1.4 6.8 2.1 1.3-2.7 2.4-5.4 3.3-8.1l-7.4-2.4c-.9 3.4-1.9 6.3-2.7 8.4z"/><path class="st0" d="m326.7 352-7.9.7c.4 3.1.6 6.4.6 9.9v.5l8.1-.3c-.1-3.8-.3-7.4-.8-10.8zM317.3 382.6c-.8 4-1.8 7.7-2.7 10.9l7.4 2.4c1.6-4.3 2.8-8.6 3.6-12.7l-8.3-.6zM327.2 372.7h-8.3c-.3 3.5-.9 6.7-1.5 9.8l8.3.5c.7-3.4 1.2-6.9 1.5-10.3z"/><path class="st0" d="m327.6 362.7-8.1.3c0 3.3-.2 6.6-.5 9.7h8.3c.2-3.4.3-6.7.3-10z"/><path class="st6" d="M282.8 312.4c-2-2-17.6.7-17.6.7s13.7 54.2 20.7 110.8l18.4-2.4c-9.3-38.1-21.5-95.3-21.5-109.1z"/><path class="st7" d="M285.9 423.9c1.3 10.1 2.3 20.3 3.1 30.2 7.5 1.4 14.2-.7 23.1-3.4-1.8-6.1-4.6-16.6-7.7-29.3l-18.5 2.5z"/><path class="st1" d="M265.2 313.1s19 75.3 23.7 141c7.5 1.4 14.2-.7 23.1-3.4-7.5-24.4-29.2-120-29.2-138.3-2-2-17.6.7-17.6.7z"/><circle class="st9" cx="279.1" cy="348.7" r="15.9"/><circle class="st9" cx="287.6" cy="378.2" r="15.9"/><path class="st3" d="M347.9 326s-8.1 3.4-12.2 8.8 0 14.9 8.8 15.6c8.8.7 16.3-7.5 16.3-7.5l8.8 16.3s-12.9 10.8-14.9 18.3 7.5 14.9 17 10.8 13.6-15.6 13.6-15.6l14.2 11.5s-8.8 14.9-7.5 23.7 11.5 12.2 19.7 7.5c8.1-4.7 8.8-21.7 8.8-21.7l23.7 6.8s-9.5 15.6-4.1 23.7 16.3 7.5 22.4 3.4c6.1-4.1 4.7-21 4.7-21h18.3s-6.1 17 .7 23.1c6.8 6.1 19.7 4.1 23.7-5.4 4.1-9.5-.7-21.7-.7-21.7l-103.7-64.4-57.6-12.2z"/><path class="st9" d="M432.7 366c41.4 12 69.6 5.6 79.2 2.6l.1-2-40-82.7-75.9 13.6s-9.4 5-23.3 13.2c3.5 11 17.4 43 59.9 55.3z"/><path class="st10" d="M432.7 366c-42.4-12.3-56.3-44.3-59.9-55.3-4.5 2.6-9.5 5.7-14.8 9 4.9 15.9 21.7 53.7 71.4 68 46.4 13.4 70.5 11.6 80.2 9.6l2.4-28.7c-9.7 3-38 9.4-79.3-2.6z"/><path class="st0" d="m396.3 372.3-5.6 9.8c10.1 7.1 21.6 13.1 34.3 17.6l2.4-12.5c-12.3-3.8-22.5-9-31.1-14.9zM367.4 341l-10.1 5.7c6.8 11.4 16 21.8 27.3 30.7l6.6-9.1c-10.9-8.6-18.5-18.3-23.8-27.3z"/><path class="st0" d="m363.6 334-10.4 5.1c1.3 2.6 2.7 5.2 4.2 7.7l10.1-5.7c-1.5-2.5-2.8-4.9-3.9-7.1zM357.9 319.7c-3.3 2-6.6 4.1-10 6.3 1.4 4.4 3.2 8.8 5.3 13l10.4-5.1c-2.7-5.5-4.6-10.5-5.7-14.2zM391.2 368.4l-6.6 9.1c2 1.6 4.1 3.1 6.2 4.6l5.6-9.8c-1.9-1.3-3.6-2.6-5.2-3.9zM429.3 387.7c-.6-.2-1.2-.3-1.8-.5l-2.4 12.5c2.2.8 4.5 1.6 6.9 2.2.4.1.9.3 1.3.4l2.6-12.8c-2.1-.6-4.4-1.2-6.6-1.8zM472.3 397.1l-.6 12.2c3.1.2 6.2.4 9 .5l.9-11.7c-3-.3-6.1-.6-9.3-1z"/><path class="st0" d="m481.5 398.1-.9 11.7c17.2.5 28-1.7 28-1.7l.9-10.7c-5.1.9-14 1.9-28 .7zM435.9 389.5l-2.6 12.8c14.1 4.1 27.2 6.2 38.3 7l.6-12.2c-10-1.4-22-3.7-36.3-7.6z"/><path class="st3" d="M522.2 164.6s80.7 35.9 79.3 101.7-58.3 117.3-58.3 117.3l-51.5-70.5-2.7-97 33.2-51.5z"/><path class="st0" d="M578.5 208.7s14.9-23.1 23.7-3.4S588 225 588 225l-9.5-16.3z"/><path class="st1" d="M577.1 214.8s14.2-12.2 18.3-6.1c4.1 6.1-13.6 13.6-13.6 13.6"/><path class="st0" d="m545.9 227.6 12.2 16.3s7.3-2.8 15.1-6.1l-12.3-22.5c-7.7 6.1-15 12.3-15 12.3z"/><path class="st0" d="m560.9 215.4 12.3 22.5c2.9-1.2 5.8-2.6 8.5-3.9l-14.3-23.5c-2.2 1.5-4.3 3.2-6.5 4.9zM577.8 204.6c-1.2-.5-5.4 2.2-10.4 5.8l3.3 5.4 11.8-6.3c-2-2.5-3.7-4.5-4.7-4.9z"/><path class="st0" d="m578.1 228.3 3.5 5.8c4.7-2.2 8.3-4.3 9-5.7.6-1.2 0-3.8-1.3-6.8l-11.2 6.7zM582.4 209.6l-11.8 6.3 4 6.6 11.6-7c-1.2-2.1-2.5-4.2-3.8-5.9z"/><path class="st0" d="m586.3 215.5-11.6 7 3.5 5.8 11.2-6.7c-.9-2-2-4.1-3.1-6.1zM569 349.7s12.2 25.8 25.8 7.5c13.6-18.3-14.9-20.3-14.9-20.3L569 349.7z"/><path class="st1" d="M569 344.9s11.5 12.9 17 8.1c5.4-4.7-10.8-14.2-10.8-14.2l-6.2 6.1z"/><path class="st0" d="M557.4 317.1 544.5 332s4.4 7.4 9.6 13.6l15.1-21.8c-5.9-3.5-11.8-6.7-11.8-6.7zM569.3 323.9l-15.1 21.8c1.8 2.2 3.8 4.3 5.7 5.8l16.8-22.7c-2.2-1.7-4.8-3.4-7.4-4.9z"/><path class="st0" d="M559.9 351.4c2.3 1.8 4.5 2.9 6.4 2.4 2.7-.7 5.6-3.1 8.3-5.9L566 343l-6.1 8.4zM581.8 333.4c-.4-1.2-2.4-2.8-5.2-4.8l-4.7 6.3 8.2 4.8c1.5-2.6 2.1-4.9 1.7-6.3z"/><path class="st0" d="m572 335-6 8.1 8.5 4.8c2.3-2.5 4.3-5.4 5.7-8.1L572 335zM547.1 316.2l9.2 6.9c2.6-3.4 5.1-7.3 7.1-11.6l-10.6-4c-1.7 3.2-3.7 6.1-5.7 8.7zM516.8 201.2l-2.1 9.5c2.3 1.2 5.4 3.1 9 5.4l4.8-11.1c-6.9-3.1-11.7-3.8-11.7-3.8zM536.9 209.9l-6.6 11.2c1.7 1.4 3.4 2.8 5.2 4.4l10.4-8.1c-3-3-6.1-5.5-9-7.5zM520.3 336.7l3.1 9.6s5.9-1.7 13.5-6.2l-5.5-9.6c-4.3 3-8.3 5-11.1 6.2zM540.2 323.6l7.4 8.7c3-2.6 6-5.7 8.7-9.2l-9.2-6.9c-2.2 2.8-4.5 5.2-6.9 7.4zM531.5 330.5l5.5 9.6c3.3-2 7-4.5 10.6-7.7l-7.5-8.7c-2.8 2.6-5.8 4.9-8.6 6.8z"/><path class="st0" d="m528.5 205.1-4.8 11.1c2.1 1.4 4.3 3.1 6.7 4.9l6.6-11.2c-3.1-2.1-5.9-3.6-8.5-4.8zM569 269c-.8-6-1.9-11.4-3.3-16.4l-9.5 2.4c2.4 6.6 3.9 14 3.9 22.1 0 7.9-1.3 15-3.3 21.1l10.7 1.8c2.3-8.8 3-19 1.5-31zM545.9 217.3l-10.4 8.1c2.4 2.2 4.7 4.6 7.1 7.2l11.3-5.8c-2.6-3.6-5.3-6.8-8-9.5z"/><path class="st0" d="M556.8 298.3c-1.1 3.3-2.4 6.4-4 9.2l10.6 4c1.6-3.5 3.1-7.3 4.1-11.5l-10.7-1.7zM562.2 242.4l-10 3.9c1.5 2.8 2.8 5.7 4 8.7l9.5-2.4c-1.1-3.7-2.2-7.1-3.5-10.2zM558.5 234.5l-11.1 4.3c1.7 2.4 3.3 4.8 4.7 7.5l10-3.9c-1.1-2.8-2.3-5.5-3.6-7.9z"/><path class="st0" d="m553.8 226.8-11.3 5.8c1.7 2 3.4 4 4.9 6.2l11.1-4.3c-1.5-2.8-3-5.4-4.7-7.7z"/><path class="st9" d="M560.1 277.1c0-38.6-33.6-60.1-45.5-66.4l-14.2 65.1 19.9 60.9c10.5-4.6 39.8-21.1 39.8-59.6z"/><path class="st10" d="M535.1 258.2c5.4 1.4 95.6 25.1 95.6 29.2s-98.3 8.1-98.3 8.1-2.8-38.7 2.7-37.3z"/><path class="st9" d="m526.9 268.3 57.7 15.6-57 1.4zM558.8 403.9s-41.4-63.7-41.4-95.6S495 311 495 311l19.7 69.2 44.1 23.7z"/><path class="st10" d="M533 248.7c-23.7-48.8-6.8-87.5-6.8-87.5L489 172l-4.1 11.5 26.5-2s-5.3 41.1 8.2 64.3c3.5-.5 7.9.2 13.4 2.9z"/><path class="st9" d="m511.3 181.5-26.5 2-10.1 27.9 29.8 50.9s3.2-14.6 15-16.4c-13.5-23.3-8.2-64.4-8.2-64.4z"/><path class="st0" d="m373.9 73-17.2 40.7c6 1.2 12.7 2.6 20.3 4.5l16.1-34.1c-6.9-3.9-13.4-7.6-19.2-11.1z"/><path class="st2" d="M348.2 57.2c-4.9 7.6-16.5 27-22.8 52.3 6.8.3 17 1.4 31.3 4.2L373.9 73c-10.3-6.3-18.9-11.7-25.7-15.8zM393.2 84.1l-16.1 34c4 .9 8.2 2 12.7 3.3l15.1-31.1c-4.1-2.1-8-4.2-11.7-6.2zM503 127l-10 29.2c4.1 1.6 8.1 3.1 11.7 4.6l9.8-31.1c-3.8-.8-7.6-1.7-11.5-2.7zM560 138.2c-7.1-1.3-15.4-2.6-24.8-4.3l-12.1 34.5c10.3 4.4 17.8 8 23.2 10.7 7.2-7.1 18.9-22.2 13.7-40.9z"/><path class="st0" d="M455.1 112.4c-18.9-6.9-35.6-14.6-50.2-22.1l-15.1 31.1c15.2 4.1 33 9.5 53.8 16.7 19.5 6.8 35.8 12.7 49.4 18l10-29.2c-14.5-3.5-30.6-8.1-47.9-14.5zM514.4 129.7l-9.8 31.1c7 2.8 13.1 5.3 18.4 7.6l12.1-34.5c-6.3-1.2-13.3-2.5-20.7-4.2zM318.4 90.2l11.9 3.5c.7-2 1.5-4.1 2.2-6L320 84.4c-.6 2-1.2 4-1.6 5.8zM316.4 97.7l11.6 2.6c.7-2.2 1.4-4.4 2.2-6.5l-11.9-3.5c-.7 2.6-1.4 5.1-1.9 7.4z"/><path class="st0" d="m315 103.9 11.2 2.5c.5-2.1 1.2-4.1 1.8-6.2l-11.6-2.6c-.5 2.4-1 4.5-1.4 6.3z"/><path class="st0" d="M314 109.7s3.4-.6 11.5-.2c.3-1.1.5-2.1.8-3.1l-11.2-2.5c-.8 3.7-1.1 5.8-1.1 5.8zM320 84.4l12.5 3.3c1.6-3.9 3.1-7.4 4.7-10.7L324 72.8c-1.6 4-2.9 7.9-4 11.6zM348.2 57.2c-5.9-3.5-10.5-6.1-13.9-7.2-.8 1.4-1.6 2.8-2.2 4.2l13.2 7.7c1.1-1.8 2.1-3.4 2.9-4.7z"/><path class="st0" d="m323.9 72.8 13.2 4.2c.9-1.9 1.8-3.7 2.6-5.4l-13.4-5c-.8 2-1.6 4.1-2.4 6.2zM332.1 54.2c-1.1 2.1-2.1 4.2-3.1 6.3l13.4 6.4c1-1.8 2-3.5 2.8-4.9l-13.1-7.8z"/><path class="st0" d="m326.4 66.6 13.5 5c.9-1.7 1.7-3.3 2.5-4.7L329 60.5c-.9 2-1.8 4.1-2.6 6.1zM554.7 168.8l12.2 5.4c2.4-3.7 5-8.1 7.5-12.5l-14.5-4.3c-1.2 4.2-3.1 8.1-5.2 11.4zM546.2 179.1c9.7 4.9 12.5 7.2 12.5 7.2s1.8-2.4 4.3-6.2l-12.3-5.9c-1.5 1.8-3 3.5-4.5 4.9zM550.8 174.1l12.3 5.9c1.2-1.7 2.4-3.7 3.8-5.8l-12.2-5.4c-1.3 2-2.6 3.7-3.9 5.3z"/><path class="st0" d="M561.1 151.1c-.2 2.2-.7 4.3-1.2 6.4l14.5 4.3c1.2-2.2 2.4-4.5 3.6-6.8l-16.9-3.9zM582.5 144.2c-4.5-2.5-12.1-4.2-22.4-6.1.6 2.2 1 4.5 1.2 6.6l19.7 3.5c.5-1.2 1-2.6 1.5-4z"/><path class="st0" d="m580.9 148.4-19.7-3.5c.1 2.2.1 4.2-.1 6.2l16.8 3.9c1.1-2.3 2.1-4.5 3-6.6z"/><path class="st1" d="M323.5 78.5 569 167.3"/><path class="st0" d="m408.1 176-3.1 7.8 11.7 3.6 2.9-7.7c-3.8-1.1-7.6-2.4-11.5-3.7zM419.6 179.8l-2.9 7.7c2.6.8 5.3 1.7 7.9 2.5l3.4-7.3c-2.8-1-5.6-1.9-8.4-2.9zM388.9 170l-2.2 8.5c2.6.7 5.2 1.5 7.9 2.2l2.7-8.2c-2.9-.8-5.6-1.7-8.4-2.5z"/><path class="st0" d="m397.2 172.6-2.7 8.2c3.5 1 7.1 2 10.5 3.1l3.1-7.8c-3.6-1.2-7.2-2.4-10.9-3.5zM358.9 161.6c-.7 3.1-1.4 6.2-2 9.4l7.5 1.8 1.7-9.2c-2.4-.8-4.8-1.5-7.2-2zM373.8 165.5l-1.9 9c2.3.6 4.6 1.2 6.8 1.8l2.2-8.7c-2.3-.7-4.7-1.4-7.1-2.1zM381 167.6l-2.2 8.7c2.6.7 5.3 1.4 7.9 2.2l2.2-8.5c-2.7-.8-5.3-1.6-7.9-2.4z"/><path class="st0" d="m366.1 163.4-1.7 9.2c2.5.6 5 1.2 7.5 1.9l1.9-9c-2.6-.6-5.2-1.4-7.7-2.1zM474.5 199.4l-2.9 7.2c4.4 1.7 8.4 3.3 12 4.7l3.7-7c-3.8-1.5-8.1-3.1-12.8-4.9zM427.9 182.6l-3.4 7.3c3 .9 5.9 2 8.8 2.9l2.7-7.5c-2.7-.8-5.4-1.7-8.1-2.7z"/><path class="st0" d="M501.8 209.9c-3.5-1.4-8.4-3.3-14.6-5.6l-3.7 7c6.9 2.7 12.3 4.9 15.8 6.4.9-2.7 1.7-5.2 2.5-7.8zM465.9 196.2l-3.3 7.1c3.1 1.2 6.1 2.3 9 3.4l2.9-7.2c-2.7-1.1-5.6-2.2-8.6-3.3zM436 185.5l-2.7 7.5c3.7 1.2 7.2 2.4 10.6 3.7l2.8-7.3c-3.5-1.4-7.1-2.6-10.7-3.9z"/><path class="st0" d="m446.7 189.3-2.8 7.3c3.1 1.1 6.2 2.2 9.2 3.3l3-7.2c-3.1-1.2-6.2-2.3-9.4-3.4z"/><path class="st0" d="m456.1 192.6-3 7.2c3.3 1.2 6.5 2.4 9.6 3.5l3.3-7.1c-3.3-1.2-6.5-2.4-9.9-3.6z"/><circle class="st3" cx="465.6" cy="141.9" r="11.2"/><circle class="st3" cx="418.4" cy="127.3" r="11.2"/><path class="st0" d="M430 136.1s-10.8-17.6 0-27.1c17.6-14.2 42-2.7 42.7 13.6 0 9.5-18.3 22.4-18.3 22.4l-24.4-8.9z"/><path class="st1" d="M438.8 142.9s-8.8-27.1.7-31.9c9.5-4.7 23.1 1.4 21 11.5-2 5.4-13.6 15.6-13.6 22.4-3.4 2.1-8.1-2-8.1-2z"/><circle class="st1" cx="448.3" cy="119.8" r="4.1"/><path class="st0" d="m408.4 126.8 14 18.9c7.1 2.1 14.4 4.3 21.7 6.5l-15.4-19.1c-7.1-2.3-13.9-4.4-20.3-6.3zM373 117.2c-.2.4-.3.9-.5 1.3l15.7 17.3c5 1.4 10.6 3.1 16.6 4.7l-14.6-19c-6.3-1.7-12-3.1-17.2-4.3zM368.1 130.1c4.4 1.2 11.4 3.2 20 5.6l-15.7-17.3c-1.2 3.3-2.7 7.3-4.3 11.7z"/><path class="st0" d="m390.1 121.5 14.7 19.1c5.6 1.6 11.5 3.3 17.6 5.2l-14-19c-6.5-2-12.6-3.7-18.3-5.3zM443.5 138.1c-5.1-1.8-10-3.5-14.8-5l15.4 19.1c7.7 2.4 15.3 4.7 22.6 7.1l-13.4-17.6c-3.1-1.2-6.4-2.3-9.8-3.6zM518 166.2c-6.1-2.6-13.2-5.4-21.1-8.5l9.6 15.4c2.8 1.1 5.4 2.2 7.6 3.2 1.6-3.9 2.9-7.3 3.9-10.1zM476.1 149.9l10.7 16.1c7.3 2.5 14 4.9 19.7 7.2l-9.6-15.4c-6.3-2.6-13.2-5.1-20.8-7.9z"/><path class="st0" d="m453.4 141.7 13.4 17.6c7.1 2.2 13.8 4.5 20.1 6.6l-10.7-16.1c-7-2.6-14.6-5.3-22.8-8.1z"/><path class="st8" d="M358.9 161.6c52.4 13.2 123.1 40.5 142.9 48.3 1.9-5.8 3.8-11.3 5.7-16.3-20.1-6.8-83.8-28.2-145.2-45-1.2 4.1-2.4 8.5-3.4 13z"/><path class="st5" d="M368.1 130.1c-1.9 5.4-3.9 11.7-5.9 18.4 61.4 16.7 125.2 38.1 145.2 45 2.4-6.4 4.6-12.3 6.6-17.3-31.2-13.9-122.8-39.7-145.9-46.1z"/><path class="st1" d="M514.1 176.2c-31.3-14-122.9-39.7-146-46.1-3.1 8.7-6.4 19.6-9.2 31.5 52.4 13.2 123.1 40.5 142.9 48.3 4.2-12.9 8.8-24.6 12.3-33.7z"/><circle class="st10" cx="498.1" cy="273.4" r="43.1"/><circle class="st9" cx="496.4" cy="271.7" r="29.5"/><circle class="st10" cx="496.4" cy="271" r="19.7"/><path class="st0" d="M415.7 300.9s-7.5 33.9-4.7 42.7c2.7 8.8 14.9 11.5 23.7-5.4-2 14.2-5.4 48.8 9.5 57.6 14.9 8.8 32.5 4.1 38-6.8 5.4-10.8 2-20.3-6.8-22.4-8.8-2-12.9 1.4-14.9 6.1-4.1-3.4-4.7-10.8-.7-31.2 4.1-20.3 6.8-39.3 6.8-39.3l-27.8-11.5-23.1 10.2z"/><path class="st1" d="M460.5 372.7c2 9.5 12.2-2.7 13.6 2s-3.4 11.5-14.9 9.5-10.2-24.4-6.8-43.4c3.4-19 2.7-36.6 2.7-36.6M436.1 319.2s-1.4 10.8-1.4 19"/><path class="st3" d="M493 296.8c-7-23.2-1.4-53.1 6.4-79.2-16.7-7-78.7-31.9-142.5-46.7-1.6 8.3-2.9 16.9-3.5 25.6 23.1 17.6 86.1 52.2 86.1 52.2s12.9 21.7 28.5 50.2c15.6 28.5 42 125.4 42 125.4s21 6.1 48.8-20.3c-6.8-19.1-54-67.9-65.8-107.2z"/><path class="st11" d="M341.1 238.5s0 13.6 2.7 16.3c2.7 2.7 10.8 6.8 13.6 7.5 6 1.5 12.2 30.5 18.3 35.3s31.9 4.1 38.6 1.4c6.8-2.7 36.6-70.5 31.9-82-4.7-11.5-40.7-27.8-67.8-29.8-4.7.7-8.1 14.2-8.1 14.2l-8.1 14.2-15.6 12.9-5.5 10z"/><path class="st0" d="M387.9 265.6c-6.1-4.7-24.5-1.9-30.5-3.4 0 0-1.4 5.4.7 8.8 2 3.4 7.5 2.7 9.5 0 2 4.1 8.1 4.1 10.2.7 3.4 4.1 9.5.7 9.5.7l.6-6.8z"/><path class="st1" d="m367.6 271-.3-7.8M377.5 273.1v-9.5"/><path class="st9" d="M346.8 222.9c7.2-5.2 12-8.8 14-14.2-6.8 2.7-13.6.7-11.5-8.8.7-4.7 6.1-8.1 14.2-6.1s10.8 8.8 4.7 21c-4.6 9.2-13.3 9.2-17 14.2-3.4 4.7-2.7 11.5 2.7 13.6 5.4 2 21-1.4 30.5 4.7s8.1 8.1 9.5 19.7c.7-10.2 11.5-14.9 18.3-13.6 6.8 1.4 10.5 10.9 3.4 14.9-5.2 2.9-7.9-.7-8.1-4.1-5.2 3.4-2 13.6-6.1 21-4.1 7.5-14.9 4.7-18.3-2.7-3.4-7.5 3.4-18.3-2.7-23.1s-25.1-3.4-33.2-9.5c-8.1-6-8.6-21.1-.4-27z"/><path class="st9" d="M412.7 262.7c-1.4-4.5-5.4-2.2-5.2 1.6M360.8 208.7c3.6-1.4 3.6-9.7-3.6-7.5"/><path class="st1" d="M394 267c0 6.8-.7 12.9-.7 12.9"/><circle class="st9" cx="396.1" cy="225.4" r="19.7"/><path class="st6" d="M396.1 213.5c-6.6 0-11.9 5.3-11.9 11.9 0 4.8 2.8 8.9 6.9 10.8l11.6-20.6c-1.9-1.3-4.2-2.1-6.6-2.1z"/><path class="st5" d="m402.7 215.6-11.6 20.6c1.5.7 3.2 1.1 4.9 1.1 6.6 0 11.9-5.3 11.9-11.9 0-4.1-2.1-7.7-5.2-9.8z"/><circle class="st0" cx="396.1" cy="225.4" r="5.8"/><circle class="st1" cx="396.1" cy="225.4" r="11.9"/><path class="st10" d="M430 269s-18.3 27.1-18.3 31.2 5.4 6.8 14.2 3.4c2.7 7.5 12.9 7.5 17.6 2 3.4 2.7 10.8 6.8 14.9-.7 4.7 3.4 12.2 2 12.9-5.4 5.4 4.7 11.5 2 11.5-5.4 0-7.5-21-29.2-21-29.2L430 269z"/><path class="st1" d="M425.9 303.6c-2-6.1 3.4-11.5 3.4-11.5M443.5 305.6v-7.4M458.4 304.9l.7-13.5M471.3 299.5l-2.7-10.2"/><circle class="st0" cx="442.8" cy="264.9" r="19"/><circle class="st10" cx="442.8" cy="264.9" r="8.1"/><path d="M335 798.5c-1.5 0-2.7 1.2-2.7 2.7s1.2 2.7 2.7 2.7c1.5 0 2.7-1.2 2.7-2.7s-1.2-2.7-2.7-2.7z"/><path class="st0" d="M263.8 544.3s-46.1 8.1-46.8 11.5c-.7 3.4 14.9 35.9 21 37.3s26.4-16.3 26.4-16.3l14.2-21.7-14.8-10.8z"/><path class="st3" d="M267.9 560.6s-9.5 19-2 25.1c7.5 6.1 17 3.4 21-3.4 4.1-6.8 1.4-20.3 1.4-20.3l-20.4-1.4zM300.5 559.2s3.4 13.6 10.2 14.2c6.8.7 12.9-4.7 12.2-10.2-.7-5.4-9.5-18.3-9.5-18.3l-12.9 14.3z"/><path class="st0" d="M256.4 544.3c-2 19.7 14.2 24.4 34.6 21.7 20.3-2.7 20.3-18.3 20.3-18.3L295 530l-17 1.4c.1 0-19.6-6.8-21.6 12.9z"/><path class="st1" d="M256.4 544.3c4.9 10.4 24.4 9 36.1-3.6"/><path class="st5" d="M251 475.8c-11 4.1-13.2 15.2-12.7 25 4.1-.9 8.3-2.4 12.5-4.3-3.4-11.3-3.4-12.4.2-20.7zM230.6 473.1c-6.6 6.2-7.2 19.5-6.5 29.6 3.1-.1 6.4-.5 9.8-1-2.6-9.6-4.1-21.5-3.3-28.6zM211 480.5c-3 4.1-3.7 12.6-2.1 21.5 2.4.3 5.4.6 8.8.7-2.9-5.8-5.7-13.4-6.7-22.2z"/><path class="st7" d="M289.6 530s-3.3-9-8.8-17.7c-3.3 2.2-7.8 4.5-12.6 4.2 2.1 4.6 3.9 8.1 3.9 8.1s-9.8-3.6-16.1-14c-12.3 10-30 10-40.3 9.1.7 1 1.4 2 2.1 2.9 10.2 12.2 29.2 21.7 39.3 23.1 10.2 1.4 21.7-1.4 29.2-9.5 7.4-1.4 3.3-6.2 3.3-6.2z"/><path class="st6" d="M255.8 510.7c-1.4-2.4-2.7-5.2-3.6-8.3-.6-2.2-1.2-4.1-1.6-5.8-4.1 1.9-8.3 3.3-12.5 4.3.3 6.5 1.8 12.3 2.6 15.1-2.6-1.7-5-7.3-6.8-14.2-3.4.6-6.7.9-9.8 1 .5 7.4 1.8 13.2 1.8 13.2s-4.1-4.9-8.1-13.1c-3.4-.1-6.4-.3-8.8-.7 1.1 6.2 3.3 12.5 6.7 17.6 10.1.9 27.9.8 40.1-9.1zM280.7 512.4c-2.4-3.8-5.2-7.5-8.4-10.4-2.5 2.2-5.8 4.3-8.7 4.1 1.4 3.6 3.1 7.3 4.5 10.5 4.8.4 9.4-1.9 12.6-4.2z"/><path class="st5" d="M272.3 501.9c-3.6-3.3-7.6-5.6-11.9-5.8.4 2.5 1.6 6.1 3.2 9.9 2.9.2 6.2-1.9 8.7-4.1z"/><path class="st1" d="M289.6 530s-12.2-33.2-29.2-33.9c1.4 8.1 11.5 28.5 11.5 28.5s-14.9-5.4-19.7-22.4c-4.7-17-5.4-17-1.4-26.4-18.3 6.8-12.2 33.2-10.2 40-6.1-4.1-11.5-30.5-10.2-42.7-11.5 10.8-4.7 42.7-4.7 42.7s-12.2-14.2-14.9-35.3c-5.4 7.5-3.4 29.8 6.8 42s29.2 21.7 39.3 23.1 21.7-1.4 29.2-9.5c7.6-1.3 3.5-6.1 3.5-6.1zM296.6 550.7l6.8 9M291.2 552.9l5.9 10.8M286 555.6l4 9.5M278.8 555.1l4.2 10.5M271.7 555.6l3.7 10.4M264.5 556.1l2.3 8.1"/><path class="st0" d="m497.5 653.6 50 35.3c1.8-2.2 3.4-4.5 4.9-6.6l-48.2-34.5-6.7 5.8zM509.3 643.3l-5.1 4.4 48.2 34.5c1.8-2.6 3.5-5.2 5.1-7.7l-48.2-31.2zM354.7 639.2l10.8-2.3-.6-2.4-72.8 19.7c1.1 3.5 2.2 7.3 3.5 11l53.9-15.1 5.2-10.9z"/><path class="st0" d="m365.5 636.9 23.8-5.2 107.1 21 1.2.8 11.7-10.3 48.3 31.3c7.8-12.4 12.1-22.5 12.1-22.5s-35.3-27.8-65.1-31.9-83.4 5.4-83.4 5.4l-78.7 8.1-10.2-13.6s-25.8-.7-47.5 8.1c1.5 5.2 3.9 14.8 7.2 25.8l72.8-19.7.7 2.7z"/><path class="st0" d="m349.4 650.1-53.9 15.1c.8 2.4 1.6 4.8 2.5 7.3l46.5-12.2 4.9-10.2z"/><path class="st10" d="m493 657.5 4.5-3.9-1.2-.8-107.1-21-23.8 5.2 2.1 7.7-2.1-7.7-10.8 2.3-5.3 10.9 14.8-4.1-14.8 4.1-4.9 10.1-46.4 12.1c5.2 14.6 11.8 29.1 19.4 37.3 17 18.3 40.7 29.8 63.7 29.2s37.3-19 37.3-19 12.2 19 33.2 20.3c21 1.4 50.9-12.2 76.6-31.9 7.3-5.6 13.7-12.4 19.3-19.5l-50-35.3-4.5 4z"/><circle class="st0" cx="491" cy="693.5" r="15.9"/><path class="st10" d="M360.8 746.3s-19 18.3-24.4 35.3c-5.4 17 28.5 35.9 28.5 35.9H432l35.3-24.4-5.4-19-2-21-99.1-6.8z"/><path class="st0" d="M303.2 810.7s22.4-29.2 28.5-31.2c6.1-2 17 3.4 19 15.6 5.4-10.2 23.1-5.4 27.1 7.5 6.1-6.8 24.4-5.4 25.1 5.4 4.7-6.8 15.6-8.1 23.1-.7 4.7-6.1 13.6-11.5 23.1-4.1 4.7-7.5 12.9-13.6 21-8.1s15.6 45.4 15.6 45.4-19 13.6-88.1 8.1c-69.3-5.3-94.4-37.9-94.4-37.9z"/><path class="st1" d="m350.6 795.2-14.2 37.9M377.8 802.6l-4.8 42.1M402.8 808l-2 40M425.9 807.4l4.1 41.3M448.9 803.3l8.2 44.1M310.6 816.2s17.6-27.8 21.7-29.8c4.1-2 8.1 1.4 8.8 4.7.7 3.4-2.7 5.4-2.7 5.4"/><path d="M331.3 804.3c-1.5 0-2.7 1.2-2.7 2.7s1.2 2.7 2.7 2.7 2.7-1.2 2.7-2.7-1.2-2.7-2.7-2.7zM326.9 810.4c-1.5 0-2.7 1.2-2.7 2.7s1.2 2.7 2.7 2.7c1.5 0 2.7-1.2 2.7-2.7s-1.2-2.7-2.7-2.7zM322.8 816.5c-1.5 0-2.7 1.2-2.7 2.7s1.2 2.7 2.7 2.7 2.7-1.2 2.7-2.7-1.2-2.7-2.7-2.7z"/><path class="st1" d="M348.3 836.3s7-32.1 10.1-35.5c3.1-3.3 8.1-1.6 9.9 1.4 1.8 2.9-.7 6-.7 6"/><path d="M365.1 811.4c-1.4.5-2.1 2.1-1.6 3.5s2.1 2.1 3.5 1.6 2.1-2.1 1.6-3.5-2-2.2-3.5-1.6zM363.7 818c-1.4.5-2.1 2.1-1.6 3.5s2.1 2.1 3.5 1.6 2.1-2.1 1.6-3.5c-.6-1.3-2.1-2.1-3.5-1.6zM361.6 825.3c-1.4.5-2.1 2.1-1.6 3.5s2.1 2.1 3.5 1.6 2.1-2.1 1.6-3.5-2.1-2.1-3.5-1.6zM359.9 833.8c-1.4.5-2.1 2.1-1.6 3.5s2.1 2.1 3.5 1.6 2.1-2.1 1.6-3.5-2.1-2.1-3.5-1.6z"/><path class="st1" d="M381 845.3s1.1-32.9 3.6-36.7c2.5-3.9 7.7-3 10-.4s1.1 4.7 1.1 4.7"/><path d="M393.1 817.7c-1.3.7-1.7 2.4-.9 3.7s2.4 1.7 3.7.9c1.3-.7 1.7-2.4.9-3.7-.7-1.2-2.4-1.6-3.7-.9zM392.8 824.6c-1.3.7-1.7 2.4-.9 3.7s2.4 1.7 3.7.9c1.3-.7 1.7-2.4.9-3.7-.7-1.3-2.4-1.7-3.7-.9zM392.1 832.1c-1.3.7-1.7 2.4-.9 3.7.7 1.3 2.4 1.7 3.7.9 1.3-.7 1.7-2.4.9-3.7-.8-1.2-2.4-1.7-3.7-.9zM391.7 839.4c-1.3.7-1.7 2.4-.9 3.7.7 1.3 2.4 1.7 3.7.9 1.3-.7 1.7-2.4.9-3.7-.8-1.2-2.4-1.7-3.7-.9z"/><path class="st1" d="M410.4 849.1s-3.5-32.7-1.5-36.9c1.9-4.1 7.2-4 9.8-1.8 2.6 2.2 1.7 4.5 1.7 4.5"/><path d="M418.6 820.2c-1.2.9-1.4 2.6-.5 3.8.9 1.2 2.6 1.4 3.8.5 1.2-.9 1.4-2.6.5-3.8-.9-1.3-2.7-1.5-3.8-.5zM419.3 827c-1.2.9-1.4 2.6-.5 3.8.9 1.2 2.6 1.4 3.8.5 1.2-.9 1.4-2.6.5-3.8-1-1.2-2.7-1.4-3.8-.5zM419.6 834.5c-1.2.9-1.4 2.6-.5 3.8.9 1.2 2.6 1.4 3.8.4 1.2-.9 1.4-2.6.5-3.8-1-1.1-2.7-1.3-3.8-.4zM420.2 841.8c-1.2.9-1.4 2.6-.4 3.8.9 1.2 2.6 1.4 3.8.4 1.2-.9 1.4-2.6.4-3.8-1-1.1-2.6-1.3-3.8-.4z"/><path class="st1" d="M437.1 847s-5.6-32.4-3.9-36.7c1.6-4.3 6.9-4.5 9.7-2.4 2.8 2 2 4.4 2 4.4"/><path d="M443.3 817.5c-1.1 1-1.2 2.7-.2 3.9 1 1.1 2.7 1.2 3.9.2 1.1-1 1.2-2.7.2-3.9-1-1.1-2.7-1.1-3.9-.2zM444.5 824.3c-1.1 1-1.2 2.7-.2 3.9 1 1.1 2.7 1.2 3.9.2 1.1-1 1.2-2.7.2-3.9-1.1-1.1-2.8-1.2-3.9-.2zM445.3 831.8c-1.1 1-1.2 2.7-.2 3.9 1 1.1 2.7 1.2 3.8.2 1.1-1 1.2-2.7.2-3.8-1-1.2-2.7-1.3-3.8-.3zM446.4 839.1c-1.1 1-1.2 2.7-.2 3.9 1 1.1 2.7 1.2 3.8.2 1.1-1 1.2-2.7.2-3.8-1-1.3-2.7-1.3-3.8-.3z"/><path d="M465.7 844.7s-9.4-33.3-8.2-37.9c1.3-4.6 6.8-5.4 9.9-3.6 3.1 1.8 2.6 4.3 2.6 4.3" style="fill:none;stroke:#000;stroke-width:4.2737;stroke-linecap:round;stroke-linejoin:round;stroke-miterlimit:10"/><path d="M469 813.2c-1 1.2-.9 3 .2 4 1.2 1 3 .9 4-.2 1-1.2.9-3-.2-4-1.1-1.1-3-1-4 .2zM470.9 820.2c-1 1.2-.9 3 .2 4 1.2 1 3 .9 4-.2 1-1.2.9-3-.2-4-1.1-1.1-3-1-4 .2zM472.6 827.9c-1 1.2-.9 3 .2 4 1.2 1 3 .9 4-.2 1-1.2.9-3-.2-4-1.1-1.1-3-1-4 .2zM474.5 835.4c-1 1.2-.9 3 .2 4 1.2 1 3 .9 4-.2 1-1.2.9-3-.2-4-1.1-1.1-2.9-1.1-4 .2z"/><path class="st5" d="M463.4 733.9c-2.1-6.3-4.3-10.6-4.3-10.6l-29.2-17-69.2 3.4s-2.6 3.9-5.8 9.6c8.7 4.9 27.2 13.5 53.3 16.8 24.3 3.2 44.1.3 55.2-2.2z"/><path d="M408.3 736.2c-26.1-3.3-44.5-11.9-53.3-16.8-5.4 9.8-12.4 25-11.1 36.5 12.2 2.7 17-9.5 17-9.5s-5.4 13.6 1.4 27.1c13.6-2 19.7-19.7 19.7-19.7s-2.7 16.3 3.4 24.4c12.1-.6 16.7-15.9 17.5-19.1.1-.4.1-.6.1-.6s-.1.2-.1.6c-.6 2.8-2.9 15.1 4.9 21.1 12.2-2.7 13.6-21 13.6-21s0 12.2 8.1 20.3c8.8-7.5 8.1-21 8.1-21s2 12.2 10.8 20.3c5.4-5.4 4.1-18.3 4.1-18.3s2.7 8.8 9.5 13.6c9.2-10.9 5.4-28.8 1.6-40.2-11.3 2.5-31.1 5.4-55.3 2.3z" style="fill:#682c00"/><path class="st1" d="M402.6 759.2c.1-.4.1-.6.1-.6s.1.1-.1.6zM375 711.1l-14.2 35.2M394.7 713.8l-12.9 40M411 716.5l-8.2 42M421.1 716.5v42.7M435.4 717.9l2 40.6M445.6 717.2l6.7 43.4M350 747l23-42.7M371 758.5l15.6-51.5M390 766.7l13.5-50.2M408.9 767.4l8.9-52.3M430 765.3l-2.1-46.8M446.9 765.3l-6.1-45.4M461.8 761.3l-9.5-43.4"/><path class="st1" d="M360.8 709.7s-19 27.8-17 46.1c12.2 2.7 17-9.5 17-9.5s-5.4 13.6 1.4 27.1c13.6-2 19.7-19.7 19.7-19.7s-2.7 16.3 3.4 24.4c13.6-.7 17.6-19.7 17.6-19.7s-4.1 14.9 4.7 21.7c12.2-2.7 13.6-21 13.6-21s0 12.2 8.1 20.3c8.8-7.5 8.1-21 8.1-21s2 12.2 10.8 20.3c5.4-5.4 4.1-18.3 4.1-18.3s2.7 8.8 9.5 13.6c14.2-17-2.7-50.9-2.7-50.9l-29.2-17-69.1 3.6z"/><path class="st2" d="M383.9 655.5s-11.5 35.9-23.1 54.2c44.7 20.3 90.2 17.6 98.3 13.6-1.4-24.4-4.7-53.6-4.7-53.6l-23.7-22.4-46.8 8.2z"/><circle class="st0" cx="342.8" cy="691.8" r="15.9"/><path class="st10" d="M508.8 628.4c-1.4-3.3-2.8-6.2-4.3-8.2.7-4.1-2-8.8-2-8.8l-8.8-14.2-117.3-6.8-19.7-8.8s-15.6 0-17.6 18.3c-.6 5.5-2.9 12.7-6.3 20.4 14.6 6.5 50 20.1 93.1 21.6 41.3 1.5 70.2-8.1 82.9-13.5z"/><path class="st3" d="M518.1 656.2c-.5-1.6-4.7-16.8-9.3-27.7-12.7 5.4-41.6 15-82.9 13.5-43.1-1.6-78.4-15.1-93.1-21.6-5.8 13-13.2 24.8-12.7 27.1.7 3.4 2.7 3.4 7.5 4.1 4.7.7 10.8-7.5 10.8-7.5s.7 12.2 1.4 14.9c.7 2.7 4.7 6.1 8.8 5.4 4.1-.7 14.2-16.3 14.2-16.3s-4.7 14.2-3.4 17.6c1.4 3.4 9.5 5.4 13.6 4.1s6.8-5.4 10.8-14.2c-1.4 5.4-2 12.9-1.4 15.6.7 2.7 10.2 3.4 14.9 2 4.7-1.4 8.8-16.3 8.8-16.3s-2 14.2-1.4 18.3 13.6 4.1 17 2.7c3.4-1.4 6.1-10.8 6.1-10.8s0 8.8 2 11.5c2 2.7 12.9.7 15.6-.7 2.7-1.4 3.4-13.6 3.4-13.6s.7 12.2 6.1 13.6c5.4 1.4 16.3-.7 17-4.1s.7-13.6.7-13.6 2 11.5 4.7 12.9c2.7 1.4 9.5-.7 10.2-2.7.7-2 .7-11.5.7-11.5s2 10.2 4.7 10.8 10.8-3.4 12.2-5.4c1.4-2 0-12.2 0-12.2s2.7 8.1 6.1 9.5c3.5 1.3 7.6-3.4 6.9-5.4z"/><path class="st14" d="M343.9 550.4c-2.7 10.2-13.6 8.8-14.2 17s11.5 5.4 11.5 5.4-12.2 7.5-14.2 13.6-1.4 9.5 8.8 8.8c-3.4 5.4 2.7 18.3 8.1 15.6 5.4-2.7 2-15.6 6.1-17 4.7-.7 6.1 2.7 12.2.7-1.4 2-6.1 8.1-8.1 14.2s5.4 6.8 10.2 6.8c-3.4 10.2 2.7 16.3 6.8 13.6 2 5.4 3.4 8.8 2 14.2-1.4 5.4-8.1 11.5-8.1 11.5s17 .7 21-20.3c.7 6.8 8.1 9.5 13.6 10.2 0-4.1-3.4-22.4 0-24.4s8.1 2 9.5 6.8c1.4 4.7-2.7 8.1-1.4 11.5 1.4 3.4 8.8 0 8.8 0s-2 6.8.7 10.8c2.7 4.1 12.2 4.7 10.8 17.6 9.5-12.2 5.4-18.3 5.4-18.3s9.5 8.1 14.2 1.4c-.7-8.1-8.1-9.5-10.8-12.9-2.7-3.4-.7-7.5 2-7.5s5.4 7.5 9.5 8.1c4.1.7 4.7 10.8 7.5 14.9 4.7-2.7 7.5-10.2 7.5-10.2s8.1 0 9.5-3.4c8.1-1.4 8.8-9.5 8.8-9.5s10.2-5.4 7.5-12.2c-1.4-3.4-9.5-5.4-7.5-9.5s6.1-4.1 11.5-1.4c5.4 2.7 6.8 11.5 11.5 13.6 4.7 2 6.8-3.4 6.8-7.5 3.4.7 7.5-.7 8.8-2.7s-5.4-10.2-5.4-10.2 5.4-4.1 6.1-7.5-11.5-4.7-11.5-8.1.7-8.1 4.7-8.8 5.4 7.5 9.5 6.8c7.5-2.7 5.4-12.2-1.4-14.9 12.2-10.2-1.4-19-1.4-19l-58.3-9.5c0 .2-115.9 1.5-118.6 11.7z"/><path class="st14" d="M466.1 629.7s6.3 4.9 6.6 9.5"/><path class="st1" d="M514.7 599.9c-3.4.7-10.8-6.8-10.8-6.8M522.2 567.3c-4.1-2-10.8.7-10.8.7M511.3 612.8c-12.9-2.7-10.8-15.6-10.8-15.6M456.6 629.3c2.2 2.2 8.6 8.1 6.6 13.4M465.2 618.9c6.1 3.4 16.3 10.8 16.3 10.8M345.9 588.4c-2.7-1.4-8.8 2-10.2 6.8M370.3 606.7s-2.7 8.1-6.1 8.8M375 619.5s-4.7 4.1-4.1 9.5M427.3 631.7s.7 8.8 6.1 17M417.8 630.4s1.4 4.7-1.4 8.1"/><circle class="st0" cx="360.8" cy="576.8" r="11.5"/><circle class="st0" cx="387.9" cy="604" r="11.5"/><circle class="st0" cx="422.5" cy="614.8" r="11.5"/><circle class="st0" cx="457.1" cy="612.1" r="11.5"/><path class="st1" d="m350.4 577.3 7.2-4.5M354.4 583.2l6.4-6.4M360.7 586.8l3.7-6.8M377.5 607.3l4.9-6.1M384.5 613.9l2.3-9.5M392.4 613.2v-8.6M417.3 614.1l-1.4 7.8M422.5 614.8l.6 9.5M427.5 613.4l3.1 8.2M452.1 610.3v9.9M457.5 610.7l1.3 11.4M462 608.5l3.6 8.6"/><path class="st10" d="M375.7 568.7s6.1 31.9 50.2 35.9 57.6-18.3 57.6-18.3l-21-27.5-54.9-9.8-31.9 19.7z"/><path class="st2" d="M322.8 546.3s12.9 8.8 36.6 4.7 42.7 17.6 42.7 17.6 13.6 14.9 52.9 6.8 26.4-9.5 38.6-15.6c29.8-19 47.5-4.1 47.5-4.1l27.1-36.6-3.4-10.2-122.7-9.5-122.7-2.7-12.2 3.4 15.6 46.2z"/><path class="st9" d="M307.2 500.2c-9.5 1.4-12.9 10.8-7.5 17-10.2 0-15.6 15.6-7.5 25.8 8.1 10.2 24.4 6.1 30.5 3.4 17.6-9.5 2-36.6 2-36.6s-8-10.9-17.5-9.6z"/><path class="st1" d="M307.2 533.4c2.7-8.8 1.4-15.6-7.5-16.3"/><path class="st9" d="M569.6 509s4.7 4.7 4.7 12.2c0 7.5-4.7 11.5-8.1 14.9 6.8 1.4 8.8 13.6 2.7 21.7-6.1 8.1-17 8.1-23.1 2.7-6.1-5.4-9.9-19.5-4.7-29.8 4.1-8.1 15.6-15.6 15.6-15.6l12.9-6.1z"/><path class="st1" d="M566.2 536.1c-11.5-2-15.6 4.7-11.5 14.2"/><path class="st0" d="M314 475.8s6.1-12.2 18.3-17.6c-1.4 2-1.4 8.8-1.4 8.8s3.4-5.4 9.5-6.8c-2.7 3.4-2 9.5-2 9.5s3.4-4.1 9.5-5.4c0 2-.7 12.2-.7 12.2s4.1-7.5 8.8-9.5c-2 6.8-2 18.3 2 23.1-5.4 4.1-35.3.7-35.3.7l-8.7-15z"/><path class="st1" d="M331 467c-4.1 5.4-4.1 13.6-4.1 13.6M338.4 469.7c-4.1 8.1-.7 19-.7 19M347.2 476.5c-1.4 4.7 1.4 14.2 1.4 14.2"/><path class="st0" d="M568.3 491.4s-6.1-12.2-18.3-17.6c1.4 2 1.4 8.8 1.4 8.8s-3.4-5.4-9.5-6.8c2.7 3.4 2 9.5 2 9.5s-3.4-4.1-9.5-5.4c0 2 .7 12.2.7 12.2s-4.1-7.5-8.8-9.5c2 6.8 2 18.3-2 23.1 5.4 4.1 35.3.7 35.3.7l8.7-15z"/><path class="st1" d="M551.3 482.6c4.1 5.4 4.1 13.6 4.1 13.6M543.9 485.3c4.1 8.1.7 19 .7 19M535.1 492.1c1.4 4.7-1.4 14.2-1.4 14.2"/><path class="st3" d="M345.2 499.5c35.9 3.4 65.8-2.2 65.8-2.2l53.6.9s18.3 14.2 59.7 12.2c26.4-1.3 40.1-6 46.6-9.1-.4-5.3-2.5-9.9-2.5-9.9s-15.6 8.1-54.2 8.8-39.3-10.8-70.5-13.6c-31.2-2.7-57.6 5.4-85.4 3.4S314 475.8 314 475.8s-4.7 1.1-7.3 6.7c4.5 5.9 14.9 14.8 38.5 17z"/><path class="st10" d="M524.2 510.4c-41.4 2-59.7-12.2-59.7-12.2l-45-2.2s-38.4 7-74.4 3.6c-23.6-2.2-34-11.2-38.4-17-.9 2.1-1.6 4.7-1.6 8.2 0 12.9 7.5 22.4 36.6 22.4 58.3 0 65.1-9.5 100.3-7.5 35.3 2 33.2 15.6 70.5 15.6s53.6-4.7 57-12.2c1.1-2.4 1.4-5.2 1.2-7.7-6.4 3.1-20 7.7-46.5 9z"/><path class="st0" d="M427.9 508.3s-14.2 14.2-8.8 26.4c5.4 12.2 41.4 10.2 45.4-4.1 4.1-14.2-4.1-22.4-4.1-22.4h-32.5z"/><path class="st1" d="M436.7 509.7s-5.4 12.2-2 17c3.4 4.7 12.2 3.4 14.2-.7s-.7-16.3-.7-16.3h-11.5z"/><path class="st10" d="M465.3 477.4c-1.1-7.1-2.1-12.5-2.1-12.5l-38.6.7s-1.2 4.7-2.6 11.1c19.6 11.5 36.8 4.3 43.3.7z"/><path class="st0" d="M467.6 500.3c-.1-6.7-1.3-15.7-2.4-22.9-6.4 3.5-23.7 10.8-43.4-.7-1.6 6.8-3.3 15.7-4.1 22.5 20.9 9.3 42.9 3.5 49.9 1.1z"/><ellipse class="st3" cx="441.8" cy="451.1" rx="28.1" ry="22.7"/><path class="st0" d="M417.8 499.2c-.5 4-.5 7.3-.1 9.2.6 2.4 5 4.2 11 5.2L430 503c-4-.8-8.2-2-12.2-3.8zM430 503.1l-1.2 10.5c3.9.7 8.5 1 13.2 1l-.3-10.3c-3.8-.1-7.7-.5-11.7-1.2zM467.6 500.3c-2.6.9-7.4 2.2-13.4 3.1l.9 10c6.5-1.2 11.5-3.3 12.1-6.5.4-1.6.5-3.9.4-6.6z"/><path class="st0" d="m441.7 504.3.3 10.3c4.6 0 9.2-.3 13.2-1.1l-.9-10c-3.9.5-8.1.8-12.6.8z"/><ellipse class="st9" cx="384.5" cy="551.4" rx="25.1" ry="22"/><ellipse class="st9" cx="477.8" cy="571.7" rx="24.1" ry="17.3"/><circle class="st0" cx="391.7" cy="539.9" r="15.3"/><circle class="st1" cx="392" cy="540.2" r="6.8"/><circle class="st0" cx="477.8" cy="558.9" r="15.3"/><circle class="st1" cx="478.1" cy="559.2" r="6.8"/><path class="st1" d="m530.3 648.7 7.5-15.6M536.4 653.4l8.8-16.9M258.9 144.9l9.8 1.1"/></svg>