<svg version="1.1" id="Calque_1" xmlns="http://www.w3.org/2000/svg" x="0" y="0" viewBox="0 0 900 900" style="enable-background:new 0 0 900 900" xml:space="preserve"><style>.st0,.st1,.st2,.st3,.st4,.st5,.st6{fill:#ffce00;stroke:#000;stroke-width:3.8829;stroke-linecap:round;stroke-linejoin:round}.st1,.st2,.st3,.st4,.st5,.st6{fill:none}.st2,.st3,.st4,.st5,.st6{fill:#ff5b00}.st3,.st4,.st5,.st6{fill:red}.st4,.st5,.st6{fill:#0064b7}.st5,.st6{fill:#fff}.st6{fill:#3a3a3a}.st7{fill:#fff}.st8{fill:red}.st11{fill:#00f;stroke:#000;stroke-width:3.8829;stroke-linecap:round;stroke-linejoin:round}.st13{fill:#8c4200}.st15{fill:#893e00;stroke:#8c4200;stroke-width:1.2943}.st16,.st17{stroke:#000;stroke-width:2.5886}.st17{stroke-width:1.2943}</style><path d="m492 516.9 23.3 121.7 68.2-5.2-25.7-146.7z"/><path class="st0" d="M680.6 196.4s15.5-4.3 15.5-9.9-6.8-106-2.1-123.4c3.4-12.9 18.1-18.5 22.4-6s8.2 107 8.2 107l-14.7 40.1-39.3 9.1-.4-12.5 10.4-4.4z"/><path class="st0" d="M706 50.5c-4.3 21.6-.4 104.8 0 141.1"/><path class="st0" d="M754.3 150.6c-.9-14.2 13.8-76.8 14.7-86.3.9-9.5-12.1-19.4-22.9-1.3-14.2 21.1-17.3 67.3-23.3 99.2-6 31.9-43.1 41.9-43.1 41.9l-44.9 7.3 1.3 9.5 33.7 5.6 31.1 7.3 21.1-4.3 29.8-62.6 1.7-15.5"/><path class="st1" d="M692.6 223.1s15.5-3 29.8-18.1c14.2-15.1 31.1-140.6 42.3-150.1M749.6 58.3l9.1 7.3M744.8 66.5l7.4 6.9M740.5 74.7l8.2 7.3M737.5 88.1l8.2 5.6M739.7 101.5l8.2 8.2M731 108.8l10.8 9M735.3 125.6l7 5.6M731.9 134.7l8.2 6.4M728.9 146.8l9.9 7.7M724.1 157.5l7.8 6.5M722.4 166.6l6.1 5.2M719.4 173.9l11.6 10M714.6 181.3l13.4 12.5M708.2 188.2l9.9 11.6M701.3 194.6l9.9 10.8M695.2 199l7.8 10.3M687.5 202.4l6.4 10.8"/><path class="st0" d="M722.9 243c21.1.4 30.2-57 46.2-84.6 16-27.6 19.4-50.5 13.4-53.1-3.9-2.1-28 38.4-31.5 45.3-3.4 6.9-16.4 64.7-34.9 73.3-11.6 4.3-25 4.7-25 4.7l-5.2 15.5 25.9 5.6c-.2.2-17.4-9.8 11.1-6.7z"/><path class="st1" d="m709 233.9 6.5 9.1M718.1 231.3l7.8 10.8M725.9 225.7l9 9.1M732.8 215.8l7.7 7.8M738.8 204.6l7.3 6M742.7 189.5l9.5 7.7M749.6 181.3l7.3 4.7M752.2 169.6l9 6.5M756.5 158.4l8.6 7.8M761.7 150.6l7.3 7.8M766.4 142.4l7.4 6.5M770.7 133.4l5.6 6.5M773.5 125l8 8M777.6 117.4l6.9 5.6"/><path class="st2" d="M691.3 238.6c40.1.9 57 6.5 68.2 11.6 11.2 5.2 27.2 16.4 20.3 34.9-3.9 9.1-16 12.1-25.9 11.6-9.9-.4-15.5-12.5-15.5-17.3 1.3-9.5 19 2.6 21.6-1.3 2.6-3.9 0-12.9-10.8-16-10.8-3-58.7 0-58.7 0l-78.5-14 1.3-18.5s50-3.9 51.3-3.9c1.3 0 14.2 12.7 26.7 12.9z"/><path class="st0" d="M612.7 302.3c4.9 1.6 46.6 28.5 46.6 28.5l4.5-24.9-48.2-22.7s-7.7 17.5-2.9 19.1z"/><path class="st0" d="M615 290.3c6.5 1.3 46.9 22.3 46.9 22.3l18.4-11.6-18.1-21.4-47.2-12c0 .1-6.5 21.4 0 22.7z"/><path class="st0" d="M615.6 260.9s56.3 6.1 67.9 21c10.7 13.6 0 26.9-12.6 15.9-9.2-8-55.3-22-55.3-22v-14.9z"/><path class="st0" d="M618.9 262.5s62.4 8.1 70.5 7.4c8.1-.6 11.3-8.1 1.9-12.9-5.5-2.9-74.4-19.4-74.4-19.4l2 24.9zM616.9 237.6H690c6.8 0 10-17.2-3.6-20.7-6.1-1.6-68.6-1.3-74.7 1-6.1 2.2 5.2 19.7 5.2 19.7z"/><path class="st0" d="M611.4 219.5s53.4-8.4 65-10.7c11.6-2.3 9.4-21.4-5.5-19.7-14.9 1.6-52.7 9.1-52.7 9.1l-21 5.8 14.2 15.5z"/><path class="st0" d="M603.3 204.6s58.6-22.6 65-26.9c6.5-4.2 3.2-16.8-8.1-16.5-8.7-.3-49.2 17.5-49.2 17.5l-1.3-.6-22 8.4 4.2 16.8 11.4 1.3z"/><path class="st0" d="M593.6 188.1s47.9-23.6 58.6-28.5c10.7-4.9 10-18.4-8.7-15.5-16.5 1.9-44 19.1-44 19.1l-13.9 5.5-8.4 10.3 16.4 9.1z"/><path class="st0" d="M582.3 175.4s42.1-29.8 48.5-36.2-2.9-24.3-18.8-12.9c-15.9 11.3-27.2 18.1-27.2 18.1L567 168.7l15.3 6.7z"/><path class="st0" d="M613 125c-4.5 5.8-39.9 41.2-39.9 41.2-4.1-3.3-8.6-6.6-13.5-9.8 0 0 33.3-39.1 40.4-46.3 7.2-7.1 19.2 6.5 13 14.9z"/><path class="st3" d="m553.5 297.1 59.2 5.2s36.9-87.1-53.1-145.9l-41.4 49.5 35.3 91.2z"/><path class="st4" d="m553.5 297.1 24.6 2.1s9.2-83.3-38.7-118.6l-21.1 25.2 35.2 91.3z"/><path class="st1" d="M535.6 186c39.7 29.8 34.9 112.2 34.9 112.2"/><path class="st1" d="M532.2 191.2c34.5 35.8 30.6 106.6 30.6 106.6M526.1 197.2c10.8 8.2 14.7 28 14.7 28"/><path class="st0" d="m649.9 378 9.7-77.7s126.8 17.5 127.5 24.6c.6 7.1-38.8 115.2-36.9 119.7 1.9 4.5 33 11.6 33 15.5 0 3.9-32.4 101.6-30.4 105.5 1.9 3.9 35.6 12.9 36.2 17.5.6 4.5-14.2 93.2-14.2 93.2l-134 6.5-35.6-100.3L649.9 378z"/><path class="st3" d="M756.1 673.8s15.5-80.9 12.9-82.8c-2.6-1.9-36.9-8.4-38.2-12.9s34.9-103.5 31.1-107.4c-3.9-3.9-31.1-6.5-33.7-11.6-2.6-5.2 38.2-119.7 33.7-123-4.5-3.2-78.9-18.1-83.5-16.2-4.5 1.9-23.9 88.7-23.9 88.7L613 642l27.2 57.6 104.8-6.5 11.1-19.3z"/><path class="st0" d="m525.7 764.6-.9 78.9 55.2.5.5-32.8 55.6-1.8.5-54.7-70.4-14.7z"/><path class="st3" d="M539.1 767.2v62.5h24.5l.5-31.5 54.8-1.3-.9-43.1-69.5 3.9z"/><path class="st0" d="M671.1 755.1v60.4l48.7-2.2 3.1 36.7 69.4-3.4 1.3-91.1-6.5-15.1z"/><path class="st3" d="m687.9 752.9.4 41.4 44.9.5 3.4 37.1 42.3-1.7-.8-79.9z"/><path class="st0" d="m653.8 668.8 145.4.9-5.6 85.9s-176.5-.4-201 3.4c-24.6 3.9 28-74.2 28-74.2l33.2-16z"/><path class="st3" d="m609.4 744.7 173-1.3 3.9-57.8-137.2-.4z"/><path class="st2" d="m240.1 366.4 59.1-.5-1.7 24.6-59.2.5z"/><path class="st4" d="m240.1 366.4 26.3-.2.4 24.5-28.5.3z"/><path class="st1" d="M272.4 375.8h21.2M272 383.6h21.1"/><path class="st3" d="m259 366.2 14.7-.1.5 24.6-14.7.1z"/><path class="st1" d="M257.8 377.1h-12.6M259 383.2l-12.9.8"/><path class="st5" d="M250.8 378.9c0 9-7.3 16.4-16.4 16.4S218 388 218 378.9c0-9 7.3-16.4 16.4-16.4 9.1 0 16.4 7.3 16.4 16.4z"/><path class="st5" d="M241.4 378.4c0 3.3-2.7 6-6 6s-6-2.7-6-6 2.7-6 6-6 6 2.7 6 6z"/><path class="st6" d="M470.9 733.1c1.3-1.7 18.1 28.9 47 34.9s77.7-10.3 77.7-10.3l-32.4-99.2s-63.8 16.8-75.1 16.4c-11.2-.4-74.2-7.3-76.4 3.4-9.1 33.2 25.9 101.8 25.9 101.8l48.8 1.3s-16.8-46.6-15.5-48.3z"/><path d="M464.8 724c9.5-8.2 26.3 29.8 55.2 35.8 28.9 6 72.9-11.6 72.9-11.6l-26.3-82s-65.1 6.5-76.4 6c-11.2-.4-66.4-4.3-70.8 2.6-9.1 33.2 26.3 105.7 26.3 105.7l32.4 1.7c.1.1-22.7-50-13.3-58.2z"/><path class="st2" d="M653.4 650.7s2.2-17.7-1.7-28c-3.9-10.3-91.9-9.9-91.9-9.9l-38 1.3-1.7 34.1 8.6 6.5 124.7-4z"/><path class="st6" d="M428.2 183s3.4-51.3 25.9-57.8c22.4-6.5 43.6 3.9 50.1 24.6 6.5 20.7-23.7 51.3-23.7 51.3L428.2 183z"/><path class="st6" d="M436.4 183.4s3.4-37.1 18.5-45.3c15.1-8.2 36.2 1.3 37.1 20.3.9 19-19.4 41.4-19.4 41.4l-25-3.9-11.2-12.5z"/><path class="st7" d="M446.3 182.6s-.9-21.1 6-29.3c10.3-12.1 32.4-4.7 28.5 15.5-2.6 12.1-14.7 25.5-14.7 25.5l-19.8-11.7z"/><path class="st8" d="M446.3 182.6s-.6-15.1 3.4-24.7l30 15c-3.9 10.8-13.5 21.4-13.5 21.4l-19.9-11.7z"/><path class="st1" d="M446.3 182.6s-.9-21.1 6-29.3c10.3-12.1 32.4-4.7 28.5 15.5-2.6 12.1-14.7 25.5-14.7 25.5l-19.8-11.7z"/><path class="st5" d="M470.9 162.3c0 3.3-2.7 6-6 6s-6-2.7-6-6 2.7-6 6-6 6 2.7 6 6zM328.9 202.4l-13.8 37.5 40.6 16.4s94.3-3.6 119.8 8.7c17.5 3.2 27.3 9.4 27.3 9.4l-6.9 59.5 54.4 5.2 12.9-77.2-76.8-43.6-148.8-23.7-8.7 7.8z"/><path class="st6" d="M344.9 274.5c0-9.9 14.7-42.3 14.7-42.3s141.9 37.5 143.2 42.3c1.3 4.7-8.6 63.4-8.6 63.4L483 425l-42.7 13-2.1 17.7-17.3 2.1-14.2-17.3-15.2-34.5-65.1-6.9-1.7-6.9s-30.1 2.3-33.2-3.4c-3-5.6 0-16.8 2.1-23.3 2.2-6.5 30.2-40.1 30.2-40.1s21.1-41 21.1-50.9z"/><path class="st2" d="M478.2 263.2s-34.9 29.8-41 81.1c-6 51.3 4.7 88.4 7.8 91.9 3 3.4 38-11.2 38-11.2l13.9-98.5 5.9-52.1-24.6-11.2z"/><path d="M328.1 389.2c-4.3-3-23.3 4.7-28-7.8-4.7-12.5 14.7-31.9 25.9-49.2 11.2-17.3 40.1-85.4 44.4-101.4s97.9 28.5 97.9 28.5-20.7 23.7-35.4 65.6c-14.7 41.9 5.6 113.5 5.6 113.5l-5.2 19.8-18.1-.9-7.3-22.4-4.3-31.1-38.4-5.6-29.8 6.9c0 .1-3-12.9-7.3-15.9z"/><path class="st6" d="m250 466.7 117.1 58.9 7.4-5.4 54.7-39.9s-134.6-42.7-151.4-54.4c-16.8-11.6-33.7 5.8-33.7 5.8l5.9 35z"/><path d="m250.6 454.4 121.7 65.3 47.9-33.6-140.4-49.9-27.9-7.1z"/><path class="st6" d="M430.8 478.1s-107 71.2-110.5 79.8c-12.1 23.3 11.2 55.7 34.5 46.2 13.8-5.2 93.6-82.4 93.6-82.4l-17.6-43.6z"/><path d="M430.3 486.7s-98.4 67.3-102.7 74.2c-9.9 12.5 9.1 44 22.4 37.5 10.8-4.7 94.5-82.8 94.5-82.8l-14.2-28.9z"/><path class="st3" d="M440.2 515.2s-16.8 47-15.1 54.8c1.7 7.8 95.8 16.4 95.8 16.4s3.4-43.1-2.6-46.6c-6-3.4-78.1-24.6-78.1-24.6z"/><path class="st1" d="m478.7 538.5-7.4 40.1"/><path class="st0" d="M461.8 543.5c0 6.3-5.1 11.4-11.4 11.4-6.3 0-11.4-5.1-11.4-11.4s5.1-11.4 11.4-11.4c6.3-.1 11.4 5.1 11.4 11.4zM509.9 554.9c0 6.6-5.3 11.9-11.9 11.9-6.6 0-11.9-5.3-11.9-11.9 0-6.6 5.3-11.9 11.9-11.9 6.6 0 11.9 5.3 11.9 11.9z"/><path class="st7" d="M458.4 111.6c0 9.9-8 17.9-17.9 17.9-9.9 0-17.9-8-17.9-17.9s8-17.9 17.9-17.9 17.9 8 17.9 17.9z"/><path class="st8" d="M453.1 98.9c3.2 3.2 5.2 7.7 5.2 12.7 0 9.9-8 17.9-17.9 17.9-4.1 0-7.9-1.4-10.9-3.7l23.6-26.9z"/><path class="st1" d="M458.4 111.6c0 9.9-8 17.9-17.9 17.9-9.9 0-17.9-8-17.9-17.9s8-17.9 17.9-17.9 17.9 8 17.9 17.9z"/><path class="st5" d="M445.9 113.3c0 3-2.4 5.4-5.4 5.4-3 0-5.4-2.4-5.4-5.4 0-3 2.4-5.4 5.4-5.4 2.9 0 5.4 2.4 5.4 5.4z"/><path class="st7" d="M517.5 123c0 8.3-6.8 15.1-15.1 15.1s-15.1-6.8-15.1-15.1 6.8-15.1 15.1-15.1 15.1 6.8 15.1 15.1z"/><path class="st8" d="M510.3 135.9c-2.3 1.4-5 2.3-8 2.3-8.3 0-15.1-6.8-15.1-15.1 0-5.7 3.1-10.6 7.7-13.2l15.4 26z"/><path class="st1" d="M517.5 123c0 8.3-6.8 15.1-15.1 15.1s-15.1-6.8-15.1-15.1 6.8-15.1 15.1-15.1 15.1 6.8 15.1 15.1z"/><path class="st5" d="M506.4 123.1c0 2.4-1.9 4.3-4.4 4.3-2.4 0-4.4-1.9-4.4-4.3s1.9-4.4 4.4-4.4c2.5.1 4.4 2 4.4 4.4z"/><path class="st7" d="M527.8 178.5c0 8.9-7.2 16.2-16.2 16.2s-16.2-7.2-16.2-16.2c0-8.9 7.2-16.2 16.2-16.2s16.2 7.2 16.2 16.2z"/><path class="st8" d="m522.1 166.1-18.8 26.2c-4.7-2.8-7.8-8-7.8-13.8 0-8.9 7.2-16.2 16.2-16.2 3.9 0 7.5 1.4 10.4 3.8z"/><path class="st1" d="M527.8 178.5c0 8.9-7.2 16.2-16.2 16.2s-16.2-7.2-16.2-16.2c0-8.9 7.2-16.2 16.2-16.2s16.2 7.2 16.2 16.2z"/><path class="st5" d="M517.5 180c0 3.1-2.5 5.6-5.6 5.6-3.1 0-5.6-2.5-5.6-5.6 0-3.1 2.5-5.6 5.6-5.6 3.1 0 5.6 2.5 5.6 5.6zM283.6 199.4c0-37.5 15.1-66 15.1-66s42.3 21.1 153.2 51.3c110.9 30.2 136.3 27.6 136.3 27.6 7.8 41-3.9 61.7-3.9 61.7s-66.4-31.5-145.4-51.3c-78.9-19.9-155.3-23.3-155.3-23.3z"/><path class="st2" d="M462.2 187.5c6.4 1.7 12.5 3.3 18.2 4.8l-9.6 39.2c-7.2-2.1-14.6-4.2-22.1-6.2l13.5-37.8zM315.1 201.8c-19.4-1.9-31.5-2.4-31.5-2.4 0-37.5 15.1-66 15.1-66s8.8 4.4 28.9 12.1l-12.5 56.3zM348.7 153.1c7.5 2.6 15.8 5.5 25.2 8.5l-10.4 46.2c-10.3-1.5-20-2.8-28.9-3.9l14.1-50.8zM419.6 175.6c7.9 2.3 16.2 4.7 25 7.1l-11.7 38.5c-8.1-2-16.2-3.7-24.1-5.4l10.8-40.2z"/><path d="M522.7 202.4c8.6 1.9 16.2 3.4 22.9 4.7l-7.7 47.4c-6.8-2.6-14.2-5.4-22.2-8.3l7-43.8z" style="fill:#ff4800;stroke:#000;stroke-width:3.8829;stroke-linecap:round;stroke-linejoin:round"/><path class="st2" d="M559.4 209.5c22 3.5 28.9 2.8 28.9 2.8 7.8 41-3.9 61.7-3.9 61.7s-12.5-5.9-33.1-14.2l8.1-50.3z"/><path d="M377.3 305.5s22.9 8.6 28.9 5.2c6-3.4 6.9-16.8 11.6-19.8s13.8-3.4 16-.4c-4.7 0-11.6 1.7-13.8 5.2-2.1 3.4-4.3 20.3-8.6 23.3s-34.5-4.7-35.8-3.4c-2.6 3.4 31.1 10.8 34.5 15.1s4.7 16.8 3 20.3c-1.7 3.4-17.3 4.7-21.6-2.1 6.9.9 10.3.4 13.8-1.3 4.3-2.1 1.3-9.9-3-12.5-4.3-2.6-31.5-12.1-31.5-12.1l-.9-10.8 7.4-6.7z" style="fill:#3a3a3a;stroke:#000;stroke-width:1.2943;stroke-linecap:round;stroke-linejoin:round"/><path class="st7" d="M359.6 232.2s141.9 37.5 143.2 42.3l9.6-12.6-77.3-28.2-76.4-15.5.9 14z"/><path class="st6" d="M359.6 232.2s141.9 37.5 143.2 42.3"/><path class="st1" d="M365.6 215.4c-.8 1.5-6 16.8-6 16.8s2.9.8 7.8 2.1l4.3-17.2c.3-1.2-5.3-3.3-6.1-1.7zM323.3 242.1s8.6-24.2 9.1-25.5 6 0 5.2 1.7c-.9 1.7-7.8 26.7-7.8 26.7M414 228.8c-.3 1.6-5.2 16.5-5.2 16.5l2.9 3.9 2.3-2.3s4.5-14.6 4.9-16.2c.7-2.8-4.5-3.5-4.9-1.9zM463.6 261.2s3.6-15.5 4.2-17.2c.6-1.6 5.8 0 5.8 1.6s-4.5 17.2-4.5 17.2M523.4 335.9s10.7-61.5 11-63.7 9.1-.6 8.7 2.6-9.1 62.5-9.1 62.5"/><path class="st2" d="M578.1 781.8c0 7.5-6.1 13.6-13.6 13.6s-13.6-6.1-13.6-13.6 6.1-13.6 13.6-13.6 13.6 6.1 13.6 13.6z"/><path class="st1" d="M569 782.2c0 2.7-2.2 4.9-4.9 4.9s-4.9-2.2-4.9-4.9 2.2-4.9 4.9-4.9c2.8 0 4.9 2.2 4.9 4.9z"/><path class="st2" d="M763.2 717.4c0 8.4-6.8 15.2-15.2 15.2s-15.2-6.8-15.2-15.2c0-8.4 6.8-15.2 15.2-15.2 8.4 0 15.2 6.8 15.2 15.2z"/><path class="st1" d="M753.5 717.8c0 3.2-2.6 5.8-5.8 5.8-3.2 0-5.8-2.6-5.8-5.8 0-3.2 2.6-5.8 5.8-5.8 3.2-.1 5.8 2.6 5.8 5.8z"/><path class="st4" d="M694.6 715.8c0 8.9-7.2 16.2-16.2 16.2s-16.2-7.2-16.2-16.2 7.2-16.2 16.2-16.2c8.9 0 16.2 7.3 16.2 16.2z"/><path class="st11" d="M684.2 716.1c0 3.4-2.8 6.2-6.2 6.2-3.4 0-6.2-2.8-6.2-6.2 0-3.4 2.8-6.1 6.2-6.1s6.2 2.8 6.2 6.1z"/><path class="st4" d="M770.3 786.4c0 8.2-6.7 14.9-14.9 14.9s-14.9-6.7-14.9-14.9 6.7-14.9 14.9-14.9 14.9 6.6 14.9 14.9z"/><path class="st11" d="M760.6 787c0 3.2-2.6 5.8-5.8 5.8-3.2 0-5.8-2.6-5.8-5.8 0-3.2 2.6-5.8 5.8-5.8 3.2 0 5.8 2.6 5.8 5.8z"/><path class="st4" d="M736 641.1c0 9.8-8 17.8-17.8 17.8s-17.8-8-17.8-17.8 8-17.8 17.8-17.8 17.8 7.9 17.8 17.8z"/><path class="st11" d="M725 641.1c0 3.8-3 6.8-6.8 6.8s-6.8-3-6.8-6.8 3-6.8 6.8-6.8 6.8 3 6.8 6.8z"/><path class="st2" d="M720.5 496.1c0 9.1-7.4 16.5-16.5 16.5s-16.5-7.4-16.5-16.5 7.4-16.5 16.5-16.5 16.5 7.4 16.5 16.5z"/><path class="st1" d="M710.1 496.1c0 3.4-2.8 6.2-6.1 6.2-3.4 0-6.1-2.8-6.1-6.2 0-3.4 2.8-6.1 6.1-6.1 3.4 0 6.1 2.7 6.1 6.1z"/><path class="st4" d="M723.7 377c0 9.8-8 17.8-17.8 17.8s-17.8-8-17.8-17.8 8-17.8 17.8-17.8 17.8 8 17.8 17.8z"/><path class="st11" d="M714 378c0 4.3-3.5 7.8-7.8 7.8s-7.8-3.5-7.8-7.8 3.5-7.8 7.8-7.8 7.8 3.5 7.8 7.8z"/><path style="fill:none;stroke:#00ff0c;stroke-width:3.8829;stroke-linecap:round;stroke-linejoin:round" d="M655.1 438.8h6.5L649.9 345"/><path class="st5" d="M604.2 752.1s-7.8 9.1-17.7 5.6c-9.9-3.4-39.3-41-44-87.1-6-45.3 9.9-6.9 9.9-6.9l17.3 2.6 33.2 72.5 1.3 13.3z"/><path class="st1" d="m551.3 677.4-6.6 1.7M553.1 684.5l-6.9 2.2M555.4 691.9l-7.3 1.9M557.2 699.9l-7.4 2.1M560.2 707.2l-6.9 3M564.3 715.6l-7.1 3.7M569 723.4l-6.7 4.5M574.2 731.3l-6.2 4.8M580.3 738.3l-6.7 5.6M586.5 744.5l-6.9 6.5M593 750.1l-6.5 6.5"/><path class="st3" d="M654.2 671.8c6 29.3-50 80.2-50 80.2s-41.9-39.3-47.5-85.4c-5.6-46.2 59.5-3.4 59.5-3.4s32-20.7 38 8.6z"/><path class="st2" d="M618.2 738.1c16.2-17.2 40.1-46.6 36-66.3-6-29.3-38-8.6-38-8.6s-30.6-11.6-33.2 5.2c-.8 38.8 35.2 69.7 35.2 69.7z"/><path class="st1" d="M593.8 667.1c3 36.2 31.9 62.6 31.9 62.6M645.2 703.7s-18.5-9.9-20.3-34.5M633.1 670.1c-.4 14.2 16 25.9 16 25.9M605.3 682.4l9.9-3M607.9 689.9l10.1-4.3M611.7 697.9l9.8-6M616.1 704.2l9.9-7.4M620.6 710.7l9.7-8.7M626.2 715.4l8.4-8.6"/><path class="st5" d="M511.4 673.5c99.2-9.1 141.1 3 143.7.9s.4-15.1.4-15.1l-52.6-9.9-103.1 3s-3.9 20.3 11.6 21.1z"/><path class="st3" d="M504.5 645.5c1.3-.4 143.2-2.6 148 2.1 4.7 4.7 5.6 15.5 3.4 16-2.1.4-15.5-8.2-75.5-7.8-60 .4-74.2 3.9-74.2 3.9l-1.7-14.2z"/><path class="st6" d="m328.9 759.4 56.1-47 15.5-46.6s-50.1.4-59.5 5.2c-9.5 4.7-61.3 75.1-61.3 75.1l49.2 13.3z"/><path class="st5" d="M216.8 815.5h113l-1.3-12.5-23.3-12.1-63.4 4.3-25.9 6.5z"/><path class="st1" d="m239.6 815.5-6.9-11.7M253 815.5l-6-12.1M281.9 815.5l-9.5-13.4M296.6 815.1l-9.1-12.6M323.3 815.5l-8.6-13.4"/><path class="st5" d="M176.2 804.3c.4 2.1 20.8 1.3 43.6.2 0 0-2.1 14-4.3 13.6-2.1-.4-47.5.9-47.9-2.6-.4-3.5 8.6-11.2 8.6-11.2z"/><path class="st1" d="m181.8 817.2.9-12.1M192.6 817.2v-12.1M203 816.3l-.5-10.3M211.2 816.8l-.5-10.4"/><path class="st6" d="M176.2 804.3c-.9-4.3 25-37.5 44-40.6 19-3 56.5-11.6 56.5-11.6s13.8 40.6-2.6 50.5c-11.7-.4-97 6-97.9 1.7z"/><path d="M184.4 805.6c-5-.1 26.7-30.6 40.1-32.8s55.7-11.6 55.7-11.6c4.3 12.7 5.4 34.5-6.1 41.4-13.4-1.8-67.8 3.4-89.7 3z"/><path class="st5" d="m274.6 802.5.8-42.7 53.1 16.9V803z"/><path class="st1" d="M328.1 785.7c-6.5 2.6-40.6-7.8-43.1-6.5-2.6 1.3.9 22.9.9 22.9"/><path class="st3" d="M277.5 748.6s-56.2-6.3-58.5-4.7c-2.3 1.6 1.6 25.2 3.3 25.3 1.7.1 51.2-13.5 51.2-13.5l4-7.1z"/><path class="st2" d="M246.5 763c13.3-3.6 27-7.4 27-7.4l4-7.1s-17.6-2-33.5-3.4l2.5 17.9z"/><path class="st4" d="M229.1 743.9c-5.6-.4-9.5-.5-10.1-.1-2.3 1.6 1.6 25.2 3.3 25.3.5 0 4.9-1.1 10.9-2.6l-4.1-22.6z"/><path class="st5" d="M223 759c-.5 7-6.6 12.3-13.6 11.8s-12.3-6.6-11.8-13.6 6.6-12.3 13.6-11.8S223.5 752 223 759z"/><path class="st5" d="M214.8 758c-.2 2.5-2.4 4.4-4.9 4.2-2.5-.2-4.4-2.4-4.2-4.9.2-2.5 2.4-4.4 4.9-4.2 2.5.2 4.4 2.4 4.2 4.9z"/><path d="m292.7 746 66-75.9 35 2.1-9.1 29.4-64.7 52.2z"/><path class="st3" d="M271.1 762c-1.7-6.9 2.6-15.5 9.5-18.1 6.9-2.6 48.8 8.2 52.6 12.9s3 18.1-5.2 21.6c-8.1 3.4-55.1-9.5-56.9-16.4z"/><path class="st5" d="M319.9 825.4c-.9 4.3 40.1 6.9 40.1 6.9s-3 8.6-6 8.6-38.4.9-39.7-5.6c-.5-3.4 5.6-9.9 5.6-9.9z"/><path class="st1" d="m322.5 838.8 4.7-13.4M334.6 839.6l1.2-11.6M342.3 840.9l1.3-10.3M350.1 840.1l.9-9.9"/><path class="st6" d="M360 832.3s-41-2.6-40.1-6.9c.9-4.3 20.7-33.2 68.2-37.1l22-6.9 36.2 3.4-.9 39.7-31.1 4.7-44.4-1.7-9.9 4.8z"/><path d="M360 832.3s-20.5-1.3-32.2-3.6c6.8-12.8 20.6-23.2 43.9-28.8 23.3-5.6 74.4-5.2 74.4-5.2l-.6 29.8-31.1 4.7-44.4-1.7-10 4.8z"/><path class="st5" d="m489 799.5-.4 23.7-60.8-3.9s6.5-31.1 10.8-33.2c4.2-2.1 50.4 13.4 50.4 13.4z"/><path class="st5" d="M360 832.3s3-11.2 6-13.4c5.6-3.9 122.5 4.3 122.5 4.3v16.4L360 832.3z"/><path class="st1" d="M436.8 819.4s3-16.8 6.5-18.5c3.4-1.7 45.7 7.3 45.7 7.3M387.6 833.2l-7.8-14.7M399.3 834l-6.5-14.6M438.1 837.1l-9.1-16.9M450.6 837.1l-9.5-16.9M476.1 837.9l-9.1-15.5M480 823.3l7.7 12"/><path class="st3" d="M391.5 766.3c-1.7 1.3-3.9 24.2-3.9 24.2s47.9 0 50.1-2.1c2.1-2.1 1.7-6.5 0-8.2-1.8-1.8-44.5-15.2-46.2-13.9z"/><path class="st2" d="M420 790c9.1-.3 16.9-.8 17.7-1.7 2.1-2.1 1.7-6.5 0-8.2-.7-.7-7.5-3.1-15.8-5.7L420 790z"/><path class="st4" d="M404.5 769.1c-7-1.9-12.4-3.2-13-2.8-1.7 1.3-3.9 24.2-3.9 24.2s6 0 13.8-.1l3.1-21.3z"/><path class="st5" d="M391.7 777.5c0 7.9-6.4 14.2-14.2 14.2-7.9 0-14.2-6.4-14.2-14.2s6.4-14.2 14.2-14.2c7.8 0 14.2 6.4 14.2 14.2z"/><path class="st5" d="M383.3 777.5c0 2.9-2.3 5.2-5.2 5.2s-5.2-2.3-5.2-5.2c0-2.9 2.3-5.2 5.2-5.2s5.2 2.4 5.2 5.2z"/><path class="st3" d="M488.1 800.8c6-.9 12.1-13.8-1.7-19.4-8.2-3.4-43.1-4.3-47.5-3.9-4.3.4-4.3 12.5-.4 12.9 3.9.5 43.6 11.3 49.6 10.4z"/><path class="st0" d="M286.2 428c0 7.1-5.8 12.9-12.9 12.9-7.1 0-12.9-5.8-12.9-12.9s5.8-12.9 12.9-12.9c7.1 0 12.9 5.8 12.9 12.9zM273.3 477c0 7.3-5.9 13.2-13.2 13.2-7.3 0-13.2-5.9-13.2-13.2 0-7.3 5.9-13.2 13.2-13.2 7.3.1 13.2 5.9 13.2 13.2z"/><path class="st6" d="M229.7 409.5s28.9 3.4 31.9 8.2c3 4.7-6.9 57-16.8 57.8-9.9.9-32.4-16.8-32.4-16.8l17.3-49.2z"/><path class="st3" d="m216 448.6 7.7-21.9s38 3.9 37.3 6.9c-1.5 9.4-4.2 21.1-7.5 29.7-1.8 2.7-37.5-14.7-37.5-14.7z"/><path class="st1" d="M233.6 420.7c16 0 28 4.7 28 4.7M218.9 454.8c5.2 6 30.6 15.1 30.6 15.1"/><path class="st13" d="M309.1 143.1c0 1.8-1.5 3.2-3.2 3.2-1.8 0-3.2-1.5-3.2-3.2 0-1.8 1.5-3.2 3.2-3.2 1.7 0 3.2 1.4 3.2 3.2zM303.9 152.2c0 1.8-1.5 3.2-3.2 3.2-1.8 0-3.2-1.5-3.2-3.2 0-1.8 1.5-3.2 3.2-3.2 1.8-.1 3.2 1.4 3.2 3.2zM355.7 169c0 1.8-1.5 3.2-3.2 3.2-1.8 0-3.2-1.5-3.2-3.2 0-1.8 1.5-3.2 3.2-3.2 1.7 0 3.2 1.4 3.2 3.2zM366 167.7c0 1.8-1.5 3.2-3.2 3.2-1.8 0-3.2-1.5-3.2-3.2 0-1.8 1.5-3.2 3.2-3.2 1.8 0 3.2 1.4 3.2 3.2zM363.5 179.3c0 1.8-1.5 3.2-3.2 3.2-1.8 0-3.2-1.5-3.2-3.2 0-1.8 1.5-3.2 3.2-3.2 1.7 0 3.2 1.5 3.2 3.2zM350.5 181.9c0 1.8-1.5 3.2-3.2 3.2-1.8 0-3.2-1.5-3.2-3.2 0-1.8 1.5-3.2 3.2-3.2 1.8 0 3.2 1.4 3.2 3.2zM359.6 192.3c0 1.8-1.5 3.2-3.2 3.2-1.8 0-3.2-1.5-3.2-3.2 0-1.8 1.5-3.2 3.2-3.2 1.7-.1 3.2 1.4 3.2 3.2zM349.2 197.5c0 1.8-1.5 3.2-3.2 3.2-1.8 0-3.2-1.5-3.2-3.2 0-1.8 1.5-3.2 3.2-3.2 1.8-.1 3.2 1.4 3.2 3.2zM359.6 203.9c0 1.8-1.5 3.2-3.2 3.2-1.8 0-3.2-1.5-3.2-3.2 0-1.8 1.5-3.2 3.2-3.2 1.7 0 3.2 1.4 3.2 3.2zM424.3 210.8c0 1.8-1.5 3.2-3.2 3.2-1.8 0-3.2-1.5-3.2-3.2 0-1.8 1.5-3.2 3.2-3.2 1.7 0 3.2 1.4 3.2 3.2zM427.1 199.4c0 1.8-1.5 3.2-3.2 3.2-1.8 0-3.2-1.5-3.2-3.2 0-1.8 1.5-3.2 3.2-3.2 1.7 0 3.2 1.4 3.2 3.2zM430.8 187.1c0 1.8-1.5 3.2-3.2 3.2-1.8 0-3.2-1.5-3.2-3.2 0-1.8 1.5-3.2 3.2-3.2s3.2 1.4 3.2 3.2zM471.1 199c0 1.8-1.5 3.2-3.2 3.2-1.8 0-3.2-1.5-3.2-3.2 0-1.8 1.5-3.2 3.2-3.2 1.7-.1 3.2 1.4 3.2 3.2zM467.2 211c0 1.8-1.5 3.2-3.2 3.2-1.8 0-3.2-1.5-3.2-3.2s1.5-3.2 3.2-3.2c1.8 0 3.2 1.5 3.2 3.2zM464.2 220.5c0 1.8-1.5 3.2-3.2 3.2-1.8 0-3.2-1.5-3.2-3.2s1.5-3.2 3.2-3.2c1.8 0 3.2 1.4 3.2 3.2z"/><circle class="st13" cx="531.1" cy="213" r="3.2"/><path class="st13" d="M533 224.6c0 1.8-1.5 3.2-3.2 3.2-1.8 0-3.2-1.5-3.2-3.2 0-1.8 1.5-3.2 3.2-3.2s3.2 1.4 3.2 3.2zM531.7 236.3c0 1.8-1.5 3.2-3.2 3.2-1.8 0-3.2-1.5-3.2-3.2 0-1.8 1.5-3.2 3.2-3.2s3.2 1.4 3.2 3.2zM530.4 246.6c0 1.8-1.5 3.2-3.2 3.2-1.8 0-3.2-1.5-3.2-3.2 0-1.8 1.5-3.2 3.2-3.2 1.8 0 3.2 1.5 3.2 3.2zM560.2 251.8c0 1.8-1.5 3.2-3.2 3.2-1.8 0-3.2-1.5-3.2-3.2 0-1.8 1.5-3.2 3.2-3.2 1.7 0 3.2 1.4 3.2 3.2z"/><circle class="st13" cx="566" cy="258.3" r="3.2"/><path class="st13" d="M586.1 255.7c0 1.8-1.5 3.2-3.2 3.2-1.8 0-3.2-1.5-3.2-3.2 0-1.8 1.5-3.2 3.2-3.2 1.7 0 3.2 1.4 3.2 3.2zM578.3 263.5c0 1.8-1.5 3.2-3.2 3.2-1.8 0-3.2-1.5-3.2-3.2s1.5-3.2 3.2-3.2c1.8-.1 3.2 1.4 3.2 3.2zM586.1 222c0 1.8-1.5 3.2-3.2 3.2-1.8 0-3.2-1.5-3.2-3.2s1.5-3.2 3.2-3.2c1.7 0 3.2 1.5 3.2 3.2zM569.3 216.9c0 1.8-1.5 3.2-3.2 3.2s-3.2-1.5-3.2-3.2c0-1.8 1.5-3.2 3.2-3.2s3.2 1.4 3.2 3.2zM320.7 150.9c0 1.8-1.5 3.2-3.2 3.2-1.8 0-3.2-1.5-3.2-3.2 0-1.8 1.5-3.2 3.2-3.2s3.2 1.4 3.2 3.2zM315.6 196.2c0 1.8-1.5 3.2-3.2 3.2-1.8 0-3.2-1.5-3.2-3.2 0-1.8 1.5-3.2 3.2-3.2 1.7-.1 3.2 1.4 3.2 3.2zM307.8 189.7c0 1.8-1.5 3.2-3.2 3.2-1.8 0-3.2-1.5-3.2-3.2 0-1.8 1.5-3.2 3.2-3.2 1.8-.1 3.2 1.4 3.2 3.2zM294.9 185.8c0 1.8-1.5 3.2-3.2 3.2-1.8 0-3.2-1.5-3.2-3.2 0-1.8 1.5-3.2 3.2-3.2 1.7 0 3.2 1.4 3.2 3.2zM297.5 196.2c0 1.8-1.5 3.2-3.2 3.2-1.8 0-3.2-1.5-3.2-3.2 0-1.8 1.5-3.2 3.2-3.2 1.7-.1 3.2 1.4 3.2 3.2z"/><path class="st4" d="M379.4 304.9c0 18.7-17.1 33.9-38.2 33.9S303 323.6 303 304.9s17.1-33.9 38.2-33.9 38.2 15.2 38.2 33.9z"/><path class="st1" d="m322.5 300.3-18.2-1.3M323.3 307.2l-19-.4M326.4 314.2l-15.2 10.3M316.4 330.6l13.4-10.4M336.3 323.2l-1.7 14.3M342.3 338.3v-12.5M357.4 333.6l-4.7-8.2M364.7 330.1l-4.7-7.7M376 318.9l-8.2-3M378.1 310.7l-7.7-1.7M339.3 298.6l-.4-26.3M345.8 272.3l.4 28M328.5 286.1c0 2.1-1.7 3.9-3.9 3.9-2.1 0-3.9-1.7-3.9-3.9 0-2.1 1.7-3.9 3.9-3.9s3.9 1.8 3.9 3.9zM363.5 292.6c0 2.1-1.7 3.9-3.9 3.9-2.1 0-3.9-1.7-3.9-3.9 0-2.1 1.7-3.9 3.9-3.9 2.1 0 3.9 1.7 3.9 3.9z"/><path class="st7" d="M323.8 298.2c-2.6 4.3.9 22.9 17.7 26.3 16.8 3.4 28.5-11.6 28.9-15.5.4-3.9-44-15.1-46.6-10.8z"/><path class="st8" d="m346.3 300.1 2.4 24.9c12.9-1.2 21.3-12.6 21.7-15.9.2-2.2-12.1-6.3-24.1-9z"/><path class="st1" d="M323.8 298.2c-2.6 4.3.9 22.9 17.7 26.3 16.8 3.4 28.5-11.6 28.9-15.5.4-3.9-44-15.1-46.6-10.8z"/><path class="st5" d="M340.6 311.6c11.6 3 15.2-9 15.2-9-6.7-1.9-14.5-3.7-20.8-4.7-.9-.1-2.2 11.5 5.6 13.7z"/><path class="st1" d="M584.4 274S518 242.5 439 222.7c-79-19.8-155.3-23.3-155.3-23.3M327.7 145.4l-12.6 56.4"/><path class="st7" d="M321.6 170.3c0 9.7-7.8 17.5-17.5 17.5s-17.5-7.8-17.5-17.5 7.8-17.5 17.5-17.5 17.5 7.8 17.5 17.5z"/><path class="st8" d="M309.2 153.6c7.2 2.2 12.4 8.8 12.4 16.7 0 9.7-7.8 17.5-17.5 17.5-1 0-2-.1-3-.2l8.1-34z"/><path class="st1" d="M321.6 170.3c0 9.7-7.8 17.5-17.5 17.5s-17.5-7.8-17.5-17.5 7.8-17.5 17.5-17.5 17.5 7.8 17.5 17.5z"/><path class="st5" d="M309.1 170.9c0 3.3-2.7 6-6 6s-6-2.7-6-6 2.7-6 6-6 6 2.7 6 6z"/><path class="st1" d="m551.3 259.8 8.1-50.3"/><path class="st7" d="M591.7 237.6c0 9.9-8 17.9-17.9 17.9-9.9 0-17.9-8-17.9-17.9 0-9.9 8-17.9 17.9-17.9 9.9 0 17.9 8 17.9 17.9z"/><path class="st8" d="M576.8 219.9s-5.4 35.4-6.5 35.2c-8.2-1.6-14.4-8.9-14.4-17.6 0-9.9 8-17.9 17.9-17.9l3 .3z"/><path class="st1" d="M591.7 237.6c0 9.9-8 17.9-17.9 17.9-9.9 0-17.9-8-17.9-17.9 0-9.9 8-17.9 17.9-17.9 9.9 0 17.9 8 17.9 17.9z"/><path class="st5" d="M578.3 237.1c0 3.2-2.6 5.8-5.8 5.8s-5.8-2.6-5.8-5.8 2.6-5.8 5.8-5.8c3.2 0 5.8 2.6 5.8 5.8z"/><path class="st0" d="M204.7 415.6s9.5-18.5 20.3-15.1c19.8 6.9 2.2 66.9-20.3 61.7-11.6-3-9.1-24.2-9.1-24.2l9.1-22.4z"/><path class="st2" d="M208.6 441.9c4.3.9 11.6-22.9 5.6-25.9s-30.6-8.6-32.4-19 .4-22.4-3-30.2c-3.4-7.8-5.6-10.3-6.9-17.3-1.3-6.9-5.2-45.7-10.3-45.3-10.8 1.7.9 44-1.3 44.9-2.1.9-14.7-34.9-16.8-39.7-2.1-4.7-9.9.4-8.6 4.7 1.3 4.3 15.5 38.8 12.9 39.3s-18.2-28.9-22.4-32.8c-5.2-4.7-11.6 2.1-9.5 6 2.1 3.9 25.9 34.9 24.2 36.2-1.7 1.3-29.8-22-33.2-23.7-3.4-1.7-9.1 5.6-3.9 9.5 5.2 3.9 31.1 23.3 33.2 27.6 2.1 4.3 6.9 19 6.5 21.1-.4 2.1-10.4 1.7-15.1 0-4.7-1.7-16.4-18.5-19.4-18.1-3 .4-4.3 17.7 26.3 42.7 10.8 7.8 31.1 13.4 38.4 13.4 7.2.1 31.4 5.7 35.7 6.6z"/><path class="st5" d="M118.1 388.7c-4.2-4.7-8.4-9.6-10-9.3-1.9.3-3.1 7.1 3.7 18.3l6.3-9zM114.5 344.8c-3.8-2.9-6.8-5.2-7.7-5.6-3.4-1.7-9.1 5.6-3.9 9.5 1.3 1 3.8 2.8 6.9 5.2l4.7-9.1zM129.5 326.3c-1.8-2.7-3.3-4.8-4.2-5.7-5.2-4.7-11.6 2.1-9.5 6 .5.9 2.3 3.5 4.7 6.8l9-7.1zM146.3 316.8c-1.3-3.6-2.4-6.3-2.9-7.4-2.1-4.7-9.9.4-8.6 4.7.3 1.1 1.4 4 2.9 7.8l8.6-5.1zM167.2 318.5c-1.6-8.1-3.5-14.4-5.6-14.2-4 .6-4.9 7-4.6 14.7l10.2-.5z"/><path class="st1" d="M202.1 440.6s-.9 11.6 6.9 13.4c10.3 1.7 22-40.6 13.4-45.7-6-3.9-10.8 6.5-10.8 6.5"/><path class="st4" d="m546 539.4 18.1-75.9-28.9-40.1-52.6 6.9-13.4-.9-30.6 6.5s-38.4 63.8 24.2 101.8c41.7 23.7 83.2 1.7 83.2 1.7z"/><path class="st0" d="m482.5 430.2-13.4-.9s-13.4 33.2-14.7 42.7c-11.6 45.7 40.6 56.5 71.2 49.6 13.8-3.9 26.7-11.6 26.7-11.6l11.6-46.6-28.9-40.1-52.5 6.9z"/><path class="st1" d="m454.1 470.3-25.5-2.1M451.9 481.5l-25-4.3M457.1 501.4l-16.4 16.4M447.6 525.6l15.1-16.9M489.4 522.5l-1.7 23.3M498.5 523.4l-.4 24.6M522.2 522.1 530 545M529.6 520.4l8.6 20.3M518.3 533.3c0 2.9-2.3 5.2-5.2 5.2-2.9 0-5.2-2.3-5.2-5.2 0-2.9 2.3-5.2 5.2-5.2 2.9 0 5.2 2.4 5.2 5.2zM475.6 526.9c0 2.9-2.3 5.2-5.2 5.2s-5.2-2.3-5.2-5.2c0-2.9 2.3-5.2 5.2-5.2s5.2 2.3 5.2 5.2zM447.2 495.8c0 2.9-2.3 5.2-5.2 5.2s-5.2-2.3-5.2-5.2 2.3-5.2 5.2-5.2 5.2 2.3 5.2 5.2z"/><path class="st2" d="M326.4 399.2s-1.7-4.3-1.7-6.9c0-2.6 10.3-12.9 17.7-13.4 7.3-.4 63.4-3.4 63.4-3.4l-.4 20.3-75.9 8.6-3.1-5.2z"/><path d="M354.8 378.2c2.1-.1 4.5-.2 6.9-.4l.9 22.8-7.4.8c.1 0-.8-24.3-.4-23.2z" style="fill:#8c4200;stroke:#000;stroke-width:3.8829;stroke-linecap:round;stroke-linejoin:round"/><path class="st3" d="M375.1 377.1c15.6-.9 30.7-1.7 30.7-1.7l-.4 20.3-28.5 3.2-1.8-21.8z"/><path class="st4" d="M392.8 376.1c7.6-.4 13-.7 13-.7l-.4 20.3-13.4 1.5.8-21.1z"/><path class="st7" d="M384.2 411.2c-7.3 33.2 2.1 72.9 9.9 74.2 7.3-6.5.9-57.4 9.5-62.6 8.7-5.2-10.3-16-10.3-16s-1.8-28.8-9.1 4.4z"/><path class="st8" d="M384.2 411.2c-1.4 6.2-2.1 12.6-2.5 19l18.2 1.2c.7-4.3 1.9-7.4 3.7-8.5 8.7-5.2-10.3-16-10.3-16s-1.8-28.9-9.1 4.3z"/><path class="st1" d="M384.2 411.2c-7.3 33.2 2.1 72.9 9.9 74.2 7.3-6.5.9-57.4 9.5-62.6 8.7-5.2-10.3-16-10.3-16s-1.8-28.8-9.1 4.4z"/><path class="st7" d="M384.2 411.2c-6 17.7-2.6 69.9-13.4 75.9-8.2-6-6.5-71.2-9.9-76.8-3.4-5.6 14.2-4.3 14.2-4.3s15.1-12.5 9.1 5.2z"/><path class="st8" d="M384.2 411.2c-1.6 4.7-2.5 11.8-3.2 19.8l-17.8-.4c-.5-10.3-1.1-18.5-2.2-20.3-3.4-5.6 14.2-4.3 14.2-4.3s15-12.5 9 5.2z"/><path class="st1" d="M384.2 411.2c-6 17.7-2.6 69.9-13.4 75.9-8.2-6-6.5-71.2-9.9-76.8-3.4-5.6 14.2-4.3 14.2-4.3s15.1-12.5 9.1 5.2z"/><path class="st7" d="M364.3 410.8s-.4 72.5-7.8 76.4c-14.2-6-2.1-53.9-9.9-72-7.7-18.2 17.7-4.4 17.7-4.4z"/><path class="st8" d="M364.3 410.8s0 8.5-.4 19.8l-14.5.4c-.3-6.3-1-11.9-2.8-16-7.7-18 17.7-4.2 17.7-4.2z"/><path class="st1" d="M364.3 410.8s-.4 72.5-7.8 76.4c-14.2-6-2.1-53.9-9.9-72-7.7-18.2 17.7-4.4 17.7-4.4z"/><path class="st7" d="M327.6 421.6s1.3 60 6.5 60c9.9 0 15.5-59.5 12.1-68.2-3.4-8.6-18.6 8.2-18.6 8.2z"/><path class="st8" d="M327.6 421.6s.1 3.7.3 9.4l19.1-.7c.4-8 .1-14.4-.9-16.8-3.3-8.7-18.5 8.1-18.5 8.1z"/><path class="st1" d="M327.6 421.6s1.3 60 6.5 60c9.9 0 15.5-59.5 12.1-68.2-3.4-8.6-18.6 8.2-18.6 8.2z"/><path class="st4" d="M324.2 411.7s.9-8.2 2.1-12.5c1.3-4.3 72.5-9.1 78.9-3.4 13.4 11.2 9.5 36.3 9.5 42.7 0 9.1 3.9 16.4 10.8 16 6.9-.4 3-8.2 3-8.2l7.8-5.2 5.6 6-.9 8.2-8.2 9.1h-11.2l-11.6-9.9-4.7-13.8-3-20.3-7.3-12.1h-23.7l-23.3 2.6-14.2 6-9.6-5.2z"/><path class="st4" d="M326.8 422.4c5.6-2.1 44.4-16 60.4-9.5s14.7 25 14.7 30.2c0 16.4 16.5 31.1 32.8 25.5 12.5-4.3 12.5-19.8 10.3-24.2-2.1-4.3-6.9-7.9-12.1-8.2-7.3-.4-14.2 9.5-11.2 12.5s12.1-5.2 15.5-2.1c3.4 3 .9 16.4-13.8 13.8-6.5-1.7-13-8-13.8-17.3-.4-5.2 1.3-31.5-13.4-38.8-14.7-7.3-66.9 4.3-72 7.3-5.2 3.1-3 13 2.6 10.8z"/><path class="st1" d="M393.7 382.8H404M393.2 387.9l10 .9"/><path class="st5" d="M423.9 383.4c0 6.3-5.1 11.4-11.4 11.4-6.3 0-11.4-5.1-11.4-11.4 0-6.3 5.1-11.4 11.4-11.4 6.2 0 11.4 5.1 11.4 11.4z"/><path class="st5" d="M416.5 383.2c0 2.4-1.9 4.3-4.3 4.3s-4.3-1.9-4.3-4.3 1.9-4.3 4.3-4.3 4.3 1.9 4.3 4.3z"/><path class="st1" d="m340.2 387.9 13.8-1.7"/><path class="st0" d="m502.4 433.7 48.7 1.7s1.7 24.2 0 38c-3.4 21.1-46.6 20.7-48.3-.4-.4-15.2-.4-39.3-.4-39.3z"/><path class="st2" d="M502.7 469.5c-.3-15.1-.3-35.8-.3-35.8l48.7 1.7s1.4 19.6.4 33.6c-.1 1.5-13.4 9.9-25.4 9.5-12.1-.4-23.3-7.8-23.4-9z"/><path class="st3" d="M502.5 458.7c-.2-12.6-.2-25-.2-25l48.7 1.7s.8 11.6.8 23.3c0 5.2-12.4 10.3-24.9 9.5-12.4-.9-24.3-4.5-24.4-9.5z"/><path class="st5" d="M511.4 488.5c0 10.7-8.7 19.4-19.4 19.4s-19.4-8.7-19.4-19.4 8.7-19.4 19.4-19.4c10.8-.1 19.4 8.6 19.4 19.4z"/><path class="st5" d="M499.8 489.3c0 4.1-3.3 7.3-7.3 7.3s-7.3-3.3-7.3-7.3c0-4.1 3.3-7.3 7.3-7.3s7.3 3.3 7.3 7.3z"/><path class="st3" d="M478.2 432.8s-6.9 34.5-1.7 38c5.2 3.4 31.9 1.7 31.9 1.7l1.3-44-31.5 4.3z"/><path class="st5" d="M474.6 459.5c-.2 5.6.1 10.1 1.9 11.2 5.2 3.4 31.9 1.7 31.9 1.7l.3-11.2-34.1-1.7z"/><path class="st1" d="M481.7 469.9v-8.4M490.3 472.5l-.2-11M499.4 471.2l-.9-10.4"/><path class="st3" d="M478.2 432.8s2.6-107.4 7.8-109.2c5.2-1.7 73.3 14.7 75.1 16.4 1.7 1.7-9.9 97.9-9.9 97.9l-73-5.1z"/><path class="st5" d="m541.2 437.3 11.2-92.1-69-11.6c.8-5.9 1.6-9.6 2.5-9.9 5.2-1.7 73.3 14.7 75.1 16.4 1.7 1.7-9.9 97.9-9.9 97.9l-9.9-.7z"/><path class="st2" d="m520 435.8-41.8-3s1.2-51 3.7-83.3c0 0 39.5 3.5 42 5.6 2.6 2.2-3.9 80.7-3.9 80.7z"/><path class="st1" d="M481.2 366.8c8.6-1.7 43.1 3 43.1 3M487.7 433.7s-1.7-51.8 6.9-56.1c8.6-4.3 28.9 3 28.9 3M502.8 434.5l5.2-57.4M490.3 392.7l32.8 4.7M487.7 419l32.8 2.6"/><path d="M500.2 405.6c0 1.9-1.5 3.4-3.4 3.4s-3.4-1.5-3.4-3.4 1.5-3.4 3.4-3.4 3.4 1.5 3.4 3.4zM517.1 406.9c0 1.9-1.5 3.4-3.4 3.4s-3.4-1.5-3.4-3.4 1.5-3.4 3.4-3.4c1.8 0 3.4 1.5 3.4 3.4zM518.3 387.5c0 1.9-1.5 3.4-3.4 3.4s-3.4-1.5-3.4-3.4 1.5-3.4 3.4-3.4 3.4 1.5 3.4 3.4zM501.5 384.9c0 1.9-1.5 3.4-3.4 3.4s-3.4-1.5-3.4-3.4 1.5-3.4 3.4-3.4 3.4 1.5 3.4 3.4zM519.6 361.6c0 1.9-1.5 3.4-3.4 3.4s-3.4-1.5-3.4-3.4 1.5-3.4 3.4-3.4 3.4 1.5 3.4 3.4zM496.3 359c0 1.9-1.5 3.4-3.4 3.4s-3.4-1.5-3.4-3.4 1.5-3.4 3.4-3.4 3.4 1.5 3.4 3.4z"/><path class="st5" d="m488.1 681.7-97.9-6s-78.5 3.4-91.9 5.6c-13.4 2.1-23.7 5.2-23.7 5.2s.9-22 1.7-27.2c.9-5.2 10.8-12.5 10.8-12.5s-8.6-1.3-12.1-5.2c-3.4-3.9-2.1-36.2-2.1-36.2s112.2.4 127.7-3 100.1 7.8 100.1 7.8l-3 72.5-9.6-1z"/><path class="st2" d="m325.9 605.2 21.1-.3 3.4 72.7c-7.2.4-14.6.8-21.6 1.2l-2.9-73.6z"/><path class="st13" d="M339.3 618.1c0 2.3-1.8 4.1-4.1 4.1s-4.1-1.8-4.1-4.1 1.8-4.1 4.1-4.1 4.1 1.8 4.1 4.1zM340.6 634.9c0 2.3-1.8 4.1-4.1 4.1s-4.1-1.8-4.1-4.1 1.8-4.1 4.1-4.1c2.2 0 4.1 1.9 4.1 4.1zM341.9 651.8c0 2.3-1.8 4.1-4.1 4.1s-4.1-1.8-4.1-4.1 1.8-4.1 4.1-4.1c2.2 0 4.1 1.8 4.1 4.1zM343.2 668.6c0 2.3-1.8 4.1-4.1 4.1s-4.1-1.8-4.1-4.1 1.8-4.1 4.1-4.1 4.1 1.8 4.1 4.1z"/><path class="st8" d="M311.7 680c-6.1.5-10.9.9-13.4 1.3l-2.6-75.9c5 0 16.4-.1 16.4-.1s-.9 56.2-.4 74.7z"/><path class="st2" d="M315.6 679.7c-3.2.2-8.6.7-8.6.7-.9-3 5.6-22.4-.9-27.1-12.5-9.5-23.7 6.9-30.5 14.6.2-3.7.5-7 .8-8.6.9-5.2 10.8-12.5 10.8-12.5s-8.6-1.3-12.1-5.2c-1.5-1.7-2.1-9.2-2.3-16.8 2.3 7.3 12.3 16.8 27.3 9.5 15.1-7.3 1.3-28.9 13.4-29l2.1 74.4z"/><path class="st5" d="M272.9 605.4s112.2.4 127.7-3"/><path class="st1" d="M390.2 675.7s-78.5 3.4-91.9 5.6c-13.4 2.1-23.7 5.2-23.7 5.2"/><path class="st5" d="M300 666.2c0 3.6-2.9 6.5-6.5 6.5s-6.5-2.9-6.5-6.5 2.9-6.5 6.5-6.5 6.5 2.9 6.5 6.5zM296.6 619.4c0 3.4-2.8 6.3-6.2 6.3s-6.2-2.8-6.2-6.3c0-3.4 2.8-6.2 6.2-6.2 3.4-.1 6.2 2.7 6.2 6.2z"/><path class="st3" d="M397.5 633 382 717.8l18.8 1.3 22-86.8z"/><path class="st5" d="m384.9 701.9-2.9 15.9 18.8 1.3 3.7-14.9z"/><path class="st1" d="m388.9 713.2 2.6-9M395.4 714.5l2.1-9.5"/><path class="st2" d="m411.6 676.6 11.2-44.3-25.3.7-7.7 42.2z"/><path class="st1" d="m397.5 675.3 8.2-42.3"/><path class="st3" d="m438.3 638.2-7.1 86 29.8 1.3 4.5-86z"/><path class="st2" d="m462.9 689.5 2.6-50-27.2-1.3-4 48.3z"/><path class="st5" d="m432.3 711.1-1.1 13.1 29.8 1.3.6-11.4z"/><path class="st1" d="m439 722.7.4-9.9M445.4 723.6l1.3-9.5M453.2 723.6l.9-9.5M442.8 686.9l3.1-47.9M463.1 661.9l-16.4-.9M464 670.9l-18.6-1.7"/><path class="st3" d="m482.3 642.7 11.7 88 37.5-5.2-27.2-83.4z"/><path class="st2" d="m520.1 690.5-15.8-48.4-22 .6 7 52.9z"/><path class="st5" d="m492.4 718.9 1.6 11.8 37.5-5.2-3.8-11.8z"/><path class="st1" d="m503.2 727.5-1.3-8.7M512.7 726.2l-2.6-8.2M522.7 725.3l-3.1-9M498.5 692.5l-7.8-49.6M495.5 667.1l14.2-2.2M497.6 674.8l15.1-2.6"/><path class="st15" d="M413.7 642.5c0 1.3-1.1 2.4-2.4 2.4-1.3 0-2.4-1.1-2.4-2.4 0-1.3 1.1-2.4 2.4-2.4 1.4 0 2.4 1.1 2.4 2.4zM456.2 653.9c0 1.3-1.1 2.4-2.4 2.4-1.3 0-2.4-1.1-2.4-2.4 0-1.3 1.1-2.4 2.4-2.4s2.4 1.1 2.4 2.4zM502.8 653.9c0 1.3-1.1 2.4-2.4 2.4-1.3 0-2.4-1.1-2.4-2.4 0-1.3 1.1-2.4 2.4-2.4 1.3 0 2.4 1.1 2.4 2.4zM509.3 681.1c0 1.3-1.1 2.4-2.4 2.4-1.3 0-2.4-1.1-2.4-2.4 0-1.3 1.1-2.4 2.4-2.4 1.3 0 2.4 1.1 2.4 2.4zM456.2 679.8c0 1.3-1.1 2.4-2.4 2.4-1.3 0-2.4-1.1-2.4-2.4s1.1-2.4 2.4-2.4c1.4 0 2.4 1.1 2.4 2.4zM409.6 665.3c0 1.4-1.2 2.6-2.6 2.6-1.4 0-2.6-1.2-2.6-2.6 0-1.4 1.2-2.6 2.6-2.6 1.5.1 2.6 1.2 2.6 2.6z"/><path class="st5" d="M404.7 729.7c0 8.4-6.8 15.2-15.2 15.2s-15.2-6.8-15.2-15.2c0-8.4 6.8-15.2 15.2-15.2 8.3 0 15.2 6.8 15.2 15.2z"/><path class="st5" d="M394.3 728.8c0 2.9-2.3 5.2-5.2 5.2s-5.2-2.3-5.2-5.2c0-2.9 2.3-5.2 5.2-5.2s5.2 2.3 5.2 5.2zM457.7 736.5c0 7.5-6.1 13.6-13.6 13.6s-13.6-6.1-13.6-13.6 6.1-13.6 13.6-13.6 13.6 6.1 13.6 13.6z"/><path class="st5" d="M448.7 736.2c0 2.7-2.2 4.9-4.9 4.9s-4.9-2.2-4.9-4.9 2.2-4.9 4.9-4.9 4.9 2.2 4.9 4.9zM536 749.2c0 10.5-8.6 19.1-19.1 19.1-10.5 0-19.1-8.6-19.1-19.1 0-10.5 8.6-19.1 19.1-19.1 10.6 0 19.1 8.5 19.1 19.1z"/><path class="st5" d="M523.1 747.9c0 3.8-3 6.8-6.8 6.8s-6.8-3-6.8-6.8c0-3.7 3-6.8 6.8-6.8 3.7 0 6.8 3 6.8 6.8z"/><path class="st1" d="m415.7 657.2-13-.9M416.5 650.7l-11.2-.9"/><path class="st0" d="M526.5 645.5s-3-65.6-5.6-66c-3.9-.4-104.8-18.5-109.6-17.3-4.7 1.3-23.7 71.2-23.7 71.2 76 19 138.9 12.1 138.9 12.1z"/><path class="st2" d="M417.4 639.8c61.9 10.9 109.1 5.8 109.1 5.8s-1.9-41.5-4-58.7c0 0-92.7-13.4-97.4-12.1-4.7 1.2-7.7 65-7.7 65z"/><path class="st3" d="M526.5 645.5s-.5-11.3-1.3-24.6L396.6 602c-4.9 16.3-9 31.4-9 31.4 76 19 138.9 12.1 138.9 12.1z"/><path class="st5" d="M526.5 645.5s-.2-3.6-.4-9c-22.4 0-110-4.8-135.4-14-1.9 6.6-3 10.9-3 10.9 75.9 19 138.8 12.1 138.8 12.1z"/><path class="st1" d="m447.4 609.3 3-32.2M454.7 610.5l3.2-32.1M488.6 615.1l3.4-31.9M495.7 615.9l3.2-31.9M513.4 619l.6-33M479.5 596.8c0 3.3-2.7 6-6 6s-6-2.7-6-6 2.7-6 6-6 6 2.6 6 6zM441.5 590.3c0 3.1-2.5 5.6-5.6 5.6-3.1 0-5.6-2.5-5.6-5.6 0-3.1 2.5-5.6 5.6-5.6 3.1 0 5.6 2.5 5.6 5.6z"/><path class="st6" d="M569.3 623.5c-1.3 22.9-23.7 29.3-25.5 3.4-2-30.2 7.3-189.4 7.3-189.4l28.9-15.1s-9.5 178.2-10.7 201.1z"/><path class="st0" d="M574.2 532c-.4 6.5-.7 13-1 19.4l-27.8.7c.3-6.8.6-13.8.9-20.7l27.9.6zM571.8 576c-1.2 23-2.2 41.1-2.6 47.5-1.3 22.9-23.7 29.3-25.5 3.4-.6-8.6-.2-27.6.6-50.5l27.5-.4z"/><path class="st6" d="M569.2 435.4s-2.1 177.3.4 194.1c2.6 16.8 34.1 20.3 35.8-4.7 1.7-25-1.7-198.9-1.7-198.9l-34.5 9.5z"/><path class="st0" d="M605.7 548.4c-.1-5.7-.1-11.4-.2-17.2l-37 1.3v17.7l37.2-1.8zM568.4 576c.1 26.8.4 48.2 1.3 53.5 2.6 16.8 34.1 20.3 35.8-4.7.5-7.1.6-26 .4-49.6l-37.5.8z"/><path class="st6" d="M593.4 435.8s6.9 171.7 12.1 189c4.7 23.3 38.8 17.3 37.1-6.5-1.3-22.4-25.9-189-25.9-189l-23.3 6.5z"/><path class="st0" d="M633.6 546.7c-.8-5.5-1.6-11.2-2.4-16.9L598 532c.3 5.5.6 11 .9 16.4l34.7-1.7zM600.5 574.8c1.7 24.9 3.4 44.7 5 50 4.7 23.3 38.8 17.3 37.1-6.5-.4-6.3-2.6-24.2-5.6-46.6l-36.5 3.1z"/><path class="st6" d="M613.7 436.7s18.5 161.4 25.5 180.8c10.8 32.4 45.3 22.9 40.1-10.3-5.2-33.2-36.7-180.8-36.7-180.8l-28.9 10.3z"/><path class="st0" d="M667.4 545.4c-1.3-6.2-2.6-12.6-3.9-19-1.1 0-38.4 3.4-38.4 3.4.8 6 1.6 11.9 2.4 17.7l39.9-2.1zM631 572.6c3.2 21.9 6.2 39.3 8.2 44.9 10.8 32.4 45.3 22.9 40.1-10.3-1.2-7.5-3.7-20.9-6.9-37l-41.4 2.4z"/><path class="st6" d="M715.5 597.2c-3.5-21.7-53.9-158.3-53.9-158.3l-7.3-11.2-13.8 5.6s21.6 134.6 40.6 175.6c12.2 26.6 39.6 20.6 34.4-11.7z"/><path class="st0" d="M668.1 569.6c4.1 15.1 8.9 30.5 12.9 39.3 12.3 26.6 39.7 20.7 34.5-11.6-.8-5-4.1-16.3-8.8-30.6l-38.6 2.9zM697.7 539.7c-2-5.7-4-11.6-6.1-17.5l-33.8 3.9 3.9 17.7 36-4.1zM549 437.5l112.6 1.3-11.7-93.8-88.8-5z"/><path class="st6" d="m549 437.5 20.7.3 38.2-45.6 47.2 46.6h6.5L649.9 345l-42 47.2-46.8-52.2z"/><path class="st16" d="M571.4 372c0 1.9-1.5 3.4-3.4 3.4s-3.4-1.5-3.4-3.4 1.5-3.4 3.4-3.4c1.9-.1 3.4 1.5 3.4 3.4zM583.1 379.7c0 1.9-1.5 3.4-3.4 3.4s-3.4-1.5-3.4-3.4 1.5-3.4 3.4-3.4c1.8 0 3.4 1.5 3.4 3.4zM568.8 394c0 1.9-1.5 3.4-3.4 3.4s-3.4-1.5-3.4-3.4 1.5-3.4 3.4-3.4c1.9-.1 3.4 1.5 3.4 3.4zM567.5 419.8c0 1.9-1.5 3.4-3.4 3.4s-3.4-1.5-3.4-3.4 1.5-3.4 3.4-3.4 3.4 1.5 3.4 3.4zM583.1 405.6c0 1.9-1.5 3.4-3.4 3.4s-3.4-1.5-3.4-3.4 1.5-3.4 3.4-3.4c1.8 0 3.4 1.5 3.4 3.4zM592.1 391.4c0 1.9-1.5 3.4-3.4 3.4s-3.4-1.5-3.4-3.4 1.5-3.4 3.4-3.4c1.9-.1 3.4 1.5 3.4 3.4zM630.9 384.9c0 1.9-1.5 3.4-3.4 3.4s-3.4-1.5-3.4-3.4 1.5-3.4 3.4-3.4 3.4 1.5 3.4 3.4zM633.5 401.7c0 1.9-1.5 3.4-3.4 3.4s-3.4-1.5-3.4-3.4 1.5-3.4 3.4-3.4 3.4 1.5 3.4 3.4zM649.1 405.6c0 1.9-1.5 3.4-3.4 3.4s-3.4-1.5-3.4-3.4 1.5-3.4 3.4-3.4c1.8 0 3.4 1.5 3.4 3.4zM646.5 387.5c0 1.9-1.5 3.4-3.4 3.4s-3.4-1.5-3.4-3.4 1.5-3.4 3.4-3.4c1.8-.1 3.4 1.5 3.4 3.4zM645.2 369.4c0 1.9-1.5 3.4-3.4 3.4s-3.4-1.5-3.4-3.4 1.5-3.4 3.4-3.4c1.8-.1 3.4 1.5 3.4 3.4z"/><path class="st17" d="M687 555.1c0 2.7-2.2 5-5 5-2.7 0-5-2.2-5-5s2.2-5 5-5 5 2.3 5 5zM675.4 513.7c0 2.7-2.2 5-5 5s-5-2.2-5-5c0-2.7 2.2-5 5-5s5 2.3 5 5zM670.2 496.9c0 2.7-2.2 5-5 5-2.7 0-5-2.2-5-5 0-2.7 2.2-5 5-5s5 2.2 5 5zM666.3 478.8c0 2.7-2.2 5-5 5s-5-2.2-5-5c0-2.7 2.2-5 5-5s5 2.2 5 5zM661.2 456.7c0 2.7-2.2 5-5 5-2.7 0-5-2.2-5-5 0-2.7 2.2-5 5-5 2.7.1 5 2.3 5 5zM635.3 456.7c0 2.7-2.2 5-5 5-2.7 0-5-2.2-5-5 0-2.7 2.2-5 5-5 2.7.1 5 2.3 5 5zM637.9 477.5c0 2.7-2.2 5-5 5-2.7 0-5-2.2-5-5 0-2.7 2.2-5 5-5 2.7 0 5 2.2 5 5zM641.7 498.2c0 2.7-2.2 5-5 5s-5-2.2-5-5c0-2.7 2.2-5 5-5s5 2.2 5 5zM645.6 516.3c0 2.7-2.2 5-5 5-2.7 0-5-2.2-5-5s2.2-5 5-5 5 2.3 5 5zM653.4 559c0 2.7-2.2 5-5 5-2.7 0-5-2.2-5-5s2.2-5 5-5 5 2.3 5 5zM618.4 560.3c0 2.7-2.2 5-5 5s-5-2.2-5-5c0-2.7 2.2-5 5-5s5 2.3 5 5zM615.8 518.9c0 2.7-2.2 5-5 5-2.7 0-5-2.2-5-5 0-2.7 2.2-5 5-5s5 2.2 5 5zM614.5 500.8c0 2.7-2.2 5-5 5-2.7 0-5-2.2-5-5 0-2.7 2.2-5 5-5s5 2.2 5 5zM612 480c0 2.7-2.2 5-5 5-2.7 0-5-2.2-5-5 0-2.7 2.2-5 5-5 2.7.1 5 2.3 5 5zM609.4 456.7c0 2.7-2.2 5-5 5s-5-2.2-5-5c0-2.7 2.2-5 5-5 2.8.1 5 2.3 5 5zM587.4 456.7c0 2.7-2.2 5-5 5s-5-2.2-5-5c0-2.7 2.2-5 5-5 2.7.1 5 2.3 5 5zM587.4 478.8c0 2.7-2.2 5-5 5s-5-2.2-5-5c0-2.7 2.2-5 5-5 2.7 0 5 2.2 5 5zM587.4 498.2c0 2.7-2.2 5-5 5s-5-2.2-5-5c0-2.7 2.2-5 5-5 2.7 0 5 2.2 5 5zM587.4 518.9c0 2.7-2.2 5-5 5s-5-2.2-5-5c0-2.7 2.2-5 5-5 2.7 0 5 2.2 5 5zM587.4 562.9c0 2.7-2.2 5-5 5s-5-2.2-5-5c0-2.7 2.2-5 5-5 2.7 0 5 2.2 5 5zM560.2 562.9c0 2.7-2.2 5-5 5s-5-2.2-5-5c0-2.7 2.2-5 5-5s5 2.2 5 5zM562.8 515c0 2.7-2.2 5-5 5s-5-2.2-5-5c0-2.7 2.2-5 5-5s5 2.3 5 5zM562.8 491.7c0 2.7-2.2 5-5 5s-5-2.2-5-5c0-2.7 2.2-5 5-5s5 2.3 5 5zM564.1 472.3c0 2.7-2.2 5-5 5s-5-2.2-5-5c0-2.7 2.2-5 5-5s5 2.2 5 5zM564.1 452.9c0 2.7-2.2 5-5 5s-5-2.2-5-5c0-2.7 2.2-5 5-5s5 2.2 5 5z"/></svg>