<svg version="1.1" id="Calque_1" xmlns="http://www.w3.org/2000/svg" x="0" y="0" viewBox="0 0 900 900" style="enable-background:new 0 0 900 900" xml:space="preserve"><style>.st0,.st1{stroke:#000;stroke-width:5.3004;stroke-linecap:round;stroke-miterlimit:10}.st0{fill:red;stroke-linejoin:round}.st1{fill:#005e4c}.st1,.st2,.st3{stroke-linejoin:round}.st2{fill:#ff4800;stroke:#000;stroke-width:5.3004;stroke-linecap:round;stroke-miterlimit:10}.st3{fill:none}.st3,.st4,.st5{stroke:#000;stroke-width:5.3004;stroke-linecap:round;stroke-miterlimit:10}.st4{fill:#ffce00;stroke-linejoin:round}.st5{fill:#282828}.st6{fill:red}.st7{stroke:#000;stroke-width:5.3004;stroke-linecap:round;stroke-linejoin:round;stroke-miterlimit:10}.st7,.st8{fill:#fff}.st9{fill:#4a7000;stroke:#000;stroke-width:5.3004;stroke-linecap:round;stroke-linejoin:round;stroke-miterlimit:10}.st11{fill:#282828}</style><path class="st0" d="M476.5 698.7s17.2 15.2 37.8 25.8C550 740.4 560 755 560 755l35.8-25.2-56.3-57.6-15.9-26.5-70.9 17.9 10.6 29.8 13.2 5.3z"/><circle class="st0" cx="599.4" cy="771.2" r="41.4"/><circle class="st1" cx="599.4" cy="771.5" r="19.9"/><path class="st2" d="M610.3 785.5c6 4.6 8.6 17.9 11.9 35.1 1.3-6 6.6-9.3 14.6-8.6 8 .7 9.9 8 9.3 15.2s-10.6 14.6-19.2 12.6-19.2-9.9-19.9-15.2c-4.6 6.6-26 8-32.5 8.6 1.5 3.8 1.3 8-3.3 12.6s-11.9 4-18.6-.7c-6.6-4.6-8.6-21.9 2-24.5 10.6-2.7 33.8-3.3 36.4-7.3 2.7-4-1.3-16.6 1.3-25.2 2.8-8.6 12.1-7.3 18-2.6z"/><path class="st3" d="M607 824.5c2.2-4.4 2-18.1-1.1-23.4M622.3 820.6c-1.5 5.8 6.8 9.3 11.7 4M574.6 833.2c-9.5-7.3-19.2 3.3-14.4 7.8"/><circle class="st4" cx="468.2" cy="698.4" r="12.4"/><circle class="st4" cx="534.8" cy="661.6" r="12.4"/><path class="st2" d="M483.1 605.2c-.3-.1-.5-.3-.7-.4L415.1 642l3.4 9.1 72.9-41.3c-2.6-1.5-5.4-3-8.3-4.6zM534.8 643c-.5-2.5-13.3-14.2-32.3-26.4l-79.9 45.5 12.8 33.9s9.3-.7 13.9-6c6 .7 11.3-2.7 11.9-5.3 6-.7 8.6-2.7 10.6-6 8 0 11.3-2 11.3-6 6 0 11.9-4 13.3-7.3 7.3-1.3 9.9-5.3 10.6-8.6 6-.7 11.9-3.3 11.9-6 4.6 0 8-.7 8-4.6 4.6.8 8.6.1 7.9-3.2z"/><path class="st2" d="m491.4 609.8-72.9 41.3 4.1 10.9 79.9-45.6c-3.5-2.1-7.2-4.3-11.1-6.6z"/><path class="st3" d="m449.3 690-9-21.2M461.3 684.7l-11.6-21.8M471.9 678.8l-10.6-20.4M483.1 672.8l-11.7-19.7M496.4 665.5l-14.2-19.4M507 656.9l-13.5-17.4M518.9 651l-15.2-17.3M526.9 646.3l-15.3-16.5"/><path class="st0" d="M439.4 584 399 599.3l16.1 42.7 67.3-37.2c-28.7-14.9-43-20.8-43-20.8zM381.6 763l18.2 76.5s11-2 25.2-5.9l-22.5-75.8-20.9 5.2z"/><path class="st0" d="m422.6 752.7-20.3 5.1 22.5 75.8c8.7-2.4 18.5-5.5 27.6-9.3l-29.8-71.6z"/><path class="st4" d="M476.2 810.7c-10.1-20.7-18.5-43.4-25.3-65.1l-28.3 7.1 29.8 71.6c9.3-3.9 17.7-8.4 23.8-13.6z"/><path class="st5" d="m427.5 649.7-31.8-60.6-45.7 22.8-5-3 21.5 90.8 67.6-16.5c-4.4-20.3-6.6-33.5-6.6-33.5z"/><path class="st4" d="m444.8 725.1-68.1 17.4 4.8 20.5 69.4-17.4c-2.2-6.9-4.2-13.8-6.1-20.5z"/><path class="st0" d="m440.2 707.9-68 15.4 4.6 19.1 68.1-17.4c-1.8-5.8-3.3-11.6-4.7-17.1z"/><circle class="st6" cx="379" cy="692.2" r="12.6"/><circle class="st6" cx="414.9" cy="672.2" r="12.6"/><circle class="st6" cx="383.9" cy="659.4" r="12.6"/><circle class="st6" cx="364.9" cy="639.5" r="12.6"/><path d="M379 686.6c-3 0-5.5 2.5-5.5 5.5s2.5 5.5 5.5 5.5 5.5-2.5 5.5-5.5-2.5-5.5-5.5-5.5zM414.9 666.7c-3 0-5.5 2.5-5.5 5.5s2.5 5.5 5.5 5.5 5.5-2.5 5.5-5.5-2.5-5.5-5.5-5.5zM383.9 653.8c-3 0-5.5 2.5-5.5 5.5s2.5 5.5 5.5 5.5 5.5-2.5 5.5-5.5-2.4-5.5-5.5-5.5zM364.9 633.9c-3 0-5.5 2.5-5.5 5.5s2.5 5.5 5.5 5.5 5.5-2.5 5.5-5.5-2.4-5.5-5.5-5.5z"/><path class="st3" d="m345.1 609 21.4 90.7"/><path class="st1" d="m434.2 683.2-67.6 16.5 2.7 11.5 67.6-16.6c-1-4-1.9-7.8-2.7-11.4z"/><path class="st1" d="m436.9 694.6-67.6 16.6 2.8 12.1 68-15.4c-1.1-4.6-2.2-9-3.2-13.3z"/><path class="st0" d="M269.8 690s-21.2 75.5-20.5 89.4c12.6 4 35.8 2 47.7-7.3 2.7-9.3 31.1-55.7 31.1-55.7l6.6-27.2-64.9.8zM272 631.6c-.5 1.2-1 2.5-1.5 3.9 37.4 18.5 68.1 22 77.3 22.7-.4-13.3-.3-26.2 1.2-32.3.9-3.8-.1-8.6-2.2-13.6-21.7 2.5-54.8 15.1-74.8 19.3z"/><circle class="st4" cx="260.1" cy="704.8" r="12.4"/><circle class="st4" cx="334.1" cy="711.3" r="12.4"/><path class="st2" d="M347.8 658.1c-9.1-.7-39.9-4.2-77.3-22.7-1.1 2.7-2.2 5.7-3.4 8.8 32.5 15 69.3 20.7 81 22.1-.1-2.6-.2-5.4-.3-8.2zM263.6 653.8c-6.3 16.6-12.7 34.1-12.6 36 .3 3.6 7.4 5 9.1 2.7 2.4 2.3 8.5 3.7 10.4 0 1.9 2.9 8 3.7 11.9 1 1.9 2.6 10.7 4.7 12.9 2 2.9 3.2 8.3 3.4 10.9 1 1.3 2.9 10 3.7 12.9 1.7 4.2 2.6 13 4.4 14.9.9 3.9 2.5 16 3.2 15.9-.5 0-1.5-.7-10.7-1.4-22.3-13.9-2.7-61.7-11.6-84.9-22.5z"/><path class="st2" d="M348.2 666.4c-11.7-1.5-48.5-7.1-81-22.1-1.2 3-2.4 6.2-3.6 9.5 23.3 10.9 71 19.9 85.1 22.3-.3-3.1-.4-6.3-.5-9.7z"/><path class="st3" d="m260.1 692.4 9.4-24.7M270.9 693.4l8.4-23.4M282.4 693.4l7.5-19.9M295.4 695.4l5.9-18.8M306.3 696.4l4.3-18.1M319.2 698.1l3.8-16.7M334.5 700l2.2-15.9"/><circle class="st7" cx="373.8" cy="796.7" r="13.9"/><circle class="st3" cx="373.8" cy="796.3" r="4.8"/><path class="st4" d="m306.2 774.9-7.3 7.9 12.6 18.6 22.9 3.5 4.4-27z"/><path class="st0" d="m338.8 777.9-4.4 27 15.1 2.4 4.6-28z"/><path class="st7" d="m363.2 780.2-9.1-.9-1.2 7.5 9.1 1zM349.5 807.3l9.1 1.3 2-12.8-9-1.4z"/><path class="st7" d="m352.9 786.8-1.3 7.6 9 1.4 1.4-8z"/><path class="st0" d="M391 821.2c-4-4-76.2-37.8-83.5-38.4s-21.2 6-21.2 6l11.3 49 59.6-1.3s.1.9.3 2.1l39.7-4.6c-1.5-4.9-3.8-10.4-6.2-12.8z"/><path class="st7" d="m298.9 787.4-52.3 4s-4.4 7.6-8.7 16.6l61.9-8-.9-12.6zM234.1 816.1c-3.9 9.1-6.6 17.8-4 20.3 6 6 16.6 4.6 16.6 4.6l55-12.6-1.3-20.7-66.3 8.4z"/><path class="st7" d="m299.7 800-61.9 8c-1.3 2.7-2.6 5.4-3.8 8.2l66.2-8.4-.5-7.8zM242.7 832.8l7.6 16.6c2.5-.1 5.2-.3 8-.5l-7.8-16.8c-2.8.1-5.4.4-7.8.7zM250.6 832l7.8 16.8c7.7-.5 16.4-1.1 25.2-1.7l-9-17.2c-8.7.7-16.9 1.5-24 2.1z"/><path class="st7" d="M227.4 834.5c-4 1.3-3.3 13.3 1.3 15.2 1.2.5 9.6.3 21.6-.5l-7.6-16.6c-8.8 1-14.5 1.6-15.3 1.9zM354.6 824.5c-.9-.4-14.2.3-31.9 1.6l7.9 17.2c13.7-1.1 23.5-2.1 24.6-2.3 4-.6 2-15.1-.6-16.5zM314 826.8l9.3 17.2c2.5-.2 5-.4 7.3-.6l-7.9-17.2c-2.8.1-5.7.3-8.7.6zM274.6 829.9l9 17.2c3-.2 6-.5 9-.7l-8.6-17.2c-3.2.2-6.3.4-9.4.7z"/><path class="st7" d="m284 829.1 8.6 17.2c10.7-.8 21.3-1.7 30.7-2.5l-9.3-17.2c-9.6.9-19.9 1.7-30 2.5zM366.5 837.5l3 9.7c2.8-.1 6-.3 9.3-.6l-3.1-10.2-9.2 1.1z"/><path class="st7" d="M357.6 838.5c.5 2.4 1.7 6.1 4.3 7.9 1 .7 3.9.9 7.7.9l-3-9.7-9 .9zM375.7 836.5l3.1 10.2c3.6-.3 7.3-.9 10.5-1.5l-3.4-9.9-10.2 1.2zM399 841.8c0-1.4-.7-4.4-1.7-7.8l-11.4 1.3 3.4 9.9c5.5-1 9.7-2.2 9.7-3.4z"/><path class="st4" d="M243 787.3c-1.1 3.2-1 6.5.9 8.7 4 4.6 53-1.3 66.3-11.9 3-2.4 1.4-6.2-2-8.9-6 4.3-16.2 10.1-30.3 12.3-15.7 2.4-27.9 1.1-34.9-.2z"/><path class="st4" d="M297 772.2c-23.2 6-42.4 4.6-47.7 7.3-2.7 1.4-5.1 4.5-6.2 7.8 7 1.3 19.3 2.7 34.9.1 14-2.3 24.2-8 30.3-12.3-3.3-2.5-7.8-4.2-11.3-2.9zM204.9 587.1c-11.9 28.8-56.6 78.5-54.7 83.5 2 5 12.9 7 21.9 1-25.8 57.6-59.6 77.5-60.6 83.5s15.9 0 15.9 0-18.9 33.8-35.8 55.7c5 22.9 25.8 21.9 25.8 21.9l11.9-23.9 49.7-73.5L232.7 622l8-37.8c0-.1-23.8-25.9-35.8 2.9z"/><path class="st0" d="M224.8 692.4 194 678.5l-17.8 30 34.9 16.4z"/><path class="st4" d="m176.2 708.5-14.1 23.6 38.6 17.3 10.4-24.5z"/><path class="st0" d="m162.1 732.1-45.6 76.6 26.1 14.7 44.1-80.3z"/><path class="st4" d="m200.7 749.4-14-6.3-44.1 80.3 19.6 10.9z"/><path class="st1" d="M183.1 678.5c10.9 11.9 41.7 13.9 41.7 13.9l3.8-6.6-39.2-19.1c-2.1 4.1-4.3 8-6.3 11.8zM195.1 656.3c-1.9 3.5-3.7 7-5.6 10.4l39.2 19.1 6.7-11.5-40.3-18z"/><path class="st0" d="m259.6 632.8-29.8-44.7s-17.5 35.7-34.7 68.2l40.3 18 24.2-41.5zM393.8 113s12.9-22.9 59.6-16.9c18.9 4 5 15.9 5 15.9l-53.7 15.9-10.9-14.9z"/><path class="st0" d="M530.8 80.2s0-21.9-9.9-23.9-38.8 7.3-50.7 14.2-20.5 33.5-20.5 33.5l8.5 8 72.6-31.8zM413.6 120s-20.9-20.9-34.8-22.9c-13.9-2-36.8 9.9-36.8 9.9l9.9 19.9 41.7 13.9 20-20.8z"/><path class="st2" d="M380.8 127.9S516 79.2 530.9 80.2c14.9 1 34.8 35.8 10.9 53.7-17.9 10.9-152.1 40.7-152.1 40.7l-8.9-46.7z"/><path class="st7" d="m373.5 184.3-11.5-9.6s-7-39.8-23.9-38.8c10.3-9.1 29.7-13.5 40.3-15.3l-.6-.3c-15.9-7-52.3-1.3-60.3 9.6s.3 139.1.3 139.1l22.2 20.9 45.7-14.9-12.9-90.4.7-.3z"/><path class="st3" d="M328.2 270.1s-7-133.2 9.9-134.2 23.9 38.8 23.9 38.8M342.7 130.2l-.7 167M342.4 234.4l20.1 25.7M343.1 221.8l23.4 27M339.4 205.1l27.8 29.8M340 193.8l27.8 28.5M337.4 181.9l29.1 25.2M338.7 171.3l29.1 25.8"/><path class="st2" d="M322.1 67.9c-4.6 3.3-8 13.2-2.7 22.9 5.3 9.6 28.5 46 28.5 46l13.3-9.3s-31.8-43.1-30.5-46.4c.3-.9 2.7-2.2 6-3.8l-9.2-12.7c-2.5 1.5-4.4 2.6-5.4 3.3z"/><path class="st4" d="M361.9 64.6c0-3.3-6.6-13.3-9.3-12.6-1.4.3-8.3 3.7-15.2 7.4l9.1 13.6c7.7-3.4 15.4-6.7 15.4-8.4zM327.4 64.7l9.2 12.7c2.8-1.3 6.4-2.8 9.8-4.4l-9.1-13.6c-3.4 1.8-7 3.7-9.9 5.3z"/><path class="st2" d="M311.5 118.3c-6 0-11.3-9.6-8-17.9s10.6-7.6 15.9-7.6 29.8 38.1 29.8 38.1 2 4.6-6.6 6.6c-5.3-6-21.2-27.2-21.2-27.2s-3.9 8-9.9 8z"/><path class="st3" d="M321.5 110.3c-.2-5.8-8-7.5-9.3-1.3"/><path class="st7" d="m362 174.7 11.5 9.6 24.2-12.6s-3.9-43.3-19.3-51.1c-10.6 1.8-30.1 6.1-40.3 15.3 16.9-1 23.9 38.8 23.9 38.8z"/><path class="st3" d="M369.8 177.2s-8-41.7-18.6-48.4M361.4 124.9c8.4 8.8 16.4 48.4 16.4 48.4M371.2 121.8c8.8 8 15.9 47.5 15.9 47.5"/><path class="st5" d="m414.9 588.7-8.6-62.3 1.4-.7-13.9-14.2-103.4 20.9-44.7 31.8s-.5 32.8 4.4 53.1c10.5-3.7 43.6-15 78-22.6 41.7-9.3 86.8-6 86.8-6z"/><path class="st7" d="m445.4 564.2-37.8-38.5-1.4.7 8.6 62.3s-45.1-3.3-86.8 6c-34.5 7.7-67.5 18.9-78 22.6 2.1 8.6 5.1 14.9 9.5 15.5 14.9 2 63.6-18.9 90.4-20.9 26.8-2 83.5-1 90.4-13.9 7.1-12.9 5.1-33.8 5.1-33.8z"/><path class="st3" d="m269.1 619.2 2.7 12.3M280.1 615.8l3.6 12.8M291.7 612.7l3.9 12.4M304 609l3.1 11.9M316.4 605.7l3.1 11M364.1 597.5v13.2M423.2 591.3l10.2 8M429.9 583.4l11 2.6M430.8 573.4l12.8 1.8"/><path class="st0" d="M479.2 399.3c46.7 6 88.5 24.2 93.4 23.2 5-1 60.6-97.7 60.6-97.7l37.8 10.9S626.3 443 620.3 454c-6 10.9-13.9 18.6-28.8 19.5-14.9 1-97.4-5.3-97.4-5.3s-15.9 12.6 5 10.6 154 32.8 154 32.8l-11.9 32.8s-105.3 3-123.2-1c-17.9-4-82.2-18.2-82.2-18.2l-52 19.2-39.8-1-6-129.2c.1 0 94.5-20.9 141.2-14.9z"/><path class="st0" d="m415.6 448.9-35.1-6.3s2 78.7-4 150.3l46.4-1.3c-7.9-68.8-7.3-142.7-7.3-142.7z"/><path class="st1" d="M376.5 592.9c-1.8 20.9-4.2 41.2-7.6 58.8 29.8-2 29.8-25.8 29.8-25.8s1 37.8 33.8 24.8c-4.2-17.8-7.3-38.2-9.7-59l-46.3 1.2z"/><path class="st0" d="m486.1 415.2-23.9 3-8.3 28.5s18.8 59.8 32.9 115.3c.1.2.1.3.1.5l46.8-16.5c-34.4-71.1-47.6-130.8-47.6-130.8z"/><path class="st1" d="M533.8 546.1 487 562.6c7.2 28.5 13.3 55.7 15 73.2 30.4-1.7 25.1-28.6 23.3-35.2l-.5-1.5s.2.5.5 1.5c2 5.9 11.7 26.6 44.3 9.4-13.9-21.5-25.7-43.3-35.8-63.9z"/><path class="st3" d="m525.3 600.5-.5-1.5.5 1.5z"/><path class="st1" d="M436.1 431c40.3-12.9 35.6-46.6 34.6-51.7l-43.1-24.8-91.4 6 1 4s-.4 23.2.9 41c13.3 9.6 58 38.3 98 25.5z"/><path class="st1" d="m393.5 431.7-3.3 16.9c11.3 3 23.5 4.9 35 4.6l-2.6-19.4c-9.8 1-19.7 0-29.1-2.1zM422.6 433.8l2.6 19.4c3.5-.1 7-.3 10.3-.9l-5.3-19.8c-2.5.6-5 1-7.6 1.3z"/><path class="st1" d="m384.3 429.2-3.4 16.7c3 1 6.1 1.9 9.3 2.7l3.3-16.9c-3.1-.7-6.2-1.6-9.2-2.5zM338 405.5c.7 9.5 2 17.6 4 19.6 2.3 4.6 18.4 14.1 38.9 20.7l3.4-16.7c-21.1-6.6-38.7-18.2-46.3-23.6zM436.1 431c-1.9.6-3.8 1.1-5.8 1.5l5.3 19.8c6.6-1 12.8-2.8 18.4-5.7 2-1.1 3.8-2.1 5.5-3.2l-12.4-17c-3.2 1.7-6.9 3.3-11 4.6zM485.1 409.8l-17.8-3.6c-2.4 5.1-6.1 10.3-11.8 14.8l13.3 15.6c10.6-9 14.9-18.5 16.3-26.8z"/><path class="st1" d="m485.5 401.6-15.4-3.7c-.6 2.7-1.5 5.5-2.8 8.3l17.8 3.6c.5-2.9.5-5.7.4-8.2zM447.2 426.4l12.4 17c3.5-2.2 6.6-4.5 9.3-6.8L455.5 421c-2.4 1.9-5.2 3.8-8.3 5.4z"/><path class="st1" d="m481.1 385.3-10.5-6c.4 2.2 1.5 9.7-.5 18.6l15.4 3.7c-.5-9.6-4.4-16.3-4.4-16.3z"/><path class="st4" d="M438.5 420.1c35.8-19.9 10.9-46.7 10.9-46.7l-29.8-12.9h-83.5l4 31.8s55.6 51.7 98.4 27.8zM376.9 311.8l2-25.8 203.9-24.7c-14.4-16.5-31.2-30.1-32.3-32.9-2-5 2-9.9-1-15.9S528 180 528 180l-137.1 23.5-44.9 94.2 29 40.9 153.1 31c.7-3.8 2.4-7 7.8-8.1 9.9-2 9.9 4 15.9 4 7-9.9 4-18.9 4-18.9s9.9-10.9 8.9-15.9-8-12.9-8-12.9l-19.9-17.9-159.9 11.9z"/><path class="st0" d="m345.9 297.7-13.8 29 10.9 39.8s54.7 41.7 77.5 30.8c18.9-10.9 8-22.9 9.9-26.8s65.3 24.8 75.2 23.9c9.9-1 18.9-8 20.9-14.9.9-3.1.9-6.6 1.5-9.7l-153.1-31-29-41.1z"/><path class="st0" d="M603.4 300.9c0-12.5-9.6-26.9-20.7-39.6L378.8 286l-2 25.8 160-11.9 19.9 17.9s46.7-9 46.7-16.9z"/><path class="st7" d="M500.2 288.7c0-7.8-5.5-14.3-12.9-15.9l-10.5 1.3c-5.4 2.7-9.1 8.2-9.1 14.6 0 7.2 4.8 13.4 11.3 15.5l12.1-.9c5.3-2.6 9.1-8.2 9.1-14.6zM469.9 366.4c0-3.6-1.5-6.9-3.8-9.3l-14.5-2.9c-4.8 2-8.1 6.7-8.1 12.3 0 2.8.9 5.5 2.5 7.6 4.2 1.5 9 3.3 14 5.2 5.6-1.5 9.9-6.7 9.9-12.9z"/><circle class="st3" cx="483.9" cy="288.7" r="6"/><circle class="st3" cx="456.6" cy="366.4" r="5.3"/><path class="st6" d="M460.3 232.6c-2 3-2 4.6-1 8.6s4 2 8.9 3 9.9 10.3 17.9 12.3c.7.1 1.4.3 2.1.4l-4.4-32.1c-11.8 3-22.6 6.4-23.5 7.8z"/><path class="st8" d="M515.3 220c-2.7-1.6-17.8 1.3-31.5 4.8l4.4 32.1c8.8 1.3 25.2-.5 30.7-9.7 6-9.9 1.3-24.2-3.6-27.2z"/><path class="st3" d="M460.3 232.6c2-3 50-15.6 55-12.6s9.6 17.2 3.6 27.2c-6 9.9-24.8 11.3-32.8 9.3s-12.9-11.3-17.9-12.3-8 1-8.9-3c-.9-3.9-.9-5.6 1-8.6z"/><path class="st7" d="M486.1 227.9c0 4.6 3.8 8.4 8.4 8.4s8.5-3.8 8.5-8.4c0-2.7-1.3-5.1-3.2-6.6-4 .7-8.4 1.7-12.8 2.8-.5 1-.9 2.4-.9 3.8zM515.8 335.7c1.3 4.1 2.3 9 3.1 14.4 5.3.7 10.6 0 11.9-2.7-.8-5.6-1.6-11.1-2.8-15.5-4.9 1.2-9 2.6-12.2 3.8z"/><path class="st7" d="M509 339.6c-2 3.3-2 12.6 1.3 13.3 3.3.7 8 0 8.6-2.7-.8-5.4-1.8-10.3-3.1-14.4-3.8 1.4-6.3 2.9-6.8 3.8zM564.6 330.7c-3.2-.7-6.5-1.1-9.7-1.2 1.3 4.5 2.2 10.1 3 16-.9-5.9-1.7-11.5-3-16-4.2-.3-8.3-.1-12.4.2.7 4.6.7 10.2 1.5 15.8 2 2 10.1 2.8 12.3.4 2.9 2.3 8.9 4.2 11.5.9 2.7-3.3-3.2-16.1-3.2-16.1z"/><path class="st7" d="M527.9 332c1.3 4.4 2.1 9.8 2.8 15.5 4 .7 11.9 1.3 13.3-2-.8-5.6-.9-11.3-1.5-15.8-5.2.5-10.1 1.3-14.6 2.3z"/><path class="st2" d="M195 288.9s-.1 270.3-6 305.1c29.9 0 143.2-5 143.2-5l-10.9-318L195 288.9z"/><circle class="st4" cx="630.2" cy="504.6" r="13.4"/><circle class="st4" cx="622.3" cy="552.3" r="13.4"/><path class="st3" d="M203.5 105s-1.3-6-6-14.2M210.2 101.7l-4-21.9M194.3 114.3 187 103"/><path class="st7" d="m321.5 367.4-50.9 87L189 594c3.5 0 8.3-.1 13.8-.2.5-.3.7-.5.7-.5l73.1-125.7 47.5-81.7-2.6-18.5z"/><path class="st3" d="m339.4 160 25.1 21.2"/><path class="st7" d="m251.2 300.5 74.9 63.6 2.7-13.3-75.6-62.3zM331.9 583.4c-75.7-100.7-122.7-144-137.7-156.8-.1 4-.1 8.1-.1 12.1 19.5 18.6 70.4 70.2 126.1 150.8 7.4-.3 11.9-.5 11.9-.5l-.2-5.6zM238 354.1l-43.1-39.6c0 4.2 0 8.7-.1 13.6l33.1 31.2 10.1-5.2z"/><path class="st1" d="M652.1 294.9s-16.9-4.3-23.9.7-7.3 18.2-.3 27.2c7 8.9 47 21.9 58 17.9s15.9-25.5 8.9-30.5-42.7-15.3-42.7-15.3z"/><circle class="st4" cx="672.5" cy="354.1" r="13.4"/><circle class="st4" cx="627.2" cy="339.6" r="13.4"/><path class="st7" d="M769.7 223.3c-3.4.6-11.3.9-21.1 1.1l.9 17.2c27.8-2.7 23.8-12.6 20.2-18.3z"/><path class="st2" d="m749.5 241.6-.9-17.2c-24.6.5-61.4.2-70.7 1.6-12.9 2-21.2 12.3-26.2 21.2-5 8.9-8 50-6 56s29.2 13.6 32.1 9.6-1-10.3 4-14.6 16.9-3.3 29.8-10.3c12.9-7 14.9-25.8 14.9-25.8s27-2.8 49.7-5.4l-3.2-15.8c-9.6.5-18.9.9-23.5.7z"/><path class="st7" d="M807.1 240.2c-1.9-1.2-18.6-.2-34 .6l3.2 15.8c15.8-1.9 29.5-3.7 30.8-4.5 3-1.9 3-9.9 0-11.9z"/><path class="st2" d="M711.7 287.9c12.9-7 14.9-25.8 14.9-25.8s1.6-21.9-.4-23.9-9.9-3.3-13.3.7c-.7-3.3-10.6-4.6-14.6-.7-4-4.6-8-5.3-14.6-1.3 2.7 7.3 0 27.8 0 27.8"/><path class="st3" d="m723 242.8 26.5-1.2M683.9 236.9c-3.3-10.6-15.2-7.3-15.2-7.3"/><path class="st7" d="M726.3 238.2c-2-2-9.9-3.3-13.3.7-.7-3.3-10.6-4.6-14.6-.7-4-4.6-8-5.3-14.6-1.3 1 2.7 1.3 7.4 1.2 12.1l42.2 1.4c.1-5.7 0-11.2-.9-12.2z"/><path class="st3" d="M697.1 257.4c2.7-6.6 2.7-13.3 1.3-19.2M711 257.4c2.7-6.6 3.3-12.6 2-18.6"/><path class="st2" d="M226.7 284.4c10.3 68.8-.9 351.3-.9 351.3s19.9 3 33.8-3c4.5-143.7-5-321.1-6.7-352.1l-26.2 3.8z"/><path class="st2" d="M329.2 358.5c-56.8-6-118.8-2.4-134.4-1.3-.1 7.3-.1 15-.1 22.9 13.3-1.9 62.4-7.7 131.6-1.8 5.8-10.8 8.8-16.8 2.9-19.8zM331.1 474.8l-137.6 4.8c-.1 8.1-.3 16.1-.5 23.8l139.1-6.8-1-21.8z"/><path class="st3" d="m203.5 141.5-6.6-8.7"/><path class="st9" d="M350 175.9s7.3-15.9 1.3-19.2c-2.2-1.2-13.8-1.6-28-1.8-.5 9.3-3.3 34.7-17.8 44.9-17.9 12.6-46.4 15.2-46.4 15.2L187 203.7s-15.9-.7-30.5-12.6c-11.8-9.7-16.6-31.9-18.1-40-19.7 2.4-43.6 1.6-45.5 3.6-3.3 3.3-2.7 15.9 0 17.2 2.7 1.3 24.5 1.3 24.5 1.3s-19.2 8.6-21.2 10.6 1.3 17.2 5.3 17.9c4 .7 10.4-1.3 10.4-1.3s-3.1 4-3.1 7.3c0 3 4.6 13.9 8 12.6s8.4-4 8.4-4-2.5 5.3-3.1 9.3c-.7 4 5.3 7.3 9.3 8 4 .7 8-4 8-4s-2 7.3-1.3 9.9 19.9 8 19.9 8l23.9-2 60.3-17.2 17.2-7.3s4.6 27.8 9.3 28.5c4.6.7 13.3-4 13.3-4s10.6 1.3 15.2-4.6c6.6.7 16.6-5.3 18.6-12.6 9.3 1.3 17.2-6.6 16.6-13.3 10.6-4 13.9-17.2 13.3-20.5 6.9-10.6 4.3-18.6 4.3-18.6z"/><path class="st3" d="M99.5 163.3c18.6 1.3 43.1-6 43.1-6M106.1 190.5l44.4-21.9M116.1 209.7l37.7-30.5M130.7 224.9l33.7-37.1M346 166l-28.5-4M344.7 182.5l-30.5-8.6M336.7 202.4l-25.2-17.9M321.5 218.3l-17.3-22.5M304.9 230.2l-12.6-30.4M287 236.9l-7.3-30.5M272.4 240.8l-5.9-32.4M281.7 245.5l-8.6-35.8M297 240.8l-9.3-35.1M315.5 228.3l-16.6-25.9M332.1 215l-23.9-21.9M345.3 194.5l-29.8-15.3M350 175.9l-31.2-8.6M117.4 173.3c13.1-2.5 28.5-8.1 28.5-8.1M111.8 200.4l37.4-24.5M125.1 216.3l33.4-32.4M139.3 229.6l30.4-35.8"/><path class="st9" d="M132 387.9c-.7-16.6-4-53.7-4-53.7l9.9-28.5-14.6-2.7s-15.9 15.2-17.2 28.5 4 38.4 8 57c2.2 10.3 4.2 26.2 5.3 39.1h16.4c-1.5-14.2-3.5-31-3.8-39.7z"/><path class="st2" d="M119.3 427.7c.8 10.4 1.4 18.8 2 20.5 1.3 4 12.6 6.6 15.2 4.6 1.3-.9.4-12.1-.9-25.2h-16.3z"/><path class="st9" d="M134 338.2c0-5.3 15.9-19.9 15.9-19.9l-4.6-13.3-9.3-4.6s-20.5 23.9-20.5 33.8c0 5.4 11.7 39.8 21.1 70.5 2.3 7.5 4.4 14.7 6.3 21.3l18.2-7.3c-10.8-30-27.1-76.8-27.1-80.5z"/><path class="st2" d="M169.1 443.6c-.2-1.8-3.6-11.7-8.1-24.8l-18.2 7.3c4.6 15.9 7.8 27.8 9.1 28.8 3.9 3.3 17.8-5.4 17.2-11.3z"/><path class="st3" d="M158.5 442.9s-33.1-98.1-33.1-106.7c0-8.6 14.6-21.9 14.6-21.9M128.7 443.6s-1.8-35.6-4.6-47.9c-4.9-21-9.5-56.5-8.1-63.1"/><path class="st2" d="M105.5 297.2c-.7 4.6 41.7 23.9 44.4 21.2 1-1 5.7-11.9 11.2-25.2l-40.7-20.3c-8.5 12.6-14.7 22.7-14.9 24.3z"/><path class="st7" d="m120.4 272.8 40.7 20.3c2.9-7.1 6.1-14.9 9.1-22.2l-36.6-17.5c-4.7 6.7-9.2 13.3-13.2 19.4z"/><path class="st1" d="m133.6 253.4 36.6 17.5c2.4-5.8 4.6-11.4 6.4-16l-33.8-14.4c-3.1 4.1-6.2 8.6-9.2 12.9z"/><path class="st9" d="M186.3 216.3s-13.3-4.6-19.9-4c-2.6.3-12.5 12.8-23.7 28.1l33.8 14.4c3-7.6 5.1-12.8 5.1-12.8l4.7-25.7z"/><path d="M279.1 172.6c7.6-4.2 10.6-12.5 11.8-17.9-14.2-.1-25.6-.3-27-1.3-13.9-1.3-68.2-8-68.2-8s-14-2.1-23.4-2.3c2.1 7.7 5.1 15.8 8.8 19.5 7.9 8 86 16.6 98 10z" style="fill:#282828;stroke:#000;stroke-width:5.3004;stroke-linecap:round;stroke-linejoin:round;stroke-miterlimit:10"/><path class="st2" d="M156.5 191.1c14.6 11.9 30.5 12.6 30.5 12.6l72.2 11.3s28.5-2.7 46.4-15.2c14.4-10.2 17.2-35.5 17.8-44.9-5.5-.1-11.4-.1-17.3-.1-4 30.1-30.6 40.9-51.5 39-21.2-2-31.8-2-65.6-8-27.4-4.8-33-29.3-34.2-38.4-4.4 1.4-9.7 2.8-15.5 3.6-.3.1-.6.1-.9.1 1.4 8.2 6.3 30.4 18.1 40z"/><path class="st0" d="M189 185.8c33.8 6 44.4 6 65.6 8 20.9 2 47.5-8.9 51.5-39-5.2 0-10.3-.1-15.2-.1-1.2 5.4-4.2 13.6-11.8 17.9-11.9 6.6-90.1-2-98.1-9.9-3.7-3.7-6.7-11.9-8.8-19.5-2.3-.1-4.3.1-5.8.3-1.7.3-5.8 2.2-11.7 4 1.2 9.1 6.8 33.5 34.3 38.3z"/><path class="st3" d="M239.3 177.2S227.4 162 228.7 150s11.9-21.9 11.3-30.5"/><path class="st9" d="M273.8 286.6c-4-8-12.6-40.4-17.2-44.4s-23.2-2-23.2-2l-32.5 1.3 9.3 25.2s18.6 0 31.1-1.3c5.1 16.4 13.4 23.7 16.9 26.1l15.6-4.8v-.1z"/><path class="st3" d="M212.1 255.4h33.8s8.6 22.5 23.2 36.4"/><path class="st4" d="M298.9 307.1c-4.6-2.7-20.9-12.5-25-20.3l-15.6 4.8c1.1.7 1.7 1.1 1.7 1.1s-.7 14.6 2.7 19.2c2.7 2.7 19.9 4.6 25.8 9.3 5.9 4.5 15.1-11.5 10.4-14.1z"/><path class="st11" d="M271.8 325.6c-.3-1.2-1.3-4.3-1.1-5.6-3-.5-6.8-.7-10.7-.4.2 6.7 1.9 14.2 5.1 16.6 5.3 4 15.9 1.3 19.9-5.3-3.9-1.9-11.2 2.2-13.2-5.3z"/><path class="st6" d="M270.7 320c.5-3.4 2.8-7.4 2.4-10.3-.7-4-8-5.3-11.3-.7-1.3 1.9-1.9 6-1.8 10.5 3.9-.2 7.7.1 10.7.5z"/><path class="st3" d="M273.1 309.7c.7 4-3.3 11.9-1.3 15.9s9.3 3.3 13.3 5.3c-4 6.6-14.6 9.3-19.9 5.3s-6.6-22.5-3.3-27.2 10.5-3.2 11.2.7z"/><path class="st6" d="M312.5 313.7c-5.7-4.3-11.6-7.4-13.6-6.6-3.3 1.3-2.7 14.6-2.7 14.6l6.6 7.3c1.6-4 4.8-10.9 9.7-15.3z"/><path class="st11" d="M322.1 323c-2.3-3.1-5.9-6.4-9.6-9.3-4.9 4.3-8.1 11.3-9.6 15.2l13.3 14.6 8.6-1.3s3.3-11.3-2.7-19.2z"/><path class="st3" d="M296.3 321.7s-.7-13.3 2.7-14.6c3.3-1.3 17.2 8 23.2 15.9 6 8 2.7 19.2 2.7 19.2l-8.6 1.3-20-21.8z"/><path class="st6" d="M304.8 321.7c-2.8-2.8-5.2-4.6-6.5-5.3-4-2-9.9 1.3-9.9 4.6 0 1.6 3.2 4.8 8.4 9 1.6-2.9 4.3-6.5 8-8.3z"/><path class="st11" d="M304.8 321.7c-3.6 1.8-6.4 5.4-8 8.4 5.8 4.8 14 10.9 22.7 17.5-.9-10-8.7-20-14.7-25.9z"/><path class="st3" d="M288.3 321c0 3.3 14.6 13.9 31.1 26.5-1.3-14.6-17.2-29.2-21.2-31.1s-9.9 1.3-9.9 4.6z"/><path class="st9" d="M246.5 171.1c-1.2-4-2.1-7.4-2.5-9.8-2-11.9 16.6-44.4 16.6-44.4L246 80.5s-19.9 2.7-23.2-.7c-3.3-3.3-8.6-27.8-11.9-29.2-3.3-1.3-6-.7-7.3 1.3-1.3 2 5.3 12.6 2.7 27.8-3.3-9.9-8.6-17.9-11.9-19.2-3.3-1.3-7.3-1.3-7.3 2s9.3 15.2 10.6 28.2c-5.3-8.3-14.6-23.5-18.6-24.2s-11.9-.7-12.6 2c-.7 2.7 17.2 25.2 19.2 33.8-4-2.7-11.9-2.7-12.6 2.7-.7 5.3 13.9 9.9 23.9 27.8-8-4-13.9-4.6-15.9-1.3-1.2 2 6.3 4.1 10.4 14.6 2.7 6.8.9 21.8-.5 33.1-4.6 39.4-17.9 41.7-13.3 64.9 4 10.6 13.9 18.6 14.6 21.9.3 1.8-3.6 9.3-6.8 18.4l17.5 5.3c4.6-11.2 13.3-27 13.8-32.3.7-7.3-8-13.9-8-13.9-6 .7-13.3-.7-11.3-17.9 4.6-2.7 35.8-5.3 37.1-9.3 1.3-4-7.3-28.5-5.3-37.8 1.3-5.8 10.5-7.2 17.2-7.4z"/><path class="st3" d="M208.8 243.5s.7.1 1.8.1c-.6-.1-1.3-.2-1.8-.1zM184.3 230.2c.7 19.9 15.9 29.8 17.2 35.1 1.3 5.3-10.6 29.2-10.6 29.2M194.3 209c0 8.6 5.3 17.2 7.3 17.2M201.5 207.1c2 11.3 8.1 17.2 6.6 17.2M189 216.3s2.7 26.5 12.6 25.2M202.9 114.3c-2.7 9.3 3.3 15.9 3.3 15.9M177.7 75.2c8 8 13.9 21.9 13.9 21.9M214.1 79.2c2.7 11.6 12.6 24.5 12.6 24.5M216.8 134.2c4.6 11.3 13.9 8.6 13.9 8.6M210.2 141.5c2 8.6 11.9 12.6 11.9 12.6M209.5 164l6 11.9M217.4 159.3l6.7 12.6M198.9 181.2l21.2 41.8M208.2 181.9l21.8 37.7"/><path class="st8" d="M240.6 115.6c0-7.7-6.2-13.9-13.9-13.9s-13.9 6.2-13.9 13.9c0 1.3.2 2.5.5 3.7l27.3-3v-.7z"/><path class="st6" d="M213.3 119.4c1.7 5.9 7 10.2 13.4 10.2 7.5 0 13.5-5.9 13.8-13.3l-27.2 3.1z"/><circle class="st4" cx="211.2" cy="156.4" r="8.9"/><circle class="st4" cx="212.1" cy="197.1" r="8.9"/><circle class="st7" cx="226.4" cy="115.3" r="4.3"/><circle class="st3" cx="226.7" cy="115.6" r="13.9"/><path class="st0" d="M247.5 219.8c1.9-8-7.9-32.7-10.7-47.4-3.7 1.1-6.7 2.9-7.4 6.1-2 9.3 6.6 33.8 5.3 37.8-1.3 4-32.5 6.6-37.1 9.3-.5 4-.4 7.1 0 9.5 14.2-2.1 48.1-7.9 49.9-15.3z"/><path class="st4" d="M246.5 171.1c-3 .1-6.6.4-9.7 1.3 2.8 14.7 12.6 39.5 10.7 47.4-1.7 7.4-35.7 13.1-50 15.2 1.3 8.2 6.7 8.9 11.3 8.3.5-.1 1.1 0 1.8.1 11.2-.8 47.9-6.1 49.9-24 .5-5.6-9.1-32.3-14-48.3zM230 92.4c-4-4-5.3-9.3-3.3-11.9 2-2.7 11.3-3.3 13.9-4.6 2.7-1.3.7-8.6 6-9.3 5.3-.7 37.8-2.7 41.7 0 4 2.7 6 10.6 6 15.2s-1.3 9.3-2.7 11.9c-1.3 2.7-4 2.7-7.3 1.3-2.8-1.1-1.3-9.3-2-13.3-.5-2.7-8.6-3.3-9.9 0-1.3 3.3-.7 5.9-.7 8.9s-4.6 1.7-6 5.6c-1.3 4 .7 8.6 1.3 14.6s-.7 8.6-.7 16.6c10.6-11.3 10.6-18.6 13.3-20.5 2.7-2 7.3 2.7 6 9.3-1.3 6.6-21.2 41.1-28.5 45.7-7.3 4.6-17.9 0-15.9-15.9 2-9.3 14.6-19.2 9.3-34.5-5.2-15.1-16.5-15.1-20.5-19.1z"/><path class="st3" d="M266.5 127.5c-2 9.3-10.6 15.2-14.6 25.2"/><path class="st4" d="M182.3 307.8c1.3 5.3 24.5 19.2 24.5 19.2l11.9-8.6s7.3-6.6 3.3-9.3-21.2-2-21.9-9.3c-.2-2.1 1-5.8 2.8-10.1l-17.5-5.3c-2.5 7.5-4.6 16.1-3.1 23.4z"/><path class="st6" d="M190.3 313.7c.7-4-2.7-6-7.3-5.3-2.3.3-4.9 2.7-6.7 6.1 4.6.3 8 2.1 10.3 4 1.4-1.7 3.4-2.9 3.7-4.8z"/><path class="st11" d="M185.6 327.6c-1.7-4.8-.6-7.3 1-9.1-2.4-1.9-5.8-3.7-10.3-4-1.9 3.4-2.9 7.8-1.9 11.8 2 8 4.6 15.2 23.9 8.6-4-4-9.3-5.3-12.7-7.3z"/><path class="st3" d="M183 308.4c4.6-.7 8 1.3 7.3 5.3-.7 4-8 4.6-4.6 13.9 3.3 2 8.6 3.3 12.6 7.3-19.2 6.6-21.9-.7-23.9-8.6s4-17.2 8.6-17.9z"/><path class="st6" d="M222.1 309.7c-7.3-1.3-12.6 11.3-12.6 11.3s3.8 2.3 8.8 5.8c3.5-6.2 8.1-9.3 11.9-10.7-2.2-3.7-5.1-5.8-8.1-6.4z"/><path class="st11" d="M218.3 326.8c5.2 3.7 11.6 8.9 16.4 14.7.4-11.9-1.5-20.2-4.5-25.4-3.8 1.5-8.4 4.5-11.9 10.7z"/><path class="st3" d="M209.5 321s5.3-12.6 12.6-11.3c7.3 1.3 13.3 11.3 12.6 31.8-9.3-11.2-25.2-20.5-25.2-20.5z"/><path class="st11" d="M221.6 321.1c-5.2 1.9-9.2 6.2-12 10.1 5.6 4.4 14.2 9.8 19.1 14.3 0-12-3.3-19.8-7.1-24.4z"/><path class="st6" d="M221.6 321.1c-2.1-2.5-4.3-4-6.2-4.8-5.3-2-13.3 4.6-11.3 9.3.7 1.5 2.7 3.4 5.4 5.6 2.9-3.9 7-8.1 12.1-10.1z"/><path class="st3" d="M204.2 325.6c2 4.6 17.2 13.3 24.5 19.9 0-18.6-8-27.2-13.3-29.2-5.2-1.9-13.2 4.7-11.2 9.3z"/><path class="st0" d="M284.4 95.1c-.5-.2-.9-.7-1.2-1.3-1.1-2.7-.3-8.7-.8-11.9-.5-2.7-8.6-3.3-9.9 0-1.3 3.3-.7 5.9-.7 8.9s-4.6 1.7-6 5.6c-.4 1.3-.5 2.7-.4 4.1 1.1-.5 5.5-1.9 8.9 2.8 1.3 1.8 2.5 4.4 3.2 8.3.9 3.5 7.8 2 8.6-1.1.8-2.9 4.4-7.9 4.4-15.4-1.4 1.2-3.5 1-6.1 0z"/><path class="st2" d="M317.9 269.1c-1 3 8.3 348.8 13.3 361.8 6 1 22.9-1 23.9-5s-12.9-352.8-13.9-356.8c-1.1-4-22.3-3-23.3 0z"/><path class="st7" d="m473.1 485.5-10.7 23.1-28.8 9.9-23.9-16.4c-3.6 6.5-5.6 13.9-5.6 21.8 0 25 20.3 45.2 45.2 45.2 25 0 45.2-20.3 45.2-45.2 0-16.3-8.6-30.5-21.4-38.4z"/><path class="st0" d="m462.3 508.6 10.7-23.1c-6.9-4.3-15-6.8-23.8-6.8-17.1 0-31.9 9.5-39.6 23.5l23.9 16.4 28.8-10z"/><path class="st3" d="m422.2 556.9 13.2-20.6M428.8 562.8l9.9-20.5M456 566.8l-4.7-23.2M464.6 565.5l-5.3-22.5M465.9 534.3l21.9 10.2M467.4 527.3l24.5 9.7M472.7 518.9l18.1-9.9M465.9 515.8l23.2-13.7M404.7 525.3l25.6-2M405.6 533l23.9-2.6"/><circle class="st3" cx="483.8" cy="523.7" r="3.3"/><circle class="st3" cx="471.9" cy="549.6" r="3.3"/><circle class="st3" cx="442.1" cy="558.2" r="3.3"/><circle class="st3" cx="420.2" cy="541.6" r="3.3"/><circle class="st3" cx="414.2" cy="515.8" r="3.3"/><circle class="st3" cx="475.8" cy="498.6" r="3.3"/><circle class="st2" cx="449.3" cy="523.9" r="24.3"/><circle class="st1" cx="449.3" cy="523.9" r="12.9"/><path class="st6" d="m412.2 160.1 8.2 41.5c7.8-1.5 16.8-3.2 26.6-5.1l-9.5-42.4c-8.8 2.1-17.3 4.1-25.3 6zM558.7 171.7c-2-4-12.9-34.8-16.9-37.8-1.1-.9-16.1 1.7-37 5.8l15.6 42.1c22.6-4.8 38.9-8.9 38.3-10.1z"/><path class="st8" d="M362 174.7c-4 6 4 84.5 4 84.5l32.8-3-2.8-49.8s9.8-1.8 24.6-4.6l-8.2-41.5c-27.7 6.5-49.1 12.3-50.4 14.4zM437.4 154.2l9.5 42.4c23.7-4.6 51.5-10.1 73.3-14.8l-15.5-42.1c-19.4 3.9-44 9.2-67.3 14.5z"/><path class="st0" d="m390.8 187.6 5.2 18.8s88.1-16.4 134.6-26.8l-7.6-19.8-132.2 27.8z"/><path class="st7" d="M475.8 183.3c0-5.2-2.7-9.7-6.8-12.3l-19.5 4.1c-1.6 2.3-2.5 5.1-2.5 8.1 0 5 2.5 9.4 6.4 12 6.5-1.3 13.2-2.6 19.9-3.9 1.7-2.2 2.5-5 2.5-8z"/><circle class="st3" cx="461.5" cy="183.3" r="4.4"/><path class="st3" d="M395.9 206.3s164.8-30.7 162.8-34.7c-2-4-12.9-34.8-16.9-37.8-4-3-175.9 34.8-179.9 40.7s4 84.5 4 84.5l32.8-3-2.8-49.7z"/><path class="st1" d="M381.2 269.3c3.5 0 6.8.7 9.9 1.9l16.8-13.8c-7.1-4.6-15.5-7.2-24.6-7.2-6 0-11.6 1.1-16.8 3.2l8.1 16.7c2.1-.5 4.2-.8 6.6-.8z"/><path class="st1" d="m374.6 270.1-8.1-16.7c-3 1.3-6 2.8-8.7 4.6l8.9 15.5c2.4-1.5 5.1-2.6 7.9-3.4zM400.2 277.4l16.8-12.1c-2.7-3-5.8-5.7-9.2-7.9L391 271.3c3.5 1.3 6.7 3.5 9.2 6.1zM407.1 290.5h21.1c-1.1-9.6-5.1-18.4-11.2-25.2l-16.8 12.1c3.4 3.6 5.9 8.1 6.9 13.1z"/><path class="st1" d="M407.7 295.9c0 .9-.1 1.9-.1 2.8l20.7 1.3c.1-1.5.2-3 .2-4.6 0-1.7-.1-3.2-.3-4.9h-21.1c.4 1.8.6 3.5.6 5.4zM356.1 304.5l-13.3 10.9c1.6 3.2 3.6 6.3 5.9 9l12.1-11.7c-2.2-2.4-3.7-5.1-4.7-8.2zM393.5 319.4l8.6 17.2c3.1-1.5 6-3.2 8.7-5.2l-9.8-17.8c-2.1 2.2-4.7 4.2-7.5 5.8z"/><path class="st1" d="m428.3 300-20.7-1.3c-.6 5.6-3 10.7-6.5 14.8l9.8 17.8c9.6-7.4 16.1-18.6 17.4-31.3zM381.2 322.4c-8.2 0-15.6-3.8-20.5-9.7l-12.1 11.7c8.3 9.9 20.7 16.2 34.7 16.2 6.7 0 13.1-1.5 18.8-4.1l-8.6-17.1c-3.7 1.9-7.9 3-12.3 3zM354.6 295.9c0-1.7.2-3.4.5-5l-17 3.2v1.3c0 7.2 1.7 14 4.6 20l13.3-10.9c-.9-2.7-1.4-5.6-1.4-8.6zM366.7 273.6l-8.9-15.5c-9.3 6.4-16.1 16.2-18.6 27.5l17.9-.8c2-4.6 5.4-8.5 9.6-11.2z"/><path class="st1" d="m357 284.8-17.9.8c-.6 2.8-1 5.6-1.1 8.5l17-3.2c.5-2.1 1.1-4.1 2-6.1z"/><circle class="st1" cx="381.2" cy="295.9" r="26.6"/><circle class="st0" cx="380.5" cy="296.9" r="16.9"/><circle class="st7" cx="369.7" cy="390.9" r="20.3"/><circle class="st3" cx="369.7" cy="390.9" r="6.7"/><path class="st4" d="M369.6 301.5c-3.6 2.3-8.6 36.4-8.6 36.4l23 4s3.8-33.1 3.8-37.1-14.6-5.6-18.2-3.3z"/><path class="st0" d="M383.9 341.9c-3.1-5.3-19-7.6-23-4-2.1 1.9-4.2 10-5.7 17.2l32.3 3.4c-.8-6.6-2-13.9-3.6-16.6z"/><path class="st7" d="M355.2 355.2c-1.3 6.5-2.3 12.3-2.3 12.3l9.1 1 .4-12.5-7.2-.8z"/><path class="st7" d="m362.4 356-.4 12.4 7.4.9.8-12.5zM387.5 358.6l-8-.8-.8 12.6 10 1.1c.1-.1-.4-6.2-1.2-12.9z"/><path class="st7" d="m370.2 356.8-.8 12.5 9.3 1 .9-12.6z"/><path class="st1" d="M646.1 509.2c10.6-12.6 37.8-1.3 37.1 14.6-.7 15.9-9.3 41.1-13.9 49s-31.3 9.9-33.1-5.3-.7-45.7 9.9-58.3z"/><path class="st7" d="M741.5 458.2S726.9 432.4 713 431c0 4-.5 15.6-1 27.4l30.4 6.1-.9-6.3z"/><path class="st2" d="M712 458.4c-.6 13.5-1.3 27.4-1.7 30.9-10.6 14.6-11.9 33.1-11.9 33.1s-22.5 1.3-27.8 2c-5.3.7-9.9 26.5-4 29.8 6 3.3 59 4.6 66.3-1.3 7.3-6 17.2-37.1 17.2-37.1l-7.7-51.3-30.4-6.1z"/><path class="st0" d="m740.9 361.4-6-100 62.9 1.3-15.2 98.7z"/><path class="st0" d="m738.9 393.9-10.6-33.8s30.5-15.9 67.6 8c-7.3 9.9-17.2 23.2-17.2 23.2l-39.8 2.6z"/><path class="st0" d="M737.5 454.2s-9.3-59.6-1.3-67.6 37.8-9.9 45.7 2-5.3 70.2-5.3 70.2l-39.1-4.6z"/><path class="st0" d="M784.6 458.8c-10.9 23-15.1 39-16.9 63.5-.7 9.8-1.1 21-1.4 34.6-.3 13.9-.5 30.3-.9 50.4-2 88.1-1.3 184.9-1.3 184.9l-35.8.7s3.3-117.9 5.3-187.5.7-150.4.7-150.4 18.5-10.8 50.3 3.8z"/><path class="st7" d="M730.3 475.4c-5.3.7-6 9.3-4 14.6-5.3 0-8.6 6-4.6 10.6-4 2.7-4 11.3.7 11.9-2 4-1.3 11.3 6 11.9 2.8.3 9.1 0 15.9-.4v-48.6c-6.7-.3-12-.3-14 0z"/><path class="st2" d="M776.6 480.7c-8.5-3.2-22.1-4.8-32.5-5.3V524c11.1-.7 23.5-1.7 23.5-1.7-.7 9.8-1.1 21-1.4 34.6 0 0 24.9-9.3 26.9-28.5 2.1-19.2-2.5-42.4-16.5-47.7z"/><path class="st3" d="M757.4 490h-31.1M756.1 501.2l-34.5-.6M756.1 511.8l-33.8.7"/></svg>