<svg version="1.1" id="Calque_1" xmlns="http://www.w3.org/2000/svg" x="0" y="0" viewBox="0 0 900 900" style="enable-background:new 0 0 900 900" xml:space="preserve"><style>.st0,.st1,.st2,.st3{fill:#ffce00;stroke:#000;stroke-width:3.3794;stroke-linecap:round;stroke-linejoin:round;stroke-miterlimit:10}.st1,.st2,.st3{fill:none}.st2,.st3{fill:red}.st3{fill:#418400}.st4{fill:#ffce00}.st5{fill:#418400}.st6{fill:#fff}.st10,.st7,.st8,.st9{fill:#aa7631;stroke:#000;stroke-width:3.3794;stroke-linecap:round;stroke-linejoin:round;stroke-miterlimit:10}.st10,.st8,.st9{fill:#29a890}.st10,.st9{fill:#fff}.st10{fill:#89765f}.st11{fill:#29a890}.st12{fill:#5f594b;stroke:#000;stroke-width:3.3794;stroke-linecap:round;stroke-linejoin:round;stroke-miterlimit:10}</style><path class="st0" d="M658.5 155.3s11.3-3.7 15 6.4c3.7 10.1-1.1 15.4-1.1 15.4s9.2-5.7 10.4 8.2c1.1 14-5.1 16.3-5.1 16.3s9.5-.5 10.4 10.6c.9 11-6.8 12.6-6.8 12.6s11 3.2 10 14.1c-1 10.9-8 11.3-8 11.3s11.9 2 10 14.6c-1.9 12.6-14.3 15.3-14.3 15.3l-3.2-49.9-3.4-44.7-13.9-30.2zM700.2 147.4s11.3-1.7 11.8 6.3-10.7 14.8-10.7 14.8 12.4-2.1 11 7.5c-1.4 9.7-11.8 12.4-11.8 12.4s11.8 1.6 10.7 13.2-12.6 14.6-12.6 14.6 17.3-8.2 16.8 3.4c-.6 11.5-18.2 26.6-18.2 26.6l1.5-94.7 1.5-4.1zM723.3 277.5c9.6-10.1 29.3-11.5 27-31.4-1.1-9.9-9.9-11-19.4-11.7-11.5 2.6-21.1 10.6-21.4 11.7l-2.3 42.9-9.8 25.9 7.2-5.6c0 .1 9-21.6 18.7-31.8z"/><path class="st1" d="M704.6 281.5s7.4-6.6 11-3.9 2.8 12.2 2.8 12.2M708.2 271.1c1.4-.2 7.2-6.4 12.6-3.4 5.4 3 3.2 12.5 3.2 12.5"/><path class="st1" d="M706 262.3s9.1-7.9 15.2-5.6c6.1 2.3-.6 11-.6 11s5.4-7.1 9.9-5.5c4.5 1.6 2.6 11.3 2.6 11.3"/><path class="st1" d="M709.1 253.6s7.4-8 12.6-5.1c5.2 2.9 2.7 7.9 2.7 7.9s3.9-5.6 8.4-2.8.7 10 .7 10 5.7-7.3 10.6-4.5 0 9.6 0 9.6"/><path class="st1" d="M712.3 246.2s4.2-7.1 9.2-4.8 1.5 8.2 1.5 8.2 4.3-7.1 10.8-5.3c6.5 1.9 1.1 9.2 1.1 9.2s4.8-7.2 11.2-5.1c6.3 2.1 4.3 13.1 4.3 13.1"/><path class="st1" d="M721.7 241.3s5.4-7.1 9.9-5.6 0 8.3 0 8.3 7.4-8.2 10.8-6.5c3.4 1.7 0 10.4 0 10.4"/><path class="st2" d="M738 234.3s15.7-26.8 45.8-26.8 35.3 5 37.5 8c2.3 3 7.7 25-1.7 25-9.3 0-22.9-6-39.8-7.1-16.9-1.1-29.4 6.2-29.4 6.2l-12.4-5.3z"/><path class="st3" d="M741.5 233.8c-3.6-.5-7.2-.1-10.7.6 9.5.7 18.2 1.9 19.4 11.7 2.3 19.8-17.5 21.3-27 31.4-9.6 10.1-18.6 31.9-18.6 31.9l-7.2 5.6-.3.8 13.9 5.6s41.7-36.6 48-52.7c6.2-16.1-1.7-32.8-17.5-34.9z"/><path class="st0" d="M676.8 287.7c1.5-99.1-21.2-127.9-21.2-130.4s1.7-6.2 4.5-4.2 28.9 46.1 22.5 146c-4.4 33.2-7.2 87.7-5.8-11.4zM695.7 147.2c-.9 1.4-6.8 114.6 0 132.6s12.2.8 6.8-26.4 0-105.2 0-107.5-6 0-6.8 1.3z"/><path class="st3" d="M689.1 317.9c-.3-.9 8.4-154 56.3-182.5-40.3 88.8-37.2 186.4-37.2 186.4l-12.7 10.5-6.4-14.4z"/><path class="st3" d="M582.1 178.8s26.5 23 55.4 78S667.6 361 667.6 361l24.4 15.3 4.8-42.4s-4.3-31.1-37.5-93.8-77.2-61.3-77.2-61.3z"/><path class="st1" d="M602.5 190.8c62.7 51 89.7 169.2 89.7 169.2"/><path class="st1" d="M582.1 178.8s26.5 23 55.4 78S667.6 361 667.6 361l24.4 15.3 4.8-42.4s-4.3-31.1-37.5-93.8-77.2-61.3-77.2-61.3z"/><path class="st1" d="M602.5 190.8c62.7 51 89.7 169.2 89.7 169.2"/><path class="st3" d="M682.7 378.7s-.6-52.2 52.4-93.7c52.9-41.6 87.3-29.9 87.3-29.9s-67.9 13-95.9 80.5-18.1 82.8-18.1 82.8l-25.7-39.7z"/><path class="st1" d="M794.9 259.3c-112.2 49.1-102.5 132.1-102.5 132.1"/><path class="st3" d="M577.6 339.5c-2.9-13.9 61.3-28.7 102.3 19.5 44.3 52 47.5 150.4 47.5 150.4l-17 15.9-24.1-51s-4.5-63.1-27.4-95.7c-38.5-55.4-78.7-27.3-81.3-39.1z"/><path class="st1" d="M596.9 333.9c116.9-.6 118.5 157 118.5 157"/><path class="st3" d="M591.5 382.3c-5.4 5.6-6.2 21.1 53.2 70 59.4 48.9 51.3 133.1 51.3 133.1h27.6s2.6-.6-1.5-56.7-23.1-64.8-42.8-87.8-62.5-50.1-87.8-58.6z"/><path class="st1" d="M602.5 397.5c8.2 10.6 44.3 28.4 73.6 58.9 29.3 30.5 40.8 71.2 40.8 71.2"/><path class="st3" d="M693.4 595.5c-2.3-19.7 2.6-63.4 43.1-104.8s56-75 56-75 9.3 18.5-8.8 48-39.1 57.2-45.1 92.1c-6 34.9-3.7 78.6-3.7 78.6l-19.7 6.2c.2 0-19.5-25.3-21.8-45.1z"/><path class="st1" d="M784.3 440.5c-2.9 11.7-45.2 57-63.1 84.7-17.9 27.7-14.9 76-14.9 76"/><path class="st3" d="M598.2 519.4s42.6 25.7 82.2 49.7 47 60.8 47 60.8l-31.8 53.3s3.7-29.9-34.9-79.1c-38.6-49.2-52.4-54.2-59.7-65.9-7.3-11.8-2.8-18.8-2.8-18.8z"/><path class="st1" d="M607 531.9c13.5 15.8 38.6 30.4 71.3 50.7 32.7 20.3 42.8 48.8 42.8 48.8"/><path class="st3" d="M690.3 714.6c-1.5-34.4 7.9-59.4 39.4-99.7 31.5-40.3 34.9-49.6 40-59.7 5.1-10.1 9.6-33 9.6-33s20.6 18.1 7.3 63.2-35.5 32-46.7 97.8c-5 29.2-5.4 54.7-4.4 74.3 1.4 24.6 5 39.4 5 39.4l-32.1-30.8c-.1 0-16.7-17.1-18.1-51.5z"/><path class="st1" d="M703.6 705c0-25.9 9.8-57.4 47.6-101.7 38-44.3 29.3-68.4 29.3-68.4"/><path class="st3" d="M681 763.9c-6.5-20.3-29.9-52.9-69.6-93.8-39.8-40.9-50.1-71.6-52.6-84.3-2.5-12.6 2.8-23.7 2.8-23.7S583 618.3 645.9 663s73.8 76.1 78.6 100.8-25.9 8-25.9 8-11.1 12.4-17.6-7.9z"/><path class="st1" d="M564.2 585.4s30.1 57.7 85.6 95.5c55.5 38 67.9 82.6 67.9 82.6"/><path class="st2" d="M735.4 757.4c1.4 24.6 6.1 42.8 6.1 42.8s-44.8 4.7-49.3-3.4-9.3-27.6-11.3-32.9c39.8-.9 54.5-6.5 54.5-6.5z"/><path class="st4" d="m613.7 808.4 8.9-24.6s-9.5-5.6-8.9-6.5c.6-.9 12.7-26.6 12.7-26.6l-.6-8.1c-8 0-17.1-.1-27.4-.1l1.6 43.8-7.9 23.4L611 817l-14.9 24.1c8.8-.1 16.9-.2 24.1-.3l8.9-21.6-15.4-10.8z"/><path class="st5" d="m592 809.8 7.9-23.4-1.6-43.8c-117.3-.3-368.6-.9-373.5 1.1-6.5 2.7-5.4 97.9 0 97.9 4.1 0 251.4.8 371.4-.6l14.8-24.1-19-7.1z"/><path class="st6" d="M659 821.1c-.9-1 1.9-5.7 1.6-12.6-1.1-22.2-3.2-65.7-3.2-65.7s-11.8 0-31.5-.1l.6 8.1s-12.2 25.8-12.7 26.6 8.9 6.5 8.9 6.5l-8.9 24.6 15.5 10.7-8.9 21.6c24-.5 38.9-.9 39.7-1.7.9-1 2.6-13.9-1.1-18z"/><path class="st1" d="M224.8 743.8c-6.5 2.7-5.4 97.9 0 97.9s431.1 1.5 435-2.6c1-1 2.8-14-1-18-.9-1 1.9-5.7 1.6-12.6-1.1-22.2-3.2-65.7-3.2-65.7s-426-1.7-432.4 1z"/><path class="st4" d="m289.9 763.9-.3-22.4c-10.8.2-20.5.5-29.1.6l.1 21.7c8.9.1 18.9.1 29.3.1z"/><path class="st6" d="m315.3 763.8-.2-22.8c-8.9.1-17.5.2-25.3.5l.3 22.4c7.9 0 16.4-.1 25.2-.1z"/><path class="st5" d="M453.5 758.5c96.3-7.8 191.2 0 197.7-1.1s20.1-9 12.4-14.8c-5.4-4.1-221.7-3.5-348.5-1.6l.2 22.8c44-.4 95.4-1.8 138.2-5.3z"/><path class="st6" d="M224.8 743.8c-.2.1-.3.3-.6.6-1.5 2-2.5 9.3-3.2 19.1 6.6.1 20.8.3 39.7.5l-.1-21.7c-21.6.4-35 .9-35.8 1.5z"/><path class="st1" d="M663.6 742.7c-5.4-4.1-221.7-3.5-348.5-1.6-8.9.1-17.5.2-25.3.5-10.8.2-20.5.5-29.1.6-21.6.6-35 1.1-35.8 1.7-.2.1-.3.3-.6.6-1.5 2-2.5 9.3-3.2 19.1 6.6.1 20.8.3 39.7.5 8.8 0 18.7.1 29.3 0 8 0 16.6-.1 25.3-.1 43.9-.5 95.4-1.7 138.2-5.2 96.3-7.8 191.2 0 197.7-1.1 6.5-1.3 19.8-9.3 12.3-15z"/><path class="st6" d="M220.4 780.3c-.1 5.1-.1 10.4-.1 15.5 7.5-.8 22-1.4 40.6-1.6l-.1-15.3c-18.9.4-33.4.8-40.4 1.4z"/><path class="st5" d="M458.6 792.9c73.2-1.9 180.2-4.2 194.9-1.2 6.5 1.2 19.5-10 16.1-14.2-5.6-6.9-164.8 1.2-202.8 1.2-20.7 0-90.6-.3-151.3-.1l.1 15.3c49.8-.2 106.8 0 143-1z"/><path class="st6" d="M290.4 794c8.1 0 16.6-.1 25.2-.1l-.2-15.3c-8.7 0-17.1.1-25.2.1l.2 15.3z"/><path class="st4" d="M290.2 778.7c-10.5.1-20.4.2-29.4.3l.1 15.3c9-.1 18.9-.2 29.5-.3l-.2-15.3z"/><path class="st1" d="M669.4 777.5c-5.6-6.9-164.8 1.2-202.8 1.2-20.7 0-90.6-.3-151.3-.1-8.7 0-17.1.1-25.2.1-10.5.1-20.4.2-29.4.3-18.8.3-33.5.7-40.3 1.4-.1 5.1-.1 10.4-.1 15.5 7.5-.8 22-1.4 40.6-1.6 9-.1 18.9-.2 29.5-.3 8.1 0 16.6-.1 25.2-.1 49.8-.1 106.8 0 142.9-.9 73.2-1.9 180.2-4.2 194.9-1.2 6.5 1.1 19.5-10.2 16-14.3z"/><path class="st6" d="M220.8 812.7c.2 6 .6 11.5 1 16 8.6-1.8 22.5-3 39.3-3.8l-.1-16.7c-19.6.1-33.9 1.3-40.2 4.5z"/><path class="st5" d="M672.6 808.4c-3.9-6.9-135.7-1.1-231.8 2.3-42.7 1.5-87.1-.1-124.9-1.4l.1 14.1c57.1-.6 116.6 1 116.6 1s219 0 226.4-1.5c7.4-1.4 17.5-7.5 13.6-14.5z"/><path class="st6" d="m290.6 808.7.2 15.2c8.2-.2 16.7-.3 25.1-.5l-.1-14.1c-8.7-.2-17.2-.4-25.2-.6z"/><path class="st4" d="m261 808.2.1 16.7c9.2-.5 19.3-.8 29.7-1l-.2-15.2c-10.8-.4-20.7-.5-29.6-.5z"/><path class="st1" d="M672.6 808.4c-3.9-6.9-135.7-1.1-231.8 2.3-42.7 1.5-87.1-.1-124.9-1.4-8.8-.3-17.2-.6-25.2-.8-10.8-.3-20.7-.5-29.6-.5-19.6.1-33.9 1.2-40.2 4.5.2 6 .6 11.5 1 16 8.6-1.8 22.5-3 39.3-3.8 9.2-.5 19.3-.8 29.7-1 8.2-.2 16.7-.3 25.1-.5 57.1-.6 116.6 1 116.6 1s219 0 226.4-1.5c7.4-1.3 17.5-7.3 13.6-14.3z"/><path class="st2" d="M409.6 754.6s-5.9-6.8-3.6-13c2.3-6.2 16.8-8.4 21.4-3.6 4.6 4.8-2.8 18-2.8 18s34.1 10.9 34.1 14.8-4.8 11.7-11.3 10.9c-6.4-.8-32.1-10.4-32.1-10.4l-5.7-16.7z"/><path class="st1" d="M416 742s.6 14.4 3.7 18.6c3.2 4.2 28.2 11.4 28.2 11.4"/><path class="st2" d="M538.6 753.1s-1.6-2.8-.3-9.3c1.2-6.5 8.3-7.3 13.6-3.3s-1.1 14.2-1.1 14.2 50.7 10.4 51.3 14.2c.6 3.8 1.5 12.6-5.1 12.7-6.5.1-50.4-12.8-50.4-12.8l-8-15.7z"/><path class="st1" d="M547 742s-4.5 11.8-.8 15.4 47.5 14.4 47.5 14.4"/><path class="st2" d="M407 752.9s20.3-4.8 21.4.5c1.1 5.3 1.7 12.3-3.6 15.4s-17.8-2.6-17.8-2.6v-13.3zM535.9 751.8s15.7-6 17.6-.9c1.9 5.1 2.1 9.7-2.6 13.5-4.7 3.8-17.1 0-17.1 0l2.1-12.6z"/><path class="st7" d="M365.9 653s5.1 88.2 2.6 95.5c-2.5 7.3 31.7 3.4 31.7 3.4s7.4-38.6 15.7-59.5c8.2-20.8 7-37.3 7-37.3l-57-2.1zM401.3 757s46.7 18.9 53.5 24.8c6.8 5.9 10.7 15.4 9.2 21.1-1.5 5.6-11.8 9.3-13.2 0-2.3 5.6-7.9 5.1-8.4 0-4.8 3.9-5.4 2-7.3 0-3.3 3.9-8.1 3.2-8.4-3.4-8.7-3.2-35.3-10.5-35.3-10.5l-9.6-14.4 9.6-20.1 9.9 2.5z"/><path class="st1" d="M447.9 786.5s4.6 12.4 3 16.3M442.5 802.8c2.3-4.8-3.9-16.3-3.9-16.3M429.2 786.5s9.2 13.3 6 16.3"/><path class="st7" d="M475.5 653s-3.2 22.4 4.3 45.4 9 52.7 9 52.7l34.6 1.1s1.9-38 2.8-60.4c1.1-29.5-8.1-41.1-8.1-41.1l-42.6 2.3zM531 756.6s42.9 14.8 51.7 16.7c15.4 3.4 18 8.1 20.8 13.2 2.8 5-2 10.4-5.4 4.8 1.5 6.8-4.7 8.4-6 3.5-.2 8-5.4 6.6-6.2 2-.6 6-6.4 6.3-7.7 0-9-1.8-52.2-7.1-52.2-7.1L514.4 777l6.4-21.2 10.2.8z"/><path class="st1" d="M588.1 779.7c5.9 1.8 9 6.2 9.9 11.6M592 794.8c-1.1-9.8-10.7-12.1-10.7-12.1M575.7 786.5s8.8 3.9 10.1 10.4"/><path class="st8" d="M359.4 749.3s-19.1 23.4-13.9 31.9 56.3 10.8 56.3 10.8-11-11.3-10.1-21.3 6-14.5 6-14.5l-38.3-6.9zM488.3 755.4s-15.4 26-8.9 33.6c6.5 7.5 57.3 2.3 57.3 2.3s-12.6-9.5-13.3-19.5c-.7-10 3.7-15.2 3.7-15.2l-38.8-1.2z"/><path class="st2" d="M357.4 743.9c-3.2 1.5-3.6 6.2-1.9 9 1.7 2.8 50.9 7.7 54.1 7.7 3.2 0 3.8-9.1 1.1-9.6-2.7-.5-50.1-8.5-53.3-7.1zM485.6 750.4c-2.8 1.9-2.7 6.6-.6 9.2 2.1 2.5 47.9.1 50.9-.3s3.4-9.9.6-9.9c-2.7-.1-48.1-.9-50.9 1z"/><path class="st9" d="M345.6 781.1c-2 1.8-.9 7.9 3.4 10.1s74.7 10.8 76.8 10.1.9-10.1-2.7-10.7c-3.4-.4-75.5-11.2-77.5-9.5zM479.5 789c-1.7 2 .3 7.9 4.8 9.5s90.5 5.3 92.5 4.4c2-.9 3-7.1-.6-7.1-3.5-.1-95-8.9-96.7-6.8z"/><path class="st10" d="M491.1 392.9v-27.7l6.1-57 22.1-16.1-8.4-52.7-101.7 11-12.4 92.1.9 49.8 47.5 33.3 32.1-7.2z"/><path class="st6" d="M278.3 592.4c29.3 4.8 70.6 7.9 70.6 7.9l3-17.5-68.7-7.2c-1.7 7.1-3.4 13-4.9 16.8z"/><path class="st11" d="m361.1 458.9-55.8 11.9s-12.6 68.5-22 104.8l68.7 7.2L371.4 472l-10.3-13.1z"/><path class="st1" d="M342.2 477v13.8M333.9 483.9H352M336.2 489.5l10.7-10.9M338.3 479.7l9.8 8M323.2 505.5v13.8M314.9 512.4h18.2M317.3 518l10.7-10.9M319.2 508.2l9.8 8M322.4 539.7v13.8M314.1 546.7h18.2M316.5 552.3l10.7-10.9M318.4 542.5l9.8 8M302.8 555.4v13.8M294.5 562.3h18.2M296.9 567.9l10.7-10.9M298.8 558.1l9.8 8M341.4 558.1V572M333.1 565h18.1M335.4 570.6l10.7-10.9M337.5 561l9.8 8M348.2 508.2V522M339.9 515.1h18.2M342.3 520.7l10.7-10.9M344.2 511.1l9.8 7.8M361.1 458.9l-55.8 11.9s-12.6 68.5-22 104.8c-1.8 7.1-3.6 13-5.1 16.8 29.3 4.8 70.6 7.9 70.6 7.9l3-17.5L371.3 472l-10.2-13.1zM294.5 582.8l-2.4 11.6M302.4 583.9l-2.1 11.6M321.5 586.5l-1.9 11.1M330.1 588l-1.2 9.8"/><path class="st6" d="M145.1 239.4c-3.4-7.3-4.7-12.4-4.7-12.4s-7.9 1.1-17.9 6.4c1.7 4.2 4.4 9.8 8 15.8 4.7-4 9.6-7.5 14.6-9.8z"/><path class="st11" d="M186.5 285.4c-23-12.5-35.5-33-41.5-46.2-5 2.4-10 5.9-14.6 9.8 4.1 6.8 9.5 14 16.1 19.7 16.4 14.2 46.2 36.7 51.7 40.9 5.7-1.9 17.2-8.4-11.7-24.2z"/><path class="st6" d="M130.4 249.2c-3.6-6-6.3-11.7-8-15.8-8.1 4.3-17.6 11.3-25.5 22.6 6 2.7 11.9 5.6 17.8 8.8 4.5-5.2 9.9-10.7 15.7-15.6z"/><path class="st11" d="M130.4 249.2c-5.9 5-11.3 10.6-15.7 15.5 36 19.4 67.9 44.9 67.9 44.9l13.2.8s1-.2 2.4-.7c-5.6-4.2-35.3-26.6-51.7-40.9-6.6-5.7-12-12.9-16.1-19.6z"/><path class="st6" d="M114.7 103.6c-6.2-6.9-11.6-13.2-15.2-17.5C86 97.3 75 110.8 75 110.8s8.8 2.4 21.4 8.4c4.5-4.5 10.5-9.8 18.3-15.6z"/><path class="st11" d="m170.2 177.3 11.9 1.2c-6.2-9.1-18.6-25.9-34.5-40.6-10.7-9.9-22.9-23-32.9-34.2-7.8 5.6-13.7 10.9-18.2 15.5 9.6 4.6 21.3 11.3 33.2 20.6 27.5 21.7 40.5 37.5 40.5 37.5z"/><path class="st11" d="M147.7 137.9c15.9 14.6 28.3 31.5 34.5 40.6l13.6 1.4-5.6-25.7-14.1-2.6s-17.6-16.9-39.5-61.8c-8.6 4.7-15.8 9.3-21.9 13.9 10 11.2 22.3 24.4 33 34.2z"/><path class="st6" d="M136.6 89.8c-2.7-5.6-5.5-11.6-8.3-18-8.8 0-19.4 6.6-28.8 14.4 3.7 4.4 9 10.6 15.2 17.5 6.1-4.5 13.4-9.2 21.9-13.9z"/><path class="st1" d="M186.5 285.4c-35.8-19.6-46.2-58.6-46.2-58.6s-7.9 1.1-17.9 6.4c3.6 8.8 11.5 24.7 24.1 35.6 16.4 14.2 46.2 36.7 51.7 40.9 5.7-2 17.2-8.5-11.7-24.3z"/><path class="st1" d="M122.4 233.3c-8.1 4.3-17.6 11.3-25.5 22.6 42.5 19.1 85.7 53.8 85.7 53.8l13.2.8s1-.2 2.4-.7c-5.6-4.2-35.3-26.6-51.7-40.9-12.6-11-20.4-26.8-24.1-35.6zM147.7 137.9c-17.3-15.9-38.5-40.3-48.2-51.7C86 97.3 75 110.8 75 110.8s27 7.2 54.6 28.9 40.6 37.4 40.6 37.4l11.9 1.2c-6.2-8.9-18.7-25.7-34.4-40.4z"/><path class="st1" d="m190.1 154.2-14.1-2.6s-22.3-21.3-47.9-79.9c-8.8 0-19.4 6.6-28.8 14.4 9.7 11.4 31 35.8 48.2 51.7 15.9 14.6 28.3 31.5 34.5 40.6l13.6 1.4-5.5-25.6zM117.9 74.2l7.8 12.4M108.9 79.1l9 12.7M93 91.8l10.2 10.9M83.2 101.6l13.8 9.2M134.5 228.3l3.9 9.9M127.5 231l5.1 10.3M114.4 238.2l8 9.9M104.3 247.4l11.4 6.9"/><path class="st11" d="m233.5 462.5-8-1.1 1.2 70.2 23.8 1.2c-11.5-33.5-17-70.3-17-70.3z"/><path class="st6" d="m226.7 531.6.3 16.7s17.2 3.2 29.3 0c-2.1-5-4.1-10.1-5.9-15.4l-23.7-1.3z"/><path class="st1" d="m235.1 536.7 1.5 12.7M244 536.7l2.6 12.9M225.5 461.4l1.6 86.8s17.2 3.2 29.3 0c-15.4-36.4-22.9-85.7-22.9-85.7l-8-1.1z"/><path class="st11" d="M207.4 376.2c.3-35.8 1.5-59.5 1.5-59.5h-12.1l-1.1 93.8-18.8.3-16.7 78.6c20.6 6 46 9.3 58.2 10.8-14.6-48.8-11.4-89.8-11-124z"/><path class="st6" d="m160.2 489.5-3.5 16.4s35.8 12.4 67.8 12.4c-2.4-6.1-4.3-12.2-6.1-18-12.3-1.4-37.6-4.8-58.2-10.8z"/><path class="st1" d="M189.1 445.6c-4.2-15.1 1.1-30.1 1.1-30.1"/><path class="st1" d="M224.4 518.4c-21.6-57-17.5-104-17.1-142.2.3-35.8 1.5-59.5 1.5-59.5h-12.1l-1.1 93.8-18.8.3-20.1 95.2s35.8 12.4 67.7 12.4zM170.4 498.9v11.3M180.5 501.1l-.4 11.4M195.5 504.5v11.7M205.9 505.7l1.2 12.3"/><path class="st6" d="M125.7 529.9s16.2 6.5 23 3.9c1.8-2.3 4.1-8.1 6.4-16.1l-22-5.6c-4.5 10.9-7.4 17.8-7.4 17.8z"/><path class="st11" d="M171.5 403.9c-6.4 27.9-27.3 80.7-38.5 108.3l22 5.6c10-34 23.3-106.9 23.3-106.9s-5.6-10.7-6.8-7z"/><path class="st1" d="M171.5 403.9c-9 39-45.8 125.9-45.8 125.9s16.2 6.5 23 3.9c9.5-11.6 29.7-123 29.7-123s-5.7-10.5-6.9-6.8zM136.6 519.4l-4 11.7M145.6 522l-3.7 12.3"/><path class="st8" d="M144.5 430.7c-2.6-.6-3.3 8.8-1.9 11.5 1 2.3 101.6 29.6 106.5 29.6 4.8 0 4.1-11.2 1.4-14.1-2.9-2.7-103.3-26.4-106-27zM195.5 364.1s-3-21.5-20.6-27.8c-14.6-5.3-30.8-1.8-37.7 7.5s-6 23.3 2.6 27.9c17.8 8.2 37.2-3.6 37.2-3.6s10.4-3.8 4.7-6.4c-5.6-2.6-24.2.7-28.7-1s-6.2-6.2-2.3-9.6c3.9-3.4 12.1-3.9 22-1.7 9.9 2.3 15.4 14.1 15.4 14.1l7.4.6zM198.2 254.5l-2.7-71.2h19.1v72.3z"/><path class="st0" d="m178.1 108.9-16.4-5.6s-4.4-1.2-4.4-6.5 8.4-7.8 13.5-5c2.8-6 15-7.4 18.4-4.1 3.4-6.8 16.3-5.6 19.4-1.1 2.8-6.8 17.5-5.2 18.4 0 3.9-3.2 14.1-.7 15 2.3.9 2.9-4.5 9.8-4.5 9.8l-30.2 12.2-29.2-2z"/><path class="st1" d="m226.7 86.6-3 14.4M189.1 87.7l3.4 13.2s16.6-1.1 16.6-2-.6-12.4-.6-12.4M173.6 104.1l-2.9-12.3"/><path class="st7" d="m330.4 464.3-10.5 6.5s-11.8 4.4-20.8 4.4-74.9-56.5-74.9-56.5-7.9-36.4 7.1-33c15 3.4 69.1 40.6 69.1 40.6l27.4 23.3 2.6 14.7z"/><path class="st9" d="M228.4 431.9c1.1.3 3.9 12.5 13 12.5 9 0 13-39.9 7.5-50.2-5.4-10.4-17.7-8.4-17.7-8.4l-2.8 46.1z"/><path class="st2" d="M216 389.1s.6-12.8 7.7-12.8 13.5 9.1 13 31.1c-.6 22-5.5 31.2-14.4 31.2-8.9.1-7.8-30-7.8-30l1.5-19.5z"/><path class="st7" d="M219.9 424c-5.5 3.9-14.5-3.4-16.6-7.1-2-3.7-2.6-35.3-2.6-35.3s-11.8-8-15-12.6c-3.2-4.6 1.9-10.5 6.5-8 4.6 2.6 15.2 7.8 20.8 15 5.6 7.2 5.9 9.3 9 18.9 3.5 9.9 3.5 25.1-2.1 29.1z"/><path class="st7" d="M172.7 391.9s-5.3 10.1-2.3 15.4c3.2 5.3 9.8 13.9 16.9 13.9 7.1 0 14.6-.3 16.1-5.4 1.5-5.1-3.9-7.3-3.9-7.3l-26.8-16.6z"/><path class="st7" d="M173.8 379.8s-5.7 9.1-2.3 16.7c3.4 7.5 13 13.9 17.7 15.2 4.8 1.5 11.9 2 14.3-2.3 2.4-4.3-3.3-9.1-3.3-9.1l-26.4-20.5z"/><path class="st7" d="M179.4 369.2s-9.9 4.3-7.7 13.2c2.3 8.9 9.3 16 14.6 17.9 5.3 1.9 13.9 6.9 17.2.7 3.4-6.2-2.6-10.7-2.6-10.7l-21.5-21.1z"/><path class="st7" d="M176.4 371.9c1.7 6.8 8.8 16.8 16.3 18.9 7.7 2.1 12.4 2.8 12.1-2.8-.3-5.6-5.9-9.1-12.8-12.8-7-3.7-7-8.4-5.2-13.1-8.5-2.1-12.1 3.1-10.4 9.8z"/><path class="st0" d="m190.3 259.3-16.9-7.2s-4.5-2.9-3.2-7c1.5-4.1 10.4-5.1 12.3-1.5.5-5.5 9-5.7 11.8-2.7 2.1-4.6 10-5 13.2-1 2-4.6 13.1-3.2 14.5 0 3.7-3.2 11.4-1.1 12.2 2.5 3.6-3.2 10.9 2.8 10.7 4.7-.2 1.9-3.4 7.3-3.4 7.3l-30.2 8.2-21-3.3z"/><path class="st1" d="m234.4 242.4-3.7 12.1M207.6 239.9l.4 11.3 13 .9 1.1-12.2M182.7 243.5l4.6 11 8.2-2.4-1.1-11.2"/><path class="st3" d="m192.4 281.3-18.8-29.2s45.6-11.6 68.2 2.5c-10.5 16.6-16.2 26.8-16.2 26.8h-33.1v-.1z"/><path class="st6" d="m232 284.6 4.6-8.1s-28.5-3.6-59.5-2.3c-.1 1.7.9 5 2.4 8.9 18.6-1.5 40.9.3 52.5 1.5z"/><path class="st11" d="M179.6 283.1c4.5 11.8 14 29.9 14 29.9h22.5l16-28.4c-11.7-1.2-34-3-52.5-1.5z"/><path class="st1" d="M177.2 274.2c-.1 1.7.9 5 2.4 8.9 4.5 11.8 14 29.9 14 29.9H216l16-28.4 4.6-8.1c0-.1-28.3-3.6-59.4-2.3z"/><path class="st2" d="M171.5 307.7c-4.2 1.6-3 7.5-.9 9 2 1.5 59.8 6.6 62.6 4.8s2-6.5 0-8.6c-2-1.9-57.5-6.7-61.7-5.2z"/><path class="st2" d="M197.2 308.9c-2.3 1.7-3.9 7.2-1.7 10.1.6.7 1.7 1.2 3.2 1.7l7.2-12.2c-3.6-.4-7.4-.5-8.7.4z"/><path class="st2" d="M212.7 310.1c-1.1-.6-3.9-1.1-6.9-1.6l-7.2 12.2c4.5 1.4 12.2 1.2 14.1-1 2.5-3 2.5-8.5 0-9.6z"/><path class="st3" d="M180.3 137.9c-3.2-14.4-18.7-34.6-18.7-34.6s51.9-15.8 75.6-4.5c-7.3 15.8-13.9 39.2-13.9 39.2s-39.9 14.3-43-.1z"/><path class="st6" d="M229.9 142.4c2.7-4.5 4.5-7.9 4.5-8.7 0-2.8-41.9-5.1-66.5-1.6-.7 3.4-.3 6.9.7 10.5 26.6-4.2 48.6-2.3 61.3-.2z"/><path class="st11" d="M168.5 142.6c5 17.6 27.3 35.6 27.3 35.6h11.8s14.6-22.8 22.3-35.8c-12.7-2.1-34.7-4-61.4.2z"/><path class="st1" d="M195.8 178.1s-32.1-25.9-27.8-46c24.6-3.5 66.5-1.2 66.5 1.6s-26.8 44.5-26.8 44.5h-11.8v-.1z"/><path class="st2" d="M155.2 174.5c-5.1 1.9-3.9 10.3 0 12.7 3.9 2.5 83 2.8 87 1.1s6.2-10.4 1.7-11.9c-4.4-1.6-83.6-4-88.7-1.9z"/><path class="st2" d="M192.7 180.1c-1.1 5.2 1.2 10 5.5 10.1 2.1 0 5.7-2.4 8.8-5.1l-11.3-9.9c-1.4 1.5-2.6 3.2-3 4.9zM212.7 177.3c-.3-3.4-.2-5.4-5.7-6.2-3.6-.6-8.1 1.4-11.2 4.1l11.3 9.9c3.1-2.7 5.7-6.1 5.6-7.8z"/><path class="st6" d="M425.7 639.5c-45.1-.9-75.6-8.2-92.1-13.6-3.5 11.2-5.5 18-7.9 21.5 59.1 20.3 206.7 7.3 206.7 7.3s-2.5-9.5-5.9-23.3c-19.8 3.9-55.1 9-100.8 8.1z"/><path class="st11" d="m538.5 413.8-83.4 5.6-76.8-33.8-56.3 29.9s-15.2 3.2-21.7 10.7c15.8 16.3 16 42.7 19.7 44.6 3.7 1.9 39.4-9.5 39.4-9.5s1.7 46.1-1.7 55.5c-3.4 9.5-8.1 15.2-9.8 39.2-1.7 24 .7 25.5-7.7 49.3-2.8 8-5 14.8-6.8 20.4 16.6 5.4 47.1 12.7 92.1 13.6 45.7.9 81-4.2 100.8-8.1-5.7-24-13.9-61.2-15.3-85.4-2.3-38.3 4.3-77.5 4.3-77.5s29.1 29.9 35.1 31c8.4-13.9 33-34.4 33-34.4l-44.9-51.1z"/><path class="st1" d="M491.2 573.6s6.8 66.8 14.6 82.9M471.5 658.7c-6.5-23.2-8.4-83.1-8.4-83.1M430.6 573.6l-1.1 84.3M397.2 657.9l5.8-82.3M379.7 575.6l-17 79.5M344.7 638.3l-2.5 12.4M352 638.3l-1.9 14.7M379.7 642l-1.1 14.7M387 642l-1.7 15.9M412.4 644.5l-1.5 14.2M418.1 644.5v14.2M444.7 645.7l.6 12.2M451.8 644.5l.8 14.1M483.5 645.7l1.9 11.9M489.5 645.7l2.9 11.6M514.5 644.5l2.3 11.3M521.1 644.5l2.8 10.6"/><path class="st1" d="M322 415.5s-15.2 3.2-21.7 10.7c15.8 16.3 16 42.7 19.7 44.6 3.7 1.9 39.4-9.5 39.4-9.5s1.7 46.1-1.7 55.5c-3.4 9.5-8.1 15.2-9.8 39.2-1.7 24 .7 25.5-7.7 49.3-8.3 23.9-11 36.6-14.6 42 59.1 20.3 206.7 7.3 206.7 7.3s-18.9-70.4-21.2-108.7c-2.3-38.3 4.3-77.5 4.3-77.5s29.1 29.9 35.1 31c8.4-13.9 33-34.4 33-34.4l-45-51-86.7 3.4-73.4-31.5-56.4 29.6z"/><path class="st8" d="M359.1 265.2C345.2 296.8 336.6 402 336.6 402l49-25.8 8.7-138.9c-.1.1-21.4-3.7-35.2 27.9z"/><path class="st8" d="M388.7 246c0 .9-17.5 130.9-17.5 130.9l38.5 2.8 8.9-135.9-29.9 2.2z"/><path class="st9" d="M376.6 201.8c-8.4-28.5-25.3-52.3-25.3-62.9 24 0 37.5 28.3 37.5 28.3s-15.7-31-12.4-48.8c33.2 7.3 31.4 63.6 31.4 63.6l-12.1 28.4c0 .1-10.7 19.9-19.1-8.6zM443 151.8s7-50.4 13.3-56.5c13.9 19.5 9.6 51.6 6.5 61.2 3.9-4.3 9.2-56.7 17.7-64.7 14.3 36.3 4.3 89.4 3 90-1.2.7-2.7 15.8-3.6 17.7-.9 1.9-16.6-7.4-16.6-7.4L443 151.8zM492 163s-2.8-41.8 9.9-66.2c22.9 46 12.7 66.2 12.7 66.2l-14.1 7.1-8.5-7.1z"/><path class="st1" d="M358 145.7c12.3 7.1 37.5 49.2 36.3 46.7M380.8 125.8c11.6 11.3 16.1 42.6 16.1 42.6"/><path class="st9" d="M415.4 178.8c0-.1-.1-.6-.2-1.5-1.4-10.3-20.6-34.4-9.8-71.5 17.5 17.5 23.5 52.4 23.5 52.4S421 114.7 434 101c16.7 27.4 15.7 75.2 15.7 75.2l1 24.3-30.2-3.6-5.1-18.1z"/><path class="st1" d="m408.3 118.5 14 51.5M433.4 114.5l9.6 70.8M456.5 104.1c3.6 24.8-2.8 56.1-2.8 56.1M480.5 105.2c-2.6 31.4-6.4 78.1-6.4 78.1M501.9 120.7c0 12.2-2.8 47.6-2.8 47.6"/><path class="st6" d="m318.3 146-15-10.6s-26.2 15.8-27.6 84.8 22.9 101 22.9 101l17.7-13.4c-6.9-9.3-16.8-31.2-16.8-80-.1-48.8 11.2-71.8 18.8-81.8z"/><path class="st11" d="M395.7 200.6 318.4 146c-7.8 10-18.9 33-18.9 81.9 0 48.8 9.9 70.6 16.8 80l89.2-67.8-9.8-39.5z"/><path class="st1" d="m296.5 142.1 10.6 7.8M291.2 149.9l9.3 5.4M283.1 169.2l10.1 4.1M280.8 177.3l10.4 2.6M277.1 198.7l12.7 1M276.4 206.4h13.4M275.7 230.5l12.4-.4M276.4 238.9l11.7-2.1M278.3 262.7l11.5-3.4M279.8 271.1l11.4-4.5M285.5 289.7l10.4-4.3M286.8 296.8l10.2-4.7M351 226.6l16.9 27.7M343.7 249.7l28.7-19.6M363.5 225.5l-10.4 30M343.7 235l27 7.6M346 187.9l17 27.7M338.7 211l28.8-19.6M358.5 186.9l-10.2 29.9M338.7 196.3l27.2 7.7M318.3 160.2l11.3 17.9M313.2 175.3l16.4-11.2M326.2 160.2l-6.5 17.9M315.7 166.4l16.7 4.8M315.3 194.2l11.1 17.9M310.1 209.2l16.3-11.1M323 194.2l-6.4 17.9M312.7 200.4l16.5 4.8M317 238.2l11.1 18.1M311.8 253.3l16.3-11.1M324.7 238.2l-6.4 18.1M314.4 244.4l16.5 5M322 268.5l11.2 18.1M316.9 283.6l16.3-11.1M329.8 268.5l-6.4 18.1M319.4 274.7l16.6 5M395.7 200.6 318.4 146l-15-10.6s-26.2 15.8-27.6 84.8 22.9 101 22.9 101l17.7-13.4 89.2-67.8-9.9-39.4z"/><path class="st10" d="M467 358.9c0 7.4 15.8 16.3 23.7 16.3s21.2-2.9 22.9-5.4c1.7-2.5-3.5-10.3-.3-13.5 3.2-3.4 7.2-1.1 9-6.8 1.8-5.6-10.1-42.8-10.1-42.8l-45.3 19.6c-.2-.1.1 25 .1 32.6z"/><path class="st3" d="M530.7 100.1s41.7-41.1 97.4-38.5c55.8 2.6 97.4 12.6 97.4 12.6S715.1 85.5 703 87.5s-40.2-7.3-80-5c-39.8 2.4-58.9 20.2-58.9 20.2L551 113.1l-20.3-13z"/><path class="st12" d="m427.5 237.4 1.6 54.6c1.8-.3 3.6-.7 5.2-1l-1.6-54.2c-1.7.2-3.4.4-5.2.6zM417 238.6l1.7 55.2c1.7-.2 3.5-.6 5.2-.9l-1.7-55c-1.7.3-3.4.6-5.2.7zM432.8 236.8l1.6 54.2c2-.5 3.7-.9 5.2-1.4l-1.6-53.4c-1.7.2-3.5.5-5.2.6z"/><path class="st12" d="m437.9 236.2 1.6 53.4c2.6-.8 4.2-1.6 4.2-2.3 0-3-.8-19.8.2-28.2l-.7-23.5c-1.7.3-3.5.5-5.3.6zM422.3 238l1.7 55c1.8-.3 3.5-.7 5.2-.9l-1.6-54.6c-1.8.1-3.6.3-5.3.5zM401.1 240.6l1.7 55.5c1.5-.2 3.3-.5 5.2-.7l-1.7-55.5c-1.6.2-3.4.5-5.2.7z"/><path class="st12" d="M395.7 241.3c1.1 28.9 1.9 55.5 1.9 55.5s2-.2 5.3-.7l-1.7-55.5c-1.9.2-3.7.4-5.5.7zM411.7 239.2l1.7 55.4c1.7-.2 3.5-.6 5.3-.8l-1.7-55.2c-1.7.2-3.5.4-5.3.6z"/><path class="st12" d="m406.4 239.9 1.7 55.5c1.7-.2 3.5-.5 5.3-.8l-1.7-55.4c-1.7.3-3.5.5-5.3.7zM443.2 235.6l.7 23.5c.2-1.9.6-3.4.9-4.2.3-.6 1.8-1.2 4.2-1.9l-.6-18.1c-1.7.4-3.4.6-5.2.7zM485.4 232.4l.5 16.1c1.8-.1 3.6-.2 5.3-.2l-.5-16c-1.7-.2-3.4 0-5.3.1z"/><path class="st12" d="m448.4 235.2.6 18.1c1.5-.5 3.3-.8 5.2-1.2l-.6-17.3c-1.6.1-3.4.2-5.2.4zM490.7 232.1l.5 16c1.8-.1 3.6-.1 5.3-.1l-.5-16.1c-1.7.1-3.5.1-5.3.2zM474.9 232.9l.5 16.2c1.8-.1 3.5-.3 5.3-.5l-.5-16.1c-1.7.2-3.5.3-5.3.4z"/><path class="st12" d="M514.7 233s-3.4-1.2-18.8-1l.5 16.1c6 0 10.6.5 12.3 1.5 4.2 2.5 11.2-6 16.1-13.3l-10.1-3.3zM480.1 232.6l.5 16.1c1.8-.1 3.5-.2 5.3-.3l-.5-16.1c-1.7.1-3.4.2-5.3.3zM469.6 233.3l.5 16.4c1.7-.2 3.5-.3 5.3-.6l-.5-16.2c-1.7.1-3.5.3-5.3.4zM458.9 234.2l.5 17c1.7-.2 3.4-.6 5.2-.8l-.5-16.7c-1.6.1-3.4.4-5.2.5z"/><path class="st12" d="m453.7 234.6.5 17.5c1.6-.3 3.4-.6 5.2-.9l-.5-17c-1.7.1-3.4.3-5.2.4zM464.2 233.7l.5 16.7c1.8-.2 3.6-.5 5.4-.7l-.5-16.4c-1.7.1-3.5.3-5.4.4z"/><circle class="st8" cx="474.8" cy="274.2" r="19.7"/><circle class="st9" cx="438.3" cy="477.3" r="14.3"/><circle class="st9" cx="438.3" cy="477.3" r="6.4"/><circle class="st9" cx="502.7" cy="474.1" r="12.7"/><circle class="st9" cx="502.7" cy="474.1" r="5.6"/><circle class="st9" cx="556.7" cy="447.6" r="12.7"/><circle class="st9" cx="556.7" cy="447.6" r="5.6"/><circle class="st9" cx="384" cy="462.5" r="12.7"/><circle class="st9" cx="384" cy="462.5" r="5.6"/><circle class="st9" cx="327.7" cy="421.2" r="12.7"/><circle class="st9" cx="327.7" cy="421.2" r="5.6"/><path class="st1" d="M588.7 475.6c-6.8 6.5-6.8 11.4-6.8 11.4"/><path d="M224.8 743.8c-.2.1-.3.2-.6.6.2-.3.4-.5.6-.6z" style="fill:none"/><path class="st7" d="M682.7 456.4c.9-.3 11.6 15.3 27.4 12.1 15.8-3.3 3.7-35.7 3.7-35.7l-6.5-8.7-19.1 4.5-5.5 27.8z"/><path class="st7" d="M710 457.6s-3.7 8.7 0 10.9c3.7 2.3 16.1-2.4 18.6-7.1 2.5-4.7-2.5-10.1-2.5-10.1l-16.1 6.3z"/><path class="st7" d="M705.3 446.5s-5 11.9.8 13.7c5.7 1.8 20.2-4.8 21.2-8.6 1-3.7-4.1-9.7-4.1-9.7l-17.9 4.6z"/><path class="st7" d="M702.7 435.6s-4.5 12.6 1.4 14.6c6 2 20.1-5 22-8.2s-3.4-11.5-3.4-11.5l-20 5.1z"/><path class="st7" d="M700.2 427.4s-1.5 10.7 3.2 12.1c4.5 1.4 21.1-3 22.5-7 1.5-3.9-2.8-11.3-2.8-11.3l-22.9 6.2z"/><path class="st9" d="M710.5 419.3c3.4 0 12.1-3.4 15.4-4.7-1.2-2.1-3.3-3.7-5.3-3.4-2.1.3-7.9 1.4-14.2 2.7.3 2 1.2 5.4 4.1 5.4z"/><path class="st7" d="M710.5 419.3c-2.9 0-3.8-3.4-4.1-5.5-9.2 1.9-19.8 4.3-22.6 6.3-4.8 3.4-7.3 6-11.3 9.8-3.9 3.7-31.4 13.7-52.6 23.5-15.7 7.2-26.2 16.9-31.3 22.2-5.3-3.6-8.1-7.1-13-8-22.6 8-25.1 31.9-25.1 31.9s20.1 22.3 36 19.7c16-2.6 81.4-58.8 81.4-58.8s13.5 3.3 18.4-3.2 8.2-26.1 12.4-26.5c4.2-.3 18.8-3.9 25.3-6.8 3.8-1.7 3.7-6.3 1.9-9.6-3.2 1.6-12 5-15.4 5z"/><path class="st8" d="M393.8 196.6s-16.6-26.2-13.9-31.9c2.6-5.6 14.2-7.9 18.2-7.1 4.1.8 14.4 34.6 14.4 34.6s-1.5-31.5 1.1-34.9c2.6-3.4 15.3-4.5 16.2-1.1.9 3.4 10.5 36.5 10.5 36.5l7.1-.8s1.5-34.2 3.4-38.1c1.9-3.8 16.3-2.6 17.2 1.1.9 3.7 10.9 39.5 10.9 39.5s9-34.7 12.4-36.5c3.4-1.9 25.9 3 25.9 3l-6 42.2-117.4-6.5z"/><path class="st9" d="m436.3 189.5 14.5 11.2c5.5-.5 10.8-.8 15.8-1.1L452 188.3c-5.4.4-10.7.7-15.7 1.2z"/><path class="st9" d="m422.3 190.8 14.3 10.9c5-.5 9.7-.8 14.2-1.2l-14.5-11.2c-4.9.6-9.6 1.1-14 1.5zM409.2 192.6l13.7 10.6c4.6-.5 9.2-.9 13.6-1.4l-14.3-10.9c-4.6.5-9 1-13 1.7zM393.8 196.6c.1 3.2.3 6.4.5 9.8 4.8-.6 9.5-1.1 14.1-1.7l-11.3-9.5c-1.4.6-2.4.9-3.3 1.4z"/><path class="st9" d="m396.9 195.3 11.3 9.5c5.1-.6 9.9-1.1 14.6-1.6l-13.7-10.6c-4.8.8-9 1.7-12.2 2.7zM452 188.3l14.5 11.2c5.3-.3 10.4-.6 15.1-.8L467 187.4c-5.1.3-10 .6-15 .9zM530.8 198v-.8l-15.1-11.6c-4.6.1-10.3.2-16.3.5l15.3 11.7c6.6 0 12 .1 16.1.2z"/><path class="st9" d="M530.8 185.3s-5.9.1-15.2.3l15.2 11.6v-11.9zM467 187.4l14.6 11.3c6.1-.2 11.6-.5 16.8-.6l-14.9-11.4c-5.3.2-10.9.4-16.5.7zM483.6 186.6l14.9 11.4c6.1-.1 11.5-.2 16.2-.2l-15.3-11.7c-5 .1-10.3.3-15.8.5z"/><path class="st3" d="M359.4 58.8s15.5 21.4 62.9 22c47.3.6 66.1 6.6 76.1 11.4 10 4.6 27.7 43.3 27.7 43.3l19.1-4.5 2.8-24.6s-21.2-38.5-66.5-44.5-122.1-3.1-122.1-3.1z"/><path class="st0" d="M494.8 91.8c18 38 15.4 51 15.4 51l36.4 4.5s9-18.8 24-47.6c-31.9-4.5-41.9 27.8-41.9 27.8s-5.7-35.3-33.9-35.7z"/><path class="st1" d="M506.4 102.7c12.7 12.7 20.1 48.8 20.1 48.8s17.6-37.6 29.1-41.2"/><path class="st2" d="M511.3 166.1s-5.9-18.4-9.3-24c.1-3 9-4.8 14.3 2.3 1.1-5.3 9.6-8 12.1-2.3 2.6-5.2 13.5-3.4 15.4 2.7 4.7-5.9 12.1-6 12.1 3.4-6.4 3.4-18 20.3-18 20.3l-26.6-2.4z"/><path class="st1" d="m534.9 161.6 8.7-16.9M516.2 144.4l3.8 17.2h8.7l-.5-19.5"/><circle class="st3" cx="524.5" cy="173.3" r="18"/><circle class="st9" cx="396" cy="313.9" r="20.1"/><circle class="st6" cx="474.8" cy="274.2" r="11.2"/><path d="M463.6 274.2c0-6.2 5-11.2 11.2-11.2 6.2 0 11.2 5 11.2 11.2h-22.4z" style="fill:red"/><circle class="st9" cx="474.8" cy="274.2" r="4.8"/><circle class="st1" cx="474.8" cy="274.2" r="11.2"/><path class="st11" d="M530.8 198c-18.5-.6-65.1-.7-136.5 8.3.2 5.4.5 11 .7 16.9 30-4.4 102.7-8.6 135.9-8.9V198z"/><path class="st6" d="M530.8 214.4c-33.1.2-105.9 4.5-135.9 8.9.2 6 .5 12.1.7 18 104.6-13.7 119.1-8.3 119.1-8.3l10.1 3.3c3.5-5.1 6-9.7 6-9.7v-12.2z"/><path class="st1" d="m411.8 227.4 2.5 11.5M419.7 227.4l2.1 10.6M439.4 224.9l1.4 11.1M447.9 224.9l1.3 10.4M470 222.1l1.3 11.1M478.8 222.1l1.4 10.5M496.5 221.8l.5 10.1M504.3 221.8l.3 10.2M447.9 203.6v13.8M441.9 216.2l10.7-11M443.9 206.4l9.8 8M421 207.5v13.7M412.7 214.4h18.1M415.1 220l10.7-10.9M417.1 210.3l9.8 8M481.9 202.3v13.9M476 214.8l10.7-10.9M477.9 205.1l9.8 8M515.4 200.6v13.8M509.5 213.1l10.7-10.9M394.2 206.4c.2 5.4.5 11 .7 16.9.2 6 .5 12.1.7 18 104.6-13.7 119.1-8.3 119.1-8.3l10.1 3.3c3.5-5.1 6-9.7 6-9.7V198c-18.5-.5-65.1-.7-136.6 8.4z"/><path class="st9" d="M515.1 322.4v17.1s9.3-2.3 9.9-9.6-5-11.6-5-11.6l-4.9 4.1z"/><path class="st9" d="M516.8 324.1s9.3 20.3-8.4 23.4c-3.9-23.4-3.7-18.5-3.7-18.5l12.1-4.9z"/><path class="st9" d="M499.9 329s-.6 10.6 1 22.1c15.9 3.2 8-22.1 8-22.1h-9z"/><path class="st9" d="m493.5 332-2.8 24s11.8 2.3 13-7.3c1.1-9.6-3.7-19.6-3.7-19.6l-6.5 2.9z"/><path class="st9" d="M488.1 333.9s2.6 20.1-7.1 23.9c5.1 3.4 9.9 2.6 12.4-1.8 2.6-4.4 2.5-22.2 2.5-22.2h-7.8v.1z"/><path class="st2" d="M479.7 328.8s1 10.7 6.1 10.7 33.8-13.2 35.8-17.1c2-3.9-2.8-9.5-2.8-9.5l-39.1 15.9z"/><path class="st8" d="M453.7 322.4c-5.2-13-14.1-16.3-24.6-15.8-10.5.6-19.7 16-18.1 23.1 1.6 7.1 3.7 9.3 12.4 9.9 8.7.6 10.9-2.3 12.7-7.5.8 9.9-3.3 22.9 0 35.3 3.3 12.4 29.2 11.6 34 1.1 4.8-10.5-.3-26.8 3.6-33.2 3.9-6.4 48.8-13.7 54.6-29.6 6-15.8-3.6-51-3.6-51s4.7 5.1 11.2 3.4c6.4-1.7 9.6-3.4 11.8-9.7s.3-18.7-7.5-22.6c-7.9-3.9-15.9-4.3-22.9-2.3-7 2-12.8 7.2-15.7 16.8-2.8 9.6 8.4 57.6 2.9 60.4-5.5 2.8-25.8.5-36.2 3.9-10.3 3.2-14.1 11-14.6 17.8z"/><path class="st1" d="M526.9 237.9c-9.3 3.5-6.1 13-2.1 16.7M423.9 322.6c8.9-3.9 14.1 3.4 12.3 9.3M453.7 322.4c2.9 5.4.6 36.6.6 36.6"/><path class="st9" d="m357.4 383.4-6.2 2s-20.8 15.9-20.8 21.5c0 5.5 9.6 11.2 14.6 8.1-6 10.5 5.9 21.7 16.9 16.9-1.5 11.8 11.8 21.5 26.5 10.5-.9 17.5 21.3 16.9 27.7 7.3-.9 11.3 16 22 27.5 6.8 1.8 13.5 24 15 29.3 3.4 5.6 13 27.9 5.4 28.6-2.6 7.7 8.4 24.7-3.4 23.5-10.7 9.2 9.3 19.9-.9 18.8-8.1 8.2 4.7 16.7-5.4 16.7-11.6 0-6.2-9.9-8.4-9.9-8.4h-4.5l-117.2 1.1-71.5-36.2z"/><path class="st1" d="M358.5 389.1s-22.3 9.2-17.5 16.7c4.8 7.3 19.5-8.8 19.5-8.8l6 8.4s-16.6 11-12.4 16.9c4.2 5.9 19.1-10.7 19.1-10.7l8.4 7.3s-14.4 14.4-8.4 19.5c6 5.2 15-13 15-13l14.1 5.7s-10.1 14.5-2.6 17.9 12.7-13.5 12.7-13.5l15.2 2.9s-6.5 17.1 2.3 18.8c8.8 1.7 10.5-15 10.5-15l10.7.6s-2 16.1 7.1 16.1 5.1-15.8 5.1-15.8l15.2-.3s-2.8 16.1 7.3 16.1 2.9-18 2.9-18l11.3-1.1s6.5 15.5 14.4 13.3c7.9-2.3-2.3-16.1-2.3-16.1l13.1-5.7s7 13.1 11.5 10.8c4.5-2.3-4.5-14.1-4.5-14.1l7.9-4.8s6.5 13.3 11.8 9.6c5.3-3.7-7.1-16.1-7.1-16.1M543.8 438.4l-10.7-17.2M514.3 431l10.7 15.5M501.5 457.2l-7-18.8M469.3 435.6l3.6 24.2M443.6 456.4l3.1-21.7M416.9 429.6l-.8 20.1M388.4 442.3l9.3-21.1M361.9 431.9l14.4-14.9M360.6 402 345 415"/><path class="st3" d="M445.5 430.5c50.7 4.7 85.9-14.5 99.9-24-7-12.7-21.3-30.3-45.5-25.6-36.9 7.3-46.2 29.1-46.2 29.1s-2.7-25.3-38.5-37.5c-21.1-7.1-39.5-1.4-51.1 4.6 7.8 15.5 30.6 48.7 81.4 53.4z"/><path class="st2" d="M445.5 430.5c-50.8-4.7-73.4-38-81.4-53.4-8 4.2-12.8 8.3-12.8 8.3s14.6 55.2 93.3 60.8c78.6 5.6 106.1-27.9 106.1-27.9s-1.6-5.3-5.3-11.9c-14 9.6-49.2 28.8-99.9 24.1zM358.2 506.7c-5.2-5-14.3 9.9-5.6 23.1 8.8 13.2 27.6 19.9 73.8 19.9s84.1-13 89.2-18.2c5.1-5.3 5.3-16.7 2.6-17.5-2.7-.8-24.2 20.6-86.3 19.1s-67.1-20.1-73.7-26.4z"/><path class="st1" d="M439.5 210.5h18.2M473.7 209.2h18.1M507.1 207.5h18.1M511.5 203.4l9.8 7.9"/></svg>