<svg version="1.1" id="Calque_1" xmlns="http://www.w3.org/2000/svg" x="0" y="0" viewBox="0 0 900 900" style="enable-background:new 0 0 900 900" xml:space="preserve"><style>.st0{fill:#ffce00;stroke:#000;stroke-width:3.4431;stroke-linecap:round;stroke-linejoin:round;stroke-miterlimit:10}.st1{fill:#ff7300}.st3,.st4,.st5,.st6,.st7{fill:none;stroke:#000;stroke-miterlimit:10}.st3{stroke-width:3.4431;stroke-linecap:round;stroke-linejoin:round}.st4,.st5,.st6,.st7{stroke-width:6.8862}.st5,.st6,.st7{fill:red;stroke-width:3.4431;stroke-linecap:round;stroke-linejoin:round}.st6,.st7{fill:#1a845c}.st7{fill:#bf9b00}.st8,.st9{fill:#fff}.st9{stroke-width:3.4431;stroke-linecap:round;stroke-linejoin:round}.st11,.st12,.st9{stroke:#000;stroke-miterlimit:10}.st11{stroke-width:3.4431;stroke-linecap:round;stroke-linejoin:round}.st12{stroke-width:1.1477}.st13{fill:red}</style><path class="st0" d="m541.1 408.6-2.1-22.8 17.3-13.2s36 16.3 59.2 27.2c23.2 11 69 58.8 76.8 60.5 7.9 1.7 21.6-28.2 21.6-28.2l16.8 15.1-27.9 65.9-123.1-50.3-2.6-15.7"/><path class="st0" d="M651.9 523.5s76.6 32 86.4 27.3 12.3-23.3 3.8-30c-8.4-6.5-64.7-47.3-64.7-47.3l-28.7 13.3 3.2 36.7z"/><path class="st1" d="m429.3 567-179.2 2.5 3.4 51.7 173.2-1.6z"/><path style="fill:#fffefe" d="m253.5 621.2 1.7 27.1h170.1l1.4-28.7z"/><path class="st3" d="m250.1 569.5 3.4 51.7 1.7 27.1h170.1l1.4-28.7 2.6-52.6zM275.5 627.5l7.5 19M284.8 628.6l5.6 17.6M291.6 627.5l7.4 19M300.9 628.6l5.6 17.6M308.8 627.5l7.4 19M318.1 628.6l5.6 17.6M326 627.5l7.5 19M335.3 628.6l5.6 17.6M343.2 627.5l7.5 19M352.5 628.6l5.6 17.6M396 627.5l7.5 19M405.4 628.6l5.5 17.6"/><circle class="st4" cx="358.1" cy="598.2" r="7.5"/><path class="st0" d="M100.3 649.6c-3.4-34.9-16.1-74-16.1-76.9s32.1-8.6 31-12.7c-1.1-4-32.1-77.5-31-82.4s34.8-7.7 36.7-13.5c.9-2.9-8.7-32.8-20.1-61.1-11.9-29.6-25.7-57.4-25.8-59.3-.3-3.9 104.4-43.2 111-41.4 6.5 1.6 85.7 304.7 88 346.9 2.3 42.2-170.3 35.2-173.7.4z"/><path class="st5" d="M116.3 646.5s-15.7-62.9-15.7-65.5c0-2.6 24.1-7.7 26.7-10.7 2.6-2.9-27.5-81.3-28.3-83.4-.8-2.2 34.4-11.4 35.9-15.6 1.5-4.2-40.2-117.2-40.2-121.8s77.7-32.4 81.1-30c3.4 2.4 76.9 283.4 83.4 325.3 6.7 41.9-142.9 1.7-142.9 1.7zM141.2 747.5l42.5-1.3v-25.6l-82.6 2.4c0 .8.5 25.9-2.2 46.1h42.4v-21.6z"/><path class="st0" d="m183.7 746.2-42.5 1.3v21.8H98.9c-.6 4.7-1.4 9.2-2.4 13 4.9 1.8 51.3 0 55.1 0 3.8 0 2.3-24.7 2.3-24.7h39c2.9 0 1.3-28 .6-37.2l-9.8.2v25.6zM327.5 716.5l-13 .3 2.3 27.9h-26.1s1.1 24.4-1.1 24.4h-28.9c-2.5 0 .6-24.2-2.1-24.2-2.6 0-26.4 0-29.5-.1-2.2-.1-2.6-16.5-2.6-25.4l-9.5.2c.1 8.4.6 29.6 1.5 32.1 1.1 3.2 29.8 1.1 29.8 1.1s-1.1 23.2 1.1 26.4c2.3 3.1 46.1 2.6 47.5 0 1.4-2.6.5-19.5 2.3-21.9s26.3 1.3 28.2-1.1c2-2.2.1-39.7.1-39.7z"/><path class="st5" d="M229.1 744.9c3.1.1 26.7.1 29.5.1 2.8 0-.3 24.2 2.1 24.2h28.9c2.3 0 1.1-24.4 1.1-24.4h26.1l-2.3-27.9-88 2.5c0 9 .5 25.4 2.6 25.5zM384.1 747.3c2 2.9 43.7.6 47.4 1.7 3.7 1.1 0 19.7 2.8 21.3 2 1.1 28.6 0 42.9-.7-1.1-17.3-4.7-46.6-4.7-46.6l-88.6-4.1c-.4 6.9-1.3 26.1.2 28.4z"/><path class="st0" d="M434.2 770.4c-2.8-1.6 1-20.2-2.8-21.3-3.7-1.1-45.6 1.1-47.4-1.7-1.6-2.4-.6-21.5-.1-28.3l-10.9-.5s.3 35.5 2.6 37.9c2.3 2.4 40.5 0 43.3 2.4 2.6 2.4-.6 20.5 2.6 22.8 3.3 2.3 53.3 2.4 55.5.7.7-.5.6-5.5.1-12.5-14.3.6-40.8 1.6-42.9.5z"/><circle class="st6" cx="174.5" cy="494.7" r="17.9"/><circle class="st6" cx="174.5" cy="494.7" r="7.1"/><circle class="st6" cx="174.5" cy="494.7" r="17.9"/><circle class="st6" cx="174.5" cy="494.7" r="7.1"/><circle class="st7" cx="183.7" cy="586.5" r="17.9"/><circle class="st7" cx="183.7" cy="586.5" r="7.1"/><circle class="st7" cx="183.7" cy="586.5" r="17.9"/><circle class="st7" cx="183.7" cy="586.5" r="7.1"/><circle class="st7" cx="151.6" cy="379.3" r="17.9"/><circle class="st7" cx="151.6" cy="379.3" r="7.1"/><circle class="st7" cx="151.6" cy="379.3" r="17.9"/><circle class="st7" cx="151.6" cy="379.3" r="7.1"/><path class="st0" d="M87.3 642.1c8.4 20.5 2 85.6 2 85.6s339-9.3 392.6 0c53.6 9.3 6.8-90.2-9.1-90.2-16 0-377.9 2.3-385.5 4.6z"/><path class="st5" d="M107.1 655.7V712s61.5-7.7 178.7-5.7c117.1 2 175.9 4.9 176.7 5.7.8.8-4.9-57.4-4.9-57.4s-107.1-.3-169.9-.3c-62.7-.1-149.1.4-180.6 1.4z"/><circle class="st6" cx="159.2" cy="681.7" r="11.9"/><circle class="st6" cx="159.2" cy="681.7" r="4.9"/><circle class="st7" cx="262.1" cy="679.2" r="11.9"/><circle class="st7" cx="262.1" cy="679.2" r="4.9"/><circle class="st6" cx="358.5" cy="682.9" r="11.9"/><circle class="st6" cx="358.5" cy="682.9" r="4.9"/><path class="st1" d="M493.5 766.2c8.6 10.1 35.7 5 51.4 1l-9.9-91.4-44.2-6.2c-2.2 21.7-7.6 84.7 2.7 96.6z"/><path class="st8" d="M493.5 766.2c-10.2-12.1-4.8-74.9-2.6-96.5l-16.4-2.3s-14 69.7 0 101.8 72.1 12.6 72.1 12.6l-1.6-14.7c-15.9 4.2-42.9 9.2-51.5-.9z"/><path class="st3" d="m469.1 747.5 11.2-2.6M468.2 734.1l11.4-.6M479.5 723.3l-11.3-.2M468.9 708.6l10.9.8M480.5 698.6l-10.6-1M471.2 687.4l10 1.7M533.9 785.3l-2.6-10M519.5 787.4l-.7-10.4M476.4 773.1l8.6-7.7M481.7 755.2l-10.4 4.7M505.2 787.6l1.6-10.5M489.7 784.1l5.2-9.6"/><circle class="st4" cx="508.8" cy="702.7" r="7.9"/><circle class="st4" cx="513.1" cy="744.9" r="7.9"/><path class="st3" d="m544.9 767.3-9.9-91.4-44.2-6.2-16.4-2.3s-14 69.7 0 101.8c14 32.1 72.1 12.6 72.1 12.6l-1.6-14.5z"/><path class="st9" d="m493.5 507.7-84.4 22.8-6.2 25.5 112.8-2.7zM481.6 563.6l-14.5-4c.8 5.7 1.6 11.7 2.3 17.7l7.9 2.3 4.3-16z"/><path class="st9" d="m489.9 554.3-8.3 39.1-10.7-4.7.6 4.7c.2 1.7.3 3.4.6 5l16 6.8 7.3-40.4c-2.1-3.7-3.9-7.2-5.5-10.5z"/><path class="st9" d="M489.9 554.3c-.1-.1-.1-.2-.2-.3l-25.8.6 3.1 3.3c.1.6.1 1.1.2 1.6l14.5 4-4.1 16-7.9-2.3c.5 3.7.9 7.3 1.4 10.9v.5l10.7 4.7 8.1-39z"/><path class="st6" d="m402.9 556-3.1 12.7c0 .2.2 40.7 18 72.9 14.5 26.2 64.2 41 93 45.1l-65.1-131.8-42.8 1.1z"/><path class="st9" d="m465.8 595.8 17.3 35.1 4.7-25.8zM536.7 648.3c-.2-1.7-2.9-7.7-7-16l-2.9 52.1c.5-1.3 1-2.8 1.6-4.4 3.8-10.6 9.1-26.4 8.3-31.7zM518.2 609.3c-1.7-3.2-3.4-6.5-5.2-10l-9.5-3.2 1.7-11.9c-1.7-3.4-3.6-6.8-5.3-10.1l-5.2 25.6 23.5 9.6z"/><path class="st9" d="M513.1 599.4c-2.5-4.9-5.2-10-7.8-15l-1.7 11.9 9.5 3.1z"/><path class="st9" d="m494.9 599.8 5.2-25.6c-1.6-3.2-3.3-6.4-4.8-9.5l-7.3 40.4 36 15.3c-1.7-3.4-3.7-7.1-5.6-11l-23.5-9.6zM529.7 632.2c-1.7-3.6-3.8-7.6-6-11.8l-36-15.3-4.7 25.8 17.7 35.7 26.7 4.6 2.3-39zM505.3 675.7l5.4 10.9c3 .5 5.6.7 8 .9l1.3-9.6-14.7-2.2z"/><path class="st9" d="m500.8 666.7 4.5 9.1L520 678l-1.3 9.6c2.6.2 4.9.3 6.8.2.3-.9.8-2.2 1.3-3.4l.7-13.1-26.7-4.6zM521.8 629.9l-28.3-11.8-5.1 23.6 6 11.9 23.8 7.1z"/><path class="st9" d="m499 628.6-3.8 16.4 17 4.6 3.5-16.3z"/><path class="st0" d="M677.7 712c-13.5-4.6-37.9-2.9-43-10.4-5.2-7.6-6.3-30.5-6.3-30.5l-42.7 3 14.8 65.9 65 15.7 47.2-13.5c-8.3-10-24.8-26.8-35-30.2z"/><path class="st9" d="m665.5 755.7 13.1 3.2s5.9-.8 13-2.1l-4.6-7.3-21.5 6.2zM687 749.5l4.6 7.3c3-.5 6.2-1 9.3-1.7l-5.3-8.1-8.6 2.5zM717.7 749c-.3-1-2.3-3.7-5-7l-9.5 2.8 5.7 8.5c5.5-1.4 9.3-2.9 8.8-4.3z"/><path class="st9" d="m695.7 747 5.3 8.1c2.9-.6 5.5-1.1 8-1.8l-5.7-8.5-7.6 2.2z"/><path class="st0" d="M661.1 733.5c-10.7-5.3-46.6 4-54.2-5.3-7.6-9.3-9.4-44-9.4-44l-44-1.7s11.8 22.2 11.8 40.6-11.2 22.8-4.8 33.1c6.4 10.2 73.7 1.3 79.3 1.3 3.1 0 4.9 3.2 6.2 6.3l36.4-10c-5.3-7-14.3-16.8-21.3-20.3z"/><path class="st9" d="M646 763.9c.9 2.4 1.6 4.8 2.3 5.9.5.6 3.8.5 8.3-.1l-2.3-8-8.3 2.2z"/><path class="st9" d="m654.2 761.6 2.3 8c3.1-.3 6.7-1 10.3-1.7l-3.4-8.8-9.2 2.5zM663.5 759.1l3.4 8.8c4-.8 8-1.7 11.5-2.6l-4.6-9-10.3 2.8z"/><path class="st9" d="M686.8 761.6c0-1-1.7-4-4.5-7.7l-8.6 2.4 4.6 9c5-1.4 8.5-2.6 8.5-3.7z"/><path class="st0" d="M661.1 733.5c-10.7-5.3-46.6 4-54.2-5.3-7.6-9.3-9.4-44-9.4-44l-44-1.7s11.8 22.2 11.8 40.6-11.2 22.8-4.8 33.1c6.4 10.2 73.7 1.3 79.3 1.3 3.1 0 4.9 3.2 6.2 6.3l36.4-10c-5.3-7-14.3-16.8-21.3-20.3z"/><path class="st3" d="M646 763.9c.9 2.4 1.6 4.8 2.3 5.9.5.6 3.8.5 8.3-.1l-2.3-8-8.3 2.2z"/><path class="st3" d="m654.2 761.6 2.3 8c3.1-.3 6.7-1 10.3-1.7l-3.4-8.8-9.2 2.5zM663.5 759.1l3.4 8.8c4-.8 8-1.7 11.5-2.6l-4.6-9-10.3 2.8z"/><path class="st3" d="M686.8 761.6c0-1-1.7-4-4.5-7.7l-8.6 2.4 4.6 9c5-1.4 8.5-2.6 8.5-3.7z"/><path class="st5" d="M640.5 546.2 571.6 505l-9.8 2.3 43 117.8c22.6-2.6 46.1-5.7 59.3-7.5-20.1-46.6-23.6-71.4-23.6-71.4z"/><path class="st7" d="M497.5 522.5c9.6 22.7 44.4 103.5 49 106.9 2.4 1.7 29.6-.9 58.3-4.2l-43-117.8-64.3 15.1z"/><path class="st6" d="M668 626.7c-1.4-3.1-2.8-6.1-4-9.1-29.8 4-113.3 14.8-117.6 11.7-4.6-3.3-39.4-84.1-49-106.9l-9.4 2.2c8.8 19.1 51.6 111.7 54.3 114 2.3 2.1 91.4-8 125.7-11.9z"/><path class="st6" d="M542.2 638.6c-2.6-2.3-45.4-94.8-54.3-114l-10.6 2.5c1.3 9.2 58.2 112.6 59.3 121.1 0 0 88.7-5.4 136-11.5-1.6-3.4-3.2-6.9-4.7-10.1-34.2 4-123.3 14.1-125.7 12z"/><path class="st5" d="M589.5 659.4c2.2-3.8 62.9-8.5 89.2-10.4-2.2-4.4-4.1-8.5-5.9-12.3-47.2 6.1-136 11.5-136 11.5.7 5.4-4.5 21.1-8.3 31.8 22.2 1.8 42.2 2.3 60.3 1.8-.7-6.7-1.2-18.9.7-22.4z"/><path class="st5" d="M688 667.5c-3.2-6.2-6.4-12.5-9.4-18.5-7.8.6-18.8 1.4-30.3 2.3l4.7 24.3c16.3-2.8 28.1-6 35-8.1z"/><path class="st0" d="M589.5 659.4c-2 3.4-1.4 15.7-.8 22.5 12.1-.3 23.2-1 33.3-2.1l-3.4-25.7c-15.8 1.7-28.2 3.7-29.1 5.3z"/><path class="st9" d="M571.4 682v9.8c3.8 0 7.7-.1 11.7-.2l-.7-9.6c-3.6.1-7.2.1-11 0zM559.9 681.9l-.6 9.9h12.1V682c-3.7 0-7.6 0-11.5-.1zM594.1 681.8l.9 9.5c3.9-.1 7.9-.3 11.9-.6l-1.3-9.4c-3.7.1-7.6.2-11.5.5z"/><path class="st9" d="m582.4 682 .7 9.6c3.9-.1 7.8-.2 11.8-.3l-.9-9.5c-3.7.1-7.6.2-11.6.2zM528.5 680c-2.2 6.1-3.9 10.4-3.9 10.4s3.9.2 10.6.6l1.8-10.4c-2.9-.1-5.8-.3-8.5-.6zM548.3 681.4l-1 10.2c3.7.1 7.7.2 12.1.2l.6-9.9c-3.9-.1-7.8-.4-11.7-.5z"/><path class="st9" d="m536.8 680.7-1.8 10.4c3.4.1 7.6.3 12.3.5l1-10.2c-3.8-.2-7.6-.4-11.5-.7zM674.6 671.2c-3.3.8-7.1 1.7-11.2 2.5l2.5 9.4c4-.8 7.9-1.7 11.8-2.8l-3.1-9.1zM651.6 675.9l2.6 9.4c3.9-.7 7.8-1.4 11.6-2.2l-2.5-9.4c-3.5.8-7.4 1.5-11.7 2.2z"/><path class="st9" d="M692.5 676c-1.5-2.8-3-5.6-4.5-8.5-3.3 1-7.8 2.3-13.4 3.7l3.1 9.2c5.1-1.3 10.1-2.8 14.8-4.4zM639.6 677.9l2.6 9.4c4-.6 8.1-1.1 12.1-1.8l-2.6-9.4c-3.9.5-7.9 1.1-12.1 1.8zM605.7 681.2l1.3 9.4c3.8-.2 7.7-.5 11.6-.8l-1.6-9.4c-3.6.2-7.4.6-11.3.8z"/><path class="st9" d="m628.4 679.2 2.1 9.4c3.9-.5 7.8-.9 11.7-1.4l-2.6-9.4c-3.6.5-7.3 1-11.2 1.4z"/><path class="st9" d="m617.1 680.3 1.6 9.4c3.9-.3 7.9-.7 11.8-1.1l-2.1-9.4c-3.7.4-7.4.8-11.3 1.1z"/><path class="st6" d="m618.6 654.2 3.4 25.7c7.9-.8 15.1-1.7 21.8-2.6l-4.5-25c-7.1.5-14.2 1.1-20.7 1.9zM648.4 651.4c-3 .2-6.1.5-9.1.8l4.5 25c3.2-.5 6.3-1 9.2-1.5l-4.6-24.3z"/><path class="st5" d="M547.2 549.8 534.9 560s-10.3 19.2-10.3 26.1c0 6.9 12.5 14.6 18.9 9.8 6.3-4.8 17.4-18.2 17.4-18.2l28.3 24.1s5.3 23.5 11.1 25.7c5.7 2.2 15.7-12.7 13.8-18.1S594.2 591 594.2 591l9.5-34.9 12.6-5s16 10 22.3 10.1c6.3.1 9.5-12.2 5.7-18.1-3.8-6-23.5-12.5-23.5-12.5l15.5-37.9 11-6.1s21.1 9.8 25.4 9.1c4.2-.8 8-12.2 5.4-15.6-2.6-3.3-26.1-9.9-26.1-9.9l-104.8 79.6z"/><path class="st7" d="M526.4 545.3s-18.2 18.7-18.2 23.6 7.3 12.6 11.9 12.2c4.5-.3 17.9-23.8 17.9-23.8l42 39.5s-7.7 22.6-4.6 27.5c3.1 4.9 13.7 3.4 16.6 0 3-3.4-2.8-22.6-2.8-22.6l4.9-27.2 14.7-9.3s18.7 10 23.9 9.3c5.2-.7 9.3-9.6 5.9-13.4s-26.2-11.5-26.2-11.5l21.6-49.9 7.2.1s23.1 12.6 28 10.8c4.9-2 7.7-12.3 3.4-15.1-4.2-2.9-31.3-10.8-31.3-10.8l-114.9 60.6z"/><path class="st0" d="m519.2 531.4-7.8 8s-16.9 17.2-17.8 21.5c-.9 4.2 6.3 12.6 11.2 10.7 4.8-2 19.7-23.3 19.7-23.3l44 40.1s-10.7 23.4-8.8 28c2 4.6 7 6.9 11.8 3.1 4.8-3.8 9.5-27.9 9.5-27.9l21.1-12.1s17.2 10.2 21.8 9.1c4.6-1.1 6.9-9.5 4.6-13-2.3-3.4-24.4-11.8-24.4-11.8l31-51.4s19.5 13.7 23.2 11.9c3.7-1.7 5.2-9 5.2-11.9 0-3-25.2-13.4-25.2-13.4l-119.1 32.4z"/><path class="st6" d="M503 527.5s-19.1 15.7-19.1 21.5c0 5.7 6.2 10.7 11.2 9.2s18.1-21.8 18.1-21.8l43 36.7s-15.3 23.9-15.3 30c0 6.1 9.3 13 15.3 8.7 6.1-4.2 13.7-27.9 13.7-27.9s23 6 24.1 7.2 14.3 17.6 19.9 18.4c5.5.8 14.3-13 10-17.2-4.4-4.2-21.8-12.9-21.8-12.9l21.8-46s12.3 9.3 20.3 9.8 13-14.3 7.7-20.1c-5.4-5.7-21.5-13-21.5-13l21.5-39.9s21.5 10.6 26.1 9.9c4.6-.7 8-10.3 4.9-11.6-3.1-1.3-24.7-5.4-24.7-5.4L503 527.5z"/><path class="st7" d="M605.5 464.4c-4.4 2.6-10.1 4.4-16.4 5.6l-42.6 66.7c3.4 3 6.8 5.9 9.9 8.6l52.4-83.1c-1 .7-2.2 1.5-3.3 2.2z"/><path class="st5" d="M644.8 459.2c-11.7 26.1-55.4 122.9-61.1 124.5-4.9 1.5-54.7-43.2-78-64.6-.2.3-.6.7-.8 1-2 2.5-4.6 4.7-7.8 6.7 11.2 10.1 86.7 77.4 91.9 74.8 5.7-2.6 69-138.8 69-138.8l-13.2-3.6z"/><path class="st6" d="M583.8 583.8c5.6-1.6 49.4-98.5 61.1-124.5l-12.2-3.4c-10.8 23.8-49.1 107.7-53 107.7-3.3 0-44.8-36.8-66.2-56.4-2.1 4-4.6 8-7.6 11.9 23.1 21.5 72.9 66.1 77.9 64.7z"/><path class="st7" d="m632.7 455.8-14.6-4.1c-1.6 3.7-4.6 7.1-9.2 10.4l-17.2 27.3 20.8 10.3c8.3-17.9 16.2-35.1 20.2-43.9zM556.3 545.3c12.1 10.3 21.7 18.2 23.3 18.2 1.5 0 7.6-11.5 15.4-27.1l-23.4-15.1-15.3 24zM591.6 489.5l-20.1 31.7 23.4 15.1c5.4-11 11.6-24 17.4-36.6l-20.7-10.2z"/><circle class="st3" cx="576.3" cy="541.5" r="4.8"/><circle class="st3" cx="591.9" cy="512.5" r="4.8"/><path class="st9" d="M531.1 496.5 520 513.3c8 7.1 17.4 15.6 26.4 23.5l11.5-18-23.2 4.4-3.6-26.7z"/><path class="st9" d="m566.9 504.7 22.2-34.7c-14.2 2.8-31.2 2.8-41.8 2.3l-6.1 9.1 2.9 26.2 22.8-2.9z"/><path class="st9" d="m544.1 507.7-3-26.3-10 15.1 3.8 26.4 23.1-4.2 8.9-14z"/><path class="st3" d="M549.8 480.9c0 3.1 1.1 17.8 1.1 17.8l14.8-1.7-1-17.7-14.9 1.6z"/><path class="st0" d="M368.1 608.5c-5.2 20.4-14.2 32-20 36.5.3-4.5-3.1-9.2-9.5-7.7-6.5 1.5-10.3 14.9-3.1 22.2s19.5 3.4 23 1.1c-5.7 15.3 15 22.6 20.3 5.7 0 5.7 7 13.4 14.6 13.4s15.5-9.5 15.6-14.1c.1-4.6-3.4-9.2-6.9-10.3-3.4-1.1-7.2 2.3-9.9 7.2-.3-9.1 2.2-36.6 6.1-45.3 3.9-8.7-25-29.1-30.2-8.7z"/><path class="st3" d="m378.8 666.4 1.5-12.2M364.9 648.5l-6.4 12.2"/><path class="st0" d="M436.1 618.1v42.2s-5.6-8-10.2-3.1-2.1 22.6 9.1 22.6c14.8.3 13.3-10.7 13.3-10.7 3.4 3.1.1 14 4.1 16.4 4 2.4 17.4-.8 17.4-5.7s-6.3-10.3-5.7-14.9c4.4 4.6 7.6 8.4 12.1 8.8 4.4.3 12.3-3.8 12.3-13s-13.5-13.5-18.1-7.7c-3.7-10.7-3.6-37-3.6-37l-30.7 2.1z"/><path class="st3" d="M340.5 651.1s7.7 2.3 7.7-6.2M392.2 662.6c-2.6 5.7 2.4 10 6.3 4.9M436.1 660.3c3.4 4.7 1.5 11.2-2.3 9.5M470.3 653c-3.6 2.4.6 11.1 6 7.7"/><path d="m474.9 592-4-3.9c.2 1.7.5 3.6.6 5.2l3.4-1.3z" style="fill:none"/><path class="st9" d="M403.2 527.2s-1.8 2.9-4.6 7.5l16.9 51.4c2-8.4 4-17.2 6.2-25.5l-11.4-33.4h-7.1 0z"/><path class="st5" d="M361.5 597c11.7 8.8 38 14 47.6 15.7 1.7-6.3 3.9-16.1 6.3-26.6l-16.9-51.4c-8.9 14.4-28.8 46.4-37 62.3z"/><path class="st9" d="M462.5 527.2H437l29.8 30.8c-2.2-17.1-4.3-30.8-4.3-30.8z"/><path class="st5" d="M470.8 588.1c-1.1-9.8-2.5-20.5-3.9-30.3L437.1 527h-26.9l11.4 33.4c3.6-12.9 7.3-24 11.4-28.3 1.1 5.2 1.4 12.5 1.1 20.9l36.7 35.1zM464.2 596.3l-30.8-27.7c-1.3 16.3-3.6 33.3-4.6 43.5 13.7 1.6 32 .8 44.2 0-.2-4.8-.8-11.4-1.6-18.7l-7.2 2.9z"/><path class="st9" d="M471.4 593.4c-.2-1.7-.3-3.4-.6-5.2L434.3 553c-.1 4.9-.5 10.3-.9 15.7l30.8 27.7 7.2-3z"/><path class="st7" d="M418.7 583.9c-1.8-3.4-39.7-12.3-43.5-12.3-1.8 0-4.1 2-5.6 4.5l48.1 16.8c1.6-3.5 2.1-7.2 1-9z"/><path class="st7" d="M369.6 576.1c-1.6 2.6-2.6 5.9-1.6 7.8 2 3.9 39.4 18 44.4 15.5 2.3-1.1 4.1-3.7 5.4-6.5l-48.2-16.8zM470.3 583.9c-4.7 0-37.5 1.8-39.1 3.4-.8.8-1.5 3.7-1.8 6.8l44.9-3c-.6-3.8-1.7-7.2-4-7.2z"/><path class="st7" d="M429.3 594c-.3 3.2-.3 6.5.2 7.9 1.3 2.6 41.2-1.7 43.4-2.3 1.1-.2 1.6-4.6 1.3-8.6l-44.9 3z"/><path class="st9" d="m368.1 601-4.1 10.6c3.1 1.6 7.1 3.2 11.5 4.7l3-11c-3.7-1.5-7.3-2.8-10.4-4.3zM399.8 610.8l-2.3 10.1c4.6.3 8.1-.1 9.3-1.6.7-.9 1.5-3.3 2.4-6.7-2.4-.4-5.6-1-9.4-1.8zM361.5 597c-2.2 4.2-3.7 7.3-3.8 8.6-.2 1.8 2.3 3.9 6.2 6L368 601c-2.4-1.3-4.7-2.7-6.5-4z"/><path class="st9" d="m378.3 605.1-3 11c3.8 1.3 7.8 2.3 11.6 3.2l2.8-10.9c-3.8-.9-7.6-2-11.4-3.3z"/><path class="st9" d="m389.7 608.4-2.8 10.9c3.8.8 7.3 1.4 10.4 1.6l2.3-10.1c-2.9-.6-6.3-1.3-9.9-2.4zM438 612.9v10.3c3.3.1 7.1.1 11 0l-.7-10.1c-3.5 0-7-.1-10.3-.2z"/><path class="st9" d="M428.8 612.1c-.6 5-.8 8.5-.3 9.2.5 1 4.4 1.6 9.6 1.8v-10.3c-3.3-.1-6.4-.4-9.3-.7zM473 612.1c-3.8.2-8.1.6-12.7.7l1.4 9.5c5.4-.6 9.6-1.4 10.8-2.3.6-.3.8-3.3.5-7.9zM448.2 613.1l.7 10.1c4.4-.1 8.8-.3 12.7-.8l-1.4-9.5c-3.7.1-7.8.2-12 .2z"/><path class="st0" d="M347.3 386.8s-55.9 16.4-62.3 28.3c-6.5 11.8-4.2 21.5 2 27.9 6.1 6.5 25.2 6.1 28.1-4.2 2.9-10.3-2.5-18.4-8.3-18.4 14.9-8.4 47.1-17 47.1-17l-6.6-16.6z"/><path class="st3" d="M299.6 433.8c-7.2-4.5-3.4-14.5 7.2-13.3"/><path class="st7" d="M341.4 314.3s-28.8 5.2-35.7-7.5-25.2-137.4-30.4-141.7c-5.2-4.4-18.1.7-18.9 3.4-.8 2.8 17.8 67.9 17.8 81.7-10.6-38.1-25-77.6-28.1-79.4s-14.6-1.7-14.9 6.3 18 56.9 25.6 88.4c-12.6-31.8-32.5-81.3-35.2-85.7-2.6-4.4-16.1 1.5-16.4 7.2-.3 5.7 26.5 61.1 39 96.4-26.1-43.8-46.7-85.7-52.4-87.2-5.7-1.5-13.4 3-11.1 7.2s13 25.6 34.8 67c-22.6-28-42.1-57.2-47.1-57.2s-16 5.5-11.5 11.2c4.5 5.9 50.2 59.9 78 103.6 27.9 43.7 53.6 71.7 65.8 73.6 12.3 1.8 51.3-13.8 51.3-13.8l-10.6-73.5z"/><path class="st3" d="M215.4 270.4c19.5 24.4 63.9 96.5 74.6 106.4 10.7 9.9 57-3.4 57-3.4"/><path class="st3" d="M244.1 283.5s36.4 60.6 46.8 72.1c10.6 11.5 56-1.1 56-1.1"/><path class="st3" d="M256.7 265.5c8.8 24.9 27.8 67.9 39.1 76.2 11.4 8.3 47.4 1.4 47.4 1.4"/><path class="st3" d="M274.1 250.2c4 25.8 18.1 66.1 28.9 76.2s38.4 4.8 38.4 4.8M165.3 221.9c52 54.2 105.6 159 131.3 167.6 17.6 6 50.5-8.6 50.5-8.6"/><path class="st3" d="M189.4 204.3c37.9 75.5 97.6 159.9 108.7 166.2 11.1 6.3 45.2-6.3 45.2-6.3"/><path class="st3" d="M215.4 189.7c21 62 66.3 153.4 80.5 161.5 14.1 8 46.5-2.3 46.5-2.3"/><path class="st3" d="M237.6 179.1c18.6 23.3 36.4 139.7 62.4 155.1 15.1 9 41.3 3.2 41.3 3.2"/><path class="st3" d="M265.5 171.3c13.3 14.2 19.5 138.5 42.2 149.4 14 7.5 29.6 2.8 29.6 2.8"/><circle class="st5" cx="285" cy="346.6" r="36.7"/><circle class="st3" cx="285" cy="346.6" r="19.5"/><circle class="st11" cx="285" cy="346.6" r="9.8"/><path class="st5" d="M380.3 270.4c.8 40.3 7 88.4 11.9 121.3 9.1-2.6 19.6-5.2 31.6-7.2L414 268.6c-10.8.2-22.1.8-33.7 1.8z"/><path class="st0" d="M332.4 278.1c-2.8 10 14.2 130.3 16.3 130.5 1.3.2 12.2-6.5 32.9-13.5-4.5-25.8-10.6-67.3-15.4-123-11.4 1.3-22.8 3.4-33.8 6z"/><path class="st6" d="M438.9 268.5c-3.9-.1-8-.1-12.4-.1l7.5 114.4c3.8-.6 7.5-1.3 10.9-2l-6-112.3z"/><path class="st6" d="m414 268.6 9.8 115.9c2.3-.3 4.6-.8 7-1.1 1.1-.1 2.2-.3 3.3-.6l-7.5-114.4c-4.1 0-8.3.1-12.6.2z"/><path class="st9" d="m381.8 302.7-12.5 1c.5 3.9.8 7.8 1.3 11.6l12.2-1.5c-.4-3.8-.7-7.4-1-11.1zM381.1 291.2l-12.9 1.5c.3 3.7.7 7.3 1.1 10.9l12.5-1c-.2-3.8-.5-7.6-.7-11.4z"/><path class="st9" d="m382.7 313.7-12.2 1.5c.5 3.8.8 7.6 1.3 11.2l11.9-1.4c-.3-3.7-.7-7.5-1-11.3zM380.5 280l-13.4 1.7c.3 3.8.7 7.5 1 11.1l12.9-1.5c-.1-3.9-.4-7.7-.5-11.3zM380.3 270.4c-4.7.5-9.3.9-14 1.5.2 3.2.6 6.4.8 9.5l13.4-1.7c-.1-3-.2-6.2-.2-9.3zM383.7 325.1l-11.9 1.4c.5 3.7.9 7.3 1.4 10.9l11.8-.7c-.5-3.9-.8-7.7-1.3-11.6zM389.1 370.5l-11.2 1.8c.6 3.8 1.1 7.5 1.7 10.8l11.1-1.4c-.4-3.5-1-7.3-1.6-11.2zM379.7 383.3c.7 4.2 1.4 8.3 2 11.8 3.3-1.1 6.8-2.3 10.6-3.3-.5-3.2-1-6.5-1.5-10l-11.1 1.5zM386.3 347.7l-11.5 1.8c.6 4 1 7.8 1.6 11.5l11.4-1.8c-.6-3.7-1.1-7.6-1.5-11.5z"/><path class="st9" d="m385 336.7-11.8.7c.6 4.2 1 8.3 1.6 12.3l11.5-1.8c-.5-3.9-1-7.6-1.3-11.2zM387.6 359.2l-11.4 1.8c.6 4 1.1 7.8 1.7 11.4l11.2-1.8c-.4-3.8-.9-7.5-1.5-11.4z"/><path class="st7" d="m480.7 280.8-2.9-10.3s-15.7-1.6-38.9-2l.6 11.1c13.1-.7 30.7.4 41.2 1.2z"/><path class="st7" d="m485 296-4.2-15.3c-10.6-.8-28.1-1.8-41.2-1.3l.8 14.9c14.9-.5 35.4 1 44.6 1.7z"/><path class="st7" d="M502.2 357.7 485 296c-9.2-.8-29.7-2.3-44.6-1.6l4.6 86.3c42.1-8.6 57.2-23 57.2-23z"/><path class="st8" d="M495.6 350.8c-9.8-53.1-67.5-59.3-95.8-35.2-5.3 5.5 9.5 11.8 14.6 45.1s-4.9 49 .3 54.3c5.4 5.4 95.7 10.4 80.9-64.2z"/><path class="st1" d="M433.8 314.3c-12.1 0-23.1 4.6-31.4 12.1 1.8 3.2 4.2 7.5 6.4 13.1 6.1-6.9 15-11.2 25-11.2 18.4 0 33.3 14.9 33.3 33.3s-14.9 33.3-33.3 33.3c-6.8 0-13.1-2.1-18.4-5.5-.5 6.1-1.3 10.9-1.8 14.8 6.1 2.9 13 4.6 20.2 4.6 26.1 0 50.6-21.1 50.6-47.2s-24.6-47.3-50.6-47.3z"/><circle class="st12" cx="435.1" cy="402.2" r="4"/><circle class="st12" cx="463" cy="391.2" r="4"/><circle class="st12" cx="476.2" cy="364.5" r="4"/><circle class="st12" cx="469.2" cy="340.3" r="4"/><circle class="st12" cx="451" cy="323.5" r="4"/><circle class="st12" cx="422.4" cy="322.3" r="4"/><path class="st6" d="M415.4 389.2c5.3 3.4 11.6 5.5 18.4 5.5 18.4 0 33.3-14.9 33.3-33.3s-14.9-33.3-33.3-33.3c-10 0-18.8 4.4-25 11.2 2.2 5.5 4.1 12.5 5.5 21.3 1.8 11.6 1.7 21 1.1 28.6z"/><circle class="st0" cx="432.6" cy="361.4" r="17.9"/><path class="st3" d="m407.3 318.5-2.1-6.9M417 314.3l-2.5-7.5M426.3 311.5l-1.8-7.8M435.1 309.9v-7.2M445.8 310.5l1.6-7.9M454.5 311.6l2.9-6.6M460.6 315.1l3.7-6.8M467.1 318.8l4.2-7.2M471.3 323.5l6.8-6.5M476.2 328.2l6.7-5M480.9 336.9l6.9-4.3M484.4 384.6l8 4.3M480.9 390.8l6.9 5.3M476.2 396.1l5.7 6.4M470.2 401l3.5 6.5M463 404.3l2.4 7.2M454.9 407.2l1.5 7.6M446.5 411l.5 6.2M438 411.5v6.3M428.8 411.5l-.9 6.2M419.5 409.9l-1.1 6.5M495.6 350.8c-9.8-53.1-67.5-59.3-95.8-35.2-5.3 5.5 9.5 11.8 14.6 45.1s-4.9 49 .3 54.3c5.4 5.4 95.7 10.4 80.9-64.2z"/><path class="st0" d="M311.1 225.3c-1.4 3.8.3 14.3 5.7 14.3 2.3 0 16.4-3.9 32-8.4l-3-16.2c-16.6 4.2-34 8.1-34.7 10.3zM328.3 253.7c-3.4 4.9 2 18 13.4 11.8 2.9-1.5 9.4-4.8 17.6-9.1l-6.5-16.2c-12.6 6-23 11.3-24.5 13.5zM317.5 159.1c-3.4 0-6.9 10.1-4.9 12.6 1.1 1.4 17 7 33.7 11.7l3.9-15.6c-18.6-4.9-31.3-8.7-32.7-8.7z"/><path class="st7" d="M462.5 190c-37.1-3.2-82.3-14.2-112.2-22.3l-3.9 15.6c12.3 3.3 25.1 6.2 33.2 6.7-7.8.2-23.5.2-38.1.2l.9 18.5c14.8-.6 32.6-2.2 32.6-2.2s-16.1 5.2-29.2 8.4l3 16.2c20.1-5.7 42.7-12.2 46.8-12.2-11.6 5.7-27.1 13.8-42.9 21.3l6.5 16.2c24.7-12.5 64.3-32.5 64.3-32.5l43.6-12.9c0 .2 6.5-6.7-4.6-21z"/><path class="st0" d="M309.9 190c-3.1-.3-.3 14.6 2.3 17.7 1.4 1.5 15.5 1.6 30.2 1l-.9-18.5c-15.7.1-30.1 0-31.6-.2z"/><path class="st3" d="M379.5 190c32.5 0 83 5.9 83 5.9M374.9 206.6c22.6-7.1 82.4-1.1 82.4-1.1M395.6 219c21-10.2 46.7-3.9 46.7-3.9"/><path class="st3" d="M348.7 175.2c9 3.9 69 16.5 69 16.5M342.1 198.6c52-5.6 115.3 2.5 115.3 2.5M347.6 224.8s23.9-8.3 30.1-10.4c26.1-8.8 64.4-5.2 64.4-5.2M355.8 248.2s39.4-20.4 47.1-24.3c7.8-3.8 24-5.2 29.3-4.8"/><path class="st0" d="M453.7 251.7s-31.3-26.1-31.3-29.8 44.8-25.6 44.8-25.6l25.2 58.9-11.5 12.6-27.2-16.1z"/><path class="st9" d="M398.2 168.5c.1 2.3-6.4 2.8-6.4 6.9.1 4.1 11.9 4.4 10.3 10.9-1.6 6.5-8.4 7.3-7.7 12.2.8 4.8 4.2 6 9.2 6 4.9 0 15.1-8.8 14.1-12.6-1-3.8-1.8-6.9-1.8-10.3 0-3.4 8.7-4.8 9.9-2s3.7 19.1 7.9 19.1 14.2-4.7 14.2-9.5c0-4.9-9.9-13-9.9-16.4s3.1-5 5.7-5 6.9 6.9 10 6.9 17.6-6.3 18-9.2 0-8.3-3.1-7.8c-3.1.3-9.2 2-11.2 2-2.1 0 4.9-6.7 2.5-10.2-2.5-3.6-8.5 4.4-10.8 2.2-2.3-2.2 10.4-6.5 4.6-12.6-5.7-6.1-7.2 4.6-10.3 4.6-3.1 0 1.1-14.9.8-18.4-.3-3.4-4.5-6.9-8-5.4-3.6 1.5-1.5 13.4-7.7 15.7-6.1 2.3-17.2-18-20.3-18-3.1 0-10.3 5.7-10 9.2.3 3.4 14.9 8.8 14.6 14.1-.3 5.4-6.1 7.8-9.2 8.5-3.1.7-8.8-10.9-13-12.3-4.2-1.4-13 3.4-13 8.4s14.9 8.4 15.3 11.5-9.5 2.4-9.2 8.6c.4 5.7 14.4.6 14.5 2.9z"/><path class="st7" d="m606.7 149.9 11.8 15.1s55-9 86.8-14.2l-2.6-14.3c-36.7 4.6-96 13.4-96 13.4z"/><path class="st0" d="M731.1 134.1c-1.1-.7-12.7.6-28.5 2.5l2.6 14.3c11.7-2 20.3-3.3 21.9-3.6 5.9-1 7.8-11.1 4-13.2z"/><path class="st7" d="m619 159.2 4.9 15s45.4 2 76.9 3.2l-1.1-15.7c-32.6-1.1-79.9-2-80.7-2.5z"/><path class="st0" d="M730 163.4c-1.6-.6-14.1-1.1-30.2-1.7l1.1 15.7c15.6.7 27.8 1.1 29.2 1.1 4 .2 4.8-13.4-.1-15.1zM728.4 194c-2.3-1.1-13.8-1.8-27.5-3.7l-2.2 16.1c12.4 1.8 23.1 3 25.2 2.1 4.5-1.8 8.4-12.7 4.5-14.5z"/><path class="st7" d="M670.7 184.6c-23-6.5-45.1-14.9-45.1-14.9s.3 11.7 1.5 12.1 14.6 11.8 31.3 16.8c9.1 2.6 25.8 5.9 40.2 7.9l2.2-16.1c-9.7-1.3-20.6-3.1-30.1-5.8z"/><path class="st7" d="m622.5 180.6-1.4 14.3s41.2 24.3 65 37.4l7.5-14.8c-27.9-15.4-71.1-36.9-71.1-36.9z"/><path class="st0" d="M716.2 232c-.8-1.8-10.2-7.5-22.7-14.5l-7.5 14.8c7.2 4 12.9 7 15.3 7.9 10.3 4.2 17.6-2.2 14.9-8.2z"/><path class="st9" d="M562.8 154.2c1.3 3.1-5.4 10.9-5.4 10.9l14.9 6.2s25.7-14.3 27.2-18.2c1.4-4 13.4-16.1 13.4-20.3s-4.9-10-9.5-8.8c-4.6 1.1-7.2 13.4-10.3 13.4-3.1 0 1.5-18 .3-21.5-1.1-3.4-9.5-4.9-13-2-3.4 3.1.3 20.3-3.1 21.5-3.4 1.1-5.2-11.5-8.6-13.8-3.4-2.3-11.5.8-13.5 4.2-2.1 3.4 6.5 12.4 5.4 14.1-1.1 1.8-13 .8-11.8 10s12.7 1.2 14 4.3z"/><path class="st6" d="M491 339.8c-4.8-18.7-25.8-34.1-26.2-40.2-.3-6.1 2.6-9.2 6.5-9.2 3.8 0 14.9 15.8 15.3 13.8s-13.4-29.8-18.4-36.7-20.2-14.6-20.2-18.8 2.8-6.5 8.8-6.1c6.1.3 18 15.7 19.5 10.7 1.5-4.9-17.6-57-17.2-61.6.3-4.6 14.1 1.1 18.4 6.5 4.2 5.4 17.8 34.8 19.9 30.6 2-4.2-16.3-84.6-16.3-89.2 0-4.6 10.6-4.5 11.5-2.3.8 2.2 5.4 21.8 7.7 19.5 2.2-2.3-2.2-17.2 0-19.9 2.2-2.6 10.1-3.2 10.7 0 .6 3.2 1 19.5 4.6 18.4 3.6-1.1.3-13.8 3.6-19.5s12.3-2 12.3 2.3c0 4.2-.9 23.8 2.3 21.5 3.2-2.3 5.5-21.5 8.6-22.6s9.2 1.1 8.8 5.4c-.5 4.2-2.3 22.7-2.3 22.7l-4.6 14.7s24.6 19.2 24.6 30.6v23.3l-34 27.3-26.5 18 21.2 52.8c-.1-.1-33.7 26.7-38.6 8z"/><circle class="st5" cx="582.3" cy="149.9" r="9.3"/><path class="st0" d="M658.6 348.9s-33.1 3.4-39.6 10.3-2.4 16.1 4.7 17.6 35-11.1 41.5-7.7c6.5 3.4.3 12.7-2 12.7s-11.8-.2-15.3 2.3c-3.4 2.5-1.1 16.5-3.7 19.3-2.5 2.8-13.2 5.5-21.2 2.8-8-2.8-63.1-21.3-70.4-28-7.2-6.8-41.1-90.7-41.1-90.7l10.2-20.4 68.3-46.4s47.9 35.6 52.4 39c4.6 3.4.3 6.9.3 8.8s32.9 19.5 40.2 24.1c7.2 4.6 13.8 10 15.7 20.7 1.8 10.7-16.9 18.2-29.8 19.5-13 1.1-19.9-11-17.2-20.7 2.6-9.5 11.2-5.7 11.2-5.7"/><path class="st9" d="M651.1 356.3c.7-2.4 5.6-6.2 7-7.2v-.2c-3.9.5-32.5 3.9-38.9 10.1 1 4.1 2.6 9.3 4.5 11.7 3.3 4.2 12.9.5 11.4-3.8 3.4 4.9 12.6.5 12.3-4.2 2.3 1.6 4.6 2.1 6.5 1.7-1.8-2.7-3.2-6.4-2.8-8.1z"/><path class="st3" d="m643.9 351.2 3.5 11.5M635.1 366.8l-5.4-11.8M590.3 440.8l15.7 2.6"/><path class="st5" d="M467.1 489c17-9.5 14.5-54.7 11-83.7-3.6 2.5-7.5 4.6-11.5 6.2 2.5 19.2 5.2 56.1-10.6 63.7-12.4 6-29.3 5.3-41.5 3.7-1.4 4.9-2.9 9.8-4.5 14.6 16.7 2.5 41.2 4.3 57.1-4.5z"/><path class="st5" d="M520.7 399.7c-6.8-.7-13-2.9-18.4-6.4 2.5 35.1 3.6 94.7-17.2 112.5-21 17.9-59.7 11.5-81.7 5.9-3.3 7.8-7 14.8-11 20.2 18.6 5.4 94.2 12.3 112.7-11.5s19.5-52.8 19.5-52.8l-3.9-67.9z"/><path class="st7" d="M466.6 411.5c-2.5 1-5.2 2-7.8 2.8.7 10.8 1.7 34.4-2.4 43.8-5.4 12.3-26.4 10.2-26.4 10.2l5.5-50.5c-2.8.1-5.3.1-7.7 0-1.8 11.2-6.4 36.3-13.4 61.2 12.3 1.6 29.2 2.3 41.5-3.7 15.9-7.7 13.2-44.6 10.7-63.8z"/><path class="st7" d="M458.8 414.1c-8 2.3-16.2 3.3-23.2 3.6l-2.5 22.7 26.3-2.2c.2-8.8-.3-18.2-.6-24.1z"/><path class="st7" d="m433.1 440.4-3.1 27.8s21 2.1 26.4-10.2c2-4.4 2.8-11.8 3-19.7l-26.3 2.1z"/><circle class="st3" cx="445" cy="452.8" r="4.7"/><circle class="st3" cx="446.3" cy="428.8" r="4.7"/><path class="st9" d="M475.1 479.3c4.6 3.1 13.1 9.9 8.7 14.1-4.5 4.4-11.1-3-14-6.5-.9.8-1.8 1.5-2.8 2.1s-2 1-2.9 1.5l9.9 22c4-1.7 7.7-3.9 10.9-6.7 6.8-5.7 11.1-16 14-28.2l-22.8-1c-.2.9-.7 1.8-1 2.7z"/><path class="st9" d="M483.8 493.4c4.2-4.2-4.2-11-8.7-14.1-1.4 3.1-3.1 5.7-5.2 7.6 2.8 3.5 9.6 10.9 13.9 6.5zM493.9 463.1c.2-4.9-7.9-5.9-13.9-5.9-.2 3-.7 5.9-1.1 8.6 4.9 1.3 14.7 3.1 15-2.7z"/><path class="st9" d="M480 457.3c6 0 14.1.9 13.9 5.9-.3 5.9-10.1 4-15 2.8-.7 3.9-1.5 7.5-2.8 10.7l22.8 1c2.1-8.8 3.3-18.7 3.9-28.9l-22.5 1c.1 2.4 0 5-.3 7.5zM428.4 495.3c0 4.6-.7 10.6-4.6 10-4.1-.6-4.9-6.8-4.9-10.8-3.1-.3-6.1-.7-8.7-1.1-2.1 6.3-4.4 12.5-6.8 18.1 9.4 2.4 21.9 4.9 34.8 5.7l-2-21.8c-2.7.1-5.3.1-7.8-.1z"/><path class="st9" d="M423.8 505.4c3.9.5 4.6-5.5 4.6-10-3.3-.1-6.5-.5-9.6-.8.1 4 .7 10.2 5 10.8zM457 492.9c.2 4.2.1 12.2-4.2 12.2-4.5 0-6.9-6.9-7.7-10.1-3 .2-6 .5-9 .5l2 21.8c12.5.7 25.4-.2 36-4.8l-9.9-22c-2.3.9-4.7 1.8-7.2 2.4z"/><path class="st9" d="M452.8 505c4.4 0 4.5-7.9 4.2-12.2-3.8 1-7.8 1.7-11.9 2.1.8 3.4 3.1 10.1 7.7 10.1zM487.8 405.3c-.1-2.3-2.6-3.1-5.4-3.4-1.4 1.3-2.9 2.4-4.4 3.4.2 2.3.6 4.8.8 7.3 4.1-1.6 9.3-4.1 9-7.3z"/><path class="st9" d="M503.4 414.8c-.2-7.8-.7-15-1.1-21.6-3.2-2.1-6-4.6-8.5-7.5-2.6 6.5-6.5 11.7-11.4 16 2.8.3 5.2 1.1 5.4 3.4.2 3.2-4.8 5.9-8.8 7.3.2 2.2.5 4.4.6 6.7l23.8-4.3zM492.4 432.3c0-4.1-6.9-4.6-12.3-4.2.2 4 .3 8 .5 12.1 4.7-1.3 11.8-3.5 11.8-7.9z"/><path class="st9" d="m503.4 414.8-23.9 4.4c.2 2.9.5 5.7.6 8.7 5.4-.3 12.3.1 12.3 4.2 0 4.5-7 6.8-11.8 7.8 0 3.2 0 6.4-.1 9.6l22.5-1c.7-11.2.7-22.9.4-33.7z"/><path class="st6" d="M541.3 472c-4.2 2.8-9.4 4.2-14.8 4.2-1 0-2 0-2.9-.1-1.3 7.6-4 19.3-10.2 31.1 2.1 1.8 4.4 3.9 6.7 6l27.2-40.9c-2.4-.1-4.5-.2-6-.3z"/><path class="st0" d="M568.5 470s-12.2 17.4-12.2 22.6c0 5 18.2 6 23.3 1.8s1.5-27.3 1.5-27.3l22.6-4.9s2.5 24 8.4 24.8c5.9.8 15.3-6.4 15.3-11.2s-15-20-15-20L568.5 470z"/><circle class="st4" cx="283" cy="598.2" r="7.5"/><circle class="st4" cx="322.6" cy="598.2" r="7.5"/><path class="st6" d="M545.9 403.5s56.6 6.3 65.8 20.2c9.2 13.9 13.8 28.9-6.3 40.7s-68.3 7.2-68.3 7.2l-8-60 16.8-8.1z"/><path class="st3" d="M544.1 411.6s54.3 8.8 60.3 19.5-.6 22.6-13.2 28.7-47.1-1.5-47.1-1.5"/><path class="st3" d="M541.1 429.3c3.8-1.8 51.2 1.8 49.2 11.5s-41.7 3.1-41.7 3.1l-7.5-14.6zM576.9 432.5l4.2-12.6"/><circle class="st3" cx="564.7" cy="454.2" r="3.8"/><circle class="st3" cx="590.3" cy="451.4" r="3.8"/><circle class="st3" cx="594.1" cy="432.5" r="3.8"/><circle class="st3" cx="565.8" cy="423.7" r="3.8"/><path class="st0" d="M522 323.5s-26.2-33.3-18.4-52.8c7.8-19.5 49.9-36.2 55.1-43 5.2-6.9 5.2-18.4 0-28.1-5.2-9.8-20.7-14.3-20.1-24.7.6-10.3 8.6-17.2 14.3-18.4 5.7-1.1 11.5 2.9 10.9 8.6 9.2-8 33.9-20.1 47.6-14.9s23.5 18.9 23.5 28.1c0 9.2-13.2 18.4-17.8 17.2-4.6-1.1 3.4-10.9 1.7-15.5s-12.6-2.9-18.4 3.4c-5.7 6.3.6 33.3-6.9 44.2s-70.6 43-70.6 49.4 15.5 46.5 15.5 46.5H522z"/><path class="st3" d="M563.9 165.1c0 9-13 12.9-13 4.8"/><circle class="st9" cx="526.4" cy="448.3" r="27.9"/><circle class="st3" cx="526.4" cy="448.3" r="14.7"/><circle class="st3" cx="526.4" cy="448.3" r="6.5"/><path class="st5" d="m546.7 383.4-49.4 2.6s-3.4 15.4-4.6 25.9l61.3-.9c-1.8-10.9-7.3-27.6-7.3-27.6z"/><path class="st9" d="M513.3 411.7v11.9c4.2.1 8.7 0 13.1-.1v-12.1l-13.1.3zM492.8 411.9c-.6 4.8-.6 8.6.3 9.6.8.8 4.7 1.4 10.2 1.7l-.2-11.5-10.3.2z"/><path class="st9" d="m503.1 411.8.2 11.5c3 .2 6.3.3 10 .3v-11.9l-10.2.1zM553.9 411l-14.5.2.8 11.6c7.2-.7 12.6-1.7 13.5-3.1 1-1.3.9-4.7.2-8.7z"/><path class="st9" d="M526.4 411.5v12.1c4.9-.1 9.8-.3 14-.8l-.8-11.6-13.2.3z"/><path class="st6" d="M528.9 356.5v-37.8c-1.5-.1-2.9-.2-4.4-.2-1.3 0-2.4.1-3.7.1v37.8l8.1.1z"/><path class="st6" d="M520.9 318.8c-19.9 1.7-35.6 17.8-37 37.8h37v-37.8zM520.9 356.5h8v8h-8zM565.1 356.5c-1.3-19.7-16.6-35.7-36.2-37.8v37.8h36.2zM484.2 364.5c2.4 18.7 17.7 33.5 36.6 35.1v-35.1h-36.6zM565.1 356.5h-36.2v8h35.9c.2-1.7.3-3.6.3-5.4.1-.8.1-1.7 0-2.6z"/><path class="st6" d="M520.9 356.5h-37c-.1.9-.1 1.8-.1 2.6 0 1.8.1 3.6.3 5.4h36.6l.2-8zM528.9 399.7c18.6-2 33.5-16.5 35.9-35.1h-35.9v35.1z"/><path class="st6" d="M520.9 364.5v35.1c1.1.1 2.4.1 3.7.1 1.5 0 3-.1 4.4-.2v-35.1l-8.1.1z"/><circle class="st3" cx="504.1" cy="338.3" r="4.5"/><circle class="st3" cx="546.8" cy="339.1" r="4.5"/><circle class="st3" cx="546.8" cy="378.8" r="4.5"/><circle class="st3" cx="503" cy="379.9" r="4.5"/><circle class="st5" cx="524.6" cy="359.3" r="19.5"/><circle class="st11" cx="524.6" cy="359.3" r="8.1"/><path class="st5" d="M522 189.7c-17.1 0-31 13.9-31 31 0 16.9 13.4 30.5 30.2 31 9.8-7 21.1-13.1 28.9-17.8 1.8-4 3-8.5 3-13.2-.1-17.1-14-31-31.1-31z"/><path class="st8" d="M532.4 215.2c0-5-4.6-14.6-10.3-9.4-3 2.6-7.3 8.8-10.8 14.2l13.1 10.6c3.8-4.1 8-11.1 8-15.4z"/><path class="st13" d="M511.2 220c-3.3 5-5.9 9.3-5.9 9.3s12.3 6.7 16.6 3.4c.7-.6 1.5-1.3 2.3-2.2l-13-10.5z"/><path class="st3" d="M505.4 229.3s10.9-18.4 16.6-23.5c5.7-5.2 10.3 4.4 10.3 9.4s-6 14.2-10.3 17.6c-4.3 3.2-16.6-3.5-16.6-3.5z"/><path class="st9" d="M517.4 211.1c-2.4 3.1-4.9 6.9-7 10.2 1.1 2.1 3.4 3.4 6 3.4 3.8 0 6.9-3.1 6.9-6.9-.1-3.4-2.6-6.1-5.9-6.7z"/><path class="st3" d="m702.7 142.3-81.6 13.1M700.2 168.5l-67.1-.7M699.7 198.6s-45.1-5.3-64.6-18M628.4 190.3l61.4 34.5"/><circle class="st5" cx="425.2" cy="159.2" r="9.3"/><path class="st13" d="M576.5 280.8c0 3.1 6.5 12.3 21.5 13.8h.1l-.1-25.5c-10.2 4.1-21.5 9.8-21.5 11.7z"/><path class="st8" d="M612.9 264.7c-2.8 0-8.6 1.8-14.9 4.4l.1 25.5c14.8 1.5 22.8-2.5 25.1-11.9s-3-18-10.3-18z"/><path class="st3" d="M576.5 280.8c0 3.1 6.5 12.3 21.5 13.8s23-2.5 25.2-11.9-3.1-17.9-10.3-17.9c-7.2-.1-36.4 13-36.4 16z"/><path class="st9" d="M605.2 266.4c-3.4 1.1-7.3 2.6-11.2 4.2-.3.9-.6 2-.6 3 0 4.5 3.7 8.1 8.1 8.1s8.1-3.7 8.1-8.1c.1-3.1-1.7-5.8-4.4-7.2z"/><path class="st6" d="M727.2 319.7c-2.3-2.2-7.3 1-9.5-1.1-1.3-1.3.2-4.8-2.1-9.4-1.7-3.4-7.6-7.9-7.5-9.6.3-4.2 13-7.9 13-11.8 0-3.9-11.5-14.5-14.9-14.6-2.4 0-15.4 12.2-23 19.5 7.2 4.6 13.8 10 15.6 20.7S682 331.5 669 332.8c-13 1.1-19.9-11-17.2-20.7.1-.3.2-.6.2-.8-10 2.9-31.4 9.1-32 10.4-.8 1.7 6.1 21.8 9.2 21.8s14.1-6.8 14.1-6.8 1.5 4.4 4.6 8.4c3.1 4 10.6 3.7 10.6 3.7s-6.7 4.6-7.5 7.5c-.8 2.9 3.4 10.6 6.1 11.7 2.6 1.1 16.9-11.7 16.9-11.7s5.7 20.4 9.5 21.9c3.8 1.4 22.5-11.6 22.2-13.3-.3-1.6-9.1-20.4-6.8-20.3s14.1 14.6 16.4 15.7c2.3 1.1 13-10.7 12.2-13.8-.8-3-16.9-11.8-16.9-11.8s17.2-1.4 19.2-3.4-.3-9.5-2.6-11.6z"/><path class="st3" d="m705.1 339.8 17.7 15.2M629.7 331.6s12.6-7.2 14.9-5.9c2.3 1.4 6.7 13.7 12.6 14.6 6 .9 24.9-1 32.9-5.6s16.4-10.2 18-16.2c1.5-6-11.2-20.2-11.2-23.6 0-3.4 12.7-12.4 12.7-12.4M686 351.2l10.5 21.5"/><path class="st0" d="M708.2 428.8s-24.1 8.3-24.1 14.1c0 5.9 9.4 16.3 15 16.3s14.3-21.9 14.3-21.9l14.2 12.3s-6.5 11.5-5.4 17.6c1.1 6.1 14.2 7.3 18.8 3.7 4.6-3.7-1.1-19.4-1.1-19.4l-31.7-22.7z"/><path class="st6" d="M715.1 413c-10 2.4-11.5 12.2-8.8 20.4 2.6 8.3 25.8 25.6 34.1 23.4 8.3-2.1 15-12.6 12.3-18.7-2.9-5.8-27.6-27.5-37.6-25.1z"/><path class="st3" d="M733.7 427.1s-15.6-10.6-19.9-3.4 24.4 29.4 30.2 22c5.7-7.4-10.3-18.6-10.3-18.6z"/><path class="st9" d="M824.4 329.3c2.3-3.6-3.1-9.8-6.5-9.8-1.1 0-6.7 5.5-13.2 12.7l9.1 9.3c5.6-6.1 10-11 10.6-12.2z"/><path class="st0" d="M804.7 332.3c-12.3 13.4-28.5 32.6-28.5 32.6l7.2 10c.6-.8 18.2-20 30.2-33.3l-8.9-9.3z"/><path class="st0" d="M727.2 393.2c-2.3 9.9-4.9 29.3-3.4 33.5 1.5 4.2 9.9 11.6 12.2 11.4s9.2-9.3 9.2-9.3l23.8-14 12.6-52.1s10.6-12.2 19.2-22.2l-10.2-9.2c-20.9 18.3-61.5 54.4-63.4 61.9z"/><path class="st9" d="M802.3 320.8c-1 1-5.5 4.9-11.8 10.4l10.2 9.2c5-5.9 9.4-10.9 10.7-12.4 3.5-3.9-5-11.4-9.1-7.2z"/><path class="st0" d="M750.7 399.9s14.1-11.6 12.3-16.5c-2-4.9-19.2-17.2-20.3-20.7-1.1-3.4 24.4-29 26.4-27.2 1.8 2 18.7 18.4 21.5 30.2 2.6 11.8 1.5 21-3.8 33.6-5.5 13.2-29.8 30.9-41.3 29.4"/><path class="st9" d="M769 335.5c-1.8-2-27.5 23.8-26.4 27.2.5 1.3 2.9 3.6 6 6.3l26.4-27.2c-3-3.3-5.4-5.6-6-6.3z"/><path class="st3" d="M746.2 357s18.4 14.9 23.5 23M752.6 350.1s18.4 14.9 23.5 23M759.1 342.4s18.4 14.9 23.5 23"/></svg>