<svg version="1.1" id="Calque_1" xmlns="http://www.w3.org/2000/svg" x="0" y="0" viewBox="0 0 900 900" style="enable-background:new 0 0 900 900" xml:space="preserve"><style>.st0{fill:red;stroke-width:4.7431}.st0,.st1,.st2{stroke:#000;stroke-linecap:round;stroke-linejoin:round;stroke-miterlimit:10}.st1{fill:#ffce00;stroke-width:4.7431}.st2{fill:none}.st2,.st3,.st4{stroke-width:4.7431}.st3{fill:#fff;stroke:#000;stroke-linecap:round;stroke-linejoin:round;stroke-miterlimit:10}.st4{fill:#003ec9}.st4,.st6,.st7{stroke:#000;stroke-linecap:round;stroke-linejoin:round;stroke-miterlimit:10}.st6{fill:#0b4c00;stroke-width:4.7431}.st7{stroke-width:1.9763}</style><path class="st0" d="M563.9 756.7s-15-4-21.3.8c-6.3 4.7 0 25.7 0 25.7s16.6 10.7 20.6 4.3c3.9-6.3.7-30.8.7-30.8zM461.2 746.4s-13.4-4-18.2 0-1.2 19.8-1.2 19.8l5.1 7.9 19.8-7.9-5.5-19.8z"/><path class="st1" d="M559.2 671.3s-2.4 109.1 0 117 29.2 7.9 37.2 2.4c15-22.9 15.8-120.9 15.8-120.9l-53 1.5z"/><path class="st1" d="M524.4 813.6s-7.1 3.2-9.5 6.3c-2.4 3.2 2.4 8.7 2.4 8.7s-6.3 7.1 1.6 10.7l7.9 3.6 57.7-17.4-4.7-29.2-33.2-7.1-22.2 24.4z"/><path class="st2" d="m526.8 825.5-9.5 3.2"/><path class="st1" d="M520.5 672.1c-.8 11.9-19.8 82.2-22.9 100.4-7.1 4.7-30 5.5-30 5.5s-7.1-.8-11.1-7.1c-.8-38.7 7.5-96 7.5-96l31.2-10.7s26-3.9 25.3 7.9zM407.4 797s-4.7 7.1-2.4 10.3c-3.2 4 0 10.3 0 10.3s-3.2 6.3 4 10.3 30-1.6 30-1.6l41.1-14.2 4.7-21.3-17.4-8.7-7.1-4.7-11.9-7.1-41 26.7z"/><path class="st2" d="m405 817.6 18.2-4M405 807.3l17.4-4.7"/><path class="st3" d="m570.9 802.8 6.4 21.9s19.8-4 25.3-10.3c.8-15-6.3-23.7-6.3-23.7l-26.1.8.7 11.3zM497.5 772.5c6.3 4.7 6.3 15.8 5.5 26.1-.8 10.3-26.1 19-26.1 19l-.8-8.7-4-19-4.7-11.9c.1.1 23-3.1 30.1-5.5z"/><path class="st0" d="M539.4 787.5s-22.1 15.8-21.3 20.6c.8 4.7 8.3 11.9 8.3 11.9l22.5-25.3-9.5-7.2z"/><path class="st2" d="m546.5 789.1-24.1 21.8"/><path class="st0" d="M437.5 771.7c-6.3-.8-33.6 2.4-36 6.3-2.4 4 1.2 18.2 5.9 22.1 6.3-3.2 37.9-17.4 37.9-17.4s-1.5-10.2-7.8-11z"/><path class="st2" d="M446.9 774.9s-32.4 6.3-42.7 12.6"/><path class="st0" d="m548.9 794.7 22.9 7.9s3.6-6.7 1.2-10.7-17.8-7.5-17.8-7.5l-6.3 10.3zM449.3 778.9c7.9 3.2 22.9 11.1 22.9 11.1s3.2-8.7 0-12.6c-3.2-4-19-7.9-19-7.9s-3.9 6.2-3.9 9.4z"/><path class="st0" d="M545 778.9c-3.2 0-7.1 5.5-5.5 8.7 1.6 3.2 6.3 7.1 9.5 7.1s7.1-7.1 6.3-10.3-7.2-5.5-10.3-5.5zM437.5 771.7c-.8 4 4.7 11.1 7.9 11.1s12.6-7.9 11.1-11.9c-1.6-4-8.7-6.3-12.6-5.5-4.1.8-5.7 2.4-6.4 6.3z"/><path class="st3" d="M518.9 839.3s-1.6 10.7 3.2 10.7c4.7 0 79.8-23.7 80.6-26.1.8-2.4 0-9.5 0-9.5l-83.8 24.9zM503.1 798.6c2.4 1.6 6.3 12.6 1.6 15.8-4.7 3.2-85.8 26.1-91.3 24.5-5.5-1.6-4.3-11.1-4.3-11.1s76.6-19.7 94-29.2z"/><path class="st4" d="M303.1 248.4h64v21.3h-64zM297.5 196.2h75.1v15h-75.1z"/><path class="st4" d="M367.1 179.6 355 142l11.3-.3-32.4-41.9-29.3 43.5 16.1-.4-12.9 36.7h15v34.8h25.3v-34.8z"/><path class="st4" d="M335.9 204.5c-14 0-25.3 11.3-25.3 25.3s11.3 25.3 25.3 25.3 25.3-11.3 25.3-25.3c0-13.9-11.4-25.3-25.3-25.3zm0 36c-5.9 0-10.7-4.8-10.7-10.7s4.8-10.7 10.7-10.7c5.9 0 10.7 4.8 10.7 10.7s-4.8 10.7-10.7 10.7z"/><path class="st3" d="m290.4 265.8 25.3 50.6 8.7 22.1v29.2l-20.6 53.8 87.7-1.6-25.7-48.6s6.7-23.3 6.7-25.7c0-2.4-11.1-33.2-11.1-33.2l22.9-47.4-93.9.8z"/><path class="st3" d="m314.9 333.8-56.9 1.6.8 16.6 60.9-.8z"/><path class="st1" d="m542.6 486.4 18.2-22.1 3.2-27.7-6.3-47.4-1.6-23.7 17.1-6.8-36.8-115.8-83.8 2.4s0 9.5-.8 17.4c-.8 7.9 1.6 34 1.6 34s21.3-4 19.8 7.9c-4-.8-22.1.8-22.1.8s-2.4 5.5 0 8.7c7.1 4 12.6 15.8 15.8 16.6 3.2.8 26.9 0 26.9 0l-8.7 33.2s-78.3-12.6-90.1-22.1c-11.9-9.5-21.3-27.7-42.7-36.4-4.7-1.6-10.3 4.7-7.9 12.6 2.4 7.9 13.4 13.4 19.8 19-2.4 11.1-2 31.2 2 34.4s13-2.4 17.8-1.6c4.7.8 19 15.4 30 16.2 11.1.8 45.1 8.7 58.5 17.4 4 7.9 7.9 21.3 7.9 21.3l-6.3 31.6 25.3 36.4-.7 3.5 14.1-.3 29.8-9.5z"/><path class="st3" d="m613.7 505.3-15.8-65.6-22.9-75.1-1.9-5.9-17.1 6.7 1.6 23.7 6.3 47.5-3.1 27.6-18.2 22.2-30 9.4-14.2.4-4 21.8z"/><path class="st2" d="m318.9 420 12.6-38.4M344.2 420l-1.6-37.2M368.7 419.2 358.4 382"/><path class="st1" d="M315.7 316.4c-3.2 0-4 13.4-.8 17.4-2.4 2.4-2.4 8.7.8 10.3-4 4-3.2 12.6.8 13.4-.8 3.2 1.6 7.9 4 9.5 2.4 1.6 9.5 2.4 11.9 1.6 2.4-.8 4-6.3 4-6.3s5.5 0 4.7-5.5c7.9-5.5 6.3-10.3 6.3-10.3s5.5-8.7 4-13.4c-.7-2.1-8.6-4.6-16-7.9-9.1-4.1-18-8.8-19.7-8.8z"/><path class="st2" d="M341 356.7c-20.6-8.7-25.3-12.6-25.3-12.6M336.3 362.3c-11.1-2.4-19.8-4.7-19.8-4.7M347.3 346.4c-3.2 0-26.1-8.7-32.4-12.6"/><path d="m484.9 363.8 8.7-33.2s0-19 .8-21.3c.8-2.4 22.9-1.6 25.3.8 2.4 2.4-1.6 25.3-2.4 28.5-.8 3.2-6.3-.8-11.9 3.2-5.5 4-15 28.5-15 28.5l-5.5-6.5" style="stroke:#000;stroke-width:4.7431;stroke-linecap:round;stroke-linejoin:round;stroke-miterlimit:10"/><circle class="st6" cx="482.5" cy="380.4" r="16.6"/><circle class="st6" cx="482.5" cy="413.6" r="14.2"/><circle class="st6" cx="514.9" cy="492.7" r="15"/><circle class="st6" cx="545.8" cy="486.4" r="15"/><circle class="st6" cx="563.9" cy="459.5" r="15"/><circle class="st6" cx="565.5" cy="428.7" r="15"/><circle class="st6" cx="565.5" cy="396.2" r="15"/><circle class="st6" cx="483.7" cy="439.1" r="12.1"/><path class="st3" d="m620.9 557.5-94.9-7.1-64 8.7-8.1 66.6 180.2-8.8c-6.1-29.2-13.2-59.4-13.2-59.4z"/><path class="st0" d="M462 559.1h165.2s-.5-6-1.7-14.2H470.1l-8.1 14.2zM613.7 505.3c-4 0-121.7 1.6-121.7 1.6l-9.1 15.8H621c-1.9-6.7-4.3-13.1-7.3-17.4z"/><path class="st3" d="m524.5 522.7 14.1 22.2h14.2l-14.1-22.2z"/><path class="st3" d="m512.6 522.7 14.1 22.2h11.9l-14.1-22.2zM486.9 522.7l14.2 22.2h12.6l-14.2-22.2z"/><path class="st3" d="m482.9 522.7-12.8 22.2h31l-14.2-22.2zM499.5 522.7l14.2 22.2h13l-14.1-22.2zM538.7 522.7l14.1 22.2h14.3l-14.2-22.2zM577.4 522.7l14.2 22.2h10.6l-14.1-22.2zM608.6 522.7h-9.4l14.1 22.2h9.5z"/><path class="st3" d="M625.4 544.9c-1-6.6-2.5-14.7-4.5-22.1h-12.3l14.2 22.1h2.6zM588.1 522.7l14.1 22.2h11.1l-14.1-22.2zM566 522.7l14.1 22.2h11.5l-14.2-22.2z"/><path class="st3" d="m552.9 522.7 14.2 22.2h13L566 522.7zM467.5 265.4c1.6 5.1 12.6 5.9 32.4 1.2-15.8-13.4-34-6.3-32.4-1.2z"/><circle class="st2" cx="480.5" cy="264.6" r="4.7"/><path class="st1" d="M452.5 245.3s0 9.5-.8 17.4c-.8 7.9-16.2 21.7-14.6 24.1 1.6 2.4 25.7-.4 25.7-.4s4-7.9-4-11.1"/><path class="st3" d="m558.4 255.5-11.9-19.7-33.9 11.8 1.5 38.8h12.7l20.6 75.7L598 344z"/><path class="st3" d="m547.4 362.1 3.1 11.2 52.2-19L598 344z"/><path class="st2" d="M534.7 250.8 575 363"/><path class="st6" d="M633.5 77.7s-12.6 36.4-31.6 40.3-27.7 2.4-36.4 5.5c-5 1.8-20.8 12.3-33.3 20.9l33.9 13.7c4.2-4.6 9.8-9.5 16.8-12.5 16.6-7.1 38.7-15.8 46.6-28.5 8-12.6 4-39.4 4-39.4z"/><path class="st3" d="m515.7 155.9-4 28.5 31.6 6.3 14.2-20.6s2.9-5.8 8.5-12l-33.9-13.7c-9 6.3-16.4 11.5-16.4 11.5z"/><path class="st6" d="M603.5 63.4c-12.6 5.5-32.4 27.7-32.4 27.7L505.5 129l-2.4 3.6 35.5 14.3c8.8-8.4 19.3-18 26.7-23.4 15-11.1 34.4-26.9 37.5-34s3-15.8.7-26.1z"/><path class="st3" d="m484.9 159.1 11.9 25.3L522 163s7.3-7.4 16.4-16.1L503 132.6l-18.1 26.5z"/><path class="st3" d="M473.8 144.9c-7.1 14.2 1.6 26.9 1.6 26.9l14.2 15.8 15-10.3 3.2-29.2s2.6-1.4 6.8-4l-26.7-15c-6.5 5.2-11.6 10.7-14.1 15.8z"/><path class="st6" d="M571.1 50c-6.3 24.5-18.2 47-40.3 54.9-14.3 5.1-30.9 14.3-42.8 24.1l26.7 15c7.8-4.8 21.3-13.8 35.1-26 21.3-19 32.3-38 21.3-68z"/><path class="st3" d="M451.7 178.9s4-30.8 7.9-33.2 19.8-1.6 22.9.8 7.9 34 7.9 34 12.6-31.6 17.4-32.4c4.7-.8 19.8 3.2 22.1 7.1 2.4 4-7.1 27.7-7.1 27.7l11.9 2.4s7.9-20.6 10.3-23.7c2.4-3.2 18.2.8 19 4 .8 3.2.8 19.8.8 19.8L541 197.8l-89.3-18.9z"/><path class="st7" d="m465.1 169.8 6.3-15.5 4 17.4zM507 171.7l8.7-15.8.8 18.2zM545.8 178.9l7.9-11.9 2.3 14.2z"/><path class="st3" d="M566.5 199.5c-10.1-1.7-42.5-6-118.7-8.6-2.6 10.7-4.7 27.5.2 46.7 73.3 2.5 104.8 7 115.8 9 1.8-10.7 4-28.3 2.7-47.1z"/><path class="st3" d="m476.8 238.8 4.5 10.4c6.4.4 13.2.9 20.2 1.5l-4.2-10.8c-6.4-.4-13.2-.8-20.5-1.1zM447.9 237.6c.9 3.8 2.2 7.7 3.8 11.6 2.5-.7 7.2-.9 13.4-.8l-5.5-10.4c-3.8-.1-7.6-.3-11.7-.4z"/><path class="st3" d="m459.6 238 5.5 10.4c4.7.1 10.2.3 16.2.7l-4.5-10.4c-5.4-.2-11.2-.4-17.2-.7zM497.3 239.9l4.2 10.8c7.2.6 14.6 1.3 21.5 2.1l-5.7-11.5c-6.1-.5-12.7-1-20-1.4z"/><path class="st3" d="m517.3 241.3 5.7 11.5c5.7.6 11.1 1.2 15.9 1.7l-5.7-11.8c-4.6-.5-10-1-15.9-1.4zM563.7 246.6c-2.9-.6-7.4-1.3-13.6-2.1l5.1 11.8c4 .5 6.3.8 6.3.8s1.1-3.9 2.2-10.5z"/><path class="st3" d="m533.3 242.6 5.7 11.8c6.7.8 12.3 1.4 16.3 1.9l-5.1-11.8c-4.6-.5-10.2-1.2-16.9-1.9zM478.6 179.8l8.3 12.8c7.2.4 13.8.8 19.9 1.1l-9.1-13.1c-6.8-.3-13.2-.6-19.1-.8z"/><path class="st3" d="m458.6 179.1 8.2 12.6c7.2.3 13.8.6 20.1.9l-8.3-12.8c-8.2-.3-15.2-.6-20-.7z"/><path class="st3" d="M451.7 178.9s-2.1 4.5-3.9 12.1c6.7.2 13 .5 19.1.7l-8.2-12.6c-4.4-.2-7-.2-7-.2zM540 183c-7.5-.5-15.7-1-23.8-1.5l11.4 13.7c8.9.7 16.2 1.4 22 2.1L540 183z"/><path class="st3" d="m497.7 180.6 9.1 13.1c7.7.5 14.7 1 20.8 1.5l-11.4-13.7c-6.2-.3-12.5-.6-18.5-.9zM566.5 199.5c-.4-4.7-.9-9.5-1.7-14.3-6.5-.8-15.1-1.5-24.7-2.2l9.5 14.3c8.3.9 13.7 1.7 16.9 2.2z"/><path class="st7" d="M463.1 202.6c-1.2 4.7-2 22.9 2 26.9 5.5-4.5 16.6-11.1 16.6-11.1s-12.6-12.7-18.6-15.8zM502.7 206.5c-1.2 4.7-2 22.9 2 26.9 5.5-4.5 16.6-11.1 16.6-11.1s-12.7-12.6-18.6-15.8zM536.7 211.3c-1.2 4.7-2 22.9 2 26.9 5.5-4.5 16.6-11.1 16.6-11.1s-12.7-12.7-18.6-15.8zM526.8 262.6l-1.6 14.3 9.5-2.4zM537.1 289.5l2.3 19 8.7-2.4zM547.7 319.6l2 24.5 7.9-2.8zM552.5 268.2l2 18.2 8.6-3.2zM563.9 296.6l1.6 18.2 7.9-3.1zM574.2 319.6v18.1l11.1-3.1z"/><ellipse class="st4" cx="428.4" cy="499.8" rx="71.5" ry="68.4"/><path class="st3" d="M428.4 444.5c-20.3 0-38.2 10.1-48.4 25.3h96.8c-10.3-15.3-28.1-25.3-48.4-25.3z"/><path class="st0" d="M379.9 469.8c-5.7 8.5-9.1 18.7-9.1 29.6 0 30.4 25.7 54.9 57.5 54.9s57.5-24.6 57.5-54.9c0-10.9-3.3-21.1-9.1-29.6h-96.8z"/><path d="M400.7 547.6c8.2 4.3 17.6 6.8 27.7 6.8 11 0 21.3-3 30-8.1v-29.8h-57.7v31.1h0z" style="fill:#494949;stroke:#000;stroke-width:4.7431;stroke-linecap:round;stroke-linejoin:round;stroke-miterlimit:10"/><path class="st1" d="M400.7 501h57.7v15.4h-57.7z"/><path class="st4" d="M458.4 490.7c0-3.7-3-6.7-6.7-6.7h-44.3c-3.7 0-6.7 3-6.7 6.7V501h57.7v-10.3z"/><path class="st2" d="M420.9 526.7v25.7M438.6 526.7V552"/><path class="st0" d="m634.1 617-180.2 8.8-1.9 15.9 185.5-7.5c-1.1-5.6-2.3-11.4-3.4-17.2zM450.1 656.1l-2.4 20s167.6-4 193.7-5.5c1.1-1.7.5-9.3-1.1-19.8l-190.2 5.3z"/><path class="st3" d="m496.2 639.8 8.4 14.8 22.7-.6-8.6-15.1zM518.7 638.9l8.6 15.1 18.5-.6-8.8-15.2zM477.1 640.6l7.8 14.5 19.7-.5-8.4-14.8z"/><path class="st3" d="m537 638.2 8.8 15.2 22.2-.6-9.2-15.5zM451.9 641.6l-1.8 14.5 16.5-.4-7.4-14.4zM459.2 641.3l7.4 14.4 18.3-.6-7.8-14.5zM640.3 650.8c-.8-5-1.7-10.7-2.9-16.7l-13.6.6L632 651l8.3-.2zM558.8 637.3l9.2 15.5 19.2-.5-7.9-15.8z"/><path class="st3" d="m623.9 634.7-14.6.6 6.6 16.2 16.1-.5zM579.3 636.5l7.9 15.8 15-.4-7.2-16.1z"/><path class="st3" d="m595 635.8 7.2 16.1 13.7-.4-6.6-16.2z"/></svg>