<svg version="1.1" id="Calque_1" xmlns="http://www.w3.org/2000/svg" x="0" y="0" viewBox="0 0 900 900" style="enable-background:new 0 0 900 900" xml:space="preserve"><style>.st0{fill:red}.st1{fill:#fff}.st2{fill:none}.st3{fill:#ff7300}.st4{fill:#0068b5}.st6{fill:#ffce00}</style><g id="XMLID_399_"><path id="XMLID_922_" class="st0" d="m314 813.9 107.3-120.5-16.4-160.7L379 537s-14.3 9.5-18 18-25.9 27.5-22.2 30.1 21.7-25.4 23.3-19.6c1.6 12.7-14.3 30.7-14.3 30.7s-1.1 7.4 0 5.8c1.1-1.6 16.9-18.5 17.4-13.7.5 4.8-10 9-10.6 16.9s-.5 6.9-4.2 7.9c-3.7 1.1-23.8 28.5-26.4 33.8-2.6 5.3-1.6 7.4 3.2 8.5 4.8 1.1 5.8-20.1 15.9-29.6 3.7-1.6 0 15.3-1.6 22.2-1.6 6.9-12.7 15.3-10 17.4s11.6-10 12.7-5.3c1.1 4.8-4.8 7.9-10.6 9.5-5.8 1.6-18.5 9.5-18.5 13.7s20.1-13.2 20.1-10-17.4 12.2-14.3 13.7c3.2 1.6 18.5-11.6 16.9-5.8-1.6 5.8-7.9 4.2-14.3 10-6.3 5.8-30.7 26.4-28.5 31.2s20.1-24.3 26.4-22.7c6.3 1.6-11.1 15.9-15.9 20.6-4.8 4.8-16.9 24.3-14.8 25.9s15.9-23.3 17.4-18.5-23.3 38.1-24.8 42.8c-1.6 4.8-1.6 15.9 2.1 15.9s7.9-6.3 4.8-16.9c.5-2.6 30.7-53.9 34.4-55s5.8 3.2 3.7 9c-2.1 5.8-7.4 6.3-11.1 11.6-1.6 2.3-3.8 10.3-7.8 17-5.1 8.4-11.9 15.6-10.7 17.3 2.1 3.2 10.6-5.3 10-1.1s-19 23.8-25.4 32.2-29.1 10.6-31.7 12.2c-2.6 1.6 2.1 3.7.5 5.3-1.6 1.6-10.6.5-12.2 3.2-1.6 2.6 3.7 0 3.2 2.6s-10.6 6.9-7.4 9.5c3.2 2.6 13.2-11.6 15.9-10 2.6 1.6-2.6 11.6 1.1 11.1s1.6-9.5 4.2-11.1c2.6-1.6 9-5.3 11.6-4.8 2.6.5-4.8 8.5-2.6 9.5 2.1 1.1 8.5-14.8 11.1-10.6 0 3.2-2.6 9.5-4.2 12.2-1.6 2.6-12.2 4.8-13.7 7.4-1.6 2.6-3.2 8.5-.5 8.5 2.6 0 4.2-7.4 6.9-6.3 2.6 1.1 5.3 9.5 9 8.5 3.7-1.1.5-7.9 4.2-9.5 3.7-1.6 7.9-6.3 7.4-11.6 3.7-3.7 5.8-12.2 8.5-10.6 2.6 1.6-2.6 22.7-1.1 27s4.2 9.5 6.9 9c2.6-.5 4.2-1.1 4.2-5.3s-5.3-4.8-5.8-8.5-1.1-15.9 1.6-15.3c2.6.5 3.7 15.3 7.9 16.4 4.2 1.1 3.7-.5 3.7-2.6s-4.8-5.3-4.2-12.2c.4-6.9 6.2-10.6 6.2-10.6zm-37.5-1c-1.6-2.1 7.9-9.5 9-6.3 1 3.1-7.4 8.4-9 6.3zm3.7 11.6c-1.1-3.2 5.8-13.7 8.5-12.2 2.6 1.6-7.4 15.4-8.5 12.2z"/><g id="XMLID_397_"><path id="XMLID_390_" class="st1" d="m389.6 565-1.1-27 59.7 5.3 119.4 4.8s66.1 4.2 68.2 6.9c2.1 2.6-4.8 84.6-4.8 84.6l-14.8 9-130-20.6-96.6-63z"/><path id="XMLID_394_" d="M616.3 651.1h-.4l-130-20.6c-.4-.1-.7-.2-1-.4l-96.7-62.9c-.7-.5-1.2-1.3-1.2-2.1l-1.1-27c0-.8.3-1.5.8-2 .6-.5 1.3-.8 2.1-.7l59.7 5.3 119.4 4.8c.2 0 16.8 1.1 33.4 2.5 34.7 2.9 35.7 4.2 36.7 5.4 1 1.2 2 2.5-1 45.1-1.4 20.6-3.2 41.1-3.2 41.3-.1.8-.5 1.6-1.3 2l-14.8 9c-.4.2-.9.3-1.4.3zm-129-25.7 128.5 20.4 12.8-7.8c2.4-28.6 5.6-73.3 5-81.1-6.2-1.6-37.8-4.3-66.1-6.1L448.2 546h-.1l-56.7-5 .9 22.6 95 61.8z"/></g><path id="XMLID_916_" class="st1" d="m376.4 604.6-.5-47 102 22.2-1.1 37.5-69.2 11.6z"/><path id="XMLID_915_" class="st0" d="M443 570.3c3.7 2.1 3.7 24.8 6.3 24.3 2.6-.5 5.3-28.5 8.5-28s-2.1 36.5 3.2 35.9c5.3-.5 2.1-25.9 5.8-34.4 3.7-8.5-11.1-13.2-11.1-13.2l-17.4 6.3c-.1.1 1 7 4.7 9.1z"/><path id="XMLID_914_" class="st2" d="M457.8 566.6c-1.2-.2-2.3 3.4-3.3 8.1l4.4 1c0-5.2-.1-9-1.1-9.1z"/><path id="XMLID_913_" class="st0" d="M449.3 594.6c1.7-.3 3.3-11.7 5.2-19.9l-10-2.2c2.2 6.2 2.6 22.5 4.8 22.1z"/><path id="XMLID_912_" class="st0" d="M458.8 575.6c-.2 10.8-1.5 27.2 2.1 26.8 4-.4 3.2-14.8 4.1-25.5l-6.2-1.3z"/><path id="XMLID_391_" d="M407.6 631.6c-.6 0-1.2-.2-1.6-.6l-31.2-24.3c-.6-.5-1-1.3-1-2.1l-.5-47c0-.8.3-1.6 1-2.1.6-.5 1.4-.7 2.2-.5l102 22.2c1.2.3 2.1 1.4 2.1 2.7l-1.1 37.5c0 1.3-1 2.3-2.2 2.5L408 631.5c-.1.1-.3.1-.4.1zM379 603.3l29.3 22.8 65.9-11.1.9-33.2-96.6-21 .5 42.5z"/><g id="XMLID_389_"><ellipse id="XMLID_385_" transform="rotate(-84.255 542.133 335.667)" class="st0" cx="542.1" cy="335.7" rx="18.6" ry="23.5"/><path id="XMLID_386_" d="M543.3 356.9c-1.1 0-2.2-.1-3.3-.2-6.8-.7-13.1-3.5-17.6-7.8-4.7-4.5-6.9-10.2-6.3-15.9.6-5.8 3.9-10.8 9.4-14.3 5.3-3.4 11.9-4.8 18.8-4.1 14.4 1.4 25.1 12.1 23.9 23.7-.6 5.8-3.9 10.8-9.4 14.3-4.4 2.8-9.8 4.3-15.5 4.3zm-2.3-37.2c-4.7 0-9.1 1.2-12.6 3.5-4.1 2.6-6.5 6.3-7 10.4-.4 4.1 1.3 8.2 4.7 11.6 3.6 3.5 8.8 5.8 14.4 6.3 5.7.6 11.1-.6 15.4-3.3 4.1-2.6 6.5-6.3 7-10.4.9-8.7-7.7-16.8-19.2-17.9-.9-.1-1.8-.2-2.7-.2z"/></g><g id="XMLID_384_"><path id="XMLID_380_" class="st1" d="M378.5 662.8c2.6-47-12.2-62.4-12.2-62.4l110.5 14.3 1.6 61.3-61.8 9.5s-21.2-10.6-38.1-22.7z"/><path id="XMLID_381_" d="M416.6 688.1c-.4 0-.8-.1-1.2-.3-.2-.1-21.5-10.8-38.4-22.9-.7-.5-1.1-1.4-1.1-2.3 2.5-45-11.3-60.2-11.4-60.4-.8-.8-.9-2-.4-3s1.6-1.6 2.7-1.4L477.1 612c1.3.2 2.3 1.3 2.3 2.6l1.6 61.3c0 1.3-.9 2.5-2.2 2.7l-61.8 9.5h-.4zm-35.4-26.7c14.6 10.3 32 19.4 35.8 21.3l58.7-9-1.5-56.7-102.4-13.2c4.4 7.8 11 25.3 9.4 57.6z"/></g><g id="XMLID_379_"><path id="XMLID_372_" class="st1" d="M360 701.9c0-35.4-10.6-49.2-10.6-49.2s70.8 15.9 121 14.8c13.2 9.5-2.1 41.8-2.1 41.8l-87.7 11.1S360 737.3 360 701.9z"/><path id="XMLID_376_" d="M370.6 727c-1.5 0-3-.3-4.5-1-5.9-2.8-8.7-10.7-8.7-24.2 0-33.8-9.9-47.4-10-47.6-.7-.9-.7-2.1-.1-3 .6-.9 1.7-1.4 2.8-1.2.7.2 71.1 15.8 120.4 14.7.6 0 1.1.2 1.6.5 14.8 10.7-.6 43.6-1.3 45-.4.8-1.2 1.4-2.1 1.5l-87 11c-1.7 1.4-6.2 4.3-11.1 4.3zm-16-70.5c3.3 7.1 8.1 21.4 8.1 45.4 0 10.8 2 17.7 5.7 19.4 4.3 2 10.5-2.9 10.6-3 .4-.3.9-.5 1.3-.6l86.3-10.9c4-9.1 10.9-29.7 3-36.7-41.6.8-97.2-9.9-115-13.6z"/></g><path id="XMLID_373_" d="M506.9 679.7h-29.1c-1.5 0-2.6-1.2-2.6-2.6V656c0-1.5 1.2-2.6 2.6-2.6h29.1c1.5 0 2.6 1.2 2.6 2.6v21c.1 1.5-1.1 2.7-2.6 2.7zm-26.4-5.3h23.8v-15.9h-23.8v15.9z"/><path id="XMLID_890_" class="st0" d="M508.5 644.3s-3.2 34.4 2.6 32.8c5.9-1.7-2.6-32.8-2.6-32.8z"/><path id="XMLID_889_" class="st0" d="M520.7 599.9c4.8 1.1 3.7 19.6 7.4 18.5 3.7-1.1 0-15.9.5-18 5.8-1.1 3.7 21.7 7.9 20.6 4.2-1.1-3.2-31.7 1.1-33.3 4.2-1.6 8.5 26.4 10.6 27.5 2.1 1.1 5.8 1.6 6.3-3.7s-7.4-28-5.3-30.1c2.1-2.1 5.3 7.9 9 6.3 3.7-1.6-1.6-10-.5-12.2 1.1-2.1 9.5 2.1 10.6-3.2 1.1-5.3-9.5-12.7-9.5-12.7l-38.6 1.1-13.7 24.3c-.1.1 9.4 13.8 14.2 14.9z"/><g id="XMLID_371_"><path id="XMLID_367_" class="st1" d="M339.4 746.3c2.6-33.8-9.5-52.9-9.5-52.9s65.5 15.9 136.9 11.6c24.3 10 1.6 52.3 1.6 52.3l-60.3 5.3s-71.3 17.5-68.7-16.3z"/><path id="XMLID_368_" d="M372.2 769.8c-11.3 0-22.4-1.8-29.1-7.4-4.7-4-6.8-9.5-6.3-16.3 2.5-32.6-9-51-9.1-51.2-.6-.9-.6-2.1.1-3 .6-.9 1.7-1.3 2.8-1 .7.2 66 15.7 136.1 11.6.4 0 .8 0 1.2.2 5.6 2.3 9.4 6.3 11.3 11.8 6.1 17-7.8 43.1-8.4 44.3-.4.8-1.2 1.3-2.1 1.4l-60.1 5.3c-2.4.3-19.5 4.3-36.4 4.3zm-32.8-23.5 2.6.2c-.4 5.1 1.1 9 4.4 11.9 15 12.8 60.5 1.9 61 1.8.1 0 .3-.1.4-.1l58.8-5.2c2.6-5.3 12.1-25.9 7.5-38.7-1.4-3.9-4-6.7-7.8-8.4-58.8 3.4-114.2-6.9-131.5-10.5 3.6 8 9.1 24.8 7.2 49.3l-2.6-.3z"/></g><g id="XMLID_366_"><path id="XMLID_359_" class="st1" d="m327.2 787-5.8-46s93 10 141.1 7.9c9 18.5-.5 43.9-.5 43.9L327.2 787z"/><path id="XMLID_363_" d="M462 795.4h-.1l-134.8-5.8c-1.3-.1-2.3-1-2.5-2.3l-5.8-46c-.1-.8.2-1.6.7-2.2s1.4-.9 2.2-.8c.9.1 93.4 10 140.7 7.9 1.1 0 2 .5 2.5 1.5 9.4 19.3 0 44.9-.4 45.9-.4 1.1-1.4 1.8-2.5 1.8zm-132.4-11 130.6 5.6c1.8-5.7 6.7-24.1.7-38.4-43 1.6-119.6-5.9-136.4-7.7l5.1 40.5z"/></g><path id="XMLID_878_" class="st1" d="M648.6 651.1c-2.6-1.1-4.8 16.4-7.9 15.3-2.9-1 1.6-19.9.5-27.5l-120.5-13.2-7.9 4.2.5 93 140.1-6.3 1.4-39.2c-7.5-1.9-3.6-25.3-6.2-26.3z"/><path id="XMLID_877_" class="st0" d="M641.2 638.9c1 7.6-3.4 26.6-.5 27.5 3.2 1.1 5.3-16.4 7.9-15.3 2.5 1-1.3 24.4 6.1 26.3l1.3-36.9-14.8-1.6z"/><path id="XMLID_876_" class="st0" d="m529 626.7-8.4-.9-3.4 1.8-.3 9.2s7.9 16.9 12.2 16.9 11.1-6.9 7.4-11.1c-3.1-3.6-7.1-6.8-7.5-15.9z"/><path id="XMLID_360_" d="M513.3 725.6c-.7 0-1.3-.3-1.8-.7-.5-.5-.8-1.2-.8-1.9l-.5-93c0-1 .5-1.9 1.4-2.3l7.9-4.2c.5-.2 1-.4 1.5-.3L656.3 638c1.4.2 2.4 1.3 2.4 2.7l-2.6 76.1c0 1.4-1.1 2.5-2.5 2.5l-140.1 6.3h-.2zm2.1-94 .5 88.7 134.9-6.1 2.5-71.2-132-14.4-5.9 3z"/><g id="XMLID_358_"><path id="XMLID_348_" class="st1" d="m518.6 704.5 168.6 13.2-.6 71.9-182.8 2.1-1.1-83.5z"/><path id="XMLID_355_" d="M503.8 794.4c-1.4 0-2.6-1.2-2.6-2.6l-1.1-83.5c0-1.2.8-2.3 2-2.6L518 702c.3-.1.5-.1.8-.1l168.6 13.2c1.4.1 2.4 1.3 2.4 2.7l-.5 71.9c0 1.4-1.2 2.6-2.6 2.6l-182.9 2.1zm1.6-84.1 1 78.7 177.6-2 .5-66.8-165.7-13-13.4 3.1z"/></g><path id="XMLID_867_" class="st1" d="M512.7 611c-1.1 7.4 3.2 28-.5 29.6-3.7 1.6-2.6-30.7-9-28-3.7 1.6-.5 18-1.6 31.2s1.1 23.8-2.1 25.4c-3.2 1.6-1.6-18.5-4.8-17.4-3.2 1.1-4.2 19-7.4 18-3.2-1.1 1.1-12.7 2.1-21.7 1.1-9 .5-28.5 0-32.8-.5-4.2-.5-10-4.8-9.5-6.9 1.1.5 55-3.7 57.1-4.2 2.1-2.6-36.5-5.8-35.9s-7.9 66.1-7.9 66.1l-5-.3-1 9.8c.5 23.1 1.1 62.6-.4 64.5-1.1 1.4-3.8 1.3-6 1l-1.9 19.1 33.3 12.7 32.2-14.3 4.9-193.4c-3.5.9-7 .1-8 1.1-1.5 1.3-1.5 10.3-2.6 17.7z"/><path id="XMLID_866_" class="st2" d="m462.3 692.6-1.2-.1c.1 2.7.2 6 .2 9.9l1-9.8z"/><path id="XMLID_865_" class="st0" d="m474.2 571.9-11.8 120.7 5 .3s4.8-65.5 7.9-66.1 1.6 38.1 5.8 35.9c4.2-2.1-3.2-56 3.7-57.1 4.2-.5 4.2 5.3 4.8 9.5.5 4.2 1.1 23.8 0 32.8-1.1 9-5.3 20.6-2.1 21.7 3.2 1.1 4.2-16.9 7.4-18 3.2-1.1 1.6 19 4.8 17.4 3.2-1.6 1.1-12.2 2.1-25.4 1.1-13.2-2.1-29.6 1.6-31.2 6.3-2.6 5.3 29.6 9 28 3.7-1.6-.5-22.2.5-29.6s1.1-16.4 2.6-18c1-1 4.5-.2 8-1.1l.4-17.4-49.7-2.4z"/><path id="XMLID_864_" class="st0" d="M461 766.9c1.5-1.8.9-41.4.4-64.5l-6.4 65.5c2.2.3 4.9.3 6-1z"/><path id="XMLID_863_" class="st0" d="M497.9 673.9c-1.6 0-7.9 81.9-5.8 88.3 2.1 6.3 10 9 9.5-3.7-.5-12.8-2.1-84.6-3.7-84.6z"/><path id="XMLID_862_" class="st0" d="M507.5 682.8c-1.6 4.8-3.2 65 2.1 60.3s1-58.1-2.1-60.3z"/><path id="XMLID_861_" class="st1" d="M501.1 590.3c7.9-.5 1.1 11.6 1.1 11.6s-9-11-1.1-11.6z"/><path id="XMLID_352_" d="M486.3 802.3c-.3 0-.6-.1-.9-.2l-33.3-12.7c-1.1-.4-1.8-1.5-1.7-2.7l9.5-96.7c.1-1.4 1.3-2.4 2.6-2.4l58.5.4c.7 0 1.4.3 1.9.8s.8 1.2.7 1.9l-2.4 94.7c0 1-.6 1.9-1.6 2.3L487.4 802c-.3.2-.7.3-1.1.3zm-30.4-17.1 30.4 11.6 29.7-13.2 2.3-90.3-53.3-.4-9.1 92.3z"/><path id="XMLID_349_" d="m520.9 693.3-58.4-.4c-.7 0-1.4-.3-1.9-.9-.5-.6-.7-1.3-.7-2l11.6-118.4c.1-1.4 1.3-2.5 2.8-2.4l49.7 2.6c1.4.1 2.5 1.3 2.5 2.7l-2.9 116.2c-.1 1.5-1.2 2.6-2.7 2.6zm-55.4-5.7 52.9.4 2.8-111-44.6-2.4-11.1 113z"/><g id="XMLID_347_"><path id="XMLID_342_" class="st1" d="m305 783.8.6 34.3 404.8 5.9.5-37z"/><path id="XMLID_344_" d="m710.4 826.6-404.9-5.8c-1.4 0-2.6-1.2-2.6-2.6l-.5-34.4c0-.7.3-1.4.8-1.9s1.2-.7 1.9-.8l405.9 3.2a2.732 2.732 0 0 1 2.7 2.7l-.5 37c0 .7-.3 1.4-.8 1.9-.6.4-1.3.7-2 .7zm-402.2-11.1 399.6 5.7.5-31.7-400.5-3.1.4 29.1z"/></g><path id="XMLID_849_" class="st0" d="M477.3 670.7c-1.7.3-2.1 18.4-3 35.9-.8 15.3-2.4 30-.7 31.7 3.7 3.7 12.2-2.6 10-11.6s-3.1-56.5-6.3-56z"/><path id="XMLID_343_" d="M520.1 641.1h-50.7c-1.5 0-2.6-1.2-2.6-2.6s1.2-2.6 2.6-2.6h50.7c1.5 0 2.6 1.2 2.6 2.6s-1.1 2.6-2.6 2.6z"/><g id="XMLID_341_"><path id="XMLID_333_" class="st3" d="M292.9 540.1c-7.4-1.1-22.2-1.1-30.7 1.1-8.5 2.1-7.4 14.3-4.2 17.4 0 4.2.5 10.6.5 10.6s1.1 6.9 7.9 6.9c6.9 0 10.6-5.3 13.7-5.3 2.6 3.2 13.2 1.1 20.1-2.6 0 0-.5 5.8 3.7 6.3s16.9 0 16.9 0-2.1 9 7.4 8.5c-1.6 3.7-2.1 9-1.1 14.8 1.1 5.8 9 6.3 12.7 5.8s7.9-4.2 6.3-10c-1.6-5.8-6.3-18-1.6-32.2 4.8-14.3 23.8-25.9 23.8-25.9l-40.2-12.7c.2-.1-27.8 18.4-35.2 17.3z"/><path id="XMLID_338_" d="M337.5 606.4c-5.3 0-11.7-2-12.8-8.2-.8-4.5-.8-9.1.1-12.9-2-.4-3.5-1.3-4.7-2.7-1.4-1.7-1.9-3.7-2-5.4-4.1.1-11.3.3-14.4-.1-3-.4-4.8-2.5-5.6-5-5.9 2.4-14.3 4.3-18.5 1.6-.6.3-1.5.8-2.2 1.3-2.5 1.6-6 3.8-10.9 3.8-7.2 0-10.1-6-10.5-9.1v-.2c0-.2-.5-5.6-.5-9.8-2.2-3-3-8.5-1.8-12.9 1.2-4.2 4-7.1 8-8.1 9.2-2.3 24.6-2.1 31.7-1.1 4.4.6 22.3-9.6 33.6-17 .7-.4 1.5-.6 2.3-.3l40.2 12.7c1 .3 1.7 1.2 1.8 2.2.1 1-.4 2-1.2 2.6-.2.1-18.3 11.3-22.7 24.5-4 11.9-.9 22.3 1 28.5.2.8.5 1.6.7 2.3 1.1 4-.1 6.9-1.2 8.7-1.6 2.5-4.4 4.2-7.3 4.7-1.2-.2-2.1-.1-3.1-.1zm-9.2-26.1c.9 0 1.7.4 2.2 1.1.5.7.6 1.7.3 2.6-1.5 3.4-1.8 8.3-.9 13.3.7 4.1 7.8 3.9 9.7 3.7 1.4-.2 2.8-1.1 3.6-2.3.8-1.2 1-2.7.5-4.4-.2-.6-.4-1.4-.6-2.1-1.9-6.4-5.4-18.2-.9-31.6 3.5-10.6 14.1-19.6 20.3-24.2l-33.8-10.7c-6.6 4.3-28.7 18.2-36.2 17.2-6.8-1-21.4-1.1-29.6 1-2.1.5-3.5 2-4.2 4.4-1 3.5.1 7.5 1.2 8.6.5.5.8 1.2.8 1.9 0 3.8.4 9.4.5 10.2.2.9 1.1 4.6 5.3 4.6 3.3 0 5.8-1.6 8-3 1.9-1.2 3.6-2.3 5.7-2.3.8 0 1.5.3 2 1 1.1 1.3 9.6.6 16.8-3.3.9-.5 1.9-.4 2.7.1.8.5 1.3 1.5 1.2 2.4 0 0-.2 3.3 1.4 3.5 3.3.4 13 .1 16.5 0 .8 0 1.6.3 2.1 1 .5.6.7 1.5.5 2.3-.2.7-.4 2.9.6 4.1.7.8 2.1 1.2 4 1.1.2-.2.2-.2.3-.2z"/></g><path id="XMLID_337_" d="M320.9 577.1c-1.3 0-2.5-1-2.6-2.3 0-.3-.7-6.5 5.6-10 1.3-.7 2.9-.2 3.6 1 .7 1.3.2 2.9-1 3.6-3 1.7-2.9 4.5-2.9 4.8.1 1.4-.9 2.7-2.4 2.9h-.3z"/><path id="XMLID_336_" d="M328.3 585.6c-.7 0-1.4-.3-1.9-.8-1-1-1-2.7 0-3.7l.3-.3c1.7-1.7 4.2-4.3 10.5-3 1.4.3 2.4 1.7 2.1 3.1-.3 1.4-1.7 2.4-3.1 2.1-3.5-.7-4.4.2-5.7 1.6l-.4.4c-.5.3-1.1.6-1.8.6z"/><path id="XMLID_335_" d="M280.2 573.4c-.8 0-1.5-.3-2.1-1-.9-1.1-.7-2.8.4-3.7.2-.2.4-.7.6-1.7.5-2.3 1.3-5.8 6.7-8.7 1.3-.7 2.9-.2 3.6 1.1s.2 2.9-1.1 3.6c-3.2 1.7-3.6 3.3-4 5.2-.3 1.4-.7 3.2-2.4 4.6-.5.4-1.1.6-1.7.6z"/><path id="XMLID_334_" d="M258 561.3c-1 0-2-.6-2.4-1.6-.6-1.3 0-2.9 1.4-3.5 11.4-4.9 30.2-6 31-6 1.4-.1 2.7 1 2.8 2.5.1 1.5-1 2.7-2.5 2.8-.2 0-18.7 1.1-29.2 5.6-.4.1-.7.2-1.1.2z"/><g id="XMLID_332_"><path id="XMLID_328_" class="st4" d="M298.2 535.9c.5-6.9 9-11.6 18.5-10.6 9.5 1.1 24.8 13.7 13.7 30.7-4.2 5.3-15.9 4.8-20.6 1.6-4.8-3.2-12.2-14.8-11.6-21.7z"/><path id="XMLID_329_" d="M319.5 562.6c-4.3 0-8.5-1.1-11.2-2.9-5.4-3.6-13.4-16.1-12.8-24.1.3-3.3 1.9-6.3 4.7-8.7 4.1-3.4 10.4-5 16.7-4.3 6.2.7 14.4 5.5 18.1 13.3 2.2 4.7 3.6 12.2-2.4 21.4 0 .1-.1.1-.1.2-2.8 3.7-7.9 5.1-13 5.1zm-18.7-26.5c-.4 5.8 6.4 16.6 10.5 19.3 3.8 2.5 13.7 3 17-.9 3.7-5.7 4.4-11.1 2-16.1-2.7-5.8-9.2-9.8-13.9-10.3-4.9-.5-9.7.6-12.7 3.2-1.2.8-2.7 2.5-2.9 4.8z"/></g><path id="XMLID_833_" class="st1" d="M288.1 548.4c0 7.5 6 13.5 13.5 13.5 1.9 0 3.8-.4 5.4-1.1l-9.5-25.2c-5.4 1.7-9.4 6.8-9.4 12.8z"/><path id="XMLID_832_" class="st0" d="M315.1 548.4c0-7.5-6-13.5-13.5-13.5-1.4 0-2.8.2-4.1.6l9.5 25.2c4.8-2 8.1-6.7 8.1-12.3z"/><g id="XMLID_327_"><circle id="XMLID_311_" class="st1" cx="301.6" cy="548.4" r="4.8"/><path id="XMLID_324_" d="M301.6 555.8c-4.1 0-7.4-3.3-7.4-7.4 0-4.1 3.3-7.4 7.4-7.4 4.1 0 7.4 3.3 7.4 7.4 0 4.1-3.3 7.4-7.4 7.4zm0-9.5c-1.2 0-2.1.9-2.1 2.1 0 1.2.9 2.1 2.1 2.1 1.2 0 2.1-.9 2.1-2.1 0-1.1-.9-2.1-2.1-2.1z"/></g><path id="XMLID_321_" d="M301.6 564.6c-8.9 0-16.1-7.2-16.1-16.1 0-8.9 7.2-16.1 16.1-16.1s16.1 7.2 16.1 16.1c0 8.8-7.2 16.1-16.1 16.1zm0-27c-6 0-10.8 4.9-10.8 10.8 0 6 4.9 10.8 10.8 10.8s10.8-4.9 10.8-10.8-4.8-10.8-10.8-10.8z"/><path id="XMLID_823_" class="st1" d="M251.8 549.2c1.8-3.3 3.8-7.7 4.5-12.6-8.4-1.8-18.8-3.2-22.5-2.3-14.8 2.1-28 6.9-28.5 25.4 5.8-7.4 14.3-13.2 28-13.7 2.5 0 10.8 1.8 18.5 3.2z"/><path id="XMLID_822_" class="st0" d="M265.9 550.7c3.7-1.6 3.7-7.4 2.1-10-.7-1.1-5.7-2.7-11.8-4-.7 5-2.6 9.4-4.5 12.6 6.5 1.2 12.5 2.1 14.2 1.4z"/><path id="XMLID_821_" class="st1" d="M255.5 557.6c-4.1.6-9.2 2-16 4.7-16.9 6.9-16.9 12.2-18.5 22.2 4.8-5.8 13.2-12.2 20.1-13.7 4.2-1 10.6-.4 15.7 0 .9-4.1 1.2-9.1-1.3-13.2z"/><path id="XMLID_820_" class="st0" d="M267 559.2c-1.9-1.3-5.3-2.4-11.5-1.5 2.4 4 2.2 9.1 1.3 13.2 3.3.3 6.1.4 7.6 0 3.6-1.2 5.8-9.6 2.6-11.7z"/><path id="XMLID_318_" d="M205.2 562.3c-.3 0-.6-.1-.9-.2-1.1-.4-1.8-1.4-1.7-2.6.6-20.7 15.8-25.8 30.7-27.9 6.3-1.4 34.4 3.1 37.1 7.6 1.4 2.4 1.8 6.1.9 9-.7 2.3-2.2 4-4.2 4.8-2.7 1.2-9.2.1-22.2-2.5-4.9-1-9.9-2-11.5-2-11.1.4-19.6 4.6-26 12.7-.7.8-1.5 1.1-2.2 1.1zm31.9-25.7c-1.2 0-2.1.1-2.8.3-.1 0-.2 0-.3.1-12.5 1.8-21.7 5.2-25 14.9 6.5-5.4 14.4-8.2 24-8.5h.1c2 0 6.1.8 12.6 2.1 6.4 1.3 17.1 3.4 19.2 2.8.5-.2.9-.8 1.2-1.6.5-1.5.3-3.4-.2-4.4-2.8-1.8-20.6-5.7-28.8-5.7z"/><path id="XMLID_315_" d="M221 587.2c-.3 0-.6 0-.9-.2-1.1-.4-1.8-1.4-1.8-2.5 0-8.3 1.6-17.1 20.1-24.6 14.2-5.8 24.2-6.7 29.9-2.9 2.2 1.4 3.1 4.4 2.6 8-.5 3.5-2.6 7.5-6 8.4-2 .6-5 .4-9.9 0-4.7-.4-10.1-.8-13.5 0-6.5 1.5-14.5 7.7-18.6 12.8-.4.6-1.1 1-1.9 1zm38.5-27.2c-3.9 0-9.9 1.1-19 4.8-9.8 4-14 8-15.7 12.2 4.7-4 10.5-7.5 15.7-8.7 4.2-1 10-.5 15.1-.1 3.2.2 6.8.5 8 .2.7-.2 1.8-1.9 2.2-4.1.3-1.8-.1-2.7-.3-2.7-.8-.8-2.6-1.6-6-1.6z"/><path id="XMLID_813_" class="st0" d="M351.2 594.4c-3.2-3.9-6.7-6.4-8.6-6.7-3.7-.5-7.9 5.3-6.3 9.5.7 2 2.9 4.1 5.2 6.4 2.3-3 5.9-7 9.7-9.2z"/><path id="XMLID_812_" class="st1" d="M357.9 607.8c-1-5.1-3.8-9.8-6.8-13.4-3.8 2.3-7.3 6.2-9.7 9.2 2.5 2.5 5.1 5.3 5.9 8.4 1.6 5.8 2.6 15.3-2.1 22.2 11.1-6.3 14.8-15.8 12.7-26.4z"/><path id="XMLID_312_" d="M345.2 636.9c-.7 0-1.4-.3-1.9-.9-.8-.9-.9-2.3-.2-3.3 4.8-6.9 2.5-17.1 1.7-20-.7-2.6-3.4-5.3-5.7-7.7-2.3-2.3-4.4-4.5-5.3-6.9-1.1-3-.4-6.7 2-9.7 2-2.5 4.7-3.8 7.2-3.4 5.3.8 15.3 11 17.5 22.2 2.5 12.3-2.5 22.7-14 29.2-.4.3-.8.5-1.3.5zm-6.5-40.6c.5 1.3 2.3 3.2 4.1 5 2.8 2.9 6 6.1 7.1 10 .8 2.9 2 8.8 1.1 14.9 4.2-4.9 5.7-11 4.3-17.9-1.9-9.7-10.7-17.6-13.1-18-.5-.1-1.5.4-2.3 1.5-1.2 1.4-1.7 3.3-1.2 4.5z"/><g id="XMLID_310_"><path id="XMLID_296_" class="st3" d="m412.9 546.5-7.4 25.4s-9 23.3-10.6 28-9 14.8-13.7 15.9c-4.8 1.1-18.5 8.5-20.1 16.9-1.6 6.3-1.6 10.6 6.3 11.6 7.9 1.1 16.4-1.6 18.5-3.7.5 2.6-3.2 12.2 4.2 13.2 7.4 1.1 12.2-1.1 18.5-8.5s5.8-13.2 8.5-16.4c2.6-3.2 19-5.3 23.3-2.6 4.2 2.6 5.3 7.9 9 8.5s9-1.6 9-5.8c0-4.2-4.8-18-9.5-20.6-4.8-2.6-9.5-3.2-9.5-13.2 1.1-14.3 13.2-31.2 13.2-31.2l-14.3-24.8-25.4 7.3z"/><path id="XMLID_307_" d="M393.5 656.7c-1.2 0-2.4-.1-3.7-.3-6.9-1-7.2-7.2-6.8-11.2-4.3 1.6-10.4 2.5-15.9 1.7-3.9-.5-6.6-1.9-8.1-4.1-2.1-3.1-1.4-7.2-.5-10.8 2-10.2 17.4-17.9 22.1-18.9 3.3-.7 10.3-9.5 11.8-14.1s9.8-26.1 10.6-28l7.4-25.3c.3-.9.9-1.5 1.8-1.8l25.4-7.4c1.2-.3 2.4.2 3 1.2l14.3 24.8c.5.9.5 2-.1 2.9-.1.2-11.7 16.4-12.7 29.7 0 6.8 2.2 7.9 5.9 9.6.7.4 1.5.7 2.3 1.2 5.9 3.3 10.9 18.3 10.9 22.9 0 2.2-1 4.2-2.7 5.8-2.3 2-6.1 3.1-9.3 2.6-3.1-.4-4.9-2.8-6.4-5-1-1.4-2.1-2.9-3.6-3.9-3.2-2-17.8-.1-19.8 2.1-.7.8-1.2 2.2-1.8 4-1.1 3.2-2.5 7.5-6.7 12.4-6.1 7-11 9.9-17.4 9.9zm-7.6-18.8c.3 0 .5 0 .8.1.9.3 1.6 1.1 1.8 2 .2 1.1.1 2.3-.1 3.9-.7 5.3-.2 6.9 2.1 7.2 6.5.9 10.4-.9 16.1-7.6 3.5-4.1 4.7-7.6 5.7-10.6.7-2.1 1.4-4.1 2.7-5.7 3.6-4.3 21.5-6.4 26.7-3.2 2.4 1.5 3.9 3.6 5.1 5.2 1.2 1.7 2 2.7 2.9 2.8 1.7.2 3.9-.4 5-1.4.9-.8.9-1.6.9-1.8 0-3.7-4.6-16.3-8.2-18.3-.7-.4-1.4-.7-2-1-4.1-2-8.9-4.3-8.9-14.5v-.2c.9-12.6 9.7-26.6 12.7-31.1L437 542.2l-22 6.4-7 24c0 .1 0 .1-.1.2-.1.2-9 23.3-10.5 27.9-1.7 5.2-9.6 16.2-15.7 17.6-4.6 1-16.8 8-18.1 14.8v.2c-.6 2.5-1.2 5.3-.3 6.6.7 1.1 2.8 1.6 4.4 1.8 7.3 1 14.9-1.6 16.3-2.9.5-.6 1.2-.9 1.9-.9z"/></g><path id="XMLID_306_" d="M385.9 643.2c-1.5 0-2.6-1.2-2.6-2.6 0-3.2 2.5-8.8 6.5-12.3 2.8-2.4 6-3.5 9.2-3 1.4.2 2.4 1.5 2.2 3-.2 1.4-1.5 2.4-3 2.2-1.7-.2-3.3.4-5 1.8-3 2.6-4.7 6.8-4.7 8.3 0 1.4-1.1 2.6-2.6 2.6z"/><path id="XMLID_802_" class="st0" d="M366.9 642.9c2.6-3.7 5.8-6.6 5.8-9.3 0-4.2-2.1-8.5-5.8-8.5-2.1 0-6.2 3.5-9.6 8.4 5.3 1.6 8.4 7 9.6 9.4z"/><path id="XMLID_801_" class="st1" d="M366.9 642.9c-1.2-2.5-4.3-7.8-9.6-9.4-2.6 3.7-4.8 8.1-5.2 12.3-1.1 9.5 1.1 23.8 15.3 23.3-3.2-5.8-4.8-11.6-3.7-19 .4-2.7 1.7-5 3.2-7.2z"/><path id="XMLID_800_" class="st0" d="M391.5 649.5c2.2-3.5 4-6.6 4-8.5 0-3.7-2.1-6.9-6.3-6.9-2.3 0-5.7 3.4-8.8 8.1 5.7 1.1 9.1 4.4 11.1 7.3z"/><path id="XMLID_799_" class="st1" d="M391.5 649.5c-2-3-5.4-6.2-11.1-7.2-2.7 4.1-5.1 9.1-6 13.6-2.1 9.5-3.7 25.4 12.7 25.4-6.3-5.8-5.8-14.3-2.1-21.1 1.7-3.5 4.3-7.3 6.5-10.7z"/><path id="XMLID_798_" class="st0" d="M455.7 620.5c-3.7-1.6-10.6 2.6-8.5 8.5 1.1 2.9 2.1 4.5 2.6 6.6 3.6-1.9 7.5-2.6 10.1-2.8 0-7.6-1.5-11.2-4.2-12.3z"/><path id="XMLID_797_" class="st1" d="M449.3 645.3c-2.1 10-5.3 14.8-9 20.6 10-4.2 17.4-7.9 19-22.7.4-4.1.6-7.6.6-10.5-2.6.2-6.4.9-10.1 2.8.6 2.2.6 4.8-.5 9.8z"/><path id="XMLID_303_" d="M440.3 668.6c-.8 0-1.5-.3-2-.9-.7-.9-.8-2.1-.2-3.1l.4-.6c3.5-5.5 6.3-9.9 8.3-19.2 1.5-7 .8-8.5-.6-11.5-.4-1-.9-2-1.4-3.4-1.2-3.4-.4-6.9 2.3-9.5 2.8-2.6 6.7-3.6 9.6-2.3 5.4 2.3 7 9.9 5.3 25.4-1.7 15.7-9.6 20.2-20.6 24.9-.4.1-.7.2-1.1.2zm13.6-45.8c-.9 0-2.2.5-3.2 1.4-.8.8-1.6 2.1-1 3.8.4 1.2.9 2.1 1.3 3 1.8 3.9 2.7 6.5.9 14.8-1.3 6-2.9 10.2-4.8 13.9 5.3-3.2 8.6-7.6 9.6-16.8 1.8-16.5-.9-19.5-2.1-20-.2-.1-.4-.1-.7-.1z"/><path id="XMLID_300_" d="M387 683.9c-5.8 0-10.2-1.8-13-5.4-3.8-4.8-4.6-12.6-2.2-23.2 2-9.2 10.8-23.7 17.4-23.7 5.3 0 9 3.9 9 9.5 0 3-2.4 6.8-6.2 12.7-1.7 2.6-3.4 5.2-4.7 7.6-1.4 2.6-5.4 11.5 1.6 17.9.8.7 1.1 1.9.7 2.9s-1.5 1.7-2.6 1.7zm2.1-47c-2.5.3-10.2 10.5-12.2 19.6-2.5 11.2-.7 16.4 1.2 18.8.8 1 1.8 1.7 3 2.3-2.5-5.5-2-12.1 1.5-18.7 1.4-2.6 3.2-5.3 4.9-8 2.3-3.5 5.4-8.2 5.4-9.8-.1-1.3-.5-4.2-3.8-4.2z"/><path id="XMLID_297_" d="M366.6 671.8c-5 0-9-1.6-12-4.9-6.1-6.5-5.6-17.1-5.1-21.3 1.1-10.1 11.8-23 17.4-23 4.8 0 8.5 4.8 8.5 11.1 0 2.9-2 5.3-4.1 8-2.1 2.6-4.4 5.5-4.9 8.8-.9 6.2.1 11.4 3.4 17.4.4.8.4 1.8 0 2.6-.5.8-1.3 1.3-2.2 1.3h-1zm.3-43.9c-2.3.4-11.2 9.7-12.2 18.3-.3 2.7-.9 12.1 3.8 17.1 1.2 1.3 2.7 2.2 4.6 2.7-2.2-5.4-2.8-10.6-1.9-16.3.7-4.8 3.6-8.4 6-11.4 1.4-1.7 2.9-3.6 2.9-4.6-.1-2.8-1.3-5.8-3.2-5.8z"/><g id="XMLID_295_"><path id="XMLID_288_" class="st4" d="M398.6 591.4s-6.3-4.2-3.2-12.7c3.7-11.6 30.7-11.6 32.2 0s-6.9 14.3-6.9 14.3l-22.1-1.6z"/><path id="XMLID_292_" d="M420.8 595.6h-.2l-22.2-1.6c-.5 0-.9-.2-1.3-.4-2.8-1.9-7.2-7.5-4.2-15.8 2.5-7.8 13-11.2 22-10.4 8.6.7 14.5 4.9 15.3 10.9 1.5 10.9-5 16-8.7 17.1-.2.2-.4.2-.7.2zm-21.2-6.8 20.8 1.5c1.4-.6 5.7-3.3 4.7-11.2-.6-4.1-6-6-10.6-6.3-6.9-.6-15 1.8-16.6 6.8v.1c-1.9 5.1.5 8.1 1.7 9.1z"/></g><path id="XMLID_782_" class="st0" d="M420.8 596.4c0-7.5-6-13.5-13.5-13.5-6.9 0-12.6 5.2-13.4 11.8l26.7 3.3c.2-.5.2-1 .2-1.6z"/><path id="XMLID_781_" class="st1" d="M394 594.6c-.1.5-.1 1.1-.1 1.6-.1 7.5 5.9 13.6 13.3 13.6 6.9.1 12.6-5 13.5-11.6l-26.7-3.6z"/><path id="XMLID_289_" d="M407.3 612.5c-8.9 0-16.1-7.2-16.1-16.1 0-8.9 7.2-16.1 16.1-16.1s16.1 7.2 16.1 16.1c0 8.9-7.2 16.1-16.1 16.1zm0-26.9c-6 0-10.8 4.9-10.8 10.8 0 6 4.9 10.8 10.8 10.8s10.8-4.9 10.8-10.8-4.8-10.8-10.8-10.8z"/><g id="XMLID_287_"><circle id="XMLID_244_" class="st1" cx="407.3" cy="596.4" r="5"/><path id="XMLID_284_" d="M407.3 604.1c-4.2 0-7.7-3.4-7.7-7.7s3.4-7.7 7.7-7.7 7.7 3.4 7.7 7.7-3.5 7.7-7.7 7.7zm0-10.1c-1.3 0-2.4 1.1-2.4 2.4s1.1 2.4 2.4 2.4 2.4-1.1 2.4-2.4-1.1-2.4-2.4-2.4z"/></g><path id="XMLID_772_" class="st2" d="m512.2 201.4 8.5-4.2-13.5-4z"/><path id="XMLID_771_" class="st0" d="m623.8 242.9-.9-14.4-21.7 2.3 1.2 14.7z"/><path id="XMLID_770_" class="st0" d="m645.9 161-16-27.5c-1.4 2.2-3.1 4.7-5 7.2l11.8 20.1c3 .1 6.1.1 9.2.2z"/><path id="XMLID_769_" class="st1" d="M620 161.2s7.5-.4 16.8-.3L625 140.8c-3.2 4.3-6.9 8.6-10.2 10.9l-22.1 10.6 4.6 10.4 22.7-11.5z"/><path id="XMLID_768_" class="st1" d="M654.9 161.7c-11.1-25.9-21.1-34.4-21.1-34.4s-1.5 2.6-3.8 6.2l16 27.5c3 .2 6.1.4 8.9.7z"/><path id="XMLID_767_" class="st0" d="m597.3 172.7-4.6-10.4-21.4 10.3 4.8 10.7z"/><path id="XMLID_766_" class="st1" d="m475.2 77.2 6.2-11-25.9.3 6 10.7.8 20.7 12.6.4z"/><path id="XMLID_765_" class="st0" d="m572.2 90.8-24.3-13.5-.9 6.9 19.6 10.7c1.7-1.4 3.7-2.8 5.6-4.1z"/><path id="XMLID_764_" class="st0" d="m474.9 98.3-12.6-.4.8 22.7 11.3.2z"/><path id="XMLID_763_" class="st0" d="m547.7 117.1-10.8-7.9-12.8 21.8 11.5 6.9z"/><path id="XMLID_762_" class="st1" d="M556.1 102.5s4.9-3.7 10.4-7.7l-19.6-10.7-1.4 10.5-8.6 14.6 10.7 7.9 8.5-14.6z"/><path id="XMLID_761_" class="st1" d="M335.7 131.1c-11.6 15.9-12.2 32.8-12.2 32.8l8.4-.2 11.1-24.5-7.3-8.1z"/><path id="XMLID_760_" class="st1" d="m402.3 99.9-.4-12.7-17 10.1c4.8 3.6 8 6.8 8 6.8l12.7 17.1 9.1-5.4-12.4-15.9z"/><path id="XMLID_759_" class="st0" d="m343 139.2-11.1 24.5 8.7-.2 8-18.1z"/><path id="XMLID_758_" class="st0" d="m654.9 329.7 9.8-28-6.5.8-8 21.8z"/><path id="XMLID_757_" class="st1" d="M659.1 334.6c10.6-15.3 14.3-33.8 14.3-33.8l-8.7 1-9.9 28 4.3 4.8z"/><path id="XMLID_756_" class="st1" d="M581.4 85c-10.6-12.6-32.2-17.9-32.2-17.9l-1.4 10.1 24.3 13.5c4.7-3.2 8.7-5.8 9.3-5.7z"/><path id="XMLID_755_" class="st1" d="M401.2 69.2s-20.6 4.2-32.8 19c3.1 1 6.3 2.5 9.2 4.2l23.9-14.1-.3-9.1z"/><path id="XMLID_754_" class="st0" d="m484.9 59.8-33 .4 3.6 6.3 25.9-.3z"/><path id="XMLID_753_" class="st0" d="m401.5 78.4-23.9 14.1c2.6 1.5 5 3.2 7.1 4.8l17-10.1-.2-8.8z"/><path id="XMLID_283_" d="M581.5 87.7c-1 0-1.8-.5-2.3-1.3-.3-.4-.4-.9-.4-1.4 0-1.5 1.2-2.6 2.6-2.6 1.5 0 2.7 1.2 2.7 2.7 0 1.5-1.2 2.6-2.6 2.6z"/><path id="XMLID_751_" class="st1" d="M488.4 53.4c-22.7-2.6-40.7-.5-40.7-.5l4.2 7.3 33-.4 3.5-6.4z"/><path id="XMLID_750_" class="st1" d="m643.3 316.6 6.9 7.7 8-21.8-11.7 1.4-24.7-5.2-3.4 13.1z"/><path id="XMLID_749_" class="st0" d="m618.4 311.8 3.4-13.1-20.3-4.4-3.3 13.7z"/><path id="XMLID_748_" class="st1" d="m354.2 151.7-5.6-6.3-8 18.1 9.9-.2 21.5 10.2 4.8-10z"/><path id="XMLID_747_" class="st1" d="m574.1 248.9 28.3-3.4-1.2-14.7-21.3 2.3-29.1 13.2-14.8-27.5 10.6-20.6 29.5-14.9-4.8-10.7-24.7 11.9-21.9 10.7-2.4 2.5-1.6-.5-8.5 4.2-5-8.2-1.9-2.9 30.3-52.4-11.5-6.9-14 23.9-30.6 9.5-.6-2.9-4.7-26.2.2-14.5-11.3-.2.5 14.7 6.3 27-13.2 8.4-28-36.5-9.7 5.3 5.5 7.4 1.6 34.9h-14.3L389 169.9l-5 9.3 22 10.5 78.2 8.5 56 55.5 24.3 50.2 14.4.4 1.2.2 18.1 3.5 3.3-13.7-10-2-27.5-.6 2.1-15.3 2.9-9.8z"/><path id="XMLID_746_" class="st0" d="m376.8 163.5-4.8 10 12 5.7 5-9.3z"/><path id="XMLID_745_" class="st1" d="m645.4 226.2-22.5 2.4 1 14.4 24.7-3c1.8.4 5.9 2.6 10.3 5.3l.7-23.8c-7.7 2.6-14.2 4.7-14.2 4.7z"/><path id="XMLID_744_" class="st0" d="m414.6 115.8-9.1 5.4 13.5 18.3 9.7-5.3z"/><path id="XMLID_743_" class="st1" d="M679.2 213.5c-2.9 1.4-6.6 3-10.6 4.5l-.4 33.3c4.4 3 7.9 5.4 7.9 5.4s5.2-33.1 3.1-43.2z"/><path id="XMLID_742_" class="st0" d="m659.6 221.4-.7 23.8c3.2 2 6.5 4.2 9.4 6.1l.4-33.3c-3.1 1.2-6.2 2.3-9.1 3.4z"/><path id="XMLID_741_" class="st1" d="m580.1 304.5-.8 17.4 14.2 5.6 4.7-19.5z"/><path id="XMLID_740_" class="st1" d="m612.3 335.2 19.4 7.8 11.6-26.4-24.9-4.8z"/><path id="XMLID_739_" class="st0" d="m598.2 308-4.7 19.5 18.8 7.7 6.1-23.4z"/><path id="XMLID_282_" d="M643.3 319.2h-.5l-24.9-4.8c-1.3-.2-2.1-1.3-2.1-2.6v-.5c.3-1.4 1.7-2.4 3.1-2.1l24.9 4.8c1.3.2 2.1 1.3 2.1 2.6v.5c-.3 1.2-1.4 2.1-2.6 2.1z"/><path id="XMLID_281_" d="M598.1 310.6h-.5l-18.1-3.4c-1.3-.2-2.1-1.4-2.1-2.6v-.5c.3-1.4 1.7-2.4 3.1-2.1l18.1 3.4c1.3.2 2.1 1.4 2.1 2.6v.5c-.2 1.2-1.3 2.1-2.6 2.1z"/><path id="XMLID_736_" class="st1" d="m626 273.6 27.3-.9-4.7-32.8-24.8 3z"/><path id="XMLID_735_" class="st1" d="m574.1 248.9-5.1 17.7-.8 8.8 36.6-1.2-2.4-28.7z"/><path id="XMLID_734_" class="st0" d="m602.4 245.5 2.4 28.7 21.2-.6-2.2-30.7z"/><path id="XMLID_280_" d="M569 269.2c-.2 0-.5 0-.7-.1-1.2-.3-1.9-1.4-1.9-2.5 0-.2 0-.5.1-.7l5.1-17.7c.4-1.4 1.9-2.2 3.3-1.8 1.2.3 1.9 1.4 1.9 2.5 0 .2 0 .5-.1.7l-5.1 17.7c-.4 1.2-1.5 1.9-2.6 1.9z"/><path id="XMLID_732_" class="st0" d="m576.1 183.3 11.8 26.7 21.5-10.1-12.1-27.2z"/><path id="XMLID_731_" class="st1" d="m546.6 198.2-8 15.5 5.9 16.7 43.4-20.4-11.8-26.7z"/><path id="XMLID_730_" class="st1" d="m609.4 199.9 22.8-10.7-12.2-28-22.7 11.5z"/><path id="XMLID_729_" class="st0" d="m535.6 137.9 26.4 16 13.4-16.5-27.7-20.3z"/><path id="XMLID_728_" class="st1" d="m505.3 190.3 1.9 2.9 13.5 4 4-2 19.8-19.7 17.5-21.6-26.4-16z"/><path id="XMLID_727_" class="st1" d="m575.4 137.4 15-18.5-34.3-16.4-8.4 14.6z"/><path id="XMLID_279_" d="M507.2 195.8c-.9 0-1.7-.4-2.2-1.2l-1.8-2.9c-.3-.4-.4-.9-.4-1.4 0-.9.4-1.7 1.2-2.2 1.2-.8 2.9-.4 3.6.8l1.8 2.9c.3.4.4.9.4 1.4 0 .9-.4 1.7-1.2 2.2-.4.3-.9.4-1.4.4z"/><path id="XMLID_278_" d="M522.3 200.3c-.3 0-.5 0-.8-.1l-1.6-.5c-1-.3-1.8-1.2-1.9-2.3-.1-1.1.5-2.1 1.5-2.6l4.1-2c1.2-.6 2.6-.2 3.3.8.8 1.1.6 2.5-.3 3.4l-2.5 2.5c-.5.5-1.1.8-1.8.8z"/><path id="XMLID_724_" class="st1" d="m506.1 99.2 6.6-21.5-37.5-.5-.3 21.1z"/><path id="XMLID_723_" class="st1" d="m474.2 135.3 4.7 26.2 11.1-9.8 9.3-30.3-24.9-.6z"/><path id="XMLID_722_" class="st0" d="m474.4 120.8 24.9.6 6.8-22.2-31.2-.9z"/><path id="XMLID_277_" d="M478.9 164.1c-1.3 0-2.4-.9-2.6-2.2l-4.8-26.2v-.5c0-1.3.9-2.4 2.2-2.6 1.4-.3 2.8.7 3.1 2.1l4.8 26.2v.5c0 1.3-.9 2.4-2.2 2.6-.2.1-.3.1-.5.1z"/><path id="XMLID_720_" class="st1" d="m437.7 102-7.9-17.4-27.5 15.3 12.3 15.9z"/><path id="XMLID_719_" class="st0" d="m428.7 134.2 18.9-10.3-9.9-21.9-23.1 13.8z"/><path id="XMLID_718_" class="st1" d="m456.7 170.7 9.2-5.9-13.4-30-4.9-10.9-18.9 10.3z"/><path id="XMLID_717_" class="st0" d="m389 169.9 11.4-21.5-12.8-7.7-10.8 22.8z"/><path id="XMLID_716_" class="st1" d="M387.6 140.7 367.9 129l-13.7 22.7 22.6 11.8z"/><path id="XMLID_715_" class="st1" d="M411.8 181.8h9.4l.6-.5-7.9-24.9-13.5-8-11.4 21.5z"/><path id="XMLID_276_" d="M643.3 319.2c-.2 0-.4 0-.6-.1-1.4-.4-2.3-1.8-1.9-3.2l3.2-12.7c.4-1.4 1.8-2.3 3.2-1.9 1.4.4 2.3 1.8 1.9 3.2l-3.2 12.7c-.3 1.2-1.4 2-2.6 2z"/><path id="XMLID_275_" d="M648.6 242.6c-1.2 0-2.3-.8-2.6-2l-3.2-13.7c-.3-1.4.6-2.8 2-3.2 1.4-.3 2.8.6 3.2 2l3.2 13.7c.3 1.4-.6 2.8-2 3.2h-.6z"/><path id="XMLID_274_" d="M620 163.8c-.9 0-1.8-.5-2.3-1.4l-5.3-9.5c-.7-1.3-.3-2.9 1-3.6 1.3-.7 2.9-.2 3.6 1l5.3 9.5c.7 1.3.3 2.9-1 3.6-.4.3-.8.4-1.3.4z"/><path id="XMLID_273_" d="M556.1 105.2c-.6 0-1.1-.2-1.6-.5l-10.6-7.9c-1.2-.9-1.4-2.5-.5-3.7.9-1.2 2.5-1.4 3.7-.5l10.6 7.9c1.2.9 1.4 2.5.5 3.7-.5.6-1.3 1-2.1 1z"/><path id="XMLID_272_" d="M475.2 79.8h-13.7c-1.5 0-2.6-1.2-2.6-2.6s1.2-2.6 2.6-2.6h13.7c1.5 0 2.6 1.2 2.6 2.6s-1.1 2.6-2.6 2.6z"/><path id="XMLID_271_" d="M392.8 106.8c-1 0-2-.6-2.4-1.6-.6-1.3 0-2.9 1.3-3.5l9.5-4.2c1.3-.6 2.9 0 3.5 1.3.6 1.3 0 2.9-1.3 3.5l-9.5 4.2c-.4.2-.8.3-1.1.3z"/><path id="XMLID_270_" d="M350.5 166c-.3 0-.5 0-.8-.1-1.4-.4-2.2-1.9-1.7-3.3l3.7-11.6c.4-1.4 1.9-2.2 3.3-1.7 1.4.4 2.2 1.9 1.7 3.3l-3.7 11.6c-.3 1-1.4 1.8-2.5 1.8z"/><path id="XMLID_266_" d="M659.2 337.1c-.8 0-1.5-.3-2-.9L642 319l-63.4-12.1-14.1-.4c-1 0-1.9-.6-2.3-1.5l-24.1-49.8-55-54.5-77.3-8.4c-.3 0-.6-.1-.9-.2L350 165.9l-26.3.5a2.732 2.732 0 0 1-2.7-2.7c0-.7.7-17.9 12.7-34.2.5-.6 1.2-1 2-1.1.8 0 1.6.3 2.1.9l18.2 20.3 56.6 29.6h10.9l-1.4-31.3-31.1-42c-1.3-1.3-12.4-11.8-23.1-15.1-.8-.3-1.5-.9-1.8-1.8-.3-.8-.1-1.8.5-2.4 12.6-15.3 33.4-19.8 34.3-19.9.8-.2 1.6 0 2.2.5s1 1.2 1 2l1 29.8 52.4 68.2 9.6-6.1-5.9-25.1c0-.2-.1-.3-.1-.5L459 78l-13.4-23.8c-.4-.8-.5-1.7-.1-2.5s1.2-1.3 2-1.4c.7-.1 18.5-2.1 41.3.5.9.1 1.6.6 2 1.4s.4 1.7 0 2.5l-12.9 23.2-1 57.2 4.7 25.9 26.8-8.3 34.6-59 3.6-27c.1-.7.5-1.4 1.1-1.8.6-.4 1.4-.6 2.1-.4.9.2 22.3 5.6 33.4 18.6.5.5.8 1.2.8 2 0 1.1-.7 2.1-1.7 2.5-.3.1-.5.1-.8.2-2.7 1.4-13.7 9.3-23.5 16.6l-49.7 85.9 4.8 7.7 32.2-15.9 68-32.7c7.8-5.5 18-23.2 18.1-23.3.4-.7 1.1-1.2 1.8-1.3.8-.1 1.6.1 2.2.6.4.4 10.6 9.2 21.9 35.3.4.9.3 1.9-.3 2.6-.6.8-1.5 1.2-2.4 1.1-13.1-1.4-30.6-.7-33.9-.5l-72.2 36.4-9.5 18.6 13 24.1 26.8-12.2c.3-.1.5-.2.8-.2l65.3-6.8c2.6-.8 23.5-7.6 33.2-12.4.7-.4 1.6-.4 2.3 0 .7.4 1.3 1 1.4 1.8 2.2 10.4-2.9 42.9-3.1 44.3-.1.9-.7 1.7-1.6 2-.8.4-1.8.2-2.6-.3-8.7-6.2-22.3-15.2-26.1-16.4l-72.3 8.7-7.4 25.6-1.7 12.2 24.5.5c.2 0 .3 0 .5.1l54.5 11.5 26.5-3.1c.8-.1 1.7.2 2.3.8.6.6.8 1.5.6 2.3-.2.8-3.9 19.2-14.7 34.8-.5.7-1.2 1.1-2 1.1.1-.2.1-.2 0-.2zm-92.9-35.8 12.7.4h.4l64.5 12.3c.6.1 1.1.4 1.5.8l13.6 15.4c6.2-10 9.6-20.9 11.1-26.4l-23.2 2.7h-.9l-54.7-11.6-27.2-.5c-.4 0-.9-.1-1.3-.3l3.5 7.2zM406.8 187.1l77.8 8.4c.6.1 1.2.3 1.6.8l56 55.5c.2.2.4.5.5.7l18.8 38.8 2.1-15.3c0-.1 0-.2.1-.4l7.9-27.5c.3-1 1.2-1.8 2.2-1.9l74.5-9h.8c4.5.9 18.1 10.1 25 14.9 1.4-9.6 3.4-26.1 2.9-34.8-11.4 5.1-30 11-30.8 11.3-.2.1-.3.1-.5.1l-65.1 6.8-28.7 13c-1.3.6-2.8.1-3.4-1.2L533.7 220c-.4-.8-.4-1.7 0-2.5l10.6-20.6c.3-.5.7-.9 1.2-1.2l73.5-37c.3-.2.7-.3 1-.3.7 0 16.8-.9 30.8.1-6.9-15.1-13.2-23.4-16.4-27-3.4 5.6-11.2 17.5-18 22.2-.1.1-.2.1-.4.2l-68.2 32.8-34.3 16.9c-1.2.6-2.7.2-3.4-1l-6.9-11.1c-.5-.8-.5-1.9 0-2.7l50.7-87.7c.2-.3.4-.6.7-.8 12.3-9.2 18.9-13.9 22.6-16.1-8-7.7-20.2-12.1-25.7-13.8l-3.3 24.5c0 .3-.2.7-.3 1l-35.4 60.3c-.3.6-.9 1-1.5 1.2l-30.7 9.5c-.7.2-1.5.1-2.2-.3-.6-.4-1.1-1-1.2-1.8l-5.3-29.1v-.5l1.1-58.1c0-.4.1-.9.3-1.2l11.3-20.3c-14.2-1.3-26.2-.9-32.1-.5l11.7 20.7c.2.4.3.8.3 1.2l2.1 57.9 6.3 26.7c.3 1.1-.2 2.2-1.1 2.8l-13.2 8.5c-1.2.7-2.7.5-3.5-.6l-54.4-70.8c-.3-.4-.5-1-.5-1.5l-.9-27.4c-5.4 1.6-17.1 5.8-25.7 14.5 11.2 4.8 21.1 14.7 21.6 15.1l.3.3 31.7 42.8c.3.4.5.9.5 1.5l1.6 34.9c0 .7-.2 1.4-.7 1.9s-1.2.8-1.9.8h-14.3c-.4 0-.8-.1-1.2-.3L353 154c-.3-.1-.5-.3-.7-.6L336 135.3c-6.8 10.5-8.9 21-9.5 25.8l24-.5c.4 0 .8.1 1.2.3l55.1 26.2z"/><path id="XMLID_263_" d="M631.7 345.6c-.3 0-.7-.1-1-.2l-52.3-21.1c-1-.4-1.7-1.5-1.6-2.6l.8-17.3c0-.8.4-1.5 1-2s1.4-.7 2.1-.5l63.2 12.1c.8.2 1.5.7 1.8 1.4.4.7.4 1.6.1 2.3l-11.6 26.4c-.6 1-1.5 1.5-2.5 1.5zm-49.6-25.5 48.2 19.5 9.3-21-56.9-10.9-.6 12.4z"/><path id="XMLID_260_" d="M568.2 278c-.7 0-1.4-.3-1.9-.8s-.8-1.3-.7-2l.7-8.8c0-.2 0-.3.1-.5l5.1-17.7c.3-1 1.2-1.8 2.2-1.9l74.5-9c1.4-.2 2.7.8 2.9 2.2l4.8 32.8c.1.7-.1 1.5-.6 2.1-.5.6-1.2.9-1.9.9l-85.2 2.7c.1 0 .1 0 0 0zm3.4-10.9-.5 5.6 79.2-2.5-4-27.3-70.2 8.5-4.5 15.7z"/><path id="XMLID_257_" d="M544.5 233.1c-.3 0-.7-.1-1-.2-.7-.3-1.2-.9-1.5-1.6l-5.8-16.8c-.2-.7-.2-1.4.1-2.1l7.9-15.5c.3-.5.7-.9 1.2-1.2l73.5-37c.6-.3 1.4-.4 2.1-.1.7.2 1.2.8 1.5 1.4l12.2 28c.6 1.3 0 2.8-1.3 3.4l-87.7 41.2c-.5.4-.9.5-1.2.5zm-3-19.2 4.5 12.9 82.8-38.9-10-23.1-70.2 35.3-7.1 13.8z"/><path id="XMLID_254_" d="M522.3 200.3c-.3 0-.5 0-.8-.1l-15.1-4.5c-.6-.2-1.1-.6-1.5-1.1l-1.8-2.9c-.5-.8-.6-1.9-.1-2.7l50.7-87.7c.7-1.2 2.2-1.7 3.4-1.1l34.4 16.4c.7.3 1.3 1 1.4 1.8.2.8 0 1.6-.5 2.2l-46 56.6-.2.2-22.2 22.2c-.4.4-1 .7-1.7.7zm-13.4-9.4 12.6 3.8 21-21 43.8-53.8-29.1-13.9-48.7 84.2.4.7z"/><path id="XMLID_251_" d="M478.9 164.1c-.3 0-.6 0-.9-.1-.9-.3-1.6-1.1-1.7-2l-4.8-26.2v-.5l1.1-58.1c0-1.4 1.2-2.6 2.6-2.6l37.5.5c.8 0 1.6.4 2.1 1.1.5.7.6 1.5.4 2.3l-22.7 74c-.1.5-.4.9-.8 1.2l-11.1 9.8c-.4.4-1 .6-1.7.6zm-2.1-29 3.9 21.3 7-6.2 21.5-69.9-31.4-.4-1 55.2z"/><path id="XMLID_248_" d="M456.7 173.4c-.8 0-1.6-.4-2.1-1l-54.4-70.8c-.5-.6-.6-1.4-.5-2.1.2-.8.6-1.4 1.3-1.8l27.5-15.3c.6-.4 1.4-.4 2.1-.2.7.2 1.3.7 1.6 1.4l22.7 50.2 13.4 30.1c.5 1.2.1 2.6-1 3.3l-9.1 5.9c-.5.1-1 .3-1.5.3zm-50.5-72.7 51.1 66.5 5.2-3.3-12.5-28-21.5-47.6-22.3 12.4z"/><path id="XMLID_245_" d="M421.2 184.5h-9.4c-.4 0-.8-.1-1.2-.3L353 154c-.6-.3-1.1-.9-1.3-1.6-.2-.7-.1-1.5.3-2.1l13.7-22.7c.8-1.2 2.4-1.6 3.6-.9l46 27.5c.6.3 1 .9 1.2 1.5l7.9 24.8c.3 1 0 2.1-.8 2.8l-.6.5c-.6.4-1.2.7-1.8.7zm-8.7-5.3h5.9l-6.7-21-42.9-25.6-10.9 18.1 54.6 28.5z"/><g id="XMLID_243_"><path id="XMLID_233_" d="M545.5 416.5s-10.6 19-6.9 31.2c3.7 12.2 15.9 21.7 21.1 22.2 5.3.5 7.4-2.1 7.4-4.2s-5.3-9-5.8-16.9 12.7-29.6 13.2-39.6c3.2 7.9 12.2 19.6 19.6 22.2s20.6-.5 20.1-5.3-16.9-10-18.5-22.7c-1.6-12.7 2.1-27-2.1-34.9 8.5.5 25.9-3.2 32.8-21.1.5-3.7 1.6-6.9-.5-8.5-2.1-1.6-12.2 7.9-25.4 5.8s-21.7-16.9-21.7-16.9 12.2-13.7 5.3-22.7c5.3-3.2 7.9-8.5 7.4-12.7-.5-4.2-9-4.2-13.2-4.2s-9.5-1.1-9.5-4.8 3.2-13.2 7.4-13.2 3.2 5.3 6.9 5.3 6.9-3.7 6.3-10.6c-.5-6.9-13.2-14.3-13.2-14.3s8.5-7.4 5.8-15.3c-2.6-7.9-5.3-8.5-10.6-9s-3.2 9-15.9 10.6c-7.4.5-10-9-9-14.3 1.1-5.3 8.5-9.5 11.6-9 3.2.5 1.1 6.3 3.2 7.9 2.1 1.6 6.9-2.1 7.4-6.3s-.5-11.1-4.8-15.3c-4.2-4.2-21.1-2.6-21.1-2.6s8.5-9.5 7.4-15.9c-1.1-6.3-10.6-14-16.9-15.6-6.3-1.6-13.7-.8-14.3 4.5-.5 5.3 8.5 2.6 7.4 10-1.1 7.4-7.4 10-14.8 9.5s-12.7-6.9-13.2-14.8 4.2-12.2 6.3-12.7 7.4 2.6 10.6-.5c3.2-3.2 1.6-10.6-4.2-13.7-9.5-5.3-27 5.8-27 5.8s-3.2-15.3-10-18.5c-6.9-3.2-18-2.1-21.7-.5-3.7 1.6-6.3 5.3-6.3 7.4s13.7 2.6 13.2 15.9c-1.1 7.7-6.3 13.2-15.3 12.7s-9-6.3-9.5-10.6c-.5-4.2-.5-14.3-6.3-15.9-5.8-1.6-12.2 2.1-15.9 9.5s-2.6 17.4 3.2 23.8c-5.3 1.1-15.9 10-14.8 23.3 4.8-1.6 15.3-6.9 23.3-3.2s8.5 13.7 8.5 13.7l64.5 86.7 48.5 118.3z" style="fill:#382100"/><path id="XMLID_240_" d="M561.1 472.6c-.5 0-1 0-1.6-.1-6.7-.7-19.5-11.1-23.4-24.1-3.5-11.4 4.2-27.6 6.5-32.1l-48-116.9-64.3-86.4c-.3-.4-.5-.9-.5-1.4 0-.1-.6-8.5-6.9-11.5-5.7-2.6-13.4.3-18.6 2.3-1 .4-2 .7-2.7 1-.8.3-1.6.1-2.3-.3-.7-.4-1.1-1.2-1.2-2-1-12.2 6.8-21.2 13.2-24.6-4.4-6.9-5-16.4-1.3-23.8 4.2-8.4 11.8-12.8 18.9-10.9 6.8 1.8 7.6 10.8 8.1 16.1.1.7.1 1.4.2 2 0 .3.1.6.1.9.5 4 .8 7 6.9 7.3 6.9.4 11.5-3.4 12.5-10.3.2-7-4.1-9.4-8.9-11.4-2.2-.9-4.3-1.8-4.3-4.2 0-3.5 3.6-8 7.9-9.8 4-1.7 16-3.1 23.8.6 5.8 2.7 9.2 11.7 10.6 16.8 5.9-3.2 18.2-8.7 26.5-4.1 3.8 2.1 6.5 5.8 7.1 10 .5 3.1-.4 6-2.3 7.9-3.1 3.1-7.4 2.2-10 1.6-.6-.1-1.5-.3-1.8-.3-1.1.4-4.7 3.6-4.3 9.9.5 6.8 4.9 11.9 10.8 12.3 4.1.3 11-.3 12-7.3.3-2-.2-2.3-2.5-3.3-1.9-.8-5.4-2.4-4.9-6.7.2-2.3 1.3-4.2 3.2-5.5 3.2-2.2 8.5-2.7 14.3-1.3 6.7 1.7 17.6 9.9 18.9 17.7.7 4.4-2 9.6-4.4 13.3 5.8-.1 14.1.4 17.4 3.7 4.7 4.7 6.2 12.2 5.5 17.5-.5 4-3.6 7.3-6.4 8.5-1.9.8-3.8.7-5.2-.4-1.9-1.4-2.1-3.8-2.2-5.7 0-.5-.1-1.3-.2-1.7-2.1.1-7.5 3.3-8.2 6.9-.5 2.7.2 7.1 2.3 9.5 1.1 1.2 2.3 1.7 3.8 1.6 6.2-.8 7.9-3.5 9.6-6.2 1.3-2 3-4.8 6.8-4.4 6.5.6 9.9 1.9 12.8 10.8 2.2 6.5-1.5 12.4-4.2 15.7 4.1 2.8 11.3 8.6 11.7 14.6.3 4.5-.7 8.3-3 10.7-1.6 1.7-3.7 2.7-6 2.7-3.4 0-4.7-2.4-5.5-3.9-.8-1.4-.9-1.4-1.4-1.4-1.6 0-4.8 6.9-4.8 10.6 0 1 2.6 2.1 6.9 2.1 5.2 0 15 0 15.8 6.5.6 4.9-1.9 10.2-6.5 13.8 3.9 8.3-2.7 18.3-5.6 22.2 2.4 3.6 9.4 12.6 18.8 14.1 7.7 1.2 14.3-2 18.7-4.1 3.3-1.6 5.8-2.8 7.8-1.2 3 2.3 2.4 5.9 1.9 9.1l-.3 1.8c0 .2-.1.4-.1.6-6.4 16.8-21.7 22.1-31.4 22.8 1.3 4.8 1 10.6.8 16.7-.2 5.1-.4 10.3.2 15.2.8 6.7 6.8 11.3 11.7 14.9 3.6 2.8 6.5 4.9 6.9 7.9.1 1.1 0 3.3-2.6 5.4-4.6 3.6-14.8 4.9-21 2.7-6.5-2.3-13.3-10.1-17.7-17-1.4 4.3-3.5 9.1-5.5 13.8-3 6.9-6.3 14.7-6.1 18 .3 4.6 2.4 8.9 4 12 1.1 2.2 1.8 3.7 1.8 5.1 0 1.8-.8 3.5-2.2 4.7-1 1.2-3 2.4-6.4 2.4zM435 210.4l64 86.1.3.6L548 415.5c.3.7.3 1.6-.1 2.3-.1.2-10 18.2-6.7 29.1 3.5 11.4 15.1 20 18.9 20.3 1.8.2 3.3-.1 4-.8.3-.3.4-.6.4-.7-.1-.5-.8-1.8-1.3-2.8-1.7-3.3-4.1-8.4-4.5-14-.3-4.6 2.9-12 6.5-20.5 3.2-7.4 6.5-15 6.7-19.5.1-1.2 1-2.3 2.2-2.5 1.2-.2 2.4.5 2.9 1.6 3.1 7.7 11.6 18.4 18 20.7 4.4 1.6 11.4.6 14.8-1.2 1.3-.7 1.7-1.2 1.7-1.4-.2-.8-2.9-2.7-4.8-4.2-5.3-4-12.6-9.5-13.7-18.5-.7-5.4-.4-10.8-.2-16.1.3-7.1.6-13.8-1.6-17.9-.5-.8-.4-1.9.1-2.7.5-.8 1.4-1.3 2.4-1.2 7.6.5 23.7-2.9 30-19.2.1-.6.2-1.1.3-1.7.2-1.1.4-2.6.4-3.4-.7.3-1.7.8-2.5 1.2-4.7 2.3-12.5 6-21.9 4.5-14.3-2.3-23.2-17.6-23.5-18.2-.6-1-.4-2.2.3-3.1.1-.1 10.6-12.2 5.2-19.4-.5-.6-.6-1.4-.5-2.1.1-.7.6-1.4 1.2-1.8 4.7-2.8 6.5-7.2 6.1-10.1-.1-.4-1-1.9-10.6-1.9-7.6 0-12.2-2.8-12.2-7.4 0-4.1 3.5-15.9 10-15.9 3.8 0 5.2 2.7 6 4.1.2.4.5 1 .7 1.1h.1c.8 0 1.5-.3 2.1-1 1.2-1.3 1.8-3.8 1.6-6.7-.3-4-7.5-9.6-11.9-12.2-.7-.4-1.2-1.2-1.3-2-.1-.8.3-1.7.9-2.2.1-.1 7.1-6.4 5-12.5-2.2-6.6-3.7-6.7-8.3-7.2-.4 0-.5-.1-1.8 1.9-1.9 3-4.7 7.5-13.5 8.6h-.1c-3.2.2-6.1-1-8.2-3.4-3.4-3.8-4.3-9.9-3.5-14 1.3-6.7 10.1-11.8 14.7-11.1 3.8.6 4.1 4.5 4.2 6.6 0 .4.1 1.1.2 1.6 1-.5 2.9-2.2 3.1-4.3.4-3.3-.3-9.4-4-13.1-2.3-2.3-12.7-2.5-19-1.9-1.1.1-2.1-.5-2.6-1.4-.5-1-.3-2.1.4-2.9 2.9-3.3 7.4-10 6.8-13.7-.8-5-9.4-12.1-14.9-13.5-4.1-1-8.1-.8-10 .5-.6.4-.9 1-1 1.7v.3c.2.3 1.2.7 1.8 1 2.3 1 6.5 2.8 5.6 8.8-1.2 8.1-7.7 12.5-17.6 11.8-8.6-.6-15-7.7-15.7-17.3-.6-9.3 5.1-14.6 8.3-15.4 1.3-.3 2.7 0 4.2.3 2.4.5 4.1.8 5.1-.2.7-.7 1-2 .8-3.4-.3-2-1.6-4.6-4.4-6.2-6.7-3.7-19.8 2.9-24.3 5.7-.7.5-1.6.5-2.4.2-.8-.3-1.4-1-1.6-1.9-1.1-5.4-4.5-14.7-8.6-16.6-6.2-2.9-16.6-1.8-19.5-.5-2.3 1-3.7 2.8-4.4 4 .2.1.5.2.7.3 4.1 1.7 12.6 5.4 12.1 16.6v.3c-1.3 9.7-8.4 15.5-18.1 15-10.6-.6-11.4-8-11.9-12l-.1-.9c-.1-.6-.1-1.3-.2-2.1-.3-3.7-1-10.6-4.2-11.5-4.6-1.3-9.7 2-12.8 8.1-3.3 6.7-2.2 15.4 2.8 20.8.6.7.9 1.7.6 2.6-.3.9-1.1 1.6-2 1.8-3.8.8-11.7 7.2-12.6 16.9 5.7-2.1 14.4-5.1 21.7-1.8 8 4.3 9.6 13 10 15.7z"/></g><path id="XMLID_239_" d="M564.5 255.3c-1.3 0-2.4-.9-2.6-2.2-.3-1.4.7-2.8 2.1-3.1l11.6-2.1c1.4-.3 2.8.7 3.1 2.1.3 1.4-.7 2.8-2.1 3.1l-11.6 2.1c-.1.1-.3.1-.5.1z"/><path id="XMLID_238_" d="M532.3 205.6c-.9 0-1.8-.5-2.3-1.4-.7-1.3-.2-2.9 1-3.6l10.6-5.8c1.3-.7 2.9-.2 3.6 1 .7 1.3.2 2.9-1 3.6l-10.6 5.8c-.4.3-.9.4-1.3.4z"/><path id="XMLID_237_" d="M480 172.3c-.4 0-.9-.1-1.3-.3-1.3-.7-1.7-2.3-1-3.6 1.3-2.4 4.7-9.7 3.9-14.1-.2-1.4.7-2.8 2.2-3 1.5-.2 2.8.7 3 2.2 1.2 7-3.9 16.5-4.5 17.6-.5.7-1.4 1.2-2.3 1.2z"/><path id="XMLID_236_" d="M429.8 184.5c-.7 0-1.4-.3-2-.9-.2-.2-4.1-4.3-12-3.4-1.4.2-2.8-.9-2.9-2.3-.2-1.5.9-2.8 2.3-2.9 10.7-1.2 16.3 4.8 16.5 5.1 1 1.1.9 2.8-.2 3.7-.5.4-1.1.7-1.7.7z"/><path id="XMLID_235_" d="M574.6 411.7c-.2 0-.4 0-.6-.1-1.4-.3-2.3-1.7-2-3.2 1.8-7.9-2.9-12.2-2.9-12.3-1.1-1-1.2-2.7-.2-3.7 1-1.1 2.7-1.2 3.7-.2.3.3 6.9 6.4 4.5 17.3-.2 1.4-1.3 2.2-2.5 2.2z"/><path id="XMLID_234_" d="M593.6 371c-.9 0-1.8-.4-2.3-1.3-5.6-9-15.2-4.5-15.6-4.3-1.3.6-2.9.1-3.5-1.2-.6-1.3-.1-2.9 1.2-3.5 4.9-2.4 16-4.1 22.4 6.3.8 1.2.4 2.9-.9 3.6-.3.3-.8.4-1.3.4z"/><g id="XMLID_232_"><path id="XMLID_228_" class="st1" d="M343.1 489.9s-14.8 27.5-27 35.4c32.8 7.4 111 23.8 111 23.8l21.1-23.3-10-87.2-35.9-9.5-59.2 60.8z"/><path id="XMLID_229_" d="M427.1 551.8c-.2 0-.4 0-.5-.1-.8-.2-78.6-16.5-111-23.8-1-.2-1.8-1.1-2-2.1-.2-1 .3-2.1 1.2-2.7 11.4-7.5 25.9-34.2 26.1-34.4.1-.2.3-.4.4-.6l59.2-60.8c.7-.7 1.6-1 2.6-.7l35.9 9.5c1.1.3 1.8 1.2 1.9 2.3l10 87.2c.1.8-.2 1.5-.7 2.1L429.1 551c-.5.5-1.2.8-2 .8zm-105-27.8c32 7.1 93.8 20.1 104.1 22.3l19.3-21.2-9.7-84.2-32.7-8.7-57.9 59.4c-1.5 2.8-12.4 22.3-23.1 32.4z"/></g><g id="XMLID_227_"><path id="XMLID_220_" class="st1" d="M418.7 514.2s-6.3 34.9 29.1 51.3 89.8 20.1 112-2.1c15.9-16.9 18-33.3 18-33.3l-104.6-38.6-54.5 22.7z"/><path id="XMLID_224_" d="M509.8 581.6c-21.3 0-44.5-5.1-63.1-13.7-36.8-17-30.6-53.8-30.6-54.1.2-.9.8-1.6 1.6-2l54.4-22.7c.6-.3 1.3-.3 1.9 0l104.6 38.6c1.2.4 1.9 1.6 1.7 2.8-.1.7-2.4 17.4-18.7 34.8-11.3 11.3-30.7 16.3-51.8 16.3zm-88.7-65.5c-.7 6.5-1.8 33.3 27.8 47 34.8 16.1 88.1 19.4 109.1-1.6 11.8-12.6 15.7-25 16.8-29.7l-101.6-37.4-52.1 21.7z"/></g><path id="XMLID_661_" class="st2" d="M495.8 373.7c0-20.1-35.4 1.1-35.4 1.1s-1.1 12.4-4.3 23.2l43.9-1.6c-2.4-8.3-4.2-16.2-4.2-22.7z"/><path id="XMLID_660_" class="st1" d="m554.5 394.3-54.5 2c5.1 16.9 13.4 34.5 15.9 41.3 3.7 10 1.1 20.6 1.1 20.6s38.5-20.2 58.2-17.5c0-1.3-.1-2.1-.1-2.1l-20.6-44.3z"/><path id="XMLID_659_" class="st1" d="M429.8 437.1c6.9-13.7 9-18 18.5-24.8 3.4-2.5 6-8.1 7.9-14.3l-1 .1-37 43.3s-2.6 4.6-6.6 11.5c6.1-2.9 14.2-7.8 18.2-15.8z"/><path id="XMLID_658_" class="st0" d="M517 458.2s2.6-10.6-1.1-20.6c-2.5-6.8-10.8-24.4-15.9-41.3l-43.9 1.6c-1.8 6.2-4.4 11.8-7.9 14.3-9.5 6.9-11.6 11.1-18.5 24.8-4 8-12.1 12.9-18.2 15.7-3.8 6.5-8.7 15.1-13.9 23.8 14.1 1.9 49.6 6.9 90.7 13.4 48.1 7.6 80.3 5.4 88.9 2.9-.1-.3-.1-.5-.1-.8-1.4-10.5-2-42.9-2.1-51.3-19.5-2.8-58 17.5-58 17.5z"/><path id="XMLID_221_" d="M549.3 497.8c-15.7 0-36.7-1.4-61.3-5.3-36.3-5.7-71.6-10.8-90.7-13.4-.9-.1-1.6-.7-2-1.5s-.3-1.7.1-2.5c10.5-17.7 20.3-35 20.4-35.2.1-.1.2-.3.3-.4l37-43.3c.5-.6 1.2-.9 1.9-.9l99.4-3.7c1.1 0 2 .6 2.5 1.5l20.6 44.4c.2.3.2.7.2 1.1 0 .4.5 41.2 2.1 53.1v.3c0 .1 0 .2.1.3.3 1.4-.5 2.7-1.9 3.1-4.7 1.3-14.6 2.4-28.7 2.4zM402 474.5c19.8 2.7 52.8 7.5 86.9 12.8 44 7 74.8 5.5 85.6 3.5-1.4-13-1.9-46.5-1.9-51.5L552.9 397l-96.4 3.6-36.1 42.3c-1.1 1.9-9.3 16.2-18.4 31.6z"/><g id="XMLID_219_"><path id="XMLID_214_" class="st3" d="M472.1 223s39.1-10 61.3 15.9c22.2 25.9 17.4 48.6 17.4 48.6L518 317.6l-54.4-70.8 8.5-23.8z"/><path id="XMLID_216_" d="M518 320.3h-.2c-.7-.1-1.4-.4-1.9-1l-54.4-70.8c-.5-.7-.7-1.7-.4-2.5l8.5-23.8c.3-.8 1-1.5 1.8-1.7 1.7-.4 41-10.1 64 16.7 22.8 26.6 18.2 49.9 18 50.9-.1.5-.4 1-.8 1.4l-32.8 30.1c-.5.4-1.1.7-1.8.7zm-51.4-74 51.8 67.4 30-27.5c.5-4.1 1.8-23.7-17-45.6-18.6-21.7-50.4-16.7-57.3-15.3l-7.5 21z"/></g><path id="XMLID_215_" d="M280.2 321.3h-.4c-1.4-.2-2.4-1.5-2.2-3 .2-1.8.4-7.1-1.7-10.3-.8-1.2-.5-2.9.7-3.7 1.2-.8 2.9-.5 3.7.7 3.7 5.5 2.6 13.7 2.5 14-.2 1.4-1.3 2.3-2.6 2.3z"/><g id="XMLID_213_"><path id="XMLID_209_" class="st6" d="M265.4 322.4c-16.4 3.7-24.8-15.3-24.8-15.3s-16.1 12.1-32.1-1.1c-4.8 7.2-13.5 14.1-16 28.5-.8 4.7-.2 9 1.5 12.9 7-3.8 19.3-8.5 32.9-5 16.6 4.1 26.6 19.3 30.2 25.7l7.3-4 20.6-33.3 1-7.4c-5.3 1.5-12.7 2.4-20.6-1z"/><path id="XMLID_210_" d="M257.1 370.8c-.9 0-1.8-.5-2.3-1.3-3.4-6.1-13.1-20.6-28.6-24.4-12.4-3.1-23.7.9-31 4.8-.7.3-1.4.4-2.1.2-.7-.2-1.3-.8-1.6-1.5-2-4.7-2.5-9.6-1.6-14.4 2-11.5 7.8-18.6 12.4-24.3 1.5-1.8 2.9-3.6 4-5.3.4-.6 1.1-1 1.8-1.1.7-.1 1.5.1 2.1.6 14.2 11.7 28.7 1.1 28.8 1 .6-.5 1.5-.6 2.3-.4.8.2 1.4.7 1.7 1.5.3.7 7.8 17 21.8 13.8.5-.1 1.1-.1 1.6.1 5.9 2.5 12.2 2.8 18.8.9.9-.2 1.8 0 2.5.5.7.6 1 1.5.9 2.4l-1 7.4c0 .4-.2.7-.4 1l-20.6 33.3c-.2.4-.6.7-1 .9l-7.3 4c-.4.2-.8.3-1.2.3zm-40-32.2c3.3 0 6.8.4 10.4 1.3 15.7 3.9 25.9 17.2 30.5 24.7l4.4-2.4 20-32.2.4-3.1c-6.1 1.1-12.1.5-17.7-1.7-12.5 2.3-21.5-7.2-25.6-14.3-5.3 2.9-17.8 7.7-30.5-1.1-.8 1.1-1.8 2.2-2.7 3.4-4.5 5.5-9.5 11.7-11.3 21.9-.5 2.9-.4 5.9.4 8.8 5.9-2.8 13.3-5.3 21.7-5.3z"/></g><g id="XMLID_208_"><path id="XMLID_204_" class="st0" d="M240.6 307.1s8.5 19 24.8 15.3c7.9 3.4 15.3 2.5 20.6 1.1l3.8-27.5-10-22.7L248 260s-3.2-8.5-10-6.3c-6.9 2.1-8.5 12.2-10.6 18.5-2.6-4.2-7.9-8.5-15.3-7.4-7.4 1.1-10 6.3-10.6 13.2-.5 6.9 7.9 11.6 11.1 4.8 3.2 3.2 1.1 15.3-3.7 22.7-.1.2-.2.4-.4.5 16 13.1 32.1 1.1 32.1 1.1z"/><path id="XMLID_205_" d="M276.9 327.4c-4.1 0-8.1-.7-11.8-2.2-1.3.2-2.6.4-3.8.4-10.5 0-18.1-8.3-21.8-14.7-5.6 3-19.2 8.3-32.7-2.7-.6-.5-.9-1.2-1-1.9 0-.7.2-1.4.6-1.9.1-.1.1-.2.2-.3 3.4-5.2 4.8-12.1 4.8-16.1-1.6.9-3.4 1.1-5.4.6-3.9-1-7.6-5.3-7.2-10.7.7-9.3 5-14.5 12.8-15.6 6.8-1 11.6 1.8 14.6 4.6 1.8-6.3 4.3-13.5 10.9-15.6 6.6-2 11 3.1 12.8 6.8l30.7 12.8c.6.3 1.1.8 1.4 1.4l10 22.7c.2.4.3.9.2 1.4l-3.8 27.5c-.1 1-.9 1.9-1.9 2.2-3.1.8-6.4 1.3-9.6 1.3zm-11.5-7.6c.4 0 .7.1 1 .2 5.3 2.3 11.1 2.8 17.1 1.4l3.4-25-9.3-21.1-30.7-12.8c-.7-.3-1.2-.8-1.5-1.5-.1-.2-2.4-6.1-6.8-4.7-4.3 1.3-6.1 7.6-7.7 13.1-.4 1.3-.7 2.5-1.1 3.7-.3 1-1.2 1.7-2.2 1.8-1 .1-2-.4-2.6-1.2-1.1-1.7-5.2-7.3-12.7-6.2-5.3.8-7.8 4-8.3 10.8-.2 2.6 1.6 4.7 3.3 5.2.4.1 1.8.5 2.8-1.7.4-.8 1.1-1.3 1.9-1.5.9-.1 1.7.1 2.3.7 4.4 4.4 1.7 17-2.4 24.5 13.6 9.4 26.8-.3 27-.4.6-.5 1.5-.6 2.3-.4.8.2 1.4.7 1.7 1.5.3.7 7.8 17 21.8 13.8.3-.2.5-.2.7-.2z"/></g><g id="XMLID_203_"><path id="XMLID_187_" class="st0" d="M226.8 342.5c-13.6-3.4-25.8 1.3-32.9 5 3.6 8.6 11.7 15.1 18.6 17.7 4.8 5.3 12.2 9 12.2 9l14.8 3.7 17.5-9.7c-3.5-6.4-13.6-21.6-30.2-25.7z"/><path id="XMLID_200_" d="M239.5 380.5c-.2 0-.4 0-.6-.1l-14.8-3.7c-.2 0-.4-.1-.5-.2-.3-.2-7.5-3.8-12.5-9.1-6.6-2.6-15.4-9.1-19.5-18.9-.5-1.3 0-2.7 1.2-3.3 8.1-4.3 20.7-8.8 34.8-5.3 17.7 4.4 28.2 20.3 31.9 27 .3.6.4 1.3.2 2s-.6 1.2-1.3 1.6l-17.5 9.7c-.5.2-.9.3-1.4.3zm-13.9-8.8 13.5 3.4 14.3-7.9c-4.2-6.8-13.3-18.7-27.2-22.1-11.2-2.8-21.5.2-28.7 3.7 3.7 6.9 10.5 12 16 14 .4.1.8.4 1 .7 3.9 4.3 9.9 7.5 11.1 8.2z"/></g><path id="XMLID_633_" class="st3" d="M313.5 355.2s-14.8-22.7-16.4-28.5c-1.6-5.8 1.6-16.9-.5-27-2.1-10-15.3-7.4-16.4-4.2-1.1 3.2-2.1 11.1-2.1 11.1s-3.2-5.8-5.3-7.9-10.6-1.6-12.2 5.8c-3.2 11.6 4.2 14.8 4.8 18 .5 3.2 0 21.1-2.6 27.5-2.6 6.3-12.7 7.4-15.9 12.2s-1.6 13.7 4.2 15.3c5.8 1.6 17.4-4.2 20.6-7.4 5.5 3.2 12.5 9.8 19.9 17.3l27.8-26.7c-3.4-3.4-5.9-5.5-5.9-5.5z"/><path id="XMLID_632_" class="st6" d="m399.6 369.4-33.3-2.1-18 13.2s-1.6-.5-6.3 2.6c-3.2-4.7-15.2-15.9-22.6-22.6l-27.8 26.7c16.7 17 35.5 39.2 43.5 40.3 11.6 1.6 40.7-9 40.7-9l9.5-15.3 20.6-9-6.3-24.8z"/><path id="XMLID_197_" d="M337.8 430.4c-1.1 0-2-.1-2.9-.2-6.6-.9-16.9-11.4-33-28.5-10.7-11.4-21.8-23.1-29.8-28.5-4.7 3.5-15.2 8.4-21.5 6.7-3.1-.8-5.5-3.2-6.8-6.7-1.6-4.2-1.1-9.3 1.1-12.6 1.8-2.7 5-4.3 8-5.8 3.3-1.7 6.5-3.3 7.6-5.9 2.3-5.6 3-23.1 2.5-26-.1-.3-.7-1.1-1.2-1.7-2.3-2.9-6.1-7.8-3.5-17.3.9-4.2 3.8-7.2 7.8-8.4 3.4-1 7-.5 8.8 1.4.6.6 1.3 1.5 1.9 2.4.3-1.7.7-3.4 1.1-4.5 1.1-3.2 6.2-4.9 10.5-4.6 5.7.3 9.8 3.8 11 9.2 1.2 5.8.8 11.8.4 17-.3 3.9-.5 7.6.1 9.8 1.1 3.9 10 18.5 15.9 27.5 2.5 2.3 20.5 18.4 27.1 26.3 2.1-1.2 3.7-1.7 4.9-1.8l17.3-12.7c.5-.4 1.1-.5 1.7-.5l33.3 2.1c1.1.1 2.1.9 2.4 2l6.3 24.8c.3 1.3-.3 2.6-1.5 3.1l-19.9 8.7-9.1 14.6c-.3.5-.8.9-1.3 1.1-1.4.1-26 9-39.2 9zm-66.1-63.1c.5 0 .9.1 1.3.4 8.8 5.2 20.9 18 32.5 30.4 11.6 12.3 24.7 26.2 29.9 26.9 8.7 1.2 30-5.5 38.6-8.5l9-14.5c.3-.5.7-.8 1.2-1l18.6-8.1-5.3-20.8-30.4-1.9-17.2 12.6c-.6.4-1.3.6-1.9.5-.3 0-1.6.3-4.5 2.2-1.2.8-2.8.5-3.6-.7-4.5-6.5-27.9-27.3-28.1-27.5l-.5-.5c-1.5-2.4-15.1-23.2-16.7-29.3-.8-3.1-.6-7-.2-11.6.4-4.9.7-10.5-.3-15.6-.5-2.6-2-4.1-4.5-4.7-3-.7-6.2.3-6.9 1-.8 2.5-1.7 8.3-1.9 10.4-.2 1.1-1 2-2.1 2.2-1.1.2-2.3-.3-2.8-1.3-1.2-2.1-3.5-6-4.8-7.3-.3-.2-2-.6-4 .1-1.4.5-3.1 1.7-3.7 4.4v.1c-1.9 7 .6 10.2 2.6 12.7 1 1.3 2 2.5 2.3 4.1.6 3.7.1 22-2.8 28.9-1.9 4.4-6.2 6.6-10.1 8.6-2.6 1.3-5 2.5-6 4-1.3 2-1.5 5.2-.6 7.9.4 1.1 1.4 2.9 3.3 3.5 4.4 1.2 15.2-3.8 18-6.7.3-.6 1-.9 1.6-.9z"/><path id="XMLID_628_" class="st0" d="M269.2 292.1c-1.6 2.3-4.7 4.8-10 6.1 1.5 2.8 2.4 5.7 3.6 8.4 2.6 5.8 11.1 5.3 10.6-3.2-.3-3.2-1.8-7.4-4.2-11.3z"/><path id="XMLID_627_" class="st1" d="M269.2 292.1c-4.1-6.7-10.6-12.9-17.5-13.5-17-1.6-28 2.1-28 13.7 3.2-3.2 15.3-6.3 25.4-2.6 5.5 2 8.3 5.2 10.1 8.6 5.4-1.5 8.3-4 10-6.2z"/><path id="XMLID_626_" class="st0" d="M283.7 294c1 4.1 1.4 7.8 1.8 9.9 1.1 6.9 11.6 7.9 10.6-4.2-.3-2.8-.6-5.9-1.3-9-2.9 2-6.8 3.9-11.1 3.3z"/><path id="XMLID_625_" class="st1" d="M272.3 263.7c-23.3-8.5-33.8-1.6-35.9 6.3 6.3-2.1 20.1-3.7 32.8 1.1 8.6 3.2 12.6 14.1 14.6 22.8 4.3.7 8.2-1.2 11-3.3-2.3-10.2-7.9-21.2-22.5-26.9z"/><path id="XMLID_624_" class="st0" d="M250.6 366.3c-4.2.4-5.7 3.3-11 4.4 2.7 4.4 3.7 9.2 4 12.5 4.8-1.3 8.6-3.4 10.7-5.2 3.7-3.3 2.1-12.3-3.7-11.7z"/><path id="XMLID_623_" class="st1" d="M231.6 371c-12.7-1.1-15.9-13.7-16.4-20.1-9.5 18.5 5.3 32.2 15.9 33.3 4.6.5 8.9-.1 12.6-1.1-.3-3.2-1.2-8-4-12.5-2 .5-4.6.7-8.1.4z"/><path id="XMLID_194_" d="M268.3 313c-3.3 0-6.4-2.1-7.9-5.4-.5-1.1-.9-2.2-1.4-3.3-1.9-4.9-3.7-9.6-10.9-12.2-9.3-3.4-20.3-.3-22.6 2-.8.8-1.9 1-2.9.6s-1.6-1.4-1.6-2.4c0-4.7 1.6-8.5 4.7-11.4 5-4.5 13.8-6.2 26.2-5 12.4 1.2 23.4 17.4 24.1 27.3.4 5.9-2.8 8.8-5.8 9.6-.7.2-1.3.2-1.9.2zm-29.2-27.7c3.6 0 7.4.5 10.9 1.8 9.4 3.5 12 10 14 15.3.4 1.1.8 2.1 1.2 3 .8 1.9 2.5 2.5 3.7 2.2 1.3-.3 2-1.9 1.9-4.2-.5-7.8-10-21.5-19.3-22.4-10.7-1-18.4.2-22.2 3.7-.8.7-1.4 1.5-1.9 2.4 3.2-1 7.3-1.8 11.7-1.8z"/><path id="XMLID_191_" d="M290.8 311.6c-3.9 0-7.3-3.1-8-7.3l-.1-1c-1.1-7-3.9-25.7-14.6-29.7-12.7-4.8-25.8-2.8-31-1-.9.3-1.9.1-2.6-.6-.7-.7-1-1.7-.7-2.6 1.1-4.1 3.9-7.5 8-9.6 5.1-2.7 14.7-4.6 31.4 1.5 20.6 8 24.4 25.6 25.5 38.2.7 8.2-3.3 11.7-6.9 12.1h-1zm-39.7-46.2c5.8 0 12.4.8 18.9 3.3 13.6 5.1 16.7 26 17.9 33.9l.1 1c.3 1.9 1.8 3 3 2.8 1.7-.2 2.6-2.8 2.3-6.4-1.1-12.1-4.5-26.9-22.1-33.7-11.6-4.2-21.2-4.8-27.1-1.8-1 .5-1.8 1.1-2.4 1.7 2.8-.5 5.9-.8 9.4-.8z"/><path id="XMLID_188_" d="M234.3 387c-1.2 0-2.3-.1-3.5-.2-7.2-.7-14.6-5.9-18.4-13-4-7.3-3.8-15.9.5-24.2.5-1 1.7-1.6 2.9-1.4 1.2.2 2 1.2 2.1 2.4.3 3.9 2.3 16.7 14 17.7 7.2.6 9.8-.9 12.3-2.4 1.7-1 3.5-2.1 6.2-2.3 3.4-.3 6.3 1.5 7.7 4.9 1.4 3.4 1.2 8.5-2.1 11.4-4.2 3.6-12.5 7.1-21.7 7.1zm-19.4-26.1c-.4 4.4.8 7.9 2.2 10.4 3.5 6.4 9.9 9.8 14.3 10.2 9.6 1 18-2.9 21.3-5.7 1.1-1 1.4-3.4.6-5.3-.8-1.9-2-1.7-2.4-1.7-1.5.1-2.6.8-4 1.6-2.9 1.7-6.6 3.9-15.4 3.1-8.7-.6-13.9-6-16.6-12.6z"/><g id="XMLID_186_"><path id="XMLID_182_" class="st4" d="M297.6 344.6c-1.6 4.8-1.1 12.2 4.8 13.7 12.2 3.7 21.1-10 21.7-19-1.1-4.8-10-6.3-12.7-5.8s-12.2 6.3-13.8 11.1z"/><path id="XMLID_183_" d="M306.4 361.6c-1.6 0-3.2-.2-4.8-.7-2.5-.7-4.6-2.3-5.9-4.8-2.2-4-1.7-9.2-.6-12.3 1.9-5.8 12.3-12.2 15.7-12.9 3.3-.7 14.3 1 15.8 7.8.1.2.1.5.1.7-.4 6-4.1 14.4-10.7 19-3 2.1-6.2 3.2-9.6 3.2zm-6.2-16.2c-.9 2.8-.8 6.2.3 8.2.6 1.1 1.5 1.8 2.7 2.2 3.5 1.1 6.8.5 9.9-1.7 5-3.5 8-10 8.4-14.5-1-2.5-7.5-3.9-9.5-3.5-2 .4-10.7 5.7-11.8 9.3z"/></g><path id="XMLID_608_" class="st1" d="M301.6 324.5c-6.9 0-12.4 5.5-12.4 12.4 0 3.1 1.2 6 3.1 8.2l19.7-15c-2.3-3.4-6.1-5.6-10.4-5.6z"/><path id="XMLID_607_" class="st0" d="M292.3 345.1c2.3 2.6 5.6 4.2 9.4 4.2 6.9 0 12.4-5.5 12.4-12.4 0-2.5-.7-4.9-2.1-6.8l-19.7 15z"/><g id="XMLID_181_"><circle id="XMLID_155_" class="st1" cx="301.6" cy="336.9" r="4"/><path id="XMLID_178_" d="M301.6 343.5c-3.6 0-6.6-3-6.6-6.6s3-6.6 6.6-6.6 6.6 3 6.6 6.6-2.9 6.6-6.6 6.6zm0-7.9c-.7 0-1.3.6-1.3 1.3s.6 1.3 1.3 1.3 1.3-.6 1.3-1.3-.6-1.3-1.3-1.3z"/></g><path id="XMLID_175_" d="M301.6 352c-8.3 0-15.1-6.8-15.1-15.1s6.8-15.1 15.1-15.1 15.1 6.8 15.1 15.1-6.8 15.1-15.1 15.1zm0-24.8c-5.4 0-9.8 4.4-9.8 9.8s4.4 9.8 9.8 9.8 9.8-4.4 9.8-9.8c0-5.5-4.4-9.8-9.8-9.8z"/><path id="XMLID_598_" class="st3" d="M282.7 438.2c-5.1-2.7-8-5.1-9.4-7.5-4.2-7.4-9-22.7-13.7-25.4-4.8-2.6-10-1.1-13.2 2.1-3.2 3.2-3.2 10.6 0 14.8-5.8-3.2-13.2-5.3-16.4-3.2-3.2 2.1-5.3 11.6-2.6 16.4 2.6 4.8 11.6 4.8 11.6 4.8s-1.1 4.2 2.1 9 12.7 14.3 15.3 15.3c.5 3.2 0 14.3-1.6 20.1s-12.7 9-15.3 14.3c-2.6 5.3 4.2 12.2 9 12.2 7.3-.5 27.7-29.8 36.3-31.1-2.9-10.8-6.5-28.9-2.1-41.8z"/><path id="XMLID_597_" class="st6" d="M415 394.8s-28.5 16.9-35.4 22.7-14.3 20.1-28.5 41.2c-36.7-8.2-57.4-14.8-68.3-20.5-4.4 12.9-.8 31 2.1 41.6.1 0 .1 0 .2-.1 8.5-1.1 40.7 14.3 81.9 12.2 7.4-1.6 38.6-45.5 48.1-51.8 9-2.1 13.7-9.5 13.7-9.5l4.8-26.4-18.6-9.4z"/><path id="XMLID_172_" d="M248.5 513.7c-3.7 0-8.1-2.8-10.5-6.7-2-3.2-2.3-6.5-.9-9.3 1.5-3.1 4.9-5.3 8.2-7.5 3.1-2 6.3-4.1 6.9-6.3 1.4-5 1.9-14 1.6-17.8-4.3-2.9-12.4-11.5-15-15.5-2-3-2.6-5.9-2.7-8-3.4-.4-8.8-1.7-11.2-5.9-3.1-5.6-1.2-16.8 3.5-19.9 3.1-2.1 8.2-1.4 13 .3-.7-4.4.3-9 2.9-11.6 3.7-3.7 10.2-6 16.4-2.6 3.9 2.2 7 9.3 10.3 16.9 1.6 3.6 3 7 4.4 9.4 4.2 7.3 28.5 16 74.2 26.3 4.4-6.6 8.1-12.4 11.4-17.6 7.1-11.2 11.8-18.5 16.6-22.6 7-5.9 34.6-22.3 35.8-23 .8-.5 1.7-.5 2.6-.1l18.5 9.5c1 .5 1.6 1.7 1.4 2.8l-4.8 26.4c-.1.3-.2.7-.4 1-.2.3-5.3 8.1-14.9 10.5-4.2 3-12.9 13.6-21.3 23.7-15.3 18.4-22.9 27.2-27.4 28.2-.1 0-.3 0-.4.1-27.9 1.4-51.3-4.9-66.8-9.1-6.7-1.8-12.6-3.4-14.9-3.1-3.4.4-11.5 9.1-17.4 15.4-9 9.6-14.7 15.5-19.2 15.8.2.3.2.3.1.3zm-15-92.8c-.9 0-1.6.1-2 .4-1.8 1.2-3.9 9.1-1.8 12.9 1.5 2.8 7.4 3.4 9.3 3.4.8 0 1.6.4 2.1 1s.7 1.5.5 2.3c0 .1-.7 3.2 1.7 6.9 3.2 4.7 12.2 13.5 14.1 14.3.8.4 1.5 1.1 1.6 2 .6 3.6.1 14.9-1.6 21.2-1.1 4.1-5.2 6.8-9.1 9.3-2.7 1.8-5.5 3.6-6.4 5.4-.7 1.4-.1 3 .6 4.1 1.5 2.5 4.2 4.1 5.9 4.2 2.7-.4 10.4-8.6 15.6-14.1 9.6-10.2 15.7-16.4 20.6-17 3.3-.4 8.7 1 16.9 3.2 15.1 4.1 38 10.2 64.9 8.9 3.5-1.2 16-16.3 24.3-26.4 9.3-11.3 18.1-21.9 22.8-25 .3-.2.6-.3.9-.4 6.7-1.6 10.8-6.5 11.8-8l4.3-23.9-15.5-7.9c-5.6 3.3-28 16.8-33.8 21.7-4.2 3.6-9 11.1-15.5 21.4-3.6 5.6-7.6 12-12.5 19.3-.6.9-1.7 1.3-2.8 1.1-63.4-14.2-75.7-22.7-79.4-29.1-1.5-2.7-3.1-6.2-4.7-9.9-2.4-5.5-5.7-13.1-8-14.4-3.7-2.1-7.7-.7-10.1 1.7-2.1 2.1-2.3 7.9.2 11.3.7 1 .7 2.4-.1 3.3-.8.9-2.2 1.2-3.3.6-4.5-2.6-8.9-3.8-11.5-3.8z"/><path id="XMLID_171_" d="M260.6 440.8c-.8 0-1.6-.4-2.1-1.1-4-5.5-10.8-13.8-13.3-15.1-1.3-.7-1.8-2.2-1.2-3.5.7-1.3 2.2-1.8 3.5-1.2 4.6 2.3 13.5 14.3 15.2 16.7.9 1.2.6 2.8-.6 3.7-.4.3-.9.5-1.5.5z"/><path id="XMLID_592_" class="st0" d="M262.2 408.5c-.4-2.3-2.6-5.5-5.9-8.7-4.9.8-8.4 3-10.7 5.2 3.8 4 5.3 8 8.2 9.9 4.7 3.2 9.5-.5 8.4-6.4z"/><path id="XMLID_591_" class="st1" d="M234.8 388.5c-14.3-2.6-32.8-1.6-34.9 15.9 7.9-9 20.6-10.6 33.8-6.9 5.7 2.1 9.3 4.9 11.9 7.6 2.3-2.2 5.8-4.4 10.7-5.2-5.1-5-12.9-9.9-21.5-11.4z"/><path id="XMLID_590_" class="st1" d="M213.6 422.3c5.1.3 9.1 2.3 12.7 4.4.6-3.9 1.8-8 4.2-11.2-3.8-1-8.1-1.7-12.7-2.2-14.3-1.6-30.7 3.2-28.5 19.6 3.7-5.3 14.3-11.1 24.3-10.6z"/><path id="XMLID_589_" class="st0" d="M236.3 431.8c6.9 1.6 10-4.2 9-8.5-.7-2.9-6.6-5.8-14.8-7.8-2.3 3.2-3.6 7.3-4.2 11.2 3.5 2.1 6.7 4.3 10 5.1z"/><path id="XMLID_588_" class="st1" d="M240.8 505.2c-2.9 1.5-6.2 2.7-9.7 2.7-10.6 0-25.9-12.7-26.4-24.3-2.6 24.8 11.6 31.7 25.9 32.8 5.5.4 10.9-.7 15.5-2.5-2-1.9-4.1-4.7-5.3-8.7z"/><path id="XMLID_587_" class="st0" d="M253.2 496.8c-2.4.7-6.8 5.3-12.5 8.4 1.3 4.1 3.2 6.8 5.3 8.6 7.5-2.9 13.1-7.5 14.1-10.1 1.6-4.3-3.2-8-6.9-6.9z"/><path id="XMLID_168_" d="M257.3 418.7c-1.7 0-3.4-.5-5-1.6-2-1.3-3.4-3.3-4.8-5.4-2.6-3.8-5.9-8.5-14.6-11.8-7.7-2.2-22-4.2-31 6.1-.8.9-2 1.1-3.1.7-1.1-.5-1.7-1.6-1.5-2.7.7-6.2 3.4-11 7.9-14.3 8.9-6.5 22.7-5.2 30.1-3.9 15.3 2.8 28.3 15.2 29.6 22.2.7 3.9-.6 7.5-3.5 9.4-1.3.9-2.7 1.3-4.1 1.3zM221.1 393c4.2 0 8.7.6 13.3 1.9.1 0 .1 0 .2.1 10.4 3.8 14.3 9.6 17.2 13.7 1.3 1.8 2.2 3.2 3.4 4 1.2.8 2.4.9 3.2.4 1-.7 1.5-2.2 1.2-4-.9-4.7-12.2-15.5-25.4-18-6.6-1.2-18.7-2.5-26 2.9-1 .7-1.9 1.6-2.6 2.5 4.5-2.3 9.7-3.5 15.5-3.5z"/><path id="XMLID_165_" d="M189.3 435.5c-.2 0-.4 0-.6-.1-1.1-.3-1.9-1.1-2-2.2-.8-6.3.8-11.7 4.7-15.6 5.5-5.6 15.5-8.2 26.8-6.9 2.8.3 27.6 3.3 29.8 12 .8 3.2-.2 6.9-2.5 9.2-2.4 2.4-5.8 3.3-9.6 2.4-3.2-.7-6-2.5-9-4.3-3.9-2.4-8-4.9-13.3-5.2-9.6-.5-19.1 5.3-22 9.4-.6.9-1.5 1.3-2.3 1.3zm23-15.9h1.4c6.6.3 11.5 3.3 15.8 5.9 2.6 1.6 5 3.1 7.4 3.6 2 .5 3.6.1 4.7-1 1-1.1 1.5-2.8 1.2-4.3-.5-1.9-9.5-6.3-25.2-8.1-9.5-1.1-18.1 1-22.4 5.4-1.4 1.4-2.4 3.1-2.9 5.1 5.1-3.6 12.6-6.6 20-6.6z"/><path id="XMLID_162_" d="M232.7 519.1c-.8 0-1.6 0-2.4-.1-10.1-.7-17.6-4.1-22.5-9.9-5.1-6.1-7-14.8-5.9-25.8.1-1.4 1.3-2.4 2.7-2.4 1.4 0 2.5 1.1 2.6 2.5.5 10.3 14.6 21.8 23.8 21.8 6.3 0 11.8-4.3 15.8-7.4 2.2-1.7 4-3.1 5.7-3.6 2.9-.8 6.3.2 8.5 2.6 2 2.2 2.6 5.1 1.6 7.8-2 5.3-15.6 14.5-29.9 14.5zm-24.8-21.7c.8 3.3 2.2 6 4.1 8.3 3.9 4.7 10.2 7.4 18.8 8 13.9 1 25.9-8.4 26.9-11 .3-.8.1-1.6-.5-2.3-.8-.9-2.2-1.4-3.1-1.1-.7.2-2.5 1.6-3.9 2.7-4.4 3.4-10.9 8.5-19 8.5-7.6 0-17.3-5.5-23.3-13.1z"/><path id="XMLID_577_" class="st1" d="M429.8 437.1c6.9-13.7 9-18 18.5-24.8 6.3-4.6 9.7-19.8 11.2-29.4l-27.5-1.2-44.4-29.1-38.6-4.8-.5 32.8 41.8-6.9 6.9 12.2-34.4 20.6 22.7 25.4 27-27.5 12.7 6.9-12.2 34.9 7 2c3.7-2.9 7.4-6.5 9.8-11.1z"/><path id="XMLID_576_" class="st1" d="M586.7 420.2 574.5 388l-77.5-3.4c3.9 19.7 15.8 44.7 18.9 53.1 3.7 10 1.1 20.6 1.1 20.6l23.3-4.2-4.8-41.2 12.7-5.3 15.3 38.1 27-10-3.8-15.5z"/><path id="XMLID_575_" class="st1" d="m493.2 421.2.5 40.7-29.6-2.1 3.2-38.6 14.8-11.6z"/><path id="XMLID_574_" class="st0" d="M515.9 437.6c-3.1-8.4-15.1-33.4-18.9-53.1l-37.6-1.7c-1.5 9.6-4.8 24.8-11.2 29.4-9.5 6.9-11.6 11.1-18.5 24.8-2.3 4.7-6 8.2-9.9 11l22.1 6.4 12.7-36.5s14.3 3.2 12.7 3.2c10.6 2.6 25.9 0 25.9 0l9.5-1.1 14.3 38.1c0 .1 2.6-10.4-1.1-20.5z"/><path id="XMLID_159_" d="M493.7 464.6h-.2l-29.6-2.1c-.7 0-1.4-.4-1.8-.9-.5-.5-.7-1.2-.6-1.9l3-36.3-8.2-2-11.9 34.2c-.5 1.3-1.9 2.1-3.2 1.7l-29.1-8.5c-.7-.2-1.3-.7-1.6-1.3-.3-.6-.4-1.4-.1-2.1l11.4-32.8-9-4.9-25.6 26.1c-.5.5-1.2.8-1.9.8s-1.4-.3-1.9-.9l-22.7-25.4c-.5-.6-.8-1.4-.6-2.2.1-.8.6-1.5 1.3-1.9l32.1-19.3-4.7-8.3-39.9 6.6c-.8.1-1.6-.1-2.2-.6-.6-.5-.9-1.3-.9-2l.5-32.8c0-.8.3-1.5.9-2 .6-.5 1.3-.7 2.1-.6l38.6 4.8c.4 0 .8.2 1.1.4l43.8 28.7 142 6.3c1.1 0 2 .7 2.4 1.7l12.2 32.2c0 .1.1.2.1.3l3.7 15.3c.3 1.3-.4 2.6-1.6 3.1l-27 10c-1.3.5-2.8-.2-3.4-1.5L546.7 411l-8.4 3.5 4.5 39.2c.2 1.4-.8 2.7-2.2 2.9l-23.3 4.2c-1.3.2-2.5-.5-2.9-1.7L501 423l-5.1.6.5 38.3c0 .7-.3 1.4-.8 2-.6.4-1.2.7-1.9.7zm-26.7-7.2 24.1 1.7-.5-37.8c0-1.4 1-2.5 2.4-2.7l9.5-1.1c1.2-.1 2.3.6 2.8 1.7l13.5 36 18.6-3.4-4.5-38.8c-.1-1.2.5-2.3 1.6-2.7l12.7-5.3c.7-.3 1.4-.3 2 0 .7.3 1.2.8 1.4 1.5l14.4 35.7 22.3-8.3-3.1-12.9-11.5-30.5-141-6.3c-.5 0-.9-.2-1.3-.4l-43.9-28.7-35.1-4.3-.4 26.7 38.6-6.4c1.1-.2 2.2.3 2.7 1.3l6.9 12.2c.7 1.2.3 2.8-.9 3.6l-31.6 19 18.7 20.9 25-25.5c.8-.8 2.1-1 3.1-.5l12.7 6.9c1.1.6 1.7 2 1.2 3.2l-11.2 32.3 24 7 11.9-34.1c.4-1.3 1.8-2 3.1-1.7l12.7 3.2c1.3.3 2.1 1.5 2 2.8l-2.9 35.7z"/><path id="XMLID_570_" class="st0" d="M460.4 374.7s-2.6 30.7-12.2 37.5c-3 2.2-5.3 4.1-7.2 6.1 1.2.3 2.3.5 3.5.7 30.7 6.2 51.4 5.5 64.9 2.9-6-14.6-13.6-34.7-13.6-48.4 0-19.9-35.4 1.2-35.4 1.2z"/><path id="XMLID_569_" class="st1" d="m531.8 412.8-2.1-43.3-59.2-26.5-61.8-6.3-23.8 10.6s-8.1 56.1 56.2 71.1c1.9-2 4.2-3.9 7.2-6.1 9.5-6.9 12.2-37.5 12.2-37.5s35.4-21.1 35.4-1.1c0 13.7 7.6 33.8 13.6 48.4 16.5-3.3 22.3-9.3 22.3-9.3z"/><path id="XMLID_156_" d="M487.7 426.6c-11.7 0-26.1-1.3-43.6-4.9-36.4-7.3-51.3-27.3-57.4-42.7-6.6-16.7-4.5-31.5-4.5-32.1.1-.9.7-1.7 1.5-2l23.8-10.6c.4-.2.9-.3 1.3-.2l61.8 6.3c.3 0 .6.1.8.2l59.2 26.4c.9.4 1.5 1.3 1.6 2.3l2.1 43.3c0 .7-.2 1.4-.7 1.9-.5.7-11.8 12.1-45.9 12.1zM387.3 349c-.3 3.9-.7 15.6 4.4 28.2 8.2 20.6 26.2 33.8 53.4 39.3 58.2 11.7 79.8-1.7 84-4.9l-2-40.4-57.3-25.6-60.7-6.2-21.8 9.6z"/><g id="XMLID_154_"><path id="XMLID_148_" class="st6" d="m428.7 247.9-20.6 19.6s-5.8 2.6-4.2 11.1c2.6 2.6 39.6 14.3 39.6 22.7 0 8.5-6.9 7.4-11.6 15.3-4.8 7.9-5.8 17.4-10 16.9s-26.4-12.2-31.2-10.6c-4.8 1.6-14.3 21.1-11.6 24.3 2.6 3.2 30.1-2.6 37.5-2.1s6.9 6.3 22.7 6.9c2.1 7.9 10 29.1 37.5 29.6s38.6-13.7 38.6-13.7l22.2-66.6s7.9-43.3-18.5-56.6-43.9-6.3-43.9-6.3l-46.5 9.5z"/><path id="XMLID_151_" d="M478.3 384.2h-1.5c-26.9-.5-36.4-19.6-39.5-29.7-8.8-.6-12.5-2.8-15.5-4.7-1.9-1.2-3.1-1.9-5.4-2.1-2.6-.2-8.8.6-14.8 1.4-15.6 2-22.3 2.6-24.6-.2-1.3-1.6-1.4-4.1-.3-7.9 1.7-6.1 7.9-18.8 13.1-20.6 3.7-1.2 11.4 1.9 22.7 6.7 4 1.7 8.5 3.6 9.7 3.8.8-.4 2.2-3.9 3.1-6.2 1.2-2.9 2.5-6.2 4.4-9.4 2.3-3.8 5-5.8 7.1-7.4 2.7-2 4.1-3 4.1-6.6 0-.1-.1-2.4-9.1-7.2-5.9-3.2-13.2-6.2-19.1-8.6-7.1-2.9-9.5-4-10.6-5.1-.4-.4-.6-.9-.7-1.4-1.5-7.9 2.6-12.3 5.3-13.8l20.3-19.3c.4-.3.8-.6 1.3-.7l46.3-9.5c2.3-.8 20-6.4 45.8 6.5 27.9 13.9 20.3 57.5 19.9 59.4 0 .1-.1.2-.1.4L518 368.6c-.1.3-.2.6-.4.8-.6.7-11.9 14.8-39.3 14.8zm-62.8-41.8h1.3c3.6.3 5.7 1.6 7.8 2.9 2.8 1.7 6 3.7 14.8 4 1.2 0 2.2.8 2.5 2 2.7 10.1 10.8 27.2 35 27.6 23.4.5 34.4-10.4 36.2-12.4l22-65.9c.5-2.9 6.4-41.8-17.1-53.5-25.1-12.5-41.6-6.3-41.7-6.2-.1.1-.3.1-.4.1l-45.8 9.4-20.1 19c-.2.2-.5.4-.7.5-.3.2-3.5 1.9-2.9 7.1 1.5.8 5.1 2.3 8.3 3.6 17.9 7.4 31.5 13.6 31.5 20.7 0 6.2-3.3 8.7-6.3 10.9-2 1.5-4 3-5.7 5.8-1.7 2.8-2.9 5.9-4 8.6-2.1 5.2-4 10.1-8.7 9.5-1.9-.2-5.3-1.7-11.1-4.1-5.4-2.3-16.6-7.1-19-6.5-3.1 1.1-10.5 15.8-10.3 20 2.9.6 13.3-.7 19.7-1.5 6.1-.9 11.3-1.6 14.7-1.6z"/></g><path id="XMLID_150_" d="M473.6 409c-4.7 0-10-.3-16.1-1-17.2-2.1-32.2-10.6-42-24-10.6-14.4-14.5-33-11-52.6.3-1.4 1.6-2.4 3.1-2.1 1.4.3 2.4 1.6 2.1 3.1-3.3 18.1.3 35.3 10 48.5 9 12.2 22.7 20 38.4 21.9 32.6 3.9 41.5-4.9 41.6-5 .2-.3.5-.5.8-.6l37.5-16.9c1.3-.6 2.9 0 3.5 1.3.6 1.3 0 2.9-1.3 3.5l-37.1 16.7c-1.9 1.7-9.7 7.2-29.5 7.2z"/><path id="XMLID_149_" d="M481 394.7c-4 0-8.5-.3-13.5-1-30.7-4.2-44.1-19.4-43.5-49.2 0-1.4 1.2-2.6 2.6-2.6h.1c1.5 0 2.6 1.2 2.6 2.7-.5 27.3 10.8 40 38.9 43.8 28.9 4 38.3-5.9 38.4-6 1-1.1 2.7-1.2 3.7-.2 1.1 1 1.2 2.7.2 3.7-.4.5-8.2 8.8-29.5 8.8z"/><path id="XMLID_558_" class="st0" d="M339.9 342.5c-9 6.3-30.1 35.9-31.7 43.3-1.6 7.4 10 6.9 12.2-.5s6.3-22.2 19.5-42.8z"/><path id="XMLID_557_" class="st0" d="M313.5 407c-7.9 16.9-28.5 37.5-26.4 47.6s15.9 9 18-1.6c2.1-10.6 8.9-34.4 8.4-46z"/><path id="XMLID_556_" class="st0" d="M333.6 422.3c-5.3 5.8-18 22.2-17.4 29.1.5 6.9 9.5 6.9 12.7 1.6 3.1-5.3 5.7-21.7 4.7-30.7z"/><path id="XMLID_555_" class="st0" d="M310.9 465.6c-4.2 8.5-16.9 28.5-15.9 39.1 1.1 10.6 13.2 6.9 16.9-1.6 3.7-8.4 2.7-29-1-37.5z"/><path id="XMLID_554_" class="st0" d="M441.4 287.5s-9.5 9-19 13.7c-9.5 4.8-31.2-2.1-36.5-10-2.6-4-18.7-4.1-32-1.1-13.4 3-24.3 9-22.9 11.2 2.6 4.2 32.2-3.7 33.8.5 1.6 4.2-29.1 21.1-23.8 27.5s31.7-17.4 33.3-12.2c1.6 5.3-15.3 8.5-30.1 31.7-14.8 23.3-29.1 57.1-24.3 59.2 4.8 2.1 11.6-9 13.7-7.9 2.1 1.1-5.3 15.3.5 16.9 5.8 1.6 14.8-25.4 16.9-36.5 2.1-11.1-4.8-22.2 13.7-33.3 7.4-3.7 19.6-22.7 19.6-22.7l32.2 20.6 24.3-2.9c-1-5.3-2.1-12.3 2.1-19.8 3.8-6.8 8-10.2 11.7-12.5l1.5-18.1-14.7-4.3z"/><g id="XMLID_147_"><path id="XMLID_143_" class="st1" d="M439.3 352c-6.9 3.2-15.3-6.3-22.7-6.9s-34.9 5.3-37.5 2.1c-2.6-3.2 6.9-22.7 11.6-24.3 4.8-1.6 27 10 31.2 10.6s5.3-9 10-16.9c4.8-7.9 11.6-6.9 11.6-15.3 0-8.5-37-20.1-39.6-22.7-1.6-8.5 4.2-11.1 4.2-11.1l35.4 12.2s2.6 5.8 7.4 7.4c4.8 1.6 9.5-1.6 12.7 1.6 3.2 3.2 2.6 8.5 0 14.3-2.6 5.8-12.7 5.3-20.6 19.6-7.9 14.1 3.2 26.2-3.7 29.4z"/><path id="XMLID_144_" d="M436.3 355.3c-3.9 0-7.8-2.1-11.4-4.1-3-1.6-6-3.3-8.5-3.4-2.7-.2-8.8.6-14.8 1.4-15.6 2-22.3 2.6-24.6-.2-1.3-1.6-1.4-4.1-.3-7.9 1.7-6.1 7.9-18.8 13.1-20.6 3.7-1.2 11.4 1.9 22.7 6.7 4 1.7 8.5 3.6 9.7 3.8.8-.4 2.2-3.9 3.1-6.2 1.2-2.9 2.5-6.2 4.4-9.4 2.3-3.8 5-5.8 7.1-7.4 2.7-2 4.1-3 4.1-6.6 0-.1-.1-2.4-9.1-7.2-5.9-3.2-13.2-6.2-19.1-8.6-7.1-2.9-9.5-4-10.6-5.1-.4-.4-.6-.9-.7-1.4-1.6-8.3 3.1-12.8 5.7-14 .6-.3 1.3-.3 2-.1l35.4 12.2c.7.2 1.2.7 1.5 1.4.6 1.3 2.9 5 5.8 6 1.5.5 3.2.3 5 .2 2.7-.3 6.1-.6 8.7 2.1 2.6 2.6 4.8 7.7.5 17.2-1.4 3.1-4.2 4.7-7.2 6.5-4.1 2.4-9.1 5.3-13.5 13.3-3.8 6.9-2.7 13.4-1.7 18.5.9 4.6 1.8 9.9-3.2 12.2-1.4.4-2.7.7-4.1.7zm-20.8-12.9h1.3c3.6.3 7.2 2.2 10.7 4.1 4.1 2.2 8 4.3 10.8 3 1-.5 1.1-1.6.2-6.4-1-5.7-2.5-13.5 2.3-22 5.1-9.2 11.1-12.7 15.5-15.3 2.5-1.5 4.3-2.5 5-4.1 1.4-3 3.3-8.6.5-11.3-.8-.8-1.9-.8-4.5-.5-2 .2-4.6.5-7.2-.4-4.5-1.5-7.3-5.7-8.4-7.7l-33.2-11.4c-1 .8-2.6 2.8-2.1 6.6 1.5.8 5.1 2.3 8.3 3.6 17.9 7.4 31.5 13.6 31.5 20.7 0 6.2-3.3 8.7-6.3 10.9-2 1.5-4 3-5.7 5.8-1.7 2.8-2.9 5.9-4 8.6-2.1 5.2-4 10.1-8.7 9.5-1.9-.2-5.3-1.7-11.1-4.1-5.4-2.3-16.6-7.1-19-6.5-3.1 1.1-10.5 15.8-10.3 20 2.9.6 13.3-.7 19.7-1.5 6.1-.9 11.3-1.6 14.7-1.6z"/></g><g id="XMLID_142_"><path id="XMLID_138_" class="st0" d="M430.8 284.9s11.1 0 12.2-6.3c1.1-6.3 0-14.3-3.2-19-1.5-2.2-7.2-6.2-12.9-9.9l-18.8 17.8s-5.8 2.6-4.2 11.1c1.5 1.5-1.6 9.5 19.6 14.8 2.4-2.3 7.3-8.5 7.3-8.5z"/><path id="XMLID_139_" d="M423.4 296c-.2 0-.4 0-.6-.1-16.4-4.1-19.8-10-20.9-15.3 0-.2-.1-.4-.1-.6-.2-.3-.4-.7-.4-1-1.5-7.9 2.6-12.3 5.3-13.8l18.5-17.5c.9-.8 2.2-1 3.2-.3 10.3 6.6 12.7 9.2 13.7 10.6 3.4 5.1 4.8 13.5 3.6 20.9-1 6.2-8.4 8.2-13.5 8.5-1.5 1.9-4.9 6-6.9 7.8-.6.5-1.2.8-1.9.8zm-17-18.5c.3.6.5 1.3.6 2 .5 2.3 1.5 7.1 15.6 10.9 2-2.1 5-5.7 6.1-7.2.5-.6 1.3-1 2.1-1 1.9 0 9-.7 9.6-4.1 1-6-.2-13.2-2.8-17.1-.5-.8-2.6-2.9-10.4-8l-17.3 16.4c-.2.2-.5.4-.7.5-.4.1-3.7 1.9-2.8 7.6z"/></g><g id="XMLID_137_"><path id="XMLID_131_" class="st1" d="M387.5 312.4s-3.7 9-3.2 12.2c.5 3.2 6.3 4.8 10 3.2 1.1 2.1 5.3 3.7 8.5 2.6.5 2.1 5.3 6.3 9.5 4.2s5.8-12.2 5.8-12.2l-30.6-10z"/><path id="XMLID_134_" d="M409.9 337.8c-1.3 0-2.7-.3-4-.9-1.8-.8-3.4-2.2-4.5-3.6-2.9.2-6-.8-8-2.6-2.7.5-5.7.1-8.1-1.2-2-1.1-3.3-2.7-3.6-4.6-.6-3.6 2.4-11.3 3.3-13.6.5-1.3 2-1.9 3.3-1.5l30.7 10c1.2.4 2 1.6 1.8 2.9-.3 1.9-2.1 11.5-7.2 14.1-1.2.7-2.5 1-3.7 1zm-7.1-10.1c.4 0 .9.1 1.3.3.6.4 1.1 1 1.3 1.7.1.4 1.3 1.8 3 2.5 1 .4 2 .4 2.8 0 1.7-.8 3.1-4.7 3.9-8l-26-8.5c-1.3 3.5-2.3 7.2-2.1 8.4 0 .1.3.5.9.8 1.5.8 4 1 5.5.3 1.3-.6 2.8 0 3.4 1.2.4.7 3.1 2 5.3 1.3h.7z"/></g><path id="XMLID_133_" d="M394.4 330.3c-.3 0-.5 0-.8-.1-1.4-.4-2.2-1.9-1.7-3.3l3.7-11.6c.4-1.4 1.9-2.2 3.3-1.7 1.4.4 2.2 1.9 1.7 3.3l-3.7 11.6c-.4 1.1-1.4 1.8-2.5 1.8z"/><path id="XMLID_132_" d="M402.8 333c-.3 0-.7-.1-1-.2-1.3-.6-2-2.1-1.4-3.5l4.8-11.1c.6-1.3 2.1-2 3.5-1.4 1.3.6 2 2.1 1.4 3.5l-4.8 11.1c-.5 1-1.5 1.6-2.5 1.6z"/><g id="XMLID_130_"><circle id="XMLID_126_" class="st4" cx="449.6" cy="231.8" r="27.7"/><path id="XMLID_127_" d="M449.6 262.1c-16.8 0-30.4-13.6-30.4-30.4s13.6-30.4 30.4-30.4c16.8 0 30.4 13.6 30.4 30.4s-13.7 30.4-30.4 30.4zm0-55.4c-13.8 0-25.1 11.3-25.1 25.1s11.3 25.1 25.1 25.1 25.1-11.3 25.1-25.1c0-13.9-11.3-25.1-25.1-25.1z"/></g><g id="XMLID_125_"><path id="XMLID_120_" class="st0" d="M416 265.3s4.2 1.1 4.2 4.2-2.1 4.2-6.3 4.2-12.7-6.9-10.6-11.1c2.1-4.2 14.3-10 14.3-10l17.4 5.3"/><path id="XMLID_124_" d="M413.9 276.4c-3.9 0-9.5-3.7-12.1-7.9-1.5-2.5-1.8-5-.8-7 2.4-4.8 13.3-10.2 15.5-11.2.6-.3 1.3-.3 1.9-.1l17.4 5.3c1.4.4 2.2 1.9 1.8 3.3-.4 1.4-1.9 2.2-3.3 1.8l-16.4-5c-4.6 2.3-11 6.2-12.1 8.4-.2.3.1 1.1.6 1.9 1.8 2.9 6 5.4 7.6 5.4 3.7 0 3.7-.7 3.7-1.6 0-.8-1.8-1.5-2.2-1.7-1.4-.4-2.3-1.8-1.9-3.2.4-1.4 1.8-2.3 3.2-1.9 2.3.6 6.2 2.7 6.2 6.8-.1 4.4-3.1 6.7-9.1 6.7z"/></g><path id="XMLID_528_" class="st0" d="M456.7 241.4c0-12.7-10.3-23-23-23-6.9 0-13 3-17.2 7.8l37.5 26.1c1.8-3.3 2.7-7 2.7-10.9z"/><path id="XMLID_527_" class="st1" d="M416.6 226.2c-3.6 4.1-5.8 9.4-5.8 15.2 0 12.7 10.3 23 23 23 8.8 0 16.4-4.9 20.3-12.2l-37.5-26z"/><path id="XMLID_121_" d="M433.7 267c-14.1 0-25.6-11.5-25.6-25.6s11.5-25.6 25.6-25.6 25.6 11.5 25.6 25.6-11.4 25.6-25.6 25.6zm0-46c-11.2 0-20.3 9.1-20.3 20.3s9.1 20.3 20.3 20.3 20.3-9.1 20.3-20.3-9-20.3-20.3-20.3z"/><g id="XMLID_119_"><circle id="XMLID_115_" class="st1" cx="433.7" cy="241.4" r="10"/><path id="XMLID_116_" d="M433.7 254.1c-7 0-12.7-5.7-12.7-12.7s5.7-12.7 12.7-12.7 12.7 5.7 12.7 12.7-5.7 12.7-12.7 12.7zm0-20.1c-4.1 0-7.4 3.3-7.4 7.4 0 4.1 3.3 7.4 7.4 7.4 4.1 0 7.4-3.3 7.4-7.4 0-4.1-3.3-7.4-7.4-7.4z"/></g><g id="XMLID_114_"><path id="XMLID_108_" class="st1" d="m395.9 291.7 30.1 13.7s6.3-6.3 6.9-11.1c.5-4.8-6.9-5.8-9-4.8-1.1-5.8-6.9-6.9-11.1-4.8-1.6-4.8-4.8-7.4-9.5-6.3-4.7 1.2-7.4 13.3-7.4 13.3z"/><path id="XMLID_111_" d="M426.1 308.1c-.4 0-.7-.1-1.1-.2l-30.1-13.7c-1.1-.5-1.7-1.8-1.5-3 .7-3.2 3.5-13.9 9.4-15.2 5-1.1 9.1 1 11.5 5.6 2.5-.6 5.1-.4 7.3.7 1.9.9 3.3 2.4 4.2 4.4 2.2-.1 4.9.5 6.9 1.9 2.1 1.5 3.2 3.7 2.9 6.2-.6 5.5-6.9 12-7.6 12.7-.6.4-1.2.6-1.9.6zM399 290.2l26.4 12c2.1-2.4 4.6-5.9 4.9-8.2 0-.3 0-.7-.6-1.2-1.4-1.1-4-1.2-4.7-.9-.7.4-1.6.4-2.3 0-.7-.4-1.3-1.1-1.4-1.9-.3-1.5-1-2.5-2.1-3.1-1.4-.7-3.5-.6-5.2.2-.7.3-1.5.4-2.2.1-.7-.3-1.3-.9-1.5-1.6-1.9-5.6-5.2-4.9-6.4-4.6-1.5.4-3.6 4.9-4.9 9.2z"/></g><path id="XMLID_110_" d="M407 299.1c-.4 0-.8-.1-1.2-.3-1.3-.7-1.8-2.2-1.2-3.5l5.8-11.6c.7-1.3 2.2-1.8 3.5-1.2 1.3.7 1.8 2.2 1.2 3.5l-5.8 11.6c-.4 1-1.3 1.5-2.3 1.5z"/><path id="XMLID_109_" d="M417.6 303.9c-.4 0-.9-.1-1.3-.3-1.3-.7-1.8-2.3-1.1-3.6l6.3-11.6c.7-1.3 2.3-1.8 3.6-1.1 1.3.7 1.8 2.3 1.1 3.6l-6.3 11.6c-.4.9-1.4 1.4-2.3 1.4z"/><g id="XMLID_107_"><circle id="XMLID_103_" class="st1" cx="551.9" cy="295.4" r="6.9"/><path id="XMLID_104_" d="M551.9 305c-5.2 0-9.5-4.3-9.5-9.5s4.3-9.5 9.5-9.5 9.5 4.3 9.5 9.5-4.3 9.5-9.5 9.5zm0-13.8c-2.3 0-4.2 1.9-4.2 4.2s1.9 4.2 4.2 4.2c2.3 0 4.2-1.9 4.2-4.2s-1.9-4.2-4.2-4.2z"/></g><g id="XMLID_102_"><path id="XMLID_96_" class="st0" d="M515.4 283.8c-5.3 5.8-2.6 16.4 5.3 15.9 4.8-.5 6.9-4.8 6.9-4.8s15.3 4.2 18.5 0 4.8-11.1 1.1-14.8-7.9-3.2-11.1-1.6c-2.7-2.1-15.4-.5-20.7 5.3z"/><path id="XMLID_99_" d="M520.1 302.3c-3.9 0-7.2-2.1-8.9-5.7-2.3-4.7-1.4-10.7 2.2-14.6 5.2-5.7 17.2-8.4 22.6-6.4 4.7-1.9 9.3-.9 12.9 2.6 4.8 4.8 3.2 13-.8 18.3-3.5 4.6-14.2 2.7-19.5 1.4-1.4 1.7-3.9 3.9-7.7 4.4H520.1zm-2.8-16.7c-2.4 2.6-2.5 6.4-1.4 8.8.6 1.3 1.9 2.8 4.4 2.7 3.2-.4 4.7-3.3 4.7-3.3.6-1.1 1.9-1.7 3.1-1.4 7 1.9 14.6 2.4 15.7 1 2.6-3.5 3.8-8.9 1.3-11.3-2.3-2.3-5-2.6-8-1.1-.9.5-2 .3-2.8-.3-1.7-1.1-12.5 0-17 4.9z"/></g><path id="XMLID_98_" d="M527.5 297.6c-.5 0-1-.1-1.4-.4-1.2-.8-1.6-2.4-.8-3.6 1.3-2.1-.5-3.6-.9-3.9-1.2-.9-1.4-2.5-.5-3.7.9-1.2 2.5-1.4 3.7-.5 2.1 1.6 5.3 5.9 2.2 10.9-.5.7-1.4 1.2-2.3 1.2z"/><path id="XMLID_97_" d="M537.6 290.7c-.7 0-1.4-.3-1.9-.8-1.7-1.7-4.1-5.6-3.8-9.2.2-1.9 1.1-3.4 2.6-4.4 1.2-.8 2.9-.5 3.7.7.8 1.2.5 2.9-.7 3.7-.1.1-.2.2-.3.5-.1 1.4 1.1 3.7 2.3 4.9 1 1 1 2.7 0 3.7-.6.6-1.2.9-1.9.9z"/><g id="XMLID_95_"><ellipse id="XMLID_84_" transform="rotate(-84.255 539.387 334.026)" class="st1" cx="539.4" cy="334" rx="34.9" ry="40.7"/><path id="XMLID_92_" d="M540.7 371.6c-1.7 0-3.3-.1-5-.3-11.4-1.2-21.8-6.1-29.3-13.9-7.5-7.9-11.1-17.8-10.1-27.8 2.1-20.6 23.1-35.4 46.9-33 23.8 2.4 41.4 21.1 39.4 41.7-2 19.2-20.3 33.3-41.9 33.3zm-2.6-69.9c-19 0-34.9 12.1-36.6 28.5-.9 8.5 2.2 16.9 8.7 23.6 6.6 6.9 15.8 11.2 26 12.2 20.9 2.1 39.3-10.6 41.1-28.3 1.8-17.7-13.8-33.8-34.6-35.9-1.6 0-3.1-.1-4.6-.1z"/></g><path id="XMLID_494_" class="st1" d="M557 376.4c1.1-17.1-1.8-30.5-3-32.3-2.1-3.2-21.7-10-27-7.4-2.7 1.4-9 17.8-15.9 33.9 17 12.9 37.9 8.3 45.9 5.8z"/><path id="XMLID_493_" class="st0" d="M556.2 384.8c.4-2.9.7-5.7.8-8.4-8 2.5-28.9 7.1-45.8-5.8 0 .1-.1.1-.1.1-1.2 2.8-2.4 5.6-3.5 8.3 5.2 3.2 12.9 6.6 23.1 7.3 12.1.9 20.5-.3 25.5-1.5z"/><path id="XMLID_492_" class="st1" d="M522.8 405.4c-9.4-1.6-18-4.2-23.5-6.1-.6 2.1-1 6.8-.8 7.7.5 3.7 16.4 6.9 46.5 11.6 2.5-4.3 4.5-8.8 6.2-13.3-6.7.8-18.1 1.8-28.4.1z"/><path id="XMLID_491_" class="st0" d="M525.4 398c-9.5-1.3-17.9-4.7-23-7-1.3 3.2-2.4 6-3.1 8.2 5.5 1.9 14.1 4.6 23.5 6.1 10.3 1.7 21.7.7 28.4-.1 1.2-3.3 2.2-6.6 3-9.8-6.1 1.6-17.9 4.1-28.8 2.6z"/><path id="XMLID_490_" class="st1" d="M554.2 395.4c.8-3.6 1.5-7.1 2-10.6-4.9 1.2-13.4 2.4-25.4 1.5-10.2-.8-17.9-4.2-23.1-7.3-1.8 4.3-3.6 8.4-5.1 12 5.1 2.3 13.5 5.7 23 7 10.7 1.5 22.5-1 28.6-2.6z"/><path id="XMLID_89_" d="M545 421.2h-.4c-11.1-1.8-47.4-8.2-48.7-17-.4-3.5 2.6-10.7 8.4-24.1 1.5-3.4 3-6.8 4.4-10.4 1.2-2.9 2.5-5.9 3.6-8.8 7.7-18.6 10.6-25.2 13.5-26.6 6.5-3.3 27.5 4 30.3 8.3 3.1 4.7 9.5 45.8-8.9 77.3-.4.8-1.3 1.3-2.2 1.3zm-43.9-17.9c1.6 2.1 13.6 7.7 42.5 12.4 16.2-29.4 10.3-65.9 8.2-70.2-2.3-2.5-19.4-8.3-23.5-6.6-1.9 1.8-7 14.1-11.1 24-1.2 2.9-2.4 5.8-3.7 8.8-1.5 3.5-3 7-4.5 10.4-3.5 8.3-7.9 18.5-7.9 21.2z"/><path id="XMLID_88_" d="M508.5 411.2c-.3 0-.6-.1-.9-.2-1.4-.5-2.1-2-1.6-3.4l18.5-51.3c.5-1.4 2-2.1 3.4-1.6s2.1 2 1.6 3.4L511 409.4c-.4 1.1-1.4 1.8-2.5 1.8z"/><path id="XMLID_87_" d="M519.6 414.9c-.2 0-.5 0-.7-.1-1.4-.4-2.2-1.9-1.8-3.3l14.8-51.8c.4-1.4 1.9-2.2 3.3-1.8 1.4.4 2.2 1.9 1.8 3.3L522.2 413c-.4 1.1-1.4 1.9-2.6 1.9z"/><path id="XMLID_86_" d="M530.7 417.5c-.2 0-.4 0-.6-.1-1.4-.3-2.3-1.7-2-3.2l11.1-49.2c.3-1.4 1.7-2.3 3.2-2 1.4.3 2.3 1.7 2 3.2l-11.1 49.2c-.3 1.3-1.4 2.1-2.6 2.1z"/><path id="XMLID_85_" d="M540.2 419.1h-.5c-1.4-.3-2.4-1.7-2.1-3.1l9-47c.3-1.4 1.6-2.4 3.1-2.1 1.4.3 2.4 1.7 2.1 3.1l-9 47c-.2 1.2-1.3 2.1-2.6 2.1z"/><g id="XMLID_83_"><ellipse id="XMLID_79_" transform="rotate(-84.255 541.765 336.93)" class="st1" cx="541.8" cy="336.9" rx="10.9" ry="13.8"/><path id="XMLID_80_" d="M542.4 351c-.7 0-1.4 0-2.1-.1-9.3-.9-16.2-8-15.5-15.7.8-7.7 9-13.2 18.3-12.3 4.4.4 8.4 2.2 11.3 5 3.1 3 4.6 6.8 4.2 10.6-.4 3.9-2.6 7.3-6.2 9.6-2.9 1.9-6.3 2.9-10 2.9zm-1.3-21.9c-5.2 0-9.7 2.9-10.1 6.8-.4 4.2 4.1 8.3 9.9 8.9 3 .3 5.9-.3 8.1-1.7 2-1.3 3.2-3 3.4-5 .2-1.9-.6-3.9-2.3-5.6-1.9-1.8-4.6-3-7.6-3.3-.4-.1-.9-.1-1.4-.1z"/></g><g id="XMLID_78_"><path id="XMLID_74_" class="st1" d="m425.1 480.4-4 39.2c6.9.4 14.1.8 21.1 1.1l2.5-37.4c-7.1-1.1-13.7-2.1-19.6-2.9z"/><path id="XMLID_75_" d="M442.2 523.3h-.1c-7.4-.3-14.5-.7-21.1-1.1-.7 0-1.4-.4-1.9-.9s-.7-1.3-.6-2l4-39.2c.1-.7.4-1.4 1-1.8.6-.4 1.3-.6 2-.5 7.1 1 13.5 1.9 19.7 2.9 1.4.2 2.3 1.4 2.2 2.8l-2.5 37.4c-.2 1.3-1.3 2.4-2.7 2.4zm-18.2-6.2c5 .3 10.3.6 15.7.8l2.2-32.4c-4.6-.7-9.4-1.4-14.5-2.1l-3.4 33.7z"/></g><g id="XMLID_73_"><path id="XMLID_69_" class="st1" d="m444.7 483.2-2.5 37.4c2.7.1 5.4.2 8 .3l2.5-36.6c-2.7-.3-5.4-.7-8-1.1z"/><path id="XMLID_70_" d="M450.2 523.6h-.1l-8-.3c-.7 0-1.4-.3-1.9-.9-.5-.5-.7-1.2-.7-1.9l2.5-37.4c0-.7.4-1.4 1-1.9s1.3-.7 2-.6c1 .1 2 .3 3 .4 1.6.2 3.3.5 5 .7 1.4.2 2.4 1.4 2.3 2.8l-2.5 36.6c0 1.4-1.2 2.5-2.6 2.5zm-5.2-5.5 2.8.1 2.2-31.6c-.9-.1-1.8-.3-2.7-.4h-.1l-2.2 31.9z"/></g><g id="XMLID_68_"><path id="XMLID_64_" class="st1" d="m452.7 484.4-2.5 36.6c9.4.4 18.3.7 25.5.8l2.8-33.5c-9-1.3-17.7-2.6-25.8-3.9z"/><path id="XMLID_65_" d="M475.6 524.5c-6.3-.1-14.2-.4-25.6-.8-.7 0-1.4-.3-1.9-.9-.5-.5-.7-1.2-.7-1.9l2.5-36.6c.1-.7.4-1.4 1-1.9s1.3-.7 2-.6c8.1 1.2 16.8 2.5 25.8 3.9 1.4.2 2.3 1.4 2.2 2.8l-2.8 33.5c.1 1.4-1.1 2.5-2.5 2.5zm-22.6-6c8.5.3 15 .5 20.2.7l2.4-28.6c-7-1.1-13.9-2.1-20.5-3.1l-2.1 31z"/></g><g id="XMLID_63_"><path id="XMLID_59_" class="st1" d="m416.3 479.1-5 39.7c3.2.3 6.4.5 9.8.7l4-39.2c-3.1-.4-6.1-.8-8.8-1.2z"/><path id="XMLID_60_" d="M421.2 522.2h-.2c-3.2-.2-6.6-.4-9.9-.7-.7-.1-1.4-.4-1.8-1s-.7-1.3-.6-2l5-39.7c.1-.7.5-1.4 1-1.8.6-.4 1.3-.6 2-.5 2.4.4 5.3.8 8.7 1.3 1.4.2 2.4 1.5 2.3 2.9l-4 39.2c-.1 1.3-1.2 2.3-2.5 2.3zm-6.9-5.8 4.5.3 3.5-34.1c-1.3-.2-2.5-.4-3.6-.5l-4.4 34.3z"/></g><g id="XMLID_58_"><path id="XMLID_54_" class="st1" d="M397.7 476.5c-9.1 15.3-18.8 31-23.4 36.6 4.1 2.5 19.1 4.3 37 5.7l5-39.7c-7.9-1.1-14.3-2-18.6-2.6z"/><path id="XMLID_55_" d="M411.3 521.4h-.2c-32.1-2.4-36.7-5.1-38.2-6-.7-.4-1.1-1.1-1.2-1.8-.1-.8.1-1.5.6-2.1 3.8-4.6 11.8-17.1 23.2-36.3.5-.9 1.6-1.4 2.6-1.3 1.9.3 4.1.6 6.7.9 3.4.5 7.4 1 11.9 1.6 1.4.2 2.5 1.5 2.3 3l-5 39.7c-.3 1.3-1.4 2.3-2.7 2.3zm-32.8-9.4c4 1.1 12.5 2.6 30.5 4l4.4-34.7c-3.5-.5-6.6-.9-9.3-1.3-1.8-.3-3.5-.5-4.9-.7-9.5 15.8-16.4 26.8-20.7 32.7z"/></g><g id="XMLID_53_"><path id="XMLID_49_" class="st1" d="m478.5 488.3-2.8 33.5c2.9.1 5.5.2 7.9.2l2.4-32.6c-2.6-.3-5.1-.7-7.5-1.1z"/><path id="XMLID_50_" d="M483.6 524.7s-.1 0 0 0h-1c-2.1 0-4.5-.1-7-.2-.7 0-1.4-.3-1.9-.9-.5-.5-.7-1.3-.7-2l2.8-33.5c.1-.7.4-1.4 1-1.9s1.3-.6 2-.5c1 .2 2.1.3 3.1.5 1.4.2 2.9.5 4.3.7 1.4.2 2.4 1.4 2.3 2.8l-2.4 32.6c0 1.3-1.1 2.4-2.5 2.4zm-5-5.4c.9 0 1.7 0 2.6.1l2-27.6c-.7-.1-1.3-.2-2-.3h-.3l-2.3 27.8z"/></g><g id="XMLID_48_"><path id="XMLID_44_" class="st1" d="M488.4 489.9c-.8-.2-1.7-.3-2.5-.4l-2.4 32.6c1.6.1 3.1.1 4.4.1 4.8.1 11.1.9 18.3 2l3-31.4c-6.5-.8-13.5-1.8-20.8-2.9z"/><path id="XMLID_45_" d="M506.2 526.8h-.4c-8.2-1.3-13.9-1.9-18-2-.7 0-1.4 0-2.2-.1-.7 0-1.5 0-2.2-.1-.7 0-1.4-.3-1.9-.9-.5-.5-.7-1.2-.7-2l2.4-32.6c.1-.8.4-1.4 1-1.9s1.4-.6 2.1-.5c.4.1.8.1 1.2.2.4.1.9.1 1.3.2 7.8 1.2 14.5 2.1 20.6 2.8 1.4.2 2.5 1.4 2.3 2.9l-3 31.4c-.1.7-.4 1.4-1 1.8-.3.6-.9.8-1.5.8zm-19.8-7.3h1.7c3.8.1 8.8.6 15.9 1.6l2.5-26.1c-5.4-.6-11.4-1.5-18-2.5l-2.1 27z"/></g><g id="XMLID_43_"><path id="XMLID_39_" class="st1" d="M592.6 530.6c-3.6-7.2-13.3-25.6-15.2-37.8-1.5.4-3.6.8-6.3 1.2l1.4 38.6c7.6.1 14.5-.4 20.1-2z"/><path id="XMLID_40_" d="M574.7 535.3h-2.4c-1.4 0-2.5-1.1-2.6-2.5l-1.4-38.6c0-1.4 1-2.6 2.3-2.7 3-.3 4.9-.8 5.9-1.1.7-.2 1.5-.1 2.1.3.6.4 1.1 1.1 1.2 1.8 1.6 10.6 9.5 26.1 13.7 34.5l1.3 2.6c.4.7.4 1.5 0 2.3s-1 1.3-1.7 1.5c-4.9 1.2-11.1 1.9-18.4 1.9zm-1-39 1.2 33.7c5.2 0 9.8-.4 13.8-1.2-4-8-11-21.9-13.4-32.8-.5.1-1.1.2-1.6.3z"/></g><g id="XMLID_38_"><path id="XMLID_34_" class="st1" d="m539 495-1.8 34.2c2.6.4 5.2.8 7.9 1.1l.9-35.1c-2.2-.1-4.6-.1-7-.2z"/><path id="XMLID_35_" d="M545.1 532.9h-.3c-1.9-.2-3.8-.5-5.6-.8-.8-.1-1.5-.2-2.3-.3-1.4-.2-2.3-1.4-2.3-2.8l1.8-34.2c.1-1.4 1.3-2.6 2.8-2.5 2.3.1 4.7.2 6.9.2.7 0 1.4.3 1.9.8s.8 1.2.7 1.9l-.9 35.1c0 .7-.4 1.4-.9 1.9-.6.5-1.2.7-1.8.7zm-5.1-6c.8.1 1.7.3 2.5.4l.8-29.5h-1.8l-1.5 29.1z"/></g><g id="XMLID_33_"><path id="XMLID_29_" class="st1" d="m546 495.1-.9 35.1c9.5 1.3 18.8 2.2 27.3 2.3l-1.4-38.6c-5.7.8-14.1 1.4-25 1.2z"/><path id="XMLID_30_" d="M572.5 535.2s-.1 0 0 0c-7.6-.1-16.4-.8-27.7-2.3-1.3-.2-2.3-1.3-2.3-2.7l.9-35.1c0-1.4 1.2-2.6 2.7-2.6 9.4.1 18.1-.2 24.7-1.1.7-.1 1.5.1 2 .6.6.5.9 1.2.9 1.9l1.4 38.6c0 .7-.2 1.4-.8 1.9-.4.5-1.1.8-1.8.8zm-24.7-7.3c8.6 1.1 15.7 1.7 21.9 1.9l-1.2-32.9c-4.5.5-11.1.9-19.9.8l-.8 30.2z"/></g><g id="XMLID_28_"><path id="XMLID_24_" class="st1" d="m516.6 493.5-3.3 31.8c7.5 1.2 15.7 2.6 24 3.9l1.8-34.2c-6.8-.3-14.4-.7-22.5-1.5z"/><path id="XMLID_25_" d="M537.3 531.7h-.4c-6-.9-11.8-1.8-17.4-2.8-2.3-.4-4.5-.7-6.7-1.1-1.4-.2-2.4-1.5-2.2-2.9l3.3-31.8c.2-1.4 1.4-2.5 2.9-2.4 8.1.8 15.6 1.3 22.3 1.4.7 0 1.4.3 1.9.8s.7 1.2.7 1.9l-1.8 34.2c0 .7-.4 1.4-1 1.9-.4.6-1 .8-1.6.8zm-21.2-8.7c1.4.2 2.8.5 4.2.7 4.7.8 9.5 1.6 14.4 2.3l1.5-28.6c-5.4-.2-11.2-.6-17.4-1.1l-2.7 26.7z"/></g><g id="XMLID_23_"><path id="XMLID_1_" class="st1" d="m509.2 492.7-3 31.4c2.2.3 4.5.7 7 1.1l3.3-31.8c-2.3-.1-4.8-.4-7.3-.7z"/><path id="XMLID_20_" d="M513.2 527.9h-.5c-2.4-.4-4.7-.8-6.9-1.1-1.4-.2-2.4-1.5-2.3-2.9l3-31.4c.1-.7.4-1.3 1-1.8.5-.4 1.2-.7 1.9-.6 2.5.3 5 .5 7.4.8 1.4.2 2.5 1.5 2.3 2.9l-3.3 31.8c-.1.7-.5 1.4-1 1.8-.5.3-1.1.5-1.6.5zm-4.1-6 1.8.3 2.8-26.4c-.7-.1-1.4-.1-2.1-.2l-2.5 26.3z"/></g><path id="XMLID_19_" d="M553.4 507.9c-1.4 0-2.6-1.1-2.6-2.5-.1-1.5 1.1-2.7 2.5-2.8l11.6-.5c1.5-.1 2.7 1.1 2.8 2.5.1 1.5-1.1 2.7-2.5 2.8l-11.6.5h-.2z"/><path id="XMLID_18_" d="M564.5 514.8h-11.1c-1.5 0-2.6-1.2-2.6-2.6s1.2-2.6 2.6-2.6h11.1c1.5 0 2.6 1.2 2.6 2.6s-1.1 2.6-2.6 2.6z"/><path id="XMLID_17_" d="M564 523.2h-10.6c-1.5 0-2.6-1.2-2.6-2.6s1.2-2.6 2.6-2.6H564c1.5 0 2.6 1.2 2.6 2.6s-1.1 2.6-2.6 2.6z"/><path id="XMLID_16_" d="M530.7 506.3h-.2l-8.5-.5c-1.5-.1-2.6-1.3-2.5-2.8.1-1.5 1.3-2.5 2.8-2.5l8.5.5c1.5.1 2.6 1.3 2.5 2.8 0 1.4-1.2 2.5-2.6 2.5z"/><path id="XMLID_15_" d="M530.7 513.2h-.2l-8.5-.5c-1.5-.1-2.6-1.3-2.5-2.8.1-1.5 1.3-2.5 2.8-2.5l8.5.5c1.5.1 2.6 1.3 2.5 2.8 0 1.4-1.2 2.5-2.6 2.5z"/><path id="XMLID_14_" d="M530.7 521.1h-8.5c-1.5 0-2.6-1.2-2.6-2.6s1.2-2.6 2.6-2.6h8.5c1.5 0 2.6 1.2 2.6 2.6s-1.1 2.6-2.6 2.6z"/><path id="XMLID_13_" d="M501.1 502.6h-.1l-9.5-.5c-1.5-.1-2.6-1.3-2.5-2.8.1-1.5 1.3-2.6 2.8-2.5l9.5.5c1.5.1 2.6 1.3 2.5 2.8-.1 1.4-1.3 2.5-2.7 2.5z"/><path id="XMLID_12_" d="M501.1 510.5h-.3l-9.5-1.1c-1.5-.2-2.5-1.5-2.3-2.9.2-1.5 1.5-2.5 2.9-2.3l9.5 1.1c1.5.2 2.5 1.5 2.3 2.9-.1 1.3-1.2 2.3-2.6 2.3z"/><path id="XMLID_11_" d="M501.1 519h-.3l-9.5-1.1c-1.5-.2-2.5-1.5-2.3-2.9.2-1.5 1.5-2.5 2.9-2.3l9.5 1.1c1.5.2 2.5 1.5 2.3 2.9-.1 1.3-1.2 2.3-2.6 2.3z"/><path id="XMLID_10_" d="M469.4 500h-.3l-11.1-1.1c-1.5-.1-2.5-1.4-2.4-2.9.1-1.5 1.4-2.5 2.9-2.4l11.1 1.1c1.5.1 2.5 1.4 2.4 2.9-.1 1.4-1.2 2.4-2.6 2.4z"/><path id="XMLID_9_" d="M469.4 507.4h-.1l-11.1-.5c-1.5-.1-2.6-1.3-2.5-2.8.1-1.5 1.3-2.6 2.8-2.5l11.1.5c1.5.1 2.6 1.3 2.5 2.8-.1 1.4-1.3 2.5-2.7 2.5z"/><path id="XMLID_8_" d="M469.4 515.3h-.1l-11.1-.5c-1.5-.1-2.6-1.3-2.5-2.8.1-1.5 1.3-2.6 2.8-2.5l11.1.5c1.5.1 2.6 1.3 2.5 2.8-.1 1.4-1.3 2.5-2.7 2.5z"/><path id="XMLID_7_" d="M436.1 497.3h-.2l-6.3-.5c-1.5-.1-2.5-1.4-2.4-2.9.1-1.5 1.4-2.5 2.9-2.4l6.3.5c1.5.1 2.5 1.4 2.4 2.9-.2 1.4-1.3 2.4-2.7 2.4z"/><path id="XMLID_6_" d="M436.1 505.3h-.2l-6.3-.5c-1.5-.1-2.5-1.4-2.4-2.9.1-1.5 1.4-2.5 2.9-2.4l6.3.5c1.5.1 2.5 1.4 2.4 2.9-.2 1.3-1.3 2.4-2.7 2.4z"/><path id="XMLID_5_" d="M436.1 512.7h-6.3c-1.5 0-2.6-1.2-2.6-2.6s1.2-2.6 2.6-2.6h6.3c1.5 0 2.6 1.2 2.6 2.6s-1.1 2.6-2.6 2.6z"/><path id="XMLID_4_" d="M405.5 511.6h-.2l-14.3-1.1c-1.5-.1-2.5-1.4-2.4-2.8.1-1.5 1.4-2.5 2.8-2.4l14.3 1.1c1.5.1 2.5 1.4 2.4 2.8-.1 1.3-1.3 2.4-2.6 2.4z"/><path id="XMLID_3_" d="M406 501.6h-.4L395 500c-1.4-.2-2.4-1.6-2.2-3s1.6-2.4 3-2.2l10.6 1.6c1.4.2 2.4 1.6 2.2 3-.2 1.2-1.3 2.2-2.6 2.2z"/><path id="XMLID_2_" d="M406.5 491.5h-.2l-5.8-.5c-1.5-.1-2.5-1.4-2.4-2.9.1-1.5 1.4-2.5 2.9-2.4l5.8.5c1.5.1 2.5 1.4 2.4 2.9-.2 1.4-1.3 2.4-2.7 2.4z"/></g></svg>