<svg version="1.1" id="Calque_1" xmlns="http://www.w3.org/2000/svg" x="0" y="0" viewBox="0 0 900 900" style="enable-background:new 0 0 900 900" xml:space="preserve"><style>.st0,.st1,.st2{fill:#078e00;stroke:#000;stroke-width:6.5092;stroke-linecap:round;stroke-linejoin:round;stroke-miterlimit:10}.st1,.st2{fill:none}.st2{fill:#0080d6}.st3{fill:#fff}.st4{fill:red}.st10,.st5,.st6,.st7,.st9{fill:#fff;stroke:#000;stroke-width:6.5092;stroke-linecap:round;stroke-linejoin:round;stroke-miterlimit:10}.st10,.st6,.st7,.st9{fill:red}.st10,.st7,.st9{fill:#ff7300}.st10,.st9{fill:#595959}.st10{fill:#ffce00}</style><circle class="st0" cx="213.3" cy="236.8" r="86.3"/><path class="st1" d="M127.1 234.7c0 63.1 66 78.6 105.8 67.4 30.3-8.5 45.6-27.3 52.5-54.5s-6.9-46.9-16-54.8c-9.1-7.9-24-7.9-24-7.9"/><path class="st1" d="M197.5 205.8s-21.2 12.1-16.1 30.3 25.1 24.9 39.4 12.6"/><path d="M173.9 182.1c-8.5 4.3-37.4 43.9-25.6 82 11.7 38.1 63.8 35.8 97.2 14.3 33.5-21.4 31.7-43.4 26.5-59-5.3-16-21.2-23.2-36.5-23.6-15.2-.4-43.4 21-32.2 44.4 11.2 23.4 33.8-.5 34.2 7.6s-10.9 17.1-27.6 18.9c-16.8 1.8-36.2-3.9-43.4-21.5s10.7-55.1 10.7-55.1 5.2-12.3-3.3-8z"/><path class="st2" d="M197.5 157.1s20.7-17.7 37.2-8.2 12.1 47.6 0 53.8c-12.2 6.4-27.9-4.8-27.9-4.8l-9.3-40.8z"/><path id="XMLID_6_" class="st3" d="M226.4 182.1c0-16-13-29-29-29-11.2 0-21 6.4-25.8 15.8l51.3 27.1c2.2-4.2 3.5-8.9 3.5-13.9z"/><path id="XMLID_7_" class="st4" d="M171.6 168.9c-2.1 3.9-3.1 8.5-3.1 13.1 0 16 13 29 29 29 10.9 0 20.6-6.1 25.5-15.1l-51.4-27z"/><circle class="st1" cx="197.5" cy="182.1" r="29"/><circle class="st5" cx="197.5" cy="182.1" r="11.1"/><path class="st6" d="M452.5 776c7.8 23 1.7 37.2 1.7 37.2l-79-7.8 3.5-19.8c0 .2 43.9-9.6 73.8-9.6zM617.9 766.5c1.3-.4 51.7-26.2 63.4-26.2 3 13 2.1 30.1 2.1 30.1l-36.5 18.5-29-22.4z"/><path class="st7" d="m696 414.4-50 .4-1.2 49.5c11.3.3 18.9.7 19.5 1.3 3 3.3.4 25.8 2.6 33.2s16.5 7.4 16.9-2.6 47.8-36.5 47.8-36.5L696 414.4z"/><path id="XMLID_4_" class="st3" d="M769.3 507.5s-3.5 2-9.9 4c3.8 21.9-1.8 85.8-19.5 108.7-19.4 25.1-55.8 32.2-72.5-1.3-14.2-28.5 3.4-87.2 14.1-111.6-.4-.3-.5-.4-.5-.4l4-12h-.8c-.1.4-.3.8-.3 1-.4 7.6-8.6 9.4-13.5 6.6-9.6 19.1-34.6 75.5-17.3 117 21.2 50.8 75.9 50.9 103.2 5.6 27.3-44.9 13-117.6 13-117.6z"/><path id="XMLID_5_" d="M667.3 618.9c16.7 33.5 53.1 26.4 72.5 1.3 17.7-22.9 23.3-86.8 19.5-108.7-4.9 1.7-11.6 3.5-19.5 4.6 2.2 30.3-2.5 66.7-13.5 84.6-12.6 20.4-42.7 25.8-48.7-.4-5.2-22.7 2.9-65.7 15.9-87-6.9-2.3-10.8-4.8-12.2-5.9-10.6 24.3-28.3 83-14 111.5z" style="fill:#ff7300"/><path class="st1" d="m648.9 565.5 15.2 1.3M667.2 550.8l-14.7-1.9M647.3 594.7H662M662.5 579.6h-15.2M656.4 536.1l14.1 2.2M760.4 530.2l11.9.7M661.6 521.9l12.4 5.2M650.5 613.2l13.3-3.9M769.9 587.3l-15.1-5.8M750.8 596.9l14.7 8.1M773 552.2l-13.5-2.8M757.3 567.5l14.8 4.3M759.3 620.1l-13.8-9.1M748.6 636.1 736.7 624M676.6 650.1l5.7-13.6M671.1 625.4l-10.9 8M715.8 657.3l-3.5-17.4M694.8 641.2l1.4 16.9M732.8 650l-9.3-15.1"/><path id="XMLID_8_" class="st5" d="M665.9 484.6c0 5.7.1 11.2 1 14.2 1.8 6.1 12 7.2 15.6 1.7l4-15.5-20.6-.4z"/><path id="XMLID_9_" class="st9" d="m592.1 415.3-78.9 2.1-9.6 48.3s98.3-2.1 141.1-1.3l1.2-49.5-53.8.4z"/><path id="XMLID_10_" d="m515.4 428.3-6.5 25c1.6 1.2 110.1.3 136.2 0l.7-27.7-130.4 2.7z"/><path class="st5" d="M700.3 398.4c11.7-12.1 26.4-47.1 29.9-49.9 3.5-2.7 12.5 8.6 8.7 18.2-3.9 9.8-12.6 31.6-12.6 31.6l-3.8 18.9-28.2 8.1c0 .2-5.7-14.8 6-26.9z"/><path class="st5" d="M689 417.4s-8.7-48-6.9-58.7c1.8-10.7 15.5-9.2 18.2-1.8 2.7 7.4 11.3 57.5 11.3 57.5l-22.6 3z"/><path id="XMLID_12_" class="st0" d="m748.6 479.6-11.8-16-45.6 3.5-4.2 15.8c6.9 2.1 17.7 4.2 32.3 4.2 13.8-.1 23.2-3.7 29.3-7.5z"/><path id="XMLID_14_" class="st5" d="M683.4 414.4c-3.9 2.9-4.8 10.8 1.3 12.8-2.6 4.8-1.7 14.7 4.3 15.6-5.2 2.2-4.8 13.4 1.7 13.4-5.6 3-4.3 12.4 2.2 14.6 2.3.9 8.6 1 15.5.7l-5.5-58.5c-8 0-17.1-.4-19.5 1.4z"/><path id="XMLID_15_" class="st7" d="M741.5 417.4c-2.2-9.4-15.2-19-15.2-19s-5.6 12.2-11.7 14.1c-2.3.7-6.8.7-11.6.7l5.5 58.5c12-.7 26.4-3.3 28.2-7.9 3-7.6 6.9-37.2 4.8-46.4z"/><path class="st1" d="M684.7 427.1c7.4 3.3 34.8-1.7 34.8-1.7M689 442.8c7.4 3.3 36.1-3.5 36.1-3.5M690.8 456.2c7.4 3.3 36.5-4 36.5-4M769.3 507.5s-3.5 2-9.9 4c-4.9 1.7-11.6 3.5-19.5 4.6 2.2 30.3-2.5 66.7-13.5 84.6-12.6 20.4-42.7 25.8-48.7-.4-5.2-22.7 2.9-65.7 15.9-87-6.9-2.3-10.8-4.8-12.2-5.9-.4-.3-.5-.4-.5-.4l4-12h-.8c-.1.4-.3.8-.3 1-.4 7.6-8.6 9.4-13.5 6.6-9.6 19.1-34.6 75.5-17.3 117 21.2 50.8 75.9 50.9 103.2 5.6 27.4-45 13.1-117.7 13.1-117.7z"/><path class="st9" d="M669.7 765.6c-26-.7-44.9 5.9-44.9 5.9s-35.5-112-59.9-151c-24.3-39.1-86.8-79.4-86.8-79.4l77.7-161.2-108.1-10.7s-42.4 9.8-57.9 25.4c-15.5 15.6-55.3 94.4-73.6 85.3-9.5-4.8-17.1-45.8-26.9-86.4-13.4 6.9-32.9 17.1-45.8 24 9.6 56.1 25.3 132.4 51.9 137.3 42.3 7.8 106.8-69.6 106.8-69.6s-33.2 59.9-37.1 95c-3.9 35.1 5.2 52.1 5.2 73.6 0 21.5-34.5 116.5-33.2 147.1 1.3 30.6 32.5 40.4 32.5 40.4l56-5.9 55.3-4.6s-19.5-20.8-41-29.3-55.3-5.9-55.3-5.9 41-118.5 43.6-139.3c2.6-20.8-1.3-36.5-1.3-47.5 0-11.1 10.7-22.1 10.7-22.1s47.5 43.6 85.4 82.7c37.9 39.1 61.3 110 61.3 110l50.8 37.8 27.3-13.7 54.7-23.4c.1-.2-21.4-13.8-47.4-14.5z"/><path d="M255.1 402.9s17.6 134.2 47.5 137.6 118.3-91.5 121.7-84.2c3.4 7.3-40.7 94-45.3 120.7-4.6 26.7 3.5 56.6 3.5 74.2s-32.9 134.7-32.9 134.7H373s43-113.3 44.3-134.1c1.3-20.8-2-30.6-2.6-45.6-.7-15 15-44.3 15-44.3s68.6 59.2 98.8 86.6c30.2 27.3 66.5 130.2 66.5 130.2l18.9-6.5S581.5 666 553.4 623.1c-28.1-42.8-93.3-76.8-93.3-76.8l55.6-129-15-37.5s-74.9 2.5-93.7 18.5c-18.9 16-57.3 103.6-90.5 95.2S276 395.2 276 395.2l-20.9 7.7zM464.8 832s-13-19.3-40-25.4c-26.9-6.1-45.2-2.6-45.2-2.6l-4.3 32.3 82.3 3 7.2-7.3z"/><path class="st7" d="M253.1 311.3c-33.8-17.6-63.1-17.6-69.6-17.6s-7.9 12.1-3.3 13.7 24.7 7.2 24.7 7.2-31.1-2.9-50.5-2.1l9.6 50.1c9.4 1 20.8 1.4 29.8 1.4 16.3 0 30.6-8.1 37.8-5.9 2.6.8 6.2 26.6 11.8 59.2 12.9-6.8 32.4-17.1 45.8-24-9-37-20-73.6-36.1-82z"/><circle class="st10" cx="536.5" cy="433.4" r="16"/><circle class="st10" cx="478.1" cy="449.5" r="16"/><circle class="st10" cx="431.7" cy="414.4" r="16"/><path d="M383 200.2s2.6-23.8 21.7-31.2c19.1-7.4 51-4.2 66.1 5.6 15.1 9.8 30.9 85.8 30.9 85.8l9.8 90.9-31.2 30.9-46-16.5-33.5-2.9-7.4-37h-36.3l-9.6-22.3 22.4-47.8 13.1-55.5z" style="stroke:#000;stroke-width:6.5092;stroke-linecap:round;stroke-linejoin:round;stroke-miterlimit:10"/><path d="M355.3 336c21.7 0 38.1 3 38.1 3" style="fill:none;stroke:#0dff00;stroke-width:2.6037;stroke-linecap:round;stroke-linejoin:round;stroke-miterlimit:10"/><path class="st2" d="M439.5 362.7c-5.2 8.1-.5 54.4 28.6 66.7 29.2 12.1 59.5 2.2 70.3-17.3 16.5-27.7-18.2-74.9-18.2-74.9s-30.9 25.8-57 31.6c-10.5 2.2-22.2-8.4-23.7-6.1z"/><path class="st1" d="M459.8 369.5s-.9 18.6 11.7 28.6 40.7 3.3 48.4-10.2c7.6-13.3-1.3-31.1-1.3-31.1"/><path class="st6" d="M396.6 170.7s-48.7 4.8-54 4.8c-5.3 0-4.9-13.9-1.3-16.9 3.6-3 55.3 0 55.3 0v12.1z"/><path class="st5" d="M404.8 143.5s-46.3-20-50.1-20-10.5 7.7-6 13.9c4.4 6.2 53.5 19.9 53.5 19.9l2.6-13.8z"/><path class="st10" d="M425.9 124.1s.5-49.2 47.6-64.8c-22.3 36.2-23.8 74.2-23.8 74.2l-23.8-9.4z"/><path id="XMLID_3_" class="st6" d="m603 366.7-73.6 2.5c.3.9.5 1.8.8 2.6 3 9.9 5.5 26.7 7.4 45.4l77.5-2.9c-4.1-16.2-8.3-32.5-12.1-47.6z"/><path id="XMLID_11_" class="st5" d="M598.1 346.7c-15.9-64.6-41.7-158.2-79.4-176s-65.7 4.8-65.7 4.8l28 93.5s37.2 65.9 48.7 100.2l73.6-2.5c-2-7-3.7-13.8-5.2-20z"/><path id="XMLID_13_" class="st5" d="m615.3 414.4-77.5 2.9c1 10.4 2 21.5 2.7 32.3l83.2-2.3c-2.7-10.7-5.6-21.7-8.4-32.9z"/><path id="XMLID_16_" class="st6" d="M540.5 449.5c2.6 35.7 3.6 68.7 3.6 68.7l99.6 4.6s-9.1-34.1-19.9-75.6l-83.3 2.3z"/><path class="st5" d="M183.4 293.7c-6.5 0-7.9 12.1-3.3 13.7s24.7 7.2 24.7 7.2 4.9-9.2 4.2-18.5c-12.8-2.4-22.2-2.4-25.6-2.4z"/><path class="st1" d="m230.3 321.7-25.4-7.2"/><path id="XMLID_17_" class="st5" d="M139.6 315.6c-4.3 6.8 2.2 39.7 8.1 43.4 2.6 1.7 8.9 2.9 16.4 3.6l-9.6-50.1c-7.9.3-13.8 1.3-14.9 3.1z"/><path class="st1" d="M138.3 325.7h49.1M140.9 337.4H190M142.2 349.2h49.1"/><path id="XMLID_18_" class="st5" d="m285.3 704.7 34.3 11.6 9.3-25.9-33.6-12.8z"/><path id="XMLID_19_" class="st6" d="m295.3 677.6 33.6 12.8 9.9-28.4-33.1-12.1z"/><path id="XMLID_20_" class="st6" d="m262.2 766.3 36.5 9.7 20.9-59.7-34.3-11.6z"/><path id="XMLID_21_" class="st5" d="M348.9 535.3c-.1.1-.4.3-.5.4l-5.7 15.4 28.4 3.6c1.7-5.2 3.6-10.5 5.7-15.9l-27.9-3.5z"/><path id="XMLID_22_" class="st6" d="M402.2 485.1s-24.5 29.4-53.2 50.3l27.9 3.4c10.9-27.8 25.3-53.7 25.3-53.7z"/><path id="XMLID_23_" class="st5" d="m305.7 649.9 33.1 12.1 25.5-72.5c.1-3 .4-6.1.8-9.4.3-2 .5-3.9.9-6l-29.6-6.2-30.7 82z"/><path id="XMLID_24_" class="st5" d="m336.4 567.9 29.6 6.2c1.2-6.1 2.9-12.8 5.2-19.5l-28.4-3.6-6.4 16.9z"/><path class="st5" d="M378.7 530c-7.7 2.2-11.5 15.2-4 18.1-10 4-8.5 15.1-1.7 19.7 6.8 4.7 149.8 15.6 153.7 10.3 3.9-5.3-9.6-15.6-16.5-18.2 3-5.3.5-16.3-11.7-17.8S386.4 527.8 378.7 530z"/><path class="st1" d="M374.7 548.1c8.3 5.9 132.4 14.8 135.5 11.8"/><path id="XMLID_25_" class="st6" d="m503.7 685.6-37.9 8.2c2.1 8.2 4.3 16.3 6.4 24.5l38.8-9.5-7.3-23.2z"/><path id="XMLID_26_" class="st5" d="m511 708.6-38.8 9.5c3.1 12.1 6.2 24 9.2 35.3l40.6-9.9-11-34.9z"/><path id="XMLID_27_" class="st6" d="m546.7 821.6-24.6-78-40.6 9.9c11.7 45.3 21.1 81 21.1 81l44.1-12.9z"/><path id="XMLID_28_" class="st5" d="m465.8 693.8 37.9-8.2-34-107.7c-11.5-.7-23.4-1.6-35-2.5 4.8 17.7 17.7 67.3 31.1 118.4z"/><path id="XMLID_29_" d="M664.9 777.5c-13.8-.9-29.8 3.9-39.8 7.6l10 23.8c12.2-4.3 22.3-7.4 23.6-7.4 1 0 2.3.9 3.5 2.1l.4-.3 44.5-19.1c-9.2-2-27-5.7-42.2-6.7z"/><path class="st2" d="M343.6 315.8c-.1 2.5-4.8 11.1-.9 16.3 3.9 5.2 12.6 3.9 12.6 3.9s7.4 12.1 0 19.5c-7.4 1.3-10.9 15.6 1.3 17.8 12.2 2.2 79.4-.4 85.5-2.6 6.1-2.2 3.5-10.4-.9-13.4s-27.7.4-27.7-3.5 29-2.6 29.9-6.1c.9-3.5 1.3-9.1-4.3-11.3-5.6-2.2-23 5.2-29.9 2.6-6.9-2.6-.4-17.1-9.1-20.8-8.7-3.7-56.5-2.4-56.5-2.4z"/><path id="XMLID_31_" class="st5" d="M371 358.5c5.7-1.2 7.3-14.1 7.8-21.4-4.6-.4-9.9-.8-15.9-1 .7 9 2.5 23.7 8.1 22.4z"/><path id="XMLID_32_" class="st5" d="M347.6 335.4c-.5 7.7-.8 23.6 5.1 23.6 5.5 0 8.2-14.2 9.4-22.9-2.2 0-4.4-.1-6.8-.1 0 0-3.9.7-7.7-.6z"/><path id="XMLID_33_" class="st5" d="M393.4 339s-5.2-.9-13.5-1.8c1.2 8.1 4.3 22.7 10.7 21.4 8.6-1.8 2.8-19.6 2.8-19.6z"/><path id="XMLID_34_" class="st2" d="M424.5 228v19.1s39.7 7.3 25.4 42c-11.1 26.9-37.8 29.6-49.2 29.4 7.3 4 2.2 16.8 7.7 20 13.4-2.3 56.5-12.5 63.7-50.8 11.2-59.7-47.6-59.7-47.6-59.7z"/><path class="st2" d="M354 260.5c-14.3 2.2-22.5 20.4-24.7 33.5-2.2 13 7.4 23.7 18.6 24.3 11.3.7 17.3-6.1 20.8-12.1 2.6 6.5 27.7 6.9 27.7-8.7s-28.1-39.2-42.4-37z"/><path class="st1" d="M368.7 306.1c3.9-8.3-3.9-19.1-11.7-16.8-7.8 2.3-9.1 10.3-9.1 10.3"/><circle class="st2" cx="389.8" cy="234.7" r="41.9"/><path id="XMLID_37_" class="st3" d="M371.3 218.8s-13 26.4 8.7 35.1c.5.3 1 .4 1.6.5l11.6-27.5-21.9-8.1z"/><path id="XMLID_38_" class="st4" d="m393.2 227.1-11.6 27.5c20.7 6.8 31.9-19.9 31.9-19.9l-20.3-7.6z"/><path class="st1" d="M371.3 218.8s-13 26.4 8.7 35.1c21.7 8.7 33.5-19.3 33.5-19.3l-42.2-15.8z"/><path id="XMLID_39_" class="st5" d="M383 223.3c-2.3 1.6-3.9 4.2-3.9 7.3 0 4.8 3.9 8.7 8.7 8.7s8.7-3.9 8.7-8.7c0-.8-.1-1.6-.3-2.2l-13.2-5.1z"/><path class="st7" d="M499.1 286.4c-7.2-2.5-9.1-10.2-5.2-19.4 3.9-9.2 20.2-22.8 31.9-22.8s16.8 5.1 16.3 17.4c-.7 14.8-13.7 32-13.7 32s19.5 22.8 15 40.4c-4.6 17.6-20.2 31.9-33.8 28-13.7-3.9-22.8-48.2-22.8-58.2s6.5-14.5 12.3-17.4z"/><path class="st1" d="M518.7 269s0 13.9-4.6 17.4c-4.6 3.4-15 0-15 0"/><path class="st5" d="M508.9 314.5c-5.9.4-22.1.9-28 3.8-5.9 2.7-2 26.2 3.3 26.2s28-2.6 31.2-5.2-.6-25.2-6.5-24.8z"/><path class="st10" d="M399.9 59.1c31.6 1.3 39.2 64.3 39.2 64.3l-17.1 8.1-1-3.1c.2.1-2.8-24.5-21.1-69.3z"/><path class="st6" d="m389.8 172.4 97 16s14.7-55.6-41.1-64.2c-55.9-8.6-55.9 48.2-55.9 48.2z"/><path class="st5" d="M413.5 159s8.7-19.5 30.3-14.7c21.7 4.8 19.1 21.2 19.1 21.2l-49.4-6.5z"/><path id="XMLID_30_" class="st0" d="M580.2 147.6c15.1-23.2 22.9-45.6 19-68.1-3.9-22.5-30.5-38.7-58.5-23.8-26 13.7-36.5 77.7-35 110.3 4.2 1 8.5 2.6 12.9 4.7 8.1 3.8 15.5 11.1 22.5 20.7 11.2-11.1 31.2-31.7 39.1-43.8z"/><path id="XMLID_35_" class="st0" d="M589.6 84.4c-6-24.1-28.6-31.6-45.6-17.8-15.9 13-26.2 63.4-27.3 103.2.7.3 1.3.5 2 .9 5.1 2.3 9.9 6.1 14.6 10.9 19.3-16.9 61.7-75.9 56.3-97.2z"/><path id="XMLID_40_" class="st3" d="M579.2 95.3c3.1-9.8-2.2-20.3-12-23.6-9.4-3-19.3 1.7-23 10.5L578.3 97c.5-.5.8-1.2.9-1.7z"/><path id="XMLID_41_" class="st4" d="M539.2 147.6s32.8-37.9 39.2-50.4l-34.1-14.8c-.1.4-.4.9-.5 1.4-3.3 9.8-4.6 63.8-4.6 63.8z"/><path class="st1" d="M579.2 95.3c-3.1 9.8-40 52.3-40 52.3s1.3-54.2 4.4-63.9 13.7-15.2 23.6-12 15.3 13.8 12 23.6z"/><circle class="st5" cx="561" cy="90.9" r="7.8"/><circle class="st5" cx="533.4" cy="153.1" r="19.8"/><circle class="st5" cx="533.4" cy="153.1" r="7.4"/><path class="st4" d="m655.1 221.8-17.8 20.4s-1.7 25.4 29.9 22.9c.4 0 .7-.1.9-.1l-2-19.1c-12.9-.5-11-24.1-11-24.1z"/><g id="XMLID_43_"><path id="XMLID_44_" class="st3" d="M667.7 246.1h-1.4l2 19.1c24.6-2.6 31.4-30.6 33.2-41.7-5.2-4.3-11.3-7.2-17.3-9.1-1.4 10-5.4 30.7-16.5 31.7z"/><path id="XMLID_45_" class="st3" d="M684.7 208.8s-.1 2.2-.5 5.5c6 2 12.1 4.8 17.3 9.1.4-2.9.5-4.6.5-4.6l-17.3-10z"/></g><path class="st1" d="M684.7 208.8s-2.2 36.1-16.9 37.1h-1.4c-13.1-.7-11.1-24.2-11.1-24.2l-17.8 20.4s-1.7 25.4 29.9 22.9c.4 0 .7-.1.9-.1 30.7-3.3 33.7-46.2 33.7-46.2l-17.3-9.9z"/><path class="st10" d="M665.5 167.4s66.4 2.5 80.7 50.1c14.3 47.6 16 100.6 16 106.8s-38.5 7.8-38.5 1.3 2.5-88.4 2.5-88.4l-32-31.9-41.8-9.1 13.1-28.8z"/><path class="st10" d="M668.6 323.9s54.5-70 40.4-92c-14.2-22.1-49.3-21.2-49.3-21.2l4.3-22.1s54.7 7 63.8 39.4c9.1 32.4-22.5 94.1-26.7 99.3-4.5 5.2-32.5-3.4-32.5-3.4z"/><path id="XMLID_42_" class="st3" d="M696.6 126.4c-5.3-5.2-18.5-8.7-31.5-1.8-5.5 2.9-9 13.7-12.2 26l22.4 7.2c7.6-5.2 14.7 1.2 20-3.3 5.5-4.6 5.6-9.5 0-13.9 7.8 2 6.7-9 1.3-14.2z"/><path id="XMLID_46_" class="st4" d="m649.6 164.3 21.5 4.3c.9-5.3 2.1-9 3.6-10.2.3-.1.4-.4.7-.5l-22.4-7.2c-1.2 4.4-2.2 9-3.4 13.6z"/><path id="XMLID_48_" class="st1" d="M696.6 126.4c-5.3-5.2-18.5-8.7-31.5-1.8-7.4 3.9-11.2 22.1-15.5 39.6l21.5 4.3c.9-5.3 2.1-9 3.6-10.2 7.8-6 15.2.8 20.7-3.8s5.6-9.5 0-13.9c7.7 2 6.6-9 1.2-14.2z"/><path class="st1" d="M669.4 143.5s9.8-10.9 25.9-2.7"/><path class="st10" d="M637.4 195.8c-13 13.9-35.1 11.7-37.2 11.7v40.4s26.3 3.9 48-3.6c17.4-6.1 18.9-54 22.9-75.8l-21.5-4.3c-3.2 13.1-6.7 25.7-12.2 31.6z"/><path id="XMLID_49_" class="st5" d="M616 224.4c0-19.9-16.1-35.9-35.9-35.9-12.6 0-23.8 6.5-30.2 16.5 3 5.3 5.9 11.1 8.7 17.2 1.4-.8 3.1-1.2 4.9-1.2 6.1 0 11.1 4.9 11.1 11.1 0 4.8-3.1 9-7.4 10.4 2.2 5.6 4.3 11.5 6.2 17.3 2.2.4 4.4.7 6.6.7 19.9-.1 36-16.3 36-36.1z"/><path id="XMLID_50_" class="st5" d="M574.5 232c0-6.1-4.9-11.1-11.1-11.1-1.8 0-3.5.4-4.9 1.2 3 6.5 5.9 13.3 8.6 20.3 4.3-1.4 7.4-5.6 7.4-10.4z"/><path class="st1" d="m572.4 205.8 17.7-15.9M580 216.6l27.6-15.2M583.5 228l30.2-9.2M590.1 241.4l20.7-2.2"/><path class="st5" d="M748.6 479.6c-6.1 3.8-15.5 7.4-29.2 7.4-14.6 0-25.4-2.2-32.3-4.2l-6.2 24.2s12.1 10.4 41.3 10.4c29 0 47.3-10 47.3-10l-20.9-27.8z"/><path class="st1" d="m699.9 496.1-3.3 18.1M716.4 496.1l-.5 20.5M729.3 496.1l7.4 20.5M745.5 495.7l7.8 17"/><path class="st5" d="M390.1 792.3v41l-63.8 1.1 12.5-39.7zM583.1 786.7l1.8 45.3 52.2-18.1-15.8-37.9z"/><path class="st6" d="M339.9 776c-11.2 3.9-8.6 22.8-2.9 24.7 5.7 2 40.9-.7 47.5-2.6 6.6-2 10.8-20.4 5.3-22.1-5.2-1.7-38.7-3.9-49.9 0zM580.1 776c-2.2 5.2-3.5 16.9 3.5 19.1 6.9 2.2 46.9-13 46.9-17.8s-.9-17.8-4.8-17.8-43.5 11.3-45.6 16.5z"/><path class="st5" d="M322.2 832c-2.6 4.8-3.8 15.6 4.4 17.6 8.2 2 88.9-3.6 94.4-3.9s4.6-15.8 0-16.3c-4.5-.5-96.2-2.2-98.8 2.6zM586.1 828.8c-3.5 4.6 0 16.3 6.5 16.3s71.6-29.2 73.3-31.8c1.7-2.6-3.9-11.8-7.4-11.8-3.5-.1-68.9 22.7-72.4 27.3z"/><path id="XMLID_36_" class="st5" d="M436.7 834.4c.8 4 3.5 15.6 9.2 15.6 6.4 0 4.3-14.5 3.9-16.7h0l-13.1 1.1z"/><path id="XMLID_47_" class="st5" d="M431.8 850c6.4 0 5.3-11.6 4.8-15.6l-11.1.9c.1 0-1.5 14.7 6.3 14.7z"/><path id="XMLID_51_" class="st5" d="m480.9 830.7-16.1 1.3s5.6 16.7 12.5 16.7 3.6-18 3.6-18z"/><path id="XMLID_52_" class="st5" d="M449.9 833.3c.4 2.3 3.1 16.7 9.9 16.7 7.4 0 4.8-18 4.8-18l-14.7 1.3h0z"/><path id="XMLID_53_" class="st5" d="M703.3 801.4c5.1-2.5 2.6-11.6 1-16l-14.8 6.4c2.8 4.4 9 12.1 13.8 9.6z"/><path id="XMLID_54_" class="st5" d="M688.3 807c4.6-2.5 2.3-10.4.7-14.8l-13.3 5.7c2.4 4 7.8 11.7 12.6 9.1z"/><path id="XMLID_55_" class="st5" d="M674.9 813.3c4.3-2.7 2-11.2.4-15.4l-12.8 5.5s6.5 13.6 12.4 9.9z"/><path id="XMLID_56_" class="st5" d="m717.2 779.9-12.4 5.3c2.7 3.8 8.9 10.7 14.1 7.6 7.2-4.4-1.7-12.9-1.7-12.9z"/></svg>