<svg version="1.1" id="Calque_1" xmlns="http://www.w3.org/2000/svg" x="0" y="0" viewBox="0 0 900 900" style="enable-background:new 0 0 900 900" xml:space="preserve"><style>.st0,.st1,.st2{stroke:#000;stroke-width:3.8822}.st0{fill:#ff6700;stroke-linecap:round;stroke-linejoin:round}.st1,.st2{fill:#ffce00}.st2{fill:none;stroke-linecap:round;stroke-linejoin:round}.st4{fill:#fff}.st5{fill:#ff6700}.st10,.st11,.st6,.st7,.st8,.st9{fill:none;stroke:#000;stroke-width:7.7644;stroke-linecap:round;stroke-linejoin:round}.st10,.st11,.st7,.st8,.st9{fill:#ffce00;stroke-width:3.8822}.st10,.st11,.st8,.st9{fill:red}.st10,.st11,.st9{fill:#0064b7}.st10,.st11{fill:#ff7300}.st11{fill:#fff}.st14{fill:red}.st15{fill:#383838;stroke:#000;stroke-width:3.8822;stroke-linecap:round;stroke-linejoin:round}.st16{fill:none;stroke:#2cff00;stroke-width:.194}.st17,.st18{fill:none;stroke:#000;stroke-width:3.8822}.st18{stroke-width:5.8234;stroke-linecap:round;stroke-linejoin:round}.st20{stroke-width:.194}.st20,.st21,.st22,.st23{stroke:#000;stroke-linecap:round;stroke-linejoin:round}.st21{fill:none;stroke-width:2.9117;stroke-dasharray:3.8822,7.7644}.st22,.st23{stroke-width:.3883}.st23{fill:#ff9d00;stroke-width:3.8822}</style><path class="st0" d="M223 126.3c-14.6-1.9-25.9-36.3-25.9-48.5s-.5-27.3-8-27.8c-12.7 0-8.9 30.1-8.9 30.1l1.9 37.7 31.5 25.9 21.2-1.9s2.8-13.6-11.8-15.5z"/><path class="st0" d="M218.3 133.8c-17.9 2.4-35.8-20.7-37.7-50.4-1.9-29.7-16-31.5-20.3-30.1-4.2 1.4.9 17.9.9 29.2s6.1 34.8 6.1 34.8l39.1 35.8 26.4 3.8 13.7-12.2c.1-.1-10.3-13.2-28.2-10.9z"/><path class="st0" d="M161.8 132.4s-13.2-28-19.3-39.1c-5.2-9.4-14.6-31.5-8-34.4 15.5-5.7 33.9 101.2 101.2 91.8 58.9-9.4 20.7.9 20.7.9l.9 16-45.2 2.4-32-12.2-18.3-25.4z"/><path class="st0" d="M192.4 177.1c-17.9-.5-59.8-65-66.9-75.8-7.1-10.8-17-24.5-11.3-26.8 5.7-2.4 14.6 6.6 25.4 22.1 10.8 15.5 43.3 72.5 89 70.6 45.7-1.9-4.2 8.9-4.2 8.9s-14.1 1.5-32 1z"/><path class="st1" d="M125.6 101.3c-7.1-10.8-17-24.5-11.3-26.8 5.7-2.4 14.6 6.6 25.4 22.1l-14.1 4.7zM142.5 93.3c-5.2-9.4-14.6-31.5-8-34.4 5.8-2.1 12.1 11.6 21.1 29.1l-13.1 5.3zM180.7 83.4c-1.9-29.7-16-31.5-20.3-30.1-4.2 1.4.9 17.9.9 29.2l19.4.9z"/><path class="st1" d="M197.1 77.8c0-12.2-.5-27.3-8-27.8-12.7 0-8.9 30.1-8.9 30.1l16.9-2.3z"/><path class="st2" d="M134.1 99.4c41.9 73 76.3 72 76.3 72"/><path class="st2" d="M149.1 91.4c28.3 75.3 95.6 68.7 95.6 68.7"/><path class="st2" d="M170.8 83.9c5.7 59.8 52.7 58.9 52.7 58.9"/><path class="st2" d="M189.6 79.7c3.8 37.7 24.5 50.4 24.5 50.4"/><path style="fill:#ff9d00;stroke:#000;stroke-width:.3883;stroke-linecap:round;stroke-linejoin:round" d="m295.4 438.9 20.9 1.8-5.7 30.4-22.2.3z"/><path class="st4" d="M367.6 806.2c-4.7 69.7 89.5 35.3 89.5 35.3s-34.8-101.2-33.4-163.9-20.7-22.1-20.7-22.1l-44.7 19.3c-.1 0 14 61.7 9.3 131.4z"/><path class="st5" d="M382.2 799.1c-9.4 56.5 71.2 31.3 71.2 31.3-8.9-27.9-30.9-102.7-29.8-152.8 1.4-62.6-20.7-22.1-20.7-22.1L371.6 669c0 .1-6.8 53.9 10.6 130.1z"/><path class="st2" d="M367.6 806.2c-4.7 69.7 89.5 35.3 89.5 35.3s-34.8-101.2-33.4-163.9-20.7-22.1-20.7-22.1l-44.7 19.3c-.1 0 14 61.7 9.3 131.4z"/><path class="st6" d="M404.3 698.1c0 4.6-3.7 8.2-8.2 8.2-4.5 0-8.2-3.7-8.2-8.2s3.7-8.2 8.2-8.2c4.5 0 8.2 3.7 8.2 8.2zM414.2 732c0 4.6-3.7 8.2-8.2 8.2s-8.2-3.7-8.2-8.2 3.7-8.2 8.2-8.2 8.2 3.7 8.2 8.2zM419.9 771.6c0 4.6-3.7 8.2-8.2 8.2s-8.2-3.7-8.2-8.2 3.7-8.2 8.2-8.2c4.5 0 8.2 3.6 8.2 8.2zM426.9 811.1c0 4.6-3.7 8.2-8.2 8.2-4.5 0-8.2-3.7-8.2-8.2s3.7-8.2 8.2-8.2c4.5 0 8.2 3.7 8.2 8.2z"/><path class="st2" d="m378.9 816.6-8.5 4.2M379.8 823.6l-6.6 5.2M384.1 830.7l-5.7 6.6M389.3 835.4 385 842M396.3 839.2l-2.8 8M405.3 840.6l-1.4 8.9M413.3 841l.4 8.1M420.8 839.6l1.4 9.9M429.3 839.2l2.3 8.4M438.2 838.2l2.4 7.1M448.1 835.4l1.9 6.6"/><path class="st7" d="m106.1 731.7-17.3 73.8 57.6 3.2 3.9-28.3 34.3-.7-.4-48.7 98.9-3.9 2.5 57.2h43.7l3.2 25.1 56.9.3-14.1-83.7-13.5-15.5-185.4 1.4z"/><path class="st8" d="m387.2 797-11.9-71-13.5-15.5-63.2 16.6 1.8 39.5 37.4 1.5 7.8 29.3zM176.4 711.9l-70.3 19.8-14.6 62.4 41.8-.3 4.3-26.4 33.2-.8-.4-37.4z"/><path class="st9" d="M359.7 753.4c0 6.5-5.3 11.8-11.8 11.8s-11.8-5.3-11.8-11.8 5.3-11.8 11.8-11.8 11.8 5.3 11.8 11.8z"/><path class="st2" d="M353.2 754.3c0 2.9-2.4 5.3-5.3 5.3s-5.3-2.4-5.3-5.3 2.4-5.3 5.3-5.3 5.3 2.4 5.3 5.3z"/><path class="st0" d="M131 760.5c0 6.1-5 11.1-11.1 11.1s-11.1-5-11.1-11.1 5-11.1 11.1-11.1c6.2-.1 11.1 4.9 11.1 11.1z"/><path class="st10" d="M124.9 761.3c0 2.7-2.2 5-5 5s-5-2.2-5-5 2.2-5 5-5 5 2.2 5 5z"/><path class="st7" d="m112.9 638.1-9.9-62.5 22.3-4.6-15.5-87.9 21.5-6.4L110 350.6l97.1-11.3c2.5 60.7 29 285.7 34.3 300.5 5.3 14.8-83.3 15.9-83.3 15.9l-45.2-17.6z"/><path class="st8" d="M217 561.5c-.7-15.9-26.1-202.7-26.1-202.7l-61.4 8.1 21.9 128.5-21.9 3.9 15.2 92.5-20.8 3.9 5.3 44.9 100.6.7s-12.1-51.9-12.8-79.8z"/><path class="st0" d="M182.8 588.3c0 7.8-6.3 14.1-14.1 14.1s-14.1-6.3-14.1-14.1 6.3-14.1 14.1-14.1 14.1 6.3 14.1 14.1z"/><path class="st10" d="M174.3 588.7c0 2.9-2.4 5.3-5.3 5.3s-5.3-2.4-5.3-5.3 2.4-5.3 5.3-5.3 5.3 2.3 5.3 5.3z"/><path class="st9" d="M187.4 488c0 7.8-6.3 14.1-14.1 14.1s-14.1-6.3-14.1-14.1 6.3-14.1 14.1-14.1 14.1 6.3 14.1 14.1z"/><path class="st2" d="M178.9 488.4c0 2.9-2.4 5.3-5.3 5.3s-5.3-2.4-5.3-5.3 2.4-5.3 5.3-5.3 5.3 2.3 5.3 5.3z"/><path class="st0" d="M176.8 405.4c0 7.8-6.3 14.1-14.1 14.1s-14.1-6.3-14.1-14.1 6.3-14.1 14.1-14.1 14.1 6.3 14.1 14.1z"/><path class="st10" d="M168.3 405.7c0 2.9-2.4 5.3-5.3 5.3s-5.3-2.4-5.3-5.3 2.4-5.3 5.3-5.3 5.3 2.4 5.3 5.3z"/><path class="st7" d="m343.1 640.2-243.7-4.9 3.2 101.3 274.4-9.9-3.9-70.9z"/><path class="st8" d="m117.1 655.8 1.1 60h237.6l-.7-59.3z"/><path class="st9" d="M168.7 687.2c0 7.8-6.3 14.1-14.1 14.1s-14.1-6.3-14.1-14.1 6.3-14.1 14.1-14.1c7.7 0 14.1 6.3 14.1 14.1z"/><path class="st2" d="M160.2 687.5c0 2.9-2.4 5.3-5.3 5.3s-5.3-2.4-5.3-5.3 2.4-5.3 5.3-5.3 5.3 2.4 5.3 5.3z"/><path class="st0" d="M335 690c0 7.8-6.3 14.1-14.1 14.1s-14.1-6.3-14.1-14.1 6.3-14.1 14.1-14.1S335 682.2 335 690z"/><path class="st10" d="M326.5 690.4c0 2.9-2.4 5.3-5.3 5.3s-5.3-2.4-5.3-5.3 2.4-5.3 5.3-5.3c3 0 5.3 2.3 5.3 5.3z"/><path class="st7" d="M267.5 617.3S235 653 234.3 662.2s4.2 13.8 14.8 10.9c4.6 1.8-45.6 86.9-64.6 106.6 0 0 30.4 25.8 33.9 25.1 3.5-.7 30-61.8 30-61.8l59.3-133.1-1.4-31.4-19.4 5.3-8.5 15.9-10.2 4.9-4.9 5.3 4.2 7.4z"/><path class="st10" d="M200.3 759.4c-1.7 2.5-3.4 4.9-5.1 7.1-4.1 5.6-7.8 10.2-10.7 13.2 0 0 30.4 25.8 33.9 25.1 1.2-.2 5.2-7.8 10-17.6 1.3-2.6 2.6-5.4 3.9-8.3l-32-19.5z"/><path d="M228.4 787.2c1.3-2.6 2.6-5.4 3.9-8.3l-32-19.5c-1.7 2.5-3.4 4.9-5.1 7.1l33.2 20.7z"/><path class="st2" d="m189.9 773.4 32.1 21.9"/><path class="st8" d="m297 591-65 156.8s-10.4 23.5-2.8 26.8c7.5 3.3 17.9-22.6 17.9-22.6s-9.4 28.7 0 32c9.4 3.3 16.5-23.1 16.5-23.1s-7.5 26.4 1.9 27.8c9.4 1.4 16.5-24.5 16.5-24.5s32.5-160.6 42.8-171.9S297 591 297 591z"/><path class="st11" d="M258.2 684.5 232 747.8s-10.4 23.5-2.8 26.8c7.5 3.3 17.9-22.6 17.9-22.6s-9.4 28.7 0 32c9.4 3.3 16.5-23.1 16.5-23.1s-7.5 26.4 1.9 27.8c9.4 1.4 16.5-24.5 16.5-24.5s6.1-29.9 13.8-64.8c-7.8-3.7-37.6-14.9-37.6-14.9z"/><path class="st9" d="M329 554.3c-36.3-11.8-88.1-64.5-88.1-64.5s-6.2-1.2-5.2 6.1c-5.7 1.3-5.2 8-5.2 8s-4.7 1.4-3.3 7.1c-4.9 1.1-3.8 6.6-3.8 6.6s-5.3 2.7-3.8 8.5c-4.8 4.4-2.4 10.4-2.4 10.4l7.1 36.7L279 592l44.7 1.9c.1-.1 41.5-27.8 5.3-39.6z"/><path class="st4" d="M246 494.8c-3.2-3.1-5.1-5-5.1-5s-6.2-1.2-5.2 6.1c-5.7 1.3-5.2 8-5.2 8s-4.7 1.4-3.3 7.1c-4.9 1.1-3.8 6.6-3.8 6.6s-5.3 2.7-3.8 8.5c-4.8 4.4-2.4 10.4-2.4 10.4l1.5 7.8c.2-.1 27.3-48.2 27.3-49.5z"/><path class="st2" d="M225.9 530.4c-2.6-1.8-3.9-2.8-6.1-4.4M229.8 523c-3.6-2.8-5-4.1-6.2-5.4M234.4 516.9c-2.4-2-4.7-3.9-7.1-6M237.5 510.6c-2.5-2.3-4.8-4.5-6.9-6.7M242.1 502.5c-2.1-2.2-4.3-4.4-6.3-6.6"/><path class="st2" d="M329 554.3c-36.3-11.8-88.1-64.5-88.1-64.5s-6.2-1.2-5.2 6.1c-5.7 1.3-5.2 8-5.2 8s-4.7 1.4-3.3 7.1c-4.9 1.1-3.8 6.6-3.8 6.6s-5.3 2.7-3.8 8.5c-4.8 4.4-2.4 10.4-2.4 10.4l7.1 36.7"/><path d="M265.3 549.2c-4.1-2.9-8.3-5.8-12.2-8.7" style="fill:none"/><path class="st2" d="M241.8 541.1c-2.8-1.9-5.6-3.8-8.3-5.6M308.5 585.1s-2.8-1.8-7.5-4.9M246.1 535.4c-3.4-2.5-6.6-4.9-9.5-7.1M290.4 566.2c-4-2.6-8.3-5.4-12.7-8.4M312.8 578.4c-2.1-.4-6.1-2.4-11.4-5.5M248.3 528c-2.7-2.1-5.5-4.3-8.3-6.6M268.8 543.3c-3.8-2.7-7.7-5.6-11.7-8.5M293.6 559.9c-4.1-2.6-8.7-5.5-13.5-8.8M314.2 571c-2-.6-5.3-2.2-9.8-4.7M251.6 522.4c-2.9-2.2-5.7-4.5-8.4-6.8M273.2 537.8c-4.4-2.9-8.8-6-13.1-9.1M297.1 553.1c-3.5-2.1-7.4-4.5-11.4-7.1M317 564.7s-4.8-2.6-12.2-7M258.4 517.6c-3.9-3.3-7.8-6.9-11.7-10.6M279.4 534.1c-4.7-3.4-9.6-7.1-14.6-11.1M300.6 548.1c-3.9-2.4-8.3-5.2-13.1-8.4M318.7 558.3s-3.9-1.9-10.3-5.5"/><path d="M260.8 554.6c0 6.9-5.6 12.5-12.5 12.5s-12.5-5.6-12.5-12.5 5.6-12.5 12.5-12.5 12.5 5.6 12.5 12.5z" style="fill:#fff;stroke:#000;stroke-width:.3883;stroke-linecap:round;stroke-linejoin:round"/><path class="st7" d="M218.8 549.1c-6-.7-12.4-8.1-29-5.3s-23.7 26.5-7.1 40.3c1.1-1.1 6.7-13.4 22.6-13.4s24.7 23.3 49.1 17.7c-18.7 3.5-32.8 4.6-37.8 3.9-4.9-.7-9.9-10.2-9.9-10.2s-10.2 16.6 6.4 22.3c14.5 4.2 69.6-2.5 66-17-3.9-16.6-32.1-3.9-42-10.6-9.9-6.7-3.5-41-17-38.5-6.9.9-8.4 6.2-1.3 10.8z"/><path class="st9" d="M237.2 576.7c9.9 6.7 38.1-6 42 10.6 2.1 8.8-11.5 12.6-17.7 18.4-4 3.8-3.4 10.1 1.8 13.4 11.7 7.4 21.2-7.8 12-11.3 1.1 0 24-7.4 16.6-26.8-7.4-19.4-31.4-8.1-37.8-18.4"/><path class="st14" d="M255 544c3.5 2.2 5.8 6.1 5.8 10.6 0 6.9-5.6 12.5-12.5 12.5-.9 0-1.8-.1-2.6-.3L255 544z"/><path class="st2" d="M260.8 554.6c0 6.9-5.6 12.5-12.5 12.5s-12.5-5.6-12.5-12.5 5.6-12.5 12.5-12.5 12.5 5.6 12.5 12.5z"/><path class="st11" d="M253.1 554.4c0 2.5-2.1 4.6-4.6 4.6s-4.6-2.1-4.6-4.6c0-2.5 2.1-4.6 4.6-4.6 2.5 0 4.6 2.1 4.6 4.6z"/><path class="st2" d="M275.3 607.7c-4.9 1.4-6 4.9-6 4.9"/><path class="st7" d="m260 680.3-3.5 8.4 38 16.1c.7-3.3 1.5-6.7 2.2-10.1L260 680.3z"/><path class="st15" d="M232 747.8s-10.4 23.5-2.8 26.8c7.5 3.3 17.9-22.6 17.9-22.6s-9.4 28.7 0 32c9.4 3.3 16.5-23.1 16.5-23.1s-7.5 26.4 1.9 27.8c9.4 1.4 16.5-24.5 16.5-24.5l-50-16.4z"/><path class="st2" d="m238.9 750.8 18.4-40.6M256.6 755.3l14.8-38.4M274.3 762.1l12.3-39.6"/><path class="st15" d="m240.9 726.3-2.8 6.7 46.2 19.7c.5-2.2 1-4.7 1.6-7.5l-45-18.9z"/><path class="st2" d="M281.3 714.7 263.5 761M265.8 708.7l-18.7 43.4"/><path class="st15" d="m251.2 701.4-3.2 7.8 41.8 17.5c.5-2.5 1.1-5.1 1.7-7.7l-40.3-17.6z"/><path class="st0" d="m275.2 643.7-8.4 20.4 34.3 11.5c1.4-6.3 2.9-12.6 4.4-18.8l-30.3-13.1z"/><path class="st2" d="m271.1 652.9 30.3 12.7"/><path d="M267.2 781.1c2.5 1.1 9.3-18.6 9.3-18.6l-6.9-2.3s-4.9 19.9-2.4 20.9zM242.9 751.4l-7.2-2.4s-6.3 17.6-3.5 18.7c2.8 1.1 10.7-16.3 10.7-16.3zM259.2 756.8l-7.6-2.5s-4.8 20.9-2 21.6c2.8.6 9.6-19.1 9.6-19.1z"/><path class="st0" d="M283.3 448.3c-12.7-17.9-25.4-120.5-26.8-139.4 0 0-4.7-42.8-.9-42.8 16 1.4 14.1 27.8 14.6 42.8s10.4 114.9 21.2 123.8l3.8 10.4-11.9 5.2z"/><path class="st0" d="M276.2 463.4c-14.1-15.1-36.7-121.9-38.6-148.3-1.9-26.4-11.3-46.1-2.8-47.1 8.5-.9 17.9 30.1 18.8 43.8 1.4 18.8 17 118.7 29.7 136.6 4.6 5.6 6.1 15.3 17.4 16 17 0 2.1 18.7-4.9 18.7-7.1 0-19.6-19.7-19.6-19.7z"/><path class="st0" d="M289.4 502.5c-34.8-6.1-68.7-166.7-72.5-183.2-3.8-16.5-11.8-38.6-6.6-40.5 8-2.4 16 23.1 19.8 37.2 3.8 14.1 32 132.3 46.1 147.4 2.6 1.7 12.1 18.8 19.5 19.7 7.4.8 32.3-5.1 32.3-5.1l17.4 14.1-26.4 17.4-29.7.5.1-7.5h0z"/><path class="st0" d="M329.9 508.6s-1.9 8-43.3 6.6c-41.4-1.4-62.6-164.3-87.6-186-13.2-12.7-22.1-24.5-17.4-28.7 4.7-4.2 17.4 7.5 29.2 21.2 24 24.5 45.7 175.2 78.6 180.8 29.2 4.2 45.7-8.9 45.7-8.9l-5.2 15z"/><path class="st7" d="M199 329.2c-13.2-12.7-22.1-24.5-17.4-28.7 4.7-4.2 17.4 7.5 29.2 21.2l-11.8 7.5zM216.9 319.3c-3.8-16.5-11.8-38.6-6.6-40.5 8-2.4 16 23.1 19.8 37.2l-13.2 3.3zM237.6 315.1c-1.9-26.4-11.3-46.1-2.8-47.1s17.9 30.1 18.8 43.8l-16 3.3zM256.5 309s-4.7-42.8-.9-42.8c16 1.4 14.1 27.8 14.6 42.8h-13.7z"/><path class="st16" d="M413.3 186.1 555 148.4l6.6 35.3L422.7 219z"/><path class="st11" d="M623.3 282.1s55.1-10.8 56-8.5c.9 2.4 1.9 14.1-.5 16-2.4 1.9-54.2 2.4-54.2 2.4l-1.3-9.9z"/><path class="st2" d="M648.2 290.6v-12.2M658.1 290.6V276"/><path class="st16" d="M652 713.4s43.3-12.7 45.2-10.4c1.9 2.4-.5 23.1-.5 23.1l-34.8.5-9.9-13.2z"/><path class="st8" d="m479.7 664-25.5 59.3 45.7.5 36.7-63.1-4.7-24.9-36.7 9.4-6.6 16z"/><path class="st16" d="M503.2 726.6s46.6-9.4 50.4-8.9c3.8.5.9 27.3.9 27.3l-42.8-1.9-13.2-2.4-.5-9.9 5.2-4.2z"/><path class="st7" d="M225.9 171c-19.8.5-37.7 2.4-41 13.2-3.3 10.8.5 23.1 15.5 22.6 10.8-.9 11.3-9.9 10.8-13.2-.9-7.5-12.5-7.6-13.2-4.2-.9 4.7 6.1 3.3 5.2 5.2-2.3 4.6-10.8 3.3-9.9-6.6 1.4-8 30.6-5.7 30.6-5.7s21.7-11.8 2-11.3z"/><path class="st11" d="M309.7 124.4s-60.3-19.3-95.6 6.6c18.8 41.9 97.9 22.1 97.9 22.1l-2.3-28.7z"/><path class="st17" d="m251.3 127.7 35.3.5M252.7 133.8h33.4M251.8 140.9l35.7-1.9M251.3 147.9l36.7-1.4"/><path class="st15" d="M252.6 117.9c-13.5 1.2-27.3 4.8-38.5 13.1 7 15.5 22.2 22.6 38.5 25.3v-38.4z"/><path d="M252.6 148.4v-21.2s-17.9-2.6-29.1 5.7c7 15.5 29.1 15.5 29.1 15.5z"/><path class="st15" d="M285.2 138c0 11.8 2.8 18.9 2.8 18.9 5-.5 9.5-1.1 13.2-1.7 0 0-3.7-5.9-3.7-17.2 0-11.3 1.5-16.4 1.5-16.4-3.7-.8-8.2-1.7-13.3-2.4 0 0-.5 7.1-.5 18.8zM262.6 136.6c-.5 11.8.6 20.9.6 20.9 3.6.2 7.2.3 10.7.3 0 0-.5-5.1-.9-19.7s2.6-20 2.6-20c-3.5-.3-7.3-.5-11-.5-.1-.1-1.5 7.3-2 19z"/><path class="st11" d="M315.3 183.7s-81.9 21.2-99.8-7.5c22.1-26.8 94.6-22.1 94.6-22.1l12.7 13.2-7.5 16.4z"/><path class="st17" d="m251.3 167.2 39.1-1.8M250.3 177.6l42-4.2M248.9 185.1l45.7-4.7"/><path class="st15" d="M249.4 190.9c-14.8-1.1-28-5.1-33.9-14.7 7.8-9.4 21.8-15 36.7-18.2l-2.8 32.9z"/><path d="m251.6 164.5-1.4 16.4s-19.8 3.5-25.8-6.1c9.5-8.5 27.2-10.3 27.2-10.3z"/><path class="st15" d="M274.4 172.9c-1.9-9.4-.5-18.1-.5-18.1-2.9.3-5.9.6-9 1 0 0-1.4 6.3 1 18.5s4.7 16.5 4.7 16.5c3.4-.2 6.7-.5 9.9-.9-.1 0-4.2-7.6-6.1-17zM289.4 171.9c-1.9-10.8-1.9-18-1.9-18 3.8-.1 7.3-.2 10.4-.2 0 0-1.9 6 .9 15.4s8.1 16.5 8.1 16.5c-2.9.6-6.5 1.3-10.5 2 0 0-5.1-4.8-7-15.7z"/><path class="st7" d="M359.1 140.4s-46.6-24-51.3-21.2c-4.7 2.8 5.2 64 7.5 64.5 2.4.5 41.9-10.4 41.9-10.4l1.9-32.9z"/><path class="st8" d="M359.1 140.4s-13.8-7.1-27.1-13.1l.6 52.6c11.6-3 24.6-6.5 24.6-6.5l1.9-33z"/><path class="st11" d="M413.3 157.8c0 16.4-15.1 29.7-33.7 29.7s-33.7-13.3-33.7-29.7 15.1-29.7 33.7-29.7c18.6.1 33.7 13.3 33.7 29.7z"/><path class="st2" d="M408.1 171.9s-14.1-1.9-11.8-7.1c2.4-5.2 15.1-.9 15.1-.9M384.5 134.3l4.8 5.6M376.1 136.6l4.7 6.2M363.4 148.4l6.1 2.4M360.5 156.9h8.5M361.5 166.8l8.5-1.9M366.7 174.3l5.6-1.4M375.1 180.9l1.9-.9"/><path class="st15" d="M398.4 133.2c-5.4-3.2-11.8-5.1-18.8-5.1-18.6 0-33.7 13.3-33.7 29.7s15.1 29.7 33.7 29.7c2.7 0 5.3-.3 7.8-.8 0 0-32.5-8.6-27.8-31.7 4.7-23.1 38.8-21.8 38.8-21.8z"/><path class="st15" d="M408.6 142.7c1.5 2.2 2.6 4.6 3.5 7.1-5.8-1-26.6-4.3-29.4 10.3-2.8 14.6 13.2 18.8 17.3 21.3-1.8 1.2-3.8 2.3-5.8 3.1 0 0-22.8-5.6-19.5-25.3 3.3-19.7 33.9-16.5 33.9-16.5z"/><path class="st2" d="m369.5 142.3 4.2 4.7"/><path class="st16" d="m553.1 185.6-8.9-32.5"/><path class="st8" d="m367.6 515.2-19.8 28.3s-20.2 24.9-27.8 51.3c-7.5 26.4 31.1 82.4 69.7 85.7 55.1 5.7 98.9-31.1 98.9-31.1l-33.9-84.3-19.8-65-42.4-34.8-17 10.4-7.9 39.5zM553.1 661.2l58.4 57.4 36.7-8.4-35.3-56.6-20.2-16.9-45.7 12.2z"/><path class="st11" d="m554.5 652.7 64.5-5.2-11.3-27.8-57.9-.9-15.5 18.8 5.2 18.9z"/><path class="st11" d="m576.2 623.5 24.5-.9 41 1.9s54.6 5.7 63.6 5.7 24.5.9 25.4-9.9c.9-10.8-26.8-13.7-26.8-13.7s27.8 1.4 26.4-12.2c-1.4-13.7-27.3-8-27.3-8s22.1-2.4 21.7-12.7c-.5-10.4-13.2-9.4-24.9-9.4s-61.7 6.6-61.7 6.6l-36.7.5-49.4 7.5 1.4 36.7 22.8 7.9z"/><path class="st0" d="m637.9 570.8-36.7.4-49.5 7.6 1.4 36.7 23.1 8 24.5-.9 40.9 1.9z"/><path class="st8" d="m601.2 571.2-49.5 7.6-2.8 46.6 51.8-2.8z"/><path class="st2" d="m613.9 622.6-2.9-50.9M625.6 623l-3.7-51.3M700.5 571.2l-40 3.8M701.9 577.4l-40 3.7M702.9 592.4l-40.5 2.4M702.9 600.4l-40.1 1M706.1 613.6h-44.2M706.6 622.1l-41.9-1"/><path class="st15" d="M705.2 630.1c8.9 0 24.5.9 25.4-9.9.9-10.8-26.8-13.7-26.8-13.7s27.8 1.4 26.4-12.2c-1.4-13.7-27.3-8-27.3-8s22.1-2.4 21.7-12.7c-.5-10.4-13.2-9.4-24.9-9.4l5.5 65.9zM679.3 628.1c3.1.3 6.1.6 9 .8l-3.8-63.7c-1.8.2-3.7.4-5.7.6l.5 62.3zM658.1 626.1c2.5.3 5.2.5 8 .8l-3.4-59.2c-2.9.4-5.8.7-8.4 1l3.8 57.4z"/><path d="M714.2 572.6c0-4.7-14.1-2.8-14.1-2.8l.9 9.9c-.1.1 13.2-2.3 13.2-7.1z"/><path class="st2" d="m702.9 586.3-55.1 3.8M703.8 606.6l-54.1 1.8"/><path class="st15" d="M646.8 569.6c-5.4.7-8.9 1.1-8.9 1.1l3.8 53.7s3.4.4 8.7.9l-3.6-55.7z"/><path class="st7" d="M502.3 662.4c0 6.9-5.6 12.5-12.5 12.5s-12.5-5.6-12.5-12.5 5.6-12.5 12.5-12.5 12.5 5.6 12.5 12.5zM557.4 655.3c0 6.9-5.6 12.5-12.5 12.5s-12.5-5.6-12.5-12.5 5.6-12.5 12.5-12.5 12.5 5.6 12.5 12.5zM584.2 620c0 6.9-5.6 12.5-12.5 12.5s-12.5-5.6-12.5-12.5 5.6-12.5 12.5-12.5 12.5 5.6 12.5 12.5z"/><path class="st0" d="M347.8 543.5s-20.2 24.9-27.8 51.3c-1.1 3.8-1.2 8.3-.5 13.1 26.9-19.7 51.4-1.8 88.6-20.6 37.2-18.8 9.9-16.5 9.9-16.5l-16-8.5-46.1-11.3-8.1-7.5z"/><path class="st9" d="M320 594.8c-2.8-20.7 11.3-62.6 24-56 12.7 6.6 31.1 19.8 64.5 19.8s1.9 24.5 1.9 24.5-28.2 3.2-47.6 4.2c-25.3 1.4-42.8 7.5-42.8 7.5z"/><path class="st2" d="M408.1 576.9c-62.6-3.8-87.6 9.9-87.6 9.9M335.1 581.1l-5.2-32.5M343.1 578.8l-6.1-37.7M367.1 576l4.3-22.7M373.7 576.9l4.3-21.7M359.1 563.2c0 3.1-2.5 5.7-5.7 5.7-3.1 0-5.7-2.5-5.7-5.7s2.5-5.7 5.7-5.7c3.2.1 5.7 2.6 5.7 5.7zM393 567.5c0 2.3-1.9 4.2-4.2 4.2-2.3 0-4.2-1.9-4.2-4.2s1.9-4.2 4.2-4.2c2.3-.1 4.2 1.8 4.2 4.2z"/><path class="st11" d="M320.5 626.8c0 3.3 1.9 18.4 10.4 17 8.5-1.4 21.7-13.2 50.4-15.1 28.7-1.9 34.8-.9 46.6-7.1 11.8-6.1 22.6-17.4 22.6-17.4v-21.7s-24.9 21.2-34.8 24c-9.9 2.8-39.1 1.9-54.6 5.2-15.6 3.3-40.6 11.8-40.6 15.1z"/><path class="st2" d="m330.9 631.5 4.7 8.5M341.7 626.8l4.2 8.9M348.8 623l3.7 9.4M358.7 621.6l3.7 8M368.1 618.8l2.8 8.9M378 617.9l1.8 8.9M388.3 616.4l2.8 10.4M397.7 616.4l3.8 10.4M407.6 615l4.3 9.9M417 613.2l3.8 10.3M425.5 609.8l3.3 10.4M431.2 606.1l5.1 8M438.7 600.4l5.6 9"/><path class="st7" d="M451.4 624.2c0 6.9-5.6 12.5-12.5 12.5s-12.5-5.6-12.5-12.5 5.6-12.5 12.5-12.5 12.5 5.6 12.5 12.5z"/><path class="st0" d="M445.3 585.8s-6.1 67.8 60.7 66.4 56.5-71.6 56.5-71.6l-69.2-1.4-48 6.6z"/><path class="st7" d="M466.5 585.4s-13.2 50.4 35.8 49.9 39.1-55.6 39.1-55.6l-56 .9-18.9 4.8z"/><path class="st8" d="M484.4 585.8s-6.1 33.9 18.8 32.5c24.9-1.4 20.2-35.8 20.2-35.8l-39 3.3z"/><path class="st7" d="M785.7 446.9s14.6 13.2 20.7.9c6.1-12.2-18.8-14.6-18.8-14.6l-1.9 13.7zM811.2 492.4c0 5.9-4 10.6-8.9 10.6s-8.9-4.7-8.9-10.6c0-5.9 4-10.6 8.9-10.6s8.9 4.7 8.9 10.6z"/><path class="st0" d="M779.1 365.9s12.7 99.4 17 134.2c4.2 34.8 14.6 80 14.6 80s-3.3 4.2-9.9 0c-4.2 5.2-10.4.9-10.4.9s-3.8 4.2-9.4.5c-4.2 4.2-10.4.9-10.4.9s-4.7 4.2-9.4 0l-9.4-181.8.5-46.6 14.1-5.7 12.7 17.6z"/><path class="st2" d="m770.2 500.1-14.6-121.4M758.4 390.4l25.9 21.2M784.3 411.6l-21.2 29.7M764.5 447.9l27.3 23.5M791.8 471.4l-20.7 25.9M781.5 472.4c0 2.3-1.9 4.2-4.2 4.2s-4.2-1.9-4.2-4.2c0-2.3 1.9-4.2 4.2-4.2 2.3-.1 4.2 1.8 4.2 4.2zM790 492.1c0 2.3-1.9 4.2-4.2 4.2s-4.2-1.9-4.2-4.2c0-2.3 1.9-4.2 4.2-4.2s4.2 1.9 4.2 4.2zM782.9 441.3c0 2.3-1.9 4.2-4.2 4.2s-4.2-1.9-4.2-4.2c0-2.3 1.9-4.2 4.2-4.2s4.2 1.8 4.2 4.2zM773 411.6c0 2.3-1.9 4.2-4.2 4.2-2.3 0-4.2-1.9-4.2-4.2 0-2.3 1.9-4.2 4.2-4.2 2.3 0 4.2 1.9 4.2 4.2zM775.8 383.4c0 2.3-1.9 4.2-4.2 4.2s-4.2-1.9-4.2-4.2c0-2.3 1.9-4.2 4.2-4.2s4.2 1.8 4.2 4.2z"/><path class="st7" d="M767.4 352.3c1.4-.5 17 11.3 19.8 8s-5.7-8.9-2.4-13.7c3.3-4.7 18.8 7.5 9.4 19.3-8 11.3-30.6-4.2-30.6-4.2l-4.7-9.4h8.5z"/><path class="st9" d="m731.6 513.3 3 21.2 13.6-.7-3.9-24.2zM730.2 491.7l1.4 14.1 13.6-.5.5-13.2z"/><path class="st9" d="m727.8 503 1.4 10.8 19.3-.5-.4-11.7zM726.9 464.4l1.4 24.4h16.5l-1-24.9z"/><path class="st9" d="m725.5 485.5.4 9.9 20.8-.4-.5-9.5zM740.5 477.5c0 2.3-1.9 4.2-4.2 4.2s-4.2-1.9-4.2-4.2c0-2.3 1.9-4.2 4.2-4.2 2.3 0 4.2 1.9 4.2 4.2zM743.2 523.4c0 1.7-1.4 3.1-3.1 3.1-1.7 0-3.1-1.4-3.1-3.1 0-1.7 1.4-3.1 3.1-3.1 1.7 0 3.1 1.4 3.1 3.1zM723.1 434.2l2.4 27.8 17.8-1.9 1.9-42.4z"/><path class="st9" d="m721.7 456.3.9 10.9h22.6l-.9-10.9zM737.7 443.6c0 2.3-1.9 4.2-4.2 4.2s-4.2-1.9-4.2-4.2c0-2.3 1.9-4.2 4.2-4.2s4.2 1.9 4.2 4.2z"/><path class="st8" d="m591.4 442.1 58.3-17.3 22.2-4.6 7.4 29-12 22-29 8.3z"/><path class="st7" d="M659.1 421.3c0 5.8-4.7 10.6-10.6 10.6-5.8 0-10.6-4.7-10.6-10.6 0-5.8 4.7-10.6 10.6-10.6s10.6 4.7 10.6 10.6zM677 471.2c0 5.3-4.3 9.6-9.6 9.6s-9.6-4.3-9.6-9.6 4.3-9.6 9.6-9.6c5.2-.1 9.6 4.3 9.6 9.6z"/><path class="st7" d="m655.3 413.5 21.2 59.8 24-17.4-14.6-44.3z"/><path class="st9" d="M691.1 400.8c-10.4 3.1-12.4 20.8-8.5 35.3 4 15 13.7 26.8 25.9 23.5 11.9-3.2 2.4-35.3 2.4-35.3s-7.1-27.3-19.8-23.5z"/><path class="st9" d="M703.3 409.3c-11.3-2.4-17 6.1-9.9 26.4s20.2 17.4 20.2 17.4M739.6 167.7c-6.6.9-7.1-25.9-.5-27.3 6.6-1.4 40.5 0 45.2 2.4 4.7 2.4-8.9 65-8.9 65l-29.7 8.5c0-.1.5-49.5-6.1-48.6z"/><path class="st8" d="m740.1 249.2-.5-85.7 32.5.9-2.9 48-8.4 39.1z"/><path class="st9" d="m739.8 204.4-.2-40.9 32.5.9-2.3 39.5z"/><path class="st9" d="m770.3 194.1-.5 9.8-30 .5-.1-10.3zM739.6 171.5v-8l32.5.9-.5 7.5z"/><path class="st2" d="M759.3 182.5c0 2.5-2 4.5-4.5 4.5s-4.5-2-4.5-4.5 2-4.5 4.5-4.5c2.6.1 4.5 2.1 4.5 4.5zM742.4 157.4v-16.1M749 157.4l.5-17M756.1 158.3l.9-17.4M762.2 158.3l1.4-16.5M768.8 158.3l1.9-16.5M775.4 159.2l2.8-17.4"/><path class="st11" d="M719.8 289.2s-14.1-45.2-2.8-51.8c11.3-6.6 25.9 4.7 31.1 3.8 5.2-.9 17-33.9 20.7-37.2 3.8-3.3 12.7-2.4 14.6.9 1.9 3.3-12.7 76.8-10.8 86.2 1.9 9.4-36.7 18.4-36.7 18.4l-16.1-20.3z"/><path class="st5" d="M733.9 301.9s-16-43.3-4.7-49.9c11.3-6.6 17.9-.9 23.1-1.9 5.2-.9 14.1-29.7 17.9-33 3.8-3.3 12.2-2.4 12 1.3-1.4 22.7-11.1 65.6-9.7 72.6 1.9 9.4-36.7 18.4-36.7 18.4l-1.9-7.5z"/><path class="st11" d="M783.4 204.9c1.9 3.3-12.7 76.8-10.8 86.2"/><path class="st18" d="M741.5 265.9c0 3.5-2.8 6.4-6.4 6.4s-6.4-2.8-6.4-6.4 2.8-6.4 6.4-6.4c3.5 0 6.4 2.9 6.4 6.4zM764.1 263.1c0 3.5-2.8 6.4-6.4 6.4s-6.4-2.8-6.4-6.4c0-3.5 2.8-6.4 6.4-6.4 3.5 0 6.4 2.9 6.4 6.4zM774.1 239.6c0 3-2.4 5.4-5.4 5.4-3 0-5.4-2.4-5.4-5.4s2.4-5.4 5.4-5.4c2.9 0 5.4 2.4 5.4 5.4z"/><path class="st2" d="m717.9 277.4 4.7-.5M714.6 267.5h6.6M713.2 257.6l5.7.5M714.6 246.3l5.2 4.3M717 238.3l6.6 7.6M726.9 236.8l4.7 8.1M738.6 238.3l1 6.6M745.2 241.6l2.4 4.3M751.4 239.3l2.8 2.3M755.1 232.2l2.8 2.4M757.9 225.2l2.4 1.8M763.1 215.7l2.4 1.9M768.8 204l1.9 8.4M776.8 202.5v8.5"/><path class="st11" d="M718.5 357.9s-21.2-7.6-21.7-23.3c-.5-15.7 12.7-23.8 12.7-23.8s-8.9 3.6-13.2-1.8c-4.2-5.4.5-22.9 14.1-25.1 8.5-.9 13.2 4.9 13.2 4.9s1.5-7.2 5.7-7.2c5.6 0 7.9 6.1 7.9 6.1s2.4-6.1 7.1-6.1c4.7 0 5.7 7.5 5.7 7.5s4.7-6.1 13.2-5.2c13.6 2.4 18.4 20.7 14.1 26.4-4.2 5.7-13.2 1.9-13.2 1.9s13.2 8.5 12.7 24.9c-.5 16.5-21.7 24.5-21.7 24.5l-36.6-3.7z"/><path class="st2" d="m749.5 300 .4-10.8"/><path class="st11" d="M769.7 304.7c-2.8-8.9-15.5 3.8-5.7 7.5"/><path class="st2" d="m737.2 287.8-.9 13.6"/><path class="st11" d="M703.9 303.6c2.8-8.5 15.5 3.6 5.7 7.2"/><path class="st0" d="M732.5 343.8c-7.1 1.9-21.7-6.1-21.7-14.6s17-12.2 31.5-11.3c14.6.9 26.8 9.9 25.4 18.4-1.4 8.5-23.6 10.8-23.6 10.8s-4.5-5.2-11.6-3.3z"/><path class="st11" d="M740.1 325.9c-5.7-.5-16.5.5-17.4 5.2-.9 4.7 7.5 8.5 16 8.9 8.5.5 15.5-1.4 16-6.6.4-5.1-9-7-14.6-7.5z"/><path class="st2" d="m724.1 299.2-.4-10.4"/><path class="st0" d="M708 363.1c0 7.1.9 44.3-2.4 49.4-3.3 5.2-5.7 6.6-6.1 8.9-.5 2.4-3.3 23.1 14.6 20.7 8-2.4 31.1-17.9 35.8-25.9 4.7-8 18.4-56 13.2-58.4-13.2-3.8-16 8.9-16 8.9s1.9-29.2-2.8-29.7-36.3 19.1-36.3 26.1z"/><path class="st11" d="M760.1 385.7c3.5-13.5 5.7-26.5 3.1-27.7-2.2-.6-4.1-.8-5.7-.6-2.4 5.7-2.4 26.4 2.6 28.3z"/><path class="st2" d="m747.1 366.9-1.4 24.9"/><path class="st8" d="M796.1 500.1c4.2 34.8 14.6 80 14.6 80s-3.3 4.2-9.9 0c-4.2 5.2-10.4.9-10.4.9s-3.8 4.2-9.4.5c-4.2 4.2-10.4.9-10.4.9s-4.7 4.2-9.4 0l-4.2-81.9 39.1-.4z"/><path class="st11" d="M800.2 527.3c4.7 27.4 10.5 52.8 10.5 52.8s-3.3 4.2-9.9 0c-4.2 5.2-10.4.9-10.4.9s-3.8 4.2-9.4.5c-4.2 4.2-10.4.9-10.4.9s-4.7 4.2-9.4 0l-2.7-51.3 41.7-3.8z"/><path class="st2" d="m766.5 540.3-.7-9.2M773.6 539.2l-1.1-8.8M781 539.2l-.7-8.8M788.8 538.5l-.7-9.2M795.8 537.5l-.7-9.6"/><path class="st7" d="M802.1 538.4c4.2 22.8 8.6 41.8 8.6 41.8s-3.3 4.2-9.9 0c-4.2 5.2-10.4.9-10.4.9s-3.8 4.2-9.4.5c-4.2 4.2-10.4.9-10.4.9s-4.7 4.2-9.4 0l-2.1-41 43-3.1z"/><path class="st2" d="m799.9 571.2.9 9M790.9 571.7l-.5 9.4M781 573.1v8.5M770.2 574.5l.5 8"/><path class="st8" d="M564.9 414.4s105 82.4 109.7 89.5c4.7 7.1-.5 33-20.7 28.7-20.2-4.2-62.1-24.9-62.1-24.9L479.7 502 466 408.3l73-6.6 25.9 12.7z"/><path class="st7" d="m473.3 491.7.7-65-38.5-7.5-5.3 51.7-9.9 15.6 12.1 11.3z"/><path class="st7" d="m453.3 491.7.5-65-24-7.5-3.3 51.7-6.2 15.6 7.6 11.3z"/><path class="st0" d="m446.8 491.7-.6-72.1-18.3-.4-2.7 51.7-4.9 15.6 6.1 11.3z"/><path class="st2" d="m445.8 437.5-8.5-6.6M445.8 445.5l-10.9-6.1M446.2 453.4l-10.8-6.6M445.8 461.1l-11.3-7.1M446.2 469.5l-13.6-8.4M446.7 479.4l-16.5-9.4M446.2 487.4l-16.4-9.4"/><path class="st7" d="m507.4 486.5-1.8-49.4 31.5-6.2 2.4 59.4z"/><path class="st0" d="m552.7 482.7-3.3-42.8-13.7-12.7-8.9 7 .4 52.7z"/><path class="st2" d="m549.8 459.6-10.3-3.7M551.7 469.1l-11.8-4.3M551.7 477.5l-12.7-3.7M537.1 430.9l2.4 59.4"/><path class="st9" d="M434 423.9c39.6 8.5 68.3 25.4 97 10.8 35.8-18.8 13.2-50.9 13.2-50.9L507 349l-70.2 8-5.7 51.3c.1 0-36.7 7.1 2.9 15.6z"/><path class="st2" d="m484.8 426.2 2.9 10.9M492.4 427.6l3.7 11.3M500.4 429l3.3 11.8M509.8 429.5l3.3 10.4M515.9 427.6l7.1 9.9M523.9 424.8l7.6 8.5M529.6 422l7.5 6.6M532.9 416.8l9.9 7.5M536.2 411.6l11.3 5.2M538.5 405.5l12.3 2.3M538.1 396.5l12.2 1M436.8 414.4s61.2 13.7 80.5 8.5 14.6-38.1 14.6-38.1M460.8 413l-23-7.5"/><path class="st7" d="M472.6 405s19.8 15.5 41.9 5.7c15.5-8 8.9-32 8.9-32l-26.8-22.6-32 21.7 8 27.2z"/><path class="st8" d="M473.1 398s17 2.4 25.4-1.4c8.5-3.8 8.5-22.1 8.5-22.1l-29.7-18.8-12.2 8 8 34.3z"/><path class="st7" d="M423.2 491.2s171.9-12.7 174.2-10.8c2.4 1.9 1.9 33 .9 34.8-.9 1.9-32 .5-31.5 2.4s-.9 22.1 0 24c.9 1.9 31.1-5.7 34.4-4.7 3.3.9 5.7 43.3 2.8 44.3-2.8.9-194.5 8.9-195.9 6.1-1.4-2.8-2.4-39.6-.5-40.5 1.9-.9 27.3 2.4 29.2 0 1.9-2.4.9-10.4-.9-10.4-1.9 0-27.3 2.4-27.3.5s.9-38.6.9-38.6l13.7-7.1z"/><path class="st9" d="m423.2 497.3-.5 29.2s26.4-.9 27.8.5c1.4 1.4-.5 22.1 0 24.5.5 2.4-27.8 2.8-29.2 5.7-1.4 2.8-.9 17 .9 17 1.9 0 169-.9 169.5-3.3s.9-19.3-.9-19.8c-1.9-.5-32.5 1.4-32.5-.5s-.9-41 0-42.8c.9-1.9 30.1-.9 31.1-3.3.9-2.4.9-14.1-.9-14.1-1.9-.1-165.3 6.9-165.3 6.9z"/><path class="st2" d="m581.8 504.8-.9-7.5-155.8 9.9M451.4 532.2l105.5-7.1M452.4 539.7l105-6.6M420.8 567.9l170.9-6.1M515.9 563.2l-2.8-61.2M523.9 563.2l-3.7-61.2M472.6 565.1l.5-56M479.7 565.6l.9-58.4M446.2 566.1v-13.2M438.2 566.5l.5-11.7M453.8 530.7v-24M445.8 525.6l-.5-17.9M439.6 516.4c0 2.5-2 4.5-4.5 4.5s-4.5-2-4.5-4.5 2-4.5 4.5-4.5 4.5 2 4.5 4.5zM463.4 553.3c0 2.5-2 4.5-4.5 4.5s-4.5-2-4.5-4.5 2-4.5 4.5-4.5c2.5.1 4.5 2.1 4.5 4.5zM500.2 553.3c0 2.5-2 4.5-4.5 4.5s-4.5-2-4.5-4.5 2-4.5 4.5-4.5 4.5 2.1 4.5 4.5zM503 516.6c0 2.5-2 4.5-4.5 4.5s-4.5-2-4.5-4.5 2-4.5 4.5-4.5c2.5.1 4.5 2 4.5 4.5zM543.9 515.2c0 2.5-2 4.5-4.5 4.5s-4.5-2-4.5-4.5 2-4.5 4.5-4.5 4.5 2 4.5 4.5zM545.3 551.9c0 2.5-2 4.5-4.5 4.5s-4.5-2-4.5-4.5 2-4.5 4.5-4.5 4.5 2.1 4.5 4.5z"/><path class="st8" d="M487.7 531.5c0 6.1-5 11.1-11.1 11.1s-11.1-5-11.1-11.1 5-11.1 11.1-11.1 11.1 4.9 11.1 11.1zM531.5 534.7c0 7.7-6.2 13.9-13.9 13.9s-13.9-6.2-13.9-13.9 6.2-13.9 13.9-13.9 13.9 6.3 13.9 13.9z"/><path d="M415.6 277s-36.7-7.1-54.6-2.4c-17.9 4.7-23.5 65.9-46.1 110.2s-53.7 105.5-54.2 108.3c-.5 2.8 18.8 9.9 22.1 8.5s44.3-99.3 44.3-99.3-35.3 99.8-34.8 103.1c.5 3.3 18.4 6.6 21.7 4.7 3.3-1.9 20.2-73 20.2-73l6.1 7.1s-17 67.3-16.5 69.7c.5 2.4 23.1 7.1 25.9 4.7 2.8-2.4 8.5-67.8 8.5-67.8l6.1 1.4s-7.5 63.6-6.1 65.9c1.4 2.4 23.5 6.6 25.4 3.8 1.9-2.8 8.9-46.1 8.9-46.1s2.4 43.3 5.2 46.1c2.8 2.8 24.5 2.3 25.9.5 1.4-1.9 2.8-43.8 2.8-43.8l5.7-60.7 4.2-33.9 26.8-2.4-4.2-29.7-43.3-74.9z" style="fill:#383838"/><path class="st20" d="M415.6 277s-36.7-7.1-54.6-2.4c-17.9 4.7-23.5 65.9-46.1 110.2s-53.7 105.5-54.2 108.3c-.3 1.8 7.5 5.4 14.1 7.3 3.6 1.1 63.4-145.2 64.6-145.7 3.3-1.4-8.6 37.7-8.6 37.7s-38.9 109.7-38.4 113c.5 3.3 18.4 6.6 21.7 4.7 2.6-1.5 13.4-44.8 18.1-64 1.3-5.5 14.4-72.5 14.4-72.5l9.4 1.4s-16.2 71.7-17.1 75.6c-4.2 16.9-15.3 61.4-14.9 63.3.5 2.4 23.1 7.1 25.9 4.7 1.7-1.4 4.4-25.3 6.3-44.3 1.3-12.9 11.6-111.1 11.6-111.1l9.9 6.6s-14.3 92.1-15.7 104.1c-2.1 18.7-4.5 42.8-3.6 44.2 1.1 1.7 13.6 4.6 20.7 4.7l11.3-138.4 1.4-7.5s11.8 146.4 12.7 146.7c4.4.4 10.1.4 14.1 0 2.7-.3-18.8-147.6-18.4-148.1 1.4-1.9 29.7-19.8 29.7-19.8l2.4 62.2 4.2-33.9 26.8-2.4-4.2-29.7-43.5-74.9z"/><path class="st11" d="M329.8 347.2c-1.6 5.1-3.4 10.1-5.3 15.2-1.3 3.4-2.6 6.8-4 10.2-1.8 4.2-3.7 8.3-5.7 12.2 57.9-4.7 121.5-.9 121.5-.9l26.8-2.4-4.2-29.7-43.3-74.9s-36.7-7.1-54.6-2.4c-9.4 2.5-15.4 20.6-22.3 43.7-1.7 5.5-3.4 11.3-5.2 17.3"/><path class="st20" d="M333.5 335.6c1.8-5.9 3.5-11.8 5.2-17.3 0 0 5.9 12.3 8.2 12.3 2.4 0 6.1-8.5 8.5-8s-1.4 11.3 1.9 11.3 8.9-2.8 11.8-.9c2.8 1.9 2.8 5.7 6.1 5.7s8-9.9 10.8-9.9-.9 22.1-2.8 22.6-20.2-12.2-21.7-10.4c-1.4 1.9 0 8.9-2.4 8.9s-7.5-9.4-14.1-10.8c-6.6-1.4-11.5-3.5-11.5-3.5z"/><path class="st11" d="M320.5 372.5c-1.8 4.2-3.7 8.3-5.7 12.2 0 0 32.5 24.9 84.8 17 22.6-11.3 8-24.5 8-24.5l-73.9-18.4-13.2 13.7z"/><path class="st7" d="M324.6 362.4c-1.3 3.4-2.6 6.8-4 10.2 0 0 36.7 15.5 73 18.8 15.5-7.1 9.4-17.4 9.4-17.4l-56-14.6-22.4 3z"/><path class="st8" d="M324.6 362.4c1.9-5 3.6-10.1 5.3-15.2 0 0 42.4 15.4 60.3 15.4s64.5 1.4 64.5 1.4l5.7 18.8-25.4 7.5-17.4-1.4s5.7-5.7-24.9-7.1c-30.8-1.3-68.1-19.4-68.1-19.4z"/><path class="st21" d="m339.8 348.5 15.1-63.6M366.2 283.5l-9.9 70.7M373.2 282.6l-8.4 75.3M379.8 281.7l-8 77.2M385 281.7l-2.3 79.1M392.6 280.7l.9 81.9M346.4 351.4l13.7-65"/><path class="st2" d="m321.5 387.6 2.8-8M328.1 392.3l3.2-9.4M336 395.6l1.9-9.4M342.6 397.5l1.5-9.4M348.8 399.4l2.3-9.4M355.4 400.3l1.8-9.4M361.9 401.7l1-8.9M370.4 402.2l-.4-8.9M378 402.2l-.5-7.5M386 402.2v-8M415.6 277s-36.7-7.1-54.6-2.4c-17.9 4.7-23.5 65.9-46.1 110.2s-53.7 105.5-54.2 108.3c-.5 2.8 18.8 9.9 22.1 8.5s47.9-109.2 47.9-109.2-38.9 109.7-38.4 113c.5 3.3 18.4 6.6 21.7 4.7s20.2-73 20.2-73l6.1 7.1s-17 67.3-16.5 69.7c.5 2.4 23.1 7.1 25.9 4.7 2.8-2.4 8.5-67.8 8.5-67.8l6.1 1.4s-7.5 63.6-6.1 65.9c1.4 2.4 23.5 6.6 25.4 3.8 1.9-2.8 8.9-46.1 8.9-46.1s2.4 43.3 5.2 46.1c2.8 2.8 24.5 2.3 25.9.5 1.4-1.9 2.8-43.8 2.8-43.8l5.7-60.7 4.2-33.9 26.8-2.4-4.2-29.7-43.3-74.9z"/><path class="st11" d="M359.1 500c-.9 9.7-1.4 17.2-.9 18 1.4 2.4 23.5 6.6 25.4 3.8.6-1 1.9-6.7 3.3-13.8 0 0-27.7-8.9-27.8-8zM394.4 501.1c.9 10 2.1 19.4 3.3 20.7 2.8 2.8 24.5 2.3 25.9.5.7-.9 1.3-10.9 1.9-21.2h-31.1zM329.3 488.7c-3.1 13.1-5.7 24.2-5.5 25.1.5 2.4 23.1 7.1 25.9 4.7 1.2-1 2.8-12.6 4.3-25.9l-24.7-3.9zM299.3 482.5c-4.2 12.6-7.1 21.8-7 22.8.5 3.3 18.4 6.6 21.7 4.7 1.1-.6 3.9-9.5 7-20.7l-21.7-6.8zM270.9 471.6c-6.1 12.2-10 20.5-10.2 21.5-.5 2.8 18.8 9.9 22.1 8.5.9-.4 4.7-8.2 9.8-19.3l-21.7-10.7z"/><path class="st0" d="M379.4 463.2c0 20.7-14.4 37.4-32.3 37.4-17.8 0-32.3-16.8-32.3-37.4s14.4-37.4 32.3-37.4c17.8 0 32.3 16.7 32.3 37.4z"/><path class="st2" d="M371.8 463.2c0 15.2-11.3 27.5-25.2 27.5-13.9 0-25.2-12.3-25.2-27.5s11.3-27.5 25.2-27.5c14-.1 25.2 12.3 25.2 27.5z"/><path class="st2" d="M365.4 463.2c0 11.3-8.4 20.5-18.7 20.5-10.3 0-18.7-9.2-18.7-20.5s8.4-20.5 18.7-20.5c10.3 0 18.7 9.2 18.7 20.5z"/><path class="st8" d="M356.8 462.7c0 6.1-4.5 11.1-10.1 11.1s-10.1-5-10.1-11.1 4.5-11.1 10.1-11.1c5.5 0 10.1 5 10.1 11.1z"/><path class="st11" d="M280.5 487.2c0 2.5-2 4.5-4.5 4.5s-4.5-2-4.5-4.5 2-4.5 4.5-4.5 4.5 2 4.5 4.5zM311.6 495.7c0 2.5-2 4.5-4.5 4.5s-4.5-2-4.5-4.5 2-4.5 4.5-4.5 4.5 2 4.5 4.5zM342.6 508.4c0 2.5-2 4.5-4.5 4.5s-4.5-2-4.5-4.5 2-4.5 4.5-4.5 4.5 2 4.5 4.5zM376.6 512.6c0 2.5-2 4.5-4.5 4.5s-4.5-2-4.5-4.5 2-4.5 4.5-4.5c2.4 0 4.5 2 4.5 4.5zM414.7 512.6c0 2.5-2 4.5-4.5 4.5s-4.5-2-4.5-4.5 2-4.5 4.5-4.5 4.5 2 4.5 4.5z"/><path class="st7" d="M570.5 410.4c0 5.8-4.7 10.6-10.6 10.6-5.9 0-10.6-4.7-10.6-10.6 0-5.8 4.7-10.6 10.6-10.6 5.9 0 10.6 4.8 10.6 10.6zM559.2 439.2c0 6.6-5.4 12-12 12s-12-5.4-12-12 5.4-12 12-12c6.7 0 12 5.3 12 12zM517.3 450.7c0 6-4.8 10.8-10.8 10.8-6 0-10.8-4.8-10.8-10.8s4.8-10.8 10.8-10.8c6 0 10.8 4.8 10.8 10.8zM571.9 470.7c0 6.1-5 11.1-11.1 11.1s-11.1-5-11.1-11.1 5-11.1 11.1-11.1c6.2 0 11.1 5 11.1 11.1z"/><path class="st8" d="M467.9 367.4s75.8 21.2 86.6 20.7c10.8-.5 20.7-8.5 22.6-13.7s2.8-17.4 8.9-18.4c6.1-.9 1.4 9.4 14.6 5.7 4.7-1.9 1.9-22.1-11.8-19.8-13.7 2.4-27.8 4.7-31.1-1.4-3.3-6.1 16-17.9 54.6-19.8 2.8 0-6.1-13.2-6.1-13.2s23.5-9.9 22.6-22.1c-.9-12.2-36.7-35.3-40-42.4-3.3-7.1-33-45.7-33-45.7l-108.3 29.2 20.4 140.9z"/><path class="st8" d="M596.3 304c1.4 3.2 10 3.5 10 3.5s23.5-9.9 22.6-22.1"/><path class="st8" d="M606.3 307.6s23.5-9.9 22.6-22.1"/><path class="st15" d="M458.5 279.8S572 261 599.1 253.2c-5.1-4.4-9.1-8-10.1-10.1-.5-1-2.8-4.7-2.8-4.7s-87.1 23.1-128.5 25.4c-12.9 0 .8 16 .8 16z"/><path class="st4" d="M555 259.3c0 11.6-9.4 21-21 21s-21-9.4-21-21 9.4-21 21-21 21 9.4 21 21z"/><path class="st14" d="M525.7 278.5c-7.4-3.2-12.7-10.6-12.7-19.2 0-3.6.9-6.9 2.5-9.9 11.3.2 11.7 21 10.2 29.1z"/><path class="st11" d="M540.9 257.9c0 4.3-3.5 7.8-7.8 7.8s-7.8-3.5-7.8-7.8 3.5-7.8 7.8-7.8 7.8 3.5 7.8 7.8z"/><path class="st2" d="M555 259.3c0 11.6-9.4 21-21 21s-21-9.4-21-21 9.4-21 21-21 21 9.4 21 21z"/><path class="st11" d="M609.1 318.9s6.1 13.7 2.8 13.7c-26.8-5.2-50.9 11.8-50.9 11.8l-13.7-5.2 7.1-17.4s24.5-8 25.9-8.5c1.5-.6 28.8 5.6 28.8 5.6z"/><path class="st2" d="m601.6 331.1-1.4-11.8M592.8 331.6l-.7-10.3M584.7 333l-1.4-9.9M578.1 335.8l-3-9.2M569.1 339.6l-3.3-8.5"/><path class="st15" d="M606.3 307.6s8.9 13.2 6.1 13.2c-38.6 1.9-57.9 13.6-54.6 19.8 3.3 6.1 17.4 3.8 31.1 1.4 13.7-2.4 16.5 17.9 11.8 19.8-13.2 3.8-8.5-6.6-14.6-5.7-6.1.9-7.1 13.2-8.9 18.4-1.9 5.2-11.8 13.2-22.6 13.7S468 367.5 468 367.5l-8.5-50.9 74.9-8 41-10.8 17 4.7 13.9 5.1z"/><path class="st11" d="m585.6 292-52.7.5 1.4 16 51.8-7.1z"/><path class="st2" d="m555 305.2-.9-11.8M564 303.8V293"/><path class="st8" d="M606.3 307.6c-3 1.2-15.1 2.8-21.2-2.4-6.8-5.8-5.2-17.4 9.4-18.4l14.1-.1"/><path class="st8" d="M594.6 286.8c-14.6.9-16.2 12.6-9.4 18.4 6.1 5.2 18.2 3.6 21.2 2.4"/><path class="st0" d="m409 236 2.4 51.3 37.7 33s18.8 181.8 20.7 190.2c1.9 8.5 16 10.8 17.4 7.5 1.4-3.3-32-285.3-32-285.3l101.2-28.3s12.7 39.6 33.4 40c20.7.5 111.6-24.9 119.6-27.8s8.5-19.3-7.5-15.5c-8.5 2.4-91.3 24.5-108.8 22.6-12.7-1.4-24-34.4-24-34.4l-28.3-15.5L405.3 211l3.7 25z"/><path class="st2" d="M714.2 205.9s-100.8 31.5-124.3 25.9-25.5-43.8-25.5-43.8M555 204.4l-2.3-17.9M547.5 205.9l-2.4-18.9M540.4 207.7l-2.8-17.4M531.9 210.6l-3.3-17.9M523.2 213l-2.8-19.7M514.5 215.7l-2.8-18.8M505.6 218.1l-2.4-17.9M495.7 220.9l-2.9-19.3M485.3 222.8l-1.9-19.3M476.8 224.2l-1.8-19.3M468.8 226.6l-1.4-18.4M461.8 229.4l-2.4-17.4M455.2 232.7l-2.4-20.7M445.3 214.8c1.4 36.3 25.9 201.5 32 301.4M436.4 213.8l7.4 77.5M430 284.6l-5.4-65.6M419.4 282.6l-1.9-52.7"/><path class="st11" d="M689.2 122.5s77.2 18.4 104.5-12.7C772 90 738.1 94.7 738.1 94.7l-56.5 1.4 7.6 26.4z"/><path class="st2" d="m707.6 106 44.2-.9M707.1 113.1l46.1.5M707.6 120.6l45.2-.9"/><path class="st15" d="M752.3 127.2c16.3-1.7 31.9-6.5 41.5-17.4-13.6-12.4-32-15.2-43.8-15.5l2.3 32.9z"/><path d="m750.6 102.8 1.2 16.9s22.1 1.4 31.6-9.4c-16-9.9-32.8-7.5-32.8-7.5z"/><path class="st15" d="m733.9 94.8-9.4.2.5 32.4c3.1.2 6.2.3 9.4.4l-.5-33zM709.9 95.4l-10.4.3 1.4 29.1c2.7.4 5.7.9 9 1.3V95.4z"/><path class="st11" d="M681.7 74s80-23.5 100.3 3.3c-16 26.4-97.5 24-97.5 24L681.7 74z"/><path class="st2" d="m700 77.3 47.1-7.1M701.4 83.9l48.5-6.1M703.8 90.5l47.1-6.6"/><path class="st15" d="M708.5 100.8c-3.6.2-6.9.3-9.9.4l-6.3-30c2.6-.6 5.6-1.3 8.8-1.9l7.4 31.5zM732 98.6c-3.3.5-6.6.9-9.9 1.2l-4.2-33.4c2.8-.4 5.6-.7 8.4-1l5.7 33.2zM742.9 64.5c16.4 0 31.7 3.1 39 12.8-5.3 8.8-17.9 14.4-32.3 17.9l-6.7-30.7z"/><path d="m748.1 87.8-3.3-15.1s20-5.1 27.3 4.6c-5.3 8.8-24 10.5-24 10.5z"/><path class="st11" d="M649.7 103.7c0 17.2-13.9 31.1-31.1 31.1-17.2 0-31.1-13.9-31.1-31.1s13.9-31.1 31.1-31.1c17.1 0 31.1 13.9 31.1 31.1z"/><path class="st7" d="M633.6 78.2s49.4-11.3 51.8-9.4c2.4 1.9 2.4 49.9 2.4 49.9l-46.1-.9-8.1-39.6z"/><path class="st8" d="M633.6 78.2s14.2-3.2 27.7-6l6.2 46-25.9-.5-8-39.5z"/><path class="st15" d="M649.7 103.7c0 17.2-13.9 31.1-31.1 31.1-17.2 0 4.2 20.2 2.8-8.9-1.4-29.2-33.9-23.4-33.8-24 .1-2.3.5-4.5 1.1-6.7.4-1.4 37-4.2 39.8 29.3 2.8 33.4 14.1 33 8-4.7s-44.8-31.5-44.3-32.3c5.5-8.8 15.3-14.7 26.4-14.7 17.1-.2 31.1 13.7 31.1 30.9z"/><path class="st2" d="M591.7 118.3s8.9-11.8 13.6-7.1c4.7 4.7-7.5 15.1-7.5 15.1M605.4 86.7l5.2-8M613.9 88.6l8-9.4M620.9 92.8l8.5-10.3M625.2 97.6l11.3-11.8M630.3 102.3l11.8-9.5M634.1 109.3l9.9-6.6"/><path class="st8" d="m593.1 139 81-39.6 16.5 21.2-91.3 38.6z"/><path class="st7" d="m644.4 113.9 29.7-14.5 16.5 21.2-34 14.4z"/><path class="st8" d="M595 156.4s62.6-17.9 95.6-20.2l2.8 24.9c-44.3 2.4-88.5 14.1-88.5 14.1l-9.9-18.8z"/><path class="st7" d="M657 141.3c12.2-2.5 24.2-4.4 33.6-5.1l2.8 24.9c-10.9.6-21.8 1.7-32 3.1l-4.4-22.9zM564.9 150.3l31.1-16 13.1 43.3-36.7 3.3z"/><path class="st8" d="M372.8 203.5 273 223.7l5.1 28.3 99.4-29.7z"/><path class="st7" d="m305.3 217.2-32.3 6.5 5.1 28.3 34.7-10.4z"/><path class="st8" d="m376.6 225.2-94.2 46.1 18.3 25 83.4-50z"/><path class="st7" d="m312.8 256.4-30.4 14.9 18.3 25 29.4-17.6zM441.1 155.5l-17-52.3L516.9 83l-2.9 54.6-31.5 20.2z"/><path class="st8" d="m441.1 155.5-7.2-22 81.4-20.4-1.3 24.5-31.5 20.2z"/><path class="st0" d="M408.6 182.8s1.4-24 33-30.6c31.5-6.6 42.8 2.4 42.8 2.4s11.8-17.4 34.8-21.2c23.1-3.8 28.7 6.6 28.7 6.6v24.9l-139.8 29.7.5-11.8z"/><path class="st2" d="M418 183.7s4.2-17.4 27.3-24.5c22.6-6.6 36.7 8.9 36.7 8.9l4.2-.9s12.7-22.6 33.4-24c20.7-1.4 24.5 9.9 24.5 9.9"/><path class="st2" d="M428.8 183.3s12.2-16 21.2-17.4c8.9-1.4 18.4 6.1 18.4 6.1M502.3 163.5s6.1-11.3 16-12.7c9.9-1.4 13.2 4.7 13.2 4.7"/><path class="st0" d="M535.7 154.5s17-55.1 17.9-65.5c.9-10.4-7.1-21.7-1.9-23.1 5.2-1.4 11.8 11.8 9.9 24.9-1.9 13.2-18.8 64.5-18.8 64.5l-7.1-.8zM564.9 145.6s15.1-52.7 14.6-58.9c-.5-6.1 2.4-18.8-3.3-19.8-5.2 0-4.7 20.2-4.7 20.2L555 131.5l-2.4 21.7 12.2-6.6"/><path class="st0" d="M554.5 150.3s17.4-55.1 17.9-66.4c.5-11.3-2.4-21.2-6.6-20.7-4.2.5-1.9 17.9-4.2 27.8-2.4 9.9-19.8 66.4-19.8 66.4l12.7-7.1z"/><path class="st7" d="m399.1 195-31.5 3.8s8 45.7 15.5 50.9l26.4-15.1-9.4-39.6"/><path class="st11" d="M413.3 186.1 555 148.4l6.6 35.3L422.7 219z"/><path class="st22" d="M429.8 191c0 1.4-1.2 2.6-2.6 2.6s-2.6-1.2-2.6-2.6 1.2-2.6 2.6-2.6c1.4 0 2.6 1.2 2.6 2.6zM434 205.1c0 1.4-1.2 2.6-2.6 2.6-1.4 0-2.6-1.2-2.6-2.6s1.2-2.6 2.6-2.6c1.4 0 2.6 1.2 2.6 2.6zM465.1 198.1c0 1.4-1.2 2.6-2.6 2.6-1.4 0-2.6-1.2-2.6-2.6s1.2-2.6 2.6-2.6c1.4 0 2.6 1.2 2.6 2.6zM460.8 182.5c0 1.4-1.2 2.6-2.6 2.6-1.4 0-2.6-1.2-2.6-2.6s1.2-2.6 2.6-2.6c1.5.1 2.6 1.2 2.6 2.6zM501.8 172.7c0 1.4-1.2 2.6-2.6 2.6-1.4 0-2.6-1.2-2.6-2.6s1.2-2.6 2.6-2.6c1.4 0 2.6 1.1 2.6 2.6zM506 186.8c0 1.4-1.2 2.6-2.6 2.6-1.4 0-2.6-1.2-2.6-2.6 0-1.4 1.2-2.6 2.6-2.6s2.6 1.2 2.6 2.6zM545.6 176.9c0 1.4-1.2 2.6-2.6 2.6s-2.6-1.2-2.6-2.6c0-1.4 1.2-2.6 2.6-2.6 1.4 0 2.6 1.2 2.6 2.6zM541.3 164.2c0 1.4-1.2 2.6-2.6 2.6-1.4 0-2.6-1.2-2.6-2.6s1.2-2.6 2.6-2.6c1.5 0 2.6 1.1 2.6 2.6z"/><path class="st15" d="m458.8 209.9-15.4 3.9-7.5-33.7 12.1-3.3zM498.8 199.7l-27.2 6.9-8.9-33.7 26.7-7.1zM505.4 161.6l22-5.9 8.6 34.5-20.6 5.3z"/><path class="st8" d="M568.2 146.1c4.7 3.3 12.7 34.8 9.9 40-2.8 5.2-15.5 4.7-17 .9-1.4-3.8-12.7-35.3-9.4-37.7 3.3-2.3 11.8-6.5 16.5-3.2zM418.7 185.4c-.7-3.5-17.2-6.4-21.9 0-4.7 6.4 2.4 52.5 12.7 53 10.4.5 17-5.2 17-8.5s-7.1-41-7.8-44.5zM449.1 320.3s2.2 21 5.1 49c0 0-63.5 1.9-64.9-6.1-1.4-8 18.4-42.4 18.4-42.4l41.4-.5z"/><path class="st9" d="M450.9 309.7c0 16.2-13.2 29.4-29.4 29.4s-29.4-13.2-29.4-29.4 13.2-29.4 29.4-29.4 29.4 13.1 29.4 29.4z"/><path class="st2" d="M393 301.9h54.6M392.6 312.3l57.4-.5M437.3 332 402 290.1M444.3 326.4l-34.8-41.8M435.4 285.9l-36.7 39.5M443.8 291.3l-39.9 39.3M418 281.7l-1 55.5M425.5 280.7l-.9 57.5"/><path class="st9" d="M435.6 309c0 7.8-6.3 14.1-14.1 14.1s-14.1-6.3-14.1-14.1 6.3-14.1 14.1-14.1c7.8-.1 14.1 6.3 14.1 14.1z"/><path class="st7" d="M428.1 307.6c0 3.6-3 6.6-6.6 6.6-3.6 0-6.6-3-6.6-6.6 0-3.6 3-6.6 6.6-6.6 3.6 0 6.6 2.9 6.6 6.6z"/><path class="st11" d="M453.1 358.9c.4 3.3.7 6.8 1.1 10.4 0 0-63.5 1.9-64.9-6.1-.4-2.1.8-6.2 2.6-10.9 26.6 8 61.4 8 61.2 6.6z"/><path class="st2" d="m395.4 365.5 2.3-11.8M402.9 366.9l1.7-9.9M410.9 368.3l1.8-10.2M419.4 368.3l.9-10.4M426.5 367.8l1-8M434.8 368.3l1-7.5M443.9 368.4v-8.5"/><path class="st9" d="M409 400.3s14.6 84.3 18.4 84.3c3.8 0 10.4-86.2 15.5-86.2 0 0 6.1 8.5 14.6.5 6.5-6.2 4.2-27.3-15.5-26.8-10.8 0-16.5 15.5-16.5 15.5s-5.7-18.8-17.9-18.8c-18.4.5-17.4 23.1-12.2 30.1 5.2 7.1 13.6 1.4 13.6 1.4z"/><path class="st2" d="m426 410.7-.5-23.1M400.1 389.5c9.4-11.3 17.4 7.1 8.9 10.8M442.9 398.4c-2.4-2.8-2.4-11.8 4.2-12.2M457.1 594.3l-10.4.5M458 601.8l-11.3 1M459.4 608.4l-10.8 2.9M461.8 616.4l-9.9 3.8M465.1 622.6l-8.5 5.1M468.8 628.7l-6.6 6.6M474.9 633.9l-4.7 8M483 636.7l-1.9 11.3M492.8 640l-.9 11.3M503.7 640.9l.5 11.3M514 640.5l.5 10.8M522.5 637.2l2.8 11.3M530.5 635.3l4.7 9.4M537.6 630.6l6.1 7.5M542.8 624.9l8 5.7M545.1 619.3l11.8 3.3M547.5 612.2l12.2 1.4M547.9 604.2l13.7 1.4M549.4 596.7l13.6.4M549.8 590.1H563M564 651.8l-4.8-10.9M571 650.3l-4.2-9.8M580 649.4l-3.3-9.9M588 648l-3.8-9.4M596.9 648l-4.2-11.3M605.4 647.5l-4.2-10.8"/><path class="st23" d="M629.4 652.2c0 5.7-4.6 10.4-10.4 10.4s-10.4-4.6-10.4-10.4 4.6-10.4 10.4-10.4 10.4 4.7 10.4 10.4z"/><path class="st23" d="M623.3 652.9c0 2.2-1.8 4-4 4s-4-1.8-4-4 1.8-4 4-4 4 1.8 4 4z"/><path d="M721.2 593.8c-.5-5.2-19.2-1.3-19.2-1.3l.7 7.9c0 .1 19-1.4 18.5-6.6zM720.7 618.8c-1.4-3.8-17.1-6.5-17.1-6.5l1 11.3c.1 0 17.6-1 16.1-4.8z"/><path class="st11" d="m583.7 766.2-37.2.9 3.3 11.8s35.2-.2 37-1.7c1.7-1.4-3.1-11-3.1-11z"/><path class="st2" d="m561 777.6-3.5-11M570.2 778.3l-3.2-11.7M579 777.2l-2.1-10.6"/><path class="st23" d="M503.2 726.6s13.9-2.8 27.2-5.3c4-.7 7.9-1.5 11.4-2.1 6.1-1 10.7-1.7 11.8-1.6 3.8.5.9 27.3.9 27.3l-12.7-.6-10.9-.5-19.3-.9-13.2-2.4-.5-9.9 5.3-4z"/><path class="st8" d="M530.4 721.3c4-.7 7.9-1.5 11.4-2.1 6.1-1 10.7-1.7 11.8-1.6 3.8.5.9 27.3.9 27.3l-12.7-.6-10.9-.5-.5-22.5z"/><path class="st11" d="M541.8 719.3c6.1-1 10.7-1.7 11.8-1.6 3.8.5.9 27.3.9 27.3l-12.7-.6v-25.1z"/><path class="st2" d="m555.3 725.3-12.7.7M554.6 732.4h-12M554.3 738h-12"/><path class="st8" d="M466.5 767c32-.5 77.9-1.1 80 .1l37.2-.9s-2.4-24-81-31.5c-22.6-7.5-17 1.4-17 1.4s-35.9 31.2-19.2 30.9z"/><path class="st11" d="M575.3 729.4c0 7-5.7 12.7-12.7 12.7-7 0-12.7-5.7-12.7-12.7 0-7 5.7-12.7 12.7-12.7 7 0 12.7 5.7 12.7 12.7z"/><path class="st11" d="M568.2 729c0 2.9-2.3 5.2-5.2 5.2-2.9 0-5.2-2.3-5.2-5.2 0-2.9 2.3-5.2 5.2-5.2 2.9 0 5.2 2.3 5.2 5.2zM452.4 730.4c-11.8 8.9-16.5 40.5-16.5 40.5l60.3-1.4.9-36.7c0-.1-33-11.4-44.7-2.4z"/><path class="st2" d="M442.9 745.9s42.8-1.4 44.3.5c1.4 1.9-3.3 20.2-3.3 20.2"/><path class="st7" d="M451.4 733.2c2.4 2.8 47.1 4.7 51.8 2.8 4.7-1.9 4.7-13.2-1.4-14.1-6.1-.9-41.4-.9-46.6-.5-5.2.5-6.1 9-3.8 11.8z"/><path class="st11" d="M546.5 767.1c3.3 1.9 5.2 10.8 3.3 11.8-1.9.9-119.6 5.7-120.5 4.2-.9-1.4 3.8-15.5 6.6-15.5s107.3-2.4 110.6-.5z"/><path class="st2" d="m446.2 782.2-5.6-14.1M455.7 782.7l-4.9-14.6M482.6 782.2l-6.7-14.1M491 780.3l-5.2-13.7M522 780.3l-6.1-13.7M531.5 778.9l-4.7-11.8"/><path class="st23" d="M652 713.4s13.4-3.9 25.6-7c3.7-.9 7.4-1.8 10.5-2.5 5-1 8.6-1.5 9.2-.9 1.9 2.4-.5 23.1-.5 23.1l-7.5.1-11.3.2-16 .2-10-13.2z"/><path class="st8" d="M677.6 706.4c3.7-.9 7.4-1.8 10.5-2.5 5-1 8.6-1.5 9.2-.9 1.9 2.4-.5 23.1-.5 23.1l-7.5.1-11.3.2-.4-20z"/><path class="st11" d="M688.1 704c5-1 8.6-1.5 9.2-.9 1.9 2.4-.5 23.1-.5 23.1l-7.5.1-1.2-22.3z"/><path class="st2" d="M688.8 709.1h7.8M688.8 715.8l5.6.2"/><path class="st8" d="M639.8 757.3c28.6-2.2 66.9-4.3 67.8-3.4l32-.9s-10.8-29.7-84.3-34.8c-12.2-2.8-16 4.7-16 4.7l-8.9 28.7c-.1 0-7.4 7 9.4 5.7z"/><path class="st11" d="M720.3 716c0 7.1-5.8 13-12.9 13-7.2 0-13-5.8-13-13 0-7.1 5.8-12.9 13-12.9 7.1 0 12.9 5.8 12.9 12.9z"/><path class="st11" d="M712.5 716.3c0 2.9-2.3 5.2-5.2 5.2-2.9 0-5.2-2.3-5.2-5.2 0-2.9 2.3-5.2 5.2-5.2 2.9 0 5.2 2.3 5.2 5.2zM739.6 753l-32 .9 3.2 9.2s30.4 1.4 31.1-.4c.6-1.7-2.3-9.7-2.3-9.7zM612.9 723.8c-6.6 11.3-1.9 39.1-1.9 39.1l51.3-4.2-7.5-38.6c0-.1-35.3-7.6-41.9 3.7z"/><path class="st7" d="M611 726.6c3.8.9 40-3.8 43.8-6.6s.5-11.3-5.7-11.3c-6.1 0-34.8 3.3-39.6 6.6-4.6 3.3-2.2 10.4 1.5 11.3z"/><path class="st11" d="M707.6 753.9c1.4 1.4 3.8 8.9 2.4 10.4s-98.9 10.8-100.8 9.9c-1.9-.9-1.4-11.8 0-13.6 1.4-2 96.9-8.1 98.4-6.7z"/><path class="st2" d="m628.9 772.3-8-13.2M639.8 771.4l-7.8-12.2M659.1 768.5l-6.6-11.4M669.9 768.1l-6.6-11.8M688.7 765.2l-4.7-10.3M698.2 765.2l-4.8-10.3M610.1 737.5s31.5-5.2 33.4-4.7c1.9.5 2.8 24 2.8 24M718.5 762.1l-2.5-7.5M725.9 762.1l-1.7-8.2M734.8 762.4l-2.9-8.5"/></svg>