<svg version="1.1" id="Calque_1" xmlns="http://www.w3.org/2000/svg" x="0" y="0" viewBox="0 0 900 900" style="enable-background:new 0 0 900 900" xml:space="preserve"><style>.st0{fill:#fff;stroke-width:3.9699;stroke-linecap:round;stroke-linejoin:round}.st0,.st1,.st2{stroke:#000;stroke-miterlimit:10}.st1{fill:none;stroke-width:3.9699;stroke-linecap:round;stroke-linejoin:round}.st2{fill:red}.st2,.st3,.st4{stroke-width:3.9699;stroke-linecap:round;stroke-linejoin:round}.st3{fill:#8e8a80;stroke:#000;stroke-miterlimit:10}.st4{fill:#ffce00}.st4,.st5,.st6,.st7,.st8{stroke:#000;stroke-miterlimit:10}.st5{fill:#ff7300;stroke-width:3.9699;stroke-linecap:round;stroke-linejoin:round}.st6,.st7,.st8{stroke-width:.9925}.st7,.st8{fill:#474540;stroke-width:3.9699;stroke-linecap:round;stroke-linejoin:round}.st8{fill:#bf9b00}.st9{fill:none}.st10{fill:red}.st11{fill:#fff}</style><circle class="st0" cx="235.3" cy="294.7" r="11.7"/><circle class="st0" cx="180.3" cy="711.7" r="17.5"/><circle class="st1" cx="180.3" cy="711.7" r="5.7"/><path class="st0" d="m247.6 711.1-21.6-6.6-3.7 22 16-1.8z"/><path class="st2" d="m206.9 698.6-6.6 30.5 22-2.6 3.7-22z"/><path class="st0" d="m190.4 730.3 9.9-1.2 2.2-10-9.5-.9z"/><path class="st0" d="m195.5 707-2.5 11.2 9.5.9 2.3-10.3zM206.9 698.6 198 696l-2.5 11 9.3 1.8z"/><path class="st3" d="m290.6 651.3-53.3 68.8s-44 2.7-65.5 9.9c-14.7 5-26.2 18.2-32 27.5 10.8 4.8 34.8 6 34.8 6l.6 2.4c19.4-3.2 83.6-2.7 83.6-2.7l23.5-39.7 69.8-56.3-61.5-15.9z"/><path class="st0" d="M139.8 757.5c-2.7 4.3-4.1 7.7-4.1 9.2 0 1.3 2.7 2.4 6.6 3.2l4.3-10.1c-2.5-.7-4.8-1.5-6.8-2.3z"/><path class="st0" d="m146.6 759.7-4.3 10.2c2.5.5 5.5.8 8.5 1l4-9.5c-2.8-.5-5.6-1-8.2-1.7z"/><path class="st0" d="m154.7 761.4-4 9.5c3.2.2 6.4.2 9.3 0l2.7-8.4c-2.4-.4-5.2-.7-8-1.1zM174.7 763.4s-5.3-.2-11.9-1l-2.7 8.4c5.3-.3 9.4-1.3 9.7-3.2.1-.8 2.2-1.4 5.5-2l-.6-2.2z"/><path class="st4" d="m285.4 657.9-25 32.3c3.9 5.5 10.2 9 17.4 9 11.8 0 21.3-9.5 21.3-21.3 0-9.1-5.6-16.9-13.7-20z"/><path class="st0" d="M238.3 724.7c-1 2.7-3.4 39-3.4 39l43.9-4-.6-29.4-39.9-5.6z"/><path class="st2" d="M238.3 733c-4.3-2-5.8-14.1 0-17.9 5.8-3.8 46.3 5.9 48.9 8.9 2.7 3.1.3 15.9-5.3 15.9s-39.2-4.9-43.6-6.9z"/><path class="st0" d="M170.5 760.5c-2.7 3-2.7 10.2 0 12.2s106.9 2 108.9 2 1-18.2-3.3-18.2-102.9 1-105.6 4z"/><path class="st2" d="M773.6 760.4c10.2 2.5 29.5-19.2 19.2-28.1-2.6-2.3-10-7.8-19.5-14.9L751.9 745c10.5 8.5 18.9 14.7 21.7 15.4zM737.4 732.8l20.8-26.4c-5.3-3.9-10.7-7.7-16.1-11.7l-21.2 23.8c5.5 4.8 11.1 9.7 16.5 14.3z"/><path class="st0" d="m751.9 745 21.3-27.5c-4.7-3.4-9.7-7.1-15.1-11l-20.8 26.4c5.2 4.2 10.1 8.3 14.6 12.1z"/><path class="st2" d="m760.1 658.7-10.7 30.1c5.9 2.8 11.8 5.5 17.6 8l12.1-31.4c-6.2-2-12.6-4.3-19-6.7zM813.6 677.1c-3.9-1.1-10.3-3.2-18.2-5.9l-9.1 33.6c9.9 3.8 17.9 6.1 21.6 5.6 16-1.9 23.9-28.1 5.7-33.3z"/><path class="st0" d="M709.7 639.4c-11.9-5.9-28.1 44.3-28.1 44.3s18.7 17 39.2 34.9l21.2-23.8c-21.6-15.7-42-30.2-42-30.2s23.8 12.4 49.2 24.3l10.7-30.1c-22.3-8.1-44.1-16.4-50.2-19.4zM779.1 665.5 767 696.8c6.8 3 13.5 5.8 19.4 8l9.1-33.6c-5-1.6-10.5-3.6-16.4-5.7z"/><path class="st5" d="m671.4 601.7-31.8 50 11.4 12.5 37.2-55.5z"/><path class="st0" d="m657.1 595.7-28.8 43.7 11.3 12.3 31.8-50zM688.2 608.7 651 664.2l15.5 17 38.5-65.3z"/><path class="st5" d="m725.3 624.4-20.3-8.5-38.5 65.3 13.7 15.1z"/><path class="st0" d="m614.4 583.3-13.7 11.2 48.1 42.8 12.7-20z"/><circle class="st6" cx="659.7" cy="605.9" r="4.2"/><circle class="st6" cx="638.6" cy="638.9" r="4.2"/><circle class="st6" cx="663.9" cy="662.6" r="4.2"/><circle class="st6" cx="678" cy="644.7" r="4.2"/><circle class="st6" cx="688.2" cy="626.7" r="4.2"/><circle class="st6" cx="715.1" cy="656.1" r="4.2"/><circle class="st6" cx="729.4" cy="662.2" r="4.2"/><circle class="st6" cx="743.7" cy="668.4" r="4.2"/><circle class="st6" cx="779.1" cy="693.4" r="4.2"/><circle class="st6" cx="783.2" cy="677.8" r="4.2"/><circle class="st6" cx="760.1" cy="718.5" r="4.2"/><circle class="st6" cx="751.9" cy="730.3" r="4.2"/><circle class="st6" cx="723.3" cy="699.2" r="4.2"/><circle class="st6" cx="711.6" cy="690.2" r="4.2"/><circle class="st6" cx="700" cy="681.2" r="4.2"/><circle class="st6" cx="622.6" cy="600.8" r="4.2"/><circle class="st6" cx="636.2" cy="611.7" r="4.2"/><circle class="st6" cx="648.9" cy="621.6" r="4.2"/><path class="st3" d="m360.8 524.8-9.5 89.6 77 11.3 9.4-57.5 53.6 12.9 98-25.5-40.7-71.5-34.2-69.9-139.1 23z"/><path class="st3" d="m665.7 744.3-21.4-53.6-47.3-12.2s-19.8-1-40 2c18.6-4 38.6-11.7 45.8-39.4 7.1-27.6 1.2-50.6 1.2-50.6l-48.9-102.2-37.5-40.1-47.8 35.8-37 54.6-24.8 164s15.6 42.2 47.3 49.1c31.8 6.9 149.9-42 163.8-36s-1.7 36.6 17.6 52.6c12.4 10.3 24.5 14.6 33 15.6-3.6-12.1-10.5-35.3-10.7-35.8l6.7-3.8z"/><path class="st2" d="M606.5 730.3v14.1l26.6-2.9-3.5-13.7z"/><path class="st0" d="m624.8 708.5-18.3 3.8v18l23.1-2.5zM636.6 755.5l-3.5-14-13 1.4 1.9 16.2zM606.5 744.4v18.4l7.9-1.8-1.4-17.3z"/><path class="st0" d="m620.1 742.9-7.1.8 1.4 17.3 7.6-1.9z"/><path class="st3" d="M460.3 715.8c23.5 32.2 13.2 55.5 19.8 86.6 0 0 17.7-4.7 20.2-9.2 2.7-4.7 1-16.2 1-16.2l11.9 13.2 34.4-14.2s-27.8-80.7-41-82.4c-13.3-1.7-39 7.2-39 7.2s-30.8-17.2-7.3 15z"/><path class="st1" d="M475.3 706.5s23.4 33 26 70.5M493.4 699.2c20.8 17.9 34.8 84.8 34.8 84.8"/><path class="st2" d="M471 635.4c7.8 30.6 17.1 54.5 22.3 67 7.9-5.1 13.3-8.7 13.3-8.7s-31.5-51.3-31.1-125.2c-4.8.5-8.9.7-12.2.6h-.6c-.4 8.2-.7 30.8 8.3 66.3z"/><path class="st0" d="M452.9 568.3c-7.5-.3-12.2-.3-15.2-.1l-.9 10.9-5.3 48.3c-.3 1 5 70.5 27.8 94 7-3.3 14.2-7.1 20.7-10.9-5.2-13-13.5-36.1-21.4-67.5-10.5-42.1-7.1-67.4-5.7-74.7z"/><path class="st2" d="M471 635.4c-9-35.5-8.7-58.1-8.3-66.5-3.8-.2-6.9-.4-9.8-.5-1.4 7.1-4.8 32.6 5.8 74.6 7.8 31.4 16.2 54.5 21.4 67.5 4.9-2.9 9.4-5.7 13.3-8.1-5.3-12.6-14.5-36.4-22.4-67z"/><path class="st1" d="m454.5 715.4 15.8-6.9M449.7 707.2l15.9-6M446.1 699.2l16.3-4M442.6 690.9l15-4M441.5 683.9l14.2-3.5M439.1 676.4l15.2-2.7M437.7 670.7l13.8-3.9M437.7 662.6l13.8-2.4M437.7 656.1l12.5-4.1M435.1 648.9l14.6-4.2M432.7 640.7l13.9-4.7M433.8 632.9l12.8-4.1"/><path class="st3" d="M248 397.5 234.9 433c2.4 1.1 4.9 2.3 7.3 3.5l13.6-36.8c-2.6-.8-5.2-1.5-7.8-2.2zM256 399.6l-13.6 36.8c31.1 14.9 63.5 31.8 63.5 31.8l55.5-2.9 3.8-38.3c-.2.1-64.4-15.4-109.2-27.4z"/><path class="st4" d="M283.4 406.7c-7.3 3.2-12.5 10.5-12.5 19.1 0 11.5 9.3 20.7 20.7 20.7s20.7-9.3 20.7-20.7c0-4.9-1.7-9.3-4.5-12.8-7.9-2-16.2-4.1-24.4-6.3z"/><path class="st3" d="M362.9 427.1S248 495.1 241 502.4c-6.9 7.3-13.9 18.9-11.9 30.5 2 11.6 21 23.1 56.9 9.6 35.8-13.5 59.2-33.7 59.2-33.7l27.5-8.9-9.8-72.8z"/><path class="st4" d="M296.7 466.7c-12.9 7.8-25.5 15.6-35.4 21.8 0 .5-.1 1-.1 1.5 0 14.1 11.4 25.5 25.5 25.5s25.5-11.4 25.5-25.5c-.1-10.4-6.5-19.3-15.5-23.3z"/><path class="st3" d="M397.7 610.8c-63-5.6-122.3-39.3-122.3-39.3l-10.9 22.2s71.5 23.3 75.7 30.7c4.3 7.3-80.1 6.6-85.1 6.4s-6.3 14.9-5 17.9c1.3 3 48.2 7.2 70.6 13.6 15.5 4.4 35.3 12.8 46.1 17.7.6-1.2 1.2-2.3 1.8-3.5 10.1-19.6 20.3-41.4 29.1-65.7z"/><path class="st3" d="M328.6 616.1c-27-1.2-65.8-13.3-68.8-13.3s-6.3 16.7-4.7 19.5c1.7 2.8 65.7 20.6 65.7 20.6l57.2 14.6c4.7-9.8 9.3-20.2 13.7-31.2-11.2-2.6-41.5-9.3-63.1-10.2z"/><path class="st7" d="m385.9 422.2-3-29.8-25.5 18.4-.1 1.5s-3.1 51.1-10.7 122.2c-4.4 40.6-10.4 64.1-15.7 79.8l32 6.8c6.7-21 13.3-50.3 16.8-86 5.2-55.2 6.2-112.9 6.2-112.9z"/><path class="st1" d="M339.8 615.9c5.1-16.6 8.8-50 15.6-107 6.6-57 7.4-96.8 7.4-96.8M348.4 618.1s3.8-24.4 12.4-89.8c8.5-65.4 7.9-116.3 7.9-116.3M356.2 618.4s12.8-71.2 16.4-116.1c3.7-45 8.2-82.1 8.2-82.1"/><circle class="st4" cx="424.1" cy="475.4" r="12.7"/><circle class="st4" cx="365" cy="449.9" r="12.7"/><path class="st3" d="M371 410.9s.7 49.2 44.4 55.8c43.7 6.6 60.5-9.2 60.5-9.2l-17.2-67.6-87.7 21z"/><path class="st3" d="M382.9 404.2s-.8 46.6 36.7 51.9 50.3-6.3 50.3-6.3l-8.6-53.1-78.4 7.5z"/><path class="st4" d="M403.7 397.8s-12.7 33.4 16.2 45.9c29 12.4 52.6-5.5 52.6-5.5l-4.3-41.7-64.5 1.3z"/><path class="st2" d="M101.3 143.9c5.6 10.3 10.3 17.9 10.3 17.9l18.2-7.9s-.7-10-.9-19c-6.1-.2-15.7 1.4-27.6 9z"/><path class="st4" d="M133.8 96.2c-7.9-2.2-18.9 5.5-19.9 14.1-1.2-8.6-4.2-15.1-7.5-15.1s-14.9 1-16.2 7.4c-1.3 6.5 6.9 13.6 6.9 13.6s-16.2-6.6-20.5 4.5c-4.3 11 1.3 16.1 6 18.4 4.7 2.3 13.9 2 12.9-6.7 2 4.1 4 8 6 11.6 11.9-7.6 21.4-9.2 27.6-9.1-.1-5-.1-9.5.3-12.1 5.3 2.8 10.9 0 13.6-5.1 2.5-5.1-1.3-19.2-9.2-21.5z"/><circle class="st8" cx="127" cy="168.7" r="20.7"/><path class="st1" d="M134.1 109.8c-9.9-3.1-12.2 9.7-5 12.9M85.5 129.8c1-6 9.9-7.7 9.9 2.4"/><circle class="st1" cx="127" cy="168.7" r="7"/><path class="st3" d="M151 330.9c6.9 0 17.5.8 26.6 1.9-5.1-40-10.2-79.8-14.1-108.7l-49.6 12.8c4.5 12.7 9.3 27.8 13.8 44.1 4.6 16.5 9.2 34.1 13.9 52.1h0c2.9-1.5 6.1-2.2 9.4-2.2z"/><path class="st4" d="M156.9 181.2c-3-5.8-14.9-5.1-16.2 1.6-6.4-6.3-15.2-3.7-16.2 4.2-6.3-4.2-12.2 0-12.9 5.6-4.7-2.9-12.6-.7-12.6 4.4 0 1.2 6.6 16.8 14.8 40.2l49.6-12.8c-3.3-25.2-5.8-42-6.5-43.2z"/><path class="st1" d="m140.7 182.7 29.5 145.7M161.9 334.7l-37.3-147.8M111.7 192.4l37.1 139"/><path class="st5" d="M730.6 328.3s46.3 16.3 68.6 12.6c22.1-3.7 31.8-31.1 22.1-46.7-9.6-15.7-30.1-21-38-15-7.9 6.1-6.5 19.4-.6 22.7 5.9 3.4 10.8-6.3 16.1-3.7 5.3 2.7 4.7 9.4-2 13.3s-36-1.4-36-1.4l-30.2-11-11.5 11.3 11.5 17.9z"/><path class="st4" d="M691.3 557.6c2.1 5.7 22 5.7 22-2.1v-32.4l-22.1-1.5c-.5 18.9-.7 34.1.1 36zM739.9 566.2c7.2 13.6 26.1 5 24.5-2.3-.6-2.7-4.7-21.7-9.6-44.9l-25.4 3.9c4 21.1 7.9 38.7 10.5 43.3zM655.6 541.7c0 8.9 17.8 8.6 20 4 .7-1.5 2.9-13.1 5.5-28.3l-21-3.5c-2.7 14.8-4.5 25.5-4.5 27.8z"/><path class="st8" d="M753.1 412.4c-13.9-53.9-3.3-93-39.8-113.1s-22 8.6-22 8.6l-8.6 88.6s-14.9 75.1-22.5 117.4l21 3.5c5.6-32.5 13.1-81.2 13.1-81.2s-2.2 49.6-3.1 85.5l22.1 1.6v-93.4s8.3 52.8 16.1 93l25.4-3.9c-8.6-40.3-19.8-93.1-19.8-93.1s18 55.1 32.9 93.1l22.3-6c-12-26.5-28.3-66.4-37.1-100.6z"/><path class="st4" d="M803.7 542.2c-1.6-3-6.8-13.9-13.6-29.1l-22.3 6c6.7 17.4 12.9 31.2 16.5 34.5 11.2 10.8 23.7-3.2 19.4-11.4z"/><path class="st1" d="M710.7 328.3c18.2 3.6 15.8 58.1 24.1 97.6M713.3 430c1.9-55.9-9.5-76.4-9.5-76.4M694.2 368.5s5.4 33.6 0 67.6"/><path class="st1" d="M710.7 313.8c29.8 11.2 22.8 69.5 36.7 116.1s31.2 86.3 31.2 86.3M705.8 338.3c10.6 7.6 14.1 47.6 19.2 91.6s16.2 91.3 16.2 91.3M698.2 361.8c15 41 1 141.2 4.3 159.5M687.9 384.6c4 30.5-18.4 131.7-18.4 131.7"/><path class="st7" d="M628.5 374.4c.8.3 46.4 34 46.4 34s32.1-30.7 44.4-115.7c12.2-85.1-11.7-118.5-11.7-118.5l-45.5 16.6-33.6 183.6z"/><path class="st2" d="M665.5 220.5s104.2-19.6 109.9-17.6 3.3 11 0 14.3c-3.3 3.3-108.5 23.7-108.5 23.7l-2 40.4s105.4 10.4 109.2 13.6c3.8 3.2 1 13.6-5 15.2-6 1.7-108.2-7.9-108.2-7.9l-7.9 21.1s97.3 48.3 99.2 51.6-1.3 11.6-6.3 11.6-98-43-98-43l3.7-113.7 13.9-9.3z"/><path class="st8" d="m596.6 353.5 32.1 31.1s11.2-5 7.6-18.9c10.2 2.9 16.6-3.5 9.6-15.8 11.9 0 18.9-11.3 2-26.5 13.9 4 21.1-5 14.2-18.2 11.9 1 12.6-17.6 4.7-22.2 10.6-1.6 15.2-17 2-23.4 10.2-3 14.2-20.1 0-26.5 8.2-6.3 10.6-26.2-6.9-28.2 10.9-7.4 6.6-19.1 6.6-19.1l-52.6 11.4-16.2 32.6-3.1 123.7z"/><path class="st1" d="m661.8 204.9-47.9 9.4M668.7 233.1h-54.3M668.7 259.6l-53.9-5.5M614.1 275.4l52.6 7.6M662.1 305.2l-50.6-11.9M609.2 315.4s30.1 1.3 38.7 7.9M645.9 350c-5.5-12.6-40.7-19.9-40.7-19.9M596.6 341.9c.3.6 37.4 13.9 39.7 23.8"/><path class="st0" d="m450.4 153.8 7.2 33 26.1-1c3-5.9 6.6-12.7 10.3-19.8l-35.3-23.2c-4.9 6.5-8.3 11-8.3 11z"/><path class="st2" d="M495.7 95.8c-2.7 2.4-24.6 30.8-36.9 46.9l35.3 23.2c12.9-24.6 27.9-52.7 28.7-56.2 1-4.4-23.3-17.2-27.1-13.9z"/><path class="st4" d="M461.3 86.9c0-3-38.4-5.7-40.7-3.7-.8.7-1.2 8.5-1.3 18.6l41 1.5c.6-8.9 1-15.5 1-16.4z"/><path class="st1" d="M574.7 160.6s-7.9 5.1-6.3 13.6"/><path class="st0" d="M546.9 155.9c-14 17.9-27.3 35.4-27.3 35.4l10.5 18.2 20.1 2s1-15.9.7-16.6c-.3-.7 12.6-16 17.6-20.8 0 .1-15.1-10.5-21.6-18.2z"/><path class="st2" d="M603.5 158.6c-1.7-15.5-28.1-10.6-28.1-10.6s17.2-16.1 17.9-20.7c.7-4.7-9.6-11-15.2-8.3-2.8 1.3-17.4 19.3-31.2 37 6.5 7.6 21.6 18.3 21.6 18.3 1.3 8.5 7.6 12.7 16.4 12.7 14.7-.1 20.3-12.9 18.6-28.4z"/><path class="st3" d="m565.5 203.7-11.2 1.4c4 75.5-8.1 121.5-13.1 137l13.1 2.7c4.3-12.4 11.5-36.7 14-66.3 2.7-31.5-.7-61.1-2.8-74.8z"/><path class="st3" d="m554.3 205.1-17.4 2.2-13.8 131 18 3.8c5.1-15.5 17.2-61.5 13.2-137z"/><path class="st2" d="m589.4 200.6-23.9 3c2.1 13.7 5.5 43.3 2.8 74.7-2.6 29.6-9.8 53.9-14 66.3l26.6 5.5c5.2-13.1 12.5-37.3 14.2-73.4 1.8-41.8-3-66-5.7-76.1z"/><path class="st4" d="m615.8 197.3-26.4 3.4c2.7 10.1 7.4 34.2 5.6 76.1-1.7 36.1-8.9 60.4-14.2 73.4l15.8 3.3s16.9-20.5 20.5-79.4c3.7-58.8-1.3-76.8-1.3-76.8z"/><path class="st3" d="M378.4 199c-4.2 16.1-31.3 44-32.3 47.1s2.9 5.5 2.9 9.4-46.1 32.1-53.5 42.7c-7.3 10.6-6.9 18.9-3 25.8s12.6 11.1 20.8 11.1c-6.3 6.8-29.3 14.8-23.2 21.8 8.7 1.1 15.8.3 15.8.3-1 1.6-8.8 10.3-2 16.9 5.2 5 25.3.3 29.8 6.4 4.5 6.1-4.8 13.5 1 21.9s18.1 13.9 35.7 11.9c17.7-2 47.6-17.9 47.6-17.9l60 14.4L507.3 261l-99.6-69c-.1.1-25.1-9.1-29.3 7z"/><path class="st9" d="M398.1 189.8c-7.5-1-17.2-.3-19.7 9.2-.4 1.4-.9 3-1.6 4.5 5.4 2.1 10.1 3.8 14 3.8 10.5 0 13.1-10.2 7.3-17.5z"/><path class="st2" d="M461 235.4s-30.1 31.8-39.7 72.1c-9.6 40.4-5 99-3.7 107.3 1.3 8.2 10.9 12.5 24.8 13.5s36-4.3 36-4.3l34.4-169.9-51.8-18.7z"/><path class="st1" d="M313.4 335.2c10.9 0 20.1 1.3 24.8-4.3 4.7-5.6 4.2-16.8-3.3-20.4-7.4-3.7-12.6 3.7-12.6 3.7"/><circle class="st0" cx="235.3" cy="294.7" r="4.3"/><path class="st2" d="M127.6 281c-11.5-41.5-25.3-74.7-28.1-82.6-5 .2-17.2 1-18.7 4.5-2 4.4-1.3 8.5 1 11.4s9.6 1.2 12.2 3.6c2.7 2.3 9.2 31 9.2 34.2s-8.9 7.8-12.2 12.4c-3.3 4.7-1.7 9.6 2.3 11.9s12.6.3 14.9 0c2.3-.3 26.1 77.4 26.1 77.4l9.6-11.2c-5.3-21.1-10.9-42.2-16.3-61.6z"/><path class="st0" d="m428.3 643.6-2-54.9s8.9-101.6-19.8-4.4c-10.4 35-24.1 65.8-37.7 92l49.4 18.8c6-28.7 10.1-51.5 10.1-51.5z"/><path class="st2" d="M318.8 771.4c-7 46.6 57.1 65.2 73.9 20.8 4.2-11.1 8.5-25.9 12.6-41.9l-62.4-28c-12.8 22.3-22.5 38.7-24.1 49.1z"/><path class="st0" d="M358.3 695.8c-5.4 9.6-10.5 18.6-15.2 26.6l62.4 28c2.7-10.3 5.3-21.2 7.6-31.9l-54.8-22.7z"/><path class="st2" d="m418.1 695.2-49.4-18.8c-3.5 6.7-6.9 13.2-10.4 19.4l54.8 22.7c1.8-8.1 3.4-15.9 5-23.3z"/><path class="st1" d="M431.5 568.9c2 0 3.8-1.7 31.8 0s122.6-26.6 122.6-26.6M505.8 692.1c10.2-3.1 35.8-10.3 51.1-11.7"/><path class="st4" d="M559.5 701.2c-13.4 0-24.3 10.9-24.3 24.3 0 3.7.8 7.1 2.3 10.2 16.4-4.9 32.5-9.9 46.1-13.9-1.8-11.6-11.9-20.6-24.1-20.6z"/><circle class="st4" cx="546.4" cy="633.5" r="25"/><path class="st0" d="M665.6 770.1c.7 2.4 1.4 4.7 2.1 6.9h12.1c-.6-2.3-1.6-5-2.7-7.7l-11.5.8zM669.5 783.7c4.6.6 8 .2 9.7-.6 1.2-.6 1.2-2.9.4-6.1h-12.1c.8 2.4 1.4 4.7 2 6.7zM668 750.3l-2.4-6.1-6.8 3.6c.1.2 1.3 4.2 3 9.6l9.7-.5c-2-3.8-3.5-6.6-3.5-6.6zM671.5 757l-9.7.5c.6 1.9 1.2 4.1 1.9 6.3l10.6-.9c-1-2.1-2-4.1-2.8-5.9z"/><path class="st0" d="m674.3 762.8-10.6.8c.6 2.1 1.3 4.2 1.9 6.4l11.5-.9c-.9-2-1.9-4.2-2.8-6.3z"/><path class="st7" d="m427 102.1.8 46.7 7.1 2.4-1-48.9zM419.3 101.8c-.2 18.6.3 44.4.3 44.4l8.1 2.7-.8-46.7-7.6-.4z"/><path class="st7" d="m433.9 102.3 1 48.9 7 2.3.5-50.9zM460.2 103.2l-9.8-.4v53.4l6 2c-.1 0 2.4-33.8 3.8-55z"/><path class="st7" d="m442.4 102.6-.5 50.9 8.5 2.7v-53.4zM521.8 112.3c-4.4 9.8-22.4 43.4-34.7 67.1 3.1-.4 6.5-.4 10-.1l29.9-66.1c-1.8-.4-3.6-.7-5.2-.9zM527.1 113.2l-29.9 66.1c2.3.2 4.7.5 7.1 1l29.7-65.6c-2.3-.6-4.7-1.1-6.9-1.5zM541.1 116.8l-28.2 65.7c2 .7 3.9 1.5 5.6 2.3l29.1-63.6c-1-1.8-3.4-3.2-6.5-4.4z"/><path class="st7" d="m547.6 121.2-29.1 63.5c3.8 1.8 7 3.9 9.9 6.2 6.6-18.7 22.3-64.1 19.2-69.7h0zM534.1 114.7l-29.7 65.6c2 .4 4.1.9 6.3 1.6.8.2 1.6.5 2.3.8l28.2-65.7c-2.3-1.1-4.7-1.7-7.1-2.3z"/><path class="st1" d="m507.3 249.3-6.1 15.2"/><path class="st7" d="m459.2 217.5-7.3 19.8c2.4 1.5 4.8 2.9 7 4.3l8-19.2c-2.3-1.6-4.9-3.2-7.7-4.9zM442.7 208.2c-1.3-.6-2.6-1.1-3.9-1.6l-7.5 17.9c2.1 1.2 4.2 2.4 6.4 3.7l7.4-18.7c-.8-.4-1.6-.9-2.4-1.3zM429.5 203.2l-6.4 17.3c2.7 1.3 5.4 2.6 8.1 4.1l7.5-17.9c-3.1-1.3-6.2-2.4-9.2-3.5z"/><path class="st7" d="m452.2 213.4-6.7 19.8c2.2 1.4 4.4 2.8 6.6 4.1l7.3-19.8c-2.5-1.4-4.7-2.7-7.2-4.1z"/><path class="st7" d="m445.1 209.5-7.4 18.7c.9.5 1.8 1.1 2.6 1.7 1.7 1.1 3.5 2.2 5.2 3.3l6.7-19.8c-2.3-1.3-4.6-2.6-7.1-3.9zM406.4 196.6 400 212c2.5.7 5.2 1.5 7.8 2.4l6.4-15.9c-2.9-.8-5.5-1.4-7.8-1.9zM376.8 203.5c-.6 1.4-1.3 2.9-2.2 4.4 0 0 5 .1 12.8 1.5l.9-2.2c-3.3-.6-7.2-2-11.5-3.7z"/><path class="st7" d="M400.9 195.6c1.2 6-2.3 11.6-10 11.6-.8 0-1.6-.1-2.5-.2l-.9 2.2c3.6.6 7.8 1.5 12.5 2.8l6.5-15.4c-2.3-.4-4-.7-5.6-1zM421.9 200.7l-5.7 16.8c2.3.9 4.7 1.9 6.9 3l6.4-17.3c-2.6-.9-5.1-1.8-7.6-2.5zM414.2 198.5l-6.4 15.9c2.7.9 5.5 1.9 8.3 3.1l5.7-16.8c-2.7-.9-5.3-1.6-7.6-2.2zM486.1 236.4h0l-6.4 17c3 1.6 5.7 3.1 8.1 4.4l5.2-15.3c-2-2-4.4-4-6.9-6.1zM519 271.6l-9.8 34.2c3.5 1.5 6.2 3.8 7.4 6.9l7.8-34.1c-1.7-2-3.4-4.4-5.4-7z"/><path class="st7" d="M515.3 266.8c-.4-.6-.9-1.2-1.4-1.7l-10.2 39c2 .4 3.8.9 5.5 1.7l9.8-34.2c-1.2-1.5-2.4-3.1-3.7-4.8zM524.4 278.6l-7.8 34.1c.3.7.5 1.4.6 2.1 2.9 15.2-5.7 19.6-6 27.8-.2 3.9 2.4 8.3 5.2 13.2l14-71.5c-1.9-1.2-3.9-3.1-6-5.7z"/><path class="st7" d="M536.7 286.8c-1.4-.4-2.9-.8-4.4-1.4-.7-.3-1.3-.6-2-1l-14 71.5c3.2 5.7 6.7 11.9 6.7 18.6l13.7-87.7zM509.9 260.2l-15.6 43.3c3.2-.1 6.5.2 9.3.8l10.2-39c-1.1-1.8-2.4-3.5-3.9-5.1zM467.1 222.4l-8 19.2c2.2 1.3 4.3 2.5 6.3 3.7l7.5-18.9c-2-1.4-3.9-2.7-5.8-4zM479.4 231.1l-6.4 18.6c2.4 1.3 4.6 2.6 6.7 3.8l6.3-17c-2.1-1.9-4.2-3.6-6.6-5.4zM502.8 252c-1.1-1.1-2.2-2.3-3.4-3.5l-4.7 12.7c4.1 2.1 6.5 3.2 6.5 3.2l-17 40.2c3.2-.8 6.6-1.2 10.1-1.3l15.6-43.3c-2-2.4-4.4-5.1-7.1-8z"/><path class="st7" d="m472.8 226.3-7.5 18.9c2.7 1.6 5.3 3.1 7.7 4.5l6.4-18.6c-2.1-1.5-4.3-3.2-6.6-4.8zM493.2 242.6l-5.2 15.3c2.6 1.4 4.9 2.6 6.8 3.6l4.7-12.7c-2-2.1-4.2-4.2-6.3-6.2zM510.6 181.8c35.4 10.6 35.4 45.1 35.4 45.1L456.4 195c-.1 0 18.8-23.9 54.2-13.2z"/><path class="st1" d="M466.6 195.2s13.9-11.8 42.7-5.7 29.8 37.2 29.8 37.2"/><path class="st1" d="M472.9 200.9s14.5-7.9 34.3-1.5c19.8 6.6 26 26 26 26"/><path class="st7" d="M399.9 145.1c.5 0 15.8-9.9 47.5 4s26.5 48.4 26.5 48.4l-14.6-4.6-70.1-21.6 10.7-26.2z"/><path class="st1" d="M399.9 151.2s16.4-4.8 42 5.1c25.6 9.9 28.7 38.8 28.7 38.8"/><path class="st1" d="M397.5 153.8s20.6 1.3 36.4 8.1c15.8 6.8 23 21.8 23 21.8"/><path class="st0" d="M457.6 186.9c-45.4-28-51.5-29.9-64.5-28.2-13 1.7-16.8 24.1-16.8 24.1l19.8 12.3s18.3 1.3 46.6 13.2c18.4 9.5 32.4 19.2 43.3 28.2l13.4-28.8c-13.9-5.6-28.4-12.6-41.8-20.8z"/><path class="st2" d="m499.5 207.7-13.4 28.8c6.6 5.5 12.1 10.7 16.7 15.6l16.9-37c-6.6-2.2-13.3-4.7-20.2-7.4zM571.5 228.1c-4.7-.4-17.7-2.9-34.5-7.6l-21.6 46.3c7.5 9.7 11.9 16.6 17.1 18.6 13.2 5 24.8 2 25.5-8.6.7-10.6-14.9-25.5-14.9-25.5s21.5 5 32.5 2 6.8-24.2-4.1-25.2z"/><path class="st0" d="m519.6 215.1-16.9 37c5.1 5.4 9.1 10.3 12.5 14.8l21.6-46.3c-5.3-1.7-11.1-3.5-17.2-5.5z"/><path class="st1" d="M392.6 177.5s23.6 5.3 53.4 17.6c29.8 12.3 86 46.3 97 56.3"/><path class="st0" d="M440.7 176.9c-10.7 3.6-12.4 22.7-9.8 27.7 2.7 5 18 12.5 21 8.6 3.1-3.9 14-16.8 13.3-23.6s-13.8-16.3-24.5-12.7z"/><path class="st2" d="M332 110c-13.2-1.3-21.8 4.3-23.1 19.8-1.3 15.6 18.9 26.5 18.9 26.5s-27.1-6.3-37.4 6.3c-10.2 12.6-8.9 27 3.7 32.5 7.6 3.4 21.2 2.6 31.1 1.5l26.1-69.3c-4.8-7.5-11.8-16.5-19.3-17.3z"/><path class="st0" d="m351 127.4-26.1 69.2c2.5-.3 4.7-.6 6.5-.8l23.1-62.1c-.9-1.9-2.1-4.1-3.5-6.3z"/><path class="st3" d="M356.4 137.8s-.7-1.7-2-4.1l-23.1 62.1c2.9-.4 4.8-.7 5.2-.7l15.6-3.3 13.2-41.7-8.9-12.3z"/><path class="st1" d="m327.6 156.3 29.2 10.8"/><path class="st0" d="M422.8 114.4c0 8.6-6.9 15.6-15.6 15.6s-15.6-6.9-15.6-15.6 6.9-15.6 15.6-15.6c4.1 0 7.7 1.5 10.4 4.1 3.2 2.7 5.2 6.9 5.2 11.5z"/><circle class="st1" cx="407.2" cy="114.4" r="5.7"/><path class="st2" d="M385.8 126.4c-3.1 9.6-5.2 25.4-5.2 25.4l16.2 8.9s11.9-14.2 17.6-22.9l-28.6-11.4z"/><path class="st0" d="m397.1 119.7-4.5 9.3 7.2 2.9 5.1-9.2c-2.5-1.2-5.3-2.3-7.8-3z"/><path class="st0" d="M389.6 119.3c-1.3.8-2.6 3.5-3.7 7l6.8 2.8 4.5-9.3c-3.4-1.1-6.3-1.4-7.6-.5zM412.5 126.9l-4.9 8.2 6.7 2.7c1.8-2.7 3-4.9 3-5.9 0-1.3-1.9-3.1-4.8-5zM404.9 122.7l-5.1 9.2 7.7 3.1 4.9-8.2c-2-1.3-4.7-2.8-7.5-4.1z"/><circle class="st8" cx="381.7" cy="167.5" r="19.5"/><circle class="st8" cx="376.5" cy="169.8" r="16.1"/><path class="st10" d="m384.1 163.8-14.9 16.4c1.9 1.6 4.5 2.6 7.1 2.6 6.2 0 11-5 11-11 .2-3.2-1.1-6-3.2-8z"/><path class="st11" d="M376.5 160.6c-6.2 0-11 5-11 11 0 3.4 1.5 6.4 3.9 8.4l14.9-16.4c-2.2-1.8-4.9-3-7.8-3z"/><circle class="st1" cx="376.5" cy="171.7" r="11"/><circle class="st0" cx="376.5" cy="171.7" r="4.3"/><path class="st4" d="M356.8 148.4c-6.6 4.3-12.6-2.3-11.6-10.9 1-8.6 8.2-10.6 14.6-10.6 6.3 0 12.2 5.7 14.6 12.9 2.3 7.2-10.6 24.5-5.3 34.4 5.4 9.9 19.6 6.6 27.5 13.9 7.9 7.2 5.7 19.2-5.7 19.2-11.2 0-30.1-13.9-47.6-12.2-2.1.2 7.2 1.7 5.3 6.9s-15.9 5.3-20.8-.3c-5-5.7-5.3-12.2-1-18.6 4.3-6.3 25.5 1 25.5 1s-9.3-4-5.3-13.6c4-9.6 6.4-16.4 9.8-22.1z"/><path class="st1" d="M384.9 195s-23.5-5.7-32.8-10.9M358.4 136c5 3.5 5.7 8.3-1.6 12.4M343.2 195c-4.8-2.7-9.6 2.3-9.6 2.3"/><path class="st4" d="M664.5 119.6s64.8.5 67.5-3.8c-5.3-4.2-8.6-9.9-3.3-14.8s20.1-1.3 24.8 9.1c4.7 10.4-8.6 23.7-8.6 23.7s18.2 26.8.3 33.5c-17.9 6.7-24.8-6.7-22.8-14.8-1.7-3.4-61.5-5.2-61.5-5.2l3.6-27.7z"/><path class="st1" d="M742.2 110.1c3.7 3.4-3 9.9-10.2 5.8M722.3 152.6c1.3-5.2 10.3-9.4 15.3-3.4"/><path class="st4" d="M734.5 124.9s34 .1 39 1.6 6.9 10.9 1.3 13-40.4 0-40.4 0"/><path class="st2" d="m622.1 110.7-1.7 24.3 1.7.8s17.7 11 29.8 16.6l5.1-42.3c-14.1-.4-34.9.6-34.9.6z"/><path class="st0" d="m653.1 142.9 13.7 2.2c.7-2.7 1.3-5.7 1.9-8.7l-14.5-2.5-1.1 9zM669 111.7c-1.3-.9-6.1-1.4-12.1-1.5l-1 8.3 14.5 1.1c.1-4.1-.3-7.1-1.4-7.9zM651.9 152.5c5.1 2.4 9.2 3.8 10.5 2.9 1.4-.8 3-4.9 4.3-10.1L653 143l-1.1 9.5z"/><path class="st0" d="m670.5 119.6-14.5-1.1-1 7.9 14.9 1.5c.3-2.9.5-5.8.6-8.3zM655 126.5l-.9 7.3 14.5 2.5c.5-2.8.9-5.7 1.3-8.4l-14.9-1.4z"/><path class="st3" d="M611.7 101.8c-12.4 0-22.7 8-24.1 18.4 3.5 1.8 6.2 4.8 5.8 7.2-.2 1.2-1.4 3-3.1 5.2 4.1 6.6 12.1 11 21.4 11 13.4 0 24.3-9.3 24.3-20.8s-10.9-21-24.3-21z"/><path class="st11" d="M401.2 266.8c-17.6-5.3-19.3-13.7-23.9-13.7s-6.7 11.1-4.6 19.4c2.1 8.2 13.4 15.2 29.8 15.2l5.9-18.7c-2.5-.7-4.9-1.5-7.2-2.2z"/><path class="st10" d="m408.2 269-5.9 18.7h.3c16.6 0 32.4-3 32.4-6.4.1-2.8-12.1-7.6-26.8-12.3z"/><path class="st1" d="M377.2 253.1c-4.7 0-6.7 11.1-4.6 19.4 2.2 8.2 13.5 15.3 30.1 15.3s32.4-3 32.4-6.4c0-3.4-16.4-9.3-34-14.6s-19.2-13.7-23.9-13.7z"/><path class="st1" d="M377.2 253.1c-4.7 0-6.7 11.1-4.6 19.4 2.2 8.2 13.5 15.3 30.1 15.3s32.4-3 32.4-6.4c0-3.4-16.4-9.3-34-14.6s-19.2-13.7-23.9-13.7z"/><path class="st0" d="M390.7 262.5c-2 1.7-3.3 4.2-3.3 7 0 5.1 4.1 9.1 9.1 9.1s9.1-4.1 9.1-9.1c0-.5 0-.9-.1-1.4-1.5-.5-3-.9-4.5-1.4-4.2-1.2-7.6-2.7-10.3-4.2z"/><circle class="st0" cx="385.6" cy="334.2" r="11.7"/><circle class="st1" cx="385.6" cy="334.2" r="4.3"/><path class="st2" d="m357.4 318.6-3.9 16.1 11.5 3.5 4-17.3z"/><path class="st0" d="m365 338.2 6.9 2 1.5-6.1-7.2-1.3z"/><path class="st0" d="m367.7 326.6-1.5 6.2 7.2 1.3 1.6-6.1zM376.5 322.4l-7.5-1.5-1.3 5.7 7.3 1.4z"/><path class="st4" d="m357.4 318.6-17.8-3.5c2.5 4.7 2 11-.8 15.1l14.7 4.5 3.9-16.1z"/><path class="st0" d="M290.2 357s19.4-3.8 27.5-3.5 27.4 8.2 27.4 8.2.4 8.6-3 9.9c-3.3 1.3-7.9 0-9.2-4-2 4-7.6.9-7.9-3.3-1 3.3-8.9 4.2-9.2-1.8-1.3 3.5-9.6 5.2-12.6 0-1 5.2-7.2 5-10.6 2.5-3.3-2.4-2.4-8-2.4-8z"/><path class="st1" d="m333 367.7 3.1-9.5M325 364.5l1.3-9.3M315.1 353.8l.6 8.8M303.2 362.6l-1-7.2"/><path class="st2" d="m262 289.5-4.4 20.5 17.6 2.8 4.5-19z"/><path class="st0" d="m243.7 307.9 13.9 2.1 1.4-7-14.3-1.3zM262 289.5l-14.8-3.4-1 6.2 14.6 2.6z"/><path class="st0" d="m246.2 292.3-1.5 9.4L259 303l1.8-8.1z"/><path class="st4" d="m275.2 312.8 14.6 2.3c-.2-4.9 1.4-10.4 5.8-16.8.1-.2.2-.3.4-.5l-16.2-3.9-4.6 18.9z"/><path class="st2" d="M238.1 136.7c-2.3 9.9-3.4 17.7-3.4 17.7l17.4 8.4s6.5-4.3 11.6-9.6c-4.3-4.4-12.8-12.3-25.6-16.5z"/><path class="st4" d="M292.6 131.9c-2-8-14.1-13.9-20-9.7 4.3-5.9 1.5-15.5-.8-17.9-2.3-2.4-8.3-5.1-12.2-1.1-5.2 5.5-8 14.5-8 14.5s-7-11.8-19.2-8.9c-9.8 2.3-13.1 13.6-11.2 18.3 1.9 4.7 11.5 11.1 18.2 1.9-1.1 3.8-.4 4.4-1.2 7.8 12.8 4.2 21.3 12 25.6 16.5 2.9-2.9 5.6-5.6 7.3-6.7 2.1 5.4 6.8 8.5 11.5 6.8 9.5-3.6 12-13.5 10-21.5z"/><circle class="st3" cx="237.4" cy="170.3" r="20.7"/><circle class="st1" cx="237.4" cy="170.3" r="7"/><path class="st2" d="M256.1 201.9c-9.5-2.6-25 5.4-25 5.4s6.7-19.9 3.9-24.5-16.6-10.6-22.8-3.7c-6.3 6.8-5.3 35.3-14.2 63.3v.1l25.7 4.9s12.2 6 19.9 5.8c7.7-.1 21.2-4.5 25-19.4 3.7-14.9-3-29.3-12.5-31.9z"/><path class="st1" d="M281.1 140.6c-5.1-8.9-13.3-1.2-10 5.9M235.3 117.2c4.2-2.7 9.9 5.8 3.9 11.6"/><path class="st0" d="M136.1 307.4c-3.3.6-1.7 13.5 3.7 16.8 5.4 3.3 13.2 7.6 13.2 7.6l3.1-21.6c-10.4-1.8-18.7-3-20-2.8zM197.9 242.5c-3 9.5-10 38.4-18.1 72.9 9.5 2.4 17.8 5.1 21 7.4.2.2.5.4.7.6 12.2-42.2 21.9-76.1 21.9-76.1l-25.5-4.8z"/><path class="st2" d="M184.1 384.4c-5.7 19.7-11.1 38.6-15.7 54.5 7.3 29.4 12.5 49.8 13.5 51.3 3.7 5.7 14.5 1.3 14.5-3.9-.1-2-5.5-47.1-12.3-101.9z"/><path class="st5" d="m234.9 433 13.1-35.5c-19.3-5.3-33.4-9.6-34.5-11.1-3.7-5.3 3.3-12.1 3-28.9s-6-27.4-15.6-34.5c-6-4.4-28.1-9.5-44.9-12.6l-3.1 21.6-12.2 52.7s16.8 14.9 36.2 24.5c2.3-8 4.7-16.3 7.1-24.7 1.3 10.2 2.5 20 3.7 29.4 1.7.6 3.3 1.1 5 1.6 8.7 2.3 24.9 9.3 42.2 17.5z"/><path class="st5" d="M151.4 371.3c4.9-3.2 19.8-.8 30.4.2l-2.1-38.5c-9.5-1.2-21.2-2.1-28.7-2.1-3.3 0-6.5.7-9.4 2.2-8.5 4.2-15 14.6-15.8 31.4-.9 20.5 21.4 35.6 33 36.1-2.4-9.4-4.9-19.3-7.4-29.3h0z"/><path class="st0" d="M195.6 343.6c6.9-1.6 4-6.4-1-8-2.1-.7-7.9-1.6-15-2.5l2.1 38.5c3.9.4 6.9.7 8.2.7 4.7 0 6.6-6.7 2.7-7.7 7.2-1.6 6.6-8.7 1.3-9.9 8.4-1.2 6.7-10.8 1.7-11.1z"/><path class="st1" d="m192.6 364.5-36.7-1.9M194 354.5l-38.1-1.8M195.6 343.6l-38.3-1.7"/><path class="st0" d="M167.3 370c-12.2 54.4-23.4 105.9-23.9 109.9-1 7.9 10.7 8.3 12.6 2 .9-3 16-55.4 31.7-109.8-1.5-.1-3.5-.3-5.9-.5-4.4-.5-9.6-1.2-14.5-1.6z"/><path class="st3" d="M167.3 370c-6.8-.5-13.1-.6-16 1.3h0c2.9 11.3 5.7 22.3 8.3 33 2.6-11.1 5.2-22.6 7.7-34.3h0z"/><path class="st1" d="m159.4 370.8 4.3 15.9"/><path class="st2" d="M321.4 640.4c-4.7 15.9 21.8 25.5 31 7.6 3.2-6.3 6.8-15.3 10.5-26.7l-32-6.8c-4.1 11.7-7.5 19-9.5 25.9z"/><path class="st7" d="M430.2 521.6c-11.9 18.2-22.5 36.4-22.5 36.4s-3.7 39.1-3.6 65.8l37.8-1.2c-.2-12.3 0-24.9 2.1-33.8 4.8-19.8 26.1-65.2 26.1-65.2L482 431s-15.3.3-25 8.2c8 27.5-14.8 64.2-26.8 82.4z"/><path class="st1" d="M412.7 622.6s-.3-61.6 25.1-98.4c25.5-36.7 27.6-72 25.9-83.7"/><path class="st1" d="M423.4 630.8c-3.1-48 11.9-81.1 11.9-81.1M432.8 630.8c-2.7-51.9 26.5-99.3 26.5-99.3"/><path class="st9" d="M511.2 457.5c7-1.7 14.2-3.9 21-6.3-10.4 0-23.8 1.9-34.9 9.2 4.3-.8 9-1.7 13.9-2.9z"/><path class="st9" d="M532.3 451.2c-6.8 2.4-14 4.6-21 6.3-5 1.2-9.6 2.2-14 2.9-1.1.7-2.2 1.5-3.2 2.3 0 2.7-.2 5.4-.6 8.1 6.1-1 13-2.3 20.7-4.1 13.2-3 25.4-6.7 35.8-10.4-1-2.3-1.5-3.8-1.5-3.8s-6.8-1.4-16.2-1.3z"/><path class="st2" d="M448.9 523.6h21.3s19.5-27.2 23.2-52.7c-11.7 1.9-20.3 2.6-26.2 2.7-3.1 15.5-18.3 50-18.3 50z"/><path class="st0" d="M563.4 414.2c-9.1-19-17.9-35.4-21.7-38-9.4-6.6-24.3-7.5-24.3-7.5s-31.6-3.9-42.5 4.6c-10.9 8.4-11.6 38.2-11.1 61.5 0 1.4.1 2.7.1 3.9l52.5-5.4 47-19.1zM572.9 434.6c-8.6 4.1-23.9 10.9-40.6 16.6 9.5 0 16.4 1.4 16.4 1.4s.5 1.5 1.5 3.8c11.8-4.1 21.3-8.1 27.6-10.9-1.7-3.6-3.3-7.2-4.9-10.9z"/><path class="st2" d="M589.3 474.1c-2.2-6.2-6.5-16.7-11.7-28.7-2.9 1.3-6.6 2.9-10.8 4.7 2.2 7.9 8.1 23.6 22.5 24z"/><path class="st2" d="M566.8 450c-4.9 2-10.5 4.2-16.8 6.4 2.7 6.3 8.9 18.7 18.2 23 12.6 6 22.5 6.5 22.5 0 0-.7-.5-2.6-1.5-5.3-14.3-.4-20.2-16.1-22.4-24.1z"/><path class="st0" d="M497.2 460.3c-12.8 2.2-22.9 2.6-29.8 2.5.2 1.7.4 3.7.4 6.2 0 1.2-.2 2.8-.6 4.6 5.9-.1 14.5-.8 26.2-2.7.4-2.8.6-5.5.6-8.1 1.2-1 2.1-1.7 3.2-2.5z"/><path class="st2" d="M497.2 460.3c11.1-7.3 24.6-9.1 34.9-9.2 16.8-5.8 32-12.5 40.6-16.6-3.1-6.7-6.3-13.7-9.4-20.3l-46.9 19.1-52.5 5.4c.6 15.1 2.7 18.4 3.6 24.3 6.8 0 17-.4 29.7-2.7z"/><path class="st4" d="M559.6 619.5c6.3 9.6 22.8 2.7 20.1-9.9-.7-3.4-4.1-13.4-8.6-26.2l-22.5 10.4c5.1 13.1 9.3 23.1 11 25.7z"/><path class="st7" d="M514.2 499c0 .1.1.3.2.7-.1-.5-.2-.8-.2-.7z"/><path class="st4" d="M507.3 616.6c2.7 10.6 21.2 11.6 23.5-3.3.6-3.6-.1-12-1.4-22.8l-25.5 3.2c1.2 10.8 2.3 18.9 3.4 22.9zM611.5 566.2 585.9 579c5.3 8.8 9.4 15.3 11.4 17.3 8.6 8.6 28.2-3.4 20.5-17.2-1.6-2.6-3.7-7.2-6.3-12.9z"/><path class="st7" d="M568.5 484.6c-17.2-20.1-35.4-73.6-35.4-73.6s-36.4 5-39.4 8.7c-2.9 3.9-4.2 50.5 1.7 98.6 3.7 30.1 6.3 56.8 8.4 75.2l25.5-3.2c-3.9-32-13.6-84.2-15-90.6-.1-.4-.2-.6-.2-.7 0-.1.1.2.2.7 2 6.6 21.2 60.6 34.2 94.1l22.5-10.4c-12.3-34.9-33.4-90.9-33.4-90.9s30.4 56.8 48.1 86.5l25.6-12.8c-10.6-23.2-29-65.5-42.8-81.6z"/><path class="st1" d="M512.4 592.3S490.7 446 497.2 429M514.2 499c-11.2-40.7-10.4-66.6-10.4-66.6M509.9 433.2s3.4 38 13.2 69.1c9.8 31.2 33 88 33 88M563.4 587c-30.4-69.4-49.9-152.3-49.9-152.3M537.7 492.5c-6.7-14.9-19.4-60-19.4-60M593.6 573.4s-44.8-71-52.2-93.1c-7.3-22.1-18.3-50.5-18.3-50.5M527 426s15.7 43.4 34.3 75.6c18.7 32.3 39.6 70 39.6 70M531 420.2s18.6 51.7 33.3 72.5 42.2 75.4 42.2 75.4M500.9 431.5c-3.6 12.7 4.3 61.6 9 82.5 5.1 21.5 5 21.6 12.8 77.3"/><ellipse class="st0" cx="509.9" cy="410.9" rx="23.1" ry="22.3"/><path class="st5" d="M474.2 309.2c-8.6 7.6-9.2 18.9-7.9 23.8 1 3.9 6.6 6.9 6.6 6.9s-8.6 8.9-8.6 14.9 13.6 41.7 29.8 41.7 29.1-9.9 29.1-22.1-12.2-23.5-11.9-31.8c.3-8.2 8.8-12.6 6-27.8-3-15.2-34.5-13.3-43.1-5.6z"/><path class="st1" d="M480.5 328.3s16.2 2.7 13.2 9.2-17.7 4.2-20.8 2.3"/><path class="st0" d="M459.3 355.5c-3.3 3.3-3.3 22.5 2.7 25.1 5.9 2.7 38.4 2.3 42.9 0s2.7-16.9-5.4-18.9c-8-1.9-36.9-9.5-40.2-6.2z"/><circle class="st0" cx="527" cy="473.1" r="17.1"/><path class="st0" d="M385.9 504.7c-9.5-1.8-31.8-10.3-42.4-5.7-10.6 4.7-16.6 18.9-12.6 24.5s20.8 1.7 24.1 4.7 1.3 11.2-1.7 12.2c-3 1.1-19.6-3.7-23.8 9.9-4.3 13.6 6 24.8 18.6 23.5 12.6-1.3 16.9-16.9 20.5-18.9s12.9 0 13.2 5.7-13.2 18.5-9.9 25.8 22.5 24.7 34 8.9c11.5-15.8-1-19.5 2-24.4 3-5 9.2-6.3 16.2-2.7 6.9 3.7 4.7 25.6 23.6 25.6 19.1 0 22-12.7 20-22.2s-18.6-9.9-20.8-14.9c-2.3-5-1.7-13.2 1.8-15.6 3.5-2.4 18.4 7.9 25.6.7 7.2-7.2 5.3-20.8-6-24.8-11.2-4-33 2.7-38.7-1-5.7-3.7-7.9-10.6-20.5-13.6-12.3-3.1-13.7 4.1-23.2 2.3z"/><path class="st2" d="M407.7 661.8c6.6 13.6 32.4 10.6 34.4-2.3 1.1-7.1.2-21.8-.1-36.9l-37.8 1.2c0 17.1.9 32.7 3.5 38z"/><path class="st4" d="M424.7 708.5c-3.5 0-6.8.7-9.9 2.1l-.9 4.2c5.9 10.7 16.3 25.6 31.3 33 2.9-4.1 4.6-9 4.6-14.4-.1-13.7-11.3-24.9-25.1-24.9z"/><path class="st0" d="m619.1 715.4 28.8-2-5.7-40.3-33 3.3z"/><path class="st0" d="M636.7 674.4c-.7 3 11.6 75.7 13.2 78.4 1.7 2.7 18.2-.4 18.2-3.5 0-3.2-14.9-75.7-17.2-77.6-2.3-2-13.6-.3-14.2 2.7z"/><path class="st2" d="M600.3 672.8c-5 3.5 3.3 44.8 7.2 46.6 4 1.9 12.6 3.9 14.9-1.6 2.3-5.6-2.3-37-5.3-41.5s-11.9-6.9-16.8-3.5z"/><path class="st1" d="m493.4 410.9-2.1 13.1M499.9 412.1l2.4 20.2M507.3 412.1l6.2 20.3M514.8 410.9l9.5 17.5M520.9 405.5l10.1 14.7M514.8 473.1l-.6 11M520.9 474.1l.8 15.2M528.1 474.1l4.1 15.2M533.1 473.1l8 9.5M534.8 466.7l9.2 6.4"/><circle class="st1" cx="403" cy="525.8" r="11.9"/></svg>