<svg version="1.1" id="Calque_1" xmlns="http://www.w3.org/2000/svg" x="0" y="0" viewBox="0 0 900 900" style="enable-background:new 0 0 900 900" xml:space="preserve"><style>.st0,.st1,.st2,.st3,.st4{fill:red;stroke:#000;stroke-width:3.5411;stroke-linecap:round;stroke-linejoin:round}.st1,.st2,.st3,.st4{fill:#ffce00}.st2,.st3,.st4{fill:#683400}.st3,.st4{fill:#fff}.st4{fill:none}.st6{fill:#fff}.st7{fill:red}.st8{fill:#ffce00}.st9{fill:#ed6000}.st10{fill:#683400}.st12,.st14,.st15,.st16{stroke:#000;stroke-width:3.5411}.st12{fill:#3d2713;stroke-linecap:round;stroke-linejoin:round}.st14,.st15,.st16{fill:#fff}.st15,.st16{fill:red}.st16{fill:none;stroke-width:1.4164;stroke-linecap:round;stroke-linejoin:round}.st17,.st19{fill:#ed6000;stroke:#000;stroke-width:3.5411}.st19{fill:#ea5f00;stroke-linecap:round;stroke-linejoin:round}</style><path class="st0" d="M698.7 114.7C711.8 138.3 709 205 709 205l26.3-3.9s3.6-76.9-9.8-91.4l-26.8 5z"/><path class="st0" d="M735.2 112.1c4.7 19.5.1 88.9.1 88.9l14.6 8.3 9.9-7.2s4.4-86.5-.7-90.1c-5-3.4-21-.4-23.9.1z"/><path class="st0" d="M769.4 112.4c-4.9 14.1-11.8 88.6-11.8 88.6l13.4 10s6.3-1 9.9-7.2c-2.3-46.2 11.3-89.2 11.3-89.2s-19.9-2.7-22.8-2.2zM776.5 291s6.6 57.2 10.4 66.4c-2.3 2.2-17.7 3-20 1.8-4.3-9.8-7.4-69.7-7.4-69.7l17 1.5zM753.7 289.3s1.8 66.2 3.4 71.3c-4 .5-18.3 2.4-21.1 1.2-2.7-5.8 1.8-72.9 1.8-72.9l15.9.4zM728 293.2s1.6 52.5 1.2 66.7c-5.8 3.9-18.3 1.3-18.3 1.3l-3.7-59.4 20.8-8.6z"/><path class="st1" d="M707 146.9c3.3 27.2 2.1 58.1 2.1 58.1l26.3-3.9s1.4-29.8-.8-55.8l-27.6 1.6z"/><path class="st1" d="M737.3 144.7c0 26.2-2 56.4-2 56.4l14.6 8.3 9.9-7.2s1.5-30.3 1.7-55.8l-24.2-1.7z"/><path class="st1" d="M763.6 145.7c-3.3 25.5-6.1 55.3-6.1 55.3l13.4 10s6.3-1 9.9-7.2c-1-20.4 1.1-40.2 3.7-55.9l-20.9-2.2zM776.5 291s2.9 25.5 6 45.2c-1.5 1.6-19.2 2.9-19.2 2.9-2.4-20.9-3.9-49.7-3.9-49.7l17.1 1.6zM753.7 289.3s.8 29.1 1.8 50.2l-20.3 1.8c.5-21.7 2.5-52.4 2.5-52.4l16 .4zM728 293.2s.8 27.8 1.2 48.5c-2.3-.1-19.4.7-19.4.7l-2.5-40.5 20.7-8.7z"/><path class="st2" d="M785.5 250.1s9-40.8 7.9-43.1c-8.3-9.9-18.7-6.1-20.5.1-6.6-10.4-16.2-11.8-21-3.4-13.3-14-24.5 0-24.5 0s-7.7-13.3-19.3-1.6c-1.2 2.2-6.6 35.2-6.6 35.2l4.1 17.8 79.9-5z"/><path d="M716 223.9s-3.5-18.3 1-19.3 4.7 18.4 4.7 18.4l-5.7.9zM734.8 222.1s-2.4-17.2 5-17.6c7.4-.4 4.7 17.8 4.7 17.8l-9.7-.2zM756.5 222.1s1-16.5 6.1-15.8c5.1.7 4.1 17.2 4.1 17.2l-10.2-1.4zM776.4 223.1s.9-14.8 6.6-12.9c5.7 1.8.2 17.1.2 17.1l-6.8-4.2z"/><path class="st1" d="M785.5 250.1s2.6-12 4.9-23.3c-12.1-8.2-79.9-7-86.7-2.5-1.2 7-2.2 13-2.2 13l4.1 17.8 79.9-5z"/><path class="st3" d="M785.5 250.1s.8-3.5 1.8-8.5c-49.4-5.7-84.4 2.1-84.4 2.1l2.6 11.3 80-4.9z"/><path class="st4" d="M772.8 207.1c-.6 2.8-3 29-3.7 37M751.8 203.7c-.8 10.8-.4 39.9-.4 39.9M729.6 252.2c-2.5-16-2.2-48.5-2.2-48.5"/><path class="st1" d="M708 248.3s77.6-3.3 81-.3c3.4 2.9 2.5 14.9.2 17.1-2.3 2.2-81 4.3-81 4.3l-.2-21.1z"/><path class="st4" d="m720.8 261.1-4.3-12.6M728.2 260.7l-3.7-12M735.1 259.7l-4.3-10.9M743 260.5l-4.8-11.5M750.5 259.6l-3.2-11M757.9 259.2l-3.7-11.5M765.9 258.8l-3.2-11.5M774.4 259l-3.7-12.1M784.1 259.8l-4.3-12.6"/><path class="st0" d="M708 269.4s94.8-6.8 99.9-4.4c5.1 2.4.2 13.7.2 13.7s7.9 4.2 3.6 15.5c-2.9 2.8-48.9-4-65.5-3.3-16.5.7-39.4 4.2-39.4 4.2l1.2-25.7z"/><path class="st4" d="M704.3 281.2s25.1-2.2 42.8-1.2c17.7 1 61-1.4 61-1.4"/><path class="st0" d="M738.4 265.5c-1.8 2.2 0 22.8.5 26.2.5 3.4 13.6 2.6 14.8-.2 1.2-2.8 1.1-22.8-1.1-25.1-2.2-2.3-12.5-3.1-14.2-.9z"/><path class="st1" d="M100.9 250.1c-.4-8-11.7-34.5-11.6-37.3.1-2.8 20.1-6.9 20.1-6.9l7.9 48.6s-16 3.6-16.4-4.4z"/><path d="M97.7 216.9c4.9 9.2 10 33.3 10 33.3" style="fill:#ffb000;stroke:#000;stroke-width:3.5411;stroke-linecap:round;stroke-linejoin:round"/><path class="st1" d="M193.4 220.4s16.8-81.1 16.3-86.2c-.4-5.1-12.3-10.6-15.8-4.9-3.6 5.6-19.4 71.9-19.4 71.9s9-66.5 8-71.6c-.3-9.1-15.7-11.2-17-5-1.3 6.2-2.8 67.2-11.6 101.8 1.5-14.8 5.6-89.9 4.7-98.5-.9-8.6-8.8-12.2-17.4-9-3 6.2-2.5 103.1-2.5 103.1s-2.2-97-10.7-101.7c-3.9-2.9-16.5-.4-16.6 3.6-.1 4 14.4 87 14 105.8-3.5-20-18-103-24.8-106.1-3.4-1.8-10.8.3-12.6 4.2-1.8 4 24 116.3 26.1 122.6 2.1 6.3 10 34.5 10 34.5l53.6.2 16-24.7-.3-40z"/><path class="st4" d="M201.8 133.4c-6.1 17.5-17.8 76-17.8 76M171.7 127c1.6 53.6-10.5 125.7-10.5 125.7M147.8 125.2c2.8 25.2-3.5 96.8-3.5 96.8M121 124.6c11 40.2 9.5 100 9.5 100M94.1 130.8c17.2 44.9 26.7 121.5 26.7 121.5"/><path class="st6" d="M158.2 235.5c-.2 9.1-7.8 16.3-16.9 16.1-9.1-.2-16.3-7.8-16.1-16.9.2-9.1 7.8-16.3 16.9-16.1 9.1.2 16.4 7.8 16.1 16.9z"/><path class="st7" d="M158.2 235.5c-.2 9.1-7.8 16.3-16.9 16.1-9.1-.2-16.3-7.8-16.1-16.9 0 0 34.2-.9 33 .8z"/><path class="st4" d="M158.2 235.5c-.2 9.1-7.8 16.3-16.9 16.1-9.1-.2-16.3-7.8-16.1-16.9.2-9.1 7.8-16.3 16.9-16.1 9.1.2 16.4 7.8 16.1 16.9z"/><path class="st3" d="M148 235.3c-.1 3.5-3 6.2-6.4 6.1s-6.2-3-6.1-6.4 3-6.2 6.4-6.1c3.4 0 6.2 2.9 6.1 6.4z"/><path class="st0" d="M132.8 248.6c-.1 4.7-4 8.5-8.7 8.3-4.7-.1-8.5-4-8.3-8.7.1-4.7 4-8.5 8.7-8.3 4.7 0 8.5 4 8.3 8.7z"/><path class="st6" d="M108.8 248.9s11.4-1.2 13.6 2.6c2.2 3.9 3.2 26.7 3.2 26.7s-1.7-23.6-.1-27.4c1.6-3.8 13.8-3.5 16 .4 2.2 3.9 2.4 25.9 2.4 25.9s.5-22.8 1.4-26.6c.9-3.8 13-3.5 15.2-.4 2.2 3.1.8 30.4.8 30.4l-54.9 5.5-4.1-19.1 6.5-18z"/><path class="st7" d="m124.9 266.3 18.6-.7 18.2-.9-.4 15.9-54.9 5.5-4.1-19.1z"/><path class="st4" d="M108.8 248.9s11.4-1.2 13.6 2.6c2.2 3.9 3.2 26.7 3.2 26.7s-1.7-23.6-.1-27.4c1.6-3.8 13.8-3.5 16 .4 2.2 3.9 2.4 25.9 2.4 25.9s.5-22.8 1.4-26.6c.9-3.8 13-3.5 15.2-.4 2.2 3.1.8 30.4.8 30.4l-54.9 5.5-4.1-19.1 6.5-18z"/><path class="st3" d="M114.9 280.2s-.6-18.3-.2-22.1c.3-3.7 3.4-2.8 3.8-.7.4 2.1 1 22.8 1 22.8h-4.6zM132 279.5s-.6-18.3-.2-22.1c.3-3.7 3.4-2.8 3.8-.7s1 22.8 1 22.8H132zM151.4 279.4s-.6-18.3-.2-22.1c.3-3.7 3.4-2.8 3.8-.7.4 2.1 1 22.8 1 22.8h-4.6z"/><path class="st3" d="M164.4 276.9s-44.2 3.5-51.7.3-.9-25.9-3.9-28.2c-3-2.3-15.1-2.7-16 .4-.8 3 2 13.7 2 13.7s-10.6-2.5-15.4 8c-4.8 10.5-.4 20.7 4 22.1 7.5 2.5 15.3-5.7 15.3-5.7s-1.1 13.6 4.9 16.1c6 2.4 51.7 1.2 51.7 1.2l15.3-4.2-6.2-23.7z"/><path class="st8" d="m98.8 287.4-1.3-8.4s1.8-11.3 8.5-3.2c6.6 8.2-1.6 14.4-7.2 11.6zM150.4 291.7c-.1 5.7-4.8 10.1-10.5 10-5.7-.1-10.1-4.8-10-10.5.1-5.7 4.8-10.1 10.5-10 5.7.2 10.2 4.9 10 10.5z"/><path class="st7" d="M145.6 286.5c-.1 1.9-1.6 3.4-3.5 3.3-1.9-.1-3.4-1.6-3.3-3.5.1-1.9 1.6-3.4 3.5-3.3 1.9 0 3.3 1.6 3.3 3.5zM107.5 281c-.1 1.9-1.6 3.4-3.5 3.3-1.9-.1-3.4-1.6-3.3-3.5.1-1.9 1.6-3.4 3.5-3.3 1.9.1 3.4 1.6 3.3 3.5zM138.6 292c-.1 1.9-1.6 3.4-3.5 3.3-1.9-.1-3.4-1.6-3.3-3.5.1-1.9 1.6-3.4 3.5-3.3 1.9.1 3.4 1.6 3.3 3.5zM145.9 296.2c-.1 1.9-1.6 3.4-3.5 3.3-1.9-.1-3.4-1.6-3.3-3.5.1-1.9 1.6-3.4 3.5-3.3 1.9 0 3.4 1.6 3.3 3.5z"/><path class="st4" d="m98.8 287.4-1.3-8.4s-9.9 1.3-10 4.3"/><path class="st9" d="M275.6 485.5s15.2-15.6 34.3-5.3c19.1 10.3 23.1 20.3 23.1 20.3l-10.6 30.2-39.7-23.7-7.1-21.5z"/><path class="st10" d="m282.7 507-4.6-13.8s30.4-13.6 31.8-12.9c3.2 1.7 5.9 3.4 8.3 5.1L282.7 507zM324.7 490.4c6.6 5.9 8.3 10.2 8.3 10.2l-26.6 20.6-14-8.4 32.3-22.4z"/><path class="st4" d="m294.7 483.3 6.7 8.8M300.5 482.4l7.2 8.1M306.2 481.9l6.6 7M307.4 500.2l5.5 11M313.7 500.3l5.5 8.7M318.9 497l6 11.6M275.6 485.5s15.2-15.6 34.3-5.3c19.1 10.3 23.1 20.3 23.1 20.3l-10.6 30.2-39.7-23.7-7.1-21.5z"/><path class="st9" d="M634.7 479.3s-11.3-18.6-32.2-12.9c-21 5.7-27.1 14.6-27.1 14.6l3.5 31.8 44.1-14.1 11.7-19.4z"/><path class="st10" d="m622.9 498.6 7.6-12.4S604 466 602.4 466.5c-3.5.9-6.5 2-9.2 3l29.7 29.1zM585.8 473c-7.8 4.2-10.4 8-10.4 8l21.3 26.1 15.5-5-26.4-29.1z"/><path class="st4" d="m616.6 472.9-8.4 7M611.2 470.6l-8.8 6.3M605.8 468.9l-8.1 5.3M600.4 486.4l-7.8 9.5M594.3 485.2l-7.4 7.2M589.9 480.8l-8.4 9.9M634.7 479.3s-11.3-18.6-32.2-12.9c-21 5.7-27.1 14.6-27.1 14.6l3.5 31.8 44.1-14.1 11.7-19.4z"/><path d="m505.2 137.7 16.5-23.5s-14.2-1.5-12.3-11.7 16.1-7 16.1-7l-12.3-31.6 18.3-4.1 9.3 38.4 21.8-30.3 17.9 13-19.3 22.3s14.9-3.6 14.6 7.8c-.3 11.4-16.8 9.9-16.8 9.9l4.6 24.1-24.6 4.5-.3-35.9-17.4 35.5-16.1-11.4z" style="fill:#126600;stroke:#000;stroke-width:3.5411;stroke-linecap:round;stroke-linejoin:round"/><path class="st0" d="m540.9 98.1 21.8-30.3 17.9 13-19.3 22.3s14.9-3.6 14.6 7.8c-.3 11.4-16.8 9.9-16.8 9.9l4.6 24.1-24.6 4.5-.3-35.9 2.1-15.4z"/><path class="st1" d="M549.5 106.8c-.1 4.4-3.8 7.9-8.2 7.8-4.4-.1-7.9-3.8-7.8-8.2.1-4.4 3.8-7.9 8.2-7.8 4.4.1 7.9 3.8 7.8 8.2z"/><path class="st2" d="M341.7 120.2c6.2 2.4 26.2-.5 26.9-6.2.7-5.7-5.4-10.4-5.4-10.4l-24.1 4.6c.1 0-3.6 9.6 2.6 12z"/><path class="st2" d="M342.4 115.7s23-6.3 22.6-13.7c-.4-7.4-7.7-11.6-7.7-11.6l-20.3 16 5.4 9.3zM321.6 79.9s.8-9.7 8.8-9.5c8 .2 14.5 12.3 14.5 12.3L332.7 91l-11.1-11.1z"/><path class="st2" d="M317.5 83.8s.8-9.7 8.8-9.5c8 .2 11 16.8 11 16.8l-8.6 3.8-11.2-11.1z"/><path class="st2" d="M341.4 110s19.1-13.2 18.7-20.1c-.4-6.8-11.6-14-11.6-14l-15.8 15-10.7 18.5 19.4.6z"/><path class="st0" d="M303.7 90.8s15.1 10.6 25 4c9.8-6.6 10.8-22 10.8-22s8.1-6.1 9.1.8c3.5 18.9-13.3 29.3-24.2 34.2-10.9 4.9-18.3 4.1-18.3 4.1l-6.7-6.4 4.3-14.7z"/><path class="st8" d="M285.3 120.6c-3.5 5.1-4.8 9 4.3 10.9 9.1 1.9 21.8-4.6 31.5-6.1s18.8-.7 22.9-4.6c3-2.9 2-11.4-1.4-12.6-3.4-1.2-10.8-.8-18.2-.4-7.4.4-20.1 5.8-20.2-14.7.1-3.4 5.3-6.7 5.4-10.7.1-4-3.2-9.8-14.1-6-1.8 2.2-1.9 9.1 3.2 9.2-4-.7-7.8-5.9-14.1-5.5-6.3.4-17.8 5.3-20.2 8.6-3.5 3.3-3.2 12.5.7 16.5 3.9 4.1 10.7 6 14.8.4-2.8-1.2-6.7-3.6-6.7-5.9.1-2.3 3.5-4.5 7.5-3.8s9.6 4.8 11.2 10c1.6 5.2 8.3 9.9 12.8 12.8-6.9 3.3-16.6 5.4-19.4 1.9z"/><path class="st6" d="M285.3 120.6c-3.5 5.1-4.8 9 4.3 10.9 9.1 1.9 21.8-4.6 31.5-6.1s18.8-.7 22.9-4.6c3-2.9 2-11.4-1.4-12.6-3.4-1.2-10.8-.8-18.2-.4-7.4.4-20.1 5.8-20.2-14.7.1-3.4 5.3-6.7 5.4-10.7.1-4-3.2-9.8-14.1-6-1.8 2.2-1.9 9.1 3.2 9.2-4-.7-7.8-5.9-14.1-5.5-4.4.3-11.4 2.8-16 5.4 0 0 5.5 6.9 8.9 10.6 1-.2 2.2-.3 3.4-.1 4 .7 9.6 4.8 11.2 10 1.6 5.2 8.3 9.9 12.8 12.8-7.1 3.2-16.8 5.3-19.6 1.8z"/><path class="st4" d="M333.9 114.4c-3.6 5.6-24.6 5.7-29.2 4.4"/><path class="st4" d="M285.3 120.6c-3.5 5.1-4.8 9 4.3 10.9 9.1 1.9 21.8-4.6 31.5-6.1s18.8-.7 22.9-4.6c3-2.9 2-11.4-1.4-12.6-3.4-1.2-10.8-.8-18.2-.4-7.4.4-20.1 5.8-20.2-14.7.1-3.4 5.3-6.7 5.4-10.7.1-4-3.2-9.8-14.1-6-1.8 2.2-1.9 9.1 3.2 9.2-4-.7-7.8-5.9-14.1-5.5-6.3.4-17.8 5.3-20.2 8.6-3.5 3.3-3.2 12.5.7 16.5 3.9 4.1 10.7 6 14.8.4-2.8-1.2-6.7-3.6-6.7-5.9.1-2.3 3.5-4.5 7.5-3.8s9.6 4.8 11.2 10c1.6 5.2 8.3 9.9 12.8 12.8-6.9 3.3-16.6 5.4-19.4 1.9z"/><path class="st7" d="M329.5 91.7c-.2 6.5-5.5 11.6-12 11.4-6.5-.2-11.6-5.5-11.4-12 .2-6.5 5.5-11.6 12-11.4 6.5.2 11.6 5.6 11.4 12z"/><path class="st6" d="M324.6 81.9 311.2 101c-3.1-2.2-5.1-5.8-5-9.9.2-6.5 5.5-11.6 12-11.4 2.3.1 4.6.9 6.4 2.2z"/><path class="st3" d="M321.9 92.1c-.1 2.4-2 4.2-4.4 4.2-2.4-.1-4.2-2-4.2-4.4.1-2.4 2-4.2 4.4-4.2 2.4.1 4.3 2.1 4.2 4.4z"/><path class="st4" d="M329.5 91.7c-.2 6.5-5.5 11.6-12 11.4-6.5-.2-11.6-5.5-11.4-12 .2-6.5 5.5-11.6 12-11.4 6.5.2 11.6 5.6 11.4 12z"/><path class="st6" d="M380.2 125.9c-.2 6.6-5.7 11.8-12.3 11.7-6.6-.2-11.8-5.7-11.7-12.3.2-6.6 5.7-11.8 12.3-11.7 6.6.2 11.8 5.7 11.7 12.3z"/><path class="st7" d="M367.9 137.6c-6.6-.2-11.8-5.7-11.7-12.3.2-6.6 5.7-11.8 12.3-11.7.2.5-.6 24-.6 24z"/><path class="st3" d="M373.7 125.7c-.1 2.7-2.3 4.8-5 4.7-2.7-.1-4.8-2.3-4.7-5 .1-2.7 2.3-4.8 5-4.7 2.7.1 4.8 2.3 4.7 5z"/><path class="st4" d="M380.2 125.9c-.2 6.6-5.7 11.8-12.3 11.7-6.6-.2-11.8-5.7-11.7-12.3.2-6.6 5.7-11.8 12.3-11.7 6.6.2 11.8 5.7 11.7 12.3z"/><path class="st2" d="M341 162.7c2.6 12 7.6 15.6 18 10.7s18.6 7.9 18.6 7.9l2-12.5s-15.4-13.2-23.5-7.2c-5.2 2.8-10 3-15.1 1.1z"/><path class="st12" d="M341 162.7c2.6 12 7.6 15.6 18 10.7s18.6 7.9 18.6 7.9l1.2-7.2s-10.2-9.3-19.4-6.7c-6.9 1-13.7 1.4-18.4-4.7z"/><path class="st2" d="M370.8 155.5s-1.6-16.3 2.5-23.6c4.2-7.3 8.7-17.1 8.7-17.1s6 10.4 3.4 26.3c-2.7 15.9 7.2 30.4 7.2 30.4l-7 5.5-14.8-21.5z"/><path class="st12" d="M378.4 160.5s-4.2-14.9 0-22.2 3.7-23.5 3.7-23.5 6 10.4 3.4 26.3c-2.7 15.9 7.2 30.4 7.2 30.4l-7 5.5-7.3-16.5z"/><path class="st12" d="M377.6 181.3s-14.8-26-22.1-27.9c-7.4-1.9-17.8 3.6-39.3-1.5-21.5-5.1-21.1-22.7-21.1-22.7s8.4 7 20.3 7.3c12 .3 37.3-8.8 52.3 4.1 15.1 12.9 20.2 37 20.2 37l-10.3 3.7z"/><path class="st2" d="M377.6 181.3s-14.8-26-22.1-27.9c-7.4-1.9-17.8 3.6-39.3-1.5-21.5-5.1-21.1-22.7-21.1-22.7s9.6 15.9 21.5 16.1c12 .3 36.6-3.1 46.6 4 16.2 11.4 24.7 28.3 24.7 28.3l-10.3 3.7z"/><path class="st12" d="M526.8 188.3s7.9-9.3 17.6-9c9.7.2 21.7 11.7 29.5-3.5-13.6-2.6-20.2-11.9-31.6-11.6-11.4.3-27.7 15.9-27.7 15.9l12.2 8.2z"/><path class="st2" d="M521.5 182.7s13.4-11.1 23.1-10.8c9.7.2 19.1 10.7 29.3 3.9-13.6-2.6-20.2-11.9-31.6-11.6-11.4.3-27.7 15.9-27.7 15.9l6.9 2.6z"/><path class="st2" d="M505.5 172.4s5.3-7.3 6.6-36.3c10.1 6.5 10.6 10.5 10.3 21.3-.3 10.8-5.1 21-5.1 21l-11.8-6z"/><path class="st12" d="M511.9 177.4c2.5-10.8 5.6-18.7.2-41.3 10.1 6.5 10.6 10.5 10.3 21.3-.3 10.8-5.1 21-5.1 21l-5.4-1z"/><path class="st12" d="M508.8 179.4s9.7-24.8 21.8-30.3c12.1-5.4 15.4 1.5 28-4.5 12.7-6 15.2-15.6 18.8-24.1 11 14.5-7.2 38-15.8 41.8s-15.4.2-24 3.4c-8.6 3.2-18.1 18.9-18.1 18.9l-10.7-5.2z"/><path class="st2" d="M513.5 182s9-18 21.1-23.4c12.1-5.4 14.8-1.4 27.5-7.3 12.7-6 15.9-21.3 15.3-30.6 11 14.5-7.2 38-15.8 41.8-8.6 3.8-15.4.2-24 3.4-8.6 3.2-18.1 18.9-18.1 18.9l-6-2.8z"/><path class="st6" d="M577.5 416.1c2.3-1.5 74.8 57.1 97.4 60.1 27.3 3.7 38.4-14.3 40.3-30.9 1.9-16.7-4.3-73.1-4.5-98.2-.2-25.1 1.8-107.1-.3-114.8-2.1-7.7-28.7-6.8-34.9-2.4-3.4 12.8 2.6 81.4 6.2 87.6-12.8 59-7.8 100.1-11.5 98.5-3.8-1.6-19.6-36.2-42.2-48.1-22.5-12-47.6-13.3-47.6-13.3l-20.8-21.8-212.9 4.7-30.1 19.8s-10.7 2-31.6 16c-20.9 13.9-32 34.2-38.3 43.1-6-3.9-38.1-89.8-40.1-100.5-2-10.7 3.4-78.2-.3-80.6-9.7-8.6-41.8-1-41.8-1l-9.3 70.5 20.6 27.9s8.9 39.7 18.1 68.8c9.2 29.1 15.3 60.4 21.9 69.7 12.6 15.5 36.2 10.8 56.2 1.4s48.5-56.6 54.5-53.4c4.1 2.4-5.5 72.1 1.6 105.7 7.2 33.6 92.5 56.2 92.5 56.2l105.4-15s31.8-25.8 51.3-48.2c11.2-22.5 2.9-88.1.2-101.8z"/><path class="st9" d="M571.4 405.1c14.4-7.1 73.9 56.5 102.9 59.5 21.6 1.7 28.9-9.4 30.8-26 1.9-16.7-1.9-78.1-2.1-103.2-.2-25.1 1.4-107.9-4.8-108.5-8.6-.8-19.1.5-22.7 3.1-2.2 8.3-.4 40 2 63 .5 4.6 1 8.8 1.5 12.5.9 6.3 1.8 10.8 2.7 12.1-.7 3.3-1.4 6.5-2 9.7-.5 2.6-1 5.1-1.4 7.6-1.3 7.4-2.3 14.4-3.1 21-.3 2.1-.5 4.2-.7 6.2-.8 7.3-1.3 14-1.6 19.9-.3 5.3-.5 10.1-.7 14.2-.5 13.3-.5 20.6-2.1 19.9-1.2-.5-3.8-4.7-7.6-10.5-2.2-3.4-4.8-7.3-7.7-11.4-3-4.1-6.3-8.4-9.9-12.4-3.4-3.7-7.1-7.2-11.1-10.1-1.9-1.4-3.9-2.6-5.9-3.7-3.3-1.8-6.7-3.3-10-4.6-5.7-2.3-11.2-3.9-16.3-5.2-12.2-3-21.3-3.5-21.3-3.5l-20.8-21.8-212.9 4.7-30.1 19.8s-3.9.7-11.6 4.4c-5 2.4-11.7 6-19.9 11.6-20.9 13.9-32 34.2-38.3 43.1-6-3.9-38.1-89.8-40.1-100.5-2-10.7 3.4-78.2-.3-80.6-5.1-4.5-16.5-4.8-26-3.6-2.2.3-9.1 75.9-9.1 75.9l9.2 19.6s14.2 42.1 23.4 71.2 14.6 56.8 21.2 66.1c11.7 12.3 23.4 7.6 43.4-1.8 14.4-7.1 39.2-60.6 62.6-53.2 23.4 7.4 9.8 92.4 17 126 7.2 33.6 72.7 45.4 72.7 45.4L526 566.1s19.5-19.6 39-42c11.3-22.5-13.2-109.8 6.4-119z"/><path class="st6" d="M301.2 228.5c-44.7-37-48.3-77.5-44.2-80.9 4.1-3.3 41.5 6.1 59.8 24.2 18.4 18.1 21.9 37.6 21.9 37.6s10.6-15.7 44.7-33.1c11.6-10 35.6-35 53.3-35.2 8 .8 9 6.5 9 6.5s11-6 17.2-5.3c6.2.7 3.2 9.2 51.6 34.3 28.7 14.4 41.7 21.5 45.8 40.4 4.7-5 7.4-22.6 24.9-41.6 17.6-19 38.8-25.9 55.7-17.5-6.8 46.6-32.3 60.8-32.3 60.8l-39.7 60-249-2.1c.1.2 26-11.1-18.7-48.1z"/><path class="st9" d="M306.8 220.3c-44.7-37-46-73.6-42.1-73 12.9 1.9 38.1 10.7 52.2 24.5 18.4 18.1 21.9 37.6 21.9 37.6s10.6-15.7 44.7-33.1c11.6-10 35.6-35 53.3-35.2 8 .8 9 6.5 9 6.5s11-6 17.2-5.3 3.2 9.2 51.6 34.3c28.7 14.4 41.7 21.5 45.8 40.4 4.7-5 7.4-22.6 24.9-41.6 17.6-19 38.8-25.9 55.7-17.5-5.9 20.1-38.6 52.3-38.6 52.3l-33.3 68.5-249-2.1c-.1.2 31.4-19.3-13.3-56.3z"/><path class="st10" d="M270.8 177c-3.7-7.3-5.7-13.7-6.7-18.6l12.3-8.4c4.5 1.3 9.3 3 14.2 5.2L270.8 177zM288.8 203c-4.5-5.1-8.3-10-11.4-14.7l29.9-24.1c3.5 2.4 6.8 4.9 9.6 7.7L288.8 203zM306.8 220.3c-4.3-3.5-8.2-7.1-11.7-10.6l32.9-24.4c3.6 5.4 6.1 10.5 7.7 14.6l-28.9 20.4zM610.7 157.4c5.7-2.2 11.4-3.2 16.9-2.9.5 1.7 7.7 13.3 9.1 13.2-1.8 3.3-4 6.7-6.4 10.1l-19.6-20.4zM585.2 175.5c4.9-5.3 10.1-9.7 15.4-13l23.8 23.1c-3.4 4.3-7 8.5-10.2 12.1l-29-22.2zM570.4 196.6c2.3-4.4 5.2-9.2 9-14.2l29.9 20.7c-4.2 4.5-7 7.3-7 7.3l-31.9-13.8zM560.3 217.1c2-2.2 3.7-6.7 6.3-12.6l32.5 12.5s1.8 4.7-3.4 7.1c-11.5 5.2-35.4-7-35.4-7zM489.6 227.6c3.6.7 8.7.2 14.2-.1 0 0 4.2-7.4 14.2-20.3s18.1-19.2 18.1-19.2c-4.1-2.4-8.9-4.9-14.2-7.7 0 0-9.8 13-17.4 22.5-7.7 9.6-14.9 24.8-14.9 24.8zM474.4 208.5c1.6 4.8 4 9.8 7.4 13.6 0 0 7.7-12.3 11.9-23.6 4.3-11.3 20.8-22 20.8-22-4.8-2.5-9.1-4.8-12.9-7 0 0-8.6 10.1-16.2 20.2-7.7 10.2-11 18.8-11 18.8zM458.1 190c5.7.6 10.3 1.5 11.3 2.3 0 0 4.2-6.7 7.7-12.3 3.6-5.6 8.9-19.8 8.9-19.8-5.6-3.7-9.5-6.7-12.3-9.2 0 0-3.7 18.6-7.8 23.6s-7.8 15.4-7.8 15.4zM432.4 190.8c-1.1.9-2.2 3.9-3.5 7.7 0 0-11.3-8.6-18.5-18.5-7.2-9.9-9.8-19.1-9.8-19.1 4.5-3.9 9.3-7.7 14.1-11 0 0 5.2 13.2 9 21.8 3.8 8.8 8.7 19.1 8.7 19.1zM426.7 205.5c-1.7 5.1-3.7 10.6-6.3 14.8 0 0-13.6-8.4-21.3-21.1-7.7-12.7-15.6-22.9-15.6-22.9 2.9-2.5 6.6-6 10.8-9.7 0 0 8.1 17.3 14.8 22.6 6.6 5.2 17.6 16.3 17.6 16.3zM403 228.5c-4.3.4-9.3.8-14.4 1.1 0 0-7.7-8.7-15.5-15.7s-15.9-21.6-15.9-21.6c4.5-3.3 10.1-7 16.7-10.8 0 0 7 14.9 13.7 23.1 6.6 8.1 15.4 23.9 15.4 23.9zM519.8 228c4.6 1.1 8 3.4 8.7 8.3l15.4-14.8 14.4-11c-1.8-4.6-4.4-8.4-7.9-11.9l-16 16.4-14.6 13zM343.8 203.7c-3.6 3.6-5.1 5.8-5.1 5.8l-4.6 11s6.4 6 14.5 7 13.6 6.6 13.6 6.6c4.1-1.8 10.7-2.8 17.8-3.5 0 0-6.6-9.1-16.2-13.9-9.5-4.9-19.1-13.9-20-13zM430.5 174.9s.5 4 3.9 5.2 19.9 2.2 22.2.5c2.3-1.7 2.4-5.6 2.4-5.6l-28.5-.1zM336.7 234.1 361 241l-.8 12.5-24.9-7.4zM528.6 241.1s31.2-16.9 34.6-15.7c3.4 1.2 10.6 8.2 10 11.1-.6 2.8-44.3 16-44.3 16l-.3-11.4zM305.1 361.7c-5 2.4-11.7 6-19.9 11.6l31 38.7c4.9-2.9 9.9-4 14.9-2.4l-26-47.9zM467 144.6c-1.4-1.4-2.4-2.1-4.1-2.3-6.2-.7-17.2 5.3-17.2 5.3s-1-5.7-9-6.5c-4.7 0-9.9 1.9-15.2 4.7 0 0 .8 10.6 4.7 16.9 3.8 6.4 28.3 7.5 34.7 2.6 6.4-5 6.1-20.7 6.1-20.7z"/><path class="st6" d="M358 239c-1.2-10.6 43.8-8.4 55.3-12.1 11.5-3.7 15.1-32.7 19.1-36 4.1-3.3 34.2-.9 37 1.5 2.8 2.3 3.9 29.2 20.2 35.3 10.8 2 36.7-5.9 38.9 8.7-5 4.7-78.8 14.3-78.8 14.3s-91.6-5.1-91.7-11.7z"/><path class="st10" d="M580.6 354.6s9.1.5 21.3 3.5c0 0-23.7 27.3-30 29.9s-4.1-2.4-9.7.9-29.8 5.5-29.8 5.5l11.7-11.7s15.4-.2 23.5-6.3c8-5.9 13-21.8 13-21.8zM663.4 406.6c3.4 5.2 5.7 8.9 6.9 9.4 1.6.7 1.6-6.6 2.1-19.9l32.8 4.8c.2 8.1.4 15.8.4 22.2 0 0-25.7-4.6-28-2.4-2.3 2.2 21 26.2 20.4 29-.6 2.8-14.5 9.9-22.5 10.3-8 .4-24.3-7.4-24.8-11.4s18.2-22.9 18.2-22.9l-32.1 19.8c-4.4-3.2-8.9-6.5-13.4-9.8l40-29.1zM672.9 383.6c.3-6.1.9-13 1.6-20.5L704 369c.2 6 .5 12.2.7 18.3l-31.8-3.7zM675.2 356.9c.8-6.9 1.8-14.3 3.2-22.1l24.6.6c0 6.1.3 14.2.6 23.4l-28.4-1.9zM679.8 327.2c.6-3.2 1.3-6.4 2-9.7-.7-1.1-1.4-4.1-2.1-8.4l23.4-.5c0 6.3 0 12.1-.1 17.1l-23.2 1.5zM677.6 292.9c-.7-6.5-1.4-13.7-1.8-20.9l27.1-2.7c.1 5.8.2 11.7.2 17.7l-25.5 5.9zM702.5 255.5c-.3-8.2-.8-15.3-1.5-20.4l-26.3 2c-.3 5.4-.2 12.9.2 21l27.6-2.6zM601.6 419.3c4 2.9 8.2 6 12.4 9.3l41.8-33.4c-3.2-4.5-6.8-9.2-10.7-13.5l-43.5 37.6zM578.3 405.4c3.9 1.3 8.8 4 14.3 7.7l41.4-41.5c-1.9-1.4-3.9-2.6-5.9-3.7-3.8-2-7.7-3.7-11.5-5.2 0 0-27 19-32.2 25.1-5.3 6.1-6.1 17.6-6.1 17.6zM565.1 524.1c2-4 2.8-9.9 3-17l-33.6 9.5-32.6 3.8-80.3-2.5-36.1 6.5-39.1-.9c.4 4.5.9 8.6 1.6 12.2.7 3.4 2.1 6.6 3.9 9.6 0 0 68.6-8 91.9-5.8 23.3 2.3 63.8.4 83.3-4.8 19.6-5.3 38-10.6 38-10.6zM526 566.1 420.8 581s-43.5-21-56.1-22.4l12.7-7.1s47.9.6 82.1-2c34.3-2.6 80-9.5 80-9.5L526 566.1zM346 516c-.3-6.6-.3-13.7-.3-21.1 0 0 23.3 5.1 41.6 3.9 18.3-1.3 46.9-8.5 46.9-8.5l64.4-.2s27.4-2.2 38.9-4.2 29.2-8.3 29.2-8.3c.6 7 1.1 13.7 1.3 19.9 0 0-18.9 2.3-37.8 4.2-18.9 1.8-36 5.4-36 5.4l-86.8 5.9s-20 1.8-33.7 2.6c-13.6.7-27.7.4-27.7.4zM345.7 486.9c0-6.8.1-13.7 0-20.5 0 0 17.3.4 40.6 1 23.4.6 78.7-2.1 78.7-2.1s49.7-4.5 67.4-7.5c17.7-3 32-4.9 32-4.9.4 5.1.9 10.3 1.4 15.5 0 0-17.7 2.3-35.5 4.8-17.7 2.4-36.6 5.4-36.6 5.4l-61.1 4.2s-25.2 2.8-49.1 3.9c-23.9 1.1-37.8.2-37.8.2zM345.6 461.2c-.1-5.1-.3-10.1-.6-14.8 0 0 27-1.6 44.2-3.5 17.1-1.9 43.4-3.5 59.9-3.1 16.5.4 24.5-1.1 41.1-3s73.5-13 73.5-13c-.4 5.5-.3 11.9.1 18.8 0 0-23 0-44.7 4.1-21.8 4-52.1 9-52.1 9l-31.9-1.3s-21-1.6-47.3 1.7c-26.4 3.2-42.2 5.1-42.2 5.1zM344.1 436.8c-.6-4.5-1.3-8.6-2.3-12.2l73.7-9-.3 12-71.1 9.2zM363.6 394.4l27.9-20.4-9.5-7.6s-23.7 16-31.3 20.9c7.9 1.8 12.9 7.1 12.9 7.1zM369.8 395.1l25.6-19.3 6.2 4.1-22.2 20zM387.3 402.9l23.3-18.8 8.5 1.9-23.9 22.3z"/><path class="st10" d="m413.2 417.8-10.7-5.9 26.8-24.5 6.7 4.8-6.4 29.4zM481.1 391l37.3 12.3-8.8 11.2-32.3-7.7zM488.6 386.9l36.2 11.4 9.9-10-35.7-11-14.8 2.3zM512.3 372.3l29.4 10.5 5.9-9.6-26.5-10.3zM353.4 415.2l28.2-12.4-11.8-7.7-19.6 9.2z"/><path class="st10" d="M565.7 412.7s-53.5 12.1-64.8 10.1c4.7-6.2 18.1-17.2 18.1-17.2l45.2-6.9c-.1 0 2.7 10.3 1.5 14z"/><path class="st4" d="M301.2 228.5c-44.7-37-48.3-77.5-44.2-80.9 4.1-3.3 41.5 6.1 59.8 24.2 18.4 18.1 21.9 37.6 21.9 37.6s10.6-15.7 44.7-33.1c11.6-10 35.6-35 53.3-35.2 8 .8 9 6.5 9 6.5s11-6 17.2-5.3c6.2.7 3.2 9.2 51.6 34.3 28.7 14.4 41.7 21.5 45.8 40.4 4.7-5 7.4-22.6 24.9-41.6 17.6-19 38.8-25.9 55.7-17.5-6.8 46.6-32.3 60.8-32.3 60.8l-39.7 60-249-2.1c.1.2 26-11.1-18.7-48.1zM351.1 390.1c17 2.7 62 27.7 62 27.7s64.7 12.4 87.2 1 49-47.3 49-47.3"/><path class="st6" d="M273.1 621.9s-3.9 66 53.4 76.5 79.8 1.9 79.8 1.9l34.5-11.7.5-19.9-129.6-39.6-38.6-7.2z"/><path class="st4" d="M273.1 621.9s-3.9 66 53.4 76.5 79.8 1.9 79.8 1.9l34.5-11.7.5-19.9-129.6-39.6-38.6-7.2z"/><path class="st9" d="M280.6 621.5s-4.5 42.6 36.1 63c40.5 20.4 103.6 5.9 107.3-5.9 3.7-11.9-103.2-70.9-103.2-70.9l-40.2 13.8z"/><path class="st10" d="M307.2 627.3c-8.7 7.3-25.6 12.1-23.8 18.1 1.4 4.7 3.4 9.7 6.4 14.6l24.4-15.4s3.6-26.1-7-17.3zM391.2 692.6c6.1-1 11.6-2.4 16.4-3.9l8.6-22.3-15.9-1.5-9.1 27.7zM361.4 694.7c6.2.2 12.3 0 18.2-.5l15-27.7-15.8-4.9-17.4 33.1zM325.9 688.5c6.1 2.2 12.5 3.7 19 4.7l22.9-29.6-20.3-9-21.6 33.9zM299 671.9c4 4 8.9 7.8 14.8 11.1.9.5 25.4-29.8 25.4-29.8l-18.6-9-21.6 27.7z"/><path class="st4" d="m285.6 646.7 9.5 8.8M290.3 643.4l11.2 8.3M295.5 639l11.8 8.8M304 666l12.3 10M309.2 662.1l12.4 7.7M314.5 654.8l13.5 9.5M330.3 683.7l12.4 6M335.6 677.6l13 6.6M339.2 673.1l14.6 6.1M343.3 666.9l14.6 7.2M364.4 689.7l13.6 2M368.5 684.6l13.6 2.1M373.2 677.9l14.2 2.6M394.1 688.7l11.4-2.6M397.1 683.1l9.7-2.1M278 631.1l-2.3 4M278.9 643.7l-3 3.9M281 651.2l-1.8 3.4M284.8 657.5l-2.4 5.1M288.6 664.5l-1.9 6.8M292.5 670.8l-1.9 6.8M298 677.2l-.7 6.9M304.8 680.8l-.8 7.4M310.9 686.7l-.7 5.6M316 688.5l.4 6.3M322.2 690.9l-.2 6.3M327.3 693.3l1 4M333.5 695.2l1.6 4M340.3 695.4l2.8 4M349.4 697.3l1.6 4M356.2 697.5l2.2 4.6M364.2 698.2l2.7 5.2M371 698.4l2.2 4.6M377.3 698.5l1.6 4.1M383.6 698.1l1.6 4.6M389.3 697.7l1.6 4M394.5 695l2.7 5.1M400.2 693.4l2.7 5.8M407.1 692.4l2.8 3.5M415.7 687.5l2.2 4"/><path class="st6" d="M625.2 620.1s.4 78.1-57.4 87.4c-57.8 9.4-79.8-1.9-79.8-1.9L454.2 690l.6-23.5 131.5-39.9 38.9-6.5z"/><path class="st4" d="M625.2 620.1s.4 78.1-57.4 87.4c-57.8 9.4-79.8-1.9-79.8-1.9L454.2 690l.6-23.5 131.5-39.9 38.9-6.5z"/><path class="st9" d="M617.8 619.2s2.2 50.5-39.4 72.4c-41.6 21.9-103.8 1.5-106.9-12.7-3.1-14.2 106.8-78.2 106.8-78.2l39.5 18.5z"/><path class="st10" d="M590.9 624.6c8.3 9.1 24.9 15.6 22.8 22.6-1.6 5.4-3.9 11.2-7.1 16.9L583 644.6s-2.2-30.9 7.9-20zM503.5 697.2c-6-1.5-11.5-3.4-16.2-5.5l-7.4-26.7 16-1 7.6 33.2zM533.2 701.2c-6.2-.1-12.3-.7-18.1-1.6l-13.5-33.4 16.1-5 15.5 40zM569 695.8c-6.2 2.2-12.7 3.7-19.2 4.5l-21.4-36.2 20.8-9.6 19.8 41.3zM596.8 677.6c-4.2 4.5-9.3 8.7-15.3 12.3-1 .6-23.7-36.5-23.7-36.5l19-9.6 20 33.8z"/><path class="st4" d="m611.4 648.7-9.9 9.8M607 644.5l-11.7 9.2M602 639l-12.3 9.8M592.1 670.4l-12.8 11.2M587.1 665.6l-12.8 8.4M582.1 656.7l-13.9 10.5M564.8 689.9l-12.7 6.5M559.9 682.4l-13.3 7.1M556.6 677l-15 6.3M552.8 669.5l-15 7.7M530.5 695.2l-13.7 1.7M526.7 689l-13.8 1.7M522.3 680.8l-14.3 2.4M500.9 692.4l-11.3-3.6M498.2 685.6l-9.6-2.9M619.8 630.7l2.2 4.8M618.3 645.5l2.8 4.8M615.8 654.2l1.7 4.1M611.7 661.5l2.1 6.1M607.5 669.4l1.5 8.2M603.3 676.7l1.5 8.2M597.5 684l.3 8.1M590.5 687.9l.4 8.7M584.1 694.4l.4 6.8M578.9 696.3l-.7 7.4M572.6 698.9l-.2 7.4M567.4 701.5l-1.3 4.6M561.1 703.3l-1.8 4.7M554.2 703.1l-2.9 4.7M545.1 704.9l-1.9 4.7M538.2 704.8l-2.4 5.3M530.2 705.3l-2.9 5.9M523.4 705.1l-2.4 5.3M517.1 704.9l-1.8 4.7M510.9 704.1l-1.9 5.4M505.2 703.3l-1.8 4.7M500.2 699.8l-3 6M494.5 697.7l-3 6.6M487.7 696.2l-2.9 3.9M479.3 689.9l-2.4 4.7"/><path class="st2" d="M552.2 748.4c-23.4 2.9-35.2-4.8-38.1-2.6-2.9 2.2-1.6 18.2 26.9 18.9 5.2-2.8 7.1-11.3 11.2-16.3z"/><path class="st1" d="M547.9 755.6c1.3-2.6-19.4 4.7-33.8-9.9-2.9 2.2-1.6 18.2 26.9 18.9 3.1-1.6 5-5.2 6.9-9z"/><path class="st1" d="M524 747c-5.4-1.2-8.6-2.3-9.9-1.2-2.1 1.6-2 10.1 8.4 15.2 2.1-3.6 1.8-12.2 1.5-14z"/><path style="fill:#ffb000;stroke:#000;stroke-width:1.4164;stroke-linecap:round;stroke-linejoin:round" d="m558 767.1 18.6 1.2 5.4-4-7.1-17.7-18.1 7.2z"/><path class="st6" d="M139.3 717.8s58.7-8.5 67.4-21.2c18.1-26.2 19.5-115 19.5-115l47.7 37.6s-12.2 96.2-19.2 104.4c-7 8.2-14.3 24.7-18.8 24.6-4.6-.1-23.5-4.4-33.4-3.9-9.9.5-57.2 7-57.2 7l-9.6-10.9.3-12.2 3.3-10.4z"/><path class="st9" d="M139.3 717.8s58.7-8.5 67.4-21.2c18.1-26.2 19.5-115 19.5-115l39.2 30.9s-.1 5.6-.7 14.3c-1.8 27.5-8.6 86.1-34 97.2-33.4 14.6-92.1 19.9-92.1 19.9l-3-3.4.3-12.2 3.4-10.5z"/><path class="st10" d="M180.8 737.9c-7.2 1.3-14 2.4-20.1 3.3l-7.5-25.8c5.4-1 11.9-2.3 18.5-3.9l9.1 26.4zM179.7 709.4c5.2-1.5 10.3-3.1 14.6-4.9l13.9 27.2c-6.4 1.7-13 3.3-19.5 4.6l-9-26.9zM200 701.9c3.1-1.7 5.4-3.4 6.7-5.3l33.5 20.3c-2.8 3.1-6 5.5-9.4 7.1-3 1.3-6.1 2.5-9.5 3.7L200 701.9zM210.4 689.9c1.6-3.5 3.1-7.7 4.4-12.1l38.3 15.4c-1.4 4.1-3 8-4.9 11.6l-37.8-14.9zM216.4 671.8c1-4 1.9-8.3 2.7-12.6l40.7 8.4c-1.2 6.1-2.6 12.3-4.3 18.2l-39.1-14zM220.6 650.4c1-6.3 1.8-12.7 2.4-18.9l41 5c-.5 5.2-1.1 11-2 17.1l-41.4-3.2zM224 621.3c.6-7 1.1-13.6 1.4-19.4 0-.5 21.7-.2 31.7 2.5 10.1 2.8 8.4 8.1 8.4 8.1s-.1 4.9-.5 12.6l-41-3.8z"/><path class="st4" d="M139.3 717.8s58.7-8.5 67.4-21.2c18.1-26.2 19.5-115 19.5-115l47.7 37.6s-12.2 96.2-19.2 104.4c-7 8.2-14.3 24.7-18.8 24.6-4.6-.1-23.5-4.4-33.4-3.9-9.9.5-57.2 7-57.2 7l-9.6-10.9.3-12.2 3.3-10.4z"/><path class="st6" d="M114.1 720.3c-17.3 1.9-34.9 1.7-36.6 2.9-3.1 2.2-4 6.7.5 9.9s49.3 2.7 57 1.4 19.9-7.9 10.3-18c-2.3-1.8-16.8 2.2-31.2 3.8z"/><path class="st4" d="M81.9 729.6c31.9-.4 57.1-4.3 57.1-4.3"/><path class="st7" d="M127.1 718.4s6.5 16.4 8 16.1c7.6-1.3 19.9-7.9 10.3-18-1.7-1.3-9.1.3-18.3 1.9z"/><path class="st4" d="M114.1 720.3c-17.3 1.9-34.9 1.7-36.6 2.9-3.1 2.2-4 6.7.5 9.9s49.3 2.7 57 1.4 19.9-7.9 10.3-18c-2.3-1.8-16.8 2.2-31.2 3.8z"/><path class="st6" d="M79.8 758.2c.8-3 48.4-23.1 55.3-23.7 16 .4 18 11.1 14.1 15.5-3.9 4.5-58.1 13.8-63.4 12.9-5.4-.9-6.9-1.7-6-4.7z"/><path class="st4" d="M88.6 758.8c24.7-6.8 46.5-15.4 46.5-15.4"/><path class="st7" d="M127 736.8c3.8-1.3 6.7-2.2 8.1-2.3 16 .4 18 11.1 14.1 15.5-1.2 1.3-6.8 3.1-14.3 4.9l-7.9-18.1z"/><path class="st4" d="M79.8 758.2c.8-3 48.4-23.1 55.3-23.7 16 .4 18 11.1 14.1 15.5-3.9 4.5-58.1 13.8-63.4 12.9-5.4-.9-6.9-1.7-6-4.7zM156.8 720l14.3-3.1M160 726.9l12.6-3.1M162.1 732.6l12.7-2.5M163.2 737.8l12-1.4M181.4 713.7l13.8-2.5M183.5 720.1l15.5-4.2M186.8 725.8l14.4-3.6M190.1 732.8l14.9-3.1M222.2 723.3l11.6-6.6M213.2 719.1l12.2-7.7M208.2 713.2l8.7-5.4M205.5 706.9l7.6-6.1M216.8 690.6l4.7-9.5M224.6 694.8l4.3-10.1M232.5 698.4l4.8-9.5M241.6 700.9l3.6-9.6M250.6 681.2l2.1-14.8M243.8 679.3l2-12.5M237.1 675.7l2.6-13.6M229.1 673.8l3.2-12.4M223.4 672.6l2-10.8M227.4 649.3l2.7-15.3M233.2 648.3l2.6-14.2M241.7 649.6l2-13.6M249.1 649.8l1.5-13.6M255.9 650.6l1.5-13.1M231.6 619.8l1.5-15.4M239 621.1l.9-14.8M248 622.4l.9-13.1M257.1 624.4l.4-16M156.7 744.5l3.3 4.6M165.3 742.4l3.4 4.1M174.5 740.9l2.1 5.8M182.5 740l3.9 5.2M192.3 736.8l3.2 6.3M203.1 737.1l4.4 6.3M213.9 736.8l4.4 8M222.5 737l6.6 9.8M250.4 713.1l4.4 5.8M254 705.2l5 7M256 693.3l4.9 8.1M259.6 684.9l2.8 5.1M259.9 673.5l5.1 4.1M263 665l2.2 2.3M264.9 654.8l2.8 1.7M265.2 641.7l4 2.3M268.4 630.3l3.3 2.4"/><path class="st14" d="M760.1 722.5s-58.8-8.8-67.6-22.4c-18.4-28-20.6-123.5-20.6-123.5l-47.4 40.7s13.1 103.3 20.2 112.1c7.1 8.8 14.5 26.5 19.1 26.4 4.6-.1 23.4-4.8 33.3-4.3 9.9.5 57.2 7.2 57.2 7.2l9.5-11.7-.4-13.1-3.3-11.4z"/><path class="st9" d="M760.1 722.5s-58.8-8.8-67.6-22.4c-18.4-28-20.6-123.5-20.6-123.5l-39 33.5s.1 6 .8 15.4c2.1 29.6 9.5 92.5 34.9 104.3 33.6 15.5 92.3 20.9 92.3 20.9l3-3.6-.4-13.1-3.4-11.5z"/><path class="st10" d="M718.8 744.3c7.2 1.4 14.1 2.5 20.1 3.4l7.3-27.7c-5.4-1.1-11.9-2.4-18.5-4.1l-8.9 28.4zM719.6 713.7c-5.3-1.5-10.3-3.3-14.7-5.2l-13.6 29.2c6.4 1.8 13 3.5 19.5 4.9l8.8-28.9zM699.2 705.8c-3.1-1.8-5.4-3.6-6.7-5.6l-33.3 22c2.8 3.3 6 5.9 9.5 7.5 3 1.4 6.2 2.7 9.5 3.9l21-27.8zM688.7 692.9c-1.6-3.8-3.1-8.2-4.5-13L646 696.7c1.5 4.4 3.1 8.6 5 12.5l37.7-16.3zM682.6 673.5c-1-4.3-2-8.9-2.8-13.5l-40.6 9.3c1.2 6.6 2.7 13.2 4.5 19.6l38.9-15.4zM678.2 650.5c-1-6.7-1.9-13.6-2.6-20.3l-41 5.6c.5 5.6 1.2 11.8 2.1 18.3l41.5-3.6zM674.5 619.2c-.7-7.6-1.2-14.7-1.6-20.8 0-.5-21.7-.2-31.6 2.9-10.1 3.1-8.3 8.8-8.3 8.8s.1 5.2.7 13.5l40.8-4.4z"/><path class="st4" d="M760.1 722.5s-58.8-8.8-67.6-22.4c-18.4-28-20.6-123.5-20.6-123.5l-47.4 40.7s13.1 103.3 20.2 112.1c7.1 8.8 14.5 26.5 19.1 26.4 4.6-.1 23.4-4.8 33.3-4.3 9.9.5 57.2 7.2 57.2 7.2l9.5-11.7-.4-13.1-3.3-11.4z"/><path class="st14" d="M785.3 725c17.3 1.9 34.9 1.7 36.6 2.9 3.1 2.3 4 7.2-.4 10.6-4.5 3.4-49.3 3.2-57 1.8-7.6-1.4-20-8.4-10.5-19.3 2.4-1.9 16.9 2.4 31.3 4z"/><path class="st4" d="M817.7 734.8c-31.9-.2-57.2-4.3-57.2-4.3"/><path class="st15" d="M772.3 723s-6.4 17.6-7.8 17.3c-7.6-1.4-20-8.4-10.5-19.3 1.6-1.3 9.1.3 18.3 2z"/><path class="st4" d="M785.3 725c17.3 1.9 34.9 1.7 36.6 2.9 3.1 2.3 4 7.2-.4 10.6-4.5 3.4-49.3 3.2-57 1.8-7.6-1.4-20-8.4-10.5-19.3 2.4-1.9 16.9 2.4 31.3 4z"/><path class="st15" d="M772.6 742.8c-3.8-1.4-6.7-2.3-8.1-2.4-15.9.5-17.9 12-13.9 16.8 1.2 1.4 6.8 3.3 14.3 5.2l7.7-19.6z"/><path class="st4" d="m742.7 724.9-14.4-3.2M739.5 732.4l-12.7-3.3M737.4 738.6l-12.6-2.7M736.4 744.1l-12-1.5M718 718.4l-13.8-2.7M715.9 725.1l-15.5-4.4M712.7 731.4l-14.4-3.9M709.5 738.8l-14.9-3.2M677.2 728.8l-11.6-7M686.2 724.2 674 716M691.1 718l-8.7-5.9M693.8 711.1l-7.6-6.5M682.4 693.7l-4.9-10.2M674.6 698.3l-4.4-10.9M666.7 702.2l-4.9-10.3M657.7 704.9l-3.8-10.3M648.5 683.8l-2.2-15.9M655.2 681.7l-2.1-13.4M662 677.8l-2.8-14.6M669.9 675.7l-3.3-13.3M675.5 674.3l-2-11.5M671.3 649.3l-2.8-16.4M665.6 648.3l-2.8-15.2M657.1 649.8l-2.2-14.6M649.7 650l-1.6-14.6M642.9 650.9l-1.6-14.1M666.9 617.6l-1.6-16.5M659.5 619.1l-1-15.9M650.5 620.6l-1-14.1M641.4 622.7l-.5-17.1M742.9 751.3l-3.2 5M734.3 749.1l-3.3 4.4M725.1 747.5l-2.1 6.2M717.1 746.6l-3.8 5.6M707.3 743.2l-3.2 6.8M696.5 743.5l-4.3 6.9M685.7 743.2l-4.3 8.8M677.1 743.5l-6.5 10.6M649 718.1l-4.4 6.2M645.3 709.6l-4.9 7.5M643.2 696.8l-4.9 8.7M639.5 687.7l-2.7 5.6M639.1 675.5l-5 4.4M635.9 666.4l-2.2 2.5M633.9 655.4l-2.8 1.9M633.4 641.4l-3.9 2.5M630.2 629.2l-3.3 2.5"/><path class="st0" d="M413.6 237.1s21.2-4.6 24.9-40.4c3.5-1.6 24-1.7 26.2.1 2.2 1.8-2.9 23.9 19 39.2-8.3 12.3-70.1 1.1-70.1 1.1z"/><path class="st4" d="m348.7 468.7 1.8 17.1M353.2 468.2l2.5 17.2M359 467.8l3.5 17.2M364.7 467.9l3 17.2M371 466.4l3.5 18.3M376.1 466.5l4.1 18.9M382.9 466.7l4.2 17.7M389.8 465.1l4.7 19M397.2 467l4.1 17.2M403.5 465.5l2.9 18.8M409.2 464.5l4.1 20M416.5 466.9l3.6 17.2M424 466.5l2.4 17.8M348.5 498.3l1.9 14.9M353.1 497.3l3 16.6M359.9 498.6l2.5 14.9M366.2 497l3 16.7M373 499.5l1.4 13.1M379.3 499.6l1.4 13.2M385.6 497l2.5 14.8M391.3 497.1l2.5 14.9M397.6 497.2l3 14.4M405 495.1l3.1 14.4M412.5 493.6l2.6 10.9M350.1 526.3l3.1 13.2M356.4 526.5l3.7 13.2M362.7 526.6l3.1 13.2M370 527.4l4.3 14.3M376.9 526.4l2.5 14.3M384.3 527.1l2.5 13.2M390 525l2.5 14.9M397.5 523.5l3.1 13.1M391.1 551.8l2.1 8.6M397.4 552.5l3.2 8.6M406 551l2 10.9M413.4 551.2l.8 11.4M513.3 520.6l2.5 13.7M519.6 519.6l1.9 13.7M524.7 519.1l2 12.6M530.4 518.1l3.2 11.5M537.3 516l2.1 10.9M544.2 513.9l1.5 10.9M550 511.8l2 12M556.9 510.2l1.4 11.5M562.6 508.7l-.3 10.8M514.7 486.4l3 14.9M520.9 486.5l1.4 14.3M527.2 487.3l.8 13.7M532.3 488l2 13.1M537.5 485.8l4.2 13.8M544.9 486.6l2 11.4M550.7 483.3l1.9 13.7M556.4 482.3l1.9 13.7M503.9 462.8l3.7 12M510.2 461.2l4.2 13.2M517.6 460.2l3.1 12.7M522.2 458.7l4.2 14.3M528.5 457.7l4.8 14.3M534.8 456.1l3 15.5M543.9 455.2l4.2 16.1M550.2 454.8l2.5 14.8M557.6 454.4l1.9 15.4M349.7 449.9l.9 10.9M356.1 446.1l1.9 12M362.9 445.7l3.1 12.6M368.6 445.2l2.6 12.6M374.4 443.7l3.1 12.6M381.8 443.3l2.5 11.4M387.5 441.1l3.7 13.8M393.2 440.7l2.6 13.2M400.1 441.4l2 12.1M407.5 441.6l2.5 13.2M413.7 441.8l2 12M421.7 440.8l2 11.5M430.9 439.9l1.9 13.7M438.9 438.4l2 12.6M445.7 438.6l2 12.5M452 439.9l2 12M459.9 440.6l2.6 10.9M465.6 440.2l2 14.3M474.2 438.7l2 13.7M480.5 440l1.4 12M486.8 439l1.9 12.6M493.1 438l2.5 12M501.1 435.9l2.5 14.3M506.8 434.9l2 13.7M512.5 433.9l3.7 13.2M520 433l2.5 12.6M526.8 431.4l1.4 14.3M532 430.4l1.4 12M538.3 429.4l2 13.2M544 429.5l.8 13.7M550.3 427.4l.8 14.3M557.7 427l.3 13.7M509.6 414.5l.9 7.4M514.8 409.4l2 11.5M520.6 407.9l3.1 11.5M527.5 405.8l3.1 10.9M532.6 405.9l4.3 10.9M539.5 402.6l3.2 11M545.8 402.2l2.6 11.5M552.1 400.7l1.5 10.8M356 423.3l3.8 10.9M364 422.3l2.6 10.9M369.2 420.7l3.7 11.5M373.8 418.6l4.3 12.6M381.2 418.2l3.2 12.6M386.9 418.3l3.1 13.2M394.3 418.5l3.2 10.9M400.6 418.1l3.1 12.6M408.6 418.3l2 11.4M356 402.2l3.7 10.9M361.1 400.6l3.2 9.2M365.8 399l5.4 9.2M361.6 384.1l4.4 5.8M365.6 380.2l6.2 5.8M370.9 374l7.2 7.1M375.6 370.2l6.6 7.5M373.3 391.8l9.6 4.8M378.5 388.5l8.5 3.6M383.2 384l7.3 5.3M389 379.6l7.3 5.9M391.4 399.1l7.9 3.6M397.2 395.8l7.9 3.6M401.2 392.4l7.4 3.1M405.9 388.6l7.8 5.3M406.6 408l7.8 4.7M411.8 403.5l9.5 7.1M417.6 399.7l12.4 7.1M422.3 395.2l9 4.8M487.8 395.1l-7 9M493.5 397l-4.8 8.4M500.9 398.3l-7.1 8.4M509.3 400.8l-9.3 10M504.1 381.3l-9.3 8.3M509.8 382.5l-6.5 7.3M517.2 382.2l-8.2 8.9M522.8 385.1l-8.2 9M529.1 386.4l-7.7 9.5M526.2 365.8l-5.4 7.3M531.2 368.8l-5.3 6.7M536.9 370.7l-5.9 7.2M538.8 385.5l.9 7.5M545.2 381.7l2 9.2M552.6 380.2l1 7.4M448 554.9l2.1 10.9M455.6 548.8l3 15.5M464.6 553.6l4.7 19.5M471.5 550.3l5.3 19M478.9 551.1l2.6 9.2M584.1 399.2l8.8 9.3M583.1 391.7l12.8 10.6M588.3 387.3l14 10.6M594.7 383.5l13.5 8.8M600.5 379.6l15.7 10.1M606.9 374.6l12.9 9.5M613.8 371.4l10.7 5.9M574.9 376.1l8.4 5.4M579.1 370l9.5 5.9M585.5 364.4l9.5 4.8M589 359.9l7.9 3.7M607.6 414.5l9.5 7.7M611.8 408.4l10 7.6M618.1 405.7l8.9 7.6M622.8 400.1l11.2 8.8M628 395.7l10.1 7.6M632.1 391.8l11.2 9.4M639.6 388l8.9 8.2M630.1 429.9l12.8 10.6M635.8 426.1l11.8 9.9M642.2 421.1l13.5 9.4M649.8 416.1l11.7 10.6M658.4 413.5l8.9 8.8M654.8 444.2l6.5 12.1M661.7 442.6l10.4 14.5M670.3 438.9l11 16.8M676.6 438.5l9.9 14.5M684.1 435.8l9.4 12.2M676.4 400.3l1.3 17.7M683.2 401l.7 16.5M688.9 402.8l.1 16.6M695.6 404.7l-.9 14.8M701.9 403.7l-.3 16M677.8 366.7l-.4 14.8M683.4 369.1l-.3 13.1M689.7 368.7l-1 14.8M695.9 371.7l.3 11.9M682.4 340.6l-1.5 14.2M687.5 340.7l.2 15.4M693.8 340.3l-.4 14.8M699.5 340.4l-.4 14.8M685.3 312.1l1.5 10.9M691 312.3l2 13.1M697.8 314.1l-.2 10.9M679.4 274.4l1.9 15.4M685.1 273.9l2.5 14.3M691.4 273.5l1.4 13.2M697.7 273.1l.3 12.5M677.9 241.3l2 14.8M684.2 241.4l1.4 14.3M690 239.3l1.3 14.3M696.8 238.3l.2 16M430.9 555.1c1.1 1.7 3.7 12.6 3.7 12.6M441.2 554.2l1.5 10.3M485.8 550.1l4.3 9.8M496.1 549.2l3 8.1M503.5 546.5l3.2 8.7M513.2 546.2l4.4 7"/><path class="st10" d="M207.3 271.5c.3-10.2.6-19.9.5-26.8l-29.4-3c-1 7-2.1 16.8-3.2 26.7l32.1 3.1zM206.4 301.7c.1-6.4.4-14.2.7-22.2l-32.8-2c-1 9.5-1.8 18.3-2.4 23.9l34.5.3zM211.5 331c-2.5-7.3-4.3-12.9-4.7-15.1-.2-1-.3-2.6-.4-4.5l-29.6 8 3.7 7.8s1.5 4.5 3.9 11.6l27.1-7.8zM256.6 402.1c-4.1 5.8-7.3 10.9-9.7 14.3-1.4-.9-4.1-6.1-7.6-13.7l-31.2 10.2c2.4 8.3 4.5 16.3 6.5 23.5.4 1.5 20.6-10 21-8.5 0 0-18.7 16.3-18.3 17.9 2.6 8.5 5.1 15.2 7.7 18.9.8.8 18-24.2 18.8-23.5.7.6-15.1 26.8-14.4 27.3 5.2 3.6 10.5 4.2 16.8 3 2.1-.4 8.6-12.9 8.6-12.9s1.5 9.7 3.3 8.9c3.2-1.3 6.6-2.9 10.2-4.6 1.2-.6 2.6-1.6 4-2.8 1.1-1-15.6-33.4-15.6-33.4s21.5 27.3 22.7 25.7c4.4-5.3 9.2-11.9 14.3-18.3l-37.1-32zM280.2 376.8c-4.9 3.8-9.3 8-13.1 12.1l32.9 37.4c3.6-4.2 7.4-8 11.2-11l-31-38.5zM234.4 391.2c-2.2-5.2-4.4-10.8-6.7-16.6l-29.5 6c2 6.2 4 12.3 5.7 17.9.3 1 .7 2.1 1 3.1l29.5-10.4zM223.2 363c-2.5-6.4-4.8-12.8-7-18.7l-27.8 6.6c2.1 6.4 4.5 13.6 6.9 20.9l27.9-8.8z"/><path class="st4" d="M577.5 416.1c2.3-1.5 74.8 57.1 97.4 60.1 27.3 3.7 38.4-14.3 40.3-30.9 1.9-16.7-4.3-73.1-4.5-98.2-.2-25.1 1.8-107.1-.3-114.8-2.1-7.7-28.7-6.8-34.9-2.4-3.4 12.8 2.6 81.4 6.2 87.6-12.8 59-7.8 100.1-11.5 98.5-3.8-1.6-19.6-36.2-42.2-48.1-22.5-12-47.6-13.3-47.6-13.3l-20.8-21.8-212.9 4.7-30.1 19.8s-10.7 2-31.6 16c-20.9 13.9-32 34.2-38.3 43.1-6-3.9-38.1-89.8-40.1-100.5-2-10.7 3.4-78.2-.3-80.6-9.7-8.6-41.8-1-41.8-1l-9.3 70.5 20.6 27.9s8.9 39.7 18.1 68.8c9.2 29.1 15.3 60.4 21.9 69.7 12.6 15.5 36.2 10.8 56.2 1.4s48.5-56.6 54.5-53.4c4.1 2.4-5.5 72.1 1.6 105.7 7.2 33.6 92.5 56.2 92.5 56.2l105.4-15s31.8-25.8 51.3-48.2c11.2-22.5 2.9-88.1.2-101.8z"/><path class="st6" d="M164.7 232c5.1 9.2 25.6 8.2 25.2-5.5-.4-13.7-9.4-51.1-10-57.2-.6-6.1-7.4-6.3-8.3-1-1.5 31.2-12 54.5-6.9 63.7z"/><path class="st4" d="m174.8 164.7 1.9 61"/><path class="st7" d="M163.9 218.5c-.8 5.9-.8 10.5.8 13.5 5.1 9.2 25.6 8.2 25.2-5.5-.1-2.3-.4-5.2-.8-8.6-7.3 10.2-17.5 7.1-25.2.6z"/><path class="st4" d="M164.7 232c5.1 9.2 25.6 8.2 25.2-5.5-.4-13.7-9.4-51.1-10-57.2-.6-6.1-7.4-6.3-8.3-1-1.5 31.2-12 54.5-6.9 63.7z"/><path class="st6" d="M197.5 167.4c-2.3 1.5-8.9 53-8.3 62.1.5 9.1 17.2 11.1 19 1.2s-1.2-46.4-1.6-60.8c-3-3.8-6.8-3.9-9.1-2.5z"/><path class="st4" d="m199.6 221.1 1.9-53.5"/><path class="st7" d="M189.7 218c-.5 5.3-.7 9.5-.6 11.6.5 9.1 17.2 11.1 19 1.2.6-3.3.7-9.5.5-16.9-2.1 4.5-14.7 8.2-18.9 4.1z"/><path class="st4" d="M197.5 167.4c-2.3 1.5-8.9 53-8.3 62.1.5 9.1 17.2 11.1 19 1.2s-1.2-46.4-1.6-60.8c-3-3.8-6.8-3.9-9.1-2.5zM338.8 209.4s-5.9 6.1-5 19.3"/><path class="st6" d="M672.6 225.2c2.6 9.8 18.5 11.3 19.5-3.5.9-14.8-8.9-57.8-11.1-60.7-2.2-2.9-5.1-3-5.7-.7-.6 2.2-5.3 55.1-2.7 64.9z"/><path class="st2" d="M631.6 742.9s3.5-5.1.8-9.1c1.2-3.4 1.9-7.4-3.2-9.2-5.1-1.8-24 1.1-24 1.1s-13.7 1.4-20.6 2.3c-6.9 1-13.8 5.4-13.8 5.4s-25.3 9.6-30.3 26.6c-3.1 10.6-4.3 35.8 15.9 47.7 20.2 11.9 55.6 9.9 64.1-10.4 4.9-12.4.9-38.7-17.1-46-18.1-7.3-21.1-.5-21.1-.5l5.3 16.7s17.2-3 18.5 12.4c1.3 15.4-13.6 21.3-29 18.7-15.3-2.7-21-12.5-20.2-23.9.8-11.4 15.5-19 21.3-22.3 5.8-3.3 15.5-5.9 25.8-4.5 10.2 2.5 23.4.6 23.4.6l4.2-5.6z"/><path class="st3" d="M407.3 732.3c1.7 46.8-11.2 108-11.2 108l115.1-.1s-10.8-70.4-9.8-112.5c-4.8-14.4-40.2-35.8-40.2-35.8l-25.7.5c.1.1-29.6 24.5-28.2 39.9z"/><path class="st1" d="M407.3 732.3c1.1 29.4-3.6 64.4-7.2 86.5l107.8-3.2c-3.1-24.3-7.1-61.6-6.4-87.9-4.8-14.4-40.2-35.8-40.2-35.8l-25.7.5c0 .1-29.7 24.5-28.3 39.9z"/><path class="st3" d="M327.1 724.1s45.6-.6 48.4 1.2c2.8 1.8 16.2 11.8 18.4 17 2.2 5.2 2 59.9-2.3 72.3-2.4 5.1-14.9 4.2-15.2-6.1-.2-6.4 8-46 7-52.8-1-6.9-4.9-7.5-9-7.1-4 .5-2 13.1-4.9 14.1-2.9 1.1-25.6-.6-27.9.5-2.3 1.1-.3 5.2 1 7.4 2.2 4 17.1 1.6 17.1 1.6 1.7 1.2.9 8 .9 8s-17.7 3-28.4-4.7c-5.2 1.6-39 7.6-39 7.6l-.9-9.7s13.9-8.2 21.3-9.7c-.5-3.4 0-5.3.6-8.2.6-2.8 7.3-10.4 7.3-10.4l5.6-21z"/><path class="st6" d="M368.6 208.7s5.5 9.8 19.2 5.6c13.8-4.2 23.9-20.5 23.9-20.5s-7.3-3.6-18.2-3.3c-10.7.3-24.9 18.2-24.9 18.2z"/><path class="st7" d="M381.6 195.9c-7.1 5.4-12.9 12.8-12.9 12.8s5.5 9.8 19.2 5.6c1.7-.5 3.4-1.2 5-2.1l-11.3-16.3z"/><path class="st4" d="M368.6 208.7s5.5 9.8 19.2 5.6c13.8-4.2 23.9-20.5 23.9-20.5s-7.3-3.6-18.2-3.3c-10.7.3-24.9 18.2-24.9 18.2z"/><path class="st3" d="M392.1 204.7c-.1 2.5-2.2 4.5-4.7 4.5-2.5-.1-4.5-2.2-4.5-4.7.1-2.5 2.2-4.5 4.7-4.5 2.6.1 4.6 2.2 4.5 4.7z"/><path class="st16" d="m518.1 611.1.9 7.6"/><path class="st0" d="M357 338.4s24.7 61 100.8 49.3c72.2-12.7 88.3-42.5 88.3-42.5l-3.1-37.7L364.8 297l-25.6 21.6 17.8 19.8z"/><path class="st1" d="m358 239 1 75.8h70.7l-3.9 17.6 59.8 1.5 10.3-23.1 38.8-.8-6.2-73.7C452.8 232.1 358 239 358 239z"/><path class="st3" d="m442.9 294.6-1.5-18.7s-5.4 3.3-9.1.9c-3.7-2.4-2.4-9.6 1.1-12.1 3.5-2.6 12.6-2.4 14.7 3.8 1.2-3 11.5-5 14.9-2.7 3.4 2.4 4.4 7 1.6 11.4s-6.9 2.9-8.8.9c-1.2 1.1-1.2 17.1-1.2 17.1l-11.7-.6z"/><path class="st4" d="m448.1 268.5-.9 23.9M459.8 271.9c-4.9-2-6.5 3.6-4 6.4M441.5 276c2-1.8-1.4-6.5-3.7-5"/><path class="st0" d="M354 341.5s3.8 14.2 1.8 18.3c-2 4.1-40.1 8.2-41.9 3.2s1.3-21.2 1.3-21.2l38.8-.3z"/><path class="st1" d="M341.5 401.6s-6.8-34-14-35.7c-7.2-1.7-13.3.8-15.7 4.2-2.4 3.4-.7 13.3 4.2 14.5 4.9 1.3 9.5-1.7 9.5-1.7s21.9 67.4 24.2 65.6c2.3-1.8 4.7-68.3 4.7-68.3s11.3 3.7 13.7-2.7c2.4-6.4 0-14.4-10.6-16.2-4.5-.9-12.2.1-14.5 3.1-2.2 3-1.5 37.2-1.5 37.2z"/><path class="st4" d="M354.6 380.3c-3.7-3.5-.9-9.9 5.2-8.6M318.6 376.3c4.6-.7 5.3 2 7.1 6.6"/><path class="st0" d="M539.6 334.6s-1.5 15.5 1.5 17.9c3 2.3 41.4-.1 41.9-3.2.4-3-4.6-16.1-4.6-16.1l-24.9-6.3-13.9 7.7z"/><path class="st2" d="M269.6 265.9s-5.6-29.2-5.5-31.5c.1-2.3 5.2-3.9 8.6-.4 3.3 3.5 10.3 21.9 14.7 28.9-5.4 5.6-17.8 3-17.8 3z"/><path class="st2" d="M281 262.2s-2.2-50.8.1-52.4 8.5 2.5 11.3 5.4c2.8 2.9 0 47.3 0 47.3l-11.4-.3z"/><path class="st2" d="M300.5 211.4c-3.4 1.1 2.5 13.7-9.7 48.8-1.2 4 11 1.1 11 1.1s11.2-25.6 10.3-34.2-4.1-17.3-11.6-15.7z"/><path class="st2" d="M318.1 216.3c-2.9 1.1-10.5 33.4-17.7 46.9-7.2 13.5 15.5-4.2 15.5-4.2s11.9-19.1 12.6-26.5c.7-7.3-7.6-17.2-10.4-16.2z"/><path class="st2" d="M333.7 228.7c5.1 1.3 6.1 7 6 11-.1 4-17.1 24.7-17.1 24.7l-6.7-5.3c0-.1 12.7-31.7 17.8-30.4z"/><path class="st4" d="M268.8 237.6c3.8 6.9 7.9 25.8 7.9 25.8M287 214.7l.3 48.2M304.6 218.5c5.4 14.4-9 43.7-9 43.7M321.5 224.6c-1.4 9.1-11.1 33.9-11.1 33.9M334.9 236.9c-.7 6.8-16 24.1-16 24.1"/><path class="st2" d="M267.9 298.6c-1.2-20-10-35-11.6-39-1.6-4 1.9-6.2 6.9-3.3 11.8 4.8 15.5 42.6 15.5 42.6s-7 4.3-10.8-.3z"/><path class="st4" d="M260.3 259.6c11.1 13.9 12.2 38.5 12.2 38.5"/><path class="st17" d="m278.7 298.9-8.8-37.8s5.8-3.9 10.3-.3c4-.5 14.9-3.1 21.6.5 6.7 3.6 11.1 12.2 11.1 12.2l-5.7 22.7-14.5 10.5-14-7.8z"/><path class="st6" d="m280.9 290.7 2.3-12.9 2.3-13.2s13 2.6 11 15.1c-1.9 12.5-15.6 11-15.6 11z"/><path class="st7" d="m283.2 277.8 2.3-13.2s13 2.6 11 15.1l-13.3-1.9z"/><path class="st4" d="m280.9 290.7 2.3-12.9 2.3-13.2s13 2.6 11 15.1c-1.9 12.5-15.6 11-15.6 11z"/><path class="st3" d="m282.3 282.9 1.7-9.8s7.8-.2 7.7 5.5c-.1 5.7-9.4 4.3-9.4 4.3z"/><path class="st1" d="M267.9 298.6c1.8-3.9 21.5 5.1 34.4-9.4 7.7-10.1-.5-27.9-.5-27.9s14.6-12.8 23.9 1.1c3.2 8.1-5.8 29.5-6.9 50-.6 2.8-7.4 22.6-7.4 22.6s-5.7 1-7.4-1.9c-1.6-2.9 5.4-13 3.4-24.4-1.8 5.1-18.1 17.8-20.4 20.6-2.3 2.8.4 5.1 3.3 5.2 2.8.1 8.1-4.4 8.1-4.4s4.4 7.5 2 9.7c-2.3 2.2-9.8 4.3-16 3s-15.6-13.5-11.7-33.9c-2.8.6-9-1.3-4.8-10.3z"/><path class="st4" d="M307.5 308.7c11.2-16.8 10-37.4 10-37.4M272.7 309c.6-2.8 2.4-5.6 2.4-5.6"/><path class="st1" d="M325.7 262.4c-1.4 2.6-8.1 41.2-6.6 48.6-4.6 2.7-14.8 22.4-6 34.1 8.8 11.6 29.4 9.8 41.1-2.4 2.4-5.1 0-22.8 0-22.8s8.7-7.2 2.7-15.9c10-13.4 2.1-39.8 2.1-39.8s-5.6-4.7-12.4-6c-6.7-1.4-19.4 1.6-20.9 4.2z"/><path class="st4" d="M319.2 311c3.7-2.5 10.5-.1 10.5-.1M357 303.9c-9.8 6-15.4 1.9-16.5-3.3-1-5.2 5.8-5.6 5.8-5.6"/><path class="st3" d="M354.3 319.8c-4.5-3-9.6-3.1-13.7.2-5.1-2.4-10.2-2.5-13.1.8-2.9 3.4-2.8 19.3-2.2 21.6.5 2.3 15.9 2.1 17.1-1.3 3.4 1.8 14.2 2.1 15.4-.8 1.2-2.7 1-17.5-3.5-20.5z"/><path class="st4" d="M342.4 341.2s.4-18.2-1.8-21.1"/><path class="st1" d="M323.6 270.6c3.5-4.5 16.1-4.2 17.7.4s-3.6 8.5-3.6 8.5l-14.3.8s-1-6.9.2-9.7z"/><path class="st6" d="M340.4 283.9c-.1 5.2-4.4 9.3-9.6 9.2-5.2-.1-9.3-4.4-9.2-9.6.1-5.2 4.4-9.3 9.6-9.2 5.2.1 9.3 4.4 9.2 9.6z"/><path class="st7" d="M330.7 293c-5.2-.1-9.3-4.4-9.2-9.6s4.4-9.3 9.6-9.2l-.4 18.8z"/><path class="st3" d="M334.2 284.2c-.1 1.8-1.5 3.2-3.3 3.1-1.8-.1-3.2-1.5-3.1-3.3.1-1.8 1.5-3.2 3.3-3.1 1.7 0 3.1 1.5 3.1 3.3z"/><path class="st4" d="M340.4 283.9c-.1 5.2-4.4 9.3-9.6 9.2-5.2-.1-9.3-4.4-9.2-9.6.1-5.2 4.4-9.3 9.6-9.2 5.2.1 9.3 4.4 9.2 9.6z"/><path class="st1" d="M556.6 252.3s-21.1 1.2-25.7 3.4c-4.6 2.2.3 35.3 4.2 39.4-.1 5.7-2 11.9-1.5 14.8.5 2.9 19.9 23.9 19.9 23.9s.2 6.8 4.3 7c4.2.1 17.8-1.9 21.8-5.8 4.1-3.9 1.8-27.9 1.8-27.9l-24.8-54.8z"/><path class="st4" d="M535 295.1c2.8 3.5 14.7 4.3 16.5-.2 1.8-4.5-.8-12.6-11.2-7.1"/><path class="st3" d="M534.7 309.9c-2.3 1.7 0 24.5 1.1 26.2 1.1 1.7 11.4 2 13.2-1.4 5.1 1.8 18.2 1 17.7-2.4s1.6-17.6-1.2-20.5c-2.8-2.9-13.6-2-16.5.2-5.2-2.4-12-3.7-14.3-2.1z"/><path class="st4" d="M548.9 334.8V312"/><path class="st1" d="M559.4 261.2c-3-4.2-14.4-4.5-16.1-.4-1.7 4.1 2.9 7.9 2.9 7.9l12.9 1.4c.1-.1 1.3-6.3.3-8.9z"/><path class="st6" d="M543.6 272.5c-.1 4.7 3.6 8.7 8.4 8.8 4.7.1 8.7-3.6 8.8-8.4.1-4.7-3.6-8.7-8.4-8.8-4.8-.1-8.7 3.7-8.8 8.4z"/><path class="st7" d="M551.9 281.3c4.7.1 8.7-3.6 8.8-8.4.1-4.7-3.6-8.7-8.4-8.8l-.4 17.2z"/><path class="st3" d="M549.2 273.1c0 1.6 1.2 2.9 2.8 3 1.6 0 2.9-1.2 3-2.8 0-1.6-1.2-2.9-2.8-3-1.6-.1-3 1.2-3 2.8z"/><path class="st4" d="M543.6 272.5c-.1 4.7 3.6 8.7 8.4 8.8 4.7.1 8.7-3.6 8.8-8.4.1-4.7-3.6-8.7-8.4-8.8-4.8-.1-8.7 3.7-8.8 8.4z"/><path class="st1" d="M431.6 386.7s-1.7 23.9-5.7 31.4c-.6-5.3-1.3-9.1-5.8-10-4.5-.9-10.4 5.1-9 12.7 1.3 7.6 4.7 8.9 13.5 9.5 14.1.3 13.2-13 13.2-13s-1 11-.3 13.3c.7 2.3 11.3 4.5 16-.8 2.9 4.2 10.5 4.4 15.2.4 8.3 2.1 13.7-2.3 13.7-2.3s15.2-.4 18-7.2-3.5-14.1-9.1-15.8c-3.4-.8-7.7 3.6-7.7 3.6l-4-23.3-48 1.5z"/><path class="st4" d="M492.9 413.6c-5.4 1.4-8.7-.6-9.4-5.2M475.7 417c.7 3.8 6.6 10.8 6.6 10.8M465 417.9c1.5 2.7 2.5 8 3.5 12.2M453.2 419.1c.7 2.3.9 8 .1 10.7"/><path class="st3" d="M468.1 398.6c-.1 5.9-5 10.5-10.9 10.4-5.9-.1-10.5-5-10.4-10.9s5-10.5 10.9-10.4c5.9.1 10.6 5 10.4 10.9z"/><path class="st3" d="M462.1 398.5c-.1 2.3-2 4.1-4.3 4.1-2.3-.1-4.1-2-4.1-4.3.1-2.3 2-4.1 4.3-4.1s4.1 1.9 4.1 4.3zM369.5 314.5c-6.1 1.4-16.6 11.8-7.1 25.7 8.1 12.4 23.8 6.3 23.9 2.1.1-4.2-3.7-5-3.7-5l-6.9-12s17.1 1.9 20 7.3-4.4 9.4-4.3 19.3c-.1 4.2 4.8 5.8 4.8 5.8s-6.8.6-3.2 7.1c.7 2.7 14.5-1.6 15.2 0-.1 5.3-8.3 12.3-9.1 14.6-.8 2.3 8.6 4.8 11.3 2.6 2.7-2.2 4.9-14.7 6.5-15.4 1.5-.7 3.8.1 5.3 2s-3.3 11.7-3 14c.3 2.3 5.7 1.7 5.7 1.7h62.3s12.6-4.2 12-6.9c-.7-2.7-5.9-8.1-6.2-11.6-.3-3.4 2.4-4.9 4.3-4.5 1.9.4 7.3 10.4 9.6 11.2 2.3.8 10.3-3.5 9.3-5.9-1.1-2.3-14.2-8.7-13.4-10.2.8-1.5 14.1-1.2 15.6-2.7 1.6-1.5 2.4-6.4-6.2-8.9 3.1-4.1 4-6.4 1-9.9s-6.2-8.5-3.5-12.6c2.8-4.1 10.7-3.5 15.6-1.1s3.6 7.7 3.2 9.2c-.4 1.5-7.1-4.3-8.4 1.7-.5 3.4 4 8.5 10.9 6.3 10.4-4.3 5.1-23.1 3.3-27.3-1.8-4.2-29.5-4.5-37.9-2.1-8.4 2.4-20.6 5.2-23.3 6.3-2.7 1.1-3.3 9.8-5.9 9.7-2.7-.1-8.3-2.9-7.8-8.5.5-3.8 7.4-9.3 5-16.6-2.5-7.3-6.2-9.7-15.4-9.1-9.1.5-10.8 4.7-11.7 11.9-.9 7.2 5.1 10.4 5.4 13.8.3 3.4-2.5 8.3-7.4 8.9-3.8.3-2.8-10-5.3-10.8-2.8-.6-54.4-1.5-60.5-.1z"/><path class="st4" d="M512 344.9c-2.3 1.5-6.5 2.9-10 3.6M396.2 357.7s6.1.5 15.2 0"/><path class="st2" d="M416.7 246.9c-4.9-.5-38.7 42.8-41.2 53.4s-1.1 14.4-.5 19.7c.6 5.3-8.2 8.5-8.7 13.5s8.2 8.9 11.2 7.1 10.1-8.1 11-14.2c.9-6.1.8-15.6 1.6-18.2.8-2.6 32.6-44.8 33.1-50.9.6-6.1-1.6-9.9-6.5-10.4z"/><path class="st2" d="M371.8 263.3c-.1 3.4 38.6 54.1 40.1 54.9 2.7-.3 9.3-5.9 8.6-9.3-6.7-4.3-39.7-54.9-39.7-54.9s-8.9 5.8-9 9.3z"/><path class="st2" d="M365.2 271.5s-.5 4.9.5 10.7c34 8.4 59.2 20.8 59.2 20.8s3.6-8.6 3.3-11.3c-9.3-8.3-63-20.2-63-20.2z"/><path class="st0" d="m431.3 368.1-5.1 20c32.3 1.5 62.4-1.1 62.4-1.1l-7.5-19.6-49.8.7z"/><path class="st4" d="M375.3 333.1s5.8-3.9 7.1-11.2c1.3-7.4-2.6-11.5 1.1-20.5 3.6-9 30.1-43.7 30.1-43.7M379.3 263.1l35.9 48.2"/><path class="st4" d="M369.8 277.7s43.1 10.7 52.6 18.4"/><path class="st6" d="M379.9 276s-.5 19.7 19.7 17.2c20.2-2.6 16.8-18.6 16.8-18.6l-36.5 1.4z"/><path class="st7" d="m399 275.3-19 .7s-.5 19.7 19.7 17.2l-.7-17.9z"/><path class="st3" d="m410.3 274.8-23.9.9s-3.1 11.2 14 10.1c12.6-.8 9.9-11 9.9-11z"/><path class="st3" d="m402.9 275.1-9.7.4s.3 7 5 5.8c4.1-1.1 4.7-6.2 4.7-6.2z"/><path class="st4" d="M379.9 276s-.5 19.7 19.7 17.2c20.2-2.6 16.8-18.6 16.8-18.6l-36.5 1.4z"/><path class="st0" d="M452 329c-17.9.2-36.2-1.7-39.5-1-6.1 1.4-13.4 18.3 1.7 24.4 10.9 3.7 70.6 2.9 78-2.3 7.3-5.1 11.5-19.5-2.9-22.5-6.7-1.3-21.8 1.2-37.3 1.4z"/><path class="st3" d="M414.6 335.4s50.5 1.2 67.3-2.2c4.5 2.4 9 6.7 7.8 9.3-10 6.6-22.9 3.3-22.9 3.3s-6.9 3.6-15.2-.4c-7.3 3.2-15.6-.8-15.6-.8s-6.2 4-12.1-.7c-5.4 1.4-5.8 2.9-9.5.2-3.8-2.8.2-8.7.2-8.7z"/><path class="st4" d="m466.8 345.7-.9-10.2M451.6 345.4l-.2-9.9M436 344.6l-.5-9.1M423.9 343.9c-.4-1.1-.9-8-.9-8"/><path class="st17" d="M432.2 346c-5.4 4.4-11.9 19.5 1.7 25.9 6.4 2.4 40.7.8 48-2.2s5.7-17-1.7-22.9c-7.6-5.9-42.6-5.2-48-.8z"/><path class="st2" d="M436.2 353.4c-2.7 1.8-2.9 12.1 2 13.7 4.9 1.6 35.7.5 36.9-2.9 1.2-3.4 1.8-9.8-2.8-11.5-4.5-1.6-33.4-1.2-36.1.7z"/><path class="st2" d="M436.2 353.4c-1.4.9-2.1 3.9-1.9 6.9.2 3 41.6-.2 41.6-.2.2-3-.6-6.3-3.6-7.4-4.5-1.6-33.4-1.2-36.1.7z"/><path class="st3" d="M476.2 286s-4.2 30.7-.2 31.9c4 1.2 37.5-19.6 40-29.2 2.5-9.6.9-38.2.6-47.9-19.3-1-34.4 30.5-34.4 30.5s-9.1-.8-7.6 6.1c-4.6 4.4 1.6 8.6 1.6 8.6z"/><path class="st0" d="M517.3 257.9c-.2-7-.5-13.4-.6-17.1-6.8-.4-13.1 3.3-18.3 8.2-.3 3.3 12.1 11 18.9 8.9zM487.5 262.2c1.7-2.6 3.7-5.4 6-8.2 0 0 12.3 9.3 9.9 12.1-2.3 2.8-12.4-.9-15.9-3.9z"/><path class="st6" d="M510.7 272.6c-19.3-1-28.5-1.3-28.5-1.3s-9.1-.8-7.6 6.1c0 0 9.4 11.1 20.8 11.3 17.8-.1 15.3-16.1 15.3-16.1z"/><path class="st7" d="M510.7 272.6c-6.4-.3-11.7-.6-15.9-.8l.7 17c17.7-.2 15.2-16.2 15.2-16.2z"/><path class="st4" d="M510.7 272.6c-19.3-1-28.5-1.3-28.5-1.3s-9.1-.8-7.6 6.1c0 0 9.4 11.1 20.8 11.3 17.8-.1 15.3-16.1 15.3-16.1z"/><path class="st3" d="M502.8 272.1c-13.9-.7-20.5-.9-20.5-.9s1.4 11.4 11.1 10.5c9.7-.8 11.8-9.4 9.4-9.6z"/><path class="st3" d="m497.1 271.9-6.2-.3s-1.9 6.1 2.1 6.2c3.9.1 4.1-5.9 4.1-5.9z"/><path class="st0" d="M474.5 304.2c.2-3.7.5-7.6.9-10.8.1 1.1 13.1 3.7 14.2 6.6 1.1 2.9-.7 5.1-3 6.8-2.4 1.6-12.1-2.6-12.1-2.6z"/><path class="st6" d="M580.9 308.8c8.4 5.9.2.1.2.1s24 13 25 19.3c1.4-.2 4.2-3 7.1-6.6 10.6 4.7 9.3-11.8 8.9-18.1-.4-6.3-5.3-14.9-6.2-26.4-.9-11.4-5.8-20.7-16.4-30.6 12.1-4.8 20.4-18.9 7.2-37.4-27.5 6.2-34.6 16.3-31 34-10.3.9-16.1 4.2-19 9.2-3 5.1-1.8 26.2 4.2 37.2 5.9 11 11.6 13.4 20 19.3z"/><path class="st9" d="M572.4 291.7c12.8 11.7 24.8 9.7 29.3 13.3 4.5 3.5 8.5 20.3 11.4 16.7 10.6 4.7 9.3-11.8 8.9-18.1-.4-6.3-5.3-14.9-6.2-26.4-.9-11.4-5.8-20.7-16.4-30.6 12.1-4.8 20.4-18.9 7.2-37.4-27.5 6.2-34.6 16.3-31 34-10.3.9-16.1 4.2-19 9.2-3 5 3 27.6 15.8 39.3z"/><path d="M613.2 224.3c-.6-4.6-2.6-9.7-6.6-15.2-5.1 1.1-9.5 2.4-13.2 3.9-.3 2.8 9.6 14.5 19.8 11.3z"/><path class="st6" d="M591.9 284.2c-5.2 2.2-11.2-.3-13.4-5.5s.3-11.2 5.5-13.4c5.2-2.2 11.2.3 13.4 5.5 2.2 5.2-.3 11.2-5.5 13.4z"/><path class="st7" d="M578.5 278.7c-2.2-5.2.3-11.2 5.5-13.4 5.2-2.2 11.2.3 13.4 5.5l-18.9 7.9z"/><path class="st3" d="M588.8 278.1c-1.8.8-3.8-.1-4.6-1.9-.8-1.8.1-3.8 1.9-4.6s3.8.1 4.6 1.9c.7 1.8-.1 3.9-1.9 4.6z"/><path class="st4" d="M591.9 284.2c-5.2 2.2-11.2-.3-13.4-5.5s.3-11.2 5.5-13.4c5.2-2.2 11.2.3 13.4 5.5 2.2 5.2-.3 11.2-5.5 13.4zM570.5 253.5c-.1 2.2-1.9 3.9-4.1 3.9-2.2-.1-3.9-1.9-3.9-4.1.1-2.2 1.9-3.9 4.1-3.9 2.2.1 3.9 1.9 3.9 4.1zM585.3 253.8c-.1 2.2-1.9 3.9-4.1 3.9-2.2-.1-3.9-1.9-3.9-4.1.1-2.2 1.9-3.9 4.1-3.9 2.2.1 4 1.9 3.9 4.1zM593.7 235.2c-.1 2.2-1.9 3.9-4.1 3.9-2.2-.1-3.9-1.9-3.9-4.1.1-2.2 1.9-3.9 4.1-3.9 2.2.1 4 1.9 3.9 4.1zM602.8 258.8c-.1 2.2-1.9 3.9-4.1 3.9-2.2-.1-3.9-1.9-3.9-4.1.1-2.2 1.9-3.9 4.1-3.9 2.3.1 4 1.9 3.9 4.1zM611.4 284.1c-.1 2.2-1.9 3.9-4.1 3.9-2.2-.1-3.9-1.9-3.9-4.1.1-2.2 1.9-3.9 4.1-3.9 2.2.1 3.9 1.9 3.9 4.1zM618.3 303.7c-.1 2.2-1.9 3.9-4.1 3.9-2.2-.1-3.9-1.9-3.9-4.1.1-2.2 1.9-3.9 4.1-3.9 2.2 0 3.9 1.9 3.9 4.1zM595.7 293.4c-.1 2.2-1.9 3.9-4.1 3.9-2.2-.1-3.9-1.9-3.9-4.1.1-2.2 1.9-3.9 4.1-3.9 2.2.1 4 1.9 3.9 4.1zM576 282.7c-.1 2.2-1.9 3.9-4.1 3.9-2.2-.1-3.9-1.9-3.9-4.1.1-2.2 1.9-3.9 4.1-3.9 2.3 0 4 1.9 3.9 4.1zM570.8 266c-.1 2.2-1.9 3.9-4.1 3.9-2.2-.1-3.9-1.9-3.9-4.1.1-2.2 1.9-3.9 4.1-3.9 2.2.1 3.9 1.9 3.9 4.1zM556.9 275.4l6.3-1.6M558.9 283.4l4.7-3.3M562.2 290.3l3.5-3.3M566.6 296.7l3.5-3.9M572.2 302l3.5-5.1M578.3 306.1l4.2-5M584.5 310.3l3.5-3.9M590.1 312.7l3.6-3.4M589.1 215.7c7.6 16.1 23.6 15.4 23.6 15.4"/><path class="st4" d="M580.9 308.8c8.4 5.9.2.1.2.1s24 13 25 19.3c1.4-.2 4.2-3 7.1-6.6 10.6 4.7 9.3-11.8 8.9-18.1-.4-6.3-5.3-14.9-6.2-26.4-.9-11.4-5.8-20.7-16.4-30.6 12.1-4.8 20.4-18.9 7.2-37.4-27.5 6.2-34.6 16.3-31 34-10.3.9-16.1 4.2-19 9.2-3 5.1-1.8 26.2 4.2 37.2 5.9 11 11.6 13.4 20 19.3z"/><path class="st4" d="M612.3 315.5s-2.1 5.4.9 6.1M606.1 328.2c1.4-.2.1-10.2-8.9-17.3"/><path class="st6" d="M605.5 322.1c1.3 3.4 1.2 6 .5 6.1 0 0-21.7 12-25.6-2.1 13.3 3 24.1-2.1 25.1-4z"/><path class="st7" d="M596.1 326.2c5.3-1.1 8.8-3.1 9.4-4.1 1.3 3.4 1.2 6 .5 6.1 0 0-3.7 2.1-8.4 3.5.1 0-1.4-5.1-1.5-5.5z"/><path class="st6" d="M602.1 315.9c1.6 2.2 2.7 4.3 3.4 6.2 1.3 3.4-23.6 10.1-24.1-2.1 9.4 2.1 16.7-1.1 20.7-4.1z"/><path class="st7" d="M593.8 319.9c3.5-.9 6.3-2.5 8.3-4 1.6 2.2 2.7 4.3 3.4 6.2.6 1.5-4 3.6-9.3 4.5l-2.4-6.7z"/><path class="st4" d="M605.5 322.1c1.3 3.4 1.2 6 .5 6.1 0 0-21.7 12-25.6-2.1 13.3 3 24.1-2.1 25.1-4z"/><path class="st4" d="M602.1 315.9c1.6 2.2 2.7 4.3 3.4 6.2 1.3 3.4-23.6 10.1-24.1-2.1 9.4 2.1 16.7-1.1 20.7-4.1z"/><path class="st1" d="M562.6 372.4s-3.8-16.1-9.7-17.6c-5.9-1.4-11 .7-12.9 3.4-2 2.8 0 13.2 4 14.4 8.3 2.5 11.8-2 11.8-2s9.7 61 11.8 59.9c5.4-2.9 4-54.6 5.4-64.1 2.1 6.5 10.5 6.3 12.5 1.1 2-5.3.9-15.1-7.8-16.6-3.7-.7-9.6.4-12 2.5-3.1 3-3.1 19-3.1 19z"/><path class="st4" d="M573 366.6c-.7-3.8 1.2-5.5 6.2-4.4M548.4 365.2c2-4.9 6.9-2.5 7.5 5.5"/><path class="st6" d="M738.8 291.8s-12.8-11.1-25-4.6c-12.1 6.5-15.4 24.1-15.4 24.1s14.8-.2 24.1-8.5c9.4-8.3 16.3-11 16.3-11z"/><path class="st10" d="M727.7 298.6c6.6-5.1 11.1-6.8 11.1-6.8s-12.8-11.1-25-4.6c3.4 2.3 12.3 12.6 13.9 11.4z"/><path class="st7" d="M706.4 293.7c-6 7.7-7.9 17.6-7.9 17.6s11.5-.2 20.6-5.9c1.2-.7-12.7-11.7-12.7-11.7z"/><path class="st4" d="M738.8 291.8s-12.8-11.1-25-4.6c-12.1 6.5-15.4 24.1-15.4 24.1s14.8-.2 24.1-8.5c9.4-8.3 16.3-11 16.3-11z"/><path class="st4" d="M698.5 311.3s7.6-7.2 16.9-15.5c9.3-8.3 23.5-4 23.5-4"/><path class="st6" d="M701.5 161.5c-1.7 1.7-9.9 53.9-10.6 62.4-.8 8.5 14.6 10.1 17.6 3.3 3-6.8.9-59.8-.2-63.8-1-4.1-5-3.6-6.8-1.9z"/><path class="st4" d="m700.1 220.7 3.3-41"/><path class="st7" d="M691.6 218.2c-.3 2.6-.6 4.5-.7 5.7-.8 8.5 14.6 10.1 17.6 3.3.6-1.2.9-4.1 1.2-8l-18.1-1z"/><path class="st4" d="M701.5 161.5c-1.7 1.7-9.9 53.9-10.6 62.4-.8 8.5 14.6 10.1 17.6 3.3 3-6.8.9-59.8-.2-63.8-1-4.1-5-3.6-6.8-1.9zM683.3 221.8l-4.9-45"/><path class="st7" d="M672 219.5c.1 2.4.3 4.4.7 5.6 2.6 9.8 18.5 11.3 19.5-3.5.1-1.4.1-3.2 0-5.1l-20.2 3z"/><path class="st4" d="M672.6 225.2c2.6 9.8 18.5 11.3 19.5-3.5.9-14.8-8.9-57.8-11.1-60.7-2.2-2.9-5.1-3-5.7-.7-.6 2.2-5.3 55.1-2.7 64.9z"/><path class="st16" d="M485.3 523.9c4.5.7 8-2.1 4.7-7.3"/><path class="st0" d="M237.9 724c-5.4 5.2-.4 46.4-2.8 51.6-2.4 5.3-.5 22.8 8.1 12.4s3.1-34.1 4-39.4 12.5-14.1 7.4-24.9c-2.1-3.1-11.2-4.9-16.7.3z"/><path class="st12" d="M235.3 739.6c-.2 14 1.4 32.6-.2 36.1-2.4 5.3-.5 22.8 8.1 12.4s3.1-34.1 4-39.4c-1.5-6.6-7.7-10.2-11.9-9.1z"/><path class="st0" d="M212.5 770.5c9.9-2 30.5-3.1 32.3 13.7 1.9 16.8-15.3 34.6-33.4 28.1-5.3-.1-32.1 5.3-32.1 5.3s-14.4-3.4-23.5-2.1c-9.2 1.3-30.6 9.1-36 11.3-5.4 2.2-12.2 1.2-13.6-1.8-.4-13.7 54.5-23 54.5-23s-64 6.8-70 5.1c-6-1.7-5.9-5.5-4.3-9.2s59.5-9.9 64.9-14.4c-3-2.3-26.6 1.6-30.4-.7-3.7-2.4-3.4-14.5 1.9-15.9 5.4-1.4 28.9-.1 35.8-2.2 6.9-2.1 32-3 32-3l8 13.9c.1-.1 4-3 13.9-5.1z"/><path class="st4" d="M184.3 806.3c-3.6-7.7-23.5-4.4-23.5-4.4"/><path class="st3" d="M174.6 801.5c-6.5-.7-13.8.5-13.8.5s1.7 25.1 5.5 24.5c3.8-.8 7.4-23.5 8.3-25z"/><path class="st12" d="M193 792.1c.7 3 13.3 17-13.5 25.5-3.8.7.3 18.3 3.4 17.6 39.7-8.2 26.8-40.4 23.1-44.3-3.8-3.9-13.7-1.9-13 1.2z"/><path class="st7" d="M164 764.8s-4.9 15.8 12.5 17c10.6.3 16.2-8.7 16.2-8.7l-1.9-14.5-26.8 6.2z"/><path class="st6" d="m176.9 761.8-12.9 3s-4.9 15.8 12.5 17l.4-20z"/><path class="st3" d="M182.1 767.5c-.1 2.9-2.5 5.3-5.4 5.2-2.9-.1-5.3-2.5-5.2-5.4.1-2.9 2.5-5.3 5.4-5.2 3 0 5.3 2.5 5.2 5.4z"/><path class="st4" d="M164 764.8s-4.9 15.8 12.5 17c10.6.3 16.2-8.7 16.2-8.7l-1.9-14.5-26.8 6.2z"/><path class="st2" d="M156.6 757.8c-3.1 1.5-.9 7.6 1.3 9.2 2.2 1.6 17.6-3.4 31.9-.8 1.5 2.3-4.9 14.3 11.8 16.2 6.1-.6 11.5-5 10.9-11.9-2.1-9.2-12-4.8-12-4.8s.2-6.8-6.6-10c-6.8-3.3-34.3.6-37.3 2.1z"/><path class="st4" d="M202.5 774.8c-2.2-2.3-2.1-9.2-2.1-9.2M384 798.4l8-.3M386.2 784.6l7.4-.4M386.4 771.1l6.8-.9M388.9 761l5.5-.5M389.3 750.9l4.6-1.4M365.1 733l1.3-7.4M353.7 732.7l1.9-7.9M342.2 733.6l3.1-9.1M333.2 733l1.3-8.5"/><path class="st1" d="m334.8 756.8 1.9 17.5 14.3 4.1 14.9-2.3 3.7 18.8 10 10.1 4.4-23.1 1.8-26.6-5.1-11.1-9-4.4-16.8 1.1z"/><path class="st1" d="M324.6 733.2s47.3-.6 50.1 1.2c2.8 1.8 11.2 10 13.3 15.1 2.2 5.2-3.7 60.3-5 68.1-2.6-.9-6.5-4.6-6.7-9.1-.2-6.4 8-46 7-52.8s-4.9-7.5-9-7.1c-4 .5-2 13.1-4.9 14.1-2.9 1.1-25.6-.6-27.9.5-2.3 1.1-.3 5.2 1 7.4 2.2 4 17.1 1.6 17.1 1.6 1.7 1.2.9 8 .9 8s-17.7 3-28.4-4.7c-5.2 1.6-39 7.6-39 7.6l-.9-9.7s13.9-8.2 21.3-9.7c-.5-3.4 0-5.3.6-8.2.6-2.8 7.3-10.4 7.3-10.4l3.2-11.9z"/><path class="st2" d="M324.6 733.2s10.7-.1 22.2-.1l-.9 14.8s17.1 1 19.3 1.6c2.3.6 2.1 6.3.4 6.8-1.7.5-31.3-2.5-33.6.3-2.3 2.8-.9 13.7.1 18.8-5.2 1.6-39 7.6-39 7.6l-.9-9.7s13.9-8.2 21.3-9.7c-.5-3.4 0-5.3.6-8.2.6-2.8 7.3-10.4 7.3-10.4l3.2-11.8z"/><path class="st4" d="M345.9 747.9s-17.1-1-20 3.5c-3 4.5-1.6 17.1-1.6 17.1l-32.7 9.5"/><path class="st1" d="m293.2 783.1-.9-9.7-7.5 2.7s-15.6-16.3-17.8-16.4c-2.3-.1-9.3 8.9-8.8 11.2s18.4 17.6 21.2 17.6c2.8.1 13.8-5.4 13.8-5.4z"/><path class="st4" d="M342.1 767.6s30.4.5 32.7 0 2.8-12.6 2.8-12.6M271 763.6c-2.3-.1-9.3 8.9-8.8 11.2M263.3 769.9l-3.4-3M266.2 766l-2.2-2.9"/><path class="st1" d="M360.5 780.2s1.8-4.5-.9-8c-2.8-3.5 14.3-3.6 16-1.9 1.7 1.7-2.2 20.5-1.7 23.3.5 2.9 3.2 7.5 3.2 9.8-.1 2.3-16.1 4.2-16.6 1.9-.6-2.3 3.9-21.6 0-25.1z"/><path class="st4" d="m375.5 797.1-13.7.8M364.6 798.6l.4 6.8M370 797.5l.9 6.3M403.9 839l-1.2-10.5M409.8 840.1l-2.6-12M415.3 839.3l-3.5-11.7M421 839.4l-4.1-11.7M426.9 840l-4.3-13.2M432 840.1l-3.9-13.1M437.7 839.6l-4.2-12.6M443 838.8l-3.9-11.5M448.6 838.8l-4.1-12.1M453.7 838.3l-3.2-11.5M459.4 838.8l-3.1-11.2M463.9 839.3l-2.5-11.6M468.9 838.7l-3-10.9M474.2 838.4l-3.5-11.8M479.3 840.1l-3.7-13.4M484 840.2l-4.2-13.8M488.6 840.3l-3.5-13.4M493.6 839.3l-2.8-13M499.8 840l-3.1-12.6M504.9 839.9l-3.6-13.5"/><path class="st2" d="M605.2 725.7s-13.7 1.4-20.6 2.3c-6.9 1-13.8 5.4-13.8 5.4s-25.3 9.6-30.3 26.6c-3.1 10.6-4.3 35.8 15.9 47.7 20.2 11.9 55.6 9.9 64.1-10.4 4.9-12.4.9-38.7-17.1-46-18.1-7.3-21.1-.5-21.1-.5"/><path class="st1" d="M550.2 783.1c5.8 17.8 21 27.3 41.1 22.1 20.1-5.2 26.5-12.5 20.7-32-5.8-19.5-27.6-14.9-27.6-14.9l3.2 9.2s17.2-3 18.5 12.4c1.3 15.4-13.5 20.7-29 18.7-12.3-1.6-14.8-6.2-18.7-19.7-2.5-8.4 14.1-23.2 19.9-26.5 5.8-3.3 15.5-5.9 25.8-4.5 10.2 2.5 23.4.6 23.4.6l4.1-5.6s3.5-5.1.8-9.1c-7.4-1.3-39.4 3.6-54.9 8.4-15.5 4.7-33.1 23.1-27.3 40.9z"/><path class="st6" d="M608.2 732.3c-.1 4.4-3.8 7.9-8.2 7.8-4.4-.1-7.9-3.8-7.8-8.2.1-4.4 3.8-7.9 8.2-7.8 4.4.2 7.9 3.8 7.8 8.2z"/><path class="st7" d="m608.2 732.3-16-.4c.1-4.4 3.8-7.9 8.2-7.8 4.4.2 7.9 3.8 7.8 8.2z"/><path class="st3" d="M603.4 732.4c0 1.8-1.5 3.2-3.3 3.2-1.8 0-3.2-1.5-3.2-3.3 0-1.8 1.5-3.2 3.3-3.2 1.8 0 3.2 1.5 3.2 3.3z"/><path class="st4" d="M608.2 732.3c-.1 4.4-3.8 7.9-8.2 7.8-4.4-.1-7.9-3.8-7.8-8.2.1-4.4 3.8-7.9 8.2-7.8 4.4.2 7.9 3.8 7.8 8.2z"/><path class="st2" d="M583.5 725.8c-2.9 3.4-2 12.5.8 13.7 2.8 1.2 5.1.7 6.8-.4 1.7-1.1.5-7.6 2.3-11 1.8-3.4 16.2-2.8 16.2-2.8s-.5-3.4-5.6-5.8c-4.9-2.5-17.5 2.9-20.5 6.3z"/><path class="st6" d="M612.8 758c2 2.2 3.6 4.6 4.9 7.2 12.3-8.1 15.9-14.3 13.8-22.3-3.2-2.1-8.2-2.4-13.1-1.9 1.1 6.2 1 10.7-5.6 17z"/><path class="st7" d="M618.5 749.3c4.4-1.5 10.6-.8 13.2.9.6-2.3.5-4.7-.1-7.3-3.2-2.1-8.2-2.4-13.1-1.9.5 3 .7 5.7 0 8.3z"/><path class="st4" d="M612.8 758c2 2.2 3.6 4.6 4.9 7.2 12.3-8.1 15.9-14.3 13.8-22.3-3.2-2.1-8.2-2.4-13.1-1.9 1.1 6.2 1 10.7-5.6 17z"/><path class="st4" d="M615.7 761.9c12.2-10.5 10.2-19.7 10.2-19.7"/><path class="st6" d="M644.7 721c-.7 5.1 8.5 49.2 10.7 53.8 2.2 4.6 11.3 2.6 11.4-1.4.1-4-1.9-38.2-4.5-49.7s-16.9-7.8-17.6-2.7z"/><path class="st4" d="m654.7 730.9 6.4 40.1"/><path class="st7" d="M644.7 721c-.3 1.9.8 9 2.4 17.4 2.9-1.9 12.1-2.8 17.3-.3-.6-5.8-1.3-11-2.1-14.3-2.6-11.6-16.9-7.9-17.6-2.8z"/><path class="st4" d="M644.7 721c-.7 5.1 8.5 49.2 10.7 53.8 2.2 4.6 11.3 2.6 11.4-1.4.1-4-1.9-38.2-4.5-49.7s-16.9-7.8-17.6-2.7z"/><path class="st6" d="M751.8 723c-8 2.7-4.5 19.8 2.9 21.2 7.4 1.3 67.4-4.1 69.1-6.3 1.8-2.2 1.9-9.1-2-10.3-4-1.3-62-7.2-70-4.6z"/><path class="st4" d="m769.2 733.7 50.2-1.1"/><path class="st7" d="M773.5 722.8c-10.3-.6-18.9-.7-21.7.2-8 2.7-4.5 19.8 2.9 21.2 2.5.4 11.3.1 21.7-.6l-2.9-20.8z"/><path class="st4" d="M751.8 723c-8 2.7-4.5 19.8 2.9 21.2 7.4 1.3 67.4-4.1 69.1-6.3 1.8-2.2 1.9-9.1-2-10.3-4-1.3-62-7.2-70-4.6z"/><path class="st6" d="M754.7 744.2c-8 2.1-7.7 10.7-4.4 15.3 3.3 4.6 68.9 4 71.8 1.2 2.9-2.8 3-7.9-.9-10.9s-58.5-7.7-66.5-5.6z"/><path class="st4" d="m761.9 751.7 57.5 2.6"/><path class="st7" d="M766.7 743.7c-5.7-.2-10.1 0-12 .4-8 2.1-7.7 10.7-4.4 15.3 1 1.4 7.6 2.3 16.5 2.8l-.1-18.5z"/><path class="st4" d="M754.7 744.2c-8 2.1-7.7 10.7-4.4 15.3 3.3 4.6 68.9 4 71.8 1.2 2.9-2.8 3-7.9-.9-10.9s-58.5-7.7-66.5-5.6z"/><path class="st3" d="m480.1 783.7.9 11.4-17.7-.4.9-13.1 13.2-2z"/><path class="st4" d="m473.5 774.4-.5 22.2"/><path class="st0" d="m446.2 794.8.5-20.5h21.1l-1.1 20.5z"/><path class="st0" d="m421.2 790.8.2 16 62.1.9.4-15.4z"/><path style="fill:#d87100;stroke:#000;stroke-width:3.5411;stroke-linecap:round;stroke-linejoin:round" d="m428.3 758.5.5-23.4 46.2 1.1-1.2 25.1z"/><path class="st2" d="M435.5 741.6c-2.3 1.1-2.5 7.3-.2 9.1 2.2 1.8 29.6 3 31.9 1.9 2.3-1.1 1.9-9.6-.3-10.3-2.3-.6-29.1-1.8-31.4-.7z"/><path class="st4" d="m438.8 741.1-.3 9.6M444.1 741.2l-.8 9.7M449.8 741.9l-.3 10.2M456.6 742.6l.3 9.7M462.9 742.8l.3 8"/><path class="st3" d="m421.5 755.5-1.1 24.4 59.7 3.8-1.7-24z"/><path class="st0" d="m428.2 761.9-.8 11.6 43.2 3.7.2-12.2z"/><path class="st6" d="M433.1 678.2s-8.3 11.2-29.1 22.7c1.5 8.6 11.4 22.5 16.5 24.9 42.6-18.4 37.6-46.4 37.6-46.4l-25-1.2z"/><path class="st9" d="m449 679-16-.8s-8.3 11.2-29.1 22.7c.9 5.2 4.8 12.2 8.9 17.6C455.5 695.9 449 679 449 679z"/><path class="st10" d="M439.7 699.8c5.5-5.6 8-10.3 9-13.8l-19.6-3.3c-1.9 1.9-4.5 4.3-7.9 7l18.5 10.1zM415.6 693.7c-3.3 2.3-7.2 4.7-11.6 7.1.9 5.2 4.8 12.2 8.9 17.6 7.5-4 13.4-7.8 18.2-11.3l-15.5-13.4z"/><path class="st4" d="m420.1 697.3-9.3 7.7M423.4 700.8l-8.7 7.8M426.7 706.6l-8.7 6.6M435.8 682.9l-8.8 9.4M439.8 684.7l-7.1 8.9M445.4 688.2l-9.4 10.6M428 722l-2.1-6.9M433.8 717.6l-1.5-6.3M440.8 712.6l-3.3-5.2M446.6 708.2l-3.3-5.8M452 699.2l-4.5-4.1M433.1 678.2s-8.3 11.2-29.1 22.7c1.5 8.6 11.4 22.5 16.5 24.9 42.6-18.4 37.6-46.4 37.6-46.4l-25-1.2z"/><path class="st6" d="M420.5 725.8c4.2-8.4-3.9-28-16.5-24.9-12.6 3.1-25 19.3-28.5 24.4-3.5 5.1.8 15.4 9.3 16.2 14.2 1.5 31.5-7.2 35.7-15.7z"/><path class="st7" d="M420.5 725.8c4.2-8.4-3.9-28-16.5-24.9-12.6 3.1-25 19.3-28.5 24.4-1.6 2.3-1.6 5.8-.3 8.9.5 1.2 18.7-15.8 23.1-11.2 4.5 4.7-18.5 17-16.8 17.7 1 .4 2.1.7 3.2.8 14.3 1.5 31.6-7.2 35.8-15.7z"/><path class="st4" d="M420.5 725.8c4.2-8.4-3.9-28-16.5-24.9-12.6 3.1-25 19.3-28.5 24.4-3.5 5.1.8 15.4 9.3 16.2 14.2 1.5 31.5-7.2 35.7-15.7z"/><path class="st6" d="M452.5 677.5s-2 34.7 29.1 46.9c31.1 12.2 56.8 7.1 74.2 20.6 17.3 13.5 21 50.1 21.5 53.5.5 3.4 11.4 1.4 13.2-5.4 1.9-6.8 7.7-36.9-30.2-73.1-6.7-4.2-55.6-10.5-70.8-18.8s-22.2-25-22.2-25l-14.8 1.3z"/><path class="st9" d="M455.3 677.1s5.6 28.6 30.4 40.1c31.1 12.2 57.3 9.4 74.7 22.9 17.3 13.5 21.1 44.4 22.9 59.7 3-.9 6.2-3.1 7.1-6.5 1.9-6.8 7.7-36.9-30.2-73.1-6.7-4.2-55.6-10.5-70.8-18.8-15.2-8.4-22.2-25.1-22.2-25.1l-11.9.8z"/><path class="st10" d="M560.4 740c3.2 2.4 5.8 5.5 8.2 8.9l11.2-5.6c-2.9-4.6-6.4-9.3-10.8-14.3l-8.6 11zM539.5 730.6c4.9 1.3 9.4 2.8 13.5 4.8l9.9-12.8c-.8-.8-1.7-1.7-2.6-2.5-2.1-1.3-8.1-2.7-15.9-4.4l-4.9 14.9zM494.2 720.1c4.7 1.5 9.2 2.7 13.6 3.7l6.6-14.6c-5.5-1.3-10.8-2.7-15.4-4.1l-4.8 15zM473.9 687.2c-4.4-5.9-6.6-11-6.6-11l-12 .9s1.7 8.7 7.4 18.5l11.2-8.4zM470 705.4c4.1 4.5 9.3 8.7 15.8 11.7l7.7-14c-1.5-.6-2.8-1.2-3.9-1.8-3-1.6-5.7-3.6-8.1-5.7l-11.5 9.8zM516.2 725.7c5.3 1.1 10.4 2 15.2 3l3.4-15.1c-5.3-1.1-10.9-2.3-16.4-3.5l-2.2 15.6zM570.3 751.7c2.3 3.8 4.1 8 5.7 12.3l11.7-4.7c-1.3-3.6-3-7.3-5.2-11.3l-12.2 3.7zM578 770.1c1.6 5.5 2.7 11.1 3.5 16.2l10.4-3.2c.2-4.8-.3-11-2.4-18.2l-11.5 5.2z"/><path class="st4" d="M452.5 677.5s-2 34.7 29.1 46.9c31.1 12.2 56.8 7.1 74.2 20.6 17.3 13.5 21 50.1 21.5 53.5.5 3.4 11.4 1.4 13.2-5.4 1.9-6.8 7.7-36.9-30.2-73.1-6.7-4.2-55.6-10.5-70.8-18.8s-22.2-25-22.2-25l-14.8 1.3zM573.2 751.7l4.9 9.8M459.7 686.3l4.4 6.9M464.3 684.1l4.4 6.4M475.1 706.6l9.6 5.4M478.1 701l10.7 7.6M500.1 711.2l10.2 1.4M498.9 715.7l8.5 2.5M518.8 715.1l12.5 3.1M519.8 721.4l10.8 2.5M546.1 720.3l10.7 6M543.1 726.5l9 4.8M562.2 736.1l7.8 9.3M567.4 734.5l5 6.9M577.3 750.1l4.9 9.3M581.1 771.9l2.1 9.7M585.5 770.8l2.1 8.6M459.4 697.1 457 701M463.3 702.3l-1.8 4.5M470 708.8l-3.6 5M474.9 715.1l-2 4M481.1 718.7l-1.8 3.9M487.3 722.3l-.1 2.8M494.7 723l-.7 4M502.6 725.5l-1.2 4M509.4 726.8l-.6 4M517.4 728.1l-.7 3.5M524.7 730v2.3M531.5 731.9l-1.2 3.4M538.4 732.6l-1.3 3.4M545.1 735.7l-2.3 2.2M553.1 737.6l-2.4 2.8M559.7 743.4l-4 1.6M568.6 754.5l-2.9 1M564.6 748.7l-2.9 1M571.8 761.8l-2.7 1.8M575.4 768.7l-2.6 1.3M577.2 776.3l-2.9 1.1M578.2 782.1l-2.3 1.6M579.2 788.9l-2.9 1.1"/><path class="st2" d="M326.1 717.2c2.2 2.9 1 6.9 1 6.9s2.8 2.3-1.3 7.4c-4.1 2.8-25.7 3.4-25.7 3.4l-27.1-9.8s-1.7-6.7 2.5-9.6c2.7-1.8 9.9-4 12.2-2.8 2.3 1.2 12.3 4.5 15.7 4.6 3.3 0 20.5-3 22.7-.1z"/><path class="st1" d="M321.5 745.1c2.3-1.1 7-7.8 2.6-14.2-2.2-1.8-17.7.7-23.3-1.1-5.7-1.8-14.6-8.9-27.8-4.7-3.5 2.8-1.3 6.8 2.7 8 3.3 4.1 7.2 8.7 7.2 8.7s12.4 6 18.1 6.1c5.6.2 18.1-1.8 20.5-2.8z"/><path class="st4" d="M272.9 725.1c-3.5 2.8-1.3 6.8 2.7 8 6.4-5.5 18.1 7.3 35.2 6.6"/><path class="st6" d="M285.2 733c-4-1.5-7.2-2-9.6.1 0 0-9.6 19.1 10.9 20.2-6.7-7-5.3-16.1-1.3-20.3z"/><path class="st7" d="M282.1 739.3c.5-2.5 1.6-4.7 3.1-6.2-4-1.5-7.2-2-9.6.1 0 0-.9 3.6-1.5 5.4 2-1.1 6.6-1.6 8 .7z"/><path class="st4" d="M285.2 733c-4-1.5-7.2-2-9.6.1 0 0-9.6 19.1 10.9 20.2-6.7-7-5.3-16.1-1.3-20.3zM273.5 723.9c3-7.7 12.4-6 25.3-1.1 13.2 5 28.3 1.3 28.3 1.3"/><path class="st7" d="M316.3 723.4c-.1 5.2-4.4 9.3-9.6 9.2s-9.3-4.4-9.2-9.6c.1-5.2 4.4-9.3 9.6-9.2 5.2.1 9.3 4.4 9.2 9.6z"/><path class="st6" d="M306.6 732.5c-5.2-.1-9.3-4.4-9.2-9.6.1-5.2 4.4-9.3 9.6-9.2.1 0 0 17.3-.4 18.8z"/><path class="st3" d="M310 722.6c0 1.7-1.5 3.1-3.2 3.1-1.7 0-3.1-1.5-3.1-3.2s1.5-3.1 3.2-3.1c1.8.1 3.2 1.5 3.1 3.2z"/><path class="st4" d="M316.3 723.4c-.1 5.2-4.4 9.3-9.6 9.2s-9.3-4.4-9.2-9.6c.1-5.2 4.4-9.3 9.6-9.2 5.2.1 9.3 4.4 9.2 9.6zM606.9 743.2s16.9-5.7 24.7-.3"/><path class="st0" d="M718.8 766.1s65.7-8.1 80.4-3.2c14.7 4.9 22.9 17.7 12.4 29.9-5.6-4.7-16.9-9.5-16.9-9.5l-53.8 7.8-31.5 6.6s1.9 14.3-2.8 21.6c-4.7 7.3-15.6 10.4-28.1 7.3-12.5-3.2-17.8-16.4-17.8-16.4l1.6-20.5 16.4-19 40.1-4.6z"/><path class="st2" d="M718.8 766.1s27-3.3 50.3-4.4l3.3 24.9-31.3 4.6-31.5 6.6s1.9 14.3-2.8 21.6-15.6 10.4-28.1 7.3-17.8-16.4-17.8-16.4l1.6-20.5 16.4-19 39.9-4.7z"/><path class="st6" d="M786.1 786.5c4.9 8.1 5.2 20.6 4.5 28s10.1 6.5 10.1 6.5.4-14.8 3.3-18.2c2.9-3.4-3.5-18.9-3.5-18.9s-19.3-5.5-14.4 2.6z"/><path class="st7" d="M786.1 786.5c2.1 3.5 3.4 7.8 4.1 12.1 5.4-2.8 11.1-2.6 14.1-2.6-1.1-5.5-3.8-12-3.8-12s-19.3-5.6-14.4 2.5z"/><path class="st4" d="M786.1 786.5c4.9 8.1 5.2 20.6 4.5 28s10.1 6.5 10.1 6.5.4-14.8 3.3-18.2c2.9-3.4-3.5-18.9-3.5-18.9s-19.3-5.5-14.4 2.6z"/><path class="st6" d="M761.5 790.5c4.9 9.2-2.4 26.7-4.1 29.5-1.8 2.8 5 5.3 8.5 1.4 6.4-5.5 7.6-30.6 7.6-30.6l-4.4-5.2s-12.5-4.3-7.6 4.9z"/><path class="st7" d="M761.5 790.5c1.7 3.2 1.9 7.2 1.5 11.4 2.3-1 6.2.2 9.1 2.1 1.1-7 1.4-13.2 1.4-13.2l-4.4-5.2s-12.5-4.3-7.6 4.9z"/><path class="st4" d="M761.5 790.5c4.9 9.2-2.4 26.7-4.1 29.5-1.8 2.8 5 5.3 8.5 1.4 6.4-5.5 7.6-30.6 7.6-30.6l-4.4-5.2s-12.5-4.3-7.6 4.9z"/><path class="st6" d="M772.4 787.3s2.9 22.3 2.1 32.5c2.8 1.2 6.8 1.9 9.2-1.5s2.5-31.9 2.5-31.9l-13.8.9z"/><path class="st7" d="M772.4 787.3s.7 5.6 1.3 12.4c3-2.6 8.7-2.5 12.1-.1.3-7 .3-13.1.3-13.1l-13.7.8z"/><path class="st4" d="M772.4 787.3s2.9 22.3 2.1 32.5c2.8 1.2 6.8 1.9 9.2-1.5s2.5-31.9 2.5-31.9l-13.8.9zM667.4 819l9.2-5.5M691.4 816.7l3.8 8.1M696.7 810l9.5 7.1M677.5 801l-8.2-13.3M688.5 795.6l-13.4-12.9M713.6 791.6l30.3-27.8M706.4 783.5l7.2 8.1M743.9 763.8c2.1 8.6 20.7 17.6 20.7 17.6"/><path class="st4" d="M768.9 765.8s-37 20.6-51 11.7"/><path class="st1" d="M696.3 802.6c20.5-.1 91-16 97.8-14.7 6.8 1.3 8.8 11.6 9.9 15.1 4.6-1 9.2-3.8 7.7-10.1-1.6-6.3-5.4-11-13.4-13.4-16.5-1.5-84.7 12.2-96.1 13.6-11.4 1.4-20.6 1.8-24.2 9.7-3.6 7.9.3 12.6 3.1 13.7 2.8 1.2 18.2 1.6 15.2-13.9z"/><path class="st4" d="M685.3 808.6c.1-2.8.8-8 11-6"/><path class="st0" d="M668.4 777.4c-10.4 4.3-14 11.6-14.8 23-.8 11.4-9.5 15.2-10.8 21.4-1.3 6.2 10.1 8.8 14.1 5.5 4.1-3.3 4.9-14.7 5.8-26.1.8-11.4 14.2-21.3 14.2-21.3s1.8-6.8-8.5-2.5z"/><path class="st3" d="M673.4 780.4s6 9.3 28.4 5.2c8-2.1 12.7-7.7 12.7-7.7l4.2-7.3s-10.7-3.7-12.4-3.7c-1.7 0-25.2 4.5-25.2 4.5l-7.7 9z"/><path class="st3" d="M708.6 773.1c-.1 4.7-4 8.5-8.7 8.3-4.7-.1-8.5-4-8.3-8.7.1-4.7 4-8.5 8.7-8.3 4.6 0 8.4 3.9 8.3 8.7z"/><path class="st3" d="M704 773.1c-.1 2.2-1.9 3.9-4.1 3.9-2.2-.1-3.9-1.9-3.9-4.1.1-2.2 1.9-3.9 4.1-3.9 2.2.1 4 2 3.9 4.1z"/><path class="st0" d="M666.8 773.4c-1.8 5.1-.2 9.1 4.3 10.4s8.8-11.2 43.1-12.6c1.7.6.5 4.6.4 6.8 6.2 2.4 9.8-3.2 9.3-7.2s-5.5-8.1-10-9.9c-12.6-3.2-45.3 7.4-47.1 12.5z"/><path class="st4" d="m174.5 245-9.6-3.6M173.3 250.7l-10.2-3.1M172.5 257.5l-9.6-1.9M171.8 263.8l-10.2-2.6M171.1 270l-9.7-1.4M168.1 276.8l-8.6-1.4M169.6 282.5l-10.8-1.4M168.9 290.5l-9.7-2M168.1 299.6l-11.3-4.3M181.4 336.4l-4.2 1M184.2 341.6l-5.8 2.1M184.6 347.3l-3.5 2.2M187.3 354.2l-5.2 2.1M187.7 360.5l-2.9 1.6M190.9 367.4l-5.1 1.6M194.2 374.3l-5.8 2.7M195.1 383.5l-3.4 2.2M196.7 390.3l-4.7 3.4M201.1 396.7l-5.8 4.4M201.4 405.8l-3.5 4.5M205.3 412.2l-5.3 5.6M206.8 419.7l-5.8 4.4M207.8 426l-4.7 3.3M209.9 432.8l-5.2 3.9M212.6 438.6l-4.6 3.9M214.1 446.1l-5.8 5.5M215.7 452.9l-4.1 4.5M217.2 459.2l-4.7 6.2M218.8 464.4l-2.9 6.8M224.4 469.7l-1.9 7.3M231.2 471.5l-.7 6.9M238.5 474l1 6.3M245.3 475.3l1.1 4.6M249.9 474.3l2.8 4M256.2 472.1l2.2 3M261.4 469.4l2.8 4.7M271.3 464.5l3.2 5.3M277 462.4l2.7 5.2M280.6 457.4l3.8 4.6M285.3 450.6l4.4 6.4M289.9 446.8l3.3 4M291.7 441.7l6.2 6.4M297.6 437.3l3.8 6.9M301.1 431.1l4.4 6.9M305.2 426l3.9 7.5M309.3 422.1l3.9 7M315.1 417.7l2.1 6.9M319.2 413.8l1.6 6.3M326.7 411.7l-1.3 6.8M329.3 421.5l5.2-1.6M328 426.6l6.9-1M328.5 431.7l7.9.8M328.4 436.9l7.9 1.3M328.2 443.7l7.9 2.5M328.6 450.5l8.5 3.1M327.3 457.9l8.5 1.9M327.7 464.2l9.6 2.5M327 469.9l11.9 4.3M326.2 479.5l12.4 3.8M326 485.8l14.2 4.3M327 493.2l11.3 3.7M327.3 501.8l13.1 3.2M326.6 508.6l7.9 3.1M328.5 517.2l7.5 3.1M564.4 480.8l.2 14.2M567.7 430.6l11 1.5M569.4 441l11.9 2M569.1 451.8l12.5 2M570.6 461.5l11.9 2M571.5 469l10.2 1.2M571.9 476.4l9.7 2.5M572.9 484.4l9.6 3.1M572.1 492.4l9 4.2M572.5 499.8l8.4 3M573.5 507.2l6.2 2.4M571 420.5l7.9 1.9M571.9 409.1l5.6 7M581.5 409.9l2.1 8.1M589.4 415.3l-.2 6.8M596.7 419.4l-.8 8.6M603.9 425.3l-2.4 7.3M609.5 430l-1.2 5.1M615.1 434.7l-1.8 5.6M620.7 438.2l-1.2 5.7M628 443l-1.8 5.6M633.6 446.5l-.7 6.9M639.8 450.1l-.7 6.3M644.8 455.4l-.1 6.8M652.2 458.9l-.2 5.2M658.3 463.7l.4 6.2M665.7 466.1l.4 6.3M670.8 467.4l1.5 8M677.6 469.3l2.6 6.9M685 468.9l3.8 5.8M692.4 466.8l4.7 4.9M699.9 463l5.6 3.5M704.1 455.1l5.7 1.8M707.1 447.7l5.1 1.3M709.7 438.1l4.9 1.4M709.3 430.7l6.2-.4M706.3 316.1l4 .6M706.2 322.9l3.8.6M706 329.7l4 .1M708.9 423.3l5.1-.5M709.6 416.4l4 .2M708.6 409l5.8-.4M708.3 402.2l4-.5M706.7 395.3l5.7-1M707.4 387.9l5.2-1M707.7 379.9l3.4-.5M707.9 370.4l4-.1M707.5 362.3h2.9M706.5 354.8l2.9-.5M706.8 346.3l4-.5M706.4 338.3l4-.5M705.4 284.7l7-5M705.6 275l7-5M706.4 266.5l3.3-3M706 258.5l4.6-2.6M705.1 249.3l6.4-4.4M704.8 240.8l6.3-4.4M178.8 279.3l1.8 19.4M199.3 281l.2 17.6M180.2 246.9l.6 19.9M185.4 245.9l1.7 20.5M192.2 245.4l1.2 21.7M198.4 246.2l1.2 22.2M185.1 279.5l1.8 18.8M191.4 280.2l1.8 17.7M187.6 316.6l5.3 17.2M193.3 315.6l5.3 17.2M198.5 315.7l4.7 14.9M194.2 351.5l5.8 17.3M199.4 349.9l5.2 17.3M203.9 349.5l5.4 14.9M210.8 347.4l5.9 14.9M203.2 380.8l5.3 16.7M208.9 380.9l5.3 15M214.6 379.4l4.8 14.3M222 377.8l4.3 14.4M213.2 413.5l5.9 16.2M218.4 412l5.8 17.2M224.1 409.8l5.9 16.7M230.4 408.3l6.5 14.9M221.5 446.8l8.3 9.3M223.9 440.6l8.9 10.5M230.3 437.3l6.7 7.6M232.1 432.2l8.4 7.7M233.6 464.8l9 5.3M237.7 459.2l9.5 7.6M242.4 454.2l7.8 7M243.8 446.2l10 9.9M245.2 435.4l9.2-4.3M249 442.3l9.3-7.2M252.3 447l7.6-6.1M256.7 451.7l7.6-6.1M258.3 458.5l8.1-6.6M257.5 419.8l7.6-8.4M260.8 423.8l10-9.4M263.5 430.1l11.1-9.4M268 434.8l12.8-12.2M271.9 438.3l12.8-9.9M277.4 444.7l10-10M298.5 420.7l8.8-7.7M295.3 414.4l8.1-7.8M290.2 410.3l10.5-7.8M285.2 405l11.1-8.3M281.4 399.8l9.9-8.3M275.8 394l8.2-7.2M293.3 377.3l12.2-7.7M296.6 380.8l10.5-6.6M299.4 386l12.1-6.6M303.8 392.9l13.8-7M308.2 397.6l13.3-6.5M312.7 401.7l12.1-6M314.3 406.3l14.9-5.3M261.1 153.6l-4.6 2.2M260.9 160.5l-4 2.2M261.9 167.3l-2.3 2.8M265.2 173.1l-2.3 3.6M268.4 181.2l-1.8 3.4M272.3 187l-3.2 3.5M277.2 193.9l-1.7 2.8M283.4 198.6l-4.1 5.6M288.9 205.6l-4.7 5.6M294.5 210.9l-2 4.2M367 232l2 5.5M375.5 231.6l3.3 5.8M384.6 231.9l3.5 4.6M394.3 231.5l3.6 4.3M402.3 230.6l3.1 4.5M409.8 229.6l3.8 5.3M416.7 227l4.4 4M421.9 222.5l3.9 3M424.4 215.2l7.9 3.6M429.1 206.7l4.5 4.1M431 199.4l2.8 2.3M470.2 206.6l-4.7 5M473.4 213.5l-3.4 5M477.8 219.3l-3.5 6.8M482.3 223.4l-1.9 6.2M487.9 226.4l-1.3 6.8M494.8 227.1l-.8 7.4M503.8 227.9l-2 6.7M511.2 229.2l-1.1 5.2M522 229.5l-2.1 5.6M528.3 231.9l-1.9 3.3M264.9 161.7l8.9 9.4M270.1 159l8.4 7M275.3 154.6l9 6.4M282.5 186.6l9.5 10M287.8 180.5l9.5 9.9M294.2 175.5l9.5 10M298.9 171.7l8.9 7.6M304.7 167.8l9.4 8.2M303.2 204.8l8.9 9.9M309.6 199.3l8.3 10.4M318.2 195.5l6.7 8.1M325.2 191.1l5.5 8.7M348.2 208.2 337 219.9M354.3 211.8l-11.1 11.7M361.1 215.3l-9.4 9.5M367.3 218.9l-10.5 9.5M371.7 221.9l-7.5 6.1M384.8 223.3l12.1-6.5M391 226.3l8.1-3.2M414.4 201.3l-7 8.3M420.6 204.8l-6.5 9M362.7 195.4l11.6-6.5M366.6 199.5l8.7-5.5M405.6 165.7l9.9-7.2M407.2 172l12.1-8.8M410.5 176.1l12.1-7.7M413.8 181.9l11-7.2M417.1 186.5l8.7-6.1M421.5 191.7l8.7-5.5M462.2 184.7l7.3 3.6M464.6 179.1l9 4.2M478.3 177.7l-10.7-4.8M470 165l10.7 5.4M472.5 157.6l6.2 4.2M475.8 207.9l10.7 5.4M482.3 201.8l7.8 3.6M483.6 194.4l10.1 4.2M487.2 186.5l10.1 4.2M493 180.9l11.3 4.9M501.1 176.6l3.9 2.9M497.2 219.8l7.9 3.6M501.3 215.9l9.6 3.6M518.5 188.4l10.7 4.8M527.3 223.9l6.7 4.8M533.7 219.5l5.6 4.2M537.6 213.9l5.6 5.9M543 209.3l5.2 6.2M547.9 204.3l5 6.4M537.2 239l4.4 7.5M543.5 236.9l3.8 7.5M549.3 234.7l4.9 7.6M555.6 230.9l5.5 8.7M562 228.8l6.1 6.4M571 209l-5.9 9.6M578.3 212.1l-6.4 8.9M584 191.1l-5.9 7.3M590.8 191.3l-9.9 10.6M595.9 194.8l-10.5 9.5M602 200.1l-11 7.1M602.7 171l-11.1 10M610.1 172.9l-13.4 11.7M614.5 177.6l-11.6 10M618.9 183.4l-10.5 10M620.7 158.4l-6.4 3.2M628.6 159.1l-12.1 7.7M630.8 165.5l-8.8 7.1M445.7 147.6c.1 7.1 5 15.8 10.7 13.6 5.8-2.1-.9-8-.9-8"/><path class="st4" d="M435.6 151c-2.8-1.2-9.4 10.6 3.2 10.9 8 .8 7-14.3 7-14.3M612.7 203.8l3.3 5.2M618.6 198.8l4.4 4.6M623.3 193.2l3.9 3M626.9 185.3l4.5 3M630.4 179.7l5.1 1.8M634 171.2l3.4.7M345.2 237.2l.3 10.3M352 238.5l.3 10.3M397.3 180.3l-6.4 4.4M394 175.7l-6.4 4.4M434.5 173.8l-.2 6.3M440.8 173.4l.3 7.4M447.6 174.1l.4 5.7M453.3 174.8l.4 6.3"/><path class="st1" d="M189 548s103.2 132.5 262.1 131 250.4-139.1 250.4-139.1l-68.9-72.4s-11 8.9-11.4 12-9.5 6.4-10.2 9.8c-.7 3.4-10.1 7-11.5 10.2-1.4 3.1-10.3 7.3-12.2 9.9-1.9 2.6-12.1 7.8-13.4 9.9-1.3 2.1-8.5 3.8-10.1 6.8-1.6 3-10.7 5-12.2 7.5-1.6 2.6-17.1 6.1-17.7 9.6s-17.3 5.1-17.9 8c-.6 3-11.9.4-16.8 6-1 2.2-10.3 1.4-12 3.4-1.7 2-14 .2-15.3 3.2s-14-.2-16.5 2-12.6-3.1-16.7.2-7.9-.5-11.9-1c-6-.8-13.7.1-17.6-3.3s-12-1.4-15.6-4.6c-3.6-3.2-12-1.2-14.3-5.5-2.3-4.3-13.2-2.7-15.6-7.4-2.4-4.7-14-5.7-15.5-8.8-1.5-3.1-9.2-3.5-10.7-6.8-1.5-3.4-10.8-5.3-12-8.4-1.2-3.2-8.2-3.4-10-7.7-1.8-4.3-14.2-9.6-13.9-11.7-.7-5.5-13.3-9.2-14.5-13.5-1.3-4.3-6.1-9.2-10.4-10.7s-8-9-8-9L189 548z"/><path class="st0" d="M259.9 476.5 189 548s103.2 132.5 262.1 131 250.4-139.1 250.4-139.1l-61.7-64.7s-86.7 97.2-186.6 102.6c-107.9 6-193.3-101.3-193.3-101.3z"/><path class="st6" d="m201.4 546.6 57.9-59.6s84.2 100.1 184 96.8c99.8-3.3 194.5-97.9 194.5-97.9l51.7 56S598.6 671.4 453.8 673c-150 1.5-252.4-126.4-252.4-126.4z"/><path class="st6" d="M249 558.1c-2.9 2.2-2.5 7.9-7.6 7.2-5.1-.7-9.6-4.8-9.3-15.6s17.1-25.2 33.7-26.5c8-.4 15.9 1 20.4 3.9 4.5 3 13.4 10 12.7 15.7-.7 5.7.9 33.1.9 33.1s5.3 15.5-5 16.4c.1-5.7-1.5-10.3-8.9-7.6-7.9-1.3-25.3-16-25.3-16s1.9-6.8-1.5-9.2c-3.2-2.4-7.2-3.7-10.1-1.4z"/><path class="st8" d="M299.4 565.8c.3 5.6.5 10 .5 10s5.3 15.5-5 16.4c.1-5.7-1.5-10.3-8.9-7.6-2.2-.4-5-1.7-8-3.5-.3-6.2 16.2-15.7 21.4-15.3zM253 542.2c-.1 3.7-3.1 6.6-6.8 6.5-3.7-.1-6.6-3.1-6.5-6.8.1-3.7 3.1-6.6 6.8-6.5 3.7 0 6.6 3.1 6.5 6.8zM279.3 555.3c-.1 3.7-3.1 6.6-6.8 6.5-3.7-.1-6.6-3.1-6.5-6.8.1-3.7 3.1-6.6 6.8-6.5 3.7.1 6.6 3.2 6.5 6.8zM284.9 535.9c-.1 3.7-3.1 6.6-6.8 6.5-3.7-.1-6.6-3.1-6.5-6.8.1-3.7 3.1-6.6 6.8-6.5 3.7.1 6.6 3.1 6.5 6.8z"/><path class="st7" d="M244.7 540.8c0 .9-.8 1.7-1.7 1.7-.9 0-1.7-.8-1.7-1.7 0-.9.8-1.7 1.7-1.7.9 0 1.7.8 1.7 1.7zM251 539.3c0 .9-.8 1.7-1.7 1.7-.9 0-1.7-.8-1.7-1.7 0-.9.8-1.7 1.7-1.7.9-.1 1.7.7 1.7 1.7zM248.2 545.7c0 .9-.8 1.7-1.7 1.7-.9 0-1.7-.8-1.7-1.7 0-.9.8-1.7 1.7-1.7.9-.1 1.7.7 1.7 1.7zM272.5 558.8c0 .9-.8 1.7-1.7 1.7-.9 0-1.7-.8-1.7-1.7 0-.9.8-1.7 1.7-1.7 1 0 1.8.7 1.7 1.7zM275.3 553.9c0 .9-.8 1.7-1.7 1.7-.9 0-1.7-.8-1.7-1.7 0-.9.8-1.7 1.7-1.7 1 0 1.7.8 1.7 1.7zM277.7 533.1c0 .9-.8 1.7-1.7 1.7-.9 0-1.7-.8-1.7-1.7 0-.9.8-1.7 1.7-1.7 1-.1 1.7.7 1.7 1.7zM282.6 536.6c0 .9-.8 1.7-1.7 1.7-.9 0-1.7-.8-1.7-1.7 0-.9.8-1.7 1.7-1.7 1 0 1.7.8 1.7 1.7z"/><path class="st4" d="M249 558.1c-2.9 2.2-2.5 7.9-7.6 7.2-5.1-.7-9.6-4.8-9.3-15.6s17.1-25.2 33.7-26.5c8-.4 15.9 1 20.4 3.9 4.5 3 13.4 10 12.7 15.7-.7 5.7.9 33.1.9 33.1s5.3 15.5-5 16.4c.1-5.7-1.5-10.3-8.9-7.6-7.9-1.3-25.3-16-25.3-16s1.9-6.8-1.5-9.2c-3.2-2.4-7.2-3.7-10.1-1.4z"/><path class="st2" d="M291.8 558.5s-4.3-9.8-.2-13.7c4.1-3.9 21.1-2.6 24.1 14.6.4 6.8-8.7 8.6-8.7 8.6l-15.2-9.5z"/><path class="st4" d="M291.5 544.8c2.4-.3 20.1 9.2 24.1 14.6"/><path class="st6" d="M307.6 565.7c-.2 6.3-5.4 11.3-11.7 11.1-6.3-.2-11.3-5.4-11.1-11.7.2-6.3 5.4-11.3 11.7-11.1 6.2.2 11.2 5.5 11.1 11.7z"/><path class="st7" d="M295.9 576.9c-6.3-.2-11.3-5.4-11.1-11.7.2-6.3 5.4-11.3 11.7-11.1l-.6 22.8z"/><path class="st3" d="M300.3 566c-.1 2-1.7 3.7-3.8 3.6-2-.1-3.7-1.7-3.6-3.8.1-2 1.7-3.7 3.8-3.6 2.1.1 3.7 1.8 3.6 3.8z"/><path class="st4" d="M307.6 565.7c-.2 6.3-5.4 11.3-11.7 11.1-6.3-.2-11.3-5.4-11.1-11.7.2-6.3 5.4-11.3 11.7-11.1 6.2.2 11.2 5.5 11.1 11.7z"/><path class="st7" d="M264.7 568.1c-2.8-2.3-9.9 7.2-9.9 7.2l7.8 6.5c.1-.1 4.9-11.3 2.1-13.7zM272 572.9c-2.8-2.3-9.3 8.9-9.3 8.9l6.2 4.1s5.9-10.7 3.1-13z"/><path class="st7" d="M278.6 577.2c-4.3-2.6-9.7 8.7-9.7 8.7l5.1 3.5c-.1 0 7.7-10.3 4.6-12.2z"/><path class="st7" d="M283.8 581.1c-3-2-9.9 8.3-9.9 8.3l7.9 4.2s6.5-9.5 2-12.5z"/><path class="st6" d="m264.5 576.9-6.9-4.8c-1.5 1.7-2.7 3.2-2.7 3.2l7.8 6.5c0-.1 1-2.3 1.8-4.9zM271.3 580.9l-4.9-4.5c-2 2.5-3.6 5.3-3.6 5.3l6.2 4.1c-.1.1 1.2-2.2 2.3-4.9zM284.4 588.7s-7.3-4.1-7.2-3.6c-1.9 2.2-3.3 4.4-3.3 4.4l7.9 4.2c0-.1 1.6-2.4 2.6-5z"/><path class="st6" d="m277.1 584.6-5-4c-1.9 2.5-3.2 5.3-3.2 5.3l5.1 3.5c-.1 0 1.6-2.2 3.1-4.8z"/><path class="st4" d="M264.7 568.1c-2.8-2.3-9.9 7.2-9.9 7.2l7.8 6.5c.1-.1 4.9-11.3 2.1-13.7zM272 572.9c-2.8-2.3-9.3 8.9-9.3 8.9l6.2 4.1s5.9-10.7 3.1-13z"/><path class="st4" d="M278.6 577.2c-4.3-2.6-9.7 8.7-9.7 8.7l5.1 3.5c-.1 0 7.7-10.3 4.6-12.2z"/><path class="st4" d="M283.8 581.1c-3-2-9.9 8.3-9.9 8.3l7.9 4.2s6.5-9.5 2-12.5z"/><path class="st2" d="M277.3 543.3c-.1 5.7-4.8 10.1-10.5 10-5.7-.1-10.1-4.8-10-10.5.1-5.7 4.8-10.1 10.5-10 5.7.2 10.2 4.9 10 10.5z"/><path class="st2" d="M270.5 542.9c0 1.7-1.5 3.1-3.2 3.1-1.7 0-3.1-1.5-3.1-3.2 0-1.7 1.5-3.1 3.2-3.1 1.8 0 3.1 1.5 3.1 3.2z"/><path class="st9" d="M340.5 593.9s-11.7-12.3-2.1-30.3c25.1 0 19.9 25.6 19.9 25.6s12.6-.3 18.7 3.3c6.2 3.6 26.6 29.7 28.8 35.5 2.1 5.8-4.2 7.3-4.2 7.3s-14.1-4.3-15.4 1.3c-11.3-3.7-22.7 1.5-22.7 1.5l21.3 7.6s-1.3 5.7-6.4 7.3c-5.2 1.6-46.9-18.2-47.7-31.4-1.9-14.9 9.8-27.7 9.8-27.7z"/><path class="st6" d="M401.6 635.3s-14.1-4.3-15.4 1.3c-11.3-3.7-22.7 1.5-22.7 1.5l21.3 7.6s-1.3 5.7-6.4 7.3c-5.2 1.6-46.9-18.2-47.7-31.4-.3-2.3-.3-4.5 0-6.7 25.1 13.5 70.9 20.4 70.9 20.4z"/><path class="st4" d="M363.5 638.1c-9.1-3.9-10.1-7.8-10.1-7.8"/><path class="st6" d="M392.9 633.7c-3.2-.1-6.1.4-6.7 2.9 0 0 2.3 5.2 6.4 8.3 2.8-3.7 1.4-10.2.3-11.2z"/><path class="st6" d="M396.8 644.3c3.9-3.3 4.8-9 4.8-9s-4.6-1.4-8.7-1.6c0 0 1.7 9.4 3.9 10.6z"/><path class="st7" d="M394.2 638.3c-.1-2.2-.8-4.1-1.3-4.6-3.2-.1-6.1.4-6.7 2.9 0 0 .6 1.3 1.7 3 0 0 5.3-1.9 6.3-1.3z"/><path class="st7" d="M394 638.4s5.3-.1 6.6.6c.9-2 1.1-3.7 1.1-3.7s-4.6-1.4-8.7-1.6c-.1 0 .3 2.2 1 4.7z"/><path class="st4" d="M392.9 633.7c-3.2-.1-6.1.4-6.7 2.9 0 0 2.3 5.2 6.4 8.3 2.8-3.7 1.4-10.2.3-11.2z"/><path class="st4" d="M396.8 644.3c3.9-3.3 4.8-9 4.8-9s-4.6-1.4-8.7-1.6c0 0 1.7 9.4 3.9 10.6z"/><path class="st6" d="M347.2 606.2c13 17.8 34.9 7.6 34.9 7.6s-8.4-15-34.9-7.6z"/><path class="st7" d="M365.9 604.5s-11-.4-18.7 1.7c4.8 6.6 10.8 9.3 16.5 10.2l2.2-11.9z"/><path class="st3" d="M368 610.5c0 1.7-1.4 3-3.1 3-1.7 0-3-1.4-3-3.1 0-1.7 1.4-3 3.1-3s3 1.4 3 3.1z"/><path class="st4" d="M347.2 606.2c13 17.8 34.9 7.6 34.9 7.6s-8.4-15-34.9-7.6zM337.4 572.9l3.6 8.1M341.6 571.1l4.4 7.7M346.2 568.9l4 7.4M341.6 586.7l4 5.8M347.4 583.4l2.9 5.8M352.4 580.1l1.7 7.6M350.1 595.2l5.3-.2M345.4 600.8l4.2.1M359.9 599.3l5.3.1M363.8 593.7l6.8 1.3M377 598.9l5.2 5.5M390.3 614.1l5.6 6.2M386.8 618.6l4.8 5M385.9 623.9l-2 4.1M373.4 620.9l-3.1 3.7M356.8 618.2l-2.8 3.4M342.6 609.9l-4 4.8M347.4 613l-3.5 4.9M336.2 620.8l-.6 8.7M340.6 626.6l-.5 6.8M345.1 630.9l-.9 5.6M349.2 634.4l-.1 4.5M354 637.1l-.1 5.4M358.9 641.1l.6 4.9M364.1 644.2l.3 4.2M370.5 646.3l-.1 4.5M376.6 647.2l1 5.3M365.1 637.4l-2.9-6.9M369.3 634.9l-2.1-5.8M375 633.9l-1.7-5.8"/><path class="st4" d="M340.5 593.9s-11.7-12.3-2.1-30.3c25.1 0 19.9 25.6 19.9 25.6s12.6-.3 18.7 3.3c6.2 3.6 26.6 29.7 28.8 35.5 2.1 5.8-4.2 7.3-4.2 7.3s-14.1-4.3-15.4 1.3c-11.3-3.7-22.7 1.5-22.7 1.5l21.3 7.6s-1.3 5.7-6.4 7.3c-5.2 1.6-46.9-18.2-47.7-31.4-1.9-14.9 9.8-27.7 9.8-27.7z"/><path class="st1" d="M454.7 608.6c-30.1-3-30.4-13.9-33.3-12.2-2.9 1.6-2.6 11.9 3.6 17.2 6.1 5.3 30.7 4.7 30.7 4.7s11.5-5.9-1-9.7z"/><path class="st1" d="M453.9 618.3c-30.1-3-30-8.7-32.9-7.1-2.9 1.6-3.7 10.7 4.2 15.5 6.9 4.2 29.6 1.3 29.6 1.3s11.6-6-.9-9.7z"/><path class="st4" d="m425.5 605.8 7.1 3.6M438.3 611.1l9.8 1.3M425.1 620.3l7.6 2M439.1 622.9l8.4.2"/><path class="st1" d="M454.7 608.6c-3.5 3.9-3 28.4.3 33.1 3.3 4.6 14.1 7.8 21.6 2.2 17.5 5.5 29.8-7.3 31.1-11.2 1.2-4 11.7-13.4 17.5-15 4.2-9-8.3-10.5-8.3-10.5s4.2-8.4.8-10.2c-3.4-1.8-26.2-1.8-35.9.3-9.8 2.1-16.2 11-27.1 11.3z"/><path class="st4" d="M525.2 617.8c-15.3-3.2-24.8 11.9-24.8 11.9M516.9 607.3s-5.2 1.6-7 5.5M471.5 619.5l-8.8 2.4M471.8 622.9l-6.2 4M473.6 626.4l-3.5 5.6M463.3 612.4l7.2 3.6M481.4 604.1l4.4 7.4M496.7 599.6l-2.5 8.3M510 601l-4 7.5M505.5 615.4l-7.8 5.1M484.1 635.4l8.5-5.9M481.6 641l6.8 3.6M489.7 637.8l6.4 3.9M496.6 634.9l5.6 3.9"/><path class="st6" d="M490.4 620.2c-.1 5.5-4.7 9.9-10.2 9.7-5.5-.1-9.9-4.7-9.7-10.2.1-5.5 4.7-9.9 10.2-9.7 5.4.2 9.8 4.7 9.7 10.2z"/><path class="st7" d="M487.3 627.2c-1.8 1.8-4.4 2.8-7.1 2.8-5.5-.1-9.9-4.7-9.7-10.2.1-2.5 1-4.7 2.6-6.5l14.2 13.9z"/><path class="st3" d="M483.5 620.4c-.1 1.9-1.6 3.4-3.5 3.3-1.9-.1-3.4-1.6-3.3-3.5.1-1.9 1.6-3.4 3.5-3.3 1.9 0 3.4 1.6 3.3 3.5z"/><path class="st4" d="M490.4 620.2c-.1 5.5-4.7 9.9-10.2 9.7-5.5-.1-9.9-4.7-9.7-10.2.1-5.5 4.7-9.9 10.2-9.7 5.4.2 9.8 4.7 9.7 10.2z"/><path class="st6" d="M505.7 644.1c.7-6.2 3.2-13 1.3-21.5 4.3-3.4 10.5-6.4 18.2-4.8 0 0-9.8 25.4-19.5 26.3z"/><path class="st7" d="M521.1 626.9c-2.2-2.5-7.4-3.4-13.4 1.7 0-1.9-.2-3.9-.7-6.1 4.3-3.4 10.5-6.4 18.2-4.8 0 .1-1.6 4.2-4.1 9.2z"/><path class="st4" d="M505.7 644.1c.7-6.2 3.2-13 1.3-21.5 4.3-3.4 10.5-6.4 18.2-4.8 0 0-9.8 25.4-19.5 26.3z"/><path class="st6" d="M514.6 618.3c3.1-1 6.7-1.4 10.6-.6 0 0-.1 28.5-19.5 26.3 10-9.9 10.7-15.6 8.9-25.7z"/><path class="st7" d="M515.3 627.4c.2-2.7-.1-5.6-.7-9 3.1-1 6.7-1.4 10.6-.6 0 0 0 5.6-1.7 11.6-.8-4.5-6.1-4.3-8.2-2z"/><path class="st4" d="M514.6 618.3c3.1-1 6.7-1.4 10.6-.6 0 0-.1 28.5-19.5 26.3 10-9.9 10.7-15.6 8.9-25.7z"/><path class="st2" d="M532.8 584.3s11.6 15.7 12.6 23.1c5.1.1 8.1-4.4 8.1-4.4l21.2-28s6.9-2.1 5.3-9c-10.8-.3-26-8-26-8l-11.4 24.2-9.8 2.1z"/><path class="st2" d="M532.8 584.3s29 26.4 35 36.8c7-6.1-3-17.7-3-17.7s12.8 11.7 15.1 12.3c2.3.6 5.7-1.6 5.8-3.9s-15-16.3-15-16.3 16.3 11.2 19.1 11.3 6.9-3.8 5.3-6.1c-1.7-2.3-17.9-13-17.9-13s18.6 7.9 20.9 7.9c2.3.1 5.8-3.3 4.7-6.2-1.1-2.9-26-8.6-48.8-31.4l-21.2 26.3z"/><path class="st4" d="m547.6 567.7 29.6 20M541.4 574c4.5 3.9 29.3 21.5 29.3 21.5M564.9 603.3s-30.8-24.1-28.5-23.5"/><path class="st6" d="M571.1 542.5c-2.5 10.2 6.4 17.3 17.9 14.7.9 9.7 11 15.1 20.7 15.3s42.7-20.6 43.9-24.6c1.2-4-5.9-16.7-5.9-16.7s.7-6.2-5.5-7c-.5-3.4.7-5.7-2.7-8-3.4-2.4-15.3-2.1-24.6 1.7-9.2 3.8-23.3 21.1-23.3 21.1s-14-3.7-20.5 3.5z"/><path class="st10" d="M571.1 542.5c-2.5 10.2 6.4 17.3 17.9 14.7.9 9.7 11 15.1 20.7 15.3 1.7 0 4.1-.6 6.9-1.6 0 0-2.9-7.1-1.4-9.3 1.6-2.2 18.4-6.8 19-16.3.6-9.5-6.6-11.9-4.2-14.9 2.3-3 10.4-3.9 12.1-6.1-.5-3.4.7-5.7-2.7-8-3.4-2.4-15.3-2.1-24.6 1.7-9.2 3.8-23.3 21.1-23.3 21.1s-13.9-3.8-20.4 3.4z"/><path class="st4" d="M642.2 524.3c-4.9 4-8.7 3.9-7.7-2.9"/><path class="st3" d="M605.7 548.8c-1.4-4.2 3.9-18.1 8.8-18 4.9.1 13.1 7.5 12.7 11.3-.5 3.8-7.4 9.7-10.5 10.8-3.1 1.1-9.6.2-11-4.1z"/><path class="st4" d="m571.6 543.4 8.6 5.2M576.6 540.2l7.5 4.3M596.6 549.4l-4 7.1M601.4 553.3l-3.2 7.5M606.6 557.2l-.1 7.6M618.6 564l3.4 3.9M624.8 561.5l2.9 3.1M631.3 558.2l2.6 3.1M637.1 554.2l3.4 3.1M642.9 550.1l3.4 3.1"/><path d="M617.7 541.9c0 1.7-1.4 3-3.1 3s-3-1.4-3-3.1 1.4-3 3.1-3c1.7 0 3 1.4 3 3.1z"/><path class="st4" d="M571.1 542.5c-2.5 10.2 6.4 17.3 17.9 14.7.9 9.7 11 15.1 20.7 15.3s42.7-20.6 43.9-24.6c1.2-4-5.9-16.7-5.9-16.7s.7-6.2-5.5-7c-.5-3.4.7-5.7-2.7-8-3.4-2.4-15.3-2.1-24.6 1.7-9.2 3.8-23.3 21.1-23.3 21.1s-14-3.7-20.5 3.5z"/><path class="st6" d="M640.3 534.5c2-2.6 7.5-3.2 7.5-3.2s9.5 6.3 13.1 14.3c-10.1-6.3-13.9-7.2-13.9-7.2l-6.7-3.9z"/><path class="st7" d="M640.3 534.5c2-2.6 7.5-3.2 7.5-3.2s2.3 1.6 5.2 4.1c-3.6 1.7-5.9 3.1-5.9 3.1l-6.8-4z"/><path class="st4" d="M647.8 531.3s-5.5.6-7.5 3.2 1.3 8.4.5 11"/><path class="st4" d="M640.3 534.5c2-2.6 3.9-3.6 7.5-3.2 7.4.2 9.5 6.3 13.1 14.3-10.1-6.3-13.9-7.2-13.9-7.2l-6.7-3.9z"/><path class="st6" d="M653.9 549.6c-.5-9.5-8.4-18.1-10.5-17.3-1.2.5-2.4 1.2-3.2 2.1-1.2 1.6-.4 4.4.2 7 .4 1.6 8.1-3.7 13.5 8.2z"/><path class="st7" d="M646.5 541.9c.5-3.5 1.3-5.4 2.8-4.8-2.3-3.2-4.8-5.2-5.9-4.8-1.2.5-2.4 1.2-3.2 2.1-1.2 1.6-.4 4.4.2 7 .2.9 2.9-.4 6.1.5z"/><path class="st4" d="M653.9 549.6c-.5-9.5-8.4-18.1-10.5-17.3-1.2.5-2.4 1.2-3.2 2.1-1.2 1.6-.4 4.4.2 7 .4 1.6 8.1-3.7 13.5 8.2z"/><path class="st0" d="M431.9 538s-10.4 7.7-12.3 15.7c-1.9 7.9-5.4 13-11.8 15.7 13 3.7 22.5-10.3 22.5-10.3l15.2-14.5-6.1-8.7-7.5 2.1z"/><path class="st2" d="M432.6 485s-1-29.7.8-33c1.8-3.4 6.9-3.8 9.7.2 2.4-4.5 8.7-4.3 10.8-.3 3.5-3.9 11.5-4.3 13.6 2.6 4.6-3.3 11.5-3.7 13 5.4 5.8-2.1 14.3-.2 14.1 7.8-.1 3.4-4.2 6.7-4.2 6.7s6.3-2.1 9.7-.3c3.4 1.8 3.9 4.7 3.8 7.5-.1 2.8-8.2 7.2-8.2 7.2s8.6-.9 12 .9c3.4 1.8 3.8 6.4-2 9.6 5.7 1.8 6.5 12.7 3.6 15.5-2.9 2.8-13.1 2-13.1 2l-13 17.4-18.8 1.2-21.2-18.2-11.5-21.4.9-10.8z"/><path class="st4" d="m495.5 500.8 10.3-1.5M488.9 489.8l6.9-1M482.4 478.8l8.1-4.4M480.6 459.9s-4.8 8.4-7.1 12.4M467.6 454.5s-.6 2.3-4.3 14.7M453.6 468.4l.4-16.5M443.1 452.2s.8 13.1.2 16M437.1 466.9l-.2-16.6M449 467.1l-1.3-17.1M458.7 467.4l2.7-17.6M468.9 471l7.3-18.6M478.5 474.1l12.8-12.8M485.6 485.7l15.6-8.7M492.8 495l16.6-1.3M494.2 507l14.9-.2"/><path class="st1" d="M471.2 541.8c-1.6-4 .4-17.1 14.1-17.9-8.4-5.3-4.2-16.1 1-17.7 5.2-1.6 17.7-.1 12.8 14.6 14.3-1.9 12.1 17.4 4.1 18.9s-22.9 2.3-22.9 2.3-7.5 3.8-9.1-.2z"/><path class="st1" d="M425.6 495.1s-21.8 4-22.7 18.3c.4 8 6.6 8.7 11.2 8.8 8.5 3.6 22.6 10.2 22.6 10.2l23 15.9s14.8-1.4 14.6-14.5c-.3-13.1-19.1-13.6-19.1-13.6s18.3-1.3 19.7-11.5c1.4-10.2.6-25.6-16.9-31.8-17.5-6.1-32.1 8.3-34.5 11.7-2.4 3.5 2.1 6.5 2.1 6.5z"/><path class="st4" d="M414.1 522.1c7.4.2 12.2-7.7 6.5-11.2-5.6-3.6-8.6 2.6-8.6 2.6"/><path class="st19" d="M407.5 534.5c-3.4-2.9.3-12.5 10-12.9 14.3-.8 20.3 7.9 25.4 9.7 5.1 1.8 13.7-.2 15.9 4.4 2.2 4.6 3.2 8.6.8 12.6-2.4 3.9-20.9 14.3-29.3 10.7-.4-8.6 8.3-14.6 11.2-17.4-14.2-2.1-19.1-10.7-23.1-12-3.9-1.2-9.1 2.1-10.9 4.9z"/><path class="st19" d="M407.5 534.5c-3.4-2.9.8-9.1 10.5-9.4 6.8.7 16.3 9 21.4 10.8 5.1 1.8 11.9 3.1 11.9 3.1 2.2 4.6 2.8 1.8.4 5.7-2.4 3.9-10.9 4.3-21.4 14.3-.4-8.6 8.3-14.6 11.2-17.4-14.2-2.1-19.1-10.7-23.1-12-3.9-1.2-9.1 2.1-10.9 4.9z"/><path class="st6" d="M418.4 529.7c-4-1.2-9.2 2.1-10.9 4.9 0 0-.3 11.4 9.3 14.5.3-10.3 1.6-19.4 1.6-19.4z"/><path class="st7" d="M417.5 537.6c.4-4.7.9-7.9.9-7.9-4-1.2-9.2 2.1-10.9 4.9 0 0-.1 2.7.9 5.7 2.4-1.1 6.5-3.9 9.1-2.7z"/><path class="st4" d="M418.4 529.7c-4-1.2-9.2 2.1-10.9 4.9 0 0-.3 11.4 9.3 14.5.3-10.3 1.6-19.4 1.6-19.4z"/><path class="st6" d="m434.7 493.6 23.2 5.7s-4.2 9.6-15 7.1c-10.7-2.6-8.2-12.8-8.2-12.8z"/><path class="st7" d="m446.1 496.4 11.8 2.9s-4.2 9.6-15 7.1l3.2-10z"/><path class="st3" d="M445.4 501.3c-5.1-1.3-2.7-5.7-2.7-5.7l7.4 1.8c-.1-.1.4 5.1-4.7 3.9z"/><path class="st4" d="m434.7 493.6 23.2 5.7s-4.2 9.6-15 7.1c-10.7-2.6-8.2-12.8-8.2-12.8z"/><path class="st6" d="M502.5 540.7c-.2 6.5-5.5 11.6-12 11.4-6.5-.2-11.6-5.5-11.4-12 .2-6.5 5.5-11.6 12-11.4 6.5.2 11.6 5.6 11.4 12z"/><path class="st7" d="m502.5 540.7-23.4-.6c.2-6.5 5.5-11.6 12-11.4 6.5.2 11.6 5.6 11.4 12z"/><path class="st3" d="M495.6 540.8c0 2.6-2.2 4.7-4.8 4.6-2.6 0-4.7-2.2-4.6-4.8 0-2.6 2.2-4.7 4.8-4.6 2.5 0 4.6 2.2 4.6 4.8z"/><path class="st4" d="M502.5 540.7c-.2 6.5-5.5 11.6-12 11.4-6.5-.2-11.6-5.5-11.4-12 .2-6.5 5.5-11.6 12-11.4 6.5.2 11.6 5.6 11.4 12z"/><path class="st6" d="M131 300.4c-4 .5-7.5 4.4-4.2 7.9 2 2.1 17.7 5.5 30.5 11.6 8.6 4 15.3 12.2 17.4 10.7 11.3-8.3 3.9-19.3-6.3-23.5-10.1-4.3-33.4-7.2-37.4-6.7z"/><path class="st4" d="M169.4 317.3s-11.7-9.4-43-13"/><path class="st7" d="M163.4 323.4c5.6 3.9 9.8 8.3 11.4 7.1 11.3-8.3 3.9-19.3-6.3-23.5l-5.1 16.4z"/><path class="st4" d="M131 300.4c-4 .5-7.5 4.4-4.2 7.9 2 2.1 17.7 5.5 30.5 11.6 8.6 4 15.3 12.2 17.4 10.7 11.3-8.3 3.9-19.3-6.3-23.5-10.1-4.3-33.4-7.2-37.4-6.7z"/><path class="st6" d="M464.7 196.8c-2.8-1.8-23.9-2.9-26.2-.1-2.3 2.8-3.7 13.6-2.7 15.3 1.1 1.7 30.2 2.4 31.9.8 1.8-1.7-.2-14.3-3-16z"/><path class="st4" d="m444.4 212.8.3-12.5M455.2 213.1l-.3-12.6"/><path class="st7" d="M467.4 202.5c-.7-2.7-1.6-5.1-2.7-5.8-2.8-1.8-23.9-2.9-26.2-.1-.8.9-1.5 2.8-2 4.9l30.9 1z"/><path class="st4" d="M464.7 196.8c-2.8-1.8-23.9-2.9-26.2-.1-2.3 2.8-3.7 13.6-2.7 15.3 1.1 1.7 30.2 2.4 31.9.8 1.8-1.7-.2-14.3-3-16z"/><path class="st7" d="M491.1 191.7s1.3 15.4 16 20.9c14.7 5.5 23.9 0 23.9 0s-1.4-12-9.3-16.2c-7.9-4.2-30.6-4.7-30.6-4.7z"/><path class="st6" d="M516.3 194.5c-9.9-2.5-25.3-2.8-25.3-2.8s1.3 15.4 16 20.9l9.3-18.1z"/><path class="st3" d="M514.7 203.1c-.1 2.2-1.9 3.9-4.1 3.9-2.2-.1-3.9-1.9-3.9-4.1.1-2.2 1.9-3.9 4.1-3.9 2.2.1 4 1.9 3.9 4.1z"/><path class="st4" d="M491.1 191.7s1.3 15.4 16 20.9c14.7 5.5 23.9 0 23.9 0s-1.4-12-9.3-16.2c-7.9-4.2-30.6-4.7-30.6-4.7z"/></svg>