<svg version="1.1" id="Calque_1" xmlns="http://www.w3.org/2000/svg" x="0" y="0" viewBox="0 0 900 900" style="enable-background:new 0 0 900 900" xml:space="preserve"><style>.st0{fill:#631000;stroke:#000;stroke-width:.3793;stroke-linecap:round;stroke-linejoin:round}.st1,.st10,.st11,.st12,.st13,.st14,.st2,.st3,.st4,.st5,.st6,.st7,.st8,.st9{fill:#631000;stroke:#000;stroke-width:2.8445;stroke-linecap:round;stroke-linejoin:round}.st10,.st11,.st12,.st13,.st14,.st2,.st3,.st4,.st5,.st6,.st7,.st8,.st9{fill:none}.st10,.st11,.st12,.st13,.st14,.st3,.st4,.st5,.st6,.st7,.st8,.st9{fill:#ff5b00}.st10,.st11,.st12,.st13,.st14,.st4,.st5,.st6,.st7,.st8,.st9{fill:#fff}.st10,.st11,.st12,.st13,.st14,.st5,.st6,.st7,.st8,.st9{fill:#0062ff}.st10,.st11,.st12,.st13,.st14,.st6,.st7,.st8,.st9{fill:#621009}.st10,.st11,.st12,.st13,.st14,.st7,.st8,.st9{fill:#4c1f00}.st10,.st11,.st12,.st13,.st14,.st8,.st9{fill:red}.st10,.st11,.st12,.st13,.st14,.st9{fill:#ffce00}.st10,.st11,.st12,.st13,.st14{fill:#086d00}.st11,.st12,.st13,.st14{fill:#f73111}.st12,.st13,.st14{fill:#fff;stroke-width:.3793}.st13,.st14{fill:#f85b10;stroke-width:2.8445}.st14{fill:none;stroke-width:.3793}.st15{fill:#fff}.st16{fill:#621009}.st18{fill:#053300;stroke:#000;stroke-width:2.8445;stroke-linecap:round;stroke-linejoin:round}</style><path class="st0" d="M416.7 378.3s21.6 34 39.1 26.8c17.5-7.2 7.2-42.2 7.2-42.2L447 349l-30.3 29.3zM439.3 292.4l-10.8 21.1 8.3 22.6 21.6-11.3-3.6-38.6z"/><path class="st1" d="M494.4 202.8s-2.3-24.4-5.9-31.4c-3.6-6.9-52.2-70-58.2-78-5.9-8-14.4-33.5-11.6-34 2.8-.5 70.8 97.3 73.4 98.6 2.6 1.3-36.3-58.2-44.3-73.6-8-15.4-10.5-29.1-7.2-28 3.3 1 61 91.6 62.5 94.5 1 1.8-36.3-76.2-39.1-83.4s.3-15.4 2.3-14.4c2.1 1 45.3 88.8 48.6 93.9-1.8-5.4-22.1-68.7-23.9-79.3s1.8-18.8 3.9-17.5 30.6 84.9 33.7 93.7c0 0-7.2-40.9-8.7-55.8-1.6-14.9-2.1-28.8 1.5-28.8s15.4 61 19.3 82.6 8.7 59.7-1.3 72.8c-10 13.1-11.8 11.8-11.8 11.8l-31.9-11.6 1-8.7-2.3-3.4z"/><path class="st2" d="M528.7 143.9c5.4 13.4 8 58.7 2.1 68.2M523 209.5c2.1 1-1-49.7-8-62.5M503.7 204.6s-1-31.9-11.6-46.6M513.7 206.7s-3.3-44.3-10.5-55.8"/><path class="st2" d="M527.4 208.2c3.6-45.6-9-68.5-14.9-87.3-5.9-18.8-17.5-57.1-17.5-57.1M521.7 71.3c0 6.9 12.3 58.7 16 90.1 3.6 31.4-1.8 51-1.8 51M467.7 65.3c1.3 4.1 37.3 69.7 43.2 88.5 5.9 18.8 7.5 53.3 7.5 53.3M445.8 69.7c5.7 12.6 45.3 68.2 53.8 88.3 8.5 20.1 8.2 50.2 8.2 50.2"/><path class="st2" d="M427 76.2c8.2 19.3 60.2 78.2 65.6 93.4s6.4 34 6.4 34"/><path class="st3" d="M489.3 252.2s3.6-50.3 5.7-51 5.7-.2 6.7 1.9c2.7-1.4 5.7-.3 6.4 1.7 1.3-2.3 6.4-2.1 6.7 1.3 1.7-2.4 7.8-.3 8.2 2.5 2.7-2.5 8.8-.4 7.8 3.4 3.4-2.7 10-.3 9.3 3.1-.7 3.4-27.1 41.2-27.1 41.2l-23.7-4.1z"/><path class="st2" d="m525.8 221.8 4.9-9.7M519.4 218.5l3.5-9.9M514.8 206.1l-2.4 10.1M508.1 204.9l-.8 9.2M501.6 203.1l-1 10.5"/><path class="st4" d="M528.9 233.1c-7.5 11.1-16 23.2-16 23.2l-23.7-4.1s.8-16.6 2.6-30.9c4.7-2 28.1 1.8 37.1 11.8z"/><path class="st2" d="m496.5 226.2.5-4.9M501.9 227.5l.8-5.4M507.6 228.3l1.5-4.6M513.5 230.3l2.3-5.1M518.4 234.5l3.8-6"/><path class="st5" d="M524.6 239.5c-6.1 8.9-11.6 16.9-11.6 16.9l-23.7-4.1s.4-12 1.8-24.2c14.5-3.9 28.3 5.1 33.5 11.4z"/><path class="st6" d="M429.1 209.4s-16.2-18.3-22.7-22.6c-6.5-4.3-83.9-45.6-94.7-52.8-8.2-5.5-21.5-23.6-19.3-25.5s110.1 63 113 62.8c2.9-.1-57.4-41-71.8-50.7-21.7-14.6-27.4-30.8-24-31.6 3.4-.7 99.8 70.7 101.9 70.7 2.1 0-67.1-62.2-73.1-67.1s-4.1-13-1.8-13.1 80.2 71.7 83.3 71.1c-4.2-3.8-50.7-53.2-57.4-61.6-6.7-8.3-8.9-20.5-6.4-20.3 2.4.1 70.5 69.7 74.2 72.6 0 0-26.2-32.3-34.8-44.6-8.5-12.2-15.6-24.1-12.5-25.9 3.1-1.7 43.1 45.8 57 62.8 13.9 17 36.7 47.9 34.2 64.3-2.4 16.3-4.6 16.1-4.6 16.1l-33.5 5.3-3.4-8.2-3.6-1.7z"/><path class="st2" d="M430.4 141.3c11.2 9.1 35.5 47.4 34.9 58.6M457.4 201.4c2.3-.1-25-42.9-37.4-50.8M438.1 206.5s-16.4-27.4-32.8-35.1M447.9 203.5s-24.4-37.1-36.4-43.7"/><path class="st2" d="M461 199.2c-16.2-37.8-39.2-58.5-53.5-72.1-14.3-13.5-44-47.4-44-47.4M389.1 81.2c3.4 6.1 39.3 45.3 57.7 71s23.2 45.4 23.2 45.4M344.4 91.3c3.1 3 61.1 53.8 75.4 67.4s32.4 43 32.4 43M320.9 101.9c20.8 20.1 73.7 52.5 90.9 65.9 17.2 13.4 31.6 39.9 31.6 39.9M308.1 123.3c16.7 16.2 91.3 47.4 103.4 58 12.1 10.7 22.1 26.6 22.1 26.6"/><path class="st3" d="M448.6 255.1s-21.3-45.7-19.8-47.3c1.5-1.6 4.9-2.9 6.8-1.6 1.7-2.5 4.9-3.1 6.5-1.6 0-2.7 4.6-4.9 6.5-2.1.3-2.9 6.7-4 8.3-1.8 1.1-3.5 7.5-4.7 8.5-.8 1.7-4.1 8.6-5.2 9.7-1.8 1.1 3.3-3.7 49.2-3.7 49.2l-22.8 7.8z"/><path class="st4" d="M474.2 217.2c-1.1 13.8-2.8 30.1-2.8 30.1l-22.7 7.9s-9.2-19.7-15.1-33.7c7.1-5.7 34.1-7.7 40.6-4.3z"/><path class="st2" d="m465.8 210.8-.5-10.9M458.6 211.1l-1.7-10.4M448.5 202.5l2.4 8.7M442.1 204.6l2.6 7.7M435.6 206.3l3.1 8.3"/><path class="st5" d="M473.5 224.4c-1.5 16.8-1.5 21.6-2.1 27.7l-22.8 3s-6.4-13-11.7-25.6c.9-7.3 36.6-8 36.6-5.1z"/><path class="st2" d="m439.6 226-1.5-6.7M444.5 224.4l-1.3-6.4M449.4 222.9l-.8-5.7M454 222.6v-6.4M459.4 222.9l.3-7M465.6 222.6l.5-6.7"/><path class="st1" d="M481.7 267s-1.4-20.6 16.1-20.6 17.8 13.7 17.8 13.7l-27.5 16.8-6.4-9.9zM442.4 255.6s-1.4-12.5 16.1-12.9c17.6-.3 14.5 25.3 14.5 25.3l-3.3 6.9-26.1-1.7-1.2-17.6z"/><path class="st2" d="M485.2 267.2s1.8-15.2 12.1-16c10.3-.8 14.1 9.3 14.1 9.3"/><path class="st2" d="M488.5 268.2s4.6-11.6 9.5-12.1 8.7 6.4 8.7 6.4M446.5 257.4s-.3-7.7 10.5-8.5c10.8-.8 11.3 20.6 11.3 20.6"/><path class="st2" d="M450.4 258.9s2.1-5.7 5.1-5.9c5.9-.3 7.2 15.2 7.2 15.2"/><path class="st1" d="M440.1 330.2s2.6-22.9 12.9-30.6c10.3-7.7 28.8-15.2 28.8-15.2s28.8 8.5 35 11.3c7.7 3.6 9.5 10.8 9.5 10.8l-20.6 21.1-50.4 20.4-12.6 3.3-2.6-21.1z"/><path class="st2" d="M450.2 341.3s-1.5-37.8 26.5-50.7"/><path class="st2" d="M445.8 342s-1.5-28.3 13.9-44.8M506.3 305.2c.3-11.1-13.6-14.4-13.6-14.4-43.5 9.8-36.8 50.7-36.8 50.7"/><path class="st4" d="M531 267.2c3.6 4.6 1 18 1 18l-46.8-2.6 3.1-10.3c-.1 0 39.1-9.8 42.7-5.1z"/><path class="st4" d="m472.8 268.7-14.4-2.1-20.9-5.8-14.1 9.6 10 38.8L478 290c23.2.1 61.4 10.6 61.4 10.6l2.4-19.6-43.9-3.1 40.8-8.9-5.8-17.8-46 16.8-14.1.7z"/><path class="st7" d="m491.3 276.9 45.5-13.7-1.7-5.1-45.5 14.4zM488.2 286.2l51.8 9.2.9-7.1-49.6-6.6zM426.5 283.4l39.4-3.7 1.4-6.9h-40.5zM431.6 297.9l35.7-13.8 2.4 4.5-36.7 15.8-1.4-5.5"/><ellipse class="st4" cx="480.4" cy="278.6" rx="16.5" ry="13.4"/><path class="st7" d="M482.4 265.4c4.1.4 7.7 2 10.3 4.4.3.3-9.8 1.8-10.6 5.9-.8 4.1 2.1 4.6 3.1 7 1 2.3 1.5 8.4 1 8.6-1.8.5-3.7.9-5.8.9 0 0 1.4-3.9 0-7.5-1.4-3.7-4.5-4.5-4.5-9.6 0-5.4 5.8-9.8 6.5-9.7z"/><path class="st8" d="M510.6 363.1c46 10.3 83 35.7 83 35.7l2.4-8.2s-36-23-41.5-24.7c19.9-15.1 19.9-24.7 25.7-27.5 5.8-2.7 14.3-2.7 14.3-2.7l-4.4-8.9s-7.9-.3-14.4 2.7c-6.5 3.1-23.3 27.8-28.5 29.2-5.1 1.4-7.5-3.4-7.5-3.4l-30.6 2.1c.1-.2-6.4 3.3 1.5 5.7zM605.3 407.7s2.7 11 7.9 12.3c5.1 1.4 8.2-4.8 8.2-4.8s14.1 8.9 17.5 14.1c3.4-.3 5.8-5.5 4.8-6.9-5.5-1-16.8-12.7-16.8-12.7s5.5-4.8 3.1-9.3c-2.4-4.5-14.8-4.5-14.8-4.5l-9.9 11.8z"/><path class="st2" d="M616.9 413.5c1.7-5.5-4.1-7.9-4.1-7.9M624.1 406c-3.8 2.4-10.3-3.8-10.3-3.8"/><path class="st8" d="M598.4 310.6s-2.3-13.9 5.7-15.2c8-1.3 13.4 7.5 13.4 7.5l19.3-16.5 5.9 5.9-18.5 17s6.2 10 2.1 14.2c-4.1 4.1-14.2 1.3-14.2 1.3l-13.7-14.2z"/><path class="st2" d="M605.1 312.2s6.4-1 7.2-4.6-5.1-4.4-5.1-4.4M611.3 317.8s4.6-4.4 7.7-4.1c3.1.3 3.3 4.9 3.3 4.9"/><path class="st4" d="M513.3 348.7s23.7-12.3 29.5-12.7c5.8-.3 18.9 6.5 18.9 8.2s-11.3 12.7-14.4 14.4-34.3.3-34.3.3l-3.4-8.6 3.7-1.6z"/><path class="st8" d="M510.6 356.5c2.2-.1 30.2 2.4 40.8-18.6 5.2 2.1 10.3 5.1 10.3 6.2 0 1.7-11.3 12.7-14.4 14.4s-34.3.3-34.3.3l-2.4-2.3z"/><path class="st9" d="M597 401.1s1.4 8.2 4.5 9.3c10 4.1 19.6-8.6 13.4-18.2-2.1-3.4-9.3-1.4-9.3-1.4l-8.6 10.3z"/><path class="st3" d="M638.3 284c0 5-4.1 9.1-9.1 9.1s-9.1-4.1-9.1-9.1 4.1-9.1 9.1-9.1 9.1 4 9.1 9.1zM653.7 298c0 5-4 9-9 9s-9-4-9-9 4-9 9-9 9 4.1 9 9zM646.5 433.1c0 4.6-3.7 8.2-8.2 8.2s-8.2-3.7-8.2-8.2 3.7-8.2 8.2-8.2c4.5-.1 8.2 3.6 8.2 8.2z"/><path class="st3" d="M655 420.7c0 4.6-3.7 8.2-8.2 8.2s-8.2-3.7-8.2-8.2c0-4.6 3.7-8.2 8.2-8.2s8.2 3.7 8.2 8.2z"/><path class="st9" d="M593.3 320.2s-1.3-11.6 5.2-11.8c6.4-.3 19.6 12.4 15.2 19-4.4 6.7-12.6 3.6-12.6 3.6l-7.8-10.8z"/><path class="st10" d="M603.3 326.9c0 4.8-3.9 8.7-8.7 8.7-4.8 0-8.7-3.9-8.7-8.7 0-4.8 3.9-8.7 8.7-8.7 4.8-.1 8.7 3.8 8.7 8.7zM607.7 394.8c0 4.8-3.9 8.7-8.8 8.7-4.8 0-8.7-3.9-8.7-8.7 0-4.8 3.9-8.7 8.7-8.7 4.9 0 8.8 3.9 8.8 8.7z"/><path class="st7" d="M378.4 479.8s24.4 48.1 41.5 49.1 33.6-10.6 33.6-10.6l-10.6-49.4-48.7-13.9-15.8 24.8z"/><path class="st8" d="M384.6 452.6s10.8 57.2 35.3 64.2c18.2 5.1 31.2-7.5 31.2-7.5L433 445.4l-32.6-11-15.8 18.2z"/><path class="st3" d="M397.3 447.2s1 46 22.6 56.6c21.6 10.6 27.5-4.1 27.5-4.1l-11.7-49.1-19.2-16.5-19.2 13.1z"/><path class="st6" d="M402.8 408.7s-2.4 8-1 19.2c2.8 23.1 11.6 59.3 19.2 64.2 11.3 7.2 19.9-4.8 19.9-4.8l-38.1-78.6z"/><path class="st8" d="M367 222.9c-8.8-7.7-76.8-59.2-79.9-60.6-3.1-1.4-5.1 5.1-1.7 11.7 5.1 7.2 65.6 46.3 75.5 59 9.9 12.7 6.2-9.3 6.2-9.3"/><path class="st8" d="M358.9 231.6c-8.8-7.7-85.1-52.5-89.2-53.2-4.1-.7-6.9 2.7-1.7 8.9 5.1 7.2 75.5 41.2 85.5 53.9 10 12.7 13.7-17.5 13.7-17.5"/><path class="st8" d="M352.3 240.9c-8.8-7.7-94.4-49.1-96.1-49.8-1.7-.7-7.9 4.1-.7 11 5.1 7.2 82.7 39.1 92.7 51.8 10 12.7 13.7-17.5 13.7-17.5l-9.6 4.5z"/><path class="st8" d="M345.8 252.2c-8.8-7.7-101.2-43.6-104.7-44.3-3.4-.7-3.4 7.5 1.4 10.6 4.8 3.1 89.2 34 99.2 46.7 10 12.7 13.7-17.5 13.7-17.5l-9.6 4.5z"/><path class="st8" d="M339.7 263.5c-8.8-7.7-96.8-30.2-109.5-36.7-3.4-1-4.9 5.8 2.7 12 8.9 7.2 92.7 25.1 102.6 37.8s13.7-17.5 13.7-17.5l-9.5 4.4z"/><path class="st8" d="M336.2 274.5c-5.8-3.4-104.3-24.4-112.2-26.1-4.8-1-2.1 7.2 6.2 10.6 5.8 3.1 96.8 21.6 99.9 24.7 3 3.2 11.9-5.7 6.1-9.2z"/><path class="st8" d="M215.8 274.9c-2.4 2.4 7.9 9.3 15.4 11.3 7.5 2.1 94.4 8.6 94.4 8.6l4.8-12.3c0-.1-112.2-10-114.6-7.6zM212.3 300.1c-2.1 2.7 8.9 8.3 16.7 9.4 7.7 1.2 96-1.1 96-1.1l2.1-11.7c-.2.1-112.7.8-114.8 3.4zM208.6 322.6c-1.8 2.9 7.6 7.8 15.4 8.2 7.8.4 98.7-10.5 98.7-10.5l.9-11.8s-113.2 11.2-115 14.1zM210.9 344.2c-1.6 3 10.4 7 18.2 6.9 7.8-.1 96.4-18 96.4-18l.1-11.9c.1 0-113 20-114.7 23z"/><path class="st8" d="M211.9 367.5c-1.3 3.1 11 5.8 18.8 4.9 7.8-.9 94-28.1 94-28.1l-1.1-11.8c0 .1-110.4 31.9-111.7 35zM216.4 388.1c-1.1 3.2 5.3 5.9 13 4.5 7.7-1.4 98.5-33.6 98.5-33.6l-3.1-12.3c.1-.1-107.2 38.2-108.4 41.4z"/><path class="st8" d="M226.1 408.4c-.8 3.3 7.6 5.3 15.1 3.1s93.4-42.2 93.4-42.2l-4.3-12c-.1-.1-103.5 47.8-104.2 51.1z"/><path class="st8" d="M240.5 430.4c-.3 3.4 8.2 4.3 15.4 1.1 7.2-3.2 87.1-54 87.1-54l-5.8-11.3c-.1.1-96.4 60.9-96.7 64.2zM252.1 449.2c0 3.5 8.8 3.9 15.8.3s82.9-60.1 82.9-60.1l-7.2-11.3c-.1.1-91.5 67.7-91.5 71.1z"/><path class="st8" d="M270.3 471c.6 3.4 9.3 2.4 15.6-2.2 6.3-4.7 72.1-72.6 72.1-72.6l-8.9-10c.1-.1-79.3 81.3-78.8 84.8zM287.9 492.8c1 3.3 9.6 1.3 15.2-4.1 5.7-5.4 63-80.7 63-80.7l-10-8.9c.1.1-69.1 90.3-68.2 93.7z"/><path class="st3" d="m414.9 267.9-47.9-45s-43.5 44.5-46.6 96.6c-2.9 49 40.5 99.9 40.5 99.9l25.1-4.2 19.8-32.2 15.2-62.8-6.1-52.3z"/><path class="st8" d="m414.9 267.9-30.4-28.6s-37.6 39.7-40.4 87.4c-2.8 49 41.9 88.5 41.9 88.5l19.8-32.2 15.2-62.8-6.1-52.3z"/><path class="st10" d="m414.9 267.9-14.5-13.6s-33.3 24-36 71.7c-2.8 49 31.6 73.1 31.6 73.1l9.9-16.1 15.2-62.8-6.2-52.3z"/><path class="st7" d="M400 288.9c-7.5 3.1-20.6 19.6-22.3 43.6-1.7 24 13 48.7 27.1 57.3 12.3 4.5 19.2-5.5 19.2-5.5l13.4-35-4.1-30.9-15.4-30.9c0 .1-10.3-1.6-17.9 1.4z"/><path class="st4" d="M401.4 338c-7.5-10.6.7-22.3 7.9-22.3 11.3 6.9 3.1 19.9-7.9 22.3z"/><path class="st2" d="M404.8 327.4c-1 3.1-4.8 4.1-6.4 2.8-.3-4.4 1.4-8.4 3.9-11 2.2 1 3.6 5.1 2.5 8.2z"/><path class="st2" d="M403.6 320.1c1.4 1.7 2.1 4.8 1.3 7.2-.8 2.5-3.5 3.6-5.3 3.3"/><path class="st11" d="M458.4 266.6c-2.1-11.3-15.4-15.4-30.6-11.3-15.1 4.1-27.8 33.6-27.8 33.6s6.5-1 11.3 2.4c10.3 8.6 24 34.7 19.6 52.5-2.1 7.9-15.6 19.2-16.5 22-.9 2.7 4.1 8.9 4.1 8.9s19.6-18.2 22.6-26.8c9.3-22.6-19.9-69.7-10.3-79.3 4.9-5.1 20-3 27.6-2z"/><path class="st12" d="m557.8 516.6 1.5-8.8-2.1-5.1-26.1-1 .7 15.1zM505.2 521.7l8.1-19.3-8.6-3.4-21.3 5-2.4 11.3z"/><path class="st4" d="M680.8 616.2s9.5 5.9 10.8 11.1c1.3 5.1-13.6 27.8-13.4 31.1.3 3.3-.3 9.8 2.6 15.2-7.5-.5-8.7-12.6-8.7-12.6s-3.9 5.9-13.4 2.1c7.5-5.7 17.8-17.8 20.6-22.6 2.8-4.9 1.8-11.6 1.8-11.6l-23.4-7.2-2.6-5.9 22.3-1 3.4 1.4z"/><path class="st13" d="M679.2 640.4c2.8-4.9 1.8-11.6 1.8-11.6l6.4-7.5c1.9 1.8 3.7 3.9 4.2 5.9.6 2.2-2 7.8-4.9 13.7l-7.5-.5z"/><path class="st8" d="M686.6 640.9c-3.9 7.6-8.6 15.6-8.4 17.5.3 3.3-.3 9.8 2.6 15.2-7.5-.5-8.7-12.6-8.7-12.6s-3.9 5.9-13.4 2.1c7.5-5.7 17.8-17.8 20.6-22.6l7.3.4z"/><path class="st4" d="M585.3 544.1s23.4 16.2 25.2 26.8c6.2 38.1 20.6 46.1 30.6 49.7 13.4 4.8 40.1 11.1 39.9 8.2-.3-2.8-20.3-7.5-19.6-9.3 8.5-4.1 30.6.8 28.6-9-3.3-12.9-35-6.4-40.1-7.7-5.1-1.3-16.6-22-21.1-41.4-5.1-22.4-29.8-29.3-29.8-29.3l-13.9 1 .2 11z"/><path class="st2" d="M591.2 541s24.4 16.2 26.2 26.8c6.2 38.1 17.5 43.2 27.5 46.8 5.7 8.5 28.6 13.1 36 14.2-.3-2.8-20.3-7.5-19.6-9.3 8.5-4.1 30.6.8 28.6-9-3.3-12.9-35-6.4-40.1-7.7-5.1-1.3-16.6-22-21.1-41.4-5.1-22.4-29.8-29.3-29.8-29.3l-13.9 1 6.2 7.9z"/><path class="st2" d="M645 614.6c5.7 8.5 28.6 13.1 36 14.2-.3-2.8-20.3-7.5-19.6-9.3 8.5-4.1 30.6.8 28.6-9-3.3-12.9-35-6.4-40.1-7.7"/><path class="st8" d="M612.8 538.9c-7.2-5-13.9-6.9-13.9-6.9l-13.9 1 6.2 8s5 3.3 10.6 7.9l11-10zM627.6 557.3c-1.5-4.2-3.7-7.7-6.2-10.7l-12.7 8.4c2.9 2.8 5.5 5.8 7.1 8.6l11.8-6.3zM634 577.9c-1.4-3.6-2.7-7.3-3.8-11.1l-11.7 6.7c.9 4.5 1.8 8.5 2.8 12.1l12.7-7.7zM643.3 596c-1.8-2.7-3.7-6.1-5.6-9.9l-13 9c2 4.7 4.2 8.2 6.5 10.8l12.1-9.9zM649.9 602.8c5.1 1.3 36.8-5.1 40.1 7.7 2.1 9.8-20.1 4.9-28.6 9-.8 1.8 19.3 6.4 19.6 9.3.3 2.8-26.5-3.4-39.9-8.2 0 0-1.8-4.6-.8-8.2 1.1-3.7 9.6-9.6 9.6-9.6z"/><path class="st4" d="M666.1 609.7c8-7.2 12.6.5 12.6.5s-6.7 4.9-12.6-.5z"/><path d="M672.3 607.2s-1.8 2.6.5 4.6c2.1-2.3-.5-4.6-.5-4.6z"/><path class="st8" d="M503.4 796.6s-4.4 10 1.5 14.1 14.9 2.3 20.3-6.2c0 0 19.6 15.4 20.8 19.3 1.3 3.9 7.2-8 7.2-8s-20.6-13.9-22.9-17.8c8-2.3 6.7-11.8 1.3-15.7-5.4-3.9-12.9.3-12.9.3l-15.3 14z"/><path class="st2" d="M514 806.4c7.2-5.9-1.8-12.3-1.8-12.3M528.9 791.4s-5.1 8.2-10.5-2.6"/><path class="st3" d="M554 824.9c0 5-4.1 9.1-9.1 9.1s-9.1-4.1-9.1-9.1 4.1-9.1 9.1-9.1 9.1 4.1 9.1 9.1z"/><path class="st3" d="M567.1 810.7c0 5-4.1 9.1-9.1 9.1s-9.1-4.1-9.1-9.1 4.1-9.1 9.1-9.1 9.1 4.1 9.1 9.1z"/><path class="st9" d="M494.7 787.8s-1.8 5.4 1 8.2 12.6 3.9 20.3-3.6c7.7-7.5 6.4-13.9 3.1-17.5s-10.8.5-10.8.5l-13.6 12.4z"/><path class="st2" d="M555.2 752.6s-3.9 17.8 13.2 20.4c-7.6-5.9-4.9-18.3-4.9-18.3l-8.3-2.1z"/><path class="st8" d="M490.1 777.6s12.9 2.3 11.8-8.7c-8.5-28.8-39.1-19-30.9-119.4 4.9-23.4-6.2-88.8-13.1-.8-10.3 97.5 31.1 109.8 32.2 128.9z"/><path class="st10" d="M490.1 777.6s12.9 2.3 11.8-8.7c0 0 7.2-1.5 9.5 3.1s-.3 10.6-5.7 14.2-12.6 4.9-16.2.8c-3.6-4.3.6-9.4.6-9.4z"/><path class="st4" d="M456.2 676.1c0-4.6.2-9.4.5-14.4 0 0 5.7-.8 6.8-.5 1 .3.3 8.2.3 8.2s6.2-5.1 6 1.4l-8 3.5-5.6 1.8zM470.7 702.7c-.4-3.8-.7-8.1-.9-12.6l-6.8 1.3s1.8-11.1.5-11.3c-1.3-.3-7.2 3.3-7.2 3.3.1 3.7.3 7.2.5 10.6.1.9.2 1.7.2 2.6l6.7-.5s.3 6.9.5 8c.4.9 6.5-1.4 6.5-1.4zM493.4 753.4c-3-3.6-6.2-7.1-9.3-11.5 0 0-4.3 2.9-5.3 2.7-1-.3-5.7-7.5-6.7-7.7-1-.3-3.9 2.5-3.9 2.5 2.8 5.8 5.7 10.6 8.6 14.8 0 0 4.6-4.1 5.4-4.1.8 0 5.7 7.7 6.7 7.5.9-.4 4.5-4.2 4.5-4.2zM501.9 768.8c1 11.1-11.8 8.7-11.8 8.7-.2-3.8-2.1-7.4-4.8-11.5 0 0 4.8-3.2 6.1-2.7 1.3.5 3.1 5.1 4.1 5.4 1 .4 6.4.1 6.4.1zM462.9 726.1c-1.4-4.4-2.7-9.3-3.7-14.7 0 0 3.4-2.3 4.4-1.8 1 .5 2.6 8.2 2.6 8.2l6.5-3.1c1.2 5.7 2.7 10.4 4.3 14.5 0 0-4.9 3.3-5.7 2.5-.8-.8-2.3-8-3.3-8s-5.1 2.4-5.1 2.4z"/><path class="st8" d="M316.8 758.8s-7.2-3.9-11.8 1.3c-4.6 5.1-1.8 11.8 1.3 12.6l-21.9 13.9 6.7 9.3 18.5-16.5c.8 4.9 4.1 7.7 10.8 6.2 8-1.8 5.9-10.8 5.9-10.8l-9.5-16z"/><path class="st3" d="M289.5 781.9c0 4.3-3.5 7.7-7.7 7.7s-7.7-3.5-7.7-7.7c0-4.3 3.5-7.7 7.7-7.7 4.3 0 7.7 3.5 7.7 7.7zM299.8 797.4c0 4.3-3.5 7.7-7.7 7.7s-7.7-3.5-7.7-7.7c0-4.3 3.5-7.7 7.7-7.7 4.3-.1 7.7 3.4 7.7 7.7z"/><path class="st9" d="M326.6 752.6s-5.4-3.1-9.5.3c-4.1 3.3-2.8 10.8 2.1 18.3s12.3 9.3 16.2 7.2c3.9-2.1 3.1-7.7 3.1-7.7l-11.9-18.1z"/><path class="st10" d="M339.7 751.6s-2.3-4.1-5.9-4.4-9 2.3-9.8 7.5c-.6 3.9 7.5 17.8 13.6 18 6.2.3 8.5-4.6 9.3-6.9.8-2.3.3-7.2.3-7.2l-7.5-7z"/><path class="st2" d="M311.7 767.8c0 4.6-3.3 5.7-5.4 4.9M309.6 779.4c-.5-5.4 8.2-7.2 9 1.5"/><path class="st8" d="M422.6 681c-14.9 28-84.2 69-84.2 69s-1.8 11.1 8 11.1c103.2-58.7 92.1-95.5 92.1-95.5l-5.4-.3c.1 0 4.4-12.3-10.5 15.7z"/><path class="st4" d="M428 696.1c2.1-3 3.9-5.8 5.3-8.5.4-.7-2.2-2-2.2-2l2.8-4.9-5.9-4.1s9.5-23.7-5.4 4.4l3.9 4.9s-3.9 3.9-3.6 5.1c.2 1.4 5.1 5.1 5.1 5.1zM403.5 703.3c3.9-3.6 7.5-7.2 10.7-10.7 1.2-1.3 4.8 5.1 3.8 6.6s-4.4 4.6-4.4 4.6 3.6 4.9 2.5 6.4c-2.8 2.9-6 6-9.6 9.2 0 0-4.5-4.7-4.8-6-.3-1.3 5.1-4.4 5.1-5.4.1-1-3.3-4.7-3.3-4.7zM366.8 748.8c-4.1 2.6-8.4 5.2-12.9 7.9-2.4 1.4-4.2-7-4.2-7l8-4.9s-3.1-4.4-3-5.1c3.8-2.4 8-5.3 12.5-8.3 0 0 3.9 5.4 2.6 6.2-1.3.8-6.2 3.1-6.2 4.4.1 1.3 3.2 6.8 3.2 6.8zM381.8 721c3.4-2.6 6.8-5.2 10.2-7.9 0 0 3.8 4.4 3.6 6-.3 1.5-5.4 4.1-5.7 5.4-.3 1.3 2.3 6.7 2.3 6.7-3.2 2.4-6.5 4.9-10.1 7.4 0 0-5.3-5.4-4.6-6.4.8-1 6.7-4.4 7.2-5.4-1 .1-2.9-5.8-2.9-5.8z"/><path class="st8" d="M446 813.3c-11.3 3.3-17-2.1-16.7-9.3.2-6.4 8.5-9.8 8.5-9.8l21.1-.3s8.7 1.3 8.2 11.3-11.3 8.5-13.6 8v26l-7.5-.2v-25.7h0z"/><path class="st3" d="M449.8 840.9c0 5-4.1 9.1-9.1 9.1s-9.1-4.1-9.1-9.1 4.1-9.1 9.1-9.1c5-.1 9.1 4 9.1 9.1z"/><circle class="st3" cx="460.1" cy="839.4" r="9.1"/><path class="st2" d="M436.5 806.4c8.2 1 8.7-2.8 7.2-9.8M458.1 805.9c-7.7 1-6.4-10.3-6.4-10.3"/><path class="st4" d="M441.1 773.2c.5 5.7 11.3 4.9 12.6.5 1.3-4.4 3.1-109.1 3.1-109.1l-11.3-.3s-4.6 105.5-4.4 108.9z"/><path class="st9" d="M440.1 781.7s-8.2 1-8.2 5.4 3.1 10.3 16.7 9.8c13.9-.5 15.7-5.4 15.2-9.5s-7.7-5.9-7.7-5.9l-16 .2z"/><path class="st10" d="M453.8 773.7c-1.3 4.4-12.1 5.1-12.6-.5 0 0-5.4-.3-5.9 4.9-.5 5.1 5.1 8.7 13.1 8.7s10.5-4.1 10.8-8c.2-3.8-5.4-5.1-5.4-5.1z"/><path class="st8" d="M444.4 690.8c.2-5.3.4-10.1.6-14.2 0 0 5.7 0 5.9.8.3.8 0 5.7 0 6.4s5.6.8 5.6.8c-.1 4.4-.2 9.3-.3 14.4 0 0-5.3-2.3-5.3-3.6 0-1.3-.3-4.6-.3-4.6h-6.2zM441.3 765.4c-.2 4.4-.2 7.2-.2 7.7.4 4.2 8.5 6 12.9 1 0 0 .5-2.2 0-3.2s-6-.2-6-.2.1-3.8-.4-4.8-6.3-.5-6.3-.5zM454.6 758.8c.2-4.2.3-9.1.5-14.4 0 0-5.2-.8-6-1.8-.8-1 .3-7.7 0-8.7s-6.5-.5-6.5-.5c-.2 4.9-.4 9.5-.6 13.9l6.8.8s-.8 8.5-.3 9.5c.6.9 6.1 1.2 6.1 1.2zM455.5 727.9c.1-4.4.2-8.9.3-13.4 0 0-5.4-1.3-5.4-2.6s.8-7.7-.5-8.5c-1.3-.8-6-.2-6-.2-.2 4.7-.4 9.5-.6 14.4l6.9.5s-.3 6.4 0 8c.2 1.5 5.3 1.8 5.3 1.8zM373.7 775s-6.4-5.9-13.1 1.8c-6.7 7.7.8 20.6 8.2 20.3l-15.9 29.3 6.7 3.9 16.5-28.8s11.6 10.8 18.8-.3c4.1-6.7-2.6-13.9-2.6-13.9L373.7 775z"/><path class="st2" d="M368 782.2s-1.3 6.4 3.6 7.5c4.9 1 6.7-8.7 6.7-8.7M386.8 796.3s-6.4 3.1-7.2-2.3c-.8-5.4 8-6.9 8-6.9"/><path class="st9" d="M384.5 768.3s-7.7-4.6-10.5-.8c-2.8 3.9-.5 11.8 6.2 17.5 6.7 5.7 15.7 4.9 18 2.3 3.6-3.9-3.3-11.1-3.3-11.1l-10.4-7.9z"/><path class="st10" d="M391.5 760.8c-3.1-2.6-9.4-.8-10.3 4.4-1.3 7.7 8.5 17.2 18.3 14.7 4.4-1.5 6.2-10 2.1-12.1-4.1-2.1-3.1-8-3.1-8s-3.9 3.6-7 1z"/><path class="st8" d="M391.5 760.8s48.4-57.4 47.1-95.2c3.1-31.9 12.6-60.5 9.8 0-2.8 60.5-46.8 102.2-46.8 102.2s-7.6 0-10.1-7z"/><path class="st4" d="M408.6 737.9c-2.8 4.2-5.6 7.9-7.9 11.2l3.6 3.8s-3.1 4.1-3.3 5.2c-.3 1 4.9 5.2 4.9 5.2 2.2-2.5 5.2-5.9 8.5-10.2 0 0-5.2-3.7-4.6-4.8.5-1 4.1-4.9 4.1-5.9 0-1.1-5.3-4.5-5.3-4.5zM432.1 724.8c-2.6 5.2-5.3 9.9-8.1 14.3 0 0-5.8-3.2-5.6-4.5.3-1.3 4.1-5.1 3.9-6.2-.3-1-4.9-4.2-4.9-4.2 2.4-3.9 4.8-8.1 7-12.3 0 0 6.1 2.8 6.1 3.8s-3.6 5.1-3.9 6.4c-.1 1.4 5.5 2.7 5.5 2.7zM438.8 690.3c-.3-1-4.3-1.2-4.3-1.2-1.1 3.4-2.4 6.8-3.9 10.2l4.7 2.3s-2.1 4.4-2.1 5.4 5.5 3.1 5.5 3.1c1.3-3.5 2.6-7.1 3.8-10.8L437 696s2.1-4.7 1.8-5.7zM446.6 681.8c.9-5.2 1.5-10.6 1.8-16.2 2.8-60.5-6.7-31.9-9.8 0 .1 2.3 0 4.6-.3 6.9l3.4 1s-.8 6.4-.3 7.5c.5 1.1 5.2.8 5.2.8z"/><path class="st3" d="M358.8 821.2c0 5-4.1 9.1-9.1 9.1s-9.1-4.1-9.1-9.1 4.1-9.1 9.1-9.1c5-.1 9.1 4 9.1 9.1z"/><circle class="st3" cx="368.2" cy="831.5" r="9.1"/><path class="st13" d="M578.1 728.7s-3.6-15.7 13.6-17.2c-8 5.4-6.4 17-6.4 17l-7.2.2zM575.5 755.9s-2.8 18 14.4 19.6c-8-5.4-5.9-18-5.9-18l-8.5-1.6zM598.8 728.1s-3.6-15.7 13.6-17.2c-8 5.4-6.4 17-6.4 17l-7.2.2zM596.2 755.4s-2.8 18 14.4 19.6c-8-5.4-5.9-18-5.9-18l-8.5-1.6zM557.8 726.6s-2.8-17.2 16.2-17.4c-8.3 4.9-9 17.7-9 17.7l-7.2-.3zM536.7 724.7s-3.4-20.1 22.2-15.5c-11.4 1.9-14.2 15.2-14.2 15.2l-8 .3zM534.7 748.8s-4.1 17.8 13 20.6c-7.6-6-4.6-18.4-4.6-18.4l-8.4-2.2zM555.3 751.9s-4.1 17.8 13 20.6c-7.6-6-4.6-18.4-4.6-18.4l-8.4-2.2z"/><path class="st13" d="M521.8 720.3s-2-20.3 23.2-14c-11.5 1.1-15.2 14.2-15.2 14.2l-8-.2zM513.5 741.6s-8.6 16.1 7.2 23.2c-5.8-7.7.3-19 .3-19l-7.5-4.2z"/><path class="st13" d="M509.3 708.8s4.8-19.8 26.5-5.6c-11.2-2.7-19.1 8.4-19.1 8.4l-7.4-2.8zM494.4 726.5s-13.4 12.4-.8 24.3c-2.9-9.2 6.5-17.8 6.5-17.8l-5.7-6.5z"/><path class="st13" d="M501 694.2s10.8-17.2 26.9 3.2c-9.7-6.1-20.8 1.9-20.8 1.9l-6.1-5.1zM481.7 708s-16.7 7.4-8.6 22.7c.2-9.6 11.9-14.8 11.9-14.8l-3.3-7.9zM494.1 659.4s16.1-12.5 24.2 12.1c-7.1-9.1-20.2-5.3-20.2-5.3l-4-6.8zM471.3 665.8s-18.2 1.3-15.8 18.5c3.5-9 16.2-9.9 16.2-9.9l-.4-8.6z"/><path class="st3" d="M485.4 682.4c-8.6 2-16.3 1.1-18.8-10.8-1-4.8 1.6-9.1 5.4-10.7 4-3.5-2.1-10.3 6.8-11.9 8.9-1.5 5.7 8.5 8.6 8.6 6.1.2 7.5 4 8.8 9.6 2 8.5-2.2 13.2-10.8 15.2z"/><path class="st13" d="M496 678.2s13.8-15 25.8 8.1c-8.4-7.8-20.8-2-20.8-2l-5-6.1zM474.5 688.3s-17.7 4.2-12.6 20.8c2-9.4 14.4-12.3 14.4-12.3l-1.8-8.5z"/><path class="st13" d="M494 701.2c-8.2 3.4-15.9 3.7-20.3-7.6-1.7-4.5.1-9.2 3.6-11.4 3.4-4.1-3.8-9.9 4.7-12.8 8.5-3 7 7.5 9.9 7.1 6.1-.8 8.1 2.8 10.3 8 3.3 8-.1 13.4-8.2 16.7z"/><path class="st13" d="M503.2 717.1c-7.4 4.8-15 6.6-21.3-3.8-2.5-4.1-1.6-9.1 1.4-11.9 2.6-4.7-5.5-9 2.3-13.5s8.2 6 11 5.1c5.8-1.9 8.5 1.2 11.5 6 4.8 7.5 2.5 13.3-4.9 18.1z"/><path class="st13" d="M517.7 728.3c-5.5 6.9-12.1 11-21.4 3.2-3.7-3.1-4.4-8.1-2.5-11.7.9-5.3-8.1-6.8-2.1-13.5 6-6.8 9.7 3.1 12.1 1.3 4.9-3.7 8.4-1.5 12.9 2 6.8 5.5 6.5 11.8 1 18.7z"/><path class="st13" d="M536.1 735.6c-2.9 8.3-7.8 14.4-19.2 10.1-4.6-1.7-6.8-6.2-6.2-10.2-.9-5.3-9.9-3.7-6.4-12 3.4-8.3 10.2-.3 11.8-2.7 3.4-5.1 7.4-4.2 12.8-2.4 8.3 2.8 10 8.8 7.2 17.2z"/><path class="st13" d="M555 737.1c-.6 8.8-3.8 15.9-15.9 14.7-4.8-.5-8.2-4.2-8.6-8.3-2.2-4.9-10.5-1-9.3-10 1.2-9 9.8-2.9 10.7-5.7 2-5.8 6.1-6 11.7-5.6 8.8.8 12 6.2 11.4 14.9z"/><path class="st13" d="M575.2 740.8c-.5 8.8-3.6 16-15.7 14.9-4.8-.4-8.2-4.1-8.7-8.2-2.3-4.9-10.5-.9-9.5-9.8 1-9 9.7-3 10.7-5.8 1.9-5.8 6-6.1 11.7-5.8 8.8.5 12.1 5.9 11.5 14.7z"/><path class="st13" d="M599.2 742.6c0 8.8-7.1 15.9-16 15.9-4.9 0-10.8-3.6-12.3-7.5-2.5-4.7-10.5-.3-10-9.3s9.6-3.6 10.3-6.4c1.5-5.9 6.4-8.7 12.1-8.7 8.7 0 15.9 7.1 15.9 16z"/><path class="st13" d="M619.9 742c0 8.8-7.1 16-16 16-4.9 0-10.8-3.6-12.4-7.5-2.5-4.7-10.5-.3-10-9.3s9.6-3.6 10.3-6.4c1.5-5.9 6.4-8.7 12.1-8.7 8.9 0 16 7.1 16 15.9z"/><path class="st13" d="M606.6 735.3s-6.2.3-6.7 6.9c-.5 6.7 6.2 8 6.2 8s.5 10.5 7.5 10.5 7.7-5.7 7.7-5.7v-18.5s1.5-11.3-6.7-11.8c-8.2-.4-8 10.6-8 10.6z"/><path class="st13" d="M629.3 717.6c6.4-1.3 8 9 4.9 11.8s-12.9 11.3-12.9 11.3-1.6-6.9-.5-10.3c1-3.3 9.5-7.9 8.5-12.8zM620.5 751c-1.5 1.5-5.4 5.9-3.1 9.5s11.1 6.7 14.4 10.5c2.6-3.6 2.1-6.9 0-9.5-2-2.5-8.9-7.4-11.3-10.5z"/><path class="st13" d="M651.2 745.2c0 8.9-7.2 16.1-16.1 16.1s-16.1-7.2-16.1-16.1c0-8.9 7.2-16.1 16.1-16.1 8.9.1 16.1 7.3 16.1 16.1z"/><path class="st13" d="M649.4 737.4s-13-1-16.2 0c-4.9 1.5-4.1 12.9.5 13.6 4.6.8 16.7.5 16.7.5-5.1 4.9-.8 13.9 5.7 13.1 6.4-.8 9.8-6.9 10-10.8-.8-6.9-6.4-9.5-6.4-9.5s6.4-2.1 5.9-7.5c-.4-3.9-1.8-9.5-9.3-9.8-6.9-.1-9.5 7.8-6.9 10.4z"/><path class="st2" d="M650.4 751.6c2.3-1.8 6.2 1.8 7.2 4.9M656.3 734.8c-1.3 2.3-3.9 4.9-6.9 2.6M636 743.8c.5 3.9 19.8 1.3 23.7.5-3.4.8-24.2-4.3-23.7-.5z"/><path class="st3" d="M393.5 636.2s-14.9 38.1-24.2 48.9c.3.8 31.7 13.4 32.9 12.9 1.3-.5 8-18 8-18s18 2.6 19.8 2.8c1.8.3 6.2-18 6.2-18s19 2.3 20.1 2.3c1 0 1.3-17.8 1.3-17.8l32.4 1.3s-1.3 19-.3 19.6c1 .5 22.1-.5 22.1-.5s1 15.4 2.6 16.7c1.5 1.3 20.1-2.6 20.1-2.6s3.3 15.7 4.6 17c1.3 1.3 38.1-5.4 36.3-7.7-1.8-2.3-19.8-41.9-21.9-62.5-3.3-6.7-104.5-7.2-104.5-7.2h-46.8l-8.7 12.8z"/><path class="st8" d="M381.2 682.1c9.5-13.4 22.6-55.6 22.6-55.6s141.3-2.6 142.1 3.1c2.8 27.5 21.6 60 21.6 60s-22.4 5.7-23.4 4.6c-1-1-5.7-19.3-7.5-19.6-1.8-.3-14.4 4.1-15.4 3.1-1-1-.5-16-2.3-16.7-1.8-.8-20.1.3-21.1-.8-1-1-.5-16.2-1.5-16.7s-43.7-2.1-44.8-1.3c-1 .8-.8 17-.8 17s-18.8-3.3-20.3-2.6c-1.5.8-2.6 16.2-3.6 17.2s-19.3-3.1-21.1-2.6c-1.8.5-5.4 19.3-7.2 19-1.9-.2-17.3-8.1-17.3-8.1z"/><path class="st3" d="m408.7 629 160.6 3.1.3-48.9-170.2-4.9-14.4 35z"/><path class="st8" d="m404.1 588.6 156.2 6.7.3 28.6-164.2-5.9-6.7-4.2 1.8-12.8z"/><path class="st9" d="M456.3 604.5c0 7.9-7.1 14.3-16 14.3s-15.9-6.4-15.9-14.3 7.1-14.3 15.9-14.3c8.9 0 16 6.4 16 14.3zM499.6 606.1c0 7.9-7.1 14.3-16 14.3-8.8 0-16-6.4-16-14.3s7.1-14.3 16-14.3c8.8 0 16 6.4 16 14.3zM543.6 607.7c0 7.9-7.1 14.3-16 14.3-8.8 0-16-6.4-16-14.3s7.1-14.3 16-14.3c8.8 0 16 6.4 16 14.3zM413.3 602.6c0 8.5-7.2 15.4-16.1 15.4-8.9 0-16.1-6.9-16.1-15.4s7.2-15.4 16.1-15.4c8.9 0 16.1 6.9 16.1 15.4z"/><circle class="st8" cx="440.3" cy="604.5" r="5.8"/><path class="st8" d="M403.4 602c0 3.2-2.6 5.8-5.8 5.8-3.2 0-5.8-2.6-5.8-5.8 0-3.2 2.6-5.8 5.8-5.8 3.2 0 5.8 2.6 5.8 5.8z"/><circle class="st8" cx="483.6" cy="606.1" r="5.8"/><path class="st8" d="M533.9 606.9c0 3.2-2.6 5.8-5.8 5.8-3.2 0-5.8-2.6-5.8-5.8 0-3.2 2.6-5.8 5.8-5.8 3.2 0 5.8 2.6 5.8 5.8zM406.9 389.1s-12.7-3.2-21.6.5c-18.5 7.7-41.2 48.4-60.2 85.5-13.1 25.6-40.7 74.6-79.8 106.6-14.5 11.9-29.5 27.5-28.3 29.4 11.3 10.8 82.2-63 82.2-63-26.8 42.9-72.8 80.8-69.7 85.5 16.1 13.9 81.2-78.1 81.2-78.1-3.3 22.1-72.2 89.7-66.8 94.9 8.6 8.2 65.9-63.5 80.1-85.6-30.4 54-67.8 95.6-65.9 100.4 7.4 16.1 75.8-81.2 79.1-94.7-21.4 44.1-63.1 106-59.5 109.1 7 5.1 33.5-27.5 70-104.5-13.9 39-53.7 116.9-50.4 119.4 3.3 2.6 44.1-57.5 63.8-111.7-20.1 61.4-48.6 119.1-42.2 120.5 10.1 3.1 50.4-100.4 50.4-100.4-1.9 21.4-39 110.3-32.9 110.7 11.2.3 40.3-85.1 42.2-88 3.9 21.1-26.2 95.9-22.6 97.3s32.8-44.6 42.7-84.9c-3.4-25.2-2.6-104.5-2.6-104.5s3.1-16.7.2-20.9-11.5-6.9-11.5-6.9 17.7-38.8 12.9-54.6c5.5-2.1 7.2-9.8 7.2-9.8l12.9-24.7-10.9-27.5z"/><path class="st2" d="m328.3 488.3-8.9 17.2M335.2 493.1l-8.9 15.8M344.8 498.3l-8.6 15.8M354.1 502.7l-7.9 14.8M366.1 507.9l-8.3 16.5M376.7 514.4l-8.6 13.7M387.7 518.9l-10 16.8"/><path class="st3" d="M313 497.3c-7.4 12.8-16.6 27.4-27.6 41.9 1.7 7.5 13.7 8.9 13.7 8.9-.3 4.8 9.6 9.3 11.5 7.4 2.2 6 13.4 9.3 13.4 9.3s7.5 6.5 13.2 5.7c0 0 7.2 6.9 16.5 5.8-.7 3.4 10 9.6 16.5 3.8 18.9 7.9 25.7-18.7 25.8-39.1l-83-43.7z"/><path class="st2" d="m353.7 576.2 12.7-33.7M354.7 537.1l-17.5 33.2M324 564.7l18.7-33.8M310.7 555.4l19-32.4M318 516.8 299.1 548"/><path class="st3" d="M406.9 389.1s-12.7-3.2-21.6.5c-11.7 4.9-25.1 22.9-38.2 44.9-7.6 12.8 48.5 47.1 50.9 29.2.7-5 .7-9.5-.4-12.9 5.5-2.1 7.2-9.8 7.2-9.8l12.9-24.7-10.8-27.2z"/><path class="st2" d="m389.4 448.2 8.9-18.2M380.8 444.1l9.3-19.9M371.9 438.2l11-18.5M361.6 433.8l11.3-19.3"/><path class="st6" d="M384.8 505.5s17.7-38.8 12.9-54.6l-45.4-24.7c-9.3 14.8-18.6 32.2-27.2 48.9l59.7 30.4z"/><path class="st2" d="M389.4 480.1 340.3 455M345.5 466l-8.3 14.8M353.7 471.5l-7.5 14.8M363.3 476l-7.2 14.4M372.6 480.8l-7.2 14.4M382.2 484.9l-6.5 15.8M389.1 457.4l-8.6 17.9M381.2 452.6l-9 17.5M371.9 448.5 363 466M363.3 443.4l-8.9 17.8M355.1 439.6l-8.9 17.8"/><path class="st10" d="M523 423.1s24.7 16.2 27.3 23.2c2.6 6.9 1.3 17.8 2.1 21.9.8 4.1 13.6 20.3 15.7 36.8l-90.1.5-9.5-10.3 11.8-22.6 29.1-40.4 13.6-9.1z"/><path class="st3" d="m559.8 413.3-14.7-4.6-10.5-2.3-14.7 18.3 24 18.2 6.9-2.3h10.6l7.2-19.8z"/><path class="st11" d="m488.8 460.7 20.6-28.6 13.6-9s24.7 16.2 27.3 23.2c2.6 6.9 1.3 17.8 2.1 21.9l-29.1 5.4-21.6-2.3-12.9-10.6z"/><path class="st1" d="m523.3 473.6-21.6-2.3-12.9-10.5 11.9-16.5s22.1 11.8 23.1 14.7c1 2.7-.5 14.6-.5 14.6zM535.6 471.3l16.7-3.1c-.8-4.1.5-14.9-2.1-21.9-1.5-3.9-10.1-10.9-17.3-16.2-2.8-1.1-13.9 11.8-14.4 13.3s14.4 10.3 16.2 12.6c1.9 2.4.9 15.3.9 15.3z"/><path class="st3" d="M591.5 429.3s17.8 7.2 20.9 14.4-3.4 8.9-3.4 8.9 12 14.1 14.1 15.1c2.1 1-.3 6.3-3.3 4.6 2.1 2.4 0 6.2-3.3 3.3 2.1 3.1-1.7 4.2-3.1 2.8 1 1.5-.2 3-2.6 2.3-2.4-.7-10.6-5.5-12-9.3-1.4-3.8-13-26.8-13-26.8l5.7-15.3z"/><path class="st2" d="M602.8 442.9c3.1 2.8 6.3 9.7 6.3 9.7M609.5 462.5l10.3 9.8M606.4 466.4s8 8 10 9.3M602 468.9c1.5 2.6 7.7 6.7 11.3 9.5"/><path class="st3" d="M556.6 437.2c0 3.3-2.7 5.9-5.9 5.9-3.3 0-5.9-2.7-5.9-5.9 0-3.3 2.7-5.9 5.9-5.9 3.3 0 5.9 2.6 5.9 5.9zM565.7 417.6c0 3.5-2.8 6.3-6.3 6.3s-6.3-2.8-6.3-6.3 2.8-6.3 6.3-6.3 6.3 2.8 6.3 6.3z"/><path class="st8" d="M582.4 452.2c2.1-.5 10.3-22.9 10-25s-23.7-13.4-27-12.1-12.4 25.2-10.8 27.5c1.6 2.4 25.8 10.1 27.8 9.6z"/><path class="st10" d="M573.3 417c8 3.1 19.1 8.8 19.2 10.2.2 1.5-4.2 13.9-7.3 20.7 0 0-19.2-4.9-21-7-1.8-2.1 8.5-24 9.1-23.9z"/><path class="st2" d="m570.1 422.9 20.8 9.5M566.8 431.1l21.3 8.8"/><path class="st4" d="M493.7 353.4s17.8 1 20.1.5c2.3-.5 1.5-6.9 1.5-6.9l-19.3-.5-2.3 6.9z"/><path class="st2" d="m510.1 354.1.8-5.1M505 353.4l.5-5.4M499.8 353.4l.5-5.4"/><circle class="st4" cx="485.5" cy="505.9" r="7.3"/><path class="st2" d="M488 506c0 1.4-1.2 2.6-2.6 2.6s-2.6-1.2-2.6-2.6 1.2-2.6 2.6-2.6c1.4 0 2.6 1.2 2.6 2.6z"/><path class="st4" d="M506.8 507.2c0 4.1-3.3 7.3-7.3 7.3-4.1 0-7.3-3.3-7.3-7.3s3.3-7.3 7.3-7.3c4-.1 7.3 3.2 7.3 7.3z"/><path class="st2" d="M501.9 507.3c0 1.4-1.2 2.6-2.6 2.6s-2.6-1.2-2.6-2.6 1.2-2.6 2.6-2.6c1.4 0 2.6 1.2 2.6 2.6z"/><path class="st4" d="M522 507.2c0 4.1-3.3 7.3-7.3 7.3-4.1 0-7.3-3.3-7.3-7.3s3.3-7.3 7.3-7.3c4-.1 7.3 3.2 7.3 7.3z"/><path class="st2" d="M517.1 507.3c0 1.4-1.2 2.6-2.6 2.6-1.4 0-2.6-1.2-2.6-2.6s1.2-2.6 2.6-2.6c1.4 0 2.6 1.2 2.6 2.6z"/><path class="st4" d="M538.4 506.1c0 4.1-3.3 7.3-7.3 7.3-4.1 0-7.3-3.3-7.3-7.3s3.3-7.3 7.3-7.3 7.3 3.3 7.3 7.3z"/><path class="st2" d="M533.6 506.3c0 1.4-1.2 2.6-2.6 2.6-1.4 0-2.6-1.2-2.6-2.6s1.2-2.6 2.6-2.6c1.4 0 2.6 1.1 2.6 2.6z"/><path class="st4" d="M553.4 505.1c0 4.1-3.3 7.3-7.3 7.3-4.1 0-7.3-3.3-7.3-7.3s3.3-7.3 7.3-7.3 7.3 3.3 7.3 7.3z"/><path class="st2" d="M548.5 505.2c0 1.4-1.2 2.6-2.6 2.6-1.4 0-2.6-1.2-2.6-2.6s1.2-2.6 2.6-2.6c1.4 0 2.6 1.2 2.6 2.6z"/><path class="st4" d="M568.6 503.3c0 4.1-3.3 7.3-7.3 7.3-4.1 0-7.3-3.3-7.3-7.3s3.3-7.3 7.3-7.3 7.3 3.2 7.3 7.3z"/><circle class="st2" cx="561.1" cy="503.4" r="2.6"/><path class="st4" d="m490.8 464.6 21.4 5.9s-.8-9.5-6.4-12.1c-5.7-2.6-15 6.2-15 6.2z"/><path class="st2" d="m413.6 424.3 4.1-7.8-10.8-27.3s-12.7-3.2-21.6.5c-4.6 1.9-9.5 5.9-14.5 11.4l42.8 23.2z"/><path class="st14" d="M581.2 564.9c-2.1-2.1-5.4-11.6-5.4-11.6"/><path class="st11" d="M528.4 590.7c9.8.3 9.8-8.2 9.8-8.2l-3.1-11.3-17.8-7.7-12.6 5.1 8.2 16c.1-.1 5.7 5.8 15.5 6.1z"/><path class="st11" d="M515.8 583c14.4-1 15.9-5.7 15.9-5.7l-4.9-11.3-17.8-3.6-6.2 7.7c.1 0-1.4 13.9 13 12.9z"/><path class="st11" d="M483.9 533c-5.4-4.4-53.3-1.6-53.3-1.6s-30.9-10.8-45.3 3.6-17.5 41.2-14.9 54.3c.3 2.3-14.4 10.3-11.6 15.7 2.8 5.4 17.5-3.6 21.6-14.2 1.5 16.2-4.6 29.6-4.6 29.6s-12.3 1.5-8.5 13.1c8.5-13.1 6.9-1.8 12.1-1 5.1.8 9.8.8 9.8.8s-.8 5.7-1.3 10.5c4.6-1.3 8-9.3 8-9.3s1.8 4.6 4.1 11.3c4.6-3.1 3.9-11.3 3.9-11.3s4.1 5.7 7.5 10.3c3.3-6.2 2.3-9.8 1.5-13.6-2.8-9-17.5-11.6-18.8-19.3-1.3-7.7 10-14.1 16.2-33.2 25 3.3 84.4 4.9 91.6 5.7 7.2.8 43.5 31.9 43.5 38.3s-4.9 8 .8 16.5c2.6-3.3 7.5-12.1 7.5-12.1s6.7 4.9 11.3 12.3c2.1-5.1-.3-12.6-.3-12.6s5.7 5.9 9.8 12.4c1.8-6.9-2.8-14.2-2.8-14.2s7.7 3.9 12.1 7.7c.3-8.5-6.9-14.7-11.1-15.7-4.1-1-11.6 0-11.6 0s-52.5-44.5-52.2-46.1c.2-1.5 3.1-4.1 5.7-4.4 4.1-.4 16.5 12.6 22.4 12.3 5.9-.3-3.1-27.5-3.1-27.5l-32.4-15.7c-.1.3-12.2 1.8-17.6-2.6z"/><path class="st15" d="M574.2 626.5c2.6 1.5 6.8 3.9 9.6 6.4.2-5.8-3.2-10.6-6.6-13.3-1.3.2-4.5 3.8-3 6.9zM566.5 629c2 2.3 5.3 6.2 7.9 10.3 1.2-4.6-.4-9.3-1.7-12-1.1-2.1-7.3.4-6.2 1.7zM556.8 629.9c2.4 2.2 5.5 5.5 8.1 9.6 1.4-3.5.8-8 .2-10.5-.2-1.2-7.5-3.2-8.3.9zM544.9 626.2c-1.1 4-3.3 6.3 1.2 13.1 1.6-2.1 4.2-6.4 5.8-9.2-1.4-3.6-4.2-4.4-7-3.9z"/><path class="st12" d="M574.2 626.5c2.6 1.5 6.8 3.9 9.6 6.4.2-5.8-3.2-10.6-6.6-13.3-1.3.2-4.5 3.8-3 6.9zM566.5 629c2 2.3 5.3 6.2 7.9 10.3 1.2-4.6-.4-9.3-1.7-12-1.1-2.1-7.3.4-6.2 1.7zM556.8 629.9c2.4 2.2 5.5 5.5 8.1 9.6 1.4-3.5.8-8 .2-10.5-.2-1.2-7.5-3.2-8.3.9zM544.9 626.2c-1.1 4-3.3 6.3 1.2 13.1 1.6-2.1 4.2-6.4 5.8-9.2-1.4-3.6-4.2-4.4-7-3.9z"/><path class="st2" d="M574.2 626.5c2.6 1.5 6.8 3.9 9.6 6.4.2-5.8-3.2-10.6-6.6-13.3-1.3.2-4.5 3.8-3 6.9zM566.5 629c2 2.3 5.3 6.2 7.9 10.3 1.2-4.6-.4-9.3-1.7-12-1.1-2.1-7.3.4-6.2 1.7zM556.8 629.9c2.4 2.2 5.5 5.5 8.1 9.6 1.4-3.5.8-8 .2-10.5-.2-1.2-7.5-3.2-8.3.9zM544.9 626.2c-1.1 4-3.3 6.3 1.2 13.1 1.6-2.1 4.2-6.4 5.8-9.2-1.4-3.6-4.2-4.4-7-3.9z"/><path class="st15" d="M405.5 637c1.5 2.1 3.8 5.2 5.8 8 2.8-5.2 2.5-8.6 1.9-11.9-2.7-2-7.6 1.9-7.7 3.9zM400.2 632c-4.1 0-4.3 3-4.1 3.6.6 1.6 2.1 5.5 3.8 10.5 4.6-3.1 3.9-11.3 3.9-11.3s.5-2.8-3.6-2.8zM392.8 632.8c-2.2-.2-3.7.6-3.7.6s-.8 5.7-1.3 10.5c4.6-1.3 8-9.3 8-9.3s-.7-1.6-3-1.8zM375.8 620.5s-12.3 1.5-8.5 13.1c4.2-6.6 6-7 7.3-5.7 3-2.5 1.2-7.4 1.2-7.4z"/><path class="st12" d="M405.5 637c1.5 2.1 3.8 5.2 5.8 8 2.8-5.2 2.5-8.6 1.9-11.9-2.7-2-7.6 1.9-7.7 3.9zM400.2 632c-4.1 0-4.3 3-4.1 3.6.6 1.6 2.1 5.5 3.8 10.5 4.6-3.1 3.9-11.3 3.9-11.3s.5-2.8-3.6-2.8zM392.8 632.8c-2.2-.2-3.7.6-3.7.6s-.8 5.7-1.3 10.5c4.6-1.3 8-9.3 8-9.3s-.7-1.6-3-1.8zM375.8 620.5s-12.3 1.5-8.5 13.1c4.2-6.6 6-7 7.3-5.7 3-2.5 1.2-7.4 1.2-7.4z"/><path class="st2" d="M405.5 637c1.5 2.1 3.8 5.2 5.8 8 2.8-5.2 2.5-8.6 1.9-11.9-2.7-2-7.6 1.9-7.7 3.9zM400.2 632c-4.1 0-4.3 3-4.1 3.6.6 1.6 2.1 5.5 3.8 10.5 4.6-3.1 3.9-11.3 3.9-11.3s.5-2.8-3.6-2.8zM392.8 632.8c-2.2-.2-3.7.6-3.7.6s-.8 5.7-1.3 10.5c4.6-1.3 8-9.3 8-9.3s-.7-1.6-3-1.8zM375.8 620.5s-12.3 1.5-8.5 13.1c4.2-6.6 6-7 7.3-5.7 3-2.5 1.2-7.4 1.2-7.4zM426.2 565.7c-2.1 4.6-14.7 10-16 13.1"/><path class="st16" d="M476.2 571.9c4.1-5.1 11.3-7.5 17.8-3.1-2.7 7.2-13.5 7.2-17.8 3.1zM407.2 538.9c4.4-6.4 10.5-1.3 10.5-1.3s-6.7 4.7-10.5 1.3zM445.8 574.5c0-3.3 2.1-5.2 4.1-6.7 2.1-1.5 6.4-.8 7.5-1.8 1-1 .3-5.1-.8-5.9 4.1.8 5.7 6.2 3.6 8-2.1 1.8-7.2 1.8-9 2.3s-5.4 4.1-5.4 4.1zM428.8 575.2c2.3 2.3 6.2.3 7.2-2.1-3.1-2-5.9-1-7.2 2.1zM395.3 576s.8-9 4.4-10c3.6-1 10.5 1.5 12.6.5s6.9-6.7 6.9-6.7-2.1 8.2-5.9 9.8c-3.9 1.5-9.5-2.1-13.1 0-3.6 2-4.9 6.4-4.9 6.4zM383 559.8s7.5 1.3 9.5 0c2.1-1.3 2.1-9.3 4.6-9.8 2.6-.5 6.4-.3 6.4-.3s-5.1-3.4-7.5-2.8c-2.3.5-3.6 7.2-5.4 9.3-1.7 2-7.6 3.6-7.6 3.6zM390.9 577.5c-7.2 4.6-6.7 8.5-8.7 13.9 6.9-2.5 7.5-9 8.7-13.9zM382.7 576.5c-.8-2.3-.3-6.7 3.6-8.7 1.8 4.6-1.8 7.7-3.6 8.7zM379.4 577.8s-4.9-.5-5.4 6.2c3-.5 5.4-6.2 5.4-6.2zM370.6 590.4c3.6-1.8 4.1 1 4.9 2.3-2.8 1.3-5.7 1.1-4.9-2.3zM433.9 548.5c1.3-4.6 4.1-7.2 8.2-6.9 3.2 4.5-6.6 8.7-8.2 6.9zM442.4 551.6s2.8-3.6 6.9-.8c-2.2 4.1-6.9.8-6.9.8zM437.8 566.5c-1-1.3-1.5-5.9 1.3-7.7 2.8-1.8 12.6-1.5 13.9 1.5-4.9.3-10 .5-12.1 1.8-2.1 1.3-2.3 3.4-3.1 4.4zM419 554.4s.3-5.1 5.9-3.9c-.7 4.4-5.9 3.9-5.9 3.9zM407.2 549.8c4.1 2.1 8.2-3.1 8.2-3.1s-5.7-3.1-8.2 3.1zM417.7 542.3c4.4.8 5.7-3.9 5.7-3.9s-4.7-.5-5.7 3.9zM427.8 535.9c4.6-3.9 11.6-1 11.6-1s-6.2 4-11.6 1zM403.3 561.1c4.6 1.8 7.7-3.6 7.7-3.6s-6.4-1.3-7.7 3.6zM380.1 561.8s-5.4 0-5.9 7.5c2.6.8 5.9-7.5 5.9-7.5zM458.4 549.2s4.9 4.4 8.5 3.6 5.7-3.1 8.7-3.3c3.1-.3 9 2.8 9 2.8s-5.1-6.2-8.7-5.9-7.2 3.4-9.5 3.9-8-1.1-8-1.1zM478.7 559c5.7 2.1 12.1.5 14.7-2.8s-1.8-6.2-5.4-5.7c1 2.3-2.8 6.7-9.3 8.5zM466.9 558c3.3-4.4 8.5-1 8.5-1s-3.4 3-8.5 1zM452.7 577.5c3.1-5.4 10.8-2.6 10.8-2.6s-5.4 3.7-10.8 2.6zM450.2 535.6s-1.8 4.4 5.4 7.2 13.9-1.3 13.9-1.3-13.3 2.1-13.9-5.9c-.7-8-5.4 0-5.4 0zM500.6 554.4c10.5.3 17.5 0 17.5 0l-1 4.4s-12.9 1.8-16.5-4.4z"/><path class="st4" d="M591.2 583c-2.8-6.2-5.1-9.8-19.8-14.9-.8-2.6-6.2-3.3-6.2-3.3l-7.7 5.1s2.6 4.6 3.3 5.7c11.6 7.1 21.9 10.4 30.4 7.4z"/><path class="st4" d="M568.6 567.3s2.8 4.1 4.4 6.9c2.8-2.3 2.8-7.2 2.8-7.2s1.8 2.6 4.9 5.9c2.3-2.8.5-8 .5-8s2.8 5.1 7.5 8.5c2.6-3.3.5-9 .5-9l-6.2-6.2-14.4 9.1zM564.2 575.5s2.1-1.3 8.5-.3c-.5 2.1-4.6 5.1-4.6 5.1s3.6-1.8 7.7-2.6c.8 2.6-3.6 5.7-3.6 5.7s3.9-2.3 9.5-2.3c-1 3.6-6.2 5.7-6.2 5.7l-11.1-1.3-.2-10z"/><path class="st1" d="m574.5 545.6 8.7 5.2-7.2 6.4-5.9-1-1.3-8.2 2.1-4.7z"/><path class="st11" d="M592.2 565.5c4.1-3.3-3.4-9.8-3.4-9.8s5.7 4.1 6.4 1.3c1.5-6.4-3.6-11.1-10-9.8-6.4 1.3-5.4 4.4-9.5 6.2-4.1 1.8-4.9-8-4.9-8l-30.9-7.2-13.3 10.8s-11.1 1.5-12.9 4.4c.8 9.8 15.7 13.4 15.7 13.4s-.5 12.6 6.9 16c7.5 3.3 27.5 12.9 31.1 10.5 3.6-2.3 8.8-5.4 8-6.4-.8-1-14.4-13.4-14.4-17.8.5-1.5 19 1 20.1-4.1 5.2 1.7 11.1.5 11.1.5z"/><path class="st4" d="M548 555.4c-.5-2.6 2.3-6.7 4.9-7.2 2.6-.5 15.2 4.7 13.4 7.5-2.8 3.9-17.8 2.3-18.3-.3z"/><path class="st2" d="M526.3 555.9s13.4-2.3 13.9.5-2.3 8 4.1 10.8 9-3.9 9-3.9"/><path d="M556.7 551.7c-.3 4.3 4.8 2.9 4.6.3-.2-1.3-4.5-2.1-4.6-.3z" style="stroke:#000;stroke-width:2.8445"/><path class="st1" d="M548.5 553.6c-2.8 2.3-6.2-6.2-3.9-7.7 2.3-1.5 15.2.2 16 1.8.8 1.5 0 3.9 0 3.9s-9.3-.3-12.1 2z"/><path class="st16" d="M565 561.8c3.6 2.6 6.9.3 6.9.3s-3.1-3.9-6.9-.3zM548.7 575.2c2.8 3.9 7.2 0 7.2 0s-3.3-3.3-7.2 0z"/><path class="st14" d="M490.6 321.7c-3.1-.5-4.4-4.1-3.7-4.6 1.4-.4 2.8-.7 4.2-.6 3.6.3 4.1 2.3 4.6 3.1 0 0-2 2.6-5.1 2.1z"/><path class="st3" d="m508.8 319.1 23-16.4 14.1 12.7-23.3 19.5zM559.6 283.8s2.4-2.7 3.1-5.5c.7-2.7.7-20.9 2.7-24 2.1-3.1 7.2-10.6 9.3-11 2.1-.3 15.8 8.9 16.1 11.7.3 2.7-11 12.3-12 15-1 2.7.3 8.2-2.1 16.9 3.6-.9 4.1-17.8 6.9-16.5 5.1 1 4.8 11 3.4 15.8-1.4 4.8-13.4 13.7-13.4 13.7l-14-16.1z"/><path class="st2" d="m570.4 255.1 8.2-9.8M574.2 258.9l8.8-11.1M577.8 262.5l9-11.8"/><path class="st3" d="M535.9 302.5c0 2.9-2.4 5.3-5.3 5.3s-5.3-2.4-5.3-5.3 2.4-5.3 5.3-5.3c3 0 5.3 2.4 5.3 5.3zM550.4 320.7c0 3.5-2.8 6.4-6.4 6.4-3.5 0-6.4-2.8-6.4-6.4s2.8-6.4 6.4-6.4c3.5 0 6.4 2.9 6.4 6.4z"/><path class="st8" d="M576.4 301.3c-.7-2.4-15.8-20.3-17.8-20.6-2.1-.3-27.8 20.6-27.8 20.6l19.9 22c0-.1 26.4-19.6 25.7-22z"/><path class="st10" d="M555.9 310.6c3.8-1 17.5-13 17.6-13.8-4.7-6.1-13.3-15.8-14.8-16.1-1.3-.2-11.3 7.5-19 13.6-.1 0 12.4 17.3 16.2 16.3z"/><path class="st2" d="m543.3 298.5 18.8-14.4M548.2 305l19.3-14.4"/><path class="st4" d="M589.7 530.2c5.3 1.1 11.6.5 10.8 3.7-.8 3.2-4.6 3.6-4.6 3.6s.5 3.6-3.8 2.1c-.3 4.4-4.3 3.2-4.3 3.2s-1.5 4.5-5.6 1.7c-2.3 3.5-5.3-.1-5.3-.1s-2.7 4.5-6.9.2-3.1-9.6-3.1-9.6l6.2-8.4c-.1-.1 11.3 2.5 16.6 3.6z"/><path class="st2" d="m580.4 542 1.7 2.4M592.5 535.2l3.3 2.3M588.2 537.5l3.8 2M585 540.4l2.7 2.3"/><path class="st4" d="M533 534.3c-4.1-3.9-1.9-14 2.4-15.4 4.3-1.5 37.9 9.3 37.9 9.3s-1.6 10.7-3.4 10.4c-1.8-.4-36.9-4.3-36.9-4.3z"/><path class="st4" d="M557 523.3c8.5 2.4 16.3 4.9 16.3 4.9s2.2 13.2.4 12.8c-.7-.2-10.2-1.4-17.8-2.8l1.1-14.9z"/><path class="st8" d="M532 522c-2.5-.3-2.7-5.4-1.3-6.4 2.6-1.8 28-1.3 29.3.5 1.4 1.8 1.8 10.7.2 9.2-4.3-2.7-25.7-3.1-28.2-3.3z"/><path class="st8" d="M565.3 520.5c6.5-.8 16.6 1.7 19.7 3.7 3.1 2.1-3.1 9.5-8 11.1-2 .7-14.6-9.4-14.6-9.4s-3.5-4.6 2.9-5.4z"/><path class="st8" d="M563.8 527.4c1.6-.6 4.4-4.9 3.8-6.2-.6-1.3-5.8-5.5-7.5-5.2-1.7.3-2.7 6.6-2.8 8-.2 1.4 4.8 4.1 6.5 3.4z"/><path class="st4" d="M533 534.3s-4.2 4.5-1 6.7c22.6-1 38.7 6.1 40.7 5.4 2-.7 2.3-5.4.3-6.4-2.1-1.1-40-5.7-40-5.7z"/><path class="st4" d="M529.1 538.4c5 2 11.3 2.5 10 5.5-1.4 3-5.1 2.7-5.1 2.7s-.1 3.6-4.1 1.4c-1.1 4.3-4.8 2.4-4.8 2.4s-2.2 4.2-5.8.7c-2.8 3-5.2-1-5.2-1s-3.4 3.9-6.9-1-1.4-10-1.4-10l7.5-7.2s10.8 4.6 15.8 6.5z"/><path class="st2" d="m517.9 548.5 1.2 2.6M531 543.8l2.9 2.9M526.3 545.4l3.5 2.6M522.7 547.7l2.3 2.8"/><path class="st4" d="M471.4 529.2s-4.8 6.2-2.1 8.9c2.7 2.7 35.7 11.3 37.8 11s1.7-7.5 1.7-7.5l-26.8-13-10.6.6z"/><path class="st4" d="M471.4 529.2c-2.7-4.8 1.7-10.6 6.2-11.3 4.5-.7 35.7 15.8 35.7 15.8s-3.4 10.3-5.1 9.6c-1.8-.8-36.8-14.1-36.8-14.1z"/><path class="st4" d="M498.1 525.9c8 3.9 15.2 7.7 15.2 7.7s-3.4 10.3-5.1 9.6c-.7-.3-6.9-2.7-14.1-5.4l4-11.9z"/><path class="st8" d="M478.3 519.6c-2.4-.7.3-5.1 2.1-5.1 1.7 0 22.3 4.8 23.3 6.9 1 2.1-1.4 8.9-2.7 7.2-3.8-3.5-20.3-8.4-22.7-9z"/><path class="st8" d="M506.8 524.7c6.5.3 18.5 12.7 22.3 13.7-1.4 1-7.9 7.2-10 7.5-2.1.3-16.1-16.5-16.1-16.5s-2.7-5 3.8-4.7z"/><path class="st8" d="M504 531.2c1.7-.3 5.1-4.1 4.8-5.5-.3-1.4-2.7-5.5-4.5-5.5-1.7 0-3.1 6.9-3.4 8.2-.3 1.5 1.4 3.2 3.1 2.8z"/><path class="st4" d="M554.1 469.1c0 4.3-3.5 7.9-7.9 7.9-4.3 0-7.9-3.5-7.9-7.9s3.5-7.9 7.9-7.9 7.9 3.5 7.9 7.9z"/><path class="st2" d="M549 469.2c0 1.7-1.4 3.1-3.1 3.1s-3.1-1.4-3.1-3.1 1.4-3.1 3.1-3.1c1.7 0 3.1 1.4 3.1 3.1z"/><path class="st4" d="M538.4 472.1c0 4.3-3.5 7.9-7.9 7.9-4.3 0-7.9-3.5-7.9-7.9s3.5-7.9 7.9-7.9c4.4.1 7.9 3.6 7.9 7.9z"/><path class="st2" d="M533.3 472.3c0 1.7-1.4 3.1-3.1 3.1s-3.1-1.4-3.1-3.1 1.4-3.1 3.1-3.1c1.7 0 3.1 1.4 3.1 3.1z"/><circle class="st4" cx="516.4" cy="473.4" r="7.9"/><circle class="st2" cx="516.1" cy="473.6" r="3.1"/><path class="st4" d="M509.6 471.9c0 4.3-3.5 7.9-7.9 7.9s-7.9-3.5-7.9-7.9c0-4.3 3.5-7.9 7.9-7.9s7.9 3.6 7.9 7.9z"/><path class="st2" d="M505.8 472.2c0 1.7-1.4 3.1-3.1 3.1s-3.1-1.4-3.1-3.1c0-1.7 1.4-3.1 3.1-3.1 1.7 0 3.1 1.4 3.1 3.1z"/><path class="st4" d="M502.7 470.2c0 3.3-2.7 5.9-5.9 5.9-3.3 0-5.9-2.7-5.9-5.9 0-3.3 2.7-5.9 5.9-5.9s5.9 2.7 5.9 5.9zM475.4 509.2c0 3.3-2.7 6-6 6s-6-2.7-6-6 2.7-6 6-6 6 2.7 6 6z"/><path class="st4" d="M471.5 516.4c0 2.9-2.4 5.3-5.3 5.3s-5.3-2.4-5.3-5.3 2.4-5.3 5.3-5.3c3 .1 5.3 2.4 5.3 5.3zM484.4 493.4c0 3.3-2.7 5.9-5.9 5.9-3.3 0-5.9-2.7-5.9-5.9 0-3.3 2.7-5.9 5.9-5.9s5.9 2.6 5.9 5.9zM460.4 533.2c0 3.1-2.5 5.5-5.5 5.5-3.1 0-5.5-2.5-5.5-5.5 0-3.1 2.5-5.5 5.5-5.5 3.1-.1 5.5 2.4 5.5 5.5z"/><path class="st4" d="M480 502c0 3.1-2.5 5.5-5.5 5.5-3.1 0-5.5-2.5-5.5-5.5 0-3.1 2.5-5.5 5.5-5.5s5.5 2.5 5.5 5.5zM491.9 485.7c0 3.3-2.7 5.9-5.9 5.9-3.3 0-5.9-2.7-5.9-5.9 0-3.3 2.7-5.9 5.9-5.9s5.9 2.6 5.9 5.9zM513.2 453.1c0 2.9-2.4 5.3-5.3 5.3s-5.3-2.4-5.3-5.3 2.4-5.3 5.3-5.3c3 0 5.3 2.4 5.3 5.3zM525.2 438.8c0 2.9-2.4 5.3-5.3 5.3s-5.3-2.4-5.3-5.3 2.4-5.3 5.3-5.3 5.3 2.4 5.3 5.3zM538 425.2c0 2.9-2.4 5.3-5.3 5.3s-5.3-2.4-5.3-5.3 2.4-5.3 5.3-5.3c3 0 5.3 2.4 5.3 5.3zM548.1 410.5c0 2.9-2.4 5.3-5.3 5.3s-5.3-2.4-5.3-5.3 2.4-5.3 5.3-5.3 5.3 2.4 5.3 5.3zM466.6 524.1c0 2.9-2.4 5.3-5.3 5.3s-5.3-2.4-5.3-5.3 2.4-5.3 5.3-5.3c3 .1 5.3 2.4 5.3 5.3zM403.3 400.4c0 3.2-2.6 5.8-5.8 5.8-3.2 0-5.8-2.6-5.8-5.8 0-3.2 2.6-5.8 5.8-5.8 3.2 0 5.8 2.5 5.8 5.8z"/><circle class="st4" cx="398" cy="418.6" r="6.8"/><path class="st4" d="M414.9 439.1c0 4-3.2 7.2-7.2 7.2s-7.2-3.2-7.2-7.2 3.2-7.2 7.2-7.2 7.2 3.2 7.2 7.2z"/><circle class="st4" cx="419.1" cy="462.9" r="6.8"/><path class="st4" d="M435.2 482.6c0 3.5-2.9 6.4-6.4 6.4-3.5 0-6.4-2.9-6.4-6.4 0-3.5 2.9-6.4 6.4-6.4s6.4 2.8 6.4 6.4z"/><circle class="st4" cx="437.3" cy="502.7" r="6.7"/><path class="st10" d="M515 339.7s3.1 7.2 1.4 8.6c-1.7 1.4-18.9-1-20.3 1-1.4 2.1-2.1 6.3 0 7.5 1.7 1 15.4-2.4 16.8 0 3.1 7.9-3.8 5.1-5.8 8.9-2.1 3.8 3.4 5.1-10.3 17.5-7.5 5.1-44.3 1.7-44.3 1.7l4.8-40.1 18.2-19.2 39.5 14.1z"/><path class="st3" d="M496.1 297.9c13.4 2.1 14.1 20.9 14.1 20.9s12.4 10.6 13 15.1c.7 4.5-5.5 8.6-8.9 8.6-3.4 0-6.9-3.8-6.9-3.8l-29.2 1s-13.7-3.8-18.2-5.8c-1.3-21.6 22.8-38.1 36.1-36z"/><path class="st4" d="M479.2 321.4s6.2-5.3 11.8-4.9c3.6.3 4.1 2.3 4.6 3.1 2.6 1.3 7.1 1.8 5.9 3.3-9.9 5.8-22.3-1.5-22.3-1.5z"/><path class="st2" d="M495.1 320.2c-.8.7-2.4 1.8-4.6 1.5-2.2-.4-3.5-2.4-3.8-3.6"/><path class="st8" d="M455.3 374.7s7.5 7.7 14.4 7.2 11.1-7.5 11.1-7.5l59.5 31.1s-22.5 25.2-44.5 53.8c-30.4 39.4-39.3 70-41.2 70-1.7 0-12.7-28.3-25.2-56.9-13.8-31.7-29.2-64-29.3-65.4-.3-2.6 18.3-16.2 18.3-16.2l24.4.2 12.5-16.3z"/><path class="st5" d="M411.5 402.5s-1.8 3.1-.5 6.4c1.3 3.3 44.5 98.1 44.5 98.1s16.2-30.8 34.2-56.1c17.1-24 36-42.5 35.8-44-.5-3.1-39.4-24.2-39.4-24.2l-36.8 4.6-7.2 11.1-9.3 15.7-7.7-6.4-3.6-11.1-10 5.9z"/><path class="st9" d="m421.6 414.9 34.7 68.5s37.1-58.7 40.9-61.5c3.9-2.8-19-10.5-19.8-10.3-.8.3-37.3-3.9-37.3-3.9l-18.5 7.2z"/><path class="st8" d="M434.4 421.7s19.9 41.8 22.2 41.8c2.3 0 23.2-33.2 23.2-33.2l-12.9-1-22.4-4.4-10.1-3.2z"/><circle class="st3" cx="417.3" cy="415.3" r="8.1"/><path class="st3" d="M445 435.2c0 4.7-3.8 8.5-8.5 8.5s-8.5-3.8-8.5-8.5 3.8-8.5 8.5-8.5 8.5 3.8 8.5 8.5zM474.3 442.7c0 5-4 9-9 9s-9-4-9-9 4-9 9-9 9 4 9 9zM499.1 436c0 4.6-3.7 8.2-8.2 8.2s-8.2-3.7-8.2-8.2 3.7-8.2 8.2-8.2 8.2 3.6 8.2 8.2zM518.1 419.5c0 4-3.2 7.2-7.2 7.2s-7.2-3.2-7.2-7.2 3.2-7.2 7.2-7.2 7.2 3.2 7.2 7.2z"/><circle class="st3" cx="524.3" cy="399.7" r="7.2"/><path class="st10" d="M455.3 374.7s7.5 7.7 14.4 7.2 11.1-7.5 11.1-7.5l32.9 17.3 6.4 3.4s-17 37.5-56.4 39.1c-39.4 1.5-46.1-39.4-45.6-43.2.5-3.9 24.4.2 24.4.2l12.8-16.5z"/><path class="st18" d="m509.9 398.7-20.4-15-3.6 2.4 19.9 20.3zM499.1 409.7l-15.7-20.8-3.9 1.5 15.7 25.8zM485.7 421.8l-11.4-29.6-3.8.3 5.7 33.2zM458.6 426.5l3.4-34 4.9.2.8 35.1z"/><path class="st8" d="M463 426.2c28.6-.5 50.7-34.5 50.7-34.5l6.4 3.4s-17 37.5-56.4 39.1c-39.4 1.5-46.1-39.4-45.6-43.2.2-1.2 2.7-1.7 6.2-1.6-2.2 8.5 12.1 36.5 38.7 36.8z"/><path class="st18" d="M442.7 391.2c6.7-.5 12.6-16.5 12.6-16.5s7.5 7.7 14.4 7.2 11.1-7.5 11.1-7.5l10.8 5.7s-3.1 19.9-48.9 11.1z"/><path class="st3" d="M449.8 363.8c-10.7 36.2-19.5 42.9-19.7 46 .3 4.6 18 12.1 19 10.3 1-1.8 8.7-56.6 8.7-56.6s2.7-35.9-8 .3z"/><path class="st2" d="m444.2 419 4.9-26.3M438.3 416.2l8-23.7M433.7 412.8l9-21.6"/><path class="st6" d="M449.8 363.8c-3.6 12.1-7 20.9-9.8 27.4l13.6 2.1c2.2-14.6 4.3-29.8 4.3-29.8s2.6-35.9-8.1.3z"/><path class="st1" d="M440.2 351.7s-36.4 35-38.4 37.4c-2.1 2.4.3 7.2 3.4 5.5-2.4 2.4 0 6.2 3.1 4.5-2.1 3.4 2.7 6.9 5.8 4.5 3.1-2.4 35.7-39.8 35.7-39.8l-9.6-12.1z"/><path class="st2" d="m444.7 362.1-36.4 37M405.2 394.6c-2.4 2.4 36.2-35.6 36.2-35.6"/><path class="st4" d="M471.1 338.9c0 3.9-3.1 7-7 7s-7-3.1-7-7 3.1-7 7-7 7 3.1 7 7z"/><circle class="st2" cx="463.9" cy="339.4" r="2.7"/><path class="st4" d="M483.4 340.2c0 3.9-3.1 7-7 7s-7-3.1-7-7 3.1-7 7-7 7 3.2 7 7z"/><path class="st2" d="M479 340.8c0 1.5-1.2 2.7-2.7 2.7s-2.7-1.2-2.7-2.7 1.2-2.7 2.7-2.7c1.4-.1 2.7 1.1 2.7 2.7z"/><path class="st4" d="M495.8 339.9c0 3.9-3.1 7-7 7s-7-3.1-7-7 3.1-7 7-7 7 3.1 7 7z"/><circle class="st2" cx="488.6" cy="340.4" r="2.7"/><path class="st4" d="M509.2 338.2c0 3.9-3.1 7-7 7s-7-3.1-7-7 3.1-7 7-7 7 3.1 7 7z"/><circle class="st2" cx="502" cy="338.7" r="2.7"/><path class="st4" d="M466.6 352.9c0 7.5-6.1 13.6-13.6 13.6s-13.6-6.1-13.6-13.6 6.1-13.6 13.6-13.6 13.6 6.2 13.6 13.6z"/><path class="st2" d="M459.4 352.9c0 3.3-2.7 6-6 6s-6-2.7-6-6 2.7-6 6-6 6 2.7 6 6z"/><path class="st16" d="M392.7 593.5s-5.9 5.9-5.4 14.4c6.5-4.1 5.4-14.4 5.4-14.4z"/><path class="st2" d="M397.1 536.4c-27.5 19.8-14.4 50.2-16.7 54.6M385.3 535.1c-14.4 14.4-17.5 41.2-14.9 54.3.3 2.3-14.4 10.3-11.6 15.7"/></svg>