<svg version="1.1" id="Calque_1" xmlns="http://www.w3.org/2000/svg" x="0" y="0" viewBox="0 0 900 900" style="enable-background:new 0 0 900 900" xml:space="preserve"><style>.st0,.st1,.st2,.st3,.st4{fill:#ffce00;stroke:#000;stroke-width:3.2229;stroke-linecap:round;stroke-linejoin:round}.st1,.st2,.st3,.st4{fill:#1c1c1c}.st2,.st3,.st4{fill:none}.st3,.st4{fill:#fff}.st4{fill:#ff7300}.st5{fill:#fff}.st6{fill:red}.st7{fill:#003a7f}.st10,.st11,.st8{fill:none;stroke:#000;stroke-width:3.2229;stroke-linejoin:round}.st10,.st11{fill:red;stroke-linecap:round}.st11{fill:#003a7f}.st12{fill:#ff7300}.st13{fill:#f87311}.st14{fill:none;stroke:#000;stroke-width:8.0573;stroke-linejoin:round}</style><path class="st0" d="M268.7 651.1c3.2 5 51.1 31.7 82.7 33.4 31.7 1.6 95.6-25.8 95.6-25.8l6.4-56.4-95.1-11.8-79.9 36.9c-.1 0-12.9 18.7-9.7 23.7z"/><path class="st1" d="M274 634.5c-3.4 5.8 48.5 34 80.1 35.6 31.7 1.6 94.8-27.4 94.8-27.4l4.7-40.6-95.1-11.8-80.1 37.1c-.1 0-2.2 3-4.4 7.1z"/><path d="M317.5 633.5c1.3 0 23.8 14.2 46.4 15s64.9-15.3 64.9-15.3l-8.1-7.3s-31.9 12.9-54.5 11c-14.5-1.3-29.8-9.7-29.8-9.7l-18.9 6.3z"/><path class="st2" d="M302.2 635.9s31.9 22.6 55.6 23.8c23.7 1.3 87-26.3 87-26.3"/><path class="st3" d="m494.3 502.8-3.2 21.5 26.2 30.6 26.9-5.3 9.7-27-24.2-34.9z"/><path class="st1" d="m328.8 431.9 114.4-27.4 32.7 104.7-74.6 55.3s-63.3-2.1-141.8-53.2l69.3-79.4z"/><path class="st2" d="m277.2 525.9 33.4-39.8M362.6 560.8s8.5-30.1 23.7-43c15-12.9 60.1-20.9 60.1-20.9"/><path d="m395.5 502.2 43.5-13.9-1.6-10.8-44.6 12.9z"/><path class="st2" d="m404.5 477.5 30.6-9.2"/><path class="st3" d="M596.9 580.7s57.5 15.6 71.4 18.9 72 1.6 62.8 43.5c-8.5 37.1-49.5 16.1-80.6 11.3s-103.5-28-103.5-28l49.9-45.7z"/><path class="st4" d="M628.5 649.6c-5.6-1.3-11.6-2.9-17.6-4.5l20.5-55.3c6.3 1.6 12.9 3.4 18.7 5l-21.6 54.8zM668.3 599.5c14 3.2 72 1.6 62.8 43.5-8.5 37.1-49.5 16.1-80.6 11.3l17.8-54.8z"/><circle cx="635.6" cy="603.2" r="4.4"/><circle cx="629.2" cy="620.9" r="4.4"/><circle cx="624.3" cy="637.1" r="4.4"/><circle cx="675.1" cy="630.3" r="5.6"/><circle cx="678.3" cy="612.6" r="5.6"/><circle cx="670.2" cy="648" r="5.6"/><circle cx="689.6" cy="651.2" r="5.6"/><circle cx="694.4" cy="631.9" r="5.6"/><circle cx="704.1" cy="615.8" r="5.6"/><circle cx="720.2" cy="625.5" r="5.6"/><circle cx="713.8" cy="638.3" r="5.6"/><circle cx="708.9" cy="652.8" r="5.6"/><path class="st5" d="M713.4 721.3s28.7.6 35.9 5.2c19.8 11.3 44.8 51.2 60.1 56.1-2.9 3.2-22.2 6.4-27.4 3.2s-35.5-41.1-35.5-41.1l-38.4-10.5 5.3-12.9z"/><path class="st6" d="m732.6 740.8-24.3-6.6 5.3-12.7s13.7.3 24.7 1.9l-5.7 17.4z"/><path class="st7" d="M749.4 726.5c19.8 11.3 44.8 51.2 60.1 56.1-2.9 3.2-22.2 6.4-27.4 3.2s-35.5-41.1-35.5-41.1l-4.4-1.3 7.2-16.9z"/><path class="st2" d="M807.4 782.9c-29-4.8-50.1-48.3-62.2-51.2"/><path class="st2" d="M713.4 721.3s28.7.6 35.9 5.2c19.8 11.3 44.8 51.2 60.1 56.1-2.9 3.2-22.2 6.4-27.4 3.2s-35.5-41.1-35.5-41.1l-38.4-10.5 5.3-12.9z"/><path class="st5" d="M711.8 731.3s20.6.8 29.8 5.3 41.1 50.4 60.9 60.9c-12.6 19.3-44.3-12.1-49.1-20.1S736 755.2 736 755.2l-26.3-15.3 2.1-8.6z"/><path class="st6" d="m726.8 749.7-16.9-10 2.1-8.5s11.6.5 21.3 2.6l-6.5 15.9z"/><path class="st7" d="M741.6 736.6c9.3 4.5 41.1 50.4 60.9 60.9-12.6 19.3-44.3-12.1-49.1-20.1S736 755.2 736 755.2l5.6-18.6z"/><path class="st2" d="M800.9 797.1c-33.4-1.3-51.2-50.4-64.6-55.8"/><path class="st2" d="M711.8 731.3s20.6.8 29.8 5.3 41.1 50.4 60.9 60.9c-12.6 19.3-44.3-12.1-49.1-20.1S736 755.2 736 755.2l-26.3-15.3 2.1-8.6z"/><path class="st5" d="M709.9 736.6s25.8 10.5 35.9 23.8c10.2 13.4 13.7 27.9 18.2 34.3 4.5 6.4 7.3 9.7 17.7 17.7-12.6 4.5-33.5-8.9-38.7-19.8-5.2-11-11.9-28.4-11.9-28.4l-27.4-16.6 6.2-11z"/><path class="st6" d="m721 758.2-17.2-10.3 6.1-11.3s9 3.7 18.5 9.3l-7.4 12.3z"/><path class="st7" d="M735.2 750.5c4 2.9 7.9 6.3 10.5 9.8 10.2 13.4 13.7 27.9 18.2 34.3 4.5 6.4 7.3 9.7 17.7 17.7-12.6 4.5-33.5-8.9-38.7-19.8-5.2-11-11.8-28.2-11.8-28.2l4.1-13.8z"/><path class="st2" d="M779.5 811.9c-31.7-11-27.4-42.4-47.5-56.9"/><path class="st2" d="M709.9 736.6s25.8 10.5 35.9 23.8c10.2 13.4 13.7 27.9 18.2 34.3 4.5 6.4 7.3 9.7 17.7 17.7-12.6 4.5-33.5-8.9-38.7-19.8-5.2-11-11.9-28.4-11.9-28.4l-27.4-16.6 6.2-11z"/><path class="st5" d="M705.9 755.8s15.6 5.3 18 14.7 10.5 61.2 38.4 57.2c-16.1-24.7-17.7-50.4-25-61.2-7.3-10.8-28.7-23-28.7-23l-2.7 12.3z"/><path class="st6" d="M722.8 752.6c-7.3-5.3-14.2-9.2-14.2-9.2l-2.7 12.4s6.1 2.1 11.3 6l5.6-9.2z"/><path class="st7" d="M723.9 770.5c2.4 9.3 10.5 61.2 38.4 57.2-16.1-24.7-17.7-50.4-25-61.2-1.8-2.6-4.4-5.3-7.3-8.1l-6.1 12.1z"/><path class="st2" d="M761 826.9c-14.8-8.4-25.1-35.5-26.6-51.2-1.3-8.5-10.5-15.3-10.5-15.3"/><path class="st2" d="M705.9 755.8s15.6 5.3 18 14.7 10.5 61.2 38.4 57.2c-16.1-24.7-17.7-50.4-25-61.2-7.3-10.8-28.7-23-28.7-23l-2.7 12.3z"/><path class="st0" d="M534.6 642.4s45.1 60.8 58 77.3c12.9 16.6 13.4 42.4 28.5 43.5 15 1.1 14.5-11.3 14.5-11.3 9.2 8.5 61.7-.5 70.4 3.7 9.2-16.1 7.6-34.3 7.6-34.3s-64-4.8-77.3-22.1c-13.4-17.2-44-73-44-73l-33.5-36.4-37.5-2.7-6.9 30.6 20.2 24.7z"/><path class="st1" d="m536.7 623 64.5 87.5 35-11.3c-13.4-17.2-44-73-44-73l-33.4-36.4-37.5-2.7-6.9 30.6 22.3 5.3z"/><path class="st2" d="m589.8 714.4 46.3-15"/><circle class="st2" cx="623.5" cy="718.9" r="7.7"/><circle class="st2" cx="657" cy="729.4" r="8.1"/><circle class="st2" cx="688.1" cy="734.9" r="9.2"/><path d="m617.2 704.3-70.9-100.6-8.5 3.2L607.1 708z"/><path class="st2" d="m626.1 701.2-52.4-80.3"/><path class="st5" d="M616.4 761.9c3.2-8.1-11.3-26.3-12.9-23.4-1.6 2.9-5.5 44.3 1.3 59.3 4.8 11 27.1 22.2 37.1 15.8s6.9-30.3-7.7-29.5c2.4 3.7 5.3 18.2-.8 19.3-6.1 1.1-12.6-3.7-15-7.3s-5.2-26.1-2-34.2z"/><path class="st6" d="M615.3 766.8c.2-1.9.6-3.5 1.1-4.8 3.2-8.1-11.3-26.3-12.9-23.4-.8 1.3-2.1 11.3-2.4 23l14.2 5.2z"/><path class="st7" d="M601 767.6c-.2 11.4.8 23.5 3.7 30.3 4.8 11 27.1 22.2 37.1 15.8s6.9-30.3-7.7-29.5c2.4 3.7 5.3 18.2-.8 19.3-6.1 1.1-12.6-3.7-15-7.3-1.6-2.4-3.5-13.9-3.4-23.4l-13.9-5.2z"/><path class="st2" d="M616.4 761.9c3.2-8.1-11.3-26.3-12.9-23.4-1.6 2.9-5.5 44.3 1.3 59.3 4.8 11 27.1 22.2 37.1 15.8s6.9-30.3-7.7-29.5c2.4 3.7 5.3 18.2-.8 19.3-6.1 1.1-12.6-3.7-15-7.3s-5.2-26.1-2-34.2z"/><path class="st5" d="M585.8 815.9c-3.7.8-8.5-.8-12.6-1.6-2.9 15.3-64.5-52.7-64.3-54 .8-7.9-9-17.4 1.5-14.7 46.4 14.7 37.9 41 75.4 70.3z"/><path class="st6" d="M523 750.5c-2.6 3.4-5.2 20.3-5.2 20.3-5.3-6-8.9-10-8.9-10.3.8-7.9-9-17.4 1.5-14.7 4.7 1.3 8.9 2.9 12.6 4.7z"/><path class="st7" d="M534.4 757.1c20.8 15.1 22.2 35.9 51.2 58.8-3.7.8-8.5-.8-12.6-1.6-1.8 9.8-28.4-15-46.7-34.3-1.7-2.7 6.7-23.2 8.1-22.9z"/><path class="st2" d="M523 760.3c15 5.6 44.3 51.2 50.4 54"/><path class="st2" d="M585.8 815.9c-3.7.8-8.5-.8-12.6-1.6-2.9 15.3-64.5-52.7-64.3-54 .8-7.9-9-17.4 1.5-14.7 46.4 14.7 37.9 41 75.4 70.3z"/><path class="st5" d="M505.2 758.4s29.5 16.6 37.1 31.1c11.3 22.2 27.9 32.2 39.5 40.3-3.7.6-7.3.8-10.5.6-4 8.5-23.8-10.3-23.8-10.3l-19.8-30.3-23-24.2.5-7.2z"/><path class="st6" d="M520.9 774.5c-1.3 4.5-2.7 5.2-2.7 5.2l-13.4-14 .5-7.3s7.4 4.2 15.6 10.2c0-.2 1.3 1.4 0 5.9z"/><path class="st7" d="M530.2 783.7c.5-4.8-1.6-9.3-1.6-9.3 5.8 4.7 11 10 13.7 15 11.3 22.2 27.9 32.2 39.5 40.3-3.7.6-7.3.8-10.5.6-4 8.5-23.8-10.3-23.8-10.3l-19.8-30.3c.1.1 2-1.2 2.5-6z"/><path class="st2" d="M523.8 778.4c8.5 2.4 32.6 48.5 47.4 51.9"/><path class="st2" d="M505.2 758.4s28.7 15 36.3 29.5c9.7 17.7 28.7 33.8 40.3 41.9-3.7.6-7.3.8-10.5.6-4 8.5-27.1-11.9-27.1-11.9l-16.6-28.7-23-24.2.6-7.2z"/><path class="st5" d="M504.4 769.2s23.4 10.5 28.7 37.5c2.1 11.1 23.4 28.7 35.1 35.1-4.5 1.6-12.9-.5-12.9-.5l-30.5-23.8s-15-37.9-20.6-41.9c-5.6-4 .2-6.4.2-6.4z"/><path class="st6" d="M506 767.6s3.9 3.5 8.5 8.9l-4.4 7.6c-2.3-4.2-4.2-7.4-5.6-8.4-5.7-4.1 1.5-8.1 1.5-8.1z"/><path class="st7" d="M523.3 783.4c5.8 7.1 13.9 16.3 15.3 20.9 3.2 11 17.7 31.1 29.5 37.5-4.5 1.6-12.9-.5-12.9-.5s-24.7-13.5-30.3-23.8c-5.6-10.2-4.7-11.9-9.8-23 0 0 8.7-5.3 8.2-11.1z"/><path class="st2" d="M519.7 791.8c16.1 12.6 20.3 40.3 45 49.1"/><path class="st2" d="M505.2 766.5s28.2 25 31.4 35.9c3.2 11 19.8 33 31.4 39.5-4.5 1.6-12.9-.5-12.9-.5s-24.7-14.3-30.3-23.8c-5.6-9.3-15-37.9-20.6-41.9-5.6-4.1 1-9.2 1-9.2z"/><path class="st5" d="M553.6 847.4s-6.9 2.1-11.3-2.1c-9.3 5.6-22.6-16.6-23.4-28.7-.8-12.1-12.2-34.2-12.2-34.2l.5-8.2s22.9 24.5 24.5 42.5c1.1 7.1 21.9 30.7 21.9 30.7z"/><path class="st6" d="M510.9 791.4c-2.3-5.2-4.2-8.9-4.2-8.9l.5-8.2s3.5 4.2 7.7 10.5c-2.1 3.4-4 6.6-4 6.6z"/><path class="st7" d="M553.6 847.4s-6.9 2.1-11.3-2.1c-9.3 5.6-22.6-16.6-23.4-28.7-.2-3.1-1.1-6.6-2.3-10.5 0 0 8.2-5.8 9-8.7 3.1 6.1 6.3 14.5 6.8 20.1 1.2 7.1 21.2 29.9 21.2 29.9z"/><path class="st2" d="M519.3 797.9c6.8 8.5 3.2 31.7 23 47.4"/><path class="st2" d="M554.7 846.5s-8.1 2.9-12.6-1.3c-9.3 5.6-22.6-16.6-23.4-28.7-.8-12.1-12.2-34.2-12.2-34.2l.5-8.2s23 22.1 24.7 40.1c1.3 11.4 23 32.3 23 32.3z"/><path class="st0" d="M489.4 631.9s-23 28.4-44.3 55.8c-17.6 22.7-34 44.6-35.1 49.3-2.7 10.5.6 27.4 8.1 30.6 7.4 3.2 17.4-6.9 20.5-6 3.1 1.1 15 23 68.2 20.9.2-1 3.7-37.1 3.7-37.1s-33.8-6-43.5-17.7c-.3-.8 1.3-3.9 4.4-8.2 13.4-19.3 52-65.4 52-65.4l-34-22.2z"/><path class="st1" d="M489.4 631.9s-23 28.4-44.3 55.8c25 7.1 23 36.4 26.1 32.1 13.4-19.3 52-65.4 52-65.4l-33.8-22.5z"/><circle class="st2" cx="445.6" cy="739.9" r="8.1"/><circle class="st2" cx="466.7" cy="754.5" r="7.1"/><circle class="st2" cx="489.3" cy="764.2" r="7.1"/><path class="st5" d="M410.2 739.1c-13.7 4.8-36.3 62.5-4.5 78.6 19.3 6.9 34.3 1.6 39.5-10.2 5.2-11.8-.5-26.6-9.7-27.4-.5 4-3.2 7.3-3.2 7.3s-2.4-3.7-8.1-1.3c6.9 6.1 6.4 25.8-11 18.5-10.2-4.5-.3-34.3 4.7-37.1 5.2-2.7 6-33.3-7.7-28.4z"/><path class="st7" d="M391.8 770c-4.5 18-3.2 38.8 13.9 47.5 19.3 6.9 34.3 1.6 39.5-10.2 5.2-11.8-.5-26.6-9.7-27.4-.5 4-3.2 7.3-3.2 7.3s-2.4-3.7-8.1-1.3c6.9 6.1 6.4 25.8-11 18.5-5.8-2.6-5-13.2-2.4-22.6 1.3-4.1-18.4-16.2-19-11.8z"/><path class="st6" d="M410.2 739.1c-5 1.8-11.1 10.5-15.5 21.8 14.2 2.1 19.8 11.8 19.8 11.8 1.3-2.4 2.4-4.2 3.5-4.8 5.1-3.1 5.9-33.7-7.8-28.8z"/><path class="st2" d="M405.3 768.1c-3.7 7.3-11.8 40.8 11 45.9 20.6 4 25.8-17.7 16.1-26.6"/><path class="st2" d="M410.2 739.1c-13.7 4.8-36.3 62.5-4.5 78.6 19.3 6.9 34.3 1.6 39.5-10.2 5.2-11.8-.5-26.6-9.7-27.4-.5 4-3.2 7.3-3.2 7.3s-2.4-3.7-8.1-1.3c6.9 6.1 6.4 25.8-11 18.5-10.2-4.5-.3-34.3 4.7-37.1 5.2-2.7 6-33.3-7.7-28.4z"/><path d="m472.2 692.7 29.8-39.9-9.7-5.3-19.3 27.1z"/><path class="st2" d="m509.3 655.6-37.9 51.2"/><path class="st5" d="M763.9 316.4s2.7-8.5 10-15.8c7.3-7.3 35.6-30.9 41.1-34.2 8.4-4.8 0-18.9 0-18.9l-5.3 5.6s-.5-5.3-3.5-6.1c-2.1 8.1-13.7 23.4-28.2 24.5-14.5 1.1-22.2 26.1-22.2 26.1l-1.3 24.5 9.4-5.7z"/><path class="st6" d="M763.9 316.4s1.8-5.8 6.6-11.9c-.6-8.2-14.8-6.9-14.8-6.9l-1.3 24.5 9.5-5.7z"/><path class="st7" d="M773.9 300.6c1.3-1.3 3.4-3.2 5.8-5.5 11.1-9.8 30.8-26.1 35.3-28.7 8.4-4.8 0-18.9 0-18.9l-5.3 5.6s-.5-5.3-3.5-6.1c-2.1 8.1-13.7 23.4-28.2 24.5-8.2.6-14.2 8.9-17.9 15.8-.1.1 13.3 3.8 13.8 13.3z"/><path class="st2" d="M775.2 288.5s35.9-23.7 34.3-35.1"/><path class="st2" d="M763.9 316.4s2.7-8.5 10-15.8c7.3-7.3 35.6-30.9 41.1-34.2 8.4-4.8 0-18.9 0-18.9l-5.3 5.6s-.5-5.3-3.5-6.1c-2.1 8.1-13.7 23.4-28.2 24.5-14.5 1.1-22.2 26.1-22.2 26.1l-1.3 24.5 9.4-5.7z"/><path class="st5" d="M759.8 317.7s-2.9-15.3 1.9-23 31.1-31.9 36.3-39.5c7.3-10.2-2.7-14.2-2.7-14.2s-1.1-11-6.4-12.6c-.3 10 1.1 13.7-4.4 20.9-5.3 7.3-30.6 29-30.6 29l-12.4 25.3 4 22.1 13.7-4.8.6-3.2z"/><path class="st6" d="M759.8 317.7s-2.1-10.8.2-18.9c.5-1.5-14.5-3.2-14.5-3.2l-3.9 8.1 4 22.1 13.7-4.8.5-3.3z"/><path class="st7" d="M765.6 289.6c9-10.3 28-28.2 32.4-34.5 7.3-10.2-2.7-14.2-2.7-14.2s-1.1-11-6.4-12.6c-.3 10 1.1 13.7-4.4 20.9-5.3 7.3-30.6 29-30.6 29l-3.5 7.3c-.1.1 10.1-.2 15.2 4.1z"/><path class="st2" d="M795.3 241c.8 12.4-32.7 37.4-35 44.3"/><path class="st2" d="M759.8 317.7s-2.9-15.3 1.9-23 31.1-31.9 36.3-39.5c7.3-10.2-2.7-14.2-2.7-14.2s-1.1-11-6.4-12.6c-.3 10 1.1 13.7-4.4 20.9-5.3 7.3-30.6 29-30.6 29l-12.4 25.3 4 22.1 13.7-4.8.6-3.2z"/><path class="st5" d="M747.3 318.8s-1.6-19.7 3.5-29.3c5.2-9.7 22.9-33.5 24.5-40 4.8-19-5.6-20.9-5.6-20.9.5-10.2-6.1-12.4-6.1-12.4s-4 27.9-11.8 37.5c-7.7 9.7-22.2 31.9-22.2 31.9l-2.1 36.6 13.2 3.7 6.6-7.1z"/><path class="st6" d="M747.3 318.8s-1-11.9 1-21.8c-11.3 0-19.3-4.8-19.3-4.8l-1.8 30.1 13.2 3.7 6.9-7.2z"/><path class="st7" d="M750.8 289.5c5.2-9.7 22.9-33.5 24.5-40 4.8-19-5.6-20.9-5.6-20.9.5-10.2-6.1-12.4-6.1-12.4s-4 27.9-11.8 37.5c-5.5 6.8-14 19.5-18.9 26.8-2.2 3.2 16.5 11.2 17.9 9z"/><path class="st2" d="M769.5 228.6c-1.3 29.8-24.5 48.7-26.6 62.5"/><path class="st2" d="M747.3 318.8s-1.6-19.7 3.5-29.3c5.2-9.7 22.9-33.5 24.5-40 4.8-19-5.6-20.9-5.6-20.9.5-10.2-6.1-12.4-6.1-12.4s-4 27.9-11.8 37.5c-7.7 9.7-22.2 31.9-22.2 31.9l-2.1 36.6 13.2 3.7 6.6-7.1z"/><path class="st5" d="M732.3 318.5s-1.3-24.2 4.4-34.3c5.6-10.2 15.6-23.7 16.4-39s-8.4-16.4-8.4-16.4-1.1-10.5-7.7-14.2c-2.1-1.1 5.3 31.4-12.9 58.8-6.1 10.5-4 44.6-4 44.6l12.2.5z"/><path class="st6" d="M732.3 318.5s-.8-13.5 1.3-24.7c-7.7 1.1-12.9-8.1-12.9-8.1-1.8 13.9-.6 32.2-.6 32.2l12.2.6z"/><path class="st7" d="M736.5 284.1c5.6-10.2 15.6-23.7 16.4-39s-8.4-16.4-8.4-16.4-1.1-10.5-7.7-14.2c-2.1-1.1 5.3 31.4-12.9 58.8-4.3 8.1 8.6 17.6 12.6 10.8z"/><path class="st2" d="M744.5 228.9c3.5 24.5-15.6 52.4-15.6 52.4"/><path class="st2" d="M732.3 318.5s-1.3-24.2 4.4-34.3c5.6-10.2 15.6-23.7 16.4-39s-8.4-16.4-8.4-16.4-1.1-10.5-7.7-14.2c-2.1-1.1 5.3 31.4-12.9 58.8-6.1 10.5-4 44.6-4 44.6l12.2.5z"/><path class="st0" d="M489 517.3s201.9-76.2 224.5-85.9c22.6-9.7 66.1-22.6 67.2-31.1s-9.7-11.8-9.7-11.8c9.2-5.3-8.5-48.8-6.9-72l-44 1.6s2.1 56.9-3.2 60.1c-5.3 3.2-24.2 6.9-24.2 6.9l-136.5 36.6-68.2-4.4-35 17.2 15 84.9 21-2.1z"/><path class="st2" d="M750.2 388.4s12.9-3.2 20.6 0"/><path class="st1" d="m708.4 420.2-15.9-35L556 421.6l-68.2-4.2-34.9 17.1 15.1 84.9 19.8-19.3z"/><path class="st8" d="m713.4 431.3-20.9-46.1"/><path d="m480.3 479.1 219.4-77 5.4 11-223.7 76.8z"/><path class="st8" d="m695.4 393.2-220.8 66.1"/><circle class="st2" cx="719.2" cy="399.5" r="7.1"/><circle class="st2" cx="738.1" cy="373.9" r="7.3"/><circle class="st2" cx="739.9" cy="351.7" r="6.3"/><circle class="st2" cx="741.6" cy="331.2" r="5.6"/><path class="st5" d="M780.6 398.9c-4.5-2.1-29.8 2.4-30.9 6.9-1.1 4.5 49.6 22.1 69.8 4.5 16.9-14.8-9.7-36.7-17.4-38.4 1.6 4.5 1.3 6.9 1.3 6.9s-5.3-1.6-9.2.8c5.2 2.9 21.3 22.1 12.9 24.2-4.9 1.4-22-2.8-26.5-4.9z"/><path class="st7" d="M785.5 410.2c-1.5 3.2-3.9 7.1-3.9 7.1 13.9 1.9 28.8 1 37.9-6.8 16.9-14.8-9.7-36.7-17.4-38.4 1.6 4.5 1.3 6.9 1.3 6.9s-5.3-1.6-9.2.8c5.2 2.9 21.3 22.1 12.9 24.2-3.1.8-15.8-1.9-22.2-3.5-.1 0 2 6.4.6 9.7z"/><path class="st6" d="M776.3 407.1c1.6-4.4-.3-8.9-.3-8.9-8.7.2-25.5 3.9-26.3 7.6-.5 1.9 8.1 6.1 19.7 9 0 0 5.3-3.3 6.9-7.7z"/><path class="st2" d="M785.1 409.8c3.5 2.4 26.1 4.5 30.9-4.8 3.7-7.3-4.4-24.5-12.6-26.1"/><path class="st2" d="M780.6 398.9c-4.5-2.1-29.8 2.4-30.9 6.9-1.1 4.5 49.6 22.1 69.8 4.5 16.9-14.8-9.7-36.7-17.4-38.4 1.6 4.5 1.3 6.9 1.3 6.9s-5.3-1.6-9.2.8c5.2 2.9 21.3 22.1 12.9 24.2-4.9 1.4-22-2.8-26.5-4.9z"/><path class="st0" d="M478.6 432.4C531.8 455 680.1 540 674.4 550c-9.7 15.8-56.1-19.3-56.1-19.3l-137.8-77.3-1.9-21z"/><path class="st1" d="m425.5 436.8 18.2 89.8-1.6 90.7 1.1 68.8s-3.7 46.2 16.1 47.2c19.8 1.1 18.9-47.2 18.9-47.2l2.1-95.1 11.3-74.6-17.7-91.9-36.6-7.6-11.8 19.9z"/><path d="m464.1 687.5.7-90.7-7.1 2.7v88.6z"/><path class="st1" d="m522.8 448 2.7 77.8 14.5 81.1 13.4 69.8s6 34.3 25.8 31.7c19.8-2.7 12.4-37.5 12.4-37.5l-10.8-65.6-14-97.8.5-43-44.5-16.5z"/><path d="m567.9 676.9-14-73.7 10.8 3.7 12.2 71.6z"/><path class="st2" d="m470.1 689.8 1.6-97.4M450.3 689.1v-82.7M450.3 519.9l-20-92.8M485.1 520.5l-21.4-92.4M477.7 520.5l-23.2-91.8M469.6 519.9 447.1 426M462 521.5 437.9 426M584 675.7l-12.4-70.4M560.3 680.6l-16.1-85M533.4 519.9l-2.1-71.4M542.1 517.3l-1.1-71.5M549.6 514.1v-62.4M557.1 513.5l2.1-60.1"/><path class="st10" d="M443.2 685.9s-3.7 46.2 16.1 47.2c19.8 1.1 18.9-47.2 18.9-47.2h-35zM553.4 676.9s6 34.3 25.8 31.7c19.8-2.7 12.4-37.5 12.4-37.5l-38.2 5.8z"/><circle class="st3" cx="458" cy="484.3" r="16.4"/><circle class="st3" cx="452.7" cy="482" r="5.6"/><circle class="st3" cx="545.8" cy="480.3" r="15"/><circle class="st3" cx="545.8" cy="479.6" r="4.8"/><path class="st3" d="M199.9 664.5s-38.4 91.5-43.2 102.3c-4.8 10.8-23.8 51.2-8.5 58 18.2 6.9 32.2-37.1 36.3-49.1 4-12.1 34.3-98.8 34.3-98.8l-18.9-12.4z"/><path class="st3" d="M181.3 660.9s-66.1 82.2-71.4 88.3c-5.3 6.1-32.2 35.1-18.5 47.2 15.3 12.9 36.3-20.1 43.2-29.8 6.9-9.7 66.1-97.5 66.1-97.5l-19.4-8.2z"/><path class="st0" d="M147.3 747.6c3.5-5.3 7.6-11.3 11.9-17.6l-22.4-14c-4.5 5.6-9 11.1-12.7 15.8l23.2 15.8zM109.9 749.1c-5.3 6.1-32.2 35.1-18.5 47.2 15.3 12.9 36.3-20.1 43.2-29.8l-24.7-17.4zM189.7 760.3c1.8-5 3.7-10.8 5.8-16.9l-24.3-11c-2.7 6.4-5.3 12.6-7.6 17.9l26.1 10zM156.7 766.8c-4.8 11-23.8 51.2-8.5 58 18.2 6.9 32.2-37.1 36.3-49.1l-27.8-8.9z"/><circle cx="99.2" cy="785.8" r="5.6"/><circle cx="113" cy="769.4" r="6.3"/><circle cx="143" cy="731" r="6.3"/><circle cx="179.4" cy="746.5" r="5.6"/><circle cx="164.9" cy="783.5" r="5.6"/><circle cx="155.2" cy="806.1" r="5.6"/><path class="st3" d="m218.4 578.2-49.2 79.5 50.8 25.8 27.4-92.4 1.6-29z"/><path class="st0" d="m207.9 595-8.8 14.5 36.5 21.3 4.9-16.6zM186.2 630.1l-17 27.6 50.8 25.8 8.9-30z"/><ellipse cx="189.4" cy="649.1" rx="5.6" ry="6.1"/><ellipse cx="209.2" cy="661.1" rx="5.5" ry="5.8"/><ellipse cx="211.3" cy="606.6" rx="5" ry="5.5"/><ellipse cx="227.4" cy="616.3" rx="5" ry="5.5"/><path class="st11" d="M253.4 525.9s-12.4-22.7-27.9-26.6c-20.6-5.3-57.7 9.3-58.8 17.4-1.1 8.1-4.8 11.8-4.8 11.8l12.6 20.6 15.8 31.4s-20.9 15.8-7.3 23.4c8.1 3.2 15-6.9 16.1-11 14.5 0 27.1-11.8 27.1-11.8s11.3 1.6 16.9 0c5.6-1.6 10.3-55.2 10.3-55.2z"/><path class="st0" d="M181.7 508.9c2.4-1.6-8.9-9.3-13.4-8.5-4.5.8-7.3 6.9-7.3 6.9s-25.5-14.5-38.7 0c-13.2 14.5-6.8 31.4 5.3 36.7 1.6-6.1.5-12.1 8.9-13.4 8.4-1.3 36.7 23 36.7 23s-13.4 2.1-34.6-4.5c-.5 14.2 36.7 17.4 36.7 17.4s2.1 14.2 15 13.7c9.3-.8 27.1-10.2 27.4-13.7-.8-6.4-30.6-14.2-38.7-23.4s-5.4-30.4 2.7-34.2z"/><path class="st2" d="M198.3 564.5s-13.7-2.9-25-11M169.6 511.4s-3.7-1.6-8.5-4M199.9 523.1l50.7 9.2M199.9 529.6l48.6 10.8M199.1 535.2l45.9 12.1"/><path class="st2" d="M195 538.8s33 17.7 30.3 27.4c-2.7 9.7-23 20.9-30.6 21.8s-11 8.1-11 8.1"/><path class="st2" d="M195.4 535.5s35.1 13.7 36.7 28.7c0 5.3-1.3 12.9-6.1 16.9M180.5 506.2l3.6 8.4M187 503.8l4 8.4M197.4 501.7l2 7.7M205.8 499.8l1.6 8.8M214.7 498.1l.8 10.5M224 499l-1.6 9.9M233.2 503.8l-4 9.2M242.1 511l-5.7 9.2"/><circle class="st5" cx="194.2" cy="528.9" r="11.8"/><path class="st6" d="M205.5 532.2c-1.8 6.3-8.4 10-14.7 8.2L194 529l3.2-11.4c6.5 1.7 10.2 8.3 8.3 14.6z"/><circle class="st3" cx="194.4" cy="527.3" r="4.5"/><circle class="st2" cx="194.2" cy="528.9" r="11.8"/><path class="st1" d="M478.6 432.4C531.8 455 674.4 550 674.4 550s13.7-20.1 4.8-36.3c-8.9-16.1-110.4-116.5-110.4-116.5s-143.3 12.6-90.2 35.2z"/><path d="M504.4 423.2c53.2 22.6 159.5 102 174.2 119.1 1.5-3.5 3.1-8.1 3.5-12.7.5-5.2-145.8-114.7-145.8-114.7s-85-14.2-31.9 8.3z"/><path class="st2" d="M676.4 546S541.8 445.6 496.7 428.7M680.9 527.5s-99.6-106.8-120.5-123"/><path class="st5" d="m597.4 345.9 34.3 16.4-35.1 3.7zM597.1 371.6l27.4 33.9-40.8-17.4zM575.3 397.8l3.3 31.9-20.2-21.8zM515.2 424.8l18.2 22.6-.4-29.5z"/><path class="st6" d="m597.4 345.9 11.9 5.6-.3 13.1-12.4 1.4zM597.1 371.6l10.1 12.6-7.7 10.7-15.8-6.8zM575.3 397.8l1.5 15.3-9 5-9.4-10.2zM515.2 424.8l7.6 9.4 10.3-2.6-.1-13.7z"/><path class="st2" d="m597.4 345.9 34.3 16.4-35.1 3.7zM597.1 371.6l27.4 33.9-40.8-17.4zM575.3 397.8l3.3 31.9-20.2-21.8zM515.2 424.8l18.2 22.6-.4-29.5z"/><path class="st5" d="m466.9 431.6 15.3 29.8 4.8-32.5z"/><path class="st6" d="m466.9 431.6 6.9 13.7 11.1-2.1 2.1-14.3z"/><path class="st2" d="m466.9 431.6 15.3 29.8 4.8-32.5z"/><path class="st3" d="M431.4 436.8s77.3 2.1 131-26.9 37.1-70.4 37.1-70.4l-42.4-1.1-101.5 26.9-35 30.1 10.8 41.4z"/><path class="st12" d="M429.5 429.2s71.9 5.5 125.5-23.5 33.4-66.4 33.4-66.4l-31.1-.8-101.5 26.9-35.1 30 8.8 33.8z"/><path class="st11" d="M416.6 416.3s71.9 5.5 125.5-23.5c53.7-29 33.4-66.4 33.4-66.4l-31.1-.8-101.5 26.9-35.1 30 8.8 33.8z"/><path class="st8" d="m467.4 399.8 1.6 14.1M480.3 397.8l2.4 13.7M493 394.5l3.7 14.2M508 390.8l4.8 13.4M522.2 385.7l5.6 13.2M535.7 380l6.4 11.8M547.1 373.6l8.7 10.5M559.2 365l7.9 6.6M566.5 355.1l8.7 4.5"/><path class="st10" d="M413.4 401.8s71.9 5.5 125.5-23.5c53.7-29 33.4-66.4 33.4-66.4l-31.1-.8L439.7 338l-35.1 30 8.8 33.8z"/><circle class="st2" cx="582.7" cy="367.3" r="4.7"/><circle class="st2" cx="568.2" cy="385" r="4.7"/><circle class="st2" cx="544.1" cy="401.1" r="4.7"/><circle class="st2" cx="511.8" cy="414" r="4.7"/><circle class="st2" cx="482.8" cy="420.5" r="4.7"/><path class="st11" d="M401.3 564.5s-63.3-2.1-141.8-53.2c-54.8 73.6 9.2 139.7 9.2 139.7s42.4-16.6 70.9-20.9 86.5-3.7 86.5-3.7l30.1-58.5-29.7-20.6-25.2 17.2z"/><circle class="st2" cx="256.3" cy="603.2" r="4.8"/><circle class="st2" cx="270.8" cy="530.7" r="4.8"/><circle class="st2" cx="344.9" cy="590.3" r="4.8"/><circle class="st2" cx="383.6" cy="593.5" r="4.8"/><circle class="st2" cx="407.7" cy="580.7" r="4.8"/><path class="st3" d="M249.8 572.6s-13.4-16.1-1.1-27.9c12.4-11.8 23.7 6.4 23.7 6.4l-22.6 21.5z"/><path class="st2" d="m248.5 558.6 7.3 8.4M254.2 552.9l7.7 8.9M259.5 546.8l7.6 8.9M411 598.9l-26.8-31.1M407.3 609.2l-29-36.1M378.3 609.2l-35.5-55.5M367.5 606.9 323 546.8M346 608.5l-63.3-67M335.9 611.3l-85-83.8M324.6 617.7l-52.7-51.1M311.7 616.6l-47.9-40.8M294.9 613.4l-57.3-45.6M329.1 572.9l-33.4-34.1"/><path class="st3" d="M340.7 603.7c-37.5 4.7-92.3 16.4-92.3 16.4 9 19.2 20.5 30.9 20.5 30.9s42.4-16.6 70.9-20.9 86.5-3.7 86.5-3.7l11.1-21.6c-.2-.1-53.2-6.4-96.7-1.1z"/><path class="st2" d="M420.6 612.4c-48-11.3-167.1 16.6-167.1 16.6M258.5 618.8l3.4 7.8M265.9 616.9l3.6 8.6M282.7 614.2l3.4 7.5M291.2 612.9l2.5 6.9M334.4 605.1l2.3 8.3M343.3 604l2.4 8.4M371 602.1l2.7 7.6M380.7 601.6l2.1 7.3M278.8 646.7s-8.5-12.6-2.9-14.5c5.6-1.9 10.2 11.8 10.2 11.8"/><path class="st2" d="M307 637.9s-7.7-11.8-1.8-13.7S315 636 315 636M344.9 629.5s-4.5-11 1.6-12.1c6.1-1.1 6.9 11 6.9 11M380.7 626.3s-2.4-11.3 2.4-11c4.8.3 6 10.8 6 10.8"/><path class="st3" d="M388.7 563.3c-6.9-1-16.3-2.7-27.9-5.8 0 0-15.3 26.6 9.8 28.7 17.8.9 18.1-22.9 18.1-22.9z"/><path class="st2" d="m359.7 581.9 7-9.3M357.3 570.2l5.3-3.6M371 575.5l-.3 10.5M377.1 573.4l6 7.3"/><path class="st0" d="M174.7 141.9s14-82.7 29.5-75.7c14 6.9-21.4 105.2-14 124.6 3.7 10.8 26.3 19.3 26.3 19.3l-11.8 19.8-25.8-11.3-9.7-55.3 5.5-21.4z"/><path class="st2" d="M201 78.4c-11.3 21.4-26.3 106.8-12.9 124.1 9.2 13.4 27.9 18.9 27.9 18.9"/><path class="st0" d="M204.2 224.5s-10.2-.5-22.1-20.9c-11.8-20.5 8.5-143.4-11.3-143.9-13.4.5-6.9 54.1-13.4 69.8-6.4 15.6-1.6 59.1-1.6 59.1l11.8 44.6 30.6 22.1H218l-13.8-30.8z"/><path class="st2" d="M170.4 72.6c3.2 13.4-6.9 98.8 2.1 127.8 9.2 29 34.3 35.9 34.3 35.9"/><path class="st0" d="M138.1 141.2c.5-39.2-12.4-77.8 2.1-79.4 18.9-.5 20.9 98.3 22.1 134.9 1.1 36.6 44.6 50 44.6 50l4.8 25.3-15.6 6.9-22.6-11.8-27.9-43-8.1-56.4c.2-.1.2 12.8.6-26.5z"/><path class="st2" d="M140.9 73s15 72 14.5 119.7c-.5 47.9 52.7 67.7 52.7 67.7"/><path class="st0" d="M128 156.4c-2.3-41.4-29.7-94.6-19.3-94.1 22.1 0 37.5 66.6 39.8 130.5 2.1 64 57.5 79 57.5 79l4.8 14-30.1 7.6-29-24.7-21.6-39.3-2.7-58.5s2.9 29.5.6-14.5z"/><path class="st2" d="M114.5 73c13.4 19.3 20.5 72.5 24.2 103.1s8.1 61.7 27.4 80.1c15.1 14.3 44.6 29.5 44.6 29.5"/><path class="st0" d="M77.4 68.2c15-7.6 56.9 79 62.4 145.5 4.4 54.3 55.9 77.3 55.9 77.3l-17.7 4.8s-50-3.7-52.7-81.7c-2.8-77.7-62.9-138.3-47.9-145.9z"/><path class="st2" d="M82.2 75.8c20.5 27.9 44.6 93.9 47.4 113.3 2.7 19.3 6.4 55.3 17.7 73 11.3 17.7 37.1 32.2 37.1 32.2"/><path class="st1" d="m262.7 177.8-53.7-25S185.2 281.2 224.3 362c19 44 79.4 107.2 79.4 107.2l47.2-45.6 9.3-20.9-35.9-85.4-38.4-97.8-23.2-41.7z"/><path d="m245.8 175.4-30.6-9.7s-21.4 112 17.7 192.6c19 44 79.4 103.9 79.4 103.9l31.4-37.5s-57.7-63.3-77.8-98.3c-33.8-63.2-20.1-151-20.1-151z"/><circle class="st5" cx="228.1" cy="181.3" r="10"/><path class="st6" d="M234.5 173.6c2.1 1.8 3.5 4.5 3.5 7.6 0 4.5-3.1 8.4-7.3 9.7-.8.2-2.6-4-2.6-9.7 0-5.3 4.6-9 6.4-7.6z"/><circle class="st3" cx="227.9" cy="179.9" r="3.7"/><circle class="st2" cx="228.1" cy="181.3" r="10"/><circle class="st5" cx="224.8" cy="245.8" r="10"/><path class="st6" d="M234.8 245.8c0 5.5-4.5 10-10 10l.6-11s.5-8.9-.6-8.9c5.5-.1 10 4.4 10 9.9z"/><circle class="st3" cx="224.7" cy="244.3" r="3.7"/><circle class="st2" cx="224.8" cy="245.8" r="10"/><circle class="st5" cx="241" cy="310.3" r="10"/><path class="st6" d="M250.9 310.3c0 4.2-2.6 7.6-6.1 9.2-1.1.5-3.9-9.2-3.9-9.2v-10c5.5 0 10 4.5 10 10z"/><circle class="st3" cx="240.8" cy="308.8" r="3.7"/><circle class="st2" cx="241" cy="310.3" r="10"/><circle class="st5" cx="282.9" cy="394" r="10"/><path class="st6" d="M292.8 394c0 5.5-4.5 10-10 10v-20c5.5.1 10 4.6 10 10z"/><circle class="st3" cx="282.7" cy="392.6" r="3.7"/><circle class="st2" cx="282.9" cy="394" r="10"/><path class="st10" d="M260.1 208.9s-89.8-26.3-93.9-17.7c-4.4 8.5 93.5 32.2 93.5 32.2l.4-14.5zM178 295.9c-6-11.8 86.4-31.1 86.4-31.1l1.1 17.7s-83.4 23.1-87.5 13.4zM289.1 336.2s-81.7 55.3-74.6 66.1c8.1 12.4 82.2-53.7 82.2-53.7l-7.6-12.4zM328.3 389.4s-72 64-61.7 73c10.2 9.2 74.6-61.7 74.6-61.7l-12.9-11.3z"/><path class="st0" d="M344.9 205.2 260 156.8s-17.2 109.1 16.1 166c22.1 40.3 74.1 95.6 74.1 95.6l32.9-29.5 41.4-43-21.6-110.1-58-30.6z"/><path class="st3" d="m344.9 205.2-69.8-39.8s-17.2 90.2 16.1 147.1c22.1 40.3 80.3 86.7 80.3 86.7l11.6-10.5 41.4-43-21.6-109.9-58-30.6z"/><path class="st10" d="m344.9 205.2-57.7-32.9s-19.2 77.5 14.2 134.4c22.1 40.3 78.5 84.3 78.5 84.3l44.6-45.1-21.6-110.1-58-30.6z"/><path class="st0" d="m344.9 205.2-39.6-22.6s-19.5 54.3 13.9 111.2c22.1 40.3 74.6 83.2 74.6 83.2l30.8-31.1L403 235.8l-58.1-30.6z"/><path class="st0" d="m344.9 205.2-30.6-17.4s-18.7 42.2 14.5 99.1c22.1 40.3 71.1 84 71.1 84l24.5-24.8L403 235.9l-58.1-30.7z"/><path class="st2" d="m285.3 181-11.1-4.2M284.1 189.9l-10.8-2.4M282.9 199.2l-10.8-1.3M282.2 209.1l-10.3-.5M281.4 219.7l-9.3.2M281.7 230.6l-9 1M281.6 240.6l-9.1 1.5M283.3 251l-9.8 1.6M284.8 260.8l-9.8 1.8M286.4 270.5l-9.2 2.4M289.5 279.3l-10.2 3.1M291.7 288.7l-8.8 3.2M295.4 297.7l-9 3.5M300.1 305.6l-9.7 5M304.1 313.2l-8.4 5.3M309.6 320.9l-8.2 5.8M316.1 328.6l-7.8 6.5M321 337l-7 6.1M328.8 343.6l-7.3 6.6M335.6 351l-7.5 7.3M342.2 357.6l-7 7.8M349.1 365.2l-6.5 6.9M357.1 372l-6.9 8M364.2 378.1l-6.1 7.7M371.5 384.5l-6.8 8.1"/><path class="st5" d="M296.6 348.6s-35.9 24.7-24.2 39.8c11.8 15 43-16.6 43-16.6l78.5-73.6-46.7 6.9-50.6 43.5z"/><path class="st13" d="m324.3 363.4 9.2-8.7-19.5-21.1-9.9 8.6z"/><path class="st12" d="M296.6 348.6s-35.9 24.7-24.2 39.8c11.8 15 43-16.6 43-16.6l-18.8-23.2z"/><circle class="st2" cx="294.9" cy="360.7" r="3.2"/><circle class="st2" cx="301.4" cy="370.4" r="3.2"/><circle class="st2" cx="282.1" cy="372" r="3.2"/><circle class="st2" cx="293.3" cy="378.4" r="3.2"/><path class="st2" d="M296.6 348.6s-35.9 24.7-24.2 39.8c11.8 15 43-16.6 43-16.6l78.5-73.6-46.7 6.9-50.6 43.5z"/><circle cx="314.1" cy="342.5" r="4"/><circle cx="323.8" cy="353.8" r="4"/><path class="st5" d="m331 308.3 12.9-40.8-68.3 44s-51.1 26.9-39.8 43.5 56.4-17.2 56.4-17.2l38.8-29.5z"/><path class="st13" d="m297.8 333.6 10.7-8-18.7-23.2-10.3 6.7z"/><path class="st12" d="M275.6 311.5s-51.1 26.9-39.8 43.5 56.4-17.2 56.4-17.2l-16.6-26.3z"/><circle class="st2" cx="245" cy="347.8" r="3.2"/><circle class="st2" cx="259.5" cy="344.6" r="3.2"/><circle class="st2" cx="254.7" cy="333.3" r="3.2"/><circle class="st2" cx="267.5" cy="325.2" r="3.2"/><circle class="st2" cx="272.4" cy="336.5" r="3.2"/><path class="st2" d="m331 308.3 12.9-40.8-68.3 44s-51.1 26.9-39.8 43.5 56.4-17.2 56.4-17.2l38.8-29.5z"/><path class="st1" d="M451.9 202.4s-79-110.1-109.1-84.9c-23.7 22.1-10.5 39.2-10.5 39.2l27.1 29.5 50 29.5 34.3 12.9 8.2-26.2z"/><path class="st1" d="M441.1 208.9c-10.2-4.8-69.3-104.7-96.7-80.1-12.9 13.4-5.3 28.5-5.3 28.5"/><path class="st10" d="M423.4 209.5s-59.6-79.4-69.8-72.5c-12.9 9.2 14 38.2 14 38.2l26.3 25.3 29.5 9z"/><path class="st0" d="m240.5 578.2 77.3-80.1 10.5 8.9-68.8 83zM336 509.4l-65.7 91.1 12.9 10 62.8-97zM353 516.2l-52.9 105.2 16.1 8.4L365 521z"/><path class="st1" d="M326.2 458.7 299.3 498l70.9 29 14.5-29.7 20.5-63.8 10.6-33.3-39.2-11.3-35.4 48.3z"/><path class="st2" d="m317 469 65.6 39.6M323 461.4l61.2 39.8M329.4 456.6l50 33.3M333.6 450.1l49.5 32.3M338 442.6l46.7 30.6M345.5 436.8l44 30.6M305.7 500.6l6.5-11.8M313.3 503.3l5.8-12.4M319.8 505.4l5.8-11.3M326.4 508.5l6.3-12.1M333.6 511.4l6-11.8M341.2 514.3l6.4-11.3M349.2 518.6l6.5-11.7M359.2 521.8l6.5-11.2"/><path class="st5" d="M393.9 408.7c-1.1 31.7-31.7 116.5-14 119.2 17.7 2.7 36.6-80.6 36.6-80.6l3.2-54.3c0 .2-24.8-15.9-25.8 15.7z"/><path class="st12" d="M408.5 476.9c-1.3 4-2.6 8.2-4 12.4l-25.3-7.7c.8-3.5 1.6-7.1 2.4-10.6l26.9 5.9zM376.3 496.4c-3.1 17.6-3.4 30.6 3.5 31.6 6.8 1 13.7-10.5 19.7-25l-23.2-6.6z"/><circle class="st2" cx="394.2" cy="480.1" r="4.7"/><circle class="st2" cx="384.5" cy="510.7" r="4.7"/><path class="st2" d="M393.9 408.7c-1.1 31.7-31.7 116.5-14 119.2 17.7 2.7 36.6-80.6 36.6-80.6l3.2-54.3c0 .2-24.8-15.9-25.8 15.7z"/><path class="st5" d="M365.4 393.2s-75.7 81.7-74.1 84.3c1.6 2.7 19.3 3.7 24.7 1.6 5.3-2.1 67.7-80.6 67.7-80.6l-6.9-9.7-11.4 4.4z"/><path class="st12" d="M333 428.5c-3.9 4.2-7.7 8.7-11.6 12.9l16.3 13.9c3.9-4.7 7.9-9.5 12.1-14.7L333 428.5zM309.1 455.1c-10.6 12.1-18.4 21.4-17.9 22.4 1.6 2.7 19.3 3.7 24.7 1.6 1.1-.5 5.3-4.8 10.8-11.1l-17.6-12.9z"/><circle class="st2" cx="336.2" cy="443" r="4.7"/><circle class="st2" cx="381.5" cy="388.9" r="4.7"/><circle class="st2" cx="310.4" cy="468.8" r="4.7"/><path class="st2" d="M365.4 393.2s-75.7 81.7-74.1 84.3c1.6 2.7 19.3 3.7 24.7 1.6 5.3-2.1 67.7-80.6 67.7-80.6l-6.9-9.7-11.4 4.4z"/><path class="st5" d="M469.6 127.8s40.3-42.4 50-51.6S555 40.3 570 58.1c15 17.7-22.6 47.2-22.6 47.2l-19.8 36.6-45.1 16.6-12.9-30.7z"/><path class="st12" d="m534.6 129-6.9 12.9-4.4 1.6-34.5-35.6c4.5-4.7 9.2-9.7 13.7-14.2l32.1 35.3zM519.6 76.3c9.7-9.2 35.5-35.9 50.4-18.2 15 17.7-22.6 47.2-22.6 47.2l-27.8-29z"/><circle class="st2" cx="503.8" cy="107.2" r="4.2"/><circle class="st2" cx="513.1" cy="118.3" r="4.2"/><circle class="st2" cx="547.9" cy="94.6" r="4.2"/><circle class="st2" cx="538.4" cy="86.7" r="4.2"/><circle class="st2" cx="543.1" cy="69.3" r="4.2"/><circle class="st2" cx="552.6" cy="80.5" r="4.2"/><circle class="st2" cx="555.8" cy="61.4" r="4.2"/><circle class="st2" cx="563.7" cy="72.6" r="4.2"/><circle class="st2" cx="530.5" cy="77.2" r="4.2"/><path class="st2" d="M469.6 127.8s40.3-42.4 50-51.6S555 40.3 570 58.1c15 17.7-22.6 47.2-22.6 47.2l-19.8 36.6-45.1 16.6-12.9-30.7z"/><path class="st5" d="M486.2 150.4s48.3-35.5 61.2-45.1c12.9-9.7 51.1-33.4 62.4-17.2 11.3 16.1-22.6 39.2-37.1 48.8-14.5 9.7-74.1 51.1-74.1 51.1l-30.1 7.6-1.6-18.9 19.3-26.3z"/><path class="st12" d="M552 151.2c-4.7 3.2-9.7 6.6-14.7 10l-25.9-29.3c5.2-3.9 10.6-7.7 15.8-11.6l24.8 30.9zM547.5 105.3c12.9-9.7 51.1-33.4 62.4-17.2 11.3 16.1-22.6 39.2-37.1 48.8l-25.3-31.6z"/><circle class="st2" cx="529.7" cy="135.9" r="4.4"/><circle class="st2" cx="539.4" cy="147.2" r="4.4"/><circle class="st2" cx="563.6" cy="110.1" r="4.4"/><circle class="st2" cx="573.2" cy="123" r="4.4"/><circle class="st2" cx="584.5" cy="116.6" r="4.4"/><circle class="st2" cx="576.5" cy="103.7" r="4.4"/><circle class="st2" cx="589.4" cy="97.2" r="4.4"/><circle class="st2" cx="595.8" cy="108.5" r="4.4"/><circle class="st2" cx="603.9" cy="97.2" r="4.4"/><path class="st2" d="M486.2 150.4s48.3-35.5 61.2-45.1c12.9-9.7 51.1-33.4 62.4-17.2 11.3 16.1-22.6 39.2-37.1 48.8-14.5 9.7-74.1 51.1-74.1 51.1l-30.1 7.6-1.6-18.9 19.3-26.3z"/><path class="st0" d="M344.9 188.7s189 91.4 191 84.1c1.9-7.3 98.3-59.6 96.4-76.5s-51.6 14.2-58.5 13.7c-6.9-.5-35.9-29-66.9-29.5-40.3-1.3-67.7 29.8-77.3 29.5-5.6 0-59.6-36.7-59.6-36.7l-25.1 15.4z"/><path class="st1" d="M441.1 385.7c97.8-9.7 175.6-53.2 175.6-53.2s1.3-25.8-34.3-33.8c1.3-2.9 20.3-21.4 20.3-21.4l38.7-36.6v-18.2s-24.2-11.3-32.2-11.8c-8.1-.5-38.2 14.5-45.6 13.4-7.6-1.1-40.3-26.9-68.2-27.4-27.9-.5-60.8 25.3-60.8 25.3l-72-29-22.6 62.8 46.7 67.7 38.2 62.8c.1-.1 3.8-2.7 16.2-.6z"/><path d="M407.3 299.1c32.7-33.4 51.6-18.2 52.7-22.6 2.1-10.8-37.1-9.7-58-19.8-12.9-6-51.6-.5-51.6-.5l25.8 18.9s38.2-6 44.6 1.6c-2.7 2.1-18.2 19.8-18.2 19.8s-28.1 36 4.7 2.6zM483.5 214.4c-10.8-.5-41.4 27.9-47.2 27.9-5.8 0-82.7-33.8-82.7-33.8l-4.4 10.8s80.6 31.1 88.6 30.6c8.1-.5 38.7-26.3 45.1-25.8 6.5.4 11.4-9.2.6-9.7zM416.9 317.5s29-31.7 59.6-24.7c26.3 6.4 40.8 22.6 45.6 33.8 4.8 11.3-8.1 45.1-8.1 45.1l-15.6 3.7s13.4-23 14.5-39.2c-.5-6-4.8 8.1-6.9 7.6 0 0 2.1-31.7-13.4-26.3-2.7 1.6 19.8 22.1-5.3 42.4-25.3 20.5-51.6.5-54.3-3.2-2.7-3.7 3.7-29 23-28.5s18.2 17.7 12.4 20.9c-5.8 3.2-15-6-17.7-2.7-2.7 3.2 8.5 15.6 29 2.7 10.2-6.4 7.6-19.8 4.8-25.8s-27.4-20.5-44-11.3c-10.2 6-19.3 14-19.3 14l-4.3-8.5zM513.6 274.5l48.3 23.7 29.5-17.7s-43.8 1.6-55.8-7.6S521 268 521 268l-7.4 6.5z"/><path d="M533 246c32.7 21.4 103.1-14.5 103.1-14.5l-10.2-6.9s-45.1 31.7-97.8 10.2c-52.7-21.6-27.9-10.3 4.9 11.2zM539.4 364.7s6.9-23.7 6.4-32.2 8.1-19.8 8.5-3.2c.5 16.6-5.3 31.1-5.3 31.1l-9.6 4.3zM576 323.3c2.7 9.7-3.2 29-3.2 29l8.5-3.7s4.8-17.2 2.7-31.1c-2.2-14-10.8-3.9-8 5.8zM591 343.8s3.2-20.5 0-29.5 3.2-20.5 6.4-3.7c3.2 16.6 0 30.1 0 30.1l-6.4 3.1z"/><path class="st2" d="M488.3 287.4c14.5 4.4 43 26.9 43 26.9M344.4 232.1s101 29.5 112.3 26.9c11.3-2.7 17.7-15 17.7-15M433 365.8s16.1 12.9 38.2 10.8c22.1-2.1 34.3-25.3 36.6-37.5M425.5 338.5s14-23.7 34.3-20.5 19.8 31.1 19.8 31.1M492.7 278.2c18.9 3.7 61.7 24.7 61.7 24.7M534.1 257.2c41.9 17.7 96.7-15.6 96.7-15.6"/><path class="st2" d="M532.5 263.7c32.2 20.9 76.9-1.6 76.9-1.6M524.9 369.1c6-3.2 10.2-38.2 10.2-38.2M561.5 356.2c4.4-4.4 4.4-32.7 4.4-32.7M410 308.8s39.2-28.5 50.4-25.8M453.5 273.4c12.9 0 21.4-18.2 21.4-18.2M357.8 200.8s72.5 32.7 79 31.7c6.4-1.1 27.9-24.2 59.1-23 31.1 1.1 51.6 23 63.3 25.8 11.8 2.7 61.2-17.7 61.2-17.7"/><path class="st3" d="M373.4 260s19.8-6.4 24.7-1.6c10.2 11.3-4.8 31.9-4.8 31.9l-20.9-8.9 1-21.4z"/><path class="st2" d="m397.1 258.4-16.1 14"/><circle class="st11" cx="450.3" cy="158.5" r="38.7"/><circle class="st11" cx="450" cy="159.7" r="29.3"/><path class="st14" d="m450 130.4-2 57.5M470.1 181.5 430.9 138M472.2 140.2l-41.9 39.2M479.3 159.7l-58-2.4"/><circle class="st11" cx="448.7" cy="159.6" r="10.8"/><path class="st0" d="M521.7 532.3s-5.3-13.4-17.2-15.6c-11.8-2.1-126.2-12.4-122.5 33.8 3.7 30.6 47.2 16.1 46.2 23-1.1 6.9-40.8 27.4-15.6 52.7 22.6 22.1 57.5-18.9 62.8-15.6s-1.1 52 38.7 50c39.8-2.1 24.2-50.4 28.5-51.6 4.4-1.1 38.7 44.6 65.6 10.8 26.9-33.8-29-51.1-27.4-56.9 1.6-6 29.5-10.2 35.5-18.9 6-8.5 2.7-36.6-10.2-40.8-13-4.2-88.1 2.2-84.4 29.1z"/><path class="st3" d="M398.1 546.8c-1.1-18.2 101.5-29.5 113.3-12.4 6.9 10.8 1.6 19.8-4.4 19.8s-2.1-21.4-15-15.6c-12.9 6-16.6 10.8-13.4 22.6 3.2 11.8 15.6 17.2 35.5 14.5 29-4.8 16.1-33.4 22.1-41.4s68.2-24.7 69.3-4.4c1.1 20.5-37.1 17.7-38.2 33.4s51.1 22.1 29 49.5c-16.6 20.9-46.7-22.6-58-15s2.7 51.1-27.4 50c-30.1-1.1-11.3-41.9-27.4-48.3s-44.6 35-61.7 17.7C404.6 600 451.9 579.7 440 564c-5.3-9.6-40.8 1-41.9-17.2z"/><path class="st2" d="M491.1 550c3.7 34.3 44.6 12.4 30.6-17.7"/><path class="st4" d="M385.8 364.7s-22.6 25.8-20.5 28.5c2.1 2.7 46.7 29.5 46.7 29.5s17.2-26.3 15-26.3-12.9-35.9-12.9-35.9l-19.3-3.2-9 7.4z"/><circle class="st2" cx="381.8" cy="387.6" r="5.2"/><circle class="st2" cx="396.3" cy="398.9" r="5.2"/><circle class="st11" cx="354.9" cy="290.3" r="38.4"/><circle class="st2" cx="357.3" cy="292.2" r="27.4"/><path class="st14" d="M377.1 274 338 311.1M353.6 265.9l6.4 53.7M332.7 280.9l48.8 24.7"/><path class="st3" d="M435.1 364.7c2.1 21.4 37.5 56.4 33.4 60.8-4.4 4.4-23.7-6.4-29.5-16.6.5 6.9.5 54.8-42.4 55.3-40.3-1.6-42.4-56.9-23-53.2 16.1 3.7 6.9 19.3 22.1 18.2 15-1.1 12.4-31.7 9.7-51.1s6-16.1 6-16.1 22.1-11.8 23.7 2.7z"/><path class="st0" d="M395.5 440.9c-27.4-.5-25.8-31.1-22.1-30.1 16.1 3.7 6.9 19.3 22.1 18.2 15-1.1 12.4-31.7 9.7-51.1-2.7-19.3 6-16.1 6-16.1s22.3 79.1-15.7 79.1z"/><path class="st10" d="m404 353.9 1.1 24.2s17.7-11.8 31.7-11.8c3.2 0-4.4-24.2-4.4-24.2l-23.7.5-4.7 11.3z"/><path class="st4" d="M400.3 383.6s1.6-24.7 10.2-32.7c8.5-8.1 27.4-2.1 27.4-9.2 0-12.4-22.6-5.3-22.6-5.3s9.7-6.9 8.1-14-10.8-9.7-10.8-9.7 1.6-18.2-7.6-21.4-35 10.8-33.4 29c1.1 11.3 13.4 15 15.6 22.1 2.1 6.9-6.9 18.2-4.8 27.9 2.3 9.4 17.9 13.3 17.9 13.3z"/><path class="st2" d="M415.3 336.2c-8.5 6.4-15-5.3-4.8-10.2"/><circle class="st11" cx="357.3" cy="292.7" r="9.2"/><path class="st3" d="M603.1 285c10.2 3.7 21.4 14.2 26.6 22.6 4-11.3-4.8-52-4.8-52l-14.2 9.3c.1-.1-17.6 16.5-7.6 20.1z"/><path class="st5" d="M644.6 243.9s4.4 21.4 9.7 53.7c6.9-14 3.2-53.2 3.2-53.2l-12.9-.5z"/><path class="st6" d="M644.6 243.9s1.3 6.4 3.2 17.4c0 0 5-4 10.5-.8-.3-9-1-16-1-16l-12.7-.6z"/><path class="st2" d="M644.6 243.9s4.4 21.4 9.7 53.7c6.9-14 3.2-53.2 3.2-53.2l-12.9-.5z"/><path class="st5" d="M635.3 249.5s8.1 23.4 12.1 52.4c6.1-8.1 1.3-59.3 1.3-59.3l-13.4 6.9z"/><path class="st6" d="M635.3 249.5s1.9 5.5 4.4 14.5c0 0 4.5-5.3 10.3-3.2-.5-10.2-1.3-18.2-1.3-18.2l-13.4 6.9z"/><path class="st2" d="M635.3 249.5s8.1 23.4 12.1 52.4c6.1-8.1 1.3-59.3 1.3-59.3l-13.4 6.9z"/><path class="st5" d="M624.8 255.6s7.7 23.8 13.4 49.1c4.8-7.7.8-57.7.8-57.7l-14.2 8.6z"/><path class="st6" d="M624.8 255.6s2.3 6.8 5.2 17.1c0 0 5.8-5.8 10.2-5.8-.5-10.8-1.1-19.7-1.1-19.7l-14.3 8.4z"/><path class="st2" d="M624.8 255.6s7.7 23.8 13.4 49.1c4.8-7.7.8-57.7.8-57.7l-14.2 8.6z"/><path class="st0" d="M600.2 313.6s-73 42.4-82.2 11.3c-2.7-11.8 48.8-29.5 63.3-39.6s59.1-56.4 59.1-56.4 21.4 7.6 19.3 18.2c-1.1 3.7-10.2-3.7-22.1 3.2-11.8 6.9-24.7 17.7-24.2 21.4 2.1 12.4-20.1 22.9-20.1 22.9l6.9 19z"/><path class="st10" d="M543.8 324c36.4-20.8 49.6-29.3 49.6-29.3s15.3-2.4 20.6 1.9c5.3 4.4 16.1 25.3 29 35.5 12.9 10.2 43 7.6 42.4 14.5-1.1 10.8-24.7 16.1-38.7 14-13.9-2.3-39.6-38.2-46.1-44.2-6.4-6-56.8 7.6-56.8 7.6z"/><path class="st11" d="M653.8 216.5c8.5 10.8-22.6 20.5-35.5 11.3-12.9-9.2-8.1-25.3 2.7-34.3 17.7-13.4 30.1-9.7 37.1-.5 7 9 4.3 18.1-4.3 23.5z"/><path class="st2" d="M639.3 224.5c-10.2 2.7-18.9-3.2-17.2-14 1.6-10.8 18.2-18.9 22.1-15.6 12.9 12.9-13.4 8.1-11.8 17.2 1.6 9.2 16.1 7.6 21.4 4.4"/><circle class="st5" cx="323" cy="170.9" r="11.6"/><path class="st6" d="M334.4 170.9c0 6.4-5.2 11.6-11.6 11.6v-23.2c6.5 0 11.6 5.1 11.6 11.6z"/><circle class="st3" cx="322.7" cy="169.3" r="4.4"/><circle class="st2" cx="323" cy="170.9" r="11.6"/><circle class="st5" cx="318.1" cy="133.8" r="11.6"/><path class="st6" d="M329.3 136.9c-1.8 6.1-8.1 9.7-14.2 7.9l3.2-11.1 3.2-11.1c5.8 1.9 9.4 8.1 7.8 14.3z"/><circle class="st3" cx="318.1" cy="132.2" r="4.4"/><circle class="st2" cx="318.1" cy="133.8" r="11.6"/><circle class="st5" cx="358.4" cy="101.6" r="11.6"/><path class="st6" d="M358.3 113c-6.4 0-11.4-5.3-11.4-11.8l11.6.2 11.6.2c-.2 6.4-5.5 11.6-11.8 11.4z"/><circle class="st3" cx="359.9" cy="101.2" r="4.4"/><circle class="st2" cx="358.4" cy="101.6" r="11.6"/><circle class="st5" cx="403.6" cy="125.7" r="11.6"/><path class="st6" d="M395.7 134.1c-4.7-4.4-5-11.6-.6-16.3l8.5 7.9 8.5 7.9c-4.5 4.6-11.8 4.9-16.4.5z"/><circle class="st3" cx="404.8" cy="126.5" r="4.4"/><circle class="st2" cx="403.6" cy="125.7" r="11.6"/><path class="st0" d="M331.2 234.2s-14.2-3.7-12.6-10.5S336 220 336 220s-19-5.6-16.6-12.9c2.4-7.3 19.8-4 19.8-4s-18.5-4.5-15.3-12.1 20.9-2.4 20.9-2.4-18.5-4.5-16.6-11.8c1.9-7.3 22.2-2.9 22.2-2.9s-23.8-5.8-18.2-17.1 37.5 16.6 37.5 16.6l-27.6 76.2s-29.3-4.5-28-12.2c1.5-7.7 17.1-3.2 17.1-3.2z"/><circle cx="289.9" cy="311.9" r="4"/><circle cx="298" cy="323.1" r="4"/><path class="st11" d="M454.5 275.6s18.9 5.3 18.2-5.3c-.3-7.6-6.9-51.6 13.4-58.5 20.5-6.9 27.4 11.3 27.4 11.3l-6.4 33.8-17.2 13.4-3.2 18.9-16.6 2.7-15.6-16.3z"/><path class="st11" d="M516.4 225s-8.9-16.3-23.7-7.6c-11.8 6.9-9.8 19-8.1 26.9 1.1 5 6.1 6.6 3.2 9.2-7.6 6.4 1.1 29.5-11.3 32.2-7.6.5-22.1-10.2-22.1-10.2s4.8 24.7 25.8 22.1c20.9-2.7 18.2-28.5 18.2-28.5l18-44.1z"/><circle class="st5" cx="509.1" cy="250" r="27.1"/><path class="st6" d="M521.4 274.3c-3.7 1.9-7.9 2.9-12.2 2.9-11.8 0-21.6-7.4-25.5-17.7l25.1-8.1 12.6 22.9z"/><circle class="st2" cx="509.1" cy="250" r="27.1"/><ellipse class="st2" cx="509.3" cy="249" rx="18.2" ry="17.4"/><ellipse class="st3" cx="510.7" cy="248.4" rx="7.7" ry="7.3"/></svg>