<svg version="1.1" id="Calque_1" xmlns="http://www.w3.org/2000/svg" x="0" y="0" viewBox="0 0 900 900" style="enable-background:new 0 0 900 900" xml:space="preserve"><style>.st0,.st1,.st2,.st3,.st4,.st5{fill:#fff;stroke:#000;stroke-width:6.7183;stroke-linecap:round;stroke-linejoin:round;stroke-miterlimit:10}.st1,.st2,.st3,.st4,.st5{fill:#ffce00}.st2,.st3,.st4,.st5{fill:none}.st3,.st4,.st5{fill:#00767f}.st4,.st5{fill:red}.st5{fill:#005b00}.st6{fill:red}.st7{fill:#ffce00}.st10,.st8,.st9{fill:none;stroke:#000;stroke-width:5.7586;stroke-linecap:round;stroke-linejoin:round;stroke-miterlimit:10}.st10,.st9{stroke-width:4.7988}.st10{fill:#4c4c4c;stroke-width:6.7183}.st11{fill:#fff}.st13{fill:none;stroke:#000;stroke-width:7.6781;stroke-linecap:round;stroke-linejoin:round;stroke-miterlimit:10}</style><path class="st0" d="M123.9 247.3c-1.9-3.8-13.4-3.8-15.4 1.9-.5 1.4-.3 5.9.2 11.9l17.7-.8c-1.1-6.7-1.9-11.9-2.5-13z"/><path class="st1" d="M341.8 401.8c-108.5-9.6-137.2-25-137.2-25l-41.3-12.5-11.5-5.8s3.8-39.4 1-48.9-21.1-8.6-21.1-8.6-2.9-24.8-5.2-40.8l-17.7.8c1.5 18.8 6.5 52.4 6.5 52.4s-12.5-1.9-13.4 2.9c-1 4.8-1 53.7 6.7 62.4s44.1 14.4 44.1 14.4l37.4 16.3 71 18.2 83.5 1.9c0 .1 14.4-14.3-2.8-27.7z"/><path class="st2" d="M115.3 313.5s4.8 53.7 15.4 53.7"/><path class="st0" d="M115.3 313.5s-12.5-1.9-13.4 2.9c-.3 1.4-.5 6.6-.4 13.6l15.7-1.1c-1.4-8.6-1.9-15.4-1.9-15.4zM190.1 409.5s12.5 11.5 18.2 11.5c5.8 0 11.5-3.8 8.6-13.4-2.9-9.6-26.9-6.7-26.9-6.7l7.7-15.4s16.3 9.6 25 6.7c8.6-2.9 7.7-11.5 3.8-15.4-3.8-3.8-22.1 0-22.1 0l-21.1 2.9 6.8 29.8z"/><path class="st3" d="m150.8 396 12.5-31.6 41.2 12.4-14.4 32.7z"/><path class="st1" d="m595.1 528.5-47-70.1-35.5-49.9-106.5 23-20.2 12.5 1.9 16.3 77.8 117.1 119.9-22z"/><path class="st1" d="M393.6 441.1s-191 39.4-205.4 38.4c-14.4-1-15.4-23-10.6-27.8 4.8-4.8 54.7-17.3 54.7-17.3l94.1-27.8 36.5-7.7 30.7 42.2z"/><path class="st4" d="m475.1 560.2 9.7 13.3s100.8 21.1 126.7-9.6c5.8-6.8 10.2-11.8 13.2-15.7-16.1-3.7-70.3-12.8-149.6 12z"/><path class="st0" d="M609.5 524.6c-106.5 0-144.9 21.1-144.9 21.1l10.5 14.5c79.4-25 133.5-15.8 149.6-12 10.9-13.7 5.8-13-15.2-23.6z"/><path class="st5" d="m712.2 512.2 36.5 27.8 7.7-10.6-25.9-24.9-21.1-23-12.5 2.8zM734.3 469.9l49 5.8-1 10.6-47-2.9-18.3.9-17.2-11.5 6.7-7.7z"/><circle class="st1" cx="786.6" cy="482.9" r="12"/><circle class="st1" cx="757.3" cy="538.1" r="12"/><path class="st4" d="m671 628.3-37.4-38.4s-5.8-1-9.6 15.4c10.1 14.7 37.7 68.3 62.7 118.9L719 708c-26.8-42.2-48-79.7-48-79.7z"/><path class="st0" d="m719 708-32.4 16.2c2.1 4.2 4.1 8.4 6.2 12.7l33.7-17.2c-2.6-4-5.1-7.8-7.5-11.7zM782.3 797.2c-15-17.5-32-41.5-48.2-65.8l-34.9 18.7c16.9 34.9 30.6 64.4 33.1 72.1l50-25z"/><path class="st0" d="m726.5 719.7-33.7 17.2c2.2 4.5 4.3 8.9 6.4 13.3l34.9-18.7c-2.5-4-5.1-7.9-7.6-11.8z"/><path class="st2" d="m720.9 772.3 22 42.2M729.5 768.4l23 43.2M738.1 765.5l24 42.3M744.9 761.7l25.9 41.3"/><circle class="st3" cx="508.8" cy="493.4" r="25"/><circle class="st4" cx="508.8" cy="493.4" r="6.7"/><circle class="st0" cx="200.2" cy="302.5" r="15.8"/><circle class="st2" cx="200.7" cy="302" r="5.8"/><path class="st5" d="M670 137.9c13.4 21.1 90.2 94.1 90.2 94.1s-8.6 15.4-17.3 13.4c-8.6-1.9-100.8-96-100.8-96l-2.9-23c.1-.1 15.4 6.7 30.8 11.5z"/><path class="st1" d="M609.5 101.4c29.8 4.8 42.2 26.9 50.9 26.9 8.6 0 17.3-4.8 17.3-14.4s-9.6-10.6-12.5-9.6c-2.9 1-1.9 4.8 0 7.7s-2.9 6.7-8.6 3.8c-5.8-2.9-8.6-11.5-4.8-19.2 3.8-7.7 31.7-15.4 40.3 9.6s-7.7 34.6-25.9 37.4-35.5-16.3-35.5-16.3l-37.4-7.7-2.9-15.4c-.1.1 3.8-2.8 19.1-2.8z"/><path class="st5" d="m544.3 119.6 51.8-7.7s21.1-6.7 24-25.9c4.8-25.9-14.4-32.6-26.9-35.5-12.5-2.9-27.8 6.7-29.8 15.4-1.9 8.6 2.9 20.2 8.6 21.1 5.8 1 10.6 1 11.5-5.8.8-5.1-4.8-6.7-3.8-11.5s14.4-6.7 18.2-1 4.8 22.1-7.7 25c-12.5 2.9-37.4 1.9-54.7 15.4-17.3 13.4-13.4 18.2-13.4 13.4s22.2-2.9 22.2-2.9z"/><path class="st1" d="M527 124.4s41.6-17.2 77.7-11.5c43.2 6.7 60.5 73.9 111.3 150.7 3.8 4.8-8.6 17.3-18.2 10.6-9.6-6.7-58.5-96.9-69.1-115.2-10.6-18.2-60.5-21.1-60.5-21.1l-36.5 4.8-4.7-18.3z"/><path class="st5" d="M668.1 288.5c-1.9-8.6-30.7-134.4-53.7-151.6-23-17.3-69.1-2.9-69.1-2.9l-1.9 25.9 33.6-9.6s24 4.8 31.7 16.3c7.7 11.5 34.6 121.9 40.3 127.6s21 3 19.1-5.7z"/><path class="st1" d="M559.6 146.5s37.4-10.6 48 15.4c10.6 25.9 10.6 131.5 9.6 137.2-1 5.8-11.5 5.8-16.3 1.9-4.8-3.8-6.7-125.7-12.5-134.4-5.8-8.6-27.8-4.8-27.8-4.8l-1-15.3zM647.9 339.4l-40.4-.8-.8 40.1c16.2 2.3 30.8 5 37.3 7.6 1-12.3 3.9-46.9 3.9-46.9z"/><path class="st4" d="m541.4 337.5-2.9 33.6s37.2 3.3 68.2 7.8l.8-40.1-66.1-1.3z"/><path class="st2" d="m535.6 353.8 110.4 7.7M710.5 475.1c.9.2 2 .5 3.6.8-1.6-.4-2.7-.7-3.6-.8 0-.1 0 0 0 0zM709.4 474.7l1.2.3v-.1c-.9-.1-1.2-.2-1.2-.2z"/><path class="st6" d="m710.5 475.1-1.2-.3s.4 0 1.2.3c1.9-7 2.2-13.5 2-18.6-11.6-.3-41.6-1.9-41.6-1.9l-14.4 25s24.9 15.8 33.6 24.2c12-8.3 17.7-19 20.4-28.7z"/><path class="st7" d="M710.5 475c.9.2 2 .5 3.6.8 8.8 1.5 27.2 2.2 27.9-17.4 1-14.4-12.5-16.3-17.3-16.3-2.9 4.8-1 14.4-9.6 14.4h-2.6c.2 5-.1 11.6-2 18.5z"/><path class="st7" d="M746.8 486.3c-4.4-3.6-23.7-8.3-32.7-10.5-1.5-.3-2.7-.6-3.6-.8-2.7 9.8-8.4 20.3-20.3 28.7 1.5 1.5 2.6 2.8 2.9 3.6 1.9 5.8-1.9 9.6-5.8 15.4 11.5 8.6 25.9 3.8 30.7-7.7 4.8-11.5-13.4-25.9-13.4-25.9s25.9 19.2 32.6 19.2 15.3-17.2 9.6-22z"/><path class="st3" d="m242 430.6 93.1-25.9s-2.9 12.5-1.9 17.3c1 4.8-38.4 18.2-40.3 21.1s1 14.4-1 19.2c-1.9 4.8-38.4 10.6-38.4 10.6l-11-20.6-.5-21.7z"/><path class="st4" d="m220.8 409.5 12.5 37.4 5.8 15.4 4.8 39.3 20.1-3.8-13.4-39.4-3.9-15.3-4.7-38.4z"/><circle class="st4" cx="242.4" cy="452.2" r="11"/><path class="st5" d="m156.5 599.5-14.4 49 16.4 3.8 16.3-62.4zM186.3 588.9l19.2 60.5 14.4-5.7-15.4-43.2-9.6-21.2z"/><path class="st7" d="M224.7 590.9c-5.8-3.8-14.4 2.9-19.2-7.7l-.3-.6c-12.1 8.5-36 8.5-46.6.3-.7 1.4-1.3 2.5-2.1 3.2-5.8 4.8-15.4 2.9-19.2 4.8-1.9 13.4 7.7 18.2 20.2 18.2s17.3-19.2 17.3-19.2-5.8 29.8-2.9 35.5 18.2 3.8 20.2-1c1.9-4.8-1.9-35.5-1.9-35.5s3.8 20.2 19.2 20.2 21-14.4 15.3-18.2z"/><path class="st6" d="M205.2 582.7c-4.7-10.8-8.3-34.9-8.3-34.9h-31.7s-2.2 25.5-6.5 35.2c10.6 8.2 34.5 8.2 46.5-.3z"/><path class="st2" d="M165.2 547.7s-2.9 33.6-8.6 38.4c-5.8 4.8-15.4 2.9-19.2 4.8-1.9 13.4 7.7 18.2 20.2 18.2s17.3-19.2 17.3-19.2-5.8 29.8-2.9 35.5c2.9 5.8 18.2 3.8 20.2-1 1.9-4.8-1.9-35.5-1.9-35.5s3.8 20.2 19.2 20.2 21.1-14.4 15.4-18.2c-5.8-3.8-14.4 2.9-19.2-7.7-4.8-10.6-8.6-35.5-8.6-35.5h-31.9z"/><path class="st0" d="M165.2 530.4s-7.7 14.4-8.6 19.2c-1 4.8 9.6 6.7 12.5 3.8 3.8 4.8 10.6 3.8 13.4 1 4.8 3.8 9.6 1.9 12.5-1 5.8 1.9 12.5-1.9 13.4-4.8 1-2.9-6.7-16.3-6.7-16.3l-36.5-1.9z"/><path class="st2" d="m169 553.4 1.9-16.3M182.4 554.4l-1.9-18.2M194.9 553.4l-3.8-18.2"/><path class="st4" d="M165.2 512.2s-9.6 14.4-6.7 22.1c2.9 7.7 46.1 6.7 47-1.9s-6.7-17.3-6.7-17.3l-33.6-2.9z"/><circle class="st5" cx="183.4" cy="501.6" r="23"/><circle class="st2" cx="183.4" cy="501.6" r="6.7"/><circle class="st1" cx="147.9" cy="654.2" r="10.6"/><circle class="st1" cx="215.1" cy="651.3" r="10.6"/><path class="st1" d="m376.3 596.6 2.9 108.5 42.2.9 20.2-117.1-31.7-57.5-42.2 32.6z"/><path class="st3" d="M399.2 615.6c-10.2 0-18.8 6.6-21.9 15.8l.4 15.6c3.4 8.5 11.7 14.7 21.5 14.7 12.8 0 23-10.3 23-23s-10.4-23.1-23-23.1z"/><circle class="st4" cx="399.2" cy="638.7" r="7.2"/><path class="st3" d="M403.2 565s-4.8 22.1-1 27.8c3.8 5.8 18.2 3.8 23 0s-4.8-36.5-4.8-36.5l-17.2 8.7z"/><path class="st5" d="m382.1 565 39.3.9 1.9-44.1-26.8-15.4-23.1 2.9z"/><path class="st1" d="M350.4 462.3c6.7-14.4 44.1-19.2 59.5-9.6 15.4 9.6 72.9 119 84.5 123.8 11.5 4.8-31.7 28.8-31.7 28.8l-46.1-38.4-25-55.7-17.3 38.4s13.4-11.5 11.5 14.4c-1.9 25.9-38.4 138.2-38.4 138.2H312s18.2-109.4 18.2-142c11.5-26.9 10.6-52.8 10.6-52.8s2.9-30.7 9.6-45.1z"/><path class="st2" d="M376.3 497.8s15.4-5.8 15.4 13.4"/><circle class="st3" cx="421.9" cy="513.6" r="25.9"/><circle class="st4" cx="421.9" cy="513.6" r="8.6"/><path class="st3" d="M345.4 615.6c-12.8 0-23 10.3-23 23s10.3 23 23 23c6.9 0 13.1-3.1 17.4-7.9 1.8-6 3.6-12.1 5.5-18.3-1.7-11.1-11.3-19.8-22.9-19.8z"/><circle class="st4" cx="345.4" cy="638.7" r="7.2"/><path class="st3" d="M324.5 561.1s-2.9 21.1 0 25.9c2.9 4.8 15.4 3.8 19.2-2.9 3.8-6.7 1-25 1-25l23 4.8s-5.8 16.3-3.8 23 19.2 5.8 22.1 0 0-23 0-23l-27.8-21.1-33.7 18.3z"/><path class="st5" d="m324.5 561.1 61.4 2.9s7.7-44.1 3.8-48.9c-3.8-4.8-59.5-5.8-59.5-5.8l-10.6 17.3 4.9 34.5z"/><path class="st1" d="m267.9 597.6 42.2 16.3c4.1-10.7 7.6-21.3 10.4-31.1-7.2-.9-20.1-3.8-33-13.5-5.9 10.3-12.5 20.4-19.6 28.3z"/><path class="st4" d="M311.1 518.9s-9.5 25.7-23.6 50.4c12.9 9.7 25.7 12.7 33 13.5 9.4-33.1 11.7-58.2 11.7-58.2l-21.1-5.7zM310.1 510.2s-12.5-15.4-12.5-24 23-13.4 27.8-7.7c4.8 5.8 6.7 32.6 6.7 32.6l-22-.9z"/><path class="st2" d="M313.9 487.2s5.8 9.6 6.2 32.2c.5 22.6-29.3 84.9-29.3 84.9"/><circle class="st4" cx="320.2" cy="519.4" r="14.9"/><path class="st8" d="m432 596.6-15.4-29.7M441.6 598.5l-14.4-30.7M450.2 598.5l-12.5-29.7M459.8 599.5l-9.6-25.9M468.5 600.5l-7.7-24M476.1 600.5l-6.7-23.1M484.8 598.5l-6.7-20.1M492.4 597.6l-6.7-18.3M501.1 595.7l-6.7-19.2M508.8 592.8l-6.8-19.2M515.5 586.1l-4.8-12.5M521.2 578.4l-2.8-7.7"/><circle class="st1" cx="553.9" cy="383.6" r="14.4"/><circle class="st1" cx="510.7" cy="445" r="14.4"/><circle class="st1" cx="454.1" cy="462.3" r="14.4"/><circle class="st1" cx="386.9" cy="454.6" r="14.4"/><circle class="st1" cx="344.6" cy="415.2" r="14.4"/><path class="st3" d="m504 331.7 37.4 5.8s14.4 79.7-67.2 106.5c-102.7 31.7-124.8-57.6-124.8-57.6l32.6-47 122-7.7z"/><path class="st1" d="M341.8 204.1s-21.1 30.7-22.1 35.5c-1 4.8 2.9 8.6 2.9 8.6l-34.6 24 14.4 41.3s-12.5 9.6-11.5 14.4 7.7 6.7 7.7 6.7l6.7 11.5s-2.9 11.5 1.9 14.4 18.2 0 18.2 0-3.8 15.4-1.9 20.2c1.9 4.8 6.7 9.6 14.4 8.6s67.2-24 67.2-24-8.6 26.9 20.2 33.6 33.6-4.8 33.6-4.8l12.5-35.5-2-104.6-59.5-48-68.1-1.9z"/><circle class="st1" cx="345.1" cy="76" r="14.9"/><circle class="st1" cx="396.5" cy="99.5" r="14.9"/><path class="st2" d="M405.1 365.3s9.6-2.9 11.5-8.6 0-15.4 0-15.4"/><circle class="st0" cx="379.7" cy="307.3" r="15.8"/><circle class="st2" cx="380.2" cy="306.8" r="5.8"/><path class="st5" d="m308.2 293.3 46 2-2.8 16.3-44.2-3.9z"/><path class="st4" d="M346.6 314.5c1 3.8 11.5 4.8 15.4 1.9 3.8-2.9 3.8-17.3 1.9-21.1-1.9-3.8-13.4-4.8-15.4-1.9s-2.9 17.2-1.9 21.1zM532.8 260.7s24-27.8 23-34.6c-1.9-10.6-16.3-15.4-25-12.5-8.6 2.9-20.2 34.6-20.2 34.6l4.8 15.4 17.4-2.9z"/><path class="st0" d="M381.1 262.6c4.8 1.9-40.3-9.6-44.1-7.7-3.8 1.9-6.7 9.6-3.8 16.3 2.9 6.7 21.1 9.6 25.9 7.7s10.6-4.8 15.4-6.7c4.8-1.9 20.2 0 21.1-2.9.9-2.8-19.3-8.6-14.5-6.7zM466.5 137.9s42.2-43.2 49.9-46.1c7.7-2.9 23 1 19.2 21.1 11.5-2.9 25 11.5 14.4 25.9 18.2-1.9 24 18.2 12.5 28.8 9.6 1.9 13.4 19.2 3.8 25-9.6 5.8-61.4 2.9-61.4 2.9l-38.4-57.6z"/><path class="st2" d="m535.6 112.9-40.3 27.8M550 138.8 501.1 159M562.5 167.6l-55.7 9.6M501.1 185.8l53.7-4.8M502 167.6l50.9-14.4M497.2 152.3l40.4-25M480 138.8l42.2-34.5"/><path class="st0" d="M430.1 176.2c-6.7-19.2 4.8-41.3 36.5-44.1 31.7-2.9 41.3 24 43.2 33.6 5.8 29.8-7.7 36.5-7.7 36.5l-40.3 4.8c-.1 0-25-11.6-31.7-30.8z"/><path class="st2" d="M456.9 167.6c-4.8 1-8.6-3.8-4.8-8.6s16.3-1.9 16.3 5.8-5.8 15.4-5.8 15.4"/><path class="st9" d="m493.4 189.7 15.4.9M494.4 182l16.3 1M493.4 175.3l16.3-1M491.5 166.7l18.2-1M489.6 160.9l16.3-4.8M486.7 154.2l12.5-6.7M480 150.3l10.5-10.5M474.2 146.5l9.6-11.5M467.5 143.6l7.7-9.6M459.8 143.6l6.7-11.5M452.1 143.6l1-5.7M445.4 146.5l1-6.7"/><path class="st5" d="m274.6 291.4-47 1.9v18.3l52.7-2.9z"/><path class="st4" d="M217 289.5c-2.9 4.8-1 22.1 0 25.9 1 3.8 15.4 3.8 16.3 0 1-3.8 1.9-21.1 0-25-1.9-3.8-13.4-5.7-16.3-.9z"/><path class="st7" d="M325.4 266.5c-1 4.8-2.9-18.2-2.9-18.2s-50.9 27.8-53.7 39.4c-2.9 11.5 3.8 22.1 11.5 23 7.7 1 9.6-3.8 14.4-1 4.8 2.9 19.2 3.8 21.1-5.8 1.9-9.6-5.8-17.3-17.3-13.4"/><path class="st2" d="M319.7 239.6c-1 4.8 2.9 8.6 2.9 8.6s-50.9 27.8-53.7 39.4c-2.9 11.5 3.8 22.1 11.5 23 7.7 1 9.6-3.8 14.4-1 4.8 2.9 19.2 3.8 21.1-5.8 1.9-9.6-5.8-17.3-17.3-13.4"/><path class="st0" d="M346.6 337.5c-.6-1.7-3.7-3.1-8.3-4l-4.2 12.7c2.3 1.1 4.2 1.9 6.7 1.9 5.8-.1 7.7-4.9 5.8-10.6zM310.7 332.4l1 11.9c2.9-.6 6.2-1.1 10-1.1 1.1 0 2.1.1 3 .2l.6-11.4c-4.9-.2-9.9-.1-14.6.4zM298.6 334.6c-3.8 1.9-1 10.6 1.9 11.5 1.8.6 5.8-.8 11.1-1.8l-1-11.9c-4.4.5-8.6 1.2-12 2.2z"/><path class="st0" d="m325.2 332-.6 11.4c4.2.4 7 1.6 9.5 2.7l4.2-12.7c-3.6-.7-8.2-1.2-13.1-1.4z"/><path class="st2" d="m537.6 227.1-14.4 25"/><path class="st10" d="m404.2 154.6-23.9 62.3c3.2 1 6.2 1.9 9.3 2.9l22.8-61.2c-2.5-1.5-5.3-3-8.2-4zM400.3 153.2c-2.4-.7-4.7-1.1-7-1.4l-23.9 61.7c3.6 1.1 7.3 2.1 10.9 3.3l23.9-62.3c-1.3-.4-2.5-.9-3.9-1.3z"/><path class="st10" d="m384 151.3-24 59.6c3.1.9 6.2 1.7 9.4 2.7l23.9-61.7c-3.3-.5-6.3-.7-9.3-.6zM419.2 163.3l-22.1 59c3.6 1.2 7.2 2.5 10.6 3.7l18.9-56c-2.1-2.2-4.5-4.5-7.4-6.7z"/><path class="st10" d="m412.5 158.6-22.8 61.2c2.6.9 5.1 1.6 7.6 2.5l22.1-59c-2.2-1.7-4.5-3.3-6.9-4.7zM335 184.9l-11.5 16.3s3.6.9 9.7 2.4l8.8-26.9-7 8.2zM426.6 170l-18.9 56c2.3.9 4.5 1.7 6.6 2.6l19.5-50.1c-1.2-1.7-3.7-4.8-7.2-8.5zM360 156.1l-17.9 20.7-8.8 26.9c2.2.6 4.8 1.2 7.7 2l21.2-50.4c-1.4.5-2.2.8-2.2.8z"/><path class="st10" d="m362.1 155.3-21.2 50.4c2.8.8 5.8 1.5 8.9 2.4l22.8-55.7c-4.6.9-8.3 2.2-10.5 2.9zM372.7 152.4l-22.8 55.7c3.3.9 6.6 1.8 10.2 2.8l24-59.6c-4.2.1-8.1.6-11.4 1.1zM487.6 287.3l13.4 2.2c5.1-31.6 8.1-62.4 1.8-83.2l-15.2 81zM471.3 178.4l-30.5 101.3 11.2 1.8 26.4-101.1c-2.4-.8-4.8-1.5-7.1-2zM484.8 183c-2.1-1-4.2-1.8-6.2-2.5l-26.4 101.1 10.7 1.7 24.2-99.1c-.9-.5-1.6-.8-2.3-1.2z"/><path class="st10" d="m487 184.1-24.2 99.1 12.5 2 21.7-91.8c-2.7-3.8-6-7-10-9.3z"/><path class="st10" d="m497 193.4-21.8 91.8 12.5 2 15.3-81c-1.5-4.8-3.5-9.1-6-12.8zM434.9 180.1s-.4-.6-1.1-1.5l-19.5 50.1c3.2 1.3 6 2.6 8.5 3.9l20-54.7c-5 1-7.9 2.2-7.9 2.2zM442.8 177.9l-20 54.7c4 2.1 6.9 4 8.3 5.9l21.2-61.7c-3.5.1-6.8.6-9.5 1.1zM452.4 176.7l-21.2 61.7c.3.4.6.8.8 1.2 5.8 13.4-1 38.4-1 38.4l30-101.3c-3-.2-5.9-.2-8.6 0zM461.1 176.8 431 278l9.8 1.6 30.5-101.3c-3.5-.7-7.1-1.3-10.2-1.5z"/><circle class="st4" cx="521.2" cy="262.6" r="17.3"/><circle class="st3" cx="495.3" cy="234.8" r="19.2"/><path class="st4" d="m339.8 188.7 107.5 35.5 6.8-24.9-99.9-34.6-15.8 2.9z"/><path class="st0" d="M385.6 110.8c-.7-5.6-8.3-10.4-13.3-9.7-.7-5.4-7.4-7.3-11.8-5.8-1.3-4.4-10-7.3-14.8-4.5-1.9-3.7-10.6-4.7-13.4-1.8-.8.8-1.9 5.6-3.3 12 38.5 6 53.5 22.5 57.6 28.2 5-4.7 8.7-8.7 9-10.5.9-5.8-4.9-7.7-10-7.9z"/><path class="st2" d="m342.7 109.1 2.9-18.3M353.3 111l7.1-15.7M365.8 115.8l6.4-14.7M375.4 122.5l10.2-11.7"/><path class="st5" d="M326.4 115.2c-2.5 15.2-4.8 31.3-4.8 31.3l34.6 8.6s10.1-8.1 20.1-16.7c-3.2-5.5-14.5-19.4-49.9-23.2z"/><path class="st4" d="M328.9 101c-.9 4.2-1.7 9.2-2.5 14.2 35.4 3.7 46.6 17.7 49.8 23.2 3.6-3.2 7.2-6.3 10.4-9.3-4.2-5.6-19.1-22.1-57.7-28.1z"/><path class="st11" d="m278.4 121.5-5.7 26.9 17.6 1.9 4.2-23.5z"/><path class="st6" d="m311.1 132.1-16.6-5.3-4.2 23.5 17.9 2z"/><path class="st2" d="m311.1 132.1-32.7-10.6-5.7 26.9 35.5 3.9zM275.5 135.9l36.5 4.8"/><path class="st1" d="M305.3 179.1s26.9 11.5 34.6 9.6c7.7-1.9 13.4-13.4 8.6-20.2s-26.9-14.4-25-26.9c1.9-12.5 10.6-24 7.7-39.4-3.8-18.2-25-18.2-31.7-13.4-6.7 4.8-11.5 15.4-4.8 24s19.2 1.9 19.2 1.9-9.6 22.1-9.6 32.6 5.8 17.3 5.8 17.3-25-8.6-31.7 5.8c-6.7 14.4 5.8 25 18.2 23 12.5-1.8 8.7-14.3 8.7-14.3z"/><path class="st2" d="M290.9 180.1c6.7-8.6 14.4-1 14.4-1M308.2 103.3c5.8-4.8 11.5 6.7 5.8 11.5"/><ellipse class="st3" cx="339.6" cy="151.8" rx="21.1" ry="18.7"/><circle class="st0" cx="339.6" cy="155.6" r="12"/><circle cx="339.6" cy="155.6" r="3.4" style="fill:#fff;stroke:#000;stroke-width:4.7988;stroke-linecap:round;stroke-linejoin:round;stroke-miterlimit:10"/><ellipse class="st3" cx="399.4" cy="193.5" rx="17.3" ry="16.3"/><circle class="st0" cx="352.8" cy="262.1" r="5.3"/><path class="st10" d="m497.9 335.1-20.8 6.3 10.6 31.7 50.9 96s4.9-2.1 11.5-5.2c-18-26.7-63.4-111.9-63.4-111.9s45.4 85.2 63.3 111.9c3.8-1.7 8.2-3.8 12.5-6-56-75.1-67.2-110.8-67.2-110.8s11.2 35.7 67.2 110.8c3.5-1.7 6.8-3.5 9.9-5.2-42.9-52.1-70.1-108.2-74.5-117.6z"/><path class="st10" d="M582.7 445.9c-43.2-46.1-73.9-114.2-73.9-114.2L498 335c4.4 9.4 31.6 65.6 74.6 117.7 4.5-2.5 8.3-4.9 10.1-6.8z"/><path class="st0" d="M468.5 389.3s-10.6 24-1.9 33.6 33.6 7.7 36.5-5.8-7.7-28.8-7.7-28.8l-13.4-4.8-13.5 5.8z"/><path class="st2" d="M476.1 374.9s0 36.5 2.9 39.4 8.6 1 9.6-1.9-6.7-37.4-6.7-37.4"/><path class="st0" d="M456 378.8s-4.8 5.8-5.8 10.6 10.6 6.7 14.4 2.9c1.9 4.8 12.5 2.9 13.4 0 4.8 3.8 16.3 1.9 17.3-3.8 4.8 3.8 11.5-1 11.5-4.8s-11.5-15.4-11.5-15.4L456 378.8z"/><path class="st2" d="m464.6 392.2 1-17.3M478.1 392.2v-16.3M495.3 388.4l-7.7-15.4"/><ellipse class="st3" cx="471.3" cy="320.2" rx="41.3" ry="38.4"/><path class="st3" d="M462.7 313.5c-2.9 4.8 2.9 48 2.9 48h22.1s-3.8-46.1-5.8-48.9-16.3-3.9-19.2.9z"/><path class="st4" d="M456 378.8c2.9 4.8 42.2-1.9 43.2-6.7 1-4.8-2.9-14.4-5.8-17.3s-33.6 0-36.5 3.8c-2.8 3.8-3.8 15.4-.9 20.2z"/><path class="st1" d="m397 713.2-36.5 2.9s-86.4 31.7-91.2 34.6c-4 2.4-6 6.8-6 12.1 6.7-1.1 16.7-1.6 20.3 3.3 9.6-3.8 18.2 2.9 18.2 2.9s9.6-6.7 19.2 1.9c4.8-11.5 25-4.8 25-4.8h24l27.8 1 8.6-27.8-9.4-26.1z"/><path class="st5" d="M425.7 720.9c3.8 5.8 3.8 37.4 3.8 37.4l-49.9 1.9 1.9-44.6 11.5-6.2c.1 0 28.9 5.8 32.7 11.5z"/><path class="st5" d="M379.7 720s42.2 6.7 46.1 1 1.9-16.3-1-20.2-45.1-1.9-45.1-1.9V720z"/><path class="st5" d="M381.6 696.9c1.9 4.8-1.9 33.6-4.8 41.3-2.9 7.7-30.7 6.7-31.7-3.8-1-10.6 3.8-34.6 9.6-39.4 5.8-4.8 25-2.9 26.9 1.9z"/><path class="st2" d="M381.6 696.9c-21.1 1.9-21.1 36.5-21.1 36.5"/><path class="st5" d="M361.4 771.8s8.6-12 14.4-12.5c5.8-.5 53.7-1 53.7-1l1 14.4-69.1-.9zM236.2 739.6l-5.8-25.9 57.6-9.6 3.9 19.2-32.7 14.4z"/><path class="st0" d="M219.9 710.8s-23-2.9-31.7 2.9c-8.6 5.8-8.6 25.9 2.9 30.7 11.5 4.8 24 1.9 24 1.9l21.1-6.7-16.3-28.8z"/><path class="st2" d="M223.7 720.4s-26.3 1.6-25.9 7.7c.5 8.6 27.8 1 27.8 1l-1.9-8.7z"/><path class="st4" d="M224.7 743.5s-7.7-27.8-4.8-32.6 14.4-6.7 17.3-1 1 17.3 4.8 25.9c-4.8 7.7-17.3 7.7-17.3 7.7z"/><path class="st0" d="M224.7 770.3s-8.6-6.7-18.2-2.9c-3.6-4.9-13.7-4.3-20.3-3.3 0 1.1.1 2.1.2 3.3 1 6.7 6.7 11.5 15.4 6.7 1 3.8 14.4 4.8 21.1 0 1 5.8 17.3 1.9 21.1-1.9-9.7-8.6-19.3-1.9-19.3-1.9z"/><path class="st1" d="m319.7 714.7-36.5 2.9s-86.4 31.7-91.2 34.6c-4 2.4-6 6.8-6 12.1 6.7-1.1 16.7-1.6 20.3 3.3 9.6-3.8 18.2 2.9 18.2 2.9s9.6-6.7 19.2 1.9c4.8-11.5 25-4.8 25-4.8h24l27.8 1 8.6-27.8-9.4-26.1z"/><path class="st0" d="M243.9 772.3c1 5.8 13.4 4.8 18.2 2.9 4.8-1.9 6.7-7.7 6.7-7.7s-20.1-6.8-24.9 4.8z"/><path class="st5" d="M348.5 722.4c3.8 5.8 3.8 37.4 3.8 37.4l-45.1 1.9 2.9-32.6 5.8-18.2c0-.1 28.7 5.7 32.6 11.5z"/><path class="st5" d="M308.2 721.4s36.5 6.7 40.3 1c3.8-5.8 1.9-16.3-1-20.2s-39.4-1.9-39.4-1.9v21.1z"/><path class="st5" d="M313.9 698.4c1.9 4.8-1.9 33.6-4.8 41.3-2.9 7.7-30.7 6.7-31.7-3.8-1-10.6 3.8-34.6 9.6-39.4 5.8-4.9 25-2.9 26.9 1.9z"/><path class="st2" d="M313.9 698.4c-21.1 1.9-21.1 36.5-21.1 36.5"/><path class="st5" d="M284.2 773.2s8.6-12 14.4-12.5c5.8-.5 53.7-1 53.7-1l1 14.4-69.1-.9z"/><path class="st2" d="M243.9 772.3c2.9-4.8 15.4-19.2 15.4-19.2M268.8 767.5c2.9-4.8 10.6-14.4 10.6-14.4M222.8 774.2c0-8.6 18.2-22.1 22.1-22.1M201.6 774.2c1.9-9.6 17.3-18.2 24-23"/><path class="st0" d="M403.2 850h72.9s-2.2-37.4-4-80.6h-59.7c-3.2 36.3-6.4 67.5-9.2 80.6z"/><path class="st4" d="M470.4 649.4c3.8-37.4-45.1-57.6-45.1-57.6s-4.8 77.5-10.6 148.8h56.1c-1.3-38.2-2.1-75.5-.4-91.2z"/><path class="st0" d="M470.9 740.6h-56.1c-.5 5.5-.9 10.9-1.3 16.3h58.2c-.4-5.4-.6-10.8-.8-16.3zM413.5 756.9c-.4 4.2-.7 8.3-1.1 12.5h59.7c-.2-4.1-.4-8.3-.5-12.5h-58.1z"/><path class="st2" d="M449.3 849v-51.8M461.7 848.1l-.9-50.9M436.8 850l1.9-53.7M424.3 850l3.8-53.7M413.7 849l5.8-52.7"/><path class="st0" d="M702.6 653.2c19.2-26.9 22.1-50.9 22.1-50.9s-48-6.7-57.6-14.4c-9.6-7.7-40.3-28.8-40.3-28.8l-15.4 4.8s5.8 36.5 12.5 41.3c6.8 4.9 56.7 32.7 78.7 48z"/><path class="st2" d="m652.7 608.1 59.5 27.9M657.5 599.5l60.5 18.2"/><path class="st0" d="M528.9 612.9c20.3-18.1 21.4-37.8 20.7-46.5-3.9.3-7.9.6-11.8 1 1.1 9.1-.1 26.3-19.6 39.7-20.8 14.3-66.7 9.4-88.7 6 2.3 4 4.7 8.1 7.5 12 22.8 2.8 71.6 6 91.9-12.2z"/><path class="st0" d="M518.4 607.2c19.5-13.4 20.6-30.6 19.6-39.7-20.1 1.8-37.8 4.7-43.6 9-18.2 4.8-33.6 1-42.2-2.9-8.6-3.8-32.6-10.6-48.9-8.6 9.5 9.5 15.7 29 26.5 48.2 21.9 3.4 67.7 8.4 88.6-6z"/><path class="st0" d="M611.5 564s-17 .2-38.1 1.2c.1 13.1-2.3 44.5-26.2 63.2-21.7 16.9-65.8 18.5-89.9 18 17.6 13.3 42.7 20.7 81.3 16.5 104.5-11.6 72.9-98.9 72.9-98.9z"/><path class="st0" d="M547.2 628.3c23.9-18.7 26.3-50.1 26.2-63.2-7.6.4-15.6.8-23.6 1.3.7 8.6-.5 28.3-20.7 46.5-20.3 18.1-69.1 14.9-91.8 12.2 5.4 7.8 11.9 15.1 20.1 21.2 23.9.6 68.1-1 89.8-18z"/><path class="st3" d="m663.3 495.8 1.9 31.7s-25-1.9-25.9 14.4c-1 16.3 29.8 14.4 29.8 14.4l2.9 32.6s-70.1 4.8-67.2-48.9c1.9-44.2 58.5-44.2 58.5-44.2z"/><path class="st2" d="M656.6 479.5s34.6 22.1 36.5 27.8c1.9 5.8-1.9 9.6-5.8 15.4 11.5 8.6 25.9 3.8 30.7-7.7 4.8-11.5-13.4-25.9-13.4-25.9s25.9 19.2 32.6 19.2 15.4-17.3 9.6-22.1-37.4-11.5-37.4-11.5 31.7 9.6 32.6-16.3c1-14.4-12.5-16.3-17.3-16.3-2.9 4.8-1 14.4-9.6 14.4s-44.1-1.9-44.1-1.9l-14.4 24.9z"/><path class="st0" d="M638.3 477.6c2.9-1 9.6 18.2 14.4 18.2s10.6-3.8 9.6-10.6c7.7-1.9 7.7-11.5 7.7-11.5s6.7-3.8 3.8-14.4c3.8-1.9 3.8-11.5 1-14.4-2.9-2.9-22.1 0-22.1 0l-14.4 32.7z"/><path class="st2" d="m662.3 485.3-13.4-10.6M670 473.8l-18.2-8.7M674.8 457.9l-17.3-4.3"/><path class="st4" d="M623 473.8c0 5.8 11.5 11.5 18.2 7.7 6.7-3.8 20.2-27.8 16.3-37.4-3.8-9.6-12.5-6.7-18.2-4.8-5.8 1.8-16.3 28.7-16.3 34.5z"/><circle class="st5" cx="610.3" cy="450.5" r="22.6"/><circle class="st2" cx="610.3" cy="450.5" r="8.6"/><path class="st11" d="M471.2 756.8c.5 10.4 1.1 17.5 1.1 17.5l205.4-4.8s-.4-7.2-1.3-17.8l-205.2 5.1z"/><path class="st2" d="m484.4 771.4-12.1-19.3M494.9 771.3l-12.1-19.2M506 772.1l-12.6-20M517 771.3l-12.1-19.2M527.5 769.7l-11.1-17.6M539.5 770.4 528 752.1M551 770.4l-11.5-18.3M564 771.3l-12-19.2M575.9 770.5l-11.5-18.4M587.8 770.9l-11.9-18.8M597.5 769.7l-11-17.6M609 769.5l-11-17.4M621.2 769.2l-10.7-17.1M633.5 768.9 623 752.1M645.9 768.7l-10.4-16.6M658.3 768.6l-10.4-16.5M670.1 767.5l-9.7-15.4"/><path class="st7" d="M660.4 672.4C647.9 659 622 660 577.9 660s-80.6 1.9-96.9 12.5c-11.8 7.6-11 57.3-9.7 84.3l205.2-5.1c-2.3-25.3-7.3-69.8-16.1-79.3z"/><path class="st2" d="m472.3 774.2 205.4-4.8s-4.8-83.5-17.3-96.9C647.9 659 622 660 577.9 660s-80.6 1.9-96.9 12.5c-16.4 10.5-8.7 101.7-8.7 101.7z"/><circle class="st13" cx="513.1" cy="683.5" r="5.3"/><circle class="st13" cx="493.4" cy="725.2" r="5.3"/><circle class="st13" cx="542.4" cy="725.2" r="5.3"/><circle class="st13" cx="563.5" cy="683" r="5.3"/><circle class="st13" cx="613.4" cy="679.2" r="5.3"/><circle class="st13" cx="594.2" cy="725.2" r="5.3"/><circle class="st13" cx="646" cy="725.2" r="5.3"/></svg>