<svg version="1.1" id="Calque_1" xmlns="http://www.w3.org/2000/svg" x="0" y="0" viewBox="0 0 900 900" style="enable-background:new 0 0 900 900" xml:space="preserve"><style>.st0,.st1,.st2,.st3,.st4,.st5{fill:#fff;stroke:#000;stroke-width:4.6349;stroke-linecap:round;stroke-linejoin:round;stroke-miterlimit:10}.st1,.st2,.st3,.st4,.st5{fill:none}.st2,.st3,.st4,.st5{fill:#5e9900}.st3,.st4,.st5{fill:red}.st4,.st5{fill:#0067d8}.st5{fill:#ffce00}.st6{fill:#fff}.st7{fill:#0067d8}.st8{fill:#5e9900}.st9{fill:#324c00}</style><circle class="st0" cx="412.5" cy="821" r="12.5"/><circle class="st1" cx="412.5" cy="821" r="4.5"/><circle class="st0" cx="480.3" cy="820.1" r="13.9"/><circle class="st1" cx="480.3" cy="820.1" r="5"/><path class="st0" d="M735.4 716.5c-18.8-.7-21.6 33.1-1.4 35.2 20.2 2.1 32-13.7 48.7 5.1-8.4-29.2-28.5-39.6-47.3-40.3z"/><path class="st1" d="M722.9 741.5c20.2 2.1 49.4-7 59.8 15.3M732.6 721.4c7.6 7.6 1.4 13.2 1.4 13.2M741 722.8c6.3 2.8 4.2 11.8 4.2 11.8M752.1 725.6c3.5 4.2 1.4 10.4 1.4 10.4"/><path class="st0" d="M671.5 783.3c-.7-10.4 14.6-20.9 27.1-13.9s6.3 29.2 20.9 46.6c-32.8 4.8-47.4-22.3-48-32.7z"/><path class="st1" d="M719.4 815.9c-34.8-10.4-43.1-30.6-43.8-41M698.6 775.6c-.7 9-8.3 10.4-8.3 10.4"/><path class="st1" d="M692.8 793.7c7.6-.7 9.3-9 9.3-9M700.7 800.9c5.6 0 7.6-5.8 7.6-5.8"/><path class="st0" d="M598.5 805.5c-2.1-13.9 11.8-25.7 24.3-20.9 12.5 4.9 18.1 27.8 20.9 53.5-8.4-12.4-39.7-6.2-45.2-32.6z"/><path class="st1" d="M643.6 838.2c-8.3-12.5-35.5-16-40.3-50.1"/><path class="st1" d="M614.4 804.8c4.9-4.9 6.3-15.3 6.3-15.3M621.4 810.4c7-7 6.3-14.6 6.3-14.6M627.7 817.3c4.9-3.5 4.9-11.8 4.9-11.8"/><path class="st0" d="M523.6 804.8c-1.4-14.6 19.9-23.6 33.1-16s16.7 46.6 14.6 54.9c-2-13.2-46.5-15.9-47.7-38.9z"/><path class="st1" d="M571.4 843.7c-4.2-16-43.1-34.1-39.6-54.2M545.7 806.2c7.6-2.8 8.3-10.4 8.3-10.4"/><path class="st1" d="M549.1 817.3c5.6-1.4 11.1-11.1 11.1-11.1M558.2 825c4.9-3.5 7-10.4 7-10.4"/><path class="st0" d="M363.5 797.2s-14.6-5.6-21.6 8.3 0 31.3-11.8 44.5c7-.7 31.7-16 38-27.8s3-20.2 3-20.2l-7.6-4.8z"/><path class="st1" d="M366.3 799.2c-22.2 7-21.6 40.3-36.2 50.8M361.4 808.3c1.4 4.9 9 5.6 9 5.6"/><path class="st1" d="M355.2 815.9c2.8 7.6 10.4 6.3 10.4 6.3M351.7 823.6c1.4 6.3 8.3 5.6 8.3 5.6"/><path class="st0" d="M305.8 797.2s-16.5 2.8-25.5 15.3-14.1 18.1-23.9 20.2c8.3 11.8 32 15.3 44.5 4.2s18.8-30.6 18.8-30.6l-13.9-9.1z"/><path class="st1" d="M305.8 797.2s-7.6 9.7-16.7 22.2-22.2 17.4-32.7 13.2M302.3 811.8c4.2 7.6 11.1 5.6 11.1 5.6M296.1 821.5c1.4 8.3 10.4 8.3 10.4 8.3M288.9 829.6c-.7 9.7 7.2 8.6 7.2 8.6"/><path class="st0" d="M237 790.9s-11.8-8.3-22.2-4.9-32 36.2-48.7 47.5c4.9 2.5 37.3 10.9 56.1-2.3 18.8-13.2 19.7-34.8 19.7-34.8l-4.9-5.5z"/><path class="st1" d="M239.1 794.4c-26.4-2.1-57.7 36.2-73 39.2M224.5 804.1c2.1 9 13.2 7.6 13.2 7.6M216.1 810.4c1.4 10.4 10.4 7.6 10.4 7.6M207.8 815.2c2.1 14.6 13.2 9.7 13.2 9.7"/><path class="st0" d="M158.2 729c23.9 3.5 33.6 13.4 42.6 21.1 9 7.6 29.2 2.5 29.2 2.5l4.2-18.1s-8.3-13.2-31.3-18.1-40.8 8.5-44.7 12.6z"/><path class="st1" d="M158.2 729c45.4-6.3 63.5 7 72.5 14.6"/><path class="st1" d="M209.9 738.8c-4.2 5.6 0 13.9 0 13.9M200.1 736c-2.8 4.2.7 14.1.7 14.1M192.7 733c-3.5 2.8-.9 9.3-.9 9.3"/><path class="st2" d="M575.5 97.1c-.7-26.4 7-38.9 7-41.7 0-2.8-6.3-5.6-9-1.4-3.5-4.9-11.8-6.3-15.3 1.4-4.2-7-12.5-7-16 2.1-3.5-7.6-13.2-4.9-14.6 3.5-4.2-7-12.5-8.3-15.3 3.5-2.1-6.3-9.7-5.6-9.7-5.6l-6.3 17.4 5.6 38.9 16.7 22.2 37.5-5.6c0 .1 20.1-8.3 19.4-34.7z"/><path class="st1" d="M568.3 73.6c0-2.8 3.7-13.9 5.1-19.7M555.3 75.5s1.4-14.4 2.8-20.1M540.5 78.7s.2-15.5 1.7-21.3M526.6 79.7s-.5-13 1-18.7M514.1 81.1s0-9.3-1.8-16.6"/><path class="st2" d="M535.9 152.7c10.4 9.7 45.9 2.8 46.6-10.4s-1.4-45.2-4.2-47.3c-5.6-4.2-9.7-1.4-10.4 2.1-6.3-7-11.8-1.4-13.9 1.4-2.8-2.8-10.9-2.8-12.3 1.4-2.1-4.9-10.2-4.2-11.6 5.6-4.2-1.4-8.1 0-8.8 5.6-.7 5.5 4.2 31.9 14.6 41.6z"/><path class="st1" d="M571.1 114.4c-1.9-2.3-4.2-15.3-3.2-17.3M559.5 118.1c-1.9-2.3-6.5-17.6-5.5-19.7M543.8 117.2c-1.9-2.3-3.2-10.2-2-17.3M538.7 125.1c-1.9-2.3-9.7-12.5-8.5-19.7"/><path class="st2" d="M403.1 99.9c-1.4-16 0-34.8-2.1-38.9-2.1-4.2-8.3-2.1-14.6 2.8-4.2-10.4-13.9-10.4-20.2.7-6.3-12.5-15.3-11.8-18.1 3.5-9-7-18.1-4.9-19.5 7-7-5.6-14.6-4.9-14.6 2.8s8.8 38.2 21.1 48c12.3 9.7 31.7 11.1 31.7 11.1L405 123c.2-.2-.5-7.1-1.9-23.1z"/><path class="st1" d="M386.2 82c-.5-2.3.3-18.3.3-18.3M366.7 83.8c-.5-2.3-.4-19.4-.4-19.4M351.4 87.1c-.5-2.3-3.2-19.2-3.2-19.2M337 90.3c-.5-2.3-8.3-15.5-8.3-15.5"/><path class="st2" d="M355.9 164.5c8.3 4.9 49.6-7.6 51-21.6 1.4-13.9-2.3-19.5-6.5-26.4s-12.5-7.6-16-2.8c-4.9-5.6-10.2-7-15.1-1.4-9.7-4.2-12.1 0-12.7 5.6-4.2-4.9-9.7-.7-9.7 3.5-3.5-1.4-10.9-2.1-11.6 4.2-.8 6.3 12.2 34.1 20.6 38.9z"/><path class="st1" d="M351.4 134.8c-3.9-5.1-4.6-9.3-4.7-13.6M360.2 131.6c-2.8-4.6-3.6-9.3-3.7-13.6M372.7 127c-2.8-4.6-3.3-10.2-3.4-14.6M384.8 124.6s-.3-6.5-.4-10.8"/><path class="st2" d="M310.7 145.8s-25-50.1-31.3-50.8-8.3 4.9-8.3 4.9-9.7-5.6-12.5 7c-11.1-2.1-11.1 7.6-11.1 7.6s-10.4-2.8-11.1 6.3c-10.4-1.4-10.4 7.6-10.4 7.6s-7.6.7-6.3 7.6c1.4 7 45.2 61.9 45.2 61.9l35.5 5.6 10.3-57.7z"/><path class="st1" d="M258.5 106.8c5.6 7 14.6 16.7 14.6 16.7M247.4 114.5c.7 11.8 14.6 16.7 14.6 16.7M236.3 120.7c.7 11.8 18.1 16 18.1 16M225.9 128.4c-.7 7 9 12.5 9 12.5M271 99.9c-.7 9.7 10.4 18.1 10.4 18.1"/><path class="st2" d="M314.1 140.2c4.2 1.4 17.4 27.1 22.2 39.6 4.9 12.5-18.1 31.3-18.1 31.3s-41.7-27.1-41-37.5 9-9.7 9-9.7.7-10.4 9-9.7c1.4-10.4 10.4-9 10.4-9s4.4-6.4 8.5-5z"/><path class="st1" d="M305.8 145.1s0 6.3 4.9 11.8M295.4 154.1s.7 4.9 5.6 10.4M286.3 163.8s3.5 4.9 8.3 10.4"/><path class="st2" d="M199.4 291.1s-29.2.7-36.8-.7c-7.6-1.4-12.5-7.6-13.9-11.8s1.4-6.3 5.6-4.9c-2.8-7.6-2.8-14.6 6.3-13.2-4.2-7-3.5-16.7 7-13.9-2.8-7-7-16.7 2.8-17.4-2.1-7-1.4-15.3 8.3-13.9 0-4.9.7-7.6 6.3-6.3 9 1.4 22.2 22.9 29.2 26.4s19.9 3.2 19.9 3.2l5.8 23.2-21.6 32.7-18.9-3.4z"/><path class="st1" d="M160.5 260.5c6.3 7 13.2 11.1 20.9 9M154.2 273.7c2.8 4.2 13.2 6.3 13.2 6.3M167.4 246.6c4.9 4.9 11.1 11.8 16.7 12.5M188.3 246.6c-2.8-7-12.5-13.9-18.1-17.4M193.2 228.5c-2.1-7-7-9.7-14.6-13.2"/><path class="st2" d="M230 307.3c11.1.7 26.4-39.2 23.6-48.2-2.8-9-14.8-19.7-19.7-20.4-4.9-.7-9.5 3.7-5.3 10.7-6.3-.7-12.5 0-9 11.1-7-.7-10.4 3.5-8.3 10.4-4.2-.7-11.1 4.9-7 11.8-4.2-.7-9.7 9-4.2 11.8s18.8 12.1 29.9 12.8z"/><path class="st1" d="M234.9 260.5c-2.1-4.2-3.5-9-6.3-11.1M227.2 268.8c-2.1-4.2-4.9-6.3-7.6-8.3M218.9 280.6c-2.1-4.2-4.9-7.6-7.6-9.7M214 290.4c-2.1-4.2-7-5.6-9.7-7.6"/><path class="st2" d="M175.8 492.7s-18.8 3.5-31.3 4.2-20.2 0-24.3-4.9c-4.2-4.9 3.2-9.3 7.9-10.2-10-5.8-11.4-10.7.5-14.8-6.3-5.6-5.6-12.5 2.8-15.3-5.6-4.9-4.2-10.4 2.1-12.5-.7-4.2-2.1-9 3.5-9.7 0-4.2-1.4-8.3 5.6-8.3s9.7 3.2 23.6 8.8 18.1 3.7 25 6.5c7 2.8 6.3 22.9 6.3 22.9l-21.7 33.3z"/><path class="st1" d="M152.6 431s-10.1-3.2-15.7-1.6M148.4 444.4s-9.4-6.9-15-5.3M147 453.7s-10.1-3.6-15.7-2M142.4 469.5s-8.2-4.1-13.9-2.5M141.9 482.5s-8.2-2.2-13.9-.6"/><path class="st2" d="M183.4 436.4c7.6-.7 31.3.7 35.5 8.3s-1.4 38-7.6 44.3c-6.3 6.3-35.5 10-39.6 5.8-4.2-4.2-2.8-9 0-11.8-4.2-2.1-4.2-6.5 0-8.1-3.5-6.5-1.4-12.1 2.1-13.4-2.8-5.6-3.5-12.5 4.2-14.6-3.6-5-2.2-9.8 5.4-10.5z"/><path class="st1" d="M177.9 446.8c4.8.4 9.5 0 13.2.9M173.7 461.4c4.8.4 11.8.2 15.5 1.1M171.6 474.8c4.8.4 7.8-.3 11.5.6M171.6 483c4.8.4 8.3.9 12 1.8"/><path class="st2" d="M717.3 517.7c11.1-8.3 39.6-15.3 43.8-13.2 4.2 2.1 2.8 7.6 1.4 11.8 9 2.1 5.6 11.8-.7 12.5 4.2 3.5 4.2 9.7 1.4 12.5 4.9 6.3-1.4 11.8-8.3 13.2 5.6 6.3 5.6 14.6-7 16 4.9 4.2 4.2 9.7-4.2 11.1-8.3 1.4-35.5-14.6-35.5-14.6s-2-40.9 9.1-49.3z"/><path class="st1" d="m747.9 570.6-8.5-1.9M754.9 554.6l-8.1-1.2M763.2 541.4l-12.3-.1M761.8 528.8l-13.2-1.4M762.5 516.3l-20.8 1.8"/><path class="st2" d="M686.1 508c-13.1 2.1-25.7 31.3-20.9 40.3 4.9 9 36.2 24.3 41 21.6s7-6.3 7-6.3 8.3-2.8 8.3-12.5c6.3-6.3 4.2-13.2 4.2-13.2s4.2-8.3 0-13.2c.7-7.6-.7-6.3-2.8-9-2.1-2.8-12.5-.9-19.5-3-6.9-2.2-10.4-5.4-17.3-4.7z"/><path class="st1" d="m707.8 523.7 17.9 1M704.1 533l21.6 4.9M704.1 545.5l17.4 5.6M701.8 556.1l11.4 7.5"/><path class="st2" d="M709 435s52.8-26.4 57.7-25c4.9 1.4 2.1 12.5 2.1 12.5s5.6 2.8 4.9 12.5c4.9 4.2 2.1 13.2 2.1 13.2s6.3 7.6 1.4 14.6c4.2 4.2-2.1 11.8-2.1 11.8s2.1 6.3-4.9 9.7-50.8 2.8-50.8 2.8L709 435z"/><path class="st1" d="M746.3 430.5c4.9 1.4 22.5-8.1 22.5-8.1M751.9 440.3c7.4-.9 20.9-5.6 20.9-5.6M752.3 454.2c7.4-.9 23.5-6 23.5-6M754.6 465.8c7.4-.9 22.5-3 22.5-3M751.4 477.8c7.4-.9 23.7-3.2 23.7-3.2"/><path class="st2" d="M674.9 444.7c-11.1 10.4 2.1 47.3 14.6 51.4 12.5 4.2 29.9-1.4 33.4-9s0-13.2 0-13.2 4.9-6.3 1.4-13.2c2.8-9.7-2.8-12.5-2.8-12.5s2.8-5.6-4.2-9c1.4-5.6-2.1-9-7.6-9.7-5.6-.8-23.6 4.8-34.8 15.2z"/><path class="st1" d="M709.2 478.3s11.2-6.4 13.7-4.4M709.7 463.9s7.4-5.6 14.4-4.2M703.7 454.2s10.9-7.4 17.9-6M700.4 443.1s10-5.3 17-3.9"/><path class="st2" d="M723.6 384.2c36.2 8.3 41 20.9 46.6 18.8 5.6-2.1 3.5-6.3-2.1-9.7 11.8.7 13.9-7 7-12.5 7.6-2.1 5.6-9.7 5.6-9.7s7.6-2.1 2.1-11.8c7.6-7.6 0-13.2 0-13.2s3.7-7-2.5-12.5c-6.3-5.6-17.6-2.1-24.6-.7-7 1.4-19.5-1.4-19.5-1.4l-16 33.4c-.1-.1-7 13.8 3.4 19.3z"/><path class="st1" d="M782.7 359.2c-10.9-9.3-19.3-12.6-19.3-12.6M782.7 346c-10.9-9.3-18.4-6.8-18.4-6.8M755.6 389.3c5.6-2.1 9.7 2.3 12.6 4M754.6 374.9c5.6-2.1 17.6 4.2 20.4 5.8M754.2 357.3c5.6-2.1 23.6 12.1 26.5 13.7"/><path class="st2" d="M736.1 331.4c-4.9-.7-30.6-9.7-39.6-7-9 2.8-10.4 37.5-6.3 46.6 4.2 9 31.3 18.1 36.8 16 5.5-2.1 3.5-7 3.5-7s5.6-2.1 3.5-7.6c9-4.9 6.3-12.5 6.3-12.5s5.6-9.7 0-15.3c4.2-5.6.7-12.5-4.2-13.2z"/><path class="st1" d="m730.5 380.1-12.9-.1M740.3 344.6c-9.8-4.4-12.8-2.4-17.7-3.1M740.3 359.9c-9.8-4.4-17.9-2.8-22.8-3.5M734 372.4c-4.9-1.2-14-.5-18.8-1.2"/><path class="st2" d="M733.3 327.2c11.1-2.8 45.9.7 49.4-2.1s4.2-5.6.7-8.3c7-2.1 9-8.3 2.1-14.6 8.3-4.2 2.8-11.1 0-14.6 7-3.5 5.6-10.4.7-13.2 4.9-10.4-2.8-11.8-10.4-11.8 8.3-5.6 7-11.8-.7-13.2-7.6-1.4-16 7.6-25.7 9.7-9.7 2.1-24.3 2.1-29.9 9.7-5.6 7.7 4.8 53.6 13.8 58.4z"/><path class="st1" d="M757.9 314.7c2.8 1.9 13.4 1.9 25.5 2.1M758.8 300.3c5.1 1.4 14.6 1.6 26.7 1.9M757.9 288.7s13 1.4 27.6-1.1M757 280.4s12.5-.5 29.2-6M755.1 268.8s3.9-.7 20.7-6.2"/><path class="st2" d="M692.1 274.2c-9.7 6.3-3 41.7 10.2 48.7s29 12.1 33.8 8.6 2.8-7-3.5-11.8c9-1.4 10.4-7.6 2.1-13.2 7-7 3.5-10.4-2.8-14.6 9-4.2 5.6-13.4-2.8-12.7 6.3-7 .7-10.2-4.2-11.6-4.8-1.6-23.1.3-32.8 6.6z"/><path class="st1" d="M717.1 320.2s9.3.6 15.6-.6M723.1 307.7s5.4-.1 11.6-1.3M719.9 292.4s5.8.6 12.1-.6M715.7 281.8s7.2-1.5 13.5-2.7"/><path class="st2" d="M715.3 196.5s36.8-32 41-30.6 6.3 3.5 7 10.4c6.3 1.4 9 6.3 7 12.5 4.9 3.5 9 11.1 0 16 7 4.9 9.7 7.6 6.3 13.9 5.6 2.1 8.3 5.6 4.2 10.4 7 .7 6.3 7 3.5 10.4 4.9 1.4 4.2 5.6 1.4 7-2.8 1.4-38.9-.9-52.1 3.7S710 213.1 710 213.1l5.3-16.6z"/><path class="st1" d="M763.2 176.4c-4.9.6-19.7 10.8-22.1 14.1M770.2 188.9s-13.3 8.5-19.3 12.2M770.2 204.9s-13.3 1.3-19.3 5.1M776.4 218.8s-9.3-1-19 2.3M780.6 229.2s-7-.7-19 .6M784.1 239.6s-7.2-1.9-19.3-.5"/><path class="st2" d="M674.9 207.6c-11.8 12.5-1.9 47.3 20.4 49.4 22.3 2.1 35.2-2.5 38-6.7s.7-10 .7-10 2.8-6.3-5.6-13.9c6.3-10.4-6.3-12.5-6.3-12.5s10.4-11.1-1.4-12.5c2.8-5.6 4.2-7.6 0-10.4-4.1-2.8-34 4.1-45.8 16.6z"/><path class="st1" d="m706.4 208.1 14.4-6.7M712.5 245.2c7-2.1 21.6-4.9 21.6-4.9M708.8 231.2c8.3-1.9 19.7-4.8 19.7-4.8M706 219.6c8.3-1.9 16.3-5.7 16.3-5.7"/><path class="st2" d="M629 124.9c-2.1-19.5 9-51.9 13.9-53.8s10.2.9 12.3 6.5c7.2-6.3 17.6-12.5 22.5 4.2 7.6-2.8 16.7 0 17.4 16 7.6-3.5 19.5-.7 18.8 11.1 7-1.4 15.3.5 13.2 8.8s-29.2 26.7-39.6 38.5-52.8-3.5-52.8-3.5-3.6-8.3-5.7-27.8z"/><path class="st1" d="M677.7 81.8c-.5 6.7-4.2 16.9-8.4 27.5M695.1 97.8c-1.2 1.8-6.8 13.9-10 20.3M713.9 108.9c-1.9 6.4-7.9 15.7-10.7 18.5M655.2 77.6c-.7 7.1-2.6 17.8-5.8 24.8"/><path class="st2" d="M617.7 126.5c-6 8.8-8.8 35.2-2.5 45.7 6.3 10.4 40.3 19.5 52.1 12.5 11.8-7 22.9-22.9 22.9-32.7 0-9.7-9-11.1-14.6-5.6 1.4-9.7-1.4-14.6-11.1-9.7-2.1-11.1-9.7-10.4-16-7-2.1-6.3-9-7-11.1-3.5-4.2-7.5-13.7-8.5-19.7.3z"/><path class="st1" d="m630.4 140.2 7-13.9M639.5 143.7l9-13.9M655.5 148.6l9.7-14M667.3 154.8l9-10.4"/><path class="st2" d="M193.2 326.5c-1.7-1.3-7.8-3.2-20.6-4.7s-19.7-7.1-23.2-6.4c-7 1.4-9.7 7.6-4.2 13.2-7 2.8-9 9-2.8 16.7-5.6 4.9-7 9.7-.7 15.3-7 2.1-12.5 7-.7 16-4.9 2.8-7 11.8-.7 16.7 4.9-1.4 6.3-9 18.8-8.3s32-1.4 35.5-4.2c3.4-2.8 2.1-51.7-1.4-54.3z"/><path class="st1" d="M165.4 334.9c-4.9-2.8-14.6-5.6-20.3-6.3M160.5 346c-4.9-2.8-14.6-4.9-18.1-.7M158.4 361.3c-5.6 0-14.6-2.1-16.7-.7M161.9 373.1c-5.6 0-16-1.4-20.9 3.5"/><path class="st2" d="M220.3 325.8c9 5.6 7.6 41.7 2.1 48.7s-19.5 7-27.8 6.3-15.3-9-9-12.5c-6.3-1.4-11.1-10.4-4.2-13.9-4.2-6.3-.7-11.8 3.5-13.2-2.8-4.9-2.1-6.3 3.5-7.6-.7-2.8-2.1-6.7 1.4-9.5s21.5-3.8 30.5 1.7z"/><path class="st1" d="M198 368.2h-12.5M194.6 354.3h-13.2M196.7 341.1h-11.9M199.4 334.2l-11.1-.7"/><path class="st3" d="M588.7 259.1c31.3-38.9 34.8-73 36.2-81.3 1.4-8.3 16-13.7 20.9-6s-9 60.3-15.3 73.5c7.6-2.1 45.2-13.9 51.4-13.2 6.3.7 8.3 11.1 2.1 14.6s-44.5 12.5-48 13.2-4.2 7-4.2 7l-18.1 21.6-32.7-1.4c.1-.2-23.5 10.9 7.7-28zM387.8 140.2c2.8 2.8 6.3 73.7 7 79.3.7 5.6 4.9 7 4.9 7l23.6 11.1 20.9 28.5-34.8 27.1-13.9-13.9-55.6-13.9s-13.2-55.6-18.8-64.7c-5.6-9 4.9-18.1 9-11.8 4.2 6.3 29.9 30.6 35.5 32s9-.7 9-7-4.2-65.4-2.8-70.2 13.3-6.3 16-3.5zM245.5 274.6c4.6.5 88.8 77.6 105.4 86.7 16.7 9 8.3 50.8-2.1 43.1-10.4-7.6-109.8-116.8-111.9-123.1-2-6.2 4-7.1 8.6-6.7zM263.4 339s-37.5 4.2-43.1 7-6.3 12.5 2.1 13.9c8.4 1.4 38.9-3.5 38.9-3.5l2.1-17.4zM244.6 459.3s-27.1-1.4-33.4 1.4-7.6 9-.7 13.2c7 4.2 47.3 7 68.8 18.8 21.6 11.8 21.6-13.9 21.6-13.9l-2.8-33.4-53.5 13.9zM570 601.2s32-68.1 70.2-72.3c9.7 0 21.6 13.4 30.6 12.1 9-1.4 11.4-9 5.1-16.7-6.3-7.6-34.3-14.8-34.3-14.8s45-32.2 49.1-37.8c4.2-5.6 3-10.4-3.9-11.1-7-.7-38.2 16.2-61.9 33.6-23.6 17.4-36.2 36.8-36.2 36.8L563 542.1l7 59.1zM649.9 320.3c6.3-11.8 42.4-28.5 49.4-25.7s6.5 7.9 5.1 12.7c-1.4 4.9-31.4 10.9-33.6 31.1 0 11.8 30.6 9.7 34.8 10.4 4.2.7 4.2 9.7-3.5 11.1-7.6 1.4-20.6.7-29.1 3.5s-21.7 19.5-21.7 19.5-7.7-50.8-1.4-62.6zM562.1 154.1c3.5 2.8 20.4 40.3 17.6 89-7 14.6-16.7 11.1-16.7 11.1l-11.8-69.5s-3.9-25.5-2.5-29c1.4-3.4 9.9-4.4 13.4-1.6z"/><path class="st4" d="M248.1 718.6s-18.8 19.5-20.9 25-1.4 8.3 2.8 9c4.2.7 23.6-5.6 27.1-4.9s5.6 2.8 4.2 7-21.6 20.2-25 29.2c-3.5 9 .9 13.7 7.2 15.1 6.3 1.4 32.4-6.7 40.8-12.3 8.3-5.6 29.9-21 34.1-19.5 4.2 1.6 6.3 1.4 5.6 4.9-.7 3.5-17.4 20.2-18.1 25-.7 4.9 8.3 11.1 13.9 9s31.3-28.5 36.8-29.2c5.6-.7 14.6-4.2 15.3-1.4.7 2.8-8.3 16.7-8.3 21.6 0 4.9 4.9 7.6 11.8 5.6 7-2.1 32-25 38.2-25.7 6.3-.7 11.1 0 9.7 4.2s-15.3 20.9-16 25.7c-.7 4.9 11.8 7.6 17.4 4.9s21.6-32.7 25.7-32.7c4.2 0 11.8 27.1 16 28.5s13.2-.7 16-6.3-7.6-33.4 2.8-36.8 34.8 22.9 50.8 25.7c5.6.7 9.7-2.1 11.1-4.9s.7-7 3.5-9.7c2.8-2.8 14.6-4.2 21.6-2.8s25.5 16.2 30.4 17.6c4.9 1.4 9.7-4.4 9-9.3-.7-4.9 16.2-16.7 28-15.3s30.4 8.6 38.7 9.3 11.4-5.1 10.7-8.6c-.7-3.5-8.7-7-12.1-11.8-3.3-4.9 3.7-13.9 12.1-16 8.3-2.1 24.3 3 29.2 2.3s7.6-19 4.2-23.2c-3.5-4.2-31.4-15.3-40.3-16s-16 2.8-16 2.8l-84.1-.7-158-28.4-98.7 16.7-53.5 9.7-23.7 16.7z"/><path class="st3" d="M369.1 629s-7 9.7-46.6 9.7c7 8.3 28.5 9.7 29.2 14.6.7 4.9-18.1 24.3-40.3 20.9s-18.1-25-10.4-25.7 14.6 14.6 14.6 14.6 9-15.5-4.2-21.1-22.2-.5-27.1 12.7c-7 22.2 11.8 31.3 11.8 31.3s-17.4-1.4-30.6 4.9c-13.2 6.3-17.4 27.8-17.4 27.8s39.6-20.2 72.3-21.6c-7.6 9.7-24.3 22.9-27.1 29.9-2.8 7-2.1 9.7.7 16 2.1-6.3 14.6-21.6 36.8-19.5 22.2 2.1 31.3-3.5 31.3-3.5s6.3 17.4 2.1 24.3c-4.2 7-9 9-15.3 8.3s-9.7-4.2-13.9-9.7c-7 13.9 2.1 24.5 16.7 24.5s24.8-23.6 31.7-23.6 31.5 27.6 44.7 8.8c-13.2-.7-31.1-28.5-31.1-40.3s11.6-20.2 19.2-22.2c7.6-2.1 15.8 2.5 17.1 9.5s-1.9 14.1-7.4 15.5c-5.6 1.4-8.3-1.6-11.8-3-5.6 2.1-5.3 11.8 9.3 15.3 14.6 3.5 17.1-10.2 17.1-10.2s7.6 11.8 14.6 11.1 12.5-8.3 12.5-8.3-17.4-4.2-19.5-11.8 7.4-16.5 14.4-15.8 23.9 10.2 17.6 29.7-31.3 40-31.3 46.8c31.3 2.6 55.6-35.6 55.6-35.6s-1.4 26.9 11.1 31.3c12.5 4.4 27.1 0 27.8-15.3-11.1 2.8-26.4 7-27.1-1.4-.7-8.3 16-22.9 44.5-29.2s55.6 2.1 58.4 9.7c2.8 7.6-4.2 13.2-7.6 12.5s-6.3-5.6-6.3-5.6-8.3 13.9 1.4 18.8c9.7 4.9 24.6-6.3 26-18.1s-4.4-18.8-4.4-22.2c15.3-4.9 29.9 6.3 51.4 22.2.7-30.6-28.5-40.3-28.5-40.3s17.6-8.3 23.9-6.3c6.3 2.1 17.8 11.1 24.1 5.6-13.2-5.6-17.1-16-26.3-20.2-9.2-4.2-21.7-.7-21.7-.7s6.3-22.2-13.2-26.4c-11.8-2.8-22.9 9-22.9 15.3 6.3 1.4 17.6-4.9 19 0s-3 13.9-12.1 14.6c-9 .7-29.9 1.4-38.9-2.8s-17.4-18.1-17.4-24.3c8.3 5.6 27.8 4.9 45.2-8.3-19.5-2.8-25-9.7-25-9.7l-120.3-22.9-96.4 19.4z"/><path class="st5" d="M357.4 683.6c57.5-24.6 64-57.9 64-57.9l22.2 1.9c0-.1-29.2 59.3-86.2 56z"/><path class="st5" d="M456.6 629.4s-5.6 10.7-8.3 34.3c-16.2-12.1-7.4-36.2-7.4-36.2l15.7 1.9zM523.8 632.6s7.9 24.1-11.6 47.3c19.9-8.8 25-26.4 25-26.4s-10.7 47.3 48.7 44.5c-42.6-9.7-41.3-65.4-41.3-65.4h-20.8 0z"/><path class="st6" d="M479.6 622.5c-43.8-5-98.3-4.4-108.7-4.2l-1.8 10.7s61.9-1.4 110.5 4.2c48.7 5.6 106.4-.7 106.4-.7s-2.1-3.7-4.7-10.2c-14.8 1.2-61.4 4.8-101.7.2z"/><path class="st1" d="m380.6 628.5.5-14.9M395.4 628v-13.5M407.5 628l.5-13.5M422.8 628l.5-13M437.2 628.5l.4-13.5M449.2 629.4l-.5-12.1M458.9 630.8v-13.5M531.7 634.9l-1.4-14.3M544.2 634l-1.4-14.8M557.7 633.5l-2.4-13.4M569.3 632.6l-1.9-12"/><path class="st7" d="M479.6 622.5c40.4 4.6 87 1.1 101.6-.2-5.9-15.1-14.1-45.7-2.9-81.6 0-9-4.9-15.3-4.9-15.3h-34.1L410 517.1l-29.2 41-10.1 60.2c10.6-.2 65.1-.8 108.9 4.2z"/><path class="st1" d="m380.9 558-11.8 70.9s61.9-1.4 110.5 4.2c48.7 5.6 106.4-.7 106.4-.7s-23.6-40.3-7.6-91.8c0-9-4.9-15.3-4.9-15.3h-34.1L410.1 517l-29.2 41z"/><circle class="st0" cx="492.5" cy="642.3" r="11.8"/><circle class="st1" cx="492.5" cy="642.3" r="5.2"/><path class="st0" d="m472.1 617-4.3 16.1 50.1 1.4-4.6-17z"/><path class="st1" d="M482.6 634.5v-18.6M495.1 634l-.9-19M506.7 633.1l-.9-17.6"/><path class="st2" d="m501.9 574.7-18.1-2.1-8.7 32.7H510z"/><path class="st3" d="M510 605.3h-34.9l-3 11.7 41.2.5z"/><circle class="st5" cx="494.2" cy="569.9" r="11.8"/><path class="st0" d="M567.5 516.7c-71.4 23-134.3 9.5-151 5.1l-2.2 9.9s71.6 28.5 159.2-6.3c-2.2-2.8-4.2-5.7-6-8.7z"/><path class="st2" d="M560.5 504.1c-7.3-14.6-11.4-27.4-11.4-27.4L481 432.2l-47.3 13.2-13.4 59.1c74.1 16.9 127.1 3.6 140.2-.4z"/><path class="st3" d="M567.5 516.7c-2.6-4.1-4.9-8.4-7-12.5-13.2 4-66.2 17.3-140.2.4l-3.8 17.1c16.7 4.4 79.6 17.9 151-5z"/><circle class="st0" cx="579.7" cy="530.9" r="9"/><path class="st1" d="M565.8 211.1s5.1 13.2 5.3 36.2c-1.2 9-26.9 26.4-26.9 26.4l-11.1-7 8.3-41 24.4-14.6z"/><path class="st8" d="M445.5 181.2c8.3 3.5 14.6 16.7 14.6 16.7l-4.2-18.8s6.3 7 16.7 21.6c-4.9-16.7-3.5-26.4-3.5-26.4l21.6 26.4s-5.6-13.9-8.3-25c8.3 5.6 14.6 20.2 16.7 22.2 2.1 2.1-1.4-16.7-1.4-16.7l13.9 18.8s-2.8-11.1-5.6-21.6c9.7 8.3 15.3 27.8 16 22.9.7-4.9-4.9-16.7-6.3-24.3 8.3 14.6 16 16.7 16 16.7s3.5-5.6-.7-20.2c7.6 4.2 10.4 16.7 16 20.9-2.4-10.2-2.1-18.6-1.2-24.5-6.4-10.8-14.2-23.5-23.1-38.1-26.4-43.1-19.5-52.1-20.2-73-18.1 11.1-22.2 26.4-12.5 68.8-21.6-22.9-27.8-47.3-27.8-47.3s-8.6 9.3-5.8 28c2.8 18.8 23.9 51.9 23.9 51.9s-32.7-12.5-41.7-70.2C417 124.8 452 159.7 452 159.7s-43.3-27.3-48.2-65.5c-1.8 5.9-2.5 12-2.5 18.1.2 41.2 36.6 83.4 36.6 83.4l9.3 38.8c5.8-32.1 3.6-42.7-1.7-53.3z"/><path class="st9" d="M545.8 170c-.9 5.9-1.2 14.3 1.2 24.5-5.6-4.2-8.3-16.7-16-20.9 4.2 14.6.7 20.2.7 20.2s-7.6-2.1-16-16.7c1.4 7.6 7 19.5 6.3 24.3-.7 4.9-6.3-14.6-16-22.9 2.8 10.4 5.6 21.6 5.6 21.6l-13.9-18.8s3.5 18.8 1.4 16.7-8.3-16.7-16.7-22.2c2.8 11.1 8.3 25 8.3 25l-21.6-26.4s-1.4 9.7 3.5 26.4c-10.4-14.6-16.7-21.6-16.7-21.6l4.2 18.8s-6.3-13.2-14.6-16.7c5.3 10.6 7.5 21.2 1.6 53.4l1.9 7.7 29.2 36.2 48.7-18.8 27.1-20.2s11.8-19.5 11.8-28.5c0-6-7.3-19.9-20-41.1z"/><path class="st1" d="M486.8 202.5s-12.1-22.7-34.8-42.6M506.2 201.6s-3.2-21.3-25.9-41.2M533.1 196.5c-10.2-24.6-32-39.9-43.1-68.8"/><path class="st1" d="M437.9 195.8s-36.4-42.2-36.6-83.4c0-6.1.7-12.1 2.5-18.1 4.9 38.2 48.2 65.5 48.2 65.5s-34.9-34.9-13.4-69.7c9 57.7 41.7 70.2 41.7 70.2s-21.1-33.1-23.9-51.9 5.8-28 5.8-28 6.3 24.3 27.8 47.3c-9.7-42.4-5.6-57.7 12.5-68.8.7 20.9-6.3 29.9 20.2 73s43.1 70.2 43.1 79.3c0 9-11.8 28.5-11.8 28.5l-27.1 20.2-48.7 18.8-29.2-36.2-11.1-46.7z"/><path class="st8" d="M447.7 200.9c-7-6.5-16.2-14.1-27.2-21.1-26.4-16.7-45.2-24.3-59.1-36.8.7 8.3 4.9 24.3 38.9 53.5 34.1 29.2 35.5 45.2 35.5 45.2l.7 10.4 4.7 1.5c3.3-3.9 8.2-11 9.9-20.9 1.4-8.1-.9-21.2-3.4-31.8z"/><path class="st9" d="m467.1 237.5-4.2-20.5s-5.5-7-15.2-16.1c2.5 10.6 4.9 23.6 3.4 31.7-1.8 9.9-6.6 17.1-9.9 20.9l10.6 3.4 15.3-19.4z"/><path class="st1" d="M361.4 143c.7 8.3 4.9 24.3 38.9 53.5 34.1 29.2 35.5 45.2 35.5 45.2l.7 10.4 15.3 4.9 15.3-19.5-4.2-20.5s-16-20.5-42.4-37.2c-26.4-16.6-45.2-24.3-59.1-36.8z"/><path class="st8" d="M227.2 159c0-5.6-9-18.8-9-18.8s13.5 10.2 23 14c-8.7-11.4-18.5-23.9-26.5-32.7-18.8-20.9-36.2-68.8-36.2-68.8s-7 23.6 0 51.4c3.7 14.9 12.6 33.3 20.1 47.3l11.2-.7c.1-.1 10.5 2 17.4 8.3z"/><path class="st9" d="M262.7 183.3s-9.7-13.6-21.5-29.1c-9.5-3.7-23-14-23-14s9 13.2 9 18.8c-7-6.3-17.4-8.3-17.4-8.3l-11.2.7c6.5 12.1 11.9 20.9 11.9 20.9l52.2 11z"/><path class="st1" d="M178.6 52.6s17.4 48 36.2 68.8c18.8 20.9 48 61.9 48 61.9l-52.1-11.1s-25-40.3-32-68.1-.1-51.5-.1-51.5z"/><path class="st8" d="M213.9 151.6c-.5-.6-.9-1.1-1.3-1.7-10.4-13.9-39.6-65.4-72.3-82-3.5 26.4 39.6 77.2 39.6 77.2l21.6 32.7 18.1 3.7-4.2-14.1-1.5-15.8z"/><path class="st9" d="m213.9 151.6 1.5 15.7 4.2 14.1 36.8 7.5s-30.8-23.2-42.5-37.3z"/><path class="st1" d="M140.3 67.9c32.7 16.7 61.9 68.1 72.3 82s43.8 38.9 43.8 38.9l-54.9-11.1-21.6-32.7c.1.1-43-50.7-39.6-77.1z"/><path class="st8" d="M207.8 172.9c-4-6.3-6.9-12.6-8.8-17.5-5.4-2.8-10.8-5.6-16.3-8.3-31.3-15.3-58.4-40.3-73-73.7 1.4 29.2 25.7 73 67.4 95.9 7.6 4.2 14.9 7.9 21.8 11.1-3.9-8.2-8.6-13.9-8.6-13.9s10.5 2.2 17.5 6.4z"/><path class="st9" d="M273.8 188.2c-24.7-5.7-49.4-19.5-74.8-32.8 1.9 4.9 4.8 11.2 8.8 17.5-7-4.2-17.4-6.3-17.4-6.3s4.7 5.7 8.6 13.9c31 14.6 53.3 20.2 53.3 20.2l22.9 27.1 18.8-7.6-.7-20.2s10.4-4.9-19.5-11.8z"/><path class="st1" d="M109.7 73.5c14.6 33.4 41.7 58.4 73 73.7s61.2 34.1 91.1 41c29.9 7 19.5 11.8 19.5 11.8l.7 20.2-18.8 7.6-22.9-27.1s-33.4-8.3-75.1-31.3-66.1-66.7-67.5-95.9z"/><path class="st6" d="M208.9 577.3c1.4 11.8 100.6 58.6 105.4 56.5.9-.4 3.3-3.7 6.5-8.8l-107.1-60.4c-2.9 5.3-4.7 9.6-4.8 12.7z"/><path class="st1" d="m213.3 581.6 10.6-15.3M220.7 586.3l11.6-17.2M227.7 591.4l.4-.5M228.1 592.8l10.7-18.1M236 596.5l10.2-16.7M245.3 601.1l9.7-16.7M253.1 604.8l8.9-14.4M268 614.1l8.3-17.2M274.9 617.3l9.3-17.6M284.2 621.5l8.3-15.8M293.5 624.3l7.4-14.4M301.4 628.5l6.4-14M308.8 631.2l8.8-15.3"/><path class="st7" d="M382.3 428.7s-13.9-13.2-31.3-4.9c-15.4 7.4-114.1 100.8-137.2 140.8L320.9 625c13.8-21.6 43.3-75.4 43.3-75.4l35.5-24.3 19.5-91.8-36.9-4.8z"/><path class="st1" d="M261 609.9c28.3-59.3 94.1-133.9 94.1-133.9"/><path class="st1" d="M351 423.9c-17.4 8.3-141.1 126.5-142.1 153.4 1.4 11.8 100.6 58.6 105.4 56.5 4.9-2.1 49.8-84.1 49.8-84.1l35.5-24.3 19.5-91.8-36.8-4.9s-13.9-13.2-31.3-4.8z"/><path class="st6" d="M242.2 457.8c-.1 10 .4 15.3.4 15.3l79.3-2.8s-.4-4.9-1.1-13.1l-78.6.6z"/><path class="st1" d="m251.3 471.3.5-19M262.9 471.3v-15.7M271.7 471.3l-.9-18.5M281 471.8v-18.1M289.8 471.3v-17.1M299 470.9l.5-16.7"/><path class="st7" d="M313.5 279.3c-1.4-18.1-6.3-25.7-24.3-21.6-40.8 96.3-46.6 169.7-47 200.2l78.5-.6c-3.3-40.2-12.4-160.2-7.2-178z"/><path class="st1" d="M300.9 264c-18.1 52.1-18.1 192.6-18.1 192.6"/><path class="st1" d="M289.1 257.7c-54.2 127.9-46.6 215.5-46.6 215.5l79.3-2.8s-14.6-169.6-8.3-191.2c-1.4-18-6.3-25.7-24.4-21.5z"/><path class="st5" d="M199.4 202.1c39.6 8.3 71.6 35.5 71.6 35.5l11.8-15.3s-13.9-11.8-30.5-21.6c-16.7-9.7-45.2-9.7-52.9 1.4zM303 195.8s-21.6-25-33.4-46.6c-18.1 25 13.2 62.6 13.2 62.6l12.5 12.5 7.7-28.5z"/><path class="st3" d="M271.7 249.4s-15.3-1.4-19.5-13.9c9 1.4 23.6 9 23.6 9l-4.1 4.9z"/><path class="st3" d="M263.4 218.1c4.9 5.6 19.4 20.2 19.4 20.2l-8.3 9.7s-12.5-13.2-11.1-29.9z"/><path class="st3" d="M291.2 228.5s-11.8-7.6-18.1-15.3c-.7 16 9.7 25 9.7 25l8.4-9.7z"/><path class="st3" d="M282.9 204.9c5.6 5.6 16.7 19.5 16.7 19.5L292 232c-.1 0-9.1-6.3-9.1-27.1z"/><path class="st3" d="M307.2 217.1s-7.6-10.8-15.3-19.1c-1.4 13.9 7.6 26.4 7.6 26.4l7.7-7.3zM315.5 208.3s-8.3-10.4-15.3-16.7c-2.1 7 7 25.4 7 25.4l8.3-8.7zM324.6 197.2s-9-9.7-16.7-13.9c0 9 11.1 21.6 11.1 21.6l5.6-7.7z"/><path class="st0" d="m324.6 197.2-52.8 52.1s2.5 2 6.8 5.4l52.5-49.7c-4.2-4.9-6.5-7.8-6.5-7.8z"/><path class="st1" d="m286.5 251.6-7.9-7.8M292.1 243.8l-6-7.5M299 237.3l-6.5-7M307.4 229.4l-6.5-7M313.9 222.9l-6.7-5.8M320.4 217.1l-6.1-6.3M325.9 211.3l-6.5-8.3"/><path class="st6" d="M348.6 226.3 300.8 272c1.7 1.3 3.4 2.6 5.2 3.9l46.9-44.6c-1.4-1.6-2.9-3.4-4.3-5z"/><path class="st1" d="m305.1 266.5 7.4 7.8M313.9 257.7l7.4 7.4M323.1 250.7l6.1 7M333.3 240.5l6.5 7M342.6 232.2l6.5 7.8"/><path class="st7" d="M395.5 279.3c-12.4-12.7-28.7-31.5-42.6-47.9L306 276c15.7 11.8 34.1 25.2 49.2 34.6 33.3 20.8 66.7-4.2 40.3-31.3z"/><path class="st1" d="M395.5 279.3c-13.7-14-32.2-35.5-46.8-52.9l-47.9 45.7c16.7 12.7 37.6 28 54.4 38.5 33.3 20.8 66.7-4.2 40.3-31.3z"/><path class="st2" d="m330.9 205-52.4 49.7c5.2 4.1 13.2 10.3 22.3 17.3l47.8-45.7c-7.1-8.5-13.3-16-17.7-21.3z"/><path class="st0" d="M446.9 314.7s-59.1 4.2-77.2-48.7c21.6 18.1 43.1 15.3 43.1 15.3l40.3 3.5 6.3 22.9-12.5 7zM399.7 226.4c27.1-3.5 38.9 14.6 42.4 24.3 3.5 9.7 11.8 17.4 11.8 17.4l-19.5 10.4s2.8-7 2.1-15.3c-7.6-2.1-17.4-12.5-19.5-18.1-2-5.5-16.6-13.8-17.3-18.7z"/><path class="st0" d="M431.6 219.5s10 15.3 9.3 26.4c-.7 11.1 6 27.1 6 27.1l20.9 29.9 11.1-1.4-5.6-32s-11.1-26.4-15.3-33.4c-4.1-6.9-26.4-16.6-26.4-16.6zM486.6 268.8s-6.3-28.5-1.4-34.8 11.1-9.7 16.7-18.8c5.6 11.1 3.5 34.8 3.5 34.8l4.2 13.2-7.6 40.3h-15.3l-.1-34.7h0zM541.5 268.1s17.4-20.2 32-24.3c14.6-4.2 15.3-17.4 15.3-33.4 14.6 30.6-4.2 54.9-4.2 54.9L571.4 282l-18.8 22.2-11.1-36.1z"/><path class="st0" d="M577.6 266.7c8.3-12.5 28.5-14.6 38.9-25.7-6.3 24.3-21.6 34.1-21.6 34.1l-1.4 7.6-17.4 4.9c.1 0-6.8-8.3 1.5-20.9z"/><path class="st0" d="M581.1 280s14.6-5.3 27.1-3.9c12.5 1.4 14.6.5 23.6-9.3-3.5 18.1-21.6 31.3-21.6 31.3l-32 11.1 2.9-29.2z"/><path class="st0" d="M570.6 309.2s18.1-14.6 32-13.2c13.9 1.4 26.4-1.4 36.8-7.6-5.6 18.1-24.3 27.8-24.3 27.8l-38.2 18.1-6.3-25.1zM503.9 268.1s-3.5-18.1 7-29.9c10.5-11.8 12.5-16 15.3-18.8 9.7 16.7 0 34.1 0 34.1l1.4 17.4-16 16-7.7-18.8zM469.9 269.5s-15.3-6.3-11.8-30.6 2.8-24.3 2.1-34.8c12.5 12.9 13.7 21.6 15.8 37.5s10.7 27.1 10.7 27.1l-9.7 13.2-7.1-12.4z"/><path class="st0" d="M515.8 277.2s5.3-23.9 17.1-33.6c11.8-9.7 23.9-13.7 31.5-29-2.1 27.8-25 45.2-22.9 53.5s-1.4 18.1-1.4 18.1l-22.2 20.9-2.1-29.9zM385.8 243.8c15.3 45.2 50.8 54.9 61.9 48 11.1-7 8.3-14.6 1.4-22.9s-21.1-5.3-26.7-6c-5.6-.8-26.2-12.1-36.6-19.1z"/><path class="st4" d="M582.5 309.8c-.7-19.5 2.1-44.5 2.1-44.5s-13-1.9-15.1.9-8.6 29-10.7 29.7-4.9-28.5-4.9-28.5l-16 .7s-10.4 29.2-13.2 29.9c-2.8.7-9.7-30.6-9.7-30.6h-17.4s.7 32-2.1 32-9-30.6-9-30.6l-21.6.7s8.6 27.1 5.8 29.2c-2.8 2.1-14.1-28.5-14.1-28.5l-14.6.7s9.7 12.5 6.3 36.8c-.1 1-.3 1.9-.4 2.8l134.6 1.2v-1.9z"/><path class="st6" d="m652.7 300.8-9 3.3c8.8 41.7-10.2 156.5-25.2 185.9 2.1 1.3 4.2 2.6 6.4 4.1 43.8-73 27.8-193.3 27.8-193.3z"/><path class="st1" d="m629.5 486.6-10.2-4.1M632.8 477.4l-11.6-3.8M636.5 469.9l-12.6-2.7M638.8 461.1l-12.5-2.3M642 452.3l-12.5-3.2M643.9 444.4l-12.1-3.2M646.2 433.8l-13-2.8M649 424.5l-13.9-1.8M649.9 412.5l-13.9-1.4M651.3 404.1l-11.6-.9M652.2 395.8l-13-.5M653.1 387l-14.3-.5M653.6 379.6l-12.5-.5M654.5 369.4h-14.3M655 358.2l-13.9.5M654.1 350.8h-10.7M655.5 341.1l-12.1.4M654.1 331.4l-12.1.4M653.1 322.1l-11.5.9M654.1 311l-12.1 2.3"/><path class="st7" d="m643.7 304.1-66.8 24.5-9.7 139s19 2.5 51.3 22.3c15-29.3 34-144.1 25.2-185.8z"/><path class="st1" d="m576.9 328.6 75.8-27.8s16 120.3-27.8 193.3c-36.2-23.6-57.7-26.4-57.7-26.4l9.7-139.1z"/><path class="st6" d="M381.6 287.2c-2.1-2-4.3-4.2-6.3-6.5-53.5 43.8-20.2 197.4-20.2 197.4l15.9-8.4c-4.2-17.8-25-114.1 10.6-182.5z"/><path class="st1" d="m353.7 469.9 18.6-4.6M353.7 459.3l17.6-2.3M350.9 447.7l18.6-2.3M348.6 437l20-1.8M347.2 424.1l20.9-1.9M346.8 412.5l20.4-1.4M345.8 400.9l18.6-.5M345.8 387.9l19.5.5M346.8 376.8l18.1.4M346.8 363.3l19.4 1.9M347.7 353.1l18.1 1.4M349.6 340.2l18.5 3.2M350.9 329.5l19.5 4.2M353.3 319.3l18 4.6M356.5 308.2l18.1 7.9M361.6 296.6l14.8 9.7M367.2 288.2l11.1 8.9"/><path class="st7" d="m451.1 383.5-.7-69.5s-38.2 1.8-68.7-26.8c-35.6 68.5-14.8 164.7-10.5 182.5l44.5-23.5 35.4-62.7z"/><path class="st1" d="M450.4 314s-43.8 2.1-75.1-33.4C321.8 324.4 355.1 478 355.1 478l60.5-32 35.5-62.6-.7-69.4z"/><path class="st3" d="M537.3 453.3c-6.5-5.1-.9-19.9-.9-19.9l38.2-18.7c2.5-17.6 7.9-46.4 7.9-46.4l-42.4-19.5-60.5 18.1-16 45.9 10.4 27.8s14.6 43.1 52.8 43.1c8.2 0 15.3-1 21.5-3 0-6.6-1.5-17.9-11-27.4z"/><path class="st0" d="M536.3 433.3s-5.6 14.8.9 19.9c9.5 9.5 11.1 20.8 11.1 27.4 22.5-7.2 31.1-27.2 25.1-56.1.1-2.4.6-5.8 1.1-9.9l-38.2 18.7z"/><path class="st1" d="M563.7 471.3s2.8-19.9-6-31.5c-.5 20.9-10.2 31.5-10.2 31.5"/><path class="st4" d="M582.7 320.7 446.8 319c-1.7 13-2.5 22.2-3.6 30.7l139.5-.6c.1-8.8.1-19.3 0-28.4z"/><path class="st3" d="M533.1 446.8s41-6.3 59.1-27.1c.7-2.8-3.5-15.3-3.5-15.3l-50.8 22.2-4.8 20.2z"/><path class="st4" d="M563.7 367.3c-1.4 3-6.3 44.7-18.1 48.2s-15.3 8.3-16 15.3c-5.6-1.4-14.6-.7-14.6-.7s2.8 29.2 8.3 32.7 12.5 4.9 13.9-2.8c1.4-7.6-2.8-21.6 9.7-27.8 12.5-6.3 33.1-8.3 41.5-23.6 8.3-15.3 7.9-31.3 4.4-36.2-3.4-4.8-27.7-8.1-29.1-5.1z"/><circle class="st0" cx="551" cy="389.8" r="25"/><path class="st3" d="M551.5 379.4c-7.1 0-13 5.5-13.5 12.5h27c-.5-7-6.3-12.5-13.5-12.5z"/><path class="st0" d="M538 391.9v1.1c0 7.5 6.1 13.5 13.5 13.5 7.5 0 13.5-6.1 13.5-13.5v-1.1h-27z"/><circle class="st1" cx="551.5" cy="396.1" r="4.5"/><path class="st1" d="M529.7 430.8c-1.4 7-.7 17.4-.7 17.4"/><path class="st5" d="M364.2 549.7c0 6.3 28 26 41.9 14.1 2-2.2 5.7-12.6 9.8-26.1l-39.8-14.6c-7.2 15-11.9 24.8-11.9 26.6z"/><path class="st3" d="m381.7 511.8 37.7 14.4c1.8-6.2 3.7-12.6 5.5-19l-34.3-14.3c-3 6.8-6.1 13.1-8.9 18.9z"/><path class="st2" d="M411.3 446.9c-7 16.4-14.1 32-20.6 46l34.3 14.3c5.6-19.6 10.9-38.2 13.6-45.1.1-.3.3-.6.4-1-5-.1-21.8-1.5-27.7-14.2z"/><path class="st5" d="M441.8 358.7c-6.5 27.8-18.2 59.1-30.5 88.2 5.8 12.7 22.7 14 27.6 14.1 7.1-16.4 39.2-49.8 39.2-49.8s4.9-40.3 32.7-43.8c27.8-3.5 71.6.7 71.6.7s0-3.8.1-9.5l-140.7.1h0z"/><path class="st0" d="M381.7 511.8c-1.9 4.1-3.8 7.9-5.5 11.4l10 3.7 4.2-11.7-8.7-3.4z"/><path class="st0" d="m390.4 515.1-4.2 11.8 10.8 3.9 3.4-11.8zM419.4 526.3l-9.3-3.5-2.6 12 8.4 3.1c1.2-3.8 2.3-7.7 3.5-11.6z"/><path class="st0" d="m400.4 519-3.4 11.8 10.5 3.8 2.7-11.9zM448.7 464.8s-9.7 21.3 6.5 23.2c16.2 1.9 11.1-22.2 11.1-22.2l-17.6-1z"/><path class="st1" d="M454.3 461.6s-5.1 18.5 1.4 18.5 6-17.6 6-17.6l-7.4-.9z"/><path class="st2" d="M476.6 412c-1.2-3.5-21.3-3.5-23.4-.7-1.2 1.6-5.8 19.6-9.5 34.7l33.8 1.1c-.1-15.3-.3-33.1-.9-35.1z"/><path class="st0" d="M440.3 459.9c-1 4.3-1.7 7-1.7 7l38.9 2.1v-7.7l-37.2-1.4z"/><path class="st3" d="m477.5 447-33.8-1.1c-1.3 5.2-2.5 10.2-3.4 13.9l37.3 1.4c-.1-3.8-.1-8.8-.1-14.2z"/><path class="st0" d="m465.6 349.6.6 9.1h11.7l-.7-9.2z"/><path class="st0" d="m477.2 349.5.7 9.2h13.9l-.7-9.2zM443.2 349.7c-.3 2.7-.7 5.4-1.2 8.1-.1.3-.1.6-.2.9h12.5v-9.1l-11.1.1zM454.3 349.6v9.1h11.9l-.6-9.1zM491.1 349.5l.7 9.2h12.5l-.4-9.3zM543.2 349.2l-.8 9.5h15.7v-9.5z"/><path class="st0" d="m503.9 349.4.4 9.3h13.4l-.7-9.4zM582.7 349.1h-10.8l-.8 9.6h11.4c.1-2.8.2-6.1.2-9.6z"/><path class="st0" d="M558.1 349.2v9.5h13.1l.7-9.6zM517 349.3l.7 9.4h12.5l-.7-9.4z"/><path class="st0" d="m529.5 349.3.7 9.4h12.2l.8-9.5zM562.5 311.6l-18.3-.1 11.6 8.8 17.6.3zM447.9 310.6c-.4 3-.8 5.7-1.1 8.4l20.2.2-9.5-8.5-9.6-.1zM479.4 310.9l12.4 8.6 22.2.3-10.1-8.7z"/><path class="st0" d="m457.5 310.7 9.5 8.5 24.8.3-12.4-8.6zM503.9 311.1l10.1 8.7 20.7.3-9.9-8.8zM582.7 320.7c0-3.2-.1-6.2-.2-8.9l-20.1-.2 10.9 8.9 9.4.2z"/><path class="st0" d="m524.8 311.3 9.9 8.8 21.1.2-11.6-8.8z"/></svg>