<svg version="1.1" id="Calque_1" xmlns="http://www.w3.org/2000/svg" x="0" y="0" viewBox="0 0 900 900" style="enable-background:new 0 0 900 900" xml:space="preserve"><style>.st0,.st1,.st2{fill:red;stroke:#000;stroke-width:9.9599;stroke-linecap:round;stroke-linejoin:round;stroke-miterlimit:10}.st1,.st2{fill:#fff}.st2{fill:none}</style><path class="st0" d="M368.6 380.9s-47-45.2-41 53.4 96.6 120.2 91.9 129.5c-4.7 9.3-80 3.7-108.6 11.7s-53.8 24.2-58.1 33.6c-1.9 4.2-3.1 10.2-3.5 16.5 25.7 19.2 65.6 20 79.5 19.7-2.3-10.3-2.6-21.2 6.8-30.6 19.9-19.9 99.6-6 99.6-6l104.3-40.5v-39.8L368.6 380.9z"/><path class="st1" d="M249.4 625.4c-.6 7.8-.1 16 1.2 21.7 2.3 10.3 18.9 21.9 28.6 14.6 4 11.3 17.2 15.2 24.2 4 5.7 18.7 24.2 17.9 30.2 7.3 3.2-5.7-2.1-16.2-4.8-27.9-13.7.4-53.7-.4-79.4-19.7z"/><path class="st2" d="M303.4 665.8c-7.1-22.6 0-45.1 0-45.1M280.5 620.5s-9.3 18.4-1.3 41.1"/><path class="st0" d="M489.4 390.2c-3.4-24.2-15.6-42.5-27.5-55.2-7.2 4.4-14 7.5-21.3 8.4-39.1 4.3-94.3-11.7-94.3-11.7l-23.9 78.4s53.6 33 123 61.2c20.7-18.4 48.3-49.3 44-81.1z"/><path class="st0" d="M638.4 468.6c-64.5 0-122.9-41.3-149.2-63.2-4.1 26.3-26.3 50.5-43.8 65.9 52.1 21.2 113 39.7 166.8 39.7 125.5 0 212.8-92.9 212.8-92.9s-3.7-8.3-11.4-20.6c-28.4 20.5-105.4 71.1-175.2 71.1z"/><path class="st0" d="M701.1 369.3c-4.6-37-18.9-65.1-31.4-83.5-10.7-2.7-21.9-4.6-33.7-5.5-16.8-1.3-31.9-1.4-45.4-.4 21.2 14.6 50.2 41.9 56.8 84.9 7.7 50-11.4 86.6-22.6 103.1 4.5.4 9.1.6 13.6.6 16.8 0 34.2-3 51.1-7.8 7.4-15.4 17.3-45.9 11.6-91.4zM570.6 369.6c-7.1-30.9-29.7-57.9-46.1-74.1-28.7 12.5-46.4 29.5-62.6 39.5 11.9 12.5 24.1 31 27.5 55.2.7 5.1.6 10.2-.2 15.1 13 10.8 33.9 26.4 59.5 39.3 13.2-16.3 29.2-43.7 21.9-75z"/><path class="st0" d="M647.3 364.8c-6.6-42.9-35.6-70.2-56.8-84.9-27.4 2-48.7 8-66 15.5 16.4 16.2 38.9 43.2 46.1 74.1 7.2 31.3-8.9 58.8-22 75.1 22.4 11.5 48.5 20.8 76.1 23.2 11.3-16.5 30.3-53 22.6-103zM738.5 317.2c7.2 13.1 13.5 28.9 17 46.9 5.7 29.5 2.9 53.8-.9 70 25.6-13.4 46.7-27.8 59-36.7-13.1-21.1-37.6-54.4-75.1-80.2z"/><path class="st0" d="M755.6 364.1c-3.5-18-9.9-33.8-17-46.9-19.4-13.4-42.3-24.8-68.8-31.4 12.4 18.3 26.8 46.5 31.4 83.5 5.7 45.5-4.2 76-11.7 91.5 23.1-6.5 45.4-16.3 65.1-26.7 3.9-16.2 6.7-40.5 1-70zM567.3 520.9s19.9 0 21.8-11.1c-87.5-9.6-147.3-107.6-182.6-92.5-35.2 14.9-23.2 56.5-4.7 84.4s70 60.5 104.1 61.1c-42.7 22.3-106 33.1-131.2 51.1-23 16.3-38.2 37.1-40.7 54.2 29.3 18.2 71.5 17.2 91.4 15.5-1.6-12.7-2.9-27.1 3.2-37.4 9.3-15.9 155.1-49 177.7-104.5 6.2-15.4-39-20.8-39-20.8z"/><path class="st2" d="M427.2 442s39.1 58.5 140.1 79"/><path class="st1" d="M334 668.1c-.3 1.7-.4 3.3-.4 5 0 17.9 5.3 38.5 35.9 27.9 4.7 13.2 20.6 14.4 31.2 4 5.3 17.9 26.6 8.9 26.6-3 0-5.1-1-11.5-1.8-18.3-20 1.7-62.1 2.6-91.5-15.6z"/><path class="st2" d="M400.7 704.9c-6.7-36.9 0-57.8 0-57.8M370.8 647.1s-8.7 25.2-1.3 53.8"/><path class="st1" d="M265.3 233.9s15.6-45.9 49.5-48.6 41.3 12.4 66 21.6 70.4-10.7 70.4-10.7-30.6 34.8-61.8 37.6-34.2-14-62.7-10.8-32.2 48.1-32.2 48.1l-23.2-3.3-6-33.9z"/><path class="st1" d="M97.9 216.9c2.7 0 11.7 34.2 46.1 35.6 34.6 1.3 51.4-31.9 84-23.2s24.9 46.8 24.9 46.8H299s-7-67-53.8-81c-46.8-13.9-67 23.2-91.6 28.6s-55.7-6.8-55.7-6.8z"/><path d="M305.7 262.7c-52.5-6-70 4-93.9 20.6s-26.9 45.5-43.5 48.1c-16.6 2.7-33.6-14.9-44.8-14.9s-33.9 6-38.5 15.2c-4.7 9.3.3 11.3-1 22.6-1.3 11.4-14.6 21.6-6 31.6 1.2 1.4 2.8 2.4 4.7 3.2-6.3 22-2.9 42.6 9.3 45 8.1 1.6 19.7-3.3 32.7-9.2L179 456s59.1 27.2 126.8 2 76.4-52.5 79-95.6c2.6-43.2-26.6-93.7-79.1-99.7z" style="fill:red"/><path class="st2" d="M117.8 354.3s11 10.7 5.7 22.6c-5.3 12-36.9 18.9-45.5 9-8.7-10 4.7-20.2 6-31.6s-3.7-13.2 1-22.6c4.7-9.3 27.2-15.2 38.5-15.2 11.4 0 28.2 17.6 44.8 14.9s19.6-31.6 43.5-48.1 41.5-26.6 93.9-20.6 81.7 56.5 79 99.6c-2.7 43.1-11.3 70.5-79 95.6-75.4 27.9-139.9-9.5-139.9-9.5"/><path class="st2" d="M95.9 361.6c-20.8 28.6-21.2 69-4 72.4 17.2 3.3 50.5-22.6 78.4-24.6s38.5 10 38.5 10"/><circle class="st1" cx="241.6" cy="354.6" r="29.6"/><circle class="st2" cx="241.6" cy="354.6" r="11.3"/><path class="st0" d="M123.4 376.9c-5.3 12-36.9 18.9-45.5 9-8.7-10 4.7-20.2 6-31.6s-3.7-13.2 1-22.6"/><path class="st1" d="M138.4 418.7c-8.7 3.7-17.1 7.9-24.8 10.9 1.7 14.5 8.1 36.5 37.4 31.7v-.1c-11.4-11.1-12.8-30.9-12.6-42.5z"/><path class="st1" d="M172.7 409.3c-.8 0-1.7.1-2.5.1-5.9.4-12 1.9-18.1 4-4.6 1.5-9.2 3.4-13.7 5.3-.3 11.7 1.2 31.4 12.6 42.5 3.7 3.6 8.5 6.3 14.5 7.5-1.3-26.2 4.1-48.7 7.2-59.4z"/></svg>