<svg version="1.1" id="Calque_1" xmlns="http://www.w3.org/2000/svg" x="0" y="0" viewBox="0 0 900 900" style="enable-background:new 0 0 900 900" xml:space="preserve"><style>.st0,.st1,.st2,.st3{fill:#fff;stroke:#000;stroke-width:4.1945;stroke-linecap:round;stroke-linejoin:round;stroke-miterlimit:10}.st1,.st2,.st3{fill:none}.st2,.st3{fill:red}.st3{fill:#ffce00}.st4{fill:#fff}.st5{fill:red}.st6,.st7,.st8{fill:#2c5900;stroke:#000;stroke-width:4.1945;stroke-linecap:round;stroke-linejoin:round;stroke-miterlimit:10}.st7,.st8{fill:#bf9b00}.st8{fill:#3a3a3a}</style><path class="st0" d="M548.4 466.4c-.3-.4 92.6-40.5 92.6-40.5l4.6 14-6 18.9s-86.8 29.1-88.1 28c-1.1-1.1-9.5-3.9-9.5-3.9l6.4-16.5z"/><path class="st0" d="m549.5 473 96.1-33.1 10.2 40.8-107.4 25.7-14.3 2.7s-22.4-43.9 15.4-36.1z"/><circle class="st0" cx="616.9" cy="547.8" r="15.1"/><circle class="st0" cx="616.9" cy="512.1" r="15.1"/><path class="st0" d="M560 494.4c-26.8 0-48.8 20.1-48.8 45s21.8 45 48.8 45 48.8-20.1 48.8-45-22-45-48.8-45zm7.5 77.7c-2.5.4-5 .7-7.6.7-20.1 0-36.4-15-36.4-33.6s16.2-33.6 36.4-33.6c2.7 0 5.2.3 7.6.7v65.8zm9.8-3.3v-58.9c11.3 5.7 19 16.8 19 29.5s-7.7 23.8-19 29.4zM601.6 617.7s17.8 14.7 25.2 22.1c7.4 7.4-1.5 19.6-12 14.4-10.3-5.2-25.7-22-25.7-22l2-13.7 10.5-.8z"/><path class="st1" d="m619 644.4-26.5-21.1M612.1 505.9l12.9-6.5M616.9 512.1l15.1-1.4M616.9 519.6l11.6 2.2M614.9 539.5l13.6-1.5M617.7 547.2l13.3 1.4M614.9 554.9l9.5 5.9"/><circle class="st0" cx="598" cy="617.7" r="10.9"/><path class="st0" d="m586.5 605.1-8.9 14.7c1.4 4.6 2.9 9.5 4.5 14.5l8.8-15.9c-1.6-4.7-3.1-9.4-4.4-13.3zM591 618.5l-8.8 15.9c2 6.3 3.9 12.6 5.9 18.9l8.8-16.9c-2.1-6.3-4.1-12.3-5.9-17.9zM582 591.8l-12.2 3.5s3.2 10.5 7.7 24.6l8.9-14.7c-2.5-8-4.4-13.4-4.4-13.4z"/><path class="st0" d="m596.9 636.3-8.8 16.9c1.4 4.6 2.8 8.9 4.2 13.1l8.8-16.9c-1.4-4.3-2.8-8.8-4.2-13.1zM601.1 649.4l-8.8 16.9c2 6.2 3.8 11.6 5.2 15.8l8.4-18c-1.6-4.6-3.2-9.5-4.8-14.7z"/><path class="st0" d="m605.8 664.1-8.4 18c1.5 4.5 2.5 7.4 2.9 8 2.4 4.2 11.7.4 11.7-4.2.1-1.4-2.5-10.2-6.2-21.8zM496.8 567.4h118v32.9h-118z"/><path class="st0" d="M523.6 539.4c0 11.3 6 21.3 15.2 27.4 5.9 3.9 19 12.4 19 20.1 0 7.7-4.6 9.5-7.7 7.7-3.2-1.8-8.4-12.7-15.9-17.1-13.8-8-23.1-22.1-23.1-38.2"/><path class="st2" d="M353.3 823.4s10.3-26 7.1-29.4c-3.2-3.4-61.1-14.4-61.1-14.4l-9.4 18.6 37.9 22.4 25.5 2.8zM569 836.7c8.9-1.8 10.2-23.9 7-26.7s-74.5-13.8-74.5-13.8l-1.3 18 35.5 18.5c.1-.1 24.4 5.8 33.3 4z"/><path class="st3" d="M289.8 790.8s32.9 7.6 49.5 15.8 31.6 24.5 32.6 28.5c1 4.2-50.6 5.7-52.9 1.3s-2-8.4-2-8.4l-30.8-4.6 3.6-32.6z"/><path class="st1" d="m326.9 827.6 2.2 11.6M336.5 827.6l3.7 12.1M346 826.2l4 12.7M353.7 826.2l6.6 12"/><path class="st3" d="M499.8 807.4s37.3 6.6 52.9 13.1c15.5 6.7 29.8 22.5 30.9 26.3 1.1 3.6-52.6 4.5-54.9.6s-2.2-7.6-2.2-7.6l-28.1-2.7 1.4-29.7z"/><path class="st1" d="m535.2 838.9 2.7 10.3M544 838.5l4.1 10.7M552.7 838.1l5.6 11.3M562.3 836.2l8.1 13.5"/><path class="st0" d="M273.6 747.9c-9.8 14-19.2 75.5-19.2 75.5h35.4s15.7-64.7 22.4-71.7c6.9-7-28.8-17.8-38.6-3.8zM444.2 762c-3.5 5.6 21.3 31.7 23.1 42.4 1.7 10.6 2.1 34.5 2.1 34.5l32.2-1.8s-1.4-57.5-4.6-75.8c-1.8-8.8-44.7-12.6-52.8.7z"/><path class="st0" d="M251.2 817.8c-3.2 2.8-2.8 8.5 2.4 12.2 5.2 3.5 56.9 4.6 61.2 3.2 6-2 1.4-9.2-5.6-11.2-3.3-.9-54.7-7-58-4.2zM466 834c-2.8 2.7-2.1 8 2.8 10.9s52 1.3 55.8-.1c5.3-2.1.7-8.4-5.6-9.9-3.2-.8-50.2-3.7-53-.9z"/><path class="st2" d="M265.2 772.6c6.6-2.4 32.3 1.7 37.1 4.8 4.8 3.2 1.7 17.1-4.3 16.6-6.2-.3-30.8-2.8-35-5.6s-4.3-13.4 2.2-15.8zM466.7 796.1c5.9-2.5 33.6-4.6 38-2 4.5 2.7 2.4 15.9-3.1 15.9-5.6 0-29.8 2.4-33.8 0-3.9-2.3-7-11.5-1.1-13.9z"/><path class="st4" d="m450.6 447.3-75.5 54.1-25.2 38 20 67.4s37.5.6 41 4.2c1 1 1.5 4.9 2 10.9l68.9 1c-15-85.6-31.2-175.6-31.2-175.6z"/><path class="st1" d="m450.6 447.3-75.5 54.1-25.2 38 20 67.4s37.5.6 41 4.2c1 1 1.5 4.9 2 10.9l68.9 1c-15-85.6-31.2-175.6-31.2-175.6z"/><path class="st4" d="m360.3 427.3-33.4-1.4-22.1 94.1-8.4 37.9 4.8 6.3 59.9-132.7z"/><path class="st5" d="m361.1 431.5-60 132.7 10.1 13.4s-4.3 14.8-10.3 35.7l16.2 3.4 45.3-179.2-1.3-6z"/><path class="st4" d="M362.4 437.3 317 616.4l49.8 10.3v-14.5l8.4-115.3-12.8-59.6z"/><path class="st1" d="m375.1 496.9-12.7-59.6-1.3-6-.8-4.2-33.4-1.4-22 94.1-8.4 37.9 4.6 6.3 10.1 13.4s-4.3 14.8-10.3 35.7l16.2 3.4 49.8 10.3v-14.5l8.2-115.4z"/><path class="st0" d="m358.9 392.6 8.8 39.3 39.2 6.1 23-19.1 7.3-23.9 3.2-21.4-21-29.4z"/><path class="st3" d="m330.2 388-13.2-5-20.6 116.4 6.4 28.1z"/><path class="st0" d="m246.9 412.9 64.3 2.6 2.4-13.8-66.4-2.8z"/><path class="st2" d="m245.6 490.2 50.8 9.2 14.8-83.9-64.3-2.6zM247.2 398.9l66.4 2.8 2.7-15.4-68.8-2.8z"/><path class="st0" d="m333 388 7.9-44.2-25.3-11.2-67.2-3.6-.9 54.5 68.8 2.8.7-3.3z"/><path class="st2" d="m549.9 113.2-7.8-21.5c-6.3-2.8-17.2 0-17.8 6l9.1 21.8 16.5-6.3z"/><path class="st2" d="M570.7 105.4c-2.9-9.6-5.6-16.9-7.3-18.3-5.6-4.6-19.2 0-21.4 4.6l7.8 21.5 20.9-7.8z"/><path class="st6" d="m580.5 197.1 5.3-34.5s-8.2-34.7-15.1-57.2l-20.8 7.8 30.6 83.9z"/><path class="st6" d="m533.4 119.5 43.1 103.9 4-26.3-30.6-83.9z"/><path class="st6" d="m576.5 223.4-43.1-103.9-15.4 5.9 52.7 122.5 2.1.1z"/><path class="st6" d="M500.4 132c14.4 36.2 48 114.4 48 114.4l22.4 1.5L518 125.3l-17.6 6.7z"/><path class="st2" d="M508.9 104.3c-5.9-2.4-16.4 1.4-15 10.2.3 1.8 2.7 8.2 6.3 17.5l17.6-6.7-8.9-21zM533.4 119.5l-9.1-21.8c-6.2-2.4-15.8 0-15.4 6.6l9.1 21.1 15.4-5.9z"/><path class="st0" d="M551.6 227.3s-68.8-145.8-78-160.8S442 46 429.6 53 411.7 71.2 419 91.7c-8-9.8-16.1-5.2-18.2-1.4-2.1 3.8-4.2 10.2 3.5 19.2 7.7 8.9 18 12 26.8 3.2 10.2-10.2-1.3-21 2.7-28.9s15.5-9.8 24.5 0S525.8 217 525.8 217l25.8 10.3z"/><path class="st1" d="M410.6 102.5c6.6 3.2 14 1.3 8.4-10.8"/><circle class="st3" cx="616.3" cy="150.2" r="9.1"/><circle class="st3" cx="626.4" cy="124" r="9.1"/><circle class="st3" cx="645.9" cy="106.8" r="9.1"/><circle class="st3" cx="673.6" cy="94.5" r="9.1"/><circle class="st3" cx="702.6" cy="90.6" r="9.1"/><path class="st7" d="M619.4 234.6c-.7 21.4 26.1 21.7 26.1 21.7l14.3-40.3h-40.7c.3 7 .4 13.4.3 18.6zM652.9 132.7c21.3-20.8 61.8-21 78.9-20.1-.6-4.5-1.4-8-2.5-9.1-4.2-4.5-54.3-11.5-86.2 14.2-26 21-24.7 66.7-24 98.2h16.2c-.1-31.5 3.1-68.8 17.6-83.2z"/><path class="st2" d="m677.1 118.7 4.3 36.8c4.1-2.7 8.7-4.1 13.3-4.6l-2.1-36.1c-5.1 1-10.4 2.2-15.5 3.9z"/><path class="st0" d="M652.9 132.7c-14.7 14.4-17.8 51.7-17.5 83.2h24.3l2-5.5s-1.4-31.7 13.3-49.4c2-2.4 4.1-4.2 6.4-5.6l-4.3-36.8c-9.1 3.2-17.5 7.6-24.2 14.1zM692.6 114.8l2.1 36.1c3.9-.6 7.8-.6 11.6-.4l-1.4-37.3c-4 .3-8.2.9-12.3 1.6z"/><path class="st2" d="M731.8 112.7c-6.4-.4-16.2-.6-27 .4l1.4 37.3c8.1.4 15.4 1.7 19.4.8 6.9-1.5 7.9-25 6.2-38.5z"/><path class="st0" d="M809.9 102.2c-11.6-12.3-35.9-9.1-35.9-9.1l-5.2 19.3s26.1 5.9 30.3 17.5c1.3 3.4 2.9 9.8 4.9 17.3h19.4c-4.9-17.3-3.9-35.1-13.5-45z"/><path class="st2" d="M828.7 159.2c-2.1-3.9-3.8-8-5-12.2h-19.4c1 3.9 2.1 8.1 3.2 12.4l21.4-.1c-.2.1-.2-.1-.2-.1z"/><path class="st0" d="m828.7 159.4-21.4.1c1.3 5 2.7 10.1 3.9 15l26.1-.1c-2.5-4.4-5.5-9.4-8.6-15z"/><path class="st2" d="M811.3 174.5c2.9 10.8 5.9 19.9 8 22.9 5.6 7.8 28.4 2.8 29.4-1.5.7-3.2-4.2-10.2-11.2-21.5l-26.2.1z"/><path class="st0" d="M798.3 124c-3.7-14.7-21.3-15.9-21.3-15.9s-6 9.8 1.8 18.7c2.5 2.8 2.9 10.8 2.4 20.4h19.2c-.4-10.2-.9-18.9-2.1-23.2z"/><path class="st2" d="M800.3 147.1h-19.2c-.3 3.9-.7 8.2-1.1 12.6l20.4-.1c0-4.3 0-8.5-.1-12.5z"/><path class="st0" d="m800.4 159.5-20.4.1c-.6 5-1.3 10.1-2 15l22.4-.1v-15z"/><path class="st2" d="M777.9 174.6c-2 12.6-3.9 23.2-3.9 25.7 0 6 22.4 4.8 24.2 2.8.8-.8 1.7-13.4 2-28.5h-22.3z"/><path class="st0" d="M746.6 108.1c-1.8-6.3-5.2-11.5-7.8-14.7-5.2 3.4-8.8 6.7-9.4 8.9-1.8 7.3-1.8 17.3 3.2 23.1 1.7 2 7.1 3.4 13.8 3.9 1.1-7.1 1.9-15.5.2-21.2z"/><path class="st2" d="M757.8 102.5c-2-6.7-5.6-12-8.4-15.4-3.8 2-7.6 4.1-10.6 6.2 2.7 3.2 6 8.4 7.8 14.7 1.7 5.7.8 14.1-.3 21.3 3.5.3 7.3.6 11 .6 1.3-7.7 2.6-20 .5-27.4zM776 80.1c-2.7-1.8-9.2-.4-16.6 2.5 2.7 4.1 6.4 10.2 8.2 17.1 2.4 8.4 1.1 22.5.3 29.6 5.2-.6 9.4-1.4 10.9-2.5 5.1-4.2 4.6-41.7-2.8-46.7z"/><path class="st0" d="M767.6 99.7c-2-6.7-5.6-13-8.2-17.1-3.2 1.3-6.6 2.8-9.8 4.5 2.7 3.2 6.4 8.5 8.4 15.4 2.1 7.6.8 19.7-.4 27.4 3.6 0 7.3-.1 10.5-.4.6-7.3 1.9-21.6-.5-29.8z"/><path class="st1" d="M396.1 347.6c.6-2.4 8.4-41.9 21.5-54.5s53.8-17.2 53.8-17.2"/><circle class="st3" cx="458.4" cy="487.4" r="10.6"/><path class="st2" d="m366.7 626.9-66-13.7c-2.4 8.2-5.2 17.6-8 27.3l73.8 17.9c.4-12.3.4-23.4.2-31.5z"/><path class="st0" d="M284.8 668.5c-5.2 18-10.2 35.7-14.1 49.8l95.4 15c.3-13.3.6-30.1.6-46.7l-81.9-18.1z"/><path class="st2" d="m311.2 645-7.9 27.5 21.1 4.6 6.1-27.5z"/><path class="st2" d="M292.9 640.5c-2.7 9.1-5.3 18.6-8.1 28l18.5 4.1 7.8-27.5-18.2-4.6zM330.5 649.6l-6.1 27.5 21.6 4.8 3-27.8z"/><path class="st2" d="m366.7 658.4-17.8-4.3-2.9 27.7 20.6 4.5c.1-9.5.1-19 .1-27.9zM481.9 622.9l-68.9-1c.6 7.6.7 18.5.6 31h73.5c-1.5-9.9-3.3-20-5.2-30z"/><path class="st2" d="m432.9 652.8-.6 29.1 22.5-.3v-28.8z"/><path class="st2" d="M413.7 652.8c0 9.1-.1 19-.4 29.2l19-.3.6-28.9h-19.2zM492.1 681.2c-1.5-9.1-3.2-18.6-4.9-28.2h-14.1l2.7 28.5 16.3-.3z"/><path class="st2" d="M473.1 652.8h-18.3v28.8l21-.3z"/><path class="st0" d="m492.1 681.2-79 1c-.4 22-1.3 44.9-1.7 62.1l91.3-.3c-2.6-16.5-6.2-38.3-10.6-62.8z"/><circle class="st3" cx="83.6" cy="677.3" r="11.9"/><circle class="st3" cx="136.6" cy="631.1" r="11.9"/><circle class="st3" cx="188.5" cy="586.2" r="11.9"/><path class="st0" d="M213.8 694.2c-2.4 3.5-4.9 7-7.3 10.5l24.2 16.1c2.2-3.8 4.3-7.6 6.6-11.5l-23.5-15.1zM51.3 724.1c-1.4 7.4 28.4 21.4 35 18.6 2.7-1.1 30.2-28 62.1-58.9l-30.1-21.4c-35.3 30.7-66.4 58.5-67 61.7zM165 766.1c-1.4 4.2 25.2 16.9 30.3 13.6 1.7-1.1 12.4-19.2 26.6-43.3L197 718.7c-17.9 25.8-31.6 46-32 47.4z"/><path class="st2" d="M129 652.9c-3.6 3.2-7.3 6.3-10.9 9.5l30.1 21.4c3.6-3.5 7.4-7.1 11-10.8L129 652.9z"/><path class="st0" d="M109 746.5c-1.8 7 23.8 19.6 31.7 15.4 2.8-1.5 22-23.5 45.3-51.2l-26.6-18.9c-26.9 28.3-49.7 52-50.4 54.7zM178.8 671.8c-2.8 2.9-5.6 5.9-8.4 8.7l26.4 17.6c2.7-3.2 5.3-6.4 8.1-9.6l-26.1-16.7zM167.9 664.8l-30.2-19.3c-2.8 2.5-5.7 4.9-8.5 7.4l30.2 20.3c2.8-2.8 5.7-5.6 8.5-8.4z"/><path class="st2" d="M251.2 590.4c1.4 3.8-35.7 43.2-72.4 81.4l26.2 16.7c37.5-44.7 77.3-93.3 77.3-93.3s-36.2 52.2-68.5 98.9l23.6 15.1c28.8-50.3 61.8-109.1 61.8-109.1l-16.9-30.2-65 7.7s-39.1 33.1-79.6 68l30.2 19.3c40.8-39.5 81.8-78.2 83.3-74.5zM170.4 680.5c-3.6 3.8-7.3 7.7-10.9 11.3l26.6 18.9c3.5-4.1 7.1-8.4 10.8-12.7l-26.5-17.5zM197 718.5l24.9 17.6c2.9-4.9 5.9-10.1 8.9-15.5l-24.2-16.1c-3.3 4.9-6.5 9.5-9.6 14z"/><path class="st0" d="M518.7 280.5s3.2 8 10.2 20.3c7 12.3 13 43.6 13 43.6l56.5 6 25.7-3.6s-25.2 5.5 0-13c25.2-18.3 39.1-41.7 39.1-41.7l-87.7.4-56.8-12z"/><path class="st2" d="M526.1 208.7c-8.8-.4-3.5 7.4-7.4 9.8-3.9 2.4-13-8.7-17.8 1.4-4.8 10.1 8.4 6 9.8 16.4 1.4 10.2-9.4 3.2-9.4 13.3s10.8.7 14.1 5.3c3.2 4.6-12.6 2.4-11.2 14s14.4 9.4 14.4 9.4l65.7 14.4 83.5-7s18.6 4.2 21-5.2-9.8-9.4-13-17.2c-3.2-8 18.2-16.8 14-24.5s-14 .7-19.6-3.1 1.8-15.1-10.8-18.6c-3.8 10.2-14.8 19.2-14.8 19.2l-29.8 8.4-45.3-9.4-27.5-12.2c-.1 0-7.1-13.9-15.9-14.4zM575.1 210c7.4-2.8 6.2-11.6 18.5-14s9.5 8.8 17.9 8.8c2.7 0 5.5-.6 8.1-1.4-5-30.1-16.5-67.5-25.3-67.5-9.6 0-28 35.5-35.2 67.7 5.1 3.9 11.9 7.9 16 6.4z"/><path class="st0" d="M611.4 205c-8.4 0-5.6-11.2-17.9-8.8s-10.9 11.2-18.5 14c-4.2 1.5-10.9-2.5-16.2-6.4-1.5 6.6-2.5 13-2.9 19-2.4 35 13.6 64.6 13.6 64.6l28 5.2s24.7-36.6 24.7-63.8c0-6.6-1-15.5-2.7-25.2-2.6.8-5.4 1.4-8.1 1.4z"/><circle class="st1" cx="599.9" cy="222.7" r="9.1"/><path class="st0" d="M522.9 201.2c5.2-5.2 13 9.8 18.2 15.8s14.4 2.4 21.3 14.7c6.9 12.3 2.5 28.2 4.9 37.5 2.4 9.4 25.3 9.5 32.2 2.8 6.9-6.7 7.4-29.4 21.4-37.5 14.1-8.1 17.1-.7 23.9-3.9 6.9-3.2 7.8-23.3 17.1-20 9.4 3.2-.8 20.6-9.6 28.2-8.9 7.7-19.7.1-30.9 8.8-11.2 8.7-6.4 35.7-23.8 44.9-10.3 5.5-24.5 5-35.2-5.2-10.8-10.1-5.2-41.8-10.9-50.2-5.7-8.4-13.6-8-18.2-13.6-4.8-5.5-15.6-17.1-10.4-22.3z"/><path class="st2" d="M517.3 275.9c-3.8 4.6-3.8 10.8 3.2 13 7 2.4 31.3 9.5 69.8 10.6 38.4 1.3 73.4-1.8 76.8-5 3.2-3.2 2.4-10.2-3.2-13-5.6-2.8-38.3 4.2-72 4.2-34-.1-70.8-14.6-74.6-9.8z"/><path class="st0" d="M651.5 359.9c-.1-4.5 1-12.3-3.2-12.3-1.5 0-4.6 1.1-8.7 2.4l3.6 14.5c4.8-1.4 8.3-3.1 8.3-4.6zM639.4 338.8c2.4-5.6-2.8-11-6-11-1.8 0-4.9 2.9-9.2 6.2 2.4 4.5 5.5 10.8 6.6 13 4.1-3.1 7.6-5.9 8.6-8.2zM622.2 410.1c10.2 1 11.6-6.6 11.2-11.2-.1-1.7-4.1-2.9-9.2-4.5l-9.2 14c3 .8 5.5 1.5 7.2 1.7zM651.5 373.2c-.7-1.5-5.2-2-10.8-2.1l-3.5 15.4c3.1.1 5.5.1 6.9.1 6.5 0 9.3-9.1 7.4-13.4z"/><path class="st3" d="M614.2 370c-10.8 0-15.8-1.4-15.8-1.4s5.2 1.4 15.8 1.4c4.9 0 19.6-2.4 28.9-5.3l-3.6-14.5c-7.1 2.4-17.3 5.6-27.7 5.7-6.9 2.7-20.6 1.4-20.6 1.4s13.7 1.3 20.6-1.4c5.2-1.7 12.7-5.2 18.7-8.9-1.1-2.2-4.2-8.4-6.6-13-3.5 2.5-7.8 5.2-13.1 6.6-11.6 3.1-18.7 1.8-26.6 2.5-7.8.7-29.4-3.9-34-10.2-4.6-6.3-19-28.2-21.4-31.9-1.5-2.2-6.3-1.1-9.6 1.5 4.5 5 10.5 12.3 11 15.9.6 3.1-2.9 5.6-6.2 7.3 4.2 6.6 8.8 13.6 10.3 19.2 3.2 11.5-2.2 19.4-3.8 28.7-1.3 8-51.6 27.4-64.3 32.2 2.8 1.7 4.6 3.4 4.9 5.2 2.2 15-2 29.2-9.9 41.5 18.6-8.4 66.4-31.5 102.1-60.7 7-4.8 36.1 12.6 51.5 16.9l9.2-14c-9.6-2.8-23.6-5.7-26.7-10.9 8.4 1.7 28.5 2.7 39.8 2.9l3.5-15.4c-9.6-.2-22.8.7-26.4-1.3z"/><path class="st0" d="M530.3 318.2c-.6-3.6-6.7-10.9-11-15.9-2.1 1.7-3.8 4.1-3.8 6.6 0 3.4 4.2 9.6 8.7 16.6 3.2-1.7 6.7-4.2 6.1-7.3z"/><path class="st2" d="M535.9 417.6s-1.5 29.5 12.4 38c5.7-20.4-6.2-40-6.2-40s13.4 21.5 31 24.3c-9.4-22-19.3-36.4-19.3-36.4s18.9 19 34.7 20.3c-8.4-20.3-25.2-29.4-25.2-29.4l-19.2.6-8.2 22.6z"/><path class="st3" d="M517.3 394.4s-12.9 11.3-17.3 11.3c-4.5 0-10.6-14.5-8.2-17.8 2.4-3.2 16.8-4.5 16.8-4.5l19.6 8 3.2 33.6s-4.6 13-9.6 13c-5.2 0-13.3-7.8-13.1-13 .1-5.2 14.5-18.6 14.5-18.6l-5.9-12z"/><path class="st2" d="M508.5 383.5c-1.8 3.1 21.4 43.8 25.6 43.8 2.2 0 10.3-8.4 17.5-17.2l-31-36.5c-5.8 3.8-11.1 8.2-12.1 9.9z"/><path class="st6" d="M563.5 391.5c-1-4.8-24.2-23.8-30.2-23.8-2.8 0-7.8 2.7-12.7 5.9l31 36.5c6.5-8 12.3-16.4 11.9-18.6z"/><path class="st0" d="M433.7 395s36.4 7 37.6 15.5c4.5 29.4-16.1 56.1-41.5 71.3-25.3 15.4-33.8 20.4-33.8 20.4l-22.8-8-5.6-62.5 37.8 8 28.3-44.7z"/><path class="st3" d="M335.6 458s-2.9 43.6 6.7 58.2c16.5 25.2 84.9 16.8 127 9.8s44.9-8.4 44.9-8.4 19.6 29.2 26.6 29.2 1.4-11.3 1.4-11.3 7 8 13 3.9-3.2-12.2-3.2-12.2 13.6 5.3 14.4-3.6c.8-8.9-13-6.2-13-6.2s13.6-2.4 14-5.6c.4-3.2 1.4-8.4-4.2-9.9s-8 4.8-17.2 4.3c-9.4-.4-16.8-14.4-12.6-23.2 4.2-8.9 11.2-8.4 16.4-10.3 10.1-3.8 4.5-17.2-5.2-14.3-14.3 4.3-26.1 21.4-33.1 24-7 2.5-40.5 13-72.3 12.3S375.3 481 375.3 481l-6.4-77.9h-27.8l-5.5 54.9z"/><circle class="st3" cx="416.9" cy="458.7" r="11.5"/><circle class="st3" cx="441.3" cy="435.2" r="11.5"/><circle class="st3" cx="452.2" cy="406.4" r="11.5"/><path class="st6" d="M409.7 420.3c-15 10.2-41-2.7-41-2.7l2.7 34s25.6 9.4 46.1-.4c15.7-7.6 26.1-44.5 30.2-61.8-4.1-2.1-9.9-6.3-16.1-11.9-3.2 12-11 35.4-21.9 42.8z"/><path class="st7" d="M325.6 407.1s-18.6 74.8-20 83.5c-1.4 8.7 9.8 10.1 12.2 6.3 2.4-3.8 18.6-84 18.6-84s-8.8 76.3-8.4 82.5c.4 6 6.6 16.4 9.8 13 3.2-3.4 12.2-95.5 12.2-95.5l-24.4-5.8z"/><path class="st7" d="M342.5 412.9s3.2 94 4.2 102.5 14.4 7.8 15.7 3.6c1.1-4.2-2.7-106.1-2.7-106.1s8.4 100.7 11.2 104.9c2.8 4.2 10.8-3.2 10.8-16.4 0-13-6.6-97.9-6.6-97.9l-32.6 9.4z"/><path class="st3" d="M230.3 326.9c-1.5 0-6.4.4-12.7 1.3 5.2 26.7 23.2 121.8 31.6 166.2l10.1-2.8c-.2 0-24-164.7-29-164.7z"/><circle class="st3" cx="170.8" cy="344.2" r="11.9"/><circle class="st3" cx="178.4" cy="383.5" r="11.9"/><circle class="st3" cx="186.6" cy="423.8" r="11.9"/><circle class="st3" cx="198.5" cy="467.4" r="11.9"/><path class="st2" d="M228.7 387.4c-8.2 0-22.1 1.4-38.3 8.9 1 4.5 2.1 9.1 3.2 13.7 15.7-7.6 29.1-9.2 37.6-9.4-.8-4.4-1.6-8.8-2.5-13.2z"/><path class="st0" d="M228.7 387.4c-4.9-25.7-9.2-48.2-11.3-59.3-15 1.8-37.8 5.5-39 9.1-.7 2.1 4.9 28.1 12 59.1 16.2-7.6 30.1-9 38.3-8.9zM234.7 418.9c-1.1-6.2-2.4-12.2-3.5-18.2-8.5.1-22.1 1.8-37.6 9.4 1.4 5.9 2.8 11.7 4.1 17.5 15.5-7.2 28.8-8.7 37-8.7z"/><path class="st2" d="M249.1 494.4c-3.6-19-8.9-47.3-14.4-75.5-8.2 0-21.5 1.5-36.9 8.7 9.2 39.1 18.3 76.1 18.3 76.1l33-9.3zM211.1 552.7c-7.4 4.2-4.1 16.5-.1 19.2l60.3-5.2v-14h-60.2z"/><path class="st8" d="m217.1 521.8 2.4 22.4h43.8l8 8.5v14l-8 5.2-46.1 5.9s-4.6 14.3 5.6 20.7c10.2 6.6 61.2-5.9 72.3-16.8 11.2-10.9 30.2-70.3 16.2-86.4s-39.6-17.5-52.7-15.7c-13.1 1.8-19.9 15-19.9 15l-21.6 27.2z"/><path class="st8" d="M233.8 512.1s-22.1-.4-24.5 5.6c-2.4 6 2.1 17.2 8 17.8 5.9.4 14.4.4 18.6-2.4s4.2-9.4-2.1-10.8"/><path class="st1" d="M222.6 527.5s2.1-7.7 11.2-5.2"/><ellipse class="st3" cx="254.7" cy="508.8" rx="18.9" ry="17.2"/><circle class="st2" cx="233.8" cy="497.9" r="19.9"/><circle class="st0" cx="233.8" cy="497.9" r="11.2"/><circle class="st1" cx="233.8" cy="497.9" r="3.5"/><path class="st0" d="M219.5 535.9c-10.2 0-8.4 16.8-8.4 16.8h60.1s2.8-16.9-8-17.1c-10.8-.1-8.4 16.5-8.4 16.5s1.8-16.5-6.7-16.5c-8.7 0-8 16.5-8 16.5s3.1-16.1-5.7-16.4c-8.8-.3-8.4 16.4-8.4 16.4s3.7-16.2-6.5-16.2zM211 571.7l60.3-5.2s.4 15-6 15.8c-6.6 1-7.4-14.4-7.4-14.4s.7 14-6 15.4-9.1-14.4-9.1-14.4 3.8 14.4-5.3 15.8c-9.1 1.4-8.8-13.6-8.8-13.6s2.8 17.2-7.3 17.2-10.4-16.6-10.4-16.6zM342.3 516.3c-2-3.1-3.5-7.4-4.5-12.3-4.3 12.4-12.4 39.1-10.6 63.3 2.4 32.9 25.7 65.2 36.4 65.2 10.8 0 27-22.2 29.8-59.6 1.3-16.6-.1-30.1-2.2-39.8-22.2-.7-41.2-5.2-48.9-16.8z"/><path class="st0" d="m281.7 573 22.2 29.4 87.4-69.1c-16.6-.6-31.3-3.1-41-9.2L281.7 573z"/><path class="st3" d="M357.5 527.5c-.8 1.5-1.4 3.4-1.4 5.3 0 5.9 4.8 10.6 10.6 10.6s10.6-4.8 10.6-10.6v-.7c-7.4-.8-14.1-2.3-19.8-4.6z"/><circle class="st0" cx="291.9" cy="588.3" r="18.5"/><path class="st3" d="M346.7 568.5c4.6 5 11.7 9.9 20.1 6.6 10.8-4.3 10.3-21 9.2-29.8l-29.3 23.2z"/><path class="st0" d="M463.3 364.4c1.8 1.8 4.8 4.1 7.3 3.2 3.2-1 2-6.9 1.3-9.8-2.7 1.1-4.9 2.4-6.2 3.8-1.1.9-1.9 1.9-2.4 2.8zM488.9 350.4c.1.8-.1 1.5-1 1.8-1.7.6-4.3 1.3-7.1 2.2.1.3.3.6.6 1 1.7 2.7 5 6.6 8.5 4.3 4.8-3.3-1-9.3-1-9.3z"/><path class="st0" d="M472 357.6c1.1 2.5 3.9 7 8 5.5 3.8-1.4 2.5-5.3 1.3-7.8-.3-.3-.4-.7-.6-1-2.8 1.1-6 2.2-8.7 3.3z"/><path d="M444.2 350.4c10.9-17.2 33.6-13.1 33.6-13.1l14.8-10.1-11.2-18.2-12.2-23.3s-36.4 3.2-47.1 14c-10.8 10.8-21.4 31.9-11.2 51.7 8.8 17.1 25.7 31.6 35.2 37.2-4-9.6-9.5-26.3-1.9-38.2z" style="fill:#ffce00"/><path class="st5" d="M477.7 337.2s-22.7-4.1-33.6 13.1c-7.6 11.9-2.1 28.7 2.1 38 1.5.8 2.9 1.5 3.9 2 9.8 3.8 28.7-4.1 32.2-4.6 3.5-.6 8.2-19.2 3.2-18.6s-15.8 6-20 3.8-4.2-5.2 0-9.4 17.2-7.7 22.4-9.4c5.2-1.4-10.2-14.9-10.2-14.9z"/><path class="st1" d="m469.4 285.6 12.2 23.3 11.2 18.2-14.8 10.1s15.4 13.4 10.2 15.1c-5.2 1.7-18.2 5.2-22.4 9.4-4.2 4.2-4.2 7 0 9.4s15.1-3.2 20-3.8c4.9-.6.3 18-3.2 18.6s-22.4 8.4-32.2 4.6c-7.8-2.9-28.9-19.3-39.1-39.1-10.2-19.9.4-41 11.2-51.7 10.5-10.8 46.9-14.1 46.9-14.1z"/><path class="st0" d="M440.3 315.8c-1-3.4 19.3-6.2 22.8-4.6 3.5 1.5 6.2 10.2 0 10.2s-21.8-2.2-22.8-5.6z"/><circle class="st1" cx="456.8" cy="316.4" r="4.6"/><path class="st3" d="M477.7 320.6s-7.4.4-9.4 7c-1.1 3.9 1.4 9.8 5.6 9.8s18.2-1 22.8-2.8c4.6-1.8 3.8-8 0-13s-8-8.8-10.8-15c-2.8-6 0-10.2-5.6-18.2s-20.6-8-20.6-8"/><path class="st0" d="m447.4 263.3 19.2 5.2 11.3 17.2s-44.5 4.9-55.5 20c-8.8 12.2-11.2 25.7-12.2 44.3-1.4 27-27.5 58.7-43.8 64.7-16.4 6-47.1 5.6-51.7-7.4s1-74.5 1-74.5l26.1 1.8"/><path class="st2" d="M439 249.7c-13-.6-45.2-3.2-61.9 6.6-16.8 9.8-42.6 34.5-46.6 63.3-3.9 28.9-7.4 69.9-1.8 79.3 5.6 9.4 36.6 15.2 49.4-14.4 9.5-22.1 15.8-76.9 30.3-94.7 14.4-17.8 58.3-16.4 58.3-21.4S452 250.3 439 249.7z"/><ellipse class="st0" cx="368.7" cy="313" rx="13" ry="15.8"/><circle class="st0" cx="361" cy="380.4" r="14.3"/><path class="st3" d="M320.5 267.7c-6.4 8.8-20 22.1-26 48.4-6 26.3-32.6 25.9-36.8 31.5-4.2 5.6 4.2 12.2 9.8 12.2s41.5-15 46.6-43.3c5.2-28.4 16.4-30.8 16.4-30.8l42.9-36.6-7.4-7.1c-.1-.3-44.9 24.8-45.5 25.7z"/><circle class="st6" cx="390.1" cy="370" r="31.2"/><circle class="st2" cx="390.1" cy="370" r="16.8"/><path class="st0" d="M507.5 230.1c-5.6-2.4-65.3 4.5-65.3 4.5s66.7-13.7 66.7-18.9-2.5-15.4-7.6-15.4c-5 0-63.3 25.6-63.3 25.6s61.9-34 61.9-38.2-7.4-16.8-11.6-16.8-51.7 42.1-51.7 42.1 41.4-46.3 43.3-51c2-4.6-7-17.9-14.4-15.4S431 201.8 431 201.8s27.5-59.8 26.6-65c-1-5.2-8.8-9.4-13.6-7.4-4.6 1.8-25.6 68.1-25.6 68.1s14-66.1 12.6-72.7-15-7.4-19.6-4.2c-4.6 3.2-9.4 70.3-9.4 70.3s-2-68.9-6.2-71.7c-4.2-2.8-19 1.4-21 5.2-1.8 3.8 8.8 69.5 8.8 69.5s-20-62.5-25.2-64.3c-5.2-1.8-18.6 4.6-18.2 11.2.4 6.6 33.6 64.6 30.3 62.9-3.3-1.7-35.5-55.5-40.3-54.9-4.8.6-15 8.4-12.6 15.4s44 49.9 44 49.9-45-39.3-50.6-39.3c-5.6 0-14.4 11.6-8.4 18.6s53.8 30.9 53.8 30.9-54.2-13-58.9-12.3c-4.6.7-4.2 21 0 23.3 4.2 2.4 61.9-.4 61.9-.4s-54.5 18.2-57.3 22.4c-2.8 4.2 2.4 23.8 8.4 22.4 6-1.4 53.1-30.6 53.1-30.6s-40.1 37.1-41.5 43.6c-.8 3.8 6 8.5 12 11.9 8.8-22.2 28.8-40.3 42.5-48.2 15.8-9.2 45.4-7.3 59.7-6.6h0s64.3 1.8 69.5-.7c5.5-2.6 7.3-16.6 1.7-19z"/><circle class="st0" cx="400.1" cy="231.8" r="44"/><circle class="st2" cx="400.1" cy="231.8" r="34.3"/><circle class="st0" cx="400.1" cy="231.8" r="14.7"/><path class="st0" d="M330.4 319.6c-2.8 20.6-5.5 47.4-4.6 64.5 5.9 3.1 16.5 2.2 15.8-6.2-.8-9.9 2.5-73.1 10.6-100.9-10.5 11.6-19.6 26.4-21.8 42.6z"/><path class="st2" d="M457.6 569.9c14-3.2 20.1-30.3 20.1-30.3s-5.7 28 3.6 42.9c6-15.8 8-38.3 8-38.3s3.8 22.5 19.2 22.5c-13-39.1-11.6-48.9-11.6-48.9h-17.2l-8.2 8.4c-.2-.1-2.7 13.3-13.9 43.7z"/><path class="st2" d="M479.1 480.4c-4.6 1.4-7.1 26.6-7.7 39-.1 3.2-.1 5.6 0 6.6.3 2.4 11 .8 21.7-1.7l3.1-43.8c-7-.5-14.1-.9-17.1-.1z"/><path class="st6" d="M511.3 482.8c-2.4-.3-8.7-1.3-15.2-2l-3.1 43.8c9.9-2.4 19.9-5.5 21-6.7 2.3-3 2.1-34.4-2.7-35.1z"/><path class="st5" d="M422.1 532.1c-5.6.4-11.2.8-16.6 1V609c2.8.6 4.9 1.1 5.6 1.8 1 1 1.5 4.9 2 10.9h2.1c2.7-5.6 5.5-12.2 7.1-18.2 3.4-12.4.8-56.8-.2-71.4zM452 528.6c-4.8.7-9.6 1.3-14.5 2l5.9 91.7 14.8.3-6.2-94z"/><path class="st2" d="M262.8 748.4c0 5.6 98.9 17.8 101.6 12.2.7-1.4 1.3-12.3 1.5-27.4l-95.4-15c-4.4 16.8-7.7 28.7-7.7 30.2zM411.6 744.1c-.4 15.1-.6 25.9 0 27.8 1.8 7.7 94.4 7.3 95.6 1.7.3-1-1.4-12.2-4.3-29.8l-91.3.3z"/><path class="st0" d="m577.3 521.1-9.8-5.9v13l9.8 6.6z"/><path class="st0" d="M577.3 509.9c-3.1-1.5-6.3-2.7-9.8-3.4v8.7l9.8 5.9v-11.2zM577.3 534.8l-9.8-6.6v15.7l9.8 5.9z"/><path class="st0" d="m577.3 549.8-9.8-5.9v14.2l9.8 7.6z"/></svg>