<svg version="1.1" id="Calque_1" xmlns="http://www.w3.org/2000/svg" x="0" y="0" viewBox="0 0 900 900" style="enable-background:new 0 0 900 900" xml:space="preserve"><style>.st0,.st1,.st2,.st3,.st4{fill:#ffce00;stroke:#000;stroke-width:3.239;stroke-linecap:round;stroke-linejoin:round;stroke-miterlimit:10}.st1,.st2,.st3,.st4{fill:#fff}.st2,.st3,.st4{fill:red}.st3,.st4{fill:none}.st4{fill:#567500}.st5{fill:#a54700}.st5,.st6{stroke:#000;stroke-width:3.239;stroke-linecap:round;stroke-linejoin:round;stroke-miterlimit:10}.st7{fill:none}</style><path class="st0" d="M564.7 553.4c-13.3-13.7-23-3-23-3l-12 7.6 25.9 20 11.7 45.2s12.1 51.2 23.6 98.2l29.2-8c-15.4-34.7-30.3-71.1-31.4-84.1 7.2 18 23.4 51 39.3 81.7l24.3-13c-20.6-30.1-41.7-63.1-49-82 11.9 12.6 34.7 43.4 56.2 73.1l19.1-15.6c-47.8-50.4-98.3-104.2-113.9-120.1z"/><path class="st1" d="m697.8 693.7-21.9 18.1c2.3 3.2 4.5 6.2 6.7 9.2l21.6-20.5c-2-2.2-4.2-4.4-6.4-6.8z"/><path class="st2" d="M678.6 673.4 659.5 689c5.6 7.8 11.2 15.5 16.5 22.8l21.9-18.1c-6.1-6.5-12.6-13.3-19.3-20.3zM704.3 700.5 682.7 721c14.4 19.9 25.4 34.7 27.5 35.8 5.8 2.9 30.8-7.8 30.8-14.6-.1-2-15.3-18.9-36.7-41.7z"/><path class="st1" d="m667.2 719.4-27.1 14.3c1.9 3.5 3.7 6.9 5.5 10.1l27.6-15.9c-2-2.8-4-5.6-6-8.5z"/><path class="st2" d="m652.3 697.9-24.3 13c4.1 7.8 8.1 15.5 12 22.7l27.1-14.2c-4.7-6.8-9.7-14.1-14.8-21.5zM699.8 765.2c-.5-1.1-11.8-16.5-26.7-37.4l-27.6 15.9c11.9 21.6 21.2 37.2 23.2 37.4 5.2.3 32.4-12.9 31.1-15.9zM620.2 713.3l-29.2 8c2.3 9.5 4.7 18.9 6.8 27.6l33.4-11.1c-3.6-7.9-7.4-16.2-11-24.5zM636.6 749.7l-35.4 12.6c5.1 20 8.9 34.3 10 35.7 3.6 4.9 43.1-5.8 42.7-9.7-.2-1.4-7.6-17.2-17.3-38.6z"/><path class="st1" d="m631.1 737.6-33.4 11.1c1.2 4.7 2.3 9.2 3.4 13.4l35.4-12.6c-1.8-3.6-3.6-7.7-5.4-11.9z"/><circle class="st0" cx="669.2" cy="644.7" r="9.7"/><circle class="st0" cx="707.5" cy="685.9" r="9.7"/><circle class="st0" cx="740.9" cy="725.5" r="9.7"/><path class="st2" d="M515.2 613s16 15.9 38.9 20.4c22.9 4.5 17.5-14.3 17.5-14.3l-11.7-39.5-52.5-17.5-9.7 25.7 17.5 25.2zM549.5 791s-22-1.9-32.7 2.7c-10.7 4.6-28 19.8-28 24s9.2 11 9.2 11l53.8-25.9-2.3-11.8zM349.8 785.4s-17.2-1.7-28.6.8c-11.3 2.6-27.6 11.1-28.4 15.2-.7 4.1 4.6 12.9 4.6 12.9l52.3-14.6.1-14.3h0z"/><path class="st0" d="m545 835.8 35-7.8v-45.3s-9.9-39.2-10.8-41.1c-.8-1.9-6.3-38.5-6.3-38.5l-44.4-9.3-15.9 6.8s36 61.3 39.2 69.2 3.2 29.4 3.2 29.4-12.6 4.6-21.2 8.2c-8.6 3.6-21.9 11-26.1 16.2-3.5 4.3-7.3 11.4-8.5 16.8 5.8 1.5 15.3 3.4 25.7 3 10.9-.4 19.7-1.3 24.6-1.8-1-3.6 5.5-5.8 5.5-5.8zM359 679.4l-19.4 21.1s-1.9 45.1 2.2 62.4c4.1 17.2 8.4 29.5 8.4 29.5s-19.8 4.9-28.8 6.9c-9.1 2-23.5 7-28.5 11.3-4.2 3.6-9.3 9.9-11.3 15 5.5 2.5 14.4 6 24.7 7.4 10.9 1.5 19.6 2.2 24.5 2.5-.3-3.6 6.5-4.5 6.5-4.5l35.8-1.5 9.3-41.4s2.5-29.2 8.2-45.1c5.8-15.9 7.4-42.6 7.4-42.6l-39-21z"/><path class="st2" d="M443.3 705.3s3.9 13.2 0 28.3c-3.9 15.2-19.8 23.1-20.7 27.3-1 4.3 2.6 8.5 7.8 7.8 10.7-1.9 14.8-11.8 17.8-13s-3.9 26-11.7 31.2-10.6 3-13.9 5.2c-3.4 2.2-9.4 12-6.5 16.8 2.9 4.9 10.4 6.2 14.8 4.9-2.5 7.4-9.6 20.4-19 25.6-9.4 5.2-22 2.9-21.1 5.5 1 2.6 13 10.7 32.1-1.3 16.8-9.4 22.2-43.1 25.3-43.7 3-.6 5.2 4.5 5.2 11.3s-5.8 13-5.5 19.1 6.8 11.7 9.7 11.3c2.9-.3 0-9.1 1-17.2s9.7-13.9 9.1-22.7c-.6-8.7-3.2-11-5.2-15.9-1.9-4.9-2.3-23.7.3-23.7s6.8 9 13.3 12.2 21.7 8.7 20.1 5.7c-1.6-3.1-10.3-7.6-17.5-16.5s-14.9-18.8-17.8-22.3c-2.9-3.6-1.3-13.4 1.9-13.4s9.4 9 15.2 12.1 15.2 5.5 14.9 2.3-8.1-11.2-18.1-14.6-13.3-20.3-13.3-20.3l-18.2-2z"/><path class="st3" d="M430.6 802.8c6.2 0 5.9 10.7.2 11"/><path class="st1" d="m548.2 796 3.7 38.3s37.1-3.7 39-12c1.8-8-8.9-30.8-9-31.2l-33.7 4.9z"/><path class="st3" d="M503.8 831.8s-3.9 7-2.6 11.5M511.9 845.2c-2.6-6.7 2.9-13.5 2.9-13.5M521.3 845.2c-2.6-4.9 2.6-13.5 2.6-13.5M530.4 843.6c-2.6-5.1 1.6-11.9 1.6-11.9"/><path class="st1" d="M489.2 840.3c-.2 1-.4 2.1-.4 3 0 5.5 11.8 6.2 12.4 0 .3 6.7 11 6.2 10.7 1.9 1.3 7.1 9.7 4.9 9.4 0 2.3 4.7 9.1 2.6 9.1-1.6 2.6 6.2 10.3 1.6 9.1-1.9 0-.1-.1-.1-.1-.2-4.9.6-13.6 1.4-24.6 1.8-10.3.4-19.8-1.5-25.6-3zM347.4 792.4l-3.1 38.3s37.4 3 40.6-5c3.1-8-3.4-32.3-3.4-32.3l-34.1-1z"/><path class="st3" d="M297.5 819.8s-5.1 6.2-4.6 10.9M303.1 834.6c-1.4-7.1 5.2-12.7 5.2-12.7M312.3 836.2c-1.7-5.2 4.9-12.8 4.9-12.8M321.5 836.2c-1.7-5.5 3.7-11.3 3.7-11.3"/><path class="st1" d="M281.6 825.7c-.4 1-.7 1.9-.8 2.9-1 5.4 10.5 8.1 12.2 2.2-.8 6.7 9.8 8 10.2 3.8 0 7.3 8.7 6.5 9.3 1.7 1.4 5.1 8.5 4.1 9.2 0 1.5 6.5 9.8 3.4 9.3-.3v-.3c-4.9-.3-13.6-1-24.5-2.5-10.5-1.5-19.5-5-24.9-7.5z"/><path class="st2" d="M543.3 790.2c-2.6 4.5-1 9 1.6 9s15.5-2.9 21.5-2.9 14.2.6 16.4-1.3c2.2-1.9 1.9-11.3-1.9-11.7-3.9-.4-12.9-.8-17.8 0-4.9.9-17.2 2.3-19.8 6.9zM343.7 785.8c-3.4 4-2.5 8.7 0 9.1s15.7-.1 21.7.9 13.9 3.1 16.4 1.6 3.9-10.8.1-11.8-12.5-3.1-17.6-3.1c-4.9.1-17.2-.7-20.6 3.3z"/><path class="st1" d="M590.9 819.3c-2.9 0-49.7 14.9-52 16.5s.9 8.4 3.2 8.4c2.3 0 52.8-13.6 52.8-15.9-.1-2.2-1.1-9-4-9zM385.4 822.9c-2.9-.5-51.5 6-54.1 7.1s-.6 8.4 1.6 8.9c2.2.4 54.4-4.1 54.7-6.3.5-2.3.7-9.2-2.2-9.7zM339.6 596.7S322 646.1 322 650.2s25.3 10.8 25.3 10.8l19.7-76-27.4 11.7z"/><path class="st1" d="M517.5 583.9c-27.7-5.2-39.9-24.5-66.3-23.6-16.8.5-54.2 4.6-83.1 8-11.9 33.5-26.8 73-32.5 105.3 33-3.3 65.1 4.6 105.1 4.6 37.6 0 74.4-10.1 106.8-12.6-14.4-33-24.8-64.8-30-81.7z"/><path class="st1" d="M517.5 583.9c-2.5-8-3.7-12.7-3.7-12.7l-7.1-134.8-16.4-56.7-89.1 28.2-17.2 28.6s-1.7 35.2.5 69.4c.8 12.2-6.9 35.4-16.5 62.4 28.9-3.4 66.3-7.5 83.1-8 26.5-.9 38.7 18.4 66.4 23.6z"/><path class="st0" d="M360.6 461.1c5.8-8.6 10.4-18.3 13.7-26.9-24.9 2.1-62.6 4.9-66.2 2.3-5.4-4 1.7-27.9-.3-31.3s-14.6-.6-14.6-.6l-11.9 28-38 1.3-32.8-23.8s-7.9 6.5-5.2 12.1 30.9 22 28.3 24.2c-2.6 2.1-31.7-12.6-35.8-11.9s-3.7 9.7-1.9 11.9c1.7 2.2 41.8 11 38 12.7-1.4.6-35-5.2-38-3.2-3 1.9-.6 7.2 1.5 8.9s39.3 1.9 37.4 3c-1.9 1-20.1 1.7-22.3 5.1-2.1 3.4-.2 5.2 3.4 5.8s19.4-3.1 33.4-2.7c13.9.5 60.8 5.8 60.8 5.8l81.5 7.6 2.5-30.4c-9.7 3.3-21.5 5.3-33.5 2.1z"/><path class="st1" d="M383.5 461.7c-.1 8.3 0 17.9.3 28l17.6-.8.3-33.1c-5.2 2.4-11.4 4.8-18.2 5.9z"/><path class="st1" d="M417.3 446.4s-6.2 5-15.7 9.5l-.3 33.1 37.6-1.7v-33c-11.9-2.7-21.6-7.9-21.6-7.9zM460.4 447.2c-2.5-1.3-7.3-1.4-11.8-1.1 1.2 3.2 2.5 6.3 3.8 9.5-4.5.1-9.1-.5-13.4-1.4v33l33.7-1.6c0 .1-7-35.5-12.3-38.4z"/><path class="st1" d="m479.5 371.7-82.9 36.2-2.3 3.4 44.6 4s3.6 14.8 9.6 30.9c4.5-.3 9.3-.2 11.8 1.1 5.4 2.8 12.3 38.4 12.3 38.4l39.2-45.3-32.3-68.7zM157.4 590.8c3.9 1.3 94.1 20.1 94.1 20.1l2.7-11.1-103.3-29.5c1.8 9.9 4.5 19.9 6.5 20.5z"/><path class="st1" d="M150.7 551.4c-2.1-.1-1.5 9.3.3 19l103.3 29.4 3.6-14.8c-.1 0-102.9-33.5-107.2-33.6z"/><path class="st2" d="m538.3 515.5 3.4 34.9 70.6 4.5 19.5-21.5-4.3-20.7-24.5-9.6h-41.8z"/><path class="st1" d="M548.5 545s2.6-11.1 6.2-11.1 5.2 11.1 5.2 11.1.6-11.4 4.9-11.6c4.2-.2 4.4 11.4 4.4 11.4s3.7-11.9 7.4-11.4 4.5 9.7 4.5 9.7 3-10.2 7.8-9.1c4.7 1.1 3.2 10.9 3.2 10.9s4.3-11.9 9.7-9.8c5.4 2.1 1.3 12.6 1.3 12.6l-27.2 3-27.4-5.7z"/><path class="st1" d="M538.3 554.9s.9 14.4 6.7 14.4 5.8-15.2 5.5-14.4c-.3.8 1.6 13.8 6.8 13.8 5.2 0 6.3-13.9 6.3-13.9s1 15 6.9 15 6-15 6-15 1.7 14.8 6.6 14.8 8.8-12.8 8.8-12.8-1.7 13.1 3.2 14.7c4.9 1.7 9.3-13.7 9.3-13.7s-3.2 16.1 2 16.6 9.1-12.4 9.1-12.4l-5.2-11.3-61.9-3-10.1 7.2z"/><path class="st4" d="M585.6 301.1c.8-.6 17.4-25.3 17.4-25.3l-24.7-12.1-6.6 24.1 5.4 16.3 8.5-3zM620.4 301.1l11.2-24.6 23.8 12.3-19.1 33zM663.2 332.7l14.9-26.7 21.4 9.3-26.3 41.4-11.3-6.4z"/><path class="st4" d="m610.4 301.1-26.2-9-31.1 131.6 10.5 1.6z"/><path class="st2" d="m571.7 287.8-27.8 134.4 9.2 1.5 31.1-131.6zM620.4 301.1s-49.6 124.1-49.9 124.2l3.2 13.2 3.2.8 54.8-131.4-11.3-6.8z"/><path class="st4" d="m652.5 320.2-20.7-12.3L577 439.3l20.4 4.9z"/><path class="st2" d="m663.2 332.7-52.8 109.2-7.4 25 11.7 1.3 60.9-126.4z"/><path class="st4" d="m693.3 354.9-17.7-13.1-60.9 126.4 5.7.7z"/><path class="st0" d="M381.8 410.1s-6.4 29-21.2 51c29.2 7.8 56.7-14.7 56.7-14.7s17.7 9.7 35 9.3c-8.2-19.2-13.4-40.4-13.4-40.4l-57.1-5.2z"/><path class="st2" d="M351.3 392.4c-2.5-5.6 22.1-14.9 34.7-12.3s26.7 11.9 26.7 11.9l-16.4 9.9s3.2-6.7-12.5-7.6c-15.9-1-29 5.9-32.5-1.9z"/><path class="st5" d="M434.6 393.9c11.9 7.5 36.1.1 47.9-4.3l2.3-98.2-92.8-6.5s-19.2 15.7-17.5 21.4c1.7 5.6-4.5 44.7-8.9 49-1.4 1.4-2.2 4.2-2.5 7.3 8.7-3.2 21.5-7.2 36.1-9 26.8-3.3 19.2 30.1 35.4 40.3z"/><path class="st1" d="M392.6 329.5c-3.3 2.1-5.1 12.5 0 14.6s26.9-4.6 25.6-9.1c-1.4-4.6-22.4-7.5-25.6-5.5z"/><circle class="st1" cx="400.4" cy="335.7" r="4.1"/><path class="st1" d="M367.9 374.5s-.1 9.7 3.7 10.2c3.9.5 6-11.1 6-11.1s2.1 9.8 5.2 11.1 7.8-13 7.8-13-1.3 15.4 2.6 15.5 10.8-15.5 10.8-15.5l-19.7-7.2-12.7 3.1-3.7 6.9z"/><path class="st2" d="M434.6 393.9c-16.1-10.2-8.6-43.6-35.3-40.4-14.6 1.7-27.4 5.7-36.1 9-.5 6.1 1.4 13.1 4.8 12 5.2-1.7 27.4-1.5 33.9 5s2.6 19.2-6 16.4c-8.6-2.8-17.7-1.5-22.9.3-5.2 1.7-3.2 9.7-2.4 14.4.8 4.7 25.2 17 39.6 17.9 14.4.8 71.6-8 71.6-8l.7-30.9c-11.8 4.3-36.1 11.8-47.9 4.3z"/><path class="st5" d="M378.7 347.3c6-.5 11 6 7.1 14.7-3.9 8.6-8.6 0-12.5 1.7s-8.2 5.4-13.4 3.2c-5.2-2.1-6.3-3.7-4.1-12.8 2.1-9.1 10.9-18.8 13.2-22.2 2.2-3.4-.5-22.5 1.3-26.4 1.7-3.9 4.7-11.7 10.8-14.3l38.4 4.7"/><circle class="st0" cx="610.8" cy="62.9" r="9.1"/><circle class="st0" cx="568.9" cy="59.1" r="9.1"/><circle class="st0" cx="527.1" cy="62.9" r="9.1"/><path class="st0" d="M520 83.7s26.1-2 62.8 3c36.7 5 66.1 13.4 71.3 15.1 5.2 1.7 3.2 10.4-1.9 9.5-5.1-.9-73.7-13.8-73.7-13.8s69.1 17.7 73 20.9c3.9 3.1 2.9 9-1.3 9.1s-51.4-14.4-70.4-15.7c10.8 3.5 65.6 20.9 69.1 24 3.4 3.2 1.7 11.4-3.4 11.4-5.2 0-58.1-20.5-79.2-22.5-21.1-1.9-34.1-3.4-45-3.2L520 83.7z"/><path class="st0" d="M440.2 141.1s19-57.5 77.7-70 102.8 1.3 108.4 4.1c5.6 2.8 5.4 12.1-.6 12.1s-43.5-17.5-105.6-.6c-2.1 8.6 1.1 34.8 1.1 34.8s-13.2.2-28.3 7.9c-11.8 6-28.4 46.3-28.4 46.3s1.7 21 0 21.1-21.2 2.3-21.2 2.3l-3.1-58z"/><circle class="st0" cx="521.3" cy="138.2" r="9.1"/><circle class="st0" cx="592.5" cy="143.3" r="11"/><circle class="st0" cx="554.9" cy="135.7" r="11"/><circle class="st0" cx="630.5" cy="154.7" r="11"/><path class="st3" d="M578.5 97.5C554.3 95 524.9 95 524.9 95M579.7 111.7c-28.5-5.2-58.5-3.8-58.5-3.8"/><circle class="st2" cx="520" cy="95" r="11.3"/><path class="st2" d="M582.2 86.6c-5.5-.7-10.8-1.3-15.7-1.7.8 7.8.3 29.9-.1 39.8 4.4.4 10.2 1.6 16.6 3.3.4-9.7 1-32-.8-41.4z"/><circle class="st0" cx="521.3" cy="118.3" r="11.3"/><circle class="st0" cx="484.3" cy="79.8" r="24.7"/><circle class="st2" cx="484.3" cy="79.8" r="11"/><path class="st2" d="M192.8 174.1c4.3 7.6 17.3 6.2 19.9-1.9 1.5-4.7 2.4-10.8 3-16.6l-24.2-6.3c-1.8 9.8-1.9 19.3 1.3 24.8z"/><path class="st1" d="M228.6 117.3V90.8l-16 8.4c-.9.3-7.6 12.7-13 24.7l21.9 7.6c3.3-7.3 7.1-14.2 7.1-14.2z"/><path class="st2" d="m221.6 131.5-21.9-7.6c-1.8 4-3.4 8-4.6 11.4l22.4 7.3c.7-3.1 2.3-7.2 4.1-11.1z"/><path class="st1" d="m217.4 142.6-22.4-7.3c-.4 1-.7 2.1-1 3-1 3.6-1.9 7.3-2.6 10.9l24.2 6.3c.5-4.1.9-8.2 1.5-11.6.1-.4.3-.9.3-1.3z"/><path class="st0" d="M446.3 156.3s-12.5-49.4-63.5-63.6-79.5-7.3-79.5-7.3v12.5s38-8 80.8 7.8 50.7 53.6 50.7 53.6h13.9l-2.4-3z"/><circle class="st0" cx="314" cy="75.2" r="8.6"/><circle class="st0" cx="391.2" cy="86.7" r="8.6"/><circle class="st0" cx="420.6" cy="105.7" r="8.6"/><path class="st1" d="m238.2 93.5-12.5 1.7s-1.2 16.9-1.6 34.2l18.7-1.5c-2.5-16.6-4.6-34.4-4.6-34.4z"/><path class="st2" d="m242.8 128.1-18.7 1.5c-.1 5.6-.1 11.3-.1 16.5l21.2-3.3c-.8-4.5-1.6-9.6-2.4-14.7z"/><path class="st1" d="M245.3 142.7 224 146c.2 7.5.6 13.9 1.7 17.5l21.8-10.7c-.7-2.5-1.4-6-2.2-10.1z"/><path class="st2" d="m247.6 152.8-21.8 10.7c.2.6.4 1.2.6 1.6 4.7 10 10.8 17 17.3 19s13-2.8 13-8.4c0-5.6-4.3-11.5-8.2-20.6-.5-.7-.7-1.5-.9-2.3zM153.9 86.7s16.1 16.5 44.7 17.7c.3 0 .7 0 1 .1V77.2c-18.5-1.2-45.7 9.5-45.7 9.5z"/><path class="st0" d="M200.1 77.1h-.5v27.3c28 1 41.9-7.4 41.9-7.4v-8.2c.1 0-22.8-10.3-41.4-11.7z"/><path class="st2" d="M235.8 76.7c-3.9 0-6.5 26.8 0 28.5 2.9.8 14.4 1.1 27.1 1l1.7-29.6c-14.1-.3-26.8.1-28.8.1z"/><path class="st1" d="m264.5 76.7-1.7 29.6c4.4-.1 9-.1 13.4-.3l1.4-28.8c-4.3-.3-8.7-.4-13.1-.5z"/><path class="st0" d="M299.9 80.6c-5.1-1.7-13.4-2.8-22.3-3.4l-1.4 28.8c11.1-.3 21.2-1 24.7-2.1 9.2-2.6 14.5-17.9-1-23.3z"/><path class="st2" d="M321 96c-.2 7-.5 27.1 2 33.6 1.9 5.2 23.3 6 39.2 5.2l.5-35.4C346.3 96 331.6 95.5 321 96z"/><path class="st1" d="m362.7 99.4-.5 35.4c8.6-.5 15.6-1.4 17.2-2.4 2.9-1.9 4.6-16.8 5.4-26.5-.3-.1-.5-.2-.7-.3-7.3-2.7-14.6-4.7-21.4-6.2z"/><path class="st0" d="M388.7 186.6s-18.9-9.3-37.4-1.9c-18.6 7.3-30.4 34.3-35.6 39s-15.7-.1-15.7-.1 6.7 18.2 25.5 8.9c13.8-6.8 11.9-30.4 30.9-37.2s32.6 11.9 42.6 3.6c9.7-8.2-10.3-12.3-10.3-12.3zM540.4 196.8s26.8-.8 38.4 2.2c11.6 3 14.1 9.1 20.9 15.9 6.9 6.8 31.7 1.9 31.7 1.9s-10.5 12.8-25.7 12.8-20.3-14.2-31.9-19.9c-11.6-5.7-40-2.7-40-2.7l6.6-10.2z"/><path class="st1" d="M543.9 223.5V214c-19.2-.5-43.3.5-43.3.5l1.2-6.6 37.4-11.7-3-9.7c-12.7 5.8-27.7 13.7-35.2 16.7L489 214l-5.2-7 35.1-36.9-6.9-5.7c-11.6 13.9-26.2 33.8-28.2 32.4l-6.5-1.6 14.8-38.7-7.7-4.1c-7 17-15.2 40.6-15.2 40.6l-4 .5s1.2-30.3 1.9-41.8H458c.1 18.9 1.5 44 1.5 44l-9.2 1.3s-8.4-31.5-11.8-44.4l-12.4 3.9c6.5 16.2 19.2 39.6 19.2 39.6l-5.2 6.3-26.9-36.1c-4 4.9-8.7 11.6-13.7 20.3-7.8 14-9.8 28.7-10.9 37.2 14 1.3 35.2-.1 35.2-.1l79.6 5.6s4 .5 10 1.2l-5.5-8.4 36 1.4z"/><path class="st1" d="M508 143.2c.8-10.4-9.9-12.3-15.1-8-1.7 1.4-5 8.5-8.6 17.1l16.3 8.8c4.1-7.6 7.2-14.4 7.4-17.9zM537.4 165.7c1.7-6.9-4.7-16-12.1-14.3-2.5.6-7.5 6-13.3 13l15 12.6c5.7-5 9.9-9.1 10.4-11.3zM476.9 133.3c-2.1-10.4-15.7-11.7-18 0-.6 3.4-.9 10.3-.8 18.2h18.1c.9-8.1 1.5-15 .7-18.2zM443.9 138.5c-9.5-16-23.5-5.8-21.3 6.7.5 2.7 1.8 6.6 3.6 11.1l22.5-7.1c-1.4-4.1-3-7.9-4.8-10.7zM559.2 201.7c11.7-6.5 7.6-21.6-3.2-22-3.5-.1-11.1 2.9-19.8 6.7l6.4 20.6c7.2-1.6 13.3-3.4 16.6-5.3zM566.8 216.8c-1.7-1.7-11.5-2.5-22.9-2.8v18.9c10.6.5 19.9.5 22.9-1.2 8.2-4.3 4.7-10.3 0-14.9z"/><path class="st6" d="M469.2 192.9s4.7-23.5 6.9-41.4h-8.9c-.8 11.5-1.9 41.8-1.9 41.8l3.9-.4zM488.9 214l12-10.8c-3 1.2-4.9 1.7-4.9.9.1-2.8 18.7-16.6 30.9-27.2l-8.2-6.8-35.1 36.9 5.3 7zM500.7 214.5s24-3.2 42-7.4l-3.4-10.8-37.4 11.7-1.2 6.5zM483.8 196.8c-2.1-1.5 9.1-20.2 17-35.6l-8.6-4.7-14.8 38.7 6.4 1.6zM543.9 223.5l-35.8-1.4 5.5 8.4c8.1.8 19.8 2 30.3 2.5v-9.5zM459.6 195.5s-4.1-27.5-10.9-46.3l-10.2 3.2c3.4 12.8 11.8 44.4 11.8 44.4l9.3-1.3zM445.5 195.9s-16.3-21.8-26.7-36c-1.5 1.6-3.4 3.6-5.5 6.3l26.9 36.1 5.3-6.4zM440.2 211l-35.9-32.4c-1.6 2.4-3.1 5-4.7 7.8-.8 1.4-1.4 2.7-2.1 4.1l37 22.7 5.7-2.2zM429.9 216.8l-36.4-16c-1 3-1.7 5.9-2.3 8.6 10 2.9 37.5 11.3 37.5 11.3l1.2-3.9z"/><path class="st1" d="M418.8 159.9c-1.7-2.5-3.4-4.7-4.7-6.5-8.9-12.7-28.7 8.9-13.2 22.2-19.9-8.6-34.1 7.8-11.7 23.3-21.2-6.1-19.2 17.8-11 22.4 2 1.2 5.8 1.9 10.4 2.3 1.1-8.6 3.1-23.3 10.9-37.2 7.7-13.3 15-22 19.3-26.5z"/><path class="st4" d="M428.6 233.9c-3 1.3-44.5 6.9-54.9 4.3-10.4-2.5-10.2-19-.6-21.2 9.5-2.1 61.5 8.6 61.5 8.6l75.2 3.9s48.1 16.1 52 21.8c3.9 5.6-2.4 14.7-14.4 11.7-12.1-3-41.5-26.1-41.5-26.1l-39-.1-38.3-2.9z"/><path class="st3" d="m401 175.6 39.2 35.4M397.6 190.4l37 22.8M389.3 199l40.6 17.8"/><ellipse class="st1" cx="469.2" cy="225.7" rx="45.3" ry="35"/><ellipse class="st2" cx="469.2" cy="225.7" rx="34.7" ry="26.8"/><ellipse class="st1" cx="469.2" cy="225.7" rx="14.6" ry="11.3"/><path class="st1" d="M449.3 356.7c-7.3-6.6-.1-38.5 3.5-44.6 3.6-6 22.6-6 26 0s-.8 44.6-.8 44.6-21.3 6.6-28.7 0z"/><path class="st0" d="M461.8 354.4s-11.5-6-15.7-3.4c-4.1 2.6-6.4 13.9-2.2 16.6 4.1 2.8 12.6-6.2 15.3.1 2.7 6.3-8.6 11.5-13.1 15.8s-5.6 13 .6 15.1 8.6 6 8.6 11.7-9.2 13.2-16.5 16.2c6.5 3.2 28.6 5.2 30.3-7.8s-.8-11.9-.8-16.6 11.2-8.1 11.2-8.1l-2.1-40.9-15.6 1.3z"/><circle class="st0" cx="449.7" cy="493.9" r="9.7"/><path class="st0" d="M472.7 485.7S347.5 566 333.2 568.8s-37.8-8.2-54.2.5c-16.4 8.6-36.3 7.3-39.7 11.2s.6 7.1 5.4 9.3c4.7 2.1 24.2 4 31.7-1.9 7.6-6 48.1 17.9 60.7 17.9 12.5 0 135.6-62.6 135.6-62.6l45.3-25.6 42.8-54.8 2.9-31.4-8.8-2.7-37.3 11.8h-5.8l-39.1 45.2z"/><path class="st1" d="M442.6 496c-4.5 0-93.8 63.3-95.2 66.2s17 30.3 20.6 31.7 114.5-51.4 112-56.7c-2.4-5.3-32.8-41.2-37.4-41.2z"/><path class="st2" d="M392.6 545s-5.8-27-8.5-29-13.8 3.4-13.8 6 13.8 25.7 13.8 25.7l8.5-2.7zM377.8 554.8s-11.1-24.4-13.8-26.4-11 3-11 5.6c0 2.6 16.3 23.5 16.3 23.5l8.5-2.7zM360.4 564.7s-13-28.2-15.6-30.2-9.5 3.4-9.5 6 16.6 26.8 16.6 26.8l8.5-2.6zM370.3 586.8s4.3 19.4 6.2 21.6c1.9 2.1 14.6-4.1 12.5-6.5s-14.6-16.8-14.6-16.8l-4.1 1.7zM389.2 577.8s5.7 20.3 8.2 22.5c2.5 2.1 15.4-1.4 12-6.4s-13.3-19.4-13.3-19.4l-6.9 3.3zM404.5 565.8s9.6 23.1 12.1 24.8 12.8-6.3 10.4-8.9c-2.4-2.5-17.6-19.7-17.6-19.7l-4.9 3.8z"/><path class="st1" d="M205.3 640.2s-.2 14.6 7.6 16.8 74.5 1.9 77.3.6c2.8-1.3 1.3-11.2 1.3-11.2l-86.2-6.2zM383.8 488.7c-.3-9.7-.3-19-.3-26.9-7.2 1.3-15 1.4-22.9-.7 5.8-8.6 10.4-18.3 13.7-26.9-24.9 2.1-62.6 4.9-66.2 2.3v45.2c1.2.1 1.9.2 1.9.2l73.8 6.8z"/><path class="st2" d="M341.4 459.7s4.6-27.8.6-29.9c-4-2.2-10.2-1.3-11.7 1.9-1.6 3.2 2.9 28 2.9 28h8.2zM356.7 458.5s-4-24.9-3.7-29.9c.3-5.1 12.4-3.6 12.4 0s-1 29.1-1 29.1l-7.7.8zM315.3 458.5s-8.5-19.5-8.5-24 9.3-6.9 11.4-2.1c2 4.7 4 26.1 4 26.1h-6.9zM312.3 484.2s-10.6 20.8-9.6 26c1.1 5.2 15.5 5.4 15.5 1.1v-27.2l-5.9.1h0zM333.2 485.7s-5 23.8-5 27.5c0 3.7 14.1 4.9 15.1.6 1.1-4.2-3.7-29.2-3.7-29.2l-6.4 1.1zM356.9 487.3s-2.3 24.9 0 28c2.3 3.1 14.8.8 14.7-2.1 0-2.9-7.2-26.2-7.2-26.2l-7.5.3z"/><path class="st0" d="M553.4 567.4c-19.9-7.2-26.8-17-26.8-17l-32.2-11.5s-10.2 29.2 6.7 32.5c16.8 3.2 50.3 15.8 55.5 39.6 3.7 16.9-10.4 26.8-18.9 31.1 1.8 4.7 3.8 9.4 5.8 14.3 11.7-5.2 38-19 41-40.6 3.9-28-11.2-41.3-31.1-48.4z"/><path class="st4" d="M642.8 503.1c-1.7-5.8-17.4-.3-20.3-14.4s-22.8-38.6-22.8-38.6l-33.8-16-5.9 5.4c-.2 9.3-8.2 26.9-20.9 40.6-8.9 9.5-15.8 17-21.4 24.6l-.2 17.5 10.4 13 10.4-7.2s28-16.9 55.5-15.2c27.5 1.7 37.4 7.9 41.3 6.3 3.9-1.6 0-8.9 0-8.9s9.4-1.4 7.7-7.1z"/><circle class="st4" cx="603" cy="480.2" r="24.7"/><circle class="st2" cx="603" cy="480.2" r="11"/><path class="st3" d="M623.2 503.1c-1.6 7.2 8.1 8.2 11.9 7.2"/><path class="st7" d="M391.6 710.8zM455.2 711.5zM569.2 709.4c-1.2-.4-2.5-.7-3.8-1 1.1.3 2.4.7 3.8 1z"/><path class="st1" d="M442 685.2c-2.9-1-4.2 22.2-19.7 26.6-4.6-6.5-9.6-32.1-13.7-30.6-4.1 1.4-17 29.7-17 29.7 17.9 1.6 38.4 2.7 59.6 1 1.4-.1 2.7-.2 4-.3-4-11.8-10.3-25.4-13.2-26.4zM362.9 708.3c-4.5-3-10.6-19.2-13.2-26.9-5.1 2.3-5.1 21.4-15.3 29.6 7.9-5.6 29.3-2.5 57.1-.1 0 0-12.1-12.9-13.7-26.6-6.2 3.5-10.7 15.5-14.9 24z"/><path class="st2" d="M440.7 678.1c-40 0-72-7.9-105.1-4.6-2.5 14.3-3.2 27.1-1.2 37.4 10.2-8.2 10.2-27.3 15.3-29.6 2.5 7.7 8.7 24 13.2 26.9 4.3-8.5 8.7-20.5 15-24 1.6 13.7 13.7 26.6 13.7 26.6h0s13-28.2 17-29.7c4.1-1.4 9.1 24.1 13.7 30.6 15.5-4.4 16.8-27.5 19.7-26.6 2.9 1 9.2 14.6 13.2 26.2h0c17.4-4.3 20.1-28.5 25.8-31.5s16.3 13.8 25.1 26.8c9.1-9.1 12.2-29.9 18.3-30.1 5.8-.2 9 22.2 40.9 31.7 1.3.3 2.6.6 3.8 1-8-14.1-15.3-29.1-21.8-44-32.2 2.7-69 12.9-106.6 12.9z"/><path class="st1" d="M524.4 676.6c-6 .2-9.2 21-18.3 30.1-8.8-13-19.4-29.8-25.1-26.8s-8.4 27.2-25.8 31.5c49.4-4.2 83.2-9.9 110.1-3.1-31.9-9.5-35.1-31.9-40.9-31.7z"/><path class="st2" d="M363 294c-4.4-6.5 3-45 18.9-58.8 11.8-10.2 36.5-7.6 72.7-5.5 36.3 2.1 50.7 11.1 65.4 22.8 14.7 11.7 23.3 72.2 21.6 115.1-1.7 42.9 17 66.7 17 66.7s-39.1 16-57.5 7.3c-18.3-8.6-26.4-34.1-26.4-67.8s7.4-65.6-3.9-68.2c-11.3-2.6-56.2-3-56.2-3s-47.2-2.2-51.6-8.6z"/><path class="st4" d="M442.4 267.6c38.9 6.7 59.1 8.6 57.8 32.8-1.3 24.2-4.3 96.7 7.3 109.7 7.8 8.7 21.6 7.3 29.7 5.4-8.8-27.3-6.2-53.9-6.6-80.1-.5-28.8-2.5-52-10.6-66.9-17.9-33.3-104.2-35-123.9-30.2-15.9 3.9-24.8 25.7-25.2 39.1 29.7 9.1 34.6-16.2 71.5-9.8z"/><path class="st0" d="M507.6 410.1c-11.7-13-8.6-85.4-7.3-109.7 1.3-24.3-19-26.2-57.8-32.8-36.9-6.3-41.8 18.9-71.3 9.7-.1 3.1.3 5.7 1.2 7.5 3 6.5 27.2 6.5 47.9 6.5s62.4-4.3 68.5 11.7c3.1 8.3-3.1 42-.7 71.6 2.2 27.5 8 47.9 16.3 52.9s36.3-3.7 36.3-3.7c-1.2-2.9-2.2-5.6-3.1-8.4-8.4 2-22.1 3.5-30-5.3z"/><path class="st1" d="M530.7 335.4c-.2-12.6-.7-24.1-1.9-34.3-4.6 1.9-17.6 8.3-17.9 16.5-.3 9.9 6.6 7.4 6.6 7.4s-11.5 5.7-10.2 16.1 11.5 7.5 11.5 7.5-15.2 6.2-10.9 20.1c3.4 11.1 17 16.1 23.5 17.6-1.4-17.2-.4-34.2-.7-50.9z"/><circle class="st0" cx="315.3" cy="481.8" r="7.2"/><circle class="st0" cx="360.4" cy="485.7" r="7.2"/><circle class="st0" cx="337.4" cy="461.4" r="7.2"/><circle class="st0" cx="318.2" cy="459.7" r="7.2"/><circle class="st6" cx="374.3" cy="557.5" r="7.2"/><circle class="st6" cx="337.4" cy="484.2" r="7.2"/><circle class="st6" cx="360.4" cy="459.7" r="7.2"/><circle class="st6" cx="371.6" cy="585" r="7.2"/><circle class="st6" cx="406.5" cy="564.2" r="7.2"/><circle class="st0" cx="389" cy="547.7" r="7.2"/><circle class="st0" cx="356.9" cy="567.4" r="7.2"/><circle class="st0" cx="391.6" cy="574.5" r="7.2"/><circle class="st0" cx="429.5" cy="554.9" r="7.2"/><circle class="st0" cx="409.4" cy="531.6" r="7.2"/><circle class="st0" cx="439" cy="510.3" r="7.2"/><circle class="st0" cx="463.1" cy="535.1" r="7.2"/><path class="st2" d="M333.2 257.6c3.6 1 9.5 20.9 19.8 33.8-9.5 1.3-17.2-13.2-20.5-8.4-3.3 4.7.6 26.6 10.6 39.7-11.7 3.2-16.7-10.8-20-6.3s-1.6 18.6 5.1 33.9c-13.2 3-20.1-13.6-20.1-13.6l13.3-72.5s8.2-7.6 11.8-6.6z"/><path class="st2" d="m333.2 257.6-30.6-5.1-2.3 12.3c7.1 1.4 17.8 3.8 17.8 5.8 0 2.5-16.5 62.2-22.1 82.4l10.7 3.7 26.5-99.1z"/><path class="st6" d="m300.3 264.8-15.8 84.3 11.5 4c5.6-20.2 22.1-79.9 22.1-82.4.1-2.1-10.7-4.5-17.8-5.9z"/><path class="st1" d="M252 340.8c-21.3-.4-39.7 3.2-54 7.5l1 26.5c14.3 3.4 32.3 6 52.6 4.9 12.8-.7 23.5-2.3 32.5-4.4l.3-31.2c-8.9-1.8-19.6-3.1-32.4-3.3z"/><path class="st2" d="M165.2 362.6s12.8 7.1 33.8 12.2l-1-26.5c-20.7 6.3-32.8 14.3-32.8 14.3zM284.4 344l-.3 31.2c26.6-6 37.4-15.6 37.4-15.6s-9.9-10.1-37.1-15.6zM307.5 394.4c3.7-5.9 7.7-11.1 12.2-14.8 0 0-5.2-4.7-70.4-4.2s-67.8 7.5-77.7 11.8c6.8 2.5 13.6 6.4 20.2 11.1 13.5-3.2 33.4-6.2 59.9-6.2 25.3 0 43.5 1.1 55.8 2.3z"/><path class="st1" d="M251.7 392.1c-26.5 0-46.4 3-59.9 6.2 20.5 14.4 38.7 35.5 48.9 40.7 13.5 6.9 35.4 4 43.6-2.7 6-4.9 13.1-25.8 23.1-42-12.2-1.1-30.4-2.2-55.7-2.2z"/><circle class="st0" cx="201.4" cy="314.6" r="11.2"/><circle class="st0" cx="199.7" cy="278.4" r="11.2"/><circle class="st0" cx="225.7" cy="248.2" r="11.2"/><circle class="st0" cx="272.6" cy="246.3" r="11.2"/><path class="st2" d="M245.6 334.9s1.8 29.6 8.3 29.6 7.6-30.9 7.6-30.9l-15.9 1.3z"/><circle class="st2" cx="252.3" cy="297.8" r="45.3"/><path class="st3" d="M252.3 297.8s4.4 7.8-1.7 7.8c-6.1 0-7.6-9.3-4.3-14.1 3.2-4.7 14.1-5.8 17.9 3.7 3.9 9.5-5.8 22-13.6 22s-16-5.8-18.1-16.8 9.1-22 17-23.3c7.9-1.3 23.5 2.6 27 14.4 3.4 11.9-3.4 33.1-19.4 36.2s-25.6-1.1-34.1-13.2c-8.6-12-6.3-34.3 9.5-44.9 18.1-12.2 44.1-2.6 51.6 11.3 7.6 13.8 3.7 49.4-29.6 55.7"/><circle class="st0" cx="453.4" cy="450.1" r="9.7"/><circle class="st0" cx="409.4" cy="444.2" r="9.7"/><circle class="st0" cx="384.1" cy="453.9" r="9.7"/><circle class="st0" cx="502" cy="459.7" r="9.7"/><circle class="st0" cx="513.8" cy="493.9" r="9.7"/><path class="st2" d="M613.4 439.5c-7.8.3-22 .6-30.6-5.2-8.6-5.8-9.7-15.4-22-18-5.4-1.2-9.3-1.2-12-.8 4.7 12.4 9.8 18.9 9.8 18.9 5.1 5.2-3.4 28.6-19.4 45.8s-25.7 27.9-32.6 43.9c-6.9 16 2.4 35.2 8.9 39.1 6.5 3.9 25.1 2.6 25.1-4.3s-13.8-25.1-13.8-37.4c0-12.3 27.4-37.6 30-38.4 2.6-.8-1.7 24.2.5 30.3 2.1 6 15.7.2 16.6-8.4.8-8.6-6.5-32.8-6.5-32.8s-2.4-25.7 1.5-29.6c1.9-1.9 4.7 5.7 15.4 9.8 11.1 4.3 30.1 5.1 34.8 4.2 8.8-2 2.1-17.4-5.7-17.1z"/><path class="st1" d="M529 525.6c-4.5 4.3-5.7 25.3 4.6 30.1 10.3 4.8 28.1.8 48.3 1.3 20.1.5 37.2 11.3 41.3 10.4s6.2-13.4 2.1-16c-4.1-2.6-24.4-8.2-44.2-8.2-19.9 0-29.8 2.1-33.2-2.6s-1.1-12.8-4.5-16.1c-3.6-3.4-9.8-3.2-14.4 1.1z"/><path class="st0" d="M584.3 296.2c-10.6-9.4-21.5-42.4-21.5-42.4h0c.6 3.1-1.1 6.5-4.6 8.4 4 12.3 8 36.9 20.1 45.3 13.9 9.7 31.4 14.9 37.6 7.4-11-4.7-21.1-9.3-31.6-18.7z"/><path class="st1" d="M670.3 503.6c1.4 7.6 9 7.4 11.9 11.1l7.6-9c-6.3-2.6-15.2-1.3-19.5-2.1zM647.6 620.8c.3-17.6 0-24.6 13.3-33.7.8-.5 1.6-1 2.3-1.5l-6.3-12.7c-19.3 10.8-27.9 33.3-9.3 47.9z"/><path class="st0" d="M657 572.8c-.1 0-.1.1 0 0l6.2 12.8c3.2-1.8 6.3-3.1 9.5-4l-6.3-13.3c-3 1.3-6.2 2.7-9.4 4.5z"/><path class="st1" d="M700.1 538.1c-8.7-8.3-36.6-.8-36.6-.8l6.2 10.4s20.1-5.7 23 4.3c2.4 8.4-10.6 9.8-26.2 16.3l6.3 13.3c9.3-2.9 18.5-3.3 26.8-9.6 11.5-9 9.3-25.6.5-33.9z"/><path class="st0" d="M697.2 517.5c0-6.7-3.2-10.1-7.4-11.9l-7.6 9c.6.8 1 1.6 1.1 2.8.1.5 0 1-.1 1.5l14-.9v-.5z"/><path class="st1" d="M683.2 519c-1.4 5.7-13.5 7.4-13.5 7.4v10.8s26.9-2.8 27.5-19.2l-14 1z"/><path class="st1" d="M647.6 532.2s19.4-7.2 22-5.7 2.6 20 0 21.2-22 0-22 0v-15.5z"/><path class="st0" d="M643 521c-11.5-2.1-34.5 7.6-37.4 11.3-1 1.2-1.4 3.1-1.6 5.1.8 1.7.6 4 .3 6 .1 1.2.3 1.9.3 1.9h0c9 1.6 16.3 3.8 19.6 5.4l22.2-28.2c-1.1-.7-2.2-1.3-3.4-1.5z"/><path class="st2" d="m646.3 522.6-22.2 28.2c.5.3.9.5 1.2.6 1.1.7 1.7 2.2 2 4 4.1.9 8.5 1.6 13.2 1.6 18.3-.2 15-27.4 5.8-34.4z"/><path class="st1" d="M593.8 512.9c-20-1.3-40.3 7.3-49.9 12.1 0 0 3.4 9.1 9.1 6.9 5.6-2.1 2.6-11.5 2.6-11.5s1.9 9.2 8.4 7.3 2.8-11.1 2.8-11.1 2.5 8.7 8.3 8.6c5.8-.1 5.2-10.8 5.2-10.8s.5 9.7 6.2 10.5c5.6.8 7.2-12 7.3-12-.1 0 1.3 11.5 6.8 12.6 5.4 1.1 8.7-10.5 8.7-10.5s-.2 11.7 4.9 13.1c5.1 1.4 9.1-11 9.1-11s-1.5 13.3 4.5 14.6c6 1.4 7.3-12.5 7.3-12.5-4 1.6-13.8-4.6-41.3-6.3z"/><path class="st0" d="M506.5 523.9c1.3-3 2.7-5.9 4.3-8.6-3-4.2-8.7-6-12 .4-3.7 6.9-42.7 24.8-39.2 38.7 13.9-7.3 27.9-11.2 27.9-11.2s-7.1 24.8 21.6 20.5c-5.2-4.3-5.5-11.7-4.1-19.4-1.4-6.5-1.3-13.8 1.5-20.4z"/><path class="st2" d="M470.9 442.9c0 3.9 11.7 34.3 11.7 34.3s-3 35.2-.5 38.7 23.4.8 22-3c-1.4-3.8-13.7-35.6-13.7-35.6s-.1-35-2.9-37.6-16.6-.7-16.6 3.2z"/><circle class="st2" cx="486" cy="477.3" r="8.4"/><path class="st1" d="M329.3 585.6c-7.8-4.3-12.3 2.9-13.5 5.7 6.2 4.9 9.9 11.3 9.4 17.6-1.2 14.4-15.1 26.2-33.7 26.2s-33.7-11.7-33.7-26.2c0-6.5 3.1-12.7 8.2-17.4-5.8.8-12.4.4-16.9-.5-3.7 5.3-5.8 11.4-5.8 17.8 0 20.7 21.6 37.5 48.1 37.5 26.6 0 48.1-16.8 48.1-37.5.1-8.8-3.7-16.8-10.2-23.2z"/><path class="st0" d="M271.2 596.9c-.6-8 7.6-15.9 10.8-18.4 5.6-4.5 12.8-5.2 11.3 2.9 1.9-4.1 9.7-3.5 9.5 3.7 2.4-3.3 10.2-3.3 9.6 3.4 3.4-5.2 10.9-.3 8.8 5.6-2.1 5.8-3.7 21.3-16.2 23.9-12.6 2.5-33.1-11.3-33.8-21.1z"/><path class="st3" d="m300.7 610.9 11.6-22.4M291.5 603.2l11.2-18.2M282.6 595.4l10.6-14.1"/><path class="st1" d="M291.5 635.1s-83.4-2.9-88.9-.6c-5.4 2.2-2.1 12.4 2.3 12.4 4.3 0 86.6-.5 86.6-.5"/><circle class="st0" cx="391.6" cy="493.9" r="9.7"/><path class="st2" d="M491.5 574c.1 8 .6 26.6 1.5 29.9 1.2 4.2 14.4 2.9 14.4 0v-22.7c-5.8-2-11-4.5-15.9-7.2zM472.1 564c-5.1-2.1-10.6-3.5-16.8-3.8-1.4 7.5-.7 29 1.7 41.2 2.3 2.5 4.8 4.9 7.4 7.3 7.7-4.1 6.7-33.3 7.7-44.7z"/><path class="st2" d="M464.4 608.8c-17-15.5-26.7-32.3-31.9-43.8-3.2 1.6-6.5 3.2-9.8 4.9 7.4 12.8 20 32.6 33.2 45.5 20.7 20.3 59.2 41 59.2 34.1.1-7-20.9-13.6-50.7-40.7z"/></svg>