<svg version="1.1" id="Calque_1" xmlns="http://www.w3.org/2000/svg" x="0" y="0" viewBox="0 0 900 900" style="enable-background:new 0 0 900 900" xml:space="preserve"><style>.st0,.st1{fill:#fff;stroke:#000;stroke-width:3.7837;stroke-linecap:round;stroke-linejoin:round;stroke-miterlimit:10}.st1{fill:#ffce00}.st2{fill:red}.st2,.st3,.st4,.st5,.st6,.st8{stroke:#000;stroke-width:3.7837;stroke-linecap:round;stroke-linejoin:round;stroke-miterlimit:10}.st4,.st5,.st6,.st8{fill:none}.st5,.st6,.st8{fill:#ff7300}.st6,.st8{fill:#007c00}.st8{fill:#806700}.st10{fill:#fff}.st11{fill:red}.st12{fill:#803a00;stroke:#000;stroke-width:3.7837;stroke-linecap:round;stroke-linejoin:round;stroke-miterlimit:10}.st13{fill:#84735b}</style><path class="st0" d="M322.8 587.3c-49.6-26.7-149.5-112.2-154.5-112.2-3.5 0-16 14.2-21.6 26.3l178.1 93.5c.5-3 0-6.5-2-7.6z"/><path class="st0" d="M146.7 501.4c-2.4 5.1-3.6 9.8-2.2 12.9 4.5 10.4 162.3 78.6 177.2 84.9 1.5.7 2.7-1.6 3.2-4.4l-178.2-93.4zM286.9 503.1l3.4-13.2 44.8-7.4 8.1 22.9-15.8 16-32.1 4.4z"/><path class="st1" d="M217.5 524.7c2.3-.8 3.1-5.1 3.3-9.2-7.3-.2-13.3.5-16.4 3.6-1.7 1.7-2.7 3.8-3.1 6 5 .3 13.1.6 16.2-.4z"/><path class="st1" d="m288.9 519-20.5-4.8s-13.1 4.2-28.2 2.7c-6.7-.6-13.5-1.4-19.4-1.6-.2 4.2-1.1 8.5-3.3 9.2-3.1 1-11.1.7-16.3.4-.8 4.8 1.7 9.9 6.9 11 7.6 1.5 30.3 6.4 51.5 13.2 21.3 6.8 29.7-11.7 29.7-11.7l-.4-18.4z"/><path class="st0" d="M277.9 619.7h-21.1c2.5 2.3 5 4.8 7 7l18.9.5c-1.2-2.7-2.9-5.2-4.8-7.5zM264.8 607.8l-19.6 2s5.9 4.5 11.7 9.8h21c-5.6-6.8-13.1-11.8-13.1-11.8zM288.1 655.2l-16.4 2.1c2.4 6.4 10.3 13.8 15.9 15.7 5.6 1.9 14.2-2.6 11.5-6.8-2.4-3.5-7.9-5.7-11-11zM283.1 628.4c-.2-.4-.3-.8-.5-1.1l-18.9-.5c1.5 1.7 2.7 3.4 3.4 4.8 2.2 4.6 2.5 10.9 3 16.5l15.7-.8c-.5-5.4.2-10.5-2.7-18.9z"/><path class="st0" d="M286.9 652.2c-.5-1.7-.8-3.3-1-5l-15.7.8c.3 3.4.7 6.7 1.5 9.1 0 .1.1.2.1.2l16.4-2.1c-.6-.9-1-1.9-1.3-3zM228.5 545.9l36.3 13s3.2 3.6 6.4 8.7l13.5-5.3c-3.6-5.6-7.9-9.7-11.6-12l-39.7-14.2s-13.5-6.2-25.8-.3l7.3 12.6c5.8-3.6 13.6-2.5 13.6-2.5z"/><path class="st0" d="m214.9 548.3-7.3-12.6c-2.2 1.1-4.4 2.6-6.4 4.5l10.5 10.8c.9-1.1 2-2 3.2-2.7zM275 575l13.9-4.5c-1.2-3-2.7-5.8-4.3-8.2l-13.5 5.3c1.5 2.2 2.9 4.8 3.9 7.4z"/><path class="st0" d="M275 575c1.7 4.1 2.6 8.4 2 12.3-2.2 12.3-25 11.5-41.7 3.9-11.4-5.1-20.1-11.3-24.1-19.5l-19.9-3.3c2.5 18.8 22.4 33.2 41.4 41.4 24.6 10.6 58.8 5.3 60.1-16.6.5-8.6-1.1-16.3-3.7-22.6L275 575zM208.8 558.8c.2-3.3 1.3-5.8 2.9-7.7l-10.5-10.8c-2.6 2.6-5.1 6-7.1 10.5-1.1 2.6-2 5.1-2.4 7.6l17.6 7.3c-.5-2.2-.6-4.5-.5-6.9z"/><path class="st0" d="m209.2 565.6-17.6-7.3c-.7 3.5-.8 6.9-.4 10.1l19.9 3.3c-.8-1.9-1.5-3.9-1.9-6.1z"/><circle class="st1" cx="293.1" cy="487.4" r="8.7"/><circle class="st1" cx="318.7" cy="521.4" r="8.7"/><path class="st2" d="M268.4 514.3s-21.8-13.8-24.2-19c-1.1-2.3 3.4-12 7.8-11s26.1 21.9 26.4 20.3c.4-1.7-22.8-24.1-22.6-27.9.2-3.8 8.3-9 11.2-8.1 2.9.9 23 27.2 23 27.2l-5.2 12-16.4 6.5zM290.1 534.6c-.2 11.2 13 26.7 16 28.5 3 1.7 10.4-3.3 11.4-7.1s-16.9-26.3-16.9-26.3 19.9 22.2 23.8 20.7c3.9-1.5 6.8-3.6 5.2-8.6s-24.1-21.7-24.1-21.7l-15.4 14.5z"/><path class="st2" d="M300.5 529.7c-3.5-.2-21.2-20.8-22.1-25-.9-4.2 9.2-11.4 11.7-8.8s20.3 19.5 22 26c1 3.7-8.1 8-11.6 7.8z"/><path class="st3" d="M289.3 537.6c-3.5-.2-21.3-19-22.2-23.2s8.8-12.2 11.4-9.7c2.5 2.6 22.3 21.2 22.1 25-.3 3.9-7.8 8-11.3 7.9z"/><path class="st1" d="M219 549.7c-1.1-7.9 5.3-13.1 9.8-16.3 4.5-3.3 13.8-2.7 11 3.5 4.2-3 13.9-1.3 12.4 4.2 7.3-4.2 11.4.4 11 5.1 5-2.1 11.4 2.7 9.5 7.3-1.9 4.6-5.7 21.3-10.6 23s-17.2 2.8-25-.8c-7.8-3.5-16.9-18.1-18.1-26z"/><path class="st4" d="M227 552s5.7-11.7 12.9-15.1M252.3 541.1c-10.1 5.1-17 22.4-17 22.4M263.3 546.1c-10.2 7.6-14.4 25.4-14.4 25.4"/><path class="st0" d="m192.4 587.6 6.1 14.2c3.3-.9 6.9-.9 11.7 0l-7.5-17.6c-3.6.6-7 1.7-10.3 3.4zM223.5 586.7v19.4c2.8 1.1 5.8 2.3 9.2 3.8.2.1.5.2.8.3v-19.7c-3.4-1.5-6.7-2.8-10-3.8z"/><path class="st0" d="m202.7 584.3 7.5 17.6c3.7.8 8 2.1 13.4 4.2v-19.4c-7.4-2.3-14.3-3.3-20.9-2.4zM154.7 615.2c-4.2 5.4 8.3 11.3 12.9 8.6 2.7-1.6 7.2-5.5 12.4-9.8l-14.8-7.8c-4.9 3.6-8.7 6.8-10.5 9zM165.2 606.1l14.8 7.8c2-1.7 4.2-3.5 6.5-5.1l-12.6-8.8c-3.1 2.1-6 4.2-8.7 6.1z"/><path class="st0" d="M189.5 589.3c-4.9 3.3-10.4 7-15.7 10.7l12.6 8.8c1.5-1.1 3-2.3 4.5-3.3 2.5-1.7 4.8-3 7.5-3.6l-6.1-14.2c-.8.4-1.8 1-2.8 1.6zM275.5 591c-1 1.4-2.3 2.6-4 3.4l16 11.6c1.4-1.4 2.6-3.1 3.6-4.8L275.5 591zM235.3 591.3c-.6-.3-1.3-.5-1.9-.8v19.6c8.1 3.3 17.3 5.1 26 5.1l-5.5-18.8c-6.2-.7-12.8-2.5-18.6-5.1zM253.9 596.4l5.5 18.8c2.2 0 4.4-.2 6.5-.4l-4.5-18.1c-2.4.2-5 .1-7.5-.3z"/><path class="st0" d="m261.3 596.8 4.5 18.1c8.9-1 16.6-3.9 21.6-8.9l-16-11.6c-2.6 1.4-6.1 2.2-10.1 2.4z"/><path class="st2" d="M306.1 790.4s-40.1-1.4-44.6 1.5c-4.5 3-4.1 13.2.8 14.7s43.9-7.2 43.9-7.2l-.1-9h0zM491 787.5s-43.9-7.7-48.4-4.8c-4.5 3-5.5 16-.7 17.6 4.8 1.5 51.2-4.9 51.2-4.9l-2.1-7.9z"/><path class="st2" d="M274.8 828.5c-2-.8-15.1-8.3-9.2-15.1 5.8-6.8 38.3-18.5 38.3-18.5l10.4 16.9-39.5 16.7zM463.5 827.9c-2-.8-20.7-6.4-14.8-13.2 5.8-6.8 44.4-23.5 44.4-23.5l20.7 23.9-50.3 12.8z"/><path class="st2" d="M305.3 807.7c-.8-2.2-8.9-12.6-5.8-17.3 3.1-4.6 17.9-4.6 17.9-4.6l4.2 15-16.3 6.9zM497.2 804.4c-.8-2.2-10.7-12.5-7.6-17.2 3.1-4.6 19.4-5.2 19.4-5.2l12.1 22.2-23.9.2z"/><path class="st1" d="M336 702.9s-20.8 63.6-15.5 79.5c-3 7.2-3 16.3-3 16.3s-42.9 22.7-47.4 27.2-4 16.6 1.6 17.8c5.6 1.1 7.4-1.1 10.6-3-.4 7.3 13.6 7.6 13.6 1.9.4 6.4 12.1 6.3 13.2 1.5 3 6.3 13.5 3 11.7-2.5s5.7-5.4 5.7-5.4l23.8-5.3 3-50.3 21.6-40.5 15.9-40-54.8 2.8z"/><path class="st4" d="m310.2 828.5-1.1 15.6M295.9 842.5c-1.1-7 3.7-14 3.7-14M288.1 825.1s-5.9 5.5-5.9 15.5"/><path class="st1" d="M469.2 700s34.5 66.1 39.8 82c-3 7.2 4.6 11.2 4.6 11.2s-54 30.9-58.5 35.4-6.7 16.6-1.1 17.7 7.6-.3 10.8-2.2c-.4 7.3 14.5 5.7 14.5 0 .4 6.4 14.8 7 15.9 2.2 3 6.3 14.2 3.6 14.8-2.2.7-5.8 16-4.5 16-4.5l23.8-5.3 3-50.3-34.4-80.2-2.5-11.9-46.7 8.1z"/><path class="st4" d="M499.8 831.9s-7.6 6.8-4.5 14.4M479.4 844.1c-1.1-7 9.2-14.2 9.2-14.2M473.4 828.6s-8.6 5.5-8.6 15.5"/><path class="st0" d="m328.9 796.8-4.4 36.1 35.3-2.2-2-33.9zM514.7 789.3l10.8 47.7 39.4-2.8-12.1-50.2z"/><path class="st2" d="M358.3 782c-4.9-1.5-35.9-3.8-40.9.8-4.9 4.5-3.8 12.9 0 15.9s37.1 2.6 40.9 0c3.8-2.7 4.9-15.2 0-16.7zM550.5 773.8c-4.9-1.5-40.1 2.6-45 7.2s.5 10.5 4.2 13.5c3.8 3 38.1-3 41.8-5.7 3.8-2.6 3.9-13.5-1-15z"/><path class="st0" d="M321.6 829.3c-3.6 1.1-3.2 12 0 13s37.2.5 40-.9 4.3-12.8 0-12.9c-4.3 0-36.3-.3-40 .8zM511.2 832.9c-3.6 1.1-2.5 12.4.7 13.5 3.2 1.1 50.2 1.4 53 0s4.7-14.2.5-14.2c-4.3-.2-50.5-.5-54.2.7z"/><path class="st2" d="M504.6 501.4c-11.6-9.1-7.4 44.7-7.4 44.7s-45.8-43.4-10.2 15.1c17.9 29.4 40 80.8 58 125.8l22.7-11.4c-8-18.8-17.3-40.2-27.7-63.6 9 11.9 23.7 41.9 37.8 72.2l23.9-12.6c-25.2-47.7-90.9-165.3-97.1-170.2z"/><path class="st0" d="M578.5 774.4c3.8 9.1 27.3-6 26.1-9.1-.9-2.3-13.8-35.4-37-89.7l-22.7 11.5c17.9 44.5 31.7 82.8 33.6 87.3zM601.6 671.6l-23.9 12.6c18.2 39.4 35.4 79.4 37.5 80.4 3.8 1.9 25.4-9.8 25.4-14.8 0-2.2-18.1-38.5-39-78.2z"/><path class="st2" d="M520.3 653.7c-9.7-23.8-19.8-50.2-24.7-68.3-11-40.9-6.4-75.8-6.4-75.8l-81.6-13.5-68.6 18.3s-2.3 50.1-7.1 100c-1.4 15.1-3.3 29.9-5.3 43 18.8-2.6 54.9-6.7 97.6-6.7 50.9 0 85.2 2.1 96.1 3z"/><path class="st2" d="M525.6 666.6c-1.7-4.2-3.6-8.5-5.3-12.9-10.9-.8-45.2-3-96-3-42.8 0-78.8 4.1-97.6 6.7-.5 3.7-1.1 7.3-1.7 10.6 17.6-2 52.6-5.1 99.3-5.1 55.7-.1 90.4 2.6 101.3 3.7z"/><path class="st5" d="M531.5 680.5c-1.9-4.4-3.9-9.1-5.9-14-10.9-1-45.6-3.8-101.3-3.8-46.7 0-81.7 3.2-99.3 5.1-.6 3.6-1.1 7.1-1.7 10.4 12.6-1.4 46-4.2 102.4-4.2 58.7.2 93.9 4.7 105.8 6.5z"/><path class="st0" d="M531.5 680.5c-11.9-1.8-47.1-6.4-105.9-6.4-56.3 0-89.8 2.8-102.4 4.2-3.2 18.8-5.8 31-5.8 31 31 1.5 70.9-2 112.5-1.5 41.5.5 114.2 1.5 114.2 1.5s-5.3-11.8-12.6-28.8z"/><path class="st4" d="m347.1 692-1.2 17.6M355.7 692v17.4M387.8 692l.8 16.3M395.9 692v16.1M453 692l2.2 15.8M462 692l2.9 16.1M493 692l2.3 16.1M502.8 692l2.7 16.8"/><circle class="st1" cx="453" cy="552.9" r="11.9"/><circle class="st1" cx="450.2" cy="597.2" r="11.9"/><circle class="st1" cx="418" cy="623.8" r="11.9"/><circle class="st1" cx="370.9" cy="619.7" r="11.9"/><circle class="st1" cx="343.8" cy="593.6" r="11.9"/><circle class="st1" cx="339.1" cy="564.8" r="11.9"/><path class="st0" d="M361.8 604.3c7.9 7.8 18.8 13.1 33.2 13.1 13.6 0 24.7-5 33.1-12.3-10.1-1.4-22.1-2.5-34.7-2.8-12.3-.3-23 .7-31.6 2zM394.8 563.3c26.4.9 43.3 4.1 52.4 6.4.5-3.9.5-7.6-.1-10.8-11-3.2-29.3-7-54.5-7-25.1 0-40.8 2.8-49.5 5.1v1.7c.1 2.4.2 5 .7 7.7 10.4-1.9 27.3-3.9 51-3.1z"/><path class="st2" d="M447.2 558.9c-.1-.6-.2-1.1-.3-1.7-2.8-12-7.6-19-10.8-25.4-2.3 1.7-5.4 3.3-9.5 4.2-10.1 2.1-15.7-11.4-22.5-11.4s-8.3 12.1-14.8 12.1c-6.4 0-6.4-7.9-16.3-9.1-8.3-1-15.9 4.5-23.9 3.9-2.8 6.6-5.8 15.3-5.9 25.5 8.7-2.3 24.4-5.1 49.5-5.1 25.1.1 43.5 3.8 54.5 7z"/><path class="st1" d="M373 527.7c9.9 1.1 9.9 9.1 16.3 9.1s7.9-12.1 14.8-12.1 12.4 13.5 22.5 11.4c4.1-.8 7.2-2.5 9.5-4.2-2.3-4.7-3.8-9-3-14.8 1.3 7.6 4.7 10.2 10.4 9.1 5.7-1.1 7.6-7.1 6.4-12.9-1.7-8.9-20.8-20.4-20.8-20.4l-85.9 12.5s-8.7 13.5-.8 18.9c5.7 4.2 10.7-1.5 11.6-5.2.5 1.6-2.2 6-4.9 12.5 8 .7 15.5-4.8 23.9-3.9z"/><path class="st0" d="M353.1 593c2.4 4 5.3 7.9 8.8 11.2 8.6-1.4 19.3-2.3 31.7-2 12.6.3 24.6 1.4 34.7 2.8 3.9-3.4 7.2-7.3 9.9-11.4-11.5-1.8-27.5-3.9-44.6-4.2-17.2-.4-31.1 1.6-40.5 3.6zM394.8 563.3c-23.8-.8-40.6 1.2-51 3.2.6 4.3 1.7 8.9 3.3 13.6 9.1-2.4 25.4-5.6 46.4-5.1 20.7.5 39.7 3.3 51.2 5.4 1.3-3.6 2.1-7.2 2.6-10.7-9.2-2.3-26.1-5.5-52.5-6.4z"/><path class="st0" d="M347.1 580.1c1.5 4.4 3.5 8.8 6 12.9 9.5-2 23.5-4.1 40.5-3.7 17.1.4 33.1 2.4 44.6 4.2 2.8-4.2 5-8.8 6.6-13.2-11.4-2-30.6-4.9-51.2-5.4-21.2-.4-37.4 2.8-46.5 5.2z"/><path class="st4" d="M354 519c2.6-7-3.6-9.5-3.6-9.5M438 509.6s-4.8 2.8-4.8 7.6"/><circle class="st1" cx="370.9" cy="546.1" r="6.6"/><circle class="st1" cx="411.4" cy="546.1" r="6.6"/><path class="st1" d="M402 616.9c.6-7.5 1.1-19.4-.6-24.5-2.6-7.9-3.4-14.3-10.2-17.3s-13.6 4.5-13.6 8.9 5.3 4.4 8.7 7.9c2.1 2.2 1.9 15.6 1.4 25.1 2.3.3 4.8.5 7.3.5 2.4-.1 4.8-.3 7-.6z"/><path class="st0" d="M549.3 350.6s46.3 16.5 49.3 21.2-36.5 92.3-36.5 92.3l-47.9-10.8-13.9-8.1-7.3-88.4 32.6-21.7 23.7 15.5z"/><path class="st2" d="M542.6 521.4s5.8 11.8 15.7 16.6c9.9 4.8 26.3 1.5 26.3 8.3s-19.8 8.6-30.5 5.8c-10.7-2.7-44.8-6.1-44.8-6.1l-1.7-18.9s13.6-12.9 13.8-13.8c.1-1 21.2 8.1 21.2 8.1z"/><path class="st6" d="M492.9 509.6s-7.9 13.6-9.8 21.9c-1.8 8.2 4.1 23.9 9.7 26.2 5.6 2.3 15.2.2 17.8 3.3 4.2 4.9 1 10.7 2.5 15.8 1.5 5.1 11.4 7.6 16.3 4.3 0 5.5 6.3 5.8 10.5 3.3s5.5-10.7 9.1-7.6c2.9 2.5.8 4.6 4.2 8.6s8.7 1.5 10.6-3.6c1.9-5.1-1.7-24.5-1.7-24.5s-35-15.4-45.9-14.7c-6.9-10.3-.1-18.2 6-20.4 1.4-.5 4.8 4.5 9.5 4.2 11.4-.6 29.5 1.1 40.3-1 3.8-.7 6.7-5.9 8.1-6.3 7.2-2-4-6.8 0-16.3 0 0 6.8-1.1 6.8-4.4s-11.7-14.7-13.2-22.5 3-11-10.2-17.5-37-15.1-53.8-12.8c-16.8 2.3-15.1 12.8-15.1 12.8l-1.7 51.2z"/><path class="st0" d="M501.3 460.4c1.1 0 17.3 12.7 18.3 25s-6.5 27.2-24.4 31c-17.9 3.8-57-12.1-57-12.1l-12-11 16.5-19.7 43.7-21.7 14.9 8.5z"/><path class="st2" d="M313 467.3c-2.4 5.1-.8 8.6-.8 12.3s-11.3 3.4-13.6 6.1c-2.3 2.6.7 11.9 4.5 11.9s10.1-2 14.4-1.3 10.2 6.5 8.7 9.1-4.2 9.5-4.5 14 4.9 7.9 9.7 6.8c4.7-1.1 8.7-11.4 11.9-11.7 3.2-.4 18.2-3.4 21.2-3.4s2.6 17 3.8 20.8c1.1 3.8 7.9 3.4 10.4.8 2.4-2.6 1.7-9.8 3.2-14s26.4-16.5 29.7-17.2c3.3-.6 3.3 8.9 5.9 10.7 2.6 1.8 9.5.7 10.7-3.4s4-11 5.5-14.4 21.6-15.1 23.8-15.1c2.3 0-1.9 8.9-.2 12.9 1.7 3.9 7.4 3 10.1-.8s1.1-12.1 3.8-16.3 17-17.6 19.4-17.5c2.3.1-.2 20.5 2.3 23.5s8.9 1.9 8.9-1.9 3.2-23.8 5.5-28.7c2.3-5 8.7-13.7 12.4-14.1s7.8 3.8 11.6 4.9 6.7-1.7 4.1-7.9-8.2-7.9-12-13.8c-3.8-5.8-5.8-28.6-5.8-28.6L392 443.7s-76.6 18.4-79 23.6z"/><path class="st0" d="m350.3 447.1-11.2 24.6 4.7 15.7 30.3 2.5 16.7-9.5-.7-16.6z"/><path class="st1" d="M411 426.2c-9.2-3.5-15.2-10.7-19.1-18.1-8.7-1.9-27.8-4-26.1 14.3 1.7 17.9 28.8 34.4 41.8 41.4 17-7.3 31.8-14.9 33.7-17.2 1.6-1.9 3.5-11.4 5.4-22.8-4.7 3.1-17.5 9.3-35.7 2.4zM433.1 361.6l-2.3 23.7 21.7 10.8 10.6-36.4z"/><path class="st1" d="M398.4 410.4s-15.1 1.7-17.8 6.8c-2.6 5.1 4.6 15.1 9.7 15.9 5 .8 12.6-15.4 12.6-15.4l8.5 4.7s-6.6 17.6-2.8 21.7 17 3.8 17.7 0-1.4-24.2-1.4-24.2l-26.5-9.5z"/><path class="st2" d="M383.3 372.5c-.5-1.9.2-18-10.3-16.7-19.4 2.4-33.1-5.7-33.4-.8-.3 8.9 12.9 6.8 13.6 11.1.8 4.3 16.9 9.7 16.9 9.7l13.2-3.3z"/><path class="st1" d="M371.9 325.9s-15.4 12.1-13.4 16.6 10.8 4.3 18.4 6.3c7.6 2 11.6 8.9 9.6 13.4s-9.4 9.9-15.7 8.6-15.1-5.8-17.6-4.8c-2.5 1.1-2.3 7.7.8 8.3 3 .6 4.9-.5 8.6 3.3 3.7 3.9-.2 9.8 6.6 12.9s45.6-5.5 52.7-14.2c7-8.6 31.3-17.4 31.3-17.4l6.6-71.4-56-21.2-17.6 16.6-5.1 23.7-13.1 7.6 3.9 11.7z"/><path d="M381 322.9s7 9.1 0 11.6-18.2-.8-22.2-5.3-3.3-14.4-.8-18.4 21-7.8 21.7-11.9c.7-4 1.7-8.9 2.3-14.9.5-6.1 14.2-16.6 15.7-17.6l35.4 20.2" style="fill:#ffce00"/><circle class="st1" cx="527.7" cy="166.8" r="9.1"/><circle class="st1" cx="644.1" cy="96.8" r="9.1"/><circle class="st1" cx="680.1" cy="96.8" r="9.1"/><circle class="st1" cx="569.7" cy="172.7" r="9.1"/><circle class="st1" cx="621.6" cy="181.8" r="9.1"/><circle class="st1" cx="671" cy="188.7" r="9.1"/><circle class="st1" cx="721.1" cy="202.9" r="9.1"/><circle class="st1" cx="770.5" cy="213.4" r="9.1"/><path class="st1" d="M741.2 146v-20.6c-4.2.2-8.3.5-12.3.8l1.1 19.4c3.7.2 7.4.3 11.2.4z"/><path class="st3" d="m730.1 145.7-1.1-19.4c-2.7.2-5.4.4-7.9.5v18.7c2.8 0 5.9.1 9 .2z"/><path class="st1" d="m775.9 134.3.5 12.4c6.8.1 11.6 0 12.6-.2 2.6-.5 4.1-6.7 4.1-12.6l-17.2.4z"/><path class="st1" d="M793 134c0-5.1-1.1-9.9-3.3-10.5-1.1-.3-6.5-.2-14.2.1l.4 10.7 17.1-.3z"/><path class="st3" d="M775.5 123.6c-9.2.4-21.8 1.1-34.2 1.9v9.4l34.7-.5-.5-10.8z"/><path class="st2" d="M741.2 134.8v11.1c12.8.3 25.8.6 35 .8l-.5-12.4-34.5.5z"/><path class="st1" d="m738.6 171.5 2.3-20.5c-3.3-.2-6.5-.5-9.7-.6l-3.6 19c3.6.7 7.3 1.5 11 2.1z"/><path class="st3" d="m727.7 169.4 3.6-19c-2.9-.2-5.8-.4-8.4-.5l-3.1 18c2.5.5 5.1 1 7.9 1.5z"/><path class="st1" d="m776.5 166.2-2.3 12.1c8.3 1.5 14.2 2.6 15.1 2.5 2 0 3.4-6.5 3.9-12.9l-16.7-1.7z"/><path class="st1" d="M793.1 168c.4-5.4 0-10.7-1.2-11.9-.6-.6-5.6-1.3-13-2l-2.3 12.2 16.5 1.7zM778.9 154c-10-1-24.2-2-37.9-3l-1.3 11.3 36.9 3.9 2.3-12.2z"/><path class="st2" d="m739.7 162.4-1.1 9.2c12.6 2.4 25.8 5 35.6 6.7l2.3-12.1-36.8-3.8z"/><path class="st3" d="m720.5 174.9-3.6 16.4c3 .8 6.1 1.7 9.5 2.6l3.1-17.6c-3.1-.5-6.1-.9-9-1.4z"/><path class="st2" d="m697.7 171.5.8-7.8s9 1.7 21.3 4.2l3.1-18-23.6-1.4-1.5-3.9s10 .3 23.3.8v-18.7c-14.4 1-25.2 1.7-25.2 1.7l-6.7 43 10.4 15.1s7.2 2 17.4 4.7l3.6-16.4c-13.1-1.8-22.9-3.3-22.9-3.3z"/><path class="st1" d="M737.9 177.7c-2.8-.5-5.7-.9-8.4-1.3l-3.1 17.6c3.3.9 6.8 1.8 10.4 2.8l4.2-18.7c-1-.1-2.1-.3-3.1-.4zM774 194.7l-2.1 11.2c6.8 1.7 11.6 2.9 12.4 2.9 2 0 4.5-5.3 5.9-10.7l-16.2-3.4zM790.3 198.1c1.4-5.1 1.8-10.4-.2-11.4-1-.5-6.3-1.5-13.8-2.8l-2 10.8 16 3.4z"/><path class="st3" d="M776.2 183.9c-.9-.2-1.9-.3-2.9-.5-9.2-1.6-20.8-3.4-32.3-5.2l-2 9.2 35.2 7.3 2-10.8z"/><path class="st2" d="m738.9 187.3-2.1 9.4c12.6 3.4 25.8 6.9 35.1 9.2l2.1-11.2-35.1-7.4z"/><path class="st1" d="M569.7 108s102.9-5.5 106.9-6.1c4-.5 4.5 11 1.5 13.3-3 2.3-95.2 5.1-95.2 5.1L569.7 108z"/><path class="st2" d="m561.2 111.8-5.2 51.1c4.5.8 9.1 1.7 13.8 2.5l4.7-52.4c-4.6-.5-9.1-.9-13.3-1.2z"/><path class="st1" d="m574.5 113-4.7 52.4c2.7.5 5.5 1 8.3 1.4l4.8-53.1c-2.8-.3-5.7-.5-8.4-.7z"/><path class="st8" d="m560.6 111.7-14.5-1.3-6.4 49.5c5.1 1 10.6 2 16.2 3l5.2-51.1c-.1 0-.3-.1-.5-.1z"/><path class="st1" d="M519.8 108s-34.2 34.8-27.8 40.9c2 1.8 21.5 6.1 47.8 11l6.4-49.5-26.4-2.4zM610.7 116l-5.4 55.5c11.3 1.9 22.5 3.8 32.9 5.5l5.9-58.3c-10.6-.8-22-1.7-33.4-2.7z"/><path class="st2" d="m664.1 138.2-21.7-1.9-2.1 19.7 22.7 2.8z"/><path class="st2" d="M665.1 120.4c-6.4-.5-13.5-1.1-21-1.7l-1.8 17.6 21.7 2 1.1-17.9zM640.3 156l-2.1 21c8.4 1.4 16.3 2.7 23.6 3.9l1.2-22-22.7-2.9z"/><path class="st3" d="M578 166.8c9 1.6 18.2 3.2 27.2 4.7l1.9-19.5-27.5-3.4-1.6 18.2z"/><path class="st1" d="M610.7 116c-9.5-.8-18.9-1.6-27.8-2.3l-1.6 17 27.7 2.5 1.7-17.2z"/><path class="st2" d="m581.4 130.7-1.6 17.8 27.5 3.4 1.8-18.7zM522.7 113s47.4 5.1 57.1-1.8c9.6-7 13.2-33.4 1.7-37.8-11.7-4.3-19.4-.2-21.8 2.8-2.4 3-.9 9.8 3.1 12.3s10.2-7.8 13.6-3.3c3.4 4.5-1.1 13-13.4 13.8-12.3.8-40.3 2.3-40.3 2.3V113h0z"/><circle class="st1" cx="522.3" cy="72.6" r="9.1"/><circle class="st1" cx="489" cy="63.5" r="9.1"/><circle class="st1" cx="459.7" cy="72.6" r="9.1"/><circle class="st1" cx="446.3" cy="101.9" r="9.1"/><circle class="st1" cx="452.1" cy="133.9" r="9.1"/><circle class="st1" cx="489" cy="153.8" r="9.1"/><circle class="st1" cx="531.4" cy="141.3" r="9.1"/><circle class="st1" cx="540.4" cy="96.8" r="9.1"/><circle class="st8" cx="491.9" cy="111.7" r="39.8"/><circle class="st3" cx="491.9" cy="111.7" r="18.5"/><path class="st2" d="M510.5 111.7c0 10.2-8.3 18.5-18.5 18.5s-18.5-8.3-18.5-18.5h37z"/><path class="st1" d="m702.2 141.7-38.1-3.5-1.1 20.6 39.4 4.8c.1-7.1.1-15-.2-21.9z"/><path class="st1" d="M702.2 141.7c-.5-10.4-1.3-18.5-2.6-18.6-1.4-.2-15.2-1.2-34.5-2.7l-1 17.9 38.1 3.4zM661.8 180.8c21.6 3.5 36.7 5.8 37.8 5.8 1.7 0 2.6-10.5 2.8-22.9l-39.4-4.8-1.2 21.9z"/><path class="st0" d="M392.6 300.9c-5.1 0-7.9 14.5 1.9 18.5s23.3-3.6 23.3-3.6-20.2-14.9-25.2-14.9z"/><path class="st1" d="M265.6 380.9c-4.8-11 9.7-25 9.6-32.2 0-4.2-9.7-7.2-9.7-7.2L191 352.7s-9.8 10-3.4 15.4c-4.2 2.3-3 8.3.9 9.5-3.6 2.6-1.7 9.1 3.3 8.7-.8 3 2.6 9.5 6.4 9.5s23.2 2.6 38.4 6.1c1.9.5 7.6 6.1 15.3 14.8l22.9-23.5c-5-6.2-8.5-10.8-9.2-12.3z"/><path class="st0" d="M274.9 393 252 416.5c9.2 10.4 21 24.3 32.2 35.3l25.5-21.6C299 419.8 284.4 404 274.9 393z"/><path class="st4" d="M187.6 368c12.1 11.9 40.1 9.1 40.1 9.1M188.6 377.5c9.3 7.8 28.8 7.7 39.2 7.8M191.8 386.2c10.2 4.9 35.9 4.9 35.9 4.9M266 121l-.8-.8c.2.3.5.6.8.8z"/><path class="st1" d="M220.2 251c-39.6-14.8-60.5-30.1-60.5-53.7s14-42.5 57.1-50.3 64.7.4 77.9-4.1 26.5-13.7 23.5-33.4-30-26.6-40-18.9-2 26.6 5.2 25.4c7.2-1.3 1.5-15.9 7.9-15.9s10.2 5.1 11 10.5-2.3 12.8-10.2 15.6c-6.9 2.4-18.9 2-26.1-5.3-10.6-.6-24.2.4-47.7 5.5s-49.6 14.7-75.3 44.9-13 56.9 0 66.6c15 11.2 35.2 15.5 46.2 28.4 11 12.9 1.5 28 1.5 28H228c.1-11.4 1-40-7.8-43.3z"/><path d="M317 76.3c-21.6-9.5-46.9-6.4-56.4 9.8-9 15.5-1.2 28.6 4.5 34.1.3.2.6.5.8.8 7.2 7.3 19.2 7.7 26.1 5.3 7.9-2.8 11-10.2 10.2-15.6-.8-5.4-4.5-10.5-11-10.5s-.8 14.6-7.9 15.9c-7.2 1.3-15.1-17.6-5.2-25.4 9.9-7.7 37-.8 40 18.9S308 138.5 294.7 143s-34.8-3.7-77.9 4.1c-43.1 7.8-58.8 26.9-57.1 50.3 2.6 36.8 23.5 36.1 59 59.1 10.4 6.7 9.5 26.4 9.4 37.8h29.3s3.8-43.9-11.7-54.6c-15.5-10.7-59.8-16.9-62.8-44.8s30.3-35 56.4-34.1c26 .8 66.4 10.5 85.1-12 18.6-22.5 14.2-63-7.4-72.5z" style="fill:#84735b;stroke:#000;stroke-width:3.7837;stroke-linecap:round;stroke-linejoin:round;stroke-miterlimit:10"/><path class="st6" d="m206.9 108 7.9 22.2 12.3-20.7c-4-7.1-8.8-12-14.1-15.8l-6.1 14.3h0z"/><path class="st6" d="M220.6 146.4h0l13.2-19.8c-1.8-6.7-4.1-12.3-6.7-17l-12.3 20.6 5.8 16.2zM206.9 108l6.2-14.2c-4.5-3.2-9.2-5.5-14-7.7l7.8 21.9h0zM226.8 163.7h0l5.4 14.9c3-6.4 7-14.4 5.4-31.8l-10.8 16.9zM220.6 146.4l6.2 17.3h0l10.7-16.8c-.5-4.7-1.3-10-2.6-16.1-.3-1.4-.7-2.8-1.1-4.2l-13.2 19.8h0z"/><path class="st6" d="M220.6 146.4s-17.4-6-26.2-8.6c.5 1.7 1 3.5 1.6 5.2 2 5.5 4.7 10.7 8 15.1l22.8 5.6-6.2-17.3zM204 158.1c8.2 11.3 19.6 18.8 28.2 20.5l-5.4-14.9-22.8-5.6z"/><path class="st6" d="M214.8 130.2h0L192 117.9c0 6.7.8 13.4 2.5 19.9 8.7 2.6 26.2 8.6 26.2 8.6l-5.9-16.2zM214.8 130.2l-7.9-22.2s-7.2-4-13.1-7.2c-1.1 5.3-1.8 11.1-1.8 17.1l22.8 12.3h0z"/><path class="st6" d="M199 86.1c-2.3 4.1-4.1 9.1-5.3 14.7 5.9 3.2 13.1 7.2 13.1 7.2L199 86.1zM174.4 215.7l-20.9-8.6c-4 2.5-7.7 5.2-11 7.8l13.3 5.8 18.6-5zM190.9 211.3l-19.5-13c-6.3 2.1-12.3 5.2-17.8 8.6l20.9 8.6 16.4-4.2z"/><path class="st6" d="M142.5 214.8c-8.8 6.9-14.5 13-14.5 13l27.8-7.3-13.3-5.7zM209.4 206.5c-1.4-1.4-6.4-6.5-10.9-11-7.3-.5-15.3-.3-23 1.7l-4.2 1.2 19.5 13 18.6-4.9zM227.1 201.9s-12.6-5.1-28.5-6.4c4.4 4.5 9.5 9.7 10.9 11l17.6-4.6z"/><path class="st6" d="m227.1 201.9-17.6 4.6.3.3-3.6 16.1c16.8-9.4 20.9-21 20.9-21z"/><path class="st6" d="m209.4 206.5-18.5 4.8h0v18.1c6-1.9 11-4.1 15.3-6.4l3.6-16.1s-.1-.2-.4-.4zM174.4 215.7l-18.5 4.8h0l-3.3 13.3c5.1.5 11 .5 17.6-.2l4.2-17.9h0z"/><path class="st6" d="m190.9 211.3-16.5 4.3h0l-4.3 18c4.7-.5 9.6-1.3 14.9-2.6 2-.5 4-1.1 5.9-1.7v-18h0zM155.9 220.5l-27.8 7.3s8.9 4.8 24.4 6.1l3.4-13.4h0z"/><circle class="st10" cx="119.6" cy="193.6" r="12.9"/><path class="st11" d="M120.6 180.8c7.1.5 12.4 6.7 11.9 13.8s-6.7 12.4-13.8 11.9l1.9-25.7z"/><circle class="st4" cx="119.6" cy="193.6" r="12.9"/><circle class="st0" cx="119.6" cy="193.6" r="4.9"/><circle class="st10" cx="138.4" cy="160.6" r="12.9"/><path class="st11" d="M147.2 151.1c5.2 4.8 5.6 12.9.8 18.2-4.8 5.2-12.9 5.6-18.2.8l17.4-19z"/><circle class="st4" cx="138.4" cy="160.6" r="12.9"/><circle class="st0" cx="138.4" cy="160.6" r="4.9"/><circle class="st10" cx="172.4" cy="132.3" r="12.9"/><path class="st11" d="M183.3 125.4c3.8 6.1 1.9 14-4.1 17.8s-14 1.9-17.8-4.1l21.9-13.7z"/><circle class="st4" cx="172.4" cy="132.3" r="12.9"/><circle class="st0" cx="172.4" cy="132.3" r="4.9"/><circle class="st10" cx="128.8" cy="234.2" r="12.9"/><path class="st11" d="M122.6 222.9c6.2-3.5 14.1-1.2 17.5 5.1 3.5 6.2 1.2 14.1-5.1 17.5l-12.4-22.6z"/><circle class="st4" cx="128.8" cy="234.2" r="12.9"/><circle class="st0" cx="128.8" cy="234.2" r="4.9"/><circle class="st10" cx="251.7" cy="93.8" r="12.9"/><path class="st11" d="M255.6 81.5c6.8 2.1 10.6 9.3 8.6 16.1-2 6.8-9.3 10.6-16.1 8.6l7.5-24.7z"/><circle class="st4" cx="251.7" cy="93.8" r="12.9"/><circle class="st0" cx="251.7" cy="93.8" r="4.9"/><circle class="st10" cx="288.1" cy="62.9" r="12.9"/><path class="st11" d="M300.9 62.2c.4 7.1-5.1 13.2-12.2 13.5-7.1.4-13.2-5.1-13.5-12.2l25.7-1.3z"/><circle class="st4" cx="288.1" cy="62.9" r="12.9"/><circle class="st0" cx="288.1" cy="62.9" r="4.9"/><circle class="st10" cx="325.7" cy="71.9" r="12.9"/><path class="st11" d="M336.6 78.8c-3.8 6-11.7 7.8-17.8 4-6-3.8-7.8-11.7-4-17.8l21.8 13.8z"/><circle class="st4" cx="325.7" cy="71.9" r="12.9"/><circle class="st0" cx="325.7" cy="71.9" r="4.9"/><circle class="st10" cx="343.5" cy="105.9" r="12.9"/><path class="st11" d="M344.4 118.8c-7.1.5-13.2-4.8-13.8-11.9-.5-7.1 4.8-13.2 11.9-13.8l1.9 25.7z"/><circle class="st4" cx="343.5" cy="105.9" r="12.9"/><circle class="st0" cx="343.5" cy="105.9" r="4.9"/><circle class="st10" cx="335.1" cy="149.3" r="12.9"/><path class="st11" d="M327.3 159.6c-5.7-4.3-6.8-12.3-2.5-18s12.3-6.8 18-2.5l-15.5 20.5z"/><circle class="st4" cx="335.1" cy="149.3" r="12.9"/><circle class="st0" cx="335.1" cy="149.3" r="4.9"/><circle class="st10" cx="297.3" cy="170.6" r="12.9"/><path class="st11" d="M284.6 172.6c-1.1-7 3.7-13.6 10.7-14.7 7-1.1 13.6 3.7 14.7 10.7l-25.4 4z"/><circle class="st4" cx="297.3" cy="170.6" r="12.9"/><circle class="st0" cx="297.3" cy="170.6" r="4.9"/><circle class="st10" cx="254.9" cy="171.5" r="12.9"/><path class="st11" d="M242.1 170.2c.7-7.1 7-12.3 14.1-11.6 7.1.7 12.3 7 11.6 14.1l-25.7-2.5z"/><circle class="st4" cx="254.9" cy="171.5" r="12.9"/><circle class="st0" cx="254.9" cy="171.5" r="4.9"/><circle class="st10" cx="242.1" cy="224.1" r="12.9"/><path class="st11" d="M254.4 227.8c-2 6.8-9.2 10.7-16 8.6-6.8-2-10.7-9.2-8.6-16l24.6 7.4z"/><circle class="st4" cx="242.1" cy="224.1" r="12.9"/><circle class="st0" cx="242.1" cy="224.1" r="4.9"/><path class="st6" d="M385.8 389.8c1.7 9.2 7.4 29.6 25.2 36.3 23.2 8.9 37.7-3.8 37.7-3.8l6.2-42.6-33.1-3.4c-4.5 5.5-22.1 11.1-36 13.5z"/><path class="st0" d="M353.7 453.3s-12 21.4-.7 26.3c11.8 5.1 83.9-27.8 88.3-33 4.4-5.2 11.5-69.2 11.5-69.2l42.4-14.5 14 28.2s-.8 42-14.9 53c-14.2 11-94.4 50.5-110.7 51.8-16.3 1.4-28.5 3-43.9 0s-19-21.6-13.2-31c6.3-10 27.2-11.6 27.2-11.6z"/><path class="st4" d="M529.3 581c3-1.8 3-11.3 3-11.3"/><path class="st1" d="M407 190.9s10.8 1.1 10.8 6.2-3.9 8.2-7.6 7.4c1.4 4.9-8.5 7.4-11.9 3-2.6 4.3-9.9 3-11.7-1.1-3 2.6-9.8 0-9.4-6.5-3.1 1-6.1-6.4-4.3-9.8-5.6-2.2-4.8-13.2 0-15.4-3-7 .8-15.9 6.8-14.4-.7-6.6 9-10.4 13.7-7.6 0-4.7 7.6-8.3 14.4-2.3 1.9-2.9 9.2-4.8 12.1 2.3 3-4.2 8.7 2.4 7.9 6.9s-6.1 13.2-6.1 13.2l-20.4-2.1-12.8 6.4V191l14.2 2.7 4.3-2.8z"/><path class="st4" d="m410.3 204.6-4.6-9.5M386.7 206.5l2-11 7.8 1.2 1.9 10.9M373 190.1l10.6-3.4 1.6 5.8-7.8 7.5M379.8 160.3l8.9 10.3-3.5 5.8-12.2-1.7M407.9 150.4v13.3l-9.4 1.5-5-12.5M414.7 168.4c.4-1.6 5.3-15.7 5.3-15.7"/><path class="st1" d="M517.6 228.5s.4-10.6 2.1-12.8c1.7-2.3 10.4-1.4 10.4 1.5 4.5-5.1 14-1.1 13.2 3.3 4.2-1.5 13.2 1.3 12 8.6 8.1 0 9.8 12 6.7 15.9 7.1 8.3 2.3 16-3.6 19.2 1.5 5.5-8 13.2-12.5 9.6-1 6.1-12 6.1-13.8 2.3-4.5 3.9-15.7-3.2-14.3-9.7-5.4-3-7.9-11.3-3.5-14.6 4.5-3.3 9.2-.8 9.2-.8l4.3 6.4h13.6v-15.1l-15.8-11.2-8-2.6z"/><path class="st4" d="m517.7 266.4 7.7-6.9M545.8 273.8l-4.5-13.2-7.4 1.1-1.9 14.4M561.9 244.9l-12.6 1.6-3.5 9.9 12.6 7.8M543.3 220.4l-6.5 12.3 4.5 4.3 14-8M527.7 229l2.4-11.8"/><path class="st0" d="M358.4 341.3s-3.1 12.3 1.4 14.7c4.5 2.4 8.9-10.6 8.9-10.6s-4.3 12 0 14.3 11.4-12.1 11.4-12.1-4.1 14-1.1 15.5 11.9-6.2 11.9-6.2l-5.7-16.3-19.5-3.1-7.3 3.8z"/><circle class="st4" cx="396.5" cy="309.9" r="4"/><path class="st12" d="M519.2 202c1.4-3.2 2.4-5.7 2.8-6.8 2-5.9-.8-14-9.3-11.5 2.3-9.1-6.6-15.1-12.8-9.2 3.9-7.1-4.8-13.8-10.9-8 2.5-6.1-9.1-10.6-14.6-3.6-.5-6.6-10-12.1-14.6-4.3 0-4-9.2-6.8-11.9-3.3-.7.9-1.7 4.2-2.7 8.4 8 2.1 22.6 6.6 39.3 14.2 16.1 7.4 28.2 17.6 34.7 24.1z"/><path class="st0" d="M479.9 199.8c-14.7-7.3-30.4-12.2-39.4-14.6-1.1 5.7-1.9 9.8-1.9 9.8l8.9 17 54.9 27.5s3.4-7.3 7.3-16.2c-5.6-6.2-16-16.7-29.8-23.5zM484.4 177.9c-16.6-7.6-31.3-12-39.3-14.2-.8 3-1.5 6.4-2.3 9.8 9 1.3 22.9 4.4 37.2 11.5 18.8 9.3 30.1 22.6 34.2 28.1 1.8-4.1 3.6-7.9 4.9-11.1-6.4-6.5-18.5-16.7-34.7-24.1z"/><path class="st12" d="M480.1 185.1c-14.3-7.1-28.2-10.2-37.2-11.5-.9 4-1.7 8.2-2.4 11.7 9 2.3 24.8 7.3 39.4 14.6 13.8 6.8 24.2 17.3 29.8 23.6 1.5-3.3 3.1-6.9 4.6-10.3-4.1-5.6-15.4-18.8-34.2-28.1z"/><path class="st4" d="m512.7 183.6-22.4 41.1M489 166.5l-20.2 42.3 8.6 4.9 22.5-39.2M459.7 158.7 449.2 200l8.5 3 16.7-40"/><path class="st12" d="m402.9 247.2 70.4 39.9 8.9-15.9c-18.2-12.1-56-36.6-71.2-43.4l-8.1 19.4z"/><path class="st1" d="M504 232.7s-14.1-14.8-35.3-27.3c-21.2-12.6-41.4-16.6-41.4-16.6l-2.7 6.4c38.7 11.4 64.2 33.2 74.9 41.8l4.5-4.3z"/><path class="st2" d="M411 227.8c15.2 6.7 53 31.3 71.2 43.4l9.1-16c-14-8.9-51.6-32.2-74.3-41.7l-6 14.3z"/><path class="st3" d="m421.9 201.9-4.8 11.5c22.7 9.5 60.3 32.8 74.3 41.7l7-12.4c-14.6-9.6-58-37.6-76.5-40.8z"/><path class="st8" d="M499.6 237c-13.5-12.3-36.2-30.4-74.9-41.8l-2.8 6.7c18.5 3.3 61.9 31.1 76.5 40.8l1.2-5.7z"/><path class="st2" d="M468.8 281s22-48.4 35.3-54.7c13.2-6.3 43 2.3 46 13.4 3 11.1 2.8 18.7-3.8 22.7s-16.4 4-21 1c-4.5-3-6.9-10.5-3.3-13.8 3.6-3.4 10.4 8.1 12.3 4.2 5.1-7-4-21-19.7-14s-31.8 49.9-31.8 49.9l-14-8.7zM412.3 245.2s20.1-39.4 20.4-53c.3-11.3-7-24.4-13.6-29-6.6-4.5-24.6-2-31.1 3.6-6.5 5.5-8.6 21.6-5 27.4s14.8 7.2 19.1 5.4 10.2-7.6 6.8-12.1-13.7 5.8-13.7-1.7 3.2-10.1 10.4-9.6 12.2 7.3 12.2 21-16.3 38.1-16.3 38.1l10.8 9.9zM278.1 215.7s-20.9 5.7-29.7 24.1l31.3 6.7c1.8-15-1.6-30.8-1.6-30.8z"/><path class="st3" d="M248.4 239.7c-.8 1.7-1.5 3.5-2.1 5.4-6.8 22.7-3.4 39.2-3.4 39.2l21.2 2.6s9.5-15.9 14.1-32.7c.7-2.5 1.2-5.1 1.5-7.9l-31.3-6.6z"/><path class="st0" d="M196 293.1s27.6-15.1 47.3-15.1 28 5.8 30.6 8.3 2.6 14.2 0 18.2c-2.6 4.1-6.1 11.7-31.4 11.7-25.3.1-46.5-23.1-46.5-23.1z"/><path class="st2" d="M232 271.2c-1.6 3.3 4.3 16.4 5.1 23.1s-1.4 24.6-1.4 24.6l16.6-2.5s-4.8-12.6-5.6-22.1c-.8-9.5 1.5-22 0-24.6s-13.1-1.8-14.7 1.5zM135.4 254.3c-2.3 8.1 3 27.4 21 43.8l21.9-28.8c-13.3-7.4-31.8-14.6-42.9-15z"/><path class="st0" d="M222.8 306.8c-3-9.6-22.3-21.2-33.7-30.3-2.8-2.3-6.6-4.7-10.9-7.1l-21.9 28.8c2.4 2.2 5 4.3 7.8 6.4 24.2 17.5 40.5 24.2 40.5 24.2s21.3-12.5 18.2-22z"/><path class="st2" d="M172.1 318.3c0-5.1 27.2-34.2 31.8-36.5 4.5-2.3 11.7 9 8.2 12.7-3.6 3.7-25.7 27.8-29.4 30.8-3.7 3-10.6-2-10.6-7z"/><path class="st3" d="M236.5 298.8c1.4 2.6 8 1.7 10.7 0 2.8-1.7 2.5-11-.8-11s-8.5-.2-10.6 1.7-.7 6.7.7 9.3z"/><path class="st0" d="M164.9 324.2s20.1 30.6 30.6 40.1c10.6 9.5 47.7 7 58.6-2.3s23.8-37.8 23.8-37.8l-65-3.6-48 3.6z"/><path class="st2" d="M156.6 320.5c-2.6 2.5 2.3 10.4 7.2 10.4s44.6-4.8 59.8-5.7 51.8.8 56.4.8c4.5.1 7.2-15.4 0-15.4-7.2-.1-20-.5-57.5 1.9-37.6 2.5-63.2 5.5-65.9 8z"/><circle class="st1" cx="268.3" cy="430" r="8.7"/><circle class="st1" cx="288.5" cy="411.6" r="8.7"/><path class="st2" d="M268.4 388.9s15.7-30.3 17.6-31.8c1.9-1.5 9.1 4.2 8.3 8.7s-20.1 28.1-18.5 28.4c1.7.2 23.8-23.1 27.5-23.1 3.8 0 9.5 8.5 8.7 11.4s-28.4 20.6-28.4 20.6l-12.3-4.5-2.9-9.7zM246.7 406.3c-.2.2-28.1 5.2-29.6 8.3-1.5 3.1 2.1 14 6 14.8s28.2-11.7 28.2-11.7-18.8 17-17 20.7c1.7 3.8 8.3 11.4 13.2 9.5 4.9-1.9 13.1-28 13.1-28l-13.9-13.6z"/><path class="st2" d="M252.3 419c0-3.5 21.1-23.5 25.3-24.7 4.2-1.1 8.6 6 6.1 8.7-2.4 2.6-20.7 23.5-24.6 23.5-3.8.1-6.8-4-6.8-7.5z"/><path class="st3" d="M244.5 410.1c0-3.5 21.1-23.5 25.3-24.7 4.2-1.1 8.6 6 6.1 8.7-2.4 2.6-20.7 23.5-24.6 23.5-3.9.1-6.8-4.1-6.8-7.5z"/><path class="st1" d="M335.6 443.7c-.8-1.5-1.4-3-2-4.5-4 1.7-8.2 2.6-11.7 1.1-2.2-1-6.7-4.8-12.2-10.1l-25.5 21.6c11 10.8 21.3 19.1 27.8 19.1 11.4 0 27.8-5.4 39.2-9.8-6.2-4.6-12-10.3-15.6-17.4z"/><path class="st13" d="M379.1 328.7c-2.3-5.7-2.7-18.5-2.8-26.8-5.6 3-16.3 5.8-18.2 8.8-2.5 4-3.3 13.8.8 18.4s15.1 7.8 22.2 5.3c.6-.2 1.1-.5 1.5-.8-1.5-1.2-2.7-2.7-3.5-4.9z"/><path class="st13" d="M379.1 328.7c-1.7-4.2-2.3-12.1-2.6-19.4l-8.6 4.9 4 11.6s-15.4 12.1-13.4 16.6 10.8 4.3 18.4 6.3c7.6 2 11.6 8.9 9.6 13.4s-9.4 9.9-15.7 8.6-15.1-5.8-17.6-4.8-2.3 7.7.8 8.3c3 .6 4.9-.5 8.6 3.3 3.7 3.9-.2 9.8 6.6 12.9 6.2 2.8 39.3-4.2 50.2-12-3-7.3-8.5-19.3-16.5-28.8-12.5-14.6-20.4-12.2-23.8-20.9z"/><path class="st4" d="M381 322.9s7 9.1 0 11.6-18.2-.8-22.2-5.3-3.3-14.4-.8-18.4 21-7.8 21.7-11.9c.7-4 1.7-8.9 2.3-14.9.5-6.1 14.2-16.6 15.7-17.6l35.4 20.2"/><path class="st0" d="M365.9 422.4c-1.7-18.3 17.4-16.2 26.1-14.3-3.6-6.9-5.4-13.9-6.1-18.3h0c-7.7 1.4-14.2 1.7-16.6.7-3-1.3-3.9-3.2-4.3-5.1-23.3 9.6-42.5 32.4-29.3 58.4 8.9 17.5 30.6 26.9 43.9 31.1 8.9-3 18.9-7 28.2-11-13.1-7.1-40.2-23.6-41.9-41.5z"/><path class="st5" d="M522.1 353.1s14.4 48.2 21.9 51.5c7.6 3.3 17.9 1.4 16.3-3-1.6-4.4-14.5-20.1-26.1-49.9-11.5-29.9-12.1 1.4-12.1 1.4zM509.6 295c5.4-2.3 9.4-5.2 12.4-8.2-3.9-3.9-7.6-7.6-11-11.3-2.4 2.9-6.3 6.4-11.5 8.5-6.3 2.4-16-.8-22.1-3.3 0 4.7 0 10.1.1 16 9.1 1.5 22.3 2.5 32.1-1.7z"/><path class="st12" d="M561.5 328.7c-1.2-3.5-8.7-11.4-18.3-21-5.3 7-14.1 16.2-27.8 23.9-15.4 8.6-28.8 6.8-37.2 3.9.6 15.7 1.7 28.8 3.3 33.3 3.9 10.1 19.4 6.8 20.8-4.5 5.8 9.1 21.3.6 20.9-6.4 13.3 4.8 19-4 17.5-15.1 7.9 4.8 24.2-4.3 20.8-14.1z"/><path class="st2" d="M485.3 283.5c4.8 1.4 10.1 2 14.1.5 5.2-2 9-5.5 11.5-8.5-5.9-6.2-10.8-11.8-13.7-16.1-5 8.8-9.4 18.2-11.9 24.1zM510.3 313c10.2-3.9 17-10.6 21.3-16.6-3.3-3.2-6.5-6.4-9.8-9.6-3 3-7 5.8-12.4 8.2-9.8 4.2-22.9 3.3-32.2 1.7 0 5.9.1 12.1.2 18.5 9.6 1.6 21.9 2.1 32.9-2.2z"/><path class="st4" d="m523.2 358.1-11.3-24.6"/><path d="M533.9 310.6s19.5 14.9 20.1 19.2c.5 4.3-9.5 7.6-9.5 7.6l-18.9-19.8 8.3-7zM514.2 326.4s8.7 23.8 13.2 25.4 11.1-1.3 9.7-7.9c-1.4-6.7-14.5-22.1-14.5-22.1l-8.4 4.6zM506.6 333.5s11 19.8 10.2 24.7c-.8 4.8-8.3 6.1-10.2 2.3-1.9-3.8-8.2-25.1-8.2-25.1l8.2-1.9zM484.1 335.4s1.2 28.2 3.9 31.3 9.9 1.1 10.1-2.9c.2-4-5.2-28.6-5.2-28.6l-8.8.2z"/><path class="st2" d="M492.9 335.1c-1.6 4.9 14.5 67 19 71.1 4.5 4.2 11.5-.1 11.5-4.8s-19.8-65.2-21.6-67.9c-1.9-2.5-7.3-3.3-8.9 1.6zM522.1 324.2c0-4.2 4.2-6.3 7.9-5.1 3.8 1.2 41.2 44 45 51.2s-1.5 11.3-6.4 10.4c-4.9-1-46.5-52.4-46.5-56.5z"/><path class="st1" d="M515.3 331.7c13.8-7.7 22.6-17 27.8-23.9-3.6-3.6-7.6-7.4-11.5-11.4-4.4 5.9-11.2 12.6-21.3 16.6-11 4.3-23.3 3.7-32.7 2.1.2 7 .3 13.9.5 20.5 8.5 2.9 21.9 4.7 37.2-3.9z"/><path class="st12" d="M396.7 256.8c-4.5-2.5-11 10.6-6.4 12.1s56.8 32.8 57.3 37.3-4 22.5-4 22.5l5.5 23.9 21.2-2.5 9.6-41.8s-78.7-49-83.2-51.5z"/><path class="st0" d="M474.6 309.1c-4.5.2-64.3-39.2-79.5-52.4-15.1-13.1-1.1-29.8 10.5-22.2s64.6 43 80.1 47.8c6.4 2.1-6.7 26.6-11.1 26.8z"/><circle class="st3" cx="482.2" cy="300.5" r="10.6"/><path class="st2" d="M466.2 350.6s1.6-35.7 5.2-39.2 12.9-3.1 14.8 2.6c1.9 5.7-6.3 36.7-6.3 36.7l-13.7-.1h0z"/><path class="st12" d="M455.8 377.5s-.2 79.8.8 85.5 9.8 6.1 9.8-.8c0-6.8-1.1-84.3-.8-82.3.4 2 12.7 78.2 14.8 81.6 2 3.4 11.2.6 10.2-3.9s-16-78.6-16-78.6 22.5 69.2 25.8 72.8c3.3 3.6 13.5.8 9.3-6.3-4.1-7.1-27.8-72-27.8-72l-26.1 4zM449.2 377.4s-9.9 68.7-11.1 73.2c-1.2 4.5 8.1 2.7 9.4 0s8.2-67.9 8.2-67.9v-5.1l-6.5-.2z"/><path class="st12" d="M452.7 372.7c-4.9.6-4.5 9.3 0 9.9s27.5-1.9 29.6-4.5.8-9.2-2.4-9.2c-3.2-.2-22.3 3.2-27.2 3.8z"/><path class="st12" d="M452 363.6c-4.9.6-4.5 9.3 0 9.9s27.5-1.9 29.6-4.5c2-2.6.8-9.2-2.4-9.2-3.2-.1-22.3 3.2-27.2 3.8z"/><path class="st12" d="M451.2 350.7c-4.9.6-4.5 13.1 0 13.7s27.5-2.6 29.6-5.3c2-2.6.8-11.5-2.4-11.5s-22.3 2.5-27.2 3.1z"/><path class="st5" d="M448.7 320.8c-4.9-.2-14.9 6.5-14.5 10.9.5 4.4 3.7 8 7.2 6.4-3 4.7-11.4 5.4-14 8.8-2.6 3.3 0 7.9 0 7.9s9.2 12 12.1 13.2c3 1.2 7 .8 11.6-3 4.5-3.8 4.5-25.7 4.5-31.8s-2-12.1-6.9-12.4z"/><path class="st4" d="M446.8 331s.7 5.5-5.3 7.2"/><path class="st0" d="M427.5 354.9c-5.3 3.3-7.3 9.9-10.4 20.6-3.2 10.7-6.6 26.5-5.4 29.7 1.1 3.3 22.7 10 25.4 5.9 2.6-4.2 1.1-22.9 1.5-30s5.7-12.8 4.1-16.3c-1.6-3.5-9.9-13.2-15.2-9.9z"/><path class="st1" d="M549.3 492.3s-13.5 4.5-18-1-.5-17.3 6.4-24 15.7-5.1 20.7-2.5c4.9 2.6 3.7 14.8 3.7 14.8l-12.8 12.7z"/><path class="st0" d="M521.4 528.5s-.6-12.8 7.2-12.9c7.8-.1 7.2 14.1 7.8 12.9.6-1.1.1-12.9 7-12.9s7.6 12.2 7.6 12.2.5-13.4 7.3-13.4c6.9 0 8.2 12.6 8.2 12.6s1.3-12.6 7.6-12.6 8.3 12.6 8.3 12.6l-61 1.5zM519.8 536.1s-8.6 14.2-2.3 17.2 14.1-12.1 14.1-12.1-6.8 15.3 0 17.9c6.8 2.6 13.2-11.8 13.2-11.8s-5.3 14.7.8 17.7 13.3-11.9 13.3-11.9-7.6 12.3 0 17.6c7.6 5.2 12.9-13 12.9-13l-52-21.6z"/><path class="st11" d="M542.6 487.4c0 8.7 7 15.7 15.7 15.7.8 0 1.6-.1 2.4-.2l-6.6-30.6c-6.6 1.8-11.5 7.8-11.5 15.1z"/><path class="st10" d="M574 487.4c0-8.7-7-15.7-15.7-15.7-1.4 0-2.8.2-4.2.5l6.5 30.6c7.6-1 13.4-7.5 13.4-15.4z"/><circle class="st0" cx="558.3" cy="487.4" r="4.9"/><circle class="st4" cx="558.3" cy="487.4" r="15.7"/><path class="st0" d="M414.7 589.3c0 6.7 4.3 15.3 7.3 20.4 2.2-1.4 4.2-3 6.2-4.6 2-1.8 4-3.8 5.8-5.8l-19-12.9c-.3.9-.3 1.9-.3 2.9zM444.7 580.4c1.3-3.6 2.1-7.2 2.6-10.7 0 0-7.6-2.1-16.5-1.1-2.7.3-5.3 1.4-7.6 3.1l19.9 12.7c.5-1.3 1.2-2.6 1.6-4zM443.1 584.5l-19.9-12.7c-4.3 3.3-7.5 8.6-8.3 14.5l19 12.9c1.5-1.8 3-3.6 4.2-5.6 2-2.9 3.7-6 5-9.1z"/><path class="st2" d="M288.2 179.1c-2 4 32.8 36.6 40.3 36.6 7.6 0 11.6-2.2 3.6-10.4s-41.9-30.2-43.9-26.2z"/><path class="st1" d="M364.3 210.9s-28.5-11.6-33.3-9.6-7 11.6-4 15.1c3 3.6 29.7 9.8 34.8 9.8 5.1 0 2.5-15.3 2.5-15.3z"/><path class="st2" d="M362.4 205.4c-4.5.5-14.2 14.2-9.3 19.1 1 1.1 3.6 2.3 7 3.6l10.2-18.9c-3.9-2.4-6.9-4-7.9-3.8z"/><path class="st0" d="M360 228.1c8.4 3.3 21.3 7.9 29.7 11 2-4.1 6.1-6.7 10.7-6.4-5.9-5.1-20.7-17.6-30.1-23.5L360 228.1z"/><path class="st4" d="M363.6 333.5c-3.2 3.3-5.9 7-5 9.1 2 4.5 10.8 4.3 18.4 6.3 7.6 2 11.6 8.9 9.6 13.4s-9.4 9.9-15.7 8.6-15.1-5.8-17.6-4.8c-2.5 1.1-2.3 7.7.8 8.3 3 .6 4.9-.5 8.6 3.3 3.7 3.9-.2 9.8 6.6 12.9 5.7 2.5 33.4-3 46.7-9.8"/></svg>