<svg version="1.1" id="Calque_1" xmlns="http://www.w3.org/2000/svg" x="0" y="0" viewBox="0 0 900 900" style="enable-background:new 0 0 900 900" xml:space="preserve"><style>.st0,.st1,.st2,.st3{fill:#fff;stroke:#000;stroke-width:10.966;stroke-linecap:round;stroke-linejoin:round;stroke-miterlimit:10}.st1,.st2,.st3{fill:red}.st2,.st3{fill:none}.st3{fill:#af5920}</style><g id="XMLID_117_"><path id="XMLID_163_" class="st0" d="M588.7 367.3s-8.8 71.3-1.6 100.9c23.9 100.2 89.1 196 82.7 345.8 0 0 85.9 12.8 85.9 2.7-26.1-89.6-85.9-463-85.9-463l-81.1 13.6z"/><path id="XMLID_124_" class="st0" d="M160.8 188.1s13.7-89.2 181.9-108 212.2 21.2 212.2 21.2-92.8 195.6-98 196.5c-5.1.9-239.1-61.2-239.1-61.2l-57-48.5z"/><g id="XMLID_175_"><path id="XMLID_176_" class="st0" d="M431.1 154.4v129.4c8.6 0 16.1-.7 21-1.5l4-149c-8.5 6.7-16.9 13.8-25 21.1z"/><path id="XMLID_177_" class="st0" d="M407.5 180.6v100.3c7.7 2.2 16.1 2.9 23.8 2.9V154.4c-8.8 8.2-16.8 17-23.8 26.2z"/><path id="XMLID_178_" class="st0" d="M386 218.4c-15.4 40.6.7 56.7 21.6 62.5V180.6c-9.2 11.7-16.5 24.4-21.6 37.8z"/><path id="XMLID_179_" class="st0" d="m456.3 133.6-4 149c3.5-.5 5.5-.9 5.5-.9l16.1-15 8.2-150.4c-8.6 5-17.4 10.9-25.8 17.3z"/><path id="XMLID_180_" class="st0" d="m537.5 88.6-6.6 124.5 35.5-33.3 1.3-99.4c-7.4.5-17.8 3.5-30.2 8.2z"/><path id="XMLID_181_" class="st0" d="m482.1 116-8.2 150.4 30.2-28.1 6-137.6c-9.2 4.6-18.7 9.7-28 15.3z"/><path id="XMLID_182_" class="st0" d="M572.4 80c-1.3 0-2.9 0-4.8.2l-1.3 99.4 49.5-46.4c.1 0-14.5-52.1-43.4-53.2z"/><path id="XMLID_183_" class="st0" d="m509.9 100.7-6 137.6 26.9-25.2 6.6-124.5c-8.5 3.1-17.8 7.3-27.5 12.1z"/></g><path id="XMLID_115_" class="st1" d="M445.9 235.2c23.8-51.4 75.7-96.5 132-113 26.1-7.7 72.7-.2 115.1-9 48.6-10.1 92.1-36 102.9-33.1 20.1 5.5 26.5 25.6 14.6 43.9-11.9 18.3-81.3 53.9-155.4 53.9S528.5 283.8 528.5 283.8s-106.3 2.8-82.6-48.6z"/><g id="XMLID_81_"><g id="XMLID_68_"><path id="XMLID_69_" class="st0" d="M661.6 499.5c-1.8-9-53.9-13.5-53.9-13.5l-307.1-19.4s-42.6-13.5-83.2-20.3c9.3 176.9 35.6 291 50.8 344 6 2.2 12.4 4 19.4 5.5 117 25.6 199.2 2.7 246.7 7.3s85.9 17.4 93.2 21.9c18.5-27.4 35.9-316.7 34.1-325.5z"/><path id="XMLID_72_" class="st0" d="M160.8 443.9C121.5 453 106 463.5 92.3 519c-13.7 55.6-13.7 211.8 17.4 245.6 58.5-32 75.8-120.1 75.8-120.1s-13 111.1 83 145.7c-15.2-53-41.5-167.1-50.8-344-22-3.6-43.2-5.4-56.9-2.3z"/></g><path id="XMLID_78_" class="st2" d="M294 797c239.4-104.5 266.8-138.4 266.8-138.4"/><path id="XMLID_87_" class="st2" d="M536.4 800.7c-2.7-63.4 20.1-127 20.1-127"/></g><path id="XMLID_77_" class="st3" d="M561.1 658.7s-12.8 15.7-97.4 59.2l-23.9-123.4-79.1-21.7-66.3-30.2 7.3-51.7 215.1-63.2h57.6l27 24.3L587 573.7l-19 41.1v23.9l-6.9 20z"/><g id="XMLID_74_"><path id="XMLID_134_" class="st0" d="M293.3 584.5s-8.2 20.5-1.8 29.1c6.4 8.6 21 5.8 23.8 0 4 8.4 32.5 9.5 32.9 0 3.3 12.2 24.5 9.3 24.5 1.8 2.6 10.4 29.4 9.9 32.2-10.4 2.7-20.3 17.5-20.3 17.5-20.3l-30.2-17.2-98.9 17z"/><path id="XMLID_136_" class="st2" d="M315.2 613.4v-28.9l32.6 3.8.3 25.1"/><path id="XMLID_137_" class="st2" d="M372.6 615.2v-23.8"/></g><path id="XMLID_76_" class="st2" d="m175.4 502.6 10.1 142"/><path class="st1" d="M486.1 621.2c-16.4-23.4-44.2-43.9-79.5-54.8s-127-16.4-127-16.4-1.8 30.7 5.5 39.3 101.4 3.3 108.7 8.6c7.3 5.3 1.8 24.3-12.8 32.5-14.6 8.2-85 5.5-93.2 14.3-8.2 8.6-.9 34.2 8.2 38.7 9.1 4.6 42.2 5.5 58.5 11.9 13 5.1 44.8 32.3 67.8 43.1 26.1-12.6 47.4-23.5 64.7-32.8 4.8-26.5 10.1-68.8-.9-84.4z"/><g id="XMLID_97_"><path id="XMLID_99_" class="st0" d="M579.3 257.5s-302.5-77.7-318-77.7c-3.7 0-6.4 9.3-9.7 23.4l341.2 92.7-13.5-38.4z"/><path id="XMLID_100_" class="st0" d="m592.9 295.9-341.2-92.7c-4.9 20.8-11 52.5-23.9 80.2-15 32.2-52.3 59.4-52.3 59.4s182.8 23.4 185.5 23.4c2.7 0 212 68 212 68l61.2-22.7-41.3-115.6z"/></g><path id="XMLID_75_" class="st2" d="m261.3 351.6 18.3-64.1"/><path id="XMLID_86_" class="st2" d="m285.1 352.5 16.4-56.6"/><path id="XMLID_101_" class="st2" d="M398.2 288 386 352.5"/><path id="XMLID_102_" class="st2" d="m424.9 295.9-13.7 56.6"/><path id="XMLID_103_" class="st2" d="m503.5 328.2-11 61.8"/><path id="XMLID_104_" class="st2" d="m523.8 351.6-11.2 45.7"/><path id="XMLID_125_" class="st2" d="M442.6 125.9 466 94.8"/><path id="XMLID_126_" class="st2" d="m194.6 156.6 47.9 23.6"/><path id="XMLID_127_" class="st2" d="m223.3 131.4 44.4 34.2"/><path id="XMLID_128_" class="st2" d="m261 118.6 42.4 52.1"/><path id="XMLID_129_" class="st2" d="m300.6 100.3 30.2 72.2"/><path id="XMLID_130_" class="st2" d="m339 93.9 13.3 82.3"/><path id="XMLID_131_" class="st2" d="m373.2 93.9 1.1 75.3"/><path id="XMLID_132_" class="st2" d="m401.1 93.9-6.5 70.9"/><path id="XMLID_133_" class="st2" d="M431.1 93 413 149.7"/><g id="XMLID_70_"><path id="XMLID_88_" class="st3" d="M605.8 442.3s-47.3-44-78-61.4c-30.7-17.4-68.2-38.2-128.5-48.4-60.3-10.2-97.8 14.6-106 37.5-8.2 22.8-2.7 47.5-2.7 59.9 0 12.4-48.4 69.5-46.6 107.3 1.1 23.8 16.4 33.8 25.6 33.8s81.3-1.8 90.5-9.1 16.4-32.9-1.8-41.9c-18.3-9-42-3.7-42-3.7"/><path id="XMLID_79_" class="st0" d="M357.3 414.7c-5.5 5.5 6.4 28 21.9 34.7 15.5 6.8 41.1-1.8 46.6-7.1s-2.7-25.2-8.2-27.6c-5.5-2.4-54.8-5.5-60.3 0z"/><path id="XMLID_82_" class="st1" d="M579.3 512.6c-23.8-1.6-25.6-22.1-21.9-39.1 3.7-17 21.9-35.1 38.4-43 16.4-8 38.4.2 47.5 21 9.1 20.7-5.5 71.8-15.5 97.4-10.1 25.6-43.9 58.5-43.9 58.5s-50.3 13.7-50.3 11c0-2.7-11.9-42.4-1.8-60.3s44.8-28.5 47.5-45.5z"/><path id="XMLID_84_" class="st2" d="M612.2 468.2s8.2 45.7-32.9 44.6"/><circle id="XMLID_83_" cx="567.8" cy="635.5" r="44" style="fill:#0068ff;stroke:#000;stroke-width:10.966;stroke-linecap:round;stroke-linejoin:round;stroke-miterlimit:10"/><circle id="XMLID_85_" class="st2" cx="567.8" cy="635.5" r="20.7"/><g id="XMLID_71_"><path id="XMLID_73_" class="st0" d="M378.7 411.6v.5c0 10.8 8.8 19.6 19.6 19.6 9.9 0 18.1-7.5 19.4-17-3.6-1.5-23-3.1-39-3.1z"/></g></g><g id="XMLID_165_"><circle id="XMLID_105_" class="st0" cx="621" cy="273.4" r="108.6"/><path id="XMLID_107_" class="st0" d="M603.3 313.1c-10.4-18.8 18.8-41.1 34.4-37.3 15.5 3.8 130.7 145.5 121.5 155.9s-145.5-99.8-155.9-118.6z"/><path id="XMLID_106_" class="st2" d="m669.8 255.7 42.6-41"/><path id="XMLID_108_" class="st2" d="m685.7 275.4 38-37.5"/><path id="XMLID_109_" class="st2" d="m566 179.8 30.2 75.9"/><path id="XMLID_110_" class="st2" d="m605.8 165.9 20.1 78.4"/><path id="XMLID_111_" class="st2" d="m516.6 302.8 57.6-12"/><path id="XMLID_112_" class="st2" d="m528.5 330.1 52.5-11.4"/><path id="XMLID_113_" class="st2" d="M605.8 345.8v34.9"/><path id="XMLID_114_" class="st2" d="m630.5 354 3.7 26.7"/></g><g id="XMLID_174_"><g id="XMLID_96_"><path id="XMLID_98_" class="st0" d="M173.6 172.5c-34.4 0-64 19.7-78.4 48.4 24.9-1.5 81.3 1.3 85.4 57-22.7-40.2-70.7-37.8-94.5-22.3 0 1.5-.2 3.1-.2 4.6 0 48.4 39.3 87.7 87.7 87.7s87.7-39.3 87.7-87.7-39.3-87.7-87.7-87.7z"/></g><path id="XMLID_89_" class="st2" d="m126.6 283.8 34.2 62"/><path id="XMLID_90_" class="st2" d="m173.6 302.8 29.2 40.1"/><path id="XMLID_91_" class="st2" d="m198.3 297.7 39.3 22.5"/><path id="XMLID_92_" class="st2" d="m205.6 274 50.2 7.6"/><path id="XMLID_93_" class="st2" d="m205.6 249.3 53.9-2.6"/><path id="XMLID_94_" class="st2" d="m194.6 221.9 49.2-7.2"/><path id="XMLID_95_" class="st2" d="m166.3 199 57-10.9"/></g></g></svg>