<svg version="1.1" id="Calque_1" xmlns="http://www.w3.org/2000/svg" x="0" y="0" viewBox="0 0 900 900" style="enable-background:new 0 0 900 900" xml:space="preserve"><style>.st0,.st1,.st10,.st11,.st12,.st2,.st3,.st4,.st5,.st6,.st7,.st8,.st9{fill:#fff;stroke:#000;stroke-width:4.3126;stroke-linecap:round;stroke-linejoin:round}.st1,.st10,.st11,.st12,.st2,.st3,.st4,.st5,.st6,.st7,.st8,.st9{fill:#ff7300}.st10,.st11,.st12,.st2,.st3,.st4,.st5,.st6,.st7,.st8,.st9{fill:#4f2409}.st10,.st11,.st12,.st3,.st4,.st5,.st6,.st7,.st8,.st9{fill:none}.st10,.st11,.st12,.st4,.st5,.st6,.st7,.st8,.st9{fill:#fdce12}.st10,.st11,.st12,.st5,.st6,.st7,.st8,.st9{fill:red}.st10,.st11,.st12,.st6,.st7,.st8,.st9{fill:#ffce00}.st10,.st11,.st12,.st7,.st8,.st9{fill:#00f}.st10,.st11,.st12,.st8,.st9{fill:none;stroke-width:2.8751}.st10,.st11,.st12,.st9{stroke:#ff5b00;stroke-width:1.4375}.st10,.st11,.st12{fill:#8c3d11;stroke:#000;stroke-width:4.3126}.st11,.st12{fill:#8c3d10}.st12{fill:#4f240a}.st13{fill:#fff}.st14{fill:red}.st15{fill:#00f}.st16{fill:#f87311;stroke:#000;stroke-width:4.3126;stroke-linecap:round;stroke-linejoin:round}</style><path class="st0" d="M511.3 613.1c-3.3 54.3 26.6 127.2 26.6 127.2s-60.2 23-96.7 13.7c-31.6-8.2-55.3-63.3-55.3-63.3l-8.6-78.3 35.7-39.2 79.5 23.4c-.3 0 20.1-6.8 18.8 16.5z"/><path class="st1" d="M511.3 613.1c-2.4 42 14.8 95 22.7 117 0 0-51 23.6-89.6 13.1-38.5-10.5-30.6-88.4-30.6-88.4l-36.7-42.4 35.7-39.2 79.5 23.4c-.1 0 20.3-6.8 19 16.5z"/><circle class="st2" cx="452.7" cy="629.4" r="9.3"/><circle class="st2" cx="479.7" cy="702.7" r="7.2"/><circle class="st2" cx="479.3" cy="731.4" r="7.2"/><circle class="st2" cx="452" cy="732.4" r="7.2"/><ellipse class="st2" cx="508.7" cy="723.5" rx="7.2" ry="7.8"/><path class="st3" d="m528.9 738.6 1.5 3.9M521.5 741.6l1.3 2.9M514.2 743.8l.9 2.4M506.4 745.8l1 2.4M499.3 747.7l.5 2.1M492.2 748.8l.6 2.3M485.2 749.7l.7 2.7M478.3 750.4l.4 3M470.1 751.1l.5 3M461.9 751.3l.6 3.6M454.1 751l.6 4.2M447.1 750.4l.4 4.5M440.9 748.8l-.3 4.6M434.1 745.4l-.1 5.6M428.1 741.5v5.9M421.9 736.7l-.1 6.4M415.9 731.1l-.2 6.4"/><path class="st4" d="M75 317.7c-1.9 9.6 65.1 84.4 84.8 286.5 0 146.2 119.3.4 119.3.4s-84.8-281.8-94.9-309.5c-13.7 5.8-107.1 13-109.2 22.6z"/><path class="st5" d="M93.7 327.3c-1.9 9.6 61.4 70.9 80.9 273.1 1 41.7 88.7 5.8 88.7 5.8s-26.9-79.8-47.9-153.4c-18.8-66-31.6-125.8-36.4-139-13.8 5.8-83.3 3.9-85.3 13.5z"/><circle class="st1" cx="159.3" cy="349.3" r="11.5"/><circle class="st3" cx="159.4" cy="350.3" r="4.2"/><path class="st4" d="m403.8 669.6-137.3-26.3-148.3 26.3-3.6 83.4h57.5l1.7-29.5h38.1l3.6-25.6 34.2.2-.7-33.5 31.9-.4 2.1 34 34.6.2 4 25.4h31.9l5.5 29.8 57 .1z"/><path class="st5" d="m387 653.8-109-20.6-148.3 26.4-3.6 83.3h35.2l2.1-28.7 35.6.3 5.7-26.9h31.6l-1.4-35.2 57.5 1.7 2.1 34.1 34.6.1 4 25.4H365l5.5 29.8 28.3-.3z"/><path class="st6" d="M118.2 599.9h296.1v69.7H118.2z"/><path class="st5" d="M127.8 610h274.6v49.3H127.8z"/><circle class="st7" cx="165.3" cy="691.3" r="11.5"/><circle class="st3" cx="165.6" cy="692.2" r="4.2"/><circle class="st7" cx="362.3" cy="691.3" r="11.5"/><circle class="st3" cx="362.5" cy="692.2" r="4.2"/><circle class="st7" cx="233.5" cy="633.7" r="11.5"/><circle class="st3" cx="233.6" cy="634.5" r="4.2"/><circle class="st1" cx="176" cy="633.7" r="11.5"/><circle class="st3" cx="176.1" cy="634.5" r="4.2"/><circle class="st1" cx="282.3" cy="633.7" r="11.5"/><circle class="st3" cx="282.5" cy="634.5" r="4.2"/><path class="st2" d="m223.4 589.8-110 1.4s-1.3-7.2-1.7-19l112 3.6-112.1-19.7c.1-5.6.4-11.6 1.2-18L230.7 566s-117.6-31.1-117.4-31.9c.7-6.2 1.7-12.7 3.2-19.3l122.6 41.3-121.2-47.9c1.6-6.2 3.5-12.5 5.8-18.7l119.3 53-115.1-63.4c2.6-5.9 5.6-11.9 9.1-17.7 0 0 101.9 79.5 102.9 77.9.9-1.4-97.2-86.8-97.2-86.8s6.8-9.2 10.6-13.5l97.3 90.9-91.3-97c4-4 8.3-7.8 12.9-11.4l89.7 99.6L182 414.6c4.5-2.9 9.1-5.6 13.9-8.2 1.6-.9 76.6 118.7 78.3 117.9 1.4-.7-70.4-121.8-69-122.5 5.9-2.6 12.2-5 18.8-7.2 61.1-19.8 56.8 144.5 56.8 144.5l-57.4 50.7z"/><path class="st0" d="M228.6 408.4 212 415c-4.5-8.1-7.2-13.1-6.9-13.2 5.9-2.6 12.2-5 18.8-7.2l4.7 13.8zM191.2 427l-9.3-12.5c4.5-2.9 9.1-5.6 13.9-8.2.3-.1 3.6 4.5 8.6 11.9l-13.2 8.8zM170.1 444.5l-10.9-11.6c4-4 8.3-7.8 12.9-11.4l10.1 11.2-12.1 11.8zM153.7 462.5c-6.9-6-11.2-9.8-11.2-9.8s6.8-9.2 10.6-13.5l10.9 10.2-10.3 13.1zM138.1 485.2l-10.5-5.8c2.6-5.9 5.6-11.9 9.1-17.7 0 0 3.9 3 10.1 7.8l-8.7 15.7zM133 514.4l-15.2-6c1.6-6.2 3.5-12.5 5.8-18.7l13.4 5.9-4 18.8zM129.5 538.8c-9.9-2.7-16.5-4.6-16.4-4.7.7-6.2 1.7-12.7 3.2-19.3l15.8 5.5s-2.1 18.6-2.6 18.5zM128.2 559.1l-16.7-2.9c.1-5.6.4-11.6 1.2-18l17.3 4-1.8 16.9zM128.7 591l-15.2.3s-1.3-7.2-1.7-19l16.1.6.8 18.1z"/><circle class="st8" cx="216.5" cy="405.8" r="2.7"/><circle class="st8" cx="193.3" cy="416.8" r="2.7"/><circle class="st8" cx="171.1" cy="433.4" r="2.7"/><circle class="st8" cx="153.5" cy="451.4" r="2.7"/><circle class="st8" cx="136.4" cy="474.1" r="2.7"/><circle class="st8" cx="127.1" cy="501.9" r="2.7"/><circle class="st8" cx="123.3" cy="527.4" r="2.7"/><circle class="st8" cx="120.5" cy="549.3" r="2.7"/><circle class="st8" cx="119.9" cy="581.9" r="2.7"/><path class="st0" d="M724.8 515.1 825 729.8s-134.7 40.7-161.4 14.4c-26.9-26.3-25.9-54.6-36.9-92.4-9.8-33.4-25.4-58.9-25.4-58.9l94.9-82.4 28.6 4.6z"/><path class="st3" d="M724.8 515.1 811.5 701s-96.6 27-121.3 22-45.6-141.9-60.1-155.4c-14.7-13.5 66-57.4 66-57.4l28.7 4.9zM791.9 706.3l-2.7-10.1M799.1 703.8l-2.7-10M773.7 710.3l-2.2-8.9M767.5 712l-2.2-9M744.9 717.1l-2.4-7.8M738.9 718.2l-2.2-7.9M711.9 722.5l-1.3-7.9M705.4 723.5 704 715M677.7 709.4l8.7-5.6M674.8 703.5l8.7-5M664.6 675.7l9.9-2.1M662.6 669.6l10-2M652.6 634.7l11.1-1.6M655.2 641l9.7-1.6M647.6 615.3l10.8-.6M645.7 608.8l10.8-.6M616.6 605.8s17.4-4.3 17.4 1.2c0 5.3-16.7 5.9-16.7 5.9M627.9 638.9s17.4-4.3 17.4 1.2c0 5.3-16.7 5.9-16.7 5.9M634 669.9s17.7-6.3 17.7-.9c0 5.3-17.4 8.8-17.4 8.8M645.3 718.2s15.8-8.2 17.3-3c1.4 5-14.2 9.1-14.2 9.1M686 752.3s.1-17.4 4.5-17.4c4.3 0 3.3 17.7 3.3 17.7M733.1 749.5s-4.3-18.5 0-18.5 6.3 18.4 6.3 18.4M772 742.6s-4.9-21.6-.6-21.6 7.8 20.3 7.8 20.3M806.3 735s-7.3-19.6-3-19.6 8.8 17.1 8.8 17.1"/><path class="st10" d="M724.8 515.1 806.5 690s-84.2 29.2-109 24.2c-24.7-5-40.3-136.6-58.7-152.8-4.2-3.7-9.3-3.7-2.2-10.8 18.1-17.7 59.5-40.3 59.5-40.3l28.7 4.8z"/><circle class="st3" cx="726.8" cy="551.7" r="4"/><circle class="st3" cx="683.1" cy="627.8" r="4"/><circle class="st3" cx="674.8" cy="652.2" r="4"/><circle class="st3" cx="700.7" cy="669.9" r="4"/><circle class="st3" cx="691.3" cy="694.3" r="4"/><circle class="st3" cx="716.8" cy="706.6" r="4"/><circle class="st3" cx="735.6" cy="686.4" r="4"/><circle class="st3" cx="761.7" cy="694.8" r="4"/><circle class="st3" cx="775.1" cy="670.2" r="4"/><circle class="st3" cx="794.1" cy="681.7" r="4"/><circle class="st3" cx="783.2" cy="649.5" r="3.2"/><path class="st3" d="m672.6 666 77.4 39.8M675.5 675.7l61.8 33.4M665.4 638l122.9 57.5M662.6 627.9l134.4 65M799.1 674.2l-126.5-71.9M793.8 663.1l-112.6-64.6M664.7 628.5l65.1-101.9M690.3 641.3l50.6-90.3M675.9 667.2l10.5-19M731.6 581.2l12.6-23.4M768.1 648.2l9.9-18.5M755.1 672.5l9.5-17.8M740.2 700.7l11.8-22.3M773.8 651.5l7.8-14.2M761.5 675.1l8.9-17.1M745.8 703.7l11.9-22.3M708.4 684.1l28.5-59.9M695.2 712.3l9.8-20.7M714.7 687.7l25.5-50.4M701.4 714l9.5-18.8M682.3 670.6l53.9-97.4M659.7 617.1l65.1-99.6M789.1 660.3l1.7-3.3M777.1 683.1l8.4-15.5M767.8 701.2l6.3-12.3M782.4 685.4l7.8-16.2M775.8 699.4l3.8-7.8"/><circle class="st0" cx="723.7" cy="652.4" r="29.2"/><path class="st0" d="M701.4 645.9s-5.8 6.9-6.6 11.2M705 650.4s-6.9 8.8-6.9 15.7M702.5 671.8c.1-7.2 6.2-17 6.2-17M708.6 676.8c0-7.3 5.2-17 5.2-17M715 679.8c-.6-4.9 4.5-15.1 4.5-15.1M721.9 681.4c-.7-4.9 3.3-12.7 3.3-12.7M728.7 680.8c-.9-3.6 2.7-8.3 2.7-8.3"/><circle class="st0" cx="702.8" cy="571.9" r="26.6"/><path class="st0" d="M693.5 547.1s3 2.9 3.6 6.2M699.9 545.4s2.9 3.7 2.6 7.8M705.7 546.1s2.7 4.2 1.9 8.1M711.1 547c2.9 2.6 2.3 10.2 2.3 10.2M717.6 550c2.6 2.7 1.9 9.8 1.9 9.8"/><path class="st10" d="M538.5 565s14.4 47.6 49.3 43.6c46-5.3 139-57.5 154.2-116 13.4-51.2 2.9-93.9 2.9-93.9l-150.4 16.8-56 149.5z"/><path class="st2" d="M604.8 588.7s12.2 1.9 38.8 1.1c4.9-2.4 9.9-5.2 14.8-7.9-30.3.4-57.6-3.6-57.6-3.6l4 10.4zM670.9 562.1c32.2-21.3 68.7-56.5 71.3-69.4 2.9-14.2 5.6-27.3 6.3-39.4-6 51.8-77.2 92-74.3 91.3 2.9-.8-6.9 10.2-3.3 17.5z"/><path class="st0" d="m691.3 488.1 30.2-34.5 12.2 3.3-33 40.9z"/><path class="st2" d="m708.6 495 33-40-10.3-1.7-32.4 37.3zM709 455l-16.5 19.8-9.8-8.6 5.7-16.5h20.2z"/><path class="st0" d="m643.6 525.9 27.3-27.1-17.3-12.2-25.5 15.8 5.7 19.4z"/><path class="st3" d="m628.5 520.4 33.8-25.4"/><path class="st2" d="m636.4 503.6 23.7-11.9-6.9-21.9-28.3 12.2z"/><path class="st0" d="m631.4 481.3 36.9-3.6-7.2-34.5-27.6 1-9 32.1z"/><path class="st2" d="m651.1 528.3 36.4-37.1 11.9 5.5s-35.7 34.5-43.6 35.9c-4 .7-4.7-4.3-4.7-4.3z"/><path class="st0" d="M664 540.2c11.2-4.7 43.8-43.6 43.8-43.6l-12.9-2.2-43.6 43.1c.2.2 1.6 7.3 12.7 2.7zM597.9 568.6l47.4 5.4-10.3-30.6-27.4 3.6z"/><path class="st3" d="m605.8 561.4 36.3 6.4"/><path class="st2" d="M538.5 565s3.6 11.9 11.5 23.3c-1 1.9 49.9 18.3 56.8 16.2 2.3-.7 4.7-1.4 7.2-2.3-72.2-22.1-75.5-37.2-75.5-37.2z"/><path class="st0" d="M563.8 572.6s15.8 14.4 35.7 17c19.8 2.6-10.8-29.5-10.8-29.5l-23.4 4.7-1.5 7.8zM701.4 447.5l35.9-45-29.7 2.9-24.9 29.5z"/><path class="st3" d="m692 445.6 32.4-41.6"/><path class="st2" d="m691.3 436 23.7-30.9-12.5 1.7L682 432zM715.5 443.9l25.6-39.5 6.9 4.3s-18 34.2-25.6 37.8-6.9-2.6-6.9-2.6z"/><path class="st0" d="m642.9 426.2 11 17 24.5 7.5-2.5-29.8-13.6-17.2-21.3 10.8z"/><path class="st2" d="m655.8 416.9 18 27.7 27.6 2.9-25.2-41-26.6 4.4z"/><path class="st3" d="m682.4 447.5-25.6-42.8"/><path class="st0" d="m637.8 514.7 39.6 33-20.6 16.5-33.1-38z"/><path class="st3" d="m667.3 405.8 24.4 41.7"/><path class="st0" d="m320.9 585.5 13.7-22.3-75.9-70.9s-43.8 47.2-42.4 101.3c0 0 33.5-7.6 45-8.6 11.4-.9 59.6.5 59.6.5z"/><path class="st3" d="M241.8 588s-2.2-50.3 33.5-89.1M252.1 584.1s0-46.7 35.7-85.5M261.5 584.1s.7-46.7 36.4-85.5M271.3 584.1s1.4-45.7 37.1-84.5M285.9 584.8s1.4-46.7 37.1-85.5M297.4 584.8s4-45.7 39.5-84.5M230.6 535.5l10.8 2.6M227 544.6l11.9 1M223.4 553.2l13.6.7M221.2 560.7l13.7.7M219.5 568.6l13.7.7M218.1 576.9l14.3-1.2M217.4 584.8l14.3-1.1"/><path class="st10" d="M496.8 400.1c21.6 2.4 158.6-2.4 159.6 1C672.6 457.1 550 658 388.6 598c-236.8-96.3-149.5-303.3-149.5-303.3s210.7 98.8 257.7 105.4z"/><path class="st0" d="M371.2 588.7s39.1 34.6 108.2 19.8c63.7-13.7 75.5-41 75.5-41l-35.2-59.7L366.4 523l-23.7 56.1 28.5 9.6z"/><path class="st5" d="M326.2 563.5c1 8.1-6.9 22.9-6.6 29.5 1 20.8 2 31.2 2 31.2s32.8 19.7 26.6-26c3.6 25.4.4 23.9 7.3 30.8 6.9 6.9 58.4 27.2 66.8 35.1 8.5 7.8 38.5-5.3 27.5-21.9-11.1-16.5-83.4-43.1-82.5-83.1-5.5-17.1-42.6-6.1-41.1 4.4z"/><path class="st7" d="M323.6 599.3s-14.7 25.4-16.1 34.2c-1.3 8.8 9.9 25.9 22.4 28 12.5 2.2 21.4-16.8 9.8-26-2.7-1.3 2.2 17.7-12.2 15.1-6-.7-12.1-10.5-10.8-15.7 1.3-5.2 8.6-23.7 8.6-23.7l-1.7-11.9z"/><path class="st2" d="M324.3 584.9s-19.8 33.6-21.9 47.2c-2.2 13.5 9.2 34.4 28.6 37.7 19.3 3.3 33.4-20.4 15.4-34.6-4.2-2 3.5 27.3-18.8 23.4-9.3-1.2-18.5-16.1-16.5-24.2 2-8.1 13.4-36.5 13.4-36.5l-.2-13zM421.3 651.8c5.5-2.4 12.7 21.4 18.1 13.9 8.2-11.1 20.3 11.5 15 28.5-3.6 11.5-20.6 21.9-38.8 19.6-27.3-2.2-30-28.2-21.3-39.4 4.5-3.7 1.6 24.2 24.3 22.7 11.4-.9 12.7-24.6 7.6-28.3-4.9-3.8-10.3-14.6-4.9-17z"/><path class="st7" d="M421.3 651.8c5.5-2.4 15 4.6 18.1 13.9 4.6 13.4 4.7 38.1-22.9 40.3-17.7 0-31.1-20.3-22.3-31.5 4.5-3.7 1.6 24.2 24.3 22.7 11.4-.9 12.7-24.6 7.6-28.3-4.8-3.9-10.2-14.7-4.8-17.1z"/><path class="st7" d="M452.2 646.3c8.3 7.3 36.7 50.9-10.8 74.5-32.8 14.8-63.1-6-59.4-13.8 1.6-3.5 23.3 14.1 52 2.6 20.6-12.5 21-40.1 8.8-47.3-12.1-7.2-12.4-20.6-8.1-22.4 4.3-1.8 9.2-.9 17.5 6.4z"/><path class="st2" d="M452.2 646.3c8.3 7.3 36.7 50.9-10.8 74.5-32.8 14.8-63.8-6.3-59.4-13.8.9-1.4 24.7 25.6 58.2 6.5 32.1-18.7 13.9-52.8 9.6-57.8-9.1-10.8-19.6-13.9-15.2-15.8 4.4-1.8 9.3-.9 17.6 6.4z"/><path class="st0" d="M442.8 662.4c-14.8-8.3-12.4-20.6-8.1-22.4s9.2-1 17.5 6.3c0 0 4.9 12-9.4 16.1z"/><path class="st0" d="M426.4 668.8c-3-1-10.5-14.5-5-17 5.5-2.4 15.5 4.3 18.1 13.9 0 0-7.1 5.1-13.1 3.1zM324.3 584.9c-1.6-.4-4.9 8.3-10.2 18.4-1.4 2.7 7 11.4 10.5 10.2 3.4-1.1 14.9-21.2-.3-28.6zM372.6 561.4s27.3 38.8 84.1 31.6c56.8-7.2 73-37.1 73-37.1l-10.8-112.6S466 405.2 465 405.5s-90 43-90 43l-2.4 112.9z"/><path class="st3" d="m383.7 560.7-.3 12.2M390.6 568.3l.3 10.3"/><path class="st10" d="M379.1 544.6s7.2 9.1 16.2 13.4l7.6-13.4s27 35.2 106.1-12.7c78.6-47.6-29.9-127.7-29.9-127.7l-81.2 29.5-30.8 66.6 12 44.3z"/><path class="st3" d="m374.8 540.5 40.5-71.1M402.8 544.6l42.7-74.8"/><path class="st2" d="m387 556.3 42.7-75.7-7.5-5.8-42.4 73.3zM409.3 554.2l39.8-69.7 6.5 2.5-41.3 70.5zM438.3 558.9l50-92.7 2.9 10.1-43.8 84.8zM466 554.9l31.2-60.4 3.3 8.7-27 52.9z"/><path class="st3" d="m489 546 16.1-31.3M459.6 553.5l36.6-71.5M431.5 558.5 484 458.3M424.6 556.8l55.8-106.4"/><path class="st0" d="M530.7 556.3s56.8-72-22-24.4c-79.1 47.9-106.1 12.7-106.1 12.7l-7.5 13.2c-9.1-4.3-16.2-13.4-16.2-13.4l-14.4 7.6-1.2 19.4"/><path class="st3" d="M513.5 545.6s-71.2 45-118.3 12.2"/><path class="st2" d="M245.7 425.5s-5.8 9.1-16.1 9.8c-2.6-10.4-4.2-20.4-5.2-30.3 11.2 11.6 21.3 20.5 21.3 20.5zM254.3 420.5s-15.1-12.2-30.8-28.6c-.1-4.5-.3-8.9-.1-13.1 7.6 10.1 36.4 40.3 36.4 40.3l-5.5 1.4zM239.6 364.1s-9.8-1.4-16 6c.6-10.8 1.7-20.8 3.2-29.8 4.9 5.4 12.8 23.8 12.8 23.8zM245.7 359.8s-12.7-29.9-16.2-33.2c1.7-7.6 3.5-14.2 5-19.3l24 59.7-12.8-7.2zM291 364.9l-20.2-47.2-13.2-.3 25.2 51.1zM261.5 372l40.2 46.8-19.4 3.6-39.1-48.2z"/><path class="st2" d="M344.6 490.6s-53.6-14.8-111-41.1c-2.3-7.2-4.2-14.4-5.6-21.4 58.1-7.5 97.6 16.5 97.6 16.5l19 46zM352.8 533.3s-40.3-11.9-81.1-15.2c-4.3-5.2-8.3-10.4-12.1-15.7 64 10.1 92.7 17 92.7 17l.5 13.9zM365 557.8s-22.7-9.8-51.2-.6c-5.8-4.3-11.2-8.6-16.4-13.1 57.1-8.6 74 5.8 74 5.8l-6.4 7.9z"/><path class="st0" d="M363.3 562.5s-25.9-4.7-39.7 1.6c-5.8-3.9-11.2-7.9-16.4-11.9 32.3-7.2 56.5-.3 56.5-.3l-.4 10.6z"/><path class="st3" d="M316.5 558.2c17.3-5.5 47.2-1.4 47.2-1.4"/><path class="st0" d="M354.6 535.5s-56.8-5.5-71.7-5.2c-5.3-5.3-10.1-10.9-14.5-16.4 52.9 3.6 83.4 10.8 83.4 10.8l2.8 10.8zM354.9 510.3s-79.1-14.4-103.4-20.6c-5.5-9.2-9.9-18.4-13.5-27.7 23.9 15.5 129.1 38.2 129.1 38.2l-12.2 10.1zM243.9 313.8l22.6 51.3 18.7 1.2-26.6-53.6zM229.1 375.2l37.8 42.1 17.3-7.6-38.8-38.8z"/><path class="st3" d="m234.6 371.3 43.1 45.3"/><path class="st0" d="M233.9 441.3s77.3 34.2 104.2 40.7c26.9 6.5-6.2-15.5-6.2-15.5l-90.1-41-7.9 15.8z"/><path class="st3" d="m235.3 432.4 102.4 43.9"/><path class="st0" d="M243.9 473.7c10.8 10.8 112.8 30.6 112.8 30.6M358.5 530.9s-60.1-9.8-81.2-7.9"/><path class="st3" d="m250.7 311.7 25.9 56.3"/><path class="st0" d="m282.8 326 14.3 39.9 13.7-26.2-20.9-15.1z"/><path class="st0" d="m272.3 373.5 31.6 35.2.7-43.1-24.4-1.2z"/><path class="st3" d="m271.5 364.1 31 31.7"/><path class="st2" d="M352.5 171.5c-.9 0-62.5.4-116.9-.7-38.5-.9-74.2-1.3-75.2-.7-2.2 1.4-2.2 13.7-.4 16.5 1.7 2.9 203.1 2.6 203.1 2.6l-10.6-17.7z"/><path class="st11" d="M356.7 178.3s-60.2 2.6-114.6 1.4c-38.5-.9-69.1-.3-70.2.4-2.2 1.4-5.3 7.3 4.6 7.6 48.4 1.6 186.6 1.3 186.6 1.3l-6.4-10.7z"/><path class="st12" d="M168.5 258.8c3.6-1.9 103.9-38.8 103.9-38.8l39.5-1.2s-7.6 5.8-8.6 15.5c-24.9-1.4-126.5 34.9-132 35.9-5.4 1.1-6.4-9.6-2.8-11.4z"/><path class="st11" d="M181.4 261.4c7.9-6.5 127.5-40.1 124.9-35.9-1.4 2.4-2.7 5.5-3.2 9.1-20.6-1.2-93.4 23.4-121.3 32.6-5.7 1.6-3.5-3.4-.4-5.8z"/><path class="st2" d="M160.9 192.6c2.9-3.3 194.5-6.5 194.5-6.5l3.9 13.7s-194.1 8.3-197.4 7.2c-3.3-1.1-3.9-11.1-1-14.4z"/><path class="st11" d="M173.1 200.5c2.9-3.3 184.4-6.5 184.4-6.5l1.9 5.8s-141.2 6-184.7 7c-7.7.4-4.5-2.9-1.6-6.3z"/><path class="st12" d="M162 237.9c2.2-3.6 129.4-31.3 129.4-31.3l30.6-.7s15.1 6.2 5 9.8c-14.1-.4-156 34.5-161.4 35.7-5.5 1-5.7-9.9-3.6-13.5z"/><path class="st11" d="M177.4 243c2.2-3.6 149.5-34.5 149.5-34.5 3.3 2.2 5.9 5 0 7.2-11.6-.3-110.8 23.6-147.8 32.3-7.6 1.9-3.9-1.4-1.7-5z"/><path class="st12" d="M163 215.4c1.9-1.4 38.2-9.3 79.8-14.1 48.9-5.5 114.7-7.2 114.7-7.2l-7.9 12.2s-57.5 5.3-108.5 11.9c-39.7 5-75.5 11.6-77.3 11.5-3.9-.4-4.7-11.2-.8-14.3z"/><path class="st11" d="M174.9 222.1c1.9-1.4 30.3-7.5 71.9-12.2 48.9-5.5 101.2-10.8 101.2-10.8l1.6 7.2s-57.5 5.3-108.5 11.9c-25.7 3.3-49.7 7.2-64.1 9.5-7.8 1.2-6.1-2.3-2.1-5.6z"/><path class="st10" d="M291 235.8c0 27.3 34.5 18.4 39.5 8.6s-2.2-17.3-3.3-17.7c-3.6-1.6 27.3-8.3 27.3-8.3s8.3 20.8 17.7 19.1 55.1-22.7 55.1-22.7l-9.3-27.7-88.8 21.4-28.8 19.4-9.4 7.9z"/><path class="st2" d="M417.2 163.6s-97.8-9.8-115.7-1.9c-11.9 5.5-14.4 12.2-11.9 27.3 2.4 15.1 19.4 19.1 26.3 9.1 3.9-5.6 1.9-11.2-2.6-11.5-4.5-.3-7.6 2.6-7.9-4.3-.4-6.5 44.3-4 44.3-4l7.2 18.4s-69 9.1-65.8 39.2c4 17.3 29.9 11.9 32.8 3.3 1.4-4.3 0-7.9-3.5-9.5-3.6-1.6-7.6 3.3-7.6-2 1.2-7.6 47.4-17.3 47.4-17.3s4.3 20.6 13.7 18.7c9.3-1.9 52.2-21.6 52.2-21.6l-8.9-43.9z"/><path class="st6" d="M179.3 169.8c-11.2-.1-18.4 0-18.8.1-2.2 1.4-2.2 13.7-.4 16.5.3.6 7.6 1 19.1 1.3l.1-17.9zM160.9 192.6c.6-.6 7.6-1.2 18.7-1.7v16c-10.5.3-17 .4-17.5.1-3.4-1-4.1-11.1-1.2-14.4zM163 215.4c.7-.6 6.8-2.2 16.2-4l1.4 15.8c-9.9 1.6-16.2 2.7-17 2.6-3.7-.5-4.5-11.3-.6-14.4zM162 237.9c.6-.9 8.2-3.2 19.7-6 0 0 2.2 15 1.4 15.2-9.9 2.4-16.5 3.9-17.5 4.2-5.5 1-5.7-9.8-3.6-13.4zM168.5 258.8c.9-.4 7-2.7 15.8-6.2l2.3 12.7c-8.5 2.9-14.2 4.7-15.4 4.9-5.3 1.2-6.3-9.6-2.7-11.4z"/><path class="st5" d="M485.7 162.5s-76.2-12.2-78.8-11.2c-2.6 1 10.8 70.2 14.8 71.2s66.1-7.9 76.2-5.5c10.1 2.4-12.2-54.5-12.2-54.5z"/><path class="st1" d="M371.5 160c24.4 1.4 45.7 3.6 45.7 3.6l8.6 43.8s-18.5 8.5-33.4 14.7c0 0-15.5-23-20.9-62.1z"/><path class="st3" d="m374 168.9 44.6 1.5M375.8 179l43.1-1.7M378.4 189.5l43.1-5.1M382.2 199.5l39.6-9M385.5 207.7l38.1-10.7M389.1 215.4l34.8-12.7"/><path class="st2" d="M382.7 160.7c3.7.3 10.8.7 10.8.7s2.4 44.4 15.7 53.3c-1.7.7-3.6 1.6-5.5 2.4-14.6-3.9-24.6-56.7-21-56.4z"/><path class="st6" d="M426.5 153.4c-10.6-1.4-18.7-2.4-19.4-2.2-2.6 1.2 10.8 70.2 14.8 71.2 1.3.4 9.2-.4 19.4-1.4-3-19.3-14.8-67.6-14.8-67.6z"/><circle class="st7" cx="495.5" cy="178.7" r="34.9"/><path class="st5" d="M438.3 590.8c17.7 11.2 27.6 29.5 35.2 42.8 10.5 18.3 16.2 27 16.2 27s35.2.4 9.1-37.4c14.8 20.8 11.5 21.3 20.1 23.7 8.6 2.4 58.9-6.5 69.4-4 10.5 2.4 28-25.2 11.5-34.2-16.5-9.1-86.3 5.5-104.2-30.9-16-.9-31.9 6.9-57.3 13z"/><path class="st7" d="M479.7 637.3s.1 30.6 3.3 39.2c3 8.6 20 18 30.9 13.4 10.9-4.6 9.1-26.5-4.3-28.5-2.7.3 10.1 14.7-2.6 20-5.2 2.6-14.4-3-15.8-8.3-1.4-5.3-4.2-25.9-4.2-25.9l-7.3-9.9z"/><path class="st2" d="M473.5 623.9s0 40.7 4.7 53.9c4.7 13.2 23.4 25.9 40.3 18.7 16.8-7.2 17-35.9-4-39.2-4.3.4 16.2 24.2-3.3 32.3-7.9 4-24.6-5-26.6-13.4-3.3-12.9-3.3-42.1-3.3-42.1l-7.8-10.2z"/><path class="st0" d="M473.5 623.9c-1.4.4 0 10.1.6 22 .1 3.2 10.9 6.5 13.1 3.6 2.1-2.9 1.8-27-13.7-25.6z"/><path class="st13" d="M428.2 582.6s-13.9-6.2-27.9 1.1c13.7 7 32.3 12.1 56.4 9.1 56.8-7.2 73-37.1 73-37.1l-101.5 26.9z"/><path class="st3" d="M372.6 561.4s27.3 38.8 84.1 31.6c56.8-7.2 73-37.1 73-37.1M402.1 575.7l.3 8.7M411 579.1l1.1 9.3M420.8 581.9l1.7 8.9M431.1 584.1l1.7 8.9M443 584.4l1.8 8.9M453.4 584.1l2.4 8.5M463.7 581.9l3.1 8.9M473.1 579.8l3 8.9M481.4 576.8l3.2 8.7M490.3 572.6l4.4 9.6M504.1 577.2l-6.4-9.8M513.3 571.7l-7-10.5"/><path class="st3" d="M398.5 552c47.6 30.6 111.1-12.2 111.1-12.2"/><path class="st7" d="M622.9 433.7c30.8 3.2 136.4 13.1 149.1 18 13.9 5.3 15.8 18.3 12.5 23.6-5 8.5-18.8 9.8-21.9 2-1.4-3.6-.4-8.9 2.4-10.1 2.9-1.2 2.6-1 2.9-2 .6-2.2-114.7-11.2-132.7-12.9 1.8-3.6 2.3-16.7-12.3-18.6z"/><path class="st3" d="M767.9 465.3s-.9 9.9 5.3 8.6c5-1 5.2-11.5-2-14.7-5.6-2.6-95.3-11.9-140.6-15.1"/><path class="st7" d="M611.1 440.6c27.3 14.4 121.9 62.7 131.8 71.9 10.9 10.1 7.9 22.7 2.9 26.6-7.8 6-21.1 2.2-21.1-6.2 0-3.9 2.9-8.5 6-8.5s2.9 0 3.5-.7c1.3-1.7-102.5-52.9-118.5-61.1 2.9-2.9 8.3-14.9-4.6-22z"/><path class="st3" d="M734.1 523.6s-4.5 8.9 1.7 10.1c5 1 9.1-8.8 3.6-14.4-4.3-4.5-84.1-46.4-125.1-66"/><path class="st7" d="M562.5 482.3c12.8 28.2 57.5 124.5 59.7 137.9 2.4 14.7-7.8 22.9-14.1 22.7-9.8 0-18-11.4-12.8-17.8 2.3-3 7.5-4.9 9.9-3 2.4 1.9 2.2 1.7 3.2 1.4 2.2-.6-48.2-104.7-55.8-121 4-.4 15.7-6.7 9.9-20.2z"/><path class="st3" d="M608.2 623.5s-8.9 4.2-4.9 8.9c3.5 3.9 12.5-1.3 11.6-9.1-.6-6-37.8-88.4-57.8-128.9"/><path class="st0" d="M496.8 400.1c21.6 2.4 158.6-2.4 159.6 1 9.3 32.3-27.5 112.8-91.3 163.6-46.9 37.4-68.3-164.6-68.3-164.6z"/><path class="st4" d="M496.8 400.1c16.8 1.9 104.2-.6 142-.3-4 19.8-11.2 75.8-75.2 126.6-46.7 37.4-66.8-126.3-66.8-126.3z"/><path class="st3" d="m633.5 457.1 9.4 7.2M637.4 447.8l10.5 5.5"/><path class="st14" d="m497.5 372.3 6.6 14 39.1-6.1-16.2-22.7z"/><path class="st7" d="M496.8 400.1c-47-6.6-257.9-105.4-257.9-105.4s-33.5-15.1-39.7.4c-6.2 15.5 4.3 19.8 10.5 20.8 15.8 1.9 9.1-12.7 9.1-12.7l85.5 38.1 118.6 63 73.9-4.2z"/><path class="st3" d="M218.8 303.3s-3 6-8.1 4.3c-2.4-1.2-5.6-4.6-3.3-9.3 2.6-3.2 4.2-4.5 17.4 0s66.4 30.6 80.5 35.8"/><path class="st7" d="M300.3 359.4c-17.3.1-65.4-5.5-86.7-5-16.2.3-34.4 4.6-34.2 20.6.7 17.7 18 26.6 29.2 20.8 14.4-7.2 4-20.1-.4-20.8 18.4-2.6 93.2 4 93.2 4s27.7-19.9-1.1-19.6z"/><path class="st3" d="M208.3 374.9c4.3.7 1.4 11.9-6.5 11.9-5.9 0-16.5-9.8-4-17.7 12.5-7.9 108.5-1.2 112.6 2.9"/><path class="st7" d="M278 411.4c-15.8 4-40.4 9.3-52.2 13.4-11.4 3.9-23.3 11.2-19.4 22.4 4.6 12.4 18.8 14.7 25.4 8.1 8.5-8.3-1.9-15.2-5-14.7 8.9-4.3 39.2-11.9 55.8-16 6.6-1.5-.4-14.2-4.6-13.2z"/><path class="st3" d="M226.7 440.6c3.2-.4 3.7 8.1-1.9 9.9-4.2 1.4-13.9-3-6.9-11.5s76.6-25.7 80.4-23.9"/><path class="st7" d="M304.3 451.4c-11.4 9.2-46.4 30.6-60.4 42-10.6 8.6-20.4 21-12.1 31.5 9.6 11.4 25.9 8.3 30.3-1.3 5.8-12.4-7.9-15.5-11.2-13.7 10.9-11.2 64.1-46.1 64.1-46.1s8.3-27.6-10.7-12.4z"/><path class="st3" d="M251.1 509.9c3.3-1.7 7.2 7.2 1.9 11.4-3.9 3.2-16.1 2.2-11.8-9.6 4.3-11.8 71.7-57.5 76.5-56.9"/><path class="st15" d="M341.7 485.6c-9.3 11.2-39.4 39.2-50.9 53-8.8 10.6-15.8 24.7-5.6 33.4 11.8 9.2 27 3 29.5-7.3 3.3-13.2-10.8-13.7-13.7-11.2 8.5-13.2 53.8-57.9 53.8-57.9s2.6-28.8-13.1-10z"/><path class="st15" d="M301.2 553.5c2.9-2.4 8.5 5.6 4 10.6-3.3 3.9-15.4 5.3-13.5-7.2 1.9-12.5 58.9-70.6 63.7-71"/><path class="st3" d="M341.7 485.6c-9.3 11.2-39.4 39.2-50.9 53-8.8 10.6-15.8 24.7-5.6 33.4 11.8 9.2 27 3 29.5-7.3 3.3-13.2-10.8-13.7-13.7-11.2 8.5-13.2 53.8-57.9 53.8-57.9s2.6-28.8-13.1-10z"/><path class="st3" d="M301.2 553.5c2.9-2.4 8.5 5.6 4 10.6-3.3 3.9-15.4 5.3-13.5-7.2 1.9-12.5 58.9-70.6 63.7-71"/><path class="st3" d="M341.7 485.6c-9.3 11.2-39.4 39.2-50.9 53-8.8 10.6-15.8 24.7-5.6 33.4 11.8 9.2 27 3 29.5-7.3 3.3-13.2-10.8-13.7-13.7-11.2 8.5-13.2 53.8-57.9 53.8-57.9s2.6-28.8-13.1-10z"/><path class="st3" d="M301.2 553.5c2.9-2.4 8.5 5.6 4 10.6-3.3 3.9-15.4 5.3-13.5-7.2 1.9-12.5 58.9-70.6 63.7-71"/><path class="st7" d="M366.3 490.4c-.4 14.7-6.6 55.2-7 73.2-.3 13.7 2.9 29.2 16.2 29.6 15 0 23.1-14.4 18.5-24-5.6-12.4-17-4-17.7-.4-1.6-15.7 6.3-78.8 6.3-78.8s-15.7-23.9-16.3.4z"/><path class="st3" d="M376.3 568.8c.7-3.6 10.1-.9 9.8 5.9-.1 5-8.8 13.7-15.1 2.7s2.6-92 6-95.2"/><path class="st0" d="M342 491.7c-50.7-28-57.9-134.8-36.5-166.6 66 29.6 161.6 70.9 191.3 75 0 0-62.8 140.4-154.8 91.6z"/><path class="st3" d="m296.7 350.5 13.2 2.1M296 361.1l13.6.5M294.5 370.2l15.1.3M294.8 380.5l14.8-.5M295.3 390.7l14.8-1.5M296.3 401.8l14.5-2.4M297.9 412.3l14.3-3.6M300.3 423.1l13.2-3.8M303.5 433.9l12.2-4.5M306.3 446.1l12.7-5.5M312.1 458.6l10.9-6.1M328 462.2l-8.7 7.9M326.6 479.4l8.2-8.9M336 487.6l6.4-8.9M346.6 494.2l4.3-10.2M356.8 498.1l3.4-10.8M368.6 500.3l1.4-10.4M379.4 502.1l.3-10.7M390.9 501.3l-1.2-10.7M400.9 498.4l-1.8-9.2M411 495.2l-3.2-9.3M422.1 489.1l-4.4-7.9M431.8 482.3l-4-7.6M441.5 474.7l-4.6-5.8"/><path class="st4" d="M358.5 472.7c-50.7-28-40-141.7-33.1-138.6 64 28.3 144.5 62.2 171.4 66.1 0-.1-68.6 101.9-138.3 72.5z"/><path class="st5" d="M568.1 323.2c-9.2 11.9-31.9 11.9-42.8 23.7-20.7 22.3-28.5 53.3-28.5 53.3 14.5 1.6 81.7 0 124.1-.3 0 0-5.3 44.1-21.6 64-16.2 19.8-152.8-34.1-152.8-34.1s-34.1 36.4-73.7 24.4c-47.2-17-33.6-114.3-33.6-114.3 20.4 8.9 42 18.3 62.7 26.7 0 0 4.6-24.2 4.6-27s-5.3-6.2-5.3-9.1c0-2.9 5.8-2.9 6.2-6.2s-6.8-3.9-6.8-8.6 10.5-8.2 7.6-11.5c-2.9-3.3-6.2 3.3-17.3-4.3-11.1-7.6-28.3-42.1-26.9-47.4s25.4-14.8 39.2-11.1c13.9 3.9 19.7 11.1 19.7 11.1s1.4-9.1 6.8-12.5c5.3-3.3 10.5 1.9 13.4 0s-4.7-12.9 5.3-17.7c10.1-4.7 14.4 4.3 17.3 2.4 2.9-1.9.4-11.5 7.2-12.9 6.8-1.4 14.8 5.3 17.7 5.3s3.5-8.2 11.6-7.6c8.2.4 7.6 9.1 11.9 8.6 4.3-.4 8.6-8.6 14.4-8.6s8.6 5.8 11.9 5.3c3.3-.4 5.8-9.1 12.9-8.6 7.2.4 11.5 11.1 13.4 11.9 1.9 1 9.1-3.3 13.4-1.4 4.3 1.9 5.8 11.1 7.6 12.5 1.9 1.4 11.1-1.4 11.9.4 1 1.9 1.4 9.6 3.9 11.5 2.4 1.9 9.6 0 12.5 4.7s1.4 14.1 3.3 18.4c1.9 4.3 7.2 11.4 8.6 15.2 1.4 3.9-4.3 13.4-1.9 19.7 2.4 6.2 15.4 9.6 17.3 14.8 1.9 5.3-1.4 9.6-1.4 14.4s16.8 35.5 17.3 41.7c.4 6.2 10.1 30.5 10.1 30.5s-30.2.9-32.2-.4c-1.9-2.9.4-10.5-.4-12.8-.7-2.3-5.5-3.3-6.2-6.6s1.9-6.2.7-8.3c-1.1-2.2-5.8-2.9-7.2-6.2-1.4-3.3 3.7-5.2 3.5-7.8-.3-2.6-7.3-2-8.6-5.8s1.6-9.3.9-13.4c-.7-4-7.3-4.9-8.5-9.1s-.1-10.5-.9-14.2c-.7-3.9-6.9-7.6-6.9-11.2s-.9-6.8-1-9.1c-.1-2.4-8.1-15.7-12.7-15.7-1.7.1-4.1 20.1-21.7 43.3z"/><path class="st2" d="M590 280c4.7 0 29.3-18.3 29.5-15.8 0 0 56.8-4.3 75.2 1.4 18.4 5.8 43.6 34.2 7.6 57.9-2.6 2.6 18.4-25.6-9.3-26.3-5.8.4-31.1 13.9-64.4 24.2-27.3 8.3-59.4 10.5-62.2 12.7-6.2 4.7-7.6 13.4-11.9 13.4-4.3 0-4-9.1-7.2-8.6s-3.6 6.9-8.6 6.9-69.4-2.6-69.4 3.3 65.7 10.9 97.8 11.5c68.3 1.2 106.7 10.1 104.2 11.5-4.7 2.9-81.2 12.2-115.7 11.9-.7-19.4-25.2-14.8-45.7-12.9-.4-4.3-7.2-8.6-14.4-8.6-9.8-.4-49.3 5-52.5-14.8-1.1-9.3 2.2-15.5 12.9-20.1s68-.7 92.4-4.3c24.3-3.7 41.7-38.2 41.7-43.3z"/><path class="st5" d="M509.9 370.6c20.6-1.9 44.3-11.2 45.7 12.9 0 8.3-12.7 17-22.3 12.7-7.6-4-4.3-14.8 2.2-15.5 6.5-.7 7.2 5.5 7.2 5.5"/><path class="st3" d="M506.6 385s22.3-3.6 28.8-4.3M469.2 305.5c-20.8 5.5-34.5 6.2-38.1 33.5-3.6 27.3 29.9 41.7 52.2 38.1"/><path class="st6" d="M628.5 321.3c-29.5 6.5-56.5 8.3-62.2 11.5-6.8 3.6-9.1 12.7-11.2 12.9-1.4.1-4.2-8.8-7.5-8.3-3.3.4-5 7.2-10.1 7.2s-67.6-3.3-68.3 4c-.6 5.8 64.5 11.5 96.6 12.9 27.5 1.3 51.2 3 70.7 5.5 13.5 1.6 25.3 3.9 34.6 4.7-3-13.1-74-14.4-104.4-16.4-28.8-1.9-69.6-5.6-69.6-5.6s39.8 1.7 43.1.9c3.6-1 4.3-4.3 6.5-4.3s2.6 6 9.1 5.3c6.5-.7 8.2-9.3 13.5-12.9s41.8-6.3 58.2-10.5c46.4-11.9 57.1-22.6 65-24 3-.6 6.8 1.4 8.2 4 2.3 6 1.4 15.5 1.4 15.5-2.6 2.6 18.1-26.7-9.3-26.3-5.8.2-31.1 13.7-64.3 23.9"/><path class="st3" d="M408.8 259.2c-11.5 1.2-11.2 19.1-.4 18.7 17.7-.4 19-20 14.5-25.3"/><circle class="st7" cx="486.2" cy="246.6" r="12.2"/><circle class="st3" cx="485.6" cy="246.4" r="5.6"/><circle class="st7" cx="548.4" cy="241.4" r="12.2"/><circle class="st3" cx="548" cy="241.2" r="5.6"/><circle class="st7" cx="440.6" cy="281.2" r="12.2"/><circle class="st3" cx="440.2" cy="281.1" r="5.6"/><circle class="st7" cx="433.4" cy="378.2" r="12.2"/><circle class="st3" cx="433" cy="378.1" r="5.6"/><path class="st13" d="M497.7 290.8s3.3 21.6 30.9 20.8c27.6-.7 29.9-24.4 29.9-24.4l-34.5-9.8-26.3 13.4z"/><path class="st14" d="M497.7 290.8s2.7 18.1 24.6 20.6l2.6-12.4c-3.2 0-9.1-6-9.9-11.9-.4-3.2-6.3-4.5-6.3-4.5l-11 8.2z"/><path class="st3" d="M497.7 290.8s3.3 21.6 30.9 20.8c27.6-.7 29.9-24.4 29.9-24.4l-34.5-9.8-26.3 13.4z"/><path class="st3" d="M505.4 281.5s-.9 25.6 22.7 24c21.3-1.4 21.9-24.9 21.9-24.9l-44.6.9z"/><path class="st3" d="M514.9 287.2s1.4 11.5 11.9 12.2c10.5.7 12.9-11.9 12.9-11.9l-24.8-.3z"/><path class="st7" d="M482.9 289.7c1.9-11.9 18.4-22.3 42.4-23 24-.7 44.6 11.2 40.3 23-2.9 7.6-9.3 6.2-9.3 6.2s1.4-4.7 1.4-6.5-55.1 1.2-55.1 1.2-5.5 20.6-20.6 20.6c-15.1 0-16.2-13.7-15.1-19.4 1.2-5.9 14.5-16.1 16-2.1z"/><path class="st3" d="M482.9 289.7c-1.4 5 4.3 5.5 4.3 5.5"/><path class="st3" d="M482.9 289.7c-4.3-1.9-9.3 3.3-8.6 6.9.7 3.6 1.9 8.3 9.3 7.9 10.8-.4 9.5-13.8 19.1-20.1 11.5-7.6 56.8-5 55.8 2.9"/><path class="st3" d="M492.5 286.5c-4.3-1.7-3.6-7.6-3.6-7.6M497 281.3c-2.2-1.4-2.2-6.5-2.2-6.5M503.3 277.5c-1.1-.4-2.4-6.2-2.4-6.2M508.3 269.1l1.4 5.8M517.4 272.9l-1-5.5M524.1 272.4V267M530.6 272.1l.4-5.1M537.2 272.9l1.3-5.1M544.2 275l2.2-5M551.4 277.5l2.6-4.6M557.6 282.1l3.9-4.4"/><path class="st14" d="M642 328.2c0-4.7 3.3-9.1 1.4-14.4-1.9-5.3-14.8-8.6-17.3-14.8-2.4-6.2 3.3-15.8 1.9-19.7-1.4-3.9-6.8-10.9-8.6-15.2-1.9-4.3-.4-13.5-3.3-18.4-2.9-4.7-10.1-2.9-12.5-4.7-2.4-1.9-2.9-9.6-3.9-11.5l-9.8 50.5c4.7 0 12.7 13.4 12.7 15.7.1 2.4 1 5.5 1 9.1s6.2 7.3 6.9 11.2c.7 3.9-.4 10.1.9 14.2 1.2 4.2 7.8 5 8.5 9.1.7 4 22.1-6.2 22.1-11.1z"/><path class="st3" d="M619 352.6c-1.3-3.7 1.6-9.3.9-13.4-.7-4-7.3-4.9-8.5-9.1-1.2-4.2-.1-10.5-.9-14.2-.7-3.9-6.9-7.6-6.9-11.2s-.9-6.8-1-9.1c-.1-2.4-8.1-15.7-12.7-15.7M599.7 229.6c1 1.9 1.4 9.6 3.9 11.5 2.4 1.9 9.6 0 12.5 4.7s1.4 14.1 3.3 18.4c1.9 4.3 7.2 11.4 8.6 15.2 1.4 3.9-4.3 13.4-1.9 19.7 2.4 6.2 15.4 9.6 17.3 14.8 1.9 5.3-1.4 9.6-1.4 14.4 0 2 2.9 8.6 6.5 16"/><path class="st4" d="M473.8 432.3s33.5 124.6 51.8 135.1c18.3 10.5 41.7 13.4 64.3 5.3 86.7-34.1 47.4-108.2 23-127.5-24.4-19.1-93-33.1-93-33.1l-46.1 20.2zM711.4 583.8s71.7 25.9 81.2 19c-2.7-13.2-76.6-29-76.6-29l-4.6 10z"/><path class="st4" d="M708 588.1s64.4 40.8 75 36.2c.3-13.4-68.4-45-68.4-45l-6.6 8.8z"/><path class="st4" d="M698.2 595.2s62 45 73 41.3c1.3-13.4-64.5-50.5-64.5-50.5l-8.5 9.2z"/><path class="st4" d="M689.2 607.8s60.8 46 71.9 42.3c1.3-13.4-61.8-53-61.8-53l-10.1 10.7z"/><path class="st4" d="M684.1 616.7s52.2 55.8 63.7 53.9c3.6-12.9-53.9-62.2-53.9-62.2l-9.8 8.3z"/><path class="st4" d="M648.2 585.5s26.3 38.5 30.6 38.8 50.7-47.2 48.2-53.2c-2.6-6-48.9-18.7-48.9-18.7l-29.9 33.1z"/><path class="st0" d="M648.2 585.5s11.5 16.8 20.6 28.3c4.6 5.9 51.6-47.6 44.3-50.3-14.5-5.5-35.1-11.1-35.1-11.1l-29.8 33.1z"/><path class="st5" d="M648.2 585.5s7.3 10.8 15 21c1.9 2.6 43.7-45.1 40.5-46.3-12.7-4.2-25.6-7.8-25.6-7.8l-29.9 33.1z"/><path class="st3" d="m700.7 566.8 8.6 5.1M694.9 574.3l8.6 6.9M688.1 582.2l8.7 6.9M680.5 590.1l8.7 6.9M672.6 598.7l8.6 6.9"/><path class="st6" d="M638.8 561.4s-7.2 19 4.3 25.9c9.1 5.5 23-1.7 31.6-12.7 7.8-9.8 12.2-20.8 5-28.8-10.8-10.5-26.6 2.2-26.6 2.2l-14.3 13.4z"/><circle class="st0" cx="569.6" cy="500.3" r="41"/><circle class="st5" cx="569.6" cy="501.4" r="32.8"/><path class="st1" d="M554.7 486.6c-8.1 9.6-9.5 25.9-.7 32.8 6.9 4.7 17.7 3.6 27.3-8.6 9.6-12.2 7.6-27.7.7-32.3-8.6-5.8-20.1-.5-27.3 8.1z"/><path class="st4" d="M559.8 491.7c-6 7.2-8.6 16.5-2 21.6 5.2 3.5 13.2 2.7 20.6-6.5 7.3-9.2 5.2-19.7 0-23.1-5-3.4-13.3 1.5-18.6 8z"/><path class="st7" d="M560.5 505.7c2.2 3.6 82.4 70.9 92 72.6s19.8-22 11.9-30.2-87.4-57.2-91-58.2c-3.6-1-15.1 12.2-12.9 15.8z"/><path class="st3" d="m567 494.2 98.9 69.3M607.9 544.8l12.7-12.5M601.2 539.5l11.5-11.9M583.9 526.2l11.5-11.8M577.7 519.7l10.8-9.6"/><circle class="st3" cx="650.1" cy="564.7" r="3.3"/><circle class="st3" cx="624.9" cy="545.6" r="3.3"/><circle class="st3" cx="600" cy="527.3" r="3.3"/><path class="st3" d="m636 566.1 12.2-14.8M629.2 561.1l12.2-14.8"/><circle class="st1" cx="350.5" cy="327.2" r="11.6"/><circle class="st1" cx="339.5" cy="375.6" r="12.2"/><circle class="st1" cx="375.2" cy="445.1" r="13.1"/><circle class="st1" cx="456.4" cy="466.6" r="11.6"/><circle class="st1" cx="540.1" cy="440.6" r="14.1"/><circle class="st1" cx="509.3" cy="413.2" r="27.7"/><path class="st3" d="m517.4 387.3-24.2 47.3M500.1 439l24.5-49.1M483 404.8l47.4 24M534.8 421.9l-47.6-24"/><circle class="st3" cx="515.5" cy="431.7" r="3.3"/><circle class="st3" cx="527.9" cy="406.5" r="3.3"/><circle class="st3" cx="502" cy="393.9" r="3.3"/><circle class="st3" cx="490.8" cy="419.3" r="3.3"/><circle class="st1" cx="509.3" cy="412.7" r="13.5"/><circle class="st1" cx="508.7" cy="412.3" r="5.3"/><path class="st5" d="M509.9 370.6c5 11.2-1.4 25.2-14.1 25.9-13.7.7-18.4-14.4-12.7-19.4s13.7 1.9 13.7 7.6"/><circle class="st1" cx="376.9" cy="356.5" r="27.3"/><path class="st3" d="m384.8 331.1-23.7 46.7M367.9 382.1l24-47.1M351 348.3l46.8 23.7M402.1 365.1l-48.6-24"/><circle class="st3" cx="383" cy="374.9" r="3.3"/><circle class="st3" cx="395.2" cy="350.1" r="3.3"/><circle class="st3" cx="369.7" cy="337.5" r="3.3"/><circle class="st3" cx="358.5" cy="362.7" r="3.3"/><circle class="st1" cx="376.9" cy="356.2" r="13.4"/><circle class="st1" cx="376.3" cy="355.7" r="5.2"/><circle class="st1" cx="398.2" cy="408.1" r="29.9"/><path class="st3" d="m406.8 380.2-25.9 51.1M388.4 436l26.5-51.7M370 399.1l51.1 25.8M425.7 417.5 374 391.7"/><circle class="st3" cx="405" cy="428.1" r="3.6"/><circle class="st3" cx="418.2" cy="401.1" r="3.6"/><circle class="st3" cx="390.4" cy="387.3" r="3.6"/><circle class="st3" cx="378.2" cy="414.7" r="3.6"/><circle class="st1" cx="398.2" cy="407.7" r="14.5"/><circle class="st1" cx="397.6" cy="407.1" r="5.8"/><circle class="st1" cx="455.1" cy="428" r="27.7"/><path class="st3" d="m463 402.1-24 47.3M445.9 453.8l24.5-48.4M428.8 419.6l47.3 24M480.6 436.7l-49.2-24.4"/><circle class="st3" cx="461.3" cy="446.5" r="3.3"/><circle class="st3" cx="473.7" cy="421.4" r="3.3"/><circle class="st3" cx="447.8" cy="408.7" r="3.3"/><circle class="st3" cx="436.4" cy="434.1" r="3.3"/><circle class="st1" cx="455.1" cy="427.5" r="13.5"/><circle class="st1" cx="454.5" cy="427" r="5.3"/><circle class="st1" cx="672.5" cy="479.3" r="27.7"/><path class="st3" d="m680.5 453.4-24.1 47.3M663.3 505.2l24.7-48.1M646.2 470.9l47.4 24.1M697.9 488.1l-47.8-24.5"/><circle class="st3" cx="678.7" cy="497.8" r="3.3"/><circle class="st3" cx="691" cy="472.7" r="3.3"/><circle class="st3" cx="665.1" cy="460" r="3.3"/><circle class="st3" cx="653.9" cy="485.5" r="3.3"/><circle class="st16" cx="672.5" cy="478.9" r="13.5"/><circle class="st16" cx="671.9" cy="478.3" r="5.3"/><circle class="st16" cx="454.1" cy="507.2" r="24.3"/><path class="st3" d="M461.2 484.5 440 526M446.2 529.7l21.3-43.1M431.1 499.8l41.6 21M476.4 514.8l-43-21.4"/><circle class="st3" cx="459.6" cy="523.4" r="2.9"/><circle class="st3" cx="470.4" cy="501.4" r="2.9"/><circle class="st3" cx="447.8" cy="490.2" r="2.9"/><circle class="st3" cx="437.9" cy="512.5" r="2.9"/><circle class="st16" cx="454.1" cy="506.7" r="11.8"/><circle class="st16" cx="453.7" cy="506.3" r="4.6"/><circle class="st16" cx="370.3" cy="522.4" r="25.9"/><path class="st3" d="m377.8 498.3-22.4 44.2M361.8 546.6l22.9-45.9M345.9 514.7l44.1 22.4M394.2 530.6l-46-22.8"/><circle class="st3" cx="376.1" cy="539.8" r="3"/><circle class="st3" cx="387.7" cy="516.4" r="3"/><circle class="st3" cx="363.6" cy="504.4" r="3"/><circle class="st3" cx="352.9" cy="528.3" r="3"/><circle class="st16" cx="370.3" cy="522.1" r="12.7"/><circle class="st16" cx="369.9" cy="521.6" r="4.9"/><circle class="st1" cx="277.4" cy="432.9" r="25.9"/><path class="st3" d="M284.9 408.7 262.5 453M269 457l22.8-46M253 424.9l44.1 22.6M301.3 441l-46-22.8"/><circle class="st3" cx="283.2" cy="450.2" r="3"/><circle class="st3" cx="294.8" cy="426.7" r="3"/><circle class="st3" cx="270.7" cy="414.7" r="3"/><circle class="st3" cx="260" cy="438.6" r="3"/><circle class="st16" cx="277.4" cy="432.6" r="12.7"/><circle class="st16" cx="277" cy="432" r="4.9"/><circle cx="193.1" cy="525.9" r="29.2" style="fill:#f37316;stroke:#000;stroke-width:4.3126;stroke-linecap:round;stroke-linejoin:round"/><path class="st3" d="m201.5 498.7-25.3 49.7M183.6 553l25.6-51.6M165.5 517.1l49.8 25.3M219.9 535.1l-49.7-25M203 545.4c0 1.9-1.6 3.5-3.5 3.5s-3.5-1.6-3.5-3.5 1.6-3.5 3.5-3.5c2 .1 3.5 1.6 3.5 3.5z"/><circle class="st3" cx="212.6" cy="519" r="3.5"/><circle class="st3" cx="185.4" cy="505.6" r="3.5"/><circle class="st3" cx="173.5" cy="532.3" r="3.5"/><circle class="st16" cx="193.1" cy="525.6" r="14.2"/><path class="st7" d="M198.1 525c0 3-2.4 5.6-5.6 5.6-3 0-5.6-2.4-5.6-5.6 0-3 2.4-5.6 5.6-5.6 3.1 0 5.6 2.4 5.6 5.6z"/><path class="st5" d="M642 328.2c0 4.7 16.8 35.5 17.3 41.7.4 6.2 10.1 30.5 10.1 30.5s-30.2.9-32.2-.4c-1.9-2.9.4-10.5-.4-12.8-.7-2.3-5.5-3.3-6.2-6.6s1.9-6.2.7-8.3-5.8-2.9-7.2-6.2c-1.4-3.3 3.7-5.2 3.5-7.8-.3-2.6-7.3-2-8.6-5.8s1.6-9.3.9-13.4"/><path class="st3" d="m394.9 593.4 2.4 9.4M404.2 596.6l2.5 9.3M413.6 599.2l2.4 9.3M422.9 600.6l2.5 9.4M431.8 601.3l2.6 9.4M442.3 601.6l2.5 9.4M513.1 585.5l10 7.9M521 579.8l10 7.9M528.9 574.7l10 7.9"/><path class="st5" d="M495.8 396.5c19.7-2.3 16.8-19.6 14.8-26-1.9-6.5-8.1-8.5-15.2-8.5"/><path class="st5" d="M483.3 377.1c5.8-5 13.7 1.9 13.7 7.6"/><path class="st7" d="M638.8 399.9c29.2-1.7 129.2-8.6 141.9-6 13.8 2.9 17.5 14.7 15.4 20.1-3.3 8.6-16.1 11.9-20.1 5.3-1.9-3.2-1.9-8.3.7-9.8 2.6-1.6 2.3-1.3 2.4-2.3.3-2-108.8 7.2-125.8 8.3.9-3.8-.5-16.1-14.5-15.6z"/><path class="st3" d="M779 407.3s.7 9.3 6.2 7.3c4.6-1.7 3.2-11.5-4-13.4-5.6-1.4-90.9 3.5-133.4 7.5"/><path class="st0" d="M639.6 399.9c8.2-.3 16.8-1.2 17-.4 3 10.6 1 28-5.2 46.1"/><path class="st4" d="M638.8 399.9c-2 9.9-4.7 28.6-14.8 51.2"/><path class="st3" d="m643.6 429.5 11.5 3.6M646.9 410.9l10.6 1M641.4 439.2l10.4 3.6M645.7 419.9l11 2.2"/><path class="st2" d="M581.8 632.5c3.3-5 20 12.5 20.8 2.9 1.3-14.4 21.4-.3 25.2 17.7 2.6 12.2-6.2 30.6-21.6 38.1-22.7 12.7-37.1-9.3-35.2-24.2 1.9-5.8 12.7 20.8 29.9 7.6 8.6-6.9-1.4-28.8-7.2-29.5s-15.2-7.5-11.9-12.6z"/><path class="st7" d="M581.8 632.5c3.3-5 14.4-4.3 20.8 2.9 6.5 7.2 21.6 31.6.7 48.2-14.1 9.3-34.2-1.9-32.3-16.5 1.9-5.8 12.7 20.8 29.9 7.6 8.6-6.9-1.4-28.8-7.2-29.5s-15.2-7.6-11.9-12.7z"/><path class="st7" d="M603.6 611.4c10.1 2.2 52.9 26.3 26.3 72.6-19.1 30.5-52.9 28-53.6 19-.3-4 29.9-3.3 42.4-25.2 8.6-22.7 0-42.4-15.1-47.2-12.4-3.9-19.4-11.9-17-15.8 2.5-3.8 7-5.6 17-3.4z"/><path class="st2" d="M603.6 611.4c10.1 2.2 50.3 28 26.3 72.6-19.1 30.5-53.6 28-53.6 19 0-1.9 26.6 8.3 47.2-21.3 12.7-27 2.9-50.3-17.3-60.8-11.5-5.9-22-2.2-19.4-6.2 2.6-4 6.8-5.5 16.8-3.3z"/><path class="st0" d="M603.6 611.4c-9.1-3.5-14.4-.4-17 3.6-2.6 4 4 15.8 17 15.8 0 0 11.1-10.2 0-19.4zM593.6 645.2c-2.9.7-15.1-7.6-11.9-12.7s14.4-4.3 20.8 2.9c.1 0-3.2 8.3-8.9 9.8z"/><path class="st7" d="M669.2 400.4c-7.2-15.1-30.2.9-32.2-.4 0 0 8.2 43.7 53.3 45.1-27.3-36.8-19.7-41.1-21.1-44.7z"/><path class="st3" d="M669.2 400.4c-5.2-9.8-25.3 9.6-27.3 8.3"/><path class="st3" d="M669.2 400.4c-1.4-1.2-22 18.7-23.9 17.5M682.3 443.2c-10.6-9.1-22.6-34.9-22.6-34.9M672.2 440.9c-8.6-6.8-18.7-26.9-18.7-26.9"/></svg>