<svg version="1.1" id="Calque_1" xmlns="http://www.w3.org/2000/svg" x="0" y="0" viewBox="0 0 900 900" style="enable-background:new 0 0 900 900" xml:space="preserve"><style>.st0,.st1,.st2{fill:#fff;stroke:#000;stroke-width:10.3424;stroke-linecap:round;stroke-linejoin:round;stroke-miterlimit:10}.st1,.st2{fill:none}.st2{fill:#0068ff}.st4{fill:#af5920}.st5{fill:none}.st6,.st7{fill:#ff7300;stroke:#000;stroke-width:10.3424;stroke-linecap:round;stroke-linejoin:round;stroke-miterlimit:10}.st7{fill:red}</style><g id="XMLID_116_"><path id="XMLID_22_" class="st0" d="M671.5 587s9.7 93.1-9 200c58.4-21.5 69.8-136.2 69.8-136.2s-10 86.2 32.9 113.8c16.2-52.6 24-243.9 17.9-270.1-6-26.4-38.3-41.2-38.3-41.2l-122 38.3 43.1 92.2 5.6 3.2z"/><g id="XMLID_67_"><path id="XMLID_166_" class="st0" d="M520.4 108.4c-58.6-24.1-90.2-24.1-177.5-12.6-48.1 6.4-86.5 30.9-111.2 51.5l218.7 163.1 126.9-88.3c0 .1 1.7-89.5-56.9-113.7z"/><path id="XMLID_58_" class="st1" d="m492.3 245 75-82.1"/><path id="XMLID_59_" class="st1" d="m470.4 238.8 76.9-111.2"/><path id="XMLID_60_" class="st1" d="m450.6 228.4 62.5-122.9"/><path id="XMLID_61_" class="st1" d="m421.4 220.7 57.4-125.4"/><path id="XMLID_62_" class="st1" d="m407.3 202.6 29.1-111.9"/><path id="XMLID_63_" class="st1" d="m384.2 196.5 5.2-105.6"/><path id="XMLID_64_" class="st1" d="m358.9 188.8-16.1-93.1"/><path id="XMLID_65_" class="st1" d="m333.4 188.8-22.5-83.3"/><path id="XMLID_66_" class="st1" d="M303.2 179.3 273 119"/><g id="XMLID_5_"><path id="XMLID_7_" class="st0" d="m250.6 161.4-2.1 53.1 33.1 24.6v-54.5z"/><path id="XMLID_167_" class="st0" d="M281.6 184.6v54.5l23.3 17.4 1.4-53.6z"/><path id="XMLID_168_" class="st0" d="M231.6 147.2c-3.1 2.6-6 5.2-8.6 7.6l-1.7 39.3 27.2 20.3 2.1-52.9-19-14.3z"/><path id="XMLID_169_" class="st0" d="m200.4 178.4 21 15.7 1.7-39.3c-14.7 13.5-22.7 23.6-22.7 23.6z"/><path id="XMLID_170_" class="st0" d="m362.7 245-3.3 52.2 30.1 22.6 3.3-52.4z"/><path id="XMLID_171_" class="st0" d="m450.4 310.3-57.6-42.9-3.3 52.4 23 17z"/><path id="XMLID_172_" class="st0" d="m306.3 202.9-1.4 53.6 26.7 20v-54.6z"/><path id="XMLID_173_" class="st0" d="M331.6 221.9v54.6l27.8 20.7 3.3-52.2z"/></g></g><g id="XMLID_17_"><path id="XMLID_6_" class="st0" d="M334.2 362.9c37.9-40.7 230.5-156.7 279.8-156.7 9 41.4 40.9 77.1 62.1 124.6-30.5 35.2-67.7 28.6-67.7 28.6L463.5 473.9l-104.8 96-18.1-90.3s-44.3-76.1-6.4-116.7z"/><path id="XMLID_44_" class="st1" d="m407.3 400.8 27.8 36.7"/><path id="XMLID_45_" class="st1" d="m433.3 383.5 23.8 35.4"/><path id="XMLID_46_" class="st1" d="m475.6 336.8 32.4 40.5"/><path id="XMLID_47_" class="st1" d="m498 322.7 30.1 40.2"/><path id="XMLID_48_" class="st1" d="M361.8 377.3s172.9-119.5 195.3-116.9"/></g><g id="XMLID_9_"><path id="XMLID_11_" class="st2" d="M228.5 188.8C156 123.6 115.5 75 115.5 75s-12.8 93.1 66.5 161l1 1c11.4-17 28.3-38.9 45.5-48.2z"/></g><path id="XMLID_18_" class="st0" d="M653.1 536.4s7.4 17.1 12.1 21.5c4.7 4.3 18.4 4.7 19.5-7.2 3.1 9 21.9-3.3 20.7-14.1 4 8.1 20.2-3.3 19.5-10.9 6.4 8.1 20.2-3.4 20.2-12.1s-6.4-41.9-6.4-41.9l-57.4 15.5-28.2 49.2z"/><path id="XMLID_19_" class="st1" d="m684.8 550.6-3.6-25"/><path id="XMLID_20_" class="st1" d="m705.5 536.4-5.3-22.7"/><path id="XMLID_21_" class="st1" d="m725 525.6-7.9-22.9"/><path id="XMLID_28_" d="M537.1 808.5s38.3 9.5 109.1-8.6C617.1 737.8 592.6 659 592.6 659l-90.2-35-13.3 35.5 48 149z" style="fill:#582d10;stroke:#000;stroke-width:10.3424;stroke-linecap:round;stroke-linejoin:round;stroke-miterlimit:10"/><path id="XMLID_25_" class="st1" d="m614.3 780.9-46.7-108.6"/><path id="XMLID_29_" class="st1" d="M591 786.9 538.8 659"/><path id="XMLID_30_" class="st1" d="m564.8 796.4-42.7-99.1"/><path id="XMLID_31_" class="st0" d="M264.4 509.4c17.2 92.9-5.2 310.3-5.2 310.3l85.3-3.6c8.6-39.5-24-324.8-24-324.8s-73.3-74.7-56.1 18.1z"/><g id="XMLID_135_"><circle id="XMLID_49_" class="st0" cx="618.5" cy="281.7" r="78.9"/><circle id="XMLID_50_" class="st1" cx="622.4" cy="313.2" r="23.6"/><path id="XMLID_51_" class="st1" d="m544.9 254.3 26.3 58.9"/><path id="XMLID_52_" class="st1" d="m557.3 231.7 20 57.9"/><path id="XMLID_53_" class="st1" d="m581.7 213.8 10.9 60.3"/><path id="XMLID_54_" class="st1" d="m608.3 203.2 2.6 66.6"/><path id="XMLID_55_" class="st1" d="m635.9 206-7.8 63.8"/><path id="XMLID_56_" class="st1" d="m659 213.8-9.3 67.9"/><path id="XMLID_57_" class="st1" d="m684.8 238.8-22.2 60.3"/></g><g id="XMLID_142_"><path id="XMLID_146_" class="st4" d="M597.1 595.6c15.5-62.9 74.5-102.9 74.5-102.9l60.8-.9c18.4-13.8 32.9-27.4 31-35.7-4.7-20.7-33.3-31.5-60.8-43.1-27.6-11.5-68.9-5.2-77.1-16.7-8.1-11.5-9.1-26.4-17.2-36.9s-45.3-12.6-71.9 1.7c-26.4 14.3-97 69.6-108.4 90.3s-4.8 74.1-4.8 74.1 17.8 67.7 52.9 93.6c35 25.9 96 69.5 124.6 70.8h.5c-6.7-21.2-13.4-55.9-4.1-94.3z"/></g><g id="XMLID_147_"><path id="XMLID_148_" class="st5" d="M667.6 533.9c-.2.2-.5.3-.7.5.2-.2.5-.4.7-.5z"/><path id="XMLID_149_" class="st5" d="M666.9 534.4c-.2.2-.3.2-.3.2-.1-.1.1-.2.3-.2z"/><path id="XMLID_150_" class="st5" d="M666.4 534.5c-.2.2-.3.3-.7.3.3.1.5-.1.7-.3z"/><path id="XMLID_151_" class="st5" d="M665.9 534.9c-.2 0-.2.2-.3.2.1 0 .1 0 .3-.2z"/><path id="XMLID_152_" class="st5" d="M665.5 535.1c-.2.2-.3.2-.5.3.2 0 .3-.2.5-.3z"/><path id="XMLID_153_" class="st5" d="m670.3 532.1-.2.2c.1 0 .2-.2.2-.2z"/><path id="XMLID_154_" class="st5" d="M669.1 533c-.2 0-.2.2-.3.2.2-.2.2-.2.3-.2z"/><path id="XMLID_155_" class="st5" d="M670.2 532.3c-.3.2-.7.5-1 .7.3-.3.6-.5 1-.7z"/><path id="XMLID_156_" class="st5" d="M668.8 533.2c-.5.3-.9.5-1.2.7.3-.2.8-.6 1.2-.7z"/><path id="XMLID_157_" class="st5" d="M670.3 532.1c6.2-3.8 15.9-9.5 26.5-16.4-10.6 7-20.3 12.6-26.5 16.4z"/><path id="XMLID_158_" class="st5" d="m671 561.1-7.4-24.6c-8.1 5.6-.7 22.7 7.4 24.6z"/><path id="XMLID_159_" class="st5" d="M664.7 535.6c-.2.2-.3.2-.5.3.1 0 .3-.1.5-.3z"/><path id="XMLID_160_" class="st5" d="M664 536.1c-.2.2-.3.2-.5.3.1-.1.3-.1.5-.3z"/><path id="XMLID_161_" class="st5" d="M665 535.4c-.2 0-.2.2-.3.2.1 0 .1 0 .3-.2z"/><path id="XMLID_162_" class="st5" d="m664.1 535.9-.2.2c.2 0 .2-.2.2-.2z"/></g><g id="XMLID_15_"><path id="XMLID_14_" class="st0" d="M508 498.5c-.2-21.2 47.6-45.3 67.7-45.3 10.3 0 5.2 18.4 1.7 29.8-3.4 11.5-18.8 26.4-34.6 26.4s-34.8-2.3-34.8-10.9z"/><g id="XMLID_143_"><path id="XMLID_145_" class="st0" d="M547.6 460.8c-9 4.1-18.1 9.5-25.3 15.3.7 8.6 7.8 15.3 16.5 15.3 9.1 0 16.7-7.4 16.7-16.7 0-5.7-3.2-11-7.9-13.9z"/></g></g><path id="XMLID_10_" class="st1" d="M423.3 525.6s-6.6-53.4 4.8-74.1 82.1-76 108.4-90.3c26.4-14.3 63.8-12.2 71.9-1.7s9.1 25.3 17.2 36.9 49.5 5.2 77.1 16.7c27.6 11.5 56.4 22.4 60.8 43.1 4.7 20.7-91.9 74.6-100 80.5-8.1 5.7-.5 22.8 7.4 24.6 8.1 1.9 54-10.5 59.8-3.4 5.7 7.1 0 20.7-8.1 35.7s-48.8 35-60.3 58.1c-11.5 22.9-32.8 40-61.5 38.6-28.8-1.4-89.6-45.2-124.6-71-34.9-26-52.9-93.7-52.9-93.7z"/><g id="XMLID_141_"><path id="XMLID_27_" class="st6" d="M472.1 674s40.3 121.5 66.7 143.9c22.9-101.7-33.4-172.4-33.4-172.4L472.1 674z"/><g id="XMLID_139_"><path id="XMLID_8_" class="st7" d="M441.1 553.7c12.1-20.2-11.4-63.8-50.5-60.8-22.9 1.7-28.8 16-28.8 39.1 0 22.9 28.8 72.4 59.8 74.6s55 47.7 70.7 14.3c15.7-33.3-5.7-55.7-19.5-65-13.8-9.1-31.7-2.2-31.7-2.2z"/><path id="XMLID_13_" class="st1" d="M394.5 533.5c0 16 31 48.3 46.5 20.2"/><circle id="XMLID_23_" class="st2" cx="467.1" cy="636.9" r="45.7"/><circle id="XMLID_24_" class="st2" cx="467.1" cy="636.9" r="22.1"/></g></g><path id="XMLID_32_" class="st0" d="M348.9 491.5s37.1 154.3 124.8 323c-26.9 4.5-83.3 3.6-83.3 3.6-40-86.2-85.7-303.9-85.7-303.9l37.4-21.4 6.8-1.3z"/><g id="XMLID_138_"><ellipse id="XMLID_1_" class="st0" cx="276.8" cy="424.9" rx="117.7" ry="100.5"/><path id="XMLID_34_" class="st0" d="M245.4 395.6c-1.9 6.6-97.7 290.3-82.7 294.4 25.9 7.2 137-266 137-272.9 0-6.8-52.4-27.9-54.3-21.5z"/><path id="XMLID_33_" class="st1" d="m200.4 348.4 20 28.9"/><path id="XMLID_35_" class="st1" d="m183 364.1 21.1 26.3"/><path id="XMLID_36_" class="st1" d="m161.1 444.2 39.3-13.2"/><path id="XMLID_37_" class="st1" d="m171.5 462.8 32.6-12.9"/><path id="XMLID_38_" class="st1" d="M295.3 471.5v50.6"/><path id="XMLID_39_" class="st1" d="M318.9 466.3v49.8"/><path id="XMLID_40_" class="st1" d="m333.4 444.2 50.8 5.7"/><path id="XMLID_41_" class="st1" d="m333.4 418.9 61.1 6"/><path id="XMLID_42_" class="st1" d="m303.2 377.3 30.2-40.5"/><path id="XMLID_43_" class="st1" d="m281.6 364.1 19.3-37.6"/></g><path id="XMLID_144_" class="st7" d="M671 561.1c-8.1-1.9-15.5-19-7.4-24.6 4.8-3.4 41.4-24.1 68.9-44.8l-60.8.9s-59 40-74.5 102.9c-9.5 38.3-2.6 73.1 4.1 94.5 28.4 1.2 49.6-15.9 61-38.8 11.5-22.9 52.2-43.1 60.3-58.1s13.8-28.4 8.1-35.7c-5.5-7.3-51.7 5.8-59.7 3.7z"/><path id="XMLID_164_" class="st4" d="M755.1 472.3 721 431.1l-24.1 34.8c-15-12.6-48.4-1-50.7 26.9s29.6 36.9 50.7 23.3c11.5-7.2 24.3-15.7 35.5-24.1-11.2 8.4-24.1 16.9-35.5 24.1 20.7-13.4 45.5-30.2 58.2-43.8z"/><path id="XMLID_16_" class="st1" d="M696.9 465.8c-15-12.6-48.4-1-50.7 26.9-2.2 27.9 29.6 36.9 50.7 23.1"/></g><g id="XMLID_118_"><path id="XMLID_119_" class="st6" d="M449 679c-3.6 30.2-9.5 110 23.1 146 40-49 23.8-120.5 15.7-147.2-6.2 3.1-13.3 5-20.7 5-6.4-.2-12.6-1.4-18.1-3.8z"/></g><path id="XMLID_26_" class="st1" d="M763.4 455.9c4.7 20.7-91.9 74.6-100 80.5"/><path class="st7" d="M252.2 209.5c-8.3-7.1-16-14-23.6-20.7-17.2 9.3-34.1 31.2-45.3 48.1C228 275.1 268 306 294.1 325.5c21.6 2.7 41.3 10.4 57.4 21.8 11.5-9.3 26.6-20.2 43.7-31.7-23.1-14.2-77.6-49.7-143-106.1z"/></svg>