<svg version="1.1" id="Calque_1" xmlns="http://www.w3.org/2000/svg" x="0" y="0" viewBox="0 0 900 900" style="enable-background:new 0 0 900 900" xml:space="preserve"><style>.st0{fill:#fff}.st1{fill:#6b6b6b}.st2,.st3,.st4{fill:none;stroke:#000;stroke-width:6.2465;stroke-linecap:round;stroke-linejoin:round}.st3,.st4{fill:#ffce00}.st4{fill:#fff}.st5{fill:#f50}.st6,.st7{fill:red;stroke:#000;stroke-width:6.2465;stroke-linecap:round;stroke-linejoin:round}.st7{fill:#006b4c}.st8{fill:red}.st9{fill:none;stroke:#000;stroke-width:4.9972;stroke-linecap:round;stroke-linejoin:round}</style><path class="st0" d="M285.3 587.4c-13.7 10-33.1 36.2-31.2 51.8 1.2 10 13.1 11.2 16.9 7.5s25-37.5 70.6-57.5-.6-31.2-.6-31.2l-10.6 3.9-30.7 11.1s-.7 4.4-14.4 14.4z"/><path class="st1" d="M261.6 648.1c3.6 1.1 7.5.5 9.4-1.4 3.7-3.7 25-37.5 70.6-57.5 23.7-10.4 22.6-18.4 16.1-23.7-12.4 5-93.6 26.9-96.1 82.6z"/><path class="st2" d="M285.3 587.4c-13.7 10-33.1 36.2-31.2 51.8 1.2 10 13.1 11.2 16.9 7.5s25-37.5 70.6-57.5-.6-31.2-.6-31.2l-10.6 3.9-30.7 11.1s-.7 4.4-14.4 14.4zM261.6 639.2l5.6 7.5M264.7 629.2l7.5 11.3M268.4 620.5l8.2 13.1M274.1 612.3l7.5 16.9M279.7 606.1l7.5 16.2M287.8 598.6l5 16.9M296.6 592.4l4.3 19.3M304.7 588l3.7 18.1M311.5 583l3.8 18.1M322.2 579.2l1.8 18.2"/><path class="st3" d="M336.3 586.2c-9.4 11.2-55.3 126.5-58.1 134-2.8 7.5 20.6 3.7 20.6 3.7s13.1 3.7 31.9 4.7c26.2 1.9 32.8 4.7 32.8 4.7l53.4-6.6s-1.9-14.1-18.7-20.6c-16.9-6.6-66.5-7.5-67.5-12.2-.9-4.7 67.5-106.8 67.5-106.8s-52.6-12.2-61.9-.9zM436.5 587.1c2.8 19.7 64.7 113.4 65.6 121.8.9 8.4 2.8 19.7 2.8 19.7l20.6-3.7s23.4.9 39.4.9 30.9 2.8 30.9 2.8l50.6-12.2s-3.7-17.8-26.2-20.6c-22.5-2.8-65.6 0-79.6-8.4-14.1-8.4-52.5-111.5-52.5-111.5l-42.2-2.8s-12.2-5.7-9.4 14z"/><path class="st2" d="M304.4 716.4c0 3.7-5.6 7.5-5.6 7.5"/><path class="st4" d="M381.3 758.6s7.4 9.1 17.8 6.6c15-3.7 21.6-26.2 17.8-38.4-4.7-6.6-18.7 1.9-18.7 1.9l-16.9 29.9z"/><path class="st4" d="M379.4 733.3c-2.8-7.5 14.1-13.1 18.7-4.7 4.7 8.4-.9 29-9.4 32.8-18.7 6.6-20.6 0-20.6 0s14.1-20.6 11.3-28.1z"/><path class="st4" d="M381.2 731.1c-3.7-6.2-16.8-2.5-17.7 2.2-.9 4.7 2.8 17.8-1.9 19.7-4.7 1.9-14.1 1.9-14.1 1.9s9.4 10.3 20.6 6.6c11.3-3.9 16.8-24.2 13.1-30.4zM298.8 723.9c-.9-5.6-16.9-10.3-20.6-3.7-3.7 6.6-3.7 30.9 20.6 35.6 24.4 4.7 34.7-1.9 37.5-12.2-11.2-.9-21.6 1.9-31.9-3.7-10.3-5.7-4.7-10.4-5.6-16z"/><path class="st2" d="M525.5 724.8s.9-4.7-.9-11.2"/><path class="st4" d="M623 724.8c0-6.6 18.7-15 23.4-8.4 4.7 6.6 5.6 27.2-4.7 36.5-10.3 9.4-22.5 2.8-22.5 2.8s3.8-24.3 3.8-30.9z"/><path class="st4" d="M606.1 726.7s11.2-11.2 20.6-5.6c9.4 5.6 8.4 28.1-3.7 35.6-12.2 7.5-22.5-.9-22.5-.9l5.6-29.1zM525.5 724.8c-2.8-5.6-18.7-2.8-20.6 3.7s5.6 24.4 29 27.2 33.7-.9 35.6-15c-13.1 1.9-16.9 3.7-30 0s-14-15.9-14-15.9z"/><path class="st4" d="M595.8 728.6c.9 4.7 2.8 12.2.9 17.8-1.9 5.6-14.1 4.7-14.1 4.7s9.4 11.2 20.6 4.7c15.9-8.4 13.1-25.3 7.5-31.9-5.5-6.6-15.8 0-14.9 4.7z"/><path class="st1" d="M452.7 584.7c5.9 9.2 37.5.9 38.4-9.4.9-10.3-3.1-31.1-3.1-31.1l-38.2 10.6c0 .1-3 20.8 2.9 29.9z"/><path class="st0" d="M464.6 588.7c11.2-.4 25.9-6.4 26.4-13.3.9-10.2-3.1-31.1-3.1-31.1l-26.7 7.4 3.4 37z"/><path class="st5" d="M480 585.4c6.1-2.5 10.7-6.1 11.1-9.9.9-10.2-3.1-31.1-3.1-31.1l-12.2 3.4 4.2 37.6z"/><path class="st2" d="M452.7 584.7c5.9 9.2 37.5.9 38.4-9.4.9-10.3-3.1-31.1-3.1-31.1l-38.2 10.6c0 .1-3 20.8 2.9 29.9z"/><path class="st1" d="M407.7 584.2c4.4 10 36.9 6.9 39.4-3.1s1.9-31.2 1.9-31.2l-39.4 4.4s-6.2 19.9-1.9 29.9z"/><path class="st0" d="M418.9 590c11.1 1.4 26.5-2.2 28.2-8.9 2.5-10 1.9-31.2 1.9-31.2l-27.5 3.1-2.6 37z"/><path class="st5" d="M434.6 589.2c6.4-1.5 11.6-4.2 12.5-8.1 2.5-10 1.9-31.2 1.9-31.2l-12.6 1.4-1.8 37.9z"/><path class="st2" d="M407.7 584.2c4.4 10 36.9 6.9 39.4-3.1s1.9-31.2 1.9-31.2l-39.4 4.4s-6.2 19.9-1.9 29.9z"/><path class="st1" d="M368.4 586.1c4.4 10 36.9 6.9 39.4-3.1s1.9-31.2 1.9-31.2l-39.4 4.4c0-.1-6.3 19.9-1.9 29.9z"/><path class="st0" d="M379.6 591.9c11.1 1.4 26.5-2.2 28.2-8.9 2.5-10 1.9-31.2 1.9-31.2l-27.5 3.1-2.6 37z"/><path class="st5" d="M395.2 591c6.4-1.5 11.6-4.2 12.5-8.1 2.5-10 1.9-31.2 1.9-31.2l-12.6 1.4-1.8 37.9z"/><path class="st2" d="M368.4 586.1c4.4 10 36.9 6.9 39.4-3.1s1.9-31.2 1.9-31.2l-39.4 4.4c0-.1-6.3 19.9-1.9 29.9z"/><path class="st1" d="M329 588c4.4 10 36.9 6.9 39.4-3.1s1.9-31.2 1.9-31.2l-39.4 4.4c0-.1-6.2 19.9-1.9 29.9z"/><path class="st0" d="M340.2 593.8c11.1 1.4 26.5-2.2 28.2-8.9 2.5-10 1.9-31.2 1.9-31.2l-27.5 3.1-2.6 37z"/><path class="st5" d="M355.9 592.9c6.4-1.5 11.6-4.2 12.5-8.1 2.5-10 1.9-31.2 1.9-31.2l-12.6 1.4-1.8 37.9z"/><path class="st2" d="M329 588c4.4 10 36.9 6.9 39.4-3.1s1.9-31.2 1.9-31.2l-39.4 4.4c0-.1-6.2 19.9-1.9 29.9z"/><path class="st4" d="M390.9 555.5c16.9 1.9 76.2 1.9 98.1-6.9 31.2-13.1 28.1-48.1 28.1-48.1l-6.2-149.3-131.2 1.2L368.4 503s5.6 50.6 22.5 52.5z"/><path class="st1" d="M434 392.2c0 2.9-2.4 5.3-5.3 5.3s-5.3-2.4-5.3-5.3V374c0-2.9 2.4-5.3 5.3-5.3s5.3 2.4 5.3 5.3v18.2zM409 437.8c0 2.9-2.4 5.3-5.3 5.3s-5.3-2.4-5.3-5.3v-18.1c0-2.9 2.4-5.3 5.3-5.3s5.3 2.4 5.3 5.3v18.1zM456.5 437.8c0 2.9-2.4 5.3-5.3 5.3s-5.3-2.4-5.3-5.3v-18.1c0-2.9 2.4-5.3 5.3-5.3s5.3 2.4 5.3 5.3v18.1zM430.2 486.5c0 2.9-2.4 5.3-5.3 5.3s-5.3-2.4-5.3-5.3v-18.1c0-2.9 2.4-5.3 5.3-5.3s5.3 2.4 5.3 5.3v18.1zM412.1 535.8c0 2.9-2.4 5.3-5.3 5.3s-5.3-2.4-5.3-5.3v-18.1c0-2.9 2.4-5.3 5.3-5.3s5.3 2.4 5.3 5.3v18.1zM464 535.8c0 2.9-2.4 5.3-5.3 5.3s-5.3-2.4-5.3-5.3v-18.1c0-2.9 2.4-5.3 5.3-5.3s5.3 2.4 5.3 5.3v18.1z"/><path class="st5" d="M410.9 392.2c0 2.9-2.4 5.3-5.3 5.3s-5.3-2.4-5.3-5.3V374c0-2.9 2.4-5.3 5.3-5.3s5.3 2.4 5.3 5.3v18.2zM458.3 392.2c0 2.9-2.4 5.3-5.3 5.3s-5.3-2.4-5.3-5.3V374c0-2.9 2.4-5.3 5.3-5.3s5.3 2.4 5.3 5.3v18.2zM432.1 437.8c0 2.9-2.4 5.3-5.3 5.3s-5.3-2.4-5.3-5.3v-18.1c0-2.9 2.4-5.3 5.3-5.3s5.3 2.4 5.3 5.3v18.1zM404 487.1c0 2.9-2.4 5.3-5.3 5.3s-5.3-2.4-5.3-5.3V469c0-2.9 2.4-5.3 5.3-5.3s5.3 2.4 5.3 5.3v18.1zM458.3 486.5c0 2.9-2.4 5.3-5.3 5.3s-5.3-2.4-5.3-5.3v-18.1c0-2.9 2.4-5.3 5.3-5.3s5.3 2.4 5.3 5.3v18.1zM439.6 535.8c0 2.9-2.4 5.3-5.3 5.3s-5.3-2.4-5.3-5.3v-18.1c0-2.9 2.4-5.3 5.3-5.3s5.3 2.4 5.3 5.3v18.1zM497.1 535.8c0 2.9-2.4 5.3-5.3 5.3s-5.3-2.4-5.3-5.3v-18.1c0-2.9 2.4-5.3 5.3-5.3s5.3 2.4 5.3 5.3v18.1zM682.5 387s79.1 146 80.3 152.7c1.2 6.7-15.4 13.6-21.5 8.3-6.1-5.3-31.4-55.7-35.8-58-4.5-2.3-30.2 10.2-42.5-8.8-12.3-19.1-36.7-87.3-36.7-87.3l56.2-6.9z"/><path class="st0" d="m665.3 389.2 91.6 158.3c-5.1 2.7-12.1 3.6-15.6.6-6.1-5.3-31.4-55.7-35.8-58-4.5-2.3-30.2 10.2-42.5-8.8-12.3-19.1-36.7-87.3-36.7-87.3l39-4.8z"/><path class="st5" d="M705.5 490c-4.5-2.3-30.2 10.2-42.5-8.8s-36.7-87.3-36.7-87.3l25.5-3.1 53.7 99.2z"/><path class="st1" d="M687.4 491.8c-8.6.5-18.2-1.1-24.4-10.7-12.3-19.1-36.7-87.3-36.7-87.3l14.7-1.7 46.4 99.7z"/><path class="st2" d="m688.5 461.1-14.9 27.7M695.1 472.4l-8.3 16.4M684 449.3l-18.2 33.1M678.4 439.4l-19.2 33M672.8 429.4l-18 30.3M666.4 417.5l-17.2 32.2M661.7 407.6l-17.2 32.3M655 398.5l-14.7 25.9M647.7 396.9l-11.3 18.7M682.5 387s79.1 146 80.3 152.7c1.2 6.7-15.4 13.6-21.5 8.3-6.1-5.3-31.4-55.7-35.8-58-4.5-2.3-30.2 10.2-42.5-8.8-12.3-19.1-36.7-87.3-36.7-87.3l56.2-6.9z"/><path class="st5" d="M632.5 390.4s60.3 154.7 60.7 161.5c.4 6.8-17 11.6-22.4 5.6-5.4-6-24.2-59.2-28.3-62.1-4.2-2.9-31.2 6.4-41-14s-25.6-91.2-25.6-91.2l56.6.2z"/><path class="st0" d="m615.2 390.3 71.1 168.5c-5.4 2-12.4 2.1-15.6-1.4-5.4-6-24.2-59.2-28.3-62.1-4.2-2.9-31.2 6.4-41-14s-25.6-91.2-25.6-91.2l39.4.2z"/><path class="st5" d="M642.5 495.4c-4.2-2.9-31.2 6.4-41-14s-25.6-91.2-25.6-91.2l25.7.1 40.9 105.1z"/><path class="st1" d="M624.3 495c-8.6-.6-17.9-3.3-22.9-13.6-9.8-20.4-25.6-91.2-25.6-91.2l14.8.1L624.3 495z"/><path class="st2" d="M632.5 390.4s60.3 154.7 60.7 161.5c.4 6.8-17 11.6-22.4 5.6-5.4-6-24.2-59.2-28.3-62.1-4.2-2.9-31.2 6.4-41-14s-25.6-91.2-25.6-91.2l56.6.2zM633.6 475.2l-13.9 19M638.1 484.9l-9.7 9.3M629.2 464.6 611 490.3M626.2 452.4 604 482.9M621.9 441.8l-23.1 30.4M617.6 431.3l-21.7 27.8M612.7 418.6l-21.1 29.8M609.2 408.3l-21.1 29.8M603.8 398.4l-17.9 23.8M596.7 395.8 583.3 413M581.8 402.1l6-9.3"/><path class="st5" d="M588.6 400.5s36.4 153 35.9 159.4c-.5 6.4-17.6 8.5-21.8 2.1-4.2-6.4-14.9-58.7-18.5-61.9-3.6-3.2-30.2 1.7-36.8-18.7-6.6-20.5-12.1-88.8-12.1-88.8l53.3 7.9z"/><path class="st0" d="m572.3 398.2 44.8 167.3c-5.3 1.1-12 .3-14.5-3.4-4.2-6.4-14.9-58.7-18.5-61.9-3.6-3.2-30.2 1.7-36.8-18.7-6.6-20.5-12.1-88.8-12.1-88.8l37.1 5.5z"/><path class="st5" d="M584.2 500.2c-3.6-3.2-30.2 1.7-36.8-18.7-6.6-20.5-12.1-88.8-12.1-88.8l24.2 3.6 24.7 103.9z"/><path class="st1" d="M567.1 497.3c-8-1.7-16.4-5.6-19.7-15.9-6.6-20.5-12.1-88.8-12.1-88.8l13.9 2.1 17.9 102.6z"/><path class="st2" d="m581.5 489.7-10.4 7.4M578.5 480l-15.6 15.8M575.8 469.5 555.2 491M574.5 457.7l-24.9 25.5M571.8 447.2 546 472.4M569.1 436.7l-24 23.1M566.3 424.3l-23.9 25M564.4 414.1l-23.9 25M560.5 404.1 540.6 424M554.2 400.7l-15 14.3M588.6 400.5s36.4 153 35.9 159.4c-.5 6.4-17.6 8.5-21.8 2.1-4.2-6.4-14.9-58.7-18.5-61.9-3.6-3.2-30.2 1.7-36.8-18.7-6.6-20.5-12.1-88.8-12.1-88.8l53.3 7.9zM539.3 404.6l6.9-7.9"/><path class="st5" d="M539.2 399.6s12.4 76.5 11.1 89.6c-1.2 13.1-28 26.5-44.3 1.4-1.1-7.6-4.5-89.9-4.5-89.9l37.7-1.1z"/><path class="st1" d="m527.9 399.9 7.8 103.8c-9.2 2.7-21 .3-29.7-13.2-1.1-7.6-4.5-89.9-4.5-89.9l26.4-.7z"/><path class="st0" d="m516.5 400.2 11.4-.3 7.8 103.8c-4.3 1.2-9.2 1.4-14-.1l-5.2-103.4z"/><path class="st2" d="m523.1 495-6.7 4.9M521.4 486.6l-10.1 7.2M520.5 476.5l-13.4 8.7M521.4 467.2l-15.2 7.9M521 457.7l-15.1 7.4M519.5 448.1l-13.8 6.3M518.4 439.9l-12.9 3.8M518 431.1l-11.1 4.5M517 421l-12.3 5M516.7 411.5l-11.8 5.1M539.2 399.6s12.4 76.5 11.1 89.6c-1.2 13.1-28 26.5-44.3 1.4-1.1-7.6-4.5-89.9-4.5-89.9l37.7-1.1z"/><path class="st5" d="M503.7 399.7s4.2 77.1 1.8 89.9c-2.4 12.9-28.6 24.2-41.5-2.1-.3-7.7 4.4-89.8 4.4-89.8l35.3 2z"/><path class="st1" d="m493.2 399.1-2.7 103.8c-8.9 1.9-19.6-1.3-26.5-15.4-.3-7.7 4.4-89.8 4.4-89.8l24.8 1.4z"/><path class="st0" d="m482.5 398.5 10.7.6-2.7 103.8c-4.1.9-8.7.7-13.1-1.2l5.1-103.2z"/><path class="st2" d="M503.7 399.7s4.2 77.1 1.8 89.9c-2.4 12.9-28.6 24.2-41.5-2.1-.3-7.7 4.4-89.8 4.4-89.8l35.3 2zM479.6 493.3l-6.7 4.4M478.8 484.9l-10 6.3M478.9 474.7l-13.3 7.7M480.7 465.5l-14.9 6.7M481.3 456.1l-14.8 6.1M480.7 446.4l-13.4 5.1M480.5 438.1l-12.4 2.8M480.9 429.3l-10.8 3.7M481.1 419.1l-12.1 4.2M481.7 409.7l-11.5 4.3"/><path class="st1" d="M645.7 321.9c15.6 9.8 40.4 66.5 40.4 66.5s-100.4 21-220.9 17.9c1.4-24.4.6-85.6.6-85.6s159.9-11.3 179.9 1.2z"/><path class="st5" d="M645.7 321.9c10.9 6.8 26.2 36.4 34.5 53.7-18.2 6.9-106.9 18.2-214.6 20.1.8-28 .2-75 .2-75s159.9-11.3 179.9 1.2z"/><path class="st0" d="M645.7 321.9c8 5 18.4 22.2 26.6 37.9 3 5.7-76 23.9-206.4 23.3.4-27.5-.1-62.5-.1-62.5s159.9-11.2 179.9 1.3z"/><path class="st1" d="M645.7 321.9c8 5 18.4 22.2 26.6 37.9-19.1 3.9-129.7 8.3-206.3 11.4.1-24.8-.2-50.6-.2-50.6s159.9-11.2 179.9 1.3z"/><path class="st5" d="M551.4 316.5c41.5-1.1 84.6-.7 94.3 5.4 6.2 3.9 13.9 15.2 20.9 27.4-7.7 1.3-68.3 4.4-68.3 4.4s-40.6-21.8-46.9-37.2z"/><path class="st0" d="M579 342.1c-11.4-7.6-24.3-17.5-27.5-25.6 41.5-1.1 84.6-.7 94.3 5.4 4.1 2.6 8.7 8.2 13.4 15.2-1.6 1.6-80.2 5-80.2 5z"/><path class="st1" d="M560.4 327.9c-4.2-3.9-7.6-7.9-9-11.4 41.5-1.1 84.6-.7 94.3 5.4 1.5.9 3.1 2.3 4.7 4 0 0-88.4 2.9-90 2z"/><path class="st2" d="M645.7 321.9c15.6 9.8 40.4 66.5 40.4 66.5s-100.4 21-220.9 17.9c1.4-24.4.6-85.6.6-85.6s159.9-11.3 179.9 1.2zM633.7 405l4.7-10"/><path class="st0" d="M272.2 543.6c-18.1 6.2-124.9 67.5-126.2 78.7-1.2 11.2 8.7 22.5 15 22.5s123.7-61.8 125.6-66.2c1.8-4.4 3.7-41.2-14.4-35z"/><path class="st5" d="M285.8 552.6c-29.2 11.6-130.4 72.2-138 80.1 3 6.9 9 12.2 13.2 12.2 6.2 0 123.7-61.8 125.6-66.2 1.1-2.6 2.1-16.4-.8-26.1z"/><path class="st1" d="M287.7 566.8c-16.1 6.9-137 71.3-135 73.3 2.7 2.9 5.9 4.7 8.4 4.7 6.2 0 123.7-61.8 125.6-66.2.5-1.4 1-6.2 1-11.8z"/><path class="st2" d="M272.2 543.6c-18.1 6.2-124.9 67.5-126.2 78.7-1.2 11.2 8.7 22.5 15 22.5s123.7-61.8 125.6-66.2c1.8-4.4 3.7-41.2-14.4-35z"/><path class="st0" d="M267.2 509.3c-19.7 2.9-151.3 43.9-154.7 55.1-3.4 11.3 5.7 29 12.1 30.2 6.4 1.2 138.6-39.9 141.4-44 2.8-4.1 20.9-44.3 1.2-41.3z"/><path class="st5" d="M270.2 523.8c-32.2 6.4-147.5 49.2-156.8 55.8 1.7 7.6 6.9 14.2 11.3 15 6.4 1.2 138.6-39.9 141.4-44 1.5-2.4 5.3-16.3 4.1-26.8z"/><path class="st1" d="M274.7 536.8c-17.9 3.9-159.3 48.9-157.8 51.3 2.2 3.5 5.1 5.9 7.7 6.4 6.4 1.2 143.5-42.4 146.3-46.5.9-1.3 2.8-5.4 3.8-11.2z"/><path class="st2" d="M267.2 509.3c-19.7 2.9-151.3 43.9-154.7 55.1-3.4 11.3 5.7 29 12.1 30.2 6.4 1.2 138.6-39.9 141.4-44 2.8-4.1 20.9-44.3 1.2-41.3z"/><path class="st0" d="M261.9 467.9c-20.4-.1-159.6 20.9-164.8 31.7-5.2 10.9 1.4 30 7.7 32.2 6.3 2.2 146.2-18.8 149.6-22.5 3.4-3.7 27.9-41.4 7.5-41.4z"/><path class="st5" d="M262.6 483c-33.5 1.4-156.6 26.9-167 32 .6 8 4.9 15.4 9.1 16.8 6.3 2.2 146.2-18.8 149.6-22.5 2.1-2.2 8-15.6 8.3-26.3z"/><path class="st1" d="M265.3 496.7C246.6 498 96.7 521.5 98 524.2c1.7 3.9 4.2 6.8 6.8 7.7 6.3 2.2 151.5-20.6 155-24.4 1.1-1.2 3.6-5.1 5.5-10.8z"/><path class="st2" d="M261.9 467.9c-20.4-.1-159.6 20.9-164.8 31.7-5.2 10.9 1.4 30 7.7 32.2 6.3 2.2 146.2-18.8 149.6-22.5 3.4-3.7 27.9-41.4 7.5-41.4z"/><path class="st1" d="M261.6 489.9s6.2 56.2 23.7 97.4c53.7-31.9 105.6-31.9 105.6-31.9l-11.9-60-58.1-18.1-59.3 12.6z"/><path class="st5" d="M275.8 486.9s.7 44.8 23.2 92.9c48.5-24.4 91.8-24.4 91.8-24.4l-11.9-60-58.1-18.1-45 9.6z"/><path class="st0" d="M290.8 483.8s6.4 62.4 21.6 89.9c42.8-18.2 78.5-18.2 78.5-18.2l-11.9-60-58.1-18.1-30.1 6.4z"/><path class="st1" d="M337.2 564.8c31-9.2 53.7-9.2 53.7-9.2l-11.9-60-58.1-18.1c0-.1-1.9 32.4 16.3 87.3z"/><path class="st5" d="M351.5 561c23.4-5.4 39.4-5.4 39.4-5.4l-11.9-60-41.7-13c0-.1.5 30.4 14.2 78.4z"/><path class="st0" d="M364.1 558.4c16.4-2.9 26.8-2.9 26.8-2.9l-11.9-60-28.1-8.7s4.4 41.2 13.2 71.6z"/><path class="st2" d="m263.4 504.3 28.8-2.5M265.9 513l28.2-3.1M267.2 521.1l28.7-3.1M269.7 529.3l26.2-3.8M270.3 541.1l28.7-6.8M273.4 549.3l27.5-7.5M275.3 558.6l26.9-10.6M278.4 569.2l25.6-11.8M283.4 578l23.8-13.1M261.6 489.9s6.2 56.2 23.7 97.4c53.7-31.9 105.6-31.9 105.6-31.9l-11.9-60-58.1-18.1-59.3 12.6z"/><path class="st2" d="M337.2 564.8c31-9.2 53.7-9.2 53.7-9.2l-11.9-60-58.1-18.1c0-.1-1.9 32.4 16.3 87.3z"/><circle class="st2" cx="311.9" cy="519.6" r="5.3"/><circle class="st2" cx="317.5" cy="548.9" r="5.3"/><circle class="st2" cx="371.5" cy="539.9" r="5.3"/><circle class="st2" cx="369" cy="519.3" r="5.3"/><path class="st2" d="m324 504.8 21.9-3.6M325.3 511.8l28.1-3.8M327.2 519.3l25.6-3.8M327.2 526.8l28.7-4.4M329.7 536.8l27.4-4.4M333.4 545.5l25-5M334.7 554.3l26.2-5"/><ellipse class="st0" cx="348.2" cy="247.8" rx="42.5" ry="38.3"/><path class="st0" d="m318.6 318.1-.5-.6s-44-16.4-48.2-58.5c-4.2-42.1 21.7-65.8 28.7-68.7 7.1-2.9 37.5-15.8 37.5-15.8s10.4-12.9 22.9-3.7c6.7-9.6 20.4-7.9 24.5-2.1 2.9-6.2 15.4-7.9 21.7-.8 5-5 18.7-4.2 22 2.1 7.5-3.3 20-2.5 23.7 5 9.6-4.6 19.6-.8 23.7 5 8.7 4.2 40 21.2 40 21.2s25.4 15.4 20 62.9c-5.4 47.5-36.2 56.2-36.2 56.2l-101.6 9.2-78.2-11.4z"/><path class="st1" d="M474.8 179.9c-4.2-5.8-14.2-9.6-23.7-5l-3.7 19.6s11.2 1.2 20 5c.3-1.3 7.4-19.6 7.4-19.6zM427.3 169.9c-3.3-6.2-17.1-7.1-22-2.1l-.8 22s9.6.4 20.4 1.2l2.4-21.1M383.6 168.7c-4.2-5.8-17.9-7.5-24.5 2.1l3.7 18.7s11.7-2.1 21.2-1.2l-.4-19.6"/><path class="st5" d="m344 194.1 9.2-2.5-6.2-21.7-10.9 6.7zM384 188.2l-.4-19.5 9.1-4.6.9 25zM427.3 169.9l-2.5 21.2 10.9.9 2.8-23.3z"/><path class="st2" d="m447.1 195.1 3.9-20.2M424.6 191.3l2.7-21.4M405.9 189.5l-.7-21.7M384 188.8l-.4-20.1M359 170.7l4.4 18.1"/><path class="st5" d="M498.5 320.3s30.8-8.7 36.2-56.2c5.4-47.5-20-62.9-20-62.9l-14.2 14.2s15.4 17.1 12.1 45-25.8 36.6-25.8 36.6l-10 31.2 21.7-7.9z"/><path class="st1" d="M498.5 320.3s30.8-8.7 36.2-56.2c5.4-47.5-20-62.9-20-62.9l-8.3 8.3s17.4 18.4 13.7 52.9c-4.6 42.9-37.8 48.6-37.8 48.6l-5.5 17.2 21.7-7.9z"/><path class="st5" d="M298.6 190.3c-7.1 2.9-32.9 26.7-28.7 68.7 4.2 42 48.2 58.5 48.2 58.5l3-23.5s-27.9-15.4-27.9-43.3 16.7-41.7 16.7-41.7l-11.3-18.7z"/><path class="st1" d="m304.8 200.6-6.2-10.3c-7.1 2.9-32.9 26.7-28.7 68.7 4.2 42 48.2 58.5 48.2 58.5l1.7-13.6s-37.2-14.6-35.8-53.7c1.3-34.1 20.8-49.6 20.8-49.6z"/><path class="st2" d="m318.6 318.1-.5-.6s-44-16.4-48.2-58.5c-4.2-42.1 21.7-65.8 28.7-68.7 7.1-2.9 37.5-15.8 37.5-15.8s10.4-12.9 22.9-3.7c6.7-9.6 20.4-7.9 24.5-2.1 2.9-6.2 15.4-7.9 21.7-.8 5-5 18.7-4.2 22 2.1 7.5-3.3 20-2.5 23.7 5 9.6-4.6 19.6-.8 23.7 5 8.7 4.2 40 21.2 40 21.2s25.4 15.4 20 62.9c-5.4 47.5-36.2 56.2-36.2 56.2l-101.6 9.2-78.2-11.4z"/><path class="st0" d="M309.9 209.1s-34.5-42-32.5-55c2.1-12.9 22.5-24.5 36.7-17.5 8.7 5.4 30 57.5 30 57.5"/><path class="st5" d="M297.4 179.9s9.2-8.7 27.9-13.3c-1.2-5.8-11.7-23.7-11.7-23.7l-11.7-3.7-13.3 4.2-5 12.5 13.8 24zM307.8 192.4s9.6-8.3 23.3-12.1c3.7.4 4.2 9.2 4.2 10.8-12.9 3.7-21.7 10.4-21.7 10.4l-5.8-9.1z"/><path class="st1" d="M334.8 197.3c5.5-2.1 9.2-3.2 9.2-3.2s-21.2-52-30-57.5c-14.2-7.1-34.5 4.6-36.7 17.5-2.1 12.9 32.5 55 32.5 55s3.1-2 8.3-4.7c0 0-30.4-39-29.9-49 .4-10 12.9-14.2 20.4-11.7 7.6 2.4 26.2 53.6 26.2 53.6z"/><path class="st2" d="M309.9 209.1s-34.5-42-32.5-55c2.1-12.9 22.5-24.5 36.7-17.5 8.7 5.4 30 57.5 30 57.5"/><path class="st0" d="M500.8 215.3s36-40.9 34.3-53.8c-1.6-13-21.7-25.3-36-18.7-8.9 5.1-31.9 56.4-31.9 56.4"/><path class="st5" d="M514.3 186.6s-8.9-9.1-27.4-14.2c1.4-5.8 12.4-23.4 12.4-23.4l11.8-3.4 13.2 4.6 4.6 12.7-14.6 23.7zM503.4 198.8s-9.3-8.6-22.9-12.9c-3.7.3-4.5 9-4.5 10.7 12.8 4.2 21.3 11.1 21.3 11.1l6.1-8.9z"/><path class="st1" d="M476.3 202.7c-5.4-2.2-9.1-3.6-9.1-3.6s23-51.3 31.9-56.4c14.4-6.6 34.4 5.7 36 18.7s-34.3 53.8-34.3 53.8-3-2.1-8.1-4.9c0 0 31.7-38 31.5-48-.1-10-12.4-14.6-20-12.4-7.5 2.3-27.9 52.8-27.9 52.8z"/><path class="st2" d="M500.8 215.3s36-40.9 34.3-53.8c-1.6-13-21.7-25.3-36-18.7-8.9 5.1-31.9 56.4-31.9 56.4M297.4 208.2l-9.6-8.7M292 216.1l-10.9-6.2M288.6 222.8l-12.9-4.6M287 231.1l-13.4-4.2M284.9 239.1l-14.1-1.7M283.6 245.7l-12.8.9M283.2 253.6l-12.9 3.3M284.1 261.5l-12.1 6.7M287 270.3l-10.9 8.7M289.9 278.6l-8.3 9.2M295.3 285.3l-7.1 11.2M301.1 291.5l-4.1 13.8M511.9 217.4l10-8.8M515.6 225.7l11.6-7.1M518.5 233.2l13.7-3.8M520.2 242.4l14.2-1.3M520.2 250.7h15M520.6 259.9l14.6 1.6M519.7 268.2l13.4 3.7M516.9 276.9l13.3 5.9M513.9 285.7l11.7 7.1M510.2 292.3l9.5 10.8M501.9 300.3l9.5 12.2M495.6 306.1l5.2 12.7"/><circle class="st5" cx="376.1" cy="202.4" r="4.2"/><circle class="st5" cx="343" cy="202.4" r="4.2"/><circle class="st5" cx="404.8" cy="202.4" r="4.2"/><circle class="st5" cx="435.4" cy="202.4" r="4.2"/><circle class="st5" cx="466.6" cy="204.9" r="4.2"/><path class="st2" d="m277.8 583.6-.6-23.7M270.3 588l-1.9-26.3M260.9 593v-26.3M251 598v-26.9M242.8 604.2l-.6-28.7M234.1 608l-.6-28.1M224.7 613.6l-1.2-26.9M216 618v-27.5M207.2 621.7l-.6-25.6M198.5 626.7l-.6-26.2M188.5 631.1V608M180.4 635.5v-23.8M171.6 639.2v-20.6M164.1 642.3v-18.7M156 642.3V628M256.1 554.1l3.8-24.5M247.5 557.1l3.1-27.2M237 560.5l5-26.9M225.8 563.7l5.1-27.6M216.3 568.6l4.8-29.7M206.6 570.7l4.7-28.9M195.9 574.7l3.8-27.8M186.1 577.5l5.3-28.1M176.4 579.7l4.3-26.4M166.5 583.2l4.4-27.1M155.4 585.7l4.4-23.6M146.3 588.7l4.5-24.4M136.6 590.9l3.9-21.2M128.3 592.6l3.6-19.2M120 591l2.7-14.6M243.8 511.3l7.7-24.1M234.7 513l7.3-27M223.5 514.8l9.1-26.3M211.7 516.3l9.4-26.9M199.5 518.8l9.3-29.1M188.4 519.5l9.2-28.5M179.9 522.8l8-27.4M169.6 524.1l9.5-27.6M159.4 524.8l8.3-25.9M148.9 526.8l8.5-26.6M137.3 527.6l8-23.1M127.6 529.2l8.2-23.8M117.5 529.9l7.1-20.7M108.8 530.4l6.5-18.7M100.6 527.6l5-14.5"/><path class="st5" d="M175.1 373.5S82.3 511.2 80.5 517.8c-1.9 6.6 14.1 15 20.6 10.3 6.6-4.7 36.5-52.5 41.2-54.3s29 13.1 43.1-4.7c14.1-17.8 45-83.4 45-83.4l-55.3-12.2z"/><path class="st0" d="M192 377.2 85.6 526c4.8 3.1 11.7 4.8 15.5 2.1 6.6-4.7 36.5-52.5 41.2-54.3 4.7-1.9 29 13.1 43.1-4.7 14.1-17.9 45-83.5 45-83.5l-38.4-8.4z"/><path class="st5" d="M142.3 473.7c4.7-1.9 29 13.1 43.1-4.7 14.1-17.8 45-83.4 45-83.4l-25.1-5.6-63 93.7z"/><path class="st1" d="M160.2 477.4c8.5 1.3 18.2.7 25.3-8.3 14-17.8 44.9-83.4 44.9-83.4l-14.4-3.2-55.8 94.9z"/><path class="st2" d="M175.1 373.5S82.3 511.2 80.5 517.8c-1.9 6.6 14.1 15 20.6 10.3 6.6-4.7 36.5-52.5 41.2-54.3s29 13.1 43.1-4.7c14.1-17.8 45-83.4 45-83.4l-55.3-12.2zM148.9 464.4l7.5 11.2M155.4 455.9l9.4 21.6M162 446.6l12.2 29M167.6 435.3l15 34.7M174.2 425.9l15.9 34.7M180.7 416.6l15 31.8M188.2 405.3l14.1 33.8M193.9 396l14 33.7M199.5 389.4l12.2 27.2M207 387.8l9.3 19.7M222 396l-3.8-10.3"/><path class="st5" d="M224.6 381.7s-74.9 148.2-75.9 155c-1.1 6.7 15.8 13.1 21.7 7.7 5.9-5.4 29.7-56.6 34.1-59 4.4-2.4 30.5 9.4 42.2-10 11.7-19.4 34.2-88.3 34.2-88.3l-56.3-5.4z"/><path class="st0" d="m241.8 383.2-87 160.9c5.2 2.5 12.2 3.3 15.6.1 5.9-5.4 29.7-56.6 34.1-59 4.4-2.4 30.5 9.4 42.2-10 11.7-19.4 34.2-88.3 34.2-88.3l-39.1-3.7z"/><path class="st5" d="M204.5 485.2c4.4-2.4 30.5 9.4 42.2-10 11.7-19.4 34.2-88.3 34.2-88.3l-25.6-2.4-50.8 100.7z"/><path class="st1" d="M222.7 486.5c8.6.2 18.1-1.6 24-11.4 11.7-19.4 34.2-88.3 34.2-88.3l-14.7-1.4-43.5 101.1z"/><path class="st2" d="M224.6 381.7s-74.9 148.2-75.9 155c-1.1 6.7 15.8 13.1 21.7 7.7 5.9-5.4 29.7-56.6 34.1-59 4.4-2.4 30.5 9.4 42.2-10 11.7-19.4 34.2-88.3 34.2-88.3l-56.3-5.4zM209.9 475.1l8.8 10.2M215.3 465.9l12 20.2M220.7 455.8l15.7 27.3M224.8 443.9l19.3 32.6M230.2 433.8l20.1 32.4M235.5 423.7l18.9 29.7M241.6 411.6l18.2 31.7M246 401.7l18.1 31.6M249.9 393.6l15.5 25.4M259.7 390.5l11.7 18.3M273.9 398.2l-5-9.9"/><path class="st5" d="M267.3 396s-51 148.8-51 155.2c-.1 6.4 16.6 10.1 21.5 4.2 4.9-5.9 20.5-57 24.4-59.8 3.8-2.9 29.9 4.7 38.4-15.1s20.6-87.3 20.6-87.3l-53.9 2.8z"/><path class="st0" d="M283.7 395.1 223 557.4c5.2 1.7 11.9 1.4 14.7-2 4.9-5.9 20.5-57 24.4-59.8 3.8-2.9 29.9 4.7 38.4-15.1s20.6-87.3 20.6-87.3l-37.4 1.9z"/><path class="st5" d="M262.1 495.5c3.8-2.9 29.9 4.7 38.4-15.1s20.6-87.3 20.6-87.3l-24.4 1.2-34.6 101.2z"/><path class="st1" d="M279.4 494.3c8.1-.9 16.9-3.9 21.2-13.9 8.5-19.7 20.6-87.3 20.6-87.3l-14.2.9-27.6 100.3z"/><path class="st2" d="m265.8 485.4 9.7 8.3M269.8 476l13.9 17.3M273.4 465.8l18.5 23.4M275.8 454.2l22.4 27.8M279.5 444l23.2 27.6M283.2 433.8l21.7 25.3M287.2 421.7l21.4 27.2M290.1 411.7l21.3 27.2M295.5 404l18 21.8M301.5 399.4 315 415M315.9 404.6l-6-8.4M267.3 396s-51 148.8-51 155.2c-.1 6.4 16.6 10.1 21.5 4.2 4.9-5.9 20.5-57 24.4-59.8 3.8-2.9 29.9 4.7 38.4-15.1s20.6-87.3 20.6-87.3l-53.9 2.8z"/><path class="st5" d="M316.6 399.7s-19.7 75-19.7 88.1 25.3 29 44 5.6c1.9-7.5 13.1-89 13.1-89l-37.4-4.7z"/><path class="st1" d="M327.8 401.2 310 503.7c8.9 3.6 20.9 2.3 30.9-10.2 1.9-7.5 13.1-89 13.1-89l-26.2-3.3z"/><path class="st0" d="m339.1 402.5-11.3-1.4L310 503.6c4.2 1.7 9 2.3 13.9 1.2l15.2-102.3z"/><path class="st2" d="M316.6 399.7s-19.7 75-19.7 88.1 25.3 29 44 5.6c1.9-7.5 13.1-89 13.1-89l-37.4-4.7zM323.4 496.2l6.3 5.6M325.9 488l9.4 8.2M327.8 478l12.5 10M327.8 468.7l14.3 9.3M329 459.3l14.4 8.8M331.5 449.9l13.1 7.5M333.4 441.8l12.5 5M334.7 433.1l10.6 5.6M336.5 423.1l11.9 6.2M337.8 413.7 349 420"/><path class="st5" d="M351.8 403.2s-11.6 76.3-10.4 89.4c1.2 13.1 26.2 26.8 41.5 1.9 1.1-7.6 4.2-89.8 4.2-89.8l-35.3-1.5z"/><path class="st1" d="m362.4 403.6-7.3 103.6c8.6 2.8 19.6.6 27.9-12.8 1.1-7.6 4.2-89.8 4.2-89.8l-24.8-1z"/><path class="st0" d="m373.1 404.1-10.7-.4-7.3 103.6c4 1.3 8.6 1.5 13.1 0l4.9-103.2z"/><path class="st2" d="M351.8 403.2s-11.6 76.3-10.4 89.4c1.2 13.1 26.2 26.8 41.5 1.9 1.1-7.6 4.2-89.8 4.2-89.8l-35.3-1.5zM366.8 498.7l6.4 5.1M368.4 490.4l9.5 7.3M369.3 480.3l12.5 8.9M368.4 470.9l14.3 8.1M368.8 461.5l14.1 7.5M370.3 451.9l12.9 6.4M371.3 443.8l12.1 3.8M371.7 434.9l10.4 4.7M372.5 424.8l11.6 5.2M372.8 415.3l11.1 5.3"/><path class="st1" d="m203.2 318.2-31.9 56.2s67.5 33.7 220.2 33.7c.9-24.4.9-51.5.9-51.5l-189.2-38.4z"/><path class="st0" d="M192.5 337.1 178.4 362s76.3 32.1 213.5 34c.2-9.3.4-18.2.4-25.3-137.5-1.9-199.8-33.6-199.8-33.6z"/><path class="st5" d="m186.5 347.7-8.1 14.2s76.3 32.1 213.5 34c.1-4.2.2-8.2.2-12.2-124.2.1-205.6-36-205.6-36z"/><path class="st2" d="m203.2 318.2-31.9 56.2s67.5 33.7 220.2 33.7c.9-24.4.9-51.5.9-51.5l-189.2-38.4z"/><path class="st3" d="M159.1 278.2s24.4 47.5 86.8 65c119.9 33.7 287.3 11.2 306.1 15.6 18.7 4.4 34.4 30 61.8 39.4 27.5 9.4 76.8 3.7 90.6-25 20-37.5 26.9-132.4 51.8-159.9s62.5-23.1 68.7-22.5c-5.6-19.4-56.8-21.2-87.5 3.7-30.6 25-59.3 144.3-66.8 154.9s-29.4 20-46.8 10c-13.6-7.7-33.7-37.5-60-42.5s-105.6 8.7-168.7 4.4c-55-3.7-89.3-1.9-130.6-16.9-48.7-18.7-63.1-48.1-63.1-48.1l-30.6.6-11.7 21.3z"/><path class="st6" d="M172.9 268.8s14.4 43.7 76.8 61.2c119.9 33.7 286 12.7 304.8 16.9 25.6 5.6 35 30 62.5 39.4 27.5 9.4 65.6 1.9 79.3-26.9 20-37.5 24.4-122.4 52.5-151.2 0 0-12.6-12.6-13.2-12-29.9 28.3-57.5 142.8-64.9 153.2-7.5 10.6-29.4 20-46.8 10-13.6-7.7-33.7-37.5-60-42.5s-105.6 8.7-168.7 4.4c-55-3.7-89.3-1.9-130.6-16.9-48.7-18.7-63.1-48.1-63.1-48.1l-30.6.6 2 11.9z"/><path class="st4" d="M720.1 278c1.6-6.7 3.3-13.2 5.1-19.6l-20.7-5.8c-2.6 6.5-5 13.2-7.4 19.8l23 5.6zM675 339.2c-1.8 5.1-3.2 8.7-4.3 10.2-1.7 2.4-4.1 4.7-7 6.7l24.2 15.5c3.3-3.6 6.2-7.6 8.4-12.2 1.4-2.6 2.7-5.6 4-8.6L675 339.2zM613.4 351.1c-5.4-5.1-11.6-11.3-18.4-17.2l-19 23.5c5.6 4.3 10.7 9.3 16.4 14.1l21-20.4zM503.3 318.1c-8.2.6-16.8 1.2-25.7 1.8l-.6 28.8c9.4-.3 18.2-.6 26.2-1v-29.6zM327.2 317.3c-8.1-.7-15.9-1.6-23.7-2.8l-2.6 26.5c8.2 1.3 16.6 2.4 25 3.4l1.3-27.1zM238.5 291.7c-7.4-4.5-13.4-9.1-18.3-13.4L197.9 303c5.8 5.1 12.9 10.2 21.5 14.9l19.1-26.2z"/><path class="st2" d="m721.9 268.2-21.2-5M695.1 361.9l-24.4-12.5M583.9 363.7l19.4-20.6M490.8 348.1l-1.9-28.1M312.8 343.1l2.5-25M210.3 310l16.3-25"/><path class="st6" d="M192.2 256.3c-1.2 11.2-5.6 21.2-21.9 24.4s-30-5.6-35-25.6-29.3-90.6-29.3-90.6l28.1-11.9s24.4-3.1 31.2 5c6.9 8.1 9.4 32.5 12.5 38.1 3.2 5.6 15.7 49.4 14.4 60.6z"/><path class="st4" d="m132.9 213.6 25-9.5 5.4 20.3-19.6 9.2z"/><path class="st2" d="m135 225.3 24.6-10.9"/><path class="st7" d="M157.9 217.8s-5.4-10.8-3.7-17.5c1.7-6.7 12.9-11.2 24.2-8.3 16.2 4.6 19.6 36.7 19.6 36.7s14.2-5 18.1 12.1c3.4 14.9-7.7 18.7-18.1 19.6s-22.5-15-26.2-27.9c-3.9-13.1-13.9-14.7-13.9-14.7z"/><path class="st2" d="M197.9 228.6c-7.9 2.9-6.7 17.9 3.3 15"/><path class="st7" d="M130.4 171.2s36.7 8.7 35-13.6c-1.2-9.8-9.2-15.2-15.4-15.6-6.2-.4-9.6 6.2-9.6 6.2s-4.6-5.4-10.4-5.4c-5.9 0-11.7 10.4-11.7 10.4l12.1 18z"/><path class="st2" d="M150.8 154.9c3.7 10.4-15.4 6.7-10.4-6.7"/><path class="st3" d="M114.8 150.7c-10 0-22.5 15-18.7 36.2s32.5 65.6 35.6 68.7c3.1 3.1 23.4 2.3 20-11.2-2.5-10-18.7-35-20-44.3-1.2-9.4 1.9-25 1.2-33.7-.6-8.8-8.1-15.7-18.1-15.7z"/><path class="st2" d="M116.7 162.6c8.7 8.7-1.9 20 0 34.4 1.9 14.4 15 33.7 15 33.7"/><path class="st0" d="M117.1 186.8c1.8-9.6 6.1-17.6-.4-24.2 0 0-12.5-5-27.5.6-11.2 5-20 21.9-9.4 27.5-.6 10 8.7 10.6 8.7 10.6s-3.1-14.4 10-16.2 15 .6 18.6 1.7z"/><path class="st8" d="M102.3 184.6c9.7-.9 11.6 1.2 14.8 2.1 1.8-9.6 6.1-17.6-.4-24.2 0 0-8.9-3.6-20.6-1.3 5.1 11.2 6 20.4 6.2 23.4z"/><path class="st2" d="M79.8 190.7c3.1-26.2 39.8-17.1 39.8-17.1"/><path class="st2" d="M117.1 186.8c1.8-9.6 6.1-17.6-.4-24.2 0 0-12.5-5-27.5.6-11.2 5-20 21.9-9.4 27.5-.6 10 8.7 10.6 8.7 10.6s-3.1-14.4 10-16.2 15 .6 18.6 1.7z"/><circle class="st0" cx="167.9" cy="219.1" r="13.3"/><path class="st8" d="M181.1 217.4c.1.6.1 1.1.1 1.6 0 7.4-6 13.3-13.3 13.3-3.4 0-6.4-1.2-8.7-3.3.7.1 21.9-11.6 21.9-11.6z"/><circle class="st2" cx="167.9" cy="219.1" r="13.3"/><circle class="st4" cx="167.7" cy="218" r="3.9"/><path class="st3" d="M335.3 283.6s-13.7-2.5-21.7 3.7c-7.9 6.2-5 24.2.8 27.5s161.6 10 169.5 3.7c7.9-6.2 7.1-25-2.5-28.3-4.2-1.5-23.7-.8-28.7-2.1-18.2-4.6-34.8-34.9-40.8-41.7-10.8-12.1-21.2-1.2-21.2-1.2l-55.4 38.4z"/><path class="st3" d="M335.7 302.8s37-1.2 41.2 2.5 16.7 49.5 18.7 49.2c2.1-.4 17.1-45 22.5-47.5 5.4-2.5 41.2-.4 41.2-.4"/><ellipse class="st1" cx="348.2" cy="247.8" rx="42.5" ry="38.3"/><ellipse class="st0" cx="348.2" cy="247.1" rx="26.9" ry="24.2"/><circle class="st3" cx="349" cy="246.9" r="15"/><circle class="st3" cx="349" cy="246.3" r="3.9"/><ellipse class="st2" cx="348.2" cy="247.8" rx="42.5" ry="38.3"/><path class="st9" d="m339.8 223.6-1.6-12.9M333.6 226.6l-6.6-10.5M329.5 231.6l-10.9-10M325.3 237.4l-13.8-7.1M322.8 243.2l-15.4-4.6M322 248.6l-16.3.8M322 254.9l-13.4 2.9M325.3 259.9l-12.1 7M329.5 264.9l-10 9.5M335.7 268.2l-7.1 12.9M342 269.9l-3.8 14.1M356.5 223.6l1.7-12.9M362.8 226.6l6.6-10.5M366.9 231.6l10.9-10M371.1 237.4l13.7-7.1M373.6 243.2l15.4-4.6M374.4 248.6l16.3.8M374.4 254.9l13.3 2.9M371.1 259.9l12.1 7M366.9 264.9l10 9.5M360.7 268.2l7.1 12.9M354.5 269.9l3.7 14.1M349 269.4l-.8 16.7M348.2 222.8v-13.4"/><ellipse class="st1" cx="455" cy="251.5" rx="42.5" ry="38.3"/><ellipse class="st0" cx="455" cy="250.8" rx="26.9" ry="24.2"/><circle class="st3" cx="454.1" cy="250.7" r="15"/><circle class="st3" cx="454.1" cy="250" r="3.9"/><ellipse class="st2" cx="455" cy="251.5" rx="42.5" ry="38.3"/><path class="st9" d="m463.3 227.4 1.7-13M469.6 230.3l6.7-10.4M473.8 235.3l10.8-10M477.9 241.1l13.7-7M480.4 246.9l15.4-4.5M481.3 252.4l16.2.8M481.3 258.6l13.3 2.9M477.9 263.6l12.1 7.1M473.8 268.6l10 9.6M467.5 271.9l7.1 12.9M461.3 273.6l3.7 14.2M446.7 227.4l-1.7-13M440.4 230.3l-6.6-10.4M436.3 235.3l-10.9-10M432.1 241.1l-13.7-7M429.6 246.9l-15.4-4.5M428.8 252.4l-16.3.8M428.8 258.6l-13.4 2.9M432.1 263.6l-12.1 7.1M436.3 268.6l-10 9.6M442.5 271.9l-7.1 12.9M448.8 273.6l-3.8 14.2M454.1 273.2l.9 16.6M455 226.6v-13.4"/></svg>