<svg version="1.1" id="Calque_1" xmlns="http://www.w3.org/2000/svg" x="0" y="0" viewBox="0 0 900 900" style="enable-background:new 0 0 900 900" xml:space="preserve"><style>.st0{fill:#ffce00;stroke-linecap:round;stroke-linejoin:round}.st0,.st1,.st2,.st3{stroke:#000;stroke-width:4.2221}.st1{fill:#ff7300;stroke-linecap:round;stroke-linejoin:round}.st2,.st3{fill:red}.st3{stroke-linecap:round;stroke-linejoin:round}.st4{fill:#fff}.st6,.st7{fill:none;stroke:#000}.st6{stroke-width:4.2221;stroke-linecap:round;stroke-linejoin:round}.st7{stroke-width:7.0369}.st8{fill:#ffce00}.st9{fill:none;stroke:#00ff18;stroke-width:.7037}.st10{fill:#fff;stroke:#000;stroke-width:4.2221;stroke-linecap:round;stroke-linejoin:round}.st11{fill:#00f}.st11,.st12{stroke:#000;stroke-width:4.2221;stroke-linecap:round;stroke-linejoin:round}.st13{fill:#ffce00;stroke:#000;stroke-width:.7037}.st14,.st15,.st16,.st18{stroke:#000;stroke-width:4.2221}.st14{fill:#1e1e1e;stroke-linecap:round;stroke-linejoin:round}.st15,.st16,.st18{fill:#ffce00}.st16,.st18{fill:#fff}.st18{fill:none}.st20,.st21{stroke:#000;stroke-width:1.4074}.st21{stroke-width:4.2221}.st21,.st22{fill:#00f}</style><path class="st0" d="M305.8 750.1s-22.9 35.3-23.3 52.9c-.4 17.7-72.8 26.7-74 .8s-31.5-57-31.5-57h0c-1.6.8-3.4 1.1-5.2 1.1-6.8 0-12.4-5.6-12.4-12.4 0-6.8 5.6-12.4 12.4-12.4 2.5 0 7.5 1.9 7.5 1.9s21.7-48.8 66.4-49.2c44.7-.4 60.9 52 60.9 52 1.8-1.1 4-1.8 6.3-1.8 6.8 0 12.4 5.6 12.4 12.4 0 6.8-5.6 12.4-12.4 12.4-1.9.1-7.1-.7-7.1-.7z"/><path d="M204.2 771.5s-12.5-27.7-14.4-29.6c-1.2-1.2-.9-6.4 1.3-13.1l103.9-.5c1.3 6 1.1 10.4.6 10.9-.9.9-6.8 16-12.7 31.5l-78.7.8z"/><path class="st1" d="m279.1 493 86 2.1 51 67.5-79.5 47-65.1-16L250 544z"/><path class="st0" d="m340.1 717.7-32-.5v-43.5h137.6v134.1h-73.6l-1-51.5h-29.5z"/><path class="st2" d="m319.6 678.2-.5 28.5 32 .5v33.5l34 .5 2.1 51.1h53.5l-1.1-107.1-54-43.1z"/><path class="st0" d="m171.5 711.7-33.6 1.5-2 45-18.5 1-1 40.1H75.3V681.7h96.2z"/><path class="st2" d="m160.8 681.7-.9 22.5-32.5.5-1 46-20-.5-.9 40.1H75.3V681.7z"/><path class="st0" d="m295.3 576.3-30-252.2-99.9 4.5.8 126.1-39.1 6.8 3.8 50.3-33.7 5.2-.8 59.3L200 595.1z"/><path class="st3" d="m272.8 591.5-24.3-250.8-67.3 2.9v123.2l-34.5 3.7-.8 57.8-30 2.2-3.8 61 83.7 18.6z"/><path class="st0" d="M75.3 572.1h302.2v109.6H75.3z"/><path class="st3" d="M90.4 589.6h280.2v81.1H90.4z"/><path class="st4" d="M431.6 702.1s-4.6 102.7 19.5 123.8c12.4 10.9 45.7 8.6 79.6 8.2 38.3-.4 76-.8 76.2-5.3.4-8.2-23.6-150.9-23.6-150.9L539 653.1l-107.4 49z"/><path d="M445.4 695.8s-7.9 94.9 16.9 116.3c11.4 9.9 41.6 8.8 72.1 8.7 35.8-.2 71.5-.8 71-4.5-5.1-36.8-22.2-138.1-22.2-138.1l-44.3-24.8-93.5 42.4z" style="fill:#ff7300"/><path class="st6" d="M431.6 702.1s-4.6 102.7 19.5 123.8c12.4 10.9 45.7 8.6 79.6 8.2 38.3-.4 76-.8 76.2-5.3.4-8.2-23.6-150.9-23.6-150.9L539 653.1l-107.4 49z"/><circle class="st7" cx="514.9" cy="709.5" r="9.1"/><circle class="st7" cx="472.2" cy="730.9" r="9.4"/><circle class="st7" cx="474.3" cy="761.1" r="8.7"/><path class="st7" d="M487.8 791c0 4.8-3.9 8.7-8.7 8.7-4.8 0-8.7-3.9-8.7-8.7s3.9-8.7 8.7-8.7c4.9 0 8.7 3.9 8.7 8.7z"/><circle class="st7" cx="510.8" cy="801.9" r="8.4"/><circle class="st7" cx="543.6" cy="801.9" r="8.9"/><path class="st7" d="M585.8 800.7c0 4.8-3.9 8.7-8.7 8.7-4.8 0-8.7-3.9-8.7-8.7s3.9-8.7 8.7-8.7c4.8-.1 8.7 3.9 8.7 8.7zM516.8 745.9c0 5.5-4.4 9.9-9.9 9.9s-9.9-4.4-9.9-9.9 4.4-9.9 9.9-9.9 9.9 4.4 9.9 9.9z"/><path class="st0" d="M623.8 724v25.7l7.2 2.1 2.9-6.3-1.3-21.3z"/><path class="st8" d="M605.3 728s39.8 0 40.2 7.5c.4 7.5-40.5 10.1-40.5 10.1l.3-17.6z"/><path class="st9" d="M624.4 743.5c-9.9 1.5-19.4 2.1-19.4 2.1l.4-17.7s9 0 18.5.8M633.6 730c6.6 1.1 11.8 2.8 11.9 5.5.1 2.5-4.2 4.4-10.1 5.9"/><path class="st6" d="M624.4 743.5c-9.9 1.5-19.4 2.1-19.4 2.1l.4-17.7s9 0 18.5.8M633.6 730c6.6 1.1 11.8 2.8 11.9 5.5.1 2.5-4.2 4.4-10.1 5.9"/><path class="st0" d="M630.1 732.1c4.2 0 8-9 4.2-13.2-3.7-4.2-12.2-4.2-15.3-.8-3 3.4-2.6 12.9 2.3 12.5 4.9-.4 5.3-9.1 5.3-9.1M631.6 739.8c4.2 0 8 9 4.2 13.2-3.7 4.2-12.2 4.2-15.3.8-3-3.4-2.6-12.9 2.3-12.5 4.9.4 5.3 9.1 5.3 9.1"/><path class="st3" d="m562.9 733.3 46.5-14.3.4 33-47.6-8.6z"/><circle class="st0" cx="582.6" cy="736.1" r="11.5"/><circle class="st10" cx="582.2" cy="735.7" r="2.5"/><path class="st10" d="m600.2 721.8 9.2-2.8.4 33-9.4-1.7z"/><path class="st6" d="m600.3 727.2 8.8-.5M600.8 733l8.3-.3M601.1 738.7h8.2M600.8 744.5l8.5.2"/><path class="st0" d="m650.8 778.6-35.7.4-61.6 1.5-6.4-7.5s-4.9-28.5 12.4-29.6c82.9 8.6 91.3 35.2 91.3 35.2z"/><path class="st10" d="M619.2 779s5.6 13.9 8.7 13.9c3 0 .8-13.2.8-13.2s3 13.5 6.4 13.5 1.9-13.5 1.9-13.5 1.9 13.5 5.6 13.2c3.7-.4.8-14.3.8-14.3s2.6 13.9 7.5 14.3c4.9.4 0-14.3 0-14.3l-31.7.4zM545.3 679.1l-42.8 97.6 51.8.8 6.4-39 31.1-56z"/><path class="st0" d="m545.3 679.1-23.7 54.1 39.1 5.3 31.1-56z"/><path class="st10" d="M502.5 776.7h114.1c2.6 0 1.9 8.7 0 8.7H502.5c-2.3 0-3.4-8.7 0-8.7z"/><path class="st3" d="M517.5 743.7c11.6-1.9 38.6.4 42.4 1.5 3.7 1.1 9.4-11.3 5.3-14.3-4.2-3-33.4-6-40.5-4.5-7.2 1.6-11.4 14.7-7.2 17.3z"/><path class="st10" d="M786.2 775.8s1.2 14.4 4.2 14.4 3.3-13.3 3.3-13.3 1.2 13.4 4.6 13.4c3.4 0 3.7-13.4 3.7-13.4s.8 13.5 4.5 13.2c3.7-.4 2.7-14.3 2.7-14.3s1.5 12.9 6.4 13.2c4.9.4.9-13.4.9-13.4l-30.3.2z"/><path class="st0" d="M736.2 739c39.8 8 80.3 36.5 80.3 36.5h-83.1L719.1 763l7.7-25.8c.1 0-16.2 17.8 9.4 1.8zM794.2 718.5v25.7l7.3 2 2.7-6.2-1.2-21.3z"/><path class="st8" d="M775.7 722.5s39.8 0 40.2 7.5c.4 7.5-40.5 10.1-40.5 10.1l.3-17.6z"/><path class="st9" d="M794.7 738c-9.9 1.5-19.4 2.1-19.4 2.1l.4-17.7s9 0 18.5.8M803.9 724.5c6.6 1.1 11.8 2.8 11.9 5.5.1 2.5-4.2 4.4-10.1 5.9"/><path class="st6" d="M794.7 738c-9.9 1.5-19.4 2.1-19.4 2.1l.4-17.7s9 0 18.5.8M803.9 724.5c6.6 1.1 11.8 2.8 11.9 5.5.1 2.5-4.2 4.4-10.1 5.9"/><path class="st0" d="M800.5 726.6c4.2 0 8-9 4.2-13.2-3.7-4.2-12.2-4.2-15.3-.8-3 3.4-2.6 12.9 2.3 12.5 4.9-.4 5.3-9.1 5.3-9.1M802 734.3c4.2 0 8 9 4.2 13.2-3.7 4.2-12.2 4.2-15.3.8-3-3.4-2.6-12.9 2.3-12.5 4.9.4 5.3 9.1 5.3 9.1"/><path class="st3" d="m729.6 726.2 45.8-12.5.8 36.3-41-11.3z"/><path class="st0" d="M759.7 727.8c0 5.6-4.5 10.1-10.1 10.1s-10.1-4.5-10.1-10.1 4.5-10.1 10.1-10.1 10.1 4.6 10.1 10.1z"/><circle class="st0" cx="747.9" cy="728.7" r="2.8"/><path class="st10" d="m765 716.6 10.4-2.9.8 36.3-11.2-3.1z"/><path class="st6" d="m765.2 721.9 10.2-.2M765.2 727.7l9.8-.2M765.6 734.4l9.8.1M765.2 740.2l10.2.8"/><path class="st0" d="m636.6 687.2 51.3 50 32.9-4 9.5-9-34.7-37.5-58 .3z"/><path class="st10" d="M687.6 742.5s-4.8 30-3.5 33.3c1.3 3.2 51.5 1.8 51.5 1.8l-4.2-36.8-43.8 1.7z"/><path class="st3" d="M731.9 724.7c3.2 3 7.5 15.5 2.7 17.2s-43.1 4.8-47.3 4-10-12-6-15.3c4.1-3.1 47.3-8.9 50.6-5.9z"/><path class="st10" d="M683.1 773.8h101.8c2.3 0 1.7 8.7 0 8.7H683.1c-1.9-.1-2.9-8.7 0-8.7zM525.7 673.7c6.1 11.6 65.7 13.8 114.6 15 35.3.8 64.7 2.5 66.6 1 4.5-3.5-18.5-63.5-22-74.3-3.5-10.8-22-18.8-22-18.8l-95.1 4.5s-52.6 52.6-42.1 72.6z"/><path class="st6" d="m673.6 674.1-7 .5v14.8c3.4.1 6.7.2 9.8.3.5.2-2.8-15.6-2.8-15.6zM620.8 688.2c2.1.1 4.2.1 6.3.2l.7-13.4-7.2-.3.2 13.5zM572 671.7l-7.2-.3-1 13.3c2.9.3 5.9.6 8.9.8l-.7-13.8z"/><path class="st11" d="m526.6 655.7 172.5.1c-5.7-17-12.4-35-14.2-40.4-3.5-10.8-22-18.8-22-18.8l-95.1 4.5s-32.4 31-41.2 54.6z"/><path class="st10" d="m671.9 655.3 27.2-.2c-5.7-16.3-12.4-34.3-14.2-39.7-3.5-10.8-22-18.8-22-18.8l9 58.7zM526.6 655l48 .4-.5-54.5-6.3.3c0-.1-32.4 31.6-41.2 53.8z"/><path class="st3" d="m584.3 655.2 36.1.4-1.1-57-34.5 1.7z"/><path class="st11" d="M637.1 655.2h39.5l-4.7-56.6-34.6 1.7z"/><path class="st6" d="M637.8 625.7h36M637.1 648.2l38.5-.3"/><circle class="st6" cx="657.7" cy="635.8" r="4.9"/><path class="st6" d="m678.9 615.1 8.4 40.3M627.6 616.1l.7 38.4"/><path class="st10" d="m684.9 615.4-103.6.8s-52.6 87-135.9 90.8c-99.1-.1-111.1-93.9-81.1-150.2 30-56.3 45-45.8 45-45.8l156.1 3s73.5-2.3 89.3 24c15.9 26.3 30.2 77.4 30.2 77.4z"/><path class="st0" d="M509.2 528.6s22 24 57.6 16c10.5-36.5-8-53.1-8-53.1l-40.5-5.5-9.1 42.6z"/><path class="st1" d="m364.4 556.8 22.5-107.3 42 5.2-9 104.4z"/><path class="st12" d="M375.6 637.9h71.3v29.3h-71.3z"/><path class="st3" d="M388.3 637.9h43.6v29.3h-43.6z"/><path class="st12" d="M464.2 635.7h65.3v30.8h-65.3z"/><path class="st3" d="M474.7 636.4h39.8v30h-39.8z"/><path class="st12" d="M456.7 587.6h72.8v28.5h-72.8z"/><path class="st3" d="M472.4 587.6h38.3v28.5h-38.3z"/><path class="st12" d="M535.5 562.8h54v32.3h-54z"/><path class="st3" d="M548.2 563.5h28.5v30.9h-28.5z"/><path class="st12" d="M599.3 562.1h60.8v30.8h-60.8z"/><path class="st3" d="M610.6 562.8h37.5v30h-37.5z"/><path class="st0" d="M572.3 487.5s117.1 43.1 129.1 46c12 3 72.6 22.5 98.6 17 17.6-3.7 32-53.6 20.5-59-5-2-14 39.5-21.5 39.1-20-2 21-83 13-85.6-8-2.5-18.5 39.1-20 39.1-5-1.5 6-42.5-3.5-43.1-9.5-.5-4.5 42.5-8 42s-1-42.5-10-41.5 2.5 42.5-2 42.5-11.5-39.5-20.5-37c-8 2 19.5 70.1 10 73-9.5 3-150.1-63.1-150.1-63.1l-42-4.5 6.4 35.1z"/><path class="st10" d="M824.2 508.4c1.1-8.4.1-15.1-3.7-17-2.2-.8-5.1 6.4-8.3 14.9l12 2.1zM757.9 459.2c-3-7.4-6.3-13.3-9.9-12.3-2.3.6-1.7 6.4.1 14.6l9.8-2.3zM776.8 455c-1.1-7.7-2.8-13.9-6.3-13.5-3.6.4-3.9 7.2-3.3 15.3l9.6-1.8zM792.3 456.5c.5-8.3 0-15.3-3.9-15.5-3.9-.2-5.3 6.8-6 15.3l9.9.2zM808.6 465.2c3.7-11.1 5.8-19.4 3.4-20.1-3.3-1.1-7.1 5.5-10.4 13.5l7 6.6z"/><path class="st11" d="M699.4 482c-4 0-23 62.1-21 65.6 2 3.5 33.5 0 33.5 0l14.5-43.1c0 .1-23-22.5-27-22.5z"/><path class="st6" d="M707.9 487.5c-13.5 18-21.5 61.1-21.5 61.1"/><circle class="st6" cx="697.4" cy="538.5" r="4.5"/><circle class="st6" cx="710.6" cy="499.3" r="3.7"/><path class="st3" d="M691.4 499.1c-3 8.6-6.3 19-8.9 28.1l35 3.7 5.6-16.8-31.7-15z"/><path class="st0" d="M684.4 532.6c0 6.1-4.9 11-11 11s-11-4.9-11-11 4.9-11 11-11c6.1-.1 11 4.8 11 11z"/><circle class="st0" cx="686.9" cy="484" r="11.5"/><path class="st1" d="M730.9 526.6c2-12 8.5-12 8.5-12s5.5-13.2-6-18c-6.9-2.8-16 0-22.5 22.5s-4.4 35.3 6.5 38.6c15.1 4.5 17-14.5 17-14.5s-5.5-4.7-3.5-16.6z"/><path class="st6" d="M734.4 543.1s-7.1 9.6-14.6 5.9c-5.4-2.7-3-13.8-.4-24.9 2.6-11.1 6.2-16.7 10.1-17.9 7.5-2.3 8.4 6.9 8.4 6.9"/><path class="st0" d="M614.7 437.9s132.9-63.1 136.6-65.3c3.7-2.3 53.3-36.8 58.5-50.7 5.3-13.9 10.5-48.4 3.4-47.6-7.1.8-11.3 36.4-19.9 35.7-8.7-.8 9.4-68.7.4-70.6-9-1.9-9.8 48.1-13.5 48.1-3.7 0 3.7-53.7-4.9-53.3-8.7.4-3.4 49.5-5.6 50.3-4.2.4-4.5-48.1-14.6-45.4-10.1 2.6 6 48.8 1.1 49.9-4.9 1.1-14.3-41.7-22.2-36.8-5.9 3.7 9.6 41 15.9 64.5-2.4 8-.1 17.8-1.3 20.8-4.5 11.6-41.3 20.6-41.3 20.6L612 388l-7.1 42.8 9.8 7.1z"/><path class="st10" d="M743.8 263.3c-3.2-7.5-6.7-13.2-9.9-11.3-2.3 1.4-1.3 8 1.1 16.8l8.8-5.5zM762.7 250.6c-1.8-7.3-4.1-12.6-7.6-11.7-3.3.8-3.8 6.4-3.2 13.5l10.8-1.8zM779.7 250.7c-.1-9.4-1.1-16.8-4.4-16.7-3.2.1-4.5 7-5 15.8l9.4.9zM796 255.1c.7-8.8.4-15.2-2.3-15.8-3.3-.7-5.5 5.6-7.1 13.9l9.4 1.9zM816.3 291.5c.9-9.8.4-17.6-3.1-17.2-3.2.4-5.7 7.5-8.4 15.3l11.5 1.9z"/><path class="st11" d="M686.4 338.8c-3.3 2.3 21.1 71.4 24.8 73.2s33-26.7 33-26.7l-18.6-45.7c0 .1-35.9-3.1-39.2-.8z"/><path class="st6" d="M695.4 338.4c2.6 28.1 22.9 67.9 22.9 67.9"/><path class="st3" d="M691.9 362.8c2.6 8.2 5.8 17.3 8.8 25.5l36.4-20.3-7.1-17.5-38.1 12.3z"/><circle class="st6" cx="706.1" cy="348" r="3.9"/><circle class="st6" cx="722.2" cy="389.6" r="4.3"/><circle class="st0" cx="680.4" cy="357.6" r="10.5"/><circle class="st0" cx="695.6" cy="405" r="11"/><path class="st1" d="M737.8 360.5c-5.2-11 2.6-15.8 2.6-15.8s-6-13.6-13.2-11.6c-7.2 1.9-13.7 5.1-6.3 27.3 7.5 22.2 16.5 31.8 27.2 28 10.8-3.8 5.7-17.7 5.7-17.7s-10.9.9-16-10.2z"/><path class="st6" d="M735.2 336.9s-12.7 7.5-4.5 27.4 22.2 20.3 22.2 20.3"/><path class="st10" d="M583.2 323.8s2.3 11.3 4.2 14.3 34.9-12.7 34.9-12.7l-6.8-13.2-32.3 11.6z"/><path class="st6" d="m591.8 319.6 6 15.8M601.2 316.3l5.6 14.6"/><circle class="st13" cx="216.7" cy="749" r="17.7"/><circle class="st0" cx="216.5" cy="749.7" r="12"/><circle class="st0" cx="216" cy="749.2" r="4"/><circle class="st13" cx="268" cy="748.2" r="18"/><circle class="st0" cx="267.8" cy="748.5" r="12.2"/><circle class="st0" cx="267.2" cy="748.5" r="4.2"/><circle class="st11" cx="215.2" cy="463.3" r="19.3"/><circle class="st11" cx="215" cy="463.5" r="7"/><circle class="st0" cx="218.8" cy="387.2" r="18.8"/><circle class="st0" cx="219.3" cy="387.7" r="6.3"/><circle class="st0" cx="214.7" cy="541.3" r="19.8"/><circle class="st0" cx="214" cy="540.6" r="6.5"/><circle class="st0" cx="140.2" cy="627.4" r="15.8"/><circle class="st0" cx="139.5" cy="626.7" r="5.5"/><circle class="st11" cx="218.5" cy="629.6" r="19"/><circle class="st11" cx="218.5" cy="630.7" r="6"/><circle class="st11" cx="101.2" cy="710" r="13.8"/><circle class="st11" cx="101.7" cy="710.5" r="5.3"/><circle class="st11" cx="398.9" cy="721.9" r="13.8"/><circle class="st11" cx="397.9" cy="721.4" r="4.8"/><path class="st3" d="m485.2 499 14.5-27 20.5 12.5 6.6 16-10.1 8.6z"/><path class="st0" d="M582.3 377.4s34.6-5.5 37.5-3c3 2.5 1.5 15 1.5 15l-39.1 4.5.1-16.5h0z"/><path class="st11" d="M584.3 409.4s33.5.5 39.1-1c5.5-1.5 3.5-20.5-2.5-21s-38.6 6.5-38.6 6.5l2 15.5z"/><path class="st3" d="M584.8 427.4s28.5 12 34.6 9.5c6-2.5 7-21 3-25.1-4-4-40-4-40-4l2.4 19.6z"/><path class="st1" d="M581.8 439s23 17.5 29.6 17c6.5-.5 11.5-15.5 8-19s-34.6-10.5-34.6-10.5l-3 12.5z"/><path class="st0" d="M575.8 448.5s16 21.5 23 22.5 15.5-8 12.5-15-31.5-19.5-31.5-19.5l-4 12z"/><path class="st11" d="M566.2 455s11.5 24.5 18 27.5 14.5-7.5 12.5-12-21-22-21-22l-9.5 6.5z"/><path class="st3" d="M547.2 462s11.5 26.5 15.5 31 22.5-6 20-11.5-17-29-17-29l-18.5 9.5z"/><path class="st1" d="M528.7 469.5s13 27.5 18 30 15-2 16-6.5-16.5-33.5-16.5-33.5l-17.5 10z"/><path class="st0" d="M518.7 473.5s11.5 26.5 15.5 28.5 10.5-3 11-6.5-17.5-29-17.5-29l-9 7z"/><path class="st11" d="M505.2 479.5s15 24.5 18 27 12-1 11-4.5-15.5-28.5-15.5-28.5l-13.5 6z"/><path class="st1" d="M494.7 496s28 5 30.5 8-1.5 11-5.5 12-29.6-7-29.6-7l4.6-13z"/><path class="st0" d="M489.7 528.1s26 5.5 30.5 3 4.5-12 2-15-32-7-32-7l-.5 19z"/><path class="st11" d="M487.7 543.1s22 11 27.5 9 8-12 5.5-16-32-12.5-32-12.5l-1 19.5z"/><path class="st3" d="M477.2 556.1s17.5 22 22.5 23.5 14.5-9.5 12-15-24-21.5-24-21.5l-10.5 13z"/><path class="st1" d="M465.2 560.6s11 24.5 15 27.5 13.5-4.5 11-8.5-14-23.5-14-23.5l-12 4.5z"/><path class="st0" d="M453.2 564.1s6.5 28.5 10 33 19.5-1.5 17-9-14.5-30-14.5-30l-12.5 6z"/><path class="st11" d="M434.2 567.1s2 32.5 7 36 17 0 18-6-6-33-6-33l-19 3z"/><path class="st14" d="M559.8 201.8s23.5-14.5 22.5-17-31.5-33-31.5-33l-121.6 56.1-24.5 24 24.5 85.1 30 7 53.1-35 47.5-87.2z"/><path class="st0" d="M429.7 570.1s42-4 54-14 6-63.1 21-73c15-10 58.1-18 73.5-31.5 15.5-13.5 6-74.6 6-74.6l-26.5-18-45.5 49-65.6 78.5s-35.5 60-33.5 60 16.6 23.6 16.6 23.6zM239 149.8s-65.6-7.5-87.5-11.5c-22-4-42.5-25.5-28-38 8.4-7.3 17.9-4.8 22 1.5 3 4.5-3.5 13.5 5 12.5 13-.5 10.5-19-2.5-28-11-6.5-35-4-40.5 11-13.5 34.1 27 58.1 58.1 63.1 31 5 69.5 11.5 69.5 11.5l28-3.5-2.5-10-21.6-8.6z"/><path class="st0" d="M291.5 168.3s-104.1-18-137.6-9c-16 4.3-35.4 62.2-51 120.6-17.1 63.8-29.5 128.4-19 128.6 20.1.4 41-214.2 87.6-225.7 46.5-11.5 125.1 9 125.1 9l-5.1-23.5z"/><path class="st6" d="M244 173.8s-54.5-11.5-86.1-.5c-31.5 11-74.1 235.2-74.1 235.2"/><path class="st0" d="M236 169.7s-79.1-5.5-95.1 38.6c-7 19.4-6.1 62.1-9.5 104.1-4.4 53.7-10.8 106.3 3 107.1 12.7.8 15-56.2 19.5-109.6 4.2-49.4 2-86.6 11-95.6s81.6-19 81.6-19l40-14.5-50.5-11.1z"/><path class="st9" d="m169.9 190.8 2.3 5.3M163.9 194.8l2.3 5.1M156.9 199.8l3.7 5.3M150.9 206.3l5.9 5.2M146.9 217.3l7.7 3.6M144.4 228.8l8.3 2.7M143.4 240.8l8 2.5M142.9 251.3l7.5 2.7M142.4 263.8l7 2.6M140.9 274.3l6.5 2.5M140.9 284.9l6.5 2.4M140.9 293.9l6.5 2.4M140.9 302.9l6.5 2.4M140.9 313.4l6.5 2.5M139.5 322.4l6.4 2.5M139.5 331.4l6.4 2.5M137.9 340.4l6.5 2.5M136.4 352.4l6.5 2.5M135.4 360.9l7.5 3M134.9 374.9l6.5 2.5M133.5 384.9l7.9 3.1M132.1 395.1l7.8 3.3"/><path class="st6" d="m169.9 190.8 2.3 5.3M163.9 194.8l2.3 5.1M156.9 199.8l3.7 5.3M150.9 206.3l5.9 5.2M146.9 217.3l7.7 3.6M144.4 228.8l8.3 2.7M143.4 240.8l8 2.5M142.9 251.3l7.5 2.7M142.4 263.8l7 2.6M140.9 274.3l6.5 2.5M140.9 284.9l6.5 2.4M140.9 293.9l6.5 2.4M140.9 302.9l6.5 2.4M140.9 313.4l6.5 2.5M139.5 322.4l6.4 2.5M139.5 331.4l6.4 2.5M137.9 340.4l6.5 2.5M136.4 352.4l6.5 2.5M135.4 360.9l7.5 3M134.9 374.9l6.5 2.5M133.5 384.9l7.9 3.1M132.1 395.1l7.8 3.3M177.1 187.9l2.3 6"/><path class="st0" d="M217.2 195.4s-39.4-4.2-52.9 12.7c-7.5 9.4-7 75.1-5.3 131.7 1.3 44.9 1.5 84.4 12.7 83.7 15.5-.9 11-56.7 7.9-100.2-2-28.2-1.5-51-1.5-51s-2.6-40.5 2.6-50.3c5.3-9.8 45.8-8.2 45.8-8.2l-9.3-18.4z"/><path class="st6" d="M226.6 199.9s-43.1-.4-54 12c-10.9 12.4.4 211.7.4 211.7"/><path class="st0" d="M175.6 224.3c-3.6 4.6-1.3 51.2 4.2 97.6 5.8 50.5 15.3 101 25.5 98.7 7.8-1.9-2.7-58.3-9.4-107.7-5.1-38.4-9-67.9-6-72.8 3-4.9 74.3-13.5 74.3-13.5l-1.1-16.5c-.1 0-68-4.2-87.5 14.2z"/><path class="st6" d="M252.5 218.3s-67.9 1.1-69.8 10.9c-5.3 58.2 22.5 191.4 22.5 191.4"/><path class="st0" d="M217 88.7c5.5-4 80.1 57.1 80.1 57.1l-5 17.5c-.1 0-84.1-66.1-75.1-74.6z"/><path class="st0" d="M199.5 128.7c.5-5.5 92.6 33 92.6 33l-4 13.5s-89.1-29.9-88.6-46.5z"/><path class="st0" d="M187.9 154.8c5.5-11 100.1 18 100.1 18l-1.5 14.5s-104.1-19-98.6-32.5z"/><path class="st0" d="M183.9 186.3c1.5-7 102.6-1 102.6-1l.5 16s-106 1.4-103.1-15z"/><path class="st0" d="M182.9 212.3c-1.5-10.5 105.6-14 105.6-14l-1 18.5s-103 6-104.6-4.5z"/><path class="st0" d="M189 241.3c-5.5-11 98.6-27.5 98.6-27.5l2.3 16.1.6 4.4s-96 18.1-101.5 7z"/><path class="st0" d="m296.5 228.3-1 .5s-100.6 31.5-95.1 46.5c3.5 6.5 99.1-26.5 99.1-26.5l-3-20.5z"/><path class="st0" d="M293.1 242.8s-83 35.5-82 61.1c.5 11.5 68.5-39.5 90.1-44.5 21.4-5.1-8.1-16.6-8.1-16.6z"/><path class="st0" d="m334.6 249.3-33 24s-15.5-24.5-17.5-72.1c-2-47.6 19.5-69.5 19.5-69.5l47 40-16 77.6z"/><path class="st3" d="m334.6 249.3-15.4 11.2s-13.7-19.7-13.7-60.7 13.7-54.7 13.7-54.7l31.4 26.7-16 77.5z"/><path class="st11" d="M352.1 245.3s-13.5 9-19 6.5c-2.7-1.2-13.9-25.9-12-48.6 2-23.8 17.6-45.5 25.1-46.5 14.5-2 32 22 32 22l-26.1 66.6z"/><path class="st6" d="m343.6 158.3 17 13.5M337.1 163.8l15 13M333.1 170.7l14.5 12.1M327.1 181.3l15 9.5M323 193.2l15.6 8.1M321.6 205.3l16.5 5.5M321.6 217.8l14 2M323.5 227.8l11.1 2M326.6 238.3l10 1"/><path class="st15" d="M513 97.8S371.1 156 352.3 197.2c-18.8 41.3 14.3 152.3 9 165.2-5.3 12.7-27.8 23.6-27.8 23.6l.8 12.9 12.4 6.5 57.8-34.9-20.6-131.7 38.6-61.2s80.7-28.9 81.4-30c.8-1.1 21.7-30.4 21.7-30.4L513 97.8z"/><path class="st16" d="M510.4 114.7c-49.2 17.2-133.6 64.2-145.2 96.5-11.6 32.3 14.6 152.8 7.9 166.6-6.8 13.9-38.6 21.2-38.6 21.2l1.3 18.9 10.8 5.6 33.8-6 25.5-31.2-3.4-50.7-8.2-98 74.9-69.4 55.2-31.5c-.2.2-.5-26.5-14-22z"/><path class="st2" d="M512.2 128.2s-123.6 60-133.6 93.6c-10 33.5 25.5 153.1 7.5 177.7-8.5 10-50.5 18.5-50.5 18.5l2 29-23.6 70.6 16.5 15.5 25.1-2 44.5-85.6 9.5 86.6 22 25.5s35-3.5 41-15.5 4.5-67.6 24.5-77.1 66.6-21.5 71.1-27.5 4.5-39.5 2-44.5-62.1-18.5-62.1-18.5L449.6 337l-37.5-60.5-3.5-40 13-20 67.1-37.5 39.1-19-2.5-26.5-13.1-5.3z"/><path style="fill:#fff;stroke:#000;stroke-width:1.4074" d="m513 237.8-6.8 32.3 28.5 9 45.1-11.3V240l-20.2-17.2z"/><path class="st18" d="m509.7 171.2 32.1 84.6M437.7 217.8l32 84.6M428.7 217.8l32 84.6M418.2 217.8l32 84.6M445.2 205.8l32 84.6M452.7 198.2l32 84.6M461.7 195.3l32 84.6M469.2 190.8l32 84.6M475.2 180.2l32 84.6M482.7 180.2l32 84.6M491.7 178.8l32 84.5M500.7 174.3l32 84.5M518.7 168.3l32.1 84.6M540.8 195.3l-19.6-32M560.7 200.6l-31.4-40.2M568.3 196.3l-26.1-32.5 5.5-5 29.1 31.5M407.6 217.8l32 84.6"/><path style="fill:red" d="m541.8 229.3 1.9 36-19.5 10.1-19.5-12.1 2.5-17 20.5-14.5z"/><circle class="st20" cx="544.3" cy="239.8" r="14.5"/><circle class="st4" cx="543.2" cy="239.3" r="6.5"/><path class="st8" d="M647.9 281.4s-5-2-11-16-41.5-33-47.6-33.5c-4.5-8.5-29.6-30-29.6-30s-5.5 5-9 3.5-8-9.5-10-10-80.6 37.5-81.6 42.5 23.5 71.1 23.5 71.1l19 52.6s75.1 22.5 81.1 18 0-26 10-28.5 10 12 15.5 11c5.5-2 3.5-19-4-19s-36 9-36.5-5.5c-.5-10.5 52.6-18 47.6-22.5-5-4.8 32.6-33.7 32.6-33.7zm-90.6-20c-8 3.5-19.5-4-24.5-1.5-5.5 2-19.5 4.5-20 0 3-10.5 51-34.6 54.5-30 3.5 4.4-2 27.9-10 31.5z"/><path class="st18" d="M647.9 281.4s-5-2-11-16-41.5-33-47.6-33.5c-4.5-8.5-29.6-30-29.6-30s-5.5 5-9 3.5-8-9.5-10-10-80.6 37.5-81.6 42.5 23.5 71.1 23.5 71.1l19 52.6s75.1 22.5 81.1 18 0-26 10-28.5 10 12 15.5 11c5.5-2 3.5-19-4-19s-36 9-36.5-5.5c-.5-10.5 52.6-18 47.6-22.5-5-4.8 32.6-33.7 32.6-33.7zm-90.6-20c-8 3.5-19.5-4-24.5-1.5-5.5 2-19.5 4.5-20 0 3-10.5 51-34.6 54.5-30 3.5 4.4-2 27.9-10 31.5z"/><path class="st20" d="M519.7 326.4c-2 3.5-8 40-8 40l23 5s3.5-38 2.5-41.5c-.9-3.5-15.4-7-17.5-3.5z"/><path class="st6" d="M597.3 279.4c-2-5.5 19-10.5 19 0"/><path class="st11" d="M566.8 301.3s9 14.5 10 16.5 12-1.5 10-4.5-12-20.5-12-20.5l-8 8.5zM667.2 254.8s6.8 15.6 8 17.6c1.1 2-8 9.1-9.4 5.7s-10.1-21.5-10.1-21.5l11.5-1.8zM600.8 314.4c1 3 12.5-2 11-4.5s1.5-13 1.5-13l-21.5-14-8 6.5 7.5 20s8.5 2 9.5 5zM660.5 287.3c2.2 2.3-8.2 8.5-10.2 5-1.5-2.5-11.1-2-11.1-2l7.6-14.6 3.5-9 10.1 9.8c.1.1-2 8.6.1 10.8z"/><path class="st11" d="M587.3 287.3s12 25.1 13.5 27c1.5 2-9.5 6-10.5 4.5s-15.5-26-15.5-26l12.5-5.5zM655.3 258.3s12 25.1 13.5 27c1.5 2-9.5 6-10.5 4.5s-15.5-26-15.5-26l12.5-5.5z"/><circle class="st11" cx="622.8" cy="313.9" r="13.5"/><circle class="st11" cx="623.3" cy="314.4" r="5.5"/><circle class="st11" cx="646.8" cy="301.9" r="13.5"/><circle class="st11" cx="647.4" cy="302.4" r="5.5"/><path class="st11" d="M597.3 279.4c1.5 2.5 6 21 31.5 10.5 14-6 8-24.5 8-24.5s28.5-19 31-18 4 5.5 3 8-23.5 14-23.5 14 2.5 23.5-15 31.5c-22.5 11-41.5-10.5-41.5-10.5s-25.5 12-28 12-4.5-6-4.5-8c0-2.1 37.5-17.6 39-15z"/><path class="st0" d="M317.6 596.7c6-9.2 10.5-17.1 10.5-17.1l-19.5-9s-4.6 8.1-9.6 18M292.8 602.3c-4.4 10.7-6.9 20.5-2.7 22.4 4.2 1.9 11.5-5.7 18.6-15.1"/><path class="st8" d="m283.1 589.3 1.1 11.2 8.9.6 1.4 2.6 16.4 7.5 9 3.8 4.7-5.1-6.2-13.5-24.4-9.9-10.4 2.8"/><path class="st0" d="M284.4 592.5c3 3.7 15.4 3.8 15.4-1.5 0-3.4-4.9-7.9-12-8.2-12 0-14.3 13.9-8.7 19.1s13.7.4 13.7.4M320.8 611.9c-4.6-1.3-9.4-12.7-4.5-14.8 3.1-1.3 9.1 1.5 12.2 8 4.6 11.1-7.3 18.5-14.4 15.3-5.3-2.4-6.2-7.3-6.1-10"/><path class="st3" d="m314 517.6-22 50.5 48.1 20 50.5-125.6-14-16.5-39 1z"/><path class="st1" d="m318 505.5-4 12.1-22 50.5 48.1 20 24.3-60.5z"/><path class="st11" d="m309 529-17 39.1 48.1 20 15.8-39.4z"/><path class="st3" d="m301 547.6-9 20.5 48.1 20 9.5-23.5z"/><path class="st10" d="m296.1 558.8-4.1 9.3 48.1 20 3.2-7.9z"/><path class="st6" d="m302.8 562.5-4.1 8.2M310.3 565.4l-3.7 9M318.2 569.6l-3 8.6M326.8 573l-3 9M334.3 577.1l-2.6 6.8"/><path class="st0" d="m354.6 457.5-17-10.5s-15.5 46.7-16.5 49.5c-1 2.9 10.6 10.8 12.1 7.4 1.5-3.4 21.4-46.4 21.4-46.4z"/><path class="st8" d="m387.6 602.4.4 6.9 7.3 2.3 6.8-2.8 12.6 4.1 5.7-.3 6.8-8.5-10.1-7.5-19-1.7z"/><path class="st8" d="M417.4 597.5c1.6-8.6 2.5-15.6 2.5-15.6l-27.4 1.1s.4 7 1.4 15.6l2 13.2c1.8 9.8 4.6 18.3 8.7 18.2 3.8-.1 7-8 9.5-17.3l3.3-15.2z"/><path class="st0" d="M417.4 597.5c1.6-8.6 2.5-15.6 2.5-15.6l-27.4 1.1s.4 7 1.4 15.6M395.9 611.9c1.8 9.8 4.6 18.3 8.7 18.2 3.8-.1 7-8 9.5-17.3"/><path class="st0" d="M385.3 604.9c4.2 2.3 12.7-2 10.6-6.8-1.3-3.1-4.7-6-11.4-3.4-11 4.8-7.5 18.4-.3 21 7.2 2.6 12.5-5.1 12.5-5.1M425.1 606.4c-4.2 2.3-12.7-2-10.6-6.8 1.3-3.1 4.7-6 11.4-3.4 11 4.8 7.5 18.4.3 21-7.2 2.6-12.5-5.1-12.5-5.1"/><path class="st3" d="m401.2 440.5-20.1 145.1 51.6 1.5 1-142.6-13.1-18.5z"/><path class="st1" d="m388.6 531.2-7.5 54.4 51.6 1.5.4-57.3z"/><path class="st0" d="m407.9 445.4-6.8-4.9s-8.2 60.7-8.8 63.8c-.6 3 10.3 5.3 10.7 1.9.4-3.4 4.9-60.8 4.9-60.8z"/><path class="st3" d="m384.5 561.4-3.4 24.2 51.6 1.5.1-25z"/><path class="st10" d="m382.6 574.6-1.5 11 51.6 1.5v-11.5z"/><path class="st6" d="m390.2 575.6-.7 9.7M398.9 575.6l-.4 10.5M408.6 575.6l-.7 10.1M419.5 576.7l-.3 9.8"/><path class="st21" d="m450.7 350.9-30.5 42s16.5 36.5 68 28 67.6-45 67.6-45l-66.6-30-38.5 5z"/><path class="st15" d="M450.7 350.9 432 376.6s17.7 31.8 52.7 25.8 53.5-34.4 53.5-34.4l-49-22.1-38.5 5z"/><path class="st2" d="m450.7 350.9-11.4 15.7s7.9 25.3 42.9 19.4c35-6 42.5-24 42.5-24l-35.5-16-38.5 4.9z"/><path class="st18" d="M426.1 385.9s22.5 33 61.6 25.1c39.1-8 59-38.6 59-38.6"/><circle class="st15" cx="461.7" cy="429.8" r="8.8"/><circle class="st15" cx="532.3" cy="413.3" r="8.8"/><circle class="st15" cx="557.8" cy="392.3" r="8.8"/><circle class="st21" cx="471.9" cy="330.1" r="34.8"/><path class="st18" d="m437.2 330.1 68.5-7.7M439.6 338.4l67.1-8.3"/><path class="st21" d="M462.2 297.9c0 2 11.5 66.1 11.5 66.1"/><path class="st18" d="m468.2 296.3 11.5 67.1"/><circle class="st22" cx="453.6" cy="315.9" r="4.5"/><circle class="st22" cx="455.2" cy="348.9" r="4.5"/><circle class="st22" cx="494.2" cy="344.4" r="4.5"/><circle class="st22" cx="483.7" cy="311.4" r="4.5"/><circle class="st9" cx="453.6" cy="315.9" r="4.5"/><circle class="st9" cx="455.2" cy="348.9" r="4.5"/><circle class="st9" cx="494.2" cy="344.4" r="4.5"/><circle class="st9" cx="483.7" cy="311.4" r="4.5"/><circle class="st18" cx="453.6" cy="315.9" r="4.5"/><circle class="st18" cx="455.2" cy="348.9" r="4.5"/><circle class="st18" cx="494.2" cy="344.4" r="4.5"/><circle class="st18" cx="483.7" cy="311.4" r="4.5"/><path class="st15" d="M487.7 333.1c0 8.2-6.6 14.8-14.8 14.8-8.2 0-14.8-6.6-14.8-14.8s6.6-14.8 14.8-14.8c8.2.1 14.8 6.7 14.8 14.8z"/><circle class="st2" cx="472.9" cy="333.1" r="6.3"/><path class="st0" d="m472.2 433-13.5-97.1 28.5-5 18 97.1z"/><path class="st2" d="m472.2 433-6.5-47 30.8-5 8.7 47z"/><path class="st21" d="m472.2 433-3.3-23.4 32-4.7 4.3 23.1z"/><path class="st6" d="m467.7 334.9 8.5 48.6"/><circle class="st0" cx="479.7" cy="346.4" r="4.5"/><circle class="st0" cx="484.7" cy="372.9" r="4"/><path class="st6" d="m491.7 357.9-19 2.5"/><path class="st16" d="M506.7 434c0 9.6-7.8 17.5-17.5 17.5-9.6 0-17.5-7.8-17.5-17.5 0-9.6 7.8-17.5 17.5-17.5s17.5 7.8 17.5 17.5z"/><circle class="st16" cx="489" cy="434.2" r="7.2"/><path class="st14" d="M520.5 160.9s-12-21.7-13.5-30.8c-1.5-9 2.3-25.9.8-33.4-1.5-7.5-18-28.5-19.5-31s28-17.5 31-15.5 19 25.1 21 32.5c2 7.5-1 27.9 2 38 2.2 7.3 9 27 9 27l-30.8 13.2z"/><path class="st6" d="M496.1 60.3s16.1 23.3 19.1 33.8c3 10.5-4.5 34.9 6.8 49.9"/><path class="st6" d="M502.5 56.5s17.2 23.3 20.3 34.6c3 11.3-2.3 33.8 7.5 49.5"/><path class="st6" d="M509.9 53.1s21.7 27.8 21.7 37.2.8 38.3 6.8 46.2"/><circle class="st16" cx="537" cy="153" r="18.8"/><circle class="st16" cx="503.5" cy="171" r="17.7"/><circle class="st16" cx="466.5" cy="188" r="19.3"/><circle class="st16" cx="428.9" cy="207" r="19.3"/><circle class="st16" cx="401.9" cy="235.5" r="18.8"/><circle class="st16" cx="417.4" cy="274.1" r="20.8"/><circle class="st16" cx="429.2" cy="315.4" r="19.5"/><circle class="st16" cx="430.4" cy="352.1" r="16.7"/><circle class="st16" cx="427.2" cy="388.5" r="17"/><circle class="st16" cx="425.4" cy="421.7" r="15.3"/><circle class="st16" cx="428.9" cy="454.7" r="13.8"/><circle class="st16" cx="391.9" cy="446.2" r="17.7"/><circle class="st16" cx="351.6" cy="446" r="17.5"/><circle class="st16" cx="379.1" cy="475" r="11.5"/><circle class="st16" cx="373.1" cy="500.1" r="11.5"/><circle class="st16" cx="366.9" cy="525.8" r="12.7"/><circle class="st16" cx="346.8" cy="532.6" r="10"/><circle class="st16" cx="325.6" cy="523.1" r="11"/><circle class="st16" cx="396.4" cy="531.8" r="11.3"/><circle class="st16" cx="423.7" cy="528.6" r="13"/><circle class="st16" cx="424.4" cy="504.8" r="12.2"/><circle class="st16" cx="427.2" cy="482" r="12"/><circle class="st2" cx="300" cy="510" r="7"/><path class="st6" d="m215.7 697.6 58.6.3M218.3 804.5s-24.4-58.5-28.5-62.7c-4.2-4.2 9-53.3 57.1-52.1s50.7 47.6 48.8 49.5-25.9 66.8-25.9 66.8l-51.5-1.5zM207.5 777.9l72.4-.4M195.5 720.8l96.4-.3"/><ellipse class="st6" cx="210.5" cy="711.4" rx="3.7" ry="3.4"/><ellipse class="st6" cx="243.1" cy="710.7" rx="4.2" ry="3.4"/><ellipse class="st6" cx="276.7" cy="710.9" rx="3.6" ry="3.2"/><ellipse class="st6" cx="228.1" cy="785.6" rx="3.4" ry="3.2"/><ellipse class="st6" cx="261.1" cy="785.6" rx="3.4" ry="3.2"/><path class="st6" d="M215 795.9h58.5M220.2 698.3l-.3 21.8M229.2 698.3l-.3 22.2M257.7 698.3l.5 21.4M267.2 698.3v21.8M239.7 777.9l-.3 17.6M249.2 778.3l.3 17.6"/><path class="st2" d="M208.6 803.8h74v27.8h-74z"/><path class="st16" d="M208.6 821.1h74v10.5h-74z"/><path class="st6" d="M213.8 821.1v9.7M219.9 821.1v9.7M225.9 821.1v9.7M233.4 821.1v9.7M239.4 821.1v9.7M246.9 821.1v9.7M252.9 821.1v9.7M258.9 821.1v9.7M264.9 821.1v9.7M272.4 821.1v9.7"/><circle class="st16" cx="212.9" cy="839.7" r="10.3"/><circle class="st16" cx="247.5" cy="839.7" r="10.3"/><circle class="st16" cx="279" cy="839.7" r="10.3"/><circle class="st16" cx="212.9" cy="839.2" r="2.8"/><circle class="st16" cx="247.5" cy="839.2" r="2.8"/><circle class="st16" cx="279" cy="839.2" r="2.8"/><circle class="st2" cx="312.2" cy="738.6" r="4.4"/><circle class="st2" cx="171.7" cy="735.5" r="4"/></svg>