<svg version="1.1" id="Calque_1" xmlns="http://www.w3.org/2000/svg" x="0" y="0" viewBox="0 0 900 900" style="enable-background:new 0 0 900 900" xml:space="preserve"><style>.st0,.st2,.st3,.st4,.st5,.st6{fill:maroon;stroke:#000;stroke-width:8.0754;stroke-linecap:round;stroke-linejoin:round;stroke-miterlimit:10}.st2,.st3,.st4,.st5,.st6{fill:red}.st3,.st4,.st5,.st6{fill:#fff}.st4,.st5,.st6{fill:none}.st5,.st6{fill:#ff7300}.st6{fill:#ffce00}</style><path class="st0" d="M386 237.3c-2.7-2-51.1-24.2-51.1-34.3 0-10.1 2-28 8.5-30.3 6.3-2.4 44.7 37.4 48 37.4s-20.9-35.4-24.9-44.1 3.4-18.2 11.4-18.8c8.1-.7 43.1 47.1 47.4 50.5 4.3 3.4-15.1-47.1-17.8-57.2s3.8-18.2 10.1-16.2 33.4 49.8 38.5 48.5c5.2-1.3-9.4-45.8-4.7-55.2 4.7-9.4 15.9-14 21.3-14.1 7.1-.3 1.9 49.1 8.1 51.8s23.1-44.4 34.9-45.1c11.7-.7 15.2 15.9 8.9 28.9s-31.6 43.1-24.9 43.1c6.7 0 43.7-43.7 53.2-43.1 9.4.7 13.2 15.5 8.1 23.6s-20.9 24.2-22.9 30.3 50.5-25.6 58.5-22.5 0 49.5 0 49.5L386 237.3zM508.4 708.4c4-.7 73.4-80.2 73.4-80.2l27.5-59.1 13.5-26.2-22.1-50.5 10-32.7-10-56.8-139 12.1-70.5 47.1-14.3 106.3 42 80.1 89.5 59.9z"/><path style="stroke:#000;stroke-width:8.0754;stroke-linecap:round;stroke-linejoin:round;stroke-miterlimit:10" d="m557.6 570.4-6.1-167.6H532l3.4 179.1z"/><path class="st2" d="M592.8 553.5c-3.6.8-77.7 9.2-83 55.5-5.4 46.3 6.9 77.1 15.1 82.2 8.2 5.1 34.1 3.8 47.5-10.8 13.5-14.5 15.5-29.9 25.6-32.6s14.8 9.7 24.2 9.7 6.1-22.3 0-25.8 2.7-25.6 12.1-26.9 7.4-11.4-6.1-24.2-10.1-27.1-10.1-27.1h-25.3z"/><path class="st0" d="M594.6 534.1c-6.2-3.4-18.8 2-18.8 10.8s2.7 14.8 12.8 14.1c10.1-.7 46.4 4.7 52.5 4.7s6.7-9.4 2.7-14.3-33-38.9-35.7-52.4 12.8-24.9 12.8-37.4-6.1-33.5-10.1-42.9l-53.2-19.2"/><path class="st3" d="M551.5 595.4s22.1-4.2 41.3-4.2 31.9 15.5 41.5 13.5c2.7 4.2 4.2 19.8-4 23.4-8.1 3.5-22.2 2.8-22.2-7.3 0 7.4-24.2 7.3-26.1-7.4-.8 7.4-21 9.4-24.4 4.7-3.4-4.6-6.1-22.7-6.1-22.7z"/><path class="st4" d="m610.7 598-2.7 22.9M581.9 613.5v-21.8"/><path class="st3" d="M512.5 507.2s28.8-20.3 49.1-18.3 27.6 12.8 27.6 12.8-8.2 11.4-33.6 11.4c-25.6.1-43.1-5.9-43.1-5.9zM485.7 222.5c-64.7.7-126-2.6-179-7l-1.2 43.1c55.9.1 119.1.5 184 1.6 45.4.8 85.7-.9 121.1-4.2l2.3-44.5c-36.4 6.2-78.8 10.5-127.2 11zM234 208.4l-8.3 49.9h33.6l3.5-47c-10.1-.8-19.6-1.9-28.8-2.9z"/><path class="st5" d="M126.2 197.6c-11.4 4.7-19.5 54.5-14.8 58.5 2.3 2 46.8 2.2 114.3 2.3l8.3-49.9c-61.8-6.9-102.3-13.2-107.8-10.9z"/><path class="st2" d="m262.8 211.5-3.5 47c14.7 0 30.1 0 46.3.1l1.2-43.1c-15.5-1.2-30.1-2.7-44-4z"/><path class="st5" d="M783.7 159.9c-6.5 0-37 17.2-92.7 33.5l.4 51c62.7-12.5 96.1-28.9 98.4-36.1 4-12.7 6-48.4-6.1-48.4z"/><path class="st2" d="m613 211.3-2.3 44.5c17.6-1.6 34.1-3.6 49.1-5.9l-2.8-47.5c-13.6 3.3-28.2 6.2-44 8.9z"/><path class="st3" d="m657 202.4 2.8 47.5c11.2-1.7 21.7-3.5 31.5-5.5l-.4-51c-10.3 3.1-21.8 6.1-33.9 9z"/><path class="st4" d="M299.2 726.5 281 781.7"/><path class="st5" d="m230.4 331.4-77.9 18.2s-15.5 53.3-9.4 157.6 38.4 174.6 38.4 174.6l49.3-29.1c-6.1-14.4-18.2-56-18.2-159-.1-101.6 11.6-146 17.8-162.3z"/><path class="st3" d="m265.1 323.3-34.7 8.1c-6.1 16.3-17.9 60.7-17.9 162.3 0 103 12.1 144.6 18.2 159l29.5-17.4c-5.8-24-15.9-77.1-15.9-159.1-.1-84.8 13.7-133.2 20.8-152.9z"/><path class="st5" d="m310.7 312.7-45.6 10.6c-7.3 19.7-20.9 68.1-20.9 152.9 0 82 10.1 135.1 15.9 159.1l30-17.8 15.2-28c-6.2-17.1-15.5-53.2-19-122.1-3.8-79.1 14.5-132.3 24.4-154.7z"/><path class="st3" d="m362.4 300.6-51.7 12.1c-10 22.5-28.3 75.8-24.4 154.8 3.5 68.9 12.8 105.1 19 122.1l64.3-118-7.2-171z"/><path class="st6" d="M362.4 437.2s-33.6 88.8-45.8 100.3c-12.1 11.4-39.3 5.4-47.2 8.7-7.9 3.4-10.6 19.5-3.9 26.2 6.7 6.7 53.8-2.7 53.8-2.7s-31.6 8.1-52.6 64.6c-13.3 35.9-57.1 63.3-64.5 70.7-7.4 7.4 15.2 22.9 22.7 24.2 7.5 1.3 66.5-77.4 66.5-77.4s-61.6 145.4-98 176.3c5.4 9.4 20.2 12.8 30.3 12.8s53.8-22.2 74-68c31.6 4.7 51.1-15.5 51.1-15.5l.7-152.1 75.6-63.9S418 449.2 477.9 431s132.6-14.4 132.6-14.4L544.4 377l-172.7 19.9-9.3 40.3z"/><path class="st5" d="M149.1 303.3c-24.9 8.1-28.3 53.2-4.7 58.5 8.9 2 37.4-3.5 77.9-12.2l-8.5-59.5c-33.1 5.7-57.3 10.7-64.7 13.2z"/><path class="st3" d="m213.8 290.1 8.5 59.5c8.2-1.7 17-3.6 26.1-5.7l-6.1-58.8c-10 1.7-19.6 3.3-28.5 5z"/><path class="st2" d="m242.4 285.2 6.1 58.8c14.9-3.2 31.2-6.7 48.2-10.2l-5.1-56.5c-17.3 2.7-33.9 5.4-49.2 7.9z"/><path class="st3" d="m655.3 256-7.5 49.8c16.6 2.2 31.9 4.6 45.9 7.3l6.3-54.4c-14.3-1.1-29.4-2-44.7-2.7z"/><path class="st5" d="M809.3 272c-1.9-3.6-48.7-9.2-109.3-13.3l-6.3 54.4c49 9.2 81.7 19.5 90 19.5 17.5-.1 29.6-53 25.6-60.6z"/><path class="st2" d="m609 254-4.8 47.4c15.2 1.1 29.7 2.6 43.5 4.3l7.5-49.8c-15.1-.7-30.6-1.4-46.2-1.9z"/><path class="st3" d="M496.3 254c-55.7 2.6-135.5 12.8-204.8 23.3l5.1 56.5c56.4-11.6 122.5-24 188.3-30.7 42.8-4.4 83 3 119.4 5.5l4.8-54.6c-40.2-1.2-80.1-1.5-112.8 0z"/><path class="st2" d="M438.5 307.3c0-4 2.3-78.1 7.4-87.5s24.9-12.8 26.9 0c6.7-10.1 22.9-8.7 31 0 8.7-8.3 18.2-6.7 22.9 3.4 4.7 10.1 0 80.1 0 80.1l-51.8 29.2-36.4-25.2z"/><path class="st4" d="m503.7 219.8-2.7 57.6M470.1 283.7l2.7-63.9"/><path class="st3" d="M351.6 427.7c5.4-18.2-16.8-101.6-4.7-123.8 12.1-22.2 63.9-14.8 80.1 3.4 11.4-18.8 43.1-13.5 52.5 1.3 6.2-17.5 16.8-25.6 31.6-25.6s30.3 10.8 38.4 20.2c10.1-17.5 12.8-18.8 25.6-22.9 12.8-4 53.2 8.1 53.2 8.1L619.5 417s-53.2-2-68-2-26.9-10.8-36.3-22.2c-2.6 18.2-8.7 27.3-18.2 28.3-9.4.9-22.9 2.7-35.7-12.1 4.7 10.8-13.5 27.6-26.2 33-12.8 5.4-26.2 3.4-38.4-4.7 3.4 10.1-4 16.8-20.9 16.8-16.8-.1-29.5-8.2-24.2-26.4z"/><path class="st4" d="M579.8 334.9s4.7 43.1 0 53.8c-4.7 10.8-11.4 26.2-28.3 26.2M554.2 361.8s-18.2-34.9-4.7-58.5M518.5 320.1s2 41.1-3.4 72.7M485.7 374.6l-6.2-66M451.2 345s-3.1 53.8 10.1 63.9M434.4 402.8c0-18.2-18.2-53.2-18.2-63.9 0-10.8 2-21.5 10.8-31.6M386 334.9s6.7 25.6 2.7 50.5-2.6 46.4 8.1 51.8"/><path class="st2" d="M611.4 361.8s-16.8-49.7-8.1-65.9c8.7-16.3 70-27.6 74.7-8.1 4.7 19.5-5.4 39-5.4 74s33 82.8 33 82.8-74.7 26.2-86.8 9.4c-12.1-16.8-7.4-92.2-7.4-92.2z"/><path class="st4" d="M653.3 308.6c-25 53.8 7.3 128.5 7.3 128.5"/><path class="st2" d="M604 355.1c-4.7 6.7-3.4 20.2 0 25.6s76 4.7 80.1-3.8 4-25.2-3.4-27.9c-7.4-2.7-72-.7-76.7 6.1z"/><path class="st6" d="M325.4 851.7s22.3 39.7 37 37c14.7-2.7 23.6-44.4 23.6-44.4l39.2 4s-7.3 35-1.3 38.4c5.9 3.4 32.6 4.7 36.2-2 3.6-6.7-1.3-43.7-1.3-43.7l41.7-6.1s3.4 38.2 14.1 46.4c10.8 8.2 38.4-4.4 40.4-20.1 2-15.6-14-36.6-22.2-48.6l31-22.9s24.2 33.4 37.7 33.4c13.5 0 33-32.7 28.3-41.5-4.7-8.7-47.1-20.9-47.1-20.9l-241.6 58-15.7 33z"/><path d="M480.4 775c41.1-20.2 65.8-46.8 78.2-63l-124.2-76.7-61.9 13.7L358 789c23.9 4.2 75.9 9 122.4-14z" style="fill:#097f00;stroke:#000;stroke-width:8.0754;stroke-linecap:round;stroke-linejoin:round;stroke-miterlimit:10"/><path class="st2" d="M482.2 816.2c52.2-20.2 86.7-60.7 104.6-86.9l-28.1-17.4c-12.4 16.2-37.3 42.8-78.2 63-46.6 23-98.5 18.2-122.5 14.1l-3 28c23.8 9.3 71.2 20.7 127.2-.8z"/><path class="st3" d="m397 827.3-3.2 26.6c17.5 2.3 41.5 1.9 73.2-4.8l-4-26.6c-24.7 6.5-47.2 7-66 4.8z"/><path class="st3" d="m463 822.5 4 26.6c4.7-.9 9.6-2.2 14.5-3.4 2.6-.7 5.2-1.3 7.7-2.2l-7.9-27.1c-6.2 2.5-12.3 4.5-18.3 6.1zM579.2 786.8l-24.8-18.7c-4.3 4.3-8.9 8.5-13.7 12.7l23.4 21.1c5.7-5 10.7-10.1 15.1-15.1zM355 817.3l-2.3 21.7s11.3 11.3 40.9 15.1l3.2-26.6c-17.3-2.2-31.6-6.5-41.8-10.2z"/><path class="st3" d="m608 742.4-21.3-13.1c-7.7 11.2-18.4 25.2-32.3 38.9l24.8 18.7c20.9-23.6 28.8-44.5 28.8-44.5zM482.2 816.2c-.3.1-.5.3-.8.3l7.9 27.1c32.4-9.7 56.8-25.3 74.8-41.5L540.7 781c-16.1 13.6-35.6 26.4-58.5 35.2zM378.4 765.6c21 19.5 73.5 18.2 82.2-2.7 8.7-20.9-21.5-29.6-24.9-98.3-3-61.6-54.8 0-54.8 0s-23.5 81.5-2.5 101z"/><path class="st3" d="M338.9 748.1s-46.4-.7-64.6 30.3c-18.2 31-7.4 62.6 10.8 74 18.2 11.4 47.1 16.8 82.1-15.5s31-166.9 31-166.9l-39.7-46.4-28.9 19.5 9.3 105z"/><path class="st3" d="M316 635.3s18.2 134.2 12.1 146.3-23.6-1.3-26.9 4c-3.4 5.4-6.7 33 4 33s28.9 3.4 41.5-20.2C359 774.9 349 651 349 651l-33-15.7z"/><path class="st2" d="M355.7 574.5s-44.4 37.7-47.8 47.8c-3.4 10.1 6.7 25.6 17.5 17.5-5.4 16.2 16.8 27.6 23.3 19.5.3 18.8 22.5 24.9 35.9 8.1 6.7 20.2 38.8 17.5 42.5 2.7 4.6 19.5 27.5 8.7 27.5-.7 0-9.4-23.6-68-26.2-81.4-2.7-13.5-72.7-13.5-72.7-13.5z"/><path class="st4" d="m427.1 670-4-24.9M386 643.1l-1.4 24.2M348.7 659.2l13.7-19.5M344.6 615.5l-19.2 24.2"/><circle cx="398.1" cy="574.5" r="49.1" style="fill:#0086ff;stroke:#000;stroke-width:8.0754;stroke-linecap:round;stroke-linejoin:round;stroke-miterlimit:10"/><circle class="st2" cx="398.1" cy="574.5" r="21"/></svg>