<svg version="1.1" id="Calque_1" xmlns="http://www.w3.org/2000/svg" x="0" y="0" viewBox="0 0 900 900" style="enable-background:new 0 0 900 900" xml:space="preserve"><style>.st0,.st1,.st2,.st3,.st4,.st5{fill:red;stroke:#000;stroke-width:4.2412;stroke-linecap:round;stroke-linejoin:round;stroke-miterlimit:10}.st1,.st2,.st3,.st4,.st5{fill:#ffce00}.st2,.st3,.st4,.st5{fill:none}.st3,.st4,.st5{fill:#0079a3}.st4,.st5{fill:#fff}.st5{fill:#ff7300}.st6{fill:red}.st7{fill:#fff}.st11,.st8{fill:#381b44;stroke:#000;stroke-width:4.2412;stroke-linecap:round;stroke-linejoin:round;stroke-miterlimit:10}.st11{fill:#008215}</style><path class="st0" d="m414.1 546-29.5 119.2 110.6 23.1 9.5-113.7z"/><ellipse class="st1" cx="498.7" cy="644.6" rx="68" ry="41.4"/><path class="st1" d="m299.5 657.2-35-37.6-12.7 2.1 29.1 38.2z"/><path class="st2" d="M141.3 639c8.7-4 20.7-.8 39-7.2"/><path class="st1" d="M198.2 688.5s27.9-34.1 29.5-40.5c1.6-6.4.2-17.9.2-17.9l-18.6 5.3-19.1 42.9 8 10.2zM155.8 546.4c-2.3-.7-4.7-1.4-7.3-2-1.6 5.6-1.6 36.6-1.6 36.6l8.2 1.3c.5-6 1.5-20.6.7-35.9z"/><path class="st0" d="M181.8 562.7s-7-10.1-26.1-16.3c.8 15.3-.2 29.9-.7 35.9l26 4.2.8-23.8z"/><path class="st1" d="M182.6 546s-1.6 18.3-12.7 31.8c-6.6 8.1 2.5 11.3 11.1 12.6 3.2-8.7 9.5-27.8 10.3-44.9l-8.7.5z"/><path class="st0" d="M214.5 576.2c-1.6-8.7-14.6-31-14.6-31l-8.6.4c-.8 17-7.1 36.1-10.3 44.9 5.8.9 11.2.9 11.2.9s23.8-6.5 22.3-15.2z"/><path class="st0" d="M198.5 577.8s-30.2-3.2-39.8-1.6c-9.5 1.6-21.5 6.4-26.2 11.1s-6.4 23.9-6.4 23.9l-2.4 27.8 18.3 7.2s.8 12.7 7.2 15.9c6.4 3.2 33.4-6.4 45.3-13.5 11.9-7.2 28.6-19.1 28.6-19.1s28.6 26.2 28.6 34.2-20.1 26.2-21.2 38.2c-1.1 11.9 15.6 8 15.6 8l11.9 6.4s8.7-.8 11.9-8.7c3.2-8 1.1-18.3 3.4-25.4 2.4-7.2 14-13.5 18.8-13.5s9 10.3 10.6 0c.5-16.7-11.1-11.9-15.9-13.5S263 627.1 263 627.1l27-3.2 38.2-21.5 36.6-46.9-9.5-19.9-53.3 22.3-96.2 22.3-7.3-2.4z"/><path class="st3" d="M175 605.3c6.9-1.1 15.5-9.3 11.6-15.6-3.9-6.4-37.3-6.4-42.9 0-5.6 6.4-.8 15.9 7.2 16.7s17.2 0 24.1-1.1z"/><path class="st4" d="M231.2 701.8c-2.7 2.4-.8 25.4 1.6 34.2 2.4 8.7 10.3 24.7 27 25.4 0-8.7-13.5-17.5-15.1-28.6-1.6-11.1 1.1-19.1.3-25.4-.9-6.4-11.2-8-13.8-5.6z"/><path class="st4" d="M261.9 709c3.2 4.8 3.2 17.5 6.4 23.9 3.2 6.4 9.8 10.3 13 15.9-10.3 4.8-23.1-8-27-13.5-4-5.6-9-21.7-7.7-27.3 1.3-5.6 12.1-3.8 15.3 1z"/><path class="st4" d="M258.7 713c.3-5.6 7.4-8.7 11.4-5.6 4 3.2 0 8 4.8 13.5s11.9 8.7 19.1 14.3c-15.1 4-25.7-2.4-25.7-2.4s-9.8-14.3-9.6-19.8zM291.9 668.4c-2.4 3.2-.3 9.5-1.9 15.9-1.6 6.4-8.7 13.5-11.1 19.9 13.5 1.6 19.9-8.7 22.3-15.9 2.4-7.2 2.1-17 1.9-19.4-.4-2.3-8.9-3.7-11.2-.5zM173.1 599.2c-1.1-.4-3-.7-5.4-.7.2.5.3 1.2.3 1.7 0 3.4-2.7 6.1-6.1 6.1-3.4 0-6.1-2.7-6.1-6.1v-.3c-2.4.7-4.3 1.8-5 3.2-2.4 4.8 2.4 12.1 8 12.7 8.7 1 17.5-5.6 18.3-8.7.8-3.1 0-6.3-4-7.9z"/><path class="st4" d="M161.9 606.3c3.4 0 6.1-2.7 6.1-6.1 0-.6-.1-1.2-.3-1.7-3.7-.1-8.4.4-11.9 1.5v.3c0 3.3 2.7 6 6.1 6z"/><path class="st1" d="M128.6 655.7c4-1.6 0-13.5 12.7-16.7 5.6-.8 6.4 9.8 12.7 10.6 6.4.8 33.4-5.8 36.6-13 3.2-7.2 1.5-14.3-4-15.1-5.5-.8-7.9 4.8-28.6 7.2-9.5 1.6-23.1 0-23.1 0s-11.1 0-15.1 11.1c-4 13.5 0 16.7 8.8 15.9z"/><path class="st3" d="M134.9 628.7s7.4-12.7-9.3-15.9c-7.2-1.6-15.5 0-16.2 6.4-.8 7.2 5.6 8 5.6 8s-2.4 12.7 4.8 12.7c7.2-.1 15.1-11.2 15.1-11.2z"/><path class="st2" d="M120.3 618c5.8 9-5.2 9.1-5.2 9.1M180.3 631.8c-18.3 6.4-30.2 3.2-39 7.2 0 0 5.6-.8 0 0-12.7 3.2-8.7 15.1-12.7 16.7"/><path class="st2" d="M141.5 639c.1 0 .3-.1.4-.1-.2 0-.3.1-.4.1zM142.3 638.9c.2 0 .4-.1.5-.1-.1 0-.3 0-.5.1z"/><path class="st4" d="M155.5 636.5c-2.8.2-9.3.8-14 2.5-4.8 1.8-7.9 4.7-8.6 6 1.2 5.7 6.6 11.7 10.8 15.4 2.7-3.7 2.7-9 2.7-9s3.2 3.7 8.5 5.3c1.6-4.2-3.2-11.7-3.2-13.3 2.8-2 3.6-4.8 3.8-6.9z"/><path class="st2" d="M141.3 639h0zM141.3 639h.1-.1zM146.3 651.4c-4.7-4.1-4.9-12.4-4.9-12.4"/><path class="st0" d="M226.4 604c-11.1 6.4-18 15.4-25.2 32.9-7.2 17.5-12 27.8-16.8 31.8-4.7 4-43.9 2.1-52.7 5.3-8.7 3.2 2.4 13.5 2.4 13.5s20.4 1.6 25.2 4c4.8 2.4 29.7 1.6 29.7 1.6l-4.8 6.4s11.4 6.4 14.6 1.6c3.2-4.8-.5-23.1 2.7-29.4 3.2-6.4 25.7-35.8 28.9-44.5"/><path class="st4" d="M136.5 684.3s1.6-10.3-4.8-11.9c-6.4-1.6-25.4 9.5-19.9 29.4 6.4-1.6 10.3-9.8 16.7-10.6 6.4-.8 8-6.9 8-6.9z"/><path class="st4" d="M136.5 681.7c-4.8 1.1-12.2 15.4-13 22.5-.5 4.8 1.9 12.2 15.4 13.8-.8-6.6-4.2-10.6-2.7-15.4 1.6-4.8 13.3-14.8 13.3-14.8s-8.2-7.2-13-6.1z"/><path class="st4" d="M158.8 691.5c-4.8 7.2-3.2 11.9-5.6 18.3-13.5-9.5-11.7-18.8-4.8-23.1s13.3 0 10.4 4.8zM186.6 697.1c-7.9 9.5-19 9.5-24.6 14.3 16.7 13.5 36.3-5.3 36.8-9.3.5-4-7.4-7.4-12.2-5z"/><path class="st1" d="M228.4 633.9s29.7-3.7 56.7-10.1c27-6.4 42.9-19.1 42.9-19.1l20.7-30.2 14.3-21.2-9.5-7.4-38.2 37.6-73.2 36-15.4 5.8 1.7 8.6zM598.5 623.9c-15.9 7.2-28.6 16.7-28.6 16.7l.8 24.7 29.4-4 22.3-19.9 2.1-.7-9.9-26.4c-4.2 3.2-9.2 6.5-16.1 9.6z"/><path class="st4" d="m614.6 614.3 9.9 26.4 16-5.2-11.5-31.8c-5.2 3-9.3 6.8-14.4 10.6zM683.6 588.9c-6 2.3-13.4 4.1-20.7 5.6l10.6 30.3 12.5-4.1 8.7-11.9c.1 0 5.6-26.3-11.1-19.9z"/><path class="st3" d="M630.3 603c-.4.3-.9.5-1.3.7l11.5 31.8 33-10.7-10.6-30.3c-12.9 2.8-26 4.9-32.6 8.5z"/><path class="st2" d="m673.8 593.1 10.6 34.5M620.8 609.5l12.1 28.1"/><path class="st5" d="M751.5 637.4v-.1l-11.7-.5c-.1.6-.2 1.3-.2 1.9-1.6 13.5-5 20.9-17 36 12.7 4 21.2-12.2 21.2-12.2s-2.7 18 14.6 22.6c-6.4-24.6-7.7-30.2-6.9-47.7z"/><path class="st0" d="m753.3 601-11.6 11.7s-.5 11.3-1.9 24.1l11.7.5c.8-17.4 1.8-36.3 1.8-36.3z"/><path class="st5" d="M587.9 653.8c13-9.3 27.3-20.4 45-25.2 12.4-3.3 39.6-4.5 57.4-18.3 17.8-13.8.5 13.5.5 13.5s-13.5 12.7-46.1 17.2c-19.1 4-24.7 15.4-24.7 15.4s-39.5 3.5-32.1-2.6z"/><path class="st0" d="M690.8 623.9c4.8 3.2 33.4 2.4 39 0 5.6-2.4 20.7-13.5 20.7-13.5s7.2-4 4.8-11.9c3.2-9.5 3.2-15.9 1.6-18.3-1.6-2.4-18.3.5-27-.3s-15.1-4-22.3-4.8c-7.2-.8-20.1 10.6-23.3 13.8-3.3 3.2 1.7 31.8 6.5 35z"/><path class="st2" d="M755.2 598.4c-6.4 0-8-2.4-9.5-4.8"/><path class="st4" d="M700.3 593.7c-1.6-4 8.7-5.6 14.3-6.4 5.6-.8 15.1 1.6 15.1 5.6s-7.2 5.3-15.9 5.3-11.9-.5-13.5-4.5z"/><path class="st2" d="M709.9 588.1s-2.4 4.8.8 8.7M717.6 596.9c1.9-4.8.3-9 .3-9M713.1 610.9c4.8.4 16.2-4.5 24.4-4.7s13 4.2 13 4.2"/><path class="st4" d="M737.4 606.2c-2.3.1-4.9.5-7.6 1.1.6 3.1 1.6 10.1-.1 16.6 2.4 4 9.5-.5 9.5-.5s2.9.5 6.4 4.2c2.4-4.3 4.9-12.2 4.8-17.2-2.1-1.3-8-4.4-13-4.2z"/><path class="st2" d="M739.3 623.4s4.5-7.5.7-16"/><path class="st5" d="M499.4 716.9s12.5 6.4 20.4 4c8-2.4 18.3-8 18.3-8v9.5s-10.3 9.3-17.5 10.9-18.3-2.9-18.3-2.9l-2.9-13.5zM501.5 749.5s14.3 2.4 21.5 1.6c7.2-.8 15.1-7.2 15.1-7.2l6.4 1.6s-14 17-20.4 19.4c-6.4 2.4-17-1.1-17-1.1l-5.6-14.3zM463.4 759.9c-29.4-5.6-31-20.7-31-20.7l8.7-.8s6.4 7.2 22.3 8c15.9.8 8.7 9.5 8.7 9.5s20.7 9.5-8.7 4zM441.9 720.1s6.4 11.1 19.9 14.3 8.7-7.2 8.7-7.2-3.2-8.5-11.1-8.5c-8 0-17.5-9.8-17.5-9.8v11.2h0z"/><path class="st5" d="M457 699.4s-1.6 19.9 5.6 29.4 41.9 7.4 46.4.5 6.9-29.5 6.9-29.5l-28.6-9.9-30.3 9.5z"/><path class="st5" d="M465.7 755.1c-6.4-4-8-23.9-4-30.2 4-6.4 11.4-6.1 12.2-9.3s.5-13.8.5-13.8h24.7s-1.3 11.9.3 15.1c1.6 3.2 6.4 3.7 9.5 12.5s-1.9 25.7-1.9 25.7-34.9 4-41.3 0z"/><path class="st5" d="M460.2 773.4c-4-20.7 8.7-21.5 11.1-25.4s-.8-9.5.8-14.3c1.6-4.8 11.9-4.8 14.3-1.6 1.6-3.2 8.7-1.6 11.1.8 2.4 2.4 0 12.7 0 12.7s21.5 7.2 10.9 31c-8.7 18.3-44.3 17.5-48.2-3.2z"/><path class="st2" d="m486.4 732-.3 9"/><path class="st5" d="M484.6 765.4c-21.2 0-23.6 23.9-23.6 23.9s-4 14.9 4 23.9c4.8 4.8 29.2 6.1 36-.3s7.7-11.7 7.7-21.2c0-9.6-2.9-26.3-24.1-26.3z"/><path class="st5" d="M473.7 782.9s3.7-12.7-.3-15.1c-4-2.4-16 .2-18.3 5.3-3 6.4 4.2 13 4.2 13l14.4-3.2zM490.4 782.1s-3.2-12.2.8-14.6c4-2.4 16.6 1.5 18.8 6.4 3.3 7.5-5.3 11.4-5.3 11.4l-14.3-3.2z"/><circle class="st4" cx="467.3" cy="786.1" r="11.1"/><circle class="st4" cx="496.8" cy="785.3" r="11.1"/><circle class="st2" cx="467.3" cy="786.1" r="3.6"/><circle class="st2" cx="496.8" cy="785.3" r="3.6"/><path class="st5" d="M464.9 813.2c0-5.6 7.2-10.3 18.3-9.5s18.6.8 17.8 8.7c-.8 8-9 9.8-19.4 9.8-10.3-.1-16.7-3.5-16.7-9z"/><path class="st6" d="M492 814.5c-1.6-3.2-8-3.7-10.3-.5-2.4-3.2-8.2-2.4-9.8.8-.8 1.6-.5 6-.1 10h20.8c.1-4.4.4-8.1-.6-10.3z"/><path class="st7" d="M492.8 831.4c-.3-2.3-.3-4.6-.2-6.7h-20.8c.5 3.9 1.1 7.5 1.1 7.5s-9.5-.8-8.7 7.2c.8 3.2 4 8.7 8.7 8.7 4.8 0 10.3-4.8 10.3-4.8s2.4 6.6 8.7 6.6c6.4 0 11.4-1.9 11.4-8.2.1-6.3-2.6-9.5-10.5-10.3z"/><path class="st2" d="M481.6 814c-2.4-3.2-8.2-2.4-9.8.8-1.6 3.2 1.1 17.5 1.1 17.5s-9.5-.8-8.7 7.2c.8 3.2 4 8.7 8.7 8.7 4.8 0 10.3-4.8 10.3-4.8s2.4 6.6 8.7 6.6c6.4 0 11.4-1.9 11.4-8.2 0-6.4-2.7-9.5-10.6-10.3-.8-7.2.8-13.8-.8-17-1.5-3.2-7.9-3.7-10.3-.5z"/><path class="st2" d="M472.9 832.2c2.1 2.6 1.5 7.9-1.1 9M494 831.7c-4.2 1.1-3.7 8 .5 10.6M483.2 843.4l-1.6-29.4M486.6 715l.6-18M449 744.2c-2.7 4.2 0 10.6 0 10.6M455.3 719.3c-3.7 2.7-3.2 9.5-3.2 9.5M520.6 721.4c3.7 3.7.1 12 .1 12M521.1 752.7c2.7 4.8-.5 11.7-.5 11.7"/><path class="st3" d="M426.2 787.4c-1.6 3.2-69.4-6.1-71-9.3-1.6-3.2.8-36.6 4-37.4 3.2-.8 29.7 2.7 32.9 2.7 3.2 0 .3-16.2 3.4-17 3.2-.8 36.8 1.6 38.4-.8 1.2-1.7.6-20.1.3-30.2l-51.2-16-42.9 11.9-10.3 103.4L448.3 809l.8-56.5s-12-.7-20.7-1c-.3 9.7-.9 33.4-2.2 35.9z"/><path class="st0" d="M433.9 725.7c-1.6 2.4-35.3 0-38.4.8-3.2.8-.3 17-3.4 17-3.2 0-29.7-3.4-32.9-2.7-3.2.8-5.6 34.2-4 37.4 1.6 3.2 69.4 12.5 71 9.3 1.3-2.5 1.9-26.2 2.1-35.7-4.3-.1-7.9-.1-8.7.2-2.4.8.8 28.6-2.4 27.8-3.2-.8-50.9-7.2-51.7-10.3-.8-3.2-.3-15.6 2.9-16.2 3.2-.5 32.3 6.9 34.7 4.5 2.4-2.4-.5-17 1.9-19.4s38.4.8 40.8 0c1.6-3.2-1.6-39.8-1.6-39.8l-10.1-3.1c.5 10 1 28.5-.2 30.2zM545.3 803.6c3.2 0 82.2 1.3 84.5-1.1 2.2-2.4.6-36.3-2.5-37.1s-35 1.1-37.4-.5c-2.4-1.6.8-22.5-.8-24.9-1.6-2.4-37.1-1.6-39.5-3.2-2-1.3-2.5-27-2.6-36.4l-11.2-1.7s-.8 44.5 0 46.9c.8 2.4 40.6 1.6 40.6 1.6l1.6 28.6h40.6l2.4 15.9-69.2-.8-1.6-25.7-10.5-.2c.8 13.1 3.2 38.6 5.6 38.6z"/><path class="st3" d="m646.3 716.1-99.4-15.7c.1 9.3.6 35.1 2.6 36.4 2.4 1.6 37.9.8 39.5 3.2 1.6 2.4-1.6 23.3.8 24.9 2.4 1.6 34.2-.3 37.4.5 3.2.8 4.8 34.7 2.5 37.1-2.2 2.4-81.3 1.1-84.5 1.1-2.4 0-4.7-25.6-5.8-38.6l-22.8-.4s2.4 50.9 5.6 52.5c3.2 1.6 132 4 132 4l-7.9-105z"/><path class="st0" d="M359.9 697.5s-1.1 20.1 6.4 23.9c7.4 3.7 15.9.5 18.6-4.8 2.7-5.3-1.6-19.1-1.6-19.1h-23.4zM602.7 714s-.5 19.6 1.6 23.9c2.1 4.2 20.7 2.7 20.7-2.1s-4.2-21.2-4.2-21.2l-18.1-.6zM342.5 650.9c-10.3 2.4-18.3 31-1.6 35s85.1 10.9 147.9 13.3c62.8 2.4 156.1 12.2 163.3 8.2 10.1-8 13.3-36.6.5-40.6-19.7-3.2-102.6-6.1-160.6-12.5s-139.2-5.8-149.5-3.4z"/><circle class="st1" cx="459.7" cy="674.4" r="22.6"/><circle class="st1" cx="402.1" cy="670" r="22.6"/><circle class="st1" cx="515.8" cy="677.2" r="22.6"/><circle class="st1" cx="569.9" cy="680.4" r="22.6"/><circle class="st1" cx="628.8" cy="685.9" r="22.6"/><path class="st1" d="M653.4 655.7c-16.7-3.2-112.2-5.8-158.2-8.1-60-3.1-152.4-11.2-160.6-8.3-8.2 2.9-16.7 17.2-17.5 28.4-.8 11.1 5.7 24.8 23.1 29.4 23.9 6.4 108.1 7.4 158.2 9.8 50.1 2.4 101.8 11.7 153.5 11.7 10.4 0 22.3-17.5 23.9-29.4 1.5-12-5.7-30.3-22.4-33.5zm-1.3 51.7c-7.2 4-99.9-9-162.8-11.4-62.8-2.4-131.7-6.1-148.4-10.1s-8.7-32.6 1.6-35c10.3-2.4 80 .5 149.5 5.6 58.3 4.2 140.9 7.2 160.6 10.3 12.7 4 9.6 32.6-.5 40.6z"/><path class="st0" d="M375.8 668.9s1.1 12.7 3.7 13.3c2.7.5 44.5-38.7 44.5-44s-11.7-13.3-11.7-13.3l-18.6 14.3-17.9 29.7z"/><path class="st4" d="M345.7 608c-4.8-1.6-5.6.8-5.6 6.4-3.2 1.6-3.2 3.2-2.4 7.2-3.2 1.6-6.4 4.8-2.4 7.2-2.4 2.4-5.6 6.4-2.4 9.5 1.8 1 3.8 1.7 6 2.2l15.2-38.8c-2.8 2.4-6.1 5.1-8.4 6.3z"/><path class="st1" d="m366.7 584.3-7.5 12.6s-2.3 2.3-5.1 4.8l-15.2 38.8c11.3 2.5 26.8-2.7 36.2-17.3 10.7-16.8 17.8-23.3 18.2-23.8l-26.6-15.1z"/><path class="st4" d="M393.4 599.2v-31.8h-16.7l-10 16.9 26.7 14.9c0 .1 0 0 0 0z"/><path class="st2" d="M355.2 613.8c-3.7 1.6-10.6 1.6-15.1.6M354.6 620.1c-3.7 1.6-12.5 2.4-16.9 1.4M351.4 628.1c-3.7 1.6-11.7 1.6-16.1.6"/><path class="st4" d="M383.8 562.7s-20.9 38.7-24.9 42.7-13.3 2.7-13.3 2.7l14.3-34.2 13.5-22.3 10.4 11.1z"/><path class="st1" d="m415.1 623.3 31.2 1.6 3.2-28.1-32.9-2.1z"/><path class="st4" d="M353.6 647c-4.8 3.2-4.8 7.2-2.4 11.1-4 .8-5.6 4-3.2 8.2-4.8 2.1-5.6 4.5-3.2 7.7-4.8 4-4 8.5 0 10.9.8.5 3.3.1 6.7-1.1l9.8-38.1c-2.3-.1-5-.5-7.7 1.3zM397.4 573l-15.9 43.7s-2.1 4.1-4.8 9.1l33.8-.3 10-45.4-23.1-7.1z"/><path class="st1" d="M366.3 643.8c-1.4 1.7-3.1 2-5 1.9l-9.8 38.1c12-4.1 35.8-16.8 42-24.9 8-10.3 16.4-31.8 16.4-31.8l.3-1.5-33.8.3c-3.4 6.9-8.2 15.6-10.1 17.9z"/><path class="st2" d="M365.2 657.2c-8.5 2.7-14 .8-14 .8M362.6 664.7c-8.5 2.7-14.5 1.6-14.5 1.6M358.9 672.1c-8.5 2.7-14 1.9-14 1.9"/><path class="st0" d="M415.6 581.7s-11.1 40.6-8.7 44.5 8.7 4 11.1 0 6.6-41.4 6.6-41.4l-9-3.1z"/><path class="st4" d="M396.3 577s-14.8 60.4-17.2 63.6-12.7 3.2-12.7 3.2l22.3-70 7.6 3.2z"/><path class="st0" d="m425.2 548.3 1.6-67.6-10.3-2.4s-14.3 35.8-25 63.4l34 11.1c-.2-2.7-.3-4.5-.3-4.5z"/><path class="st4" d="M391.4 541.8c-6.4 16.4-11.4 29.9-11.3 31 .3 2.9 46.7 17 46.7 12.2 0-3.7-1-23.2-1.4-32.1l-34-11.1zM457.9 579.6l-8.9-3.4h-7.2s-13.5 23.9-9.5 55.7c6.3-.6 11.9-.8 17-.7-.5-7.6-.8-29.1 8.6-51.6z"/><path class="st0" d="m492.8 623.9-6.4-33.4-28.5-10.9c-9.4 22.5-9.1 44-8.6 51.5 13.5.2 22 2.3 22 2.3l21.5-9.5z"/><path class="st2" d="m432.3 607.2 43 8.7M433.1 624.9h7.9M433.6 616.4h8.5M434.1 598.4l6.9 2.6M437.9 589.9l7.9 2.7"/><path class="st7" d="M417.7 563.9c12.7 18.3 63.1 36.1 63.1 36.1l-9.5 33.4s83.5 30.2 96.2 24.7 34.2-31.8 37.4-39.8 4.8-26.2 0-36.6c-4.8-10.3-20.7-29.4-20.7-29.4l-132.8-58.8-39 18.5s-7.4 33.7 5.3 51.9z"/><path class="st6" d="m601.1 608.6-2.8-13.6 9-4.1c-.4-2.8-1.1-5.5-2-7.8l-8.6 4-2.7-13.5 4.7-2.1c-1.5-2.2-3.1-4.5-4.7-6.6l-1.5.7-.7-3.8c-4.1-5.4-7.4-9.4-7.4-9.4l-2.8-1.3 3.6 17.7-10 4.4-6.9-27.9-9.2-4.1 2.1 8.4c-1.1-1.5-3.1-2.2-4.9-1.4l-13.5 5.9-.7-2.7c-.5-2.1-2.7-3.4-4.9-2.9-2.1.5-3.4 2.7-2.9 4.9l1 3.9-15.4 6.7-8.2-28.1c-.6-2.1-2.8-3.3-4.9-2.7-2.1.6-3.3 2.8-2.7 4.9l.6 1.9c-.8-.2-1.6-.2-2.5.2l-14.8 6-3.8-12.7c.7-1 1-2.2.6-3.4-.4-1.3-1.3-2.2-2.4-2.6l-1.3-4.3c-.6-2.1-2.9-3.3-4.9-2.7-2.1.6-3.3 2.9-2.7 4.9l1.1 3.4-21.8 6.3-4-14.1c-.6-2.1-2.8-3.3-4.9-2.8-2.1.6-3.3 2.8-2.8 4.9l4 14.1-14.7 4.2-7.5-28.9c-.5-2.1-2.7-3.4-4.9-2.9-.1 0-.2.1-.2.1l-1 .5c-1.4.9-2.1 2.7-1.6 4.3l7.6 29.1-10.7 3.1c.4 2.7 1.1 5.2 1.9 7.7l10.9-3.1 4.8 18.4-4 1.6c4.3 3.6 9.6 7.1 15.3 10.2l-1.9-7.1 15-6 6.1 21.8-1.2.5c3.9 1.8 7.6 3.4 10.9 4.7l-.2-.7 21.9-9.5 6.7 22.2-14.6 6.5c-2 .9-2.9 3.2-2 5.2.6 1.5 2.1 2.4 3.7 2.4.5 0 1.1-.1 1.6-.3l13.7-6 4.3 14.5-18.9 8.7c3.3 1.1 7 2.4 11 3.7l10.2-4.7 2.7 8.9c6.6 2.1 13.4 4.1 20 5.9l7-3.4 1.6 5.7c3.1.8 6.1 1.5 8.9 2.1l-3.3-11.3 13.1-6.3 5.2 19.9c2.5.1 4.5-.1 5.8-.6.6-.3 1.3-.6 2-1l-5.7-21.7 16.5-8 4.3 17.2c2.2-2.3 4.4-4.6 6.5-7l-3.4-13.8 7.7-3.7 2 9.9c2.7-3.5 4.9-6.7 6.3-9.1l-.8-4.3 3.2-1.5c.7-2.8 1.3-6 1.6-9.6l-6.8 2.9zm-164.9-41.8-4.6-17.6 14.9-4.3 4.5 15.9-14.8 6zm123.1-11.4c1.3-.6 2.2-1.9 2.4-3.2l6 24.2-17.2 7.6-5.8-22.2 14.6-6.4zm-22 9.6 5.8 22.3-14.6 6.5-6.5-22.1 15.3-6.7zm-78.9-7.2-4.2-15.1 21.9-6.3 3.8 12.7-21.5 8.7zm8.2 29.2-6.1-21.6 21.6-8.7 6.3 20.8-21.8 9.5zm29.3-12.6-6.2-20.6 15.5-6.3c.5-.2 1-.6 1.4-1l6 20.6-16.7 7.3zm8.9 29.8-6.7-22.2 16.6-7.2 6.4 22.2-16.3 7.2zm2.3 7.7 16.3-7.2 4.1 14.2-16.1 7.4-4.3-14.4zm11.1 36.7-4.4-14.6 16-7.4L534 641l-15.8 7.6zm16.6-33.1-4.1-14 14.4-6.4 3.7 14-14 6.4zm6.4 22-4.1-14.3 13.7-6.3 3.7 14.2-13.3 6.4zm14.9-31.8-3.6-13.8 17.1-7.6 3.4 13.6-16.9 7.8zm5.7 21.9-3.7-14 16.8-7.7 3.4 13.8-16.5 7.9zM577 581l9.6-4.2 2.8 13.6-9 4.1L577 581zm8.7 35-3.4-13.7 8.6-4 2.8 13.8-8 3.9z"/><circle class="st6" cx="440.5" cy="554.9" r="3.2"/><circle class="st6" cx="466" cy="547" r="3.2"/><circle class="st6" cx="473.4" cy="570.3" r="3.2"/><circle class="st6" cx="500.9" cy="560.2" r="3.2"/><circle class="st6" cx="508.9" cy="586.7" r="3.2"/><circle class="st6" cx="483.4" cy="595.7" r="3.2"/><circle class="st6" cx="517.4" cy="615.9" r="3.2"/><circle class="st6" cx="523.7" cy="636.6" r="3.2"/><circle class="st6" cx="546" cy="628.1" r="3.2"/><circle class="st6" cx="539.6" cy="603.2" r="3.2"/><circle class="st6" cx="562.4" cy="594.7" r="3.2"/><circle class="st6" cx="568.3" cy="615.4" r="3.2"/><circle class="st6" cx="552.9" cy="649.3" r="3.2"/><circle class="st6" cx="575.2" cy="639.2" r="3.2"/><circle class="st6" cx="593.2" cy="627" r="3.2"/><circle class="st6" cx="587.9" cy="606.9" r="3.2"/><circle class="st6" cx="604.8" cy="598.4" r="3.2"/><circle class="st6" cx="600.1" cy="578.2" r="3.2"/><circle class="st6" cx="583.6" cy="584.1" r="3.2"/><path class="st2" d="M417.7 563.9c12.7 18.3 63.1 36.1 63.1 36.1l-9.5 33.4s83.5 30.2 96.2 24.7 34.2-31.8 37.4-39.8 4.8-26.2 0-36.6c-4.8-10.3-20.7-29.4-20.7-29.4l-132.8-58.8-39 18.5s-7.4 33.7 5.3 51.9z"/><path class="st2" d="M549.2 611.2c-8.9-1.7-22.7-3-35.7-5-17.2-2.8-32.7-6.1-32.7-6.1"/><path class="st4" d="m480.8 600-9.5 33.4s9.3 3.3 22.1 7.6l6.9-37.2c-11.1-1.9-19.5-3.8-19.5-3.8z"/><path class="st2" d="m482.4 637.4 7.2-34.2"/><path class="st1" d="m654.7 492.9-41.4 15.9-13.8-56.2 14.9-18.6 42.9 32.9z"/><path class="st3" d="M721 457.7c10.3-11.1 48.5-64.4 48.5-59.6s6.4 42.9 4.8 47.7c-3.2 10.3-108.1 116.1-121.7 138.6-2.4 2.4-35 3.7-45.3 2.1 37.4-55.6 103.4-117.7 113.7-128.8z"/><path class="st4" d="M725.2 454.5c3.2-7.2-2.7-6.6-8.2-6.6-1.4 0-3.4 1.3-5.8 3.4l10.2 8.4c1.7-1.8 3.1-3.5 3.8-5.2z"/><path class="st1" d="M711.2 451.3c-6.8 5.9-15.9 17.9-18.9 20.2-4 3.2-11.9 3.7-11.9 3.7l-13.1 16.3-1.2 17.9s14.3 4.8 24.7.8 17.5-18.3 17.5-18.3-6.4 2.4-4-9.5c1.9-9.2 11.5-16.5 17.2-22.7l-10.3-8.4z"/><path class="st4" d="M704.3 482.3c-3.2-.8-7.2 3.2-5.6 8.7-3.2.8-6.4 2.4-4 8-3.2 0-5.6 4.8-3.2 6.4-2.4 0-5.6 3.2-4.8 6.4.3 1.1 2.5 2.8 5.6 4.6 11.8-13.1 17-25.6 19.2-32.4-3.4-.8-6.2-1.4-7.2-1.7z"/><path class="st1" d="M732.9 491.1c-2.7-2.7-13.7-5.5-21.3-7.2-2.2 6.9-7.5 19.4-19.2 32.4 6.3 3.7 16.2 7.9 19.9 7.3 5.5-.7 24.6-28.5 20.6-32.5z"/><path class="st2" d="M719.4 496.6s-11.7-2.7-20.6-5.5M714.1 504.6s-10.3-2.7-19.3-5.5M709.8 510.9s-9.3-2.7-18.2-5.5"/><path class="st4" d="M658.2 458.5s-6.4-6.4-9.5-5.6c-3.2.8-13.5 38.2-8 52.5 3.2 3.2 9.5-5.6 9.5-5.6l8-25.4v-15.9z"/><path class="st0" d="m663.6 461.4-5.5-2.9s-13.5 15.9-8 41.4c2-.2 3.9-.4 5.6-.7-.6-6.4-1.4-22.5 7.9-37.8z"/><path class="st3" d="m676.5 468-12.8-6.7c-9.4 15.3-8.6 31.5-7.8 37.8 5.4-.8 9.5-1.7 9.5-1.7l11.1-29.4z"/><path class="st2" d="m639.3 496.1 8.5-1.1M640.9 482.8h6.4M643 470.6l5.9 1.6"/><path class="st1" d="M641.5 544.4c4.8 2.4 10.3 3.2 11.9-.8 1.2-2.7 2.9-6.8 4.8-11.7l-9.9-2.8c-2.7 6.7-5.1 12.1-6.8 15.3z"/><path class="st0" d="M676.5 455.3s-17 46.9-28.1 73.8l9.9 2.8c10.2-25.1 28.6-71.8 28.6-71.8l-10.4-4.8z"/><circle class="st3" cx="667.3" cy="491.5" r="9.1"/><circle class="st3" cx="674.9" cy="475.2" r="9.1"/><path class="st6" d="M633.9 537.3c-4.4-15.2-10.1-43.4-7.5-82-43.7-11.9-132-33.4-132-33.4l-47.7 48.5-28.9 11.3-4 16.4c11.2 6.7 73.2 42.5 121.2 48.2 41.8 5.2 83.3-4.7 98.9-9z"/><path class="st7" d="M534.9 546.4c-48-5.8-110-41.6-121.2-48.2l-3.9 15.9s61 45.4 138.4 45.4 90.1-9.5 90.1-9.5-2-4.4-4.4-12.7c-15.6 4.3-57.1 14.2-99 9.1z"/><path class="st2" d="m432 525.8 3.7-7.5M441 529.5l3.2-7.4M451.6 534.2l2.7-7.9M460.7 538l1-6.4M467.5 542.2l1.6-6.9M475 545.9l1.6-7.4M487.2 549.1l.5-7.4M496.2 552.3l.5-9M595.3 557l-.5-6.8M604.3 555.5v-6.9M613.9 554.4l-.6-7.4M622.9 551.7l-1.6-5.8M630.3 550.7l-1.1-6.4M409.8 514.1s61 45.4 138.4 45.4 90.1-9.5 90.1-9.5-18-35-14-94.6C580.6 443.5 494.4 422 494.4 422l-47.7 48.5-28.9 11.3-8 32.3z"/><path class="st3" d="M165.1 466.4c-8 0-6.9 7.7.3 9.3 7.2 1.6 89.6 33.7 105.5 36 15.9 2.4 41.4-4 41.4-4l-8.7-19.9-11.9 4.8s-14.3 3.2-31-1.6-87.6-24.6-95.6-24.6z"/><path class="st3" d="M168.3 503.8c-4.8 1.6-3.2 9.5.8 8.7 51.7 1.6 62 8.7 85.1 11.9s36.6 5.6 36.6 5.6l14.3 5.6 19.9-16.7-18.8-14s-31.3 5.8-53.5 3.4c-22.3-2.4-79.6-6.1-84.4-4.5z"/><path class="st3" d="M171.5 542c-5.6 2.4-2.3 10.3 6.4 8 8.7-2.4 105 4 120.1-.8 15.1-4.8 34.2-19.9 34.2-19.9l-15.9-19.1s-8.7 19.1-31 20.7c-22.3 1.5-108.2 8.7-113.8 11.1z"/><path class="st3" d="M192.2 578.6c-5.6 3.2-8 12.7 0 12.7s108.4-15.1 125.9-27 28.4-25.4 28.4-25.4l-14.3-13.5s-12.7 16.7-37.4 25.4-97 24.6-102.6 27.8z"/><path class="st3" d="M212.9 627.1c-4 4.8-1.6 8.7 8.7 7.2 10.3-1.6 75.5-31 94.6-44.5s43.7-39 43.7-39-7.2-21.5-13.5-11.9-31 30.2-42.9 39c-11.9 8.6-86.7 44.4-90.6 49.2z"/><path class="st3" d="M240.7 659.4c11.1-21.2 48.5-34.7 72.4-56.2s36.6-31.8 46.9-52.5c10.3-20.7 24.7-15.1 18.3 5.6-6.4 20.7-35.3 49-52 57.8-16.7 8.7-57.8 29.7-74.5 49.6-1.6 3.1-12.7.5-11.1-4.3z"/><path class="st0" d="m317 470.4-.5.5 87.7 65 12.1-20-83.9-64.6c-6.6 8.5-12.8 16.3-15.4 19.1z"/><path class="st1" d="M291.6 492.7c0 4.8 4 10.3 10.3 9.5 1.6 11.9 12.7 11.9 12.7 11.9s-.8 11.9 14.3 13.5c.8 8 12.7 9.5 12.7 9.5s1.6 8.7 11.9 8.7c2.4 9.5 14.3 8 14.3 8s1.6 7.2 8 5.6c.8 8 10.3 6.4 10.3 6.4l18.1-29.9-87.7-65c-6.7 7.2-24.9 17.2-24.9 21.8z"/><path class="st4" d="m445.9 428.3-57.3-31.8-35 27.8s-11 14.2-21.2 27l83.9 64.6 22.6-37.4 7-50.2z"/><path class="st2" d="m375.9 559.5 10-15.2M314.3 487.1l-12.4 15.1M327.1 499.3l-12.5 14.9M339.8 510.9 329 527.7M351.4 521l-9.7 16.2M364.7 527.9 353.6 546M375.8 538.5l-7.9 15.4"/><path class="st3" d="M437.1 452.9c-10.3 20.7-10.3 97-9.5 101 .8 4-6.6 3.9-8-2.4-5.1-24.2-6.7-69.2-5.1-82 1.6-12.7 17-28.6 17-28.6s15.9-8.7 5.6 12z"/><path class="st3" d="M410.9 449.7c-5.8 16.7-15.9 82.7-15.9 91.4s9.5 8.7 10.3 1.6c8.7-35 23.9-96.2 23.9-96.2l-4-19.9c0 .1-8.5 6.4-14.3 23.1z"/><path class="st3" d="M387 454.5c-3.2 12.7-9.5 71.6-9.5 75.5s9.5 6.4 10.3-1.6 11.9-67.6 37.4-87.5c25.4-19.9-11.9-23.1-11.9-23.1s-23.1 24-26.3 36.7z"/><path class="st3" d="M388.1 424.3c-5.8 11.1-32.1 80.3-33.7 86.7-1.6 6.4 7.7 11.1 12.5 2.4s28.1-71.6 47.2-84.3c19.1-12.7-6.4-19.1-6.4-19.1s-13.8 3.2-19.6 14.3z"/><path class="st3" d="M387 399.6c-6.4 9.5-49.3 72.4-55.7 93.8-.8 5.6 10.3 7.2 13.5 1.6 15.1-25.4 48.5-72.4 58.1-78.7 9.5-6.4-4.8-23.9-4.8-23.9s-4.7-2.3-11.1 7.2z"/><path class="st3" d="M370 395.7c-7.2 4-57.8 69.2-61 74s8 11.1 11.1 5.6c3.2-5.6 50.1-63.6 74-74 23.9-10.3 1.6-11.9 1.6-11.9s-18.5 2.3-25.7 6.3z"/><path class="st3" d="M389.4 392.5c-24.7 5.6-93 66-97 66.8s-6.1-4.5-4.5-10.1c1.6-5.6 61.2-60.7 70-66.3s15.6-18.3 15.6-18.3l25.4-1.6c0 .1 15.2 24-9.5 29.5z"/><path class="st3" d="M273.3 413.2c-3.2 5.6 2.4 12.7 5.6 11.1s58.1-37.4 105-50.1c46.9-12.7 2.4-21.5 2.4-21.5s-19.9-7.2-32.6 5.6c-12.8 12.8-77.2 49.3-80.4 54.9z"/><path class="st3" d="M261.1 387c-3.2 4 3.4 7.2 8.2 7.2 15.1 0 41.4-29.4 112.1-36.6 61.2-6.2 4-14.3 4-14.3s-23.1-5.8-41.4-1.1-79.7 40.8-82.9 44.8z"/><path class="st3" d="M255.8 350.4c-2.4 3.2 1.6 7.2 14.3 8 12.7.8 37.4-9.8 47.7-11.4 10.3-1.6 66-.5 66-.5L383 325s-35-3.2-46.9-1.6c-11.9 1.5-77.9 23.8-80.3 27z"/><path class="st3" d="M257.9 315.4c-3.2 2.4 11.4 11.9 17 11.9s76.3-5.6 106.6 1.6 3.2-16.7 3.2-16.7l-39-7.2s-29.7 5.6-44.8 7.2c-15.1 1.6-39.8.8-43 3.2z"/><path class="st3" d="M264.6 275.4c-6.4.8 3.2 10.6 9.5 13S381.4 317 381.4 317l9.5-17.5-13.5-8.7s-2.2 3.1-11.7 3.9c-9.5.8-94.8-20.1-101.1-19.3z"/><path class="st3" d="M273.3 243.8c-3.2 1.6-3.4 8-.3 11.1 3.2 3.2 93.3 43.7 110.8 48.5 17.5 4.8 8-9.5 8-9.5l-10.3-23.1s-5.4 6.6-14.1 4.2-90.9-32.8-94.1-31.2z"/><path class="st3" d="M283.6 211.2c.8 4.8 80.3 66 103.4 74 23.1 8 9.5-15.1 9.5-15.1l-15.9-22.3s2.4.8-11.9 0-70-40.8-75.5-41.6c-5.6-.8-10.4.3-9.6 5z"/><path class="st3" d="M299.3 178.4c5 17 82.2 75 93.3 92.5s11.1-18.3 11.1-18.3l-22.3-31s3.2 13.5-8 7.2-59.6-49.3-64.4-51.7c-4.7-2.5-10.5-1.9-9.7 1.3z"/><path class="st3" d="M316.2 152.4c17.5 23.1 31.8 47.7 39 54.1 7.2 6.4 35 41.4 45.3 48.5 10.3 7.2 11.9-10.3 11.9-10.3l-31.8-42.9s-.6-1.9-8.5-1.9c-13.5-12.7-42.4-47.7-45.5-49.3-3.2-1.7-10.4-2.2-10.4 1.8z"/><path class="st3" d="M344.9 132.5c-.8 4 16.4 36.6 22 56.5s32.9 51.7 40.8 55.7c8 4 12.7-3.2 12.7-3.2L395 197.7s-12.7-11.9-17.5-19.9c-4.8-8-17.2-39.5-21.2-44.3-4-4.7-10.6-5-11.4-1z"/><path class="st3" d="M368.7 123c-.8 4 9.5 46.1 15.1 74.8 3.2 13.5 31.8 39 31.8 39s17.5-3.2 12.7-8-27.8-28.5-31.8-37.7c-4-9.2-11.9-59.3-14.3-63.2-2.3-4.1-12.7-8.9-13.5-4.9z"/><path class="st3" d="M392.3 113.2c-1.6 3.2 4.2 24.9 10.6 61.5 6.4 36.6 18.3 53.3 18.3 53.3l13.5-14.3-10.3-60.4-8-14.3s-5.8-14.6-10.6-20.1c-4.7-5.7-11.9-8.9-13.5-5.7z"/><path class="st3" d="M433.1 220.8c-17.5-58.8-18.3-109.7-16.7-112.1 1.6-2.4 9.5 3.2 10.3 8 .8 4.8 12.7 70.8 22.3 81.1 5.6 9.5 2.4 15.1 2.4 15.1s-13.5-3.3-18.3 7.9z"/><path class="st1" d="M440.3 458.5s-10.3-4-11.1-11.9c-9.5-3.2-8-10.3-8-10.3s-9.5-.8-10.3-11.1c-8-.8-12.7-8-10.3-15.1-5.6-.8-10.3-7.2-7.2-11.9-7.2-.8-9.5-10.3-8-17.5-6.4-4.8-6.4-19.1-4-23.1-3.2-4.8-1.6-15.1-.8-19.1-5.6-6.4-2.4-19.1.8-21.5-3.2-4.8-1.6-14.3 2.4-17.5-2.4-5.6 0-18.3 6.4-20.7-2.4-6.4 1.6-13.5 7.2-15.9-.8-7.2 2.4-16.7 10.3-18.3.8-8 4-13.5 11.9-13.5-.8-7.2 2.4-16.7 10.3-16.7-1.6-7.2 6.4-11.9 15.9-12.7 0-6.4 4-10.7 11.9-10.7 2.4-3.6 11.9-6.8 15.9-6s10.3 24.7 10.3 24.7l2.4 138.4 3.2 79.5-49.2 30.9z"/><path class="st2" d="m457.8 191 8.7 13M445.9 201.7l11 11.3M430 214.4l13.7 9.2M419.6 231.1l11.9 8.4M407.7 244.6l15.8 6.5M397.4 262.9l17.1 3.6M389.6 277.7l18.6 3.7M383.8 299.5l20.1 1M381.4 317l19.9-1.2M380.7 338.5l19.5-3.1M385.4 380.6l18-8.6M393.4 398.1l15.3-11.2M399.2 411.3l16.4-13.3M410.8 424l11.7-15.4M421.2 436.2l13.5-15.9M428.8 445.2l10.6-11.2M381.4 357.5l18.3-3.5"/><path class="st0" d="M463.4 432c-7.2.8-8-2.1-9.3-6.1-5 .8-11.1-5.6-10.9-13.5-6.9 0-11.7-4.8-13.3-11.9-6.4-4-6.4-6.4-8-12.7-6.4-4-8.7-11.9-6.4-21.5-5.6-4.8-5.6-11.1-3.2-16.7-4-4-4.8-13.5-1.6-19.9-2.4-6.4-1.6-13.5 3.2-18.3-2.4-7.2-.8-16.7 7.2-20.7-3.2-7.2-.8-15.1 5.6-19.1-2.4-8 0-14.3 9.5-17.5.8-7.2 1.6-11.9 11.9-12.7 0-7.2 6.4-11.1 11.9-11.1.8-7.2 4-11.1 11.1-11.1.8-7.2 8.7-10.3 12.7-9.5 4 .8 9.5 15.9 9.5 15.9l-13.5 105 8.7 80.3c.3-.1-18 20.3-25.1 21.1z"/><path class="st2" d="m471.3 219.2 5.8 6M460.2 230.3l4.7 3.9M448.2 241.4l5.6 2.9M436.3 254.2l6.9 2.8M426.8 271.7l7.9.7M421.2 290.8l5 .6M414.1 311.4l7.9.2M410.9 329.7l9.5-1.2M412.5 349.6l10-4.1M415.6 366.3l10.6-5.4M422 387.8l10-8.4M430 400.4l11.6-8.8M443.2 412.4l9-10.7M454.1 425.9l8.1-13.1"/><path class="st3" d="m518.2 255.8-24.7-30.2c-22.3 8-62 42.1-65.2 96.2-3.2 54.1 49.3 92.2 49.3 92.2l43.7-43.7 6.4-87.5-9.5-27z"/><path class="st1" d="M612.1 464.9s2.4 19.1 7.2 19.9 15.4-3.2 13.7-10.3c-1.7-7.2-10.5-15.1-10.5-15.1l10.5-7.2s4.6 15.4 11 15.4 15.9-5 12.7-12.2c-3.2-7.2-13.5-13.5-13.5-13.5l-19.1 2.4-12 20.6z"/><circle class="st1" cx="632.3" cy="500.3" r="9.9"/><path class="st3" d="M496 167.5s-6.4-17-25.4-28.1c-19.1-11.1-33.9-19.6-38.7-27.6s.5-10.3 5.3-8 27.8 21.5 36.6 23.9c32.6 8 32.6 35 32.6 35l-10.4 4.8z"/><path class="st3" d="M441.9 86.4c.8 3.2 32.9 31.5 43.2 38.7 10.3 7.2 21.2 37.6 21.2 37.6l11.1-4.8s-11.1-34.2-19.9-41.4c-19.1-13.5-46.4-32.6-50.4-33.4-3.9-.7-6 .1-5.2 3.3z"/><path class="st3" d="M464.1 72.1c.8 6.4 26.5 30.5 31.3 36.8s22 49 22 49l10.3-4s-7.7-43.2-17.2-48.8c-29.7-22.8-36-37.9-40-38.7-4-.7-7.1-.7-6.4 5.7z"/><path class="st3" d="M490.4 56.2c-1.6 6.4 7.2 37.4 19.1 53.3s18.3 44.5 18.3 44.5l9.5-2.4-3.2-36.6s-1.6-4.8-12.7-11.9c-19.1-17.5-20.4-47.4-23.6-49-3.2-1.6-5.8-4.3-7.4 2.1z"/><path class="st3" d="M546.1 150.8S538.9 111 535 99.9s-8.2-44.8-8.2-48-6.1-2.1-8.5 1.1c-2.4 3.2.8 47.4 7.2 59.4s11.9 39.2 11.9 39.2l8.7-.8zM681.2 187.4s14.3-10.3 43.7-11.1 45.3 2.4 49.3 0 3.2-7.2 0-8.7c-3.2-1.6-34.2-2.4-51.7-2.4s-30.2-1.6-30.2-1.6l-27 14.3 15.9 9.5z"/><path class="st3" d="M674.9 180.2s24.7-13.5 42.1-19.9c17.5-6.4 46.4-8.7 49.6-11.1s2.9-7.7-3.4-6.9c-6.4.8-45.1 2.4-61.8 8.7-16.7 6.4-37.6 20.4-37.6 20.4l11.1 8.8z"/><path class="st3" d="M656.6 165.1s35-29.4 45.3-35c10.3-5.6 30.2-4.8 51.2-12.2 3.2-1.6 5.6 7.7.8 8.5s-34.5 12.5-45.6 17.2c-11.1 4.8-42.5 30.2-42.5 30.2l-9.2-8.7z"/><path class="st3" d="M646.3 157.2s25.7-20.4 41.6-30 39.5-34.5 42.7-35.3c3.2-.8 5 8 1.9 11.9-3.2 4-25.7 24.7-36.8 31-11.1 6.4-41.4 33.4-41.4 33.4l-8-11z"/><path class="st3" d="M642.3 162.7s41.1-29.2 44-36.6c12.5-30.2 27.6-43.2 28.1-47.4s-5.6-9.3-8.7-7.7c-3.2 1.6-26.5 44-31.3 51.2-4.8 7.2-22.5 14.3-30.5 31s-1.6 9.5-1.6 9.5z"/><circle class="st1" cx="585" cy="478.4" r="11.1"/><circle class="st1" cx="591.4" cy="505.4" r="11.1"/><circle class="st1" cx="591.4" cy="535.6" r="11.1"/><circle class="st1" cx="575.5" cy="553.9" r="11.1"/><circle class="st1" cx="514.2" cy="546.8" r="11.1"/><circle class="st1" cx="501.5" cy="520.5" r="11.1"/><circle class="st1" cx="505.5" cy="494.3" r="11.1"/><circle class="st1" cx="509.5" cy="464.1" r="11.1"/><path class="st3" d="M520.6 452.9s-15.9 63.6-15.1 74.8c9.5 28.6 67.6 27.8 76.3 11.9 4.8-11.1 1.6-72.4 1.6-72.4l-62.8-14.3z"/><circle class="st1" cx="547.6" cy="478.4" r="11.1"/><path class="st4" d="M530.9 557.9s-10.3 18-9.5 25.2c2.4 13 42.7 11.1 44.3 0 1.6-11.1-2.9-25.2-2.9-25.2h-31.9z"/><path class="st2" d="M538.1 560.3s-1.3 14.3-1.3 19.1 9.5 4.8 11.1 0 .3-19.9.3-19.9l-10.1.8z"/><path class="st4" d="M567.5 551.5c-21.5 9.5-36.6 3.2-44.5-1.6 0 0-3.2 5.6-4 9.5s10.9 8 12.5 5.6c2.4 3.2 8 3.2 11.1.8 4 2.4 11.1 1.9 13-.5 4.2 1.6 15.1-.3 14.3-4.2-.8-4-2.4-9.6-2.4-9.6z"/><path class="st2" d="m531.5 565 2.3-10.1M542.6 565.8l-.3-9.8M555.6 565.3l-1.6-8.8"/><path class="st0" d="M545.5 548c-11.8-.6-18.1-4.8-21.2-7.8-.5 3.1-.9 6.4-1.3 9.7 8 4.8 23.1 11.1 44.5 1.6-.3-3.2-.5-6.1-.6-8.9-3.6 2.9-10.2 6.1-21.4 5.4z"/><path class="st3" d="M528.6 519.7s-2.5 9-4.3 20.5c3.1 3 9.4 7.1 21.2 7.8 11.2.6 17.8-2.6 21.4-5.4-1-14.1-1-21.4-1-21.4l-37.3-1.5z"/><circle class="st1" cx="546.2" cy="512.7" r="22.6"/><circle class="st5" cx="546.2" cy="512.9" r="7.5"/><path class="st1" d="m609.7 406 52.5-7.9 26.2-15.1-15.9-31h-28.6L597 373.5zM766.3 318.8c-4.8-5-11.7-3.7-15.6-1.3-4.2-3.7-7.4-2.9-11.4-2.1-4 .8-14.3 28.6-22.3 37.4-8 8.7-15.1 16.7-15.1 16.7l14.3 21.5s12.2 2.4 17.8-4c16.4-33.4 38.9-46.2 31.8-49 2.4-3.2 5.3-8 10.1-8.7 1-.2 2.1-.2 3.1-.1l.5-11.4c-4.7-.4-10-.2-13.2 1z"/><path class="st4" d="M787.8 318.6c-1.7-.3-4.8-.7-8.3-.9l-.5 11.4c3.9.2 7.7 1.5 9.6-.4 2.4-2.4 3.2-9.3-.8-10.1zM765.8 337.9c-4.8-2.3-7.5-1.7-14.4 5.6l7.8 6.8c6.5-7.3 10-11 6.6-12.4z"/><path class="st2" d="M745.3 323.2s1.6-4.7 5.4-5.8M758.1 324.8c1.1-3.2 5.8-4.8 8.3-6M736.9 360.4c19.1-22.8 21.7-26 28.9-22.5"/><circle class="st1" cx="661.4" cy="355.2" r="9.5"/><circle class="st1" cx="663" cy="394.1" r="9.5"/><path class="st4" d="M675.7 394.9c.8-4 2.4-42.9 0-46.9s-3.7-4-8.5-2.4-5 51.7-1.1 53.3 8.8-.1 9.6-4z"/><path class="st2" d="m665.8 352.4 9.6 1.1M664.8 366.2l10 .5M665.3 377.3l9.5 1.1M664.8 391.6l9-1"/><path class="st0" d="M675.7 348v46.9l8.6-.3 1.9-45.9z"/><path class="st3" d="m706.7 379-8-29.4-12.5-.9-1.9 45.9 16-.5z"/><path class="st0" d="M714.6 417.1c-1.6-14.3.5-87.5-1.9-89.9-2.4-2.4-11.7-2.4-14 0-1.8 1.8-2.1 60.6-1.1 90.9h17.1c0-.3-.1-.6-.1-1z"/><path class="st1" d="M697.6 418.1c.3 9.8.8 16.6 1.4 17.5 2.4 4 16.4 5.3 22.8 2.9-1.5-4.7-5.4-7.1-7.1-20.5h-17.1z"/><circle class="st3" cx="707.1" cy="385.2" r="13.9"/><circle class="st3" cx="706.7" cy="358.3" r="13.9"/><path class="st8" d="M634.5 319.5s16.4-.5 18.6-6.4c2.1-5.8 0-32.9 0-32.9L573 257.5l-49.8 24.9-23.9 64.7 34.5 17.5 73.7-15.4 27-29.7z"/><path class="st2" d="M561.4 334.9c3.7-7.4 5.3-17.5 9.5-25.4"/><path class="st2" d="M551.3 332.8s13.4-35.6 20.7-37.6c3.7-1.1 20.7-.5 20.7-.5"/><path class="st2" d="M548.1 315.3s9.5-23.9 20.7-28.6c11.1-4.8 72.1 1.1 77.4 5.3 5.3 4.2-.5 24.9-.5 24.9"/><path d="m568.8 351.9 84.3 6.1c.4-1.6.4-3.7-.3-6.1-2.4-8.7-11.9-13.5-20-31.8 3-1.6 6.2-4 7.8-8.7 1.6-4.8 1.1-11.4-1.3-14.6-2.4-3.2-47.2-3.7-57.5.3-10.3 4-13.5 14.3-10.3 25.4 3.2 11.1-2.4 23.1-2.4 23.1l-22.3 19.9 2.4 29.4 29.4 23.1s28.4-12.5 33.9-12.5l-51.2-39.3 7.5-14.3z" style="fill:#ffce00"/><path class="st6" d="M624.8 397.3c0-4.8 5.1-7.4 8.1-8.2 3-.8 5.4 1.1 8.6-.5 3.2-1.6.8-10.3.8-10.3s.8-12.7 4-13.5c2.3-.6 5.9-2.4 6.9-6.6l-84.4-6.1-7.4 14.3 51.2 39.3c5.6-.2 12.2-3.7 12.2-8.4z"/><path class="st4" d="M600.1 329.7s7.2-8 15.9-7.2c8.7.8 11.1 5.6 11.1 5.6s-7.2 6.4-11.9 6.4-15.1-4.8-15.1-4.8z"/><circle class="st2" cx="614.9" cy="328" r="4.2"/><path class="st1" d="M637.5 345.9c-7.2-2.7-16.3 4.3-13.5 10.1 2.6 5.5 7.8.2 13.9 1.5 4 .9 3.6 7.3 8.4 7.3s9-4 6.6-12.7c-2.4-8.7-11.9-13.5-20-31.8"/><path class="st4" d="m644.7 368.7-23.9-4s-4 9.5-1.6 10.3c2.4.8 19.1 3.4 23.1 2.7 4-.8 2.4-9 2.4-9z"/><path class="st2" d="m626.1 374.7 1.5-8.5M635.1 375.2l.5-6.9M612.6 405.5c5.6 0 12.2-3.4 12.2-8.2 0-4.8 5.1-7.4 8.1-8.2 3-.8 5.4 1.1 8.6-.5 3.2-1.6.8-10.3.8-10.3s.8-12.7 4-13.5c3.2-.8 9-4 6.6-12.7-2.4-8.7-11.9-13.5-20-31.8 3-1.6 6.2-4 7.8-8.7s1.1-11.4-1.3-14.6c-2.4-3.2-47.2-3.7-57.5.3s-13.5 14.3-10.3 25.4-2.4 23.1-2.4 23.1l-22.3 19.9 2.4 29.4 29.4 23.1c0-.3 28.3-12.7 33.9-12.7z"/><path d="M585.8 332.3s-2.7-15.4 5.8-20.1 29.7-4.8 31.3-3.2c1.6 1.6 1.1 5.3 1.1 5.3" style="fill:none;stroke:red;stroke-width:5.3014;stroke-linecap:round;stroke-linejoin:round;stroke-miterlimit:10"/><path class="st4" d="M634.3 433c-5.9 8.6-23.2 28.2-58.1 26.3-37-2-66.9-24.2-75.9-31.8l-4.4 11.6s23.6 26.8 72.1 30.7c48.5 4 64.8-14.6 75-28.1-3.2-2.8-6-5.8-8.7-8.7z"/><path class="st0" d="M634.3 433c-4-4.3-7.4-8.5-10.3-12.4-5 6.1-18.7 18.2-50.1 18.8-31.2.6-56.4-18-67.4-27.7l-6 15.9c9.1 7.5 38.9 29.7 75.9 31.8 34.7 1.8 52-17.8 57.9-26.4z"/><path class="st3" d="M573.9 439.4c31.4-.6 45.2-12.7 50.1-18.8-6.9-9-11.4-16-15.1-17.8-6.4-3.2-41.4-4.8-51.7-9.5S527 375 527 375l-13.5 18.3-7 18.4c10.9 9.7 36.2 28.3 67.4 27.7z"/><path class="st8" d="M512.1 363.5C497.8 389.8 423.6 472 418 476c.8 4 15.1 32.6 41.4 32.6 25.4-41.4 83.5-140 83.5-140l-8.7-13.5c-.1.1-7.8-17.7-22.1 8.4z"/><path class="st2" d="m451.1 505.1 74.2-118.2M440.5 501.4l82.7-124.6M431 494l87.4-118.8M424.6 486l87.5-111.9"/><path class="st7" d="M571 163.1c2.5 7.6 4.5 13.9 4.5 13.9l12.7 16.7 16.7-15.1s2.5-4.5 6.6-10.8c-3.8-3.1-16.1-10.5-40.5-4.7z"/><path class="st6" d="M568.3 155c1 2.7 1.9 5.5 2.7 8.1 24.4-5.9 36.7 1.6 40.5 4.7 1.4-2.1 2.9-4.4 4.6-6.8-3.9-2.4-11.3-6-22.4-7.4-11.1-1.4-20.3.2-25.4 1.4zM628 131.7l-22.3-5.6-33.4 3.2s-9.5 5.6-10.3 9.5c1 1.8 2.4 5.1 3.9 9.2 6.4-2.2 18.3-5.2 31.1-3.4 13.6 1.9 21.5 6.1 25 8.5 3.1-4 6.5-8.1 10.1-11.9 1.4-3.9-4.1-9.5-4.1-9.5z"/><path class="st7" d="M565.8 148c.8 2.2 1.6 4.6 2.5 7.1 5.1-1.2 14.4-2.8 25.4-1.4 11 1.4 18.5 5 22.4 7.4 1.7-2.5 3.7-5.2 5.8-7.9-3.4-2.3-11.4-6.6-25-8.5-12.8-1.9-24.7 1.2-31.1 3.3z"/><path class="st2" d="M575.5 177s-9.5-31-13.5-38.2c.8-4 10.3-9.5 10.3-9.5l33.4-3.2 22.3 5.6s5.6 5.6 4 9.5c-15.1 15.9-27 37.4-27 37.4l-16.7 15.1-12.8-16.7z"/><path class="st5" d="M595.4 122.2s0-19.1 1.6-21.5c1.6-2.4 8-2.9 8.7 1.1.8 4 0 20.4 0 20.4h-10.3z"/><path class="st1" d="M513.5 193.7s-23.1-18.3-23.9-23.1c-.8-4.8 39-23.1 62-22.3 3.2 2.4-4 39.8-4 39.8l-15.1 12.7-19-7.1zM617.6 194.5c2.4-11.1 19.9-42.1 26.2-41.4 6.4.8 46.1 33.4 43.7 37.4-2.4 4-24.7 9.5-27.8 18.3-3.2 8.7-23.1 7.2-23.1 7.2s-21.4-10.3-19-21.5z"/><path class="st11" d="M574.2 208.8c-4-12.7-13.8-30.2-13.8-35s11.7-5.3 15.6-2.1 6.1 6.9 6.1 6.9.5-8 3.7-10.3 10.3-3.2 11.1 0c.8 3.2.8 15.1.8 15.1s2.4-3.2 7.2-4.8 15.4 1.6 14.6 8.7c-.8 7.2-13.8 7.2-22.5 23.1-8.8 15.9-18.9 11.2-22.8-1.6z"/><path class="st0" d="M523 221.6c-8-15.1-19.9-18.3-21.5-21.5-1.6-3.2 6.4-9.1 11.1-9.1 1.6-8.4 12.7-8.9 15.9-4.4 1.6-5.6 8.7-5.6 11.9-1.6 4-5.6 10.6-2.3 12.2 2.9 6.1-3.7 14 1.1 13.3 7.4-.8 6.4-18.3 16.7-18.3 16.7s-16.7 24.7-24.6 9.6zM612.1 214.4s-.8-17.5 0-21.5 8.7-4.7 10.3-2c4.8-2 9.5-2.9 11.6 1.9 7.2-.8 15.4.8 15.4 5.6 6.4 0 9.5 4 8.7 7.2 4 .8 6.6.3 7.2 5.6.3 2.5-18 18.8-18 18.8l-35.2-15.6z"/><path class="st2" d="m531.2 198.7-2.6-12.1M539.6 197.1l.9-12.1M550.8 198.7l2.1-12.2M620.8 201.8l1.6-10.8M631.4 202.4l2.6-10.6M642.5 205l6.9-6.5M649.9 212.4l9-6.3M512.7 191l8.9 10.3"/><circle class="st3" cx="541.9" cy="229.4" r="21.8"/><circle class="st3" cx="625.6" cy="235.9" r="25.8"/><circle class="st5" cx="582.1" cy="224.5" r="21.7"/><path class="st7" d="m557.7 240.3.4 38.8c4.8 0 10.2.1 16.1.1l.7-37.7c-6.3-.4-12-.8-17.2-1.2zM515 235.9c-4 2.4 4.8 44.5 4.8 44.5s3.7-.5 12.8-.8l-.8-42.1c-10.8-1.7-14.8-2.8-16.8-1.6z"/><path class="st6" d="M597 242.3c-8.1-.2-15.4-.5-21.9-.8l-.7 37.7c5.9.1 12.4.2 19.5.4 1.9.1 3.6.1 5.4.2l.5-37.5H597zM531.8 237.4l.8 42.1c6-.3 14.3-.5 25.5-.5l-.4-38.8c-11.4-.8-19.7-1.9-25.9-2.8z"/><path class="st7" d="m644.9 241.8-3 43.3c8.9 2.1 14.3 4.3 17.9 5.8l2.4-50.7c-4 .5-9.5 1.1-17.3 1.6z"/><path class="st6" d="M674.1 239.1c-2-.7-4.6.1-11.8 1.1l-2.4 50.7c2.7 1.1 4.3 1.7 5.5 1.5 4.7-.9 16.6-48.6 8.7-53.3zM621.2 242.5l-.4 39c8.6 1 15.5 2.3 21.1 3.6l3-43.3c-6.3.3-14.1.6-23.7.7z"/><path class="st7" d="m599.7 242.3-.5 37.5c8.3.4 15.4 1 21.7 1.6l.4-39c-6.4.2-13.6.1-21.6-.1z"/><path class="st2" d="M516.8 244.8s28.1 4.8 79.5 6.6c51.4 1.9 78.5-5 78.5-5M668.5 281.9s-20.7-5.3-71.6-9-75.5-2.9-75.5-2.9M671.1 273.4s-39.2-6.9-76.9-9.5M674.3 259.6c-3.6.7-40.2.3-77.4-1.5-40.3-2-81.1-5.4-81.1-5.4"/><path class="st2" d="M515 235.9c4-2.4 17.5 4.9 81.9 6.4s72.4-4.8 77.1-3.2c8 4.8-4 52.5-8.7 53.3-4.8.8-15.9-11.1-71.6-12.7s-74 .8-74 .8-8.6-42.2-4.7-44.6z"/><path class="st1" d="M521.4 356s23.6-23.9 27.6-42.9 8.2-42.1 21.7-46.1 23.1 9.5 23.1 9.5 2.4-13.5-2.4-23.1c-4.8-9.5-11.9-13.5-27.8-13.5s-23.1 15.4-29.4 17.8c-6.4 2.4-19.1 2.1-19.1 2.1l-4 27.8 10.3 68.4z"/><ellipse class="st4" cx="548" cy="352.4" rx="24.2" ry="20.3"/><ellipse class="st4" cx="544.5" cy="417.9" rx="12.7" ry="11.1"/><ellipse class="st2" cx="544.5" cy="416.3" rx="5.5" ry="4.8"/><path class="st4" d="M558.8 402h-26.2s-4 8-2.4 10.3 7.2 1.6 10.3 0c.8 3.2 6.4 1.6 8.7 0 2.4-1.6 8.2 3.2 10.6 0 2.4-3.1-1-10.3-1-10.3z"/><path class="st2" d="M549.2 412.4v-12.3M540.5 412.4l-.3-11.2"/><path class="st11" d="M558 353.6c-1.6-4.8-19.9-5.6-21.5 0-1 3.5-2.3 20.4-3.1 33.3H559c0-13.1-.1-30.5-1-33.3z"/><path class="st0" d="M533.3 386.9c-.5 7.7-.8 14-.8 15.2h26.2s.1-6.7.2-15.2h-25.6z"/><path class="st3" d="M498.3 261.3c-1.6 2.4-19.1-5.6-27.8-1.6-3.2 3.2.8 8.7 4.5 13.5-5.3 0-25.2 12.7-26.8 15.9-1.6 3.2-.8 6.4 1.6 8 2.4 1.6 8.7-3.2 11.9-4.8-.8 18.3-12.5 27.6-13 30.5-.5 2.9 5 8.5 8.2 6.9 3.2-1.6 7.2-10.3 7.2-10.3s-.8 35 .8 38.2c1.6 3.2 9.5-1.6 10.3-7.2 3.2 5.6 5.6 30.2 8.7 31.8s6.4-3.2 7.2-6.4c.8-3.2-1.6-15.1-4-22.3 7.2 2.4 6.6 18.6 10.9 17.2 4.2-1.3 2.7-11.7 5-10.9 1.2.4 1.5 17.4 9 19 9.5 2.1 12.5 15.2 14.1 15.2 3.2 0 5.6-4.8 5.6-11.1 0-6.4-4.8-18.3-6.4-23.1-1.6-4.8-1.6-19.1 0-23.9 1.6-4.8 14.3-12.7 11.1-46.9-1.6-9.5-13.5-14.3-15.1-19.1s.3-7.4-1.3-10.6c-.8-1.6-4.9-3.2-10.1-5.8-5.2-2.7-7.6-6.6-9.2-6.6-3.2.1-.8 12-2.4 14.4z"/><path class="st2" d="M466 313.2s-.4 2.2-1.8 6.1M476.6 333.4s.1 13.1-1.3 17"/><path class="st0" d="M521.1 296.2s3.8-13.1-1.3-15.3c-5.1-2.2-17.8-.6-24.2 7.4-6.4 8-7.4 25.4-4.2 28.1 3.2 2.7 12.2 0 12.2 0l17.5-20.2z"/><path class="st4" d="M499.4 319.5c17.5 4.8 32.3-10.1 22.8-27-14.9-4.8-27.6 6.4-22.8 27z"/><path class="st2" d="M506.2 311.1c12.2 2.1 11.1-11.1 11.1-11.1s-12.1-1.1-11.1 11.1z"/><circle class="st1" cx="562.3" cy="132.1" r="9.9"/><circle class="st1" cx="636.7" cy="135.7" r="9.9"/><circle class="st1" cx="583.4" cy="127.7" r="9.9"/><circle class="st1" cx="620" cy="128.5" r="9.9"/><circle class="st1" cx="601.7" cy="126.9" r="9.9"/><path class="st1" d="M585.6 101.5c-.8-4-2.1-26.2.3-27.8 2.4-1.6 7.2-3.2 9.5 0 2.4 3.2 5.6 12.7 5.6 12.7s8-10.3 10.3-11.9c2.4-1.6 8-3.2 8.7.8.4 2-2.1 8.5-3.1 14.7-1.1 6.3-.8 12.3-1.4 13.4-1.1 2.1-29.2 2.1-29.9-1.9z"/><path class="st2" d="m600.9 86.4-.3 17.9M507.8 445.7l3.2-7.4M515.3 451.5l3.7-9M525.9 456.8l2.6-9M537.5 462.1l2.1-10.6M550.8 466.4l2.1-10.1M566.7 468.5V460M579.4 468.5v-9M595.8 468l-2.1-8.5M610.2 464.3l-2.7-10.1M624.5 457.4l-3.7-8.5M636.1 448.9l-6.3-7.4"/><circle class="st1" cx="617.4" cy="269.3" r="17.5"/></svg>