<svg version="1.1" id="Calque_1" xmlns="http://www.w3.org/2000/svg" x="0" y="0" viewBox="0 0 900 900" style="enable-background:new 0 0 900 900" xml:space="preserve"><style>.st0,.st1,.st2{fill:#fff;stroke:#000;stroke-width:3.8552;stroke-linecap:round;stroke-linejoin:round;stroke-miterlimit:10}.st1,.st2{fill:red}.st2{fill:none}.st3{fill:red}.st4{fill:#fff}</style><path class="st0" d="m429.8 314.5-60.7 152.6 3.8 14.5 41.1 11.5 35.6-27.3V325.7z"/><path class="st1" d="M462.2 698.4c3.6 3.9 6.2 33.3 6.2 33.3s5.4 16.4-12.6 27.6c-18 11.2-45.6 18-53.3 18s-9-9.8-5.1-15.2 46.6-25.1 49.7-31.7c3-6.7-4.2-26-1.7-32 2.6-6.1 13.2-3.9 16.8 0zM571.2 736.7s-11.1-12.2-16.1-14.8c-5-2.6-12.7.9-11.4 9.6 1.3 8.7 10.3 23.9 10.3 23.9s-50.8 41-52.7 47.4c-1.9 6.4.9 15.4 16.4 9.9 15.5-5.5 63.2-51 63.2-51l-9.7-25z"/><path class="st2" d="m453.5 704.3 3.6 31.5s-15.7 21.6-49.9 31.9M551.5 729.6l11 23.2-50.5 51.7"/><path class="st1" d="M476.1 748.5s-30.8-5.1-30.8-12c0-6.8 1.3-11.6 6-11.6 4.8 0 30.5 6.7 30.5 6.7l-5.7 16.9zM569.5 748.5s-15.4-1.7-18.4 0c-3 1.7-5.5 5.8-3.9 10.3 1.7 4.5 17.3 4.5 17.3 4.5l5-14.8z"/><path class="st0" d="M493.1 645.2s-11.2 24.5-14.4 50.5c-3.1 26-2.2 37.3-8 47.2-5.8 9.9-28.3 26-36.1 32.1-8 6.2-30.8 17.6-30.8 25.3s12.9 2.6 12.9 2.6 1.7 9.4 8.6 4.8c8.6.9 15-3.5 15-3.5l77.1-32.1s.9-20.6 0-27.9c-.9-7.3 1.9-32.5 9.8-49.2 7.8-16.7 16.3-53.6 16.3-53.6L570 638s-1.5 101.5-8.1 117.7c-6.6 16.3-56.8 64.6-59.5 71.6-2.8 6.8 9.4 12.9 12.2 6.8.6 8.6 10.7 8.1 11.3 3.5 0 7.3 11.7 4.2 11.7 4.2l34.3-23.1 46.3-33.8s-9.9-37.5-7.2-53.1c2.7-15.5 16.7-98.7 16.7-98.7L540 620.7l-46.9 24.5z"/><path class="st2" d="M416.6 802.8c0-6 6.4-9 6.4-9M514.5 834.1c0-8.6 6.8-13.2 6.8-13.2M525.7 837.5c-2.7-7.7 5.3-13.8 5.3-13.8"/><path class="st0" d="M472 786.1v-45.7s38.8 7.6 45.2 3.7c6.4-3.7 4.2 20.8 0 23.1-4.2 2.3-33.9 18.9-33.9 18.9H472h0zM575.6 812.7s-5.5-38.2-13.8-56.9c25.3 3.9 45-1.9 49.5-4s10 24 6.6 33c-3.5 9-42.3 27.9-42.3 27.9z"/><path class="st0" d="M427.3 805c-2.2 2.6-2.6 7.7 4.2 7.7s86.6-34.7 88.4-38.9c1.8-4.2 1.2-9.1-2.7-9.1-3.8-.2-87.7 37.8-89.9 40.3zM535.2 837.5c-4.2 4.6-.4 12.5 5.5 12.5 6 0 81.3-54.4 82.6-57.8 1.3-3.5-1.8-10.7-6.4-10.7-4.6-.1-77.3 51.4-81.7 56zM486.4 533.9s-9 87-29.3 128.5c10.7-3.3 31-9.5 69.3-14.1l2.8-119.3-42.8 4.9zM654.6 640.5l-26.5-123.2-47.2 5.5 14.8 119.6c38.3-2.1 58.9-1.9 58.9-1.9z"/><path class="st2" d="m507.1 623.7 18.6 21.5M472 617.7l12.3 23.6 10.3-14.4M504 591.8l-11.2 13.1-13.1-23.9M531 609.7l-15.8-28.3M514.5 542.9l14.8 28.2M492.8 548s3.9 24.4 4.4 23.1c.3-.8 5-9.9 9.1-17.5M619.3 538.5l16.7 14.7M652.4 630.3l-17.5-19.1M631 625.5l12.9 15M618.4 625.5l-8.6-10.3-14.1 26.1M589.6 616.9l15-30.5 11.2 16M614.1 573.7l-14.2-14.1-19.2 32.2M647.4 606.9 631 590.5M622.3 564.6l20.2 16.8M580.7 557c.9-.5 12.5-16.7 12.5-16.7l11.6 9.6"/><path class="st3" d="M526.4 648.1c10-1.3 21.2-2.4 33.9-3.3 13.2-1 25.1-1.8 35.7-2.4l-2.6-20.4-66.6 7.1-.4 19z"/><path class="st4" d="m581.1 522.7-52.1 6.2-1.4 59.7 61.1-4.6zM527.4 601.7l-.7 27.3 66.6-7-3-24z"/><path class="st3" d="m588.7 584-61.1 4.6-.2 13.1 62.9-3.7z"/><path class="st2" d="m529 528.9-2.8 119.3c10-1.3 21.2-2.4 33.9-3.3 13.2-1 25.1-1.8 35.7-2.4L581 522.9l-52 6z"/><path class="st0" d="M310.3 135.2c-2.6 0-4.5 5.3 0 10.7 4.5 5.4 4.8 4.2 7.3 8.7s-3.5 2.8-.4 16.4c-6.8-9.9-16.7-19.3-27-25.1s-43.7-18.2-47.2-18.2-5.5 4 0 7.6c-5.1 0-6 7.5 2.6 10.7-4.8-1.9-4 6.4 1.7 8.7 5.8 2.2 12 5.9 12 5.9s-3.7 6.6.9 10.5c4.6 4 15 4.6 24.8 14.9s23.3 13.1 26.6 17.6c3.3 4.4 17.1 39.5 53.1 70.7s65.2 46.3 65.2 46.3l20.2 3.5 11.8-14.5-11.4-36.4-17.1 1s-44.1-46.4-45.4-47.5l-48.8-37.5s-7.7-26.5-12.5-36.4c-4.8-9.8-13.8-17.6-16.4-17.6z"/><path class="st2" d="M309 176.1s-13.2-16.1-25.7-23.8-40.2-17.1-40.2-17.1M303.1 179.6s-9.9-10.2-24.8-19.3c-15-9-32.5-14.4-32.5-14.4M295.8 182.5c-18.2-14.9-36.4-22-36.4-22M331.8 197.3s-11.1-8.6-15-28.7M469.3 460.1s-13.1 11.4-24.4 4.8"/><path class="st0" d="M633.8 378c.4-53.7 6.8-94.6-15.8-110.1-22.7-15.4-35.7-22.4-58.7-24.9-4.4-.5-11.1-1-19-1.4-16.4 24.2-16.4 73-16.4 73s-11.3-50.2-40.5-74.5c-22.4 0-41.9 1-46.9 3.9-11.6 6.4-9.9 20.2-6.4 26.1 3.5 6 9.5 6.4 12.5 13.2 3 6.8-3 10.7-3.5 16.7-.4 6 12.5 6 10.7 13.2-1.8 7.3-19.7 7.3-19.7 7.3 15 18 35.6 8.1 35.6 8.1s-2.6 42.3-3 89.6c-.3 25.8 0 53.1.1 75.7l185.8-16.4c-7.4-31.1-15.1-71-14.8-99.5zM461.6 542.9c73.2-12.5 199.2-17.6 199.2-17.6s-1.7-5.7-4.1-15l-194.2 14.9c-.1 8.2-.4 14.3-.9 17.7z"/><path class="st0" d="m648.4 477.5-185.8 16.4v16.6c59.6-12.6 147.7-17.9 188.9-19.8-.9-4.2-2-8.6-3.1-13.2z"/><path class="st0" d="m495 504.7 12.1 17.1 13.8-1-12.7-18c-4.5.6-8.8 1.3-13.2 1.9z"/><path class="st0" d="m482.3 506.8 10.5 16.2 14.3-1.2-12.1-17.1c-4.4.6-8.6 1.3-12.7 2.1zM508.1 502.8l12.7 18 20.6-1.5-15.7-18.6c-5.9.5-11.8 1.3-17.6 2.1zM462.6 510.5c0 5.4 0 10.4-.1 14.8l15.9-1.3-9.9-14.8c-1.9.4-4 .8-5.9 1.3zM525.7 500.6l15.7 18.6 17.2-1.3-15-19.3c-5.9.6-12 1.2-17.9 2z"/><path class="st0" d="m468.7 509.2 9.9 14.8 14.4-1.2-10.5-16.2c-4.9.9-9.5 1.7-13.8 2.6zM654.6 510.4 643.8 491c-6.6.4-13.9.8-21.7 1.2l12.9 19.7 19.6-1.5zM656.7 510.2c-1.4-5.4-3.2-12.1-5-19.7-2.4.1-5 .3-7.7.4l10.8 19.4 1.9-.1zM593 494.2l16.7 19.7 12.6-1-15.4-19.7c-4.5.3-9.1.6-13.9 1z"/><path class="st0" d="M622.1 492.2c-4.9.3-9.9.6-15.2 1l15.4 19.7 12.6-1-12.8-19.7zM575.2 495.6l17.6 19.7 17.1-1.3-16.7-19.7c-5.9.3-12 .8-18 1.3z"/><path class="st0" d="m561.8 496.7 15 19.7 15.9-1.3-17.6-19.7c-4.4.6-8.8 1-13.3 1.3z"/><path class="st0" d="m543.6 498.5 15 19.3 18.1-1.4-14.9-19.7c-6 .5-12.2 1.2-18.2 1.8z"/><path class="st2" d="M601.3 371.6s-2.1 29 9 74.8 50.5 78.8 50.5 78.8M449.6 310.7c23.5 0 33-12 33-12M430.7 251c6.9-2.6 27.6-4.1 36-1.7 8.2 2.4 104.1-3.9 104.1-3.9M427.4 259.3s9-3.1 16.2-3.1c7.2 0 14.9 5.3 19 6.2 4.1.9 12-4 21.2-4.4 9.3-.4 27 6.4 37 5.7 9.9-.8 26.5-8 31.1-8.7 4.6-.8 9 4.4 13.8 4.4s29.6-4.6 35.1-2.3M433.3 274s5-6.2 13.2-6.2 16.7 6 25.7 7.3 16.6-5.1 22.1-6 16.7 7.3 26.5 7.3 18.8-6 26-8.6c7.3-2.6 16.1 5.1 22 5.1s10.5-2.7 17.9-5.1c7.3-2.6 31.2 0 31.2 0M443.1 285.7s5.7-5.8 14-4.6c8.4 1 17 5.5 26.7 5.5 9.8 0 20.2-6.7 27-5.5 6.8 1 9.6 7.3 16.7 6.8 7.1-.4 8.9-5.1 16.1-5.5s16.3 3.9 23.9 3c7.7-.9 9.3-6.7 17-5.5 7.7 1 15.4 6 20.2 6 4.8 0 6.2-5.1 8.5-7.3s13.1-2.2 13.1-2.2"/><path class="st2" d="M439.4 297.4c5.5-.4 9.8-6.4 17.7-6.4s23.3 9.3 32.1 7.6c9-1.7 21.2-6.3 30.2-6.3s9.4 7.2 15.2 6.3c5.8-.8 8.2-4.2 13.5-5 5.3-.9 11.2 7.6 17.6 6.3 6.4-1.2 10.3-6.3 18-6.3s17.6 3.6 26.1 3.7c8.6.1 22.5-4.6 22.5-4.6M444.9 317.9s12.5 4.6 21.8-1.5c9.4-6.2 52.8-16.3 52.8-16.3M465.4 328.6c3.5-4.8 9.9-9.1 15.4-9.1s9.8-1.3 15.2-1.3c5.4 0 9.3-7.2 15.2-7.2s9 4.8 14.5 3.5 4.4-8.1 13.4-8.6 11.7 3 20 3.9c8.4.9 17.2-6.4 25.7-5.8 8.5.6 15.4 7.5 22.7 9.3 7.3 1.8 12.6-3.1 18.5-3.5s8.6 4.8 8.6 4.8M464.9 337.3c0-.5 6.6-6.4 15.8-8.6 9.1-2.2 20.2 3.9 28.9 3 8.6-.9 12.2-6.4 23.1-5.1s31.5 0 31.5 0"/><path class="st2" d="M496 318.2c4.1 4.4 25.4 3.7 35 0 9.5-3.7 33.7 0 33.7 0M465.2 349.6s13.2-12.3 23.6-12.3c10.4 0 12.2 4.2 22 4.2 9.9 0 12-3 19.5-4.2s28.3 3.1 28.3 3.1M463.9 359.9s14.8-11.6 22.9-11.6 17.1 4.8 23.8 3c6.7-1.7 13.5-5.1 23.4-5.1s18.1 2.8 18.1 2.8M463.5 369.4s17.9-12 25.3-12 12.7 2.6 18.2 2.6 13.2-2.6 17.7-2.6 11.1 1 11.1 1M463.1 379.3s14.6-11.1 22-11.1c7.3 0 11.8 4 16.8 3.5s13-7.1 21.2-4.8M463 390.3s13.2-8.5 23.9-8.5 17.5 3 17.5 3M462.5 398.9c14.5-8.6 34.8-3.9 34.8-3.9M462.5 413.3c12.3-11.8 26.3-6.3 26.3-6.3M463 424.1c5.7-6 19.3-7.3 19.3-7.3M576.7 392.5s20.3-2.2 25.2 3.7c9.5-6 32.8 0 32.8 0M633.8 383.5s-20.7-7.7-32.6-1.7c-3-2.6-8.7-1.7-8.7-1.7M633.8 371.6c-9.5-11.7-28.3-5.7-28.3-5.7M633.5 357.3c-10.8-6.8-23.8-1.9-23.8-1.9M633.8 343.3c-2.8-7.5-18.6-4.5-18.6-4.5M634.8 327.6c-5.8-5-14.4-3.7-14.4-3.7M634.8 409.5s-21.7-7.6-31.6-2.1c-7.5-8.6-36.8-7.3-36.8-7.3M546.8 414.6s52.8-3 57.8 4c5.1-3 32.6 1.9 32.6 1.9M527.8 428.5s66.4-4.4 79.2 2.4c13.4-3.1 32.8 3.9 32.8 3.9M512 443s17.6-5.9 23.9-6.4c6.4-.4 12.5 4.6 25.6 5.1 13.1.5 14.9-5.1 23.9-5.1 9 0 18.1 6.6 24.9 8.6 6.8 2.1 7.3-1.7 15.9-1 8.6.6 16.3 6.2 16.3 6.2M493.3 465.8s25.2-14.1 39.3-13.2c14.1.9 22.7 6.4 31.9 6.4 9.1 0 16.1-5.1 24.7-5.1 8.6 0 44.8 12.9 56 9.9M488.8 475.5s1.9 5.8 7.5 3.9c5.5-1.9 9.8-5.5 20.7-6 10.9-.4 15.9.1 26.1.1 10.2 0 21.3-2.7 29.6-4 8.1-1.3 20.8 3 37.3 3.9 16.4.9 36.4-2.8 36.4-2.8"/><path class="st0" d="M513.9 374.5c19.3-16.3 28-19.3 35.6-23.5 7.6-4.2 9.8-13.2 14.6-20.2 2.4-3.3 16.1-.4 20.2-6 4.1-5.5 15.5-12.5 21.6-8.6 12 7.7 6.8 36.4-.4 49.7-7.3 13.2-39.8 34.3-73.2 59.1s-48.8 56.5-52.3 64.6c-3.5 8.1-41.5 24-47.2 23.5-5.5-.4-9.4-4.8-9.4-4.8s-14.1 4.1-22.7 2.3c-8.6-1.8-10.7-10.4-10.7-10.4s-10.7-.4-14.1-2.6c-3.5-2.2-3-11.6-3-11.6s-5.5-1.7-7.7-7.3c-2.2-5.5 1.5-12.9 3.9-12 2.3.9 9.9 18 37.3 13.8 27.4-4.2 38.6-15.8 38.6-15.8s-8.6-7.7-19.7-9c-11.2-1.3-24.4 4.2-29.9 3s-1.7-14.1 9.4-17.1c11.2-3 31.7 1.3 50.5 0 18.6-1.2 39.3-50.9 58.6-67.1z"/><path class="st2" d="M372.9 486.3c29.9 10.7 72-6.8 72-6.8M390 500.5c42.4 0 63.4-15.8 63.4-15.8M423.4 508.6c29.9-9.4 47.9-24 47.9-24M565.7 308.5s-2.6 18.4-1 25.7c1.5 7.3 3.6 10.7 11.8 10.7 8.1 0 12-4.8 17.6-7.3s14.5 6 19.3 3.5c4.8-2.6 11.6-30.8 9-40.7-2.6-9.9-8.6-16.3-14.5-18.4 1.7-16.7-10.4-27.1-10.4-27.1"/><path class="st0" d="M523.7 314.5s0-48.8 16.4-73c-16.1-.9-37.5-1.5-56.9-1.5 29.1 24.3 40.5 74.5 40.5 74.5z"/><path class="st0" d="M448.3 153.9s-.9 16.3 2.6 19.3 16.2 0 18.4 2.6c2.2 2.6 3.5 6.8-.9 9.4-4.2 2.6-16.7-2.6-18.9-.9-2.2 1.7-2.6 9.4 0 10.7s13.2 1.7 15.8 6.4-5.7 16.3.9 22.2c6.6 5.9 20.6-4.8 28.3-2.6 7.7 2.2 15.9 45.9 23.5 44.1 7.6-1.7 12.5-55.6 12.5-55.6l18.9-55.9-20-47.8-40.6-23-20.8 9.8-6.2 11.1v14.5l-9.3 25.8-4.2 9.9z"/><path class="st0" d="M455.2 156.1s6 4.8 3.5 8.1c-1.4 1.9-6.6.8-11.6.6-4-.1-7.7.6-9.4.6-3.9 0-4.2-3.9-4.2-8.1s20.2-18.4 22.7-26.6 4.1-19.7 9-23.5 20.2-14.5 20.2-14.5M465.1 89.9l28.7-9s.3-1.4.8-3.6h-35.2c3 6.9 5.7 12.6 5.7 12.6zM455.2 68.7c1.3 3 2.7 5.9 4 8.6h35.2c.5-2.3 1-5.4 1.5-8.6h-40.7zM496.7 54c-2.2-2.6-48.4-6-48.4-2.6 0 1.5 3.2 9.1 6.8 17.2h40.7c1.3-6.3 2-13.3.9-14.6z"/><path class="st2" d="m459.3 63-1.7-13M468 63l-.4-12.7M475.6 63V50.8M485.1 63V51.7"/><path class="st0" d="M557.4 129.1c31.4 0 56.7 47.2 35.6 85.7s-79.3 12-71.6-15c8-27 4.7-70.7 36-70.7zM461.8 111.5c-6-6.3-6.2-19 2.7-27.9 9.9-9.9 32-12.3 43.7-7.3 11.2 4.9 5.5 13.5 5.5 13.5s-14.9 3.5-26.1 7.7c-11 4.3-18.8 6.4-25.8 14z"/><path class="st2" d="M461.8 111.5c13.8-32.5 43.4-25.7 43.4-25.7"/><path class="st2" d="M457.6 100.7c21.5-32 47.2-19.5 47.2-19.5"/><path class="st0" d="M504.9 81.1c-8.9 1.5-14.5 10.9-9 23.3 5.5 12.2 24.8 26 24.8 26l5.1-32.8c0-.1-6-19-20.9-16.5z"/><path class="st2" d="M519.4 122c-26.1-17-19.3-39.1-19.3-39.1"/><path class="st2" d="M509.4 81c-5 21.5 11.4 33.2 11.4 33.2M513.9 82.3C512.2 94.4 521 105 521 105M557.4 140.9c13.4-5.7 33.9 18.1 31 39.3-2.7 19.4-14.9 29.7-32.6 30.6-19.1.9-23.5-13.9-23.5-13.9"/><path class="st2" d="M525.8 203.6c3.6 10.3 20.9 25.4 44.1 18.2s30.7-23 30.7-42.3"/><path class="st2" d="M542.4 171.5c-1.2 9.8 6.2 27.9 19.3 24.4 13.1-3.5 16.7-15.2 13.1-27.1"/><path class="st2" d="M556.3 159c22.4-3.5 22.5 19.7 12.5 25.2s-16.3-3.3-16.7-12.6M476.7 147.1c23.4-6 25.6 15.4 25.6 15.4s-24 6.3-25.6-15.4z"/><path class="st2" d="M472.8 140.6c29.9-6.8 32.1 8.6 32.1 8.6"/><circle class="st2" cx="488.4" cy="154.7" r="4.6"/><path class="st0" d="M540.4 94.6s-9.4-9.1-15.8-7.5c-6.4 1.7-7.7 8.9-7.7 19.9s2.8 26 11.8 33.7c8.9 7.7 13.2 0 13.2 0l-1.5-46.1z"/><path class="st2" d="M524.6 87.1c-9.4 29 7.7 56 7.7 56M530.7 88.5c-5.7 21.5 3.6 38 3.6 38"/><circle class="st0" cx="541.9" cy="153.6" r="22.5"/><path class="st0" d="M534.4 152.3c5.1 10.9 15.4 8.2 18.4-1.5 1-3.5 6.8-13.9 14.6-24.4l-35.3-15c-1.6 17.7-.4 35.4 2.3 40.9zM583.8 105.7l-46.3-19.9c-1.3 3.5-2.4 7.5-3.3 11.7l41.8 18c2.8-3.6 5.5-7 7.8-9.8z"/><path class="st0" d="M546.8 72.5c-4 2.4-6.9 7.2-9.3 13.4L547 90l9.3-12.6c-3.3-1.8-6.6-3.5-9.5-4.9zM565.5 82.3l-8.1 12.1 9.1 4 7.8-10.9c-2.7-1.7-5.7-3.4-8.8-5.2z"/><path class="st0" d="M556.3 77.3 547 89.9l10.4 4.5 8.1-12.1c-3-1.7-6.1-3.3-9.2-5zM574.4 87.3l-7.8 10.9 8.2 3.5 7.2-10.2c-2.3-1.1-4.8-2.6-7.6-4.2zM574.8 101.8l9 3.9c4.2-5.3 7.2-8.7 7.2-8.7s-3.6-2.2-9-5.3l-7.2 10.1zM542.4 101.1l-3.8 13.1 8.3 3.6 4.8-12.8zM534.2 97.5c-.9 4.5-1.5 9.1-2.1 13.9l6.4 2.7 3.9-13.1-8.2-3.5zM551.7 105l-4.8 12.8 10.2 4.2 5.9-12.1zM576 115.5l-13-5.5-5.9 12.1 10.4 4.5c2.8-3.8 5.6-7.5 8.5-11.1z"/><circle class="st1" cx="525.8" cy="189" r="14.5"/></svg>