<svg version="1.1" id="Calque_1" xmlns="http://www.w3.org/2000/svg" x="0" y="0" viewBox="0 0 900 900" style="enable-background:new 0 0 900 900" xml:space="preserve"><style>.st0,.st1,.st2,.st3,.st4,.st8{fill:none;stroke:#010101;stroke-width:5.7895;stroke-linecap:round;stroke-linejoin:round}.st1,.st2,.st3,.st4,.st8{fill:#fdcf16}.st2,.st3,.st4,.st8{fill:#fff}.st3,.st4,.st8{fill:#fbce18}.st4,.st8{fill:#ff000d}.st8{fill:none;stroke-width:3.4737}</style><path class="st0" d="M242.4 367.8c-3.5-5.2-1.8-13-1.8-13"/><path class="st1" d="M251 346.1h17.4c4.3 0 92 76.1 104.2 77.8 12.2 1.8 60.2-51 60.2-51L324 333l-21.7-5.2s-31.2-13.9-41.7-22.6c-10.4-8.7-20-36.5-23.4-39.9-3.5-3.5-10.4-5.2-13-2.6-2.6 2.6 6.9 24.3 3.5 30.4-3.5 6.1 5.2 45.5 5.2 45.5l18.1 7.5z"/><path class="st2" d="m249.3 641.3-9.3 49.5s33.6 7.8 61.4-4.3l-8.7-44.3-43.4-.9z"/><path class="st3" d="m326.6 676.9-36.5 121.6 70.3.9L357 762h37.3l-8.7-36.5 114.6-2.6-9.6 39.1 39.9-1.8 3.5 33 77.3-6.9s-34.8-85.1-39.1-112c-17.2-14.7-245.6 2.6-245.6 2.6z"/><path class="st4" d="M352.6 670.9 311 781.2l25.1-.9 3.5-33.9 27.8-1.7 2.6-38.2 145-.9-1.7 34.7 29.5-.8 6.1 35.6 33-4.4-30.4-92.9z"/><path class="st2" d="M217.2 562.3s.9-12.2-2.6-14.7c-3.5-2.6-9.6-.9-12.2 2.6-2.6 3.5-.3 16.2-8.1 19.7s-16.2 3.8-20.5-3.2c-4.3-6.9-3.5-23.4 4.3-26.9s20-9.6 26.1-20.8c6.1-11.3 19.1-7.8 19.1-7.8l-28.7-13S122.5 374.5 127.7 374c8.7-.9 61.7 54.7 94.7 99 2.6 13 33 40.8 33 40.8l6.1 35.6-26.1 23.4-18.2-10.5z"/><path class="st3" d="M337 503.3c-5.2 4.3-7.8 59.1-7.8 59.1l6.9 28.7 44.3-5.2 4.3-51.2-8.7-39.9c.1-.2-33.8 4.1-39 8.5z"/><path class="st2" d="M106 173.3s-.9-12.2-4.3-17.4c-3.5-5.2-20-7.8-25.2-21.7-5.2-13.9 4.3-28.7 14.7-32.1 10.4-3.5 24-.6 29.2 8.1 5.2 8.7-.6 22.3-.6 22.3s19.1 6.1 16.5 43.4c-2.5 37.3-30.3-2.6-30.3-2.6z"/><path class="st0" d="M119.9 132.5s-8.7-2.6-11.3-6.1c-2.6-3.5 4.3-9.6 4.3-9.6-3.5-4.3-8.7-4.3-13.9-1.8-5.2 2.6-7.8 13-1.8 20 6.1 6.9 19.1 1.8 23.4 11.3 4.3 9.6-3.5 26.1-3.5 26.1"/><path class="st2" d="M165.9 188s5.5-22.3 25.5-23.2c15.6-1.8 21.4 4 21.4 4-3.5-7.8 11.3-13.9 19.1-13 7.8.9 20.8 4.3 23.4 14.7 2.6 10.4-6.4 30.4-21.1 33s-26.6-7.2-33.6-7.2c-6.9 0-12.2 9-12.2 9L165.9 188z"/><path class="st0" d="M212.8 168.9c.9 4.3 7.8 6.1 12.2 6.1 10.4-.9 4.3-7.8 6.9-10.4 12.2 0 9.6 21.7-3.5 22.6-8.7.6-16.5-9.6-28.7-10.4-12.2-.9-25.2 19.1-25.2 19.1"/><path class="st2" d="m134.7 178.5 29.5 13s3.8-8.9 16.5-22.7c-6.1-5.8-19.8-16.8-38.8-19.5-3.4 18-7.2 29.2-7.2 29.2z"/><path d="M213.7 140.3c-23.4-21.7-46.9 5.2-46.9 5.2s17.4-26.9-20-38.2c-.7 16-2.7 30.4-4.9 42 19 2.7 32.7 13.7 38.8 19.5 7.5-8.1 18.2-17.9 33-28.5z" style="fill:#fecf0a;stroke:#010101;stroke-width:5.7895;stroke-linecap:round;stroke-linejoin:round"/><path class="st2" d="M198.9 211.5c-49.5-45.1-102.5-41.7-102.5-41.7l-.4 18.9c55.3 9.1 81.2 28 89.9 35.9l13-13.1zM277.1 373c-1.8-6.1-12.2-21.7-14.7-26.9-2.6-5.2-12.2-2.6-19.1-11.3-6.9-8.7-20.8-27.8-30.4-42.6-9.6-14.7-49.5-45.2-49.5-45.2l13.2-13.2c-5.5-6.1-26.7-25.4-80.8-32.4l-1 47.3s45.2 2.6 94.7 57.3c11.3 3.5 27.8 27.8 27.8 27.8s-3.5 5.2 4.3 13 3.2 31.6 5.8 36.8c2.6 5.2 9 4 10.7.6 1.8-3.5 4.3-16.5 4.3-16.5 4.3 9.6 12.2 11.6 13.9 15.1 1.8 3.5 0 15.4 0 15.4s10.4 3.5 13-6.1c4.3 4.3 8.7 3.5 10.4-.9-2.6-7.8-.9-12.1-2.6-18.2z"/><path class="st2" d="m176.5 233.9 9.4-9.4c-8.7-7.8-34.5-26.7-89.9-35.9l-.3 12.8c54.2 7.1 75.3 26.3 80.8 32.5z"/><path class="st0" d="m107.8 232.3 8.6-7.8-6.1-11.3M123.4 215l5.2 13 13.9-3.5M112.1 240.1l14.8-3.4 5.2 9.5M142.5 245.3l-3.5-6.9 9.6-5.2M253.6 353s-2.6 7.8 0 12.2c2.6 4.3 8.7 6.9 8.7 6.9s-.9-5.2-.9-10.4c.1-5.2-7.8-8.7-7.8-8.7z"/><path class="st2" d="M256.6 394.7c.4-3.8.7-9.6-.4-11.8-1.8-3.5-9.6-5.5-13.9-15.1 0 0-4.3 12.2-13 25.2 13.9-1.8 21.4-13 21.4-13s-7.5 13.9-13.6 22.5c11.3-1.7 19.4-5.8 19.5-7.8z"/><path class="st0" d="m110.9 191.2 6.4-18.8M129.4 194.6l7-18.7M144.5 199.2l6.9-13.8M157.2 203.9l7-12.4M168.8 212l12.7-10.4"/><path class="st1" d="M225 290.8c-6.1-.9-36.5 11-38.2 17.1-1.8 6.1 6.1 13 6.1 13s-2.6 10.4.9 13c3.5 2.6 11.3 1.8 11.3 1.8s-.9 13.9 16.5 11.3c6.9-2.6 6.9-5.8 11.3-8.4 4.3-2.6 19.1-5.5 20.8-9 1.8-3.5.9-6.1-6.1-9.6 0-6.1-6.1-8.7-6.1-8.7s-.6-10.4-8.4-9.6c-1.8-4.3-2.1-10.1-8.1-10.9z"/><path class="st0" d="m211.9 310.5 21.2-8.7M217.2 322.6l24.3-11.2M224.1 332.2l23.4-12.2"/><path d="M327.5 289.6c-2.6-4.3 4.3-19.1 4.3-21.7 0-2.6-13-6.1-14.7-10.4-1.8-4.3 2.6-13 9.6-12.2 6.9.9 7.8 9 13 9.8 5.2.9 11.6-2 13.3-6.4 1.8-4.3-4.6-9.6-4.6-13 0-3.5 18.3-9.6 24.3-.9 6.1-4.3 23.4-1.8 24.3 2.6.9 4.3-3.5 9.6-6.1 14.7-2.6 5.2 6.9 10.4 12.2 9.6 5.2-.9 9.6-13 13.9-13 4.3 0 11.3 5.2 8.7 12.2 7.8 1.8 20 9.6 18.3 17.4-.9 6.1-14.7.9-18.3 6.9-3.5 6.1 2.6 15.6 6.9 16.5 4.3.9 22.6-10.4 23.4-5.2.9 5.2 0 11.3-3.5 15.6 7.8 2.6 10.4 18.3 5.2 20.8-5.2 2.6-10.4-3.2-14.7-3.2-4.3 0-6.1 7.5-6.1 12.7 0 5.2 12.2 2.6 15.6 3.5 7.8 3.5 4.3 14.7-.9 18.3 6.9 1.8 10.4 6.1 9.6 15.6-.9 9.6-24.3 18.3-24.3 18.3l-42.6-11.2S330 294 327.5 289.6z" style="fill:#505050;stroke:#010101;stroke-width:5.7895;stroke-linecap:round;stroke-linejoin:round"/><path class="st1" d="M327.5 289.6s1.8 10.4-1.8 14.7c-3.5 4.3-15.6 12.2-20.8 15.6-5.2 3.5-7.8 15.6-7.8 15.6l16.5 1.8c-9.6 6.1-11.3 13.9-11.3 13.9l18.3.9s-7.8 31.2-6.1 37.3c1.8 6.1 17.4 13.3 25.2 12.5 7.8-.9 38.2-8.4 41.7-7.5 3.5.9 9.6 12.5 9.6 12.5l20.8-17.4-5.2-13 .9-39.9-4.3-14.7s-7.8 4.3-11.3.9c-3.5-3.5-1.8-11.3-1.8-11.3s-5.8-5.8-1.4-11c4.3-5.2 10.1-3.8 11.9-9 2.6-10.4-11.3-15.6-14.7-15.6-3.5 0-.9 14.7-6.9 15.6s-8.7-6.9-8.7-6.9-7.8 5.2-13.9 0c-6.1-5.2 2.6-13-6.1-14.7-6.3-.2-22.8 19.7-22.8 19.7z"/><path class="st0" d="M321.4 327c11.3-1.8 10.4 11.3 10.4 11.3l-18.3-.9M302.3 351.3l18.3.9s22.6 0 33.9 9.3"/><path class="st2" d="M340.4 354.9c5.1 1.4 10.1 3.4 13.9 6.6 0 0 0 12.2-5.2 13s-12.2-2.3-13-5.8c-.8-3.5.9-11.3 4.3-13.8zM320.5 352.2l-18.3-.9s-3.5 10.4-.9 14.7 16.5 3.5 18.3-.9c1.8-4.2.9-12.9.9-12.9zM337 305.5s10.8-6.3 18.9-3.6 16.2 10.8 16.2 10.8-17.1 4.5-23.4.9c-6.3-3.6-11.7-8.1-11.7-8.1z"/><circle cx="353.4" cy="307.5" r="5.2" style="fill:#010101"/><path class="st2" d="M401.3 342.6s-9.6 6.1-13 10.4c-3.5 4.3-2 17.6 2.3 22 4.3 4.3 23.7-2.9 23.7-2.9l6.9-17.4-6.9-12.2-13 .1h0z"/><path class="st2" d="M397.2 346.9c-5.2-2.6-8.1-14.7 1.4-14.7-1.8-6.9 5.2-18.3 14.7-15.6 6.9-3.5 20.8 2.6 13.9 10.4 5.2 9.6-1.8 19.1-1.8 19.1s1.8 20 0 26.1c-1.8 6.1-13 4.3-14.7.9-1.8-3.5 4.3-22.6 0-24.3-4.2-1.9-8.3.8-13.5-1.9z"/><path class="st0" d="M416.9 340c.9-3.5 1.8-8.7-2.6-11.3-1.8 6.1-8.7 13-15.6 3.5M390 311.4s18.3-5.2 22.6-10.4M372.6 267.9c-4.3 3.5-4.3 11.3-2.6 16.5M435.1 366.1l16.5-1.8M438.6 314.2l13.9-2M416 271.4s8.7-6.1 9.6-10.4M372.6 234.9c2.6 3.5-3.5 16.5-3.5 16.5"/><path class="st2" d="M529.8 558.8c10.4 16.5 56.4 33.3 68.6 40.2 12.2 6.9 97.3 117.8 97.3 117.8s89.4-59.1 129.4-160.7c-18.2-9.6-146.8-75.5-146.8-75.5l-76.4-38.2-78.2 22.6s-16.5 38.2-19.1 38.2c-2.6.1 14.8 39.1 25.2 55.6z"/><path class="st0" d="M561 579.7c33.9-38.2 73.8-97.3 73.8-97.3M598.4 599.1c50.4-48.9 86.8-114.9 86.8-114.9M631.4 634.4c64.3-60.8 99-126.8 99-126.8M657.4 666.5C746 585.8 773.8 531 773.8 531M677.4 692.6C778.1 604 799.8 544 799.8 544M561 546.7l15.6 7.8M578.4 524.1l16.5 10.4M599.2 498l14 11.3M611.4 484.2l13 10.4M587.1 579.7l16.5 10.4M595.8 570.1l15.6 11.3M603.6 558.8l19.1 9.6M614.9 539.7l22.6 13.1M626.1 525l21.8 12.1M639.2 508.5l20.8 11.3M627.9 596.2l22.6 19.1M647 577.1l20.8 19.1M665.2 550.1l22.6 18.3M680 532.8l20.8 14.7M695.6 505.9l24.3 13.9M740.8 530.2l24.3 13M732.1 544.1l20.8 16.5M719.1 558.8l23.4 15.7M706.9 574.5l22.6 13.9M700 587.5l19.1 14.8M686.9 598.8l19.2 15.6M677.4 610.9l17.4 16.5M664.4 623.1l18.2 16.5M654.8 635.2l16.5 14.8M682.6 660.4l13 14.8M694.8 646.6l15.6 13.8M706.1 635.2l16.5 14.8M719.1 620.5l16.5 13M733.8 607.5l13.1 11.3M744.2 595.3l14 11.3M752.1 581.4l15.6 12.2M765.1 565.8l14.8 9.5M773.8 551l15.6 9.6M799.8 564.9l17.4 9.6M790.3 585.8l13 11.3M771.2 606.6l16.5 12.2M760.7 622.2l17.4 13M745.1 641.3l14.8 15.7M726.9 661.3l12.2 13.9M704.3 683l13 13.9"/><path class="st2" d="M580.2 395.6c-6.1 21.7 59.1 101.9 64.3 102.7 5.2.8 45.5-11.9 41.1-23.2-4.3-11.3-55.9-103.9-67.1-108.3-11.4-4.2-32.3 7.1-38.3 28.8zM534.1 549.3c7.8-7.8 48.6-22.6 48.6-22.6s-5.2-26.1-13.9-41.7c-8.7-15.6-31.2-12.2-31.2-12.2L515 489.4s11.3 67.7 19.1 59.9z"/><path class="st1" d="M318.8 679.6c17.8 8 249.2 6.1 275.3-4.3 19.2-7.7 30.4-64.3-1.8-74.7-32.1-10.4-243.6-4.5-267.4 1.8-35.7 9.1-28.8 66.9-6.1 77.2z"/><path class="st4" d="M333.2 664.7c23.2 5.8 223.5 3.5 241.7-1.7 18.3-5.2 20.8-46.9-1.8-49.5-22.6-2.6-227.3.2-238.8 4.9-11.5 4.6-24.3 40.5-1.1 46.3z"/><circle class="st3" cx="542.8" cy="638.7" r="25.2"/><circle class="st3" cx="470.7" cy="640.5" r="25.2"/><circle class="st3" cx="396.9" cy="638.4" r="25.2"/><path class="st3" d="M400.4 600.5c-14.7 2.6-86.2 47.8-89.1 53-2.9 5.2-2.9 11.3 4.9 12.2 3.5 2.6 11.3 0 11.3 0s6.9 2.6 11.3-.9c6.1 3.5 13-.9 13-.9s10.4 6.1 15.6-5.2c6.9 6.1 13.9-.9 13.9-.9s9.6 2.6 13-1.8c3.5-4.3-1.8-7.8.9-13.9 2.6-6.1 14.2-10.4 23.7-9.6 9.6.9 18.8-6.1 22.3-13s-2.6-17.4-2.6-17.4l-20.8-9.6c-.1.2-2.7 5.4-17.4 8z"/><path class="st0" d="M381.3 657.8s-1.8-9.6 1.8-13.9M367.4 658.7c-1.8-7.8 5.2-16.5 5.2-16.5M357 646.6c-6.9 8.7-5.2 17.4-5.2 17.4M338.7 664.8c-4.3-6.9 4.3-17.4 4.3-17.4M327.5 665.6c-3.5-3.5 5.2-13 9.6-16.5M316.1 665.6c-.9-8.7 9.7-14.8 9.7-14.8"/><path class="st1" d="M337.9 581.4s24.3-3.5 25.2-10.4c.3-2.7-3.8-6.9-4.6-15.4-1.3-13.8.4-34.2 2.1-42.8 2.6-13.9 61.7-48.6 61.7-48.6l86.8 33.9s33.9 7.8 34.7 23.4c.9 15.6-12.5 54.4-22 66.6-9.6 12.2-37 16.8-48.3 16.8-11.3 0-28.7-8.7-28.7-8.7s-1.8 4.3-6.1 6.1c-4.3 1.8-105.9.3-105.9.3l5.1-21.2z"/><path class="st0" d="M412.8 538.3c10.4 20.8 5.8 46.6 31.9 57.9"/><path class="st2" d="m245.8 513.7.9 28.6 71.2 5.2 17.4-40.8-60-18.2z"/><path class="st4" d="M417.7 386c7.8-8.7 65.1-10.4 79.9-.9 5.2 4.3 11.3 10.4 11.3 10.4l36.5 13.9-10.4 35.7-46 11.3-63.4-36.5s-15.7-25.2-7.9-33.9z"/><path class="st4" d="M453.4 396.4s-18.3-9.6-35.6-10.4c-17.4-.9-46.9 22.6-55.6 27.8-8.7 5.2-39.4 77.2-39.4 77.2l74.1-2.3 56.5-92.3z"/><path class="st4" d="M368.3 428.6s-.9-15.6-6.9-18.3c-6.1-2.6-20.8 0-27.8 8.7-6.9 8.7-6.4 23.4-6.4 23.4l2 14.7 33.9-6.1 5.2-22.4z"/><path class="st4" d="M342.2 448.5s21.7-3.5 20-10.4c-1.8-6.9-12.2-2.6-13.9-8.7-1.8-6.1 10.4-13.9 21.7-7.8 6.9 3.5 13 22.6 4.3 33-8.7 10.4-28.7 4.3-28.7 4.3l-12.2 1.8 8.8-12.2z"/><path class="st4" d="M313.5 477.2s9.6-31.2 12.2-34.7c2.6-3.5 20.3 7.8 19.4 13.9-.9 6.1-5.5 25.2-5.5 25.2l-26.1-4.4z"/><path class="st1" d="M528 443.4s-46-41.7-65.1-46.9c-19.1-5.2-59.9 10.4-70.3 22.6-10.4 12.2-16.5 48.6-23.4 53-6.9 4.3-64.3 2.6-64.3 2.6l-20.8-1.8s-7.8 0-18.3-1.8c-13-3.5-42.6-44.3-47.8-46-5.2-1.8-12.2 3.5-11.3 13.9.9 10.4 22.3 26.9 27.8 33-4.3 1.8-33.9.9-37.3 2.6-3.5 1.8-4.3 5.2-5.2 8.7-.9 3.5 3.5 6.9 3.5 6.9s-5.2 6.9-3.5 12.2c1.8 5.2 7.8 8.7 7.8 8.7s0 11.9 12.2 14.5c12.2 2.6 59.9-12.7 66.9-13.6 6.9-.9 22.6-.9 22.6-.9s69.5 6.1 85.1 3.5c15.6-2.6 36.5-20.8 41.7-28.7 24.3 0 37 9.3 49.2 24.9 12.2 15.6 66.3 10.7 66.3 10.7l-.9-48.6-14.9-29.5z"/><path class="st2" d="M218.9 440.7c3.5.9 6.9-2.6 10-4.8-5.2-5.9-9.3-10.3-10.9-10.9-3.8-1.3-8.5 1.2-10.5 6.6-.7 2.2 7.9 8.3 11.4 9.1z"/><path class="st0" d="M454.2 461.6s-19.1 15.6-26.1 24.3"/><path class="st2" d="M284 472.9s-7.8 0-18.3-1.8c-1.9-.5-4.2-1.8-6.6-3.7-1-.7 4.9-11.4 10.1-12.3 5.2-.9 21.4-1.4 27.5 2.9 6.1 4.3 8.7 5.1 11.6 16.5 2.2 8.5-11.3 60.8-11.3 60.8s-14.7 6.9-21.7.9c1.8-44.2 8.7-63.3 8.7-63.3zM208.5 577.1l-21.7 66 39.1 9.5 9.5-71.2zM341.9 582.3l9.5 68.8-40.1 2.4 3.3-71.8z"/><path class="st8" d="m195.4 643.1 11.3-44.3M205 645.7l7.8-43.4M211.9 647.4l6.1-42.5M219.8 650.9l4.3-46M339.7 603.9l3.2 45.7M333 650.4l.1-44.1M325.9 650.9l1.6-43M317.5 652.9l4-46.1"/><path class="st2" d="M247.5 608.3c-3.5 0-13.4 19.1-7.6 30.4 5.8 11.3 57.4 9.6 60.8 1.8 3.5-7.8-2-30.4-2-30.4s-47.7-1.8-51.2-1.8z"/><path class="st8" d="M247.3 640.5v-14.8M257.2 645.7v-19.1M266.3 645.7l-1.7-19.1M273.7 646.6l-.8-19.2M283.6 643.9l-.8-17.3M292.7 642.2l-.8-18.2M247.3 691.7l6.3-35.6M257.1 692.6l2.6-33.9M267.5 692.6l-.8-33.9M278 691.7l-1.8-32.1M290.1 689.1l-3.5-31.3"/><circle class="st2" cx="222.8" cy="574" r="17.8"/><circle class="st0" cx="222.8" cy="573" r="6.3"/><circle class="st2" cx="328.4" cy="576.7" r="17.8"/><circle class="st0" cx="328.6" cy="575.7" r="6.3"/><path class="st2" d="M252.8 567.5s-17.4 6.1-16.8 27.8c0 17.4 17.1 22 40.5 22.9 23.4.9 36.2-11.6 37-22 .9-10.4-7.8-28.7-7.8-28.7h-52.9 0z"/><path class="st2" d="M263.2 564s-13.9 11.3-13.9 25.2c.9 10.4 12.2 19.1 24.3 19.1 12.2 0 21.7-6.9 23.4-19.1 1.8-12.2-3.5-23.4-3.5-23.4l-30.3-1.8z"/><path class="st2" d="M247.5 536c-13 3.8-17.4 29.8 0 32.4 17.4 2.6 53 1.8 64.3.9s11.3-26.1 2.6-31.2c-8.7-5.3-53.8-5.9-66.9-2.1z"/><path class="st0" d="M251 548.4c-6.1 1.8-4.3 9.6 0 11.3 4.3 1.8 50.6.6 54.1-.3 3.5-.9 4-10.1.6-11-3.4-.9-48.6-1.7-54.7 0z"/><path class="st2" d="M270.1 577.3s1.8 6.9-11 6.9M277.7 577.3s-1.8 6.9 11 6.9M270.1 601.1s1.8-6.9-11-6.9M277.7 601.1s-1.8-6.9 11-6.9"/><circle class="st3" cx="513.8" cy="455.5" r="12.2"/><circle class="st3" cx="515" cy="426" r="12.2"/><circle class="st3" cx="529.8" cy="485" r="12.2"/><circle class="st3" cx="556.7" cy="501.5" r="12.2"/><circle class="st3" cx="590.6" cy="497.2" r="12.2"/><circle class="st3" cx="621" cy="472" r="12.2"/><circle class="st3" cx="629.6" cy="439.9" r="12.2"/><circle class="st3" cx="619.2" cy="406.9" r="12.2"/><circle class="st3" cx="588" cy="389.5" r="12.2"/><path class="st1" d="m508.9 395.6 21.7 20.8c-6.9 12.2-15.6 51.2 7.8 67.7s55 2.6 67.1-6.9c12.2-9.6 18.8-42.6 4.9-62.5-13.9-20-42.6-18.3-46-19.1-3.5-.9-14.7-33-14.7-33s-31.2 13-40.8 33z"/></svg>