<svg version="1.1" id="Calque_1" xmlns="http://www.w3.org/2000/svg" x="0" y="0" viewBox="0 0 900 900" style="enable-background:new 0 0 900 900" xml:space="preserve"><style>.st0,.st1,.st2{fill:#4f4f4f;stroke:#000;stroke-width:5.2525;stroke-linecap:round;stroke-linejoin:round;stroke-miterlimit:10}.st1,.st2{fill:#fff}.st2{fill:#ffce06}.st4{fill:#0074ff}.st5,.st6,.st7{fill:none;stroke:#000;stroke-width:5.2525;stroke-linecap:round;stroke-linejoin:round;stroke-miterlimit:10}.st6,.st7{fill:#ff0808}.st7{fill:#0074ff}</style><path class="st0" d="M498.4 147.9c-6.5-37.1-10.8-46 1.1-50.7 9.5-3.8 18.6 3.2 18.1 7.4s-8.6-1.6-13.1 0-7.9 10.5-2.5 16.3c5.4 3.7 8.1 6.8 20.2 2.6 12.1-4.2 12.3-12.6 10-28.9S509.1 71 498.4 71.5c-10.9.5-26.5 11.5-30.7 23.6-4.2 12.1-.1 33.6 3.6 45.7s-3.7 18.9-3.7 18.9l6.4 53.1s8.3 1.8 16.9.4c4.6-12.7 12.1-38.8 7.5-65.3z"/><path class="st1" d="M504.4 104.6c4.5-1.6 12.6 4.2 13.1 0s-8.6-11.1-18.1-7.4c-11.9 4.7-7.6 13.7-1.1 50.7 4.6 26.5-2.9 52.5-7.6 65.2 4.4-.7 8.9-2.3 12.5-5.5 10.5-9.3 8.4-75-1.5-86.8-5.2-5.7-1.9-14.6 2.7-16.2z"/><path class="st2" d="M449.2 122c-34.7-26.1-80.9-12.6-97.2-26.3s-4.7-37.3 6.3-29c11 8.3-3.7 7.5-3.2 16.4.5 8.9 13.1 12.1 20.5 6.3 18.9-16.3-6.3-39.4-19.4-39.4s-31 9.5-31 33.6 26.8 34.7 26.8 34.7l72 20 15.1 77.2 27.5-2.1c3.8-19.7 10.3-70.6-17.4-91.4z"/><path class="st1" d="M467.6 122.5c-26.3-29.4-72-31.5-91.9-33.1-7.4 5.8-20 2.6-20.5-6.3s14.2-8.1 3.2-16.4c-11-8.3-22.6 15.3-6.3 29s62.5.3 97.2 26.3c27.7 20.8 21.2 71.9 17.4 91.4l7.2-.5c0-.1 20-61-6.3-90.4z"/><path class="st0" d="M424 138.2C399.4 122 277.5 121.4 254.9 122c-22.6.5-32.6-2.6-38.3-14.2s5.8-28.4 16.3-19.4c10.5 8.9-7.9 4.7-3.2 16.3 4.7 11.6 20.5 11.6 24.7 5.3.1-.2.3-.5.5-.7 3.2-4.6 7.6-15 2.6-25-5.3-10.5-20-20-38.3-16.8s-31.5 23.6-27.8 35.7c3.7 12.1 14.7 28.9 34.7 34.1s150.2 6.3 176.5 16.3c26.3 10 16.6 54.2 16.6 54.2l23.3-1.6c.8-15.9.9-55-18.5-68z"/><path class="st0" d="M254.9 109.1c-.2.3-.4.5-.5.7.2-.1.3-.4.5-.7z"/><path class="st1" d="M427.7 128.3c-38.3-22.1-163.4-13.7-173.3-18.4-4.2 6.3-20 6.3-24.7-5.3-4.7-11.6 13.7-7.4 3.2-16.3s-22.1 7.9-16.3 19.4 15.8 14.7 38.3 14.2c22.6-.5 144.5 0 169.1 16.3 19.4 12.9 19.3 52.1 18.4 67.9l10.5-.7c0 .1 13.1-55.1-25.2-77.1z"/><path d="M537.5 297.4s3.2-8.4 7.7-16.6c-4.4-.6-13.9-2.9-18.6-10.1-4.9 8.5-8.5 16.7-11.1 16.7-2.7 0-.4-16.5 6-31.8-5.1-.7-17.1-3.2-24.2-10.8-4.1 10.7-8.5 21.1-18.9 23.2-10.7 2.1-18.9-4.2-18.9-9.5 0-7.1 14.3-3.7 22.1-16.8 3.8-6.3 1.1-23.1-5.3-29.4s-12.4-9.2-24.7-11.6c-17.6-2.1-30 1.6-36.2 10-6.2 8.4-6 24.7-.9 30.5 5 5.8 13.1 3.7 13.1 8.9s-4.9 10.5-15 8.9c-10.1-1.6-11.6-8.4-15.1-17.1-.9-2.2-.8-6-.5-10.6-5.1.9-13 2.1-19.6 1.8 2.3 18.9 1.2 37.8-3.2 37.5-3.5-.2-3.5-7.7-5-17.1-5.4 1.6-14.8 4-22.7 4.4 3.4 14.2 2.8 30 2.8 30 .4 14.2 10.7 41.5 37 41 6.9-.1 19.1.9 33.2 2.5l90.8 3-1.2-5c-.2 0 22.1-13.9 28.4-32z" style="fill:#ff0808"/><path class="st4" d="M557.4 287.4c-7.6-.7-13.8 3.8-17.2 7-.9.9-1.8 2-2.7 2.9-6.3 18.1-28.7 32-28.7 32l1.2 5 23.2.7s10.7-8.4 13.2-19.7c2.5 5.5 4.9 11.9 17.9 9.8 12.9-2.1 12.9-13.7 12.9-22.1s-8.2-14.5-19.8-15.6zM386.1 328.9c-26.3.5-36.6-26.8-37-41 0 0-18.7-10.5-27-7.4-8.3 3.2-16.3 7.9-16.3 17.3s3.7 14.4 12.6 16.8 16.3.7 18.9-3c4.7 13.8 22.5 17.8 22.5 17.8l59.5 2c-14.1-1.7-26.3-2.6-33.2-2.5z"/><path class="st5" d="M560 309.5c-3.7-6.3-13.7-4.7-13.7 6M324.2 298.4c11.6-6.8 17.1 7.2 13.1 13.2"/><path class="st2" d="M521.4 255.6c4.5-10.8 11.1-21.1 19.3-24.4 19.7-7.9 33.8-10.7 37.8-11.6 4-.8 4-10-2.6-12.6-6.6-2.6-34-6.3-51.5 1.6-17.4 7.9-22.6 24.2-26.8 35.2-.1.3-.2.6-.4.9 7.1 7.7 19 10.1 24.2 10.9zM348.8 220.7c-16.1-9.2-29.8-13.1-41.4-10.5-11.6 2.6-12.1 10-7.9 14.7 4.2 4.7 22.6 2.6 36.7 13.7 5 4 8.1 11.5 10 19.3 7.9-.5 17.3-2.9 22.7-4.4-1.8-10.9-5.9-24.6-20.1-32.8zM396.8 231.3c.8-13.3 3.7-34.4-8.5-51.1-16.5-22.6-44.1-24.7-52.5-21.5s-11.6 11-4.2 16.3c7.4 5.3 23.6 8.4 35.7 24.7 4.9 6.7 8.3 20.1 9.9 33.4 6.6.3 14.4-.8 19.6-1.8zM576.3 246.1c-4-1.4-22.6.2-35.5 7.7-5.7 3.3-10.4 10.2-14.3 16.9 4.7 7.2 14.3 9.5 18.6 10.1 3.5-6.3 7.7-12.4 11.8-14.4 9.5-4.7 18.9-4.2 21.5-8.4 2.7-4.2 1.9-10.5-2.1-11.9z"/><path class="st5" d="M526.5 270.7c-4.9 8.5-8.5 16.7-11.1 16.7-2.7 0-.4-16.5 6-31.8-5.1-.7-17.1-3.2-24.2-10.8-4.1 10.7-8.5 21.1-18.9 23.2-10.7 2.1-18.9-4.2-18.9-9.5 0-7.1 14.3-3.7 22.1-16.8 3.8-6.3 1.1-23.1-5.3-29.4s-12.4-9.2-24.7-11.6c-17.6-2.1-30 1.6-36.2 10-6.2 8.4-6 24.7-.9 30.5 5 5.8 13.1 3.7 13.1 8.9s-4.9 10.5-15 8.9c-10.1-1.6-11.6-8.4-15.1-17.1-.9-2.2-.8-6-.5-10.6-5.1.9-13 2.1-19.6 1.8 2.3 18.9 1.2 37.8-3.2 37.5-3.5-.2-3.5-7.7-5-17.1-5.4 1.6-14.8 4-22.7 4.4 3.4 14.2 2.8 30 2.8 30s-18.7-10.5-27-7.4c-8.3 3.2-16.3 7.9-16.3 17.3s3.7 14.4 12.6 16.8 16.3.7 18.9-3c4.7 13.8 22.5 17.8 22.5 17.8l173.3 5.8s10.7-8.4 13.2-19.7c2.5 5.5 4.9 11.9 17.9 9.8 12.9-2.1 12.9-13.7 12.9-22.1s-8.2-14.7-19.7-15.8c-11.6-1.1-20 10-20 10s3.2-8.4 7.7-16.6c-4.4-.6-13.9-2.9-18.7-10.1z"/><path class="st6" d="M544.1 519.2c-28.7-8.9 8.1 39.1 8.1 39.1s44.2 6.6 102.3-16l-10.6-36.7c-28.3 8.9-75 21.2-99.8 13.6z"/><path class="st5" d="M671.9 534.7c1.8-.8 3.5-1.7 5.3-2.5-2.2.4-3.9 1.3-5.3 2.5z"/><path class="st7" d="M713.4 504.9c-14.2-11-33-11.6-57.8-3.2-3.4 1.2-7.4 2.4-11.9 3.9l10.6 36.7c5.7-2.2 11.6-4.7 17.4-7.6 1.4-1.3 3-2.1 5.3-2.5-1.8.8-3.6 1.8-5.3 2.5-5.4 4.8-4.6 14.8 0 23.4 5.8 10.8 29.9 11.8 46.7 0 17-11.7 9.2-42.2-5-53.2zM248.6 486s-35-12.1-51.2-4.7c-16.1 7.4-26.1 25-26.1 30.5s2.2 24.4 21.9 28.4c10.4 2.1 20 1.1 28.7-5.7 7.9-6.1 8.3-13.9 2-19.2-.6-.5-1.4-.9-2-1.5.7.4 1.4.9 2 1.5 6.2 4.5 13.1 8.3 20.3 11.5l8.1-40.1-3.7-.7z"/><path class="st5" d="M223.9 515.3c-.6-.5-1.3-1.1-2-1.5.6.5 1.3.9 2 1.5z"/><path class="st6" d="M244.2 526.7c42.7 19 96.3 17 96.3 17l15.8-38.3-104-18.8-8.1 40.1z"/><path d="m375.7 394-20 123.4s-19.6 53.1-28.9 69.3-43.3 13.1-64.6 17.9c-21.3 4.7-29.5 14.7-33.1 14.2-1.9-5.6-5-8.4-15.8-7.9-10.7.5-18.4 6.1-21 16.3s5.3 17.3 5.3 17.3-18.4 7.1-20 19.4c-1.6 12.3 6.8 18.9 11.6 21 4.7 2.1 15.2 1.8 18.4-4.2 1.4 9.6-4.8 38-11.9 67.5 25.9 4 96.9 13.9 250.9 16h.6l5.6-366.8-77.1-3.4z" style="fill:#cc4a14;stroke:#000;stroke-width:5.2525;stroke-linecap:round;stroke-linejoin:round;stroke-miterlimit:10"/><path class="st0" d="M707.6 677.5c-4.9-9.9-19.4-10.3-19.4-10.3s12.1-10.5 6.8-24.2-16.5-14.4-25.2-10.5c-8.7 3.9-10.2 9.8-7.9 15.2-5.3-4.2-10.9-11-19.4-14.2-8.5-3.2-67.5-11.9-77.7-33.6-10.2-21.7-38.9-154.4-38.9-154.4l-12.1-45.2-61-2.7-5.6 366.8c161.4 2.1 224.8-2.3 242-3.7-3.2-27.7-6.5-52.7-7.9-59.4 7 6.8 16.1 6.1 21.3 2.9s9.9-16.9 5-26.7z"/><path d="M447.6 796.4c-161.5-2.5-237.5-7.4-261.5-9.2-5.5 22.1-9.5 39.3-8.5 41.8 5.8 14.7 22.9 2.4 29.4 2.1s9.2 7 18.4 6.8c9.1-.2 15-7.9 21.5-8.4s8.9 6.8 16.8 6.3 18.7-7.1 26.3-6.8 10 7.4 17.3 7.9c7.4.5 18.9-7.1 26.3-6.3 7.4.8 11.6 7.1 21.5 7.9 10 .7 14.2-6.3 24.7-6.8s11.1 7.6 18.5 7.9c7.4.3 14.1-5.6 20.9-5.3 6.8.3 12.9 9.1 19.4 7.4s13.3-9.3 19.4-7.4 14.2 6.6 25.2 6.8c11 .2 14.9-5.5 23.6-5.3 8.7.2 12.6 8.6 24.7 9.5s18.4-4.7 25.7-4.2c7.4.5 10.2 8.4 20.5 8.4s22.9-6.1 31-6.3c8.1-.2 9.1 5.3 17.9 5.3 8.7 0 11.6-5.8 18.9-5.8 7.4 0 12.6 5.8 20.5 5.8s8.2-2.6 14.2-3.2 11.9 6.8 15.8 4.2c1.6-1.2-.1-24.7-2.9-52.7-18.2.5-82 2.1-245.5-.4z" style="fill:#ffce00;stroke:#000;stroke-width:5.2525;stroke-linecap:round;stroke-linejoin:round;stroke-miterlimit:10"/><path d="M449.7 763.3c-154.1-2-228.1-10.9-254-14.9-3.2 13.2-6.6 26.7-9.6 38.7 24 1.9 100 6.7 261.5 9.2 163.5 2.5 227.2.9 245.5.3-1.2-11.7-2.5-24.1-3.9-36-17.2 1.4-77.7 4.8-239.5 2.7z" style="fill:red;stroke:#000;stroke-width:5.2525;stroke-linecap:round;stroke-linejoin:round;stroke-miterlimit:10"/><path class="st5" d="M213.6 626.5s3 8.1 9.1 7c6.1-1.1 9.5-9.7 6.5-14.7M197.4 666.9c11.2-5.3 15.2 7 10.2 14M197.6 644.6c6-2.3 16 6.1 16 6.1M699.8 541.1c0-6.3-8.1-15.7-22.6-8.9M199.7 519.5c0-7.8 13.9-13.6 22.2-5.7"/><path class="st6" d="M589.5 477.6c-31.5-3.2-57.8-30.5-57.8-30.5l11 56.7s35.4 16.1 73 12.1c37.6-4 62.5-17.9 67.8-49.4.5-2.9.8-6.1.9-9.6-8.6-4.2-23-9.3-42.2-9.7-4.1 21.4-21.9 33.4-52.7 30.4z"/><path class="st2" d="M728.6 294.8c-11 0-60.9 3.2-84 41s1.6 88.2-2.1 110.3c-.1.4-.2.8-.2 1.3 19.2.3 33.6 5.5 42.2 9.7 1.8-33.5-9.6-88-6.2-107.6 3.6-21.6 43.5-34 50.3-54.7zM251.7 333.6c-32-31-74.6-23.1-79.3-12.6 8.1 10.4 35.7 8.4 50.9 29.9 8.8 12.5 2.3 49.1 3.3 83.2 16.1-5.8 31.6-6.8 40.5-6.9-.9-30.3 8.9-70.1-15.4-93.6z"/><path class="st6" d="M272.7 452.9c-4-7-5.4-15.8-5.6-25.5-8.9 0-24.5 1.2-40.5 6.9.6 24.9 5.3 48.5 22.5 60.7 41 28.9 95.6 21.6 95.6 21.6l11.6-51.6c-.1-.1-67.3 16.8-83.6-12.1z"/><path class="st1" d="M263.8 552.7c0 14.2 19.4 21 31 11 11.6-10 50.4-128.7 64.6-156-6.3 61.5-40.1 157.6-37.3 169.7 2.8 12.1 33.6 12.1 39.4 6.5 5.8-5.5 28.4-115.2 45.2-169.9 2.6 54.1-21 159.7-11 168.8 10 9.2 29.9 6 35.7 1.1 5.8-4.9 14.8-116.3 21.5-157.8 3.2 28.7 5.8 162.3 13.7 167 7.9 4.7 31 2.9 33.6-3.2s-12.6-147.6-2.6-171.8c9.5 75.1 29.4 168.1 42.5 173.9 13.1 5.8 30.5-3.2 32-10.3 1.6-7-27.3-92.1-29.4-169.9 15.8 66.7 49.9 149.2 61.5 156 11.6 6.8 30.5-2.6 30.5-14.7s-45.2-108.7-53.6-153.9c-8.4-45.2-20.5-50.9-41.5-69.9-21-18.9-152.3-17.3-182.8-2.6-30.5 14.7-33.1 33.1-42.5 81.9-9.5 49-50.5 129.9-50.5 144.1z"/><path class="st5" d="M290.5 513s-12.8 24.8-2.9 26.5c9.9 1.7 14.6-20.1 14.6-20.1M313.7 455.6s-12.6 22.5-2.1 26.2 12.6-18.9 12.6-18.9M332.6 399.8s-7.4 23.1 0 24.7c7.4 1.6 14.7-18.8 14.7-18.8M351 350.4s-6.8 26.3 5.3 27.3c12.1 1.1 12.1-27.3 12.1-27.3M394.6 350.4s-3.7 24.2 10 24.2 10.5-27.3 10.5-27.3M438.7 347.3s0 30.5 11.6 27.3 7.4-27.3 7.4-27.3M377.8 409.8s-5.3 26.3 2.6 26.3 10.5-23.8 10.5-23.8M363.6 468.9s-8.4 22.8 0 22.8 11.6-21.7 11.6-21.7M347.3 529.9s-9 25.9 1.8 27c10.7 1.1 14-25.5 14-25.5M411.4 541.1s-3.2 25.5 5.8 25.5 8.4-23.3 8.4-23.3M417.5 484.4S413 513 421.9 513s12.6-28.6 12.6-28.6M425.5 419.3s-7.8 26.8 2.2 28.9c10 2.1 11-28.9 11-28.9M469.2 419.3s.5 29 8.4 29 5.8-29 5.8-29M469.2 482.2s.5 33.3 10.5 31.5c10-1.8 3.9-29.3 3.9-29.3M471.3 551.1s2.1 26.7 10.2 26.8c8.2.1 5.6-28.9 5.6-28.9M535.9 543.7s7.4 26.1 14.2 22.9c6.8-3.2 1.1-27.1 1.1-27.1M523.8 482.2s2.6 26.9 12.1 24.8c9.5-2.1 2-28.2 2-28.2M512.2 419.3s2.6 26.9 12.9 23.3c10.2-3.6 0-30.4 0-30.4M553.4 409.8s8.7 30.1 16.6 24c7.9-6.2-2.1-28-2.1-28M573.1 473.8s9.6 22.2 18 18c8.4-4.2-4.2-29.4-4.2-29.4M597.3 526.3s8.4 25.2 16.3 19.5c7.9-5.7-3.7-26.4-3.7-26.4M521 354.1s8.7 21.5 18.7 17.3c10-4.2-.5-24.2-.5-24.2M479.4 347.3s-.7 25.2 12.4 25.2 7.9-27.8 7.9-27.8M661.9 647.7c3.4 7.9 11.8 7.9 13.4 2.9M681.4 701.3c-5.3-7-1.2-16.6 7.1-14.2M688.2 667.2c-4.4 3.9-16 4.2-16 4.2"/></svg>