<svg version="1.1" id="Calque_1" xmlns="http://www.w3.org/2000/svg" x="0" y="0" viewBox="0 0 900 900" style="enable-background:new 0 0 900 900" xml:space="preserve"><style>.st0,.st1,.st2,.st3,.st4,.st5{fill:#fff;stroke:#000;stroke-width:8.6085;stroke-linecap:round;stroke-linejoin:round;stroke-miterlimit:10}.st1,.st2,.st3,.st4,.st5{fill:none}.st2,.st3,.st4,.st5{fill:#ff7300}.st3,.st4,.st5{fill:#ffce00}.st4,.st5{fill:#0068ff}.st5{fill:red}.st7{display:inline}.st8,.st9{stroke-width:3.5433}.st8{fill:red;stroke:#000;stroke-linecap:round;stroke-linejoin:round;stroke-miterlimit:10}.st9{fill:#ffce00}.st10,.st11,.st9{stroke:#000;stroke-linecap:round;stroke-linejoin:round;stroke-miterlimit:10}.st10{fill:#0065aa;stroke-width:3.5433}.st11{fill:none}.st11,.st12,.st13,.st14{stroke-width:3.5433}.st12{fill:#fff;stroke:#000;stroke-linecap:round;stroke-linejoin:round;stroke-miterlimit:10}.st13,.st14{display:inline}.st13{fill:#ffce00;stroke:#000;stroke-linecap:round;stroke-linejoin:round;stroke-miterlimit:10}.st14{fill:#0065aa}.st14,.st15,.st16,.st17{stroke:#000;stroke-linecap:round;stroke-linejoin:round;stroke-miterlimit:10}.st15{display:inline;fill:none;stroke-width:3.5433}.st16,.st17{fill:#fff}.st16{display:inline;stroke-width:3.5433}.st17{stroke-width:3.6851}</style><g id="XMLID_21_"><path id="XMLID_86_" class="st0" d="M638 185.7s1.7-57.2 68.9-66.5c35.9-4.9 86.7 20 107 79.6 28 82.6-2.8 176.9-24.3 190s-72.5 8.6-78.1-8.6c-5.8-17.2 39.4-116.2 38.1-159.3s-20-60.9-45.8-60.3-33.6 43-33.6 43L638 185.7z"/><path id="XMLID_85_" class="st0" d="M382.8 189.4s-68.2-51.2-122.5-48c-71.7 4.3-165.1 127.4-165.9 180.1-.6 52.7 42.2 49.7 55.3 39.4 31.6-24.5 28.4-139.9 112.8-172.2 37-14.2 80.3 28 80.3 28l40-27.3z"/><g id="XMLID_36_"><path id="XMLID_108_" class="st1" d="M644 191.3s19.4-52.1 58.8-57.9c18.3-2.6 37.2 4.3 51.7 12.9 14.4 8.6 41.3 52.1 45.8 89.7 9.3 75.1-32.3 138-32.3 138"/><path id="XMLID_109_" class="st1" d="M656.7 191.3s17.2-42 49.3-43.5c10.3-.4 33.6 8.2 44.8 20.7 59.4 67.6-20.2 172.4-16.6 201"/><path id="XMLID_119_" class="st1" d="M358.2 191.3s-56.6-39.2-95.8-35.7c-28.4 2.6-55.1 23.7-84.8 57.5S102.3 302 113 345.9"/><path id="XMLID_120_" class="st1" d="M132.9 352.3c1.5-4.3 4.3-30.3 13.6-53.2 9.3-22.8 73-128.5 115.8-128.9 42.8-.4 70.2 20.9 70.2 20.9"/></g><g id="XMLID_127_"><path id="XMLID_89_" class="st2" d="M486.3 204.4c14.8-53.2-2.4-116.2 23.5-111.9 25.8 4.3 23 100.5 23 100.5l-23 42.4c-.1 0-38.4 22.2-23.5-31z"/><path id="XMLID_93_" class="st2" d="M367.7 193.7c-24.3-32.9-21.5-70.8-10.8-73.2 10.8-2.2 27.3 8.6 44.5 29.3 17.2 20.7 32.9 66.7 32.9 66.7l-36.6 23.2c.1.3-5.7-12.9-30-46z"/><path id="XMLID_88_" class="st2" d="M509.7 210.3s42.4-122.7 56.6-117.7 8.4 70.4 8.4 70.4l-36.8 81.8-28.2-34.5z"/><path id="XMLID_87_" class="st2" d="M546.7 201c5.4-34.9 53.4-115.4 71.3-104 17.9 11.4-15.7 72.7-20 124.6-4.3 51.9-45 14.6-45 14.6s-11.6-.6-6.3-35.2z"/><path id="XMLID_91_" class="st2" d="M448 199.5c-2.8-2.2-29.1-56-29.1-56s14-41.5 45.4-34.4c31.6 7.1 31.6 90.4 31.6 90.4l-21.5 36.6-26.4-36.6z"/><path id="XMLID_90_" class="st2" d="M423.2 210.3s-37-30.1-33.4-58.8 21.7-32.9 39.6-27.3c17.9 5.8 22.8 75.3 22.8 75.3l-29 10.8z"/></g><g id="XMLID_28_"><circle id="XMLID_38_" class="st3" cx="666" cy="776.7" r="19.8"/><circle id="XMLID_63_" class="st3" cx="467.8" cy="779.9" r="19.8"/><circle id="XMLID_62_" class="st3" cx="574.3" cy="787.9" r="19.8"/><circle id="XMLID_64_" class="st3" cx="382.3" cy="760.1" r="19.8"/><g id="XMLID_68_"><path id="XMLID_70_" class="st3" d="M642.5 732.1c-9.7-14.4-18.9-28.2-27.1-40.9-25.8 1.1-64.1.2-116.6-6.9-74.9-10.3-117.1-27.1-137.1-37.7L351.4 681c24.1 12.9 73 33.8 152.8 44.8 62.8 8.9 108.8 8.7 138.3 6.3z"/><path id="XMLID_71_" class="st3" d="M503.9 726.1c-79.8-11.2-128.7-32.1-152.8-44.8L338.2 724s184.4 71 320.9 32.9c-5.6-8.4-11.2-16.6-16.6-24.7-29.5 2.3-75.5 2.5-138.6-6.1z"/></g><g id="XMLID_40_"><path id="XMLID_65_" class="st3" d="M387.1 562.6 361.7 647c16.1 8.4 46.3 20.7 96.2 30.8v-109l-70.8-6.2z"/><path id="XMLID_69_" class="st4" d="M564.8 614.8 511 573.1l-53.4-4.5v108.9c12.5 2.6 26 4.7 40.9 6.9 52.5 7.3 90.8 8.2 116.6 6.9-30-45.2-50.3-76.5-50.3-76.5z"/></g></g><path id="XMLID_67_" class="st0" d="M262.9 657.2 75 552.4s46.5-42 88.2-133.4 34.4-137.7 62.4-143.5 125.5 55.3 125.5 55.3l16.6 88.2-37.2 188.5-67.6 49.7z"/><g id="XMLID_124_"><path id="XMLID_125_" class="st5" d="M556.2 599.1c15.5 15.9 49.9 5.2 57 2.6-.2-11.4-1.3-21.3 1.3-26.5 0 0 24.1.9 31.2-8.8 7.1-9.7-8.6-39.8-8.6-39.8s-43.7 0-62.4 14.4c-18.5 14.2-35.7 40.1-18.5 58.1z"/><path id="XMLID_126_" class="st3" d="M668.6 530.9c9.5-5.4 6.5-17.2-2.2-31.2-8.6-14-28-18.3-27.8-34.4.2-16.1 7.3-14.4 10.5-22.6 3.2-8.4-10.5-30.1-10.5-30.1l-44.3-23.7-148.5 38.7s-26.9 96.8-26.9 96.4 18.9 63.7 38.7 80.3c19.8 16.6 89.1 20 103.3 19.4s15.5 4.5 21.5 7.5c11 5.4 27.5 4.3 30.1-12.9.9-5.6.9-11 .9-16.4-7.1 2.6-41.8 13.3-57-2.6-17.2-17.9 0-43.7 18.7-58.1 18.7-14.4 62.4-14.4 62.4-14.4s19.2-10.3 31.1 4.1z"/></g><path id="XMLID_31_" class="st1" d="m556.2 477.1 45.8-23.7s3.7 22.2-1.5 27.3c-5.2 5.2-32.3 8.6-32.3 8.6"/><path id="XMLID_32_" class="st1" d="M580.7 501c12.3 0 25.6-7.3 25.6-7.3"/><path id="XMLID_33_" class="st1" d="M614.8 575.3c-28.4 0-40.5-4.1-40.5-4.1"/><g id="XMLID_39_"><path id="XMLID_41_" class="st5" d="M663.4 388.9c-7.1-12.9-24.5-15.7-24.5-15.7l-285.6-10.1c-8.4 58.8-11.4 91-41.5 185.1-30.1 94-111.9 159.3-111.9 159.3l122.9 66.1s47.3-68.2 73-192.6l35.9-19.2 20-79.4s8.6-40.2 58.1-53.2c49.5-12.9 129.1-16.6 129.1-16.6s13.8 21.7 10.5 30.1c-2.6 6.5-7.1 6.9-9.3 14.2 7.7-.9 18.5-3.9 23.5-13.3 7.8-16 6.7-41.8-.2-54.7z"/></g><path id="XMLID_37_" class="st1" d="M638.6 412.5c11.6 0 18.1 6.5 18.1 6.5"/><circle id="XMLID_60_" class="st1" cx="467.8" cy="779.9" r="19.8"/><circle id="XMLID_61_" class="st1" cx="467.8" cy="779.9" r="19.8"/><path id="XMLID_72_" class="st1" d="M250.6 443.3c-16.6 53.8-93.4 155-93.4 155"/><path id="XMLID_66_" class="st1" d="M138.1 514.6s26.5-27.5 35.1-23.2c8.6 4.3-2.8 35.3-2.8 35.3"/><path id="XMLID_73_" class="st1" d="M171.4 462.9s26.5-27.5 35.1-23.2c8.6 4.3-2.8 35.1-2.8 35.1"/><path id="XMLID_74_" class="st1" d="M113.7 553.9s26.5-27.5 35.1-23.2c8.6 4.3-2.8 35.1-2.8 35.1"/><path id="XMLID_75_" class="st1" d="M199.8 598.9s26.5-27.5 35.1-23.2c8.6 4.3-2.8 35.1-2.8 35.1"/><path id="XMLID_76_" class="st1" d="M223.9 553.9s26.5-27.5 35.1-23.2c8.6 4.3-2.8 35.1-2.8 35.1"/><path id="XMLID_77_" class="st1" d="M250.6 506.8s26.5-27.5 35.1-23.2c8.6 4.3-2.8 35.1-2.8 35.1"/><path id="XMLID_78_" d="M212.7 393.2c0-4.9 17.6-40.9 21.5-45.2 3.9-4.3 20.9 0 20.9 6.5S240 395.6 234 400.3c-6.2 4.9-21.3-2.2-21.3-7.1z"/><path id="XMLID_79_" d="M280.3 420.9c0-4.9 17.6-40.9 21.5-45.2 3.9-4.3 20.9 0 20.9 6.5s-15.1 41.1-21.1 45.8-21.3-1.9-21.3-7.1z"/><path id="XMLID_84_" class="st3" d="M526.1 303.4c0-4.9-6.9-33.8 36.6-78.1 43.5-44.5 106.3-53.8 106.3-53.8s6.5 46.7-12.3 87.4-34 68.4-34 68.4l-86.3 3.2-10.3-27.1z"/><g id="XMLID_111_"><path id="XMLID_118_" class="st3" d="M407.9 503.6c10.3-14 3.2-32.3 7.1-32.3 6.5 0 1.9 12.7 12.5 20 10.5 7.3 20.4 2.2 20.4 2.2 20.9-18.7 3-38.3-7.3-42.8s-37.2-3.9-51.4 14C375 482.6 364 556.8 380.6 573c16.6 15.9 30.8 2.2 30.8 2.2l3.2-2.2c-12.7-26.4-13.6-60.2-6.7-69.4z"/><g id="XMLID_29_"><path id="XMLID_35_" class="st1" d="M429.2 492.6c-.6-.4-1.1-.6-1.7-1.1-10.5-7.3-6-20-12.5-20-3.9 0 3.4 18.3-7.1 32.3-6.9 9.3-6 43 6.7 69.3l10.5-7.3c-4.9-16.4-12.2-50.2 4.1-73.2z"/><path id="XMLID_122_" class="st3" d="M448 493.7s-9 4.5-18.7-1.1c-16.1 23-8.8 56.8-3.9 73.2l24.7-16.8c0-.2 12.3-42.4-2.1-55.3z"/></g></g><circle id="XMLID_34_" class="st4" cx="428.6" cy="562.6" r="35.9"/><path id="XMLID_27_" class="st3" d="M638.6 465.5c-.2 16.1 19.2 20.4 27.8 34.4 8.6 14 10.3 25.6 2.2 31.2-3.7 2.4-12.5-1.3-19.6.4-9 1.9-16.8 8.4-22.4 3.2-10.1-9.3 2.2-20.2 2.2-20.2"/><g id="XMLID_103_"><path id="XMLID_102_" class="st1" d="m560.5 250.5 52.5 62"/><path id="XMLID_101_" class="st1" d="m585.3 313.6-37.3-44"/><path id="XMLID_99_" class="st1" d="m574.7 234.6 49.1 57.9"/><path id="XMLID_100_" class="st1" d="m655 196-4.1-4.7"/><path id="XMLID_98_" class="st1" d="m635.4 196.7 17.7 20.7"/><path id="XMLID_96_" class="st1" d="m591.1 220.6 43 51"/><path id="XMLID_97_" class="st1" d="m648.5 237.6-28.8-34"/><path id="XMLID_95_" class="st1" d="m605.3 211.1 36.8 43.5"/></g><g id="XMLID_30_"><path id="XMLID_83_" class="st3" d="M509.7 235.4c2.2-2.2 32.5-65.6 58.1-52.1 21.5 12.7-13.6 100.3-18.5 134.7-5.2 34.4-151.5 10.1-151.5 10.1l4.5-73.8 37.9-17.9 69.5-1z"/><path id="XMLID_82_" class="st3" d="M462 249s18.9-73.4 43.5-69.5c24.3 3.9 12.9 74.7 12.9 74.7"/><path id="XMLID_81_" class="st3" d="M474.4 259.7s0-69.5-26.5-76-44.5 45.8-44.5 45.8l-15.1 45.6"/></g><path id="XMLID_80_" class="st3" d="M367.7 310.8s-26.9-14.4-40.7-60.9 4.1-78.1 4.1-78.1 69.1 11.4 88 60.9 15.3 85.4 15.3 85.4l-66.7-7.3z"/><g id="XMLID_129_"><path id="XMLID_128_" class="st1" d="m336.9 217.8 30.8-17.7"/><path id="XMLID_121_" class="st1" d="m339.1 193.5 5.1-3"/><path id="XMLID_123_" class="st1" d="M413.1 263.2 366 290.3"/><path id="XMLID_107_" class="st1" d="m390.7 298.1 26.5-15.3"/><path id="XMLID_105_" class="st1" d="m352.6 272.2 53.6-30.7"/><path id="XMLID_106_" class="st1" d="m344.9 255.9 53.1-30.6"/><path id="XMLID_104_" class="st1" d="m386 212.4-46.3 26.5"/></g><g id="XMLID_130_"><path id="XMLID_131_" class="st0" d="M657.6 319.6c-2.6-4.1-5.6-7.5-9.5-10.3-9.3-6.7-81.8 4.7-154.3 2.4s-144.8-18.1-153.4-9.9c-2.8 2.6-5.4 5.8-8 9.7 23.7 6.2 78.6 17.2 169.4 17.2 83.5-.1 132.3-5.5 155.8-9.1z"/><path id="XMLID_132_" class="st0" d="M330.9 369.1c3.9 5.6 9.5 11 17 15.5 39.8 24.7 267.9 30.1 295.9 0 1.7-1.9 3.4-3.7 4.7-5.6-26 3.4-73 7.7-146.8 7.7-92.9 0-148-11.6-170.8-17.6z"/><path id="XMLID_133_" class="st0" d="M501.8 328.6c-90.8 0-145.5-11-169.4-17.2-3.2 4.9-6 10.8-7.7 17.2 17.6 5.4 74.2 19.6 177.1 19.6 90.8 0 141-6.5 161.4-9.9-.4-6.9-2.4-13.1-5.6-18.5-23.5 3.4-72.3 8.8-155.8 8.8z"/><path id="XMLID_134_" class="st0" d="M324.6 328.4c-1.7 6-2.4 12.5-1.7 18.7 15.5 4.9 72.3 20 178.8 20 86.9 0 136.7-6 158.6-9.5 2.4-6.9 3.2-13.6 2.8-19.8-20.4 3.4-70.6 9.9-161.4 9.9-102.8.3-159.4-13.9-177.1-19.3z"/><path id="XMLID_135_" class="st0" d="M322.9 347.3c.6 7.3 3 14.8 8 21.7 22.8 6.2 77.9 17.6 170.9 17.6 74 0 120.9-4.3 146.8-7.7 5.6-7.1 9.5-14.2 11.8-21.1-22.2 3.7-71.7 9.5-158.6 9.5-106.8.1-163.6-15-178.9-20z"/></g></g></svg>