<svg version="1.1" id="Calque_1" xmlns="http://www.w3.org/2000/svg" x="0" y="0" viewBox="0 0 900 900" style="enable-background:new 0 0 900 900" xml:space="preserve"><style>.st1{fill:#fff;stroke:#000;stroke-width:8.6085;stroke-linecap:round;stroke-linejoin:round;stroke-miterlimit:10}.st1,.st2{display:inline}.st3,.st4,.st5,.st7{fill:none;stroke:#000;stroke-width:8.6085;stroke-linecap:round;stroke-linejoin:round;stroke-miterlimit:10}.st4,.st5,.st7{fill:#ff7300}.st5,.st7{fill:#ffce00}.st7{fill:red}.st8{display:inline;fill:none}.st11,.st12,.st13,.st14,.st15,.st16,.st17,.st8,.st9{stroke:#000;stroke-width:8.6085;stroke-linecap:round;stroke-linejoin:round;stroke-miterlimit:10}.st9{display:inline;fill:#ffce00}.st11,.st12,.st13,.st14,.st15,.st16,.st17{fill:#fff}.st12,.st13,.st14,.st15,.st16,.st17{fill:red;stroke-width:3.5433}.st13,.st14,.st15,.st16,.st17{fill:#ffce00}.st14,.st15,.st16,.st17{fill:#0065aa}.st15,.st16,.st17{fill:none}.st16,.st17{fill:#fff}.st17{stroke-width:3.6851}</style><circle class="st12" cx="125.1" cy="369.6" r="11.3"/><circle class="st12" cx="186.9" cy="370.3" r="11.3"/><circle class="st13" cx="91.2" cy="319.2" r="8.9"/><circle class="st13" cx="83.9" cy="283.9" r="8.9"/><circle class="st13" cx="115.8" cy="264.6" r="8.9"/><path class="st14" d="M193.6 238.1c-2-4-12-4-15.3-.7-2.7-3.3-12-3.3-14.6 0-2.7-3.3-13.3-3.3-14.6.7-3.3-2.7-11.5-3.3-14.2 0-1.3 1.6 0 18.9 1.7 36.1h55.2c1.2-11.9 3.2-33.3 1.8-36.1z"/><path class="st15" d="M149.1 238.1v39.2M163.7 237.4v39.9M178.3 237.4l-1.3 39.9"/><path class="st13" d="M136.6 274.2c1.7 17.9 3.9 35.7 3.9 35.7l33.2-4L191 282s.4-3.1.8-7.8h-55.2z"/><path class="st14" d="M111.2 274.2c-17.9.7-25.5 19.5-19.5 30.8s23 15.1 23 15.1l37.6 5.1v-24.6c.1-.1-23.2-27.1-41.1-26.4zm-1.3 18.4c5.3-5.3 14.6-.7 23.5 14-21.8-.8-28.9-8.7-23.5-14z"/><path class="st15" d="M149.1 310.5s-12.2 0-15.7-4"/><path class="st12" d="M161.7 300.5c5.3-4.7 25.7-1.3 28.3-4.7 2.7-3.3 10.2-17.9 15.5-17.9 2.7 0 6.3 1.1 9.2 2.1 2.4-4.8 4.1-8.1 4.1-8.1s-.7-5.1-13.3-3.8c-12.6 1.3-19 17.3-20.4 19.3-1.3 2-15.5-.9-27.5 4.4-12 5.3-10.4 28.6-10.4 28.6l11.2 5c-.3-8.8-.2-21.9 3.3-24.9z"/><path class="st14" d="M205.5 277.9c-5.3 0-12.8 14.6-15.5 17.9-2.7 3.3-23 0-28.3 4.7-3.5 3-3.5 16.1-3.2 25l12.5 5.6s17.3-4 25.9-10.6c1.9-8 12-28.8 17.8-40.4-2.8-1.1-6.4-2.2-9.2-2.2z"/><path class="st13" d="M195.9 334.2c.7-7.5 1-13.8 1-13.8l-82.2-.4s0 6.6.9 14.4c17.5-3 64.5-3 80.3-.2z"/><path class="st14" d="M115.7 334.4c1.2 10.1 4 22.2 10.4 25.2 11.3 5.3 61.1 3.5 65.1.2 2.3-1.9 3.9-15.1 4.8-25.6-15.9-2.8-62.9-2.8-80.3.2z"/><path class="st16" d="M118.7 377.5c-2.8-.9-5-1.4-6.2-1.2-4.7.7-4.7 3.3-3.3 8-4 .7-7.3 7.3-4.7 11.3-4 2-4.7 8-1.3 12.6-2 2.7-2 5.3.7 8 1.6 1.3 3.9 2.2 6.4 2.8-1.8-22.1 5-36.1 8.4-41.5z"/><path class="st13" d="M412.8 426 357 442s-37.2 5.3-49.2 4c-12-1.3-48.5-22.6-48.5-22.6l-21.9-7.3-21.7-18.2s-18.2-15.1-24.1-17.1c-6-2-33.2-2.7-36.5-1.3-3.3 1.3-4.7 3.3-3.3 7.3-11.8-1.5-25-6.9-33-9.4-3.4 5.4-10.2 19.4-8.4 41.5 11.9 2.9 31.6-.6 41.4-1.7 12-1.3 34.8-2.4 38.8-1.8 4 .7 10.2 4.7 10.2 4.7l30.8 15.3s57.1 39.9 68.4 43.2c11.3 3.3 96.6-5.8 132.7-13.5 35.9-7.8-19.9-39.1-19.9-39.1z"/><path class="st16" d="M229.2 438.4s6.9 12.2 12.8 12.8c6 .7 11.3-8 8-11.3-3.3-3.3-17.3-10-17.3-10l8-10.6s12.6 12.6 17.3 12c4.7-.7 8.6-6 6.6-11.3-2-5.3-18.6-7.3-18.6-7.3l-17.3 2.7.5 23zM155 379.5c-3.3 1.3-4.7 3.3-3.3 7.3 1.7 1.2 5.5 1.8 10.1 2.2l.4-10.1c-3.6.1-6.3.3-7.2.6z"/><path class="st15" d="M161.8 389.1c8.2.7 18.6.8 22.4 2.5M137.1 392.8c-11.3-.7-22.6-4.7-27.9-8.6M134.4 402.1c-11.3-.7-24.6-2.7-29.9-6.6M132.4 410.8c-11.3-.7-23.9 1.3-29.2-2.7"/><path class="st14" d="M200.7 420.1c1.6 3.3 28.6 18.4 28.6 18.4l16.8-25.7s-26.1-14.6-30.3-14.4c-4.3.2-16.7 18.3-15.1 21.7z"/><path class="st12" d="M407.5 652.2c-28.3 0-51.2 21.4-51.2 47.8s22.9 47.8 51.2 47.8 51.2-21.4 51.2-47.8-22.9-47.8-51.2-47.8zm4.1 82.6c-.8-12.6 1.2-34.4 1.2-34.4l.7-13.3-17.9 1.3s-3.3 6-6.4 9.1c-2.7 2.7-7.3.9-10 3.3-2.1 1.9-2.7 6.9.3 9.3 2.7 2.2 10.1-1.7 9.4 3.1-.4 2.7-4.5 7-8.1 10.1-5.9-6.2-9.6-14.4-9.6-23.3 0-19.3 16.7-34.9 37.4-34.9 20.6 0 37.4 15.6 37.4 34.9 0 18.5-15.2 33.5-34.4 34.8z"/><path class="st16" d="M414.8 669.2s-4 6-10 12c-6-4-13.1-3.3-14.4 4-1.3 7.3 7.1 15.9 17.1 8.6-2 8.6 9.7 15.3 16.4 9.3s2.2-9.3-2.4-12.6c4.7-6.6 10.9-14.8 10.9-14.8l-17.6-6.5z"/><path class="st12" d="m406.2 669.2 31.9 12s3.8-4.3 9.3-10.5l-32.2-14.8c-5.2 7.7-9 13.3-9 13.3z"/><path class="st13" d="m471.3 586.2-17.3 3.3s-7.1 12.6-11.5 22.6c-2.9 6.5-17.6 29-27.4 43.7l32.2 14.8c13.4-15.4 37-43 40.8-51 5.3-11.3-16.8-33.4-16.8-33.4zM541 618.3s41.2 40.3 51.8 58.2c14.6.7 21.3-4 30.6-4.7-4.7-15.9-35.7-69.1-35.7-69.1l-16.2-21.9-17.2-41.8-51.8 3.3 10 44.5 28.5 31.5z"/><path class="st12" d="M517.8 711.7s-4.7-10-4.7-19.3c56.5-11.3 78.8-16.4 78.8-16.4l1.6 13.1-75.7 22.6z"/><path class="st16" d="M559.2 720.1c-8.6-3.3-14.8.2-14.8.2s-5.3-4.2-12.6-1.6c-3.8-3.8-10.5-2.7-14.2-1.9.1.4.1.9.2 1.4.7 4.7 6 8 12 5.3 1.3 3.3 8 4 12.6.7 2 3.3 12.2 3.5 16.8-.4-.2 3.8 9.1 3.8 12.4 2.4.4-.2.8-.4 1.3-.7-1.5-1.8-6.1-7-13.7-5.4z"/><path class="st13" d="m610.8 679.8-19.3 2.7s-68.4 24.1-71.8 26.8c-3 2.4-2.7 4-2.2 7.7 3.6-.9 10.4-1.9 14.2 1.9 7.3-2.7 12.6 1.6 12.6 1.6s6.2-3.5 14.8-.2c7.6-1.6 12.2 3.5 13.7 5.5 2.8-2 5.4-6.4 5.4-6.4l14.6.4 14.6-2 8.6-9.3-5.2-28.7z"/><path class="st15" d="M586.9 708.6c-2 .7-6.6 7.3-8.6 10.6M559.2 723.9c-.2-5.5 9.1-13.5 12.4-14.8M542.4 724.4c-.2-5.5 12-13.3 15.3-14.6M529.7 723.7c-.2-5.5 10.6-12 14-13.3"/><path class="st16" d="M628 684.5h-23.8l.9 9.3H632zM641.3 715.7l-9.3-21.9h-26.9l2.4 23.9z"/><path class="st15" d="m612.1 717-.6-13.9M617.9 717l-.7-13.9M623.6 717l-1.1-13.9M628.1 717l-.7-13.9M633.8 717l-2-13.9"/><path class="st16" d="M592.2 717c-2 2-1.3 6.6 2 7.3 3.3.7 46.7.9 48.7-1.1s1.1-5.3-1.6-8c-2.6-2.6-47.1-.2-49.1 1.8z"/><path class="st12" d="M589.3 687.1c-2-2-3.5-9.7 2.7-12.8 6.2-3.1 24.8-2.4 31.4-2.4 6.6 0 8.6 13.5 5.3 14.8-3.3 1.3-37.4 2.4-39.4.4z"/><path class="st16" d="M448 595.5s-11.3 6.6-10 12.6c1.3 6 10.9 6.9 14.8 4.9 4-2 8.4-17.5 8.4-17.5l14.6 2.7s-5.5 12-4.9 18.6c.7 6.6 17.5 6 17.5 6l7.3-27.9-26.6-11.3-21.1 11.9zM541.7 596.8s6.2 9.5 6.9 16.2c.7 6.6-9.5 9.1-14.8 7.8s-8-8.6-8-8.6l-1.3-13.3 17.2-2.1zM562.3 590.8s5.3 16.4 10 19c4.7 2.7 15.5-3.1 15.5-7.1 0-4-9.5-14.6-9.5-14.6l-14.6-6-1.4 8.7z"/><path class="st14" d="m456.7 572.2-8.7 23.3 45.2 7.3h33.9l51.1-14.6-7.3-20.6-50.5 11.3-41.8-16.7z"/><path class="st16" d="m480.8 682.1 57.6-.9-6.4-41.7h-47.7z"/><path class="st12" d="m519.1 556.3-25.9-10.7-3.3 28.6-3.3 38.8h41.2z"/><path class="st14" d="m485.5 626.2-1.2 13.3H532l-2.1-13.3z"/><path class="st13" d="M527.8 613h-41.2l-1.1 13.2h44.4zM524.4 442l37.9 53.1-73.7 7.3-1.4-30.5 20-41.9z"/><path class="st14" d="M535.1 258.7s11.3-14.6 12.6-21.9c1.3-7.3-8-74.4-7.3-79.1.7-4.7 17.9-8.6 19.9-2s6 83.7 6 83.7 12.6-77.7 17.3-81.7 20.6-1.3 20.6 4.7-22.4 82.4-22.4 82.4 35.7-72.4 41-77.1c5.3-4.7 19.3 2.7 17.9 10-1.3 7.3-33.9 71.8-33.9 71.8l-25.9 25.2-28.6 19.3-17.2-35.3z"/><path class="st14" d="M558.3 293.9s20.6-4 36.5-21.9c-4.7 9.3 2 21.3 16.6 23.3s27.2-7.3 27.9-24.6c.7-17.3-14.8-27.7-26.8-29.7s-23 1.8-30.8 10.5c-7.3 8.3-8.9 18.5-27.5 25.1 5.3 2-6 16.6-6 16.6l10.1.7z"/><path class="st15" d="M594.8 272c3.9-8.5 12.9-12.5 18.7-9.7 7.2 3.5 9.9 15.6-.8 19.7"/><path class="st16" d="M646.6 652.6s19.3 33.9 21.3 35.2c2 1.3 6-.7 6-4 2.7 2 6.6-2 5.3-4 2.7 2.7 7.3-2 6-4 3.3 1.3 6.6-.7 5.3-3.3 2.7.7 6-2.7 4.7-4.7 2.7.7 4.7-2 4-4.7-.7-2.7-27.2-29.2-27.2-29.2l-17.9-2-7.5 20.7z"/><path class="st15" d="m695.1 667.9-15.3-18M690.5 672.5l-14.6-18.1M685.2 675.9l-14-18.7M679.2 679.8l-12.6-19.2M673.9 683.8l-11.3-18.6"/><path class="st14" d="m671.9 634-8.6-10.7-24 16.9 7.3 12.4z"/><path class="st12" d="m616.3 564.9-16.1 9.3 31.7 53.6 23-14.9z"/><path class="st13" d="m654.9 612.9-23 14.9 7.4 12.4 24-16.9z"/><path class="st16" d="M564.3 523.7s23.9 45.2 29.2 57.8l29.9-15.9s-25.2-31.9-29.2-39.9-23.9-21.3-23.9-21.3l-9.3 6 3.3 13.3z"/><path class="st15" d="m603.3 575.8-16.4-27.5M614.3 570l-18.6-25.3"/><path class="st13" d="M771.5 351c3.3-4 4.4-8 1.1-10.6-3.3-2.7-22.4-3.3-35-2.9-17.9 1.3-27.2 17.5-27.2 17.5l-23.9 21.3-16.6 12s-41.2 38.5-44.5 39.9c-3.3 1.3-15.9.7-15.9.7l-8.6 14.6 44.5 1.3s10.8-1.3 14-4.7c3.2-3.3 29.2-33.2 29.2-33.2l17.9-21.3s16.8-5.3 20.8-9.3c4-4 8.2-5.1 47.4 2.9 23.4 4.8 36.4 4 43.1 1.9-1.1-7.2-5.1-25.5-20.2-42.5-4.8 3-12.4 7.5-26.1 12.4z"/><path class="st16" d="M821.4 366.3c2.7-2.7 1.3-11.3-4-11.3.7-7.3-2.7-11.3-6.6-12-.7-4.7-2.7-8.6-6.6-8-1.6.3-3.5 1.6-6.6 3.5 15 17 19.1 35.3 20.2 42.5 2.3-.7 3.9-1.6 4.8-2.4 3.4-3 3.4-9.6-1.2-12.3z"/><path class="st15" d="M771.5 351c-12.6 0-27.2-2-33.2-2"/><path class="st16" d="M772.6 340.4c-1.4-1.1-5.6-1.9-10.9-2.3l-.4 12.7c3.4.2 6.8.4 10.1.4 3.5-4.2 4.6-8.2 1.2-10.8zM681.2 374.9s-12.6 6-14.6 10 1.3 8.2 6.6 8.2 15.9-12.8 15.9-12.8l8 8s-12.8 10.2-13.5 13.5 4.9 8.4 8.9 7.8c4-.7 10.6-12.6 10.6-12.6l-2-20.6-19.9-1.5z"/><path class="st14" d="M727.2 376.2c.4 2.7-24.1 20.6-24.1 20.6l-21.9-21.9s25.9-21.9 29.2-19.9 16.4 18.6 16.8 21.2z"/><path class="st15" d="M784.6 355.2c4.2-.7 14.7-2.3 26.1-12.2M786.8 363.6c4-.7 20.6 0 30.6-8.6M786.1 372.9c4-.7 28.6-.7 35.2-6.6"/><path class="st13" d="m531.5 446.6 28.8 4.7 6-28.6-36.6-17.2-15.2.6-10.7 28.6z"/><path class="st14" d="M535.7 413.4s-4 8-.7 11.3c3.3 3.3 19.3 6 21.9 9.3 2.7 3.3-.7 16.6 4 19.9 4.7 3.3 27.9 3.3 27.9 3.3l6.6-12.6.7-20.6-49.8-15.3-10.6 4.7z"/><path class="st12" d="M608.1 432.7s61.1 12 63.8 16.6c2.7 4.7.7 8-3.3 9.3 2 4.7 0 11.3-4 12 2 3.3-.8 9.3-4.7 10s-61.1-21.3-61.1-21.3l-.7-17.3 10-9.3z"/><path class="st15" d="m668.6 458.6-65.8-17.9M664.6 470.6l-66.4-21.3"/><path class="st12" d="M592.2 404.1c-2 2.7 2.4 74.6 3.1 77.3.7 2.7 10 2.4 9.3-.2s-4.4-74.4-4.4-76.4-6-3.3-8-.7z"/><path class="st12" d="M615.4 410.8c-3.3 1.3-38.3 61.3-39 64.7-.7 3.3 5.8 5.1 7.8 2.4s35.9-60.5 37.2-62.5c1.3-2-2.7-6-6-4.6z"/><circle class="st12" cx="596.7" cy="446.1" r="10.3"/><path class="st16" d="M534.2 530.8c8.9 7.1 25 6.9 33.6 6.2-.8-9.7-1.5-19.9-1.5-27.2 0-19.3-18.6-14-20.6-14.6-.8-.3-9.2 2.3-18.7 5.4-1.2 7.3-2.3 22.8 7.2 30.2z"/><path class="st16" d="M534.2 530.8c-9.4-7.4-8.4-22.9-7.2-30.2-3.5 1.2-7.2 2.3-10.7 3.5-.4 9.5.7 24.8 10.8 32.2 11.9 8.8 32.8 8.3 41.3 7.7-.2-2.3-.4-4.7-.6-7-8.6.7-24.7.9-33.6-6.2z"/><path class="st16" d="M527.1 536.3c-10.1-7.4-11.2-22.7-10.8-32.2-9.9 3.3-18.4 6.3-18.4 6.3s-4.2 31.7 6.4 45c10.6 13.3 66.7 12.2 66.7 12.2s-1.3-10.6-2.5-23.6c-8.6.7-29.5 1.1-41.4-7.7z"/><path class="st15" d="m563 566.7-.7-10.7M555.7 566.9v-10.6M550.6 566.2l-.7-10.6M543.7 565.8l.7-10.6M536.6 565.1l1.6-10.8M529.3 562.9l2.7-9.3M521.8 562.9l4.6-10.6M515.8 560.3l4.6-10.7M508.9 557.4l5.3-9.3M503.2 552.9l6.6-7.9"/><path class="st12" d="M497.9 510.4s51.8-4 71.1 2.7c7.3-4 14-14.6.7-21.7-38.5-6-70.4-.2-70.4-.2l-1.4 19.2z"/><path class="st14" d="M571.4 488.3c-7.1 6.2-8.4 28.8.2 36.1s41.2 10 41.2 10l-.7-51.8c0-.1-33.6-.5-40.7 5.7z"/><path class="st16" d="M497.2 566.2c3.5 2.3 8.2 2.4 11.6 2l-10.9-26.8s-4.7-1.6-8.9-3.1c.8 7.5 3.5 24.8 8.2 27.9zM482.6 535.7c-.1 0-.2 0-.1.1.1-.1.2-.1.1-.1z"/><path class="st16" d="M508.8 568.3c-3.4.4-8.2.2-11.6-2-4.7-3.1-7.3-20.5-8.2-27.9-3.3-1.2-6.4-2.3-6.5-2.6-1.9.4-16.4 2.3-27 3.7-2.3 7.2-7.5 22.5-10.1 26.1-1.8 2.5-6.8 3.6-11.1 4.2l-4.9 14.4s12.8 2.7 20.8-1.3c8-3.9 14.4-16.7 14.4-16.7l10.6-3.3s6 12 13.3 17.9c7.3 6 25.9 1.3 25.9 1.3l-5.6-13.8z"/><path class="st16" d="M445.4 565.6c2.5-3.5 7.7-18.9 10.1-26.1-6.5.8-11.5 1.5-11.5 1.5l-9.7 28.8c4.2-.6 9.3-1.8 11.1-4.2z"/><path class="st15" d="m437 584.4-1.6-5.5M443.2 584.2l-3.6-6.7M447.1 582l-3.3-6.7M452.7 578.9l-4-6M457.3 576.2l-5.3-7.3M460.6 570.9l-4.6-5.3M482.6 572.9l4.6-5.3M485.7 576.6l5.3-6.6M491.2 580l3.1-6.9M503.2 582.8l-1.6-8.6M497.4 582.8l.2-8.6M508.5 582.2l-2.7-8.7"/><circle class="st16" cx="409.3" cy="446.9" r="11.3"/><circle class="st16" cx="427.4" cy="487.2" r="11.3"/><circle class="st16" cx="432.7" cy="535" r="11.3"/><circle class="st16" cx="471.3" cy="564.9" r="11.3"/><circle class="st16" cx="507.8" cy="535" r="11.3"/><circle class="st16" cx="509.8" cy="481.2" r="11.3"/><circle class="st16" cx="524.4" cy="442" r="11.3"/><circle class="st16" cx="539.7" cy="408.8" r="11.3"/><path class="st14" d="m402.8 414.8 39.9 76.4s12 17.9 4.7 25.9-6.6 20.6-1.3 29.9c5.3 9.3 48.5 14.6 51.8-5.5 3.3-15.9-4.7-18.4-4.7-18.4l5.3-41.9s24.6-63.1 31.2-79.1c-4.7-5.3-23.3-10-23.3-10l-26.6 6-47.8-5.3-29.2 22z"/><path class="st16" d="M277.9 359.7c-7.3 2.7-6 15.9 0 16.6 1.7.2 6.8-.3 13.3-1.1v-17c-6.3.2-11.3.7-13.3 1.5z"/><path class="st14" d="M333.8 357.7s-14-.2-28.1 0v15.5c14.1-2 28.1-4.3 28.1-4.3v-11.2z"/><path class="st12" d="M291.2 358.1v17c4.4-.5 9.4-1.2 14.4-1.9v-15.5c-5 0-10 .2-14.4.4z"/><path class="st13" d="M384.2 291.9s-14.4 20.4-15.7 24.4c-1.3 4-.7 8-2 10.4-1.3 2.4-32.8 20.6-35.4 25.9s-1.3 18.4 1.3 19.7c2.7 1.3 7.3 0 12.6 0 2 0 3.8 2.9 7.8 3.5-2.4 2.4-6.2 4.2-8.2 8.2-2 4 .4 10.9 8.4 8.9-2.7 4-2.7 10 .7 12.6s9.3-.4 12 2.9c2.7 3.3-4.9 12.8 4.4 18.8s56.7-20.4 61.3-19.7c5.9.8 37.3 64.3 37.4 64.4l9.4-19.6 3-77.4-12.6-69.1-61.8-19.8-22.6 5.9z"/><path class="st15" d="M353 392.8c4.7-.7 14.6-.7 17.9 2"/><ellipse class="st16" cx="470.4" cy="498.8" rx="33.4" ry="31.5"/><path class="st14" d="M260.7 627.4c-.7-5.3 18.6-42.5 18.6-42.5l27.2 7.3s-8 44.5-11.3 46.5c-3.3 2-15.3.7-17.9-6-8.7 2-16 0-16.6-5.3z"/><path class="st15" d="m292.6 588.8-15.3 43.9"/><path class="st14" d="M355 590.1s8 49.8 11.3 51.2c3.3 1.3 13.3 1.3 17.3-4 5.3 2 16.6-2 17.3-6 .7-4-19.3-49.8-19.3-49.8l-26.6 8.6z"/><path class="st15" d="m367 584.8 16.6 52.5M529.7 680.1l-3.9-24.8M521.1 680.9l-2-26.3M511.8 680.7l-.4-25.4M504.5 682.5l.7-27.7M497.2 681.2l.7-26.6M490.1 680.7v-25.9M602.2 575.5v-1.3M332.4 495.8v-.7"/><path class="st12" d="M405.9 366.6c-5.3-.8-11.6-1.7-17.9-2.5-1.9 3.9-2.5 9.4-2.7 13.2 6.1 1.1 12.3 2.1 17.5 2.8-1.9-4.9-1.2-11 3.1-13.5z"/><path class="st14" d="m361 361-1.3 11.3s12.4 2.7 25.6 5c.2-3.8.9-9.3 2.7-13.2-13.7-1.7-27-3.1-27-3.1z"/><path class="st16" d="M417.7 369.4c-1-.8-5.5-1.8-11.7-2.7-4.3 2.5-5 8.5-3.2 13.5 6.3.8 11.3 1.1 12.7.4 5.3-2.8 5.7-8.3 2.2-11.2zM380.3 332.4c-3.3 0-6 10-1.3 15.9s26.1 3.1 27.9.2c1.8-2.9 16.6-2.9 16.6-6.2-6-1.9-39.9-9.9-43.2-9.9z"/><path class="st14" d="M311.2 487.2s-14.6 50.5-17.3 58.5c-2.7 8 21.3 12.6 23.3 4.7 2-8 15.3-56.5 15.3-56.5s11.3 52.5 13.3 59.8c2 7.3 22.6 2.7 21.9-6-.7-8.6-13.3-60.5-13.3-60.5h-43.2z"/><path class="st16" d="M308.5 442.7c-2.7 1.3-4.2 41.2 1.1 48.5 6.1 8.4 45.1 6.2 49.4-4.7 4.7-12 .7-41.9-2-44.5s-45.8-.7-48.5.7z"/><path class="st15" d="m313.2 492.5-1.3-36M319.2 495.3l-.6-38.6M326.4 495.8l-.8-39.7M332.4 494.7l-.3-38.6M338.9 495.3v-39.2M345.8 495.1l-.4-39.2M352.8 491.2l-.6-35.6"/><path class="st13" d="m290.6 556.9-13.5 26.6s5.5 8.6 36.1 10l2-31.9-24.6-4.7zM349.7 563.6l.7 29.9s17.9 1.3 35.9-10l-12-25.2-24.6 5.3z"/><path class="st15" d="m292.6 588.8 9.3-31.9M368.3 589.5l-7.3-29.9"/><path class="st12" d="M293.9 545.6c-3.3-4-10.2 7.8-6.2 13.7 4 6 16.8 9.7 26.1 7.1 9.3-2.7 8.6-18.8 3.3-16.2-5.3 2.7-19.9-.6-23.2-4.6zM345.7 552.3c-6.6-1.3-6.4 13.5 2.9 14.8 9.3 1.3 25-2.7 27-6 5.3-12.2-3.8-19.3-7.5-14.4s-18.4 6.2-22.4 5.6z"/><circle class="st16" cx="393.9" cy="340.5" r="4.3"/><path class="st13" d="M355.7 357.7c12.6.7 10 13.1 7.3 15.7-2.7 2.7-7.8 2.7-10.2 2.4"/><circle class="st17" cx="477.6" cy="453.5" r="17.3"/><circle class="st17" cx="477.6" cy="453.5" r="5.2"/><path class="st13" d="M505.8 263.3s14-23 21.9-23.7c8-.7 11.3 5.8 10.6 11.4 6-2.3 14 8.3 10.6 15.6 6 .7 8 11.3 6 18.6 6.6 2 6 13.3 3.3 15.3s-29.9.7-29.9.7l-22.5-37.9z"/><path class="st15" d="M538.4 251.1c1.3 0-24.4 17.4-24.4 17.4M549 266.6c1.3 0-29.2 12-29.2 12M555 285.2l-29.2 2.7"/><path class="st16" d="M483.5 275.9s2.4-17.9 19-18.6c16.6-.7 31.9 35.2 25.9 45.2s-24.6 6-24.6 6l-20.3-32.6z"/><path class="st15" d="m491.2 269.3 1.3-8M496.5 268l2.7-10M501.6 267.1l3.6-8.4M505.4 269.1l7.3-7.3M509.8 273.5l8-6M512 277.5l10-4.7M514.5 281.9l9.3-3.3M517.1 287.2l10.6-1.3M519.1 292.6h10M520.4 298.5l7.6 1.8M517.1 302.3l5.1 2.9"/><path class="st16" d="M374.3 291.9c6 2 72.4 15.9 78 30.6 2.7 12-2.9 21-.9 26.1 2 5.1 12.2 8.2 12.2 8.2l37.6 3.5-3.9-41.6-119.7-40.1c-.1.2-5.3 10-3.3 13.3z"/><path class="st12" d="m496.5 293.3-105.3-34.6-13.6 19.9h0l119.7 40.1-.1-1.6s-.5-13.7-.7-23.8z"/><path class="st16" d="M496.5 289.9c0-10-2.9-15.5-21-21.7s-27.5 1.1-27.5 1.1-.2-13.6-22.8-18.2c-22.6-4.7-31.7 4.3-31.7 4.3l-2.3 3.4 105.3 34.6v-3.5z"/><path class="st15" d="m465.3 357.2 1.8-33M483.9 357l-.7-27.2"/><ellipse class="st14" cx="476.2" cy="381.3" rx="34.2" ry="31.2"/><path class="st16" d="M460.6 428s-1.3 5.3-1.3 8 8.6 3.3 10 1.3c2 2 8.2 1.3 9.1-.7 3.5 2.7 9.7 1.8 11.1-.2 2.4 1.6 7.8.2 8.4-2.4.7-2.7-4-8-4-8l-13.3-8-20 10z"/><path class="st15" d="m489.4 436.5-2-11.8M478.4 436.7l-.5-13.3M469.3 437.3v-12.6"/><ellipse class="st12" cx="477.3" cy="381.5" rx="15.3" ry="14"/><path class="st14" d="M471.5 380.6c-1.6 2.9-2.2 35.4-2.2 35.4l17.9-2s-.7-27.9-2-32.6c-1.3-4.5-12.2-3.6-13.7-.8z"/><path class="st12" d="M463.3 410.1c-2 1.3-2.7 17.9-2.7 17.9l33.2-2s-.7-12.8-3.3-16.2c-2.6-3.2-25.2-1-27.2.3z"/><circle class="st14" cx="386.4" cy="268.7" r="16.7"/><circle class="st14" cx="437.5" cy="282.6" r="16.7"/><circle class="st14" cx="489.2" cy="303.2" r="16.7"/><path d="M321.8 244.1c-3.3 1.3-3.3 5.3 0 7-4 3.6-1.8 9.8 1.6 10.5 1.2.3 3.5-.1 5.9-.6l.5-15.9c-3.2-1-6.5-1.7-8-1z" style="fill:#fff"/><path d="M336.4 247.4s-3.2-1.3-6.7-2.3l-.5 15.9c4.1-.9 8.5-2.3 8.5-2.3l-1.3-11.3z" style="fill:red"/><path class="st15" d="M336.4 247.4s-11.3-4.7-14.6-3.3c-3.3 1.3-3.3 5.3 0 7-4 3.6-1.8 9.8 1.6 10.5 3.3.7 14.4-2.9 14.4-2.9l-1.4-11.3zM321.8 251.1l16.6 2.9"/><path class="st16" d="M390.9 225.4s6-5.3 5.3-8.6c-.7-3.3-6.6-6.6-12-4.7-2.7-6-10.6-6-13.3-3.3-3.3-4-12-4.7-12.6 0-3.3-4-12.6-3.3-12.6.7s2.7 8.6 2.7 8.6l19.9 13.3 22.6-6z"/><path class="st15" d="m359 221.5-.7-12.7M369 220.8l2-12M380.9 222.8l3.3-10.6"/><path class="st14" d="m348.7 226.6.9 21.3 31.9.7 5.5-13.8c-14.9-7.8-32.1-8.3-38.3-8.2z"/><path class="st12" d="m348.4 218.1.4 8.5c6.2-.1 23.3.3 38.4 8.3l3.8-9.5c-13.4-9.3-42.6-7.3-42.6-7.3z"/><path class="st13" d="M343.1 268.6s-7.5-5.3-8.2-15.3c-.7-10 3.8-19.3 2.4-23.9-.7 4-3.3 7.5-9.3 6.2-6-1.3-8.2-6.2-7.5-12.2.7-6 6.6-10.4 12.6-11.1 6-.7 14.4 2.4 16.4 9.1 2 6.6-1.8 25.9.2 33.2 2 7.3 21.9 6 25.2 10.6 3.3 4.7 3.5 14.8-2.4 17.5-6 2.7-32.8-2.9-32.8-2.9s4 6 0 10-12 3.1-16.6 1.1-8.4-13.1-1.1-19.7c7.3-6.6 21.1-2.6 21.1-2.6z"/><path class="st15" d="M339.7 279.9c-8-2.7-12.6-.7-10 3.3M337.3 229.4c.7-5.3-2.2-6-6.2-5.5"/><path class="st14" d="M384.2 252c.7 13.3-7.9 15.1-17.6 15.1-9.7 0-16.9-4.4-17.6-15.1-.5-8.1 7.9-14.6 17.6-14.6 9.8 0 17.2 6.6 17.6 14.6z"/><circle class="st16" cx="364.9" cy="257.7" r="10.3"/><circle class="st12" cx="364.9" cy="257.7" r="4"/></svg>