<svg version="1.1" id="Calque_1" xmlns="http://www.w3.org/2000/svg" x="0" y="0" viewBox="0 0 900 900" style="enable-background:new 0 0 900 900" xml:space="preserve"><style>.st0,.st1,.st2,.st4,.st5,.st6{fill:#f8130d;stroke:#000;stroke-width:2.9092;stroke-linecap:round;stroke-linejoin:round}.st1,.st2,.st4,.st5,.st6{fill:none}.st2,.st4,.st5,.st6{fill:#fb0f0c}.st4,.st5,.st6{fill:#ffce00}.st5,.st6{fill:#008cff}.st6{fill:#fff}.st7{fill:#008cff}.st8{fill:#fff}.st10,.st12,.st13,.st15,.st16{fill:red;stroke:#000;stroke-width:2.9092;stroke-linecap:round;stroke-linejoin:round}.st12,.st13,.st15,.st16{fill:#003d66}.st13,.st15,.st16{fill:none;stroke-width:2.4243}.st15,.st16{fill:#f5150d;stroke-width:2.9092}.st16{fill:none;stroke:#003d66}</style><path class="st0" d="M120.9 553.4S79.2 564 76.8 566c-2.5 1.9 11.6 42.7 15.1 43.1 3.3.4 30.5-12 30.5-12l12-16-13.5-27.7z"/><path class="st1" d="M122.8 586.8S96.7 598.4 94.2 597c-2.5-1.5-10.6-32.5-10.6-32.5"/><path class="st2" d="M119.9 567.5s-43.1-15.1-44.1-18.4 13.1-35.4 16-36.3c2.9-1 31.1 17.4 31.1 17.4l6.8 22.4-9.8 14.9z"/><path class="st1" d="M119.9 563.2s-35.4-15.5-35.9-18c-.4-2.5 13.6-30.1 13.6-30.1"/><path d="M240.7 560.7c-6.2-13.6-37.7-11.6-37.7-11.6l-14.1 43.1 9.1 9.1s16 4.4 26.1 1.5c19.5-5.8 22.9-28.6 16.6-42.1zm-22.3 18.9c-1.5 4.4-21.3 0-21.3 0l-.4-7.3c-.1 0 23.1 2.9 21.7 7.3z" style="fill:#f8130d"/><path class="st1" d="M240.7 560.7c-6.2-13.6-37.7-11.6-37.7-11.6l-14.1 43.1 9.1 9.1s16 4.4 26.1 1.5c19.5-5.8 22.9-28.6 16.6-42.1zm-22.3 18.9c-1.5 4.4-21.3 0-21.3 0l-.4-7.3c-.1 0 23.1 2.9 21.7 7.3z"/><path class="st1" d="M200.5 564s18.4-1.5 24.2 3.9c5.8 5.4 2.5 20.9-4.4 23.2-6.8 2.5-23.2-1.5-23.2-1.5l3.4-25.6z"/><path class="st4" d="M122.4 597s-4.4 9.1-5.8 16c-1.5 6.8-3.3 18.4-1.9 24.2 1.5 5.8 13.6 34.8 15.5 37.3s12 1 15.1-3.9c2.9-4.8 3.3-19.9 3.3-19.9s11.2 36.9 14.1 38.3 12.6 0 13.8-6.5c0 0 2.2 5.1 4.6 6.1 2.5 1 12-3.9 12.6-5.8.4-1.9-1.5-5.8-1.5-5.8s13.1-4.4 13.6-6.8c.4-2.5-1.5-8.7-1.5-8.7s3.9 2.5 5.8 3.3c1.9 1 10.2-7.7 9.7-11.6-.4-3.9-19.5-34-21.3-38.3s-.4-13.6-.4-13.6-36.1-12.7-38.1-12.7c-2.2.3-37.6 8.4-37.6 8.4z"/><path class="st1" d="m176.4 682.6-14.8-39.3M192.2 677l-15.9-38.2M204.3 661.4l-18.5-27.5M145 639.1c1.5 3.9 3.2 9.1 3.5 11.8"/><path class="st1" d="M134 638.8s14.1 2.5 18.9-6.2c4.8-8.7 0-19.9-3.3-23.8 5.4 6.8 13.6 12 22.8 15.1 9.1 2.9 13.6 10.2 13.6 10.2M148.4 649l43.8-18.5M152.5 661.4l10.5-3.3M156.4 675.1l10.1-3.4M174.2 674.1l7.9-3.4M168.4 658.5l8.3-2.9M182.5 653.7l8.3-3.9M188.7 665.9l8.3-4.5M199.9 653.7l7.3-4.7M192.7 643.1l7.8-4.3"/><path class="st2" d="M253.6 360.6s11.3-13.8 19.6-12c8.4 1.9 17.9 13.1 19.3 18.9 5.8 1.9 14.2 13.5 14.2 20.3 0 7-15.7 17.1-15.7 17.1l-22.9-.4-15-34.6.5-9.3z"/><path class="st1" d="M292.5 367.5c-3.5.7-8.3 4.6-8.3 4.6"/><path class="st4" d="M127.2 422.9s-9.1 3.3-11.6 28.6 2.5 82.5 2.5 82.5l18.4 17.4 62-1.9 7.7-13.6s5.4-70.3 4.8-82.5c-.4-12 14.1-13.6 14.1-13.6l26.1 13.1 39.3-10.6 14.5-27.1s-3.9-9.1-14.1-11.2c-.4-12.6-10.6-12.6-10.6-12.6s1.5-11.2-10.6-13.1c0-9.7-9.7-11.6-9.7-11.6s1-9.7-11.2-12c-1.5-4.8-8.7-11.2-13.6-10.2-4.8 1-15.1 8.3-22.8 11.6-7.7 3.3-63 51-63 51l-6.2 17-16-1.2z"/><path class="st1" d="m249 354.5-7.7 3.8M260 366.7l-6.6 3.4M269.8 378.3l-6.3 3.7M280.5 391.4l-6.8 2.9M291.8 403.5l-6.1 4.3"/><path class="st4" d="M206.3 535.9C174.8 529 118 534 118 534s2.5-20.3 5.4-20.3c2.9 0 3.3 5.4 5.4 4.8 1.9-.4 1.5-6.2 4.4-5.8 5.8 1 8.3 19.5 8.3 19.5s-.4-17.4 8.3-19.9c2.5-.4 1 5.4 2.5 5.4s2.5-5.8 4.4-5.8c7.7 1.9 7.3 19.9 7.3 19.9s2.5-16.6 7.3-18.9c1.9-.4 1.9 5.8 4.8 5.4 2.9-.4 2.5-8.3 6.8-5.8 4.4 2.5 2.5 19.9 2.5 19.9s2.5-16.6 9.1-19.9c1.5-.4.4 5.8 2.5 5.8 1.9 0 2.5-5.8 6.2-5.4 2.5 1.2 3.1 23 3.1 23z"/><path class="st2" d="M206.3 535.9C174.8 529 118 534 118 534l1.5 63.6s68.4 1.5 78.1 5.8l8.7-67.5z"/><path class="st1" d="M118.9 542.3c47.5-3.9 84.8 1.9 84.8 1.9M141.3 539.3v-7.2M162.6 539.8l1-8.3M184.4 541.2l.6-9.1"/><circle class="st5" cx="136.9" cy="575.9" r="9.9"/><circle class="st5" cx="158.7" cy="576.2" r="9.9"/><circle class="st5" cx="181.1" cy="577.1" r="9.9"/><path class="st5" d="m118.8 566.9.4 16s8.1-1 7.5-8.3c-.4-7.1-7.9-7.7-7.9-7.7z"/><circle class="st5" cx="127.2" cy="557.8" r="8"/><circle class="st5" cx="142.7" cy="557.8" r="8"/><circle class="st5" cx="158.5" cy="558.2" r="8"/><circle class="st5" cx="173.5" cy="559.2" r="8"/><circle class="st5" cx="189.3" cy="560.7" r="8"/><path class="st5" d="m201.8 570.4 1.9-15.1s-5.7-1.5-7.4 5.4c-1.7 6.8 5.5 9.7 5.5 9.7zM201.7 571.7l-2.2 17.1s-10.6-3.9-8.4-11.6c2-7.8 10.6-5.5 10.6-5.5z"/><path class="st2" d="M196 368.2c7.8-6.2 14.2-11 16.6-12 3-1.3 6.4-3.2 9.7-5.1 11.3 14.4 67.8 79.4 67.8 79.4l.6 12-39.3 10.6c-.1-.1-49.4-71.4-55.4-84.9z"/><path class="st5" d="M234.9 456.4s16.6 11.6 24.2 8.7c7.7-2.9 12.6-14.5 12.6-14.5l13.6-17s-5.8-6.2-8.3-4.4c-2.5 1.9-10.2 11.2-14.1 12.2-3.9 1-16-9.1-16-9.1l-18 10.6v11.2l6 2.3z"/><path class="st2" d="M262.5 448.6c11.8-.6 22.8-15.1 22.8-15.1s-3.8-6.2-6.1-4.4c-2.5 1.9-12.3 11.2-16.1 12-3.9 1-16-9.1-16-9.1l-3.8 2.3c-.1.1 8 14.9 19.2 14.3z"/><path class="st0" d="M212.6 452.5s3.3 31.5 2.5 39.8c-2.5 9.1-1 18.4-1 18.4l8.3 2.5s5.4 27.6 6.8 28.2c3.3 1.5 4.8-1.5 4.8-1.5s6.2 2.9 7.3-1.9c1-4.8-.4-32.5 0-36.9.4-4.4 4.4-4.8 3.3-18.4-1-13.6-14.1-34.4-14.1-34.4l-17.9 4.2z"/><path class="st6" d="M225 527c1.5 7 3.2 13.9 3.9 14.2 0 0-9.7 1-8.7-3.9-2.5-.4-1.5-2.9-1.5-2.9s-2.9-.4-1-2.9c2.1-2.3 3.6-7.3 7.3-4.5z"/><path class="st1" d="M226.6 536.4s-2.9 1.5-6.2 1M225.2 532.5l-6.4 1.9M236.4 532.5c-5.8-2.9-5.8 5.8-2.5 7.3"/><path class="st5" d="m218.8 451.1 11.6-2.9s13.1 20.9 14.1 34.4c.1 1.3.1 2.3.1 3.3-7.8-3.9-24-2.9-24-2.9l-1.8-31.9z"/><path class="st1" d="M215 492.3c4.4-5.8 11.6-1.9 11.6-1.9"/><ellipse transform="rotate(-94.31 230.714 518.314) scale(1.00003)" class="st5" cx="230.7" cy="518.3" rx="6.1" ry="4.1"/><path class="st6" d="M222.3 513.2s1.3 7 2.9 13.9c-11 8-20.8.1-16.4-10.5-1.9-8.7 2.5-9.7 4.8-9.1 1.4 7.6 8.7 5.7 8.7 5.7z"/><path class="st1" d="M208.6 516.6c2.5 5.8 9.7 8.7 15.1 5.8"/><path class="st0" d="M192.2 439s7.3 15.5 20.9 16.6c13.6 1 45.2-22.8 42.7-40.8-2.5-18-15.5-20.9-15.5-20.9l-28.6 18.4-19.5 26.7z"/><path class="st5" d="M195.9 433.9s6.1 12.8 19.6 13.8c13.6 1 32.7-20.3 31.9-34.4-.4-11.2-12.8-15.8-12.8-15.8l-23.1 14.8-15.6 21.6z"/><path class="st5" d="M169.4 415.2s-.4 24.2 19.5 24.7c14.7.3 33-11.6 34.8-16.6 6.2-5.4 18.9-21.3 18-34-1-12.6-18.9-22.8-34-18.9-6.2 1.5-11.2 27.6-11.2 27.6L168 409.7l1.4 5.5z"/><path class="st1" d="M209.7 407.4c4.4 1.5 14.1 16 14.1 16"/><path class="st2" d="M231.6 414.8c5.5-7.3 10.7-17 10-25.3-1-12.6-18.9-22.8-34-18.9-6.2 1.5-11.2 27.6-11.2 27.6l-28.6 11.6 1.5 5.4s-.4 24.2 19.5 24.7c8.6.1 18.6-3.9 25.7-8.3 0 0-2.9-3.3-5.8-3.3s-16 6.8-23.2 3.9c-7.3-2.9-10.2-15.5-10.2-15.5l25.7-16.6s1.9-21.3 9.7-23.2c7.7-1.9 23.8 3.3 24.7 12 1 8.7-4.4 17-5.8 20.9-1.5 4 2 5 2 5z"/><path class="st5" d="M209.7 407.4c1.9-2.5 8.7-12 6.2-18.9s-8.3-13.6-8.7-20.3c-.4-6.8 5.4-10.6 5.4-13.1-2.9-1.5-18.4 5.8-21.8 9.1-3.3 3.3-6.5 10.7-5.8 16 1 6.8 9.1 15.1 11.6 18 1 8.3 11.2 11.6 13.1 9.2z"/><path class="st2" d="M206.6 356c2.8-.9 5.1-1.5 6-.9 0 2.5-5.8 6.2-5.4 13.1.4 6.8 6.2 13.6 8.7 20.3.7 1.9.6 4.1.1 6.2-5.1-4.4-14.7-18.9-14.7-24.7.1-5.7 4.7-13.7 5.3-14zM110.8 410.3l-12.6-2.9-9.2 31.9c-1.5-1.9-6.2-4.8-12.6 1-2.5 3.3-1.9 11.2 3.9 13.1s12-5.4 12-5.4-3.9 14.1 13.1 12.2c4.8-1 7.7-7.7 5.8-12.2-1.9-4.4-7.3-4.8-10.2-3.3l9.8-34.4z"/><path class="st1" d="M106.9 449.6c-7.3 4.4-9.1-2.5-5.8-4.8M88.9 439.5c2.9 4.4-5.8 9.1-7.7 2.9"/><path class="st6" d="M102.5 398.7s-7.5 5.1-4.1 11.3c7 4.2 13.1 3.5 13.1 3.5l4.1-10.9-1.5-7.7-11.6 3.8z"/><path class="st5" d="M141.7 416.2s5.4 4.1 15.1 3.2c13.5-1.3 45.2-6.1 52.8-11.9-5.4-4.8-10.2-9.7-18.4-11.6s-15.5 0-15.5 0l-17.4-5.4-13.6 7.3-3 18.4z"/><path class="st2" d="M150.6 412.8c-3.3-2.5-8.7 3.3-8.7 3.3s5.4 4.1 15.1 3.2c9-.9 26.3-3.3 38.9-6.5 0 0-5.5-4.4-10.3-2.9-5 1.4-31.7 5.3-35 2.9z"/><path class="st6" d="M108.8 418.1c-.7-6.7 3.9-15.7 3.9-15.7l15.4 5.5s-2.9 5.4 0 17c-2.9 1-4.4 2.5-7.7-1-.5 4.4-10.6 3.4-11.6-5.8z"/><path class="st1" d="M120.4 405.5c-4.8 3.9-4.8 13.1 0 18.4"/><path class="st2" d="M121.4 387.6s-16.6-1-16.6 4.8c-3.3 2.5-2.5 6.2-2.5 6.2l25.7 9.1-2.9 5.4s21.3 4.5 25.3-.4c2.5-3.2 6.2-17.4 6.2-17.4l-7.7-12-27.5 4.3z"/><path class="st1" d="M128.2 408c6.2 3.9 16.6 2.5 15.1-2.9M105 392.4c1.5 5.4 5.8 1 5.8 1"/><circle class="st5" cx="129.2" cy="400.7" r="3.9"/><path class="st6" d="M105 411.9c-.4-4.8 3.9-10.2 3.9-10.2M101.1 410.3c-.4-4.8 3.9-10.2 3.9-10.2M131.1 422s-8 1.5-11.3 8.4c-3.3 7-9.4 31.6-7 47.3 7.7 5.8 38.6 4.8 38.6 4.8l18.1 10.2 10.6-1.9s1.2-1.5 1.9-4.8 1.2-9.9-2.9-17.1-18.1-14.2-18.1-14.2l-16.8-22.9-13.1-9.8z"/><path class="st1" d="M120.9 465.6s.7-5.1 4.1-4.4 2.2 6.5-.7 9.1c-5.8 3.6-12-.7-12-.7"/><path class="st6" d="M114.4 485.6c-4.1 10.2 19.6 29.5 29 21.5-3.6-2.9-5.8-5.8-5.8-5.8s5.8 4.1 16.7 3.6c-1.9-2.6-2.6-4.1-2.6-4.1s12.8 4.1 15.7-1.9c17.1-.7 18.1-12.8 18.1-12.8s-6.5 4.1-12.8 1.5-8.7-8.4-8.7-8.4l-31.2-.7c.2.3-14.3-3-18.4 7.1z"/><path class="st1" d="M167.6 499.1c-14.2-4.8-12.3-16.7-12.3-16.7M151.9 500.9c-10.2-4.8-10.2-17.9-10.2-17.9M137.6 501.3c-8.4-6.2-8.7-16-8.7-16"/><path class="st2" d="M113 477.6c.4-1.5 43.3-4.8 47.3-4.1s6.2 6.5 4.1 7.7-48.8 5.5-49.8 4.4c-1.3-1-2.1-6.5-1.6-8z"/><path class="st5" d="M127.2 422.9c-.1 3.8 21.1 31.4 27.1 32.8 10.2 1.5 14.5-10.6 14.2-17.4-.4-7-4.1-16.7-15.7-20-11.5-3.2-25.5.8-25.6 4.6z"/><ellipse class="st5" cx="137.4" cy="441.4" rx="15.4" ry="14.5"/><path class="st1" d="M385.3 109.6c1.2 8.4-5.8 16.4-23.2 13.8"/><path class="st7" d="M194.1 313.9c-6.8 19.9-17 81.9-17 81.9s-5.8 4.8-12-.4c-7.3 4.4-13.6.4-13.6.4s-8.3 1.9-12.6-1.9c-7.3-.4-8.3-3.3-8.3-3.3s-7.3 1-12-3.9c-8.7 1-14.4-4.8-14.4-4.8s-9-1.5-12.3-7.3c-8.3 1-9.1-4.8-9.1-4.8s-6.2 2.9-7.3-6.8c.4-3.3 21.8-34.4 24.7-44.6 2.9-10.2 12.6-33.4 12.6-33.4l37.9-53.9 20.9-14.1 34.8 20.9 7.7 34.4-10.6 17c-.1-.1-2.6 4.7-9.4 24.6z"/><path class="st1" d="m97.1 342.9-14.5 26.7M106.4 347.3l-14.6 27.1M129.2 357l-10.7 29.6M150 363.8l-11.2 30.1M159.3 366.7l-7.9 29.1M169.4 367.7l-4.3 27.6"/><path class="st8" d="M89.2 339.1c4.9-8.3 9.6-16.6 10.9-20.9.6-2 1.5-4.6 2.5-7.4 16 8.9 69.8 29.3 84.3 32.7-2 9.7-3.9 20.2-5.7 29 0 0-39.9-2.9-92-33.4z"/><path d="M95.8 327.7c1.3-2.5 2.5-4.6 3.2-6.5.4-1 19 11.6 85.9 31.5-.6 2.8-1 5.5-1.6 8.3-19.7-5-72.1-22.4-87.5-33.3z" style="fill:#fb0f0c"/><path class="st1" d="M194.1 313.9c-6.8 19.9-17 81.9-17 81.9s-5.8 4.8-12-.4c-7.3 4.4-13.6.4-13.6.4s-8.3 1.9-12.6-1.9c-7.3-.4-8.3-3.3-8.3-3.3s-7.3 1-12-3.9c-8.7 1-14.4-4.8-14.4-4.8s-9-1.5-12.3-7.3c-8.3 1-9.1-4.8-9.1-4.8s-6.2 2.9-7.3-6.8c.4-3.3 21.8-34.4 24.7-44.6 2.9-10.2 12.6-33.4 12.6-33.4l37.9-53.9 20.9-14.1 34.8 20.9 7.7 34.4-10.6 17c-.1-.1-2.6 4.7-9.4 24.6z"/><path class="st1" d="M92.8 333.2c43.1 26.1 89.3 32.5 89.3 32.5M182.9 304.2s-11.2 22.4-8.7 25.7c2.5 3.3 11.6 5.8 14.1 1.9"/><path class="st1" d="M174.8 294c-13.6 24.2-44.1 96.5-44.1 96.5M104.3 381.7s40.9-97 59.8-108.6"/><path class="st1" d="M158.7 327s-12.6-3.3-12-9.7c.4-6.2 21.8-34.4 21.8-34.4M133.6 318.2s-8.3-2.9-7.7-9.7c.4-6.8 50.8-77.8 50.8-77.8"/><path class="st5" d="M172.3 225.6c-9.7 3.3-63 88.3-73.8 93.1-5.4 1.5-5.8-6.2-5.8-6.2s-7.7 1-9.1-3.9c.4-3.3 23.8-41.7 41.2-64s39.3-41.2 39.3-41.2l12-1.9c.2-.1 6 20.8-3.8 24.1z"/><path class="st1" d="m92.8 312.4 8.3-13.6"/><path class="st10" d="M172.3 225.6c-7 2.5-36 46.3-56 73-11.3 2.6-18.6-2.8-22.1-9 8.4-13.8 20.5-32.1 30.6-45 17.4-22.4 39.3-41.2 39.3-41.2l12-1.9c.2-.1 6 20.8-3.8 24.1z"/><path class="st5" d="M172.3 225.6c-5.1 1.7-21.9 25.6-38.3 48.6-16 6.2-24.7-6-23.5-10 4.8-7.1 9.7-13.9 14.2-19.7 17.4-22.4 39.3-41.2 39.3-41.2l12-1.9c.3 0 6.1 20.9-3.7 24.2z"/><path class="st1" d="M172.3 225.6c-4.6 1.6-19.2 21.8-34.4 43-1.3 1.9-11.8 1.2-12.6-4.6-1-5.8 47.5-61.1 51-62.6 3.3-1.5 5.8 20.9-4 24.2zM100.6 281.4c4.4 8.3 13.1 9.7 22.8 5.8"/><path class="st5" d="M203.4 327s12 22.8 18.9 22.4c6.8-.4 16-6.8 15.1-12.2 8.7-1.9 15.1-13.1 12-18.9-2.9-5.8-23.8-11.6-23.8-11.6L203.4 327z"/><path class="st1" d="m237.2 337.1-19.3-14.9M211.1 328.4s13.6 16 17.4 10.2M240.7 322.2c-8.3 1.9-18-4.4-18-4.4"/><path class="st10" d="M194.1 316.4s4.4 12.6 12 13.6c7.7 1 23.2-12 19.5-25.3-2.9-5.4-13.6-9.1-13.6-9.1l-17.9 20.8z"/><path class="st5" d="M181.1 237.8s-17.4 14.5-19.9 28.6c-2.5 14.1 28.6 52.8 34 52.8 5.4 0 20.9-10.2 18.9-22.4-1.5-4.8-21.3-18-22.8-21.8-1.5-3.9 9.1-17.4 9.1-17.4l-4.8-19.9-14.5.1h0z"/><path class="st1" d="M208.2 291.1s-5.8 13.6-12.2 12c-6.2-1.5-25.3-26.1-22.8-34 2.5-7.7 17.1-22.9 17.1-22.9"/><path class="st5" d="M604.2 122.5c4.4 1.9 9 4.1 13.4 6.1.7 5.4-5.1 4.6-5.1 4.6s-9.4-1.2-10.9-4.4c-1.4-3.2 0-4.2 2.6-6.3z"/><path class="st10" d="M549.5 333.8s1.9 10.6 5.4 18c3.3 7.3-1.5 24.2 7.3 36.3 4.4 7.3 13.6 4.8 17.4.4 3.9-4.4 4.4-20.9 4.4-20.9s13.6 7.7 23.8-2.5c10.2-10.2 1.5-15.5-1.5-18.4-2.9-2.9-18.4-2.5-21.3-5.8-2.9-3.3-8.3-57.6-8.3-57.6s-18.9-6.2-24.7-4.8c-5.8 1.5-7.3 25.7-7.3 25.7l4.8 29.6z"/><path class="st5" d="M755.1 353.1s9.1-7.5 20.6-4.4c17.3 4.6 20.6 30.3 8 39.8-7.3 4.8-23.8 1.9-23.8 1.9l-4.8-37.3z"/><path class="st1" d="M761.5 362.8s10.2-6.2 16-3.3c5.8 2.9 7.7 17 .4 19.5s-15.5 1.5-15.5 1.5"/><path class="st6" d="M737.2 358.9s13.1-10.6 15.5-11.6c2.5-1 9.1 3.9 7.3 10.2 5.8 1.9 7.3 11.2 3.9 15.5 2.9 2.9 2.9 9.1-.4 11.2 3.3 6.2-.4 11.6-6.8 11.6-6.2 0-16.6-6.8-16.6-6.8l-2.9-30.1z"/><path class="st10" d="M737.2 358.9s6.1-4.9 10.7-8.4c12 10.3 12 35 4.1 44.3-5.7-1.9-11.8-6-11.8-6l-3-29.9z"/><path class="st5" d="M714.4 362.4c4.4-6.8 19.5-9.1 25.3-6.2s13.6 17.4 2.5 33.4c-2.9 1.9-18.4-1-20.9-4.4-2.5-3.5-11.2-16-6.9-22.8z"/><path class="st1" d="M750.7 353.1s2.9-2.2 4.4 0c1.5 2.2-1.2 3.9-1.2 3.9M756.4 363.4s4.4-1.9 5.1 1.5c.7 3.3-3.6 4.1-3.6 4.1M757.8 375.7s4.1-.3 4.4 2.2c.3 2.5-5.1 3.6-5.1 3.6M755.1 391.4s3.3 1.9 4.8-1-3.3-3.9-3.3-3.9"/><path class="st10" d="M711 388.5s9.7 1.5 11.6-4.4c1.9-5.8-2.9-19.5-8.3-23.2-5.4-3.9-23.8-2.9-31.1-1.9s-20.9 16-20.9 16l48.7 13.5z"/><path class="st8" d="m646.9 408.4-17-11.2s-19.9-9.1-27.6-7.3c-7.7 1.9-19.5 15.1-13.1 28.6 6.2 13.6 17.4 10.2 19.9 12.6 4.4 4.8-8.3 18.4-8.3 18.4s.4 10.2 5.4 11.2c4.8 1 27.1 2.5 27.1 2.5l18-16-4.4-38.8zM611.1 420c-5.2 0-9.4-4.2-9.4-9.4s4.2-9.4 9.4-9.4 9.4 4.2 9.4 9.4-4.2 9.4-9.4 9.4z"/><path class="st1" d="m646.9 408.4-17-11.2s-19.9-9.1-27.6-7.3c-7.7 1.9-19.5 15.1-13.1 28.6 6.2 13.6 17.4 10.2 19.9 12.6 4.4 4.8-8.3 18.4-8.3 18.4s.4 10.2 5.4 11.2c4.8 1 27.1 2.5 27.1 2.5l18-16-4.4-38.8zM611.1 420c-5.2 0-9.4-4.2-9.4-9.4s4.2-9.4 9.4-9.4 9.4 4.2 9.4 9.4-4.2 9.4-9.4 9.4z"/><path class="st10" d="M632.4 447.7s-8.7-1.5-12.6-4.4c-3.9-2.9-4.4-16-1.9-18.9 2.5-2.9 15.1-4.8 15.1-4.8l3.9 5.4s-10.6-.4-13.1 1.9c-2.5 2.5-1.9 10.2 0 12.6 1.9 2.5 12.2 1.9 12.2 1.9l-3.6 6.3z"/><path d="M750.3 599c-16-5.8-41.2 20.9-41.2 20.9l18.9 29.6s22.8 1.5 33-6.8c12.5-9.9 8.2-36.4-10.7-43.7zm-1.5 27.2c-2.5 2.5-18.9 4.8-18.9 4.8l-1.9-3.3s17-9.1 19.9-8.7c2.8.3 3.4 4.7.9 7.2z" style="fill:red"/><path class="st1" d="M750.3 599c-16-5.8-41.2 20.9-41.2 20.9l18.9 29.6s22.8 1.5 33-6.8c12.5-9.9 8.2-36.4-10.7-43.7zm-1.5 27.2c-2.5 2.5-18.9 4.8-18.9 4.8l-1.9-3.3s17-9.1 19.9-8.7c2.8.3 3.4 4.7.9 7.2z"/><path class="st1" d="M719.7 620.8s23.2-14.5 29.6-12c6.2 2.5 11.6 18.4 6.2 26.7-3.9 4.8-26.1 4.8-26.1 4.8l-9.7-19.5zM609.6 621.8s-10.6 4.4-10.2-8.3M599 610.6c-2.9-4.4-8.7-24.7-9.7-34"/><path class="st8" d="M553.9 613.5s-8.7 10.2-10.2 8.7-9.1-20.9-12.6-24.2c-3.3-3.3-18.4-8.7-29.6 0-13.1 10.2-12 25.7-4.4 34.8 7.7 9.1 3.3 12.2 4.8 13.1 1.5 1 44.1 14.1 44.1 14.1l17.4-10.6 7.7-27.1-17.2-8.8zm-38.4 11.6c-4.2 0-7.5-3.3-7.5-7.5s3.3-7.5 7.5-7.5 7.5 3.3 7.5 7.5c.1 4.2-3.2 7.5-7.5 7.5z"/><path class="st1" d="M553.9 613.5s-8.7 10.2-10.2 8.7-9.1-20.9-12.6-24.2c-3.3-3.3-18.4-8.7-29.6 0-13.1 10.2-12 25.7-4.4 34.8 7.7 9.1 3.3 12.2 4.8 13.1 1.5 1 44.1 14.1 44.1 14.1l17.4-10.6 7.7-27.1-17.2-8.8zm-38.4 11.6c-4.2 0-7.5-3.3-7.5-7.5s3.3-7.5 7.5-7.5 7.5 3.3 7.5 7.5c.1 4.2-3.2 7.5-7.5 7.5z"/><path class="st0" d="M519.5 639.7s7.7-9.7 9.7-11.6c1.9-1.9 12.6 0 15.5 3.3 2.9 3.3 3.9 14.1 3.9 14.1l-4.4 1s-.4-9-1.9-11.3c-1.5-2.5-8.3-2.9-10.2-2.9-1.9 0-8.3 9.9-8.3 9.9l-4.3-2.5z"/><path class="st10" d="M724.9 708.5s24-12.8 24-15.7-25.4-43.7-25.4-43.7l-16 3.3 1.2 49.1 16.2 7z"/><path class="st1" d="M721.7 702.7s19.3-8.7 20-10.6c.7-1.9-20-38.9-20-38.9"/><path class="st10" d="M629.4 604.2 617.7 662l40 30.9 23.9-12 5.8-42.5z"/><path class="st1" d="m675.8 649.7-31.2 23.9 12.8-35.5-17.9 15.5-4.3-6.1 7.5-21.2"/><path class="st10" d="M701.4 723.9s27.3-7.3 28-9.4-17.9-60.7-17.9-60.7l-12.3-11.6-9.4 1.5-5.8 15 17.4 65.2z"/><path class="st1" d="M695.6 716.9s22.5-6.2 22.9-7.7c.4-1.5-12.8-56-12.8-56"/><circle class="st5" cx="714.4" cy="637.5" r="19.2"/><circle class="st10" cx="714.4" cy="637.2" r="11.2"/><path class="st4" d="m692.2 660.1 12 67.9s3.6 8 3.3 13.5c-.4 5.5-13.1 6.2-13.1 6.2l-25.8-26.1-15.6-34.5 27.3-36.7 8.4 3.3 3.5 6.4z"/><path class="st6" d="M704.3 728.2s3.6 8 3.3 13.5c-.1 2-2 3.3-4.2 4.4-2.3-1.5-5.7-13.8-5.7-13.8l6.6-4.1z"/><path class="st10" d="M638.1 688.6c6.5 7.7 46.2 66.5 48.3 67.9 2.2 1.5 9.9-3.3 8-8-1.9-4.8-37.5-58.5-43.7-66.2-6.2-7.7-17.1-17.9-17.1-17.9s-11.3-27.6-12.3-28c-1.2-.4-21.1-14.2-21.1-14.2s-7.1 0-11.5.3c-4.2.4-10.2 11.5-7.1 18.9.9 4.1 6.1 8.3 6.1 8.3s1.2 4.6 8 4.6c1.9 5.5 7 5.5 7 5.5s2.5 7 7.7 7.5c5.8 3.1 27.7 21.3 27.7 21.3z"/><path class="st1" d="M616.7 644s-9.4 7.3-6.1 23.5M609.5 637.5c-10.2 8.7-6.5 22.5-6.5 22.5M601.9 632.1s-8.3 4.8-6.1 22.4M593.4 626.2c-8 6.8-5.5 23.8-5.5 23.8"/><path class="st10" d="m641.7 626.3 51 35-1.6-12.3-8-12.4-29.8-19.7-11.3-1.5zM729.4 596.5l-71.3-59.1s-31.5 33-34.4 38.8 12.2 28.2 12.2 28.2l59.1 29 34.4-36.9z"/><path class="st1" d="m627.9 570.4 69.4 58.5M705.3 620.9l-69.1-59.2M713.7 613l-69.5-59.7M722.4 603.5l-69.5-58.6"/><path class="st6" d="M695 633.4c-2.5-6.2-7.7-6.2-13.6-6.8-2.9-16.6-15.1-12.6-15.1-12.6s1.9-13.6-15.5-15.5c-1.9-13.6-15.1-12-15.1-12s-2.5-10.6-12.2-10.2c-6.2.4-10.2 10.6-10.2 10.6s-20.3 31.5-24.7 35.9c7.7 2.9 34 26.7 34.8 30.5 1 3.9-1.9 12.6-1.9 12.6s17.4 7.7 20.3-12c-.4-9.1-10.6-19.5-9.7-22.4 1-2.9 14.5-10.6 14.5-10.6s2.5 3.2 10.2 3.9c1.6 7.8 5.5 12.6 15.1 12.6 1.9 10.2 13.8 15 18.9 11.6 5.5-3.4 6.7-9.3 4.2-15.6z"/><circle class="st5" cx="627.6" cy="614.7" r="19.5"/><circle class="st1" cx="627.6" cy="615.9" r="9.1"/><path class="st1" d="M622.8 576.5c-3.3 1.9-4.4 11.6.7 11.6s2.6-7.7 2.6-7.7M642 587.8s-8 4.4-4.4 7.7c3.6 3.3 6.2-.7 6.2-.7M655.9 600.6c-5.5 1.5-8.7 12-2.6 13.8 6.2 1.9 6.2-6.2 4.1-6.5M677.3 618.8c-3.6-1.5-10.9.7-10.9 4.4s4.8 6.5 7.3 1.9M687.4 628.2c-5.1 1.5-8.7 10.2-3.3 12.8 7.7 2.9 5.1-6.2 5.1-6.2"/><path class="st5" d="m412.9 56.6 84.3.3-63.1 41.5-11.8-3.6z"/><path class="st1" d="m418 62.7 57.9 1.2-48 27.6-9.5-11.4z"/><path class="st10" d="m422.3 72.2 29.2-2.5-25.8 14.1z"/><path class="st5" d="m380.5 70 33.1-16.7L435.1 98l-35.3 8.7-14-2.2z"/><path class="st1" d="m388.7 75.5 22-9.1 9.9 25.8-22.5 7z"/><path class="st10" d="m394.8 80.9 12.3-5.1 4.1 10.2-12.1 4z"/><circle class="st5" cx="374.6" cy="94.4" r="26.9"/><circle class="st1" cx="374.6" cy="92.3" r="18"/><circle class="st10" cx="374.6" cy="92.2" r="8"/><path class="st4" d="M341.6 246.8s-.7 9.4 9.1 11.6c9.9 2.2 14.5-5.5 14.5-5.5s6.5 5.8 13.1-1.2c9.9 4.1 18.1-2.9 18.1-2.9s9.9 5.1 18.1-3.3c11.6 1.2 18.6-5.8 18.6-5.8s9.1 3.6 14.5-2.6c7.3 1.9 15.7-2.9 15.7-2.9l-10.9-26.9v-17.9l17.4-3.6s-2-7.4-2-12.8c0-5.5 7.5-19.9 3.9-28.3-1.9-5.8-12-17.1-14.2-18.6-2.2-1.5-7.3-1.2-9.9-2.9-2.6-1.9-12-11.6-14.5-12-2.6-.4-4.4 1.9-4.4 1.9l-22.2-3.3s-3.6-5.5-7.7-5.5-13.8 5.1-13.8 5.1-1.9-17.9-13.1-21.5c-7-1.5-31.9 18.1-33.7 19.3-1.9 1.2-9.9-1.7-13.2-2.2-3.3-.4-25.1 10.2-25.1 10.2l5.8 86.5 35.9 45.1z"/><path class="st1" d="M327.1 113s-18.1 8-15.7 29.8c2.6 21.8 25.4 25.4 25.4 25.4"/><path class="st10" d="M332.2 122s-9.1 5.8-8 16.7c1.2 10.9 10.2 16 10.2 16s7-8.4 5.8-17.9c-1-9.3-8-14.8-8-14.8z"/><path class="st5" d="M332.2 122s-9.1 5.8-8 16.7c.1 1.9.6 3.6 1.2 5.2 2 3.2 11.9 3.5 14.4-.1.4-2.2.7-4.4.4-6.8-1-9.5-8-15-8-15z"/><path class="st10" d="M404.6 106.7c-.3 1.2-.7 21.1-.3 23.7.3 2.6 6.5 9.1 9.1 8.4s15.2-21.8 15.7-25.4c.2-3.8-8.2-8.1-24.5-6.7z"/><path class="st6" d="M413.3 106.6c-2.6-.1-5.5 0-8.7.3-.3 1.2-.7 21.1-.3 23.7.3 2.6 6.5 9.1 9.1 8.4l-.1-32.4z"/><path class="st1" d="M404.6 116.9h8M404.6 126.8h7.3"/><path class="st6" d="M355 96c-6.8 4.4-13.5 9.3-16.4 11.5-.9.6 10.5 62.6 12.6 65.5s22.5 0 22.5 0L355 96z"/><path class="st10" d="M355 96c-1.5 1-2.9 1.9-4.4 2.9l18.7 74.6c2.6-.3 4.4-.6 4.4-.6L355 96z"/><path class="st1" d="m339.4 111.8 10.3-1.7M340.6 117.3l9.9-1.9M343.5 131.5l10.6-1.8M343.5 136.2l11.3-2.2M346.8 149.7l10.5-2.2M347.6 154.8l10.4-2.2M350.8 171.2l12-2.2"/><circle cx="344.5" cy="106.4" r="1.9"/><circle cx="347.9" cy="122" r="1.9"/><circle cx="351.9" cy="141.3" r="1.9"/><circle cx="355.8" cy="160.6" r="1.9"/><path class="st4" d="M399.1 149.3s20.3-9.1 28.7 6.5c.7 2.2-9.4 1.5-9.1 3.6.4 2.2 10.2.7 10.2 2.6-3.3 17.9-26.6 10.9-26.6 10.9l-3.2-23.6z"/><path class="st5" d="M382.4 149.3s13.8-5.8 20-1.2c6.2 4.8 5.5 22.9-1.9 26.1-7.3 3.3-12 .4-12 .4l-6.1-25.3z"/><circle class="st5" cx="380.2" cy="162.5" r="16.1"/><circle class="st10" cx="379.9" cy="162.3" r="6.2"/><path class="st12" d="m263.5 280.3 9.2 30.1 62.5-5.2 17.5-31.1-33.4-36.3-26.3-47.6-30.9 2.9-12.2 55.3z"/><path class="st1" d="m276.6 304.6-7.9-22.2M281.4 300.2l-6.3-17.8M287.8 294l-7.3-15.1M294 286.2l-7.3-13.5M303.7 282.4s-30.5-63.6-31.1-84.3M314.3 279.5s-29-41.2-32.5-69.4M321.6 276.6s-27.1-37.9-28.6-51M329.9 277s-24.2-35.4-28.2-47M342.5 281.8l-34.4-45.6M345 276l-28.2-36.3"/><path class="st12" d="M277.3 196.9s1.9 15 17.1 29.8c18.9 19.6 75.6 26.6 75.6 26.6l7.7-60-22.9-.4-23.2-5.8-32.7 1.2-21.6 8.6z"/><path class="st1" d="M283.4 198.9s.4 19.9 28.2 32.5c27.6 12.6 58.7 14.1 58.7 14.1"/><path class="st1" d="M288.6 198s2.5 19.5 28.6 30.5c26.1 11.2 54.3 11.2 54.3 11.2"/><path class="st1" d="M293 196.6s6.2 17 26.1 26.1c19.9 9.1 51 9.7 51 9.7"/><path class="st1" d="M300.8 195.1s2.9 12 21.3 21.8c18.4 9.7 45.2 7.3 45.2 7.3"/><path class="st1" d="M308.1 193.7s4.8 15.5 23.2 21.3c18.4 5.8 36.3 3.3 36.3 3.3"/><path class="st1" d="M313.5 192.7s4.1 12.6 19.6 17.4 36.6.4 36.6.4"/><path class="st1" d="M317.8 193.1c16.6 21.3 52.8 11.2 52.8 11.2"/><path class="st1" d="M329 196.6c3.9 4.8 42.7 2.3 42.7 2.3"/><circle class="st8" cx="301.7" cy="208.9" r="9.9"/><circle class="st8" cx="329.3" cy="218.1" r="9.9"/><circle class="st8" cx="349.7" cy="207.9" r="9.9"/><circle class="st8" cx="351.9" cy="236.2" r="9.9"/><path class="st5" d="m452.2 182.4 79.6 14.9-67.5 35.6-13.5-21.1z"/><path class="st1" d="m454.4 189.3 54.9 9.5-47.6 23.6"/><path class="st10" d="m456.2 198.3 33.8 2.6-30.2 15z"/><path class="st5" d="m409.7 187.9 42.1-15.7 13.2 62.1-41.8-.7z"/><path class="st1" d="m418 195.4 28.7-7.5 6.3 37h-26.2z"/><path class="st10" d="m425.4 202.4 13.1-2.9 2.4 16.4-12.6 1.4z"/><ellipse class="st5" cx="398.5" cy="215.9" rx="33" ry="31.2"/><ellipse class="st1" cx="398.5" cy="216" rx="19.3" ry="18.3"/><ellipse class="st10" cx="398.5" cy="215.5" rx="10.3" ry="9.9"/><path class="st5" d="M234.5 110.8s6.2-5.8 13.8-2.9c7.7 2.9-1.2 13.1-1.2 13.1l-8.4 1.2-4.2-11.4z"/><path class="st10" d="M343.5 78.7s15.7-12 26.9-15c-16-1.9-29.8 9.9-29.8 9.9l2.9 5.1z"/><path class="st6" d="M340.6 73.6s6.2 3.3 3.3 11.6c-2.2 2.9-4.1 2.6-4.1 2.6s-1.9 4.4-4.8 3.3c-2.9-1.2-8-9.1-8-9.1l1.2-6.5 12.4-1.9z"/><path class="st1" d="M339.9 87.8s-1.9-6.5-8.4-9.9M343.8 85.2s-2.9-8.4-9.1-9.4"/><path class="st6" d="m329.7 81.5-9.4 6.7c6.2 7 1.5 14.2 1.5 14.2s4.8-2.2 5.8-4.8c7.5 2.3 10.8-10.5 2.1-16.1z"/><path class="st1" d="M325.6 84.5s5.5 6.5 1.9 13.1"/><path class="st10" d="M294.4 89.3s12-12.3 17.4-15.7c5.5-3.3 18.9-10.2 22.5-5.1 2.6 0 6.2 5.1 6.2 5.1l-20.3 14.5s5.5 4.1 4.1 7.3c-1.2 4.8-12 6.2-14.5 5.8-2.6-.4-11.6 7.3-11.6 7.3l-3.8-19.2z"/><path class="st1" d="M334.4 68.5c2.6 2.9-4.8 7.3-8 4.4"/><circle class="st5" cx="313" cy="83.3" r="4.9"/><circle class="st8" cx="287" cy="238.5" r="11"/><circle class="st8" cx="314.9" cy="257.6" r="11"/><circle class="st8" cx="285.7" cy="269.8" r="11"/><path class="st5" d="M242.5 122s-4.4-10.2-8-12c-3.6-1.9-13.1-1.2-16.4 7.7-.4 5.8 13.5 17.9 13.5 17.9l11.3-1.5-.4-12.1z"/><path class="st5" d="M203.1 129.7c.4-5.1 9.4-10.9 15-12s16.7 13.8 16.7 13.8l-12.3 13.8c-.1 0-19.7-10.6-19.4-15.6z"/><path class="st5" d="M189.6 146.1c-.7-12.3 8-16.4 13.1-17.4 5.1-1.2 22.2 13.1 22.2 13.1l-3.6 9.4-9.4 7c-.1-.2-15.3-6.3-22.3-12.1z"/><path class="st5" d="M177 167.5c-2.6-16.7 7.3-23.7 12.8-24.7 5.5-1.2 23.2 11.3 23.2 11.3l-7.7 21.8h-14.2c.1-.1-7.6-1.1-14.1-8.4z"/><path class="st5" d="M200.9 173.6s-19.3-9.1-24-8.4c-4.8.7-13.5 8.7-6.2 22.5 5.5 1.5 15.7 5.5 15.7 5.5l17.4-4.4-2.9-15.2z"/><path class="st5" d="M195.1 188.2s-18.1-5.5-24.7-2.6-10.6 17.4-.7 24.4c8 2.9 29.5-5.5 29.5-5.5l-4.1-16.3z"/><path class="st5" d="M195.1 201.2s-22.2 2.6-25.8 7.7c-3.6 5.1 1.2 19.3 7.3 21.8 6.2 2.6 18.6-2.9 18.6-2.9l14.2-12.8-14.3-13.8z"/><path class="st5" d="M199.2 216.6c-2.9-.4-19.6 6.5-22.5 14.2s7.7 15.7 13.8 15.7c6.2 0 19.6-9.4 19.6-9.4l3.3-11.6c-.1-.2-11.3-8.6-14.2-8.9z"/><path class="st5" d="M206.7 230s-14.2 12.8-16.4 16.4 8.7 16 12.3 15.7c3.6-.3 14.2-8.7 14.2-8.7L222 241l-5.8-11.6-9.5.6z"/><path class="st5" d="M216.6 242.3s-12.2 14.2-12.6 19.6c-.4 5.5 9.3 15.2 18.7 13.5 7.3-1.9 9.4-7.3 9.4-7.3l4.8-22.2-10.6-7.7-9.7 4.1z"/><path class="st5" d="M234 239.8s-11.3 29-11.3 35.6 16.7 9.4 21.1 7.7c4.4-1.9 7-3.6 7-3.6l2.2-28.7-19-11z"/><path class="st5" d="M249 252.9s-8 28.3-6.2 31.6c1.9 3.3 22.9 3.3 25.1 0 2.2-3.3 4.4-17.9 4.4-17.9l-7.7-19.3-15.6 5.6z"/><path class="st5" d="M267.1 246.1s-3.3 36 .7 38.6 16-.4 18.9-5.1c2.9-4.8-1.2-23.7-3.6-26.6-2.5-3-16-6.9-16-6.9zM244.2 122.4s-6.2-.7-6.5 5.5c-.4 5.1 7 11.3 7 11.3l7.7-4.1-8.2-12.7z"/><path class="st5" d="M248.3 140.3s-8.4-10.2-9.4-11.3c-1.2-1.2-12 6.2-11.6 8.4.4 2.2 10.6 12.8 10.6 12.8l10.4-9.9z"/><path class="st5" d="M214 151.9c-.7-4.1 10.9-14.2 13.1-14.5 2.2-.4 12.3 9.4 12.3 9.4l-4.1 14.5-10.9 2.2c.2 0-9.7-7.7-10.4-11.6z"/><path class="st5" d="M230.4 160.6s-8.4-9.4-13.1-10.2c-4.8-.7-17.9 12.3-16.7 19.6s13.8 8 13.8 8l16-2.9v-14.5z"/><path class="st5" d="M229 178.4s-16.4-11.6-22.5-10.9c-6.2.7-15 12.8-11.3 20.8 4.1 2.9 24 1.2 24 1.2l9.8-11.1z"/><path class="st5" d="M216.6 187.4s-8-6.5-18.1-2.2c-5.8 2.6-7.3 16.4-2.9 20.3 5.5 1.9 17.4-1.2 17.4-1.2l13.1-5.1-9.5-11.8z"/><path class="st5" d="M219.5 196.9s-20 3.6-24 8.7c-4.1 5.1 1.9 15.2 5.8 16 4.1.7 13.8-4.8 13.8-4.8l12.8-7.3-8.4-12.6z"/><path class="st5" d="M221.7 208.2s-17.9 8.7-20.3 13.5c-2.6 4.8 7 14.5 11.3 14.2 4.4-.4 10.6-2.9 10.6-2.9l7.3-14.5-8.9-10.3z"/><path class="st5" d="M232.3 215.9s-17.9 14.5-19.6 20c-1.9 5.5 10.6 12.3 15.7 11.3 5.1-1.2 8.4-5.8 8.4-5.8l3.6-19.3-8.1-6.2z"/><path class="st5" d="M239.8 217.6s-12.3 24.4-11.6 29.5c.7 5.1 13.8 8.7 17.4 7 3.6-1.9 5.8-5.1 5.8-5.1l.7-22.2-12.3-9.2z"/><path class="st5" d="M249 220.5s-3.3 29.8-2.2 33.8c1.2 4.1 13.5 7.3 17.9.4 1.5-2.6 4.4-7 4.4-7l-4.4-18.9-15.7-8.3z"/><path class="st5" d="M260.9 231.1s1.2 19.3 3.6 23.7c2.6 4.4 13.8 7.7 19.3-1.5 1.5-4.1-8.4-22.5-8.4-22.5l-14.5.3z"/><path class="st12" d="M242.8 142.7 257 182l40.4 5.5 19.3-13.8-23.2-97.1s-42.2 13.5-48.3 31.6c-3.2 9.4-2.4 34.5-2.4 34.5z"/><path class="st1" d="m262.9 173.8 49.1-13.7M256.3 169.9l55.1-17M252.3 165.5l56.8-19.4M251.3 158.7l56.8-19.9M246.5 154.3l59.1-20.9M245.1 147.5l60.1-21.3M243 141.7l60.3-20.8M244.5 135.9l56.8-21.3M243.6 130.1l56.2-20.9M244.1 124.7l53.8-21.3M243 118.9l53.9-20.3M244.1 112.7l51.4-20.4M246.5 106.3c18.4-11.6 48.1-22.4 48.1-22.4M270 178l43.9-12.1"/><circle class="st8" cx="279.5" cy="95.5" r="9.9"/><circle class="st8" cx="260.6" cy="116.2" r="9.9"/><circle class="st8" cx="284.6" cy="129.4" r="9.9"/><circle class="st8" cx="266.7" cy="150.4" r="9.9"/><circle class="st8" cx="292.3" cy="163" r="9.9"/><path class="st5" d="M231.9 159.1s-12 7.3-8.7 16.4c2.2 4.1 10.9 12 10.9 12l10.9-3.3-1.5-13.1-11.6-12z"/><path class="st5" d="M239.6 186.4s-9.1-10.9-15.2-9.4c-6.2 1.5-13.1 10.2-4.8 18.9 2.9 2.9 8.7 5.8 8.7 5.8l12.8-5.8-1.5-9.5z"/><path class="st5" d="M237.4 193.7s-15 1.2-17.9 3.3c-2.9 2.2-1.2 13.5 5.5 16.4 5.1.7 13.5-3.6 13.5-3.6l4.4-8.7-5.5-7.4z"/><path class="st5" d="M239.1 201.7s-14.5 7.3-15.7 11.3c-1.2 4.1 11.3 13.8 14.5 12.8 3.3-1.2 9.1-7 9.1-7l2.2-12-10.1-5.1z"/><path class="st5" d="M246.8 202s-10.9 19.3-8.7 23.7c2.2 4.4 13.8 7 16.4 5.1 2.6-1.9 8-10.9 8-10.9l-2.2-10.6-13.5-7.3z"/><path class="st5" d="M269.8 212.3s6.5 17.9 6.2 19.6c-.4 1.9-13.5 4.8-17.4 1.9-4.1-2.9-2.2-19.3-2.2-19.3l7.3-6.5 6.1 4.3z"/><path class="st5" d="M240.3 183.1s-9.4 1.5-3.6 8.7c-5.1 7.3 2.6 11.3 2.6 11.3s0 6.5 7.3 7c4.4 6.5 10.9 4.1 10.9 4.1s9.4 2.9 11.3 0c1.9-2.9-.7-18.1-.7-18.1l-18.9-14.5-8.9 1.5z"/><path class="st1" d="m236.7 191.8 4.6-1M239.1 203.1l4.1-4.1M246.4 210.1l1.9-5.2M257.3 214v-5.4"/><path class="st5" d="M316.6 173.6c-7.3.7-35.3 7-46.6 4.4-11.3-2.6-27.3-35.3-27.3-35.3s-12.8 6.5-10.9 21.5c1.9 15 17.1 32.7 33.4 34.8 16.4 2.2 49.8-7.7 60.7-5.8 2.2 0 2.9 3.3 2.9 3.3l25.8-3.6s-2.9-14.2-12.3-17.4c-9.4-3.3-18.4-2.6-25.7-1.9z"/><path class="st6" d="M341.3 554.4c-5.8 2.9-81.4 22.9-87.3 22.9s-8.7-3.3-10.6-7.7c-1.9-4.4 2.2-8.7 1.5-13.5-.7-4.8-4.8-13.1-4.8-13.1l38.2-7.5 22.9-3.5 4.6 5.1s4.8 3.6 5.8-1.5c1.2-5.1-4.4-38.2-4.4-38.2l10.2.7s4.8 22.9 8 21.1c3.3-1.9 2.9-20 2.9-20l14.2 5.5c.3.2 4.6 46.7-1.2 49.7z"/><path class="st6" d="m397.7 486.8-25.8-44s-9.9-25.4-37.5-29.8c-10.9-1.7-35.6.7-48.3 10.9-21.1 16-20 38.9-16.7 51-9.4-5.5-21.8 2.6-24.4 9.4-2.6 7-1.5 9.9-1.5 13.1-8 10.9-3.3 18.6-3.3 18.6l6.8 7 57.2-4.8s-2.6-13.5-.7-16.7c1.9-3.3 23.7-1.5 33.8 1.9 10.3 3 60.4-16.6 60.4-16.6z"/><path class="st1" d="M291.8 510.7c4.8-1.2 2.2-7.7 11.6-9.4"/><path class="st5" d="M267.9 455.1c-.9 7.5.1 14.5 1.5 19.6 7.3 4.4 14.2 5.1 16.4 1.5 26.9-2.9 42.5 7.3 42.5 7.3s14.2-9.1 9.4-24.7c-4.8-15.7-10.2-19.6-26.9-23.2-16.8-3.8-41.8 9.1-42.9 19.5z"/><circle class="st5" cx="304.7" cy="464.7" r="15.8"/><path class="st1" d="M243.5 497.2s43-2.2 44-5.5c1.2-3.3-1.9-15.7-1.9-15.7"/><path class="st1" d="M262.1 473.6c1.9 6.2.4 22.2.4 22.2M269.3 474.7c2.6 9.9 0 19.6 0 19.6M251.2 477.6c-1.9 5.8 3.6 6.5 3.6 6.5s-4.4 1.5-2.6 5.8c-4.8 0-4.1 6.5-4.1 6.5"/><path class="st6" d="m238.4 526.4 66.5-2.2s-.4-12.8-5.5-12.3-5.8 12-5.8 12-2.2-12-6.5-11.6c-4.4.4-5.8 11.6-5.8 11.6s1.2-12-4.1-11.6c-5.1.4-7 12.3-7 12.3s0-11.3-5.1-10.9c-5.1.4-6.2 10.9-6.2 10.9s1.2-10.2-4.8-10.6c-5.8-.4-5.8 11.6-5.8 11.6s0-11.6-5.8-12c-5.6-.4-4.1 12.8-4.1 12.8zM237.7 536.2l68.7-7.3s.7 11.3-4.1 11.6c-4.8.4-7.3-9.9-7.3-9.9s.4 10.9-5.5 11.3c-5.8.4-7-10.2-7-10.2s.7 9.9-4.8 10.6c-3.6.4-6.1-9.9-6.1-9.9s1.5 10.6-5.1 10.9c-4.1.3-5.8-9.4-5.8-9.4s1.2 10.6-5.1 10.6c-4.8 0-5.8-9.1-5.8-9.1s-.4 10.2-7 10.9c-4.1.6-5.1-10.1-5.1-10.1z"/><path class="st0" d="M374.4 442.1s-21.1 4.1-35.3 10.9c-14.2 7-17.1 33.1-2.9 49.1s24.4 16.7 24.4 16.7l19.3-9.9 23.2-21.5-10.9-32.7-17.8-12.6z"/><path class="st4" d="M367.2 504.5s-30.2-8-26.1-28.3c4.1-20.3 32.7-17.9 32.7-17.9l15 6.2-2.9 31.2-18.7 8.8z"/><path class="st10" d="M578.8 273.7s-13.1 1.5-15.7 6.2c-2.6 4.8-3.3 21.1 11.6 25.8-7.7 2.6-9.9 13.1-2.2 21.5s23.4 1.2 26.4-3 8.1-16.3 8.1-16.3L593.4 277l-14.6-3.3z"/><path class="st4" d="M568.4 242.6c-2.9 2.5 0 6.8 2.5 7.3-2.5 4.4.4 12 3.3 14.1-1.9 4.4 1.5 11.6 4.8 13.6-1.5 4.4 1 12.2 6.2 15.1-1.5 5.4 2.5 13.1 6.2 13.6-1 4.8 3.3 16 7.3 18 1 2.9 2.9 8.3 7.3 9.1 4.4 1 42.7-11.6 59.7-18.9s64-49.9 68.4-59.7c4.4-9.7-23.2-71.3-36.3-80.4-13.1-9.1-61.6-34.4-61.6-34.4l-39.3 61.6 24.2 13.6-34.4 19.9c.1-.3-15.4 5-18.3 7.5z"/><path class="st1" d="M653.9 149.1c-10-5.4-17.6-9.3-17.6-9.3L597 201.4l11.9 6.7s11.2 4.1 12.3-1.7c0-1.9-6.2-5.5-5.5-7 .7-1.5 10.2 2.2 10.9-.4 1.2-8.7-14.5-20.3-14.5-20.3s17.9 14.2 25.4 7.7c1.5-1.9-4.4-6.2-4.1-7.7.4-1.5 7.3 1.9 8.7 1.2 2.6-9.9-17.9-20.8-17.9-20.8s20.3 15 26.9 7c1.2-4.1-7-6.5-5.5-7.7s8 2.6 9.4 1.5c1.9-1.2 4.8-6.3-1.1-10.8z"/><path class="st4" d="M548.6 171.3c-.4-2.5 34-55.3 36.9-55.7 0 0-9.7-1.5-17-7.7-13.1-11.6-24.2-20.3-32.5-24.2-8.3-3.9-18.9-12.6-22.8-13.1-3.9-.4-7.7 8.7-7.7 8.7s-1.9-1.9-5.8-1.5-6.8 10.2-6.8 10.2-4.4-1.5-7.3 0c-2.9 1.5-3.3 5.8-2.5 9.7-5.4.4-9.7 5.8-6.8 10.6 2.9 4.8 22.4 18 22.4 18s-9.7-1.5-13.1-1-6.8 4.8-5.4 8.3c1.5 3.3 7.7 11.6 15.5 17 7.7 5.4 18.4 9.7 29.6 11.6 11.1 1.9 23.3 9.1 23.3 9.1z"/><path class="st1" d="m483.2 97.6 21.7 16.5M492.7 88l20.2 16.1M505.4 79.1l17 15.4"/><path class="st6" d="M483 126.3c-2.3 1.6-3.9 4.6-2.9 7.3.7 1.9 3 5.1 6.1 8.6 3.2.1 7.5-4.6 6.1-6.5-1.4-2.3-8.4-10-9.3-9.4z"/><path class="st1" d="M498.7 126.2c6.8 1.5 11.2 6.8 14.5 5.4 3.3-1.5 16.6-12.6 29-1M519 115.6c17-8.3 26.7-25.7 26.7-25.7M502 119.9c4.4-13.6 34-36.3 34-36.3M481.1 112.2l4.4-4.9M489.4 118l3.9-5.3M488.4 100l3.9-4.8M496.7 105.8l3.5-4.3M497.7 89.9l4.3-5.4M505.4 96.7l3.9-4.4M509.3 81.6l5.4-4.4M515.5 87l4.4-4.4"/><path class="st10" d="M603.8 123.8s26-24.2 28-24.7c2-.6 20.8 21.5 20.8 21.5l-24.7 16.7-24.1-13.5z"/><path class="st1" d="M604.5 128.5s25.7-22.6 27.3-22.2c1.6.4 15 16 15 16M601.3 203.1l41.9-58.9"/><path class="st10" d="m542.8 195.9-22.5-11.6c.7 4.4-4.8 6.2-8.7 5.5-4.1-.7-11.3-4.5-7.7-13.6 2.2-4.1 9.1-2.9 9.1-2.9s-7-8 2.9-12.3c7-2.9 14.2 1.5 15.2 4.4 1.5 4.1-1 6.2-3.8 6.8l23.8 14.7-1.9 10.2-6.4-1.2z"/><path class="st1" d="M523.1 164.9c-7.7 1.2-5.1 8.7 4.2 7.1M520.2 184.2c-4.1-9.4-14.2-2.6-7.3 1.2"/><path class="st10" d="M662 282.4s25.8 17.9 30.5 20.8c4.8 2.9 32.7 28.3 37.5 29 4.8.7 7.3-3.6 7.3-3.6s4.4 1.2 4.4-2.9c-3.6-4.4-17.1-19.6-17.1-19.6l5.1-1.9s-11.3-14.2-17.1-16c-3.6-1.9-34.6-24-34.6-24l-16 18.2z"/><path class="st5" d="M673.8 269 662 282.4s25.8 17.9 30.5 20.8c0 0 0-9.9 5.8-18.6L673.8 269z"/><path class="st1" d="M724.6 306c-6.5-9.1-15.2-13.5-17.4-7"/><path class="st5" d="M718.4 309.2c-3.3 2.2 3.6 10.6 6.5 8 2.9-2.4-3.2-10.1-6.5-8z"/><path class="st10" d="M753.3 301c-1.5.4-12.8 10.6-12.8 10.6l4.4 11.6 13.8-9.9c-1.2 5.5 6.2 17.4 15 11.6 4.8-2.9 5.1-9.4 2.6-14.2-3.3-7-12-7.3-12-7.3s6.2-7 1.2-13.8c-5.1-7-13.8-8.4-18.6-2.9-6.6 9.2 2.8 14.6 6.4 14.3z"/><path class="st1" d="M758.7 313.3c4.8-6.5 15.7-2.9 10.2 5.5M751.9 291.5c6.2-7 13.5 9.4 1.5 9.4M701.4 300.2c-1.9-2.6 1.5-11.3 11.3-12M569.8 249.9l7.2-3.1M574.3 263.9l5.3-2.3M579.1 277.4l4.4-2.7M585.4 292.5l3.6-1.4M591.8 306l3-1.8"/><path class="st10" d="m601.1 226.6-14.2 8.3s-3.6 1.3-7.7 2.8c2.9 5.1 36.3 76.1 42.8 92.2 8.1-2.3 18-5.7 27-8.9 6.5-2.5-47.9-94.4-47.9-94.4z"/><path class="st2" d="M606 126s16.6-29.8 15.7-31.2c-.9-1.5-27-10.6-28-9.4s-9.9 31.9-9.9 31.9l11.6 10.2L606 126z"/><path class="st1" d="M590 119.1s5.8-24.5 7.7-26.1c1.7-1.6 20.8 6.2 20.8 6.2"/><path class="st10" d="M636.3 139.8 597 201.4s-48.1-27.6-48.5-30.1c-.4-2.5 34-55.3 36.9-55.7s47 18.4 50.9 24.2z"/><path class="st4" d="m602.1 193.7 4.8-7.5s-4.8-4.4-6.2-4.4c-1.5 0-4.8 5.8-4.4 7.3.3 1.2 5.8 4.6 5.8 4.6zM614.3 174.5l5.5-8.7s-4.6-3.3-6.1-3.8c-1.5-.4-5.5 5.1-5.1 7 .3 1.7 5.7 5.5 5.7 5.5zM631.8 146.8l-4.6 7.3s-3.8-2.2-5.2-4.1c-1.5-1.9 2.6-7 4.1-7 1.4.2 5.7 3.8 5.7 3.8z"/><path class="st1" d="m559.1 176.5 37-56.1M585.4 192.5l38.4-60.2"/><path class="st5" d="M563 181.2c5.2 3.2 11.3 6.8 16.8 10.2 3-6.4.1-9.3.1-9.3l-8.7-5.5c-.1-.1-7.3.4-8.2 4.6z"/><path class="st5" d="M579.9 182.1c-1.9.7-6.2-2.6-8.7-5.5-2.6-2.9 4.1-13.8 8.4-13.5 4.4.4 8.4 3.3 9.1 6.5.7 3.2-4.5 11.3-8.8 12.5z"/><path class="st5" d="M597.3 155.8c-1.2-1.9-6.5-4.4-8.7-5.5-2.2-1.2-12.3 8-9.1 12.8 2.2 2.6 7 6 9.9 5.5 2.8-.3 10.1-6.6 7.9-12.8z"/><path class="st5" d="M588.6 150.4c-2.2-2.9 4.1-12 7.7-12.3 3.6-.4 8.7 2.6 10.2 5.5s.4 11.6-9.1 12.3c-1.6-.4-6.7-2.6-8.8-5.5z"/><path class="st5" d="M596.3 138.1c-1.9-3.6 3.6-12 7-11.3s10.2 4.1 10.9 7c.7 2.9-5.1 9.9-7.7 9.9-2.7-.1-8.8-3.2-10.2-5.6z"/><path class="st6" d="M694.8 235.5s-12.3 4.8-24.4-3.3c-12-8-5.8-21.5-5.8-21.5l33.8-37.5s16.4 8 27.6 28c11.3 20 11.6 31.2 11.6 31.2L726.1 247l-31.3-11.5z"/><path class="st1" d="M726.1 201.2c-9.9-8.4-16.7-2.6-17.4 2.9s6.2 9.9 10.6 7c4.4-2.9 1.2-9.1-4.8-7.3"/><path class="st6" d="M651.9 213.7c-1.2-16.4 25.4-19.6 31.9-13.8 3.3 4.8-7.3 8.4-7.3 8.4s-11.6.3-24.6 5.4z"/><path class="st6" d="M652.6 198.8c5.1-12.8 23.2-10.6 31.2-7.3s0 8.4 0 8.4-9.7-3.8-31.2-1.1z"/><path class="st6" d="M652.6 188.6c3.3-13.5 35.3-10.6 41.5-6.2 2.2 4.1-7 11.3-7 11.3s-10.6-7.3-34.5-5.1z"/><path class="st6" d="M659.1 176.5c11.3-16.4 30.2-10.2 38.5-4.4 8.4 5.8-2.9 12-2.9 12s-8-8.3-35.6-7.6z"/><path class="st10" d="M708.2 179.9c-5.5-4.6-9.7-6.7-9.7-6.7s-5.1 13.8-21.8 34.8l6.5 5.1c-.1.2 22.5-27.8 25-33.2z"/><path class="st5" d="M708.9 229.2s-13.8-4.1-17.9 6.5c-4.1 10.6 5.1 22.5 14.5 25.4 9.4 2.9 23.7 2.6 29-7.7 5.5-10.2 2.9-21.1 2.9-21.1l-12.3-7.3-16.2 4.2z"/><circle class="st5" cx="717.3" cy="232.9" r="12"/><path class="st5" d="M634.7 326.4c0 4.8 31.6 2.9 32.7-13.5 1.2-16.4-8.4-30.5-8.4-30.5l-25.1 9.9s5.5 7 5.8 16.7c.6 9.7-5 12.6-5 17.4z"/><path class="st10" d="M634.7 326.4c0 1.5 3.2 2.3 7.7 2.3 11.6-22.2-1.5-39.2-1.5-39.2l-6.8 2.6s5.5 7 5.8 16.7c.4 9.9-5.2 12.8-5.2 17.6z"/><path class="st10" d="M606.7 261.3c0 11.6 9.4 27.6 22.2 30.9 12.8 3.3 50.2-13.8 49.8-29.8-.4-16-11.6-26.1-20-27.3-6.7-.9-35.6 15.2-35.6 15.2s-16.4-.6-16.4 11z"/><path class="st5" d="M611.1 258c0 10.6 6.2 25.4 17.9 28.3 11.6 3 43.7-11.9 43.4-26.4-.3-14.5-8.9-21.3-16.6-22.4-6.1-.7-34.1 11.3-34.1 11.3s-10.6-1.4-10.6 9.2z"/><path class="st5" d="M599.9 237.2s-2.6 16 4.8 22.5c7.3 6.5 19.6 8.4 23.2 8 3.6-.4 5.5 2.2 7.7 1.9 2.2-.4 16.4-7 19.6-11.6 3.3-4.8 9.1-12.3 6.2-20.8-2.9-8.4-25.4-15-25.4-15l-25.8 4.1-10.3 10.9z"/><path class="st10" d="M655.2 258c3.3-4.8 9.1-12.3 6.2-20.8-2.9-8.4-25.4-15-25.4-15l-25.8 4.1-10.2 10.9s-2.6 16 4.8 22.5c7.3 6.5 19.6 8.4 23.2 8s5.5 2.2 7.7 1.9c0 0-2.9-5.8-7.3-6.2s-16.4-1.9-21.1-8.4c-4.8-6.5-2.9-17.1-2.9-17.1l35.3-9.9s10.6 5.1 13.5 11.3c2.7 6.4 2 18.7 2 18.7z"/><path class="st1" d="M638.8 251.5s6.2 5.1 7.7 12.8"/><path class="st10" d="M638.8 251.5s6.2-21.5-5.8-31.6-32.4-11.6-36.3-14.5c-4.1-2.9-14.5-9.4-14.5-9.4l-21.8-2.2-15.7-.7s-5.8 4.1-1.5 7c-.7 4.4 8.1 11.3 13.1 15 4.1 2.9 10.9 7.3 16 8.7 5.1 1.5 19.3 2.9 19.3 2.9l23.7 11.6s7 7 11.3 10.9c7.8-.6 12.2 2.3 12.2 2.3z"/><path class="st1" d="M582 204.6c-2.2-3.3-31.6-8.4-37.5-11.6"/><path class="st5" d="M563.9 208.2c-2.2 2.9 9.4 9.9 11.6 5.5 2.2-4.3-9.4-8.4-11.6-5.5z"/><path class="st6" d="M559.2 197.5c-6.5-1.6-13.9-1.7-16.1-3 0 0 .4-8.4 5.8-8.4 0-1.9 6.2.7 6.2.7s4.8-.4 5.8 3.3c1.1 3.6 8.5 9.8-1.7 7.4z"/><path class="st1" d="M555.2 186.7s-2.6 4.1-1.5 7.7M548.9 186c-.7 1.9-.7 8-.7 8"/><path class="st6" d="M556.6 196.7c5.4 1.3 11.5 2.8 16.4 4.2.6-4.8 9.7-6.5 9.7-6.5s-2.6-4.1-6.5-4.1c-2.6-5.1-10.6-4.4-13.8-2.9-3.3 1.5-6.5 5.8-5.8 9.3z"/><path class="st1" d="M562.7 198s4.4-7.7 13.5-7.7"/><path class="st5" d="M638.8 251.5s-4.4-2.9-12.3-2.6c-4.4-4.1-11.3-10.9-11.3-10.9l-26.6-11.3s7-8 6.2-16c0 0 26.9 5.1 35.3 14.2 8.3 9.1 8.7 26.6 8.7 26.6z"/><path class="st5" d="M575.1 238.7s3.3-17.9 29-11.6c25.8 6.2 22.2 21.8 22.2 21.8-2.6 0-9.1-3.3-11.6-5.1-2.6-1.9-3.6-4.4-15.7-5.8-11.9-1.5-23.9.7-23.9.7z"/><path class="st10" d="M584.5 237.7c4.2-.3 9.4-.3 14.5.3 12 1.5 15.7 5.8 15.7 5.8s4.1-7.3-14.2-10.9c-8.3-1.5-14.8 1.1-16 4.8z"/><path class="st6" d="M724.6 306s13.5 15.2 17.1 19.6c0 0 12-2.2-2.2-15-3.3-3.5-14.9-4.6-14.9-4.6z"/><path class="st6" d="M733.5 316.1c-4.5-5.1-8.9-10-8.9-10s5.1-2.6-2.2-10.2c2.6-2.2 5.5-4.1 9.9-1.5 9.4.7 8.7 13.1 7.3 16.4a9.8 9.8 0 0 1-6.1 5.3z"/><path class="st1" d="M732.3 294.4c7 7.3-.4 14.5-2.9 16.7M736.6 318.7c4.1-.4 6-4.6 6-4.6"/><path class="st6" d="M739.8 322.3c2.2-.7 5.5-4.4 5.5-4.4"/><path class="st10" d="M634.9 367.2s1.9-14.5 7.3-16.6c5.4-1.9 26.1-5.8 31.1-9.1 4.8-3.3 8.3 5.4 10.2 13.6 1.9 8.3-15.5 18-15.5 18l-17 3.3-16.1-9.2z"/><path class="st4" d="M634.9 365.3c-4.8 1-11.6 16.6-4.4 22.4-8.3 4.8-2.9 15.5 1.5 18-3.3 4.4-5.4 14.5 1 18.4-3.9 2.9-3.3 13.6 0 17-1.9 3.9-4.8 11.6 1 16.6-3.3 3.3-4.8 13.1.4 17-1.5 4.4-1 16.6 4.4 18s58.2-14.5 58.2-14.5-23.8 9.1-29 27.1c-5.4 18-9.7 32.5-9.7 32.5l71.3 59.1s11.6-7.7 25.7-19.5c14.1-11.6 39.3-42.7 45.6-52.4 6.2-9.7 7.7-78.1 7.7-78.1s-7.7-27.6-17.4-34c-9.8-6.4-151.5-48.6-156.3-47.6z"/><path class="st1" d="m630.5 387.6 14.4.6M632 405.5l12.6.6M633 423.9l10.4-.1M633 440.9l9.7 1.2M633.9 457.3l10.7-.4M634.4 474.3l10.9-1.7"/><path class="st10" d="M687.6 379.2c-8.3-2.5-16.3-4.6-23.2-6.7l-6.7 116.3c7.3-1.9 15.4-4.1 22.4-6.1l7.5-103.5z"/><path class="st5" d="M689.6 481.3c-5.7 3.2-13.4 8.6-18.1 16 4.4 2.9 19.7 14.2 19.7 14.2l12.3-16.7s-6.9-8.7-13.9-13.5z"/><path class="st10" d="M689.6 481.3c-1.7 1-3.6 2.2-5.5 3.5 4.8 4.2 16.4 14.1 16.4 14.1l3-4.1s-6.9-8.7-13.9-13.5zM692.2 508.6l-15-.4s-5.5-3.6-8.4-4.8-33.1 4.1-36.3 6.2c-3.3 2.2-3.6 7.3-1.9 8.7-2.6 4.1-1.2 6.5.4 8 1.5 1.5 13.1 4.8 13.1 4.8h18.1s5.1 5.8 12.8 1.2l17.9 1.9 5.1-9.1-5.8-16.5z"/><path class="st1" d="M630.8 518.4c-2.6 4.1-1.2 6.5.4 8 1.5 1.5 31.9.7 31.9.7"/><path class="st6" d="M647.8 527.3c-7.8 0-16-.1-16.7-.9 0 0-3.3 5.5 2.9 7 1.2 3.3 4.1 1.5 4.1 1.5s4.1 3.6 7.7 1.9c4.8 1.2 4.8-1.9 4.8-1.9s5-7.6-2.8-7.6z"/><path class="st1" d="M638.1 534.7c0-1.9.9-6.8 2.6-7.7M634 533.2c.4-3.3 1.5-6.2 1.5-6.2M638.4 513.7c2.6 4.8-3.6 7.3-7.7 4.8"/><path class="st5" d="m692.2 508.6-15-.4s.7 17.4 1.9 18.9 14.2 0 14.2 0l-1.1-18.5z"/><circle class="st5" cx="659.8" cy="515.1" r="4.8"/><path class="st6" d="M659.6 527.2c-3.6 0-9.1.1-14.5.1-2.2 4.2 1.9 21.3 17.1 12.9 5.5 1.9 8 1.9 9.9-.4-7.5-6.1-10.4-12.6-12.5-12.6z"/><path class="st1" d="M662 540.2c-4.4-1.9-10.2-9.1-9.9-12.8"/><path class="st2" d="M716.9 555.5c-4.8.4-19.6-11.3-25.1-20.8-13.5-24.7 18.1-54.2 35.6-53.1 14.2-.4 28.3 21.5 28.3 21.5l-7.3 26.1c.2.1-26.7 26-31.5 26.3z"/><path class="st5" d="M715.5 548.9c-5.8-.7-17.4-10.9-19.6-24-2.2-13.1 15-37 33.4-37.5 10.2 0 20.8 16 20.8 16l-8.7 19.3c-.1.1-20.1 27-25.9 26.2z"/><path class="st10" d="M743.9 567.8c-17.4 2.6-27.6-11.6-29-21.1s1.9-21.1.4-26.6c.7-4.4 9.9-15.7 11.6-15 4.8 1.5 26.1-2.9 30.5-1.5s12.3 10 14.5 15.1 2.9 18.7 2.9 18.7-13.5 27.9-30.9 30.4z"/><path class="st5" d="M744.9 561.3c-17.4 2.6-23.7-6.2-25.1-15.7-1.5-9.4.4-18.9-4.8-25.4.4-3 5.1-9.3 8.4-12.8 14.2 2.9 31.5.9 35.7 2.9 1.5.7 6.5 5.5 8.7 10.6s0 16.4 0 16.4-5.5 21.5-22.9 24z"/><path class="st10" d="M735.2 527.9c2.2 9.1-2.2 27.6 2.2 33.4 4.4 5.8 34.1 32.7 34.1 32.7l26.1 13.8s4.4 0 4.4-4.8c2.6-1.9 4.1-7.3 1.9-11.6-3.6-7.3-24.4-24.7-32.7-27.6-2.9-.7-13.5-11.3-13.5-11.3s16 9.1 27.6 4.1 16-19.6 12-26.9c-4.4 2.9-22.2 9.4-28.3 6.2-4.4-2.2-8-7.7-10.2-8.7-2.3-1.2-17.1 1.4-23.6.7z"/><path class="st1" d="M802 603.1c-7-2.6-8-10.2-1.5-10.9M797.6 607.9c-1.5-3.3-12.8-12-24-19.6"/><path class="st6" d="M781.4 593.5c8.3 6 15.2 11.8 16.4 14.4 0 0 .7 6.5-6.5 2.6-3.3 0-4.1-1.9-4.1-1.9s-3.6 1.5-4.8-2.6c-3.9-3.2-3.4-14.1-1-12.5z"/><path class="st1" d="M795.9 605.7s-1.9 3.3-4.8 4.8M793.3 603.2c-1.5 3.3-6.2 5.4-6.2 5.4"/><path class="st5" d="M771.2 563.9c-2.9-.7-13.5-11.3-13.5-11.3s16 9.1 27.6 4.1 16-19.6 12-26.9c-.4 5.8-9.9 13.8-23.7 13.1-13.8-.7-20.8-15.5-20.8-15.5-5.8.7-13.4 1-17.9.6 1.2 4.5.4 14.1.4 20.3.1 3 21.6 29.9 27.6 30.9 2.8-7.8 8.3-15.3 8.3-15.3z"/><path class="st5" d="M757 552.1c-5.5-4.8-15.7-20.8-21.8-24.4M720.2 513.2c5.5 1.2 13.5 9.9 15 14.5"/><circle class="st5" cx="781.9" cy="581.6" r="4.4"/><path class="st6" d="M790.5 600.6c-3.5-2.9-8-6.2-12.6-9.4-9.6 4.8-14.7 5.1-27.7 5.5.7 5.1 7.3 6.2 7.3 6.2s4.4 5.1 15 5.5c10.3.2 14.2-4.2 18-7.8z"/><path class="st1" d="M785 596.5c-2.9 4.4-22.9 7.3-27.6 6.2"/><path class="st6" d="M793 442.8s1.5 8.3-2.9 11.6-16 1.5-22.8 3.9c-6.8 2.5-18 17.4-7.7 28.2 10.2 10.6 45.6 23.2 45.6 23.2s11.6-7.7 16-12.6c4.4-4.8 4.8-25.3 2.5-36.3C821.1 449.6 812 437 812 437l-19 5.8z"/><path class="st6" d="M813.3 509.3c2.5-9.7-41.2-23.2-41.2-23.2s-7.3 1-21.8 1c13.1 16 31.1 2.9 31.1 2.9s-2.9 8.3-24.2 8.7c16.6 14.1 36.3-1.9 36.3-1.9s-6.2 9.7-25.7 13.1c20.9 10.2 35.9-8.3 35.9-8.3s-8.7 14.5-28.6 16.6c17.3 14.3 35.7.8 38.2-8.9z"/><path class="st1" d="M808.9 469.5s2.9 6.2 5.8 1.9c2.9-4.4-1.5-12-6.8-10.2-12 6.2-2.9 18 4.4 18.9 7.3 1 11.6-4.8 12.2-9.1"/><path class="st10" d="M821 497.1c-1.9 4.8-7.7 12.2-7.7 12.2l-41.2-23.2s5.8-5.8 10.2-5.4c4.3.4 38.7 16.4 38.7 16.4z"/><path class="st5" d="M811.6 438.3c.3-6.1-9-21.1-15.2-24-16-5.8-35.9 12.6-33 26.7 1.9 11.2 21.8 16.6 26.7 13.6 4.8-3.1 21.3-10.3 21.5-16.3z"/><circle class="st5" cx="795.9" cy="443.4" r="11.6"/><path class="st10" d="M606.3 552.8s11.6 39.8 8.7 46.6c-2.9 6.8-9.7 6.2-9.7 6.2s-.4 7.3-6.2 4.8c-6.2-5.8-16-25.7-14.5-35.4-4.4-8.3-1-18-1-18l22.7-4.2z"/><path class="st6" d="M592.1 590.4c2.2 8.6 5.1 17.4 7 20 0 0-2.9 6.2-7.3 7.7-8.3-10.6-9.7-24.7-9.7-24.7s8.6-8.2 10-3z"/><path class="st1" d="M610.2 597c-8.7-5.8-11.2 7.7-4.8 8.7"/><path class="st6" d="M593.6 596.3c-2-7-3.8-14.8-4.4-19.6 0 0-5.8-1.5-13.1-7.3-4.8 1.5-1 20.9-1 20.9s4 8.7 18.5 6z"/><path class="st1" d="M576.2 576.9s2.9 8.7 15.8 13.6M597 568.4c-4.8-2.9-9.1 4.8-7.7 8.3"/><circle class="st5" cx="600.9" cy="577.4" r="5.1"/><path class="st1" d="M586.1 604.5c4.8 0 8.4-3.3 8.4-3.3M589 611.1c3.3 0 8-4.1 8-4.1"/><path class="st10" d="M578.7 558.7s1 47-3.9 55.7c-2.9 3.3-2.9 5.8-8.3 4.4-5.4 1-6.2-3.9-6.2-3.9s-8.3-29.6-8.7-40.2c-.4-10.6 11.6-20.3 11.6-20.3l11.6-3.3 3.9 7.6z"/><path class="st1" d="M572.3 609.6c-6.8 1.9-7.3 4.4-5.8 9.1M560.3 615s-8.7-40.2 6.8-43.1"/><path class="st6" d="M557.9 597.6c.6 9.3 2.3 17.4 2.3 17.4s-7.7 4.8-11.6-15.1c.5-7.7 8.6-13.7 9.3-2.3z"/><ellipse class="st5" cx="570.4" cy="590.3" rx="4.1" ry="6.5"/><path class="st6" d="M558.4 584.5c-.7 4.6-.7 10.2-.3 15.1-5.5 3.3-12.9 1.5-14.4-8.7 0-5.4 4.5-10.2 4.5-10.2s-.4-5.5 3.3-8.7c-.5 5.1 3.4 10 6.9 12.5z"/><path class="st1" d="M548.2 580.6s1.2 12.3 8.4 11.6"/><path class="st4" d="M265.4 316.4c1.9-4.8 26.1-27.1 31.9-30.1s24.7-9.1 30.5-8.3c5.8 1 15.5 5.8 17.4 4.8 1.9-1-.4-10.6 8.7-9.7 5.8-5.8 13.6-4.8 17.4-3.3 2.5-3.3 11.2-6.2 17.4-3.3 5.4-5.8 13.6-5.8 17.4-4.4 5.4-5.8 16-7.7 19.5-5.8 3.9-4.8 14.1-5.4 17-3.3 4.4-4.4 12-5.4 16.6-3.3 4.4-3.3 12-3.9 15.1-2.9 2.9 1 6.8 11.2 6.8 11.2s4.4-4.8 8.7-8.3c4.4-3.3 51.8-13.1 56.2-13.1 4.4 0 3.3 6.2 3.3 6.2s5.8 5.4 1.9 13.1c6.8 10.6 1.9 18.9 1.9 18.9s7.7 7.3.4 15.5c8.3 8.7 1.9 16 1.9 16s9.7 10.6.4 17c3.9 3.9 6.8 11.2.4 13.6-6.2 2.5-22.8-.4-22.8 1.9 0 2.5 15.7 31.4 17 42.2 1 7.7-6.1 43-6.1 43 .4 2.5 11.3 12.9 13.8 17.7 2.5 4.8 18 54.3 18 54.3l-24.7 29.6-6.8 20.3s-9.7 15.5-18 15.5c1 2.9 2.5 9.7-1 12-3.3 2.5-6.8 1-9.7.4 3.3 7.3-4.4 14.5-9.1 10.6 1 5.8-5.8 13.1-12.2 11.2 1 6.8-2.9 12.6-11.2 9.7.4 8.7-4.4 13.1-11.6 12.6 1 4.8-4.8 11.3-14.1 8.9 1 7.7-10.5 12.8-13.8 11.3-1.5 7.3-11.9 10.5-17.3 7.5-5.4-2.9-13.1-12.6-18.4-18s-33.7-19.6-43.4-26.9-18.1-15.2-19.2-36.1c-1-20.9 21.3-67.9 23.2-70.8s11.2-16.6 11.2-16.6-1.9-13.6-4.4-21.8c-2.5-8.3-5.4-18.9-15.5-35.9-10.2-17-8.3-46.6-8.3-46.6s-12 16.6-20.3 16c-8.3-.4-10.6-11.6-10.6-11.6s-9.7 0-12-11.2c-11.2-2.5-10.6-12-10.6-12s-13.1-3.3-12.6-14.1c-10.2-2.5-12.2-12.2-12.2-13.6-3.3 0-10-5.3-8.1-10z"/><path class="st1" d="m438.7 631.1 5.8 7M452.5 620.5l5.8 6.2M466 611.5l6.4 6.4M478.1 600.2l5.9 5.1M489.3 590.7l5.9 4.8M501 579.4l6.4 5M510.8 569.7l5.8 4.1M278.5 323.2l-4.4 3.2M290.1 337.3l-3.8 2.7M302 351.8l-3.1 2.3M313 363.1l-3.5 3.2M324.9 375.2l-3.3 2.1M354.1 273.1l2.9 4.5M371.5 269.8l1.8 3.9M389.1 266.4l1.7 3.9M406.5 262.1l1.3 3.9M426 256.1l1.1 4.8M442.8 252.8l.7 4.2M459.4 249.4l.4 3.5M544.9 423.6c-.7 2.6-3.9 7-7.3 8-3.3 1-35.6 8.3-90.4-8.7"/><path class="st1" d="M534 338.6c0 1.2 3.6 8.9 7.5 17.6 4.1 9-15.1 44.6-15.1 44.6s-23.1 15.1-27.4 15.1c-4.4 0-18.4-4.8-33-16.6-14.5-11.6-8.7-43.4-10.6-49.9-2.5-9.1-20.9-7.7-22.4 0s12.6 27.6 6.2 49.9c-6.2 22.4-25.7 35.9-25.7 35.9l-28.6-1.5c-3.9-7.3-7.7-8.3-14.1-15.5-6.2-7.3-18-18.9-18.4-45.2"/><path class="st5" d="M526.6 400.7c-3.6-4.8-30.3 6.8-27.4 15.1 2.9 6.8 16.6 10.6 24.2 5.8 7.7-4.9 6.8-16.1 3.2-20.9z"/><path class="st1" d="M510.3 415.2c6.2-9.7 16.3-3.9 13.1 6.2"/><path class="st5" d="M413.8 435.1c-2.5-6.8-25.3-7.7-28.6-1.5s4.8 15.5 14.1 16c9.1.5 16.9-7.7 14.5-14.5z"/><path class="st1" d="M391.4 439c7.7-6.2 17 1.5 7.7 10.6"/><path class="st10" d="M345.4 282.8c-.7.4-2.9-.1-5.5-1 2 5.4 15.1 16.1 29.2 17.1s95.1-20.3 107.6-29c12.6-8.7 13.1-20.3 13.1-20.3-4.4 3.3-8.7 8.3-8.7 8.3s-6.2 5.8-13.6 8.3c-7.3 2.5-82.5 24.2-97 23.8-14.4-.8-22.2-5.7-25.1-7.2zM277.2 303.3c2.5-2.3 5.1-4.8 7.5-7 9.9 10.3 68.1 76.8 68.1 76.8s-2.5 3.3-6 7.1c-34.4-36.3-67.8-75-69.6-76.9zM519.5 241.3c4.4-1 8.7-1.9 12.6-2.6 1.9 18 7.3 61.1 11 99-4.9-.1-9-.3-9 1-.1-.1-6.4-20.5-14.6-97.4z"/><path class="st1" d="M446.3 440.9c80.3 21.3 108.6 8.3 108.6 8.3M556.3 323l-8.1.5M555.9 306l-8.4.3M553.9 290.1l-6.4-.5M553.4 274.5l-8.1.6M551.5 255.7l-9.4 1.6M549.5 242.6l-7.8.9"/><path class="st0" d="m410.7 626 92.1-82.9 4.3 9.5-89.4 80.4z"/><path class="st5" d="M582 534c24.7 3.3 36.9-10.2 38.3-13.6 0 0 4.8-15.5-2.9-29-4.8-9.1-11.6-15.1-11.6-15.1l-30.5 35.4-3.9 24.7L582 534z"/><path class="st10" d="m573.8 520.9-2.5 15.5 10.6-2.5c9 1.2 16.3.3 21.9-1.7-7.2-12-30-11.3-30-11.3z"/><path class="st7" d="M606.7 453c-1.9-13.1-18.9-22.4-30.1-22.8-11.2-.4-26.1 10.6-20.9 37.3 4.8 19.9 12.6 23.8 14.1 43.7.4 3.9 0 3.9 6.2 5.8s17-1 23.8-10.6c6.9-9.7 8.9-40.2 6.9-53.4zm-22.2 28.6c-5.8-5.8-12.6-22.8-10.2-27.6s10.2-4.8 12-.4c1.1 1.8.1 19.3-1.8 28z"/><path class="st1" d="M606.7 453c-1.9-13.1-18.9-22.4-30.1-22.8-11.2-.4-26.1 10.6-20.9 37.3 4.8 19.9 12.6 23.8 14.1 43.7.4 3.9 0 3.9 6.2 5.8s17-1 23.8-10.6c6.9-9.7 8.9-40.2 6.9-53.4zm-22.2 28.6c-5.8-5.8-12.6-22.8-10.2-27.6s10.2-4.8 12-.4c1.1 1.8.1 19.3-1.8 28z"/><path class="st5" d="M375 475.3s-3.9-18.4-1-19.9 52.8 4.8 95.1 8.7 72.7 4.8 84.3 11.6c16 9.3 16.6 35.4 16.6 35.4l-49.9 1.5L395 487.3l-20-12z"/><path class="st5" d="M577.7 533.5c3.9-3.9 12-25.3-36.9-39.8-21.3-3.9-150.8-15.5-165.4-21.3-3.3-1.5-5.4-.4-9.7 0-6.8 0-11.2 9.7-7.7 15.1 3.3 5.4 4.8 6.2 9.7 8.7 4.8 2.5 71.3 11.2 101.3 13.1 30.1 1.9 74.6 8.3 77.1 8.3s17.1 14.5 31.6 15.9z"/><path class="st10" d="M559.5 526.3c5.4 3.3 11.8 6.5 18.1 7.1 2.3-2.3 6.4-11.2-2-21.1-6.6 2.1-14.3 9.8-16.1 14z"/><path class="st5" d="M582 534c-24.7-3.3-33.4-16.6-35.9-16.6 0 0-6.2 18.9-.4 26.7 5.8 7.7 21.3 14.1 35.4 15.1s23.8-3.9 31.1-8.7c7.3-4.8 12.2-20.9 8.3-30.1-1.6 3.4-13.8 16.9-38.5 13.6z"/><path class="st4" d="M545.2 545.6s-7.5 14.5-18 15.5c-7.4.1-18.6-5.7-21.2-7.1-2.6-1.5-12.8-20.8-12.8-20.8"/><path class="st1" d="M550.4 605c1.9 1.5 7.3.7 7.3.7M552.4 609.8c1.5 1.2 6.7.6 6.7.6"/><path class="st5" d="M564.6 797.3c-4.8 3.3-6.2 15.7-1.2 24 5.1 8.4 24.7 13.5 37-5.5 4.1-8.4 1.2-21.1 1.2-21.1l-16-10.9c.1 0-16.3 10.2-21 13.5z"/><path class="st1" d="M572.6 797.6s-5.5 12-2.2 16.7c3.3 4.8 12.8 5.5 16.4.7 3.6-4.8 4.1-19.3 4.1-19.3"/><path class="st5" d="M623.7 771.5c-1.9 5.4 5.4 15.1 14.4 18.9s26.9-2.6 26.1-22.5c-1.6-9.1-11.9-20-11.9-20l-19.3.4s-7.4 17.8-9.3 23.2z"/><path class="st1" d="M630.4 767.1s2.6 12.9 8 14.8c5.4 1.9 13.5-3 13.6-9 .1-6-8-18-8-18"/><path class="st6" d="M604.5 784.6s-10.2 11.6-41.5 4.1c0 0-2.9 10.2-1.9 12 1.2 1.9 8.7 1.9 9.9.7 1.2-1.2 3.6-13.1 3.6-13.1s-2.9 10.9-.4 13.5c1.5 1.5 7.5 1.2 8.7 0 2.6-2.6.7-13.8.7-13.8s1.5 13.1 2.2 14.2c.7 1.2 6.7.1 8-2.2 2.2-4.1-.7-12.3-.7-12.3s3.3 10.9 4.4 12c1.2 1.2 7.3.4 8.4-3.6 1.2-4.3-1.4-11.5-1.4-11.5zM648.8 737.8s-1.5 15.4-31.4 27.4c0 0 3.6 10 5.5 10.7 1.9.9 8.1-3.6 8.4-5.1s-4.6-12.8-4.6-12.8 5.7 10.3 7.5 11.2c1.9.9 7.4-3.5 7.1-5.1-.3-1.6-7.4-11.6-7.4-11.6s8.9 9.7 10 10.3c1.2.4 6.1-3.9 5.2-6.4s-7.8-9.6-7.8-9.6 9 7 10.6 7.3c1.5.3 6.1-3.9 4.6-7.8-1.4-4-7.7-8.5-7.7-8.5z"/><path class="st0" d="M569.7 769.6s-6.5 11.3-6.5 18.9c31.2 7.7 41.4-3.9 41.4-3.9s-2.2-11.3-6.2-14.2c-4-3-28.7-.8-28.7-.8zM611.6 746.1s1.3 12.9 5.7 19.2c29.9-12 31.4-27.4 31.4-27.4s-8.4-7.8-13.4-7.8c-4.8-.3-23.7 16-23.7 16z"/><path class="st5" d="M574 751.9s-9.1 11.6-6.2 20.8c4.1 11.6 29.8 14.5 31.9-2.2 1.5-10.6-4.4-16.7-4.4-16.7l-21.3-1.9zM603.1 729.7s.3 15.4 8 21.1c10 7.1 33.5-6.8 25.6-21.6-4.9-9.4-13.4-11-13.4-11l-20.2 11.5z"/><path class="st13" d="M566.4 789.6s-2.2 7 0 7.4c2.2.4 4.4-6.2 4.4-6.2M577.4 791.5s-1.9 6.5 1.3 6.5c3.3 0 1.9-6.2 1.9-6.2M587.8 791.8s.4 6.2 2.3 5.8c1.9-.4 1.2-6.2 1.2-6.2M597.7 789.6s1.5 7 4.1 5.1c2.6-1.9.3-8 .3-8M620.9 764.5s1.5 7.3 4.8 6.2c3.3-1-1.5-8.4-1.5-8.4M630.4 759.9s3.6 5.5 5.1 4.4c1.5-1.2-1.5-7-1.5-7M638.4 754.1s4.8 5.1 6.2 3.3c1.5-1.9-2.9-6.5-2.9-6.5M645.3 745.2s5.5 4.8 7 3.3-3.6-7.3-3.6-7.3"/><path class="st0" d="M570 737.2s-1.2 13.5 1.5 17.1c2.6 3.6 21.5 5.8 26.1-2.2 2.6-6.2 1.5-28.7 1.5-28.7l-17.1-28-12 41.8z"/><path class="st0" d="M580.6 690.8s17.4 39.6 22.5 40.4 22.2-9.1 20.8-15.2c-1.5-6.2-28.3-48.5-28.3-48.5l-15 23.3z"/><path d="m320.7 727.9-38.8 2.9s-14.5 28.6-12.6 43.1c5.8 26.7 42.7 22.4 48.5 6.8 5.8-15.5 2.9-52.8 2.9-52.8zm-22.8 43.2c-1.5 3.3-7.3 3.3-8.3 1-1-2.5 4.8-26.1 4.8-26.1l6.2-1c.2-.1-1.2 22.7-2.7 26.1z" style="fill:#f5150d"/><path class="st1" d="m320.7 727.9-38.8 2.9s-14.5 28.6-12.6 43.1c5.8 26.7 42.7 22.4 48.5 6.8 5.8-15.5 2.9-52.8 2.9-52.8zm-22.8 43.2c-1.5 3.3-7.3 3.3-8.3 1-1-2.5 4.8-26.1 4.8-26.1l6.2-1c.2-.1-1.2 22.7-2.7 26.1z"/><path class="st1" d="M286.7 742.5s-7.3 21.3-5.4 30.1c4.8 13.6 18.4 10.6 24.2 1.9 5.8-8.7 4.8-31.5 4.8-31.5"/><path class="st15" d="M213.6 745.4s17 25.3 19.9 24.7c2.9-.4 52.4-33 52.4-33l23.2-29.6s-8.7-18.9-10.2-18.9-64 16-64 16l-29 15.1 7.7 25.7z"/><path class="st1" d="M223.7 741.6s9.1 19.5 11.2 19.9c1.9.4 46.6-26.1 46.6-26.1"/><path class="st0" d="M202 728.4s6.8 18.9 10.2 18.9 64-24.7 64-24.7l41.7-12.6-2.5-18.9-48.5-1.9-55.3 24.2-9.6 15z"/><path class="st1" d="M207.2 725s5.4 15.1 7.3 15.5 64-23.8 64-23.8"/><path class="st15" d="m343.5 742-36.9-46.6 8.3-20.3 44.6-35.4 40.8 36.4-1 16.4z"/><path class="st1" d="M317.8 708c18-23.8 52.1-57.9 52.1-57.9M325.1 716.3s48.5-58.7 52.8-59.1M329.9 724.6s48.5-61.1 53.9-63M336.7 732.3s48.5-62.1 53.9-64.5"/><path class="st4" d="M462.3 713.4s-2.5-65 2.9-75.2c5.4-10.2 20.9-6.8 23.8-2.5 6.2-7.3 16-2.9 18.9 2.9 3.9-2.9 13.6-2.5 17 1.9 3.3-2.5 16 0 18.9 4.4 2.9-1.9 11.6-1.5 14.5 4.8 6.8-3.9 14.1-3.3 18 6.2 5.4-3.3 20.3 6.8 19.5 11.2-1 4.4-7.7 34.4-13.1 48.5-5.4 14.1-36.3 81.4-43.1 87.3-6.8 5.8-115.9 26.7-115.9 26.7s-3.3 1-8.3-.4c-23.2-12.6-71.7-87.3-71.7-87.3s36.9-47.5 56.8-65.9c25.9 8.2 61.8 37.4 61.8 37.4z"/><path class="st0" d="M462 663.5c-.3 7.4-.3 15.4-.3 22.8 57.8 13.1 120.8 29.6 120.8 29.6 2.2-5.7 4.5-13.8 6.7-21.9-10.5-3.8-106-23.3-127.2-30.5zM409.4 716.3s0-25.7-3.3-31.5-7.7-11.6-8.7-22.8-.4-28.2-.4-28.2l6.4-6.8s.7-2.2 4.4-.4c3.3-1.5 6.8-1 11.6 4.4 8.3 9.7 11.2 35.4 12 48.1 1.9 8.7 4.8 25.3 4.8 25.3l-2.9 19.5-15.5 13.6-8.4-21.2z"/><path class="st5" d="m433.2 723.6 2.9-19.5s-2.9-16.6-4.8-25.3c0 0-12 3.9-18.4 7.7 5.8 13.1 4.8 35.9 4.8 35.9l15.5 1.2z"/><path class="st1" d="M407.5 626.6c-2.5 7.1 1.5 12.9 7.3 7.8M403.2 627c-3.3 4.1-1.5 31.2 5.8 41.8"/><path class="st6" d="M402.2 646.1c-1-8.9-.7-16.8 1-18.9 0 0-5.5-3.3-9.1 3.3-1.5 3.6-.7 14.5-.7 14.5s9.8 9.5 8.8 1.1z"/><path class="st6" d="M404.3 657.8c-1.5-5.2-2.2-11-2.6-16.1-10.3-1.2-27.3 10.9-18.6 21.5-1.2 3.6 1.5 5.1 1.5 5.1s14.2-9.2 19.7-10.5z"/><path class="st1" d="M383.1 663c8.4-13.8 17.9-14.2 17.9-14.2"/><circle class="st5" cx="413.9" cy="657.1" r="5.7"/><path class="st5" d="M383.6 797.6c-2.2 25.8 30.8 40.8 31.6 31.6.4-6.2-6.8-16-6.2-27.6.4-11.6 33-61.6 33-61.6l20.3-26.7s-.4-13.2-.6-28.6C436 696 422 722.6 422 722.6l-36.3 65c-.1 0-1.8 5.1-2.1 10z"/><path class="st0" d="M402.2 797.3c0 16 6.8 31.9 7.4 34.6 3.2.6 5.5-.3 5.8-2.6.4-6.2-6.8-16-6.2-27.6.4-11.6 33-61.6 33-61.6l20.3-26.7s-.1-3.3-.3-8.6c-.4-5.2-60 76.4-60 92.5z"/><path class="st0" d="M410.4 759c-15-10-33-12.2-33.4-16.6-1-7.7 16.6-26.7 31.1-27.1 14.5-.4 44.1 26.7 44.6 44.1.4 17.4-14.1 27.1-18.4 25.3-2.1-.9-11.7-17.4-23.9-25.7z"/><path class="st5" d="M387.6 743c-1-7.7 5.8-19.5 20.3-19.9 14.5-.4 37.3 20.3 37.9 37.7.4 17.4-9.7 20.9-14.1 18.9-4.3-1.8-43.2-29-44.1-36.7z"/><path class="st0" d="M409 801.7s25.3-2.9 26.7-19.5-7.7-28.6-18.4-35.9c-10.6-7.3-25.3-7.7-36.9-5.8-9.1 1.5-22.8 19.9-20.9 25.3 4.8 1.5 45.2-7.3 48.5-4.4s2.9 7.3 4.4 14.5c1.4 7.3-3 14.2-3.4 25.8z"/><path class="st5" d="M409 801.7s20.3-10.2 20.3-19.9c.9-10.5-3.3-23.2-1.5-25.6-3-3.9-6.7-7.3-10.6-9.9-2.5-1.6-5.1-2.9-7.7-3.9-1.9 6.8-22.4 2.9-29.6 4.9-7.3 1.9-13.6 16.6-13.6 18.3 12.9-1.5 39.1-6.5 41.7-4.2 3.3 2.9 2.9 7.3 4.4 14.5 1.4 7.3-3 14.2-3.4 25.8z"/><path class="st1" d="M417.1 746.4c-.4 3.9-3.9 11.2-9.1 15.1"/><path class="st0" d="M408 761.3c-3.3-2.9-43.7 5.8-48.5 4.4 0 0-10.6 0-14.1 2.5-3.3 2.5-35.4 28.6-36.3 33.4-1 4.8 2.5 5.8 2.5 5.8s4.8 7.3 13.6 5.8c8.7-1.5 39.3-17.4 46.6-20.3 7.3-2.9 17-4.8 21.8-9.1 4.6-4.5 14.4-22.5 14.4-22.5z"/><path class="st1" d="M346.8 782.2c-3.9 1-35.9 17-37.9 19.5M311.4 807.5c2.9-7.7 12.6-4.8 9.7-.4"/><path class="st5" d="M388.5 762.3c9.4-1.3 17.9-2.3 19.5-1 0 0-9.7 18-14.5 22.4s-14.5 6.2-21.8 9.1c0 0-5.8-15.1-4.8-17 .9-1.8 18.3-7.1 21.6-13.5z"/><circle class="st5" cx="343.7" cy="794.6" r="6.1"/><path class="st6" d="M327.2 791.4c-8.7 4.4-17.3 9-18.1 10.3 0 0-5.4 1-6.8-5.4 5.8-3.9 15.5-10.2 15.5-10.2l4.4 3.3c0 .1 13.8-2.4 5 2z"/><path class="st6" d="M316.8 796.9c5.1-2.8 11.9-6.2 17.9-9.1 2-10.7 9.3-18.6 12.2-20-2.5-4.4-7.3-1.9-7.3-1.9s-6.2-3.3-13.6 1.5c-7.3 4.7-14.6 23.5-9.2 29.5z"/><path class="st1" d="M326.5 792c-2.5-4.4 0-17 13.1-26.1M306.2 795.3c1 1.9 5.8 2.9 5.8 2.9M310.6 792c.1 1 1.6 3.9 5.4 3.9M394 638.1c2.2-1.5 6.5-.7 6.5-.7M394.5 632.6c2.2-1.9 7.3 0 7.3 0"/><path class="st6" d="M458.3 792.4c-2.5 8.3-5.4 48.1-13.6 48.9-8.3 1-31.5-7.7-25.3-30.5 14.1 16 26.7 18.9 32.5 18.9-15.5-1.9-33-18.4-22.4-30.1 12.6 18.9 23.8 16.6 26.1 17-17.4-.4-25.3-21.8-14.1-31.1 4.8 16.6 12.6 21.8 15.1 21.8-9.1-7.3-16.6-24.2-3.3-36.9-1.2 13.3 5 22 5 22z"/><path class="st5" d="M497.7 798.8s-7.3-10.2-3.3-18c3.9-7.7 20.3-12.6 33-3.3 12.6 9.1 18.4 27.6 8.3 39.3-10.2 11.6-23.2 12-24.7 4.4-1.7-7.9-13.3-22.4-13.3-22.4z"/><path class="st6" d="M517 826.4s-9.1 12.6-28.6 18c-7.7 3.3-27.1 2.9-29.6 0s-.4-51.8-.4-51.8-5.8-13.6 0-18.4c5.8-4.8 13.5-4.4 20.9-.4 7.3 3.9 15.1 22.8 15.1 22.8l22.6 29.8z"/><path class="st15" d="M458.9 844.4c-1.9 1.5-11.6.4-14.1-2.9 9.1-21.3 11.2-40.8 13.6-48.9 3.9 0 6.8 1.5 7.7 10.6 1 9.1-5.3 39.7-7.2 41.2z"/><path class="st1" d="M488.4 844.4c-16.6-4.8-13.6-15.1-10.6-19.9 2.9-4.8 10.6-2.9 11.6 2.5s-5.4 5.8-5.4 5.8"/><circle class="st5" cx="508.9" cy="806.8" r="17"/><circle class="st5" cx="299.8" cy="722.4" r="22.8"/><circle class="st0" cx="299.8" cy="723.1" r="11.6"/><path class="st4" d="M294.4 698.9c-30.5 1.9-87.8 30.5-94.5 31.5-6.8 1-9.7-9.1-7.7-15.5 1.5-10.6 6.8-14.1 6.8-14.1s-3.9-8.7 5.8-17.4c2.5-8.7 9.7-8.7 9.7-8.7s1.5-6.8 7.7-5.8c1-7.3 8.3-8.7 8.3-8.7l19.9-7.7 26.7-27.6 38.8 11.2 9.1 25.7c.1-.4-22.3 23.5-30.6 37.1z"/><path class="st1" d="M237.4 672.6s-10.9 0-15.1-3.8c1-7.3 8.3-8.7 8.3-8.7M228.5 682.3c-6.1.7-14.1-7.7-14.1-7.7s1.5-6.8 7.7-5.8"/><path class="st1" d="M220.2 687.9s-5.8 3.3-15.4-4.5c2.5-8.7 9.7-8.7 9.7-8.7"/><path class="st1" d="m215 698.9-16 1.9s-3.9-8.7 5.8-17.4"/><path class="st15" d="m253.4 656.2 30.9 24.3 18.4-11.2 9.7-25.3-32.5-20.3z"/><path class="st6" d="M222.3 721.5c-11.5 4.8-20 8.6-22.4 8.9-6.8 1-9.7-9.1-7.7-15.5 0 0 19.3-6.2 22.6-6 3.3.5 4.7 5.8 7.5 12.6zM231.6 667.1c1 1.5-1.5 4.8-1.5 4.8-2.9-.6-6.1-1.5-7.8-3 .3-1.9.9-3.3 1.7-4.4 1.6-.3 6.6 1.3 7.6 2.6zM207.3 678.3c-1 1.2-1.9 2.9-2.6 5.1 3.8 3 6.8 4.4 9.3 4.9 0 0 2.5-3.6 1.5-5.1-1.1-1.6-5.4-5.2-8.2-4.9zM208.6 699.6l-9.6 1.2s-1.5-3.3-.3-7.8c0 0 7-.3 8.9 0 1.8.2 1 6.6 1 6.6zM216.9 670.3c-1.9 1.7-2.5 4.4-2.5 4.4s2.5 2.8 5.8 4.9c1.3 0 2.9-2.2 2.5-4.1-.3-1.9-3.6-4.8-5.8-5.2z"/><path class="st0" d="M280.5 691.1s-44.1 8.7-65.5 7.7c5.8-10.2 63-12 63-12s-45.2 1.9-49.5-4.4c11.2-4.8 55.3-4.4 55.3-4.4s-15.5-22.8-15.5-28.2c6.2 2.5 25.3 16 25.3 16s-11.2-16-10.6-20.9c.4-4.8 9.1-1.5 9.1-1.5l12.6 13.6-6.2 18.4-18 15.7zM266.9 627s-25.7 23.2-36.3 33c1.5 5.4 7.7 6.2 14.1 4.8 6.2-1.5 36.9-36.3 36.9-36.3l-4.4-3.9-10.3 2.4z"/><path class="st0" d="m291.1 629.9 24.2-45.2s-10.2-3.3-22.8-1.9-14.1 16.6-14.1 16.6-7.3 3.3-8.3 11.2c-5.4 4.4-4.4 9.1-4.4 9.1s-4.8 4.4-4.8 10.6c18.1-1.8 30.2-.4 30.2-.4z"/><path class="st1" d="M278.5 599.5c4.6-2.2 27.7-2.9 28.5.7M270.2 610.6c11.5-3.2 32.1-1.3 32.1-1.3M265.8 619.8c3.5-1.5 26.4-3.2 30.1.7"/><path class="st2" d="M325.1 661.4s-22.4 23.8-30.5 37.3c-5.1.3-10.7 1.3-16.8 2.9-.1-4.8-1.6-9.7.4-15 1.9-5.4 35.4-38.8 35.4-38.8l13.6 1.5-2.1 12.1z"/><path class="st6" d="M305.2 646.1s-5.8 9.1-15.1 6.8c-9.1-2.5-19.9-13.6-8.7-24.2 5.4.4 9.7 1.5 9.7 1.5l24.2-45.2s15.5 12.6 21.3 26.1c5.8 13.6 23.2 24.7 22.8 28.6-.4 3.9-2.5 6.8-7.3 5.4.4 7.3-6.8 12-12.2 11.2.4 8.3-5.8 15.1-14.1 14.5.4 10.2-3.9 17-13.6 16.6.4 8.3-.4 16-18 11.6-7.3-2.9-9.1-18.4 6.8-19.9 0-7.3-.4-9.1 3.9-12.6 4.4-3.3 11.6-3.3 11.6-3.3l-.4-7.7-1.9-9.7-9 .3z"/><path class="st1" d="M291.1 629.9c-2.5 4.4-1.5 10.2 4.8 9.7M319.7 599c-3.3 0-9.1 6.2-7.7 10.2 4.4 8.3 13.6 1.5 9.1-3.3"/><path class="st5" d="M347.3 625.7c-4.1-4.4-8.3-9.3-10.6-14.7l-8.3 7.3s-6.2 6.8-14.1 8.3c-7.7 1.5-10.2 15.5-9.1 19.5s6.2 8.7 11.2 9.1c4.8.4 20.9-3.9 24.2-9.7 3.3-5.8 6.2-16.4 6.7-19.8z"/><circle class="st5" cx="323.2" cy="627.6" r="10.2"/><path class="st16" d="M591.9 695.8s.6 2.3 2 3.5c1.6 1.2 1.2 2.9 2.2 3.6 1 .7.7 3 2.3 3.8 1.6.9 1 2.9 2.3 3.8 1.3.9.6 3 2.2 3.6 1.6.6 1 3.9 2.8 4.6 1.7.6 2.3 3.9 2.3 3.9M596.6 692.1s.6 2.3 2 3.5c1.6 1.2 1.2 2.9 2.2 3.6 1 .7.7 3 2.3 3.8 1.6.9 1 2.9 2.3 3.8 1.3.9.6 3 2.2 3.6 1.6.6 1 3.9 2.8 4.6 1.7.6 2.3 3.9 2.3 3.9M584.1 724.3s-.7 2-.1 3.6-.6 2.8-.1 3.8c.3 1-1 2.6-.3 3.9.7 1.5-.7 2.6-.3 3.9.6 1.3-1 2.6-.1 3.8.9 1.3-1.2 3.5-.3 4.8 1 1.3-.3 4.1-.3 4.1M589.4 723.9s-.7 2-.1 3.6-.6 2.8-.1 3.8c.3 1-1 2.6-.3 3.9.7 1.5-.7 2.6-.3 3.9.6 1.3-1 2.6-.1 3.8.9 1.3-1.2 3.5-.3 4.8 1 1.3-.3 4.1-.3 4.1M569 357.7s-1.2 3.2 0 3.9c1.2.7-1.2 3.2 0 4.1 1.2 1-.7 3.9 0 4.6s-1 3.9 0 4.8c1 1-1 2.6 0 3.9 1 1.2-.7 3.6 0 4.6s0 3.3 0 3.3M573.6 357.7s-1.2 3.2 0 3.9c1.2.7-1.2 3.2 0 4.1 1.2 1-.7 3.9 0 4.6s-1 3.9 0 4.8c1 1-1 2.6 0 3.9 1 1.2-.7 3.6 0 4.6s0 3.3 0 3.3M650.8 365.7c1.3.1 3.2 1 4.2-.1.9-1 2.9.1 3.6-.7.7-.9 2 .1 2.8-1 .7-1 3.8-1 4.2-1.9.4-1 3.3-1.2 4.2-2.5.9-1.3 3-1.2 3.5-2.5.6-1.5 3.3-2.8 3.3-2.8M649.5 361.6c1.3.1 3.2 1 4.2-.1.9-1 2.9.1 3.6-.7.7-.9 2 .1 2.8-1 .7-1 3.8-1 4.2-1.9.4-1 3.3-1.2 4.2-2.5.9-1.3 3-1.2 3.5-2.5.6-1.5 3.3-2.8 3.3-2.8M714.1 375.4c-1.5-.7-3-2.5-4.6-1.7-1.6.7-3-1.5-4.4-.9-1.3.6-2.2-1-3.6-.3-1.3.7-4.6-.7-5.7.1-1 .9-4.2-.3-5.8.7-1.6 1-3.9-.1-5.2 1s-3.9.9-3.9.9M714.7 370.6c-1.5-.7-3-2.5-4.6-1.7-1.6.7-3-1.5-4.4-.9-1.3.6-2.2-1-3.6-.3-1.3.7-4.6-.7-5.7.1-1 .9-4.2-.3-5.8.7-1.6 1-3.9-.1-5.2 1-1.3 1.2-5.1 1.5-5.1 1.5M580.1 348.9c1.3 1 2.5 3 4.2 2.6 1.7-.4 2.6 2 4.1 1.7 1.5-.4 2 1.5 3.5 1 1.5-.4 4.4 1.6 5.5 1 1.2-.6 4.1 1.2 5.8.4 1.7-.7 3.8 1 5.2 0 1.5-1 4.1-.1 4.1-.1M578.5 353.5c1.3 1 2.5 3 4.2 2.6 1.7-.4 2.6 2 4.1 1.7 1.5-.4 2 1.5 3.5 1 1.5-.4 4.4 1.6 5.5 1 1.2-.6 4.1 1.2 5.8.4 1.7-.7 3.8 1 5.2 0s5.4-.4 5.4-.4"/><circle class="st5" cx="570.6" cy="401.4" r="14.8"/><circle class="st5" cx="618.3" cy="355.1" r="14.8"/><circle class="st5" cx="686.3" cy="340.6" r="14.8"/><path class="st1" d="M687.6 379.2c-8.3-2.5-16.3-4.6-23.2-6.7M223.2 119.1s2.9-4.4 6.2-3.3c3.3 1.2 7.7 9.9 7.7 9.9M206.7 129.4s4.8-5.8 7.7-5.1 12.8 10.6 12.8 10.6M195.1 143.4s1.9-7.3 7.3-7c5.5.4 13.1 8.7 13.1 8.7M180.2 164.5s3.6-9.1 8.4-9.1c4.8 0 13.5 6.5 13.5 6.5M172.9 184.5s-.4-7.3 3.3-9.4c3.6-2.2 16.7 2.6 16.7 2.6M172.6 205.6s-2.2-7.3 1.2-9.9 18.9-2.2 18.9-2.2M178.4 225.3s-4.4-7-1.9-10.2c2.6-3.3 15.7-5.1 15.7-5.1M190.3 243s-5.5-3.6-5.1-7.7c.4-4.1 13.5-10.6 13.5-10.6M204.3 258s-8-4.4-7-8.4c1.2-4.1 13.1-14.2 13.1-14.2M221 271.1s-9.1-4.4-7.7-9.9c1.5-5.5 9.1-13.5 9.1-13.5M241.3 279s-8.7-1.9-9.4-7c-.7-5.1 5.1-17.4 5.1-17.4M264.5 279s-8.4 3.3-10.6 0 0-19.6 0-19.6M286.7 272.7s-8.7 4.9-11.6 3.2c-2.9-1.9-3.3-16.7-3.3-16.7M266 235.1s2.6 16 5.5 17.1c2.9 1.2 10.2-4.8 10.2-4.8M253.4 232.9s-1.5 17.9 0 18.9c1.5 1.2 9.1 0 9.1 0M240.6 229.7s-4.1 14.5-3.6 16.4c.4 1.9 8.4 2.9 8.4 2.9M227.5 242.7s-6.2-1.9-7.3-5.1c-1.2-3.3 9.9-13.8 9.9-13.8M213 232.6s-4.8-3.3-4.8-6.5c0-3.3 14.5-10.9 14.5-10.9M202.1 218.1c-.4-1.2-3.3-3.3-2.2-7 1.2-3.6 18.1-8.4 18.1-8.4M197.7 202c-.4-1.5-1.9-5.5.4-8 2.2-2.6 18.1-3.3 18.1-3.3M198.5 183.5s2.6-7.7 7-7.7 13.5 4.1 13.5 4.1M206 166.4s5.1-9.1 8.7-8c3.6 1.2 8.7 7.7 8.7 7.7M218.8 150.4s5.1-7 7.3-6.2 7.7 5.5 7.7 5.5M231.1 138.8s3.6-5.1 6.2-4.1c2.6 1.2 4.8 5.5 4.8 5.5M226.8 175.8c0-7 5.8-5.1 5.8-5.1M222.4 193.7s-.7-7.7.4-8.7c2.9-2.6 11.3 2.6 11.3 2.6M224.6 208.2s-2.6-4.4-1.5-7c1.2-2.6 11.6-3.6 11.6-3.6M236.9 221.7s-6.5-2.9-6.2-6.5c.4-3.6 9.4-8.4 9.4-8.4M251.5 227.5s-6.2-.7-7-3.6 2.6-10.9 2.6-10.9M271.5 226.8s-7.3 2.2-9.4.7-1.2-10.9-1.2-10.9M232.3 160.9l16.7-5.4M234 169.3l19.6-6.3M238.1 177l19.6-7.7M265.3 199l1.8-21M270.8 196.9l1.4-18.5M277.3 196.9l.7-17.7M294 194.4l.4-17.1M301.7 193.7l-.4-17.2M308.2 192.5l.8-17.4M326.1 193.2l13.8-17.4M337.7 194l10.2-13.4M156.7 413.6l.7-14.9M162.8 412.9l.7-16M169 411.4l.3-13.7M175.5 410.7l1.1-12.8M181.3 410.4l4-13.9M188.2 408.5l4.8-11.3M193.7 410.4l7.2-10.3M201.7 399.4l8.4-8.3M195.1 393.6l10.9-7.3M187.9 387.5l15.9-7.3M185.7 378.3l16-2.9M187.4 370.1h13.3M194.8 362.4l7.6 1.1M183.8 415.8l-5.1 9.1M187.4 416.2l-2.9 14.8M192.2 415.8l1.2 15.2M197 413.6l6.1 14.5M203.8 412.2l13.5 15.6M212.3 404.9l16.2 7M215.9 399.8l14.9 2.2M216.2 394l19-1.1M217.3 389.2l13.1-5.3M215.9 384.9l7.5-6.6M207.2 437.3l4.6 9.9M213.3 433.2l7.2 13.5M217.3 428.9l10.5 13.2M222.7 426l12.1 11.6M226.8 422.3l13.5 7.7M230.1 418.4l13.8 5.1M233 412.9l14.5 2.2M236.7 408.5l7.9-.2M220.2 459.8l14.7-3.4M220.5 467.5l18.6-3.4M221.3 475.8l19.3-2.9M235.9 455.4l11.6-14.5M242.5 459.5l8.2-14.5M250.7 463.9l4.8-16.7M259.9 463.1l1.4-13.5M378.3 788.6l-5.8-14.9M387.5 786.4l-8-15.3M395.5 780.5l-9.7-13.8M401.3 771.8l-8.3-9.5M385 802l16.3 1.9M386 811.8l16.7-2.6M392.6 820.1l10.6-3.2M398.4 826.8l7.7-3M385.8 793.3l15.9 2.6M392.3 784.8l10.4 4.1M398.1 778.7l8.3 4.4M402.4 771.8l6.6 4M413.6 780.2l15.7-2.6M412.6 773.7l16-4.4M410.7 766.4l16.1-4.8M410 763.1l13.2-9.8M403.5 759.4l.7-13M398.1 760.2l-1.5-13.1M390.4 760.9l-2.2-13.1M382.7 762.3l-2.2-13M374.7 763.5l-1-9.4M412.2 786.7l13.9.8M411.2 791.1l7.5 4.1M394.8 738.4l-1.5-8.4M402.4 739.8v-15.2M409.3 740.1l6.2-14.5M416.2 743.5l8.5-12.4M421.6 747.8l13.2-8M426.4 754.4l15-5.4M431.2 760.9l13.3-3.2M435.5 766.4l9.8-.4M435.5 772.5h8.8M431.2 710.8l14.5 12.3M427.1 716.6l14.3 12.3M436.6 704.8l13.5 12.8M443.1 698.3l11.3 13.2M450.8 692.2l8 15.3M417.3 692.9l14.9-2.9M417.7 700.9l16.4-3.6M417.7 708.5l13.5-1M417.7 713.3l8 .7M684.5 526.4v-15.7M676.5 499.1l10.6-11.3M680.6 503.1l10.2-10.5M685.7 506.4l9.9-11.3M702.1 504.9l13.8 9M697.7 514.7l18.2 3.3M697.7 523.5l15.3-1.1M699.9 531.8l14.8-4.6M703.5 539.1l11.2-5.4M709.6 497l10.6 13.3M727.5 489.7l.7 13.8M717.6 492.6l4.8 13.4M736.6 491.4l-1.8 11.7M742.5 496.2l-2.7 7.6M766.7 521.6l-5.4 6.6M762.8 515.5l-5.5 10.5M754.8 511.5l-3.6 14.9M746.8 511l-2.2 14.7M740.6 511.5l-5.1 14.9M733.7 509.6l-4.5 10.6M728.2 508.9l-3.3 5M717.6 523.8l6.6-6.5M719.1 528.9l10.1-8.7M719.8 536.2l15.4-1.5M719.8 542.7l14.2-.3M720.5 549.2l12.1-.3M725.3 556.6l8-1.4M741 534l-4.8 4.8M746.8 540.5l-10.6 6.5M750.7 545.6l-10.1 8M755.5 550.7l-11.6 9.1M759.2 555.9l-10.6 8.3M763.1 559.1l-8.7 10.6M768.6 562.7l-9.4 11.6M750 528.6l-7.5 5.1M754.1 531.8l-6.3 7.7M758.4 536.6l-5.1 8.3M763.8 540.9l-6.8 9.8M768.9 543.1l-5.8 11.3M774.4 544.6l-2.2 11.3M780.2 543.8l.7 12.4M785.7 541.7l1.8 11.6M790.8 539.5l4.4 8M720.2 532.5l12.8-5.1M430.5 504.5l1.4-22.1M421.3 503.8l1.9-22.1M411.4 502l3-22.2M403.2 500.1l2.4-21.7M394.8 500.9l2.6-22.8M386 498.7l2.9-22.5M377.6 497.2l3.7-23.6M370.1 495.8l5.3-23.4M362.8 491.1l5.4-18.5M381.3 473.6l1.7-17.4M389.4 474.7l.3-17.1M397.4 476.6l1-17.8M405.6 478.4l.8-19.6M414.4 478.8l1.1-19M423.5 480.3l1.2-19.8M433.4 480.3l.3-18.6M440.9 482.7l2.6-20M452.2 482.7l1.5-18.6M461.7 483.9l2.2-19M471.6 484.6l2.1-18.6M482 486.4l1.2-20.1M491.4 486.8l1.2-19.3M501.8 488.5l1.7-20.7M512.2 489.7l1.5-20.5M522.4 491.1l2.6-20.7M532.5 491.9l2.9-20.5M542.1 492.2l2.5-17.2M555.5 477.4l-6.9 17.7-5.8 21.5M555.9 498.4l6.1-12M562.7 500.6l3.7-7M439.5 506.4l1.4-23.7M450.4 507.4l1.1-21.8M460.2 507.8l1.8-22.5M470.1 508.1l1.5-21M479.8 509.6l1.9-22.1M490.4 510.3l1.5-20.6M499.9 510.3l1.4-20.3M510.5 512.9l1.4-21.5M520.6 513.7l1-20.8M529.6 514.7l2.9-20.6M537.3 516.3l3.6-21.2M547.5 517.3l7.2-17.2M553.3 519.5l8.7-16.4M553.3 523.5l-5.8 21.4M560.5 527.9l-5.3 23.2M569 531.5l-5.1 23.2M577.7 533.5l-3.4 24.1M585.4 535.9l.3 22.5M592.6 535.9l3.7 20.3M600.2 533.7l4.8 19.1M606.7 531.8l6.3 16.7M611.8 529.6l7.4 8M588.6 516.3l22.2 12.3M597 511.5l20.7 10.9M602.4 504.2l18.5 7.3M603.8 498.7l16.4 3.6M607.1 491.9l10.2 1.4M586.4 508.9l8.4.7M587.1 502.3l14.2.5M588.6 495.1h13.5M586.4 485.3l19.3-1.1M586.1 476.9l20.6-2.2M587.6 469.2l19.8-3.2M587.8 458l17.9-5M587.6 452.2l10.8-10.6M581.7 449.3l3.7-16.4M575.5 450.1l-4.8-17.9M574 453l-15.9-7.7M573.6 458l-17.7.3M573.3 463.9l-17.4 3.7M575.8 471.1l-17 3.6M580.6 477.6l-18.6 3.7M583.9 485.6l-18.3 3.4M584.6 494.1l-16.8 2.4M584.9 502.3l-14.5 1.5M584.6 508.1l-10.6 1.5M556.9 522.8l11.6-15.4M583.9 515.8c2.6-2.6 3.3-29.2.6-34.3"/></svg>