<svg version="1.1" id="Calque_1" xmlns="http://www.w3.org/2000/svg" x="0" y="0" viewBox="0 0 900 900" style="enable-background:new 0 0 900 900" xml:space="preserve"><style>.st0,.st1,.st2,.st3,.st4,.st5,.st7,.st8{fill:#b56300;stroke:#000;stroke-width:5.7756;stroke-linecap:round;stroke-linejoin:round;stroke-miterlimit:10}.st1,.st2,.st3,.st4,.st5,.st7,.st8{fill:red}.st2,.st3,.st4,.st5,.st7,.st8{fill:#399b00}.st3,.st4,.st5,.st7,.st8{fill:none}.st4,.st5,.st7,.st8{fill:#ffce00}.st5,.st7,.st8{fill:#fff}.st7,.st8{fill:none;stroke-width:3.8504}.st8{fill:#020202;stroke-width:5.7756}</style><g id="XMLID_116_"><path id="XMLID_282_" class="st0" d="M719.7 704.5c-5.8-20.7-10.8-28-11.5-36.1S755 563.6 755 563.6l-44.9-70.4s-86.1.7-106.3 30.6c-20.2 29.9-79.9 59.9-87.6 73.4-15.1 26.4-62.1 107.8-83.1 121.3-21 13.5-86.3 20.5-111.4 32.7-16.7 8.2-33 20.7-41.3 30l59.2 5.3c1.6-3 4.9-5.6 11-6.4 16.1-2.4 59.6-8 66.2-7.4 6.6.7 2.8 6 8.6 15.1s30.8 2.4 31.5-5.8-6.3-17.6 8-39.6c14.2-22 65.2-35 85.4-82.4 6.4-15 45.4-16.7 70.8-48.4 17.8 36.9 41.6 79.1 45.4 99.4 3.9 20.3 12.8 57.8 12.5 63.8-.3 6.1-29.9 3-49.8 11.6-19.8 8.6-45.2 19.3-53.4 25-2.3 1.6-4 3.7-5.4 5.9l41.7 11.9c1.2-2.8 2.8-5.1 6.3-5.3 7.1-.4 71.5-1.2 76-1.1 4.5.1 7.4 10 14.4 13.5s24.4-3 24.4-15.3-11.8-19.6-14.4-35.7c-2.6-15.8 6.7-60.1.9-80.8z"/><path id="XMLID_115_" class="st1" d="m773.6 450-37.1-17.9-40.6 24.5s-.7 38.5-2.4 40.4c-1.3 1.4 39.1 33.6 61.3 51.1l59.1-57c-15.8-16.5-39-40.5-40.3-41.1z"/><g id="XMLID_242_"><path id="XMLID_149_" class="st2" d="m150.5 421.7-23.8 72.1s13.5 8.2 20.5-2.6c9 11.3 20.4 0 20.4 0s10.3 9.3 24.1-2.3 29.5-4.4 29.5-4.4V412l-70.7 9.7z"/><path id="XMLID_150_" class="st3" d="M160.2 425.8c-1.6 5.5-3.2 36-12.8 65.4"/><path id="XMLID_151_" class="st3" d="M174 425.8c3.9 25.7-6.4 65.4-6.4 65.4"/><path id="XMLID_152_" class="st3" d="m189.3 425.8.5 58.6"/></g><g id="XMLID_273_"><path id="XMLID_88_" class="st4" d="M135.4 709.3s-20.2 4.8-23.6-3.4c5.3-5.3 4.8-14-1.9-18.3s-17.8-3.4-22.1 3.4c-4.3 6.7 5.8 13.5 4.3 18.3-1.4 4.8-9.6-4.8-16.4-.5s-5.3 15.4 0 18.8c5.3 3.4 13-1.4 15.4 1.9 2.4 3.4-10.6 6.3-7.7 18.8 2.9 12.5 17.8 20.4 26 11.1 5.5-6.3 6.2-14.4-1.9-16.4 12.5-6.3 27.9-6.3 27.9-6.3v-27.4z"/><path id="XMLID_89_" class="st3" d="M107.5 743c-12.5-3.4-11.7 8-4.2 10.1"/><path id="XMLID_90_" class="st3" d="M111.8 705.9c-8.6 3.4-8.6-3.9-8.6-9.1"/><g id="XMLID_246_"><g id="XMLID_91_"><path id="XMLID_92_" class="st5" d="M133 700.6c-3.9 0-4.8 49.1-1.9 53.9.9 1.4 5.6.5 11.8-1.6l1.1-50.6c-5.7-1-9.9-1.7-11-1.7z"/><path id="XMLID_93_" class="st1" d="M183.6 709.3s-24.6-4.6-39.6-7l-1.1 50.6c14.8-5 38.2-16.2 38.2-16.2l2.5-27.4z"/></g><circle id="XMLID_81_" class="st2" cx="189.3" cy="728.6" r="22.6"/><circle id="XMLID_85_" class="st3" cx="189.3" cy="728.6" r="8.2"/></g></g><path id="XMLID_248_" class="st0" d="M476.7 489.8S291.9 550.9 288 548.5c-3.9-2.4-2.4-39.9-9.1-51.5-6.7-11.6-11.6-22.1-28.1-24.5s-48.6 1.3-58.5 0c-.2 0-.3-.1-.5-.1v16.5c-3.4 8.2-16.4 22.6-13.5 48.6 2.9 26 9.1 34.7 46.7 45.2s71.2.5 87.6-5.3c16.4-5.8 112.6-9.6 112.6-9.6l60.2-44.8 17.3-31.3-26-1.9z"/><g id="XMLID_264_"><path id="XMLID_61_" class="st5" d="M593.1 265.1c2.5 1.8 91.9 65 91.9 65s-15.2 5.1-22.2 5.1-69.9-47.3-69.9-47.3l.2-22.8z"/><path id="XMLID_65_" class="st5" d="M434.3 180.4s11.8-28.9 19.7-54.4c7.9-25.5 10.7-49.6 10.7-49.6s17.6 4.3 17.6 27-21.3 74.1-21.3 74.1l-26.7 2.9z"/><path id="XMLID_64_" class="st5" d="M440.7 189.5c34-37.1 60.5-102.5 60.5-102.5s17 1.9 14 21.7c-3.1 19.7-29.8 66.2-29.8 66.2s-78.7 51.7-44.7 14.6z"/><path id="XMLID_67_" class="st5" d="M539.8 91.3s23 13.8 10.5 35.1c-12.5 21.4-34.8 51.5-34.8 51.5s-58.3 14-37.1-3.2c21.4-17.1 61.4-83.4 61.4-83.4z"/><path id="XMLID_66_" class="st5" d="m509.9 174.9 76.8-67.2s17.1 13 8.1 26.5c-9 13.5-55 54.4-55 54.4l-29.9-13.7z"/><path id="XMLID_68_" class="st5" d="M539.8 180.4c20.9-6.7 81.7-43 81.7-43s17.8 16.5-1 30.2c-18.8 13.8-67.4 33.5-67.4 33.5s-34.2-14-13.3-20.7z"/><path id="XMLID_69_" class="st5" d="M536.9 200s94.7-19.6 114.9-30.8c3.9 5.7 8.2 28.1-11.9 34.8-12.1 4-79.1 17.5-79.1 17.5L536.9 200z"/><path id="XMLID_70_" class="st5" d="M558.9 209.2c26 1.9 126.2-1.9 126.2-1.9s7.5 16.4-19.7 22.1c-23.7 5-106.8 3.9-106.8 3.9s-25.7-26 .3-24.1z"/><path id="XMLID_71_" class="st5" d="M560.8 227.5c33 10.3 121.9 19.7 121.9 19.7s3.5 17.4-27.9 15.9c-31.4-1.5-94-15.4-94-15.4s-33-30.5 0-20.2z"/><path id="XMLID_72_" class="st5" d="m558.9 241.4 135.3 43.5s-1.4 14.9-16.4 14.9-124.2-40.4-124.2-40.4l5.3-18z"/></g><path id="XMLID_76_" class="st0" d="M498.8 497.1c-39 0-169.4-27-200.7-40.4s-35.1-25.7-38-42c-2.9-16.3-1.4-56 0-63.9 1.4-7.9 14.4-8.4 14.9 1.6.4-2.1-1-29.7 2.9-34.7 3.9-4.9 60.6 7.2 61.1 15.3 2.5 24-27.4 68.3-27.4 83.2s113 19.9 123.2 24.9C445 446 521 459 521.2 460.5c.2 1.4 11 36.6 11 36.6h-33.4z"/><path id="XMLID_75_" class="st3" d="M275 352.4c0 24.4-1.9 39.8-1.9 39.8"/><path id="XMLID_86_" class="st0" d="M553.2 534.1c1 0 74.6 9.1 74.6 9.1l97.7-16.1 11.6-25.8-88.6-58.2-29.8 13.5-65.5 77.5z"/><path id="XMLID_95_" class="st4" d="M658.1 441.1s-9 24.2 4.7 29.5c13.7 5.3 22.2-3.6 22.2-3.6s-4.3 16.1 13.5 16.1 21.2-17.6 21.2-17.6 5.3 24.8 23.1 17.6c17.8-7.2 9.6-23.6 9.6-23.6s8.7 19.2 23.6 10.6 5.3-27 5.3-27 27.8-1.3 27.9-29.4-15.4-24.1-15.4-24.1 5.3-17.5-4.8-27.4c-10.1-9.9-42.4-14.9-42.4-14.9l-83.8 56.3-4.7 37.5z"/><path id="XMLID_97_" class="st5" d="m581.7 331.5 68.7 13.4 4.3 55.3-42.8 21.5-31.8-18z"/><g id="XMLID_96_"><circle id="XMLID_99_" class="st5" cx="760.8" cy="231.6" r="23.2"/><circle id="XMLID_100_" class="st3" cx="760.8" cy="231.6" r="9.5"/><g id="XMLID_62_"><path id="XMLID_63_" class="st1" d="m704 348.6 33-1.3s3.6-9.6 8.2-22.4l-33.2-11c-4.4 19-8 34.7-8 34.7z"/><path id="XMLID_268_" class="st1" d="m769.1 259.7-39.5-12.5c-1.7 3.7-5.3 16.7-9.1 32.2L758 290c5.7-15.4 10.4-28.4 11.1-30.3z"/><path id="XMLID_269_" class="st5" d="M720.5 279.3c-2.8 11.1-5.8 23.4-8.4 34.6l33.2 11c3.9-10.6 8.6-23.5 12.8-34.9l-37.6-10.7z"/></g></g><g id="XMLID_277_"><path id="XMLID_278_" class="st0" d="M639.9 333c-11.5 11.5-15.2 70.7-15.2 70.7l26.3 18 14.6-14.4 15.2-79c-18.4-.9-36-.2-40.9 4.7z"/><path id="XMLID_279_" d="M732.2 333s-26.6-3.8-51.3-4.8l-15.2 79 63.1-62.4 3.4-11.8z" style="fill:#5b3200;stroke:#000;stroke-width:5.7756;stroke-linecap:round;stroke-linejoin:round;stroke-miterlimit:10"/></g><path id="XMLID_106_" class="st5" d="M760.8 524.7c16.7 7 13.9 41.1 18 130.9 4.1 89.8 13.3 130.2 13.5 135.4.2 5.1-37 9.6-37.3 1.3-.3-8.4-8.4-236.1-8.4-236.1s-2.5-38.6 14.2-31.5z"/><g id="XMLID_105_"><path id="XMLID_107_" class="st5" d="m777.5 526.4 13 14.2 7.1-6.4-13.3-14.4z"/><path id="XMLID_117_" class="st5" d="m770 533.6 12.6 13.8 7.9-6.8-13-14.2z"/><path id="XMLID_118_" class="st5" d="M755 548.2c8.4 6.6 14.2 11.2 14.2 11.2l13.5-11.9-12.7-13.9-15 14.6z"/><path id="XMLID_119_" class="st5" d="m784.3 519.8 13.3 14.4 7.7-6.8-13.5-14.8z"/><path id="XMLID_120_" class="st5" d="M828.8 506.7s-6.4-6.7-14.8-15.5l-7.3 7 14.2 15.5 7.9-7z"/><path id="XMLID_121_" class="st5" d="m799.2 505.3-7.4 7.3 13.5 14.8 7.9-6.9z"/><path id="XMLID_122_" class="st5" d="m820.9 513.6-14.2-15.4-7.5 7.1 14 15.2z"/></g><g id="XMLID_103_"><path id="XMLID_281_" class="st5" d="M617.4 584.4c-22.2 95.6-93.5 216.3-93.5 216.3s27.4 10.8 46 17.4c1.3-2.4 3.2-4.7 5.8-6.4 3.9-2.7 11.6-6.5 20.8-10.7 20.3-47.6 65.8-160.2 69.9-230.3-6.5-32.7-28.8-11.4-49 13.7z"/></g><g id="XMLID_125_"><path id="XMLID_126_" class="st5" d="m579 819.9-6 15.6c2.5.8 5.6 1.5 8.8 2.1l5.9-15.2-8.7-2.5z"/><path id="XMLID_127_" class="st5" d="M570.4 817.4c-3.3 5.5-3.9 11.8-3.9 14.6 0 1 2.6 2.2 6.6 3.5l6-15.6-8.7-2.5z"/><path id="XMLID_128_" class="st5" d="m587.7 822.4-5.9 15.2c3 .6 6.1 1.2 9 1.5l5.5-14.2-8.6-2.5z"/><path id="XMLID_129_" class="st5" d="M600.2 839.9c4.2.1 7.4-.3 8.3-1.5 1.6-2.4 2.3-6.1 3.6-9l-7-2-4.9 12.5z"/><path id="XMLID_286_" class="st5" d="m596.3 824.9-5.5 14.2c3.4.5 6.5.8 9.3.8l4.8-12.6-8.6-2.4z"/></g><g id="XMLID_108_"><path id="XMLID_109_" class="st5" d="M280.5 781.2c-4.1 4.7-6.4 8.6-5.5 10.7.7 1.8 6.1 3.7 13.5 5.3l2.2-15.1-10.2-.9z"/><path id="XMLID_280_" class="st5" d="m303 783.2-2.4 16.2c3.8.6 7.6 1.1 11.4 1.4l2.4-16.6-11.4-1z"/><path id="XMLID_283_" class="st5" d="m290.7 782.2-2.2 15.1c3.7.8 7.9 1.5 12.2 2.2l2.4-16.2-12.4-1.1z"/><path id="XMLID_284_" class="st5" d="m314.5 784.3-2.4 16.6c4 .4 7.9.8 11.5 1l2.4-16.6-11.5-1z"/><path id="XMLID_285_" class="st5" d="m339.8 786.5-14-1.3-2.4 16.6c8.7.5 15 .2 15-1.3 0-2.7-1.4-9 1.4-14z"/></g><path id="XMLID_138_" class="st3" d="M191.7 488.9s41.9 0 51.5 1.3 9.6 43.5 1.9 43.5h-46"/><path id="XMLID_79_" class="st5" d="M260.1 350.7c-.5 2.7-1 9.2-1.3 17.3h16c.2-4.7.3-9.9.3-15.7-.6-9.9-13.6-9.5-15-1.6z"/><circle id="XMLID_200_" class="st3" cx="718.5" cy="385.6" r="28.3"/><circle id="XMLID_201_" cx="770.4" cy="392.1" r="12.5"/><circle id="XMLID_202_" cx="706.1" cy="443.1" r="12.5"/><circle id="XMLID_203_" cx="746.8" cy="433.8" r="12.5"/><g id="XMLID_272_"><path id="XMLID_73_" class="st5" d="M420.4 400.2s-12 39.1 17.3 62.7c29.4 23.6 85.7 23.1 85.7 23.1l46.2 15.4 38.5-27.9-21.4-75.1-13.7-56.5-50.7 5.5-101.9 52.8z"/><path id="XMLID_204_" class="st3" d="M429.4 399.3s-8.3 41.3 31.7 62.3 123.8 7.4 123.8 7.4"/></g><path id="XMLID_238_" class="st5" d="M300 115.6c-1.1-4.8-2.2-10-3.7-15.3-1.3-4.7-2.8-9.6-4.4-14.2-1.6-4.7-3.6-9.2-5.6-13.3-2.2-4.5-4.7-8.5-7.5-11.6-1.8-2-3.8-3.8-5.8-4.9-.9-.5-1.7-1-2.6-1.4-4.9-2.4-10.6-3.9-16.7-4.4-4.8-.5-9.7-.4-14.7.2s-9.9 1.7-14.6 3.3c-6.4 2.1-12.2 5.1-17.2 9-3.6 2.8-6.6 6-9 9.5-.5.8-1 1.6-1.4 2.4-1.3 2.4-2.4 5.9-3.4 10.3-1.3 5.4-2.2 12-3.2 19.8-.7 6-1.3 12.6-1.8 19.6-.5 6-.9 12.2-1.2 18.8-.3 5.4-.5 11-.8 16.7-.2 4.5-.3 9.1-.5 13.9-.2 5.7-.3 11.5-.4 17.2l-.3 16.2c-.1 4.5-.1 9-.2 13.6 0 4.8-.1 9.7-.1 14.5v17.8c0 5.4 0 10.7.1 15.8 0 4.5.1 9 .1 13.4 0 4.9.1 9.7.1 14.3.1 5.9.1 11.4.2 16.7.1 5.6.2 10.9.3 15.7.1 4.9.2 9.3.3 13.3.1 4.3.2 7.9.2 10.7l4-.1 16.2-.2c0-4.8.1-9.5.1-14.3 0-4.9.1-9.7.1-14.5 0-4.5 0-9 .1-13.6 0-5.7.1-11.2.1-16.7s.1-10.9.1-16.2c0-4.9.1-9.7.1-14.5 0-4.6.1-9 .1-13.6 0-5.7.1-11.3.1-16.7 0-5.9.1-11.6.1-17.1 0-4.9.1-9.8.1-14.5 0-4.6.1-9.1.1-13.6.1-5.8.1-11.5.2-16.8.1-5.7.1-11.1.2-16.3.1-4.8.1-9.3.2-13.7.1-6.2.2-11.8.4-17 .1-4.3.2-8.3.4-11.9.2-4.8.3-9 .5-12.3.3-4.7.6-8.2.9-10 .1-.7.3-1.2.4-1.4.9-1.6 1.6-3.2 2.5-4.5 1.9-3.1 3.9-5.6 6.3-7.5 2.9-2.5 6.3-4.1 10.3-5.1 2.8-.7 5.9-1.2 9.4-1.3 2.2-.1 4.6-.2 7.1-.2 1.3 0 2.3.1 3.5.2 4.4.4 8 1.5 11.1 3.1 2.3 1.2 4.2 2.7 5.9 4.2 2 2 3.6 4.2 4.8 6.4 1.3 2.5 2.2 5.1 2.7 7.2.1.5.3 1.3.4 2.1.3 2.4.7 5.9.9 10.1.3 4.3.6 9.2.8 14.3.3 6.9.6 14.2.8 20.3h27c-.3-.2-1.6-9.5-4.2-21.9z"/><g id="XMLID_187_"><path id="XMLID_205_" class="st3" d="m207 232.6-22 20.6"/><path id="XMLID_186_" class="st3" d="m185.1 269 21.8-19.6"/><path id="XMLID_184_" class="st3" d="m185 235.3 22.2-19.8"/><path id="XMLID_185_" class="st3" d="m207.6 170.5-22 20.6"/><path id="XMLID_183_" class="st3" d="m185.3 207.2 22.1-19.8"/><path id="XMLID_181_" class="st3" d="m185.1 220.9 22.2-19.9"/><path id="XMLID_182_" class="st3" d="m206.6 323.9-20.5 18.4"/><path id="XMLID_180_" class="st3" d="m190.3 352.9 16.2-14.6"/><path id="XMLID_178_" class="st3" d="m185.8 329.1 20.9-18.8"/><path id="XMLID_179_" class="st3" d="m206.9 262.9-21.7 19.5"/><path id="XMLID_177_" class="st3" d="m185.3 296.7 21.5-19.3"/><path id="XMLID_176_" class="st3" d="m185.6 313.4 21.2-19.8"/><path id="XMLID_175_" class="st3" d="m186 173.9 21.8-19.6"/><path id="XMLID_174_" class="st3" d="m186.4 159.9 21.6-19.3"/><path id="XMLID_173_" class="st3" d="m253.7 50.3-4.1 19.1"/><path id="XMLID_171_" class="st3" d="m286.3 72.7-15 10.4"/><path id="XMLID_172_" class="st3" d="m296.3 100.3-21 2.3"/><path id="XMLID_170_" class="st3" d="m276.1 116.9 23.9-1.3"/><path id="XMLID_168_" class="st3" d="m291.8 86-17.4 6.5"/><path id="XMLID_169_" class="st3" d="m266.5 76.7 12.4-15.6"/><path id="XMLID_166_" class="st3" d="m270.5 54.7-9.8 17.7"/><path id="XMLID_167_" class="st3" d="m208.7 111.7-20.3 12.9"/><path id="XMLID_165_" class="st3" d="m187.2 143.4 21.2-19.8"/><path id="XMLID_163_" class="st3" d="m190.2 105 19.1-5.7"/><path id="XMLID_164_" class="st3" d="M239 69.4V50.5"/><path id="XMLID_162_" class="st3" d="m224.3 53.9 5.3 16.8"/><path id="XMLID_160_" class="st3" d="m193.4 85.1 16.7 4.3"/><path id="XMLID_161_" class="st3" d="m219.3 75.9-12.2-13.1"/><path id="XMLID_159_" class="st3" d="m198.2 72.4 14.8 11"/></g><g id="XMLID_148_"><path id="XMLID_158_" class="st5" d="m313 203 9 13.8s7.5-1.2 16.3-5l-9.1-13.7c-4.8 2.9-10.3 4.6-16.2 4.9z"/><path id="XMLID_209_" class="st5" d="m270.5 137.3 11.4 17.5c2.2-4.4 5.4-8.3 9.1-11.3l-11.4-15c-5.7 4.7-9.1 8.8-9.1 8.8z"/><path id="XMLID_210_" class="st5" d="m279.7 128.6 11.4 15c3.2-2.5 6.7-4.4 10.7-5.7l-6.3-18.8c-6.3 2.5-11.6 6.1-15.8 9.5z"/><path id="XMLID_211_" class="st5" d="m329.1 198.1 9.1 13.7c3.3-1.4 6.7-3.3 10-5.6l-13.1-12.7c-1.9 1.6-3.8 3.2-6 4.6z"/><path id="XMLID_212_" class="st5" d="m295.4 119.1 6.3 18.8c3.2-1 6.4-1.5 9.9-1.5h1.5l3.6-19.9c-7.6-1.3-14.8 0-21.3 2.6z"/><path id="XMLID_213_" class="st5" d="m335.1 193.4 13.1 12.7c4.1-3 8.1-6.6 11.1-11.3L340 187c-1.3 2.3-3 4.4-4.9 6.4z"/><path id="XMLID_214_" class="st5" d="M318.3 116.8c-.6-.1-1.1-.2-1.5-.3l-3.6 19.9c3 .1 6 .7 8.7 1.5l8.2-16.7c-3.9-2-7.8-3.5-11.8-4.4z"/><path id="XMLID_215_" class="st5" d="m364.9 178.9-20.5-3.2c-.8 4-2.2 7.9-4.3 11.3l19.3 7.8c2.2-3.4 3.9-7.1 4.9-11.5.2-1.4.5-2.9.6-4.4z"/><path id="XMLID_216_" class="st5" d="m357.2 147.5-16.7 5.5c2.1 3.6 3.6 7.6 4.1 11.8l19.2-1.8c-1.5-5.4-3.7-10.6-6.6-15.5z"/><path id="XMLID_217_" class="st5" d="m363.8 162.9-19.2 1.8c.2 1.6.4 3.2.4 4.9 0 2-.2 4-.6 6l20.5 3.2c.6-5.2.1-10.6-1.1-15.9z"/><path id="XMLID_218_" class="st5" d="m330.1 121.3-8.2 16.7c3.9 1.3 7.3 3.2 10.4 5.6l13.3-11c-4.8-4.6-10.1-8.5-15.5-11.3z"/><path id="XMLID_219_" class="st5" d="m345.6 132.6-13.3 11c3.3 2.6 6.1 5.8 8.1 9.3l16.7-5.5c-3.1-5.4-7-10.4-11.5-14.8z"/></g><path id="XMLID_226_" class="st3" d="M598.1 430s-11.4-31.6-17.9-66.3"/><g id="XMLID_98_"><path id="XMLID_189_" class="st7" d="M448.9 164.9c15.4-32.2 20-76.9 20-76.9"/><path id="XMLID_188_" class="st7" d="M457.6 165.8c15.4-32.2 16.3-66.4 16.3-66.4"/><path id="XMLID_191_" class="st7" d="M504.1 99.3s-14.7 41.3-30.3 59.7"/><path id="XMLID_190_" class="st7" d="M508.9 105.1s-14.2 41.6-28.4 55.8"/><path id="XMLID_192_" class="st7" d="M539.8 105s-20.3 39.9-35.7 56"/><path id="XMLID_193_" class="st7" d="M545 115.6s-23.4 36.8-32.2 47.4"/><path id="XMLID_194_" class="st7" d="M584.8 119.1s-35.1 37-51.7 48.1"/><path id="XMLID_195_" class="st7" d="M588.6 127.8s-27.4 33.1-45 42.4"/><path id="XMLID_196_" class="st7" d="M617.4 148.1s-28.6 21.1-56.5 32.2"/><path id="XMLID_197_" class="st7" d="M614.4 161s-22.7 15.9-50.6 27"/><path id="XMLID_198_" class="st7" d="M645.9 180.8s-37.8 14.6-72.1 19.2"/><path id="XMLID_207_" class="st7" d="M646.9 190.5s-35.9 13.7-70.2 18.2"/><path id="XMLID_208_" class="st7" d="M676.7 215.5s-52.8 10.8-100.9 6"/><path id="XMLID_221_" class="st7" d="M672.1 253.2s-48.1-.7-96.3-14"/><path id="XMLID_222_" class="st7" d="M682.8 291.2S624.2 271 576 257.7"/><path id="XMLID_223_" class="st7" d="M662.8 326.3s-40.6-29.9-61.7-43.8"/></g><g id="XMLID_147_"><g id="XMLID_33_"><path id="XMLID_235_" class="st2" d="m211.9 352.4-45.2.9s-1.9 16-6.4 33.6l51.6 2.5v-37z"/><path id="XMLID_237_" class="st5" d="M144 426.2c22.7 12.4 68 5.8 68 5.8v-22.5l-57.8-2.4c-2.9 7.5-6.3 14.4-10.2 19.1z"/><path id="XMLID_240_" class="st1" d="M160.4 386.8c-1.6 6.7-3.8 13.7-6.2 20.1l57.8 2.4v-20l-51.6-2.5z"/></g><path id="XMLID_243_" class="st4" d="M274 90.4c-1.9-8.2-8.7-21.2-27.9-21.2s-27.9 3.4-35.6 18.8c-3.9 7.8-3.2 197.6-4.9 384.7 7.8-.3 17.4-.8 26.4-1v-12.1c.4-179.1-3.7-355.1-1.7-360.1 3.9-10.1 18.8-11.6 22.6 0 3.9 11.6 5.6 52 5.6 52l19 1.4c-.1 0-1.5-54.4-3.5-62.5z"/></g><g id="XMLID_146_"><path id="XMLID_245_" class="st4" d="M204.9 533.6c-2 158.7-6.1 300.2-3.6 306.6 5.8 14.4 23.1 11.6 24.5 0 .7-5.1 4.4-147.8 5.7-306.6h-26.6z"/></g><g id="XMLID_143_"><path id="XMLID_157_" class="st4" d="M277.4 144.9c-9.1-4-19.5-4.8-24.7 7.5-5.2 12.3 3.3 24.4 7.7 48.6s4 54.8 4.7 62.1c.7 7.3 11.5 4.9 12.4-2.5 1-7.4-.2-56 0-52.3.2 3.8 7.2 25.5 15.6 38.9s3.8 24.4 0 25.1c-3.8.8-2.2-3.6-6.9-5.4s-7.7 3.7-7.7 9.3 8.7 13.4 18.3 14.7c9.6 1.3 21.7-11.1 25.3-28.8s-12.2-42.4-12.2-42.4 14.7 8.3 16.9-7.8c2.2-16.1-15-17.8-15-17.8s-25.2-45.1-34.4-49.2z"/><circle id="XMLID_153_" class="st1" cx="311.7" cy="169.7" r="33.3"/><circle id="XMLID_154_" class="st5" cx="311.7" cy="169.7" r="17.7"/><circle id="XMLID_155_" class="st5" cx="311.7" cy="169.7" r="6.8"/><path id="XMLID_156_" class="st3" d="M266.7 162.8s1.3 22.7 10.7 45.4"/></g><path id="XMLID_247_" class="st5" d="M169.6 470.1c-2.9 7.7-1.4 17.8 22.1 18.8v-16.5c-9.7-1.4-19.2-9.9-22.1-2.3z"/><g id="XMLID_132_"><g id="XMLID_83_"><path id="XMLID_250_" class="st5" d="m350.9 538.4-6.6-20.7c-3.4 1.3-6.9 2.8-10.2 4.1l6.2 19.2 10.6-2.6z"/><path id="XMLID_252_" class="st5" d="M370 533.6c8.4-3.3 4.5-21-7-21-2 0-4.9.6-8.1 1.4l6.9 21.6 8.2-2z"/><path id="XMLID_134_" class="st5" d="m370 533.6-8.3 2-10.7 2.7-10.7 2.7-18.5 4.6 7.3 19.7 18.2-2.5 11.1-1.5 11.1-1.5 9.3-1.3c8-4.9 2.1-22.2-8.8-24.9z"/><path id="XMLID_256_" class="st5" d="M376 580.3c4.9-.9 8.5-2.1 9.5-3.8 3.9-6.4 0-16.1-6.7-18.1l-9.3 1.3 6.5 20.6z"/><path id="XMLID_259_" class="st5" d="m347.3 562.9 6.3 19.7c3.7-.2 7.5-.4 11.3-.8l-6.5-20.4-11.1 1.5z"/></g><g id="XMLID_131_"><path id="XMLID_244_" class="st8" d="m361.7 535.7-6.9-21.6c-3.2.9-6.7 2.1-10.4 3.6l6.6 20.7 10.7-2.7z"/><path id="XMLID_254_" class="st8" d="M334.2 521.8c-9.8 4.2-18.1 8.4-18.1 8.4l5.7 15.5 18.5-4.6-6.1-19.3z"/><path id="XMLID_257_" class="st8" d="m358.4 561.4 6.5 20.4c3.9-.4 7.8-.9 11.1-1.4l-6.5-20.5-11.1 1.5z"/><path id="XMLID_258_" class="st8" d="m329.1 565.3 6.5 17.7s8.2 0 18-.5l-6.3-19.7-18.2 2.5z"/></g><path id="XMLID_130_" class="st1" d="M298.4 533.6c-1.3 6.9 13.8 54.9 17.6 58.7 3.9 3.9 24.2-.4 24.5-6s-14.7-58.4-18.7-62c-3.9-3.5-22.1 2.4-23.4 9.3z"/></g><g id="XMLID_77_"><path id="XMLID_133_" class="st5" d="m290 317-1.3 21.6 16.5 2.8 2.4-21.3c-6.2-1.5-12.5-2.6-17.6-3.1z"/><path id="XMLID_136_" class="st5" d="M277.9 317.6c-1.9 2.5-2.6 10.8-2.8 18.6l13.7 2.3L290 317c-6.4-.7-11.1-.6-12.1.6z"/><path id="XMLID_249_" class="st5" d="m307.6 319.9-2.4 21.3 15 2.5 3.7-19.4c-4.9-1.6-10.6-3.1-16.3-4.4z"/><path id="XMLID_251_" class="st5" d="M339 333c-.2-2.7-6.5-5.9-15.1-8.7l-3.7 19.4 17.5 3c1.2-4.9 1.7-9.6 1.3-13.7z"/></g><path id="XMLID_199_" class="st1" d="M523.4 259.7c5.8 13.2 25.5 13.6 39 12 .4-2.2 9-55.5 1-70.2-3.6-6.4-7.5-12.1-13-17-18.5 15-35.2 56.6-27 75.2z"/><path id="XMLID_24_" class="st3" d="m288.8 338.5-.6 18.8"/><path id="XMLID_37_" class="st3" d="m305.2 341.3-1.3 18.1"/><path id="XMLID_255_" class="st3" d="m320.2 343.8-3.4 19.8"/><g id="XMLID_2_"><g id="XMLID_265_"><path id="XMLID_266_" class="st5" d="m569.4 262.3 12.3 6.6s81.3-60.4 116.5-84.3l-18.6-25.7c-43 41.7-110.2 103.4-110.2 103.4z"/><path id="XMLID_267_" class="st1" d="M772.2 113.9c0-5.3-2.9-11.6-9.1-11.1-6.3.5-13 2.4-18.8 1-5.8-1.4-20.2-10.1-23.6-17.8s-10.6-28.9-20.2-28.9-7.7 27-12.5 29.4S631.2 61 618.7 60s-9.3 9.2-12 10.1-31.6-14.4-38-14c-6.4.5-17.2 10.1-12.5 15.4C560.9 76.8 716 114.8 715 122c-.3 2.3-15.2 17.3-35.3 36.9l18.6 25.7c9-6.2 15-9.8 15.8-9.5 3.9 1.4 4.8 14.9 20.7 18.3 15.9 3.4 22.6-12 22.1-22.6-.5-10.6-14.9-16.5-14.9-22.2s30.2-29.4 30.2-34.7z"/></g><g id="XMLID_276_"><g id="XMLID_275_"><path id="XMLID_87_" class="st5" d="M621.1 463.4c42.5-2.9 35.6-17.1 92.4-63.5 29.4-24 53.4-36.1 75.6-37.5-1.4-14.9-9.6-29.4-41.4-32.2s-47.2 8.2-78.9 37.1C637 396.2 608.2 407 608.2 407s-29.7 59.3 12.9 56.4z"/><path id="XMLID_94_" class="st3" d="M623.9 449.9c.5 1 30.8-8.7 77-55.8s83.8-45.4 83.8-45.4"/></g><g id="XMLID_271_"><path id="XMLID_74_" class="st5" d="M566.7 444.1s19.5 19.7 1.9 32.2c-17.6 12.5-55.3-.5-117 33.2s-43.8 94.2-43.8 94.2 31.8-36 87.6-47.6 97.7-19.3 122.3-43.3c24.5-24.1 13-65.6 8.7-84.8-4.3-19.2-18.3-46.8-18.3-46.8L575.9 327l-84.3 17 75.1 100.1z"/><path id="XMLID_206_" class="st3" d="M407.8 603.8c-.9-3.9 12-29.2 45.2-46s126.5-32.6 150.1-52.5c23.6-19.8 12.6-63.3 4.9-75.5"/></g><g id="XMLID_270_"><g id="XMLID_32_"><path id="XMLID_253_" class="st0" d="m580.1 287.2-17.8-15.4v-.1c-13.6 1.5-33.2 1.2-39-12-8.2-18.6 8.6-60.2 27-75.2-7.2-6.4-17-11.3-31.8-14.2-26-5.3-57.3-5.8-80.9 4.8-23.6 10.6-29.4 32.7-27.4 40.4 1.9 7.7 6.3 5.8 6.3 9.6s-2.7 6.7-7.2 7.7-12 2.4-26.5 7.7-40.9 31.3-40.9 45.2 11.5 12.7 24.1 13.5c9.6.6 33.2 0 33.2 0s-39.9 19.3-35.6 27.4c4.3 8.2 17.3-2.4 37.1 3.4 7.2 3.9-31.3 37.1-27.4 46.2 3.9 9.1 55.3-3.9 84.7 14 18.3 12.5 14 29.4 27 36.1 13 6.7 39.9 6.7 52.5-2.9 12.5-9.6 10.1-57.8 10.1-57.8l32.5-78.4z"/></g><path id="XMLID_23_" class="st3" d="M386.7 278.1s12.5-3.9 18.8 0c6.3 3.9 10.6 21.2-6.3 21.2"/><path id="XMLID_25_" class="st3" d="M420.4 340.1s-9.5-8.4-19.7-10.1"/><g id="XMLID_28_"><g id="XMLID_80_"><path id="XMLID_82_" d="M512.8 240.8c-2.4-3-13.2-3.2-29.6-6.5l-4.5 25.1c20.9-.2 36.5-15.6 34.1-18.6z" style="fill:red"/><path id="XMLID_135_" d="M472.8 231.9c-22.1-5.8-23.5-14-27.8-12-9.2 5.3-4.4 30.8 22 38 3.9 1.1 7.9 1.5 11.6 1.5l4.5-25.1c-3.2-.7-6.6-1.5-10.3-2.4z" style="fill:#fff"/></g><g id="XMLID_236_"><path id="XMLID_239_" class="st5" d="M474.6 239.5c-3.7 0-6.6-3-6.6-6.6 0-.8.1-1.5.4-2.2-2.4-.8-4.5-1.5-6.4-2.3-.7 1.5-1 3.3-1 5.1 0 7.7 6.2 13.9 13.9 13.9 7 0 12.8-5.2 13.8-11.9-2.3-.4-4.7-.9-7.3-1.4-.7 3-3.4 5.4-6.8 5.4z"/><path id="XMLID_241_" class="st5" d="M474.6 239.5c3.3 0 6.1-2.4 6.5-5.6-2.7-.6-5.5-1.3-8.5-2-1.5-.4-3.1-.9-4.4-1.3-.2.7-.4 1.4-.4 2.2.2 3.7 3.2 6.7 6.8 6.7z"/></g><path id="XMLID_78_" class="st3" d="M445 219.8c-9.2 5.3-4.4 30.8 22 38 26.5 7.2 48.6-13.5 45.7-17.1-2.9-3.7-17.8-3.2-39.9-9-22.1-5.7-23.5-13.8-27.8-11.9z"/></g><g id="XMLID_263_"><path id="XMLID_27_" class="st5" d="M341.9 449.9c-3.9-15.4 24.1-62.6 42.4-71.7 18.3-9.1 55.4-1.5 42.5 4.7-13.2 6.3-32.4 21.7-84.9 67z"/><g id="XMLID_262_"><path id="XMLID_30_" class="st5" d="M379.4 449.9c-6.3-30.3 28.3-65.3 48.8-69.7 20.5-4.3 29.6 10 29.6 10s-22.6 9.7-40.4 21.7c-17.7 11.9-31.9 31.2-38 38z"/><g id="XMLID_261_"><path id="XMLID_34_" class="st5" d="M479.1 347.4s-5.3 23.2-21.2 33c-15.9 9.8-23.1 34.3-11.6 51.6 1.4-12.4 11.6-27.3 26.5-38.4s15.9-26.5 15.9-26.5l-9.6-19.7z"/><g id="XMLID_260_"><path id="XMLID_36_" class="st5" d="M457.9 314.4s14.1 12.2 19.5 35.9-1.3 41.9 35.3 41.9c-14.4-12.7-11.6-35.1-14.4-48.6s-13-29.2-13-29.2h-27.4z"/><path id="XMLID_38_" class="st5" d="M448.8 305c7.2-2.4 29.1 5.3 61.1 8.7-10.9 15.4-39 13.5-52 7.7s-16.4-14-9.1-16.4z"/></g></g></g></g><g id="XMLID_102_"><path id="XMLID_57_" class="st5" d="M545 341.9s-6.7 11.7-10.6 35.8c-3.9 24.1-3.1 78.9 5.4 78.9s7.1-83.7 18.7-100.1c11.6-16.4 2.3-16.4 2.3-16.4l-15.8 1.8z"/><path id="XMLID_29_" class="st5" d="M575.8 453.3s-14-.5-17.3-9.1c-3.4-8.7-4.2-61.4-5.3-87.1 0 0 20.7-8.5 19.3 3.4-6 34.5 3.3 92.8 3.3 92.8z"/><path id="XMLID_58_" class="st5" d="M573.9 367.1s7.2 54.2 15.4 65.8c8.2 11.6 18.8 10 22.6 0-16.8-34.6-24.1-73.5-24.1-73.5l-13.9 7.7z"/><path id="XMLID_59_" class="st5" d="M581.7 354c1.8 2 26.4 46.2 35 54.4 8.7 8.2 15.4 7.3 25.5 2.5-25.5-36.1-49.4-75.9-49.4-75.9l-11.1 19z"/><g id="XMLID_101_"><path id="XMLID_35_" class="st0" d="M553.2 306.9c-3.4-8.1 0-36.6 12-42.8 12-6.3 21.2-2.9 27.9 1 6.7 3.9 10.1 12.7 6.7 23.7-3.4 11-15.9 28-15.9 32.5 0 4.4 11.6 4.4 13 12.1 1.4 7.7 1.4 29.4-8.7 35.6-10.1 6.3-24.9 4.5-32.2-3.9s2-25 2-25-6.4-.2-11.2-13c-4.7-12.7.1-17.8 6.4-20.2z"/><path id="XMLID_60_" class="st5" d="M542.1 347.4c-4.8-6.7-1.1-13.5 2.9-15.4 3.9-1.9 32 1.9 34.2 4.1s3.9 9.3 1 13.3c-2.9 3.9-33.3 4.7-38.1-2z"/><path id="XMLID_84_" class="st3" d="M553.2 306.9c2.9 7.4 8.7 12.6 16.6 5.1 8-7.5 2.8-13.8-3.1-15.7"/></g></g></g></g></g><path id="XMLID_274_" class="st5" d="M243.2 490.1c-2.3-.3-6.5-.5-11.6-.7v44.3h13.6c7.7-.1 7.7-42.4-2-43.6z"/><g id="XMLID_11_"><path id="XMLID_137_" class="st3" d="M199.1 523h50.8"/><path id="XMLID_139_" class="st3" d="M199.1 512h50.8"/><path id="XMLID_142_" class="st3" d="M199.1 500.9h50.8"/></g><g id="XMLID_110_"><path id="XMLID_111_" class="st5" d="M740.7 516.7c11.5 3 21.4 10.2 28.7 17-.2-2.2-.6-4.3-1.3-6.2-5.5-14.4-20.2-26.7-34.9-28.1-6.9-.7-28 6.3-58 19.5-30 13.3-59.1 19.7-63.2 22.3-2.4 1.5-4.1 6.9-4.9 13.7 48.2.1 111.3-44 133.6-38.2z"/><path id="XMLID_112_" class="st5" d="M769.4 533.7c-7.3-6.8-17.2-14.1-28.7-17-22.3-5.8-85.4 38.3-133.7 38.3-.6 4.8-.7 10.3-.2 15.5 48.4.9 111.6-39.4 133.9-33.6 10.1 2.6 19.1 8.6 26 14.6 1.9-6 3.1-12.4 2.7-17.8z"/><path id="XMLID_113_" class="st5" d="M606.8 570.5c1 10.7 4.2 20.2 10.6 20.2 13.8 0 45.1-19 82.4-23.8 37.3-4.8 46.9 9.6 53.9 6.4 3.9-1.8 9.6-11.4 13-21.9-6.9-6.1-15.9-11.9-26-14.6-22.3-5.7-85.5 34.6-133.9 33.7z"/></g><path id="XMLID_114_" class="st5" d="M661 371.9c-6.2-7.7-48.6-62.4-61.9-81.1-2.1 5.5-5.9 12-9.1 17.7 11.1 18 52.5 66.8 57.9 70.8 6.4 4.6 19.7.8 13.1-7.4z"/><g id="XMLID_104_"><path id="XMLID_225_" class="st7" d="M627.9 405.8s-15.7-20.8-32.3-47.6"/><path id="XMLID_227_" class="st7" d="M564.6 441.1s-2.7-51.4-1.3-71.1"/><path id="XMLID_228_" class="st7" d="M539.8 436.2s-1.7-59.7 8.8-85.5"/><path id="XMLID_230_" class="st7" d="M456 312.4c9 3.9 25.3 5.6 34.9 5.2"/><path id="XMLID_231_" class="st7" d="M480 324.9c9.5 11.1 8.9 47.6 14.6 56.4"/><path id="XMLID_229_" class="st7" d="M446.3 432s-2.3-29 18.4-45c8.1-6.3 12.9-12.1 15.9-17"/><path id="XMLID_233_" class="st7" d="M379.4 449.9c3.1-34.4 60.7-63.7 60.7-63.7"/><path id="XMLID_234_" class="st7" d="M341.9 449.9s29.6-58.6 47.6-66.6"/><path id="XMLID_232_" class="st7" d="M341.9 449.9s45.6-58.6 63.5-66.6"/></g><path id="XMLID_224_" class="st7" d="M652.8 374.6s-41.9-49.6-58.6-76.3"/></g></svg>