<svg version="1.1" id="Calque_1" xmlns="http://www.w3.org/2000/svg" x="0" y="0" viewBox="0 0 900 900" style="enable-background:new 0 0 900 900" xml:space="preserve"><style>.st0,.st1,.st2{fill:#fff;stroke:#000;stroke-width:2.9635;stroke-linecap:round;stroke-linejoin:round;stroke-miterlimit:10}.st1,.st2{fill:none;stroke:red}.st2{stroke:#000}.st3{fill:red}.st4{fill:#fff}.st5,.st6,.st7,.st8,.st9{fill:#3a7c00;stroke:#000;stroke-width:2.9635;stroke-linecap:round;stroke-linejoin:round;stroke-miterlimit:10}.st6,.st7,.st8,.st9{fill:#ffce00}.st7,.st8,.st9{fill:#89b066}.st8,.st9{fill:red}.st9{fill:#ff7300}.st11{fill:#89b066}.st12{fill:none;stroke:#000;stroke-width:1.9757;stroke-linecap:round;stroke-linejoin:round;stroke-miterlimit:10}</style><path class="st0" d="M622.9 359.2s-7.9-4.2 5.2-8.6c13.1-4.2 40.8-20.1 44.7-20.1 3.8 0 20.3.7 21.9 2.7 1.7 2 3.9 4.2-.7 7.6 4 2.7 14.2 8.8 7.8 13.8 5.7 3 1.8 10.2-1.7 11.2 4.5 1.7.5 8.9-2.8 9.9 1.3 4.1-.9 6.6-4.2 8.6s-21.2-1-28.4-1.3c-7.1-.3-34.7 5.9-34.7 5.9l-7.1-29.7z"/><path class="st1" d="M622.9 359.2s42.2-20 48.7-21.1c6.5-1.2 16.1-.6 16.1-.6M693.2 346.5c-28.4-1.6-70.3 21.3-70.3 21.3"/><path class="st1" d="M625.8 372.3s18.1-5 23.4-9.6c5.3-4.5 20.9-9.6 20.9-9.6M651.4 369.6c-4.5 3.6-25.7 8.3-25.7 8.3M666.8 371c-5.4 5.7-39.7 13.8-39.7 13.8M672.4 377.7c4 3 19.3 3 19.3 3M673.8 365.3c7.2 6.8 23.5 5.6 23.5 5.6M677.3 357.8c7.6 4.1 22.7 3.1 22.7 3.1"/><path class="st0" d="M539.2 385.5c1 0 70.2-7.6 70.2-7.6s16.4 20.6 3.6 24.4c-12.8 3.8-73.8 31.6-73.8 31.6L530 399l9.2-13.5z"/><path class="st1" d="M538.3 426.7c18.3-6.4 57.6-21.2 57.6-21.2M595.9 399.7c-12.2 4.7-59.6 18.4-59.6 18.4M591.9 395.3c-11.2 3.4-48.7 12.5-48.7 12.5M589.9 389.7l-45.9 10M591.9 382.5c-15.1 4.3-49.5 7.9-49.5 7.9"/><path class="st0" d="M618 539.6s4.5-1 67.5 1.9 82.3 18.7 82.3 18.7v-20l-153.4-14.3 3.6 13.7z"/><path class="st0" d="m610.9 512.5 3.5 13.2 153.3 14.5v-13.6zM767.7 498.4s-23.4-.4-81.3-4c-58-3.6-69.8-14.1-69.8-14.1l-3.2 16.9 154.3 15.3v-14.1zM767.7 512.5l-154.3-15.3-2.8 14.4.3.9 156.8 14.1z"/><path class="st1" d="M619.5 531.6s30.2 3.3 70.7 5.3c43.7 2.2 43.9 2.3 76.5 11.8M615.5 519.2s36.7 2.7 74.7 6.6c37.9 4 76.5 7.1 76.5 7.1M614.3 504.4c.5 1.1 28.8 1.9 74.9 7.3s79.8 8.4 79.8 8.4M615.5 489.6s25.7 7 73.7 11.2c41.2 3.7 77.4 3.7 77.4 3.7"/><path class="st0" d="M545.5 499.8c0 1 14.4 5.9 17.1 19.6 19.1-6.3 51.7-14.9 51.7-14.9l2.3 28.5s-62.2 23.9-71.1 23.9-16.7-6-16.7-6l-3.4-29.6 20.1-21.5z"/><path class="st1" d="M560.9 517.2c-10.3 6.3-33.5 9.5-33.5 9.5M608 513.1c-25.8 8.1-79.7 20.9-79.7 20.9M610.6 520.2c-21.4 6-82.9 20.8-82.9 20.8M595.9 530.6c-15 4.6-64.3 17.1-64.3 17.1M596.9 535.9c-17 7-52.8 16.4-52.8 16.4"/><path class="st2" d="M545.5 499.8c0 1 14.4 5.9 17.1 19.6 19.1-6.3 51.7-14.9 51.7-14.9l2.3 28.5s-62.2 23.9-71.1 23.9-16.7-6-16.7-6l-3.4-29.6 20.1-21.5z"/><path class="st0" d="M530.6 609.1s35.9 10 46.7 22.4c10.9 12.3 12.2 33.6 12.2 33.6l-27-.3-30.6-28.5-1.3-27.2z"/><path class="st1" d="M533.1 614.7s27 7.3 38.4 18.2c11.5 10.9 12.1 27.9 12.1 27.9"/><path class="st1" d="M533.1 622s21.2 3.2 33.3 15.4c12.1 12.2 10.5 21.1 10.5 21.1"/><path class="st1" d="M533.1 630.8s17.5 2.4 27.3 10.6 13.4 19.6 13.4 19.6"/><path class="st2" d="M553.7 657.9c-8.6-9.3-21.4-10.3-21.4-10.3l-32.9-9.1c-13.4 1.8-30.7 2.6-52.8.6-46.6-4.2-67-17.8-74.8-25.3-1.5 3.8-12.5 32.8-3.7 53.2 9.6 21.9 30.3 27 30.3 27l114.9 41.5s27.4-1.9 39.2-17.5c12-15.5 9.7-50.8 1.2-60.1z"/><path class="st3" d="M372 613.8c-1.5 3.8-12.5 32.8-3.7 53.2 9.6 21.9 30.3 27 30.3 27l42.7 15.4.7-70.8c-43.3-4.7-62.5-17.6-70-24.8z"/><path class="st4" d="M553.7 657.9c-8.6-9.3-21.4-10.3-21.4-10.3l-32.9-9.1c-13.4 1.8-30.7 2.6-52.8.6-1.6-.1-3.2-.3-4.7-.5l-.7 70.8 72.2 26.1s27.4-1.9 39.2-17.5c11.9-15.5 9.6-50.8 1.1-60.1z"/><path class="st2" d="M553.7 657.9c-8.6-9.3-21.4-10.3-21.4-10.3l-32.9-9.1c-13.4 1.8-30.7 2.6-52.8.6-1.6-.1-3.2-.3-4.7-.5-43.4-4.6-62.5-17.6-70-24.8-1.5 3.8-12.5 32.8-3.7 53.2 9.6 21.9 30.3 27 30.3 27l42.7 15.4 72.2 26.1s27.4-1.9 39.2-17.5c11.9-15.5 9.6-50.8 1.1-60.1z"/><path class="st1" d="M533.1 651.6s28.8 7.2 22.9 40.7c-5.9 33.5-27.7 36.7-27.7 36.7"/><path class="st1" d="M527.4 658.8c12.8-3 26.1 10.4 22 34.1s-25 32.6-25 32.6"/><path class="st1" d="M529.9 668.7s16.4 1.5 11.6 23.4c-4.8 21.9-25 30.2-25 30.2"/><path class="st1" d="M530.8 678.2s6.8 12.5-.8 24.1c-7.6 11.6-20.3 15.4-20.3 15.4M438.4 689.3c21 3.4 76.5-6.6 79.1-.4 3.7 8.6-9.1 15.1-9.1 15.1"/><path class="st1" d="M436.3 682.7c21 2.3 84.3-6.2 88 2.4 6.2 14.2-14.7 25.9-14.7 25.9"/><path class="st0" d="M398.7 694.1c-9.6 1.7-9.9 14.8-9.9 14.8s-8.9 22.4 0 29.6c3.8 3.1 25.8 4.3 50.5 4.1l-3.4-47.3c-18.1.5-33.3.2-37.2-1.2z"/><path class="st1" d="m390.6 699.6 33.7 1.8M389.1 710.3l33.1.9M386.8 718.1l57.3.6M389.1 726l55 2.2M386.8 733.5l52.1 3.3"/><path class="st0" d="M382 730.9c-2.5 18.8-15.2 18.8-20.2 30.9-5 12.2-5.4 24.5-7.1 30.6-1.7 6.1-10.7 11.2-14.9 11.2-4.2 0-11.3-10.5-8.1-22 3.2-11.6 16.2-80.1 16.2-80.1s36.4 10.7 34.1 29.4z"/><path class="st2" d="M330.8 788.2c6.6 0 9.9-5.4 9.9-5.4M333 797.1c7.8-.3 11.1-7.9 11.1-7.9M339.7 803.7c4.9-2.7 8-12.2 8-12.2"/><path class="st1" d="M359.9 733.5s-14.2 8.1-18.2 18.6c-4 10.5.1 22.2-1 25.6s-4.9 6.1-4.9 6.1"/><path class="st1" d="M337.9 790.2s6.7-4.4 8.1-10.4c1.7-5.3-1.6-12.2 1.8-22.2 3.4-10.1 15.4-19.9 15.4-19.9"/><path class="st1" d="M348.9 795.3c5.9-9.9 1.1-24.8 4.9-34.6 3.9-9.8 21.6-25 21.6-25"/><path class="st0" d="M568.9 661.4c-3.7-21.7-35.9-24.3-36.8-25.2l-3.4 10.4 3.7 1s12.8 1 21.4 10.3c8.6 9.3 10.9 44.6-1 60.2-11.9 15.6-39.2 17.5-39.2 17.5l-12.2-4.3-7.9 24.5s-6.1 40.8-11.8 69.1c17.5 9.9 70.8 7.2 73.8 4.9s17-146.6 13.4-168.4z"/><path class="st0" d="m513.4 735.6-2.7-1c-5.3 28.7-14.1 76.1-14.1 78.3 0 3.3 46.1 8.2 48.4 2.7 1.8-4.3 10.2-78.4 13.9-112-1.3 5.6-3.4 10.7-6.3 14.6-11.7 15.5-39.2 17.4-39.2 17.4z"/><path class="st5" d="M226.8 672.9s-8.6 11.6-103.4-14.1c38.3 62.5 110.7 37.8 110.7 37.8l42.1-12.2 19.1-20.1-14.8-14.8-53.7 23.4z"/><path class="st5" d="M239.2 704s-44.7 33.6-118.2 26.4c49.2 40.8 142.2-12.6 142.2-12.6l39.2-16.1L312 674l-14.1-6.9-58.7 36.9z"/><path class="st5" d="M282.4 721.9s-15.1 35.6-46.1 50.4-62.9 17.5-82 18.8c52.4 19.1 104.7-.7 136-33.9 31.3-33.3 36.3-72.8 36.3-72.8l-15-9-29.2 46.5zM276.2 647.6s-27.7 18.2-58 11.3c-30.3-6.9-57.3-36.3-77.1-50.1 6.6 38.8 52.1 69.1 84 70.8s55.3-22.4 55.3-22.4l-4.2-9.6z"/><path class="st5" d="M290.6 661.4c-12.4 16.3-74.4 49.8-111.9 48.8s-63.5-22.4-63.5-22.4 8.9 48.7 80.7 37.2 105.3-54.7 105.3-54.7 1.9-25.2-10.6-8.9z"/><path class="st5" d="M308.8 667s-24.7 42.8-74.4 70.1c-49.7 27.4-86.2 28.4-107.7 20.1 24.4 21.4 59 23.3 117.8-4.9 59.1-28.4 75.1-70.4 75.1-70.4L308.8 667z"/><path class="st6" d="M352.2 502.1s-13.9-8.5-27.4 0c-13.4 8.5-13.1 20.3-9.5 26.1 4.9-2.8 21.4-13.6 27.4-4 5.9 9.7-11.8 21.9-11.8 21.9s10.1 8.3 21.2-6 15.5-9.1 15.5-9.1l-15.4-28.9z"/><ellipse class="st7" cx="366.3" cy="504.3" rx="20.4" ry="18"/><path class="st6" d="M263.6 650.2s50.2 37.2 70.8 40.5c4.2-6.9 8.1-13.8 11.7-20.4L284.6 632c-12.3 11.4-21 18.2-21 18.2z"/><path class="st7" d="m284.5 632 61.5 38.2c3.1-5.8 5.9-11.4 8.6-16.7l-55.4-36c-5.2 5.4-10.2 10.3-14.7 14.5z"/><path class="st8" d="M313.6 601.9c-4.8 5.6-9.7 10.9-14.4 15.7l55.4 36c3.7-7.4 6.8-14.3 9.4-20.3l-50.4-31.4z"/><path class="st9" d="m332.6 577.5 49.4 11.3 5.7-14.1-48.3-8.2c-2.1 3.5-4.4 7.3-6.8 11z"/><path class="st9" d="M326.1 586.4c-4.1 5.4-8.4 10.6-12.6 15.5l50.4 31.3c6.6-15.1 10-24.8 10-24.8l8-19.7-49.4-11.3c-1.9 3.1-4.1 6-6.4 9z"/><path class="st8" d="M344 557.8c-1.4 2.8-3 5.6-4.6 8.6l48.3 8.2 3.5-8.5-47.2-8.3z"/><path class="st7" d="M404.6 533.1 394 499.8l-33.9 11.9s-3.3 20.6-16.1 46.2l47.1 8.3 13.5-33.1z"/><path class="st2" d="m284.5 644-10.8 13.4M296.2 652.7l-9 12.3M312 659.8l-10.8 15.5M326.5 669.4l-9 15.1M301.2 627.2l-8.6 9.9M306.7 629.5l-9 10.7M315.3 635.9l-6.2 10.4M320 639.3l-6.4 10.3M328.1 645.3l-6.2 9.7M332.6 647.6l-6.1 9.8M340.4 653.5l-5.8 9.8M345.7 656.1l-6.3 10.1"/><ellipse transform="scale(-1) rotate(80.915 595.175 -435.946)" class="st0" cx="371.8" cy="507.6" rx="10.6" ry="16.9"/><ellipse transform="scale(-1) rotate(80.915 595.175 -435.946)" class="st0" cx="371.8" cy="507.6" rx="5.3" ry="8.5"/><path class="st0" d="M537.4 669.4c-2.7-24.9-.5-42.6-.5-42.6s-24.7 18.1-90.3 12.2c-26.2-2.4-44-7.7-56-13.1 2.2 7.3 6.5 18.8 14.2 28.9 10.9 14.5 107.9 14.8 132.6 14.6z"/><path class="st0" d="M404.9 654.9c-7.6-10.2-12-21.6-14.2-28.9-5.6-2.6-10-5.1-13.2-7.6.2 12.2 3.3 38.9 24.3 49.4 27.7 13.8 120 8.9 137.8 16.8-.9-5.2-1.6-10.3-2.1-15.1-24.8.1-121.8-.2-132.6-14.6z"/><path class="st2" d="m383.2 631.8-2 8.6M387.9 640.4l-2.1 11.2M393.1 649.6v11.2M399.6 657.4l.9 9.6M407.8 663.3l1.4 7.1M414.1 665l1.8 7.3M423.4 667l1.9 6.8M434.3 668.7l1.6 6.6M442.4 670.5l1.7 6M451 670.9l1.2 6.1M460.2 671.7l2.2 5.9M468.4 671.7l3 6M475.5 672l2.2 6.5M483.4 672.3l1.8 6.2M489.9 672.3l2 6.2M497.2 672.3l2.2 7.3M504.6 673l1.8 6.6M510.4 672.3l2.1 7.5M517.5 673l1.7 7.5M524.5 674.7l1.9 7M530.9 675.3l2.2 7.2"/><path class="st0" d="M404.6 627.5s4.3 18.5 9.5 22.7c5.1 4.2 15.2 6.6 16.9-.7 1.3 9.9 14.1 8.2 15.5 4.6 5.9 4.9 17.5 5.4 21-3 5.2 8.6 17.5 6.9 18.8 1.7 4.7 6.9 13.8 5.6 17.5-1 3.7 9.2 14.3 7.2 16.5 2.3 5.9 6.2 14.2 4.9 16.8 3.3s0-30.6 0-30.6l-92.3-13.5-40.2 14.2z"/><path class="st2" d="M520 630s1.8 22.3.2 24.3M503.7 651.9c2-2.3 0-18.2 0-18.2M483.4 636.1s4.6 13.5 2.8 16.8M467.4 651.2c1.2-1.7-2.6-14.1-2.6-14.1M446.3 634.6s4.2 15.2.1 19.7M430.9 649.6c1.7-3.6-1.5-16.8-1.5-16.8"/><path class="st3" d="M414.1 631.4s1.6 12.7 6.1 12.7 3.2-11.8 3.2-11.8l12 2.1s-.8 13 4.3 13 2.7-11.2 2.7-11.2H454s-1.9 11.4 3.3 11.2 3.2-10.6 3.2-10.6l12.3.1s-.3 11.7 4.1 10.6 4.2-12.7 4.2-12.7l11 1s-1.6 12.6 4.2 11.8c5.8-.9 2.2-12.7 2.2-12.7l10.3-1.2s.3 13.2 4.3 12.7c4.1-.5 4.5-15.5 4.5-15.5l7-1.1s1.3 14.4 5.1 13.2c3.9-1.2 1-16.3 1-16.3l-63.1-2-53.5 6.7z"/><path class="st0" d="m535.5 585.3-2.5-67-126-11.6s-14.8 6.2-18.9 32.9c-.7 4.7-1.9 10-3.2 15.4 9.6 7.8 33.7 23.9 73 28.4 39.8 4.5 66.9 2.9 77.6 1.9z"/><path class="st0" d="M457.9 583.4c-39.3-4.4-63.4-20.6-73-28.4-1.1 4.5-2.5 9.3-3.8 13.9 13.8 8.1 39.2 20.2 72.6 24.4 35.4 4.4 66.1 2.9 82 1.4l-.3-9.4c-10.6 1-37.7 2.6-77.5-1.9z"/><path class="st0" d="M455.3 603c-38.5-4-64.6-16.4-77.2-23.8-5.2 16.3-10.3 29.6-10.3 29.6s13.5 24.4 79 30.3c65.5 6 90.2-12.1 90.2-12.1l-.9-23.7c-14.9 1.6-43.4 3.5-80.8-.3z"/><path class="st0" d="M453.8 593.3c-33.4-4.2-58.8-16.3-72.6-24.4-1 3.5-2.1 6.9-3.2 10.3 12.6 7.4 38.7 19.9 77.2 23.8 37.4 3.9 66.1 1.9 80.9.2l-.3-8.5c-15.9 1.4-46.7 3.1-82-1.4z"/><path class="st2" d="m377.4 599.7-5.4 14.1M384.9 604.2l-6 15.1M392.1 605.2l-6.9 17.9M400 606.7l-6.1 20.6M406.4 610.5l-5.6 19.5M414.1 612.3l-4.9 20.1M420.1 614.4l-3.8 19.8M428.4 615.3l-4 20.6M436.3 624.9l-2 12.2M446.9 626.9l-.6 11.9M457.4 628.7v11.7M468.4 627.8V641M477.7 626.2l1.8 13.9M488.8 624.5l1.1 14.8M498.3 624.3l2.4 13.8M509.6 622.2l2.9 13.7M519.4 618.7l3.2 14.9M528.4 615.3l3.2 14.4"/><path class="st0" d="m486.8 316.1-7.3 29.3c2.1-.2 4.2-.5 6.3-.7l9.3-29.1c-2.8.2-5.6.4-8.3.5zM458.4 318l-8.8 30.6c8.7-.8 19.1-2 29.7-3.1l7.3-29.3c-10.4.5-20.3 1.2-28.2 1.8zM440.4 319.3s-29 27.3-10.9 29.9c2.7.4 7 .3 12.5 0l9.6-30.7c-6.9.5-11.2.8-11.2.8zM495.2 315.7l-9.3 29.1c6.8-.7 13.6-1.4 20.3-1.9l8.2-28.1c-6.5.3-12.9.6-19.2.9z"/><path class="st0" d="m451.7 318.5-9.6 30.7c2.4-.1 4.8-.4 7.6-.6l8.8-30.6c-2.5.1-4.7.3-6.8.5zM544.9 314.4l-8.1 27.8c2.2.2 4.1.4 5.7.8l8.3-28.4c-1.8-.1-3.8-.2-5.9-.2zM514.2 314.8l-8.2 28.1c2.1-.2 4.1-.3 6-.5l8.1-27.9c-1.8.2-3.9.2-5.9.3zM564.2 316.3c-2.6-.9-7.2-1.5-13.3-1.7l-8.3 28.4c3.3.7 5.5 1.8 6.3 3.4 5.1 2.2 31.7-24.2 15.3-30.1z"/><path class="st0" d="m520.3 314.6-8.1 27.9c9.6-.7 18.3-.9 24.8-.3l8.1-27.8c-7.4-.2-15.9 0-24.8.2z"/><path class="st5" d="M254.7 336.8c37.8-17.5 68.5-2 68.5-2l3 20.4s-18.2-1.3-36.3-2.6-38.5 9.5-77.3 19.1c-38.8 9.6-51.7-10.3-51.7-10.3s56-7.1 93.8-24.6zM270.2 386.5s-29.3 37-46.7 50.7-39.2 18.2-39.2 18.2 12.8 13.8 45.7-4.5c32.9-18.4 46.1-39.6 66.9-49.6 20.7-10 34.3-7.6 34.3-7.6l-4.9-19.5-56.1 12.3zM218.5 516.3s21.7-7.9 31.3-22.4 12.8-38.1 21.4-49.7c8.6-11.6 29.6-27.7 29.6-27.7l38.4-5.2-1.2 21.3s-21.7-6.8-42.8 20.8c-21 27.7-25.4 43.5-43.8 57s-32.9 5.9-32.9 5.9z"/><path class="st2" d="M175.3 364.3s33.3 1.3 70.9-12c37.6-13.2 56.6-12.2 56.6-12.2M202.7 455.3s18.4-4.6 36.4-17.5c18-12.8 17.2-27.7 43.6-39.5s47.2-9.3 47.2-9.3M235.7 511.6c1-.7 13.8-3.3 24.7-20.1 10.9-16.8 9.2-29.3 30.6-46.7 21.4-17.5 35.3-21.9 35.3-21.9"/><path class="st5" d="M337 393.4s-19.8-3.6-43.5 9.3-38.2 46-56 60.3c-17.8 14.1-34.9 20.7-34.9 20.7s14.8 14.1 44.7-7.6 30.1-38.2 51.2-49.4c21-11.2 41.2-11.9 41.2-11.9l-2.7-21.4z"/><path class="st2" d="M218.5 480.3s16.1-3.8 33.9-20 26.1-35.8 44.8-47.2c18.8-11.5 32.7-11.5 32.7-11.5"/><path class="st5" d="M284.8 366.3c-16.2 3.5-47.2 41.8-67.9 51.2s-41.2 6.9-41.2 6.9 12 16.1 44.8 3.1 38.8-33.4 70.1-42 40.5-4.2 40.5-4.2l-4.9-22c-.1-.1-25.2 3.5-41.4 7z"/><path class="st2" d="M192.8 427.5s17.1 1.2 35.9-10.2c18.8-11.4 39-35.2 61.5-39.8 22.5-4.6 30.9-3.3 30.9-3.3"/><path class="st5" d="M321.2 352.6s-23.1-5.3-42.5 0-58.9 28.6-74.4 33.9c-15.5 5.2-31.9 7.2-31.9 7.2s12.5 13.1 45.1 5.6c32.6-7.6 48.1-26.4 73.4-31.5 25.3-5.1 33.3 2.2 33.3 2.2l-3-17.4z"/><path class="st2" d="M184.3 395.8s16.1 2.5 41.2-7.7c25-10.2 34.9-22.4 60-28.9s38.8 3.3 38.8 3.3"/><path class="st5" d="M155.2 326.3s19.1 15.2 41.2 13.7c20.2-1.3 20-4.1 28-5.9 8.1-1.8 21.7-1 21.7-1l-2.3-18.4s-4.2-1-18.1.8c-13.8 1.8-18.8 5-33.9 7.9-15 2.9-36.6 2.9-36.6 2.9z"/><path class="st0" d="M261.9 288c-1-1-66.5-2.4-66.5-2.4l1.3 20.3 77.1 1 2-17.8-13.9-1.1z"/><ellipse class="st0" cx="167.6" cy="271.6" rx="7.7" ry="11.6"/><ellipse class="st0" cx="168" cy="319.3" rx="7.7" ry="11.6"/><ellipse class="st0" cx="133.9" cy="315.8" rx="7.7" ry="11.6"/><ellipse class="st0" cx="135.2" cy="275.5" rx="7.7" ry="11.6"/><ellipse class="st0" cx="122.5" cy="295.5" rx="13" ry="12.3"/><ellipse class="st0" cx="147.3" cy="295.9" rx="13.5" ry="13.7"/><ellipse class="st0" cx="168" cy="294.6" rx="12.6" ry="14"/><ellipse class="st0" cx="192.8" cy="295" rx="11.2" ry="14.4"/><path class="st5" d="M219.5 147.1c6.2 5.9 32.9 16.1 50.6 54.3s18 8.5 18 8.5l3.3-18.7s-12.5-8.9-26.7-22.7c-14.2-13.8-39.9-24.7-45.2-21.4z"/><path class="st5" d="M295.5 225.2s-26.4-20.4-32.6-54.4c-4.4-24-15.5-38.2-19.1-41.2 15.1-3 33.9 45.1 46.7 58.7 12.8 13.5 32.6 18.7 53 36.9s8.9 20.6 8.9 20.6L339.7 260l-16.8 3-27.4-37.8z"/><path class="st5" d="M211 167.6s21 12.6 28 19.2 17.9 17.1 25.4 28.3 32.6 25.1 32.6 25.1l24.7 42.1s19.1 1.7 19.1 0-17.5-48.7-36.6-57c-23.1-10-23-25.4-48.4-41.5S211 167.6 211 167.6z"/><path class="st5" d="M205.3 191.3s-.3 13.4 17.1 25.3c17.4 11.9 42.8 18.8 57 31.6 14.2 12.8 24 30.9 24 30.9l31.3 16.5s-15.7-46.4-45.1-59.8c-29.3-13.2-42.4-17.3-55.2-25-12.8-7.6-29.1-19.5-29.1-19.5z"/><path class="st5" d="M189.8 221.5c-.7 1.3 2.6 17.5 24.4 28.6 21.8 11.2 28.4 10.1 50.4 19.7s39.5 32.7 39.5 32.7l21 7.1 3.1-17.6s-16.2-14.3-36-25.5-43.8-17.4-65.5-23.1c-21.7-5.7-36.9-21.9-36.9-21.9z"/><path class="st5" d="M186.6 261.6s7.5 15.4 25.4 18.5c17.8 3.1 25.7 3.3 36.6 6.6 10.9 3.3 28 19.1 28 19.1l46.4 3.8s-32.9-27.2-54-32.8c-21-5.6-29.9-5.9-47.4-5.2s-35-10-35-10z"/><path class="st8" d="M327.5 306.8s-84-10.3-87.9-6.9c-1.2 1-2.1 4.4-2.6 8.8l91.2 6.1-.7-8z"/><path class="st0" d="M237 308.6c-1.2 10.1-.6 25.4 1.2 28.7 2.7 4.8 92.9 7.2 92.9 7.2l-2.9-29.8-91.2-6.1z"/><path class="st0" d="M379.9 227.1c-.7 0-14.5-15.8-24-17.1-9.6-1.3-22.4 13.3-12.8 23.4-10.2.5-18.1 9-12.2 22.7-6.6 1-11.2 18.5-6.6 24-6.6 2-10.9 25.9-6.2 27.7-7.2 1.8-7.6 20.1-5.2 22.7 2.3 2.7 10.6 4.2 10.6 4.2-6.9 4.9-11.6 17.7-4.6 25.4-7.2 5.9-9.6 24.4 3 27.4-5.9 8.7-7.2 25.8 6.6 23.7-8.2 9.9-11.3 27.3 2.7 28.3 13.9 1 37.2-16.6 37.2-16.6l11.5-195.8z"/><path class="st2" d="M375.2 233.3s-14.1-11.3-17.8-11.9c-3.7-.6-5.2 4-4 5.9 1.3 2 18.5 9.9 18.5 9.9l-4.6 16.1s-21-9.6-24.4-10.1c-3.3-.5-4.2 5-2.3 5.9s23.4 10.8 23.4 10.8l-3.7 14.1s-19.1-5.9-23.4-5.9c-4.2 0-4 3.4-2.7 5.9 1.3 2.7 25.7 6.3 25.7 6.3l-2.7 13.4s-25.9-4.6-27.6-3.4c-1.7 1.3-2.4 6.2-.7 8.5 1.7 2.4 27.9 2.7 27.9 2.7l-1.4 15.1s-26.6-.5-28.5 1.3-3.1 6.2-1 8.1c2.1 1.8 29.5-.1 29.5-.1L353 342s-21.2-.8-24.9 1c-3.8 1.8-2.9 7.1 0 9.1s25.6-2.1 25.6-2.1l-1 17.6s-24.7.2-26.7 2.2-1.9 7.2.9 7.9c2.8.7 28.6-2 28.6-2v12.8s-21.8 4.7-24.6 7.3c-2.9 2.6-2.3 9.4 1.3 8.2 3.6-1.2 25.4-8.4 25.4-8.4l4.2 15.4s-27.4 10.1-29.3 10.9c-2 .8 1 7.9 4 7.2 3-.7 28.6-12 28.6-12"/><path class="st7" d="M434.5 270.3c-20.7-10.2-52.7-48.7-54.6-48.7s-25.4 27-29.6 99.6c-4.2 72.6 9.6 101.3 13.8 105.9 4.2 4.6 63.5-26 63.5-26l9.9-18.8-10.5-61c0-.1 28.3-40.8 7.5-51z"/><path class="st2" d="m366.2 243.4 68.6 30.8M358.9 264.7l68.9 20.9M354 286.8l69.6 13M351 309.6l62.3 8.9M349.4 334l63.4-.4M349.6 356.9l69.7-6.5M351.2 382.2l63.7-12.8M356 405.9l66.2-21"/><path class="st0" d="M410.1 327.9s3.9-32.9 23.4-57.5c6.9-1.5 17.4.5 17.4.5l8.5 25.4-33.5 27.7-15.8 3.9z"/><path class="st2" d="m427 279.8 10.5 1.5M423.8 285.6l11.4 1.2M420.4 292.4l10.7.6M417.4 299.7l9.5.1M414.9 307l8.6-.8M412.8 314.6l7.6-2.8"/><path class="st5" d="M565.2 144.4s14.1-71.8 38.5-81c-25.4 59-30.3 127.1-30.3 127.8 0 .6-13.1 2-13.1 2l4.9-48.8z"/><path class="st5" d="M568.6 123.7c-3.7-30.3-1.7-32.3 4.9-64.2-28.6 21.7-17.1 92.2-17.1 92.2s3.3 34.9 8.6 26.7c5.1-8.3 7.1-24.4 3.6-54.7z"/><path class="st5" d="M535 146.1S524.4 64.4 550.8 50c-9.9 40.5-7.2 64.5 5.6 93.5s14.8 50.4 14.8 50.4l-23.1 10.9-13.1-58.7z"/><path class="st5" d="M511.3 54.2c5.6 42.2 21.4 64.8 25.4 83.6s19.8 58 19.8 58h-31.3s-.1-41.8-8.1-68.3c-8.2-26.3-18.4-64.4-5.8-73.3z"/><path class="st5" d="M482.6 57.5c-11.4 21.7-1.7 48.4 11.2 66.2s20 72.4 20 72.4l18.6 1.6s-3-36.4-11.2-60.1c-1.9-5.3-4-10.1-6.3-13.5-13-19.2-25.5-36.3-32.3-66.6z"/><path class="st5" d="M454.9 68.8c-3.1 2-11.2 52.1 11.3 71.8s32.9 42.9 34.6 50.8c1.7 7.9 22.7 28.3 19.5 4.5-3.3-23.7-20.4-51.1-36.8-63.5-16.7-12.7-24.1-49.8-28.6-63.6z"/><path class="st0" d="M479.9 187.9s9.7-4.2 16.8 1.7c7.1-7.2 16.8-2.9 20.1 1.7 4.9-5.5 17.8-5.3 20.7 2 6.6-7.5 17.4-10.4 24.5 4.5 3.9-8.8 18.7-17.3 20 0s-4.2 82.1-4.2 82.1l-103.4 2.3 3.2-40.2 2.3-54.1z"/><path class="st2" d="m537.5 193.2-2.2 81M515.1 274.2l1.7-82.9M496.7 189.6l-.5 86.6M528.3 202.7l-3 74.8M549.7 199.5l-3.2 78M571.1 199.5l-2.5 70M505.6 196.3v83.5M556 276.2l6-78.5"/><path class="st0" d="M480.4 270.1v35.4l6.3-.1v-35.3h-6.3zM486.8 270.2v35.3l6.3-.1v-35.2h-6.3zM499.3 270.3v35l6.3-.1v-34.9c-2 .1-4.2.1-6.3 0z"/><path class="st0" d="M493.1 270.2v35.2l6.3-.1v-35c-2.2 0-4.3 0-6.3-.1zM474.1 270.1v35.5l6.3-.1v-35.4h-6.3zM455.3 270.4v35.4l6.3-.1v-35.6c-2.6.1-4.7.2-6.3.3z"/><path class="st0" d="M467.9 270.1v35.6l6.3-.1v-35.5h-6.3z"/><path class="st0" d="M461.6 270.2v35.6l6.3-.1v-35.6c-2.4 0-4.4 0-6.3.1zM450.9 270.9c-2.1 2.3-1.3 33.9-.9 34.9l5.2-.1v-35.4c-2.5.2-4.1.4-4.3.6zM543.5 271.5V305l6.3-.1v-33.2c-2.1-.1-4.3-.2-6.3-.2z"/><path class="st0" d="M549.7 271.7v33.2l6.3-.1v-32.9c-2 0-4.1-.1-6.3-.2zM584 274.2c0-.8-11.7-1.6-28-2.3v32.9l32.9-.3s-4.9-27.7-4.9-30.3zM537.1 271.3v33.8l6.3-.1v-33.5c-2-.1-4.2-.2-6.3-.2zM505.6 270.5v34.8l6.3-.1v-34.7h-6.3zM518.3 270.7v34.5l6.3-.1v-34.3c-2.2 0-4.2 0-6.3-.1zM512 270.6v34.7l6.3-.1v-34.5c-2.2 0-4.3-.1-6.3-.1zM530.8 271.1v34l6.3-.1v-33.8c-2 0-4.1-.1-6.3-.1z"/><path class="st0" d="M524.5 270.9v34.3l6.3-.1v-34c-2.1-.1-4.1-.2-6.3-.2z"/><ellipse class="st0" cx="724.6" cy="175.4" rx="9.9" ry="7.8"/><ellipse class="st0" cx="687.7" cy="171.8" rx="9.9" ry="7.8"/><ellipse class="st0" cx="728.5" cy="153.6" rx="12.2" ry="8.5"/><ellipse class="st0" cx="690.1" cy="149.8" rx="12.2" ry="8.5"/><ellipse class="st0" cx="728.2" cy="120.4" rx="10.9" ry="7.6"/><ellipse class="st0" cx="697.6" cy="119.5" rx="10.9" ry="7.6"/><circle class="st0" cx="712.8" cy="117.3" r="8.4"/><circle class="st0" cx="710.8" cy="136" r="10"/><circle class="st0" cx="709.4" cy="154.2" r="10"/><circle class="st0" cx="707.5" cy="173.2" r="10"/><path class="st4" d="M658.6 541.5c0 18.3-30.4 83.5-30.4 83.5s11.6 4.9 15.1 4.2c17.8-38.8 24.7-81 24.7-81l-2.3 83s9.6 2 11.1-1 1.5-79.3 1.5-79.3-5.2-4.1 6.2 3.8 24.4 76.6 24.4 76.6 15.4-2 15.5-4c.3-28.6-22.5-72.6-22.5-72.6s-9.4-8.7 6.1-1.8c15.5 6.9 46.1 58 49.1 59.6 3 1.7 17.5-4.6 14.8-11.6-2.7-6.9-50.7-57.4-50.7-57.4s-62.6-20.3-62.6-2z"/><path class="st3" d="M638.3 618.8c4 1.3 8.5-1.9 10.2-7 1.7-5.1-.1-10.5-4-11.8-1.9-.6-4-.2-5.8 1-1.8 4.1-3.5 8-4.9 11.4.4 3 2 5.5 4.5 6.4zM646.1 593.2c4 1.3 8.5-1.9 10.2-7 1.7-5.1-.1-10.5-4-11.8-.9-.3-1.8-.3-2.7-.2-2.1 5.5-4.3 11.2-6.5 16.6.6 1.2 1.7 2 3 2.4zM659.9 548.5c-.7-.2-1.5-.3-2.2-.3-1.1 5-3 11.5-5.3 18.4.4.3.9.5 1.4.7 4 1.3 8.5-1.9 10.2-7 1.7-5.3-.1-10.6-4.1-11.8zM670 575.8c4.1-.3 7.1-5 6.6-10.5-.5-5.4-4.1-9.6-8.2-9.3-.2 0-.5.1-.7.1l-.5 19.2c.9.4 1.8.6 2.8.5zM670 599.1c4.1-.3 7.1-5 6.6-10.5-.5-5.4-4.1-9.6-8.2-9.3-.5 0-.9.1-1.4.3l-.5 18.6c1.1.7 2.3 1 3.5.9zM669 625.1c4.1-.3 7.1-5 6.6-10.5-.4-5.4-4.1-9.6-8.2-9.3-.4 0-.7.1-1.1.2l-.5 18.9c1 .6 2.1.8 3.2.7zM716.1 610.7c-1.9-5.1-6.6-8.1-10.5-6.6-.9.3-1.7.9-2.4 1.6 1.5 6.1 2.7 11.8 3.6 16.1 1.9 1.1 3.9 1.4 5.7.7 4-1.3 5.6-6.7 3.6-11.8zM709.1 598.5c3.9-1.5 5.4-6.7 3.5-11.9-1.9-5.1-6.6-8.1-10.5-6.6-2.1.8-3.6 2.8-4.1 5.1 1 3.5 2 7 2.9 10.5 2.3 2.8 5.5 4 8.2 2.9zM700.4 574.8c3.9-1.5 5.4-6.7 3.5-11.9-2-5.1-6.6-8.1-10.5-6.6-2.1.8-3.5 2.7-4.1 5 1.8 3.5 3.5 7.8 5.1 12.6 2.1 1.3 4.2 1.6 6 .9zM728.5 556.4c-2.8-4.7-7.8-6.9-11.4-4.8-1.9 1.1-2.9 3.1-3.2 5.4 3.6 3.1 7.5 7.4 11.5 12.2.5-.1 1.1-.3 1.6-.6 3.6-2 4.2-7.5 1.5-12.2zM744.8 588.3c3.6-2.1 4.2-7.6 1.5-12.2-2.8-4.7-7.8-6.9-11.4-4.8-2.1 1.2-3.2 3.5-3.2 6.1 2.9 3.9 5.7 7.8 8.4 11.6 1.6.2 3.3.1 4.7-.7zM761.5 596.2c-2.8-4.7-7.8-6.9-11.4-4.8-2.4 1.4-3.5 4.2-3.1 7.4 2.7 4 5 7.3 6.7 9.7 2.2 1 4.4 1.1 6.3 0 3.6-2 4.3-7.6 1.5-12.3z"/><path class="st2" d="M658.6 541.5c0 18.3-30.4 83.5-30.4 83.5s11.6 4.9 15.1 4.2c17.8-38.8 24.7-81 24.7-81l-2.3 83s9.6 2 11.1-1 1.5-79.3 1.5-79.3-5.2-4.1 6.2 3.8 24.4 76.6 24.4 76.6 15.4-2 15.5-4c.3-28.6-22.5-72.6-22.5-72.6s-9.4-8.7 6.1-1.8c15.5 6.9 46.1 58 49.1 59.6 3 1.7 17.5-4.6 14.8-11.6-2.7-6.9-50.7-57.4-50.7-57.4s-62.6-20.3-62.6-2z"/><path class="st0" d="M513 461.5c-1.1-2.4-2.1-4.6-3-6.6-8.5 3.4-23.9 6.8-45.9 1.7-23.2-5.3-39.2-14-47.4-19.4-.8 1.8-1.7 3.9-2.6 6.1 7.2 5 24 15.1 50 21.1 24.9 5.8 41.3.7 48.9-2.9z"/><path class="st0" d="M510.1 454.9c-2.7-6.1-4.1-10.2-4.1-10.2l-17.1-1.7-43.4-39.2-25.5 25.4c-.1.3-1.4 3.3-3.4 7.9 8.2 5.3 24.2 14 47.4 19.4 22.2 5.1 37.6 1.8 46.1-1.6z"/><path class="st0" d="M533 497.4c-8-11-15.1-25-20.1-35.9-7.6 3.6-24 8.7-48.9 3-26-5.9-42.9-16.1-50-21.1-5.2 12.3-12.8 30.5-18.8 44.7 12.8 7.8 36.9 18.6 71.4 18.6 31.2 0 53.4-5.1 66.4-9.3z"/><path class="st2" d="m485.7 443.5 1.7 36.1M491.8 445.8l2.5 34.5M457 477.7l3.9-53M464.1 480.3l2.7-53.6M436.1 476.3c7.7-10.6 11.7-54.2 11.7-54.2M405.9 482.5l-3.2 11M411.8 483.8l-3.6 11M419 486.2l-2.7 12.2M425.8 490.3l-1.3 10.5M432.5 489.9l-.8 13.2M440.4 490.6l-1 13.5M447.6 491.2l-.6 14.2M456.8 492.2l-1 14M466.5 493.1v13.3M475.8 492.7l.7 13.7M485.7 492.2l.8 13.2M494.3 490.6l2.4 13.7M502.4 491.6l2.5 11.5M510.4 491.1l3.4 10.9M518.5 490l3.8 10.8"/><path class="st6" d="M424.3 405.9c-4.2 13.7-25.5 29.6-27 33.6-1.6 4 3 13.1 7.2 12.4 4.3-.7 19.1-12.4 31.6-40.8-4 29.8-26.7 64.8-28.4 69.1-1.7 4.2 5 12.5 9.6 11.2 4.5-1.3 23.2-24.4 25.7-74.4-.3-21.2-9.9-26.7-9.9-26.7s-4.5 1.9-8.8 15.6z"/><path class="st8" d="M440.4 319.3s107.5-8.8 123.8-3c16.4 5.8 3.8-16.5 3.8-16.5s-104.3 5.3-122.5 2.7c-18.2-2.7-5.1 16.8-5.1 16.8z"/><path class="st9" d="M543.2 406.9c-2.4-.3-16.3 1.2-22.7 2-6.4.8-11.1-.3-17.2-5.6-6.1-5.2-2.9-28.9 7.1-34.5 8.4-4.6 31-4.5 38-4.4 0-.2.1-.4.1-.6.3-4.1.7-9.2-1-10.9-1.7-1.7-48.1 4.2-48.1 4.2l-29.3 40.1-5.9 20.5 26 23.7s6.6-6.2 14.1-5.6c7.5.7 18.9 5.6 24.4 5.6 5.6 0 9.9-3 13.1-7.2 3.3-4.2-3-23.4-3-23.4s4.3.4 8.5.5c-1.4-2.1-3-4.3-4.1-4.4z"/><path d="M555 401.7c-2-3.3-9.5-20.4-9.5-25.4 0-4.6 2.4-8.1 2.9-12-6.9-.1-29.5-.2-38 4.4-10 5.4-13.2 29.1-7.1 34.5 6.1 5.2 10.8 6.4 17.2 5.6s20.3-2.3 22.7-2c1.1.2 2.8 2.3 4.2 4.4 3.4.1 6.6 0 7.6-.5 2.3-1.1 2-5.8 0-9z" style="fill:#803a00;stroke:#000;stroke-width:2.9635;stroke-linecap:round;stroke-linejoin:round;stroke-miterlimit:10"/><path class="st7" d="M469.8 411.8s15.5 26 27.1 29.6c11.5 3.7 22-5.2 22-5.2s5.2-1.3 4 2-12.5 11.9-24.4 11.9-37.8-22.4-37.8-22.4 8.2 16.8-5.9 21.2c-.7-7.4-.5-14.1-5.2-17.5-4.8-3.4-6.2-14.2-6.2-14.2s-5.9 8.9-9.2 7.2c-3.3-1.7 2-14.5 0-26.3-2.3 7.5-11.3 15.4-13.8 13.1s10.2-16.1 9.9-33.3c-4 3.3-5.8 8.9-10.9 7.6s3.7-11.6 1-15.8c-2.7-4.2 7.6-23.7 7.6-23.7l49.4-3.8-2.3 15.3 12.2 10.4-8.2 25.2-9.2 13.1-.1 5.6z"/><path class="st2" d="M460.5 427.7c-3.3-6.6-10-12.2-15-17.8-5-5.6-7.7-21-7.7-21M437.8 517.2s-15.1 33.3-4.9 48.4c10.2 15.1 48.1 20.8 60.9 0s3-40.2 3-40.2"/><path class="st0" d="M342.9 737c1.3-.9 26.9 9.5 37.2-1.6 9.7-10.3 9.6-39 4.6-42.8s-30.2-2.5-30.2-2.5L342.9 737z"/><path class="st2" d="M621.9 809c16.5 5.6 42.8 2.3 51.1 4.6 8.2 2.3 13.1 12.2 13.1 20.3 0 8.1-4.9 8.1-8.6 5.4-1.3 4.2-6.2 5.9-9.2 2.7-7.2 3.7-11.6-2.7-11.6-2.7l-68.2 2.7 1-57.6 11.9-1.5c.1-.1 4 20.4 20.5 26.1z"/><path class="st0" d="M602 785.2c.3.9 0 56.2 0 56.2s-46.7 5.3-47.7-2.1 7.6-59.2 7.6-59.2l40.1 5.1z"/><path class="st8" d="M607.8 776.6s11.5-14.1 18-15.6c6.6-1.4 12.5 3.5 11.6 12.4-1 8.9-9.2 15.5-9.2 15.5l-18.8 1.5-1.6-11.3v-2.5h0z"/><path class="st2" d="M655.1 366.7c13.1-2.4 29.3-18.5 29.3-18.5M673.8 342.2s7.4 1.1 10.7 1.5c3.3.3 9.5-3 9.5-3M700 365.7c-2.8 1.3-19.9.5-20.9-1.9M679.2 374s13.6 3.5 18.1 1.7"/><ellipse class="st0" cx="662.6" cy="403.9" rx="15.6" ry="12.3"/><path class="st0" d="m569.4 670.3 37.5 2c-.6-5.7-1.5-10-2.9-11.9-6.7-9.4-28.1-6-36.7-4.1.7 1.6 1.2 3.3 1.5 5.1.4 2 .5 5 .6 8.9zM567.9 710.1l39.6 3.4c.1-3.7.2-7.2.2-10.7l-39.3-1.7c-.1 2.9-.3 5.9-.5 9z"/><path class="st0" d="m589.9 702 5.9.3c.5-14.2.5-25 .5-30.5l-5.9-.3c0 5.4 0 16.1-.5 30.5z"/><path class="st0" d="m584 701.8 5.9.3c.5-14.4.5-25.2.4-30.6l-5.9-.3c.1 5.2.1 16-.4 30.6zM595.8 702.3l5.9.3c.5-14.1.5-24.8.5-30.4l-5.9-.3c0 5.4 0 16-.5 30.4z"/><path class="st0" d="m601.8 702.5 6 .3c.2-11.8 0-22.5-.8-30.4l-4.7-.3c-.1 5.7-.1 16.3-.5 30.4zM579.4 670.9l-4.9-.3c.1 5 .1 15.9-.4 30.8l4.9.2c.5-14.7.5-25.6.4-30.7z"/><path class="st0" d="m574.5 670.6-5.1-.3c.1 7.6-.3 18.4-1 30.8l5.6.2c.7-14.8.6-25.7.5-30.7zM579 701.6l4.9.2c.5-14.5.5-25.4.4-30.6l-4.9-.3c.1 5.1.1 16-.4 30.7zM604.4 771c.9-11.9 2.5-35.3 3.2-57.6l-6.2-.5c-.8 16.5-2.4 36.5-5 58.2 3-.1 5.7-.1 8-.1z"/><path class="st0" d="M590.3 771c2.1.1 4.1.1 5.9.1 2.8-21.7 4.2-41.7 5-58.2l-5.9-.5c-.8 16.6-2.2 36.7-5 58.6zM567.9 710.1c-1.1 17.5-2.8 37.1-4.4 55.5 1.7.7 3.6 1.3 5.6 2 2.6-21.3 4-40.9 4.7-57l-5.9-.5z"/><path class="st0" d="M589.5 712c-.8 16.6-2.3 36.7-5 58.8 2.1.2 4.1.3 5.9.3 2.8-21.9 4.2-42 5-58.6l-5.9-.5zM573.7 710.6c-.8 16-2.2 35.6-4.7 57 1.5.5 3.2 1 4.7 1.4 2.7-21.7 4.1-41.6 4.8-58l-4.8-.4z"/><path class="st0" d="M583.6 711.5c-.8 16.5-2.3 36.6-4.9 58.6.9.2 1.9.3 2.8.4 1 .1 2.1.2 3.1.3 2.8-22 4.2-42.2 5-58.8l-6-.5z"/><path class="st0" d="M578.6 711.1c-.8 16.3-2.2 36.3-4.8 58 1.6.4 3.2.8 4.8 1.1 2.8-21.9 4.1-42.1 4.9-58.6l-4.9-.5zM501.7 340.7l.9 19.8c2.4-.2 4.7-.3 7.3-.5l-1.3-19.7c-2.3.2-4.6.3-6.9.4zM514.5 340c-2 .1-4 .2-5.8.3L510 360c1.8-.1 3.7-.2 5.5-.4l-1-19.6zM496.7 341l.9 19.8c1.6-.1 3.3-.2 4.9-.3l-.9-19.8c-1.6.1-3.3.2-4.9.3zM519.5 339.8l.9 19.5c2-.1 4-.3 5.9-.4l-.9-19.4c-2 .2-4 .2-5.9.3zM480.4 342.2l-3.2 14.7 6.3 4.8s1.6-.1 4.2-.3l-.9-19.8c-3.9.4-6.4.6-6.4.6zM487 341.7l.9 19.8c1.4-.1 3.1-.2 4.9-.3l-.9-19.8c-1.9.1-3.6.2-4.9.3z"/><path class="st0" d="m491.9 341.4.9 19.8c1.5-.1 3.2-.2 4.9-.3l-.9-19.8c-1.7 0-3.4.2-4.9.3zM514.5 340l.9 19.7c1.7-.1 3.3-.2 4.9-.3l-.9-19.6c-1.6.1-3.2.2-4.9.2zM525.4 339.6l.9 19.4c2.1-.1 4.1-.3 5.9-.4l-.9-19.1c-2 0-3.9 0-5.9.1zM543.2 339.5l.9 18.3c1.8-.1 3.2-.2 4.1-.3.3 0 .5 0 .8-.1l-.8-17.7c-1.6-.1-3.3-.2-5-.2zM555 341.2c-.4-.3-1.1-.5-2-.7l.7 15.1c5.3-3.5 6.4-10.9 1.3-14.4z"/><path class="st0" d="m548.1 339.7.8 17.7c1.9-.2 3.5-.9 4.8-1.9l-.7-15.1c-1.1-.3-2.9-.5-4.9-.7zM531.3 339.5l.9 19.1c2.1-.1 4.1-.3 5.9-.4l-.9-18.8c-1.8 0-3.9 0-5.9.1zM537.2 339.4l.9 18.8c2.3-.2 4.2-.3 5.9-.4l-.9-18.3c-1.8-.1-3.8-.1-5.9-.1zM621.6 730.6c1.8-7.1 14.9-50.4 12.1-76.5-2.9-26.1-18.4-30.9-35.3-24.3-13.3 5.2-14 18.9-13.6 24.3 6.2-.1 12.5.8 16.6 3.7 3.2-4 7.6-8.2 11-4.7 5.6 5.9-4.6 55-4.9 68.5-.2 13.4 6.4 31 17.7 29.9-2-5.4-5.3-13.8-3.6-20.9z"/><path class="st2" d="M590.4 646.5v-11.1M599 640.9l-.5-11M605.6 640.2l7.8-12.9M613.4 640.2l12.8-6.5M619.8 645l12.6.5M622.6 654.2l11.5 4.6M622.6 662.3l11.1 8.1M624.2 672.3l8.2 10.6M621.5 682.9l8.9 11.6M619.8 694.1l8.3 11.1M618.5 705.2l7.6 10.1M615.6 713.4l7.7 10.5M613.4 723.9l7.4 8.8M613.4 736.8l8.9 6.1M677.5 839.3c2-4.9-3-12.2-8.7-15M657.3 829.7c9.4 2.6 13.6 9.3 11.1 12.2"/><path class="st0" d="M435.1 608c-.6 2.7-1.4 5.8-2.4 9.5l39.8 3.2v-10.2l-37.4-2.5z"/><path class="st0" d="m472.5 591.3-35 3.9s-.2 3.1-2.5 12.8l37.4 2.4v-19.1zM432.7 617.6c-.9 3.5-2 7.4-3.3 12 2.7.8 5.3 1.5 8 2l2.2-13.3-6.9-.7z"/><path class="st0" d="m439.5 618.1-2.2 13.3c2.6.5 5.1 1 7.6 1.3l2.1-14.1-7.5-.5zM472.5 620.8l-9.9-.8-.3 13.9c6.2-.1 10.2-.6 10.2-.6v-12.5zM447.1 618.7l-2.1 14.1c3.3.4 6.3.7 9.2.9l1.2-14.3-8.3-.7z"/><path class="st0" d="m455.5 619.4-1.2 14.3c3.1.2 5.8.2 8.2.2l.3-13.9-7.3-.6zM512.1 386.9c-1.3-2 10.3-11.5 15.6-11.8 5.3-.3 10.4 1.5 10.4 4.7 0 3.1-24.8 9-26 7.1z"/><circle class="st2" cx="525.9" cy="378.6" r="3"/><circle class="st8" cx="439.7" cy="267.3" r="10.2"/><circle class="st7" cx="437.2" cy="229.4" r="10.2"/><circle class="st7" cx="506.6" cy="249.8" r="10.2"/><circle class="st6" cx="502.4" cy="215" r="10.2"/><path class="st7" d="M428.6 213c1 4.9-2.3 8.8-7.9 10.6-5.6 1.7-15.8 1.7-18.8-8.5s1-19.2 15.8-23.1 33.4 11.6 40.2 25.2c6.8 13.6-12.2 16.3-12.2 16.3s-9.5-16.3-17.1-20.5z"/><path class="st6" d="M476.3 171.5c5.6-10.2 21.7-9.9 26-22s-.3-30.6-15-33.6-25.1 4.2-38.6 4.2-19.1-10.3-36.6-10.3c-12.1 0-22.8 8.3-28.4 13.4.2 2 1.5 3 3.1 2.4 2.7-1 12.2-8.4 25.7-10.6 13.4-2.2 12.5 14.1 33.3 15.8 14.2 1.2 31.3-6.9 38.8-6.6 7.6.3 15.1 5.9 10.9 17.8s-13.8 7.9-26.7 19.1c-12.8 11.2 2.5 56 2.5 56l7.8 3.5c-2.2-11.4-7.3-41-2.8-49.1z"/><path class="st7" d="M487.2 105.6c-13.5-1.1-23.7 3.3-38.2 3-14.5-.3-24.4-8.6-35.9-7.2-11.6 1.3-26 11.6-28.4 16.8-.9 2.1-1.2 4-1.1 5.2 5.5-5.1 16.3-13.4 28.4-13.4 17.5 0 23 10.2 36.6 10.2s24-7.2 38.6-4.2c14.6 3 19.3 21.4 15 33.6-4.2 12.2-20.4 11.9-26 22-4.5 8.2.6 37.7 2.8 49.2l10.4 4.5s-6.5-31.3-1.9-45.1 17.1-14.8 23-23.7 6.3-48.6-23.3-50.9z"/><path class="st8" d="M445.7 233.3s-15.2-22.6-19.8-23.5c-4.5-.8-3.3 6.6-9 7.1s-8.1-5.5-8.1-10.1 12-9.2 19-7.5c7 1.8 23.1 29.9 23.1 29.9l-5.2 4.1z"/><circle class="st8" cx="471.3" cy="243.4" r="30.8"/><circle class="st7" cx="471.3" cy="243.4" r="18.2"/><path class="st6" d="M457.2 146.1c-14 6.6-3.4 40.5-3.4 40.5s-14.1-21.4-30.2-10.9c18.5 6.6 29.2 27.2 35.4 44.3l13.9-4c-4.3-17.5-10.1-42.3-15.7-69.9z"/><path class="st4" d="M479.7 241.2c-1.1-3.6-3.6-12.5-6.7-25.2l-13.9 4c4 11 6 20.4 7.1 23.9 2.6 8.9 16 5.9 13.5-2.7z"/><path class="st2" d="M466.1 243.9c-2.7-8.9-12.2-57.3-42.5-68.2 16.1-10.6 30.2 10.9 30.2 10.9s-10.7-33.9 3.4-40.5c9.6 47.4 19.8 86.6 22.4 95.1 2.6 8.6-10.8 11.6-13.5 2.7z"/><path class="st2" d="M453.9 186.6c3.4 11.1 9.5 25.2 9.5 25.2"/><circle class="st7" cx="533" cy="306.8" r="12.5"/><path class="st6" d="M488.6 341.6s-4.6-4.5-11.1-2.9c-6.4 1.7-9.7 8.6-7.6 17.5 2.1 8.9 8.9 7.4 9.9 10.2 1 2.8-.7 13.5-6.9 20.4-6.2 6.9-20.1 8.9-20.1 8.9s5.5 23.7 41.1 25.4c4 .1 1.3-11.9 1.3-11.9s-16.8.7-18.8-3 9.2-1.3 19.8-35.6c4.2-12.8 20.7-25.3 27-28.4 6.2-3.2 17.1-26.9 17.1-26.9s-9.1-2.7-12.8 2c-3.8 4.6-16.8 23-25.7 29.6s-14.8 7.9-18.5 7.2-4.1-3.4-3.7-6.2c1.1-4.9 9-6.3 9-6.3z"/><ellipse transform="rotate(-78.363 413.276 260.016)" class="st0" cx="413.3" cy="260" rx="10.2" ry="14.6"/><ellipse transform="rotate(-78.363 398.748 295.87)" class="st0" cx="398.7" cy="295.9" rx="10.2" ry="14.6"/><ellipse transform="rotate(-78.363 394.3 326.686)" class="st0" cx="394.3" cy="326.7" rx="10.2" ry="14.6"/><path class="st6" d="m433.2 306.5-48.7 33.9c-.3 1.3 7.2 12.5 8.9 13.8 15.5-5.6 30.3-27.7 30.3-27.7s-23.7 39.8-24 42.5c-.3 2.7 18.8 8.9 18.8 8.9l27.2-60.7-12.5-10.7z"/><path class="st8" d="M444.1 289.1c-2.5.3-5.4 3-8.2 6.6 6.7 8.1 7.7 17.7 7.4 24.2 4.4-4.6 8.6-13.5 8.6-18.1-.1-5.5-.9-13.6-7.8-12.7z"/><path class="st8" d="M435.8 295.8c-5.2 6.7-9.9 16.7-9.9 21.6 0 7.6 9.2 7.9 14.5 4.9.9-.5 1.9-1.3 2.8-2.3.3-6.6-.7-16.1-7.4-24.2z"/><circle class="st8" cx="453.6" cy="372.3" r="13.1"/><path class="st0" d="M466.8 372.3c0 7.3-5.9 13.1-13.1 13.1-7.2 0-13.1-5.9-13.1-13.1h26.2z"/><path class="st0" d="M459.2 372.3c0 3.1-2.5 5.6-5.6 5.6-3.1 0-5.6-2.5-5.6-5.6h11.2z"/><path class="st8" d="M394 535c-1.9 22.7 18.1 26.3 18.1 26.3S421 515 420 515s-15.5-8.2-15.5-8.2M508.6 529.7s17.5 14.1 41.8 18.5c-5.9 19.8-28.2 13-28.2 13l-15-15 1.4-16.5z"/><path class="st8" d="M408.2 526.9s-14.2 30.4-38.9 16.6c22.7-15.8 29.3-34.3 29.3-34.3l16.4 5.6M413 565.7s-6 29.3-32.8 39.8c13.7 12.8 26.8-.7 26.8-.7s-5.4 25.4 16.3 19.1c-3.3-25.4 0-42.8 0-42.8L413 565.7zM468.4 596.9s4 19.5 0 39.5c23.4-4.6 12.8-36.5 12.8-36.5s7.7 28.3 32.2 14c-19-11.9-22.5-23.7-22.5-23.7l-22.5 6.7zM508.6 565.7s13.7 3.7 27 16.1c4-16.1-24.4-33.6-24.4-33.6l-2.6 17.5zM444.7 571.6l21.2-46.2-25.8-3.2-10.6 26z"/><path class="st8" d="M460.9 521.2c1 1 17.1 53 17.1 53l13.8-11.9s17.5-15.8 4.2-20.4c-13.1-4.6-17.6-16.5-17.6-16.5l-17.5-4.2z"/><path class="st0" d="M415.9 519.3s-14 32.8-4.1 53.5 23.4 30.3 48.7 30.3c25.4 0 46.3-12.8 51.4-34.6 5-21.7-3.7-46.4-3.7-46.4l-21.7 2s9.9 22.5 1 36.6c-8.9 14.1-38.8 12.2-45.7-2.1-6.9-14.1 5.3-36.6 5.3-36.6l-31.2-2.7z"/><path class="st8" d="M533 497.4c-13.1 4.2-35.2 9.3-66.3 9.3-34.5 0-58.6-10.9-71.4-18.6-5 12.1-8.9 21.2-8.9 21.2s18.9 21.6 77.7 20.7c60.1-.9 81.4-10.9 86.2-16.5-5.8-2.4-11.8-8.5-17.3-16.1z"/><circle class="st0" cx="394" cy="493.8" r="10.6"/><circle class="st0" cx="425.5" cy="511.6" r="10.6"/><circle class="st0" cx="463.6" cy="517.2" r="10.6"/><circle class="st0" cx="502.4" cy="514.9" r="10.6"/><circle class="st0" cx="538.5" cy="503.7" r="10.6"/><path class="st0" d="M543.6 406.2c-3-1-20.5 1-23.8 1.7s-1.9 8.6 1.7 8.6c3.6 0 26-5 26-5s-1-4.3-3.9-5.3zM542.4 424.9c-.4-2.7-1-5.3-1.7-7.7-1.9.3-4.1.6-6.3 1l2 8.2c2.2-.5 4.3-1.1 6-1.5zM519.8 422c-1.9 2.3-2.2 4.2 2.3 5.9 1.4.5 4.2.3 7.5-.2l-1.8-8.3c-4.1.9-7.4 1.8-8 2.6z"/><path class="st0" d="M534.4 418.2c-2.3.4-4.5.8-6.7 1.3l1.8 8.3c2.2-.4 4.6-.9 6.9-1.4l-2-8.2zM625.9 397l-12.4 42.5s6.7 1.7 8.1 0c1.4-1.7 10.9-45.1 10.9-45.1l-6.6 2.6z"/><path class="st0" d="M628.1 392.1c-.3 1 8.9 51.4 8.9 51.4h8.6l-10.2-48.7-7.3-2.7z"/><circle class="st0" cx="594.1" cy="389.7" r="8.2"/><circle class="st0" cx="599.8" cy="405.9" r="8.2"/><path class="st0" d="M635.3 394.8c-5-10.9-7.2-44.2-7.2-44.2s-2.3.8-5.3 2c-.8 5.7-1.5 15.2.2 27 1.5 11 5.1 17.7 8.1 21.5 3-2.4 4.8-4.9 4.2-6.3zM615.6 355.6c-5.7 2.6-11.6 5.7-13.1 8.5-3.3 5.7 2.3 42.8 9.6 44.5 3.4.8 8.9-1.2 13.7-3.9-2.4-2.7-5.6-8.4-8.8-20.8-3.8-14.2-2.9-23.2-1.4-28.3z"/><path class="st0" d="M622.8 352.6c-2.1.8-4.6 1.9-7.2 3.1-1.4 5-2.3 14 1.4 28.3 3.3 12.3 6.4 18.2 8.8 20.8 2-1.1 3.8-2.3 5.3-3.6-3-3.9-6.6-10.6-8.1-21.5-1.7-11.9-1.1-21.3-.2-27.1z"/><path class="st2" d="m601.5 367.8 7.5-2.7M601.5 374l7.6-1.7M602.4 380.6l7.1-1.6M603.4 386.9l7.5-2M604.7 394.4l8.3-2.4M606.7 400.4l7.6-2.3M609.9 406.9l7-3"/><circle class="st0" cx="591.9" cy="373.3" r="8.2"/><path class="st4" d="m705.7 404.7 48.6 4s-.4 15.6-4 15c-3.6-.6-28.4-4.6-44.7-7.2v6.4s28.5 13.9 44.9 10.2c4 .8.3 17-1.7 17.8-13.4 0-43.3-13.6-43.3-13.6l-2-31.3 2.2-1.3z"/><circle class="st3" cx="718.6" cy="415" r="3.9"/><circle class="st3" cx="730.5" cy="417" r="3.9"/><circle class="st3" cx="744.1" cy="418" r="3.9"/><circle class="st3" cx="714.9" cy="436.3" r="3.9"/><circle class="st3" cx="726.7" cy="441.3" r="3.9"/><circle class="st3" cx="739.9" cy="445.1" r="3.9"/><path class="st2" d="m705.7 404.7 48.6 4s-.4 15.6-4 15c-3.6-.6-28.4-4.6-44.7-7.2v6.4s28.5 13.9 44.9 10.2c4 .8.3 17-1.7 17.8-13.4 0-43.3-13.6-43.3-13.6l-2-31.3 2.2-1.3z"/><path class="st0" d="m671.2 399.1-4.4 72 15-.7 3.7-70.7z"/><path class="st0" d="m710.1 400.7-24.6-1-3.7 70.7 26-1.2z"/><circle class="st0" cx="690.7" cy="508.5" r="49.3"/><circle class="st9" cx="690.7" cy="508.5" r="39.2"/><circle class="st0" cx="689.2" cy="481.5" r="8.1"/><circle class="st0" cx="690.2" cy="506.7" r="8.1"/><circle class="st0" cx="690.2" cy="536.9" r="8.1"/><circle class="st0" cx="712.8" cy="491.2" r="8.1"/><circle class="st0" cx="714.1" cy="522.2" r="8.1"/><circle class="st0" cx="665.7" cy="521.1" r="8.1"/><circle class="st0" cx="666.7" cy="491.7" r="8.1"/><circle class="st8" cx="680.6" cy="495.5" r="3.9"/><circle class="st8" cx="680.6" cy="519.2" r="3.9"/><circle class="st8" cx="698.9" cy="519.2" r="3.9"/><circle class="st8" cx="698.9" cy="494.5" r="3.9"/><circle class="st0" cx="599.5" cy="533" r="8.5"/><circle class="st0" cx="595.9" cy="503.1" r="8.5"/><circle class="st0" cx="594.9" cy="475.2" r="8.5"/><circle class="st0" cx="614.3" cy="479.6" r="8.5"/><circle class="st0" cx="754.3" cy="484.9" r="8.5"/><circle class="st0" cx="767.7" cy="499.4" r="8.5"/><circle class="st0" cx="772.1" cy="519.2" r="8.5"/><circle class="st0" cx="771.3" cy="540.2" r="8.5"/><circle class="st0" cx="769.1" cy="557.8" r="8.5"/><circle class="st0" cx="613" cy="498.4" r="8.5"/><circle class="st0" cx="613" cy="511.6" r="8.5"/><circle class="st0" cx="614.3" cy="527.7" r="8.5"/><circle class="st0" cx="621.5" cy="541.5" r="8.5"/><circle class="st0" cx="609.5" cy="554.6" r="8.5"/><path class="st4" d="m683.8 319.3 41.8 11.2 4-17-43-8.8z"/><path class="st11" d="m686.6 304.7 43 8.8 1.3-5.4-43.2-9.2z"/><path class="st4" d="m687.7 298.9 43.2 9.2 1.2-5.6-43.3-9.3z"/><path class="st11" d="m693.2 269.8-4.4 23.4 43.3 9.3 5.6-23.6zM740.1 268.5l-44.9-9.2-.9 4.9 44.8 9.1z"/><path class="st4" d="m694.3 264.2-1.1 5.6 44.5 9.1 1.4-5.6zM745 247.9l-45-14-4.8 25.4 44.9 9.2z"/><path class="st2" d="m700 233.9 45 14-19.4 82.6-41.8-11.2z"/><path class="st4" d="m729.9 185.7-13.8 12s-14.8 1.4 0 12c4.1 2.9 9.8 8.4 16 14.9l18.1-22.2c-11.2-9.3-20.3-16.7-20.3-16.7zM755.4 206.8l-18.6 22.8c1.6 1.7 3.2 3.5 4.7 5.1l19.2-23.5c-1.8-1.5-3.7-3-5.3-4.4z"/><path class="st11" d="M750.1 202.3 732 224.6c1.6 1.6 3.2 3.3 4.7 5l18.6-22.8c-1.7-1.5-3.5-3-5.2-4.5zM760.7 211.2l-19.2 23.5c1.7 1.9 3.5 3.9 5.1 5.7l19.8-24.3c-1.9-1.6-3.8-3.3-5.7-4.9zM790.4 238.5c-.4-1.5-7-7.6-15.7-15.2L754 248.8c9 10.3 15.7 18.5 15.7 18.5s22.1-24.3 20.7-28.8z"/><path class="st4" d="m766.4 216.1-19.8 24.3c2.6 2.9 5 5.6 7.3 8.3l20.7-25.5c-2.4-2.2-5.3-4.7-8.2-7.1z"/><path class="st2" d="M716 209.6c14.8 10.6 53.6 57.6 53.6 57.6s22-24.2 20.7-28.8c-1.3-4.4-60.6-52.7-60.6-52.7l-13.8 12c.1 0-14.7 1.4.1 11.9z"/><path class="st2" d="M721.3 197.7c32.3 25.1 59.6 56.6 59.6 56.6"/><path class="st8" d="m684.7 331.1 20-99.7-15-2-19.6 101.8c1.3-.5 2.2-.8 2.7-.8 1.9.1 7.1.2 11.9.7z"/><path class="st4" d="M686.4 226.2c1.9 8.5 15.5 9.2 23 1.3 2.5-2.7 5.6-8.1 8.6-14.3l-31.6-3.5c-.5 7.1-.7 13.6 0 16.5z"/><path class="st11" d="m729.9 185.7-40.3-5.7s-.8 6.1-1.7 14l36.9 4c3-6.9 5.1-12.3 5.1-12.3z"/><path class="st4" d="m724.8 198.1-36.9-4c-.2 2.2-.5 4.4-.7 6.8l34.8 3.8c1.1-2.3 2-4.5 2.8-6.6z"/><path class="st11" d="M687.2 200.9c-.3 3-.6 5.9-.8 8.8l31.6 3.5c1.4-2.8 2.7-5.6 4-8.5l-34.8-3.8z"/><path class="st2" d="M689.6 180s-5.1 37.6-3.2 46.1c2 8.5 15.5 9.2 23 1.3 7.6-7.9 20.4-41.7 20.4-41.7l-40.2-5.7zM695.1 214.6l-2.4 17.9M704.7 216l-2.4 16"/><ellipse class="st0" cx="563.8" cy="358.7" rx="10.1" ry="12.2"/><ellipse class="st0" cx="588.5" cy="333.3" rx="9.3" ry="12.2"/><ellipse class="st0" cx="605.2" cy="315.4" rx="12.6" ry="8.3"/><path class="st0" d="M563.2 305.9s-3-50.7-12.8-84.7c29.6-8.6 28.4 46.1 28.4 46.1s2-37.2 29.2-46.1c-12.2 35.9-17.8 53.3-16.8 84.7-9 9.4-28 0-28 0z"/><path class="st2" d="M560.3 226.5c13.6 19.8 16.5 73.4 16.5 73.4M556.6 229.4c12 21.7 16 70.4 16 70.4M599.8 232.9c-14.5 30.2-13.8 66.2-13.8 66.2M592.9 237.3c-13.1 32.9-10.9 60-10.9 60"/><path class="st7" d="M555 344.4c-2.7-5.9-3.3-17.8 0-27.7 3.3-9.9 18.8-25 28.6-22.4 9.9 2.7 14.1 13.5 14.1 17.8 0 4.2-5.2 12-11.9 12-6.6 0-8.5-7.2-10.9-4.7-2.4 2.5-7.9 22.7-8.2 25-.5 4.4-9 5.9-11.7 0z"/><path d="m356.2 690.1 11.9 50.4c1.7-.1 3.4-.4 4.8-.8L361.2 690c-2.1 0-3.8.1-5 .1zM350.3 707.3l7.7 32.8c1.7.2 3.5.4 5.2.5L353 696.8l-2.7 10.5zM380.2 735.6c1-1.1 1.9-2.4 2.7-3.8l-9.7-41.5c-1.7-.1-3.5-.2-5.1-.2l11 46.6 1.1-1.1z"/><path class="st3" d="M382 785c2.9-15.5.9-28.4 2.9-32.3s-9.4-4.4-9.4-4.4l-9.9 17.7-9 29.6 21 8.7c1.5-6.1 3.2-13 4.4-19.3z"/><path class="st4" d="m356.6 795.5-3.4 11.2 20.4 12.7s1.9-6.6 4.1-15.2l-21.1-8.7z"/><path class="st2" d="M373.6 819.3s5.4-19 8.3-34.5c2.9-15.5.9-28.4 2.9-32.3s-9.4-4.4-9.4-4.4l-9.9 17.7-12.3 40.8 20.4 12.7z"/><path class="st3" d="M373.6 765.8c0-11.6 8.3-17.5 8.3-17.5l-3.8-5.9c-4.8 8.1-12.7 10.5-16.4 19.5-5 12.2-5.4 24.5-7.1 30.6-.2.6-.4 1.3-.8 1.9l9.2 3.8c5.2-12.3 10.6-26.3 10.6-32.4z"/><path class="st4" d="M353.8 794.3c-.6 1.2-1.4 2.3-2.4 3.3l-6.8 15s5.9 8.2 7.9 6.6c.9-.8 5.7-10.2 10.5-21l-9.2-3.9z"/><path class="st2" d="M361.7 761.8c-5 12.2-5.4 24.5-7.1 30.6-.5 1.9-1.7 3.6-3.2 5.1h0l-6.8 15s5.9 8.2 7.9 6.6c2-1.7 21-41.8 21-53.3 0-11.6 8.3-17.5 8.3-17.5l-3.8-5.9c-4.7 8.1-12.5 10.5-16.3 19.4z"/><path class="st8" d="M408.1 748.7c-4.6-7-20.1-14.1-20.1-14.1h-6.8c-1.2 5.2-3.4 8.7-5.8 11.6 3.9 7 13 22.3 18.9 22.3 7.6 0 18.5-12.8 13.8-19.8z"/><path class="st2" d="m387.6 742.7 11.1 13.6"/><path class="st8" d="M392.2 737.7c-.5-2.6-6.2-4.7-10.5-6-1.2 8.1-4.4 12.5-8 16.1 1.7 2.3 4.3 5.1 6.7 4.7 3.8-.5 12.6-10.7 11.8-14.8z"/><path class="st8" d="M382.9 691.7c-2.8 3.3-4.4 41.2-2.8 43.8 1.8 2.7 10.2 5.7 12.8-.4 2.7-6.1 5.6-38.1 5.6-41.1.2-3-12.9-5.6-15.6-2.3z"/><path class="st0" d="M343.3 693.7c-2 5.2-18.5 81-18.5 85.6 0 4.6 9.9 2.7 11.9-1s20.5-87.6 19.9-90.2c-.8-2.6-11.3.3-13.3 5.6zM514.9 735.4c11.2 17.2-52.7 6.7-59.7 26.8-5 14.2 5.7 20.5 5.7 20.5s6.1-19.3 23.6-21.2c17.5-2 40.2 1 48.4-9 8.2-9.9 0-26.7-6.9-29.6-6.9-3-15.5-.2-15.5-.2s-.9 4.5 4.4 12.7z"/><path class="st2" d="m458.5 771.1 4.3 7.5M463.2 764.2l2.3 9.7M468.1 759.6l1.4 9.4M473.9 756.3l.1 9M480.7 754.8l-.6 7.6M488.3 752.7l-1.3 8.1M495.1 752.2l-2.3 8.4M501.4 752.6l-1.5 8M508.4 751.6l-2 9M514.3 751.5l.4 8.1M520 749.5l2.3 9.4M524.3 747.4l6 7.2M527.4 743.9l9.1 2.2M528.8 737l6.6-1.2M524.3 729.8l6-1.6M520 728.2l3.9-6"/><path class="st6" d="M435.9 695.4s-13.1-3.1-16.9 1.1c-3.7 4.2-3.7 13.6.7 17.4 4.2 3.8 19.6-5.1 19.6-5.1v19s-14.6-2-18.2 3c-3.7 4.9-1.7 13.3 2.7 16.1 4.2 2.8 15.6-4.1 15.6-4.1l8.1-11.1-2.3-28.6-9.3-7.7z"/><path class="st0" d="m461 694.5 1.3 47.6c4.5-.2 8.9-.4 13.1-.7l-2.9-47.5c-3.7.3-7.6.5-11.5.6zM514.9 735.4c-3.1-22.9-3.1-33.9-3.1-44.7-.8.4-5.2.9-12.1 1.5l2.2 46.7c6.9-1 11.5-2.2 13-3.5z"/><path class="st0" d="m474.8 729.8 26.7-1.6-.2-6-26.9 1.7zM474.4 723.9l26.9-1.7-.4-6.9-26.9 1.8z"/><path class="st0" d="m475.1 735.8 26.7-1.7-.3-5.9-26.7 1.6z"/><path class="st0" d="M475.5 741.4c10.3-.6 19.6-1.5 26.6-2.6l-.2-4.8-26.7 1.7.3 5.7zM500.1 697.6l-27.2 1.7.3 5.9 27.2-1.6z"/><path class="st0" d="m473.2 705.2.4 6 27.1-1.8-.3-5.8z"/><path class="st0" d="m474 717.1 26.9-1.8-.2-5.9-27.1 1.8zM499.9 692.2c-7.1.6-16.8 1.2-27.3 1.8l.3 5.3 27.2-1.8-.2-5.3zM438.4 730.9l23.6-.4-.1-4.9-23.8.4z"/><path class="st0" d="m438.1 726 23.8-.4-.2-6.9-24.1.4zM438.9 736.8l23.3-.3-.2-6-23.6.4zM439.3 742.7c7.6-.1 15.4-.2 23.1-.6l-.2-5.6-23.3.4.4 5.8zM461.2 700.9l-24.9.5.4 5.9 24.7-.5z"/><path class="st0" d="m436.7 707.3.5 5.9 24.3-.5-.1-5.9zM461 694.5c-8.4.4-17.1.7-25.1.8l.4 6 24.9-.4-.2-6.4zM437.6 719.1l24.1-.4-.2-6-24.3.5z"/><circle class="st6" cx="593.7" cy="740.4" r="11.8"/><path d="m555.9 820.2 25.2 22.8c2.4-.1 4.7-.2 6.9-.4l-31.3-28.4c-.2 2.1-.5 4-.8 6zM558 805.9l39.6 35.9c2.8-.3 4.4-.5 4.4-.5v-2.2L558.8 800c-.2 1.9-.5 3.9-.8 5.9zM560 792.7l42.2 38.1v-6.6L561 786.8c-.3 1.8-.7 3.8-1 5.9zM602.1 808.3l-29.7-26.9-8.6-1.1L602 815c.1-2.3.1-4.5.1-6.7z"/><path class="st0" d="M554.3 839.3c-2.3 1.3-1.3 9.6 2.7 10.6s97.5-3.4 99.8-4.7c2.3-1.4 1.7-10.7-1.7-10.7-3.3-.2-98.4 3.4-100.8 4.8z"/><path class="st3" d="m605.6 784.3 13.6 16.5h44.6l.2-18.4c-22.9.1-58.4 1.9-58.4 1.9z"/><path class="st4" d="M683.1 783.3c-1-.8-8.8-1-19.1-1l-.2 18.4h19.4c3.5.1 3.2-14.8-.1-17.4z"/><path class="st2" d="M605.6 784.3s74.2-3.7 77.4-1c3.3 2.7 3.7 17.5 0 17.5h-63.9l-13.5-16.5z"/><path class="st4" d="M675.8 798.4c-1.4-.8-5.9-.4-12.1.2l-.2 14c4 .1 7.2.3 9.3.9.9.3 1.8.6 2.6 1 1.2-5.1 3.1-14.5.4-16.1z"/><path class="st3" d="M629.4 797.4c-15.8-5.6-20.1-17.4-20.1-17.4l-8.1 2.5.2.2s4 20.6 20.4 26.2c12.3 4.1 30.1 3.4 41.8 3.7l.2-14c-10.2 1-24.4 2.4-34.4-1.2z"/><path class="st2" d="M675.8 798.4c-3.7-2.2-30.6 4.6-46.4-1-15.8-5.6-20.1-17.4-20.1-17.4l-8.1 2.5.2.2s4 20.6 20.4 26.2c16.5 5.6 42.8 2.3 51.1 4.6.9.3 1.8.6 2.6 1 1.1-5.1 3-14.5.3-16.1z"/><path class="st8" d="M563.4 764.2c2.8 0 6.5 4.9 18 6.2 14.7 1.7 26.3-.7 28.6 2 2.3 2.7 5.1 7.8 2 11.4-3.2 3.5-19.8 8.1-31.9 6.1-12.2-2-20-7.6-20-11.9.1-4.3.6-13.8 3.3-13.8z"/><path class="st2" d="M701.7 354.6c-3.9 1-17.1-2.6-21.1-1-4.1 1.6-4.1 5-1.4 10.3-3.7 2.5-5.4 7.4 0 10.1-5.4 2.6-4.1 9.9-4.1 9.9"/><path class="st8" d="m656.1 403.9 13.6 2.1 10.9-54.1c-3.9 3.4-10.2 8.4-16.7 11.8l-7.8 40.2z"/><path class="st12" d="m614.3 471.1 2.7 4.4M608.7 472.7l4.9 3.7M605.9 478.2l6 .4M606.5 483.2l5.4-1.7M609.5 486.6l3.8-1.7M593.7 467.1l4.8 4M589.8 469.2l5.1 3.5M587.4 473.4l5.5 1.7M588.1 478.6l5.6-1.2M595.9 479.6l-4.7 2.7M591.2 495.5l6.6 2.9M588.1 498.6l6.8 1.2M587.4 503.1l5.5-1.1M592.9 505.2l-4.8 1.8M594.9 508l-2.8 2.7M609.8 490.6l5.7 3.9M606.5 493.5l6.1 2.9M603.4 497l7.2 1.4M605.5 501.5l5.4-.5M608 504.7l6.4 1.4M605 508.5l7.6.8M605.5 513.8l5.4-1.3M607.1 517.7l6.2-2.3M610.6 520.2l4 2M606.5 523.5l5.9 1.3M605.5 529.2l5.8-1.9M608 533l4-2.4M611.9 536.3l3.7-4.5M616.6 534.4l4.4 1.5M614 538.2l4.8-.2M613.3 543.7l4.7-2.2M619.5 544.1l-4 3.4M621.5 546l-2 3.9M605.5 549.9l-4.5 2.4M605.9 553.6l-4 4.2M608 556l-3.6 5.4M610.1 557.8l-1.6 5.3M613.3 558l.5 4.3M600.2 528.3l-5.7-1.7M597.8 530.7l-6.5-.1M597.8 533.8l-6.2 2.2M599.5 536.9l-4.8 4.2M602.2 538l-2.7 3.5M751.6 476.8l-.5 4.7M756.8 476.8l-2.2 5.4M761.4 480.3l-4.6 3.3M762.8 484.7l-5.1 1.5M761.1 489.2l-4.9.5M765.4 491.2l-1.9 4.3M771.3 491.7l-3.6 4.7M775.3 495.5l-4.7 2.7M776.3 500.3l-5 1.2M774.3 504.9l-5.6-.2M772.9 510.7l-3.4 4.1M776.9 512.2l-3.6 3.9M780 517.1l-4.7 1.6M780.4 522.1l-6.1-1M777.6 525.6l-4.3-.3M774.1 532.1l-5 2.9M777.6 535l-5.5 1.9M779.8 539.1l-5.7 1M778.9 543.9l-4.8-.9M776.3 547.1l-4.7-2.2M774.4 551.2l-4.9 1.2M777.6 555.9l-6.3.1M776.9 560.1l-5.3-1.1M773.3 565.7l-2.7-3.4M767.7 566.2l-1-3.9M591.6 368.5l-5.7-.3M590.6 372.3l-6.2.8M591.6 375.1l-5.7 3.5M593.3 377.7l-2.2 4.5M594.1 384.9h-6.5M593.3 388.7l-7.4 1M593.3 391.6l-4.5 3.7M595.9 393.5l-2.6 4.6M598.8 401.7h-6M597.8 404.7l-5.6 3.2M598.8 406.9l-3.8 5.6M602.4 408.7l-2.6 5.4M556.6 355.6l-2.5 6.2M560.3 357.1l-2.8 11.1M563.8 358.2V371M567.1 358.2l3.5 9.6M569.5 355.6l4.3 5.4M582.9 330.5l-3.2 6.8M586.1 332.4l-2.3 10.5M588.8 333.9l.1 11M592.2 333.9l2.8 8.2M593.6 329.9l4.2 5.2M602.4 320.5l7.1 2.7M605.9 317.6l8.4 3.6M610.1 315.7l7.8-.3M614.3 309.7l-5.2 2.7M608.9 307.5l-6.5 3.5M697.6 170.5l3.2 4.1M702 164.9l1.5 6.9M709.4 163.4l-1.5 8.4M714.8 166.2l-3.2 6.3M718.1 171.1l-4.3 4.3M710.8 144.3l-1.4 9.9M704.7 146l1.4 5.8M700.8 149.8l1.9 4.4M716.2 146l-3 5.9M719.4 151.8l-4.6 3.7M710.8 126.1v9.9M701.3 132.8l2.9 4.4M705.4 127.6l.7 7.4M717.2 128l-3 7M720.4 133.6l-4.2 4.8M712.8 108.9v9.1M718.1 110.8l-1.9 6.5M721.2 115.7l-4 4.7M707.4 110.8l2 6.5M704.7 115.7l2.7 3.8M725.6 116.7l6.8-3.3M729 118.1l8.5-1.6M732 120.4h7.1M730.9 123.1l6.6 1.3M726.9 125.7l4.9 1.9M740.7 153.6h-11.4M739.1 148.9l-8.2 1.7M733.9 146l-5.7 2.9M738.8 158.3l-7-1.5M733.2 161.5l-4.2-2M734.5 175.4h-8.9M732 170.5l-5.1 2M726.9 167.6l-3.2 2.9M732.4 179.6l-6.8-1.1M728.2 182.7l-4.5-2.7M677.8 171.8l8.6-.7M679.5 167.6l5.4 1.4M683.8 164.9l4.1 2.7M679.8 176.4l5.1-1.8M687.7 175.6l-3.9 2.9M677.8 149.8h12.3M680.7 145.1l7.2 2.4M686 141.7l5.5 4.3M680.7 154.2l5.7-2.3M690.1 153.7l-5.2 3.1M687.5 119.5h9M688.8 115.1l7.7 2.2M694.4 112.2l4.8 4M695.6 123.1l-5.5 1.3M697.6 124.4l-3.2 2.8M399.9 257.1l15 3.8M403.7 251.3l9.6 5.8M412 249.8l5.4 6.2M400.5 263.2l8.3-.1M405.8 267.1l6.2-.8M384.4 292.9l12.6 3M387.6 288.1l11.1 4.8M395.8 285.6l7.1 5.9M387.6 299.8l8.2-1M391.6 304.5l7.7-1.1M380 323.7l14.3 3M383.8 318.5l10.5 5.2M390.8 316.3l6.2 4.9M381.4 329.9l9.4-1.1M385.1 333.3l6-.9M186.6 283.1l8.1 3.3M181.6 295h11.2M183 288l8.7 3M192.8 301.7l-6.2 3.8M183 301.7l6.7-2.5M156.1 294.6H168M163.5 281.4l7.9 5M157.6 286.4l10.4 3.1M158.4 302.9l7.1-2.5M169.3 302.9l-7.6 3.9M133.9 295.9h12.5M136.1 288.4l9.3 3.2M141.6 283.9l6.9 5.6M136.1 303.3l7.5-2.9M139.8 307.2l7.5-3.6M167.6 260l.4 10.6M172.4 262.6l-2.1 7.5M175.7 268.4l-4.3 7.1M162.5 264.1l3 6.3M160.3 269.4l3.6 6.8M134.9 264.2v9.6M139.3 265.8l-2.1 8.7M142.1 270.5l-2.8 7.7M129.7 267.4l2.5 6.9M127.5 274.5l3.7 4.2M109.5 295.5h10.2M111.1 289.5l8.6 2.1M116 284.7l6.5 3.3M119.3 298.5l-7.2 4.4M123.5 300.6l-6.5 5.6M133.9 317.3v10M130.9 317.7l-1.8 7M130 313.8l-3.8 6.7M137.1 318.1l.7 7.6M138 314.1l2.7 6.2M167.5 318.7l.5 12.1M164.9 320.5l-1.2 8.5M162.8 318.1l-2.5 5.8M170.5 321.7l.9 7.9M172.4 318l2.3 6.5"/></svg>