<svg version="1.1" id="Calque_1" xmlns="http://www.w3.org/2000/svg" x="0" y="0" viewBox="0 0 900 900" style="enable-background:new 0 0 900 900" xml:space="preserve"><style>.st0,.st1,.st2,.st3,.st4,.st5,.st6{fill:#fdce12;stroke:#000;stroke-width:6.3711;stroke-linecap:round;stroke-linejoin:round}.st1,.st2,.st3,.st4,.st5,.st6{fill:none}.st2,.st3,.st4,.st5,.st6{fill:#ffce00}.st3,.st4,.st5,.st6{fill:#005647}.st4,.st5,.st6{fill:#fff}.st5,.st6{fill:red}.st6{fill:#ff9700}.st7{fill:#fff}</style><path class="st0" d="M594.2 829.3s13.4 11.9 19.6 11.9c6.2 0 10-9.1 6.2-14.8 2.4-1.9 11.5-6.7 4.3-18.2 5.7-9.1-1.4-15.3-1.4-15.3s7.2-9.1-5.3-16.7c5.3-11.5-5.3-15.3-5.3-15.3l-15.8-1.4-17.2 4.8 4.3 10.5 11.5 33.4-.9 21.1z"/><path class="st1" d="m617.9 773.8-17.7 3.3M622.8 793l-19.5.5M624.3 808.3l-21-1M620 826.4l-19.1-5.7"/><path class="st2" d="M355.8 835.9s-12.3 13.3-18.6 14c-6.4.7-11.3-7.8-8.1-13.9-2.7-1.6-12.5-5.3-6.6-17.4-6.9-8.3-.4-15.2-.4-15.2s-8.4-8.1 3.4-17.1c-6.8-10.7 3.6-15.7 3.6-15.7l16-3.2 18.2 2.7-3.2 10.8-7.8 34.2 3.5 20.8z"/><path class="st1" d="m325.6 786.4 18.5 1.3M322.2 803.5l20.1-1.8M322.5 818.7l21.4-3.3M329.1 836.1l18.9-7.8"/><path class="st2" d="M363.3 770.3s-23.9 11.2-22.4 35.9c.6 21.4 6.8 30.1 12.9 31.3 6.1 1.2 15.8 1.2 19.2-7.7 1.1-3-9-21.3 5.6-25.8 10.1-3.1 31.8 9 45.9 7 14.1-2 20.6-11.9 15.9-26.1-2.5-8.3-16.6-11.5-16.6-11.5l-53-10.2-7.5 7.1z"/><path class="st0" d="M588.4 765.3s15.3 7.6 16.7 32.5c1.9 21.5-3 30.9-8.8 32.8-5.7 1.9-16 4-20.3-4.7-1.4-2.9 2.4-22.1-7.6-24.5-10-2.4-36 8.3-49.7 10.2-14 1.9-29.9-19.1-7-38.2 2.7-16.3 92.7-38.2 6-5.2l53.5-10 17.2 7.1zM402.2 537.6l-1 117.5s171.1 15.3 171.1 12.4c0-2.9 6.7-141.4 6.7-141.4l-176.8 11.5z"/><path class="st3" d="M654.5 667.6s3.7 42.7-17.8 71.4c-21.5 28.7-57.2 31.7-102.6 35-45.4 3.3-193.7-.6-214.7-2.5-28.7-1.9-44.3-57.8-12.7-74.5 12.9-6.2 24.8-18 24.8-18l78.2-45.7 85.5-11.5 39.2.5 34.4.5 57.1 23.2 26.1 19.8 2.5 1.8z"/><path class="st0" d="m385 439.5-65.1-18.3-22.5-6.1-11.1 26.4 21.6 21 70 28.6z"/><path class="st2" d="m284.3 458 15.4-45.3s16.1-3 21.6 0c5.5 3.1 7.6 19.1-7 21.7-11.1 1.9-19.1-12.7-19.1-12.7l-5.7 21.7s21.8-1.6 24.8 7.6c3.1 6.8-1.6 16.6-10.8 16.6-9.3 0-19.2-9.6-19.2-9.6z"/><path class="st3" d="m258.2 403.2 41.5 9.5-15.4 45.3-44-24.8z"/><path class="st2" d="M258.2 403.2c4.9 4.9-11.4 32.2-17.8 29.9-16.6-5.7-24.2-19.1-24.2-19.1l-28.3-15.6s23.8-38.6 13-44.3c-10.8-5.7-8.7-21.7-3.8-23.6 4.9-1.8 44.2 10.5 51 19.1s-4.7 40.7 10.1 53.6z"/><path class="st2" d="M172 397.3c-2.2-6.7 5.7-10.7 5.7-10.7s-4.1-3.7-4.5-9.8c-.4-6.1 7-12.5 7-12.5s-2.7-10.9 7-13.1c4.8-1.1 12.2 2.8 19.1 4s16.5 3.2 20 5.8c3.5 2.5 1.9 10.2-1.3 12.1 4.1 2.5 5.5 10.6-.6 14 1.9 7 0 12.1-5.1 14 1.9 3.2 2.8 12.9-3.2 12.7-22.8-1-41.9-9.8-44.1-16.5z"/><path class="st4" d="M220.6 345.2c-2.5.6-23.6-5.1-27.6-6.4.3-4.1 1.8-7.5 4-8.3 2.7-1 16.1 2.3 28.5 7-1.7 3.9-2.4 7.1-4.9 7.7zM216.4 357.5c4.2 1 8 2.3 9.9 3.7 3.5 2.5 1.9 10.2-1.3 12.1 4.1 2.5 5.5 10.6-.6 14 1.9 7 0 12.1-5.1 14 1.9 3.2 2.8 12.9-3.2 12.7-2.6-.2-5.2-.4-7.6-.7 8.3-34.3 7-50.9 7.9-55.8z"/><path class="st1" d="m225 373.3-28.1-6.6M224.4 387.3l-32.1-6.3M219.3 401.3l-29.2-7.1"/><path class="st5" d="M421.3 387.9s-27.6 20-51 33.1c-1.3 26.1-34.2 170.4-39.1 199.1-4.9 28.7-14.9 56.9-14.9 56.9s9 1.1 14.2-1.2c5.8 1.9 11.6-.3 11.6-.3s3.9 1 9-.4c9 2.9 12.9-1.2 12.9-1.2s7.1 1 11.6-1.7c7.1 1.5 10.4-2.6 10.4-2.6s6.4 1 11-2.6c9 .6 11-4.5 11-4.5s7.1-.8 7.8-4.1c7.7-.4 9.7-7.3 9.7-7.3s13.9-30 17.2-33.6c3.2-3.7.1-6.9.1-6.9s4.5-1.8 2.6-6c3.9-.9 4-6 4-6s3.9-1.8 4-6c3.9-1.3 3.3-5.1 3.3-5.1s4.5-.9 7.8-3.6c5.8 1 7.1-2.2 7.1-2.2s8.4.1 11-1.7c6.4 2.4 11-.3 11-.3s4.5 1.9 9 1.1c2.5 3.3 7.7 2.4 7.7 2.4s3.8 2.8 7.7 3.3c0 2.3 5.7 3.7 5.7 3.7s1.9 4.7 4.5 6.2c-.1 6 5.1 6.6 5.1 6.6s-.7 4.6 3.1 7.5c-1.4 5.1 3.1 6.5 3.1 6.5s-1.3 4.6 3.1 6.5c-.7 5.5 5 8.9 5 8.9s.6 5.6 6.3 7.5c.6 6.5 9.6 8 9.6 8s2.5 6.1 10.9 7.1c-.1 4.7 12.1 3.9 12.1 3.9s.8 4 11.1 3.6c3.8 4.2 12.1 3.2 12.1 3.2s6.4 2.9 11.6 2c5.8 2.9 13.5 1.6 13.5 1.6s6.4 1 11.6.2c7.7 1.9 13.5-.3 13.5-.3s12.2-.3 15.5-2.6c-36-72.6-43-214.1-49.4-238.9 10.1 15.9-38.9-49.7-38.9-49.7L520 367.5l-64.3 12.1-34.4 8.3z"/><path class="st4" d="M539.3 533.4c-19.7-14.2-73.6-14.6-94.5-4-23.1 11.7-57 64.1-63.1 88.6-6.1 24.5-52.4 12-53.5 16.8-5.1 22.9-12 42.3-12 42.3s9 1.1 14.2-1.2c5.8 1.9 11.6-.3 11.6-.3s3.9 1 9-.4c9 2.9 12.9-1.2 12.9-1.2s5.1 1.8 9.6-.9c7.1 1.5 12.3-3.4 12.3-3.4s6.4 1 11-2.6c9 .6 11-4.5 11-4.5s7.1-.8 7.8-4.1c7.7-.4 9.7-7.3 9.7-7.3s13.9-30 17.2-33.6c3.2-3.7.1-6.9.1-6.9s4.5-1.8 2.6-6c3.9-.9 4-6 4-6s3.9-1.8 4-6c3.9-1.3 3.3-5.1 3.3-5.1s4.5-.9 7.8-3.6c5.8 1 7.1-2.2 7.1-2.2s8.4.1 11-1.7c6.4 2.4 11-.3 11-.3s4.5 1.9 9 1.1c2.5 3.3 7.7 2.4 7.7 2.4s1.8 4.1 7.7 3.3c0 2.3 5.7 3.7 5.7 3.7s-.1 5.6 4.5 6.2c-.1 6 5.1 6.6 5.1 6.6s-.7 4.6 3.1 7.5c-1.4 5.1 3.1 6.5 3.1 6.5s-1.3 4.6 3.1 6.5c-.7 5.5 5 8.9 5 8.9s.6 5.6 6.3 7.5c.6 6.5 9.6 8 9.6 8s2.5 6.1 10.9 7.1c-.1 4.7 12.1 3.9 12.1 3.9s.8 4 11.1 3.6c3.8 4.2 12.1 3.2 12.1 3.2s6.4 2.9 11.6 2c5.8 2.9 11.6 1.5 11.6 1.5s8.3 1.1 13.5.2c7.7 1.9 13.5-.3 13.5-.3s12.2-.3 15.5-2.6c-6.3-11.3-13.2-34.1-18.2-46.5-9.2 1.6-39.4-3.9-55.4-13.4-38.9-28.9-46.4-61.9-62.3-73.3z"/><path class="st1" d="m481.8 562.4.6 17.5M469.7 564.3l1.7 17.3M459 567.3l5.3 16.5M448.3 571.4l8.3 16M440 580l13.3 12.5M433.2 587.2l16.1 11.3M430.2 594.8l15.2 9.6M428.6 602.4l14.1 8M408.7 648.4l7 9.9M400.5 650.4l7.4 12M393.2 655.5l3.7 11.4M384.5 655.7l1.4 13.9M374.3 656.7l-.7 16.3M363.2 656.5l.8 17.4M353.1 656.4l-2 18.7M343.4 656.2l-1.3 19.3M334.7 656.9l-4.2 18.9M586.3 658.7l3.9-17M654.1 650.8l5.6 18.2M643.9 650.8l2.2 18.4M631.3 651l1.3 18.1M620.2 649.8l.8 17.7M609.6 649l-.1 16.5M598.6 645.3l-1.2 17.1M660.2 632.6s-33.7 2-59.3-13.4c-40.1-24.2-47.8-52.2-65-70.1-23.1-24-71.8-15.5-90.5-4.5-23.6 14-53.5 73.3-53.5 73.3M439 618.9l-14.3-10.3M349.3 220.4l10.8-26.8"/><circle class="st2" cx="394.5" cy="448.5" r="17.2"/><circle class="st2" cx="420" cy="506.4" r="17.2"/><circle class="st2" cx="545.5" cy="524.9" r="17.2"/><circle class="st2" cx="594.6" cy="484.8" r="17.2"/><circle class="st2" cx="609.2" cy="426.8" r="17.2"/><path class="st3" d="M408.2 409c-6.7 52.2 7.3 104.5 91.4 104.5s93-61.2 91.7-100-31.9-37-31.9-37l-72-11.5c.1 0-72.5-8.3-79.2 44z"/><path class="st2" d="M471.6 389.8s-95.2 32.7-113.7 32.7-29.6-16.5-25.2-23.8c7-11.5 8.3-21 5.7-31.2-3.8-.6-7.6-.4-10.2-1.7-2.5-1.3 9.6-21.9 9.6-21.9s-18.2.2-24.5-3-9.6-4.5-10.2-12.1c.6-14 42.4-56.3 42.4-56.3s-1.3-4.5 0-14.7 13.1-32.9 13.1-32.9l61.8 2.5 59.9 17.2 26.1 34.4 1.3 93.7-36.1 17.1z"/><path class="st1" d="M337.8 344c22.9 1.6 22.3-15.9 12.7-21M338.4 367.5l26.2-.1h9.8"/><path class="st4" d="M364.6 367.4h9.9c5.1.6 14.3 9 11.1 16.1s-17.1 10.7-21.7 3.8c-5.1-7.7.7-19.9.7-19.9z"/><path class="st6" d="M676.1 110.8c22.3 16.7 33.3 81.6 41.2 134.4 5.7 37.8 11.5 69.3 11 72.7-1.3 7.9-15.9 12.7-21.7 6.4-4.6-5.3-24.6-157.9-31.1-169.6-6.5-11.7-23.7-25.6-23.7-25.6l-6.8-17.4c-.1.1 13.3-14.3 31.1-.9z"/><path class="st6" d="M585.7 130.3c6.4-.4 21.1-21.7 53.2-16.2 8.5 2.4 29.6 11.9 38.5 32.3 8.9 20.4 8.2 167.9 7 175.2-1.2 7.3-16.6 6.4-19.1 0-2.9-7.4 0-148.4-5.4-163-5.4-14.7-32.8-23.7-32.8-23.7l-36.2 15.5-15.5-12.4 13.1-21-2.8 13.3z"/><path class="st6" d="M601 143.4s16-8.4 26-8.4c14.7 0 28 11.5 31.9 25.5 8.3 24.5-9.4 152.9-14 161.2-4.6 8.3-18.8 6.3-19.1.6-.4-5.7 15.6-138.3 14.3-147.2-1.3-8.9-6.7-17.8-13.7-19.8-5.2-1.4-19.1 7-19.1 7l-6.3-18.9z"/><path class="st2" d="M584.4 134.4s19.1-20.4 42.7-22.3c19.5-1.6 49.1.6 48.4-35-2.4-17.3-18.2-28.9-31.9-26.8-24.2 3.8-24.2 29.9-10.2 37-5.1 0-35.7 1.4-60.8 32.8s11.8 14.3 11.8 14.3z"/><path class="st1" d="M646.2 72.6c10.8 11.5-3.8 16.6-12.7 14.7"/><path class="st2" d="M574.2 208.9s44.7-16.2 50.7-25.9-4.3-21.3-12.3-21.4c4.7-11.1-12.9-26.4-21.9-26.6 0-13.4-16.7-19.1-28-16.6-1.9-15.9-20.2-20.6-26.1-15.9s-19.8 52.2-19.8 52.2l57.4 54.2z"/><path class="st1" d="m612.6 161.6-48 27.2M590.7 135l-37.4 40.1M562.7 118.4l-25.5 44.7"/><path class="st3" d="M544.2 226.8c16.8 7.7 35.5-8 32.1-22.9-3.4-15-47.1-53.2-61.4-53.6-24.8-.6-20.4 28.7-20.4 28.7s32.9 40.1 49.7 47.8z"/><path class="st4" d="M338.4 219.7s138.3 33.1 143.3 50c1.3 10.2-7.6 63.4-7.6 63.4l71.4 9.6s15.3-98.8 5.1-116.6c-8.9-14-17.2-29.9-48.4-44.6-31.2-14.7-101.3-28-125.5-12.1-24.2 15.9-38.3 50.3-38.3 50.3z"/><path class="st1" d="m430.8 243.9 26.1-75.5M420 242l27.4-75.8M411.7 238.8l26.1-74.5M403.4 236.9l25.5-73.2M395.8 235l24.2-71.3M388.8 230.6l22.9-68.2M378.6 229.3l22.3-65.6M367.7 226l22-60.2M357.6 222.3l16.5-42.7M439.7 247.1l27.4-77.7M448.7 249l28-77.1M455.7 253.5l29.3-78.4M466.5 256.7l28-77.7M474.8 261.8l27.4-80.3M516.8 321.7l18.5-117.3M524.5 327.4 543.6 214M534.7 333.1 550 224.2M434 291.1c-2.5 4.5-31.2 17.8-48.4 15.9-29.9-5.7-19.4-27.8-16.2-30.4s59.5 11.3 64.6 14.5z"/><path class="st7" d="M434 291.1c-2.5 4.5-31.2 17.8-48.4 15.9-29.9-5.7-19.4-27.8-16.2-30.4s59.5 11.3 64.6 14.5z"/><path d="M413.9 302c10.3-3.8 18.8-8.5 20.1-10.9-1.8-1.1-10.5-3.7-20.9-6.4l.8 17.3z" style="fill:red"/><path class="st1" d="M400.2 282.8s1 9.6-7 9.6c-10.2 0-5.7-12.7-5.7-12.7"/><path class="st1" d="M434 291.1c-2.5 4.5-31.2 17.8-48.4 15.9-29.9-5.7-19.4-27.8-16.2-30.4s59.5 11.3 64.6 14.5z"/><path class="st5" d="M372.6 172.3c-12 9.3-21.2 22.9-27 33.1 19 4.1 154.1 42.3 207.6 69.8 1-14.6 1.3-28.5.2-38.2-.5-4.8-179.5-65.7-180.8-64.7z"/><path class="st4" d="M527 196.8c-6.2-5.2-14.2-10.3-24.8-15.3 0 0-21 74.5-28.7 153.5-.6 27.4 29.3-14.7 29.3-14.7s23-115.9 24.2-123.5z"/><path class="st1" d="M490.1 322.5c4.8-42 24.8-133.8 24.8-133.8"/><path class="st4" d="M472.2 393s-13.7 151-11.1 158.6 18.8 9.6 21.3 0 14.7-142.1 15.9-145.3c1.3 8.9 10.8 140.2 21.7 147.2 6.4 3.2 12.1 1.9 15.9-4.5 3.8-6.4-10.8-142.1-10.8-148.4s-36.3-8.9-36.3-8.9l-16.6 1.3z"/><path class="st1" d="M485 401.3c-2.5 3.8-12.7 147.2-12.7 147.2M510.5 405.8l17.8 139.5"/><path class="st2" d="M565.9 404.5c8.6-4.8 10.8-35 14.7-41.4 0 0 51.4 12.6 101.9 20.8-3.4 20.8-18.9 63.1-18.9 63.1l-97.7-42.5z"/><path class="st5" d="m627.8 431.4-61.9-26.9c8.6-4.8 10.8-35 14.7-41.4 0 0 25.7 6.3 58.6 12.9l-11.4 55.4z"/><path class="st1" d="m673.6 415.3-100.1-30.6"/><path class="st5" d="M550 354.3c8.9-6.8 24.8-5.5 31.9 5.5 7 11-2.5 41.9-11.5 46-12.1 4.1-26.1 1.4-29.3-13.7s-.1-30.9 8.9-37.8z"/><ellipse class="st3" cx="504.7" cy="363.7" rx="46.6" ry="45.2"/><circle class="st5" cx="504.7" cy="363.7" r="14"/><path class="st4" d="m306 140.1-28.1-9.6-5.7 33.2 33.1 2.5z"/><path class="st5" d="m306 140.1-14-4.8-4.5 29.5 17.8 1.4z"/><path class="st1" d="m307.2 149.6-30.6-2.5"/><path class="st6" d="M369.7 152.2s32.7-23.1 35.7-29.9c2.9-6.8-5-20.9-19.1-19.1-1.8-13.5-15.3-22.9-28.7-15.3-4.7-7.3-15.3-12.7-29.3-3.8-1.9 1.3 0 18.5-4.5 49.1 8.9 1.3 7.6 13.2 7.6 13.2l38.3 5.8z"/><path class="st1" d="m374.1 117.2 12.1-14.1M353.1 106.3l4.5-18.5"/><path class="st3" d="M317.9 148c-.7 12.6 7.8 25 23.4 25.9 15.6.9 29.5-8.4 30.2-21.1.7-12.6-6.4-26.1-25.5-28.7-15.4-2-27.4 11.3-28.1 23.9z"/><path class="st6" d="M367.1 164.3c17.2 3.8 19.4 13.6 14.7 30.6s-27.4 16.6-36.3 7.6c-8-6.2-1.9-11-1.9-11l3.3-25.3s11.9-3.7 20.2-1.9z"/><path class="st2" d="M349.9 169c19.1 4.9 8.2 36.2-4.5 33.6-9.6-.5-31.2-3-35-2.5 1 5.8-.3 18.8-18.7 17.1-21-1.5-21.1-33.4-6.1-39.6 8.5-4 12.8-4.7 19-2.4-2.3-4-5.1-5.6-6.4-14.7-1.3-9 6.3-37.7 5.7-40.8-2.3 6.2-17.2 6.1-22.9-5.1s1.8-25.4 11.5-27.4 18.7-.4 25.5 3.2c6.8 3.6 10 14.1 8.9 22.9-1.1 8.9-4.8 38.4.6 43.2 5.6 4.8 7.3 9 22.4 12.5z"/><path class="st1" d="M310.4 200c-1.3-7.6-14-7-16.6-.6M304 119.7c6.4-9.6-1.1-16.3-5.1-14"/><circle class="st4" cx="340" cy="158.3" r="15.3"/><circle class="st1" cx="339.9" cy="158.3" r="5.1"/><path class="st2" d="M509.6 567.7c2.2-.4 3.5-1.5 3.5-1.5s3.7 2.1 7.5 1.1c2.1 3.7 6.4 2.7 6.4 2.7s1.6 4.7 6.4 3.7c0 2.7 4.7 4.2 4.7 4.2s0 6.4 3.8 7c0 6.9 4.3 7.5 4.3 7.5s-.5 5.4 2.7 8.5c-1.1 5.9 2.7 7.5 2.7 7.5s-.7 3.7 1.2 6.2c.4.5 8.7 19 4.3 20.6-4.4 1.6-105.8 5.7-105.8 5.7L439.1 630l3.8-22.3s73.5-22.5 77.1-24.8c3.6-2.4-11.9-15-10.4-15.2z"/><path class="st2" d="m449.9 646-8.3-41.4s20.7-8.3 25.5-8.3c4.8 0 7 7.9 3.8 15.9s-27.4 4.5-27.4 4.5l2.5 16.6s22.3-3.8 26.1-2.5c9.5 3.2 7.9 18.6 1.9 21-5.8 2.3-24.1-5.8-24.1-5.8zM403.4 614.7s-40.7-.5-51.9 4.3c-11.2 4.8-27.2 12.9-28.4 16.1-1.2 3.2 2.5 7.7 4.5 8.9-10.2 3.2-17.8-4.7-23.4-3.9s-7.7 12.7-5.3 14.7c-8.9 3.8-9.6 12.7-1.9 16.6-3.8 5.1-1.3 14 7.6 14.7-2 2.8 1.2 10.1 4.5 12.1 3.2 2 40.1-3.8 61.8-25.5 16.6-16.6 36.3-24.6 36.3-24.6l-3.8-33.4z"/><path class="st1" d="M366.5 634.5c-7.1 5.1-20.5 11.2-24.2 11.8-8.9 1.3-13.4-1.5-14.7-2.2"/><path class="st4" d="M311.2 641.8c-2.6-1.1-4.9-1.9-6.9-1.6-5.6.8-7.7 12.7-5.3 14.7-8.9 3.8-9.6 12.7-1.9 16.6-3.8 5.1-1.3 14 7.6 14.7-2 2.8 1.2 10.1 4.5 12.1 1 .6 5 .5 10.7-.5-18.4-28.9-14.6-42.3-8.7-56z"/><path class="st1" d="M335.9 667c-8.9 3.8-27.4 4.5-38.9 4.5M339.7 677.8c-8.9 3.8-23.6 8.3-35 8.3M333.3 656.8c-5.6.8-26.8.6-34.4-1.9"/><path class="st4" d="M345 622c-10 4.7-20.8 10.5-21.8 13.1-.9 2.3.7 5.2 2.4 7.1.7.8 19.9-7.1 21.8-10.3 1.9-3.1.6-9.5-2.4-9.9z"/><path class="st3" d="M449.9 646c.6-22.9-8.3-41.4-8.3-41.4l-38.2 10.2 3.8 33.4 42.7-2.2z"/><path class="st7" d="M574.2 654.8c-8.3-1.1-10.9-7.1-10.9-7.1s-9-1.5-9.6-8c-5.8-1.9-6.3-7.5-6.3-7.5s-5.8-3.3-5-8.9c-4.5-1.9-3.1-6.5-3.1-6.5s-4.5-1.5-3.1-6.5c-3.8-2.8-3.1-7.5-3.1-7.5s-5.2-.5-5.1-6.6c-4.6-.6-4.5-6.2-4.5-6.2s-5.7-1.4-5.7-3.7c-5.9.8-7.7-3.3-7.7-3.3s-5.2.9-7.7-2.4c-4.5.9-9-1.1-9-1.1l7.7-24.7 35.4 9.1 38.2 48.7-.5 42.2z"/><path class="st1" d="m525.7 570.3-7.9 16.1M515.6 567l-5.5 16M504.5 564.1l-2.1 16.5M494.3 562.6l-.9 17M574.2 654.8l7.6-16.6M563.3 647.7l11.3-15.2M553.8 639.7l15.1-12.9M547.4 632.2l16.7-12.4M542.4 623.3l17-10.5M539.3 616.8l15.3-11.4M536.1 610.3l15.3-12.6M533 602.8l12.7-13.1M528 596.3l13.4-14M523.5 590.1l11.2-13.8M574.2 654.8c-8.3-1.1-10.9-7.1-10.9-7.1s-9-1.5-9.6-8c-5.8-1.9-6.3-7.5-6.3-7.5s-5.8-3.3-5-8.9c-4.5-1.9-3.1-6.5-3.1-6.5s-4.5-1.5-3.1-6.5c-3.8-2.8-3.1-7.5-3.1-7.5s-5.2-.5-5.1-6.6c-4.6-.6-4.5-6.2-4.5-6.2s-5.7-1.4-5.7-3.7c-5.9.8-7.7-3.3-7.7-3.3s-5.2.9-7.7-2.4c-4.5.9-9-1.1-9-1.1"/></svg>