<svg version="1.1" id="Calque_1" xmlns="http://www.w3.org/2000/svg" x="0" y="0" viewBox="0 0 900 900" style="enable-background:new 0 0 900 900" xml:space="preserve"><style>.st0,.st1,.st2,.st3,.st4,.st6{fill:#ffce00;stroke:#000;stroke-width:6.2605;stroke-linecap:round;stroke-linejoin:round}.st1,.st2,.st3,.st4,.st6{fill:#fff}.st2,.st3,.st4,.st6{fill:none}.st3,.st4,.st6{fill:#005647}.st4,.st6{fill:#fdce12}.st6{fill:#ff9700}.st7{fill:none}.st8{fill:red;stroke:#000;stroke-width:6.2605;stroke-linecap:round;stroke-linejoin:round}</style><path class="st0" d="m506.7 443.1 88.9-24.4 30.1-5.7 11.3 27-27 16.9-82.6 35.6z"/><path class="st0" d="m635.7 449.3-17.5-41.9s-15-3.1-20.7 0c-5.6 3.1-6.9 18.8 4.4 20.7 11.3 1.9 22.5-13.1 22.5-13.1l10 21.3s-24.4-1.3-27.5 8.1c-3.1 6.9.6 18.2 10 18.2 9.4-.1 18.8-13.3 18.8-13.3zM662.6 393c-5 5 7.8 31.9 14.7 32.6 6.9.6 28.5-19.4 28.5-19.4l31.3-10-2.5-50.1s3.1-15.7-1.9-17.5c-5-1.9-46.3 1.9-53.2 10.6-6.9 8.7-1.9 40.7-16.9 53.8z"/><path class="st1" d="M709.5 329.5c10.8-1.5 20.9-1.8 23.2-.9 2.8 1 3 6.2 2.8 10.7-9.6 0-22.2 1.2-24.7 0s-2.2-9.7-1.3-9.8z"/><path class="st0" d="M752.8 395.5c2.5-6.9-5.6-11.3-5.6-11.3s4.4-3.8 5-10c.6-6.3-6.9-13.1-6.9-13.1s3.1-11.3-6.9-13.8c-5-1.3-12.8 2.5-20 3.6-7.2 1.1-12.5.2-16.3 2.7-3.8 2.5-3.8 6.3-1.3 11.3-4.4 2.5-6.9 11.3-.6 15-5 3.8-1.9 11.3 1.9 15-5.6 2.5-3.8 13.8 2.5 13.8 23.8-.7 45.7-6.3 48.2-13.2z"/><path class="st1" d="M714 408.2c-3.1.3-6.2.4-9.4.5-6.3 0-8.1-11.3-2.5-13.8-3.8-3.8-6.9-11.3-1.9-15-6.3-3.8-3.8-12.5.6-15-2.5-5-2.5-8.8 1.3-11.3 2.4-1.6 5.5-1.8 9.3-2 2.1-.2-1.2 22.6 2.6 56.6z"/><path class="st2" d="m700.8 364.8 26.9-1.8M700.2 379.9l31.9-1.9M702.1 394.9l31.9-3.1"/><path class="st3" d="m661.4 393.6-43.2 13.8 17.5 41.9 41.3-23.1z"/><path class="st4" d="M532.2 835.9s12.1 13.4 18.3 14.1c6.3.7 11.1-7.8 8-13.9 2.6-1.6 12.3-5.3 6.4-17.4 6.8-8.3.3-15.2.3-15.2s8.3-8.1-3.4-17.1c6.6-10.7-3.5-15.7-3.5-15.7l-15.7-3.3-17.8 2.7 3.1 10.9 7.7 34.3-3.4 20.6z"/><path class="st2" d="m561.8 786.3-18.2 1.2M565.2 803.4l-19.8-1.8M564.9 818.7l-21.1-3.5M558.5 836.1l-18.6-7.9"/><path class="st4" d="M533.7 772s14.5 9.3 13.1 34c-.5 21.4-6.6 30.1-12.6 31.4-6 1.2-15.6 1.2-18.9-7.8-1.1-3 8.1-23.4-1.8-27-9.8-3.5-36.8 6.2-50.7 4.2-13.9-2.1-18.2-15-13.6-29.3 2.4-8.3 13-10.9 13-10.9l55-3.7 16.5 9.1zM297.1 826.3S284 838 277.8 838s-9.9-8.9-6.1-14.6c-2.3-1.9-11.3-6.6-4.2-17.8-5.6-8.9 1.4-15 1.4-15s-7-8.9 5.2-16.4c-5.2-11.3 5.2-15 5.2-15l15.5-1.4 16.9 4.7-4.2 10.3-11.3 32.9.9 20.6z"/><path class="st2" d="m274.1 774.1 17.3 3.3M268.9 790.6l19.2.4M267.5 805.6l20.6-.9M271.7 823.4l18.8-5.6"/><path class="st4" d="M302.7 763.3s-15 7.5-16.4 31.9c-1.9 21.1 3 30.4 8.6 32.2s14.9 3 19.1-5.5c1.4-2.8-5.2-23.9 4.7-26.3s34.7 10.3 48.4 9.9c13.6-.5 19.3-12.7 16.4-27.2-1.4-8.5-11.3-12.2-11.3-12.2l-52.6-9.9-16.9 7.1z"/><path class="st0" d="m315.7 495.6-6.6 150.3 170 5.6 15-159.6-179.4 1.8"/><path d="M234.1 660.5s-7.5 49.8 13.6 77.9 52.9 23.8 97.5 27.1c44.6 3.3 211 11.4 231.6 9.5 28.2-1.9 43.2-69 12.2-85.5-12.7-6.1-33.5-8.6-33.5-8.6L478.7 636l-84-11.3-38.5.5-33.8.5-70 8.9-18.3 23.9v2z" style="fill:#871600;stroke:#000;stroke-width:6.2605;stroke-linecap:round;stroke-linejoin:round"/><path class="st6" d="M242.5 98.8c-13.1 4.4-95.8 145.9-95.8 154s8.8 10 15.7 9.4c6.9-.6 60.7-102.7 68.9-113.3 8.1-10.6 33.2-26.9 33.2-26.9l9.4-16.3c-.1-.1-18.2-11.3-31.4-6.9z"/><path class="st3" d="M444.8 417.4s41.9 6.9 64.5 25C538 465 537.4 565.2 541.8 604s13.8 77 13.8 77-8.8 1.3-13.8-1.9c-5.6 2.5-11.3-.6-11.3-.6s-3.8 1.3-8.8-.6c-8.8 3.8-12.5-1.9-12.5-1.9s-6.9 1.3-11.3-2.5c-6.9 1.9-10-3.8-10-3.8s-6.3 1.3-10.6-3.8c-8.8.6-10.6-6.3-10.6-6.3s-6.9-1.3-7.5-5.6c-7.5-.6-9.4-10-9.4-10s-13.1-40.7-16.3-45.7 0-9.4 0-9.4-4.4-2.5-2.5-8.1c-3.8-1.3-3.8-8.1-3.8-8.1s-3.8-2.5-3.8-8.1c-3.8-1.9-3.1-6.9-3.1-6.9s-4.4-1.3-7.5-5c-5.6 1.3-6.9-3.1-6.9-3.1s-8.1 0-10.6-2.5c-6.3 3.1-10.6-.6-10.6-.6s-4.4 2.5-8.8 1.3c-2.5 4.4-7.5 3.1-7.5 3.1s-3.8 3.8-7.5 4.4c0 3.1-5.6 4.9-5.6 4.9s-1.9 6.4-4.4 8.3c0 8.1-5 8.8-5 8.8s.6 6.3-3.1 10c1.3 6.9-3.1 8.8-3.1 8.8s1.3 6.3-3.1 8.8c.6 7.5-5 11.9-5 11.9s-.6 7.5-6.3 10c-.6 8.8-9.4 10.6-9.4 10.6s-2.5 8.1-10.6 9.4c0 6.3-11.8 5-11.8 5s-.8 5.3-10.8 4.7c-3.8 5.6-11.8 4-11.8 4s-6.3 3.8-11.3 2.5c-5.6 3.8-13.1 1.9-13.1 1.9s-6.3 1.3-11.3 0c-7.5 2.5-13.1-.6-13.1-.6s-11.9-.6-15-3.8c35.7-86.4 48.8-210.4 58.8-231.6 10-21.3 40.1-35.7 40.1-35.7l68.2-15.7 69.5 21.3 1.1 18.6z"/><path class="st1" d="M338.3 505.1c21-14.9 87.3-12.5 111.1 9.4 23.8 21.9 35.4 54.5 41 87.6s50.1-8.5 51.3 1.9c4.4 38.8 13.8 77 13.8 77s-8.8 1.3-13.8-1.9c-5.6 2.5-11.3-.6-11.3-.6s-3.8 1.3-8.8-.6c-8.8 3.8-12.5-1.9-12.5-1.9s-5 2.4-9.4-1.4c-6.9 1.9-11.9-4.9-11.9-4.9s-6.3 1.3-10.6-3.8c-8.8.6-10.6-6.3-10.6-6.3s-6.9-1.3-7.5-5.6c-7.5-.6-9.4-10-9.4-10s-13.1-40.7-16.3-45.7 0-9.4 0-9.4-4.4-2.5-2.5-8.1c-3.8-1.3-3.8-8.1-3.8-8.1s-3.8-2.5-3.8-8.1c-3.8-1.9-3.1-6.9-3.1-6.9s-4.4-1.3-7.5-5c-5.6 1.3-6.9-3.1-6.9-3.1s-8.1 0-10.6-2.5c-6.3 3.1-10.6-.6-10.6-.6s-4.4 2.5-8.8 1.3c-2.5 4.4-7.5 3.1-7.5 3.1s-1.8 5.5-7.5 4.4c0 3.1-5.6 4.9-5.6 4.9s0 7.5-4.4 8.3c0 8.1-5 8.8-5 8.8s.6 6.3-3.1 10c1.3 6.9-3.1 8.8-3.1 8.8s1.3 6.3-3.1 8.8c.6 7.5-5 11.9-5 11.9s-.6 7.5-6.3 10c-.6 8.8-9.4 10.6-9.4 10.6s-2.5 8.1-10.6 9.4c0 6.3-11.8 5-11.8 5s-.8 5.3-10.8 4.7c-3.8 5.6-11.8 4-11.8 4s-6.3 3.8-11.3 2.5c-5.6 3.8-11.3 1.9-11.3 1.9s-8.1 1.3-13.1 0c-7.5 2.5-13.1-.6-13.1-.6s-11.9-.6-15-3.8c6.3-15.1 11.8-31.4 16.8-48 8.9 2.3 31.7 3.9 47.4-8.6 23-18.4 25.8-69.4 67.1-98.8z"/><path class="st2" d="M220 622.8s30.7 6.9 57-10 30.1-73.9 69.5-97.7c30.1-18.8 83.3-5.6 100.2 11.9 16.9 17.5 25.7 65.7 25.7 65.7M453.5 295.3c2.5 4.4 33.8 21.9 46.3 21.3 29.4-5.6 17.5-26.3 14.4-28.8-3.1-2.5-55.7 4.4-60.7 7.5z"/><path class="st7" d="m353.4 533.3 7.5 21.8M363.3 529l5.1 21.8M374.1 525.3l1.8 22.3M383.9 523.4l.8 23M396.1 523.4l-.8 23.6M407.9 526.2l-2 23.3M418.2 530.5l-5.4 22.1M428.5 536.1l-8.2 21.6M436.5 547.8l-13 16.7M443.1 557.7l-15.9 15M445.9 568 431 580.8M447.3 578.3 433.5 589M466.1 640.8l-6.9 13.3M474.1 643.6l-7.4 16.1M481.1 650.7l-3.8 15.3M489.5 651.1l-1.6 18.6M499.4 652.5l.5 22.1M510.2 652.5l-1 23.5M520.1 652.5l1.7 25.4M529.5 652.5l1 26M537.9 653.5l3.9 25.6M293.3 651.6l-3.6-23M305.1 646.6l-7.1-22.7M315.8 637.2 305 616.4M325.2 626.5l-14.5-17.6M331.4 616.5l-16-17M336.4 604.6l-16.3-14.5M339.6 595.8l-14.8-15.6M342.7 587.1l-14.6-17.2M345.8 577.1l-12.1-18M350.8 568.3l-12.9-19.1M355.3 560l-10.8-18.7M227.5 639.7l-5.6 24.4M237.4 639.9l-2.4 24.8M249.6 640.3l-1.4 24.4M260.4 638.9l-1 23.9M270.8 638l-.1 22.3M281.6 633.3l.9 23M437 600.4l14.1-13.6"/><path class="st2" d="m353.4 533.3 7.5 21.8M363.3 529l5.1 21.8M374.1 525.3l1.8 22.3M383.9 523.4l.8 23M396.1 523.4l-.8 23.6M407.9 526.2l-2 23.3M418.2 530.5l-5.4 22.1M428.5 536.1l-8.2 21.6M436.5 547.8l-13 16.7M443.1 557.7l-15.9 15M445.9 568 431 580.8M447.3 578.3 433.5 589M466.1 640.8l-6.9 13.3M474.1 643.6l-7.4 16.1M481.1 650.7l-3.8 15.3M489.5 651.1l-1.6 18.6M499.4 652.5l.5 22.1M510.2 652.5l-1 23.5M520.1 652.5l1.7 25.4M529.5 652.5l1 26M537.9 653.5l3.9 25.6M293.3 651.6l-3.6-23M305.1 646.6l-7.1-22.7M315.8 637.2 305 616.4M325.2 626.5l-14.5-17.6M331.4 616.5l-16-17M336.4 604.6l-16.3-14.5M339.6 595.8l-14.8-15.6M342.7 587.1l-14.6-17.2M345.8 577.1l-12.1-18M350.8 568.3l-12.9-19.1M355.3 560l-10.8-18.7M227.5 639.7l-5.6 24.4M237.4 639.9l-2.4 24.8M249.6 640.3l-1.4 24.4M260.4 638.9l-1 23.9M270.8 638l-.1 22.3M281.6 633.3l.9 23M437 600.4l14.1-13.6M353.4 533.3l7.5 21.8M363.3 529l5.1 21.8M374.1 525.3l1.8 22.3M383.9 523.4l.8 23M396.1 523.4l-.8 23.6M407.9 526.2l-2 23.3M418.2 530.5l-5.4 22.1M428.5 536.1l-8.2 21.6M436.5 547.8l-13 16.7M443.1 557.7l-15.9 15M445.9 568 431 580.8M447.3 578.3 433.5 589M466.1 640.8l-6.9 13.3M474.1 643.6l-7.4 16.1M481.1 650.7l-3.8 15.3M489.5 651.1l-1.6 18.6M499.4 652.5l.5 22.1M510.2 652.5l-1 23.5M520.1 652.5l1.7 25.4M529.5 652.5l1 26M537.9 653.5l3.9 25.6M293.3 651.6l-3.6-23M305.1 646.6l-7.1-22.7M315.8 637.2 305 616.4M325.2 626.5l-14.5-17.6M331.4 616.5l-16-17M336.4 604.6l-16.3-14.5M339.6 595.8l-14.8-15.6M342.7 587.1l-14.6-17.2M345.8 577.1l-12.1-18M350.8 568.3l-12.9-19.1M355.3 560l-10.8-18.7M227.5 639.7l-5.6 24.4M237.4 639.9l-2.4 24.8M249.6 640.3l-1.4 24.4M260.4 638.9l-1 23.9M270.8 638l-.1 22.3M281.6 633.3l.9 23M437 600.4l14.1-13.6"/><path class="st0" d="M388.7 548.1c-2.5-.4-4.1-1.8-4.1-1.8s-4.4 2.5-8.8 1.3c-2.5 4.4-7.5 3.1-7.5 3.1s-1.8 5.5-7.5 4.4c0 3.1-5.6 4.9-5.6 4.9s0 7.5-4.4 8.3c0 8.1-5 8.8-5 8.8s.6 6.3-3.1 10c1.3 6.9-3.1 8.8-3.1 8.8s.9 4.4-1.4 7.2c-.4.6 29.3 39.6 34.5 41.4 5.2 1.9 90.2-3.3 90.2-3.3l26.8.5.5-43.2s-76.5-2-80.8-4.9c-4.3-2.7-18.9-45.2-20.7-45.5z"/><path class="st0" d="m489.5 641.7.5-43.2s-12.2-8.9-17.8-8.9-12.7 8-8.9 17.4c3.8 9.4 29.1 6.1 29.1 6.1v15s-23.5-2.8-29.1 1.9c-5.6 4.7-2.3 16.4 4.7 19.3 7 2.8 21.5-7.6 21.5-7.6zM539.8 602.8s21.1 0 34.3 5.6 35.2 22.5 36.6 26.3c1.4 3.8-3.8 6.1-6.1 7.5 10.3 0 17.8-3.8 24.4-2.8 6.6.9 4.7 8.9 1.9 11.3 6.1 2.3 6.6 8.9.5 16.4 6.1 2.3 4.7 8.5 0 13.6 2.3 3.3 1.9 8.5-1.9 10.8-3.8 2.3-17.4 2.3-33.3-1.9S536 646 537 621.1c.5-16.9-2.8-13.6-2.8-13.6l5.6-4.7z"/><path class="st1" d="M616.3 640.8c4.8-1 9-2 12.8-1.5 6.6.9 4.7 8.9 1.9 11.3 6.1 2.3 6.6 8.9.5 16.4 6.1 2.3 4.7 8.5 0 13.6 2.3 3.3 1.9 8.5-1.9 10.8-1.8 1.1-5.8 1.7-11.3 1.6 0 0 2.8-8.1 3.3-25.5s-5.3-26.7-5.3-26.7z"/><path class="st2" d="M595.7 677.4c6.1 2.3 26.3 5.2 35.7 3.3M598.5 667.6c6.1 2.3 25.4 1.9 32.9-.5M599.4 655.8c6.6.9 23.5.9 31.5-5.2"/><path class="st1" d="M594.6 620.6c8.3 5.9 15.3 12 16.1 14.1 1.2 3.1-2.1 5.2-4.6 6.7-.5.3-12.3-7.1-16-11.8-2.9-2.4.4-7.6 4.5-9z"/><path class="st2" d="M565.6 624.4c8.3 5.9 23 16.9 27.2 18.3 4.2 1.4 11.7-.5 13.2-1.3"/><path class="st3" d="m489.5 641.7.5-43.2 49.8 4.3-7.1 40.3z"/><path class="st0" d="M399.1 414.9s33.8 10.6 47.6 5.6c4.4-3.8 6.9-11.9 6.9-11.9s53.8 22.5 72 22.5c18.2 0 24.7-7.8 25.4-19.1s-6.6-17.5-7.8-36.3c3.8-.6 9.1.9 11.6-.3 2.5-1.3-4.7-22.2-4.7-22.2s13.1.9 19.4-2.2 9.4-4.4 10-11.9c-.6-13.8-42.6-51.3-42.6-51.3s3.8-4.4 2.5-14.4c-1.3-10-14.4-36.3-14.4-36.3l-60.7 2.5-58.8 16.9-25.7 33.8-1.3 92 20.6 32.6z"/><path class="st2" d="M549.9 353.2c-22.5 1.6-20.7-15.3-14.4-18.5M543 375.8l-33.8.3"/><path class="st1" d="m520.5 376-11.2.1c-5 .6-10.6 7.5-7.5 14.4s18.2 6.9 21.3-.6-2.6-13.9-2.6-13.9z"/><path class="st6" d="M296.4 110c-6.1-1.4-11.7-2-16.9-2.3-10.7-.6-25.7-.2-38.2 19.8s-57.6 137.1-57.6 144.6 10 10 16.9 6.3c6.9-3.8 43.8-114.6 51.3-128.3s31.3-10 31.3-10l36.9 13.1 16.9-10-9.4-23.2-21.9-13.1-9.3 3.1z"/><path class="st6" d="M311.4 144.5s-14.4-11.9-23.8-15c-9.4-3.1-25-1.3-33.8 15-11.9 23.2-28.2 128.3-25 137.4 3.1 9.1 18.8 5.3 20-.3s14.4-111.4 20.3-124.6c5.3-8.8 15.3-9.4 19.7-6.3 4.4 3.1 11.3 7.5 11.3 7.5l11.3-13.7z"/><path class="st0" d="M328.3 133.8s-13.1-19.4-31.9-23.8c-18.8-4.4-32.6-.9-44.4-4.1-11.9-3.1-23.2-19.7-18.2-36.6 5-16.9 20.7-21.9 33.8-18.2 13.1 3.8 18.2 22.5 5.6 33.8 7.5-.6 29.4 2.5 43.8 9.4 22.5 13.1 25.7 31.3 25.7 31.3l-14.4 8.2z"/><path class="st2" d="M256.9 69.3c-8.8 12.5 7.5 18.8 16.3 15.7"/><path class="st0" d="M329.6 210.8s-43.2-20-47.6-30.7c-4.4-10.6 7.5-20.7 15.3-19.4-2.8-11.9 13.5-21.3 22.2-20 1.9-11.3 17.5-18.2 28.2-13.8 5-13.1 20.7-15.7 25.7-10 5 5.6 15 53.2 15 53.2l-58.8 40.7z"/><path class="st2" d="m297.3 160.7 42.3 35.1M319.5 140.7l33.2 43.2M347.7 126.9l22.6 47.6"/><path class="st3" d="M353.3 237.1c-17.5 5-33.2-13.8-27.5-28.2s48.2-41.9 62-38.8c13.8 3.1 13.8 50.1 13.8 50.1s-30.7 11.9-48.3 16.9z"/><circle class="st0" cx="393.4" cy="185.2" r="16"/><circle class="st0" cx="449.8" cy="174.5" r="16"/><path class="st1" d="M544.9 239s-101.4 11.3-125.2 22.5c-2.9 1.4-19.7.9-19.1 32.2 1.3 62 4.1 200 4.1 200l-68.2-.6s8.8-206 11.9-238.5c3.1-32.6 24.4-45.7 38.8-49.5 14.4-3.8 75.8-12.5 75.8-12.5l48.2-5 25.7 7.5 6.9 17.5 1.1 26.4z"/><path class="st2" d="M389 211.4s-20 8.8-26.9 27.5-2.8 78.9-4.7 124-9.7 129.6-9.7 129.6"/><path class="st2" d="M392.2 218.3c-32.6 17.5-21.9 92-23.2 145.9-1.3 53.8-7.5 127.7-7.5 127.7"/><path class="st2" d="M395.3 240.9c-17.5 5-16.9 31.3-17.5 124.6-.6 93.3-2.5 126.5-2.5 126.5"/><path class="st2" d="M402.2 259s-8.8 2.5-11.9 19.4c-3.1 16.9-.6 214.7-.6 214.7"/><path class="st8" d="M315.2 403c-8.8-3.8-18.2-31.9-11.3-41.9 0 0-35.7 12.5-84.5 23.8 5 18.8 23.5 56.3 23.5 56.3l72.3-38.2z"/><path class="st2" d="m229.4 410.5 84.5-28.8"/><path class="st8" d="M335.2 356.1c-8.8-6.3-24.4-5-31.3 5s2.5 38.2 11.3 41.9c11.9 3.8 25.7 1.3 28.8-12.5 3.1-13.8 0-28.2-8.8-34.4z"/><ellipse class="st3" cx="374.9" cy="363.9" rx="41.6" ry="40.4"/><circle class="st8" cx="372.8" cy="363" r="12.5"/><circle class="st0" cx="377.8" cy="243.7" r="16"/><path class="st8" d="M387.2 205.2c14.4-3.8 75.8-12.5 75.8-12.5l48.2-5 25.7 7.5 6.9 17.5 1.3 26.3s-101.4 11.3-125.2 22.5l-32.7-56.3z"/><path class="st1" d="M419.7 261.5c23.8-11.3 125.2-22.5 125.2-22.5l-.6-13.1-76.4 6.2-48.2 29.4z"/><path class="st2" d="m486.1 244.6-2.5-13.7M495.5 244l-3.2-14.1M503.6 243.4l-2.5-13.8M511.7 241.5l-3.1-15M521.1 239.6l-2.5-15M529.3 239l-1.9-12.5M537.4 237.7l-2.5-14.4"/><path class="st3" d="M462.9 192.7s-61.4 8.8-75.8 12.5c0 0 9.4 48.2 18 65.7 5-8.3 12.6-8.5 14.5-9.3 10-4.7 33.6-9.5 57.7-13.3-8.8-46.2-14.4-55.6-14.4-55.6z"/><path class="st8" d="m417.8 222.1 4.4 16.3 26.3-5.7-3.7-14.4z"/><path class="st1" d="m568.7 168.9 28.8-1.3-.6 26.9-28.8-11.2z"/><path class="st8" d="m568.7 168.9 13.7-.6.1 20.6-14.4-5.6z"/><path class="st2" d="m567.1 177.6 29.5 2.5"/><path class="st6" d="M503.6 167.6s-23.2-21.9-25.7-28.8 5-18.8 18.8-16.3c2.5-13.1 23.2-18.8 30.7-9.4 5-6.9 25.7-7.5 32.6 5.6 6.9 13.1-3.1 46.3-3.1 46.3l-15 5.6-38.3-3z"/><path class="st2" d="m507.4 136.3-10.7-13.8M529.3 131.3l-1.9-18.1"/><path class="st8" d="M503 181.4c-8.1 1.9-16.9 13.5-13.1 30.4 3.8 16.9 18.2 19.1 31.3 15.3 8.1-5.6 6.3-12.5 6.3-12.5l-1.9-25c-.1-.1-14.5-10.1-22.6-8.2z"/><ellipse class="st3" cx="527.1" cy="173.3" rx="27.9" ry="22.5"/><path class="st0" d="M522.4 192c-23.2 3.1-13.8 36.9-1.3 35.1 9.4 0 37.6-3.8 41.3-3.1-1.3 5.6-3.8 19.1 14.4 18.5 20.7-.3 22.5-31.6 8.1-38.5-8.1-4.4-16.3-3.8-22.5-1.9 2.5-3.8 6.3-10 8.1-16.3 1.9-6.3 3.3-32 3.1-38.2 1.9 6.3 17.2 8.8 23.5-1.9 6.3-10.6-3.1-25.4-12.5-27.9s-17.8-2.2-24.7.9c-6.9 3.1-10.6 13.8-10 22.5s.6 35.4-5 39.8c-5.6 4.5-7.5 8.5-22.5 11z"/><path class="st0" d="M562.5 202.1c-2.6 4.3-13.9 5.2-15.7 1.5"/><path class="st2" d="M562.5 224c1.3-7.5 18.2-6.9 15 5M573.7 147.6c-5.6-5 .6-13.1 4.4-10.6"/><circle class="st1" cx="530.5" cy="183.4" r="13.9"/><circle class="st2" cx="530.5" cy="183.5" r="4.6"/><path d="M453.5 295.3c2.5 4.4 33.8 21.9 46.3 21.3 29.4-5.6 17.5-26.3 14.4-28.8-3.1-2.5-55.7 4.4-60.7 7.5z" style="fill:#fff"/><path d="M473.6 291c-9.9 1.5-18.2 3.2-20.1 4.4 1.3 2.4 11.2 8.6 21.8 13.7l-1.7-18.1z" style="fill:red"/><path class="st2" d="M486.3 289.6s1.4 12.7 8.9 10.3 4.2-11.3 4.2-11.3"/><path class="st2" d="M453.5 295.3c2.5 4.4 33.8 21.9 46.3 21.3 29.4-5.6 17.5-26.3 14.4-28.8-3.1-2.5-55.7 4.4-60.7 7.5z"/></svg>