<svg version="1.1" id="Calque_1" xmlns="http://www.w3.org/2000/svg" x="0" y="0" viewBox="0 0 900 900" style="enable-background:new 0 0 900 900" xml:space="preserve"><style>.st0,.st1,.st2,.st3{fill:#fff;stroke:#000;stroke-width:8.202;stroke-linecap:round;stroke-linejoin:round;stroke-miterlimit:10}.st1,.st2,.st3{fill:#ffce00}.st2,.st3{fill:none}.st3{fill:red}.st4{fill:#fff}.st5{fill:red}.st10,.st11,.st12,.st15,.st16,.st6,.st7,.st8,.st9{fill:#056000;stroke:#000;stroke-width:8.202;stroke-linecap:round;stroke-linejoin:round;stroke-miterlimit:10}.st10,.st11,.st12,.st15,.st16,.st7,.st8,.st9{fill:#ff7300}.st10,.st11,.st12,.st15,.st16,.st8,.st9{fill:#ffce00;stroke-width:8.7465}.st10,.st11,.st12,.st15,.st16,.st9{fill:#fff}.st10,.st11,.st12,.st15,.st16{fill:none}.st11,.st12,.st15,.st16{fill:red}.st12,.st15,.st16{fill:#056000}.st15,.st16{fill:#757575;stroke-width:8.202}.st16{fill:none;stroke:red;stroke-width:9.8424}</style><path class="st0" d="M665.2 136.5c0-4.9-13.9-4.9-14.8-.8-.2 1.1-.7 6.3-1.2 13.2l15.2.3c.5-6.3.8-11.3.8-12.7z"/><path class="st1" d="M676.7 181.6c-1.6 4.1-3.3 9.8-3.3 9.8l-12.3-.8s2.1-25.3 3.3-41.4l-15.2-.3c-1.4 17.3-3.6 45.6-5.3 49.1-2.5 4.9-28.7 22.1-32 30.3s-7.1 38.1-4.9 45.1c3.4 10.7 11.5 27.9 10.7 36.1s-100.1 94.3-100.1 94.3h-16.4l-34.4 50-.8 28.7 43.5-10.7s27.1 3 43.5-7.4c9.7-6.1 126.3-171.4 128.8-183.7 2.5-12.3 9-89.4 9-97.6s-12.5-5.6-14.1-1.5z"/><path class="st2" d="M643.9 198c-1.6 9-.8 27.9 0 35.3M681.6 280.9c2.5-12.3 9-89.4 9-97.6 0-8.2-12.3-5.7-13.9-1.6-6.6 11.5-7.4 59.9-7.4 59.9M661.1 190.7l-3.3 39.3"/><path class="st0" d="M676.7 181.6c-1.7 3-3.1 8.7-4.1 15.4l17.1 1.5c.6-7.7.9-13.4.9-15.3 0-8.1-12.3-5.7-13.9-1.6z"/><path class="st2" d="M620.9 244.8s-4.1-21.3-1.6-24.6M632.4 243.2s-4.9-28.7-2.5-32"/><path class="st3" d="M759.3 344.9c-9.5 1-22 .9-36.2-2.4-14.5-3.4-25.1-9.5-32.4-15.3-.1.7-.1 1.4-.1 2.1 0 9.8 3.9 18.7 10.3 25.3-.7-.1-1.2-.2-1.2-.2s-41.9 156.2-41.9 161.9c0 5.7 32 9 34.4 1.6 2.4-7.1 33.9-140.1 39.5-152.9 12.2-1.6 22.5-9.4 27.6-20.1z"/><path class="st0" d="M759.3 344.9c2.2-4.7 3.5-10 3.5-15.6 0-19.9-16.2-36.1-36.1-36.1-19.2 0-34.9 15-36 34 7.3 5.8 17.9 12 32.4 15.3 14.2 3.3 26.7 3.3 36.2 2.4z"/><path class="st4" d="M748.9 331.7c0-12-9.8-21.7-21.7-21.7-8.8 0-16.4 5.2-19.8 12.7l40.7 14.8c.4-1.7.8-3.7.8-5.8z"/><path class="st5" d="M707.4 322.8c-1.2 2.7-2 5.7-2 9 0 12 9.8 21.7 21.7 21.7 9.9 0 18.4-6.7 20.9-15.8l-40.6-14.9z"/><circle class="st2" cx="727.1" cy="331.7" r="21.7"/><circle class="st0" cx="727.1" cy="331.7" r="9.4"/><path class="st1" d="M689.8 457.2c-6.6 2.5-13.9.8-15.6-4.9-1.2-4.3-.6-52.7-.9-77.8-11 .2-35.5 1.4-55.4 6-.4 28.6.7 92.4.7 92.4l-146-4.1-30.3 54.1s200.1-7.4 213.3-13.1c8.9-3.9 40.3-30.3 60.7-50L705 445.5c-6.3 5.6-12.2 10.7-15.2 11.7z"/><path class="st0" d="M672.6 359.6c-1.6-4.9-12.3-4.1-12.3 2.5-4.1-7.4-15.6-5.7-15.6.8-1.6-5.7-15.6-4.9-14.8.8-4.9-3.3-9.8-1.6-11.5 3.3-.3 1-.6 6.1-.7 13.5 19.9-4.6 44.5-5.7 55.4-6 .1-8-.1-13.6-.5-14.9zM734.1 439.2c2.5-9-8.2-13.1-12.3-9.8-2.2 1.8-9.7 9.3-17.1 16.1l11.3 14.3c10-9.6 17.3-17.7 18.1-20.6z"/><path class="st2" d="m629.1 419.5.8-55.7M644.7 418.7v-55.8M660.3 417.9v-55.8M325.7 324.6l-23 2.2-4.6 30.8 76.8 47.4z"/><path class="st3" d="M298.1 357.6 283 459.7l90.2 113.2 74.2-49.7L374.9 405z"/><path class="st1" d="m447.4 523.2 2.9-2 30.4-51L374.9 405z"/><path class="st6" d="m390.7 318.3-45.1 4.4 166.1 95.4 24-40.3z"/><path class="st7" d="m325.7 324.6 49.2 80.4 105.8 65.2 31-52.1-166.1-95.4z"/><path class="st3" d="m560.2 336.7-122.2-23-47.3 4.6 145 59.5z"/><path class="st8" d="M544.7 787.2c-21.5-10.2-70-11.4-91-20.1-21-8.8-29.7-40.3-29.7-40.3s-83.1-3.5-76.9 5.2c6.2 8.8 57.7 46.3 63 57.7 5.2 11.4 1.7 21.9 6.2 31.5 4.3 9.6 24.5 14 29.8 8.8 5.2-5.2 5.2-11.4 10.5-12.2s65.6 0 69.1 2.6c1.2 1 2.3 3.7 3.3 7l48.2-11.6c-3.9-8.6-12.4-19.2-32.5-28.6z"/><path class="st9" d="M528.8 827.4c1.8 5.7 3.5 12.9 6.3 14 4.3 1.7 10.5-2.6 10.5-2.6 3.5 3.5 11.4 1.7 12.2-1.7 3.5 3.5 9.6.9 10.5-3.5 3.5 2.6 11.4.9 11.4-3.5 0-3.2-.2-8.2-2.7-14.2l-48.2 11.5z"/><path class="st10" d="m545.6 838.8-6.1-20.1M557.8 837.1l-6-21M568.3 833.5l-6.9-21"/><path class="st8" d="M372.5 809.9C355 794.2 284.1 781 284.1 781l20.1-58.6s-55.9-13.1-61.2 10.5-35.8 84-34.1 93.6c1.7 9.6 7 15.7 18.4 13.1 11.4-2.6 12.2-11.4 17.5-12.2 5.2-.9 75.2-1.7 80.5 0 2.4.8 3.7 4.1 4.7 7.8l56.3-6.7c-3.9-4.8-6.8-12.3-13.8-18.6z"/><path class="st9" d="M329.9 835.2c1.2 4.5 2.1 9.5 4 11.4 3.5 3.5 11.4 4.3 14 0 1.7 3.5 9.6 4.3 13.1 0 1.7 3.5 13.1 6.2 14.8-1.7 5.2 5.2 15.7 4.3 17.5-.9 1.1-3.1-1.3-8.4-7.1-15.6l-56.3 6.8z"/><path class="st10" d="m347.9 847.6-4.3-20.2M361.1 846.7l-4.4-20.1M375.9 844.9l-6.1-20.1"/><path class="st11" d="M216.7 570.3s-47.2 3.5-66.4-3.5c-19.3-7-17.5-63 7-66.4 24.5-3.5 63 5.2 63 5.2l-3.6 64.7z"/><path class="st8" d="M330.5 454.8 209.7 460l.7 47.9 146.7 23.7z"/><path class="st12" d="M358.4 555.8c0 11-4.9 20.8-12.7 27.4l28.5-2.5-17.1-49.1-9.6-1.6c6.8 6.6 10.9 15.7 10.9 25.8zM286.8 555.8c0-14.2 8.3-26.5 20.3-32.3l-13.5-2.2c.2.8.2 1.6.2 2.5 0 7.7-6.2 14-14 14-7.7 0-14-6.2-14-14 0-2.5.7-4.8 1.7-6.7l-13.2-2.1c3.9 6.4 6.2 13.9 6.2 22 0 23.2-18.8 42-42 42-2.5 0-4.8-.2-7.2-.7l.2 16.4 43.8-3.8c-2.7-2.5-4.4-6.2-4.4-10.3 0-7.7 6.2-14 14-14 7.7 0 14 6.2 14 14 0 3.2-1.1 6.1-2.9 8.4l28.5-2.5c-10.7-6-17.7-17.5-17.7-30.7z"/><path class="st12" d="M260.5 537c0-8-2.3-15.6-6.2-22l-43.9-7.1.1 7.9c2.5-1 5.2-1.6 8-1.6 12.1 0 21.9 9.8 21.9 21.9 0 12.1-9.8 21.9-21.9 21.9-2.6 0-5.2-.5-7.5-1.3l.2 21.7c2.4.4 4.8.7 7.2.7 23.2-.1 42.1-18.9 42.1-42.1z"/><path class="st12" d="M218.5 558c12.1 0 21.9-9.8 21.9-21.9 0-12.1-9.8-21.9-21.9-21.9-2.9 0-5.6.6-8 1.6l.5 40.9c2.3.8 4.9 1.3 7.5 1.3zM286.8 555.8c0 13.2 7.1 24.7 17.7 30.9l41.3-3.5c7.8-6.6 12.7-16.4 12.7-27.4 0-10.1-4.2-19.2-10.9-25.8l-40.6-6.6c-12 5.9-20.2 18.2-20.2 32.4zM264.9 566.7c-7.7 0-14 6.2-14 14 0 4 1.7 7.7 4.4 10.3l20.7-1.8c1.8-2.4 2.9-5.2 2.9-8.4 0-7.8-6.3-14.1-14-14.1zM279.7 537.9c7.7 0 14-6.2 14-14 0-.9-.1-1.7-.2-2.5l-26-4.2c-1.1 2-1.7 4.3-1.7 6.7 0 7.7 6.2 14 13.9 14z"/><circle class="st10" cx="322.6" cy="555.8" r="17.5"/><circle class="st10" cx="272.7" cy="551.9" r="14"/><path class="st9" d="m200.6 726.5-4.9 17 235.3-14-6.6-17.4z"/><path class="st10" d="m213.8 742.7 2.6-27.6M237.8 738.2v-24.9M262.3 737.4l-1.3-26.2M282.9 736.1v-23.6M308.2 736.1v-30.2M329.2 733.5l-1.3-26.3M353.7 729.5l-4-23.6M380.4 729.5v-24.9M407.9 730.8l-5.3-26.2"/><path class="st11" d="m346.2 614-59.3 14.4 1.2 92.4 75.8-4.8-13.5-99.5z"/><path class="st8" d="m223.8 643.7-23.2 82.8 47.1-3-1-85.3z"/><path class="st12" d="m246.7 638.2 1 85.3 40.4-2.7-1.2-92.4z"/><path class="st8" d="m424.4 712.1-25.7-66.6-27.5-16.5 14.7 85.5z"/><path class="st8" d="m371.2 629-20.8-12.5 13.5 99.5 22-1.5z"/><path d="m374.2 580.8 24.5 64.7s-129.4 13.1-180.2 13.1-42-65.6-7-70.9c35-5.2 162.7-6.9 162.7-6.9z" style="fill:#ff7300;stroke:#000;stroke-width:8.7465;stroke-linecap:round;stroke-linejoin:round;stroke-miterlimit:10"/><path class="st7" d="m202.6 310.4 38.6 72.2 71.3 19.7-24.6-141.1z"/><path class="st7" d="m264.9 377.7-22.9-41 52.5-34.5"/><path class="st1" d="M315.8 369.5s27.1 7.4 28.7 25.4c1.6 18-18.9 27.1-18.9 27.1s29.5-.8 26.2 18.9c-3.3 19.7-19.7 13.9-19.7 13.9s17.2 23.8-2.5 30.3c-19.7 6.6-27.1-9-27.1-9s8.2 23-19.7 26.2c-19.7 3.3-13.1-18-13.1-18s-17.2 19.7-35.3 9.8-5.7-29.5-5.7-29.5-37.7 24.6-48.4-9.8c-4.9-23 15.6-27.9 15.6-27.9s-21.3 4.9-27.9-21.3 29.5-32.8 29.5-32.8l118.3-3.3z"/><circle class="st6" cx="248.5" cy="388.7" r="27.9"/><circle class="st2" cx="248.5" cy="388.7" r="11.5"/><circle class="st6" cx="299.4" cy="435.1" r="15.5"/><circle class="st6" cx="258.4" cy="448.2" r="15.5"/><circle class="st6" cx="215.7" cy="433.4" r="15.5"/><circle cx="299.4" cy="435.1" r="6.4"/><circle cx="258.4" cy="448.2" r="6.4"/><circle cx="215.7" cy="433.4" r="6.4"/><circle class="st1" cx="410.9" cy="422.8" r="14.8"/><circle class="st1" cx="460.1" cy="408" r="14.8"/><circle class="st1" cx="491.3" cy="354.7" r="14.8"/><path class="st6" d="m466.7 317.8-16.5-5.6c3.7 19.9 5.4 56.7-27.8 69.6-30.9 12.1-56-5.7-72.9-25.3l-.9 4.1s10.7 31 13.9 35.1c3.3 4.1 72.2 29.5 99.2-4.9s5-73 5-73z"/><circle class="st6" cx="464.2" cy="343.2" r="12.7"/><circle cx="464.2" cy="343.2" r="4.4"/><circle class="st6" cx="455.2" cy="372.7" r="12.7"/><circle class="st6" cx="432.3" cy="392.4" r="12.7"/><circle class="st6" cx="401.1" cy="394.1" r="12.7"/><circle class="st6" cx="372.4" cy="387.5" r="12.7"/><circle cx="346.1" cy="371.9" r="12.7" style="fill:none;stroke:#000;stroke-width:5.6162;stroke-linecap:round;stroke-linejoin:round;stroke-miterlimit:10"/><path class="st3" d="M422.4 381.8c33.2-12.9 31.5-49.5 27.8-69.6l-14.8-3.4c3.1 16.7 9.8 47.9-18.4 58.8-28.1 10.9-50.4-7.3-64.5-25.1l-3.1 14c17 19.6 42.1 37.3 73 25.3z"/><path class="st3" d="M417 367.7c28.1-10.9 21.5-42.1 18.4-58.8L411 299l-54.1 24.6-4.2 19c14 17.8 36.3 36 64.3 25.1z"/><circle cx="455.2" cy="372.7" r="4.4"/><circle cx="432.3" cy="392.4" r="4.4"/><circle cx="401.1" cy="394.1" r="4.4"/><circle cx="372.4" cy="387.5" r="4.4"/><path class="st15" d="M313 348.6s26.2 88.2 31.2 101.7 34.9 1.2 31.2-9.8c-3.7-11.1-28.3-103.3-28.3-103.3L313 348.6z"/><path class="st2" d="m351.9 440.8-30.7-104.9M363 440.5l-29.5-103.3"/><path class="st15" d="M274 280.9s13.9 116.5 17.2 124.7 23.8-4.9 27.1-26.2-5.7-83.7-5.7-83.7L274 280.9z"/><path class="st2" d="m298.2 388-11.4-101.3M308.5 379.4l-9-90.2"/><path class="st15" d="M287.9 284.2s-52.5 32.8-67.3 37.7c-14.8 4.9-42.7-19.7-34.4-29.5 8.2-9.8 50.9-27.9 50.9-27.9s-52.5 4.9-59.1 0-11.5-31.2-1.6-37.7c9.8-6.6 54.1-8.2 54.1-8.2s-50.9-13.1-54.1-24.6c-3.3-11.5 9.8-44.3 18-47.6 8.2-3.3 39.4 15.6 60.7 18-18.9-13.1-46.8-36.1-48.4-49.2-1.6-13.1 13.9-24.6 22.1-26.2 8.2-1.6 47.6 28.7 47.6 28.7S245.2 80 243.6 68.5C242 57 260 46.3 271.5 51.2c11.5 4.9 77.1 70.5 77.1 70.5L340.4 271l-52.5 13.2z"/><path class="st2" d="m200.1 294 46.8-22.1M210.8 303.9l41.8-22.2M218.2 312.9l41.8-23.8M187 257.1l59.9-4.1M187 245.6l61.5-4.9M185.4 234.1l61.5-5.7M187.8 185.7s42.7 20.5 66.4 21.3M194.4 174.3s36.1 17.2 64.8 19.7M203.4 162s24.6 13.9 57.4 17.2M217.4 114.4s31.2 32.8 60.7 41.8M228 102.9s23.8 26.2 55.8 39.4M255.1 68.5s22.1 36.9 42.7 50M267.4 61.1s29.5 37.7 41.8 45.9"/><path class="st1" d="M348.6 121.8c4.9-1.6 26.2 14.8 101.7 28.7 6.6.8 36.9 30.3 38.5 36.9s-22.1 25.4-22.1 25.4 31.2 9 27.9 17.2c-9.8 0-19.7 1.6-27.1 8.2-9.9 8.8-10.7 19.7-10.7 19.7l37.7 16.4s18 8.2 19.7 16.4c0 18-85.3 50.9-129.6 45.9s-57.4-27.9-57.4-27.9-45.9-8.2-54.1-27.9c-8.2-19.7 9.8-37.7 24.6-29.5-9.8-3.3-31.2-7.4-21.3-50 11.5-33.6 59.1-79.5 72.2-79.5z"/><path class="st1" d="M447.8 195.6c-9.8 6.6-3.3 16.4 3.3 19.7 6.6 3.3 11.5 0 15.6-2.5"/><path class="st16" d="m401.9 324.4-12.3-55M420.8 316.2l-9.9-41.9"/><circle class="st0" cx="348.6" cy="326.2" r="34.4"/><circle class="st6" cx="348.6" cy="326.2" r="20.5"/><circle cx="348.6" cy="326.2" r="6.6"/><path class="st4" d="M385.5 180.8c1.6-13.1-13.9-18-13.9-18l-18.3 27.8L376 203c4.7-6.3 8.4-13.7 9.5-22.2z"/><path class="st5" d="m353.3 190.7-16.2 24.6s22.1 5.7 30.3-2.5c3-3 5.9-6.2 8.5-9.8l-22.6-12.3z"/><path class="st2" d="m371.6 162.8-10.5 16c4.2 1.3 7.2 5.2 7.2 9.8 0 5.7-4.6 10.3-10.3 10.3-3.1 0-5.9-1.4-7.8-3.6l-13.1 20s22.1 5.7 30.3-2.5 16.4-18.9 18-32c1.7-13.1-13.8-18-13.8-18z"/><path class="st0" d="M358 198.9c5.7 0 10.3-4.6 10.3-10.3 0-4.6-3-8.5-7.2-9.8l-10.8 16.6c1.8 2.1 4.6 3.5 7.7 3.5z"/><path class="st2" d="M494.6 230c-9.8 0-19.7 1.6-27.1 8.2-9.9 8.8-14.8 24.6-20.5 35.3"/><path class="st4" d="M498.7 255.5c-1.4-4.2-7.1-8.6-13.4-12.4-5.2 3.9-14.8 12.7-19.3 27.1 6.2 3.8 13 7.1 18 7.4 12.2.8 18-12.3 14.7-22.1z"/><path class="st2" d="M464.2 255.5s14.8 14.8 22.1 6.6c3.9-4.3-13.9-14.8-13.9-14.8"/><path class="st5" d="M485.3 243.2c-5.2-3.2-10.8-5.9-14.4-7.5-1.2.7-2.4 1.6-3.4 2.6-6.5 5.7-10.8 14.6-14.7 23 3.3 2.5 8 5.9 13.1 9 4.6-14.4 14.2-23.3 19.4-27.1z"/><path class="st2" d="M498.7 255.5c-2.5-7.7-20.2-16.4-27.7-19.8-1.2.7-2.4 1.6-3.4 2.6-6.5 5.7-10.8 14.6-14.7 23 7.2 5.4 22 15.8 31.1 16.4 12.2.7 18-12.4 14.7-22.2z"/></svg>