<svg version="1.1" id="Calque_1" xmlns="http://www.w3.org/2000/svg" x="0" y="0" viewBox="0 0 900 900" style="enable-background:new 0 0 900 900" xml:space="preserve"><style>.st0{fill:#898989}.st1{fill:#fff}.st2,.st3{fill:none;stroke:#000;stroke-width:6.6179;stroke-linecap:round;stroke-linejoin:round;stroke-miterlimit:10}.st3{fill:#fff}.st4{fill:none}.st5{fill:red}.st6,.st7,.st8{fill:#ffce00;stroke:#000;stroke-width:6.6179;stroke-linecap:round;stroke-linejoin:round;stroke-miterlimit:10}.st7,.st8{fill:red}.st8{fill:#005bad}</style><path class="st0" d="M667.3 426.8c-2.5 19.9-19 62-13.2 80.2 5.8 18.2 66.2 91.8 86 94.3 12.4 1.6 24.6-16.4 31.8-29.9-1-.2-2-.4-2.9-.7-17.4-4.1-64.5-50.5-67.8-57.9-3.3-7.4 8.3-64.5 5.8-97.6S683 373 683 373l-22 14.1c3.4 10.5 7.9 27.1 6.3 39.7z"/><path class="st1" d="M772 571.4c-7.3 13.6-19.4 31.5-31.8 29.9-19.9-2.5-80.2-76.1-86-94.3-5.8-18.2 10.8-60.4 13.2-80.2 1.6-12.7-2.9-29.3-6.3-39.7l-16.9 10.8L632.6 503s6.6 19.9 14.9 33.9c8.3 14.1 50.5 48 69.5 79.4 5-5 11.6-3.3 24.8-1.7 17.4-9.1 33.1 5 33.1 5s25.6-13.2 44.7-22.3c-6.4-18.1-30.4-22-47.6-25.9z"/><path class="st2" d="M683 373.1s21.5 9.1 24 42.2-9.1 90.2-5.8 97.6c3.3 7.4 50.5 53.8 67.8 57.9 17.4 4.1 43.8 7.4 50.5 26.5-19 9.1-44.7 22.3-44.7 22.3s-15.7-14.1-33.1-5c-13.2-1.7-19.9-3.3-24.8 1.7-19-31.4-61.2-65.4-69.5-79.4-8.3-14.1-14.9-33.9-14.9-33.9l11.6-105.1 38.9-24.8z"/><path class="st0" d="M210.7 416.9c32.3-45.5 33.9-72.8 22.3-85.2 0 0-9.1-4.1-14.9 3.3-10.8-9.1-19 3.3-19 3.3s-30.6 9.9-36.4 5.8c-5.8-4.1-9.9-16.5-9.9-16.5s-10.8.8-12.4 10.8 9.1 19.9 9.1 19.9-5.8 4.1-4.1 11.6c-13.2 1.7-8.3 14.1-8.3 14.1s-12.4 14.1-21.5 27.3c-17.4-1.7-19-31.4-19-31.4s-8.3 5.8-5 26.5c3.3 20.7 16.5 24.8 16.5 24.8s-4.1 5-.8 13.2c-6 6.9-5.6 17.4-4.5 24.7 25.7-4.4 83.2-17.4 107.9-52.2zM140.4 564.2c-1-40.3-17.4-59.6-30.7-68.5.2 5.2-1 9.8-5.7 11.4-12.4 4.1-24.8-14.9-24.8-14.9s-9.9 14.1 2.5 25.6 28.1 6.6 28.1 6.6 1.7 8.3-1.7 11.6-9.1 4.1-12.4 7.4c-3.3 3.3-2.5 9.9 3.3 14.1-4.1 7.4-6.6 14.9 1.7 17.4-5 7.4.8 15.7.8 15.7s-2.5 22.3-.8 29c1.7 6.6 0 12.4-5.8 16.5s-9.9 5.8-15.7 3.3c7.4 14.9 24.8 4.1 24.8 4.1s-.3 2-1.2 5.1c15.8-12.8 38.6-39.3 37.6-84.4zM189.2 564.7c-2.5 18.4-2.5 77.2-14.9 97.9-.8 17.4 3.3 44.7 14.1 43 10.8-1.7 37.2-16.5 44.7-99.3 9.1 2.9 25.2 3.4 43.2 2.2l21.3-46c-19.8.3-74.1.7-108.4 2.2zM398.5 436.8c71.9 2.6 99.3-78.6 99.3-78.6l3.3-15.3-6.6-2.9-70.3 3.3s-6.6 0-14.1 9.9c-4.1-11.6-14.9-8.3-14.9-8.3s-1.7-21.5-20.7-24c-12.4-1.7-14.1 8.3-14.1 8.3s-16.5 27.3-24.8 22.3-15.7-41.4-15.7-41.4-7.4.8-11.6 6.6c-4.1 5.8.8 24 .8 24s-7.4-7.4-15.7-3.3c-1.4-1.8-4-2.3-6.4-2.4 3.9 29 22.5 98.5 111.5 101.8z"/><path class="st1" d="m501 342.9-3.3 15.3s-27.4 81.2-99.3 78.6C309.5 433.5 290.9 364 287 335.1c-3.1-.1-6 .7-6 .7s-17.4 2.5-27.3-1.7c-9.9-4.1-14.1-34.7-14.1-34.7s-6.6 3.3-8.3 9.1 1.7 23.2 1.7 23.2c11.6 12.4 9.9 39.7-22.3 85.2-24.7 34.7-82.1 47.8-107.9 52 .8 4.9 2 8.4 2 8.4s4.5 9.8 4.9 18.4c13.3 8.9 29.7 28.2 30.7 68.5 1.1 45.2-21.8 71.6-37.6 84.5-2.6 10.1-10.2 32.5-27.8 44.5 5 17.4 25.6-5.8 25.6-5.8s-9.1 21.5-19 28.1c5 7.4 25.6 6.6 33.1-.8 4.1 4.1 11.6 1.7 16.5-8.3 5-9.9 15.7-41.4 12.4-52.9.8-5.8 3.3-10.8 4.1-19s-6.6-29.8-6.6-29.8 12.4-15.7 17.4-37.2c5-21.5 6.6-76.9 9.9-95.1 5 23.2 15.7 29.8 51.3 50.5s85.2 39.7 85.2 39.7-2.7 0-7.4.1l-21.3 46c37.6-2.4 83.3-11.7 88.3-19.6 7.4-11.6 5.8-23.2 5.8-23.2s21.5 10.8 43.8 14.1c-22.3 27.3-40.5 48.8-54.6 64.5-14.1 15.7-19 34.7-19 34.7s14.1 9.1 19.9 22.3c12.4 12.4 24.8 24.8 30.6 29 19-13.2 54.6-32.3 54.6-32.3s-20.7-15.7-23.2-24c6.8-5.5 24.5-26.1 39.4-47.7-17.9-10.3-54.3-38.2-49.3-92.9.8-22.3 30.6-45.5 43.8-49.6s42.2-6.6 58.7-1.7c10.3 3.1 20.6 15.2 27 23.9 5.4-5.6 10.3-12.2 14.4-19.8 40.5 3.3 49.6-16.5 49.6-16.5l2.5-80.2L501 342.9zM306.6 514.5c-40.5 21.5-84.4-10.8-91.8-34.7s5-45.5 22.3-52.9c17.4-7.4 50.5 1.7 56.3 24.8s21.5 43.8 13.2 62.8z"/><path class="st0" d="M515.1 482.3c-16.5-5-45.5-2.5-58.7 1.7s-43 27.3-43.8 49.6c-5 54.7 31.4 82.6 49.3 92.9 14.3-20.8 25.9-42.6 22.7-53.2-6.6-21.5-22.3-33.1-22.3-33.1s48.3-1.2 79.9-34c-6.5-8.7-16.8-20.9-27.1-23.9zM237.1 426.8c-17.4 7.4-29.8 29-22.3 52.9s51.3 56.3 91.8 34.7c8.3-19-7.4-39.7-13.2-62.9s-38.9-32.1-56.3-24.7z"/><path class="st2" d="M424.1 343.3s-6.6 0-14.1 9.9c-4.1-11.6-14.9-8.3-14.9-8.3s-1.7-21.5-20.7-24c-12.4-1.7-14.1 8.3-14.1 8.3s-16.5 27.3-24.8 22.3-15.7-41.4-15.7-41.4-7.4.8-11.6 6.6c-4.1 5.8.8 24 .8 24s-7.4-7.4-15.7-3.3c-3.3-4.1-12.4-1.7-12.4-1.7s-17.4 2.5-27.3-1.7c-9.9-4.1-14.1-34.7-14.1-34.7s-6.6 3.3-8.3 9.1 1.7 23.2 1.7 23.2-9.1-4.1-14.9 3.3c-10.8-9.1-19 3.3-19 3.3s-30.6 9.9-36.4 5.8c-5.8-4.1-9.9-16.5-9.9-16.5s-10.8.8-12.4 10.8 9.1 19.9 9.1 19.9-5.8 4.1-4.1 11.6c-13.2 1.7-8.3 14.1-8.3 14.1s-12.4 14.1-21.5 27.3c-17.4-1.7-19-31.4-19-31.4s-8.3 5.8-5 26.5c3.3 20.7 16.5 24.8 16.5 24.8s-4.1 5-.8 13.2c-9.9 11.6-2.5 33.1-2.5 33.1s11.6 25.6-.8 29.8-24.8-14.9-24.8-14.9-9.9 14.1 2.5 25.6 28.1 6.6 28.1 6.6 1.7 8.3-1.7 11.6-9.1 4.1-12.4 7.4c-3.3 3.3-2.5 9.9 3.3 14.1-4.1 7.4-6.6 14.9 1.7 17.4-5 7.4.8 15.7.8 15.7s-2.5 22.3-.8 29c1.7 6.6 0 12.4-5.8 16.5s-9.9 5.8-15.7 3.3c7.4 14.9 24.8 4.1 24.8 4.1s-5.8 33.9-29 49.6c5 17.4 25.6-5.8 25.6-5.8s-9.1 21.5-19 28.1c5 7.4 25.6 6.6 33.1-.8 4.1 4.1 11.6 1.7 16.5-8.3 5-9.9 15.7-41.4 12.4-52.9.8-5.8 3.3-10.8 4.1-19s-6.6-29.8-6.6-29.8 12.4-15.7 17.4-37.2c5-21.5 6.6-76.9 9.9-95.1 5 23.2 15.7 29.8 51.3 50.5s85.2 39.7 85.2 39.7-73.2.4-115.8 2.2c-2.5 18.4-2.5 77.2-14.9 97.9-.8 17.4 3.3 44.7 14.1 43 10.8-1.7 37.2-16.5 44.7-99.3 28.1 9.1 124.1-5.8 131.5-17.4s5.8-23.2 5.8-23.2 21.5 10.8 43.8 14.1c-22.3 27.3-40.5 48.8-54.6 64.5-14.1 15.7-19 34.7-19 34.7s14.1 9.1 19.9 22.3c12.4 12.4 24.8 24.8 30.6 29 19-13.2 54.6-32.3 54.6-32.3s-20.7-15.7-23.2-24c13.2-10.8 68.7-79.4 62-100.9-6.6-21.5-22.3-33.1-22.3-33.1s66.2-1.7 94.3-53.8c40.5 3.3 49.6-16.5 49.6-16.5l2.5-80.2-114-49.6-70.3 3.3z"/><path class="st2" d="M364.5 589c7.4-11.6 6.6-10.8 5.8-23.2-.8-12.4-2.5-19.9-14.1-31.4-11.6-11.6-64.5-39.7-76.9-67.8 26.5 27.3 126.6 75.3 182.8 73.6M168.5 472.3c-1.7-16.5 7.4-50.5 7.4-50.5"/><path class="st0" d="M629.3 584c5-19-9.9-72.8-16.5-86.9-4.8-10.2-35.9-21.6-52.8-27.2-1.7 8.9-3.1 18-3.5 26.4-1.7 33.1 12.4 52.9 19.9 62.9 3.8 5.1 14 23.2 24.2 46.6 12.1-4.3 25.9-11.3 28.7-21.8z"/><path class="st1" d="M678.8 631.7c-.7-.4-1.2-.9-1.6-1.4-5.8-7.4-25.6-71.1-52.9-103.4 10.8-19 24.8-80.2 28.1-96.8 3.3-16.5.8-33.1.8-33.1l-79.4 20.7s-8.9 25.5-13.9 52.2c16.9 5.5 48.1 17 52.8 27.2 6.6 14.1 21.5 67.8 16.5 86.9-2.7 10.5-16.5 17.5-28.8 21.8 9.7 22.1 19.4 48.8 23.8 73.4 9.1 2.5 26.5 5 32.3 3.3 4.1 3.3 9.9 0 9.9 0s9.1 2.5 12.4-.8c.3.1.6.1.9.2-3.1-6.9-5.9-16.2-5.9-26.6.1-9.7 2.4-17.7 5-23.6z"/><path class="st0" d="m694.6 677.5 57.8-8.3S741.7 651 736.8 646c-4.6-4.6-47.7-7.9-58-14.3-2.6 5.9-4.9 13.8-4.9 23.4 0 10.3 2.8 19.6 5.9 26.6 8.6 1.2 14.8-4.2 14.8-4.2z"/><path class="st2" d="M573.8 417.7s-15.7 45.5-17.4 78.6 12.4 52.9 19.9 62.9c7.4 9.9 38.9 69.5 48 119.9 9.1 2.5 26.5 5 32.3 3.3 4.1 3.3 9.9 0 9.9 0s9.1 2.5 12.4-.8c9.1 1.7 15.7-4.1 15.7-4.1l57.8-8.3S741.7 651 736.8 646s-53.8-8.3-59.6-15.7c-5.8-7.4-25.6-71.1-52.9-103.4 10.8-19 24.8-80.2 28.1-96.8 3.3-16.5.8-33.1.8-33.1l-79.4 20.7z"/><circle class="st3" cx="358.3" cy="351.1" r="20.3"/><circle class="st3" cx="180.9" cy="342.5" r="17.4"/><circle class="st3" cx="113.5" cy="491.8" r="17"/><circle class="st3" cx="248.7" cy="598.1" r="15.7"/><circle class="st3" cx="311.6" cy="530.2" r="11.6"/><circle class="st3" cx="249.5" cy="407" r="20.7"/><circle class="st3" cx="465.5" cy="435.9" r="21.5"/><circle class="st3" cx="449.7" cy="574.1" r="14.9"/><circle class="st3" cx="640.8" cy="589" r="14.9"/><circle class="st3" cx="613.1" cy="461.2" r="15.3"/><circle class="st3" cx="688.4" cy="517.4" r="13.6"/><path class="st2" d="M770.7 600.6c7.4 0 17.4 8.3 17.4 8.3M784.8 590.6c7.4 0 20.7 11.6 20.7 11.6"/><path class="st4" d="M789.5 619.1c.4-.2.8-.3 1.2-.5-1.2-5.8-2.6-9.8-2.6-9.8s1.2 4.3 1.4 10.3zM807.1 612.6c.8-.2 1.7-.5 2.6-.7-2.1-5.9-4.1-9.7-4.1-9.7s1.1 4.5 1.5 10.4z"/><path class="st5" d="M774.8 619.6c.2 2.5.6 4.5.9 6.6 4.4-2.6 9-5 13.7-7-.2-6-1.4-10.3-1.4-10.3s-14 1.6-13.2 10.7z"/><path class="st1" d="M776.5 647.7c11.2-8.2 13.2-20.1 13-28.6-4.7 2.1-9.3 4.4-13.7 7 .9 5.6 1.9 10.8.7 21.6zM791.4 641.9c14.6-4.2 16.4-18.9 15.7-29.3-5.1 1.6-10.8 3.6-16.4 6 1.4 6.5 2.4 15.4.7 23.3zM809.6 611.9c2.2 6.4 4.5 15.2 4.1 24.2 10.3-7.8 12.2-19.4 10.8-28-3.5.7-8.8 2-14.9 3.8z"/><path class="st5" d="M819.5 597.2c-5.8-4.1-12.4.8-14.1 5 0 0 2.1 3.8 4.1 9.7 6.1-1.8 11.4-3.1 15-3.8-.8-5.1-2.8-9.3-5-10.9z"/><path class="st5" d="M788.1 608.8s1.5 4 2.6 9.8c5.6-2.4 11.3-4.4 16.4-6-.4-6-1.7-10.4-1.7-10.4-11.5-3.3-17.3 6.6-17.3 6.6z"/><path class="st2" d="M776.5 647.7c1.7-14.9-.8-19-1.7-28.1-.8-9.1 13.2-10.8 13.2-10.8s5.8-9.9 17.4-6.6c1.7-4.1 8.3-9.1 14.1-5 5.8 4.1 10.8 26.5-5.8 38.9.8-17.4-8.3-33.9-8.3-33.9s9.1 33.1-14.1 39.7c3.3-14.9-3.3-33.1-3.3-33.1s7.5 24.8-11.5 38.9z"/><path class="st5" d="M740.1 601.4c-3.3-5.8-10.8-10.8-15.7-5-3.4 4-7.6 15.6-7.2 23.6 4.7-2.1 11.6-4.1 21.2-5.1.8-3.3 4.3-9 1.7-13.5z"/><path class="st1" d="M738.4 617.1c-.3-.5-.3-1.2-.1-2.2-9.6 1-16.5 3.1-21.2 5.1.2 3.6 1.3 6.5 3.9 7.9 8.3 4.1 31.4-2.5 41.4 1.7-2.4-10-22.3-10-24-12.5z"/><path class="st2" d="M724.4 596.4c-5 5.8-11.6 27.3-3.3 31.4s31.4-2.5 41.4 1.7c-2.5-9.9-22.3-9.9-24-12.4-1.7-2.5 5-9.9 1.7-15.7-3.4-5.8-10.9-10.8-15.8-5zM694.6 677.5c-3.3-4.1-2.5-13.2-2.5-13.2M712 675s-4.1-10.8-8.3-16.5M731 671.7s-5-10.8-9.1-16.5"/><path class="st5" d="M642.6 677.7c.2-2.9.7-9.3.7-11.8 0-3.3-8.3-4.1-10.8-4.1-2.4 0-7.9 18.7-5.2 26.6 3.2-3.4 8.2-7.8 15.3-10.7z"/><path class="st1" d="M642.5 679.1s.1-.6.1-1.4c-7 2.9-12.1 7.3-15.3 10.7.1.2.2.5.2.7 3.3 7.4 28.1 3.3 42.2 7.4-4.1-19-27.2-17.4-27.2-17.4z"/><path class="st2" d="M632.6 661.8c-2.5 0-8.3 19.9-5 27.3s28.1 3.3 42.2 7.4c-4.1-19-27.3-17.4-27.3-17.4s.8-9.9.8-13.2-8.3-4.1-10.7-4.1z"/><path class="st4" d="m714.1 684.4 1.5-.3c-2.1-5.5-3.6-9.1-3.6-9.1s1.1 4 2.1 9.4zM733.7 681.5c.6-.1 1.2-.2 1.8-.2-2.4-5.9-4.5-9.6-4.5-9.6s1.6 4.1 2.7 9.8z"/><path class="st1" d="M742.6 713.1c14.1-5.9 15.2-21.7 13.2-33.1-5.5.2-12.4.5-20.3 1.2 3.3 7.9 7.1 19.6 7.1 31.9zM723.6 714.7c13.6-5.5 12.5-22.3 10.2-33.3-5.7.6-11.9 1.5-18.1 2.6 2.9 8.2 6.9 20.4 7.9 30.7zM704.5 714.7c12.2-2.7 11.4-19.5 9.6-30.4-5.1 1-10.3 2.2-15.3 3.6 2.7 6.3 5.7 14.3 5.7 26.8z"/><path class="st5" d="M731 671.7s2.2 3.6 4.5 9.6c7.9-.8 14.8-1.2 20.3-1.2-.8-4.6-2.2-8.6-3.4-10.8-4.2-7.5-19.7-5-21.4 2.4zM694.6 677.5c.7 3.3 2.3 6.5 4.1 10.6 5.1-1.5 10.3-2.6 15.3-3.6-.9-5.5-2.2-9.3-2.2-9.3-3.1-6-18.9-6-17.2 2.3zM712 675s1.6 3.6 3.6 9.1c6.3-1.2 12.4-2.1 18.1-2.6-1.2-5.7-2.7-9.8-2.7-9.8-6.6-5-15.7-6.6-19 3.3z"/><path class="st2" d="M694.6 677.5c-1.7-8.3 14.1-8.3 17.4-2.5 3.3-9.9 12.4-8.3 19-3.3 1.7-7.4 17.2-9.9 21.4-2.5 4.2 7.4 10 35.6-9.8 43.8 0-21.5-11.6-41.4-11.6-41.4s13.2 34.7-7.4 43C721.9 697.3 712 675 712 675s10.8 35.6-7.4 39.7c-.1-20.7-8.3-28.9-10-37.2zM391.8 699.8s14.9 6.6 19 16.5M411.7 687.4s6.6 4.1 14.1 14.1"/><path class="st4" d="m413.9 722.6 4.2-3c-4.7-2.6-7.3-3.2-7.3-3.2s1.5 2.4 3.1 6.2zM433.5 710.1c1.3-.7 2.6-1.5 3.9-2.2-7.4-4.2-11.7-6.4-11.7-6.4s3.7 3.4 7.8 8.6z"/><path class="st5" d="M391 730.4c1.3 2.1 3.8 4.1 6.8 6.1 4.4-4.9 10-9.6 16.1-14.1-1.7-3.8-3.1-6.2-3.1-6.2-18.1-5.6-23.9 7.6-19.8 14.2z"/><path class="st1" d="M397.8 736.6c6.5 4.5 15.7 9.1 21.3 15.4 2.2-10.3-2-22.3-5.2-29.4-6.1 4.4-11.7 9.2-16.1 14zM469.6 728c-3.9-11.7-9.8-20.8-17.9-27.5-4.1 2-9 4.5-14.2 7.4 7.8 4.4 18.9 11.1 32.1 20.1zM418.1 719.6c6.1 3.4 15.7 10.1 27.5 23.2 2.6-11.7-5.5-24.6-12.1-32.8-5 3-10.3 6.1-15.4 9.6z"/><path class="st5" d="M425.8 701.5c-12.4-4.1-19 5-14.9 14.9 0 0 2.6.7 7.3 3.2 5-3.4 10.3-6.6 15.4-9.5-4.2-5.2-7.8-8.6-7.8-8.6zM451.7 700.5c-2.2-1.7-4.5-3.4-6.9-4.8-11.6-6.6-19-.8-19 5.8 0 0 4.3 2.2 11.7 6.4 5.2-2.9 10.1-5.4 14.2-7.4z"/><path class="st1" d="M338.7 676.3c-2.2 4.6-3.5 10-3.1 15.2.8 14.1 3.3 23.2 23.2 20.7-8.3-5.8-11.6-19-8.3-24 .7-1.2 1.7-2 2.8-2.6-2.9-3.6-7.6-7.8-14.6-9.3z"/><path class="st5" d="M353.8 662.6c-5.2 0-11.3 5.9-15.1 13.7 6.9 1.5 11.6 5.7 14.6 9.3 3.6-2.3 8.1-2.8 8.8-7.3.8-5.8 0-15.7-8.3-15.7z"/><path class="st2" d="M391 730.4c4.1 6.6 19.9 12.4 28.1 21.5 3.3-15.7-8.3-35.6-8.3-35.6s14.1 3.3 34.7 26.5c4.1-19-19.9-41.4-19.9-41.4s18.2 9.1 43.8 26.5c-5-14.9-13.2-25.6-24.8-32.3-11.6-6.6-19-.8-19 5.8-12.4-4.1-19 5-14.9 14.9-18-5.7-23.8 7.5-19.7 14.1zM353.8 662.6c-8.3 0-19 14.9-18.2 29 .8 14.1 3.3 23.2 23.2 20.7-8.3-5.8-11.6-19-8.3-24 3.3-5 10.8-4.1 11.6-9.9.8-5.9 0-15.8-8.3-15.8zM199.9 670c-6.6 6.6-19 7.4-19 7.4M201.6 682.5c-6.6 6.6-18.2 9.1-18.2 9.1"/><path class="st4" d="M168.8 692.1c.2.8.4 1.6.7 2.3 7.9-1.6 13.9-2.8 13.9-2.8s-6.2.6-14.6.5zM165.7 675c.2 1.6.3 3.1.5 4.5 8.6-1.1 14.6-2.2 14.6-2.2s-6.6-.6-15.1-2.3z"/><path class="st1" d="M131.3 681.6c9.3 8.3 25.6 10.3 37.6 10.5-1-3.6-1.9-7.8-2.5-12.5-10.1 1.3-23.6 2.4-35.1 2zM134.6 700.7c8.5 6.9 28.5 9.3 41.7 8.4-2.2-3.2-4.8-7.9-6.8-14.6-11.5 2.2-27.1 5.2-34.9 6.2zM132.1 662.6c4.9 5.9 21.3 10 33.7 12.4-.4-3.9-.6-8.1-.7-12.7-10.5-.2-22.3.3-33 .3z"/><path class="st5" d="M183.4 691.6s-6 1.2-13.9 2.8c2.1 6.6 4.5 11.3 6.8 14.6 6-.4 10.5-1.6 12.1-3.4 4.9-5.8 4.9-13.2-5-14zM174.3 662.6c-2.9-.2-6-.3-9.2-.3.1 4.6.2 8.9.7 12.7 8.4 1.7 15.1 2.5 15.1 2.5s5.8-14.1-6.6-14.9z"/><path class="st5" d="M183.4 691.6c5-9.9-2.5-14.1-2.5-14.1s-6 1.1-14.6 2.2c.7 4.7 1.5 8.9 2.5 12.5 8.4 0 14.6-.6 14.6-.6z"/><path class="st2" d="M174.3 662.6c-12.4-.8-28.1 0-42.2 0 8.3 9.9 48.8 14.9 48.8 14.9s-28.1 5-49.6 4.1c15.7 14.1 52.1 9.9 52.1 9.9s-35.6 7.4-48.8 9.1c12.4 9.9 48.8 10.8 53.8 5 5-5.8 5-13.2-5-14.1 5-9.9-2.5-14.1-2.5-14.1s5.8-14-6.6-14.8z"/><path class="st1" d="M161.9 565.8c-8.3 7.4-9.1 36.4-4.1 47.2 5-8.3 8.3-28.1 15.7-29 .9-.1 1.9-.1 2.9 0-.2-5.8-1.7-14.5-8.4-21.6-2.3.7-4.2 1.8-6.1 3.4z"/><path class="st5" d="M189.2 564.7c-5.8-1.1-14-4.3-21.3-2.2 6.7 7.1 8.3 15.7 8.4 21.6 6.9.8 14.8 6.2 17 3.3 2.5-3.4 3.2-21.3-4.1-22.7z"/><path class="st2" d="M193.3 587.3c2.5-3.3 3.2-21.3-4.1-22.6-7.4-1.4-19-6.4-27.3 1.1-8.3 7.4-9.1 36.4-4.1 47.2 5-8.3 8.3-28.1 15.7-29 7.4-.8 17.3 6.6 19.8 3.3z"/><path class="st1" d="M147.8 634.5c-.8 8.3-3.3 13.2-4.1 19 3.3 11.6-7.4 43-12.4 52.9-5 9.9-12.4 12.4-16.5 8.3l-5-40.5 26.5-43.8 11.5 4.1z"/><path class="st2" d="M114.7 714.7c4.1 4.1 11.6 1.7 16.5-8.3 5-9.9 15.7-41.4 12.4-52.9.8-5.8 3.3-10.8 4.1-19M99 557.5c-4.1 7.4 1.7-2.5 11.6-5M100.6 574.9c3.3-5.8 8.3-6.6 8.3-6.6M119.7 448.3s-2.5-7.4-12.4-4.1M108.1 431s5 2.5 14.9 1.7M149.5 358.2s4.1 5.8 14.1 7.4M219.8 348.2s.8-7.4-1.7-13.2M233 331.7s.8 5 2.5 11.6M394.3 355.7c1.7-5 .8-10.8.8-10.8M291.7 352.4s6.6-3.3 1.7-14.9M309.1 340.8s6.6 8.3 0 17.4M458.8 378s-25.6 0-28.1-.8-4.1-9.1.8-10.8 23.2 0 23.2 0M409.2 392.9s-20.7.8-23.2-4.1 2.5-10.8 7.4-10.8 24 3.3 24 3.3M356.3 378s-12.4-1.7-18.2.8-6.6 10.8-3.3 13.2 25.6 2.5 25.6 2.5M267.7 364s-18.2-.8-22.3.8c-4.1 1.7-1.7 5.8 4.1 7.4 5.8 1.7 21.5.8 21.5.8M209 370.6c-8.3 2.5-24.8 1.7-28.1 5s0 10.8 5.8 11.6c5.8.8 21.5 0 28.1-8.3M151.9 416.9s-9.1 15.7-7.4 19.9 9.9 3.3 12.4 2.5 7.4-20.7 7.4-20.7M139.5 472.3s-1.7 14.9 0 19 9.1 5 10.8 1.7 2.5-18.2 2.5-18.2M133.7 532.7s-2.5 21.5-.8 25.6 11.6 3.3 14.1 0 .8-24 .8-24M118.8 644.4s-2.5 22.3-2.5 25.6 10.8 6.6 11.6 3.3 2.5-18.2 2.5-18.2M252.9 435.1s-19.9 1.7-22.3 5.8-4.1 10.8 0 10.8 13.2-8.3 24.8-6.6M347.2 411.9s-17.4-3.3-26.5-1.7-9.9 11.6-4.1 10.8 23.2 1.7 23.2 1.7M421.6 422.7s-14.9-5-19.9-4.1c-5 .8-8.3 9.9-3.3 14.1 5 4.1 13.2 0 24.8 4.1M467.1 393.7s-15.7-2.5-20.7-.8-8.3 9.9-3.3 13.2c5 3.3 23.2 0 23.2 0M522.5 424.4s-17.4 18.2-17.4 21.5 5 5.8 10.8 5c5.8-.8 15.7-17.4 15.7-17.4M429.9 449.2c-4.1 5.8-16.5 5.8-21.5 8.3s-5 8.3 1.7 9.9c6.6 1.7 20.7-2.5 26.5-7.4M376.9 469s-18.2-1.7-21.5 0c-3.3 1.7-4.1 9.1 0 9.9 4.1.8 22.3 2.5 22.3 2.5M440.6 487.2c-3.3 3.3-14.9 2.5-18.2 7.4-3.3 5-3.3 8.3 1.7 9.9 5 1.7 19.9-4.1 19.9-4.1M493.6 465.7s-16.5 14.1-17.4 16.5 4.1 7.4 8.3 6.6S511 474 511 474M607.7 411.1s.8 18.2 5 19.9c4.1 1.7 14.9.8 14.9-3.3s-5-17.4-5-17.4M603.6 483.1s-5 12.4-4.1 16.5c.8 4.1 6.6 7.4 9.9 5 3.3-2.5 5.8-14.1 5.8-14.1M613.5 557.5s5 14.1 9.1 14.9c4.1.8 8.3-2.5 8.3-6.6s-5-12.4-5-12.4M640.8 617.9s2.5 14.9 5.8 18.2 10.8 0 11.6-4.1c.8-4.1-2.5-13.2-2.5-13.2M669 654.3s19 2.5 20.7 0c1.7-2.5.8-5.8-.8-9.1s-19.9-.8-19.9-.8M677.2 450s-5 25.6-3.3 29 9.1 2.5 11.6 0 6.6-29 6.6-29M703.7 548.4s12.4 17.4 16.5 19c4.1 1.7 10.8-5.8 7.4-9.1S715.3 541 715.3 541M744.2 589.8s17.4 8.3 22.3 5.8c5-2.5 5-8.3 1.7-9.9s-20.7-7.4-20.7-7.4M175.1 426.8l24.8-18.2M196.6 426.8l-24.8 19.1M189.2 446.7l-20.7 17.4M189.2 466.5l-16.6 19.9M194.9 480.6l-13.2 14.9M203.2 488.9l-10.7 14.9M213.1 496.3l-8.2 15.7M223.9 503.8l-9.1 14M236.3 512.9l-9.9 12.4M246.2 517.8l-9.1 13.3M257.8 523.6l-9.9 13.3M266.9 529.4l-6.6 10.8M281 535.2l-8.3 12.4M292.6 541l-8.3 10.8M305.8 547.6l-8.3 10.8M305 562.5l12.4-8.3M297.5 564.2l-3.3 12.4M281.8 562.5l-5 14.1M271.9 562.5l-6.6 14.9M258.6 564.2l-4.1 10.7M246.2 564.2l-4.9 11.5M233 563.3l-7.4 15.7M216.5 565l-10 14.9M204 565.8l-7.4 10.8M188.3 595.6l15.7 9.1M187.5 607.2l14.9 7.4M186.7 620.4l12.4 10.8M184.2 633.6l12.4 10M182.5 646.9l10.8 9.1M179.2 658.5l10.8 9.1M279.3 466.5l.9-14M297.5 479l-1.6-23.2M311.6 488.9v-16.6M324 496.3l-1.7-13.2M341.4 504.6l-2.5-17.4M359.6 512.9l-2.5-18.2M381.9 522l-3.3-20.7M406.7 530.2l-3.3-18.2M425.8 534.4l-3.4-19M447.3 539.3l-3.4-19M466.3 538.5l-3.3-18.2M484.5 536l-6.6-18.2M498.5 531.1l-4.9-14.9M511.8 524.5l-5-12.5M526.7 517l-5.8-12.4M540.7 506.3l-9.1-10.8M549.8 494.7l-8.2-9.1M555.6 478.1l-9.1-7.4M558.1 461.6l-6.6-7.5M565.6 447.5l-10.8-9.1M587.9 438.4s-13.2-.8-19.9.8M584.6 450s-11.6-1.7-20.7 5M582.9 462.4c-15.7-.8-22.3 6.6-22.3 6.6M575.5 474.8c-10.8 1.7-17.4 6.6-17.4 6.6M571.3 489.7c-10.8 1.7-14.9 6.6-14.9 6.6M573 498.8c-10.8 1.7-15.7 6.6-15.7 6.6M574.7 511.2c-10.8 1.7-15.7 5.8-15.7 5.8M578.8 523.6c-11.6 0-17.4 6.6-17.4 6.6M582.9 535.2c-6.6 2.5-14.9 7.4-14.9 7.4M586.2 543.5c-6.6 2.5-14.1 9.1-14.1 9.1M593.7 551.8c-6.6 2.5-14.1 11.6-14.1 11.6M600.3 562.5c-6.6 2.5-14.9 9.9-14.9 9.9M606.1 574.1c-6.6 2.5-14.1 8.3-14.1 8.3M611.1 585.7c-6.6 2.5-14.1 9.9-14.1 9.9M616 598.1c-7.9 3-7.3 2.6-14.1 7.4M618.5 610.5l-11.6 4.9M623.5 619.6l-9.1 6.6M628.4 630.3l-10.7 6.7M630.9 641.1l-14.1 7.4M631.7 652.7l-9.9 5.8M654.1 665.9l2.5 16.6M664.8 665.9l1.7 16.6M677.2 664.3l1.7 17.3M709.5 600.6l9.1-14.9M697.1 589.8l9.1-17.4M689.6 579.9l8.3-17.4M679.7 569.9l9.1-16.5M671.4 560l7.5-15.7M659.9 548.4l12.4-14M649.1 538.5l14.9-13.2M640.8 523.6l18.2-12.4M635.9 509.6l18.2-11.6M637.5 489.7l19.9-11.6M644.1 467.4l15.8-10M648.3 449.2l13.2-7.5M652.4 432.6l14.1-9.9M654.9 416.1l11.6-9.9M262.8 502.9s14.1 13.2 18.2 13.2 6.6-5.8 5-9.1c-1.7-3.3-14.1-19.9-14.1-19.9M326.5 529.4s16.5 12.4 17.4 16.5c.8 4.1-3.3 9.1-6.6 8.3-3.3-.8-17.4-9.9-17.4-9.9M381.9 535.2s17.4 9.1 20.7 8.3c3.3-.8.8-12.4.8-12.4M414.2 551.8s11.6 10.8 14.1 9.1 6.6-7.4 5-11.6c-1.7-4.1-9.9-8.3-9.9-8.3M211.5 609.7s-2.5 14.1-2.5 19c0 5 9.1 8.3 11.6 5 2.5-3.3 3.3-19.9 3.3-19.9M366.2 638.6l7.4 13.2M374.5 631.2l7.4 13.2M381.1 622.9l7.4 13.2M391.8 610.5l9.1 11.6M399.3 598.1l10.7 12.4M407.6 589l14 11.6M411.7 582.4l21.5 14M449.7 595.6s-10.8 10.8-10.8 14.1 7.4 9.9 11.6 6.6 14.1-17.4 14.1-17.4M380.3 568.3l2.4-14.1M392.7 573.3l4.1-16.6M404.2 576.6l5.8-14.9M414.2 579.9l9.9-11.6M363.7 700.7l11.6-10.8M372 709.8l11.6-8.3M380.3 717.2l9.9-8.3"/><circle class="st6" cx="266.9" cy="343.3" r="16.5"/><circle class="st6" cx="128.4" cy="401.6" r="18.6"/><circle class="st6" cx="105.6" cy="603.9" r="15.7"/><circle class="st6" cx="335.6" cy="571.6" r="13.2"/><circle class="st6" cx="245.8" cy="477.7" r="13.6"/><circle class="st6" cx="355.4" cy="432.6" r="23.2"/><circle class="st6" cx="421.2" cy="634.1" r="14.5"/><circle class="st6" cx="610.2" cy="533.6" r="14.9"/><circle class="st6" cx="688.4" cy="425.6" r="15.3"/><path class="st7" d="M479.5 352.4s19.9 98.4 148.9 62c82.7-26.5 91.8-113.3 91.8-113.3l-22.3-4.1-107.5 15.7-110.9 39.7z"/><path class="st3" d="M523.4 340.8s-34.7 29.8-37.2 48c23.2-5 50.5-20.7 50.5-20.7l12.4 5s-5 35.6-2.5 50.5c15.7-16.5 29.8-38.9 29.8-38.9h10.8s15.7 29 22.3 37.2c9.9-14.9 14.1-43.8 14.1-43.8l19.9-9.9s24 16.5 57.1 14.9c-15.7-23.2-38.1-35.6-38.1-35.6l1.7-11.6s33.1.8 52.1 1.7c-12.4-14.1-39.7-30.6-39.7-30.6l-21.5.8-131.7 33z"/><path class="st8" d="M516.7 347.4s12.4 47.2 85.2 37.2 65.4-60.4 65.4-60.4l-62.9-11.6-87.7 34.8z"/><path class="st3" d="m578.2 346.6-2.2 22.5c5 1.2 10.6 1.9 16.6 2l-1.2-22.6c-4.8-.3-9.2-.9-13.2-1.9z"/><path class="st7" d="m655.7 330.1-13.2-5.5-1.7 8.8s-2.5 2.3-7.4 5.1l9.6 16.8c13.5-11.6 12.7-25.2 12.7-25.2zM557.3 337.5l3.5-16-1.8.3-22.3 22.3s12.8 18.8 39.5 25l2.2-22.5c-13.3-3.1-21.1-9.1-21.1-9.1z"/><path class="st3" d="m621.4 343.9 10 18.9c4.7-2.2 8.5-4.8 11.5-7.4l-9.5-16.9c-3.1 1.8-7 3.7-12 5.4z"/><path class="st7" d="M601.1 348.2c-3.4.3-6.6.4-9.7.2l1.2 22.6c5 .1 10.3-.3 15.9-1.3 9.3-1.6 16.9-4.1 22.9-6.9l-10-18.9c-5.5 2-12.3 3.6-20.3 4.3z"/><path class="st0" d="M545.7 273c31.8 6 66.7-.2 92.7-7.7l-1.7-27.1s22.3-16.5 21.5-43c-.8-26.5-16.5-47.2-16.5-47.2s-14.9 7.4-37.2 30.6-12.5 50.5-12.5 50.5-23.2-9.9-67.8-16.5c-13.1-1.9-24.3-2.5-33.8-2.2 3.1 21.4 14.5 54.9 55.3 62.6z"/><path class="st1" d="M545.7 273c-40.8-7.7-52.2-41.2-55.3-62.6-22.9.6-34.9 5.5-34.9 5.5l-.6.2-4.4-1.8s-8.7 4.4-18 9.5l-11 3.7-.5 2.9c-3.1 2-5.9 3.8-7.8 5.4-9.1 7.4-5 25.6-5 25.6s27.3-2.5 54.6 16.5 55.4 30.6 55.4 30.6l-15.7 10.8s-65.4 2.5-75.3 5.8c-9.9 3.3-5.8 27.3-1.7 29 4.1 1.7 118 4.1 144.9-23.2 5.2 3.8 14.5 8.2 28.8 6.7 24-2.5 42.2-19.9 42.2-19.9l-3.3-52.4c-25.7 7.4-60.6 13.7-92.4 7.7z"/><path class="st2" d="M658.2 195.2c-.8-26.5-16.5-47.2-16.5-47.2s-14.9 7.4-37.2 30.6-12.5 50.5-12.5 50.5-23.2-9.9-67.8-16.5c-44.7-6.6-68.7 3.3-68.7 3.3l-.6.2-4.4-1.8s-8.7 4.4-18 9.5l-11 3.7-.5 2.9c-3.1 2-5.9 3.8-7.8 5.4-9.1 7.4-5 25.6-5 25.6s27.3-2.5 54.6 16.5 55.4 30.6 55.4 30.6l-15.7 10.8s-65.4 2.5-75.3 5.8c-9.9 3.3-5.8 27.3-1.7 29 4.1 1.7 118 4.1 144.9-23.2 5.2 3.8 14.5 8.2 28.8 6.7 24-2.5 42.2-19.9 42.2-19.9l-5-79.4c.3-.1 22.6-16.6 21.8-43.1z"/><path class="st2" d="M567.2 263s29.8 38.9 4.1 67c-25.6 28.1-141.5 25.6-145.6 24M500.2 243.2c43-8.3 69.5 0 69.5 0"/><path class="st3" d="M516.7 240.7c33.3-3.7 53 2.5 53 2.5s4.1 26.5-25.6 26.5-34-19.1-27.4-29z"/><path class="st3" d="M532.9 239.5c-.7 1.5-1.2 3.1-1.2 4.9 0 5.7 4.6 10.3 10.3 10.3 5.7 0 10.3-4.6 10.3-10.3 0-1.6-.3-3-1-4.3-5.1-.5-11.3-.7-18.4-.6z"/><path class="st2" d="m590.4 209.3 14.9 14M594.5 193.6l15.7 15.7M602 182l10.7 12.4M611.1 173.7l9.9 14.1M618.5 166.3l7.4 14.8M626.8 158.8l4.9 14.9M641.7 148.1l.8 22.3M563.1 275.5l14 5.7M570.5 292l10.8 5M566.4 306.1l14 4.9M563.1 316.8l12.4 4.2M558.1 325.1l9.1 5.8M550.7 331.7l4.1 8.3M540.7 336.7l4.2 7.4M432.4 346.6l2.4 7.4M444.8 347.4l3.3 6.6M459.7 347.4l2.4 7.5M472.1 346.6l4.1 6.6M484.5 346.6l3.3 5.8M496.9 345.8l2.5 6.6M508.5 344.9l4.9 6.7M523.4 340.8l4.1 8.3"/><path class="st7" d="M377.8 320.1c-2.5 3.3 7.4 18.2 13.2 16.5s27.3-9.1 36.4-11.6c9.1-2.5 78.6 1.7 78.6 1.7l19.9-17.4-28.1-13.2s-38.1-5-66.2.8c-28.2 5.9-51.3 19.9-53.8 23.2z"/><path class="st3" d="M408.4 261.4s-5 32.3 22.3 43.8c0-8.3-.8-12.4-.8-12.4l-.8-37.2-20.7 5.8z"/><path class="st3" d="M423.3 256.4s-6.6 36.4 17.4 48c-.8-24.8 1.7-40.5 1.7-40.5l-19.1-7.5zM451.4 269.7s-2.5 19 3.3 31.4c5-9.1 12.4-23.2 12.4-23.2s-3.3 17.4 5 25.6c5-7.4 9.9-15.7 9.9-15.7L464.6 268l-13.2 1.7z"/><path d="M545.7 299.4c-7.4-7.4-105.9-55.4-132.4-63.7-9.1 7.4-5 25.6-5 25.6s27.3-2.5 54.6 16.5 55.4 30.6 55.4 30.6l-15.7 10.8s-65.4 2.5-75.3 5.8c-3.9 1.3-5.6 5.8-6 10.9 17.9.7 108.8 4 117.7-4.3 10-9 14.1-24.7 6.7-32.2z" style="fill:#ffce00"/><circle class="st5" cx="422.9" cy="248.6" r="5.4"/><circle class="st5" cx="446.4" cy="258.9" r="5.4"/><circle class="st5" cx="464.6" cy="264.7" r="5.4"/><circle class="st5" cx="482.8" cy="279.6" r="5.4"/><circle class="st5" cx="501" cy="285.4" r="5.4"/><circle class="st5" cx="520.1" cy="294.5" r="5.4"/><circle class="st5" cx="537.4" cy="302.8" r="5.4"/><circle class="st5" cx="532.5" cy="317.6" r="5.4"/><circle class="st5" cx="495.2" cy="328.4" r="5.4"/><circle class="st5" cx="473.7" cy="327.6" r="5.4"/><circle class="st5" cx="454.7" cy="328.4" r="5.4"/><circle class="st5" cx="437.3" cy="328.4" r="5.4"/><path class="st2" d="M545.7 299.4c-7.4-7.4-105.9-55.4-132.4-63.7-9.1 7.4-5 25.6-5 25.6s27.3-2.5 54.6 16.5 55.4 30.6 55.4 30.6l-15.7 10.8s-65.4 2.5-75.3 5.8c-3.9 1.3-5.6 5.8-6 10.9 17.9.7 108.8 4 117.7-4.3 10-9 14.1-24.7 6.7-32.2z"/><path class="st3" d="M499 299.4c11.5 6 19.4 9.2 19.4 9.2s-2.5 11.6 5 32.3c-16.6-3.4-29-29.9-24.4-41.5z"/><path class="st8" d="m405.1 196.9-3.3-47.2s34.7-5 67 20.7c-6.6 7.4-16.5 32.3-16.5 32.3l-47.2-5.8z"/><ellipse class="st1" cx="425.3" cy="211.3" rx="29.4" ry="26.9"/><path class="st5" d="M407.6 191.1s-.8 18.2 4.1 19.9 24.8-2.5 29-9.1c-10-11.7-33.1-10.8-33.1-10.8z"/><ellipse class="st2" cx="425.3" cy="211.3" rx="29.4" ry="26.9"/><path class="st3" d="M664.8 288.7s25.6-12.4 29.8-9.9c4.1 2.5 8.3 29 5 30.6s-31.4 0-31.4 0l-3.4-20.7z"/><path class="st7" d="M622.6 240.7c-13.2 5.8-5.8 24.8.8 31.4-.8 2.5-2.5 5-1.7 11.6s13.2 10.8 16.5 22.3-3.3 28.1.8 30.6 29.8-9.1 32.3-19c2.5-9.9-9.9-72-14.9-76.9s-20.5-5.8-33.8 0z"/><path class="st3" d="M602.8 304.4c-1.7 3.3 9.1 29 12.4 28.1 3.3-.8 29.8-10.8 33.1-24.8 1.7-7.4-6.6-14.9-10.8-15.7-4.1-.8-33.1 9.1-34.7 12.4z"/></svg>