<svg version="1.1" id="Calque_1" xmlns="http://www.w3.org/2000/svg" x="0" y="0" viewBox="0 0 900 900" style="enable-background:new 0 0 900 900" xml:space="preserve"><style>.st0,.st1,.st10,.st2,.st3,.st4,.st5{fill:#fff;stroke:#000;stroke-width:4.6503;stroke-linecap:round;stroke-linejoin:round}.st1,.st10,.st2,.st3,.st4,.st5{fill:red}.st10,.st2,.st3,.st4,.st5{fill:none}.st10,.st3,.st4,.st5{fill:#ffce00}.st10,.st4,.st5{fill:#1263a9}.st10,.st5{fill:#f50}.st10{fill:#0064b7}.st11{fill:#fff}.st12{fill:#0064b7}.st14{fill:#262626;stroke:#000;stroke-width:4.6503;stroke-linecap:round;stroke-linejoin:round}</style><path class="st0" d="m670 445.9-7.6 147.4-135.1 17.2 2.8-168.7z"/><path class="st1" d="m651.4 582.7-98.3-10.6-6.6 25.7 5.2 42.2 101.1-.4z"/><path class="st0" d="m648 578.2-84-7.5-.7 7.9 84.4 6.5zM644.9 612.2l-90.5.3v26.1l93.6-1.4z"/><path class="st2" d="m635 620.8-5.2 13M626.8 620.8l-5.2 13M618.5 620.8l-5.1 13M610.3 620.8l-5.1 13M602.1 620.8l-5.2 13M593.8 620.8l-5.1 13M585.6 620.8l-5.1 13M576 620.8l-5.1 13M566.4 620.8l-5.1 13"/><path class="st3" d="m791.8 744 2.7 93.2-68.1-3.2-2.7-40.2-37.5-1.4-.9-21.9-34.8-1.8.5-33.9 101.5 1.8z"/><path class="st1" d="m791.8 744 2.3 76.8-53.9-2.8-6.5-39.3-33.8-.9-2.7-19.7-32.5-2.7-.9-20.4 88.7 1.6z"/><path class="st3" d="m593.8 734.4.5 45.2-46.6.9.4 24.7-37 1.4-.4 33.8-62.2-.9.4-32.5-.9-80.4 26.1 1.4z"/><path class="st1" d="m579.2 733.6.9 36.9h-48l-1.3 21.9-38-.9.9 35.7-45.1.9.3-21.1-.9-80.4 26.1 1.4z"/><path class="st4" d="M747.5 781.2c0 7.7 6.2 13.9 13.9 13.9s13.9-6.2 13.9-13.9-6.2-13.9-13.9-13.9-13.9 6.2-13.9 13.9z"/><path class="st2" d="M756.1 781.2c0 2.9 2.4 5.3 5.3 5.3s5.3-2.4 5.3-5.3-2.4-5.3-5.3-5.3c-2.9.1-5.3 2.4-5.3 5.3z"/><path class="st4" d="M469.7 767.7c0 7.7 6.2 13.9 13.9 13.9s13.9-6.2 13.9-13.9-6.2-13.9-13.9-13.9-13.9 6.2-13.9 13.9z"/><path class="st2" d="M478.4 767.7c0 2.9 2.4 5.3 5.3 5.3s5.3-2.4 5.3-5.3-2.4-5.3-5.3-5.3c-2.9.1-5.3 2.4-5.3 5.3z"/><path class="st3" d="m775.2 397.9 14.4 5.5-26.1 66.5 33.3 12-20.9 77.5 33.3 12.3-19.5 72s-147.8 51.4-148.5-6.2c-.7-57.6 18.5-181 18.5-181l30.5-91.2 85 32.6z"/><path class="st1" d="m773.5 639.3 13.4-55.5-33.9-13.4 20.9-72.4-27.4-11.3 17.8-74.7-51.4-30.9L685 378l-5.5 44.6s3.1 15.1 3.8 17.5c-5.1 8.2-27.4 196.1-27.4 196.1l117.6 3.1z"/><path class="st4" d="M698.8 527.8c0 9.3 7.5 16.8 16.8 16.8s16.8-7.5 16.8-16.8-7.5-16.8-16.8-16.8-16.8 7.6-16.8 16.8z"/><path class="st2" d="M709.9 527.8c0 3.1 2.5 5.7 5.7 5.7s5.7-2.5 5.7-5.7-2.5-5.7-5.7-5.7c-3.1.1-5.7 2.6-5.7 5.7z"/><path class="st3" d="M690.5 596.4c0 9.3 7.5 16.8 16.8 16.8s16.8-7.5 16.8-16.8-7.5-16.8-16.8-16.8c-9.2 0-16.8 7.5-16.8 16.8z"/><path class="st2" d="M701.3 596.4c0 3.3 2.7 6 6 6s6-2.7 6-6-2.7-6-6-6-6 2.7-6 6z"/><path class="st3" d="m800.5 638.4 1.4 109.3s-104.2-9.1-180.1-10.1c-75.9-.9-166.9-.5-166.9-.5l5-55.3s48.9-43 72.7-48.9c23.8-6 267.9 5.5 267.9 5.5z"/><path class="st1" d="m788.1 651.1-.5 77.3-166-8.2-148.6.9 1.8-35.7 59.9-41.1s44.4 0 94.2.9c50 .9 159.2 5.9 159.2 5.9z"/><path class="st3" d="M712.8 686.8c0 9.6 7.8 17.3 17.3 17.3 9.6 0 17.3-7.8 17.3-17.3 0-9.6-7.8-17.3-17.3-17.3-9.5-.1-17.3 7.7-17.3 17.3z"/><path class="st2" d="M724 686.8c0 3.4 2.8 6.2 6.2 6.2s6.2-2.8 6.2-6.2c0-3.4-2.8-6.2-6.2-6.2-3.5 0-6.2 2.8-6.2 6.2z"/><path class="st4" d="M626.3 682.1c0 9.6 7.8 17.3 17.3 17.3 9.6 0 17.3-7.8 17.3-17.3 0-9.6-7.8-17.3-17.3-17.3-9.6 0-17.3 7.8-17.3 17.3z"/><path class="st2" d="M637.4 682.1c0 3.4 2.8 6.2 6.2 6.2 3.4 0 6.2-2.8 6.2-6.2 0-3.4-2.8-6.2-6.2-6.2-3.4.1-6.2 2.8-6.2 6.2z"/><path class="st3" d="M545.3 683.5c0 9.6 7.8 17.3 17.3 17.3 9.6 0 17.3-7.8 17.3-17.3 0-9.6-7.8-17.3-17.3-17.3s-17.3 7.7-17.3 17.3z"/><path class="st2" d="M556.5 683.5c0 3.4 2.8 6.2 6.2 6.2s6.2-2.8 6.2-6.2c0-3.4-2.8-6.2-6.2-6.2-3.5 0-6.2 2.8-6.2 6.2z"/><path class="st0" d="M354.9 617.7c-7.9 114.9-62.7 194.8-62.7 194.8s127.2 44.2 152.2 9.3c18.9-26.1 13.8-51.4 14.1-81.6.3-30.9 1.4-55.5 1.4-55.5l22.6-83.3L500 514l3.8-25.7-25.4-3.8c-.1-.2-115.7 18.3-123.5 133.2z"/><path class="st1" d="M354.9 617.7c-5.4 78.3-32.6 140.4-49.4 172 0 0 91.2 27.6 113.5 7 14.1-12.3 17.8-23 19.9-54.9 2-30.9 2.1-54.2 8.9-59 6.8-4.8 34.6-81.6 34.6-81.6l17.5-87.4 3.8-25.7-25.4-3.8s-115.6 18.5-123.4 133.4z"/><path class="st0" d="M354.9 617.7c-4.2 61-21.6 112.2-37.1 146.7 0 0 67.3 32.3 86.1 12 14.1-12.3 18.2-54.2 23.7-85.7s13-61.7 38.1-69.9c12.7-4.5 16.8-19.5 16.8-19.5l17.5-87.4 3.8-25.7-25.4-3.8c-.1-.1-115.7 18.4-123.5 133.3z"/><path class="st0" d="M362.4 618.7c-4.2 61-14.7 106-30.2 140.6 0 0 48.7 25 64.8 9.3 14-12.3 16.5-52.1 22-83.7 5.5-31.5 18.5-66.9 47.7-73 12.7-4.5 15.8-10.6 15.8-10.6l17.5-87.4 3.8-25.7-25.4-3.8c-.1-.1-108.1 19.4-116 134.3z"/><path class="st2" d="m309.5 801.1-6.4 13.7M315.9 803.9l-5.3 12.3M322.8 806.1l-4.6 12.4M330.1 807.5l-5.1 14.2M336.7 809.7l-3.8 13.7M344.2 812.1l-3.2 13.2M352.5 813.9l-3.1 12.6M360.4 815.8l-2.8 12.7M367.6 816.5l-1.9 13.9M375.3 817.6l-1.3 13.7M382.6 818.5l-.9 14.2M390.9 819.4l-.5 14.2M400.2 819.1v14.1M409 818.3l1.6 15.2M417.6 817.6l3.3 14.5M424.8 815.5l6.9 13.7M432.7 812.1l7.9 12M436.1 805.7l11.3 8.8M440.2 798.4l11.5 8.2M443.5 790.1l11.4 6.4M445.7 781.5l12.4 4.9M446.4 773.3l11.2 2.2M447.1 763.7l10.5 1.3M447.8 754.1l10.3.8M447.4 745.9l9.8.8M447.4 736.3l10.3.3M448.1 727.7l10.4.3M448.1 718.5l9.6 1M448.1 710.3l9.1.3M448.1 702.7l10.6.1M449.2 694.5l8.9.1"/><path class="st5" d="m574.7 499.4-20.2 90.2s4.1 36 3.8 42.9c-.4 6.8-18.2 15.1-19.9 3.4v-13.7s-1.7 71-3.1 73.4c-1.4 2.4-87.1-9.3-87.4-12.7-.2-1.5 12.9-45.6 25-92.2 15.7-60.2 31.5-126.2 31.5-126.2l51.8 7.9 20.2 14.1-1.7 12.9z"/><path class="st2" d="m538.5 579.8-.2 42.3"/><path class="st3" d="m516.7 464.4-46.6 223.7c-12.7-2.1-22.2-4.2-22.3-5.3-.2-1.5 12.9-45.6 25-92.2 15.7-60.2 31.5-126.2 31.5-126.2h12.4z"/><path class="st2" d="m480.5 678-2.2 10M487 679l-2.2 10M493.5 680.7l-2.2 10M499.9 683.2l-1.4 8.2M506.4 683.8l-1 8.3M513.3 684.5l-1.1 8.3M519.1 685.2l-.7 8.9M526.4 686.5l-.8 8.7M484.2 660.3l-.1 10.9M490.7 663l-.1 10.9M497.2 664v10.9M504 665.3l-.7 11M510.9 665.7l-1.7 11.6M517.4 668.1l-1.4 11.3M523.6 669.4l-1.4 11.4M529.7 671.2l-1.3 11.3M487.9 638.2v13.4M495.8 639.3v13.3M503.7 641.3v13.4M512.2 643v13.4M521.8 644.8v13.3M529 645.4v13.4M493.7 613.2l-.3 11.3M499.9 613.9l-.3 11.3M509.5 615.6l-.3 11.3M516 617.3l-.3 11.3M522.5 619.4l-.3 11.3M529.7 620.1l-.3 11.3M500.2 585.8l-.6 11.3M507.1 586.1l-.7 11.3M516.4 588.9l-.7 11.3M522.5 591.9l-.7 11.4M531.5 595.7l-.7 11.3M548.9 640.3l-4.8-14.4M555.5 636.2l-6.2-20.2M550.6 607.7l-1.3-10.6M544.1 608.1l-.3-10.3M511.2 522l4.1-12.3M521.5 501.1l4.1-9.6M515.7 498.7l2.4-9.6"/><path class="st5" d="M443.3 436.3c-27.8 31.5-63.8 47.3-64.8 49-1 1.7 1 12.3 3.1 13.4 2.1 1 16.5-4.5 16.5-4.5-32.6 36.7-50.4 43.2-53.1 44.9s-.7 7.9 1.4 9.6c2.1 1.7 8.2.3 27.8-12.3-16.1 18.2-61.7 46.6-63.4 50.1-.9 1.9 24 19.4 47 37 19.1 14.7 36.7 30.3 38.4 30.2 3.8-.4 104.6-165.3 104.6-165.3l7.2-32.2-25-29.2c-.2 0-33.2.7-39.7 9.3z"/><path class="st3" d="M494.8 457.6S424.2 573.5 375 637.4c11.4 9.3 19.9 16.5 21 16.3 3.8-.4 104.6-165.3 104.6-165.3l7.2-32.2-13 1.4z"/><path class="st3" d="M472.7 478.1c0 8.1 6.5 14.6 14.6 14.6s14.6-6.5 14.6-14.6-6.5-14.6-14.6-14.6-14.6 6.6-14.6 14.6zM435.3 427.7c0 8.1 6.5 14.6 14.6 14.6s14.6-6.5 14.6-14.6-6.5-14.6-14.6-14.6-14.6 6.6-14.6 14.6zM416.6 498.3c0 6.6 5.4 12 12 12s12-5.4 12-12-5.4-12-12-12c-6.6.1-12 5.4-12 12zM360.7 493.6c0 5.7 4.6 10.3 10.3 10.3s10.3-4.6 10.3-10.3-4.6-10.3-10.3-10.3-10.3 4.6-10.3 10.3zM325 548.7c0 5.7 4.6 10.3 10.3 10.3s10.3-4.6 10.3-10.3c0-5.7-4.6-10.3-10.3-10.3-5.7.1-10.3 4.7-10.3 10.3z"/><path class="st2" d="m457 497.7 6.2-9.3M452.2 492.2l6.9-9.6M448.1 486.4l5.3-8.4M442.2 481.7l6.4-9.9M436 476.9l8-9.4M430.9 470.7l8-8.7M425.8 465.9l7.6-8.7M453.3 450l7.3-8.7M458.8 454.5l7-8.1M463.9 461.3l7-8.3M469.3 468l6.4-9.9M440.7 522.9l7.2-11M435.9 518.1l7.2-11M411.4 495.9l6.3-9.4M405.6 490.5l7.5-9.6M399.4 484.6l9.3-8.2M425.8 546l5.4-8.3M420.3 542.2l5.4-8.3M415.2 538.1l5.3-8.3M409.7 532.9l5.4-8.3M403.8 528.5l5.4-8.3M398.3 523l6.6-8.2M393.6 518.5l6.9-7.5M388.1 514.1l6.9-7.5M408.8 575.3l7.2-11.2M402.2 570.2l7.3-11.2M397.4 565.4l7.3-11.2M392.6 559.2l6.8-9.8M386.8 554.4l6.5-9.8M381 551l7.2-11.2M375.2 545.8l8.5-10.8M374.1 536.4l4.8-5.1M365.5 535l8.2-7.9M389.4 602l7.2-11M384.3 596.5l7.1-11M378.4 592.7l7.2-11M371.2 587.6l7.2-11M364.7 582.4l7.2-11M358.6 576.9l8.6-10.7M353.1 572.8l8.6-10.3M347.7 568l8.9-9.3M370.3 631.4l8.2-12.6M365.2 626.9l8.1-12.6M360 621.8l8.2-12.6M354.5 618.7l8.2-12.6M349 614.6l8.2-12.6M344.2 610.8l8.2-12.6M337.4 606.7l10.2-13M331.9 602.6l10.2-12.6M325 597.1l11.4-11.7M318.5 590.9l11.7-9.6"/><path class="st3" d="M367.6 567.8c0 7.7 6.2 13.9 13.9 13.9s13.9-6.2 13.9-13.9-6.2-13.9-13.9-13.9-13.9 6.2-13.9 13.9z"/><path class="st4" d="M541.7 479.2s-30.9 3.8-59.3-29.8c-28.5-33.6-20.9-63.1-20.9-63.1l53.8 4.8 44.9 59.3-18.5 28.8z"/><path class="st2" d="M551 458.2s-31.9-3.1-49-18.9c-17.1-15.8-15.4-47-15.4-47M530.8 467.1c0 2.3 1.8 4.1 4.1 4.1s4.1-1.8 4.1-4.1-1.8-4.1-4.1-4.1-4.1 1.9-4.1 4.1zM499.6 454.8c0 2.3 1.8 4.1 4.1 4.1s4.1-1.8 4.1-4.1-1.8-4.1-4.1-4.1-4.1 1.8-4.1 4.1zM477.6 429.1c0 2.3 1.8 4.1 4.1 4.1s4.1-1.8 4.1-4.1-1.8-4.1-4.1-4.1c-2.2 0-4.1 1.8-4.1 4.1z"/><circle class="st2" cx="474.2" cy="399.6" r="4.1"/><path class="st2" d="m462.5 409.9 24.7-.4M464.2 417.4l24.7-1.7M481.1 445.9l14.4-13M485.2 451.7l14.4-14.4M514 473.7l6.5-22.3M521.2 476.1l5.8-22.3"/><path class="st3" d="M555.1 451.7s-28.1-2.7-45.3-17.5c-17.1-14.7-13-41.1-13-41.1l35-2.7 41.5 24.3-18.2 37z"/><path class="st1" d="M551.7 430.1c-34.6-3.8-32.6-29.5-32.6-29.5l6.2-16.8 42.2 16.8-6.2 25.7s-5.2 0-9.6 3.8z"/><path d="M634.5 201.3s-3.2-37 1.8-48.9c5-11.9 14.2-18.7 24.7-16.9s10.5 11.9 8.7 15.5c-1.8 3.7-16.5 11.4-16.9 16-.5 4.6 10.1 12.3 23.8 10.1 20.1-3.7 39.3-38.9 28.8-67.2s-57.6-46.2-94.2-38.4c-36.6 7.8-65.8 87.3-65.8 87.3l20.1 41.1-55.3-22.9 124.3 24.3z" style="stroke:#000;stroke-width:4.6503"/><path d="M634.5 201.3s-3.2-37 1.8-48.9c5-11.9 14.2-18.7 24.7-16.9s10.5 11.9 8.7 15.5c0 0 13.7-.5 10.1-21.5s-33.4-27.4-47.1-21c-27.4 11-37 77.7-37 77.7l17.4 21.5 21.4-6.4z" style="fill:#fff;stroke:#000;stroke-width:4.6503"/><path d="M676.6 167c-5 .9-11 2.3-11.4-1.8-.5-4.1 25.1-10.5 24.2-31.5-.9-21-32-45.7-59.4-34.3-27.4 11.4-43.9 83.2-43.9 83.2s-22 1.8-15.1-5c6.8-6.8 21-77.7 54.4-87.8 33.4-10.1 74.5 13.3 72.2 44.4-.9 17.7-16 31.9-21 32.8z" style="fill:#fff;stroke:#fff;stroke-width:3.1002"/><path class="st3" d="m537.2 155.1-42.5-85.9-31.6 19.2 23.3 48.9 48.5 24.2zM499.9 636.3c0 5.6 4.5 10.1 10.1 10.1s10.1-4.5 10.1-10.1-4.5-10.1-10.1-10.1-10.1 4.6-10.1 10.1zM649.1 476.9c0 6.7 5.4 12.2 12.2 12.2 6.7 0 12.2-5.4 12.2-12.2 0-6.7-5.4-12.2-12.2-12.2-6.8.1-12.2 5.5-12.2 12.2z"/><path class="st4" d="M649.1 425c-10.6 11.7-22.6 19.5-22.6 19.5l-.4 42.2s35-19.9 47.7-48.3c-7.9-16.2-14.1-25.1-24.7-13.4z"/><path class="st2" d="m657.4 460.5-14.2-17.3M651.4 466l-13.2-17.8M656 428c-11.9 19.2-32 28.8-32 28.8M655.1 442.7c0 2.3 1.8 4.1 4.1 4.1s4.1-1.8 4.1-4.1-1.8-4.1-4.1-4.1c-2.2 0-4.1 1.8-4.1 4.1zM633.2 464.6c0 2.3 1.8 4.1 4.1 4.1s4.1-1.8 4.1-4.1-1.8-4.1-4.1-4.1-4.1 1.9-4.1 4.1z"/><path class="st3" d="m458.1 89.7-210.8 123-19.6-46.1 208-107z"/><path class="st1" d="m353.5 150.7-106.2 62-19.6-46.1 103.7-53.4z"/><path d="M308.6 154.1s-41.8 22.3-43.2 22.3-4.5-6.5-3.4-8.2c1-1.7 42.2-21.3 42.2-21.3l4.4 7.2z" style="fill:#590000;stroke:#000;stroke-width:4.6503;stroke-linecap:round;stroke-linejoin:round"/><path class="st3" d="M191 234s-84.7 59.3-87.8 58.6c-3.1-.7-29.8-52.5-28.1-53.8 1.7-1.4 103.2-39.1 103.2-39.1L191 234z"/><path class="st1" d="M145.9 265.2c-20.8 14.2-41.2 27.8-42.7 27.5-3.1-.7-29.8-52.5-28.1-53.8.8-.6 20.7-8.2 42.9-16.6l27.9 42.9z"/><path class="st0" d="M289.4 95.2c0 12.6 10.2 22.9 22.9 22.9 12.6 0 22.9-10.2 22.9-22.9 0-12.6-10.2-22.9-22.9-22.9-12.7.1-22.9 10.3-22.9 22.9z"/><path class="st2" d="M313.4 108.8c0 3 2.5 5.5 5.5 5.5s5.5-2.5 5.5-5.5-2.5-5.5-5.5-5.5c-3.1 0-5.5 2.5-5.5 5.5zM328.1 91.4l.7-11M322.6 88.9l.7-12.3M317.8 88.6l-1.7-15.4M312.3 88.9l-4.4-14.7M307.6 92 300 77M303.8 96.1l-11-13.7M299.7 100.3l-9-7.2"/><path class="st0" d="M365 188.9c1-12.6-8.4-23.6-21-24.6s-23.6 8.4-24.6 21 8.4 23.6 21 24.6c12.6.9 23.6-8.5 24.6-21z"/><path class="st2" d="M342.2 173.4c.2-3-2-5.7-5-5.9-3-.2-5.7 2-5.9 5-.2 3 2 5.7 5 5.9 3 .3 5.6-2 5.9-5zM326.1 189.6l-1.6 10.9M331.4 192.5l-1.7 12.2M336.1 193.2l.5 15.5M341.6 193.3l3.3 15.1M346.6 190.6l6.4 15.7M350.7 186.8l9.9 14.6M355.1 183l8.4 7.9"/><path class="st0" d="M159.9 169.1c-.4 11.5 8.6 21.1 20.1 21.5 11.5.4 21.1-8.6 21.5-20.1.4-11.5-8.6-21.1-20.1-21.5-11.5-.3-21.2 8.7-21.5 20.1z"/><path class="st2" d="M181.3 182.3c-.1 2.8 2.1 5.1 4.8 5.2 2.8.1 5.1-2.1 5.2-4.8s-2.1-5.1-4.8-5.2c-2.8-.1-5.1 2-5.2 4.8zM194.7 165.6l1.2-9.8M189.5 164.5l-.2-13M184 163.6l-2.7-14M179.2 164.5l-5.9-13.3M174.6 166.8l-8.4-11.4M170.7 170.7l-8.9-8.3M167.8 175.2l-7.9-6.1"/><path class="st0" d="M235.1 262.8c3.1-11.1-3.4-22.6-14.5-25.7-11.1-3.1-22.6 3.4-25.7 14.5-3.1 11.1 3.4 22.6 14.5 25.7 11.1 3 22.6-3.4 25.7-14.5z"/><path class="st2" d="M217.4 244.9c.8-2.7-.8-5.4-3.5-6.2-2.7-.8-5.4.8-6.2 3.5s.8 5.4 3.5 6.2 5.4-.8 6.2-3.5zM200.4 258l-3.4 9.2M205.2 260.3l-2.8 12.7M210.4 262.5l-.7 14.2M215.2 262.7l2.7 14.3M220.2 261.6l5.5 13.1M224.9 258.7l6.7 10.1M228.9 255l6.2 7.8"/><path class="st10" d="M227.7 166.6c-8.9 4.3-15.8 22.5-9.3 33.8 6.5 11.3 19.8 16.8 28.9 12.3 9.1-4.5 10.5-19.9 4.7-31.5-5.8-11.7-15.4-19-24.3-14.6z"/><path class="st2" d="M235.1 213.6c-6.4-1.7-12.8-6.4-16.7-13.2-6.5-11.3.4-29.5 9.3-33.8 0 0 12.3 7.8 15.1 19.4 2.7 11.6-3.5 28.7-7.7 27.6z"/><path class="st2" d="M236.2 187.4c3.1 8.9-4.5 22.6-8.7 22.8-3.6-2.4-6.8-5.7-9.2-9.8-3.9-6.8-3-16.2.4-23.5 1.4-.2 14.4 1.5 17.5 10.5z"/><path class="st2" d="M222.8 206.2c-1.7-1.7-3.2-3.7-4.4-5.8-2.9-5-3.1-11.2-1.8-17.1 3.2-.4 11.4.6 13.8 6.8 2.4 6.2-5.1 14.7-7.6 16.1z"/><path class="st2" d="M215.8 190.4c.1 3.5.9 7 2.6 10 0 0 6.9-3.8 5.8-7.9-1-4.1-8.4-2.1-8.4-2.1z"/><path class="st0" d="M174.9 211.2c0 16 13 29 29 29s29-13 29-29-13-29-29-29c-16.1 0-29 13-29 29z"/><path class="st2" d="M229.4 211s-17.5 12-25-1c-7.6-13 12.3-21.3 12.3-21.3"/><path class="st2" d="M225.9 205.5s-10.3 5.5-13.4.4c-3.1-5.1 6.2-10.3 6.2-10.3M200.2 238.8l10.1-11.4M191.8 235.6l11.6-11.4M182.9 230.3l14.9-10.7M177.6 222l17.4-8.1M176.2 214.1l16.7-6.2M175.5 205.5l17.2-4.4M179 196.6l14-2.7"/><path class="st0" d="M301.3 138.9c0 16.5 13.4 30 30 30s30-13.4 30-30-13.4-29.9-30-29.9-30 13.4-30 29.9z"/><path class="st2" d="M339.4 137.6c2.8 8.9 15.4 9.6 21.3 6.2.3-1.6.4-3.3.4-5 0-5.6-1.5-10.8-4.2-15.3-.6-1.1-1.3-2.1-2.1-3-6.8 1.4-18.8 6.2-15.4 17.1z"/><path class="st2" d="M361.2 138.9c0-4.1-.8-8-2.3-11.5 0 0-11.2 2.6-9.8 7.5 1.3 4.8 12.1 4 12.1 4zM323.7 167l20.1-12.3M316.4 163.4l20.1-12.8M308.6 156.5l22.8-11.9M303.1 147.8l26.1-9.1M303.1 137.8l25.1-5.5M304.9 129.1l22.9-3.2M307.2 120.8l22-2.7"/><path class="st10" d="M779.5 92.5c1.8 4.1-33.4 81.8-47.1 96.5-13.7 14.6-53 13.7-53 13.7s33.8-51.2 44.8-73.6c11-22.4 22.9-44.8 24.2-46.2 1.3-1.4 29.2 5.5 31.1 9.6z"/><path class="st10" d="M763.9 187.1s59.4-56.2 58.5-59.9c-.9-3.7-27.9-29.7-31.1-30.2-3.2-.5-61.3 88.2-61.3 88.2l4.1 19.7 27.4-10.1 2.4-7.7z"/><path d="m776.3 156.5-27 35.7-10.5 2.2 32-43.8z"/><path class="st2" d="m758.4 189.4 23.4-30.2M731.5 193.1l36.1-48.9"/><path d="m746.1 135-34.7 57.2-10.6 2.2 38.4-63.5z"/><path class="st2" d="m722.8 187.6 31.1-55.3M691.7 197.6l44.8-74.9"/><path class="st1" d="M784.4 167.4c17.1-16.6 38.6-38 38-40.2-.9-3.7-27.9-29.7-31.1-30.2-1.7-.2-17.8 23.1-33.1 45.9l26.2 24.5z"/><path class="st3" d="M804 148.1c10.5-10.6 18.8-19.5 18.4-20.9-.9-3.7-27.9-29.7-31.1-30.2-1.1-.2-8.5 10-17.8 23.4l30.5 27.7z"/><path class="st1" d="M725.4 126.5c10.6-21.5 21.7-42.3 23-43.6 1.4-1.4 29.3 5.5 31.1 9.6 1 2.3-9.1 26.7-20.8 50.7l-33.3-16.7z"/><path class="st3" d="M736.7 104.1c6.1-11.7 10.8-20.3 11.6-21.2 1.4-1.4 29.3 5.5 31.1 9.6.7 1.5-3.4 12.4-9.6 26.5l-33.1-14.9z"/><path class="st11" d="M706 364.3s74.7 32.2 76.1 33.9c1.4 1.7-9.3 23-12.7 22.6-3.4-.4-69.9-38.7-69.9-38.7l6.5-17.8zM697.7 391s66.2 41.8 66.2 43.6c0 1.7-11 20.2-12.7 20.2-1.7 0-64.8-41.1-64.8-41.1l11.3-22.7zM684 420.2s61.4 45.6 61.4 47.7-14 20.2-16.1 19.9c-2.1-.4-54.2-52.5-54.2-52.5l8.9-15.1z"/><path class="st12" d="M725.1 372.6c4 1.8 8.5 3.7 13 5.7l-10.5 20c-3.6-2-7.1-4-10.3-5.9l7.8-19.8zM759.3 387.6c12.5 5.5 22.3 10.1 22.8 10.7 1.4 1.7-9.3 23-12.7 22.6-1.2-.1-10.5-5.1-22-11.5l11.9-21.8zM711.6 399.8c3.7 2.4 7.9 5.1 12.3 7.9L710 429c-4.1-2.6-8-5.2-11.4-7.4l13-21.8zM743.2 420.2c11.5 7.5 20.7 13.7 20.7 14.4 0 1.7-11 20.2-12.7 20.2-.6 0-9.7-5.6-20.8-12.8l12.8-21.8zM727 452.6c10.3 8 18.4 14.5 18.4 15.2 0 2.1-14 20.2-16.1 19.9-.8-.1-9.1-8-18.9-17.6l16.6-17.5zM697.9 430.5c3 2.2 6.2 4.7 9.6 7.3l-13.9 15.8c-3.4-3.4-6.6-6.6-9.4-9.3l13.7-13.8z"/><path class="st2" d="M706 364.3s74.7 32.2 76.1 33.9c1.4 1.7-9.3 23-12.7 22.6-3.4-.4-69.9-38.7-69.9-38.7l6.5-17.8zM697.7 391s66.2 41.8 66.2 43.6c0 1.7-11 20.2-12.7 20.2-1.7 0-64.8-41.1-64.8-41.1l11.3-22.7zM684 420.2s61.4 45.6 61.4 47.7-14 20.2-16.1 19.9c-2.1-.4-54.2-52.5-54.2-52.5l8.9-15.1zM771.5 407.8l-67.6-34.3M750.9 441.1l-62.7-43.2M731 473l-54.5-51.4"/><path class="st11" d="M810.6 288.5c1 1.4-4.5 24.3-6.5 24-2.1-.4-74.1-20.9-74.1-20.9l4.5-19.9c-.1 0 75 15.4 76.1 16.8zM731.4 195.9s80.9-23.3 84.3-23c3.4.3 7.9 18.5 7.9 22 0 3.4-88.1 20.2-88.1 20.2l-4.1-19.2zM823.6 211.7c-1.7-2.1-88.1 3.4-88.1 3.4l1.4 18.2s84.7 5.1 86.8 3.8c1.9-1.4 1.6-23.3-.1-25.4z"/><path class="st12" d="M801.8 236.8c12 .5 21.1.7 21.7.3 2.1-1.4 1.7-23.3 0-25.4-.5-.7-9.6-.6-21.7-.1v25.2zM757 234.5c4.1.2 8.6.5 13.2.7v-22.1c-5.2.3-10.2.6-14.7.8l1.5 20.6z"/><path class="st11" d="M820.5 249.1c.4 1.7-1.7 26.4-4.5 27.4-2.7 1-80.9-12-80.9-12l2.4-20.6s82.7 3.5 83 5.2z"/><path class="st12" d="M768.5 269.9c-4.8-.8-9.4-1.5-13.7-2.2l2.7-22.9c3.8.2 8 .4 12.3.6l-1.3 24.5zM797.8 246.9c12.8.8 22.6 1.6 22.7 2.2.4 1.7-1.7 26.4-4.5 27.4-.9.3-10.1-.9-21.9-2.6l3.7-27z"/><path class="st11" d="M728.9 304.3s72 21.6 72.4 23c.3 1.4-5.1 22-6.9 22.6-1.7.7-75.1-23.3-75.1-23.3l9.6-22.3z"/><path class="st12" d="M745.6 309.3c3.6 1.1 7.6 2.3 11.7 3.6l-7.7 23.5c-4.7-1.5-9.2-2.9-13.2-4.3l9.2-22.8zM778.6 319.5c12.5 3.9 22.6 7.3 22.7 7.8.3 1.4-5.1 22-6.9 22.6-.6.3-11.1-2.9-24.1-6.9l8.3-23.5z"/><path class="st11" d="M792 361.9c-.3-2.1-73.7-26.1-73.7-26.1l-6.2 21.3s69.6 28.5 72.4 28.1c2.7-.4 7.9-21.3 7.5-23.3z"/><path class="st12" d="M760.7 376.5c12.5 4.9 22.8 8.8 23.8 8.6 2.7-.4 7.9-21.3 7.6-23.3-.1-.8-10.5-4.6-23.4-9.1l-8 23.8zM726.4 362.9c3.6 1.4 7.6 3.1 11.8 4.8l10.2-21.8c-4.1-1.4-8.1-2.7-11.8-4l-10.2 21zM751.1 190.3c5-1.4 10.6-3 16.3-4.6l6.1 21.9c-6.1 1.3-12.1 2.5-17.4 3.5l-5-20.8zM795.9 177.8c10.7-2.9 18.8-4.9 19.8-4.8 3.4.3 7.9 18.5 7.9 22 0 1.1-8.8 3.5-20.7 6.3l-7-23.5zM759.9 300.1c-15.9-4.5-29.9-8.5-29.9-8.5l4.5-19.9s15.7 3.2 32.8 6.8l-7.4 21.6zM787.7 283c12.5 2.8 22.5 5 22.8 5.5 1 1.4-4.5 24.3-6.5 24-.7-.1-10.3-2.8-22.3-6.2l6-23.3z"/><path class="st2" d="M731.4 195.9s80.9-23.3 84.3-23c3.4.3 7.9 18.5 7.9 22 0 3.4-88.1 20.2-88.1 20.2l-4.1-19.2zM823.6 211.7c-1.7-2.1-88.1 3.4-88.1 3.4l1.4 18.2s84.7 5.1 86.8 3.8c1.9-1.4 1.6-23.3-.1-25.4zM820.5 249.1c.4 1.7-1.7 26.4-4.5 27.4-2.7 1-80.9-12-80.9-12l2.4-20.6s82.7 3.5 83 5.2zM810.6 288.5c1 1.4-4.5 24.3-6.5 24-2.1-.4-74.1-20.9-74.1-20.9l4.5-19.9c-.1 0 75 15.4 76.1 16.8zM728.9 304.3s72 21.6 72.4 23c.3 1.4-5.1 22-6.9 22.6-1.7.7-75.1-23.3-75.1-23.3l9.6-22.3zM792 361.9c-.3-2.1-73.7-26.1-73.7-26.1l-6.2 21.3s69.6 28.5 72.4 28.1c2.7-.4 7.9-21.3 7.5-23.3zM728.9 205.9 813 185M818.4 225.1l-82.6-2.4M811.9 261.1l-75.4-7.6M792.7 336.9l-70.3-21.6M799.9 298.4l-67.2-16.8M784.8 371.5l-74-25"/><path class="st0" d="m644.6 212.4 85.4-29.1s26.4 42.9-4.5 136.1C694.7 412.6 675.8 439 675.8 439l-44.2-18.9 3.1-188.9 9.9-18.8z"/><path class="st3" d="m644.6 212.4 68-23.2s20.4 32.1-10.4 125.4c-30.9 93.3-49.1 114.8-49.1 114.8l-21.5-9.2 3.1-188.9 9.9-18.9z"/><path class="st5" d="m644.6 212.4 39.7-13.5s20.6 40-2.7 112.6c-30 93.5-50.1 108.7-50.1 108.7l3.1-188.9 10-18.9z"/><path class="st2" d="m687.1 209-10 .5M689.9 216.4l-10.1.9M679.9 314.6l-9.2-2.8M676.6 322l-9.1-3.7M674.3 328.4l-8.7-3.2M671.6 335.3l-7.8-2.8M669.3 343l-8.2-3.1M666.6 349.9l-8.6-2.8M664.1 357.1l-8.5-2.4M660.6 365l-8.4-2.4M657.4 372.3l-7.3-2.2M653.7 378.7l-6.8-2.3M650.5 386.9l-6.9-2.1M733.4 192.5l-5.5 1.7M735.5 200.7l-5.9 1.1M737.5 210.3l-5.8.4M739.6 221l-6.5-.4M739.2 232.6l-6.5-.3M739.9 242.9l-6.5-.7M738.9 253.9l-6.5-1.1M736.8 264.5l-6.1-1M736.1 274.4l-6.8-1.3M734.1 283.4l-6.9-1.1M731.4 292.6l-5.5-1.4M730 301.2l-6.2-1.4M726.9 310.8l-5.5-1.7M724.5 319.4l-6.2-1.8M721.7 328.6l-6.5-2M718 337.9l-6.2-2.2M714.9 346.8l-6.1-1.9M711.8 355.4l-5.7-2.3M709.1 363.9l-6.2-2.4M706.1 372.5l-6.4-2.5M703.2 380.4l-6-2.6M699.1 389l-5.4-2.5M696.4 396.2l-5.9-3.1M692.6 404.4l-5.3-3.1M689.1 412.3l-5-3M685.7 420.2l-5.7-3.6M682.3 427.7l-6.2-4M678.2 434l-6.2-3.7"/><path class="st0" d="M439.6 382.1c.5 3.2 82.9 21 119.5 24.9 10.3 1.1 18.3-6.9 18.3-6.9 4.3-8.2 6.2-9.8 6.2-9.8l50.1-101.5S520.6 238.7 522.6 238c2.1-.7-4.8-15.1-16.5.7-70 80.3-67.2 139.3-66.5 143.4z"/><path class="st10" d="M439.6 382.1c.4 2.3 42.6 12.1 80 18.9 0 0-4.9-53.5 11.2-74.4 16.1-20.9 48.3-45.3 67.2-53.6-33-14.7-76.7-34.5-75.4-34.9 2.1-.7-4.8-15.1-16.5.7-70 80.2-67.2 139.2-66.5 143.3z"/><path d="M439.6 382.1c.4 2.2 37.6 10.9 73.1 17.6 2.3.4-4.8-56.3 11.3-77.2 16.1-20.9 55.9-51.4 64-54 32.6-10.2-66.5-30-65.4-30.4 2.1-.7-4.8-15.1-16.5.7-70 80.2-67.2 139.2-66.5 143.3z"/><path class="st11" d="M439.6 382.1c.3 1.8 27.3 8.5 57.3 14.5 0 0-2.3-59.9 12.6-81.7 15.8-23 28.8-36.4 61.7-58.3-21.4-7.1-49.3-18.3-48.7-18.5 2.1-.7-4.8-15.1-16.5.7-69.9 80.2-67.1 139.2-66.4 143.3z"/><path class="st10" d="M439.6 382.1c.3 1.6 21.3 6.9 46.7 12.3-.4-38.4 3.3-59.4 15.3-82.9 16.8-32.9 50.1-55.9 50.1-55.9s-29.7-17.3-29.2-17.5c2.1-.7-4.8-15.1-16.5.7-69.9 80.2-67.1 139.2-66.4 143.3z"/><path d="M439.6 382.1c.2 1.4 15.3 5.4 35.4 9.9 0 0 5-60.8 17-84.3 16.8-32.9 50.3-57.6 50.3-57.6-8.6-5.1-20.1-11.9-19.8-12 2.1-.7-4.8-15.1-16.5.7-69.9 80.2-67.1 139.2-66.4 143.3z"/><path class="st10" d="M439.6 382.1c.1.5 2.2 1.4 5.7 2.5.4-37 19.4-70.9 24.2-82.2 8-18.6 48.3-65.8 48.5-65.8 2.1-.7-.2-13.5-11.9 2.3-70 80.1-67.2 139.1-66.5 143.2z"/><path class="st10" d="M437.9 345.5c-1.1 3.2.5 6.7 3.4 7.7l11.8 3.9c3 1 6.3-.8 7.3-4.1h0c1.1-3.2-.5-6.7-3.5-7.7l-11.8-3.9c-2.8-1-6.1.8-7.2 4.1h0z"/><path class="st0" d="M435.2 356.8c-1.1 3.2.5 6.7 3.4 7.7l11.8 3.9c3 1 6.3-.8 7.3-4.1h0c1.1-3.2-.5-6.7-3.4-7.7l-11.8-3.9c-3-1-6.2.8-7.3 4.1h0zM488.9 295l93.3 20.6-8.2 22.6-85.1-31.5 72.7 39.1-11.6 15.7-69.3-37-16.5-7.5-88.4-15.8 2.7-19.9 85.7 20.6-76.1-28.1 6.2-18.6 78.2 33.6z"/><path class="st0" d="M461.1 315.5c-.9 3.1.9 6.3 3.9 7.2h0c3.1.9 6.3-.9 7.2-3.9l7.4-25c.9-3.1-.9-6.3-3.9-7.3h0c-3.1-.9-6.3.9-7.2 3.9l-7.4 25.1zM472.1 319.5c-.9 3.1.9 6.3 3.9 7.2h0c3.1.9 6.3-.9 7.2-3.9l7.4-25c.9-3.1-.9-6.3-3.9-7.2h0c-3.1-.9-6.3.9-7.2 3.9l-7.4 25z"/><path d="m593.8 342.3 24-52.1L506 238.8l-16.5 19.9-34.3-19.2 34.3-36.4L659 279.9l-2.7 44.6-4.5 20.9-11.3 9.9-2.1 38.4-1.4 25.4c-9.1 12.3-9.6 167.3-10.7 173-1.1 5.7-19.4 3.4-20.6-1.8-1.1-5.3 4.6-119.1 4.6-119.1-2.7 15.8-14.2 117.3-15.1 120.7-.9 3.4-17.8 1.6-17.8-1.4s12.3-106.3 12.3-106.3C588 491.1 571 589 569.9 590.6c-1.1 1.6-16.7.7-17.8-2.1-1.1-2.7 16.2-85 18.5-98.1-1.7 4.8-27.9 94.9-30.2 96.7-2.3 1.8-16.9-3.7-17.1-8.9-.2-5.3 28.1-78.2 30.9-87.1-4.5 8.6-39.3 81.4-42.5 83-3.2 1.6-17.4-7.5-15.8-13 1.6-5.5 51-88.7 60.3-124.1 27.6-23.6 37.6-94.7 37.6-94.7z" style="fill:#383838;stroke:#000;stroke-width:4.6503;stroke-linecap:round;stroke-linejoin:round"/><path class="st2" d="M649.7 338.6c-17.1.4-2.1-54.2-2.1-54.2M650.8 324.9c-2.7-6.2 2.1-37.4 2.1-37.4M464.9 243.6l30.2-34.6M473.5 248.4l27.1-34.3M482.1 252.8l26-35.3M506.1 238.8l7.5-14.8M514.3 240.5l6.9-12.3M522.2 244.3l6.8-15.1M529.4 247.7l8.6-16.1M538.7 252.2l8.9-18.6M546.9 255.9l8.2-17.5M554.4 260.7l7.2-17.1M562.6 264.2l6.9-18.6M571.6 266.9l5.5-17.1M579.4 271l6.6-18.2M587.7 274.8l5.8-16.1M595.9 278.8l5.1-13M603.8 282l6.9-14.4M612 286.5l6.9-16.2M605.2 342l18.8-65.8M610.7 345.8l14-36.7M616.8 349.5l4.1-9.6M554.1 491.1l21.2-43.5M589.7 484.3l4.1-35.7M610.3 471.3l3.1-24.7"/><path class="st14" d="M611.3 392c-3.1 20.6 15.1 30.5 25.7 27.1 12.6-4.1 14.1-27.1 1.7-28.5-8.9-1-4.8 15.1-8.2 14.8-3.4-.4-3.8-31.9 3.4-55.2"/><path class="st2" d="M639.5 398.9c.7 8.6-1.7 17.1-11 14.1-21.3-7.2-2.4-71-2.4-71M619.9 571l4.5-120.6M613.1 571.4l5.4-120.7M592.1 566.9l14.8-116.5M586 567.3l14-119.4M567.8 564.5l19.5-98M543.4 559.4l25.8-86.4M537.3 558.7l28.1-87.4M510.2 549.8l51.4-98.4M517.4 550.8l48.7-96.3"/><path class="st3" d="M523.4 552.4c-6 12-10.7 21.1-11.8 21.7-3.2 1.6-17.4-7.5-15.8-13 .4-1.3 3.3-6.8 7.8-14.9l19.8 6.2zM549.5 560.2c-4.6 14.8-8.3 26.3-9.1 26.9-2.3 1.8-16.9-3.7-17.1-8.9-.1-1.8 2.8-12.1 7.2-23.3l19 5.3zM575.5 561.9c-2.9 16-5.2 28.1-5.6 28.7-1.1 1.6-16.7.7-17.8-2.1-.4-1 1.7-13.2 4.7-28.8l18.7 2.2zM598.6 565.3c-1.8 14.8-3.1 25.6-3.4 26.7-.9 3.4-17.8 1.6-17.8-1.4 0-1 1.3-12.4 3-27.4l18.2 2.1zM627.1 568c-.3 13.6-.5 22.9-.8 24.2-1.1 5.7-19.4 3.4-20.6-1.8-.3-1.4-.1-10.5.3-23.1l21.1.7z"/><path class="st2" d="m604.8 415.7 1.4-21.2M562.6 560.1l16.8-84"/><path class="st14" d="M630.2 271.7s-10.6 57.6-8.6 65.5c2.1 7.9 13 17.5 18.9 18.2 24.7 3.4 26.4-24 15.8-30.9-10.6-6.9-2.1 17.8-8.6 18.9-5.1.4-9.3-1-12-7.6-4.1-7.9 5.1-55.2 5.1-55.2"/><path class="st2" d="M651.8 323.1c9.9 19.5.7 27.4-8.2 26.4-8.9-1-14.4-9.9-15.1-17.1-.7-7.2 3.4-45.6 7.6-55.5"/><path class="st0" d="M636.7 423.3c1.7 3.4-1 32.6-2.7 34.6-1.7 2.1-86.1-19.5-85.7-23.3.3-3.8 11.3-29.8 14.4-30.9 3-1 72.3 16.1 74 19.6z"/><path class="st2" d="M626.4 430.1c1.7 1.7 1.7 15.8 0 17.8-1.7 2.1-66.9-14.8-67.5-17.1-.7-2.4 4.5-15.1 7.2-15.4 2.7-.4 58.6 13 60.3 14.7z"/><path class="st10" d="M562.6 368.6c0 17.1 13.9 31 31 31s31-13.9 31-31-13.9-31-31-31c-17.1-.1-31 13.8-31 31z"/><path class="st2" d="M572.9 369.4c0 11.7 9.5 21.3 21.3 21.3s21.3-9.5 21.3-21.3-9.5-21.3-21.3-21.3-21.3 9.6-21.3 21.3z"/><path class="st1" d="M581.9 368.9c0 6.9 5.6 12.5 12.5 12.5s12.5-5.6 12.5-12.5-5.6-12.5-12.5-12.5-12.5 5.6-12.5 12.5z"/><path class="st0" d="M561.6 469.4c0 7.5 6.1 13.5 13.5 13.5 7.5 0 13.5-6.1 13.5-13.5 0-7.5-6.1-13.5-13.5-13.5-7.4-.1-13.5 6-13.5 13.5z"/><path class="st2" d="M570.5 469.7c0 2.9 2.4 5.3 5.3 5.3s5.3-2.4 5.3-5.3-2.4-5.3-5.3-5.3-5.3 2.4-5.3 5.3z"/><path class="st3" d="M599.7 370.1c-.3 3.4-8.6 89.5-8.6 89.5l-27.8-6.5s23-84.3 23.7-86.4c.7-2.1 13 0 12.7 3.4z"/><path class="st2" d="m593.8 366.3-9.2 72.4"/><path class="st1" d="M593.7 432.9c-1.4 15-2.6 26.7-2.6 26.7l-27.8-6.5s3.5-12.7 7.7-28.4l22.7 8.2z"/><path class="st0" d="M592.3 447c-.7 7.6-1.2 12.6-1.2 12.6l-27.8-6.5 3.5-13 25.5 6.9z"/><path class="st2" d="m582.2 456.5 2.1-10.6M573.6 453.1l2.1-9.3M592.1 375.9l-5.8-1.7M590.8 385.2l-6.5-2.1M589.4 395.5l-8.2-2.8M588 403.7l-8.2-2.4M587 413.6l-10.6-3.4M584.9 422.2l-10.9-3.7"/><path class="st11" d="M767.6 261.6c.5 4.1-19.2 33.4-22.9 33.4-3.7 0-92.8-50.3-167.3-83.2-74.5-32.9-166.4-68.1-167.3-70.8-.9-2.7 15.1-31.1 19.2-32.9 4.1-1.8 128 62.2 166.4 78.2 38.4 15.9 171.4 71.2 171.9 75.3z"/><path class="st12" d="M447.7 157.5c-22.4-9.2-37.3-15.5-37.6-16.6-.9-2.7 15.1-31.1 19.2-32.9 1.3-.6 15.1 5.6 34.4 14.9l-16 34.6zM484.7 172.7c-4.8-2-9.5-3.9-14-5.8l15.6-33c5.2 2.5 10.5 5.1 16 7.8l-17.6 31zM682.2 262.9c-3.9-2-8-4.1-12.2-6.3l14.6-33c4.4 1.9 8.9 3.8 13.2 5.6l-15.6 33.7zM720.2 238.9c26.9 11.8 47.2 21.1 47.4 22.7.5 4.1-19.2 33.4-22.9 33.4-1.6 0-19-9.3-44.3-22.6l19.8-33.5z"/><path class="st11" d="M733.7 305.5c.9 3.2-17.8 29.3-21 27.4-3.2-1.8-39.8-38.4-147.7-90.1-107.9-51.7-168.2-56.2-171-58.1-2.7-1.8 8.2-32.5 11.4-34.3 3.2-1.8 121.6 38.4 175.1 62.6 53.6 24.4 152.3 89.3 153.2 92.5z"/><path class="st12" d="M436.8 194.3c-26.8-7-41.4-8.6-42.7-9.4-2.7-1.8 8.2-32.5 11.4-34.3 1.2-.7 17.4 4.2 40.3 11.8l-9 31.9zM476.5 206.4c-4.3-1.5-8.4-2.8-12.3-4.1l5.9-31.6c4.6 1.6 9.4 3.3 14.2 5l-7.8 30.7zM670.1 263c3.8 2.3 7.5 4.6 11.1 6.9l-16 28.1c-4.4-2.9-9.2-5.9-14.3-9l19.2-26zM695.9 279.3c22 14.1 37.5 25 37.8 26.2.9 3.2-17.8 29.3-21 27.4-1.6-.9-11.9-10.9-35.8-27.2l19-26.4z"/><path class="st2" d="M722.8 307.8c-.5 1.8-6.8 15.1-10.5 14.6S678 289.5 564.2 236 401.4 180.2 401 178.9c-.5-1.4 6.4-18.3 8.2-19.2 1.8-.9 82.7 19.7 166 59.4 83.1 39.8 148 86.9 147.6 88.7z"/><path class="st2" d="M733.7 305.5c.9 3.2-17.8 29.3-21 27.4-3.2-1.8-39.8-38.4-147.7-90.1-107.9-51.7-168.2-56.2-171-58.1-2.7-1.8 8.2-32.5 11.4-34.3 3.2-1.8 121.6 38.4 175.1 62.6 53.6 24.4 152.3 89.3 153.2 92.5z"/><path class="st2" d="M767.6 261.6c.5 4.1-19.2 33.4-22.9 33.4-3.7 0-92.8-50.3-167.3-83.2-74.5-32.9-166.4-68.1-167.3-70.8-.9-2.7 15.1-31.1 19.2-32.9 4.1-1.8 128 62.2 166.4 78.2 38.4 15.9 171.4 71.2 171.9 75.3z"/><path class="st2" d="M754.3 263.9c0 3.7-9.6 20.1-12.3 21s-103.3-52.6-160.5-77.3C524.4 183 422.9 141 422.4 139.1c-.5-1.8 7.8-19.7 10.5-20.6 2.7-.9 126.2 58.5 158.2 73.2 32 14.6 163.2 68.6 163.2 72.2z"/><path class="st10" d="M582.4 233.1c0 20.8 17.4 37.7 38.9 37.7s38.9-16.9 38.9-37.7-17.4-37.7-38.9-37.7-38.9 16.8-38.9 37.7z"/><path class="st4" d="M591.8 233.5c0 15.8 13.2 28.6 29.4 28.6 16.3 0 29.4-12.8 29.4-28.6s-13.2-28.6-29.4-28.6c-16.2.1-29.4 12.8-29.4 28.6z"/><path class="st2" d="m648.3 243.8-51.7-26M644.1 251.6l-50.7-26.5M638.2 211.8l-26.5 48M630 206.3l-24.7 48.5"/><path class="st4" d="M610.2 234c0 5.9 5 10.7 11.1 10.7s11.1-4.8 11.1-10.7c0-5.9-5-10.7-11.1-10.7-6.1-.1-11.1 4.8-11.1 10.7z"/><path d="M617.9 233.6c0 1.9 1.6 3.4 3.5 3.4s3.5-1.5 3.5-3.4-1.6-3.4-3.5-3.4-3.5 1.6-3.5 3.4z" style="fill:#00f;stroke:#000;stroke-width:4.6503;stroke-linecap:round;stroke-linejoin:round"/><path class="st2" d="M611.8 214.4c0 2 1.6 3.7 3.7 3.7 2 0 3.7-1.6 3.7-3.7s-1.6-3.7-3.7-3.7c-2.1.1-3.7 1.7-3.7 3.7zM598 240.2c0 2 1.6 3.7 3.7 3.7 2 0 3.7-1.6 3.7-3.7s-1.6-3.7-3.7-3.7-3.7 1.6-3.7 3.7zM623.6 252c0 2 1.6 3.7 3.7 3.7s3.7-1.6 3.7-3.7-1.6-3.7-3.7-3.7c-2.1.1-3.7 1.7-3.7 3.7zM637.3 228.7c0 2 1.6 3.7 3.7 3.7s3.7-1.6 3.7-3.7c0-2-1.6-3.7-3.7-3.7-2.1.1-3.7 1.7-3.7 3.7z"/><path class="st10" d="M494.7 191c0 21.6 18.4 39.1 41.1 39.1s41.1-17.5 41.1-39.1-18.4-39.1-41.1-39.1c-22.7 0-41.1 17.5-41.1 39.1z"/><path class="st4" d="M505.5 191.7c0 15.9 13.6 28.8 30.3 28.8 16.7 0 30.3-12.9 30.3-28.8s-13.6-28.8-30.3-28.8c-16.8 0-30.3 12.9-30.3 28.8z"/><path class="st2" d="m551.8 167.5-24.7 50.7M543.6 163.8 519.8 215M559.6 206.6l-51.7-22.7M564 199.7l-53.8-22.6M551.8 182.6c0 2 1.6 3.7 3.7 3.7 2 0 3.7-1.6 3.7-3.7s-1.6-3.7-3.7-3.7-3.7 1.6-3.7 3.7zM524.8 172.5c0 2 1.6 3.7 3.7 3.7s3.7-1.6 3.7-3.7c0-2-1.6-3.7-3.7-3.7-2 0-3.7 1.7-3.7 3.7zM538.5 210.4c0 2 1.6 3.7 3.7 3.7s3.7-1.6 3.7-3.7c0-2-1.6-3.7-3.7-3.7-2 .1-3.7 1.7-3.7 3.7zM511.1 197.2c0 2 1.6 3.7 3.7 3.7 2 0 3.7-1.6 3.7-3.7s-1.6-3.7-3.7-3.7-3.7 1.7-3.7 3.7z"/><path class="st4" d="M522.8 191.7c0 6.8 5.8 12.3 13 12.3s13-5.5 13-12.3c0-6.8-5.8-12.3-13-12.3s-13 5.5-13 12.3z"/><path class="st2" d="M532.1 191.7c0 2 1.6 3.7 3.7 3.7 2 0 3.7-1.6 3.7-3.7 0-2-1.6-3.7-3.7-3.7-2 0-3.7 1.7-3.7 3.7z"/></svg>