<svg version="1.1" id="Calque_1" xmlns="http://www.w3.org/2000/svg" x="0" y="0" viewBox="0 0 900 900" style="enable-background:new 0 0 900 900" xml:space="preserve"><style>.st0,.st1,.st2,.st3,.st4,.st5,.st6,.st7{fill:red;stroke:#000;stroke-width:3.952;stroke-linecap:round;stroke-linejoin:round;stroke-miterlimit:10}.st1,.st2,.st3,.st4,.st5,.st6,.st7{fill:#ffce00}.st2,.st3,.st4,.st5,.st6,.st7{fill:#00479b}.st3,.st4,.st5,.st6,.st7{fill:#005616}.st4,.st5,.st6,.st7{fill:none}.st5,.st6,.st7{fill:#fff}.st6,.st7{fill:#1d171e}.st7{fill:#ff4200}</style><path class="st0" d="M452.1 668.7c8.5-17.2 48-133.5 56.5-138.6 8.5-5.1 32.7-.8 33.9 15.5 1.1 16.4-28.8 60.7-35 120.5-28.8 12.4-63.8 19.8-55.4 2.6z"/><ellipse transform="rotate(-84.042 492.98 621.194)" class="st1" cx="493" cy="621.2" rx="25.7" ry="23.1"/><circle class="st1" cx="515.4" cy="564.5" r="20.9"/><path class="st1" d="M556.9 528.9c-4.5-8.5-26.8-19.8-37-20.3-10.2-.6-16.9 1.7-16.9 1.7s-9.6 10.2-20.9 28.2-26 74-54.8 130.1c-28.8 56.2 53.6 15 53.6 15s40.1 13 43.5-17.5c3.4-30.5 24.8-87 29.4-98.8 4.5-11.8 7.6-29.9 3.1-38.4zm-49.4 137.2c-28.8 12.4-63.8 19.8-55.3 2.5 8.5-17.2 48-133.5 56.5-138.6 8.5-5.1 32.7-.8 33.9 15.5 1 16.4-28.9 60.8-35.1 120.6z"/><path class="st0" d="M194.9 704s-15.5 141.4-13.8 144.3c1.7 2.8 88.6 2 90.3-.3 1.7-2.3 10.4-67.5 7.6-68.6-1.7-.7-11-1.2-18.9-1.4-1.6 11.4-6.2 43.4-8.5 45.7-2.8 2.8-46.3 2.3-48.6.6-2.3-1.7 6.2-75.1 7.9-77.9 1.7-2.8 110.1-5.6 110.7-2.8.5 2.7-12.8 65-14.6 103.1 10.4.1 23.6-.5 24.7-1.2 1.7-1.1 9.6-125.6 9.6-125.6L216 700.7l-21.1 3.3z"/><path class="st2" d="M321.7 743.5c-.6-2.8-109 0-110.7 2.8-1.7 2.8-10.2 76.2-7.9 77.9 2.3 1.7 45.7 2.3 48.6-.6 2.3-2.3 6.9-34.3 8.5-45.7-5.4-.1-10.2.1-11.3.5-2.8 1.1-5.4 34.7-6.5 36.4-1.1 1.7-26.5 1.4-27.7-.3-1.1-1.7 5.4-58.2 7.6-59.3 2.3-1.1 85.3-6.2 85.8-3.4.6 2.8-11.9 71.1-13 93.7 1.4.6 6.2.9 12 .9 1.8-38 15.2-100.2 14.6-102.9z"/><path class="st0" d="m517.1 723.1-107.8-7.3-47.4 4s-9.6 123.9-8.5 125.6c.6 1 8 1.1 14.6.8 2.4-17.2 13.4-94.4 15.9-95.4 2.8-1.1 99.1-1.4 101.4.3 2.3 1.7 3.1 67.5 2.5 70.3s-67.8 2.3-68.3-.6c-.5-2.3-.2-25.8-.1-34.6-6.6 0-13.5.4-14.1 1.3-1.1 1.7-5.1 55.1-2.8 57.3 2.3 2.3 112.1 0 114.3 0 2.2 0 .3-121.7.3-121.7z"/><path class="st2" d="M419.4 820.8c.6 2.8 67.8 3.4 68.3.6s-.3-68.6-2.5-70.3c-2.3-1.7-98.5-1.4-101.4-.3-2.5 1-13.5 78.2-15.9 95.4 5-.2 9.5-.6 10.2-1.1 1.7-1.1 15.8-85.3 17.5-85.8s72.6-1.7 74.2 0c1.7 1.7 7.6 50.8 6.5 52.5-1.1 1.7-44 1.7-44.6 0-.6-1.7.3-22.6-.3-24.3-.3-.8-6.1-1.2-12.2-1.3 0 8.8-.3 32.3.2 34.6z"/><path class="st0" d="M216.1 673.2c-6.8.3-14.1 4.8-14.7 15.5s6.8 20.3 14.7 20.9 296.1 6.2 304.6 2.3 9-9 9-17.5-3.7-15.2-11-16.9c-7.3-1.8-295.8-4.6-302.6-4.3z"/><circle class="st1" cx="239.6" cy="691.2" r="18.9"/><circle class="st1" cx="284.4" cy="693.2" r="18.9"/><circle class="st1" cx="336.4" cy="693.8" r="18.9"/><circle class="st1" cx="445.9" cy="693.8" r="18.9"/><circle class="st1" cx="386.6" cy="693.2" r="18.9"/><circle class="st1" cx="494.5" cy="694.9" r="18.9"/><path class="st1" d="M527.8 664.4c-5.6-2.3-86.1 1.6-164.3.6-78.6-1-155-6.8-159.8-5.6-9.6 2.3-15.2 12.7-14.7 28.5.6 15.8 9.6 31.6 17.5 33.3 7.9 1.7 315.3 5.6 322.7 4 7.3-1.7 16.7-16.1 16.7-30.2s-6.8-26.1-18.1-30.6zm-7.1 47.5c-8.5 4-296.7-1.7-304.6-2.3s-15.2-10.2-14.7-20.9c.6-10.7 7.9-15.2 14.7-15.5 6.8-.3 295.3 2.5 302.6 4.2 7.3 1.7 11 8.5 11 16.9s-.5 13.6-9 17.6z"/><path class="st2" d="M315.2 302.8c5.9.8 8.2 6.5 13.3 8.2 10.7-3.4 27.7-10.7 27.7-10.7l-2.8 11.9s-9.6 6.5-18.6 9.9c-9 3.4-26 15-26 15l-7.9-22.6c-.1-.1 8.4-12.6 14.3-11.7z"/><path class="st3" d="M369.7 264.1c-2.8-11.3 1.4-24.6 9.9-51.1s5.4-39.2 6.5-44.9c1.1-5.6 13.6-6.8 16.4-1.1 2.8 5.6 3.4 17.5 5.6 26 6.2 15.8 62.1 37.8 62.1 37.8s30.8-15 40.9-16.7c10.2-1.7 19.5 11.6 13.8 20.6-1.1 1.7-8.5-5.1-38.4 23.7-26 25.4-32.7 35.6-37.8 37.8-5.1 2.3-17.5.6-17.5.6s-58.7-21.4-61.5-32.7z"/><path class="st3" d="M403.6 219.5s-3.1-39.8 42.6-79.3c97.4-68 107.6-88.9 113.8-90.1 6.2-1.1 9.6 6.2 6.2 13-3.4 6.8-27.9 31.1-55.1 49.7s-50.5 43.5-50.5 43.5l-20.9 78.5-36.1-15.3z"/><path class="st1" d="M147.8 427.3c5.1 9.6 24.8 29.4 24.8 29.4s10.3-16 40.3-40.1L196 394.9c-23.2 14.3-43.1 27.2-48.2 32.4z"/><path class="st2" d="m196 394.9 16.9 21.7c5.9-4.8 12.6-9.9 20.2-15.2L219 380.9c-7.7 4.6-15.5 9.3-23 14z"/><path class="st0" d="m292.9 358.4-5.6-18.1s-33.7 19.6-68.2 40.5l14.1 20.5c10.8-7.6 23.3-15.8 37.7-24.3 30.5-18.6 22-18.6 22-18.6z"/><path class="st4" d="m296.3 427.8-5.1 5.7"/><path class="st5" d="M280.5 498.4c12 3.9 26.7 4.1 36.9 3.5l1.5-31.7-8.5-22.6s-2.3-20.9-27.7 9c-9.4 11.1-17.9 19.5-25 25.7 3 4.6 9.4 11.8 22.8 16.1z"/><path class="st0" d="M276 508.6c-13.2-3.3-22.4-13.8-26.5-19.3-7.1 5.6-11.3 8-11.3 8s20.6 32.2 58.7 28.8c38.1-3.4 19.8-7.3 19.8-7.3l.4-8.6c-12.1.7-29.9 1.2-41.1-1.6z"/><path class="st2" d="M276 508.6c11.2 2.8 29 2.3 41 1.6l.4-8.3c-10.3.6-24.9.4-36.9-3.5-13.4-4.3-19.8-11.5-22.7-16-3.1 2.7-5.9 5-8.3 6.9 4 5.5 13.3 16 26.5 19.3z"/><path class="st1" d="M439.7 431.2s10.4-.6 18.9 10.7c8.5 11.3 13.3 46.9 18.1 53.6 8.8 1.1 21.7-6.8 21.7-6.8s15.8 11.3 13.6 18.6c-2.3 7.3-17.8 26.5-23.4 29.9s-16.1 5.6-24.6 1.1-23.1-25.4-23.1-25.4l-1.2-81.7zM649.2 505.2c-19.1-1.3-36.6-4.3-51.9-7.7l-10.8 28.7c14.9 9.5 30 20.4 41.8 31.5 17.5-23.1 19.2-40.1 20.9-52.5z"/><path class="st0" d="m537.4 478.1-9.6 15.2s28.9 13.8 58.7 32.9l10.8-28.7c-36.4-8.2-59.9-19.4-59.9-19.4z"/><path class="st1" d="M304.8 595s-18.1-3.4-20.9 1.7c-2.8 5.1 2 26.8-.3 31.9-2.3 5.1-5.6 13.8-10.7 14.4-5.1.6-12.7 0-14.4 2.3s-.6 8.5-.6 8.5-6.2 4-2.8 10.2c-3.4 2.8-5.1 7.9-2.3 9.6-2.3 5.1-1.7 10.7 2.3 10.7 2.3 4.5 7.1 9.9 11 8.2 4-1.7 7.6-7.1 11-12.7s17.5-26 22-29.4 32.2-16.4 32.2-16.4l8.5-25.4-35-13.6z"/><path class="st4" d="M257.9 653.7s2.8 1.7 9 1.7M255.1 663.9s4 1.1 10.2 1.1M252.8 673.5h10.7M255.1 684.2s6.8.6 10.2-4"/><path class="st6" d="M297.4 529.5s-7.3 31.6-2.8 51.4 30.5 27.1 30.5 27.1-1.1 18.6-6.8 58.7c13.6-5.1 22-13 42.9-14.1 21.5-1.2 53.1 12.4 64.4 9 11.3-3.4 28.2-28.8 25.4-49.7s-29.4-42.3-32.2-46.3-4.5-21.5-4.5-21.5L357.8 530l-60.4-.5z"/><path class="st4" d="M393.4 621.5c-28.2-15.8-68.3-13.6-68.3-13.6"/><path class="st3" d="M456.1 160.2s13.6-22.6 38.4-29.9c11.3-3.4 76.2-4.2 117.4-4.8 41.2-.6 112.4-17.2 130.7-33.3 3.4-2.3 5.4 9 2.5 14.7-10.7 17.2-91.5 35.3-151.3 37-59.9 1.7-85.8 9-85.8 9l-37.8 21.5-14.1-14.2z"/><path class="st3" d="M460.6 170.4s20-22.3 51.1-26.8 77.4-1.1 122.5 6.2c45.2 7.3 80.5 13.3 114.9 15 6.8.6 1.4 13-7.1 13.6-8.5.6-81-8.8-110.9-13.8s-62.7-5.4-83-3.1-66.6 28.8-66.6 28.8l-20.9-19.9z"/><path class="st3" d="M482.6 177.2c1.1-1.7 21.7-18.4 47.7-16.7 29.6.8 157.8 50.5 203.5 57.9 5.6 0 4.5 9.6-1.1 10.2-31.1.6-72-10.4-99.1-20.6-27.1-10.2-67.5-21.2-87.8-21.7s-48 20.3-48 20.3l-15.2-29.4z"/><path class="st3" d="M495.3 188.7s29.1-6.5 44.9-2.5c20.3 4 72.8 31.9 115.7 51.4 42.3 19.2 70.2 17.4 71.7 19.2 3.4 4 5.1 8.5-3.4 11.9-12.4 4-68.3-20-101.6-33.6-33.3-13.6-50.8-26.3-70-25.7-19.2.6-44.6 1.7-44.6 1.7l-12.7-22.4z"/><path class="st3" d="M703.4 307c-1.1-3.4-42.3-25.4-84.7-56.5-42.3-31.1-68.9-44.6-83-46.9-14.1-2.3-26.5 4-26.5 4l-3.2 7.9c2-.6 3.8-1.1 5.2-1.4 5.9-1 11.5 3.1 14.1 8.5 5.5-1.2 12.8-2.2 17.2-.6 7.9 2.8 44.6 25.1 66.1 37.5 21.5 12.4 64.9 45.7 90.9 53.1 3.3 1.2 5-2.2 3.9-5.6z"/><path class="st1" d="M413.2 215c2.3-10.7 32.7-59.3 39.5-61 6.8-1.7 16.4 1.7 15.8 11.9 7.9-1.7 22-2.8 19.8 13.6 12.4-2.3 18.6 7.9 16.4 16.4 5.6 1.1 10.7 11.6 8.5 17.2-2.3 5.6-33.3 21.2-46.9 33-13.6 11.9-36.7-13-36.7-13s-18.7-7.4-16.4-18.1z"/><path class="st4" d="m468.5 165.9-25.4 34.4M488.3 179.4 460 207.6M504.6 195.8c-6.2-1.1-34.4 26-34.4 26"/><path class="st0" d="M399.1 247.2c-6.2-11.3-5.4-27.4-4.8-31.3.6-4 9.3-3.4 11-.6 3.4-3.1 13.6-7.1 19.8-.3 4.5-3.4 16.4-4 18.6 5.1 7.3.6 13 4.5 13 13 5.1 1.1 12.4 5.1 12.4 13 4 3.4 5.1 6.8 3.4 11.3-1.7 4.5-26 11.3-26 11.3s-41.2-10.2-47.4-21.5z"/><path class="st4" d="m405.3 215.3 1.7 11M425 215l-3.4 10.1M443.7 220.1l-4.6 7.9M458.3 233.6l-7.9 7.4M469.1 246l-9.1 6.3"/><ellipse class="st2" cx="418.8" cy="263" rx="29.6" ry="26.5"/><path class="st5" d="M308.2 509.7s-17.5 9.6-10.7 25.4c5.1 9.6 18.1 17.5 25.4 18.6s14.7-.6 14.7-.6 6.8 4 22 0c6.2 1.1 12.4 6.8 26 5.1 13.6-1.7 31.6-12.4 33.9-16.4 2.3-4 .6-19.2.6-19.2l-80.2-11.3-31.7-1.6z"/><path class="st4" d="M322.3 541.9c12.7 1.7 15.2 11.3 15.2 11.3M344.3 538.5c12.7 1.7 15.2 14.7 15.2 14.7"/><path class="st1" d="M311.5 487.7c-4 3.4-8.5 17.5-6.8 24.3 1.7 6.8 17.2 6.8 23.7 4.8s13.6-16.1 13.6-16.1l-7.1-22.6c.1 0-19.4 6.2-23.4 9.6z"/><path class="st1" d="M273.1 400.2s-9.6 33.9-9.6 41.2 5.6 15.2 15.2 17.5c9.6 2.3 26-1.1 30.5-4-10.2 10.2-8.5 16.9-8.5 16.9s-6.8 2.3-9 4.5c-2.3 2.3-.6 6.2 2.3 6.2s10.4-1.7 10.4-1.7.8 9.6 10.4 11.9c9.6 2.3 16.9-2.3 16.9-2.3l4.5-36.7-14.5-26.7s-20.9-1.4-25.4.8c.6-13 0-18.1 0-18.1l5.6-17.5L289 377l-12.4 11.3-3.5 11.9z"/><circle class="st1" cx="271.5" cy="395.1" r="9"/><circle class="st1" cx="301.4" cy="404.7" r="9"/><path class="st5" d="M268.7 375.9c-2.7 3.6-4.8 6.9-4.6 8.4.6 4 48 18.6 51.4 16.4 1.3-.8 1.8-4.1 2-7.7-7.8-1.1-27.4-4.8-48.8-17.1z"/><path class="st4" d="m273.1 388.3 4.6-7.9M283.9 391.7l2.2-7.3M296.3 396.2l1.1-9M307.6 399.6l1.7-7.9"/><path class="st0" d="M317.2 379.9 278.8 364s-5.8 6.2-10.1 11.9c21.3 12.3 41 16 48.8 17.1.3-6-.3-13.1-.3-13.1z"/><path class="st3" d="M285.6 346.5c-6.2.6-10.7 14.1-8.5 22.6 2.3 8.5 33.9 17.5 40.1 14.7 6.2-2.8 7.9-10.2 5.1-17.5s-10.7-13-10.7-13-19.8-7.3-26-6.8z"/><circle class="st5" cx="310.4" cy="289.6" r="10.7"/><circle class="st4" cx="310.4" cy="289.5" r="3.7"/><path class="st2" d="m288.4 331.3-33.9.6.6 10.7h28.8l10.7 3.4 8.5-2.3-9.1-14.1z"/><path class="st5" d="M222 332.4c7.1 13 16.1 13.6 22.3 13.6 6.2 0 12.4-3.4 12.4-9.6s-4.5-10.7-10.7-11.3c-6.2-.6-10.7 5.1-24 7.3z"/><path class="st4" d="M243.2 330.5c-12.4 7.4-15.6 4.3-21.2 2"/><path class="st4" d="M247.2 335.8c-15 8.6-23.7-1.4-25.1-3.4"/><path class="st1" d="M307.5 298c-6.5-1.4-14.6-2.3-16.9-2.3-4 0-12.4 20.9-12.4 20.9l22 27.1 8.2-14.1-3.4-2.8 2.5-28.8z"/><path class="st5" d="M316.6 320c1.1-3.4 1.1-15.8 0-18.6-.5-1.2-4.4-2.4-9.1-3.3l-2.5 28.7 3.4 2.8 2-3.4s5.1-2.8 6.2-6.2z"/><path class="st4" d="m294.6 303.1 22.6 3.9M291.8 309.3l25.4 3.9"/><path class="st2" d="M269.8 312.7c1.7.6 15.8 21.5 27.7 31.1 11.9 9.6 8.5-1.7 8.5-1.7s.6-1.1-5.6-7.9c-6.2-6.8-24.3-24.3-24.3-24.3l-6.3 2.8z"/><circle class="st5" cx="268.1" cy="301.9" r="13.6"/><circle class="st4" cx="268.1" cy="301.8" r="4.7"/><path class="st5" d="M310.4 317.2c-2.8-3.4-11.3-2.3-11.3.6 0 1.6.7 5 1.1 8.5H312c-.3-4.8-.8-8.2-1.6-9.1z"/><path class="st1" d="M300.3 326.2c.3 2.9.5 5.9 0 7.9-1.1 4.5-2.3 7.3-6.8 8.5-4.5 1.1-9.6 0-9.6 0s4.5 19.8 7.9 22.6c3.4 2.8 17.8 2.8 19.5-.6 1.2-2.5 1.7-25.3.8-38.4h-11.8z"/><path class="st0" d="M321.7 427c-2.8 8.2 7.9 32.5 6.8 56.7s-7.9 50.8-7.9 50.8 29.9 16.9 65.5 8.5 42.3-29.4 42.3-29.4l1.7-64.4-76.8-41.8c0 .1-28.8 11.4-31.6 19.6z"/><path class="st2" d="M339.8 423.9c6.2 29.4 1.1 101.6 1.1 101.6s31.9 2.3 51.7-5.6c19.8-7.9 27.9-17.5 27.9-17.5l5.1-28.8-11.3-27.7-62.7-29.9s-18-21.5-11.8 7.9z"/><path class="st5" d="M351.6 431.8s4 39 .6 85.3c63.2-2.8 58.7-36.1 58.7-36.1v-26.5l-46.3-24.3-13 1.6z"/><path class="st6" d="M352.2 298.6s-15.2-6.8-15.8-11.9c-.6-5.1 7.3-21.5 10.7-23.7 3.4-2.3 15.8-1.7 21.5-1.7 5.6 0 63.2 28.8 71.7 38.4 8.5 9.6 19.2 26.5 17.5 55.9-1.7 29.4-17.5 55.9-14.1 99.9s20.9 53.6 20.9 53.6-35.6 10.2-50.8 0c8.5-23.7 5.1-54.8 5.1-54.8l-10.7-94.9-56-60.8z"/><path class="st0" d="M368 438.6c20.6 12.9 46.5 18.9 57.7 21.1l3.3-5.3-18.1-55.9-53.1.6-21.3-.4c3.1 8.9 11.6 27.4 31.5 39.9z"/><circle class="st1" cx="327.6" cy="421.4" r="10.4"/><circle class="st1" cx="349.4" cy="448.2" r="10.4"/><circle class="st1" cx="381.6" cy="465.7" r="10.4"/><circle class="st1" cx="412" cy="473" r="10.4"/><path class="st5" d="M368 438.6c-19.9-12.4-28.4-31-31.5-39.9l-8.6-.2s.6 27.7 39 49.7 53.6 19.8 53.6 19.8l5.2-8.3c-11.1-2.2-37-8.2-57.7-21.1z"/><path class="st4" d="m330.7 407 6.3-2.9M337.2 418.3l6-3.4M345.4 429.5l5.1-3.9M354.5 438l4.5-5.6M365.7 446.5l2.9-5.1M375.9 451.6l4-5.7M387.8 456.6l1.7-5M399.1 461.7l1.1-6.7M411.5 464.6l.5-7.4"/><path class="st3" d="M366.9 388.3s-13.6 9.6-14.1 12.4c-.6 2.8 22.6 28.2 39 31.1 16.4 2.8 21.5-12.4 21.5-12.4l-.6-36.1-37.3-4.5-8.5 9.5z"/><path class="st1" d="M358.7 283c-2.3 0-8.8 7.6-9.3 12.7-.6 5.1 1.4 8.8-.3 12.7s-11.6 7.1-12.7 11c-1.1 4-1.7 8.3 2.8 10.7-4.2 8.5-9.6 5.6-10.7 9s2.8 5.6 2.8 5.6l-.6 9s-4.2 3.7-1.4 8.8c3.1 3.1 11 .6 13.8 2.8 2.8 2.3.3 6.2 1.7 12.1S355 389.7 359 390s28.2-.6 30.5 1.1c2.3 1.7 7.9 6.8 13.6 5.1s12.4-18.6 12.4-18.6l-9.6-32.7s6.8-5.9 8.5-16.7c1.7-10.7 0-16.7-18.1-29.6-18.1-13-35.4-15.6-37.6-15.6z"/><path class="st5" d="M331.3 344.8s15-.3 20.6.8c5.6 1.1 9.3 4.8 9.9 7.6s-2.8 7.3-5.1 5.6c-2.3-1.7-5.1-3.7-8.5-4.8-3.4-1.1-15.2.8-17.5-.3-2.2-.9.6-8.9.6-8.9z"/><path class="st4" d="m340.9 353.3.6-7.3M349.9 354.4l4.6-6.7"/><path class="st5" d="M365.7 317.2s-3.4-2.3-4-5.1 3.4-6.2 6.8-4.5c3.4 1.7 16.4 9.6 18.9 16.4 1 2.7-7.1 7.3-7.1 7.3l-14.6-14.1z"/><path class="st2" d="M366.3 313.8c-2.3 0-6.8 6.8-5.9 11.9-1.4 5.1-3.7 13.6-.8 15.2 2.8 1.7 7.3 1.1 10.7.6 2.8 2.8 5.1 18.1 7.9 22.6s6.8 2.8 6.2-3.4c-.6-6.2-3.4-28.2-2.3-33.9s-13.5-13-15.8-13z"/><path class="st4" d="M370.3 329s.6 7.9 0 12.4"/><circle class="st5" cx="382.7" cy="368.3" r="10.4"/><circle class="st4" cx="382.7" cy="368.3" r="4"/><path class="st1" d="M348.2 320s10.4 1.1 12.1 5.6.3 8.5-2.5 9-8.5-2.8-10.7-4c-2.3-1.1-7.9-.6-7.9-.6"/><path class="st5" d="M392.3 433.2c-4 4.2-3.4 16.1 1.7 20.6s28.8 5.1 32.2-.6c5.1-9.6-.6-18.6-.6-18.6s-29.4-5.6-33.3-1.4z"/><path class="st4" d="M402.4 435.8s-1.1 11.3 6.2 11.9c7.3.6 6.8-10.2 6.8-10.2"/><ellipse class="st2" cx="415.4" cy="366.3" rx="23.1" ry="21.5"/><path class="st5" d="M393.4 424.5s-4 7.9-1.7 11.9 38.4 4.2 39 1.4c.6-2.8 0-10.4 0-10.4l-14.7-9.6-22.6 6.7z"/><path class="st3" d="M429.4 409.1c-1.2-19.3-2.2-42.7-2.6-45.6-.6-4-18.6-5.1-19.2-.6-.4 2.8-5.8 26.4-9.9 43.5 4.2 2.2 15.1 6.3 31.7 2.7z"/><path class="st0" d="M397.7 406.4c-2.4 10.2-4.3 18-4.3 18s5.6 6.2 37.3 2.8c-.5-4.7-.9-11.2-1.3-18.2-16.6 3.7-27.5-.4-31.7-2.6z"/><path class="st4" d="m399.6 436.3.6-8.5M409.5 436.9l.3-8.2M420 437.2l-.6-8.5"/><path class="st1" d="M325.7 628.3s-14.1-2.5-18.6-.3c-4.5 2.3-9.9 13.8-10.4 21.2-.6 7.3.3 25.4-3.1 28.8-3.4 3.4-10.7 2.8-13.6 5.6s-1.1 6.8-1.1 6.8-3.4 4 0 6.8c-5.1 4-2.8 8.5-2.8 8.5s-6.8 5.6-2.8 9.6c-1.7 4.5-3.4 13.6 1.7 14.7 5.1 1.1 9 .6 14.7-3.4 14.7-11.9 28.8-59.9 28.8-59.9l9-19.2-1.8-19.2z"/><path class="st4" d="m278.8 690.4 10.2-1.1M278.8 697.2l8.5-.6M276 705.6h10.1M273.1 715.2c1.7 3.4 11.9 2.8 11.9 2.8"/><path class="st0" d="M325.1 608s-1.1 18.6-6.8 58.7c12.3-4.6 20.4-11.5 37.4-13.6L357 610c-17.5-2.9-31.9-2-31.9-2z"/><path class="st3" d="m357.1 609.9-1.3 43.1c1.7-.2 3.6-.4 5.5-.5 2.7-.1 5.5-.1 8.5.2 2.1-18.2 2.9-31.1 3-39.5-5.4-1.4-10.7-2.5-15.7-3.3z"/><path class="st7" d="M524.4 368.6s-18.6-11.9-23.1-20.9-2.3-30.5 15.2-42.3c15.8-10.7 44.6-.6 53.6-2.3-5.6-1.7-8.5-8.5-6.8-14.1 1.7-5.6 19.8-11.3 28.2-9 8.5 2.3 15.8 8.5 16.4 20.9.6 12.4-9.6 24.3-9.6 24.3l-13 46.9-18.1 16.4-42.8-19.9z"/><path class="st4" d="M570.1 303.1c3.4 0 7.9-.6 11.9-5.1"/><path class="st7" d="M525 329.6s29.4-2 41.8 3c-1.1-10.3-2.8-16 .6-18.8s18.6-1.1 21.5 11.9c5.6-2.3 18.1 1.1 19.8 10.7 4.5-1.1 15 5.4 15 14.4s-7.1 8.8-8.2 11.6c-1.1 2.8 1.1 22 0 27.7-1.1 5.6-11.9 12.4-11.9 12.4l-44-21.5-17.5-7.9"/><path class="st4" d="m588.8 325.7-3.4 12.4M608.5 336.4l-5.6 10.7"/><path class="st1" d="M536.8 370.3s-5.4-15.5-3.1-19.5 7.6-3.1 8.8-.8c2.8-2.8 13-2.8 14.7 0 4-2.3 12.7-2.3 14.1 3.4 4-1.1 11.9 0 12.4 8.5 4.5-1.7 13 4.5 11.9 9-1.1 4.5-12.4 15.2-12.4 15.2l-9 8.5-29.9-14.1-7.5-10.2z"/><path class="st4" d="m542.5 349.9 1.1 8.5M557.2 349.9v8.5M571.3 353.3l-3.4 6.2M583.7 361.8l-3.4 6.8"/><path class="st1" d="M501.3 388.9s-8.5-13-8.5-16.9c0-4 13.6-4.5 16.4-2.3 2.3-4.5 19.8-6.2 24.3-1.1 5.1-2.8 22 .6 23.7 5.6 4.5-1.7 17.5-.6 20.9 8.5 5.1-1.7 15.2 3.4 18.1 11.9 5.1 0 12.4 4 10.2 13.6 4-.6 11.3 8.5 10.2 11.9-1.1 3.4-18.6 4-18.6 4l-48-10.7-48.7-24.5z"/><path class="st4" d="M509.2 369.7s2.3 11.3 7.3 18.1M533.4 368.6s0 8.5.6 19.8M557.2 374.2s-.6 7.3-4.5 19.2M578 382.7s-2.8 7.3-9.6 18.1M596.1 394.5s-4.5 5.6-11.3 16.4M606.3 408.1s-7.9 5.1-13 10.2"/><path class="st2" d="M553.8 401.9c-19.1-7.8-39.4-6.7-50-5.3 3.8 16.5-4.9 24.1-2.5 29 2.8 5.6 10.7 8.5 10.7 8.5s32.7 28.2 41.2 24.8 23.7-21.5 23.7-21.5 6.2-3.1 14-6.1c-3.6-6.2-13.3-19.2-37.1-29.4z"/><path class="st0" d="M556.6 392.8c-19.8-7.9-46.9-9-55.3-4 1.1 2.8 1.9 5.3 2.5 7.7 10.6-1.4 30.9-2.5 50 5.3 23.8 10.2 33.6 23.2 37.2 29.5 2.7-1 5.7-2.1 8.6-3-1.8-10-23.2-27.6-43-35.5z"/><path class="st5" d="M517.9 423.9c1.9-.8 4.3-6.4 5.6-9.8-2.2-1.2-4.4-1.9-5.8-1.5-2.4.7-4.3 5.4-5.8 10.6 2.1.7 4.6 1.3 6 .7z"/><path class="st1" d="M579.2 438.6c0-9-6.5-8.5-6.5-8.5s.9-11.9-8.7-10.7c-4 1.1-12.1 22.3-17.8 24-5.6 1.7-20.6 2.5-21.7-5.4-1.1-7.9 4.8-8.5 5.9-14.1.7-3.6-3-7.7-6.9-9.8-1.3 3.4-3.6 9-5.6 9.8-1.4.6-3.9 0-6-.7-1 3.4-1.7 7.1-2.1 9.8-1.1 6.8 0 14.1 0 14.1L520 464l24.8 4.5s14.7 2.8 22.6-2.3c7.9-5.1 15.5-15 15.5-20.6s.8-6.5-3.7-7z"/><circle class="st1" cx="481.5" cy="500.7" r="9"/><circle class="st1" cx="505.2" cy="514.8" r="9"/><path class="st5" d="M521.6 505.8c-5.6-8.5-33.3-19.8-37.3-21.5 0 0-7.6 7.9-7.3 10.7.1 1.4 11.6 3.2 20.7 7.7 9.9 4.8 17.6 12.1 19.4 11.5 3.4-1.1 4.5-8.4 4.5-8.4z"/><path class="st4" d="m487.7 497.9 4.5-11.3M497.3 501.3l4.5-11.9M508 507.5l5.7-13"/><path class="st0" d="M484.3 484.3c4 1.7 31.6 13 37.3 21.5 2.1-2.9 4.3-6 6.4-9.2-6.3-4.4-23-15.5-40.5-22-1.3 3.2-2.4 6.6-3.2 9.7z"/><path class="st3" d="M509.7 447c-6.8-.5-18.1 17.5-22.2 27.5 17.5 6.5 34.2 17.6 40.5 22 8.9-13.6 16.7-28 16.7-28s-22.6-11.9-35-21.5z"/><path class="st4" d="M556.9 447.3c7.3-4.5 15.8-17.2 15.8-17.2M561.1 457.8c11.5-3.4 18.1-19.2 18.1-19.2"/></svg>