<svg version="1.1" id="Calque_1" xmlns="http://www.w3.org/2000/svg" x="0" y="0" viewBox="0 0 900 900" style="enable-background:new 0 0 900 900" xml:space="preserve"><style>.st0,.st1,.st2{fill:#007f00;stroke:#000;stroke-width:4.058;stroke-linecap:round;stroke-linejoin:round;stroke-miterlimit:10}.st1,.st2{fill:#ffce00}.st2{fill:#fff}.st3{fill:#8e8e8e}.st10,.st3,.st4,.st5,.st6,.st7,.st8{stroke:#000;stroke-width:4.058;stroke-linecap:round;stroke-linejoin:round;stroke-miterlimit:10}.st10,.st5,.st6,.st7,.st8{fill:none}.st10,.st6,.st7,.st8{fill:red}.st10,.st7,.st8{fill:#723300}.st10,.st8{fill:#ff7300}.st10{fill:none;stroke-width:6.0869}</style><path class="st0" d="M511.8 141.6c37.5-22.3 51-68.7 57.5-68.7 6.4 0 1.4 42.3-16.2 60.9S511.8 170 511.8 170l-10.2 7.1 7.9-27.4 2.3-8.1z"/><path class="st1" d="M202 299.6c.2 4.1.4 8.1.5 11.8h28.1l.8-11.3-29.4-.5z"/><path class="st1" d="m203.1 331.5 26.5-4.4 1.1-15.8h-28.1c.4 11.5.5 20.2.5 20.2zM233.4 273.6l-33.6-2.4c.4 3.3.8 7 1.1 10.8l31.8 2.5.7-10.9zM232.6 284.5l-31.8-2.5c.5 5.7.9 11.8 1.2 17.7l29.4.5 1.2-15.7z"/><path class="st2" d="M196.2 256c1.4 2.3 2.5 8 3.4 15.2l8.2.6-2-15.7c-3-.2-6.1-.2-9.6-.1zM205.9 256l2 15.7 7 .5-1-15.6c-2.5-.2-5.1-.5-8-.6zM234.1 262.8s-3.2-2.1-9.9-4.1v14.2l9.2.7.7-10.8zM214 256.7l1 15.6 9.1.7v-14.2c-2.8-.9-6.2-1.6-10.1-2.1z"/><path class="st3" d="M213.5 382.9s-20.5-46.6-15.4-52.3c5.1-5.8 39.6-13.1 42.5.6 2.9 13.7 1.3 49.2 1.3 49.2l-28.4 2.5z"/><path class="st4" d="M222.4 372.3s-6.3-37.2-2.8-37.2c3.4 0 10 34.6 10 34.6l-7.2 2.6z"/><circle class="st2" cx="229.6" cy="387.6" r="21.5"/><path class="st5" d="m210.1 380.4 6.7 14.5M216.2 371.3l5.6 18M225.9 366.5l2.3 22.7M235.1 367.7l-1 19.9M244.6 372.3l-6 17.9M250.5 381.8l-7.4 14"/><path class="st1" d="M216.6 466s-1.9-54.2 0-57.9c1.9-3.8 30.8-11.4 31.4-7.5.6 3.9-1.3 62.3-1.3 62.3l-30.1 3.1z"/><path class="st2" d="M623.8 561c-17-35.7-34.3-38-35.8-38.3l11.7 70 2.9 10.4 34-13.2c-3.1-7.9-7.3-17.5-12.8-28.9zM636.7 590l-34 13.2 3.7 13.2 35.9-11.5c-1.4-4.1-3.2-9.1-5.6-14.9z"/><path class="st2" d="m606.4 616.4 5.1 18.3s25.4-6.1 34.8-14.2c-.1-2.3-1.2-7.4-4-15.4l-35.9 11.3z"/><path class="st5" d="m617.8 623.2 2.5 8.9M623.8 621.2l3.2 8.7M632.5 618.3l2.9 7.9M638.3 615.3l3 7.9"/><path class="st2" d="M641.7 709.8c0 8.7-11.9 14.7-11.9 14.7l-6.4-12.7 4.6-10.2c.1 0 13.7-.4 13.7 8.2z"/><path class="st2" d="M621.4 685.6s10.1-1.8 13.6 9.5c3.3 11.4-7.7 21.8-7.7 21.8l-12.8-12.2 6.9-19.1z"/><path class="st6" d="M611 667.8s12.1-4 16.3 7c4.3 11-9.3 26.9-9.3 26.9l-12.6-23.2 5.6-10.7z"/><path class="st6" d="M594.4 653.9c1.3.4 19-4.6 22.6 4.5 3.8 9.1-8.4 30-8.4 30l-14.2-34.5z"/><path class="st7" d="M574.1 773.7s-9.1 5.5-9.1 11.4c0 4.2 4.4 5.2 8.1 3.1 0 6.1 5.8 5 7.5 2 2.2 2.9 7 4.4 9 0 .6 6.6 8.2 5.4 10.1-1.1 1.9-6.5 2.3-6.3 2.3-6.3l46.4-12.2-10.1-38.2-38.7 13.3-11 20.1-14.5 7.9z"/><path class="st6" d="M608.6 672.6c-8.6 3.3-18.8 6.6-27.3 7.8 2.2 4.6 4.8 9.2 7.5 14 9.6-1.4 18.8-5.3 25.7-8.8-2-4.3-4.1-8.6-5.9-13z"/><path class="st7" d="M600.5 649.1c-9.1-35.4 17.6-64 12.5-86-5.1-21.9-19.3-26.1-19.3-26.1l-29.1 2.3-8.4 71.7s11 31.4 19.6 56.5c1.3 4 3.2 8.3 5.6 12.9 8.5-1.2 18.7-4.5 27.3-7.8-3.4-7.9-6.3-15.9-8.2-23.5z"/><path class="st2" d="M638.3 728.4s-4.8-7.3-11.1-18.4c-6.3 3.3-14.9 7.4-22.8 9.7 6.6 10 11.6 17 11.6 17l22.3-8.3z"/><path class="st8" d="M614.5 685.6c-6.8 3.6-16 7.4-25.7 8.8 2.7 4.9 5.7 9.7 8.6 14.3 8.4-2.1 17.3-5.7 24.3-8.7-2.3-4.6-4.9-9.4-7.2-14.4z"/><path class="st6" d="M621.8 700c-7 3-15.9 6.6-24.3 8.7 2.4 3.9 4.8 7.6 7 11 8-2.3 16.5-6.4 22.8-9.7-1.7-3.1-3.7-6.4-5.5-10zM566 758.9c0 10 5.5 21.2 15.3 18.9 9.8-2.3 25.3-23.5 25.9-31.2.7-7.7-6.8-22-12.9-22.8-6.1-.9-15.6 3-13.1 10.1s14.7 10.3 14.4 14.8c-.3 4.5-10.7 7.4-29.6 10.2z"/><path class="st5" d="M579.2 765.8s22.4-8.5 20.6-20.1c-1.8-11.6-10.4-16-10.4-16"/><path class="st2" d="M629.7 737.5c9.9 13.3 8.6 36.8 8.6 36.8s25.4-8.5 32.5-8.4c0-33.8-15.1-34.3-15.1-34.3s-15.6 5.2-26 5.9z"/><path class="st5" d="M590.5 784s-1.7 2.6-.8 6.2M580.6 790.3c-2.1-2.6.7-7.4.7-7.4M575.4 781.8s-1.8 0-2.3 6.4"/><path class="st1" d="M604.5 719.8c-1.9-2.9-4-6.1-6.1-9.4-1.5 4.7-5.1 16.6-2.9 20.2 2.7 4.4 12.2 2.7 14.5 0 .3-.3.5-.8.6-1.4-1.8-2.8-3.9-6-6.1-9.4zM624.2 711.6c-2.8 1.4-6 2.9-9.2 4.3 1.1 3.7 2.6 9.6 5.4 9.7 4.1.1 6.5-2.3 7.5-6 .5-2.1-1.7-5.5-3.7-8z"/><path class="st6" d="m627.3 710-3.2 1.4.2.2c1-.5 2-1 3-1.6zM602.1 737.8c-4.4 0-10.3 4.4-10.9 6.8-.5 2.3.5 6.6 4.1 8.5s12.9-2.7 12.9-6.7-1.6-8.6-6.1-8.6z"/><path class="st2" d="M635.4 737.8c-.5 1 10.8 13 10.8 13v-15.6l11.8 10.6-3.8-16-18.8 8zM642.6 771.5c.5-.8-.3-17.3-.3-17.3l13.5 14.8-2.1-18.6 12.9 13.2-24 7.9z"/><path class="st6" d="M605.3 736.8c-2.8 2-1.8 8.6 2.9 10.2s45.3-9.5 47-13.6c1.7-4.1-1.3-10-5.1-10-3.6 0-42 11.4-44.8 13.4z"/><path class="st2" d="M598.9 782.8c-2.1 2.2-1 7.9 2.2 8.3s83.2-25 85.2-26.6c2-1.7 1-8.3-3.3-8.3s-81.9 24.5-84.1 26.6zM558.9 597.8s7.8 9.7 13.9 7.7c6.1-2 16.5-20 16.5-32.8 0-12.8-2.7-29.1-2.7-29.1L563 547l-4.1 50.8zM521.7 588l1.9-33.2-15-3.3L493 563s-9.8 16.2-20 33.7l42.3 16 6.4-24.7zM451.3 639.1c-.7 8.7 51.4 23 51.4 23l4.5-17.4-49.8-19.8c-3.6 6.9-5.9 12.1-6.1 14.2z"/><path class="st2" d="M462.5 615.3c-1.9 3.4-3.7 6.7-5.2 9.7l49.8 19.7 2.5-10-47.1-19.4zM515.3 612.8l-42.3-16c-3.6 6.2-7.2 12.6-10.4 18.5l47.3 19.3 5.4-21.8z"/><path class="st5" d="m459.8 636.4-3.8 8.2M467.9 639.1l-4.4 10M480.8 642.5l-4 11.4M490.5 644.6l-3.4 12.8"/><path class="st2" d="M538.9 728.4s13.6-19.6 21.7-19.6c-8.1 10.1-13.9 23.6-13.9 23.6l-7.8-4z"/><path class="st1" d="M536.6 732.5s8.4-6.5 12.2-6.4c3.8.1 6.5 15.9 5.5 19.2-1 3.2-11.2 5.4-13.2.2-2.2-5.3-4.5-13-4.5-13zM505.9 724.6s-8.5 14.9-8.1 19.7 7.3 7.7 10.7 5.3 5.4-17 5.4-17l-8-8z"/><path class="st7" d="m431.2 804-4.9 3s-8.2 8.4-7.4 13.4c.8 5 5.6 7.4 8.1 4.1 1.2 4.9 6.9 6.3 8.4 2.3 1.7 4.8 8.4 5 10.9 1 2 3.7 4.8 4.5 8.1 2.6 3.8-2 2.2-7.8 6.4-9.1 4.3-1.3 64-4.1 64-4.1l-20.9-45.7-18.8 2.8-25.1 21.3-21.8 6.3-5.9 2.1h-1.1z"/><path class="st5" d="M450.4 818s-6.8 4-4.1 9.7M435.4 826.7c-1.8-4.8 2.3-9.5 2.3-9.5M429.4 815.8s-3.6 3.9-2.3 8.6"/><path class="st2" d="M566 806.5s-9.4-26.1-15.5-31.8c-6.1-5.7-51.6 2.7-51.6 2.7l15.4 36.3 51.7-7.2z"/><path class="st6" d="M422 781.2c-2.7 1.7-1 28.7 4.8 28.7s31.6-8.8 49.4-16.2c17.9-7.4 23.7-30.3 16.4-39.3-7.3-8.9-23.5.4-25.9 4.5-2.3 4.2 4.1 17.9 3.8 25-.6 7-45.9-4.5-48.5-2.7z"/><path class="st5" d="M427 795.7c1 .3 38-1.4 44.9-8.1 6.9-6.7 9.8-27.6 9.8-27.6M510.5 780.2s9.4 16.7 9.8 15.4c.3-1.3 4.4-18 4.4-18h5.4s11.5 19.3 11.5 18c0-1.3 1.3-21.3 1.3-21.3l-32.4 5.9z"/><path class="st5" d="m527.3 813.7 3.2-20.5 9.2 18 8.1-1.3 3.3-19.6 8.3 17.1z"/><path class="st2" d="M508.5 737.7c3.9 18.8 3.4 33 3.4 33l31-3s-1.9-12.2-1.7-28.8c-9.8 0-23.1-.1-32.7-1.2z"/><path class="st7" d="M574.4 544.4h-58.1s-6.6-33.2-3.3 13.9c3.2 47.1-7.8 69.7-13.3 98.2-1 5.6-1.1 13.2-.4 21.9 12.6 3.8 27.8 4.3 37.7 4.1-1-5.1-2.2-9.9-3.9-14.3 8.4-14.2 27.4-50.7 31.8-70.3 4.8-2.1 12.9-14.6 15.2-26.5 2.4-11.8-5.7-27-5.7-27z"/><path class="st2" d="M524.8 758.9c12.7-11.9 7.5-23.7 7.5-23.7H521.6c.1-.1 4.2 7 3.2 23.7z"/><path class="st6" d="M508.5 737.7c9.6 1.1 22.9 1.2 32.8 1.1v-12.6c-11.3-.4-25.5-.9-35.3-1.6.8 4.5 1.6 8.9 2.5 13.1z"/><path class="st8" d="M500.5 691.4c1.3 10.8 3.2 22.3 5.4 33.2 9.8.7 24 1.2 35.3 1.6-.2-10.3-.8-21.5-2.3-32.3-11.1.4-27.3.3-38.4-2.5z"/><path class="st6" d="M499.3 678.5c.3 4.1.7 8.4 1.3 12.9 11.2 2.8 27.3 2.9 38.3 2.5-.5-3.9-1.1-7.7-1.9-11.4-9.9.2-25.2-.4-37.7-4z"/><path class="st6" d="M556.2 675.1c-7 2.5-14.9 2.8-20.3 2.5.4 1.6.7 3.1 1.1 4.8.7 3.7 1.3 7.4 1.8 11.2 3.6.1 9.4 1.5 15.6 7.9 1.7-7.1-6.8-16.3-6.8-16.3s8.6-3.2 8.6-10.1zM493.6 769.6c-2.3 4.3-.8 11.2 2.7 12.9 3.6 1.7 62.2-3.1 64.2-4.9 2-1.7 2-7.9 0-10.3-2-2.4-64.5-1.9-66.9 2.3z"/><path class="st2" d="M461.1 815.7c-4.1 1.3-4.4 9.8 1 11.9 2.9 1.1 38.6-1.2 70.4-6 26.1-3.9 49.8-10 51.3-11.6 3.3-3.3-.7-10.4-3.2-10.1-1.1.1-23.3 6-48.4 9.2-32.1 3.9-68.8 5.7-71.1 6.6z"/><path class="st6" d="M460.8 785.8c0 2.7 8.1 9.8 12.2 9.8s9.4-6.4 9.4-9.1-5.1-8.8-10.3-8.8c-5.2 0-11.3 5.5-11.3 8.1z"/><path class="st2" d="M524.7 514.3c39.3-4.4 49.7-10.1 57.3-15-4.6-10.4-3.9-12.8-5.6-28.7-1.8-16.3-14-35.2-22.4-41.9 0 0 9.8 8 19.4 15.3l5.8-36.9c-2.4-1.8-4.1-3.1-4.1-3.1l-37.8-44.7-118 27.2s-20 28.1-17.6 38.6c2.3 10.4 54.8 5.1 61.2 71.3.7 6.6 1.2 12.5 1.5 17.7 10.9 1.8 30.8 3.5 60.3.2zM530.5 527.8c-33.2 2.5-54.5 1.5-66 .4-.8 25.9-8.5 26.6-6.5 32.1 2.7 7.1 18.6 9.6 26.4 1.7 6.4 11.5 30.4 10.9 28.5-3.8 4.2 5.4 14.8 6.8 22.9 0 10.1 6.4 25.1 2 28.1-6.1 5.8 5.4 14.2 1.7 15.2-4.4 1.7 3.8 16.5 7.8 19-3 1.4-6.7-2.8-17.6-7.5-27.6-9.4 3.4-27.5 8.3-60.1 10.7zM693.1 577.2l-32.8 8.4s.5 10.1 2.2 20.9c13.5 3.8 41.8 8.1 87-1.3 38.2-8 59.3-18.1 70.4-25.2-4.8-5.8-9.7-11.9-9.7-11.9l-117.1 9.1z"/><path class="st2" d="M662.7 606.6c1.5 9.5 4.1 19.5 8.1 23.3 8.5 8.2 17.6.9 19.3-10.1 6.4 13.7 19.5 12.5 21.5-4.5 10.1 19.3 22.6 12.3 22.8-2.7 5.9 13 22.1 10.2 20.8-3.9 9.3 11.1 25 2.8 22.7-3.8 7.9 6.6 16.5 2.3 15.3-8.7 7.6 8.7 15.7 4.4 15.7-4.8 7.6 9.9 20.1-.5 14.7-7-1.1-1.4-2.4-2.9-3.7-4.5-11.1 7.1-32.2 17.1-70.4 25.2-45.1 9.6-73.3 5.2-86.8 1.5z"/><path class="st5" d="m809 591.5-11.6-13M779.9 582.8l13.4 13.4M778 604.9l-15.8-18.2M744.1 590.4l11.2 18.3M734.4 612.6c-6.1-8.6-12.1-18.5-12.1-18.5M703 596.2s4.2 10.3 8.7 19.1M690.1 619.8c-6.4-13.1-11-24.8-11-24.8"/><path class="st3" d="M669.5 567.4s-16.2 4.9-12.2 17.1c4.1 12.3 36.6 16.1 89 5.4 52.3-10.7 65.7-14.6 69.3-20.6 3.6-5.9-3-13.4-3-13.4l-143.1 11.5z"/><path class="st1" d="M668 541.5s-9.8 7.6-5.4 20.8c4.4 13.2 9 18.6 18.8 21.8s124.1-13.2 132.5-22.3c8.4-9.1-1.5-16.6-3.8-22.1s-1.6-11.5-1.8-13.7l-60.9-17.6-79.4 33.1z"/><path class="st5" d="M669.5 546.5c0 12 12.6 25.9 19.7 37.9M687 537.1c-2.4 29.5 18.3 46.5 18.3 46.5M702.1 538.2c-2.1 24.8 19.3 43.2 19.3 43.2M721.3 531.4c-3.8 37.7 16.7 47.1 16.7 47.1M742.5 532.9c-3.9 26.9 14.9 42.8 14.9 42.8M755.3 530.8c-1.3 21 21.9 42 21.9 42M774.6 524.2s-3.3 36.7 15.9 45.4M789 526.2s-8.4 24.7 20 37.7"/><path class="st1" d="M668.5 525.8c0 .8-7.4 15.2-4.1 20.8 3.3 5.6 16.1-1 16.1-1v-22.8l-12 3z"/><path class="st1" d="M677.6 519.9c1 4.4-5.3 19.4-2.7 25.9 2.5 6.5 18.4-.8 18.4-.8v-22.3l-15.7-2.8z"/><path class="st1" d="M689.8 518.7s-2.8 20.8 3.3 26.4 15.6-1.5 15.6-1.5l-.5-22.3-18.4-2.6z"/><path class="st1" d="M707.5 516.2s-3.8 20.3 2.3 27.4c6.1 7.1 18.3.3 18.8-6.3s-6.3-18.5-6.3-18.5l-14.8-2.6z"/><path class="st1" d="M722.3 519.9s3.2 18.6 11.6 21.1c8.4 2.5 15.5-5.2 15.5-5.2l-7.9-22.6-19.2 6.7z"/><path class="st1" d="M740.8 516.2s3.9 19.6 11 21c7.1 1.5 12.5-4.3 12.5-4.3l-11-18.4-12.5 1.7z"/><path class="st1" d="M752.5 517.7s6.3 15.7 12.9 18.2c6.6 2.4 13.2-4.2 13.2-4.2l-8.4-15.4-17.7 1.4z"/><path class="st1" d="M765.6 513.1s7 18.8 13.1 20.8 12-4.5 12-4.5l-6.9-18.6-18.2 2.3z"/><path class="st1" d="M781.9 514.7s4.6 15 8.6 16.7c4.1 1.7 9.9.4 11.5-2.9 1.5-3.3-5.6-15.3-5.6-15.3l-14.5 1.5z"/><path class="st1" d="M792 508.6s6.1 16.8 9.9 19.9c3.9 3 9.6 3.3 9.6 0s-5.1-11-5.1-11l-6.9-6.6-7.5-2.3z"/><path class="st0" d="M784.9 371.3s26.7 1.5 29.9 5.6c-8.4 7.4-25.4 9.6-25.4 9.6s19.8 2.8 24.3 8.4c-6.1 8.4-24.9 11-24.9 11l-3.9-34.6z"/><path class="st0" d="m713.1 357.9 8-1.5s82.1-5.2 92.7 9.1c-16.7 7.3-28.2 7.3-28.2 7.3l-62.2 1.3-10.3-16.2z"/><path class="st0" d="m710.4 340.4 8.7-5.4s62.8 1.2 85.1 11.5c-2.8 11.5-85.1 9.8-85.1 9.8l-8.7-15.9z"/><path class="st0" d="m710.4 321.6 7.2-3.3s67.2 3.1 86.6 12.6c-37.1 8.7-85.1 4.2-85.1 4.2l-8.7-13.5z"/><path class="st0" d="M710.4 302.3s85.4-3.6 98.9 10.7c-40.1 8-91.7 5.3-91.7 5.3l-7.2-16z"/><path class="st0" d="M710.4 288.1s90.8-10.9 101.1 7.9c-40.9 12.5-97.4 5.4-97.4 5.4l-3.7-13.3z"/><path class="st0" d="M713.4 272.7s90.6-9.6 100.4-2c-43.1 14.9-101.4 17.4-101.4 17.4l1-15.4z"/><path class="st6" d="M325.2 408.1c-4.3 27.1 6.4 43.9 20.3 43.6 13.8-.3 3.1-32.5 12.9-43.3 9.7-10.9 17.1-2.3 22.1-15.2 5-12.9-5.2-40.2-5.2-40.2l-31.8 22.8c-.1.1-14.1 5.2-18.3 32.3z"/><ellipse class="st1" cx="506.2" cy="460" rx="40.9" ry="38.2"/><path class="st2" d="M533.4 329.9c2.1.1 18.7 15.7 19.1 19.2.3 3.3-22.5 19.7-22.5 19.7l-18.8-6.3 1.1-21 21.1-11.6z"/><path class="st7" d="M522.1 339.9c-.4 1.3 1.1 25 1.1 25l-42 3.9 2.1-28.9h38.8v0z"/><circle class="st1" cx="420" cy="396.8" r="10.3"/><circle class="st1" cx="443.7" cy="417.4" r="10.3"/><circle class="st1" cx="479.8" cy="427.7" r="10.3"/><circle class="st1" cx="513" cy="418.5" r="10.3"/><circle class="st1" cx="540.2" cy="400.5" r="10.3"/><path class="st6" d="M432.7 254.2c-2.7 5.8 1.7 19.5-1 23.6-2.7 4.2-17.2 19.3-17.2 23s6.4 3.3 6.4 3.3-5.3 14.8-1.7 15.1 15.5-2.8 18-2.8c2.3 0 2.3 6.3.3 8.1-2 1.8-21 3.9-22 5.8-1 1.8-1.7 6 1 7.9s13.7-1.2 12.9 1.1c-.8 2.3-4.1 11.6 1.3 16.5 5.4 5 19 0 19 0l-2 20.6 27.1-8.1 12.4-96.2-44.8-19.7c-.2.3-7-3.8-9.7 1.8z"/><path class="st8" d="M491 403.8c43.7-9.2 41.4-38.9 39.6-48-21.2 3.8-87.1 13.4-95.9 16.1-4.4 1.3-7.8 4.4-10.4 7.2 10.3 10.9 35.3 31.4 66.7 24.7z"/><path class="st6" d="M536.2 354.7c-1.1.3-3 .6-5.6 1.1 1.8 9.1 4.2 38.9-39.6 48-31.4 6.6-56.5-13.9-66.8-24.7-3.3 3.8-5.1 7.3-5.1 7.3s27.4 41.3 79.4 28.4c52.3-12.8 42.7-52.6 37.7-60.1z"/><path class="st2" d="M436.8 185.7c-44.3-10.4-70.3-62.6-70.3-62.6s-18 9.1-31.4 48.4-6.8 64.2-6.8 64.2 28.4-2.7 56.8-2.3 49 5.9 49 5.9 47-43.2 2.7-53.6zM560.7 241c25.6 34.5 75.3 29.1 74.9 31.7-.3 2.5-15.1 58.4-61.6 93.8-31.1-59.6-51.8-57.1-51.9-58-.1-.8-15.6-22.8-15.6-22.8s28.7-79.1 54.2-44.7z"/><path class="st7" d="M476 282.3c-15.2 9.1-24.9 61.9-21.3 74.6 2.7 9.9 9.1 23.3 19.3 21.8 6.6-1 18.7-9.8 19.3-35 8.4-1.5 37.5 14.1 43.1-6.6 5.6-20.7-16.2-40.6-16.2-40.6l-9.6-15.5-34.6 1.3"/><path class="st0" d="M491.8 167.4s14.9-31.8 6.8-56.8c-8-25.1-19.2-28.4-21-33.8-1.8-5.4 5.1-10.9 14.2-6.8s26.6 21.6 29.9 44.9c3.3 23.3-13.2 55.1-13.2 55.1l-16.7-2.6zM534.6 159.9c2 0 64.9-27.4 95.7-35.8-5.1 14.5-26.1 31.4-48 41.3-22 9.8-44.9 33.8-44.9 33.8l-22-4.4 1.1-22 18.1-12.9z"/><path class="st1" d="M442.9 293.2c-8.1.3-5.1 6.3-6.1 9.4s-15.9 1.7-15.9 1.7-6.4.3-6.4-3.3c0-2.4 6.4-9.9 11.5-15.9.8-1-6.1-15.4-13.5-13.2-5.3 1.5 2.7 9.1 2 13.2-.7 4.1-5.8 5.1-7.8 10.4-2 5.4-.4 10.9 4.8 13.8 5.1 2.9 25.7 3.7 28.1 1.7 2.4-1.9 4.4-6.2 4.4-6.2s2.3 6 5.9 3.4c3.4-2.4 1.2-15.4-7-15z"/><path class="st2" d="m357.1 352.4 10.9 14.1c1.9-1.9 3.9-3.8 5.8-5.6l-10.4-13.6-6.3 5.1z"/><path class="st1" d="m281.6 462.6 20 1.7s26.9-54.7 61-91.9l-11.9-13.9c-39.2 38.6-69.1 104.1-69.1 104.1z"/><path class="st2" d="m350.6 358.5 11.9 13.8c1.8-1.9 3.7-3.9 5.5-5.8l-10.9-14.1c-2.1 2-4.3 4-6.5 6.1zM368.2 343.8c-1.6 1.1-3.2 2.3-4.8 3.6l10.3 13.7c1.8-1.7 3.8-3.3 5.6-4.9.4-.3.7-.6 1.1-.9l-9.7-13.1c-.9.5-1.7 1-2.5 1.6z"/><path class="st1" d="M416.1 318.7c-10.4 3-25.2 9.7-45.4 23.5l9.7 13.1c16.6-13.7 28.6-20.5 37.2-24 .7-6.2-.4-10.3-1.5-12.6z"/><path class="st2" d="M429.2 316.2c-3.2.2-7.6.8-13.2 2.4 1.1 2.3 2.2 6.5 1.6 12.5 5.7-2.3 9.9-3.3 13-4 .3-3 .2-7.7-1.4-10.9z"/><path d="M437.2 316.6c-1-.1-3.6-.7-7.9-.5 1.6 3.1 1.6 8 1.4 11.1 3.7-.7 5.8-.9 6.8-2.4 3.3-4.7 3-7.8-.3-8.2z" style="fill:#8e0000;stroke:#000;stroke-width:4.058;stroke-linecap:round;stroke-linejoin:round;stroke-miterlimit:10"/><path class="st5" d="M460.1 424.7S448 451.4 438.3 445"/><path class="st5" d="M449.2 441.6c4.8 7.7 15.9 10.1 15.9 10.1M572.6 531.6s1.8 10.4 6.5 16.1M556.7 534.9s-1.3 10.1 7.3 17.2M535.9 558.3c-6.4-3-1-20.1-1-20.1M507.2 543.8s.6 9.8 5.8 14.5M484.4 562c-2.6-5.5-.9-16.9-.9-16.9"/><path class="st2" d="M530.5 527.8c32.5-2.4 50.6-7.3 60-10.8-2.9-6.3-6.1-12.3-8-16.6-.2-.4-.3-.7-.5-1.1-7.6 4.9-18.1 10.8-57.3 15-29.5 3.2-49.4 1.5-60.4-.4.3 5.5.3 10.1.2 14.3 11.5 1.2 32.8 2.1 66-.4z"/><path class="st7" d="M657.6 427.7v-27.2s-47.4 23.8-54.1 22.1c-5-1.2-17.8-10.6-24.3-15.5l-5.8 36.9c7.3 5.6 14.4 10.6 16.9 11.3 5.7 1.5 67.3-27.6 67.3-27.6z"/><path class="st3" d="M695.6 274.1c-6.2.8-12.9 1.8-18.6 2.6l9 96 23-2-13.4-96.6z"/><path class="st6" d="m664.4 278.8 5.8 95.4 15.8-1.3-9-96c-7.1 1-12.6 1.9-12.6 1.9z"/><path class="st1" d="M722.3 369.7s-8.9-95.2-8.9-97c0-.7-8.1.2-17.9 1.4l13.5 96.7 13.3-1.1z"/><path class="st5" d="m355.8 132.5 11.4 8.8M350.9 141.3l10.6 6.8M339.6 159.7 353 166M336.3 167.7l14.6 4.8M330.3 187.5l13.3 3.1M328.7 195.4l13.4 1.7M326.6 217.4h13M326.6 225.8l17-1.6"/><path class="st10" d="M356.2 208.6v19M347.9 219.4l18.3.7M365.4 185.5l-.9 21.1M355.8 194.7l19.8.7M367.2 157l11.4 18.5M363.4 172.5l17-12.8M389.1 178.4l12.2 20.7M384.8 190.6l21-7.7M384.8 204.2l4.3 21.6M378.6 217.4l21-1.4M414.4 195l1.7 23.1M405.8 208.6l17.6-2M552.4 276.9l9.9 17.3M549.4 288.1l14.9-7.1M562.3 261.7l11.1 15.2M558.4 269.8l16-4M537.2 292.3l9.8 18M533.4 303.4l17.2-5M570.9 312.9l3.5 23.3M560.7 325.5l21.5-5.4M585.9 276.9l10.9 17.3M583.3 292.3l17.8-15.4"/><path class="st5" d="m612.3 288.1 16.2 5.4M607.6 294.2l16.4 9.2M601.1 312.9l14.4 9.9M594.4 320.1l13.2 11M579.2 341.4l10.9 11M574.4 346.9l7.8 12.9M446.3 278.9c0 5.5 19 10.4 19 3s-19-8.6-19-3z"/><path class="st2" d="M455.6 275.5c.7.9 1.1 2.1 1.1 3.4 0 2.5-1.6 4.7-4 5.5 5.5 1.9 12.3 1.9 12.3-2.5.2-3.7-4.6-5.9-9.4-6.4z"/><path class="st4" d="M456.8 279c0-1.3-.4-2.4-1.1-3.4-4.7-.5-9.4.6-9.4 3.3 0 2.2 3 4.3 6.6 5.6 2.2-.8 3.9-3 3.9-5.5z"/><path class="st7" d="M423.5 249.6c-.4 1.5-.7 2.6-.7 3.3 0 6.1 21.5 7.8 38.6 14.2s17.2 48.7 39.6 43.2c1.6-.4 12.9-7.2 19.3-13.8 0 0-10.9-9.4-34.8-26.4-18.1-12.6-48.2-18.4-62-20.5z"/><path class="st2" d="M384.4 341.4c2.3-8 2.3-13.9 2.3-13.9-4.1 0-16.1 14.6-16.1 14.6l4.6 6.1c3.8-.8 8.1-2.8 9.2-6.8z"/><path class="st2" d="M386.8 327.5s0 5.9-2.3 13.9c-1.1 4.1-5.4 6-9.2 6.9l5.2 7s10.7.9 13.3-10.2c2.5-11.2-3-17.6-7-17.6z"/><path class="st0" d="M509.6 312.5c-.9-2.4-2.1-4.8-3.7-6.8-3.1 1.5-7.2 2.8-11.8 2.8-5.8 0-10.6-1.6-13.9-3.2-1.5 2.1-2.7 4.7-3.8 7.4 3.1 1.4 9.8 4 17.7 4 6.8-.1 12.3-2.4 15.5-4.2z"/><path class="st0" d="M511.3 317.7c-.4-1.8-1-3.6-1.6-5.3-3.2 1.8-8.7 4.2-15.4 4.2-7.8 0-14.5-2.5-17.7-4-.7 2-1.3 4.1-1.8 6.2 3.7 1.7 11.6 4.9 19.5 4.9 7.8 0 14.1-3.8 17-6zM506.1 305.7c-2.7-3.8-6.5-6.4-11.5-7.1-6.3-.9-10.9 2-14.2 6.7 3.3 1.5 8.1 3.2 13.9 3.2 4.6 0 8.6-1.3 11.8-2.8z"/><path class="st2" d="M473.2 333.8c0 3.7.5 6.7 1.2 8.4 3.3 8.1 34.5 9.1 37.2 2.3.6-1.5 1.1-4.6 1.3-8.4-6.8 2.1-22.4 5.3-39.7-2.3z"/><path class="st0" d="M512.9 336.1c.3-5.3 0-12-1.6-18.4-2.8 2.1-9.1 6-17 6s-15.8-3.1-19.5-4.9c-1.2 5.2-1.7 10.6-1.6 14.9 17.3 7.7 32.9 4.5 39.7 2.4z"/><path class="st2" d="M493.6 331.5c-3.3 0-6.5 19.7-6.5 22.4s8.8 2.6 8.9 1c.1-1.6 1-23.4-2.4-23.4z"/><path class="st0" d="M518.9 183.2c15.5-9.4 98.1-84.5 100.7-91.3 2.7-6.8 1-13.2-6.8-10.9s-66.2 51.5-66.2 51.5l-45.9 35 7.9 15.5c.2.2-5.2 9.8 10.3.2zM536.8 194.4s11.6-14.2 51.4-25.1c39.9-10.9 58.1 7.8 58.1 7.8s-28.7-.7-57.1 8.4c-28.4 9.1-39.9 23-39.9 23l-12.6-2.8.1-11.3h0z"/><path class="st4" d="M429.4 228.6c-.6 2.4-1.1 4.7-1.7 6.7 12.4 2.6 39.2 9 55.8 17.9 16.3 8.6 35.5 26.2 44.5 35 1.8-2 3.9-4.1 5.8-6.3-9.1-8.7-27.6-25.1-49.4-36.5-20.6-10.7-42.6-15.1-55-16.8z"/><path class="st6" d="M486.9 235.7c-20.1-10.7-42.3-15.9-55.2-18.5-.7 4.2-1.5 7.9-2.3 11.4 12.5 1.7 34.5 6.1 55.1 16.8 21.8 11.4 40.3 27.7 49.4 36.5 1.6-1.7 3.3-3.6 5-5.4-8.6-8.8-29.1-28.8-52-40.8z"/><path class="st2" d="M580.5 233.6c-11.7-11.7-21.8-9.6-21.8-9.6s1-6.6 1-10.7-6.6-11.7-13.7-9.6c0-11.2-9.6-15.7-13.7-12.7-1-9.6-9.1-14.7-15.2-12.7 1-10.7-10.1-15.7-16.2-10.7-.8-5.1-8.1-9.6-15.7-6.6-1.5-4.6-12.7-8.1-17.2-3.6-2.5-6.1-14.2-7.2-20.3-.5-1.5-8.6-6.1-9.6-14.2-8.6 2.4 24.4 1.6 44.2-.4 59.9 7.7-1.1 17.2-2.5 18.7-2.5 2.3 0 1 4.6 4.1 6.1 3 1.5 21.6-3.2 22.8 0s-.2 6.9 2 8.9 21.1.7 21.1 3.2-2.4 5.1 0 10.1c2.4 5.1 18.4 1 20.6 3.6 2.2 2.5-1.2 9.1-1 11.2.2 2 12.7 1.3 15.2 3.6 2.5 2.2 1 8.3 1 11.2 0 1.6 3.9 3.1 9 4.8 11.7-12.8 24.2-26 33.9-34.8z"/><path class="st7" d="M537.4 263.6c0-2.8 1.5-8.9-1-11.2-2.5-2.2-15-1.5-15.2-3.6-.2-2 3.2-8.6 1-11.2s-18.1 1.5-20.6-3.6 0-7.6 0-10.1-18.9-1.2-21.1-3.2-.8-5.8-2-8.9-19.8 1.5-22.8 0-1.7-6.1-4.1-6.1c-1.4 0-11 1.3-18.7 2.5-.4 3.1-.9 6.2-1.3 9 12.8 2.4 35.1 7.8 55.2 18.5 22.9 12.1 43.5 32.1 51.9 40.9 2.5-2.7 5.1-5.5 7.6-8.2-5-1.7-8.9-3.3-8.9-4.8z"/><path class="st5" d="M549.4 241s7.3-8.8 9.3-17M546 203.7c1.3 11.7-13.7 24.7-13.7 24.7M522.1 217.4s10.2-19.6 10.2-26.4M517.1 178.4c.2 16.3-15.5 32.7-15.5 32.7M500.9 167.7c2.2 10.6-13.8 35.5-13.8 35.5M485.2 161.1c1.9 2.2-7.9 34.3-7.9 34.3M464.9 190.6c0-.6 4.6-30.7 3-33.1M447.6 157l1.4 33.6"/><path class="st0" d="m440.8 238.4 8.2 16.4c3.6.9 7.1 2 10.7 3.1l-6.4-16.2c-4.4-1.2-8.5-2.3-12.5-3.3zM462.7 244.7l7 17c3.1 1.3 6.2 2.7 9 4.3l-6.7-18c-3-1.1-6.1-2.2-9.3-3.3z"/><path class="st0" d="m453.3 241.8 6.4 16.2c3.3 1.1 6.7 2.3 9.9 3.8l-7-17c-3-1.1-6.2-2.1-9.3-3zM427.6 235.4c-.5 1.9-1 3.7-1.5 5.3l5.5 10.3c2.5.5 5.2 1 8 1.6l-6.9-16.1c-1.8-.4-3.5-.8-5.1-1.1z"/><path class="st0" d="m432.7 236.5 6.9 16.1c3 .7 6.2 1.4 9.3 2.2l-8.2-16.4c-2.8-.7-5.6-1.4-8-1.9zM424 247.6c-.2.7-.4 1.3-.5 1.8 2.3.4 5.1.8 8.2 1.4l-5.5-10.3c-.9 2.9-1.6 5.2-2.2 7.1zM511.6 273.3l5.3 20.5c2.2 1.8 3.2 2.7 3.2 2.7.6-.6 1.3-1.3 1.9-2l-3.3-14.8c-2.1-2-4.5-4.2-7.1-6.4z"/><path class="st0" d="m501.5 265.2 4.8 20.3c4.9 3.7 8.3 6.5 10.7 8.3l-5.3-20.5c-3.3-2.7-6.7-5.5-10.2-8.1zM518.8 279.6l3.3 14.8c1.8-1.9 3.9-4.1 5.9-6.3-2.5-2.2-5.6-5.2-9.2-8.5zM483.4 253.2 481 252l7.6 20.4c3.2 2.3 6.2 4.5 8.8 6.4l-6-20.8c-2.7-1.7-5.3-3.4-8-4.8z"/><path class="st0" d="m491.4 258 6 20.8c3.3 2.4 6.3 4.7 8.8 6.6l-4.8-20.3c-3.3-2.4-6.6-4.9-10-7.1zM472 248l6.7 18c2.3 1.3 4.7 2.6 6.7 4.2 1.1.8 2.1 1.5 3.1 2.2l-7.6-20.4c-2.7-1.4-5.8-2.7-8.9-4zM537.2 366.5s14.2 26.4 21 34c6.8 7.6 26.4 10.3 26.4 10.3s-3-16.5-11.2-24.3-22.8-28.4-22.8-28.4l-13.4 8.4z"/><path class="st0" d="M550.6 358.1c9.6 1.2 19.5 13.5 26.9 24.7s17 15.5 19.3 22c-4.8 3.3-21.6-5.1-32.2-15.5-10.6-10.4-18-25.4-18-25.4s-5.6-7.1 4-5.8z"/><circle class="st6" cx="543.7" cy="359.3" r="10.3"/><path class="st7" d="M396.9 443.3c-3.8-13.2-32.9-56.5-38.2-66.7s-4-23.9-6.4-27.4c-2.4-3.4-8.1-.7-8.8 2.3-.7 3 4.4 25.1 4.4 25.1s-13.2 8.7-10.9 12.5 11.9 7 14.9 11.5c3 4.6 29.2 70.7 50.5 73 15.5 1.7 29.4-17.9 35.9-28.7-12.4-9.8-26-12.7-32.7-16-2.2 3.7-5.3 8.7-8.7 14.4z"/><path class="st7" d="M343.4 351.6c-3-5.4-9.8-1.1-8.8 1.7-4.8-2-6 1.3-4.8 6-2.5-1.4-5.9.1-4.4 5.9-3.8 4-4.4 5.4-2.3 9.4 2 4.1 8.4 12.5 12.9 13.5s4.4-2.1 4.4-5.5c4.2 1.7 10.2-2 7.5-6.1 0 .2-5.1-21.8-4.5-24.9z"/><path class="st5" d="M334.7 353.3c2.1 6.9 10.8 13.3 10.8 13.3M325.6 365.2c4.4 13.7 14.8 17.6 14.8 17.6M329.9 359.3c5.4 13.8 18.6 19.5 18.6 19.5"/><path class="st3" d="M646.7 374.7c3.3 33.5 15 154.8 15 154.8l144.9-12-17-156.2c-.1-.1-131.8 6.3-142.9 13.4z"/><path class="st6" d="m752.9 373-72.3 6.8c9.5 7.8 28.1 27.5 33.6 63.7 5.4 35.2-1.2 58.9-5.4 69.6l55.4-4.7c-7.2-8.8-21.1-30.7-21.1-68.7-.1-37.5 6.4-58.2 9.8-66.7z"/><path class="st7" d="M714.1 443.5c-5.5-36.2-24.1-55.8-33.6-63.7l-20.2 1.9 12.2 134.5 36.2-3c4.3-10.8 10.8-34.6 5.4-69.7zM776.3 370.8l-23.4 2.2c-3.4 8.4-9.8 29.2-9.8 66.8 0 37.9 13.9 59.9 21.1 68.7l28.1-2.3-16-135.4z"/><path class="st1" d="M679.9 396.5c0 .8-9.6 8.7 2 27.9 8.7-18.9-2-28.7-2-27.9zM687.8 461.9c0 .8-9.6 8.7 2 27.9 8.6-18.9-2-28.7-2-27.9zM770.7 447.9c0 .8-9.6 8.7 2 27.9 8.7-18.9-2-28.6-2-27.9zM761.6 389.5c0 .8-9.6 8.7 2 27.9 8.7-18.9-2-28.6-2-27.9zM706.9 429.3s-3.7 3.9-6.9 1.7c-5.4-3.6-2.4-10.2 1.5-13.7 3.7-3.1 10.3-3.7 14-.3 5.2 5.3.5 24.8 2.7 28.3 2.2 3.6 14 3.6 15.5-1.8s-7.1-23.9-.2-28.4c4-2.5 14.4-4 18.1.1 3.7 4.1 2.6 8.1 1.4 11.7-1.2 3.6-9.1 2.4-9.1 2.4s2.9 15.2-.1 22c-3 6.8-29.6 10.2-33.5 1.5-3.9-8.8-3.4-23.5-3.4-23.5z"/><path class="st5" d="M741 419.6c-4 2.4-1.6 10.2 2.8 9.7M706.9 419.7c3.9 3 3.3 6.3 0 9.6"/><path class="st0" d="M648 217.4c17.7-33.9 33.4-75.6 40.5-87.9s11.1-52.4 28-56.5c5.9 42.3-15.2 84.5-15.2 84.5L666.4 224s-15.2 1.8-18.4-6.6zM703 178.4c1-.2 63.6-31.7 101.4-45.9-8.1 16-37.2 39.7-73.8 57.9s-44.5 32-44.5 32l-15.1-1.6 32-42.4z"/><path class="st0" d="M664.9 217.4s12.7-40.3 44.4-61.6c31.8-21.3 43.6-59.9 60.9-64.2-1.7 23.3-18 54.5-50.9 81.5s-45.4 49.4-45.4 49.4l-9-5.1z"/><path class="st1" d="M695.6 234.7c3.2-5.8 5.7-10.7 5.7-10.7s-35.2-15.4-72.7-8.6c5.5 3.6 7.2 10.7 10.1 18 19-2.4 42.5-.5 56.9 1.3z"/><path class="st6" d="M638.7 233.3c2.7 6.7 6.5 13.5 15.2 17.9 18.3 9.1 18.3 3 25.1 3.8 4.2.4 11.6-11.2 16.6-20.3-14.4-1.8-37.9-3.7-56.9-1.4z"/><circle class="st3" cx="668.2" cy="261.7" r="19.3"/><path class="st2" d="M131.8 693.6c-6.9-2.8-19.4-9.2-35.6-23.6 1.1 6.3 2.6 12.7 4.9 19 14.9 9.9 32.2 15.9 42.8 19-4.5-4.7-8.5-9.4-12.1-14.4z"/><path class="st2" d="M165.4 724.6c-8-4.8-15.2-10.4-21.5-16.7-10.7-3-28-9-42.8-19 2.7 8 6.5 16 11.4 23.5 22.1 14 44.2 13.3 52.9 12.2z"/><path class="st2" d="M165.4 724.6c-8.8 1-30.8 1.8-53.1-12.2 6.2 9.5 14.2 18.4 24.7 26.1 36.7 5.3 60.5-1 60.5-1s-23.7 6.2-60.5 1c3.8 2.7 7.8 5.4 12.3 7.8 8.1 4.5 16.8 7.9 26.1 10.7 24.4-2.7 37.5-11.6 42.9-16.3-20.2-1.3-38-7.2-52.9-16.1zM121.4 675.3c-3.2-7.2-5.6-14.6-7-22.1l-20-20c-.3 5-.5 10.4-.3 16.1 7.1 9.2 19.9 20.1 27.3 26z"/><path class="st2" d="M236.9 740.6c-6.4.5-12.6.5-18.7.1-5.4 4.8-18.5 13.6-42.9 16.3 13.3 3.9 27.5 6.1 41.8 6.6 11.1-7.1 23.7-19.1 28.7-23.8-2.8.2-5.8.5-8.9.8zM114.4 621.5c-6.7 1.6-13.2 2-18.8.4-.5 3.4-.9 7.3-1.2 11.4l20.1 20c-2.1-10.8-2.2-21.6-.1-31.8zM121.4 675.3c-7.4-6-20.2-16.8-27.3-25.9.2 6.5.8 13.5 2.1 20.5 16.2 14.4 28.7 20.9 35.6 23.6-4.1-5.8-7.6-11.9-10.4-18.2zM376.6 598.1l-25.2-.3c1 4.1 1.8 8.3 2.5 12.8.2 1.5.4 2.9.6 4.5 4.1 6.5 11.5 19.3 16.8 34.9 5.3-28.1 5.3-51.9 5.3-51.9zM324.3 704.3c-4.7 10-15.1 31.9-24.7 45.2 11.4-4.7 21.7-10.4 30.4-17 11.3-21 12.7-45.8 12.8-53.2-4.8 9-11 17.5-18.5 25z"/><path class="st2" d="M354.5 615.2c2.5 22.7-1.5 44.8-11.8 64.1-.2 7.4-1.6 32.1-12.8 53.2 2.1-1.6 4.2-3.3 6.1-5.1 9.1-8.3 16.2-19.5 21.7-31.8 1.4-29.2-4.3-47.1-4.3-47.1s5.7 17.8 4.3 47.1c6.5-14.5 10.8-30.7 13.6-45.6-5.3-15.5-12.7-28.4-16.8-34.8zM293.8 725.9c-6.6 9.9-16.5 24.1-24.8 33.1 10.7-2.3 20.9-5.5 30.4-9.4 9.6-13.4 20.1-35.2 24.7-45.2-8.4 8.3-18.5 15.6-30.3 21.5z"/><path class="st2" d="M264.3 736.4c-5.1 6.3-14.8 18.3-23.2 26.7 9.5-.7 18.9-2.1 28-4.2 8.2-8.9 18.2-23.1 24.8-33.1-9 4.4-18.8 8-29.6 10.6z"/><path class="st2" d="M245.9 739.7c-5 4.9-17.8 16.8-28.7 23.8 7.9.3 15.9.1 23.8-.5 8.4-8.3 18.2-20.3 23.2-26.7-5.8 1.4-11.9 2.6-18.3 3.4zM102.4 564.1c-15.1 0-27.4 14.8-27.4 33.2 0 18.4 12.3 33.2 27.4 33.2s27.4-14.8 27.4-33.2c0-18.4-12.3-33.2-27.4-33.2zm0 52.2c-8.7 0-15.8-8.6-15.8-19.2s7.1-19.2 15.8-19.2 15.8 8.6 15.8 19.2-7.1 19.2-15.8 19.2zM358.6 549.5c-16.5 0-29.8 12.9-29.8 28.9 0 16 13.4 28.9 29.8 28.9s29.8-12.9 29.8-28.9c0-16.1-13.3-28.9-29.8-28.9zm0 44.2c-8.7 0-15.8-6.8-15.8-15.3 0-8.4 7.1-15.3 15.8-15.3 8.7 0 15.8 6.8 15.8 15.3 0 8.4-7.1 15.3-15.8 15.3z"/><path class="st8" d="M321 469.7c2.7-5.5 4.5-9.3 4.2-10.3-1-3.9-208.7 3.3-210.3 8.9-.3 1.2 1.7 4.6 5.3 9.2 44.8 1.4 153.1-4.8 200.8-7.8zM299.3 514.3c1-3.1 2.8-7.4 5.1-12.1-42.9 3.2-120.3 6.5-158.8 5.9 3.4 4.1 6.7 8 9.7 11.8 44.5 3 105.4-1.7 144-5.6z"/><path class="st8" d="M354 610.7c-9.4-63.2-53.8-83.5-55.5-91.3-.2-1 .1-2.7.8-5-38.7 3.9-99.5 8.4-144.1 5.6 7 8.6 12.1 15.6 12.3 18.4.7 8.8-41.6 27.4-53.1 82.2s37.5 126.1 122.4 120c85-6.1 126.6-66.7 117.2-129.9zM199.8 490c.2-2-.9-9-1.8-13.8-4.5.2-8.9.3-13.3.5 1.5 4.8 4.3 12.8 6 14.3 2.3 2.1 8.7 2.1 9.1-1zM292.1 490.6c3-1 4.8-13 8.1-13s3.3 17.3 6.7 19.5h0c4.7-9.4 10.3-19.9 14.1-27.5-9.2.6-20.7 1.3-33.6 2-1.3 4.6-3 10.7-3.8 13.5-1.2 4.9 5.5 6.5 8.5 5.5zM145.3 494.4c-2.5-.8-7.8-1.2-12.6-1.3 4.2 4.9 8.5 10 12.8 15.1 3.4 0 7.2.1 11.2.1-2.2-4-7.5-12.6-11.4-13.9z"/><path class="st8" d="M306.8 497.2h0c-3.3-2.1-3.3-19.5-6.7-19.5s-5.1 12-8.1 13-9.6-.6-8.4-5.4c.7-2.7 2.4-8.9 3.8-13.5-13.6.8-28.7 1.6-44.2 2.4l2.3 7.7s6.1-1.7 10.1 0 2.7 12.5 2.7 12.5 10.4-8.3 15.2-4.8c3.1 2.3 3 9.8 2.5 14.6 10.3-.6 20-1.2 28.3-1.8.9-1.7 1.7-3.5 2.5-5.2z"/><path class="st8" d="M273.4 489.6c-4.8-3.6-15.2 4.8-15.2 4.8s1.3-10.9-2.7-12.5c-4.1-1.7-10.1 0-10.1 0l-2.3-7.7c-10.9.5-21.9 1.1-33 1.5 0 6 .1 13.6.7 15.3 1 2.9 3.8 8.4 7.8 8.4 4.1 0 7.8-4.4 8.1-7.4.3-2.9-5.8-.4-7.1-3.4-1.3-3 5.8-6.8 9.6-6.1 3.9.7 7 4.8 7.6 11.2.4 3.9-2.9 9.1-5.6 12.7 15.4-.6 30.7-1.4 44.6-2.2.7-4.8.8-12.2-2.4-14.6z"/><path class="st8" d="M236.9 493.7c-.7-6.4-3.8-10.4-7.6-11.2-3.9-.7-11 3-9.6 6.1 1.3 3 7.4.4 7.1 3.4-.3 2.9-4.1 7.4-8.1 7.4-4.1 0-6.8-5.4-7.8-8.4-.6-1.7-.7-9.4-.7-15.3-4.1.2-8.2.3-12.3.5.9 4.8 2 11.8 1.8 13.8-.3 3.2-6.8 3.2-9.1 1-1.6-1.5-4.4-9.5-6-14.3-12.5.4-24.4.7-35.1.9 1.8 5.5 5.5 15.1 8.6 16.1 4.4 1.3 9.4-2.7 14.2-2 4.8.7 3 4.5 5.4 6.8s8.4.1 13.5 1c3.3.6 8 5 11 8 9.5-.3 19.3-.6 29.1-1 2.8-3.6 6-8.9 5.6-12.8z"/><path class="st8" d="M191.3 499.4c-5.1-.9-11.2 1.3-13.5-1-2.3-2.3-.7-6.1-5.4-6.8-4.8-.7-9.8 3.3-14.2 2-3.1-.9-6.8-10.7-8.6-16.1-11.4.2-21.4.1-29.4-.1 3.2 4.4 7.7 9.7 12.7 15.6 4.7.1 9.9.4 12.6 1.3 3.9 1.3 9.2 10 11.5 13.9 13 0 28.8-.3 45.4-.8-3-3-7.8-7.4-11.1-8z"/><path class="st5" d="M250.1 495.1c2.3 4.4-2 10.7-2 10.7"/><path class="st2" d="m320.9 636.4-12.6-74.6-125.5 1.8s-3.1 25.4-10.4 73.8c10.2 2.2 31.2 5 73.9 5 42.9.1 64.4-3.4 74.6-6z"/><path class="st2" d="M252.8 661.8c39.5-1.2 60.5-3.8 71.3-6l-3.2-19.4c-10.2 2.6-31.8 6.1-74.7 6.1-42.6 0-63.6-2.7-73.9-5-.9 6.3-1.9 12.9-3 19.9 12.7 2.6 37.6 5.8 83.5 4.4zM166.8 673.9c-1.1 7.3-2.3 15-3.7 23 139 7.8 166.1-11.2 166.1-11.2l-2.5-15.2c-10.4 3.1-32.8 7.1-80.4 8.1-45.4 1-68.1-1.9-79.5-4.7z"/><path class="st2" d="m208.4 661.7 11.3 17.1c5.9.1 12.3.1 19.3 0l-13.2-16.7c-6.4 0-12.1-.2-17.4-.4zM225.7 662.1l13.2 16.7c2.4 0 4.9-.1 7.4-.1 5.1-.1 9.9-.2 14.5-.4L246.2 662c-7.5.1-14.3.2-20.5.1zM169.4 657.4c-.8 5.3-1.6 10.8-2.5 16.5 4.2 1 10 2.1 18 2.9l-8.1-18.2c-2.9-.3-5.3-.8-7.4-1.2z"/><path class="st2" d="m176.7 658.7 8.1 18.2c4.8.5 10.3 1 16.7 1.3l-8.7-17.6c-6.4-.5-11.8-1.2-16.1-1.9zM192.8 660.6l8.7 17.6c5.4.3 11.4.5 18.1.6l-11.3-17.1c-5.7-.4-11-.7-15.5-1.1zM252.8 661.8c-2.2.1-4.5.1-6.7.2l14.5 16.3c7.7-.3 14.6-.7 20.8-1.1l-16.6-15.8c-3.7.1-7.8.3-12 .4zM305.4 658.5c-5.6.6-12.3 1.2-20.1 1.7l17.2 14.9c7.1-.9 12.7-1.8 17.1-2.8l-14.2-13.8zM326.7 670.5l-2.5-14.8c-4.5.9-10.6 1.8-18.8 2.7l14.4 13.8c2.7-.5 5-1.1 6.9-1.7z"/><path class="st2" d="m264.8 661.3 16.6 15.8c8.2-.6 15.2-1.2 21.2-2l-17.2-14.9c-6.2.4-13 .8-20.6 1.1z"/><path class="st5" d="M176.7 684.7v12.9M187.6 685.7V697M223.6 684.7v14.1M237 685.7V697M272.3 684.7V697M285.3 684.1v10.5M309.3 679.3l.7 12M318.8 678.8v10"/><path class="st2" d="M171.7 556.6c-4.1.3-6.4 7.8.3 11.9 6.8 4.1 142.7-.2 145.1-3 2.3-2.8 2.3-11.9-1-11.9-3.4-.1-140.4 2.6-144.4 3z"/><path class="st1" d="M238.3 603.9s-4.1 2.7-9.4-.7c-5.4-3.3-2.5-11.2 0-15.2s14.2-5.1 17.4-1.3c4.6 5.8-1.9 21.3 0 25.1 1.9 3.8 11 4.2 13-1s1-21.7 5.1-24 14.9-4.4 18.2 0c3.1 4.4 2.5 10.4 1 13.9-1.5 3.3-7.2 3.3-7.2 3.3s-.8 13.5-4.5 20c-3.8 6.4-30.8 10.1-33.8 1-3-9.2.2-21.1.2-21.1z"/><path class="st5" d="M275 592.5c-4.3 2-3.2 11.5 1.3 11.5M237 592.5c6.3-.3 5.4 10.4 1.3 11.5"/></svg>