<svg version="1.1" id="Calque_1" xmlns="http://www.w3.org/2000/svg" x="0" y="0" viewBox="0 0 900 900" style="enable-background:new 0 0 900 900" xml:space="preserve"><style>.st0,.st1,.st2,.st3,.st4{fill:#ff7300;stroke:#000;stroke-width:6.0065;stroke-linecap:round;stroke-linejoin:round;stroke-miterlimit:10}.st1,.st2,.st3,.st4{fill:#ffce00}.st2,.st3,.st4{fill:none}.st3,.st4{fill:#fff}.st4{fill:#ba5000}.st5{fill:#878787}.st5,.st6{stroke:#000;stroke-width:6.0065;stroke-linecap:round;stroke-linejoin:round;stroke-miterlimit:10}.st6,.st7{fill:red}.st8{fill:#ffce00}.st9{fill:none;stroke:red;stroke-width:7.5081;stroke-linecap:round;stroke-linejoin:round;stroke-miterlimit:10}</style><path class="st0" d="M698.2 636.4c-1.7-21.7-3.5-39.6-5.3-48.6-6.8-33.8-23.3-41.3-23.3-41.3L644.1 530l-30.8 21.8-5.3 76.6s-.1 4.1-.2 10.9c54.9 6 79.9 1 90.4-2.9z"/><path class="st1" d="M700.3 668.7c-.7-11.3-1.4-22.1-2.2-32.3-10.4 3.9-35.4 8.9-90.3 2.9-.2 8.1-.5 20.2-.8 34.1 16.6 1.1 58.2 3.2 93.3-4.7z"/><path class="st0" d="M702 697.7c-.5-9.7-1.1-19.5-1.7-29.1-35.1 8-76.7 5.9-93.3 4.6-.2 8-.3 16.6-.5 25.5 34.2 6.5 78.2 1.5 95.5-1z"/><path class="st1" d="M606.6 698.7c-.8 43.1-1.3 91.1-.1 96.3 2.3 9.8 28.5 11.3 31.5-3 2.3 13.5 32.3 14.3 35.3.8 3.8 14.3 31.5 10.5 32.3.8.4-5-1.2-49-3.7-95.7-17.2 2.3-61.2 7.3-95.3.8z"/><path class="st2" d="m669.6 730.4 3.8 62.3M636.6 732.6l1.5 59.4"/><path class="st1" d="M181.6 844.5s27 11.3 116.4 1.5c-1.7-20-2.8-40.4-3.5-57.8l-94.9-8.9-18 65.2z"/><path class="st0" d="m275.5 671.1-47.3 4.5-7.2 26.3 65 9.5z"/><path class="st1" d="m293.5 740.2-7.5-28.8-65-9.5-15 54.4 87.9 9.8c-.4-15.7-.4-25.9-.4-25.9z"/><path class="st0" d="m205.9 756.2-6.3 23 94.9 8.9c-.3-8.1-.5-15.6-.7-22.1l-87.9-9.8z"/><path class="st2" d="m207.1 847.5 4.5-45M234.2 847.5l3.7-43.5M267.2 846.8l2.3-41.3"/><path class="st3" d="M713.2 291.9c-11.3-8.3-28.5-12-54.8-18.8s-62.3-7.5-78.1 3.8 8.3 46.6 8.3 46.6 24.8 6 48.8 21c24 15 39.8 26.3 51.8 27 12 .8 24-9 32.3-28.5 8.2-19.5 2.9-42.8-8.3-51.1zm-18 33.1c-.8 6.8-6.8 13.5-16.5 11.3s-39.8-22.5-50.3-30-33.8-9-38.3-9c8.3-4.5 61.6 3 77.3 7.5s28.5 13.4 27.8 20.2z"/><path class="st3" d="M529.2 267.9s44.3-30 62.3 5.3-6 56.3-6 56.3L527 343l-4.5-58.6 6.7-16.5z"/><path class="st2" d="m551.8 267.9 30-3M559.3 282.9l34.5-1.5M566 303.9l30.1 1.5"/><path class="st4" d="M284.5 683.8s11.3 18 24 18.8 21-13.5 21-13.5 24.8 3.8 31.5 8.3 12 29.3 1.5 33.8-33 4.5-44.3 4.5-32.3 9-43.5 8.3c-11.3-.8-9-9.8-9-9.8l-3-51.8 21.8 1.4z"/><path class="st4" d="m268 676.3 6.8 67.6s-3.8 12.8-12.8 12c-9-.8-12-13.5-8.3-18-9.8-9-.8-18.8-.8-18.8s-9-6.8.8-18.8c-5.3-9.8-.8-18-.8-18l15.1-6z"/><path class="st2" d="M253.7 700.4h15M252.9 719.1l18.1-1.5M253.7 737.9l18.8-1.5"/><path class="st4" d="M286 608.8s41.3-24.8 51.8-25.5 23.3 50.3 23.3 50.3l-30 22.5-89.3-8.3 3-17.3 23.3-23.3 17.9 1.6z"/><path class="st4" d="M346 633.5s-111.9 3-117.9 4.5-6 35.3 2.3 40.5c8.3 5.3 139.7 22.5 139.7 22.5L346 633.5z"/><path class="st3" d="M235.7 633.5c-.8 5.3 9 10.5 13.5 4.5 1.5-2 6.2-5.6 11.9-10l-15.7-11.7c-3.8 5.5-9.2 13.9-9.7 17.2z"/><path class="st4" d="M296.5 557c-2.3-6-16.5-14.3-16.5-14.3L240.2 569s-24 30-33.8 43.5c-3.8 5.3-7.2 11.6-10.1 17.8l13.3 7.9c2.6-4.5 5.7-8.9 9.5-12.2 10.5-9 30-15 30-15s-1.7 2.2-3.8 5.3l15.7 11.8c11.4-8.6 27.1-20 31.6-27.6 6.9-11.3 6.1-37.5 3.9-43.5z"/><path class="st3" d="M188.4 652.3c-.8 5.3 10.5 9 12.8 4.5 1.4-2.9 4.1-10.8 8.5-18.6l-13.3-7.9c-4.6 9.7-7.6 18.9-8 22z"/><path class="st2" d="M277 586.2c-.8 9.8-16.5 18.8-27.8 24.8"/><path class="st5" d="M543.5 309.9s40.5 7.5 57.8 32.3 51.8 154.7 51.8 154.7l-41.3 18L533 325l10.5-15.1z"/><path class="st2" d="M551.8 325.7s22.5 12.8 45 72.1 36.8 108.9 36.8 108.9"/><path class="st2" d="M554.8 312.9s31.5 20.3 52.6 78.1c21 57.8 36 111.9 36 111.9"/><path class="st3" d="M548.8 193.6c-7.5 4.5-5.3 25.5-.8 30.8 4.5 5.3 36.8 12 43.5 6.8 6.8-5.3 9.8-27 .8-36s-36-6.1-43.5-1.6zM340.8 106.5s-14.3-24.8-6.8-36c7.5-11.3 54.1-4.5 58.6 12.8s-9.8 30.8-9.8 30.8l-42-7.6zM442.9 126s-7.5-27.8-1.5-37.5 45-11.3 51.8 4.5-15.8 39-15.8 39l-34.5-6z"/><path class="st2" d="m455.7 109.5.7-24.8M466.2 108.7l5.2-26.3M478.9 111.7l8.3-24M346.8 90.7l-3.8-24M361.1 88.4l.7-22.5M377.6 93l3.7-20.3"/><path class="st5" d="M207.1 397s-6 15.8-7.5 24.8-2.3 126.9 0 132.1c2.3 5.3 22.5-3 22.5-3s66.8-61.6 67.6-81.1c.8-19.5 6-162.2 9-168.9 3-6.8 37.5-34.5 37.5-34.5l32.3-75.8-24.8-24.8-51.1 26.3-65.3 111.1-20.2 93.8z"/><path class="st2" d="M278.5 482.6c.8-2.3 4.5-195.2 4.5-195.2M268 490.9s5.3-152.4-.8-174.9M252.9 369.3s-1.5 100.6 9.8 126.1M207.1 410.5c6 72.1 0 143.4 0 143.4M214.6 397c6 50.3 9 139.7 9 139.7M231.9 374.5s9.8 104.4 22.5 131.4M222.9 383.5c6.8 24.8 15 136.6 15 136.6"/><path class="st5" d="M332.5 102.7s-34.5-1.5-51.8 10.5c-17.3 12-19.5 41.3-31.5 54.8s-46.6 30-44.3 33.8c8.3 9.8 34.5 3 47.3-6.8-11.3 21-17.3 52.6-32.3 82.6-15 30-63.1 72.1-63.1 77.3s9.8 7.5 22.5 0c12.8-7.5 36-39 36-39s-15 47.3-29.3 66.1c-14.3 18.8-53.3 72.8-54.1 78.1-.8 5.3 6.8 6.8 17.3 1.5s46.6-40.5 49.6-61.6c.8 8.3-3 21 .8 21.8 3.8.8 74.9-115.5 92.4-153.2 9.2-20 22.3-61 34.5-78.1 7.4-10.4 21.8-60.1 21.8-60.1l-15.8-27.7z"/><path class="st2" d="M330.3 135.7c-45 6-54.8 38.3-78.1 59.3"/><path class="st2" d="M228.2 195.1c8.3-1.5 18.8-6 43.5-44.3 24.8-38.3 59.3-36 59.3-36M171.9 348.2c28.5-24 60.8-67.6 89.3-128.4s64.6-66.8 64.6-66.8M207.9 393.3s36.8-48.8 60.1-101.4c28.5-69.8 58.6-101.4 58.6-101.4s-21.8 2.3-67.6 89.3-82.6 141.9-111.9 169.7"/><path class="st5" d="M531.5 141c-9-5.3-196-39-199-38.3-1.4.4-3.5 18.3-5 38.2 29.2 4.4 184 27.6 186.7 32.4 3 5.3 1.5 17.3-3.8 19.5-4.7 2-155.6-21.7-184.5-26.3-.5 12.8-.5 23.4.5 27 3 11.3 13.5 12 13.5 12l126.9 45.8 47.3 57.1s22.5 0 21-21.8 8.3-99.1 9-114.1c.9-15-3.6-26.2-12.6-31.5z"/><path class="st2" d="M325.8 165c-25.5-.8-75.8 109.6-110.4 150.9"/><path class="st3" d="M585.5 161.3c7.5 10.5 73.6 22.5 79.6 19.5s7.5-18.8 29.3-20.3 63.1 30 69.1 30.8c5.9.8 5.3-.8 2.3-12-3-11.3-21-37.5-65.3-43.5s-48.8-6-48.8-6l-60.8 6.8c-.1-.1-12.9 14.2-5.4 24.7z"/><path class="st2" d="M309.2 266.4c3.8-36.8 15.8-74.3 15.8-74.3M336.3 195.8c-3-10.5-3.8-30-3.8-30M342.3 187.6l1.5-21.8M360.3 187.6l-1.5-21.1M373.8 190.6v-21.1M388.8 192.1l-.7-21.1M403.9 195.1l-.8-20.3M419.6 197.3l1.5-18.8M434.6 199.6v-21.1M446.6 201.8l-.7-17.2M460.9 203.3v-20.2M473.7 206.3l.7-19.5M487.9 210.8l1.5-21.7M345.3 148.5l2.2-42M370.1 152.3l1.5-42.1M391.8 153.8l.8-39.8M420.4 159.8l.7-39.8M442.9 162l1.5-39M469.9 166.5l2.3-37.5M496.2 172.5l.8-39M506 252.1l10.5-115.6M521 261.1 533 144M561.5 219.8l27.1 3M562.3 210.8l26.3 2.3M563 201.1l24.1.7"/><path class="st3" d="M576.5 126s49.6-44.3 67.6-44.3 22.5 20.3 22.5 20.3 26.3-6.8 39-21.8 8.3-21.8 12-27c3.8-5.3 10.5-3.8 10.5 3s-.8 24.8-21 48.1S596.8 147 596.8 147l-20.3-21z"/><path class="st3" d="M545.8 135.7c-6 9.8.8 23.3 7.5 26.3s33 4.5 40.5-3.8 3.8-31.5-6.8-36.8c-10.5-5.2-35.2 4.6-41.2 14.3z"/><path class="st2" d="m565.3 134.2 27-6M566.8 150l30-6.7"/><path class="st6" d="M510.5 192.8c5.3-2.3 6.8-14.3 3.8-19.5-2.7-4.7-157.4-28-186.7-32.4-.7 8.6-1.2 17.5-1.5 25.6 28.8 4.6 179.6 28.4 184.4 26.3z"/><circle class="st3" cx="277" cy="239.4" r="18.8"/><path class="st2" d="m286 243.1 7.5-9M280.7 236.4l4.5-12.8M272.5 234.9l-1.5-12.1M265 239.4l-5.3-8.3"/><circle class="st3" cx="250.7" cy="359.5" r="19.5"/><path class="st2" d="m240.2 358.7-4.5-8.2M247.7 356.5l-.8-14.3M255.9 358.7l3.8-14.2M260.4 364l7.6-6.8"/><path class="st4" d="M366.3 401.5S220.6 522.4 213.1 546.4c-4.5 18 3 34.5 20.3 27s199.7-129.1 265-153.2c12 25.5 39 120.1 39 120.1l85.6-33.8s-49.6-162.2-78.1-178.7-60.1 2.3-60.1 2.3l-84.8 39-33.7 32.4z"/><path class="st7" d="M342.3 337s-17.3 14.3-24 31.5-11.3 42.8-12 53.3c-.8 10.5 15.8 12 21-.8 5.3-12.8 12-33.8 15.8-34.5 3.8-.8 36-9 36-9l36.8-29.3-12.8-22.5-60.8 11.3z"/><path class="st3" d="M324.3 334s-2.3 6.8 0 9 39.8-2.3 70.6 3-2.3-20.3-2.3-20.3L352 315.2 324.3 334z"/><path class="st8" d="M376.8 414.3c18.8 0 77.3-51.1 99.9-60.8 22.5-9.8 36-26.3 36-26.3l-.6-1.7L363 398c.7 7.7 3.1 16.3 13.8 16.3z"/><path class="st2" d="m337 341.5.8-13.5M352 340l.8-12M370.1 342.2v-12"/><path class="st8" d="M487.9 210.8c-2.3-3-141.2-23.3-145.7-23.3-1.3 0-3.6 4.4-6.3 10.7 25.8 3.1 108.3 13 152.6 21 .3-4.2.1-7.5-.6-8.4z"/><path class="st7" d="M336 198.3c-1.8 4.2-3.7 9.2-5.6 14.4 89.6 5 141.4 15.7 157.4 19.4.4-4.3.7-8.9.8-12.8-44.3-8-126.8-18-152.6-21zM319.8 245.1c0 .2-.1.2-.1.3-.8 4.5.8 10.5.8 10.5 108.6 5.7 155.9 13.1 174.9 17.3l-3.7-11.6c-34.5-5-92.4-12-171.9-16.5z"/><path class="st8" d="M487.4 248.4c-19.9-3.6-76-12.8-163.2-17.6-2.3 7-4 12.6-4.4 14.3 79.4 4.4 137.3 11.5 171.9 16.5l-4.3-13.2zM501.8 293.2c-20.4-3.8-78.8-13.1-196.6-21.2-4.1 7.4-10.4 27-5.7 29.7 5.3 3 24-3 31.5.8-2.2 1.8-5.3 8-7.2 14.5l187.4 5.6-9.4-29.4z"/><path class="st9" d="M314.5 285.2c33.8 1.5 133.6 6.8 159.9 15M343 306.9c62.3 1.5 126.9 3 126.9 3"/><path class="st2" d="M342.3 187.6c-4.5 0-21.8 53.3-22.5 57.8s.8 10.5.8 10.5-10.5 9-14.3 14.3c-3.8 5.3-12 28.5-6.8 31.5 5.3 3 24-3 31.5.8-4.5 3.8-13.1 26.4-6.8 31.5 3.8 3 32.3-8.3 54.1-1.5 17.3 6.8 17.3 22.5 9.8 28.5s-39.8 12.8-42 15.8c-2.3 3-2.3 8.3.8 9 3 .8 12-.8 15 .8 3 1.5-3.8 27.8 15 27.8s79.6-45 100.6-59.3c20.3-13.8 35.3-27.8 35.3-27.8l-26.3-81.8s3.8-31.5 1.5-34.5c-2.3-3.2-141.2-23.4-145.7-23.4z"/><path class="st3" d="M486.4 245.4s.8-6.2 1.4-13.4c-16-3.8-67.8-14.3-157.4-19.4-2.3 6.2-4.4 12.5-6.2 18.1 87.2 4.9 143.3 14 163.2 17.6l-1-2.9zM495.4 273.1c-19-4.1-66.3-11.6-174.9-17.3 0 0-10.5 9-14.3 14.3-.3.5-.7 1.1-1.1 1.8 117.8 8.1 176.2 17.4 196.6 21.2l-6.3-20zM323.8 316.9c-2.1 7.1-2.9 14.4.5 17 3.8 3 32.3-8.3 54.1-1.5 17.3 6.8 17.3 22.5 9.8 28.5s-39.8 12.8-42 15.8c-2.3 3-2.3 8.3.8 9 3 .8 12-.8 15 .8 1.3.7.8 5.8 1.3 11.5l149.1-72.5-1-3-187.6-5.6z"/><path class="st2" d="M331 302.4c6.8 2.3 12-5.3 9.8-13.5"/><path class="st3" d="M384.3 538.9s-.8.3-2.1.9L426.1 705c8.3-2 17.2-4.3 26.4-6.6l-49.7-163.2-18.5 3.7z"/><path class="st6" d="M327.3 566.7c-3 6 36 142.7 46.6 153.2 5.9-3.4 26.1-8.4 52.3-14.9l-43.8-165.2c-10.2 4.2-52.4 21.7-55.1 26.9zM400.5 535.2l52 163.2c14.8-3.8 30.4-7.9 45.8-12.3l-46.5-161-51.3 10.1z"/><path class="st3" d="M625.3 566c-5.3-41.3-102.9-55.6-102.9-55.6L451.8 525l46.5 161c18.3-5.3 36.3-11 52-17.2 63-24.7 80.3-61.5 75-102.8zM539.7 283.7c-5.6 6.2-19.9 14.3-34.8 21.8 7.1 10.5 11.3 25.8 13.5 35.6 20.8-11 36.3-16.1 36.3-16.1l-15-41.3z"/><path d="M490.9 310.7s13.5 27 21 31.5 17.3 0 20.3-8.3-8.3-27-9.8-37.5.8-33-3-42.8c-3.8-9.8-28.5-10.5-39.8-6s-14.3 29.3 0 34.5c2.5.9 4.7 1.1 6.5.8-1.2 3.8 4.8 27.8 4.8 27.8" style="fill:#ba5000"/><path class="st2" d="M497.7 269.4s-3.8 18-18 12.8c-14.3-5.3-11.3-30 0-34.5s36-3.8 39.8 6c3.8 9.8 1.5 32.3 3 42.8s12.8 29.3 9.8 37.5c-3 8.3-12.4 12.1-20.3 8.3-20.3-9.8-21.8-36-21.8-36"/><path d="M461.7 325s10.5 30 20.3 39c4.8-3.6 9.5-6.9 14.3-9.9l-17.1-36.6c-10.3 4.5-17.5 7.5-17.5 7.5z" style="fill:#fff"/><path d="M505 305.4c-9 4.5-18.2 8.7-25.8 12.1l17.1 36.6c7.7-5 15.3-9.4 22.2-13.1-2.2-9.7-6.5-25.1-13.5-35.6z" style="fill:#004fa5"/><path class="st2" d="M461.7 325s10.5 30 20.3 39c12.6-9.5 25.3-17 36.5-23-2.2-9.8-6.4-25.1-13.5-35.6-21.1 10.5-43.3 19.6-43.3 19.6z"/><path class="st3" d="m607.3 531.4 15-24s27-6.8 37.5-18c21 19.5 21.8 39.8 14.3 55.6s-43.5 12.8-43.5 12.8l-23.3-26.4z"/><path class="st3" d="M542.8 526.2s72.1-21 79.6-18.8c14.3 6.8 4.5 28.5 4.5 28.5s9 17.3 3.8 27c-5.3 9.8-83.3 16.5-83.3 16.5l-20.3-30 15.7-23.2z"/><path class="st2" d="M560 551.7s67.6-8.3 96.1-31.5"/><path class="st3" d="M487.2 425c-13.8 6.1-30.9 14.9-49.6 25.3 31.4 31.8 42.5 65.8 50.5 98.5-7.7-33.1-14.9-75-.9-123.8z"/><path class="st2" d="M488.1 548.8c1.1 4.7 2.2 9.2 3.2 13.5-1-4.5-2.1-9-3.2-13.5z"/><path class="st1" d="M498.5 516.4c9.3 68.5 41 80 62.2 77.8-13.6-30-17.1-46.3-17.1-46.3s15 14.3 19.5 15.8 10.5-1.5 10.5-1.5-22.5-24-27.8-39.8c-1.5-15.8-12-42-12-42l-16.5-36 21.8 18-14.3-51.8s-9.8 3.4-19.4 7.1c-5.8 16.7-13.5 50.3-6.9 98.7zM464.7 529.2c-10.1-38-29.7-59.6-42.6-70.3-6.2 3.5-12.5 7.2-18.9 11 1.7 7.4 5 23.6 4.4 27-.8 4.5 5.3 6.8 9.8 3.8s6.8-16.5 9.8-18c2.3 9-10.5 28.5-11.3 36.8-.8 8.3-1.5 25.5 4.5 48.8 6 23.3-7.5 41.3-9.8 44.3s0 7.5 4.5 5.3 17.3-14.3 20.3-26.3c-.9 26.7-4.7 38.4-8.1 44.7 40.3-17 52.3-50.9 37.4-107.1z"/><path class="st0" d="M488.1 548.8c-8-32.7-19.1-66.7-50.5-98.5-5 2.8-10.1 5.7-15.4 8.6 12.8 10.7 32.4 32.4 42.6 70.3 14.9 56.2 2.9 90.2-37.4 107-2.3 4.4-4.5 6.2-5.4 8.6-2.3 6 3 8.3 19.5 3 48.1-20.3 52.6-74.3 52.6-74.3-.9-3.8-1.8-7.5-2.6-11.3-1.2-4.3-2.4-8.8-3.4-13.4z"/><path class="st0" d="M498.5 516.4c-6.5-48.5 1.1-82 6.9-98.8-2.3.9-4.7 1.8-6.9 2.7-3.5 1.3-7.2 2.9-11.3 4.6-14 48.9-6.8 90.8.9 123.8 1.1 4.5 2.2 9 3.2 13.5 1 3.9 1.9 7.7 2.6 11.3 0 0 21 48.8 72.8 33.8-2.3-4.6-4.3-8.9-6.2-13.1-21.1 2.3-52.7-9.2-62-77.8z"/><path class="st2" d="M493.9 573.5c-.8-3.6-1.7-7.4-2.6-11.3.9 3.8 1.7 7.6 2.6 11.3z"/><path class="st3" d="M542.8 477.4c-87.1 37.5-171.9 51.1-172.7 48.8 6.2 7.7 12 21.8 16.4 34.4 112.3-48.4 151.4-57.2 164.7-58.2-2.7-6.8-5.4-14.4-8.4-25z"/><path class="st3" d="M560 522.4c-3.4-7.4-6.2-13.4-8.9-20-13.3 1-52.4 9.7-164.7 58.2 4.7 13.4 7.7 24.9 7.7 24.9s73.6-53.3 165.9-63.1z"/><circle class="st3" cx="469.9" cy="512.7" r="12"/><circle class="st3" cx="479.7" cy="534.4" r="12"/><circle class="st7" cx="545" cy="602" r="4"/><circle class="st7" cx="522.5" cy="593" r="4"/><circle class="st7" cx="508.2" cy="579.5" r="4"/><circle class="st7" cx="500" cy="559.2" r="4"/><circle class="st7" cx="486.4" cy="484.9" r="4"/><circle class="st7" cx="487.2" cy="465.4" r="4"/><circle class="st7" cx="491.7" cy="442.8" r="4"/><circle class="st7" cx="441.4" cy="466.9" r="4"/><circle class="st7" cx="456.9" cy="487.9" r="4"/><circle class="st7" cx="481.9" cy="560.7" r="4"/><circle class="st7" cx="481.9" cy="578.7" r="4"/><circle class="st7" cx="476.7" cy="599" r="4"/><circle class="st7" cx="464.7" cy="619.3" r="4"/><circle class="st7" cx="445.1" cy="635.8" r="4"/></svg>