<svg version="1.1" id="Calque_1" xmlns="http://www.w3.org/2000/svg" x="0" y="0" viewBox="0 0 900 900" style="enable-background:new 0 0 900 900" xml:space="preserve"><style>.st0,.st1,.st2,.st3,.st4{fill:red;stroke:#000;stroke-width:3.7178;stroke-linecap:round;stroke-linejoin:round;stroke-miterlimit:10}.st1,.st2,.st3,.st4{fill:#0068ff}.st2,.st3,.st4{fill:none}.st3,.st4{fill:#ffce00}.st4{fill:#ff7300}.st5{fill:#4c4c4c}.st5,.st6,.st8{stroke:#000;stroke-width:3.7178;stroke-linecap:round;stroke-linejoin:round;stroke-miterlimit:10}.st8{fill:#fff}.st9{fill:red}.st10{fill:#fff}.st11,.st12,.st13{fill:none;stroke:red;stroke-width:5.5767;stroke-linecap:round;stroke-linejoin:round;stroke-miterlimit:10}.st12,.st13{stroke-width:4.6472}.st13{stroke:#000}</style><g id="XMLID_621_"><g id="XMLID_209_"><g id="XMLID_72_"><g id="XMLID_59_"><path id="XMLID_30_" class="st0" d="M211.9 179c-4 5.2 0 14.6 4.9 14.6s16.6-6.3 30-8.5c13.4-2.1 30.3-.4 33.5-2.4 3.2-2 3.8-12.1-1.8-13.9s-18.8-2.1-32 .3c-13.1 2.4-30.5 4.7-34.6 9.9z"/><path id="XMLID_36_" class="st1" d="M243.2 111.7s2.5-24.4-.9-34.4-7.7-18.6-21.7-21.1-24.3 5-27.3 11.5c-5.1 11.2-2.1 22 0 27 2.1 4.9 13 4.6 14.2-.2 1.2-4.7-3.4-8.2-3.1-12.5.3-4.4 1.9-8.4 10.2-6.2 8.4 2.1 12.5 22.4 10.2 29.3-2.4 7.2-6.5 10-8.6 18.4-2.1 8.4 1.6 25.1 1.6 25.1h20.4l5-36.9z"/><path id="XMLID_40_" class="st2" d="M225.3 143.1s-2.8-6.8 0-17 10.1-19.2 9.3-36c-.9-16.7-8.1-24.4-15.7-26.3-7.6-1.9-15.9 1.5-19.1 5.9-3.1 4.4-2.5 19.4 0 22.6"/><path id="XMLID_189_" class="st3" d="m258.3 194.5-20.3 2.8 28.1 140.6 10.9-3.3z"/><g id="XMLID_187_"><path id="XMLID_193_" class="st3" d="m272.5 300.2 15.5-16.9-.5-5.3-1.3-8.9-15.9 15.1z"/><path id="XMLID_194_" class="st3" d="m277 334.6 15.2-4.4-4.2-46.9-15.5 16.9z"/><path id="XMLID_195_" class="st3" d="m274.8 192.3-16.5 2.2 3.8 28.7 15-15.3z"/><path id="XMLID_196_" class="st3" d="m267.9 266.9 2.4 17.3 15.9-15.1-2.9-19.5z"/><path id="XMLID_203_" class="st3" d="m281 234.4-15 17.7 1.9 14.8 15.4-17.3z"/><path id="XMLID_204_" class="st3" d="m277.1 207.9-15 15.3 1.9 14.2 14.8-18z"/><path id="XMLID_205_" class="st3" d="m278.8 219.4-14.8 18 2 14.7 15-17.7z"/></g><g id="XMLID_197_"><path id="XMLID_198_" class="st3" d="m238 197.3-17.4 2.4 14.8 64.1 16.9 5z"/><path id="XMLID_199_" class="st3" d="m252.3 268.8-16.9-5 2.8 12.2 16.8 6.7z"/><path id="XMLID_200_" class="st3" d="m257.3 294.3-16.1-5.4 3 13 16 6.8z"/><path id="XMLID_201_" class="st3" d="m260.2 308.7-16-6.8.9 3.8 4 37.2 17-5z"/><path id="XMLID_202_" class="st3" d="m255 282.7-16.8-6.7 3 12.9 16.1 5.4z"/></g><g id="XMLID_33_"><path id="XMLID_32_" class="st3" d="M232.6 145.6s.2-33.2 13.9-46.5c13.8-13.3 50.3-19.5 81.3-24.8 31-5.3 57.3-23 62.1-24.2 4.8-1.2 7.8 7.7 3 13s-59.2 22.3-59.2 22.3L256.4 118l-6.1 27.6h-15.7"/><path id="XMLID_35_" class="st3" d="M245.1 140.3s-4.4-24.4 23.2-36.5 127.1-32.3 132-31.9c4.9.3 6.4 12 3.7 12.7-2.7.7-65.6 11.6-87.6 21.6s-47.1 21.7-47.1 21.7l-6.2 12.5-18-.1h0z"/><path id="XMLID_34_" class="st3" d="M256.4 146.8s-1.4-23.5 26.3-34.7 114.8-19.8 117.6-17c2.8 2.7.5 13.5-4 14.2-4.5.8-98.5 11.3-115.9 19.2-5.3 3.1-6.5 14.2-6.5 14.2l-17.5 4.1z"/><g id="XMLID_246_"><path id="XMLID_248_" class="st4" d="M242.9 137.5c-29.5 2.1-41.2 7.4-42.1 7.7-.7.3 12.1 21.2 17.5 29.9 7.3-2.7 19-4.4 28.3-6.1 11.3-2.1 22.7-2.2 29.2-1 3.3-15.9 9.9-30.6 9.9-30.6s-13.4-2.1-42.8.1z"/></g></g><g id="XMLID_31_"><path id="XMLID_38_" class="st1" d="m225.3 191.4 2.8 15.2c2.2-.2 4.6-.5 7.3-.8l-2.9-16.9c-2.6.8-5 1.7-7.2 2.5z"/><path id="XMLID_41_" class="st1" d="M246.9 185.2c-5.1.8-10 2.2-14.3 3.7l2.9 16.9c6.9-.8 15-2.1 22.4-3.4l-3.7-17.8c-2.5-.1-5 .2-7.3.6z"/><path id="XMLID_42_" class="st1" d="M216.9 193.5c-.7 0-1.5-.2-2.1-.6-1.2 3.6 1.2 12.5 4.6 13.8.8.4 4.1.2 8.8-.3l-2.8-15.2c-3.7 1.4-6.6 2.3-8.5 2.3z"/><path id="XMLID_43_" class="st1" d="M278.8 183.3c-3 .7-9 .6-15.7.7l3.4 16.5c6.9-1.5 12.1-3.1 13.3-4.5 3.1-3.3.6-9.5-1-12.7z"/><path id="XMLID_44_" class="st1" d="m254.1 184.3 3.7 17.8c3.1-.6 5.9-1.1 8.6-1.8l-3.4-16.5c-2.9.2-5.9.3-8.9.5z"/></g><circle id="XMLID_37_" class="st2" cx="245.8" cy="195.2" r="4.5"/><g id="XMLID_244_"><circle id="XMLID_13_" class="st4" cx="234.6" cy="232.5" r="24.8"/><circle id="XMLID_23_" class="st0" cx="234.6" cy="232.5" r="10.5"/></g><g id="XMLID_62_"><path id="XMLID_255_" class="st5" d="m260.8 277.7-9 2.1c3.5 18.5 8.4 42.1 9.3 50.7l8.7 2.6-9-55.4z"/><path id="XMLID_256_" class="st6" d="M260.9 330.5c.2 2 .2 3.3-.1 3.3-1.7.8-11.1-30.9-18.4-52.9l-10.1 3 20 58 18-4.8-.7-4-8.7-2.6z"/></g><g id="XMLID_58_"><g id="XMLID_49_"><path id="XMLID_50_" class="st4" d="M317.2 249.9c-1.3-4.4-14.6-3.1-14.6 0 0 1-.2 9.2-.4 20l15.3-.7c.1-10.1.1-17.9-.3-19.3z"/><g id="XMLID_22_"><path id="XMLID_48_" class="st4" d="M266.7 253c-1.2-2.1-17-.3-18.8 2.5-.7 1 1.2 11.3 3.7 24.3l19.5-4.6c-2.1-11.9-3.9-21.4-4.4-22.2z"/><path id="XMLID_52_" class="st4" d="M233.9 260.2c-4-1.2-14.7 1.6-14.7 6.2 0 1.5 2.7 9.5 6.3 19.5l16.9-4.8c-3.8-11.5-7.1-20.5-8.5-20.9z"/><path id="XMLID_53_" class="st4" d="M205.1 269.5c-3.7 0-14.2 4.9-14.6 9-.1 1.5 4.7 10.2 11.1 20.7l17-8c-6.5-12.1-12.1-21.7-13.5-21.7z"/><path id="XMLID_54_" class="st4" d="M292.7 252.1c-2.1-2.1-16.1-1.2-16.7.9-.2.7.3 9.5.9 20.7l18.7-3.1c-1-10.2-1.9-17.7-2.9-18.5z"/></g></g><g id="XMLID_56_"><path id="XMLID_57_" class="st5" d="M201.6 299.2c11 18.6 26.4 42.8 26.4 42.8l5.6 5 5-1.4-29-50.3-8 3.9z"/><path id="XMLID_60_" class="st6" d="m317.6 269.3-9.7.4-.3 57.3 8.6-2.3c.1 0 1.2-33.2 1.4-55.4z"/></g><g id="XMLID_249_"><path id="XMLID_250_" d="m301.3 318-1.1-.2c.3 3.2.7 6.2.9 9 0 0 .1-3.4.2-8.8z" style="fill:none"/><path id="XMLID_251_" class="st5" d="m308 269.7-5.8.3c-.3 15.6-.7 36.4-.9 48.1l6.4 1.2.3-49.6z"/><path id="XMLID_252_" class="st6" d="M301.3 318c-.1 5.4-.2 8.8-.2 8.8-.3-2.8-.7-5.9-.9-9h0c-1.6-15.2-3.1-33.6-4.5-47.1l-10.7 1.8 5 59.4 17.7-4.7v-7.9l-6.4-1.3z"/></g><g id="XMLID_247_"><path id="XMLID_253_" class="st5" d="m285 272.4-8 1.3c1.1 18 2.9 42.5 3.4 50.9h8.9l-4.3-52.2z"/><path id="XMLID_254_" class="st6" d="M280.5 324.7c.1 2 .2 3 .2 3s-5.3-30.5-9.4-52.5l-10.5 2.4 9.6 59.4 19.6-5.3-.6-7.1-8.9.1h0z"/></g><g id="XMLID_61_"><path id="XMLID_257_" class="st5" d="m232.3 284-6.7 2c6.3 17.7 15.4 41.9 17.5 49.1l8.6 4.9-19.4-56z"/><path id="XMLID_258_" class="st6" d="M243 335c.4 1.3.5 2 .4 2-.8.4-14-25.9-24.8-45.8l-8.9 4.2 29 50.3 13.7-3.7-.7-2-8.7-5z"/></g></g></g><path id="XMLID_462_" class="st8" d="M316.3 311.9s-68.6 17.8-90.4 27.4c-3.9 1.7-6.2 3.2-6.5 4.2-1.9 6.8 29.1 72.8 29.1 72.8l8.5-3.2 73.3-27.2-14-74z"/><g id="XMLID_207_"><path id="XMLID_208_" class="st2" d="m225.6 364.4 11.4 1.3"/><path id="XMLID_192_" class="st2" d="m234.2 359.2-11.1-1.3"/><path id="XMLID_206_" class="st2" d="m221 351.6 10.6 1.2"/><path id="XMLID_191_" class="st2" d="m228.8 346.2-9.5-1.1"/><path id="XMLID_190_" class="st2" d="m253 403.7-10.9-1.2"/><path id="XMLID_186_" class="st2" d="m239.7 372.1-11.5-1.3"/><path id="XMLID_188_" class="st2" d="m239.2 396.1 11.2 1.3"/><path id="XMLID_24_" class="st2" d="m247.7 391-11.3-1.3"/><path id="XMLID_181_" class="st2" d="m233.6 383.4 11.4 1.3"/><path id="XMLID_12_" class="st2" d="m242.3 378.2-11.5-1.3"/></g></g><g id="XMLID_69_"><path id="XMLID_149_" class="st4" d="M351.6 404.2c14.6 11.2 66.4 17.4 66.4 17.4s12.4 2.3 14.9-4c2.5-6.4-4.9-8-2.5-12.2 2.4-4.2 6.2-1.7 9.9-3.7s1.9-7.4-.3-8.8c-2.1-1.4-31.3 0-27.9-9.6 3.4-9.6 28.7-12.4 31.9-14 3.2-1.8-5.3-11.6-5.6-16.1-.3-4.5 8.7-17.8 8.7-17.8l-15.5-12.1-5.6-11.2-15.5-26-86.4 14.9 15.2 79.5c-.1-.2-2.3 12.6 12.3 23.7z"/><path id="XMLID_155_" class="st0" d="M440 392.8c-2.1-1.4-31.3 0-27.9-9.6 3.4-9.6 28.7-12.4 31.9-14 0 0 2.5 4.9 2.5 12.7 0 7.8-6.5 10.9-6.5 10.9z"/><g id="XMLID_433_"><path id="XMLID_456_" class="st9" d="m433.5 351-1.6-3.5s-31.3 6.7-43.4-1.9c3.1 8.2 9 8.2 9 8.2s-11.1 2.1-9.2 10c7-8.4 45.2-12.8 45.2-12.8z"/><path id="XMLID_458_" class="st10" d="M388.5 345.7c12.1 8.6 43.4 1.9 43.4 1.9l1.6 3.5s-38.1 4.4-45.2 12.8c23.4-4.2 49.5-10.4 49.5-10.4l-6.2-9s-22.7 1.2-43.1 1.2z"/><path id="XMLID_459_" class="st9" d="M473.4 340.1s11.8-3 10.5-10c-3.5 5.8-24.3 11.6-34.4 14.2v4.5c9.6-2.4 31.4-7 40-1.8-.9-8.4-16.1-6.9-16.1-6.9z"/><path id="XMLID_460_" class="st10" d="M449.5 348.7v3.1s13-1.9 40-4.8c-8.5-5.2-30.4-.6-40 1.7z"/><path id="XMLID_461_" class="st10" d="M483.9 330.2c-11.2 3.5-32.8 10.3-34.4 10v4.2c10.2-2.6 31-8.5 34.4-14.2z"/></g><path id="XMLID_153_" class="st2" d="M431.6 344.5s-22.6 1.2-43 1.2c3.1 8.2 9 8.2 9 8.2s-11.1 2.1-9.2 10c23.4-4.2 49.5-10.4 49.5-10.4l-6.3-9z"/><path id="XMLID_154_" class="st2" d="M449.5 340.1c1.6.3 23.2-6.5 34.4-10 1.2 7-10.5 10-10.5 10s15.1-1.5 16.1 6.9c-27 3-40 4.8-40 4.8v-11.7z"/><path id="XMLID_138_" class="st4" d="m367.1 290.2 45.6-6.3s15.5 19.3 17.9 23.6c2.5 4.4 2.5 7.4 3.7 10.5 1.2 3.1 19.1 14.6 21.2 20.4 2 5.9.1 13.9-5.3 15.2-5.4 1.4-16.8 2.2-19.3.9-2.5-1.3-4.6-7.8-3.7-11.2.9-3.4 4-4.6 4-4.6"/><g id="XMLID_451_"><path id="XMLID_445_" class="st9" d="M385.3 309.1c-1.3 0-2.4-.9-2.7-2.2-.3-1.5.7-3 2.1-3.3l10.9-2.3c1.5-.3 3 .7 3.3 2.1.3 1.5-.7 3-2.1 3.3l-10.9 2.3c-.2.1-.4.1-.6.1z"/><path id="XMLID_447_" class="st9" d="M389 339.9c-1.4 0-2.6-1-2.8-2.4-.2-1.5.9-2.9 2.4-3.1l11.2-1.3c1.5-.2 2.9.9 3.1 2.4.2 1.5-.9 2.9-2.4 3.1l-11.2 1.3h-.3z"/><path id="XMLID_449_" class="st9" d="M402.1 374.1h-12.7c-1.6 0-2.8-1.2-2.8-2.8s1.2-2.8 2.8-2.8h12.7c1.6 0 2.8 1.2 2.8 2.8s-1.2 2.8-2.8 2.8z"/><path id="XMLID_450_" class="st9" d="M402.1 383.7H390c-1.6 0-2.8-1.2-2.8-2.8 0-1.6 1.2-2.8 2.8-2.8h12.2c1.6 0 2.8 1.2 2.8 2.8-.1 1.6-1.3 2.8-2.9 2.8z"/><path id="XMLID_452_" class="st9" d="m399.8 394.4-10.8-.5c-1.6-.1-2.7-1.4-2.7-2.9.1-1.6 1.4-2.7 2.9-2.7l10.7.5c1.6.1 2.7 1.4 2.7 2.9-.1 1.5-1.3 2.7-2.8 2.7z"/><path id="XMLID_453_" class="st9" d="M398.8 404.2h-.4l-10.8-1.2c-1.5-.2-2.6-1.6-2.4-3.1.2-1.5 1.6-2.6 3.1-2.4l10.9 1.1c1.5.2 2.6 1.6 2.4 3.1-.2 1.5-1.4 2.5-2.8 2.5z"/></g><g id="XMLID_454_"><path id="XMLID_457_" class="st9" d="m378.7 296-5.5 1.1c8.7 42.8 6.2 94.2 5 111.6 1.8.4 3.6.7 5.5 1.2 1.2-16.8 3.9-69.7-5-113.9z"/></g><path id="XMLID_150_" class="st0" d="M373 314.8c-2.1 1.1-3.1 7.8 0 9.9 3.1 2 10.9 3.5 23.5 2.3 15.2-1.5 20.2-6.9 21.4-9.6s-1.6-7.7-4.4-7.7c-2.8 0-11.4 5.5-18.1 6.8-6.6 1.3-20.2-2.9-22.4-1.7z"/></g><path id="XMLID_151_" class="st0" d="m335.9 333.6 20.3-1.8-6.2-32.2-21.4 3.3z"/><g id="XMLID_358_"><g id="XMLID_354_"><g id="XMLID_355_"><path id="XMLID_356_" class="st9" d="M390.6 715.3c-4.1-46.2 0-60.3 0-60.3h-10.8s1.9 20.1 1.9 66.1-23.2 77.7-23.2 77.7c26-7.2 29.4-45.1 29.4-45.1s21.5 37.7 50.9 45.1c-.1 0-44.1-37.4-48.2-83.5z"/><path id="XMLID_357_" class="st10" d="m415.9 602.3-83.7 4 9.9 53.3s5.9 76.5 16.5 139.2c0 0 23.2-31.7 23.2-77.7s-1.9-66.1-1.9-66.1h10.8s-4.1 14.1 0 60.3 48.1 83.5 48.1 83.5c5.8-71.4-22.9-196.5-22.9-196.5z"/></g><g id="XMLID_242_"><path id="XMLID_241_" class="st11" d="M349.2 783.4s21.5-19.9 25.4-64.3c4-44.4-.9-67.2-.9-67.2"/><path id="XMLID_243_" class="st11" d="M397.3 655c.2.6 1.2 37.1 7.3 72.4s29.1 56 29.1 56"/></g></g><path id="XMLID_122_" class="st2" d="M342 659.6s5.9 76.5 16.5 139.2c26-7.2 29.4-45.1 29.4-45.1s21.5 37.7 50.9 45.1c5.9-71.4-22.9-196.5-22.9-196.5l-83.7 4 9.8 53.3z"/></g><g id="XMLID_237_"><g id="XMLID_239_"><g id="XMLID_378_"><path id="XMLID_380_" class="st9" d="M649.4 754.7c.3.2 1 1 2.3 2.3l-.9-4.9-1.4 2.6z"/><path id="XMLID_381_" class="st9" d="m630.8 699.1-1.9-10.9s-27 71.8-51.7 77.4c15.4 5.2 19.4-4.3 19.8-5.5v-.1.1c-.6 1.5-5.7 17.6 7.1 21.5-5.6-24.1 26.7-82.5 26.7-82.5z"/><path id="XMLID_382_" class="st9" d="M597.1 760.3c0-.1 0-.1 0 0 0-.1 0-.1 0 0z"/><path id="XMLID_383_" class="st10" d="M628.9 665.5s-27.6 60-51.7 100.3c24.7-5.7 51.7-77.4 51.7-77.4l1.9 10.9s-32.3 58.3-26.7 82.6c19.5-43.9 31-70.3 31-70.3l-6.2-46.1z"/><path id="XMLID_384_" class="st10" d="M724.7 818.2c-45.8-45.9-78.4-89.9-78.4-89.9l4.5 23.8 2-3.7s44.9 63.2 71.9 69.8z"/><path id="XMLID_385_" class="st10" d="M654.3 771.1c.9 1.2 17.9 27.7 46.8 64.5-.3-20.7-39.3-67.4-49.4-78.4l2.6 13.9z"/><path id="XMLID_386_" class="st9" d="M699.8 810s9.3 14.1 24.8 8.2c-27-6.6-71.8-69.8-71.8-69.8l-2 3.7.9 4.9c10.1 11.1 49.2 57.7 49.4 78.4 8-10.5-1.3-25.4-1.3-25.4z"/></g><path id="XMLID_183_" class="st2" d="M628.9 665.5s-27.6 60-51.7 100.3c16.5 5.6 19.9-5.7 19.9-5.7s-6.3 17.5 7 21.7c19.5-43.9 31-70.3 31-70.3l-6.2-46z"/><path id="XMLID_184_" class="st2" d="M654.3 771.1c.9 1.2 17.9 27.7 46.8 64.5 8.1-10.6-1.2-25.5-1.2-25.5s9.3 14.1 24.8 8.2c-45.8-45.9-78.4-89.9-78.4-89.9l8 42.7z"/></g><path id="XMLID_375_" class="st10" d="M639.1 589.5 625.7 569l-7.1 24.8s11.2 125.8 19.1 197l22.9 1.2c-7.7-73.8-21.5-202.5-21.5-202.5z"/><path id="XMLID_376_" class="st0" d="M637.7 790.9c2.9 26.3 5.2 45.2 6.4 47.6 4.4 8.8 21.1 8.5 21.4 4.4.1-1.1-2-21.7-4.9-50.7l-22.9-1.3z"/><g id="XMLID_182_"><path id="XMLID_410_" d="m641.6 612.1-22.4-19.9-.5 1.7s.2 1.6.4 4.5l23.2 20.5c-.3-2.5-.6-4.7-.7-6.8z"/><path id="XMLID_412_" d="M645.5 648.4 622 629.8c.2 2 .4 4.2.6 6.4l23.6 18.7c-.4-2.2-.6-4.5-.7-6.5z"/><path id="XMLID_414_" d="m649 682.3-23.9-18.1c.2 2 .4 4.2.6 6.3l24 18.1c-.2-2.1-.4-4.2-.7-6.3z"/><path id="XMLID_417_" d="M651.8 708.5 627.5 690l.6 6.3 24.3 18.5c-.2-2.1-.3-4.1-.6-6.3z"/><path id="XMLID_421_" d="m654.5 734.3-24.4-17.6c.2 2 .4 4.1.6 6.1l24.4 17.6c-.2-1.9-.3-4.1-.6-6.1z"/><path id="XMLID_423_" d="m656.6 754.7-24.3-15.2c.2 2 .4 3.9.6 5.9l24.3 15.2c-.1-2-.3-3.9-.6-5.9z"/><path id="XMLID_427_" d="m659.2 779.2-24.4-16.3c.2 2 .4 4 .7 5.9l24.4 16.3c-.3-1.9-.5-3.9-.7-5.9z"/><path id="XMLID_431_" class="st9" d="M643.6 631.6 620.3 612c.2 2 .4 4.3.6 6.6l23.4 19.7c-.2-2.4-.4-4.6-.7-6.7z"/><path id="XMLID_432_" class="st9" d="m647 663.3-23.5-16.8c.2 2 .4 4.1.6 6.1l23.6 16.9c-.3-2.1-.5-4.3-.7-6.2z"/><path id="XMLID_435_" class="st9" d="m650.2 693.8-24.1-18.3c.2 2 .4 4.2.6 6.3l24.1 18.3c-.1-2.2-.3-4.3-.6-6.3z"/><path id="XMLID_440_" class="st9" d="m653.2 721.4-24.4-18.6c.2 2.1.4 4.2.7 6.3l24.4 18.6c-.4-2.1-.5-4.2-.7-6.3z"/><path id="XMLID_442_" class="st9" d="m655.6 744.5-24.4-16.7.6 6 24.4 16.7c-.2-1.9-.4-4-.6-6z"/><path id="XMLID_446_" class="st9" d="m658.1 768.3-24.4-16.2c.2 2 .4 4 .7 5.9l24.4 16.3c-.3-2-.5-4-.7-6z"/><path id="XMLID_448_" class="st9" d="m660.4 790.8-24.6-18.4c.2 2.1.5 4.2.7 6.3l17.5 13 6.6.4c-.1-.4-.2-.8-.2-1.3z"/></g><path id="XMLID_240_" class="st2" d="M639.1 589.5 625.7 569l-7.1 24.8s11.2 125.8 19.1 197l22.9 1.2c-7.7-73.8-21.5-202.5-21.5-202.5z"/></g><g id="XMLID_406_"><path id="XMLID_167_" class="st0" d="M567.9 218.1s-13.3-47.7-10.2-52c3.1-4.4 25.7-6.1 29.5-2.3 3.7 3.9 7.4 53.2 7.4 53.2l-26.7 1.1z"/><g id="XMLID_405_"><path id="XMLID_166_" class="st0" d="M564.1 241.9s-18.6-16.7-18.6-21.1c0-2.1 17.1-7.6 34.2-8.5 17.1-.9 34.2 2.8 34.2 3.8 0 2.1-14.6 23.4-14.6 23.4l-35.2 2.4z"/><g id="XMLID_404_"><path id="XMLID_165_" class="st0" d="M567.9 259c-8 .9-12.4-2.6-14.2-9.4-1.9-6.8 3.4-10.6 7.2-12.9 3.7-2.3 39.9-5.3 44-3.3s8.1 5.8 8.1 11.4c0 5.8-6.6 11.3-6.6 11.3s-30.6 1.9-38.5 2.9z"/><g id="XMLID_403_"><path id="XMLID_163_" class="st0" d="M564.1 259.5c-5.9 15.8-2.1 48.6 10.9 60 13 11.4 42.5 7.2 47.7-7.7s2.9-44-10.5-57.6c-11.9-12-42.1-10.5-48.1 5.3z"/><path id="XMLID_164_" class="st1" d="M582.7 268.5c-1.9 5.3.7 33.6 6.2 39.4 5.4 5.9 14.9 3 16.7-3.2s-1.6-31-4.6-36.2c-3-5.3-16.4-5.3-18.3 0z"/><g id="XMLID_401_"><path id="XMLID_162_" class="st0" d="M576.2 350s-16.5-17.5-16.5-21.6 78.4-13.6 79.2-9.8c.7 3.8-8.3 28.3-8.3 28.3l-54.4 3.1z"/><g id="XMLID_395_"><path id="XMLID_161_" class="st4" d="M581.8 370c-9.6 0-15.5-11.2-13.7-18.1 1.9-6.9 18.6-12.7 38.1-12.7s30.4 1.7 33.5 7.7c3.1 6.1 2.1 13.8-1.9 18.4-4 4.6-35.6 11-35.6 11s-10.7-6.3-20.4-6.3z"/><g id="XMLID_394_"><g id="XMLID_408_"><path id="XMLID_409_" class="st3" d="M619.3 345.4c-3.4-1.2-23 .7-29.5 3.4s-12.4 7.5-15.2 13.3c-2.8 5.8 0 51.1 0 51.1h0c.7 3.2-.2 6.8 1.9 10 3.7 6 11.8 3.3 16.1 5.1.7.3 1.3.7 1.8 1.2l12.8-10.2 8.6-36.2s-7.1-18.4-14.9-18.4c-7.7 0-7.3-7.3-4.6-9.4 2.7-2 20.2-1.5 23-1.6 2.8 0 3.4-7.1 0-8.3z"/></g><g id="XMLID_388_"><g id="XMLID_231_"><path id="XMLID_233_" class="st8" d="M604.8 364.5c-2.8 0-5 .1-5.9.1-3.1 0-4.4 8.4-1.2 8.7-1.8 1.6-5.3 7 .2 9.6-4.7 1.5-3.9 8.7-.2 9.9-3.1 1.6-3.1 8.6 0 9.9.9.4 3.4.6 6.7.6.4-8.1.4-29.1.4-38.8z"/><path id="XMLID_234_" class="st3" d="M638.9 384.1c-1.2-11.8-1.9-15.7-10.2-17.9-5.9-1.7-16.9-1.8-23.9-1.7 0 9.8.1 30.8-.5 38.8 7.9 0 20.2-.8 24.3-1.5 5.9-1 11.5-5.9 10.3-17.7z"/></g><path id="XMLID_232_" class="st2" d="m597.6 373.3 20.3-.5"/><path id="XMLID_159_" class="st2" d="M597.8 382.8h20.1"/><path id="XMLID_235_" class="st2" d="M597.6 392.8h20.3"/></g><path id="XMLID_402_" class="st8" d="M619.3 345.4c-1.4-.5-5.3-.5-10-.1l2 8.6h8.1c2.7-.2 3.3-7.3-.1-8.5z"/></g></g></g></g></g></g></g><g id="XMLID_236_"><g id="XMLID_420_"><path id="XMLID_430_" class="st9" d="M642.1 459H637s.4 1 1 3l4.6-.6c-.3-1.6-.5-2.4-.5-2.4z"/><path id="XMLID_434_" class="st10" d="m604.8 456.6-9.8 13.9 2.1 19.7s-.6 3.3-1.4 9.1c1.9 31.5 3.9 82.9.4 111.3 32.4-23.9 22.6-70.4 22.6-70.4l7.4-1.2s2.8 44.9 31.6 70C635.1 526 628 462.7 628 462.7l-23.2-6.1z"/><path id="XMLID_436_" class="st9" d="m626.1 539-7.4 1.2s9.9 46.5-22.6 70.4c33.5 2.1 29.5-32.3 29.5-32.3s8.6 33.5 32.3 30.7c-29-25.1-31.8-70-31.8-70z"/><path id="XMLID_437_" class="st10" d="m637.9 462-9.9.8s9 75.3 43.2 130.4c.7-28.2-27.5-114.2-33.3-131.2z"/><path id="XMLID_438_" class="st10" d="M698.9 583.3c-41.2-66.6-48.6-122.8-48.6-122.8l-7.6.9c4 16.4 28.2 111.4 56.2 121.9z"/><path id="XMLID_439_" class="st9" d="M673.8 566s6.5 20.4 25.1 17.4c-28.1-10.5-52.3-105.6-56.3-121.9l-4.6.6c5.7 17 33.9 103.1 33.3 131.2 7.5-9.4 2.5-27.3 2.5-27.3z"/><path id="XMLID_441_" class="st9" d="m585.2 528.8-4.4-10.5s-10.3 61.3-33.2 71.8c15.4 8.7 22.4-8.6 24.1-13.8.3-.9.5-1.4.5-1.4s-.1.6-.5 1.4c-1.3 4.7-4.3 20 8.8 26.5-8.6-24.1 4.7-74 4.7-74z"/><path id="XMLID_443_" class="st9" d="M571.9 576.4c.3-.8.5-1.4.5-1.4s-.4.4-.5 1.4z"/><path id="XMLID_444_" class="st10" d="m593.7 472.4 1.3-1.9-1.3-11.6-7.2 6.6s-20.7 76.8-38.8 124.5c22.9-10.6 33.2-71.8 33.2-71.8l4.4 10.5s-13.3 49.9-4.6 74.1c5.9-42.9 12.4-85.4 15.2-103.5-1.1-15.7-2-26.5-2.2-26.9z"/></g><path id="XMLID_174_" class="st2" d="M593.7 472.4c.6 1.2 7.6 95.7 2.4 138.2 33.5 2.1 29.5-32.3 29.5-32.3s8.6 33.5 32.3 30.7c-22.6-83-29.7-146.3-29.7-146.3l-23.2-6.1-11.3 15.8z"/><path id="XMLID_180_" class="st2" d="M625.5 462.8s17.7 86.6 45.7 130.4c7.6-9.3 2.6-27.2 2.6-27.2s6.5 20.4 25.1 17.4c-41.2-66.6-48.6-122.8-48.6-122.8l-24.8 2.2z"/><path id="XMLID_179_" class="st2" d="M586.4 465.6s-20.7 76.8-38.8 124.5C565.5 600.3 572 575 572 575s-7.2 20.2 8.4 27.9c7.7-56.7 19.3-112.6 19.3-112.6l-6.2-31.2-7.1 6.5z"/></g><g id="XMLID_411_"><g id="XMLID_147_"><g id="XMLID_413_"><path id="XMLID_422_" class="st9" d="M667.4 439.3c-.2 0-.2 0 0 0z"/><path id="XMLID_424_" class="st10" d="m615.9 459.5-1.2-3c.9.7 52 2 64.8-8.2-9.9-7.3-62.6-3.5-62.6-3.5s52.7-3.8 62.6 3.5c-1.9-5.9-11-9.1-12-9.1h-.1.1c.9 0 6.2-.7 8.6-8.6-14.6 11.4-60.1 11.8-60.1 11.8s45.5-.3 60.1-11.8c-9.9-7.2-59.2-2.6-59.2-2.6l-.9-1.8s42.5-2.8 57.1-17c-36 6.5-76.2 12.4-76.2 12.4l-5.9 17.7-9.9 19.8 21.1 6.6s30 0 79.3 1.7c-10.5-10.8-65.6-7.9-65.6-7.9z"/><path id="XMLID_425_" class="st9" d="M616.7 427.9s49.4-4.6 59.2 2.6c-2.7-9-13-9-13.6-9 .6 0 8.4-.4 10.5-12.4-14.6 14.2-57.1 17-57.1 17l1 1.8z"/><path id="XMLID_426_" class="st9" d="M662.4 421.6z"/><path id="XMLID_428_" class="st9" d="M668.6 456.9s7.7 0 10.9-8.6c-12.7 10.1-63.9 8.8-64.8 8.2l1.2 3s55.2-3 65.4 7.8c-.1-7.9-12.7-10.4-12.7-10.4z"/></g><path id="XMLID_226_" class="st9" d="M667.4 439.3c1.1.1 10.2 3.2 12 9.1-9.9-7.3-62.6-3.5-62.6-3.5l-.9-2.5s45.5-.3 60.1-11.8c-2.4 7.9-7.7 8.6-8.6 8.7-.2 0-.2 0 0 0z"/></g><g id="XMLID_227_"><path id="XMLID_178_" class="st2" d="M596.7 421.6s40.2-5.9 76.2-12.4c-2.1 12.4-10.5 12.4-10.5 12.4s10.9-.3 13.7 9c-2.8 9.3-9.6 8.6-8.6 8.6s10.2 3.1 12.1 9.1c-3.1 8.6-10.9 8.6-10.9 8.6s12.7 2.6 12.7 10.4c-49.3-1.7-79.3-1.7-79.3-1.7L581 459l7.4-19.5 8.3-17.9z"/><path id="XMLID_229_" class="st2" d="M616.7 438.8s20.1-3.7 59.2-8.3"/><path id="XMLID_228_" class="st2" d="M615.9 454.1s24.4-1.2 63.6-5.8"/><g id="XMLID_407_"><circle id="XMLID_168_" class="st8" cx="599.2" cy="428.4" r="8.4"/><circle id="XMLID_171_" class="st8" cx="602.1" cy="443.3" r="8.4"/><circle id="XMLID_172_" class="st8" cx="602.1" cy="459.9" r="8.4"/><g id="XMLID_160_"><circle id="XMLID_169_" class="st8" cx="613" cy="427.5" r="8.4"/><circle id="XMLID_170_" class="st8" cx="615.9" cy="442.3" r="8.4"/><circle id="XMLID_173_" class="st8" cx="615.9" cy="459" r="8.4"/></g></g></g></g><g id="XMLID_415_"><path id="XMLID_156_" class="st4" d="M445.9 431.6c3.6-5.3 14.1-1.8 13.8 3.4 5.3-2.7 13-.8 13.7 4.3.7 5 26 13.3 26 13.3s7.4-.6 8.6 6.3c.9-4 2.5-6.3 6.8-6.3.7-5.8 4.9-10.6 9.9-7.8-1.2-7.2 2.1-8.9 6.5-8.9-1.6-5.5 2.1-8.9 5.6-7.7-1.6-3.8 3.4-9.1 7.2-6.5-.7-5.3 3.4-9.2 8.1-7.1 1.9-5.2 5.9-10.4 16.1-7.3s4.6 10.1 8.4 16.2c3.7 6 11.8 3.3 16.1 5.1 4.4 1.9 4.6 8.6.7 12.2 5.9-1.5 7.7 6.5 2.1 9.9 7.2 2 3 8.6 4.4 11s12.7 3.6 17.7 5.9c4.9 2.4 22.3 34.7 22.3 38.4s-5.6 9.9-9 7.2c1.1 3.4 5.9 9 4.4 13-1.6 4-9.3 7.4-10.9 3.1 1 7 3.1 11.4.9 13.7-2.1 2.1-8.4 3.7-9.9-.9-.4 5.9.3 7.7-.9 9.9s-10.3 3.1-10.5 0-.3-28.3-2.5-38.4c-2.1-10.2-4.9-15.5-6.8-17-1.9-1.5-4.6 6.8-5.6 16.7-.9 9.9 4.6 21.1 4.4 24.2-.3 3.1-5.3 6.2-8.4 4.6-3.1-1.6-9-18.4-8.6-30 .5-19.1 3.4-15.8 4-29.3.7-13.5-1.6-25.5-5.3-27.7.7 5.8-1.2 10.9-6.8 10.9 1.9 7-2.2 8.9-5.9 9.3 0 7.7-4 10.7-9.6 9.2-.7 9-5.8 11.3-11.2 9.7-.2 8.4-4.3 10.2-11.7 9.3-.9 7.1-5.6 9.3-9.9 6.1-3.7 5.6-10.2 4.6-11.4 1.9-3.4 3.7-11.4 3.4-12.4-.9-4.9 2.8-11.2.3-10.5-3.1-9 1.9-10.9-7.1-10.9-7.1s-22.3-11.4-24.4-6.9c-2.1 4.6-13.3 3.1-12.4-3.7-9.3 4.6-14.6-3.4-14.6-3.4s18.9-49.5 22.4-54.8z"/><path id="XMLID_374_" class="st2" d="M610.3 477.7S622 494 630.7 513"/><path id="XMLID_377_" class="st2" d="M610.3 493s9.2 15.3 13.9 36.1"/><path id="XMLID_379_" class="st2" d="M606.1 504s8.6 16.1 9.1 37.8"/><path id="XMLID_389_" class="st8" d="M627.3 506c1.1 2.2 2.3 4.6 3.4 7 3.4 2.8 9-3.4 9-7.2 0-.9-1.1-3.6-2.8-7.2l-9.6 7.4z"/><path id="XMLID_390_" class="st8" d="M622.3 521.4c.7 2.4 1.4 5 2 7.6 1.6 4.4 9.3.9 10.9-3.1 1.1-3-1.2-6.9-3-10l-9.9 5.5z"/><path id="XMLID_392_" class="st8" d="M614.9 535.5c.2 2 .4 4.1.4 6.3 1.6 4.6 7.7 3.1 9.9.9 1.6-1.6.9-4.4 0-8.5l-10.3 1.3z"/><path id="XMLID_391_" class="st8" d="M603.6 543c.1 4.4.2 7.7.3 8.7.2 3.1 9.3 2.1 10.5 0 1.1-2 .7-3.7.8-8.6l-11.6-.1z"/><path id="XMLID_393_" class="st8" d="M580.8 534.7c1.5 3.7 3 6.4 4.2 7.1 3.1 1.6 8.1-1.6 8.4-4.6.1-1.3-.8-4.2-1.9-7.8l-10.7 5.3z"/></g><g id="XMLID_373_"><g id="XMLID_387_"><path id="XMLID_396_" class="st10" d="M467.8 466.5c6-10.6 13.1-34.1 7.4-45 .9 12.5-3.7 27.9-12.4 44.1-8.6 16.1-17 32.1-26 38.7 10.9-2.1 25.1-27.2 31-37.8z"/><path id="XMLID_397_" class="st9" d="M496.9 446.4s5.6-10.7 0-19.2c1.6 13.8-10.5 33.2-18.3 47.8-7.7 14.6-19.8 36-26 38.4 5.5.9 11.8-6.2 11.8-6.2s.9 8.1 7.2 11.2c-3.7-11.8 2.8-27.5 10.2-43.4 7.4-15.9 25.1-37.1 32.5-38.1-9.6-2.5-17.4 9.5-17.4 9.5z"/><path id="XMLID_398_" class="st9" d="M469.5 467.3s19.1-37.8 27.4-40.2c-9-3.2-14.6 8.6-14.6 8.6s3.7-13.8-7.2-14.2c5.8 10.9-1.4 34.4-7.4 45-6 10.6-20.2 35.6-31 37.7 8.4 2.1 13.3-2.1 13.3-2.1s-.8 4.9 2.5 11.2c-1.1-13.5 17-46 17-46z"/><path id="XMLID_399_" class="st10" d="M481.8 474.9c-7.4 15.9-13.9 31.6-10.2 43.4 4-13.7 4.9-23.5 16.5-43.7 11.4-20.2 17.7-28.2 26.3-37.7-7.5.9-25.2 22.1-32.6 38z"/><path id="XMLID_400_" class="st10" d="M478.6 474.9c7.7-14.6 19.8-33.8 18.3-47.8-8.4 2.4-27.4 40.2-27.4 40.2s-18.1 32.4-16.9 46c6.2-2.5 18.3-23.8 26-38.4z"/></g><g id="XMLID_224_"><path id="XMLID_152_" class="st2" d="M436.8 504.3c9-6.7 17.4-22.6 26-38.7 8.6-16.1 13.3-31.6 12.4-44.1 10.9.5 7.2 14.2 7.2 14.2s5.6-11.7 14.6-8.6c5.6 8.6 0 19.2 0 19.2s7.7-12 17.4-9.7c-8.6 9.7-14.9 17.7-26.3 37.7-11.4 20.1-12.4 30-16.5 43.7-6.2-3.1-7.2-11.2-7.2-11.2s-6.2 7.2-11.8 6.2c-3.3-6.1-2.5-11.2-2.5-11.2s-4.9 4.7-13.3 2.5z"/><path id="XMLID_225_" class="st2" d="m496.9 427.2-44.3 86.1"/><g id="XMLID_223_"><circle id="XMLID_157_" class="st8" cx="467.8" cy="468.4" r="7.9"/><circle id="XMLID_158_" class="st8" cx="481.8" cy="476.2" r="7.9"/></g></g></g><path id="XMLID_125_" class="st4" d="M407.4 610.4s-7.2 7.1-.7 12.1c-4.4 5-2.5 13.2 2.8 13.6-6.4 4-5.4 14.2.5 16.5-5.9 3.1 9.3 40.8 5.9 43.7-3.5 2.9-3.3 11.2.9 11.2-3.2 4.3-2.4 11.3 2.1 11.3-5.3 4.4-2.5 13.4 2.4 13.1-3 3.7-3.7 12.7 2.5 12.7-4.9 4.6-.3 13.9 6.5 11.4s25.2 19.5 25.2 19.5 15.1-39.3 20.1-38.4c4.9.9 6.2-7.6 1.2-9.6 5.3-2 4.4-9.9 0-10.9 3.7-5 2.1-9.6-4-10.9 5.6-1.6 4.6-11.4-1.9-11.4 5.9-4.5.3-11.3.3-11.3s-7.4-28.1-2.8-28.1 6.2-9.3-.7-9.9c5.6-4.4 3.1-12.3-3.1-12.3 5.3-5.3 2.8-10.8-2.1-10.5 2.1-5.8-4.6-13.9-4.6-13.9l-36-10.3-14.5 12.4z"/><g id="XMLID_348_"><path id="XMLID_114_" class="st2" d="M399.3 829.6c8.4 5.3 6.9 18.6 6.9 18.6"/><path id="XMLID_121_" class="st0" d="M364.7 782.2c.7 0 7.5-.9 53.9 0 2.5 34.8-8.1 49.5-8.1 49.5L362.3 817l2.4-34.8z"/><path id="XMLID_123_" class="st2" d="M367.1 793.7c32.3 4 51.3 10.2 51.3 10.2"/><g id="XMLID_347_"><path id="XMLID_120_" class="st0" d="M333.9 768.1s34.6 9.5 38.2 13.2c3.6 3.7-.4 31.3-.4 31.3l-47-9.9 9.2-34.6z"/><g id="XMLID_113_"><path id="XMLID_110_" class="st0" d="M290.9 750.9v34.7l48.3 6.2v-26.9l-15.3-20.5z"/><g id="XMLID_112_"><g id="XMLID_343_"><path id="XMLID_344_" class="st0" d="M415.1 836.7c-1.7-5.7-6.4-12.6-17.8-18.5-22-11.2-57.9-23.9-57.9-23.9l-25.8 48.1 17.9 2.4 33.3-5.6 50.3-2.5z"/><path id="XMLID_345_" class="st8" d="m364.7 839.1-33.3 5.6 33.3 4.5s48.6 0 50.2-2.1c.7-1 1.8-5.1.2-10.3l-50.4 2.3z"/></g><path id="XMLID_115_" class="st2" d="M391.6 830.2c7.7 4.6 5.4 18.4 5.4 18.4"/><path id="XMLID_116_" class="st2" d="M381.4 830.2c8 5.6 4.3 17.5 5.8 18.7"/><path id="XMLID_117_" class="st2" d="M371.7 830.2c7.4 4 5.7 18.8 5.7 18.8"/><g id="XMLID_342_"><path id="XMLID_118_" class="st3" d="M287.5 797.1c-4 9-8.6 44.1-8.6 44.1l65.1-1.8V796c-.1 0-52.5-7.9-56.5 1.1z"/><path id="XMLID_111_" class="st0" d="M287.2 779.7c-7.2 3.1-8.1 16.5.9 21.1 9 4.6 43.4 7.2 50.2 3.7 6.8-3.4 9-15.1 4.9-17.7-4.1-2.5-14.6-2.1-28.2-3.4-13.5-1.2-20.5-6.7-27.8-3.7z"/></g><path id="XMLID_119_" class="st2" d="M289 843.8s4-27.1 8.6-30.9c4.6-3.7 34.4-.9 34.4-.9l-1.6 31.8H289z"/><path id="XMLID_106_" class="st3" d="M277.8 838.6c-3 1.9-2.8 9.9.9 10.5 3.7.7 83.1.7 86.8.9 3.7.3 5.1-12.3-2.4-12.4-7.4-.1-82.3-.9-85.3 1z"/></g></g></g></g><path id="XMLID_103_" class="st4" d="M272.9 614.2c-5.9 1.4-10.4 17.8-2.5 22.8-1.9 5.9-.1 12.4 6.2 14.2-2.8 4-1.6 10.1 6.3 12.4-3.1 5-1 13.4 6.7 12.5-3.7 4.4-.9 12.4 7 13.9 8 1.6-2.1 31.6-5.9 34.7-3.7 3.1-3.4 9.6 0 10.9-6.1 1.2-7.2 7.2-1.9 10.2-5.6 1.9-3.3 10.5 4.6 12.4 8 1.9 14.9-5.9 19.1-4.6s7.2 9 11.9 12.7 8.6 6.2 14.6 4.6c5.9-1.6 3.7-7.4 2.1-9.9 5.9.9 6.8-8.1 3.7-10.9 4.9.7 9.5-5.3 3.8-10.2 6.1-5.3 2.4-11.8 2.4-11.8l6.2-26.3s4-7.9-.9-11.1c6.1-2.6 4-8.5-.3-11.9 8.1-3.4 6.5-12.4-.3-15.8 5.8-5.9 3.1-16.7 3.1-16.7l-25.3-51.6c.2-.1-54.7 18.1-60.6 19.5z"/><g id="XMLID_75_"><g id="XMLID_323_"><path id="XMLID_337_" class="st9" d="M225.6 774.7c-.1-.9-.1-1.5-.1-1.5s0 .6.1 1.5z"/><path id="XMLID_339_" class="st9" d="M236 697.7c12.4-71.6 19.2-84.5 19.2-84.5h-12.1s-11.2 41.8-17 81c-5.9 39.2-.9 76.1-23.5 110.6 23.5 1.6 23.4-23.7 23.1-30.1-.1-.9-.1-1.5-.1-1.5s.1.6.1 1.5c.7 6.5 4.4 32.6 23.1 35.1 0 0-25.1-40.6-12.8-112.1z"/><path id="XMLID_340_" class="st10" d="M247.6 696.1c2.5-36.5 17.4-87.8 17.4-87.8l-33.7 3.3c0 .9-7.4 10.8-19.2 82.7-11.8 71.8-7.4 75.9-9.3 110.6 22.6-34.5 17.7-71.4 23.5-110.6 5.9-39.2 17-81 17-81h12.1s-6.8 12.9-19.2 84.5C223.8 769.4 248.9 810 248.9 810c-1.3-19.4-3.8-77.4-1.3-113.9z"/></g><path id="XMLID_102_" class="st2" d="M231.1 611.5c0 .9-7.4 10.8-19.2 82.7-11.8 71.9-7.4 75.9-9.3 110.6 27 1.9 23-31.6 23-31.6s1.9 33.7 23.2 36.5c-1.2-19.2-3.7-77.1-1.2-113.7 2.5-36.5 17.4-87.8 17.4-87.8l-33.9 3.3z"/></g><path id="XMLID_92_" class="st0" d="M448.6 531.3c-3.4-2.1-202.6.9-273.3-4 4.9 28.8 28.8 49.3 28.8 49.3s-26 11.8-28.8 40c60.4 0 285.6-6.1 285.6-6.1s-8.9-77.1-12.3-79.2z"/><g id="XMLID_335_"><path id="XMLID_336_" class="st4" d="m367.5 488.8-8.7-39.6h-71.6l-14.8 21.4s-8.6 7.7-2.1 11.9c-5 3.3-6.4 10.7 0 12.3-7.7 2.1-6.3 10.5-2 13.3-5.9 6.5-5.9 11.4-5.9 11.4l2.9 10.4c28.8.3 59.4.4 87.2.5l15-41.6z"/></g><path id="XMLID_76_" class="st4" d="M246.9 421s-9.4-2.5-11.7 4.4c-.8 2.5-7.2 4-10.6 6.9-4.3-3.1-12.7-2.2-13.2 3.5-.5 5.8-11.4 1.6-14.1 1-7.4-1.6-11.4 3.6-9.3 8.9-4.9.7-6.5 7.5-3.1 11.2-4.6 1.9-4 9.7 0 12.7-6.2 7.9.8 12.7 3.7 13.6-3.1 3.8 2.5 13.4 7.4 11.8-2.8 7.2 6.2 14.2 11.4 11.2-3.7 4.4 5.4 13.7 10.8 9.9-3.6 5.6 4.8 13.9 9.4 10.2-3.7 7.4 6 13.3 12.4 9.9-1.2 3.7 1.9 8.4 7.4 8.4 5.6 0 26.2-16.5 26.2-21.4s1-6.8-5.6-7.2c2.2-4.6 1.6-13-6.1-11.8-.7-6.8-5.8-8.6-11.2-6.8.7-9-8.6-11.8-8.6-11.8l34.1-20.1 13-13.1-10.5-3.3-12.7-38.8-19.1 10.7z"/><g id="XMLID_300_"><circle id="XMLID_46_" class="st3" cx="258.6" cy="436.8" r="9.7"/><circle id="XMLID_51_" class="st3" cx="274.8" cy="466.5" r="9.7"/><circle id="XMLID_55_" class="st3" cx="300.8" cy="480.6" r="9.7"/><circle id="XMLID_68_" class="st3" cx="331.7" cy="482.5" r="9.7"/></g><g id="XMLID_70_"><path id="XMLID_71_" class="st1" d="M310.4 444.5c13.3 5.5 30 5.3 42.9 3.8l-1.5-10.3c-11.7 1.3-25.5 2-34-.7-14.7-4.5-14.9-25.5-13.6-38.1l-11.6 4.7c-1.1 11.9-.4 33.1 17.8 40.6z"/><g id="XMLID_230_"><path id="XMLID_238_" class="st1" d="M316.3 423.5c-4.5-4.5-4.2-18-3.8-27.5l-8.2 3.3c-1.3 12.6-1.2 33.6 13.6 38.1 8.6 2.6 22.3 2 34 .7l-1.9-12.8c-14.4 1.1-30.2 1.7-33.7-1.8z"/><path id="XMLID_418_" class="st1" d="M316.3 423.5c3.4 3.5 19.2 3.1 33.7 1.8l-6.1-42-31.4 12.7c-.3 9.4-.6 23 3.8 27.5z"/></g><path id="XMLID_73_" class="st1" d="M299.2 457.2c-23.1-6.7-23.3-35.2-22.5-46.8l-7.5 3.1s-8.6 44.9 24.2 54.8c32.7 9.9 62.8-.7 62.8-.7l-1.5-9.9c-13.3 2.5-36.1 5.1-55.5-.5z"/><path id="XMLID_74_" class="st1" d="M310.4 444.5c-18.3-7.5-19-28.8-17.8-40.5l-15.9 6.4c-.8 11.5-.7 40.1 22.5 46.8 19.2 5.6 42.2 3 55.5.6l-1.4-9.5c-12.9 1.5-29.5 1.7-42.9-3.8z"/></g><g id="XMLID_25_"><path id="XMLID_26_" class="st5" d="M321 380.3s-79.9 27.7-79.9 30.9c0 .8.6 2.5 1.4 4.6l80.7-30.7-2.2-4.8z"/><path id="XMLID_27_" class="st5" d="m323.1 385-80.7 30.7c.8 2 2 4.2 3.2 6.4l80.5-30.7-3-6.4z"/><path id="XMLID_28_" class="st5" d="M249 427.2c1.5 1.9 3 3.2 4.2 3.2 4.4 0 77.1-29.7 77.1-29.7l-1.7-3.6-79.6 30.1z"/><path id="XMLID_29_" class="st5" d="m326.1 391.4-80.5 30.7c1.1 1.9 2.2 3.7 3.3 5.1l79.7-30.3-2.5-5.5z"/></g><g id="XMLID_3_"><path id="XMLID_7_" class="st8" d="M341 342.6c-.3-3-.6-5.6-.7-7.4-1-9.9-4.1-21.2-6.5-30.2l-9.6.7 5.6 38.8 11.2-1.9z"/><path id="XMLID_8_" class="st8" d="m329.6 344.5-5.6-38.8-11.5.9s10.7 118.7 12.1 123.6c1.4 4.9 26 0 26 0s-7-61.5-9.8-87.6l-11.2 1.9z"/></g><g id="XMLID_19_"><path id="XMLID_20_" class="st0" d="M361.9 196.3c11-3.5 20.7-8.2 28-12.2-.2-1.9.1-4.2-1.6-5.8-2.7-2.5-9.4-6.5-9.9-12.7s-8.1-17-12.1-19.8-8.1-5.6-10.5-9.6c-2.5-4-4.6-9.6-8.4-8.4s-3.5 9.2-4.4 11.8c-.8 2.6 0 6.5-2.8 10.2-2.8 3.7-1.9 7.7-1.9 11.8 0 4-5.8 6.8-5.8 10.2 0 3.4 2.1 5.3 1.6 8.1-.6 2.8-4.1 2.8-4.1 6.2 0 3.4 1.7 4.9.3 8.6-.7 1.7-1.5 2.5-2.5 3.3 6.6 1.7 18.8 3.2 34.1-1.7z"/><path id="XMLID_21_" class="st8" d="M448.3 236.7c-2.8-1.6-10.9 6.2-15.8 3.7s-21.7-26.3-21.7-26.3 1.9-5.3-1.9-8.4c-3.7-3.1-6.8-.7-8.6-4.4s-1.9-5.6-3.7-9.3c-1.9-3.7-3-3.7-5.4-5.3-.9-.6-1.1-1.5-1.3-2.6-7.2 4-17.1 8.6-28 12.2-15.2 4.9-27.5 3.3-34.1 1.7-1.2.9-2.5 1.8-3.4 3.9-1.6 3.7.9 8.4.9 13.9 0 5.6-3.7 5.3-3.7 10.5 0 5.3 2.5 8.4 2.5 14.2 0 5.9-2.2 7.2-2.2 10.5s2.5 4.8 1.6 9.9c-.9 5.1-3.7 4.9-3.7 11.2s2.8 9.3 2.8 9.3l6.7 18 109.2-27s2.8-10.5 4-15.2c1.2-4.6 3.4-4.3 5.9-7.4 2.3-3 2.7-11.7-.1-13.1z"/></g><g id="XMLID_63_"><path id="XMLID_64_" class="st5" d="m358.7 386.3-17.8 5.1s4.2 35 9 74.3l21.5-2.9c-6.5-40.2-12.7-76.5-12.7-76.5z"/><path id="XMLID_65_" class="st0" d="m371.6 462.8-21.5 2.9c1.5 12.1 3.1 24.5 4.6 36.5l23-3.3c-2.1-11.9-4.2-24.2-6.1-36.1z"/></g><path id="XMLID_47_" class="st2" d="m350.1 386.3 10.5 70.6"/><g id="XMLID_39_"><path id="XMLID_45_" class="st5" d="M354.5 502.2c4.6 36.8 8.8 68.8 9.5 70 .6.9 3.3 1.1 6.8.8l-9.5-71.8-6.8 1z"/><path id="XMLID_66_" class="st5" d="m361.3 501.2 9.5 71.8c2.6-.2 5.6-.7 8.4-1.2L369 500.1l-7.7 1.1z"/><path id="XMLID_67_" class="st5" d="M388.5 567.2c0-1.7-5-32.6-11-68.4l-8.6 1.3 10.2 71.8c5.1-1.3 9.4-3 9.4-4.7z"/></g><g id="XMLID_322_"><g id="XMLID_334_"><path id="XMLID_338_" class="st8" d="M321.3 569.4c-22.6-12.5-43.2-25.9-56.7-35.1-6.2 5.3-13.9 10.3-17 10.3-5.6 0-8.6-4.6-7.4-8.4-4.9 2.6-11.8-.3-13-5.1-7.1 7.4-18.6 20.4-18.6 26.5 0 8.6 26.1 44.9 90.2 74.1 17.8 8.1 33.8 14.2 48.1 18.9l35.4-35.2c-18-18.2-39.3-34-61-46z"/></g><path id="XMLID_324_" class="st0" d="M417 662.9c-8.3-16.9-20.4-33-34.9-47.7l-35.4 35.3c37.3 12.3 62 14.3 70.3 12.4z"/></g><path id="XMLID_91_" class="st2" d="M305.7 595c3.4 0 4 6.2-.9 8.4"/><g id="XMLID_90_"><path id="XMLID_95_" class="st8" d="m301.8 611.6-18.9-8.4c-1.1 2.5-2.1 4.9-3.1 7.2l19 9.5c1.1-2.8 2.1-5.7 3-8.3z"/><path id="XMLID_97_" class="st8" d="M304.8 603.4c-4.9 1.6-7.7-1.5-7.7-6.4l-9.2-4c-1.8 3.3-3.4 6.8-4.9 10.1l18.9 8.4c1.3-3.6 2.5-6.7 2.9-8.1z"/><path id="XMLID_98_" class="st8" d="M279.9 610.4c-1.8 4.1-3.2 7.5-4.2 9.5 0 .1-.1.1-.1.1 6.1 3.4 12.6 6.8 19.7 10 .8-2.4 2.2-6.2 3.6-10.2l-19-9.4z"/></g><path id="XMLID_211_" class="st0" d="M377.5 498.8c3.8 22.9 7.2 43.8 9.2 56.3 5.9-8.7 21.2-31.7 33.3-54.1l-43.1-6c.2 1.2.4 2.5.6 3.8z"/><path id="XMLID_219_" class="st4" d="M443.2 449.1c-4.3.9-10.9.9-12.3-7.5-1.9 6.2-12.4 4.8-12.1-3.3-1.9 4.1-11.4 3.3-11.4-4.3-1.9 5.2-12.4 4-11.2-3.7-2.7 4.6-10.4 3.7-11.2-4.1-.8 5.1-11.3 6.2-12-2.9-2 3-5 2.9-7.8 2 .8 5 1.8 10.3 2.6 15.8l69.9 22.5c2.3-5.4 4.1-10.2 5.5-14.5z"/><path id="XMLID_220_" class="st8" d="M437.7 463.5 367.8 441c1.2 7 2.4 14.3 3.6 21.7 1.8 10.7 3.6 21.7 5.4 32.3l43.1 6c2.1-3.9 4.1-7.8 5.9-11.5 4.9-9.6 8.8-18.3 11.9-26z"/><g id="XMLID_288_"><path id="XMLID_278_" class="st11" d="m335.9 211.4-3.8 61.5"/><path id="XMLID_279_" class="st11" d="m345.2 211.4-2.8 76.4"/><path id="XMLID_280_" class="st11" d="m354.5 211.4 7 74.1"/><path id="XMLID_281_" class="st11" d="m363.1 209 16.5 78.1"/><path id="XMLID_282_" class="st11" d="m371.4 205.7 23.8 75.3"/><path id="XMLID_283_" class="st11" d="m378.2 200.5 31.1 78.9"/><path id="XMLID_284_" class="st11" d="m386.2 197.3 33.8 80.4"/><path id="XMLID_285_" class="st11" d="m400.3 206.9 30.9 69.1"/><path id="XMLID_286_" class="st11" d="m420 231 16 30"/><path id="XMLID_287_" class="st11" d="m438.7 245.2 1.5 4.1"/></g><g id="XMLID_11_"><path id="XMLID_266_" class="st9" d="M442.4 267.3c-6.8-3.1-16.7.7-17.7 6.5-4.4-4.6-19.8-4.9-22.6 4.2-9.6-6.3-22.6 0-23.9 4.5-6.2-4.5-23.5-.9-24.4 5.3-3.1-6.2-16.5-2.1-16.5-2.1l-11.4.1-.7 9.2.7.7 121.2-23.6c-1.1-2.1-2.6-3.8-4.7-4.8z"/><path id="XMLID_267_" class="st10" d="m325.9 295.7 7.8 9.3 115.8-23.1s-.2-5.4-2.4-9.9l-121.2 23.7z"/></g><g id="XMLID_260_"><path id="XMLID_10_" class="st2" d="m333.7 305 115.8-23.1s-.3-11.4-7.2-14.6c-6.8-3.1-16.7.7-17.7 6.5-4.4-4.6-19.8-4.9-22.6 4.2-9.6-6.3-22.6 0-23.9 4.5-6.2-4.5-23.5-.9-24.4 5.3-3.1-6.2-16.5-2.1-16.5-2.1l-11.4.1-.7 9.2 8.6 10z"/><path id="XMLID_262_" class="st2" d="m424.7 273.8 2.8 12.1"/><path id="XMLID_263_" class="st2" d="m402.1 278 2.5 12.2"/><path id="XMLID_264_" class="st2" d="m378.2 282.5 1.4 13.3"/><path id="XMLID_265_" class="st2" d="m353.8 287.8 1.5 12.9"/></g><g id="XMLID_259_"><path id="XMLID_5_" class="st4" d="M330.8 289.3c1.9-3.4 6.5.7 7.4-4.6s-12.4-7.7-15.8-6.2c-3.4 1.6-3.1 8.4-1.2 10.5l-4.9 1.2c.3-1.9-2.5-7.7-11.6-6.5s-10.4 11.8-7 19.2c3.4 7.4 14.9 3.7 14.9 3.7l21.1-1.7c-2.1-7.9-3.7-14-2.9-15.6z"/><path id="XMLID_6_" class="st2" d="M316.3 290.2c0 5.6-2.5 10.9-8.1 9-5.6-1.9-2.8-9-2.8-9"/></g><g id="XMLID_277_"><path id="XMLID_16_" class="st1" d="M411.7 247.4s-12.7 2.6-16.7 0-9.2-15.8-5.9-23.9c3.3-8.1 21.7-17.9 30.8-16.7 9.1 1.2 15.3 5.9 16 13.3.7 7.4-3.3 11.8-3.3 11.8l-20.9 15.5z"/><g id="XMLID_261_"><circle id="XMLID_14_" class="st8" cx="420" cy="239.5" r="14.7"/><circle id="XMLID_15_" class="st8" cx="420" cy="239.5" r="5.3"/></g><path id="XMLID_268_" class="st2" d="m390 239.5 10.3 2.4"/><path id="XMLID_269_" class="st2" d="m388.2 227.7 9 6.6"/><path id="XMLID_270_" class="st2" d="m391.4 220.1 8.9 9.1"/><path id="XMLID_271_" class="st2" d="m397.2 215 6.1 9.7"/><path id="XMLID_272_" class="st2" d="m403.2 211.4 6.1 10"/><path id="XMLID_273_" class="st2" d="m410.8 208.1 4.2 11.7"/><path id="XMLID_274_" class="st2" d="M420 206.9v13.2"/><path id="XMLID_275_" class="st2" d="m427.5 209-2.3 11.1"/><path id="XMLID_276_" class="st2" d="m434.7 216.4-3.5 8.3"/></g><g id="XMLID_290_"><path id="XMLID_9_" class="st8" d="M324.2 378.9s-16.6-.9-20.3-5.9c-3.6-4.9.9-18.2 6.7-19.1 5.8-.7 19.7 5.1 19.7 5.1l-6.1 19.9z"/><g id="XMLID_289_"><path id="XMLID_18_" class="st4" d="M346.6 350.6s4-11.4 0-15.8-11.5-6.2-17-3.4c-5.6 2.8-8.4 5.6-8.6 13.7s3.2 9 3.2 14.6-9 15.5-6.9 28.5c2.1 13 32.7 10 33.5 5.9s11.4-34.7 6.8-39.7c-4.7-5-11-3.8-11-3.8z"/><path id="XMLID_77_" class="st2" d="M337.8 340.1c-1.3.9-7 6.5-4.1 11.2 2.8 4.6 12.2 2.3 13-.7"/><path id="XMLID_78_" class="st8" d="M343.3 363.8c-5.5.1-13.9 15-10.4 20.3 3.5 5.3 28.1 12.5 32.1 12.5s10.9-21.8 6.8-25.3-23.1-7.6-28.5-7.5z"/></g></g><g id="XMLID_292_"><path id="XMLID_293_" class="st10" d="M446.7 430c-2-4.6-70.5-24-84.7-23.5.5 2.8.9 5.8 1.5 8.9l82.5 23.8c1.2-4.6 1.4-7.7.7-9.2z"/><path id="XMLID_294_" class="st9" d="M363.6 415.4c.6 3.2 1.1 6.4 1.7 9.9 2.8.9 5.9 1 7.8-2 .7 9.2 11.2 8 12 2.9.7 7.8 8.5 8.7 11.2 4.1-1.1 7.7 9.4 8.9 11.2 3.7 0 7.5 9.6 8.4 11.4 4.3-.3 8.2 10.2 9.6 12.1 3.3 1.4 8.5 8 8.6 12.3 7.5 1.3-3.8 2.2-7.2 2.9-9.9l-82.6-23.8z"/></g><g id="XMLID_145_"><path id="XMLID_218_" class="st2" d="M373 423.3c.7 9.2 11.2 8 12 2.9.7 7.8 8.5 8.7 11.2 4.1-1.1 7.7 9.4 8.9 11.2 3.7 0 7.5 9.6 8.4 11.4 4.3-.3 8.2 10.2 9.6 12.1 3.3 1.4 8.5 8 8.6 12.3 7.5 3.3-9.9 4.6-16.6 3.5-19.1-2-4.6-70.5-24-84.7-23.5.9 5.5 2 11.8 3.2 18.8 2.8.9 5.9 1 7.8-2z"/><path id="XMLID_148_" class="st2" d="m433.9 423.9-2.7 17.8"/><path id="XMLID_216_" class="st2" d="m418.9 438.2 2.5-17.4"/><path id="XMLID_217_" class="st2" d="m409.8 417.2-2.4 16.8"/><path id="XMLID_221_" class="st2" d="m396.1 430.3 2.3-16.8"/><path id="XMLID_222_" class="st2" d="m387.4 411.2-2.4 15.1"/><path id="XMLID_146_" class="st2" d="m373 423.3 1.5-15.4"/></g><g id="XMLID_299_"><path id="XMLID_291_" class="st11" d="m380.6 487.9-1.4-38.4"/><path id="XMLID_295_" class="st11" d="m388.8 488.2.6-35.7"/><path id="XMLID_296_" class="st11" d="m397.3 489.5 3-32.9"/><path id="XMLID_297_" class="st11" d="m406.1 491.3 4.7-29.4"/><path id="XMLID_298_" class="st11" d="m414.8 493 8.4-27.4"/></g><path id="XMLID_304_" class="st4" d="M352.3 484.2c-4.8 3.5-15.5 12.3-19.7 23.9-8.5 20.7 7.2 39 17.1 43.8 4.2 2 8.3 2.7 11.6 2.8-1.8-13-4.2-32-6.8-52.4-.7-6.1-1.4-12.1-2.2-18.1z"/><g id="XMLID_213_"><g id="XMLID_212_"><g id="XMLID_303_"><path id="XMLID_306_" class="st10" d="M251.6 492.1c-10.5-11.1-16.9-24.3-26-38.2-9.1-13.9-15.5-25.5-21.4-37.5 0 18.4 10.9 30.1 17 40.6 6.2 10.3 21.2 34.3 30.4 35.1z"/><path id="XMLID_307_" class="st10" d="M190.9 426c5.9 6.3 15.2 22.6 23.2 33.1s16.4 30.7 23.4 42.1c0 0-4.8-18.7-20-44.2-15.2-25.6-26.6-31-26.6-31z"/><path id="XMLID_308_" class="st9" d="M238.1 489.5s7.9 5.3 13.5 2.7c-9.2-.8-24.2-24.7-30.4-35.2-6.2-10.5-14.6-24.4-17-40.6-2.1 5.3 0 13.9 0 13.9s-8.6-8.6-13.3-4.3c0 0 11.4 5.4 26.7 31 15.2 25.6 20 44.2 20 44.2 4.9-5 .5-11.7.5-11.7z"/></g><g id="XMLID_302_"><path id="XMLID_309_" class="st10" d="M239.6 447.8c7.5 15.3 17.4 31.7 24.4 34.7-10.9-13.2-20.7-37-20.7-37-.3-2-12.8-24.8-16.5-39.3-1.9 5.1 5.2 26.3 12.8 41.6z"/><path id="XMLID_310_" class="st10" d="M236.6 448.7c-5.9-11.1-19.4-32.3-24.4-33 4 6.4 10.9 18.1 19.8 33.6 8.9 15.4 13.5 24.7 20.2 40.2 1.2-8.1-9.7-29.8-15.6-40.8z"/><path id="XMLID_311_" class="st9" d="M252.2 477.6s6.4 7.5 11.8 4.9c-7-3-16.8-19.3-24.4-34.7s-14.7-36.5-12.8-41.6c-6.5 4.3-1.9 18-1.9 18s-6.2-15-12.7-8.6c4.9.7 18.5 21.9 24.4 33 5.9 11.1 16.8 32.7 15.6 40.8 6.4-4 0-11.8 0-11.8z"/></g></g><path id="XMLID_81_" class="st2" d="M243.2 445.5c-.3-2-12.8-24.8-16.5-39.3-6.5 4.3-1.9 18-1.9 18s-6.2-15-12.7-8.6c4 6.4 10.9 18.1 19.8 33.6 8.9 15.4 13.5 24.7 20.2 40.2 6.4-4 0-11.9 0-11.9s6.4 7.5 11.8 4.9c-10.8-13.1-20.7-36.9-20.7-36.9z"/><path id="XMLID_82_" class="st2" d="M225.5 453.9c-9.1-13.9-15.5-25.5-21.4-37.5-2.1 5.3 0 13.9 0 13.9s-8.6-8.6-13.3-4.3c5.9 6.3 15.2 22.6 23.2 33.1s16.4 30.7 23.4 42.1c4.9-4.9.6-11.7.6-11.7s7.9 5.3 13.5 2.7c-10.4-11.1-16.9-24.4-26-38.3z"/><g id="XMLID_301_"><circle id="XMLID_79_" class="st8" cx="237.5" cy="448.7" r="9.5"/><circle id="XMLID_80_" class="st8" cx="221" cy="457.9" r="9.5"/></g></g><g id="XMLID_99_"><path id="XMLID_100_" class="st8" d="M238.1 602.9c-1.4 4.9 6.7 7.2 9.5 3.4-3.4 5.3 4.9 7.4 7.7 4.6-2.1 5.3 7.2 8.6 9.6 5.6-.9 5.6 8.1 8.4 10.8 3.4.8-1.5 1.9-3.8 3.1-6.7l-33.4-20.4c-4 4.8-6.9 8.6-7.3 10.1z"/><g id="XMLID_101_"><path id="XMLID_305_" class="st3" d="M294 542.1c-11-5.4-18-12.1-21.6-16-4 5.8-16.2 15.3-22.5 17.8 4.9 5.2 15.8 12.2 18.2 16.1 2.2 3.5-13.3 21.1-22.9 32.8l33.4 20.3c2.9-6.8 6.8-16.5 11.5-24.3 6.8-11.2 5.3-27.6 8.1-28.8 1.9-.8 13 8.5 20.9 14.5l4.3-12.7c-6.6-6-18-14.2-29.4-19.7z"/><path id="XMLID_314_" class="st8" d="M329.4 568.1c-.7-1.4-2.9-3.6-5.9-6.3l-4.3 12.7c3.8 2.9 6.8 5.1 7.6 5 2.6-.3 5-6.9 2.6-11.4z"/></g><path id="XMLID_94_" class="st2" d="m264.9 616.4 13.3-22.3"/><path id="XMLID_96_" class="st2" d="m270.2 588-14.9 22.8"/><path id="XMLID_93_" class="st2" d="m247.6 606.2 14.8-23.2"/></g><g id="XMLID_313_"><path id="XMLID_316_" class="st3" d="M315.4 596.9c-1.4-5.6-6.8-7.4-9.9-7.4s-8.4 2.5-8.4 7.4 2.8 8.1 7.7 6.5c-1.5 3.8-7.3 20.2-9.6 26.6 1.1.6 2.2 1 3.4 1.6 2.2 1 4.5 2 6.7 3 2.2-6.3 11.3-32.8 10.1-37.7z"/></g><g id="XMLID_329_"><path id="XMLID_83_" class="st11" d="M303.6 573.1s51.4 25.2 67.2 43.3"/><path id="XMLID_85_" class="st11" d="M299.6 580.5c8.8 3.7 48.8 26.6 54.9 33.6"/><path id="XMLID_325_" class="st11" d="m321 600.3 27 15.9"/><path id="XMLID_326_" class="st11" d="m318.9 609.8 20.5 8.9"/><path id="XMLID_327_" class="st11" d="m316.9 618.3 17.2 7.6"/><path id="XMLID_328_" class="st11" d="m314 627 13.5 5.9"/></g><path id="XMLID_330_" class="st11" d="m216.9 560.9 25.1 24.9"/><path id="XMLID_331_" class="st11" d="m221 551.7 27.1 24.8"/><path id="XMLID_332_" class="st11" d="m230.5 546.7 24.5 22.2"/><path id="XMLID_333_" class="st11" d="m244.8 549.5 16.3 13.3"/><g id="XMLID_321_"><path id="XMLID_89_" class="st1" d="M335.5 618.3s3.4-11.8 12.7-9.9 14 9.3 14 20.4-12.4 22.3-17.6 22.3c-5.1 0-12.7-5.3-10.6-12.1 2.2-6.8 1.5-20.7 1.5-20.7z"/><path id="XMLID_88_" class="st2" d="m343.4 614.3 6.6-5.4"/><path id="XMLID_312_" class="st2" d="m348 617.7 10.7-2.6"/><path id="XMLID_315_" class="st2" d="m351.7 624.2 10-1.4"/><path id="XMLID_317_" class="st2" d="m351.7 631.2 10 1.7"/><path id="XMLID_318_" class="st2" d="m349.2 637.5 7.5 5.1"/><path id="XMLID_319_" class="st2" d="m343.4 642.6 4.6 6.6"/><g id="XMLID_320_"><circle id="XMLID_86_" class="st8" cx="334.1" cy="627.5" r="13.2"/><circle id="XMLID_87_" class="st8" cx="334.1" cy="627.5" r="5.3"/></g></g><g id="XMLID_346_"><path id="XMLID_349_" class="st9" d="M327.5 705.7c28.2 4.4 49.2 12.1 52.3 17.4-2.9-8.6-8.1-11.5-8.1-11.5s6.2 2.9 12.7-5.9c-6.8 3.7-36.4-3.1-57.4-6.7-20.9-3.6-49.3-8.2-55.5-16.1 0 9.5 6.2 11.3 6.2 11.3s-6.7 1.6-9.9 7.7c5.7-5.8 33.7-.3 59.7 3.8z"/><path id="XMLID_350_" class="st10" d="M327 699c20.9 3.6 50.6 10.4 57.4 6.7-18.3-4.9-28.7-8.4-58.3-12.1-29.6-3.7-40.6-6.5-54.7-10.7 6.4 7.9 34.7 12.4 55.6 16.1z"/><path id="XMLID_351_" class="st10" d="M379.8 723c-3.1-5.3-23.9-15.2-52.3-19.2-26.1-3.7-54-7.7-59.6-1.9 10.9 10.2 46 10.9 56.6 13 10.7 2.2 47.9 10 55.3 8.1z"/><path id="XMLID_352_" class="st9" d="M379.8 723c-7.4 1.9-44.6-6.9-55.2-9-10.6-2.1-45.8-1.9-56.6-12.1 0 13 11.9 11.8 11.9 11.8s-15.5 2.9-11.9 13.7c3.4-9.2 31.8-12.3 56-7.9 24.1 4.4 44.1 12.2 49.1 20.5-2.1-9-10.8-14.6-10.8-14.6s10.7 2.5 17.5-2.4z"/><path id="XMLID_353_" class="st10" d="M323.9 719.6c-24.1-4.4-52.5-1.4-56 7.9 7.6-2 29.6-6.3 54.8-2.2 25.4 4.1 35.9 10.2 50.2 14.9-4.9-8.5-24.9-16.2-49-20.6z"/></g><g id="XMLID_341_"><path id="XMLID_105_" class="st2" d="M271.5 682.9c0 9.5 6.2 11.3 6.2 11.3s-6.7 1.6-9.9 7.7c0 13 11.9 11.8 11.9 11.8s-15.5 2.9-11.9 13.7c7.6-2 29.6-6.3 54.8-2.2 25.3 4.1 35.9 10.2 50.2 14.9-2.1-9-10.8-14.6-10.8-14.6s10.8 2.3 17.6-2.5c-2.9-8.6-8.1-11.5-8.1-11.5s6.2 2.9 12.7-5.9c-18.3-4.9-28.7-8.4-58.3-12.1-29.4-3.7-40.2-6.4-54.4-10.6z"/><path id="XMLID_107_" class="st2" d="M277.8 694.2c7.2 0 86.8 11.9 94 17.3"/><path id="XMLID_108_" class="st2" d="M268 701.9C347.3 710 379.8 723 379.8 723"/><path id="XMLID_109_" class="st2" d="M279.9 713.7c12.8-1.2 72.8 7.4 82.3 11.8"/><g id="XMLID_245_"><circle id="XMLID_84_" class="st8" cx="328.2" cy="699" r="9.2"/><circle id="XMLID_104_" class="st8" cx="324.7" cy="718.2" r="9.2"/></g></g><g id="XMLID_361_"><g id="XMLID_364_"><path id="XMLID_367_" class="st10" d="M450.9 682.1c-23.3 3.1-42.1 9.2-46.9 18.4 9.9-5.1 25.4-9.8 44.9-12.1s43.7-3.9 56-3.3c-5.3-6.7-30.5-6-54-3z"/><path id="XMLID_368_" class="st10" d="M445.5 676.3c17.5-2.4 50.9-.9 59.5-8.4 0 0-22-4.4-57.2-.6-35.2 3.8-46.6 15.5-46.6 15.5 10.9 5.6 26.9-4.1 44.3-6.5z"/><path id="XMLID_369_" class="st9" d="M492.6 676s7.7.2 12.4-8.2c-8.6 7.4-42 5.9-59.5 8.4s-33.5 12.1-44.3 6.7c3.1 6.9 10.9 5.4 10.9 5.4s-5.8 3.7-8 12.2c4.8-9.2 23.5-15.3 46.9-18.4 23.3-3.1 48.7-3.7 54 3.1-2.8-8.6-12.4-9.2-12.4-9.2z"/><path id="XMLID_370_" class="st10" d="M446.8 661c27.5-3.1 49.5-4.9 56.3-8.4-16.7-1.6-25.1-.7-52 3.2s-38.4 7.5-53.9 6.7c13.6 3.8 22.1 1.7 49.6-1.5z"/><path id="XMLID_371_" class="st9" d="M505 667.9c-5.3-6.8-11.4-6.8-11.4-6.8s9.3-2.1 9.6-8.4c-6.8 3.4-28.8 5.3-56.3 8.4-27.5 3.1-36 5.3-49.5 1.6 2.4 9 11.7 9 11.7 9s-8.4 4.5-7.7 11.3c0 0 11.4-11.7 46.6-15.5 35-4 57 .4 57 .4z"/></g><g id="XMLID_359_"><path id="XMLID_127_" class="st2" d="M397.3 662.6c2.4 9 11.7 9 11.7 9s-8.4 4.5-7.7 11.3c3.1 6.9 10.9 5.4 10.9 5.4s-5.8 3.7-8 12.2c9.9-5.1 25.4-9.8 44.9-12.1s43.7-3.9 56-3.3c-2.8-8.6-12.4-9.2-12.4-9.2s7.7.2 12.4-8.2c-5.3-6.8-11.4-6.8-11.4-6.8s9.3-2.1 9.6-8.4c-16.7-1.6-25.1-.7-52 3.2-27 3.9-38.6 7.8-54 6.9z"/><path id="XMLID_128_" class="st2" d="M401.2 682.9s30.9-9.6 54.3-11.3c23.4-1.8 49.4-3.7 49.4-3.7"/></g><path id="XMLID_130_" class="st2" d="M408.9 671.6c8.1-4.4 77.1-10.5 84.6-10.5"/><path id="XMLID_129_" class="st2" d="M412.1 688.4c6.3-2.8 32-8.6 45.3-9.6 13.3-1 35.3-2.7 35.3-2.7"/></g><g id="XMLID_360_"><circle id="XMLID_126_" class="st8" cx="440.4" cy="682.1" r="10.5"/><circle id="XMLID_124_" class="st8" cx="437.3" cy="665.5" r="10.5"/></g><g id="XMLID_372_"><path id="XMLID_143_" class="st0" d="M496.3 761.4c1.2.3 41.5-4.6 70-13 1.2 22.8 4.4 45.3 4.4 45.3s-41.2-4.8-55.1-3.3c-13.9 1.5-23-4.5-23-4.5l3.7-24.5z"/><path id="XMLID_144_" class="st2" d="M505 772.3h63.2"/><g id="XMLID_366_"><path id="XMLID_132_" class="st0" d="M429.9 754.4c-3.2 4.9 4.3 22.3 7.3 24.4 3.1 2.1 40.9-2.5 43.1-8.6 2.2-6-.6-31.1-5.8-33.3-5.3-2.1-16.9-1.1-24.6 1.9-7.5 3-16.8 10.5-20 15.6z"/><path id="XMLID_142_" class="st0" d="M478.3 763.6s11.8-11.6 19.8-8.4c8 3.3 13.4 13.7 12 20.1-1.4 6.4-8.8 10.6-8.8 10.6l-25.3-4.1 2.3-18.2z"/><g id="XMLID_137_"><g id="XMLID_362_"><path id="XMLID_363_" class="st0" d="M521.4 822.7c13.5-.8 38.2-5 49.1-12.8-4.4-5.1-10.5-10.4-17.2-13.8-11.2-5.8-68.5-21.2-69.1-20.5l-9.9 6.4 16.5 50h19.9c.9-4.8 3.8-9 10.7-9.3z"/><path id="XMLID_365_" class="st8" d="M576.2 819.2c-.7-2.6-2.8-5.9-5.8-9.4-10.9 7.7-35.6 12-49.1 12.8-7 .4-9.8 4.6-10.8 9.1h13.8c16.6.1 53.8-6.1 51.9-12.5z"/></g><path id="XMLID_139_" class="st2" d="M527.1 810c9.6 5 9.6 21.1 9.6 21.1"/><path id="XMLID_140_" class="st2" d="M535.3 806.8c11.2 4.2 12.5 22.9 12.5 22.9"/><path id="XMLID_141_" class="st2" d="M545.5 803.6c11.8 4.8 16.6 23.1 16.6 23.1"/><g id="XMLID_133_"><path id="XMLID_134_" class="st3" d="M437.3 790.3c-5.1 26.7 6.7 47 6.7 47l54.2-10-14.2-47.9c-.1.1-35.1 10.9-46.7 10.9z"/><path id="XMLID_135_" class="st2" d="m453.1 839.7-7.6-31.3 32.8-9.6 10.7 35.8z"/><path id="XMLID_136_" class="st0" d="M437.3 795.6c-6.4-2.3-9.9-18-3.9-21.7 5.9-3.7 14.6-.5 26.7-3.5 12.1-3.1 15.3-10.7 21-10.1 5.7.7 11.2 15.3 5.7 21.6s-43 16-49.5 13.7z"/></g></g></g><path id="XMLID_17_" class="st3" d="M444.2 834.8c-3.8 1.9-3.7 9.6.9 11.4 4.6 1.9 77.1-10.2 80.6-12.4s-.7-11.3-5.9-11.3c-5.2.2-71.7 10.5-75.6 12.3z"/></g><g id="XMLID_416_"><path id="XMLID_429_" class="st8" d="M619.3 402.7c-4.9.4-10.6.6-14.9.6-3.3 0-5.8-.2-6.7-.6-.2-.1-.4-.2-.5-.3v17.9c.7-.2 1.3-.3 2-.3 1.2 0 2.3.3 3.3.7 4.1-.7 10.2-1.6 17.6-2.7l-.8-15.3z"/></g></g><g id="XMLID_516_"><circle id="XMLID_210_" class="st9" cx="565" cy="417.2" r="3.6"/><circle id="XMLID_214_" class="st9" cx="573.4" cy="434" r="3.6"/><circle id="XMLID_215_" class="st9" cx="565" cy="441" r="3.6"/><circle id="XMLID_455_" class="st9" cx="584.4" cy="441" r="3.6"/><circle id="XMLID_463_" class="st9" cx="590.8" cy="473.9" r="3.6"/><circle id="XMLID_464_" class="st9" cx="588.9" cy="459.9" r="3.6"/><circle id="XMLID_465_" class="st9" cx="599.6" cy="487.7" r="3.6"/><circle id="XMLID_466_" class="st9" cx="559.5" cy="457.7" r="3.6"/><circle id="XMLID_467_" class="st9" cx="551.3" cy="474.9" r="3.6"/><circle id="XMLID_468_" class="st9" cx="540" cy="471" r="3.6"/><circle id="XMLID_469_" class="st9" cx="532.7" cy="455.4" r="3.6"/><circle id="XMLID_470_" class="st9" cx="540.7" cy="445.3" r="3.6"/><circle id="XMLID_471_" class="st9" cx="550.6" cy="447.1" r="3.6"/><circle id="XMLID_472_" class="st9" cx="551.4" cy="430.5" r="3.6"/><circle id="XMLID_473_" class="st9" cx="521.2" cy="471" r="3.6"/><circle id="XMLID_474_" class="st9" cx="500.7" cy="472.6" r="3.6"/><circle id="XMLID_475_" class="st9" cx="496" cy="491.3" r="3.6"/><circle id="XMLID_476_" class="st9" cx="510.7" cy="494.9" r="3.6"/><circle id="XMLID_477_" class="st9" cx="524.8" cy="489.7" r="3.6"/><circle id="XMLID_478_" class="st9" cx="452.6" cy="451.7" r="3.6"/><circle id="XMLID_479_" class="st9" cx="443.2" cy="479.3" r="3.6"/><circle id="XMLID_480_" class="st9" cx="322.9" cy="511.1" r="3.6"/><circle id="XMLID_481_" class="st9" cx="306.7" cy="511.1" r="3.6"/><circle id="XMLID_482_" class="st9" cx="318.2" cy="496.6" r="3.6"/><circle id="XMLID_483_" class="st9" cx="297.6" cy="498.6" r="3.6"/><circle id="XMLID_484_" class="st9" cx="292.3" cy="514.7" r="3.6"/><circle id="XMLID_485_" class="st9" cx="258.6" cy="514.7" r="3.6"/><circle id="XMLID_486_" class="st9" cx="252.3" cy="531.7" r="3.6"/><circle id="XMLID_487_" class="st9" cx="242.1" cy="513.3" r="3.6"/><circle id="XMLID_488_" class="st9" cx="226.5" cy="500.1" r="3.6"/><circle id="XMLID_489_" class="st9" cx="211.4" cy="479.3" r="3.6"/><circle id="XMLID_490_" class="st9" cx="204.2" cy="463.5" r="3.6"/><circle id="XMLID_491_" class="st9" cx="281.4" cy="637.5" r="3.6"/><circle id="XMLID_492_" class="st9" cx="295.3" cy="638.3" r="3.6"/><path id="XMLID_493_" class="st9" d="M294.5 655c0 2-2.5 3.6-4.6 3.6-2 0-2.7-1.6-2.7-3.6s1.6-3.6 3.6-3.6c2.1 0 3.7 1.6 3.7 3.6z"/><circle id="XMLID_494_" class="st9" cx="308.4" cy="665.5" r="3.6"/><circle id="XMLID_495_" class="st9" cx="301.8" cy="677.5" r="3.6"/><circle id="XMLID_496_" class="st9" cx="316.9" cy="652" r="3.6"/><circle id="XMLID_497_" class="st9" cx="318.9" cy="679.9" r="3.6"/><circle id="XMLID_498_" class="st9" cx="332.1" cy="675.4" r="3.6"/><circle id="XMLID_499_" class="st9" cx="339.4" cy="658.3" r="3.6"/><circle id="XMLID_500_" class="st9" cx="349.2" cy="671.6" r="3.6"/><circle id="XMLID_501_" class="st9" cx="343" cy="684.6" r="3.6"/><circle id="XMLID_502_" class="st9" cx="303.6" cy="732.4" r="3.6"/><circle id="XMLID_503_" class="st9" cx="300" cy="748" r="3.6"/><circle id="XMLID_504_" class="st9" cx="315" cy="740" r="3.6"/><circle id="XMLID_505_" class="st9" cx="328.9" cy="754.7" r="3.6"/><circle id="XMLID_506_" class="st9" cx="332.5" cy="737.4" r="3.6"/><circle id="XMLID_507_" class="st9" cx="444.1" cy="728.8" r="3.6"/><circle id="XMLID_508_" class="st9" cx="429.9" cy="721" r="3.6"/><circle id="XMLID_509_" class="st9" cx="445.5" cy="708.2" r="3.6"/><circle id="XMLID_510_" class="st9" cx="458.8" cy="712.5" r="3.6"/><circle id="XMLID_511_" class="st9" cx="433.5" cy="700.1" r="3.6"/><circle id="XMLID_512_" class="st9" cx="439.5" cy="642.7" r="3.6"/><circle id="XMLID_513_" class="st9" cx="423.2" cy="646" r="3.6"/><circle id="XMLID_514_" class="st9" cx="433.5" cy="627" r="3.6"/><circle id="XMLID_515_" class="st9" cx="415.5" cy="619.9" r="3.6"/></g><path id="XMLID_517_" class="st12" d="m214.4 142.2 6.9 21.5"/><path id="XMLID_518_" class="st12" d="m225.8 140.4 4.1 21"/><path id="XMLID_519_" class="st12" d="m250.3 138.9 2 20.2"/><path id="XMLID_520_" class="st12" d="m260.8 137 .9 22.1"/><path id="XMLID_521_" class="st2" d="M285.7 137.5s-13.3-2.1-42.8 0-41.2 7.4-42.1 7.7"/><g id="XMLID_562_"><path id="XMLID_524_" class="st13" d="m240.1 536.2 4.3-6.3"/><path id="XMLID_531_" class="st13" d="m232.2 520.1-4.5 6.2"/><path id="XMLID_523_" class="st13" d="m218.4 516 4.4-5.4"/><path id="XMLID_526_" class="st13" d="m212.2 500.6-4.6 5.6"/><path id="XMLID_527_" class="st13" d="m196.1 495 6-4.3"/><path id="XMLID_528_" class="st13" d="m195.1 480.4-6.9 3.8"/><path id="XMLID_529_" class="st13" d="m184.9 469.6 6.5-1"/><path id="XMLID_530_" class="st13" d="m191.6 457.9-6.7-1"/><path id="XMLID_522_" class="st13" d="m188.1 445.8 7 3.4"/><path id="XMLID_533_" class="st13" d="m267.2 516-4.4 4.7"/><path id="XMLID_534_" class="st13" d="m255 508.3 7.1-4"/><path id="XMLID_532_" class="st13" d="m250.9 497.5-4.3 5"/><path id="XMLID_536_" class="st13" d="m270.1 508.1 5.3.2"/><path id="XMLID_537_" class="st13" d="m275.9 495.5-5.7-.8"/><path id="XMLID_535_" class="st13" d="m270.2 482.5 7.2.5"/><path id="XMLID_541_" class="st13" d="m289.8 675.9 5.5-3"/><path id="XMLID_539_" class="st13" d="m290.5 661-7.5 2.5"/><path id="XMLID_538_" class="st13" d="m276.7 651.2 7.8-3.9"/><path id="XMLID_525_" class="st13" d="m275.9 631.6-5.5 5.3"/><path id="XMLID_543_" class="st13" d="m293.6 746.3-4.6-.7"/><path id="XMLID_540_" class="st13" d="M290.9 735.4h4.5"/><path id="XMLID_546_" class="st13" d="m349 739.8-7-2.5"/><path id="XMLID_542_" class="st13" d="m339.2 748.1 6 1.9"/><path id="XMLID_544_" class="st13" d="m341 760.9-4.3-1.6"/><path id="XMLID_548_" class="st13" d="m355.9 662.9-6.7-1"/><path id="XMLID_549_" class="st13" d="m350.8 679.1 5.5-.4"/><path id="XMLID_547_" class="st13" d="m356.6 690.6-6.5-.6"/><path id="XMLID_551_" class="st13" d="m430 741.9-6.2 2.5"/><path id="XMLID_552_" class="st13" d="m421.4 731.7 6.6-1.5"/><path id="XMLID_553_" class="st13" d="m423.5 716.4-4.5 2.3"/><path id="XMLID_545_" class="st13" d="m416.8 707.2 4.9-1.6"/><path id="XMLID_555_" class="st13" d="m464.3 695.5 6.6-1.3"/><path id="XMLID_556_" class="st13" d="m472.8 705.7-5.7.7"/><path id="XMLID_557_" class="st13" d="m470.3 717.7 6.5-1.2"/><path id="XMLID_550_" class="st13" d="m476.8 727.4-6.7.9"/><path id="XMLID_559_" class="st13" d="m406.8 622.5 5.4 3.4"/><path id="XMLID_560_" class="st13" d="M415.9 635.9h-6.3"/><path id="XMLID_558_" class="st13" d="m410.6 649.2 4.9-.8"/><path id="XMLID_563_" class="st13" d="m467.8 645-7.7 1.4"/><path id="XMLID_561_" class="st13" d="m457.2 634.8 7.5-2.1"/><path id="XMLID_554_" class="st13" d="m462.5 622.2-7.5 1.3"/><path id="XMLID_564_" class="st13" d="m437.7 489.5 1.9-3.5"/><path id="XMLID_565_" class="st13" d="m459.8 434.9-1.6 7.4"/><path id="XMLID_567_" class="st13" d="m568.2 465.6-2.7-3.7"/><path id="XMLID_568_" class="st13" d="m556.9 469 5.4 5.9"/><path id="XMLID_569_" class="st13" d="m552.7 484.2-7.2-2.1"/><path id="XMLID_570_" class="st13" d="m537.1 489.7 4.4 4.1"/><path id="XMLID_571_" class="st13" d="m529.7 503.1-3.7-4.4"/><path id="XMLID_572_" class="st13" d="m517.6 503.8 2.3 5.5"/><path id="XMLID_573_" class="st13" d="m508.4 511.1-1-7.1"/><path id="XMLID_574_" class="st13" d="m497.5 504.7-1.5 5.5"/><path id="XMLID_566_" class="st13" d="m485.5 507.1 1.3-5.6"/><path id="XMLID_576_" class="st13" d="m552.1 414.5 3.8 4.7"/><path id="XMLID_577_" class="st13" d="m546.8 423.9-2.7-2.3"/><path id="XMLID_578_" class="st13" d="m536.9 428.1 4.8 4.2"/><path id="XMLID_579_" class="st13" d="m535.1 438.8-3.8-3.1"/><path id="XMLID_580_" class="st13" d="m524.8 444.7 3.9 2.9"/><path id="XMLID_581_" class="st13" d="m519.9 458.6-5-6.1"/><path id="XMLID_575_" class="st13" d="m508.1 458.8-.7 6.8"/></g></g></svg>