<svg version="1.1" id="Calque_1" xmlns="http://www.w3.org/2000/svg" x="0" y="0" viewBox="0 0 900 900" style="enable-background:new 0 0 900 900" xml:space="preserve"><style>.st0{fill:none;stroke:#000;stroke-width:4.5597;stroke-linecap:round;stroke-linejoin:round;stroke-miterlimit:10}.st1{fill:#ffce00}.st1,.st2,.st3,.st4,.st5,.st6,.st7,.st9{stroke:#000;stroke-width:4.5597;stroke-linecap:round;stroke-linejoin:round;stroke-miterlimit:10}.st3,.st4,.st5,.st6,.st7,.st9{fill:#ff7300}.st4,.st5,.st6,.st7,.st9{fill:#0f6800}.st5,.st6,.st7,.st9{fill:red}.st6,.st7,.st9{fill:#fff}.st7,.st9{fill:#0a3a00}.st9{fill:#353535}.st10{fill:none}.st11{fill:#fff}.st12{fill:red}</style><path class="st0" d="M261.1 530.4c0-1.3 1.3-4.6-2-6.5"/><path class="st1" d="M277.4 548.7c-.7-4-4.6-1.3-4.6-4 0-2.6 1.7-5.2-2.3-7.8 26.4-27.5 105-159.1 105-159.1l11.2-17.9c-10-1.6-19.2-1.8-23.6 1.6-1.3 5.2-5.2 5.2-7.2 7.8-2 2.6-.3 3.6-2.3 7.5s-3 1.7-4.6 4.9c-1.7 3.3.3 2.6-1 6.5-1.3 4-5.2 5.2-6.5 7.8s-.7 5.2-2 7.8c-1.3 2.6-9.2 5.2-9.8 7.8-.7 2.6 1 3.6.3 6.2s-2.3 2.3-4.3 3c-2 .7-.7 6.5-2 9.2-1.3 2.6-4.3 1.7-6.2 4.9-2 3.3-2.3 9.5-6.2 15.4-4 5.9-21 28.8-22.3 31.5-1.3 2.6-5.2 3.3-8.5 5.2-3.3 2-.7 6.5-3.3 9.2-2.6 2.6-4 2-5.9 4-2 2-3 7.8-4.3 9.2-1.3 1.3-1.7-.3-3.6 2.3-2 2.6-.7 7.5-4.6 12.1-.7-2.6-2-5.9-2.6-7.8-.7-2 1.3-2 2-5.9.7-4-2.6-1.3-4-5.2-1.3-4 .7-6.5-.7-10.5-1.3-4-1.7-1.3-4.3-3.3-2.6-2 .7-11.5-.7-13.5-1.3-2-3.6 1-6.2-.3s-4.6-6.5-7.8-5.9c-3.3.7 0 8.5-.7 11.8-.7 3.3-4 3.3-4 5.9 0 2.6 4 4.6 4.6 7.2.7 2.6-4.6 3.6-5.2 5.5s2.6 6.8 1.3 9.5c-1.3 2.6-4.9 1-6.2 4.3-1.3 3.3.3 6.5-.3 8.5-.7 2-3.6 3-5.5 4.3-2 1.3.7 6.5-.7 8.5-1.3 2-4.3 4-5.5 5.2s1 6.5 1 9.8-2.3 7.8-1 10.5c1.3 2.6 2.6 7.8 7.2 10.5 4.6 2.6 1 7.8 6.2 10.5 5.2 2.6 6.8 1.7 10.8 2.3 4 .7 3.3 5.5 8.5 5.5s5.2-3.6 8.5-3.6 11.1-.3 12.5-5.5c1.3-5.2 7.2-4 6.5-11.1 2-4 5.9-5.2 5.9-11.8l-2.6-4.6c.4-.1.4-2 1.6-5.9z"/><path class="st2" d="m383.5 390.8 7.2-11.8 31.5-9.8s-18.5-6.7-35.3-9.4l-11.3 17.9S297 509.3 270.5 536.8c4 2.6 2.3 5.2 2.3 7.8 0 2.6 4 0 4.6 4-1.3 4-1.3 5.9-1.3 5.9l2.6 4.6c7.2-7.8 21-26.5 23-27.2 2-.7 5.9 1.7 5.2 5.5-.7 4-13.1 23-13.8 29.5s2.6 16.3 11.8 18.3c9.2 2 18-6.2 20-12.8 2-6.5 1.7-12.8-5.5-16.3-4-2-9.2 1.7-9.2 1.7s18.3-24.2 15-32.1c-3.3-7.8-9.2-12.5-9.2-12.5s40.6-80.6 54.6-95.3c1.7 4.9 8.2 7.8 12.8 4.6 4.6-3.3 11.5-12.1 9.5-20.6-1.8-8.4-9.4-11.1-9.4-11.1z"/><circle class="st1" cx="324.3" cy="401.6" r="11.5"/><circle class="st1" cx="304.3" cy="436.1" r="11.5"/><path class="st3" d="M277.4 548.7c-.7-4-4.6-1.3-4.6-4 0-2.6 1.7-5.2-2.3-7.8-4-2.6-5.5-6.5-9.5-6.5h-1.7 1.7c0-1.3 1.3-4.6-2-6.5-.7-2.6-2-5.9-2.6-7.8-.7-2 1.3-2 2-5.9.7-4-2.6-1.3-4-5.2-1.3-4 .7-6.5-.7-10.5-1.3-4-1.7-1.3-4.3-3.3-2.6-2 .7-11.5-.7-13.5-1.3-2-3.6 1-6.2-.3s-4.6-6.5-7.8-5.9c-3.3.7 0 8.5-.7 11.8-.7 3.3-4 3.3-4 5.9 0 2.6 4 4.6 4.6 7.2.7 2.6-4.6 3.6-5.2 5.5-.7 2 2.6 6.8 1.3 9.5-1.3 2.6-4.9 1-6.2 4.3-1.3 3.3.3 6.5-.3 8.5-.7 2-3.6 3-5.5 4.3-2 1.3.7 6.5-.7 8.5-1.3 2-4.3 4-5.5 5.2-1.3 1.3 1 6.5 1 9.8s-2.3 7.8-1 10.5c1.3 2.6 2.6 7.8 7.2 10.5 4.6 2.6 1 7.8 6.2 10.5 5.2 2.6 6.8 1.7 10.8 2.3 4 .7 3.3 5.5 8.5 5.5s5.2-3.6 8.5-3.6 11.1-.3 12.5-5.5c1.3-5.2 7.2-4 6.5-11.1 2-4 5.9-5.2 5.9-11.8l-2.6-4.6c.2-.2.2-2.1 1.4-6z"/><path class="st0" d="M301.7 532c-2 .7-15.7 19.3-23 27.2l-2.6-4.6s0-2 1.3-5.9c-.7-4-4.6-1.3-4.6-4 0-2.6 1.7-5.2-2.3-7.8-4-2.6-5.5-6.5-9.5-6.5s-4.9 3-6.8 3c-2 0-1.7-1.7-4.9-1s-3.3 6.2-5.2 7.5-4.3-1-5.5 2.3c-1.3 3.3-.3 6.5 1.7 8.5s5.2 5.2 10.5 4.6"/><path class="st4" d="m529.5 724.2 15 22.3s29.5 39.3 36.3 51.8c12.8 5.9 37 2 37 2l-23.6-61.6-.7-28.2-64 13.7zM515.5 694.7s-1.7-32.8 4.3-51.8c8.5-.7 71.4 11.8 71.4 11.8l-12.5 30.9-63.2 9.1z"/><path class="st5" d="M531.5 788.3v21l48.5 1 1-13.1z"/><path class="st4" d="M531.5 809.3s-38.6 11.1-44.5 11.8c-5.9.7-11.1 10.5-11.1 10.5s7.2 11.8 42.6 9.8c35.3-2 49.8 3.3 49.8 3.3l30.1-19.6-5.2-20.3-61.7 4.5z"/><path class="st6" d="M590.5 823c1.4-1.8 20.4-.8 32 0l-1.2-9.8-39-2.6-3 26.2 10.2-.5c-.2-4.8-.3-11.6 1-13.3z"/><path class="st6" d="M622.4 823c-11.5-.8-30.6-1.8-32 0-1.2 1.7-1.1 8.4-1 13.3l34.3-1.5-1.3-11.8zM519.7 838.1l-43.8-6.5s-5.9 4-9.8 9.8c10.5 10.5 51.8 8.5 51.8 8.5l8.5-5.9-6.7-5.9z"/><path class="st5" d="M580 812.2c-7.2-4.3-6.5-14.4 1-15 7.5-.7 39-.3 43.5 2.3s6.5 15-1.3 16.3c-7.9 1.3-36.1.7-43.2-3.6z"/><path class="st6" d="m535 834.8 6.7 14.5 7.4-.2-7.2-14.4c-2.4 0-4.7 0-6.9.1zM518.4 835.1l-.7 14.7 23.9-.5-6.7-14.5c-9.9.2-16.5.3-16.5.3zM567.9 834.3l7.3 14.3 7.1-.2-7.8-14.2c-2.2 0-4.4 0-6.6.1z"/><path class="st6" d="m541.9 834.7 7.2 14.4 26.1-.6-7.3-14.3c-9.1.1-18.2.3-26 .5zM574.5 834.2l7.8 14.2 23.6-.5-6.5-13.8c-7.5-.1-16.1-.1-24.9.1zM605.4 834h-6l6.5 13.8 7.4-.2-7.9-13.6zM629.7 847.3s-2-10.5-5.9-12.5c-1-.5-8.2-.7-18.4-.8l7.9 13.6 16.4-.3z"/><path class="st0" d="m497.5 849.5 2.6-14M507.9 849.2l.7-12.4"/><path class="st4" d="M253.9 746.4s-46.5 13.1-53 15.7c-6.5 2.6-13.1 16.3-13.1 16.3s2.6 14.4 30.1 9.2c14.4 4 73.3 12.5 73.3 12.5l19.6-44.5-36-11.8-20.9 2.6z"/><path class="st6" d="M216.6 799.5c-9.2 5.2-42.6-2.6-41.3-5.9 1.3-3.3 9.2-12.5 12.5-15 9.2 7.2 30.1 9.2 30.1 9.2l25.5 11.8c0-.1-17.7-5.4-26.8-.1zM337.2 779.6l-38.2-6.4-8 19.4 50.6 2.2z"/><path class="st6" d="m337.2 779.6-3.4-11.6-40.3-10.5-10.8 34.7 8.3.4 8-19.4zM252.4 787.3l6.1 16.6c8.2.6 16.9 1.3 25.6 1.9l-8-17c-8.1-.7-16.2-1.1-23.7-1.5z"/><path class="st6" d="m244 787 6.5 16.3c2.6.2 5.2.5 8 .6l-6.1-16.6c-2.9-.1-5.7-.2-8.4-.3z"/><path class="st6" d="M217.9 787.7c-.7 2-.7 9.8-1.3 11.8-.2.7 14.4 2.1 34 3.8l-6.5-16.3c-12.6-.5-22.4-.4-26.2.7zM310 791.4l6.4 16.4c3.8.2 7.3.4 10.6.5l-6.8-16c-3.2-.3-6.6-.6-10.2-.9zM341.6 794.8c-.9-.4-9.3-1.4-21.4-2.5l6.8 16c11.1.5 18.4.7 18.5.2.7-1.8-.6-12.3-3.9-13.7z"/><path class="st6" d="m285.2 789.4 8.7 17c8 .5 15.7 1 22.6 1.4l-6.4-16.4c-7.7-.7-16.2-1.4-24.9-2z"/><path class="st6" d="m276.2 788.8 8 17c3.3.2 6.5.5 9.8.7l-8.7-17c-3.1-.4-6.1-.6-9.1-.7z"/><path class="st4" d="m339 751 58.9-39.3 19.6-19-56.3-30.8s-41.3 51.8-69.4 77.3C303 747.7 339 751 339 751z"/><path class="st0" d="m185.1 796.2 7.5-14.1M194.3 799.5l5.6-15.1M205.4 800.8l4-13.8"/><path class="st5" d="m284 752.3-51.8-.6.7-19 59 6.5z"/><path class="st5" d="M289.2 737.2c-5.2 1.3-11.5 12.1-8.2 17.3 3.3 5.2 50.1 18.7 54 17.3 4-1.3 9.8-16.3 4-21-5.9-4.4-44.5-14.9-49.8-13.6z"/><path class="st4" d="m406.4 581.4-30.8 66.2 58.3 36.6 28.2.7 22.3-64.2-10.5-55z"/><circle class="st1" cx="343.3" cy="674.1" r="12.8"/><circle class="st1" cx="404.5" cy="713" r="12.8"/><circle class="st1" cx="533.8" cy="742.9" r="12.8"/><circle class="st1" cx="598.3" cy="728.7" r="12.8"/><path class="st1" d="m341 657.4 24.2-28.8 11.1-15.1 11.8 25.5 64.8 35.4-17 40zM504.7 694.1l10.5 39.3 83.8-17.1-8.5-34.7z"/><path class="st0" d="m475.5 844.3 4.6-10.5M485.7 848l3.9-13.2"/><path class="st2" d="m346.2 332.2-28.8-8.5s-4 12.6-9.8 26.1l34.4 7.3c2.2-15 4.2-24.9 4.2-24.9z"/><path class="st7" d="M307.6 349.8c-2.7 6.2-5.9 12.7-9.2 18.1 0 0 4.6 6.5 40.6 11.1 1-8.1 2.1-15.5 3-22l-34.4-7.2z"/><path class="st0" d="m305 371.2 4.5-12.4M313.5 373.8l3.2-12.4M322.6 374.5l2-11.2M329.8 377.8l2-11.8"/><path class="st4" d="M599 570.3c-.7-2-22.3-21-24.9-57-13.1-32.1-56.3-18.3-56.3-18.3l-33.4 48.5s24.9 42.6 25.5 44.5c.7 2 70.1 8.5 70.1 8.5l19-26.2zM419.9 421.3c-7.8.7-80.9 35-86.1 35.7-3.2.4-42.7-17.8-73-33.5l-15 33.4c7.9 4.7 16.3 9.8 24.7 15 28.1 17.6 54.9 36.8 58.1 37.2 6.5.7 78.6-27.8 78.6-27.8l23-21.6 7.2-37.3c-.2-.1-9.7-1.8-17.5-1.1z"/><path class="st6" d="M449 666.6s-54.3 145.4-56.6 163c15.4 7.2 68.4 15 68.4 15s40-168.9 55-201.6c15-32.8-26.2-34.7-26.2-34.7l-18.3-5.2-22.3 63.5z"/><path class="st6" d="m463.4 655.4-55.6 163.7s12.5 7.8 40 9.2c9.2-47.8 58.9-191.9 58.9-191.9"/><path class="st3" d="M521 604.3c11.1 6.5 75.6 3 89.1 2.1l.9-38.1s-37 11.5-63.2 8.8c-26.2-2.6-34.7-14.1-34.7-14.1l-11.6 12.4c3.6 8.5 10.7 23.8 19.5 28.9z"/><path class="st6" d="m491.6 586.1-15.1 16.2s13.1 33.4 34 41.9c21 8.5 80.6 10.5 80.6 10.5l10-23c-16.9-.2-77.2-1.9-90.1-11.4-10.4-7.5-16.4-24.2-19.4-34.2z"/><path class="st5" d="M610.2 606.4c-13.6.8-78 4.3-89.1-2.1-8.8-5.1-16-20.4-19.4-28.9l-10 10.7c2.9 10 9 26.7 19.2 34.2 12.9 9.6 73.2 11.2 90.1 11.4l9-20.9.2-4.4z"/><path class="st0" d="m490.2 625.3 1.3-11.8M498.4 635.1l1.3-12.4M510.5 644.3l.7-15.1M521.7 647.6v-13.1M534.2 649.5l-.7-11.8M545.9 652.1l-.6-12.4M555.7 652.8l-.6-10.5M564.9 653.4l-1.6-11.8M574.7 654.1l-2.6-10.5M583.9 654.8l-3.3-12.5M592.4 649.5l-1.9-7.2"/><path class="st3" d="M441.8 407.3s-57 111.9-60.9 133.6c-4 21.6 18.3 62.2 49.1 72 30.8 9.8 60.9-12.5 74.6-28.8 13.8-16.3 28.1-51.1 32.1-60.9 4-9.8 10.5-68.8 10.5-68.8l-105.4-47.1z"/><path class="st6" d="m476.5 433.1-19.6 76.3 19.6 15 32.7-42.2 9.5-44.2z"/><path class="st5" d="M430 510.7s21.6-62.8 30.8-74c9.2-11.1 21.6 11.8 21.6 11.8l-25.5 60.9 23.6 9.2s24.2-55.6 28.8-62.8c4.6-7.2 20.3 5.2 20.3 5.2L508 540.3l-16.3 11.8-9.8 30.1s2 49.1 2 91c-15 2-21-7.8-21-7.8s-6.5 9.2-21 7.8c4.6-27.5 15-76.6 15-76.6L420.2 584s-13.1 26.2-38.6 68.1c-13.8-8.5-11.1-23-11.1-23s-17.7 9.8-23.6-.7c9.8-8.5 52.4-60.3 57-72.7 13.7-25.3 26.1-45 26.1-45z"/><path class="st0" d="M462.7 665.3c5.9-5.2 5.2-16.3 5.2-16.3M380.3 620s-5.9 6.5-9.8 9.2"/><circle class="st1" cx="444.1" cy="435.8" r="11.5"/><circle class="st1" cx="475.9" cy="462.2" r="11.5"/><circle class="st1" cx="509.2" cy="470.8" r="11.5"/><path class="st6" d="M98 559.2c0 3.3 6.5 7.2 9.2 4.6 0 4 8.5 9.8 13.1 8.5 0 4 9.8 8.5 14.4 5.9 4 4 11.8 5.9 15 4 1.6-.9 3.6-9.3 5.8-19.5l-49.9-22.5c-4.4 10.3-7.6 17.8-7.6 19z"/><path class="st3" d="M164.1 260.6c-4-4.6-13.8-2.6-16.3 2.6-4.6-2-9.2 0-12.5 2.6-5.2-3.3-10.5 0-11.1 2.6-2-3.3-11.1-3.3-13.1 4-.8 2.7 2 16 5.7 31.6l48.9-11.4c-.8-18.3-1.4-30.6-1.6-32z"/><path class="st0" d="m118.7 540.2-11.5 23.5M130.1 544l-9.8 28.2M144.5 550.7l-9.8 27.5M124.2 268.4l2.6 22.3M135.3 265.8l3.3 22.9M147.8 263.2l3.9 20.9"/><path d="M174 498.2s-5.5-140.7-8.4-205.7l-48.9 11.4c6.2 26.4 15.3 59.4 15.3 59.4l-4 34.7 7.2 34.7s.7 18.3-4 39.3c-3 14.1-17 46.8-25.8 68l49.9 22.5c2.3-10.9 4.6-23.8 6.7-31.6 4.1-15 12-32.7 12-32.7z" style="fill:#662900;stroke:#000;stroke-width:4.5597;stroke-linecap:round;stroke-linejoin:round;stroke-miterlimit:10"/><path class="st5" d="M246.7 237.6c-10.5-10.5-17.7 7.8-21.6 4.6-2-2 5.2-26.2 2.6-30.1-2.6-4-12.5-4.6-15.7-2-1.7 1.4-5.9 26.7-10 59.7l21.8 5.1c5.9 4 15 3 22.3-4 4.1-3.9 11.1-22.8.6-33.3z"/><path class="st6" d="M192.9 367.3c-3.3 64.1-4.3 151.6-2.3 156.2 2 4.6 10.5 4.3 11.8-.3 1.3-4.6 6.2-157.2 6.2-157.2s11.1-80.6 15-91l-21.8-5.1c-3.6 30.2-7.3 66.8-8.9 97.4z"/><path class="st9" d="M159 299.8c-.6 18.7-.8 40.3-.1 64.9 3.3 117.9 19.6 146.7 19.6 146.7s16.3-57 21.6-144.7c1.4-23.3-.1-46.1-2.9-67l-38.2.1z"/><path class="st2" d="M168.1 295.2s1.3 149.3 11.1 184.7c13.8-41.3 7.8-183.4 7.8-183.4l-18.9-1.3z"/><path class="st0" d="M223.7 274.9c-2.6-4-3.3-11.8 6.5-11.8"/><path class="st3" d="M226.1 402c-1.3-7.2-4.9-60.3-4.9-60.3s-2.6-27.5-8.5-29.5-10.2-.3-12.1 6.8c-2 7.2-1 29.8-1 29.8s-2.6 39.3 1.3 57.6c6.5 5.2 4 19 7.2 26.2 1.2 2.7 17.6 12.2 37.8 24.2l15-33.4c-19-9.8-34.4-18.7-34.8-21.4z"/><path class="st6" d="M212.3 299.5c-.3 2.3-1.7 39 1 41.6 2.6 2.6 8.5 2.6 9.8-1.3 1.3-3.9-2.6-41.9-2.6-41.9s-7.9-.7-8.2 1.6z"/><path class="st3" d="M132.1 358.8c-8.5 4.6-12.5 41.9-7.8 61.6 2 8.5 11.1 12.5 11.1 12.5s.7-17.7 2.6-21c1.4-2.4 34.8-1.7 53.3-2.4l-1.4-59.5c-17.3 1-51.2 5.2-57.8 8.8z"/><path class="st6" d="M201.5 396.1c3.3-2.6 5.2-11.1 0-13.8 4.6-2.6 4-13.8.7-15.7 2.6-4 2.6-15.4-2.6-16.7-1.1-.3-4.7-.2-9.7.1l1.4 59.5c6.8-.2 11.6-.7 12.2-1.6 1.9-3.3 2.6-11.1-2-11.8z"/><path class="st0" d="m177.9 367.3 24.2-.6M179.3 383.7l22.2-1.4M177.9 398.1l23.6-2"/><path class="st5" d="M170.7 199s-9.4 29.9-11.7 100.8l38.3-.2C189.4 242 170.7 199 170.7 199z"/><path class="st6" d="m103.9 671.1-16.4 43.3 173.6 7.1-5.9-48.4z"/><path class="st0" d="m116.3 667.8-13.7 36.7 142.8 5.2-1.3-37.9z"/><path class="st6" d="m77 586 5.2 20.3 123.7 7.2 63.5-2 7.8-17h-13.1c-4-5.9-11.1-3.3-15 0-7.8-8.5-17-3.3-20.3 0-4.6-5.9-12.5-6.5-17.7-2-5.9-5.9-14.4-4.6-17.7 0-4.6-5.9-14.4-5.2-18.3-.7-5.2-4.6-14.4-4.6-17 .7-4-3.3-9.2-2-15 1.3-4-8.5-15-6.5-19-2.6-3.3-7.8-10.5-7.2-17-4-2.6-5.9-11.8-9.2-16.7-1.7L77 586z"/><path class="st0" d="M107.2 587.3c0 4-4 8.5-9.2 6.5M124.2 591.2c1.3 2-2.3 9.8-7.5 7.8M143.2 593.8c.7 5.9-4.6 8.5-10.5 3.3M158.3 592.5c4 5.9-.7 12.5-6.5 7.2M175.3 591.8c4 5.9-3.3 13.1-9.2 7.8M193.6 592.5c4 5.9-4.6 12.5-10.5 7.2M211.3 592.5c4 5.9-2 13.1-7.8 7.8M229 594.5c4 5.9-2.6 11.8-8.5 6.5M249.3 594.5c4 5.9-4 10.5-9.8 5.2M264.4 594.5c4 5.9-.7 12.5-6.5 7.2"/><path class="st6" d="m84.9 610.8-1.3 7.2s2 53.7 4 55c2 1.3 177.4 6.5 179.4 3.3 2-3.3 2.6-55.6 2.6-55.6l-101.5-7.2-83.2-2.7z"/><path class="st0" d="M93.5 613.5s2.6 43.8 4 47.1c1.3 3.3 156.5 9.2 159.1 5.9 2.6-3.3 1.3-48.5 1.3-48.5"/><path class="st6" d="M83.7 618.1c2.6.7 182 5.2 186 5.2s4.6-10.5 0-11.8-184-6.5-187.3-5.2c-3.4 1.3-1.4 11.2 1.3 11.8z"/><path class="st5" d="M493.7 528.8c-8.3-14.9-24.2-25-42.4-25-6.1 0-11.9 1.1-17.3 3.2l18.9 46.9 40.8-25.1z"/><path class="st6" d="M452.9 553.9 434 507c-18.2 7-31.2 24.6-31.2 45.3 0 26.8 21.7 48.5 48.5 48.5s48.5-21.7 48.5-48.5c0-8.5-2.2-16.5-6.1-23.5l-40.8 25.1z"/><circle class="st1" cx="451.3" cy="553.8" r="30.5"/><circle class="st4" cx="451.3" cy="553.8" r="19.6"/><path class="st4" d="M761.3 404s9.8-66.1 17-70.8c7.2-4.6 42.6-.7 44.5 9.2 2 9.8-29.5 98.9-29.5 98.9l-34.7-5.2 2.7-32.1z"/><path class="st5" d="M769.5 434.1s21.6-82.8 23.9-84.8 11.1-1 11.8 3.6-24.9 80.6-24.9 80.6l-10.8.6z"/><path class="st0" d="M754.8 561.1s-3.3 60.3-2.6 68.8 16.3 8.5 17.7-.7c1.3-9.2-2-67.4-2-67.4"/><path class="st6" d="M714.2 591.2c-.7 11.8-13.5 30.5-14.1 37.6-.7 7.2 12.1 10.2 17.3 5.5 5.2-4.6 15-24.9 15-24.9v-22.3c.1.2-17.5-7.6-18.2 4.1zM790.1 596.5s5.9 44.5 12.5 50.4c6.5 5.9 16 1.3 12.8-7.8-3.3-9.2-5.5-41.9-5.5-41.9l-19.8-.7z"/><path class="st0" d="M801.3 589.9c0 30.8 5.9 45.2 5.9 45.2M722 585.3c0 13.1-11.1 41.9-11.1 41.9"/><path class="st6" d="M737.1 571.6c-4 15-14.4 61.6-10.5 74.6 7.2 22.3 63.5 22.3 69.4 1.3 2.6-11.1-7.8-76.6-7.8-76.6s-47.2-14.4-51.1.7z"/><path class="st0" d="M744.3 560.5s-6.8 64.1-3 79.3c4 15 34.3 16.3 37.6-2.6 3.3-19-.7-74-.7-74"/><circle class="st6" cx="722" cy="585.3" r="13.1"/><path class="st6" d="M814.4 589.9c0 7.2-5.9 13.1-13.1 13.1-4.6 0-13.1-5.9-13.1-13.1 0-7.2 5.9-13.1 13.1-13.1 7.2 0 13.1 5.9 13.1 13.1z"/><path class="st0" d="m714.2 593.2 1-9.8M722 596.2v-10.9M730.9 594.2l-3-9.9M794.1 598.5l1.3-10.2M802.3 601l-1.3-11.7M811.1 597.8l-2.6-9.8"/><path class="st6" d="M722 676.4c-.7 12.5-19.3 56.6-18 60.6 1.3 4 12.5 5.9 16.3-.7 4-6.5 14.1-42.3 15.4-53.3 1.4-11.2-13-19.1-13.7-6.6z"/><path class="st6" d="M747.6 678.3s4 53.7 4.6 60.3c.7 6.5-11.1 8.5-13.8.7-2.6-7.8-4.3-56.3-4.3-56.3l13.5-4.7z"/><path class="st0" d="M744.3 728.7c-2.6-21.6-4-50.4-4-50.4M715.5 725.4c11.1-28.1 13.1-47.1 13.1-47.1"/><path class="st6" d="M781.6 686.2s-8.8 48.1-8.8 56.6 13.1 12.1 15.7 1.7c7.5-26.8 6.2-56.3 6.2-56.3l-13.1-2z"/><path class="st6" d="M805.8 682.9s11.1 54.3 13.1 60.3c2 5.9-9.8 8.8-15 5.5-5.2-3.3-11.1-44.8-9.2-60.6-.6-6.5 11.1-5.2 11.1-5.2z"/><path class="st0" d="M808.5 734c-6.5-15.7-8.5-49.1-8.5-49.1M787.5 686.2c2 15-6.5 51.8-6.5 51.8"/><circle class="st6" cx="735.5" cy="667.5" r="18.3"/><circle class="st6" cx="790.8" cy="673.1" r="18.3"/><path class="st0" d="m723.4 680.3 4.5-15.1M734.5 684.9l1-16.1M744.3 683.6l-1.3-15.1M782.3 688.8l-.7-15.7M793.8 690.4l-4-18.3M803.3 684.9l-5.3-13.8"/><path class="st4" d="m788.4 510.5-51.8-1.1c-1.4 4.6-3 9.3-4.6 14l57.8 2.1c-.5-4.8-1.1-9.7-1.4-15z"/><path class="st1" d="m789.9 525.4-57.8-2.1c-1.2 3.7-2.5 7.5-3.7 11.2l63.2 1.7c-.7-3.3-1.2-6.9-1.7-10.8z"/><path class="st5" d="M787.5 488.4c0-51.8-11.8-21-11.8-21l-26.8 2.6s-5.5 18-12.3 39.4l51.8 1.1c-.6-7-.9-14.3-.9-22.1z"/><path class="st6" d="m750.9 545-24.7-4c-4.6 13.2-8.9 25.1-11.9 31.8 14.4 2 87.1 1.3 87.1 1.3s-4.2-10.4-8-28.4l-42.5-.7z"/><path class="st0" d="m790.8 573.5-3-15.6M780 573.5l-1-15.6M770.2 572.5v-14.6M761.3 572.5v-14.6M751.5 571.6v-13.7M742.7 571.6v-13.7M733.8 571.6l1-13.7M725 571.6l2-13.7"/><path class="st6" d="M793.3 545.8c-.6-3-1.2-6.2-1.8-9.5l-63.2-1.7c-.8 2.1-1.4 4.3-2.2 6.4l24.7 4 42.5.8z"/><path class="st3" d="M762 394.8c-3.3-5.2-10.5-2-10.5-2l-11.8 21.6s-9.2 34-7.8 43.8c3.3 24.2.7 55.6-1.3 60.3-2 4.6-10.8 2-20 2h-1.1l3.6 31.2c18.8-1.5 41.2-7.8 43.6-9.5 2.6-2 4-61.6 4-61.6s-.7-32.1 2.6-49.1 2-31.5-1.3-36.7z"/><path class="st6" d="M739.7 414.5s7.8 2.6 9.8-.7c2-3.3 9.8-28.1 7.8-33.4s-7.2-2.6-7.2-2.6l-10.4 36.7zM769.2 429.5c-7.2 0-13.1 7.2-11.8 12.5-4 0-5.2 5.9-3.3 9.8-3.3 1.3-4.6 7.8-2.6 12.5-2.6 1.3-2.6 5.9-.7 11.8.8 2.6 7.5 4.9 15 6.8l12.5-51.3c-3.9-1.3-7.2-2.1-9.1-2.1z"/><path class="st3" d="M809.8 444.6c-3.9-2.9-20.2-9.7-31.4-13.1l-12.5 51.3c9.3 2.4 19.8 4.3 21.7 5.7 0 12.2.8 23.3 1.9 33.3v.1c34-2 25.5-73.4 20.3-77.3z"/><path class="st0" d="M784.9 460.3c-4 0-23-4.6-30.8-8.5M788.2 449.1c-4 0-14.1-5.2-30.8-7.2M784.3 472.1c-4 0-24.9-4-32.8-7.8"/><path class="st6" d="M717.5 795.5s-78.6-149.9-93.3-187.9c-2.7-1.4-5-1.5-7.1-.9 16.7 50.6 83.4 180.5 82.8 183.6-.5 2.3-12.6 7.8-20 10.8 2.3 5.2 3.6 8.1 3.6 8.1l34-13.7z"/><path class="st6" d="M699.8 790.3c.6-3.1-66-133-82.8-183.6-3.8 1.1-6.6 4.8-8.3 8.1-1.1 21.1 55.9 152.1 71.1 186.3 7.3-3.1 19.5-8.5 20-10.8zM619.9 589.9s5.2-19.6 1.3-30.8c-4-11.1-20-8.8-22.6-2.3s3 29.1 3 29.1l18.3 4z"/><path class="st6" d="M605.5 599.8c-4 2-.7 12.5 1.3 15 2 2.6 19 .7 20.3-2.6s2.6-11.1-4-15c-6.5-4-11.8-3.3-11.8-3.3s-1.9 3.9-5.8 5.9z"/><path class="st6" d="M601.6 586c-2.6 2-1.3 15 4 13.8 5.2-1.3 14.4-1.3 17.7-2.6s2-11.8-2-13.1c-4-1.4-17.1-.1-19.7 1.9z"/><circle class="st6" cx="643.1" cy="160" r="18"/><circle class="st6" cx="504.7" cy="85.1" r="18"/><circle class="st6" cx="430.7" cy="68" r="18"/><circle class="st6" cx="547.8" cy="118.5" r="18"/><path class="st0" d="m636.6 160.3 2-17M643.1 160l3.7-17.3M648.7 164.3l5.2-17.3M536.7 119.2v-14.5M544 119.8l-.7-17.7M550.5 120.4l.7-18.3M556.3 119.8l1.4-13.1M493.2 88.4l-.7-15.8M500.7 87l1.3-20.3M507 87.4l6.2-17.7M512.8 90.4l7.2-13.2M422.8 73.3l-2.9-19M430 74.6l.4-22.6M437.9 73.9l2.6-19.6"/><path class="st4" d="m457.2 402.1-12.1 4.5s-2 24.9 23 39.3c24.9 14.4 57 18.3 57 18.3l7.2-10.5c-11-.4-35.6-2.6-55.7-14.4-19.5-11.4-20.4-28.5-19.4-37.2z"/><path class="st1" d="M486.4 420.3c19.4 13.6 42.7 9.6 53.5 6.5l-7.7-11.1-26.8-31.5-24.1 8.9c-.8 6.7-1.3 20.4 5.1 27.2z"/><path class="st4" d="M539.9 426.9c-10.8 3-34.1 7-53.5-6.5-6.3-6.8-5.8-20.6-5.1-27.1l-13.6 5c-.2 8.4 1.4 24.5 14.1 32.5 14.1 8.9 45.4 11.9 57.4 12.8l6.1-8.9-5.4-7.8z"/><path class="st4" d="m467.7 398.2-10.5 3.9c-1 8.7-.1 25.8 19.4 37.2 20.1 11.8 44.7 14 55.7 14.4l6.9-10.1c-12-.8-43.2-3.9-57.4-12.8-12.8-8-14.3-24.2-14.1-32.6z"/><path class="st9" d="M426.1 152.5s0-7.8-4-14.4c-4-6.5 1.3-24.2 4-28.8-7.2 2-15-2.3-13.8-12.8s13.1-12.8 20.3-12.1c7.2.7 15 5.2 15 10.5 0 5.2-1 15-1 15s16.7-3.3 27.8-.7c2-4 8.5-10.5 12.5-11.1 4-.7 19.6 1.3 23 6.5 3.3 5.2 5.2 12.5 3.3 20.3s-17.7 14.4-17.7 14.4 19.6 9.8 23 8.5c-.7-4-.7-7.8 2.6-11.1s11.8-5.2 18.3-3.3c6.5 2 12.5 13.8 11.1 24.9C560.3 168.8 595 174 595 174s16 7.8 19.3 5.9c3.3-2 8.2-7.8 16-7.8s18.7 5.9 18.7 17-7.5 15-13.5 18.3c10.5 7.8 7.8 28.8 7.8 28.8s10.2-3.3 14.7 5.9c4.6 9.2-1 17.7-14.1 19.6-7.2.7-19.6-2.6-19.6-2.6l-16.9 9.7-42.6-24.9-138.7-91.4z"/><path class="st9" d="M393.3 174.8s-11.8 19.6-12.5 24.2c-.7 4.6 23.6 14.4 23.6 14.4l108.7 89.7 42.6 11.1 47.1-38.6-34.7-36.7-156.5-72.7-18.3 8.6z"/><path class="st0" d="M370.8 313.6c2-7.8 22-2 18 18-2 5.5-13.8 3-13.8 3"/><path class="st1" d="M506.3 272.1c-9.2-6.2-91.3-42.1-107.1-48.9-8.3 12.8-17.6 27.5-18.3 29.6-1.3 4 2.6 9.2 2.6 9.2s-22.3 15.5-34.3 25.5c22.4 5.1 124.9 28.4 137.1 36 5.9-13.8 17.1-40 20-51.4z"/><path class="st4" d="M543.3 303.1s-24.9-5.9-25.5-9.2c-.7-3.3 11.1-30.1 12.5-38-18.3-5.9-117.9-53-117.9-53s-6.2 9.4-13.1 20.1c15.7 6.8 97.9 42.7 107.1 48.9-3 11.5-14.1 37.6-20 51.4-12.2-7.6-114.8-31-137.1-36-2.8 2.4-5 4.4-6.3 5.9-6.5 7.8-11.8 24.9-9.8 30.8 2 5.9 9.2 11.8 13.8 11.8s28.1-1.3 28.1-1.3l62.8-9.8 19.6-2.6s2.3 6.2 1.7 9.5c-.7 3.3-19.3 8.2-31.1 10.2 4 1.3 52.4-1.3 55.6 0 3.3 1.3 1.3 8.5 1.3 8.5s5.2 2 .7 9.2c5.9 2.6 2 9.8 2 9.8s4 2 2 7.2S456 388 454 390.3c-2 2.3 1 3.3-.3 8.5s-8.5 5.9-11.1 1.3c-1.3 5.2-5.5 6.8-10.2 4.3-4.6-2.6-3.6-8.8-3.6-8.8l-26.6 2.1c0 3.3.2 6.2 1.1 7.8 2 4 22 8.5 33.7 6.5 11.8-2 53.3-17 63.8-16.3-3.3 4.6-4 14.4 3.3 18.3 7.2 4 28.1 2 28.1 2l22.3-83.1-11.2-29.8z"/><path class="st9" d="M584.5 375.8c9.8 41.3 32.1 48.5 36 53.7 4 5.2-.7 9.8-.7 9.8s50.4 21.6 54.3 26.2c4 4.6-.7 18.3-8.5 17-7.8-1.3-40-19-49.1-21.6-9.2-2.6-89.1-29.5-89.1-29.5l-3.3-19.6 5.5-38.6 21.3-22.3c.3 0 16.6 7.3 33.6 24.9z"/><path class="st4" d="M639.6 517.2s-10.5-60.9-40.6-72.3c-24.2-9.8-45.2-2.3-45.2-2.3l13.8 57s15.4 34.3 24.9 41.9c16.3 13.1 95.9 11.1 115.6 10.5 1.7-.1 3.4-.2 5.2-.3l-3.6-31.2c-12.2-.2-70.1-3.3-70.1-3.3z"/><path class="st0" d="M619.9 439.3c-7.2 2.6-41.9-36-44.5-51.1M566.5 391.5c2 18.3 27.2 52.4 27.2 52.4"/><path class="st0" d="M570.8 390.2c22.3 63.5 96.3 80.6 96.3 80.6M560.3 390.2c-1.3 9.8 5.2 32.1 5.2 32.1M552.5 388.9c-1.3 8.5 4 32.8 4 32.8M545.3 376.5l-1 41.8M534.8 415.1l3.2-44.6M384.8 202.3l18.3-28.2M390.8 206.9l17.6-30.1M398.6 210.1l16.3-28.1M412.3 203l10.5-18.4M419.6 204.3l9.8-17.1M424.1 207.5l10.5-18.4M430.7 210.1l11.1-19.6M437.9 213.4l9.8-19M445.7 218l9.2-19M451.6 221.3l10.5-21M460.1 223.9l9.2-18.3M468 228.4l9.8-19.6M475.9 232.4l9.8-21M483 235l9.9-20.9M488.9 238.9l8.6-19M496.2 241.6l11.1-22.3M504.7 244.2l7.8-17.7M511.2 247.4l7.8-18.3M517.7 250.7l9.8-19.6M523 252.7l9.2-17.7M530.2 255.9l6.5-16.3M522.3 296.6l19.7-52.4M528.9 297.9l20.9-54.3M536.7 300.5l22.3-53.1M635.6 207.5c-10.5-9.8-26.2-2.7-26.2-2.7M613.3 215.4s14.4-2.6 16.3 2.6c2 5.2 0 26.2 4.6 32.1 4.6 5.9 14.4 4.6 15-1.3.3-3-4.6-2.8-6.8-5-2.3-2.2-2-6.8 1-7.4M591.1 181.3s28.1 18.3 38.6 14.4c10.5-4 4.9-15.4 1-16-4-.7-4.3 6.2-8.2 6.8-4 .7-10.5-2.6-8.2-6.5M495.5 139.4c-9.2-5.2-27.5-8.5-34.7-7.2s-10.5 24.2-10.5 24.2M445.7 111.3c-11.1 11.8-11.1 35.3-11.1 35.3M426.1 109.3s-8.2-4.6-6.2-9.2c2-4.6 7.5-5.9 12.8-4 5.2 2 6.8 8.8 1.7 16-5.2 7.2-6.8 31.1-6.8 31.1"/><path class="st0" d="M440.5 149.9s2-24.2 12.5-29.5c10.5-5.2 25.5 9.2 35.3 7.2s14.7-13.8 6.8-16.3c-7.8-2.6-6.8 3.3-10.2 4.6-3.3 1.3-11.1-3.3-10.5-6.5M458.8 161s-.7-15 10.5-17c11.1-2 34 15.7 47.1 15 13.1-.7 17.7-5.2 17-9.8s-15.7 2.6-15-1.3"/><path class="st0" d="M544.6 153.8s-4 13.8-17.7 14.4c-13.8.7-43.2-13.1-49.8-13.8s-7.8 11.8-7.8 11.8"/><path class="st0" d="M483.7 176.1s0-12.1 7.2-10.2c7.2 2 41.3 21.3 60.3 8.8"/><path class="st10" d="M395.8 150.8c-.2.7-.4 1.3-.6 2 9 2.5 15.7 4.4 15.7 4.4s-6.5-2.8-15.1-6.4zM401.5 136.4c-.5 1.1-1 2.1-1.5 3.1 8.4 4.4 14.9 7.8 14.9 7.8s-5.7-4.7-13.4-10.9zM392.4 166.1c-.2.8-.2 1.6-.4 2.4 8.1.6 13.8 1.1 13.8 1.1s-5.7-1.4-13.4-3.5z"/><path class="st11" d="M350.5 140.7c-2 0-4 10.8-2.6 12.8.9 1.4 27.7 8.4 44.5 12.6.7-4.2 1.6-8.7 3-13.5-17.6-4.7-43.6-11.9-44.9-11.9zM344.9 166.3c-2 1.3-2.6 13.5 1.3 14.7 2.7.9 28.9-.5 44.8-1.5.2-3 .4-6.8 1-10.9-17.6-1.3-45.8-3.2-47.1-2.3zM370.4 94.6c-2-.7-8.5 4.9-5.9 9.5 1.7 3 22.7 20.5 37 32.3 1.7-3.6 3.9-7.1 6.2-10.6-14.7-12.7-36-30.8-37.3-31.2z"/><path class="st12" d="M407.9 125.8c-2.4 3.4-4.5 7-6.2 10.6 7.6 6.2 13.4 10.9 13.4 10.9s-6.4-3.3-14.9-7.8c-1.7 3.8-3.1 7.6-4.3 11.2 8.6 3.6 15.2 6.3 15.2 6.3s-6.8-1.9-15.7-4.4c-1.4 4.7-2.3 9.3-3 13.5 7.8 2 13.5 3.4 13.5 3.4s-5.8-.5-13.8-1.1c-.6 4.2-.8 8-1 10.9 7.1-.5 12.2-.8 12.2-.8l8.5-1.3 10.5-39.3c-.2.3-6.3-5.1-14.4-12.1z"/><path class="st11" d="M359.6 119.5c-2.6 0-6.5 10.2-4.6 12.8 1.3 1.7 24.7 11.8 40.8 18.5 1.1-3.7 2.5-7.4 4.3-11.2-15.8-8.4-38.8-20.1-40.5-20.1z"/><path class="st0" d="M370.4 94.6c2 .7 51.8 43.5 51.8 43.5l-10.5 39.3-8.5 1.3s-53 3.6-57 2.3c-4-1.3-3.3-13.5-1.3-14.7 2-1.3 60.9 3.3 60.9 3.3s-56.6-14.1-58-16c-1.3-2 .7-12.8 2.6-12.8 2 0 60.6 16.3 60.6 16.3s-54-22.3-56-24.9c-2-2.6 2-12.8 4.6-12.8s55.3 27.8 55.3 27.8-47.9-38.5-50.5-43.2c-2.5-4.5 4.1-10.1 6-9.4z"/><path class="st11" d="M428.1 247.8c-10.9 0-19.6 8.8-19.6 19.6 0 10 7.4 18.2 17 19.5l14.4-35.2c-3.4-2.4-7.4-3.9-11.8-3.9z"/><path class="st12" d="m439.8 251.7-14.4 35.2c.8.2 1.7.2 2.7.2 10.9 0 19.6-8.8 19.6-19.6 0-6.5-3.1-12.2-7.9-15.8z"/><circle class="st0" cx="428.1" cy="267.4" r="19.6"/><circle class="st6" cx="427.7" cy="268.1" r="6.2"/><path class="st12" d="M426.1 380.4c4-6.5.7-19.6-10.5-25.5-9.4-5-38.1-5.3-47.9-5.2-2 4.4-3.8 8.9-4.6 11.8 7.2 0 10.5.7 10.5.7s0 12.5 2 15.7c2 3.3 25.5 3.3 27.5 6.5-.1.7-.2 1.5-.4 2.6 2.6-.1 19.7-.5 23.4-6.6z"/><path class="st11" d="M453.9 390.2c1.3-1.5 15.2-4.6 25.3-8.1l-6.7-40.7c-15.5.2-41.6 1.3-44.5.4 11.8-2 30.5-6.8 31.1-10.2.7-3.3-1.7-9.5-1.7-9.5l-19.6 2.6-62.8 9.8s-3.9 7.5-7.3 15c9.7 0 38.5.3 47.9 5.2 11.1 5.9 14.4 19 10.5 25.5-3.6 6.1-20.8 6.5-23.3 6.5-.3 2.8-.7 6.8-.7 10.6l26.6-2.1s-1 6.2 3.6 8.8 8.8 1 10.2-4.3c2.6 4.6 9.8 4 11.1-1.3 1.3-4.9-1.7-5.9.3-8.2z"/><path class="st6" d="M487.6 369.3s4-7.2-2-9.8c4.6-7.2-.7-9.2-.7-9.2s2-7.2-1.3-8.5c-.9-.4-5.2-.5-11.2-.4l6.7 40.7c5.4-1.8 9.7-3.8 10.4-5.6 2.1-5.3-1.9-7.2-1.9-7.2z"/><path class="st0" d="M428.1 341.7c11.8-2 30.5-6.8 31.1-10.2.7-3.3-1.7-9.5-1.7-9.5l-19.6 2.6-62.8 9.9s-9.8 19-11.8 26.8c7.2 0 10.5.7 10.5.7s0 12.5 2 15.7c2 3.3 25.5 3.3 27.5 6.5-.4 2.4-1.1 8.1-1.1 13.1l26.6-2.1s-1 6.2 3.6 8.8 8.8 1 10.2-4.3c2.6 4.6 9.8 4 11.1-1.3 1.3-5.2-1.7-6.2.3-8.5 1.3-1.5 15.2-4.6 25.3-8.1l-6.7-40.7c-15.6.5-41.7 1.6-44.5.6zM451.6 350.9l33.4-.6M452.9 362l32.8-2.5M456.2 373.8l31.4-4.5"/><path class="st6" d="M436.6 321.5c-2 1.3-.7 5.2 2 5.9 2.6.7 22.3-2 24.9-2.6 2.6-.7 2-5.9-.7-6.5-2.7-.8-24.2 1.9-26.2 3.2zM384.5 361.8l-2.2 10c3.5.3 7.1.7 10.6 1.1l2.7-10.2c-3.3-.4-7-.7-11.1-.9z"/><path class="st6" d="M371.8 361.4c-1.3 2-1.7 6.9-.3 9.5 3.1.2 6.9.5 10.9.9l2.2-10c-4-.2-8.2-.4-12.8-.4zM395.6 362.6l-2.7 10.2c4.5.5 8.7.9 12.3 1.3l2.6-9.6c-3.3-.6-7.3-1.3-12.2-1.9zM416.2 366.7c-2.1-.7-4.9-1.4-8.4-2.1l-2.6 9.6 9 1s6.3-7.1 2-8.5z"/><path class="st12" d="m594 159.9 1.7-4.7 2-46.5s2.6-47.8-34-55.6c4.6 16.3 12.5 41.3 0 72.7-4.8 12-9.2 21.7-12.2 30.9 10.5-.4 26.7 0 42.5 3.2z"/><path class="st11" d="M551.5 156.5c-4.7 14.7-5.3 27.8 3.6 46.4 14.4 30.1 24.2-2 24.2-2l14.7-41.1c-15.8-3.1-32-3.5-42.5-3.3z"/><path class="st11" d="m569.5 195.8 21.6-1.3s2.2-8.6 12.5-30.4c-5.4-2.4-15.5-6-29.6-7.3-8.6 25.6-4.5 39-4.5 39z"/><path class="st12" d="M606.1 53c0 19.6 5.9 30.1-19 74.6-6.2 11-10.3 20.7-13.1 29.1 14.1 1.3 24.2 4.9 29.6 7.3 3.4-7.1 7.6-15.7 13-25.9 21.6-41.2 5.3-71.4-10.5-85.1z"/><path class="st0" d="M569.5 195.8s-7.2-23.6 17.7-68.1c24.9-44.5 19-55 19-74.6 15.7 13.8 32.1 43.8 10.5 85.1s-25.5 56.3-25.5 56.3l-21.7 1.3z"/><path class="st1" d="M571.9 163.5c-1.3 4.7-2.1 8.9-2.7 12.6 2.8.1 8.1-.2 10-2.1 2.6-2.6 4.6-7.2 2-9.8-1.5-1.5-6-1.1-9.3-.7z"/><path class="st0" d="M579.3 201s-9.8 32.1-24.2 2-4-45.8 8.5-77.3 4.6-56.3 0-72.7c36.7 7.8 34 55.6 34 55.6"/><path class="st1" d="M550.1 161.1c-1.4 5.2-2.1 10.3-2 15.6 5.2-.4 13.1-2.1 13.1-8.7.1-6.5-6.5-7.2-11.1-6.9z"/><path class="st4" d="M603.2 128.3s10.8-4.6 8.2-11.8-14.4-7.2-18.3-4.6c-4 2.6-2.6 13.1-2.6 13.1l12.7 3.3zM577.3 132.2s7.2-11.8 4.6-19c-2.6-7.2-11.8-4-15.7-1.3-4 2.6-1.7 17-1.7 17l12.8 3.3z"/><circle class="st6" cx="594" cy="128.3" r="9.2"/><circle class="st0" cx="594.3" cy="128.3" r="3"/><circle class="st6" cx="568.2" cy="132.2" r="9.2"/><circle class="st0" cx="568.5" cy="132.2" r="3"/><path class="st6" d="M429.4 170.8s-8.3 12-10.9 17c2.7 1.4 5.7 2.9 9 4.5l9.9-17.6-8-3.9zM445.6 149l2.6 16.1 8.2 4.4-2.5-16.3c-2.8-1.5-5.6-2.9-8.3-4.2zM422.1 138.2c-.9.2-3.5 4.3-6.5 9.7l32.6 17.4-2.6-16.1c-13.4-6.8-22.8-11.3-23.5-11zM454 153.2l2.5 16.3 29.5 15.7-1.1-16.6c-10.9-5.4-21.6-10.8-30.9-15.4zM559.4 224.3l-1-18.2s-12.3-6.3-29.5-15.1l2.8 18.5 27.7 14.8zM528.8 191.1c-2.9-1.4-5.9-3-9-4.6l3 18.4 8.7 4.7-2.7-18.5z"/><path class="st6" d="m492.3 172.4 1.5 16.9 29 15.5-3-18.4c-8.6-4.3-18-9.1-27.5-14zM484.8 168.7l1.1 16.6 7.9 4.2-1.5-16.9c-2.4-1.4-5-2.7-7.5-3.9z"/><path class="st6" d="m559.4 224.3-143.6-76.6c-5.9 10.7-13.4 27.1-12.5 30.9.2 1.1 6 4.5 15.2 9.2 2.7-5 10.9-17 10.9-17l7.8 4-9.9 17.6c9.3 4.6 20.4 9.9 32.5 15.4l8.9-16.6 8.5 4.6-8.1 16.3c14.2 6.5 29.1 13.3 42.6 19.3l8.1-14.7 7.2 4.6-7.1 13.8c23.5 10.6 41.2 18.3 41.2 18.3l-1.7-29.1z"/><path class="st6" d="m519.7 216.7-8.1 14.7c2.8 1.3 5.5 2.5 8.2 3.7l7.1-13.8-7.2-4.6zM468.7 191.1l-8.9 16.6c3 1.4 6.1 2.8 9.2 4.3l8.1-16.3-8.4-4.6z"/><circle class="st6" cx="582.3" cy="225.2" r="36"/><path class="st0" d="M575.3 259.2s-5.2-16-2.6-21.3c2.6-5.2 19-8.8 24.2-4.9 5.2 4 4 23 4 23"/><path class="st0" d="M582.6 255.9s-3.6-12.8 4.3-13.5c7.8-.7 6.8 12.8 6.8 12.8"/><path class="st7" d="M598.3 360.1c-50.4-14.4-49.1-43.2-50.4-59.6s5.9-42.6 36-46.5c30.1-4 50.4 11.8 50.4 11.8l-3.3 39.3c.1 0-9.1 26.2-32.7 55z"/><path class="st10" d="m607.3 290.3-13.8 6 3.8 15.3 13.6-5.3z"/><path class="st7" d="M601 262.3c-.2 0-.5-.1-.7-.1-5.2-.3-10.2.5-14.6 2.1l7.9 32 13.8-6.1-6.4-27.9z"/><path class="st2" d="M637 277.2v-.2s-19.8-13.4-36-14.7l6.4 28 29.6-13.1zM559.4 311.4l34.1-15-7.9-32c-18.2 6.4-28.9 27-26.2 47z"/><path class="st0" d="m638.9 310.4-.9-14.7-27.1 10.6 6.9 30.4z"/><path class="st2" d="M563.3 324.9c.1.2.2.3.2.5 8.5 18.3 41.9 26.8 41.9 26.8l1.4-1.7-9.6-38.9-33.9 13.3z"/><path class="st7" d="m610.9 306.3-13.6 5.3 9.6 38.9 10.9-13.8z"/><path class="st0" d="m593.1 264.2 19 76.3"/><path class="st7" d="m637 277.2-77.6 34.2c.6 4.6 1.9 9.1 4 13.5l74.7-29.2-1.1-18.5z"/><path class="st0" d="m555.7 320.8 78.6-34.1"/><path class="st11" d="m598.7 352.4 78.1 28c1.4-3.3 3-7.4 4.9-12.2l-78.4-27.8c-1.8 4.6-3.3 8.6-4.6 12z"/><path class="st12" d="M595.6 360.7c-.7 4 76.6 30.8 77.9 27.5.2-.5 1.4-3.4 3.2-7.8l-78.1-28c-1.7 4.6-2.8 7.7-3 8.3zM623.9 289.6c-1.1 2.6-2.2 5.4-3.4 8.2l78.8 26.3c1-2.5 2-5 2.9-7.4l-78.3-27.1zM603.3 340.4l78.4 27.8c1.3-3.1 2.6-6.5 4-10l-78.1-28.4c-1.6 3.7-2.9 7.2-4.3 10.6z"/><path class="st11" d="m707 303.9-78.1-26.3c-1.4 3.4-3.2 7.5-5 11.9l78.3 27.1c1.9-4.7 3.5-9.1 4.8-12.7z"/><path class="st12" d="M710.2 293.9c-.7-2.6-74-30.1-76-28.1-.5.5-2.4 4.9-5.4 11.9L707 304c2.1-5.8 3.4-9.5 3.2-10.1z"/><path class="st11" d="m607.6 329.7 78.2 28.4c4.4-10.9 9.3-23.3 13.6-34.2l-78.8-26.3c-4.3 10.5-8.9 21.9-13 32.1z"/><path class="st0" d="M595.6 360.7c-.7 4 76.6 30.8 77.9 27.5 1.3-3.3 37.3-91.7 36.7-94.3-.7-2.6-74-30.1-76-28.1-1.9 2-37.9 91-38.6 94.9z"/><path class="st6" d="M725.4 168.9c-2.6-3.3-13.5-7.8-15.4-6.5-.8.5-5.5 11.6-11.3 25.8l17.6 6.1c5.7-13.4 10-24.2 9.1-25.4zM697.2 158.4c-2-2-11.1-5.2-13.1-2.6-.6.8-3.8 12.4-7.9 28l14.7 3c4.1-15.2 7.1-27.6 6.3-28.4z"/><path class="st3" d="M703.1 254.7c.8-3.6 19.6-27.1 33.9-46l-15-7.8c-14 21-30.7 47.2-30.7 47.2s14.8-30.7 24.9-53.9l-17.6-6.1c-7.7 18.8-17.5 43-23 55.4 1.5-7 9.5-34.8 15.4-56.8l-14.7-3c-9.3 35.6-23.6 92.5-23.6 92.5L618 368.5l-13.8 34 43.2 13.8 9.8-34.7 34-93s40.9-39.9 64.9-64.2l-11.2-11.7c-14.2 13.5-32.4 31.7-41.8 42z"/><path class="st6" d="M752.8 184.6c-2-4-10.5-8.8-12.5-9.5-.8-.2-9 11.6-18.4 25.8l15 7.8c9.4-12.3 16.7-22.5 15.9-24.1zM765 196.1c-1.4-.3-9.7 6.9-20 16.7l11.2 11.7c10-10.1 16.9-17.5 16.9-18.2 0-2.7-4.9-9.6-8.1-10.2zM622.5 347l42.2 17.7c2.7-7.1 5.9-15.4 9.1-23.9L631.7 326s-9.2 11.8-9.2 21z"/><path class="st1" d="M614 369.3c0 3.3 44.5 17.7 43.8 15-.2-.8 2.7-8.7 6.8-19.6L622.5 347c-7.2 9.2-8.5 19-8.5 22.3z"/><path class="st4" d="m631.7 326 42.1 14.8c1.3-3.3 2.5-6.6 3.7-10l-41.9-16c-3.9 4.1-3.9 11.2-3.9 11.2z"/><path class="st6" d="M644.8 288.7c-4 4.6-9.8 22.3-9.2 26.2l41.9 16c3.6-9.7 7.1-19.2 9.7-26.7l-42.4-15.5z"/><path class="st1" d="M691.2 288.7c-3.3-2-36-13.8-39.3-14.4-3.3-.7-7.8 8.5-7.2 14.4l42.5 15.6c3.1-9 4.9-15.1 4-15.6z"/><circle class="st6" cx="682.4" cy="337.5" r="11.1"/><circle class="st6" cx="682.4" cy="337.5" r="3.3"/><path class="st3" d="M537 342.7c-8.8-8.2 2.3-39.6 6.2-42.3 4-2.7 23-2 26.2 2.6 3.3 4.6-2.6 36.7-2.6 36.7s23 11.1 21 28.8c-2 17.7-12.5 25.5-27.5 24.9-15-.7-13.1-17-13.1-17s-7.8-10.5-13.8-18.3c-5.9-7.8-1.2-11.8 3.6-15.4z"/><path class="st0" d="M537 342.7c7.5 2.3 12.8 1.7 14.1-13.5"/><path class="st6" d="M561 379.1c4-.7 4.6-14.4 2.6-16.3-2-2-26.8-5.9-30.1-4.6-3.3 1.3-4.6 12.5-3.6 15 .9 2.6 27.1 6.5 31.1 5.9z"/><path class="st9" d="m544.6 462.2-11.1 6.5s3.3 82.5 4.6 89.1c1.3 6.5 17 8.5 19.6-3.3 3.3 5.2 5.2 8.5 9.2 10.5 4 2 15.7.7 12.5-8.5-3.3-9.2-10.5-75.3-11.1-88.4-.8-13-23.7-5.9-23.7-5.9z"/><path class="st0" d="M557.7 554.5c-6.5-15-7.2-87.8-7.2-87.8M558.3 467.4s2.6 70.1 11.1 89.1M546.5 553.2l-4.5-86.4"/><path class="st9" d="M520.4 467.4s-16.3 67.4-17 75.9c-.7 8.5 12.5 9.8 16.3 2.6 4-7.2 18.3-78.6 18.3-78.6l-17.6.1z"/><path class="st0" d="M513.2 540.2c7.2-19.6 16.3-74.6 16.3-74.6"/><path class="st6" d="M517.1 410.5s5.9 34.7 3.3 57c5.9 2 52.4 4.6 52.4 4.6s2.6-43.8 4.6-53c-9.9-1.4-60.3-8.6-60.3-8.6z"/><path class="st0" d="m530.2 419.6 2 39.3 32.7 2 1.3-36z"/><path class="st11" d="M506.6 430.5c-6.5 0-7.2 12.1-2.6 12.8 1.1.2 7.1.7 15.4 1.4l-.3-13.4c-6.4-.6-11.1-.8-12.5-.8zM598 438.6c-1.4-.6-10.7-1.7-22.8-2.9l-.6 13.1c12.2.9 21.4 1.6 22.4 1.6 3.3 0 5.6-9.8 1-11.8z"/><path class="st12" d="m519.1 431.2.3 13.4c15 1.2 38.1 3 55.1 4.3l.6-13.1c-17.6-1.7-41.5-3.6-56-4.6z"/><path class="st0" d="M506.6 430.5c-6.5 0-7.2 12.1-2.6 12.8 4.6.7 89.7 7.2 92.9 7.2 3.3 0 5.5-9.8 1-11.8s-84.7-8.2-91.3-8.2z"/><circle class="st5" cx="548.5" cy="440" r="10.5"/><path class="st0" d="m546.2 227.3 11.4 6.4M550.2 213.6l10.8 11.3M557 201.3l9.8 17.2M568.8 194.5l5 20M582.3 189.2l1.3 22.9M593.9 192.5l-1.5 21.6M605.1 199.9l-5.4 17.1M614.5 210.7l-7.4 13.7"/></svg>