<svg version="1.1" id="Calque_1" xmlns="http://www.w3.org/2000/svg" x="0" y="0" viewBox="0 0 900 900" style="enable-background:new 0 0 900 900" xml:space="preserve"><style>.st0,.st1{fill:red;stroke:#000;stroke-width:3.9224;stroke-linecap:round;stroke-linejoin:round;stroke-miterlimit:10}.st1{fill:#ffce00}.st2{fill:#fff}.st2,.st3,.st5,.st6,.st7{stroke:#000;stroke-width:3.9224;stroke-linecap:round;stroke-linejoin:round;stroke-miterlimit:10}.st5,.st6,.st7{fill:#bf9b00}.st6,.st7{fill:none}.st7{fill:#3e6d00}.st9{fill:none}</style><path class="st0" d="M605.4 766.9s-12 22.7-12 26.5 5.3 7.3 7 4.2c1.7-3 10.3-21.9 10.3-21.9l7.6 16.5s-13 15.7-14.4 19.9c-1.3 4.2 3.4 9.1 7.8 7.2s12.1-17.6 11.3-17.3c-.9.3-12.6-36.9-12.6-36.9l-5 1.8z"/><path class="st1" d="M615.6 721.3s-12.1-23.1-26.1-51.9c-14-28.7-38.2-46.7-38.2-46.7l-21.7 20.1 31.5 81.9c2.2 0 38 40.3 41.9 44.5l31.4-11.5-18.8-36.4z"/><path class="st0" d="M678.4 797.5s47.1 5.3 48.3 8.1c1.3 2.8-4.9 17.9-4.9 17.9L671 808.4l7.4-10.9z"/><path class="st0" d="M658.4 801.7s6.2-7.7 11.5-9.5c5.3-1.8 12.6-.2 13.7 3.7 1.2 3.9-8.5 12.6-8.5 12.6l-16.7-6.8zM589.5 671.4c.6-2.3 17-27.2 21.9-28.4 4.9-1.3 11.1 3.7 10.5 7.8-.7 4.1-21.4 17.8-22 20.6s22.9-13.7 26.6-11.8 6.2 5.9 4.9 8.1c-1.3 2.3-29.4 13.2-28.1 17.5 1.3 4.2 30.1-6 33-6 2.9 0 8.8 10.9 2.9 12.8-5.9 2-37.6 5.1-37.6 5.1l-12.1-25.7z"/><path class="st2" d="M546.6 689.5s45.4-23.8 50-21.6c4.6 2.2 21.6 36.9 21.6 40.6 0 3.7-64 21.1-64 21.1l-7.6-40.1z"/><path class="st3" d="M630 761.7s14.4-13.1 17.9-15c3.6-1.9 8.1 2.5 5.6 6.2-2.6 3.8-18.6 14.7-18.6 14.7l7.7 14.4s9.5-14.2 12.8-16c3.2-1.8 5.6 1.2 5.6 3.6 0 2.5-14 20.1-14 20.1l-17-28zM562.6 732.7c3.7 8.2 14.8 11.9 14.8 11.9s3.2-8.4 0-17.4l-14.8 5.5z"/><path class="st2" d="M562.7 713.9s-3.8 8.6-.6 17.7c.1.4.3.8.5 1.2l14.8-5.4c-3.3-9-14.7-13.5-14.7-13.5zM583.4 707.5s-4.2 9.8-.3 16.7l14.5-4.7c-.3-.8-.6-1.5-1-2.2-4.2-7.8-13.2-9.8-13.2-9.8z"/><path class="st3" d="M583.4 724.7c4.4 6.9 16.9 12.2 16.9 12.2s.4-9.8-2.6-17.4l-14.5 4.7c0 .1.1.3.2.5zM608.7 719.3c5.2 7.5 15.4 12.3 15.4 12.3s2.4-12.4-1.2-18.5l-14.2 6.2z"/><path class="st2" d="M622.5 712.2c-4.2-5.9-16-12.5-16-12.5s-3.2 10.6 1.7 18.5c.2.3.4.6.6 1L623 713c-.2-.3-.4-.5-.5-.8z"/><circle class="st3" cx="561" cy="692.9" r="5.6"/><circle class="st3" cx="578.1" cy="684.4" r="5.6"/><circle class="st3" cx="591.6" cy="670.9" r="7.9"/><path class="st0" d="m546.6 712.9 1.9 9.2 66.6-22.5c-1.5-3.3-3.3-7.3-5.4-11.3l-63.1 24.6z"/><path d="M723.5 821.5c-6.3-2.3-50-17.4-50-17.4s-12.1-2.7-18.2-7.5l-31 12.4c4.7 3.6 19.6 30 60.3 30.8 4.6 7.6 11.1 7.8 11.1 1 4.2 4.4 11.8 4.9 10.8-2 3.9 4.2 14.7 2 10.5-6.9 9.8 6.8 12.7-8.2 6.5-10.4z" style="fill:#ffce06;stroke:#000;stroke-width:3.9224;stroke-linecap:round;stroke-linejoin:round;stroke-miterlimit:10"/><path class="st5" d="M623.8 808.6s.2.1.5.4l31-12.4c-1.4-1.1-2.5-2.2-3-3.3-.7-1.5-2.7-5.5-5.5-11l-31.4 10.3 8.4 16zM634.2 757.7l-31.4 11.5c.2.2.3.4.3.4l6.5 12.4 31.6-10.4c-2.2-4.4-4.6-9.2-7-13.9z"/><path class="st0" d="m609.7 782 5.6 10.6 31.4-10.3c-1.6-3.1-3.4-6.9-5.5-10.8L609.7 782z"/><circle class="st3" cx="633.3" cy="795.2" r="8.3"/><path class="st2" d="M654.8 805.4s11.6 32.7 10.6 32.4c-1-.3-40.4-1.5-40.4-1.5s-3.5-15.9-1.2-24.3c2.3-8.5 31-6.6 31-6.6z"/><path class="st2" d="M624.9 836.3c-2.7 2.5-.2 6.7 3.2 6.7 3.4 0 54.2.3 56.4 0 2.3-.3 1.3-7.6-3.2-7.6s-53.6-1.6-56.4.9z"/><path class="st0" d="M620.8 802.8c-2.5 1.7.4 12.8 4.2 12.1 3.8-.8 37.8-4.8 40.4-7.8 2.6-3-1.7-14.9-5.9-14.9-4.3 0-36.3 9-38.7 10.6z"/><path class="st6" d="M689.5 831.9s6.2 2 6.2 8.8M698 827.7s8.5 2.9 8.5 11.1M706.5 823.7c1 0 7.2 1.3 10.5 8.1"/><path class="st2" d="m477 556.7-62.8 6.9s21.2 58.5 20.6 68.3l60.9-22.7c-6.5-20.7-18.7-52.5-18.7-52.5z"/><path class="st0" d="M407.5 722.1s-19.3.6-21.7 2.8c-2.3 2.3-1.3 8.1 1 10.8 2.3 2.6 19.6 0 19.6 0s-29 14.5-31.2 17.8c-2.2 3.3 1.1 9.5 5 9.6 3.9 0 29.1-16 29.1-16l3.2-16.7-5-8.3z"/><path class="st3" d="M445.3 737.9s17.2-2.3 18.9-.4c1.8 1.9 1.7 8-1.6 8.7-3.2.7-23.7 0-23.7 0l-4 8.4s23-2.1 25.5 1 0 7.6-3.9 7.6h-25.2l3.5-22.7 10.5-2.6z"/><path class="st0" d="M539 591.5c-.2.6 51.1 7.1 54.4 9.5 3.3 2.5 2 11-2.3 11-4.2 0-21.9-2.8-21.9-2.8s-26.5-2.1-27.8-2.3c-1.3-.2-8.5-8-8.5-8l6.1-7.4z"/><path class="st2" d="M541.8 583.8c-1.1 0-3.5 10.5-3.5 10.5s4.4.4 10.2.9l1.2-10.8c-4.4-.3-7.6-.6-7.9-.6zM549.7 584.5l-1.2 10.8c3.1.3 6.7.6 10.2.8l1.2-10.7c-3.6-.4-7.2-.7-10.2-.9z"/><path class="st2" d="m559.9 585.2-1.2 10.7c4 .3 7.9.6 11.1.7V586c-2.9-.2-6.4-.5-9.9-.8z"/><path class="st2" d="M576.7 586.7s-2.8-.2-7-.6v10.6c3.5.2 6.2.2 7 0 3.1-.8 0-10 0-10zM552.8 481.5l-32 3.6-1.2 9.7h34.8zM670.4 459l-7.8 12.2s3.9 6.3 8.9 13.7l10.4-9.7c-6.2-8.6-11.5-16.2-11.5-16.2z"/><path class="st0" d="M699.8 500.1c-2.2-2.6-10.6-14.5-17.9-24.9l-10.4 9.7c7 10.5 15.8 23.2 18.2 23.9 4.2 1.3 14-3.8 10.1-8.7zM682.9 425.2l-11.5 10.9c3.1 3 6.5 6.2 9.9 9.2l10.8-11.4c-3.3-3-6.3-5.9-9.2-8.7z"/><path class="st2" d="M670.9 412.3c-3.9-7-29.9-14.6-21.3 0 2.8 4.8 11.4 13.8 21.9 23.8l11.5-10.9c-6.4-6.2-11.1-11.1-12.1-12.9zM692 433.9l-10.8 11.4c5 4.6 10.1 9.1 15 13.4l9.7-11.9c-4.5-4.1-9.3-8.6-13.9-12.9z"/><path class="st0" d="M732.6 470.7c-1.8-1.4-13.6-11.9-26.6-23.7l-9.7 11.9c14.7 12.8 27.7 23.1 29.9 23.4 5.5.6 10.4-8.6 6.4-11.6zM720.9 491.3c-.4-1.8-11.8-15.9-25.1-31.9l-10.3 12.5c13.7 14.6 25.7 26.9 28 27.8 5.9 2.3 8.4-4.1 7.4-8.4zM674.1 433.6l-12.8 12.2c3.1 3.4 6.4 7 9.7 10.6l11.8-12.5c-3-3.6-6-7-8.7-10.3z"/><path class="st2" d="m653.5 409.3-11-3.4-3.6 15.2s9.9 10.9 22.5 24.6l12.8-12.2c-11.6-13.6-20.7-24.2-20.7-24.2zM682.7 443.8 671 456.3c4.8 5.2 9.8 10.5 14.5 15.6l10.3-12.5c-4.2-5.1-8.8-10.4-13.1-15.6z"/><circle class="st2" cx="655.9" cy="336.2" r="8"/><path class="st0" d="M639.7 261.6s-7.9 25.1-8.1 56l29-2.1c-6.5-28.5-20.9-53.9-20.9-53.9z"/><path class="st2" d="m660.7 315.4-29 2.1v1.2c0 31.4 14.3 35.3 16.3 37l13.3.4s6.2-8.3 0-37.9c-.2-.9-.4-1.8-.6-2.8z"/><path class="st0" d="M689.7 394.2c0-9.3-1.1-18.6-3.1-18.9-3.9-.5-17.7 6.6-33.8 5.7-16.1-.9-27.5-9.2-30.1-6.6-1.4 1.3-1.3 9.1-.5 17.2 18.8 5 50.7 3.7 67.5 2.6z"/><path class="st0" d="M622 391.6c.8 8.2 2.2 16.7 3.4 18.7 2.5 4 56.6 6.1 61 2.5 2.1-1.7 3-10.2 3.1-18.6-16.6 1.1-48.5 2.4-67.5-2.6z"/><path class="st2" d="M631.6 356c2 10.8 41.7 12.8 41.4 1-.4-10.8-43.3-11.7-41.4-1z"/><path class="st0" d="M665.6 375.1c1.2-9.3 1.9-15 1.9-15.5 0-3.1-26.5-6.1-28.6-.2-.3.9-.8 6.5-1.3 15.2 6.4 2.4 19.2 2.9 28 .5zM655.1 487.4c.7-13.2 1.7-26.7 2.7-39.5l-21.9-.7c0 16.4.3 33.5 1 50 1.9 46.9 8.9 88.6 10.4 93 3.4 10.1 14.4 5.1 10.3-3.5-1.8-3.8-5-50.6-2.5-99.3z"/><path class="st2" d="M665.6 375.1c-8.7 2.4-21.5 1.9-27.9-.5-.8 16.1-1.6 43-1.6 72.5l21.9.7c2.4-29.5 5.5-56.5 7.6-72.7z"/><circle class="st3" cx="655.6" cy="386.4" r="8.3"/><circle class="st1" cx="216.4" cy="372.2" r="6.4"/><circle class="st1" cx="202.1" cy="378.5" r="6.4"/><circle class="st1" cx="195.8" cy="393.6" r="6.4"/><circle class="st1" cx="229.8" cy="415.7" r="6.4"/><circle class="st1" cx="257.4" cy="425.2" r="6.4"/><circle class="st1" cx="276" cy="409.3" r="6.4"/><path class="st2" d="m264.9 390.4-7.8-1.1s-9.1 7.8-9.4 15.2l19.4 1.4c1-7.8-2.2-15.5-2.2-15.5z"/><path class="st3" d="M247.6 404.5c0 .8 0 1.7.2 2.5 2.1 7.9 9.1 16.4 9.1 16.4s8.2-8.1 9.8-16.4c.1-.4.1-.7.2-1.1l-19.3-1.4zM231.8 394.2c-3.4 6.4-2 19.7-2 19.7s7.9-2.3 13.5-8c.5-.6 1.1-1.2 1.5-1.8l-12.6-10.8c-.2.2-.4.5-.4.9z"/><path class="st2" d="M243.3 384.9s-7.4 2.5-11.1 8.3l12.6 10.8c4.4-5.9 6-14.2 6-14.2l-7.5-4.9z"/><path class="st0" d="M219.8 381.5c-8.8 3.6-14.6 16.7-14.3 16.7.3 0 11.6 4.7 21.2 1.6l-5.6-18.6c-.4 0-.9.1-1.3.3z"/><path class="st2" d="m246.9 385.4-3.9-3.9c-2.5.6-13.2-3.1-21.9-.5l5.6 18.6c.2-.1.4-.1.7-.2 9.6-3.5 19.5-14 19.5-14z"/><circle class="st1" cx="284.3" cy="353.4" r="10.2"/><path class="st1" d="M296.5 349.2c-6.6 4.4-2.2 17-2.2 17l8.4 2.7.7-20.4c-3.4-.2-5.9 0-6.9.7z"/><path class="st2" d="m303.3 348.5-.7 20.4 10.9 3.5.7-22.4c-4-.7-7.8-1.3-10.9-1.5z"/><path class="st1" d="M356.7 360.4s-24.5-7.2-42.5-10.4l-.7 22.4 42.7 13.8.5-25.8z"/><path class="st3" d="M402.4 271.3c-2.2 12.1 52.1 113.7 52.1 113.7l26.2-24.5s-26-95.4-34.6-102.8c-8.7-7.4-41.5 1.5-43.7 13.6z"/><path class="st1" d="M565.6 280.2c16 10.5 20.9 36 23.8 41.2 2.9 5.2 6.7 6.9 11.5 10.5 4.8 3.6 12.1 14.4 12.6 18.9.5 4.6-1.9 11.5-8 11.5s-8.1-1-8.1-1v11.1s-30.4.3-30.4 11.8c0 15.5 32.1 8.8 32.1 12.1 2.3 10.5-15.1 4.6-14.7 13.7-.7 15.3-21.1 15.2-27.4 15.7-6.3.5-5.4 26.5-5.4 26.5l-48-2.3-30.8-50.4 17.4-36.6 4-46.3s-1.2-26.7-1-27.7 12.9-8.8 12.9-8.8 43.6-10.4 59.5.1z"/><path class="st0" d="M599 396.2s17.8 1.5 16.5-6.9c-1.4-8.3-19.1-9.3-19.1-9.3l-32.6-2-2.5 13.1 10.5 8.4 27.2-3.3zM485.8 249.1c2.3 0 8.1-5.2 8.1-5.2l23.9 5.2-11 20.9 17.2 14.5s-10.6 7.8-13.5 7.8c-2.9 0-27.1-16.7-27.1-16.7l2.4-26.5z"/><path class="st2" d="M510 243.9c-3.8 2.6-11.1 19-8.5 24.2 2.7 5.6 18.2 25.8 22.4 25.8 4.1 0 11.7-12.7 11.7-12.7L522 264.3l9.3-20.4c.1 0-17.4-2.7-21.3 0z"/><path class="st0" d="M519.3 267.1c1.9 3.7 20.7 27.4 26.1 26.7 5.4-.7 9.8-15 9.8-15l-12-14.5 11.7-18.1s-17.2-12.6-20.2-12.6c-3.1 0-17.3 29.8-15.4 33.5z"/><path class="st2" d="M568.2 243.9s-7.8-7.8-11.1-7.8c-3.2 0-18.1 23.6-19 28.2-.9 4.6 19.4 26 24.3 26 4.9 0 13.3-13 13.3-13l-16.4-14.8 8.9-18.6z"/><path class="st0" d="M571.8 231.7c-5.6 2.8-16.1 26.9-13.9 32.6 2.2 5.7 26.3 24.7 31.2 24.7s8.2-8.8 8.2-8.8l-18.9-21.5 12.1-20.4s-13.1-9.4-18.7-6.6z"/><circle class="st0" cx="600" cy="260.6" r="14.1"/><path class="st2" d="M575.7 261.7c-2.6-10.5 11.1-27.2 13.3-30.4 2.3-3.2 15.4 3.3 13.7 5.8-1.6 2.5-17.4 19.8-16.7 25.4.7 5.6 21.8 15.8 23.8 18.4 2.1 2.6-2.3 9.8-7.6 8.1-4.9-1.7-23.8-17-26.5-27.3z"/><circle class="st0" cx="504.7" cy="268" r="7.6"/><circle class="st0" cx="581.6" cy="260.6" r="7.6"/><circle class="st0" cx="543.2" cy="264.3" r="7.6"/><circle class="st3" cx="562.4" cy="262.4" r="7.6"/><circle class="st3" cx="523.9" cy="266.2" r="7.6"/><path class="st1" d="M514.9 50.5c-8.8 4.4 7.4 25 16.5 33.8C518 70.9 510 64.7 500.7 58.9c-5-3.1-16.2 6.4 4.4 22.6 10.1 7.9 24.2 17.7 40.2 31.9 16 14.2 16 25.7 16 25.7l20.9-8.5s11.7-14-21.9-37.2c-33.5-23.3-36.5-47.3-45.4-42.9z"/><path class="st6" d="M571.8 141.3s-1-20.7-13.2-32.5-19.5-17.6-27.2-24.5"/><circle class="st1" cx="487" cy="176.3" r="9.6"/><circle class="st1" cx="514" cy="156.2" r="9.6"/><circle class="st1" cx="545.3" cy="135.2" r="9.6"/><circle class="st1" cx="615.5" cy="216" r="9.6"/><path class="st7" d="M611.5 183.9c4.9-10.3 2.5-24-15.7-18.1 8.3-5.4 7.4-23.5-10.3-19.6 9.3-6.4 4.3-30.5-9.8-20.6l-36 25.1c29.2 15.1 44.4 51.3 49.3 65.3 14.8-5.4 25.1-9.1 26.9-10 7.9-4 11.3-21.6-4.4-22.1z"/><path class="st0" d="M545.3 160.4s67.2-49 72.1-49 9.5 9 6.9 11.9-69.1 43.5-69.1 43.5l-9.9-6.4zM571.8 197.2s74.5-35.4 78-35.4c3.4 0 3.7 13.1 0 14.7s-72.6 29.9-72.6 29.9l-5.4-9.2z"/><path class="st2" d="m535.9 200.4-64.6 14.1c3.5 1.2 6.2 2.4 7.4 3.4.7.6 1.3 1.2 1.9 1.8l57.6-12.5c-.7-2.4-1.4-4.8-2.3-6.8z"/><path class="st1" d="M485.8 228c1.2 3 2 6.8 3.1 11.8.7 3.2 1.1 7.2 1.2 11.4 15.7-5.5 32.9-11.6 49.4-17.5.3-4.9.3-10.7-.1-16.5-12 2.5-39.6 8.1-53.6 10.8z"/><path class="st0" d="m538.1 207.2-57.6 12.5c2.6 2.6 4.2 5.2 5.4 8.3 14-2.6 41.6-8.3 53.6-10.8-.2-3.4-.7-6.8-1.4-10zM454.2 210.5c6.4 1.2 12.5 2.5 17.2 4.1l41.2-9-15.3-25.1-43.1 30z"/><path class="st7" d="M535.5 199.6c-5-10.4-17.8-22-25.5-28.2l-12.9 9 15.3 25.1 23.4-5.1c-.1-.3-.2-.5-.3-.8z"/><path class="st6" d="m595.8 165.7-25.3 13.1"/><path class="st1" d="M539.8 150.6 510 171.3c7.6 6.3 20.4 17.7 25.5 28.2 4.3 9 4.6 23.6 4 34 18.3-6.5 35.9-12.7 49.5-17.7-4.8-13.9-19.9-50.1-49.2-65.2z"/><circle class="st1" cx="348.2" cy="183.6" r="8.1"/><circle class="st1" cx="276" cy="175.5" r="8.1"/><circle class="st1" cx="237" cy="165.8" r="8.1"/><circle class="st1" cx="213.6" cy="263.1" r="8.1"/><circle class="st1" cx="245.3" cy="268" r="8.1"/><circle class="st1" cx="276" cy="279.5" r="8.1"/><circle class="st1" cx="304.6" cy="297.3" r="8.1"/><circle class="st1" cx="379.9" cy="189.3" r="8.1"/><circle class="st1" cx="402.4" cy="214.8" r="8.1"/><path class="st7" d="m241.8 172.8-17.5 83.7c5.7.3 11.2.6 16.3 1.2l16.5-81.1c-5.3-.9-10.5-2.2-15.3-3.8z"/><path class="st1" d="M194.3 153.3c-8.8 0-12.7 9.5-2.9 14.4-10.8-.9-13.7 7.7-5.9 14.4-10.5-1-10.5 10-4.2 16.3-7.8 0-10.1 9-3.6 14-7.2-.6-9.5 10.5-2 13.1-9.7-1.1-8.1 12.4-2.3 13.6-6.2-.7-11.5 11-3.2 14.7 5.5 2.5 30.9 1.6 54.1 2.6l17.5-83.7c-25.2-7.5-44.3-19.4-47.5-19.4z"/><path class="st0" d="M266.6 178.4c-3.2-.4-6.5-1-9.6-1.6l-16.5 81.1c5 .6 9.6 1.4 13.4 2.4l1.2.3 16.1-81.5c-1.6-.3-3.1-.5-4.6-.7z"/><path class="st5" d="M340.1 200.4c-.8 0-33.9-15.8-68.9-21.4l-16.1 81.6c23.7 7.3 70.9 44.1 70.9 44.1l14.1-104.3z"/><path class="st6" d="M191.3 167.7c4.2 2.8 29.6 15.6 62.7 21.5 50.1 8.9 78.7 23.4 78.7 23.4M185.5 182.1c4.9 3.9 29.1 13.3 64.7 19.4 35.6 6.1 75.8 18.1 75.8 18.1M181.2 198.4c4.2 3.6 33.5 10.6 66.1 16.1 32.6 5.5 74.1 15.5 74.1 15.5M177.6 212.4c4.2 3.5 31.7 8 67.7 12.3 36 4.3 76.2 15.2 76.2 15.2M175.7 225.7c5.6 1.9 44.4 7.1 67.4 8.5s69.3 17 69.3 17M173.4 239.3c4.2 2 38.5 4.6 67.7 6.4 29.1 1.8 63.5 20.5 63.5 20.5"/><circle class="st1" cx="326.4" cy="194.1" r="8.1"/><circle class="st1" cx="315.3" cy="242.1" r="8.1"/><circle class="st1" cx="312.3" cy="216" r="8.1"/><circle class="st1" cx="356.4" cy="231" r="39.8"/><circle class="st0" cx="356.4" cy="231" r="23.5"/><path class="st1" d="M341.9 127.5s-10.3-26.5-10.3-31.4c0-4.9 7.9-5.1 10.3 2 2.4 7.1 10.8 31.9 10.8 31.9l17.7 3.4s-3.4-27.8-2.9-33.3c.5-5.5 6.9-3.9 9.8 2.5s2.9 36.5 2.9 36.5l15.8 2.3s1.1-30.5 3.8-35.4c2.7-4.9 8.3-2.9 8.8 2.5s2.5 36.9 2.5 36.9l12.7 5.5s1-25.9 3.9-29.4 10.9.9 10.3 5.8c-.6 4.9-4.9 31.4-4.9 31.4l9.3 8.3s8.7-22.6 10.8-27.8c2.1-5.2 9.2 4.8 6.4 11.6s-12.3 29.9-12.3 29.9l4.4 7.4s11.8-16.3 15.7-16.3c3.9 0 5.9 4 5.9 7.5 0 3.4-21.1 21.6-21.1 21.6l-82.9-59.2-27.4-14.2z"/><path class="st1" d="M326 140.9c.7 2 1.6 3.9 2.6 5.7 8.3 12.7 33.3 15.2 62.3 28.9 28.9 13.7 29.4 34.3 29.4 34.3.3-1.6 3.7-2.2 8.9-2.2-3.5-8.5-9.5-21-18.2-32.1-12.1-15.2-64.7-29.6-85-34.6z"/><path class="st7" d="M454.4 210.5c3.5.7 7 1.4 10.1 2.2-5.5-16.5-18.5-51.7-31.6-62-17.2-13.6-61.8-17.7-101-33.9-2.7-1.2-5.6 2.6-6.9 8.3 21.1 5.4 81.3 21.2 99 30.4 14.4 7.3 24.9 35.9 30.4 55z"/><path class="st5" d="M324.5 130.7c-.1 3.3.3 6.9 1.5 10.3 20.4 5 73 19.3 85 34.6 8.7 11.1 14.7 23.5 18.2 32.1 4.6 0 10.6.6 16.9 1.5-3.8-12-11.4-32.7-20.8-42.4-11.6-11.9-79.1-30.5-100.8-36.1z"/><path class="st1" d="M424.2 155.5c-17.7-9.2-78-25-99-30.4-.4 1.8-.6 3.6-.7 5.7 21.7 5.7 89.2 24.1 100.7 36 9.4 9.8 17.1 30.4 20.8 42.4 2.7.4 5.6.9 8.4 1.4-5.5-19.2-16-47.8-30.2-55.1z"/><path class="st2" d="M493.8 252.6c-6.6-.5-24.4.3-52.3 17 5.1 9.1 9.4 20.6 11.5 35.5 6.9 50.4-8.6 89.5-8.6 89.5l24.2 4.9s50.3 56.6 49.8 35.8c-2.5-103.4-18.5-158.4-24.6-182.7z"/><path class="st2" d="M414.2 214.8c-4.3 5.6-6.6 12.9-4.5 18.4 2.5 6.8 19.5 14.6 31.8 36.4 3.5-2.2 7-4 10.2-5.6-7.5-12.1-22.5-34.9-37.5-49.2zM493.8 252.6c-4.3-17.3-9.2-31.6-12.4-34.4-4.5-4.1-18.2-7.7-31.3-9.8l24 46.7c9.6-2.7 16.1-2.8 19.7-2.5z"/><path class="st2" d="M414.2 214.8c15 14.3 30 37.2 37.5 49.2 5.2-2.6 9.9-4.6 14.2-6.3l-41.3-50.5c-3.9 1.1-7.5 4-10.4 7.6z"/><path class="st5" d="M426.7 206.8c-.7.1-1.4.2-2.1.4l41.3 50.5c2.9-1.1 5.7-2 8.1-2.6l-24-46.7c-9.3-1.5-18.3-2.2-23.3-1.6z"/><path class="st0" d="M266.6 387.1c-21-.7-40.6-21.3-40.6-21.3s18.6 35.4 47.1 35.4 24.6-7.6 42.2-7c17.6.6 19.9 5.2 19.9 5.2l8.1-13.1c-5.3-2.5-17.6-7.6-30.5-7.8-17.2-.3-25.4 9.2-46.2 8.6z"/><path class="st2" d="M312.9 364.8c-23.8-1.2-28.7 8.8-47.8 9.5-18.9.7-39.2-8.5-39.2-8.5s19.6 20.6 40.5 21.3 29-8.8 46.2-8.5c12.9.3 25.2 5.3 30.5 7.8l5.6-9.1c.2 0-11.9-11.3-35.8-12.5z"/><path class="st0" d="m350.5 475.3-20.3-84.4s-14.5-1-28 4.8l21.7 82.6c14.3.5 26.6-3 26.6-3z"/><path class="st2" d="M279.6 440.3c3.8 30 25.8 37.3 44.3 37.9l-21.8-82.6c-13.4 5.8-25.9 18.1-22.5 44.7z"/><path class="st1" d="m271.5 468.2-32.8-2.6v13.6l32.8 1.3zM268 500.8l-26.9-1.6v11.9H268zM268 527.9c-1.3-1.1-25.4-2.9-25.4-2.9v14l24.6-1.3.8-9.8z"/><circle class="st1" cx="268.8" cy="458.9" r="8.3"/><circle class="st1" cx="280.5" cy="549.8" r="8.3"/><circle class="st1" cx="316.5" cy="543.3" r="8.3"/><path class="st2" d="m425.7 562.2-64.4-51.1s-6.7 20.6-13.5 42.6l71.6 33.2c3.2-12 6.3-24.7 6.3-24.7zM332.6 661.9c1.6 4.6 42.5 24.8 50.3 23.2 7.8-1.7 21.6-46.1 21.6-46.1l4.9-44.1-47.1-20.3c0 .1-31.3 82.7-29.7 87.3z"/><circle class="st0" cx="371.3" cy="634.6" r="16.2"/><path class="st1" d="M493.7 588.2s-45.5 20.7-62.1 27.8c1 3.6 1.9 6.9 2.5 9.6l61.6-27.8-2-9.6zM498.3 622.4c0-3.7-1-8.3-2.5-13.2l-60.9 22.7c-.4 5.9-15.9 51.7-28.8 89.4l42.2 16.3c21.6-43.9 50-102.9 50-115.2z"/><path class="st5" d="M448.2 737.5 406 721.3c-2.4 6.8-4.6 13.3-6.7 19.3l40.3 14c2.7-5.3 5.5-11 8.6-17.1z"/><path class="st0" d="M449.1 795.2c12.8 10.2 27.8 13.4 29.8 19s-12 11.8-12 11.8l-32.3-18.6-4.6-10.1c.2 0 6.3-12.3 19.1-2.1z"/><path class="st0" d="M439.6 784.2c7.6 2 11.1 11.5 8.9 15-2.3 3.6-19.9 3.6-19.9 3.6l-8.1-10.8c0 .1 11.6-9.7 19.1-7.8z"/><path class="st2" d="M420.5 792.1c-15.7 20.3-15.7 34-15.7 34L371 810.4s2.8-22.1 12.9-31.4c13.9-.9 27.1 3 36.6 13.1zM498.9 611.9s-17.7 177.8-12.6 186.6c5.1 8.8 86.5 1 86.5 1L545 623s-23.5-13.7-24.3-13.9c-.8-.2-21.8 2.8-21.8 2.8z"/><circle class="st0" cx="520.6" cy="673.2" r="17.7"/><path class="st1" d="M508.1 613.9c11.1 17.9 36 23.7 44.1 21.3 8.1-2.5-1.3-18.4 3.6-21.3 4.9-2.8 7.2 2.5 10.5 2.5 3.2 0 3.6-5.1 2.9-7.4-.7-2.3-23.2-5.3-26.2-8.8-2.9-3.5-2-8.9 2-10.6 3.9-1.7 27.8 1.5 33-.7 5.2-2.2-3.2-17.9-3.2-17.4 0 .6-26.5-29.7-26.5-29.7s-50.3-3.6-51.3-4.2-18.3 19.4-18.3 19.4 18.3 38.9 29.4 56.9z"/><path class="st2" d="m566.9 367-4.5 16s7.3-.4 15.1-1l.2-16.1-10.8 1.1z"/><path class="st2" d="m577.6 365.9-.2 16.1c4-.3 8.2-.6 11.7-1v-16.3l-11.5 1.2z"/><path class="st2" d="m597.3 372.4-8.2-7.6V381c3.7-.4 6.5-.7 7.3-1 2.6-1 .9-7.6.9-7.6z"/><circle class="st1" cx="569.9" cy="429.7" r="6.4"/><path class="st1" d="m518.8 445.7 7.6 42s4.7-.3 12.1-.8l-1.4-39.6c-11-.9-18.3-1.6-18.3-1.6z"/><path class="st5" d="m628.6 481.2-1.9-30.6c-.6 3.6-59-.8-89.7-3.3l1.4 39.6c23.3-1.6 73.1-4.9 80.5-5.4 3-.2 6.5-.2 9.7-.3z"/><path class="st3" d="m519.6 494.8-3.4 25.1 41.5 5-3.3-30.1z"/><path class="st1" d="M649.3 418.6c-.9-4-3.8-6-7.1-5.8-.3 5.8-1.3 14.8-4.1 16.9-1.8 1.3-4.4.7-6.9-.4-2.3 8.6-4.1 18.4-4.5 21.4l1.9 30.6c7.2-.2 13.7-.8 15.3-5.2 2.3-6.5 3.9-25.2 3.4-37.9-.5-12.6 3.5-13 2-19.6z"/><path class="st2" d="M638.2 429.7c2.8-2.1 3.8-11.1 4.1-16.9-2 .1-4 1.1-5.7 3-1.8 2.1-3.6 7.5-5.3 13.4 2.5 1.2 5.1 1.8 6.9.5z"/><circle class="st6" cx="257.4" cy="425.2" r="6.4"/><path class="st5" d="M276.4 106.7s-45.8 2.7-54.6 16.6c24.8 7.5 57.2 0 57.2 0l-2.6-16.6z"/><path class="st2" d="M278.9 112.8s-39.9-.5-50-20.2c27.6.1 50 10.1 50 10.1v10.1z"/><path class="st1" d="M301.5 111.3S280.9 98.1 277 101c-3.9 2.9-4.9 28-1.7 32.1s22.3-2.4 22.3-2.4l3.9-19.4z"/><path class="st2" d="M316.6 116.5s-12.8-8.7-16.4-9.6c-5.1-1.4-6.6 4.4-3.9 8.8-4.2.8-5.2 6.5-2 9.3-4.9 5.7-2.3 12 2.9 12 5.2 0 16.2-6.4 16.2-6.4l3.2-14.1z"/><path class="st6" d="m296.3 115.7 16 3.8-2.3 7.5-15.7-1.9"/><circle class="st0" cx="316.6" cy="123.3" r="12"/><circle class="st3" cx="470" cy="321.2" r="6.9"/><circle class="st3" cx="458.6" cy="300.3" r="6.9"/><circle class="st3" cx="463.2" cy="282.7" r="6.9"/><circle class="st3" cx="480.5" cy="275.6" r="6.9"/><circle class="st3" cx="487.5" cy="325" r="6.9"/><circle class="st3" cx="501" cy="316.6" r="6.9"/><path class="st2" d="M461.7 300.3c0 4.6 1.6 8.9 4.1 12.4l9.9-31.8c-8.1 2.7-14 10.4-14 19.4zM493.7 283.4 487 302l15.1 2.9c.4-1.5.6-3 .6-4.7 0-7-3.6-13.2-9-16.8z"/><path class="st0" d="M493.7 283.4c-3.3-2.3-7.3-3.5-11.6-3.5-2.3 0-4.4.4-6.5 1.1l-9.9 31.8c3.7 4.9 9.6 8.1 16.4 8.1 9.7 0 17.8-6.8 19.9-15.8l-15.1-2.9 6.8-18.8zM518.7 431.6c2.9 4.7 5.5 9.6 7.6 14.8 2.8.3 6.5.6 10.6.9-.6-5.3-1.3-11.1-2.1-17.1l-16.1 1.4z"/><path class="st3" d="M475.7 395.7h0c14.1 5.8 26.5 14.9 36.1 26.5l21.9-1.5c-.5-3.6-.9-7.4-1.4-11.2l-56.6-13.8z"/><path class="st1" d="M543.2 348.4c2.1 3.2 15.6-2.7 36.6-4.2 12.6-.9 25.3 2.6 33.6 5.7-1.2-5-7.8-14.7-12.5-18-4.8-3.6-8.5-5.2-11.5-10.5-.9-1.5-1.9-4.7-3.2-8.7-18.3.1-45.7.4-46.8 1.7-1.5 1.9 1.6 30.8 3.8 34z"/><path class="st3" d="M556.9 425.6c6.3-.5 26.7-.4 27.4-15.7-.3-9.1 17-3.2 14.7-13.7 0-3.2-32.1 3.4-32.1-12.1 0-11.5 30.4-11.8 30.4-11.8v-11.1s2 1 8.1 1c6.2 0 8.6-6.9 8-11.5 0-.3-.1-.6-.2-.9-8.3-3-21.1-6.6-33.6-5.7-21.1 1.5-34.5 7.6-36.6 4.2-2.1-3.2-5.2-32.2-3.6-34.1 1.1-1.3 28.3-1.6 46.8-1.7-1.6-4.6-3.7-10.4-6.7-15.9-15.3.4-52.4 4.7-61.7-3.2-5.7-4.1-9.8 7.2-5.9 11.6 3.9 4.4 11.1 7.6 13.8 25.6 2.8 17.8-3.2 24.1-2.5 32.1s6.8 8.4 7 19.3c.2 10.9.9 35.3 6.4 65.4 4.4.4 9.3.8 14.6 1.2.3-7.3.9-22.6 5.7-23z"/><path class="st2" d="M552.9 328c.8-2.1 19-5.1 21.2-2.1 2.2 3-2.3 10.1-6.4 10.4-10.8.8-15.6-6.2-14.8-8.3z"/><circle cx="565.2" cy="329" r="3.4" style="fill:#fff;stroke:#000;stroke-width:3.3942;stroke-linecap:round;stroke-linejoin:round;stroke-miterlimit:10"/><path class="st3" d="m524.7 324.7-15.3 1.7c.6 3.6 1.1 7.4 1.6 11.3l15.4-2.9c-.1-1.3-.3-2.6-.5-4.1-.4-2.3-.8-4.2-1.2-6z"/><path class="st2" d="M553.9 371.7c8-6.4 32.5-5.8 43.4-5.1v-5.4s-27.3-4.1-43.1 0-17.4 13.4-14.9 32.6c2.5 19.1 12.2 31.4 17.7 31.9 6.3-.5 26.7-.4 27.4-15.7 0-.6 0-1.2.2-1.6-6.5 0-15.4-.7-22.1-3.8-11.9-5.5-19.1-24.6-8.6-32.9z"/><path class="st1" d="M566.9 384.1c0-11.5 30.4-11.8 30.4-11.8v-5.8c-11-.7-35.4-1.3-43.4 5.1-10.5 8.3-3.2 27.5 8.5 32.9 6.6 3 15.5 3.7 22.1 3.8 1.7-6.9 16.7-2.4 14.6-12.2-.1-3.1-32.2 3.5-32.2-12z"/><circle class="st1" cx="561.3" cy="364.2" r="6.4"/><circle class="st1" cx="554.9" cy="397.6" r="6.4"/><circle class="st1" cx="571.8" cy="412.3" r="6.4"/><path class="st3" d="M508.3 370.6c-7 0-12.6 5.6-12.6 12.6s5.6 12.6 12.6 12.6c3.1 0 6-1.2 8.1-3-.5-7-1-13.7-1.6-20.1-1.8-1.4-4.1-2.1-6.5-2.1zM379.2 414.1c-5.1-8.5-16.1-27.1-28.4-48.3-10.5 6.9-32.7 25.4-27.4 58.2 4.4 27.6 17.9 46 27.2 55.7.2-25.9 11.2-49.2 28.6-65.6z"/><path class="st0" d="M332.3 403.2c-8 1.7-14 8.8-14 17.4 0 9.8 7.9 17.7 17.7 17.7 2.5 0 4.8-.5 7-1.4l4.4-23.9-15.1-9.8z"/><circle class="st1" cx="298.7" cy="462.9" r="8.3"/><path class="st2" d="M350.5 480.5c0-1.2 0-2.3.1-3.3-2.6-.4-5.7-.8-8.9-1.2l7.9 53.9c2.2-.6 4.2-1.1 6.3-1.7 1.2-3.7 2.3-7 3-9.6-5.4-11.5-8.4-24.4-8.4-38.1z"/><path class="st3" d="M255.4 533.2c4.6 4 18.7 8.8 32.1 9.9l-2-21.8c-11.7 2.5-28.4 8.5-30.1 11.9z"/><path class="st2" d="M314.4 537v-16.6s-5.6-.5-12.6-.4l1.8 22c7.3-1.9 10.8-5 10.8-5zM291.4 520.4c-1.7.2-3.7.5-5.9.9l2 21.8c1.8.1 3.5.2 5.2.2 1.1 0 2.1 0 3-.1l-2-22.9c-.8-.1-1.5 0-2.3.1z"/><path class="st3" d="M295.8 543.2c3-.2 5.6-.6 7.9-1.2l-1.8-22c-2.5 0-5.4.1-8.1.3l2 22.9zM250.9 507.3c3.9 3.9 21.1 9.3 34.4 10.8l-2.2-23.7c-13.1 2.8-31 10.4-32.2 12.9z"/><path class="st2" d="M314.4 511.1v-12.9s-6.5-2.7-14.6-4.1l1.9 23c7.7-2.2 12.7-6 12.7-6zM293.6 518.4l-2.2-25.1h-.1c-2.3 0-5.2.4-8.3 1.1l2.2 23.7c2.2.2 4.2.4 6.2.4.8 0 1.4-.1 2.2-.1z"/><path class="st3" d="M293.6 518.4c2.9-.2 5.6-.7 8-1.4l-1.9-23c-2.6-.5-5.5-.8-8.3-.8l2.2 25.2zM299.5 490.3l-1.8-22.2c-2.8-1.2-5.8-2.2-8.6-2.6l2.2 24.7c3.1.2 5.9.2 8.2.1zM252.8 472s13.8 13.5 29.8 17.2l-2.2-23.6c-11.9 1.3-27.6 6.4-27.6 6.4z"/><path class="st2" d="m291.2 490.2-2.2-24.7c-.1 0-.3-.1-.4-.1-2.3-.3-5.1-.3-8.2.1l2.2 23.6c1.6.4 3.2.7 4.9.8 1.2.2 2.5.3 3.7.3zM312 487.7V476s-6.5-4.6-14.2-7.8l1.8 22.2c8.8-.6 12.4-2.7 12.4-2.7z"/><path class="st1" d="M309.3 474.3c-7.2 2.3-3.6 20.3 2.6 20.9-6.6 2.6-5.9 19.9 1 21.3-4.6 3.6-2 21.3 3.2 21.3 1.8 0 8.6-1.6 16.9-3.6l-8.2-59.8c-7.1-.6-13.1-.8-15.5-.1z"/><path class="st0" d="M341.7 476c-5.4-.7-11.4-1.3-16.7-1.8l8.2 59.8c5.2-1.3 11-2.7 16.5-4.2l-8-53.8z"/><path class="st6" d="m312 495.2 55.2-5.9M312.9 516.5l56.2-10.8"/><circle class="st0" cx="236.8" cy="532.2" r="9.3"/><circle class="st0" cx="234" cy="504.2" r="9.3"/><circle class="st0" cx="232.7" cy="472.2" r="9.3"/><path class="st1" d="M645.4 438.2c-6.2 2.2-4.4 13.4-1 13.4-6.2.5-7.8 13.2-2 13.2-3.6 3.4-4.9 9.6-1 13.1 3.9 3.5 20.6 3.8 26 2.5 5.4-1.3 8.3-12.3 3.9-15 3.4-2.6 8.3-10.5 2-12 2-3.7 2.5-12.5-4.4-14.4-6.9-1.8-17.4-3.1-23.5-.8z"/><path class="st6" d="M662.5 452.1s-12.6 2.9-18.1-.5M662.5 465.2s-14.5 3-20.1-.4"/><circle class="st3" cx="655.6" cy="402.9" r="8.3"/><circle class="st1" cx="599.9" cy="467.7" r="6.3"/><circle class="st1" cx="615.6" cy="455" r="6.3"/><circle class="st1" cx="615.6" cy="476" r="6.3"/><circle class="st1" cx="575.5" cy="455" r="7.8"/><circle class="st1" cx="558.7" cy="454.5" r="7.8"/><circle class="st1" cx="552.8" cy="481.5" r="7.8"/><circle class="st1" cx="574.7" cy="481.5" r="7.8"/><path class="st0" d="M579.8 447.7c-3 3.9-.9 33.2 0 37.5.9 4.2 14.9 3.6 15.5-1 .6-4.6.1-33.5-1.8-36.5s-10.8-4-13.7 0zM584.6 557s49 5.3 48.3-1c-.7-6.3-49-16.4-49-16.4s42.2 3.5 42.9-2.6c.3-2.9-23-8.8-48-14.2v50.9c29.6 4 57.8 7.4 57.8 5.8-.1-3.2-52-22.5-52-22.5z"/><path class="st2" d="m520.6 511.1-28.3 30.8 19 22.3s34.6 5.1 67.4 9.5v-50.9c-28.1-6.1-58.1-11.7-58.1-11.7z"/><path class="st6" d="m583.9 539.7-85.6-11.8M501.8 546.2l82.8 10.8"/><path class="st3" d="m518.4 529.9-21.5 7.8L503 557s17.5 1.3 33.9 1.5L536 529c-9.4.2-17.6.9-17.6.9z"/><path class="st0" d="M559.1 529.9c-3.2-.8-8.1-1.1-13.4-1.2l1.3 29.6c5.9-.2 11.2-.6 14.5-1.4 13.9-3.2 8.3-24.4-2.4-27z"/><path class="st2" d="M536.9 558.5c3.4 0 6.8 0 10-.1l-.4-9.1-9.8.5.2 8.7zM545.6 528.8c-3.1 0-6.4 0-9.6.1l.3 8.8h9.7l-.4-8.9z"/><path class="st2" d="m536.3 537.7.4 12.1 9.8-.5-.5-11.6z"/><circle class="st1" cx="469.6" cy="602.9" r="9"/><path class="st1" d="M347.8 553.7c-7.3 23.2-14.7 48-14.7 52.1 0 7.8 6.2 10 9.5 5.2s10.9-27.2 13.8-26.5c2.9.7-6.6 24.2-8.1 28.7-1.7 4.6 11.7 8.3 13.7 4.9 2.1-3.4 12.4-25.5 14.7-25.8 2.4-.3-8.4 31.7-8.4 35.3s7.4 6.6 8.4 3.9c7.2-13.7 8.8-32.7 12.2-32.4 3.2.3-5 29.4-5 34.3 0 4.9 6.6 5.5 7.9 2s6.6-30.1 9.5-28.7c2.9 1.3-6.2 34-4.2 37.6 2 3.5 9.1 3.2 11.5 0 2.3-3.2 2.5-29.4 6.2-40.5 1.3-3.9 3-10.3 4.8-16.9l-71.8-33.2z"/><path class="st2" d="m338.9 667.1-43.2 65.8s45.7 21.3 52.1 21.3c6.1 0 33.4-55.7 35.9-69.2-.3.1-.5.3-.8.3-6 1.1-31.8-10.6-44-18.2z"/><circle class="st0" cx="344.4" cy="709.5" r="12.3"/><path class="st0" d="M484.3 660.7s27.5 7.6 30.1 10.1c2.6 2.6 2.9 9.1-1.3 9.8-4.2.7-34-8.8-33-8.8s30.7 12.5 32.1 15.7c1.3 3.2-2.3 10.1-6.2 11.1-3.9 1-31-16-30.9-16 .1 0 23.8 23.5 25.9 27 2.1 3.4-.9 11-8.4 8.3s-24-28.1-24-28.1l15.7-29.1z"/><path class="st2" d="M482.3 660.7c-3.9-3.9-48-25-52-25-2.9 0-11.9 20.4-16.2 32.3l60.3 26.1c4.7-10.8 10.6-30.7 7.9-33.4zM411.7 676c-1.5 4.1-3.2 8.8-3.2 9.7 0 3.6 54.7 23.2 57.6 23.8 1.9.4 1.4-2.2 4.2-8.7L411.7 676z"/><circle class="st3" cx="476.7" cy="664.6" r="9.6"/><circle class="st1" cx="467.1" cy="682.7" r="9.6"/><path class="st9" d="M427 838.3c-.1 0-.1 0 0 0zM425.3 837c-.1 0-.1-.1-.2-.1.1 0 .2.1.2.1zM425.7 837.3l-.2-.2c0 .1.1.2.2.2zM426.8 838.2c-.1-.1-.1-.1 0 0-.1-.1-.1-.1 0 0zM426.5 838c-.1 0 0 0 0 0zM427 838.4zM426.3 837.9l-.2-.2c.1 0 .1.1.2.2zM425.1 836.8c-.1-.1-.1-.1-.2-.1.1 0 .1.1.2.1zM424.9 836.6s-.1 0 0 0c-.1 0 0 0 0 0zM425.9 837.5z"/><path class="st6" d="m426.7 838.1-.2-.2c.1.1.1.2.2.2z"/><path class="st5" d="M423.8 786.8c.5-1.3 4.6-9.5 10.7-21.8l-38.9-13.6c-3.7 10.5-6.3 18-7.1 20-.4 1-.7 2.4-1.1 3.8l36.3 11.8s.1-.1.1-.2z"/><path class="st6" d="M426.9 838.3c-.1-.1-.1-.1 0 0-.1-.1-.1-.1 0 0zM427 838.4s0-.1 0 0c0-.1 0 0 0 0zM426.4 838h0c-.1-.1 0-.1 0 0zM424.9 836.7s0-.1 0 0c0-.1 0 0 0 0zM425.2 836.9c-.1 0-.1-.1 0 0-.1-.1-.1 0 0 0z"/><path class="st1" d="M468.6 824.4c-3.9-3.9-19.6-9.8-30.1-17.9-10.3-8-16.4-13.8-14.8-19.3l-36.3-11.8c-2.9 12.1-5.8 37.4-5.8 37.4l45.4 25.8h-.1 0l-.1-.1-.1-.1-.1-.1-.2-.2-.1-.1-.1-.1-.2-.2-.2-.2h0l-.2-.2-.2-.2c-.1-.1-.1-.1-.2-.1s-.1-.1-.2-.1l-.1-.1c-.1-.1-.1-.1-.2-.1 0 0-.1 0-.1-.1h0l.1.1s.1.1.2.1l.1.1s.1.1.2.1.1.1.2.1l.2.2.2.2h0l.2.2.2.2.1.1.1.1.2.2.1.1.1.1.1.1h.1c1.9 13.4 15 11.5 14 7.2 2.9 5.9 13.4 5.6 13 0 2 4.3 11.8 4.3 11.1 0 2.9 4.3 8.8 2.9 9.1-2.3.5-5.4-1.7-15.2-5.6-19.1z"/><path class="st6" d="M424.8 836.6h0zM425.5 837.2c-.1-.1-.1-.1-.2-.1.1 0 .1 0 .2.1zM426.1 837.7l-.2-.2.2.2zM425.9 837.5l-.2-.2c0 .1.1.1.2.2z"/><path class="st0" d="m439.6 754.7-40.3-14c-1.4 3.8-2.6 7.5-3.7 10.8l38.9 13.6c1.6-3.2 3.3-6.8 5.1-10.4z"/><circle class="st3" cx="404.7" cy="765" r="8.4"/><path class="st0" d="M387.6 769.8c-6 1.7-7.4 8.5-3.6 12.1 3.6 3.6 34.6 11.6 40.5 12.4s7.6-12.6 3.6-13.9c-4.1-1.5-34.6-12.3-40.5-10.6z"/><path class="st2" d="M373.1 808.3c-4.6 0-5.6 9.8-.2 12.1 5.4 2.3 48 22.6 50.9 22.6s7.4-8.5 3.9-10.1c-3.5-1.6-50-24.6-54.6-24.6z"/><path class="st0" d="M513 615.2s.9-3.7.8-9.3c-4.2-.1-9.5.2-14.9 2-5.9 1.9-9.9 4.6-12.4 6.8 2.7 1.4 5.4 2.3 7.2 3.8 4.6 3.9-.7 16.2-4.9 32.4 16.4-3.9 18.6-20.9 18.6-20.9s8.1 16.7 21.3 14.3c-6.2-11.1-15.7-29.1-15.7-29.1z"/><path class="st2" d="M513.8 605.9c-.1-3.5-.5-7.7-1.8-12.3-3.3-11.9-12.1-21.9-12.1-21.9l-9.8-8.8-5.2 11.8s-13 10.7-9.1 25.6c2.4 8.9 6.7 12.3 10.8 14.3 2.5-2.2 6.5-4.9 12.4-6.8 5.3-1.7 10.6-2.1 14.8-1.9z"/><path class="st1" d="M477.4 561.6s1.6 22.3 4.2 25.3 12.7.1 12.1-2.1c-.6-2.2-4.2-12.9-1.7-14.4 2.6-1.4 12.5 12.6 15.7 14 3.2 1.5 14.1-3.2 11.8-5.2-2.4-2-10.8-7.8-11.1-10.5-.3-2.6 11.5 5.9 14 5.9 2.6 0 4.9-9.1 3.2-11.1-1.7-2-13.7-1-13.7-2.9 0-2 8.1-2.5 9.8-4.3 1.7-1.9-2-7.3-5.6-7.6-3.6-.3-23.5 3.1-23.5 3.1l-15.2 9.8z"/><path class="st2" d="M418.2 242.5c-.7-6-1.3-9.7-1.8-10.2-3.5-3.8-26.9-6.5-58.9-.1-32.1 6.3-56.6 15.3-59.1 29.3-.4 2.1 1.2 7.1 4.2 14 7.9-6.7 27-20.2 57.9-28.1 28.7-7.3 48.2-6.2 57.7-4.9zM382.3 419l47-23.8s-2-34-4.5-71c-31.3 3.6-67.9 19.3-82.7 26.3 20.3 35.7 40.2 68.5 40.2 68.5z"/><path class="st2" d="M420.8 270.8c-1-11.5-1.9-21.4-2.6-28.2-9.4-1.4-28.9-2.5-57.9 4.9-31 7.9-50 21.5-57.9 28.1 3.2 7.6 8.2 17.6 14.1 28.7 9.3-5.9 28.2-16.8 54.2-24.5 22.9-6.8 40.2-8.6 50.1-9zM421.5 279.6c-8 .6-22.7 2.7-45.8 9.6-26.5 7.8-44.9 18.6-53.9 24.7 2.3 4.1 4.5 8.3 6.9 12.6 13.8-6.9 53.3-25.1 94-32.2-.4-5-.8-9.9-1.2-14.7z"/><path class="st3" d="M328.6 326.6c4.3 7.8 8.9 16 13.4 23.8 14.9-7 51.4-22.7 82.7-26.3-.7-9.9-1.4-20-2.1-29.7-40.6 7.1-80.2 25.3-94 32.2zM421.5 279.6c-.2-3-.5-6-.7-8.8-9.9.4-27.2 2.3-50 9-26 7.7-44.9 18.6-54.2 24.5 1.7 3.1 3.3 6.4 5.2 9.6 9-6.1 27.5-16.9 53.9-24.7 23-6.9 37.8-8.9 45.8-9.6z"/><path class="st0" d="M422.5 395.5 374 229.6c-5.2.6-10.7 1.5-16.5 2.5-7.8 1.6-15.2 3.2-22 5.1l68.3 166.7 18.7-8.4z"/><circle class="st0" cx="441.7" cy="480.5" r="91.2"/><circle class="st2" cx="441.7" cy="480.5" r="72.6"/><path class="st2" d="M375.7 417.7c14.9 16.8 61.7 68.8 66.1 67.5 4.3-1.4 9.5-70.9 11.2-95.1-3.6-.5-7.5-.7-11.2-.7-26.1-.1-49.5 10.8-66.1 28.3z"/><path class="st0" d="M435.2 465.5c1.9 0 4.5-49.4 5.8-76.2-21.7.2-41.7 7.9-57.2 20.8 18.1 20.4 49.6 55.4 51.4 55.4z"/><path class="st2" d="M404.8 684.3c-.8 1.2-1.5 2.4-2 3.5l10.9 7.5c.9-1 1.7-2 2.4-3.2 4.5-7.8 1.6-15.7 1.6-15.7s-6.7-.9-12.9 7.9z"/><path class="st3" d="M402.5 702.1s6.5-1.6 11.2-6.9l-10.9-7.5c-3.2 7.7-.3 14.4-.3 14.4z"/><path class="st2" d="M434.8 684.3s-8.8 2.5-11.4 11.7c-.1.3-.2.6-.2.9l13 4.2.3-.9c2.9-9.3-1.7-15.9-1.7-15.9z"/><path class="st3" d="M423.8 713.9s9.2-4.2 12.5-12.8l-13-4.2c-2.3 8.8.5 17 .5 17zM454.2 718.4s5.1-3.3 6.1-11.4l-12.9-2.1c.1 9.2 6.8 13.5 6.8 13.5z"/><path class="st2" d="M455 691.2s-7.8 3.6-7.8 13.2v.6l12.9 2.1c.1-.9.2-1.7.2-2.6 0-10.2-5.3-13.3-5.3-13.3z"/><path class="st6" d="M460.3 831.9s4.9 2.6 4.9 13.7M449.2 831.9s4.9 3.9 4.9 13.7M436.5 831.9s6 3.9 4.6 13.7"/><circle class="st0" cx="521.9" cy="754.6" r="23"/><path class="st0" d="M414.1 667.9c-1.5 4.1-2.5 7.2-2.5 8 0 3.6 55.7 24.2 58.5 24.8.8.2 2.4-2.6 4.2-6.8l-60.2-26z"/></svg>