<svg version="1.1" id="Calque_1" xmlns="http://www.w3.org/2000/svg" x="0" y="0" viewBox="0 0 900 900" style="enable-background:new 0 0 900 900" xml:space="preserve"><style>.st0,.st1,.st2,.st3{fill:#007a03;stroke:#000;stroke-width:3.634;stroke-linecap:round;stroke-linejoin:round;stroke-miterlimit:10}.st1,.st2,.st3{fill:none}.st2,.st3{fill:#ffce00}.st3{fill:red}.st4{fill:#fff}.st4,.st5,.st6,.st7{stroke:#000;stroke-width:3.634;stroke-linecap:round;stroke-linejoin:round;stroke-miterlimit:10}.st6,.st7{fill:#441800}.st7{fill:#ff7300}</style><path class="st0" d="M691.2 524.3s-7.3 45.2-5.9 50.7c1.4 5.5 8.6 4.5 11.4-2.3 4.8 1.4 10.2 3.4 11.6-5.5 1.4-8.9-3.4-40.9-3.4-40.9l-13.7-2z"/><path class="st1" d="m696.6 572.7 5-45.7"/><path class="st0" d="M732.7 568.1c4.1 4.1 10.9-4.1 10.9-4.1s9.5 14.8 12.9-2.3c2.7-13.6-7.5-42.9-7.5-42.9s-14.1-8.2-15.2-2c-1.1 6.1-5.1 47.2-1.1 51.3z"/><path class="st1" d="M743.7 564v-43.8"/><circle class="st2" cx="696.5" cy="521.6" r="9.9"/><ellipse class="st2" cx="741.2" cy="513.4" rx="9.2" ry="12.3"/><path class="st3" d="M690.3 437.7s-3.9 66.8 9.8 73.6c13.6 6.8 47.7-10.2 51.8-19.8 4.1-9.5 0-58.6 0-58.6l-61.6 4.8z"/><path class="st2" d="M706.2 431.6s-2.7 49.1 0 53.2c2.7 4.1 27.9 2.7 28.6-4.8.7-7.5-4.8-46.3-4.8-46.3l-23.8-2.1zM750 400.7c-2.5-11.6-2.6-41.3-13.9-47.3-11.6-6.1-46.3 3.9-46.3 3.9s-8.4 17.7-8.4 34.1c0 4.5-.1 10-.2 15.9 27.1-18.3 59.7-9.6 68.8-6.6z"/><path class="st3" d="M750.2 401.6c-.1-.3-.1-.6-.2-.9-9.1-3-41.7-11.7-68.8 6.5-.2 15.5-.4 32.6 1.1 34.1 2 2 72.5-3.2 73.1-6.6.8-3.3-2.4-22.2-5.2-33.1z"/><path class="st1" d="M691.1 440.9v-22.8M698.4 440.9l.5-22.3M707.5 440l-.5-22.8M714.3 440l-.5-23.2M721.1 440l-.4-23.2M729.3 438.6l-.5-21.8M737.5 437.2V415M746.6 436.8l-1.4-22.3M681 369.6c37.5-19.1 62-5.5 62-5.5M679.6 379.8c29.3-20.4 66.3-7.4 66.3-7.4"/><path class="st1" d="M679.4 389.8c34.1-23.9 67-7.3 67-7.3"/><path class="st1" d="M679.6 396.2c32.7-19.1 68.1-4.8 68.1-4.8"/><path class="st3" d="m648.2 741.6 43.7-12.9-70.2-160.1-16.8 8.1z"/><path class="st4" d="M610.1 578.8 653.7 730l23.8-8.2-61.2-150.4z"/><path class="st4" d="M415.2 529.7s-17.9-3.2-15.9-29.1c2-25.9 6.1-31.8 6.1-31.8s-17.9 14.1-35 15.4c-17 1.4-56.8-1.6-85.4-2.3-28.6-.7-60 2.7-60 2.7L204.6 433l8.9-57.2s2.7-7.5 9.5-9.5 12.3 8.2 12.3 13.6 7.5 51.1 10.2 55.2c2.7 4.1 21.1 4.1 40.9.7s40.9-9.1 50.4-9.8c9.5-.7 19.8-1.1 19.8-1.1s27.9-16.6 38.2-21.4c10.2-4.8 25.9-8 25.9-8l1.4-7.5 66.8-62.7 66.8 2 22.5 66.8s20.2 18.2 24.8 27.5c4.5-6.4 16.8-25 32.5-40s37.7-32.5 39.1-34.5c1.4-2-.2-38.2 1.1-53.8 1.4-15.7 7.5-19.1 12.9-19.1 5.5 0 10 6.4 10 6.4l-6.6 83.6s-20.4 64.1-40.2 92.7c-19.8 28.6-48.4 53.8-57.2 52.5-7.4-1.4-15.7-12.3-15.7-12.3l12.9 34.8 12.3 86.5-8.2 32.7 16.4 27.9 4.8 16.4 19.1 65.9s16.1.9 19.5 10.2c2.5 6.7-3.6 15-3.6 15s11.6 7.7 13.6 15.2c2 7.5 1.1 27.3 1.1 27.3l-99.5 18.4s-5.5 4.1-10.2 0c-4.8 2.7-9.8-.5-9.8-.5s-6.6 3.2-9.3-.9c-3.4 1.4-5.5 4.1-8.9 4.1s-9.1-2.7-7-8.9c2-6.1 26.8-27.7 26.8-27.7l-6.1-32 47-9.8-42.9-70.9s-9.5-17.7-14.3-37.5c-4.8-19.8-3.9-64.1-3.9-64.1L469 587.6s-6.8 32.7-8.9 38.8c-2 6.1-9.8 2-9.8 2l-9.1 40.7-10.4 9.8-60 68.8s6.6 6.6 5.9 12.9c-.7 6.3-8 12.3-8 12.3s8.9 21.1 9.5 27.3c.7 6.1.7 16.4.7 16.4L261 822.7s0 9.5-9.5 6.1c-6.8 3.4-8.2 2-10.2.7-.7 3.4-8.2 4.8-8.2-1.4-7.5 1.4-14.3.7-10.9-10.2 3.4-10.9 27.3-25.9 27.3-25.9l.7-35.4 62.7-10.2s9.5-6.4 19.1-8c7.5-26.8 27.9-92.9 27.9-92.9l17-46.3 38.3-69.5z"/><path class="st5" d="M281.6 444.5s4.8 7.5 4.1 32c10.2.7 73.6.7 86.5-1.4s38.2-17 38.8-19.1c6.8-18.4 8.9-52.5 8.9-52.5s-26.6 2-56.6 29.3c-25.1-1.9-81.7 11.7-81.7 11.7z"/><path class="st5" d="M409.1 518.1c-12.3-25.2 8-58.1 10.4-69.5 6.8-30.9 6.4-53.8 6.4-53.8s43.8-22.5 75.2-55.2c20.4 12.9 49.7 44.3 68.8 57.2 19.1 12.9 31.3 38.2 31.3 38.2s39.5-51.8 51.8-58.6c7.5 4.8 17.7 10.2 23.6 14.8-12 37-59.1 107.2-83.6 110.6-3.4-.7-49.1-54.5-49.1-54.5l3.4 12.3s17 19.8 21.1 27.9c4.1 8.2 15.7 45.7 15.7 45.7l11.6 83.8-8.7 36.1 21 29.3 21.1 81.8-32.7 5.5s-37.5-62.7-42.9-75c-5.5-12.3-8.9-20.4-12.3-32.7-3.4-12.3-6.8-63.4-6.8-63.4l-72.2-19.8-11.8 49.7-14.1 14.3s1.4 10.2-1.4 21.1c-10.9 8.2-70.9 81.8-70.9 81.8l-25.9-4.8s25.9-90 31.3-103.6c5.5-13.6 15-38.2 15-38.2l35.4-68.1c.2.1-3.2.8-10.7-12.9zM374.3 810.4c-5.5-1.4-109.7 2-111.1-1.4s63.4-4.1 65.2-4.1c1.8 0 1.6-30.7.9-34.1-18.4-2.1-21.2-8.4-19.1-19.1-2-1.4-54.5 8.9-54.5 8.9l-.7 27.3s51.7-24.1 53.8-20.9c3 4.5-46.6 23.2-52.9 27.3-10.5 6.8-25.4 20.7-25.4 20.7l28.6 1.6 2 6.1 112.8-5.9c.5-2.1.8-5.1.4-6.4z"/><path class="st5" d="M325.9 745.7c-8.2 1.4-15.7 10-10.2 15.7s39.5 5.6 46.3 5.6 8.9-9.7 5.5-14.5-33.4-8.2-41.6-6.8zM334.1 770.9l.7 33.4h8.2l1.4-22.5 21.1-.2s-1.8-7.3-3.6-8.6c-1.9-1.4-27.8-2.1-27.8-2.1z"/><path class="st5" d="M348.4 787.3V805h24.5s-.7-14.5-3.4-16.6c-2.7-2-21.1-1.1-21.1-1.1zM666.8 822.5c-15.3 3-94.5 18.6-96.9 18.6-2.7 0-2.7-3.4 0-4.8s40.9-8.9 40.9-8.9l-4.1-36.1s-13.7 4.7-20.2-5c-2-2.7-.9-9.3-.9-9.3l-36.8 7.5 6.1 25.2s28.1-21.4 32.9-19.1c2.2 1-49.3 35.4-50.7 41.6 5.5.7 28.6 4.1 28.6 4.1s-1 8.4 1.7 10.8l99.1-18.3c.1 0 .2-2.6.3-6.3z"/><path class="st5" d="M598.5 774.3c-6.8 2.7-12.3 9.8-4.1 11.8 8.2 2 52.2-3.7 53.2-5 2.3-3.3 1.4-11.1-1.4-12.5s-40.9 3-47.7 5.7zM610.8 792l5.5 34.1 12.3-2-2.7-25 26.1-5.2s-3.2-6.8-5.9-7c-2.8-.3-35.3 5.1-35.3 5.1z"/><path class="st5" d="m631.9 802.5 2 20.9 27.3-4.8s-1.4-18.4-4.1-20.4l-25.2 4.3z"/><path class="st1" d="M411.1 456.1s-2.5 7.5-5.7 12.7M244.6 822.7l-3.2 6.8M251.6 822v6.8M236.7 821.3l-5.5 7.5M539.2 837.7l-1.3 8.2M547.8 839.7l-.6 7.1M558.3 839.1l-1.4 8.1"/><path class="st4" d="M219.6 371.6s-2-62 2-67.5c4.1-5.5 17.3-2.5 18.6 4.3 1.4 6.8-5.7 12.7-5.7 12.7s13.2 3.4 15.4 4.8c2.3 1.4 7.3 11.1 4.5 15.9-2.7 4.8-17.3 3.2-20 5.9-2.7 2.7-2 11.6-2 11.6l-8.9 15-3.9-2.7z"/><path class="st3" d="m370.2 605.4-8.8 28.6 86.3 34.9 7-38z"/><circle class="st2" cx="361.4" cy="637.6" r="8.2"/><circle class="st2" cx="436.3" cy="674.2" r="8.2"/><path class="st1" d="m548.8 813.4 6.1-3.7"/><path class="st3" d="M742.3 315.1s40.4-74.3 32.9-89.3-24.1-21.1-36.3-21.8c-12.3-.7-19.8 2-30 22.5-10.2 20.4-16.4 60-15 79 1.4 19.1 48.4 9.6 48.4 9.6z"/><path class="st2" d="M707.5 302.8s15-62 22.5-65.4c7.5-3.4 25.2 2.7 26.6 8.9 1.4 6.1-22.5 62.7-22.5 62.7l-26.6-6.2z"/><path class="st4" d="M753.2 321.9c-8.9-14.3-30.7-22.3-38.8-22.9-2.2-.2-4.6.1-6.9.7-.6 2.1-5.2 19.9 2 53.3 9.9-1.6 21.1-2.5 26.7.5 5.1 2.7 8 10.4 9.7 18.9 6.6-4.2 10.7-13 12.1-17.1s1.3-23.2-4.8-33.4z"/><path class="st4" d="M707.4 299.6c-6.2 1.5-12.1 4.9-13.6 5.9-2 1.4-5.5 49.1-1.4 51.1 3.5-.9 9.9-2.5 16.9-3.6-7-33.5-2.4-51.2-1.9-53.4z"/><path class="st1" d="M721.2 311.9c-11.6 4.8-28.4 5.9-28.4 5.9M721.4 324.2c-9.1 3.2-29.8 5.9-29.8 5.9M723.4 339.1c-9.1 3.2-32 5.9-32 5.9"/><path class="st4" d="m674.5 346.7-.1.4c0-.1.1-.2.1-.4zM684.6 293.3c2.1-1.5 2.9-13.5 3.1-19-5.2.3-10.9 4.1-12.2 19v.6c3.2.4 7.5.5 9.1-.6z"/><path class="st2" d="m333.4 327.3-42.9-.7-1.8 24.6 46.3.2z"/><path class="st2" d="m335 351.4-46.3-.2-.6 8.2 47.4.2z"/><path class="st2" d="m288.1 359.4-1.2 16.4 10.4-16.4z"/><path class="st2" d="m297.3 359.4-10.4 16.4-.5 6h7.1l13.3-22.4zM335.5 359.6l-4.4-.1-9.7 21.8 15.4-.1z"/><path class="st2" d="m306.8 359.4-13.3 22.4 13.6-.2 11.5-22.1zM318.6 359.5l-11.5 22.1 14.3-.3 9.7-21.8z"/><circle class="st5" cx="310.3" cy="338.9" r="5.5"/><path class="st6" d="m559 361.4-17-40.9-43.6 8.2s.3 20.2 1 43.5l52.7-1.1 6.9-9.7z"/><path class="st1" d="M505.8 375.7v-53.1M514.7 376.4v-46.3M522.2 375.7l.7-53.1M532.6 375.7v-53.8"/><path class="st3" d="m458.1 612.2-33.4 181.9 72.3 16.3 31.3-215.9-2.1-57.8-58.6.9z"/><path class="st4" d="m440.4 785.4 40.9 4.6 45.4-250.1-46.4 1.8z"/><path class="st3" d="M615 558c-11.5 1-46.2 3.2-69.7-5.2-21.3-7.6-28.3-20.9-30.4-27.2l-14.3 13.7c2.8 6.1 9.7 17.8 24.9 27.8 18.2 11.9 69 25.8 85.4 30 2.7-10.4 4.8-24 4.1-39.1z"/><path class="st4" d="M545.3 552.9c23.5 8.4 58.1 6.2 69.7 5.2-.5-9.1-1.9-18.6-5-28.3-39.8 4.7-89-13.4-89-13.4l-6.1 9.4c2.2 6.2 9.1 19.5 30.4 27.1zM500.6 539.4l-8.4 8s4.8 33.4 25.9 47.7 85.9 23.2 85.9 23.2 3.9-8.1 7.1-21.1c-16.4-4.3-67.2-18.1-85.4-30-15.4-10-22.3-21.7-25.1-27.8z"/><path class="st1" d="m498.6 570.2 4-11M505.1 579.5l3.5-15.7M512 589l4-16.3M518.1 595.1l2.7-12.2M526.7 599.9l1.4-14.3M533.8 602l1.3-11.6M543.8 604.9v-10.4M552.8 607.2l-.2-10.5M561.7 609.4l-.7-12.2M569.9 612.2l-.7-11.6M578.5 612.9v-10.7M589.2 614.9l-.7-10.2M599.6 616.3l-.4-7.5M533.1 537.9l.7-7.5M539.9 541.3l1.4-7.5M545.3 544.7l1.4-7.5M552.2 546.8l.6-6.2M559.7 548.8v-7.5M566.5 549.5V542M572.6 549.5v-8.2M580.1 550.2v-7.5M587.1 550.8v-8.1M591.7 549.9v-7.7M597.8 549.7v-7.5M517 519.7c52.4 22.9 97.2 14.8 97.2 14.8"/><circle class="st3" cx="614.5" cy="555.3" r="7.8"/><circle class="st4" cx="616.3" cy="571.4" r="7.8"/><ellipse class="st4" cx="611.1" cy="530.4" rx="9.2" ry="13.6"/><path class="st1" d="M609.4 525.6c6.8 2.7 1.7 18.4 1.7 18.4"/><path class="st2" d="m440.4 406.4-17 70.2 2 62.7s-1.4 12.9 0 15c.7 1 8.9 11.6 40.3 8 21.7-2.7 44.8-17.9 49-28.4 8.2-20.4 2-59.3 2-59.3l-4.8-68.1-71.5-.1h0z"/><path class="st3" d="m443.1 460.2 12.3-53.8 50.4 3.4-20.4 58.6z"/><ellipse class="st2" cx="476.2" cy="432" rx="8.3" ry="6.4"/><path class="st2" d="M473.8 355.3s-4.3 32 11.1 45.7c8.6 4.1 10.7 10.2 10.7 10.2s-10.4 15.9-26.8 14.5c-19.5-1.6-28.4-46.6-28.4-46.6l33.4-23.8z"/><path class="st1" d="M461.1 360s-1.6 51.8 24.3 44.3"/><path class="st1" d="M448.6 371.6s9.5 38.8 21.1 42.9c8.2 2 15.7-2 15.7-2"/><path class="st3" d="m450.6 544.7.7 75.6s21.8 5.5 25.9-8.9c6.1 10.9 19.8 5.5 19.8 5.5l-17-78.4-29.4 6.2zM427.5 537.9l-17.7 73.6s-15.7.7-12.9-17c-19.8 16.4-27.3 3.4-27.3 3.4l41.6-81.8 16.3 21.8zM441.8 492.2c12.9 10.2 25.2 0 25.2 0l23.9-23.4c-6.4-7.2-15.8-12.3-28.7-13.2-11.6-.8-21.2 1.9-28.8 6.4-.7 8.7-.5 23.2 8.4 30.2z"/><path class="st2" d="M490.9 468.9 467 492.2s-12.3 10.2-25.2 0c-8.9-7-9.1-21.6-8.4-30.2-13.9 8.3-21.4 22.8-23.7 34.3-3.4 17.7-2 48.4 36.8 52.5 35.4 3.4 51.1-25.2 54.5-40.2 2.5-12.8-.3-28.7-10.1-39.7z"/><ellipse class="st2" cx="455.4" cy="500.7" rx="19.1" ry="16"/><ellipse class="st0" cx="454.4" cy="500.4" rx="9.9" ry="8.2"/><path class="st0" d="M523.5 433.6s1.6 87 1.6 95.2-11.8 11.1-12.5-.5-2-74.3-2-74.3l12.9-20.4zM529.4 434.3s16.6 91.3 19.3 98.1c2.7 6.8 13.6 1.4 11.6-8.9s-18.4-91.3-18.4-91.3l-12.5 2.1z"/><path class="st1" d="m518.1 529-.7-101.5M554.2 527l-18.4-95.4"/><path class="st0" d="M507.9 435s-32.7 85.9-34.1 94c-1.4 8.2 10.2 9.5 12.9 2.7 2.7-6.8 35.4-94.7 35.4-94.7l-14.2-2z"/><path class="st1" d="m480.6 528.4 35.4-94.8"/><path class="st2" d="m552 371.1-52.7 1.1c.8 26.4 2 56.8 3.8 66.2 7.5 1.4 46.3-3.4 46.3-3.4l-9.5-47 12.1-16.9z"/><path class="st2" d="m484.9 400.9 26.1-1.8-1.1-17.3 19.8-2.7.7 17.1 15.6-3.5 2.1 13-16.4 2 3.4 17.8-19.7 2-1.9-15.7-28.1.7z"/><circle class="st2" cx="521.7" cy="403.2" r="7.8"/><path class="st4" d="m439 253.7-82.1-7c-1.4 4-2.4 7.4-2.4 9 0 5.5 2.3 12.5 1.6 15.2-.5 1.8-12.3 18.2-20.3 31.3l105.2 1.9-2-50.4z"/><circle class="st1" cx="390" cy="268.9" r="13.6"/><circle class="st5" cx="390" cy="268.9" r="5.8"/><path class="st5" d="m511.3 270.8-26.6-39.5-105.6-16.4-2.9 1.8-10.4 30.8 73.2 6.2 2 50.4-105.2-1.9c-1 1.6-1.9 3.1-2.7 4.6l7.1.5c-1.4 2-4.8 9.8-4.1 14.5.7 4.8 16.4 8.2 21.4 1.4 2.7-5.5 2.5-11.6 2.5-11.6s3.6-.9 5.7.5 1.1 13.9 1.1 13.9l30-18.4h11.6s-5.5 11.6-3.9 12.9c1.6 1.4 14.8-11.6 28.4-8.9 19.8 3.4 21.8 21.8 18.4 28.6-1.4 4.1-32.7 18.4-34.1 20.4s0 8.2-1.4 12.3c-2.7-.7-9.5-6.8-9.5-6.8s.7 4.8-.7 9.5c-3.5.5-8.2-4.7-10.4-7.3 1.2 6.7 2.3 14.6 4.5 17.5 4.1 5.5 11.6 6.4 21.8 3.6 10.2-2.7 67.4-41.4 78.1-56.8 6.8-8.9 18.4-23.9 18.4-23.9l-6.7-37.9z"/><path class="st4" d="M365.7 312.1c-2-1.4-5.7-.5-5.7-.5s.2 6.1-2.5 11.6c-5 6.8-20.7 3.4-21.4-1.4-.7-4.8 2.7-12.5 4.1-14.5l-7.1-.5c-2.5 4.5-4.3 8.2-4.5 10.3-.7 8.2 7.5 18.4 16.4 17.7 8.9-.7 21.8-8.9 21.8-8.9s.9-12.4-1.1-13.8zM366.1 223.1s-5.9 13.8-9.2 23.7l8.9.8 10.4-30.8-10.1 6.3zM405.7 375.7c1.4-4.8.7-9.5.7-9.5s6.8 6.1 9.5 6.8c1.4-4.1 0-10.2 1.4-12.3s32.7-16.4 34.1-20.4c3.4-6.8 1.4-25.2-18.4-28.6-13.6-2.7-26.8 10.2-28.4 8.9-1.6-1.4 3.9-12.9 3.9-12.9h-11.6l-30 18.4s-2.7 8.9-.7 12.3c3.4-1.4 6.1-3.4 6.1-3.4l6.8 11.6s-4.3 4.1-5.7 6.1c-1.1 5.5 13.9 3.4 17.9 4.8 1.9.6 2.9 5.5 3.9 11.1 2.2 2.4 6.9 7.6 10.5 7.1z"/><path class="st4" d="M372.3 334.8c5.5-4.8 18.4-8.2 23.9-7.5 5.5.7 15.7 4.1 16.4 6.8.7 2.7.7 5.5.7 5.5s-9.5.7-17 .7-11.4 0-17 6.1-12.5-6.8-7-11.6z"/><path class="st1" d="m380.4 343-1.3-11.6M389.3 339.4v-10.9M401.6 338.9v-10.2"/><ellipse class="st4" cx="580.4" cy="146.1" rx="18" ry="15"/><path class="st1" d="m573.3 141.3 3.4-9.1M581.5 142.7l4.7-10.9M586.9 144l6.2-8.2M591.7 148.1l5.4-4.8"/><ellipse class="st4" cx="354.2" cy="85.1" rx="16" ry="14.6"/><path class="st1" d="m344.3 86.1-3.4-6.8M349.1 83.4l-2.1-8.9M353.9 82l-2.1-9.5M360 80.6l-2.7-7.4M418.6 311.9c27.9 15 28.6 36.6 28.6 36.6M419.3 326.6l24.5-14.9M422.7 334.8l30-18.4M428.8 343.7l30.7-21.1"/><path class="st6" d="m339.6 193.8-7.5 40.2 29.3 1.3 4.7-12.2 107.7 17-.7 30.7 51.1 8.8 1.4-27.2-25.2-50.5z"/><path class="st1" d="m338.2 231.9 7.5-38.8M345 234l9.5-38.9M356.6 234.7l9.5-37.5M372.3 223.1l2-24.6M382.5 226.2l2-25.6M392 226.2l2.1-23.6M402.9 228.4l1.4-24.9M414.5 230.1l2.1-24.5M426.8 231.2l2.7-27.9M439.7 233.3l1.4-25.9M449.9 236l1.4-27.9M460.9 237.4l.6-26.6M473.8 240.1l4.8-27.9M482.4 271.9l3.4-49.7M493.6 272.8l.6-50.4M503.1 276.9l1.4-47.7M514.9 277.6l.7-49.1"/><path class="st6" d="M445.2 132.7c17 3.2 24.5-6.4 24.5-6.4L482 112l4.8 8.2 21.1 42.2-5.5 44.3-84.5-21.1 2-37.5c.1 0 8.2-18.6 25.3-15.4z"/><path class="st1" d="M424.7 175.4c55.9-23.2 49.7-47 49.7-47"/><path class="st1" d="M425.4 165.8s42.7-20.7 37.7-33.8M455.4 134c-.7 3.9-12.9 14.8-12.9 14.8"/><circle class="st4" cx="441.4" cy="155.7" r="12.6"/><path class="st1" d="m444.5 151.5 8.9 2.7M443.2 156.2l7.9 6.7M439 159v8.2"/><path class="st6" d="M428.1 177.4c2-18.4 4.8-26.6 21.1-47 12.3-15.7 1.4-28.6-4.1-31.3s-15-4.1-21.8 3.4c-6.8 7.5 0 14.3 0 14.3s-13.2 8-17.7 15.7c-8.9 15 .2 46.3.2 46.3s20.3 17 22.3-1.4z"/><path class="st1" d="M413.1 173.3c3.4-38.8 25.2-53.2 25.9-57.2.7-4.1-3.4-6.8-6.8-5.5s-6.1 6.8-8.9 6.1c-2.7-.7.7-12.9 10.2-12.3 6.8 0 12.3 5.5 12.9 9.5.7 4.1-25.2 38.8-26.6 61.3"/><path class="st1" d="M409.1 171.3c-9.5-36.1 20.4-51.3 20.4-51.3s-6.1.2-6.1-3.2"/><path class="st6" d="M439.7 176.7s31.3-16.4 36.8-27.3 6.1-29.3 6.1-29.3-6.1 9.5-10.2 8.9c-8.9-.7-12.3-18.4.9-25 9.5-4.8 20.2 3 23.6 5.5 3.4 2.5 5.5 49.5 5.5 49.5l-1.4 40.9-41.6-9.5-19.7-13.7z"/><path class="st1" d="M449.9 180.1s32-15.7 36.1-37.5c4.1-21.8 2-29.3-4.1-30.7-6.1-1.4-10.9 8.9-4.1 13.6M462.9 182.2c27.3-16.4 29.3-35.4 29.3-35.4M475.2 184.9c12.9-9.5 18.9-20.4 18.9-20.4"/><path class="st6" d="M417.2 174c-4.1-56.6-29.3-59.3-29.3-59.3s-1.4-13.4-8.9-16.1c-7.5-2.7-12.3-.9-19.8 1.8s-12.3 15.2-10.9 22.7c1.4 7.5 6.8 9.3 6.8 9.3l27.9 39.5c.2.1 9.7 11 34.2 2.1z"/><path class="st1" d="M406.3 172.6s4.8-32-19.1-47c-11.2-7-25.4-3.4-28.2-8.2-2.7-4.8 3-11.6 9.8-11.6s12.9 7.7 12.9 7.7M366.1 130.4c-15.7-7.5-17-17-17-17"/><path class="st1" d="M387.9 114.7c-8.2-1.4-17-.7-21.8-8.2"/><path class="st6" d="M349.8 161.7c-2.7-4.8-4.8-22.5 5.5-29.3 10.2-6.8 29.3-1.4 34.1 4.1 4.8 5.5 3.4 32.7 3.4 32.7s-40.3-2.7-43-7.5z"/><path class="st1" d="M352.5 163.1s-2-20.4 3.4-25.2c5.5-4.8 24.5-2 27.9 2.7 3.4 4.8 4.8 28.6 4.8 28.6"/><path class="st1" d="M357.3 165.1s0-17.7 2-21.1c2-3.4 17-2.7 18.4 1.4 1.4 4.1 4.8 23.9 4.8 23.9"/><path class="st1" d="M362.7 165.8s.7-14.3 1.4-16.4c.7-2 5.5-1.4 7.5 0s2.7 19.8 2.7 19.8"/><path class="st3" d="m295.9 152.2 62.1 23.9 138.3 23.8.7-15.7-139-21.1-49.8-26.6z"/><path class="st3" d="m288.4 161.7-1.3 17.1 72.2 4.1 2.7-12.3z"/><path class="st3" d="m276.2 196.5 5.4 14.3 52.5-12.3h21.8l3.4-15.6-21.8-1.4z"/><path class="st2" d="m487.4 219-135.6-17.1 7.5-31.3 143.1 22.5z"/><path class="st1" d="m370.2 204 1.4-11.6 12.2 1.4-.6 10.9M406.3 208.8l1.4-10.9 12.9 1.3-.6 10.2M445.2 212.8l1.3-11.5 11.6 2-.2 11.1"/><path class="st6" d="M527.6 183.5s24.6 7.5 31.8 6.1c10.9-2 18.9-10.9 16.1-21.8-1.9-7.5-5.7-11.6-9.8-12.9-4.1-1.4-12.3.7-13.6 3.4-1.4 2.7 4.1 7.5 2 8.9-8.2 2-13.6-10.9-13.6-10.9l-10.9 12.3-2 14.9z"/><path class="st6" d="M552.6 187c18.6 7.5 17.3 24.5 17.3 24.5s12.9-5.5 12.3 7.5c-2 7.2-8.9 9.5-14.3 10.2-5.5.7-16.4-5.5-16.4-5.5L514 195.1l8.2-20.4s13.4 5.4 30.4 12.3z"/><path class="st1" d="M537.9 166.5s27.3 12.3 27.3 2"/><path class="st1" d="M533.1 170.6s25.2 13.6 32 3.4c4.1-6.8-8.9-17-8.9-17"/><path class="st1" d="M530.4 178.8s20.2 5.4 27.9 4.5c10.9-1.1 13.6-9.3 12.3-14.8-1.4-5.5-7-13.2-7-13.2M527.6 183.5s23.9 8.2 29.5 18.2c4.1 7.2 5.2 17.3 5.2 17.3"/><path class="st1" d="M561.7 222.8s0-9.3 8.2-11.4M567.8 224.8c11.6-3.8 6.8-13.3 6.8-13.3"/><path class="st0" d="M501.1 199.9s-11.6-13.6-11.6-44.3 8.2-64.1 5.5-74.3c-2.7-10.2-8-16.4-8.6-20.4-.7-4.1 3.9-7.5 8-5.5s16.1 13.6 20.2 34.8 8 34.8 10.2 41.6c2.3 6.8-7.3 68.1-7.3 68.1h-16.4z"/><path class="st0" d="M526.3 191.7c4.1-14.3 16.4-30.7 30-66.8 11.5-30.5 4.8-66.8-19.1-74.3-6.8-2-11.1.7-7.7 7.5s11.8 34.8-1.8 63.4-17 47-13.6 73.6 8.1 10.9 12.2-3.4z"/><path class="st1" d="M500.4 73.8s6.8 15.7 4.8 56.6 6.8 62 6.8 62M541.3 65c4.8 8.2 7.5 35.4-2.7 66.8s-18.4 54.5-18.4 61.3"/><ellipse class="st4" cx="519.1" cy="221.3" rx="35.8" ry="32.3"/><path class="st4" d="M512 247.6c0-7.1 5.8-12.9 12.9-12.9 7.1 0 12.9 5.8 12.9 12.9 0 .5 0 .9-.1 1.4 4.1-2.3 7.7-5.3 10.5-8.9-3.2-9.9-12.4-17-23.4-17-13.5 0-24.5 11-24.5 24.5v1.4c3.9 2.1 8.2 3.6 12.9 4.3-.8-1.7-1.2-3.7-1.2-5.7z"/><path class="st4" d="M524.9 234.7c-7.1 0-12.9 5.8-12.9 12.9 0 2 .5 4 1.3 5.7 1.9.3 3.9.5 5.8.5 6.9 0 13.2-1.7 18.7-4.8 0-.5.1-.9.1-1.4 0-7.1-5.9-12.9-13-12.9z"/><path class="st1" d="M493.1 228.5v-28.6M500.4 223v-28.6M508.6 218v-27.3M515.8 214.3v-23.6M524 213.4v-23.1M532.2 215.7v-25.4M539.9 217.5v-22.7M547.6 222.1v-20"/><path class="st3" d="M551.5 357.3s-13.6 10.2-17 19.8 3.4 30.7 46.3 17c8.2-6.1 12.9-38.2 12.9-38.2l-6.7-20.4-28.8-5.5-6.7 27.3z"/><path class="st6" d="m611 191.9-18.6 45.5-10.9 30.6 43.6 14.4 5.9-9.6 35.2-63.7-38.4-18.1z"/><path class="st2" d="M627.8 163.8h-10.9l-5.5 27-.4 1.1 16.8-.9zM643.5 165.1 627.8 191l38.4 18.1 13.4-24.2z"/><path class="st1" d="m605.3 268 49.1-96M614.9 272.8l51.1-95.4M592.4 270.1l35.4-79.1"/><path class="st2" d="m559 341.6 35.4 7.5 29.3-74.9-40.2-16.4-23.8 37.5z"/><path class="st3" d="m565.8 303.5 40.2 15.7 5.4-17.1-41.5-12.9z"/><path class="st1" d="m559.7 321.2 39.5 10.2M578.7 274.2l38.9 12.9M577.8 307.1l9.7-12.3M587.1 310.7l8.8-13.6"/><path class="st3" d="M623 270.1c-3.4 1.4-33.8 78.4-33.8 83.8s9.8 8.4 12.5 2.3c1.4-3 7.8-22.2 15.6-41.3 7.8-19 17-38 16.7-40.8-.7-5.4-7.6-5.4-11-4z"/><circle class="st2" cx="611.5" cy="312" r="8.5"/><path class="st2" d="M577.4 251.7s-37.5-2.7-48.2 29.8c-13.7 41.7 20.2 55.4 20.2 55.4l8.9-6.8-2.7-37.5 21.8-25.9v-15z"/><path class="st3" d="m523.5 308.9 29.3-14.3.7 10.2-25.2 15z"/><path class="st3" d="m538.5 264.6 11.6 34.8 6.2-10.9-4.8-34.1z"/><path class="st3" d="M526.3 333.5c5.5 8.9 18.4 15.7 18.4 15.7l4.8-12.3s-33.9-13.8-20.2-55.4c10.7-32.5 48.2-29.8 48.2-29.8l.7-9.5s-45.4-6.8-55.4 31.3c-10 38.2-6.6 23.2-6.6 23.2s4.6 27.9 10.1 36.8z"/><path class="st4" d="M507.9 295.3c-3.4-.7-10.2-7.5-6.8-15.7 3.4-8.2 7.5-8.2 18.4-6.8s6.8 15.7 6.8 27.3c0 11.6 9.5 21.4 5.5 30.9-4.1 9.5-17.9 9.3-22.7 3.2-4.8-6.1-5.2-19.8-5.2-19.8s-4.5-5.2-2.5-10c1.9-4.8 5.8-6.4 6.5-9.1z"/><path class="st1" d="M515.4 282.4c4.8 7.5-2.7 10.9-7.5 12.9"/><path class="st2" d="M492.2 328.7c0-4.1 7.7-12.7 11.1-14.8 3.4-2 8.6-2.3 9.3 1.8s-1.4 15.2-4.5 17.9c-3.2 2.8-15.9-.8-15.9-4.9z"/><path class="st3" d="M559 351.6c6.1-8.2 2-27.7 9.5-51.6s25.2-50.4 23.9-62.7c-1.4-4.1-12.9-4.5-15.7.2-2.7 4.8-3.2 20.4-6.6 25.9s-15.2 15.4-18.6 28.4c-3.4 12.9 0 30-2 39.5s-9.5 18.4-6.8 23.2c2.6 4.9 10.1 5.3 16.3-2.9zM525.6 665.3l8.8 33.4 83.9-18.4-12.3-33.4z"/><circle class="st2" cx="538.5" cy="700" r="8.2"/><circle class="st2" cx="615.5" cy="688.5" r="8.2"/><path class="st3" d="M163.7 315.1c-6.8-2-9.5 2-10.9 5.7-6.1-2.3-10.4-.9-10.4 9.3-6.6 0-10.4 2.7-11.8 5.5-1.4 2.7 1.1 8.2 1.1 8.2s-9.1 1.4-7.7 10.2c2.3 12.3 25 12.9 28.4 15.7l29.1-27.5c-7.5-12.4-10.9-25.1-17.8-27.1z"/><path class="st7" d="M194.4 354.6s-6.8-4.3-12.9-12.5l-29.1 27.5c3.4 2.7 21.6 45.7 21.6 45.7l27.3-9.5-6.9-51.2zM226.4 529l-9.5-55.2-12.3-34.8h-23.1l-5.5 13.6 6.8 23.9s0 68.9-.6 85l51.9.5c-3.5-16-7.7-33-7.7-33z"/><path class="st3" d="M182.2 561.6v.9c-.7 14.3.9 25.4 2.3 28.8 1.4 3.4 4.5 5.9 7.5 5.2 1.8 4.8 12.7 11.6 18.9 2.7 4.1 1.4 12.3 1.4 12.9-3.4 5.5 2 14.3 0 15-6.8.3-3-2-14.6-4.6-26.9l-52-.5z"/><path class="st5" d="M201.2 444.5s21.8 81.1 25.2 84.5 10.4 1.4 9.8-4.1c-.7-5.5-7-52.5-19.3-78.4-8.9-10.1-15.7-2-15.7-2z"/><path class="st3" d="M208 298c-1.4-4.8-13.4-7.5-14.8 1.4-.6 4.1-1.2 27.3-1.6 50.7l21.3-.7c-2-24.2-4.2-49-4.9-51.4z"/><path class="st5" d="M191.7 350.1c-.5 26.6-.7 53.5-.7 53.5l25.9-6.4s-1.9-23.6-3.9-47.8l-21.3.7z"/><path class="st4" d="M209.7 396.9c-6-.2-13.8-.3-17.8 1.5-6.1 2.7-22 15.4-26.8 25.7-4.8 10.2-8.9 37.5 17.7 52.5 0-6.8 0-19.8 4.1-23.9 3.5-3.5 18.4-5.5 26.3-6 1.2-8.7 3.4-32.9-3.5-49.8z"/><path class="st4" d="M229.8 407.7c-2-5.5-9.5-10.4-12.9-10.4-1.2 0-3.9-.2-7.2-.3 7 16.8 4.7 41.1 3.6 49.8 1.5-.1 2.8-.1 3.6-.1 5.5 0 10.9-6.8 12.9-12.3 2.1-5.5 2.1-21.2 0-26.7z"/><path class="st1" d="m192.4 411.8 37.4-4.1M192.4 422.1l37.4-2.8M190.1 435.7l38.1-2.7M191.9 596.5l.7-73.6M210.8 599.2l-6.2-78.3M223.7 595.8l-7.5-71.5"/><path class="st4" d="M234.4 378.9c-2 2.7-9.3-.5-10.7-4.5-1.4-4.1 0-12.9 2-15s6.1-2 6.8 0 3.9 16.8 1.9 19.5z"/></svg>