<svg version="1.1" id="Calque_1" xmlns="http://www.w3.org/2000/svg" x="0" y="0" viewBox="0 0 900 900" style="enable-background:new 0 0 900 900" xml:space="preserve"><style>.st0,.st1,.st11,.st12,.st13,.st14,.st15,.st2,.st3,.st4,.st6,.st7{fill:#004c9e;stroke:#000;stroke-width:3.7024;stroke-linecap:round;stroke-linejoin:round;stroke-miterlimit:10}.st1,.st11,.st12,.st13,.st14,.st15,.st2,.st3,.st4,.st6,.st7{fill:#fff}.st11,.st12,.st13,.st14,.st15,.st2,.st3,.st4,.st6,.st7{fill:none}.st11,.st12,.st13,.st14,.st15,.st3,.st4,.st6,.st7{fill:#ffce00}.st11,.st12,.st13,.st14,.st15,.st4,.st6,.st7{fill:red}.st11,.st12,.st13,.st14,.st15,.st6,.st7{fill:#601700}.st11,.st12,.st13,.st14,.st15,.st7{fill:#ffce00;stroke-width:3.8809}.st11,.st12,.st13,.st14,.st15{fill:#004c9e;stroke-width:3.6972}.st12,.st13,.st14,.st15{fill:none}.st13,.st14,.st15{fill:red}.st14,.st15{fill:#ffce00}.st15{fill:#fff}</style><path class="st0" d="m407 244.4-13.9-29.2s-44.3-21.8-70-31.8c-4.9 12.8-12.2 38.6-9.9 74.1 2.3 34.8 9.6 52.3 14.2 60 33.3-14.7 70.5-35 70.5-35l9.1-38.1z"/><path class="st1" d="M323.1 183.4c-8.1-3.1-14.3-5.2-16.8-5-10.4 5.6-17.4 129.1 10.4 143.7 3.5-1.4 7.1-3 10.7-4.6-4.6-7.7-11.8-25.2-14.2-60-2.3-35.4 5-61.3 9.9-74.1z"/><path class="st2" d="m302.8 188.8 15.3 3.5M302.1 197.2l13.2 1.4M299.1 224.2l13.9.3M300.1 233.3l11.1-.7M299.4 259l11.8-.7M300.1 267.7l11.8-1.1M304.2 293.7l11.8-3.3M306.3 302l11.8-4.2"/><path class="st3" d="M398.2 721.9c-.2 29.9 8.8 59.4 8.8 75.2 0 15.7 33.8 0 33.8 0l12.7-68.2s-55.1-36.8-55.3-7z"/><path class="st4" d="M452.8 797.1c.7-5.7-.7-11.3-.7-16.2s8.3-7.6 14.6-3.5c6.2 4.2 2.8 14.6 2.8 14.6l-1.4 11.1-12.5 2.1s-3.5-2.3-2.8-8.1zM475.5 804.6s28.7 0 34.2 2.1c5.6 2.1 5.6 19.4-1.4 24.3-18-2.8-52.1-6.9-52.1-6.9l-.7-18.7 20-.8z"/><path class="st2" d="m463.9 811.3 49.3 4.4"/><path class="st4" d="M564.5 792.1c-2.5-7.6-2.1-15.3-.7-18.7 1.4-3.5 8.3-4.9 11.1-2.1 2.8 2.8 3.9 13 3.9 13l-6 12.9c.1-.1-6.7-.3-8.3-5.1z"/><path class="st2" d="M569.4 777.5c-1.4 9 2.8 13.9 2.8 13.9"/><path class="st4" d="M584 790.7c6.9 6.4 36.8 13.2 38.9 16 4.9 10.4-5.3 8.8-5.3 8.8l-30.1-2.5-12.5-13.3s2-15.5 9-9z"/><path class="st3" d="M518 731c-1.4 18.7 8.3 39.6 9 59.7.7 20.1 29.2-.7 29.2-.7l6.9-68-25.7-2.1c.1 0-18-7.6-19.4 11.1z"/><path class="st2" d="M460.4 783c0 9 2.8 14.1 2.8 14.1"/><path class="st4" d="M579.8 797.1s34.9 14.9 37.7 18.3c2.8 3.5 1.9 11.3 1.9 11.3h-25.7l-28.5-16 7.6-13.7h7zM460.4 813.6s13.7-4.9 15-9-1.2-10.4-6-12.5c-2.8 7.6-12.5 8.3-12.5 8.3l-4.2 14.6 7.7-1.4z"/><path class="st4" d="M566.6 797.1s4.2 7.5 7.6 6.1c3.5-1.4 9.7-9.7 9.7-12.5s-3.2-6-5.1-6.5-12.2 12.9-12.2 12.9z"/><path class="st1" d="m454.1 805.9-1.3-1.3-51.4.7s-8.3 13.9-3.5 29.9c7.6 5.6 52.1 5.6 52.1 5.6l3.7.3c-3.8-6.4-15.2-27.6.4-35.2z"/><path class="st3" d="M524.3 836.5c-3.5-3.5-9.7-2.1-22.9-11.3-7.6-4.2-25.7-6.7-33.3-9.5-5.7-2.1-11.5-7.3-14-9.8-15.6 7.5-4.2 28.7-.4 35l31.7 2.5s1.4 4.6 3.9 5.6c2.5.9 22.4 1.6 25.9.2 3.5-1.4 2.8-5.8 2.8-5.8s7-2.1 6.3-6.9z"/><path class="st1" d="m562.9 797.4-.5-.2-36.1 2.6s-10.4 16.7-.7 38.9c12.5 2.8 35.4-1.4 35.4-1.4l5.6.1c-3.9-6.2-12-21.7-3.7-40z"/><path class="st3" d="M632.6 825.4c-2.8-2.8-13.9.2-19.4-1.2s-38.9-21.1-38.9-21.1l-11.3-5.8c-8.3 18.3-.2 33.8 3.8 39.9l47.8.6s10.4 2.1 11.1-2.8c3.4.1 11-3.4 6.9-9.6z"/><path class="st4" d="M400 794.6c-3.5 1.4-3.5 9.3 1.4 10.6s55.5 2.8 57.6 1.4c2.1-1.4 3.5-7.2.7-9.5s-56.2-3.9-59.7-2.5zM520.1 790c-4.9 1.4-4.6 7.4-1.9 9.5 2.8 2.1 48.1 1.2 50.2.5 2.1-.7 2.8-6.2 0-8.3-2.7-2.2-43.4-3.1-48.3-1.7z"/><path class="st1" d="M397.9 835.1c-2.8 1.4-2.8 7.6 0 9 2.8 1.4 87.5-.7 87.5-.7s.7-3.2-.7-5.1c-1.4-1.8-84-4.6-86.8-3.2zM525.7 845.7c-2.8-1.6-.7-5.6 0-7.6.7-2.1 87-5.1 89.1-3.7 2.1 1.4 1.9 3.7-.9 6.5s-85.5 6.5-88.2 4.8z"/><path class="st2" d="M518 843.4s-.7-4.9-6.2-4.2M493 840l-.7 8.3M499.3 840l.7 9M506.2 840c2.8 2.8 2.1 9.3 2.1 9.3"/><path class="st0" d="M403.5 576.2c-4.2-43.7-32.6-209.6-32.6-209.6s-31.9-6.2-43 4.2c5 173.6-6.8 260-12.5 297.2l68.9 1.9c9.3-25.7 21.8-65.9 19.2-93.7z"/><path class="st1" d="M312.5 691.4c3.5 5.6 61.8 2.8 61.8 2.8s4.4-9.8 9.8-24.4l-68.9-1.9c-2.2 14.9-3.6 21.9-2.7 23.5zM574.1 658.7c.9 10.6 1.7 18 2.2 20.9 61.1 9.7 85.4-13.9 85.4-13.9l-2.8-15.6c-34.6 13.6-72.5 10.2-84.8 8.6z"/><path class="st0" d="m659 650.1-50-280.8-53.5 2.1s12.6 216.3 18.6 287.3c12.3 1.6 50.2 5 84.9-8.6z"/><path class="st2" d="m325 692.8.7-24M333.4 693.5l.7-23.6M344.5 694.2v-25M354.2 694.2v-25M366 694.2l-.7-23.6M593.7 679.6l-.7-17.3M604.8 679.6l-.7-18M641.6 674.8l-2.8-17.4M648.1 671.5l-4.2-15.9M595.1 483.2c10.4 45.1 24.3 197.8 24.3 197.8"/><path class="st0" d="m412.5 293 4.9 77.7 23.6-25 29.8-60.4z"/><path class="st2" d="m428.5 293 3.5 56.2"/><path class="st3" d="m509 369.3-.7 22.9-40.9 12.5.6-38.8zM565.2 446.4s28.5 17.4 41.7 14.6c13.2-2.8 79.8-41.7 79.8-41.7l-13.2-29.2s-63.2 26.4-70.1 34c-9-4.2-24.3-6.2-24.3-6.2l-15.3 8.3 1.4 20.2z"/><path class="st2" d="M607.6 444.3s-12.5-5.6-4.2-20.1"/><path class="st1" d="M88.3 561.6c0 9.7 62.5 29.9 83.3 26.4 1.4-5.6 2.8-11.1 4.2-16.4L95 545.3c-4.2 8.7-6.7 14.7-6.7 16.3z"/><path class="st0" d="m230.6 371.4-52 14.6S115.9 501.3 95 545.3l80.8 26.3c19.4-73.9 38.2-116.2 38.2-116.2l16.6-84zM288.3 386c-9-22.9-51.4-17.4-51.4-17.4l9 64.6s15.1 77.5 42.3 151.9l55.6-29.2c-17.4-31.9-51-101.5-55.5-169.9z"/><path class="st1" d="M354.2 574.1s-4.2-6.7-10.5-18.1l-55.6 29.2c2.5 6.8 5 13.6 7.7 20.3 11.9-3.6 58.4-31.4 58.4-31.4z"/><path class="st2" d="m100.8 570 7.7-20.2M109.1 573.4l8.4-20.6M139.7 583.1l6.9-20.5M147.3 585.9l6.3-20.8M300.1 581.1l6.2 17.3M307.7 574.6l9.7 19.7M330.6 563.7l8.3 18.1M337.5 560.9l7.7 16M125.1 579.7l68.7-161.1M282.7 488l45.8 100"/><path class="st3" d="M377.1 409.6s-13.2 18.7-31.9 27.8c-10.4-4.2-52.8-18.7-52.8-18.7s-10.4 18.7-15.3 29.9c16.7 5.6 66.6 35.4 81.9 31.2 15.3-4.2 39.6-31.2 39.6-31.2l2.8-21.5-19.4-16.8-4.9-.7z"/><path class="st2" d="M356.3 453.3s-7.6-11.1-11.1-16"/><path class="st1" d="M573.6 528.3c8.3 2.1 15.3 13.2 9 27.1-2.8-6.2-17.4-3.5-20.8-9s-4.2-16.7-4.2-16.7 7.6-3.5 16-1.4z"/><path class="st4" d="M538.2 529.7s8.3-18 26.4-19.4c0 3.5-2.1 9.7-2.1 9.7s11.1-4.2 17.4-9c11.8 21.5-15.3 24.3-17.4 25-.7 10.4 9 18 9.7 21.5-9 6.9-16.7-.7-16.7-.7l-17.3-27.1z"/><path class="st2" d="m562.5 520-9.1 2.8M562.5 535.9c0-4.2-4.9-6.2-4.9-6.2"/><path class="st1" d="M545.1 707.4s-70.1 19.4-116.6-.7c-16.3 4.5-47.3-1.5-58.4-3.9l-3.3 13.7s36.8 10.2 45.1 10.4c8.3.2 15.3-.2 22.2.5s22.9 8.1 48.6 8.1 90.9-5.8 101.4-19.7c-1-3.6-2-7.5-3-11.7-13.1 4.9-36 3.3-36 3.3z"/><path class="st0" d="M428.5 706.7c46.5 20.1 116.6.7 116.6.7s23 1.6 35.9-3.3c-13.4-54.3-29.6-146.6-29.6-146.6l-9-26.4s-1.4-75.7 3.5-81.9c3.5 5.6 13.9 13.9 19.4 12.5 2.8-24.3 13.9-43.7 13.9-43.7s-11.2-14-28.5-19.5c-12.5-1.4-45.8 1.4-45.8 1.4l-78.4-21.5-19.4 2.8s-34 18.7-34 29.2c3.5 2.8 20.1 15.3 25.7 38.2 5.6-1.4 11.1 0 11.1 0s-2.8 38.9 5.6 72.9c-.7 1.4-6.9 5.6-6.9 12.5s-2.8 24.3-2.8 24.3L370 702.8c11.1 2.4 42.1 8.4 58.5 3.9z"/><path class="st2" d="m427.1 604-16.7 121.4M484 611.6l.7 122.8M529.1 602.6 550 728.9M378.5 717.8l2-13.2M384.7 719.2l2.1-11.1M395.9 722.7l2-12.5M402.8 724.1l2.8-13.9M426.4 725.5v-17.4M433.3 724.8v-15.3M457.6 731.7l2.8-16.7M464.6 732.4l1.4-15.3M495.1 733.8v-16M500.7 731.7l-.7-16M521.5 731.7l-1.4-17.3M528.4 731.2l-1.8-18.7M558.5 726.8l-2.7-18M563.2 724.1l-2.1-16"/><path class="st0" d="M518 152.7v-3.5l-8.2-14.9c-14.9-1.1-64.2-3.6-134.2 3.6l3.7 18.7c82.5-14.4 127.5-6.4 138.7-3.9z"/><path class="st1" d="m509.8 134.3-7.8-14.2-129.1 4.2 2.7 13.6c70-7.1 119.3-4.6 134.2-3.6z"/><path class="st4" d="m517.8 167 .1-14.2c-11.2-2.6-56.2-10.6-138.7 3.8l2.7 13.7c87.4-12.8 123.9-6.8 135.9-3.3z"/><path class="st0" d="m382 170.3 9.8 49.8 125.7 4.9.5-58c-12.2-3.5-48.7-9.5-136 3.3z"/><path class="st2" d="m413.9 218.7-3.5-94.4M438.2 218l-4.2-95.8M472.2 218 459 122.2M495.8 218l-15.9-96.5M418.1 444.3c5.6-1.4-8.3 4.2-8.3 4.2"/><path class="st1" d="M427.1 436.4c2.1 15.5 56.2 110.6 60.4 123.8 5.6 3.5 11.8-.7 11.8-.7s21.5-50.9 29.2-77.3c7.6-26.4 13.2-54.6 13.2-54.6l-15.3-20.1-61.8-2.1-23.6 11.8s-16 3.7-13.9 19.2z"/><path class="st4" d="M437.5 430.4c2.1 7.6 55.5 113.8 57.6 112.5 6.2-9 31.9-88.2 34-120.8 2.8-14.6-5.6-14.6-5.6-14.6l-38.9-1.4-35.4 5.6c.1 0-13.8 11.1-11.7 18.7z"/><path class="st1" d="M158.5 372c-.4 4.1-.7 8.3-.7 12.6 2.8 4.9 140.9 12.5 141.6 5.6.1-1.5-.6-6.2-2-12.9-14.6.9-61.7 2.6-138.9-5.3z"/><path class="st0" d="M297.3 377.3c-5-23.7-17.9-71.1-22.3-76-5.6-6.2-87.5-3.5-87.5-3.5s-24.4 29.7-29.1 74.1c77.3 8 124.4 6.3 138.9 5.4z"/><path class="st2" d="m165.8 384.1.7-9.7M172.3 386.7l1.4-12.5M191.1 388.1l.7-12.5M201.5 389.5l-.7-13.9M261.2 390.2v-11.8M254 390.6v-11.8M277.8 390.9l-.7-12.5M284.8 390.9l-1.4-11.8"/><path class="st4" d="M182.7 285.3c-6.9 2.8-3.5 12.5.7 14.6 4.2 2.1 91.6 4.9 96.5 3.5 4.9-1.4 5.6-11.8.7-14.6-4.8-2.8-90.9-6.2-97.9-3.5z"/><path class="st1" d="M245 456.6c.5-14.7.9-23.4.9-23.4l-8.3-20.8-25 14.6s-.6 9.3-1.6 23.8c9.8 7.3 26.6 6.5 34 5.8z"/><path class="st3" d="M224.4 493.6c-6.7 7.2-13.5 3.8-16.9 1-2.6 29.4-6.1 62.1-10.1 84.4-1.4 27.1 46.5 11.8 46.5 3.5-.5-29.1-.4-57.3 0-81.2-4.6 1.2-12.9 1.8-19.5-7.7z"/><path class="st1" d="M215.4 492.2s-10 79.4-10.6 83.5c-.7 4.2 6.9 4.6 9 1.9 2.1-2.8 10.6-89.6 10.6-89.6l-9 4.2z"/><path class="st2" d="m363.2 478.6 2.1 192"/><path class="st1" d="m559.7 238.1 2.1 77.1 8.9-.7-1.9-78z"/><path class="st0" d="m583.3 233.9-14.5 2.6 1.9 78 15.9-1.3z"/><path class="st1" d="m597.2 312.4-6.3-79.8-7.6 1.3 3.3 79.3zM745.7 61.8S738.8 67.3 727 78c25.8 19 33.2 39.2 35.2 48.3 7.7-3.6 13.1-6.1 14-7.5.8-25.1-30.5-57-30.5-57z"/><path class="st0" d="M727 78c-10 9.1-23.5 21.9-39.2 38.2-34 35.4-31.7 66.4-31.7 66.4l8.3 20.8 33.3-4.9 3.2-23.4s-3.9-12 19.7-27.3c14-9.1 30.2-16.4 41.6-21.6-2-9-9.3-29.2-35.2-48.2z"/><path class="st2" d="M742.3 78.5 752.7 68M751.3 86.1l7.6-7.6M761 102.1l7.6-4.2M767.9 113.9l7-1.4M674.9 179.1s.7-28.5 33.3-49.3 57.6-41.7 57.6-41.7"/><path class="st4" d="M252.8 193c1.4-4.9 12.5-10.4 12.5-13.2 0-2.8-16.7-20.8-18-22.9-1.4-2.1 8.3-8.3 8.3-8.3s-12.5-31.9-19.4-40.3c-11.1 21.5-24.3 38.9-25 41.7-.7 2.8 4.9 6.9 4.9 9.7 0 2.8-17.4 15.3-17.4 18 0 2.8 13.2 9 14.6 11.8.9 1.9-14.5 14.5-24.3 24.5l79 2c-6.2-10.4-15.2-23-15.2-23z"/><path class="st1" d="m216.1 218 16.2-61.1 6.7 62.5z"/><path class="st4" d="M189.1 214.1c-4.9 5-8.4 9.4-7.7 11.6 1.1 3.3 26.7 3.4 50.7 4 20.8.5 40.4 1.8 41.7.1 1.1-1.3-1.8-7.1-5.6-13.7l-79.1-2z"/><circle class="st4" cx="232.4" cy="255.4" r="29.5"/><circle class="st1" cx="232.4" cy="255.4" r="10.6"/><path class="st4" d="M257 442.2s11.8 43 17.4 47.2c5.6 4.2 20.1 1.4 20.1-4.2s-14.6-41-14.6-41l-22.9-2z"/><path class="st2" d="m282 480.4-11.1-34"/><path class="st4" d="M264 439.4s-.9 12.3 9.5 11.6c10.4-.7 24.5-17.8 17.1-35.2-5.6-11.8-12.7-4.9-12.7-4.9L264 439.4z"/><path class="st4" d="M248.7 439.4s-1.4 8.3 16.7 4.2c11.1-2.8 20.1-16 12.5-32.6-6.2-8.3-16-6.9-16-6.9l-13.2 35.3z"/><path class="st1" d="M219.5 382.5s-6.2-.7-3.5-10.4c-5.6-3.5-4.9-50-2.8-52.1 2.1-2.1 9.7-4.2 9.7-4.2s2.1-4.2 2.8-9c.7-4.9 9.7-6.2 11.1 0 2.8-3.5 7.4-4.6 10.2-2.5 2.8 2.1 1.6 13.9 3.7 18.7 2.1 4.9 7.9 10.9 7.9 15 0 4.2-3.5 12.3-4.2 15-.7 2.8 3.2 7.2 3.2 11.3s-10.4 15.3-11.1 26.4c-.7 11.1-16.7-.7-16.7-.7l-10.3-7.5z"/><path class="st2" d="M236.9 306.9c.7 3.5-1.4 6.2 3.5 9M229.9 345.7s-4.9-.7-4.9-7.6c0-6.9 0-26.4.7-31.2"/><path class="st1" d="M225.2 318.7c.1-5.2.3-9.8.6-11.8 0 0-6.9-6.5-18 1.2 8.3 1.4 13.2 3 13.2 3s-7.6 0-11.8 9.7c6.2-2.1 13.1-3.5 16-2.1z"/><circle class="st1" cx="242.1" cy="338.8" r="8"/><circle cx="242.1" cy="338.8" r="2.7" style="stroke:#000;stroke-width:1.8512;stroke-miterlimit:10"/><path class="st3" d="M232.7 427.6c1.4 9 16.7 12 23.6 10.6 6.9-1.4 18.7-20.4 1.4-41.2-6.2-7.6-18.3-9.5-23.8-10.9-5.6-1.4-8.1-6.5-10.9-7.2-2.8-.7-6.9 4.2-4.9 10.4 2.1 6.4 13.2 29.3 14.6 38.3z"/><path class="st2" d="M245.2 415.2c-6.2-2.1-5.6-13.2-8.3-16"/><path class="st3" d="M208.4 422.8c.7 3.5.7 6.9 5.6 9 4.9 2.1 14.6 0 18.7-4.2 4.2-4.2 6.9-25.7 4.2-28.5-2.8-2.8-18.7-9.7-18.7-9.7s-7.6-2.1-9 2.8c-5.6 1.4-6.2 9-2.1 13.2-4.2 4.2-3.5 15.3 1.3 17.4z"/><path class="st2" d="M237.6 413.3c-5.6 1.4-24.3-3.7-30.5-7.9M235.5 421.4c-7.6 4.2-20.1 3.5-27.1 1.4M209.1 392.2c4.2 9.7 21.5 12.5 29.9 13.2"/><path class="st1" d="M224.4 493.6c6.7 9.5 14.9 8.9 19.5 7.6.1-7 .3-13.7.4-19.9-7.3.5-25.8 1.1-35.2-6.1-.5 6.2-1.1 12.6-1.6 19.3 3.5 2.8 10.2 6.3 16.9-.9z"/><path class="st2" d="m224.4 493.6.7-16M216.1 477.6s-3 13.4-.2 14.1c2.8.7 8.6-3.7 8.6-3.7s9.7 6.9 11.8 4.9c2.1-2.1.7-14.6.7-14.6"/><path class="st4" d="M244.6 468.4c.1-4.3.2-8.2.4-11.8-7.4.7-24.2 1.5-34-5.9-.2 3.5-.5 7.2-.8 11.2 12.7 8.9 28.3 7.5 34.4 6.5z"/><path class="st4" d="M244.3 481.4c.1-4.6.2-8.9.3-12.9-6.2 1-21.7 2.4-34.5-6.5-.3 4.2-.7 8.7-1.1 13.4 9.5 7 28 6.5 35.3 6z"/><path class="st6" d="m192.5 592.9-2.8 29.1 27.7 8.4 29.9-4.9-1.4-24.3z"/><path class="st3" d="M182.7 644.2s-11.8 15.3-31.2 29.9c14.6 20.8 45.8 23.6 64.6 2.8 13.2 32.6 56.9 25 66.6 4.2-21.5-13.9-28.5-30.5-28.5-30.5L223.7 631l-41 13.2z"/><path class="st2" d="M216.1 676.8c-4.2-9-1.4-27.8-1.4-27.8"/><path class="st4" d="M243.7 574.8c0 2.5.1 5.1.1 7.6-9.7 11.1-48.6 4.2-46.5-3.5.6-3.2 1.2-6.7 1.7-10.4-8.7-1.4-12.1 10.4-9.3 22.9 2.8 12.5 36.8 21.5 56.2 9.7 16-8.2 6.3-25.6-2.2-26.3z"/><path class="st1" d="M184.1 627.6s-7.6 6.9-8.3 13.2c-.7 6.2 9 17.4 20.8 13.2 2.1 5.6 17.1 8.3 24.5 3.5 6 6.2 16.9 6.9 26.4-5.6 6 3.5 16.7 1.6 18-3.2 1.4-4.9-10-18.3-10-18.3l-54.8-3.5-16.6.7z"/><path class="st2" d="m196.6 654 5.8-20.2M221.1 657.4l-1.6-22.9M247.5 651.9l-7.1-20.9M189.7 626.9s-6.2 10-5.6 15.5c.7 5.6 6.2 6.7 8.3 2.5s6.2-14.6 6.2-14.6M206.3 633.8s-2.8 13.9-1.4 17.4c1.4 3.5 7.6 3.5 9 0 1.4-3.5.7-20.8.7-20.8M224.4 633.8s.2 14.3 3 17.8 8.1.9 9.5-2.5c1.4-3.5-2.8-17.4-2.8-17.4M246.6 632.4s2.8 13.2 4.9 14.6c2.1 1.4 5.6 2.1 6.2-2.1.7-4.2-6.2-14.6-6.2-14.6"/><path class="st4" d="M185.5 608.8s4.9 16.2 34.7 16.2 37.5-9.3 37.5-9.3 3 13.7-.5 17.8c-13.4 5.8-61.3 7.2-73.1-6-3.5-6.2 1.4-18.7 1.4-18.7zM458.1 607.7c-7.6-6.9-7.4-18.3 2.3-25.2 9.7-6.9 38.9-9 45.8-.7 6.9 8.3 10.4 25-1.4 28.5-11.8 3.4-39.1 4.3-46.7-2.6z"/><path class="st7" d="M460.4 593.6c-3.5 2.8-3.5 18.7-6.9 39.6 19.4-2.1 22.4-22.9 21.8-31.9-.8-9.1-11.4-10.5-14.9-7.7zM488.2 601.9c-2.1 10.4 3.5 34.7 23.6 33.3-6.2-18-4.9-33.3-7.6-37.5-2.8-4.1-13.9-6.2-16 4.2z"/><path class="st4" d="M488.2 573.4c45.1-.7 63.2-29.9 63.2-29.9 0-5.6-2.8-16-9-12.5s-2.1 27.1-51.4 27.1-75-27.3-80.5-27.3c-4 0-8.8 5.6-9.8 13.1 11.4 7.5 49.7 30.1 87.5 29.5z"/><path class="st1" d="M551.4 543.6s-18 29.2-63.2 29.9c-37.8.6-76.1-22.1-87.5-29.4-.4 2.9-.2 6 .7 9.3 3.5 11.8 34.7 29.9 81.9 31.9 47.2 2.1 59.7-15.3 72.2-28.5 3.5-6.3 0-14.6-4.1-13.2z"/><path class="st6" d="M426.4 56.9c-4.2.7-6.9 5.6-2.1 7.6 4.9 2.1 32.6 12.5 55.5 31.9s25.7 45.1 25.7 45.1l8.3 13.9 8.3-18-3.5-12.5s-9-21.5-31.2-41c-22.1-19.3-56.8-27.7-61-27z"/><path class="st6" d="M512.5 158.3s.7-44.4 18.7-66.6S602 50 608.3 50s8.3 5.6 6.2 7.6c-2.1 2.1-52.8 24.3-68.7 46.5-16 22.2-19.4 53.5-19.4 53.5l-5.6 18-8.3-17.3z"/><path class="st3" d="M488.2 129.1c-3.5 16.7 20.8 37.5 20.8 37.5l9.7-.7s-1.4-29.8-30.5-36.8zM533.3 166.6s29.2-26.4 18.7-40.3c-25 9.7-33.3 39.6-33.3 39.6l14.6.7z"/><path class="st4" d="M502.1 186.1s-10.4-19.4-7.6-21.5c2.8-2.1 47.9-1.4 50.7 2.1 2.8 3.5-5.6 20.1-5.6 20.1l-37.5-.7z"/><path class="st3" d="M509.7 199.9s-16-9.7-13.9-16 48.6-5.6 50.7-.7c2.1 4.9-13.9 17.4-13.9 17.4l-22.9-.7z"/><circle class="st6" cx="520.2" cy="203.1" r="15.6"/><path class="st0" d="m529.1 223.6-135.4 4.2s-.1 12.1 0 26.1l138.6-7c-1.7-12.6-3.2-23.3-3.2-23.3z"/><path class="st1" d="M395.9 296.7c2.8 2.5 140.2-7.6 140.9-10.4.1-.6-.1-3.9-.6-8.7l-141.7 8.9c.3 5.7.7 9.6 1.4 10.2z"/><path class="st0" d="M394 275.4c.1 4.1.2 7.9.4 11.1l141.7-8.9c-.3-3.1-.8-6.9-1.3-11L394 275.4z"/><path class="st1" d="m532.3 246.9-138.6 7c0 4.5 0 9.2.1 13.7l140-8.5c-.4-4-1-8.2-1.5-12.2zM533.9 259.1l-140 8.5c0 2.7.1 5.3.2 7.8l140.8-8.8c-.3-2.4-.7-4.9-1-7.5z"/><path class="st2" d="m403.7 286.7.5 9.7M411.1 286.7v10.4M425 286l.9 10.4M432.6 285.3l1 10.2M455.6 283.3v11.8M461.8 282.8l.7 8.8M483.3 281.9l1.4 9M491 280.5l.7 10.4M515.3 279.1l.6 9.7M522.2 278.4l1.4 8.3M402.8 253.4l1.4 13.2M409 254.8l1.4 10.4M431.3 252.7l.7 11.8M439.6 252l.7 11.1M468 250.6l1.4 12.5M476.1 250.2l1 12.2M499.3 249.2l1.4 9.8M508.3 248.5l.7 11.1"/><path class="st3" d="M421.5 421.4s.7 13.7 5.6 15 19.4-1.2 18-10.9c-1.4-9.7-4.9-13.9-4.9-13.9l-18.7 9.8zM522.2 415.2c-.7 4.9 11.1 17.4 17.4 15.3 6.2-2.1 9-9 7.6-13.2s-10.4-9.7-10.4-9.7-13.9 2.7-14.6 7.6zM464.6 425.6l7.6 27 11.8-9-5.5-20.8zM500 420.7l.7 22.9 12.5 6.3-2.1-31.3z"/><path class="st1" d="M417.4 390.9s-10.4 6.2-11.8 13.2c1.4 2.8 10.4 6.2 10.4 6.2l10.4 1.4 6.2-9-5.6-16-9.6 4.2z"/><path class="st1" d="M428.5 402.7s-10.4 4.9-12.5 7.6 4.2 14.6 6.9 14.6 14.6-10.4 14.6-10.4l-9-11.8z"/><path class="st6" d="M425.7 391.5c-2.1 22.9 23.3 32.1 68 31 45.8-1.2 56.9-24.1 56.9-24.1s-24.3-13.2-41.7-11.8c-9 3.5-25.7 2.1-25.7 2.1l-39.6-20.8c.2 0-15.8.7-17.9 23.6z"/><path class="st2" d="M434.7 379.7c4.9 24.3 74 29.6 92.8 9.5"/><path class="st2" d="M429.9 386.7s7.6 22.9 56.9 25c36.8-.7 52.8-18 52.8-18"/><path d="M528.2 334.8c0-2.8-14.3-14.3-15.3-17.1s1.4-11.1-2.5-15c-6.2-4.4-24.8-4.9-24.8-4.9l-31.9 11.6 8.3 45.4 19 16.7s7.5 1.9 14.7 3.6c-1.6-8.7-6.3-34-5.9-35.5.5-1.9 13-3.2 13.9-1.9.8 1.2 2.3 31.4 2.7 39.6 1.2.2 2 .2 2.4.2 2.8-.5 10.2-3.2 10.6-6.5s-1.9-12-1.9-12c.9-1.9 3.7-1.4 4.2-3.7.5-2.3.9-5.6-.5-7.9 2.3-4.6-2.3-8.8-2.3-8.8s9.3-1 9.3-3.8z" style="fill:#ffce00"/><path d="M489.8 339.4c-.4 1.5 4.3 26.9 5.9 35.5 4.1 1 8.1 1.8 10.6 2.2-.4-8.2-1.9-38.4-2.7-39.6-.9-1.3-13.4.1-13.8 1.9z" style="fill:red"/><path class="st2" d="M510.4 302.7c3.9 3.9 1.6 12.2 2.5 15 .9 2.8 15.3 14.3 15.3 17.1 0 2.8-9.3 3.7-9.3 3.7s4.6 4.2 2.3 8.8c1.4 2.3.9 5.6.5 7.9-.5 2.3-3.2 1.9-4.2 3.7 0 0 2.3 8.8 1.9 12-.5 3.2-7.9 6-10.6 6.5s-27.8-6-27.8-6l-19-16.7-8.3-45.4 31.9-11.6c0 .1 18.6.6 24.8 5z"/><path class="st2" d="M521.2 347.3c-6 0-14.3.5-16.2 7.4M514.3 332.5s-3.2 3.7-3.2 5.1c0 1.4 5.1 1.4 7.9.9M485.6 319.5c8.8-1.4 20.4-.5 20.4-.5"/><path class="st1" d="M492.7 318.8c.4 1.9 1.5 5.7 4.9 5.7 5.8.1 6-5.6 6-5.6l-1.7-.2c-2.4 0-5.8 0-9.2.1z"/><path class="st2" d="M482.3 314c7.4-2.3 19-2.3 19-2.3"/><path d="M505.5 289.5c5.6 2.1 4.9 13.2 4.9 13.2s-29.2-.7-41.7 13.2c.7 2.8 3.5 7.6 2.8 10.4-.7 2.8-6.9 4.2-6.9 4.2l-4.9 15.3v10.4l-9.7 9s-19.4 26.4-27.1 28.5-16.7-5.6-21.5-14.6c4.9-6.2 24.5-18.7 26.6-30.5 2.1-11.8 3.9-26.4 15-41.7 11.2-15.3 53.5-19.5 62.5-17.4z" style="fill:#686868;stroke:#000;stroke-width:3.7024;stroke-linecap:round;stroke-linejoin:round;stroke-miterlimit:10"/><path class="st2" d="M417.4 390.9c13.4-10.5 24.6-22 29.1-38.6 4.5-16.5 11.2-30.9 22.3-36.4"/><path class="st2" d="M411.1 388.1s26.4-17.4 35.4-56.9c9.7-22.9 24.3-29.9 50.7-31.9"/><path class="st2" d="M405.6 383.2s26.4-16 30.8-43c5-31.1 28.2-45.8 64.3-45.8"/><path class="st3" d="M465.3 340.2c6.2-2.8 2.1-7.6-.7-9.7 0-4.9-.5-9.5-9.5-9.5s-10.6 9.3-9.3 16.2c1.4 6.9 6.2 7.9 11.1 15.5 6.2-.7 9.7-2.8 9.7-2.8s.8-6.9-1.3-9.7z"/><path class="st2" d="M465.3 340.2c-4.2 1.4-7.6-.7-7.6-.7M452.1 328.4c-2.8 4.2 1.4 7.6 6.9 4.9"/><path class="st0" d="M484.5 386.5c3.7-14.4-4.7-19.9-4.7-19.9l-30.1-3 .2 1.6s-15.3 7.6-2.6 21c14.8 4.6 30 2.1 37.2.3z"/><path class="st1" d="M486.8 398.5c-.7-4.2-1.5-8.2-2.3-12-7.2 1.8-22.4 4.3-37.1-.3-.5 3.7-.9 7.5-1.3 11.3 17.2 5.7 34.3 2.6 40.7 1z"/><path class="st0" d="M489 413.1c-.5-4.8-1.3-9.7-2.1-14.5-6.5 1.6-23.5 4.7-40.8-1-.6 4.8-1.1 9.3-1.5 13.1 19.1 8.1 36.6 4.6 44.4 2.4z"/><path class="st1" d="M444.6 410.6c-.5 4.8-.8 8.3-.8 9.4 0 4.9 32.6 16 45.8 0-.1-2.2-.4-4.5-.6-6.9-7.8 2.2-25.3 5.7-44.4-2.5z"/><circle class="st1" cx="466.4" cy="363.6" r="16.7"/><circle class="st4" cx="466.4" cy="363.6" r="5.5"/><circle class="st7" cx="490.6" cy="468.9" r="30.2"/><path class="st1" d="M611.5 350.3c-3.9 3.5-13.1 9.5-30.3 10-15.7.5-26.8-4.6-32.7-8.3-.7 6.7-.3 13.2 1.4 16.6 4.2 8.3 62.5 6.9 67.3-4.9.1-1.6-2.5-7.2-5.7-13.4z"/><path class="st0" d="M581.2 360.3c17.1-.5 26.3-6.5 30.3-10-4.8-9.3-10.8-19.9-10.8-19.9s-33.3 0-42.3 1.4c-5.3.8-8.7 10.6-9.8 20.2 5.8 3.7 16.9 8.8 32.6 8.3zM379.5 356.3c-2.6-16.4-8.1-25.7-18.4-28.7-11.8-3.5-22.2-.7-34.7 6.9-7.9 4.8-10 16.7-9.9 25.8 30 6 55.2-1.3 63-4z"/><path class="st1" d="M316.5 360.4c0 5.4.8 9.7 1.6 11 7.6 4.2 53.5 1.4 62.4-6.9-.3-2.9-.6-5.6-1-8.1-7.8 2.6-33 9.9-63 4zM355.6 218.7v10.4L559 227l1.4-11.1zM334.8 235.4l2.7 79.8 11.1-3.5-4.1-76.3z"/><circle class="st1" cx="335.5" cy="220.1" r="22.9"/><path class="st2" d="m318.3 231.9 6.7-4.9M315.3 220.8l5.6-.7M318.8 208.7l5.8 4.7M326.4 201.3l4 7.7M336.2 208.3l.6-10.4M342.4 209.2l6.2-7.9M347.5 213.6l8.6-3.7M348.6 220.1l7.9 2.3M344.5 226.3l6.2 9.7M338.9 229.8l2.8 10.4M330.4 230.5l-2.6 9.7"/><circle class="st1" cx="340" cy="324.5" r="21.8"/><path class="st2" d="m336.8 333.9 1.7 12.3M344.5 331.8l6.2 11.2M351.4 327.7l7.2 4.8M348 317.3l7.8-7.2M341.7 316.6v-11.1M333.4 317.3l-5.6-8.8M328.5 324.2l-7.9-1.4M329.9 331.2l-4.9 6.9"/><circle class="st1" cx="573.4" cy="224.8" r="21.4"/><path class="st2" d="m564.5 231.2-4.8 6.7M571.5 232.3l-.9 11.4M578.9 232.8l3.7 9.5M586.3 223.3l8.1-1.6M583.3 229.1l9 4.2M583.5 217.5l5.6-6M577.7 215.2l2.1-10.4M570.8 215.7l-3.5-10.2M565.5 220.5l-7.2-6.7M562.2 226.3h-7.4"/><circle class="st1" cx="579.8" cy="326.3" r="23.6"/><path class="st2" d="m574.5 335.8-3 10.6M581.4 336.7l1.9 11.1M587.5 334.6l6 7.2M592.3 328.4l9 5.5M592.3 320l9-2M587.5 314.5l4.1-7.9M579.1 315l-1.6-10.9M571 317.5l-5.8-6.5M568 324.9l-10.4-2.1M568.7 331.8l-8.6 6.5M325 363.8v9M332 363.8l.7 9M345.2 364.5l.9 7.6M354.2 362.4l.7 9M363.2 360.3l1.9 9.7M371.6 358.9l1.3 8.4M557.6 357.5l1.4 13.9M566.2 360.3v12.5M579.1 360.3l.7 12.5M587.9 361l1.4 12M598.6 358.9l3.4 12.5M604.8 355.5l4.2 13.8"/><path class="st3" d="M693 191.6s-.2-13.4-7.9-15.5c-7.6-2.1-10.2 3-10.2 3l2.8 18 15.3-5.5zM722.1 181.2s2.8 9 6.2 9.7c3.5.7 11.8-4.9 10.4-8.3-1.4-3.5-.7-5.6-6.9-6.9s-9.7 5.5-9.7 5.5zM665.2 192.3s-5.6-12.7-12.5-12c-6.9.7-.7 10.6-.7 10.6l8.3 6.9 4.9-5.5z"/><path class="st3" d="M670.1 191.6s-9.7-13.9-1.4-16c8.3-2.1 13.9 16 13.9 16h-12.5zM699.2 191.6s-8.3-15.3 2.8-17.4c11.1-2.1 7.6 17.4 7.6 17.4h-10.4zM718 174.3c-3.5 1.4-5.6 5.6-5.6 9s3.5 5.6 5.6 4.9c2.1-.7 8.3-4.9 7.6-8.3s-4.2-7-7.6-5.6z"/><path class="st6" d="M664.5 221.5 652 190.9h76.4l-13.2 32z"/><path class="st0" d="m680.5 381.8-5.6-134 30.6 2.8 1.4 125-15.3 16.6z"/><path class="st1" d="m724.9 221.5-71.5-1.4s1.9 5.5 4.2 11.1H720c2.8-5.1 4.9-9.7 4.9-9.7z"/><path class="st0" d="M657.6 231.2c1.9 4.9 4.2 9.9 5.8 11.8 3.5 4.2 43.5 4.9 48.4.7 2.4-2 5.6-7.5 8.3-12.5h-62.5z"/><path class="st4" d="M639.5 240.9c-4.2 1.4-3.7 11.3-.2 12.7s94.2 1.2 97-.2c2.8-1.4 2.8-9.7-.7-10.4-3.5-.7-91.9-3.5-96.1-2.1zM643 304.1c-3.5.7-2.1 11.1 2.1 11.8s84-2.1 84-2.1 18.7-6.9 11.8-9.7c-7-2.8-94.4-.7-97.9 0z"/><circle class="st4" cx="690.9" cy="307.5" r="7.6"/><circle class="st4" cx="687.4" cy="248.5" r="7.6"/><path class="st11" d="M708.2 370.5s-7.6-26.3 8.3-48.5c10.4-15.9 32.6-22.2 37.5-20.8 4.9 1.4 13.9 18.7 13.2 24.9-4.9 13.8-35.4 27-35.4 27l-4.9 20.1-18.7-2.7z"/><path class="st12" d="M750.6 320c-34 13.8-29.2 37.4-29.2 37.4"/><path class="st11" d="M695.1 421.1s-8.6 18-10 28.4c-1.4 10.4 13.4 14.5 13.4 14.5s43.7 6.2 49.3-18c-11.1-16.6-8.3-44.3-8.3-44.3l-10.4-33.2-16.7 3.5-17.4 27v22.1z"/><path class="st13" d="M686.7 380s-6.9-2.5-13.2 7.8c-6.2 10.4 6.9 36 20.1 38.8 16 2.1 13.9-9 13.9-9l-13.9-9-6.9-28.6z"/><path class="st13" d="M697.8 381.6s-9-6.2-13.9 2.8 5.6 36 23.6 33.2c13.9-1.4 4.9-11.8 4.9-11.8l-14.6-24.2z"/><path class="st14" d="M718.9 369.8c0 9 6.7 12.4 6.7 12.4s-.7 5.6 4.9 6.9c-1.4 5.6 2.8 6.2 2.8 6.2s-1.4 8.7 3.5 9.2 15.5-3.2 17.6-8.1c2.1-4.9-1.6-12.9-1.6-12.9s0-12.4-7.6-16.6c-2.1-7.6-8.3-7.6-8.3-7.6s-2.8-8.3-7.6-8.3c-4.9 0-7.6 6.2-7.6 6.2s-2.8 3.6-2.8 12.6z"/><path class="st12" d="M725.6 382.3s9.7-5.6 11.1-22.9M730.5 389.2s13.2-4.9 14.6-22.2M733.2 395.4s10.4 0 19.4-11.8"/><path class="st14" d="M718.7 358c-2.8.7-19.7 17.3-21.8 20.8-2.1 3.5.2 17.3 2.3 22.2 2.1 4.9 10 7.2 12.7 4.4 2.8-2.8-.9-22.4 1.2-25.8 2.1-3.5 11.1-9 11.1-13.8 0-5-2.8-8.5-5.5-7.8z"/><path class="st11" d="M767.1 495.8c-2.5-24.1-14.4-48.5-14.4-48.5l-73.6-.7-10.5 28.4 5.6 25.3c47.5 12.1 82.6-.1 92.9-4.5z"/><path class="st15" d="m674.3 500.4 2.7 12.1s38.2 17.3 90.2-1.4c.5-4.9.4-10-.1-15.2-10.3 4.3-45.4 16.5-92.8 4.5zM635.4 545.7s23.6 6.9 45.8-.7l-.5-22.4-41.4-2.3-3.9 25.4z"/><path class="st11" d="m650.6 448.1-11.3 72.1 41.4 2.4-1.6-75.9zM781.1 442.5l-28.4 4.9 14 76.2 39.8-5.2z"/><path class="st15" d="m806.5 518.4-39.8 5.3 3.5 19.3s29 3.5 41.5-9l-5.2-15.6z"/><path class="st12" d="m644.4 546.4 2.8-20.1M652.7 547.7l.7-19.3M666.6 547.1v-17.4M674.2 545.7l-.7-16M778.1 543.3l-2.1-15.9M785.3 541.5l-2.1-14.5M796.9 539.2l-2.1-14.1M804 537.3l-2-13.1"/></svg>