<svg version="1.1" id="Calque_1" xmlns="http://www.w3.org/2000/svg" x="0" y="0" viewBox="0 0 900 900" style="enable-background:new 0 0 900 900" xml:space="preserve"><style>.st0{fill:#fff}.st1{fill:red}.st2,.st3,.st4,.st5,.st6{fill:none;stroke:#000;stroke-width:3.833;stroke-linecap:round;stroke-linejoin:round}.st3,.st4,.st5,.st6{fill:#00594a}.st4,.st5,.st6{fill:#ffce00}.st5,.st6{fill:red}.st6{fill:#fff}.st7{fill:#878787}.st7,.st9{stroke:#000;stroke-width:3.833;stroke-linecap:round;stroke-linejoin:round}</style><path class="st0" d="M711.4 641.3s-1.5 15.3 4.7 21.3c6-10 5.6-21.3 5.6-21.3h-10.3zM694.4 635s-.6 15.3 4.1 21.8c6-10.3 6.3-21 6.3-21l-10.4-.8zM674.5 648.6s7.2 9.3 16 11c-2.6-17.2-10.6-22.2-10.6-22.2l-5.4 11.2zM660.9 647.6s.3 14.4 7.2 19.4c4.3-13.4 3.4-20.1 3.4-20.1l-10.6.7z"/><path class="st1" d="M711.4 641.3s-.5 4.5.1 9.5c0 0 6.5-2.8 9.1.5 1.3-5.6 1.1-10 1.1-10h-10.3zM694.4 635s-.1 3.8.3 8.4c0 0 5.1-1.7 8.6 1.8 1.4-5.4 1.5-9.3 1.5-9.3l-10.4-.9zM674.5 648.6s2.3 2.9 5.7 5.9c0 0 2-8.7 6.1-8.7-3.1-6.3-6.6-8.4-6.6-8.4l-5.2 11.2zM660.9 647.6s.1 4.3 1.3 9.1c0 0 4.6-3.7 8.7-.3 1.1-6.3.6-9.3.6-9.3l-10.6.5z"/><path class="st2" d="M711.4 641.3s-1.5 15.3 4.7 21.3c6-10 5.6-21.3 5.6-21.3h-10.3zM694.4 635s-.6 15.3 4.1 21.8c6-10.3 6.3-21 6.3-21l-10.4-.8zM674.5 648.6s7.2 9.3 16 11c-2.6-17.2-10.6-22.2-10.6-22.2l-5.4 11.2zM660.9 647.6s.3 14.4 7.2 19.4c4.3-13.4 3.4-20.1 3.4-20.1l-10.6.7z"/><path class="st3" d="M598.3 614.5c11.2 6.3 62.6 18.8 67 17.2 4.3-1.5 3.1-17.5 9.1-19.4 6-1.9 39.5 9.7 39.5 9.7l1.5 13.8-14.7-.3-18.8-7.2-6 15.3-36.7-2.6-36.7-10-14.4-4.7 1.9-11.9c.3.1-2.9-6.2 8.3.1z"/><path class="st4" d="M591.4 631.3s77.7 25.7 85.7 20.3c8.2-5.4 1.3-16 6.9-17.2 5.6-1.3 20.1 6.3 20.1 6.3l7.8-7.8s-27.2-11.2-32.8-9.7c-5.6 1.5-2.8 16-8.8 18.5S593 624.4 593 624.4l-1.6 6.9z"/><path class="st5" d="M750.1 630.7s28.7 3.4 34.8 14.1c-20.7 10.3-37.3-.3-37.3-.3l2.5-13.8z"/><path class="st6" d="M725.7 623.8s27.2 2.6 27.6 5c.3 2.6-1.5 16.9-4.3 18.5-2.8 1.5-27.2-6-27.2-6l3.9-17.5z"/><path class="st4" d="M708.6 618.2c-2.8 1.9-6 19.7-4.3 22.5 1.5 2.8 15.6 5.4 18.5 4.3 2.8-.9 6.5-22.2 6-24.4-.8-2-17.4-4.3-20.2-2.4zM296.9 549.7l-155.6-35.4-2.4 13.4 152.7 32.8z"/><path class="st5" d="m272.4 556.5 19.2 4 5.3-10.8-21.6-5zM155.1 517.4l-13.7-3.1s-2.6.3-3.7 5.6c-1.3 5.4 1.3 7.8 1.3 7.8l13.4 2.9 2.7-13.2z"/><path class="st3" d="M192.7 522.3c-2.8 1.3-6.9 16.6-4.3 19 2.6 2.6 22.2 6.3 25 5.4 2.8-.9 5-16.2 3.2-19-1.9-2.8-21.1-6.5-23.9-5.4z"/><path class="st6" d="M217.7 527.7c-2.8 1.3-6.9 16.6-4.3 19 2.6 2.6 24.5 6.5 27.3 5.6 2.8-.9 6-15.1 4.2-17.9-1.9-2.7-24.4-8-27.2-6.7z"/><path class="st6" d="M255 552.5s-4.7-7.2 3.1-11.6c0 0-.3-5.4-5.4-6.9-5-1.5-10.3-1.5-13.2 8.4-2.8 10 2.8 12.8 8.2 14.1 5.4 1.2 7.3-4 7.3-4z"/><path class="st3" d="M291.6 537c-22.5-32.2-104.8-57.2-123.6-61.3-18.8-4.2-32.2-24.1-27.1-42.2 3.4 11.4 10.6 17.4 17.5 20.6 11-10.6 17.2 3.6 17.2 3.6l115.2 31.7 30-7.2s-17.5-63.5-51.7-90.6c-3.3-2.9-69.3-29.3-83.9-32.2-14.6-2.9-39.2-5-32.2-37.9 4.6 12.8 11.9 18.4 18.3 20.7 7.2-12.8 13.8 1 13.8 1s33 5.9 85.1 19.7c52.1 13.8 96 96.5 96 96.5l21.7 61.7 9.2 60.9-34.6 11.6-49.7-65.2c.1.2 1.4 40.7-21.2 8.6zM483.6 625.5l-3.3 34.2L527 686l53.4-12.1s15.8-61.3 34.2-68.9c18.4-7.5 97.6-3.3 120.2-8.3 22.5-5 32.6-23.4 32.6-39.2-9.6 18.8-19.2 20.4-21.7 20.8-2.6.4-3.3-6.6-6.3-7.5-2.9-.9-6.3 6.6-6.3 6.6l-63.9-2-55.8-19-8.4-1.5s7.2-42.2 23-49.7 92.6-21.3 100.6-22.1c16.2-2.9 33-18.8 28.7-39.6-7.2 16.7-17.1 20.8-17.1 20.8s-4.6-7.2-8.3-7.2c-3.7 0-5.9 7.9-5.9 7.9l-127.3 4.5s-3.7-33 2.9-46.8c6.6-13.8 91-44.2 96.5-46.8 16.2-6.3 28.4-28.7 20.1-45.1-2.9 19.7-12.9 21.3-12.9 21.3s-5-4.6-8.8-2.9c-3.7 1.7-4.6 9.6-4.6 9.6l-104.8 26.3-28.7 18.4-10.4 33.9-11.2-6.6s-3.3-57.2 5.4-67.2c8.8-10 46.4-19.7 52.6-21.7 24.1-7.2 30.4-25.9 28.7-41.8-9.6 18.4-21.7 23.4-21.7 23.4s-6.3-7.5-10.9-6.6c-4.6.9-5.9 10-5.9 10l-43.4 9.2-27.1 10.5-20.1 23.4-.9 40.9 4.2 22.5-12.9 75.1 18.4 31.7 3.7 51-23.3 34.3z"/><path class="st3" d="M135.1 576.6s-.4 28.7 36.3 34.2c36.7 5.4 106.4 13.4 122.3 27.1 15.8 13.8 20.4 35.9 20.4 35.9l36.3 20.8 60.6-14.2 28.4-64.7-103.5-61.3-23-15.1-15.8 13.8.4 30.9s-50.1 16.2-126 6.6c-21 1.9-36.4-14-36.4-14z"/><path class="st5" d="M182.3 349.2s67.2 11.6 94.3 23.4c27.1 11.6 66.8 51.4 78.1 91.4 12.1 10 16.7-5.9 16.7-5.9s1.7-7.9.9-10.9c-.9-2.9-11.2.4-12.1-2-.9-2.6 3.7-10.5 2.6-13.8-1.3-3.3-9.2 1.7-10.9-1.7-1.7-3.3 2.9-7.2.9-10-2-2.9-6.6 1.7-9.2-1.7-2.6-3.3.4-8.8-.9-11.6-1-2.3-7.3 1.8-9.6-1.7-1.7-2.6.9-9.6-.9-11.6-1.7-2-8.8.9-10.9-1.7-2-2.6.9-8.8-1.7-12.1-2.6-3.3-11.2 0-11.2 0L280 364.2 240.4 345s-8.3 7.5-11.6 7.2c-3.3-.4-3.3-11.2-7.2-12.1-3.7-.9-8.3 7.9-12.5 7.2-4.2-.9-5.4-10.9-8.3-10.9s-6.6 7.9-8.8 8.3c-2 .4-8.8-1.3-8.8-1.3l-.9 5.8zM736.1 585l-129.4-16.2s9.2-17.9 12.5-17.1c3.3.9 2.9 7.2 6.6 7.5s5.4-7.2 9.6-6.3c4.2.9 3.3 8.3 9.2 9.2 5.9.9 8.8-4.6 12.5-3.3 3.7 1.3 4.6 6.6 10 7.5s7.9-6.3 12.1-5c4.2 1.3 3.7 9.6 8.8 10.5 5 .9 8.8-7.5 11.2-6.6 2.6.9 3.7 7.4 8.8 7.9 8.3.9 7.5-5 11.2-4.6 3.7.4 7.9 8.3 7.9 8.3l10.5 1.3-1.5 6.9zM588.4 484.8c1.3 0 52.6-13.8 52.6-13.8l86.4.4s6.3-5.9-1.3-6.3c-7.5-.4-10.9-7.9-13.8-8.3-2.9-.4-4.6 6.6-10.5 6.3-5.9-.4-7.5-7.5-10.5-7.9-2.9-.4-5 7.9-10 7.5-5-.4-10-8.3-12.5-8.3s-5.9 6.6-11.6 6.6c-5.9 0-8.3-7.9-12.5-7.9s-7.5 10.5-12.5 10.5-7.9-7.9-11.2-7.9c-3.3 0-4.2 7.9-10.5 9.2s-7.2-7.2-11.2-6.6c-4.2.4-.9 9.2-3.7 10-2.9.9-17.9 7.9-17.9 7.9l10.7 8.6zM698.1 364.2s-92.6 18.4-117.3 30.9c-24.7 12.5-28.4 59.7-28.4 59.7l-15.8-24.1s4.6-1.7 6.6-4.6c2-2.9-3.3-5.4-1.3-7.5 2-2 5.4 3.7 6.6-.4 1.3-4.2-5.4-17.5-2-20.8 3.3-3.3 10.5 2.6 15.1-1.3 4.6-3.7-3.3-13.8 2.9-15.5 6.3-1.7 11.2 6.6 16.2 4.6s1.7-14.2 6.6-14.6c5-.4 10.9 8.3 16.2 7.2 5.4-1.3 6.6-14.2 10-14.2s8.8 9.6 13.4 8.8c4.6-.9 5.9-12.1 9.2-12.1s7.2 7.9 12.5 6.3c5.4-1.7 7.9-11.2 10.9-11.2s5.4 8.8 9.6 7.5c4.2-1.3 5.4-10.9 10-10.5 4.6.4 6.3 7.5 12.5 6.6 6.5-1.1 6.5 5.2 6.5 5.2zM501.5 416.4s-5-41.3 8.8-59.3c13.8-17.9 80.1-28.7 80.1-28.7s9.2-8.8-13.4-3.7c-4.2-.4-4.6-7.2-8.3-7.2s-7.5 9.6-11.6 10.5c-4.2.9-9.2-7.9-12.9-6.3-3.7 1.7-2.9 10.5-7.5 11.6-4.6 1.3-11.6-5.4-14.6-4.6-2.9.9-.9 12.5-5.4 14.2-4.6 1.7-10.9-5-14.2-4.2-3.3.9 1.3 16.7-.4 17.1-1.7.4-9.6-2-13.4.4-3.7 2.6-15.8 28-15.8 28l10 20.1 18.6 12.1zM169.8 598l121.9 4.2s-3.7-25.4-12.5-25.4c-3.7 0-3.7 11.2-10 11.2s-7.2-9.2-12.1-9.2c-5 0-7.2 10.5-12.9 10.9-5.9.4-8.8-10-13.4-10s-4.2 10.5-9.6 10.5c-5.4 0-10-9.6-13.4-10-3.3-.4-7.5 11.6-12.1 11.6s-6.6-8.8-10.5-8.8c-3.7 0-6.3 7.5-13.8 7.9-7.6.4-1.6 7.1-1.6 7.1zM170.6 463.6l107.7 25v-20.4s-6.3 3.3-10.9 2.6c-4.6-.9-4.2-7.5-8.8-8.3-4.6-.9-9.6 5.9-12.9 5-3.3-.9-9.2-10.5-12.1-10.9-2.9-.4-2.9 7.9-9.6 7.5-7.5-.9-9.2-10.9-12.1-10.9-2.9 0-5.9 7.9-11.2 6.6-7.9-1.7-7.2-7.5-10-8.3-2.9-.9-4.2 5.9-7.9 7.2-3.7 1.3-8.3-1.3-8.3-1.3l-3.9 6.2z"/><path class="st7" d="M185.1 359.7c-14.6-2.9-39.2-5-32.2-37.9 4.6 12.8 11.9 18.4 18.3 20.7 7.2-12.8 13.8 1 13.8 1v16.2h.1zM594.6 341.7c24.1-7.2 30.4-25.9 28.7-41.8-9.6 18.4-21.7 23.4-21.7 23.4s-6.3-7.5-10.9-6.6-5.9 10-5.9 10l9.8 15zM698.1 375.9c16.2-6.3 28.4-28.7 20.1-45.1-2.9 19.7-12.9 21.3-12.9 21.3s-5-4.6-8.8-2.9c-3.7 1.7-4.6 9.6-4.6 9.6l6.2 17.1zM728.5 483.1c16.2-2.9 33-18.8 28.7-39.6-7.2 16.7-17.1 20.8-17.1 20.8s-4.6-7.2-8.3-7.2-5.9 7.9-5.9 7.9l2.6 18.1zM734.8 596.7c22.5-5 32.6-23.4 32.6-39.2-9.6 18.8-19.2 20.4-21.7 20.8s-3.3-6.6-6.3-7.5c-2.9-.9-6.3 6.6-6.3 6.6l1.7 19.3zM171.5 590.8c-4.6-5.4-10.5-8.3-17-2.3-11.8-4.1-19.3-11.9-19.3-11.9s-.4 28.7 36.3 34.2v-20h0zM168 475.7c-18.8-4.2-32.2-24.1-27.1-42.2 3.4 11.4 10.6 17.4 17.5 20.6 11-10.6 17.2 3.6 17.2 3.6l-7.6 18z"/><path class="st5" d="M511.3 421.7s68.2 8.8 68.2 12.5c0 3.7-11.2 42.5-11.2 42.5L502 449.1l9.3-27.4z"/><path class="st6" d="M559.6 428.8c11.2 2 19.9 4 19.9 5.4 0 3.7-11.2 42.5-11.2 42.5l-19.9-8.3 11.2-39.6z"/><path class="st2" d="m575.9 450.4-62.7-18.8"/><circle class="st5" cx="505.7" cy="430.4" r="15.1"/><path class="st5" d="M154.3 183.9c0 12.5 24.7 23.4 24.7 23.4h45.1s-4.6-13.4-10.5-15.8c-5.9-2.6-20.4-2-29.6-.9-9.2 1.2-18.8-1.2-29.7-6.7zM153.4 247c0-12.5 24.7-23.4 24.7-23.4h45.1s-4.6 13.4-10.5 15.8c-5.9 2.6-20.4 2-29.6.9-9.2-1.3-18.8 1.2-29.7 6.7z"/><path class="st5" d="m220.7 202.7-55.5.4s-10 1.7-10.5 12.1c-.4 10.5 10.9 12.9 10.9 12.9l52.6-.9 2.5-24.5z"/><path class="st4" d="M238.2 208.2s-5.4-10.9-12.5-11.2c-7.2-.4-15.1 5.4-14.6 20.1.4 14.6 8.3 18.8 15.5 18.4 7.2-.4 10.9-14.2 10.9-14.2l.7-13.1zM403.9 178.9s-11.2 0-18.4-9.2c-7.2-9.2-4.2-36.7-11.2-47.1 12.1 1.7 20.8 17.9 20.8 17.9l8.8 38.4z"/><path class="st5" d="M419 117.2c-8.8 3.7-13.8 21.3-13.8 21.3l4.2 38.8s17.9-6.6 16.7-20.4c-1.4-11.9-9.3-25.5-7.1-39.7zM680.2 234.6c0 4.5-3.7 8.2-8.2 8.2h0c-4.5 0-8.2-3.7-8.2-8.2v-35.5c0-4.5 3.7-8.2 8.2-8.2h0c4.5 0 8.2 3.7 8.2 8.2v35.5zM712.7 234.6c0 4.5-3.7 8.2-8.2 8.2h0c-4.5 0-8.2-3.7-8.2-8.2v-35.5c0-4.5 3.7-8.2 8.2-8.2h0c4.5 0 8.2 3.7 8.2 8.2v35.5z"/><path class="st4" d="M696.5 234.6c0 4.5-3.7 8.2-8.2 8.2h0c-4.5 0-8.2-3.7-8.2-8.2v-35.5c0-4.5 3.7-8.2 8.2-8.2h0c4.5 0 8.2 3.7 8.2 8.2v35.5zM729 234.6c0 4.5-3.7 8.2-8.2 8.2h0c-4.5 0-8.2-3.7-8.2-8.2v-35.5c0-4.5 3.7-8.2 8.2-8.2h0c4.5 0 8.2 3.7 8.2 8.2v35.5z"/><path class="st3" d="M442.3 322.9s5-81.4-1.3-86.8c-6.3-5.4-45.9-7.5-55.5-5.4-9.6 2-35 32.6-40.9 33.9-2.9-18.8 25.9-38.5 20.8-39.2-5-.9-133.5-.4-133.5-.4s-5.4-.4-5.9-8.8c-.4-8.3 7.9-8.3 7.9-8.3s101.8.9 105.2 0-26.7-11.6-28.7-30c-39.6-12.1-25.4-46.8-25.4-46.8s36.3 5.9 33.9 43.8c-.4 5.4 20.8 25 36.3 27.6 15.5 2.6 63 6.6 65.2 5.4 2-1.3-15.8-7.9-19.7-34.6-1.9-29.4 9.5-10 11.2-1.3 1.9 8.8 6.3 27.6 23.4 33 17.1 5.4 37.2 14.2 37.6 39.2-1.3-28 15.1-32.6 31.7-42.9 16.7-10.5 32.6-31.3 32.6-31.3l8.3 6.3s-27.1 31.3-23.4 31.7c3.7.4 45.5-.4 64.7-5.4 26.7-7.5 46.4-42.5 46.4-42.5l10.9 3.7s-19.7 32.2-37.6 44.7c-2.6 1.7 120.6 3.3 120.6 3.3l-.4 13.8s-116.4-2.6-119.3-.9c-2.9 1.7 30.4 3.3 51 40.9 1.7 8.3-7.5 7.5-7.5 7.5S622 241.4 599 233.8c-23-7.5-80.1-5.9-89.7-2.9-9.6 2.9-5.9 127.8-5.9 127.8l-22.1 15.8-31.3-29.6-7.7-22z"/><path class="st5" d="m770.7 202.3 35.1-14.6 4.6 10-32.2 12.9 3.4 10.5 29.2 10.8-2 10.5-33-11.4-18.8-15.8zM128.2 202l-35.6-13.4-4.2 10.1 32.5 11.9-3 10.6L89.1 233l2.4 10.3 32.6-12.3 18.2-16.4z"/><circle class="st4" cx="809.9" cy="190.7" r="10"/><path class="st4" d="M651.7 267.8c-7.2 3.7-5.4 18.8 0 25 7.5 13.8-7.5 10.9-5.9 19.7 20.8 7.9 15.5-16.2 15.5-16.2s2.9 32.6 18.4 22.5c10.5-7.9-11.6-28.4-11.6-28.4s18.8 18.8 23.8 1.3c1.7-7.2-15.8 3.7-19.2-10-2.6-6.8-13.8-17.7-21-13.9zM636.8 167.1c7.4 2.9 17.8-8.2 19-16.4 5.5-14.7 13.2-1.4 18.7-8.3-7.5-21-22.4-1.1-22.4-1.1s22.7-23.4 5.1-28.6c-12.8-2.8-13.9 27.3-13.9 27.3s2-26.4-14.6-18.9c-6.5 3.3 13.2 9.6 4.9 21.1-3.4 6.4-4.3 22 3.2 24.9zM731.6 216.1c.3 8.9 16 14.7 24.9 12.4 17.4-.6 7 12.9 16.6 15.6 18.3-16.9-8.6-23.5-8.6-23.5s33.9 13.3 31.6-7c-2.7-14.3-34.1-2.4-34.1-2.4s28-9.3 13-23c-6.3-5.2-4.1 17.6-19.5 14.2-7.7-1-24.2 4.7-23.9 13.7z"/><circle class="st4" cx="604.2" cy="184.8" r="7.9"/><circle class="st4" cx="614.7" cy="174.3" r="7.9"/><circle class="st4" cx="624.7" cy="162.7" r="7.9"/><circle class="st4" cx="508.9" cy="191.2" r="8.2"/><circle class="st4" cx="519.5" cy="181.8" r="8.2"/><circle class="st4" cx="529.5" cy="171.4" r="8.2"/><path class="st4" d="M261.2 140.1c15.5 15.1 17.5 32.2 28 39.2 15.5 10 21.3-1.7 21.3-1.7s-15.8-5.4-23-16.2-11.8-22.1-26.3-21.3zM318.8 174.7s10-5.4 7.9-18.4c-.4-10-10-11.6-12.9-17.1-2.9-5.4-7.5-11.6-10-20.8-6.6 12.9 2.9 23.4 7.5 28.7 4.5 5.5 7.5 27.6 7.5 27.6zM167.6 214.7c.1 8.9-15.5 15.2-24.5 13.2-17.5-.1-6.6 13-16.1 16.1-18.8-16.2 7.8-23.8 7.8-23.8s-33.5 14.3-31.8-6.1c2.3-14.4 34-3.6 34-3.6s-28.4-8.4-13.8-22.6c6-5.4 4.7 17.5 19.9 13.5 7.9-1 24.5 4.3 24.5 13.3zM540.8 176.3c7.4 2.9 17.8-8.2 19-16.4 5.5-14.7 13.2-1.4 18.7-8.3-7.5-21-22.4-1.1-22.4-1.1s22.7-23.4 5.1-28.6c-12.8-2.8-13.9 27.3-13.9 27.3s2-26.4-14.6-18.9c-6.5 3.3 13.2 9.6 4.9 21.1-3.4 6.4-4.3 22 3.2 24.9z"/><circle class="st5" cx="814.5" cy="237.8" r="10.5"/><circle class="st5" cx="732" cy="218.1" r="10.9"/><path class="st5" d="M405.2 172.6c23.4-23.4-8.8-53.4-8.8-53.4s-22.9 34.7 8.8 53.4z"/><circle class="st5" cx="85.5" cy="239" r="10.5"/><path class="st5" d="m281 280.1 14.5-36.4-10.4-4.6-12.8 33.3-10.9-3.2-11.6-30-10.7 2.3 12.1 33.9 16.6 19.1z"/><path class="st6" d="M218.1 315.4c1.3.9 26.3 36.7 26.3 36.7l8.3-.4-27.6-39.2-7 2.9z"/><path class="st3" d="m259.9 347.6-24.7-36.8-8.7 4.2 26.4 36.6z"/><path class="st6" d="M220.3 316.6c-7.9 1.7-28-13.8-11.6-26.3 16.2-12.5 24.7 6.3 25 19.7.4 13.3-5.5 5-13.4 6.6z"/><path class="st2" d="M214 296.6c-6.6 3.7 9.6 19.7 9.6 19.7l7.5-2.6s-10.4-20.8-17.1-17.1z"/><path class="st6" d="M316.7 315.4c-1.3.9-26.3 36.7-26.3 36.7l-8.3-.4 27.6-39.2 7 2.9z"/><path class="st3" d="m275.1 347.6 24.5-36.8 8.8 4.2-26.3 36.6z"/><path class="st6" d="M314.7 316.6c7.9 1.7 28-13.8 11.6-26.3-16.2-12.5-24.7 6.3-25 19.7-.4 13.3 5.5 5 13.4 6.6z"/><path class="st2" d="M321 296.6c6.6 3.7-9.6 19.7-9.6 19.7l-7.5-2.6c-.1 0 10.4-20.8 17.1-17.1z"/><circle class="st5" cx="292.3" cy="239.5" r="10.3"/><circle class="st5" cx="243.7" cy="235.5" r="10.7"/><path d="M267.3 320.6c-9.2-.1-15.5-16.2-13.2-25.6.4-18-13.4-7-16.4-16.9 17.1-19 24.3 8.4 24.3 8.4s-14.2-34.8 6.8-32.7c14.8 2.6 3.1 35.1 3.1 35.1s9.2-29 23.5-13.8c5.5 6.4-18.1 4.6-14.3 20.3 1.1 8.3-4.6 25.3-13.8 25.2z" style="fill:#ffce00"/><path class="st1" d="M267.3 320.6c-9.2-.1-15.5-16.2-13.2-25.6l27.2.5c.9 8.2-4.8 25.2-14 25.1z"/><path class="st2" d="M267.3 320.6c-9.2-.1-15.5-16.2-13.2-25.6.4-18-13.4-7-16.4-16.9 17.1-19 24.3 8.4 24.3 8.4s-14.2-34.8 6.8-32.7c14.8 2.6 3.1 35.1 3.1 35.1s9.2-29 23.5-13.8c5.5 6.4-18.1 4.6-14.3 20.3 1.1 8.3-4.6 25.3-13.8 25.2z"/><circle class="st5" cx="267.7" cy="330.6" r="17.8"/><circle class="st5" cx="267.8" cy="328.8" r="6.6"/><path class="st5" d="M238.7 309.9c1.4 2.8.3 6.4-2.6 7.8l-11.6 5.9c-2.8 1.4-6.4.3-7.8-2.6h0c-1.4-2.8-.3-6.4 2.6-7.8l11.6-5.9c2.9-1.4 6.4-.2 7.8 2.6h0zM296.2 309.9c-1.4 2.8-.3 6.4 2.6 7.8l11.6 5.9c2.8 1.4 6.4.3 7.8-2.6h0c1.4-2.8.3-6.4-2.6-7.8l-11.6-5.9c-2.8-1.4-6.3-.2-7.8 2.6h0zM231.9 348.3s.6 28 11.5 32.6c10.9 4.6 39.9 6 46.9 3.1 7.2-2.9 10-35.3 10-35.3l-68.4-.4z"/><path class="st2" d="m233.2 357.9 65.1.5"/><path class="st7" d="M488.5 399.7s2.2-36.9-5-54.2-53.5-29.4-53.5-29.4l-25 5.6.6 16 16.2 27 21.3 17.9 5.6 15.7 15.1 9.7 24.7-8.3z"/><path class="st7" d="M430.6 333s7.8-23.5-5.4-31.9c-13.2-8.4-30.4-5-38.2-5.4-7.8-.3-16.2-3.2-26.3-13.2-4.7 14.1 11.2 22.5 22.2 22.5s26.6 8.2 26.6 8.2l1.9 14.7"/><path class="st7" d="M402.7 337.1s2.8-23.1-3.4-23.8c-6.3-.6-6 8.4-28.5 9.1-11.2.6-26.6-6.5-27.9-14.4 10 5.4 20.4 5.7 28.7 5 14.1-1.3 27.9-8.2 38.2-5 10.3 3.1 8.2 20.3 8.2 20.3"/><path class="st4" d="M237.8 653.8c-5.4 3.3-9.2 9.2-6.6 12.1 2.6 2.9 14.2-8.8 14.2-8.8s-7.5 12.1-2.9 12.9c4.6.9 12.5-11.6 12.5-11.6s-6.6 12.9-2.9 13.4c3.7.4 13.8-13.4 13.8-13.4s-5.9 13.8-2 13.4c3.7-.4 10.9-12.9 10.9-12.9s-5 12.5-1.3 13.4c3.7.9 12.9-9.2 12.9-9.2s28.7 4.2 31.7 1.7c2.9-2.6-4.6-14.2-4.6-14.2s-1.7-102.7 1.7-102.2c3.3.4 40.5 74.7 80.5 86.4 40.1 11.6 25.9 15.8 90.2 2 64.3-13.8 93.5-78.1 98.5-78.4 5-.4-11.2 89.7-11.2 89.7s-6.3 12.9-3.7 15.8c2.6 2.9 30.9 1.3 33.9-.4 2.9-1.7 9.2 12.5 13.8 10.9 4.6-1.7-5.4-13.8-5.4-13.8s10.5 15.1 15.1 14.2c4.6-.9-3.7-14.2-3.7-14.2s8.8 15.5 12.9 14.6c4.2-.9-4.6-14.2-4.6-14.2s10.9 14.6 15.1 14.2c4.2-.4-5.4-14.6-5.4-14.6s13.8 15.5 18.4 14.2c4.6-1.3-5.4-12.5-11.2-17.1-5.9-4.6-52.1-15.5-51-20.1 1.3-4.6 35-112.8 5-116.4-34-4.1-87.3 43.6-99.3 44.2-20.4 1.3 21.5-100.3 21.5-100.3l-67-17.9s-53.8 4.2-71.8 4.2c-17.9 0-81 28.7-86.4 26.7-5.4-2-5-70.9-3.3-81.4s17.9-29.6 13.4-32.2c-7.2-3.7-16.2 16.2-20.4 17.9s-39.6-.9-42.9-3.7c-3.3-2.9-14.6-14.2-18.4-10.5-3.7 3.7 14.6 12.1 12.5 14.6-2 2.6-14.6-10.9-18.4-6.6-3.7 4.2 14.2 12.5 12.9 13.4-1.3.9-11.6-7.5-14.6-2.6-2.9 5 14.2 8.8 13.8 10.5-.4 1.7-14.2-4.2-15.5-.4-1.3 3.7 8.3 6.6 15.1 6.6 6.6 0 33.3-2.9 36.3 1.7 8.8 10.5-5.4 83.4 6.6 94.3 12.1 10.9 98.5-5.9 98.5-5.9s15.8 68.5 10 71.4c-34.2 1.3-36.7-52.6-75.5-49.2-35.9 2.6-12.9 113.1-20.1 123.2-3.2 2.6-46.3 11.3-51.6 14.6z"/><path class="st9" d="M369.3 544.6c4.1 2.2 1.3 9.3 7.8 10.3 6.5.9 5.4-3.7 11.6-5.6 1.5-8.4-9.7-8.2-9.7-8.2s-8.5-5-9.7 3.5z"/><path class="st4" d="M374.2 494c-8.3-.4-31.3 45.9 4.6 54.7 35.9 8.8 39.6-38.5 39.6-38.5"/><path class="st5" d="M541.1 593.1c-2.8-8.2-12.8-7.5-21.6-10-8.8-2.6-4.1-9.1-4.1-9.1s1.5-6.3 6.3-5c4.7 1.3 10 2.2 12.3.9 2.2-1.3-4.3-7.5 1.5-10 6-2.6 16.6 8.8 12.3 16.6-4.3 7.8-16 1.9-16 1.9s19.6 6 9.3 14.7z"/><path class="st6" d="M521.7 569s-117.4-25.7-144-25.3c7.2 8.8 141.8 39.5 141.8 39.5l2.2-14.2z"/><path class="st5" d="M379.2 561.8c69.1-5 146.2 45.4 148.7 48.2s-4.9 12-7.8 8.2C502.3 594.7 420 575 379.2 561.8z"/><path class="st3" d="M379.2 561.8c69.1-5 153.7 34.4 156.3 37.3 2.6 2.8-4.1 14.4-7.5 11-3.5-3.6-63.6-35.4-148.8-48.3z"/><path class="st9" d="M483.5 542c4.5 1.1 3.4 8.8 10 8.2 6.6-.6 4.3-4.9 10-8.2-.4-8.6-11.4-5.6-11.4-5.6s-9.4-2.9-8.6 5.6z"/><path class="st6" d="M648 668.1c4 3.7 8.6 7.3 10.9 6.6s.9-3.7-1.7-7.3l-9.2.7zM636.9 668.3c3.2 3.6 7 7.2 9.1 6.9 2-.3.8-3.8-1.1-7.4l-8 .5zM628 668.9c2.6 3.4 5.5 6.6 7.5 6.3 2-.4 1-3.8-.6-7.2l-6.9.9zM618 668.9c2.9 3.3 6.3 6.1 8.3 5.7 2.2-.4 1.4-3.6.1-6.8l-8.4 1.1zM608.9 668.6c2.6 3.2 5.4 6.5 7.8 5.7 2-.8 1.3-3.4-.3-6.3l-7.5.6zM272.4 665.2c-.8 3.2-1.1 6.5.8 7 1.9.4 5.1-1.9 7.9-4.2l-8.7-2.8zM263.5 664.8c-1 3.6-1.8 7.2.3 7 1.8-.3 4.3-3.1 6.4-6.1l-6.7-.9zM252.6 663.7c-1.5 3.7-2.7 7.9-.6 8.2 2 .3 5.7-3.6 8.8-7.2l-8.2-1zM242.6 662.3c-1.5 3.4-2.8 7.4-.3 7.9s6.3-3.3 8.9-6.8l-8.6-1.1zM234.1 656.8c-3.2 3.2-4.9 7-2.9 9.2 1.4 1.7 5.7-1.3 9.2-4.2l-6.3-5z"/><path class="st3" d="M270.9 409.8c1.3 5.1 1.4 13.5 1.1 23.1l22.2.3c-.1-8.7 0-17.1.3-23.8l-23.6.4z"/><path class="st6" d="M234.7 370c-3.2-2-6.1-3.2-7.8-1.7-1.5 1.5.8 4 3.8 6.4l4-4.7zM304.3 377.7c1.5-2.7 2.9-5.2 4-7.4 1.3-2.9-4.2-1-5.5 1.4-1.1 2.7 1.5 6 1.5 6zM225 396.5c-3.4-.6-6.6-1-7.3.8-.8 2.3 2.4 4.2 6.5 5.4l.8-6.2zM226.4 386.4c-2.8-1.1-5.6-1.5-6.9.8-1.3 2.2 1.3 4.1 4.5 5.7l2.4-6.5zM228.8 377.7c-3.2-1.9-6.3-3.2-7.8-1.4-1.8 1.9 1.3 4.9 4.9 7.4l2.9-6z"/><path class="st4" d="M492.8 439.3s101.1 33.9 102.2 45.9c1.3 12.1-49.7 55.5-79.7 73.9-4.2 2-11.2 48.9-19.2 53.4-4.5 2.6-9.2-1.9-9.2-1.9-7.2 3.2-9.3-2.8-9.3-2.8s-8.4.3-8.2-5.9c-8 1.1-5.2-5.1-5.2-5.1-6-1.9-3.3-7.8-3.4-10.3 5 1.7 9.6 6.4 13.8 3.8s15.8-22.5 13.4-26.3c-2.6-3.7-31.7-5-28.4-13.4 3.3-8.3 21.3 5.9 43.8-5.4 8.3-5 55.1-48.8 56-51.7 1.3-2.6-38.8-3.7-49.2-12.5-10.8-8.7-17.4-41.7-17.4-41.7z"/><path class="st6" d="M470.7 553.1c-3.4-.6-3.4-4.9-3.4-4.9 2.7.3 5.7.9 9.3 1.3 0-.1-2.5 4.1-5.9 3.6z"/><path class="st4" d="M461.1 505.4s11.2 54.7 48.4 35.5c23.8-15.1 10-46.8 1.3-51.4"/><circle class="st4" cx="377.2" cy="461.5" r="12.1"/><circle class="st4" cx="408.9" cy="496.2" r="12.1"/><circle class="st4" cx="456" cy="504.5" r="12.1"/><path class="st3" d="m383.7 451.3 28.5-12.3 25-5.6 23.5 11 31 31.9s-22.2 26.3-67 14.1c-27-7.4-41-39.1-41-39.1z"/><path class="st4" d="M358.8 388.4c2-5.6 27.1-22.9 32.1-30.7 2.6-3.4 3.4-14.1 11.9-23.5 3.1-3.1 55.1 25.9 56.1 31 .9 5-6 16.9-5.4 19.7.6 2.8 14.1 5.4 16.6 8.8 2.6 3.4 19.4 55.7-.9 62-20.3 6.3-39.1-15.6-39.1-15.6s-43.6 9.5-47.3 6.9.6-15.6.3-17.2c-.3-1.5-10.3 0-11.2-5.4-.9-5.4-11.2-18.1-11.2-18.1l-5.6-2.6-3.1-11.2c-.3 0 4.9 1.6 6.8-4.1z"/><path class="st6" d="M393.9 368.8s39.1 9.1 39.5 11.9c.3 2.8-18.1 1.5-18.1 1.5s-3.7 4.7-14.7 2.6c-11-2.4-6.7-16-6.7-16z"/><circle class="st2" cx="405.3" cy="377.8" r="3.7"/><path class="st2" d="M385.2 415c6.5 3.1 8.4 9.1 8.4 9.1"/><circle class="st4" cx="273.9" cy="441.9" r="8.6"/><circle class="st4" cx="294" cy="441.9" r="8.6"/><path class="st2" d="M387.1 396c-.1-5.4-9.2-4.1-9.2-4.1"/><path class="st5" d="m358.8 388.4-21.5-4.1s-2.9 9.2-1.4 11.1c1.4 2 13.4 2.9 13.4 2.9s-4.1 10.6-1.3 12.5c2.8 1.9 12.1 2 12.1 2s-3.2 11.4-1.3 12.9c2 1.5 11.6 2.6 12.9 1.9 1.3-.6 1.7-11.9 1.7-11.9s12.3 1.9 13.9.3c1.8-1.5 3.6-9.5 3.6-9.5s13.3 2.9 15.1 1.7c1.8-1.3 2.6-10.5 2.6-10.5l-21.3-2s.8 8.6-2.6 9.6c-3.2 1-23.6-3.8-26.7-6.3-3.2-2.1.8-10.6.8-10.6z"/><path class="st7" d="M465.1 479.8s-3.7 41.3 3.2 47.9c9.7-15.1 8.2-49.4 8.2-49.4l-11.4 1.5zM478.7 451.9s7.5 64.1 16.9 71.4c5-26.6-3.2-68.9-3.2-68.9s20.1 56.1 31.6 62.4c0-24.4-28.1-89.6-28.1-89.6l-21.3 7.5 4.1 17.2z"/><circle class="st3" cx="473.8" cy="417.8" r="26.1"/><circle class="st5" cx="474.4" cy="419.4" r="13.4"/><path class="st5" d="M474.1 416.6c-5.4-.3-5.6 21.8-7.8 27-2.2 5 13.8 4.7 11.6 1.3-2.2-3.6 1.5-28-3.8-28.3z"/><circle class="st6" cx="469.8" cy="476.5" r="14.6"/><circle class="st6" cx="463.4" cy="461" r="6.8"/><circle class="st6" cx="478" cy="461.1" r="6.8"/><circle class="st2" cx="469.5" cy="476.9" r="5.5"/><path class="st5" d="M461 440.4c-.3 1.9-.3 12.3.3 15.1.3 1.4 5.1 1.1 10 1.3 4.9.1 9.8.8 10.3-.3.9-2.2.9-12.8.3-14.7-.6-2-20.7-3.3-20.9-1.4z"/><circle class="st4" cx="543.7" cy="536.8" r="9.1"/><circle class="st4" cx="529.9" cy="521.5" r="9.1"/><path class="st3" d="M501 545.9c2.2 2.2 12 11.8 14.3 13.3 2.3 1.4 25.2-13.5 23.9-16.4-1.3-2.8-13.4-15.6-17.5-17.2-4.1-1.6-22.9 18.1-20.7 20.3z"/><path class="st4" d="M718.8 495.8c-3.7 3.7 4.1 31.9 4.1 31.9l14.1 1.5s7.5-23.8 6.9-28.5c-.5-4.5-21.2-8.6-25.1-4.9z"/><path class="st5" d="M624.7 524.6c1.8-4 37.4-2.9 68-.9 17 1.1 32.2 3.6 39.7 2.8 21-2.2 21 14.7 15.7 19.7-5.4 5-17.9 6.5-27.6 3.2-9.7-3.4-14.1-11.9-28.5-12.5-14.4-.8-70.2-6-67.3-12.3z"/><path class="st3" d="M692.6 523.6c17 1.1 32.2 3.6 39.7 2.8 21-2.2 21 14.7 15.7 19.7-5.4 5-17.9 6.5-27.6 3.2-9.7-3.4-14.1-11.9-28.5-12.5l.7-13.2z"/><ellipse class="st4" cx="725.6" cy="541.6" rx="7.4" ry="6.4"/><circle class="st4" cx="88.5" cy="191.7" r="10"/><path class="st4" d="M307.3 777.5s14.1 4.7 35.6-2.8c17.8-6.1 17.5-24.8 17.5-24.8l-14.7-14.4-25 28.7-16.2-.9-2.2 8.4 5 5.8z"/><path class="st5" d="M307.9 768.8s9.6 3.2 20.7 1.7c2.8-.4 5.9-1.1 8.8-2.3 2.2-.9 4-2 5.5-3.6 12.9-13.2 3.6-48.3 3.6-48.3l-16 4.3s4.7 20.2 2.4 29.4c-.5 2-1.4 3.6-2.8 4.2-1.9.8-4.5 1.3-7.3 1.4-8.6.8-19.3-.5-19.3-.5l.6 11.2 3.8 2.5z"/><path class="st6" d="M328.6 770.3c2.8-.4 5.9-1.1 8.8-2.3 2.2-.9 4-2 5.5-3.6l-9.8-14.6c-.5 2-1.4 3.6-2.8 4.2-1.9.8-4.5 1.3-7.3 1.4l5.6 14.9z"/><path class="st2" d="m330.2 754 6.2 13.5"/><path class="st4" d="M633.1 734.1s-16.2 31-31.6 37.8c-13 5.9-40.6 4.6-52 .3-16.6-6.3-23.1-29.1-23.1-29.1l22.5-7.8 28.7 24.1 27.6-3.4s15.7-25.3 15.7-26.3c0-.9 11.6-9.7 11.6-9.7l.6 14.1z"/><path class="st5" d="M565.2 745.9c5.6 3.1 22.2 8.2 28.7 6 6.5-2.2 32.8-47.9 52-52.6 28.5-4.1 36.9 24.8 36.9 24.8S661 710 650.6 712.9c-10.3 2.8-17.5 21.3-17.5 21.3l-6.3-4.3s-15.1 29.8-28.1 35c-13.2 5.4-36.3 2.6-36.3 2.6l-4.1-11.9c0-.3 1.2-12.9 6.9-9.7z"/><path class="st6" d="M573.3 767.9c-6.3-.1-11-.8-11-.8l-4.1-11.9s1.3-12.5 6.9-9.3c2 1.1 5.5 2.6 9.5 3.7l-1.3 18.3zM594 751.8c1.9-.6 5.7-5.2 10.5-11.4l7.9 12.1c-4.3 5.5-9.1 10.2-13.7 12l-4.7-12.7z"/><path class="st2" d="m598.7 747.5 8.1 10.6M574.3 753.7l-7.9-1.5M573.9 760.9l-8.7-1.3"/><path class="st3" d="M617.9 723.2c9.2-11.1 19.3-21.8 28-23.9 28.5-4.1 36.9 24.8 36.9 24.8S661 710 650.6 712.9c-10.3 2.8-17.5 21.3-17.5 21.3l-15.2-11z"/><path class="st2" d="m630 709.3 10.6 10.3M650.3 699.3l2.2 13.2M669.1 704.5l-2.1 10.8"/><path class="st5" d="M301.9 664.6c-13.4-.3-19 4.1-19 4.1l-5.6 17.5 26.6 23.8s2.6 2.6 8.4 1.9c6-.6 13.8-4.1 13.8-4.1 1.5 3.7-18.8 15.1-34.1 16s-29.4-7.2-36.9-5.6-14.7 5.4-14.1 12.3c.9 10.6 28.5-1.3 36.9.6 8.4 1.9 12.5 3.7 10.6 5.6-1.9 1.9-6.5 4.1-1.9 6.5 6.5 3.4 22.9-11 38.5-13.8s35-13.4 35-13.4l174.7 5.4 5.6-1.5s-1.5 32.6 5.6 39.5c7.2 6.9 14.1 8.8 16.2 8.2 2.2-.6 6-18.8 2.8-21.3-3.2-2.6-11.9-12.5-9.3-27.9 1.3-6 8.8 15.6 15.1 12.8 6.3-2.8-17.2-33.2-28.7-43.2-5-6 131.7 11 128.7-8.8.1-4.7-47.5-3.1-65.4-8.2-17.9-5-60.1-6.3-60.1-6.3l-83.3 4.7-98.6-6.3s30.7 25.4 11.2 26.3c-28.9 1.1-51.1-24-72.7-24.8z"/><path class="st4" d="M354.2 733.7s3.4 22.5 16.6 27c13.2 4.3 135.8 4.3 146.8.3 11-4.1 18.1-27.6 18.1-27.6l-181.5.3z"/><path class="st5" d="M368.2 733.4c1 4.9 3.6 14.7 8.2 19 6.3 6 128.3 6.9 135.2.3 5-4.7 7.2-14.4 8-19.4.4-1.8-151.8-1.7-151.4.1z"/><path class="st6" d="m410.9 726.9-19.7-.6v29c5.5.5 12.1.9 19.4 1.3l.3-29.7zM454.1 728.2l-19 .1.3 28.9c6.4.1 12.8.1 19 .1l-.3-29.1zM478.5 728.9h0l19.4.6.3 26.1c-5.5.5-12.1.9-19.7 1.1v-27.8z"/><path class="st2" d="M400.6 727.8v28.1M444.4 727.8l.2 29M488.2 727.8l-.4 27.9"/><path class="st6" d="M354.2 733.7s-1.9-22.5 43.2-37.8c13.2-4.5 83.7-2.8 94.8.6 49.8 15.1 43.6 36.9 43.6 36.9l-181.6.3z"/><path class="st2" d="m404 699.9.3 33.1M444 699.9l.4 35.3M482.8 699.9l.4 33.1"/><path class="st3" d="M347.9 650.8s32.8-4.1 37.8-6.5c5-2.6 17.2-17.5 56.1-17.5s49.8 17.2 55.7 19.4c6 2.2 38.2.6 42.3 3.2 4.1 2.6-4.7 20.7-4.7 20.7l-16 12.8-27 13.8-37.8 2.8-68.2-6.3-18.1-9.3s-22.5-7.5-23.1-17.9c-.7-10.5 3-15.2 3-15.2z"/><path class="st2" d="M399.3 656.1s-20.1 19-30.4 24.8M485.4 651.6c8.4 14.1 31.9 25.3 31.9 25.3M421.9 663.9s-8.4 23.1-16 30M444 663.9v32.2M466.2 660.1c2.6 12.8 14.7 33.5 14.7 33.5"/><ellipse class="st6" cx="303.8" cy="683.5" rx="9.7" ry="9.2"/><path class="st7" d="M282.9 668.6c-6.3 3.4-23.1 16.2-25.3 26.6-2.2 10.3 3.4 19.4 13.4 19-6.3-11.9 3.1-12.5 3.1-12.5s-4.7 4.7-.3 9.7c1.9 2.2 9.7 1.4 16.6 1.5 8.7.1 17 .6 19-.9 3.7-2.8 3.2-10 1.3-12.5s-11.9 1.9-22.9-7.2c-4.7-3.7 1.3-27.1-4.9-23.7z"/><path class="st2" d="M274.1 701.7c16.9-.6 25.9 4.1 25.9 4.1M326.1 707.7c4.3-1.9 3.4-22.9-8.8-22.5M552.1 753.7c2.6 6.9 12.3 8.2 12.3 8.2M556.4 749.4c3.7 5 8.8 5.6 8.8 5.6M258.1 722.4s-3.4-1.9-14.7.9M241.9 729.6c6-3.7 16-2.2 16-2.2"/><path class="st5" d="M241.5 744.3c7.8 1.5 28.1 3.2 28.1 3.2s30.7 2.6 33.9 5.4 9.7 18.5 5.4 24.1c-4.3 5.6-11 3.2-19.7 4.7-8.8 1.5-21-6.5-21-6.5l-17.5-7.8-11.2-6.3-2.6-10.6c0-.2-3.2-7.8 4.6-6.2z"/><path class="st5" d="M253.4 771c-4.3-1.9-31.9 3.2-39.7-1.3-7.8-4.3-6-24.1-6-31 0-6.9 1.3-29.4 7.2-41-16.6.6-12.8 32.2-12.8 32.2s-2.8-33.9-18.8-29.4c6.9 4.1 13.8 30 13.8 38.2s.6 34.1 11 39.5c10.3 5.4 67.3.9 67.3.9s-17.6-6.3-22-8.1z"/><path class="st3" d="M207.8 738.7c0-6.9 1.3-29.4 7.2-41-16.6.6-12.8 32.2-12.8 32.2s-2.8-33.9-18.8-29.4c6.9 4.1 13.8 30 13.8 38.2h10.6z"/><path class="st6" d="M226.5 771.2s-.6 15.1 11.9 16.2c-8.2-6-5.6-21-5.6-21l-6.3 4.8z"/><path class="st6" d="M229.3 767.5s2.6 15.3 11 17.2c-5-8.8-2.8-19-2.8-19l-5.4-1.9-2.8 3.7z"/><circle class="st6" cx="271" cy="758.5" r="8.8"/><circle class="st2" cx="270.4" cy="758.7" r="2.6"/><path class="st4" d="M222.1 768.2c.9 2.2.9 6 2.6 6.3 1.5.3 5.4-7.2 12.8-6.9 7.5.3 32.6 8.4 31 10-1.5 1.5-29-3.1-28.5 3.1.3 2.8 47.3 2.6 49.2.9 1.9-1.7-1.3-9.3-4.7-10.6-3.4-1.3-16.6.3-23.8-1.5-7.2-1.9-18.1-9.7-18.1-9.7l-7.5-4.1-11.6 5c-.2-.1-2.3 5.2-1.4 7.5z"/><path class="st3" d="M261.2 760.8c3.4.6-1.3-11.2 11.6-10.7 6.3 0 5.9 8.7 8.4 9.7 4.5 1.8 16.2 2.8 19.7 1.3 3.4-1.5 7.5-24.8-8.4-19.7-7.2 2.8 1.5 13.2-.6 13.2-2.2 0-6.3-13-19-13.2-18-.3-20.8 17.7-11.7 19.4zM222.1 768.2c5.4-12.3 20.3-8.4 20.3-8.4s1.9-14.7-.9-15.3-15.3-3.7-17.2 2.8c-1.9 6.5 7.2 7.8 7.2 7.8s-14.4-1.1-9.4 13.1z"/><circle class="st2" cx="303.1" cy="683.7" r="2.9"/><path class="st4" d="M500.3 696.7c0 3.4-2.8 6.3-6.3 6.3H391.4c-3.4 0-6.3-2.8-6.3-6.3h0c0-3.4 2.8-6.3 6.3-6.3h102.7c3.6.1 6.2 2.9 6.2 6.3h0z"/><path class="st4" d="M336.7 649.5c-3.2 1.9.3 27.9 9.7 34.8 9.3 6.9 32.6 2.8 32.6 10.3 0 7.5-30 10-32.6 33.9-.6 8.4.9 21.6 3.4 23.5s5.4 4.3 9.7 1.5c4.3-2.8-3.7-20.3.3-28.5 4.1-8.2 34.4-16 33.5-31.9-.9-16-29.4-13.4-38.5-19.7-5.6-4.1-5-20.3-6-22.9-.9-2.6-8.9-2.9-12.1-1zM545.8 646.4c3.2 1.9 1.3 26.3-8.2 33.2-9.3 6.9-30 6.9-30 14.4s31.7 7.5 34.2 31.3c.6 8.4-.9 21.6-3.4 23.5-2.6 1.9-5.4 4.3-9.7 1.5s3.7-20.3-.3-28.5c-4.1-8.2-37.7-11.2-36.8-27.2.9-16 25.7-17.2 34.8-23.5 5.6-4.1 6.9-21.6 7.8-24.1.9-2.5 8.4-2.5 11.6-.6z"/><path class="st7" d="M441.8 640.8c-19.4 0-26.3-11.2-26.3-11.2 7-1.7 15.7-2.8 26.3-2.8 11 0 19.8 1.4 26.8 3.4.1-.1-7.4 10.6-26.8 10.6z"/><path class="st7" d="M399.9 633.5c2.6 2.8 13.2 19 43.8 18.1 30.7-.9 37.8-12.3 40.6-14.4 2.8-2.2 14.7 6 13.2 8.8s-16.6 19.7-54.4 21c-37.8 1.3-56.1-20.1-57.2-22.9-1.3-2.8 11.5-13.4 14-10.6z"/><path class="st2" d="m409.9 643.2-10.6 12.9M424.7 649.5l-6 15.1M440.7 652.3v14M459.1 650.1l3.4 14.7M475 644.5l7.8 12.8"/></svg>