<svg version="1.1" id="Calque_1" xmlns="http://www.w3.org/2000/svg" x="0" y="0" viewBox="0 0 900 900" style="enable-background:new 0 0 900 900" xml:space="preserve"><style>.st0{fill:#fff}.st1{fill:red}.st2,.st3{fill:none;stroke-miterlimit:10}.st2{stroke:#000;stroke-width:5.4402;stroke-linecap:round;stroke-linejoin:round}.st3{stroke:#0018c4;stroke-width:6.5282}.st4{fill:#000fc6}.st8{fill:none}.st9{fill:#0018c4}.st10{fill:none;stroke:#000;stroke-width:7.2536;stroke-linecap:round;stroke-linejoin:round;stroke-miterlimit:10}.st12{fill:#ffce00}</style><path class="st0" d="M281.8 336.6c-19.6 58.8-5.4 152.3 51.1 186.1s117 32.6 117 32.6 60.6 1.1 117.1-32.6 70.7-127.3 51.1-186.1c-17.9-53.8-79.6-119.4-79.9-182.7-3.4-.4-7-.4-10.6.4-7-6.3-16.2-5.3-18.4.2-3.9-5.1-10.9-7.1-17.4-3.3-4.9-7.1-15.2-6.5-19-3.8-18-.5-23 3.8-23 3.8s-5.8-4.4-23.8-3.8c-3.8-2.7-14.1-3.3-19 3.8-6.5-3.8-13.5-1.8-17.4 3.3-2.2-5.4-11.4-6.5-18.4-.2-3.3-.7-6.5-.8-9.5-.5-.3 63.3-62 129-79.9 182.8zM91 277.6c0 12.6 10.2 22.8 22.8 22.8v-45.7c-12.6 0-22.8 10.3-22.8 22.9z"/><path class="st1" d="M113.8 254.7v45.7c12.6 0 22.8-10.2 22.8-22.8s-10.2-22.9-22.8-22.9z"/><circle class="st2" cx="113.8" cy="277.6" r="22.8"/><circle class="st2" cx="113.8" cy="277.6" r="9.8"/><path class="st0" d="M75.1 429.3c1.3 12.5 12.5 21.7 25.1 20.4l-4.7-45.4c-12.5 1.2-21.7 12.4-20.4 25z"/><path class="st1" d="m95.5 404.2 4.7 45.4c12.5-1.3 21.7-12.5 20.4-25.1-1.3-12.5-12.6-21.6-25.1-20.3z"/><circle class="st2" cx="97.9" cy="426.9" r="22.8"/><circle class="st2" cx="97.9" cy="426.9" r="9.8"/><path class="st0" d="M110.7 579.7c5.1 11.6 18.6 16.8 30.1 11.7l-18.4-41.8c-11.6 5.1-16.8 18.6-11.7 30.1z"/><path class="st1" d="m122.4 549.6 18.4 41.8c11.6-5.1 16.8-18.6 11.7-30.1-5.1-11.5-18.6-16.7-30.1-11.7z"/><circle class="st2" cx="131.6" cy="570.6" r="22.8"/><circle class="st2" cx="131.6" cy="570.6" r="9.8"/><path class="st0" d="M223 723.2c8.6 9.2 23.1 9.8 32.3 1.1l-31.2-33.4c-9.2 8.6-9.7 23.1-1.1 32.3z"/><path class="st1" d="m224.1 690.9 31.2 33.4c9.2-8.6 9.8-23.1 1.1-32.3-8.6-9.1-23-9.7-32.3-1.1z"/><circle class="st2" cx="239.7" cy="707.7" r="22.8"/><circle class="st2" cx="239.7" cy="707.7" r="9.8"/><path class="st0" d="M447.8 802.3c12.6.8 23.5-8.7 24.3-21.3l-45.6-2.9c-.8 12.5 8.8 23.3 21.3 24.2z"/><path class="st1" d="m426.5 778 45.6 2.9c.8-12.6-8.7-23.5-21.3-24.3-12.6-.7-23.4 8.8-24.3 21.4z"/><circle class="st2" cx="449.3" cy="779.5" r="22.8"/><circle class="st2" cx="449.3" cy="779.5" r="9.8"/><path class="st0" d="M180.9 136.8c-8.4 9.4-7.5 23.9 2 32.2l30.3-34.2c-9.5-8.3-23.9-7.4-32.3 2z"/><path class="st1" d="m213.1 134.9-30.3 34.2c9.4 8.4 23.9 7.5 32.2-2 8.5-9.4 7.6-23.8-1.9-32.2z"/><circle class="st2" cx="198" cy="152" r="22.8"/><circle class="st2" cx="198" cy="152" r="9.8"/><path class="st0" d="M809 277.6c0 12.6-10.2 22.8-22.8 22.8v-45.7c12.6 0 22.8 10.3 22.8 22.9z"/><path class="st1" d="M786.2 254.7v45.7c-12.6 0-22.8-10.2-22.8-22.8-.1-12.6 10.2-22.9 22.8-22.9z"/><circle class="st2" cx="786.2" cy="277.6" r="22.8"/><circle class="st2" cx="786.2" cy="277.6" r="9.8"/><path class="st0" d="M824.9 429.3c-1.3 12.5-12.5 21.7-25.1 20.4l4.7-45.4c12.5 1.2 21.7 12.4 20.4 25z"/><path class="st1" d="m804.5 404.2-4.7 45.4c-12.5-1.3-21.7-12.5-20.4-25.1 1.3-12.5 12.6-21.6 25.1-20.3z"/><circle class="st2" cx="802.1" cy="426.9" r="22.8"/><circle class="st2" cx="802.1" cy="426.9" r="9.8"/><path class="st0" d="M789.3 579.7c-5.1 11.6-18.6 16.8-30.1 11.7l18.4-41.8c11.6 5.1 16.8 18.6 11.7 30.1z"/><path class="st1" d="m777.6 549.6-18.4 41.8c-11.5-5.1-16.8-18.6-11.7-30.1 5.1-11.5 18.6-16.7 30.1-11.7z"/><circle class="st2" cx="768.4" cy="570.6" r="22.8"/><circle class="st2" cx="768.4" cy="570.6" r="9.8"/><path class="st0" d="M677 723.2c-8.6 9.2-23.1 9.8-32.3 1.1l31.2-33.4c9.2 8.6 9.7 23.1 1.1 32.3z"/><path class="st1" d="m675.9 690.9-31.2 33.4c-9.2-8.6-9.8-23.1-1.1-32.3 8.6-9.1 23-9.7 32.3-1.1z"/><circle class="st2" cx="660.3" cy="707.7" r="22.8"/><circle class="st2" cx="660.3" cy="707.7" r="9.8"/><path class="st0" d="M719.1 136.8c8.4 9.4 7.5 23.9-2 32.2l-30.3-34.2c9.5-8.3 23.9-7.4 32.3 2z"/><path class="st1" d="m686.9 134.9 30.3 34.2c-9.4 8.4-23.9 7.5-32.2-2-8.5-9.4-7.6-23.8 1.9-32.2z"/><circle class="st2" cx="702" cy="152" r="22.8"/><circle class="st2" cx="702" cy="152" r="9.8"/><path class="st3" d="M450.1 302.9s-8.3 7.6-7.3 12c1.1 4.4 3.3 15.2-1.1 18.5-4.4 3.3-8.7 0-10.9 3.3s0 9.8-1.1 14.1c-1.1 4.4-13.1 4.4-14.1 10.9-1.1 6.5 5.4 7.6 6.5 15.2 1.1 7.6-12 14.1-10.9 19.6 1.1 5.4 10.9 1.1 13.1 7.6s-10.9 13.1-5.4 17.4c5.4 4.4 14.1-5.4 18.5-3.3 4.4 2.2 7.7 16.2 12.6 16.3 4.9.1 8.3-14.1 12.7-16.3 4.4-2.2 13.1 7.6 18.5 3.3 5.4-4.4-7.6-10.9-5.4-17.4s12-2.2 13.1-7.6-12-12-10.9-19.6c1.1-7.6 7.6-8.7 6.5-15.2-1.1-6.5-13.1-6.5-14.1-10.9-1.1-4.4 1.1-10.9-1.1-14.1s-6.5 0-10.9-3.3-2.2-14.1-1.1-18.5c1-4.4-7.2-12-7.2-12z"/><path class="st4" d="m649.6 216.9-89.7-54.3c-.8-.3-9.9-7.2-21.5-8.7.3 63.3 62 128.9 79.9 182.7 19.6 58.8 5.4 152.3-51.1 186.1-56.7 33.8-117.2 32.7-117.2 32.7s-60.5 1.1-117-32.6c-56.6-33.7-70.7-127.3-51.1-186.1 18-53.8 79.6-119.5 79.9-182.8-12.1 1.2-21.9 8.6-22.7 8.8L227.4 345.3l30.5 192.6 182.8 78.3 180.9-33.7 80.3-157.8-52.3-207.8z"/><path class="st3" d="M449.8 151.2s6.7 5.4 5.6 8.7c-1.1 3.3-9.8 2.2-9.8 6.5 0 4.4 10.3 4.9 9.8 9.8s-9.2 3.3-9.8 8.2c-.5 4.9 10.3 7.1 9.8 11.4-.5 4.4-9.8 6-9.8 10.3s9.8 4.4 9.8 9.2-9.2 5.2-9.8 9.8c-.5 4.6 9.8 7.6 9.8 12s-9.8 3.8-9.8 7.6 10.3 4.4 9.8 9.2c-.5 4.9-9.8 2.7-9.8 7.1 0 4.4 10.3 6 9.8 11.4s-9.2 1.1-9.8 6c-.5 4.9 10.3 3.3 9.8 8.2-.5 4.9-9.8 2.2-9.8 6s4.4 10.2 4.4 10.2"/><path d="M450.3 338.9s-18 31-18 43c0 15.2 5.8 26.7 18.3 26.1 12.5-.5 17-13.6 16.5-27.7s-16.8-41.4-16.8-41.4z" style="fill:none;stroke:#0018c4;stroke-width:7.2536;stroke-miterlimit:10"/><path class="st0" d="M726 432.4c23.9-9.8 20.7-32.6 10.9-47.9-4.4-6.5-15.2-7.6-22.8-6.5 0-58.8-20.7-83.8-50-129.5-18.5-28.7-35.6-63-45.8-84.5 7.2-3.6 11.9-11.1 13.6-16.6 3.5-11.6-2.2-35.5-18.5-43.2s-64.6-1.5-60.2 53c4.4 44.6 27.9 74.7 46.4 106.3s56.9 73.3 41.7 167.9c-4.5 27.6-19.3 85.4-80.2 116.1-56 28.2-99.5 27.6-110.9 27.6-11.4-.1-55.6-1-111-27.6-61.4-29.4-75.7-88.4-80.2-116.1-15.2-94.7 23.2-136.4 41.7-167.9 18.5-31.6 42.1-61.7 46.4-106.3 4.4-54.4-43.9-60.6-60.2-53s-22 31.5-18.5 43.2c1.7 5.6 6.4 13.1 13.6 16.6-10.3 21.5-27.4 55.8-45.9 84.5-29.4 45.7-50 70.7-50 129.5-7.6-1.1-18.5 0-22.8 6.5-9.8 15.2-13.1 38.1 10.9 47.9-9.8 1.1-16.3 1.1-15.2 17.4 1.1 16.3 7.6 17.8 18.5 22.5-15.2 8-17.4 42.8 8.7 49.3 25 5.4 30.5-20.7 30.5-20.7s8.7 41.3 62 81.6 90.3 41.3 90.3 41.3-15.2 10.2-9.8 25.4c5.4 15.2 26.1 20.3 43.5 1.8 3.3 7.6 4.4 14.1 22.8 14.1 18.5 0 24.3-32.6 24.3-32.6s6.4 32.6 24.9 32.6 19.6-6.5 22.8-14.1c17.4 18.5 38.1 13.4 43.5-1.8 5.4-15.2-9.8-25.4-9.8-25.4s37-1.1 90.3-41.3c53.3-40.3 62-81.6 62-81.6S689 527 714 521.6c26.1-6.5 23.9-41.3 8.7-49.3 10.9-4.7 17.4-6.2 18.5-22.5 1.1-16.4-5.4-16.4-15.2-17.4z"/><path d="M633.3 119.5c-11.3-7.8-23-15.1-35.2-21.8l10.4 45.2s26.1 59.8 55.5 105.5 50 70.7 50 129.5c7.6-1.1 18.5 0 22.8 6.5 9.8 15.2 13.1 38.1-10.9 47.9 9.8 1.1 16.3 1.1 15.2 17.4-1.1 16.3-7.6 17.8-18.5 22.5 15.2 8 17.4 42.8-8.7 49.3-25 5.4-30.5-20.7-30.5-20.7s-8.7 41.3-62 81.6-90.3 41.3-90.3 41.3 15.2 10.2 9.8 25.4c-5.4 15.2-26.1 20.3-43.5 1.8-3.3 7.6-4.4 14.1-22.8 14.1-18.5 0-24.9-32.6-24.9-32.6s-5.8 32.6-24.3 32.6-19.6-6.5-22.8-14.1c-17.4 18.5-38.1 13.4-43.5-1.8-5.4-15.2 9.8-25.4 9.8-25.4s-37-1.1-90.3-41.3c-53.3-40.3-62-81.6-62-81.6S211 527 186 521.5c-26.1-6.5-23.9-41.3-8.7-49.3-10.9-4.7-17.4-6.2-18.5-22.5-1.1-16.3 5.4-16.3 15.2-17.4-23.9-9.8-20.7-32.6-10.9-47.9 4.4-6.5 15.2-7.6 22.8-6.5 0-58.8 20.7-83.8 50-129.5s55.5-105.5 55.5-105.5l-4.4-36.7c-7 4.2-13.8 8.7-20.5 13.3-90.3 62.5-152.8 160.1-152.2 282.2 1 184.1 141.3 355.6 335.7 354.2 194.4-1.5 334.7-170.1 335.7-354.2.6-122.1-61.9-219.7-152.4-282.2z" style="fill:#006b5b;stroke:#000;stroke-width:7.2536;stroke-linecap:round;stroke-linejoin:round;stroke-miterlimit:10"/><path d="M559.9 162.6c-1-.3-16-11.8-32.2-8.3-7-6.3-16.2-5.3-18.4.2-3.9-5.1-10.9-7.1-17.4-3.3-4.9-7.1-15.2-6.5-19-3.8-18-.5-23 3.8-23 3.8s-5.8-4.4-23.8-3.8c-3.8-2.7-14.1-3.3-19 3.8-6.5-3.8-13.5-1.8-17.4 3.3-2.2-5.4-11.4-6.5-18.4-.2-16.2-3.4-31.2 8-32.2 8.3" style="fill:none;stroke:#0018c4;stroke-width:9.0669;stroke-miterlimit:10"/><path class="st8" d="M380.7 167.3c-.8 6-3.7 9.4-6.2 12.4-1.6 1.9-3 3.5-3.7 5.7-.9 2.6-.6 6.5-.4 10.2.3 4.3.6 8.8-.7 12.7-1.5 4.5-5.3 6.5-8.6 8.4-2.6 1.4-4.9 2.6-5.5 4.7-.9 2.6-.2 7.3.3 11.4.7 5.1 1.3 9.9 0 13.4-1.6 4-6.4 5.5-11.1 6.9-2.8.8-7.3 2.2-7.6 3.7-.4 2.5-.3 5.9-.1 9.3.2 5.2.4 10.2-1.2 13.4-1.6 3.2-5.3 4.1-9 4.9-4.8 1.1-6.8 1.9-7.1 3.8-.4 2.5.5 5.6 1.5 8.8 1.5 5.2 3.2 11-.2 16.1-3 4.6-8.1 5.3-11.8 5.9-2.6.4-4.3.7-4.6 1.5-.6 1.5.2 3.7 1.1 6.1 1.2 3.3 2.6 7.4 1.2 11.8-1.6 4.9-6.2 6-9.2 6.6-1 .2-2.6.6-2.9.9v.4c0 1.6.7 2.6 2 4.3 1.9 2.5 4.6 5.9 3 12.4-1.2 4.9-4.9 9.9-8.1 14.3-1.8 2.4-4.4 6.1-4.6 7.4.4.7 2.2 2.1 3.5 3.1 3.9 3 9.2 7 9.2 14 0 4.9-2.4 11.2-4.6 17.4-1.8 5-4.2 11.2-3.7 13.7.3 1.5 2.9 2.8 5.5 4 3.9 1.8 8.7 4.2 8.7 9.6 0 3-.9 6.1-2 9.4-1.3 4.5-2.7 9.1-1.3 11.9.8 1.6 2.8 1.7 6.9 1.5 3.8-.1 8-.3 11 2.7 3.2 3.2 2.7 8.1 2.2 12.9-.3 3.4-.7 7.7.8 8.9 1.5 1.2 5.4.3 8.7-.4 4.8-1.1 10.2-2.4 14.1.8 3.9 3.1 4.6 8.2 5.3 12.7.4 2.5.9 5.7 1.8 6.5 1.3 1 5.3.7 8.5.4 4.1-.3 8.3-.7 11.9.5 4.4 1.5 6.5 5.5 8.4 9.1 1.8 3.3 3.3 6.1 5.9 6.9 3.2.9 6.5-1.7 9.2-3.8 2.5-2 5-3.8 7.7-2.5 1.1.5 2.1 1.6 3.7 3.2 3.4 3.4 9.1 9.2 16.1 10.6 5 1 9.6-2 14-5 3.9-2.6 7.6-5 11.5-4.5 3.2.4 6.2 2.4 9.4 4.4 4.8 3 9.6 6.2 15.2 5 5.6-1.1 9.5-5 12.9-8.5 2.6-2.7 4.9-5 7.8-5.6 3.6-.8 6.4 1.5 8.8 3.6 2.9 2.4 4.8 3.7 7.3 3 2.6-.8 4.2-3.6 5.9-6.9 1.9-3.6 4.1-7.6 8.5-9.1 3.7-1.2 7.9-.9 11.9-.5 3.2.3 7.2.6 8.5-.4 1-.7 1.5-3.9 1.8-6.5.7-4.5 1.5-9.6 5.3-12.7 4-3.2 9.4-1.9 14.1-.8 3.4.8 7.2 1.6 8.7.4 1.5-1.2 1.1-5.5.8-8.9-.5-4.8-.9-9.8 2.2-12.9 3-3 7.2-2.8 11-2.7 4.1.1 6.1 0 6.9-1.5 1.5-2.9 0-7.5-1.3-11.9-1-3.3-2-6.5-2-9.4 0-5.4 4.8-7.7 8.7-9.6 2.6-1.2 5.2-2.5 5.5-4 .4-2.5-1.9-8.7-3.7-13.7-2.3-6.2-4.6-12.5-4.6-17.4 0-6.9 5.3-11 9.2-14 1.3-.9 3.1-2.4 3.5-3.1-.2-1.3-2.8-5-4.6-7.4-3.2-4.4-6.8-9.4-8.1-14.3-1.6-6.5 1-9.9 3-12.4 1.3-1.7 2-2.7 2-4.3 0-.3-.1-.5-.1-.5-.3-.3-1.9-.7-2.9-.9-3-.7-7.5-1.7-9.2-6.6-1.5-4.4 0-8.5 1.2-11.8.9-2.5 1.7-4.6 1.1-6.1-.3-.8-2-1.1-4.6-1.5-3.7-.5-8.7-1.3-11.8-5.9-3.4-5-1.7-10.9-.2-16.1.9-3.3 1.8-6.3 1.5-8.8-.3-1.9-2.3-2.7-7.1-3.8-3.6-.9-7.4-1.8-9-4.9-1.6-3.2-1.4-8.2-1.2-13.4.1-3.4.3-6.8-.1-9.3-.3-1.5-4.8-2.9-7.6-3.7-4.7-1.4-9.5-2.9-11.1-6.9-1.4-3.5-.7-8.3 0-13.4.6-4.1 1.2-8.8.3-11.4-.7-2-2.9-3.3-5.5-4.7-3.3-1.8-7.1-3.9-8.6-8.4-1.3-3.9-1-8.3-.7-12.7.3-3.7.5-7.5-.4-10.2-.7-2.1-2.1-3.8-3.7-5.7-2.5-3-5.4-6.3-6.2-12.4-.6-4.9 1.9-10.7 4.7-15.6-2.1-1.1-4.2-1.6-6.2-1.7 1.3 59.6 22.8 102.5 43.7 144 19.1 38.1 37.2 74 34.6 117.1-1.3 21.9-8.2 41.2-20.5 57.4-10.3 13.6-24.3 25-41.7 33.9-28.8 14.7-62.1 20-83.5 20-7.4 0-46.5-1-83.9-19.9-17.5-8.9-31.6-20.3-42-33.8-12.3-16.2-19.3-35.5-20.6-57.4-2.6-43.1 15.5-79 34.6-117.1 20.9-41.5 42.4-84.4 43.7-144-2-.1-4.2.3-6.4 1.3 3.3 4.9 6 11 5.3 16z"/><path class="st8" d="M318.4 410.2c2.2 35.3 20.6 62 54.7 79.2 26.8 13.6 58.4 18.4 77.4 18.4 18.9 0 50.3-4.8 76.9-18.4 33.8-17.3 52.1-43.9 54.3-79.3 2.4-39.2-14-71.8-33.1-109.7-20.7-41.1-43.9-87.3-45.3-150.4-2.1-.8-4.4-1-6.8-.5.6 8.1 2 15.5 3.3 21.8 1.4 7 2.5 12.5 2 16.6-.8 6.1-2.5 9.4-3.9 12-.7 1.3-1.2 2.3-1.6 3.4.4 1.1 3.2 3.8 4.6 5.2 3.2 3.1 6.6 6.3 7.3 9.9.8 3.8-.9 7.2-2.4 10.2-1.2 2.3-2.2 4.5-1.9 6.1.4 2.1 3.2 4.5 5.9 6.9 2.5 2.2 5.1 4.5 6.8 7.3 2.2 3.7 2.4 8.8 2.5 13.8.1 3.2.2 6.6.9 8.5.7 1.8 3.4 3.5 5.8 5 3.2 2 6.5 4 7.3 7.4.8 3.1-.6 7.5-2.2 12.7-.9 2.9-2.4 7.8-2.1 9.1.3.9 3.2 2.3 4.8 3.1 2.6 1.2 5.3 2.4 6.7 4.6 2 3 .8 7.6-.5 12.9-.6 2.6-1.6 6.5-1.3 7.7.4 1.5 4.4 4.7 6.7 6.6 2.7 2.2 5.3 4.2 6.9 6.4 2.5 3.3 2.3 9.5 2.1 16.2-.1 4.1-.3 8.8.5 10.7.7 1.6 1.9 2.8 3.4 4.1 2.5 2.2 5.5 5 5.5 10.2 0 4.5-1.7 7-3.1 9.3-1.1 1.6-2 3-2.4 5.4-.5 2.9.8 8.6 1.9 13.1 1.3 5.9 2 9 1.3 11.3-1 2.9-3.5 4.2-5.7 5.3-1.7.9-3.4 1.7-4.6 3.3-.6 1.2 1.2 6.2 2 8.7 1.7 5 3.2 9.3 1.6 12.5-1.9 3.8-6.3 4.2-10.1 4.5-2.7.2-5.5.5-6.8 1.8-1.5 1.5-1.9 6.1-2.2 9.4-.5 4.7-.9 8.7-3.7 10.6-2.5 1.7-6.9 1.2-13.7.1-2.9-.4-7.7-1.1-9.2-.8-.4.5-.9 2.1-1.2 3-1.1 3.4-2.9 9.1-9.3 9.1-4.2 0-8.5-1.8-12.3-3.4-2.4-1-4.9-2.1-6.2-2.1s-4.5 2.4-6.5 3.9c-2.8 2.1-5.4 4.1-8 4.7-.5.1-1 .2-1.5.2-3.5 0-6.5-3-9.5-5.9-1.2-1.2-3.2-3.1-4.1-3.6-1 .4-3.2 2.4-4.5 3.6-3.7 3.3-7.5 6.7-11.6 5.7-2.6-.7-5.2-2.6-8-4.7-1.9-1.5-5.1-3.9-6.5-3.9-1.3 0-3.8 1.1-6.2 2.1-3.8 1.6-8.1 3.4-12.3 3.4-6.4 0-8.2-5.7-9.3-9.1-.3-.9-.8-2.5-1.2-3-1.5-.3-6.3.4-9.2.8-6.9 1-11.2 1.6-13.7-.1-2.8-1.9-3.2-5.9-3.7-10.6-.3-3.3-.8-7.9-2.2-9.4-1.3-1.3-4.1-1.5-6.8-1.8-3.8-.3-8.2-.7-10.1-4.5-1.6-3.3-.1-7.6 1.6-12.5.8-2.5 2.6-7.5 2-8.7-1.2-1.5-2.8-2.4-4.5-3.2-2.2-1.1-4.8-2.4-5.7-5.3-.8-2.2-.1-5.4 1.3-11.3 1.1-4.6 2.4-10.2 1.9-13.1-.4-2.4-1.3-3.8-2.4-5.4-1.5-2.2-3.1-4.8-3.1-9.3 0-5.2 3-8 5.5-10.2 1.5-1.3 2.8-2.5 3.4-4.1.7-1.8.6-6.5.5-10.7-.2-6.6-.4-12.9 2.1-16.2 1.6-2.1 4.2-4.2 6.9-6.4 2.4-1.9 6.3-5.1 6.7-6.6.3-1.2-.7-5.1-1.3-7.7-1.3-5.4-2.4-10-.5-12.9 1.5-2.2 4.1-3.4 6.7-4.6 1.6-.7 4.6-2.1 4.8-3.1.3-1.3-1.2-6.2-2.1-9.1-1.6-5.2-3-9.6-2.2-12.7.8-3.4 4.1-5.4 7.3-7.4 2.4-1.5 5.2-3.2 5.8-5 .8-1.9.9-5.2.9-8.5.1-4.9.3-10 2.5-13.8 1.7-2.8 4.3-5.1 6.8-7.3 2.7-2.4 5.4-4.8 5.9-6.9.3-1.7-.8-3.8-1.9-6.1-1.5-3-3.2-6.4-2.4-10.2.7-3.6 4.1-6.8 7.3-9.9 1.5-1.5 4.3-4.1 4.6-5.2-.3-1.2-.9-2.2-1.6-3.4-1.4-2.6-3.2-5.9-3.9-12-.5-4.2.6-9.7 2-16.6 1.2-6.3 2.7-13.6 3.3-21.5-2.3-.7-4.6-.6-6.7-.1-1.3 63.3-24.6 109.7-45.3 150.8-18.8 37.7-35.2 70.4-32.8 109.6z"/><path class="st8" d="M404.7 187.1c.6 4.9 1.9 7.3 3.2 9.7.8 1.5 1.7 3.1 2.2 5.2 1 4.1-2.6 7.6-6.5 11.4-2.1 2-5.1 4.8-5.4 6.4-.3 1.6.8 3.7 1.9 6 1.5 3 3.2 6.5 2.5 10.3-.8 4.3-4.5 7.5-7.9 10.6-2.1 1.9-4.4 3.8-5.5 5.7-1.4 2.3-1.5 6.7-1.6 10.6-.1 4-.2 7.7-1.4 10.7-1.5 3.8-5.2 6.1-8.5 8.1-1.5.9-4.2 2.6-4.4 3.4-.3 1.3 1.2 6.2 2.1 9.1 1.6 5.2 3 9.6 2.2 12.7-1 4-4.9 5.8-8.4 7.4-1.4.6-3.4 1.6-4 2.2-.3 1.3.7 5.5 1.3 7.8 1 4.1 2 8 1.3 10.8-.9 3.6-4.8 6.8-9 10.1-2.3 1.8-4.6 3.7-5.8 5.2-1.1 1.5-.9 8.1-.8 12.1.1 5.2.3 10.2-.9 13.3-1.2 3-3.3 4.9-5.1 6.5-2.2 2-3.4 3.1-3.4 5.3 0 2.5.8 3.8 2.1 5.7 1.2 1.9 2.7 4.2 3.3 7.9.7 4.2-.7 10.3-2 15.7-.7 2.8-1.5 6.6-1.4 7.8.2.4 1.6 1.1 2.4 1.5 2 1 4.8 2.4 6.9 5.2 2.8 3.7.8 9.3-1.1 14.8-.8 2.2-2.2 6.4-1.9 7.5.4.5 3.6.8 4.8.9 3.5.3 7.9.7 10.9 3.7 3.2 3.2 3.7 8.6 4.1 13.3.2 1.9.5 4.7.9 5.8 1.6.3 6.2-.4 9-.8 6.9-1 11.2-1.6 13.7.1 2.2 1.5 3 4 3.8 6.5 1.3 4.1 1.9 4.5 3.1 4.5 2.9 0 6.6-1.5 9.8-2.9 3.3-1.4 6.1-2.6 8.7-2.6 3.5 0 7 2.6 10.4 5.2 2 1.5 4.2 3.2 5.5 3.6 1.2-.1 4.3-2.9 5.8-4.2 3-2.7 5.7-5 8.5-5.3 3.3-.2 6.1 2.5 9 5.4 1.3 1.2 3.8 3.8 4.9 4 1.3-.4 3.6-2.1 5.5-3.6 3.4-2.6 6.9-5.2 10.4-5.2 2.6 0 5.4 1.2 8.7 2.6 3.2 1.3 6.9 2.9 9.8 2.9 1.2 0 1.7-.4 3.1-4.5.8-2.5 1.6-5 3.8-6.5 2.5-1.7 6.9-1.2 13.7-.1 2.8.4 7.4 1.1 9 .8.4-1.1.7-3.8.9-5.8.5-4.8 1-10.2 4.1-13.3 3-3 7.4-3.4 10.9-3.7 1.2-.1 4.4-.4 4.8-.9.3-1.2-1.1-5.3-1.9-7.5-1.9-5.4-3.8-11.1-1.1-14.8 2.1-2.8 4.9-4.2 6.9-5.2.8-.4 2.2-1.1 2.4-1.5.1-1.2-.8-5-1.4-7.8-1.2-5.4-2.6-11.5-2-15.7.6-3.7 2.1-6 3.3-7.9 1.2-1.9 2.1-3.2 2.1-5.7 0-2.2-1.1-3.3-3.4-5.3-1.8-1.6-3.9-3.5-5.1-6.5-1.2-3.1-1.1-8.1-.9-13.3.1-4 .3-10.6-.8-12.1s-3.5-3.4-5.8-5.2c-4.1-3.3-8.1-6.5-9-10.1-.7-2.8.3-6.7 1.3-10.8.6-2.3 1.6-6.6 1.3-7.8-.5-.7-2.6-1.6-4-2.2-3.5-1.6-7.4-3.4-8.4-7.4-.8-3.1.6-7.5 2.2-12.7.9-2.9 2.4-7.8 2.1-9.1-.2-.8-3-2.5-4.4-3.4-3.3-2-7-4.3-8.5-8.1-1.2-3-1.3-6.7-1.4-10.7-.1-3.9-.3-8.3-1.6-10.6-1.1-1.9-3.4-3.8-5.5-5.7-3.5-3.1-7.1-6.3-7.9-10.6-.8-3.9.9-7.3 2.5-10.3 1.1-2.2 2.2-4.4 1.9-6-.3-1.6-3.3-4.4-5.4-6.4-3.9-3.7-7.6-7.2-6.5-11.4.5-2 1.3-3.6 2.2-5.2 1.3-2.4 2.6-4.8 3.2-9.7.4-3.1-.7-8.4-1.9-14.6-1.3-6.7-2.9-14.7-3.5-23.5-2.5-2.2-5.7-3.2-8.7-3.4-1.2 29.2-3.6 98.6.5 124.2 2.5 15 10.8 30.8 19.7 47.4 16.9 31.9 36.2 68 17.9 109.3-6.6 16.2-20.8 28.3-41 35-14.8 4.9-27.6 5.3-28.1 5.3h-.2c-.5 0-13.4-.4-28.2-5.3-20.2-6.7-34.5-18.9-41.1-35.1-18.3-41.3.9-77.4 17.9-109.3 8.8-16.7 17.2-32.4 19.7-47.4 4.1-25.6 1.7-95.1.5-124.2-2.9 0-6 .8-8.6 2.6-.5 9.2-2.1 17.4-3.5 24.4-1.1 6.3-2.2 11.6-1.8 14.7z"/><path class="st8" d="M432.5 272.1c-2.9 17.4-11.8 34.2-21.3 51.9-16.2 30.4-32.9 61.8-17.4 96.7l.1.2c11.8 29 53 31.3 56 31.4 3-.1 44.1-2.4 55.9-31.4l.1-.2c15.5-34.9-1.2-66.3-17.4-96.7-9.4-17.7-18.4-34.5-21.2-51.9-4.3-26.5-2.1-93.8-.8-124.7-12.9.5-16.8 3.8-16.8 3.8s-4.2-3.1-16.4-3.7c1.3 30.9 3.5 98.1-.8 124.6z"/><path class="st9" d="M613.5 373.6c-2.8-3.9-6.1-8.3-7-12-.9-3.4.1-4.7 1.8-6.9 1.5-2 3.4-4.4 3.4-8.3 0-5.9-5.3-7.1-8.1-7.8-3-.7-4-1.1-4.4-2.4-.8-2.3.2-4.8 1.1-7.5 1.2-3.3 2.5-7 1-10.8-1.7-4.4-6.2-5-9.7-5.5-3.6-.5-5.9-1-7.3-3-1.7-2.5-.5-6.5.7-10.6 1.1-3.8 2.2-7.7 1.7-11.6-.9-6.6-7.6-8.2-12-9.3-1.6-.4-4.1-1-4.6-1.6-.8-1.8-.7-6.4-.5-10.2.1-3.7.3-7.5-.3-10.6-.9-5.5-6.9-7.3-12.1-8.9-2.2-.7-6.5-2-6.9-3-.8-1.9-.1-6.2.4-10.1.7-5.1 1.4-10.4.1-14.4-1.5-4.5-5.3-6.5-8.6-8.4-2.6-1.4-4.9-2.6-5.5-4.7-.9-2.6-.6-6.5-.4-10.2.3-4.3.6-8.8-.7-12.7-1.1-3.4-3.2-5.8-5-7.9-2.2-2.6-2.7-4.9-3.2-8.9-.4-3.2.4-8.1 3.1-12.6-.9.1-1.7.3-2.6.4-1.2-1.1-2.4-1.9-3.7-2.6-2.8 4.9-3.9 10.7-3.3 15.6.8 6 2.2 9.4 4.8 12.4 1.6 1.9 3 3.5 3.7 5.7.9 2.6.6 6.5.4 10.2-.3 4.3-.6 8.8.7 12.7 1.5 4.5 5.3 6.5 8.6 8.4 2.6 1.4 4.9 2.6 5.5 4.7.9 2.6.2 7.3-.3 11.4-.7 5.1-1.3 9.9 0 13.4 1.6 4 6.4 5.5 11.1 6.9 2.8.8 7.3 2.2 7.6 3.7.4 2.5.3 5.9.1 9.3-.2 5.2-.4 10.2 1.2 13.4 1.6 3.2 5.3 4.1 9 4.9 4.8 1.1 6.8 1.9 7.1 3.8.4 2.5-.5 5.6-1.5 8.8-1.5 5.2-3.2 11 .2 16.1 3 4.6 8.1 5.3 11.8 5.9 2.6.4 4.3.7 4.6 1.5.6 1.5-.2 3.7-1.1 6.1-1.2 3.3-2.6 7.4-1.2 11.8 1.6 4.9 6.2 6 9.2 6.6 1 .2 2.6.6 2.9.9 0 0 .1.1.1.5 0 1.6-.7 2.6-2 4.3-1.9 2.5-4.6 5.9-3 12.4 1.2 4.9 4.9 9.9 8.1 14.3 1.8 2.4 4.4 6.1 4.6 7.4-.4.7-2.2 2.1-3.5 3.1-3.9 3-9.2 7-9.2 14 0 4.9 2.4 11.2 4.6 17.4 1.8 5 4.2 11.2 3.7 13.7-.3 1.5-2.9 2.8-5.5 4-3.9 1.8-8.7 4.2-8.7 9.6 0 3 .9 6.1 2 9.4 1.3 4.5 2.7 9.1 1.3 11.9-.8 1.6-2.8 1.7-6.9 1.5-3.8-.1-8-.3-11 2.7-3.2 3.2-2.7 8.1-2.2 12.9.3 3.4.7 7.7-.8 8.9-1.5 1.2-5.3.3-8.7-.4-4.8-1.1-10.2-2.4-14.1.8-3.9 3.1-4.6 8.2-5.3 12.7-.4 2.5-.9 5.7-1.8 6.5-1.3 1-5.3.7-8.5.4-4.1-.3-8.3-.7-11.9.5-4.4 1.5-6.5 5.5-8.5 9.1-1.8 3.3-3.3 6.1-5.9 6.9-2.5.7-4.4-.7-7.3-3-2.5-2-5.2-4.3-8.8-3.6-2.8.6-5.1 2.9-7.8 5.6-3.4 3.5-7.3 7.4-12.9 8.5-5.5 1.1-10.4-2-15.2-5-3.2-2.1-6.3-4-9.4-4.4-3.9-.5-7.6 1.9-11.5 4.5-4.5 2.9-9.1 6-14 5-7-1.4-12.7-7.2-16.1-10.6-1.6-1.7-2.6-2.7-3.7-3.2-2.7-1.4-5.1.5-7.7 2.5-2.7 2.1-6.1 4.7-9.2 3.8-2.6-.8-4.2-3.6-5.9-6.9-1.9-3.6-4.1-7.6-8.4-9.1-3.7-1.2-7.9-.9-11.9-.5-3.2.3-7.2.6-8.5-.4-1-.7-1.5-3.9-1.8-6.5-.7-4.5-1.5-9.6-5.3-12.7-4-3.2-9.4-1.9-14.1-.8-3.4.8-7.2 1.6-8.7.4-1.5-1.2-1.1-5.5-.8-8.9.5-4.8.9-9.8-2.2-12.9-3-3-7.2-2.8-11-2.7-4.1.1-6.1 0-6.9-1.5-1.5-2.9 0-7.5 1.3-11.9 1-3.3 2-6.5 2-9.4 0-5.4-4.8-7.7-8.7-9.6-2.6-1.2-5.2-2.5-5.5-4-.4-2.5 1.9-8.7 3.7-13.7 2.3-6.2 4.6-12.5 4.6-17.4 0-6.9-5.3-11-9.2-14-1.3-.9-3.2-2.4-3.5-3.1.2-1.3 2.8-5 4.6-7.4 3.2-4.4 6.8-9.4 8.1-14.3 1.6-6.5-1-9.9-3-12.4-1.3-1.7-2-2.7-2-4.3v-.4c.3-.4 2-.7 2.9-.9 3-.7 7.5-1.7 9.2-6.6 1.5-4.4 0-8.5-1.2-11.8-.9-2.5-1.7-4.6-1.1-6.1.3-.8 2-1.1 4.6-1.5 3.7-.5 8.7-1.3 11.8-5.9 3.4-5 1.7-10.9.2-16.1-.9-3.3-1.8-6.3-1.5-8.8.3-1.9 2.3-2.7 7.1-3.8 3.6-.9 7.4-1.8 9-4.9 1.6-3.2 1.4-8.2 1.2-13.4-.1-3.4-.3-6.8.1-9.3.3-1.5 4.8-2.9 7.6-3.7 4.7-1.4 9.5-2.9 11.1-6.9 1.4-3.5.7-8.3 0-13.4-.6-4.1-1.2-8.8-.3-11.4.7-2 2.9-3.3 5.5-4.7 3.3-1.8 7.1-3.9 8.6-8.4 1.3-3.9 1-8.3.7-12.7-.3-3.7-.5-7.5.4-10.2.7-2.1 2.1-3.8 3.7-5.7 2.5-3 4.4-6.3 5.1-12.4.6-5-.9-11-3.9-16-1.6.7-3.1 1.7-4.6 3-.5-.1-.9-.2-1.4-.3 2.7 4.5 3.8 9.2 3.4 12.4-.5 4.1-1.3 6.3-3.6 8.9-1.8 2.1-3.8 4.5-5 7.9-1.3 3.9-1 8.3-.7 12.7.3 3.7.5 7.5-.4 10.2-.7 2-2.9 3.3-5.5 4.7-3.3 1.8-7.1 3.9-8.6 8.4-1.3 4-.6 9.3.1 14.4.5 3.8 1.1 8.2.4 10.1-.4 1.1-4.6 2.4-6.9 3-5.3 1.6-11.2 3.4-12.1 8.9-.5 3.1-.4 7-.3 10.6.1 3.7.3 8.4-.5 10.2-.5.6-3.1 1.2-4.6 1.6-4.4 1.1-11.1 2.6-12 9.3-.5 3.9.6 7.8 1.7 11.6 1.2 4.2 2.4 8.1.7 10.6-1.3 2-3.7 2.5-7.3 3-3.6.5-8 1.2-9.7 5.5-1.5 3.8-.2 7.5 1 10.8 1 2.7 1.9 5.3 1.1 7.5-.4 1.3-1.4 1.7-4.4 2.4-2.8.7-8.1 1.8-8.1 7.8 0 3.9 1.9 6.3 3.4 8.3 1.7 2.1 2.6 3.4 1.8 6.9-.9 3.7-4.1 8.1-7 12-3.7 5.1-6.6 9.1-5.7 12.8.7 2.8 3.2 4.8 5.9 6.8 3.9 3 6.7 5.3 6.7 8.7 0 3.7-2.2 9.7-4.2 15.1-2.5 6.9-4.8 12.8-4.1 17 .8 4.9 5.4 7.1 9.1 8.8 2.9 1.4 5 2.5 5 3.7 0 2-.8 4.7-1.7 7.5-1.6 5.4-3.5 11.5-.9 16.8 2.7 5.4 8.6 5.3 12.9 5.1 2.4-.1 5.2-.2 6.2.8s.6 5 .3 7.7c-.5 5.3-1.1 11.3 3.2 14.7 4 3.2 9.4 1.9 14.2.8 3.3-.8 7.1-1.6 8.6-.4 1.9 1.5 2.4 5.1 2.9 8.6.6 4.1 1.3 8.4 4.4 10.7 3.3 2.5 8 2.1 13 1.7 3.4-.3 7-.6 9.4.2 1.9.6 3.3 3.2 4.8 5.9 2 3.8 4.6 8.5 9.9 10 6.3 1.8 11.6-2.2 15.1-4.9.4-.4 1-.8 1.5-1.1l1.3 1.3c3.9 4 10.5 10.7 19.5 12.4 7.6 1.5 13.9-2.6 18.9-5.9 2.7-1.8 5.5-3.7 7.1-3.5 1.7.2 4.1 1.8 6.7 3.4 4.5 2.9 9.9 6.3 16.4 6.3 1.2 0 2.4-.1 3.6-.4 7.5-1.5 12.6-6.6 16.2-10.3 1.6-1.6 3.6-3.6 4.5-3.8.5-.1 2.4 1.5 3.3 2.2 2.9 2.4 7.3 6 13.2 4.3 5.3-1.5 7.9-6.2 9.9-10 1.5-2.7 2.9-5.3 4.8-5.9 2.4-.8 5.9-.5 9.4-.2 5 .4 9.6.8 13-1.7 3.1-2.4 3.8-6.6 4.4-10.7.5-3.5 1.1-7.1 2.9-8.6 1.5-1.2 5.3-.3 8.6.4 4.8 1.1 10.2 2.4 14.2-.8 4.3-3.4 3.7-9.4 3.2-14.7-.3-2.7-.7-6.7.3-7.7s3.7-.9 6.2-.8c4.3.1 10.2.3 12.9-5.1 2.6-5.2.8-11.4-.9-16.8-.9-2.9-1.7-5.5-1.7-7.5 0-1.2 2.1-2.3 5-3.7 3.7-1.8 8.3-4 9.1-8.8.7-4.2-1.5-10.1-4.1-17-2-5.3-4.2-11.4-4.2-15.1 0-3.4 2.8-5.8 6.7-8.7 2.7-2 5.2-4 5.9-6.8.2-3.8-2.8-7.8-6.5-12.9z"/><path class="st9" d="M398.2 187.9c.8 6.1 2.5 9.4 3.9 12 .7 1.3 1.2 2.3 1.6 3.4-.4 1.1-3.2 3.8-4.6 5.2-3.2 3.1-6.6 6.3-7.3 9.9-.8 3.8.9 7.2 2.4 10.2 1.2 2.3 2.2 4.5 1.9 6.1-.4 2.1-3.2 4.5-5.9 6.9-2.5 2.2-5.2 4.5-6.8 7.3-2.2 3.7-2.4 8.8-2.5 13.8-.1 3.2-.2 6.6-.9 8.5-.7 1.8-3.4 3.5-5.8 5-3.2 2-6.5 4-7.3 7.4-.8 3.1.6 7.5 2.2 12.7.9 2.9 2.4 7.8 2.1 9.1-.3.9-3.2 2.3-4.8 3.1-2.6 1.2-5.3 2.4-6.7 4.6-2 2.9-.8 7.6.5 12.9.6 2.6 1.6 6.5 1.3 7.7-.4 1.5-4.4 4.7-6.7 6.6-2.7 2.2-5.3 4.2-6.9 6.4-2.5 3.3-2.3 9.5-2.1 16.2.1 4.1.3 8.8-.5 10.7-.7 1.6-1.9 2.8-3.4 4.1-2.5 2.2-5.5 5-5.5 10.2 0 4.5 1.7 7 3.1 9.3 1.1 1.6 2 3 2.4 5.4.5 2.9-.8 8.6-1.9 13.1-1.3 5.9-2 9-1.3 11.3 1 2.9 3.5 4.2 5.7 5.3 1.7.9 3.4 1.7 4.5 3.2.6 1.2-1.1 6.3-2 8.7-1.7 5-3.2 9.3-1.6 12.5 1.9 3.8 6.3 4.2 10.1 4.5 2.7.2 5.5.5 6.8 1.8 1.5 1.5 1.9 6.1 2.2 9.4.5 4.7.9 8.7 3.7 10.6 2.5 1.7 6.9 1.2 13.7.1 2.9-.4 7.7-1.2 9.2-.8.4.5.9 2.1 1.2 3 1.1 3.4 2.9 9.1 9.3 9.1 4.2 0 8.5-1.8 12.3-3.4 2.4-1 4.9-2.1 6.2-2.1s4.5 2.4 6.5 3.9c2.8 2.1 5.4 4.1 8 4.7 4.1 1 7.9-2.4 11.6-5.7 1.3-1.2 3.5-3.2 4.5-3.6.9.4 2.9 2.4 4.1 3.6 3 2.9 6 5.9 9.5 5.9.5 0 1-.1 1.5-.2 2.6-.7 5.2-2.6 8-4.7 1.9-1.5 5.1-3.9 6.5-3.9 1.3 0 3.8 1.1 6.2 2.1 3.8 1.6 8.1 3.4 12.3 3.4 6.4 0 8.2-5.7 9.3-9.1.3-.9.8-2.5 1.2-3 1.5-.3 6.3.4 9.2.8 6.9 1 11.2 1.6 13.7-.1 2.8-1.9 3.2-5.9 3.7-10.6.3-3.3.8-7.9 2.2-9.4 1.3-1.3 4.1-1.5 6.8-1.8 3.8-.3 8.2-.7 10.1-4.5 1.6-3.3.1-7.6-1.6-12.5-.8-2.5-2.6-7.5-2-8.7 1.2-1.6 2.8-2.4 4.6-3.3 2.2-1.1 4.8-2.4 5.7-5.3.8-2.2.1-5.4-1.3-11.3-1.1-4.6-2.4-10.2-1.9-13.1.4-2.4 1.3-3.8 2.4-5.4 1.5-2.2 3.1-4.8 3.1-9.3 0-5.2-3-8-5.5-10.2-1.5-1.3-2.8-2.5-3.4-4.1-.7-1.8-.6-6.5-.5-10.7.2-6.6.4-12.9-2.1-16.2-1.6-2.1-4.2-4.2-6.9-6.4-2.4-1.9-6.3-5.1-6.7-6.6-.3-1.2.7-5.1 1.3-7.7 1.3-5.4 2.4-10 .5-12.9-1.5-2.2-4.1-3.4-6.7-4.6-1.6-.7-4.6-2.1-4.8-3.1-.3-1.3 1.2-6.2 2.1-9.1 1.6-5.2 3-9.6 2.2-12.7-.8-3.4-4.1-5.4-7.3-7.4-2.4-1.5-5.2-3.2-5.8-5-.8-1.9-.9-5.2-.9-8.5-.1-4.9-.3-10-2.5-13.8-1.7-2.8-4.3-5.1-6.8-7.3-2.7-2.4-5.4-4.8-5.9-6.9-.3-1.7.8-3.8 1.9-6.1 1.5-3 3.2-6.4 2.4-10.2-.7-3.6-4.1-6.8-7.3-9.9-1.5-1.5-4.3-4.1-4.6-5.2.3-1.2.9-2.2 1.6-3.4 1.4-2.6 3.2-5.9 3.9-12 .5-4.2-.6-9.7-2-16.6-1.3-6.3-2.8-13.7-3.3-21.8-1.5.3-3.1.9-4.6 1.7-.6-.8-1.2-1.6-1.9-2.2.5 8.8 2.1 16.8 3.5 23.5 1.2 6.1 2.3 11.5 1.9 14.6-.6 4.9-1.9 7.3-3.2 9.7-.8 1.5-1.7 3.1-2.2 5.2-1 4.1 2.6 7.6 6.5 11.4 2.1 2 5.1 4.8 5.4 6.4.3 1.6-.8 3.7-1.9 6-1.5 3-3.2 6.5-2.5 10.3.8 4.3 4.5 7.5 7.9 10.6 2.1 1.9 4.4 3.8 5.5 5.7 1.4 2.3 1.5 6.7 1.6 10.6.1 4 .2 7.7 1.4 10.7 1.5 3.8 5.2 6.1 8.5 8.1 1.5.9 4.2 2.6 4.4 3.4.3 1.3-1.2 6.2-2.1 9.1-1.6 5.2-3 9.6-2.2 12.7 1 4 4.9 5.8 8.4 7.4 1.4.6 3.4 1.6 4 2.2.3 1.3-.7 5.5-1.3 7.8-1 4.1-2 8-1.3 10.8.9 3.6 4.8 6.8 9 10.1 2.3 1.8 4.6 3.7 5.8 5.2 1.1 1.5.9 8.1.8 12.1-.1 5.2-.3 10.2.9 13.3 1.2 3 3.3 4.9 5.1 6.5 2.2 2 3.4 3.1 3.4 5.3 0 2.5-.8 3.8-2.1 5.7-1.2 1.9-2.7 4.2-3.3 7.9-.7 4.2.7 10.3 2 15.7.7 2.8 1.5 6.6 1.4 7.8-.2.4-1.6 1.1-2.4 1.5-2 1-4.8 2.4-6.9 5.2-2.8 3.7-.8 9.3 1.1 14.8.8 2.2 2.2 6.4 1.9 7.5-.4.5-3.6.8-4.8.9-3.5.3-7.9.7-10.9 3.7-3.2 3.2-3.7 8.6-4.1 13.3-.2 1.9-.5 4.7-.9 5.8-1.6.3-6.2-.4-9-.8-6.9-1-11.2-1.6-13.7.1-2.2 1.5-3 4-3.8 6.5-1.3 4.1-1.9 4.5-3.1 4.5-2.9 0-6.6-1.5-9.8-2.9-3.3-1.4-6.1-2.6-8.7-2.6-3.5 0-7 2.6-10.4 5.2-2 1.5-4.2 3.2-5.5 3.6-1.1-.2-3.6-2.8-4.9-4-2.9-2.9-5.7-5.7-9-5.4-2.9.2-5.5 2.5-8.5 5.3-1.5 1.3-4.6 4.1-5.8 4.2-1.3-.4-3.6-2.1-5.5-3.6-3.4-2.6-6.9-5.2-10.4-5.2-2.6 0-5.4 1.2-8.7 2.6-3.2 1.3-6.9 2.9-9.8 2.9-1.2 0-1.7-.4-3.1-4.5-.8-2.5-1.6-5-3.8-6.5-2.5-1.7-6.9-1.2-13.7-.1-2.8.4-7.4 1.1-9 .8-.4-1.1-.7-3.8-.9-5.8-.5-4.8-1-10.2-4.1-13.3-3-3-7.4-3.4-10.9-3.7-1.2-.1-4.4-.4-4.8-.9-.3-1.2 1.1-5.3 1.9-7.5 1.9-5.4 3.8-11.1 1.1-14.8-2.1-2.8-4.9-4.2-6.9-5.2-.8-.4-2.2-1.1-2.4-1.5-.1-1.2.8-5 1.4-7.8 1.2-5.4 2.6-11.5 2-15.7-.6-3.7-2.1-6-3.3-7.9-1.2-1.9-2.1-3.2-2.1-5.7 0-2.2 1.1-3.3 3.4-5.3 1.8-1.6 3.9-3.5 5.1-6.5 1.2-3.1 1.1-8.1.9-13.3-.1-4-.3-10.6.8-12.1s3.5-3.4 5.8-5.2c4.1-3.3 8.1-6.5 9-10.1.7-2.8-.3-6.7-1.3-10.8-.6-2.3-1.6-6.6-1.3-7.8.5-.7 2.6-1.6 4-2.2 3.5-1.6 7.4-3.4 8.4-7.4.8-3.1-.6-7.5-2.2-12.7-.9-2.9-2.4-7.8-2.1-9.1.2-.8 3-2.5 4.4-3.4 3.3-2 7-4.3 8.5-8.1 1.2-3 1.3-6.7 1.4-10.7.1-3.9.3-8.3 1.6-10.6 1.1-1.9 3.4-3.8 5.5-5.7 3.5-3.1 7.1-6.3 7.9-10.6.8-3.9-.9-7.3-2.5-10.3-1.1-2.2-2.2-4.4-1.9-6 .3-1.6 3.3-4.4 5.4-6.4 3.9-3.7 7.6-7.2 6.5-11.4-.5-2-1.3-3.6-2.2-5.2-1.3-2.4-2.6-4.8-3.2-9.7-.4-3.1.7-8.4 1.9-14.6 1.4-7 3-15.3 3.5-24.4-1.2.8-2.2 1.8-3.1 3.1-1.2-.7-2.4-1.2-3.5-1.5-.6 8-2 15.3-3.3 21.5-2 7.1-3.1 12.6-2.6 16.7z"/><path class="st4" d="M418.2 269.8c-2.5 15-10.8 30.8-19.7 47.4-16.9 31.9-36.2 68-17.9 109.3 6.6 16.2 20.8 28.3 41.1 35.1 14.8 4.9 27.7 5.3 28.2 5.3h.2c.5 0 13.4-.4 28.1-5.3 20.2-6.7 34.4-18.9 41-35 18.3-41.3-.9-77.4-17.9-109.3-8.8-16.7-17.2-32.4-19.7-47.4-4.1-25.6-1.7-95.1-.5-124.2-3.4-.3-6.6.5-8.4 1.8-2.2-.1-4.3-.1-6.2 0-1.3 30.9-3.4 98.2.8 124.7 2.9 17.4 11.8 34.1 21.2 51.9 16.2 30.4 32.9 61.8 17.4 96.7l-.1.2c-11.8 29-53 31.3-55.9 31.4-3-.1-44.3-2.4-56-31.4l-.1-.2c-15.5-34.9 1.2-66.3 17.4-96.7 9.4-17.7 18.4-34.5 21.3-51.9 4.3-26.4 2.1-93.8.8-124.7-2.2-.1-4.6-.1-7.3-.1-1.6-1.1-4.3-1.9-7.3-1.9 1.3 29.2 3.6 98.7-.5 124.3z"/><path class="st4" d="M303.9 411c1.3 21.9 8.3 41.2 20.6 57.4 10.3 13.6 24.4 25 42 33.8 37.5 19 76.5 19.9 83.9 19.9 21.5 0 54.7-5.3 83.5-20 17.4-8.9 31.4-20.3 41.7-33.9 12.2-16.2 19.1-35.5 20.5-57.4 2.6-43.1-15.5-79-34.6-117.1-20.9-41.5-42.4-84.4-43.7-144-4-.2-7.3 1.5-8.5 4.5-1.6-2.1-3.7-3.6-6-4.5 1.3 63.1 24.6 109.4 45.3 150.4 19 37.8 35.5 70.5 33.1 109.7-2.2 35.3-20.5 62-54.3 79.3-26.6 13.6-58.1 18.4-76.9 18.4-19 0-50.6-4.8-77.4-18.4-34.1-17.3-52.5-44-54.7-79.2-2.4-39.2 14-71.8 33.1-109.7 20.7-41.1 44-87.5 45.3-150.8-2.8.8-5.3 2.4-7.1 4.8-1.1-2.7-4-4.4-7.4-4.5-1.3 59.6-22.8 102.5-43.7 144C319.3 332 301.2 368 303.9 411z"/><path class="st0" d="M300.6 263.3c18.5-31.6 42.1-61.7 46.4-106.3 4.4-54.4-43.9-60.6-60.2-53s-22 31.5-18.5 43.2c1.7 5.6 6.4 13.1 13.6 16.6-10.2 21.5-27.4 55.8-45.8 84.5M664 248.5c-18.5-28.7-35.6-63-45.8-84.5 7.2-3.6 11.9-11.1 13.6-16.6 3.5-11.6-2.2-35.5-18.5-43.2s-64.6-1.5-60.2 53c4.4 44.6 27.9 74.7 46.4 106.3"/><path class="st10" d="M286.8 104.1c-16.3 7.6-22 31.5-18.5 43.2 1.7 5.6 6.4 13.1 13.6 16.6-10.2 21.5-27.4 55.9-45.8 84.6M664 248.5c-18.5-28.7-35.6-63-45.8-84.5 7.2-3.6 11.9-11.1 13.6-16.6 3.5-11.6-2.2-35.5-18.5-43.2"/><path d="M298.1 136.4c17.4 0 18.5 19.6 2.2 27.2-17.5 8.2-29.1-6.9-31.9-16.3-3.5-11.6 2.2-35.5 18.5-43.2 16.3-7.6 64.6-1.5 60.2 53-4.4 44.6-27.9 74.7-46.4 106.3-18.5 31.6-56.9 73.3-41.7 167.9 4.5 27.6 18.7 86.6 80.2 116.1 55.4 26.5 99.7 27.5 111 27.6s54.9.6 110.9-27.6c60.9-30.6 75.7-88.4 80.2-116.1 15.2-94.7-23.2-136.4-41.7-167.9s-42.1-61.7-46.4-106.3c-4.4-54.4 43.9-60.6 60.2-53 16.3 7.6 22 31.5 18.5 43.2-2.9 9.5-14.4 24.5-31.9 16.3-16.3-7.6-15.2-27.2 2.2-27.2" style="fill:none;stroke:red;stroke-width:13.7818;stroke-linecap:round;stroke-linejoin:round;stroke-miterlimit:10"/><circle cx="251.3" cy="170.1" r="8.7"/><circle cx="220.8" cy="202.8" r="8.7"/><circle cx="181.6" cy="238.7" r="8.7"/><circle cx="164.2" cy="298.5" r="8.7"/><circle cx="170.8" cy="356.2" r="8.7"/><circle cx="135.9" cy="374.7" r="8.7"/><circle cx="141.4" cy="451.9" r="8.7"/><circle cx="155.5" cy="519.4" r="8.7"/><circle cx="182.7" cy="576" r="8.7"/><circle cx="225.2" cy="565.1" r="8.7"/><circle cx="247" cy="609.7" r="8.7"/><circle cx="233.9" cy="641.3" r="8.7"/><circle cx="291.6" cy="644.6" r="8.7"/><circle cx="317.7" cy="705.5" r="8.7"/><circle cx="355.8" cy="690.3" r="8.7"/><circle cx="330.7" cy="636.9" r="8.7"/><circle cx="401.5" cy="687" r="8.7"/><circle cx="436.3" cy="729.4" r="8.7"/><circle cx="252.4" cy="194.1" r="4.1"/><circle cx="230.6" cy="183.2" r="4.1"/><circle cx="251.3" cy="147.2" r="4.1"/><circle cx="235" cy="159.2" r="4.1"/><circle cx="268.7" cy="174.5" r="4.1"/><circle cx="212.1" cy="186.4" r="4.1"/><circle cx="238.3" cy="214.7" r="4.1"/><circle cx="213.2" cy="224.5" r="4.1"/><circle cx="194.7" cy="214.7" r="4.1"/><circle cx="220.5" cy="249.6" r="4.1"/><circle cx="183.8" cy="264.8" r="4.1"/><circle cx="155.5" cy="262.6" r="4.1"/><circle cx="192.5" cy="287.6" r="4.1"/><circle cx="143.6" cy="293.1" r="4.1"/><circle cx="140.3" cy="321.4" r="4.1"/><circle cx="162.1" cy="320.3" r="4.1"/><circle cx="179.5" cy="331.2" r="4.1"/><circle cx="151.2" cy="341" r="4.1"/><circle cx="128" cy="349.7" r="4.1"/><circle cx="151.2" cy="383.1" r="4.1"/><circle cx="123.7" cy="385.6" r="4.1"/><circle cx="129.4" cy="403" r="4.1"/><circle cx="129.1" cy="430.2" r="4.1"/><circle cx="150.1" cy="428" r="4.1"/><circle cx="128" cy="466.1" r="4.1"/><circle cx="154.4" cy="466.1" r="4.1"/><circle cx="145.4" cy="479.1" r="4.1"/><circle cx="135.9" cy="494.4" r="4.1"/><circle cx="155.5" cy="496.5" r="4.1"/><circle cx="156.3" cy="541.2" r="4.1"/><circle cx="178.4" cy="535.4" r="4.1"/><circle cx="172.9" cy="552" r="4.1"/><circle cx="201.2" cy="543.3" r="4.1"/><circle cx="200.1" cy="558.6" r="4.1"/><circle cx="220.8" cy="543.3" r="4.1"/><circle cx="209.6" cy="578.2" r="4.1"/><circle cx="188.2" cy="596.7" r="4.1"/><circle cx="207.7" cy="596.7" r="4.1"/><circle cx="199" cy="613" r="4.1"/><circle cx="223" cy="611.9" r="4.1"/><circle cx="214" cy="632.6" r="4.1"/><circle cx="230.6" cy="588" r="4.1"/><circle cx="242.6" cy="569.5" r="4.1"/><circle cx="267.6" cy="593.4" r="4.1"/><circle cx="283.9" cy="610.8" r="4.1"/><circle cx="266.2" cy="619.5" r="4.1"/><circle cx="256.7" cy="639.1" r="4.1"/><circle cx="233.9" cy="663.8" r="4.1"/><circle cx="250.2" cy="657.6" r="4.1"/><circle cx="269.8" cy="656.5" r="4.1"/><circle cx="261.1" cy="677.2" r="4.1"/><circle cx="287.2" cy="680.5" r="4.1"/><circle cx="309" cy="665.2" r="4.1"/><circle cx="313.3" cy="645.6" r="4.1"/><circle cx="304.6" cy="621.7" r="4.1"/><circle cx="348.1" cy="633.7" r="4.1"/><circle cx="348.1" cy="655.4" r="4.1"/><circle cx="337.3" cy="669.6" r="4.1"/><circle cx="316.6" cy="682.6" r="4.1"/><circle cx="291.6" cy="701.1" r="4.1"/><circle cx="334" cy="724" r="4.1"/><circle cx="352.5" cy="713.1" r="4.1"/><circle cx="338.3" cy="701.1" r="4.1"/><circle cx="360.1" cy="672.8" r="4.1"/><circle cx="377.8" cy="689.2" r="4.1"/><circle cx="379.7" cy="710.9" r="4.1"/><circle cx="378.6" cy="734.9" r="4.1"/><circle cx="401.5" cy="728.3" r="4.1"/><circle cx="416.7" cy="742.5" r="4.1"/><circle cx="412.3" cy="712" r="4.1"/><circle cx="438.4" cy="700" r="4.1"/><circle cx="417.8" cy="677.2" r="4.1"/><circle cx="439.5" cy="673.9" r="4.1"/><circle cx="648.7" cy="170.1" r="8.7"/><circle cx="679.2" cy="202.8" r="8.7"/><circle cx="718.4" cy="238.7" r="8.7"/><circle cx="735.8" cy="298.5" r="8.7"/><circle cx="729.2" cy="356.2" r="8.7"/><circle cx="764.1" cy="374.7" r="8.7"/><circle cx="758.6" cy="451.9" r="8.7"/><circle cx="744.5" cy="519.4" r="8.7"/><circle cx="717.3" cy="576" r="8.7"/><circle cx="674.8" cy="565.1" r="8.7"/><circle cx="653" cy="609.7" r="8.7"/><circle cx="666.1" cy="641.3" r="8.7"/><circle cx="608.4" cy="644.6" r="8.7"/><circle cx="582.3" cy="705.5" r="8.7"/><circle cx="544.2" cy="690.3" r="8.7"/><circle cx="569.3" cy="636.9" r="8.7"/><circle cx="498.5" cy="687" r="8.7"/><circle cx="463.7" cy="729.4" r="8.7"/><circle cx="647.6" cy="194.1" r="4.1"/><circle cx="669.4" cy="183.2" r="4.1"/><circle cx="648.7" cy="147.2" r="4.1"/><circle cx="665" cy="159.2" r="4.1"/><circle cx="631.3" cy="174.5" r="4.1"/><circle cx="687.9" cy="186.4" r="4.1"/><circle cx="661.8" cy="214.7" r="4.1"/><circle cx="686.8" cy="224.5" r="4.1"/><circle cx="705.3" cy="214.7" r="4.1"/><circle cx="679.5" cy="249.6" r="4.1"/><circle cx="716.2" cy="264.8" r="4.1"/><circle cx="744.5" cy="262.6" r="4.1"/><circle cx="707.5" cy="287.6" r="4.1"/><circle cx="756.4" cy="293.1" r="4.1"/><circle cx="759.7" cy="321.4" r="4.1"/><circle cx="737.9" cy="320.3" r="4.1"/><circle cx="720.5" cy="331.2" r="4.1"/><circle cx="748.8" cy="341" r="4.1"/><circle cx="772" cy="349.7" r="4.1"/><circle cx="748.8" cy="383.1" r="4.1"/><circle cx="776.3" cy="385.6" r="4.1"/><circle cx="770.6" cy="403" r="4.1"/><circle cx="770.9" cy="430.2" r="4.1"/><circle cx="749.9" cy="428" r="4.1"/><circle cx="772" cy="466.1" r="4.1"/><circle cx="745.6" cy="466.1" r="4.1"/><circle cx="754.6" cy="479.1" r="4.1"/><circle cx="764.1" cy="494.4" r="4.1"/><circle cx="744.5" cy="496.5" r="4.1"/><circle cx="743.7" cy="541.2" r="4.1"/><circle cx="721.6" cy="535.4" r="4.1"/><circle cx="727.1" cy="552" r="4.1"/><circle cx="698.8" cy="543.3" r="4.1"/><circle cx="699.9" cy="558.6" r="4.1"/><circle cx="679.2" cy="543.3" r="4.1"/><circle cx="690.4" cy="578.2" r="4.1"/><circle cx="711.8" cy="596.7" r="4.1"/><circle cx="692.3" cy="596.7" r="4.1"/><circle cx="701" cy="613" r="4.1"/><circle cx="677" cy="611.9" r="4.1"/><circle cx="686" cy="632.6" r="4.1"/><circle cx="669.4" cy="588" r="4.1"/><circle cx="657.4" cy="569.5" r="4.1"/><circle cx="632.4" cy="593.4" r="4.1"/><circle cx="616.1" cy="610.8" r="4.1"/><circle cx="633.8" cy="619.5" r="4.1"/><circle cx="643.3" cy="639.1" r="4.1"/><circle cx="666.1" cy="663.8" r="4.1"/><circle cx="649.8" cy="657.6" r="4.1"/><circle cx="630.2" cy="656.5" r="4.1"/><circle cx="638.9" cy="677.2" r="4.1"/><circle cx="612.8" cy="680.5" r="4.1"/><circle cx="591" cy="665.2" r="4.1"/><circle cx="586.7" cy="645.6" r="4.1"/><circle cx="595.4" cy="621.7" r="4.1"/><circle cx="551.9" cy="633.7" r="4.1"/><circle cx="551.9" cy="655.4" r="4.1"/><circle cx="562.7" cy="669.6" r="4.1"/><circle cx="583.4" cy="682.6" r="4.1"/><circle cx="608.4" cy="701.1" r="4.1"/><circle cx="566" cy="724" r="4.1"/><circle cx="547.5" cy="713.1" r="4.1"/><circle cx="561.7" cy="701.1" r="4.1"/><circle cx="539.9" cy="672.8" r="4.1"/><circle cx="522.2" cy="689.2" r="4.1"/><circle cx="520.3" cy="710.9" r="4.1"/><circle cx="521.4" cy="734.9" r="4.1"/><circle cx="498.5" cy="728.3" r="4.1"/><circle cx="483.3" cy="742.5" r="4.1"/><circle cx="487.7" cy="712" r="4.1"/><circle cx="461.6" cy="700" r="4.1"/><circle cx="482.2" cy="677.2" r="4.1"/><circle cx="460.5" cy="673.9" r="4.1"/><path class="st10" d="M402.5 628.2s-3.3 12.3 0 22.8M368.8 623.9c7.6-5.4 12-1.1 15.2 2.2 3.3 3.3 2.2 18.5-7.6 13.1M174 432.4l21.8 1M177.3 472.2l20.7-.7M186 377.9c16.3 1.1 25 27.6 10.9 35.2-14.1 7.6-18.5-11.2-18.5-11.2M190.3 493.3c8.7-8.7 27.2-3.3 26.1 7.6M497.5 628.2s3.3 12.3 0 22.8M531.2 623.9c-7.6-5.4-12-1.1-15.2 2.2-3.3 3.3-2.2 18.5 7.6 13.1M726 432.4l-21.8 1M722.7 472.2l-20.7-.7M714 377.9c-16.3 1.1-25 27.6-10.9 35.2 14.1 7.6 18.5-11.2 18.5-11.2M709.7 493.3c-8.7-8.7-27.2-3.3-26.1 7.6"/><path class="st12" d="M213.2 327.9c1.1 15.2 16.3 17.8 26.1 9.1 9.8-8.7 27.2-39.5 26.1-47.1-1.1-7.6-10.9-21.8-25-15.2-14.1 6.4-28.3 38-27.2 53.2z"/><circle class="st1" cx="238.1" cy="287.1" r="4.9"/><circle class="st1" cx="253.5" cy="283.3" r="4.9"/><circle class="st1" cx="255.7" cy="301.8" r="4.9"/><circle class="st1" cx="224.1" cy="302.9" r="4.9"/><circle class="st1" cx="244.8" cy="310.5" r="4.9"/><circle class="st1" cx="232.8" cy="320.3" r="4.9"/><circle class="st1" cx="217.5" cy="321.4" r="4.9"/><circle class="st1" cx="232.8" cy="335.5" r="4.9"/><path class="st12" d="M310.7 581.5c15.3.7 19.6-14.1 12.1-24.8-7.5-10.8-36-31.7-43.7-31.6s-22.9 8.2-18.1 23c4.9 14.8 34.5 32.6 49.7 33.4z"/><circle class="st1" cx="273.2" cy="551.9" r="4.9"/><circle class="st1" cx="271.3" cy="536.1" r="4.9"/><circle class="st1" cx="289.9" cy="536.2" r="4.9"/><circle class="st1" cx="287.2" cy="567.7" r="4.9"/><circle class="st1" cx="297.3" cy="548" r="4.9"/><circle class="st1" cx="305.5" cy="561.1" r="4.9"/><circle class="st1" cx="304.8" cy="576.4" r="4.9"/><circle class="st1" cx="320.7" cy="563" r="4.9"/><path class="st12" d="M686.8 327.9c-1.1 15.2-16.3 17.8-26.1 9.1-9.8-8.7-27.2-39.5-26.1-47.1 1.1-7.6 10.9-21.8 25-15.2 14.2 6.4 28.3 38 27.2 53.2z"/><circle class="st1" cx="662" cy="287.1" r="4.9"/><circle class="st1" cx="646.5" cy="283.3" r="4.9"/><circle class="st1" cx="644.3" cy="301.8" r="4.9"/><circle class="st1" cx="675.9" cy="302.9" r="4.9"/><circle class="st1" cx="655.2" cy="310.5" r="4.9"/><circle class="st1" cx="667.2" cy="320.3" r="4.9"/><circle class="st1" cx="682.5" cy="321.4" r="4.9"/><circle class="st1" cx="667.2" cy="335.5" r="4.9"/><path class="st12" d="M589.3 581.5c-15.3.7-19.6-14.1-12.1-24.8 7.5-10.8 36-31.7 43.7-31.6 7.7.2 22.9 8.2 18.1 23-4.9 14.8-34.5 32.6-49.7 33.4z"/><circle class="st1" cx="626.8" cy="551.9" r="4.9"/><circle class="st1" cx="628.7" cy="536.1" r="4.9"/><circle class="st1" cx="610.1" cy="536.2" r="4.9"/><circle class="st1" cx="612.8" cy="567.7" r="4.9"/><circle class="st1" cx="602.7" cy="548" r="4.9"/><circle class="st1" cx="594.5" cy="561.1" r="4.9"/><circle class="st1" cx="595.2" cy="576.4" r="4.9"/><circle class="st1" cx="579.3" cy="563" r="4.9"/></svg>