<svg version="1.1" id="Calque_1" xmlns="http://www.w3.org/2000/svg" x="0" y="0" viewBox="0 0 900 900" style="enable-background:new 0 0 900 900" xml:space="preserve"><style>.st0,.st1,.st10,.st3,.st4,.st5,.st6,.st7,.st8,.st9{fill:#bf9b00;stroke:#000;stroke-width:5.6902;stroke-linecap:round;stroke-linejoin:round;stroke-miterlimit:10}.st1,.st10,.st3,.st4,.st5,.st6,.st7,.st8,.st9{fill:red}.st10,.st3,.st4,.st5,.st6,.st7,.st8,.st9{fill:#af6728}.st10,.st4,.st5,.st6,.st7,.st8,.st9{fill:#ff7300}.st10,.st5,.st6,.st7,.st8,.st9{fill:#ffce00}.st10,.st6,.st7,.st8,.st9{fill:none}.st10,.st7,.st8,.st9{fill:#5b5b5a}.st10,.st8,.st9{fill:#fff}.st10,.st9{fill:none;stroke-width:2.8451}.st10{stroke:red;stroke-width:11.3805}.st11{fill:red}.st12{fill:#fffae8}.st13,.st14{fill:#fff9e9;stroke:#000;stroke-width:5.6902;stroke-linecap:round;stroke-linejoin:round;stroke-miterlimit:10}.st14{fill:none;stroke-width:4.2677}</style><g id="XMLID_348_"><g id="XMLID_313_"><g id="XMLID_237_"><path id="XMLID_239_" class="st0" d="M164.5 202.3v59.5l9 5.1 34.7-11s6.8-25 12.1-44.2l-55.8-9.4z"/></g><g id="XMLID_312_"><path id="XMLID_83_" class="st1" d="M374.3 467.9s-35.6 9-56.6 11.1c-21.1 2.1-35.6-7.1-41.7-5.5-6.1 1.6-6.8 11.5-1.4 15.8 5.4 4.3 23.5 3.1 22.8 9.5-.7 6.4-63.6 31.7-84.5 35.3-20.9 3.6-42.7 3.3-49.8 3.6-7.1.3-8.3 9.7-5 12.8 3.3 3.1 32.7 5 29.9 7.5s-39.8 18.2-54.8 21.8-44.4 2.5-49.2 4.2c-4.8 1.8-5.8 11.8-1.3 14.7 4.6 2.8 69.1-8.5 69.1-5.7s-64.2 20.8-69.1 22.9c-5 2.1-1 17.1 4.1 17.5 5.1.4 61.3-21.3 67.4-21.3 6.1 0 34.6 25.6 29.9 30.7-4.6 5.1-46.2 55.8-47.7 61.7-1.4 6 10 14.5 14.9 9.7 5-4.8 85.9-90.3 84.6-83.6-1.4 7.4-59.7 71.6-61.6 94.6s17.6 20.8 21.8 7.8c5.4-16.8 23.2-41.5 39.8-65.3 13.1-18.6 22.3-35.4 24.2-35.4 4.3 0 1.1 32-.4 40.3-1.6 8.3 14.7 6.3 16.8.4 2.1-5.8 6.4-23.9 13.9-36s55.2-64.4 58-64.4-6.8 14.2-8.3 23.5c-1.4 9.2-2.1 14.9 1.1 20.3 3.3 5.4 19.9-.7 20.3-13.9.4-13.2 13.5-33.1 30.3-53.8 16.8-20.6 41.3-42.7 41.3-42.7l8.3-32-67.1-6.1z"/><path id="XMLID_307_" class="st1" d="M592.2 465.5c22.5-1.4 22.5-15.6 22.5-15.6l-30.9-126.6-7.5-93.6-50.2-31.2s-1.4 6.4-35.4 8.5c-34 2.1-97.4 33.6-97.4 33.6l-30.4 22.3 9 18.6 56.6 30.3s20.6 26.6 21.1 35.6C418 354.8 345.8 402 345.8 402s-109-98-110.2-102.4c-1.3-4.4 3.6-33.7-12.5-46.2-7.8-6.1-24.8-12.5-40-17.5-.4 5.1-3.1 11.1-12.9 14.4 6.3 3.7 11.4 7.1 11.4 7.1s7 71.8 23.2 73.7c16.2 1.8 45.4 28.5 73.5 63s61.5 58.8 68 60.2c6.5 1.4 81.2-43.2 81.2-43.2l38.4 24.9-7.5 53.1 49.5 58.3 89.6-11.4s29.9-49.8 0-50.5-42.4-31.3-42.4-31.3 14.8 12.7 37.1 11.3z"/><path id="XMLID_191_" class="st1" d="M495.2 577.6s-40.5 8.7-60.9 22.8C414 614.4 327.9 717.3 318 720.9c-10 3.6-32.3 2.6-42.4 5.4-31.9 8.7-43.4 25.5-47.7 36.1l40 6.4c1.4-2.8 3.3-5.4 5.8-6.1 5.4-1.4 4.3 1.1 13.9 1.4 9.7.3 13.9-3.6 21.8-2.8 7.8.7 9 5.4 15.4 9.2s23.5-3.3 25.6-9.2.7-15.6 1.8-19.6 97.4-77.2 105.7-88.9c8.3-11.7 75.1-30.6 75.1-30.6l4.3-38.3-42.1-6.3z"/><g id="XMLID_30_"><path id="XMLID_31_" d="M156.8 152.1c.6.1 1 0 1.6 0h-1.6z" style="fill:none"/><path id="XMLID_32_" class="st1" d="M75 167.1V202s30.7-11.4 82.1-20.2c-.1-9-.3-19.6-.3-29.4C106 154.2 75 167.1 75 167.1z"/><path id="XMLID_33_" class="st1" d="M156.9 125.2c-46.4-3.8-81.9-8-81.9-8V145s21.9 5.5 81.8 7.1c0-10.5 0-20.3.1-26.9z"/><path id="XMLID_35_" class="st3" d="M186.7 127.6c-10.2-.7-20.3-1.6-29.9-2.3-.1 6.5-.1 16.4-.1 26.9h1.6-1.6c0 10 .1 20.5.3 29.4 9.2-1.6 19.2-3.1 29.9-4.6-.2-16.6-.4-37.3-.2-49.4z"/></g><g id="XMLID_29_"><path id="XMLID_40_" class="st1" d="M186.7 153.4c0 8 .1 16.2.1 23.9 10.2-1.3 20.9-2.4 32.1-3.4-.1-6.8-.1-13.9-.1-20.9l-32.1.4z"/><path id="XMLID_41_" class="st1" d="M219 129.6c-10.8-.6-21.6-1.3-32.1-2.1-.1 6.7-.1 15.9 0 25.7l32.3-.4c-.4-8.5-.4-16.8-.2-23.2z"/><path id="XMLID_42_" class="st4" d="M287.8 131.9c-21.3 0-45.2-.9-68.9-2.3-.1 6.4 0 14.5 0 23.2l78.4-1.1-78.4 1.1c0 7 .1 14.1.1 20.9 24.6-2 51.6-3 80.5-2.3 106.5 3.2 75.1-39.5-11.7-39.5z"/></g><path id="XMLID_66_" class="st5" d="M601.2 173.7c-5.1-12.2-205.3-15.8-242.8-16.4l-.9 19.6s217.7 1.1 223.8 7.8 1.4 181.1 1.4 181.1l19.8-4.1c-1.3-71.9 4.3-175-1.3-188z"/><g id="XMLID_6_"><path id="XMLID_25_" class="st1" d="m493.8 113.3-1 47.9c7.7.3 15.4.7 22.8 1.1l1-46.5c-7.6-.8-15.1-1.7-22.8-2.5z"/><path id="XMLID_68_" class="st4" d="m580 372.8 73-21.5v-80.4l-49.9-.6c-.6 30.5-23.7 74.3-23.1 102.5z"/><path id="XMLID_69_" class="st4" d="m516.6 115.8-1 46.5c12.1.7 23.6 1.4 34.1 2.3l1-45c-11.1-1.2-22.5-2.3-34.1-3.8z"/><path id="XMLID_70_" class="st4" d="m360.9 96.2-2.6 61.3c18.9.3 78.8 1.3 134.4 3.8l1-47.9c-46.4-5.5-95.1-11.6-132.8-17.2z"/><path id="XMLID_71_" class="st1" d="M603.5 240.5c-.1 9.5-.3 19.5-.4 29.9l49.9.6v-30l-49.5-.5z"/><path id="XMLID_72_" class="st4" d="m653 209.7-49.2-.6c0 9.2 0 19.9-.1 31.3l49.3.6v-31.3z"/><path id="XMLID_73_" class="st1" d="M653 130.5s-44.5-4.4-102.3-10.8l-1 45c29 2.3 49.9 5.3 51.6 9.1 1.7 4.1 2.4 17.2 2.4 35.4l49.2.6v-79.3z"/></g><path id="XMLID_77_" class="st1" d="M350.8 317.6c0-3.7 69.6-1.4 69.6-1.4s-64.3-27.9-67.1-34.6c0 0-70.1-71.8-81.5-71.8s-19.5 5.8-19.5 12.5 38.8 27.3 36.6 31.4c-2.4 4.1-33.7-15.8-39.8-15.8s-10.4 6.7-8.1 14.2c2.4 7.5 41.7 15.6 41.3 20.1-.4 4.4-17.1 1.4-21.3 1.4-4.3 0-5.7 10.8-1 15.6 4.7 5 59 4.6 59 8.1s-11.1 6.4-13.9 7.4-3.3 12.1 2.4 14.1c5.5 2.2 43.3-1.2 43.3-1.2z"/><g id="XMLID_80_"><path id="XMLID_88_" class="st5" d="M455 472c-3.4-3.3-6.8-8-8.5-14.2-2-7.1.7-15.8 4-22.8-4-2.4-7.4-5-10.2-7.5-5.5-.7-13.1-.9-22.2.9-7.4 1.4-12.4 4.4-21.1 12.4 5.8 3.6 13.9 10.2 17.5 21.1 3.1 9.4 1.8 19.5 0 27 5.5 1.6 10.8 2.3 15.4 1.4 11.1-2.4 18.1-9.2 18.1-9.2-.3-1.2 1.8-4.5 7-9.1z"/><path id="XMLID_90_" class="st1" d="M446.4 457.8c1.7 6.3 5.1 10.8 8.5 14.2 6.4-5.8 17.5-13.8 34.9-22.6-17.5-3.4-30.2-8.7-39.4-14.4-3.3 7-6 15.7-4 22.8z"/></g><path id="XMLID_82_" class="st0" d="M449.3 478.2c-14.9 6.5-32.3 31.3-27.3 44.5 6.1 16.1 17.4 14.9 22 14.7s15.2-8.5 13.2-19.9c-2-11.4-14.4-6.8-16.9-5 .9-5.4 10.5-21.3 19.8-27s4-13.9-10.8-7.3z"/><path id="XMLID_85_" class="st6" d="M457.5 479c-27.2 19.6-28.9 38.1-25.6 44.1 3.3 6 8.1 6 10.7 6.1 5.5 0 8.1-8.3 5.7-10.4-2.4-2.1-4 3.6-7.1 3.3-3.1-.3-1.8-6.8-.9-9.7"/><g id="XMLID_89_"><path id="XMLID_91_" class="st5" d="M556.4 457.1c-6.8 3.7-14.7 12.5-14.7 23.3 0 14.9 12.9 26.9 29 26.9 14.1 0 25.9-9.4 28.5-21.9-.6 0-1.3-.1-2-.1-24-.6-36.8-20.5-40.8-28.2z"/></g><circle id="XMLID_84_" class="st5" cx="525.1" cy="291.1" r="24.3"/><path id="XMLID_92_" class="st7" d="m490.7 206.9 2.1-45.7s101.6 5.1 112.5 87.1S574 387.8 574 387.8l-42.4-21.9s48.9-80.1 32.7-123.5c-15.6-42.2-73.6-35.5-73.6-35.5z"/><g id="XMLID_113_"><path id="XMLID_114_" class="st8" d="m205 439-75.1-6.5c-2 9.4-3.4 15.9-3.8 17.6-2.1 8.8-4.7 17.9 9 19.9 10 1.4 12.7-9.1 13.2-14.7 0-2 .3-3.3.3-3.3s0 1.3-.3 3.3c-.3 6.5.6 20.5 11.9 21.5 14.9 1.1 18.5-23.3 18.5-23.3s0 28.7 15.4 28.7 12.1-16.9 11.4-32.1c-.3-1.9-.3-5.8-.5-11.1z"/><path id="XMLID_115_" class="st0" d="m202.9 307.2-45.8-2.4s-18.8 88.6-27.2 127.7l75.1 6.7c-.8-35.1-2.1-132-2.1-132z"/><path id="XMLID_116_" class="st8" d="M148.1 455.4c.3-2 .3-3.3.3-3.3s-.1 1.3-.3 3.3z"/></g><path id="XMLID_109_" class="st6" d="m148.4 452.1 21.3-146.6"/><path id="XMLID_111_" class="st6" d="m178.7 453.6 5.3-147.4"/><g id="XMLID_305_"><path id="XMLID_306_" class="st8" d="M182.8 236c-15.9-5.3-30.2-8.8-30.2-8.8s-4.4 11.2 5.4 16.4c3.7 2 8 4.4 11.8 6.8 9.9-3.3 12.6-9.2 13-14.4z"/></g><g id="XMLID_79_"><path id="XMLID_117_" class="st1" d="M165.2 257.1c-14.9 3.4-27.7 12.4-31 33-3.3 20.6 5.4 33.4 19.1 32.7 2.3-11 3.8-17.9 3.8-17.9s24.3 1.3 38.1 2l4-48.1c-8.8-2-22.9-4.3-34-1.7z"/><path id="XMLID_308_" class="st8" d="M205 272.3c7.1 0 7.1-10.5 1.1-12.1-1.6-.4-3.8-1-6.8-1.6l-4 48.1c3.4.1 6.1.3 7.7.4 8.3.4 6-11.4 0-11.1 5.4-.4 7.4-11.1 2.1-11.8 5.2.2 6.6-9.6-.1-11.9z"/></g><path id="XMLID_118_" class="st6" d="M205 272.3c-9-5.4-37.6-2.8-37.6-2.8"/><path id="XMLID_119_" class="st6" d="M205 284.4c-9-5.4-37.6-3.1-37.6-3.1"/><path id="XMLID_120_" class="st6" d="M202.9 296.2c-9-5.4-35.4-3.3-35.4-3.3"/><path id="XMLID_122_" class="st5" d="M247.3 366.1c-2.6 4.4-1.1 9.7 7.1 12.7-2.1 4.8 2 8.8 6 9.1 0 5.7 3.3 12.5 10.4 9.2 2.1 4.4 7.3 4.8 11.8 2.4 4.6-2.4 6.7-21.1.3-30.7s-15.4-11.1-20.6-11.1-12.5 4-15 8.4z"/><path id="XMLID_125_" class="st5" d="M325.4 439.3c-4.1 6.5-4.4 10.8-2.7 14.1 4.7 7.7 10.7 5.3 13.2 1.8 1.4 6.5 15.1 7.3 16.9-1.7 4.7 7.1 15.4-1.6 13.7-4.3 5.4 1 11.1-2 11.1-8.7 0-6.7-10.4-19.1-19.9-19.1s-28.2 11.5-32.3 17.9z"/><g id="XMLID_110_"><path id="XMLID_123_" class="st6" d="m254.4 378.7 8.9-5.2"/><path id="XMLID_121_" class="st6" d="m260.4 388 8.2-5.1"/><path id="XMLID_126_" class="st6" d="m335.9 455.4 1.4-8.5"/><path id="XMLID_124_" class="st6" d="m352.8 453.7-3.2-6.8"/><path id="XMLID_127_" class="st6" d="m366.5 449.6-5.4-8.6"/></g><g id="XMLID_310_"><circle id="XMLID_131_" class="st4" cx="351.3" cy="513.2" r="18.5"/><circle id="XMLID_130_" class="st4" cx="351.3" cy="513.2" r="6.1"/><circle id="XMLID_135_" class="st4" cx="283.5" cy="553" r="18.5"/><circle id="XMLID_134_" class="st4" cx="283.5" cy="553" r="6.1"/><circle id="XMLID_139_" class="st4" cx="209.6" cy="598.1" r="18.5"/><circle id="XMLID_138_" class="st4" cx="209.6" cy="598.1" r="6.1"/></g><g id="XMLID_309_"><circle id="XMLID_128_" class="st7" cx="385" cy="492.5" r="18.5"/><circle id="XMLID_129_" class="st7" cx="385" cy="492.5" r="6.1"/><circle id="XMLID_133_" class="st7" cx="318.8" cy="534.5" r="18.5"/><circle id="XMLID_132_" class="st7" cx="318.8" cy="534.5" r="6.1"/><circle id="XMLID_137_" class="st7" cx="246.6" cy="577.6" r="18.5"/><circle id="XMLID_136_" class="st7" cx="246.6" cy="577.6" r="6.1"/></g><g id="XMLID_149_"><path id="XMLID_151_" class="st0" d="m171.2 644.7-17.8-25.3-31 14 25.4 33z"/><path id="XMLID_152_" class="st1" d="m122.4 633.4-22.9 10.2 29.3 40.6 19-17.8z"/></g><g id="XMLID_141_"><path id="XMLID_142_" class="st8" d="m104.7 650.9-11.8 6.4c1.1 2.4 2.4 4.7 3.7 6.8l12.1-7.7-4-5.5z"/><path id="XMLID_150_" class="st8" d="m99.5 643.6-10.4 4.7c1.1 3.1 2.4 6.1 3.8 9l11.8-6.4-5.2-7.3z"/><path id="XMLID_153_" class="st8" d="m108.7 656.4-12.1 7.7c1.7 2.7 3.4 5.3 5.1 7.7l11.9-8.3-4.9-7.1z"/><path id="XMLID_154_" class="st8" d="m119.1 670.8-11.4 8.1c2.1 2.4 4.1 4.4 6 6.1l9.8-8-4.4-6.2z"/><path id="XMLID_155_" class="st8" d="m128.8 684.2-5.1-7.1-9.8 8c4.4 4.1 7.4 6.3 7.4 6.3l7.5-7.2z"/><path id="XMLID_156_" class="st8" d="m113.7 663.4-11.9 8.3c2 2.7 4 5.1 6 7.3l11.4-8.1-5.5-7.5z"/></g><path id="XMLID_171_" class="st5" d="M737.1 186.7s-.1-24.6-10.8-29.2c-10.7-4.6-16.2-1.7-24.8-10.7-8.5-9-3.3-27.2-3.3-27.2s7.7 13.9 15.6 15.8c8 1.8 24.9 5 29.6 16.1.7-8.3 11.8-18.8 19.9-25.3 8.1-6.5 9.4-23.2 9.4-23.2s16.2 10.8 13.4 24.9c-2.8 14.1-15.4 22.3-19.6 29.6-4.3 7.3-4.8 23.2-4.8 23.2l-24.6 6z"/><path id="XMLID_170_" class="st6" d="m743.5 151.4 3.8 24.2"/><path id="XMLID_173_" class="st9" d="M697.8 121.1s3.7 17.5 13.2 22.2c9.5 4.7 13.9 2.1 21.3 8.3s11.1 29.2 11.1 29.2"/><path id="XMLID_175_" class="st9" d="M756.4 175.6c.4-1.1-1.7-15.9 3-24.9 4.7-9 15.6-14.4 19.2-21.9s-5.8-25.7-5.8-25.7 4.4 18.1-2 25.7c-6.4 7.7-12.9 10.5-17.5 18.9-4.6 8.4-1.4 24.8-1.4 24.8"/><path id="XMLID_178_" class="st1" d="m786.4 237.2-52.2-5-25.2 1.7c.1 3.3.3 6.8.3 10 0 9.8-48.9 112.1-48.9 112.1l-32.7 34.4 23.3 70.8s4.7 23.9 22.8 10.8 56.9-190.6 56.9-190.6 25.6 1.7 50.2-4.4c17.8-4.4 31.3-17.1 38.7-25.3l-33.2-14.5z"/><g id="XMLID_180_"><path id="XMLID_181_" class="st8" d="m801.1 232.1-4.8 9.4 8.3 3.6 4.8-10c-2.9-1.2-5.8-2.2-8.3-3z"/><path id="XMLID_182_" class="st8" d="M792.8 229.4s-66.6-3.6-71.8-8.3-12.8 0-12.8 0 .4 5.8.9 12.8l25.2-1.7 52.2 5 9.8 4.3 4.8-9.4c-4.7-1.7-8.3-2.7-8.3-2.7z"/><path id="XMLID_183_" class="st8" d="m817.2 238.3-5.1 10 7.4 3.3c2.8-3.3 4.7-5.8 5.4-7 .9-1.6-2.6-3.9-7.7-6.3z"/><path id="XMLID_184_" class="st8" d="m809.3 235.1-4.8 10 7.5 3.3 5.1-10c-2.4-1.1-5.1-2.2-7.8-3.3z"/></g><path id="XMLID_160_" class="st5" d="M719 322.5c-6.5-2.1-17.6.6-24 9.7-6.4 9.1-7.5 19.5-1.1 29.7s17.6 11 23.6 6.7 0-14.9 0-14.9 6.5 1.8 8.4-4.8-5.5-9.1-5.5-9.1 7.8-3.3 7.4-8-2.1-7.1-8.8-9.3z"/><g id="XMLID_179_"><path id="XMLID_185_" class="st8" d="m234.5 763.2-3.1 10.7c2.4.7 5.5 1.4 9 2l3-11.4-8.9-1.3z"/><path id="XMLID_193_" class="st8" d="m243.3 764.7-3 11.4c2.7.6 5.7 1 8.4 1.3l3.4-11.2-8.8-1.5z"/><path id="XMLID_194_" class="st8" d="M228.1 762.3c-1.8 4.7-2.1 8.1-2.1 9.1 0 .7 2.1 1.7 5.4 2.7l3.1-10.7-6.4-1.1z"/><path id="XMLID_195_" class="st8" d="m252.3 766.1-3.4 11.2c2.7.3 5.4.6 7.8.7l3.7-10.5-8.1-1.4z"/><path id="XMLID_196_" class="st8" d="m260.2 767.2-3.7 10.5c4.4.1 7.5-.1 8.1-1.3 1-2 2-5.1 3.4-8.1l-7.8-1.1z"/></g><path id="XMLID_187_" class="st5" d="M370.8 706.2c-2.1 7.5.4 15.6 3.6 19.9 3.1 4.3 11.1 4 11.4-1.1 4.7 4 13.2-4 12.1-6.8 4.3 2.1 11.4-3.6 9-7.1 3.3 0 5.7-3.6 5.7-10s-10.1-12.5-15.6-13.5c-5.8-1-24.1 11.2-26.2 18.6z"/><path id="XMLID_190_" class="st5" d="M384.1 643.3c-5.3-4.7-1-11.4 6.1-10.7-4.6-5.7 3.8-11.4 7.5-10-2.1-4 2.1-12.5 9-9.7-3.3-5 5-13.7 13.2-12.8-1.4-8.3 10.2-9 13.9-4.1 3.7 4.8 11.9 13.4 11.2 25.9-.7 12.5-13.7 26.7-27.6 29.2-13.8 2.5-28-3.2-33.3-7.8z"/><g id="XMLID_204_"><g id="XMLID_164_"><path id="XMLID_299_" class="st4" d="M521.4 599.5c-3 10-9.4 30.9-17.5 55.3l57 18.1c7.8-31.7 13.9-62.2 14.4-81.9-14.2 3.5-35.8 8.4-53.9 8.5z"/></g><path id="XMLID_206_" class="st1" d="M448.6 783c37.4 20.3 74.7 18.9 74.7 18.9s10.5-31.9 22.2-72l-60.6-21.8c-11.9 30.5-24.7 59.4-36.3 74.9z"/><path id="XMLID_207_" class="st1" d="m560.8 672.8-57-18.1c-3 9-6.3 18.5-9.7 28.2l59.5 18.1c2.5-9.3 4.9-18.8 7.2-28.2z"/><path id="XMLID_208_" class="st8" d="M494.1 683c-3 8.4-6.1 16.8-9.2 25l60.6 21.8c2.7-9.2 5.4-18.9 8.1-28.9L494.1 683z"/></g><path id="XMLID_213_" class="st1" d="M667.6 778.8c-1.8-7.4-8.8-15.6-16.8-30.6s-25.7-81.1-25.7-91.9c0-10.8 21.2-44.7 15.1-61-6.1-16.4-35.1-36.1-35.1-36.1l-31 18.4s-9.7 59.6-3.6 80.9 39.1 81.4 36.7 88.9c-2.4 7.5-45.5 14.9-58.8 22.5-7.1 4-10.4 10.2-11.9 15.8l40 6.8c.7-1 1.6-2 2.8-3.1 5-4.3 38.1-9 45.2-8.5s10.4 11.4 18.4 13.9c8 2.4 26.6-8.6 24.7-16z"/><g id="XMLID_197_"><path id="XMLID_201_" class="st8" d="m544 787-3.3 13.8c2.6.7 5.7 1.4 9 2l3.7-14.1-9.4-1.7z"/><path id="XMLID_214_" class="st8" d="M536.6 785.7c-1.3 4.7-1.3 9.1-1.3 11.5 0 1.3 2.1 2.4 5.4 3.4l3.3-13.8-7.4-1.1z"/><path id="XMLID_215_" class="st8" d="m553.5 788.6-3.7 14.1c2.7.4 5.4.7 8.1.9l3-13.7-7.4-1.3z"/><path id="XMLID_216_" class="st8" d="m560.8 789.9-3 13.7c2.8.3 5.7.3 8.1.3l2.6-12.7-7.7-1.3z"/><path id="XMLID_217_" class="st8" d="m568.5 791.1-2.6 12.7c4.4-.1 7.7-.7 7.8-1.8.7-3.3.7-6.3 2.8-9.4l-8-1.5z"/></g><path id="XMLID_202_" class="st5" d="M633.1 723.1c0 7.3 1.8 23.9 9.8 27.2 8 3.3 16.1.4 18.4-2.8 2.3-3.3 2.3-8.5-4-10.7 4-2.1 4-10.7-2.4-11.7 2.4-2.6 2.4-12.1-7.5-10.4 2.8-6.7-2.1-11.1-8.7-6.4-3.8 2.9-5.6 7.6-5.6 14.8z"/><g id="XMLID_220_"><path id="XMLID_221_" class="st4" d="m676.9 586.7-34.1 9.8 23.6 67.7 34.4-12.4c-16.7-38.9-23.9-65.1-23.9-65.1z"/><path id="XMLID_222_" class="st1" d="m700.9 651.9-34.4 12.4 7.8 22.2L711 674c-3.8-7.8-7.1-15.2-10.1-22.1z"/><path id="XMLID_223_" class="st1" d="M764.1 768.5c-17.9-26.9-32.7-53.2-44.8-77.1L681 706.2l28.2 80.8c.1 0 43.8-9 54.9-18.5z"/><path id="XMLID_224_" class="st8" d="m710.9 674.1-36.7 12.5 6.8 19.6 38.3-14.8c-3-6-5.9-11.8-8.4-17.3z"/></g><path id="XMLID_203_" class="st5" d="M559.2 621.6c-8.1.7-5.5 9.2-2.6 11.1-3.3 2.1-5.8 8.5-1.4 12.1-2.4 2.6-4.4 10 0 12.8-1.7 4.3 2.6 10.4 7.8 11.8s22.6-2.7 28.7-7.8c6.1-5.1 6.8-26 0-33.9-6.7-7.8-24.4-6.9-32.5-6.1z"/><g id="XMLID_162_"><path id="XMLID_188_" class="st6" d="m385.7 725.1-3.1-9.4"/><path id="XMLID_186_" class="st6" d="m397.8 718.3-7.7-7.1"/><path id="XMLID_189_" class="st6" d="m406.6 711.2-8.8-7.6"/><path id="XMLID_198_" class="st6" d="m430.8 611.6-11-11.4"/><path id="XMLID_199_" class="st6" d="m406.6 613 9.7 9.4"/><path id="XMLID_200_" class="st6" d="m406.6 632.7-8.8-10"/><path id="XMLID_192_" class="st6" d="m390.1 632.7 10.5 6.6"/><path id="XMLID_210_" class="st6" d="m657.3 736.8-9.4 2.8"/><path id="XMLID_211_" class="st6" d="m643.7 729.1 11.1-4"/><path id="XMLID_209_" class="st6" d="m647.4 714.7-7.2 3.6"/><path id="XMLID_219_" class="st6" d="m569.9 654.8-14.6 2.8"/><path id="XMLID_225_" class="st6" d="M555.3 644.7h12"/><path id="XMLID_218_" class="st6" d="M569.9 632.7h-13.2"/></g><g id="XMLID_311_"><path id="XMLID_212_" class="st10" d="M108.7 729.1s-10.2 17.1 1.4 21.6c11.7 4.6 21.9-16.4 21.9-16.4"/><path id="XMLID_226_" class="st10" d="M171.2 751.3s-12.8 20.1 3.6 23.2 20.6-16.4 20.6-16.4"/><path id="XMLID_227_" class="st10" d="M260.4 691.3s3.6 14.9 12.5 12.4c9-2.6 4.6-19.3 4.6-19.3"/><path id="XMLID_228_" class="st10" d="M340.9 635.9s5.7 16.2 15.6 10.8c10-5.4 0-19.2 0-19.2"/><path id="XMLID_229_" class="st10" d="M143.1 526.2s-22.6-7.8-26 4c-3.4 11.8 12.9 14.9 12.9 14.9"/><path id="XMLID_230_" class="st10" d="M246.6 474s-21.1-4.7-15.4-16.6c5.7-11.9 24.9 0 24.9 0"/></g><g id="XMLID_259_"><path id="XMLID_260_" class="st5" d="M490.7 206.9c-6.8.4-14.8 2-23.3 4.4-.4 1.8-.7 3.8-.7 5.8 0 14.1 11.4 25.5 25.5 25.5s25.5-11.4 25.5-25.5c0-3.3-.7-6.4-1.7-9.2-14.1-2.3-25.3-1-25.3-1z"/></g><g id="XMLID_261_"><path id="XMLID_262_" class="st1" d="M344.3 200.5c-18.2-20.9-43.7-23.5-43.7-23.5s0 31.4 19.6 48.1c1 .9 1.8 1.6 2.8 2.3l22.9-24.9c-.5-.6-1-1.3-1.6-2z"/><path id="XMLID_263_" class="st8" d="M367.1 244.6s-4.4-21.8-21.1-42.1l-22.9 24.9c18.9 14.8 40.1 19.5 40.1 19.5l3.9-2.3z"/></g><g id="XMLID_63_"><path id="XMLID_62_" class="st5" d="M387.8 245.3s-24.6-11.7-30.3-5.7c-5.7 6-1.7 13.1 3.4 20.6 6.1 9 17.4 14.1 26.9 11.2 9.5-2.7 9.5-21.9 9.5-21.9l-9.5-4.2z"/><g id="XMLID_241_"><circle id="XMLID_232_" class="st11" cx="368.9" cy="248.1" r="4.3"/><circle id="XMLID_233_" class="st11" cx="383.1" cy="261.7" r="4.3"/><circle id="XMLID_240_" class="st11" cx="371.3" cy="258.7" r="4.3"/></g><g id="XMLID_87_"><g id="XMLID_248_"><path id="XMLID_249_" class="st7" d="M446.3 232.2c-3.6-14.4-13.8-20.6-21.6-23.2-6.5 5.1-9.8 11.1-9.8 11.1l11.1 39.8s4.8 2.8 12.2 4.1c5-4.6 12.4-14.7 8.1-31.8z"/><path id="XMLID_250_" class="st7" d="M476.7 228.6c-.7-15.4-10.4-25.3-30.9-26.5-9-.6-16.1 2.8-21.1 6.8 7.8 2.7 18.1 8.8 21.6 23.2 4.3 17.1-3.1 27.2-8.1 31.7 5.3.9 11.7 1 18.6-1.1 16.5-5.3 20.6-18.8 19.9-34.1z"/></g><g id="XMLID_247_"><circle id="XMLID_28_" class="st12" cx="410.4" cy="239.6" r="27.3"/><path id="XMLID_246_" class="st11" d="M432.1 223.1c9.1 11.9 6.8 29-5.1 38.3-11.9 9.1-29 6.8-38.3-5.1l43.4-33.2z"/><circle id="XMLID_245_" class="st6" cx="410.4" cy="239.6" r="27.3"/><circle id="XMLID_34_" class="st13" cx="410.4" cy="239.6" r="10.1"/></g><g id="XMLID_257_"><path id="XMLID_107_" class="st14" d="m441.6 209.2 16.9-4.7"/><path id="XMLID_108_" class="st14" d="m447.7 215.6 19.6-5.3"/><path id="XMLID_251_" class="st14" d="m450.7 223.1 23.6-4"/><path id="XMLID_252_" class="st14" d="m454 229.5 22.7-2.3"/><path id="XMLID_253_" class="st14" d="m455.7 236 21-.9"/><path id="XMLID_254_" class="st14" d="m455.7 242.4 19.6.2"/><path id="XMLID_255_" class="st14" d="m454 249.7 18.9 1.1"/><path id="XMLID_256_" class="st14" d="m452.5 257.2 13 1.5"/></g></g></g><g id="XMLID_267_"><path id="XMLID_268_" class="st11" d="m434.3 306.2-71.4-43.5s-2.4 2.4-5 5.5l71.7 41.3 4.7-3.3z"/><path id="XMLID_269_" class="st12" d="M357.9 268.3c-3.1 4.1-6.4 9.5-4.7 13.2 2.8 6.7 67.3 34.6 67.3 34.6l9.2-6.5-71.8-41.3z"/><path id="XMLID_270_" class="st11" d="m354.7 338.5 65.7-4.7v-9l-67.9 3.8c1.2 5 2.2 9.9 2.2 9.9z"/><path id="XMLID_271_" class="st12" d="M350.8 317.6c0 1.7.9 6.5 1.7 11.1l67.9-3.8v-8.5c.1-.3-69.6-2.5-69.6 1.2z"/></g><g id="XMLID_258_"><path id="XMLID_264_" class="st6" d="M362.9 262.8s-12.5 12.2-9.7 18.8c1.1 2.7 12.2 8.7 24.9 15.1l11-17.9-26.2-16z"/><path id="XMLID_265_" class="st6" d="m389.1 278.7-11 17.9c7 3.4 14.5 7 21.2 10.1l11-15.1-21.2-12.9z"/><path id="XMLID_266_" class="st6" d="m410.3 291.7-11 15.1c11.8 5.4 21.1 9.4 21.1 9.4l13.8-9.8-23.9-14.7z"/><path id="XMLID_272_" class="st6" d="m376.4 315.4 2.4 21.3 22.6-1.6-2.1-19.5c-7.4-.2-15.5-.2-22.9-.2z"/><path id="XMLID_273_" class="st6" d="M350.8 317.6c0 3.7 3.8 20.9 3.8 20.9l24-1.7-2.4-21.3c-13.6-.1-25.4.5-25.4 2.1z"/><path id="XMLID_274_" class="st6" d="m401.3 335.1 19.1-1.4V316s-9.4-.3-21.3-.6l2.2 19.7z"/></g><g id="XMLID_67_"><path id="XMLID_78_" class="st8" d="M354.7 338.5s-.7 14.7 7.7 15.2c8.4.6 35.3-8.1 43.7-8.5 8.4-.4 37.3-.4 37.3-.4s4.3 7.1 12.4 4.7c8.1-2.4 13.2-12.2 8.1-21.3-5.3-9.1-7.5-8.5-11.8-8.5s-4.1 4.7-8.5 4.3c-4.6-.6-5.7-1.1-5.7-6.3s6.7-5.4 6.1-12.7c-.4-7.4-6-8.8-11-6-5 2.8-9.5 9.5-12.4 17.2s0 17.6 0 17.6l-65.9 4.7z"/><path id="XMLID_76_" class="st6" d="M443.3 344.6c-5.1-6.1 2-10 5.3-10s5.4 5.7 5.4 5.7"/><circle id="XMLID_61_" class="st11" cx="429.6" cy="322.8" r="4.3"/><circle id="XMLID_64_" class="st11" cx="435.5" cy="335.2" r="4.3"/><circle id="XMLID_65_" class="st11" cx="447.7" cy="328.5" r="4.3"/></g><g id="XMLID_74_"><path id="XMLID_75_" class="st5" d="M536.8 351s-8.8 15.5-18.2 32.1l4.3 2.1c7-17.9 13.9-34.2 13.9-34.2z"/><path id="XMLID_276_" class="st5" d="M505.6 430.9c0 5 6.4 9.5 11.1 4.1 1.6-1.8 5.4-10.8 9.7-21.9l-11.5-8c-5.2 13.2-9.3 24-9.3 25.8z"/><path id="XMLID_277_" class="st5" d="M484.1 416.7c0 5.7 9.7 10 12.1 5.7.9-1.6 6-10.5 12.2-21.6l-11.2-7.7c-7.4 11.7-13.1 21.6-13.1 23.6z"/><path id="XMLID_278_" class="st8" d="M507.3 377.3c-3.4 5.3-6.8 10.7-10.1 15.6l11.2 7.7c3.1-5.5 6.7-11.7 10-17.6l-11.1-5.7z"/><path id="XMLID_279_" class="st3" d="m546 343.2-17.1.1s-10.7 17.2-21.6 34.1l11.2 5.7c9.4-16.6 18.2-32.1 18.2-32.1s-6.8 16.4-14.1 34.3l11.8 6.1c6.1-16.8 12.8-31.9 12.8-31.9l-1.2-16.3z"/><path id="XMLID_280_" class="st8" d="m514.9 405.2 11.5 8c2.7-6.8 5.5-14.5 8.3-21.8l-11.8-6.1c-2.8 6.7-5.6 13.5-8 19.9z"/></g><g id="XMLID_102_"><path id="XMLID_105_" class="st9" d="m529.5 388 11.4-31.7"/><path id="XMLID_106_" class="st9" d="m512.6 380 18-27.9"/></g><g id="XMLID_103_"><path id="XMLID_100_" class="st5" d="M563.8 298.9c-7.1 0-11.4 11.7-18.9 14.5-7.5 2.7-20.6 13.2-19.6 20.2-5.7 1.1-10.7 6-7.8 11.1 2.8 5.3 26.5 11.2 28.5 14.8l-4.3 11.7s2.1 10.7 7.7 10.7 15.5-9.7 15.8-17.5c.3-7.8-10.7-18.4-10.7-18.4s23.5-18.4 23.5-31.3c0-12.8-7.1-15.9-14.2-15.8z"/><path id="XMLID_101_" class="st6" d="M538.6 330.4s7.1 1.1 3.3 6.8c-3.8 5.7-15.6 3-16.4-3.6"/></g><g id="XMLID_163_"><g id="XMLID_146_"><path id="XMLID_293_" class="st8" d="M520.1 574.6c-12.2-4.1-13.1-20.1-12.1-30.4l-14.2 2.8s-19.9 37.7 6.1 49.1c26 11.4 90-9.4 90-9.4v-23c-15 4.7-54.7 16-69.8 10.9z"/><path id="XMLID_294_" class="st7" d="M527.2 563.5c8.7 4.8 47.1-6.1 64.6-10.5l-2-25.2-69.3 13.8c-.7 7.8-.1 18.2 6.7 21.9z"/><path id="XMLID_298_" class="st7" d="M527.2 563.5c-6.8-3.7-7.4-14.1-6.7-21.9l-12.7 2.6c-.9 10.5-.1 26.3 12.1 30.4 15.1 5.1 54.9-6.3 69.7-11l2-10.7c-17.3 4.5-55.7 15.5-64.4 10.6z"/></g><g id="XMLID_145_"><g id="XMLID_144_"><g id="XMLID_143_"><path id="XMLID_292_" class="st4" d="m658 480.3-73.1 4.8c-.3 6.4-.4 13.5-.7 21.2l78.4-6.4c-1.6-7.1-3.2-13.8-4.6-19.6z"/><path id="XMLID_295_" class="st4" d="m653.1 459-43.8 1c-3.3 2.7-8.5 5-16.9 5.5-2.3.1-4.4.1-6.5 0-.1 4.4-.4 11.2-.7 19.6l73.1-4.8c-3.3-12.8-5.2-21.3-5.2-21.3z"/><path id="XMLID_296_" class="st4" d="m662.7 499.9-78.4 6.4c-.3 6.1-.4 12.4-.7 18.8l83.4-7c-1.6-6.2-3.1-12.3-4.3-18.2z"/><path id="XMLID_297_" class="st1" d="m666.8 518.1-83.4 7c-1.3 36.8-2.7 76.4-2.7 80.1 0 7.1 19.6 7.1 20.6-3.6 1.1 10 21.3 9.7 20.6 0 1.4 8.5 21.1 5.4 20.8-2.8 1.8 9.2 22.2 7.5 20.6-2.8 3.6 9.2 22.8 6.7 20.6-2.6-.6-4.7-9.1-41.4-17.1-75.3z"/></g><path id="XMLID_148_" class="st6" d="m601.5 601.6-3.4-77.6"/><path id="XMLID_147_" class="st6" d="m622.3 601.6-6.3-79.2"/><path id="XMLID_157_" class="st6" d="m642.9 598.8-8.4-78"/><path id="XMLID_158_" class="st6" d="m663.5 598.8-12.6-79.4"/></g><g id="XMLID_159_"><g id="XMLID_289_"><path id="XMLID_290_" class="st8" d="M609.3 406.8c7.3 42.8 36.6 44.5 51.5 42.5-.9-23.2-6.3-63.4-.6-93.3-16.7-.2-58.7 4.2-50.9 50.8z"/><path id="XMLID_291_" class="st1" d="M609.3 406.8c-8-46.5 34-50.9 51.1-50.8 1-4.8 2.1-9.4 3.7-13.5 1.7-4.6 1.8-11.8-5-14.2-6.8-2.4-15.6 10.4-15.6 10.4s-3.3-8.3-14.2-6.1c-11 2.1-11.1 12.2-11.1 12.2s-9.2-10.1-22-.1c-12.9 10-7.1 23.2-7.1 23.2s-9.7-3-16.1 6.4c-6.4 9.4-1.8 17.1-1.8 17.1s-9.7 2.1-9.7 13.5 11.8 10 11.8 10-9 4.3-6.8 12.5c2.1 8.3 13.2 8 13.2 8s-5.4 5.8-2.6 12.2c2.8 6.4 16.1 4.8 16.1 4.8s-3.6 10 5.7 15.5c9.2 5.5 21.8-2.7 21.8-2.7s.7 6.5 10.7 6.5 11.8-6.5 11.8-6.5 5 6.5 14.9 2.8c2.8-1 3.3-8 2.8-18.5-15 1.8-44.2.1-51.6-42.7z"/></g><g id="XMLID_99_"><path id="XMLID_161_" class="st8" d="M656 370.2c-13.2-6.8-38.8 10-34.6 37s31.3 34.4 42.4 26.2c11-8.4 5.3-56.4-7.8-63.2z"/><g id="XMLID_165_"><path id="XMLID_166_" class="st8" d="M716.1 385.1c-7-.3-13.8-.6-20.2-.9l.6 35.6c6.8-.7 13.9-1.6 21.1-2.4l.1-32.1c-.6-.2-1-.2-1.6-.2z"/><path id="XMLID_167_" class="st4" d="M651.6 383.3c-13.8 4.7-18.1 35.3 4 38.4 7 1 22.6 0 41-2l-.6-35.6c-22-1.1-39.2-2.7-44.4-.8z"/><path id="XMLID_168_" class="st4" d="M789.7 385.1c-5.5-.1-27.6.4-51.6.4v29c28-4 52.8-8.3 56.6-9.7 8.1-3.2 9.5-19.2-5-19.7z"/><path id="XMLID_169_" class="st5" d="m717.7 385.1-.1 32.1c6.8-.9 13.8-1.8 20.5-2.7v-29.2c-6.7.1-13.7 0-20.4-.2z"/></g></g></g></g></g><g id="XMLID_172_"><path id="XMLID_174_" class="st1" d="M740.6 204.9c14.2 0 15.9-10.8 15.9-10.8s5.8 7.5 17.8 6.4c3.8-.4 7.7-2 11.1-4-.7-1.3-1.3-2.6-2-3.8-7.7-13.5-31.9-25.9-31.9-25.9-1 .7-15.6 13.2-24.5 27.7 1.7 4.8 5.4 10.4 13.6 10.4z"/><path id="XMLID_176_" class="st1" d="M782.6 226.5c-13.2 1-14.7 11.2-14.7 11.2s-6.8-6.1-18.9-2.6c-7.1 2.1-11 10.5-12.8 16.9.9.7 1.8 1.3 2.7 2 11.9 7.5 42.4 7.1 49.9-13.2 1.8-4.8 2.8-9.2 3.3-13.5-3.1-.6-6.4-1.1-9.5-.8z"/><path id="XMLID_177_" class="st5" d="M749.2 235.3c12.1-3.6 18.9 2.6 18.9 2.6s1.4-10.2 14.7-11.2c3.1-.3 6.5.1 9.7 1 1.3-11.9-2.3-21.8-7-31-3.4 2-7.1 3.7-11.1 4-11.9 1.1-17.8-6.4-17.8-6.4s-1.7 10.8-15.9 10.8c-8.1 0-11.8-5.5-13.4-10.5-3.6 5.8-6.1 11.8-6.5 17.6-1.3 18.6 5.3 32.3 15.6 40.3 1.7-6.6 5.5-15 12.8-17.2z"/></g><path id="XMLID_37_" class="st9" d="M186.7 153.4s-8.4.1-28.3-1.3"/><g id="XMLID_301_"><g id="XMLID_36_"><path id="XMLID_38_" class="st1" d="m279.3 119.8-2.4 65s14.4-2.8 34.7-5.1l.4-54.8c-19.8-2.5-32.7-5.1-32.7-5.1z"/><path id="XMLID_39_" class="st4" d="m311.9 124.9-.4 54.8c5.3-.6 11.1-1.1 17.1-1.6l.3-51.1c-5.9-.6-11.8-1.3-17-2.1z"/></g><g id="XMLID_300_"><g id="XMLID_205_"><path id="XMLID_304_" class="st4" d="M359.5 129.8c-4.7-.3-9.2-.7-13.7-1.1l-.6 48.5c4-.1 8.1-.3 12.2-.1l.9-19.6 1.2-27.7z"/></g><path id="XMLID_302_" class="st1" d="m328.9 127.1-.3 51.1c5.4-.4 11-.7 16.6-.9l.6-48.5c-5.8-.6-11.5-1.2-16.9-1.7z"/></g></g><path id="XMLID_238_" class="st5" d="M225.9 190.1c1.6-6.5-8.5-5.5-11.1-2.4 0-6.8-8.5-8.5-12.1-4.6 0-5-11-6.5-13.5-2.6-.4-4.3-12.1-3.6-13.2 1.1 0-5.3-11.8-6.1-11.8 3.1v17.5l55.8 9.4c2.9-10.4 5.4-19.2 5.9-21.5z"/><g id="XMLID_303_"><path id="XMLID_234_" class="st6" d="m213.1 198.3 1.9-10.6"/><path id="XMLID_235_" class="st6" d="m202.7 183.1-2.7 12.4"/><path id="XMLID_236_" class="st6" d="m188.4 194.1 1-13.5"/><path id="XMLID_231_" class="st6" d="M176.1 181.7v12.1"/></g><path id="XMLID_112_" class="st6" d="m270.7 397.2 3.2-6.7"/><path id="XMLID_81_" class="st5" d="M441.6 402.5c-1.8-3.6-16.8 3.3-14.4 8.5 2.4 5.3 14.9 29.2 62.6 38.4-31 15.6-42.1 28.9-42.1 31.7s7.5 9.8 10.4 7.8 33.4-27 41.7-30.6c8.3-3.6 7.5-19.2 0-20.3s-45.8-15.6-58.2-35.5z"/><path id="XMLID_86_" class="st1" d="M414.4 461.9c-3.6-10.8-11.7-17.5-17.5-21.1-12.8 11.7-22.6 27.2-22.6 27.2s21.5 15.6 40.1 21.1c1.9-7.7 3.2-17.8 0-27.2z"/><circle id="XMLID_140_" class="st7" cx="169.3" cy="626.3" r="22"/></g></g><g id="XMLID_320_"><path id="XMLID_314_" class="st14" d="M491.4 191.1c45.4-1 87.6 18.4 88.5 66.3.4 21.5-2.1 36.4-4.8 46.1"/><path id="XMLID_315_" class="st14" d="m501.9 182 4.8-18.8"/><path id="XMLID_316_" class="st14" d="m512.2 183 5.4-18.1"/><path id="XMLID_317_" class="st14" d="m560 202.3 11-14.2"/><path id="XMLID_318_" class="st14" d="m566.6 206.6 12-11.1"/><path id="XMLID_319_" class="st14" d="m571.3 212.9 14-10.4"/><path id="XMLID_321_" class="st14" d="m587.5 261.7 19.3-3.5"/><path id="XMLID_322_" class="st14" d="m586.1 310.4 17.4 3.9"/><path id="XMLID_323_" class="st14" d="m585.6 317.3 15.9 3.7"/><path id="XMLID_324_" class="st14" d="m582.6 326.1 17 3.1"/><path id="XMLID_325_" class="st14" d="m578.6 333.8 18.8 5.2"/><path id="XMLID_326_" class="st14" d="m575.6 340.9 15.9 6.8"/><path id="XMLID_327_" class="st14" d="m572.8 347.4 15.2 10.3"/><path id="XMLID_328_" class="st14" d="m570.5 356.3 12.1 11.8"/><g id="XMLID_347_"><path id="XMLID_329_" class="st14" d="m527.2 549 10 8.1"/><path id="XMLID_330_" class="st14" d="m537.2 546.2 9.9 8.9"/><path id="XMLID_331_" class="st14" d="m547.1 544.7 9.6 8.2"/><path id="XMLID_332_" class="st14" d="m557.1 543.3 8.7 7.4"/><path id="XMLID_333_" class="st14" d="m567.1 540.5 8.9 7.5"/><path id="XMLID_334_" class="st14" d="m577 537.6 5.9 4.9"/></g><path id="XMLID_335_" class="st14" d="m488.8 558 11.4-.9"/><path id="XMLID_336_" class="st14" d="m487.4 567.5 11.4-2.4"/><path id="XMLID_337_" class="st14" d="m486.4 576.6 13.8-4.8"/><path id="XMLID_338_" class="st14" d="m490.8 586.7 10.8-9.2"/><path id="XMLID_339_" class="st14" d="m497.1 594.7 9.8-11.8"/><path id="XMLID_340_" class="st14" d="m509.7 598.7 3.7-14.1"/><path id="XMLID_341_" class="st14" d="m521.1 599.8 1.9-13.4"/><path id="XMLID_342_" class="st14" d="M532.1 598.4v-12.7"/><path id="XMLID_343_" class="st14" d="m542.6 596.7-2.3-12.1"/><path id="XMLID_346_" class="st14" d="m554 595.2-2.3-12"/><path id="XMLID_344_" class="st14" d="m565.2 591.7-2.8-11.4"/><path id="XMLID_345_" class="st14" d="m575.2 589.3-1.9-11.8"/></g><g id="XMLID_288_"><g id="XMLID_286_"><g id="XMLID_285_"><circle id="XMLID_284_" class="st12" cx="541.7" cy="180.6" r="20.2"/><circle id="XMLID_283_" class="st12" cx="591.5" cy="232.2" r="20.2"/><circle id="XMLID_104_" class="st12" cx="602.8" cy="289.4" r="20.2"/></g><path id="XMLID_282_" class="st11" d="M561.2 185.5c-2.7 10.8-13.7 17.4-24.5 14.5s-17.4-13.7-14.5-24.5"/><path id="XMLID_281_" class="st11" d="M597.8 251.3c-10.5 3.4-21.9-2.3-25.5-12.9-3.4-10.5 2.3-21.9 12.9-25.5"/><path id="XMLID_275_" class="st11" d="M605.3 309.5c-11.1 1.4-21.2-6.3-22.6-17.4-1.4-11.1 6.3-21.2 17.4-22.6"/></g><g id="XMLID_287_"><circle id="XMLID_93_" class="st6" cx="541.7" cy="180.6" r="20.2"/><circle id="XMLID_94_" class="st13" cx="541.7" cy="180.6" r="8.1"/><circle id="XMLID_96_" class="st6" cx="591.5" cy="232.2" r="20.2"/><circle id="XMLID_95_" class="st13" cx="591.5" cy="232.2" r="8.1"/><circle id="XMLID_98_" class="st6" cx="602.8" cy="289.4" r="20.2"/><circle id="XMLID_97_" class="st13" cx="602.8" cy="289.4" r="8.1"/></g></g></g></svg>