<svg version="1.1" id="Calque_1" xmlns="http://www.w3.org/2000/svg" x="0" y="0" viewBox="0 0 900 900" style="enable-background:new 0 0 900 900" xml:space="preserve"><style>.st0{fill:red;stroke:#000;stroke-width:5.0621;stroke-linecap:round;stroke-linejoin:round}.st1{fill:#fff}.st2{stroke:red;stroke-width:6.0745;stroke-linecap:round;stroke-linejoin:round}.st2,.st3{fill:none}.st3,.st4{stroke:#000;stroke-width:5.0621;stroke-linecap:round;stroke-linejoin:round}.st4,.st5{fill:#fdce12}.st6,.st7{stroke-width:5.0621}.st6{fill:#fff;stroke:#000;stroke-linecap:round;stroke-linejoin:round}.st7{fill:#333}.st7,.st8,.st9{stroke:#000;stroke-linecap:round;stroke-linejoin:round}.st8{fill:#fbce14;stroke-width:5.0621}.st9{stroke-width:3.6447}.st11,.st9{fill:none}.st12{fill:red}.st13{fill:#ff3600;stroke:#000;stroke-width:5.0621;stroke-linecap:round;stroke-linejoin:round}.st14{fill:#ffce00}.st14,.st15,.st18{stroke:#000;stroke-width:5.0621;stroke-linecap:round;stroke-linejoin:round}.st18{fill:none;stroke:red;stroke-width:4.0497}</style><path class="st0" d="m224.8 794 2.5-25.9 57.5-4v17.8z"/><path class="st1" d="M341.5 687.9 292.1 760l42.9 7.3 68-60.8 16.2-28.3-54.2-22.7z"/><path class="st2" d="m337.2 762.2 68.6-80.8M329.3 760.4l61.9-81.4M319.6 759.2l62.5-84.5M309.8 758.6l60.8-84.5M299.3 761l62.6-89.9"/><path class="st3" d="M341.5 687.9 292.1 760l42.9 7.3 68-60.8 16.2-28.3-54.2-22.7z"/><path class="st1" d="M375.4 630.4s12.1-17.6 26.1-22.5c14-4.9 58.9 2.4 58.9 2.4l.6 48-37 12.2-48.6-40.1z"/><path class="st2" d="m385.2 628 20-15.2M394.9 632.8l21.2-16.4M407 635.9l18.9-17M417.4 638.9l17-16.4M428.3 643.2l17-17.7"/><path class="st3" d="M375.4 630.4s12.1-17.6 26.1-22.5c14-4.9 58.9 2.4 58.9 2.4l.6 48-37 12.2-48.6-40.1z"/><circle class="st4" cx="347.5" cy="681.8" r="13.4"/><circle class="st4" cx="410.3" cy="700.9" r="13.4"/><path class="st5" d="M339 666.9c.8 3.2 94.8 24.3 94.8 24.3l4.4-16.7c-10.5-1-48.9-5.7-92.3-23.4-3.9 7.4-7.2 14.3-6.9 15.8z"/><path class="st3" d="m424 685.7 3.7-11.6M415.5 684.5l4.3-11M407 682.6l3.3-10.5M397.3 681.4l4.3-11.5M388.2 679l3.6-11.6M379.1 676l4.2-12.2M370.6 674.1l4-12.1M360.9 671.1l3.6-11.5M350.5 668.1l3.7-12.8"/><path class="st1" d="m366.6 623.9-9.7 7.3s-5.9 10.3-10.9 19.9c43.4 17.7 81.8 22.4 92.3 23.4l6.9-26.3-78.6-24.3z"/><path class="st3" d="m438.2 674.5 6.9-26.3-78.6-24.3-9.7 7.3s-5.9 10.3-10.9 19.9"/><path class="st6" d="M429.4 643.1c-1.9 4.1-5.6 11.1-9.4 12.4-5.5 1.8-28.8-3.2-30.6-9.3-1.3-4.4-.1-11.5.7-15.2l-8.2-2.6s-7.2 11.7-3.9 19c4 15.4 42.1 18.6 47 16.2s12-18.2 12-18.2l-7.6-2.3z"/><path class="st7" d="M389.4 646.2c1.8 6.1 25.1 11.1 30.6 9.3 3.8-1.3 7.5-8.3 9.4-12.4L390.1 631c-.8 3.7-2 10.8-.7 15.2z"/><path class="st3" d="M345.9 651.1c-3.9 7.4-7.2 14.4-6.9 15.8.8 3.2 94.8 24.3 94.8 24.3l4.4-16.7"/><path class="st1" d="m200.5 830.5-39.1-1.6c13.2-30 119.3-56.7 119.3-56.7l17 15.4-6.5 40.5-90.7 2.4z"/><path class="st2" d="M235.1 819.7c22.5-7.3 46.8-9.5 46.8-9.5M210.8 819.9c37.1-16.4 69.9-18.2 69.9-18.2M283.1 793.2c-72.9 6.1-106.9 35.2-106.9 35.2M179.8 810.8c62-24.9 104.9-29 104.9-29"/><path class="st3" d="m200.5 830.5-39.1-1.6c13.2-30 119.3-56.7 119.3-56.7l17 15.4-6.5 40.5-90.7 2.4z"/><path class="st6" d="m200.5 830.5-39.1-1.6s-3 7.3.2 8.9c3.2 1.6 36.4.8 36.4.8l2.5-8.1zM282.3 774.6l-6.5 47s51.8 4 64-4c-5.7-17-10.5-38.9-10.5-38.9l-47-4.1z"/><path class="st3" d="M287.2 826.4s-.8-32.4 3.2-34.8 40.5-2.4 40.5-2.4"/><path class="st0" d="M283.2 777.8c-5.7-4-8.1-12.1-.8-15.4 7.3-3.2 42.1-2.4 49.4-.8s4.9 15.4 0 17.8c-4.9 2.5-43 2.5-48.6-1.6z"/><path class="st6" d="M198.1 835.3s-.8-12.1 2.4-13c3.2-.8 139.3-4.9 139.3-4.9s4.9 9.7 1.6 11.9c-8 4.4-143.3 6-143.3 6z"/><path class="st3" d="m205.4 834.5-4.9-12.1M213.5 834.5l-5.7-11.3M237 833.7l-4.1-10.5M245.1 833.7l-4.9-10.5M276.7 832.1l-4.1-10.5M287.2 832.9l-5.7-12.2M322.8 830.5l-5.6-11.4M330.9 829.7l-5.6-10.6M170.7 837.6l-.6-7.3M179.2 837.6l-.6-6.7M188.3 836.3l-1.2-5.4"/><path class="st4" d="M707.6 594c8.1 10.5 72.1 60.7 72.1 60.7l-51.8 52.6-68.9-74.5 9.7-31.6c0 .1 30.8-17.8 38.9-7.2z"/><path class="st3" d="m722.1 694.4 44.6-48.6M708.8 604.5C737.9 635.3 761 649 761 649M738.3 675l-51-55.9 4.1-6.5 54.2 56.7"/><path class="st0" d="M675.5 550.2 623 586.8l15.8 14.8 50.1-34.1c-4.3-5.1-8.8-10.9-13.4-17.3z"/><path class="st7" d="M660.6 527.6c-4.9-8.1-55.1 4.9-55.1 4.9s-.8 22.7.8 25.1 10.5 23.5 10.5 23.5l6.2 5.8 52.5-36.6c-5-7-10.1-14.5-14.9-22.7z"/><path class="st8" d="M714 598c-1-3.4-11.7-13.9-25.2-30.5l-50.1 34.1L671 632s12.1-.8 10.5-8.9c4 2.4 9.7-2.4 9.7-7.3 4 1.6 11.3-2.4 10.5-8.9 8.3 2.5 14-3.2 12.3-8.9z"/><path class="st3" d="m612.4 570.2 49.2-33.4M664.4 556.9l-1.2-18.3M654.9 562.9l-1.2-18.8M647 569l-1.2-20M639.1 573.9l-1.2-18.8M631.2 580l-1.2-20.7M687.7 628.6l-3 15.8M693.2 634.6l-2.5 15.8M699.8 641.3l-2.4 17M705.9 651.7l-2.4 17M712.6 659.6l-3 16.4M718.7 666.8l-3.1 14.6M726 672.9l-3.1 17M705.9 614.6l-1.2 11.5M713.2 619.5l-.6 10.9M740 643.4l-1.9 13.9M747.9 648.6l-3.1 16.4"/><circle class="st4" cx="721.3" cy="640.9" r="12.1"/><path class="st3" d="m687.3 593.2 14.6 13.7M678.4 602.1l13 13.7M671.1 611l10.5 12.1"/><path class="st6" d="m702 666-34.6 23.1c1.6 2.3 3.2 4.6 4.9 6.9l34.8-23.8c-1.7-2.1-3.4-4.2-5.1-6.2zM686.5 647.4s-14.6 17-33.2 21.1c0 0 3.9 5.8 9.3 13.6l33-23.9c-5.3-6.3-9.1-10.8-9.1-10.8zM712.8 679.2l-35.6 23.6c3.3 4.6 6.6 9 9.5 12.6l35.6-24.1c-2.7-3.5-6-7.7-9.5-12.1z"/><path class="st9" d="m720.5 711.8-46.8-57.7M724.8 706.3l-45-57.7M702.3 723.9l-44.4-60.7M705.9 720.3l-42.5-59.5"/><path class="st7" d="m695.5 658.2-33 23.9c1.5 2.2 3.2 4.6 4.9 7L702 666c-2.3-2.8-4.5-5.4-6.5-7.8zM722.2 691.3l-35.6 24.1c3.4 4.3 6.2 7.6 7.9 8.9 8.1 6.5 16.2-2.4 13-10.5 8.9 5.7 26.7-4.9 18.6-17-.9-1.5-2.3-3.3-3.9-5.5zM707.2 672.2 672.3 696c1.6 2.3 3.3 4.6 4.9 6.8l35.6-23.6c-1.8-2.3-3.7-4.6-5.6-7z"/><path class="st3" d="m707.6 713.8-36.9-56.1"/><path class="st4" d="m646.3 599.9-23.9 16.6c3 4.5 6.2 9.5 9.5 14.8l25.5-18.2-11.1-13.2z"/><path class="st0" d="m606.3 552.7-15.4 3.2 3.2 13 7.3 17.8s8.9 11.5 21 29.9l23.9-16.6-40-47.3z"/><path class="st4" d="M676.6 635.7 646.5 656c2.3 4.1 4.6 8.2 6.8 12.5 18.6-4 33.2-21.1 33.2-21.1l-9.9-11.7z"/><path class="st7" d="m657.4 613.1-25.5 18.2c4.7 7.6 9.6 15.9 14.6 24.6l30.1-20.2-19.2-22.6z"/><path class="st3" d="m628.8 622.5 21.2-14.6M637.3 638.3l23.7-17"/><path class="st0" d="m560.2 809.4-.9-24.3 55.9-.8 4.9 20.3z"/><path class="st1" d="m553.7 703.3 62.3 77 36.5-3.3-38.1-80.2-11.3-21.8zM614.4 791.6c-36.4 4.9-100 29.6-103.3 45l37.7-1.2 72.9-.8 13-34.8c0-.1 16.2-13.1-20.3-8.2z"/><path class="st2" d="m620.3 775-54.1-80.8M632.4 774.4l-50.4-82M642.7 773.8l-47.9-85.7M523.1 835.1c28.6-26.1 89.3-32.2 89.3-32.2M550.4 832.7c31.6-15.2 62.6-15.2 62.6-15.2"/><path class="st3" d="m553.7 703.3 62.3 77 36.5-3.3-38.1-80.2-11.3-21.8zM614.4 791.6c-36.4 4.9-100 29.6-103.3 45l37.7-1.2 72.9-.8 13-34.8c0-.1 16.2-13.1-20.3-8.2z"/><path class="st6" d="m548.8 835.3-37.6 1.2-2.9 8.5 35.7-.8z"/><path class="st3" d="m517 844.2.6-8.5M524.9 842.4v-6.1M534.6 843l.6-7.3"/><path class="st6" d="m654.9 794 11.1 34.2-57.3 3.8s1.6-33.2 4.9-37.3 25.9-8.9 25.9-8.9l15.4 8.2z"/><path class="st3" d="M619.3 834.5s.6-24.5 3-27.7 35.8-.6 35.8-.6"/><path class="st0" d="M613.6 794.8c-3.2-1.6-6.5-13.8-.8-16.2 5.7-2.4 42.5-5.7 46.6-2.4s2 15.4-2 17.8-40.6 2.5-43.8.8z"/><path class="st6" d="M666.1 828.2c-3.2-2.4-115.6 3-118.9 4.7-3.2 1.6-.8 8.9-.8 8.9l122.3-2.4s.6-8.7-2.6-11.2z"/><path class="st3" d="m565.8 841-4-8.9M574.7 840.2l-4.8-7.3M598.2 838.4l-3.2-7.1M608.7 839.4l-4-8.1M635.5 839.4l-4.1-9.7M645.2 838.6l-4.1-8.9"/><path class="st4" d="M496.2 771.3s23.5 4.7 25.9 3.8 7.3-75.1 7.3-75.1l-13.8-41.3-15.4 5.7-4 106.9z"/><path class="st3" d="m496.2 756.8 26.7 4M518 758.4l4.1-79.4M501.2 742.2l15.2 9.1M503 731.8l15.2 9.8M503 718.5l14.6 9.7M504.8 706.9l13.4 8.5M506 695.4l12.6 7.9M506 682.6l15.8 11"/><circle class="st4" cx="550.8" cy="721.5" r="14.2"/><circle class="st4" cx="617.7" cy="692.2" r="12.8"/><path class="st5" d="M609.5 658.5c-4.9 5.7-15.5 14.3-38.5 23.3-25.8 10.2-41.8 11.1-49.9 10.5 3.2 8.5 7 16.2 10.7 17.5 8.9 3.2 86.7-28.3 87.5-34 .3-2.4-4.3-9.6-9.8-17.3z"/><path class="st3" d="m535.6 706.9-5.4-14.5M543.3 705.7l-5.4-14M552.3 703.3l-5.3-12.8M561.3 702.1l-5.4-14M571.1 699.6l-6.1-16.4M578.4 695.4l-5.5-15.2M585.6 691.1l-5.4-13.3M592.9 688.7l-5.4-13.4M599.6 685.1l-6.7-13.4M607.5 681.4l-7.9-13.3M614 677l-9.1-14"/><path class="st1" d="M571.1 681.8c23-9.1 33.6-17.7 38.5-23.3-7.9-11.1-17.8-23.2-17.8-23.2L525.3 649l-12.1 17s3.4 14.1 8 26.3c8.1.6 24-.3 49.9-10.5z"/><path class="st6" d="M520.5 658.8s5.7 18.6 17 23.5c11.3 4.9 50-13.4 51.6-23.9 1.6-10.5-8.7-19-8.7-19l-59.9 19.4z"/><path class="st7" d="M529.8 656.5s6.1 11.5 13.4 13.4c7.3 1.8 31.6-8.5 34-14.6s-2.4-16.4-2.4-16.4l-45 17.6z"/><path class="st3" d="M513.2 666.1s9.7 40.5 18.6 43.7 86.7-28.3 87.5-34-27.5-40.5-27.5-40.5L525.3 649l-12.1 17.1z"/><path class="st1" d="m505.9 670.9 88.3-32.4-4.9-12.9-82.6 3.2z"/><path class="st2" d="M520 662.6v-26.1M530 658.9v-23.6M541.9 654.1l-.6-18.2M553.4 650.4l-1.2-15.8M565.2 645l-1.8-12.8M577.7 641.9l-2.4-12.1"/><path class="st3" d="m505.9 670.9 88.3-32.4-4.9-12.9-82.6 3.2z"/><path class="st6" d="M403 824.8c-1.6 13 10.5 18.6 20.2 3.2 2.4 19.4 18.6 17.8 25.1 4 1.6 13.8 16.2 14.6 21.1 2.4 4 13.8 17.8 12.1 20.2.8.7-3.4 1.8-10 3-17.5l-85.8-11.9c-1.8 8.1-3.3 15.1-3.8 19zM412.6 782.4l-3.8 15.2 84.9 13.6c.8-5.4 1.6-10.9 2.3-15.8l-83.4-13zM498.6 777.8l-81-14.6s-1.2 4.6-2.9 11.2l82.5 13.3c.8-5.9 1.4-9.9 1.4-9.9z"/><path class="st3" d="m448.4 832.1 10.5-64.8M469.4 834.5l9.8-63.2M423.3 828l16.6-64.8"/><path class="st7" d="m497.2 787.7-82.5-13.3c-.6 2.4-1.3 5.1-2 7.9l83.4 13c.4-2.7.8-5.3 1.1-7.6zM406.9 805.9l85.8 11.9c.3-2.1.7-4.4 1-6.6l-84.9-13.6c-.6 2.8-1.3 5.6-1.9 8.3z"/><path class="st4" d="m417.6 763.2 81 14.6 2.2-22.2-79.6-11.4z"/><path class="st7" d="m428.9 704-7.7 40.2 79.6 11.4 4.1-41.7z"/><path class="st0" d="M513.2 630.4 464.6 611l-20.3 12.3-13.6 71.3 75 11z"/><path class="st4" d="m505.7 705.6-75-11-1.8 9.4 76 9.9z"/><path class="st3" d="m428.3 712.4 74.1 10.3M427.1 720.9l74.1 11.3M439.8 703.9l1.3-7.9M447.7 704.3l.6-6.1M459.5 705.7l1.2-6.1M469 708.1l1.8-7.2M483.8 710l1.2-7.3M491.5 710l.6-6.1M430.1 727.6l2.4 18.2M438 728.8l3.9 18.2M446.3 730.2l3.7 18.2M455 732.4l3.1 16.4M463.5 733.7l3.1 17M473.2 735.3l2.5 17M482.4 736.5l1.8 15.8M490.9 737.7l1.8 15.2"/><path class="st4" d="M542.3 599.6c32.3-3.5 51-8 60.6-10.9-.2-2.7-.5-5.2-.7-7.5-10 2.7-31.5 7.6-64.8 10.4-39.4 3.3-69.5-5-78.8-8.1l-.7 9.6c12.3 3.6 44.3 10.9 84.4 6.5z"/><path class="st7" d="M537.5 591.7c33.3-2.8 54.9-7.7 64.8-10.4-1.8-19.6-2.5-24.6-2.5-24.6l-42.9-27.5-95.6 20.2-2.7 34.2c9.4 3.1 39.4 11.5 78.9 8.1z"/><path class="st6" d="M537.5 619.1c-39.3 1.2-67.4-9.2-80.4-15.3l-1.4 18.5s27.5 31.6 150.6 6.5c-.6-7.2-1.1-13.7-1.6-19.6-9.9 3.5-30.8 8.8-67.2 9.9z"/><path class="st0" d="M537.5 619.1c36.5-1.1 57.3-6.4 67.2-9.9-.7-7.9-1.2-14.6-1.8-20.4-9.6 2.9-28.3 7.4-60.6 10.9-40.2 4.4-72.1-2.9-84.4-6.4l-.8 10.5c12.9 6 41.1 16.4 80.4 15.3z"/><path class="st3" d="m604.5 627.4-7.9-14M595.6 630.4l-6.7-14.6M588.7 631.6l-7.3-14.6M579.6 633.4l-7.3-15.2M571.1 635.3l-7.9-17.1M562 634.6l-7.3-15.7M554.7 635.9l-6.7-14.6M544.9 635.3l-6-14.6M535.8 636.5l-6.6-16.4M525.5 637.1l-8.3-17.2M515.8 637.1l-6.7-18.2M505.4 637.1l-6-18.2M497.1 636.5l-6.6-20.1M486.6 633.4l-6.7-19.4M475.7 631.6l-3.7-16.4"/><path class="st1" d="m513.8 562.9 34.8-14.5L520 399.5l-44.3 8.5-17.6 115.7z"/><path class="st2" d="M485.4 417.8c6.7 3 20.7 14.6 20.7 14.6M524.9 555.1l-45-97.8M536.4 549l-54.7-112.4M487.1 431.6c6 4.4 24.5 28.1 24.5 28.1M479.9 482.8c4.9 4.3 12.8 23.7 12.8 23.7"/><path class="st3" d="m513.8 562.9 34.8-14.5L520 399.5l-44.3 8.5-17.6 115.7z"/><path class="st4" d="m756.2 535.7 40.5 58.3 28.3-21.9-41.3-55.9z"/><path class="st3" d="m785.3 578.2 29.2-20.7M774.8 523.5l30 40.5M770.5 540.5l13.8-.8M776.4 548.4l13.8-.8M782.5 555.9l13.7-.8M787.7 563l13.8-.8"/><path class="st7" d="m690.6 392.3-28.4 4 30.8 43 25.5 42.8 30.8-21.5z"/><path class="st4" d="m794.2 513-20.7-24.1-35.9 25.4 16.1 27z"/><path class="st0" d="m749.3 460.6-30.8 21.5 19.1 32.2 35.9-25.4z"/><path class="st3" d="m739.1 465.2-58.3-74.5M720.3 479.8l7.3-14.6M714.2 473.3l9-15.4M710.2 466.6l7.3-15.4M706.1 459.5l6.5-14.6M701.9 450.6l4.8-12.9M696.4 444.7l3.9-12.7M690.6 436l4-10.5"/><path class="st1" d="M578.8 393.9c13.8 2.4 55.9 32.4 58.3 27.5s-12.1-30-12.1-30l6.5-12.1 40.5 18.6s24.5 27.3 24.5 47.6-14.8 30.6-29.4 33c-14.6 2.4-45.4-.4-45.4-.4l-42.9-60.7s-13.8-25.9 0-23.5z"/><path class="st2" d="M623.3 468.8s30.4 4.9 43.7 2.4c13.4-2.4 20.7-12.1 20.7-24.9s-22.5-49.2-22.5-49.2"/><path class="st2" d="M612.4 454.8s32.2 8.5 44.3 7.9 20.9-8.3 19.6-21.7c-1.2-13.4-19.6-43.9-19.6-43.9"/><path class="st2" d="M611.2 440.8s27.9 11.5 37.1 10.3c9.1-1.2 16.4-7.9 14.6-18.2-1.8-10.3-17.6-39.5-17.6-39.5"/><path class="st2" d="M599 423.8s32.2 12.8 38.9 12.8 12.1-5.5 11.5-10.3c-.6-4.9-12.8-34-12.8-34"/><path class="st2" d="M589.3 408c30.4 13.4 46.2 14 46.2 14"/><path class="st3" d="M578.8 393.9c13.8 2.4 55.9 32.4 58.3 27.5s-12.1-30-12.1-30l6.5-12.1 40.5 18.6s24.5 27.3 24.5 47.6-14.8 30.6-29.4 33c-14.6 2.4-45.4-.4-45.4-.4l-42.9-60.7s-13.8-25.9 0-23.5z"/><path class="st4" d="M521.3 489.5c4.9 20.2 21.1 77.6 44.5 80.8s94.8-42.7 94.8-42.7l-47-75.3-64 13.8c0-.1-33.2 3.1-28.3 23.4z"/><path class="st3" d="M527.8 487.9s23.5 73.5 42.9 74.3c24.3-1.4 84.6-42.9 84.6-42.9M584.4 556.7 548 479M592.8 553.9l-35.7-78.6M615.2 542.1l-38.9-72.9M624.1 538.9 582 466.8M644.4 524.3l-39.7-66.4M593.6 470l16.2-1.6M598.2 477.3l16.2-1.6M603.3 485.2l16.2-1.6M607.7 493.1l16.2-1.6M612 501.8l16.2-1.6M618.1 510.5l16.2-1.6M621.5 518.4l16.2-1.6M626 527.1l16.2-1.6M577.8 506.9l16.2-1.6M586.3 515.6l13.2-2M592.1 531.6l16.2-1.6M589.9 522.9l14-1.4M595.6 541.3l16.2-1.6M538.9 493.9l12.7-1.8M543.3 501.6l13.8-1.6M547.2 508.9l13-1.6M551 516.8l13.6-1.6M555.9 526.1l13.6-1.6M560.4 535.4l11.7-1.6M563.6 543.3l11.5-1.6M567.8 551.9l12.6-1.7"/><path d="m582 465-6 2.5c3 5.8 7 14.3 6.6 16.3-.8 4-5.7 6.1-8.9 2.8-2-2-5.9-9.4-8.5-14.6l-6.6 2.8s4 17.2 12.1 22.1 20.9.6 21.7-6.7C593.2 483 582 465 582 465z" style="fill:#fbce14"/><path class="st3" d="m582 465-6 2.5c3 5.8 7 14.3 6.6 16.3-.8 4-5.7 6.1-8.9 2.8-2-2-5.9-9.4-8.5-14.6l-6.6 2.8s4 17.2 12.1 22.1 20.9.6 21.7-6.7C593.2 483 582 465 582 465z"/><path class="st6" d="m602.9 427.5-94 37.5 2.4 9.7 97.2-39.2z"/><path class="st7" d="m586.9 404.4-23.5-5.6-63.2 31.6 8.7 34.6 94-37.5z"/><path class="st4" d="m620.1 452.2-11.6-16.7-97.2 39.2 5.1 20.5z"/><path class="st3" d="m537.5 484.6-7.3-16.2M562.6 473.3l-7.3-15.4M588.5 463.6l-7.3-15.4M518.6 452.2l-8.1-10.5M527.1 448l-8.1-10.6M535 444.1l-8.1-10.5M543.1 440.1l-8.1-10.5M553.7 436l-8.1-10.5M562.6 432.4l-8.1-10.5M570.3 429.1l-8.1-10.5M578.8 425.9l-8.1-10.5M588.5 421.9l-8.1-10.6M518.8 468.2l-2.4-5.5M528.5 465.1l-3.6-6M537.7 462.1l-3.1-6.7M546.2 458.5l-1.9-6.1M555.3 454.8l-2.5-6.1M565.6 451.2l-2.4-6.7M573.5 447.5l-1.8-6M583.2 443.3l-3-4.9M591.3 439.6l-2.4-5.4M599 436l-1.8-4.3"/><path class="st0" d="m563.4 368.8-68.9-.8-10.5 22.7 12.3 30 83.6-26.8z"/><path class="st7" d="m496.3 420.7 3.9 9.7 86.7-26-7-10.5z"/><path class="st11" d="M267.8 562.6v-.2.2z"/><path class="st6" d="M254 647.4c1.6 9.7 9.7 9.7 13 .8 3.1-8.6 1-81.1.8-85.6l-16 2.9c1.7 35.5 1.2 76.3 2.2 81.9z"/><path class="st6" d="m300 556.7-32.2 5.9c.6 4 10.4 63.3 13.5 72.7 3.2 9.7 9.9 6.5 10.7-1.6.8-8.1-9.7-72.9-9.7-72.9s12.1 56.7 18.6 65.6c6.5 8.9 13 3.2 13-7.3 0-5.7-6.3-34.5-13.9-62.4z"/><path class="st0" d="M281.5 502.4c-10.5-16.2-19.4-13.8-19.4-13.8s-30 10.5-18.6 23.5c4.7 5.4 7 28 8.3 53.4l16-2.9v-.2.2l32.2-5.9c-6.4-23.7-13.6-46.8-18.5-54.3z"/><path class="st3" d="M267.8 562.4s-4.1-38.9-9-48M282.3 560.8s-2.9-38.5-14.4-48.8"/><path class="st6" d="m244.3 458.7 74.5-11.3 2.4 55.9-75.3.8z"/><path class="st2" d="m241.8 467 76.5-10.4M242.4 478.5l72.9-8.5M243.6 488.8l76-6M244.2 497.9l79-4.2"/><path class="st11" d="m168.1 647.4.7 83.1 13.8-.1-8-81.4zM233.1 725.9l9.6-2.8-22.7-79.7z"/><path class="st0" d="m219.2 753.5 17-8.1-3.1-19.5-18.3 5.3zM185.2 756.8l19.4-1.7-1.2-25-20.8.3z"/><path class="st4" d="M232.1 637.7 199.7 611l-41.3 6.5-9.7 26.7-.6 86.6 20.7-.3-.7-83.1 6.5 1.6 8 81.4 20.8-.3-3.7-77 15.1 78.1 18.3-5.3-13.1-82.5 22.7 79.7 15.5-4.4z"/><path class="st0" d="m147.9 755.1 21.1-.8-.2-23.8-20.7.3zM242.7 723.1l5.6 19.9 16.2-4.9-6.3-19.4z"/><path class="st6" d="m219.2 571.3-21.9-21.9-40.5.8-15.4 8.9s-.5 11.5-1 25l80.9-3.8-2.1-9zM223.3 589.2l-83.3 5.4c-.1 3.6-.3 7.1-.4 10.5l85.9-6-2.2-9.9zM229.7 617.5l-2.3-10.3-88 6.1c-.2 5.7-.3 10.2-.3 12.3 0 9.7 0 26.7 10.5 27.5s8.9-26.7 8.9-26.7 2.4 33.2 16.2 32.4c10.6-.6 10.6-19.4 10.1-28.1-.3-2.6-.4-4.3-.4-4.3s.2 1.7.4 4.3c1 8.9 4.5 28.5 15.8 27.3 11.3-1.3 10-20.9 8.8-29.8-.5-2.5-.7-4.3-.7-4.3s.3 1.7.7 4.3c1.5 7.9 5.9 23.7 16.3 20 13.7-4.8 4-30.7 4-30.7z"/><path class="st9" d="m147.6 625.5-1.2-48M153.1 626.7l-1.2-48.6M168.9 623.1l-2.4-45.6M176.2 622.5l-2.4-45M190.8 621.9l-1.9-45.6M198.7 620.7l-3.7-45.6M215.7 620.1l-6.7-44.2M222.3 617.6l-7.2-42.5"/><path class="st3" d="m207.2 620.1-5.5-49.3M183.9 622.5l-3.1-52.9M158.6 624.5l.6-59.1"/><path class="st7" d="m221.2 580.3-80.9 3.8c-.1 3.4-.3 7-.4 10.5l83.3-5.4-2-8.9zM225.5 599.1l-85.9 6c-.1 2.9-.2 5.6-.3 8.1l88-6.1-1.8-8zM139 625.6c0 9.7 0 26.7 10.5 27.5s8.9-26.7 8.9-26.7 2.4 33.2 16.2 32.4 9.7-34.8 9.7-34.8 1.6 35.6 16.2 34c14.6-1.6 8.1-35.2 8.1-35.2s3.2 30.4 17 25.5c13.8-4.9 4-30.8 4-30.8l-90.6 8.1z"/><path d="M149.5 641.9c-5.5 0-4.9-15.8-4.9-15.8h8.5s1.8 15.8-3.6 15.8zM167.7 624.7s0 22.7 6.1 21.5c6.1-1.2 2.4-22.5 2.4-22.5l-8.5 1zM190.8 621.9s3.6 26.1 8.5 24.9c4.9-1.2 1.8-25.7 1.8-25.7l-10.3.8zM215.7 620.1s4.3 20 8.5 18.8c4.3-1.2 0-20 0-20l-8.5 1.2z"/><path class="st3" d="m229.7 617.5-90.7 8.1"/><path class="st6" d="M405.5 487.1 369 507.3l-34.8-13-.8-69.6 54.2-33.2 33.6 29.1z"/><path class="st12" d="m408.8 425.9-65 29.2c-1.5.7-2.2 2.5-1.5 4 .7 1.5 2.5 2.2 4 1.5l65-29.2c1.5-.7 2.2-2.5 1.5-4-.6-1.5-2.4-2.2-4-1.5zM406.5 441.7l-63.8 26.7c-1.5.6-2.3 2.4-1.6 4 .6 1.5 2.4 2.3 4 1.6l63.8-26.7c1.5-.6 2.3-2.4 1.6-4-.7-1.5-2.5-2.3-4-1.6zM405.8 452.6l-58.9 25.5c-1.5.7-2.2 2.5-1.6 4 .7 1.5 2.5 2.2 4 1.6l58.9-25.5c1.5-.7 2.2-2.5 1.6-4-.6-1.5-2.4-2.2-4-1.6zM405.7 462.4l-53.5 26.7c-1.5.7-2.1 2.6-1.4 4.1.7 1.5 2.6 2.1 4.1 1.4l53.5-26.7c1.5-.7 2.1-2.6 1.4-4.1-.8-1.5-2.6-2.1-4.1-1.4zM406.3 475.2l-45.6 22.5c-1.5.7-2.1 2.6-1.4 4.1.7 1.5 2.6 2.1 4.1 1.4l45.6-22.5c1.5-.7 2.1-2.6 1.4-4.1s-2.6-2.2-4.1-1.4zM396.1 420.4 361.5 435c-1.5.6-2.3 2.4-1.6 4 .6 1.5 2.4 2.3 4 1.6l34.6-14.6c1.5-.6 2.3-2.4 1.6-4-.6-1.5-2.4-2.2-4-1.6z"/><path class="st6" d="M336 471.2c3.7 39.4 37.4 48.8 46.4 50.6-1.9-6.4-5.2-12.1-5.2-12.1s-20.2-13.8-25.9-33.2 4.9-38.1 4.9-38.1l19.4-31.6-6.7-8.1c-10.6 9.3-36.3 36.1-32.9 72.5z"/><path class="st13" d="M336 471.2c-3.4-36.5 22.4-63.2 32.8-72.4l-5.4-6.5-26.7 17s-25.1 21.9-23.5 64c1.6 42.1 40.7 65.6 60.7 65.6 11.2 0 10.9-9 8.5-17-9.1-1.9-42.8-11.3-46.4-50.7z"/><path class="st3" d="m340.2 441.5 10.9 5.4M339 451.2l9.7 4.2M336.6 461.5l11.5 3.6M338.4 472.4h9.7M339.6 482.8l10.9-1.3M345.1 494.9l10.9-4.2M354.8 503.4l5.9-5.7M363.3 511.3l4.2-7.9"/><path class="st9" d="m342.6 516.2 14 10.9M348.1 511.9l12.2 10.3M323.2 490.1l8.5 15.7M330.7 487.6l7.3 14M326.2 472.4l1.9-17.2M319.2 471.8l1.2-15.8M323.2 443.9l3.6-12.8M329.9 444.5l4.8-12.8M333.3 422l6.1-10.9M339.4 422l6.1-10.3"/><path class="st13" d="M477.5 577s36.2 16.2 46.2 21.1c-8.1 4.9-10.5 12.1-6.5 21.9s37.3 9.7 43.7-5.7 0-24.3-8.1-32.4c-8.1-8.1-42.9-25.9-42.9-25.9l-25.1-8.9-20.2 5.7 12.9 24.2z"/><path class="st6" d="M477.5 577s36.2 16.2 46.2 21.1c6.5-3.2 13 0 13 0s0-3.6-4-6.9c-4-3.2-55.1-24.7-55.1-24.7V577z"/><path class="st3" d="M526.9 608.5c14.6 4.9 13.8-8.1 9.7-10.5"/><path class="st9" d="m496.3 567.8 13.4 5.5M518.2 576.9l13.4 6.1M522.5 570.8l13.3 6.1M500 561.1l13.3 5.5M542.5 589.9l2.4 11.5M550.6 588.5l2.8 12.7M537.7 614.6l10.3-5.5M540.7 620.1l10.9-5.5M517.6 609.7l12.2 6.1M518.2 617l11 4.9"/><path class="st3" d="m487.8 579.3 1.8-6.6M494.5 583l3.7-6.1M503 586.6l3-6.6M511.5 589.7l2.3-7.3M518.8 593.9l4.9-6.7"/><path class="st13" d="M401.4 558.3s-81.8 30.8-87.5 49.4c-5.7 18.6-.8 30.6 18.6 34.6s36.4-7.1 38.1-16.8c1.6-9.7-12.1-13.8-12.1-13.8l39.7-16.2 3.2-37.2z"/><path class="st6" d="m398.2 595.6-39.7 16.2c-3.2 0-17 1.6-13 11.3-12.1 8.9-13.8-11.3-4-14.8 5.7-3.2 63.2-24.9 63.2-24.9l-6.5 12.2z"/><path class="st3" d="M359.5 621.5c-3.2 2.4-9.1 8.9-14 1.6"/><path class="st9" d="m369.4 580 12.7-5.5M373 585.4l10.9-4.2M340.2 592.7l11.6-6.1M344.5 598.2l11.5-5.5M322 604.9l-2.4 14.6M328.7 607.3l-1.9 12.8M325 632.2l10.6 5.1M328.7 628l8.5 4.2M347.4 632.3l10.6-2.5M347.4 637.2l9.1-2.2M343.3 618.9l-4.9-1.9M347.5 614l-3.6-7.3M356 611l-2.4-6.7M364.5 607.3l-3-6.1M372.4 603.7l-2.4-6.1M380.3 600l-1.2-4.8M389.4 597l-1.8-7.9"/><path class="st8" d="M398.4 556.9c-5.7 17.8-5.9 48.8 7.9 62 13.8 13.2 58.1 12.4 71.1-10.3 13-22.7.2-52.6.2-52.6l-37.3-8.9c0-.1-36.3-8-41.9 9.8z"/><path class="st3" d="m420 623.9 7.3-27.5M428.9 627.2l4.9-27.6M464.6 618.9l-13.8-16M471.9 611l-14.6-12.2M482.4 585.1l-84.2 3.2M481.6 576.1l-85.1 3.3"/><circle class="st3" cx="405" cy="568.5" r="4.5"/><circle class="st3" cx="407.1" cy="602.9" r="4.5"/><circle class="st3" cx="444.3" cy="618.9" r="4.5"/><circle class="st3" cx="471.9" cy="595.6" r="4.5"/><circle class="st3" cx="470.2" cy="566.2" r="4.5"/><path class="st4" d="M416.8 555.1s-7.3 38.3 2.4 51c9.7 12.8 35.5 9.4 41.3-8.9 5.4-17.3-8.1-42.9-8.1-42.9l-35.6.8z"/><path class="st0" d="M422.5 555.9s-4 34.8 2.4 44.5c6.5 9.7 25.1 3.2 27.5-8.9 2.4-12.1-8.1-35.6-8.1-35.6h-21.8z"/><path class="st4" d="m374.5 504.5-6.3 55.5 141.7-4.1-6.4-54.3z"/><path class="st4" d="m399.8 422.3 3.2 85.8 77.8-3.2 8.1-89.1-47.8-5.7z"/><circle class="st4" cx="413.8" cy="432.8" r="10.9"/><circle class="st4" cx="475.7" cy="432.2" r="10.9"/><path class="st3" d="M401.4 443.7H484M400.6 453.2l84.2-.8M402.6 471.7l81 1.6M403.6 479.8h78"/><circle class="st7" cx="413.4" cy="463.2" r="5.3"/><circle class="st7" cx="473.5" cy="462.8" r="5.3"/><circle class="st7" cx="472.7" cy="490.3" r="5.3"/><circle class="st7" cx="414.4" cy="489.5" r="5.3"/><path class="st14" d="M422.5 424.7v85l40.5-.8 3.2-85.8z"/><path class="st0" d="m431.4 427.1.8 82.6 22.7-4 3.2-81z"/><path class="st7" d="m386 498.4-1.6 46.2 102-2.5-1.6-44.5z"/><circle class="st0" cx="423.3" cy="524.9" r="10.9"/><circle class="st0" cx="458.1" cy="523.7" r="10.9"/><path class="st3" d="m385.2 513 99.6-1.6M386 535.7h98.8M402.2 535.7v-21.1M408.7 535.7v-20.3"/><circle cx="394.5" cy="525.9" r="4.9"/><circle cx="477.5" cy="523.9" r="4.9"/><path class="st7" d="M439.5 407.5c-20.8 1.8-47-15.5-58.7-24.2l-23.1 22s38.9 28.8 78.6 27.1c39.7-1.6 55.9-18.2 55.9-18.2l-7-22.3c-9.5 5.3-27.1 13.9-45.7 15.6z"/><path class="st0" d="M439.5 407.5c18.7-1.6 36.2-10.3 45.6-15.7l-2.7-8.4-11.3-40.5-47-.8-43.3 41.2c11.7 8.6 37.9 26 58.7 24.2z"/><path class="st3" d="M382 396.3s29.2 20.2 58.3 18.6c29.2-1.6 46.2-15.8 46.2-15.8M390.9 422.3l8.1-15.4M399 425.5l6.5-15.4M474.9 423.9l-4-14.6M468.4 427.1l-3.2-16.2"/><circle class="st3" cx="382.4" cy="408.9" r="4.5"/><circle class="st3" cx="416.8" cy="420.6" r="4.5"/><circle class="st3" cx="454" cy="421.5" r="4.5"/><circle class="st3" cx="480.8" cy="412.5" r="4.5"/><path class="st6" d="m533.4 91.8 13.8 26.7s6.4-1.8 16.3-4.8L554 82c-11.2 5.2-20.6 9.8-20.6 9.8zM560.5 79l10.8 32.4c2.6-.8 5.4-1.7 8.3-2.6l-11.7-33.1c-2.5 1.1-5 2.2-7.4 3.3zM578.1 71.4l10.2 34.7c3.7-1.2 7.6-2.4 11.4-3.7l-12.5-34.3c-2.3.6-5.4 1.8-9.1 3.3z"/><path class="st15" d="M672.7 69.1c0-7.3-7.3-16.2-16.2-13.8s-5.7 10.5-8.1 14.6c-2.4 4-31.6 9.7-37.3 8.9-5.7-.8-13.8-11.3-21.1-11.3-.6 0-1.6.2-2.9.5l12.5 34.3c34.3-11.2 72.7-25.6 73.1-33.2zM567.8 75.7l11.7 33.1c2.8-.9 5.7-1.8 8.7-2.8L578 71.3c-3.1 1.3-6.6 2.8-10.2 4.4zM554 82l9.5 31.7c2.4-.7 5-1.5 7.8-2.4L560.5 79c-2.2 1-4.4 2-6.5 3z"/><path class="st3" d="M534.2 99.1 595 74M532.6 109.6l68-27.5M537.5 115.3l63.1-21.9"/><path class="st6" d="m549.7 149.8.3-30.1s6.5-1.2 16.7-3l5.8 32.6c-12.4.4-22.8.5-22.8.5zM579.6 149.1l-4.9-33.8c2.7-.5 5.6-.9 8.5-1.4l4.4 34.8c-2.6.2-5.3.3-8 .4zM598.7 148l-6.5-35.6c3.8-.6 7.8-1.2 11.9-1.8l4.3 36.2c-2.3.5-5.7.9-9.7 1.2z"/><path class="st15" d="M684.3 107.4c3.3 6.5.8 17.7-8.3 19.6-9.1 1.8-9.8-6.9-13.8-9.4s-32.6 5.5-37.3 8.8c-4.7 3.3-7.2 16.3-13.7 19.6-.6.3-1.6.6-2.8.8l-4.3-36.2c35.7-5.3 76.4-9.8 80.2-3.2zM587.6 148.7l-4.4-34.8c2.9-.5 5.9-1 9-1.5l6.5 35.6c-3.3.3-7.1.5-11.1.7zM572.4 149.3l-5.8-32.6c2.5-.4 5.1-.9 8-1.4l4.9 33.8c-2.3.1-4.7.2-7.1.2z"/><path class="st3" d="m547.1 142.9 65.6-4.8M540.9 134.2l73.2-5.9M542.7 127l66.3-8.9"/><path class="st14" d="M496.2 86.9s34-17 40.5-16.2 9.7 8.9 5.7 15.4c5.7 2.4 8.9 10.5 4.9 17.8 4.9 1.6 7.3 9.7 4.9 13.8 5.7 3.2 5.7 10.5 1.6 14.6 4 4.9 4 11.3.8 14.6 3.2 4.9 4 10.5-.8 13.8s-41.3 4.9-41.3 4.9l-16.3-78.7z"/><path class="st3" d="m511.5 154.7 43-7.8M507.1 141.9l46.6-9.6M506 129.2l46.1-11.5M502.4 117.2l46.2-14.7M501.2 102.3l41.1-16.2M503 109.7 544.9 94M498.2 94.6l43.1-17.7M504.2 124.1l45-13.9M507.9 135.3l46.8-11M511.1 148l43.6-9.1M512.7 161.4l42.6-7.3"/><path class="st7" d="m444.3 109.6 10.6 55.1h38.7l-16.8-73.5z"/><path class="st0" d="m498.6 78.8-21.8 12.4 16.8 73.5h22z"/><path class="st6" d="M527.8 257c14.6-8.9 31-1 29.4 16.8s-27.7 18-33.4 12.4c-5.8-5.7-10.6-20.3 4-29.2z"/><circle class="st3" cx="531.2" cy="270.2" r="5.3"/><path class="st3" d="m539.9 258.9 8.9-1.9M542.3 264.3l10.6-.8M542.3 270.8l13-.8M541.5 276.5l12.8.8M539.1 283.8l9.7.8"/><path class="st6" d="M530.9 177c13.5-10.4 30.7-4.4 31 13.5.3 17.9-25.6 20.9-31.9 15.9-6.2-5-12.6-19 .9-29.4z"/><circle class="st3" cx="535.8" cy="189.7" r="5.3"/><path class="st3" d="m543 177.3 8.6-3.4M546.2 182.3l10.4-2M547.3 188.7l12.8-1.8M546.7 194.8l12.8-.5M545.2 201.5l10.2.6"/><path class="st6" d="M578 382.6s1.6-15.4-3.2-20.2c-4.9-4.9-10.5-5.7-13-.8-.8-5.7-8.9-8.1-13.8-2.4-1.6-4.9-8.1-9.7-12.1-4.9-.8-4.9-4.9-11.3-8.9-10.5 4.9-8.1 1.6-17-4-20.2 5.7-4.9 6.5-16.2-.8-20.2 4.9-3.2 8.9-12.1 1.6-17 6.5 0 11.3-13.8 4.9-18.6 4.9-2.4 7.3-14.6 0-18.6 6.5-.8 10.5-14.6 2.4-19.4 4-1.6 8.9-16.2-1.6-21.9 2.4-1.6 8.9-13.8-2.4-21.1 3.2-3.2 4-13.8-7.3-16.2-1.6-10.5-18.6-19.4-25.9-14.6-1.6-8.1-11.3-10.5-17.8-6.5s-60.7-19.4-61.6-24.3c-.8-4.9-9.7-8.1-14.6-2.4-1.6-5.7-8.5-8.5-13.4-2-4-6.5-14.2-7.7-17.4-2.8-4.9-5.7-16.2-5.7-18.6-2.4-2.4 3.2-12.1 53.5-12.1 53.5L514 390l64-7.4z"/><circle cx="361.7" cy="127.4" r="4.9"/><circle cx="377.9" cy="129.9" r="4.9"/><circle cx="393.3" cy="132.3" r="4.9"/><circle cx="407.9" cy="133.1" r="4.9"/><circle cx="482.4" cy="158.2" r="4.9"/><circle cx="502.6" cy="165.5" r="4.9"/><circle cx="516.4" cy="180.1" r="4.9"/><circle cx="519.7" cy="197.9" r="4.9"/><circle cx="520.5" cy="217.3" r="4.9"/><circle cx="521.3" cy="237.6" r="4.9"/><circle cx="518.8" cy="257.8" r="4.9"/><circle cx="518" cy="275.7" r="4.9"/><circle cx="515.6" cy="293.5" r="4.9"/><circle cx="516.4" cy="312.9" r="4.9"/><circle cx="518.8" cy="334" r="4.9"/><circle cx="522.9" cy="351" r="4.9"/><circle cx="539.1" cy="363.1" r="4.9"/><circle cx="553.7" cy="367.2" r="4.9"/><circle cx="568.3" cy="368.8" r="4.9"/><path class="st14" d="M323.7 150.9s-8.9 54.3-25.1 74.5-42.9 21.1-52.6.8-9.7-33.2-9.7-33.2l11.3-.8s6.5 16.2 11.3 21.1c4.9 4.9 16.6 7.1 24.7-5.1 11.7-17.7 19.8-69.5 39.3-71.9 19.4-2.4.8 14.6.8 14.6z"/><path class="st3" d="M324.5 142.8c-12.1 1.6-25.6 70.2-37.9 79-9.8 7-26.9 9.3-33.4-2.8-6.5-12.1-11.3-25.1-11.3-25.1"/><path class="st1" d="M309.6 189.4c-5.8 18.2-11 36-11 36l6 8.6 11.8-43.3c-2.8-.5-5-1-6.8-1.3zM390.2 206.9l-55.1 202.9c1.5 1 3.2 1.6 5.2 2l55.3-203.6c-1.8-.4-3.6-.8-5.4-1.3zM334.5 194.6l-45.8 168.6c2.3 1.3 4.2 2.1 5.6 2.8l46.2-170.1c-2-.5-4-.9-6-1.3zM425.1 215.1l-49.8 183.6c2.7-1.4 5.6-2.9 8.5-4.5L432 216.8c-2.1-.5-4.4-1.1-6.9-1.7zM322.2 192 309 240.6l4.1 5.9-26.9 90.9s-9.2 13.6-2.7 21.9l45.1-166c-2.2-.5-4.4-.9-6.4-1.3zM358.2 199.8l-50.1 184.5c1.1.8 2.2 1.4 3.4 1.9l50.4-185.6c-1.3-.3-2.5-.6-3.7-.8zM412.9 212.2l-52.7 194.2c2.2-1.1 4.8-2.5 7.7-3.9l51.2-188.8c-1.9-.5-4-1-6.2-1.5zM441.7 252.4 406.5 382c2.7-1.4 5.2-2.8 7.7-4.2l26.2-96.6c.5-9.9.9-19.7 1.3-28.8zM367.8 201.9l-50.4 185.8c2.1.3 4 .5 5.4 1l50.4-185.6c-1.9-.4-3.6-.8-5.4-1.2zM379.1 204.4l-51.4 189.4c1.2 2.8 2 6.1 3 9.2l53.6-197.4c-1.8-.4-3.5-.8-5.2-1.2zM438.9 309.9l-17.3 63.8c6.6-3.7 11.2-6.5 12.2-7.4 1.6-1.4 3.5-26.6 5.1-56.4zM401.5 209.6 346.6 412c2-.3 4.2-.9 6.2-1.8 0 0 .1 0 .2-.1l54-199.3c-1.8-.4-3.6-.8-5.5-1.2zM346.4 197.2 299.8 369c.5.8 1.1 1.9 2 3.9.4 2.1 1 3.9 1.6 5.4l48.8-179.8c-1.9-.5-3.8-.9-5.8-1.3zM443.1 219.7c-.9-.3-2.7-.8-5.3-1.5l-46.7 172.1c2.7-1.4 5.4-2.9 8.1-4.3l43.7-161c.1-1.9.1-3.7.2-5.3z"/><path class="st12" d="m431.9 190-5.9-1.6-6.9 25.3c2.1.5 4 1 5.9 1.4l6.9-25.1z"/><path class="st12" d="m419.1 213.7-51.2 188.8c2.3-1.2 4.8-2.5 7.3-3.8L425 215.1c-1.8-.5-3.8-.9-5.9-1.4zM444.8 192.4l-5.9-1.6-7 25.9c2.2.5 4.2 1.1 5.9 1.5l7-25.8z"/><path class="st12" d="m431.9 216.8-48.2 177.4c2.4-1.3 4.9-2.6 7.4-3.9l46.7-172.1c-1.6-.4-3.6-.9-5.9-1.4zM457.8 193.2l-5.9-1.6-9.1 33.3c-.3 7.4-.7 16.9-1.2 27.4l16.2-59.1z"/><path class="st12" d="m442.9 225-43.7 161c2.5-1.3 5-2.7 7.4-4l35.2-129.6c.4-10.5.8-20 1.1-27.4zM469.9 195.7l-5.9-1.6-23.7 87.2c-.5 9.6-1 19.4-1.5 28.7l31.1-114.3z"/><path class="st12" d="m440.4 281.3-26.2 96.6c2.7-1.5 5.1-2.8 7.4-4.1l17.3-63.8c.6-9.4 1-19.1 1.5-28.7zM418.1 193.2l-5.9-1.6-5.2 19.2c2 .5 4 .9 5.9 1.4l5.2-19z"/><path class="st12" d="M407 210.8 353 410c1.4-.6 3.9-1.9 7.3-3.6L413 212.2c-2-.4-3.9-.9-6-1.4zM406 193.2l-5.9-1.6-4.5 16.5c2 .5 4 .9 5.9 1.4l4.5-16.3z"/><path class="st12" d="m395.6 208.2-55.3 203.6c1.9.3 4.1.4 6.3.1l54.9-202.4c-1.9-.4-3.9-.8-5.9-1.3zM395.4 187.6l-5.9-1.6-5.3 19.6c2 .4 4 .9 5.9 1.4l5.3-19.4z"/><path class="st12" d="M384.2 205.6 330.7 403c.3 1.1.7 2.1 1.1 3 .6 1.5 1.8 2.8 3.3 3.8L390.2 207c-2-.5-4-1-6-1.4zM384.1 185.9l-5.9-1.6-5.1 18.7c2 .4 3.9.9 5.9 1.3l5.1-18.4zM373.1 203.1l-50.4 185.6c.3.1.6.2.9.4 1.8.9 3 2.7 4 4.8L379 204.5c-1.9-.5-3.9-1-5.9-1.4zM372.8 183.5l-5.9-1.6-5.1 18.6c2 .4 3.9.9 5.9 1.3l5.1-18.3zM361.8 200.6l-50.4 185.6c2 .8 4 1.2 5.9 1.5l50.4-185.8c-1.9-.5-3.9-.9-5.9-1.3zM363 181.9l-5.9-1.6-4.9 18.1c2 .4 3.9.9 5.9 1.3l4.9-17.8z"/><path class="st12" d="m352.2 198.4-48.8 179.8c1.2 2.7 2.9 4.7 4.7 6l50.1-184.5c-2-.4-4-.8-6-1.3zM351.7 177.8l-5.9-1.6-5.3 19.6c1.9.4 3.9.9 5.9 1.3l5.3-19.3zM340.5 195.9 294.3 366c3.4 1.5 4.5 1.7 5.5 3l46.6-171.8c-2-.5-4-.9-5.9-1.3zM339.7 175.4l-5.9-1.6-5.3 19.5c1.9.4 3.9.8 6 1.3l5.2-19.2z"/><path class="st12" d="m328.6 193.3-45.1 166c.9 1.1 2.1 2.2 3.7 3 .5.3 1.1.6 1.6.9l45.8-168.6c-2.1-.5-4.1-.9-6-1.3zM327.6 172.2l-5.9-1.6-5.5 20.1c1.8.4 3.8.8 6 1.2l5.4-19.7z"/><path class="st12" d="M316.3 190.7 304.5 234l4.5 6.5 13.2-48.6c-2.1-.4-4.1-.8-5.9-1.2z"/><path class="st3" d="M298.5 225.4s5.3-17.8 11-36c23.8 4.5 124.2 27.1 133.5 30.3-1.4 35.6-5.9 143.4-9.3 146.6-4 3.8-72.1 39.7-81 43.7-8.9 4-18.6 1.6-21.1-4s-3.2-14.6-8.1-17c-4.9-2.4-18.6.8-21.9-16.2-3.2-7.3-1.6-3.2-14.6-10.5s-1-24.9-1-24.9l26.9-90.9-14.4-21.1z"/><path class="st6" d="M313.7 325.7c3.5-3.7 6.6-8.2 9.1-13.5 0 0 51 2.4 52.6 5.7 1.6 3.2.8 13.8-2.4 15.4s-52.6-5.8-59.3-7.6zM287.2 362.3c-4 2.4-2.4 6.5 0 10.5 25.1-4 56.3-4.3 57.1-6.7s-4.9-9.1-8.9-9.9-44.1 3.7-48.2 6.1z"/><path class="st3" d="m306.6 370.4-.8-9.7M324.5 368l-.8-8.9M337.4 329.1l1.6-15.4M346.3 330.7l1.6-17"/><path class="st6" d="M270.2 313.3s-54.3-7.7-58.3-6.9c-4 .8-6.3 12.1-4.7 15.4 1.6 3.2 65.4 8.1 65.4 8.1l-2.4-16.6z"/><path class="st3" d="m234.6 325.1 1.6-16.2M243.5 327.5l1.6-16.2"/><path class="st6" d="M129.3 321 75 340.5 99.3 436l45.4-21.8-3.3-65.6z"/><circle class="st4" cx="361.1" cy="428.3" r="15.8"/><path class="st3" d="m624.9 527.6 16.2-1.7M570.7 500.8l16.2-1.6"/><path class="st0" d="M683.6 340.4c-.7.6-1.1.9-1.1.9h-9.7l-51 21.9.8 17s.8.8 5.7 8.1 24.3 15.4 65.6 8.1c.1 0 .3-.1.4-.1 1.4-12 2.3-36.3-10.7-55.9z"/><path class="st6" d="M799.1 366.4c-1.6-3.2-63.2 2.4-63.2 2.4s53.5-17.8 54.3-22.7 1.4-15-1.8-15-58.1 18.4-58.1 18.4 45.4-28.6 48.6-31c3.2-2.4 3-13.6-.2-14.4s-62.2 30.6-62.2 30.6 54.3-44.5 55.9-47.8-2.8-13.2-6.9-11.5c-3.8 1.5-72.3 57.1-81.9 64.9 13.1 19.6 12.2 43.9 10.7 55.9 51.7-11.3 101.6-11.3 104.8-14.5s1.6-12.1 0-15.3z"/><path class="st3" d="M675.5 360c11.5-4.9 40.9-25.2 40.9-25.2M730.2 349.6c-12.2 8-52.9 26.3-56.5 23.8"/><path class="st7" d="M403 824.8c-1.6 13 10.5 18.6 20.2 3.2 2.4 19.4 18.6 17.8 25.1 4 1.6 13.8 16.2 14.6 21.1 2.4 4 13.8 17.8 12.1 20.2.8L403 824.8z"/><path class="st3" d="M209.3 628.2c-.3-2.6-.7-4.3-.7-4.3s.2 1.8.7 4.3zM184.7 630.7c-.2-2.6-.4-4.3-.4-4.3s.1 1.7.4 4.3z"/><path class="st7" d="M295.3 261.9s-30 42.1-29.2 61.6c.8 11.3 4 13.2 19.4 14 15.4.8 29.2-8.3 37.3-25.3 12.1 4.9 45.4 7.7 55.1 5.3 9.7-2.4 19.4-23.9 21.1-36.9 1.6-13-11.3-36.4-20.2-45.4-8.9-8.9-80.2-9.7-80.2-9.7s-1.6 11.3-2.4 14.6c-.8 3.2-5.7 7.3-5.7 10.5-.1 3.2 4.8 11.3 4.8 11.3z"/><path class="st3" d="M306.6 308.9c4.9-6.5 17-2.4 16.2 3.2"/><path class="st1" d="M350.8 242.7c-11.4 0-20.7 9.3-20.7 20.7 0 10.5 7.9 19.2 18 20.5l18.4-33.8c-3.7-4.6-9.4-7.4-15.7-7.4z"/><path class="st12" d="m366.6 250-18.4 33.8c.9.1 1.7.2 2.6.2 11.4 0 20.7-9.3 20.7-20.7-.1-5.1-1.9-9.7-4.9-13.3z"/><circle class="st6" cx="350.8" cy="263.7" r="10.5"/><circle cx="350.8" cy="263.7" r="3.8" style="stroke:#000;stroke-width:1.2149"/><circle class="st3" cx="350.8" cy="263.3" r="20.7"/><path class="st14" d="m249.9 155-5.6-77-17.8 1.7 8.1 76.1"/><path class="st3" d="m241.8 156.6-6.4-77.8"/><path class="st0" d="M236.2 193c4.9 3.2 10.1 1.6 11.7-.8 6.1-4 1.2-11.3 1.2-11.3s4.9-7.3 0-12.1c3.2-4 4-11.3.8-13.8-3.2-2.4-11.3-2.4-15.4.8-4 3.2-2.4 9.7.8 13-3.2 3.2-4 7.3.8 10.5-3.2 3.2-4.7 10.6.1 13.7z"/><path class="st0" d="M236.2 179.3c4 4.9 13 1.6 13 1.6M235.4 168.8c4 4.9 13.8 0 13.8 0"/><path class="st1" d="M452 124.3c-17.9-10.3-33.4-3.3-40.3 1.1-1.6 10.8 3.5 24.7 15.7 31.1 12.8 6.7 31.8 9 42.5 1.1.8-7.3 0-22.9-17.9-33.3z"/><path d="M463 111.2c-19.4-13.8-42.1-4-48.6 6.5-1.4 2.2-2.3 4.9-2.7 7.7 6.9-4.4 22.4-11.5 40.3-1.1 18 10.3 18.7 26 17.8 33.4 2.1-1.6 3.9-3.6 5.3-6 8.1-14.5 7.3-26.7-12.1-40.5z" style="fill:#333"/><path class="st3" d="M414.4 117.7c-6.5 10.5-2.4 30.8 13 38.9 15.4 8.1 39.7 9.7 47.8-4.9 8.1-14.6 7.3-26.7-12.1-40.5s-42.3-4-48.7 6.5z"/><path class="st3" d="M416 141.8s17-16 26.7-7.1-1.6 25.9-1.6 25.9"/><path class="st3" d="M419.2 148.5s11.3-11.3 17-6.5c5.7 4.9-1.6 17-1.6 17M418.4 123.4l5.7-14.6M425.7 123.4l7.3-17.8M434.8 121.8l7.3-15.4M442.1 122l9.5-15.6M448.4 126.6l11.3-16M454 131.5l11.8-15M458.1 138.2l14.8-15.2M461.7 144.5l16.2-13.4M464.8 151.1l11.9-7.5"/><path class="st8" d="M582.6 483.8c-.8 4-5.7 6.1-8.9 2.8-.5-.5-1.1-1.3-1.8-2.3-.5 2.7-1.3 40-.5 45.7s9.7 4 10.5-1.6-4.6-39-2.6-39.9c2-.9 24.5 29.4 29.4 32.6s6.5-3.2 4.9-7.3c-1.6-4.1-30.2-34-31-30z"/><path class="st6" d="m135.7 310.5-12.1 6.5 7.3 93.9h30.8L147.9 304z"/><path class="st3" d="m125.2 338.8 21.1 12.2M127.6 348.6l24.3 12.9M129.3 377.7l25.1 13M130.9 388.2l22.7 11.4"/><path class="st14" d="M211.1 427.9 207 308.1l-67.2.8 8.9 98.8z"/><path class="st3" d="m158.4 404.4-6.5-98.8M173 410.1l-5.7-103.7M190 416.6l-4.8-113.4"/><path class="st12" d="M211.3 178.5c-.8-4-6.7-3.2-8.3 0-1.6 3.2-2.4 102.1-2.4 102.1s-12.1-96.4-13.8-99.6-10.5-3.2-11.3 0 1.6 95.6-.8 102.9c-2.4-8.1-10.5-101.2-12.1-103.7s-9.7-2.2-10.5.2 3.2 81.6 3.2 102.7c-7.3-13.8-22.7-94.8-24.3-97.2-1.6-2.4-8.9-4.9-10.5-.8-1.2 2.9 3.4 67 6.2 103.9l93.6-6c-3.3-38.3-8.5-101.7-9-104.5z"/><path class="st1" d="M126.5 288.9c1.1 15.1 1.9 25.7 1.9 25.7l94-3.2s-1-11.8-2.3-28.4l-93.6 5.9z"/><path class="st18" d="m134.3 297.5-.6-13.4M140.9 297.5l-.6-13.4M149 296.9l-.6-13.4M158.5 295.6l-.5-13.3M164.7 295.6l-.6-13.3M172.1 295l-.5-13.3M182.8 293.8l-.5-13.3M189 293.8l-.6-13.3M196.4 293.2l-.5-13.3M204.7 293.2l-.6-13.3M210.8 293.2l-.5-13.3M218.3 292.6l-.6-13.4"/><path class="st3" d="m128.5 314.5 94-3.2s-10.3-128.8-11.1-132.8c-.8-4-6.7-3.2-8.3 0-1.6 3.2-2.4 102.1-2.4 102.1s-12.1-96.4-13.8-99.6-10.5-3.2-11.3 0 1.6 95.6-.8 102.9c-2.4-8.1-10.5-101.2-12.1-103.7s-9.7-2.2-10.5.2 3.2 81.6 3.2 102.7c-7.3-13.8-22.7-94.8-24.3-97.2-1.6-2.4-8.9-4.9-10.5-.8-1.9 3.9 7.9 129.4 7.9 129.4z"/><circle class="st14" cx="257" cy="506.5" r="11.3"/><circle class="st14" cx="258" cy="447.4" r="11.3"/><path class="st14" d="m215.9 509.7 34 7.3-2.4-72.9-28.3 7.3z"/><path class="st13" d="M204.6 570.5c2.4 4.9 16.2 5.7 17 .8s-3.2-54.3-3.2-54.3l-26.7 7.3c-.1 0 10.5 41.3 12.9 46.2zM129.3 537.3s-1.6 22.7 13 26.7c10.4 2.9 36 5.4 51 6.3v-34.7l-64 1.7z"/><path class="st6" d="M205.4 560.8c4-4.9-.8-8.9-.8-8.9s4-2.4 0-6.5c4.9-6.5-5.9-9.9-5.9-9.9l-5.5.1v34.7c6.1.4 10.4.5 11.3.2 3.3-.8 4.1-6.5.9-9.7z"/><path class="st3" d="m184.7 545.5 19.9-.1M184.7 552.6l19.9-.7M185.3 560.5l20.1.3"/><ellipse class="st7" cx="158.4" cy="475.7" rx="72.9" ry="71.3"/><path class="st3" d="m85.5 478.1 145.8-10.5M88 486.2l140.9-8.1M99.3 433.6l114.2 86.7M220 513l-113.4-85.1M146.3 405.3l15.4 139.3M171.4 545.4l-13-141M206.2 422.3l-99.6 103.6M214.3 431.2l-100.4 99.6"/><circle class="st3" cx="180.3" cy="419.8" r="4.9"/><circle class="st3" cx="130.9" cy="421.5" r="4.9"/><circle class="st3" cx="99.3" cy="457.1" r="4.9"/><circle class="st3" cx="105.8" cy="502.4" r="4.9"/><circle class="st3" cx="138.2" cy="530.8" r="4.9"/><circle class="st3" cx="188.4" cy="526.7" r="4.9"/><circle class="st3" cx="218.4" cy="491.9" r="4.9"/><circle class="st3" cx="215.9" cy="456.3" r="4.9"/><ellipse class="st0" cx="158.4" cy="474.5" rx="50.1" ry="49"/><path class="st3" d="m133.3 516.4-5.1-80.3M140.4 520.1l-5.7-88.3M160.4 523.5l-9.7-96.8M169.4 521.1l-10.6-95.6M186.8 513l-8.1-82.2M193.9 508.1l-5.7-72.9"/><path class="st6" d="M112.4 494c2.1 4.7 4.9 8.9 8.2 12.7l81.1-7.6c2.6-4.4 4.6-9.3 5.7-14.5l-95 9.4zM199.9 447l-87.8 8.8c-1.6 3.8-2.7 7.9-3.3 12.1l96.3-11.4c-1.4-3.4-3.1-6.5-5.2-9.5zM752.7 155.9c-7.3 3-37.1 16.4-37.1 16.4l3.6 14.6 21.3-5.5s15.2-8.8 28.2-16.3l-6.6-11.3c-3.6.4-7 1.1-9.4 2.1z"/><path class="st9" d="M724.2 180.8s37.1-21.9 43.7-22.5"/><path class="st7" d="m762.1 153.8 6.6 11.3c4.8-2.8 9.2-5.4 12.5-7.4-3.2-3.6-11.7-4.6-19.1-3.9z"/><path class="st6" d="M724.2 180.8c-15.2 4.3-26.1 8.5-26.1 8.5l10.3 6.1s8.7-.5 20-1.1l-.9-14.3c-1.2.3-2.3.5-3.3.8zM749.9 181.3c-4.8-1.4-9.8-2.1-14.7-2l.3 14.7c4.9-.2 10-.5 14.9-.7l-.5-12z"/><path class="st9" d="m710.8 189.3 43.1-1.8"/><path class="st7" d="m727.4 180.1.9 14.3c2.3-.1 4.7-.2 7.1-.4l-.3-14.7c-2.6 0-5.1.3-7.7.8zM770.3 192.4c-5.7-5.1-12.9-8.9-20.5-11.1l.5 11.9c7.7-.3 14.9-.7 20-.8z"/><path class="st6" d="m704.7 146.2 31 22.5s12.1-8.4 24.4-17.6l-37.7-32.7-17.7 27.8zM780 134.9l-40.4-32.1-11.8 7h0l39 36.1c5.1-4 9.9-7.9 13.2-11z"/><path class="st9" d="m731.5 152.9 40-40.7M736.9 161.4l45-37.1M724.2 145l32.8-43.1"/><path class="st7" d="M784.9 128.6c0-6.1-3-9.7-7.3-9.7-1.2-8.5-9.1-10.9-14.6-9.7-1.2-9.7-11.5-13.4-11.5-13.4l-11.8 7 40.4 32.1c2.9-2.9 4.8-5.1 4.8-6.3zM727.8 109.8l-5.4 8.5 37.7 32.7c2.3-1.7 4.5-3.4 6.7-5.1l-39-36.1z"/><path class="st3" d="m729 148 34-38.9M733.9 158.3l43.7-39.4"/><path class="st6" d="M716.9 138.9s21.3 9.1 22.5 20.7-28.6 29.8-28.6 29.8l-27.9 10.9-3.6-33.4 37.6-28z"/><path class="st7" d="M707.7 140.1s19 10.9 20.2 17.6-22.7 24.9-22.7 24.9l-26.1 8.5-1.2-20.7 29.8-30.3z"/><path class="st3" d="M738.1 367.9c-37.1 14-76.5 24.3-90.5 9.7"/><circle class="st14" cx="622.5" cy="383.2" r="10.1"/><circle class="st14" cx="648.4" cy="371" r="8.3"/><circle class="st14" cx="668.7" cy="365.3" r="9.6"/><path class="st14" d="M347.1 144.5s150.6 37.7 155.5 48.2c4.9 10.5-1.8 39.9-5.1 53.7-3.2 13.8-5.5 44.7-5.5 44.7l-47 4-5.7-60.7v-34l-96.4-33.2-12.1-13.8 16.3-8.9z"/><circle class="st6" cx="472.7" cy="263.5" r="12.1"/><path class="st14" d="M488.1 382.6s10.5 14.6 39.7 14.6 70.5-1.6 77.8-.8c7.3.8 21.9 4 22.7 1.6.8-2.4-7.9-14.8-21.9-19.7-10.7-3.7-56.7 2.7-73.7-3.8s-38.9-29.2-38.9-29.2l-18.6 8.1 12.9 29.2z"/><path class="st3" d="M495.4 359.1s18.6 21.1 40.5 24.3c21.9 3.2 69.8-3.3 82.2 2.6"/><path class="st3" d="M490.5 370.4s16.2 22.3 64 19.8c26.9-.1 60.3-2.9 70.6 6.8"/><circle class="st6" cx="479.8" cy="379.5" r="15.4"/><circle class="st3" cx="479.8" cy="380.1" r="8.9"/><circle cx="479.8" cy="379.9" r="3.2"/><path class="st6" d="M459.7 353.3c-.2 4.2-.2 7.7 0 9.1.8 4.9 34.8 1.6 35.6-3.2.2-1.2.3-3.8.2-7l-35.8 1.1z"/><path class="st3" d="M467.8 362.3v-16.2M474.3 363.1l-.2-15.4M481.6 362.3v-12.9M488.9 360.7v-13"/><path class="st0" d="M494.5 327.5h-33.2s-1.2 15.2-1.7 25.8l35.9-1.2c0-9.6-1-24.6-1-24.6z"/><path class="st4" d="M339 159.8s13-8.1 13.8-18.6-8.1-47 2.4-50.2c10.5-3.2 6.5-10.5-6.5-4.9s-16.2 22.7-16.2 22.7l-5.7 51H339z"/><path class="st3" d="M352 88.6c-13.8 12.1-12.1 24.3-8.1 38.9 4 14.6-7.3 29.2-7.3 29.2"/><circle class="st6" cx="364.1" cy="79.7" r="16.3"/><path class="st14" d="M325.3 89.4c0 12.1 8.1 19.4 10.5 34.8s-2.4 31.6-2.4 31.6l-10.2-2.3s-2-18.8-6-30.9-4-25.1 4-34c4.1-7.3 4.1-11.4 4.1.8z"/><path class="st3" d="M328.5 154.2s1.6-22.7-2.4-30.8c-8.1-13-4.9-34.8-4.9-34.8"/><circle class="st6" cx="320.4" cy="73.3" r="16.3"/><path class="st3" d="m330.1 71.6.8-9.8M323.4 69.7 322 58.6M317.6 72.4l-4.5-12.2M312.3 74.8l-5.1-8.7M356 75.6l2.5-10.5M363.3 76l5.9-10.9M369.2 79.3l7.9-7.7M371.4 85.3l7.3-4"/><path class="st14" d="M306.9 198c139.9 26.6 172.3 42 172.3 42s2.1-4.8 4.6-11c-10.7-5.5-49.9-21.7-172.9-43.6-1.4 4.2-2.7 8.5-4 12.6z"/><path class="st0" d="M489.7 203.6c-3.2-5.7-167.1-51.2-167.9-49.5-2.6 5.8-6.8 18.3-11 31.3 123 21.9 162.2 38.1 172.9 43.6 3.7-9.4 8-22 6-25.4z"/><path class="st14" d="M426.3 440.1c-.5-3.9 1.2-26.9 1.3-58.3.2-65.4-5.2-162 17-211 7.7 2.2 15 4.5 21.8 6.7-15 18.9-14.1 134.1-13.7 206.5.2 30.7-.2 53.9-1.2 58.5-3.1 15.4-23.6 9.7-25.2-2.4z"/><path class="st3" d="M455.3 175.4c-11.3 40.5-15 107.5-15 107.5M437 349.4l-2.4 99.4M446 351l-2.5 99.6"/><circle class="st7" cx="479.4" cy="310.7" r="27.5"/><circle class="st3" cx="480" cy="310.6" r="17.1"/><circle class="st0" cx="480" cy="309.7" r="6.1"/><path class="st0" d="M424.1 347.7c4.9 4.9 28.8 10.1 33.6 6.9 4.9-3.2 1.2-14.2-3.6-18.2 4.9-1.6 8.1-12.1.8-17.8 5.7-8.1.8-14.6.8-14.6s5.7-3.2 2.4-13c-1.6-5.7-30-8.9-30-26-12.1 7.3-9.7 17-4 23.5-7.3 2.4-8.1 10.5-3.2 17-4 4.9-2.4 17 3.2 20.2-1.6 5-4.9 17.2 0 22z"/><path class="st3" d="M424.1 288.6c4 4.9 23.5 15.4 31.6 15.4M420.8 305.6c4 4.9 25.9 13 34 13M424.1 325.9c4 4.9 21.9 10.5 30 10.5M324.9 198.3l1.6-9.7M315.8 197.9l1.6-9.7M333.8 200.3l.8-8.9M341.5 202.8l1.6-10.6M349.6 202.8l.8-7.3M357.7 205.2l.8-7.3M365 206.8l.8-8.9M374.7 209.2l1.6-8.9M385.2 210.9l1.6-8.1M394.1 213.3l2.4-8.9M403 216.5l1.6-9.7M410.3 218.2l2.4-9.8M419.2 221.4l3.3-10.5"/><path class="st6" d="M595 339.6c-4.9 11.3-2.4 25.1 8.9 32.4 11.3 7.3 72.9-9.7 73.7-34.8-1.6-17-22.7-13-22.7-13s-55.1 4.1-59.9 15.4z"/><path class="st7" d="M607.5 339.4s-3 11.5 4.3 14.6 43.7-11.5 43.7-18.8-13.4-12.2-13.4-12.2l-34.6 16.4z"/><path class="st3" d="m595.4 355.2 4.8-4.3M602 357.6l-3.6 6.1M606.9 361.9l-1.2 8.5M613 363.7l.6 7.9M621.7 363.1l1.6 7.9M631.2 360.6l2.4 7.9M638.9 358.2l3.8 6.1M647 355.2l4.2 5.4M652.5 350.9l7.3 6.1M661 347.3l4.8 3.6M666.4 341.2l7.9 1.8M666.4 335.1l8.5-1.2M661.6 330.3l6-3.7"/><path class="st7" d="M591.7 277.3s-34.8 42.1-34.8 47c0 4.9 7.3 11.3 13 10.5S599 304 599 304l-7.3-26.7z"/><path class="st3" d="m560.2 329.1 35.6-46.1"/><path class="st6" d="M647.4 306.6c-1.4-.1-6.9 1.1-13.8 2.9-5.4 5.9-24.8 12.3-35.6 10.1-2.9 1-4.9 1.8-5.5 2.2-3.2 2.4-8.1 13 0 19.4 8.1 6.5 55.1-2.4 62.4-17 4.9-8.9-2.8-17.4-7.5-17.6z"/><path class="st7" d="M694.4 171.1s53.5-65 59.5-79-13.4-31-22.5-32.2c-9.1-1.2-24.9 9.7-21.9 17.6 3 7.9 12.8 5.5 14.6 9.7 1.8 4.3-43.1 69.2-43.1 69.2L665.2 179l29.2-7.9z"/><path class="st3" d="M713.8 82.4c-.6-6.7 7.9-14.6 15.8-8.5 15.8 12.1-48.4 94-48.4 94"/><circle class="st3" cx="717.5" cy="128" r="4.3"/><circle class="st3" cx="696.2" cy="155.9" r="4.3"/><circle class="st3" cx="572.9" cy="323" r="4.3"/><circle class="st3" cx="738.1" cy="98.8" r="4.3"/><circle class="st3" cx="736.3" cy="68.4" r="4.3"/><path class="st3" d="M732.7 79.4h20.6M732.1 86.1l21.8 1.2M725.4 103.7l14.6 7.9M721.1 111.6l11 7.3M704.1 135.9l9.7 6.7M699.8 144.4l8.5 6"/><path class="st14" d="M701.9 220.6c-12.1-43.7-45.4-56.7-45.4-56.7s8.9-17.8 13.8-15.4c4.9 2.4-6.5 21.9-6.5 21.9s16.2-21.1 21.9-17.8-13 25.1-13 25.1 23.5-20.2 26.7-14.6c3.2 5.7-17.8 24.3-17.8 24.3s24.3-13 27.5-8.1c3.2 4.9-20.2 19.4-20.2 19.4s23.5-11.3 26.7-5.7c3.2 5.7-21.9 14.6-21.9 14.6s28.1-4.9 29.8 0c1.7 4.9-21.6 13-21.6 13z"/><path class="st0" d="m638.9 193.9 17.6-30s33.2 13 45.4 56.7c-9.7 4-34.8 9.7-34.8 9.7l-28.2-36.4z"/><path class="st6" d="M624.1 210.1c-3.2-7.3 4-21.1 18.6-22.7s37.3 13.8 30 39.7c-3.2 7.3-17 13.8-24.3 13s-21-22.8-24.3-30z"/><path class="st3" d="M638.7 205.2c-3.9-8 13.1-11.6 20.4-3.7s3 23.1-5.5 20"/><path class="st13" d="M633.6 309.5c-5.4 5.9-24.8 12.3-35.6 10.1 0 0-12.8-40.7-9.5-58.6 3.2-17.8 27.5-51 34.8-53.5 4 0 3 9.7 3 9.7s9.1-10.5 12.4-12.1 7.3.8 8.1 4c3.2-2.4 8.1-.8 9.7 4 1.6 4.9-5.7 9.7-7.3 13.8-1.6 4 6.1 21.9 1.2 34.8-6.1 19.4-28.8 23.5-27.9 28.3s11.1 19.5 11.1 19.5z"/><path class="st7" d="M633.6 309.5c-5.4 5.9-24.8 12.3-35.6 10.1 0 0 3.4 9.4 12.5 10.6s31.6-7.9 31.6-14c0-6-8.5-6.7-8.5-6.7z"/><path class="st6" d="M626.4 217.3s9.1-10.5 12.4-12.1 7.3.8 8.1 4c3.2-2.4 8.1-.8 9.7 4 1.6 4.9-5.7 9.7-7.3 13.8l-22.9-9.7z"/><path class="st3" d="M646.8 209.2s-12.1 17-13 22.7M588.5 261.1c3.2-17.8 27.5-51 34.8-53.5 4 0 3 9.7 3 9.7l-22.5 36.4"/><path class="st6" d="M610.6 220.1c5.3-6.7 10.1-11.6 12.8-12.5 4 0 3 9.7 3 9.7l-6.1 9.8-9.7-7z"/><path class="st3" d="m589.3 337 5.5-7.3M601 340.6v-5.5M613.6 340.6l-.6-6.1M623.3 339.4l-.6-6.1M632.4 335.7l-1.2-4.8M642.7 332.1l-2.4-3.6M647.6 324.2l4.3 1.2M656.1 316.9l-6.1.6M652.5 310.8l-4.9 1.2M575.9 310.2l8.5 7.9M590.5 313.3l-9.1-8.5"/></svg>