<svg version="1.1" id="Calque_1" xmlns="http://www.w3.org/2000/svg" x="0" y="0" viewBox="0 0 900 900" style="enable-background:new 0 0 900 900" xml:space="preserve"><style>.st0,.st1,.st2{fill:#fff;stroke:#000;stroke-width:4.8658;stroke-linecap:round;stroke-linejoin:round;stroke-miterlimit:10}.st1,.st2{fill:#ffce00}.st2{fill:#0068ff}.st3{fill:#fff}.st4{fill:red}.st5{fill:none;stroke:#000;stroke-miterlimit:10}.st5,.st6,.st7{stroke-width:4.8658;stroke-linecap:round;stroke-linejoin:round}.st6{fill:red;stroke:#000;stroke-miterlimit:10}.st7{fill:#3f3f3f}.st7,.st8,.st9{stroke:#000;stroke-miterlimit:10}.st8{stroke-width:4.8658;stroke-linecap:round;stroke-linejoin:round}.st9{fill:none;stroke-width:6.4878}.st10{fill:#ffce00}.st11{fill:#757576;stroke:#000;stroke-width:4.8658;stroke-linecap:round;stroke-linejoin:round;stroke-miterlimit:10}</style><g id="XMLID_386_"><g id="XMLID_382_"><g id="XMLID_116_"><path id="XMLID_117_" class="st0" d="m611.7 108-58.5 14.9c3.5 4.9 7.1 10.2 10.5 15.8l51.3-12.6c-1.3-6.2-2.4-12.3-3.3-18.1z"/><path id="XMLID_118_" class="st1" d="M608.3 76.1s-72.2 21.5-73.4 23c0 0 8.6 10.1 18.4 23.9l58.5-14.9c-2.8-18.1-3.5-32-3.5-32z"/><path id="XMLID_119_" class="st2" d="m615 126.1-51.3 12.6c4.6 7.5 8.8 15.2 11.9 22.7l45.9-10.8c-2.6-7.9-4.8-16.2-6.5-24.5z"/><path id="XMLID_120_" class="st0" d="m649 200.9-65.3 14.9c.1 4.4.1 8.7 0 12.7l72.7-17.1c-2.4-3.3-4.9-6.8-7.4-10.5z"/><path id="XMLID_121_" class="st1" d="M583.7 228.5c-.2 14.5-.9 25.3-.9 25.3l88.4-23.1s-6.4-7.7-14.8-19.2l-72.7 17z"/><path id="XMLID_122_" class="st2" d="M637.1 182.4 582.7 196c.5 6.6.8 13.3.9 19.8l65.3-14.9c-3.9-5.8-7.9-12-11.8-18.5z"/><path id="XMLID_123_" class="st1" d="M626.6 162.9c-1.8-3.9-3.5-8-5-12.4l-45.9 10.8c1.8 4.4 3.3 8.6 4.1 12.6 1.4 6.6 2.4 14.2 3 21.9l54.3-13.6c-3.8-6.2-7.5-12.8-10.5-19.3z"/></g><circle id="XMLID_109_" class="st3" cx="632.1" cy="229.4" r="13.8"/><path id="XMLID_110_" class="st4" d="M618.7 232.9c-1.9-7.4 2.4-14.9 9.8-16.8 7.4-1.9 14.9 2.4 16.8 9.8l-26.6 7z"/><path id="XMLID_115_" class="st0" d="M615.8 123.4c-17.1 2.2-27.4 23.3-19.7 49.1 7.7 25.8 21.6 37 38 31.8 16.4-5.2 16.9-23.4 13.4-44.5-3.5-21.1-14.6-38.6-31.7-36.4z"/><g id="XMLID_128_"><path id="XMLID_129_" class="st1" d="M817.5 179.5c-5.2-2-37.8-11.1-74.9-20.4l-5.2 37.1c39.8 1.6 76.3 2.8 80.1 2.8 8.1.1 11.7-14.9 0-19.5z"/><path id="XMLID_130_" class="st0" d="M627 137.8c-25.4 4-16.5 48.6 5.1 52.3 6.3 1.1 23.8 2.3 45.8 3.4l2.3-48.7c-24.8-5.1-45.3-8.3-53.2-7z"/><path id="XMLID_131_" class="st1" d="m680.1 144.7-2.3 48.7c10.2.5 21.4 1.1 32.8 1.6l5.7-42.3c-12.4-2.8-24.7-5.6-36.2-8z"/><path id="XMLID_132_" class="st0" d="m716.3 152.8-5.7 42.3c8.8.4 17.8.8 26.7 1.2l5.2-37.1c-8.5-2.2-17.4-4.4-26.2-6.4z"/></g><g id="XMLID_381_"><circle id="XMLID_114_" class="st3" cx="584.1" cy="105.9" r="13.8"/><path id="XMLID_112_" class="st4" d="M597.5 102.4c1.9 7.4-2.4 14.9-9.8 16.8s-14.9-2.4-16.8-9.8l26.6-7z"/><g id="XMLID_383_"><circle id="XMLID_384_" class="st5" cx="632.1" cy="229.4" r="13.8"/><circle id="XMLID_385_" class="st5" cx="584.1" cy="105.9" r="13.8"/></g><circle id="XMLID_111_" class="st0" cx="632.1" cy="229.4" r="5.7"/><circle id="XMLID_113_" class="st0" cx="584.1" cy="105.9" r="5.7"/></g></g><g id="XMLID_380_"><path id="XMLID_100_" class="st6" d="M225.2 115s10.8-10.1 22.8-10.9c12-.8 22.2 3.5 22.2 3.5l34.4 107.6-52.7 6.7L225.2 115z"/><path id="XMLID_97_" class="st1" d="M229.8 218s-39.5-80.7-37.1-94.9 26.9-23.3 34.5-6.5 30.6 99.7 30.6 99.7l-28 1.7z"/><path id="XMLID_98_" class="st2" d="M289 211.5s-20.5-93.7-20.5-101.8 24.6-13.4 38.5-4.1 3.8 108.3 3.8 108.3l-21.8-2.4z"/><path id="XMLID_101_" class="st1" d="m376.8 160.9 2.4-52.5s28.6-2.3 41 8.3-20.4 50.7-20.4 50.7l-23-6.5z"/><path id="XMLID_102_" class="st1" d="M346 107.5c7.7-11.1 29.2-9 33.2-1.6 4.1 7.5-3.6 63.4-3.6 63.4L351 173s-12.7-54.4-5-65.5z"/><path id="XMLID_99_" class="st1" d="M319.3 104s24.2-11.1 29.5 0 7.3 77.6 7.3 77.6l-22.7 13.9-14.1-91.5z"/><path id="XMLID_103_" class="st5" d="m215.4 134.1 32.6 96.5"/><path id="XMLID_104_" class="st5" d="m251.5 127.6 22.7 99.4"/><path id="XMLID_105_" class="st5" d="m291.4 117.5 14.2 113.1"/><path id="XMLID_106_" class="st5" d="m336.6 112.6 2.6 94.4"/><path id="XMLID_107_" class="st5" d="m363.7 115-1.8 72.2"/><path id="XMLID_108_" class="st5" d="m397.3 117.5-3.6 42.3"/><g id="XMLID_378_"><path id="XMLID_87_" class="st0" d="M350.8 211.5c-4.5-31.6-34-133-36.9-135.8-2.9-2.8-14.7-1.6-14.2 5.3.5 6.8 3.2 42.2 2 67.3s-14.2 68.1-14.2 68.1 67.8 26.8 63.3-4.9z"/><path id="XMLID_88_" class="st5" d="M307 211.5c8.4-15 10.3-55.1 12.3-55.1s16.9 48.3 13.7 57.6c-3.3 9.3-34.4 12.6-26-2.5z"/></g></g><g id="XMLID_377_"><path id="XMLID_154_" class="st7" d="M532.1 506.4s93.5 82.7 107 92.8c13.5 10.1 33.2 7.6 43.8-5.3 10.5-12.8 59.2-91.2 59.2-91.2l-43.7-37.3s-44.7 52.8-48.7 52.3-77.4-75.2-77.4-75.2l-25.5-12-23.1 27.2 8.4 48.7z"/><path id="XMLID_157_" class="st8" d="M523.6 482.4S632.3 577.7 642.4 585c10.1 7.3 19.9 7.5 27.6 0 7.7-7.5 65.3-95.3 65.3-95.3l-25.5-23.5s-38.5 51-45.8 59.4c-7.3 8.4-17.5 6.8-27.6-3.2-10-10.1-85.3-85.4-85.3-85.4l-27.5 45.4z"/><g id="XMLID_149_"><g id="XMLID_161_"><path id="XMLID_162_" class="st0" d="m760.8 486.6-1.8 32.9c4.7 1.8 10.1 3.8 15.4 5.6l1.7-32-15.3-6.5z"/><path id="XMLID_163_" class="st0" d="m753.9 483.6-8.9 10.1s-2 15.1-.8 18.7c.4 1.2 6.6 4 14.9 7.1l1.8-32.9-7-3z"/><path id="XMLID_164_" class="st0" d="M802.5 516c-1.3-3.3-4.1-13.4-4.1-13.4l-9.9-4.2-1.1 31.1c8 2.6 14.2 4.5 15.1 4.5 2.9 0 1.3-14.7 0-18z"/><path id="XMLID_165_" class="st0" d="m776.1 493.1-1.7 32c4.5 1.6 9 3.1 13.1 4.4l1.1-31.1-12.5-5.3z"/></g><path id="XMLID_156_" class="st6" d="M751.8 495.7c-4.9 4.2-8.6 7-9.7 7-4.5 0-41.2-35.2-43.7-37.3-3.7-5.3 16-19.9 16-25.1s-7.8-8.9-7.3-13.4 6.2-7.7 10.9-8.5c-3.9-7.7 1.7-16.5 10.3-13-3.2-9.1 8.1-14.3 12.6-10.7 0-6.6 13.4-13 18.7-2 2-11 13.4-10.6 15.8-7.6 2.4 3 0 11.2 0 11.2s35.7.2 42.6 31.4-15.5 88.3-15.5 88.3l-50.7-20.3z"/><path id="XMLID_155_" class="st6" d="M698.4 465.4c2.5 2.1 39.3 37.3 43.7 37.3 4.5 0 47-41.5 49.5-48.3s-11.3-21.1-16.2-16.5-30.4 28-30.4 28"/><path id="XMLID_379_" class="st0" d="M784.8 440.4c-6.2 5-16.7 14.1-16.7 17.2 0 3.2 7.5 8.5 11.6 11.2 6.4-6.7 11.2-12.4 12-14.5 1.3-3.8-2.5-10-6.9-13.9z"/></g></g><g id="XMLID_371_"><path id="XMLID_203_" class="st7" d="M594.5 673.8c10.1 12.2 107 51.5 109.9 53.5 2.8 2 3.6 13.2 8.5 19.4 4.9 6.2 19.9 9.8 19.9 9.8s0 13 7.7 13.4c7.7.4 11.8-9.1 11.8-9.1s3.6 14 12.1 12 8.1-14.6 8.1-14.6 8.8 8.7 14.9 5.7c6.1-3.1 1.1-15.8 1.1-15.8s13.5 13.5 18 3.6c4.5-9.8-6.5-17.9-6.5-17.9s23.7-20.2 5.7-44.9C787.8 664.1 747 632 747 632l-34.5 38.1-72.2-43.1c0 .1-55.9 34.6-45.8 46.8z"/><path id="XMLID_206_" class="st6" d="M676.1 714.9c15.5 6.8 27.3 11.7 28.3 12.4 2.8 2 3.6 13.2 8.5 19.4 4.9 6.2 19.9 9.8 19.9 9.8s0 13 7.7 13.4c7.7.4 11.8-9.1 11.8-9.1s3.6 14 12.1 12 8.1-14.6 8.1-14.6 8.8 8.7 14.9 5.7c6.1-3.1 1.1-15.8 1.1-15.8s13.5 13.5 18 3.6c4.5-9.8-6.5-17.9-6.5-17.9s23.7-20.2 5.7-44.9C787.8 664.1 747 632 747 632l-34.5 38.1-36.4 44.8z"/><path id="XMLID_210_" class="st0" d="m747 632-34.5 38.1s16.6 16.2 21.9 8.9c5.3-7.3-13-18.7-13-18.7s15.4 13.4 20.7 6.8c5.3-6.6-11.4-16.4-11.4-16.4s14.6 11.9 19.5 6.8-10.5-16.5-10.5-16.5 12.6 11.1 17.8 6.9c5.3-4.3-10.5-15.9-10.5-15.9z"/><path id="XMLID_258_" class="st8" d="m599.2 668.4 89 41.9 24.3-32.4-78.8-31.3z"/><g id="XMLID_207_"><path id="XMLID_208_" class="st6" d="m676.1 714.9 36.4-44.8s65.8 32 68.2 35.1c2.4 3-4.1 16.6-17.1 15.2s-40.1-16.7-40.1-16.7"/><g id="XMLID_372_"><path id="XMLID_374_" class="st0" d="M780.7 705.2c-1-1.2-12.5-7.3-25.9-14.1-1.8 4.1-4.4 11.2-2.5 14.1 2 3.1 16.8 8.1 24.5 10.5 3.8-3.8 5.2-8.8 3.9-10.5z"/></g></g></g><g id="XMLID_370_"><path id="XMLID_188_" class="st0" d="M663.8 754.3c-10.4 9.7-36.2 29.8-84.8 47.4 10.6 12.9 19.3 22.6 22.4 23.8 10.1 4.1 80.3-40.5 80.3-48.3 0-2.1-7.3-11-17.9-22.9z"/><g id="XMLID_180_"><path id="XMLID_186_" class="st2" d="M663.8 754.3c-21-23.6-55-58.7-71.2-75.3 7 27.7 14.8 84.2 18.1 109.5 28.6-13.6 45.2-26.9 53.1-34.2z"/><path id="XMLID_190_" class="st2" d="m560 639.2-21.9 7.4-24.1 53.7 5.5 24.5s34.9 47 59.5 76.7l2.4-.9c1.9-36.8-15.9-132.8-21.4-161.4z"/><path id="XMLID_191_" class="st0" d="M592.6 679c-5.6-5.7-9.1-9.3-9.1-9.3l-17.8-32.4-5.7 1.9c5.5 28.6 23.2 124.5 21.4 161.5 10.9-4 20.7-8.2 29.3-12.3-3.3-25.2-11.1-81.7-18.1-109.4z"/></g><g id="XMLID_204_"><path id="XMLID_373_" class="st5" d="M616.4 803.3c-2.8-2.5-11.8 2.1-11.8 5.3 0 2.1 5 9.5 8.5 14.4 3.7-1.5 8-3.6 12.6-6-2.8-4.7-7.4-12-9.3-13.7z"/><path id="XMLID_375_" class="st5" d="M642.4 787.9c-3.2-2.2-10.6 3-11.2 6.7-.3 2.2 4 9.6 7.5 15.2 4.9-2.9 9.8-5.9 14.4-8.9-3.4-4.7-8.6-11.5-10.7-13z"/><path id="XMLID_376_" class="st5" d="M665.5 770.7c-3.6 0-10.9 4.8-10.1 8.1.5 2 5.8 8.8 9.9 13.8 4.2-3 7.9-5.9 10.7-8.3-3.3-5.3-8-13.6-10.5-13.6z"/></g></g><g id="XMLID_369_"><path id="XMLID_192_" class="st7" d="M287.6 624.7s13.2 24.4 54.6 49.1l-20.1 64.5s106.1 60 150.7 60 80.7-41.2 54.7-79.3c-26-38.1-86-79.8-86-79.8l-34.1-40.5-116.8 7.4-3 18.6z"/><path id="XMLID_194_" class="st8" d="M328.5 686.4s113.8 59.4 130.5 63.7c16.7 4.2 26.5-14.1 5.4-25.5-21.1-11.5-105.9-57.2-126.2-71.2-20.3-14-34.9-32.6-34.9-32.6s91-27.9 108.6-.9c17.5 27 104.1 87 108.9 110.5 4.7 23.5-5.1 53.7-49.6 55.6s-149.6-60.4-149.6-60.4l6.9-39.2z"/><path id="XMLID_193_" class="st5" d="M342.2 673.8c43.8 23.4 117.6 62.9 117.6 62.9"/></g><g id="XMLID_368_"><path id="XMLID_168_" class="st1" d="M274.2 580.1s-12 39.7-10.9 45.4 12.2 3.1 13.8-.8c1.1 4.1 12.7 6.9 13.8 1.6 1.4 5 14.1 4.7 15.4 0 2.7 3.7 13.2 4.1 15 0 2.8 5 13.4 3.2 13.8 0 .9 3.7 12.4 4.2 15-.8 1.4 4.5 11.8 3.2 12.9-.4 2.8 4.9 12.8 3.1 13.8-.5 1.9 4 13.5 3.6 14.5 0 2.3 5.3 13.1 3.3 14.3 0 4.7 5.3 19.5 0 19.5 0l34.8-35.1-13.7-67.3-37.3-85.4-45.1 5-89.6 138.3z"/><g id="XMLID_367_"><path id="XMLID_170_" class="st5" d="m405.4 614.7.2 10"/><path id="XMLID_171_" class="st5" d="M391.2 624.7v-10"/><path id="XMLID_178_" class="st5" d="m376.2 614.7.6 10"/><path id="XMLID_166_" class="st5" d="M362.9 625.1v-9.4"/><path id="XMLID_173_" class="st5" d="M350 615.7v9.8"/><path id="XMLID_174_" class="st5" d="M335 626.4v-9.6"/><path id="XMLID_175_" class="st5" d="m322.1 617.3-.9 9.1"/><path id="XMLID_176_" class="st5" d="M306.2 626.4V617"/><path id="XMLID_177_" class="st5" d="M290.8 617v9.4"/><path id="XMLID_169_" class="st5" d="m277 624.7 1.1-9"/></g></g><g id="XMLID_198_"><path id="XMLID_205_" class="st0" d="M589.7 673.8s8.9 18.5 15 17.6c6.1-1 16.2-7.2 14.2-12.4s-14.2-16.1-14.2-16.1l47.8-23.6s9.6 13.9 15.8 16.7c6.2 2.8 16.2-4.5 13.4-11.8-2.8-7.3-12.6-12.6-13.8-14.2-1.2-1.6-51.1 13-51.1 13l-27.1 30.8z"/><g id="XMLID_363_"><path id="XMLID_365_" class="st0" d="M391.4 700.1c-5.9 3.5-12.2 13.5-7.7 18.5 5.9 6.5 23.9 10.7 23.9 10.7l-9.3 31.4s-22-7.5-31.3-3c-9.2 4.5-9.3 19.1-6.3 23.5 3 4.5 20.5 7.2 20.5 7.2l15.4-7.2 16.2-27 1.4-42c-7.2-3.8-15-7.9-22.8-12.1z"/></g></g><g id="XMLID_361_"><g id="XMLID_359_"><path id="XMLID_360_" class="st1" d="m613.5 577.6-67.6 45.9s36.9 57.5 41.8 57.5c4.9 0 88.4-47.3 85.2-51-1.5-1.7-12.5-13.5-24-26-3.4-1-6.7-2.6-9.6-4.9-3.9-2.7-13.6-11-25.8-21.5z"/></g><g id="XMLID_358_"><g id="XMLID_362_"><path id="XMLID_366_" class="st1" d="m408.9 709.5-27.7 79 53.5 6.2 14.6-63.6c-9.3-5.1-24-12.9-40.4-21.6z"/></g><g id="XMLID_172_"><circle id="XMLID_201_" class="st9" cx="424" cy="741.8" r="8.1"/><circle id="XMLID_202_" class="st9" cx="415.9" cy="774.8" r="8.1"/><circle id="XMLID_209_" class="st9" cx="587.1" cy="645" r="8.1"/><circle id="XMLID_211_" class="st9" cx="627.8" cy="614.7" r="8.1"/></g><path id="XMLID_259_" class="st5" d="m590.9 665.6 6 10.9"/><path id="XMLID_260_" class="st5" d="m600.2 658.1 7.8 13"/><path id="XMLID_261_" class="st5" d="m613.7 653.2 6.8 9.8"/><path id="XMLID_262_" class="st5" d="m624.1 646.6 7.5 9.9"/><path id="XMLID_263_" class="st5" d="m635.9 640.8 7.6 9.7"/><path id="XMLID_264_" class="st5" d="m646 634.6 6.6 10.1"/><path id="XMLID_265_" class="st5" d="m654.9 629.9 7 9.3"/></g></g><g id="XMLID_181_"><path id="XMLID_182_" class="st1" d="M484 717.6c4.5 4.5 92.7 1.6 95.6-4.9 1.1-2.5-2.1-16-6.5-31.8l-93.4 2.3c.9 17.2 2.4 32.5 4.3 34.4z"/><path id="XMLID_183_" class="st6" d="M478.1 653.2c.4 9.1.8 19.9 1.5 30L573 681c-2.7-9.7-5.9-20.4-8.7-29.8l-86.2 2z"/><path id="XMLID_184_" class="st1" d="m555.5 623.1-55-7.4-23.1 15.9s.2 9.2.7 21.6l86.1-2.1c-4.7-15.6-8.7-28-8.7-28z"/></g><path id="XMLID_159_" class="st0" d="M444.6 544.6s8.6 39.7 1.5 45-16.5 6.6-22.7 15.8-6.1 35.1 6.1 38.8c12.2 3.6 21.9 2.8 28 0 6.1-2.8 6.9-10.5 6.9-10.5s10.7 5.7 19.6 4.9 16.5-7.3 16.5-7.3.3 8.1 8.1 9.3c7.8 1.2 11-8.5 11-8.5s-.4 10.1 8.1 9.3c8.5-.8 8.9-8.5 8.9-8.5s4.6 9.3 11.8 5.3 0-12.2 0-12.2 11.7 10.5 19.4-2.8c5.7 4.1 12.6 7.7 20.7 6.9 8.1-.8 17.8-10.1 19.9-19.9 2-9.7-2.4-16.6-7.7-25.5-5.3-8.9-18.2-8.7-18.2-8.7s11.5-5.7 11.2-14.8-13.6-14.6-19-13.4c-5.3 1.2-12.8 13.4-19.2 13.4S475 480.8 475 480.8l-41-11-6.1 13.8 16.7 61z"/><g id="XMLID_355_"><g id="XMLID_150_"><path id="XMLID_151_" class="st6" d="M479.8 589.9c2.3 5.3 81.1.9 81.9-4.1.2-1-.8-5.7-2.4-12.6l-81.9 4.3c1 6.6 1.9 11.3 2.4 12.4z"/><path id="XMLID_152_" class="st0" d="M475 561.1c.9 6.1 1.7 11.7 2.4 16.4l81.9-4.3c-1-4.5-2.4-9.9-3.8-15.9l-80.5 3.8z"/><path id="XMLID_153_" class="st1" d="m536.1 483.6-69.6 13.8s4.6 36.5 8.4 63.7l80.5-3.8c-7.5-30.3-19.3-73.7-19.3-73.7z"/></g><path id="XMLID_147_" class="st5" d="M507.4 592.2 488.5 497"/><path id="XMLID_148_" class="st5" d="m533.7 589.6-20.3-95.8"/></g><g id="XMLID_354_"><circle id="XMLID_266_" class="st1" cx="504" cy="514.6" r="13.8"/><circle id="XMLID_267_" class="st1" cx="555.5" cy="483.6" r="13.8"/></g><g id="XMLID_353_"><g id="XMLID_138_"><path id="XMLID_349_" class="st2" d="M553.2 426.3 510.6 399c6.2 10.5 19.2 37.8-.4 58.6-15.8 16.8-41.6 13.8-58.3 9.5 9.8 18 18.5 34.1 19.7 36 2.7 4.5 51.3 8.5 69.4-17.8 18.1-26.4 12.2-59 12.2-59z"/><path id="XMLID_352_" class="st2" d="M510.2 457.7c19.6-20.9 6.6-48.2.4-58.6l-12.9-8.3-.6 3.9s19.2 37.9-3.9 54.5c-16.2 11.6-40.9 1.2-54.3-6.1 4.2 7.7 8.7 16.1 13 24.1 16.6 4.3 42.5 7.3 58.3-9.5z"/></g><g id="XMLID_146_"><path id="XMLID_351_" class="st5" d="M493.1 449.2c23.1-16.5 3.9-54.5 3.9-54.5l.6-3.9-7.3-4.7-48.7-6.2-18.8 33.5s7.2 13.3 16 29.6c13.4 7.3 38.2 17.7 54.3 6.2z"/><g id="XMLID_144_"><path id="XMLID_145_" class="st4" d="M460.1 414.3c11.4-6.1 10.8-23.6 10.1-30.7l-28.6-3.6-17.2 30.7c8.8 3.5 25.4 9.1 35.7 3.6z"/><path id="XMLID_187_" class="st10" d="m497 394.7.6-3.9-7.3-4.7-20.1-2.5c.7 7.1 1.3 24.6-10.1 30.7-10.3 5.5-26.9-.1-35.6-3.7l-1.6 2.9s7.2 13.3 16 29.6c13.4 7.3 38.1 17.7 54.3 6.1 23.1-16.6 3.8-54.5 3.8-54.5z"/></g></g></g><g id="XMLID_185_"><g id="XMLID_345_"><path id="XMLID_347_" class="st5" d="M181.5 458.1h0c-39.8 31.1-71.7 47.2-73.5 51.8-2.4 6.1 5.3 16.8 17.4 14.6s35.3-19.9 35.3-19.9l51.9-.4c-.1.1-17.9-39-31.1-46.1z"/></g><path id="XMLID_179_" class="st6" d="M212.5 504.3s-17.8-39.1-31.1-46.2c-10.2 8-20 15-28.8 21.1l-54.5-27.6s-27.2 31.3-22.7 62.1c4.5 30.9 25.1 45.3 40.5 45.7s27.6-7.5 27.6-7.5 4.7 12 12.5 9.1c7.8-2.9 3.7-15.2 3.7-15.2s6.5 9.1 13.4 5.7c6.9-3.5 2-16.1 2-16.1s8.2 9.1 14.4 3.5c6.3-5.6-3.7-16.7-3.7-16.7l26.7-17.9z"/><path id="XMLID_189_" class="st0" d="M98.2 451.6s-13.4 15.2-6.1 18.9 15.4-14.2 15.4-14.2-9.3 15.6-2 19.6 14.4-13.3 14.4-13.3-7.1 18.2-.8 21 16.5-13.1 16.5-13.1-9 16.7-.8 20.2 18-11.5 18-11.5l-54.6-27.6z"/><g id="XMLID_216_"><path id="XMLID_215_" class="st6" d="M220.5 424.4C164.7 478 110.3 503.9 107.9 510c-2.4 6.1 5.3 16.8 17.4 14.6s35.3-19.9 35.3-19.9"/><path id="XMLID_283_" class="st0" d="M123.6 498.4c-9.2 5.9-14.9 9.7-15.7 11.6-1.6 3.9 1 9.7 6.3 12.8 7.1-3.7 16-9.2 16-13.2 0-3.8-3.4-8-6.6-11.2z"/></g><path id="XMLID_348_" class="st7" d="M220.5 424.4c-13.3 12.8-26.6 24-39.1 33.8h0c13.2 7.1 31.1 46.2 31.1 46.2l45.2-32 5.4-58.8c.1-.1 13.3-42.8-42.6 10.8z"/><g id="XMLID_217_"><path id="XMLID_350_" class="st8" d="m248 416-58.5 49.3c6.4 7.5 12.8 18.7 17.2 27.2l48.8-38.2L248 416z"/></g></g><g id="XMLID_219_"><path id="XMLID_221_" class="st0" d="M372.6 234.3c-8.8-8.6-17.5-17.5-21.7-22.8-27.2-11.8-129.4 2.4-129.4 6.5 0 1.4 3.1 8.2 7.2 21.3 74.7-12.2 127.4-7.2 143.9-5z"/><path id="XMLID_280_" class="st0" d="M397 257.8s-5.5-5.2-12.9-12.2l-7.4 11.8s-59.3-1.8-141.8 4.4c7.2 29.2 14.9 73.9 15.7 136.7-.4 97.4-32.4 178.9-30 182.5 2.4 3.6 179.2 10.9 179.2 4.5s-5.1-150-5.1-150l2.3-177.7z"/><path id="XMLID_282_" class="st0" d="m376.8 257.3 7.4-11.8c-3.6-3.4-7.6-7.3-11.6-11.3-16.5-2.2-69.1-7.2-143.9 5 1.9 6.1 4.1 13.5 6.3 22.4 82.5-6.1 141.8-4.3 141.8-4.3z"/></g><g id="XMLID_277_"><path id="XMLID_76_" class="st1" d="M313.1 276s-43.8.2-45.8 3.3c-2 3 13 45 10.9 117s-17.4 154.3-15.4 157.1c2 2.8 83.5 4.1 86.4 2 2.8-2 32.4-266.2 32.4-266.2l-28.4-29-40.1 15.8z"/><g id="XMLID_77_"><path id="XMLID_81_" class="st0" d="M293.7 276.4c-12 .4-25.3 1.2-26.4 2.9-.4.6-.1 3 .6 6.9l70.7 92.4v58s-49.9 66.8-73.5 93.4c-1.8 13.8-2.9 22.5-2.3 23.4.7 1 10.7 1.8 23.7 2.3l68.3-112.1 13.4-71.9-74.5-95.3z"/></g></g><g id="XMLID_276_"><g id="XMLID_91_"><path id="XMLID_96_" class="st7" d="m439.5 416-23.2-153.2-58.9 10.8c-.4 1.2 4.8 56.4-2.4 131.8-4.8 50-9.8 99.8-12.7 129.4l24.8 3.4c4.9-35.5 11-98 11-98s5.3 62.2 9.5 97.9l24.5-1.9c-2-35.4-7.4-95.5-7.4-95.5s11 63.1 18.2 98.4l26.8-3.5C444.9 509.8 436 474 436 474s12.8 29.6 23.9 52.1L484 516c-15.1-35.6-44.5-100-44.5-100z"/></g><path id="XMLID_289_" class="st5" d="m365.5 270.2-.4 118.3"/><path id="XMLID_290_" class="st5" d="m378 268.5-3.4 127.3"/><path id="XMLID_291_" class="st5" d="M387.1 265.3 381.6 404"/><path id="XMLID_292_" class="st5" d="m394.9 270.2-2 140.4"/><path id="XMLID_73_" class="st5" d="m350 535.6 11.5-106.7"/><path id="XMLID_80_" class="st5" d="m360 537 12.2-99.3"/><path id="XMLID_268_" class="st5" d="m394.2 537.2-9.8-100.3"/><path id="XMLID_269_" class="st5" d="m401.6 537-6.8-101.6"/><path id="XMLID_270_" class="st5" d="m431.3 537.9-21.3-101"/><path id="XMLID_271_" class="st5" d="m439.5 536.2-18.8-98.5"/><path id="XMLID_272_" class="st5" d="m436 473.9-15.3-52.3"/><path id="XMLID_273_" class="st5" d="m466.5 522.4-35.2-85.5"/><path id="XMLID_274_" class="st5" d="m475 519.7-35.5-87.1"/></g><path id="XMLID_39_" class="st6" d="M405.6 295.2s-2.4-44 .8-56.5c3.2-12.6 131-77.9 169.9-77.9 3.5 1.6 14.3 33.5 10.5 34.5-3.8 1-17.1 2.8-33.9 8.9-16.8 6.1-100.4 53.5-100.4 53.5l-2 69.7-39.7 3.3-5.2-35.5z"/><g id="XMLID_68_"><path id="XMLID_69_" class="st11" d="M446.1 249.7c3.4-9.3 91.5-44 118.1-54.3-2.9-4.5-5.5-8.2-7.4-8.2-4.1 0-125.5 47-126.5 61.2-.7 9.5 0 37.7-1.6 39.3-1.6 1.7-12.2 39.7-12.2 39.7l5.7 59.7L436 390l8.9 1.1c8-33.1-2.6-131.1 1.2-141.4z"/><path id="XMLID_71_" class="st8" d="M613.6 261.4s2-10.9-1.6-20.7c-3.6-9.7-30.7-25.6-37.3-31.2-3.5-3-7.2-9.1-10.5-14.1-26.6 10.3-114.6 45-118.1 54.3-3.8 10.3 6.8 108.4-1.2 141.4l86.4 11 17-53.5 33.2-5.3s30.8 10.1 32 10.1c1.2 0 38.1-9.7 38.1-9.7s26.7-3.6 26.8-21.5c.1-25.1-64.8-60.8-64.8-60.8z"/></g><g id="XMLID_312_"><g id="XMLID_309_"><path id="XMLID_310_" class="st4" d="M632.8 364.9c-24-2.1-44.5-20.1-60.3-15.1-15.7 5-28 22.8-9.9 44.1s61.1 9 69.4 16.7c3.8 3.5 5 14 5.2 23 11.8-2.6 9-16.4 5.1-23-4.1-6.8-12.6-13.5-28-13.5s-28.8-2.4-39.7-8.3c-10.6-5.8-14-28-.4-30s32.4 16.6 57.2 16.6 35.7-8.9 35.7-14.2c0-1.7-1.3-3.3-3.1-5-6.5 4.6-17.1 9.9-31.2 8.7z"/><path id="XMLID_311_" class="st3" d="M651.7 343.7c-29.6 7.7-54.3-21.5-54.3-21.5s-14.1 9.3-25.6 11.4c-11.5 2-53.4-19.9-53.4-19.9s-11 8-11.4 13.7 7.7 13.4 7.7 13.4-23.1-6.9-28.4-2.4-6.5 13.2-10.1 17.2-8.1 47 0 50.2c8.1 3.1 31.6 6.5 46.2 11.8 14.6 5.3 34.9 30 54 30s23.9-26.4 36.1-26.4c12.2 0 10.9 14.6 23.9 12.6.3-.1.7-.1 1-.2-.3-8.9-1.4-19.4-5.2-23-8.2-7.7-51.3 4.6-69.4-16.7-18.1-21.3-5.8-39.1 9.9-44.1s36.2 13 60.3 15.1c14 1.2 24.7-4.1 31.1-8.8-4.1-3.6-10.5-7.4-12.4-12.4z"/></g><g id="XMLID_308_"><path id="XMLID_40_" class="st5" d="M571.7 333.6c-11.5 2-53.4-19.9-53.4-19.9s-11 8-11.4 13.7 7.7 13.4 7.7 13.4-23.1-6.9-28.4-2.4-6.5 13.2-10.1 17.2c-3.6 3.9-8.1 47 0 50.2s31.6 6.5 46.2 11.8c14.6 5.3 34.9 30 54 30s23.9-26.4 36.1-26.4c12.2 0 10.9 14.6 23.9 12.6s10.1-16.4 6.1-23.2-12.6-13.5-28-13.5-28.8-2.4-39.7-8.3c-10.6-5.8-14-28-.4-30s32.4 16.6 57.2 16.6 35.7-8.9 35.7-14.2c0-5.3-12.6-10.1-15.4-17.4-29.6 7.7-54.3-21.5-54.3-21.5s-14.2 9.3-25.8 11.3z"/><g id="XMLID_224_"><path id="XMLID_38_" class="st0" d="M464 405.4c-2.8-1.6-3.1-7.5 0-9.1 3.1-1.6 15.3.9 18.2 2.2 3 1.3 4.3 9.6 1.6 9.6s-17-1.1-19.8-2.7z"/><path id="XMLID_59_" class="st0" d="M463.5 378.6c-2.2 0-3.2 7.6-.8 10s19.7 6.1 21.4 6.1 2.6-7.6.4-8.5-18.8-7.6-21-7.6z"/><path id="XMLID_60_" class="st0" d="M466.5 360.8c-3.2 1.4-3.2 6.5 0 9.2 3.2 2.7 20 7.8 23.2 7.8s3.5-8.3 1.9-8.9c-1.6-.6-21.8-9.5-25.1-8.1z"/><path id="XMLID_61_" class="st0" d="M477.9 343.5c-4.3 1.4-7.1 8.1-3.5 11.3 3.6 3.3 22.2 8.1 25.2 8.1s6.4-11.5 4.1-12.4c-2.5-.9-21.6-8.4-25.8-7z"/><path id="XMLID_62_" class="st5" d="M466.5 370c3.2 2.7 50 16.7 53.3 16.7"/><path id="XMLID_63_" class="st5" d="M474.3 354.8c3.6 3.3 42.5 13.6 45.5 13.6"/><path id="XMLID_64_" class="st5" d="M520.9 405.4c-6.5-3.2-29.7-8.1-36.8-10.7"/><path id="XMLID_66_" class="st5" d="m514.6 340.9 30.3 12.2"/></g></g></g><g id="XMLID_35_"><g id="XMLID_126_"><path id="XMLID_127_" class="st2" d="M710.7 313.7c-2.6-2.4-39.5 3.6-43.6 5.4 1.3 1.4 2.6 3.8 3.9 6.7l44.2-3.8c-2.2-4.5-3.9-7.7-4.5-8.3z"/><path id="XMLID_133_" class="st2" d="m715.2 322.1-44.2 3.8c6.2 14.4 11.5 42.5 11.5 42.5s33.8-2.8 50.7.8c0-6.3-11.3-33.2-18-47.1z"/></g><path id="XMLID_136_" class="st5" d="M722.8 367.8s-6.2-22.5-9.5-27.8"/><path id="XMLID_134_" class="st5" d="M704.4 340.1c2.4 6.9 7.1 27.3 7.1 27.3"/><path id="XMLID_125_" class="st5" d="M702.1 367.4s-5-21.6-7.4-27.4"/><path id="XMLID_124_" class="st5" d="M684.9 340.9c3 3.4 6.2 27 6.2 27"/></g><g id="XMLID_223_"><path id="XMLID_307_" class="st0" d="m642.1 279.5-4.3 4.3s19.5 15.7 26.8 30.1c7.3 14.4-17.4 20-31.8 20s-25.3-11.8-28.7-14.1c-3.4-2.3-14.9 1.5-14.9 1.5l8.2.8s24.7 29.2 54.3 21.5c0 0 26.7-3.6 26.8-21.5 0-13.5-19-30.1-36.4-42.6z"/></g><path id="XMLID_70_" class="st1" d="M612 240.7c-3.3-8.7-25.4-22.4-34.7-29.2-33.3 16.2-104.8 51.3-107 56.2-2.9 6.5 7.3 43.1 16.3 45.9 8.4 2.7 129.4-10.4 161.6-29.7-16.9-12.9-34.6-22.6-34.6-22.6s2-10.8-1.6-20.6z"/><path id="XMLID_28_" class="st5" d="M521.5 261.4c-6.1 13.4-3.6 29.6 9.3 33.2 13 3.6 64.5-10.9 69.3-21.1s-3.6-34.9-24.3-34.9-48.2 9.4-54.3 22.8z"/><path id="XMLID_34_" class="st5" d="M531.3 272.8c1.2-.4 5.1 10.5 15 4.9s6.1-10.7 6.1-10.7 5.3 8.7 15.8 4.1 6.5-11.3 6.5-11.3 4.1 6.1 10.1 4.9 4.1-6.9 4.1-6.9"/><g id="XMLID_304_"><path id="XMLID_305_" d="M552.5 267.2c-.1-.1-.1-.2-.1-.2l.1.2z" style="fill:none"/><path id="XMLID_306_" class="st6" d="m586.8 304.8-10.6-43.2c-1-1-1.5-1.8-1.5-1.8s4.1 6.7-6.5 11.3c-8.2 3.6-13.2-.9-15-3.1l13 42.9 20.6-6.1z"/></g><path id="XMLID_78_" class="st0" d="M262.6 358.3s-3.1-26.8 14-26.8c17 0 23.5 11.7 24.3 21.5s-6.1 19.8-6.1 19.8 9.7 4.3 9.7 17.4c0 13.1-5.3 20.3-8.9 23.2 7.3 4.9 8.9 29.4-9.3 31.7-18.2 2.3-20.3-24.8-20.3-24.8l-3.4-62z"/><g id="XMLID_356_"><circle id="XMLID_212_" class="st10" cx="459.2" cy="612.3" r="17.6"/><circle id="XMLID_213_" class="st10" cx="519.5" cy="614.7" r="17.6"/><circle id="XMLID_214_" class="st10" cx="576.9" cy="605.4" r="17.6"/></g><g id="XMLID_357_"><circle id="XMLID_225_" class="st4" cx="511.6" cy="604.6" r="3.4"/><circle id="XMLID_226_" class="st4" cx="523.6" cy="603.2" r="3.4"/><circle id="XMLID_227_" class="st4" cx="506.9" cy="613.7" r="3.4"/><circle id="XMLID_228_" class="st4" cx="520.2" cy="625.1" r="3.4"/><circle id="XMLID_229_" class="st4" cx="519.5" cy="613.7" r="3.4"/><circle id="XMLID_230_" class="st4" cx="530.7" cy="611.5" r="3.4"/><circle id="XMLID_231_" class="st4" cx="529" cy="621.5" r="3.4"/><circle id="XMLID_232_" class="st4" cx="510.8" cy="622.8" r="3.4"/><circle id="XMLID_233_" class="st4" cx="460" cy="599.8" r="3.4"/><circle id="XMLID_234_" class="st4" cx="467.8" cy="604.6" r="3.4"/><circle id="XMLID_235_" class="st4" cx="471.1" cy="613.7" r="3.4"/><circle id="XMLID_236_" class="st4" cx="451.4" cy="604.9" r="3.4"/><circle id="XMLID_237_" class="st4" cx="448.3" cy="613.7" r="3.4"/><circle id="XMLID_238_" class="st4" cx="459.2" cy="612.3" r="3.4"/><circle id="XMLID_239_" class="st4" cx="453.4" cy="623.4" r="3.4"/><circle id="XMLID_240_" class="st4" cx="466.6" cy="622.3" r="3.4"/><circle id="XMLID_241_" class="st4" cx="579" cy="594.7" r="3.4"/><circle id="XMLID_242_" class="st4" cx="569.1" cy="597.1" r="3.4"/><circle id="XMLID_243_" class="st4" cx="568.2" cy="608.2" r="3.4"/><circle id="XMLID_244_" class="st4" cx="587.1" cy="611.5" r="3.4"/><circle id="XMLID_245_" class="st4" cx="576.9" cy="606.2" r="3.4"/><circle id="XMLID_246_" class="st4" cx="578.5" cy="618.1" r="3.4"/><circle id="XMLID_247_" class="st4" cx="589.7" cy="601.6" r="3.4"/><circle id="XMLID_248_" cx="547.8" cy="731.4" r="3.4"/><circle id="XMLID_249_" cx="563.4" cy="736.6" r="3.4"/><circle id="XMLID_250_" cx="551.2" cy="747.3" r="3.4"/><circle id="XMLID_251_" cx="564.2" cy="764.9" r="3.4"/><circle id="XMLID_252_" cx="619" cy="770.7" r="3.4"/><circle id="XMLID_253_" cx="631.6" cy="757.6" r="3.4"/><circle id="XMLID_254_" cx="646.8" cy="754.3" r="3.4"/><circle id="XMLID_255_" cx="630.4" cy="740" r="3.4"/><circle id="XMLID_256_" cx="617.1" cy="749.9" r="3.4"/><circle id="XMLID_257_" cx="613.7" cy="726.9" r="3.4"/></g><circle id="XMLID_293_" cx="319.2" cy="537.2" r="5.3"/><circle id="XMLID_294_" cx="330.4" cy="510.3" r="5.3"/><circle id="XMLID_295_" cx="285.4" cy="487.3" r="5.3"/><circle id="XMLID_296_" cx="290.7" cy="459.5" r="5.3"/><circle id="XMLID_297_" cx="312.1" cy="451.6" r="5.3"/><circle id="XMLID_298_" cx="313.4" cy="420.4" r="5.3"/><circle id="XMLID_299_" cx="315.5" cy="383.5" r="5.3"/><circle id="XMLID_300_" cx="350.2" cy="331.6" r="5.3"/><circle id="XMLID_301_" cx="333.4" cy="306.7" r="5.3"/><circle id="XMLID_302_" cx="320.8" cy="289.2" r="5.3"/><circle id="XMLID_36_" class="st0" cx="579.8" cy="319.4" r="20.7"/><circle id="XMLID_37_" class="st5" cx="579.8" cy="319.4" r="8"/><g id="XMLID_303_"><path id="XMLID_135_" class="st0" d="M582.5 361.3c-1.4 2.7-3 7.3-1.4 10.8s6.7 3.5 10.5 2.7c.5 3.8 7.3 6.9 12.4 5.8 1.6 2.9 8.1 6 13.8 2.9 2.4 5.7 10 5.7 12.7 2.3 4.9 3 9.5 3 12.2-.7 3.5 1.5 10.8 1.5 13.2-4.1 6.5 2.5 11.1-2.7 11.1-5.3 0-2.7-2.6-6.2-5.4-7.2-2.8-1-7.9.8-9.1 4.2-2.9-2.6-9.6-1-10.9 2.2-1.7-3.2-8.7-1.3-10.4.6-2.4-3.8-10.5-4.1-12.5-1.5-1.9-4.7-9.4-6-12-3.9-1-4.3-7.8-7-11.3-5-1-6-11.6-6.5-12.9-3.8z"/><path id="XMLID_139_" class="st5" d="m652.7 372.5 3.3 8.4"/><path id="XMLID_140_" class="st5" d="m642.8 385.1-1-10.3"/><path id="XMLID_141_" class="st5" d="m631.4 375.4-.8 10.4"/><path id="XMLID_142_" class="st5" d="m617.9 383.5 1.1-9.7"/><path id="XMLID_143_" class="st5" d="m607 370-2.9 10.6"/><path id="XMLID_137_" class="st5" d="m591.7 374.8 4-9.9"/></g><g id="XMLID_314_"><g id="XMLID_30_"><path id="XMLID_31_" class="st0" d="M331.8 375.4c-2.8 0-4.1 18 0 19.5-2.6 2.4-2.8 23.1.8 23.5-3.4 3.2-3.6 21.8.4 23.5 2.6 1.1 15.8.5 30.8.1l1.8-64.2c-18.2-1.4-32.8-2.4-33.8-2.4z"/><path id="XMLID_32_" class="st6" d="m365.5 377.8-1.8 64.2c8.7-.2 17.9-.4 26-.1 9.1.3 18.5.9 26.7 1.6l2.3-61.7c-15.4-1.2-35.9-2.8-53.2-4z"/><path id="XMLID_33_" class="st0" d="M441.6 402.1c7.3-3.2 4.5-19.9 0-20.3-1.3-.1-10.4.8-22.9-.1l-2.3 61.7c11.5.9 20.6 1.8 23 1.8 4.2 0 7.8-17.5 2.2-22.8 5.7-4.1 5.7-19.5 0-20.3z"/></g><path id="XMLID_29_" class="st5" d="m441.6 422.4-109-4.1"/><path id="XMLID_27_" class="st5" d="M331.8 394.8c15.6-1.2 109.9 7.3 109.9 7.3"/></g><g id="XMLID_313_"><path id="XMLID_26_" class="st6" d="M399.5 333.5c1.2-8.4-8.7-24.6-2.7-36 5.9-11.4 18.8-15.4 29.2-13 10.4 2.4 13.5 11.5 13.5 18.1s-4.1 16.6-13.5 16.5c8.4 3.9 15 16.9 10.3 26.2-4.7 9.3-15.3 8.5-18.1 13.8-2.8 5.3 0 19.6.8 23s-.3 10.7-5.1 12.7c-4.9 2-18 3-28.1-4.6-10.1-7.6-8.1-23.9-5.7-33.8 2.3-9.8 18.2-14.6 19.4-22.9z"/><path id="XMLID_67_" class="st5" d="M418.8 298.8c-2.3 7.9-.9 20.4 7.2 20.4"/><path id="XMLID_23_" class="st0" d="M397 360.4c-4.5 6.1-1.6 17.4 3.2 21.1 4.9 3.6 30.3 2.2 33.2.8 4.9-2.3 3.6-26.2 0-26.4-3.5-.2-31.9-1.6-36.4 4.5z"/></g><g id="XMLID_89_"><path id="XMLID_90_" class="st7" d="M368.8 211.1c.1.1.2.3.3.4-.1-.1-.2-.2-.3-.4z"/><path id="XMLID_319_" class="st7" d="M394.9 133.8c-2.2 1.8-4.4 3.6-6.6 5.5 6.9 8.5 20 25.2 28.1 38.1 7.7 12.3 15.7 29.7 20 39.4 2.6-1.5 5.3-3 8.1-4.5-4.5-10-14.3-31.2-21.4-42.5-6.6-10.6-20.4-27-28.2-36z"/><path id="XMLID_321_" class="st7" d="M374.8 151.3c-2 1.9-3.9 3.7-5.8 5.5 9.6 11.3 24.8 29.8 29.6 38.8 4.8 8.9 9.5 26.8 12.2 37.9 2.3-1.9 5.3-4.1 9-6.6-3.7-10.5-9.9-27.4-15.8-37.4-6-10.6-20.7-28.2-29.2-38.2z"/><path id="XMLID_322_" class="st7" d="M380.9 145.7c-2.1 1.9-4.1 3.8-6.1 5.6 8.6 10 23.2 27.6 29.3 38.1 5.8 10 12.1 26.9 15.8 37.4 2-1.4 4.3-2.8 6.7-4.3-4.6-12.3-12.6-32.6-17.8-41-5.8-9-20.6-27.1-27.9-35.8z"/><path id="XMLID_323_" class="st7" d="M402.7 127.7c-2.6 2-5.3 4-7.8 6.1 7.8 9 21.6 25.4 28.2 36 7.1 11.3 16.9 32.5 21.4 42.5 2.4-1.3 4.9-2.7 7.4-4-4.3-8.7-13.8-27.9-20.3-40.9-6-12.2-20.7-30.2-28.9-39.7z"/><path id="XMLID_324_" class="st7" d="M388.3 139.2c-2.5 2.1-5 4.3-7.3 6.4 7.3 8.7 22.1 26.8 27.8 36 5.2 8.3 13.2 28.7 17.8 41 3-1.9 6.3-3.8 9.8-5.8-4.3-9.8-12.3-27.1-20-39.4-8.1-12.9-21.3-29.7-28.1-38.2z"/><path id="XMLID_326_" class="st7" d="M369 156.8c-3 2.9-5.9 5.8-8.5 8.5 6.7 6.5 25.2 25.1 31.2 36.8 5.8 11.3 9.3 34.6 10.5 43.7h2.5c.2 0 .4.1.6.3.3-3 .6-5.5 1.1-7.4.3-1.3 1.9-3.1 4.5-5.2-2.7-11.1-7.4-29-12.2-37.9-4.9-9.1-20.1-27.5-29.7-38.8z"/><path id="XMLID_327_" class="st7" d="M340.2 187.5c-.5 1.8-3.6 11.6-3.6 13.1 0 .5 2.2 5.7 5.3 12.5v-1.5c0-3.1 24.1-3.2 26.9-.4-3.1-4.4-19.8-17.2-28.6-23.7z"/><path id="XMLID_328_" class="st7" d="M360.5 165.3c-2.5 2.5-4.8 4.9-6.9 7.2 8 7 27.5 25.2 31.8 36.7 3.9 10.4 6.4 27.7 7.6 36.7h9.2c-1.2-9.2-4.7-32.4-10.5-43.7-5.9-11.8-24.5-30.5-31.2-36.9z"/><path id="XMLID_329_" class="st7" d="M369.1 245.8h6.9c-1.5-10.2-4.7-30.3-6.9-34.3.8 3.3 0 34.3 0 34.3z"/><path id="XMLID_330_" class="st7" d="M347.2 179.4c-4.4 4.8-6.9 7.8-6.9 7.8s0 .1-.1.3c8.8 6.5 25.5 19.3 28.6 23.6.1.1.2.3.3.4 2.2 3.9 5.4 24.1 6.9 34.3h7.2c-1.1-11.5-3.4-32-6.3-36.7-3.3-5.1-21.7-22.4-29.7-29.7z"/><path id="XMLID_331_" class="st7" d="M353.6 172.4c-2.4 2.6-4.6 4.9-6.4 6.9 8 7.4 26.4 24.6 29.6 29.7 2.9 4.7 5.2 25.2 6.3 36.7h9.9c-1.1-9-3.7-26.3-7.6-36.7-4.3-11.4-23.8-29.5-31.8-36.6z"/><path id="XMLID_332_" class="st7" d="M439.5 106.5c-9.9 3.5-20.2 9.4-30.4 16.5 7.2 8.3 24.7 29.1 31.4 42.7 5.9 11.9 14.4 29 19.1 38.5 11.4-5.9 23.8-11.8 36.1-17.4L467 97.9c-8.9 2.4-18.2 5.3-27.5 8.6z"/><path id="XMLID_333_" class="st7" d="m507.6 90.3 28 80.3c3.2-1.1 6.4-2.2 9.4-3.2l-27-77.7c-3.3 0-6.8.2-10.4.6z"/><path id="XMLID_334_" class="st7" d="m518 89.7 27.1 77.7c2.2-.7 4.3-1.4 6.4-2l-26.3-75.6c-2.3-.1-4.7-.2-7.2-.1z"/><path id="XMLID_335_" class="st7" d="m525.1 89.9 26.3 75.6c2.9-.9 5.8-1.6 8.4-2.2l-25.1-72c-2.8-.8-6-1.2-9.6-1.4z"/><path id="XMLID_336_" class="st7" d="M576.3 160.9c0-17.4-15.1-51.9-30.1-64.2l22.6 64.9c2.7-.5 5.2-.7 7.5-.7z"/><path id="XMLID_337_" class="st7" d="M546.2 96.6c-1-.9-2.1-1.6-3.1-2.3-2.2-1.4-5-2.4-8.2-3.2l25.1 72c3.2-.8 6.2-1.3 8.9-1.7l-22.7-64.8z"/><path id="XMLID_338_" class="st7" d="M409.1 123c-2.1 1.5-4.3 3-6.4 4.6 8.2 9.6 22.8 27.5 28.9 39.7 6.5 13 16 32.2 20.3 40.9 2.5-1.3 5.1-2.7 7.7-4-4.7-9.5-13.2-26.5-19.1-38.5-6.7-13.6-24.2-34.3-31.4-42.7z"/><path id="XMLID_339_" class="st7" d="m474.6 96 30.2 86.8c2.2-1 4.4-1.9 6.6-2.8l-29.8-85.6c-2.2.5-4.6 1-7 1.6z"/><path id="XMLID_340_" class="st7" d="m467.1 97.9 28.7 88.9c3-1.4 6.1-2.7 9.1-4L474.6 96c-2.5.6-5 1.2-7.5 1.9z"/><path id="XMLID_341_" class="st7" d="m499.1 91.2 28.6 82.3c2.7-1 5.3-2 7.9-2.9l-28-80.3c-2.7.2-5.6.5-8.5.9z"/><path id="XMLID_342_" class="st7" d="m481.7 94.4 29.8 85.6c2.6-1.1 5.2-2.2 7.8-3.2L490 92.7c-2.7.5-5.5 1.1-8.3 1.7z"/><path id="XMLID_343_" class="st7" d="m490.1 92.7 29.3 84.1 8.4-3.3-28.6-82.3c-3.1.5-6.1.9-9.1 1.5z"/></g><g id="XMLID_315_"><path id="XMLID_320_" class="st11" d="M369.1 211.5c.2.9.3 3.8.3 7.6 24.4-21.3 60.9-50.8 91.7-65.6 36.9-17.7 79.9-29.8 101.5-35.2-1.5-2.8-3.1-5.5-4.8-8-17.2 3.9-65.8 15.9-104.5 35.9-29.5 15.3-63.4 44.4-85.2 64.5.6.3.9.5 1 .8z"/><path id="XMLID_325_" class="st11" d="M461.1 153.6c-30.8 14.8-67.3 44.3-91.7 65.6 0 3.8 0 8.4-.1 12.8 22.5-19.7 61.9-51.8 95.6-67.8 39-18.5 84.1-30.9 102.7-35.6-1.5-3.5-3.2-6.9-5-10.2-21.5 5.4-64.6 17.5-101.5 35.2z"/></g><g id="XMLID_316_"><path id="XMLID_318_" class="st0" d="M489.5 157.6c2.8-4.9 19.5-9.9 20.7-12.6s-9-30.4-13.1-30c-4.1.4-22.7 12.6-25.5 10.9-2.7-1.6-8.4-31.6-12.5-34.5s-43.7 15.8-43.7 22.3 16.1 28 15.3 31.6-23.6 13.4-23.6 16.2 10.6 29.2 14.7 28.4 23-12.6 26.7-13.4c3.1-.7 12.1 19.1 14.9 25.5 11.2-5.7 23.2-11.4 35.1-16.7-4.5-7.4-11.1-24-9-27.7z"/></g><path id="XMLID_72_" class="st0" d="M369.1 245.8s.8-31 0-34.3-27.2-3.2-27.2 0 2 34.3-.8 34.3-26-.6-28.8 1.8-1.2 28.4.8 28.4h29.2c2.4 0 .4 41 1.6 43.8s23.4 1.7 23.5-1.2c.1-2.9.8-38.9 2.4-42.2s30.8.4 34.8-1.6 3.6-29 0-29h-35.5z"/><g id="XMLID_275_"><path id="XMLID_92_" class="st1" d="M391.2 561.9c3.6 9.3 18.8 5.4 21.2-.8.7-1.7.4-11.5-.4-24.9l-24.5 1.9c1.5 12.3 2.8 21.4 3.7 23.8z"/><path id="XMLID_93_" class="st1" d="m484 516-24.1 9.9c6.2 12.6 11.9 23 14.5 24.6 7.1 4.3 20.6-1.2 18.3-12.2-.6-2.6-4-11-8.7-22.3z"/><path id="XMLID_94_" class="st1" d="M428.3 561.9c3.8 8.1 21.8 7.7 24.3-1.6.8-3-.6-12.8-2.9-24.8l-26.8 3.5c2.4 12 4.4 20.8 5.4 22.9z"/><path id="XMLID_95_" class="st1" d="M339.9 561.9c0 6.1 18.7 6.2 22.7 0 1.1-1.6 2.7-10.9 4.4-23.7l-24.8-3.4c-1.4 15.1-2.3 25-2.3 27.1z"/></g><g id="XMLID_278_"><g id="XMLID_82_"><path id="XMLID_83_" class="st1" d="m221.2 350 2 76.2c5.1-.2 10.2-.4 15.1-.6l-2.3-76.5c-4.7.3-9.7.6-14.8.9z"/><path id="XMLID_84_" class="st1" d="M159.4 355.6c-4.1 2.5-4.4 14.3-.8 16.5 3.6 2.2 43.4 3.2 43.4 3.2s-39.3 6.1-42.6 8.9c-3.2 2.9-1.6 11.5 1.2 14.1s42.6 3.7 42.6 3.7-41.8 7.7-42.6 10.5c-.8 2.9-.8 9.7 3.6 13 2.4 1.7 31.1 1.6 58.9.7l-2-76.2c-28.4 1.8-59.3 4.2-61.7 5.6z"/><path id="XMLID_85_" class="st1" d="M275.8 401.9c10.5-3.5 7.3-21.2 0-23.6 10.9-8.4 5.3-30.5-8.3-30.5-1.9 0-5.3.1-9.7.3l2.3 76.3c8.1-.6 14-1.3 15.8-2 8.4-3.2 6.7-17.8-.1-20.5z"/><path id="XMLID_86_" class="st0" d="m236 349.2 2.3 76.5c8.1-.4 15.6-.8 21.7-1.3l-2.3-76.3c-5.7.2-13.3.6-21.7 1.1z"/></g><path id="XMLID_79_" class="st5" d="m275.8 401.9-72.6.2"/><path id="XMLID_74_" class="st5" d="m202 375.4 73.8 2.9"/></g><g id="XMLID_218_"><path id="XMLID_284_" class="st5" d="M258.2 459.5h-11.6c-.5 4.2-1.1 8.3-1.7 12.3 4 .4 10.4 1 13 .4 3.7-.8 2.5-12.7.3-12.7z"/><path id="XMLID_285_" class="st5" d="M238.7 561.1c3.4 0 5.1-9.5 2.6-12.6-1.4-1.8-7.3-2.4-12-2.6-1.3 4.9-2.5 9.3-3.6 13.3 4.6.8 10.9 1.9 13 1.9z"/><path id="XMLID_286_" class="st5" d="M249.9 516c4.1 0 4.5-12.1 0-12.1h-10.7c-.8 4.2-1.7 8.2-2.6 12.1h13.3z"/><path id="XMLID_317_" class="st5" d="M251.5 285.7c2.8-1.9 1.8-8.9-1.6-10.9-1.9-1.1-7.4-.5-11.8.3.9 4.2 1.8 8.6 2.7 13.3 3.9-.6 9-1.6 10.7-2.7z"/><path id="XMLID_344_" class="st5" d="M257 308.9c-1.3-.7-7.5 0-12.8.7.5 3.4 1 7 1.4 10.7 4.9-.2 10.8-.5 12.2-1.7 2.2-2 1.4-8.4-.8-9.7z"/></g><g id="XMLID_279_"><path id="XMLID_281_" class="st5" d="M283.5 268.5c3 3 10.9 1.4 10.9-.8 0-1.2-.8-5.5-1.6-9.3-4.2.2-8.5.4-12.9.6.9 3.8 2.1 8 3.6 9.5z"/></g><g id="XMLID_75_"><path id="XMLID_287_" class="st5" d="M335.8 573.2c-1.6-2.7-10.3-3.3-11.2 0-.6 2.3-.2 9.9.1 14.2 4.3.1 8.6.2 12.7.3-.1-5.1-.5-12.7-1.6-14.5z"/><path id="XMLID_288_" class="st5" d="M287.6 572.8c0-3.2-8.2-2.8-10-.8-1 1.2-.7 8.2-.2 13.6 3.3.2 6.7.3 10.2.5v-13.3z"/><path id="XMLID_346_" class="st5" d="M381.6 571.2c-2.8-3.8-10.8-.8-10.5 2 .2 2.1 1.4 10.5 2 14.8 4 0 7.6-.1 10.8-.2.1-4.8-.2-13.8-2.3-16.6z"/></g><g id="XMLID_220_"><path id="XMLID_222_" class="st5" d="M386.3 527.1c-2.7-.3-5.8-.3-7.1.8-2.7 2-3.2 11.9-.8 13.9 1.3 1.1 5.8 1 9.7.7-.2-1.4-.3-2.8-.5-4.3-.4-3.6-.8-7.3-1.3-11.1z"/></g><path id="XMLID_160_" class="st5" d="M441.6 620.7s9.4-8.1 16.6-3.6c7.2 4.5 6.1 10.1 6.1 16.6"/><path id="XMLID_167_" class="st5" d="M567.7 623.1c4.9-7.4-5.2-16.9-5.2-16.9"/><path id="XMLID_364_" class="st5" d="M448.8 573c.5 7.8 0 14.6-2.6 16.6-7.1 5.3-16.5 6.6-22.7 15.8s-6.1 35.1 6.1 38.8c12.2 3.6 21.9 2.8 28 0 6.1-2.8 6.9-10.5 6.9-10.5s10.7 5.7 19.6 4.9 16.5-7.3 16.5-7.3.3 8.1 8.1 9.3c7.8 1.2 11-8.5 11-8.5s-.4 10.1 8.1 9.3c8.5-.8 8.9-8.5 8.9-8.5s4.6 9.3 11.8 5.3 0-12.2 0-12.2 11.7 10.5 19.4-2.8c5.7 4.1 12.6 7.7 20.7 6.9 8.1-.8 17.8-10.1 19.9-19.9 2-9.7-2.4-16.6-7.7-25.5-5.3-8.9-18.2-8.7-18.2-8.7s11.5-5.7 11.2-14.8-13.6-14.6-19-13.4c-2.9.7-6.4 4.5-10 8"/><g id="XMLID_200_"><path id="XMLID_195_" class="st6" d="M322.1 738.3s-10.2 28.4-33.3 46.6c-54.7-29.2-64.1-58.4-65.4-58.4s-14.2 5.7-17.4-2.8c-3.3-8.5 9.7-13 9.7-13s-13.4 2.9-13-5.5c.4-8.4 15.4-12 15.4-12s-13.4-.5-10.9-10c2.4-9.5 15.4-6.2 15.4-6.2s-11.6-10.5-3-15.8c8.6-5.3 16.8 4.1 16.8 4.1s13-9.3 36.1-9.3 69.6 17.8 69.6 17.8l-20 64.5z"/><path id="XMLID_196_" class="st6" d="M272.6 656c23.1 0 69.6 17.8 69.6 17.8l-17.6 56.4s-53.4-3.7-61.5-11.6-4-17.5 7.4-21.5 35.7 3.2 35.7 3.2"/><path id="XMLID_197_" class="st0" d="M258 722.5c-2.4-2.7 2.4-13 7.3-13s19.1.8 22.3 2.8c3.2 2-.1 11.9-4.8 12.8-4.7 1-22.4.1-24.8-2.6z"/><path id="XMLID_199_" class="st0" d="M285.5 774c-5.3 11.8 17.8 18.2 17.8 18.2l21.3-62s-14.2-3.7-19.2 4c-4.9 7.7 13.7 11.4 13.7 11.4s-16.5-5.5-18.6 1.2c-2.1 6.7 12.9 13 12.9 13s-16.6-8.9-19-1c-2.4 7.9 15 16.8 15 16.8s-18.6-13.4-23.9-1.6z"/></g><path id="XMLID_158_" class="st5" d="M451.2 563c8.3 1.3 19.5 2.1 23.7-1.9"/></g><path id="XMLID_65_" class="st0" d="M501.4 313.7c-1.4-5.9 4.1-13.6 5.9-12.2 1.9 1.5 21.9 15.7 23.1 18.5 1.2 2.8-6.6 8.5-10.7 8.5-4 .1-17-8.8-18.3-14.8z"/></svg>