<svg version="1.1" id="Calque_1" xmlns="http://www.w3.org/2000/svg" x="0" y="0" viewBox="0 0 900 900" style="enable-background:new 0 0 900 900" xml:space="preserve"><style>.st1,.st2,.st3,.st4,.st5,.st6{fill:none;stroke:#000;stroke-width:3.0939;stroke-linecap:round;stroke-linejoin:round;stroke-miterlimit:10}.st2,.st3,.st4,.st5,.st6{fill:#fff}.st3,.st4,.st5,.st6{fill:red}.st4,.st5,.st6{fill:#020202}.st5,.st6{fill:#59595a}.st6{fill:#ffce00}</style><path d="M405.3 740.7c-5.9-7.3-11.9-13.1-17.5-17.9-2 .8-4.2 1.5-6.5 2-33.3 8.4-59.4-.2-75.8-15-16.7 1.1-53.7 5.6-68.5 22.4-19.3 22.1-15.5 68.8 15.9 78.9 31.4 10.1 65-3.4 79.7-4.2 14.7-.8 24 10.1 46.1 5.4 26.8-4.6 45.7-48.4 26.6-71.6z" style="fill:#0b9600;stroke:#000;stroke-width:3.0939;stroke-linecap:round;stroke-linejoin:round;stroke-miterlimit:10"/><path class="st1" d="M237.8 802.1s76.6-7.7 97.6-3.2 63.6 1.4 63.6 1.4M230.1 788.5s69-5.9 96.2-3.9c27.2 2 80.6 2.3 80.6 2.3M227.6 779.2s68.1-11.9 98.9-6.8c30.8 5.3 84.9 2.8 84.9 2.8M226.8 761.1s78.3-7.7 104-3.1c25.7 4.6 82.1 3.1 82.1 3.1M230.7 745.8s73-9.4 100.2-3.4c27.4 6 77.5 4 77.5 4M335.2 736.5H401M239 731.1s64.2-11.8 84.5-7.9"/><path class="st2" d="M313.4 810.3c-2.3 4.5 8.5 6.7 11.3 2.9 2.6-2.5 5.4-7.9 7-18.7l-14.2 7.3c-1.7 4.4-3.3 6.8-4.1 8.5zM332.5 757.7l-11.1 9.1c0 6.7-.2 12.2-.6 16.9l12.2-8.4c-.1-5.2-.2-10.9-.5-17.6zM327.2 723.5l-9.6 10.7c1.1 4.6 2 9.7 2.6 15.3l10.4-9.3c-.9-6.1-2.2-11.7-3.4-16.7z"/><path class="st2" d="M320.7 783.7c-.8 8.4-2 14.1-3.4 18.1l14.2-7.3c.8-5.1 1.2-11.3 1.2-19.2l-12 8.4zM332.3 756.2c-.3-5.7-.9-11-1.7-15.9l-10.4 9.3c.5 3.7.8 7.4.9 11.4 0 2 .2 3.9.2 5.7l11.1-9.1c-.1-.3-.1-.9-.1-1.4z"/><path class="st2" d="m341.9 741.6-10.2 6.7c.3 2.5.5 5.1.6 7.9.2 2.8.3 5.4.3 8l10.2-8.8c-.1-4.8-.6-9.4-.9-13.8zM324.6 813.3c-.2 4.8 9.6 6.3 12.4 1.5 1.2-2.3 3.2-6.3 4.6-14.2l-14.4 9c-.8 1.7-1.7 2.7-2.6 3.7z"/><path class="st2" d="M332 791.2c-1.1 9-2.8 14.9-4.8 18.4l14.4-9c.8-4.2 1.4-9.4 1.7-16.2l-11.3 6.8zM343.4 771l-10.7 7.9c-.2 4.6-.5 8.7-.8 12.2l11.3-6.8c.2-3.8.4-8.3.2-13.3z"/><path class="st2" d="M343.1 759c0-1.2-.2-2.5-.2-3.6l-10.2 8.8c.2 5.4.2 10.4.2 14.7l10.7-7.9c-.2-3.7-.3-7.7-.5-12zM311.1 714.3c.9 2.3 2 5 2.9 7.9l3.6-3.7c-2.3-1.3-4.5-2.7-6.5-4.2z"/><path class="st2" d="m317.6 718.4-3.6 3.7c1.2 3.6 2.5 7.6 3.4 12.1l9.6-10.7c0-.2-.2-.5-.2-.6-3.2-1.2-6.2-2.8-9.2-4.5z"/><path class="st2" d="M326.9 722.9c0 .2.2.5.2.6h0c.9 3.4 1.7 7.1 2.5 11.1l8.5-8.5c-3.9-.7-7.6-1.8-11.2-3.2zM329.7 734.7c.8 4.2 1.5 8.8 2 13.6l10.2-6.7c-.6-5.6-1.2-10.5-1.9-15-.6-.2-1.2-.3-1.7-.3l-8.6 8.4z"/><path class="st3" d="m275.4 394.5.8 20.4 14.6 5.1 8.9-22.9-10.2-9.4z"/><path class="st2" d="m637.4 345-23.5 18.7-8.2 136s26.1 1.7 56.5-.3c-6.7-39.8-13.6-127.5-15.5-152.5l-9.3-1.9zM668 351.3l-14.7-3.1c3.7 22.3 19 112.3 30.9 149 6.8-.9 13.6-2 20-3.6-20-81.1-36.2-142.3-36.2-142.3z"/><path class="st2" d="M646.7 346.9c1.9 25.1 8.8 112.8 15.5 152.5 7.3-.5 14.9-1.2 22.3-2.2-11.9-36.7-27.2-126.7-30.9-149l-6.9-1.3z"/><path class="st2" d="M501.2 490.4c13.5-5.7 80-67.3 84.9-85.5s8.4-29.7 14.1-38.4c5.7-8.7 15.5-17.9 15.5-17.9l40.7 2.9-1.1 8.5 5.6 21.7-14.9 32.6s-23.8 3.6-35.9 24.6c-11.9 21-32 69-45.3 79.7-13.5 10.5-58.2 0-58.2 0s-18.8-22.5-5.4-28.2z"/><path class="st4" d="M634.4 50c-2 0-18.3 88.2-49.8 100.6 5.6.3 10.8.6 15.9.8 28.5-31 33.8-86.4 35.2-86.4 1.4 0 17.8 62.2 43 82.8 6.3-.6 13-1.4 20.3-2.2-38.4-12.5-62.4-95.6-64.6-95.6z"/><path class="st5" d="M635.8 65c-1.4 0-6.7 55.4-35.1 86.3 27.7.9 48.1-.5 78.1-3.6-25.2-20.5-41.6-82.7-43-82.7z"/><path class="st2" d="M629.3 370.2s-8.5 208.1-8.5 210.9c0 2.8 17.6 2.3 17.8 0s11.4-204 6.5-215.3c-5.3-1.8-15.8 4.4-15.8 4.4zM712.4 338c-3.4-.2-137.7-8.5-140-8.5-1.1 0-1.5 4.5-1.4 9.4l144.3 7.9c-.3-4.4-1.2-8.8-2.9-8.8zM571 339c.2 5.7 1.1 12.1 2.6 12.2 2.8.2 137.7 6.2 140.3 5.1 1.2-.5 1.7-5.1 1.4-9.4L571 339z"/><circle class="st5" cx="641.4" cy="193.7" r="48.1"/><path class="st2" d="M628.2 195s-16.7 14.7-15.9 14.7 27.5 5.1 27.5 5.1l-3.1-19.8h-8.5zM654.4 191.1c0 5.1 11.1 14.4 11.1 14.4l-14.2 12.8-5.4-6.7 8.5-20.5z"/><path class="st2" d="M632.1 199.4c0 1.4 2.8 25.4 3.1 24.6.3-.8 10.5-12.4 10.5-12.4l-1.2-14.2-12.4 2zM648.4 181.5c1.1.5 11.1-4.3 11.1-4.3l2.6 16.7-13.6 5.3-1.5-2.9 1.4-14.8zM646.8 192.5c0-.9 1.5-11 1.5-11l-7.1-13.9-13 15.8 3.9 9.1 9.3 3.7 5.4-3.7z"/><path class="st2" d="m641.4 193.7-13.2-10.4-13.3 7.5 11.8 9.6 14.7 1.2z"/><path class="st2" d="m648.4 187.2-10.7 2.8 2.1 13.9 6.1 7.8 8.5-15.5zM685.3 269.4l3.1-11.6H592l2.5 13.8c35.6-7.5 73.5-4.4 90.8-2.2z"/><path class="st2" d="M691.7 245.4 588 235.9l4 21.9h96.4zM597 284.5l2.6 14.2c36.8-5.6 64.8-3.9 78.6-2.3l4.2-15.9c-13.5-.9-50.6-2.2-85.4 4zM601.5 309.4l2 11.1c24.1-2.9 54.6-.2 67.8 1.2l3.9-14.5c-14.3-1.6-43.6-3.3-73.7 2.2z"/><path class="st2" d="m594.5 271.5 2.3 13c34.8-6.2 71.9-5 85.4-4.2l2.9-11c-17.1-2.1-55-5.2-90.6 2.2zM599.6 298.8l2 10.8c30.2-5.6 59.2-3.9 73.6-2.3l2.9-10.8c-13.8-1.8-41.7-3.5-78.5 2.3zM671.2 321.8c-13.1-1.4-43.6-4-67.8-1.2l2 11c18.6 1.1 41.9 2.6 62.2 3.9l3.6-13.7zM617.3 364.3s4.3-6.5 10.1-8c5.7-1.5 7 0 12.1 0s13.5-4.6 15.9-1.5c2.6 3.1-2.8 11.6-7.3 13.5-4.3 1.9-9.7.3-15 2-5.3 1.7-8.8 14.7-19.3 16.6"/><path class="st2" d="M642.8 378.7c-2.3 3.1-.3 10.4 3.6 9.6-3.1 3.4-3.1 11.6-.2 12.5-3.1 2.6-1.4 6.5-.2 8-4.2 2.3-3.1 8 .3 8s13.1-7.1 15-9.6c1.9-2.5 1.5-5.1 0-6.2 5.1-5.4 4.2-12.1 1.9-13.1 5.4-9 3.4-15.9 0-15 3.4-9.7-4.3-13.1-7.1-11.3s-1.5 7.1-3.6 10.1c-2 3-7.4 3.9-9.7 7z"/><path class="st1" d="M646.3 388.3c6-2.6 15.9-11.3 16.9-15.2M646.2 400.9c1.5 1.2 12.5-5.4 16.9-12.8M646 408.9c2 2.3 12.5-3.9 15.2-7.7"/><path class="st4" d="M286.7 675.4c-1.7-11.9-1.4-23.4-.6-33.6h0c-3.6-10.1-7.1-23.2-9-38.8-2-16.7-1.7-29.9-.9-39.1h0c-1.1-5.1-2-11.1-2.8-18.1-3.1-27.2-1.1-50.9.3-62.7-5.4 3.2-12.5 5.7-20 7.3-9.3 26.5-18.4 68.7-16.9 119.4 1.7 54.9 32.2 88 49 102.3 7.7-1.2 14.7-1.9 19.8-2.3-10.6-9.8-17.2-22.1-18.9-34.4z"/><path class="st3" d="M584.2 595.3c-4.3-58.5-22.4-92.8-43.3-101-20.9-8.2-34 5.4-34 5.4-5.9-5.1-10.4-5.1-25.5-3.4.2-2.9.2-5.7 0-8.5-13.6 6-48.4 17-88.2-3.1-.2-.2-.3-.2-.6-.3-9.1 65.7-25.7 104.9-31.7 117.4 1.4 2.5 2.6 4.8 4 7.1 30.2 51.5 61.6 54 61.6 54-1.7 7.3-3.2 12.8-4.6 17.6 74.9 13.1 147.6 7 166.1 5-.9-28.6-2-62.8-3.8-90.2z"/><path class="st2" d="M499.1 450.7c-5.9-17-10.8-19.3-15.5-27.1-4.6-7.7 1.1-21.7-12.8-35.6-13.9-13.9-43-7.4-49.8-17-6.8-9.6 5.3-30.5 5.3-30.5l8.2-24.4 15-1.5c2-2.8-1.7-10.8-1.7-10.8s6.8.5 6.8-2-3.9-31.2-3.9-31.2-.8-4-1.9-9.9h0l-13.1-42.1s-63.9 17.8-64.7 17.3c-.8-.5-4.2 44.1-4.2 44.1l-28.2 92.8-26.8 21.8c17.9 6.7 51.7 20.9 80.3 41.6 41 29.9 74.6 12.4 74.6 12.4s12.7 17.6 14.2 39c.2 2.8.3 5.6 0 8.5 15.2-1.7 19.6-1.5 25.5 3.4.2.2-1.6-31.8-7.3-48.8z"/><path class="st2" d="M450.6 283.4s-4.6 0-6.7 2.2c-2 2.2-1.4 7.7 1.5 8.5 2.9.8 16.1 1.1 18.3-1.5 2.2-2.6-8.2-22-10.8-31.1-2.8-9.1-7.4-40.5-7.4-40.5l-50.7 17"/><circle class="st6" cx="469.5" cy="203.9" r="18.9"/><circle class="st2" cx="469.5" cy="203.9" r="7.7"/><path class="st1" d="M452.4 283.4c1.1 8 2.2 17 2.2 18.3 0 2.3-6.8 2-6.8 2s4.8 10.1.6 11.6c-4 1.5-6.2 2-6 5.1.2 3.1 4.3 11.6.3 17.8-4 6.2-9.4 8.7-20.3 9.9-7 .8-24.6 0-24.6 0"/><path class="st1" d="M429.5 308.3s1.7-3.6 18.1-4.6"/><path class="st3" d="M371 299.7h30.6v9.1H371z"/><path class="st2" d="M371 308.8h30.6v9.1H371z"/><path class="st1" d="M421.3 274.8c9.7-17 21.3-10.2 21.3-10.2"/><circle cx="435.6" cy="268.9" r="4.5"/><path class="st1" d="M413.2 263.2c13-12.5 25.5-9.4 25.5-9.4M506.6 499.7c6.7 5.4 30.9 48 34 102.1s3.1 86.6 3.1 86.6M277.1 603c1.9 15.6 5.4 28.8 9 38.8 1.2-16.4 3.9-29.9 2.8-37.3-1.5-9.9-7.9-17-12.7-40.7-1 9.4-1.1 22.5.9 39.2z"/><path class="st3" d="M268.6 602.7c2.5 26.9 10.1 46.9 17 60.2-.3-7.4 0-14.4.5-21-3.6-10.1-7.1-23.2-9-38.8-2-16.7-1.7-29.9-.9-39.1-1.1-5.1-2-11.1-2.8-18.1-.2-1.7-.3-3.4-.5-5.1-3.9 15.1-6.6 36.3-4.3 61.9z"/><path class="st3" d="M285.6 662.8c-7-13.3-14.5-33.3-17-60.2-2.3-25.5.5-46.7 4.2-62-.8-8.2-1.1-15.9-1.1-23-4.8 10.2-11.6 33.1-9 78.1 3.2 53.8 18.3 74.1 24 80v-.3c-.6-4.3-1-8.5-1.1-12.6z"/><path class="st4" d="M479.4 476.5c-1.5-6.3-3.9-11.9-6-16.4-8.5 3.7-39.9 14.2-81.2-14.4-41.1-28.5-76.6-42.7-86.5-46.4 0 2.3-.3 4.5-1.2 6.5-.2.6-.5 1.1-.6 1.5 21.2 11.3 53.4 49.3 93.4 68.4 37.3 17.7 73.6 4.4 82.1.8z"/><path class="st3" d="M473.4 460.1c-3.4-7-6.5-11.3-6.5-11.3s-33.6 17.5-74.6-12.4c-33.3-24.1-73.5-39.3-87.6-44.2.6 2.3 1.1 4.8 1.1 7.3 9.9 3.7 45.3 17.8 86.5 46.4 41.2 28.3 72.6 17.9 81.1 14.2z"/><path class="st3" d="M407 485.8c-33.7-11.6-89.9-63.7-105-74.6-.6 1.2-1.2 2.2-1.9 3.1 24.4 22.1 59.6 53.7 93 70.5 39.8 20.1 74.6 9.1 88.2 3.1-.2-1.9-.3-3.7-.6-5.4-11.6 4.1-43.7 13.6-73.7 3.3z"/><path class="st3" d="M480.5 482.4c-.3-2-.8-3.9-1.2-5.9-8.5 3.6-44.9 16.9-82.1-.8-40.1-19-72.2-56.9-93.4-68.4-.6 1.4-1.2 2.6-1.9 3.9 15.2 10.8 71.5 63 105 74.6 30.1 10.3 62.2.8 73.6-3.4zM184.6 343.6c5.1 15.9 12.2 27.4 24.9 32.5-6.5-9.4-14.2-22.6-17.3-34.3-3 .4-5.5 1-7.6 1.8zM209.3 340.5c7.9 22 20.1 33.9 26.3 38.7 2 0 4.2-.2 6.2-.2-7.7-7.9-21.8-23.7-26.8-38.2-1.8-.1-3.8-.3-5.7-.3z"/><path class="st4" d="M209.3 340.5c-7.1-.2-12.7.3-17.3 1.1 3.1 11.8 10.8 24.9 17.3 34.3 3.4 1.4 7.1 2.3 11.4 2.8 4.3.5 9.4.5 14.7.5-5.8-5-18-16.7-26.1-38.7z"/><path class="st3" d="M215.2 340.7c5 14.5 19 30.3 26.8 38.2 2.5-.2 5-.3 7.3-.5-6.5-6.7-18.7-20.4-26.8-37.1-2.5-.2-5-.5-7.3-.6z"/><path class="st2" d="M213.8 351c-1.2-2.6-2.5-5.4-3.6-8.4-1.5-1.2-3.6-2-5.7-2.2h-1.7c-4.2.5-7.7 3.7-8.5 7.9 1.4 3.6 2.9 7.1 4.8 10.5 1.4.8 3.1 1.2 5 1.2 5.1.2 9.4-3.9 9.7-9zM225.1 368.5c-2.3-2.8-4.6-6.2-7.1-10.1-.9-.3-1.9-.5-2.8-.5-5.4 0-9.9 4.5-9.9 9.9 0 .6 0 1.2.2 1.9 1.4 2.2 2.6 4.2 4 6 2 .8 4.2 1.4 6.3 1.9 5 0 9-4 9.3-9.1z"/><path class="st3" d="M214.3 367.4c1.5 2.5 5.7.3 8.5-1.5-1.1-1.5-2.2-3.1-3.4-4.8-2.5 1.1-6.8 3.6-5.1 6.3zM204.1 348.9c1.5 3.1 6.2 1.7 9 .6-1.1-2.2-2-4.5-2.9-6.8-3.2.9-7.5 3.2-6.1 6.2zM260.5 456.4c9-2.3 17.6-7 23.5-10.5v-7c-4.3 2.5-11.6 5.9-22.4 8.4-6.5 1.5-11.9 1.9-16.4 1.7-2 3.1-4.2 6.2-6.2 9 5.6.4 13.3.4 21.5-1.6z"/><path class="st4" d="M259.3 465.2c-12.4 2.3-20.6 1.5-26 .2-5.6 7.3-10.4 13.1-12.5 17.3 8 1.5 20.6 2.6 33.9-.5 13.1-3.1 22.6-8.5 28.2-12.5.6-4.3 1.1-10.2 1.2-16.7-4.2 4.5-11.7 9.7-24.8 12.2z"/><path class="st3" d="M220.8 482.8c-1.2 2.5-1.7 4.5-.6 5.7 6.2 8.2 51.5 2.8 60.8-12.1.8-1.4 1.5-3.7 2-6.8-5.6 4-15 9.4-28.2 12.5-13.3 3.4-26 2.1-34 .7zM259.3 465.2c13.1-2.5 20.6-7.7 24.8-12.1 0-2.5.2-4.8.2-7.4-5.9 3.7-14.5 8.2-23.5 10.5-8.2 2.2-15.9 2-21.5 1.5-2 2.6-3.9 5.1-5.7 7.6 5.1 1.5 13.5 2.2 25.7-.1z"/><path class="st2" d="M254 466.1c-3.9.5-7.4.8-10.4.6-2.9 1.9-5 5.3-5 9 0 3.4 1.5 6.3 4 8.4 3.9-.3 7.9-.8 11.9-1.7 1.4-.3 2.6-.6 3.9-1.1.9-1.7 1.5-3.6 1.5-5.6.3-4.2-2.2-7.9-5.9-9.6zM237.2 473.9c0-3.4-1.5-6.3-3.9-8.4-5.6 7.1-10.2 13-12.4 17.2 2.6.5 5.7.9 9.1 1.2 4.2-1.4 7.2-5.4 7.2-10zM275.8 459.5c-3.6 2-8.2 3.9-13.9 5.3-.6 1.4-1.1 2.9-1.1 4.6 0 4 2.2 7.6 5.6 9.4 6.8-2.8 12.2-5.9 15.9-8.5v-.9c0-4.5-2.6-8.4-6.5-9.9zM345.5 665.7c-34.3-36-59.2-137.8-66.8-186.4h0c-1.4 1.4-3.1 2.6-5.1 3.9-1.5 11.8-3.6 35.4-.3 62.7 4.5 38.7 13.6 46.9 15.5 58.8 1.9 11.9-6.3 39.8-2 70.9s39.8 63.4 94.7 49.5c16.2-4.2 24.3-13.6 27.5-18.9-10-1.7-32.9-8.5-63.5-40.5z"/><path class="st3" d="M236.9 609.7c-1.5-50.7 7.6-93 16.9-119.4-2.9.6-5.9 1.1-8.7 1.4-5.9 13.9-13.6 43.2-15.9 102.4-2.9 78.6 34.5 109.8 49.5 119.3 2.5-.5 4.8-.9 7.3-1.2-17-14.3-47.6-47.6-49.1-102.5zM422.8 675.6l3.6-12.7s-31.4-2.6-61.6-54c-34.7-59.1-59.7-161.7-66.8-192.4-1.2.9-2.6 1.4-4.2 1.7 13 74.6 44.9 168.5 70.5 211.6 24.8 41.5 55.4 45.5 58.5 45.8z"/><path class="st3" d="M364.3 629.6c-25.7-43.2-57.5-137.1-70.5-211.6-.6.2-1.2.2-2 .2s-1.5-.2-2.3-.5c1.7 15 8.8 67 28.9 124.7 24 68.5 46.9 110.6 71.5 127.2 17.6 11.9 30 11.1 31.6 11l1.4-5c-3.2-.3-33.8-4.3-58.6-46z"/><path class="st3" d="M348.1 655.2c-30.5-34.5-56.5-147.4-64.8-187.6-.5 4.2-1.2 7.4-2.3 9-.6.9-1.4 1.9-2.2 2.8 7.4 48.6 32.5 150.4 66.8 186.4 41.5 43.3 68.8 40.7 68.8 40.7l1.9-6.5c-9.1-2-37.4-9.9-68.2-44.8z"/><path class="st4" d="M389.9 669.6c-24.4-16.6-47.5-58.5-71.5-127.2-20.1-57.7-27.2-109.7-28.9-124.7-2.9-1.2-4.8-4.3-5.7-6.5-.2 0-.5.2-.6.2.6 11.1 2 40.5 0 56.2 8.5 40.2 34.3 153 64.8 187.6 30.9 35 59.2 43 68.1 44.7l5.3-19.2c-1.7 0-14.1.8-31.5-11.1z"/><path class="st2" d="M293.6 446c-1.2-7.3-2.2-13.5-2.9-18.6-.6-.2-1.4-.2-2-.2-1.7 0-3.4.5-4.8 1.2.2 5.6.3 11.8.3 17.6 1.4.8 2.9 1.1 4.6 1.1s3.3-.3 4.8-1.1zM298.6 471.5c-1.5-7.3-2.9-14.1-4-20.1-.9-.3-1.9-.3-2.9-.3-2.9 0-5.6 1.1-7.7 2.9-.2 5.1-.5 9.7-.9 13.6.2.9.5 2 .6 3.1 2 2 4.8 3.1 7.9 3.1 2.7.1 5-.9 7-2.3zM304.3 496c-1.7-6.3-3.1-12.5-4.5-18.4-1.2-.5-2.6-.8-4-.8-4 0-7.6 2-9.6 5.3 1.1 5 2.3 10.2 3.7 16.1 1.7 1.1 3.7 1.7 5.9 1.7 3.4-.2 6.5-1.6 8.5-3.9zM312.7 525.2c-1.7-5.7-3.4-11.3-5-16.7-1.4-.6-2.9-.9-4.6-.9-4 0-7.6 2-9.6 5.3 1.2 5.3 2.6 10.7 4.2 16.2 1.5.9 3.6 1.4 5.4 1.4 4 0 7.5-2.2 9.6-5.3zM321.3 550.8c-.9-2.6-2-5.4-2.9-8.2-.3-1.1-.8-2.2-1.1-3.2-2-1.5-4.5-2.5-7.1-2.5-3.7 0-7.1 1.9-9.3 4.6 1.5 5.7 3.2 11.6 5 17.3 1.4.5 2.8.8 4.2.8 5.5 0 10-3.9 11.2-8.8zM344.4 607.2c-2.2-4.6-4.5-9.6-6.7-14.7-1.5-.8-3.4-1.1-5.3-1.1-6.3 0-11.4 4.6-12.2 10.8 1.4 3.9 2.9 7.6 4.3 11.1 2.2 1.7 5 2.8 7.9 2.8 5.8-.1 10.6-3.8 12-8.9zM357.2 631.2c-2.3-4-4.8-8.4-7.1-12.8-1.5-.8-3.2-1.1-5.1-1.1-6.8 0-12.4 5.6-12.4 12.4v1.2c1.4 2.9 2.9 5.7 4.3 8.4 2.2 1.9 5 2.8 7.9 2.8 6.4-.1 11.6-4.7 12.4-10.9zM375.5 656.7c-3.7-4.2-7.4-9-11.1-14.4-.9-.2-1.7-.3-2.6-.3-7.3 0-13.1 5.6-13.9 12.7.2.2.3.3.3.5 5 5.6 9.7 10.4 14.4 14.7 6.8-.7 12.4-6.2 12.9-13.2zM385.4 666.2c-5.7 2.3-9.7 7.9-9.7 14.4 8.7 6.3 16.4 10.5 23 13.5 4.6-2.6 7.9-7.7 7.9-13.5 0-.9-.2-1.7-.2-2.5-4.6-1.7-10.2-4.2-16.6-8.5-1.5-1.1-3-2.2-4.4-3.4zM333.4 582.2c-2.5-6.2-5.1-12.7-7.7-19.5-1.1-.3-2.3-.5-3.6-.5-5.9 0-10.7 3.7-12.5 9 1.5 5 3.2 9.9 4.8 14.9 2.2 1.5 4.8 2.5 7.6 2.5 4.9-.1 9.1-2.7 11.4-6.4zM305.7 709.8c-7.4-6.8-12.8-14.9-16.1-23.2-6.8 1.9-11.9 8-11.9 15.6 0 .9.2 1.9.3 2.6 2.8 2.8 5.6 5.3 7.9 7.3 7.6-1.2 14.7-2 19.8-2.3zM254.8 532c-5.6 0-10.5 2.8-13.5 7.1-.8 4.5-1.4 9-2 13.8 2 6.7 8.2 11.3 15.5 11.3 2.8 0 5.3-.6 7.6-1.9.6-10.7 1.9-19.2 3.2-26.1-2.8-2.6-6.6-4.2-10.8-4.2zM262.2 584c-2.9-3.9-7.6-6.5-12.8-6.5-5 0-9.4 2.3-12.4 5.7-.3 6.7-.3 13.5-.3 20.4 2.9 3.7 7.6 6.2 12.7 6.2 5.9 0 11-3.1 13.9-7.9-.2-2-.3-4-.5-6.2-.4-4.1-.6-8-.6-11.7zM253.9 613.6c-7.7 0-14.1 5.4-15.8 12.5.6 4.3 1.4 8.5 2.3 12.7 2.9 4.3 7.7 7.1 13.3 7.1 6.3 0 11.9-3.7 14.5-9.1-1.4-5.6-2.6-11.8-3.6-18.9-2.5-2.8-6.4-4.3-10.7-4.3zM270.1 653.6c-9 0-16.1 7.3-16.1 16.1 0 1.5.3 3.1.6 4.6 1.4 2.5 2.8 4.8 4.3 7 2.9 2.8 6.8 4.5 11.1 4.5 7.3 0 13.5-5 15.5-11.6-2.9-3.4-7.4-9.6-11.6-20.3-1.2-.1-2.5-.3-3.8-.3zM272.6 494.1c-2.6-2-6-3.2-9.6-3.2-4.2 0-7.9 1.5-10.7 4.2-1.7 5-3.2 10.5-4.8 16.4 1.9 6.8 8.2 11.8 15.5 11.8 2.6 0 5-.6 7.1-1.7.6-1.4 1.1-2.6 1.5-3.9.1-9 .4-17.1 1-23.6z"/><path class="st3" d="M254.5 631.2c1.1 3.1 7.4 1.5 12.8.3-.5-2.2-.9-4.3-1.2-6.8-3.9.9-12.7 3.4-11.6 6.5zM252.5 549.8c0 3.2 7.1 5 10.5 5.4.3-3.2.6-6.3 1.1-9.3-3.7.1-11.6.5-11.6 3.9zM262.4 589.9c-4 .6-10.2 2.3-9.9 5.6.3 3.4 6.7 3.1 10.4 2.6 0-.8-.2-1.5-.2-2.3-.2-2-.2-4.1-.3-5.9zM276.6 660.4c-3.2 2.9-9.1 8.7-7 11 2 2 7.1-1.7 10.4-4.5-1.1-2-2.1-4-3.4-6.5zM259.9 507c.2 2.6 6.8 4.5 11.8 5.4 0-3.4.2-6.7.3-9.7-4.2.1-12.2 1-12.1 4.3z"/><path class="st1" d="M588 703.9c-27.8 4.8-125.9 7-171.4-8.4-2.9 8.5-5 16.4-5.6 32.8"/><path class="st6" d="M420 72.9c-10.4-4.6-150.5 41.3-150.5 61.4 0 13.5 12.7 8 35.3 35.9 44.9-24.8 105.2-44.4 120-49-2-23.9-.9-46.4-4.8-48.3z"/><path class="st2" d="M426.4 135.9c-.8-4.8-1.2-9.9-1.7-14.9-14.9 4.6-75.2 24.3-120 49 5.9 7.3 12.5 16.9 19.8 29.5 41.6-25.1 87.9-40.2 105.3-45.5-1.3-5.6-2.5-11.8-3.4-18.1z"/><path class="st6" d="M324.4 199.7c6 10.5 12.4 23.4 19.2 38.7 1.4-.3 2.8-.5 4.3-.5 1.9 0 3.7.3 5.4.8 19.6-11 71-39.6 87.1-46.3-2.6-7.4-7.1-21.5-10.8-38.2-17.3 5.3-63.6 20.5-105.2 45.5z"/><path class="st1" d="M377.6 411.1c2.5 4.5 5.1 17.9 5.1 17.9M466.9 448.8c0-16.7-6.8-36.2-6.8-36.2"/><path class="st3" d="M237.6 343.6c-5.6-.9-10.5-1.7-15-2.2 1.2 2.6 2.6 5.1 4 7.4l15.5-4.3c-1.5-.4-3.1-.7-4.5-.9zM268.6 361.1l-25.8 10.4c2.5 2.8 4.6 5.3 6.5 7.1 3.6-.3 7.1-.5 10.4-.8l11.9-13.3c-1-1.2-1.9-2.3-3-3.4z"/><path class="st3" d="M233.8 360c3.1 4.3 6.2 8.2 9.1 11.4l6.7-2.6 8.5-15.6-24.3 6.8z"/><path class="st3" d="m259.3 352.9-1.4.5-8.5 15.6 19.2-7.7c-2.5-3-5.6-5.8-9.3-8.4zM226.5 348.9c2.3 4 4.8 7.7 7.3 11.1l.6-.2 5.6-14.7-13.5 3.8z"/><path class="st3" d="m242 344.5-2.2.6-5.6 14.7 25.1-7c-4.8-3.5-10.5-6.4-17.3-8.3zM272.6 383.5l-5.9-6.3c-1.7 1.4-3.4 3.2-4.8 5.6-.2.3-.5.8-.6 1.1l10.5 6.5c-.1-2.5 0-5 .8-6.9zM274.8 380.7c2-.9 5.4-2.3 9.3-2.9-2.2-6-10.5-6.3-17.3-.6l5.9 6.3c.4-1.4 1-2.3 2.1-2.8z"/><path class="st3" d="m271.8 390.2-10.5-6.5c-5.1 8.8-3.7 17.3-1.4 22.3l12.1-14c0-.6-.2-1.2-.2-1.8zM273.2 396.5c-.5-1.1-.9-2.8-1.1-4.5l-12 14c.6 1.2 1.4 2.3 2 2.9 1.1 1.1 3.7 2.2 7 2.9l5-14.5c-.6-.2-.9-.5-.9-.8z"/><path class="st3" d="m273.8 397.3-5 14.5c4.3.9 9.7 1.1 14.2-.5l-.6-14.2c-3.2.8-6.9 1.4-8.6.2zM283.7 411.2c1.2 2.8 3.9 7 8 7 2.6 0 4.6-.6 6.3-1.9l-9.3-8.2c-1.4 1.4-3.1 2.3-5 3.1zM298.4 380.7l-8.8 16.7c1.2 1.2 2.5 2.9 2 5.4l13.9-1.5c.8-7.4-2.7-16.2-7.1-20.6zM304.5 405.8c.6-1.4.9-2.8 1.1-4.3l-13.9 1.5c-.3 1.2-.9 2.8-2.3 4.5-.2.3-.5.5-.6.6l9.3 8.2c2.3-1.8 4.2-5.1 6.4-10.5z"/><path class="st3" d="m282.2 378.1-2.6 19.6c3.6-.6 7.3-2 7.3-2s1.5.6 2.8 1.7l4.2-8-8.7-11.9c-1 .1-2.1.3-3 .6zM296 378.7c-2.9-1.7-7-1.7-10.7-1.2l8.7 11.9 4.6-8.8c-.9-.6-1.9-1.4-2.6-1.9z"/><path class="st3" d="M282.2 378.1c-3.1.8-5.7 1.7-7.4 2.6-.9.5-1.5 1.4-2 2.5l7.7 7.3 1.7-12.4z"/><path class="st3" d="M272.7 383.1c-1.7 3.7-.9 10.2.5 13.5.8 1.7 3.6 1.7 6.3 1.2l1.1-7.4-7.9-7.3zM276.2 414.9l-1.2-2.3c-5.6-.2-10.8-1.7-12.7-3.4 0 .3-.2.5-.2.8l7.7 14.7c2.8-3.7 5-7.1 6.4-9.8z"/><path class="st3" d="m269.8 424.5-7.7-14.7c-.8 4.6-2 9-3.6 13.3l3.7 9.3c3-2.5 5.6-5.3 7.6-7.9zM262.2 432.6l-3.7-9.3c-1.7 5-4 9.7-6.3 14.4l.6 1.7c3.6-2.2 6.6-4.5 9.4-6.8z"/><path class="st3" d="M252 437.5c-.5.9-1.1 2-1.5 2.9.8-.5 1.5-.8 2.3-1.2l-.8-1.7zM277.2 412.5h-2.5l1.2 2.3c.7-.8 1-1.7 1.3-2.3zM283.9 428.9c0-1.7-.2-3.2-.2-4.8l-1.5 1.7 1.7 3.1z"/><path class="st3" d="m283.9 428.9-1.7-3.1-7.4 8 4 7.7c2-.9 3.9-1.9 5.3-2.6-.1-3.6-.2-6.8-.2-10zM262.5 447c1.7-.5 3.4-.9 5-1.4l-1.1-2.8-3.9 4.2z"/><path class="st3" d="m266.4 442.8 1.1 2.8c4.5-1.4 8.4-2.8 11.3-4.2l-4-7.7-8.4 9.1zM250.5 440.5c-1.7 2.9-3.4 5.7-5.3 8.5 3.2.2 7 0 11.1-.8l-3.7-9c-.6.3-1.4.8-2.1 1.3z"/><path class="st3" d="m262.2 432.6 4.2 10.4 8.4-9.1-5-9.3c-2 2.5-4.6 5.3-7.6 8zM269.8 424.5l5 9.3 7.4-8-6-10.8c-1.4 2.6-3.6 6-6.4 9.5z"/><path class="st3" d="m282 425.8 1.5-1.7c-.2-5.1-.5-9.6-.6-12.7-1.9.6-3.7.9-5.7 1.1-.3.8-.8 1.5-1.2 2.5l6 10.8zM262.2 432.6c-2.8 2.3-5.9 4.6-9.4 6.7l3.7 9 5.1-.9c.3 0 .6-.2.9-.2l3.9-4.2-4.2-10.4zM305.4 419l-.6 25.7c3.2 12.5 7.3 27.4 11.9 43.5 1.2-17.5 1.7-45.2 1.7-57.4-4.5-4.1-8.8-8.1-13-11.8z"/><path class="st3" d="M318.5 430.7c-.2 12.2-.5 39.9-1.7 57.4 4.2 13.9 8.8 28.6 13.9 43.3 7.7-16.6 9.9-66.1 10.4-81.7-7.9-6.3-15.4-12.8-22.6-19zM300.1 414.2c-.6.9-1.4 1.7-2.2 2.2 1.5 6.5 3.9 16.4 6.8 28.3l.6-25.7c-1.8-1.6-3.5-3.3-5.2-4.8zM366.3 468.6c-1.9 47.8-16.2 84-22.4 97.5 5.3 12.7 11 24.8 16.9 35.6 5.9-12.4 22.6-51.7 31.7-117.4-8.7-4.2-17.5-9.7-26.2-15.7z"/><path class="st3" d="M341.1 449.7c-.5 15.6-2.6 65-10.4 81.7 4.2 11.8 8.5 23.5 13.3 34.8 6.2-13.5 20.4-49.5 22.4-97.5-8.7-6-17.1-12.5-25.3-19z"/><path class="st1" d="M321.5 503.6c63.4 0 93.3-10.7 93.3-10.7M334 477l-36-60.5s43.6 44.4 49.3 60.5"/><path class="st1" d="M343.9 456.2c-21.3 5-38.2-9-38.2-9"/><path class="st3" d="M385.5 480.7s-48 1.5-71.3-1.4"/><path class="st1" d="M336.6 520.7c-1.9-8.7-29.9-72.6-29.9-72.6M377 494c14.2 21.3 44.4 22.7 44.4 22.7"/><path class="st1" d="M418.9 494c-.6 1.4-5.1 29.5-5.1 29.5"/><path class="st1" d="M327.8 523.1c84.5 3.4 116.2-26.9 116.2-26.9l-1.9 7.4M469.8 497.2l2.5-6M345.9 570.9c9 .9 36.7-4.8 36.7-4.8M360.9 555.5c9.1 1.1 32-13.8 32-13.8s-41.9 10-56.9 4.3M372.5 572.1c26 37.7 61.7 59.1 61.7 59.1s77.3 45.2 81.7 58.3M366.5 588.5c21.7 38.1 62.7 62.8 62.7 62.8M425.6 666.2c15.5 3.1 28.8 18.9 28.8 18.9M384.7 559.6s20.9 30 55.2 49c34.3 19.2 111.4 69.6 118.3 79.2M396.8 538.7c-.3.3 24.1 35 59.7 54.9 35.6 20 102.6 53.5 131.2 91.9M412.3 524.6c10.5 18.4 30.2 27.4 77.8 56.3 47.6 28.9 96.7 70.1 96.7 70.1M429.1 511.8c23.8 25.2 84 52.6 109.5 71.2s46.7 36.8 46.7 36.8M448.9 500.5c10.2 16.2 62.7 39.9 83.2 52.6s51.8 42.2 51.8 42.2"/><path class="st1" d="M580.4 565.9s-26.5-27.2-53.5-40.5c-27.1-13.5-45.8-28.9-45.8-28.9s-81.8 119.4-95.3 133.3M513.3 496.1l58.2 36.4M424.4 516.7s-29.7 49.7-47 71.6M456.5 499.7C439 531.9 380.1 608 380.1 608"/><path class="st1" d="M396.8 648.1c9.7-4 68.4-84.5 79.4-102.3s23.8-49.7 23.8-49.7"/><path class="st1" d="M434.9 552.6c0 1.2-.5 76.3-14.7 107.8 1.2-17.2 1.2-29.7 1.2-29.7M431.5 642c88.8-112.2 88.8-149.1 88.8-149.1M545 497.2c-29.4 74.4-118.7 184.1-118.7 184.1M560.8 511.8C555.1 567.5 454.2 685 454.2 685"/><path class="st1" d="M573.6 538.7c-8.8 43.3-85 149.3-85 149.3s-46.4-28.6-59.9-34.2M582.9 583.1c-16.6 35.4-63.1 105.7-63.1 105.7M585.9 627.5c-7.4 16.7-39.1 60.8-39.1 60.8M586.8 663.8l-14.9 23.1"/><path class="st1" d="M504.8 507.9c22.1 58.2 27.5 124.4 27.5 124.4M551.4 613.2c-1.2-43.3-19.6-85.5-19.6-85.5 18.6 22.9 27.8 55.4 27.8 55.4"/><path class="st2" d="m332.5 365.3 10.9 13.4 35 2-.8-32.6-45.1-1.4zM332.5 298.4v48.3l45.1 1.4-1-48.4z"/><path class="st2" d="m375.3 241.5-42.8 25.8v31.1l44.1 1.3z"/><path class="st1" d="m352.4 283.4.5 15M361.7 283.4l.5 15M369.4 283.4l.5 15M353 327.4l-.1 19.2M363.9 327.4l-.2 19.2M371.6 327.4l-.2 19.2M350.4 366l.2 12M361.2 366l.2 13.5M370.5 366l.2 13.5"/><path class="st3" d="M338 246.5c-2.8-9.9-7.3-39.4-28.3-39.4-21.2 0-26.8 22.7-20.1 30.9 6.7 8.2 23.7 5.4 27.4 18.9 3.7 13.5-3.1 16.2-3.1 16.2s-13.9 44.4-24.8 77.3c16.6 7.9 45.8 9.1 54.3 9.3-.4-32.9-1.3-98.5-5.4-113.2zM286.8 357.4c-1.4 4.3-2.8 8.5-4 12.1 5.1 7.7 60.6 9.3 60.6 9.3v-12.7c-11.4-.7-38.2-2.8-56.6-8.7z"/><path class="st3" d="M343.3 359.7c-8.5-.2-37.6-1.4-54.3-9.3-.8 2.3-1.5 4.8-2.3 7 18.6 5.9 45.2 8 56.6 8.7v-6.4z"/><path class="st1" d="M306 222.8s25.4 6 19 64.7c-6.2 58.8-9.6 88.2-9.6 88.2"/><path class="st3" d="M331.8 256.8h-15c-1.1-4.2-3.6-6.8-6.7-8.7-5 5.9-7.4 17.8-1.5 24 7.4 7.7 29.9-3.1 29.9-3.1s-4.2-12.2-6.7-12.2z"/><path class="st5" d="m449.9 226.7 3.1 16.7-17.8 2-3.1-16.3z"/><path class="st6" d="M345.8 243.1s94.8-53.7 99.5-52.1c4.6 1.5 4.6 35.6 4.6 35.6l-89.7 34-14.4-17.5z"/><circle class="st6" cx="348.1" cy="256.8" r="18.9"/><circle class="st2" cx="348.1" cy="256.8" r="7.7"/><circle class="st2" cx="401.8" cy="128.1" r="8.2"/><circle class="st2" cx="384.3" cy="134.9" r="8.2"/><circle class="st2" cx="349.2" cy="148.5" r="8.2"/><circle class="st2" cx="366.8" cy="141.7" r="8.2"/><circle class="st2" cx="331.7" cy="155.3" r="8.2"/><circle class="st2" cx="314.2" cy="162" r="8.2"/><circle class="st2" cx="399.8" cy="145.6" r="8.2"/><circle class="st2" cx="382.4" cy="152.9" r="8.2"/><circle class="st2" cx="347.8" cy="167.6" r="8.2"/><circle class="st2" cx="365.1" cy="160.3" r="8.2"/><circle class="st2" cx="330.6" cy="175" r="8.2"/><circle class="st2" cx="417.1" cy="138.2" r="8.2"/><circle class="st2" cx="419.9" cy="153.8" r="8.2"/><circle class="st2" cx="402.7" cy="161.2" r="8.2"/><circle class="st2" cx="368.2" cy="176.1" r="8.2"/><circle class="st2" cx="385.4" cy="168.7" r="8.2"/><circle class="st2" cx="350.9" cy="183.5" r="8.2"/><circle class="st2" cx="333.7" cy="190.9" r="8.2"/><path class="st2" d="M419.4 113.3c-4.5 0-8.2 3.7-8.2 8.2s3.7 8.2 8.2 8.2c2.3 0 4.5-.9 5.9-2.6-.5-4-.8-8-.9-11.9-1.4-1.3-3.1-1.9-5-1.9zM321.3 182.1c-.2-4.5-3.9-8-8.4-7.9-1.5 0-2.9.6-4.2 1.4 2.9 3.9 5.9 8.4 9.1 13.5 2.3-1.7 3.7-4.2 3.5-7z"/><path class="st5" d="m442.9 279.7 1.1 5.9c-2 2.2-1.4 7.7 1.5 8.5 2.9.8 16.1 1.1 18.3-1.5 1.4-1.9-2.6-10.8-6.3-19.3-7.2 2.6-14.6 6.4-14.6 6.4z"/><path class="st3" d="M444 285.6c1.2-1.4 3.7-1.9 5.3-2l-1.1-6.3-18.9 1.1 1.5 15.2 12.4-1.2c-.6-2.5-.4-5.4.8-6.8z"/><path class="st5" d="M442.6 338.2c4-6.2-.2-14.7-.3-17.8s1.9-3.6 6-5.1c1.4-.5 1.7-1.9 1.7-3.6-11 .5-28.8 5-28.8 8.2 0 3.6 1.9 19.3 2.6 27.8 10-1.1 15.1-3.6 18.8-9.5z"/><path class="st3" d="M259.6 377.6c2.5-.2 5-.5 7.1-.6 3.6-2.9 7.4-4.2 10.8-4-1.2-2-3.2-5.3-6-8.7l-11.9 13.3zM272.7 468.8c1.9-.6 1.5-4.8.9-8-2.2 1.1-4.5 2-7.1 2.8 1.6 2.4 4.1 5.8 6.2 5.2zM250.5 475.7c2.9 0 2.9-5.9 2.6-9.6-2.2.3-4.3.5-6.2.5.2 3.7.8 9.1 3.6 9.1zM233.3 465.7s-4.5 5.7-6.3 8.2c6.8 2.8 8.6-5.8 6.3-8.2z"/><path class="st2" d="M333.5 412.8c0-.5 0-.9-.2-1.4-7.1-3.4-13.1-6.2-17.9-8.2-2.8 1.9-4.6 4.8-5 8.4 4.6 3.2 9.7 7.4 15.3 12.1 4.6-1.7 7.8-6 7.8-10.9zM357.2 427c0-1.2-.2-2.3-.5-3.4-5.6-3.1-11-6-15.9-8.5-5.1 1.7-8.8 6.3-8.8 12.1 0 .6 0 1.2.2 2 4 3.4 8.2 7 12.5 10.7 6.8-.4 12.5-5.9 12.5-12.9zM382.7 446c0-3.4-1.4-6.7-3.6-9-1.9-1.2-3.9-2.5-5.7-3.6-1.2-.3-2.6-.6-3.9-.6-7.3 0-13.1 5.9-13.1 13.1 0 1.2.2 2.5.5 3.7 4 3.2 8.4 6.3 12.7 9.4h0c7.3.2 13.1-5.7 13.1-13zM413.8 463.7c0-2.3-.6-4.6-1.5-6.7-4.8-2.2-9.9-4.8-15-8-7.3.9-13 7.1-13 14.7 0 2 .5 3.9 1.1 5.6 3.9 2.3 7.9 4.5 12.1 6.3 1.9.9 3.6 1.5 5.4 2.3 6.1-1.6 10.9-7.3 10.9-14.2zM437.7 464.4c-3.9-.5-8-1.4-12.2-2.5-6 1.5-10.4 7-10.4 13.5 0 2.6.8 5 1.9 7 7.9 1.7 15.5 2.3 22.6 2.2 2.2-2.5 3.6-5.7 3.6-9.3-.1-4.4-2.3-8.4-5.5-10.9zM471.4 475.7c0-5.9-4.2-11-9.9-12.1-2.5.5-5.1.9-8 1.1-4 2-6.7 6.2-6.7 11 0 3.1 1.2 6 3.1 8.2 8.4-.9 15.5-2.6 20.9-4.3.4-1.2.6-2.5.6-3.9z"/><path class="st3" d="M401.8 477.6c.6-3.2 1.2-8.4-.6-9.9-2-1.7-6.2 3.1-8.2 5.9 1.4.8 2.9 1.5 4.3 2.2 1.5.5 2.9 1.2 4.5 1.8zM344.5 428.5c-1.9-1.4-5.3 2.2-7.4 4.6 1.7 1.5 3.6 2.9 5.3 4.5 1.7-2.6 4.1-7.7 2.1-9.1zM369.6 448.8c-2.3-1.5-5.6 2.3-7.4 5 2.2 1.5 4.3 3.2 6.5 4.8 1.5-3.1 3.2-8.2.9-9.8zM324.3 412.8c-2.3-1.5-6.5 4.3-6.5 4.3h0c1.4 1.1 2.8 2.2 4.2 3.4 1.5-2.3 4-6.7 2.3-7.7zM459.2 475.7c-2.2.2-2.5 3.9-2.2 7.1 2.3-.5 4.5-.9 6.5-1.4-.8-2.4-2-6-4.3-5.7zM429 477c-2.6 0-4 4-4.6 6.8 3.1.5 6 .6 9 .8-.7-3.3-1.8-7.6-4.4-7.6z"/><path class="st1" d="M374.1 604.6c1.2-1.5 7-46.4 18.3-60.6 11.3-14.2 41.9-36.7 52.1-41.3 10.2-4.6 36.8-6.2 36.8-6.2M453 556.6l-26.6 106.3"/><path class="st3" d="M346.4 631.2c1.9 2.6 6.5 0 9.4-2-1.2-2-2.3-4.2-3.6-6.3-2.7 1.8-7.8 5.4-5.8 8.3zM321.3 573.8c1.5 3.7 6.2 2.2 9 .6-.9-2.3-1.9-4.6-2.8-7.1-3.2 1.1-7.6 2.9-6.2 6.5zM333.4 603c1.4 3.2 6.2 1.9 9.3.3-1.2-2.6-2.5-5.3-3.7-8-3 1.6-7.2 4.3-5.6 7.7zM391.1 681.5c2.8.9 6.3-2.9 8.7-6.2-2.3-1.1-4.6-2.3-7.1-3.9-2.1 3.4-4.7 9-1.6 10.1zM361.5 655.9c2.2 1.9 6.8-1.4 9.7-4-1.5-1.9-2.9-3.9-4.5-5.9-2.5 2.4-7.6 7.8-5.2 9.9zM286.7 437.2c0 1.7 3.2 1.9 5.7 1.9-.3-2-.6-3.9-.9-5.6-2 .6-4.8 2-4.8 3.7zM303.1 519c1.1 2.2 5.4 1.2 7.9.6-.6-2.2-1.2-4.3-1.9-6.3-2.8 1.1-7.1 3.6-6 5.7zM318.1 541.8c-3.2 1.2-7.6 3.4-7 6.3.6 3.2 5.9.8 9-.9-.6-1.5-1.1-3.2-1.7-4.8-.2-.2-.2-.5-.3-.6zM296.7 488.3c.3 2.5 3.6 1.9 6 1.1-.5-1.9-.9-3.7-1.4-5.6-2.3.7-4.9 2.1-4.6 4.5zM289.5 462.4c.2 2 4.5 2 7.6 1.7-.5-2.3-.9-4.5-1.2-6.7-2.9 1.2-6.6 2.9-6.4 5zM322.1 629.5c-1.7-3.6-3.4-7.1-5-11-13-.3-30.2-3.1-35.9-14.1-.6 2.9-1.1 6.2-1.1 9.7 0 1.7.2 3.1.3 4.5 12.8 10.3 29.5 11.7 41.7 10.9z"/><path class="st3" d="M317.1 618.5c-1.7-3.9-3.4-7.9-5-12.1-6.7.6-15.5.6-23.5-2-.6-3.7-1.9-7-3.4-11-1.4 2.8-2.9 6.5-3.9 10.8 5.7 11.2 22.9 14 35.8 14.3zM322.1 629.5c-12.2.8-29.1-.6-41.6-10.7 2 12.2 12.4 16.6 25.1 18.3 6.8.9 14.2.5 20.3-.2-1.3-2.5-2.6-4.9-3.8-7.4zM288.2 704.8c1.7 1.5 6.7-1.1 9.9-2.9-1.7-2.2-3.2-4.3-4.5-6.7-2.9 3-7.2 7.9-5.4 9.6z"/><path class="st2" d="M521.5 817.8c-11.9-2.9-32.2-10.1-37.9-18.9s-14.2-7.4-17.5-17.8c-2.5-7.7-.5-26.6.8-35.7-15.5-.9-29.7-2.5-40.7-5-1.1 8.7-4.2 27.8-9.4 42.4-7 19.5-16.6 32.2-14.2 36.5 4.5 8.8 26.8 3.9 33.9 5.4 7.1 1.5 15.5 8 22.6 9.7 7.3 1.9 10.5 1.9 17.8 3.1s7.3 1.2 9.3 1.2c0 3.1 7 7.7 11.1 3.6.3 3.1 7 8.8 10.8 3.1 1.5 5.1 8 5.9 11 0 1.2 5.1 7.6 7 10.4 0 4.6 2.3 16.2-.5 14.2-10.5-2.1-10-10.3-14.2-22.2-17.1zM586.5 806.2s11.1-3.1 15-1.7c3.9 1.2 5.4 7.1 5.4 7.1l-20.4 5.7v-11.1z"/><path class="st2" d="M591 811.6s12.7-2.8 17.5-2.8c4.8 0 5.7 5 5.7 5l-10.5 9.7-12.7-11.9z"/><path class="st2" d="M599.2 816.5s19.6-7.1 23.5-4.3c3.9 2.6 0 8.8 0 8.8l-23.5-4.5z"/><path class="st2" d="M636.6 821.6c-6.5-4.2-29.4-5-35.9-8.4-6.5-3.4-14.7-15.9-20.6-20.6-5.9-4.8-16.6-9.9-21.2-16.4-3.4-5-1.4-22.6 0-31.1-11.8.5-26.3 1.1-41.6 1.2-.2 7-.5 24.8-2.9 33-2.6 8.8-9.9 23.2-9.1 33.3 5.9 2.3 11.8 4 16.4 5.3 3.1.8 5.9 1.5 8.4 2.6 10.4-1.1 22.4-2.5 32.2-.3 20.6 4.6 24 17.3 36 17.3 12.2 0 13.6-3.6 18.9-4.2 5.1-.5 9.7 4.8 14.2 2.9 4.1-1.7 11.5-10.4 5.2-14.6z"/><path class="st1" d="M621.9 824.3c0 2.8 5.6 5.1 7.7 2.6 1.1-1.2 3.6-3.7 5.7-5.9-2-.9-4.8-1.7-7.9-2.3-2.7 1.7-5.5 4-5.5 5.6zM523.8 781.7s.8 7.9 5 7.9 6-6.5 6-6.5M421.6 791.2s-5.4 9.7 0 12.8c5.4 3.1 11-8 11-8M485 830s2 5 1.1 9M493.7 830s8 7.7 3.4 12.7M507.9 845.6c5.1-9.4-1.5-15.8-1.5-15.8M518.9 845.6c5-11.3-4-15.8-4-15.8M529.2 845.6c5-15.8-6.7-17.3-6.7-17.3"/><path class="st3" d="M587.9 695.2c0-3.1-.2-6.3-.2-9.6-18.4 2-91.3 8.2-166.1-5-.9 2.9-1.9 5.6-2.6 7.9 12.5 3.1 39.8 8.4 83.2 9.7 44.5 1.4 72.8-1.4 85.7-3z"/><path class="st3" d="M502.3 698.2c-43.5-1.4-70.7-6.7-83.2-9.7-.9 2.5-1.7 4.8-2.5 7 45.6 15.3 143.7 13.1 171.4 8.4 0-2.8-.2-5.7-.2-8.7-12.8 1.6-41.1 4.4-85.5 3z"/><path class="st4" d="M588.3 734.4c0-7-.2-17.6-.3-30.5-27.8 4.8-125.9 7-171.4-8.4-2.9 8.5-5 16.4-5.6 32.8 11.1 4.3 36.8 10.5 91.3 10.5 47.2.1 72.7-2.4 86-4.4z"/><path class="st3" d="M502.3 738.9c-54.5 0-80.1-6.2-91.3-10.5-.2 2.2-.2 4.5-.2 7.1 35.4 18.6 177.6 8.2 177.6 8.2v-9c-13.4 1.7-38.9 4.2-86.1 4.2z"/><path class="st2" d="M423.7 714.9c0 8 6.7 14.7 14.7 14.7s14.7-6.7 14.7-14.7c0-5.4-2.9-10.2-7.4-12.7-3.4-.5-6.7-1.1-9.7-1.7-6.9 1.1-12.3 7.1-12.3 14.4zM421.6 709.8c0-4.8-2.3-9.1-5.9-11.8-2.2 6.8-3.9 13.8-4.5 25.8 6-1.8 10.4-7.4 10.4-14zM456.5 719.4c0 8 6.7 14.7 14.7 14.7 8 0 14.7-6.7 14.7-14.7 0-6.2-3.9-11.4-9.3-13.6-2.8-.2-5.7-.5-8.5-.8-6.5 1.4-11.6 7.3-11.6 14.4zM489.5 720.9c0 7.7 6.2 13.9 13.9 13.9s13.9-6.2 13.9-13.9c0-7-5.1-12.7-11.8-13.8-1.2 0-2.5 0-3.7-.2-6.9.9-12.3 6.7-12.3 14zM520.1 720.9c0 8 6.7 14.7 14.7 14.7 8 0 14.7-6.7 14.7-14.7 0-6.2-3.9-11.4-9.1-13.6-3.7.2-7.6.2-11.4.2-5.2 2.1-8.9 7.4-8.9 13.4zM571.9 705.8c-4 .3-8.4.6-13 .8-4.3 2.5-7.4 7.3-7.4 12.7 0 8 6.7 14.7 14.7 14.7s14.7-6.7 14.7-14.7c.2-6.1-3.6-11.4-9-13.5z"/><path class="st3" d="M471.2 715c2.5 0 3.7-5.7 4.3-9.4-2.6-.2-5.4-.5-8-.6.3 3.7 1.2 10 3.7 10zM503.4 717.2c2.6 0 4.2-6.3 4.8-9.9-2.5 0-5-.2-7.6-.2 0 3.3 0 10.1 2.8 10.1zM533.7 717.2c3.1 0 3.7-5.9 3.9-9.9-2.3 0-4.8 0-7.1.2-.3 3.4-.2 9.7 3.2 9.7zM438.4 711.8c2.8.5 5.1-5.6 6.2-9.9-2.6-.5-5.3-.9-7.9-1.4-.4 4-1.2 10.8 1.7 11.3zM562.5 706.4c.2 3.4.6 11.6 3.7 10.7 2.6-.8 3.4-7 3.7-11.3-2.1.3-4.6.4-7.4.6zM418.6 701c-.9-1.1-1.9-2.2-2.9-2.9-1.2 3.9-2.3 7.6-3.1 12.4 3.6-2 5.3-6.6 6-9.5z"/></svg>