<svg version="1.1" id="Calque_1" xmlns="http://www.w3.org/2000/svg" x="0" y="0" viewBox="0 0 900 900" style="enable-background:new 0 0 900 900" xml:space="preserve"><style>.st0,.st1,.st2,.st3,.st4,.st5{fill:#008ae8;stroke:#000;stroke-width:6.0321;stroke-linecap:round;stroke-linejoin:round;stroke-miterlimit:10}.st1,.st2,.st3,.st4,.st5{fill:#fff}.st2,.st3,.st4,.st5{fill:none}.st3,.st4,.st5{fill:red}.st4,.st5{fill:#ffce00}.st5{fill:#1b8900}</style><path class="st0" d="M770.7 453.8c0 10.2-51.1 16-52.2 25.9-5.9 53.9-27.7 103-60.4 142.7-5.2 6.4 27.9 53 22.1 58.8-6.4 6.5-51.8-27.9-58.9-22.1-40.2 33.1-90.1 55-144.8 60.5-9.1.9-19.2 55.1-28.5 55.1-9.4 0-17.9-54.2-27.1-55.1-53.7-5.5-102.8-26.6-142.7-58.8-6.9-5.5-54.4 25.9-60.7 19.8-7.1-7 27.2-51.7 20.9-59.4-32.5-39.8-53.9-88.9-59.6-142.7-1-9.5-51.5-19.8-51.5-29.6 0-8.8 50.3-16.8 51.2-25.4C191.6 285.8 307.6 178 448.7 178c141.6 0 257.8 108.4 270.3 246.7.9 8.3 51.7 20.8 51.7 29.1z"/><path class="st1" d="M362.9 273.1s27.1-22.3 85.1-21.4 80.5 18.7 80.5 18.7l12.7 48.9 86 121.2 7.2 68.8-35.3 84.1-50.7 42.5-70.6 21.7h-45.2l-75.1-18.1-53.4-40.7-29.9-48-17.2-61.5 11.8-65.1 37.1-53.4 54.3-59.7 2.7-38zM177.6 341l-28.9-7.1c-3.9 10.2-7.3 20.6-10.2 31.3l27.6 11.8c3-12.3 6.9-24.3 11.5-36zM157.4 447.7c0-19.9 2-39.3 5.8-58.1l-29-6.4c-4.4 21.2-6.7 43.2-6.7 65.7 0 22.4 2.3 44.3 6.7 65.5l30.3-2.9c-4.7-20.5-7.1-41.9-7.1-63.8zM182.3 565.9l-27.4 13.5c5 11.3 10.7 22.3 17 33l25.9-16.4c-5.7-9.8-10.9-19.8-15.5-30.1zM197.7 299.9 172 285.8c-5.9 9.9-11.2 20.1-16 30.6l25.8 14.4c4.7-10.7 10-21 15.9-30.9zM167.1 522.5l-28.2 11.8c3 10.9 6.5 21.5 10.6 31.8l27.9-12.2c-4-10.2-7.5-20.7-10.3-31.4zM205.8 608.5l-24.1 19.2c24 35.9 55.1 66.6 91.2 90.2l17.9-25.4c-33.8-21.8-62.8-50.4-85-84zM289 204l-14.8-24.9c-36.8 23.8-68.3 55-92.7 91.3l22 19.9c22.2-34.3 51.3-63.8 85.5-86.3zM731.4 376.7l28.6-8.1c-3-11.6-6.6-23-10.9-34.1l-28.1 9.1c4.1 10.7 7.6 21.8 10.4 33.1zM740.2 447.7c0 21.4-2.3 42.3-6.7 62.4l30.6 1.5c4-20.3 6.1-41.2 6.1-62.7 0-21.4-2.1-42.3-6.1-62.5l-30.1 1.4c4 19.4 6.2 39.4 6.2 59.9zM448.8 156.4c52.7 0 102.1 14 144.8 38.5l13.1-25.8c-46.6-26.4-100.5-41.4-157.9-41.4-59.6 0-115.3 16.2-163.2 44.5l13.9 25.3c43.7-26.1 94.7-41.1 149.3-41.1zM715.5 330.2l26.7-12.4c-4.8-10.6-10.1-21-16-31l-27 12c6.1 10.1 11.5 20.6 16.3 31.4zM692.8 288.5l23.9-16.9c-24.8-37.4-57.2-69.2-95-93.4L606 202.4c34.7 22.2 64.3 51.6 86.8 86.1zM608.8 691.3l16 26.6c36.7-24.1 68.3-55.5 92.4-92.2l-23.6-20c-22 34.1-50.9 63.2-84.8 85.6zM719.7 555.2l29.5 8.2c4.1-10.7 7.6-21.7 10.6-33l-29.1-8.5c-3.1 11.4-6.7 22.5-11 33.3zM301.6 699.2 286 726.1c10.8 6.4 22 12.1 33.5 17.2l12.9-28.4c-10.7-4.6-20.9-9.8-30.8-15.7z"/><circle class="st2" cx="448.8" cy="449.6" r="271.4"/><path class="st1" d="m699.8 595.8 28.1 12.5c5.5-9.5 10.4-19.4 14.9-29.5l-27.3-13.7c-4.7 10.7-9.9 20.9-15.7 30.7zM565.8 714.7l11.6 29c12.4-5.4 24.5-11.6 36-18.5l-14.9-27.3c-10.5 6.2-21.4 11.8-32.7 16.8zM448.8 739.1c-21.3 0-42-2.3-62-6.6l-5.1 30.9c21.6 4.6 44 7 67 7 22.7 0 44.8-2.4 66.1-6.8l-6.4-30.6c-19.2 4-39.2 6.1-59.6 6.1zM344.6 720l-10.2 29.5c9.7 3.7 19.7 6.9 29.8 9.7l10.3-29.6c-10.1-2.7-20.2-5.9-29.9-9.6zM521.6 730l9.4 29.8c11.8-3.1 23.3-6.9 34.5-11.2l-10.3-29.4c-10.9 4.2-22.2 7.8-33.6 10.8z"/><path class="st3" d="M733.5 510.2c4.4-20.1 6.7-41 6.7-62.4 0-20.5-2.1-40.5-6.2-59.8l30.1-1.4c-1.2-6-2.5-12-4.1-17.9l-28.6 8.1c-2.8-11.3-6.3-22.3-10.4-33.1l28.1-9.1c-2.2-5.7-4.5-11.2-6.9-16.8l-26.7 12.4c-4.8-10.8-10.2-21.3-16.2-31.4l27-12c-3-5.2-6.2-10.2-9.5-15.2l-23.9 16.9c-22.5-34.5-52.2-63.9-86.9-86.1l15.8-24.2c-4.9-3.2-10-6.2-15.1-9.1l-13.1 25.8c-42.6-24.5-92.1-38.5-144.8-38.5-54.5 0-105.6 15-149.2 41.1l-13.9-25.3c-3.9 2.3-7.6 4.6-11.4 7.1l14.8 24.9c-34.2 22.4-63.3 51.9-85.5 86.3l-22-19.9c-3.3 5-6.5 10.1-9.6 15.3l25.7 14.1c-5.9 10-11.2 20.3-15.8 30.9L156 316.4c-2.6 5.7-5 11.6-7.3 17.5l28.9 7.1c-4.6 11.7-8.4 23.7-11.5 36l-27.6-11.8c-1.6 6-3 12-4.3 18.1l29 6.4c-3.8 18.8-5.8 38.2-5.8 58.1 0 21.9 2.4 43.3 7 63.8l-30.3 2.9c1.4 6.7 3 13.2 4.8 19.8l28.2-11.8c2.8 10.7 6.3 21.2 10.3 31.4L149.5 566c1.7 4.5 3.6 8.9 5.5 13.2l27.4-13.5c4.6 10.3 9.7 20.4 15.5 30L172 612.2c3.1 5.2 6.4 10.4 9.7 15.4l24.1-19.2c22.2 33.5 51.2 62.2 85 84.1l-17.9 25.4c4.3 2.8 8.7 5.5 13.1 8.1l15.6-26.9c9.9 5.8 20.2 11.1 30.8 15.7l-12.9 28.4c4.9 2.2 10 4.2 15 6.2l10.2-29.5c9.7 3.7 19.7 6.9 29.9 9.6L364.3 759c5.8 1.6 11.6 3 17.5 4.2l5.1-30.9c20 4.3 40.7 6.6 62 6.6 20.4 0 40.4-2.1 59.7-6.1l6.4 30.6c5.4-1.1 10.8-2.4 16.1-3.8l-9.4-29.8c11.5-3 22.7-6.6 33.7-10.9l10.3 29.4c4-1.6 7.9-3.2 11.9-4.9l-11.6-29c11.3-4.9 22.2-10.6 32.7-16.9l14.9 27.3c3.9-2.3 7.7-4.7 11.5-7.2l-16-26.6c33.9-22.3 62.8-51.5 84.8-85.6l23.6 20c3.7-5.6 7.3-11.4 10.6-17.3L700 595.7c5.8-9.8 11.1-20.1 15.7-30.6l27.3 13.7c2.3-5.1 4.4-10.3 6.4-15.5l-29.5-8.2c4.3-10.8 7.9-21.9 10.9-33.3l29.1 8.5c1.6-6.2 3-12.5 4.3-18.8l-30.7-1.3zM448.8 721.1c-149.9 0-271.4-121.5-271.4-271.4s121.5-271.4 271.4-271.4 271.4 121.5 271.4 271.4c0 149.8-121.5 271.4-271.4 271.4z"/><path class="st4" d="M418.1 750c1.8 5.4 29 72.4 29 72.4s25.3-65.1 29-71.5c5.4 1.8 16.3-2.7 17.2-14.5.9-11.8-5.1-17.5-19-18.4-13.9-.9-19.9 34.7-27.1 40.1-7.2-8.1-4.5-41.6-29.9-40.7-24.5-.9-17.3 35.3.8 32.6z"/><path class="st2" d="M429 740s0 10-10.9 10M467.9 741.8s0 9 8.1 9"/><path class="st4" d="M215.8 642.1c-2.4 5.2-29.1 72.3-29.1 72.3s63.3-29.6 70.3-31.6c2.7 5.1 13.6 9.3 22.4 1.4 8.8-7.9 8.4-16.2-1-26.4C269 647.5 240 669.1 231 668c.4-10.9 25.5-33.2 6.6-50.1-16.9-17.5-36.7 13.7-21.8 24.2z"/><path class="st2" d="M230.6 642.4s-6.9 7.2-14.7-.3M257.4 670.6s-6.2 6.5-.4 12.2"/><path class="st4" d="M154.7 421.3c-5.5 1.6-73.2 26.7-73.2 26.7s64.4 27.3 70.6 31.1c-2 5.4 2.2 16.4 13.9 17.6 11.7 1.3 17.6-4.6 19-18.4 1.3-13.8-34.1-21-39.3-28.4 8.4-7 41.7-3.3 41.6-28.6 1.7-24.3-34.7-18.2-32.6 0z"/><path class="st2" d="M164.3 432.4s-10-.3-9.6-11.2M161.3 471.3s-9-.3-9.3 7.9"/><path class="st4" d="M259 215.2c-5.2-2.5-72-29.9-72-29.9s28.9 63.6 30.9 70.7c-5.1 2.6-9.4 13.5-1.7 22.4 7.8 8.9 16.1 8.6 26.5-.7 10.3-9.3-10.9-38.5-9.7-47.4 10.9.5 32.9 25.8 50 7.1 17.6-16.9-13.3-37-24-22.2z"/><path class="st2" d="M258.5 229.9s-7.1-7 .5-14.7M230 256.5s-6.5-6.3-12.2-.5"/><path class="st4" d="M682.3 642.4c2.4 5.2 29.1 72.3 29.1 72.3s-63.3-29.6-70.3-31.6c-2.7 5.1-13.6 9.3-22.4 1.4-8.8-7.9-8.4-16.2 1-26.4s38.4 11.3 47.4 10.2c-.4-10.9-25.5-33.2-6.6-50.1 17-17.5 36.8 13.7 21.8 24.2z"/><path class="st2" d="M667.6 642.7s6.9 7.2 14.7-.3M640.7 670.9s6.2 6.5.4 12.2"/><path class="st4" d="M745.3 422.8c5.5 1.6 73.2 26.7 73.2 26.7s-64.4 27.3-70.6 31.1c2 5.4-2.2 16.4-13.9 17.6-11.7 1.3-17.6-4.6-19-18.4-1.3-13.8 34.1-21 39.3-28.4-8.4-7-41.7-3.3-41.6-28.6-1.6-24.3 34.8-18.2 32.6 0z"/><path class="st2" d="M735.7 433.9s10-.3 9.6-11.2M738.7 472.8s9-.3 9.3 7.9"/><path class="st4" d="M641.1 216.7c5.2-2.5 72-29.9 72-29.9s-28.9 63.6-30.9 70.7c5.1 2.6 9.4 13.5 1.7 22.4-7.8 8.9-16.1 8.6-26.5-.7-10.3-9.3 10.9-38.5 9.7-47.4-10.9.5-32.9 25.8-50 7.1-17.7-16.9 13.2-37 24-22.2z"/><path class="st2" d="M641.5 231.4s7.1-7-.5-14.7M670 258s6.5-6.3 12.2-.5M217.8 429.9l14.8 4.3M211.8 460.4h16.3M277.9 638.7l9-10"/><path class="st5" d="M359.3 256.8s22.6-22.6 90.5-21.7S533 255 533 255l11.8-12.7s-11.8-9-10-16.3c1.8-7.2 25.3-37.1 24.4-41.6-.9-4.5-19-12.7-24.4-10.9-5.4 1.8-13.6 38.9-19 41.6-5.4 2.7-16.3 2.7-17.2-6.3s14.5-38.9 11.8-44.3c-2.7-5.4-19-7.2-23.5-2.7s-5.4 39.8-9 43.4c-3.6 3.6-16.3 3.6-18.1-2.7s6.3-39.8 1.8-44.3-17.2-4.5-23.5 1.8c-6.3 6.3 3.6 36.2.9 42.5s-14.5 10-18.1 1.8c-3.6-8.1-5.4-41.6-13.6-46.1-8.1-4.5-18.1-.9-20.8 6.3-2.7 7.2 14.5 40.7 11.8 45.2-2.7 4.5-10 10-17.2 6.3s-16.3-40.7-24.4-44.3c-8.1-3.6-18.1 3.6-19 10.9s18.1 38.9 15.4 40.7-11.8 13.6-11.8 13.6l18 19.9z"/><circle class="st1" cx="339.7" cy="159.3" r="19.9"/><circle class="st3" cx="339.7" cy="159.3" r="8.7"/><circle class="st1" cx="393.1" cy="143.2" r="19.9"/><circle class="st3" cx="393.1" cy="143.2" r="8.7"/><circle class="st1" cx="449.2" cy="139" r="19.9"/><circle class="st3" cx="449.2" cy="139" r="8.7"/><circle class="st1" cx="504.1" cy="145" r="19.9"/><circle class="st3" cx="504.1" cy="145" r="8.7"/><circle class="st1" cx="556" cy="161.9" r="19.9"/><circle class="st3" cx="556" cy="161.9" r="8.7"/><path class="st3" d="M317.7 267.7s-.9 41.6-33.5 43.4c-21.7 1.2-28.4-22.3-26.5-33.2 1.8-10.9 21.1-36.5 48.3-35.6 27.1.9 54.3 21.7 48.9 54.3-5.4 32.6-98.6 78.7-102.2 178.3-3.6 99.5 76 190.9 194.6 192.8 118.5 1.8 199-93.2 195.4-192.8-3.6-99.5-96.8-145.7-102.2-178.3-5.4-32.6 21.7-53.4 48.9-54.3 27.1-.9 46.4 24.7 48.3 35.6s-4.9 34.4-26.5 33.2c-32.6-1.8-33.5-43.4-33.5-43.4-19 21.7 3.6 46.1 10.9 51.6 9 8.1 26.2 11.8 41.6 2.7s28-27.1 19-53.4c-7.2-23.5-36.8-40.7-51.3-41.6s-39.2-.9-58.2 19-22.6 59.7-4.5 77.8c18.1 18.1 88.7 77.8 92.3 155.7 3.6 77.8-65.1 168.3-176.5 171-111.4 2.7-186.3-93.2-182.7-171 3.6-77.8 74.2-137.5 92.3-155.7 18.1-18.1 14.5-57.9-4.5-77.8s-43.7-19.9-58.2-19-44 18.1-51.3 41.6c-9 26.2 3.6 44.3 19 53.4s32.6 5.4 41.6-2.7c6.9-5.5 29.5-29.9 10.5-51.6z"/><path class="st1" d="M683.2 460.4c3.6-9 3-22.3-6-30.5 2.7-11.8-1.2-22-10.3-25.6-4.5-1.8-11.8 7.2-11.8 7.2s-11.2-29.6-29.6-51c-18.4-21.4-32-33.2-37.4-41.3-7.2-5.4-29.9-29.9-10.9-51.6 0 0 .9 41.6 33.5 43.4 21.7 1.2 28.4-22.3 26.5-33.2s-21.1-36.5-48.3-35.6c-27.1.9-54.3 21.7-48.9 54.3 5.4 32.6 98.6 78.7 102.2 178.3 3.6 99.5-76.8 194.6-195.4 192.8s-198.2-93.2-194.6-192.8c3.6-99.5 96.8-145.7 102.2-178.3 5.4-32.6-21.7-53.4-48.9-54.3-27.1-.9-46.4 24.7-48.3 35.6-1.8 10.9 4.9 34.4 26.5 33.2 32.6-1.8 33.5-43.4 33.5-43.4 19 21.7-3.6 46.1-10.9 51.6-5.4 8.1-19 19.9-37.4 41.3s-29.6 51-29.6 51-7.2-9-11.8-7.2c-9 3.6-13 13.9-10.3 25.6-9 8.1-9.7 21.4-6 30.5-7.2 4.5-5.4 25.3-.9 29 4.5 3.6 7.2-.9 17.2-.9-4.5 59.7 28 99.5 28 99.5s-14.5 5.4-13.6 11.8 9 15.4 15.4 18.1c-.9 10 8.1 19.9 19.9 20.8-1.8 9 10.9 19 15.4 19s11.8-12.7 11.8-12.7 48.9 42.5 104.1 45.2c0 0-6.3 12.7-6.3 16.3s19 11.8 28 3.6c6.3 8.1 22.6 10 33.5.9 8.1 4.5 26.8 2.7 27.7-4.5s-6.1-16.3-6.1-16.3C541.1 687.5 590 645 590 645s7.2 12.7 11.8 12.7c4.5 0 17.2-10 15.4-19 11.8-.9 20.8-10.9 19.9-20.8 6.3-2.7 14.5-11.8 15.4-18.1.9-6.3-13.6-11.8-13.6-11.8s32.6-39.8 28-99.5c10 0 12.7 4.5 17.2.9s6.3-24.5-.9-29z"/><path class="st2" d="m217.8 429.9 14.8 4.3M211.8 460.4h16.3M258 617.9l10.8-9.1M277.9 638.7l9-10M677.2 429.9l-14.8 4.3M683.2 460.4h-16.3M637 617.9l-10.8-9.1M617.1 638.7l-9-10M430.8 710.1l4.5-15.3M464.3 711.1l-2.8-15.4"/><path class="st4" d="m354.8 451.3-10.9 67.9 31.7 48 37.1-4.5 70.6-81.5-26.3-49-46.1-14.3z"/><path class="st5" d="M485.2 245.4c-11.1 9.7-29.8 34.7-34.5 46.7-6.3 16.3-3.6 39.8-3.6 39.8l18.5 2.2c4.6-5.3 20-23.7 22.3-32.9 2.2-9.2-1.5-44.6-2.7-55.8z"/><path class="st1" d="M493.2 242.3c-1-1.9-4-.5-8.1 3.1 1.2 11.2 4.9 46.6 2.6 55.7-2.3 9.2-17.7 27.7-22.3 32.9l12.3 1.4s13.3-16.6 17.8-29.3c4.6-12.5-1.4-60.2-2.3-63.8zM489.6 608.8l-26.2 14.5s-1.8 10 1.8 12.7c2.7 0 10-2.7 10-2.7s8.1 2.7 11.8-3.6c0 0 7.2-1.8 8.1-8.1.8-6.5-5.5-12.8-5.5-12.8z"/><path class="st2" d="M486.9 629.6s-2.7-14.1-6.3-17.1M475.1 633.2s1.9-10.5-4.2-18.9"/><path class="st1" d="M532.1 593.4s2.3 10 6.3 10.9c4 .9 9-6.3 9-6.3s6.3-1.8 8.1-7.2c7.2-7.2 0-19-5.7-20.8-10.9-4.5-20.5 2.7-20.5 2.7l2.8 20.7z"/><path class="st2" d="M543.9 576.9s6 4.8 11.7 13.8M547.5 598s-5-9.6-9.6-14.4"/><path class="st1" d="M573.8 510.2c4.5 1.8 4.5 13.6 9 12.7 4.5-.9 7.2-4.5 5.4-9 4.5-.9 4.5-6.3 4.5-6.3s5.4-2.7 2.7-10c-2.7-7.2-10-10-10-10l-19 3.6c.1 0 2.8 17.2 7.4 19z"/><path class="st2" d="M578.9 493.1c4.5-.9 13.8 14.4 13.8 14.4M588.2 513.8c-6.9-9.9-14.1-14.7-14.1-14.7"/><path class="st1" d="M570.1 448.6s14.1 2.7 17.2 1.2c1.8-4.5-.5-8.3-.5-8.3s4-5.3-.5-8.3c1.5-.5 2.7-4.5-.9-7.2s-10-4.5-16.3-3.6c-6.3.9-10.9 11.8-10.9 11.8l11.9 14.4z"/><path class="st2" d="M569.3 429.7s10.3 0 17.2 3.6M568.1 437c3.6.6 18.8 4.6 18.8 4.6M258 617.9l10.8-9.1"/><path class="st4" d="M423.5 603.4s-4.5 13.3 2.7 15.1S438 617 447 617s16.3 6.3 16.3 6.3l26.2-14.5c-10.9-14.5-25.9-13-30.5-14.8-4.5-1.8-3-8.7-3-8.7l-4.5-19.9-25.3 6.3-2.7 31.7zM485.1 570.8c2.7 5.4-1.8 31.4 10.9 31.4 12.7 0 11.8-6.9 18.1-8.7 6.3-1.8 18.1 0 18.1 0l18.1-23.5s-6.3-3.6-14.5-4.5c-8.1-.9-14.5 6.3-19.9 5.4-5.4-.9-10-10-10-10l-13.6-2.7c0-.1-10 7.2-7.2 12.6zM530.3 511.1s11.5 5.4 17.8 4.5c6.3-.9 13-6.3 25.6-5.4 4.5-10 11.8-22.6 11.8-22.6s-10-8.1-26.5-.9c-9 4.5-22.3 4.5-22.3 4.5l-18.1 5.4 11.7 14.5zM535.8 474.9s19 3.6 22.6-.9c3.6-4.5 2.7-19 11.8-25.3-.9-13.6-.9-26.2-.9-26.2s-13 2.7-18.4 15.4c-5.4 12.7-10.6 17.2-16 17.2s-17.2 11.8-17.2 11.8l18.1 8z"/><path class="st5" d="M539.4 392.2c-3.6-7.8-24.4-16-33.5-44.9-5.4-12.7-34.4-18.1-58.8-15.4 0 10-17.2 14.5-17.2 14.5s10-13.6-6.3-19.9c-15.3-4.9-72.4 14.1-84.6 18.2 12.9 9 41.2 19 58.3 19.8 20.8.9 26.2-6.3 32.6-8.1-9 22.6-35.3 45.2-35.3 45.2l.9 16.3s24.2-6.8 43.8-4.6c-.3-2.3-.8-4.9-1.2-8.1-4.5-29 16.3-28 16.3-28l3.6-2.3s-11.2 17-9 25.8c4.5 18.1 54 20 64.3 22.3 3.2-2 6.7-3.7 12.6-3.3 9-3.6 7.2-11.8 7.2-11.8s9.9-7.8 6.3-15.7z"/><path class="st1" d="M423.5 326.5c16.3 6.3 6.3 19.9 6.3 19.9s17.2-4.5 17.2-14.5c-5.4-3.6-8.1-9-22.6-14.5s-92.3 12.7-91.4 21.7c1.1 1.7 3.2 3.6 5.9 5.5 12.2-4 69.3-23 84.6-18.1z"/><path class="st2" d="M439.8 423.3s1.1 4.3.7.2l-.7-.2z"/><path class="st1" d="M448.9 400.7c-3.2-8.5 9-25.8 9-25.8l-3.6 2.3s-20.8-.9-16.3 28c.5 3.2.9 5.9 1.2 8.1 4.1.5 8 1.3 11.4 2.7 19.9 8.1 38.9 11.8 49.8 11.8 5.9 0 9-2.6 12.8-4.9-10.3-2.2-58.9-7.8-64.3-22.2z"/><path class="st2" d="M533 407.9c-4.5.9-17.2-3.6-11.8-17.2M478.7 402.8c4.5 13.6 30.8 7.8 47.1 16.9"/><path class="st5" d="m534.9 455-62.5-9.1-3.4 19.8 66.3-.7z"/><path class="st1" d="m469 465.7-.2 1.1 24.4 9 42.6-.9-.5-9.9z"/><path class="st5" d="m442.5 580.8 13.6 4.5s32.6-67 37.1-95c3.3-20.7-44.3-6.3-44.3-6.3l-21.7 30.8 15.3 66z"/><path d="M525.7 426.9c.7-3.7.1-7.2.1-7.2-5.3-3-11.7-4.3-18-5.2-.7 3.6-1.9 6.6-3.2 9 7.4 4.2 16 4 21.1 3.4z" style="fill:red"/><path d="M504.6 423.6c-3.1 5.9-6.8 8.6-6.8 8.6s.9 3.8 11.8 3.8c11.6 2.1 15.2-3.8 16.2-9.1-5.2.6-13.8.8-21.2-3.3z" style="fill:#fff"/><path class="st1" d="M427.2 424.2c-19-.9-75.9 25.3-78.7 74.2-2.9 51.6 36.2 61.5 36.2 61.5s-2.7-6.6-1.8-14.2c-9-4.8-15.7-22-9.3-54.6 6.3-32.6 41.9-52.5 61.8-42.5 15.4 7.2 20.8 32.6 30.8 39.8 10 7.2 64.2 22.6 64.2 22.6l2.1-6.8c-14.2-4.6-55.2-22.7-58.3-25.8-3.6-3.5-4.5-47.9-47-54.2z"/><path class="st1" d="M425.3 505.7c0 4.5 11.8 43.4 12.7 57.9.9 14.5-3.6 23.5-11.8 29-8.1 5.4-29 4.5-34.4 2.7-5.4-1.8-10.9-9-16.3-13.6-24.4 32.6-37.1 5.4-45.2 4.5 2.7 13.6 22.6 36.2 48 8.1 10 8.1 21.1 15.4 41 10.9s20.2-13 26.5-22.9c6.3-10-4.2-62.1-4.2-62.1l43.4 50.7 7.8-3.7c-12.7-15.1-48.8-74.4-51.3-76.8-2.6-2.8-16.2 10.7-16.2 15.3z"/><path class="st5" d="M485.4 462.5c-7.2-10-9.3-32.9-47.4-57.3-14.5-4.5-38.3-3.6-49.2-.9-29.6 8.1-54 45.2-59.4 70.6-5.4 25.3-2.7 47.1 3.6 59.7 6.3 12.7 23.5 38.9 18.1 48-5.4 9-12.7 4.5-20.8 3.6 8.1.9 20.8 28 45.2-4.5 5.4 4.5 10.9 11.8 16.3 13.6 5.4 1.8 26.2 2.7 34.4-2.7 8.1-5.4 12.7-14.5 11.8-29-.9-14.5-12.7-53.4-12.7-57.9s8.7-9.3 11.5-6.6c2.4 2.4 43.3 52.9 56.1 68l13-6.2s-36.2-68.8-50.7-81.4c-14.5-12.7-25.9-14.2-34.1-11.5-23.8 5.1-37.4 61.2-38.3 77.8-.9 7.5 1.8 14.2 1.8 14.2s-31.7-13.6-24.4-67.9c5.2-38.7 38.9-59.9 63.6-56.1 35.9 5.4 43.1 41 46.7 44.6 3 3 47.7 19.1 61.9 23.7l4.2-13.1c.1 0-44-18.7-51.2-28.7z"/><path class="st3" d="M460 378.7c-19.3 1.2-16-24.7-.6-32.9 15.4-8.1 37.4 1.5 31.1 16.9s-11.2 14.7-30.5 16z"/><circle class="st1" cx="477.4" cy="374.9" r="19.5"/><circle class="st2" cx="478" cy="374.9" r="8.6"/><path class="st2" d="M507.8 414.5c6.3.9 12.7 2.2 18 5.2 0 0 3.6 19.9-16.3 16.3-10.9 0-11.8-3.8-11.8-3.8s7.6-5.5 10.1-17.7z"/><path class="st2" d="M517.7 417.9s-1.8 9-8.1 18.1M345.5 339.8l-3.6-4.8M353.3 336.8l-3.6-7.2M363 333.8l-2.4-5.4M373.2 332l-2.4-7.2M384.4 329l-2.4-7.3M393.7 326l-1.8-6.7M402.2 324.2l-1.2-6.1M411.8 323.6v-5.5M419.7 324.2l2.4-7M427.5 326.6l5.4-4.3M435.4 335l6.6-4.8M475.8 321.7l6.6 3.7M482.4 313.3l5.4 3M487.2 303.6l7.3.6M489.6 291.6l6.7.6M490.2 280.1h4.3M489 268.7l5.5-.6M487.8 255.7l6.1-.6M442 384.5l6.6 1.8M440.2 394.7l7.2-.6M443.2 406.2l4.2-3.6M451.6 412.8l3.1-3.6M461.3 418.3l3-4.3M473.4 421.9l1.2-3.6M484.8 423.7l3-4.8M494.5 426.7l2.4-5.4M343.1 597.4l-.6 4.8M352.1 599.2l1.2 6.1M363 595.6l3 6M369.6 590.2l2.7 5.4M376.8 586.6l1.5 7.7M388 594.4l.3 6.6M398.6 596.8l1.8 7.2M407.6 598l2.4 7.3M418.5 596.8l2.4 6.6M427.5 593.2l4.2 4.8M434.8 585.9l4.8 3.1M440.2 576.3l6.6 2.4M440.8 564.8l4.2.6M439.6 553.4l4.2-.6M437.2 541.9l3.6-1.2M435.4 532.3l5.4-1.2M433.5 520.2l4.9-.6M431.1 502.7l8.5 14.5M442.6 517.8l1.8-6M448 525l4.9-6M454.7 532.9l4.8-4.9M461.3 540.7l5.7-4.2M469.1 549.8l4.3-4.9M478.8 560l2.4-2.4M377.4 541.9l-4.2 6M373.2 534.7l-6 3M371.4 524.4l-8.4 1.2M370.2 513.9l-8.4-1.8M371.4 502.1l-10.8-3M373.5 491.2l-10.5-4.8M375 479.8l-7.8-6.7M379.6 469.5l-6.1-6.6M385.9 461.1l-4.8-6.7M394.3 454.4l-5.4-6.6M403.4 449l-3.6-7.2M413 444.8l-1.8-7.8M423.3 444.2l.5-8.2M433.5 446l3.1-6M444.4 452l3-3.6M450.4 461.1l6.7-2.4M456.5 471.9l6.6-2.4M463.7 482.8l4.8-3M472.2 490l3.6-5.4M487.2 496.1l1.8-6.1M501.7 500.9l1.8-5.4M517.4 505.7l3-5.4M504.4 471.6l.6-6M514.4 471.9l1.2-6.6M524 472.5l.6-6"/><circle class="st5" cx="129.4" cy="224.8" r="51"/><circle class="st5" cx="126" cy="673.7" r="51"/><circle class="st5" cx="770.6" cy="226.3" r="51"/><circle class="st5" cx="774" cy="675.2" r="51"/><circle class="st0" cx="227.8" cy="125.3" r="51"/><circle class="st0" cx="225.5" cy="772" r="51"/><circle class="st0" cx="672.2" cy="126.8" r="51"/><circle class="st0" cx="674.5" cy="773.5" r="51"/><circle class="st3" cx="128.2" cy="125.7" r="51"/><circle class="st3" cx="126.4" cy="773.2" r="51"/><circle class="st3" cx="771.8" cy="127.2" r="51"/><circle class="st3" cx="773.6" cy="774.7" r="51"/><circle class="st4" cx="128.2" cy="125.1" r="24"/><circle class="st4" cx="227.8" cy="124.7" r="24"/><circle class="st4" cx="129.4" cy="224.2" r="24"/><circle class="st4" cx="125.8" cy="773.2" r="24"/><circle class="st4" cx="125.4" cy="673.7" r="24"/><circle class="st4" cx="224.9" cy="772" r="24"/><circle class="st4" cx="771.8" cy="126.6" r="24"/><circle class="st4" cx="672.2" cy="126.2" r="24"/><circle class="st4" cx="770.6" cy="225.7" r="24"/><circle class="st4" cx="774.2" cy="774.7" r="24"/><circle class="st4" cx="774.6" cy="675.2" r="24"/><circle class="st4" cx="675.1" cy="773.5" r="24"/></svg>