<svg version="1.1" id="Calque_1" xmlns="http://www.w3.org/2000/svg" x="0" y="0" viewBox="0 0 900 900" style="enable-background:new 0 0 900 900" xml:space="preserve"><style>.st0,.st1{fill:#ffce00;stroke:#000;stroke-width:4.149;stroke-linecap:round;stroke-linejoin:round;stroke-miterlimit:10}.st1{fill:red}.st2{fill:#fff}.st2,.st3,.st4,.st5,.st6,.st7{stroke:#000;stroke-width:4.149;stroke-linecap:round;stroke-linejoin:round;stroke-miterlimit:10}.st4,.st5,.st6,.st7{fill:#007c49}.st5,.st6,.st7{fill:none}.st6,.st7{fill:#ff7300}.st7{fill:#563006}.st8{fill:red}.st9{fill:#ff7300}.st12,.st13{fill:none;stroke:#000;stroke-miterlimit:10}.st12{stroke-width:3.1117;stroke-linecap:round;stroke-linejoin:round}.st13{stroke-width:4.149}</style><path class="st0" d="m713.7 723.3 82.2 11.9-7.4 17.4-49.8-4.1-19.7-17.2z"/><path class="st1" d="M791.6 755.8s0-.1-.1-.1c-4-6.4-20.1-10-34.9-12.7-14.7-2.7-43-14.1-43-14.1s-11.7-47.2-13.7-85.6c-2-38.4-14.9-73.7-22.4-85.1-7.5-11.3-60.5-8.7-78.6-8.7s0 45.5 0 45.5l30.4 4.1 26.4 36.1 29.5 86.6 28.4 41.2 14.4 4.5s.8.7 3.6 2.7c6.1-2.8 18.2-7.8 27.2-9.5 8.7-1.7 23.8-3.8 32.8-4.9z"/><path class="st2" d="M758.9 760.7c-9 1.7-21.1 6.7-27.2 9.5.4.3.9.7 1.6 1 4 2.8 10.1 2.3 10.2-3.4 5.1 5.5 14.2 3.7 12-2.6 6 7.8 12.9 5.7 11.2 0 6.6 7.1 14.9 1.7 11.4-3.7 8.2 5.3 17.4.7 13.5-5.6-9 1-24.1 3.1-32.7 4.8z"/><path class="st3" d="m686.2 762.3 14.2.3-14.2-16.1z"/><path class="st0" d="M660.4 639.2s-2.4 16.7 0 21.8c2.4 5.1 15.6 2.2 15.9-3.1.2-5.3-2.1-18.7-2.1-18.7l15.4 1.1s-1.8 15.6 2.3 18.8c4 3.2 15.4 1.2 15.4-5.4 0-6.6-5.2-12.7-5.2-12.7l-7.1-9-23.6-3.6-11 10.8z"/><path class="st4" d="M653.1 642.2s47.2 1.9 48.8-1c1.6-2.9-1.7-25.6-1.7-25.6l-41.6-5.3-8.1 24.2 2.6 7.7z"/><path class="st3" d="M706.2 730.5h-11.8l-1.3.2 17.6 19.4z"/><path class="st2" d="m693.1 730.7-6.9 1.3v14.5l14.2 16.1 13.3.4-3-12.9z"/><path class="st0" d="M687.3 735.7c-5.2.3-6.2-11.5-2.2-13.9 4-2.4 22.6-2.5 27.1-1.2s7.3 8.9 4 11.4c-3.2 2.5-22.9 3.3-28.9 3.7z"/><path class="st5" d="M765.4 750.3s11.3 6.5 12.6 11.1M766.7 765.1c-2.3-5.5-10.2-9.8-10.2-9.8M743.9 754.3s10.2 5.3 11.6 10.9M743.4 767.7c1.1-2.9-10.5-8.9-10.5-8.9"/><path class="st2" d="M686.5 760.2c-2.9 1.7-3.8 4.1-2.2 7.2 1.7 3 41.5 1.5 43.8.1 2.3-1.2-.5-6.1-4.4-7.5-3.8-1.5-34.3-1.5-37.2.2z"/><path class="st1" d="M577.9 483.5s83 45.7 95.9 49c13 3.2 21.6-11.1 13.8-21.5-7.8-10.4-107.7-64.5-107.7-64.5L558.6 436l-14.2 18.7 14.2 25.4 19.3 3.4z"/><path class="st4" d="m551.5 555.3-1.5-5.8-7.5 17.8 20.5 67.6c5.1-1.5 10.1-2.9 14.9-4.1l-21.6-77.2-4.8 1.7z"/><path class="st1" d="m570.9 549.1-14.4 4.6 21.7 77.2c5.6-1.5 11-2.7 16.1-3.8l-23.4-78z"/><path class="st2" d="m627 620.9-28-80.7-28 8.9 23.3 77.9c18.8-4.2 32.7-6.1 32.7-6.1z"/><path class="st1" d="m550.1 549.5-23.5-93.2-68.4-2.8-4.6 9.9s3.9 65.2 11.2 113.7l79.1-12.8 6.2-14.8z"/><path class="st2" d="M544 564.2 464.8 577c3.6 24.6 8.1 44.8 13.3 50.2 18.7 19.4 51.9 17.7 84.6 8 .2 0 .3-.1.5-.1l-20.5-67.6 1.3-3.3z"/><path class="st1" d="M615.5 516c-5.5 0-42.7-51.8-58.8-64.3-16.1-12.6-34 35.3-34 35.3l31.7 21.2c-.1.8 46.4 43.9 61.6 43.9 8.1 0 36.3-25.4 62.9-48.4 4.9-4.3 9.8-8.4 14.3-12.2L675 471c-27.4 21.8-56.4 45-59.5 45z"/><circle class="st0" cx="527.9" cy="507" r="30.7"/><circle class="st0" cx="571.4" cy="462.3" r="10.6"/><circle class="st0" cx="542.7" cy="486.9" r="10.6"/><circle class="st0" cx="478.1" cy="486.9" r="10.6"/><path class="st4" d="M470 460.2s17.3 34.2 51.9 27.8c34.5-6.4 46.5-48.9 46.5-48.9L523 411.5s-40.5 5.1-40.7 6.8c-.2 1.7-12.3 41.9-12.3 41.9z"/><path class="st2" d="M583.1 399.2s5.8 7.7 10.9 7.8c2.1-5.9 0-15.2 0-15.2s3.9 12.1 8.3 15.2c4.4-6.5 2.6-15.2 2.6-15.2h8.6s-2.8 10.2 1.3 15.2c4.7-3.5 7.8-11.4 7.8-11.4l-11.7-10.8-24.1 3.8-3.7 10.6z"/><path class="st1" d="M588.8 438.6c-5.9-2.5-5.1-4.8-4.4-10.3-9.8 2.1-12.4-6.6-12.4-6.6s-3.8 5.1-7.9 4.6c-4.1-.5-6.9-3.5-6.3-8 .6-4.5 9.4-6.8 9.4-6.8s-3.1-6.3 3.3-14.2c0 0-8.1 2.4-11.4-3.1-3.3-5.5 3.6-12.8 3.6-12.8l31.2-5.9 19.3-.6c4.6-4.7 13.8-9.4 13.8-9.4L596.5 336 583 299.1l-85.2 19.7-15.6 43.6 4.6 40.5 24.7 27.4s8.6 1.9 13.2-8.4c5.2-1.5 50.5 28.5 61.5 28.5 10.5 0 15.4-9.1 13.8-13.3-3.7 1.5-8.2 2.8-11.2 1.5z"/><path class="st2" d="M598.6 428.4c1.8-2.8 12.8 1 14.8-2.8 2.1-3.8 1.8-7.7-2.1-10.4s-23.9 3.1-27-2.4c-3.1-5.4-1.1-10.8 4.1-15.7 5.3-4.9 30.7-.7 33 .8 2.3 1.6 3.3-1.7 2.3-6.7-1-5.1-10.4-5.8-13-11-.7-1.6.3-3.5 2.3-5.5l-19.3.6-31.2 5.9s-6.9 7.3-3.6 12.8c3.3 5.5 11.4 3.1 11.4 3.1-6.4 8-3.3 14.2-3.3 14.2s-8.8 2.4-9.4 6.8c-.6 4.5 2.3 7.5 6.3 8 4.1.5 7.9-4.6 7.9-4.6s2.7 8.7 12.4 6.6c-.7 5.5-1.5 7.7 4.4 10.3 3 1.2 7.5 0 11.1-1.6l-.3-.6c-2.2-3.5-2.5-5-.8-7.8z"/><path class="st1" d="M616.6 366.1c1-.7-11.4-1.3-13.6 1.8-2.2 3.1-2.3 14.8 3 15.6 5.3.7 8.1-3.7 14.2-3.7 6 0 10.6 3 15.1.2s2.6-13.8 0-18.7c-2.6-4.9-32.4-22.5-33.2-25.9-.8-3.4 0-6.9-2.1-10.4-2.1-3.4-13.5-25.9-13.5-25.9l-33.4 4.6"/><path class="st4" d="M513.9 145.9c1.8-.3 55-2.8 78.8-8 26.8-5.8 37-13.1 41.8-13.3 4.9-.2 5.6 5.1 3.1 7.1-2.5 2-25.6 15.8-25.2 18 .3 2.3 52.9-9 57-9 4.1 0 4.5 8.8 0 11.1s-51.9 8-52.9 9.6c-1 1.7 55 1 58.1 3.1 3.1 2.1 3.8 8.7 0 9.8-3.8 1-59.4-2-59.4 0s52.4 8.2 56.7 11.3.6 11.3-3.8 10.4c-4.5-.8-57.4-9-57.4-9l-92.3-19.4-4.5-21.7z"/><path class="st4" d="M460.3 220.9c-10.1-14.2-12.1-37.7-.7-54.2 11.4-16.6 38.7-18.4 38.7-18.4s-8.1-4.5-6.5-11.7c1.6-7.3 7.3-13.9 19.4-11.3 12.1 2.7 15.2 23.5 1.3 31.4-13.9 7.9-34 30.4-34 30.4l1.3 29c.1 0-9.5 19-19.5 4.8z"/><path class="st5" d="M502.8 134.2s8.6 2.1 6.9 8.3c-1.8 6.2-8.5 8.1-11.4 5.9"/><path class="st4" d="M477.4 163.8C453.3 177 465.7 216 465.7 216h28.1s-4.1-13.2-4.1-19.4c0-8.6 5.7-10.1 20-11.7 3.5-.4 11-.5 20.2-.3l.4-31c-22.4 1.9-42.3 4.4-52.9 10.2z"/><path class="st1" d="m558.7 185.9-.2-34.5c-9.5.7-19.1 1.5-28.2 2.2l-.4 31"/><path class="st1" d="M530 184.7c8.5.2 18.6.6 28.7 1.2"/><path class="st2" d="M614.2 144.1c-15.5 3.8-35.5 5.7-55.6 7.3l.2 34.5c23.8 1.5 48.3 4 55.4 7.3 5.2-20 6.5-40.1 0-49.1z"/><circle class="st4" cx="562.1" cy="178.9" r="10.3"/><circle class="st4" cx="562.1" cy="159.2" r="10.3"/><path class="st5" d="m666.1 146.6-48 8.9M670.5 169.4l-51.9-1.8M668.4 191.2l-51.5-9.3"/><path class="st1" d="M141.5 708.2s-12.8 4.7-55.7 11.5c-1.8 12.8 9.6 24.9 9.6 24.9l59.2-23.1-3.6-13.3h-9.5z"/><path class="st0" d="M164.8 706s-.2-2.8-5.4 2.6c-5.1 5.4-55.5 27-60.7 29-5.2 2.1-7.3 6.2-7.3 8.6 0 2.4 5.5 9.1 11.7 4.9-.7 5.9 12.4 5.9 16.6-1-2.1 4 6.5 5.1 11.4 1.8-2.4 5.2 7.8 4.1 14.5-1.3-2.4 6.2 8.3 5.9 13.2-1.3 1.7-2.5 7.9-3.3 15.2-3.3l.2-39-9.4-1z"/><path class="st4" d="m207.6 748.7-9-40.1-24.3-1.9-.2 39c14.4 0 33.5 3 33.5 3z"/><path class="st1" d="M201.1 712.8c2.8-2.5 2.1-11.2-.3-14.2s-39.7-.2-42 3.2c-2.3 3.4-5.2 10.3.1 12.3 5.2 2.1 39.4 1.1 42.2-1.3z"/><path class="st2" d="M164.8 741.8c-4.4.3-8 8-4.4 8.6 3.6.6 47.2 2.1 49.3.7 2.1-1.3-.7-9.3-4.5-9.3s-36.2-.3-40.4 0z"/><path class="st1" d="M142.6 705.2c-2.4 4 4.1 12.4 7.3 11.4 3.1-1 12.1-3.5 13.7-8 1.6-4.5-2.3-11.1-7.5-11.1s-11 3.6-13.5 7.7z"/><path class="st5" d="m154.9 738.4-9.2 12.1M131.2 751.9l11.1-13.5M129.5 738.4l-9.8 11.7M103.1 751.1l12.5-12.7"/><path class="st2" d="m94.9 457.6-9.3 69.8H96c3.1-19.5 6.9-45 10.1-69.8H94.9h0z"/><path class="st6" d="M95.9 527.4c14.7 0 35-.1 46.1-.1v-69.7h-36c-3.2 24.8-7 50.3-10.1 69.8z"/><path class="st0" d="m309.1 548.2 72.9 3c.9-9.6 1.9-19.5 2.8-28.9l-103-3.7c8.6 9.8 18.4 20.7 27.3 29.6z"/><path class="st1" d="M329.8 564.9c15.5 7.3 40.9 7.6 50.2 7.5.7-6.7 1.5-13.8 2.2-21.1l-72.9-3c7.9 7.9 15.3 14.3 20.5 16.6zM398.5 465.9l.7-17.4-74.4-3.7-56.4 50.7 118.9 1.8c1.7-18.4 2.8-31.2 2.8-31.2h8.4v-.2z"/><path class="st2" d="M264.9 498.5c3.9 4.8 10 12.1 16.9 20.1l103 3.7c.8-9 1.7-17.5 2.3-25.2l-118.9-1.8-3.3 3.2z"/><path class="st2" d="M329.8 564.9c-15.6-7.3-51.9-50.5-64.8-66.5L197.5 559l-13.2 31.5-9.6 47h73.2c-.7-13.1-.6-24.9 1.3-31.4 13.5 20.4 21.8 24.2 39.1 29.8 17.3 5.5 58.4 12.1 79.1-11.7 2.5-2.8 4.7-5.5 6.7-8.1 1.3-6.1 3.4-23.1 5.6-43.7-9 .1-34.5-.2-49.9-7.5z"/><path class="st1" d="M249.7 558.9c31.6-19.9 51.8-82.9 58.4-106.7l-22.4-13.6s-55 14.3-66.4 23.6c-9.4 7.8-22.2 67.3-41 108.1 17.7 3.2 46.4 4.4 71.4-11.4z"/><path class="st2" d="m329.2 465-21.1-12.8c-6.6 23.9-26.8 86.8-58.4 106.7-25 15.8-53.7 14.4-71.4 11.4-1.6 3.5-3.2 6.8-5 10.1-2.4 4.5-4.8 8.5-7.4 12.1 9 4.7 72.1 13.8 109.6-18.4 43.1-37 61-104.8 61-104.8l-7.3-4.3z"/><circle class="st0" cx="361.7" cy="529.7" r="10.6"/><circle class="st0" cx="359.5" cy="571.9" r="10.6"/><circle class="st0" cx="319.2" cy="586.7" r="10.6"/><circle class="st0" cx="296.3" cy="520.7" r="10.6"/><path class="st4" d="M308.7 503.6s-12.9 40.2-9.4 54.9 16.2 20.1 25.8 20.2c9.8.1 22.2-4.5 26.1-17.4 3.9-13 1.9-51.1 1.9-51.1l-44.4-6.6z"/><path class="st1" d="M323 520.7s-5.7 28.3-3.8 34.2c1.9 5.9 10.2 5.2 14.2-1 3.9-6.2 1.3-33.2 1.3-33.2H323z"/><circle class="st0" cx="332.1" cy="501.4" r="29.4"/><path class="st4" d="M275.6 432.9s25.5 41.5 59.1 43.4c33.6 1.9 50.8-11.2 50.8-11.2l13.5-70.2-35.3-13.5-88.1 51.5z"/><path class="st0" d="m275.6 290.8-20 29.8v12.1l-19.7 14.5s4.1 27.6 3.8 33.4c-.3 5.8-9 8.8-9 14s7.6 4.1 7.6 4.1l10.1 7.8s-10.1 7.8-5.5 13.5 8.6-1.2 12.7 2.3c3.9 3.4-1.6 3.1.8 13.8 2.4 10.7 6.5 8.5 14.2 8.5 7.6 0 54.2-26.7 54.2-26.7s0 10.4 19 4.7 17.9-38.4 17.9-38.4l-4.9-49.8-21.1-28.3-39.6-11.4-20.5-3.9z"/><path class="st0" d="M239.8 366.1s1-2.8 5.9-1.3c4.9 1.3 5.2 10.7.7 14.8-2 1.8-7.4.3-13.2.3-7.6-.1-15.8.8-17.3-.3-2.8-2-2.8-9.6 0-20.7s34.5-25.9 35.6-30.1c1-4.1.3-2.1.7-7.6.4-5.5 14.8-27.8 14.8-27.8l38.4 7.1"/><path class="st7" d="m297.5 252.3-10.8 49c3 .8 6 1.8 9.1 2.7l11.5-52.2c-3.4 0-6.7.2-9.8.5zM326.7 253.5 314.2 310c3.1 1.1 6 2.3 8.7 3.4l12.7-57.6c-3-.9-6-1.6-8.9-2.3zM316.9 252l-12 54.8c3.2 1 6.3 2.2 9.3 3.2l12.4-56.5c-3.2-.7-6.5-1.3-9.7-1.5z"/><path class="st7" d="M311.3 251.7h-3.9l-11.5 52.2c3 .9 6.1 1.9 9 2.9l12-54.9c-1.8-.1-3.7-.2-5.6-.2zM255.6 293.4c3.6.7 8.1 1.8 13.2 3.1l8.5-38.5c-11.5 5.9-18.1 16.9-21.7 35.4zM287.7 254l-9.9 44.7c2.9.8 5.9 1.7 8.9 2.5l10.8-49c-3.5.5-6.8 1.1-9.8 1.8z"/><path class="st7" d="m277.2 257.9-8.5 38.5c2.9.7 5.9 1.6 9.1 2.4l9.9-44.7c-3.9.9-7.4 2.2-10.5 3.8zM387.1 281.2c-2-1.3-4.7-3-7.9-5l-18 81.9-12.7 19.6c-6.9 35.8-22 112.4-22.8 117-1 5.9 11.8 5.8 13.5-1 1.7-6.8 18.7-82.3 18.7-82.3s-2.4 84-.7 89.2c1.7 5.2 13.3 3.5 13.5-4.1.2-7.7 2.8-91 2.8-91l9.2-7.8-12.6-39.6 17-76.9z"/><path class="st7" d="m386.3 384.8 5.9 5.1 8.9-7.5 2.8-81.2-9.4-12.7-15.2 69.7zM379.3 276.3c-2.4-1.5-5.1-3-8-4.6l-19.1 86.5 19.1-86.5c-2.5-1.5-5.2-2.8-8.1-4.3l-19.3 87.8c4.3.2 9 .6 8.2 4.9-.3 1.6-1.6 8.2-3.5 17.8l12.7-19.5 18-82.1z"/><path class="st7" d="m386.3 384.8-7.2-26.7 15.4-69.7-3.4-4.7s-1.5-1-3.9-2.7l-16.9 77 12.6 39.6 9.4-7.9-6-4.9zM352.7 262.4 338.5 327c1.5 9.9-1.9 24.2-.9 26.8.4 1.2 3.3 1.2 6.3 1.3l19.3-87.8c-3.3-1.6-6.9-3.4-10.5-4.9zM344.1 258.9l-12.9 58.6c3.4 2 5.7 3.8 6.3 5.4.4 1.2.7 2.6.9 4l14.2-64.6c-2.7-1.2-5.5-2.4-8.5-3.4zM335.6 255.8l-12.7 57.6c3.2 1.3 6 2.7 8.3 4l12.9-58.6c-2.8-1.1-5.7-2-8.5-3z"/><path class="st1" d="m176.2 367.6 1 14.4c5.1-.4 11.3-1 17.5-1.7l-.6-13.7c-6.2.2-12.6.5-17.9 1z"/><path class="st2" d="M163.3 369.7c-6.9 3.6-3.8 12.8 3.8 12.8 1.7 0 5.4-.2 10.1-.6l-1-14.4c-6.3.6-11 1.3-12.9 2.2z"/><path class="st4" d="M204.4 366.3c-3.2.1-6.7.2-10.4.3l.6 13.7c3.5-.3 7.1-.7 10.4-1l-.6-13z"/><path class="st2" d="m258.2 368.4-1.5 11.9c2.3.3 4.7.7 7.2 1l1.5-12.4c-2.5-.2-5-.3-7.2-.5zM300.5 372.3c-1.6-.5-5.9-1-11.5-1.7l-1.7 13.8c3.9.4 7.2.7 8.8.7 8.3.1 10.3-10.7 4.4-12.8z"/><path class="st4" d="m265.4 368.9-1.5 12.4c2.7.4 5.4.7 8.2 1.1l1.6-13.1c-2.8-.1-5.6-.2-8.3-.4z"/><path class="st1" d="m273.7 369.4-1.6 13.1c5.5.7 10.9 1.5 15.4 2l1.7-13.8c-4.7-.4-10.1-.9-15.5-1.3z"/><path class="st2" d="M238.3 398.7c-2.1 2.1-3.4 6.2-1.8 8.8 1.7 2.6 7.7 2.8 9.3-1.6 1.7 3.9 8.3 3.1 10.1 0 .8 3.9 6.5 3.6 7.6 1.3 1.7 3.8 3 5.6 6.2 4.9 4.4-.9 5.8-7.3 5.8-7.3s-10.8-6.8-18.9-7.6c-7.9-.7-16.1-.6-18.3 1.5z"/><path class="st5" d="m263.6 407.3 2.2-7.2M256.8 397.2l-.9 8.7M246 405.9v-9"/><path class="st4" d="M255.3 130.7c-5.1 1-7.5 8-1 11.1 6.4 3.1 109.3 18.7 120.7 28.3 11.4 9.6 19.6 3.1 19.6 3.1l-19.1-21.8c-.1 0-115.2-21.8-120.2-20.7z"/><circle class="st0" cx="279.4" cy="457.6" r="10.6"/><circle class="st0" cx="310.6" cy="478.6" r="10.6"/><circle class="st0" cx="380.6" cy="476.5" r="10.6"/><path class="st1" d="m85.5 527.4-3.1 23.3h59.4v-23.4c-14 0-42.7.2-56.3.1z"/><path class="st0" d="M345.6 726.4s24.5 3.4 24.5 2.4c0-.4 1.5-14.2 3.3-31.3l-22.3-2.2-5.5 31.1z"/><path class="st1" d="m393 609.9-16.9-4c-.6 4.6-1.1 8-1.7 10.2-2.1 2.6-4.3 5.2-6.7 8.1-1.5 1.7-3.1 3.2-4.8 4.7L351 695.3l22.3 2.2c3.1-29.1 7.4-68.3 7.4-68.3l14.1-8.4-1.8-10.9z"/><path class="st0" d="m385.5 697.1 2.2 31.9 25.6-4.3-5.4-30.7z"/><path class="st4" d="m394.9 620.9-14.1 8.4 4.7 67.8 22.4-3.1z"/><path class="st0" d="M505.6 726.4s-24.5 3.4-24.5 2.4c0-.4-1.5-14.2-3.3-31.3l22.3-2.2 5.5 31.1z"/><path class="st4" d="m470.3 607-12.2 2.9-2 11 14.1 8.4s4.3 39 7.4 68.3l22.3-2.2-10.5-59.7c-4.1-2.2-8-5-11.3-8.4-2.8-3-5.4-10.4-7.8-20.3z"/><path class="st0" d="m465.7 697.1-2.3 31.9-25.5-4.3 5.4-30.7z"/><path class="st1" d="m456.2 620.9 14.1 8.4-4.6 67.8-22.4-3.1z"/><path class="st4" d="M168.4 668.7h82.5c-.6-5-1.1-10.3-1.7-15.6h-77.6l-3.2 15.6z"/><path class="st1" d="M171.6 653.1h77.6c-.5-5.2-.9-10.5-1.1-15.6h-73.2l-3.3 15.6z"/><path class="st5" d="m330.6 498.5 20.4-90M364.2 501.4l.3-92.9"/><path class="st0" d="M454.8 246.7s-11.7-14.1-11.7-19.3c0-5.2 8.5-9.3 12.8-6.5-1-3.4 8-12.2 14.2-7.9 1.1-7.4 12.2-12.1 16.9-6.3 1.9-5.2 16-9.3 19.1-1.8 3.1 7.6 8 49.1 8 49.1L474 278.7l-19-7.5v-24.5h-.2z"/><path class="st5" d="m486.8 206.8 13.9 44.9M489.7 255.6 470 213M455.8 220.9l22.6 42.2"/><path class="st0" d="M471.1 370.8c.3-1.5-5.3-53 3.4-75.1 8.6-22.1 36.3-32.5 55-32.5s57.8-4.9 67.1 39.6c-57 4.7-87.1 22-87.1 22l-15.6 37.7-22.8 8.3z"/><path class="st1" d="M465.4 299.1c2.6-4.5 122-27.8 127-25.7 5 2.1 18.5 9.4 1.6 20-46.5 4-119.6 26.6-124 28.1s-7.1-17.9-4.6-22.4z"/><path class="st0" d="M470 406.5s-13.8 90-12.8 93.1c1 3.1 8.9 3.2 10.8-1 1.9-4.3 18.9-74.7 18.9-74.7s.1 73.4 2.2 78.7c2.1 5.3 10.9 3 10.9-1s-2.6-75.9-3.1-79.8c7.6 6.6 17.6 75.2 19.7 79.6 2.1 4.4 10.2 2.4 10.2-2.9s-15.9-104.7-15.9-104.7L470 406.5z"/><path class="st1" d="M573.7 332.4c-17.8 0-19.7 10.5-25.4 14.7 6.7 5.1 11.4 14.7 25.4 14.7"/><circle class="st0" cx="498" cy="534.6" r="10.6"/><circle class="st0" cx="496.8" cy="572.3" r="10.6"/><circle class="st0" cx="532.2" cy="591.9" r="10.6"/><circle class="st0" cx="566.1" cy="569.7" r="10.6"/><circle class="st0" cx="563.8" cy="529.7" r="10.6"/><path class="st4" d="M512.5 540.3s-38.6 2.1-51.9 3.2c.6 5.6 1.2 11.2 2 16.7l46.5-2.8 3.4-17.1z"/><path class="st0" d="m589.8 712.1 59.1 43.7-15.1 11.4-41.2-28.3-8.5-24.9z"/><path class="st2" d="M575.8 754.1c.2.5.5 1 .8 1.7 2.1 4.5 7.6 7.1 10.6 2.1 1.7 7.3 10.5 10.4 11.7 3.8 1.3 9.6 8.3 11.4 9.8 5.5 2.3 9.4 12.1 8.9 11.7 2.4 4.5 8.7 14.7 9.3 14.5 1.9-8.3-3.4-22.5-9.1-30.8-12-8.7-3.1-21.5-4.7-28.3-5.4z"/><path class="st1" d="M611.1 743c-11.4-9.6-22.8-23.9-22.8-23.9l2.8-11.7s29.4-24.6 54.2-48.2c-7.8-6.2-19.7-15.7-27.1-21.5L597 662.1l-25.2 35.4-7.9 41.4 10.3 11.1s.4 1.1 1.8 4.1c6.7.6 19.6 2.3 28.3 5.3 8.2 2.9 22.5 8.6 30.8 12v-.1c-.6-7.5-12.6-18.6-24-28.3z"/><path class="st0" d="M618.1 637.8s-11.2 2.4-13.6 8.3c-2.5 6 2 10.8 8.4 10.8s14-16.5 14-16.5l10.4 10.5s-10.4 6.3-12.2 13.6c-1.9 7.3 6.7 11.2 12.2 9.6 5.5-1.6 7.9-14.9 7.9-14.9l-.6-19.9-15.4-6.1-11.1 4.6z"/><path class="st3" d="m569.1 708 .6 22.5 11.1-15.8zM540.3 724.7l12.2 7.3-.5-17.4z"/><path class="st2" d="m563.4 704.7-11.4 9.9.5 17.4 11.3 6.9 5.9-8.4-.6-22.5z"/><path class="st4" d="m728.3 599.4-19.1 35.1c5.5 3.7 11 7.5 16.4 11.2l20.2-37.2c-5.9-3.1-11.8-6.1-17.5-9.1z"/><path class="st1" d="m745.8 608.4-20.2 37.2c5 3.4 10 6.8 14.6 10.2l21.5-39.5c-5.3-2.5-10.6-5.2-15.9-7.9z"/><path class="st2" d="m761.7 616.3-21.5 39.5c2.1 1.5 4 2.9 6 4.3l22.1-40.6c-2.1-1-4.3-2.1-6.6-3.2zM813.9 636.7c-14-3.5-29.7-9.9-45.5-17.2l-22.1 40.6c21.8 15.5 38.1 27.5 38.1 27.5s15.8-24.1 29.5-50.9z"/><circle cx="760.6" cy="657.3" r="3.7"/><circle cx="767.5" cy="644.7" r="3.7"/><circle cx="774.5" cy="632.2" r="3.7"/><path class="st0" d="M675 471s-12.7-.1-16 3.8c-3.3 3.9-.4 11.4 5.1 12.1 5.5.7 19.9-10.7 19.9-10.7l6.6 6.7s-14.6 7.1-17 14c-2.4 6.9 4.3 10.8 10.9 7.6 6.6-3.2 8.7-13.3 8.7-13.3l5.5-14.8-9-7.2L675 471z"/><path class="st2" d="M803.8 459.1c1.2 1.5 13.8 1.9 21.2 2 .2-2.6-.5-5.2-2.5-5.4-1.7-.1-9.9-.7-19.3-1.6-.3 1.8-.4 3.9.6 5z"/><path class="st1" d="M803.8 459.1c-1-1.1-.9-3.2-.6-4.9-12.6-1-27.3-2.3-31.3-2.9 2.5-.6 3.2-3.4 2.7-6.1-6.6-.8-16.9-2.2-18.3-3.2-1.2-.9-1-3.5-.6-5.4-11.6-2.5-26.2-5-31.8-2.7-2.4 1-9.4 6.1-18.7 13.3l17.3 20.5c2.6-1.9 4.4-2.9 5-3 6-.5 32.7 8 39.7 8s8.3-5.2 5-9c11.9 1.3 45.1 2.1 49.3 2.4 2.1.1 3.3-2.4 3.5-5-7.5-.1-19.9-.5-21.2-2z"/><path class="st2" d="M756.3 442c1.3 1 11.6 2.4 18.3 3.2-.4-2.4-1.8-4.7-3.7-5.1-1.7-.3-7.7-2-15.1-3.5-.4 1.9-.7 4.5.5 5.4z"/><path class="st4" d="m381.1 612.7-6.7 23.1s37.9 3.1 37.1 2.1c-.7-1-2.1-25.2-2.1-25.2h-28.3 0z"/><path class="st8" d="M311.6 271.7s-13.9-5.1-31.3-13.5l-7.7 27.9c15.2 1.2 24.8 2.5 24.8 2.5l17.6 4.7 4.5-14.5-7.9-7.1z"/><path class="st9" d="M251.1 242.4c-3.3 9.9 6.5 17.6 12 21.1-5.3-2.6-15.8-6.6-27.3-4.1 3 8.4 11.8 11.8 18.8 13.3-6.4.1-14.5 2.3-17.3 11.3 13.4.7 25.5 1.6 35.4 2.4l7.7-27.9c-9.4-4.7-19.7-10.1-29.3-16.1z"/><path class="st5" d="M311.6 271.7s-13.9-5.1-31.3-13.5c-9.3-4.5-19.6-9.9-29.4-16-3.3 9.9 6.5 17.6 12 21.1-5.3-2.6-15.8-6.6-27.3-4.1 3 8.4 11.8 11.8 18.8 13.3-6.4.1-14.5 2.3-17.3 11.3 13.4.7 25.5 1.6 35.4 2.4 15.2 1.2 24.8 2.5 24.8 2.5l17.6 4.7 4.5-14.5-7.8-7.2z"/><path class="st9" d="M300.5 259.3c-2.8 8.2 1.9 13 6.6 15.6-6.8-1.9-16.8-3.5-24.2-1.3 5.5 8.4 14.2 11.3 19.5 12.2-6.1-.4-16.5-.1-19.5 6.3 10.8 1.6 22.3 3.7 32.6 5.9l8.4-27.5c-7.1-3.1-15-6.9-23.4-11.2z"/><path class="st8" d="M364.8 285.2s-16.1-3.8-40.9-14.7l-8.4 27.5c17.7 3.7 31.6 7.3 31.6 7.3l17.6 6.5 8.6-9.1-8.5-17.5z"/><path class="st5" d="M364.8 285.2s-16.1-3.8-40.9-14.7c-7.2-3.1-15-6.8-23.4-11.2-2.8 8.2 1.9 13 6.6 15.6-6.8-1.9-16.8-3.5-24.2-1.3 5.5 8.4 14.2 11.3 19.5 12.2-6.1-.4-16.5-.1-19.5 6.3 10.8 1.6 22.3 3.7 32.6 5.9 17.7 3.7 31.6 7.3 31.6 7.3l17.6 6.5 8.6-9.1-8.5-17.5z"/><path class="st8" d="M392.9 293.4s-8-2.6-18.5-7.2l-6.5 30.8c15 3.5 26.8 7.6 26.8 7.6l-1.8-31.2z"/><path class="st9" d="M350.3 273.5c-1.9 8 .9 12.9 4.5 15.8-6-1.8-13.7-2.5-19.7 1.6 5.4 10.7 24.6 13.8 25.2 14.2.6.3-22.7-6.9-25.2 6.9 10.8.5 22.5 2.8 32.8 5.2l6.5-30.8c-7.5-3.6-16.2-7.8-24.1-12.9z"/><path class="st5" d="M392.9 293.4s-8-2.6-18.5-7.2c-7.5-3.3-16.3-7.6-24.1-12.7-1.9 8 .9 12.9 4.5 15.8-6-1.8-13.7-2.5-19.7 1.6 5.4 10.7 24.6 13.8 25.2 14.2.6.3-22.7-6.9-25.2 6.9 10.8.5 22.5 2.8 32.8 5.2 15 3.5 26.8 7.6 26.8 7.6l-1.8-31.4z"/><path class="st4" d="M394.6 225.5s16.9-18.4 11.1-40.5-19.1-24.2-21.5-33.5c-2.4-9.3 4.1-16.3 11.4-16.6 13.2-.3 13.2 13.2 8.3 14.2-4.9 1-3.6-5.5-7.6-5.5-3.9 0-4.6 4.5-3.7 9 .8 4.6 8.5 7.3 14.1 6.5 11.3-1 16.4-16.9 8.7-27.3-7.7-10.4-27.7-10.4-34.9-4.9-7.1 5.5-11.2 8.6-11.2 24.2s18.2 14.5 22.2 30.8-1.7 35.6-1.7 35.6l4.8 8z"/><path class="st4" d="M389.9 217.5s5.7-19.3 1.7-35.6-32.3-24.6-61.8-24.2c-29.6.3-75.9-2.1-79.7-.3-3.7 1.8-4.1 6.9-.7 9 3.4 2.1 109.2 8 109.2 8l19.2 16.9-4.4 21.5 16.5 4.7z"/><path class="st4" d="M253.5 182.2c-6.2 3.1-3 12.8 4.1 12.1 7.2-.6 94.1-8.3 98.5-8.3s11.7 5.2 11.7 9-6.2 13.5-6.2 13.5l13.2 4.6s5.8-11.8 5.8-20.1-6.6-17.3-18-19.4c-11.3-2.1-102.8 5.5-109.1 8.6z"/><path class="st0" d="M352.4 200.6c4.9-5.5 14.8-.3 14.5 4.5 4.5-3.1 16.9-1 18.2 7.6 4.9-4.1 14.3 2.8 14 8.3 4.9-2.4 15.2 1.3 12.8 9-2.4 7.6-29.6 37.1-29.6 37.1L338.6 244c.1-.1 8.9-37.9 13.8-43.4z"/><path class="st5" d="m375.4 255.6 23.7-34.7M385.1 212.6l-20.3 39.1M350.3 245.8l16.6-40.8"/><path class="st1" d="M385.6 259.7c-4.3-10.1-39.1-22.5-47.7-19.4-5.9 2.1-8.2 9.3-9.1 13.7 19 4.6 38.6 15 50.5 22.3 4.3-4.4 8.9-10.8 6.3-16.6z"/><path class="st2" d="M462 534.6h-78.3c-.3 3.4-.6 6.9-1 10.4h80.6l-1.3-10.4zM453.7 465.9h-63.8s-2.8 33.2-6.2 68.7H462l-8.3-68.7zM464.6 555.3h-82.9c-2.8 27.7-5.6 53-7.3 60.7 50.6 3.2 97.3-2.6 97.3-2.6l-7.1-58.1z"/><path class="st3" d="m392.9 550.7-5.2 56 70.5-2.3-8.6-53.7z"/><path class="st2" d="M385.6 425.6h74.6c-.4-3.6-.7-7.5-1.1-11.4H387c-.4 4-.9 7.7-1.4 11.4z"/><path class="st2" d="M378.7 467.4h87.1s-3-17.1-5.6-41.8h-74.6c-3.2 24.5-6.9 41.8-6.9 41.8zM391.2 349.5c.1 17.8-1.1 36.4-2.8 53.2h69.9c-1.1-15.9-1.8-33.4-1.3-50.8.4-15.6 1.6-30.7 3.1-44.6h-70.7c1 13.3 1.7 27.6 1.8 42.2zM387 414.2h72.1c-.3-3.7-.6-7.5-.9-11.4h-69.9c-.3 3.9-.7 7.7-1.3 11.4z"/><path class="st2" d="M389.3 307.4H460c.3-3.2.7-6.3 1.1-9.3h-72.7c.4 3 .6 6.1.9 9.3zM465.7 269h-80.6c.8 5.8 1.7 12.4 2.4 19.7h75c1-7.2 2.1-13.9 3.2-19.7zM387.6 288.7c.3 3 .6 6.1.9 9.3h72.7c.4-3.2.8-6.3 1.2-9.3h-74.8z"/><path class="st2" d="M471.1 242.4h-90.2s2 10.3 4.3 26.7h80.6c2.8-16.5 5.3-26.7 5.3-26.7z"/><path class="st3" d="m456.5 269 3.8-19.4h-68.7l2.7 19.4zM395.9 425.6l-4.8 34.6h62.6l-5.4-34.6z"/><path class="st2" d="M377.9 334.4H472v13.5h-94.1zM377.9 347.9H472v14.5h-94.1z"/><circle class="st2" cx="424.9" cy="356.7" r="8.8"/><circle class="st2" cx="424.9" cy="340.1" r="8.8"/><path class="st2" d="M463.4 544.9h-80.6c-.3 3.5-.7 6.9-1 10.4h82.9l-1.3-10.4z"/><path class="st1" d="M278.7 328.1c17.8 0 19.7 10.7 25.4 15-6.7 5.3-11.4 15-25.4 15"/><circle class="st2" cx="278.7" cy="343.2" r="15"/><circle class="st2" cx="278.7" cy="343.2" r="4.5"/><path class="st4" d="M258.2 368.4c-3.9-.2-7.3-.4-9.4-.5 1.3 3.2.7 8-1.8 11 2.3.3 5.8.8 9.9 1.5l1.3-12z"/><path class="st2" d="M214.3 366.2c-2.6 0-6 .1-10 .1l.6 13c3.7-.4 7.1-.7 9.8-1-1.1-2.2-1.2-6.5-.4-12.1z"/><circle class="st4" cx="360.3" cy="386.2" r="29.7"/><path class="st0" d="M300 478.6c0-5.8 4.7-10.5 10.5-10.6-9.3-5.6-17.3-13.3-23.2-20-.3.5-.5 1-.8 1.7 2.2 2 3.5 4.7 3.5 7.8 0 5.8-4.8 10.6-10.6 10.6-.9 0-1.9-.1-2.7-.3-5.8 10.3-11.9 20.3-14.5 21.5-5.4 2.4-76.8-29-76.8-29L155 439.8s2.8-14.2-2.1-19.9-53.9-8-61.5-3.9c-7.6 3.9-7.6 9.8-4.5 13-6.5 0-12.4 7.8-4.5 14-6.9 1.8-4.1 11.1 0 11.4-4.3 1.8-5.2 13.2 2.4 13.2s55.7-5.5 65-1.6 92.2 48 106.9 53.2c23.8 8.5 29.3-2.4 37.2-13.3 2.8-3.8 7.5-10.4 12.4-17.4-3.7-1.8-6.3-5.5-6.3-9.9z"/><path class="st0" d="M169.3 471.9 176 484s9.3 9.6 12.8 9.6c3.4 0 9.4-9 7.6-12.8-1.8-3.8-19.3-9-19.3-9l5.8-8.6s14.7 8.6 18.7 8.6c3.9 0 5.7-9.1 3.4-11.7-2.3-2.6-16.1-5.9-16.1-5.9l-14.5 3.3-5.1 14.4z"/><path class="st4" d="m155 439.8-5.2 26.1 26.4 18.1 12.7-29.7z"/><path class="st5" d="M82.4 454.3h11.1M93.5 442.9H82.4M86.9 428.9c1.3.1 6.5 5.3 6.5 5.3"/><path class="st2" d="M116.6 258.8c1.7-5.2-3.4-8.1-9.6-6-6.2 2.1-30.1 20.7-31.8 45.3-1.8 24.6 13.2 49.8 22.5 72.7 9.3 22.9-.7 52.8 1 58.2.5 1.7 4.7 3.2 10.1 4.3 2.4-23.8 3.5-44.4 1.9-55.2-5.7-36.2-28.1-41.6-26-80 2.1-25.3 20.1-38.5 31.4-37.1.1-1 .3-1.7.5-2.2"/><path class="st3" d="M108.7 289.8H85.8c-.6 2.6-1.1 5.4-1.3 8.3v.9l24.1-.7c-.2-2.8-.1-5.6.1-8.5zM115.9 260.9c-8.8-1-21.8 6.7-28 22.2l21.5 1.8c1.6-10 4.8-19.3 6.5-24z"/><path class="st6" d="M109.5 284.9 88 283.1c-.8 2.1-1.6 4.3-2.1 6.6h23c.1-1.6.3-3.3.6-4.8zM109.1 302.7c-.2-1.5-.4-2.9-.5-4.4l-24.1.7c-.1 2.5-.1 4.9 0 7.1l25-1.5c-.2-.6-.3-1.2-.4-1.9zM138.7 366.3c-5.9-24.9-19.9-40.5-26.6-54.1L85 313.3c3.7 25.4 20.5 33.9 25.5 64.7 1.8 10.8.6 31.5-1.9 55.2 11.8 2.4 30.1 3 32.5 0 3.5-4.3 4.9-36.2-2.4-66.9z"/><path class="st3" d="m109.5 304.6-25 1.5c.1 2.6.3 5 .6 7.3l27.2-1.1c-1.3-2.7-2.3-5.2-2.8-7.7z"/><path class="st1" d="M196.2 710.1s-12.8 4.7-55.7 11.5c-1.8 12.8 9.6 24.9 9.6 24.9l59.2-23.1-3.6-13.3h-9.5z"/><path class="st0" d="M219.3 707.9s-.2-2.8-5.4 2.6c-5.1 5.4-55.5 27-60.7 29-5.2 2.1-7.3 6.2-7.3 8.6 0 2.4 5.5 9.1 11.7 4.9-.7 5.9 12.4 5.9 16.6-1-2.1 4 6.5 5.1 11.4 1.8-2.4 5.2 7.8 4.1 14.5-1.3-2.4 6.2 8.3 5.9 13.2-1.3 1.7-2.5 7.9-3.3 15.2-3.3l.2-39-9.4-1z"/><path class="st4" d="m262.2 750.6-9-40.1-24.3-1.9-.2 39c14.4 0 33.5 3 33.5 3z"/><path class="st1" d="M255.6 714.6c2.8-2.5 2.1-11.2-.3-14.2s-41.8-2.3-44.1 1.1c-2.3 3.4-3.1 12.3 2.2 14.4 5.3 2.1 39.4 1.2 42.2-1.3z"/><path class="st2" d="M219.3 743.7c-4.4.3-8 8-4.4 8.6 3.6.7 47.2 2.1 49.3.7s-.7-9.3-4.5-9.3-36-.3-40.4 0z"/><path class="st1" d="M194.1 708.1c-2.4 4 4.1 12.4 7.3 11.4s11.1-4.6 12.7-9c1.6-4.5-1.2-10.1-6.4-10.1-5.3 0-11.2 3.5-13.6 7.7z"/><path class="st5" d="m209.5 740.2-9.2 12.2M185.8 753.7l11-13.5M184.1 740.2l-9.7 11.8M157.8 753l12.5-12.8"/><path class="st2" d="M162 700.5h93.4s-2.3-14.2-4.5-31.8h-82.5l-6.4 31.8z"/><circle class="st4" cx="486.8" cy="386.2" r="29.7"/><path class="st4" d="M482.1 382.4c-2.1 3.1-2.1 35.9-2.1 35.9h19.8s-4.7-32.6-6-35.9c-1.4-3.3-9.7-3.1-11.7 0z"/><path class="st2" d="M478.1 421.8s-4.5 8.8-4.5 11.9c0 3.1 7.3 4.1 8.6 1 .3 3.8 7.7 3.4 7.7 0 1.3 4.1 9.8 2.7 10-1 2.4 3.7 8.6 2.2 9.1-1.3s-5.5-10.7-5.5-10.7h-25.4v.1z"/><path class="st5" d="m499.9 433.7-2.1-9.8M489.9 425.6v9.2M482.3 434.8v-9.2"/><circle class="st2" cx="492.1" cy="450.3" r="15.6"/><circle class="st5" cx="492.1" cy="450.3" r="5.9"/><path class="st1" d="M476.2 425.6c-1.8-4.1 0-9.6 3.8-12.1 3.8-2.4 16.2-2.5 19.8-1 3.6 1.5 7.8 9.9 5.4 13.2-2.4 3.2-27.3 4.1-29-.1z"/><path class="st4" d="M586.9 251.1c4.8 7.5 9.6 14.1 9.6 14.1l25.9-2.2 1.6-18.5c-6.2-1.4-19.3-2.4-37.1 6.6z"/><path class="st1" d="M581.3 241.4c1.6 3.1 3.5 6.4 5.6 9.6 17.8-9 30.9-8 37-6.5l.7-9c-7.8-1.2-24.3-2.1-43.3 5.9z"/><path class="st2" d="m585.6 229 3.1 9.8c2.7-.8 5.3-1.6 7.8-2.1l-3.5-10.6c-2.5.7-4.9 1.7-7.4 2.9z"/><path class="st2" d="M578.2 233.3c.3 2.1 1.6 5 3.1 8.1 2.5-1 5-2 7.4-2.7l-3.1-9.8c-2.5 1.3-4.9 2.7-7.4 4.4zM593 226.1l3.5 10.6c3-.6 5.9-1.1 8.6-1.5l-1.3-11.4c-3.4.3-7 1-10.8 2.3z"/><path class="st2" d="m603.8 223.8 1.3 11.4c3.5-.4 6.7-.5 9.6-.5v-11.2c-3-.1-6.7-.1-10.9.3zM614.8 223.6v11.2c4 0 7.4.4 9.9.7l.8-10.1c.1.1-4.1-1.3-10.7-1.8z"/><path class="st8" d="M630.6 262.9v11.5c.2 0 5.4.8 10.5 1.5v-15.7l-10.5 2.7z"/><path d="M641.1 260.3V276c5.2.7 10.5 1.3 10.5.8v-19.2l-10.5 2.7z" style="fill:#fff"/><path class="st5" d="M630.6 274.5c.4 0 21 3.3 21 2.3v-19.2l-21 5.3v11.6zM625.9 269l25.9-1.6"/><circle class="st4" cx="588.8" cy="282.7" r="13.6"/><circle class="st4" cx="588.8" cy="282.7" r="5.9"/><path class="st4" d="M628 270.6c0 8.3-8.4 14.9-18.9 14.9-10.4 0-18.9-6.7-18.9-14.9 0-8.3 9.4-15.9 19.9-16 17.9-.1 17.9 7.8 17.9 16z"/><path class="st0" d="M595.5 278.9c-2.5 4.7-2.9 12.7 3.3 14.5s27-2.6 27-2.6c-4.5 5.5-1.9 10.7 4.9 12.4 7.3 1.9 11.7-2.1 11.7-10.9s-16.6-8.8-16.6-8.8 13.3-6.8 9-17.5c-4.5-11.3-4.9-14.3-4.1-17.4 1.9 4.5 7.3 3.9 11.1 1s4.5-8.1 1-13.2c-3.4-5.2-10.2-5-16.3-2.8-6.1 2.2-9.4 10.5-6.9 18 2.5 7.6 5 16.2.4 21.7-4.5 5.6-21.9.9-24.5 5.6z"/><path class="st5" d="M630.8 248.6c0-3.8.3-7.2 7.3-7.2M625.9 290.8c2.1-3 12.8.4 8.5 5.5"/><circle class="st2" cx="610.9" cy="273.3" r="8.1"/><path d="M491.8 355.6c1.6 3.6 20.4-.5 21.1-3.3.6-2.3-4.5-49.2-6.1-64.2-6-7.4-15.5-5.3-19.7 4.5.7 13.7 3.4 59.9 4.7 63z" style="fill:#ffce00"/><path class="st5" d="M487 292.5c.7 13.7 3.4 60 4.7 63.1 1.6 3.6 20.4-.5 21.1-3.3.6-2.3-4.5-49.2-6.1-64.2"/><path class="st4" d="M511.1 246.8c-11.3-1.5-37.5 11.5-45.4 22.1h0c-.5 2.9-1 6-1.6 9.3 2.3 6.1 9.5 10.1 13.2 11.6 9.4-16.1 29.6-24.6 45.8-26.4-.7-6.1-3.1-15.4-12-16.6z"/><ellipse class="st2" cx="573.7" cy="347.1" rx="15" ry="14.7"/><ellipse class="st2" cx="573.7" cy="347.1" rx="4.5" ry="4.4"/><path class="st4" d="M637.5 367.6c1 5 .9 10.6-2.2 12.4-.1.1-.2.1-.3.1 3.6.3 12.8 1.1 22.1 1.9l.6-13.5c-7.8-.4-15.6-.7-20.2-.9z"/><path class="st2" d="M684 370.8c-1.5-.6-7.1-1.1-14-1.6l-.4 13.8c4.7.3 8.5.5 10.4.5 7.1 0 8.5-10.8 4-12.7z"/><path class="st1" d="m657.8 368.5-.6 13.5c4.3.3 8.6.7 12.3.9l.4-13.8c-3.7-.2-8-.4-12.1-.6z"/><path class="st2" d="M554.7 371.8c-4.5 2.7-5 14.5 3 14.5 1.9 0 5.6-.3 10.1-.8l-1.3-15.6c-6 .5-10.6 1.2-11.8 1.9z"/><path class="st4" d="M603 367.9s.1 0 0 0c-4.1.1-11.7.4-19.6.8l.7 14.6c7.4-1 14.4-2.1 18.6-2.7-1.7-3.9-1.2-10.6.3-12.7z"/><path class="st1" d="m566.4 369.8 1.3 15.6c4.9-.5 10.7-1.3 16.4-2.2l-.7-14.6c-5.9.4-11.9.8-17 1.2z"/><path class="st4" d="M538.4 535.9c.3 7.9.6 21-.3 24.4-1.3 5.1-11.5 7.1-13.2 1-1.1-4-.3-16.2.4-23.8-6.7-.5-12.9-3.3-17.6-7.5-1.8 11.9-4.5 33.6-1.5 40 4.1 9.1 15.1 12.7 25.8 12.7 10.7 0 23.3-5.5 24.5-14.1.7-6.2-2.7-29.8-4.8-42.4-3.4 4.4-8 7.7-13.3 9.7z"/><path class="st1" d="M525.4 537.6c-.6 7.6-1.6 19.7-.4 23.8 1.7 6 11.7 4 13.2-1 .9-3.4.6-16.5.3-24.4-3.2 1.1-6.7 1.9-10.5 1.9-.9-.2-1.8-.2-2.6-.3z"/><path class="st4" d="m675 471 18.3 20.3c12.3-10.4 23.1-19.2 29.4-23.5l-17.3-20.5c-8.8 6.6-19.5 15.1-30.4 23.7z"/><path class="st5" d="M771.9 451.4c-16.1-1.8-37.3-7.8-37.3-7.8"/><path class="st4" d="M618.1 637.8c7.5 5.8 19.3 15.2 27.1 21.5 7.4-6.9 14.3-13.8 20-19.9l-30.3-20.7-16.8 19.1z"/><path class="st1" d="M664 584.3c-11-3.1-38.8-3.2-50.7-3l13.3 38.4 8.4-1.1 30.3 20.7c7.2-7.7 12.4-14.3 14-18.4 6.8-18.4-1.2-32.6-15.3-36.6z"/><path class="st5" d="M634.9 618.6c6.5-7.5 12.6-5.9 12.6-5.9"/><path class="st2" d="M541.6 722.8c-3.4 0-5.5 1.7-5.5 5.1 0 3.4 35.3 21.9 37.9 21.9 2.6 0 2.6-5.5 0-8.6-2.6-3.1-29-18.4-32.4-18.4z"/><path class="st0" d="M563.4 704.7c-2.3-4.7 2.4-10.7 7.1-10.7s17.3 10.1 20.5 13.4c3.3 3.3 1.3 11.2-2.8 11.7-4.1.6-22.4-9.8-24.8-14.4z"/><path class="st5" d="M615 753.7s6.5 11.3 5.4 15.9M608.6 767.2c.7-5.9-3.9-13.5-3.9-13.5M594.3 746.5s6.2 9.6 4.7 15.2M587.2 757.9c2.5-2-4.6-13-4.6-13"/><path class="st3" d="M728.3 599.4c-22.5-11.8-42.8-22.6-56.2-26.7-22.3-6.7-51-7.7-64.5-7.7l5.7 16.3h0c11.9-.1 39.7-.1 50.7 3 12.9 3.6 20.6 15.7 16.7 31.6 9 5.6 18.8 12 28.5 18.6l19.1-35.1z"/><path class="st12" d="m99.9 257 2.7 7.7M108.7 252.2v9.6M87.3 269.4l5 5.5M95.8 270.5l-3.4-6.8M76.3 290.9 85 294M75.4 308.9l9.2-.2M84.4 300.1H75M79.2 282.5l6.9 5.8M82.8 275.8l5.8 5.8M78.6 324.2l9.4 1M86 318.3l-9.2-.8M94.3 362.9l13.2 2.4M109.4 372.2l-12.3-2.6M100 378.6l10.9 2.5M84.2 340l12.1 1.9M91.6 333.5l-10.8-2.1M101.2 350.4l-13.4-2M90.9 355.3l13.6 2M111.3 388.6l-10.1-3.1M101.6 394l9.7 2.6M98.8 422.8l10.3 7.3M99.6 416.9l10.1 5.7M110.9 405.4l-9.5-3.5M100.7 409.4l9.7 4M100 499.9l-10.1-5.2M88.4 505.4l10.1 5.1M97 520.1l-9.8-4.9M92.5 475.3l10.3 5.3M104 472.3l-10.4-5.2M101.6 489.3 91.3 484"/><path class="st5" d="m217.3 596.7-2-13.5M208.9 597.3l-1.1-13.6M235.2 593.8l-3.3-13.8M223.3 582l2.5 13.5M180.2 596.1l3.9-13.6M179 581.5l-6.4 13.1M198.1 597.4l1.1-13.6M191.5 583.3l-2.3 13.7M289.2 560.8l-8.5-12.1M298.7 544.1l-7.1-8.5M286.2 542.4l8.8 11.3M268.7 579.6l-8.2-13M253.8 570.9l7.1 13.3M251.4 588.7l-4.9-14.1M240 577.4l4.5 13.8M282.3 568.2l-8.4-12.6M276 574.1l-8.8-12.6M365.8 508.8l-1.3 9.8M373 508.8l-1.2 11.9M380.3 508.8l-1.2 11.9M585.7 552l15.6-4.9M588.8 560.2l15-4.7M591.9 568.3l15.1-4.8M595 576.5l13.6-4.2M597.1 584.7l14.1-4.4M599.2 592.8l15.6-5.1M601.1 601l16.4-4.3M604.3 608.1l16.5-3.7M607.6 616.9l16.7-3.8M790.3 636.9l18.4 7M786.4 643.3l19.2 7.7M783.1 648.4l18.1 8.9M780.1 655.8l18 8.9M776.5 661.7l17.1 9.8M771.8 668.4l16.1 10.9"/><circle class="st13" cx="120" cy="513.3" r="3.5"/><circle class="st13" cx="121.8" cy="480.6" r="3.5"/><circle class="st13" cx="127" cy="419.4" r="3.5"/><circle class="st13" cx="128.9" cy="384.5" r="3.5"/><circle class="st13" cx="118.8" cy="352.9" r="3.5"/><circle class="st13" cx="104" cy="324.2" r="3.5"/><path class="st4" d="M470.2 613.5c-3.9.4-15.6 1.7-31.5 2.6.4 6.7 1.3 21.1.8 21.8-.7 1 37.1-2.1 37.1-2.1l-6.4-22.3z"/><circle class="st0" cx="289" cy="561.3" r="10.6"/></svg>