<svg version="1.1" id="Calque_1" xmlns="http://www.w3.org/2000/svg" x="0" y="0" viewBox="0 0 900 900" style="enable-background:new 0 0 900 900" xml:space="preserve"><style>.st0,.st1,.st2,.st4,.st5,.st6{fill:#fff;stroke:#000;stroke-width:3.3288;stroke-linecap:round;stroke-linejoin:round;stroke-miterlimit:10}.st1,.st2,.st4,.st5,.st6{fill:none}.st2,.st4,.st5,.st6{fill:#332f2d}.st4,.st5,.st6{fill:#1b6d00}.st5,.st6{fill:#ffce00}.st6{fill:red}.st7{fill:none}</style><path class="st0" d="M577.1 807.8s20.6 1.4 31.2 0l-.6 5.5-9.4 6.2-21.2-11.7zM422.3 815s18.1 12.5 30 17.5c10-13.7 6.9-21.2 6.9-21.2l-34.3-1.9-2.6 5.6z"/><path class="st1" d="m426 811.3 31.9 11.2"/><path class="st0" d="M415.4 798.8s6.4-5.4 10.2-3.5 1.5 17.7 1.5 17.7l-10.4-1-1.3-13.2zM565.2 795.1s-4.4-15-13.7-11.2c-9.4 3.7-5 15.6-5 15.6l3.7 12.5 5-4.2 10-12.7zM567.3 799.7s19.8 14.1 40.4 13.5c-2.5 6.2-3.7 12.5-3.7 12.5l-35 1.2-11.2-15 9.5-12.2z"/><path class="st2" d="M406.1 640.9c-.6 6.2 1 26.8 1 26.8s-9.2 18.1-11.7 30c-2.5 11.9-4.8 74.9-5.4 84.3s-8.3 25.8-8.3 25.8l25 8.6 10-4.4s.2-17.5 1.5-23.7c11-33.7 34.3-109.2 35-113.6.6-4.4 6.7-9.2 7.3-12.7s.6-26.6.6-26.6-54.4-.7-55 5.5zM523.4 805.1s1.9-30.6 0-38.7-13.7-41.2-13.7-58.7 10.6-40.6 8.7-46.8c-1.9-6.2-18.7-25-22.5-34.3s52.4-21.2 52.4-21.2 15 32.5 15 40.6-5.6 53.7-8.1 81.1c-2.5 27.5-2.5 82.4-2.5 82.4L536.5 820l-13.1-14.9z"/><path class="st2" d="M459.1 847.5c5.6.6 10.6 1.2 12.5-2.5 4.4 0 5-7.5 3.1-11.9s-23.7-7.5-23.7-7.5l-34.3-13.7-16.9 1.9-8.1 13.7 5.6 10 45.6 6.9s10.6 2.5 16.2 3.1zM560.2 803.8c30 20.6 51.2 17.5 56.8 17.5 5.6 0 5.6 8.1 1.2 11.2-4.4 3.1-38.7 4.4-38.7 4.4l-36.8.6v-14.4c0 .1 11.3-6.2 17.5-19.3z"/><path class="st0" d="M416 804.4c-3.1 0-6.2 3.1-5 7.5 1.2 4.4 10 6.4 11.9 5.8s6.2-7.9 4.4-10c-1.9-2.1-8.1-3.3-11.3-3.3zM564.6 792s-5 14.4-11.9 17.5-4.4 10 1.2 7.5c5.6-2.5 13.5-11.9 14.1-16.9.8-5-3.4-8.1-3.4-8.1z"/><path class="st0" d="M379.8 803c-3.7.8-5.6 26.4-5.6 26.4l30 5.6s2.5-18.7 8.1-23.1c-2.5-4.1-28.7-9.8-32.5-8.9zM523.4 805.1c-7.5 6.2-6.9 31.8-6.9 31.8l21.8 1.2 12.5-3.1s-.6-5.2 1.2-12.1 3.1-15.2 3.1-15.2-23.6 5.5-31.7-2.6z"/><path class="st0" d="m371.7 826.3 94.2 18.1s1.2 3.7.6 5.6c-23.1-.6-94.5-14.4-95.7-18.1-1.2-3.7.9-5.6.9-5.6zM618.3 832.5l.6 6.9s-105.3.6-104 2.5-1.5-5.4 1.7-6.7c3.1-1.2 101.7-2.7 101.7-2.7z"/><path class="st2" d="M513.4 286.4c6.9 1.9 18.7 18.1 17.5 29.3 13.1 19.3 19.3 39.9 25.6 49.9 5-8.7 17.5-14.4 40.6-28.7 23.1-14.4 21.2-26.8 25-34.3 3.7-7.5 23.1-11.2 23.1-11.2l-7.5 47.4s-13.7 8.7-18.7 14.4c-5 5.6-12.9 19.6-25.4 35.8-12.5 16.2-33.9 26-41.4 24.1-7.5-1.9-19.3-10-29.3-18.1-10-8.1-14.4-26.2-14.4-26.2l-7.5-56.5c-.1.1 5.5-27.7 12.4-25.9z"/><path d="M381.1 479.9s-13.7 38.7-19.3 73c-5.6 34.3-16.2 72.4-23.1 87.4 108 25.6 209.7-35 209.7-35l3.1 7.5s8.5-3.1 8.5-8.7-11.7-28.7-14.1-54.3c-2.5-25.6-5-61.2-5-61.2l-105.5-57.4-54.3 48.7z" style="fill:#637a00;stroke:#000;stroke-width:3.3288;stroke-linecap:round;stroke-linejoin:round;stroke-miterlimit:10"/><path class="st1" d="M374.2 645.3c3.1-29.3 31.2-155.4 31.2-178.5M427.3 511.1c-1.9 30-21.8 134.2-21.8 134.2M454.1 531.1c3.7 21.8-10.2 110.5-10.2 110.5M485.3 536.1c1.2 12.5-6.9 97-6.9 97M509 529.9l-1.2 94.8M528.4 514.3c4.4 27.5 6.9 98 6.9 98"/><path class="st2" d="M505.3 394.4s.3-8.2 2.2-17.2c2.1-9.4 5.9-19.7 5.9-29.6 0-19.3-2.5-37.4-2.5-37.4l-35-27.5s-4.4-9.8-15.6-15.2-5-21.6-5-21.6l-46.2-5.6-28.1 26.2-3.1 13.7-5.7 130.2 66.6 52.4 59.5-57.2 7-11.2z"/><path class="st2" d="M391.1 373.8c1.2 10-6.2 25-6.2 25s33.1 30.6 38.7 41.8c5.6 11.2 23.1 40.6-9.4 31.2s-59.9-39.3-59.9-39.3-12.5-3.1-14.4-12.5c-1.9-9.4 3.1-6.9 2.5-12.5s-.6-70.5 6.2-78.6c6.9-8.1 38.7 18.1 38.7 18.1s2.5 16.8 3.8 26.8z"/><path class="st4" d="M379.8 272.7s15 61.2 58.7 87.4 71.8 32.5 74.3 37.4 0 12.5 4.4 24.3c4.4 11.9-65.5-4.4-65.5-4.4s6.2 4.4-32.5-17.5c-38.7-21.8-76.8-71.8-77.4-82.4-.7-10.5 38-44.8 38-44.8z"/><path class="st4" d="M460.4 267.5c3.7 8.3 16.9 69.5-32.5 121.3s-115.1 83-117.5 86.8c-2.5 3.7 3.3 11.9 2.1 22.5s-20 36.2-21.2 40.6c-1.2 4.4 3.7 80.7 6.2 80.1 2.5-.6 37.4-23.3 39.3-26.4s-7.5-65.5-5-74.3c5.6-5 103-59.9 142.9-109.8s38.7-121.7 38.7-121.7-30.7-18.1-53-19.1z"/><path class="st1" d="M298.7 537.3c5-7.5 22.5-12.5 33.1-19.3"/><path class="st2" d="M384.8 398.8s33.1 30.6 38.7 41.8c5.6 11.2 23.1 40.6-9.4 31.2s-59.9-39.3-59.9-39.3"/><circle class="st5" cx="478.7" cy="474.1" r="65.5"/><circle class="st6" cx="478.7" cy="475.6" r="54.9"/><path class="st0" d="M457.9 464.9c-5.6-8.7-15-18.7-14.4-23.1 5.6 0 16.9 10 21.2 18.7-4.4-13.7 0-27.5 14.4-27.5s14.4 21.8 6.2 26.2c6.2-5 25.6-16.2 31.8-16.2 0 4.4-18.9 18.9-23.5 24.8 8.5-5.4 22.9-5.4 22.9 11.4 0 16.9-16.9 16.2-24.3 8.7 8.7 8.1 18.7 21.2 17.5 26.2-11.2-5-21.2-13.7-26.8-20.4 7.5 8.5 6.9 29.1-11.2 27.3-18.1-1.9-13.7-25-3.1-30-12.5 8.1-13.1 12.5-28.1 15 1.2-6.2 11.2-15 20.6-21.8-11.2 7.5-26.8 7.3-26.2-9.8s19.8-14.4 23-9.5z"/><path class="st1" d="M469.1 448.7s2.1-7.3 8.9-7.3c6.9 0 5.4 7.3 5.4 7.3M502.8 469.9s7.5-.6 6.2 8.7-7.5 6.9-7.5 6.9M451.6 467.4s-8.7-1.9-10 6.9c-1.2 8.7 7.5 8.7 7.5 8.7M467.8 501.1s-1.9 11.9 6.9 11.9 6.2-10.6 6.2-10.6"/><circle class="st5" cx="474.7" cy="474.3" r="9.4"/><path class="st2" d="M481 147.9s-.8 29.3 1 35.6c1.9 6.2-3.5 22.5-3.5 22.5s-.6 4.8-1.2 6.7c-.6 1.9-16.2 5.2-15 8.3 1.2 3.1 11.2-.6 11.9 1.2 1.9 4.4-3.1 4.4-3.7 7.5s1.5 14.8-4.2 16.6c-5.6 1.9-50.1.8-53.9-1-3.7-1.9-6.2-88-6.2-88l44.3-21.2 30.5 11.8z"/><path class="st2" d="M481 147.9s-.8 29.3 1 35.6c1.9 6.2 7.7 16.2 7.7 20 0 3.7-18.7 4.4-20 0-1.2-4.4 5-5 5-5"/><circle class="st0" cx="433.7" cy="219" r="12.5"/><path class="st0" d="M447.9 186.6c23.7 3.1 25-5.6 25-8.7-.1-3.2-18.2-7.5-25 8.7z"/><circle class="st1" cx="463.9" cy="178.5" r="3.1"/><path class="st1" d="M444.1 176c11.9-16.9 27.5-8.7 27.5-8.7"/><path class="st4" d="M388 184.7c-1.2 25.6-27.5 90.7-27.5 90.7s50.6-2.5 53.1-6.7 0-102.8 0-102.8-24.4-6.8-25.6 18.8z"/><path class="st1" d="M398.2 173.5s-.8 66.8-9.6 98.6M373.6 263.3s4.4-11.4 7.5-10.8c3.1.6 3.1 10.2 3.1 10.2M376.7 244.6s5-12.7 8.1-11.4c3.1 1.2 1.2 12.7 1.2 12.7M382.3 225.3s4.4-11.9 7.5-11.9c3.1 0 1.2 11.9 1.2 11.9M388.6 202.8s2.1-12.5 4.6-11.2c2.5 1.2-.2 12.5-.2 12.5M398.6 267.7s3.1-12.5 5.6-12.5c2.5 0 2.5 10.6 2.5 10.6M400.4 249s.6-12.5 3.7-13.1c3.1-.6 4.4 13.7 4.4 13.7M401.1 229s.6-12.5 3.7-12.5 2.5 12.5 2.5 12.5M402.3 208.4s1.2-10.6 3.7-11.2c2.5-.6 4.4 11.9 4.4 11.9M402.9 190.3s.6-11.9 3.1-12.5c2.5-.6 3.1 12.5 3.1 12.5"/><path class="st6" d="m361.1 137.9-24.3-8.7s18.9-24.5 61.6-39.7 74.5-12.7 74.5-12.7l-3.5 20-46.4 22.5-61.9 18.6z"/><path class="st4" d="M353 91.5s-43.1 7.7-75.5 42-69.9 56.8-86.1 61.2c-9.4 1.9-7.5-5.6-2.5-8.1S212 181 239.5 151s39.9-44.3 50.6-54.9c-19.3 7.5-45.6 30.2-67.4 43.3s-49.9 19.1-54.3 18.5c-4.4-.6-5-6.9-1.9-8.7s35.6-9.4 51.2-20.6 58-45.6 81.8-58c23.5-12.6 44.4-18.4 57.7-18 13.3.4 5.2 13.5 5.2 13.5L353 91.5z"/><path class="st1" d="M290 96.1c11.9-8.7 43.1-24.3 64.9-25M246.9 152.9c11.9-8.1 44.9-44.1 65.5-56.6s43.1-17.1 43.1-17.1"/><path class="st1" d="M225.1 129.2c17.5-7.5 52.2-39.7 84.7-52.8S358 64.2 358 64.2"/><path class="st0" d="M378.9 56.3c-7.9-5.2-16.9-6.8-19.6-6.2-4.4 1-6.2 43.5-6.2 43.5l22.6-8.6c-2.3-8.8-2.3-22.7 3.2-28.7z"/><path class="st6" d="M389.9 68.6c-2.5-5.4-6.6-9.4-11-12.3-5.5 6.1-5.5 20-3.3 28.7l8.6-3.3s12.7 1.9 5.7-13.1z"/><path class="st1" d="m353.6 84.2 10-2.5M354.3 73.6h10.6M356.1 63.6h10M358 54.9l10 1.9"/><circle class="st0" cx="389.9" cy="77.9" r="9.2"/><circle class="st0" cx="401.7" cy="95.2" r="13.7"/><path class="st7" d="m426 157.2 6.3-1.2-1-3.3-6.2 2.9zM399.8 171.6l6.9-5.6-.9-1.4-8.6 4zM452.9 149.1l7.5-3.1-.1-3.6-8.3 2.9z"/><path class="st4" d="m358.7 161.4 22.6 14.6 15.9-7.4-19.9-23.2zM422.3 122.3l9 30.4 1-.4 19.7-7-7.2-29.9zM388.6 136l17.2 28.6 19.3-9-16.5-30.8zM482.1 112.6l-22.4 1.6.6 28.2 20-7z"/><path class="st0" d="m482.1 112.6 1.4-17.8s-25-5.2-71.2 10.4-66.8 47.6-66.8 47.6l13.2 8.5 18.6-16 19.8 23.2 8.6-4-17.1-28.5 20-11.2 16.6 30.8 6.2-2.9-9-30.4 22.5-6.9 7.2 29.9 8.3-2.9-.5-28.3 22.2-1.5z"/><path class="st1" d="m359.2 151-5.6-6.2M370.5 141.6l-5.6-6.8M381.7 134.8l-6.2-8.8M393.8 125.6l-5-8.7M407.3 118.1l-3.1-8.1M419.6 113.6l-3.8-8.8M432.9 110.4l-2.5-10.6M448.5 107.3l-1.9-10M461.6 104.8l-1.2-9.3M473.7 105l-1.3-10.6"/><path class="st4" d="M381.3 176c.6-5 47.9-35.6 99-40.6 1.9 2.5.6 10 .6 12.5-62.4 5-90.5 35-93 36.8-2.4 1.9-7.2-3.7-6.6-8.7zM626.4 202.2c4.4-8.1 8.1-19.3 8.1-19.3h-16.9s16.2-26.8 18.1-28.7h-16.9s20.6-25.6 23.1-38.1c9.4 18.7 22.5 38.1 22.5 38.1l-18.1 1.2s10 18.7 18.7 26.2l-17.5 1.2s-.6 9.4 5 18.7c5.7 9.4-30.5 8.8-26.1.7z"/><circle class="st4" cx="640" cy="223.7" r="27.1"/><circle class="st0" cx="640" cy="222.6" r="8.1"/><circle class="st4" cx="653.6" cy="439.5" r="14.1"/><circle class="st4" cx="653.6" cy="439.5" r="5.3"/><path class="st4" d="m583.9 295.8.7 8.1 151-5.6v-10.6z"/><path class="st4" d="M603.3 253.4s31.6 29.3 36 69.3c4.4 39.9-27.3 99.9-27.3 99.9s44.3 10.6 89.3-3.1c-3.7-4.4-34.3-51.2-36.8-98s8.1-57.4 18.1-71.8c-48.7-10.7-79.3 3.7-79.3 3.7z"/><path class="st1" d="M620.8 274c28.1-6.2 48.1-1.9 48.1-1.9M617.6 411.3c34.3 3.1 74.9-2.5 74.9-2.5"/><path class="st2" d="M629 327.6s10.5-15 12.4-19.3 15.6-3.7 15-5.6c-.6-1.9 0-3.7-3.7-5-3.7-1.2-8.1-1.2-14.4.6-6.2 1.9-11.4 10-12.7 15.6"/><path class="st2" d="M654 296.8c-.8 2.9-.8 6.7 2.9 8.7-.8 3.3-1.2 9.2 1.7 11.2-.4 3.7.4 6.7 2.9 8.7-1.7 3.7-.4 7.1 2.5 7.5s8.7-4.6 10-7.5c1.2-2.9-2.1-7.9-2.1-7.9s4.2-5.8-1.2-10c1.7-7.5-3.3-9.2-3.3-9.2s3.3-12.5-1.2-12.5c-4.7.2-11.4 8.1-12.2 11z"/><path class="st1" d="M667.3 298.5s-5.8 7.1-10.4 7.1M670.7 307.6s-7.5 9.2-12.1 9.2M671.9 317.6s-5.8 7.9-10.4 7.9"/></svg>