<svg version="1.1" id="Calque_1" xmlns="http://www.w3.org/2000/svg" x="0" y="0" viewBox="0 0 900 900" style="enable-background:new 0 0 900 900" xml:space="preserve"><style>.st0{fill:#fff}.st0,.st1,.st10,.st2,.st3,.st4,.st5,.st7,.st8,.st9{stroke:#000;stroke-width:3.0297;stroke-linecap:round;stroke-linejoin:round;stroke-miterlimit:10}.st10,.st2,.st3,.st4,.st5,.st7,.st8,.st9{fill:#ffce00}.st10,.st3,.st4,.st5,.st7,.st8,.st9{fill:none}.st10,.st4,.st5,.st7,.st8,.st9{fill:#7e3b1e}.st10,.st5,.st7,.st8,.st9{fill:#602229}.st10,.st7,.st8,.st9{fill:red}.st10,.st8,.st9{fill:none;stroke-width:2.0198}.st10,.st9{fill:#fff;stroke-width:3.2725}.st10{fill:#7f6a66;stroke-width:3.0297}</style><path class="st0" d="M391.2 701.1s-81.1-16-126.2-45.4c15.1-10.8 43.1-68.7 58.3-110.1 15.1-41.4 19.9-61.5 31.6-75.1 11.8-13.6 41.2 5.5 41.2 5.5l22.3 77.1 11.8 70.4-39 77.6zM454.9 199.9c8.7-7-.7-15.9-10.5-13.4-9.8 2.3-18.9 12.1-37.4 19.5-1.9.8-3.8 1.4-5.9 2l.6 1.5c1.5 4.5.9 8.8-1.2 9.5-2.2.7-5.3-2.3-6.8-6.8-.2-.7-.4-1.3-.5-2-15 3.5-30.1 5-35.6 11.6-7.4 8.7-4.4 17.5 3.8 19.2s7.4-.5 15.4 0c0 0-8.1 5.3-9.8 12.9-1.7 7.7 4 18.5 16.2 13.6 8.6-3.4 22.6-10.9 35.2-18.9-.3-.6-.6-1.3-.8-2-1.5-4.5-.9-8.8 1.2-9.5 2.2-.7 5.3 2.3 6.8 6.8v.1c2.6-1.8 5.2-3.6 7.5-5.4 14.4-11.1 28.6-14.8 32-22.9 3.4-8.1-.2-18.2-10.2-15.8z"/><path class="st1" d="M400.5 219c2.2-.7 2.7-4.9 1.2-9.5l-.6-1.5c-2.6.8-5.3 1.5-8 2.1.1.7.3 1.3.5 2 1.6 4.5 4.6 7.6 6.9 6.9zM418.7 237c-2.2.7-2.7 4.9-1.2 9.5.2.7.5 1.4.8 2 2.4-1.5 4.8-3.1 7.2-4.6v-.1c-1.6-4.4-4.5-7.5-6.8-6.8z"/><path class="st0" d="M444.4 351.7s43.7-6.1 92.9-5c49.2 1 72.4-17.5 72.4-13.1 0 4.3-14.4 34.1-14.4 34.1l-4.7 10-131.5-5-14.7-21z"/><path class="st2" d="M738.4 471.2c6-7.3 8.6-14.6 9.5-21-2.4-2.1-5.3-4.1-7.3-4.1-4.3 0-5.8 4.2-4.2 8-5.2-3.7-10.5 4-7.9 7.6-4.7-1.7-9.4 4.6-7.1 9.2-3.3-2.5-9.8 7.8-5.4 11.7 1 .9 3.2 2.2 6 3.8 4.7-3 10.3-7.9 16.4-15.2z"/><path class="st3" d="m736.4 454.1 8.8 5.6M739.1 469.8l-10.6-8.2M721.4 470.8l9.8 8.1"/><path class="st0" d="M736.4 442.3c-10 2.9-28.1 23.8-28.1 33.6 0 4.9 2.5 10.6 5 15 2.1-.8 5.2-2.1 8.8-4.5-2.8-1.6-5-3-6-3.8-4.3-3.8 2-14.2 5.4-11.7-2.3-4.5 2.3-10.9 7.1-9.2-2.7-3.5 2.7-11.3 7.9-7.6-1.4-3.7-.1-8 4.2-8 2 0 4.8 2 7.3 4.1.3-1.9.4-3.6.5-5.4-2.8-2-6.9-4.1-12.1-2.5z"/><path class="st1" d="M746.7 432.4s-30.3-5.4-45.8 7.6-16.4 28.9-16.4 28.9l-7.5 28.6 32.9-5.5s1.2-.2 3.4-1c-2.5-4.4-5-10.2-5-15 0-9.8 18.1-30.6 28.1-33.6 5.3-1.5 9.4.4 12 2.6.1-7.5-1.7-12.6-1.7-12.6z"/><path class="st0" d="m608.9 554.8 1-56 52.2 3.4s5.4 46.6 2.7 49.6-55.9 3-55.9 3z"/><path class="st2" d="m608 548.6 57.6-51.1 4 7.1-55.4 51.1z"/><path class="st0" d="M635.9 482.5c-2.7 0-4.3 11.7-2.7 12.5 1.7.7 33.6 4.7 33.6 4.7s5 41.8 7.3 44.8c2.1 3 10.2-.3 10.2-3s-10.9-48.6-10.9-48.6-34.8-10.4-37.5-10.4z"/><path class="st4" d="M736.6 491.9c-2.3-5.5-9.8-11.3-27.3-11.7-17.5-.3-27.3 9.5-27.3 9.5s7.4-18.6 8.1-30.1c.7-11.5-1-21.4-6.1-27.3-5-5.9-17.1-5.4-19.8-.1 6.1.6 18.1 3.8 18.1 19.8 0 18-3 41.8-3 41.8s17.2-7.8 35.6-4.9c12.7 1.9 16.3 11.5 17.2 17.4 4.9-3.3 6.3-10.1 4.5-14.4z"/><path class="st4" d="M681.6 470.1c.3-4.2.5-8.6.6-12.8-5.9-5.7-12.4-4.3-16.4-2.6-.1.8-.1 1.7-.3 2.5-.6 3.1-.8 6.6-.8 10 4.2-1.2 10.9-2 16.9 2.9z"/><path class="st4" d="M682.3 457.3c0-1.7.1-3.5.1-5.2 0-15.9-12-19.2-18.1-19.8 0 0 0 .1-.1.1-2.4 4.9 2.4 13 1.7 22.1 3.9-1.5 10.6-2.9 16.4 2.8zM693.3 489.8c-8.4 1.6-14 4.2-14 4.2s1.4-11.1 2.3-23.8c-6.1-4.9-12.8-4.2-16.9-2.9-.1 7.8.8 14.9.8 14.9l18.1 24.3s7.6-.9 14.2-1.6c.1-4.3-.6-11.3-4.5-15.1z"/><path class="st4" d="M707.3 488.5c-5 0-9.8.5-13.9 1.3 3.8 3.7 4.5 10.8 4.6 15.1 4-.4 7.8-.7 9.3-.7 1.3 0 2.9.6 4.8 1.3.6-4.8.3-11.7-4.8-17z"/><path class="st4" d="M715.1 489.1c-2.6-.4-5.3-.6-7.8-.6 5.2 5.3 5.5 12.2 4.9 17.1 3.9 1.5 9.1 3.7 14.9 2.9 2-.3 3.6-1 5-2-.9-5.9-4.3-15.5-17-17.4z"/><path class="st0" d="M665.6 495.8s-4.8-12.8-2.4-16.5c2.4-3.6 15.1.5 20.2 7.2 5 6.6 6.8 22 0 23.5s-10.6-5-10.6-5l-7.2-9.2z"/><path class="st3" d="m667.7 486.4.9-7.5M672.9 488.1l2.3-8M677 491.9l6.3-5.5M679.8 496l7.5-1.2M681.3 502.1h6.5M678.7 505.5l5.9 3.9"/><path class="st0" d="M662.5 493.3c-6.1 5.4 6.1 20.3 12.4 13.2 6.4-7.1-6.3-18.5-12.4-13.2z"/><path class="st5" d="M407.6 633.4s-30.3 77.8-23.5 105.7 55.5 44.4 116.6 50.2 102.2 6.8 115.9-11.1c13.8-17.9 13.6-29 10.1-46.5s-10.1-34.7-11.8-59.3 5.4-43.1 5.4-43.1L485.2 617l-77.6 16.4z"/><path class="st0" d="M380.6 519.7c1.2-1.1-4-39.5 35.4-55.6 30.7-12.5 51.6 3.2 51.6 3.2l4.3 93-79.1 1.8-12.2-42.4z"/><path class="st0" d="M397.9 551.3s-2.6-32.9-14.6-41.4c-11.9-8.4-28.5-13.4-31.6-7.8-3.2 5.8 15 13.1 12.2 63.9-2.9 50.8 11.5 62.8 41 65.4s44.6-18.1 44.6-18.1v-55.8l-51.6-6.2z"/><path class="st3" d="M361.2 506.6c27.3 9.3 21.9 38.1 21.9 38.1"/><circle class="st0" cx="434.7" cy="537.6" r="13.2"/><circle class="st0" cx="430.3" cy="506.6" r="13.2"/><path class="st3" d="m430.3 493.3 5.5 8.8M423.2 496l7.1 8.3M418 506.3l9.6 1.3M420.3 515.2l8.6-1M428.9 533.4l-6.1 7.5M432.6 537.6l-5.6 11M436.8 539.9l.5 10.8M443.4 537.7l1 8.8"/><path class="st4" d="M283.1 666c-2.5 28-11.6 129-9.8 133.1 2 4.7 23.5 3.3 26.3-1.3 2.1-3.7 3.6-88.8 4.1-122.5-7-2.9-13.9-6-20.6-9.3zM690.8 663.7l-75.6-7.3c-.4 4.9-.4 10.3-.1 16.1.2 3.1.5 6.2.9 9l73.5 9.5 1.3-27.3z"/><path class="st0" d="M412 698.8c-8 .4-15 .5-21.1.4 4.1 7.6 31.8 15.8 44.6 19.3 2.2-.2 4.3-.4 6.7-.6-11.1-5.7-25.3-13.6-30.2-19.1zM443 696.2c7.7 5.6 20.4 12.5 30.5 17.9 5.7-.9 11.4-1.8 17.2-2.9-11.6-4.8-27.6-11.7-36.3-16.4-3.8.5-7.7 1-11.4 1.4z"/><path class="st0" d="M412 698.8c4.9 5.6 19.1 13.4 30.2 19.1 9.9-.9 20.4-2.1 31.2-3.8-10.1-5.4-22.8-12.3-30.5-17.9-11.2 1.4-21.6 2.2-30.9 2.6zM391 699.3h-3.7c-.5 2.1-.9 4.2-1.3 6.3 6.7 5.2 20.1 10.8 29.3 14.3 6.3-.3 13.1-.7 20.4-1.3-13-3.6-40.6-11.8-44.7-19.3zM383.6 720.5c3.8 0 9.1 0 15.4-.1-5-2-10.7-4.7-14.3-8-.5 2.8-.8 5.5-1.1 8.1z"/><path class="st0" d="M384.7 712.4c3.6 3.1 9.3 6 14.3 8 4.8-.1 10.2-.3 16.2-.5-9.1-3.5-22.6-9.2-29.3-14.3-.5 2.3-.9 4.6-1.2 6.8zM614.8 665.6c-13.7-.8-33-2.2-45.4-4.4-4.3 2-9 4.1-14 6.3 11.9 3.6 36 6 48.1 7 4.5-2.1 8.4-3.9 11.4-5.6-.1-1.1-.1-2.1-.1-3.3zM620.4 629.4s-11.2 10.7-35.5 23.9c7.9 1.1 20.8 1.4 30.3 1.4 1.4-15.1 5.2-25.3 5.2-25.3z"/><path class="st0" d="m525.2 678.6 48.3 8.5c12.1-4.6 22.1-9 30-12.6-12.1-1-36.1-3.3-48.1-7-3.5 1.4-10.2-1.1-14 .3-6.1 2.3-9.4 8.5-16.2 10.8zM615.3 654.7c-9.5 0-22.4-.3-30.3-1.4-4.6 2.5-9.8 5.2-15.6 7.9 12.3 2.2 31.6 3.6 45.4 4.4 0-3.8.2-7.4.5-10.9zM454.5 694.8c8.7 4.6 24.5 11.5 36.3 16.4 5.9-1.1 11.7-2.4 17.6-3.8-12.2-4-30.1-10.2-40.6-14.6-4.6.7-9 1.4-13.3 2z"/><path class="st0" d="M467.7 692.7c10.5 4.5 28.4 10.6 40.6 14.6 3.1-.7 6.3-1.5 9.4-2.3 12.5-3.3 24-6.9 34.5-10.4l-46.1-10.4c-13.2 3.6-26.2 6.4-38.4 8.5zM509.4 683.3l-3.3.9 46.1 10.4c7.7-2.5 14.7-5.2 21.2-7.6l-48.3-8.5c-5 1.7-10.2 3.2-15.7 4.8z"/><path class="st0" d="m546.5 663.7-8.6-2.1s-22 64.8-24.1 119.6c3.7.4 7.4.9 11 1.3.2-39.6 21.7-118.8 21.7-118.8z"/><path class="st0" d="m508 658.9-42.1 59.8 32.6 19.1 43.1-74.1zM576.7 600.8c-13.5 40.8 24.1 142.4 24.1 142.4s-21.5 8.4-42.4 8.4c-4-41.4-11.9-95.9-11.9-95.9l5.9-84.6 32.4-4.8 5.4 14.7-13.5 19.8z"/><path class="st0" d="m434.3 578.3-31.6 57.3s30.6 17.5 79.1 25.6c48.5 8.1 83.1 8.1 83.1 8.1s-5.9-86.8-3.7-92.2c2-5.6 17.9-6.1 17.9-6.1s12 15 18 16.5c6 1.4 39.3-16.3 40-20.2s-33-29.5-33-29.5L565 512.6l-95.9 8-19.2 48-15.6 9.7z"/><circle class="st2" cx="597" cy="537.7" r="13.6"/><circle class="st2" cx="560.1" cy="554.8" r="13.6"/><circle class="st2" cx="520.7" cy="563.8" r="13.6"/><circle class="st2" cx="490.1" cy="562.2" r="13.6"/><path class="st0" d="m571.2 502.1 13.3-24.9 9.9-33.2-2.3-42.4 14.8-1-1 31.9s12.8-29.9 17.2-29.9 11.8 6.9 11.8 6.9L615 435.6s-20.7 18.8-20.5 20c.3 1.2 1.9 28.5 1.9 28.5l15.5 31-12.4 2.3-11-31.9-3.7 27.1-13.6-10.5z"/><path class="st0" d="M616 446c3.1-8.7-1.7-17-7.9-17.5s-10.6 5.7-18 16.4-2.6 22.4-2.6 22.4-4.7 5.5-4.7 11.5c0 6.1 4.9 16 13.7 10.1 8.8-5.8 16.3-34.2 19.5-42.9z"/><path class="st0" d="M607.6 438.4c-6.1-1-10.8 9.6-6.8 14.6 4 5 36.1 6.7 36.1 6.7s-23.2-20.3-29.3-21.3zM596.5 469.8c-4.7-5 .9-13.6 6.6-13.3 5.6.3 30.5 18.4 30.5 18.4s-32.4 0-37.1-5.1zM627.8 488.1c-6.1-5.6-27.5-13.1-31.9-13.1s-5.6 6.1-1.4 10.5c4 4.3 27.6 6.6 33.3 2.6z"/><path d="M533.3 540.5c31.7-3.1 50.4-17.4 58.6-25.3-12.7-18.7-42.2-33.5-42.2-33.5l-35.3-14.2-30.8 14.7-12.4 45.3c8.1 5.6 28.5 16.3 62.1 13z" style="fill:#004fff;stroke:#000;stroke-width:3.0297;stroke-linecap:round;stroke-linejoin:round;stroke-miterlimit:10"/><path class="st7" d="M533.3 540.5c-33.5 3.2-53.9-7.4-62.1-12.9l-3.6 13.3s11.5 12.1 58.4 10.8 68.7-22.9 70.9-26.3c-1-3.5-2.7-7-4.9-10.2-8.3 7.9-27 22.3-58.7 25.3z"/><path class="st5" d="M520.7 474.6s34 13.2 42.8 10.4c8.8-2.8 5-4.3 6.1-9.1 1-4.7 6.1-2.3 7.8-4.7 1.7-2.3 0-19.8 0-19.8s4 .7 7.8-1c3.7-1.7-1-13-1-13s-6.8-23.4-6.8-30.2c0-6.8 1.3-14 1.3-14l-7.4-22.3-56.9-2.2-34.3 30.2 1.3 43.5 26.5 28.9 12.8 3.3z"/><path class="st5" d="m514.4 368.6 56.9 2.2 7.4 22.3s-1.3 6.4-1.3 13 18.5 18.8 17.2 26.3-9.1 7.3-15.1 7.4c-6.1.1-13.4 1.1-14.4-4.6-1-5.8 6.8-10.4 9.8-9"/><path class="st0" d="m381.1 313.6-21.9-15.8S339.7 326 336 334.9c-3.7 8.8 7.8 20.4 19.7 7.8-5.6 17.9 5.9 29.9 17 12.4-2 15.5 4.6 23.6 15 15.9-8.3 14-2.8 18.5 1.3 19.9 7.4-15.2 16.1-30.1 24.2-38.6l-32.1-38.7z"/><path class="st2" d="M450.5 463.7s-.1 13.8-1 16.3c-3 8.1-15.9 13.4-12.4 18.5 3.3 5 8.5 1.3 16.9-1-1.2 11.8-20.9 22.9-20.9 26s4.4 4 11.5 4 41-24.9 41-24.9l10.8-69.7s-8.1-24.5-4-27.6c4-3 5.7 1.3 7.8-1 2.1-2.3.6-13.8 4.8-15.1 4.2-1.3 8.3 3.7 11.6 1.3 3.3-2.3 1.7-15.9 16.5-15.9s9.1 9.8 13.8 10.1c4.7.3 10.8-9.1 20.9-4 10.1 5 6.8 14.6 8.8 19.9s9.4 3.9 10.4 2c1-2-.7-15.9-.7-15.9s1.7 5.4 4.3 7.1c2.7 1.7 9.2-.7 9.1-4.7-.1-4 0-21.4-4.3-21.4s-77.8-4.1-103-6.5c-25.2-2.3-39.5 3.7-39.5 3.7l-2.4 98.8z"/><path class="st3" d="M459.4 482.1s1.5 10.6-5.7 15.2"/><path class="st0" d="M254.5 360.5c-49.2-37-103-46.3-103-51s34-43.1 38.1-43.1c4 0 82.1 72 82.1 72s-10.8 22.1-17.2 22.1z"/><path class="st3" d="M247.5 346.3s-9.5-12.6-12.8-14.1c-2-.9-7.4 2-11.1-1-3.7-3-5.3-15-9.1-16.6s-9.7 1.2-12.8-3c-3.1-4.2-10.4-13-16.2-15.4-5.8-2.3-24.2 0-24.2 0"/><path class="st3" d="M256.9 339.9s-8.9 0-10.4-3.7c-1.6-3.7-2.7-8.7-6.4-11.6s-9.5-.4-12.8-4.9c-3.3-4.5-7.1-11.7-10.4-13.4-3.3-1.7-7.8.3-12.4-2.7s-6.1-12.4-9.4-14.1-9.4.7-14.4-.3-7.5-7.3-7.5-7.3"/><path class="st0" d="M318.8 270.9c-33-46.2-77.8-54.2-77.8-57.6s19.9-30.6 27.6-32.6c7.8-2 60.3 49.2 74 69.7s-4.6 22.9-23.8 20.5z"/><path class="st3" d="M323.2 255.1s-3.2-10.7-7.1-11.1c-3.8-.4-9.4-3.3-13.4-7.1-4-3.7-5.5-14.2-8.4-14.8-2.9-.6-13.2-2.9-15.6-6.8s-6.8-9.9-10.4-10.8c-3.6-.9-19-4.7-19-4.7"/><path class="st3" d="M254.9 192.9s18.5 1.6 21.5 4.3c3 2.7 1.8 11.4 7.8 13.4s14.1 2.6 17.9 6.4 3.3 12.4 6.4 16.2 10.4 4 14.8 6.4c4.3 2.3 6.8 9.1 6.8 9.1"/><path class="st0" d="M292.9 382.7s-18.2 27.2-25.2 42.5c-7.1 15.4 16.5 22.1 25.2 10-7.1 18.2 12.8 27.5 23.5 10.9-7.1 22.8 15.1 29.6 25.2 14.7-6.5 18.8 9.8 25.9 19.5 15-9.8 19.2 5.4 24.4 15.8 19.2 10.5-5.3 17.6-18.2 17.6-18.2l-11.1-25.6-62.9-52.6-27.6-15.9z"/><path class="st3" d="m397 357.4-9.3 13.4M372.7 355.1l8.1-12.4M365.2 327.8l-9.6 14.9M370.7 462.1l-9.5 13.8M341.7 460.8l8.8-14.8M324.5 432.5l-8.1 13.5M292.9 435.2l9.1-15.5M532.2 580.3l-5 86.1M495.9 590.8l-10.7 70.8M468.9 581.3l-23.5 71.3"/><path class="st4" d="M656.8 653.6c-.2 2.7-16.4 191.6-15.1 194.6s22.3 1.8 22.5-1c.2-2.8 14.8-193 14.8-194.6s-22-1.7-22.2 1zM557.5 799.5s-3 26.6 0 31c3 4.4 30.6 4 33 0 2.3-4 0-35.6 0-35.6l-182.1-17.5s-3.7 31-2.3 34.3c1.3 3.3 31.3 5.8 33.3 3 2-2.7 1.3-23.5 1.3-23.5l41.7 5.8s-3.7 21.5-1.3 25.6c2.3 4 29.6 4.7 33 2.3 3.3-2.3 2-26.3 2-26.3l41.4.9zM362.6 631.9c-.3 3.2-16.5 164.9-15.1 169.2 1.3 4.2 17.2 7.8 20.5 1.3 3.3-6.4 13.8-166.8 12.1-170.5-1.8-3.7-17.2-3.2-17.5 0z"/><path class="st0" d="M452.7 551.3c-20.1 1.7-75.9-11.9-75.9-10.1 0 1.8-1.7 24.9 0 59 23.6-15.5 68.8-22.6 68.8-22.6s27.2-28 7.1-26.3z"/><path class="st3" d="m375.9 583.3 66-10M443.4 566.2l-67.5 2.2M376.1 555.7l69.3 3M347.3 537.7c-8 13-29.3 110.9-48.2 135.6M363.8 589.1l-31.9 96.2M562.2 288.4s35.3-131.6 46.2-143.1M649.7 169.9c-32.3 13.1-55.1 93.9-55.1 93.9"/><path class="st0" d="M626.5 53.1c-3.4 2.6-8.2 22.1-16 42.1-7.3 19-17.7 38.5-17.7 44.7 0 12.8 10.7 14.8 13.1 9.1-1 8.8 8.2 10.8 18.3 6.4 10.1-4.3 16.8-31.5 24.2-41.1 7.4-9.5 27.3-19.9 33.3-25.6 6.1-5.7 3.7-17.5-7.8-22.2-11.4-4.7-24.2 3.3-24.2 3.3s1-11.4-3.7-15.9c-4.7-4.2-12.8-5.8-19.5-.8z"/><path class="st3" d="m644.4 79.7 5.3-9.8"/><path class="st0" d="M731.8 146.6c-4.7-5.4-20.5-7.1-20.5-7.1s6.8-5.8 7.1-10.4.3-12.1-8.4-14.1c-4.1-.9-17.9 9.3-32.7 18.8.2.3.5.7.7 1.1 2.1 3.9 1.6 8.4-1.1 9.9-2.8 1.5-6.8-.5-8.9-4.4l-.3-.6c-13.4 7.9-25.9 14.3-28.7 17.9-6.8 8.5 0 16.3 10.8 12.2-2.7 3.7-6.1 9.8 1 13.4 6.1 3.1 21.7-6.8 35.6-12.6l-.1-.1c-2.1-3.9-1.6-8.4 1.1-9.9 2.8-1.5 6.8.5 8.9 4.4.3.6.6 1.3.8 1.9 13.6-3.5 26.3-3.1 32.7-3.2 7.1-.1 6.8-11.7 2-17.2z"/><path class="st1" d="M676.8 144.8c2.8-1.5 3.3-6 1.1-9.9-.2-.4-.4-.7-.7-1.1-.8.5-1.7 1.1-2.6 1.6-2.3 1.5-4.7 2.9-7.1 4.3l.3.6c2.2 4 6.2 6 9 4.5zM687.4 160.7c-2.8 1.5-3.3 6-1.1 9.9l.1.1c2.3-1 4.6-1.8 6.8-2.5 1.3-.4 2.7-.8 4-1.1-.2-.6-.5-1.3-.8-1.9-2.3-4-6.2-6-9-4.5z"/><path class="st0" d="M468.2 121.4c-9.5-4.3-13.1-4.2-46.5-6.1 0 .5.1 1 .1 1.5 0 4.6-1.9 8.5-4.2 8.5-2.3 0-4.2-3.8-4.2-8.5 0-.7 0-1.3.1-2-40.5-2.2-36.2-8.1-42.9-6.1-6.8 2.1-9.8 12.8-7.1 18.9 2.7 6.1 13.9 9.8 13.9 9.8s-10.6 4.5-12.9 8.7c-2.3 4.1-4.8 17.5 4 17.9 8.2.3 21.8-4.6 43.9-5.4-.1-.9-.2-1.8-.2-2.8 0-5.9 1.9-10.6 4.2-10.6 2.3 0 4.2 4.7 4.2 10.6 0 .9-.1 1.9-.1 2.7 24.3.4 40 6.5 47.4 1.5 7.6-5.2 6.7-14.8.2-16.9 12.1-1.8 10.3-17 .1-21.7z"/><path class="st1" d="M417.6 125.4c2.3 0 4.2-3.8 4.2-8.5 0-.5 0-1-.1-1.5-2.5-.1-5.2-.3-8-.4h-.3c-.1.6-.1 1.3-.1 2 .1 4.6 2 8.4 4.3 8.4zM416.6 145.3c-2.3 0-4.2 4.7-4.2 10.6 0 1 .1 1.9.2 2.8 1.9-.1 3.8-.1 5.9-.1h2.2c.1-.9.1-1.8.1-2.7.1-5.8-1.9-10.6-4.2-10.6z"/><path class="st3" d="m579 570.8 5.1-27.7M454.9 199.9c21.7-10.1 27.2 10.3 25.3 35.3M468.2 143.3c48.8 6.2 38.1 91.9 38.1 91.9"/><path class="st0" d="M461 271.7s-4.9-21.3-2-49.2c14.1 10.4 25 57.9 25 57.9l-21.9 3.7-1.1-12.4z"/><path class="st0" d="M480.2 259.2s5.5-35.3 18-43.4c-1.3 30 1.3 55.9 1.3 55.9l-8.8 19.5-10.8-5 .3-27zM539.6 284.1s11.8-64.7 22.5-70.8c-2.3 29.6-2.3 75-2.3 75l-20.2-4.2zM577.3 270.3c0-1.7-1.7-32.6 0-58.3 12.4 8.8 12.8 52.5 12.8 52.5l4.4-.7s9.4-41.4 30.2-50.5c-13.4 35.3-19.5 58.3-19.5 58.3l-27.9-1.3zM444.4 291.1s-6.8-47.5-1.7-58.9c23.4 19.9 26.3 51.9 26.3 51.9l-24.6 7z"/><path class="st0" d="M432.9 288.4s-18-27-21.1-45.4c21.1 13.1 37.3 41.2 37.3 41.2l-16.2 4.2zM480 286s-14.8-31.2-2.3-68.4c10.5 19.5 10.8 66.9 9.8 66.5-1.1-.4-7.5 1.9-7.5 1.9zM520.1 276.9c0-2 13.1-51.2 24.2-63.6 4.5 26 4.5 72.7 4.5 72.7l-24.7 7.1-4-16.2z"/><path class="st0" d="M509.3 281.9s7.1-57.5 17.7-68.6c2.5 18.9 0 72.7 0 72.7l-17.7-4.1z"/><path class="st0" d="M492.9 284.1c0-1.4 11.8-57 18.5-63.3 0 29.3 3 66.3 3 66.3l-21.5-3zM586.5 265.5s5.3-46.2 14.2-57.3c3.7 19.5-1.1 57.4-1.1 57.4l-13.1-.1zM588.6 334.8l1.1-36c-34.9-2.6-91.7-3.6-161.7 6.7 2 10.5 5.7 22.6 9.5 31.1 30.6-2.3 103.5-2.2 151.1-1.8z"/><path class="st0" d="m430.8 282.6 29 18.8c4.4-.5 8.9-.9 13.2-1.3L443.6 281c-5.7.4-10 .9-12.8 1.6z"/><path class="st0" d="m443.6 281 29.4 19.1c4.6-.4 9.1-.8 13.5-1.1l-28.6-18.5c-5.3.1-10.2.3-14.3.5zM427.9 305.4c5.5-.8 10.9-1.5 16.2-2.2l-17.9-11.6c.1 3.9.7 8.7 1.7 13.8zM427.5 284.1c-.9 1.4-1.3 4.1-1.2 7.5l17.9 11.6c5.3-.7 10.5-1.3 15.7-1.8l-29-18.8c-1.9.4-3 .9-3.4 1.5z"/><path class="st0" d="m457.9 280.5 28.6 18.6c11.1-.8 21.7-1.3 31.8-1.6l-26-16.9c-12.4-.3-24.2-.3-34.4-.1zM590.1 284.1s-16.3-.9-38.4-1.8l23.9 15.6c4.9.3 9.7.6 13.9.9l.6-14.7zM492.4 280.6l26 16.9c6.5-.2 12.7-.3 18.7-.3l-24.7-16.1c-6.8-.3-13.5-.4-20-.5zM533.5 281.7l24 15.6c6.5.2 12.5.4 18.2.7l-23.9-15.6c-5.8-.3-12-.5-18.3-.7z"/><path class="st0" d="m512.3 281 24.7 16c7.2 0 14 0 20.5.2l-24-15.6c-6.9-.2-14.1-.4-21.2-.6zM450.5 335.8l20.1 13c13.1-1.1 30.2-2.1 48.9-2.3l-18.2-11.8c-19.2.2-37.1.6-50.8 1.1z"/><path class="st0" d="m501.3 334.7 18.2 11.8c4.6-.1 9.4-.1 14.1 0l-18.4-11.9c-4.7.1-9.4.1-13.9.1zM437.5 336.6c.1.2.2.4.3.7 2.2 4.7 4.4 8.4 6.6 9.7 2.1 1.4 3.4 2.8 4.2 4.1 2.2-.3 5.3-.6 9.1-1 .2 0 .4 0 .7-.1l-17.8-13.7c-1.2.1-2.2.2-3.1.3z"/><path class="st0" d="M450.5 335.8c-3.6.2-7 .3-9.9.5l17.8 13.7c3.5-.4 7.7-.7 12.2-1.1l-20.1-13.1zM515.2 334.6l18.4 11.9c1.2 0 2.4 0 3.6.1 3.6.1 7.1 0 10.4-.1l-18.4-11.9h-14zM588.6 334.8c-9.5-.1-20-.1-31-.2l14.3 9.3c6.3-1.2 11.8-2.6 16.5-4l.2-5.1z"/><path class="st0" d="m543.4 334.6 17 11c4.1-.5 8-1 11.5-1.7l-14.3-9.3h-14.2z"/><path class="st0" d="m529.3 334.6 18.4 11.9c4.4-.2 8.8-.5 12.7-.9l-17-11h-14.1z"/><circle class="st0" cx="457.4" cy="298.5" r="11.5"/><path class="st3" d="m450.6 289.4 7.4 1M447 293.8l9 .5M446.1 300.2l8.2-1.7M448.4 305.7l7.5-3.2M453.6 309.3l5.4-3.6"/><circle class="st0" cx="458" cy="332.9" r="11.5"/><path class="st3" d="m451.1 323.7 7.5 1M447.6 328l8.9.5M446.6 334.4l8.3-1.5M449 340l7.5-3.3M454.2 343.7l5.3-3.7"/><ellipse transform="matrix(.04368 -.999 .999 .04368 287.522 852.578)" class="st0" cx="589.1" cy="276.1" rx="15.5" ry="17.8"/><path class="st3" d="m575.6 266 2 9.6M581.4 262.1l2 10.1M589.8 260.7l-.5 11.2M598 262.8l-1.8 9.4M605.6 270.5l-4 7.2"/><ellipse transform="matrix(.04368 -.999 .999 .04368 268.59 869.153)" class="st0" cx="588.3" cy="294.3" rx="15.5" ry="17.8"/><path class="st3" d="m574.8 284.2 2.1 9.6M580.6 280.3l2 10.1M589 278.8l-.5 11.3M597.3 281l-1.9 9.4M604.8 288.5l-4 7.3"/><ellipse transform="matrix(.04368 -.999 .999 .04368 250.76 884.866)" class="st0" cx="587.6" cy="311.5" rx="15.5" ry="17.8"/><path class="st3" d="m574.1 301.4 2 9.6M579.9 297.4l1.9 10.1M588.3 296l-.5 11.2M596.5 298.1l-1.9 9.4M604.1 305.7l-4 7.3"/><ellipse transform="matrix(.04368 -.999 .999 .04368 232.93 900.578)" class="st0" cx="586.9" cy="328.6" rx="15.5" ry="17.8"/><path class="st3" d="m573.3 318.4 2.1 9.7M579.1 314.6l1.9 10.1M587.5 313.1l-.5 11.3M595.8 315.3l-1.9 9.4M603.3 322.9l-4 7.2"/><ellipse class="st0" cx="486" cy="288.4" rx="17.8" ry="15.5"/><path class="st3" d="m472 278.8 2.5 9.6M477.7 274.7l2.3 10M486 272.9v11.3M494.3 274.7l-1.4 9.5M502.2 282l-3.7 7.4"/><ellipse class="st0" cx="486" cy="306.6" rx="17.8" ry="15.5"/><path class="st3" d="m472 297 2.5 9.6M477.7 292.9l2.3 10M486 291.1v11.3M494.3 292.9l-1.4 9.5M502.2 300.2l-3.7 7.4"/><ellipse class="st0" cx="486" cy="323.8" rx="17.8" ry="15.5"/><path class="st3" d="m472 314.2 2.5 9.6M477.7 310.1l2.3 9.9M486 308.2v11.3M494.3 310.1l-1.4 9.4M502.2 317.3l-3.7 7.5"/><ellipse class="st0" cx="486" cy="341" rx="17.8" ry="15.5"/><path class="st3" d="m472 331.4 2.5 9.6M477.7 327.2l2.3 10M486 325.4v11.3M494.3 327.2l-1.4 9.5M502.2 334.5l-3.7 7.5"/><circle class="st0" cx="560.9" cy="303.9" r="8.6"/><path class="st8" d="m555.7 297 5.6.7M553.1 300.4l6.7.3M552.4 305.1l6.1-1.2M554.2 309.2l5.5-2.4M558 312l4-2.8"/><circle class="st0" cx="560" cy="323.3" r="8.6"/><path class="st8" d="m554.8 316.4 5.6.8M552.2 319.7l6.7.5M551.5 324.5l6.1-1.2M553.3 328.6l5.5-2.4M557.1 331.4l4-2.8"/><ellipse class="st9" cx="619.1" cy="279.5" rx="10.5" ry="10"/><path class="st8" d="m625.5 272.6-6.9.8M628.7 275.9l-8.2.3M629.6 280.7l-7.6-1.2M627.4 284.8l-6.8-2.4M622.7 287.5l-5-2.7"/><ellipse class="st9" cx="616.1" cy="305.1" rx="10.5" ry="10"/><path class="st8" d="m622.4 298.2-6.8.7M625.7 301.5l-8.2.4M626.5 306.2l-7.5-1.1M624.3 310.5l-6.8-2.5M619.6 313.2l-4.9-2.7"/><ellipse class="st9" cx="614.7" cy="327.4" rx="10.5" ry="10"/><path class="st8" d="m621 320.6-6.8.8M624.3 323.9l-8.2.4M625.1 328.6l-7.5-1.2M622.8 332.8l-6.7-2.4M618.2 335.5l-4.9-2.7"/><path class="st1" d="M615 97.5c-1.6-.8-3.2-1.2-4.7-1.3l-3.6 9c.8.9 1.9 1.8 3.1 2.4 3.9 2.1 8.4 1.5 9.9-1.2 1.2-2.8-.8-6.8-4.7-8.9zM634.8 115.2c-1.5 2.8.6 6.8 4.5 8.9 1 .5 2 .9 3 1.1 1.6-3.6 3.2-6.9 4.8-9.3-.7-.7-1.6-1.3-2.6-1.9-3.8-2.1-8.2-1.5-9.7 1.2z"/><circle class="st0" cx="419.8" cy="575.9" r="10.1"/><circle class="st0" cx="481.3" cy="380.9" r="12.3"/><path class="st3" d="m478.8 386.7 7.2 5.6M482.5 381.7l10.4 2.2M482.5 376.3l9.3-1.7"/><path class="st0" d="M370.7 439.9c2.7-16.5 29.6-82.8 50.2-93.6 20.5-10.8 33.2 5 38.7 13.8s18.2 103 18.2 103l-44.4 5.8-7.1-63.1-8.4 54.3c-.2 0-33.5-11.8-47.2-20.2z"/><path class="st3" d="M436.9 377.9s-1.7-12.1-9.1-10.1c-7.4 2-3.6 20.3-1.7 37.9M417.1 358.7s-9.4 8.4-11.8 12.1c-2.3 3.7.9 6.8-2 10.4-2.9 3.6-8.7 9.1-8.4 11.8.2 2.6 1.1 8.8 0 12.6-1.1 3.8-6.1 6.6-7.8 10.2-1.7 3.7.7 6.1 0 10.4-.7 4.3-12.1 15.9-12.1 15.9M419.8 367.6s-6.5 9-7.4 12.3c-.9 3.3.8 7.1-1 9.8-1.8 2.6-5.4 5.7-5.8 8.8-.3 3 3 6.9 1 11.1-2 4.2-6.2 9.1-8.4 12.4-2.2 3.3 2.4 8.9.7 11.1-1.7 2.2-4.7 7-5.8 9.1-1 2.1 0 7.4 0 7.4M418.1 400.5c1.7 3-5.4 12.7-4 14.7 1.3 2 2.3 5.9 1 9.1s-6.8 7.1-6.8 11.8.3 5.4 0 9.4-5 9.1-5 9.1M432.9 391.4s4 5.2 4 9.1c0 4-4 6-2 8.1 2 2.1 3.7 3.6 6.1 7.7 2.3 4-3.7 11.8-2.5 14.8 1.2 3 2.2 5.4 4.5 10.1s-3.3 9.7-2.7 13.4c.7 3.7 4 3 4 5.8s-1 7-1 7M444.4 389s6.6 4.1 6.1 6.8c-.5 2.6-2.5 11.5-1 12.8 1.5 1.3 5.6 6 4.7 9.7-.8 3.8-3 11.8-2.8 16.5.2 4.7 5.6 7.4 6.6 11.1 1 3.7-2 6.8-1.7 10.8.3 4 4.8 8.4 4.8 8.4M459.4 386.7s-1 11.2-.1 15.1c.8 3.9 4.2 7.4 5.6 11.1 1.3 3.7-2.8 12.1-1.3 14.6 1.5 2.5 6.3 9.7 5.8 14.3-.6 4.5-1.3 8.4-1 12.7.3 4.4 4.8 9 4.8 9"/><path class="st0" d="M349.6 305.2c-9.9-3-41.2-26.6-41.2-26.6L347 241s26.9 35.1 26.9 43.2c0 8.1-14.3 24-24.3 21z"/><path class="st7" d="M367.9 284.7c-7.1-3-14.3 6.4-14.3 12.1 0 5.5 48.4 50.3 55 60.8 3.8-4.9 7.7-8.7 11.3-10.8-8.1-17.2-45.5-59.4-52-62.1z"/><path class="st0" d="m238.7 372.3 38.4-45.7s28.3 26.5 31 38.4c2.7 11.9-12.1 30-22.2 28.3-10.2-1.9-47.2-21-47.2-21z"/><path class="st7" d="M413.4 553s-10.2-62.1-38.4-94.9-89.2-70-89.2-75.7 8.1-13.7 12.4-13.7c4.3 0 62.3 45.6 88.6 81S421.4 553 421.4 553h-8.1v0z"/><circle class="st0" cx="418.8" cy="555.7" r="10.1"/><path class="st1" d="M517.1 453.1h47.3v8.6l-48.2-2zM496.4 420.2l82.4-10.2c-.9-1.4-1.4-2.7-1.4-3.8 0-.8 0-1.6.1-2.4l-86 10c.1.4.1.9.2 1.3 1.7.9 3.3 2.6 4.7 5.1z"/><path class="st0" d="M533.3 408.6s3.3-5.4 16.5-5.4c10.8 0 14.7 7 14.7 7s-4.6 5.7-16.6 5.4c-9.5-.1-14.6-7-14.6-7z"/><ellipse class="st0" cx="550.5" cy="409.8" rx="4.9" ry="5.2"/><path class="st0" d="M560.1 449.8c-4.3.6-7.8 2.4-8.3 6.7h8.3v-6.7zM551.7 456.5v.3c-.4 4.2 3.3 6.4 8.2 7.3l.1-7.6h-8.3z"/><path class="st0" d="M568.8 449.8c-2.8-.3-6-.4-8.8 0l-.1 6.7h8.7l.2-6.7zM577.7 456.5c-.2-2.9-.4-5.2-.4-5.2s-3.8-1-8.5-1.5l-.1 6.7h9zM577.7 456.5h-9l-.1 8.3c3.5 0 6.9-.3 9.4-.5 0-2.7-.1-5.5-.3-7.8z"/><path class="st0" d="m560 456.5-.1 7.6c2.7.5 5.8.7 8.7.7l.1-8.3H560zM473.2 502.1s-38.9 72.4-38.9 76c0 3.7 19.6 10.3 20.9 7.4 1.4-2.9 37-80.1 37-80.1s-9.6 85.8-9.6 89.6 25.4 5 26.5 0c1-5 0-91.2 0-91.2l-35.9-1.7z"/><path class="st3" d="M473.2 510.9s-6.1 10.1-6.1 13.4.4 5.4-1 9.1c-1.4 3.7-6.8 8.8-9.6 11.8s.8 7.1-2 12.1-8.1 6.4-8.1 9.4.4 5.4-2 8.1c-2.4 2.7-5.8 5.4-5.8 5.4M480 512.4s-4.8 7.4-5 10.3c-.2 2.9-.2 8.4-3.1 12.8-2.9 4.3-6.8 7.4-8.3 11.1s-.5 6.8-2 10.4c-1.5 3.7-7.9 7.1-7.9 9.8 0 2.7.9 4.3-.6 8.8-1.4 4.3-7.7 9.3-7.7 9.3M496.2 517.3s2.3 4.3 2.3 7.4-2.3 5-2.3 7.8 2 4.3 1.7 8.8c-.3 4.3-4.7 7-4.7 9.1 0 2 3 5 3 7.8 0 2.7-5 8.4-5 11.1 0 2.7 2.3 4.7 3.2 8.4.8 3.7-4.2 5.8-4.2 9.8V598M505.8 519s-3.1 5.8-3.1 8.8 3.1 5.4 3.1 8.1c0 2.7-3.4 5.8-3.6 9.8s3.1 7.4 1.8 11.1c-1.3 3.7-5.8 9.8-5.8 13.1 0 3.3 4.5 5.8 4.5 8.4 0 2.7-2.7 6.8-2.7 9.1s2.2 11 2.2 11"/><path class="st0" d="M485.8 463.7s-16.9 29.4-16.9 37.5c0 8.1 40.7 13.8 47.2 10.1 6.4-3.7-1-46.2-1-46.2l-29.3-1.4z"/><path class="st10" d="M484.4 415c-3.7 2.7 6.4 12.6 5 20.9-1.3 8.3-3.7 22.7-3.7 27.9s8.1 7.5 11.8 7.5c3.7 0 13.1-20.9 12.4-28.9 3.3 1.9 8-1.9 10.1-8.5 3.2-10.1-7.8-13.4-11.8-12.8-4 .7-6.1 9.1-9.8 6.1-1.9-12.5-10.3-14.9-14-12.2z"/><path class="st3" d="M508.3 432.5c-4.3 4.9-2.7 7.3 1.7 9.8"/><path class="st10" d="M496.2 447.6c-3 0-6 6.7 0 8.1-3.4 1.4-5.9 5.2-2.4 8.4 3.4 3.3 6 0 9 1s-.6 8.1 1 12.4c1.5 4.3 10.4 5 13.7 4.3 3.2-.7 8.1-6.4 8.1-10.8s-2-7.1-6.9-9.1c6.9-.7 9.9-7.1 4.4-13.4-5.5-6.4-12 1-15.2 1s-8.7-1.9-11.7-1.9z"/><path class="st3" d="M496.2 455.7c7.8-1 12.8 2.4 12.8 2.4"/><path class="st0" d="m577 604.1-8.2 14.4 19.1 33.1c4.2-2.3 8-4.6 11.4-6.8L577 604.1zM620.4 629.4c-2.1-3.9-28.3-51.9-28.3-51.9l-6.6 11.6 25.2 48.1c6.6-4.8 9.7-7.8 9.7-7.8z"/><path class="st0" d="m610.8 637.2-25.2-48.1-8.6 15.1 22.2 40.8c4.7-3 8.5-5.6 11.6-7.8z"/><circle class="st0" cx="586.6" cy="580.9" r="9.9"/><circle class="st0" cx="578.7" cy="597.8" r="9.9"/><circle class="st0" cx="570" cy="613.4" r="9.9"/><path class="st3" d="m579.4 666.9 37.6-24.7M581.4 677.3l32.5-18.4"/><path class="st0" d="M585.3 693.2c7.4 27.8 15.7 50 15.7 50s-2.1.8-5.7 1.9c2.2 2.8 5.7 6.7 10.6 10.6-3-10.7-8.1-30.2-11-48.4-4-5.3-7.2-10.3-9.6-14.1z"/><path class="st0" d="M594.8 707.3c2.9 18.2 8 37.7 11 48.4 2.8 2.2 6.2 4.5 10.1 6.7-3.2-6.4-9.3-20.7-12.1-43-3.3-4.2-6.3-8.2-9-12.1zM624.4 766.3c1.1-2.3 2-4.5 2.7-6.8-2.4-6.4-5.3-14.5-6.9-21.6-3-3-6-6.3-8.8-9.5 2.1 12.5 7.8 27.7 11.7 37.4.6.2.9.4 1.3.5z"/><path class="st0" d="M628.8 746c-2.9-2.5-5.8-5.3-8.5-8.1 1.6 7.1 4.4 15.2 6.9 21.6 1.3-4.4 1.8-8.8 1.6-13.5zM611.4 728.6c-2.6-3-5.3-6.2-7.6-9.2 2.8 22.4 8.8 36.7 12.1 43 2.2 1.2 4.6 2.3 7.3 3.4-3.9-9.7-9.5-24.8-11.8-37.2zM424.8 667.9c1.1 9.2 4.5 23.8 7.7 35.9 5.4 6.8 11.4 13.7 18 20.8-6.1-12.9-13.6-31.2-14.7-42.6-4-5.2-7.7-9.8-11-14.1zM400 654.9c2.1 4 5.2 9.2 8.9 15.4l-4.3-28.5c-1.3 3.4-2.9 8-4.6 13.1z"/><path class="st0" d="M413.1 652.2c1.3 9.1 4.9 24.2 8 36.5 3.4 4.8 7.3 9.9 11.4 15.1-3.1-12-6.6-26.7-7.7-35.9-4.5-6.1-8.5-11.3-11.7-15.7z"/><path class="st0" d="m404.9 640.8-.3.9 4.3 28.5c3.4 5.5 7.5 11.7 12.2 18.4-3-12.1-6.7-27.4-8-36.5-3.6-4.9-6.4-8.8-8.2-11.3zM465 717.3c4.6 11.5 13.5 28.2 19.1 38.4 7.2 5.8 13.4 10 18.5 13.2-4.7-7.4-15.4-23.8-21.2-35.8-5.2-4.4-10.7-9.7-16.4-15.8zM500.1 747.5c3.9 10.3 10.4 18 14.3 22 .4-4.3.8-8.6 1.4-12.9-3.3-1.6-8.8-4.5-15.7-9.1zM435.7 681.9c1.2 11.4 8.8 29.7 14.7 42.6.6.7 1.2 1.3 1.9 2 5.4 5.6 10.4 10.6 15.2 15-4.3-9.8-12.3-28.1-17-41-5.2-6.5-10.1-12.7-14.8-18.6z"/><path class="st0" d="M481.4 733.2c5.9 11.8 16.4 28.4 21.2 35.8 5 3.1 8.9 5.3 11.5 6.6.1-2 .3-3.9.4-6-3.9-4-10.5-11.7-14.3-22-5.5-3.7-11.9-8.3-18.8-14.4zM455.6 706.6c-1.7-2-3.3-4-4.9-6.1 4.6 12.9 12.6 31.2 17 41 5.9 5.5 11.4 10.1 16.4 14.1-5.6-10.2-14.3-26.9-19.1-38.4-3.1-3.2-6.3-6.7-9.4-10.6z"/><path class="st4" d="M267.3 743.9c-2.3 0-5.3 27.6-2.7 28 2.5.4 176.3 24.8 176.3 24.8s240.1 25.7 243.5 25.7c3.3 0 2-25.6 2-25.6s-102.5-5.6-207.2-20.2-209.5-32.7-211.9-32.7z"/></svg>