<svg version="1.1" id="Calque_1" xmlns="http://www.w3.org/2000/svg" x="0" y="0" viewBox="0 0 900 900" style="enable-background:new 0 0 900 900" xml:space="preserve"><style>.st0,.st1,.st2,.st3{fill:#ffce00;stroke:#000;stroke-width:3.7035;stroke-linecap:round;stroke-linejoin:round;stroke-miterlimit:10}.st1,.st2,.st3{fill:none}.st2,.st3{fill:#a0a0a0}.st3{fill:red}.st4{fill:#fff}.st4,.st6,.st7{stroke:#000;stroke-width:3.7035;stroke-linecap:round;stroke-linejoin:round;stroke-miterlimit:10}.st7{fill:#cc7d6d}</style><path class="st0" d="m297.3 458 47.5-40.1 113.6-3.1 32.1 27.2-6.2 48.7-36.4 42.6-141.4-27.8z"/><path class="st1" d="M358.4 450c-8.6 14.2-1.9 30.9-1.9 30.9"/><path class="st2" d="M567.3 817.6c40.6-.6 98.5-45.5 112.1-65.8-58.4-8.3-81.4-34.6-85.6-34.8-4.6-.3-17.3.3-17.3.3s-10.8-45.1-57.7-82.1c16.7-59.3 9.3-82.1 9.3-82.1l27.2-42s3.7-4.9 4.9-17.3c1.2-12.3-11.1-51.2-26.5-63.6s-46.9 9.3-46.9 9.3-26.5 22.2-34.6 61.7c-16 5.6-105.6-16.7-105.6-16.7l-32.7-2.5-60.5 80.2-23.4 96.4s-1.2 45.7-19.1 68.5c30.2 11.1 85.8 18.2 160.5 5.9 54.5-9 93.5-49.7 110.7-71.1l9.7-13.2s-3.3 5.3-9.7 13.2l-42.7 58c13 49.2 85.9 98.2 127.9 97.7z"/><path class="st1" d="M491.7 648.7c.6-17.9-4.3-39.5-4.3-59.3.6-32.1-4.3-58-4.3-58M239.9 657.4l14.8 32.1M255 645l15.4 47.6M279.4 659.2l11.7 34M299.1 652.4l16.7 41.4M296.7 583.9s24.7 68.5 45.7 104.3M314.9 562.3c26.5 87 57.7 120.4 57.7 120.4M326.9 519.1c16 80.9 66.7 155.5 66.7 155.5l46.3-106.8"/><path class="st1" d="M337.4 485.2c20.4 100 81.5 176.5 81.5 176.5M391.1 580.2c9.9 30.9 47.8 70.4 47.8 70.4M383.7 516c25.3 87.7 77.2 116 77.2 116M401.3 519.7c48.5 93.8 81.8 92.6 81.8 92.6M435.6 543.2c20.4 43.2 51.8 46.3 51.8 46.3M444.2 532.1c13.6 27.8 42.6 34.6 42.6 34.6M457.2 527.8c8 11.1 27.8 17.3 27.8 17.3s26.5 17.9 42.6 51.2M460.2 521.6c14.2-64.8 71-92 71-92M472.6 525.3c22.8-49.4 69.8-81.5 69.8-81.5M555.3 468.2c-62.3 28.4-66.7 62-66.7 62 23.5-32.7 71.6-36.4 71.6-36.4"/><path class="st1" d="M515.2 426.5c31.5 35.8 32.7 69.8 32.7 69.8M497.9 433.3c29 34.6 32.1 67.3 32.1 67.3M482.5 443.8c16 19.8 32.1 64.2 32.1 64.2M467.6 464.2c19.1 19.8 34.6 51.8 34.6 51.8M457.2 485.2c13.6 12.3 32.1 40.7 32.1 40.7M501 536.4l-13 45.7M518.9 635.2c-4.3 16-19.4 49.1-19.4 49.1"/><path class="st1" d="M491.1 651.2c29 89.5-10.5 126.5-10.5 126.5"/><path class="st1" d="M454.1 748.1c78.4-13 101.8-72.8 101.8-72.8M472.6 716.6c53.7-21 71-58 71-58"/><path class="st1" d="m496.7 662.9 32.7-19.1s15.4 80.2-11.1 161.1"/><path class="st1" d="M489.9 621c58.6 69.8 8.6 170.4 8.6 170.4M553.2 671s17.6 50.6-14.5 140.1c55.6-43.2 44.4-92 44.4-92M467.6 719.1c1.9 33.3-4.9 40.1-4.9 40.1"/><path class="st1" d="M481.2 696.9c10.5 49.4-9.9 72.2-9.9 72.2 62.3-22.8 96.3-70.4 96.3-70.4M488 783.3c63.6-28.4 86.4-68.5 86.4-68.5s6.8 18.5 3.1 47.5"/><path class="st1" d="M510.9 798.7c46.9-22.8 67-57.1 67-57.1M558.4 817.3c51.2-64.2 43.2-94.4 43.2-94.4M620.1 734.5c-7.4 48.8-33.3 80.2-33.3 80.2"/><path class="st1" d="M572 706.1C568.9 766 556 816 556 816M585.5 718.5c32.7 41.4 35.2 81.5 35.2 81.5s12.3-32.7 15.4-58"/><path class="st1" d="M641.1 784.5s.6-35.8-45.7-54.3M659.6 770.3c-10.5-16-29-31.8-29-31.8"/><path class="st1" d="m669.5 761.7-11.1-13.6c0 14.8-8.6 34.6-8.6 34.6M238 685.2s75.3-108.6 84.6-134.6M252.2 628.4l16.1-15.5M265.8 691.3c54-84.6 88.3-166 88.3-166M296.1 692.6c50.6-84.6 60.5-131.5 60.5-131.5M323.2 691.3c45.1-75.3 53.7-113 53.7-113M360.2 682.7c25.3-48.1 41.4-97.5 41.4-97.5M430.6 653.7c10.5-35.2 40.1-124.1 40.1-124.1M470.7 622.2c8-46.9 15.7-63 15.7-63M488 570.3c16.7 15.5 34 50.7 34 50.7"/><path class="st1" d="M490.1 615.1c23.2-13.3 38.9-34.9 38.9-34.9"/><path class="st1" d="M519.8 618.8c7.1-39.2-2.2-70.7-2.2-70.7s-19.1 77.8-25.3 96.9c0 0 28.4-25.3 32.1-32.1"/><path class="st3" d="m197.9 752.4-12.3-20.9 37-1.9 11.7-.6-3.7 14.2z"/><path class="st0" d="M232.5 731.5s-16.4 13.3-26.9 17-23.1-.3-28.1 4-3.7 9.9 1.9 12.3c5.6 2.5 30.9.6 30.9.6l22.8 1.9 17.9-13-1.2-22.2-17.3-.6z"/><path class="st4" d="M176.3 773.4s-1.2-8.6 3.1-8.6 36.4-.6 36.4-.6l-4.9 7.4-34.6 1.8z"/><path class="st0" d="M236.2 758.6s-17.3 4.9-24.1 4.3c-6.8-.6-12.3 6.2-12.3 12.3 0 6.2 15.7 7.1 15.7 7.1s2.8 7.7 12.7 7.1c6.8 3.7 26.5-.6 26.5-.6l63-9.3 16.7-13-1.9-25.9-13-13.6-47.5 4.3-35.8 27.3z"/><path class="st1" d="M215.5 782.4c-.9-3.4 5.2-12 17.6-15.1M239.3 772.8c-10.5 7.4-4.3 17.3-4.3 17.3M257.2 774.7c-13 5.6-4.9 13.6-4.9 13.6M268.9 774c-9.3 4.3-3.1 12.3-3.1 12.3"/><path class="st3" d="m262.7 737-29.6 3.7 9.3 17.9 35.1-11.7 8.7-14.2z"/><path class="st3" d="M286.8 738.9 232.5 758l12.3 12.3 44.5-22.2zM297.9 745l27.2.6-1.3-11.1-21-1.2z"/><path class="st3" d="M300.1 750c-1.9 3.7-12.7 8.6-16.4 1.9 0-3.7-2.5-7.7 0-11.4s11.1-6.2 15.4-3.7c4.4 2.4 2.8 9.5 1 13.2z"/><path class="st4" d="m318.9 732.1 3.1 47.5s46.9-10.5 51.8-13.6c3.7-11.7-1.9-38.9-1.9-38.9l-53 5z"/><path class="st4" d="M228.2 789.5c-3.1 2.5-3.7 8 1.9 8s137-17.9 150.6-27.8c4.9-3.1 1.2-7.4-2.5-7.4-1.8 0-37.4 8.8-73.5 15.1-37.2 6.6-75 10.8-76.5 12.1z"/><path d="m532.2 249.5-88-74.2s9.6-27.2 23.1-64.2c13.6-37 24.4-57.4 35.5-61.1-1.9 8.6-3.7 30.2-11.7 57.4 7.4-17.3 27.8-34.6 32.1-45.7 8.6 19.1-13 54.9-20.4 77.2 11.7-19.1 40.1-48.1 44.4-56.2 5.6 8 4.3 19.1-3.7 32.7-8 13.6-22.2 36.4-25.3 45.1 8-6.8 16.4-20.4 28.7-30.9 18.2-14.8 23.8-25.9 23.8-25.9s5.6 4.3 1.2 17.3-19.8 30.9-35.5 53.4c13.9-12.7 56.5-44.8 56.5-44.8s3.1 10.5-1.9 19.1c-4.9 8.6-37 41.4-37 41.4s24.7-17.9 38.9-23.5c14.2-5.6 15.4-15.4 17.3-14.2 1.9 11.1-4.3 17.9-12.3 27.2s-22.8 20.4-40.1 37-25.6 32.9-25.6 32.9z" style="fill:#007c00;stroke:#000;stroke-width:3.7035;stroke-linecap:round;stroke-linejoin:round;stroke-miterlimit:10"/><path class="st1" d="M491.1 107.4c-8 32.7-35.2 79.6-35.2 79.6M502.8 138.9c-4.3 11.1-33.9 62.3-33.9 62.3M518.3 160.5c-4.3 11.1-32.7 51.8-32.7 51.8M536.5 174.4c-13.9 17-32.4 52.2-32.4 52.2M554.1 190.1c-21.6 19.1-33.9 49.4-33.9 49.4"/><circle class="st4" cx="325.7" cy="406.8" r="12"/><path class="st4" d="M409.6 370.4c-25.9 6.2-71 29-73.5 46.9 1.9 9.9 46.9 16 92 21.6 45.1 5.6 86.4.6 105.6-8.6.6-16.7-18.5-72.8-18.5-72.8l-9.9-17.9c0-.1-69.7 24.6-95.7 30.8z"/><path class="st1" d="M341.7 406.2c100 31.5 161.1 20.4 161.1 20.4"/><path class="st3" d="M524.4 327.1c-2.5-14.8 18.5-47.2 32.7-49.7 14.2-2.5 24.7 9 19.1 25.6-5.5 16.7-25.2 34-25.2 34s-24.1 5-26.6-9.9z"/><path class="st1" d="m561.5 294.4-22.2 32.7"/><path class="st3" d="M472 422.5c17.3 4.6 65.4 5.9 65.4 5.9l-.3-21-58.1-3.9c-2.4 5.8-4.7 12.1-7 19z"/><path class="st6" d="M481.5 397.2c-.9 2-1.7 4.1-2.6 6.3l58.1 3.9-.1-7.3-55.4-2.9z"/><path class="st3" d="m536.2 354.9-29.6-1.9s-12 13.6-25 44.1l55.4 2.8-.8-45z"/><path class="st1" d="m488.6 412.9-1.8 11.8M496 414.2l-1.8 11.1M518.9 416l-.6 10.5M525.1 416l-.7 11.1M517.6 358c-8.6 19.8-9.9 67.9-9.9 67.9"/><path class="st3" d="M514.6 341.3c-.6-6.8 3.7-14.8 11.7-16.7 8-1.9 20.7-1.9 25 13s-9.6 33.9-16.4 22.2c-4.3 4.3-13.6 7.4-18.5 5.6-4.9-1.9-8.6-6.2-9.9-12.3-1.2-6.2 2.5-9.3 8.1-11.8z"/><path class="st1" d="M514.6 341.3c-.6-6.8 1.2 8.6 9.3 6.8s1.2-8.6 6.2-8.6c7.4-1.9 10.5 15.4 4.9 20.4"/><path class="st7" d="M404.7 352.5s-.6 12.3 1.2 20.4c1.9 8 37 12.3 56.2 2.5 4.9-5.6 9.3-14.2 9.3-14.2l1.2-35.2-67.9 26.5z"/><path class="st7" d="M385.9 350c1.9 4.3 9 6.2 16.4 6.8 7.4.6 36.4-1.9 46.9-6.8 6.2-2.9 14.7-7.1 20.6-10-21.4-3.2-83.6-5.4-83.6-5.4s-2.2 11.1-.3 15.4z"/><path class="st0" d="M368.9 318c1.2 2.9 21.6 2.3 24.1 3.5 2.5 1.2 1.9 5.6 0 5.6h-15.4s-1.9 5.6 0 6.8c1.9 1.2 8.6.6 8.6.6s62.2 2.2 83.6 5.4c4.2-2.1 7.1-3.5 7.1-3.5l8.3-16.9c-22.6-4.1-110.2-12.7-110.2-12.7s-7.3 8.3-6.1 11.2z"/><path class="st7" d="M389.1 257.3c-1.9 2.2-3.6 4.3-4.8 6.2-5.6 9.3-5.6 15.4-5.6 15.4l-3.7 19.8v8s87.6 8.6 110.2 12.7l9.2-18.6c-11-5.5-52.7-26.1-105.3-43.5z"/><path class="st0" d="m499.7 290.1-8.6-24.7-67.3-39.5-16.7 14.8s-10.8 8.5-18.1 16.6c52.5 17.3 94.3 38 105.3 43.6l5.4-10.8z"/><path class="st3" d="M425.4 212.1c64.6 31.7 81 59.7 85.3 71.7 2.9-1.6 4.5-3 4.5-3l10.6-15.5c-13.9-12.3-58.9-51.4-90.5-72.1-3.2 6.3-6.8 13.2-9.9 18.9z"/><path d="M425.4 212.1c-3.9 7.1-7.2 12.6-8.4 13.2-3.7 1.9-14.8-27.8-14.8-27.8l-5.6 2.5s9.3 23.5 8.6 25.3c-.6 1.9-18.5-13-18.5-13l-3.1 5.6s16 10.5 16 13-19.8 1.9-19.8 1.9v6.2s19.8-1.9 21 1.2c1.2 3.1 85.2 32.1 95.1 48.1 6-.3 11.2-2.5 14.6-4.4-4.1-12.1-20.5-40.1-85.1-71.8z" style="fill:#ff9d00;stroke:#000;stroke-width:3.7035;stroke-linecap:round;stroke-linejoin:round;stroke-miterlimit:10"/><path class="st3" d="M444.2 175.3s-4 8.2-9 18c31.6 20.6 76.6 59.8 90.5 72.1l9.2-13.5-90.7-76.6z"/><circle class="st4" cx="397.3" cy="196" r="7.7"/><circle class="st4" cx="381.9" cy="214.2" r="7.7"/><circle class="st4" cx="375.7" cy="235.8" r="7.7"/><path class="st4" d="M468.9 342s-16 17.9-3.7 44.4c19.8-7.4 17.3-37 17.3-37l-13.6-7.4z"/><circle class="st4" cx="456.8" cy="347.8" r="9"/><circle class="st4" cx="486.2" cy="327.1" r="27.8"/><circle class="st4" cx="486.2" cy="320.1" r="20.7"/><path class="st4" d="M501.6 279.6c-17.3 0-16.7-13-8-19.1 8.6-6.2 16-4.3 21.6 1.9 5.6 6.2 6.8 17.9 1.9 22.8-4.9 4.9-7.1 9-13.3 26.9-6.2 17.9-28.7 12.7-22.5-7.1 4.9-13 16.6-22.3 20.3-25.4z"/><path class="st1" d="M501.6 279.6c9.3-3.1 2.5-17.3-6.2-9.9"/><path class="st4" d="M393 281.5c-.6 2.5 12.3 9.9 21.6 3.1-8.1-7.4-21-5.6-21.6-3.1z"/><circle cx="401.9" cy="282.7" r="2.2" style="stroke:#000;stroke-width:2.469;stroke-miterlimit:10"/><path class="st4" d="m347.9 281.5 17.9 19.1 1.9-5.9-16.7-17.5zM380 307.4l7.4 14.2 4.3-3.6-8-13.7z"/><path class="st4" d="m367.7 296-29.1-4-.3 5.5 27.5 3.1z"/><path class="st7" d="M378.8 279c-3.7 8.6-16.7 19.1-16.7 24.1s7.4 3.7 13 4.9c8.6 3.7 14.8-3.1 8.6-8"/><circle class="st4" cx="398.5" cy="302.8" r="6.8"/><circle class="st4" cx="418.9" cy="304.3" r="6.8"/><circle class="st4" cx="434.3" cy="287.6" r="6.8"/><circle class="st4" cx="421.4" cy="267.9" r="6.8"/><circle class="st4" cx="399.8" cy="263.6" r="6.8"/><path d="M410.3 270c-10.9-2.7-28.6 1.4-30.5 10.4-1.8 9 10.1 15.8 23.7 17.7 10.2 1.4 24.9 0 25.8-7.3.9-7.2-8.2-18.1-19-20.8zm11.1 18.3c-.6 4.9-10.6 5.9-17.6 4.9-9.3-1.2-17.6-5.9-16.4-12 1.2-6.2 13.6-9 21-7.1 7.4 1.8 13.6 9.2 13 14.2z" style="fill:#3f1e00;stroke:#000;stroke-width:3.7035;stroke-linecap:round;stroke-linejoin:round;stroke-miterlimit:10"/><path class="st6" d="M225.3 693.6c-2.8 11.9-7.3 24.5-14.4 33.6 30.2 11.1 85.8 18.2 160.5 5.9s120.4-84.3 120.4-84.3h0c.3-8.6-.7-18.1-1.8-27.8-63.7 64.5-153.2 90.1-264.7 72.6z"/><path class="st1" d="M482 661.9c6.4-7.9 9.7-13.2 9.7-13.2l-9.7 13.2z"/><path class="st6" d="M697.3 753.7c-1.6-.1-3.1-.2-4.7-.4-1.9 3-4.4 6.4-7.6 10l-4.9 5.5c-4.6 4.9-10 10.1-16.1 15.3l3.7 4.5c1.3 1.6 1 3.9-.5 5.2-1.6 1.3-3.9 1-5.2-.5l-3.6-4.5c-7.6 6.2-16.1 12.2-25.1 17.7l2.7 5.4c.9 1.8.2 4-1.6 4.9-1.8.9-4 .2-4.9-1.6l-2.5-5c-8.4 4.8-17.2 8.9-26.2 12.2l2.1 5c.8 1.9-.1 4-1.9 4.8-1.9.8-4-.1-4.8-1.9l-2.3-5.5c-10.4 3.2-21 5-31.4 4.9l.5 6.3c.2 2-1.4 3.8-3.4 3.9-2 .2-3.8-1.4-3.9-3.4l-.5-6.9v-.3c-8.8-.9-17.7-3.2-26.4-6.5l-1.7 5.7c-.6 1.9-2.6 3.1-4.5 2.5-1.9-.6-3.1-2.6-2.5-4.5l1.9-6.5c-8.6-3.8-17-8.5-25.1-13.8l-2.3 4.2c-1 1.8-3.2 2.4-4.9 1.5-1.8-1-2.4-3.2-1.5-4.9l2.6-4.9c-7.4-5.2-14.5-10.8-20.9-16.4l-4.3 4.6c-1.4 1.5-3.7 1.6-5.2.2-1.5-1.4-1.6-3.7-.2-5.2l4.2-4.5c-8.3-7.6-15.3-15.1-20.7-21.6l-4.3 3.2c-1.6 1.2-3.9.9-5.1-.7-1.2-1.6-.9-3.9.7-5.1l4.2-3.1c-2.8-3.8-4.9-7.1-6-9.6l-1.8-12.8-18.5 25.2s60.5 92 143.2 93.8c82.6 1.7 143-72.4 141.2-96.4z"/><path class="st4" d="M439.9 757.4c-3.1-3.1-8.3-5.9-13.9-2.2s-4 10.2-.9 15.1 10.5 8 17.3 3.1c6.7-4.9.6-12.9-2.5-16zM466.4 785.2s-10.5-6.8-14.2-3.1c-3.7 3.7-4.3 12.3.6 16.7 4.9 4.3 13 6.5 18.5 1.5 5.6-5-4.9-15.1-4.9-15.1zM481.8 806.1c-3.1 2.5-3.7 9.9 1.9 13.6 5.6 3.7 9.9 4.9 13.6-.6 3.7-5.6-.6-10.5-4.3-13.6-3.7-3.1-8.1-1.8-11.2.6zM524.7 823.7c-6.8-2.5-12.6-2.6-15.1.9-4.6 6.5 1.9 11.1 8.6 14.8 6.8 3.7 14.2 3.7 17.3-2.5 3.1-6.1-4-10.7-10.8-13.2zM559.6 831.8c-6.2 0-13.6.9-13.6 6.5s2.5 9.9 12.7 10.2c10.2.3 13.9-2.2 14.5-9 .6-6.8-7.4-7.7-13.6-7.7zM598.2 825c-9 2.8-12.7 8.3-11.4 12s9.3 4.9 17.9 1.2 9.9-8 9.3-12.3c-.7-4.3-6.9-3.7-15.8-.9zM631.2 810.2c-7.4 4.6-9.3 5.9-7.4 10.2 1.9 4.3 7.4 4.9 14.8.6 7.4-4.3 7.4-8 5.6-10.5-1.9-2.5-5.6-5-13-.3zM662.7 787.3c-4.9 5.2-8.6 7.7-4.9 11.4s10.5 1.9 14.8-3.7c4.3-5.6 6.2-7.4 3.7-11.7-2.5-4.3-8.7-1.2-13.6 4zM681.5 766.9s-3.4 7.1.3 9.6c3.7 2.5 7.6.4 10.4-4.3 2.8-4.7 2.5-8.1-1.2-10.6-3.6-2.4-9.5 5.3-9.5 5.3zM562.7 824c54.8.6 102.6-47 123.1-71.4-2.2-.2-4.3-.5-6.4-.8-13.6 20.3-71.5 65.2-112.1 65.8-42 .6-114.9-48.5-128-97.7l-6.7 9.1c16.6 35.8 76.9 94.5 130.1 95z"/><path class="st3" d="m439.1 753.4-4.2 3.1c-1.6 1.2-1.9 3.5-.7 5.1 1.2 1.6 3.5 1.9 5.1.7l4.3-3.2c5.4 6.5 12.4 14 20.7 21.6l-4.2 4.5c-1.4 1.5-1.3 3.8.2 5.2 1.5 1.4 3.8 1.3 5.2-.2l4.3-4.6c6.5 5.6 13.5 11.2 20.9 16.4l-2.6 4.9c-1 1.8-.3 4 1.5 4.9 1.8 1 4 .3 4.9-1.5l2.3-4.2c8 5.2 16.4 9.9 25.1 13.8l-1.9 6.5c-.6 1.9.5 4 2.5 4.5 1.9.6 4-.5 4.5-2.5l1.7-5.7c8.8 3.3 17.7 5.7 26.4 6.5v.3l.5 6.9c.2 2 1.9 3.5 3.9 3.4 2-.2 3.5-1.9 3.4-3.9l-.5-6.3c10.4.1 21-1.8 31.4-4.9l2.3 5.5c.8 1.9 2.9 2.7 4.8 1.9 1.9-.8 2.7-2.9 1.9-4.8l-2.1-5c9-3.2 17.8-7.4 26.2-12.2l2.5 5c.9 1.8 3.1 2.5 4.9 1.6 1.8-.9 2.5-3.1 1.6-4.9l-2.7-5.4c9-5.5 17.5-11.6 25.1-17.7l3.6 4.5c1.3 1.6 3.6 1.8 5.2.5s1.8-3.6.5-5.2l-3.7-4.5c6-5.2 11.5-10.4 16.1-15.3l2.8 2.2c1.7 1.2 3.9.8 5.1-.9 1.2-1.7.8-3.9-.9-5.1l-2.1-1.7c3.1-3.6 5.6-7 7.6-10-2.3-.2-4.5-.4-6.7-.7-20.5 24.4-68.4 72-123.1 71.4-53.2-.6-113.6-59.2-130-95.1l-1.4 1.9 1.8 12.8c1.1 2.8 3.2 6 6 9.9z"/><path class="st0" d="M702.2 571.6s3.7-30.9-3.1-32.7c-6.8-1.9-23.8 4.6-38 5.2-14.2.6-84.9-17.6-97.8-27.5-6-10.7-9.8-17.8-11.9-21.6-13.5 2.5-39.8 9.6-57.5 28.7 5.5 18.6 30.4 27.6 32.7 32.1 2.5 4.9 19.8 20.4 54.9 22.8 35.2 2.5 79.3-2.5 80.6 0s21 19.8 33.9 23.5c13 3.8 6.2-30.5 6.2-30.5zM708.4 531.5l64.8.6.9-40.2-64.5-1.1zM712.5 388.3l-1.2 41.2 64.2-1.7.9-39zM777.5 337.6l-63.6-.6-1.2 42 63.9-.6zM709.8 481.5l64.5 1.7 1-44.2-64.3 1.6z"/><path class="st1" d="m709.6 379-.6 9.3h3.5l.2-9.3z"/><path class="st4" d="m776.6 378.4-63.9.6-.2 9.3 63.9.5z"/><path class="st1" d="M708.4 429.6v11.1l2.6-.1.3-11.1z"/><path class="st4" d="m711 440.6 64.3-1.6.2-11.2-64.2 1.7z"/><path class="st1" d="m706.5 481.5 1.3 9.2 1.8.1.2-9.3z"/><path class="st4" d="m709.6 490.8 64.5 1.1.2-8.7-64.5-1.7z"/><path class="st0" d="M709 540.1s17.3 13 19.1 18.5c1.9 5.6-1.9 26.5-1.9 26.5l-22.8 11.1 5.6-56.1zM720.7 598.1s4.3 3.7 3.1 6.8c-1.2 3.1-9.6 15.1-12.7 16.4-3.1 1.2-4.3-2.8-3.7-5.9.7-3.1 13.3-17.3 13.3-17.3z"/><path class="st3" d="M709 229.6c8.4-11 10.2-28.1 10.3-39.3-5.6-11.6-11.5-17.5-11.5-17.5s-19.1 17.3-19.1 54.3c0 17.4 4.4 32.1 9 42.8-.4-10.1.9-26.7 11.3-40.3z"/><path class="st4" d="M728.7 228.4c-.8-16.1-5-28.9-9.5-38.1-.1 11.2-1.9 28.3-10.3 39.3-10.4 13.5-11.7 30.2-11.4 40.3 5.2 12 10.8 18.9 10.8 18.9s22.3-24 20.4-60.4z"/><path d="M715.8 333.9s-9.3 379-10.5 382.1c-1.2 3.1-12.3.6-12.3-2.5S704.7 332 704.7 332s-21-27.8-25.3-43.8c10.5-1.9 18.5-2.5 18.5-2.5l32.7-4.3 8.6 3.7c-8.6 29.1-23.4 48.8-23.4 48.8z" style="fill:#fff"/><path d="M715.8 333.9s-9.3 379-10.5 382.1c-1.2 3.1-12.3.6-12.3-2.5S704.7 332 704.7 332" style="fill:#ff9d00"/><path class="st1" d="M715.8 333.9s-9.3 379-10.5 382.1c-1.2 3.1-12.3.6-12.3-2.5S704.7 332 704.7 332s-21-27.8-25.3-43.8c10.5-1.9 18.5-2.5 18.5-2.5l32.7-4.3 8.6 3.7c-8.6 29.1-23.4 48.8-23.4 48.8z"/><path class="st2" d="M649.1 302.5c22.2-1.9 26.2-6.5 31.2-9 4.9-2.5 49.7-4.9 57.7-3.7 8 1.2 22.2 12.7 40.1-.3-1.2-7.4-8.6-21-25.9-24.7-17.3-3.7-42 10.5-43.8 24.1-2.5-8.6-16.7-20.7-35.8-17-19.2 3.7-24.7 21.9-23.5 30.6z"/><path class="st0" d="M730.6 584.5s4.9-7.4-2.5-11.1c-3.7 6.8-16.7 14.2-19.8 17.3s-3.1 8.6 1.9 8.6c-2.5 3.7-6.8 8.6-1.2 9.9 3.7-.6 19.8-11.7 21.6-16.7 1.9-4.9 0-8 0-8z"/><path class="st1" d="M710.2 599.4s16.7-8.6 20.4-14.8"/><path class="st0" d="M678.8 572.2s18.5 7.4 26.5-4.3c7.4 3.1 9.3 8 13.6 8.6 4.3.6 5.2-.6 4.6-4.9s-9.6-12-13.9-15.1-18.5-4-18.5-4M170.1 525.3s-46.3 47.5-48.1 53.1c-1.9 5.6 19.1 43.8 24.7 44.4 11.1-17.3 33.3-59.3 33.3-59.3l8 8.6s-30.9 53.7-30.9 63.6c5.6 4.9 39.5 16.7 39.5 16.7l20.4-62.3 9.3 4.9-15.4 62.3 45.1 4.9 3.1-64.8 9.3-1.9-1.2 69.8s37-6.8 45.7-18.5c-8-22.8-14.8-69.1-14.8-69.1l-128-52.4z"/><path class="st4" d="M399.8 495.7c-28.3 0-51.2 21.8-51.2 48.8s22.9 48.8 51.2 48.8c28.3 0 51.2-21.8 51.2-48.8s-22.9-48.8-51.2-48.8zm-1 58.6c-9.5 0-17.2-7.3-17.2-16.4s7.7-16.4 17.2-16.4 17.2 7.3 17.2 16.4-7.7 16.4-17.2 16.4z"/><ellipse class="st1" cx="398.8" cy="543.2" rx="39.2" ry="37.3"/><ellipse class="st1" cx="398.8" cy="539.8" rx="24.3" ry="23.1"/><path class="st3" d="M394.2 491s-40.1-5.2-56.8-26.2c-4.3 22.2 22.8 35.8 22.8 35.8s-32.1 1.2-38.3 6.8c17.3 8 69.8 13.6 69.8 13.6l24.7 3.7s53.7 8.6 66.7 6.8c-13-14.2-43.2-19.1-43.2-19.1s35.2 1.9 45.1-14.8c-40.7.6-67.6-4.9-67.6-4.9l-23.2-1.7z"/><path class="st1" d="M439.9 512.3c-34.6-.6-79.6-11.7-79.6-11.7"/><path class="st3" d="M405.6 490.1c-.9 1.5-.5 8.5-1.3 16-.9 8.1-2.8 16.7-1.8 18.6 1.9 3.7 8 4.9 12.3 2.5 4.3-2.5 4.3-29.6 2.5-34.6-1.8-5-9.8-5.6-11.7-2.5z"/><path class="st3" d="M394.2 490.1c-.9 1.5-.5 8.5-1.3 16-.9 8.1-2.8 16.7-1.8 18.6 1.9 3.7 8 4.9 12.3 2.5 4.3-2.5 4.3-29.6 2.5-34.6-1.8-5-9.9-5.6-11.7-2.5z"/><circle class="st4" cx="248" cy="520.4" r="81"/><circle class="st1" cx="248" cy="520.9" r="68.5"/><path class="st1" d="m181.2 536.1 16.1-18.2 5.5-24.1M198.2 568.5s15.7-30.9-.9-50.6c6.2 1.9 27.8-5.6 27.8-5.6M184.9 496.9c12.3-.6 30.2-8.6 30.2-8.6M201.6 472.8c8 6.8 25.9 4.3 35.2-10.5M231.2 455.5l17.9 14.9"/><path class="st1" d="M231.5 574.1c-6.2-24.1-25.6-28.4-25.6-28.4s22.8-1.9 32.7-9.9c-.6-6.8 1.9-16 1.9-16M245.4 562.3s-16 10.5-15.4 23.5"/><path class="st1" d="M238.6 535.8c4.9 4.9 17.9 9.9 17.9 9.9"/><path class="st1" d="M268.3 533.9c9.3 14.8 1.2 50 1.2 50-4.3-6.8-26.5-20.7-24.1-25.6 2.5-4.9 26.5-27.5 26.5-27.5M304.7 554.3c-11.1-4.3-15.4-41.4-15.4-41.4"/><path class="st1" d="M262.1 517.9s-7.4 8.6-5.9 10.8c0 0 26.9 2.2 38 9.6M272.6 559.9c16-4.3 25.3-11.1 25.3-11.1M293 526.5l22.2 1.3M310.2 495s-4.3 6.2-12.3 15.4c-4.9-7.4-24.7-11.1-24.7-11.1l5.6-12.3M293 470.4l-38.3-1.9 9.9-13M207.8 476.5c3.1 11.7 17.9 16.7 23.5 16 5.6-.6 8-6.2 8-6.2"/><path class="st1" d="M254.7 468.5s-16 12.3-19.1 17.3c6.2 1.2 35.2 4.3 35.2 4.3l3.7-5.2"/><path class="st1" d="M280 470.4s-8 8-11.7 13c7.4.6 27.2 10.5 27.2 10.5l9.3-9.9M224.4 492l-4.3 8 29.7 4.9M257.2 489.5s-5.6 6.2-8.6 12.3c5.6 6.2 6.8 17.3 6.8 17.3l42.6-8.6M234 502.4s-10.8 10.5-10.8 17.9c6.8-2.5 26.5 0 32.1-1.2"/><path class="st0" d="M491.7 648.7S446 720.6 371.3 733c2.5 16.4 9 24.4 41 22.5 15.7-.9 56-20.2 67.7-50.8 11.7-30.7 11.7-56 11.7-56z"/><path class="st4" d="M223.8 698.1c-2.5 6.8-2.5 30.9 16.7 32.1 19.1 1.2 21-19.1 18.5-24.7-2.5-5.6-14.2-8-14.2-8s-18.5-6.2-21 .6zM283.1 706.8s-9.3 3.1-9.9 12.3c-.6 9.3 4.9 17.3 17.3 17.3s14.8-8 16-15.4c1.2-7.4-8-13.6-8-13.6l-15.4-.6zM330 704.9s-15.1 3.4-13.9 16.4c1.2 13 10.2 14.5 20.1 13.9 9.9-.6 13-9.3 12.3-17.9s-12.3-13-12.3-13l-6.2.6zM378.1 699c-6.2 1.9-19.1 5.2-16.7 17s13 14.8 24.7 10.5 15.4-5.6 13-19.1c-1.2-9.3-14.8-10.2-21-8.4zM416.4 684.8c-9.3 6.5-14.2 13.3-10.5 19.4 3.7 6.2 17.3 8.6 25.9 1.9 8.6-6.8 8-14.8 5.6-19.1s-13.6-6.2-21-2.2zM449.1 665.4c-7.4 5.6-10.5 14.2-7.4 18.5 3.1 4.3 10.2 8.6 20.7 0s9.9-14.8 6.2-19.8c-3.7-4.9-12.1-4.2-19.5 1.3zM476.9 642.6c-7.4 6.2-8 12.3-4.9 15.4 3.1 3.1 9.9.6 14.8-4.3s5.2-11.7 3.4-14.8c-1.9-3.1-5.9-2.5-13.3 3.7zM374.4 687.6c65.9-22.4 101.1-57 114.7-73.1-.3-2.8-.6-5.6-.9-8.5-14.2 16.4-53.9 56.3-118.2 76.1-68.3 21-125.5 6.6-142.8 1.2l-.9 4.8c16.7 5.9 77.3 23.7 148.1-.5z"/><path class="st3" d="M479.4 638.6c4.9-5 8.5-9.4 11.1-12.7-.4-3.8-.9-7.6-1.3-11.4-13.7 16.2-48.9 50.7-114.7 73.1-70.9 24.1-131.5 6.3-148 .5-.7 3.4-1.5 6.9-2.4 10.4 2.6.9 7.1 2.4 13.2 4l-1.2 7.6c-.4 2.3 1.3 4.6 3.6 4.9 2.3.4 4.6-1.3 4.9-3.6l1.1-7c11.1 2.3 25.9 4.3 43.5 4.5l-.6 8c-.2 2.4 1.6 4.4 4 4.6 2.4.2 4.4-1.6 4.6-4l.6-8.7c9.3-.2 19.3-.9 30-2.2l1.6 9.4c.4 2.3 2.6 4 5 3.5 2.3-.4 4-2.6 3.5-5l-1.5-9.2c11.6-1.9 23.9-4.5 36.9-8.3l2.8 9.7c.7 2.3 3.1 3.6 5.3 2.9 2.3-.7 3.6-3.1 2.9-5.3l-2.8-9.8c10.6-3.4 20.2-7 29.1-10.8l4.5 8.3c1.1 2.1 3.8 2.9 5.9 1.7 2.1-1.1 2.9-3.8 1.7-5.9l-4.2-7.7c9.8-4.6 18.5-9.4 26.1-14.1l3.2 6c1.1 2.1 3.8 2.9 5.9 1.7s2.9-3.8 1.7-5.9l-3.5-6.5c8.5-5.8 15.5-11.5 21.2-16.7l3.3 4.7c1.4 1.9 4.1 2.4 6 1 1.9-1.4 2.4-4.1 1-6l-4-5.7z"/><path class="st1" d="M579.6 814.5c12.5-47.2-.8-64.8-.8-64.8"/></svg>