<svg version="1.1" id="Calque_1" xmlns="http://www.w3.org/2000/svg" x="0" y="0" viewBox="0 0 900 900" style="enable-background:new 0 0 900 900" xml:space="preserve"><style>.st0,.st1,.st2,.st3,.st4,.st5,.st6,.st7{fill:#ff4e00;stroke:#000;stroke-width:6.5515;stroke-linecap:round;stroke-linejoin:round}.st1,.st2,.st3,.st4,.st5,.st6,.st7{fill:red}.st2,.st3,.st4,.st5,.st6,.st7{fill:#fff}.st3,.st4,.st5,.st6,.st7{fill:none}.st4,.st5,.st6,.st7{fill:#fdce12}.st5,.st6,.st7{fill:#ffce00}.st6,.st7{fill:none;stroke-width:7.8618}.st7{fill:#003dc6;stroke-width:6.5515}.st8{fill:#fff}.st9{fill:red}</style><path class="st0" d="M337.9 431.4c-.2 0-.4.1-.6.1-7.9.8-24.4 2.6-32.2.3-7.9-2.4-18.9-16.5-18.9-16.5s-62.1 1.6-66.8 4.7c-4.7 3.1-3.9 12.8.8 16-3.9 0-7.9 1.3-11 4.5s-1.6 10.2 2.4 11c-3.1 2.4-2.4 11 1.6 12.6-1.6 3.1-2.4 10.2 2.4 11.8-1.6 3.1 0 8.1 3.9 9.7 3.9 1.6 14.9-3.4 14.9-3.4l60.5-2.4 47.7-5.9c.3-12.2.1-32.1-4.7-42.5z"/><path class="st1" d="m474.1 428.6-21.2-37.7-22.8 11.3s-81.5 27.4-92.2 29.3c4.8 10.4 5 30.3 4.7 42.3l115.9-14.5 15.6-30.7z"/><path class="st2" d="m224.1 432.5-4.7-12.6c-4.7 3.1-3.9 12.8.8 16-3.9 0-7.9 1.3-11 4.5h0c-3.1 3.1-1.6 10.2 2.4 11-3.1 2.4-2.4 11 1.6 12.6-1.6 3.1-2.4 10.2 2.4 11.8-1.6 3.1 0 8.1 3.9 9.7 2.1.8 6.2-.2 9.6-1.3-5-32.8-5-51.7-5-51.7z"/><path class="st3" d="m211.5 451.4 32.3-5M213.1 464l30.7-5.5M215.5 475.8l27.5-6.3"/><path class="st2" d="M219.4 419.9c-4.7 3.1-3.9 12.8.7 16 1.4-.1 11.6-.6 22-1l-.5-17.7c-11.2.6-20.5 1.6-22.2 2.7z"/><path class="st3" d="M220.2 435.9c-.1 0-.1 0 0 0-.3 0-.3 0 0 0zM286.2 415.2s-25.1.6-44.6 1.9l.5 17.7c11.7-.5 23.7-1 23.7-1"/><path class="st1" d="m589.7 649.5 5.5 26.7 12.6 36.2 52.7 79.4 44.8-3.1-29.1-68.4-18.1-61.4-3.9-32.2-62.1-1.6z"/><path class="st4" d="m659.7 784.7-48-1.5-.8 25.1 63-2.3 2.3-21.3z"/><circle class="st4" cx="603.1" cy="722.6" r="14.9"/><circle class="st4" cx="672.3" cy="710.1" r="14.9"/><path class="st5" d="m590.5 669.9 4.7 42.5 83.4-20.4-8.7-42.5z"/><circle class="st6" cx="618" cy="685.7" r="8.6"/><circle class="st6" cx="651.1" cy="677.8" r="8.6"/><path class="st1" d="M660.5 796.5s-37.7 4.7-57.4 13.4c-19.7 8.6-33.8 27.5-33.8 27.5l43.8-.3 61.6-5.2 3.9-18.9-4.7-18.1-13.4 1.6z"/><path class="st2" d="m613 837.2-43.7.2-.8 12.6h44z"/><path class="st3" d="M577.9 848.4V839M588.1 848.4l-.8-10.2M600.7 849.2v-11.8"/><path class="st2" d="m666 798.1 1.6 29.1 47.1-.8v-27.5z"/><path class="st2" d="M612.5 831.1c-1.6 2.4-1.6 11.8 1.6 13.4s102.2-4.7 104.6-7.1c2.4-2.4 3.1-13.9-2.4-16-5.5-2.1-102.2 7.4-103.8 9.7z"/><path class="st3" d="m623.5 843.7-3.1-13.4M633 842.9l-2.4-13.3M647.9 841.4l-4.7-12.6M660.5 841.4l-3.9-13.4M695.1 838.2l-7.1-14.9M707.7 838.2l-6.3-14.9"/><path class="st4" d="M660.5 787.9c-4.7 3.1-3.9 11 1.6 12.6 5.5 1.6 51.1 3.1 55 1.6 3.9-1.6 0-11-1.6-14.2-1.6-3.2-50.3-3.2-55 0z"/><path class="st1" d="m453.7 630.6 19.4-36.9 77.8 12.6-24.4 64.4-43.2-1.5z"/><path class="st0" d="M352.2 456.3c-3.7.3-6.9.5-9.4.6-15.7.8-29.1 2.6-50.3 5.8-21.2 3.1-55.8 17.8-61.3 21s0 11 5.5 12.6c0 0-5.5 3.7-8.6 6-3.1 2.4 0 10.5 4.7 10.5-.8 3.1 0 8.6 4.7 9.4 0 3.9 2.4 10.2 6.3 10.2.8 3.1 5.5 11 11 9.4 5.5-1.6 61.3-47.2 65.3-50.3 3.7-3 22.7-5.9 34.1-6.3.3-6.8.6-20.9-2-28.9z"/><path class="st1" d="M446.6 436.4s-14.9 10.7-26.7 13.1c-10 2-47 5.3-67.7 6.8 2.6 8 2.3 22.1 1.9 28.9h2.1c11 0 119.5 2.6 126.6 1.8 7.1-.8 12.6-5.8 12.6-5.8l3.9-43.2-52.7-1.6zM348.3 738.4l93.6-81 49.5 30.6-90.4 61.4z"/><path class="st2" d="m252.4 797.3-39.3-.2-1.6 12h41.7z"/><path class="st4" d="m346 739.1-64.5-9.4-3.1 29.9 65.2-1.6z"/><path class="st3" d="m220.2 806.8.8-10.3M230.4 807.5l.8-10.2M243.8 807.5v-8.6"/><circle class="st4" cx="419.9" cy="669.7" r="14.9"/><circle class="st4" cx="480.4" cy="700.6" r="14.9"/><path class="st5" d="m503.2 699.8-83.3-50.3 25.9-28.3 81.8 36.9z"/><circle class="st6" cx="454.5" cy="645.6" r="8.6"/><circle class="st6" cx="490.6" cy="666" r="8.6"/><path class="st1" d="M342 745.4s-62.1 7.9-82.5 14.9c-20.4 7.1-46.4 36.7-46.4 36.7l39.3.3 114.8-3.1-2.4-45.6-22.8-3.2z"/><path class="st2" d="m350.7 751.7-1.6 38.6 49.6-1.6v-36.2z"/><path class="st3" d="M397.9 768.5s-32.5-1.8-34.3-1c-1.8.8-1.8 18.9-1.8 18.9"/><path class="st2" d="M397.9 784c3.9-.8 3.9 15.7.8 18.9-3.1 3.1-140.8 3.1-144.7 1.6-3.9-1.6-6.3-14.9-1.6-16.5 4.7-1.7 141.5-3.3 145.5-4z"/><path class="st3" d="m282.3 803.6-5.5-14.1M295.6 804.4l-5.5-15.7M327.9 803.6l-8.7-16.5M340.5 803.6l-8.7-16.5M372.7 802l-11-15.7M387.7 802l-9.5-15.7"/><path class="st4" d="M342 752.5c-4.7-5.5-6.3-14.2 6.3-14.4 6.3-.8 52.7 5 56.6 8.9 3.9 3.9 3.1 12.1-2.4 13.6-5.4 1.6-55.7-2.6-60.5-8.1z"/><path class="st1" d="m514.1 455.7-9.8 89.7 31.6 19.6 22.8-120.8z"/><path class="st5" d="m494.6 460.8-6.3 74.7 16 9.9 9.8-89.7zM579.5 438.8l-20.8 5.4L535.9 565l14.5 9 5.6-.8 30.2-125.1z"/><path class="st1" d="m627.5 504.8-41.3-56.7L556 573.2l80.1-11.8z"/><path class="st7" d="M504.7 692c-2.8 6.2-5.6 12.7-8.6 19.4L568 735l5.7-19.7-69-23.3z"/><path class="st2" d="m483.8 739.4 48.5 14.7 27.8 8.4 3.2-11.1-74.1-24.3-5.4 12.3z"/><path class="st7" d="m560.1 762.5-27.8-8.4s-4.4 18.6-9.6 38l26.5 7.2 10.9-36.8z"/><path class="st2" d="M515.1 818.3c.7 1.8 26.7 6.5 26.7 6.5l3.3-11.1-26.3-7.1c-1.3 4.1-2.5 8.1-3.7 11.7z"/><path class="st3" d="m534.7 793.4 10.2-37M500.1 701.4l70 22.8"/><path class="st0" d="m562.1 615.3-33.7 84.6 11 3.7 32.5-80.7z"/><path class="st1" d="m557.5 611.8-29.1 26.7s-10.5 23.6-23.7 53.5l23.6 7.9 33.7-84.6-4.5-3.5zM571.9 622.9l-32.5 80.7 10.9 3.7 30.6-77.5z"/><path class="st0" d="m595.2 640.9-14.3-11.1-30.6 77.5 23.4 7.9z"/><circle class="st2" cx="524.3" cy="833.4" r="13.5"/><circle class="st3" cx="524.3" cy="833.9" r="4.3"/><path class="st3" d="m497.7 740.7 3.2-11M507.2 744.7l4.7-11.1M520.5 747.8l3.2-11M533.1 751.7l4.7-11M544.9 756.4l3.1-11"/><path class="st4" d="M451.3 813.8c-3.1 8.6 9.4 13.4 14.9 7.9.8 11 13.4 19.7 23.6 11 2.4 7.1 11 9.4 18.1 2.4 7.1-7.1 24.4-81 24.4-81l-48.5-14.7c-16.3 36.9-31.1 70.7-32.5 74.4z"/><path class="st3" d="m489.9 832.7 23.5-67.6M466.3 821.7l26.7-61.3M523.4 817.8l3.1-9.5M533.1 819.6l1.6-7.1"/><path class="st1" d="M522.7 792.1c-1.3 4.9-2.7 9.8-4.1 14.5l26.3 7.1 4.2-14.4-26.4-7.2zM489.2 727.1l74.1 24.3 4.8-16.5-71.9-23.6c-2.3 5.2-4.7 10.5-7 15.8z"/><path class="st5" d="m668.3 549.7-48.7 3.9-63.7 14.9-10.1 7.1c52.6 32.6 104.9 37.9 127.8 38.6-.8-29-5.3-64.5-5.3-64.5z"/><path class="st2" d="M535.8 593.4c1.7 9.5 5.9 23.7 16.1 32.5 16.5 14.2 98.3 36.2 117.9 23.6 1.8-2.4 2.8-7.3 3.4-13.8-20.3 1.5-72.4-.1-137.4-42.3z"/><path class="st1" d="M673.6 614.2c-22.9-.7-75.2-6-127.8-38.6l-11.2 7.8s.1 4.1 1.2 9.9c65 42.2 117.1 43.8 137.4 42.3.6-6 .6-13.4.4-21.4z"/><path class="st3" d="m558.3 628.3 3.1-9.5M568.5 633l3.9-9.4M580.3 635.3l3.4-7M595.2 640.9l1.6-7.1M607.8 644.8l2.3-7.9M621.4 647.1l.8-6.2M633.8 650.3l.7-7.6M647.6 650.3v-7.1M662.1 649.5v-6"/><path class="st1" d="M601 576.6c-4.7 3.9-2.6 12.3.5 14.7 2 1.5 22.3 1.4 37.7 1.3v-16.9c-15.3-.7-35.3-1.5-38.2.9z"/><path class="st2" d="M657.3 576.4c-1.2.3-8.8-.2-18.1-.6v16.9c8.7 0 15.9-.1 17.3.2 4 .8 4-17.3.8-16.5z"/><path class="st5" d="M740.7 209.2c-11-11-14.9-11-14.9-11l-13.4 10.2s3.9 24.4 11.8 35.4c7.1 10 21.4 92.5 25.7 114.1l21.6-3.6c-2-19.1-20.2-134.4-30.8-145.1z"/><path class="st3" d="M728.1 207.6c13.4 22.8 32.2 151 32.2 151"/><circle class="st7" cx="238.4" cy="297.7" r="54.6"/><path class="st4" d="M242.2 204.5s-2.4-34.6-16.5-47.2c-14.2-12.6-41.7-22-53.5-33.8s-12.6-33.8-8.6-34.6c3.9-.8 11 14.2 22.8 23.6s34.6 12.6 55 28.3 18.1 60.5 18.1 60.5l-17.3 3.2z"/><path class="st0" d="M128.2 370.4c-3.1 2.4-1.6 56.6 2.4 59 3.9 2.4 76.3-7.9 76.3-7.9l50.3-14.2 31.4 9.4s51.9 1.6 55.8 0c3.9-1.6 3.1-50.3-2.4-53.5-5.5-3.1-55.8 0-55.8 0l-81.8 1.6c.1.1-73.1 3.2-76.2 5.6z"/><path class="st2" d="M231.2 483.6c-5.5 3.1 0 11 5.5 12.6 0 0-5.5 3.7-8.6 6-3.1 2.4 0 10.5 4.7 10.5-.8 3.1 0 8.6 4.7 9.4 0 3.9 2.4 10.2 6.3 10.2.8 3.1 5.5 11 11 9.4 1.1-.3 4-2.3 8.1-5.2-19.1-37.2-31.7-52.9-31.7-52.9z"/><path class="st3" d="m232.8 512.7 29.8-13.6M237.5 522.1l29.8-13.3M243.8 532.4l25.9-15M292.5 462.7c-11.1 1.7-25.8 6.4-38.2 11.1l6.4 15.3c9.7-2.5 19.7-5.4 23.8-7.5"/><path class="st2" d="M231.2 483.6c-5.5 3.1 0 11 5.5 12.6 0 0 11.1-3.7 23.3-6.9l-5.6-15.6c-11.3 4.3-20.6 8.4-23.2 9.9z"/><path class="st3" d="M127.4 390c63.7-6.3 195-11.3 217.8-10.7M127.4 411.3c99.8-11.8 218.6-13.4 218.6-13.4"/><path class="st7" d="m320 321.6-4.7 19.7h13.5l.6-19.5z"/><path class="st5" d="m366.4 322.4-21.2-.3v19.2h26.7z"/><path class="st1" d="m329.4 321.8-.6 19.5h16.4v-19.2z"/><path class="st3" d="M346 330.3h19.6"/><circle class="st5" cx="441.9" cy="450.6" r="11.8"/><circle class="st5" cx="500.1" cy="479.7" r="11.8"/><circle class="st5" cx="550.4" cy="473.4" r="11.8"/><path class="st7" d="M436.4 398.7s0 67.6 59.7 70.8 73.9-14.2 73.9-14.2l-.8-52.7-23.6-59.7-48.7 5.5-60.5 50.3z"/><path class="st3" d="m443.5 426.2 29.9-11.8M447.7 437.8l29.8-15.8M485.9 465.5l7.9-32.2M500.1 467.9l3.9-33M546.5 465.5l-6.3-37.7M555.9 461.6l-5.5-33"/><circle class="st3" cx="456.1" cy="408.1" r="4.7"/><circle class="st3" cx="472.6" cy="441.2" r="4.7"/><circle class="st3" cx="525.2" cy="452.2" r="4.7"/><circle class="st1" cx="238.7" cy="267" r="19.3"/><path class="st5" d="M208.1 239.9 197.9 199l81 1.6-8.7 40.1z"/><path class="st8" d="m177.8 264.2 15.1 10.6c2.1-3.1 4.4-6.2 6.8-9L186.2 253c-2.9 3.5-5.7 7.3-8.4 11.2z"/><path class="st9" d="M160.2 296.5c.8 4.7 20.4 5.5 21.2 1.2.4-2.5 4.9-12.8 11.6-22.8l-15.1-10.6c-10.2 14.3-18.2 29.6-17.7 32.2z"/><path class="st8" d="M234.1 232.8s-14.9-2.6-31.4 5.2c-2 1-4.2 2.5-6.5 4.5l12.2 15.3c.7-.5 1.4-1 2.2-1.4 15.7-9.4 25.2-7.9 25.2-7.9l-1.7-15.7z"/><path class="st9" d="m186.2 253 13.5 12.8c2.7-3.1 5.6-5.9 8.6-8l-12.2-15.3c-3.2 2.8-6.6 6.4-9.9 10.5z"/><path class="st8" d="M273.6 238c-16.5-7.9-31.4-5.2-31.4-5.2l-1.6 15.7s9.4-1.6 25.2 7.9c.7.4 1.4.9 2.2 1.4l12.2-15.3c-2.3-1.9-4.5-3.5-6.6-4.5z"/><path class="st9" d="M280.2 242.5 268 257.8c3 2.1 5.9 4.9 8.6 8L290 253c-3.3-4.1-6.6-7.7-9.8-10.5zM298.5 264.2l-15.1 10.6c6.7 10 11.1 20.3 11.6 22.8.8 4.3 20.4 3.5 21.2-1.2.3-2.5-7.7-17.8-17.7-32.2z"/><path class="st8" d="m290 253-13.5 12.8c2.5 2.8 4.7 5.9 6.8 9l15.1-10.6c-2.6-3.9-5.5-7.7-8.4-11.2z"/><path class="st3" d="M242.2 232.8s14.9-2.6 31.4 5.2c16.5 7.9 43.2 53.7 42.5 58.4-.8 4.7-20.4 5.5-21.2 1.2s-13.4-31.8-29.1-41.3-25.2-7.9-25.2-7.9l1.6-15.6zM234.1 232.8s-14.9-2.6-31.4 5.2c-16.5 7.9-43.2 53.7-42.5 58.4.8 4.7 20.4 5.5 21.2 1.2s13.4-31.8 29.1-41.3 25.2-7.9 25.2-7.9l-1.6-15.6z"/><circle class="st2" cx="240.2" cy="237.1" r="13.8"/><circle class="st9" cx="240.2" cy="237.8" r="6.3"/><path class="st2" d="m204.5 362.5 2.3 59 81.8-3.2-2.4-57.4z"/><path class="st3" d="m235.1 418.3-3.1-55M255.6 417.6l-2.4-55.9M236.7 406.5l16.5 9.5M234.3 394l18.9 8.6M234.1 379.8l18.8 10.2M232.8 366.4l18 7.9"/><path class="st8" d="m196.9 344.5.9 21.7c3.5 0 7.3 0 11.2-.1l-.5-21.9c-4 .2-8 .2-11.6.3z"/><path class="st9" d="m208.5 344.3.5 21.9c3 0 6.2-.1 9.4-.1l-.5-22c-3.2.1-6.3.2-9.4.2zM171.4 345.7c-6.3 1.8-5.5 18.3 0 19.9 1.4.4 11.8.6 26.4.6l-.9-21.7c-13.9.4-23.8.8-25.5 1.2z"/><path class="st8" d="m217.9 344.1.5 22c15.7-.2 33.2-.6 48.9-1.1v-21.1c-15.7-.1-33.4 0-49.4.2z"/><path class="st9" d="M267.3 343.9V365c3.2-.1 6.3-.2 9.4-.4l-.5-20.7h-8.9zM311.4 345.2c-1-.6-10.4-1-23.9-1.2l1 20c14.7-.8 24.9-1.9 25.3-3.1 1.5-4.7 1.5-13.3-2.4-15.7z"/><path class="st8" d="m276.2 343.9.5 20.7c4.1-.2 8.1-.4 11.7-.6l-1-20c-3.5 0-7.2-.1-11.2-.1z"/><path class="st3" d="M171.4 345.7c-6.3 1.8-5.5 18.3 0 19.9s140.8 0 142.3-4.7c1.6-4.7 1.6-13.4-2.4-15.7-3.9-2.3-133.6-1.3-139.9.5z"/><circle class="st2" cx="240.5" cy="356.6" r="13"/><circle class="st9" cx="240.5" cy="357.4" r="5.1"/><circle class="st2" cx="307.2" cy="329.8" r="13.4"/><circle class="st3" cx="307.2" cy="330.2" r="5.1"/><path class="st2" d="M634.5 540.7c-10.2-1.6-18.1-9.2-25.2-27.3-5.7-14.6-26.7-143.6-34.7-193.1l-10.1.4-1.6 21.2s31.4 176.1 37 188.7c5.5 12.6 13.4 25.7 28.3 27.3 14.9 1.6 73.1-16.2 81-24.1-1.6-3.4-3.2-7-4.8-10.8-16 5.1-61.5 19-69.9 17.7z"/><path class="st3" d="m568.5 360.2 9.4-2.4M569.3 371.7l11.8-1.6M570.1 386.9l11.7-2.4M575.6 399.5l11-1.6M575.6 413.6l11-2.3M579.5 427.8l10.2-1.6M594.4 504.1l11-1.6M597.6 518.2l8.6-2.4M603.9 533.1l7.8-6.2M614.1 548.9l6.3-11M631.4 555.2l-.8-13.4M647.9 551.2l-1.6-10.2M662.1 548.1l-4-11M675.4 542.6l-3.1-10.2M691.1 537.1l-2.3-8.7"/><path class="st1" d="M634.5 540.7c8.4 1.3 53.9-12.6 69.9-17.6-1.1-2.5-2.1-5.1-3.2-7.8-10.8 2.8-40.1 9.3-54.1 3.6-17.3-7.1-40.9-89.6-51.1-195-.2-1.3-.3-2.8-.4-4.5l-20.9.9c7.9 49.5 29 178.5 34.7 193.1 7 18.2 14.9 25.8 25.1 27.3z"/><path class="st5" d="M647.1 519c14 5.7 43.3-.9 54.1-3.6-3.1-7.7-6.2-16-9.2-24.7-8.7 1.5-29.6 4.3-37-3.1-9.4-9.4-27.5-119.5-27.5-119.5s-.2-14.4-.8-34.4l-25.2-14.4-5.9.3c.1 1.7.2 3.2.4 4.5 10.2 105.2 33.8 187.8 51.1 194.9z"/><path class="st3" d="m607 389.2 26.8-3.1M607.8 399.2l27.5-4.7M611.7 421.7l27.6-5.5M614.3 431.4l25.2-4.7M623.5 464l26.8-6.3M625.9 475l25.2-6.3M653.4 519l4.7-33.8M663.6 520.6l2.4-33.1"/><circle class="st3" cx="680.1" cy="505.4" r="5.5"/><circle class="st3" cx="643.2" cy="489.9" r="5.5"/><circle class="st3" cx="629" cy="444.3" r="5.5"/><circle class="st3" cx="621.9" cy="408.1" r="5.5"/><circle class="st3" cx="616.4" cy="374.3" r="5.5"/><path class="st1" d="M655 487.5c7.4 7.4 28.3 4.6 37 3.1-11-31.7-20.8-68.4-24.4-99-5.5-46.4-9.4-40.1-9.4-40.1l-31.4-17.9c.5 20 .8 34.4.8 34.4s17.9 110.1 27.4 119.5z"/><path class="st5" d="M733.6 362.5c0 7.1-3.1-143.1-11.8-153.3-8.6-10.2-34.6-29.1-22.8-2.4 11.8 26.7 12.6 144.4 13.4 156.4l21.3-.2c-.1-1.8-.1-2.3-.1-.5z"/><path class="st3" d="M710 207.6c11.8 18.9 12.3 158.8 12.3 158.8"/><path class="st5" d="M712.4 363.3s0 0 0 0c.8 11.8 0 22.1 4.7 25.2s15.2 6 16 .5c.6-4.1.6-20.6.6-25.9l-21.3.2zM771.5 354.3l-21.6 3.6c.4 2.2.8 3.8 1 4.6 2.4 8.6 3.9 18.1 8.6 20.4 4.7 2.4 11.8 2.4 13.4-.8s-.5-13.6-1.3-26.2c0-.4-.1-.9-.1-1.6z"/><path class="st1" d="M551.2 381.4s11 65.3 22.8 84.1c11.8 18.9 48.7 48.7 55 52.7 1.6-5.5.8-22-2.4-27.5s-25.9-25.2-35.4-38.5c-9.4-13.4-18.1-69.2-18.1-69.2l-15.7-11-6.2 9.4z"/><path class="st3" d="M560.6 382.2s7.9 57.4 18.9 74.7c11 17.3 48 48 48 48"/><path class="st2" d="M671.5 272.9s-34.6-11-57.4-7.9-37.7 23.6-40.1 45.6c-2.4 22 9.4 47.2 37 57.4s51.4 5 51.4 5l12.3-58.4-3.2-41.7z"/><path class="st3" d="m651.1 370.4.7-14.2M639.3 370.4l1.5-16.5M624.3 369.6l3.2-14.9M611.7 365.7l5.5-15M597.6 356.2l8.6-9.4M584.2 346l15.7-10.2M577.9 330.3l18.1-3.2M578.4 314h15.8M581.1 297.3l13.3 5.5M591.5 281.5l10 7.9M602.3 272.9l7.1 8.6M614.1 265l5.5 13.9M630.6 263.5l.8 13.3M641.6 266.6v10.2M653.4 269l-.8 11"/><path class="st1" d="M669.9 360.9s-42.5 2.4-58.2-9.4c-25.2-19.7-25.9-63.7 7.9-72.6 27.5-7.9 48 8.1 48 8.1l2.3 73.9z"/><path class="st5" d="M664.4 340.5s-17 6-32 2.1c-14.9-3.9-19.1-17-17.6-28.8 1.6-11.8 12.1-23.6 30.1-22 18.1 1.6 23.3 8.6 23.3 8.6l-3.8 40.1z"/><circle class="st3" cx="649.7" cy="318" r="15.7"/><path class="st9" d="M689.1 246.2c-2.4-5.5-17.6 0-20.7 5.5-.7 1.3-1.7 8.5-2.6 18.9l23.1 1.7c.5-14.4.8-24.7.2-26.1zM659.9 361.9l23.1.5c.3-4.6.7-9.6 1-14.9l-23.5-.6c-.2 5.3-.4 10.4-.6 15z"/><path class="st8" d="m659.6 371.8 22.7.5c.2-3.1.5-6.4.7-10l-23.1-.5c-.1 3.7-.2 7-.3 10z"/><path class="st9" d="M659.7 386.9c1.6 11 20.4 13.4 21.2 3.9.2-1.9.7-8.8 1.4-18.5l-22.7-.5c-.2 7.7-.2 13.1.1 15.1z"/><path class="st8" d="m688.8 272.3-23.1-1.7c-.3 3.2-.6 6.6-.9 10.3l23.4 1.9c.2-3.7.4-7.2.6-10.5zM663.6 296.7c-1.2 16.2-2.3 34.5-3 50.3l23.5.6c1.1-15.9 2.3-33.9 3.3-50.4l-23.8-.5z"/><path class="st9" d="m688.2 282.8-23.4-1.9c-.4 4.9-.8 10.2-1.2 15.7l23.8.4c.3-4.8.6-9.6.8-14.2z"/><path class="st3" d="M668.3 251.7c-3.1 5.5-10.2 124.2-8.6 135.2 1.6 11 20.4 13.4 21.2 3.9s10.5-139.2 8.1-144.7-17.5.1-20.7 5.6z"/><circle class="st2" cx="674.2" cy="321.2" r="14.5"/><circle class="st9" cx="674.2" cy="321.5" r="5.9"/><path class="st5" d="M472.6 386.2s-10.2 38.2 19.7 50c29.9 11.8 48-8.4 48-8.4l15.7-29.1-7.1-33.8-28.3-12.6-48 33.9z"/><path class="st1" d="M485.9 367.2s-8.1 40.1 8.4 51.1 37.2 3.1 37.2 3.1l21.2-16.5-8.6-34.6-37-20.4-21.2 17.3z"/><circle class="st2" cx="549.7" cy="409.3" r="23.2"/><circle class="st3" cx="549.7" cy="409" r="10.2"/><path class="st5" d="M392.4 209.2s3.1 73.1.8 77.8c-2.4 4.7-23.6 14.9-28.3 31.4-4.7 16.5-.8 31.4 17.3 32.8-4.7 3.9-9.4 13.6-2.4 18.3s11.8 11.8 11.8 11.8.8 7.9 5.5 9.4c4.7 1.6 12.6-3.9 17.3-2.4 4.7 1.6 4.2 13.6 18.3 16 14.2 2.4 94.9-41.9 94.9-45.9 0-13.4.8-38.5.8-38.5l6.3-110.9-113.2-11-29.1 11.2z"/><path class="st1" d="M363.8 337.2c2 7.8 7.7 13.2 18.3 14-4.7 3.9-9.4 13.6-2.4 18.3s11.8 11.8 11.8 11.8.8 7.9 5.5 9.4c4.7 1.6 12.6-2.6 17.3-1 4.7 1.6 4.2 12.3 18.3 14.7 14.2 2.4 94.9-41.9 94.9-45.9 0-13.4-6.3-29.6-6.3-29.6s-158.8 2.9-157.4 8.3z"/><path class="st1" d="m567.7 346-43.2-.8-.9 23.5 47.3-1.3z"/><path class="st2" d="m523.6 368.7-.7 17.5 50.3-3.2-2.3-15.6zM379.8 369.6s31.4-11 48.7 1.6c0 0 1.6 6.3-2.4 8.6-3.9 2.4-7.9 2.4-11-.8-1.6 3.9-8.6 3.9-11.8 0-.8 3.9-7.1 7.1-11.8 2.4-1.6 2.4-8.4 3.4-10.5.5-2-2.9-1.2-12.3-1.2-12.3z"/><path class="st3" d="m416 366.4-.8 12.6M403.4 364.9V379M390.8 368l.8 14.2"/><path class="st5" d="M397.9 329.5v11l33 3.1v-13.7z"/><path class="st1" d="M430.9 329.9v13.7l10.2 1v-14.5z"/><path class="st7" d="m456.8 330.3-15.7-.2v14.5l15 1.4z"/><path class="st1" d="M419.1 313.8c-3.9 3.1-.8 15.7-.8 15.7l44.7-.6.5-15.9s-40.5-2.4-44.4.8z"/><path class="st2" d="M480.4 313h-16.9l-.5 15.9 17.4-.2z"/><circle class="st2" cx="465.8" cy="342.1" r="14.2"/><circle class="st3" cx="465.8" cy="341.8" r="4.9"/><path class="st8" d="M414.4 272.4s0 23.3 24.4 23.3c.7 0 1.4 0 2-.1l1.6-22.5-28-.7z"/><path class="st9" d="m463.9 273.7-21.6-.6-1.6 22.5c22.5-1.1 23.2-21.9 23.2-21.9z"/><path class="st3" d="M414.4 272.4s0 23.3 24.4 23.3 25.2-22 25.2-22l-49.6-1.3z"/><path class="st2" d="m430.1 272.8 18.8.5s.9 11.4-9.5 11.4c-10.9 0-9.3-11.9-9.3-11.9zM654.2 207.6s83.3 3.9 86.5 1.6c3.1-2.4 3.1-16.5-3.1-23.6s-46.4-11.8-46.4-11.8 27.5-1.6 33-15.7c3.3-8.5 3.1-18.1 0-21.2-3.1-3.1-59-1.6-59-1.6l-45.6 18.9 34.6 53.4z"/><path class="st3" d="m691.1 173.8-42.4 1.1M653.4 145l71.6.8M653.4 184.8l86.5 9.5M652.6 165.9l11-12.5M662.8 166.7l11.1-12.5M675.4 166.7l9.7-13.1M688 165.9l8.7-13.3M698.2 165.2l7.1-11M710 164.4l6.3-11M666.8 199l5.5-11.8M680.9 199.8l5.5-9.5M695.1 201.4l4.7-11.1M708.4 201.4l4.8-8.7M723.4 202.1l3.9-8.6"/><path class="st2" d="M597.6 104.6s42.5-49.5 48.7-53.5 17.3 10.2 11.8 44c11.8-9.4 23.1-12.8 28.6-9.7 5.5 3.1 12.3 15.2 6.8 29.4-5.5 14.2-51.9 38.5-51.9 38.5l-36.2-29.9-7.8-18.8z"/><path class="st3" d="m658.1 95.2-33.8 36.9M605.4 113.3 655 55.9M631.7 139.2l55.5-50.3M624.3 103.1l3.2 11.7M632.2 96.8l3.1 11.8M639.3 88.9l3.1 11.8M647.1 78.7l3.2 11.8M648.7 135.3l1.6 7.1M658.1 128.2l1.6 7.1M666 121.1l1.6 7.1M673.9 112.5l1.5 7.1M681.7 104.6l1.6 7.1"/><path class="st1" d="m581.8 129.8 8.6-34.6s22.8 11 47.2 45.6 18.1 73.1 18.1 73.1l-48-32.2-25.9-51.9z"/><path class="st4" d="M525 97.5 498 122c14.6 18.9 31.1 40 31.1 40l18.9 10.2 16.5-28.3s-21.3-25.3-39.5-46.4z"/><path class="st7" d="M590.5 128.2s-10.8-25.6-20.2-47.3l-29.9 11c11 24.2 24.1 52.1 24.1 52.1l26-15.8z"/><path class="st3" d="m556.7 150.2-44.8-51.1M581.1 135.3 558.3 81"/><path class="st4" d="m596 197.4-28.3 8.7 21.5 55.4 30-12.5z"/><path class="st7" d="m621.2 173.8-26.8 26 40.8 49.2 30.1-25.3z"/><path class="st3" d="m610.1 179.3 48 56.6M588.9 199.8l24.4 55.8"/><path class="st7" d="M542.5 162.8s29.1-36.2 48-34.6c25.2 2.4 41.7 32.2 31.4 51.1-10.2 18.9-46.4 28.3-46.4 28.3l-33-44.8z"/><path class="st3" d="M551.2 165.9s25.2-27.5 36.2-28.3 33.8 20.2 25.9 36.7c-7.9 16.5-40.9 27-40.9 27"/><path class="st9" d="m558.3 173.8 12.6 18.9s12.9-6.3 22.1-13l-18.1-22.5c-7.9 6.9-16.6 16.6-16.6 16.6z"/><path class="st8" d="M600.7 172.3c5.5-8.6-1.6-26.7-16.5-21.8-2.3.8-5.7 3.4-9.4 6.7l18.1 22.5c3.5-2.5 6.3-5.1 7.8-7.4z"/><path class="st3" d="M558.3 173.8s18.9-21 25.9-23.3c14.9-5 22 13.1 16.5 21.8-5.5 8.6-29.9 20.4-29.9 20.4l-12.5-18.9z"/><circle class="st3" cx="588.1" cy="165.2" r="6.3"/><path class="st2" d="M499.8 69.2c-3.1-1.6-24.1 20.4-23.3 23.6.3 1.4 10.4 14.6 21.5 29.2l27-24.6c-12.7-14.7-23.9-27.5-25.2-28.2zM557.2 51.2c-2.4-3.9-29.6 3.1-31.2 5.5-.7 1 6.3 17.1 14.4 35.2l29.9-11c-6.4-15-12.1-28.1-13.1-29.7zM623.5 258.7l-4.3-9.7-30 12.5 4.4 11.4zM676.2 235.9l-10.9-12.2-30.1 25.3 8.8 10.5z"/><path class="st3" d="m519.7 110.1-3.1 22M527.6 119.6l-2.4 20.4M535.5 129l-2.4 18.9M544.1 139.2l-2.4 15.7M582.9 221l7.9-11.8M586.6 230.4l7.8-12.5M590.5 241.4l8.6-13.3M595.2 250.9l7.1-10.2M613.3 207.6l3.9-15.7M621.9 217.9l4-17.3M629.8 225.7 633 210M637.7 233.6l3.1-16.5M552.8 101.5l7.8-13.4M557.2 111.4l7.9-11M562.5 122.4l6.2-8.6"/><path class="st1" d="m523.7 223.4.8 84.9 49.5 2.4s3.9-93.6 0-114.8c-3.9-21.2-24.4-30.9-33.8-34.1-13.7-4.6-66-1.3-66-1.3l-2.4 39.3 51.9 23.6z"/><path class="st3" d="M478.1 171.5s72.6-3.9 79.7 19.7c7.1 23.6 3.7 109.3 3.7 109.3"/><path class="st3" d="M477.3 180.9s61.3-3.1 66 14.9c3.6 13.7 6.6 36.2 6.6 36.2l-1.2 64.5M537 224.2l.8 76.2"/><path class="st1" d="M384.5 125.9v63.7l94.3 3.1s7.1-34.6-18.1-54.2-76.2-12.6-76.2-12.6z"/><path class="st3" d="M384.5 138.4s52.7-1 65.3 10.7 13.4 38.8 13.4 38.8"/><path class="st3" d="M385.3 153.4s48 .3 56.6 8.9c8.6 8.6 5.5 24.1 5.5 24.1"/><path class="st3" d="M385.3 169.1c2.3-.1 31.5-2.8 40.1 4.7 6.3 5.5 5.5 13.4 5.5 13.4"/><path class="st3" d="M385.3 178.6c33.7-2.4 30.6 6.6 30.4 8.6"/><path class="st8" d="m445.7 186.7-2.2 28.6c7 .4 14.3.9 21.9 1.6l1.9-29.2c-7.3-.4-14.6-.7-21.6-1z"/><path class="st9" d="M379.8 187.2c-5.5 3.9-5.5 27.5-5.5 27.5s29.7-1.7 69.2.6l2.2-28.6c-34.1-1.3-63.6-1.2-65.9.5z"/><path class="st8" d="M552.8 199c-5.1-4.5-33.6-7.9-66.1-10.1l-2.4 30.1c22 2.7 44.9 6.8 66.1 13.1 3.1-13.5 3.1-30 2.4-33.1z"/><path class="st9" d="m467.2 187.7-1.9 29.2c6.2.6 12.6 1.2 19 2l2.4-30.1c-6.4-.4-13-.8-19.5-1.1z"/><path class="st3" d="M374.3 214.7s0-23.6 5.5-27.5 160.4.8 173 11.8c.8 3.1.8 19.7-2.4 33-77-22.8-176.1-17.3-176.1-17.3z"/><circle class="st7" cx="547.6" cy="327.5" r="31.1"/><circle class="st3" cx="547.6" cy="327.1" r="18.1"/><circle class="st1" cx="547.6" cy="326.7" r="7.5"/><path class="st5" d="M364.8 318.5c-4.7 16.5-.8 31.4 17.3 32.8h0c27.5-4.5 29.9-29.6 5.5-26.5"/><path class="st3" d="M533.9 381.4v-11M545.9 381.1l-1-10.7M559 379.8l-1.5-10.2"/><path class="st5" d="M478.1 582.7c-12.6-.8-21.8 25.9-7.6 46.4 14.2 20.4 57.9 23.6 72.1 8.6 14.2-14.9 10.2-33 6.3-42.5-4-9.4-58.3-11.7-70.8-12.5z"/><path class="st1" d="M486.7 594.5s-7.9 14.2-4.7 24.4c3.1 10.2 38.5 14.9 44.8 6.3 6.3-8.6 2.4-18.8 2.4-18.8l-42.5-11.9z"/><circle class="st5" cx="515" cy="567" r="44.8"/></svg>