<svg version="1.1" id="Calque_1" xmlns="http://www.w3.org/2000/svg" x="0" y="0" viewBox="0 0 900 900" style="enable-background:new 0 0 900 900" xml:space="preserve"><style>.st0,.st1,.st2,.st3,.st6{fill:red;stroke:#000;stroke-width:4.755;stroke-linecap:round;stroke-linejoin:round;stroke-miterlimit:10}.st1,.st2,.st3,.st6{fill:#00ad56}.st2,.st3,.st6{fill:none}.st3,.st6{fill:#fff}.st6{fill:#ffce00}</style><g id="XMLID_69_"><g id="XMLID_97_"><g id="XMLID_103_"><path id="XMLID_106_" class="st0" d="M601.4 249.6c-.9 1.1-1.8 2.1-2.6 3.3-20.3-6.7-20.6 10.4-20.6 10.4l5.5 11.3s16.6-3.3 26.8-12.9c-3.8-3.3-6.9-8.2-9.1-12.1z"/></g><path id="XMLID_143_" class="st1" d="M601.4 249.6c2.1 3.9 5.3 9 8.8 12.3 2.1-1.9 3.9-4.1 5.3-6.3-1.8 14.3 18.1 14.8 20.1-.4 1.9-14.6-15.3-27.6-34.2-5.6z"/><path id="XMLID_104_" class="st2" d="M622.4 246.3s-7 .9-6.9 9.2"/><g id="XMLID_27_"><path id="XMLID_101_" class="st0" d="m578.6 246.3 5.6 15s23.1-5.5 31.2-33.6c-5.6-.9-10-4.1-12.9-6.5-7 24.4-23.9 25.1-23.9 25.1z"/><path id="XMLID_142_" class="st3" d="M635.6 194c-17.4-4.4-26.1-2.6-32.6 24.5-.2.9-.4 1.6-.7 2.5 2.8 2.5 7.2 5.6 12.9 6.5v-.2c8.3-28.2 8.1-25.6 20.4-33.3z"/></g></g><g id="XMLID_88_"><path id="XMLID_150_" d="M739.7 790.1c-2.3-26.9-21.7-42.3-22-48.1 6.7 2.3 10.6-3.2 10.2-11.1s-4.6-10.9-11.1-12.9-13.2 3.5-13.2 3.5c.9-6.7-5.6-15.7-16.4-15.5-10.7.4-9.3 11.1-6.2 13.7-17.4-7.7-46.5-14.6-58.6-29.6-12.2-15-16.4-70.1-15.5-76.3 7.6 9.9 23.6-3.2 22-11.1-1.6-7.9-10.6-9.3-10.6-9.3s15.7-5.8 7.6-19-18.8-4.9-20.8.9c-6.9-10.6-6.7-104.4-1.8-116.1 6.5 4.8 17.1.7 15.8-11.1-1.2-11.8-8.8-11.1-8.8-11.1s16.4-4.9 8.5-17.3c-7.9-12.2-19.9-4.6-20.3 1.4-5.3-14.4-2.5-57.2-1.4-65.2 6 4.8 13.9.4 14.1-10.7.2-11.1-9.3-11.3-9.3-11.3s12.3-7.4 7.9-17.3-14.4-11.1-18.5-4.1c-.2-18-1.8-32.9-4.1-44.7-4.2 3-9.2 6.9-9.7 8.3-.7 2.6-1.4 7.4-5.1 11.1-3.7 3.9-5.5-.7-10 1.8-4.6 2.5-3 6.7-7.9 9.3-4.9 2.6-11.1-2.3-15.5 0-4.4 2.5-3.2 7-8.8 8.5-5.6 1.4-14.1-2.3-19.4-1.2-5.3 1.2-5.3 5.3-10.9 4.9-5.6-.4-7.7-4.4-12.7-3.9-4.9.5-6.3 4.8-13 4.9-6.5.4-9.7-4.9-15-4.9s-10 3.9-16 2.8c-6.2-1.1-3.3-4.1-8.5-4.9-5.1-.9-8.3 4.9-14.4 2.6-6.2-2.3-4.8-3.2-9.2-4.1-4.4-.9-8.3 1.8-13.6 0-5.3-1.8-3.5-6.7-9.2-8.8-5.6-2.1-8.5.5-11.6-1.4-3.2-1.9-2.1-4.8-6-6-3.9-1.2-7 2.1-12.3-1.8-1.4-1.1-2.5-2.5-3.3-4.2-2.3 7.9-4.2 16.4-5.8 25.7-2.5-12-17.1-10.2-21 3.3-2.5 8.6 4.1 15.8 4.1 15.8s-14.4 5.5-10.2 18.5c4.1 12.2 16.2 12.5 21.7 2.1-4.1 31.5-15.3 109.9-17.3 119.9-1.1-7.4-16-7.4-19.9 2.6-3.9 10 4.4 15.5 4.4 15.5s-10.2 4.6-8.5 15c1.9 10.4 16 12.5 19.9 5.8-.9 48.4-7 98.4-11.1 123.8-1.1-9.3-13.9-13.7-21.1-7.6-7.2 6.2 0 22 0 22s-12.2 2.6-9.7 16.7 16.9 8.5 19.4 3.5c-1.4 9.9-.7 14.1-7.9 22s-98.6 41.4-98.6 41.4 2.8-10-7.9-11.4c-10.7-1.4-20.8 6.7-12.9 21.7-9.3 0-15.5 8.5-11.4 18.5s12.9 5.1 15.5 4.1c-4.6 6.5-11.6 24.7-5.8 50.2 5.8 25.5 19.7 38.2 44.6 39.6 11.8.7 20.3-5.1 25.5-12.7-12.2.4-36.5-3.5-43.8-24.3-10.2-28.7 3.5-63.2 54.2-63.2s401.2-4.9 431.1 11.8c29.9 16.7 35.7 37.9 26.1 58.1-5.1 10.7-16.4 18.8-25.9 24.1 4.8 1.6 10.2 2.3 16.2 1.8 26.9-1.8 43-28.1 40.7-55z" style="fill:#bb5c28;stroke:#000;stroke-width:4.755;stroke-linecap:round;stroke-linejoin:round;stroke-miterlimit:10"/><path id="XMLID_90_" class="st1" d="M359.1 286.8c5.3 3.9 8.5.5 12.3 1.8 3.9 1.2 2.8 3.9 6 6 3.2 1.9 6.2-.7 11.6 1.4 5.6 2.1 3.9 7 9.2 8.8 5.3 1.8 9.2-.9 13.6 0s3 1.9 9.2 4.1c6.2 2.3 9.3-3.5 14.4-2.6s2.5 3.9 8.5 4.9c6.2 1.1 10.7-2.8 16-2.8 5.3 0 8.5 5.3 15 4.9 6.5-.4 7.9-4.4 13-4.9 4.9-.5 7 3.5 12.7 3.9 5.6.4 5.6-3.9 10.9-4.9 5.3-1.2 13.7 2.6 19.4 1.2s4.4-6 8.8-8.5 10.6 2.6 15.5 0 3.3-6.9 7.9-9.3c4.6-2.5 6.2 2.1 10-1.8 3.7-3.9 4.4-8.5 5.1-11.1.4-1.4 5.3-5.3 9.7-8.3-3.9-21.1-9.2-32.2-9.2-32.2s12-10.2 5.8-16.7-15.5.5-15.5.5 7.4-12-.9-14.1c-8.3-2.1-11.4 7-13.7 6.2-2.3-.9-26.1-17.6-68.7-17.6s-60.4 9.3-63.9 8.5c-3.5-1.1-5.6-12-14.1-10.2-8.5 1.8-5.3 14.6-5.3 14.6s-4.4-15-14.6-7c-10.2 7.9.5 17.6.5 17.6s-20.4 22.2-32.6 64.3c1 .6 2 2.2 3.4 3.3z"/><path id="XMLID_28_" class="st2" d="M339.9 312.3c0 5.3 11.8 9.7 10-4.1"/><path id="XMLID_29_" class="st2" d="M332.5 343.3c5.6-8.3 15.7-2.3 11.8 4.6"/><path id="XMLID_30_" class="st2" d="m332.9 327.5 10.6 1.5"/><path id="XMLID_31_" class="st2" d="M316.2 472.6c1.9 7.4 13.6 6.2 11.1-4.8"/><path id="XMLID_32_" class="st2" d="M323.2 506.5c5.3-6.2-3.2-12.3-8.3-7.9"/><path id="XMLID_33_" class="st2" d="m311.8 485.9 12.6 1.8"/><path id="XMLID_34_" class="st2" d="M291.9 659.2c5.1-7 13.2 1.8 9 5.8"/><path id="XMLID_35_" class="st2" d="M312.3 630.3c3.2 10.7-12 11.1-12 0"/><path id="XMLID_36_" class="st2" d="m303.8 648.3-12.6-3.5"/><path id="XMLID_37_" class="st2" d="M180 728.1c0 8.3 12.9 7.4 14.3.4"/><path id="XMLID_38_" class="st2" d="M174.4 750.1c5.6-2.6 12.3 6.7 3.2 10.9"/><path id="XMLID_39_" class="st2" d="m173.5 738.6 8.5 2.5"/><path id="XMLID_40_" class="st2" d="M719.1 728.1c-7.9 0-11.1 11.1-1.4 13.9"/><path id="XMLID_41_" class="st2" d="M681.2 720.2c4.6 8.1 13 4.9 10.7-2.3"/><path id="XMLID_60_" class="st2" d="M607.3 614.5c-3.7-5.1-.2-11.3 6.9-11.3"/><path id="XMLID_61_" class="st2" d="m618.7 594.2-14.3 1.3"/><path id="XMLID_62_" class="st2" d="M605.5 576.1c-2.8 6.7 5.5 13.6 10.2 6.7"/><path id="XMLID_63_" class="st2" d="M608.5 428.2c-3.7 3.9-11.4 1.2-9.7-6.2"/><path id="XMLID_64_" class="st2" d="M606.6 447c-4.2 0-7.6 10-2.8 13"/><path id="XMLID_65_" class="st2" d="m610.8 437.9-9.4 1.7"/><path id="XMLID_66_" class="st2" d="M598.6 324.8c-5.3 2.3-10.2-5.3-6.9-11.1"/><path id="XMLID_67_" class="st2" d="M598.6 345.1c-3.9-.4-7 7.4-1.1 11.8"/><path id="XMLID_68_" class="st2" d="m602.3 334.8-8.3 1.3"/><path id="XMLID_80_" class="st0" d="M450.3 220.7s-13.9 9.5-10.6 21.3c3.2 11.8 19 18 40.2 18.8s42.3-5.6 46.1-15.5c3.9-10-9.3-23.1-9.3-23.1l-66.4-1.5z"/><g id="XMLID_124_"><path id="XMLID_114_" class="st3" d="M387.1 399.5c-5.8 4.9-3.9 47.5-17.3 47.5-9.7 0-5.3-16.7-5.3-17.1 0-.4-15.5 4.9-13.7 19.4s19 15 29.1 9.2c7.9-4.8 18.5-18.8 18.5-18.8l4.9-29.1s-10.2-16.2-16.2-11.1z"/><path id="XMLID_117_" class="st2" d="m503.7 393 1.9-8"/><path id="XMLID_116_" class="st2" d="m522.6 392.6-5.5 8.5"/><path id="XMLID_111_" class="st3" d="M542.3 406.7c5.8 4.9 5.3 42.4 15.5 43.8 4.4.2 8.8-2.3 8.5-9.3 6.3.7 11.1 10.4 3.7 16.7-7.4 6.3-19.2 7.4-25.7 0s-8.8-18.3-8.8-18.3l-10-31.5c-.5 0 11-6.5 16.8-1.4z"/><g id="XMLID_105_"><path id="XMLID_144_" class="st1" d="M500 336.1c-24.8-4.8-30.5 18.1-31.5 27.6-.2 2.5-.4 4.1-.4 4.1s0-1.6.4-4.1c.5-10.4-.7-37-27.1-31.2 8.6 13.9 12.3 26.2 13.7 36.1l29.2.5c2.3-10.7 6.9-22.6 15.7-33z"/><path id="XMLID_145_" class="st2" d="M468.3 363.6c-.4 2.5-.4 4.1-.4 4.1s.4-1.7.4-4.1z"/><path id="XMLID_146_" class="st0" d="M454.9 368.5c1.9 14.1-.9 22.7-.9 22.7l8.1 28 19.9-20.8s-1.6-13.2 2.1-29.4l-29.2-.5z"/></g><g id="XMLID_120_"><path id="XMLID_109_" class="st3" d="M466.7 408.3s-.5-16.4-10.2-23.4-22.9-4.4-22.9-4.4.4-6.7-3.9-10.9c-4.1-4.1-18.5-1.4-18 6.5-12.3-3.9-17.3 5.8-14.6 12-7.4-2.3-16.7 3.9-11.8 12.9 4.9 9.2 7 4.8 8.5 11.1 1.4 6.5-3.9 18.5-8.5 43.5-4.8 25-1.8 44.6-4.1 48.8-1.8-10.6-10.6-11.1-17.1-7.4-6.5 3.9-11.1 12-8.5 22.4 2.6 10.2 7.4 15 22 14.4s20.8-17.4 24.3-34.3 6.2-71.8 11.8-84.9c5.6-12.9 21.7-19.4 29.1-7.6s6.2 28.5 5.3 28.7c-.9.4-10.6-.4-18.1 3.2-7.7 3.7-6.5 12.2-3 16.7-5.6 2.5-5.6 12-.9 15.5 4.8 3.5 18.5 2.6 18.5 2.6l.5 48.8s-6.2-7.9-16.2-4.9-13.2 11.8-12.3 20.8c.9 9 7.6 11.1 14.1 8.5-6.7 6.7-3.7 21.5-5.8 21.7-2.1.2-7.6.4-11.1 3.2-3.5 2.8-3 11.4-.4 14.1 2.6 2.6 10 1.2 12.9 3.5 3 2.3-.4 7.9 1.8 12 2.1 4.1 64.6 4.9 67.1 0s1.1-10.7 4.1-13.2 12.2 0 14.8-2.6c2.6-2.6 3.9-12.7.4-15.7s-8.5-1.8-10.6-2.1c-2.1-.4-3.5-18.1-10.4-24.8 6.2 4.1 12-2.8 12.9-12 .9-9.2-7.2-17.1-17.4-16.4-10.4.7-11.4 15.8-11.4 15.8l1.9-59.7s14.6.7 19.4-2.8c4.8-3.5 2.3-12.9-5.1-12.9 6.2-1.9 10.2-13.2 2.8-17.6-5.1-3.2-13.7-.5-14.6-.9-.9-.4-1.9-9 2.3-16.9 6.3-12.3 26.2-7 31.9 5.8S515 469.8 515 487c0 20.1 4.8 38.6 19.4 39.3 14.6.7 20.6-5.8 23.2-16 2.6-10.2-2.1-17.6-10.6-18-8.5-.4-11.8 8.1-8.5 15.1-4.4-3.7-6.3-18.7-2.5-52.7 3-25.2-5.6-41.4-6.2-44.7-.5-3.3.4-.4 5.3-9.5 4.9-9.2-7.2-13.2-12.9-8.6 4.1-10.4-12-14.8-16.9-7.6.5-7.9-12.5-9.3-15.8-4.6-2.1 3-1.9 6.2-1.4 10.7-15.9-.1-21.4 17.9-21.4 17.9"/><path id="XMLID_110_" class="st2" d="M371.1 514.1s10.9-3 10.2-10"/><path id="XMLID_112_" class="st2" d="m417.1 385-5.3-9.1"/><path id="XMLID_107_" class="st2" d="m397.2 388 6.1 6.4"/><path id="XMLID_113_" class="st2" d="M427.1 455.5h18.8"/><path id="XMLID_118_" class="st2" d="M549.3 506.5s-5.5 9.2-10.6 1.4"/><path id="XMLID_115_" class="st2" d="M493.8 455.5h-11.6"/><path id="XMLID_121_" class="st2" d="M492.4 529.6s-7.7 7.6 1.1 13.4"/><path id="XMLID_122_" class="st2" d="M431 546.7c9.3-3.7 6.5-15.3 0-15.3"/><path id="XMLID_123_" class="st2" d="m461.3 519.4 5.4-111.1"/><g id="XMLID_127_"><path id="XMLID_129_" d="M479.9 585.6c-1.8-11.3-8.3-19.2-18.7-19.2s-18.5 9.7-13.6 19.2 16.4 4.6 16.4-4.8c2.6 8.3-.2 17.4-3.2 23.9 6.5 0 13.2 0 18.8-.4.9-5.5 1.2-12.7.3-18.7z" style="fill:#813717;stroke:#000;stroke-width:4.755;stroke-linecap:round;stroke-linejoin:round;stroke-miterlimit:10"/></g><path id="XMLID_126_" class="st2" d="M454 580.9c0-7.7 9.9-7.6 9.9 0"/></g></g><g id="XMLID_147_"><path id="XMLID_148_" class="st6" d="M694.4 813c3.9-18.5.4-29.6-26.1-39.3s-403.6-12.7-428.8-6-37.3 27.6-24.1 47c8.5 12.5 22.4 14.1 31 13.7 1.9-6 2.1-11.8.7-16-9-1.4-19.5-3.7-19.9-13.2-.4-9.5 5.6-11.1 8.5-11.1 2.8 0 4.1 3.5 7.9 3.5s1.4-4.1 6.2-4.4c4.9-.4 2.5 5.6 8.8 4.9 6.3-.7 5.5-6 11.1-6.2 5.6-.2 4.8 5.8 12 5.3s4.6-5.1 9.7-5.3c5.1-.2 5.5 4.6 10.6 5.3 5.1.7 5.8-4.2 9.7-4.4 4.1-.2 6.3 4.6 11.4 4.4 5.1-.2 4.9-4.9 9.3-4.9s7.9 5.6 14.1 5.3c6.2-.4 7.4-4.8 12.3-4.9 4.9-.2 6.7 3.7 11.4 4.4s5.3-5.8 9.7-5.3 6.2 6 12 6.2c5.8.2 6.9-4.1 12.3-4.4s5.5 3.7 11.4 3.2c6-.5 6.3-3.2 12-3.5 5.6-.4 6.7 5.3 12.9 5.3s9.9-3.2 14.6-3.5 5.8 4.4 13.7 4.4c7.9 0 8.6-4.1 15-4.4s7.7 4.4 14.1 4.1 7.2-4.6 11.1-4.4c3.9.2 5.6 6.3 12.9 5.8 7.2-.5 7.6-4.4 13.2-4.9s8.6 4.2 15 4.4c6.3.2 10.2-2.8 15.5-3.2s9.7 4.1 15.8 4.1c6.2-.2 8.5-2.5 14.1-2.6 5.6-.2 10.9 3.3 16.7 3.5 5.8.2 9.3-1.6 13.7-1.8 4.2-.2 6.3 4.2 13.2 4.1 6.9-.4 7.7-3.9 21.7-4.1 13.7-.2 20.6 6.7 15.8 15.8-4.8 9.2-13.7 1.9-16.4 7.9-1.2 3.2 2.1 10.9 9.3 17.4 9.3-3.9 22.5-11.1 24.9-22.2z"/><path id="XMLID_149_" class="st0" d="M708.5 819.7c9.7-20.3 4.1-41.4-26.1-58.1-30.1-16.7-380.4-11.8-431.1-11.8S187 784.5 197.2 813c7.4 20.8 31.7 24.7 44.4 25.2 2.1-3 3.7-6.3 4.6-9.5-8.8.4-22.5-1.4-31-13.7-13.2-19.4-.9-40.5 24.3-47.2s402.6-3.5 428.8 6.2c26.2 9.7 29.8 20.8 26.1 39.3-2.3 11.1-15.7 18.3-25.9 22.4 3.7 3.3 8.5 6.5 14.3 8.5 9.2-5.9 20.4-14 25.7-24.5z"/></g><g id="XMLID_82_"><g id="XMLID_78_"><circle id="XMLID_91_" class="st3" cx="431" cy="265.8" r="12.7"/><circle id="XMLID_92_" class="st3" cx="431" cy="265.8" r="4.9"/><circle id="XMLID_94_" class="st3" cx="475" cy="283.4" r="12.7"/><circle id="XMLID_93_" class="st3" cx="475" cy="283.4" r="4.9"/><circle id="XMLID_96_" class="st3" cx="526.8" cy="272.7" r="12.7"/><circle id="XMLID_95_" class="st3" cx="526.8" cy="272.7" r="4.9"/></g><g id="XMLID_81_"><path id="XMLID_119_" class="st3" d="m456.5 256.8-3.7 11.4c3 1.1 6.2 1.9 9.9 2.6l3.2-11.4c-3.4-.6-6.6-1.5-9.4-2.6z"/><path id="XMLID_132_" class="st3" d="m465.8 259.3-3.2 11.4c3.3.7 7 1.2 11.1 1.6l.7-11.8c-2.9-.3-5.9-.7-8.6-1.2z"/><path id="XMLID_133_" class="st3" d="M439.8 242c-.2-.9-.4-1.6-.4-2.5l-11.1 12s1.6 2.8 5.8 6.5l7.4-11.8c-.8-1.3-1.4-2.7-1.7-4.2z"/><path id="XMLID_134_" class="st3" d="M479.9 260.9c-1.8 0-3.7-.2-5.5-.4l-.7 11.8c1.2.2 2.5.2 3.9.2 2.5.2 4.9.2 7.2.2v-11.8h-4.9z"/><path id="XMLID_135_" class="st3" d="m441.5 246.3-7.4 11.8c2.1 1.8 4.9 3.9 8.5 5.8l5.1-11.3c-2.6-1.9-4.7-4-6.2-6.3z"/><path id="XMLID_136_" class="st3" d="m447.7 252.6-5.1 11.3c2.8 1.6 6.3 3.2 10.2 4.4l3.7-11.4c-3.3-1.1-6.3-2.7-8.8-4.3z"/><path id="XMLID_137_" class="st3" d="m510.6 256.8 3.9 10.4c4.1-1.6 7.4-3.3 9.9-4.9l-4.8-9.7c-2.5 1.6-5.5 3-9 4.2z"/><path id="XMLID_138_" class="st3" d="m530.7 257-6.2-9.2c-1.2 1.8-3 3.2-5.1 4.6l4.8 9.7c4.5-2.8 6.5-5.1 6.5-5.1z"/><path id="XMLID_139_" class="st3" d="M484.7 260.9v11.8c3.9 0 7.4-.4 10.6-.7l-.9-11.6c-3.2.3-6.4.5-9.7.5z"/><path id="XMLID_140_" class="st3" d="m494.4 260.4.9 11.6c3.3-.4 6.3-.9 9.2-1.6l-2.8-11.1c-2.4.4-4.9.7-7.3 1.1z"/><path id="XMLID_141_" class="st3" d="m501.8 259.1 2.8 11.1c3.7-.9 7-1.9 10-3.2l-3.9-10.4c-2.8 1.1-5.8 2-8.9 2.5z"/></g></g><g id="XMLID_75_"><path id="XMLID_74_" class="st3" d="M472.5 144.7s5.8-48.1 2.1-56.9C471 79 459.3 75.1 452.3 86c-6.9 10.9-17.6 67.4-26.8 76.6-9.2 9.2-41.9 13.7-46.7-10.9s12.9-61.1 10.2-73.6c-10.2 11.4-25.5-2.3-21.1-14.6S385 48 395.8 51.1c10.9 3.2 14.1 11.4 13.7 23.4s-16.6 52.1-11.8 66.9c4.8 14.8 16.9 2.8 20.6-6.7 3.9-9.5 11.6-59.2 26.8-69s42.3-7.6 49.5 6.7c7.4 14.4-.4 77.7-.4 77.7V166l-16.7 3.9-5-25.2z"/><path id="XMLID_77_" class="st2" d="M481.2 152.4s4.6-56.4 2.1-68.5c-2.5-11.8-20.3-22.5-34.2-6.5-13.9 16-17.3 61.1-26.4 73.8-9.2 12.7-34.9 12.9-37-4.4-2.1-17.3 20.6-76.6 8.8-85.8-7.9-6.2-14.6-.9-16.4 3.5s-.5 7.4 3 7.6c3.5.4 3-6.7 6.5-5.3 3.5 1.4 5.6 7 1.8 11.1"/><path id="XMLID_76_" class="st3" d="M494.6 150.1s-4.1-62.3 15-77.1 41.9-10 51.6 1.8c13.2 17.3 5.3 75.7 10 85.4 0-7.4 6.7-9.9 14.4-7.4s15.5 13 9.7 23.2c-5.8 10.2-17.6 13.2-30.3 4.9-12.7-8.3-10.9-34-11.4-50.7-.5-16.7-.5-35.2-7.7-43.5-6-6.9-18-8.8-26.2 4.8s-8.3 58.6-8.3 58.6l-13.7 13.2-3.1-13.2z"/><path id="XMLID_79_" class="st2" d="M502.3 148.2c0-.9 1.2-55.1 12-66 10.7-10.9 25.5-13.2 37.3-2.1s10.2 71.7 12 81.4c1.8 9.7 10.9 14.6 16.7 14.6s9.3-7 6.5-11.4c-3-4.4-5.6.9-8.5 1.8-3 .9-7-.9-7-6.2"/><g id="XMLID_73_"><ellipse id="XMLID_20_" class="st6" cx="484.5" cy="216" rx="41.6" ry="21.1"/><g id="XMLID_72_"><g id="XMLID_70_"><path id="XMLID_83_" class="st3" d="M522.2 182.2c13.2 0 17.6-10.7 15.8-21-1.8-10.2-9.2-17.6-26.8-17.6s-22 15.1-22 15.1l-12.9 56 1.8 7.2c7.7.9 16.2.7 21.7-.7 1.8-12.2 5.6-47.4 5.6-47.4s3.6 8.4 16.8 8.4z"/></g><g id="XMLID_71_"><path id="XMLID_84_" class="st3" d="M489.3 158.6c-1.8-12.9-14.1-22.2-31.7-17.3-17.6 4.9-13.2 29.1-5.3 32.6 7.9 3.5 17.1.9 17.1.9l-8.6 40.9c3.7 4.1 14.4 6.3 24.5 6.5 1.3-14.3 5.4-53.2 4-63.6z"/></g><g id="XMLID_85_"><path id="XMLID_87_" class="st3" d="M466.6 153.1c-6.7-2.3-14.4.5-11.4 6.7s8.5-.5 11.4 2.3c3 3-6.5 52.5-6.5 52.5 1.4 2.3 4.9 4.1 9.5 5.3 2.3-13.6 6.9-41.2 6.9-49.7-.1-11.1-3.3-14.6-9.9-17.1z"/><path id="XMLID_89_" class="st3" d="M512.5 165.8c6.2-3.9 6.7 5.8 11.1 3.2 8.3-4.4-.5-20.8-13.2-15-7.9 3.3-12.3 34.9-14.3 67.6 4.4-.7 7.7-1.8 9-3.3 0 0 1.2-48.6 7.4-52.5z"/></g></g></g></g><g id="XMLID_86_"><path id="XMLID_99_" class="st0" d="M369.2 229.2c-.5-1.4-1.2-2.6-1.8-3.9-3 3.3-7.4 7.6-11.8 9.9 3.9 6.5 9.3 11.1 13.2 13.6 3.7-7.6 7.4-13.7 10.6-18.5-2.7-.9-5.8-1.3-10.2-1.1z"/><path id="XMLID_131_" class="st1" d="M367.4 225.3c-12.9-25.9-32.8-17.6-34.5-3-1.8 15.3 17.6 19.5 19.4 5.3.7 2.8 1.9 5.3 3.2 7.6 4.5-2.3 8.9-6.5 11.9-9.9z"/></g><path id="XMLID_100_" class="st2" d="M347.9 217.2s6.5 2.6 4.4 10.6"/><g id="XMLID_98_"><path id="XMLID_102_" class="st3" d="M373.4 197.3v-2.5c.4-27.8-7.6-31.7-25.5-31.7 10 10.6 10.6 7.9 11.4 37.3v.2c5.8.4 10.7-1.5 14.1-3.3z"/><path id="XMLID_130_" class="st0" d="M373.4 197.3c-3.3 1.8-8.5 3.7-14.1 3.2.7 19.2 9.9 30.5 16.2 35.9 3.2-5.5 6.2-9.7 8.5-12.9-4.8-3.8-10.1-11.6-10.6-26.2z"/></g></g></g></svg>