<svg version="1.1" id="Calque_1" xmlns="http://www.w3.org/2000/svg" x="0" y="0" viewBox="0 0 900 900" style="enable-background:new 0 0 900 900" xml:space="preserve"><style>.st0,.st1{fill:red;stroke:#000;stroke-width:3.1415}.st1{fill:#ffce00}.st2{fill:red}.st3{fill:#0062ff}.st4,.st5{fill:#fff;stroke:#000;stroke-width:3.1415}.st5,.st6,.st7{stroke-linecap:round;stroke-linejoin:round}.st6{fill:#ffce00;stroke:#000;stroke-width:3.1415}.st7{fill:none}.st7,.st8,.st9{stroke:#000;stroke-width:3.1415}.st8{fill:#097700;stroke-linecap:round;stroke-linejoin:round}.st9{fill:#075900}.st10,.st11{fill:none;stroke:#000;stroke-width:4.1887;stroke-linecap:round;stroke-linejoin:round}.st11{fill:red;stroke-width:3.1415}.st12{fill:#ffce00}.st13,.st15{stroke:#000;stroke-width:3.1415}.st13{fill:#0062ff;stroke-linecap:round;stroke-linejoin:round}.st15{fill:none}.st16{fill:#fff}.st17{fill:#075900;stroke:#000;stroke-width:3.1415;stroke-linecap:round;stroke-linejoin:round}</style><path class="st0" d="M174.6 359.5c-3.1-3.1 97.7-4.5 97.7-4.5l13.9 12.6 43.7 48.5s-49.5 68.8-53.4 69.1c-3.9.3 38-80.9 38-80.9s-55.8 71.5-59.4 71.2c-3.5-.3 42.9-85.9 42.9-85.9s-69.8 62.5-73 58.6c-3.1-3.9 61.8-71.9 61.8-71.9s-88.2 45-92.4 39.8c-1.8-3.1 85.6-49.5 85.6-49.5s-91.5 3.7-105.4-7.1z"/><path class="st1" d="M284.6 349.1c2.4-5.2 56.2-24.8 56.2-24.8l37.4-4.5 9.4 16-2.5 41.6-49.5 40.8-34.9-30.1c-.1 0-18.5-33.8-16.1-39z"/><path class="st2" d="m331.7 338.3 39.8 48.2 20.6-18.9-2.1-38.4-19.9-8.4z"/><path class="st3" d="m319.1 345.2 39.5 47.5 15.3-11.9-34.9-41.5z"/><path class="st4" d="M325.4 423.1c0 2.8-7.3 11.5-3.5 14.3s18.8-19.2 19.6-22.3c.4-1.7-18.6-17-33.5-34.2-13.4-15.6-22.6-33.4-23.8-33.8-2.4-1-15 5.2-14.3 9.4 5.5 21.9 55.5 63.8 55.5 66.6z"/><path class="st5" d="M588.2 128.4c-6.3-11.2-19.6-18.5-19.6-18.5s-1 11.8-13.9 9.1c-3.9-1.4-10.2-9.1-8.4-16 1.8-7 9.1-10.8 18.1-10.5 18.5 2.1 39.8 31.1 39.8 31.1l-11.5 8.1c0-.1 1.8 7.9-4.5-3.3z"/><path class="st6" d="M588.2 128.4c-6.3-11.2-19.6-18.5-19.6-18.5s-17.1-1-13.3-7.3c15.4-10.8 42.2 24.8 42.2 24.8l-4.9 4.2c.1 0 1.9 8-4.4-3.2z"/><path class="st5" d="M638.6 116.8c3.5-12.4 20.5-24.6 20.5-24.6s1 12.8 12.9 7c3.4-2.3 7.5-11.1 4.2-17.5-3.4-6.4-9.7-10.5-18.8-7.3s-29.6 16.4-35.9 45.3c13.9 13.3 13.5 1.2 13.5 1.2s.2 8.2 3.6-4.1z"/><path class="st6" d="M638.6 116.8c3.5-12.4 20.5-24.6 20.5-24.6s8.4-2.1 3.1-7.3c-13.2-5.3-33 33.1-33 33.1l5.8 2.9c-.1 0 .2 8.2 3.6-4.1z"/><path class="st5" d="m606 100.9 14.7-1.4S611.6 51 589.3 50c-11.2.7-20.6 13.3-12.9 22 6.3 4.9 10.2-2.8 12.3-2.1 9.7 4.1 17.3 31 17.3 31z"/><path class="st6" d="m606 100.9 7.6-.7s-6.6-37-29.3-38c-6.6 1 2.1 7 4.2 7.6 9.9 4.2 17.5 31.1 17.5 31.1z"/><path class="st5" d="M594.8 143.5s-8.1-10.2-9.1-13.3 12.6-7 14.7-5.6c2.1 1.4 6.6 15 6.6 15l-12.2 3.9zM646.9 132.6s7-16.4 5.2-17.8c-1.8-1.4-13.9-1-13.9 1.8s1.4 17.8 1.4 17.8l7.3-1.8z"/><path class="st6" d="M632.5 134.4s-3.9-12.9-3.9-15.7 9.7-4.5 11.5-2.4c1.8 2.1 0 17.5 0 17.5l-7.6.6z"/><path class="st5" d="M614.7 122.2c-.7 2.4 3.1 15.4 3.1 15.4l14.7-3.1s-1.8-13.6-2.8-15.7-14.2.9-15 3.4z"/><path class="st6" d="M600.5 124.7c.3-2.8 13.3-4.5 14.3-2.4s3.1 15.4 3.1 15.4l-10.8 2.1c0-.2-7-12.4-6.6-15.1z"/><path class="st5" d="M612 261.4c-1.4-22.3-13.6-50.6-13.6-54.5 0-3.9 59.7-32.1 59.7-36.7s-8.4-35.6-11.2-37.7-48.9 7-52 10.8c-3.1 3.9 15.7 22.7 15 27.5-.7 4.9-34.9 19.2-32.1 25.9 2.8 6.6 6 43.2 6 43.2s21.4 15.1 28.2 21.5z"/><path class="st7" d="m651.1 142.8-51.3 11.8M653.2 150.1l-49.3 10.5"/><path class="st8" d="M577 231.8s-18.1-45-48.2-46.4c-30.1-1.4-48.2 30.1-48.2 30.1l-15.4-3.5s11.8-49.5 64.6-45.8 61.5 57.2 61.5 57.2l-7.3 8.7-7-.3z"/><path class="st9" d="M577 231.8s-18.1-45-48.2-46.4c-30.1-1.4-48.2 30.1-48.2 30.1l-8.4-1.9s12.6-41 57.6-37.6c45 3.5 56.9 53 56.9 53l-2.7 3.2-7-.4z"/><path class="st5" d="M471.3 307.9s66.7-1 74.7-2.1c8.1-1 12.9-7.3 12.3-17.5-1-12.9-25.9-12.3-25.9-12.3L464 294.1l7.3 13.8z"/><path class="st6" d="M541.4 306.1c2.1-.1 3.7-.2 4.5-.3 8.1-1 12.9-7.3 12.3-17.5-1-12.9-25.9-12.3-25.9-12.3l9.1 30.1zM522.4 278.8l-10.6 2.8 8.4 25.2c3.9-.1 7.5-.2 10.8-.3l-8.6-27.7z"/><path class="st10" d="m519.9 290.7 3.4 9.2M543.5 284.1l2.9 12.9"/><path class="st5" d="M456.3 288.7s57.6-26.9 65.7-31.1c8.1-4.2 20.2-5.6 25.9 4.2 6 14.3-8.1 19.6-16.4 20.9-2.6.4-9.6 2-18.1 3.9-19.3 4.3-46.1 10.5-46.1 10.5l-11-8.4z"/><path class="st6" d="M523.7 284.3c-3 .6-6.6 1.5-10.5 2.3l-9.8-20c4.1-1.9 7.7-3.7 10.9-5.1l9.4 22.8zM522 257.7c8.1-4.2 20.2-5.6 25.9 4.2 6 14.3-8.1 19.6-16.4 20.9l-9.5-25.1z"/><path class="st10" d="m510.4 270.5 4.5 8.4M532.4 260.4l4.2 10.9"/><path class="st5" d="M469.6 285.9c6-13.6 6.6-52.7 9.1-53.7 2.4-1 4.2 9.7 14.3 10.5 15 1.4 20.6-19.2 10.8-27.2-6-4.9-13.6-3.9-20.6-3.5-19.2 2.1-30.7-9.7-30.7-9.7s-.4 37.9-9.8 53.9 6 36.3 6 36.3l12.3 3.1c-.2.1 2.6 3.9 8.6-9.7z"/><circle class="st11" cx="495.3" cy="227.4" r="6.5"/><path class="st11" d="M461.2 225.5s-5.6 38.7-11.2 46.1c-5.6 7.3 3.9 16.8 6.6 12.9 2.8-3.9 12.3-50.6 11.8-55.2-.3-4.5-7.2-3.8-7.2-3.8z"/><path class="st5" d="M313.1 292.5s-4.5-67 83.5-88.3c18.1-6.3 22.3 27.2 22.3 27.2l-16.8 66-68.8 6-20.2-10.9z"/><path class="st12" d="M335.1 294.3s5.6-58.3 67-73.3c24.4 28 9.7 52 9.7 52l-41.2 36.2-35.5-14.9z"/><path class="st3" d="M356.8 295.4s6-40.5 45-54.1c9.1 8.1 11.5 39.8 11.5 39.8L391.6 308l-32.5-6.3-2.3-6.3z"/><path class="st11" d="M242.4 277.9c3.1-1.8 84.1-.3 84.1-.3l-4.5 15.7c-.1 0-82.8-13.7-79.6-15.4zM328.9 267.7s-65.7-62.1-63.9-63.6c1.8-1.4 70.9 52 70.9 52l-7 12.3M344.6 246.1s-38-76.1-35.9-77.2c2.1-1 47.9 65.7 47.9 65.7l-12 11.5zM372.8 218.9s-21.7-68.4-19.6-69.4c2.1-1 30.4 65.7 30.4 65.7l-10.8 3.7z"/><path class="st2" d="M373.6 295.7c3.9-23.8 26.2-31.7 26.2-31.7l6.3 27.5-13.9 11.2c-.1 0-22.5 16.7-18.6-7z"/><ellipse class="st5" cx="411.4" cy="141.8" rx="21.3" ry="20.3"/><ellipse class="st7" cx="410.7" cy="142.8" rx="15.5" ry="15"/><circle class="st7" cx="410.6" cy="143.9" r="7.6"/><path class="st5" d="M394.3 170s-8.6-7.9-6.3-11c2.3-3.1 17.6-6 20.1-4.5 2.4 1.4 5 12.8 5 12.8s2.1-12 4.9-13.1c2.8-1 18.8 2.1 20.1 5.8 1.3 3.7-5.4 11.2-5.4 11.2l-24.1 2.9-14.3-4.1z"/><path class="st7" d="M400.3 169.2s-5.4-8.4-.8-9.7c4.5-1.4 11.2 13.3 15 12.8s7.1-15 12.9-13.3c5.8 1.8-.8 15.2-.8 15.2"/><path class="st11" d="M400 185.9s-8.9-11.8-7.6-16.4c1.3-4.5 40.6-6.8 42.1-.5s-5.4 16.2-5.4 16.2l-29.1.7z"/><path class="st13" d="M404.3 215s-13.7-4.9-14.9-14.3c-1.4-12.3 12.3-20.4 25.9-20.4s24.4 3.4 24.9 14.5c.6 11.2-11.1 17.2-11.1 17.2l-24.8 3z"/><path class="st5" d="m431.2 293.6-34.9-4.9s5-86.1 7.5-87.1 3.7-2.3 6.8-2.6c3.1-.4 20.6 94.6 20.6 94.6z"/><path class="st6" d="M410.5 287.6v-88.7s13.6-3.1 15.7 1c2.1 4.2 35.9 93.5 35.9 93.5l-51.6-5.8z"/><circle class="st7" cx="418.9" cy="277.6" r="2.8"/><circle class="st7" cx="429.4" cy="269.5" r="2.8"/><circle class="st7" cx="444" cy="278.2" r="2.8"/><circle class="st7" cx="446.9" cy="267.7" r="2.8"/><circle class="st7" cx="438.8" cy="258" r="2.8"/><circle class="st7" cx="423.5" cy="248.9" r="2.8"/><circle class="st7" cx="434" cy="245.1" r="2.8"/><circle class="st7" cx="431.2" cy="233.9" r="2.8"/><circle class="st7" cx="418.6" cy="233.9" r="2.8"/><circle class="st7" cx="426.2" cy="224.5" r="2.8"/><circle class="st7" cx="416.8" cy="216.8" r="2.8"/><circle class="st7" cx="425.6" cy="213.7" r="2.8"/><circle class="st7" cx="418.3" cy="205.6" r="2.8"/><path class="st5" d="M547.1 449.9s-1.8 3.9 4.2 6.6c-1.4-4.2.7-8.4.7-8.4l-4.9 1.8z"/><path class="st11" d="M558.6 449.6s-3.9 7.6-7.6 8.7c-3.9 1-12.9-1.8-12.9-1.8s-4.2-1.4-8.4-9.7c-2.1 8.1 5.2 13.3 5.2 13.3s1 2.4-3.5 11.2c5.6-1.4 7.9-9.7 7.9-9.7s7.5 2.8 13.1.7 9.7-11.5 9.7-11.5l-3.5-1.2z"/><path class="st0" d="M467.8 796.5c4.9 10.5 30.1 34.6 25.4 37.4-4.5 2.8-18.1-6.6-18.1-6.6L460.5 797s2.4-10.9 7.3-.5z"/><path class="st0" d="M459.1 791s32.8 46.8 25.1 51.3c-7 2.8-18.1-12.9-18.1-12.9l-18.2-30.8 11.2-7.6z"/><path class="st9" d="m471.3 714.2 15.7-13.6 47.9-32.1s18.1 10.2 17.1 30.4-50.3 49.2-50.3 49.2l-26.2-2.4-4.2-31.5z"/><path d="M445.8 735.5c-1.8-2.8 18.1-24.8 22.7-23 4.5 1.8 31.4 31.7 33.2 35.6 1.8 3.9-23.4 25.4-27.2 22-3.9-3.5-26.9-31.8-28.7-34.6z" style="fill:#ff7300;stroke:#000;stroke-width:3.1415"/><circle class="st15" cx="474.4" cy="731.3" r="3.1"/><circle class="st15" cx="483.2" cy="740" r="3.1"/><circle class="st15" cx="491.2" cy="749.4" r="3.1"/><circle class="st15" cx="460.2" cy="731" r="3.1"/><circle class="st15" cx="466.8" cy="741.5" r="3.1"/><circle class="st15" cx="474.4" cy="750.5" r="3.1"/><circle class="st15" cx="481.7" cy="758.2" r="3.1"/><path class="st2" d="M446.1 820c23.8 18.8 19.6 32.5 26.9 29.6 11.2-4.2-23-66-23-66l-12.9-5.6-12.6 8.7.3 11.5c.1.1 5 7.8 21.3 21.8z"/><path class="st16" d="M467.6 846.5c1.6 2.9 2.7 4.2 5.4 3.1 2.3-.8 2.7-4.3 1.8-9.1-5.9-5-7.2 6-7.2 6z"/><path class="st15" d="M446.1 820c23.8 18.8 19.6 32.5 26.9 29.6 11.2-4.2-23-66-23-66l-12.9-5.6-12.6 8.7.3 11.5c.1.1 5 7.8 21.3 21.8z"/><path class="st4" d="M422.8 755.7s-25.9 19.6-25.1 23c.7 3.5 50.3 45.8 50.3 45.8s3.9-2.8-19.9-27.5l17.5-17.5-22.8-23.8z"/><path class="st15" d="m428 797-25.8-24.1"/><path class="st0" d="M429.4 748.8s-10.2 2.8-8.7 8.1c1.5 5.2 22.3 26.5 26.5 29.6 4.2 3.1 13.9-6.6 13.9-6.6L443 759.3l-13.6-10.5z"/><path class="st0" d="M433.3 751.9s-2.1 8.4 7.6 17.1 19.9 8.1 19.9 8.1l8.4-7.6-23.8-25.1-10.2 2.4-1.9 5.1z"/><circle class="st4" cx="434.5" cy="746.8" r="7.1"/><circle class="st4" cx="434.3" cy="746.3" r="2.4"/><circle class="st4" cx="464.4" cy="778.4" r="7.1"/><circle class="st4" cx="463.9" cy="778.4" r="2.4"/><path class="st0" d="M449.7 786.5c2.4-1.4 28-1.8 29.3 0 1.4 1.8 2.1 8.4-.7 10.2s-26.9 1.8-28.6 1c-1.8-.7-2.5-9.9 0-11.2z"/><path class="st4" d="M437.1 741c1.4 2.4 28 33.5 30.1 35.3s8.7-3.9 7.3-6.3-26.5-32.5-28.6-34.6-10.2 3.2-8.8 5.6z"/><circle class="st15" cx="467.8" cy="722.2" r="3.1"/><path class="st11" d="M643 752.6s53.4 9.4 52 15.4-7.6 10.8-7.6 10.8l-29.6-8.7-16.4-10.2 1.6-7.3z"/><path class="st11" d="M644.1 757.5s45.8 16 46.4 22c.7 6-14.3 14.3-14.3 14.3l-35.6-20.2-9.1-13.6 12.6-2.5z"/><path class="st2" d="M636.7 762.7s47.1 26.5 45.3 34.2c-1 4.2-15.7 4.2-18.8 3.5s-9.1-8.1-9.1-8.1h-13.6l-29-.3-1-20.2 7.3-14.7 16-1 2.9 6.6z"/><path class="st16" d="M675.8 788.4c4.2 3.6 6.8 6.7 6.4 8.6-.5 2.1-4.5 3.1-8.7 3.6 0-.1-6.4-7.8 2.3-12.2z"/><path class="st7" d="M636.7 762.7s47.1 26.5 45.3 34.2c-1 4.2-15.7 4.2-18.8 3.5s-9.1-8.1-9.1-8.1h-13.6l-29-.3-1-20.2 7.3-14.7 16-1 2.9 6.6z"/><path class="st5" d="M584.1 758.2s-.7 35.9 5.2 38.4c6 2.4 71.2 1 71.2 1s-4.2-7-7.3-9.1-28.3 0-28.3 0c-12.3-7.6-4.2-31.7-4.2-31.7L603.6 746l-19.5 12.2z"/><path class="st7" d="m624.9 788.6-37.7-.2"/><path class="st17" d="M570.4 574.5c8.4-1 25.1.3 35.3 10.2 16 13.9 15.7 76.8 15.7 76.8l1.4 55.8-45 .3s-5.6-61.1-8.4-74.3-11.8-50.6-11.8-50.6 4.5-17.1 12.8-18.2z"/><path d="M577.6 717.2c-3.2-.4-7.5-29.7-3.2-32.1 4.2-2.4 44.5-4 48.6-2.8 4.1 1.2 4.7 34.2-.4 35-5.4.6-41.8.4-45-.1z" style="fill:#ff7300;stroke:#000;stroke-width:3.1415;stroke-linecap:round;stroke-linejoin:round"/><path class="st11" d="m581.6 736.8 2.1 15.4 48.2-1.7-10.9-20.6-4.8-8-29.3 1.3-4.2 3.2z"/><circle class="st7" cx="582.3" cy="693.6" r="3.1"/><circle class="st7" cx="583.3" cy="707.9" r="3.1"/><circle class="st7" cx="595.9" cy="707.9" r="3.1"/><circle class="st5" cx="582" cy="734.8" r="7.1"/><circle class="st7" cx="581.1" cy="734.6" r="2.6"/><circle class="st5" cx="620" cy="733.1" r="7.1"/><circle class="st7" cx="619.4" cy="733.2" r="2.3"/><path class="st11" d="M584.1 758.2c-1-1-1.8-4.9-.3-6 1.4-1 41.6-1.8 41.6-1.8s5.6 9.1.3 7.3c-5.3-1.6-40.6 1.6-41.6.5z"/><path class="st11" d="M650 751.2c0 6.9-5.7 12.6-12.6 12.6h-1.8c-6.9 0-12.6-5.7-12.6-12.6v-1.8c0-6.9 5.7-12.6 12.6-12.6h1.8c6.9 0 12.6 5.7 12.6 12.6v1.8z"/><path class="st11" d="M633 750.9c-.7-2.4-3.9-16.4-1.4-19.6 2.4-3.1 17.5.3 17.8 4.5s-8.1 16-10.5 16.8c-2.5.7-5.3.7-5.9-1.7z"/><path class="st5" d="M577.4 727.8c2.8.4 43.6-.6 46.3-1.2s2.5-9.2-.3-9.6c-2.8-.4-41.9.2-44.8.4-3 .5-4.1 10-1.2 10.4z"/><path class="st5" d="M551.6 642s40.5 57.3 49.2 66.7 25.9 20.2 41.6 7.6c15.7-12.6 7.6-31.4-.3-41.2-8.1-9.7-77.8-79.3-77.8-79.3L551.6 642z"/><path d="m556.8 629.4 61.5 70.8 10.8-10.1-68.8-75z"/><path class="st7" d="M553.7 636c10.2 9.4 55.8 71.2 55.8 71.2"/><path class="st15" d="M561.7 606.7c22 27.2 75.1 76.8 75.1 76.8"/><path class="st1" d="M630.5 662.8c-4.2-4.4-9.2-9.5-14.7-15l-37.7 31.1c4.1 5.6 8.1 11.1 11.6 15.8l40.8-31.9z"/><path class="st10" d="m586.7 677.7 5.7 7.5M595 671.9l5.5 6.7M603.9 664.3l6.1 7.3M611.6 657.8l6.3 7.2"/><path class="st6" d="M600.8 708.6c8.7 9.4 25.9 20.2 41.6 7.6 15.7-12.6 7.6-31.4-.3-41.2l-41.3 33.6z"/><path class="st10" d="m612.6 707.9 7.4 8.7M621.4 702.3l6.3 8.4M629.8 695.7l6.9 8.7M637.5 688.7l6.6 8.8"/><path class="st5" d="M359.6 559.6s-50 123.9-55.8 143.1c-6 19.2-6.3 45.3 21.7 52.4s38.4-19.2 38-37.4c-1.4-40.1 8.4-85.9 8.4-85.9l-12.3-72.2z"/><path d="M360.7 596.5 326.1 710l8.7 2.4 29.7-101.5z"/><path class="st7" d="M361 584.4c-9.4 12.6-46.4 123.9-46.4 123.9M366.6 623.4c-9.4 24.1-17.8 93.9-17.8 93.9"/><path class="st6" d="M303.7 702.7c-6 19.2-6.3 45.3 21.7 52.4s38.4-19.2 38-37.4l-59.7-15z"/><path class="st10" d="m335.6 719.8-3.2 21.2M347.4 721.9l-3.5 20.2M319.8 716.6l-.4 21.7M309.7 713.2v20.9"/><path class="st6" d="M316.4 668.5c-2.4 6.2-4.6 11.9-6.5 16.9l53.5 16.2c.2-6.9.6-13.7 1.3-20.3l-48.3-12.8z"/><path class="st10" d="m323 676.1-3 10.7M330.6 678.6l-2.8 10.8M349.8 684.5l-2.4 11.2M357.1 686.3l-2.4 11.5"/><path class="st5" d="M302.7 325.7c-9.7 9.7 6.3 37.4 15 34.6 8.7-2.8 85.9-46.1 85.9-46.1l-6.6-12.9-70.2 10.5c0-.1-16.9 6.7-24.1 13.9z"/><path class="st6" d="M319.4 315c-5.4 2.6-12.7 6.6-16.7 10.7-9.7 9.7 6.3 37.4 15 34.6 2.2-.7 8.5-3.9 16.9-8.3l-15.2-37zM343.6 347.2c3.7-2 7.5-4.1 11.4-6.2l-5.2-32.7-15 2.2 8.8 36.7z"/><path class="st10" d="m306.5 336.5 11.9-4.2M313.1 349.8l9.9-3.1M340.1 325.8l7.3-1.5M342.2 336l6.8-1.8"/><path class="st5" d="M393.2 293.9s-86.2-4.9-93.2-1-8.4 32.8 3.5 32.8 90.8-21.3 90.8-21.3l-1.1-10.5z"/><path class="st6" d="M336 319.3c4.8-1.2 9.7-2.3 14.7-3.6l-5.2-23.9c-4.6-.1-9.2-.2-13.6-.3l4.1 27.8zM319.1 291.4c-9.9 0-17.4.4-19.2 1.5-7 3.9-8.4 32.8 3.5 32.8 2.9 0 10.2-1.4 19.2-3.4l-3.5-30.9z"/><path class="st10" d="M299.5 301.2h11.6M302.4 313.8l11.5-.3M335.9 310.1l7.8-1"/><path class="st11" d="M465.4 304.8c0 6.9-5.2 16-12.3 16l-54.1-3.5c-6.9 0-12.6-5.7-12.6-12.6v-4.5c0-6.9 5.7-12.6 12.6-12.6h53.7c6.9 0 12.6 5.7 12.6 12.6v4.5h.1z"/><path class="st7" d="M423.5 293.6s-32.1-6.3-31.7 8.4c.3 14.7 31.7 7.6 31.7 7.6v-16z"/><path class="st7" d="M400.1 301.6c-.3-5.6 23-3.5 23-3.5l-.7 7.3c.1 0-21.9 1.8-22.3-3.8zM435 293.6s24.4-1.8 23.8 8.7c-.7 10.5-24.4 9.4-24.4 9.4l.6-18.1z"/><path class="st7" d="M433.3 297.8s19.9-.3 19.9 4.5c0 4.9-20.6 4.2-20.6 4.2l.7-8.7z"/><path class="st11" d="M429.2 314.8c.1 2.4-1.8 4.4-4.2 4.5h0c-2.4.1-4.4-1.8-4.5-4.2l-.9-25.9c-.1-2.4 1.8-4.4 4.2-4.5h0c2.4-.1 4.4 1.8 4.5 4.2l.9 25.9z"/><path class="st11" d="M437.6 314.8c.1 2.4-1.8 4.4-4.2 4.5h0c-2.4.1-4.4-1.8-4.5-4.2l-.9-25.9c-.1-2.4 1.8-4.4 4.2-4.5h0c2.4-.1 4.4 1.8 4.5 4.2l.9 25.9zM474.4 325s7 13.9 17.8 15.7c-.3 9.7-13.6 18.8-13.6 18.8l-32.5 7.3-10.8-23 11.5-17.5 12.9-6.3 14.7 5z"/><path class="st7" d="m473.4 335.8 11.5 12.5M468.5 338.6l7.4 13.9M464.7 338.9l2.1 17.5M459.1 340l.3 18.5M453.9 340.4l-4.9 17.8"/><path class="st11" d="M455.2 314.2s-1.8-13.6 0-18.5 15-4.2 17.1 1c2.1 5.2-1 19.9-1 19.9l-16.1-2.4z"/><path class="st11" d="M459.8 316.6s-.7-19.2 3.9-18.1c4.6 1 2.1 19.6 2.1 19.6l-6-1.5z"/><path class="st0" d="M474.8 314.5c.7 2.8 1 7.6-.3 10.5-1.4 2.8-22 3.1-24.8 1.4-2.8-1.8-3.1-11.2-1.4-12.9 1.7-1.8 25.8-1.8 26.5 1z"/><path class="st9" d="M442.4 348.3s3.1 10.8 20.6 9.7c15 6.3 18.1 28.6 18.1 28.6l.7 21.7-32.8 12.3-32.5-8.4-11.8-25.1 1-25.9 12.9-9 23.8-3.9z"/><path class="st9" d="m469.2 354 32.9-22.4 15.7 30.8L488 391l-10.8-3.5-9.1-28.3.8-4.6M497.1 708.3s-53.7 3.9-93.9-27.5-45-75.4-45-111.3v-75.7l44-13.9 83-7.3 23 7 81.4 47.1-13.3 39.8-64.5-31.9-7.6 41.2 28.3 4.5s28.6-5.6 38-5.6c0 0-2.1 48.2-23 81.7-21 33.3-50.4 51.9-50.4 51.9z"/><path class="st0" d="m497.1 708.3-16-.2s48.5-44.5 56.9-60.5c8.4-16 16-71.1 16-71.1 6.5-1 12.8-1.8 16.4-1.8 0 0-2.1 48.2-23 81.7-20.9 33.4-50.3 51.9-50.3 51.9z"/><path class="st6" d="M470.2 400.7s-12.9-12.9 2.1-16c4.5-1.8-9.7-25.9-13.9-29s11.8-9.4 11.5-3.5c0 6.6 19.9 39.8 19.9 39.8l-19.6 8.7z"/><circle class="st4" cx="490.9" cy="333.1" r="6.3"/><circle class="st4" cx="509" cy="366.6" r="6.3"/><path class="st9" d="M583 249.3s2.4 34.2 2.1 45.3c-.3 11.2-22.7 33.2-25.1 57.9-2.4 24.8 21.3 55.5 21.7 63.1.3 7.6-1.4 17.8-3.9 18.1-2.4.3-13.6-2.8-20.9 10.8-.7 1.4-13.6 0-13.3 5.6.7 2.4 12.6-2.1 15 1 2.4 3.1-2.4 8.1.7 8.4 3.1.3 8.7-3.1 8.4-5.6 19.9 2.1 26.2-14.3 26.2-14.3s6.3-19.2 4.5-30.7c-1.8-11.5-18.1-45.8-18.1-53.7 0-8.1 26.2-42.9 30.1-54.8s1.8-39.1 1.8-39.1l-21.4-20.2-7.8 8.2z"/><path class="st11" d="M604.3 298.8c-4.2 17.1-26.5 33.5-29.3 51.6-2.6 21.2 13 41 17.1 58.3 3.6 14.9-4.9 26.2-4.2 28.6s6 2.4 6 2.4 6.3-19.2 4.5-30.7c-1.8-11.5-18.1-45.8-18.1-53.7 0-8.1 26.2-42.9 30.1-54.8 3.9-11.8 1.8-39.1 1.8-39.1l-6.8-6.5c-.2.1 3.1 26.8-1.1 43.9z"/><path class="st15" d="M302.4 313.8h-.4"/><path class="st10" d="m334.8 299.1 6.6-.5"/><path class="st6" d="M565.2 446.1s7 3.9 12.6-1.4c-8.4-7.3-12.6 1.4-12.6 1.4z"/><circle class="st15" cx="592.1" cy="563.7" r="2.8"/><path class="st0" d="M409.5 634.2s-25.4 39.1-22.3 40.8c3.1 1.8 11.2-10.5 12.6-8.7s-5.2 13.6-2.8 15c2.4 1.4 8.4-10.8 10.2-9.1 1.8 1.8-3.9 13.6-1.4 15.7s7.3-12.6 9.7-11.5-1.4 15 2.1 17.1 19.9-42.2 19.9-42.2l-28-17.1zM489.5 638.1s23.8 40.8 26.5 39.5c2.8-1.4-1.4-11.2.3-12.6 1.8-1.4 8.1 5.6 10.2 4.5s-3.9-10.5-1.8-12.6 8.7 5.6 11.2 3.9c2.4-1.8-6.3-8.4-4.2-10.5s8.7 3.5 10.8 1.4c2.1-2.1-36.3-39.8-36.3-39.8l-16.7 26.2z"/><path class="st4" d="M444.5 541.8c-19.9.7-59-18.1-59-18.1s10.2 34.2-23.8 47.4c30.1 22.7 12.9 60 12.9 60s40.8-7 73 42.2c15.4-37.7 60.7-32.5 60.7-32.5s-6.3-46.1 24.1-60.7c-21.7-23.8-14.3-58.6-14.3-58.6s-28 18.8-43.2 20.9c-15.5 2.2-10.5-1.4-30.4-.6z"/><path class="st15" d="M440.6 549.4c-12.3 1-41.9-10.5-41.9-10.5s-1.8 22-20.9 33.5c17.1 12.6 12.6 50.3 12.6 50.3s34.9 3.1 56.2 32.1c29.6-28.3 52.7-23.8 52.7-23.8s-3.9-31.4 21.7-52.7c-16-19.6-12.9-41.6-12.9-41.6s-24.5 12.3-43 13.3c-18.5 1.2-12.3-1.6-24.5-.6z"/><path class="st15" d="M435 568.7c-7 3.1-14.7 17.1-1.4 26.5 13.3 9.4 24.8-15 31.4-9.4s-8.5 22.3-22.8 22.3-26-11.6-26-26c0-14.3 11.6-26 26-26 4.7 0-.2 9.4-7.2 12.6z"/><path class="st0" d="M417.9 511.4s26.2 25.9 40.1 25.4c13.9-.3 34.6-56.5 34.6-56.5l10.2 5.2s-21.3 62.1-43.7 62.8c-22.3.7-43.7-29-43.7-29l2.5-7.9z"/><path class="st0" d="M434.6 529.9h13.6v42.9h-13.6z"/><path class="st0" d="M446.1 529.9H460v42.9h-13.9z"/><path class="st0" d="M457 529.9h13.6v42.9H457z"/><path class="st0" d="M467.1 529.9h11.8v42.9h-11.8z"/><path class="st8" d="M184 571.4c33.8-19.9 86.9-53.7 86.9-53.7l59.7 52s-34.9 69.8-61.8 82.4c29.6-43.7 47.1-91.8 47.1-91.8s-54.5 67.8-77.8 73c33.8-40.1 62.1-85.9 62.1-85.9s-59.7 61.8-83.5 69.4c28.3-32.5 72.6-79.9 72.6-79.9s-74.3 50.3-97.1 53.7c42.6-30.7 85.6-62.8 85.6-62.8s-77.7 45.1-93.8 43.6z"/><path class="st2" d="m265.7 513.5 38-5.2 34.6 29.6-4.2 38.7s-57.9-44-68.4-63.1z"/><path class="st12" d="m280.6 511.4 23.1-3.2 34.6 29.7-2.6 24.4z"/><path class="st7" d="m265.7 513.5 38-5.2 34.6 29.6-4.2 38.7s-57.9-44-68.4-63.1z"/><path class="st13" d="M288 501.6c-1.4-1.8 28.6-5.2 34.6-10.2s36.7 18.1 31.1 22.3c-5.6 4.2-4.2 39.8-6.6 38-2.5-1.6-57.6-48.4-59.1-50.1z"/><path class="st11" d="M309 485.5c-2.8-2.8 28.6-4.2 32.5-9.4s29.6 13.3 23.8 16.8c-6 3.5 0 33.8-3.9 32.8-4-1.1-49.6-37.3-52.4-40.2z"/><ellipse class="st13" cx="371.8" cy="466" rx="39.1" ry="35.9"/><path class="st8" d="M411.8 457.5c0 14.5-18.8 27.8-35.4 27.8s-30.1-11.7-30.1-26.2 14.3-29.3 30.9-29.3c16.6-.1 34.6 13.2 34.6 27.7z"/><path class="st5" d="M492.9 466.4s28.3 3.7 33.8-5c-16.8-16.8-42.1-15.2-42.1-15.2l-6.8 11.6 15.1 8.6z"/><path class="st5" d="M482.4 479.8s22.9 16.9 32 12c-6.5-22.7-29.4-33.7-29.4-33.7l-11.5 6.9 8.9 14.8z"/><path class="st5" d="M467.6 493.8s15.8 23.7 26.1 22.2c1.6-23.6-16.2-41.7-16.2-41.7l-13.2 2.6 3.3 16.9z"/><path class="st5" d="M449.1 499.9s4.9 28.1 14.8 30.9c11-20.9 2-44.7 2-44.7l-13.1-3-3.7 16.8z"/><path class="st5" d="M428.8 500.3s1.5 28.5 10.9 32.5c13.5-19.4 7.4-44.1 7.4-44.1l-12.7-4.6-5.6 16.2z"/><path class="st5" d="M414 493.6s-8.3 27.2-.7 34.2c19.3-13.7 22-39 22-39l-10.4-8.6-10.9 13.4z"/><path class="st5" d="M398.7 484.5s-16.8 23-11.8 32.1c22.7-6.6 33.5-29.6 33.5-29.6l-7-11.5-14.7 9z"/><path class="st11" d="M408.9 480.3s19.2 24.4 51.3 18.5c25.4-5.6 32.8-31.7 30.4-42.6-2.4-10.8-15.7-20.9-15.7-20.9l-23-9.1-36.3 10.2-6.7 43.9z"/><path class="st6" d="M428 467.1c1 24.1 32.8 19.2 44.7 7 11.8-12.3 2.8-40.5 2.8-40.5L443.4 415l-20.6 3.5-1.8 41.6s6-17.1 7 7z"/><path class="st5" d="M367 472.6c-2.8 12.3 35.6 35.9 54.5-3.9-1.4 8.7 6 15 14.7 11.8s11.2-23-9.1-34.2c-20.2-11.2-13.9-5.6-13.9-5.6s-9.7 26.5-17.8 32.1c-5.2 3.7-19.7 3.7-28.4-.2z"/><path class="st7" d="M388.5 478.9c20.2 1.4 23-26.9 23-26.9M432.2 476.1c8.4-8.4-6.3-24.1-6.3-24.1"/><path class="st5" d="M417.9 354.3c-3.5 2.4-21.7-5.6-21.7-5.6l-8.2-25.1s9.9-9.1 18.3-7c8.4 2.1 15.4 25.1 15.4 25.1s-.3 10.2-3.8 12.6z"/><path class="st5" d="M421.4 322.6s-5.6-11.5-10.8-9.4c-5.2 2.1 2.8 16.8 2.8 16.8l8-7.4zM487.5 416.9s1.6 5.2 4.2 5.6c2.6.3 15-5 16.2-6.6s-1.4-8.2-1.4-8.2l-19 9.2z"/><path class="st7" d="m496.1 410.1 4 9.5"/><path class="st5" d="M402.2 406.4s-23 44.7-16.4 49.5c6.6 4.9 28.3-31.7 28.3-31.7l-11.9-17.8z"/><path class="st5" d="M400.1 392.3s-45.3 65.2-34.6 71.5c10.8 6.3 40.1-55.5 40.1-55.5l-5.5-16z"/><path class="st5" d="M382.3 393.4s-47.9 62.8-33.5 69.1C363.1 468.8 397 400 397 400l1-14.7-15.7 8.1z"/><path class="st5" d="M356.1 413.7s-32.1 27.5-21.3 37.7c10.8 10.2 48.2-42.9 48.2-42.9l13.6-16-10.2-8.4-30.3 29.6z"/><path class="st11" d="M383.6 366.4s-46.9 38.5-47.2 42.4c-.4 3.9 19.5 5.8 19.5 5.8l38.5-40.7-.6-9.4-10.2 1.9z"/><path class="st11" d="M397.3 365.1s-46.8 46.8-46.4 49.5c.3 2.8 10.5 8.4 13.6 6.6s31.4-36.3 31.4-36.3l1.4-19.8z"/><path class="st11" d="M379.5 354.3s-5.6 1-6.6 6c-1 4.9 4.5 9.7 18.1 9.1 13.6-.7 15.7-5.6 16.4-9.4.7-3.9-9.4-7.6-9.4-7.6l-18.5 1.9z"/><path class="st11" d="M377.4 345.9s-5.6 1-6.6 6 4.5 9.7 18.1 9.1c13.6-.7 15.7-5.6 16.4-9.4.7-3.9-9.4-7.6-9.4-7.6l-18.5 1.9z"/><circle class="st11" cx="388" cy="338.8" r="15.2"/><path class="st6" d="M405.7 414.3s-20.6-16-13.3-44c7.3-28 22.3-26.9 22.3-26.9l11.2 10.5s-12.9 7-16 20.2 11.5 26.9 11.5 26.9l-15.7 13.3z"/><path class="st11" d="M501.1 425.3s6.1-7.1 12.9-8.7c6.8-1.6 14.7-1 17.8.5-9.9 1.4-12.6 7.6-16.8 8.9s-13.9-.7-13.9-.7z"/><path class="st11" d="M435.4 403s22.7 5.4 28.3.5c8.4-9.1 13.3-7.6 18.8-9.7 11.8-4.5 44.5-26.4 44.5-26.4s1.6 21.5-2.6 24.6c-4.2 3.1-43.7 10.5-38.7 12 4.9 1.6 38.4-8.2 41.4-3.7 2.9 4.5-46.6 13.7-41.9 23.6 2.6 5.4 31.7-9.4 42.7 5.8 2.6 6.5-12.6-1.4-24.9 0-12.4 1.4-16.2 5.2-27.2 6.8-11 1.6-44.5-11.5-44.5-11.5l4.1-22zM407.5 425.6S391 445.5 396.7 449c5.8 3.5 11.4-5.1 11.4-5.1s-3.7 9.1 2.6 11.5c6 2.2 13-22.7 13-22.7l-16.2-7.1z"/><path class="st11" d="M416.8 430s1.4 25.9 8.1 24.4c6.6-1.4 4.9-11.5 4.9-11.5s3.6 9.2 9.7 6.6c6-2.4-6-25.4-6-25.4l-16.7 5.9z"/><circle class="st13" cx="420.7" cy="414.3" r="18.8"/><circle class="st5" cx="420.5" cy="413.8" r="6.8"/><circle class="st13" cx="431.9" cy="334.7" r="20.2"/><path class="st11" d="M422.5 327.1s-3.9 12.3 6 17.5c5.1-13.3-6-17.5-6-17.5zM435.7 322.9s-3.9 12.3 6 17.5c5.2-13.3-6-17.5-6-17.5z"/><circle class="st5" cx="562.6" cy="556.2" r="8.2"/><circle class="st5" cx="575.4" cy="519.8" r="8.2"/><path class="st5" d="M646.6 622.4s-11.8 34.6-9.1 36.3c2.8 1.8 19.6 4.2 21.3 4.2 1.8 0 0-41.2 0-41.2l-12.2.7z"/><path class="st7" d="m659.8 653.1-21.3-4.8"/><path class="st5" d="M680.1 600.4s40.1-1.4 40.8 0c.3 3.1-8.7 23-10.8 23.4S684.2 612 684.2 612l-8.2-5.2 4.1-6.4z"/><path class="st7" d="m705.2 599.4-7 18.8"/><path class="st5" d="M668.6 662.9s-2.8 14.7-.7 15.4 24.8-4.5 25.9-5.6-10.5-17.5-10.5-17.5l-14.7 7.7zM696.8 646.2s7 19.2 9.4 19.2 20.2-21.3 19.2-22.7c-1-1.4-17.1-4.5-17.1-4.5l-11.5 8z"/><path class="st5" d="M667.1 646.5s-2.1 19.6.3 20.2c2.4.7 43.2-27.2 44.7-29.3S694 626.9 694 626.9l-26.9 19.6zM633.3 562.4s-8.4 28.6 14.7 52.4c12.3 2.1 21.3-11.2 24.1-17.5-12.9-7.3-22.3-25.4-22.3-25.4l-16.5-9.5z"/><path class="st7" d="M659.1 606.4c-17.1-14.7-16.8-38.7-16.8-38.7"/><circle class="st5" cx="676" cy="629.2" r="22.5"/><circle class="st7" cx="674.6" cy="629.2" r="15.5"/><circle class="st7" cx="673.4" cy="629" r="4.9"/><path class="st5" d="M657 605.3c-7 4.5-14.3 7.2-15.4 9.7-2.1 4.9 3.1 14.3 11.5 11.5s22.7-12.9 26.9-16c4.2-3.1-.7-17.1-7.3-16-3.2.5-9.3 6.6-15.7 10.8zM637.8 531.3s20.9-37.4 38-25.4c17.1 11.8-8.4 37-8.4 37l-26.9 8.4-2.7-20z"/><path class="st7" d="M644.8 535.5s13.6-29 24.8-22.7c11.2 6.3-8.1 27.2-8.1 27.2l-16.7-4.5z"/><path class="st7" d="M651.6 534.9s10.5-15.7 12.6-14.7-6.8 17-6.8 17l-5.8-2.3z"/><path class="st11" d="M611.3 535.5c24.8-8.4 28.3-32.8 28.3-32.8s13.3 9.7-1.8 28.6c11.2 2.8 14.7 6.3 14.7 6.3l-10.2 25.1s-11.8 6-22 5.6c-10.2-.3-16.8-8.4-16.8-8.4s-17-16 7.8-24.4z"/><path class="st5" d="M568.3 564.5c.3-3.1 13.3-43.7 14.7-45s6.6.7 7.3 2.8c.7 2.1-12.6 42.2-13.9 44-1.5 1.6-8.4 1.3-8.1-1.8z"/><path class="st6" d="M596.9 525s18.5 5.2 18.1 9.4c-.3 4.2-8.4 34.6-11.5 36.7-3.1 2.1-19.9-2.4-21.3-4.2-1.4-1.8 8.1-35.3 8.1-35.3l6.6-6.6z"/><circle class="st7" cx="600.8" cy="532.3" r="2.8"/><circle class="st7" cx="606.4" cy="542.5" r="2.8"/><circle class="st7" cx="597.4" cy="544.2" r="2.8"/><circle class="st7" cx="602.2" cy="553" r="2.8"/><circle class="st7" cx="594.2" cy="554.6" r="2.8"/><circle class="st7" cx="599.8" cy="563" r="2.8"/><path class="st11" d="M590.3 522.2c1.4-1.8 6.6.3 6.6 2.8 0 2.4-11.5 41.6-13.3 43.2-1.8 1.8-6.6.3-7.3-2.1-.6-2.4 12.7-42.1 14-43.9zM675.9 544.9c-1.8-4.2-28.6-16.3-31.4-11.8-2.4 3.9 13.3 13.9 13.3 13.9s-13.9-13.4-18.8-7.3c-4.2 5.2 12.3 15 12.3 15s-15-11.8-18.1-8.1c-3.1 3.9 13.3 13.9 13.3 13.9s-14.3-10.2-16.8-4.2 13.9 15.7 19.9 17.1c5.7 1.6 28-24.3 26.3-28.5z"/><path class="st6" d="M440.3 375.6s11.2-9.7 27.2-6c0 0-4.9 8.4-10.8 9.1-6 .7-16.4-3.1-16.4-3.1z"/><path class="st15" d="M449.5 370.5c2.3-.8 5-1.5 8.1-1.7 0 0 2.6 4-1.6 5.3-4.2 1.5-6.5-3.6-6.5-3.6z"/><path class="st11" d="M438.2 361.6s-13.9 1.4-16 15.4c-2.2 13.9 14.2 10.8 14.2 10.8s-7-5.2-5.6-12.6c1.5-7.3 7.4-13.6 7.4-13.6z"/><circle class="st11" cx="450.5" cy="392.5" r="6.1"/><path class="st2" d="M535.9 318.7s17.1-16.4 45.8-21.7c8.1-.7-6 16-18.8 17.1 8.7 1.8 13.6-3.5 26.9-1 1.4 4.9-17.8 11.2-17.8 11.2s-6.3 10.8-10.2 12.3c-3.9 1.4-18.8-.3-18.8-.3l-7.1-17.6z"/><path class="st16" d="M574.3 298.7c2.3-.6 4.7-1.2 7.2-1.6 3.8-.3-.7 7-.7 7-8.8 1.3-6.5-5.4-6.5-5.4z"/><path class="st7" d="M535.9 318.7s17.1-16.4 45.8-21.7c8.1-.7-6 16-18.8 17.1 8.7 1.8 13.6-3.5 26.9-1 1.4 4.9-17.8 11.2-17.8 11.2s-6.3 10.8-10.2 12.3c-3.9 1.4-18.8-.3-18.8-.3l-7.1-17.6z"/><path class="st11" d="M582.3 346.7c-4.2-2.1-16.8-22-13.9-23.4s16.4 12.3 16.4 12.3-14.3-15.1-12.3-17.6c2.1-2.4 17.8 11.5 17.8 11.5s-15.7-13.6-13.3-16 17.8 9.4 17.8 9.4-15-12.6-11.8-15 20.9 9.4 22 13.6c1 4.2-18.5 27.3-22.7 25.2z"/><path class="st17" d="M579.6 247.2s2.1 18.5-7.6 29c13.9 0 16.8-14.7 16.8-14.7s3.1 10.8 10.8 14.3c2.4-11.5-1-18.8-1-18.8s7.3 9.4 19.9 6.3c-12.3-6.6-23-22.3-23-22.3l-15.9 6.2z"/><circle class="st13" cx="585.9" cy="237.6" r="14.9"/><path class="st11" d="M492.6 324.7c-.2 1.3 4.3 10.9 10.1 20.5s11.6 20.5 12.9 21.3c2.4 1.4 31.9-25.3 31.9-28.1 0-2.8-15.4-31.4-20.9-31.4s-33.7 15.2-34 17.7z"/><path class="st6" d="M502 318s17.3 29.7 18.5 30.5c2.4 1.4 24.4-15.7 23.6-17.9-4-9.7-13.7-23.7-17.6-23.7-3.5 0-22.8 10-24.5 11.1z"/><circle class="st15" cx="517.8" cy="333.1" r="2.8"/><circle class="st15" cx="527.5" cy="334.4" r="2.8"/><circle class="st15" cx="532.7" cy="325.3" r="2.8"/><circle class="st15" cx="527.2" cy="315.3" r="2.8"/><circle class="st15" cx="511.8" cy="322.2" r="2.8"/><circle class="st15" cx="522" cy="321.5" r="2.8"/><path class="st7" d="M390.6 509.6c12.9-5.2 20.6-18.1 20.6-18.1M415.5 519.5c7.6-5.2 11.8-20.2 11.8-20.2M439.5 525.3c5.2-11.2 3.1-20.9 3.1-20.9M463.9 502.3s2.4 12.3-1.4 21.7M483.5 491.8s4.9 6.6 6.6 18.1M494.3 470.9c7 3.9 14.3 17.5 14.3 17.5M494.3 451.4c11.5 1.8 22 7.6 22 7.6"/><circle class="st15" cx="470.6" cy="458.7" r="2.8"/><circle class="st15" cx="457.3" cy="445.1" r="2.8"/><circle class="st15" cx="449.3" cy="439.4" r="2.8"/><circle class="st15" cx="467.1" cy="444.7" r="2.8"/><circle class="st15" cx="449" cy="452.7" r="2.8"/><circle class="st15" cx="447.2" cy="464.6" r="2.8"/><circle class="st15" cx="447.2" cy="477.1" r="2.8"/><circle class="st15" cx="461.2" cy="471.6" r="2.8"/><circle class="st15" cx="460.8" cy="458" r="2.8"/><circle class="st15" cx="470.2" cy="467.7" r="2.8"/></svg>