<svg version="1.1" id="Calque_1" xmlns="http://www.w3.org/2000/svg" x="0" y="0" viewBox="0 0 900 900" style="enable-background:new 0 0 900 900" xml:space="preserve"><style>.st0{fill:#fff}.st1{fill:red}.st2,.st3,.st4,.st5{fill:#fff;stroke:#000;stroke-width:4.8533;stroke-linecap:round;stroke-linejoin:round}.st3,.st4,.st5{fill:none}.st4,.st5{fill:#fbce14}.st5{fill:red}.st6{fill:#ff5b00}.st10,.st11,.st13,.st14,.st16,.st7,.st9{fill:none;stroke:#000;stroke-width:6.4711;stroke-linecap:round;stroke-linejoin:round}.st10,.st11,.st13,.st14,.st16,.st9{fill:#fdce12;stroke-width:4.8533}.st10,.st11,.st13,.st14,.st16{fill:#0068ff}.st11,.st13,.st14,.st16{fill:#ffce00}.st13,.st14,.st16{fill:#492b00}.st14,.st16{fill:#492b09}.st16{fill:#ff5b00}</style><circle class="st0" cx="99.6" cy="185.3" r="16.8"/><path class="st1" d="M112.1 174.1c6.2 6.9 5.7 17.5-1.2 23.8-6.9 6.2-17.5 5.7-23.8-1.2l25-22.6z"/><circle class="st2" cx="99.8" cy="185.6" r="6.8"/><circle class="st3" cx="99.6" cy="185.3" r="16.8"/><circle class="st0" cx="207" cy="182.7" r="16.8"/><path class="st1" d="M219.3 194.3c-6.4 6.8-17 7.1-23.8.7-6.8-6.4-7.1-17-.7-23.8l24.5 23.1z"/><circle class="st2" cx="206.8" cy="183" r="6.8"/><circle class="st3" cx="207" cy="182.7" r="16.8"/><circle class="st0" cx="91.8" cy="258.5" r="16.8"/><path class="st1" d="M81.4 245.3c7.3-5.8 17.9-4.6 23.6 2.7 5.8 7.3 4.6 17.9-2.7 23.6l-20.9-26.3z"/><circle class="st2" cx="92.1" cy="258.3" r="6.8"/><circle class="st3" cx="91.8" cy="258.5" r="16.8"/><circle class="st0" cx="146.8" cy="324.5" r="16.8"/><path class="st1" d="M137.8 310.3c7.8-5 18.2-2.7 23.2 5.1s2.7 18.2-5.1 23.2l-18.1-28.3z"/><circle class="st2" cx="147.1" cy="324.3" r="6.8"/><circle class="st3" cx="146.8" cy="324.5" r="16.8"/><circle class="st0" cx="225.8" cy="303.8" r="16.8"/><path class="st1" d="M225.1 320.6c-9.3-.4-16.5-8.2-16.2-17.5.4-9.3 8.2-16.5 17.5-16.2l-1.3 33.7z"/><circle class="st2" cx="225.5" cy="303.7" r="6.8"/><circle class="st3" cx="225.8" cy="303.8" r="16.8"/><circle class="st0" cx="175.3" cy="514.7" r="16.8"/><path class="st1" d="M181.2 499c8.7 3.3 13.1 13 9.8 21.7-3.3 8.7-13 13.1-21.7 9.8l11.9-31.5z"/><circle class="st2" cx="175.6" cy="514.8" r="6.8"/><circle class="st3" cx="175.3" cy="514.7" r="16.8"/><path class="st0" d="M236.2 612.2c-9.3-.7-16.2-8.8-15.4-18.1.7-9.3 8.8-16.2 18.1-15.4 9.3.7 16.2 8.8 15.4 18.1-.7 9.2-8.8 16.1-18.1 15.4z"/><path class="st1" d="M236.2 612.2c-9.3-.7-16.2-8.8-15.4-18.1.7-9.3 8.8-16.2 18.1-15.4l-2.7 33.5z"/><circle class="st2" cx="237.3" cy="595.4" r="6.8"/><path class="st3" d="M236.2 612.2c-9.3-.7-16.2-8.8-15.4-18.1.7-9.3 8.8-16.2 18.1-15.4 9.3.7 16.2 8.8 15.4 18.1-.7 9.2-8.8 16.1-18.1 15.4z"/><path class="st0" d="M110.2 641.4c8.3-4.1 18.4-.8 22.6 7.6 4.1 8.3.8 18.4-7.6 22.6-8.3 4.1-18.4.8-22.6-7.6-4.1-8.4-.7-18.5 7.6-22.6z"/><path class="st1" d="M110.2 641.4c8.3-4.1 18.4-.8 22.6 7.6 4.1 8.3.8 18.4-7.6 22.6l-15-30.2z"/><circle class="st2" cx="118" cy="656.3" r="6.8"/><path class="st3" d="M110.2 641.4c8.3-4.1 18.4-.8 22.6 7.6 4.1 8.3.8 18.4-7.6 22.6-8.3 4.1-18.4.8-22.6-7.6-4.1-8.4-.7-18.5 7.6-22.6z"/><circle class="st0" cx="172.1" cy="692.7" r="16.8"/><path class="st1" d="M155.2 692.8c-.1-9.3 7.4-16.9 16.7-17 9.3-.1 16.9 7.4 17 16.7l-33.7.3z"/><circle class="st2" cx="172.1" cy="692.3" r="6.8"/><circle class="st3" cx="172.1" cy="692.7" r="16.8"/><path class="st2" d="M298.3 207.3c-6.5-10.4 3.4-31.5 18.9-39.3 15.5-7.8 24.4 3.7 24.4 3.7s41.4-25.9 53.7-25.2c1.9 1.3-30.4 26.5-41.4 67.3-1.9 6.5 4.5 11 .6 13.6s-7.1-4.5-9.7-3.9c1.3 9.1-3.2 14.9-12.9 10.4-1.9 4.5 6.5 14.2 4.5 12.3-1-1-12.2 3.5-16.2 0s-.6-14.9-2.6-15.5c-3.8-1.4-12.9-13-19.3-23.4z"/><path class="st3" d="M341.6 171.7c8.4 7.8 1.3 27.8-10.4 30.4s-13.6-13.6-9.1-16.8c4.5-3.2 7.1 5.2 7.1 5.2"/><path class="st2" d="M271.7 230s-3.9-22 5.2-28.5c5.2-2.6 7.1 0 7.1 0s6.3-3.9 10.2 2.6c7.9-2.6 10.5 4.5 10.5 4.5s7.8-1.3 7.8 8.4c7.8 1.9 6.5 9.1 6.5 9.1s6.5 2.6 1.9 9.1c2.6 2.6 2.6 9.7-.6 11-3.2 1.3-18.1 1.1-18.1 1.1L271.7 230z"/><path class="st3" d="m284 201.5-2.1 9.2M294.2 204.1l-3.7 9.1M304.7 208.6l-5.8 7.2M312.5 217l-7.8 4.1M319 226.1l-9.1 1.9M320.9 235.2l-9.1.6"/><path class="st2" d="M250.4 279.8s-.6-37.5 12.9-49.8c13.6-12.3 29.1-11 37.5-1.9 8.4 9.1 4.5 29.8-7.8 38.8-12.2 9-42.6 12.9-42.6 12.9z"/><circle class="st3" cx="276.6" cy="249.1" r="15.9"/><circle class="st3" cx="276.6" cy="248.8" r="6.5"/><path class="st4" d="m470.4 677.1-1.3 68 45.9-2 1.3-36.2 36.3-2.1-.7-32.8 27.2-3.9 1.3 25.9h34.3l-.7 39.4 53.8-.6.6-37.5 33-2 .6-21.3 29.8-1.3 2.6 34.9 47.2-.6 3.9 34.9h38.2l1.3-64.7-10.4-14.9-316.4-3.9z"/><path class="st5" d="m470.4 677.1-1.1 56.3 33.4-2.5-.6-33.1 38.7-1.7.8-27.4 53-.6v18.1l30.4 1.3v33.6l30.5-1.2v-33.1l34.3-.6v-19.4l53.7 1.3v26.5l44.8-.6 6.9 34.3h28.7l1.1-53.1-10.4-14.9-316.4-3.9z"/><path class="st0" d="m399.2 656.4-2.6 97.1s48.2 0 61.2-39.5 9.4-74.4 9.4-74.4l1.9-16.8-38.8 7.1-31.1 26.5z"/><path class="st6" d="m399.2 656.4-2.2 82.2s35.2-1.3 49.4-33.7c16.8-34.9 6.9-79.3 6.9-79.3l-23.1 4.2-31 26.6z"/><path class="st3" d="m399.2 656.4-2.6 97.1s48.2 0 61.2-39.5 9.4-74.4 9.4-74.4l1.9-16.8-38.8 7.1-31.1 26.5z"/><circle class="st7" cx="430.4" cy="703.9" r="7.8"/><circle class="st7" cx="442.6" cy="673.3" r="7.8"/><path class="st7" d="M399.2 712.6s10.7 1 10 8.7c-.6 7.8-10.7 8.3-10.7 8.3"/><path class="st3" d="m406.3 741.2 2.6 10.4M415.4 738.6l3.9 9.1M424.4 735.4l5.2 10.3M432.9 731.5l5.1 7.1M440.6 723.1l7.8 5.5M447.7 713.4l7.2 4.5M452.3 703.7l6.6 2.6M454.9 692.7l6.6 1.3M457.4 681l6.5 1.3M460 672.8l6.5.6M461.3 663.2h6.5M461.3 655.1h9.1M248.1 714.8l4-6.4"/><path d="M159.8 268.8s-1.8 18.4-29.1 15.5c-24.6-2.6-48.5-44-36.9-68.6 13.5-28.5 53.1-46.6 80.2-39.5s40.1 27.8 42.1 56.3.2 146.3 1.9 160.5c2.6 20.7 41.4 18.1 41.4 18.1l66.7 9.1.6 87.4-51.7 20.1s-31.7 5.8-38.2 16.2-5.2 94.5-12.9 112.6c-7.8 18.1-35.6 31.1-62.8 28.5s-50.5-43.4-31.7-71.2c18.8-27.8 50.5-23.9 56.9-16.2 8.4 2.6 6.5-47.2 6.5-47.2l.6-33.6 18.1-40.8-28.5-4.5-9.1-20.7-8.4-72.5-1.9-106.8-3.8-2.7z" style="fill:#514300;stroke:#000;stroke-width:4.8533;stroke-linecap:round;stroke-linejoin:round"/><path class="st4" d="m238.1 474.6 43.3 40.1 27.9-35.6-48.6-23.9-16.2-2.6z"/><path class="st0" d="m467.1 522.5 172.8 1.3-14.9 75.7-154.6 1.9z"/><path class="st6" d="m469.1 569.1-2-46.6 172.8 1.3-9 45.9z"/><circle class="st7" cx="604.3" cy="546.3" r="9.1"/><circle class="st7" cx="567.5" cy="545.8" r="9.1"/><circle class="st7" cx="533.8" cy="545.8" r="9.1"/><path class="st3" d="m487 576.8 7.8 18.2M498.9 576.8l4.5 15.6M508.6 576.8l5.1 14.9M517.5 577.5 522 593M526.7 576.2l4.5 16.8M538.5 576.8l5.8 16.2M548 577.5l6.5 14.9M558.4 576.8l5.2 14.3M568.7 577.5l5.9 14.2M579.7 578.8l5.2 13.6M590.7 578.1l3.9 14.3M600.3 578.8l3.9 15.5M609.5 579.4l3.2 14.3M618.6 578.8l3.9 14.2M467.1 522.5l172.8 1.3-14.9 75.7-154.6 1.9z"/><circle class="st4" cx="238.7" cy="486.1" r="8.4"/><circle class="st4" cx="260.7" cy="452.6" r="8.4"/><path class="st4" d="M186.3 597.5c0 22 1.9 28.5-7.1 33.6-3.9 1.9-5.9-6.2-8.4-5.8-7.8 1.3-7.1 8.4-3.9 13.6s8.2 6.6 16.8 3.9c14.2-4.5 15.5-17.5 16.2-47.2.6-29.8-2.6-74.4 5.8-91.9s16.8-25.2 16.8-25.2l-14.9-1.9s-11 11.5-16.2 23.8c-5.1 12.2-5.1 75.1-5.1 97.1z"/><path class="st9" d="M159.1 385.3s-26-22.5-32.5-23.1c-6.5-.6-8.9 7-8.9 7l3.9 11.6 40.1 25.2-2.6-20.7z"/><path class="st2" d="M137.7 368.3c-4.7-3.3-9-5.9-11.1-6.1-6.5-.6-8.9 7-8.9 7l3.9 11.6 5.9 3.7 10.2-16.2z"/><path class="st9" d="M157.2 396.3s-47.2-34.9-51.1-36.2-9.1 5.2-4.5 11.6 56.9 39.5 56.9 39.5l-1.3-14.9z"/><path class="st2" d="M125.3 373c-9.4-6.7-17.7-12.5-19.2-13-3.9-1.3-9.1 5.2-4.5 11.6 1.5 2.1 7.9 6.9 16 12.6l7.7-11.2z"/><path class="st9" d="M140.4 242.9c-3.2-2.6 1.3-12.9 13.6-10.4s16.7 18 17.3 35.4c.4 10.2.4 66.7 3.2 111.5 2 32.2 5.3 58.9 5.3 58.9s.6 20.1 7.8 25.9c7.1 5.8 30.4 2.6 30.4 2.6l.6 12.9s-22.6 1.3-32.4-1.3-14.2-7.8-16.8-20.1c-10.4-58.2-9.7-172.1-9.7-189.6s-9-27.1-19.3-25.8z"/><path class="st10" d="M217.4 449.4c-3.2 3.2-5.8 31.1 3.2 33.6 9.1 2.6 22.6-6.5 28.5-18.1 5.8-11.6 8.4-24.6 0-30.4-8.4-5.8-21.4 3.2-21.4 3.2s-7.1 8.4-10.3 11.7z"/><path class="st3" d="M220 454.5s-1.3 16.8 6.5 16.2c7.8-.6 20.1-16.2 16.2-27.8-1.9-5.8-12.9-3.2-12.9-3.2"/><path class="st9" d="M225.8 459.1c3.9-1.9 8.4-12.9 3.9-19.4-4.5-6.5-26.5-28.5-31.7-36.2s-23.3-20.7-27.2-22.6c-3.9-1.9-12.3-3.2-11.6 4.5-2.6 6.5-7.1 33-1.9 39.5s22 18.1 51.1 21.4c5.1 3.1 17.4 12.8 17.4 12.8z"/><path class="st11" d="M229.7 439.7c-4.5-6.5-26.5-28.5-31.7-36.2s-16.8-19.4-27.2-22.6c-4.1-1.3-12.3-3.2-11.6 4.5 3.2 6.5 29.1 16.8 29.8 22 1.3 11 6.5 18.8 20.7 23.3"/><path class="st2" d="M178.6 384.6c-3.2-2.3-6.4-4-7.4-4.9-7.1-7.1-11.1 1.4-11.1 1.4l13.9 8.1 4.6-4.6z"/><path d="M335 654.7s-1.3 20.7 3.9 31.7 12.3 11.6 12.9 20.1c.6 8.4-3.7 8.3-13.4 8.3s-16.3-1.1-21.5-3.7-52.4-.6-52.4-.6l-31.1-7.8s12.3-14.2 24.6-16.8c12.3-2.6 17-4 24.1-13.1 7.1-9.1 5.8-24.6 5.8-24.6l39.3.2 7.8 6.3z" style="fill:#face15;stroke:#000;stroke-width:4.8533;stroke-linecap:round;stroke-linejoin:round"/><path class="st2" d="m264.4 710.3-31.1-7.8s-3.2 5.2-3.2 8.4 5.8 3.2 8.4 2.6c1.3 3.2 8.3 3.2 9.5 1.3 2.6 2.6 7.3 4.5 11.2 2.6 3.9-1.9 5.2-7.1 5.2-7.1z"/><path class="st3" d="m238.6 713.5 3.8-7.7"/><path class="st11" d="M570 251.3s49.2-2.6 55.7-10.4c11.6-16.2-1.9-25.2-11-25.2s-10.4 12.3-15.5 14.2-11.5-10.4-9.5-16.2c1.9-5.8 7.9-17.1 25.4-16.5 40.4 1 43.7 50.2 23 62.4-20.7 12.3-68.6 11-68.6 11l-20.7 1.9-3.2-17.5 24.4-3.7z"/><path class="st9" d="M567.3 328c7.8 7.8 3.4 48.9 3.4 48.9l45.3 14.2s12.3-55.7-.6-81.5c-16.2-32.4-41.4-33-41.4-33l-58.2.6-24.6 19.4 12.6 8c-.1.1 55.7 15.6 63.5 23.4z"/><path class="st3" d="M575.9 284.3s26.5 11.6 33 38.2c6.5 26.5 0 62.1 0 62.1M534.8 303.7s36.6 10 43.7 22.3c5.4 9.3 4.5 49.5 4.5 49.5M590.1 364.7l11.6 1.3M591.1 355.7l11 .8M592 347.1h11M591.6 338.1l11.1-1.7M589.5 330.3l10.8-4.2M586.4 323l9.5-5.8M582.2 317.3l7.7-7.1M577.5 313l6.5-8.4"/><path class="st11" d="M551.9 444.8s-6.5 36.2-6.5 48.5 0 20.7 6.5 25.2c7.1-2.6 12.3-13.6 13.6-25.9 1.3-12.3 3.9-47.9 3.9-47.9l-17.5.1h0z"/><path class="st11" d="M568.7 451.9s2.6 34.3 3.9 45.3c1.3 11 1.3 16.8 8.4 21.4 7.1-5.2 6.5-10.4 7.1-19.4.8-11.8 0-53.7 0-53.7l-19.4 6.4zM588.8 453.9s2.6 38.2 4.5 48.5c1.9 10.4 5.8 16.8 11 18.1 3.9-1.3 5.2-5.2 5.2-17.5s1.3-58.9-1.3-62.8-19.4 13.7-19.4 13.7z"/><path class="st3" d="M565.5 492.7c1.3-12.3 3.9-47.9 3.9-47.9h-17.5s-6.5 36.2-6.5 48.5l20.1-.6z"/><path class="st3" d="M588.2 499.2c.8-11.8 0-53.7 0-53.7l-19.4 6.5s2.6 34.3 3.9 45.3l15.5 1.9zM609.5 503.1c0-12.3 1.3-58.9-1.3-62.8s-19.4 13.6-19.4 13.6 2.6 38.2 4.5 48.5l16.2.7zM601.1 502.4l-1.3-55.6M579.7 497.6v-48.2M555.8 492.1l5.2-47.3"/><path class="st11" d="M549.3 435.1s-16.2 31.7-22 45.9c-5.8 14.2-5.8 21.4-3.2 29.1 7.8-1.9 11.6-7.1 20.7-23.3 9.1-16.2 22-38.2 22-38.2l-17.5-13.5z"/><path class="st3" d="M544.8 486.9c9.1-16.2 22-38.2 22-38.2l-17.5-13.6s-16.2 31.7-22 45.9l17.5 5.9zM535.4 484l20.4-44.3"/><circle class="st11" cx="581.4" cy="413.1" r="41.7"/><circle class="st5" cx="581.4" cy="412.2" r="22.6"/><circle class="st10" cx="581.4" cy="412.5" r="9.4"/><path class="st9" d="M493.7 284.3s80.2 3.2 82.2 0c2.6-16.8-20.1-24.6-20.1-24.6l-16.2-3.9-44.7 6.5-9.1 7.8 7.9 14.2zM486.6 293.4s66.6 23.4 80.9 46.6c-7.8 4.5-22.6.6-22.6.6s7.1 12.3 6.5 20.1c-6.5 0-67.3-29.1-67.3-29.1l-3.2-16.8 5.7-21.4z"/><path class="st3" d="m488.5 308.9 56.3 31.7"/><path class="st4" d="M622.5 595 680 286.9l111.4 32.4-24.6 84.8 34.9 12.9-21.4 80.2 33.7 16.2-11 81.6z"/><path class="st5" d="m694.3 314.1-55.7 279.6 36.9 8.4 114.6-11 7.7-61.5-36.2-14.9 22-84.8-31.7-12.2 18.7-82.9z"/><circle class="st11" cx="727.1" cy="362.3" r="17.1"/><circle class="st3" cx="727.1" cy="362" r="7.1"/><circle class="st10" cx="720.2" cy="446.4" r="17.1"/><circle class="st3" cx="720.2" cy="446.1" r="7.1"/><circle class="st4" cx="710.5" cy="545.5" r="17.1"/><circle class="st3" cx="710.5" cy="545.1" r="7.1"/><path class="st4" d="m462 597.5 8.4 79.6 354.6-1.9-1.3-84.8s-329.4-1.3-344.3 4.5c-9 3.9-17.4 2.6-17.4 2.6z"/><path class="st5" d="m482.7 612.4 7.1 43.4 315.8 3.2-1.3-49.8s-313.2-3.9-321.6 3.2z"/><circle class="st10" cx="537" cy="633.5" r="17.1"/><circle class="st3" cx="537" cy="633.1" r="7.1"/><circle class="st4" cx="639.9" cy="634.8" r="17.1"/><circle class="st3" cx="639.9" cy="634.4" r="7.1"/><circle class="st10" cx="748" cy="633.5" r="17.1"/><circle class="st3" cx="748" cy="633.1" r="7.1"/><path class="st4" d="M353.9 662.3s-1.3 20.7 3.9 31.7 12.3 11.6 12.9 20.1c.6 8.4-4.5 18.1-14.2 18.1s-15.5-11-20.7-13.6-52.4-.6-52.4-.6l-31.1-7.8s12.3-14.2 24.6-16.8 22-.6 29.1-9.7c7.1-9.1 5.8-25.9 5.8-25.9l34.3-1.9 7.8 6.4z"/><path class="st2" d="m283.4 717.9-31.1-7.8s-3.2 5.2-3.2 8.4 5.8 3.2 8.4 2.6c1.3 3.2 8.3 3.2 9.5 1.3 2.6 2.6 7.3 4.5 11.2 2.6s5.2-7.1 5.2-7.1z"/><path class="st3" d="m257.5 721.1 3.9-7.7M267 722.4l4.1-6.4"/><path class="st2" d="m279.5 557.4-36.9 96.4L383 664.2l-25.9-58.9s26 50 44.2 55.8c18.1 5.8 65.2-4 74.3-38.3 7.8-22 .6-44 .6-44l-24.6-28.5-77-55.7-42.7-9.7-52.4 72.5z"/><path class="st4" d="M337.1 508.2c-.6 12.3 13.6 55 13.6 55s27.2-9.1 32.4-30.4c5.2-21.4-7.8-23.9-7.8-23.9L350 494s-12.3 2-12.9 14.2z"/><path class="st3" d="m290.5 554.2-29.8 91.2 108.1 7.1s-23.3-41.4-23.3-50.5c0-9.1 9.1-11.6 13.6-7.8 4.5 3.9 28.5 53.1 46.6 56.9 18.1 3.9 45.9-6.5 55.7-22.6 9.7-16.2 6.5-49.8 6.5-49.8"/><path class="st4" d="M315.1 471.4c-5.2 0-51.6 60.2-55.5 74.4-3.9 14.2 4.4 21.4 16.7 18.8 12.3-2.6 69.9-60.8 71.2-64.7s-15.5-22-15.5-22-11.7-6.5-16.9-6.5z"/><path class="st9" d="M486.6 282.4s56.9-3.9 70.5 0 17.8 18.8 15.9 26.5c-33-2.6-81.9-12.3-81.9-12.3l-4.5-14.2zM493.7 265.9s73.1-1.6 80.9-15.2c-3.2-9.1-44.7-11.6-44.7-11.6l-42.1 7.8 5.9 19z"/><path class="st11" d="M487.2 229.3s68.6-19.4 72.5-18.1c3.9 1.3 6.5 12.9 3.9 14.9s-69.9 26-69.9 26l-6.5-22.8z"/><path class="st5" d="m440 314.1 44 17.5c23.9-81.5 3.2-102.2 3.2-102.2L440 242.3l-11.6 35.6 11.6 36.2z"/><path class="st10" d="m440 314.1 23 9.1s6.7-11.8 8-44.1-4.5-44.1-4.5-44.1l-26.5 7.3-11.6 35.6 11.6 36.2z"/><path class="st3" d="M453.6 318.6c16.2-37.5 3.2-79.6 3.2-79.6"/><path class="st13" d="M305.4 261.7c2.6-14.9 29.8-27.2 56.9-17.5 27.2 9.7 30.4 36.2 30.4 36.2l-9.7 28.5-46.6-9.1c0 .1-33.6-23.2-31-38.1z"/><ellipse class="st11" cx="430.4" cy="273" rx="29.6" ry="34.6"/><path class="st3" d="M313.8 265.6s13.1-23.5 45.3-9.1c37.5 16.8 14.9 47.2 14.9 47.2"/><path class="st3" d="M319.6 270.8s18.1-14.9 36.9-4.5c18.8 10.4 9.7 30.4 9.7 30.4"/><path class="st3" d="M330.6 277.2s14.9-9.7 23.3-3.9c8.4 5.8 3.2 18.8 3.2 18.8"/><path class="st14" d="M462.6 501.8s1.9 32.4 25.9 52.4c17.7 14.8 35.6 22.6 42.7 23.9 7.1 1.3 16.2-4.5 12.3-11.6-3.9-7.1-28.5-23.3-40.1-34.3-11.6-11-15.5-34.9-15.5-34.9L474.3 463l-21.4 2.6 9.7 36.2z"/><path class="st3" d="M536.4 575.5s-18.8-5.8-43.4-29.8-29.1-71.2-29.1-71.2"/><path class="st3" d="M542.2 569.1s-22.2-8.1-44-29.1c-18.1-17.5-22-59.5-22-59.5"/><path class="st14" d="M456.1 460.4s33.6 46.6 49.2 53.1c8.1 3.4 18.8-9.7 12.3-15.5-27.8-26.5-38.8-51.8-38.8-51.8l-25.9-40.8-38.2-49.8-22.6 23.9 29.1 70.5 34.9 10.4z"/><path class="st3" d="M517 504.4s-41.4-37.5-60.8-79.6M409.6 368.5c36.2 83.5 102.2 142.4 102.2 142.4"/><path class="st14" d="M367.5 301.8s15.5-23.3 39.5-20.1c23.9 3.2 33.6 24.6 40.8 49.2 7.1 24.6 14.9 64.1 27.8 89.3s-23.3-15.5-25.2-16.2c-1.9-.6-39.5-59.5-39.5-59.5l-26.5 5.8-18.8-47.2"/><path class="st13" d="M413.4 358.1c4.5 27.2 52.4 89.9 73.8 95.1 13.6 3.3 22.2-10.5 11.2-17.6-25.2-13.6-50.6-56.8-58.4-82.7-7.8-25.9-8.4-53.1-32.4-61.5-16.2-5.2-33.6 12.3-33.6 12.3s36.1 34.6 39.4 54.4z"/><path class="st3" d="M502.1 446.1c-25.9-13.6-49.8-44-61.5-69.2-12.4-27-15.5-67.9-34.3-75.7-13.1-5.4-25.9 5.2-25.9 5.2"/><path class="st3" d="M388.2 312.2s10.4-7.1 18.1-1.9 16.5 49.8 24.9 68.6c10.7 23.9 45.6 66 65.7 71.8"/><path class="st2" d="M302.8 443.5s2.6 31.1 27.2 48.5 43.4 25.9 53.1 40.8c9.7 14.9 15.5 28.5 40.1 37.5 33 12.9 53.1 8.4 53.1 8.4S462 460.4 460 450c-1.9-10.4-15-23.1-25.4-27s-21.2 2.4-21.2 2.4l-77.7-9.7-32.9 27.8z"/><path class="st3" d="M315.1 441.6s5.2 28.1 20.7 40.4c15.5 12.3 40.1 23.6 51.8 36.6 11.6 12.9 16.2 29.8 36.2 40.1 20.1 10.4 51.1 6.5 51.1 6.5"/><path class="st2" d="M285.3 398.9c-23.9-5.8-25.9-7.8-31.1.6 3.9 6.5-5.8 25.2 9.7 27.2 15.6 2 21.4-27.8 21.4-27.8z"/><path class="st3" d="M260.7 393.7c5.2 3.9-3.2 24.6 5.2 24.6s7.1-21.4 9.7-23.9"/><path class="st11" d="M262.7 378.2s-14.9 17.5-8.4 21.4c3.9 1.9 7.1-6.5 31.1-.6-1.3 5.8-14.2 25.2-11.6 36.9 1.9 10.4 10.4 12.3 18.1 12.3s39.5-14.9 55.7-14.2c16.2.6 26.5 7.3 33.6 7.3 7.1 0 12.9-11.2 12.9-11.2l5.2-52.4s1.9-41.4 1.9-43.4v-17.5l-95.8-55s-33.8 40.4-35.1 45.6c-1.3 5.2 2.1 12.6-.5 15.2s-22 6.5-32.4 22c-7.1 10.4-4.5 34.3 7.8 35.6 7.1 1.9 17.5-2 17.5-2z"/><path class="st3" d="M265.3 365.2c-.6-11 10.4-11 11.6.6 1.3 7.1-7.8 11-14.2 12.3M285.3 398.9c5.2 1.9 8.4 5.2 8.4 5.2"/><path class="st0" d="M291.8 319.3s1.3 20.1 20.1 20.1 23.9-14.2 22.6-18.1-42.7-2-42.7-2z"/><path class="st1" d="M310.5 318.8c0 1.1 1.3 20.5 1.3 20.5 18.8 0 23.9-14.2 22.6-18.1-.6-2-12.7-2.5-23.9-2.4z"/><path class="st3" d="M291.8 319.3s1.3 20.1 20.1 20.1 23.9-14.2 22.6-18.1-42.7-2-42.7-2z"/><path class="st2" d="M321.5 319c-5.8-.2-12.5-.2-18.1 0-.6 4.3.7 12.7 8.4 12.7s13-7.9 9.7-12.7z"/><path d="M310.5 319.9s-2.6 5.8 1.9 5.8 3.2-5.8 3.2-5.8" style="stroke:#000;stroke-width:1.6178"/><path class="st16" d="M403.7 382.7s14.2-20.1 12.9-35.6c-1.3-15.5-9.7-18.1-18.1-16.8-8.4 1.3-14.6 7.1-16.5 16.8-1.9 9.7-.3 20.7 8.1 23.3-7.8 5.8-3.9 12.3-3.9 12.3h17.5z"/><path class="st3" d="M396.6 356.2c3.9 8.3.5 14.9-6.5 14.2"/><circle class="st16" cx="396.8" cy="407" r="26.9"/><circle class="st10" cx="396.8" cy="406.6" r="14.6"/><circle class="st3" cx="396.8" cy="407" r="5.8"/><circle class="st0" cx="176.6" cy="217" r="16.8"/><path class="st1" d="M193.3 215.2c1 9.2-5.6 17.6-14.9 18.6-9.2 1-17.6-5.6-18.6-14.9l33.5-3.7z"/><circle class="st2" cx="176.6" cy="217.4" r="6.8"/><circle class="st3" cx="176.6" cy="217" r="16.8"/><circle class="st0" cx="192" cy="325.1" r="16.8"/><path class="st1" d="M208.8 324.9c.1 9.3-7.3 16.9-16.6 17.1-9.3.1-16.9-7.3-17.1-16.6l33.7-.5z"/><circle class="st2" cx="192" cy="325.4" r="6.8"/><circle class="st3" cx="192" cy="325.1" r="16.8"/><circle class="st0" cx="220.6" cy="534.8" r="16.8"/><path class="st1" d="M203.8 533.4c.7-9.3 8.8-16.2 18.1-15.4 9.3.7 16.2 8.8 15.4 18.1l-33.5-2.7z"/><circle class="st2" cx="220.6" cy="534.5" r="6.8"/><circle class="st3" cx="220.6" cy="534.8" r="16.8"/><path class="st0" d="M163.5 571.3c3.8 8.5 0 18.4-8.5 22.2-8.5 3.8-18.4 0-22.2-8.5-3.8-8.5 0-18.4 8.5-22.2 8.4-3.8 18.4 0 22.2 8.5z"/><path class="st1" d="M163.5 571.3c3.8 8.5 0 18.4-8.5 22.2-8.5 3.8-18.4 0-22.2-8.5l30.7-13.7z"/><circle class="st2" cx="148.3" cy="578.4" r="6.8"/><path class="st3" d="M163.5 571.3c3.8 8.5 0 18.4-8.5 22.2-8.5 3.8-18.4 0-22.2-8.5-3.8-8.5 0-18.4 8.5-22.2 8.4-3.8 18.4 0 22.2 8.5zM298.9 270.1s93.2 49.2 93.2 52.4 1.3 9.4 1.3 9.4"/></svg>