<svg version="1.1" id="Calque_1" xmlns="http://www.w3.org/2000/svg" x="0" y="0" viewBox="0 0 900 900" style="enable-background:new 0 0 900 900" xml:space="preserve"><style>.st0,.st1,.st2{fill:#632d00;stroke:#000;stroke-width:3.3268;stroke-linecap:round;stroke-linejoin:round;stroke-miterlimit:10}.st1,.st2{fill:#fff}.st2{fill:red}.st3{fill:none}.st3,.st4{stroke:#000;stroke-width:3.3268;stroke-linecap:round;stroke-linejoin:round;stroke-miterlimit:10}.st5{fill:#632d00}.st6{fill:#8c8c8c}.st7,.st8,.st9{fill:#2d5b00;stroke:#000;stroke-width:3.3268;stroke-linecap:round;stroke-linejoin:round;stroke-miterlimit:10}.st8,.st9{fill:#0042b7}.st9{fill:#ffce00}.st10{fill:red}.st11{fill:#fff}.st12{fill:none}.st13{fill:#8c8c8c;stroke:#000;stroke-width:3.3268;stroke-linecap:round;stroke-linejoin:round;stroke-miterlimit:10}.st14{fill:#ff4200}</style><path class="st0" d="M517.2 390.8s26.2 48 20.6 40.5c-5.6-7.5 19.3 14.3 19.3 14.3l-6.2 37.4s-30.6-10.6-36.8-16.8c-6.2-6.2-18.3-34.2-18.3-34.2l-2.3-43.8 23.7 2.6z"/><path class="st1" d="M307.1 412.2c7.5-28.8 25.8-52.1 37.3-64.4l-31-28.3s-28.3 12.9-49.9 90.7C241.8 487.9 279.3 544 279.3 544s20-11.1 42.2-22.5c-7.3-14.1-25.5-56.9-14.4-109.3z"/><path class="st2" d="m394.9 393.9-50.5-46.1c-11.4 12.4-29.8 35.6-37.3 64.4-11.1 52.4 7.1 95.2 14.3 109.4 21.2-10.9 44.5-22.1 54.3-24.1 20-4.2 19.2-103.6 19.2-103.6z"/><path class="st3" d="m265.4 510.1 103.3-28.9M257.1 463.8l108.5-16.9M267.7 413.9l59.2 6.2M284.5 355.2l79.9 51.2M297.6 336.5l32.7 28.1M271.4 390.8l28.1 6.9M269.5 437.6l33.7.6M260.2 489.3l44.9-11.2M293.2 535.5s-20-73.2-7.5-121.2 40.5-82.8 40.5-82.8"/><path class="st0" d="M362 409.3s-12.9 8.7-19.1 8.7c-8.3-12.9-39.9-50.3-39.9-50.3s-16.6 2.9-18.7 9.6c-2.1 6.7 24.5 77.3 49.5 77.8 14.1-.8 29.9-9.6 29.9-9.6l8.7-25.4-10.4-10.8z"/><path class="st4" d="m348.3 618.2-31.5-11.3c-1.2 3-2.5 6.3-4 9.8l33 13 2.5-11.5z"/><path class="st1" d="M291.4 657.1c16.8 11.2 44.3 19.3 44.3 19.3l4-18.5-39.8-14.9c-2.7 4.6-5.4 9.4-8.5 14.1zM349.4 613.5v-36.2l-24.3 5.6s-2.5 9.6-8.2 24l31.5 11.3 1-4.7z"/><path class="st4" d="M306.9 629.5c-2.1 4.3-4.4 8.8-7 13.4l39.8 15.1 3.4-15.7-36.2-12.8z"/><path class="st1" d="m345.9 629.7-33-13c-1.8 4.1-3.7 8.4-5.9 12.8l36.2 12.7 2.7-12.5z"/><path class="st3" d="m302.6 662.8 5-11.9M310.7 665.9l3.8-11.9M321.9 669.6l3.8-10M328.2 673.4l3.7-12.5"/><path class="st5" d="m395.5 591-31.8-21.8-18.1 7.5s-10.6 0-10 11.2c.3 5.7 7.9 24.4 15.3 41.3l49-15.5c-2.4-12.7-4.4-22.7-4.4-22.7z"/><path class="st6" d="M351 629.2c7.1 16.3 14 31 14 31s-5 5-5 22.5c3.1 7.5 25 10.6 25 10.6l18.7-8.1s5-11.2 5.6-16.8c.4-3.5-5.1-33.1-9.3-54.6l-49 15.4z"/><path class="st5" d="m505.3 596-37.4-3.7-8.1 13.1 8.7 27.6 45.7-3.4z"/><path class="st6" d="m468.5 633 8.8 27.9-1.3 19.3 19.3 5.6 18.8-6.8 6.8-24.4-6.7-25z"/><path class="st3" d="M335.7 587.9c.6 11.2 29.3 72.4 29.3 72.4s-5 5-5 22.5c3.1 7.5 25 10.6 25 10.6l18.7-8.1s5-11.2 5.6-16.8c.6-5.6-13.7-77.3-13.7-77.3l-31.8-21.8-18.1 7.5c-.1-.2-10.7-.2-10 11zM459.8 605.4l17.5 55.5-1.3 19.3 19.3 5.6 18.8-6.8 6.8-24.4-15.6-58.6-37.4-3.7z"/><path class="st1" d="M511 634.1c2 3.9 4.3 7.7 6.8 11.1 11.9-2.5 22.5-10.6 22.5-10.6l-6.8-10.5-22.5 10zM524.2 609.8l-20 8.5c.9 2.6 2 5.3 3.1 8l21.4-9.6-4.5-6.9z"/><path class="st4" d="m515.3 596-16.8 2.5s1.7 8.8 5.7 19.8l20-8.5-8.9-13.8zM528.7 616.7l-21.4 9.6c1.1 2.6 2.3 5.2 3.7 7.8l22.5-9.9-4.8-7.5z"/><path class="st1" d="M432.3 577.9c-52.6-1.4-84.3-14-96.5-20-6.4 13.9-11.2 23-10.8 25 1.2 5.6 11.9 9.4 17.5 8.7s11.2-10 11.2-10 .2 8.9 2.7 11.4 10.6 2.5 13.7 1.9c3.1-.6 6.7-11.4 6.7-11.4s0 9.6 1.9 12.1 7.5 2.9 11.9 2.9 7.9-9.6 7.9-9.6-1 7.7 1.5 10.8c2.5 3.1 29.9-7.5 29.9-7.5l29.9 13.1s5 5 12.5-3.1c4.4 6.9 15 6.2 20 0 6.2 4.4 13.1 1.9 15.6-2.5 4.4 5.6 13.1 3.7 13.7-5 .2-2.7-1.2-10-3.2-19.3-8.8 1.4-33.3 3.9-86.1 2.5zM515.2 562c-4.5-19-9.6-40-9.6-45.2 0-9.4-20.2-41.8-20.2-41.8l-81.7-57.4s-22.5 8.7-40 27.8c.4 39.4-12 75.8-22.9 101.3 14.4 5.2 51.3 17 91.5 17.5 41 .5 71.8-1.4 82.9-2.2z"/><path class="st7" d="M382.4 374.7 351.6 418s12.6-6.5 13.3-5-11.6 34.1-11.6 34.1l4.2 5.8s14.9-7.5 17.5-5.8c2.5 1.7-10.8 38.3-10.8 38.3l2.5 4.6s13.7-10.9 16.6-11.6-5.8 40.8-5.8 40.8l4.6 3.3s22.6-20.6 24.1-17.9c1.5 2.7 12.5 24.1 12.5 24.1h30.8s18.3-21 20-19.5c1.7 1.5.8 17 10 27 3 2.5 5-3.7 5-3.7s0-30 2.9-31.6 13.3 11.2 13.3 11.2l7.1-7.9s-13.6-22.5-9.1-34.5c1.9-5.8 9.6 10.4 9.6 10.4l8.3-9.1s-7.7-16.3-5-31.6-5.8-39.5-5.8-39.5l-94.4-15-29-10.2z"/><path class="st8" d="M480.1 368.9s34.1 14.1 37 19.5c2.9 5.4-3.3 25-8.7 26.2s-49.5 4.6-64.5 2.9c-15-1.7-52-14.6-60.7-25.8-4.6-4.6 15-50.7 15-50.7l43.7-9.6 18.7 19.1 19.5 18.4z"/><path class="st3" d="M395.3 373.9s.8 6.7 8.3 15.4c7.5 8.7 70.3 19.1 90.7 14.6 11.2-4.2 16.2-19.5 16.2-19.5"/><path class="st3" d="M404.4 364.3s3.3 7.5 8.7 14.1 68.2 17.9 76.9 13.7 10.4-13.3 10.4-13.3"/><path class="st4" d="M345 287.2c.5-23.2 5.9-37.5 8.8-43.5L339 232c-5.1 6.6-14.2 25-12.7 55.2 1.4 27.6 10.6 53.5 15.6 65.7 5.2-2.5 10.2-5 14.3-7.1-4.2-11.4-11.6-35.5-11.2-58.6z"/><path class="st1" d="m362.3 250.5-8.4-6.7c-2.9 6-8.4 20.3-8.8 43.5-.5 23.1 7 47.1 11.1 58.6 6-3.1 10.1-5.2 10.1-5.2l3.6 2.3c-4.5-8.8-13.1-28.5-13.6-50.6-.5-20.5 3.4-34.8 6-41.9zM339 232l-9.9-7.8S280 259.5 327 359.8c4.7-2.1 9.8-4.4 14.8-6.9-5-12.2-14.2-38.1-15.6-65.7-1.4-30.1 7.8-48.6 12.8-55.2z"/><path class="st4" d="m371.8 258-9.5-7.5c-2.5 7.1-6.4 21.4-6 41.8.5 22.1 9.1 41.9 13.6 50.6l9.6 6.1 5.1-5.1c-5.7-10.1-16.7-31.8-17.1-49.7-.4-15.8 2.3-28.9 4.3-36.2z"/><path class="st1" d="m385.7 269.1-14-11.1c-2 7.3-4.7 20.4-4.3 36.1.5 17.9 11.4 39.5 17.1 49.7l17.3-17.3-16.1-57.4z"/><path class="st3" d="m319.9 235.5 15.6 6.8M315.9 242.5l17.5 6.9M307.6 267.3l23.1 1.2M307.6 276.4H330M309.5 302.2l21.2-1.2M310.7 311l20.6-1.9M317 330.9l21.2-3.7M318.8 339.6l20.6-4.9"/><path class="st0" d="M357.9 338.1s-37 19.1-42 31.2c7.9-.8 51.1-25 51.1-25s-28.3 17.9-32.4 27c13.3-.4 44.9-14.1 44.9-14.1s-42.4 17.9-44.9 26.6c15.8-.4 52.8-20 52.8-20s-36.6 19.1-42.8 31.6c16.6-2.1 49.1-26.2 49.1-26.2s-26.2 21.2-31.2 36.6c15.8-5.4 36.2-32 36.2-32l-4.2-17.9-20-16.2-16.6-1.6z"/><path class="st1" d="m388.2 316.5-30.3 21.6 40.7 35.8 27.1-23.7z"/><path class="st3" d="m365.6 333.4 37.4 33.7M376.2 326.5l34.3 34.4"/><circle class="st3" cx="474.3" cy="255.4" r="5.8"/><path class="st1" d="M440.2 362.3s4.6 20.8 15.4 29.5c10.4-15 19.1-25.8 19.1-25.8l-21.2-12-13.3 8.3z"/><ellipse class="st9" cx="437.9" cy="474.3" rx="39.7" ry="31.8"/><path class="st1" d="M247.3 444.6s-2.5 27.4-.4 35.3c2.1 7.9 16.2 6.7 17.5-1.2 1.2-7.9-.4-35.3-.4-35.3l-16.7 1.2z"/><path class="st7" d="M550.9 221.1c-1.9-6.2 5.6-69.9-15.6-107.9-3.1-5.6 4.6-8.7 8.9-3.7 4.4 5 24.7 55.5 22.9 77.3 11.2 2.5 3.1 3.5 16.8-7.3 13.7-10.8 38-55.7 40.5-56.3s6.2 7.5 2.5 17.5-39.7 74.6-44.7 80.3c-4.9 5.5-29.5 6.4-31.3.1z"/><path class="st7" d="M562.1 219.9c-3.7-8.1 6-38.9 12.9-63.8 6.9-25 .2-54.7-1-59-1.2-4.4 5-7.5 8.1-4.4 8.1 8.1 13.9 46.2 7.7 67.4-6.2 21.2-12.3 55.9-14.8 59.7-2.5 3.6-10.4 5.7-12.9.1zM619.7 273.9s29.7-9.8 44.7-5.4c-5 4.4-11.2 13.1-11.2 13.1l-36.8 11.9 3.3-19.6z"/><path class="st7" d="M612.6 286.6s48.7-11.9 59.9-4.4c-1.9 5-6.2 9.4-6.2 9.4l-45.5 10-8.2-15z"/><path class="st7" d="M620.7 292.9s44.3-8.7 55.5 0c-2.5 5-12.5 13.1-12.5 13.1l-40.5 3.7-2.5-16.8z"/><path class="st7" d="M617 307.8s57.4-9.4 68 .6c-6.9 5-27.4 12.5-27.4 12.5l-36.2 1.9-4.4-15z"/><path class="st7" d="M624.5 320.3s48-11.2 59.9 11.2C680 335.3 655 339 655 339l-33.7-3.1 3.2-15.6z"/><path class="st7" d="M625.7 332.8s44.9-3.1 58.6 20.6c-12.5 4.4-57.4-10-57.4-10l-1.2-10.6z"/><path class="st7" d="M623.2 343.4s50.5 1.2 56.1 25c-18.7 5-51.8-11.2-51.8-11.2l-4.3-13.8zM411.9 119.4s-13.3-22.9-14.6-36.2c-1.2-13.3-.8-28.3-.8-30.8s5.4-4.2 7.1.4c1.7 4.6 7.1 22.5 9.1 28.3s25.8 34.5 32.9 51.6c9.1 20 2.1 47.8 2.1 47.8l-13.7-.4-22.1-60.7z"/><path class="st7" d="M439 159.3s-16.2-32.9-35.8-52.8c-19.5-20-32.4-51.1-35.3-52.4-2.9-1.2-5.8-.8-5.4 5 .4 5.8 2.5 29.5 27.4 64 25 34.5 23.3 55.7 23.3 55.7l15 8.7 11.2 5 5-19.5-5.4-13.7z"/><path class="st7" d="M421.9 176.4s-19.5-44.1-39.5-60.7c-7.5-6.3-19.6-15.2-27-24.7-12.1-15.6-12.1-24.8-22.9-34.4-7.1-4.2-12.5-1.2-9.1 1.7 19.1 22 4.6 36.2 36.2 62.4 10 8.3 14.1 15.4 14.1 15.4l12.5 39.1 20 19.1 15 .8.7-18.7z"/><path class="st7" d="M413.6 198.4s-29.5-51.6-42-64.9c-6.8-7.3-31.7-13.4-47.8-22.9-13.3-7.8-18.8-19.6-20-20.4-2.5-1.7-5.8.4-5 3.3 5 21.6 32.4 40.8 54.1 52.8s39.5 54.1 39.5 54.1l21.2-2z"/><path class="st7" d="M280.5 119.4c.4 2.9 19.5 24.1 37.4 31.6s47.8 15.4 63.6 44.1c9.1 8.7 10.4-5.8 10.4-5.8s-12.9-25.8-30.8-37.8c-14.1-9.5-32-10.1-42.4-14.6-17.5-7.5-34.1-20.4-34.1-20.4s-4.5 0-4.1 2.9z"/><path class="st5" d="m461.9 284-4.6-.7-17.9 6.7-5 14.6 11.6 54.5s10 7.1 19.5 9.1c1.2.3 2.5.5 3.7.7 4.4-8.7 9.2-21.7 9.2-37.3.1-15.2-8.3-33.4-16.5-47.6z"/><path class="st10" d="m495.9 346-2.1-12.9s-10.4-22.9-9.1-28.7c2.5-5 0-8.7 0-8.7l-7.5-9.1-15.3-2.6c8.2 14.1 16.6 32.4 16.6 47.5 0 15.6-4.8 28.6-9.2 37.3 8 1.4 14.7 1.2 17.9-2.4 3.7-4.2.4-10.4 1.7-11.6s7.5-.4 8.3-1.7c.8-1.2-1.3-7.1-1.3-7.1z"/><path class="st3" d="M484.7 295.7s2.5 3.7 0 8.7c-1.2 5.8 9.1 28.7 9.1 28.7l2.1 12.9s2.1 5.8 1.2 7.1-7.1.4-8.3 1.7c-1.2 1.2 2.1 7.5-1.7 11.6-3.7 4.2-12.1 3.7-21.6 1.7S446 359 446 359l-11.6-54.5 5-14.6 17.9-6.7 20 3.3 7.4 9.2z"/><path class="st2" d="M484.7 295.7s2.5 3.7 0 8.7c-.4 3.7 10.8 15.4 11.2 20.4.4 5-9.6 8.3-12.1 5.4-2.5-2.9-5.8-10.8-5.8-10.8"/><path class="st9" d="M479.3 317.8c3.7 2.5 2.1 9.6 4.6 12.5 2.5 2.9 12.5-.4 12.1-5.4-.2-2.2-2.4-5.5-4.8-9 4.4-3 10.2-8 15.2-6.8 5 1.2 7.9 7.9 6.7 11.2-1.2 3.3-7.1 4.6-7.1 4.6s2.9 9.1 2.5 13.3c-.4 4.2-17 12.9-28.7 9.1-11.6-3.7-8.7-19.1-8.7-19.1s-7.9-.4-7.5-5.8c.3-5.5 9.9-9.2 15.7-4.6z"/><path class="st3" d="M505.1 318.2c-3.7 3.7.8 6.7.8 6.7M471 328.2c3.3-1.2 4.2-4.6 4.2-4.6"/><path class="st1" d="M459.3 305.3c-2.1 1.2-2.1 5.4.8 5.8 2.9.4 14.6.4 16.2-.8 1.7-1.2 1.2-4.2-.4-5.4-1.6-1.3-14.5-.9-16.6.4z"/><circle class="st1" cx="469.1" cy="307.2" r="2.5"/><path class="st0" d="M446 324s-.4-28.7 2.5-30.8c2.9-2.1 28.7-2.9 36.2 2.5 0-9.6-6.7-17-6.7-17l-42.4-.4-30.8 14.6 2.9 32.9 16.6 9.6L446 324z"/><path class="st1" d="M370.8 238.3c-7.1-7.1-25.4-20-29.1-27.4 6.7-3.7 17.5-5 21.6-3.7 4.2 1.2 28.3 14.6 28.3 14.6s-13.8 23.6-20.8 16.5z"/><path class="st1" d="M355.4 199.7c12.5 15.4 32.4 22.9 32.4 22.9l7.1-4.2s-7.1-12.1-15-16.6-19.1-3.8-24.5-2.1z"/><path class="st1" d="M367.4 189.3c3.3 15 25 30.4 25 30.4l17.5-8.7s-14.1-19.5-19.5-20.4c-5.5-.9-16.7 1.2-23-1.3z"/><path class="st1" d="M383.7 177.2c-1.2 18.3 25 33.7 25 33.7l8.3-5.8c-.1 0-6.3-21.6-33.3-27.9z"/><path class="st1" d="M436.5 199.3s-1.2-31.6-26.6-33.7c-9.6 15 7.1 39.5 7.1 39.5l12.1.4 7.4-6.2z"/><path class="st1" d="M452.7 194.3s-1.2-32.9-14.6-37.4c-5.4 8.3-3.7 42.8-3.7 42.8l18.3-5.4z"/><path class="st1" d="M447.7 198.8s3.7-34.1 16.6-47.8c5.8 17.5 3.3 42 3.3 42l-19.9 5.8z"/><path class="st1" d="M461.4 193.4s10.4-28.3 25.8-40.3c6.2 20.8-5 36.6-5 36.6l-10.4 8.7-10.4-5z"/><path class="st3" d="M472.6 184.7c4.6-6.2 10.8-20 10.8-20M461 166.4c-2.1 5.4-4.6 19.5-4.6 19.5M440.6 168.1c-.8 5.4 0 20.4 0 20.4M416.9 174.7c0 8.3 4.2 20.4 4.2 20.4M394.9 187.2c5 3.7 13.7 15.4 13.7 15.4M382.4 196.8c7.1 4.2 14.6 12.1 14.6 12.1M367 203.4c5 2.9 17.9 10.8 17.9 10.8M353.3 214.2c9.6 10 21.2 12.9 21.2 12.9"/><path class="st2" d="m482.3 207.1 2.8-17s-21.6-2.9-59 10.8c-37.4 13.7-55.3 37.4-55.3 37.4l8.3 9.9c6.4-6.2 23.5-21.1 49.1-31.9 26-11.1 46.4-10.1 54.1-9.2z"/><path class="st8" d="M428.1 216.3c-25.6 10.9-42.6 25.7-49.1 31.9l24.5 29.2 71.1-25.4 7.6-45c-7.6-.8-28-1.8-54.1 9.3z"/><path class="st7" d="M411.1 297.4c14.1-9.1 34.1-5 34.1-5s-.8-7.9.8-9.1c1.7-1.2 46.6-3.8 52.4-6.9.8-1.5 0-4.8 0-4.8s-25.8-17.5-44.1-16.6c-31.6 0-52.8 15.4-52.8 15.4l.4 15.8s-2.4 18.3 9.2 11.2z"/><circle class="st9" cx="510.7" cy="261" r="6.9"/><circle class="st9" cx="436.9" cy="259.6" r="6.7"/><circle class="st9" cx="419.8" cy="256.6" r="6.7"/><circle class="st9" cx="496.8" cy="282.4" r="7.1"/><circle class="st9" cx="442.7" cy="297.4" r="7.1"/><circle class="st9" cx="423.2" cy="299.1" r="7.1"/><path class="st9" d="M452.7 255.4s-12.9-7.9-14.1-10 5.4-7.1 7.5-6.2c2.1.8 13.3 16.6 13.3 16.6l5.8 1.2s-15.4-25-15-27c.4-2.1 6.7-4.2 8.7-3.7s12.9 30.4 12.9 30.4-5-27.9-4.2-29.5 5.8-1.7 7.5-.4c1.7 1.2 2.9 29.1 2.9 29.1s7.1-26.2 8.3-27c1.2-.8 6.7.8 6.2 2.9-.4 2.1-10 25.8-10 25.8s14.1-18.7 15.8-19.5c1.7-.8 5 5 4.2 7.5-.8 2.5-12.1 12.9-12.1 12.9l-17.9 2.9-19.8-6z"/><path class="st9" d="m448.5 252.5 5 18.7s11.6-2.1 20.4-2.1c8.7 0 24.5 2.5 24.5 2.5l1.7-19.1s-15 3.3-25.8 2.5c-10.8-.9-25.8-2.5-25.8-2.5z"/><circle class="st9" cx="474.7" cy="266.2" r="5.8"/><path class="st2" d="M385.7 293.2c-8.3-3.3-13.7-12.9-11.6-20.4s14.1-10.8 23.7-7.1c9.6 3.7 10.4 21.6 10.4 21.6l-7.9 11.6c0 .2-6.3-2.3-14.6-5.7z"/><path class="st2" d="M391.6 300.3c.8 14.6-17.9 36.2-17.9 36.2s25.8 17 37.4 8.7c10.4-28.7 1.7-48.2 1.7-48.2s-22.1-11.2-21.2 3.3z"/><path class="st3" d="M389.9 279.1c10.8 6.7 10.4 14.6 10.4 14.6M404 298.2c2.1 16.6-15.8 45.3-15.8 45.3"/><path class="st2" d="M386.1 302.4c-5-2.5-5-7.9-4.6-10.4.2-1.2 9.5 1.3 15.8-.5 6.7-1.9 10.6-7.9 11.6-7.4 2.1.8 6.2 9.1 3.7 12.9-2.3 3.7-21.5 7.9-26.5 5.4zM429.4 361s-11.6 8.7-10 13.3c1.7 4.6 24.5 12.1 29.9-.8 0-2.1-9.1-11.2-9.1-11.2l-10.8-1.3z"/><path class="st1" d="m408.2 358.5 40.8 5s.5-3.1 1-7.5l-40.7-4.4c-.7 4.1-1.1 6.9-1.1 6.9z"/><path class="st2" d="M410.7 343c-.5 3.2-1 6.2-1.5 8.7L450 356c.3-2.7.7-5.9 1.1-9.3l-40.4-3.7z"/><path class="st7" d="M451.9 325.3c-1.7-6.7-32-8.7-35.3-5-1.8 2-4.1 13-5.8 22.7l40.3 3.8c.9-8.7 1.6-18.2.8-21.5z"/><path class="st7" d="M429 336.9c-1.2 3.7-2.1 25.8-1.7 29.9.4 4.2 13.3 5.8 14.6 0s2.5-25.8.8-29.1c-1.7-3.3-12.5-4.5-13.7-.8z"/><path class="st9" d="M441.2 418.4c-8.6 0-15.6 7-15.6 15.6 0 7 4.7 13 11.1 14.9.1-4.6.8-16.3 5.5-16.3 4.6 0 6.1 10.3 6.5 15 4.8-2.7 8.1-7.8 8.1-13.6 0-8.6-6.9-15.6-15.6-15.6zM511.1 415.3c-7.6 2-12.1 9.8-10.1 17.4 1.6 6.2 7.2 10.4 13.2 10.6-1-4.1-3.1-14.6 1.1-15.7 4-1.1 7.8 7.7 9.3 11.7 3.6-3.5 5.3-8.7 3.9-13.9-2-7.5-9.8-12.1-17.4-10.1zM416.7 411.4c-6.9-2.9-14.8.3-17.7 7.2-2.4 5.6-.7 11.9 3.7 15.6 1.6-3.7 6.2-12.7 9.9-11.1 3.6 1.5 1.3 10.3.1 14.2 4.7-.5 9.1-3.5 11.1-8.2 3-6.8-.2-14.8-7.1-17.7zM391 396.8c-6.9-2.9-14.8.3-17.7 7.2-2.4 5.6-.7 11.9 3.7 15.6 1.6-3.7 6.2-12.7 9.9-11.1 3.6 1.5 1.3 10.3.1 14.2 4.7-.5 9.1-3.5 11.1-8.2 3-6.9-.2-14.8-7.1-17.7zM478.8 418.1c-8.6.8-14.8 8.4-14 17 .7 7 5.9 12.5 12.4 13.8-.4-4.6-.8-16.3 3.9-16.8 4.5-.5 7 9.6 7.9 14.3 4.5-3.1 7.3-8.5 6.7-14.3-.7-8.6-8.3-14.9-16.9-14z"/><circle class="st9" cx="347.9" cy="418.4" r="8.5"/><circle class="st9" cx="352.5" cy="452.5" r="8.5"/><circle class="st9" cx="360.4" cy="490.8" r="8.5"/><circle class="st9" cx="377" cy="525.7" r="8.5"/><circle class="st9" cx="483.9" cy="539.8" r="8.5"/><circle class="st9" cx="508" cy="511.1" r="8.5"/><circle class="st9" cx="516.3" cy="480" r="8.5"/><path class="st1" d="M264.7 214.6c.4-1.2 15 4.6 15.8 7.9.8 3.3-1.2 5-3.7 7.1s-14.1-1.2-14.1-1.2 1.6-12.5 2-13.8z"/><path class="st10" d="M282.2 175.6c-1.8-6.7-7.8-10.1-14.1-11.8-4.2 7.4-12.3 24.7-18.5 54.9-6.6 32-.4 63.7 3 77.3l7.9-1.8s-2.5-40.8 5-73.2 17.5-40.5 16.7-45.4z"/><path class="st11" d="M249.6 218.6c6.2-30.3 14.3-47.5 18.5-54.9-6.7-1.7-13.7-1.3-16.3-.2-5 2.1-18.3 19.1-24.1 52.4-5.8 33.3 15 82.3 15 82.3l9.9-2.3c-3.4-13.6-9.6-45.2-3-77.3z"/><path class="st3" d="M242.7 298.2s-20.8-49.1-15-82.3c5.8-33.3 19.1-50.3 24.1-52.4 5-2.1 26.6-1.7 30.4 12.1.8 5-9.1 12.9-16.6 45.3s-5 73.2-5 73.2l-17.9 4.1z"/><path class="st10" d="M229 197.6c-18.7-5.8-33.3 3.7-33.3 3.7s2 6.3 7.7 12.5l32.9-13.2c-2.2-1.1-4.7-2.2-7.3-3z"/><path class="st11" d="m236.3 200.7-32.9 13.1c4 4.4 9.9 8.7 18.1 10.8 20 5 32.9-5 32.9-5s-5-11.9-18.1-18.9z"/><path class="st12" d="m244.6 206.5-29.5 15.9c2 .9 4.1 1.7 6.4 2.2h.1l26.6-14.5c-1.1-1.1-2.3-2.4-3.6-3.6zM254.3 219.6s-1-2.5-3.3-5.8l-22.1 12c15.7 1.4 25.4-6.2 25.4-6.2z"/><path class="st10" d="m240.7 203.4-30.4 16.3c1.5 1 3 1.8 4.8 2.6l29.5-15.9c-1.3-.9-2.5-2-3.9-3zM221.6 224.6c2.6.6 5 1 7.3 1.2l22.1-12c-.8-1.1-1.7-2.4-2.9-3.7l-26.5 14.5z"/><path class="st3" d="M195.7 201.3s5.8 18.3 25.8 23.3 32.9-5 32.9-5-6.7-16.2-25.4-22c-18.8-5.8-33.3 3.7-33.3 3.7z"/><path class="st4" d="M277.6 409c-.3-3-.6-5.9-.9-8.6-8.6 1.7-23.9 2.8-42-1.2-.8 3.1-1.7 6.1-2.5 9 20.2 7.2 36.8 3.8 45.4.8z"/><path class="st1" d="M276.7 400.5c-1.4-13.8-2-23.7-2-23.7l-7.1-38.3s-20.8-37.4-24.1 10.4c-1.2 17.3-4.8 34.8-8.9 50.4 18.1 4 33.5 2.9 42.1 1.2zM223.3 435.5c-2.8 7.6-4.7 12.1-4.7 12.1s13.7 7.9 35.8.4c7.1-2.5 24.5 2.9 29.5 3.3-.9-4.5-1.7-9.3-2.5-14-9.7 1.6-33.6 4.6-58.1-1.8zM279.4 424.5c-.7-5.3-1.3-10.5-1.9-15.4-8.6 2.9-25.1 6.3-45.4-.7-1.5 5.1-3 9.9-4.4 14.2 21.7 4.5 42.8 2.9 51.7 1.9z"/><path class="st4" d="M281.3 437.2c-.7-4.2-1.3-8.6-1.9-12.8-8.9 1-30.1 2.7-51.7-1.9-1.6 4.9-3.2 9.3-4.5 12.9 24.6 6.5 48.5 3.5 58.1 1.8z"/><path class="st3" d="m255.2 446.3 1.2-63"/><path class="st1" d="M242.3 320.7s-13.7-17.5-15.4-23.3c25.8-10.4 49.9-2.9 49.9-2.9l-9.1 26.2h-25.4z"/><path class="st3" d="m240.2 293.5 4.4 10.6M258.9 292.4l1.9 12.3"/><path class="st2" d="M270.1 368.9s-1.7 10.4 4.6 13.3c6.2 2.9 29.9-6.2 29.9-20.8-.4-6.2-8.3-10.4-8.3-10.4l-26.2 17.9z"/><path class="st2" d="M265.6 358.5c-3.7 4.6-2.1 12.9 3.7 14.1 5.8 1.2 27.4-14.6 28.7-20.8 1.2-6.2-2.5-15.8-11.2-13.7-8.8 2.1-17.5 15.9-21.2 20.4z"/><path class="st0" d="M255.6 354.4s5.8 5 10 6.2c4.2 1.2 22-10.8 21.6-16.6-.4-5.8-5-16.2-7.5-20.4-2.5-4.2-19.5-12.5-21.6-13.7-2.1-1.2-9.1-2.1-10.4.4-1.2 2.5 3.7 7.9 3.7 7.9l4.2 36.2z"/><path class="st3" d="M262.6 334c.8 13.7 8.7 15.4 8.7 15.4"/><path class="st0" d="M236.9 336.9s0 7.9 2.9 11.6c2.9 3.7 15.8 7.9 19.1 6.2 3.3-1.7 2.9-7.5 2.9-7.5s5.8-1.7 2.5-8.3c2.5-4.6 0-8.3 0-8.3s3.3-1.7.8-5.4-17.5-12.5-20.4-12.5-4.2 5.8-4.2 5.8-5 1.7-2.1 8.7c-4 3-1.5 9.7-1.5 9.7z"/><path class="st3" d="M238.5 327.3c12.1 15.8 25.8 11.6 25.8 11.6M240.6 318.6c12.1 15.8 23.7 12.1 23.7 12.1M236.9 336.9c3.3 6.2 16.6 10.4 25 10.4M472.3 602.3c.6-6.2-4.4-23.1-5-26.8M492.2 602.3c2.5-8.7-5-25.6-5.6-29.3M507.8 599.8c8.1-8.1-5-24.3-5.6-28.1M353.8 581.7c2.5-5 .4-20 .4-20M376.8 583.5c.6-8.1-1.9-16.8-1.9-16.8M398.5 588.9c3.3-9.1-.4-17.9-.4-17.9"/><path class="st7" d="M419.9 574.8c-7.5 5-32.4 41.8-32.4 41.8l.6 8.1s22.5-22.5 21.8-19.3c-.6 3.1-12.5 37.4-12.5 37.4l6.9 3.7s16.8-37.4 18.1-34.3c1.2 3.1-8.1 20.6 8.7 49.9 1.9 3.1 6.2-1.2 6.2-1.2s-7.5-49.9-6.2-51.8c1.2-1.9 6.2 25 22.5 43 4.4.6 5-5 5-5s-13.1-36.8-11.9-46.2c1.9 0 19.3 26.8 19.3 26.8l5.6-4.4s-21.8-47.4-25.6-49.9c-3.7-2.3-18.6-3.6-26.1 1.4z"/><circle class="st9" cx="436.1" cy="667.1" r="9.4"/><circle class="st9" cx="399.3" cy="649" r="9.4"/><circle class="st9" cx="384.9" cy="621" r="9.4"/><circle class="st9" cx="458.5" cy="650.9" r="9.4"/><circle class="st9" cx="471" cy="627.2" r="9.4"/><path class="st2" d="M518.3 575.5c-.9-4.2-2-8.8-3.1-13.4-11.1.8-41.9 2.7-82.8 2.2-40.3-.5-77.1-12.3-91.5-17.5-1.7 4-3.4 7.8-5 11.3 12.2 5.9 43.9 18.5 96.5 20 52.7 1.2 77.2-1.3 85.9-2.6z"/><path class="st1" d="M420.2 531.9s-12.1 39.9-12.1 42.8c0 2.9 35.8 6.7 47.4 2.1-9.6-17.9-5.4-39.1-5.4-39.1l-15-7.1-14.9 1.3z"/><path class="st2" d="M397.8 522c-.8 1.2 1.7 16.6 2.9 17.5s24.5-2.9 24.5-2.9l14.6 1.7s21.6 3.3 23.3 2.1c1.7-1.2 2.5-13.3 1.2-14.1s-26.6.8-26.6.8l-13.7-.8c0-.2-25.4-5.6-26.2-4.3z"/><path class="st2" d="M424 526.1c-3.7 1.7-3.3 9.1.4 12.1 3.7 2.9 13.7 1.7 15.4 0 1.7-1.7 3.3-8.3 0-11.2-3.3-3-12.1-2.6-15.8-.9z"/><path class="st3" d="m419 576.5.9-14.2M430.5 577.1l-.2-14.1M441.3 577.1l-.8-12.9M528.4 631.6l3.1 6.8M521.5 635.9l3.2 5.6"/><path class="st13" d="M350 730.7v45l33.1 3.7 10.6-41.8z"/><path class="st2" d="M417.4 797.5c7.5 6.2 34.5 17.5 35.8 21.2 1.2 3.7-4 8.7-4 8.7l-42.4-16.2-1.2-12.5c-.1 0 4.3-7.4 11.8-1.2zM525.9 747s7.5-6.7 14.3-3.5c6.9 3.1 8.1 9.8 8.1 9.8l1.9 14.3-21.8 11.2-7.5-16.8 5-15z"/><path class="st3" d="M535.3 750.1c1.9 5-.6 15-.6 15"/><path class="st2" d="M557.1 756.3c18.2 8.1 41.8 9.4 41.8 9.4s1.2 6.2-6.2 10.6c1.9 6.2-2.5 11.2-2.5 11.2l-48-1.9 5-14.2c-.1.1 3-10.7 9.9-15.1z"/><path class="st3" d="M554 771.5s28.7 4.2 38.7 4.8"/><path class="st12" d="m364.4 825.6 8.1.6 1.2-2.8-10.2-1.6zM338.8 820.6l5 .6 2-2.3-7.1-1.1z"/><path class="st5" d="M346.9 804.4c3.3 1 10-14.2 12.9-21.3l-13.1-2c-1.2 7.7-3 22.3.2 23.3z"/><path class="st3" d="m391.8 812.5-3.1-25-1.5-.2-.4 6.4-13.1 29.7 9.4 1.5z"/><path class="st11" d="m345.8 818.9 17.7 2.9-4.1-18.1z"/><path class="st5" d="M368.7 810.6c2.4 0 9.2-16.6 12.3-24.3l-13.7-2.1c-.4 7.9-1 26.4 1.4 26.4z"/><path class="st10" d="M381 786.3c-3 7.7-9.9 24.3-12.3 24.3-2.5 0-1.8-18.5-1.5-26.4l-7.5-1.2c-2.9 7.2-9.6 22.2-12.9 21.3-3.2-.9-1.4-15.6-.2-23.3l-8.9-1.4-.2 2.2 1.2 35.9 7.1 1.1 13.6-15.2 4.1 18.1 10.2 1.6 13.1-29.7.4-6.5-6.2-.8z"/><path class="st11" d="m337.8 779.6-1.5-.2s-13.7 15.6-10.6 28.1c3.1 8.1 10.6 10 10.6 10l2.4.4-1.2-35.9.3-2.4z"/><path class="st3" d="M336.3 779.4s-13.7 15.6-10.6 28.1c3.1 8.1 10.6 10 10.6 10l46.8 7.5 8.7-12.5-3.1-25-52.4-8.1z"/><path class="st2" d="M395.5 782.5c1.9-6.2 8.1-16.8 14.3-17.5 8.1 1.2 15 18.7 7.5 25.6-7.5 6.9-13.1 6.2-13.1 6.2l-10-5c.1.1-.5-3 1.3-9.3z"/><path class="st3" d="M409.9 775.7c-2.5 6.2-.6 17.5-.6 17.5"/><path class="st2" d="M414.9 801.9c6.9 7.5 34.9 22.5 36.8 26.2 1.9 3.7-8.7 11.2-8.7 11.2l-45-21.9 1.2-15c.1.1 8.8-8 15.7-.5z"/><path class="st2" d="M394.3 786.3s8.7 7.5 26.2 3.1c3.1-.6 3.7 6.9-1.2 11.9-5 5-19.3 6.9-19.3 6.9l-13.1-14.3 7.4-7.6z"/><path class="st13" d="M391.8 793.1c20.6 25 33.1 27.4 38.7 30.6s10 8.1 12.5 11.2 8.9 2.3 10.2 5.4c1.2 3.1 1 8.3-3.3 9.6-4.4 1.2-15.6-8.1-15.6-8.1l-11.9-2.5s-30.6-13.1-41.8-15.6c-4.4-20.6 5.6-28.7 11.2-30.6z"/><path class="st2" d="M340 769.2c-3.7.6-8.7 10.8-6.2 12.7 2.5 1.9 54.9 14.3 57.4 13.7 2.5-.6 8.1-9.4 4.4-13.1-3.8-3.7-51.8-13.9-55.6-13.3z"/><path class="st1" d="M429.2 848.6c4.4.6 7.5-2.5 5-6.9s-36.2-17.5-54.3-22.5c-18.1-5-51.8-13.1-54.3-11.9-2.5 1.2-1.2 6.9 1.2 10.6s33.7 5.6 54.3 12.5c20.7 7 43.8 17.6 48.1 18.2z"/><path class="st13" d="m482.2 748.8 5 25.6 45.6-6.9-10-34.9-38.7 2.5z"/><path class="st2" d="M535.3 768.2c13.1.6 13.1-15 13.1-15s5.6-1.2 8.7 3.1c3.1 4.4.6 17.5-5 22.5s-15 1.2-15 1.2-14.9-12.5-1.8-11.8z"/><circle class="st9" cx="343.8" cy="740.1" r="8.7"/><circle class="st9" cx="367.5" cy="745.7" r="8.7"/><circle class="st9" cx="391.2" cy="748.8" r="8.7"/><circle class="st9" cx="476.6" cy="749.4" r="8.7"/><circle class="st9" cx="501" cy="748.2" r="8.7"/><circle class="st9" cx="524.6" cy="744.6" r="8.7"/><path class="st10" d="m489.2 683.8-17.9-.2 4.2 44.2 11.1 12.4s2.2.1 5.6.1l-2.1-56.4-.9-.1z"/><path class="st14" d="M524.7 726.4c-6.9-15.6-4.9-45.9-4.9-45.9l-23.7 3.4-6.1-.1 2.1 56.4c11.9-.1 37.9-1.7 32.6-13.8z"/><path class="st10" d="m355.6 681.5-7.5 40.5 9.4 10h1.9l9.7-46.5z"/><path class="st14" d="m403 692.1-23.7-3.4-10.2-3.2-9.7 46.5 33.7 1.2z"/><path class="st3" d="m355.6 681.5-7.5 40.5 9.4 10 35.6 1.2 9.9-41.1-23.7-3.4zM471.3 683.5l4.2 44.2 11.1 12.4s44.9 1.9 38-13.7c-6.9-15.6-4.9-45.9-4.9-45.9l-23.7 3.4-24.7-.4z"/><path class="st2" d="M395.5 740.7c8.1-1.9 3.7-11.9-.6-10.6-10.6 2.5-39.3-2.5-46.2-11.2-3.1-3.1-9.6 5.8-5.8 12.1 3.8 6.2 44.5 11.6 52.6 9.7zM526.5 735.6c7.3-4 .3-12.4-3.5-10-9.5 5.4-38.4 8.5-47.4 2-3.9-2.1-7.6 8.2-2.2 13.2 5.2 5 45.9-1.2 53.1-5.2zM360.6 673.4c-1.9-2.5-9.4 2.5-8.7 6.9.6 4.4 10 13.1 22.5 15.6s30.6 0 33.1-2.5.6-8.1-3.7-8.1c-17 4.9-38.2-1.3-43.2-11.9zM473.8 674.3c-2.5-1.9-8.3 5-6.5 9 1.8 4 13.2 9.8 25.9 8.7 12.7-1.1 29.4-8.5 31.1-11.6 1.7-3.1-1.7-7.9-5.9-6.7-14.7 9.5-36.8 9.4-44.6.6z"/><path class="st13" d="M535.3 768.2s29.9 15.8 38 17.7 22.5-.8 26.8-.2c4.4.6 4.4 7.5 2.5 10-1.9 2.5-11.2 1.2-11.2 1.2l-14.3 5-56.8 6.9-3.1-23.7 8.1-16.2 10-.7z"/><path class="st12" d="m501 815 .3-1.5c-.5 0-1 .1-1.5.1l1.2 1.4zM514.1 771.5l-10 2.3-.6 1.6 12.6-1.6zM540.3 801.2 529 788.5c0 4.7 1 10.1 3.7 15.8-.6.7-1.9 1.4-3.7 2.2l1.8 2.2 9.5-7.5z"/><path class="st11" d="M486.6 811.8c3 1.9 9 2 13.2 1.7l-19.5-24.6c-1.1 7.1-.7 16.2 6.3 22.9zM501.3 813.4c2-.2 3.4-.4 3.4-.4s16.6-3.3 24.4-6.6l-20.7-25.2-7.1 32.2z"/><path class="st10" d="M532.8 804.4c-2.8-5.7-3.7-11.1-3.7-15.8l-12.9-14.7-12.6 1.7-5.7 17.6-11.3-15.4-3.1.4s-2.2 4.6-3.2 10.8l19.5 24.6c.5 0 1-.1 1.5-.1l7.2-32.2 20.7 25.2c1.7-.7 3-1.5 3.6-2.1z"/><path class="st5" d="m503.5 775.4-16.9 2.3 11.2 15.4zM533.4 771.5l-17.3 2.3 12.9 14.7c0-10.1 4.4-17 4.4-17z"/><path class="st3" d="M483.5 778.2s-10 21.2 3.1 33.7c5 3.1 18.1 1.2 18.1 1.2s25-5 28.1-8.7c-8.7-18.1.6-32.9.6-32.9l-49.9 6.7z"/><path class="st1" d="M486.6 811.8c-1.9.6 1.2 6.9 5 7.5 3.7.6 38.7-8.1 49.3-10 10.6-1.9 43.7-5.6 46.8-5.6s6.9-5.6 3.7-6.9c-3.1-1.2-36.2 1.9-51.1 4.4-15 2.5-51.8 10-53.7 10.6z"/><path class="st2" d="M476.6 771.5c-5 2.3-1.9 12.9 3.7 11.1 5.6-1.9 52.4-7.7 55.5-9.4 3.1-1.7 1.9-5.6-1.2-8.1-3.1-2.5-53 4-58 6.4zM578.7 275.4l6.4 106s4.3.5 10.6.7c-.1-15.4-1.2-61.1-8.8-107.4-4.8.4-8.2.7-8.2.7z"/><path class="st9" d="M619.7 273.9c-.5-.7-6.8-.7-14.4-.3 8.7 55.9 11.1 98.8 11.6 108.3 5.2-.4 10.4-1.2 15.1-2.4-1.9-64.2-11.1-103.7-12.3-105.6z"/><path class="st7" d="M587 274.8c7.7 46.4 8.7 92 8.8 107.4 5.9.2 13.5.4 21.1-.2-.5-9.5-2.9-52.4-11.6-108.3-6.2.2-13.1.7-18.3 1.1z"/><path class="st8" d="m542.6 244.3 7.7 24.9 32.4 2.5s4.2-13.8 8.6-26.8c-7.7-2.2-23.9-5.1-48.7-.6z"/><path class="st9" d="m535.9 222.4 6.7 21.9c24.8-4.5 41-1.6 48.7.6 3.3-9.8 6.6-19.2 8.2-21.9-28.7-15.6-63.6-.6-63.6-.6z"/><ellipse class="st2" cx="566.5" cy="278.5" rx="23.7" ry="18.7"/><path class="st8" d="M556.6 281c-1.2 5 2.5 102.9 2.5 102.9l16.2-.6s-.6-98.9-3.7-102.9-13.8-4.4-15 .6z"/><path class="st1" d="m686.2 567.9-19.3-4.4L674 580l16.2-6.9c-2.4-3.2-4-5.2-4-5.2z"/><path class="st4" d="M690.1 573.2 674 580l4.2 9.7s.1.3.4.7l16.3-10.2c-1.8-2.7-3.4-5.1-4.8-7zM704.3 601c-1.2-4.4-3-8.8-5.1-12.9l-13.3 9.1c4.1 2.2 10 4.1 18.4 3.8z"/><path class="st1" d="m694.8 580.3-16.3 10.2c.8 1.3 3 4.2 7.4 6.7l13.3-9.1c-1.4-2.8-3-5.4-4.4-7.8zM567 592.7l-19.9 3.4c.3 3.3 1 6.5 2 9.6l16.6-1.3c1-3.9 1.3-7.9 1.3-11.7z"/><path class="st4" d="M557.7 617.8c4.2-3.7 6.6-8.4 7.9-13.5l-16.6 1.3c1.8 5.2 4.6 9.6 8.7 12.2z"/><path class="st1" d="M564 573.6s-6.2-8.1-12.5-1.9c-2.6 2.6-4.4 9.5-4.7 17.3l19.7-3.2c-.8-7.1-2.5-12.2-2.5-12.2z"/><path class="st4" d="m566.5 585.8-19.7 3.2c0 2.3 0 4.7.3 7.1l19.9-3.4c0-2.4-.2-4.8-.5-6.9zM583.3 616.6c3.3-4.4 5.5-9.1 6.8-13.6l-16.8 1.1c2.1 4.2 5.4 8.5 10 12.5z"/><path class="st1" d="M589.5 572.3s-13.1-7.5-16.8 0c-1.6 3.2-3.3 8.9-3.3 15.6h22.7c-.2-9.1-2.6-15.6-2.6-15.6zM570.3 595.8c.6 2.7 1.6 5.4 3 8.2l16.8-1.1c1-3.2 1.5-6.4 1.7-9.4l-21.5 2.3z"/><path class="st4" d="M592 587.9h-22.7c0 2.5.3 5.2.9 7.9l21.5-2.2c.3-2 .4-3.9.3-5.7z"/><path class="st1" d="M612 574.8s-15-5.6-18.1 0c-1.2 2.2-1.6 7.9-.6 14.3l21-.7c-.6-7.8-2.3-13.6-2.3-13.6z"/><path class="st4" d="M608.9 614.7c2.5-3.5 3.9-7.4 4.7-11.5l-14.6 2c2.4 4.1 5.7 7.5 9.9 9.5z"/><path class="st1" d="M595.1 596.5c1 3 2.2 6 3.9 8.7l14.6-2c.5-2.6.8-5.2.9-7.8l-19.4 1.1z"/><path class="st4" d="m614.3 588.4-21 .7c.4 2.4 1 4.9 1.7 7.5l19.4-1c.2-2.6.1-5-.1-7.2zM637.4 586.2l-20.9 2.8c.5 2.7 1.1 5.4 2.1 8.1l19.7-3.7c-.2-2.6-.5-5-.9-7.2z"/><path class="st1" d="M633.8 573.6s-15.6-14.3-17.5-.6c-.7 4.8-.8 10.5.1 16.1l20.9-2.8c-1.3-7.5-3.5-12.7-3.5-12.7zM638.3 593.3l-19.7 3.7c1 2.7 2.3 5.2 4 7.5l15.7-2.9c.2-2.8.2-5.6 0-8.3z"/><path class="st4" d="M622.5 604.6c2.8 4 6.7 7.3 11.9 9.5 2.2-3.8 3.3-8.1 3.8-12.4l-15.7 2.9z"/><path class="st1" d="M654.4 572.3s-8.1-9.4-13.1 1.2c-1.7 3.6-1.9 8.6-1 14l18.2-4.3c-1.8-6.4-4.1-10.9-4.1-10.9z"/><path class="st4" d="M655.7 613.5c3.1-4 4.4-8.7 4.8-13.5l-14 4.2c2.5 4.1 5.7 7.5 9.2 9.3zM658.5 583.2l-18.2 4.3c.5 2.9 1.3 5.9 2.4 8.7l17.5-4.7c-.3-2.8-1-5.7-1.7-8.3z"/><path class="st1" d="m660.2 591.6-17.5 4.7c1 2.8 2.3 5.4 3.8 7.9l14-4.2c.2-2.8.1-5.7-.3-8.4zM677.5 569.8s-13.7-8.7-16.2 2.5c-1 4.7.2 11.4 3 18.1l19.9-6.4c-3.1-7.9-6.7-14.2-6.7-14.2z"/><path class="st4" d="m684.1 584-19.9 6.4c1 2.3 2.1 4.6 3.4 6.8l18.9-6.2c-.7-2.3-1.5-4.7-2.4-7z"/><path class="st1" d="m686.5 591.1-18.9 6.2c1.4 2.4 3 4.7 4.7 6.9l15.7-5.5c-.2-2.6-.8-5.1-1.5-7.6z"/><path class="st4" d="M672.4 604.1c3.2 3.8 6.8 7 10.7 8.8 4.7-2.6 5.7-8.1 5-14.3l-15.7 5.5z"/><path class="st7" d="m684.5 541.3-3.9-17.6-62.4-5.6-68.6 5s-1.4 9-2.5 19.8c70.5 7 121.9.7 137.4-1.6zM546 560.5c-.1 6.3.1 11.9 1.2 15.5 109.2 5.6 143.5-6.9 143.5-6.9l-2.8-12.8c-9 2.4-42.1 8.2-141.9 4.2z"/><path class="st2" d="m687.8 556.3-3.3-15.1c-15.5 2.3-66.9 8.6-137.3 1.5-.6 5.7-1 12-1.2 17.7 99.8 4.1 132.9-1.7 141.8-4.1z"/><path class="st3" d="m567.7 574.2 1.3-48M586.4 574.8l-1.2-51.8M602 576.1l-1.2-49.3M617 576.7l-1.3-51.2M637.6 575.4l-3.2-53M657.5 573.6l-4.3-50.6M673.7 571.1l-5.6-50.6"/><path class="st8" d="M544 381.4c-2.5 1.9-1.2 141 1.2 144.1 2.5 3.1 137.9.2 138.5-1.7.6-1.9-5-141.2-6.9-144.3s-130.3.1-132.8 1.9z"/><path class="st0" d="M632.6 446.9c.5 31.9 12.1 53.5 16.4 60.5l22.2-.6-6.2-115.4-19.4.6c-4.5 7.3-13.5 25.5-13 54.9z"/><path class="st2" d="M632.6 446.9c-.5-29.4 8.5-47.6 13-54.9l-65.2 2c5.7 9.2 16.4 30.6 16 59.3-.5 29.7-6.5 48.8-9.2 56l61.9-1.7c-4.5-7.2-16-28.8-16.5-60.7z"/><path class="st0" d="m580.4 393.9-20.4.6-.4 115.4 27.6-.8c2.7-7.2 8.8-26.2 9.2-56 .5-28.5-10.3-49.9-16-59.2z"/><ellipse class="st9" cx="575.5" cy="417.6" rx="5.3" ry="11.2"/><ellipse class="st9" cx="575.3" cy="468.1" rx="5.3" ry="11.2"/><ellipse class="st9" cx="651.9" cy="415.7" rx="5.3" ry="11.2"/><ellipse class="st9" cx="653.8" cy="463.8" rx="5.3" ry="11.2"/><path class="st1" d="M605.1 440.9c-1.2-2.5-5-4.6-8.7-4-3.7.6-3.7 6.9-1.2 10-5 3.1-8.7 13.7 0 13.7-.6 5.6 3.1 10 6.9 9.4.6 5 9.4 4.4 9.4 4.4s6.2 3.7 10-1.2c7.5 0 7.5-6.9 7.5-6.9s6.2-4.4 3.1-8.7c3.7-6.2-2.5-8.1-2.5-8.1s4-4.8-.8-6.4c2.7-4.8 0-7.9-5.6-8.5-5.6-.6-4.4 1.9-5.6 4.4-1.2 2.5 9.6 21.2-3.5 21.8-13.3.5-7.7-17.4-9-19.9z"/><path class="st3" d="m595.2 446.9 5.1.4M595.2 460.7l5.6-.7M602 470l3.8-5M611.4 474.4l1.8-6.3M621.3 473.1l-1.8-6.8M630.1 466.3l-6.3-4.4M632 457.5l-5-3.1M628.6 443l-4.1-1.7"/></svg>