<svg version="1.1" id="Calque_1" xmlns="http://www.w3.org/2000/svg" x="0" y="0" viewBox="0 0 900 900" style="enable-background:new 0 0 900 900" xml:space="preserve"><style>.st0,.st1,.st2,.st3,.st4{fill:#fff;stroke:#000;stroke-width:4.7827;stroke-linecap:round;stroke-linejoin:round;stroke-miterlimit:10}.st1,.st2,.st3,.st4{fill:none}.st2,.st3,.st4{fill:#004059}.st3,.st4{fill:#0093ed}.st4{fill:#ffce00}.st5{fill:#fff}.st6{fill:#0093ed}.st7,.st8{fill:red;stroke:#000;stroke-width:4.7827;stroke-linecap:round;stroke-linejoin:round;stroke-miterlimit:10}.st8{fill:#ff7300}.st9{fill:#606060}.st11,.st9{stroke:#000;stroke-width:4.7827;stroke-linecap:round;stroke-linejoin:round;stroke-miterlimit:10}</style><path class="st0" d="M792 771.6c-34.6 4.1-141.3 13.8-337.1 7.3-202.5-6.7-316-25.8-348.7-32l-13.5 33.8s47.5 21.5 167.5 20.6c48.6-1.6 130.7 13.8 186.7 17 138.1 8.1 335.4-4.5 360.5-12.6-5.6-11.8-10.7-23.2-15.4-34.1z"/><path class="st1" d="m123.1 790.5 7.2-26M134.8 791.4l4.5-23.3M219.1 799.7l2.7-21.7M232.5 799.7l1.8-19.9M302.5 799.7l2.7-16.4M311.5 799.7l.8-15.5M407.3 813.8l.9-43M430.7 815.9v-18.2M442.3 817.4v-19.7M470.1 819.2v-37.6M491.6 817.4l.9-17.7M556.2 815.6l-5.4-35.8M582.5 818.9l-1.2-21.2M593.9 818.3l-1.8-22.1M661.1 818.3l-1.8-18.6M672.8 817.1l-1.8-19.4M749.6 812l-4.2-20.9M759.8 810.2l-4.5-18.8"/><path class="st2" d="m174.2 577.1-68 169.7c13.9 2.7 42.4 7.7 86.2 13 13-47.7 36-120.1 56.2-184.4l-74.4 1.7z"/><path class="st3" d="M248.6 575.5c-20.1 64.2-43.2 136.7-56.2 184.4 26.4 3.2 58.2 6.6 95.8 9.7 9-46.6 24.3-124.9 38.1-195.7l-77.7 1.6zM657.8 608.6l-73.7-14.2c11.3 72.9 27.1 142.5 38 186.3 32.9-.5 61.2-1.4 84.8-2.6-9.9-38.4-26.6-99.5-49.1-169.5z"/><path class="st2" d="M792 771.6c-37.6-87.5-51.1-146.9-51.1-146.9l-83.2-16c22.5 70 39.2 131 49.2 169.5 42.4-2.1 70.3-4.9 85.1-6.6z"/><path class="st3" d="m461.1 570.8-134.9 2.9c-13.8 70.8-29.1 149.1-38.1 195.7 46.8 3.8 102.2 7.2 166.8 9.4 65.5 2.2 121.1 2.5 167.3 1.9-10.8-43.8-26.7-113.4-38-186.3l-123.1-23.6zM325.8 159.4l-58.3-5.6s-24 219.4-82.7 373.7c13.9 4.2 38.5 11.2 72.9 18.8 4.5-14.6 8.8-28.4 12.6-41 25.5-85.5 53.2-253.8 55.5-345.9zM613.6 482c12.9 33.7 24.6 67.3 35.3 99.4 34-2.6 58.6-6.6 73.4-9.5-33.7-90.6-100-267.4-100.7-378.7-10.8-3.6-27.3-6.8-46-9.6-4.6 72.1-3.3 189.7 38 298.4z"/><path class="st2" d="M613.6 482c-41.3-108.7-42.6-226.3-38-298.3-29.3-4.4-64-7.7-90.4-9.9L497 331.4l35 44.8s31.4 73.8 49.6 201.2c.3 2.2.7 4.4 1 6.6 25-.1 47.2-1.1 66.3-2.6-10.7-32-22.4-65.6-35.3-99.4zM367.6 163.5l-41.8-4.1c-2.3 92-30 260.3-55.6 345.9-3.8 12.6-8 26.4-12.6 41 20.4 4.5 44.2 9.4 71.2 14 12.1-62 22.7-116.1 26.5-134.9 8.7-42.3 11.6-201 12.3-261.9z"/><path class="st2" d="m532 376.2-35-44.8-11.8-157.5c-24-2-41.1-3-41.1-3l-76.5-7.4c-.8 60.9-3.6 219.6-12.3 262-3.8 18.8-14.5 72.9-26.5 134.9 37.5 6.5 81.2 12.7 130.6 17.6 46.8 4.6 87.9 6.2 123.2 6-.3-2.2-.7-4.4-1-6.6C563.4 450.1 532 376.2 532 376.2z"/><path class="st0" d="M722.3 571.9c-35 6.9-124.2 19.6-263 6-145-14.2-241-40.3-274.6-50.5-6.4 16.8-13.2 32.9-20.4 47.8 13.5 6.3 148 39.5 298.6 48.4s257.4 7.2 278 .9c-2.1-8.4-9-27-18.6-52.6z"/><path class="st1" d="m196.7 583.4 10.7-21.6M206.5 586.1l9.9-20.7M276.5 599.5l8.9-20.6M285.4 602.8l8.1-23M617.2 627.3l-1.8-19.7M627.9 628.2l-.9-20.6M693.6 626.4l-3.8-22.4M707.8 627.3l-4.5-23.3M346.4 610.3l3.6-22.4M356.2 611.2l3.6-20.7M558 627.3l-1.8-21.5"/><path class="st2" d="M348.2 145.8c13.5-12.6 11.7-63.7 28.7-81.6s128.8-11.7 145 13.5c16.1 25.1 16.4 84.3 23.6 91.5 7.2 7.2-80.7 29.6-80.7 29.6l-118.4-9-13.4-39.6s1.8 8.1 15.2-4.4z"/><path class="st4" d="M504.2 79.4c-3.6-3.6-13.5-4.5-17-.9-2.7-6.3-15.2-7.2-17.9-1.8-1.8-5.4-19.7-6.3-22.4 0-2.7-5.4-17-4.5-20.6.9-3.6-6.3-18.8-3.6-22.4 0-3.6-3.6-14.3-6.3-17 0-1.4 3.2 3.6 16.6 8.7 32.2 3.9-2.6 10.8-3.7 17.3 1 1.8-7.2 26-9 28.7-.9 3.6-6.3 29.6-8.1 32.3 0 4.4-5.2 21.1-4.2 27.3-.2 2.8-17.3 4.7-28.6 3-30.3z"/><path class="st1" d="m403.8 77.6 4.4 18.8M426.2 77.6l2.7 15.2M446.8 76.7v16.1M469.2 76.7l.9 15.2M487.2 78.5v14.3"/><path class="st5" d="M498 128.1c1.1-6.7 2.1-12.9 3-18.5-6.2-4-22.8-5-27.3.2-2.7-8.1-28.7-6.3-32.3 0-2.7-8.1-26.9-6.3-28.7.9-6.5-4.7-13.4-3.6-17.3-1 2 6.1 3.9 12.6 5.6 18.9 19.7-1.6 65-4.7 97-.5z"/><path class="st6" d="M401 128.7c2.3 9.1 3.9 17.9 3.7 25.1-.9 25.1-8.1 26-8.1 26l39.5 11.7s40.4-1.8 55.6-9c1.3-20 3.8-38.6 6.3-54.4-32-4.2-77.3-1.1-97 .6z"/><path class="st1" d="M473.7 109.9c-2.7-8.1-28.7-6.3-32.3 0-2.7-8.1-26.9-6.3-28.7.9-6.5-4.7-13.4-3.6-17.3-1 4.8 14.9 9.7 31.8 9.3 44.1-.9 25.1-8.1 26-8.1 26l39.5 11.7s40.4-1.8 55.6-9c1.9-28.4 6.2-54.2 9.3-72.9-6.2-4.1-22.8-5-27.3.2zM412.7 110.8l3.6 9.8M441.4 109.9l.3 8.9M473.7 109.9v8.1"/><path class="st7" d="m324.9 835.4-11.7-9.9s20.6-3.6 37.7-20.6c29.6-5.1 19.7 0 19.7 0V821l-45.7 14.4z"/><path class="st7" d="M366.1 795s-15.2-1.1-18.8 2.7-1.5 7.5 3 10.2 20.3-1.2 20.3-1.2l-4.5-11.7z"/><path class="st4" d="m363.1 809-1.4 3.9s-31.4 17-36.8 22.4.3 8.1 6.6 6.3c0 6.3 7.8 12 10.5 4.8 11.7-3.6 35.9-8.4 35.9-8.4l15.8-30.7-30.6 1.7z"/><path class="st8" d="M331.5 841.6c1.5-5.4 6.9-7.2 10.5-8.1"/><path class="st0" d="m371.5 839.8-7.2-31.4 29.6-1.8c3.6 3.6 3.6 19.7 3.6 19.7l-7.2 9-18.8 4.5z"/><path class="st4" d="m394.8 781.6-30.5-4.5.8 22.3 29.2-2.2z"/><path class="st7" d="m393.9 806.7.4-9.5-29.2 2.2.1 3.7-2.1 5.9 30.5-1.7z"/><path class="st0" d="M401.1 837.2c1.8-2.7-3.6-10.8-3.6-10.8s-49.6 11.7-54.1 16.1c-4.5 4.5 2.1 10.8 2.1 10.8s53.8-13.5 55.6-16.1z"/><path class="st7" d="m578.1 836 11.7-9.9s-20.6-3.6-37.7-20.6c-29.6-5.1-19.7 0-19.7 0v16.1l45.7 14.4z"/><path class="st7" d="M536.9 795.6s15.2-1.1 18.8 2.7 1.5 7.5-3 10.2-20.3-1.2-20.3-1.2l4.5-11.7z"/><path class="st4" d="m539.9 809.6 1.4 3.9s31.4 17 36.8 22.4c5.4 5.4-.3 8.1-6.6 6.3 0 6.3-7.8 12-10.5 4.8-11.7-3.6-35.9-8.4-35.9-8.4l-15.8-30.7 30.6 1.7z"/><path class="st8" d="M571.6 842.2c-1.5-5.4-6.9-7.2-10.5-8.1"/><path class="st0" d="m531.5 840.4 7.2-31.4-29.6-1.8c-3.6 3.6-3.6 19.7-3.6 19.7l7.2 9 18.8 4.5z"/><path class="st4" d="m508.2 782.1 30.5-4.4-.8 22.3-29.2-2.2z"/><path class="st7" d="m509.1 807.3-.4-9.5 29.2 2.2-.1 3.7 2.1 5.9-30.5-1.7z"/><path class="st0" d="M501.9 837.7c-1.8-2.7 3.6-10.8 3.6-10.8s49.6 11.7 54.1 16.1c4.5 4.5-2.1 10.8-2.1 10.8s-53.8-13.4-55.6-16.1z"/><path class="st2" d="m550.5 732.2-.5-70.9-16.1-61.9-4.5-76.2-84.3 4.5-53.8 11.7-7.2 17-1.8 79.8-11.7 43-7.4 40.4c125.9-15.6 173.3 4.1 187.3 12.6z"/><path class="st8" d="m393.9 522.4-.9 80.7 135.4 9.9 5.4-52.9-9.9-47.6z"/><path class="st0" d="M389.4 609.4s78.9 1.8 138.1 14.3c4.5-6.3-3.6-17-3.6-17l-131.8-9.9-2.7 12.6z"/><path class="st3" d="m550.7 766.1-.1-17.9c-11.2-6.6-57.6-26.7-190-14.3l-5 27c23 3.1 104.7 12.3 195.1 5.2z"/><path class="st0" d="m355.6 760.9-3.8 20.6s95.1 12.6 199.1 4.5l-.1-19.9c-90.5 7.1-172.2-2.1-195.2-5.2z"/><path class="st1" d="m396.6 786 2.7-58.3M449.5 786.9l2.7-57.4M491.6 788.7v-58.3"/><path class="st0" d="m399.2 716-.6 15.1c3.5-.2 7-.4 10.4-.5l-.6-15.3c-3 .2-6.1.4-9.2.7zM408.4 715.3l.6 15.3c4.7-.2 9.3-.4 13.6-.4v-15.7c-4.6.2-9.3.5-14.2.8zM450.4 713.8l.7 16.3c3.9.1 7.6.2 11.2.4l.6-16.4c-4-.2-8.1-.3-12.5-.3z"/><path class="st0" d="M436 713.9v12-12c-4.3.1-8.8.2-13.5.5v15.7c10.2-.2 19.7-.2 28.5-.1l-.7-16.3c-4.5.1-9.2.1-14.3.2zM384.4 717.3l1 14.6c4.5-.3 8.8-.6 13.1-.8l.6-15.1c-4.7.3-9.6.8-14.7 1.3z"/><path class="st0" d="M371.1 718.7 370 733c5.3-.4 10.5-.8 15.5-1.2l-1-14.6c-4.4.5-8.8 1-13.4 1.5z"/><path class="st0" d="m363.2 719.7-2.6 14.2c3.2-.3 6.3-.6 9.4-.8l1.1-14.3c-2.6.2-5.2.5-7.9.9zM523.7 721.7l-1.7 16.1c6.3 1.5 11.4 3 15.6 4.5l.5-16.1c-4-1.4-8.7-3-14.4-4.5zM550.5 732.2c-2.8-1.7-6.8-3.8-12.4-5.9l-.5 16.1c6.4 2.3 10.5 4.4 13 5.8l-.1-16zM462.9 714l-.6 16.4c5.6.2 10.9.6 15.9 1v-16.6c-4.8-.3-9.9-.6-15.3-.8z"/><path class="st0" d="m505.9 718-.6 16.6c6.3 1 11.8 2.2 16.7 3.3l1.7-16.1c-5.1-1.4-11-2.7-17.8-3.8z"/><path class="st0" d="M490.7 715.9v16.7c5.3.6 10.1 1.3 14.6 2l.6-16.6c-4.6-.8-9.7-1.5-15.2-2.1z"/><path class="st0" d="M478.2 714.8v16.6c4.4.4 8.6.8 12.6 1.2v-16.7c-4-.4-8.2-.8-12.6-1.1zM515.9 372.6l-80.8-12.5-58.2 8.9-7.5 31.6 157.6 4.9z"/><path class="st0" d="m549 470.4-22-64.9-157.6-4.9-15.8 66.2z"/><path class="st1" d="m517.6 454.2-5.3-32.2M528.4 455.1l-8.1-30.5M371.5 447.1l4.5-27.8M382.2 448l2.7-29.6"/><path class="st9" d="M390.3 476.7s7.2-52 9-69.1c9-12.6 23.3-19.7 23.3-19.7s38.6-3.6 78 21.5c5.4 56.5 15.2 76.2 15.2 76.2l-43 24.2-82.5-33.1z"/><path class="st1" d="m403.3 472.7 4.9-72.3M504.2 490.1C492.5 461.4 489 404 489 404M411.8 464.1s17.9 28.7 25.1 33.2c7.2 4.5 29.3 3.3 33.8-1.2s12-30.2 12-30.2l-5.4-26.9-26.9-24.2-16.1 4.5-14.3 22.4-8.2 22.4z"/><path class="st3" d="M362.3 475.5s38-3.9 56.8-.3 59.2 5.1 59.2 5.1 35.9.9 45.7 6.3 3.6 21.5 3.6 21.5l-74.5 70.8-82.4-83.4-8.4-20z"/><ellipse class="st4" cx="460.3" cy="620.3" rx="16.1" ry="13.9"/><circle class="st4" cx="414.5" cy="562.7" r="10.8"/><circle class="st4" cx="435.1" cy="590.5" r="10.8"/><circle class="st4" cx="488.1" cy="589.6" r="10.8"/><circle class="st4" cx="504.2" cy="560.1" r="10.8"/><path d="m555.4 196.9-1.9-33.2s-17-2.7-19.7-.9 0 12.6-2.7 15.2c-2.7 2.7-10.8 4.5-13.5.9s.9-11.7-.9-16.1c-1.8-4.5-17-2.7-18.8 0s0 12.6.9 15.2c.9 2.7-13.5 4.5-13.5 0s0-13.5-.9-17c-.9-3.6-17.9-3.6-18.8-.9-.9 2.7.9 13.5-.9 17-1.8 3.6-17.3 3-17.9-.9-.6-3.9-.3-16.1-1.2-18.8s-22.1-4.5-21.2-.9c.9 3.6-.9 12.6-2.7 15.2-1.8 2.7-16.1 4.5-17 0s.9-13.5 0-17.9c-.9-4.5-15.2-2.7-18.8 0s-.9 11.7-1.8 15.2c-.9 3.6-17.9 3.6-17.9 0s1.8-12.6-.9-15.2c-2.7-2.7-21.5-1.8-21.5-1.8L323 171.8l2.2 7.1c131.5-.9 209.7 13.6 230.2 18z" style="fill:#ffce00"/><path class="st5" d="m325.2 178.9 14.9 49.4 26 36.8 156 11.7 34.1-66.4-.8-13.5c-20.5-4.4-98.7-18.9-230.2-18z"/><path class="st1" d="M343.7 152s18.8-.9 21.5 1.8c2.7 2.7.9 11.7.9 15.2 0 3.6 17 3.6 17.9 0s-1.8-12.6 1.8-15.2c3.6-2.7 17.9-4.5 18.8 0 .9 4.5-.9 13.5 0 17.9.9 4.5 15.2 2.7 17 0s3.6-11.7 2.7-15.2c-.9-3.6 20.3-1.8 21.2.9s.6 14.9 1.2 18.8c.6 3.9 16.1 4.5 17.9.9 1.8-3.6 0-14.3.9-17s17.9-2.7 18.8.9c.9 3.6.9 12.6.9 17 0 4.5 14.3 2.7 13.5 0-.9-2.7-2.7-12.6-.9-15.2 1.8-2.7 17-4.5 18.8 0s-1.8 12.6.9 16.1c2.7 3.6 10.8 1.8 13.5-.9s0-13.5 2.7-15.2c2.7-1.8 19.7.9 19.7.9l2.7 46.6-34.1 66.4L366 265l-26-36.8-17-56.5 20.7-19.7z"/><path class="st3" d="m390.3 268.6 1.8-70.8 102.2 1.8-3.6 70.8z"/><circle class="st3" cx="584.9" cy="172.7" r="42.6"/><path class="st1" d="M584.9 130.1v85.2M570.4 132.7l29.1 80M557.5 140.1l54.8 65.2M548 151.4l73.8 42.6M543 165.3l83.9 14.8M543 180.1l83.9-14.8M548 194l73.8-42.6M557.5 205.3l54.8-65.2M570.4 212.7l29.1-80"/><circle class="st3" cx="307.6" cy="141.3" r="42.6"/><path class="st1" d="M307.6 98.7v85.2M293 101.3l29.1 80M280.2 108.7l54.7 65.2M270.7 120l73.8 42.6M265.6 133.9l83.9 14.8M265.6 148.7l83.9-14.8M270.7 162.6l73.8-42.6M280.2 173.9l54.7-65.2M293 181.3l29.1-80"/><circle class="st3" cx="345.9" cy="220.7" r="42.6"/><path class="st1" d="M345.9 178v85.2M331.4 180.6l29.1 80.1M318.6 188l54.7 65.3M309.1 199.4l73.7 42.5M304 213.2l83.9 14.8M304 228l83.9-14.8M309.1 241.9l73.7-42.5M318.6 253.3l54.7-65.3M331.4 260.7l29.1-80.1"/><circle class="st3" cx="546.3" cy="238.1" r="42.6"/><path class="st1" d="M546.3 195.6v85.1M531.8 198.1l29.1 80.1M519 205.5l54.7 65.3M509.5 216.8l73.7 42.6M504.4 230.8l83.9 14.7M504.4 245.5l83.9-14.7M509.5 259.4l73.7-42.6M519 270.8l54.7-65.3M560.9 198.1l-29.1 80.1"/><path class="st3" d="M480 216.6c-5.4-2.7-68.2-5.4-74.4-.9-6.3 4.5-3.6 25.1 1.8 30.5 5.4 5.4 67.3 7.2 71.7 4.5 4.5-2.7 6.3-31.4.9-34.1zm-11.1 24.9c-3.2 1.3-47.9.4-51.7-2.1-3.9-2.5-5.8-12.1-1.3-14.2 4.5-2.1 49.8-.8 53.7.4 3.9 1.3 2.5 14.6-.7 15.9z"/><path class="st0" d="M416.3 235.4c-3.6.9-9.9 1.8-9 10.8s14.3 5.4 18.8.9 11.7-60.1 15.2-59.2c3.6.9 7.5 58.6 16.4 64 9 5.4 23.3.9 23.3-6.3s-8.4-3-13.8-7.5-14.9-75.3-24.5-76.2c-9.3-.9-22.8 72.6-26.4 73.5z"/><path class="st6" d="M440.6 213.4c-16.3-.4-32 .2-35 2.3-6.3 4.5-3.6 25.1 1.8 30.5 2.2 2.2 14.2 3.8 27.8 4.8l5.4-9.2c-11.1-.4-21.6-1.2-23.4-2.4-3.9-2.5-5.8-12.1-1.3-14.2 2-1 12.6-1.2 23.7-1.1"/><path class="st1" d="M440.6 213.4c-16.3-.4-32 .2-35 2.3-6.3 4.5-3.6 25.1 1.8 30.5 2.2 2.2 14.2 3.8 27.8 4.8"/><path class="st1" d="M439.6 224.1c-11.2-.1-21.7.1-23.7 1.1-4.5 2.1-2.6 11.7 1.3 14.2 1.8 1.1 12.3 2 23.4 2.4"/><path class="st0" d="M419.1 228.9c-1.2 3.9-2.2 6.3-2.8 6.5-3.6.9-9.9 1.8-9 10.8s14.3 5.4 18.8.9c1.4-1.4 3.1-7.9 4.8-16.1"/><circle class="st1" cx="403.3" cy="487.5" r="14.8"/><circle class="st1" cx="403.3" cy="487.5" r="6.3"/><circle class="st1" cx="426.2" cy="507.1" r="14.8"/><circle class="st1" cx="426.2" cy="507.1" r="6.3"/><circle class="st1" cx="442.3" cy="533.1" r="14.8"/><circle class="st1" cx="442.3" cy="533.1" r="6.3"/><circle class="st1" cx="467.4" cy="546.6" r="14.8"/><circle class="st1" cx="467.4" cy="546.6" r="6.3"/><circle class="st1" cx="481.8" cy="517.9" r="14.8"/><circle class="st1" cx="481.8" cy="517.9" r="6.3"/><path class="st1" d="M485.8 480.5c-3.2 2.7-5.3 6.8-5.3 11.4 0 8.2 6.6 14.8 14.8 14.8s14.8-6.6 14.8-14.8c0-3.6-1.3-7-3.5-9.6-7.4-.9-15.3-1.5-20.8-1.8z"/><circle class="st1" cx="495.2" cy="491.9" r="6.3"/><path class="st0" d="M436.9 493.7s10.5 39.5 17.3 39.5c6.9 0 16.4-37.1 16.4-37.1l-33.7-2.4z"/><path class="st11" d="M442.3 469.5c-1.8-6.3-12.6-9.9-12.6-9.9l-1.4-31.1-8.4 13.2-8.1 22.4s6 9.6 12.4 18.5c9.3-8.3 19.7-7.7 18.1-13.1zM477.3 439l-9.5-8.5c.7 7.5 1.7 19.1 1.7 24.4 0 8.1-12 5.7-10.2 12.9 1.4 5.7 11.5 12.1 16.9 17.6 3.4-8.8 6.5-19.4 6.5-19.4l-5.4-27z"/><path class="st3" d="M469.5 454.8c0-5.3-1-17-1.7-24.4l-17.4-15.7-16.1 4.5-5.9 9.3 1.4 31.1s10.8 3.6 12.6 9.9l17-1.8c-1.8-7.2 10.1-4.8 10.1-12.9z"/><path class="st0" d="m459.4 467.7-17 1.8c1.6 5.4-8.8 4.8-18.1 13.2 4.7 6.6 9.7 12.8 12.7 14.6 7.2 4.5 29.3 3.3 33.8-1.2 1.6-1.6 3.6-5.9 5.5-10.8-5.4-5.5-15.5-11.9-16.9-17.6z"/><path class="st7" d="M418.1 449.8s12.6-22.4 17.9-21.5c5.4.9 11.7 18.8 11.7 18.8s9.9-18.8 15.2-18.8c5.4 0 12.6 24.2 12.6 24.2l10.8-8.5s-5.4-33.6-12.6-38.1-42.1-6.3-50.2-.9c-8.1 5.4-11.7 41.3-11.7 41.3l6.3 3.5z"/><circle class="st4" cx="409.6" cy="455" r="13.9"/><circle class="st4" cx="486.3" cy="457.8" r="13.9"/><ellipse class="st0" cx="462.6" cy="449.6" rx="6.9" ry="5.2"/><ellipse class="st0" cx="438.1" cy="449.6" rx="6.9" ry="5.2"/><path class="st1" d="M443.2 484.4h17.7"/><path class="st6" d="m398.7 372.6 104.6 4.5s-.9 27.8-2.7 32.3-15.2 4.5-19.7 0c-.9 5.4-16.1 4.5-20.6 0-.9 4.5-18.8 4.5-24.2-.9-.9 3.6-17.9 4.5-21.5 0-2.7 3.6-13.5 1.8-15.2-.9s-.7-35-.7-35z"/><path class="st1" d="m481.5 398.6-.6 10.8"/><path class="st5" d="m503.3 377.1-104.6-4.5s-.2 5.7-.3 12.6L503 389c.2-4.7.3-11.9.3-11.9z"/><path class="st1" d="M414.5 397.7v10.8M460.6 398.6l-.3 10.8M436.6 398l.3 12.3M398.7 372.6s-1.2 32.3.6 35 12.6 4.5 15.2.9c3.6 4.5 20.6 3.6 21.5 0 5.4 5.4 23.3 5.4 24.2.9 4.5 4.5 19.7 5.4 20.6 0 4.5 4.5 17.9 4.5 19.7 0s2.7-32.3 2.7-32.3l-104.5-4.5z"/><path class="st9" d="m522.1 546.6 1.8 60.1 24.2 3.6-4.4-66.4-9.9-3.6zM374.2 543.9v62.8l23.3-.9 1.8-61.9-15.3-10.8z"/><path class="st4" d="M370.6 679.3c-4.5-4.5-7.2-21.5-5.4-38.6s9-34.1 9-34.1 18.8-4.5 23.3-.9c8.1 9.9-1.8 18.8-1.8 18.8s8.1 8.1 10.8 12.6 3.3 15.5 2.4 18.2c-.9 2.7-5.7 5.1-7.5 2.4-1.8-2.7-3.9-10.8-9.3-14.3 1.8 17 8.1 20.6 8.1 26s-4.5 8.1-10.8 5.4c-3.6 5.4-9.9 3.6-9.9 3.6s-4.4 5.4-8.9.9z"/><path class="st1" d="M374.2 647c0 19.7 5.4 31.4 5.4 31.4M382.2 646.1c0 19.7 7.2 28.7 7.2 28.7"/><path class="st4" d="M523.9 606.7c-4.5 4.5-2.7 14.3-2.7 14.3s-11.7 12.6-14.3 26.3c-1.8 7.2 3 10.8 7.5 9.9 4.5-.9 3.9-13.2 10.2-17.6 3.6 12.6-6.9 24.5-6 32.6s1.8 8.1 6.3 4.5c1.8 5.4 6.3 8.1 10.8 4.5 4.5 2.7 9.6 0 11.4-6.3 1.8-6.3 12-42.1-.6-49.3 3.6-6.3 4.5-12.6 1.8-15.2-2.9-2.8-19.9-8.2-24.4-3.7z"/><path class="st1" d="M524.8 676.6c3.6-7.2 9.9-26 9.9-40.4M535.6 681.1c3.6-7.2 9-28.7 9-43"/><path class="st3" d="M365.3 510.7c49.3 27.8 88.2 97.7 95.4 98.6 7.2.9 39.2-78 87.6-98.6-2.7-17-19.7-25.1-24.2-24.2S465.8 552 455 562.1c-9-10.2-67.3-87.6-92.7-86.7-3.3.1-3.3 27.3 3 35.3z"/><path class="st1" d="M361.3 484.7c43 31.4 90 96 96.3 96.8 6.3.9 56.5-73.5 70.8-70.8"/><path class="st4" d="M359.3 509.8c-6.3 0-11.4 27.8-3.3 36.8 8.1 9 28.7 1.8 26.9-12.6-1.9-14.3-17.3-24.2-23.6-24.2zM531.2 510.3c-5.4-3.1-23.6 18.6-21 30.4s24.1 15.7 29.6 2.3-3.2-29.6-8.6-32.7z"/><path class="st7" d="M569.4 517.9c-4.4-4.5-27.9 11.2-28.6 23.3-.8 12 18.7 21.8 27.7 10.5s5.3-29.3.9-33.8zM401.1 510.3c-5.4-3.1-23.6 18.6-21 30.4s24.1 15.7 29.6 2.3c5.5-13.4-3.1-29.6-8.6-32.7z"/><path class="st3" d="m363 277 2.3 75.9 83.3 10.8 82.5-8.1-.2-71.8z"/><path class="st2" d="M378.9 287.4h20.6v57.4h-20.6zM493.9 288.3h20.6v57.4h-20.6zM397.5 264.1s2.1-18.2 17.3-15.5 14.9 17.3 14.9 17.3-1.5-16.1 14.9-15.2 11.1 15.2 11.1 15.2 5.4-14.3 18.8-13.5c13.5.9 9.9 17 9.9 17l-50.2 3.6-36.7-8.9z"/><path class="st6" d="m531.1 355.6-24.9-.4 1.2 21.3c15.2-.1 24.6-.2 24.6-.2l-.9-20.7zM423.7 353.9l-2.3 21.6c7.1.2 14.2.4 21.2.5l.6-21.8-19.5-.3zM382.2 353.2v20.5c5.3.3 10.6.6 16 .8l-.5-21.1-15.5-.2z"/><path class="st5" d="m365.3 352.9.9 19.7c5.3.4 10.6.8 16.1 1.1v-20.5l-17-.3zM397.7 353.4l.5 21.1c7.7.4 15.4.7 23.1.9l2.3-21.6-25.9-.4zM443.2 354.2l-.6 21.8c6 .1 12 .2 17.8.3v-21.8l-17.2-.3zM481.8 354.8l.7 21.7c9.3.1 17.8 0 24.9 0l-1.2-21.3-24.4-.4z"/><path class="st6" d="M460.3 354.5v21.8c7.8.1 15.2.2 22.2.2l-.7-21.7-21.5-.3z"/><path class="st1" d="m365.3 352.9.9 19.7c70.8 5.4 165.9 3.6 165.9 3.6l-.9-20.6-165.9-2.7z"/><path class="st6" d="m399.9 263-.5 15.5 16 .6v-15.5zM362.6 261.4l.4 15.6 18.3.8v-15.6z"/><path class="st5" d="M415.4 263.6v15.5l20.9.9.5-15.5zM381.3 262.2v15.6l18.1.7.5-15.5zM459.8 265.4l-1 15.5 20.7.9.9-15.5z"/><path class="st6" d="m480.4 266.3-.9 15.5 20.5.7.8-15.4zM436.8 264.5l-.5 15.5 22.5.9 1-15.5z"/><path class="st5" d="m500.8 267.1-.8 15.4 22.4 1 .9-15.5z"/><path class="st6" d="m530.8 268.3-7.5-.3-.9 15.5 8.5.3z"/><path class="st1" d="m530.8 268.3-168.2-6.9.4 15.6 167.9 6.8z"/><path class="st0" d="M412.4 340.3c-.3-4.5 44.5-42.1 49.9-42.1s9.9 6.3 8.1 9.9-36.8 35-43 38.6-14.7-1.9-15-6.4z"/><path class="st0" d="M417 295.2c4.4-.9 47.7 38.6 48.4 43.9s-4.9 10.6-8.7 9.3c-3.8-1.3-39.5-31.8-43.9-37.5-4.4-5.8-.2-14.9 4.2-15.7z"/><ellipse class="st0" cx="438.9" cy="322" rx="19.3" ry="14.8"/></svg>