<svg version="1.1" id="Calque_1" xmlns="http://www.w3.org/2000/svg" x="0" y="0" viewBox="0 0 900 900" style="enable-background:new 0 0 900 900" xml:space="preserve"><style>.st0,.st1,.st2,.st3,.st4{fill:#fdce12;stroke:#000;stroke-width:3.9809;stroke-linecap:round;stroke-linejoin:round}.st1,.st2,.st3,.st4{fill:#fff}.st2,.st3,.st4{fill:none}.st3,.st4{fill:#633f00}.st4{fill:#006b70}.st5{fill:#fff}.st6{fill:#fdce12}.st7{fill:red;stroke:#000;stroke-width:3.9809;stroke-linecap:round;stroke-linejoin:round}.st8{fill:#fcaf15}.st12,.st9{fill:#0a6600;stroke:#000;stroke-width:3.9809;stroke-linecap:round;stroke-linejoin:round}.st12{fill:none;stroke-width:2.3886}</style><path class="st0" d="m426.1 534.9 1.4 37.3 29.6-3.8 9.6-12.9s-13.9-24.8-14.3-26.3c-.5-1.5-26.3 5.7-26.3 5.7z"/><path class="st1" d="M672.1 636.8s87.9 63.7 119.1 79.6l18.5-37.6s-94.3-40.1-119.1-58.6c-5.1.1-18.5 16.6-18.5 16.6z"/><path class="st2" d="M787.4 697.4s-87.9-49.7-108.3-66.9"/><path class="st3" d="m437.6 600.8 9.1 78.8 24.4-2.4s3.3-75.5 1-82.2c-2.5-6.6-34.5 5.8-34.5 5.8z"/><path class="st1" d="m437.6 600.8 2.2 19.5 33-.4c.2-12.4 0-22.6-.8-24.8-2.4-6.7-34.4 5.7-34.4 5.7zM623.1 586.5c0 14 45.9 57.3 45.9 57.3s20.4-15.3 28-29.3c-22.3-11.5-47.8-34.4-47.8-34.4l-16.6-13.4-17.8 3.2c0 .1 8.3 2.6 8.3 16.6z"/><path class="st2" d="m642.8 599.9 37 35M649.2 591.6l38.9 32.5"/><path class="st4" d="m667.8 511.5.5 26.3s-15.3-2.4-21 1.4c-5.7 3.8-2.4 13.4 0 16.7 2.4 3.3 22 1.9 22 1.9l1.9 24.8s-27.7 0-43-7.6-14.8-43.9-2.4-53.5c12.4-9.5 42-10 42-10z"/><path class="st1" d="M455.2 557.4s-104.6 24.4-174.9 39.2c1 16.7 17.2 52.1 17.2 52.1s120.9-47.3 183.9-53.5c63.1-6.2-6.7-36.3-6.7-36.3l-19.5-1.5z"/><path class="st2" d="M306.6 626.6c29.1-11 162-43.5 162-43.5"/><path class="st1" d="M531.7 571.7c-12.4-7.6-83.1-78.3-93.6-80.7-10.5-2.4-42.5-1.4-46.8 13.9-1 8.6 2.4 37.7 2.4 37.7l.5 54.9 1.4 83.6s9.1-1 22.9-.5c14.8-70.7 14.3-109.4 14.3-109.4l.5-31.5s2.4-4.8-.5-9.6c9.1 16.7 28.7 41.6 28.7 41.6l42 5.7s14.8-4.7 28.2-5.7z"/><path class="st2" d="M421.8 526s7-2.5 11 4.1"/><path class="st3" d="m394.5 621.9 1 59.2s9.1-1 22.9-.5c4.8-23.1 8-42.7 10.2-58.7h-34.1z"/><path class="st1" d="M511.1 549.7s-20.5-43.5-26.3-71.2c-5.7-27.7 73.6-26.8 73.6-26.8s24.8 22 21.5 41.6c9.1 16.7 29.6 42.5 29.6 42.5l-17.7 8.6-80.7 5.3z"/><path class="st3" d="M500 524.2c-5.8-14.3-12.3-31.9-15.2-45.7-5.7-27.7 73.6-26.8 73.6-26.8s24.8 22 21.5 41.6c1.8 3.4 4.2 7.1 6.7 11-22.9 3.8-68.3 12-86.6 19.9z"/><path class="st5" d="M433.3 539.7c-.5-2.4-42-3.3-44.4-1.4-1.2 1-1.6 14.2-2.4 27.7-.8 13.5-2.1 27.2-1.4 29.1 1.4 3.8 11 4.3 15.3 0 2.9 3.8 10.5 3.3 13.9 1 3.3-2.4 1-22.5 1-22.5s18.6 1 20.1-1c1.2-1.9-1.7-30.6-2.1-32.9z"/><path class="st6" d="M386 572.3c-.3 4.2-.6 8.2-.8 11.6h30.7c-.2-5.3-.8-10.4-.8-10.4s-27.7-1-29.1-1.2z"/><path class="st2" d="m415.1 573.6.5-15.8M422.3 573.1v-15.3M428 573.1l-.5-15.3M400.3 595.1l1.9-38.2M391.7 591.3l2.9-34.9M407.5 591.8l.9-35.4"/><path class="st6" d="M435.1 558.5c-.6-8.4-1.6-17.5-1.8-18.8-.5-2.4-42-3.3-44.4-1.4-.9.7-1.3 8.6-1.9 18.3l48.1 1.9z"/><path class="st2" d="M433.3 539.7c-.5-2.4-42-3.3-44.4-1.4-1.2 1-1.6 14.2-2.4 27.7-.8 13.5-2.1 27.2-1.4 29.1 1.4 3.8 11 4.3 15.3 0 2.9 3.8 10.5 3.3 13.9 1 3.3-2.4 1-22.5 1-22.5s18.6 1 20.1-1c1.2-1.9-1.7-30.6-2.1-32.9z"/><path class="st1" d="m531.7 571.7-12.4-10.1c-3.4 3.9-11.5 8.7-27.3 6.8s-32 1-36.8 7.2c9.6 5.3 44.4 46.8 62.1 55.4 32 17.2 82.7 7.6 97.5-12.4 14.8-20.1 10-47.3 10-47.3l-3.3-19.6-89.3 11-.5 9z"/><path class="st2" d="m531.7 571.7 5.4 7.2M536.5 570.3l4.7 5.2M530.7 581.3c-3.8-7.6-12.4-17.2-12.4-17.2M525 582.7c-5.7-11.5-11-16.2-11-16.2M461.4 571.7c6.7 2.9 20.1 19.1 20.1 19.1M470.7 569l18 21.3M479.6 568.8l15.8 20.1M487.7 568.4l13.9 19.5M508.7 587l-11.9-17.7M513 586l-9.5-16.7M518.8 585.1l-9.6-16.3M489.8 607.7s47.1-8.3 57.6-18.3 10-23.9 10-23.9"/><path class="st2" d="M496.8 614.7s45.9-11 57.8-22.9c11.9-11.9 11-26.8 11-26.8"/><path class="st2" d="M514 628.5s36.3-5.7 55.4-25.8 15.3-39.7 15.3-39.7"/><path class="st1" d="M514.3 557.1c8.1 7.3 14.4 12.8 17.4 14.6 0 0 39.6-11 87.4-9.1 24.8-7.2 0-28.2 0-28.2s-23.9 0-51.6 2.9-56.4 12.4-56.4 12.4 1.9 4.3 3.2 7.4z"/><path class="st7" d="M519.3 561.6c5.7 5 10 8.7 12.4 10.1 0 0 39.6-11 87.4-9.1 10.8-3.1 12.2-8.8 10.4-14.3-66.3-5.7-111.8 11.9-110.2 13.3z"/><path class="st2" d="m403.2 706.9 1.9 14.8M367.3 733.2c1-4.3 8.1-9.6 12.4-14.8"/><path class="st7" d="M428.7 690.3c-17.2 2.4-64 23.9-64 23.9l-8.6-22 70.7-11.9s19.1 7.7 1.9 10z"/><path class="st3" d="m368.5 705.2-3.8 9.1s-6.2 6.2-5.7 11 8.1 6.7 14.8 3.3c3.8 4.8 8.4 1.8 15-3.5 2.9 4.3 11.7 6.8 17.9 2.1 3.3 3.3 8.8 1.3 14.3 1.4 6.2 4.3 15 2.2 19.3-3 4.3-5.3 15-6.5 15-6.5l1-26.8-14.8-11.5-32 9.1-41 15.3z"/><path class="st1" d="M391 727.1s-6.7-3.8-14.8-1.9c-4.8-3.3-15.3-2.9-17.2 0 .5 4.8 8.1 6.7 14.8 3.3 3.8 4.8 8.4 1.8 15-3.5 2.9 4.3 11.5 3.3 17.7-1.4 3.3 3.3 10.3 9.2 14.6 4.9 9.3 2.7 17.4 4.1 19.3-3 1.4.6-9.1-4.6-18.9 1.1 0 0-5.3-3.8-14.8.5-6.2-3.8-15.7 0-15.7 0z"/><path class="st2" d="M421.1 728.6c1-4.3 10.7-6.8 15-12.1M406.7 729.5c-1.4-2.9 9.6-13.4 13.9-17.7M390 729.5c1-4.8 10-12.4 16.2-17.2"/><circle class="st7" cx="439.9" cy="683.2" r="15"/><path class="st1" d="m449.3 692.7 2.4 27.2 29.1-3.8-5.7-30.1s-14.8-5.3-16.2-5.3-10.5 3.8-10.5 3.8l.9 8.2z"/><path class="st7" d="M441.6 675.7c-5.7 2.4-5.3 11 0 12.9 2.6 1 9.7-.3 16.7-.4 7-.1 13.9.9 15.8-.1 3.8-1.9 4.3-11.9-1-13.9-5.2-1.9-25.8-.9-31.5 1.5z"/><path class="st2" d="m456.9 702.3 1.9 14.8M462.2 702.8l2.3 12.4M467.4 702.3l2.9 14.3M473.1 701.8l2.9 14.3M450.2 694.8l25.8-1"/><path class="st1" d="M440.4 725.5s4.8-8.6 7.6-8.1 31.3-3.2 33.2-2.7c1.9.5 2.9 10.5 2.9 10.5l-43.7.3z"/><path class="st3" d="m314.8 709.8-3.8 9.1s-6.2 6.2-5.7 11 8.1 6.7 14.8 3.3c3.8 4.8 9.6 6.2 16.2 1 2.9 4.3 10.5 4.8 16.7 0 3.3 3.3 10 3.3 14.3-1 6.2 4.3 12.9 2.9 17.2-2.4s17.2-7.2 17.2-7.2l1-26.8-14.8-11.5-32 9.1-41.1 15.4z"/><path class="st1" d="m395.5 697.4 2.4 27.2 29.1-3.8-5.7-30.1s-14.8-5.3-16.2-5.3-10.5 3.8-10.5 3.8l.9 8.2z"/><path class="st2" d="m408.4 707.4 2.4 12.4M413.7 706.9l2.8 14.3M419.4 706.4l2.9 14.4"/><path class="st1" d="M337.2 731.7s-6.7-3.8-14.8-1.9c-4.8-3.3-15.3-2.9-17.2 0 .5 4.8 8.1 6.7 14.8 3.3 3.8 4.8 9.6 6.2 16.2 1 2.9 4.3 10.5 4.8 16.7 0 3.3 3.3 10 3.3 14.3-1 6.2 4.3 12.9 2.9 17.2-2.4-9.6-4.3-16.7.5-16.7.5s-5.3-3.8-14.8.5c-6.1-3.8-15.7 0-15.7 0z"/><path class="st2" d="M353 734.1c-1.4-2.9 9.6-13.4 13.9-17.7M336.3 734.1c1-4.8 10-12.4 16.2-17.2M320 733.2c1.4-4.8 11-12.9 15.3-14.8M396.5 699.4l25.8-.9M373.8 728.6c1.4-4.8 11-12.9 15.3-14.8"/><path class="st7" d="M375 695c-17.2 2.4-64 23.9-64 23.9l-8.6-22 70.7-11.9c0-.1 19.1 7.6 1.9 10z"/><circle class="st7" cx="386.2" cy="687.8" r="15"/><path class="st7" d="M387.9 680.3c-5.7 2.4-5.3 11 0 12.9 2.6 1 9.7-.3 16.7-.4 7-.1 13.9.9 15.8-.1 3.8-1.9 4.3-11.9-1-13.9s-25.8-.9-31.5 1.5z"/><path class="st1" d="M385 729.4s6.7-10 9.6-9.6 31.1-1 33-.5c1.9.5 2.9 10.5 2.9 10.5l-45.5-.4z"/><path class="st5" d="M498.7 738c1.4-11.9-2.9-75 4.3-86.5 7.2-11.5 40.6-15.3 87.4-14.8s67.4 5.3 71.7 16.2c4.3 11 10 85.1 10 85.1H498.7z"/><path class="st2" d="m507.3 738-8.3-15.3M515 738l-9.1-15.8M522.6 738l-10-15.8M530.2 738l-10.5-15.3M536.9 738l-10.5-16.3M544.6 738l-10.1-15.3M551.7 738l-9-14.9M557.5 738l-9.1-15.8M563.7 738l-9.1-16.8M569.9 738l-8.6-15.8M576.6 738l-8.6-16.3M583.3 738l-9.1-17.2M590 738l-8.2-16.3M596.2 738l-8.2-16.3M602.9 738l-8.2-17.2M608.6 738l-8.1-17.7M614.3 738l-7.1-17.2M621.6 738l-8.2-18.2M627.9 738l-8.2-16.8M634.9 738l-10.1-18.7M641.5 738l-9.5-18.2M649.2 738l-10.5-17.7M654.4 738l-9.5-16.3M660.2 738l-10.1-18.7M666.4 738l-9.6-17.7M669.8 734.1l-7.7-15.7"/><path class="st8" d="M499 722.7c-.3-23.5-1.4-62.5 4-71.2 7.2-11.5 40.6-15.3 87.4-14.8 46.8.5 67.4 5.3 71.7 16.2 3 7.6 6.7 45.1 8.6 67.4L499 722.7z"/><path class="st2" d="M498.7 738c1.4-11.9-2.9-75 4.3-86.5 7.2-11.5 40.6-15.3 87.4-14.8s67.4 5.3 71.7 16.2c4.3 11 10 85.1 10 85.1H498.7z"/><path class="st2" d="M509.7 721.6s-4.8-56.2 1.4-63.9 20.5-12.4 68.8-12.4c48.2 0 69.3 2.4 73.6 12.4s7.2 61.9 7.2 61.9"/><path class="st2" d="M553.2 703.1c0 1.1-.9 1.9-1.9 1.9h-24.4c-1.1 0-1.9-.9-1.9-1.9v-6.7c0-1.1.9-1.9 1.9-1.9h24.4c1.1 0 1.9.9 1.9 1.9v6.7zM641.2 703.1c0 1.1-.9 1.9-1.9 1.9H615c-1.1 0-1.9-.9-1.9-1.9v-6.7c0-1.1.9-1.9 1.9-1.9h24.4c1.1 0 1.9.9 1.9 1.9v6.7zM595.8 669.6c0 1.1-.9 1.9-1.9 1.9h-24.4c-1.1 0-1.9-.9-1.9-1.9v-6.7c0-1.1.9-1.9 1.9-1.9h24.4c1.1 0 1.9.9 1.9 1.9v6.7z"/><circle class="st2" cx="535.7" cy="667.5" r="4.5"/><circle class="st2" cx="626.3" cy="665.8" r="4.5"/><circle class="st2" cx="583.3" cy="699.7" r="4.5"/><path class="st3" d="M385.2 464.5 325 484.6l5.1 26.8s51.9-12.1 75.6-19.1c23.7-7 40.6-22.9 40.6-22.9l-17.8-24.5-25.2 5.4-18.1 14.2zM590 444.6s81.7 26.8 96.5 25.8c14.8-1 11-31.1 11-31.1l-20.1-5.3-58.3-15.8-26.3-12.4-24.4-3.3-8.6 25.3 30.2 16.8z"/><path class="st4" d="m600.5 402.6 67.8 27.7s3.3 34.4-11 35.4-25.3-4.3-27.7-10.5 2.9-18.6 2.9-18.6-27.2-11.9-30.1-20.1c-2.9-8.2-1.9-13.9-1.9-13.9z"/><path class="st7" d="M646.8 483.3c13.9-26.3 26.3-71.2 26.3-71.2l16.2 6.2c-19.1 33.4-26.3 70.2-26.3 70.2l-16.2-5.2z"/><circle class="st7" cx="667" cy="451" r="9.1"/><ellipse transform="rotate(-87.49 754.055 475.201) scale(.99996)" class="st0" cx="754.1" cy="475.2" rx="49.3" ry="54.4"/><path class="st7" d="M719 526.8c-.5 18.2-15.3 58.3-15.3 58.3l26.8 5.7 10.5-54.9c-.1 0-21.6-27.3-22-9.1zM761 536.3l2.9 56.4 26.2-1.9-9-56.8z"/><path class="st1" d="M738.4 415.8s14-115.9 8.3-134.4c29.3 4.5 47.8 10.8 47.8 10.8l2.5 25.5-20.4 111.5-38.2-13.4z"/><path class="st1" d="M772.1 415.8s18.5-114.7 22.3-123.6c3.8-8.9 18.5-7 15.9 3.8s-26.8 126.8-26.8 126.8l-11.4-7zM712.7 437.8s10.5 6.4 42 8.3c31.5 1.9 46.3-.5 46.3-.5l5.7 18.2s-18.2 2.9-52.5.5-51.6-9.1-51.6-9.1l10.1-17.4zM700.3 487.6s24.8-5.7 51.6-3.8c26.8 1.9 52.5 11.5 52.5 11.5l-8.6 16.7s-18.2-8.3-44.9-10.2c-26.8-1.9-41.6 3-41.6 3l-9-17.2z"/><path class="st2" d="m710.4 456.6 12.9-8.6M721.8 459.4l9.6-8.1M734.7 460.9l10.5-10.6M747.1 462.8l7.2-10.5M760 463.7l5.3-9.5M772 464.2l5.7-11M781.1 464.7l5.7-11.5M792.5 464.7l5.3-13.4M708.4 486.2l11 10M720.4 484.7l10 10.5M732.3 484.3l10.1 10.9M744.3 484.3l7.1 10.5M755.3 484.3l7.6 13.3M766.2 486.2l4.8 11.9M776.8 487.6l3.8 12.9M787.7 490.5l3.9 14.8"/><path class="st1" d="m708.6 444.9 4.1-7.1s10.5 6.4 42 8.3c31.5 1.9 46.3-.5 46.3-.5l2 6.3s-13.5 4.2-47.9 1.8c-34.3-2.4-46.5-8.8-46.5-8.8zM704.6 497.6s20.1-4.8 46.8-2.9c26.8 1.9 51.1 11.9 51.1 11.9l-6.7 5.3s-18.2-8.3-44.9-10.2c-26.8-1.9-41.6 3-41.6 3l-4.7-7.1z"/><path class="st5" d="M756.9 411.4c-39.1-1.7-72.1 25.6-73.7 61.1s28.9 65.6 68.1 67.3c39.1 1.7 72.1-25.6 73.7-61.1 1.5-35.5-29-65.6-68.1-67.3zm51.5 66.2c-1.2 27.2-26.5 48.2-56.5 46.8-30-1.3-53.4-24.4-52.2-51.6 1.2-27.2 26.5-48.2 56.5-46.8s53.4 24.4 52.2 51.6z"/><path class="st2" d="M756.9 411.4c-39.1-1.7-72.1 25.6-73.7 61.1s28.9 65.6 68.1 67.3c39.1 1.7 72.1-25.6 73.7-61.1 1.5-35.5-29-65.6-68.1-67.3zm51.5 66.2c-1.2 27.2-26.5 48.2-56.5 46.8-30-1.3-53.4-24.4-52.2-51.6 1.2-27.2 26.5-48.2 56.5-46.8s53.4 24.4 52.2 51.6z"/><path class="st1" d="m414.8 434.6-30.2 11.8 11.4 19.4 26.1-16.5 10.2 9.8-21.3 20.1 20.1 15.3 14.9-26.8 15.6 7.4-9.4 26.4 24.7 3.5.3-28.4 26.1.4 3.9 28.3 24.2-5.4-8.9-25.5 17.5-7.9 13.3 27 18.8-14.3 16-25.5 6.6-24.2-27-7.6 2.5-12.8 28.7 8 4.1-23.6-28.6-1.9-15.3 8.6-42.7 55.4-49.4-2.5z"/><path class="st1" d="M411 429.2c12.1 46.8 68.5 57.6 107.6 47.5s49.4-29.9 55.7-85c-9.9-1.9-29.6-5.7-29.6-5.7l-17.5-5.7-69.4 13.1c0-.2-34.1 19.6-46.8 35.8z"/><path class="st3" d="M461.9 406.6s9.2 22 34.7 17.2c9.2-2.9 8.3-8.6 8.3-8.6v-21.7l-17.2-9.6-21.3 15-4.5 7.7z"/><path class="st2" d="M451.8 413.3c3.5 15.3 26.1 30.3 53.8 22 27.7-8.3 22.9-35.7 22.9-35.7L517 384.3l-39.5-5.7c.1 0-29.2 19.4-25.7 34.7z"/><path class="st2" d="M424 428.6c7 30.3 46.2 44.6 86.3 39.2s49.7-37.3 51.9-78M438.7 451.5l22.6-23.3M449.2 458.8l19.1-25.5M484.2 468v-30.2M538.1 455.3l-22-24.5M546.7 446.7l-23.9-21"/><path class="st9" d="M658.1 277.9c2.5-4.1 24.2-93.3 32.5-102.5 4.1-3.2 10.5-.6 11.1 2.5s-31.5 108-31.5 115.9c-2.5 5.7-16.2 10.5-16.2 10.5l-13.1 6.7 2.5-8.9 8.9-21c.1 0 3.3 1 5.8-3.2zM611.6 282.4s11.5 1.3 16.9-4.8-14.3-99.7-14-101.6 5.4-6.1 10.8-3.5c8 4.1 19.7 97.8 19.7 97.8l1.6 21.3-17.8 10.5L610 304l1.6-21.6z"/><path class="st9" d="M615.1 309.8s15.9 1.3 25.8-3.8c7.1-3.7 13.4-7.6 17.2-26.1 3.8-18.5 8.3-104.8 7.3-109.2-1-4.5-11.5-4.5-13.4-1-1.9 3.5-3.5 109.6-12.1 118.8-8.6 9.2-24.8 8-24.8 8l-7.6 5.4 7.6 7.9z"/><path class="st1" d="M556 264s33-21 38.2-21.5 14.3 8.1 8.1 18.6c7.6.5 13.9 8.1 9.1 19.1 5.7 3.3 6.5 14.9.5 20 5.7 1.9 8.3 15.6-.6 21 8.3 6.7 2.2 16.5-3.5 17.9-5.7 1.4-39.8-8.8-39.8-8.8L556 264z"/><path class="st2" d="m568.6 274.9 33.8-13.7M573.1 288.4l38.4-8.1M575 302.4l36.9-2.2M574 315.8l37.3 5.4M593.5 252.4l-28.4 15M601.8 272.2l-31.3 8.9M607.2 290.7l-35.4 4.7M607.3 311l-33.1-1.9M604.9 329.2l-35.6-6.7"/><path class="st1" d="M535.5 275.5c-2.9-16.7 15.8-18.2 25.3-13.4 12.9 5.3 19.3 59.7 8.3 67.4s-23.6-.5-23.6-.5l-12.9-29.1c0-.1 5.8-7.7 2.9-24.4z"/><path class="st2" d="m545.1 268.8 5.2-8.6M549.8 270.2l6.7-8.1M554.6 272.6l9.1-6.7M557.2 276.3l8.9-4.6M557.9 281.2l11.5-5.2M559.9 286.5l10.9-3.9M561.8 291.2l10-2.5M562.6 295.9l10.6-1.8M563.2 300.8l10.5-1.4M564.2 306.1l10-.5M563.2 311.3h10.5M562.2 316.1l10.9.9M561.1 321.7l11.5.9M556.8 326.6l12 2.4"/><path class="st9" d="M676.3 294.2c-17.5-3.5-28.3 8.1-35.4 11.8-7.7 4-19.2 4.1-23.8 3.9.1 4.1-1.4 8.5-5.5 11.1 7.9.3 22.7.4 32.1-3 12.9-4.6 16.6-14 25.2-12.1 8.6 1.9 11.5 7.3 10.2 12.4-1.3 5.1-2.5 8.6-7.6 7.6s-1.3-6.7-1.3-9.6c0-2.9-3.5-4.5-7.3-1.9-7 2.9-9.2 19.7 7.6 22.9 12.7 1.9 19.4-6.7 21-13.4 1.7-6.5 2.3-26.2-15.2-29.7z"/><path class="st7" d="M365.8 449.6s36.9 35.8 49 61.8c0 0 10.2-3.8 15.3-9.6-35-33.8-47.1-63.7-47.1-63.7l-17.2 11.5z"/><circle class="st7" cx="398.3" cy="475.1" r="10.2"/><path class="st1" d="M381.1 375.7s-2.5 4.8-2.9 9.6c21.7-.3 40.4 1.6 40.4 1.6l-1.6-10.5-10.8-6.7-12.4 1-12.7 5z"/><path class="st2" d="m387.4 384.9.3-8.9M397 385.2v-8.9M406.8 385.6l-.3-9.6"/><path class="st3" d="M487.7 390.6c-10 10-56.8 36.3-64.5 38.2-7.6 1.9-18.2 2.9-20.5-2.4-2.4-5.3 2.9-15.8 1.9-17.7-1-1.9-8.1 1.4-11.9 1-3.8-.5-5.7-10-1.9-13.4s23.9 0 26.3-1.4c2.4-1.4 1.9-12.9-3.8-16.7-5.7-3.8-36.3 1-38.1-1-2-2.1-3.6-8.2 8.2-13.7-3.5-1-3.8-2.5-6.4-2.9-1.7-.2-10 .5-13.9-1.4s-8.4-12.1-1.3-19.3c7.2-7.2 30.9-20.5 40.4-23.4 1-1.9-2.9-2.4-1.9-7.2 1-4.8 15.8-29.6 15.8-29.6l95.6 18.2-4.8 67.8c-.1.1-9.2 14.9-19.2 24.9z"/><path class="st5" d="M451.4 334.7c-9.6.5-11.9 11-25.2 11.5-8.5 0-15.4-6.3-15.4-14.1s6.9-14.1 15.4-14.1c17.1.5 15.7 16.2 25.2 16.7z"/><path d="M436 320.8c7.3 4.7 8.2 13.6 15.4 14-7.8.4-10.8 7.5-19 10.4-1.8.5 1.2-26 3.6-24.4z" style="fill:red"/><circle class="st2" cx="426.8" cy="331.3" r="4.5"/><path class="st2" d="M451.4 334.7c-9.6.5-11.9 11-25.2 11.5-8.5 0-15.4-6.3-15.4-14.1s6.9-14.1 15.4-14.1c17.1.5 15.7 16.2 25.2 16.7z"/><path class="st1" d="M417 414.5c4.1 3.2 4.5 7 7.7 13.8-.6.2-1.1.4-1.5.5-7.6 1.9-18.2 2.9-20.5-2.4-1.5-3.2-.1-8.4 1-12.4.9-.4 9.2-2.6 13.3.5zM484.3 393.6c-5.2 4.1-13.7 9.6-22.8 15.1-3.7-3.7-5.3-15.5 2.9-20.6 8.4-5.1 17 1.3 19.9 5.5zM416.1 279.8s-4.6 7.8-8.9 15.5c-.3.5 6.4 5.4 14.6 3.5 8.3-1.9 11.5-12.6 11.5-12.6l-17.2-6.4zM401.1 376.7c-10.9.1-24.8 1.8-26 .6-2-2.1-3.6-8.2 8.2-13.7-3.5-1-3.8-2.5-6.4-2.9-1.7-.2-10 .5-13.9-1.4-3.8-1.9-8.4-12.1-1.3-19.3 1.4-1.4 3.4-3 5.8-4.7 11 1.6 31 1.9 36.1 10.2 5.1 8.2-.3 23.2-2.5 31.2z"/><path class="st2" d="M383.3 363.6c5.1 1 10.5-6.4 8.3-12.1-2.2-5.7-7-4.8-10.5-4.8"/><circle class="st1" cx="479.5" cy="317.3" r="10.7"/><circle class="st1" cx="443.2" cy="364.5" r="10.7"/><path class="st0" d="M545.5 329s-3.3 16.2-2.9 43c.5 36.3 65.9 102.7 65.9 102.7l-28.7 18.6s-51.1-85.5-52.5-95.6c-1.4-10-12.4 1.9-12.4 1.9s-7.2 119-9.1 121.4c-1.9 2.4-8 2.4-9.4-1s.6-121.4.6-121.4l4.5-56.4s-5.7-19.6-5.7-21 9.6-25.3 9.6-25.3l27.2-7.6 12.9 25.3V329z"/><path class="st2" d="M521.2 346.7 524 318"/><path class="st0" d="M509.7 306.5c-5.7 1.4-8.1 35.8-8.1 35.8l-19.1-1.9s6.2-21.5 3.3-27.2c-2.9-5.7-4.1-6.1-4.1-6.1l-25.6-36s-11-19.6 1.4-22.9c12.4-3.3 58.3 8.1 75 23.9 16.2 15.3 16.7 30.1 16.7 30.1s-33.8 2.9-39.5 4.3zM431.3 182.8s-16.2 5.3-16.7 19.1c-.4 11.5 4.3 22.9 6.2 29.1 1.9 6.2 1 26.8 1 26.8l22.9 7.2s1-14.3-4.3-28.2-11-23.4-11.5-33.4c-.4-10.1 2.4-20.6 2.4-20.6z"/><path class="st0" d="M444.6 262.6s-2.7-27.2 4.5-45.4 26.3-14.3 26.3-14.3-8.6 9.1-12.4 21c-3.8 11.9-1 45.4-1 45.4l-17.4-6.7z"/><path class="st7" d="m533.6 298.4 18.1 2.4-6.2 28.2-21.5-8.5z"/><path d="M408.4 254s1.4-14.3-4.3-20.1c-5.7-5.7-21.5-11.9-24.8-24.8-3.3-12.9 6.7-23.9 6.7-23.9s2.4 11.5 7.2 18.6c4.8 7.2 20.5 15.8 27.7 27.2 7.2 11.5 5.3 26.8 5.3 26.8l-17.8-3.8z" style="fill:#ffce00;stroke:#000;stroke-width:3.9809;stroke-linecap:round;stroke-linejoin:round"/><path class="st7" d="M395.5 275.5s67.4 19.6 86 31.1c1.4-2.9 4.8-23.4 9.1-27.2-11.9-8.6-87.4-31.1-87.4-31.1l-7.7 27.2z"/><ellipse class="st1" cx="481.7" cy="291.2" rx="15.5" ry="16"/><path class="st2" d="M486.8 286.5c1.9.5 2.4 6.2-2.1 6.2-4.6 0-8-4.8-5.1-9.1s11-4.3 11-4.3"/><circle class="st1" cx="430.7" cy="272.8" r="15.3"/><path class="st2" d="M437.1 267.4c.5 2.4-3.3 7.2-7.2 3.8-3.8-3.3-1.4-10 6.7-11.9"/><circle class="st1" cx="523.4" cy="304.8" r="15.3"/><path class="st2" d="M529.8 299.4c.5 2.4-3.3 7.2-7.2 3.8-3.8-3.3-1.4-10 6.7-11.9"/><circle class="st1" cx="511.3" cy="373.1" r="30.6"/><circle class="st7" cx="511.3" cy="373" r="10.4"/><circle class="st1" cx="386.2" cy="174.4" r="11.7"/><circle class="st1" cx="430.9" cy="173.7" r="11.7"/><circle class="st1" cx="478.2" cy="190.4" r="11.7"/><path class="st1" d="m297.9 490.3 28.4-10.1 7.9 34.3-29.9 4.2-22.6 1.3-5.1-23.6z"/><path class="st2" d="m311.6 491.3 15.9-4.8M313.2 496.7l15-4.4M314.2 501.5l15.9-3.8M316.4 506.6l14.3-3.2M316.7 511.4l14.7-2.6M290.6 494.8l3.8 19.7"/><path class="st0" d="m287.7 521.9-8-30.6s14.6-7.3 18.2-5.4 6.1 7.3 4.1 11.5c-1.9 4.1-21 4.1-21 4.1l2.2 11.5s16.6-6.4 21-4.5c4.5 1.9 4.1 9.9.3 12.4s-16.8 1-16.8 1z"/><path class="st4" d="M244.7 500.2s8 18.8 6.7 27.4l36.3-5.7-8-30.6-35 8.9z"/><path class="st7" d="M224.4 528.9c9.9 8.6 31.8 43 31.8 43l19.4-16.2s-24.2-22.6-28-29c-3.8-6.4-33.1-6.4-23.2 2.2z"/><path class="st4" d="m127.5 389.4-30.8-40.1-21.7 20 38.2 31.9z"/><path class="st7" d="m107.2 362.9-10.5-13.6-21.7 20 13.3 11.1z"/><path class="st1" d="M210 474.1c3.5-.6 13.7-24.5-1-37.9-15.6-13.7-34.7-8.3-34.7-8.3s-22-38.9-33.1-40.8c-5.4-.9-15.9-1.3-24.2 7-9.1 9.1-10.4 18.9-8 25.8 4.8 13.4 37.3 35.4 37.3 35.4s-5.7 23.9 9.2 34.7 30.9 3.8 30.9 3.8l19.1 3.2 5.1-8.9c.1 0-4.1-13.4-.6-14z"/><path class="st12" d="m144.4 453.4 8.3-2.2M146.3 456.3l9.9-2.3M145.7 461l10.2-3.1M145.4 465.5l9.2-2.9M146.3 469l9-3.5M146 473.1l8.9-3.5M147.9 476.3l8.3-3.8M149.2 481.4l8-5.4M152.1 484.6l6.7-5.1M155.6 488.4l6-6M160 491.9l4.2-8.2M164.5 493.8l2.9-8.6M169.6 495.1l1.9-8.6M174.4 495.1l.3-7.9M177.9 495.4v-8.9M183.6 493.8l-1.6-7M187.7 491.3l-1.6-6.7M141.9 450.9l8.3-3.2M137.7 447.7l8-3.2M133.6 445.8l8.6-3.5M130.1 442.9l8.3-3.8M126.9 440.7l8.9-4.8M123.7 437.5l8-4.8M120.5 434l9.9-5.4M116.4 430.8l9.9-4.8M113.2 427l12.1-5.1M111.6 422.5l11.5-3.8M109.1 418l11.1-1.9M108.8 413l11.7.6M109.4 406.9l9.5 2.6M110.7 402.1l9.8 4.8M114.8 398.3l6.7 5.7M118 393.8l6 7.1M123.4 390.3l3.8 8.6M127.9 388.1l2.8 8.9M133.1 387.5l1.3 9.8M138.4 386.5l.6 11.2M144.1 388.1l-1.3 11.8M148.6 391.9l-2.6 10.9M154 397.7l-4.5 8.2M156.8 401.5l-6.3 8.6M159.7 405.6l-6 8.3M162.3 409.8l-5.5 7.3M165.4 413.3l-6.6 8.3M167.7 416.5l-6.7 8.9M169.6 420.9l-6.7 8.9M171.8 423.5l-5.7 9.5M173.4 427l-2.9 10.5M177.2 427.3l-2.2 10.8M182.3 426.6l-2.2 12.1M187.4 427.3l-2.5 11.1M192.5 427.9l-3.2 9.6M196.7 429.2l-3.5 9.5M201.4 431.1l-4.4 8.3M206.5 433.7l-6.7 8.6M210 437.5l-7.6 7M212.9 441.3l-8 7.3M215.1 446.1l-8.3 5.4M216.1 451.5l-8.3 3.5M215.4 456.3l-6.6 2.2M215.8 461.4l-8 1.9M214.8 465.5l-8.9 1M212.3 471.9l-6.4-2.9"/><path class="st8" d="M190 485.6s-14.6 11.1-29.3-1.6c-14.6-12.7-4.8-28.7-6.7-31.5-1.9-2.9-36.3-26.8-37.6-36.3-1.3-9.6 8.9-21.3 20.7-20.7 11.8.6 30.3 36.9 34.1 38.9 3.8 1.9 19.4-3.5 29.9 6.1 12 10.9 4.1 34.1 4.1 34.1l-15.2 11z"/><path class="st3" d="M251.4 527.6c1.3-8.6-6.7-27.4-6.7-27.4s-4.8 1.6-6.7.6c-1.9-1-12.1-24.5-17.5-27.1s-12.7 1-15.3.6-6.7-17.8-7-20.7c-.3-2.9-9.9-3.5-10.2 1-1.6 10.5 4 19.7 4 19.7s-11-9.6-15.4-9.2-8.3 7-4.8 9.9c3.5 2.9 28 15.9 28 15.9-4.8-2.2-15 1-13.4 3.8 1.6 2.9 30.6 35 38.2 35.7 7.7.7 26.8-2.8 26.8-2.8z"/><path class="st2" d="M199.8 491c4.5 2.2 24.5 22.9 24.5 22.9"/><path class="st1" d="M190.8 491c-2.9.9-5.1 2.4-4.3 3.8.8 1.5 9.2 11 18 19.9 1.4-1.7 3.3-3.6 2.4-6.5-1-2.9-16-16.3-16.1-17.2z"/></svg>