<svg version="1.1" id="Calque_1" xmlns="http://www.w3.org/2000/svg" x="0" y="0" viewBox="0 0 900 900" style="enable-background:new 0 0 900 900" xml:space="preserve"><style>.st0,.st1,.st2,.st3{fill:#ffce00;stroke:#000;stroke-width:4.1136;stroke-linecap:round;stroke-linejoin:round;stroke-miterlimit:10}.st1,.st2,.st3{fill:#ff7300}.st2,.st3{fill:#003866}.st3{fill:none}.st4{fill:#fff}.st5{fill:red}.st10,.st6,.st7,.st8,.st9{fill:#0074ff;stroke:#000;stroke-width:4.1136;stroke-linecap:round;stroke-linejoin:round;stroke-miterlimit:10}.st10,.st7,.st8,.st9{fill:red}.st10,.st8,.st9{fill:#fff}.st10,.st9{fill:#9b0000}.st10{fill:#ffce00;stroke-width:3.9422}</style><path class="st0" d="M601.2 461.1c-10.8-10.8-7.5-32.4-7.5-32.4H307.4s2.3 24.7-8.5 35.5l152.6 61.2 149.7-64.3z"/><path class="st1" d="m608.9 350 36.5-28.3 26.7 9.8 24.2 19.5 9.7.2-32.3 77.8c-29-7.5-52.4-13.7-52.4-13.7L608.9 350z"/><path class="st0" d="M748.2 352.1s57.1 33.4 61.7 38.1c4.6 4.6 7.2 28.8 2.6 31.4 2.6 4.1.5 13.9.5 13.9-2.6 10.3-14.9 20.1-31.9 19-10.1-.6-64.8-14.3-107.5-25.3l32.3-77.8 42.3.7z"/><path class="st2" d="M771.9 301.2c47.8 10.8 44.7 165.6 44.7 165.6l-30.3 1.5-18-9.8-6.2-155.8s-26.2-10.8 9.8-1.5z"/><path class="st3" d="m802.7 437.4.6 28.8"/><path class="st0" d="M777 312s-3.6-5.1 0-10.8 21.6-10.3 29.3-28.8 5.1-33.4 5.1-33.4-59.1-5.1-69.9-5.1-3.6 20.6-8.2 24.2c-4.6 3.6-13.9-1-18-8.7-2.6 5.7-2.6 21.1-23.7 12.9-4.6 7.2 4.1 25.2 7.2 54.5 11.3 9.8 26.2 14.4 26.2 14.4l52-19.2z"/><path class="st3" d="m733.3 258 7.2 8.7M806.3 272.4c-8.7 2.1-13.4-.5-13.4-.5"/><path class="st0" d="M741.5 446.1c19.3 4.6 34.7 8 39.6 8.3 17 1 29.3-8.7 31.9-19 0 0 2.1-9.8-.5-13.9 4.6-2.6 2.1-26.7-2.6-31.4-4.6-4.6-61.7-38.1-61.7-38.1l-2.1 36s-11.8 8.7-10.3 19 11.8 17.5 11.8 17.5-9.1 10.9-6.1 21.6z"/><path class="st1" d="M777 312c3.1-.5 14.9 47.8 14.9 47.8s-66.3 11.3-97.2 7.2c1.5-27.3 4.1-50.4 4.1-50.4s46.9 1 78.2-4.6z"/><path class="st3" d="M708.1 317.1s2.6 24.2-.5 29.3c-3.1 5.1-1 20.6-1 20.6M722.5 317.1s1.5 24.2-2.1 26.7c-3.6 2.6-.5 23.1-.5 23.1M733.8 316.1s2.6 22.1-2.1 26.7c-4.6 4.6 1 23.7 1 23.7M747.2 315.6s3.1 22.1-4.1 26.2c-7.2 4.1-.5 23.7-.5 23.7M759 314s7.2 19-4.6 27.8c-5.1 6.7 3.1 22.1 3.1 22.1M772.9 312.5s4.1 15.4 1 24.7c4.1 2.6 8.2 24.7 8.2 24.7M765.2 339.7c-4.1 8.2 5.1 23.1 5.1 23.1"/><path class="st3" d="M784.7 335.6c-55 10.3-87.9 8.7-87.9 8.7"/><path class="st4" d="M750.3 372.1s-3.1-5.1-2.1-10.3c11.8-4.6 28.3 5.7 28.3 5.7s-1.5-9.8 8.7-7.7c13.4 1.9 21.6 14.4 24.2 23-4.2 1.5-11.3 3-20.1.1-7.2 5.7-22.6 2.6-22.6 2.6s-5 8.1-15.7 10.6c-7.2-9.9-17.3-20.3-17.7-25 8.8-3.6 17 1 17 1z"/><path class="st5" d="M766.7 385.5s15.4 3.1 22.6-2.6c8.8 2.8 15.9 1.4 20.1-.1 1 3.3 1.2 6 .5 7.3-2.6 4.6-14.4 4.6-19.5 1.5-2.6 6.2-14.4 4.6-20.1.5.5 8.7-10.8 12.9-15.4 9.8-1.1-1.9-2.5-3.9-3.9-5.9 10.7-2.4 15.7-10.5 15.7-10.5z"/><path class="st3" d="M809.9 390.1c2.6-4.6-6.2-27.8-24.7-30.3-10.3-2.1-8.7 7.7-8.7 7.7s-16.5-10.3-28.3-5.7c-1 5.1 2.1 10.3 2.1 10.3s-8.2-4.6-17-1c.5 5.7 14.9 19.5 21.6 30.9 4.6 3.1 15.9-1 15.4-9.8 5.7 4.1 17.5 5.7 20.1-.5 5.1 3 17 3 19.5-1.6z"/><path class="st3" d="M776.5 367.5c5.7 4.1 14.4 18 13.9 24.2M750.3 372.1c3.1.5 12.3 5.7 20.1 20.1"/><circle class="st6" cx="755.9" cy="285.7" r="26.7"/><circle class="st6" cx="768.3" cy="281.5" r="13.4"/><circle class="st7" cx="768.3" cy="281.5" r="5.9"/><path class="st5" d="M781.1 227.1s9.3 4.6 18.5.5c4.9 2.3 9.3.6 12.2-1.3 1.2 5.7 1.3 10.7-.4 12.6-4.6 5.1-10.8-1.5-10.8-1.5s-9.3 8.7-19-2.1c-10.8 7.7-20.1-1-20.1-1s-2.1 10.8-8.2 9.8c-1.8-.3-5.1-3.3-9-7.3 4.4-1.6 10.8-4.6 16.2-9.7 10.9 4.6 20.6 0 20.6 0z"/><path class="st4" d="M746.2 209.6s5.1-9.3 22.1-2.1c6.2-7.2 19-2.6 19-2.6s4.6-5.1 12.3-2.1c4.8 2 10.1 13.6 12.2 23.3-2.9 2-7.3 3.7-12.2 1.3-9.3 4.1-18.5-.5-18.5-.5s-9.8 4.6-20.6 0c-5.3 5-11.8 8.1-16.2 9.7-2.7-2.7-5.7-5.9-8.8-8.8-7.7-7.4-15.6-13.7-15.6-15.7 7.3-7.6 26.3-2.5 26.3-2.5z"/><path class="st3" d="M761.6 234.3s-2.1 10.8-8.2 9.8c-3-.5-10.3-8.9-17.8-16.1-7.7-7.4-15.6-13.7-15.6-15.7 7.2-7.7 26.2-2.6 26.2-2.6s5.1-9.3 22.1-2.1c6.2-7.2 19-2.6 19-2.6s4.6-5.1 12.3-2.1c7.7 3.1 16.5 30.9 11.8 36-4.6 5.1-10.8-1.5-10.8-1.5s-9.3 8.7-19-2.1c-10.7 7.7-20-1-20-1z"/><path class="st3" d="M800.7 237.4s.5-14.4-13.4-32.4M781.7 235.3s1-11.3-13.4-27.8M761.6 234.3s2.1-7.7-15.4-24.7"/><path class="st5" d="M715.6 246.7c-.2 1.5-.3 2.5-.3 2.5-2.6 5.7-2.6 21.1-23.7 12.9 0 0-2.3-9.4-1.9-18.4 9.7 7.1 20.3 4.9 25.9 3z"/><path class="st4" d="M715.3 218.9c10.3-.5 19 9.3 19.5 13.4-3.6 0-9.8 1-14.4 4.1-3.1 2.1-4.4 7.3-4.8 10.3-5.6 1.9-16.2 4-25.9-3 .1-2.4.4-4.7.9-6.8 2.6-10.3 14.4-17.5 24.7-18z"/><path class="st3" d="M691.7 262.1c21.1 8.2 21.1-7.2 23.7-12.9 0 0 .5-9.8 5.1-12.9 4.6-3.1 10.8-4.1 14.4-4.1-.5-4.1-9.3-13.9-19.5-13.4-10.3.5-22.1 7.7-24.7 18s1 25.3 1 25.3z"/><circle class="st6" cx="784.2" cy="436.4" r="13.4"/><circle class="st7" cx="784.2" cy="436.4" r="5.9"/><path class="st3" d="M747.7 424.6c7.7-9.8 27.3-11.7 30.3-1M803.8 417.4s6.2.5 8.7 4.1"/><path class="st2" d="M659.3 610.7s-21.1 36-48.3 56.6c-27.3 20.6-40.6 21.6-40.6 21.6l-57.1-22.6-17-121.4 28.3-43.2 89-2.1 49.4 39.6 10.8 25.2-17 30.9 2.5 15.4z"/><path class="st8" d="M532.3 579.3c2.3 0 12.3-5.8 23.3-10.8 11-5 22.9-9.3 27-10.3 8.2-2.1 15.9 1 21.6-7.2 5.7-8.2-5.7-22.6-20.6-20.1-4.6 1.5-8.7 9.8-17.5 13.9-8.7 4.1-31.9 6.7-35.5 10.3s-7.7 18.5-7.7 18.5 4.7 5.7 9.4 5.7z"/><path class="st8" d="M562.1 526.9s9.8 33.9 14.9 36.5 7.7 0 13.4 1.5 4.6 20.6.5 23.7c-4.1 3.1-12.9 2.6-15.4.5-4.6 11.3-14.9 5.7-16.5-2.1s-18.5-59.6-18.5-59.6M607.3 627.7c7.7 0 12.3-8.7 18.5-6.7 6.2 2.1 11.8 7.2 4.1 16.5 3.6 4.6.5 13.4-7.7 16.5-8.2 3.1-16.5-5.7-16.5-5.7L563.5 637l-10.8 3.6-10.7-23.2 1.5-16.5s4.1-8.2 11.3-6.2c7.2 2.1 4.1 14.4 8.2 20.6 4.2 6.2 36.6 12.4 44.3 12.4z"/><path class="st8" d="M594.5 608.6c-3.1 3.6-.5 39.6-.5 39.6s9.8 1.5 10.3 12.3-10.3 13.4-19 13.9c-3.6 6.7-9.8 6.2-15.9 5.7-6.2-.5-10.3-14.4-8.2-19.5 2.1-5.1 7.7-6.7 7.7-6.7s3.6-39.6-.5-43.7-1-17.5-1-17.5 1.5-4.6 6.2-4.6c4.6 0 10.8 9.8 10.8 9.8s2.6-6.7 8.7-2.6c6 4.1 4.5 9.7 1.4 13.3z"/><path class="st8" d="m676.2 574.2-4.6 8.2-10.8 25.7s-7.2 14.4-18 18.5-35.5.5-44.7-9.3-9.3-38.6 1.5-50.9c10.8-12.3 33.4-12.9 33.4-12.9l43.2 20.7z"/><path class="st9" d="m648.5 577.3 9.2 4.1 13.9 1-10.8 25.7-22.6-15.4.5-9.3 4.6-5.6"/><circle class="st8" cx="627.4" cy="606.1" r="7.2"/><circle cx="627.4" cy="606.1" r="3.2"/><path class="st3" d="M601.2 579.8s11.8 6.7 13.4 10.8-9.8 13.4-9.8 13.4M653.1 611.7c-7.7 2.6-9.3 9.8-9.3 9.8M635.6 550.5s-1 18-4.6 20.6c-3.6 2.6-8.2 6.7-5.1 11.3 3.1 4.6 13.2 4.2 13.2 4.2s-.8-6 3.8-6.7"/><path class="st4" d="M669.5 588.1c-.9 1.9-2 3.1-2 3.1l-24.7-11.3s.4-2.2 1.1-4.2l25.6 12.4z"/><path class="st5" d="M645.9 572.6c3.4-1.4 5.3.8 6.2 3.6 2.6-3.1 9.3.5 9.8 4.6 3.1-2.1 9.3 0 8.7 3.6-.2 1.3-.7 2.5-1.1 3.6L644 575.7c.4-1.4 1.1-2.7 1.9-3.1z"/><path class="st4" d="m639 586.6 24.5 14.1s-.6 2.1-1.5 4l-24.4-15.1c.7-1.7 1.4-3 1.4-3z"/><path class="st5" d="m637.6 589.7 24.4 15.1c-.7 1.3-1.4 2.6-2.3 2.8-3.6 1-5.2-1.3-5.8-4.2-2.9 2.8-9.2-1.4-9.3-5.6-3.3 1.7-9.2-.9-8.3-4.5.4-1.3.8-2.6 1.3-3.6z"/><path class="st3" d="m667.5 591.2-24.7-11.3s1.2-6.4 3.1-7.2c3.4-1.4 5.3.8 6.2 3.6 2.6-3.1 9.3.5 9.8 4.6 3.1-2.1 9.3 0 8.7 3.6-.5 3.6-3.1 6.7-3.1 6.7zM639 586.6l24.5 14.1s-1.9 6.3-3.8 6.8c-3.6 1-5.2-1.3-5.8-4.2-2.9 2.8-9.2-1.4-9.3-5.6-3.3 1.7-9.2-.9-8.3-4.5.9-3.4 2.7-6.6 2.7-6.6z"/><path class="st6" d="M793 488.3s20.1 7.7 26.2 29.8c6.2 22.1 8.7 74 1 87.4-7.7 13.4-31.9 14.4-39.1-2.6-7.2-17-7.2-51.9-7.2-51.9l-2.1-54.5 21.2-8.2z"/><path class="st2" d="M790.9 512.5s9.3 7.2 11.8 13.4 8.2 60.2 6.7 63.8-10.8 5.7-13.9 1c-3.1-4.6-10.3-55.5-10.3-55.5l5.7-22.7z"/><path class="st3" d="m821.8 534.1-18.5-7.7M824.3 552.6l-19-14.4M824.8 569.6l-17.9-14.9M823.8 587.6l-13.9-13.9M818.2 607.1l-8.8-17.5M805.8 614.8l-1.5-21.6M790.4 612.8l5.7-19.6M779.1 594.8l12.8-13.9M776 574.2l12.9-12.9"/><path class="st0" d="M758 583.4s11.3 16.5 35 27.8c16.5 7.7 30.3 29.3 24.7 40.6-5.7 11.3-77.6 19-77.6 19s-14.4 1.5-12.3-12.3c-12.3.5-21.6-8.2-28.8-7.2-7.2 1-3.1 6.2-9.8 8.7s-11.3 1-11.3 1-18-13.9-19-18 0-8.2 2.1-18.5 15.4-45.8 15.4-45.8l15.9-31.9 47.8 11.8 17.9 24.8z"/><path class="st3" d="m727.7 658.5.5-10.8M753.4 637.4s-8.2 13.9-22.6 10.8c-14.4-3.1-14.9-34.5-13.4-41.7 1.5-7.2 5.1-11.8 5.1-11.8"/><path class="st5" d="M802.2 665.2c-12.9-6.7-19.5 3.1-19.5 3.1s-12.9-6.7-23.7 2.6c-13-5.1-19.3 1.5-20.4 2.9.3-1.1.4-1.9.4-1.9s1.5-9.8 8.7-11.8c7.2-2.1 11.3 3.6 11.3 3.6s5.1-8.2 10.8-9.3c5.7-1 11.3 3.1 11.3 3.1s4.6-4.1 9.8-5.1c5.1-1 9.8 3.6 9.8 3.6s1.5-5.7 6.7-8.2 9.8-1.5 12.3 1.5c.7.9 1.5 4.7 1.4 9.6-5-1.2-13.9-1.9-18.9 6.3z"/><path class="st4" d="M729.7 689.4c5.9-4.3 8.1-12.1 8.9-15.6 1.1-1.3 7.4-8 20.4-2.9 10.8-9.3 23.7-2.6 23.7-2.6s6.7-9.8 19.5-3.1c5-8.2 13.9-7.5 18.9-6.3-.1 12.1-4.9 30.9-26.1 29.5-7.7 4.1-21.6 2.1-21.6 2.1s-9.3 6.2-22.6 0c-10.3 6.6-22.6-.1-21.1-1.1z"/><path class="st3" d="M819.7 649.3c2.6 3.1 5.1 41.1-24.7 39.1-7.7 4.1-21.6 2.1-21.6 2.1s-9.3 6.2-22.6 0c-10.3 6.7-22.6 0-21.1-1 7.7-5.7 9.3-17.5 9.3-17.5s1.5-9.8 8.7-11.8c7.2-2.1 11.3 3.6 11.3 3.6s5.1-8.2 10.8-9.3c5.7-1 11.3 3.1 11.3 3.1s4.6-4.1 9.8-5.1c5.1-1 9.8 3.6 9.8 3.6s1.5-5.7 6.7-8.2 9.7-1.7 12.3 1.4z"/><path class="st3" d="M750.8 690.4c11.3-11.3 8.7-26.7 8.7-26.7M773.4 690.6c6.2-4.3 11.8-18.7 7.7-33.1M795 688.3c11.3-12.3 5.7-32.4 5.7-32.4"/><path class="st5" d="M658.8 643.1c4.6-5.7 20.1 1 21.1 6.2.8 4.1-1 6.9-.7 11.5-12.4-7.7-18.7-5.1-21.4-3-1.5-6.4-1.3-12 1-14.7z"/><path class="st4" d="M679.1 660.8c.1 1.2.3 2.5.7 4 2.1 7.2 18 22.1 18 22.1s-21.1 2.6-30.3-8.7c-4.8-5.9-8.2-13.5-9.7-20.3 2.6-2.3 8.9-4.8 21.3 2.9z"/><path class="st3" d="M679.8 649.3c1 5.1-2.1 8.2 0 15.4 2.1 7.2 18 22.1 18 22.1s-21.1 2.6-30.3-8.7c-9.3-11.3-13.4-29.3-8.7-35 4.6-5.7 20 1 21 6.2z"/><circle class="st6" cx="758" cy="626.1" r="14.4"/><circle class="st7" cx="758" cy="626.1" r="6.4"/><path class="st0" d="M632.5 465.7c43.7-29.3 88.4-23.7 99.8-22.6 11.3 1 42.7 7.7 50.9 13.9 8.2 6.2 14.4 21.1 10.8 26.7 3.1 5.1 4.1 19.5-1.5 21.6-5.7 2.1-22.6 11.8-22.6 11.8l-28.8-1-15.9-5.7-49.9-5.1c-.1 0-86.5-10.3-42.8-39.6z"/><path class="st3" d="M794 483.7c-3.1-1-7.7-2.6-13.4-.5M750.8 485.7c-7.7 5.7-15.9 6.2-21.6 10.8-5.7 4.6-4.1 13.9-4.1 13.9"/><path class="st3" d="M732.3 443.1s-16.5 13.4-15.9 28.3c.5 14.9 12.9 25.2 12.9 25.2M818.2 516.6l-24.2-4.1"/><path class="st8" d="M758.5 580.4s3.1 18.5-3.1 23.7c-6.2 5.1-24.7 2.1-25.2-11.3s13.9-19 13.9-19l14.4 6.6z"/><path class="st8" d="M730.8 567.5s3.1 22.1-4.1 28.8c-7.2 6.7-23.1 2.6-22.1-11.8.5-11.8 14.4-20.6 14.4-20.6l11.8 3.6z"/><path class="st8" d="M702.5 555.7s8.2 22.6-1 30.3c-12.3 9.3-29.3 1-27.3-11.3 2.1-12.3 14.4-21.6 14.4-21.6l13.9 2.6z"/><path class="st3" d="M743.1 606.1s3.6-12.3 1-13.4c-2.6-1-7.2 10.8-7.2 10.8M715.8 598.4s2.6-12.3.5-13.4c-2.1-1-7.7 10.8-7.7 10.8M689.1 590.1s2.6-13.4 0-14.4-7.7 11.3-7.7 11.3"/><path class="st1" d="m700.4 501.7 85.9 19.5-4.6 20.1s-17 25.7-23.1 39.1c-1.5.5-77.6-28.8-77.6-28.8l10.3-45.2 9.1-4.7z"/><path class="st3" d="m759.5 557.7-8.2 19.1M746.2 553.1l-7.7 19.5M734.4 549l-7.8 19M724.1 544.9l-7.2 18.5M711.2 541.3l-7.2 18M699.4 537.7l-5.7 15.9M727.2 527.9l-36-10.3"/><path class="st5" d="M780.1 517.6c-10.3-6.7-19-3.1-19-3.1s-8.3-5.9-18.4-4.9c1.3-6.8 7.5-11.4 18.4-5.4 11.8-4.1 19.5 4.6 19.5 4.6s9.3-6.7 11.8-3.6c1 1.2.6 6.6-.8 12.9-2.9-1.8-6.9-3-11.5-.5z"/><path class="st4" d="M742.6 510.4c.1-.3.1-.5.2-.8 10.1-1 18.4 4.9 18.4 4.9s8.7-3.6 19 3.1c4.6-2.5 8.6-1.3 11.6.6-2 9.4-6 20.6-10 23.1-6.7 4.1-14.9 2.1-16.5-4.1-7.7 4.1-14.4 1-18.5-3.6-7.2 2.1-16.5-.5-19.5-5.7 4.5-4.1 14.2-10.3 15.3-17.5z"/><path class="st3" d="M792.5 505.3c2.6 3.1-4.1 31.9-10.8 36-6.7 4.1-14.9 2.1-16.5-4.1-7.7 4.1-14.4 1-18.5-3.6-7.2 2.1-16.5-.5-19.5-5.7 4.6-4.1 14.4-10.3 15.4-17.5s7.2-12.3 18.5-6.2c11.8-4.1 19.5 4.6 19.5 4.6s9.3-6.6 11.9-3.5z"/><path class="st3" d="M765.2 537.2c16.5-13.4 15.4-28.3 15.4-28.3M748.2 533.1c18.5-15.4 12.9-28.8 12.9-28.8"/><circle class="st6" cx="755.4" cy="473.9" r="13.4"/><circle class="st7" cx="755.4" cy="473.9" r="5.9"/><path class="st3" d="m659.7 587 2.1-6.1M649.7 582.3l2.4-6.1M647.5 592l-2.8 5.8M657 597.1l-3.1 6.3"/><path class="st1" d="m291.1 350-36.5-28.3-26.7 9.8-24.2 19.5-9.7.2 32.3 77.8c29-7.5 52.4-13.7 52.4-13.7l12.4-65.3z"/><path class="st0" d="M151.8 352.1s-57.1 33.4-61.7 38.1-7.2 28.8-2.6 31.4c-2.6 4.1-.5 13.9-.5 13.9 2.6 10.3 14.9 20.1 31.9 19 10.1-.6 64.8-14.3 107.5-25.3l-32.4-78-42.2.9z"/><path class="st2" d="M128.1 301.2C80.3 312 83.4 466.7 83.4 466.7l30.3 1.5 18-9.8 6.2-155.8c0 .1 26.2-10.7-9.8-1.4z"/><path class="st3" d="m97.3 437.4-.6 28.8"/><path class="st0" d="M123 312s3.6-5.1 0-10.8c-3.6-5.7-21.6-10.3-29.3-28.8S88.6 239 88.6 239s59.1-5.1 69.9-5.1 3.6 20.6 8.2 24.2c4.6 3.6 13.9-1 18-8.7 2.6 5.7 2.6 21.1 23.7 12.9 4.6 7.2-4.1 25.2-7.2 54.5-11.3 9.8-26.2 14.4-26.2 14.4L123 312z"/><path class="st3" d="m166.7 258-7.2 8.7M93.7 272.4c8.7 2.1 13.4-.5 13.4-.5"/><path class="st0" d="M158.5 446.1c-19.3 4.6-34.7 8-39.6 8.3-17 1-29.3-8.7-31.9-19 0 0-2.1-9.8.5-13.9-4.6-2.6-2.1-26.7 2.6-31.4s61.7-38.1 61.7-38.1l2.1 36s11.8 8.7 10.3 19-11.8 17.5-11.8 17.5 9.1 10.9 6.1 21.6z"/><path class="st1" d="M123 312c-3.1-.5-14.9 47.8-14.9 47.8s66.3 11.3 97.2 7.2c-1.5-27.3-4.1-50.4-4.1-50.4s-46.9 1-78.2-4.6z"/><path class="st3" d="M191.9 317.1s-2.6 24.2.5 29.3c3.1 5.1 1 20.6 1 20.6M177.5 317.1s-1.5 24.2 2.1 26.7c3.6 2.6.5 23.1.5 23.1M166.2 316.1s-2.6 22.1 2.1 26.7-1 23.7-1 23.7M152.8 315.6s-3.1 22.1 4.1 26.2c7.2 4.1.5 23.7.5 23.7M141 314s-7.2 19 4.6 27.8c5.1 6.7-3.1 22.1-3.1 22.1M127.1 312.5s-4.1 15.4-1 24.7c-4.1 2.6-8.2 24.7-8.2 24.7M134.8 339.7c4.1 8.2-5.1 23.1-5.1 23.1"/><path class="st3" d="M115.3 335.6c55 10.3 87.9 8.7 87.9 8.7"/><path class="st4" d="M149.7 372.1s3.1-5.1 2.1-10.3c-11.8-4.6-28.3 5.7-28.3 5.7s1.5-9.8-8.7-7.7c-13.4 1.9-21.6 14.4-24.2 23 4.2 1.5 11.3 3 20.1.1 7.2 5.7 22.6 2.6 22.6 2.6s5 8.1 15.7 10.6c7.2-9.9 17.3-20.3 17.7-25-8.8-3.6-17 1-17 1z"/><path class="st5" d="M133.3 385.5s-15.4 3.1-22.6-2.6c-8.8 2.8-15.9 1.4-20.1-.1-1 3.3-1.2 6-.5 7.3 2.6 4.6 14.4 4.6 19.5 1.5 2.6 6.2 14.4 4.6 20.1.5-.5 8.7 10.8 12.9 15.4 9.8 1.1-1.9 2.5-3.9 3.9-5.9-10.7-2.4-15.7-10.5-15.7-10.5z"/><path class="st3" d="M90.1 390.1c-2.6-4.6 6.2-27.8 24.7-30.3 10.3-2.1 8.7 7.7 8.7 7.7s16.5-10.3 28.3-5.7c1 5.1-2.1 10.3-2.1 10.3s8.2-4.6 17-1c-.5 5.7-14.9 19.5-21.6 30.9-4.6 3.1-15.9-1-15.4-9.8-5.7 4.1-17.5 5.7-20.1-.5-5.1 3-17 3-19.5-1.6z"/><path class="st3" d="M123.5 367.5c-5.7 4.1-14.4 18-13.9 24.2M149.7 372.1c-3.1.5-12.3 5.7-20.1 20.1"/><circle class="st6" cx="144.1" cy="285.7" r="26.7"/><circle class="st6" cx="131.7" cy="281.5" r="13.4"/><circle class="st7" cx="131.7" cy="281.5" r="5.9"/><path class="st5" d="M118.9 227.1s-9.3 4.6-18.5.5c-4.9 2.3-9.3.6-12.2-1.3-1.2 5.7-1.3 10.7.4 12.6 4.6 5.1 10.8-1.5 10.8-1.5s9.3 8.7 19-2.1c10.8 7.7 20.1-1 20.1-1s2.1 10.8 8.2 9.8c1.8-.3 5.1-3.3 9-7.3-4.4-1.6-10.8-4.6-16.2-9.7-10.9 4.6-20.6 0-20.6 0z"/><path class="st4" d="M153.8 209.6s-5.1-9.3-22.1-2.1c-6.2-7.2-19-2.6-19-2.6s-4.6-5.1-12.3-2.1c-4.8 2-10.1 13.6-12.2 23.3 2.9 2 7.3 3.7 12.2 1.3 9.3 4.1 18.5-.5 18.5-.5s9.8 4.6 20.6 0c5.3 5 11.8 8.1 16.2 9.7 2.7-2.7 5.7-5.9 8.8-8.8 7.7-7.4 15.6-13.7 15.6-15.7-7.3-7.6-26.3-2.5-26.3-2.5z"/><path class="st3" d="M138.4 234.3s2.1 10.8 8.2 9.8c3-.5 10.3-8.9 17.8-16.1 7.7-7.4 15.6-13.7 15.6-15.7-7.2-7.7-26.2-2.6-26.2-2.6s-5.1-9.3-22.1-2.1c-6.2-7.2-19-2.6-19-2.6s-4.6-5.1-12.3-2.1c-7.7 3.1-16.5 30.9-11.8 36 4.6 5.1 10.8-1.5 10.8-1.5s9.3 8.7 19-2.1c10.7 7.7 20-1 20-1z"/><path class="st3" d="M99.3 237.4s-.5-14.4 13.4-32.4M118.3 235.3s-1-11.3 13.4-27.8M138.4 234.3s-2.1-7.7 15.4-24.7"/><path class="st5" d="M184.4 246.7c.2 1.5.3 2.5.3 2.5 2.6 5.7 2.6 21.1 23.7 12.9 0 0 2.3-9.4 1.9-18.4-9.7 7.1-20.4 4.9-25.9 3z"/><path class="st4" d="M184.7 218.9c-10.3-.5-19 9.3-19.5 13.4 3.6 0 9.8 1 14.4 4.1 3.1 2.1 4.4 7.3 4.8 10.3 5.6 1.9 16.2 4 25.9-3-.1-2.4-.4-4.7-.9-6.8-2.6-10.3-14.4-17.5-24.7-18z"/><path class="st3" d="M208.3 262.1c-21.1 8.2-21.1-7.2-23.7-12.9 0 0-.5-9.8-5.1-12.9-4.6-3.1-10.8-4.1-14.4-4.1.5-4.1 9.3-13.9 19.5-13.4 10.3.5 22.1 7.7 24.7 18 2.6 10.4-1 25.3-1 25.3z"/><circle class="st6" cx="115.8" cy="436.4" r="13.4"/><circle class="st7" cx="115.8" cy="436.4" r="5.9"/><path class="st3" d="M152.3 424.6c-7.7-9.8-27.3-11.7-30.3-1M96.2 417.4s-6.2.5-8.7 4.1"/><path class="st7" d="M450 246.1s.5-22.1 15.4-33.9c9.9 4.6 14.8 15.5 17.1 23.3-4.8-.6-15.2-1.4-19.2 1.3-5.1 3.6-8.2 42.2-1 44.7 5.6 2 17.8 2.1 23.1 2.1l.5 20.5 10.8-1.5-15.4 3.1-31.9-2.1.6-57.5z"/><path class="st8" d="M462.3 281.6c-7.2-2.6-4.1-41.1 1-44.7 3.9-2.7 14.4-1.9 19.2-1.3 1.5 5.2 1.9 9 1.9 9v.8c-4.7-.3-12.6-.5-14.4 1.3-2.6 2.6-2.6 7.2.5 11.3-2.6 2.6-3.1 10.3 0 13.4 2 2 9.5 1.6 14.6 1.1l.3 11.3c-5.3 0-17.5-.2-23.1-2.2z"/><path class="st8" d="M470.6 271.3c-3.1-3.1-2.6-10.8 0-13.4-3.1-4.1-3.1-8.7-.5-11.3 1.8-1.8 9.7-1.6 14.4-1.3l.7 27.1c-5.1.6-12.6.9-14.6-1.1z"/><path class="st3" d="M470.6 258H487"/><path class="st7" d="M501.4 210.7c7.7 3 12.6 12.3 15.8 22.2-6.3-1-15.1-1.6-18.9 2.5-6.2 6.7-7.2 44.2.5 46.8 4.8 1.6 11.8 2 16.4 2.1l-6.6 20.6-22.6-5.1-1.5-55c0-.2 2.5-23.3 16.9-34.1z"/><path class="st8" d="M498.3 235.3c3.8-4.1 12.6-3.5 18.9-2.5 1.3 4.1 2.3 8.2 3 12-3.4-.3-9.9-.6-12.1 1.3-3.1 2.6 0 12.3 0 12.3s-5.1 6.7.5 11.3c3.2 2.6 7.5 2.8 10.5 2.4l-3.9 12c-4.6-.1-11.6-.5-16.4-2.1-7.7-2.4-6.6-40-.5-46.7z"/><path class="st8" d="M519.1 272.2c-3 .4-7.3.3-10.5-2.4-5.7-4.6-.5-11.3-.5-11.3s-3.1-9.8 0-12.3c2.2-1.9 8.7-1.6 12.1-1.3 1.8 9.3 2.3 16.7 2.3 16.7l-3.4 10.6z"/><path class="st3" d="m522.5 258-14.4.5"/><path class="st0" d="M555.4 297c-11.8 7.7-18.5 33.9-43.2 42.2-24.7 8.2-46.8 7.7-62.7 7.7s-37 .5-61.7-7.7c-24.7-8.2-31.4-34.5-43.2-42.2-10.6-6.9-113.1-6.4-133.3-6.2-.1 9.3 0 17 .7 19.6 2.1 8.2 6.7 21.6 10.8 24.2 4.1 2.6 42.2.5 42.2.5l62.7 61.2L448 420.5 558 384l77.1-48.8s38.1 2.1 42.2-.5c4.1-2.6 8.7-15.9 10.8-24.2.7-2.6.8-10.3.7-19.6-20.3-.2-122.7-.8-133.4 6.1z"/><path class="st6" d="M545.6 271.3c-11.8 7.7-17.5 31.4-28.8 40.6-11.3 9.3-66.3 7.7-66.3 7.7s-56 1.5-67.4-7.7-17-32.9-28.8-40.6c-11.4-7.4-133.2-5.8-142.4-5.7-.3 8.1-.6 17.2-.7 25.1 20.2-.2 122.7-.7 133.3 6.2 11.8 7.7 18.5 33.9 43.2 42.2 24.7 8.2 45.8 7.7 61.7 7.7s38.1.5 62.7-7.7c24.7-8.2 31.4-34.5 43.2-42.2 10.6-6.9 113.1-6.4 133.3-6.2-.1-8-.4-17.1-.7-25.1-9.1 0-130.9-1.7-142.3 5.7z"/><path class="st0" d="M268.5 226.1s4.6-11.4 14.9-12.6c10.3-1.3 40.6-4.9 49.4 6.9 8.7 11.8 4.6 27.3 4.6 27.3l-36 6.2-32.9-27.8z"/><path class="st4" d="M263.8 223.1c-12.2.4-23 .7-26.2-.1-7.7-2.1-7.7-11.8-8.7-14.9-5.1 1-12.3 4.1-14.9 12.9-2.6 8.7-3.1 19.5-1 22.6 2.1 3.1 6.7 10.8 6.7 10.8l21.6 2.1 21.5-2.7c1.7-5.2 3.9-15.8 1-30.7z"/><path class="st5" d="M307.1 225.1c-4-3.1-25.1-2.5-43.2-2 2.9 14.9.7 25.4-1 30.6l48.9-6.1c-.1.1 3.5-14.3-4.7-22.5z"/><path class="st3" d="M213 243.6c-2.1-3.1-1.5-13.9 1-22.6 2.6-8.7 9.8-11.8 14.9-12.9 1 3.1 1 12.9 8.7 14.9s62.7-3.1 69.4 2.1c8.2 8.2 4.6 22.6 4.6 22.6l-70.4 8.7-21.6-2.1c0 .1-4.6-7.7-6.6-10.7z"/><path class="st0" d="M631.5 226.1s-4.6-11.4-14.9-12.6c-10.3-1.3-40.6-4.9-49.4 6.9-8.7 11.8-4.6 27.3-4.6 27.3l36 6.2 32.9-27.8z"/><path class="st4" d="M636.2 223.1c12.2.4 23 .7 26.2-.1 7.7-2.1 7.7-11.8 8.7-14.9 5.1 1 12.3 4.1 14.9 12.9 2.6 8.7 3.1 19.5 1 22.6-2.1 3.1-6.7 10.8-6.7 10.8l-21.6 2.1-21.5-2.7c-1.7-5.2-3.9-15.8-1-30.7z"/><path class="st5" d="M592.9 225.1c4-3.1 25.1-2.5 43.2-2-2.9 14.9-.7 25.4 1 30.6l-48.9-6.1c.1.1-3.5-14.3 4.7-22.5z"/><path class="st3" d="M687 243.6c2.1-3.1 1.5-13.9-1-22.6-2.6-8.7-9.8-11.8-14.9-12.9-1 3.1-1 12.9-8.7 14.9s-62.7-3.1-69.4 2.1c-8.2 8.2-4.6 22.6-4.6 22.6l70.4 8.7 21.6-2.1c0 .1 4.6-7.7 6.6-10.7z"/><circle class="st0" cx="433.5" cy="332.8" r="12.1"/><circle class="st0" cx="405.3" cy="331.2" r="12.1"/><circle class="st0" cx="377.2" cy="322.5" r="12.1"/><circle class="st10" cx="358.5" cy="296" r="11.8"/><circle class="st0" cx="334.8" cy="280.3" r="12.1"/><circle class="st0" cx="307.1" cy="279.3" r="12.1"/><circle class="st0" cx="279.3" cy="277.8" r="12.1"/><circle class="st0" cx="251.5" cy="277.5" r="11.8"/><circle class="st0" cx="223.2" cy="277.8" r="12.1"/><path class="st3" d="M238.7 319.7c12.9-5.7-1-26.7-26.7-9.3"/><path class="st7" d="M450 246.1s-.5-22.1-15.4-33.9c-9.9 4.6-14.8 15.5-17.1 23.3 4.8-.6 15.2-1.4 19.2 1.3 5.1 3.6 8.2 42.2 1 44.7-5.6 2-17.8 2.1-23.1 2.1l-.5 20.5-10.8-1.5 15.4 3.1 31.9-2.1-.6-57.5z"/><path class="st8" d="M437.7 281.6c7.2-2.6 4.1-41.1-1-44.7-3.9-2.7-14.4-1.9-19.2-1.3-1.5 5.2-1.9 9-1.9 9v.8c4.7-.3 12.6-.5 14.4 1.3 2.6 2.6 2.6 7.2-.5 11.3 2.6 2.6 3.1 10.3 0 13.4-2 2-9.5 1.6-14.6 1.1l-.3 11.3c5.3 0 17.5-.2 23.1-2.2z"/><path class="st8" d="M429.4 271.3c3.1-3.1 2.6-10.8 0-13.4 3.1-4.1 3.1-8.7.5-11.3-1.8-1.8-9.7-1.6-14.4-1.3l-.7 27.1c5.1.6 12.6.9 14.6-1.1z"/><path class="st3" d="M429.4 258H413"/><path class="st7" d="M398.6 210.7c-7.7 3-12.6 12.3-15.8 22.2 6.3-1 15.1-1.6 18.9 2.5 6.2 6.7 7.2 44.2-.5 46.8-4.8 1.6-11.8 2-16.4 2.1l6.6 20.6 22.6-5.1 1.5-55c0-.2-2.5-23.3-16.9-34.1z"/><path class="st8" d="M401.7 235.3c-3.8-4.1-12.6-3.5-18.9-2.5-1.3 4.1-2.3 8.2-3 12 3.4-.3 9.9-.6 12.1 1.3 3.1 2.6 0 12.3 0 12.3s5.1 6.7-.5 11.3c-3.2 2.6-7.5 2.8-10.5 2.4l3.9 12c4.6-.1 11.6-.5 16.4-2.1 7.7-2.4 6.6-40 .5-46.7z"/><path class="st8" d="M380.9 272.2c3 .4 7.3.3 10.5-2.4 5.7-4.6.5-11.3.5-11.3s3.1-9.8 0-12.3c-2.2-1.9-8.7-1.6-12.1-1.3-1.8 9.3-2.3 16.7-2.3 16.7l3.4 10.6z"/><path class="st3" d="m377.5 258 14.4.5M661.3 319.7c-12.9-5.7 1-26.7 26.7-9.3"/><path class="st1" d="m593.5 530.5-68.9 7.7-56.8-6.9 32.6-65.6 101.3-2.6z"/><path class="st3" d="M526.6 485.7V477"/><path class="st1" d="M532.8 365.9c5.7-8.2-4.6-8.7-10.3-13.9-5.7-5.1-20.1-1.5-23.1 6.2-4.1-5.7-19.5-8.2-26.7 2.1-4.6-6.7-15.9-6.2-22.1-.5-5.1-5.7-19.5-6.2-24.2.5-7.2-10.3-21.6-7.7-25.7-2.1-3.1-7.7-17.5-11.3-23.1-6.2-5.7 5.1-15.9 5.7-10.3 13.9 5.7 8.2 40 17.1 84.3 17.5 44.3.4 75.5-9.2 81.2-17.5z"/><path class="st3" d="m397.4 377.6 3.2-19.4M425 381.7l1.3-21.4M475.1 381.9l-2.5-21.6M503.5 377.6l-4.1-19.4M450.5 383.4v-23.6"/><path class="st1" d="M354.4 271.3c11.8 7.7 17.5 31.4 28.8 40.6s67.4 7.7 67.4 7.7 55 1.5 66.3-7.7c11.3-9.3 17-32.9 28.8-40.6 11.4-7.4 133.2-5.8 142.4-5.7-.5-12.2-1-22.1-1-22.1s-4.1 3.6-10.3 4.6-116.8-5.1-138.9.6c-22.1 5.7-26.7 43.7-33.9 46.8-7.2 3.1-47.8 4.6-54.5 4.6s-46.3-1.5-53.5-4.6c-7.2-3.1-11.8-41.1-33.9-46.8s-132.7.5-138.8-.5c-6.2-1-10.3-4.6-10.3-4.6s-.5 9.9-1 22.1c9.1-.1 131-1.8 142.4 5.6z"/><path class="st3" d="m227.4 266.2 1-17.5M253.1 265.2v-16.5M280.8 265.2l1.1-18M309.1 265.2l.5-19.1M337.4 266.7l3.1-19M356.9 272.4l12.9-19.1M369.3 290.4l18.5-9.3M389.3 314.5l6.7-19M421.7 318.1l2.1-18.5M672.6 266.2l-1-17.5M646.9 265.2v-16.5M619.2 265.2l-1.1-18M590.9 265.2l-.5-19.1M562.6 266.7l-3.1-19M543.1 272.4l-12.9-19.1M531.8 290.4l-19.6-9.3M510.7 314.5l-6.7-19M478.3 318.1l-2.1-18.5"/><path class="st2" d="M623.3 319.7s8.7 11.3 19 17c10.3 5.7 27.3 14.9 21.1 33.9-16.5 0-29.3-1.5-29.3-1.5l-22.1-8.7-2.1-26.2 13.4-14.5z"/><path class="st3" d="m658.3 356.7-32.4-18.5M657.2 364.4l-31.3-11.3"/><path class="st2" d="M619.2 388.1s6.7 24.7 5.1 28.3c-1.5 3.6-7.7 9.8-10.8 10.3-3.1.5-11.3-7.2-16.5-8.7-5.1-1.5-14.9-12.3-14.9-12.3l.5-14.9 12.3-18 24.3 15.3z"/><path class="st2" d="M618.7 416.3c-5.7-19-20.1-34.5-20.1-34.5M610.9 417.4c-9.8-16.5-21.6-24.7-21.6-24.7M567.8 423.5s2.6 23.1 0 28.8c-2.6 5.7-15.4 14.4-18.5 12.3-7.2-8.7-13.4-11.3-18.5-17-5.1-5.7-2.1-39.1-2.1-39.1l19.5-8.7 19.6 23.7z"/><path class="st2" d="M548.2 411.2c8.7 15.4 11.3 49.9 11.3 49.9M535.6 421c10.1 9.7 11.6 40.1 11.6 40.1M508.6 458.8c-.5 3.8-8.2 6.9-8.2 6.9l-30.9-11.3-7.2-28.3 9.3-17 29.8.5 9.8 20.6 4.1 21.1s-6.3 3.7-6.7 7.5z"/><path class="st2" d="M494.7 422c6.2 15.4 2.1 36 2.1 36M486 422.5c-.5 11.8 6.2 25.7 3.6 32.9M618.9 331.5c10.8 2.3 14.7 18.5 6.9 27 6.9 3.9 24.7 27.8 11.6 43.2-3 1.3-11.1-5.5-20.6-10.4-7.7-4-16.9-5.8-20.8-9.6-8.7-8.5-26.5-13.1-26.5-13.1L568 340s40.1-10.8 50.9-8.5z"/><path class="st2" d="M608.9 355.7c3.1 4.6 12.9 6.2 16.9 2.9M635.1 386.5s-9.3-15.4-25.2-21.6c-12.3-5.7-12.9-17.5-12.9-17.5M613.5 337.1c6.2 2.1 8.2 10.3 3.6 13.9-4.6 3.6-5.7-7.7-10.3-8.2M633.1 392.7s-14.4-15.4-30.9-20.6c-16.5-5.1-19.5-23.7-19.5-23.7M586.5 452.6c-2.3-.4-8.8-11.5-18.3-21.6-9.5-10.1-22-19.1-23.9-25.7-3.9-13.1.5-30.6.5-30.6s23.9-11.1 30.9-11.1c6.9 0 19.5 7.2 20.3 18 .8 10.8-2.6 16.2-8.7 19 0 1 13.1 12.9 11.6 28.3s-7.8 24.5-12.4 23.7z"/><path class="st2" d="M587.2 400.7c-4.6 1.7-15.9.7-20-11.6"/><path class="st2" d="M589.9 442.6c1.5-15.4-7.7-28.3-17-36-9.3-7.7-12.9-13.9-10.8-20.1 2.1-6.2 6.7-8.2 11.8-7.7 5.1.5 3.6 12.9 8.2 14.4s8.7-5.1 6.7-11.8c-2.1-6.7-11.5-12.9-15.4-12.9s-17.5 4.1-18.5 7.2-2.6 14.4-1 21.1 28.8 29.3 30.9 47.3M535.6 421c10-.8 11.6-13.9 7.7-25.5-3.9-11.6-19.3-15.4-27-14.7-20.1 1.5-24.4 17.5-18.3 36.8s12.1 21.1 10.5 41.1c-.8 6.2 8.5 8.5 12.3 8.5 15.5-10.7 17.1-35.4 14.8-46.2z"/><path class="st2" d="M535.6 421c-2.8.5-11.5-.1-13.6-9.3"/><path class="st2" d="M524.6 463.1s4.1-21.1-3.1-33.4c-7.2-12.3-11.3-29.8-2.6-31.9 8.7-2.1 9.3 9.3 11.8 11.3 2.6 2.1 7.7-1 7.2-6.2-.5-5.1-4.6-11.8-14.9-13.9s-21.1 7.2-19.5 15.4c1.5 8.2 7.2 16.5 10.8 28.8 3.6 12.3 2.1 31.9 2.1 31.9"/><path class="st2" d="M450.7 436.4s-4.6-27 0-37 12.1-15.9 24.4-17.5c12.3-1.5 22.4 5.1 25.5 12.9 3.1 7.7 7.2 25.5-5.9 30.1-17.7 6.9-23.1-8.5-23.1-8.5s16.2 20.1 15.4 33.9-36.3-13.9-36.3-13.9z"/><path class="st3" d="M470.6 441s-9.3-21.1-6.7-29.8 8.7-11.8 13.4-9.8 4.1 11.8 6.2 13.4 6.7 1 8.7-1c2.1-2.1 1.5-12.9-4.1-18-14.4-9.8-26.2-1.5-30.9 7.7s4.1 32.4 4.1 32.4"/><path class="st2" d="M276.7 319.7s-8.7 11.3-19 17c-10.3 5.7-27.3 14.9-21.1 33.9 16.5 0 29.3-1.5 29.3-1.5l22.1-8.7 2.1-26.2-13.4-14.5z"/><path class="st3" d="m241.8 356.7 32.3-18.5M242.8 364.4l31.3-11.3"/><path class="st2" d="M280.8 388.1s-6.7 24.7-5.1 28.3 7.7 9.8 10.8 10.3c3.1.5 11.3-7.2 16.5-8.7 5.1-1.5 14.9-12.3 14.9-12.3l-.5-14.9-12.3-18-24.3 15.3z"/><path class="st2" d="M281.3 416.3c5.7-19 20.1-34.5 20.1-34.5M289.1 417.4c9.8-16.5 21.6-24.7 21.6-24.7M332.2 423.5s-2.6 23.1 0 28.8c2.6 5.7 15.4 14.4 18.5 12.3 7.2-8.7 13.4-11.3 18.5-17 5.1-5.7 2.1-39.1 2.1-39.1l-19.5-8.7-19.6 23.7z"/><path class="st2" d="M351.8 411.2c-8.7 15.4-11.3 49.9-11.3 49.9M364.4 421c-10.1 9.7-11.6 40.1-11.6 40.1M391.4 458.8c.5 3.8 8.2 6.9 8.2 6.9l30.9-11.3 7.2-28.3-9.3-17-29.8.5-9.8 20.6-4.1 21.1s6.3 3.7 6.7 7.5z"/><path class="st2" d="M405.3 422c-6.2 15.4-2.1 36-2.1 36M414 422.5c.5 11.8-6.2 25.7-3.6 32.9M281.1 331.5c-10.8 2.3-14.7 18.5-6.9 27-6.9 3.9-24.7 27.8-11.6 43.2 3 1.3 11.1-5.5 20.6-10.4 7.7-4 16.9-5.8 20.8-9.6 8.7-8.5 26.5-13.1 26.5-13.1L332 340s-40.1-10.8-50.9-8.5z"/><path class="st2" d="M291.1 355.7c-3.1 4.6-12.9 6.2-16.9 2.9M264.9 386.5s9.3-15.4 25.2-21.6c12.3-5.7 12.9-17.5 12.9-17.5M286.5 337.1c-6.2 2.1-8.2 10.3-3.6 13.9 4.6 3.6 5.7-7.7 10.3-8.2M266.9 392.7s14.4-15.4 30.9-20.6c16.5-5.1 19.5-23.7 19.5-23.7M313.5 452.6c2.3-.4 8.8-11.5 18.3-21.6 9.5-10.1 22-19.1 23.9-25.7 3.9-13.1-.5-30.6-.5-30.6s-23.9-11.1-30.9-11.1c-6.9 0-19.5 7.2-20.3 18-.8 10.8 2.6 16.2 8.7 19 0 1-13.1 12.9-11.6 28.3 1.6 15.5 7.8 24.5 12.4 23.7z"/><path class="st2" d="M312.8 400.7c4.6 1.7 15.9.7 20-11.6"/><path class="st2" d="M310.1 442.6c-1.5-15.4 7.7-28.3 17-36 9.3-7.7 12.9-13.9 10.8-20.1-2.1-6.2-6.7-8.2-11.8-7.7-5.1.5-3.6 12.9-8.2 14.4s-8.7-5.1-6.7-11.8 11.5-12.9 15.4-12.9c3.9.1 17.5 4.1 18.5 7.2 1 3.1 2.6 14.4 1 21.1s-28.8 29.3-30.9 47.3M364.4 421c-10-.8-11.6-13.9-7.7-25.5 3.9-11.6 19.3-15.4 27-14.7 20.1 1.5 24.4 17.5 18.3 36.8-6.2 19.3-12.1 21.1-10.5 41.1.8 6.2-8.5 8.5-12.3 8.5-15.5-10.7-17.1-35.4-14.8-46.2z"/><path class="st2" d="M364.4 421c2.8.5 11.5-.1 13.6-9.3"/><path class="st2" d="M375.4 463.1s-4.1-21.1 3.1-33.4c7.2-12.3 11.3-29.8 2.6-31.9-8.7-2.1-9.3 9.3-11.8 11.3-2.6 2.1-7.7-1-7.2-6.2.5-5.1 4.6-11.8 14.9-13.9 10.3-2.1 21.1 7.2 19.5 15.4-1.5 8.2-7.2 16.5-10.8 28.8-3.6 12.3-2.1 31.9-2.1 31.9"/><path class="st2" d="M449.3 436.4s4.6-27 0-37-12.1-15.9-24.4-17.5c-12.3-1.5-22.4 5.1-25.5 12.9-3.1 7.7-7.2 25.5 5.9 30.1 17.7 6.9 23.1-8.5 23.1-8.5s-16.2 20.1-15.4 33.9 36.3-13.9 36.3-13.9z"/><path class="st2" d="M429.4 441s9.3-21.1 6.7-29.8-8.7-11.8-13.4-9.8-4.1 11.8-6.2 13.4-6.7 1-8.7-1c-2.1-2.1-1.5-12.9 4.1-18 14.4-9.8 26.2-1.5 30.9 7.7s-4.1 32.4-4.1 32.4"/><path class="st1" d="M341.5 348.5c2.1 2.6-5.1 4.1-3.6 10.3 1.5 4.6 8.7 7.2 15.9 5.1 9.8-3.1 10.8-13.9 8.2-21.1s-11.3-11.8-19-12.3c-7.7-.5-35.5 10.8-50.9-3.1-11.8-11.8-5.1-27.3 4.6-35-8.7 3.6-21.1 18-22.1 26.2s8.2 27.8 24.7 30.9 20.6 4.1 26.2 1.5c.1 0 9.3-10.8 16-2.5z"/><path class="st0" d="m353.3 319.7-38-24.7s-9.8-6.2-18.5-2.6c-9.8 7.7-16.5 23.1-4.6 35 15.4 13.9 43.2 2.6 50.9 3.1 7.7.5 16.5 5.1 19 12.3s1.5 18-8.2 21.1c-7.2 2.1-14.4-.5-15.9-5.1-1.5-6.2 5.7-7.7 3.6-10.3-6.7-8.2-15.9 2.6-15.9 2.6-6.7 10.8-2.1 21.6 12.9 25.2 14.9 3.6 33.9-.5 39.1-24.2s-24.4-32.4-24.4-32.4z"/><path class="st3" d="M275.2 316.6c3.6-6.7 9.8-5.7 9.8-5.7M276.7 327.4c3.1-6.7 10.3-7.7 10.3-7.7M283.4 338.7c2.1-9.3 8.7-11.3 8.7-11.3M298.8 332c-6.2 5.7-2.6 16.5-2.6 16.5M308.1 335.6c-2.1 3.6-1.5 14.4-1.5 14.4M317.3 334.6c1.5 4.6-.5 16.5-.5 16.5M329.7 346.9s2.6-9.3 1-13.9M336.4 344.3s3.1-10.8 12.9-12.3M341.5 348.5c7.2-10.8 20.6-5.7 20.6-5.7M338.9 354.1c17.5.5 19 6.2 19 6.2"/><path class="st8" d="M347.5 305.4c-3.2-6.6-11.7-11.9-20.9-12.4-12.3-.7-26.2 11.3-27.3 17-1 5.7 0 13.9 5.1 14.9 1.3.3 4.3.6 8.1.9-2.5-3.8-2.8-17.3 11.4-17.8 13.3-.5 12.1 11.3 10.6 18 4.9-.4 9.2-1.2 11.5-2.6 5.3-3.7 4.8-11.4 1.5-18z"/><path class="st7" d="M324 307.8c-14.2.5-13.9 14-11.4 17.8 6.3.5 14.9.7 22.1.2 1.5-6.6 2.6-18.4-10.7-18z"/><path class="st1" d="M558.5 348.5c-2.1 2.6 5.1 4.1 3.6 10.3-1.5 4.6-8.7 7.2-15.9 5.1-9.8-3.1-10.8-13.9-8.2-21.1s11.3-11.8 19-12.3c7.7-.5 35.5 10.8 50.9-3.1 11.8-11.8 5.1-27.3-4.6-35 8.7 3.6 21.1 18 22.1 26.2s-8.2 27.8-24.7 30.9c-16.5 3.1-20.6 4.1-26.2 1.5-.1 0-9.3-10.8-16-2.5z"/><path class="st0" d="m546.7 319.7 38.1-24.7s9.8-6.2 18.5-2.6c9.8 7.7 16.5 23.1 4.6 35-15.4 13.9-43.2 2.6-50.9 3.1-7.7.5-16.5 5.1-19 12.3s-1.5 18 8.2 21.1c7.2 2.1 14.4-.5 15.9-5.1 1.5-6.2-5.7-7.7-3.6-10.3 6.7-8.2 15.9 2.6 15.9 2.6 6.7 10.8 2.1 21.6-12.9 25.2-14.9 3.6-33.9-.5-39.1-24.2s24.3-32.4 24.3-32.4z"/><path class="st3" d="M624.8 316.6c-3.6-6.7-9.8-5.7-9.8-5.7M623.3 327.4c-3.1-6.7-10.3-7.7-10.3-7.7M616.6 338.7c-2.1-9.3-8.7-11.3-8.7-11.3M601.2 332c6.2 5.7 2.6 16.5 2.6 16.5M591.9 335.6c2.1 3.6 1.5 14.4 1.5 14.4M582.7 334.6c-1.5 4.6.5 16.5.5 16.5M570.3 346.9s-2.6-9.3-1-13.9M563.6 344.3s-3.1-10.8-12.9-12.3M558.5 348.5c-7.2-10.8-20.6-5.7-20.6-5.7M561.1 354.1c-17.5.5-19 6.2-19 6.2"/><path class="st8" d="M552.5 305.4c3.2-6.6 11.7-11.9 20.9-12.4 12.3-.7 26.2 11.3 27.3 17 1 5.7 0 13.9-5.1 14.9-1.3.3-4.3.6-8.1.9 2.5-3.8 2.8-17.3-11.4-17.8-13.3-.5-12.1 11.3-10.6 18-4.9-.4-9.2-1.2-11.5-2.6-5.3-3.7-4.8-11.4-1.5-18z"/><path class="st7" d="M576 307.8c14.2.5 13.9 14 11.4 17.8-6.3.5-14.9.7-22.1.2-1.5-6.6-2.6-18.4 10.7-18z"/><path class="st2" d="M240.7 610.7s21.1 36 48.3 56.6c27.3 20.6 40.6 21.6 40.6 21.6l57.1-22.6 17-121.4-28.3-43.2-89-2.1-49.4 39.6-10.8 25.2 17 30.9-2.5 15.4z"/><path class="st8" d="M367.7 579.3c-2.3 0-12.3-5.8-23.3-10.8-11-5-22.9-9.3-27-10.3-8.2-2.1-15.9 1-21.6-7.2-5.7-8.2 5.7-22.6 20.6-20.1 4.6 1.5 8.7 9.8 17.5 13.9s31.9 6.7 35.5 10.3c3.6 3.6 7.7 18.5 7.7 18.5s-4.7 5.7-9.4 5.7z"/><path class="st8" d="M337.9 526.9s-9.8 33.9-14.9 36.5-7.7 0-13.4 1.5-4.6 20.6-.5 23.7c4.1 3.1 12.9 2.6 15.4.5 4.6 11.3 14.9 5.7 16.5-2.1s18.5-59.6 18.5-59.6M292.7 627.7c-7.7 0-12.3-8.7-18.5-6.7-6.2 2.1-11.8 7.2-4.1 16.5-3.6 4.6-.5 13.4 7.7 16.5 8.2 3.1 16.5-5.7 16.5-5.7l42.2-11.3 10.8 3.6 10.8-23.1-1.5-16.5s-4.1-8.2-11.3-6.2-4.1 14.4-8.2 20.6c-4.3 6.1-36.7 12.3-44.4 12.3z"/><path class="st8" d="M305.5 608.6c3.1 3.6.5 39.6.5 39.6s-9.8 1.5-10.3 12.3 10.3 13.4 19 13.9c3.6 6.7 9.8 6.2 15.9 5.7 6.2-.5 10.3-14.4 8.2-19.5s-7.7-6.7-7.7-6.7-3.6-39.6.5-43.7 1-17.5 1-17.5-1.5-4.6-6.2-4.6-10.8 9.8-10.8 9.8-2.6-6.7-8.7-2.6-4.5 9.7-1.4 13.3z"/><path class="st8" d="m223.8 574.2 4.6 8.2 10.8 25.7s7.2 14.4 18 18.5 35.5.5 44.7-9.3c9.3-9.8 9.3-38.6-1.5-50.9-10.8-12.3-33.4-12.9-33.4-12.9l-43.2 20.7z"/><path class="st9" d="m251.5 577.3-9.2 4.1-13.9 1 10.8 25.7 22.6-15.4-.5-9.3-4.6-5.6"/><circle class="st8" cx="272.6" cy="606.1" r="7.2"/><circle cx="272.6" cy="606.1" r="3.2"/><path class="st3" d="M298.8 579.8s-11.8 6.7-13.4 10.8c-1.5 4.1 9.8 13.4 9.8 13.4M246.9 611.7c7.7 2.6 9.3 9.8 9.3 9.8M264.4 550.5s1 18 4.6 20.6c3.6 2.6 8.2 6.7 5.1 11.3-3.1 4.6-13.2 4.2-13.2 4.2s.8-6-3.8-6.7"/><path class="st4" d="M230.5 588.1c.9 1.9 2 3.1 2 3.1l24.7-11.3s-.4-2.2-1.1-4.2l-25.6 12.4z"/><path class="st5" d="M254.1 572.6c-3.4-1.4-5.3.8-6.2 3.6-2.6-3.1-9.3.5-9.8 4.6-3.1-2.1-9.3 0-8.7 3.6.2 1.3.7 2.5 1.1 3.6l25.5-12.3c-.5-1.4-1.1-2.7-1.9-3.1z"/><path class="st4" d="m261 586.6-24.5 14.1s.6 2.1 1.5 4l24.4-15.1c-.7-1.7-1.4-3-1.4-3z"/><path class="st5" d="m262.4 589.7-24.4 15c.7 1.3 1.4 2.6 2.3 2.8 3.6 1 5.2-1.3 5.8-4.2 2.9 2.8 9.2-1.4 9.3-5.6 3.3 1.7 9.2-.9 8.3-4.5-.4-1.2-.8-2.5-1.3-3.5z"/><path class="st3" d="m232.5 591.2 24.7-11.3s-1.2-6.4-3.1-7.2c-3.4-1.4-5.3.8-6.2 3.6-2.6-3.1-9.3.5-9.8 4.6-3.1-2.1-9.3 0-8.7 3.6.5 3.6 3.1 6.7 3.1 6.7zM261 586.6l-24.5 14.1s1.9 6.3 3.8 6.8c3.6 1 5.2-1.3 5.8-4.2 2.9 2.8 9.2-1.4 9.3-5.6 3.3 1.7 9.2-.9 8.3-4.5-.9-3.5-2.7-6.6-2.7-6.6z"/><path class="st1" d="m306.5 530.5 69.5 6.7 33.4-67.4-9.8-4.1-101.3-2.6z"/><path class="st3" d="m308.1 482.7 83.3 3M319.9 517.6l55.5 5.7M330.7 517.1l.5-33.4M344.1 518.1l1-33.4M359.5 519.2l1-32.9M314.3 481.6l.5-9.2M326.1 481.6l.5-8.2M338.4 482.2v-9.3M350.2 483.2v-9.3M362.6 483.7V475M373.4 485.7v-10.2"/><path class="st6" d="M107 488.3s-20.1 7.7-26.2 29.8c-6.2 22.1-8.7 74-1 87.4s31.9 14.4 39.1-2.6c7.2-17 7.2-51.9 7.2-51.9l2.1-54.5-21.2-8.2z"/><path class="st2" d="M109.1 512.5s-9.3 7.2-11.8 13.4c-2.6 6.2-8.2 60.2-6.7 63.8 1.5 3.6 10.8 5.7 13.9 1 3.1-4.6 10.3-55.5 10.3-55.5l-5.7-22.7z"/><path class="st3" d="m78.2 534.1 18.5-7.7M75.7 552.6l19-14.4M75.2 569.6l17.9-14.9M76.2 587.6l13.9-13.9M81.8 607.1l8.8-17.5M94.2 614.8l1.5-21.6M109.6 612.8l-5.7-19.6M120.9 594.8l-12.8-13.9M124 574.2l-12.9-12.9"/><path class="st0" d="M142 583.4s-11.3 16.5-35 27.8c-16.5 7.7-30.3 29.3-24.7 40.6 5.7 11.3 77.6 19 77.6 19s14.4 1.5 12.3-12.3c12.3.5 21.6-8.2 28.8-7.2 7.2 1 3.1 6.2 9.8 8.7 6.7 2.6 11.3 1 11.3 1s18-13.9 19-18 0-8.2-2.1-18.5-15.4-45.8-15.4-45.8l-15.9-31.9-47.7 12-18 24.6z"/><path class="st3" d="m172.3 658.5-.5-10.8M146.6 637.4s8.2 13.9 22.6 10.8c14.4-3.1 14.9-34.5 13.4-41.7-1.5-7.2-5.1-11.8-5.1-11.8"/><path class="st5" d="M97.8 665.2c12.9-6.7 19.5 3.1 19.5 3.1s12.9-6.7 23.7 2.6c13-5.1 19.3 1.5 20.4 2.9-.3-1.1-.4-1.9-.4-1.9s-1.5-9.8-8.7-11.8c-7.2-2.1-11.3 3.6-11.3 3.6s-5.1-8.2-10.8-9.3c-5.7-1-11.3 3.1-11.3 3.1s-4.6-4.1-9.8-5.1c-5.1-1-9.8 3.6-9.8 3.6s-1.5-5.7-6.7-8.2-9.8-1.5-12.3 1.5c-.7.9-1.5 4.7-1.4 9.6 4.9-1.2 13.9-1.9 18.9 6.3z"/><path class="st4" d="M170.3 689.4c-5.9-4.3-8.1-12.1-8.9-15.6-1.1-1.3-7.4-8-20.4-2.9-10.8-9.3-23.7-2.6-23.7-2.6s-6.7-9.8-19.5-3.1c-5-8.2-13.9-7.5-18.9-6.3.1 12.1 4.9 30.9 26.1 29.5 7.7 4.1 21.6 2.1 21.6 2.1s9.3 6.2 22.6 0c10.3 6.6 22.6-.1 21.1-1.1z"/><path class="st3" d="M80.3 649.3c-2.6 3.1-5.1 41.1 24.7 39.1 7.7 4.1 21.6 2.1 21.6 2.1s9.3 6.2 22.6 0c10.3 6.7 22.6 0 21.1-1-7.7-5.7-9.3-17.5-9.3-17.5s-1.5-9.8-8.7-11.8c-7.2-2.1-11.3 3.6-11.3 3.6s-5.1-8.2-10.8-9.3c-5.7-1-11.3 3.1-11.3 3.1s-4.6-4.1-9.8-5.1c-5.1-1-9.8 3.6-9.8 3.6s-1.5-5.7-6.7-8.2-9.7-1.7-12.3 1.4z"/><path class="st3" d="M149.2 690.4c-11.3-11.3-8.7-26.7-8.7-26.7M126.6 690.6c-6.2-4.3-11.8-18.7-7.7-33.1M105 688.3c-11.3-12.3-5.7-32.4-5.7-32.4"/><path class="st5" d="M241.2 643.1c-4.6-5.7-20.1 1-21.1 6.2-.8 4.1 1 6.9.7 11.5 12.4-7.7 18.7-5.1 21.4-3 1.5-6.4 1.2-12-1-14.7z"/><path class="st4" d="M220.8 660.8c-.1 1.2-.3 2.5-.7 4-2.1 7.2-18 22.1-18 22.1s21.1 2.6 30.3-8.7c4.8-5.9 8.2-13.5 9.7-20.3-2.5-2.3-8.8-4.8-21.3 2.9z"/><path class="st3" d="M220.2 649.3c-1 5.1 2.1 8.2 0 15.4-2.1 7.2-18 22.1-18 22.1s21.1 2.6 30.3-8.7c9.3-11.3 13.4-29.3 8.7-35-4.6-5.7-20 1-21 6.2z"/><circle class="st6" cx="142" cy="626.1" r="14.4"/><circle class="st7" cx="142" cy="626.1" r="6.4"/><path class="st0" d="M267.5 465.7c-43.7-29.3-88.4-23.7-99.8-22.6-11.3 1-42.7 7.7-50.9 13.9s-14.4 21-10.8 26.7c-3.1 5.1-4.1 19.5 1.5 21.6s22.6 11.8 22.6 11.8l28.8-1 15.9-5.7 49.9-5.1c.1 0 86.5-10.3 42.8-39.6z"/><path class="st3" d="M106 483.7c3.1-1 7.7-2.6 13.4-.5M149.2 485.7c7.7 5.7 15.9 6.2 21.6 10.8s4.1 13.9 4.1 13.9"/><path class="st3" d="M167.7 443.1s16.5 13.4 15.9 28.3c-.5 14.9-12.9 25.2-12.9 25.2M81.8 516.6l24.2-4.1"/><path class="st8" d="M141.5 580.4s-3.1 18.5 3.1 23.7 24.7 2.1 25.2-11.3-13.9-19-13.9-19l-14.4 6.6z"/><path class="st8" d="M169.2 567.5s-3.1 22.1 4.1 28.8 23.1 2.6 22.1-11.8c-.5-11.8-14.4-20.6-14.4-20.6l-11.8 3.6z"/><path class="st8" d="M197.5 555.7s-8.2 22.6 1 30.3c12.3 9.3 29.3 1 27.3-11.3-2.1-12.3-14.4-21.6-14.4-21.6l-13.9 2.6z"/><path class="st3" d="M156.9 606.1s-3.6-12.3-1-13.4c2.6-1 7.2 10.8 7.2 10.8M184.2 598.4s-2.6-12.3-.5-13.4c2.1-1 7.7 10.8 7.7 10.8M210.9 590.1s-2.6-13.4 0-14.4 7.7 11.3 7.7 11.3"/><path class="st1" d="m199.6 501.7-85.9 19.5 4.6 20.1s17 25.7 23.1 39.1c1.5.5 77.6-28.8 77.6-28.8l-10.3-45.2-9.1-4.7z"/><path class="st3" d="m140.5 557.7 8.2 19.1M153.8 553.1l7.7 19.5M165.6 549l7.8 19M175.9 544.9l7.2 18.5M188.8 541.3l7.2 18M200.6 537.7l5.7 15.9M172.8 527.9l36-10.3"/><path class="st5" d="M119.9 517.6c10.3-6.7 19-3.1 19-3.1s8.3-5.9 18.4-4.9c-1.3-6.8-7.5-11.4-18.4-5.4-11.8-4.1-19.5 4.6-19.5 4.6s-9.3-6.7-11.8-3.6c-1 1.2-.6 6.6.8 12.9 2.8-1.8 6.9-3 11.5-.5z"/><path class="st4" d="M157.4 510.4c-.1-.3-.1-.5-.2-.8-10.1-1-18.4 4.9-18.4 4.9s-8.7-3.6-19 3.1c-4.6-2.5-8.6-1.3-11.6.6 2 9.4 6 20.6 10 23.1 6.7 4.1 14.9 2.1 16.5-4.1 7.7 4.1 14.4 1 18.5-3.6 7.2 2.1 16.5-.5 19.5-5.7-4.5-4.1-14.2-10.3-15.3-17.5z"/><path class="st3" d="M107.5 505.3c-2.6 3.1 4.1 31.9 10.8 36 6.7 4.1 14.9 2.1 16.5-4.1 7.7 4.1 14.4 1 18.5-3.6 7.2 2.1 16.5-.5 19.5-5.7-4.6-4.1-14.4-10.3-15.4-17.5s-7.2-12.3-18.5-6.2c-11.8-4.1-19.5 4.6-19.5 4.6s-9.3-6.6-11.9-3.5z"/><path class="st3" d="M134.8 537.2c-16.5-13.4-15.4-28.3-15.4-28.3M151.8 533.1c-18.5-15.4-12.9-28.8-12.9-28.8"/><path class="st6" d="M330.7 517.1c-18 17-104.9 57.6-104.9 57.6l-26.2-73 94.6-53.5s30.9 53 36.5 68.9z"/><path class="st3" d="M218.6 554.1c27.3-8.7 104.4-51.4 104.4-51.4M251 537.7l-24.2-50.9M290.1 517.6l-27.8-51.4"/><circle class="st6" cx="144.6" cy="473.9" r="13.4"/><circle class="st7" cx="144.6" cy="473.9" r="5.9"/><path class="st3" d="m240.3 587-2.1-6.1M250.3 582.3l-2.4-6.1M252.5 592l2.8 5.8M243 597.1l3.1 6.3M399.4 642.1l-6.5-9"/><circle class="st0" cx="464.4" cy="333" r="12.1"/><circle class="st0" cx="492.7" cy="331.5" r="12.1"/><circle class="st0" cx="520.7" cy="322.7" r="12.1"/><circle class="st10" cx="540.5" cy="296.8" r="11.8"/><circle class="st0" cx="563.1" cy="280.6" r="12.1"/><circle class="st0" cx="590.9" cy="279.6" r="12.1"/><circle class="st0" cx="618.7" cy="278" r="12.1"/><circle class="st0" cx="646.4" cy="277.8" r="11.8"/><circle class="st0" cx="674.7" cy="278" r="12.1"/><path class="st6" d="M343.2 695.2c10.6 1.4 23.8.3 25-2.7l3.9-22-23.4-1.4-5.5 26.1z"/><path class="st6" d="m359.8 636.2-20 11.9c-5.8 18.2-10.3 36.6-10.1 40.8.2 3.3 6.3 5.4 13.5 6.3l5.5-26.1 23.4 1.4 3.1-17.7-15.4-16.6z"/><path class="st3" d="M351.8 637.4s-1.3 16.7-.3 18.5 7.5 1.5 8.7-.5c1.3-2.1 3.9-17.2 3.9-17.2l-4.9-6.2-7.4 5.4z"/><path class="st1" d="M356.4 608.6c-4.5 4.8-11.1 22.1-16.7 39.4l20-11.9 15.5 16.7 8.9-49.8c.1 0-18.4-4.1-27.7 5.6z"/><path class="st3" d="m344.6 634.6 22.4-12.1M378 633.6 358.2 613M381.1 616.1l-7.2-8.2M347.7 676.8l21.8 3.3M345.6 684.5l22.6 3.3M359.8 636.2l-5.7-6.5M399.4 642.1l-6.5-9"/><path class="st6" d="M409.7 672.7c.3-5.2.7-11.1 1.1-16.9l-11.5-13.6-24.6 13.6-6.5 36.8c-.8 2.1 5.8 3.9 14 4.8l3.5-24.9 24 .2z"/><path class="st6" d="m409.7 672.7-24-.3-3.5 24.9c11.9 1.3 26.9.6 26.6-4.3-.1-2.4.3-10.4.9-20.3z"/><path class="st3" d="m385 679.6 23.9 1M383.9 688.1l24.5.2M388.6 643.6s-1.5 12.1-.5 14.7c1 2.6 9.3 2.3 10.8-.3 1.5-2.6 2.1-16.2 2.1-16.2l-4.4-3.9-8 5.7z"/><path class="st1" d="m384.2 603-9.4 52.7 24.6-13.6 11.5 13.6c1.4-21 3.2-42.9 3.2-42.9 9.2-9.8-29.9-9.8-29.9-9.8z"/><path class="st3" d="m377.2 642.1 24-14.2M411.4 639.5c-9.5-10.3-16.2-21.3-16.2-21.3M380.6 624.3l14.6-6.1M412.7 622l-9.5-9"/><path class="st6" d="M450.3 657.9 432 641.3l-20.9 16-2.3 35.6c-.8 2 5.4 3.7 13.3 4.5l1.6-24.6h26-26l-1.6 24.6c12.3 1.3 28.7.5 28.4-4.5-.2-3.4-.2-18.6-.2-35z"/><path class="st3" d="M424.8 642.1s-.5 12.6.5 14.4c1 1.8 7.2 1.5 8.2 0 1-1.5 0-17.7 0-17.7l-8.7 3.3zM424.3 681.1l26 .8M423 688.3l28 .3"/><path class="st1" d="M450.3 657.9c.1-22.3.2-46.7.2-46.7-11.8-29.8-36.5 1.5-36.5 1.5l-2.9 44.6 20.9-16 18.3 16.6z"/><path class="st3" d="m432 641.3 7.2-5.7M449.2 642.6l-18.5-16M412.7 640.5l27.5-24.4M449.2 622.8l-19-15.4"/><path class="st6" d="M556.8 695.2c-10.6 1.4-23.8.3-25-2.7l-3.9-22 23.4-1.4 5.5 26.1z"/><path class="st6" d="m540.2 636.2 20 11.9c5.8 18.2 10.3 36.6 10.1 40.8-.2 3.3-6.3 5.4-13.5 6.3l-5.5-26.1-23.4 1.4-3.1-17.7 15.4-16.6z"/><path class="st3" d="M548.2 637.4s1.3 16.7.3 18.5-7.5 1.5-8.7-.5c-1.3-2.1-3.9-17.2-3.9-17.2l4.9-6.2 7.4 5.4z"/><path class="st1" d="M543.6 608.6c4.5 4.8 11.1 22.1 16.7 39.4l-20-11.9-15.5 16.7-8.9-49.8c-.1 0 18.4-4.1 27.7 5.6z"/><path class="st3" d="M555.4 634.6 533 622.5M522 633.6l19.8-20.6M518.9 616.1l7.2-8.2M552.3 676.8l-21.8 3.3M554.4 684.5l-22.6 3.3M540.2 636.2l5.7-6.5M500.6 642.1l6.5-9"/><path class="st6" d="M490.3 672.7c-.3-5.2-.7-11.1-1.1-16.9l11.5-13.6 24.6 13.6 6.5 36.8c.8 2.1-5.8 3.9-14 4.8l-3.5-24.9-24 .2z"/><path class="st6" d="m490.3 672.7 24-.3 3.5 24.9c-11.9 1.3-26.9.6-26.6-4.3.1-2.4-.3-10.4-.9-20.3z"/><path class="st3" d="m515 679.6-23.9 1M516.1 688.1l-24.5.2M511.4 643.6s1.5 12.1.5 14.7c-1 2.6-9.3 2.3-10.8-.3s-2.1-16.2-2.1-16.2l4.4-3.9 8 5.7z"/><path class="st1" d="m515.8 603 9.4 52.7-24.6-13.6-11.5 13.6c-1.4-21-3.2-42.9-3.2-42.9-9.2-9.8 29.9-9.8 29.9-9.8z"/><path class="st3" d="m522.8 642.1-24-14.2M488.6 639.5c9.5-10.3 16.2-21.3 16.2-21.3M519.4 624.3l-14.6-6.1M487.3 622l9.5-9"/><path class="st6" d="m449.7 657.9 18.3-16.6 20.9 16 2.3 35.6c.8 2-5.4 3.7-13.3 4.5l-1.6-24.6h-26 26l1.6 24.6c-12.3 1.3-28.7.5-28.4-4.5.2-3.4.2-18.6.2-35z"/><path class="st3" d="M475.2 642.1s.5 12.6-.5 14.4c-1 1.8-7.2 1.5-8.2 0-1-1.5 0-17.7 0-17.7l8.7 3.3zM475.7 681.1l-26 .8M477 688.3l-28 .3"/><path class="st1" d="M449.7 657.9c-.1-22.3-.2-46.7-.2-46.7 11.3-29.3 36.5 1.5 36.5 1.5l2.9 44.6-20.9-16-18.3 16.6z"/><path class="st3" d="m468 641.3-7.2-5.7M450.8 642.6l18.5-16M487.3 640.5l-27.5-24.4M450.8 622.8l19-15.4"/><path class="st2" d="M530.2 579.3s21.6 10.8 15.4 36.5c-22.1-.5-29.8-12.9-29.8-12.9s-5.1 11.3-12.3 17c-11.3-6.2-11.8-12.9-11.8-12.9s-6.2 10.8-12.3 14.4c-8.7-7.7-7.7-6.2-11.3-13.4-3.6-7.2-6.2-31.9-6.2-31.9l50.4-6.7 17.9 9.9z"/><path class="st3" d="M515.8 603c-2.6-4.1-1.5-24.2-1.5-24.2M491.6 607.1c2.1-12.9-.5-27.8-.5-27.8M525.1 575.2s13.9 18 12.3 32.4c-17.5-12.9-18.5-30.3-18.5-30.3M507.6 579.3s3.6 20.1-4.6 29.8c-5.7-10.8-7.2-29.8-7.2-29.8M482.9 579.8s3.6 25.2-3.6 30.9c-10.3-10.3-7.2-31.4-7.2-31.4"/><path class="st2" d="M369.8 575.7s-21.6 14.4-15.4 40.1c22.1-.5 29.8-12.9 29.8-12.9s5.1 11.3 12.3 17c11.3-6.2 11.8-12.9 11.8-12.9s6.2 10.8 12.3 14.4c8.7-7.7 8.2-7.7 11.3-13.4 3.1-5.7 5.1-31.4 5.1-31.4l-49.4-7.2-17.8 6.3z"/><path class="st3" d="M384.2 603c2.6-4.1 1.5-24.2 1.5-24.2M408.4 607.1c-2.1-12.9.5-27.8.5-27.8M374.9 575.2s-13.9 18-12.3 32.4c17.5-12.9 18.5-30.3 18.5-30.3M392.4 579.3s-3.6 20.1 4.6 29.8c5.7-10.8 7.2-29.8 7.2-29.8M417.1 579.8s-3.6 25.2 3.6 30.9c10.3-10.3 7.2-31.4 7.2-31.4M591.9 482.7l-83.3 3M580.1 517.6l-75.3 6.8M569.3 517.1l-.5-33.4M555.9 518.1l-1-33.4M540.5 519.2l-1-32.9M524 520.4l-1-32.9M585.7 481.6l-.5-9.2M573.9 481.6l-.5-8.2M561.6 482.2v-9.3M549.8 483.2v-9.3M537.4 483.7V475M526.6 485.7v-10.2"/><path class="st6" d="M569.3 517.1c18 17 104.9 57.6 104.9 57.6l26.2-73-94.6-53.5s-30.8 53-36.5 68.9z"/><path class="st3" d="M681.4 554.1c-27.3-8.7-104.4-51.4-104.4-51.4M649 537.7l24.2-50.9M609.9 517.6l27.8-51.4"/><path class="st2" d="m469 580.4 61.2-1s-1.5-13.9-3.6-24.2c-2.1-10.3-11.3-13.4-11.3-13.4l-53.5 8.2 7.2 30.4z"/><path class="st2" d="M505.5 557.2s7.7 14.9 11.8 17.5 9.8-3.6 7.2-10.8c-2.6-7.2-14.9-13.4-14.9-13.4l-4.1 6.7zM500.4 564.9c4.6 3.1 7.2 14.4 7.2 14.4M436.6 582.4s-2.1 27.3 12.9 41.7c15.9-14.9 14.4-42.7 14.4-42.7l-27.3 1z"/><path class="st2" d="M441.8 571.6s2.1 30.3 7.2 37c8.2-8.2 6.7-35 6.7-35"/><path class="st8" d="M372.4 521.7s-6.7-7.2-7.2-11.3c-.5-4.1 1-11.8 1.5-14.9s16.5-19.5 21.6-19.5c4.1-5.1 31.4-40.6 61.2-44.2 29.8-3.6 63.2 0 85.9 53.5-7.7 3.1-27.8 6.7-29.8 25.7-2.1 19 17 23.7 19 27.3-1 6.2-18 20.1-20.1 23.1-.9 1.4-.6 8.2-3.4 9.7-3.4 1.8-10-2-10-2l-25.2 8.2-55.5-14.4-41.6-20.6 3.6-20.6z"/><path class="st9" d="m372.4 521.7-3.6 20.6 41.6 20.6 49.9-5.2-2.1-25.2-12.8-9.2"/><path class="st3" d="M383.7 503.7c.5-3.1 11.8-15.9 4.6-27.8M469.5 502.7c-1.5-7.2 5.7-12.9 8.2-17.5s-2.1-21.6 12.9-27.8"/><circle class="st3" cx="435.1" cy="484.5" r="16.2"/><circle class="st3" cx="435.1" cy="484.7" r="7.2"/><path class="st8" d="M369.3 554.7c-4.6 1-3.6 15.9.5 21.1 4.1 5.1 92.6 7.2 99.2 4.6 6.7-2.6 4.5-16.5 8.7-29.8 3.2-10.2 8.5-19.2 7.2-22.1-3.1-6.7-17.5-.5-17.5-.5s-2.1-10.8-15.4-5.1c-2.1 2.6 2.1 14.9-4.6 20.1s-17 9.3-17 9.3-56.5 1.3-61.1 2.4z"/><path class="st5" d="M367.1 548c-.2 2.1.3 4.4 2.2 6.1 4.6 4.1 14.9 2.6 18-1.5 1.5 5.1 15.9 8.7 22.6.5 2.6 4.1 9.3 8.2 20.6 1 1.5 3.1 6.7 3.6 10.3 2.6 3.6-1.3 5.3-4.2 6.2-7l-79.9-1.7zM445.4 518.1c-8.2-2.1-11.8 5.1-11.8 5.1s-3.1-6.2-9.3-7.2c-6.2-1-10.3 4.6-10.3 4.6s-3.1-5.1-9.3-6.2c-6.2-1-10.3 4.6-10.3 4.6s-3.6-6.7-11.3-6.2c-4.9.3-7.7 3.7-9.3 7l77.6 5.5c-.4-2.9-2-6.1-6-7.2z"/><path class="st4" d="M373.8 520c-1.7 3.7-2 7.4-2 7.4l79.7 4.1s.5-2.9-.1-6.1l-77.6-5.4zM447.4 542.8l-78.7-.5s-1.4 2.7-1.6 5.7l79.8 1.7c1-3.5.5-6.9.5-6.9z"/><path class="st3" d="m393.4 527.4 1.1-8.2M387.8 542.3l-.5 10.3M411.4 542.8l-1.5 10.3M430.5 543.3v10.8M413 529.5l1-8.8M434.1 530.5l-.6-7.2M371.8 527.4l79.7 4.1s2.1-11.3-6.2-13.4c-8.2-2.1-11.8 5.1-11.8 5.1s-3.1-6.2-9.3-7.2c-6.2-1-10.3 4.6-10.3 4.6s-3.1-5.1-9.3-6.2c-6.2-1-10.3 4.6-10.3 4.6s-3.6-6.7-11.3-6.2c-10.1.9-11.2 14.6-11.2 14.6zM368.8 542.3l78.7.5s1.5 10.8-6.7 13.9c-3.6 1-8.7.5-10.3-2.6-11.3 7.2-18 3.1-20.6-1-6.7 8.2-21.1 4.6-22.6-.5-3.1 4.1-13.4 5.7-18 1.5s-.5-11.8-.5-11.8z"/></svg>