<svg version="1.1" id="Calque_1" xmlns="http://www.w3.org/2000/svg" x="0" y="0" viewBox="0 0 900 900" style="enable-background:new 0 0 900 900" xml:space="preserve"><style>.st0,.st1,.st2,.st3,.st5,.st6,.st7{fill:#fff;stroke:#000;stroke-width:3.2956;stroke-linecap:round;stroke-linejoin:round;stroke-miterlimit:10}.st1,.st2,.st3,.st5,.st6,.st7{fill:red}.st2,.st3,.st5,.st6,.st7{fill:#484947}.st3,.st5,.st6,.st7{fill:none}.st5,.st6,.st7{fill:#328700}.st6,.st7{fill:#0062ff}.st7{fill:none;stroke-width:2.1971}</style><path class="st0" d="m492.6 537.4 25.8 63.4s19 3.8 32.5-1.8c-9.3-10.8-31.2-38.1-39.4-66.2l-18.9 4.6z"/><path class="st0" d="M559.6 592.8c-25.4-31.9-33.7-63.6-33.7-63.6l-14.5 3.6c8.2 28.1 30.2 55.6 39.4 66.2 3.6-1.4 6.5-3.4 8.8-6.2z"/><path class="st1" d="M569.7 757.9c17.6 7.7 57.5 15.5 59.3 17.2 1.9 1.8 0 9.7-2.2 9.7s-60.6-7.8-60.6-7.8-14-26.8 3.5-19.1z"/><path class="st1" d="M580.2 766.1c7.1 3.6 37.9 13.7 37.9 15.8s-8 9.4-8 9.4L561.9 778c-.1.1 11.1-15.5 18.3-11.9z"/><path class="st0" d="M625 794.7c3.3 1.1 14.1-1 18.6-2-1.3-1.8-3.2-3.2-4.8-3.3-3.4-.1-9.3 1.3-16.4.4-.3 1.8.1 4 2.6 4.9z"/><path class="st2" d="M625 794.7c-2.4-.8-2.7-3.1-2.6-4.8-.3 0-.7-.1-1-.1-7.1-1.2-49.4-17.2-49.4-17.2h-13l.5 31.5 40.1 4.9s22 0 25.3-6.4c4.9 2.6 18.5-.3 20.1-3.4.9-1.6 0-4.4-1.5-6.5-4.4 1-15.3 3.1-18.5 2z"/><path class="st0" d="M568.6 772.4s-5.5 18.7 3.6 34.1c-13.5 0-50-6-50-6s-3.1-15.4 4.6-28 41.8-.1 41.8-.1z"/><path class="st0" d="M522.3 800.4c-2 1.6-1.4 5.5 3 8.6s73.8 3.8 76 3.1c2.2-.8 1.4-9.4-1.9-9.7-3.3-.2-75.2-3.6-77.1-2zM528.5 765.6c-.9 0-4.4-9.1-4.4-9.1l25.3-12.6 22.8 18.5-4.7 6.9-39-3.7z"/><path class="st1" d="M525.3 762.3c-2.9 3.5-4.7 10 0 12.9 4.7 3 47 1.9 49.8 0 2.7-1.9 1.3-11.8-2.5-11.8s-45-4-47.3-1.1zM459.3 791.6c11.5 7.6 33.4 16.3 42.4 19 1.5 2.7-7 9.7-7 9.7L450.5 804l-1.6-14.1c0 .1-1.1-5.7 10.4 1.7z"/><path class="st1" d="M448.9 790c13.2 14.1 51.1 27.5 52.7 29.4 1.6 2-11.5 11.2-11.5 11.2l-48.7-20.3s-9.3-15.9-9.1-17.2c.3-1.4 6.7-8.6 6.7-8.6s-3.3-8.5 9.9 5.5z"/><path class="st0" d="M394.9 788.1c-9.1 8-9.1 25.3-9.1 25.3l45.6 9.9s10.7-13.3 6.2-26.4c-9-8.6-33.7-16.8-42.7-8.8z"/><path class="st2" d="M442.1 796s49.4 27.9 52.2 33.5c2.7 5.6 7.3 12.9 7.5 15.2 0 7.1-8 6-9.7 2.7-3.1 2.5-6.3 3.1-7.1 0-3.6 2.5-7.1 3.3-8.8 0-3.6 2.5-9.1 1.6-9.1-3.6s-2.5-6.7-2.5-6.7L421 821.7l5.2-23.2 15.9-2.5z"/><path class="st3" d="M476.1 847.4c3.6-2-4.4-14.8-4.4-14.8M484.9 847.4c2.4-2.5-5.3-13.5-5.3-13.5M484.9 832.6s10.8 12.4 7.1 14.8"/><path class="st0" d="m437.4 781.7-23-12.1-19.9 5.5s-.8 1.2-1.6 3c14 4.9 33.8 8.6 45.8 10.4-.6-3.6-1.3-6.8-1.3-6.8z"/><path class="st1" d="M392.9 778.1c-1.5 3.2-3.4 8.3-1.4 11.3 3.1 4.7 42.1 11.5 45.9 9.3 2.1-1.2 1.9-6 1.3-10.2-12-1.8-31.9-5.4-45.8-10.4z"/><path class="st0" d="M385.5 809c-2.7 0-5.3 6.8-2 9.6 3.3 2.7 75.8 21.2 78.5 21.2s4.4-7.7 1.1-10.2c-3.2-2.6-74.8-20.6-77.6-20.6zM380.2 383.1c31.5 49.4 16.4 92.8 24.9 110.4 8.5 17.6 36.4 33.3 59.8 35.5 23.4 2.2 61.3-19.4 58.9-49.4-2.4-30-22.3-39.9-25.3-53.5-3-13.5-23.6-56.4-1.4-53.5 22.3 3 50.1 33.7 50.1 33.7l12.4-26.7s-24.5-44.7-43.2-47.2-31.5 3.6-37.8.8c-6.3-3-5.3-12.1-5.3-12.1l13.1-38.9-3.6-26.7L485 245l1.9-15.6-46.9 6.9-33.8 20.9 3.3 48.7s-1.3 8.8-2.2 11c-.9 2.2-18.5 1.4-34.3 14-15.7 12.4-19.4 27.9-19.4 27.9s-39.9-23.2-52-26.8c-5.8.3-13.2 17.8-13.2 17.8s59.3 44.8 68.4 44.1c9.2-.7 23.4-10.8 23.4-10.8zM428.6 762.3s29.4 15.2 47.6 23.6c-3.6 5.8-34.4-1.6-34.4-1.6l-13.2-12.1v-9.9z"/><path class="st0" d="M392.7 597.5c1.1 22.5 22 63.2 22 70.6s-7.1 17-7.7 33.2c-.5 16.1 2.7 22.8 3.1 35.2.3 12.3-1.9 25.8-2.7 29.1s-13.2 4.4-19.6 3.3c-6.4-1.1-20-14.6-20-14.6s-2.7 20.1 14 24.2c16.8 4.2 26.7-2.5 30.8-4.9 2.2 9.9 17.6 14.3 35.5 33 7.1-8-12.4-20.5-19.8-26.7 4.2 2.4 31.6 25.3 42.1 17-15.2-11.5-35.2-20.9-37.9-26.4s27.5-81.6 26.6-93.2-3.8-100.5-7.7-118.1c10.8 28.3 47.8 78.3 50.9 80.5 3.1 2.2 1.1 17.4 8.2 29.1 7.1 11.8 24.9 74.5 24.9 74.5l-9.9 7.5H510s.8 13.7 11 11.9c10.2-1.9 24.2-11 24.2-11s26.9 20 42.5 16.1c-15.9-11.3-27.5-19-27.5-19s32.7 15.9 44.5 3.6c-18.1-2.7-37.4-9.3-37.4-9.3s24.2 5.3 35.2-8.2c-12.1-2-41.2 2.4-42.6-3.1-8-19.2-18.1-96.7-26.6-111.3-8.5-14.6-29.3-64.2-32.7-81.6-3.4-17.5-98.6 21-98.6 21s-10.4 15.1-9.3 37.6z"/><path class="st0" d="M417.9 569s.2 44.5-31.1 45.9-48.9-25-52.9-58.6c-4.1-33.5-2.5-71.7-4.9-84.4-2.4-12.6-9-17.8-14.5-18.7-5.5-.9-13.2 3.8-13.7 9s3.3 8.8 6.4 8.6c3.1-.2 2.5-6.4 6-8 3.5-1.6 6.8 2.2 7.4 7.1s-1.1 14.3-14.8 15.1c-13.7.8-20.8-16.1-21.2-25.3s7.3-20.9 25.9-24.7c18.7-3.8 34.6 7.5 38.7 33 4.2 25.5 2.4 64.8 4.9 88.4 2.5 23.6 13.1 31.6 23.5 33.8s14-13 14-13l26.3-8.2z"/><circle class="st0" cx="265.2" cy="360.1" r="18.7"/><circle class="st0" cx="265.2" cy="397.5" r="18.7"/><circle class="st0" cx="265.2" cy="436.4" r="20.2"/><circle class="st0" cx="238.5" cy="188.2" r="15.6"/><circle class="st0" cx="299.5" cy="178.1" r="15.6"/><circle class="st0" cx="293" cy="100.8" r="14.1"/><circle class="st0" cx="236.9" cy="149" r="15.6"/><circle class="st0" cx="299.5" cy="135.9" r="15.6"/><circle class="st0" cx="236.9" cy="100.8" r="14.1"/><circle class="st0" cx="294.4" cy="274.8" r="14.1"/><circle class="st0" cx="238.5" cy="272.8" r="14.1"/><circle class="st0" cx="266.9" cy="78.7" r="22.1"/><circle class="st0" cx="269.7" cy="122.8" r="22.1"/><circle class="st0" cx="269.7" cy="167" r="22.1"/><circle class="st0" cx="265.2" cy="285.5" r="18.7"/><path class="st2" d="M296.8 199.1c-7.4-7.4-17.6-12-28.8-12s-21.4 4.5-28.8 12l28.8 28.8 28.8-28.8z"/><path class="st0" d="M239.2 199.1c-7.4 7.4-12 17.6-12 28.8s4.5 21.4 12 28.8l28.8-28.8-28.8-28.8zM296.8 199.1 268 227.9l28.8 28.8c7.4-7.4 12-17.6 12-28.8-.1-11.3-4.7-21.5-12-28.8z"/><path class="st2" d="M239.2 256.6c7.4 7.4 17.6 12 28.8 12s21.4-4.5 28.8-12L268 227.9l-28.8 28.7z"/><path class="st2" d="M240 227.9c0 15.5 12.5 28 28 28v-28h-28z"/><path class="st0" d="M268 199.8c-15.5 0-28 12.5-28 28h28v-28zM268 255.9c15.5 0 28-12.5 28-28h-28v28z"/><path class="st2" d="M268 199.8v28h28c0-15.4-12.5-28-28-28z"/><circle cx="268" cy="227.9" r="12.4" style="fill:#ffce00;stroke:#000;stroke-width:3.2956;stroke-linecap:round;stroke-linejoin:round;stroke-miterlimit:10"/><path class="st5" d="M461.2 162.5s8.5-23.8-6.3-53.5-19.7-59-19.7-59-10.2 27.5.8 65.1c11 37.7 0 31.5 0 31.5l14.4 20.9 10.8-5z"/><path class="st5" d="M403 50.1s15.7 40.6 36.6 67c11.3 14.3 10.8 47.6 10.8 47.6s-16.7 3-17 3c-.3 0-17.2-29.3-15.4-52-20.8-26.8-15-65.6-15-65.6z"/><path class="st5" d="M370.7 63.6s4.4 37 31.4 64.5c5.4 22.3 20.1 45.8 20.1 45.8l19.1-6.3s-1.1-33-24.5-54.2c-23.4-21.2-46.1-49.8-46.1-49.8z"/><path class="st5" d="M351.7 82.3s20.4 27.5 40.6 37.7c22.4 11.3 33.9 47.6 33.9 47.6l-14.5 6.3s-8.8-18.7-34.4-40.3-25.6-51.3-25.6-51.3z"/><path class="st0" d="M413.3 225s-25-28.8-37.1-38.7c-3.3-4.4 9.1-10.2 15.1-8 0-5.2 11.3-11.3 19.4-7.4-2.1-5.2 13.4-11.8 19.4-6.9-.8-4.7 15.7-9.6 20.3-4.7 0-4.7 12.7-9.1 16.3-3.6 1.9-6.3 16.1-4.4 16.1 0s-1.9 49.4-1.9 49.4L413.3 225z"/><path class="st3" d="M466.7 155.6c2.9 4.2 1.2 22.6 1.2 22.6M453.1 180.8s0-20.2-2.6-21.6M430 163.9c5.9 4.1 8.1 22.2 8.1 22.2M422.3 190.5s-6.3-17.9-11.6-19.6M391.2 178.2c8.1 2.1 16.3 19.4 16.3 19.4M406.1 204.3l5.3 6.5M411.4 200.9l5.1 6.9M416.5 198.7l4.8 6.9M422.3 196.7l4 6.7M429.1 194.3l4 6.9M434.6 192.2l3.6 7.2M444.5 190l3.4 6.7M451.1 187.8l3.4 7.9M457.7 186.7l2.6 7.6M464.3 184.5l2.4 7.9M473.3 183.1l1.2 8M386.6 184.5c7.9 4.4 12.9 13.3 12.9 13.3M402.2 176.1c7.7 5.1 11.4 17.2 11.4 17.2M421.3 169.3c5.6 6.9 7.8 17.4 7.8 17.4M440.9 162.5c5.3 6.6 4.9 19.8 4.9 19.8M457.7 158.6c4.9 6.6 2.6 19.3 2.6 19.3M474.5 157.5c1.5 7.1 0 18.6 0 18.6"/><path class="st1" d="M394.5 250s-21.6 42.8-21.6 52 33.9 14.3 39 11c5.1-3.3 4.3-56 4.3-56l-21.7-7z"/><path class="st1" d="M416.2 262.8c27.8-18.6 69.9-30 69.9-30s6.3-22.7-2-31.9c-37.1 1.4-76.6 23.1-76.6 23.1s4.6 41.8 8.7 38.8z"/><ellipse class="st6" cx="497.8" cy="199.4" rx="16.7" ry="15.2"/><path class="st1" d="M428.6 431.3s-1.4 31.5-9.6 64c25 3.6 28.8-20.5 28.8-20.5s1.6 15.1 18.5 21.6c23.1-8.5 17.2-25.6 17.2-25.6s5.6 19.4 26.9 15.1c-12-34.8-17.5-59.7-17.5-59.7l-64.3 5.1z"/><path class="st0" d="M404.7 492.5c-3.1-7.4-2.5-18.9-3-33.2-6.4 9.4-15.3 23.6-18.8 33.2 6.5 1.2 14.2 1.8 21.8 0z"/><path class="st0" d="M504.3 516.2c-12.2 9-27.6 14-39.3 12.9-23.4-2.2-51.3-17.9-59.8-35.5-.1-.3-.3-.7-.4-1-7.7 1.6-15.4 1.2-21.9 0-.2.4-.3.9-.4 1.3-4.9 15.1-3 34.4-8.5 87.6 59.7 0 127.8-40.3 127.8-40.3l4.4-23.5-1.9-1.5z"/><path class="st3" d="M382.9 492.5c-5.2 16.7 6.9 42.6 6.9 42.6"/><circle class="st0" cx="611.7" cy="414.6" r="67"/><circle class="st3" cx="611.7" cy="414.6" r="54.5"/><path class="st0" d="M639.8 413.2S626.6 383 618.4 383s-23.4 10.7-24.2 13.4c-.8 2.7 3.3 6.6 6.6 6.9 3.3.3 5.8-7.1 9.1-7.7 3.3-.5-8.8 16.5-8.8 16.5s7.8 11.4 16.3 13.8c8.5 2.4 19.4.2 19.4.2l3-12.9S626.6 383 618.4 383s-22.5 7.9-23.4 10.7 2.5 8.2 5.8 8.6c3.3.3 5.8-6 9.1-6.6 3.3-.5 7.7 7.1 11.9 6.4M574.2 337.2c1 0 60.9 2.7 65.5 0 4.6-2.7 8.6-91.1 2.7-92.9s-65.7 0-65.7 0l-5.5 6.9 3 86z"/><path class="st1" d="M429.5 274.8c5.8 7 3.2 18.5 3.2 18.5l-5.4 3.2-9.3-8.5-5.8-13.1 5.8-6.3c-.1 0 5.6-.9 11.5 6.2z"/><path class="st7" d="m308.5 340.7 6.9 4.4M303.6 347l8.3 3.9M321.5 346.2l7.1 4.7M317.1 350.9l8 4.1M311.9 356.2l9.1 6.4M299.3 351.9l6.5 4.5M323.2 368.1l7.6 6.1M326.4 363.9l7.7 4.3M329.9 358.8l9.1 4.5M333.6 353.9l9.3 5.1M345.1 363.7l6 2.4M339.4 370.4l11.7 3.8M336.7 378.1l8.4 3.6M348.9 384.9l5.7 1M355.9 389.8l7.9-2.8M367.6 383l6.4-6M378.9 374.5l6.9-6.1M358.1 379.5l7.6-4.7M374 370.4l6.5-4.9M358.1 372.6l6.8-4.4M369.6 364.5l7-4.8M355.9 367.2l6.9-5M367.6 358.8l5.3-5.8M360.9 353.3l6.7-5.5M370.2 341.4l8.7-5.6M376.2 345.1l6.7-4.4M382.7 331.3l10-4.8M388.3 335.7l7.3-4.7M398.4 326.5l8.8-3.2M407.2 331.1l6.4-1.6M392.7 338.6l10.1-5.1M410.3 338.6l7.6-2.8M398.4 341.4l6.3-2.8M380.7 349.5l8.6-5.5M453.3 332.3l-.6 5M460.3 331.1l.1 6.2M466.3 331.1l1.8 6.2M473.3 334.2l3.2 5.8M467.2 324l3 5.5M454.9 319.5v7M460.3 320.6l.1 6.1M453.3 309.1l1.2 4.7M456.4 304.2l1.8 6.2M450 299.5l1.6 5.6M454.9 294.3l3.3 4.2M442.6 291.6l.6 4.8M446.9 287.8l2.7 6.5M438.2 285.6v7.6M441.8 275.9l2.3 8.2M442.1 264.3l.9 5.5M432 258.8l1.9 5.5M438.2 255.9v5.7M444.7 251.5l-.6 7.3M451.6 248.2v3.3M458.2 242l-.9 5.6M464.8 239.7l-.2 4.3M471.8 237.3l-.4 4.6M478.3 235.2v5.5M437.1 268.6l1 4.2M515.6 338.4l7.2 3.4M515.6 346.7l6.1 1.7M530 347.6l6 5.7M526.1 355l6.8 6.1M521.7 362.6l6.3 5.5M515.7 366.1l7.1 5.9M513.2 371.5l7.1 5.6M513.2 351.9l8.5 3.2M509.9 357.5l6.9 2.6M536 357.6l6.6 6.1M532.4 365.9l8 7.5M527.2 372.3l6.8 6.9M524.8 378.1l5.2 4.9M535.1 385.5l8.6 5.9M537.1 377l8.7 6.8M542.6 368.1l7.7 8.9M392.1 391.8l5.5 9.1M404.7 389.2v8.3M399.5 407.8l1.6 9.8M403.6 403.1l.8 9.5M403.6 423.4l2 11.1M409.6 425.9l1.2 11.4M417.9 434.5l-1.6 8.7M421.8 438.8l-2.8 11M408.6 441.5l-2 9.6M413.6 446.4l-1.7 11.3M417 455.3l-.7 6M421.8 455.3l-1.5 10.9M406.5 459.4l1 11.9M413.6 466.2l-1.4 8.3M417 470.3l-.7 9.1M408.6 479.4l-1 7.2M413.6 482.9l-1.4 10.7M416.3 496.4v4.7M424 501.1l-2.2 6.3M431.3 498.8 430 511M438.2 496.2l-.5 6.8M445.4 488.3l-1.1 11.3M442.9 506l-1.7 10.2M436 509.3l-.8 6.9M448.1 509.3l2.2 11M456.6 512.2l.3 8.1M462.7 509.3l.2 12.1M452.5 492.5v11.7M459.3 496.2l-.5 9.8M470.3 512.2v9.2M469 494.7l1.3 12.7M474.5 491.6l1.9 12.6M480 488.8l2.2 14.2M483.8 479.4l2.2 14.5M478.9 511l1.6 10.4M487.4 507.4l1.6 10.1M492.6 503l2.2 12.3M492.6 482.7l2.2 10.9M498.6 494.8l2.3 9.4M503.3 487.1l4.2 14M512.1 490.4l2.7 9.1M513.5 479.4l3.8 11M514.8 467.6l2.5 11.8M507.5 461.3l1.8 7.8M512.3 456.6l2.6 5.8M503.6 446.4l2.6 10M395.4 584.3l-5.5 7.4M402.2 586l-4.4 7.9M410.2 584.3l-4.4 9.6M392.5 595.3l-8.6 4.1M401.1 598l-9.7 5.6M394.2 607.2l-10.3 3.2M367.4 606.5l10.4 3.9M370.4 600.7l8.7 1.8M370.4 593.9l7.4 2.4M357 597.2l5.1 6M361 593.7l6.4 3.5M359.5 585.4l6.5 5.6M347.5 585.4l4.2 8.3M353 584.7l4 7M342.3 572.5l1.7 8.9M348.7 570.8l2.2 9.5M352.8 570.8l2.7 6.2M339.6 556.9l.5 8.4M344.5 561.2l.9 9.6M348.7 553.8l2 10.3M337.4 542.6v8.6M342.9 545.4v11.5M348.7 541.5v7.9M339.6 527.9v12.2M344.2 528.1v13.4M336.8 520.3v8.9M342.7 512.7l-.4 10.3M347.5 517.9l.1 11.3M336.8 501.2v9.8M342.7 496.4l.2 9.6M347.6 500l1.1 9.3M335.8 482.9l1.4 9.6M340.1 479.4l2.6 11M345 478.3l2.6 10M333.6 467.6l2.2 7.3M337.4 462.4l4 12.5M341.4 458.3l4 9.3M333.6 446.4l5.8 6.7M330.3 449.7l5.5 5.6M326.2 455.3l5.7 5.4M330.3 441.5l-11.2-2.7M326.2 445.1l-9.3-.8M324.7 449.8l-8.9-.1M313 439.9l-10.2 2.2M311.6 445.1l-6.3 2.5M297.3 444.7l-6 7.8M300.6 450.9l-3.3 7.1M291.3 458v8.2M296.2 462.4l1.1 6.7M293.2 471.3l5.5 7M302.8 480.5h5.6M302.8 476.6l6.4-.6M314.5 466.9l-1.5 10.3M396.3 474.5l-3.8 8.8M397.8 482.9l-1.5 7.5M448.1 572.5v8.9M442.9 573.9l1.6 12.1M437.9 577l.3 9.5M432.4 577l.4 12.9M425.3 579.9l.3 12.7M420.7 586l.5 8.9M448.1 590.5v14.2M441.8 592.8l1.6 11.9M436.8 594.9l1.1 13.4M431.5 597.5l.9 12.9M425.6 600.3l1.1 12M418.4 602.1l3.4 14.3M414.1 606.9l2.7 13.4M408 610.4l4.4 13.5M403.6 618.3 408 631M410.2 636.2l2.2 8.8M414.1 627.4l1.8 10.8M419 624.6l2.2 9.9M425.3 619.2l1.6 13.6M430.2 614.9l2.2 9.7M436.8 613.4l1.4 11.2M442.9 609.8l1.6 11.6M448.4 609.8l1.8 11.6M450.4 632.9l1 11.9M444 628.5l1.8 13M438.2 631l1.9 14M432.8 634.5l1.3 13.2M426.2 639.3l.7 8.4M420.1 640.6l1.1 10.2M417 653.2l3.1 11.9M428.6 653.2l.9 8.6M436.4 654.1l.6 14.3M446.2 647.2l1.9 12.9M453.1 656.4l1.4 12.2M425.6 664.2l-.3 11M431.3 667.5v7.7M443.7 661.8v13.4M449.8 671.3l-1.4 10.5M452.6 682.9l-3.7 13.7M444.5 685.5l-1.6 9.5M436 675.2l-.8 15M426.9 680.7l-.7 9.5M420.1 673.9l-2.2 12.8M414.1 688.9l-1.7 10.8M420.1 692.1l-1.1 10.3M428.6 695l-1.7 9.6M436.8 697.3l-2.7 9.7M443.7 699.8l-3.6 12.5M441.9 715.6l-1.8 8.2M435.2 714.2l-2.4 9.6M428.6 710.7l-3 13.1M423.1 710.7l-2.2 9M414.1 706.1v11.2M419.4 724.9l-.9 10.7M425.6 727.9l-1.4 8.8M432.8 727.9l-1.5 9.9M439.1 727.9l-2.3 8.8M415.9 740.3l-.9 7.4M423.1 741.4l-1.1 11.8M431.1 743.1l-2.5 10.4M414.3 755.7l-1.1 9.9M420.9 759.6l-.8 13M427.8 758.5l-1.6 12.1M540.1 737.8v7.7M547 740.3l2.4 6.9M551.6 736.7l3 7M555.7 733.4l5.6 9.9M535.4 723.5l3.1 9.4M541.7 724.9l1.7 10.2M547 723.8l1.2 8.5M549.4 717.3l3.1 7.9M531.1 707l1.8 7.2M537.1 710.3l3 9.2M542.3 709.2l1.6 8.6M547.1 704.4l2.3 6.9M527.4 695l1.1 7.4M534.4 695l1.1 7.4M540.1 693.9l1.6 9.6M544.3 692.1l1.8 7.8M541 679.4l1.6 7.3M535.5 680.7l2.2 9.2M528.5 679.4l3.5 9.8M521.7 680.7l3 9.5M515.4 668.5l1.9 6.7M520.3 664.2l2.5 9.7M527.4 667.5l2.9 7.7M533.2 664.2l2.2 9.7M537.7 658l2.4 9.5M511.4 652.1l2.9 7.4M515.4 648.8l3.8 9.1M521.7 648.8l3 10.7M527.4 645l2.9 9.2M532.3 642.6l3.7 9.5M506.2 634.5l5.2 9M515.8 633.3l2.9 7.3M522.5 631.7l2.5 7.8M528.5 627.4l2.6 8.7M520.5 612l2.8 9.4M512.8 614.9l3.6 8.1M506.2 615.6l4.9 9.4M497.2 616.7l5.5 9.4M486 604.7l4.3 7.3M490.6 599.1l4.2 7.8M498.3 597.2l5 9.3M504.7 596.3l2.9 8.4M510.4 593.9l5 10.1M480 585.4l6 10.7M474.4 587.6l6.1 10.7M485.7 582.4l6 10.4M493.7 578.8l4.5 10M501.6 577l4.5 10.2M464.8 569.2l5.5 12.2M471.4 568.5l4.4 9.6M476.9 564.1l5.5 12.9M482.4 562.4l5.5 10.1M488.2 559l6.6 11.8M494.9 555.4l7.3 12"/><path class="st0" d="M666.3 414.6c0-8.7-2.1-16.9-5.7-24.3-18.7 5.8-32.2 22.4-32.2 42.1 0 11.1 4.3 21.2 11.4 29 15.8-9.6 26.5-26.9 26.5-46.8zM487.1 294.1s1.9 9.1 5.3 9.1c3.5 0 2.7-9 2.7-9s2 7.7 5.3 7.7 2-9.3 2-9.3l-15.3 1.5z"/><path class="st1" d="M493.7 264.7c-6.6-5.5-3.3-17.2-8.8-19.6-5.5-2.4-17.4.9-26 6-8.6 5.2-14.1 13.5-11.3 26.4 2.7 12.9 17.9 15.7 17.9 15.7s-6.3 8-4.4 17.9c1.9 9.9 12.4 12.9 24.2 12.9s21.3-12.6 19.4-15.1c-1.9-2.4-10.2-.8-14.3-1.9s-5.5-10.7-4.4-11c1.1-.3 16.5.3 19.8-2.5 3.3-2.9-1.1-9.7-1.1-9.7s7.4-1 4.4-7.3c-2.9-6-8.8-6.4-15.4-11.8z"/><path class="st3" d="M497.8 280.4s.8 4.1 6.9 3.5"/><circle class="st0" cx="473.3" cy="272.8" r="9.3"/><circle class="st0" cx="473.3" cy="272.8" r="3.1"/><path class="st1" d="M430.4 283c3.4 3.5 7.8-3.6 4.4-9.1-3.4-5.5-5.2-11.8-14.6-11.8-9.6 0-14 11-10.2 21.2 3.7 10.2 20.5 18.7 20.5 18.7s4.8-7.3 2.2-8.8c-2.6-1.5-13.2-7.7-14.6-11.8s-.8-7.4 4.4-8c5-.7 4.5 6 7.9 9.6z"/><path class="st3" d="M407.5 252.6c-16.3 18.3-11.5 47.3-16.3 58.9"/><ellipse class="st1" cx="407.5" cy="246.2" rx="16.3" ry="16.7"/><path class="st1" d="M406.4 237.5c1.1 8.6-13 13.2-21.4 5.3s-2.2-27.2-2.2-27.2 15.4-6.3 24.7 0c9.3 6.2 7.1 23.5-1.1 21.9z"/><path class="st3" d="M394.5 226.4s11.9 6.3 11.9 11.1M491.5 190.6l10.7-5.9M497.8 193.4l12.1-4.3M501.3 198.7l12.9-2M499.1 204.3l14.7-.9"/><ellipse class="st6" cx="499.1" cy="223.8" rx="16.7" ry="15.2"/><path class="st3" d="m499.1 212.8 9.7-1.1M500.2 218.2l13.6-1.3M501.3 223.8h14.4M501.3 229.8l12.9-.3M501.3 234.7l10.1-.7"/><circle class="st6" cx="457.8" cy="223.8" r="15.6"/><path class="st3" d="m453.1 213.8 12.5-3.2M457.8 218.2l12.4-2.4M462.4 222.7l10.9-1.8M459 229.5l13-2M459 234.7l10.9-1.6"/><path class="st0" d="M298.2 324s2.9-7.5 9.1-23.4c4.7 16.4-2.5 28.6-2.5 28.6l-6.6-5.2z"/><path class="st0" d="M289.9 323.3s3.5-11 7.1-29c8.1 7.7 2.4 32.2 2.4 32.2l-9.5-3.2z"/><path class="st0" d="M287.7 326.5s-1.2-13.2-1.1-28c9 3 9 30.8 9 30.8l-7.9-2.8z"/><path class="st2" d="M298.2 324s-12.9-10.7-20.5-14c-7.7-3.3-14-6.3-21.2-4.4-7.4 1.9-2.2 9.1-2.2 9.1l5.2 28.6s6.3-1.9 14.6-1.9c3.6 9.4 12.4 5.6 12.4 5.6l11.7-23z"/><path class="st2" d="M248.7 313.8c-2.5 2-3.3 7.9.3 9-2.5 1.8-3.4 7.5 0 9.2-2.5 1.3-2 7.4 1.1 8.5-1.5 3-.9 5.2 4.1 6.3 4.8 1.1 18.7-1.3 21.1-2.7 2.4-1.4 1.1-8.2-1.1-8.2 2.4-1.4 1.9-8.5-1.6-8.5 2.7-2.7 2.2-8.9-2.2-7.8.9-3.7-1.5-6.7-4.7-6.8-3.2-.2-14.3-1.1-17 1z"/><path class="st3" d="M250.3 340.5c3.4 1 22.7-2.4 24.1-4.6M272.6 327.3c-1.6 2.3-20.9 6.5-23.4 4.7M249.2 322.8c3.4 1.8 20.4-1.4 21.2-3.3"/><path class="st0" d="M281.7 348.1c0-3.3 9.6-23.4 14-26.7 4.4-3.3 9.1 4.1 9.1 7.7 0 3.6-13.5 24.2-16.5 24.2s-6.6-1.9-6.6-5.2z"/><path class="st3" d="M250.8 82.3V63.6M256.3 82.3V59.2M261.8 82.3V58.1M267.3 82.3V57M272.8 82.3V58.1M279.4 82.3V61.4M255.2 107.1v17.5M261.8 102.7v21.9M268.4 101.6v23M275 101.6v23M282.7 106v18.6M255.6 169.3v-19.2M261 169.3v-21.4M267.6 169.3v-23.6M275.3 169.3v-23.6M281.9 169.3V149M252.5 280.4v18M258 280.4v22.4M263.5 280.4v23.5M270.1 280.4v22.4M276.6 280.4v19.1M252.5 355v17.6M258 355v22M264.6 355v24.2M271.2 355v23.1M277.7 355v18.7M276.6 389.8v22.3M270.1 389.8v25.6M264.6 389.8v26.7M259.1 389.8v25.6M252.5 389.8V411M250.3 430v19.8M255.8 430v24.2M263.5 430v26.4M270.1 430v25.3M276.6 430v23.1M233.9 266.9l-9.4 5.9M236.3 269.8l-9.5 10.6M240 272.8l-7.4 12.7M244.6 274.8l-2.8 11.6M286.6 279.2l5.2 9.6M291.8 275.9l7.7 11.9M294.4 274.8l12 7.2M298.2 269.8l10.3 3M229.2 199.8l10.8-6M223.9 193.8l13-3.6M223 185.8l13.3 1.3M226.6 178.1l11.9 6M233.9 173.8l9.4 6.3M299.5 162.5l-5.1 7.9M306.4 164.7l-8.2 9.1M313.1 170.4l-10.7 7.7M315.2 181.2l-11.6 1.1M310.5 188.2h-10.1M233.9 133.7l9.4 6.8M227.3 137.1l11.2 5.3M223 143.5l13.3 3.3M222.8 151.5h11.8M225.5 159.7l10.8-4.1M230.4 163.6l10.3-4.8M309.4 124.6h-9.9M314.2 130.5l-10.9-1.3M315 138.7l-12.6-2.8M310.5 146.8l-10-7M299.5 151.5l-3.8-8M291.8 86.8l-3.5 8.1M299.5 88.3l-7.7 9M306.4 96.6l-10.7 2.9M306.4 104.9l-8.8-.6M303.3 110.2l-8.9.3M235.7 87.2l5 7.7M227.7 90.8l8.9 5.8M223.9 98.1l10.6 2.5M224.4 107.1l10.2-1.1M229.7 113.1l8.8-4.2"/><ellipse class="st0" cx="460.3" cy="407.8" rx="51.7" ry="37.4"/><ellipse class="st3" cx="462.9" cy="407.8" rx="35.7" ry="24.7"/><path class="st1" d="M491.5 405.6c0 10.5-13 19.1-28.9 19.1s-28.9-8.6-28.9-19.1v-25.3s22.5-9.1 36.4-5.2c14 4.1 21.4 20 21.4 30.5z"/><path class="st1" d="M376.2 384.4s15.4-14 34.4-17.2c19-3.3 44.3 3 44.3 3s17.1-6.3 35.5-9.6c18.3-3.3 29 6.9 29 6.9s-11.9 19-30 15.7c-18.1-3.3-22.7-8-22.7-8l-34.7 3s-4.5 6.9-21 10.7c-16.5 3.5-34.8-4.5-34.8-4.5z"/><path class="st1" d="M377.7 350.7s7.7 22 34.4 22 38.2-11.8 38.2-11.8 25.5 6.3 38.2 2.7c12.9-3.5 20.5-13.6 21.6-18.5 1.1-4.8-1.9-18.3-9-15.7-7.1 2.5-11.5 12.1-17.2 15.1s-37.1 4.7-37.1 4.7l-16.9 3s-7.4-6.3-21.4-6.9c-14-.8-30.8 5.4-30.8 5.4z"/><path class="st1" d="M427.8 349.2c-2.5 6.9-1 31.5 3.1 35.2 4.1 3.6 11.6.3 12-4.4 4.1 4.7 11.3 3 11.6-1.9 2.6 5.2 12.5 5.2 15.7.3 3.1-4.7 5.1-33 0-35.5s-13.7-2.2-16.8 3c-9.1-6.7-15.7.3-15.7.3s-7.3-3.9-9.9 3z"/><path class="st3" d="M462.9 445.6c1 19.9 1.9 39.4 3.4 50.9M453.4 345.9c2.3 4.9 1.1 32.2 1.1 32.2 3.8 4.1 5.8 23.7 7.1 46.6M442.9 380s-1.2-24.3-5.2-33.7"/><path class="st0" d="M413.6 314.4c0 14.6 22.4 41.7 22.4 41.7s19.4-33.5 13.1-46.5c-9.9-20-35.5-9.8-35.5 4.8z"/><path class="st1" d="M430.2 312.3c9.7-1.9 10.2 14.2 3.6 24.6-7.6-7-13.1-22.8-3.6-24.6z"/><path class="st0" d="M504.7 523.1c.3-1.1 0-6.3 7.4-14s18.7-14.3 28.9-12.9c10.2 1.4 19.8 15.1 10.2 24.5-9.6 9.6-34.8 17.9-34.8 17.9l-11.7-15.5z"/><path class="st3" d="M532.2 512.2c-17.2 6.9-21.8 25.3-21.8 25.3"/><path class="st0" d="M512.1 509.3s-11.8 9.4-13.5 13.2c-1.9 3.7-2.2 16.9 1.1 20.5 3.3 3.6 18.7 5.5 26.4 0-21.7-15.1-14-33.7-14-33.7zM597 383.1c-4.2-.1-8.9 6.3-5.5 11.8-3.6.5-5.5 6-3.1 10.2-2.7 2.9-5.8 7.5-2 11-1.9 2.5-.3 6.6 3.3 9s13.7 2.5 18.1 1.1c4.4-1.4 3.8-5.5 0-7.7 3.8-1.9 5.3-5.7 0-7.1 5.4-.9 5.2-4.4 2.7-6.8 3.7-1.4 4.8-4.7 2.2-7.7s-11.6-13.7-15.7-13.8z"/><path class="st3" d="M591.5 394.8c1.9 4.3 14 11 19.2 9.7M608 411.3c-8.5.9-17.6-3.3-19.6-6.4M586.5 415.9c3.6 2.4 19.1 4.3 21.4 2.4M596.2 389.2l6.5 5.6"/><path class="st0" d="M621.7 402c-4.2.9-8.6-6.9-11.9-6.4-3.3.5-5.8 8-9.1 7.7-3.3-.3-7.5-4.2-6.6-6.9.9-2.7 15.9-13.4 24.2-13.4M576.9 244.2h-8.6l2.6 117.2c2.9-2.2 5.9-4.2 9.1-5.9l-3.1-111.3z"/><path class="st7" d="M413.7 723.8v9.1"/></svg>