<svg version="1.1" id="Calque_1" xmlns="http://www.w3.org/2000/svg" x="0" y="0" viewBox="0 0 900 900" style="enable-background:new 0 0 900 900" xml:space="preserve"><style>.st0,.st1,.st2,.st3,.st4,.st5,.st6,.st8{fill:#fff;stroke:#000;stroke-width:4.1861;stroke-linecap:round;stroke-linejoin:round}.st1,.st2,.st3,.st4,.st5,.st6,.st8{fill:none}.st2,.st3,.st4,.st5,.st6,.st8{fill:#4c4c4c}.st3,.st4,.st5,.st6,.st8{fill:#ffce00}.st4,.st5,.st6,.st8{fill:#00847d}.st5,.st6,.st8{fill:red}.st6,.st8{fill:#007000}.st8{fill:#b2b2b2}</style><path class="st0" d="M811.6 583.4s-14.1-20.1-21.4-23.4c-7.4-3.3-5.4-14.7 1.3-14.1 6.7.7 33.5 24.8 33.5 24.8l-13.4 12.7z"/><path class="st0" d="M770.1 545.2s20.8-2 21.4.7 3.3 12.1 1.3 14.1c-2 2-8.7.7-8.7.7l-10.7 4.7-3.3-20.2zM704.4 620.9l-16.7 48.9 26.1 2 1.4-46.2zM780.1 620.9l16.8 46.2-21.5 4-6-45.5z"/><circle class="st0" cx="709.1" cy="621.6" r="11.4"/><circle class="st0" cx="775.4" cy="621.6" r="11.4"/><path class="st0" d="M693.1 561.3s-1.3 44.2 11.4 50.2c12.7 6 71.7 3.3 76.4-2.7 4.7-6 5.4-42.9 3.3-48.2-8.1-1.3-91.1.7-91.1.7z"/><path class="st1" d="m695.1 577.4 87.7.6M695.7 590.8h88.4"/><path class="st0" d="m752.9 356.2.4-22.6-50.9 1.3 5.3 25.1"/><path class="st2" d="m707.7 360 4.1 19.8-5.4 50.2s4 24.8 4.7 36.8c.5 9-6.4 56.7-8.9 81.2l6.2 10.6 7.7-10.2c3-23.4 7-62.2 8.4-81.6.7 11.4 4 77.7 5.4 83.1 1.3 5.4 12.7 4 13.4 0 .7-4-4-71.7-2-85.1 3.3 22.1 13.4 59.6 19.3 82.6l9.5 9.1 4.8-12.4c-6.2-25.2-18.6-80.9-20.2-101.5-2-23.4-2.7-45.5-2.7-45.5l.9-41"/><path class="st0" d="M702.3 548.1c-.9 8.5-1.2 14.2-.5 14.6 2.7 1.3 7.4 1.3 11.4-.7 1-.5 2-5.7 3-13.5M760.5 547.5c1.8 7 3.1 11.7 3.5 12.5 2 3.3 16.1 2 14.1-3.3-.4-1.1-1.6-5.7-3.2-12.4"/><path class="st1" d="M735.9 334.2s4 122.6 5.4 130.6M724.5 466.8c1.3-21.4-4-131.3-4-131.3"/><path class="st0" d="M727.2 400.5s-23.4-41.5-42.9-42.9c-10.7-1.3-25.5 14.1-14.7 30.8 4.7 7.4 20.8 8.7 28.8 16.1s23.4 1.3 23.4 1.3l5.4-5.3z"/><path class="st1" d="M705.1 390.5c4 3.3 10.7 13.4 10.7 13.4"/><path class="st0" d="M705.1 390.5c-11.4-6-20.8-3.3-24.1-8s1.3-10.7 8-9.4c6.7 1.3 13.4 11.4 16.1 17.4z"/><path class="st3" d="M522.3 438.7h100.5l26.1-10.7-9.4-20.8s-17.4 2-23.4 0-73.7-4-73.7-4l-20.1 35.5zM683 404.6s33.5-2 42.2-4c8.7-2 35.5-6.7 40.2-4.7 4.7 2 4 10.7 4 10.7s1.3 4.7-3.3 11.4c4 6-.7 12.7-6 9.4 0 0 2 10-2.8 13.3-4 .7-3.3-6-7.3-8s-35.5-2.7-38.2-1.3-.7 32.1-.7 35.5c0 3.3-8 4-9.4 2-1.3-2-3.3-31.5-8-33.5s-10-2.7-10-2.7l-.7-28.1z"/><path class="st1" d="M739.4 422.3c13.6.3 19.8 2.5 23.9 9"/><path class="st0" d="M760.7 395.4c2.2 0 3.8.1 4.7.5 4.7 2 4 10.7 4 10.7s5.4 4.7.7 11.4c4 6-3.2 14.5-8.5 11.2 0 0 4.8 11.3-4.3 11.6-2.8.5-3.6-1.6-4.8-4.8 1.5-.8 8.9-6.5 9.6-22.6 1.3-9.5-.1-12.9-1.4-18z"/><path class="st1" d="M769.4 406.6c-1.8-1.3-23.4-1.1-30.2-.1M770.1 417.9c-4.8-3.4-24.4-2.7-31.6-1.9"/><path class="st0" d="M704.4 452.1s.7 12.1.7 14.7-3.3 2.7-5.4 2c-2-.7-2-12.1-1.3-16.1.7-3.9 6-.6 6-.6z"/><path class="st4" d="M659.6 425.3c1.7 1.7 15.4 1 25.3.2.5-9.6.2-23 .2-23l-26.1.3c-.6 8.2-1.2 20.7.6 22.5z"/><path class="st0" d="m634.8 438-.7-34.8s-13.4-4.7-16.1-2.7c-2.7 2-5.4 12.1-3.3 14.7 2 2.7 24.1 0 24.1 0V426s-16.7-2.7-21.4.7c-4.7 3.3-4.7 11.4 0 14.1 4.7 2.6 17.4-2.8 17.4-2.8z"/><path class="st5" d="M659.6 425.3c-1.8-1.8-1.2-14.3-.6-22.4l-11.4.2.4 35c14-.1 34.4-.8 35.7-3.4.6-1.3 1-4.8 1.2-9.2-9.9.8-23.6 1.5-25.3-.2z"/><path class="st0" d="m634.1 403.2.7 34.8s5.7.1 13.2 0l-.4-35-13.5.2z"/><path class="st1" d="M634.1 411.9h13.4M635.5 422.6l12.7-.1M635.5 430.7h11.3"/><path class="st4" d="m596.6 588.7-18.1-4.7s-14.7 4-5.4 16.7c3.5 4.8 14 22.1 25.7 41.8l23.2-16.8c-15.1-20.9-25.4-37-25.4-37z"/><path class="st2" d="m622.1 625.8-23.2 16.8c3 5 6 10.1 9 15.3l25.4-17c-3.9-5.2-7.7-10.2-11.2-15.1z"/><path class="st4" d="m633.3 640.9-25.4 17c3.4 5.7 6.8 11.5 10 17l26.6-19.7c-3.8-4.8-7.6-9.6-11.2-14.3z"/><path class="st2" d="m644.5 655.2-26.6 19.7c12.9 22.1 23.5 40.4 23.5 40.4s28.1-14.7 34.8-24.1c-10.7-10.8-21.6-23.4-31.7-36z"/><path class="st0" d="m533.6 535.8 33.5 72.4 38.9-23.5-41.5-47.5-22.1-19.5z"/><path class="st1" d="m556.4 558.6 21.4 40.2M563.8 553.9l27.4 37.5"/><path class="st4" d="M572.5 470.2S541 478.9 533 491s0 34.8 7.4 44.9c7.4 10 48.2 7.4 48.2 7.4l-16.1-73.1z"/><path class="st0" d="M279.1 715.3c-2.7 6.7 2 14.1 9.4 14.7 2.4.2 7.9-.8 14.1-2.3L295 709c-8.4 2.9-14.7 5.2-15.9 6.3z"/><path class="st1" d="M287.8 720.7c2 4 14.1-1.3 13.4-5.4-.6-4-15.4 1.4-13.4 5.4z"/><path class="st4" d="m361.5 703.9-4.7-17.4s5.4-3.3-11.4 4.7c-10.9 5.2-34.4 12.5-50.3 17.8-.1 0-.1 0-.1.1l7.6 18.7c12.5-3 28.1-7.8 28.1-7.8l30.8-16.1z"/><path class="st0" d="M461.3 710c-2.7 6.7 2 14.1 9.4 14.7 2.4.2 7.9-.8 14.1-2.3l-7.6-18.7c-8.4 2.8-14.7 5.1-15.9 6.3z"/><path class="st1" d="M470 716.2c2 4 14.1-1.3 13.4-5.4-.7-4-15.4 1.4-13.4 5.4z"/><path class="st4" d="m543.7 698.6-4.7-17.4s5.4-3.3-11.4 4.7c-10.9 5.2-34.4 12.5-50.3 17.8-.1 0-.1 0-.1.1l7.6 18.7c12.5-3 28.1-7.8 28.1-7.8l30.8-16.1z"/><path class="st0" d="M508.9 456.8c-4-21.4-78.4 4.7-78.4 4.7L368.9 499l-1.2 11.3 159.9-5.1c-5.9-12-13.7-26.7-18.7-48.4z"/><path class="st4" d="M535 525.1c-1-6.3-3.8-12.6-7.4-19.9l-159.9 5.1-2.3 22.2 170.1-3.9c-.2-1.2-.3-2.4-.5-3.5z"/><path class="st0" d="M348.8 690.5s181.5 2 223.7-6.7c0 0-1.6-3.7-4-9.7l-218.5 5-1.2 11.4zM536.1 545.4l-172.7 5.7-1.3 12 174.1-4.4c-.1-4.7 0-9.1-.1-13.3z"/><path class="st3" d="M538.8 588.1c-1.9-11.1-2.4-20.7-2.6-29.4l-174.1 4.4-6.1 58.3 190.5-5.2c-3.5-10.9-6.4-20.9-7.7-28.1z"/><path class="st2" d="m553 634.5-198.6 2.4-2.4 22.4 209.3-3c-2.6-6.7-5.5-14.2-8.3-21.8z"/><path class="st0" d="M546.6 616.2 356 621.4l-1.6 15.5 198.6-2.4c-2.2-6.2-4.4-12.4-6.4-18.3z"/><path class="st4" d="m470 560.4-24.1.6 20.8 26.4zM512.2 617.1l34.4-.9c-3.6-10.9-6.5-20.9-7.7-28.1-1-6-1.7-11.5-2-16.7-7.2-6.7-14.6-12.3-14.6-12.3l-32.8.8s-13.4 10.1-13.4 22.8 13.4 21.4 21.4 21.4 14.1-9.4 14.7-12.1c.7-2.7-2.7-10-6.7-8.7-4 1.3-4 8-8 8-8 1.3-9.2-13.6.2-19.6 9.4-6 26 4.9 27.3 11.6 1.3 6.7.7 12.1-.7 18.1-1.4 6.1-12.1 15.7-12.1 15.7zM480.7 618l-38.8 1.1s-13.4-13.5-18.8-26.9c-2-.7-5.4 0-5.4 0v27.6l-25.5.7s12.7-8.9 14.1-12.9c1.3-4 2-12.1 1.3-17.4-.7-5.4-9.4-16.1-17.4-16.1s-16.7 8-18.1 12.1c-1.3 4 2.7 10 6.7 10.7s5.4-9.4 8.7-9.4c3.3 0 9.4 4 8.7 9.4-.7 5.4-6.7 10.7-13.4 12.1-16.1.7-24.5-10.1-24.5-10.1l2.2-20.8c1.8-8.1 14.3-15.1 14.3-15.1l25.5-.6s14.7 9.2 18.1 13.2h14.4c2 0 1 14.1 1 14.1s14.7-.7 16.7 0 0 15.4 0 15.4l18.1-.7c1.4 6.4 12.1 13.6 12.1 13.6z"/><path class="st1" d="m360.8 689.2.7-14.1M372.2 689.9l1.4-14.1M385.6 690.5l.7-14M400.4 689.2v-14.1M411.1 689.2l.6-14.7M425.8 689.2v-13.4M439.2 689.9l-.7-15.4M451.9 689.2l.7-14.7M465.3 689.2v-14.1M478.7 689.9l-.6-16.8M492.8 689.2l-.7-14.1M504.8 687.2v-14.1M518.2 687.9l-.6-13.4M531.6 687.9v-13.4M543.7 685.2l-1.3-12.1M557.8 685.2l-2.1-13.4M374.9 560.6v-13.4M383.6 559.9v-14M397.3 559.8l-.3-13.3M408.4 559.9l-1-14M420.5 560.6l-.7-13.4M457.3 557.3l-1.4-12.1M466.7 557.3l-.7-12.1M479.4 557.9v-13.4M493.5 557.3l-1.4-14.1M503.5 557.9l-.7-12.7M515.6 557.9l-.7-13.4M525.6 556.6l-1-13.4"/><path class="st5" d="m535.5 528.5-170.1 3.9-2 18.7 172.7-5.7c0-6-.1-11.6-.6-16.9zM352.1 659.3 350 679l218.5-4.9c-1.9-4.7-4.4-10.9-7.1-17.8l-209.3 3z"/><path class="st6" d="M503.2 223.2s31.1-20.1 46.7-24.6c15.6-4.5 29.6-4 33.2-13.1s-1-14.6-7-18.1c-6-3.5-16.6.5-16.1 5 1.5 10 11.1 3.5 13.1 6.5s.5 8.5-4 9.5c-8 2.5-17.1-6-18.1-16.1-1-10 14.6-22.1 25.1-17.1 26.1 12.1 19.1 33.7 16.1 39.7s-13.1 9.5-13.1 9.5l-22.6 21.1-43.2 22.6-11.1-10 1-14.9z"/><path class="st5" d="m385.1 168.5 18.6 34.1 14.1-6-9.1-39.2z"/><path class="st0" d="M408.2 237.8c-11.1-9.5-13.6-25.6-7.5-36.2 4-7.5 15.6-8.5 20.6-8 16.1 2.5 15.1 28.6 26.1 52.2 11.1 23.6-13.1 18.1-13.1 18.1s-15-16.6-26.1-26.1z"/><path class="st0" d="M423.8 271.9s-11.4-24.1-15.6-34.2c2-3.5 14.7-2.2 18.3-1.2 3.5 1 11.9 10.7 13.4 14.7s0 25.6 0 25.6l-16.1-4.9z"/><path class="st1" d="M404.7 198.1c4.5 29.1 29.6 9 35.1 26.1 2 6.9 4.2 14.4 7.6 21.6"/><path class="st3" d="M353.5 451.3s-104.5 1.5-109.8-.5c-5.4-2-21.4-.7-21.4-.7l-2-25.5 21.4-5.4 82.4-5.4s18.1 18.1 20.1 19.4c1.9 1.5 9.3 18.1 9.3 18.1z"/><path class="st0" d="M223.7 453.4c3.3-1.3 2.5-36.8-.8-38.2 0 0 16.1-2.7 20.1-.7s3.3 13.4.7 14.7-22.8 0-22.8 0l-.7 13.4s20.1-3.3 23.4-1.3c3.3 2 2 10 .7 12.1s-20.6 0-20.6 0z"/><path class="st5" d="M129.1 387.1c-1.3-32.8 9.4-104.5 14.1-104.5s12.1 81 10.7 101.8c-1.3 20.8-4.7 33.5-2.7 54.3 2 20.8-8 97.1-12.1 97.1s-10.7-69.7-11.4-99.8c-.6-30.1 2.7-16 1.4-48.9z"/><path class="st5" d="M145.8 385.8s29-74.8 31.6-75.5 26.1 9.5 28.1 12.2c2 2.7-4.2 8.4-8.2 17.1-4 8.7-4 20.1-7.4 20.8-3.3.7-1.3-17.4-4.7-15.4-6 4 1.3 38.8-3.3 40.9-4.7 2-7.4-14.7-10-13.4s4 26.8.7 28.1-11.4-5.4-11.4-5.4l-15.4-9.4z"/><path class="st4" d="m155.9 391.9-10-6.1s29-74.8 31.6-75.5c1.3-.3 7.3 1.9 13.5 4.5l-35.1 77.1z"/><path class="st0" d="M171.4 322.4c3.1-7.1 5.4-11.9 6.1-12.1 2.7-.7 26.1 9.5 28.1 12.2 1.6 2.2-2.1 6.3-5.7 12.3-.8 1.5-28.5-12.4-28.5-12.4zM133.1 371.1C119 345 111.3 307.3 110 305.3c-1.3-2-7.7-2.5-8.4 2.8s1.3 16.1 1.3 16.1S97.4 314 91.4 312s-12.6.8-15.2 6.9c-2.7 6-.7 16.7 4.7 19.4s10.7-.7 13.4-4.7c6 8.7 24.1 50.9 24.1 50.9l13.4 6s15.4 6.7 1.3-19.4z"/><path class="st5" d="M120.2 339.9c-5.9-17.8-9.3-33.4-10.2-34.6-1.3-2-7.7-2.5-8.4 2.8s1.3 16.1 1.3 16.1S97.4 314 91.4 312s-12.6.8-15.2 6.9c-2.7 6-.7 16.7 4.7 19.4s10.7-.7 13.4-4.7c1.8 2.6 4.6 8.1 7.7 14.5l18.2-8.2z"/><path class="st4" d="M120.4 432c-5.4 8-34.2 77-30.1 79 4 2 36.2-53.6 40.9-65.6 4.7-12.1 3.3-14.7 3.3-14.7s-8.8-6.7-14.1 1.3z"/><path class="st5" d="M105 465.9c-8.6 21-17 44-14.8 45.1 2.5 1.3 15.9-19.8 26.8-38.8l-12-6.3z"/><path class="st0" d="M146.5 444.7c4 12.7 35.5 64.3 38.8 62.3 3.3-2-20.4-56.3-23.8-65.6-3.3-9.4-4.4-14.7-4.4-14.7l-14.7 6c.1 0 .1-4.7 4.1 12z"/><path class="st5" d="M160.3 471.7c10.4 17.7 23 36.6 25 35.3 2-1.2-6.1-22.1-13.4-40.2l-11.6 4.9z"/><path class="st1" d="M270.4 446.7s-61 172.1-87.1 221.7c14.7 6 40.2 10.7 40.2 10.7s65-221 69.7-229.7c0 10.7-40.9 188.2-55.6 231.7 13.4 4 44.9 4 44.9 4s22.1-198.3 34.2-235.1c-20.2-20-46.3-3.3-46.3-3.3z"/><path class="st1" d="m283.8 485.6 2 2.1c2.8-12.8 4.9-23.2 6.2-30l-.1-.2.1.2c.8-4.3 1.2-7.1 1.2-8.2-1 1.8-4.5 12.6-9.5 28.6l2.1 2.8-2.1-2.8c-2.8 9-6.1 19.7-9.6 31.3l3 4.4 2.4 2.3c2.3-10.2 4.5-19.8 6.3-28.3l-2-2.2z"/><path class="st3" d="M183.3 668.4c14.7 6 40.2 10.7 40.2 10.7s11.1-37.8 24.5-82.8l-30.3-7.8c-13 33-25.6 63.4-34.4 79.9zM266.9 570l26.1 27.2c1.3-9.9 2.6-20 3.9-30.3l-23.6-24.1c-2.1 8.9-4.2 18-6.4 27.2zM237.6 681.2c13.4 4 44.9 4 44.9 4s4.2-37.4 9.9-82.8l-31.8-6.2c-9 36.3-17.7 69.3-23 85z"/><path class="st2" d="M209.5 609.2c-9.9 24.6-19.2 46.2-26.1 59.2 14.7 6 40.2 10.7 40.2 10.7s7.6-25.9 17.8-60.4l-31.9-9.5zM254.5 620.3c-6.7 26.4-12.8 48.8-16.9 60.9 13.4 4 44.9 4 44.9 4s2.8-25.1 6.9-59.1l-34.9-5.8z"/><path class="st3" d="m279.5 516 21.6 21c1.4-10 2.8-19.7 4.3-28.8l-19.5-20.6c-2 8.6-4.1 18.2-6.4 28.4zM293.2 449.4c0 1.1-.4 3.9-1.2 8.2l17.7 23.7c2.5-13.9 4.8-24.9 6.9-31.2-20.1-20.1-46.2-3.3-46.2-3.3s-1.2 3.3-3.2 9.1l16.5 22.2c5-16.1 8.5-26.9 9.5-28.7z"/><path class="st4" d="m273.3 542.8 23.6 24.1c1.3-10 2.7-20.1 4.1-29.9l-21.6-21c-1.9 8.6-3.9 17.6-6.1 26.8zM217.7 588.5l30.3 7.8c.6-2.1 1.2-4.1 1.8-6.2l-22-28c-3.3 8.9-6.7 17.8-10.1 26.4zM260.5 596.2l31.8 6.2c.2-1.7.4-3.5.7-5.2L266.9 570c-2.1 8.8-4.3 17.6-6.4 26.2zM267.2 455.8c-2.4 6.6-5.9 16.6-10.3 28.6l17.3 24.9c3.5-11.6 6.8-22.3 9.6-31.3l-16.6-22.2zM292 457.6c-1.3 6.8-3.4 17.3-6.2 30l19.5 20.6c1.5-9.7 3-18.9 4.5-27L292 457.6zM237.1 537.8l20.5 26.4c3-10 6-20 8.9-29.7l-19-24.7c-3.2 8.9-6.7 18.3-10.4 28z"/><path class="st3" d="m227.9 562.2 22 28c2.5-8.5 5.1-17.2 7.7-25.9l-20.5-26.4c-3 7.9-6.1 16.1-9.2 24.3zM247.5 509.8l19 24.7c2.6-8.7 5.2-17.1 7.6-25.1l-17.3-24.9c-2.8 7.6-5.9 16.2-9.3 25.3zM348.1 448.8C314 469.5 320.7 503 322 506.4s-4.7 8-2.7 10.7c2 2.7 6.7-2.7 10.7-1.3 4 1.3 38.3-2 50.9-21.4s-12.7-33.5-12.7-33.5 14.1-32.9-20.1-12.1z"/><path d="M322 506.4c1.3 3.3-4.7 8-2.7 10.7 2 2.7 6.7-2.7 10.7-1.3l-8-9.4z"/><path class="st3" d="M533 696.6s-64.3 27.1-65.6 32c-1.3 4.9.7 12.9 12.1 10.2 6 6 14.7.7 14.7.7s8.7 4.7 14.1-1.3c6 7.4 12.7 1.3 12.7 1.3s9.4 4 15.4-3.3c10.7-5.4 17.4-5.4 17.4-5.4l12.7-15.4-8.7-20.8-24.8 2z"/><path class="st0" d="M467.3 728.6c-1.3 4.9.7 12.9 12.1 10.2 6 6 14.7.7 14.7.7s8.7 4.7 14.1-1.3c6 7.4 12.7 1.3 12.7 1.3s9.4 4 15.4-3.3c-10-2.8-57.6-3.5-69-7.6z"/><path class="st1" d="M479.4 738.8c-2-4.7 12.7-14.1 12.7-14.1M494.1 739.4c-2-4.7 11.4-14.1 11.4-14.1M508.2 738.1c-2-4.7 11.4-13.4 11.4-13.4M520.9 739.4c-2-4.7 10.7-15.4 10.7-15.4"/><path class="st3" d="M350.8 700.6s-64.3 27.1-65.6 32c-1.3 4.9.7 12.9 12.1 10.2 6 6 14.7.7 14.7.7s8.7 4.7 14.1-1.3c6 7.4 12.7 1.3 12.7 1.3s9.4 4 15.4-3.3c10.7-5.4 17.4-5.4 17.4-5.4l12.7-15.4-8.7-20.8-24.8 2z"/><path class="st0" d="M285.2 732.6c-1.3 4.9.7 12.9 12.1 10.2 6 6 14.7.7 14.7.7s8.7 4.7 14.1-1.3c6 7.4 12.7 1.3 12.7 1.3s9.4 4 15.4-3.3c-10.1-2.8-57.7-3.4-69-7.6z"/><path class="st1" d="M297.2 742.8c-2-4.7 12.7-14.1 12.7-14.1M311.9 743.5c-2-4.7 11.4-14.1 11.4-14.1M326 742.1c-2-4.7 11.4-13.4 11.4-13.4M338.7 743.5c-2-4.7 10.7-15.4 10.7-15.4"/><path class="st0" d="M322.5 413.6c1.5-1 28.3-5 28.3-5l67-23.4 44.2 8.7s77.7 4 83.1 6.7c5.4 2.7-97.8 161.4-107.2 162.8-9.4 1.2-116.2-145.5-115.4-149.8z"/><path class="st1" d="m329 424.3 17.6-6.6M336 433.3l16.1-9M341 441.9l14.6-9.1M347.6 449.9l14-9M354.6 459.4l13.6-10M361.1 468l14.6-11.6M367.2 477l12-9M374.2 486.1l14.1-12.1M381.2 496.1l12.3-12M387.3 505.2l13-13.6M394.8 514.2l12.6-11M401.3 522.3l12.6-12.1M408.4 529.3l10.5-11.1M415.4 539.8l10.5-12.5M422.9 547.9l9.6-10.6M430.5 556.4l7.4-10.5M445 555.4l-7.1-9.5M451.6 546.4l-7.6-8.1M458.6 536.8l-9-7.5M465.1 526.8l-9.5-6.6M471.7 516.7l-9.6-6M479.2 507.7l-10.6-6M485.7 497.1l-10-4M492.6 488.1l-10.9-6M499.3 476.5l-11.1-5M505.8 468l-13.2-6M511.9 457.4l-13.6-5.5M517.9 446.9l-12.1-4.5M523.4 437.8l-11.5-4M528.9 429.8l-11.5-3.5M534.5 421.3l-13.1-4.1M540.5 412.2l-14.1-3"/><path class="st5" d="M335.2 411c7.5-1.3 15.6-2.5 15.6-2.5l67-23.4 44.2 8.7s47.9 2.5 71 4.8c-2.6 9.5-91.8 147.9-95.2 147.2-3.3-.6-97.1-127.9-102.6-134.8z"/><path class="st6" d="m354 407.4 63.8-22.3 44.2 8.7s28.1 1.5 51.6 3.2c7.2.5-73.7 119.4-77.1 118.7-3.3-.6-82.5-108.3-82.5-108.3z"/><path class="st4" d="m372.8 400.9 45-15.7 44.2 8.7s15.3.8 32.8 1.9c-2.2 6.1-54.3 93-57.6 92.4-3.4-.8-64.4-87.3-64.4-87.3z"/><path class="st5" d="M332.5 383.6c-6.5.5-19.6 4-20.1-7 1.5-2 17.6-1 20.1-2 8-1.5 22.1-1.5 22.1-1.5l17.1 5.5-11.1 11.6-22.6-2c0-.1 1-5.1-5.5-4.6z"/><path class="st3" d="M318.9 330.8s22.1-12.6 31.6-20.1c2.5-5.5 9.5-20.6 17.1-26.6s68.8 25.6 68.8 25.6l13.1 42.2s-17.6 27.1-22.1 33.7c-4.5 6.5-37.8 17.9-49.1 18.3-4.7-7.2-10.7-31.3-10.7-31.3L348 354.5l-27.1-14.6-2-9.1z"/><circle class="st2" cx="398.7" cy="354" r="9.3"/><path class="st0" d="M362.1 317.8s-5.4 2.5-4.4 10 12.9 10.5 20.4 9c4.5-1.5 5.5-5 8-4.5s8.5 4.5 15.1 2.5c-2.5-4.5-9.5-9.5-13.6-10-18.9-2-25.5-7-25.5-7z"/><path d="M368.2 321.8s-2 5 2.5 6.5 6-4 6-4" style="stroke:#000;stroke-width:.8372"/><path class="st0" d="M323.4 365s-2 6.5-1 9c1 .5 35.2 5 40.7 4.5s1-10 1-10l-16.6-7.5-24.1 4z"/><path class="st1" d="m329 374 1.5-8.5M337 376.1l2-8.6M344.6 376.6l1.5-9.6M352.6 377.1l1-11.1"/><path class="st8" d="M348.1 368.5s7.5.5 12.6 2.5c5 2 1 11.1-4.5 12.1s-23.6.5-23.6.5-1 6 .5 8 8.2-1.5 9.2 1.5-2.2 16.1.3 17.6c7.5 3.5 31.1-1.5 38.2-8 7-6.5 9-16 6-30.6-3.8-19.1-55.3-36.2-67.8-41.2-7.5-2-6 3-6 3l-6 16.1 25.6 14.1 15.5 4.4z"/><path class="st0" d="M296.8 326.3c.5-7.5 7.5-8 13.1-7s11.1 6.5 9 11.6c-2 5-4 8.5-3.5 14.1.5 8 22.6 11.1 26.6 8.5s4.5-10 10-12.6 20.6 2.2 19.1 14.2c-3.5-3-7.5-6.2-11.6-5.2s-3 15.1-11.6 18.6c-8.5 3.5-43.2-3.5-46.2-15.1s5-20.6 4.5-24.6c-.3-4-6.4-2-9.4-2.5z"/><path class="st6" d="M567.5 207.1c3.5-3.5 71.8-11.1 111-21.1 4-1.5 4.5 11.1-.5 13.6-9.5 4.5-92.4 17.1-112 18.1-19.6 1-2-7.1 1.5-10.6z"/><path class="st6" d="M587.6 232.3c14.6-4 94-.3 96-4.4s3-10.2-2.5-13.2-115.1 3-115.1 3l-51.7 23.6 7 18.6s51.7-23.6 66.3-27.6z"/><path class="st6" d="M520.8 253.4s42.7-25.1 74.8-23.6c32.1 1.5 87.9 12.1 89.4 13.6s0 11.9-4 12.4-77.4-11.9-84.4-12.4-9.5 3-9.5 3L524.3 267l-3.5-13.6z"/><path class="st5" d="M491.1 210.1s32.7-39.2 36.7-40.2 8.5 7.5 5.5 10.5-32.1 37.7-32.1 37.7l-10.1-8zM513.8 232.3s46.7-28.1 51.7-27.1 5 9 2.5 12.1c-2.5 3-44.7 25.1-44.7 25.1l-9.5-10.1zM529.3 257.4s56.8-15.6 59.3-14.1 6.5 7 4 10-56.8 14.1-56.8 14.1l-6.5-10z"/><path class="st8" d="M458 241.8s21.6-31.6 28.6-35.2c7-3.5 19.6 2 19.1 21.6 17.1-3.5 19.9 11.9 19.8 22.8 9.4.8 15.9 17.9 12.4 22.4S515.8 285 515.8 285l-30.6 6-21.2-28.6-6-20.6z"/><path class="st1" d="m505.7 228.2-29.6 29.7M525.5 251l-36.4 21"/><path d="M433.2 257.2c2.7-8 18.3-18.9 22.3-18.4s31.1 28.6 33.7 33.2c2.5 4.5-1 13.6-1 13.6l-10 27.1-19.6 1-27.3-22.9c-.1-.1-.8-25.6 1.9-33.6z" style="fill:#6b6b6b;stroke:#000;stroke-width:4.1861;stroke-linecap:round;stroke-linejoin:round"/><path class="st1" d="M436.4 260.9s11.6-13.1 17.1-13.6 25.6 22.1 27.6 26.1.5 13.1.5 13.1"/><path class="st0" d="M531 328.2c34.8 1.3 140.7 26.1 144 24.1 3.3-2 4.7-9.5 1.3-11.6-3.3-2-119.9-23.9-144-23.9-5.4 1.4-6 6.7-1.3 11.4z"/><path class="st0" d="M541 305.4s136.6 1.7 139.3 3 2 9.7-1.3 12.4c-3.3 2.7-148.7-3.3-148.7-3.3v-16.7l10.7 4.6z"/><path class="st8" d="m475.2 286.1-.5 21.6-11.6 13.1s3 22.1-5 32.7c-6-3.5-28.8-11.6-28.8-11.6s3.2-16.6 1.2-23.6-67.3-36.7-70.3-38.2c.5-6.5 15.1-25.1 15.1-25.1l-.5-21.1"/><path class="st1" d="m462 302.1 3-20.1M454.5 298.6l4-22.1M447.4 295.6l5.1-24.2M440.9 292l5-24.1M435.4 289.5l2.8-23.1M428.3 285l3.4-23.1M421.8 282l3.4-23.6M414.3 278l3.5-25.1M407.7 273.5l2.6-23.7M400.7 269.9l3-23.1M394.3 265.2l1.9-20.9M387.1 261.4l3.4-19.1M380.6 257.4l2.2-18.1M367.2 282.6l2-9.5M374.7 286.6l1-9.5M381.7 288.6v-9.5M388.3 292.1l-.5-9.5M394.3 294.7l.7-7.4M401.7 298.7l.7-8.7M408.4 303.2l2-8M414.4 306.2l2.5-9.5M420.9 308.7l3.5-9M427.4 313.8l3.1-9.6M437 306.2s-3.5 14.6-6 25.1M435.5 343.4c7-15.6 8.5-35.2 8.5-35.2M442.5 347.5c5.5-13.1 7.5-35.2 7.5-35.2M450.6 348.9c5.5-14.1 6-33.7 6-33.7"/><path d="M451.3 396.4c-.6-4.1-1.3-9.6-6.4-12.1-6-3.3-13.7.2-17.1-1.2 0 0-19.4 19.4-21.4 31.5-2 12.1 23.4 28.1 40.2 12.7 3.3-4.7 5.1-28.5 4.7-30.9zm-16.1 20.9c-3.3 2.7-12.1 0-11.4-4.7.7-4.7 7.4-13.4 12.1-16.1 4 2 2.6 18.1-.7 20.8z" style="fill:#fff"/><path class="st1" d="M451.3 396.4c-.6-4.1-1.3-9.6-6.4-12.1-6-3.3-13.7.2-17.1-1.2 0 0-19.4 19.4-21.4 31.5-2 12.1 23.4 28.1 40.2 12.7 3.3-4.7 5.1-28.5 4.7-30.9zm-16.1 20.9c-3.3 2.7-12.1 0-11.4-4.7.7-4.7 7.4-13.4 12.1-16.1 4 2 2.6 18.1-.7 20.8z"/><path class="st0" d="M453.3 381.1s10.7-12.7 19.4-10.7c4.7 1.3 10 8.7 6 16.1-4 7.4-16.7 7.4-16.7 7.4l-8.7-12.8z"/><path class="st1" d="m470 381.1-9.4 5.4"/><path class="st0" d="M427.8 372.4c-3.3-8.7 3.3-21.1 12.1-24.9 8.7-3.9 17.4.8 19.4 7.5s.7 19.4-4 24.8c2.7 3.3 10 8.7 7.4 16.7-2 3.3-6 6-9.4 4.7-3.3-1.3-.3-12.9-8.4-16.9-6-3.3-13.7.2-17.1-1.2-3.3-1.3-6-6 0-10.7z"/><path class="st1" d="M427.8 372.4c4 3.3 14.1 4 15.4-6M444.7 386.5l-8.8 10"/><path class="st0" d="m398.9 267.9-8.4 18.1c5.4 2.5 11.1 5.2 16.8 7.8l9.1-16.5c-5.8-3-11.7-6.2-17.5-9.4z"/><path class="st5" d="M364.7 246.9c-10.5 10-13.1 21.1-13.1 21.1s17.5 8.1 38.9 18l8.4-18.1c-12.7-7.1-24.8-14.4-34.2-21zM416.4 277.4l-9.1 16.5c5 2.3 10 4.7 14.9 7l8.4-16c-4.6-2.5-9.4-4.9-14.2-7.5z"/><path class="st0" d="m430.6 284.8-8.4 16c17.9 8.4 34 16.2 41 19.9 8.5-1 9-15.6 9-15.6s-18.7-8.6-41.6-20.3zM483.4 322.2l50.9 9.3.7-28.1-50.3-2.7z"/><path class="st0" d="M473 328s31.8 36.3 34.5 37c2.7.7 14.7-11.4 14.7-14.7S486 318.8 486 318.8l-13 9.2z"/><path class="st5" d="M546.9 289s61.8-1.5 64.8-1 3 7 .5 8.5-59.8 3-59.8 3l-5.5-10.5z"/><path class="st0" d="M477.6 282.5c11.6-3 77.4-3.5 84.9 12.6-17.6 23.6-73.3 16.1-84.4 14.1-11-2.1-14.1-22.2-.5-26.7z"/><path class="st8" d="M513.6 311.8c-3.2.1-6.3 0-9.4-.1v-30.9c3 0 6.2.1 9.4.3v30.7zM531.6 310.3c-3.1.5-6.2.9-9.3 1.1l-2-29.9c3.8.3 7.6.7 11.3 1.2v27.6zM537.6 283.6c3.9.7 7.5 1.5 10.7 2.5l-.5 19.7c-3.2 1.3-6.6 2.4-10.1 3.3l-.1-25.5z"/><path class="st5" d="M477.6 282.5c1.9-.5 5.4-.9 9.8-1.2l2.1 29.4c-5.1-.6-9.1-1.2-11.4-1.6-11.1-2-14.1-22.1-.5-26.6z"/><path class="st1" d="m498.1 310.8-.6-29.5M554.6 300.1v-9.6"/><circle class="st0" cx="475.3" cy="318" r="12.3"/><path class="st8" d="M129.1 387.1c-.5-11.4.5-27.5 2.2-43.6l21-.6c1.4 17.3 2.1 33.7 1.6 41.5-1.3 20.8-4.7 33.5-2.7 54.3.7 7.4-.1 22-1.6 37.5l-19.4-.7c-1.3-14.9-2.1-29.4-2.4-39.5-.7-30.1 2.6-16 1.3-48.9z"/><path class="st3" d="M182.7 422s6.7.7-4-4-14.1-31.5-18.1-33.5c-4-2-39.5.7-39.5.7s-4.7 6.7 1.3 10.7c6 4 29.5 30.1 34.8 41.5 5.4 11.4 21.4 11.4 21.4 11.4l7.4-8.7-3.3-18.1z"/><path class="st3" d="M121.1 436.7c5.4 2.7 30.1 4 34.2 1.3s1.3-7.4-.7-10c3.3-4.7-1.3-9.4-1.3-9.4s3.3-5.7-1.7-10.2c1.7-2.5 3.7-9.2-2.3-11.9-2.7 0-22.1-2-26.8-.7-4.7 1.3-12.1 6.7-11.4 20.8.6 14.1 4.6 17.4 10 20.1z"/><path class="st0" d="M136.5 389.8v-6l-20.1.7s-2.7 4.7.7 5.4c3.3.6 19.4-.1 19.4-.1zM146.5 439.5c4.1-.1 7.4-.6 8.7-1.4 4-2.7 1.3-7.4-.7-10 3.3-4.7-1.3-9.4-1.3-9.4s3.3-5.7-1.7-10.2c1.7-2.5 3.7-9.2-2.3-11.9-.8 0-3.1-.2-6-.4l3.3 43.3z"/><path class="st1" d="m151.5 408.4-27.1-.8M153.2 418.6l-28.1-.7M154.5 428h-29.4"/><path class="st5" d="M178.7 417.9c2-2.7 40.9-4 44.2-2.7 3.3 1.3 4.2 36.8.8 38.2s-41.7.7-44.4-2-2.7-30.8-.6-33.5z"/><path class="st4" d="M177.4 440.7c-.5-9.2 0-21.1 1.2-22.8 1-1.3 11.2-2.3 21.6-2.8 0 0 3.2 24.9.5 26.3s-22 1.3-23.3-.7z"/><path class="st0" d="M212.8 454.1c5.6 0 9.9-.3 10.9-.7 3.3-1.3 2.5-36.8-.8-38.2-1-.4-5.2-.6-10.7-.5l.6 39.4z"/><path class="st1" d="m213.2 424.8 10.7.7M213.5 434.7h10.7M213.5 445.4l10-.7"/><path class="st0" d="m296.5 415.7-28.8 1.9v34.2c17.9.2 42.1 0 60.2-.2.7 0-1.3-13.5-8-16.2s-20.1.7-22.8-2-.6-17.7-.6-17.7z"/><path class="st2" d="m553.1 697.9.6 29.5 31.5-1.4-10.7-29.4zM370.9 701.9l.7 29.5 31.4-1.3-10.7-29.5z"/><path class="st4" d="M527.6 687.2c-2 2-.7 8 1.3 10.7s44.9 2.2 47.6.8c2.7-1.3 0-12.9-4-14.9-5.4-1.3-42.9 1.4-44.9 3.4zM345.4 691.2c-2 2-.7 8 1.3 10.7 2 2.7 44.9 2.2 47.6.8 2.7-1.3 0-12.9-4-14.9-5.3-1.3-42.9 1.4-44.9 3.4z"/><path class="st0" d="M543 726c-3.3 2.7-6.7 10-6.7 10l50.9-.7s1.3-7.4-2-9.4-40.2-.5-42.2.1zM360.8 730.1c-3.3 2.7-6.7 10-6.7 10l50.9-.7s1.3-7.4-2-9.4c-3.3-1.9-40.2-.6-42.2.1z"/></svg>