<svg version="1.1" id="Calque_1" xmlns="http://www.w3.org/2000/svg" x="0" y="0" viewBox="0 0 900 900" style="enable-background:new 0 0 900 900" xml:space="preserve"><style>.st0,.st1,.st2,.st3{fill:#fff;stroke:#000;stroke-width:3.6089;stroke-linecap:round;stroke-linejoin:round;stroke-miterlimit:10}.st1,.st2,.st3{fill:none}.st2,.st3{fill:red}.st3{fill:#ffce00}.st4{fill:red}.st5{fill:#ffce00}.st6{fill:#fff}.st10,.st11,.st12{fill:#005add;stroke:#000;stroke-width:3.6089;stroke-linecap:round;stroke-linejoin:round;stroke-miterlimit:10}.st11,.st12{fill:#721300}.st12{fill:#266600}</style><ellipse class="st0" cx="533.7" cy="497.6" rx="13.5" ry="16.2"/><path class="st1" d="m526.4 498.4-.3-13M532.2 498.8l1.1-15.5M538.4 500.9l1.8-16.6"/><circle class="st0" cx="684.8" cy="494.6" r="16"/><path class="st1" d="m674 494.5.8-10.9M679.1 493.7l2.2-13M684.8 494.6l2.6-13.9M689.2 496.3l4-13.8M694.6 498.8l3.6-11.9"/><ellipse transform="rotate(-68.95 611.897 400.441)" class="st0" cx="611.9" cy="400.5" rx="13.2" ry="17.1"/><path class="st1" d="m613.4 394.5 14.1 6.5M611.3 399.2l14.7 7.6M609.4 403.1l12.7 8M605.8 406.4l9.8 7.6"/><ellipse transform="rotate(-49.941 533.806 370.644)" class="st0" cx="533.8" cy="370.7" rx="11.4" ry="14.7"/><path class="st1" d="m528.6 373.6 9.4 9M533.8 370.6l10.3 6.9M536.9 366.3l10.5 6.5"/><ellipse transform="rotate(-82.444 542.505 334.57)" class="st0" cx="542.5" cy="334.6" rx="13.2" ry="14.7"/><path class="st1" d="m539.8 325.7 10.5-1.2M542.3 330.2l11.9-.3M542.3 336l14.8 1.6M540.9 342.2l11.2 2.1"/><ellipse class="st0" cx="503" cy="205.9" rx="20.6" ry="12.1"/><path class="st1" d="m501.2 198.5 15.9-.7M503 202.8l19.1.4M502.3 207.9l19.8.7M499.7 212.2l14.5 2.6"/><circle class="st0" cx="480.3" cy="174.9" r="15.4"/><path class="st1" d="M470.9 171.1 477 161M475.9 172.5l7.2-11.2M478.8 175.4l10.1-11.2M482.4 178.3l11.2-8.3M484.2 182.3l9.8-3.6"/><circle class="st0" cx="396.8" cy="94.2" r="18.7"/><path class="st1" d="m385.3 89.5 4-11.2M390 89.2l5.8-13M394.4 89.9l6.8-13.4M398.3 91.7l9-12.3M401.6 95.3l10.1-10.8M403.4 100.4l11.9-8.7"/><circle class="st0" cx="444" cy="150.6" r="15.4"/><path class="st1" d="m434.1 148 4.6-12.3M439.1 148.7l5.4-12.6M444 150.6l7.4-12.4M447.8 153l9-10.1M450.3 157.4l7.9-5.1"/><ellipse transform="matrix(.9994 .03332 -.03332 .9994 7.495 -10.98)" class="st0" cx="333.2" cy="219.4" rx="12.1" ry="14.7"/><path class="st1" d="M325.8 216.6 324 227M329.8 220.2l-.4 13M335.2 220.2l.3 12.2M340.2 217.6l1.5 10.5"/><circle class="st0" cx="183.9" cy="720.3" r="15.4"/><circle class="st0" cx="221" cy="739.5" r="15.4"/><circle class="st0" cx="260.5" cy="756.3" r="15.4"/><path class="st1" d="m169.5 720.7 6.5-7.5M172 727.9l6.5-10.4M176.7 731.6l5.8-12M182.5 734.4l4.3-12.6M190.1 733.4l2.2-10.9M206.7 740.6l6.1-8M209.2 747.8l6.2-10.5M215 752.1l5-11.9M222.2 752.8l2.9-11.5M229.4 751l1.1-10.1M247.1 760.4l4.3-8.3M251.4 766.9l3.7-11.2M258.3 769.5l1.8-12.3M264.8 768.4l.4-10.9M270.2 766.9l.4-10.1"/><path class="st0" d="M360.6 760.1s-22.2-9.9-30.9-8.8c-8.7 1.1-12.3 22.2-.4 27.1 11.9 4.9 31.2-.9 31.2-.9v-17.4z"/><path class="st1" d="m328 754.3 17.3 4.7M324.3 760.1l19.9 2.9M323.3 766.9l20.9 1.8M325.8 774.1l19.1-.3"/><path class="st2" d="M408.8 792s5.4-8.1 6.5-17.9c-1.1-18.8-17.9-15.7-22.2-9.2-4.3 6.5-2.7 24.7-2.7 24.7l18.4 2.4z"/><path class="st1" d="M402.9 772.6c-4.9 7.6-3.8 19.5-3.8 19.5"/><path class="st2" d="M494.7 744.5s9.4-7.2 16.2-5.1c6.9 2.2 10.8 14.4 10.5 18.8-.4 4.3-13 10.5-13 10.5l-14.1 1.1.4-25.3z"/><path class="st1" d="M504.8 746.4c4.7 5.1 4.7 15.2 4.7 15.2"/><path class="st0" d="M498.3 797.2c1.6-8.2 7.7-13.4 9.6-26.3l-3.1-.4-28.5 12.3s-1.8 5.4-2.5 14.1-.7 17-.7 17l28.1.9c-1.3-2.6-4.4-10.2-2.9-17.6z"/><path class="st3" d="M574.1 803.4c-.7-2.5-16.6-12.3-16.6-12.3l-26.7-17.3-22.8-2.9c-1.9 13-8 18.2-9.6 26.3-1.5 7.4 1.6 15 2.8 17.5l49.9 1.6s1.8 2.9 4.7 4.3c2.9 1.4 6.5-1.1 6.5-1.1s5.8 2.2 6.5-3.2c6.5-1.8 4-7.9 4-7.9s2-2.5 1.3-5zM444.6 824.5l-44.9-29.2s-3.5-.7-8.6-1.6c-13.4 15.1-14 33.4-13.8 39.8 18.7 4.9 45.5 12.2 48.4 14.3 4.3 3.2 6.5 0 6.5 0s4.3 3.8 6.5 0c7 2.2 7.9-2.9 7.9-2.9s6.1.2 6.1-4.7-8.1-15.7-8.1-15.7z"/><path class="st0" d="M391 793.7c-11.2-1.8-29.9-4-33.6.5-5.4 6.5-6.5 29.8-6.5 29.8l8.1 4.9s7.9 2 18.2 4.7c-.2-6.5.4-24.7 13.8-39.9z"/><path class="st3" d="m359.6 747.1-.6 35.7 20.1 10.3 11.3-3.4 1.6-42.6z"/><path class="st1" d="M425.1 832.1c3.2 2.7 8.1 10.8 7 15.7M432.1 831.6c3.2 2.7 7.6 11.4 6.5 16.2M439.3 828.9c3.2 2.7 6.3 7 7.9 15.7"/><path class="st3" d="M474.8 771.3c6.1 5.4 25.3 1.4 27.4-6.1 2.2-7.6-14.4-40.4-14.4-40.4L451 728s11.2 13.4 14.1 18.4 3.6 19.4 9.7 24.9z"/><path class="st1" d="M572.6 808.4c-1.4-3.6-11.2-6.9-11.2-6.9M568.7 816.4c-.4-3.6-9.4-8.3-9.4-8.3M562.2 819.6c1.1-1.8-6.5-9.4-8.7-8.7"/><path class="st4" d="M432.1 802.7c-12.6-3.1-23.8-5.7-23.8-5.7s-18.9-4.9-16.2 2.2c1.8 4.8 20.6 16.8 35.2 24 5-7.2 5.3-15.2 4.8-20.5z"/><path class="st5" d="M455.4 808.8c-6.6-1.9-15.2-4.2-23.3-6.2.5 5.3.2 13.4-4.9 20.4 6.8 3.4 12.6 5.6 15.4 5.6 8.6.1 13.3-10.6 12.8-19.8z"/><path class="st4" d="M548.3 769.3c-11.7 0-22.7.1-23.7-.9-2.2-2.2-2.9-5.1-2.9-5.1l-13 3.2-1.1 8.7s7.2 9.7 23.8 13.4c4.9 1.1 10 2 14.9 2.7 1.3-4.5 3.1-12.8 2-22z"/><path class="st5" d="M577 770.5c-1.9-1.3-15.7-1.3-28.6-1.2 1 9.1-.7 17.5-2 21.9 11.5 1.7 21.5 2.4 23.7 1.6 3.3-1 10.1-14.7 6.9-22.3z"/><path class="st1" d="M455.4 813.7c-42.8-7-45.5-13-45.5-13M514.5 768.7s7.2 9.4 27.8 10.1c20.6.7 33.9 2.2 33.9 2.2"/><path class="st1" d="M392 799.1c2.7 7 41.9 29.6 50.5 29.6 8.7 0 13.4-10.6 12.8-19.8-16.8-4.9-47.1-11.9-47.1-11.9s-18.9-5-16.2 2.1zM507.7 775.2s7.2 9.7 23.8 13.4 35.4 5.4 38.6 4.3c3.2-1.1 10.1-14.8 6.9-22.4-3.6-2.5-50.2 0-52.3-2.2s-2.9-5.1-2.9-5.1l-13 3.2-1.1 8.8z"/><path class="st2" d="M409.9 800.7s.5-5.4-1.1-8.7c-1.6-3.2-16.8-4-18.9-4s-1.1 6.7 2.2 11c7-.5 17.8 1.7 17.8 1.7zM502.3 765.1c1.1-2.9 10.8-7.2 19.5-6.9 2.5 1.4 5.1 7.2 2.9 10.1-8.7-3.2-15.5 6.1-17 6.9-1.5.7-6.5-7.2-5.4-10.1z"/><path class="st2" d="M359 782.8c-6 1.1-6 8.7-1.6 11.4 4.3 2.7 28.1 5.4 34.6 4.9 3.2-4.3-2.2-11.4-2.2-11.4s-24.8-5.9-30.8-4.9zM474.8 771.3s-2.9 8.7 1.4 13.4c4.3 4.7 30-1.1 31.4-6.1 1.4-5.1-6.1-11.9-6.1-11.9l-26.7 4.6z"/><path class="st0" d="M346 821.8c-6.5.5-3.8 11.5 1.1 11 2.2-.3 17 1.2 33.2 5.1 20.2 4.9 42.4 12.6 44.2 12 3.2-1.1 1.1-7.6-1.6-10.8-1.4-1.7-20.9-7.7-40-11.8-17.1-3.7-33.8-5.8-36.9-5.5zM469.1 812.4c-1.8 1.4-2.9 7.2-.4 7.6s78.7.4 81.2-.4 1.1-6.5-1.4-7.6-77.6-1-79.4.4z"/><circle class="st0" cx="513.6" cy="416.6" r="11.6"/><path class="st0" d="m480.8 481.9 58.5-31.4-14.6-29.3-25.5 4.4-49.2 10.8 2.7 31.4z"/><path class="st5" d="M438.4 448.5c-4.3-9.2-.9-51.1 12.1-57.6 10.9-5.4 41-1 50.3.6.5-7.8 1.7-15.7 1.7-15.7l-82.3-9.2-17.3 55.8 9.2 48.7s33 5.4 40.6 9.2 11.9 11.9 16.8 10.8c11.9-3.2 18.4-15.2 19.5-23.3.2-.3.4-.7.6-1.2-13.9-3-47.8-10.8-51.2-18.1z"/><path class="st6" d="M508.4 428.3c-.5-4.9-6.5-17.3-7.6-26-.4-2.9-.3-6.8-.1-10.8-9.3-1.6-39.4-6.1-50.3-.6-13 6.5-16.4 48.4-12.1 57.6 3.4 7.3 37.3 15.2 51.1 18.1 3.5-7.9 6.4-34.2 6.4-34.2s13.2.7 12.6-4.1z"/><path class="st1" d="M452.7 480.2c7.6 3.8 11.9 11.9 16.8 10.8 11.9-3.2 18.4-15.2 19.5-23.3 3.8-6 7-35.4 7-35.4s13 .7 12.5-4.2-6.5-17.3-7.6-26c-1.1-8.7 1.6-26.5 1.6-26.5l-82.3-9.2-17.3 55.8 9.2 48.7c0 .1 33 5.5 40.6 9.3z"/><path class="st1" d="M458.1 400.1s8.5-5.1 15-2.3 13.2 1.3 15.9 3.4c-2.7 3.8-10.8 9.9-18.4 7.8-7.6-2.2-12.5-8.9-12.5-8.9z"/><circle cx="472.9" cy="403.5" r="5.1" style="fill:none;stroke:#000;stroke-width:3.0621;stroke-linecap:round;stroke-linejoin:round;stroke-miterlimit:10"/><circle cx="452.1" cy="420.1" r="10.3"/><path class="st0" d="m498.1 443.4-1.6 16.8h-28.1l1.6-21.7z"/><path class="st1" d="M486.8 458v-15.7"/><path class="st0" d="M487.9 421.2s-5.4 10.3 8.1 11.2c5.4.2 13 .7 12.5-4.2s-6.5-17.3-7.6-26"/><path d="M505.7 432.1s1.1 13.5-1.6 14.1c-2.7.5-25.4-3.2-28.1-2.7s-3.2 10.3-1.1 12.5c2.2 2.2 24.9 1.6 27.1 2.2 2.2.5 1.6 9.9-2.2 11.5s-36.8-3.4-41.1-5.6c-4.3-2.2-.5-29.8 4.9-31.9 5.3-2.3 42.1-.1 42.1-.1z" style="stroke:#000;stroke-width:3.6089;stroke-linecap:round;stroke-linejoin:round;stroke-miterlimit:10"/><path class="st3" d="M346.9 133.4c-15.7-8.1-63.2-21.8-65.9-20.8-2.7 1.1-2.2 7.6 0 10.8 2.2 3.2 101.8 50.9 101.8 50.9l15.7 1.1-18.9-25.4s-17-8.5-32.7-16.6zM315.2 185.7c-19.5-.5-63.3 7.6-70.9 10.8-7.6 3.2 6 9.2 14.6 8.7 8.7-.5 140.7 1.6 140.7 1.6l21.1 14.6 13-7.6-4.3-17.3-1.1-10.8-77.4-.5s-16.2 1.1-35.7.5zM313.6 176.5s-57.9-10.8-63.9-15.2c-6-4.3-5.4-8.7.5-10.3 6-1.6 56.3 2.7 72.5 13 16.3 10.4-9.1 12.5-9.1 12.5z"/><path class="st0" d="M322.8 317.3s-18.4-3.8-34.6.5c-16.2 4.3-14.6 37.9 2.7 41.7-14.1 9.7-14.6 37.4 1.6 41.7-10.8 13-9.3 33.6 4.8 37.9-11.3 9.7-7 23.3 2.7 26.5-8.1 10.8-8.1 30.9 9.7 33.6 17.9 2.7 34.6-7.6 34.6-7.6l2.7-21.7L330.8 360l-8-42.7z"/><path class="st1" d="M326 360.1s-23.8 2.7-35.2-.5M329.3 399.6s-25.4 4.9-36.8 1.6M334.1 436.4s-25.5 6-36.8 2.7M336.3 461.8s-24.9 7-36.3 3.8M320 328.7s-16.2-3.2-26.5-1.1-6.5 18.9 2.2 21.1c8.7 2.2 28.1-.5 28.1-.5M326 368.7s-20.6.5-28.7 2.2c-8.1 1.6-9.2 17.9 0 21.7 9.2 3.8 32-3.2 32-3.2l-3.3-20.7zM333 407.2s-29.8 2.7-34.1 6.5-3.2 12.5 3.2 15.2 31.9-3.8 31.9-3.8"/><path class="st1" d="M305.4 440.2c-6 3.8-8.1 12.5-2.7 15.7 5.4 3.2 31.9-2.7 31.9-2.7M306.2 466.7s-8.9 15.2-.7 20c8.1 2.7 27.1-10.3 27.1-10.3"/><path class="st2" d="m228 637.2-22.2 24.9-2.7 17.9 56.9 28.7 30.3 2.1 7-9.2 8.7-32.4-40.6-45z"/><path class="st1" d="m216.1 675.7 21.6-29M239.4 687l17.3-29.2M261.6 696.8l14.6-32M282.2 704.3l12.4-33.5"/><path class="st0" d="M172.8 694.4s20-27.1 26.5-30.3 11.9-3.8 16.8 11.9c8.1-3.8 21.1.5 23.3 11.4 7-2.2 20 2.7 22.2 9.7 4.9-4.9 18.4.5 20.6 7.6 3.8-4.3 14.1-5.4 17.9-.5 3.8 7-4.9 45.5-4.9 45.5s-18.4 1.6-60.1-16.2c-41.7-18-62.3-39.1-62.3-39.1z"/><path class="st1" d="m216.1 675.7-21 36M239.4 687l-18.3 39.5M261.6 696.8l-15.2 40.9M282.2 704.3l-9.1 41.7M179.3 694.4s18-23.1 22-24.5c4-1.4 7.6 2.2 6.9 6.1-.7 4-2.5 4.7-5.4 4.3-2.9-.4-.7-4.3-.7-4.3M204.2 710.3s13.7-25.6 17.7-27.1c4-1.4 10.5-.4 9.7 3.6-.7 4-1.8 5.4-4.7 5.1-2.9-.4-2.9-4.7-2.9-4.7M186.1 698.4l11.6 7.9M190.1 693.7l10.5 7.5M194.4 689.3l9.4 6.2M198.4 684.6l9 5.8M230.5 722.9s11.5-24.9 14.4-26.3c2.9-1.4 5.8 1.1 6.5 4.7.7 3.6-1.4 4.7-3.6 4.7s-1.8-2.9-1.8-2.9M252.9 736.6s9-30.3 12.6-31.8c3.6-1.4 6.1-.4 7.2 2.9s-.4 6.1-4 6.5c-3.6.4-1.8-4-1.8-4M279.2 742.7s5.4-24.9 6.1-28.5c.7-3.6 5.1-5.8 7.2-5.4 2.2.4 4.7 2.2 4.7 5.1s-1.4 5.1-4.7 4.7c-3.2-.4-2.5-3.6-2.5-3.6M212.1 713.9l11.2 6.1M215.7 708.5l10.5 5.7M218.2 703.8l10.1 5.4M221.5 699.8l9.7 5.1M244.6 713.2l8.3 3.2M241.3 718.2l8 3.3M239.2 724l8.6 3.6M237 728.3l9 4M267 721.8l10.4 2.9M265.5 727.2l10.5 2.9M264.1 732.3l10.4 2.5M262.6 737l11.6 3.6M289.3 725.1l9.8.7M288.3 731.2l9.3.4M287.5 736.6l9.8.7M286.1 743.1l9.4.7"/><path class="st6" d="M276.2 637.6c26.3 12.7 42.9 14.8 51.6 14.7 1.9-12.2 3.6-24.8 3.6-24.8l-74.2-42.2-11.2 3.8s-8.7 6.9-17.4 14.7c5.6 6.7 18.9 20 47.6 33.8z"/><path d="M276.2 637.6c-28.8-13.8-42-27-47.5-33.9-7.5 6.7-15 14.1-17.1 18.4-4.3 9.2 3.4 16.2 12.6 14.6-1.1 9.7 6.5 18.9 20 15.2 1.1 8.1 13.2 12.5 22.4 6 .5 8.1 8.7 16.2 21.3 8.1.2 11.4 11.5 12.5 16.4 4.3 1.1 11.9 16.2 9.2 18.9 3.8 1.2-2.4 3-12 4.5-21.8-8.5.1-25.2-2.1-51.5-14.7z" style="fill:#721300"/><path class="st1" d="M211.6 622.1c-4.3 9.2 3.4 16.2 12.6 14.6-1.1 9.7 6.5 18.9 20 15.2 1.1 8.1 13.2 12.5 22.4 6 .5 8.1 8.7 16.2 21.3 8.1.2 11.4 11.5 12.5 16.4 4.3 1.1 11.9 16.2 9.2 18.9 3.8s8.1-46.6 8.1-46.6l-74.2-42.2-11.2 3.8c.2-.1-30 23.8-34.3 33zM224.2 636.7l33.6-39M244.3 651.8l28.1-47.1M266.6 657.8l18.3-47.1M288.1 667l14.1-49.8M304.3 670.2l12.5-49.8M218.3 626.9l35.2-35.2M237.8 641l27.6-41.7M257.3 650.2l20.5-41.1M278.9 659.4l14.6-44.9M315.2 667.5l6.5-44.4M298.9 663.2l11.9-46"/><path class="st2" d="M246.1 589c22-28.7 46.9-63.3 46.9-63.3l54.7 32.5-32.5 68.2s-55.4-17.3-69.1-37.4z"/><path class="st10" d="M486.2 664.5c-.8-7.5-1.3-15.1-1.6-22.4-14.1-21.7-52.5-21.1-52.5-21.1l-98.5-2.7-8.7 8.7s-3.6 9.6-2.3 26.9c91.6 19.6 153.1 12.2 163.6 10.6z"/><path class="st0" d="M488 680.6c-.6-5.3-1.2-10.7-1.8-16.1-10.5 1.6-72 9-163.7-10.8.6 8.2 2.3 18.2 6.1 29.6 21.9.7 120.4 3.3 159.4-2.7z"/><path class="st10" d="M427.6 706c39.3-.8 56.4-3.3 62.9-4.6-.8-6.8-1.6-13.8-2.5-20.8-39 6-137.5 3.4-159.3 2.8.5 1.6 1 3.1 1.7 4.7 2.4 6.6 4.8 12.6 7.2 17.9 9.8.3 44.4.9 90 0z"/><path class="st0" d="M427.6 706c-45.5.9-80.2.3-90.1.1 11.2 25.7 20.7 37.5 22.1 41.1 1.6 4.3 53.6 4.3 59-1.6s7-10.3 8.7-14.6c4.9 2.7 36.3-5.4 65.5-5.4-.5-7.8-1.3-15.8-2.2-24.1-6.6 1.2-23.7 3.7-63 4.5z"/><path class="st1" d="M425.1 642.6c2.7 19.5 2.7 75.8 2.2 88.2M364 748.2l-2.5-11.6M369.5 749.6l-1.9-12.3M374.5 750l-1.4-11.9M380.3 749.6l-1.1-12.3M386.1 749.6l-.8-11.5M392.9 750l-.7-11.6M399 749.6l-.7-10.5M405.9 748.2l-1.1-9.4M413.1 747.1l-1.1-9.4M420 742.7l-.7-8.6M432.6 730.8l-.7-11.9M438.4 730.1l-.4-12.6M445.6 729l-1.4-11.9M453.5 727.6l-1.4-12.6M460.4 726.5l-.4-11.2M466.9 726.5l-.4-12.6M474.5 725.4l-1.1-11.9M481 725.1l-1.5-12.3M487.8 724.7l-1.8-11.9"/><path class="st0" d="M482.6 610c-.4-4-.8-8.1-1.3-12.2-9 2.6-31.8 7.5-74.7 6.7-51.8-1-80.6-9.9-86.3-11.9-1.1 3.2-2.2 6.5-3.2 9.6 8.3 2.2 40 10 83.8 12.8 41.7 2.6 71.9-2.9 81.7-5z"/><path class="st0" d="M481.4 597.8c-2.3-21.7-5.1-44-6.5-48.3-2.7-8.7-7.6-27.6-7.6-27.6l-70.9-4.3-51.4 6.5-12.5 34.6s-6.2 16.7-12.2 33.9c5.7 1.9 34.5 10.9 86.3 11.9 42.9.8 65.7-4.1 74.8-6.7zM400.5 621.8c-51.1-3.5-77.7-9.6-85.9-11.8-3.1 10-5.2 17.8-4.3 19.1 2.7 3.8 142.9 26.5 174.3 13 .5-1 0-10.1-1.1-22.2-9.4 1.8-34.9 5.2-83 1.9z"/><path class="st0" d="M483.5 619.9c-.3-3.1-.6-6.5-.9-9.9-9.8 2.1-40 7.6-81.7 5-43.8-2.8-75.5-10.6-83.8-12.8-.9 2.7-1.7 5.3-2.5 7.8 8.3 2.2 34.8 8.3 85.9 11.8 48.1 3.3 73.6-.1 83-1.9z"/><path class="st1" d="m318.9 629.8.8-9.4M325.1 632.3l1-10.1M332.3 633l1.1-9.7M339.5 634.1l.7-9M346 635.2l1.4-9.7M352.9 637.4l.7-10.1M361.5 637.7l.4-9.7M368.4 637.7l.7-8.6M374.5 639.5l.7-10.1M426.5 644.9l-.7-10.1M434.1 644.6l.3-9.4M442 644.9l.4-9.3M450.3 645.3v-9M459 645.3l-.4-8.3M469.1 645.3l-.8-9M477.4 643.9l-1.1-8.7"/><circle class="st0" cx="333.6" cy="576.6" r="12.2"/><path class="st0" d="m182 394.2-3.2-26.6 21.1-1.1 1.6 27.1 13.5-2.7-2.1-24.9 16.7-2.2 3.3 27.7 23.3-3.8-3.8-27.6 15.7-1.1 2.7 25.4-6.5.6-10.8 15.7z"/><path class="st3" d="M537.7 413.6s11.4-5.4 14.6-11.9 7.6-24.4 9.7-26.5c2.2-2.2 4.9-.5 6.5 3.2 3.8 6.5 1.6 17.9 1.6 17.9l2.2 28.7-5.4 15.7-9.7 4.9-16.8-.5-8.7-19.5 6-12zM671.9 311.3c-.8-1.6-28.2 7.4-33.5 11.2s-5.1 10.2-2.2 13.4c2.8 3.2 8.8 3.6 14.4.3 5.5-3.2 22.1-23.3 21.3-24.9zM566.2 271.6c-1.8-.1-7.3 28.2-6.5 34.7.8 6.5 6.5 9.4 10.6 8.5 4.2-.9 7.4-6 7.3-12.5-.2-6.4-9.7-30.6-11.4-30.7zM603.2 381.7c16.8-17.3 39.5-21.1 42.2-21.1 2.7 0 1.6-6-2.2-6.5-3.8-.5-16.2 1.1-23.8 3.8s-26.5 17.9-26.5 17.9l-6.5 10.8s0 12.4 16.8-4.9z"/><path class="st3" d="M680.6 353c-5.4-3.8-12.5-8.7-22.2-7s-18.2 5.2-18.2 11.2c0 6 10.1 7.8 19.3 6.7s15.1-5.5 21.1-10.9zM582.1 373.6l11.9-57.4-7.8-4.9-12.3 67.7 5.4 2.7zM591.8 288.1c1.1-12.5 9.2-27.1 12.5-27.1s2 28.7-1.8 36.3-11.8 3.2-10.7-9.2z"/><path class="st0" d="M558.2 210.1s-1.1-9.6 1.6-11.2c2.7-1.6 16.2.9 19.5 6.3 3.2 5.4 34.1 108.3 32.5 114.2-1.6 6-22.7 9.2-24.4 4.3s-20.6-112.1-23.3-113.1c-2.6-1-5.9-.5-5.9-.5z"/><path class="st2" d="M557.2 445.6s-8.7 10.8-9.7 21.7c3.8 2.7 38.4 6.5 38.4 6.5 1.1-9.2-1.1-21.1-1.1-21.1L574 443l-16.8 2.6z"/><path class="st0" d="m465.7 504 49.2 8.7 1.7 31.4-41.2.6-17.9-26.6z"/><path class="st3" d="m695.4 528.2-7.2 52.2 27.3 4.7 7.5-61.5z"/><path class="st0" d="m736.3 521.4-13.3 2.2-7.5 61.5 13.8 2.3z"/><path class="st1" d="m690.9 536.3 44.4-2.1M688.7 550.6l44.4.5M688.7 562.5l42.8 5.1M722.8 585.8l8.1-61.7"/><path class="st11" d="M645.9 509.8s49.3-5.8 52-3.1c2.7 2.7 4.9 10.8 0 16.8 4.9 4.9 5.4 15.2-2.2 21.1 4.9 3.8 4.9 13-1.6 17.3 4.3 6 2.2 13-2.2 15.7 4.3 6 0 14.1-4.3 15.2-4.3 1.1-46.6-16.8-46.6-16.8l4.9-66.2z"/><path class="st1" d="M649.7 566.3c-1.6-.5 42.2 11.4 42.2 11.4M653.5 554.2c-1.6-.5 40.6 7.8 40.6 7.8M656.2 540.9c-1.6-.5 39.5 3.8 39.5 3.8M656.2 523.9l41.7-.4M649.7 516l45.5-1.7M653 532.6l41.7.1M654.1 547.7l36.2 5.4M653 560l35.2 7.4M646.5 570.6l38.4 13.6"/><circle class="st3" cx="481.6" cy="544.4" r="12.7"/><path class="st0" d="M385 632.3s-5.8 7.9-4.3 14.8c1.4 6.9 16.2 9 19.5 5.8 3.2-3.2 3.2-14.1 3.2-14.1l-18.4-6.5z"/><path class="st1" d="M391.5 629.4s-5.1 13.4-4 16.2 5.4 3.2 6.9 1.4c1.4-1.8 4-14.4 4-14.4l-6.9-3.2z"/><path class="st3" d="M391.5 553.9s-10.3-13.2-17.9-13.7c-7.6-.5-13.5 15.9-8.7 22.4 4.9 6.5 16.2 7 16.2 7l10.4-15.7z"/><path class="st3" d="M381.8 585.8s-8.7 2.2-16.2 1.6-7-18.9-.5-20 16.2 2.2 16.2 2.2l.5 16.2z"/><path class="st3" d="M381.8 585.8s-9.2 1.6-13 5.4 2.7 16.8 9.2 15.7c6.5-1.1 11.9-6.5 11.9-6.5l-8.1-14.6zM432.2 558.6s13.7-9.6 21.1-7.9c7.4 1.7 8.3 19.2 1.7 23.9s-17.6 1.9-17.6 1.9l-5.2-17.9z"/><path class="st3" d="M432.2 592s7.7 4.6 15 6.3 12.3-16.1 6.4-19c-5.9-3-16.2-2.7-16.2-2.7l-5.2 15.4z"/><path class="st3" d="M432.2 592s8.3 4.3 10.8 9-7.5 15.2-13.4 12.3c-5.9-3-9.5-9.7-9.5-9.7l12.1-11.6z"/><path class="st12" d="M420.7 627.1c1.4-10.6 2.9-23 2.9-23l-34.6-8.3s-4.2 11.2-7.5 21.4c2.3 2.3 8.3 7.2 18.4 9.6 8.6 2.2 16.5 1.3 20.8.3z"/><path class="st2" d="M399.8 626.9c-10.1-2.5-16.1-7.4-18.4-9.6-.9 2.7-1.7 5.3-2.3 7.6 3.2 2.8 9.2 7.1 17.1 8.9 9 2.1 18.9.9 23.6.2.3-2.1.6-4.4 1-6.8-4.4.9-12.3 1.8-21-.3z"/><path class="st0" d="M396.2 632.3c-7.9-1.9-13.9-4.7-17.1-7.5-1 3.7-1.7 6.6-1.7 7.8.4 5.1 39.3 13 40.8 9.4.4-1 .9-4.1 1.6-8.1-4.8.8-14.7.5-23.6-1.6z"/><circle class="st12" cx="408.7" cy="576.3" r="31.1"/><path class="st3" d="M405.6 545.7s-5.6 10.5-5.1 17.5 20.2 10.6 24 5.2c3.8-5.4 4.3-24.4 4.3-24.4l-23.2 1.7z"/><circle class="st3" cx="406.9" cy="596.3" r="18.1"/><path class="st0" d="m264.3 385 35.2 184-95.3 11.9-30.3-187.8z"/><path class="st1" d="m197.2 391.5 26.5 186.2M231.3 577.7l-26-187.3M225.9 388.2l30.3 187.3M263.2 573.3l-28.7-186.2M253.5 387.1l32.3 183.4"/><circle class="st0" cx="282.4" cy="544.4" r="12.2"/><path class="st10" d="M418.6 531.7c33.2-2 50.4-13.1 57.2-18.8-8.4-14.3-22.7-34.6-32.3-43.4-14.6-13.5-30.3-20-30.3-20l-34.1 8.7-24.4 44.4.7 14.4c9.5 6 30.9 16.6 63.2 14.7z"/><path class="st2" d="M475.7 512.8c-6.7 5.7-24 16.9-57.2 18.8-32.3 1.9-53.7-8.7-63.2-14.8l.9 17.5s18.9 16.2 62.8 13.5c43.8-2.7 61.7-15.7 63.3-20 .7-1.4-2.1-7.4-6.6-15z"/><path class="st0" d="M290.6 513.4c-3.8 3.3-7 6.4-9 9.1 7.6 20 59.4 53.4 66.4 47.5 1.7-1.4 3.4-5.3 5.1-10.4-6.7-1.3-18.9-5.3-36-17.4-16.6-11.9-23.6-22.5-26.5-28.8z"/><path class="st2" d="M385 342.7s-44.4 132.1-49.3 137c-3.9 3.9-29.7 20.4-45.1 33.7 2.9 6.4 9.8 16.9 26.5 28.7 17.1 12.1 29.3 16.1 36 17.4 5.3-16.1 10.3-45 14-52.8 4.9-10.3 15.2-12.5 15.2-12.5l13.5-46.6 21.7-22.2s9.4-49.1 13.2-50.2 74.5 3.6 74.5 3.6l4.3-24.4L385 342.7z"/><path class="st2" d="m335.2 449.4-17.3-135.9h12.4l16.8 112.6z"/><path class="st0" d="M400.2 349.2c-12.5 28.1-34.6 113.7-42.2 122.9-24.4 25.4-32.5 0-30.9-8.7 1.6-8.7 42.2-96.9 44.9-119.1s21.7-7 28.2 4.9z"/><path class="st1" d="M384.6 363.8s-7.2 13.7-4 15.2c3.2 1.4 8.3-13 8.3-13M375.6 356.2s-7.2 13.7-4 15.2c3.2 1.4 8.3-13 8.3-13M366.2 380.8s-7.2 13.7-4 15.2c3.2 1.4 8.3-13 8.3-13M376 387.3s-7.2 13.7-4 15.2c3.2 1.4 8.3-13 8.3-13M366.6 416.9s-7.2 13.7-4 15.2c3.2 1.4 8.3-13 8.3-13M354.7 410.4s-7.2 13.7-4 15.2c3.2 1.4 8.3-13 8.3-13M342.4 444.3s-7.2 13.7-4 15.2c3.2 1.4 8.3-13 8.3-13M354.7 450.1s-7.2 13.7-4 15.2c3.2 1.4 8.3-13 8.3-13"/><circle class="st10" cx="400.8" cy="435.2" r="21.4"/><path class="st0" d="M395.1 437.6c-3.1 3.6-17.7 59.9-17.1 64.8.5 4.9 22.7 7 24.4 1.6 1.6-5.4 5.4-58.5 4.3-63.9-1.1-5.3-8.5-6.1-11.6-2.5z"/><path class="st1" d="m384.6 504.9 14.4-69.3M388.2 491.2l8 14.8M391.1 477.1l11.6 22.8M394.4 462l9.7 20.2M396.6 448.5l9.3 17.4"/><path class="st3" d="M462.4 193.3S349.8 56.3 335.2 50c-4.3-.5-8.7 3.6-6 10.1 1.5 3.6 39 47.3 72.5 87.8 26.7 32.3 50.3 62.9 53.7 66.5 7.6 8.1 8.1 0 8.1 0l-1.1-21.1zM423.4 179.8c-8.1-11.4-109.9-92.4-115.8-93.5-6-1.1-6.9 3.1-3.6 12.3 3.2 9.2 20.4 19.5 36.1 31.4 15.7 11.9 47.1 46 47.1 46s44.4 15.2 36.2 3.8z"/><path class="st0" d="M428.9 189c-7-3.2-17.3 5.4-21.1 6-31.4 4.3-80.1 0-90.4-3.2s-11.9-22 1.1-27.4 113.5 14.3 116.9 22c7 15.8-5.4 15.7-5.4 15.7s-2.2-7.7-1.1-13.1z"/><path class="st0" d="M382.3 291.3s-20-52.5-18.4-67.7c1.6-15.2 16.2-18.9 28-.9-2.5-20.8 21.7-24 31.4-8.8 1.8-10.7 8.8-18.8 18-16.5 7.5 1.9 13.6 13.6 16.3 19.7 6 13.5 13 20 13 20l7 94.7-91.5-6.2-3.8-34.3z"/><path class="st1" d="m415.3 318-23.4-95.3M364.8 220.5s9-1.8 15.9 3.6 27.8 96 27.8 96M392.2 217.3s15.9-4.3 21.7 0c5.8 4.3 16.2 103.2 16.2 103.2M439.5 197.4c22 50.2 20.9 126.3 20.9 126.3M430.8 281.5l7.2 39.7"/><path class="st0" d="M472.2 325.7s-4.1-29.5-8.5-60.7c-4.3-30.1-9-61.8-3.9-70.6 4.9-10.3 19.5-13 21.1-2.2 1.6 10.8 17.3 119.6 17.3 119.6l-13 23.8-13-9.9z"/><path class="st1" d="m491.7 317.8-19-132.6M458.6 202l15.7-1.1M459.2 226.9l18.4-2.2M462.4 249.6l19.5-1.1M465.7 275.1l18.9-2.2M469.5 295.1l17.8-1.8M470.9 313.9l18.8-1.7"/><path class="st0" d="m405 320.5 7.1-31.4 8.1 2.2-6 28.7zM366.6 317.8s-3.8-18.9.5-26c4.3-7 29.1-8.1 34.5.5 5.4 8.6 1.3 27.6 1.3 27.6l-36.3-2.1z"/><path class="st0" d="M365.5 315.1c-9.7 2.2-9.7 29.8-1.1 31.9 8.7 2.2 138 17.9 151.6 16.2 13.5-1.6 22.2-33.9 4.9-35.7-17.3-1.8-145.6-14.5-155.4-12.4z"/><path class="st1" d="M372 323.4s13.4.4 12.3 4.7c-1.1 4.3-13.7 1.8-13.7 1.8M372.3 336.7s13.4.4 12.3 4.7-13.7 1.8-13.7 1.8M394.7 325.7s13.4.4 12.3 4.7c-1.1 4.3-13.7 1.8-13.7 1.8M395.4 338.7s13.4.4 12.3 4.7c-1.1 4.3-13.7 1.8-13.7 1.8M419.6 340.9s13.4.4 12.3 4.7c-1.1 4.3-13.7 1.8-13.7 1.8M418.5 327.2s13.4.4 12.3 4.7c-1.1 4.3-13.7 1.8-13.7 1.8M442.4 327.9s13.4.4 12.3 4.7c-1.1 4.3-13.7 1.8-13.7 1.8M445.6 344.1s13.4.4 12.3 4.7c-1.1 4.3-13.7 1.8-13.7 1.8M466.2 329.7s13.4.4 12.3 4.7c-1.1 4.3-13.7 1.8-13.7 1.8M504.1 333.3s13.4.4 12.3 4.7c-1.1 4.3-13.7 1.8-13.7 1.8M503 346.7s13.4.4 12.3 4.7c-1.1 4.3-13.7 1.8-13.7 1.8"/><path class="st0" d="m503.6 298.9-41.3 60.3c4 .4 7.9.8 11.7 1.2l38.3-54.5-8.7-7z"/><path class="st10" d="M498.7 288.1s-3.2 4.9-2.2 9.7c1.1 4.9 17.3 13.5 23.3 13.5s8.1-6 8.1-6l-9.7-15.7-19.5-1.5z"/><path class="st0" d="M505.7 272.9c-.5-9.2 6.5-26.5 15.2-33s22.7-9.7 22.7-9.7 15.7-26.5 20-23.8-15.2 29.8-15.2 29.8 1.6 13-1.6 25.4c-3.2 12.5-9.7 18.9-15.2 22.7s-25.3-2.2-25.9-11.4z"/><path class="st1" d="M508.4 259.9c15.5 15.9 31.8 15.2 31.8 15.2M512 252.7c16.2 14.1 31.8 15.9 31.8 15.9M516.7 245.4c17 12.3 30.2 16.1 30.2 16.1M523.9 238.2c10.5 12.3 24.2 13 24.2 13M532.9 234.2c5.4 10.8 15.5 9.7 15.5 9.7"/><path class="st10" d="M505.7 269.1c-6 0-8.1 13.5-7 18.9s23.3 17.9 29.2 17.3c6-.5 13.5-16.8 10.3-20-1.5-1.5-8.6-3.5-14.8-6.9-7.5-4-14.4-9.3-17.7-9.3z"/><path class="st1" d="M372 297s.7 12.3 5.4 11.9c4.7-.4 1.4-13 1.4-13M388.2 296.7s.7 12.3 5.4 11.9 1.4-13 1.4-13"/><path class="st10" d="M401.8 268s-.5 16.2 3.8 22.2 15.2 6 20 3.2c4.9-2.7 9.2-14.6 8.7-21.7-16.8-5.3-32.5-3.7-32.5-3.7z"/><path class="st0" d="M422.9 221.5c.5-1.6 2.2-33 6-32.5s1.6 32.5 1.6 32.5 4.3 16.8 5.4 27.6c1.1 10.8 1.6 17.9-1.6 22.7-3.2 4.9-31.9.5-32.5-3.8-.5-4.3 1.1-10.8 5.4-22.7s15.7-23.8 15.7-23.8z"/><path class="st1" d="M403 259.9c11.2 9 33.9 4 33.9 4M404.8 254.1c15.2 9 31.4 3.2 31.4 3.2M406.6 248.3c9.7 4.7 29.3 2.6 29.3 2.6M409.5 240.7c12.3 5.4 24.9 2.2 24.9 2.2M414.2 233.5c7.9 4 19.1 1.1 19.1 1.1M420 226.3c3.6 2.2 11.9.7 11.9.7M318.2 172.2l12.3.7M318.2 178.7l11.6.7M341.3 173.6l12.3 1.1M342.4 180.1l10.8 1.1M367.3 176.1l10.8 1.1M366.2 183l10.8.4M393.3 180.1l13 .4M393.6 185.5l11.9.7"/><path class="st0" d="M537.7 413.6s-2.2-2.7-6.5-1.6c-3.2-2.7-4.3-3.2-7.6-1.6-3.2 1.6-3.2 8.1-3.2 8.1s-6 4.9-1.6 8.7c-3.2 4.3 1.6 6.5 1.6 6.5s-2.7 5.4 3.2 7c-.5 4.9 4.9 6.5 4.9 6.5s1.6 4.3 6.5 5.4c-.5 4.3 3.8 6 6 4.9 4.3 1.6 6.5.5 8.7-1.6 2.2-2.2.5-6.5.5-6.5s4.9 1.6 7-3.8c-5.4-1.6-13.5-2.2-17.9-13.5-4.3-11.4-1.6-18.5-1.6-18.5z"/><path class="st1" d="M525.7 416.5s-3.5.4-5.4 2M523.9 423.4s-3.4 2.2-5.2 3.8M524.3 429.9s-2.1 2.2-3.9 3.8M527.9 435.3s-2.5 3.9-4.3 5.4M531.9 440.7s-1.6 4.9-3.4 6.5M537.6 447.5s-.8 3.5-2.7 5.1M543.4 451.1s-.6 4.8-2.5 6.4M550.1 449.4c-5.4-1.6-13-3.8-17.3-15.2-4.3-11.4-1.6-22.2-1.6-22.2M554.2 466.7l5.8-19.9M560.7 468.8l2.9-18M566.1 469.2l2.6-16.6M572.6 470.3l1.1-16.6M579.9 472.8v-19.1"/><path class="st3" d="M643.2 285.3c-1.5-1.6-25.7 16.5-30.3 23.3-4.6 6.8-1.7 14.2 2.9 16.9 4.6 2.6 11.7.5 16.7-5.7 5.1-6.3 12.2-32.9 10.7-34.5zM641.8 337.3c-3.1 2.3-51.6 47.1-51.6 47.1l-10.8-2.7s54-48.5 57.9-51.1c3.9-2.5 7.6 4.4 4.5 6.7zM565.8 311c0 4.2 4.9 65.3 4.9 65.3l6.5 3.2s-4.9-69.3-5.4-70.9c-.6-1.6-6-1.8-6 2.4z"/><path class="st3" d="M620.5 319.5c-1.7 2.1-36.8 62.8-36.8 62.8l-6.5-2.7s35.2-59.7 36.8-62.8 8.1.5 6.5 2.7z"/><path class="st0" d="M603.2 381.7c-21.7 28.7-18.4 70.9-18.4 70.9s-14.6 2.2-27.6-7c10.8-30.3 13.5-69.3 13.5-69.3s6.5 2.4 15.4 4c5.2.9 11.1 1.6 17.1 1.4z"/><path class="st3" d="M594.5 396.9c-1.3-1.4-7.2.4-13.1.1s-11.8-2.3-13.5-1.2c-3.2 2.2-3.8 6-1.1 8.7-2.2 2.7-3.8 4.9-.5 7-3.8 2.7-5.4 4.9-1.6 7.6-3.2 2.2-2.7 3.8-1.1 5.4 1.6 1.6 15.7 6 21.1 3.2s4.9-7 4.9-7 4.3-2.2 2.2-8.1c3.2-2.7 1.6-7.6 1.6-7.6s3.8-5.4 1.1-8.1z"/><path class="st1" d="M593.4 405c-3.2 2.2-19.5 1.6-26.5-.5M591.8 412.6c-3.2 2.2-18.4 1.1-25.4-1.1M589.6 420.7c-3.2 2.2-17.9.5-24.9-1.6M570.1 211.5l2.9 14.8M575.5 210.1l3.3 15.1M576.2 237.1l2.6 14.8M581.7 235.7l3.6 15.1M581.3 258.8l2.5 15.1M587.8 256.6l2.9 16.3M587.1 281.9l2.5 15.1M593.6 279.4l2.9 15.1M590.7 303.9l2.5 13.7M598.3 301l2.5 13.7"/><path class="st2" d="M536.4 511.6c-10-1.5-20.4-2.6-22.2-1.6-3.8 2.2 1.8 58.6 6.1 60.3 1.8.7 10.2-.7 19.2-2.5.6-9.9 1.6-36.4-3.1-56.2z"/><path class="st3" d="M556.6 514.9s-9.9-1.8-20.1-3.3c4.6 19.8 3.7 46.3 3.1 56.2 12.5-2.5 26.3-5.8 26.3-5.8l-9.3-47.1z"/><path class="st1" d="m513.8 525.2 42.3 5.4M516.6 544.1l44.3 1.6M517.6 559.3l41.7-1.1"/><path class="st6" d="m625.2 612.9-8.8 8.5c3.6 3 7.3 6.1 11 9.1l7-10c-3.1-2.4-6.2-4.9-9.2-7.6z"/><path class="st4" d="m618.4 606.4-10.1 8.1c2.5 2.2 5.3 4.5 8.1 6.9l8.8-8.5c-2.3-2.1-4.6-4.3-6.8-6.5z"/><path class="st6" d="M603.7 588v-7c-6.3-3.9-13.5-5.5-13.5-5.5s-4.2 10.2 1.3 21l13.4-6.7-1.2-1.8z"/><path class="st4" d="m604.9 589.8-13.4 6.7c.9 1.7 2 3.5 3.4 5.2 1 1.2 2.5 2.7 4.3 4.5l12.3-7.4c-2.5-2.9-4.7-5.9-6.6-9z"/><path class="st6" d="m611.4 598.7-12.3 7.4c2.5 2.4 5.6 5.2 9.2 8.3l10.1-8.1c-2.5-2.4-4.8-4.9-7-7.6zM670.4 643c-1.4-.7-3.3-1.7-5.4-2.8l-9.2 12.8c2.6 2 4.2 3.2 4.2 3.2l10.4-13.2z"/><path class="st4" d="m654.7 634.3-8.6 11.1c3.9 3.1 7.3 5.7 9.8 7.6l9.2-12.8c-3-1.6-6.5-3.6-10.4-5.9z"/><path class="st6" d="m642.3 626.2-6.6 10.8c3.7 3 7.3 5.8 10.5 8.3l8.6-11.1c-4-2.3-8.2-5-12.5-8z"/><path class="st4" d="m634.4 620.4-7 10c2.8 2.2 5.5 4.5 8.2 6.6l6.6-10.8c-2.5-1.8-5.2-3.7-7.8-5.8z"/><path class="st0" d="M611.8 589.6c-1.5-3.6-4.7-6.5-8.1-8.6v7c17.2 28.5 54.9 49.1 66.7 55.1l4.2-5.3s-58.4-37.9-62.8-48.2z"/><path class="st1" d="M603.7 588v-7c-6.3-3.9-13.5-5.5-13.5-5.5s-5.6 13.7 4.7 26.2 65.1 54.5 65.1 54.5l10.4-13.1c-11.8-6-49.5-26.6-66.7-55.1z"/><path class="st0" d="M651.9 662.7s-55.8-41.1-59.7-79c-2.1-19.7-5.6-22.3-8.5-20.2l.6 19.7c8.4 38.6 50.6 75.1 62.4 84.7l5.2-5.2z"/><path class="st6" d="m588.7 597.1-11.4 7.5c1.9 4.9 4.3 9.8 6.8 14.6l11.1-9c-2.5-4.3-4.7-8.7-6.5-13.1z"/><path class="st4" d="m595.2 610.1-11.1 9c2.1 4 4.4 8 6.9 11.9l10.9-10.5c-2.4-3.3-4.7-6.8-6.7-10.4z"/><path class="st6" d="m584.2 583.1-.6-19.7c-2.7 1.9-4.8 7.8-4.8 7.8s-7-36.3-7.6 5.4c-.1 4.9.6 10.1 2 15.5l11.4-7c-.1-.7-.2-1.4-.4-2zM601.8 620.5 591 631c2.8 4.5 5.7 8.9 8.7 13l11.6-11.2c-3.3-3.9-6.5-8-9.5-12.3z"/><path class="st4" d="m584.7 585-11.4 7c1 4.1 2.4 8.3 4.1 12.5l11.4-7.5c-1.8-3.9-3.1-7.9-4.1-12z"/><path class="st6" d="m640.7 662.8-13 14.5c1.5 1.3 2.6 2.1 3 2.1 2.7.4 10.6-6.6 15.9-11.6-1.5-1.2-3.5-2.9-5.9-5z"/><path class="st4" d="m611.2 632.9-11.6 11.2c2.6 3.7 5.3 7.3 7.9 10.5l12.5-11.8c-2.9-3.1-5.9-6.4-8.8-9.9zM631.2 654.2l-13.9 12.4c4.3 4.8 7.9 8.6 10.4 10.7l13-14.5c-2.7-2.4-6-5.3-9.5-8.6z"/><path class="st6" d="m620 642.8-12.5 11.8c3.5 4.5 6.9 8.5 9.9 12l13.9-12.4c-3.6-3.3-7.4-7.2-11.3-11.4z"/><path class="st1" d="m584.2 583.1-.6-19.7c-2.7 1.9-4.8 7.8-4.8 7.8s-7-36.3-7.6 5.4c-.5 41.7 55.2 102.3 59.5 102.9 2.7.4 10.6-6.6 15.9-11.6-11.7-9.7-54-46.2-62.4-84.8z"/><path class="st4" d="m566.8 584.2-9.2 5.7c.4 4 .8 8.2 1.4 12.6l9.7-9.3c-.8-3.1-1.4-6.2-1.9-9z"/><path class="st6" d="m565.5 574.5-8.7 6c.2 2.9.4 6 .8 9.3l9.2-5.7c-.7-3.4-1.1-6.7-1.3-9.6zM562.6 551.9c-2.7-3.1-4.6-.1-5.5.8-.8.8-1.2 7.1-.9 17.7l8.7-4-2.3-14.5z"/><path class="st4" d="m565.3 568.5-.3-2-8.7 4c.1 3 .3 6.4.5 10l8.7-6c-.2-2.2-.3-4.3-.2-6zM571.7 606l-10.8 11c.2 1.5.5 3 .7 4.5.4 2.6.9 5.2 1.3 7.7l11.9-11.9c-1-3.8-2.1-7.6-3.1-11.3z"/><path class="st6" d="m568.6 593.2-9.7 9.3c.6 4.6 1.2 9.5 2 14.6l10.8-11.1c-1.2-4.5-2.2-8.8-3.1-12.8zM591 666.9l-13.9 21.6c.3.5.5.9.6 1.3 1.8 2.8 13.1.4 20.6-2.8-1.3-3.6-4-10.8-7.3-20.1z"/><path class="st4" d="m587 655.3-14.2 20c1.7 6.4 3.2 10.8 4.3 13.1l13.9-21.6c-1.3-3.5-2.6-7.3-4-11.5z"/><path class="st6" d="m582.5 641.9-13.2 19c1.3 5.6 2.5 10.4 3.6 14.5l14.2-20c-1.6-4.4-3.1-8.9-4.6-13.5z"/><path class="st4" d="m578.3 628.9-12.8 14.5c1.3 6.4 2.5 12.2 3.6 17.4l13.2-19c-1.2-4.2-2.6-8.5-4-12.9z"/><path class="st6" d="M574.9 617.3 563 629.2c.9 5 1.7 9.7 2.6 14.2l12.8-14.5c-1.3-3.8-2.4-7.7-3.5-11.6z"/><path class="st0" d="M605 682.2c-.5-3.8-26.2-71.5-33.7-105.6-3.4-15.4-6.3-22.1-8.6-24.6l2.6 16.5c-1 26.4 27.5 103.8 33 118.5 4-1.7 6.9-3.6 6.7-4.8z"/><path class="st1" d="m565.3 568.5-2.6-16.5c-2.7-3.1-4.6-.1-5.5.8-1.6 1.6-2 29.2 4.5 68.8 6.5 39.5 13.4 63.9 16.1 68.2 1.8 2.8 13.1.4 20.6-2.8-5.6-14.7-34.1-92.1-33.1-118.5z"/><circle class="st0" cx="605.9" cy="536.7" r="54.1"/><circle class="st3" cx="605.9" cy="536.8" r="42.5"/><circle class="st1" cx="606.1" cy="536.2" r="8.9"/><circle class="st1" cx="592.2" cy="515.4" r="8.9"/><circle class="st1" cx="618.3" cy="516.5" r="8.9"/><circle class="st1" cx="631.9" cy="538.7" r="8.9"/><circle class="st1" cx="583.1" cy="536.5" r="8.9"/><circle class="st1" cx="591.8" cy="557.6" r="8.9"/><circle class="st1" cx="615.6" cy="559.8" r="8.9"/><path class="st3" d="M170.6 256.8c-3.2 2-1.1 8.5 2.2 9.6s94.7 16.2 94.7 16.2l13-3.8-2.7-13c0 .1-103.9-10.9-107.2-9z"/><path class="st3" d="M267.5 279.9 164.1 281s-2.2 8.7 2.7 10.8c4.9 2.2 109.9 1.6 109.9 1.6l8.7-8.7-17.9-4.8zM171.4 307.2c-2.9.9-4 11.7 1.4 10.6 48.7-8.1 107.7-7 107.7-7l7.6-8.7-11.4-8.7c0 .1-72.7 2.1-105.3 13.8z"/><path class="st11" d="M355.2 288c-1.7-6-14.1-9.1-14.1-9.1h-.1c3.5-2.6 9.1-7.1 10.5-10.3-6-4.3-16.2-4.3-16.2-4.3s11.9-8.1 8.7-17.3c-8.7-.5-17.3 10.3-17.3 10.3s6-11.9-1.1-18.4c-8.7 3.8-12.5 17.3-12.5 17.3s-1.1-14.1-7.6-18.4c-4.3 5.4-8.1 21.1-8.1 21.1s-2.7-11.4-14.1-12.5c-3.2 8.1 2.5 17.1 2.5 19.3s-6.9-6.9-17.7-4.7c-1.1 8.1 8.7 14.1 8.7 14.1s-9.2-.5-13 3.8c1.6 6 14.1 9.2 14.1 9.2l.7-.1c-3.5 2.5-9.5 7.3-11 10.8 6 4.3 16.3 4.3 16.3 4.3s-11.9 8.2-8.6 17.4c8.7.5 17.3-10.4 17.3-10.4s-5.9 11.9 1.2 18.4c8.6-3.8 12.4-17.4 12.4-17.4s1.2 14.1 7.7 18.4c4.3-5.4 8-21.1 8-21.1s2.8 11.4 14.1 12.4c3.2-8.1-2.3-18.9-2.3-21.1 0-2.2 6.5 8.6 17.4 6.4 1-8.1-8.7-14-8.7-14s9 .3 12.8-4.1z"/><path class="st1" d="M325.5 279.9s8.7-10.8 4.9-17.3c-7.6 2.2-13.5 8.3-13.5 8.3s-4.9-8.8-10.3-12.6c-6.5 7-7 15.2-7 15.2s-7-3.8-17.3-1.1c1.6 7 14.1 13 14.1 13s-9.2 12.1-5.4 18.5c7.6-2.2 13.5-8.4 13.5-8.4s4.9 8.8 10.4 12.6c6.5-7.1 7-15.2 7-15.2s7.1 3.8 17.3 1c-1.9-7-13.7-14-13.7-14z"/><circle class="st1" cx="310.8" cy="284.3" r="6.5"/><circle class="st0" cx="226.1" cy="343.6" r="17"/><path class="st1" d="m211.7 338.2 3.3 9M216.4 330.6l1.8 13M222.6 328.4l.3 13.8M228.7 328.4l-.7 13.8M235.6 331l-1.8 13.3M241 336.7l-2.9 11.2"/></svg>