<svg version="1.1" id="Calque_1" xmlns="http://www.w3.org/2000/svg" x="0" y="0" viewBox="0 0 900 900" style="enable-background:new 0 0 900 900" xml:space="preserve"><style>.st0,.st1,.st2,.st3,.st4,.st5{fill:red;stroke:#000;stroke-width:5.8426;stroke-linecap:round;stroke-linejoin:round;stroke-miterlimit:10}.st1,.st2,.st3,.st4,.st5{fill:#8e8e8e}.st2,.st3,.st4,.st5{fill:#ffce00}.st3,.st4,.st5{fill:#fff}.st4,.st5{fill:none}.st5{fill:#009111}</style><g id="XMLID_64_"><path id="XMLID_73_" class="st0" d="M347.7 782.1s-9.3-11.8-5.8-17.2c3.5-5.4 37.5-4.1 37.5-4.1s-5.4-20.4 0-25.3 25.3 0 25.3 0l-5.7 34-21 12.6h-30.3z"/><path id="XMLID_74_" class="st0" d="M466.4 808.5s-10.7-14.5-9.2-20.4c1.5-6 30.4-13.6 30.4-13.6s-7-29.5 0-34.6c7-5.1 20.2-1.5 20.2-1.5v43.7l-15 20.3-26.4 6.1z"/><path id="XMLID_65_" class="st1" d="M391 604s0 42.4 8.3 76-3.4 78.4-14.6 87.2c-11.2 8.8-38 8.3-42.4 9.2-4.4 1-4.8 8.8 0 8.8-3.5 3.9-2.5 12.1 3.4 12.7-2.5 2.5-1.5 9.9 3.4 9.2 5-.6 9.8-1.5 11.2 0 1.5 1.5 30.7 1.5 30.7 1.5l43.7-10.2 13.7-32.6s-6.9-48.6 3.9-80.3c10.7-31.7 5.4-91 5.4-91L391 604z"/><path id="XMLID_61_" class="st1" d="M498.8 594.4s-5.3 22.3-4.7 58c.6 35.5 11.2 113.9 2.3 129.6s-39.9 23.8-42.8 29.7 1.2 9.2 5.3 7.7c-3.4 2.5 0 11.2 7.7 11.2 1.2 7.7 8 6.3 8 6.3h19l39.9-18.6 10.8-47.2c3.1-28.9 5.6-69.7 10.8-105.2 5.3-35.5 0-77.4 0-77.4l-56.3 5.9z"/><g id="XMLID_238_"><path id="XMLID_240_" class="st2" d="M526.9 399.7c-7.7 2.5-27.3 8.9-49.4 17.1l6.1 185.8 54.3-4.2-11-198.7z"/><path id="XMLID_241_" class="st2" d="M389 466.6c5.4 21.8-4.4 143.7-4.4 143.7l40-3.1c-.9-36.4-2.8-121.7-4.1-166.7-19.4 9.7-33.1 19.2-31.5 26.1z"/><path id="XMLID_242_" class="st2" d="M420.5 440.6c1.3 45 3.4 130.1 4.1 166.7l58.9-4.5-6.1-185.8c-19.2 6.9-40.1 15.4-56.9 23.6z"/><path id="XMLID_243_" class="st2" d="M590.6 594.4S580.4 436.6 577.9 421c-2.5-15.5-47.6-22.3-47.6-22.3s-1.3.4-3.5 1.2l11.1 198.6 52.7-4.1z"/></g><path id="XMLID_57_" class="st2" d="M551.7 459.7s29.2-3.1 34-1.9 5.4 13.3 0 13.3-41.3 2.9-41.3 2.9l7.3-14.3z"/><path id="XMLID_59_" class="st2" d="M555.2 306.6s38.4 16.1 37.8 57.4c-.6 41.3-13.4 84-59.2 124.4s-94.7 85-94.7 85l-34.6-24 86.6-83 18.6-86.5 45.5-73.3z"/><g id="XMLID_36_"><path id="XMLID_92_" class="st3" d="m277 267.2-27.6-35.9c0 7 .1 13.6.3 20l28.6 37.2c-.5-7.7-.9-14.7-1.3-21.3z"/><path id="XMLID_101_" class="st3" d="m275.8 244.4-26.4-34.5c0 7.7 0 14.6.1 21.3l27.6 35.9c-.6-8.2-1-15.7-1.3-22.7z"/><path id="XMLID_102_" class="st3" d="M274.2 206.1H260l14.8 19.3c-.2-6.4-.5-12.8-.6-19.3z"/><path id="XMLID_103_" class="st3" d="M274.9 225.6 260 206.1h-10.8v3.8l26.4 34.5c-.1-6.7-.4-12.8-.7-18.8z"/><path id="XMLID_170_" class="st3" d="m278.3 288.5-28.5-37.2c.1 6.7.3 13.4.6 20.4l29.5 38.4c-.6-7.7-1.2-14.9-1.6-21.6z"/><g id="XMLID_93_"><path id="XMLID_94_" class="st3" d="M285.1 380.5c-.1-1-.1-2-.3-3.1l-32.1-41.2c.3 5.7.4 11.7.7 18.3l32.9 42.4c-.3-5.5-.7-10.9-1.2-16.4z"/><path id="XMLID_99_" class="st3" d="M281.2 329.9 251 291c.4 12.7 1 27.3 1.8 45.3l32.1 41.3c-1.4-17.8-2.7-33.6-3.7-47.7z"/><g id="XMLID_95_"><path id="XMLID_96_" class="st3" d="M260.5 747.8c3.8 5.8 20.4 3.9 28.2 0L259 700.4c.3 28.2.7 46 1.5 47.4z"/><path id="XMLID_108_" class="st3" d="m258.9 654.1 34.9 55.7c.1-12.1.3-27.2.4-44.3L258.6 609c.1 15.9.1 31.1.3 45.1z"/><path id="XMLID_109_" class="st3" d="m259.1 700.4 29.7 47.3c2-1 3.5-2.2 3.9-3.4.3-.9.7-13.6 1-34.5l-34.9-55.7c.1 17.4.2 33 .3 46.3z"/><path id="XMLID_110_" class="st3" d="M257.8 516.4c.1 15.6.4 31.1.4 46.2l35.8 57c-.1-14.6-.3-30.1-.6-46.2l-35.6-57z"/><path id="XMLID_111_" class="st3" d="m287.8 416.5-33.6-43.1c.1 3.7.3 7.3.4 11.1 1.6 42.2 2.5 87.8 3.1 131.9l35.8 57c-.8-49.9-2.5-105.1-5.7-156.9z"/><path id="XMLID_171_" class="st3" d="m258.6 609 35.5 56.7v-45.9l-35.8-57c.1 15.8.3 31.3.3 46.2z"/></g><path id="XMLID_104_" class="st3" d="m286.3 396.8-32.9-42.4c.3 6 .4 12.3.7 19l33.4 43.1c-.2-6.6-.6-13.2-1.2-19.7z"/></g><path id="XMLID_179_" class="st3" d="m279.7 310.1-29.5-38.4c.1 6.1.4 12.4.7 19.3l30.2 39c-.3-7-.9-13.6-1.4-19.9z"/></g><path id="XMLID_24_" class="st1" d="m434.6 223.1-4.2 53.9-9.2 11.2s-2 9.2 1 15c-2.9 0-2.5 1.9-2.5 6.9s5.1 3.9 6.7 7.3c1.6 3.4-3.7 7 1.6 10.2 5.3 3.2 20.3.4 23.7 4.8 3.4 4.4 3.5 12.7-2.9 15-6.3 2.5-23.8 38-23.8 38s-31.7-10.7-68.7-31.3-59.9-35.9-59.9-35.9.4-10.4-4.4-15c-4.8-4.8-9.1-6.9-15-4.8-6.1 2-37.5 8.2-44.8 16.9-7.3 8.8-8.3 20 2.9 21.9 11.2 1.9 25.9-1 25.9-1l20 21.9s80.8 40.9 90.6 72.6 4.8 43.8 4.8 43.8 79.9.1 104.1-3.9 50.4-46.7 61.8-64.3c11.4-17.5 15-49.2 11.4-66.8-3.8-17.5-23.4-109.8-23.4-109.8s-87.3-15.3-88.8-14.9c-1.5.5-6.9 8.3-6.9 8.3z"/><path id="XMLID_23_" class="st1" d="M436.8 290.1s-21.9 2.3-25.3 0c-3.4-2.3-4.4-4.5-1.5-8.3 2.9-3.9 12.6-4.8 16.7-10.7 4.1-5.8 2.9-36.5 2.9-36.5l9.8-7.3 56.2 16.9"/><g id="XMLID_235_"><path id="XMLID_18_" class="st2" d="M510.5 248.2s1.3 70.1-9.9 110c31.7-3.9 69.7-12.7 69.7-12.7s-24.8-74.9-21.9-86.2c2.7-11.1-37.9-11.1-37.9-11.1z"/><path id="XMLID_22_" class="st4" d="M525.4 244.1c5 9.8 9.9 108.5 9.9 108.5"/></g><path id="XMLID_2_" class="st2" d="M429.5 234.5s-2.5-23.8 9.2-33.2c11.7-9.2 109.1 23.8 109.1 23.8s27.3 51.1 4.8 42.4c-22.4-8.6-123.1-33-123.1-33z"/><path id="XMLID_5_" class="st5" d="M507.9 139.1s11.7-11.7 11.7-18-1.5-5.1-2.9-10.1c-1.5-5 2.3-6.6 1-9.8-1.5-3.2-4.8-4.8-3.2-10.7 1.8-5.8 5.1-3.9 9.1-7.7 3.9-3.9-1.9-4.5 3.9-11.2s23.8-2.5 25.9 1.9c2 4.4 2.5 3.9 4.4 7.7 1.9 3.9 4.4 1 8.3 6.3 3.9 5.4-2.8 7.7-1.5 14.2s5.8 1.9 6.3 8.3c.4 6.3-3.9 3.9-3.9 8.8 0 4.8 7.3.4 8.8 14.2 1.5 13.7 6.3 13.1 6.3 13.1L566 162.2l-24.4 7.3-31-12.9-2.7-17.5z"/><path id="XMLID_6_" class="st5" d="M566.8 154.1c0-1.9 0-8.8 2.5-16.1 2.5-7.3 9.8-3.9 11.2-8.3 1.5-4.4 8.3-7.3 7.7-11.2-.4-3.8-7.3-8-11.7-9.1-4.4-1-2.5-14.2 0-19.6 2.5-5.4 3.9-4.1 7.7-7.3 3.8-3.2 3.9-14.6 13.6-14.6 9.8 0 8.9 9.6 12.1 10.2 3.2.7 7.7-.4 14.2 5.8 6.3 6.3.1 11.1 1.5 13.6 1.3 2.5 6.3 6.9 6.3 15.6s-6.9 5.4-8.3 11.7c-1.5 6.3 4.8 9.2 1.5 14.6-3.4 5.4-7.3 3.9-11.2 7.7-3.9 3.9.4 6.6-3.9 10.7-4.4 4.1-5.8-3.1-9.2 2.8-3.4 5.8.7 6.4-3.7 9.3s-5.1-.4-11 4.4-4.4 12.1-4.4 12.1H558l-1.5-15.3 10.3-17z"/><path id="XMLID_11_" class="st4" d="m430.3 217.1 90.7 20.3"/><path id="XMLID_25_" class="st4" d="M252.7 335.4c5.8-1.8 14.6-5.8 8.8-13.1s-23.4 0-23.4 0"/><path id="XMLID_27_" class="st4" d="M274.2 314.4c-4.8 4.5-12.7 7.7-12.7 7.7"/><path id="XMLID_34_" class="st4" d="M468.9 384.5s-2.8 35.5-20 41.9c-17.2 6.3-84.1 8.8-84.1 8.8"/><g id="XMLID_38_"><path id="XMLID_39_" class="st2" d="M461.4 413.1c-6.7-6.6-15-16.2-18.4-26.6-6.3-19.1 6.3-41.6 6.3-41.6s-29.7 7.6-32.1 42.1c-1.5 20.2 4.7 34.9 10.1 43.7 9.2-1.2 17.1-2.5 21.5-4.2 5.6-2.1 9.7-7.4 12.6-13.4z"/></g><path id="XMLID_172_" class="st5" d="M217.2 141c9.6-15.6 51.3 19 51.3 19l13.4-32.6-3.4-30.7s-1.8-25.9-23.5-38.4c-21.8-12.7-47.6-10.8-67.6 5.3-18.6 14.9-45.9 66.5-47.8 182.6l75.5-3.1c-2-34-4.6-91.3 2.1-102.1z"/><path id="XMLID_45_" class="st4" d="M422.2 303.1h12.4"/><circle id="XMLID_44_" class="st3" cx="482.3" cy="300.9" r="14.9"/><path id="XMLID_46_" class="st3" d="M439.2 268.7c17.4 17.5 36.4 2.3 36.4 2.3s-19.1-17.4-36.4-2.3z"/><circle id="XMLID_47_" class="st4" cx="457.2" cy="270" r="6.9"/><path id="XMLID_100_" class="st5" d="m224.2 427.1 53.9-6.7s-19-35.8-36.1-44.5-37-9.6-49.7-4.2-30.7 24-38 101.2c-4.5 48.1-5.3 88.5-5.3 112.3l68.4-.4c-.2-45.9.3-145.7 6.8-157.7z"/><g id="XMLID_49_"><path id="XMLID_51_" class="st3" d="m174.9 585.3-.8 23.1h23.4l.7-23.2z"/><path id="XMLID_105_" class="st3" d="m160.3 585.5-.8 22.9h14.6l.8-23.1z"/><path id="XMLID_106_" class="st3" d="M149.2 585.5c0 14.6.4 22.9.4 22.9h9.9l.7-23.1-11 .2z"/><path id="XMLID_107_" class="st3" d="m198.2 585.2-.7 23.2h10.2l.8-23.2z"/><path id="XMLID_180_" class="st3" d="M217.5 585.2h-9.1l-.9 23.2h10.1c.1 0-.1-9-.1-23.2z"/></g><path id="XMLID_69_" class="st0" d="M410.9 782.1s-31.7-11.1-35.5-16.4 2-10.5 9.2-9.8c7.2.7 32.6 13.6 32.6 13.6l-6.3 12.6z"/><path id="XMLID_71_" class="st0" d="M524.4 793.2c-7.4 1.8-43.2-6.1-46.3-13.9-3.1-7.7 0-15.9 7.3-15.9s27 19.4 39 18.7c11.8-.8 7.5 9.3 0 11.1z"/><path id="XMLID_75_" class="st4" d="m342.3 785.1 17-1.6"/><path id="XMLID_76_" class="st4" d="m345.8 797.9 13.5-3"/><path id="XMLID_77_" class="st4" d="m459.1 819.3 14.5-6.8"/><path id="XMLID_78_" class="st4" d="m466.7 830.4 12.4-7.3"/><g id="XMLID_234_"><path id="XMLID_4_" class="st3" d="M451.8 167.3s-2.9-29.7-25.3-38.4c41.3-34.6 54.5 14.6 54.9 13.1.4-1.5-6.9-35.1 18.6-30.7 25.3 4.4 14.2 40.9 14.2 40.9s7.3-26.3 24.4-20.4c17.1 5.8 9.8 28.2 9.8 28.2s15.6-20.4 28.2-4.4c12.7 16.1-8.8 25.9-8.8 25.9s21.9-4.8 25.9 10.7c3.8 15.6-7.9 27.3-7.9 27.3s-7.6-24.8-24.2-25.3c-16.7-.4-42.9 12.1-42.9 12.1l-63.8-16.5-3.1-22.5z"/><path id="XMLID_72_" class="st4" d="m460 144.5-2.5 24.8"/><path id="XMLID_79_" class="st4" d="m471.4 151.2.4 40"/><path id="XMLID_80_" class="st4" d="m485.3 153.3-1.5 36.5"/><path id="XMLID_81_" class="st4" d="m498.8 153.3-1.7 36.5"/><path id="XMLID_82_" class="st4" d="m519 165.1-1.9 34.6"/><path id="XMLID_83_" class="st4" d="m531.9 167.3-5 34"/><path id="XMLID_84_" class="st4" d="m548.2 170.7-9.6 30.6"/></g><g id="XMLID_41_"><path id="XMLID_42_" class="st3" d="m148.1 245.9-.4 27.6 8.8-.7.5-27.4z"/><path id="XMLID_173_" class="st3" d="M139.7 246.2c-.1 8.9-.1 18.1 0 27.8l7.9-.6.6-27.6-8.5.4z"/><path id="XMLID_174_" class="st3" d="m157 245.4-.5 27.4 10.2-.6.6-27.2z"/><path id="XMLID_175_" class="st3" d="M217.2 268.7s-.9-10.5-1.9-25.6l-8.5.3.4 25.9 10-.6z"/><path id="XMLID_176_" class="st3" d="m167.3 245-.6 27.2 21.6-1.5-.6-26.4z"/><path id="XMLID_177_" class="st3" d="m206.7 243.5-10.2.5.6 26 10.2-.6z"/><path id="XMLID_178_" class="st3" d="m187.7 244.3.6 26.4 8.8-.7-.6-26z"/></g><path id="XMLID_116_" class="st4" d="m574.1 579.2 1.4 16.6"/><path id="XMLID_117_" class="st4" d="m555.2 579.2.9 17.8"/><path id="XMLID_118_" class="st4" d="m521.5 579.2 1.1 20.6"/><path id="XMLID_119_" class="st4" d="m509.1 580.7.7 19.1"/><path id="XMLID_120_" class="st4" d="m495.6 582.1.3 19.6"/><path id="XMLID_121_" class="st4" d="M469.3 585.3V604"/><path id="XMLID_122_" class="st4" d="m454.7 587.1.8 18.4"/><path id="XMLID_123_" class="st4" d="M440.9 588.1v17.7"/><path id="XMLID_124_" class="st4" d="m410.9 590.2.7 18.1"/><path id="XMLID_125_" class="st4" d="M398.9 591.2v17.2"/><g id="XMLID_60_"><g id="XMLID_237_"><path id="XMLID_239_" class="st2" d="M516.1 443.9c-11 13.3-23.5 24.8-35.5 26.7-2.5.4-5.4.7-8.9 1.2 32 36.5 117 92.3 117 92.3l17.7-60-90.3-60.2z"/></g><path id="XMLID_114_" class="st4" d="m565 531.1 28.1 17.9"/><path id="XMLID_115_" class="st4" d="m575.5 506.9 26.2 14.3"/><path id="XMLID_126_" class="st4" d="m519.7 480.2-1.4 18.2"/><path id="XMLID_127_" class="st4" d="m509.1 486 19 3.4"/><path id="XMLID_128_" class="st4" d="m516.1 457.5-3.4 17.1"/><path id="XMLID_129_" class="st4" d="m505.1 463.4 17.5 5.8"/><path id="XMLID_136_" class="st4" d="m544.4 477-5.8 17.5"/><path id="XMLID_137_" class="st4" d="m533.6 480.2 19.3 10.9"/><path id="XMLID_138_" class="st4" d="m555.7 501.5-4.7 18.1"/><path id="XMLID_139_" class="st4" d="m545.6 505.9 15.9 8.2"/></g><path id="XMLID_140_" class="st4" d="m546.3 554.7 15.2 15.7"/><path id="XMLID_141_" class="st4" d="m548.5 570.4 11.7-13.8"/><path id="XMLID_142_" class="st4" d="m509.8 566.8 16.1-14.5"/><path id="XMLID_143_" class="st4" d="m513.9 552.3 12 16.2"/><path id="XMLID_144_" class="st4" d="m490.8 566.8 12.4-12.1"/><path id="XMLID_145_" class="st4" d="m493 556.6 10.2 11.9"/><path id="XMLID_146_" class="st4" d="m487.6 547.4 13.1-7.3"/><path id="XMLID_147_" class="st4" d="m493 536.4 4.1 12.6"/><path id="XMLID_148_" class="st4" d="m503.2 527.3 18.9 3.8"/><path id="XMLID_149_" class="st4" d="m514.3 521.2-1.7 17.1"/><g id="XMLID_236_"><path id="XMLID_112_" class="st4" d="m414.7 556.6 14.5-15.1"/><path id="XMLID_113_" class="st4" d="m427.7 565.5 13.2-13.2"/><path id="XMLID_130_" class="st4" d="m555.7 421.9-9.4 20.7"/><path id="XMLID_131_" class="st4" d="m542.7 424.4 17.5 12.7"/><path id="XMLID_132_" class="st4" d="m566.9 386.7-5.4 25"/><path id="XMLID_133_" class="st4" d="m555.7 395.7 16.6 7.8"/><path id="XMLID_134_" class="st4" d="m565 375.9 20-7.5"/><path id="XMLID_135_" class="st4" d="m573.5 361.9 4.1 20.8"/><path id="XMLID_150_" class="st4" d="m461.4 515.5 22.5 1"/><path id="XMLID_151_" class="st4" d="m472.7 506.9-3.4 20.4"/><path id="XMLID_152_" class="st4" d="m439.2 528.8 19.9 1.9"/><path id="XMLID_153_" class="st4" d="m449.2 521.2-1.8 18.9"/></g><path id="XMLID_154_" class="st4" d="m427.7 498.4 13.2-12.7"/><path id="XMLID_155_" class="st4" d="m430.6 485.7 8.6 15.4"/><path id="XMLID_156_" class="st4" d="m446 491.8 14.9-5.1"/><path id="XMLID_157_" class="st4" d="m452.8 482.4 1.9 13.1"/><path id="XMLID_158_" class="st4" d="m398.9 495.5 12.7-13.1"/><path id="XMLID_159_" class="st4" d="m401 483.8 10.6 13.2"/><path id="XMLID_160_" class="st4" d="m395.1 521.2 13.6-12.8"/><path id="XMLID_161_" class="st4" d="m398.9 508.4 9.8 14.9"/><path id="XMLID_162_" class="st4" d="m395.1 577 15.8-13.6"/><path id="XMLID_163_" class="st4" d="m398.1 562.5 12.1 16.7"/><path id="XMLID_164_" class="st4" d="m459.1 575.1 13.6-15.6"/><path id="XMLID_165_" class="st4" d="m461.4 560.9 11.3 11.4"/><path id="XMLID_166_" class="st4" d="m425.1 399.5 10.9-13.7"/><path id="XMLID_167_" class="st4" d="m425.1 385.7 14.1 13.8"/><path id="XMLID_168_" class="st4" d="m434.9 407.1 6 14.8"/><path id="XMLID_169_" class="st4" d="m428.4 418.4 17.6-6.7"/><g id="XMLID_200_"><path id="XMLID_50_" class="st5" d="M226.7 430.5s-33.2-40.8-14.6-46c18.6-5.3 42.5 27.2 41 43.8 1.9-30.1 32.6-55.9 44.3-52.1C309.1 380.1 287 435 287 435l-60.3-4.5z"/><g id="XMLID_199_"><path id="XMLID_48_" class="st3" d="M265.3 487.8s-14.5 5.1-21.3 2.9c-6.9-2.2-30.7-62.8-30.7-62.8l60.9-3.4-8.9 63.3z"/><g id="XMLID_198_"><circle id="XMLID_29_" class="st3" cx="317" cy="463.4" r="67.6"/><g id="XMLID_197_"><circle id="XMLID_30_" class="st3" cx="317" cy="463.4" r="51.7"/><path id="XMLID_32_" d="M274.6 463.4s-5.6 9.9-1.9 14.2c3.7 4.1 12 2.9 12 2.9s-11.2 10.7-5.6 16.5 19.7-3.1 19.1-2.3c-.4.7-3.1 11.5 5.4 13.6s13.3-9.6 13.3-9.6 4.8 11.7 13.3 9.6 6-12.9 5.4-13.6c-.4-.7 13.4 8.2 19.1 2.3 5.7-5.8-5.6-16.5-5.6-16.5s8.3 1.2 12-2.9c3.7-4.1-1.9-14.2-1.9-14.2s5.6-9.9 1.9-14.2c-3.7-4.1-12-2.9-12-2.9s11.2-10.7 5.6-16.5c-5.7-5.8-19.7 3.1-19.1 2.3.4-.7 3.1-11.5-5.4-13.6s-13.3 9.6-13.3 9.6-4.8-11.7-13.3-9.6-6 12.9-5.4 13.6c.4.7-13.4-8.2-19.1-2.3s5.6 16.5 5.6 16.5-8.3-1.2-12 2.9c-3.6 4.2 1.9 14.2 1.9 14.2z" style="fill:#fff;stroke:#000;stroke-width:4.3819;stroke-linecap:round;stroke-linejoin:round;stroke-miterlimit:10"/><g id="XMLID_194_"><path id="XMLID_37_" class="st5" d="M326.8 437.5c0-14.2-2.9-26-9.8-26s-9.8 11.8-9.8 26 2.6 25.9 2.6 25.9-2.6 11.7-2.6 25.9 2.9 26 9.8 26 9.8-11.8 9.8-26-2.6-25.9-2.6-25.9 2.6-11.7 2.6-25.9z"/><path id="XMLID_33_" class="st5" d="M291.1 453.6c-14.2 0-26 2.9-26 9.8s11.8 9.8 26 9.8 25.9-2.6 25.9-2.6 11.7 2.6 25.9 2.6 26-2.9 26-9.8-11.8-9.8-26-9.8-25.9 2.6-25.9 2.6-11.7-2.6-25.9-2.6z"/><circle id="XMLID_31_" class="st3" cx="317" cy="463.4" r="10.4"/></g></g></g></g></g><path id="XMLID_52_" class="st4" d="M208 398.2c-22.1 31.8-21 210.2-21 210.2"/><g id="XMLID_202_"><path id="XMLID_28_" class="st1" d="M250.8 354.1s2.9 12.9 7.7 14.3c4.8 1.5 25-3.2 27-8.8 2.2-5.6-3.8-9.8-3.8-9.8l-30.9 4.3z"/><g id="XMLID_201_"><path id="XMLID_26_" class="st1" d="M244 346.2s1.9 12 9.8 13.4c7.7 1.5 30.7-4.4 33.2-11.1s-10.7-9.6-10.7-9.6l-32.3 7.3z"/><path id="XMLID_21_" class="st1" d="M235.2 337.3c.4 7.6.4 11.2 8.8 11.2s34-3.9 36.5-8.3 2.2-12-4.4-10.7c-6.6 1.2-27.8 8.3-40.9 7.8z"/></g></g><path id="XMLID_43_" class="st4" d="M262.9 112.4c-8-15.5-23.8-40.8-41.3-39-25.3 2.5-38 28.8-40.5 70.5-2.5 41.8-2.5 127.1-2.5 127.1"/><g id="XMLID_230_"><path id="XMLID_40_" class="st5" d="M217.2 141s-20.9-47.8 0-52.1 41.3 56.1 41.3 56.1 1.2-66.2 28.5-61c27.5 5.4 8.9 60.9 8.9 60.9L241 156.5 217.2 141z"/><g id="XMLID_211_"><path id="XMLID_35_" class="st3" d="M217.2 141c7.7 58.7 32.1 65.1 32.1 65.1h24.8s26.3-14.5 29.7-68.1l-86.6 3z"/><path id="XMLID_85_" class="st4" d="m228.3 156.5-1.6-15.8"/><path id="XMLID_86_" class="st4" d="m239.4 156.5-1.4-15.8"/><path id="XMLID_87_" class="st4" d="m249.9 156.5-.4-15.8"/><path id="XMLID_88_" class="st4" d="m261 156.5-.2-15.8"/><path id="XMLID_89_" class="st4" d="m272.3 156.5-.7-17.3"/><path id="XMLID_90_" class="st4" d="M283.1 156.5v-17.3"/><path id="XMLID_91_" class="st4" d="M294.2 156.5v-17.3"/><g id="XMLID_63_"><circle id="XMLID_203_" cx="271.6" cy="171.2" r="4.8"/><circle id="XMLID_204_" cx="258.4" cy="165.2" r="4.8"/><circle id="XMLID_210_" cx="260" cy="175.9" r="4.8"/><circle id="XMLID_205_" cx="249.4" cy="174.7" r="4.8"/><circle id="XMLID_206_" cx="238" cy="179.6" r="4.8"/><circle id="XMLID_207_" cx="258.4" cy="187.4" r="4.8"/><circle id="XMLID_208_" cx="270.5" cy="187.4" r="4.8"/><circle id="XMLID_209_" cx="279.7" cy="180.7" r="4.8"/></g></g></g><g id="XMLID_233_"><path id="XMLID_7_" class="st5" d="M429.3 197.5s-2.6-34 0-39.4 34.3 3.9 35.2 9.1c.9 5.1.1 22.2 2 22.8 2.2.6 7.3-18 10.5-20.9 3.2-3.1 30.4 5.4 31.6 8.3 1.2 2.8.1 21.9 2.8 22.6 2.6.7 8.6-15 13-18.4 4.4-3.4 37.2 8.9 37.2 12.7s-.7 16.1-5 25.3l-15.5 3.7-111.8-25.8z"/><path id="XMLID_14_" class="st5" d="M637.3 189.8c1.5.4 18.6-24.4 53-18.1 34.6 6.3 40.9 34.6 49.7 40.5 8.8 5.8 20.4 5 20.4 5s-9.8 10.2-27.3 10.2-34.3-16.1-34.3-16.1-59.3 1.5-59.2 0c0-.6-.3-3.5-.7-7.2-.6-6.4-1.6-14.3-1.6-14.3z"/><path id="XMLID_15_" class="st5" d="M684.6 196.1c21.9 5.4 32.6 39.4 40.9 49.7 8.2 10.2 14.6 8.8 19.6 9.2-3.9 8.8-18.7 13.6-32.4 6.9-13.6-6.9-12.9-32.9-31-38.7-18-6-31.1 0-31.1 0L639.1 204s23.6-13.3 45.5-7.9z"/><path id="XMLID_12_" class="st4" d="M639.8 197.1s20.4-20 47.3-11.7c26.7 8.3 32.1 30.5 49.7 34"/><path id="XMLID_16_" class="st4" d="M645.6 214.9s14.8-13.4 36.1-7c21.3 6.6 32.6 47.3 43.8 50.1"/><g id="XMLID_231_"><path id="XMLID_9_" class="st2" d="M429.3 193.6c-6.1 0-5 10.5.7 11.7 5.7 1.2 111.4 21.8 118.3 25.3-3.9 13.6-2.9 53.6 7.7 58.4 10.7 4.8 55.5-8.3 58.9-12.7 3.4-4.4 1.9-8.8-1.5-17.1s-34.6-20.9-34.6-20.9 7.7-9.8 0-17.1c-7.7-7.3-14.6 5.4-14.6 5.4s5.4-10.7 4.4-15c-1-4.4-6.9-5.8-10.7-4.8-3.9 1-1.9 13.1-6.3 12.1-4.4-.9-116.3-25.3-122.3-25.3z"/><path id="XMLID_10_" class="st4" d="M548.2 230.7c4.1-6.3 16.5 5.8 8.3 28.8"/><path id="XMLID_17_" class="st4" d="M568.2 271c17.5 0 14.6-15.8 14.6-15.8S579 271 598 269.5"/></g><g id="XMLID_232_"><path id="XMLID_13_" class="st2" d="M618.3 207.8c-1.5 9.3 14.6 27.3 20 29.7 5.4 2.5 22.9-4.8 22.9-8.5-11.7-21-20-51-20-51s-21.4 20.4-22.9 29.8z"/><path id="XMLID_19_" class="st3" d="M571.1 245.7c1.9-5.3 47.2-35.5 54.5-34.6 7.3 1 9.8 6 6.9 11.8-2.9 5.8-41.2 33.4-52.1 34.9-10.9 1.5-11.2-6.8-9.3-12.1z"/></g></g><g id="XMLID_62_"><path id="XMLID_66_" class="st3" d="M448.2 763.4s-38.7 1.8-41 6.1c-2.5 4.4 0 31.1 0 31.1l41-12.7v-24.5z"/><path id="XMLID_70_" class="st3" d="m524.4 816.8-6-42.4s26.9-6.9 30.2-4.4 5.4 33.9 5.4 33.9v8.5l-29.6 4.4z"/><g id="XMLID_58_"><path id="XMLID_67_" class="st3" d="M356 805.6c-3.5.7-3.4 11.1 1.5 11.2 4.8.1 88.1-10.7 89.2-14.6 1.3-3.9 5.6-14.9 1.5-14.2-4.1.9-88.9 17-92.2 17.6z"/><path id="XMLID_68_" class="st3" d="M474.9 836.9c-3.1 3.4-.1 13.1 4.2 13.1 4.4 0 81.4-28.2 81.4-33.2s-1.5-11.2-6.3-12.9c-5-1.7-76.2 29.4-79.3 33z"/></g></g></g></svg>