<svg version="1.1" id="Calque_1" xmlns="http://www.w3.org/2000/svg" x="0" y="0" viewBox="0 0 900 900" style="enable-background:new 0 0 900 900" xml:space="preserve"><style>.st0,.st1,.st3,.st4,.st5{fill:#ffce00;stroke:#000;stroke-width:6.6826;stroke-linecap:round;stroke-linejoin:round;stroke-miterlimit:10}.st1,.st3,.st4,.st5{fill:#fff}.st3,.st4,.st5{fill:none}.st4,.st5{fill:#007c7c}.st5{fill:red}.st6{fill:#ff9d00}.st7{fill:#fff}.st10,.st11{fill:none;stroke:#000;stroke-width:8.1146;stroke-linecap:round;stroke-linejoin:round;stroke-miterlimit:10}.st11{fill:#ff9d00;stroke-width:6.6826}.st12{fill:red}</style><path class="st0" d="m721.9 394.2-1.3-4.1s14.6 6.6 23.9-4.6c-4.5-1.8-11.5-4.9-14-8-2.1-2.7-.4-6.8 1.5-9.9-10.5-6.2-23.5-12.4-30.2-13.9-12.4-2.9-29.6-1-43-1.9-13.4-1-125.1-1.9-125.1-1.9l15.3 48.7s88.3-7.6 107.9-12.4c17.2 2.9 27.7 37.2 27.7 37.2l35.3-10.5s18 14.3 28.7 21.9l11.7-15c-12.9-10.4-38.4-25.6-38.4-25.6z"/><path class="st1" d="M730.5 377.4c2.5 3.1 9.4 6.2 14 8 1.2-1.4 2.2-3.1 3.2-5.2.4-2.2-6.7-7.5-15.7-12.8-2 3.3-3.6 7.4-1.5 10zM760.3 419.6l-11.7 15c3 2.1 5.4 3.7 6.6 4.3 5.7 2.9 14.3-5.3 12.4-11.9-.3-1.5-3.2-4.2-7.3-7.4z"/><path class="st0" d="m616.9 391.8-5.3-41.1s-19.6-5.6-23.4-1.8c-3.8 3.8-3.3 11.9.5 17.7 3.8 5.7 32-.5 32-.5l1.9 13.4s-28.6-2.9-31.5 2.9c-2.9 5.7-1 17.2 7.6 18.1 8.6.8 18.2-8.7 18.2-8.7z"/><path d="M656.9 386c14.3 9.5 11.5 27.2 27.7 37.7 16.2 10.5 37.2 2.4 38.7-11 1.4-13.4.5-18.1-1.4-26.7-1.9-8.6-4.8-9.5-9.5-12.4-4.8-2.9-6.7-2.9-10.5 1.9-3.8-4.8-8.6-4.8-12.4 1-3.8-4.8-11.5-2.9-11.5 2.9-1.9 9.5-9.5-17.2-9.5-17.2l-25.8 1.9" style="fill:#ffce00"/><path class="st0" d="M688 408.9s-11.9-20-10-29.6c0-5.7 7.6-7.6 11.5-2.9 3.8-5.7 8.6-5.7 12.4-1 3.8-4.8 5.7-4.8 10.5-1.9s7.6 3.8 9.5 12.4c1.9 8.6 2.9 13.4 1.4 26.7-1.4 13.4-22.4 21.5-38.7 11-16.2-10.5-13.4-28.2-27.7-37.7"/><path class="st3" d="M659 387.6c-.6-.5-1.3-1-2.1-1.5l2.1 1.5z"/><path class="st1" d="M723.1 391.8c-.3-1.8-.7-3.7-1.2-5.7-1.9-8.6-4.8-9.5-9.5-12.4s-6.7-2.9-10.5 1.9c-3.8-4.8-8.6-4.8-12.4 1-3.8-4.8-11.5-2.9-11.5 2.9-.5 2.5 0 5.6.9 9 19-4.4 35.5 0 44.2 3.3z"/><path class="st4" d="M616.9 391.8s33.1-4 40.1-5.7v-34.5c-7-.3-24.5-.7-44.2-.9l4.1 41.1z"/><path class="st3" d="M698 408.9c-2.9-15.3-2.9-21-8.6-32.5M712.3 408.9c-2.9-15.3-4.8-22-10.5-33.4"/><path class="st0" d="M299.9 459.5s12.4 13.4 41.1 17.7c3.3-8.3 6.9-17.8 10.4-27.4L318.6 432l-18.7 27.5z"/><path class="st1" d="m328.3 417.7-9.7 14.3 32.7 17.8c1.8-5.1 3.6-10.3 5.3-15.3l-28.3-16.8z"/><path class="st5" d="m370.6 391.8-16.2-12.4-26 38.3 28.3 16.8c7.7-22.9 13.9-42.7 13.9-42.7z"/><path class="st5" d="M367.2 362.2c-8.1-1-14.8 8.6-12.9 17.2s10.5 17.2 18.1 19.1 19.1-9.5 17.2-16.2-14.3-19.2-22.4-20.1z"/><path class="st6" d="M547.2 715.4c-1-19.1-37.2-35.3-37.2-35.3H370.1s-13.8-7.6-43.4 10.5c-24.8 15.2-27.5 71.8-28.3 97.2H549c-.6-30-1.4-62.7-1.8-72.4z"/><path class="st7" d="M298.4 787.8c-.1 4.9-.2 8.7-.4 10.7-1 12.4-22.9 9.5-22.9 1 0-8.6 1.9-131.7-4.8-165.2-9.5-42-62.1-45.8-72.6-44.9-10.5 1-15.3 10.5-8.6 16.2 6.7 5.7 37.2 4.8 44.9 28.6 7.6 23.9-1.9 156.6 1.9 180.4 3.8 23.9 20 35.3 48.7 35.3 9.6 0 20.8-1.8 30-5.3l-1.3-34.8 236.1-.9c-.1-6.6-.3-13.8-.4-21.2H298.4z"/><path class="st3" d="m535.5 791.3 9.3 23.7M524.5 791.3l9.3 23.7M513.6 791.3l9.3 23.7M502.6 791.3l9.3 23.7M491.6 791.3l9.3 23.7M480.6 791.3l9.3 23.7M469.2 791.3l9.3 23.7M458.2 791.3l9.3 23.7M447.2 791.3l9.3 23.7M436.2 791.3l9.3 23.7M425.3 791.3l9.3 23.7M414.3 791.3l9.3 23.7M402.3 791.3l9.4 23.7M391.4 791.3l9.3 23.7M380.4 791.3l9.3 23.7M369.4 791.3l9.3 23.7M358.4 791.3l9.3 23.7M347.5 791.3l9.3 23.7M509.9 680.1s36.3 16.2 37.2 35.3 2.9 127.9 2.9 127.9H329.5l1-9.5c-6.7 10.5-28.8 16.2-45.8 16.2-28.6 0-44.9-11.5-48.7-35.3-3.8-23.9 5.7-156.6-1.9-180.4-7.6-23.9-38.2-22.9-44.9-28.6-6.7-5.7-1.9-15.3 8.6-16.2 10.5-1 63 2.9 72.6 44.9 6.7 33.4 4.8 156.6 4.8 165.2 0 8.6 22 11.5 22.9-1 1-12.4-1-89.7 28.6-107.9s43.4-10.5 43.4-10.5h139.8z"/><path class="st5" d="M314.6 844.7c7.1-2.7 12.9-6.3 15.8-10.9l-1 9.5H550s-.2-14.7-.6-34.3l-236.1.9 1.3 34.8z"/><path d="m250.2 632.4.3.6v-.6h-.3z" style="fill:none"/><path class="st3" d="M250.5 634.7h.9c-.2-.5-.5-1.1-.8-1.7-.1.4-.1 1-.1 1.7z"/><path d="M197.8 589.4c-5.6.5-9.5 3.4-11 6.9 10.9 1.9 30.5 6.2 43 14.1 11 6.9 17.2 16 20.5 22.1h.3v.6c.3.6.6 1.1.8 1.7l18.8-1.1c-10-41.5-62-45.3-72.4-44.3z" style="stroke:#000;stroke-width:6.6826;stroke-linecap:round;stroke-linejoin:round;stroke-miterlimit:10"/><path class="st1" d="M229.7 610.4c-12.5-7.9-32.1-12.2-43-14.1-1.3 3.1-.7 6.6 2.4 9.3 6.7 5.7 37.2 4.8 44.9 28.6l16.2-1.8c-3.2-6-9.5-15-20.5-22z"/><path class="st6" d="M326.6 690.6C297 708.7 299 786 298 798.4c-1 12.4-22.9 9.5-22.9 1 0-6.9 1.2-88.4-1.8-137.2l-23.8.3c-1.6 47.7-4 136.6-.9 149.1 4.3 17.2 15.5 26.1 34.8 27.7 19.3 1.6 32.9-2.1 40.1-17.2 7.2-15 6.4-64.4 15.8-79.5 9.3-15 20.7-10.1 20.7-10.1l10-52.5c.1.1-13.8-7.6-43.4 10.6z"/><path class="st3" d="m250.6 632.4-16.5 1.9c.1.4.3.9.4 1.4l16-.9c.1-1.6.1-2.4.1-2.4z"/><path class="st7" d="M339.3 742.6c-9.3 15-8.6 64.4-15.8 79.5-7.2 15-20.8 18.8-40.1 17.2-19.3-1.6-30.5-10.5-34.8-27.7-3.1-12.5-.7-101.4.9-149.1l-12.6.2c1.3 47.6-3.9 133.3-1 152 3.8 23.9 20 35.3 48.7 35.3 17 0 39.1-5.7 45.8-16.2 0 0 10.5-9.5 13.4-53.5 1.9-25.8 3.8-42 16.2-47.7.1 0-11.4-5-20.7 10z"/><path class="st1" d="M270.3 634.2c0-.2-.1-.4-.1-.7l-19.7 1.1-16 .9c1.4 5.5 2.1 15 2.4 27.1l12.6-.2 23.8-.3c-.7-11.6-1.7-21.4-3-27.9z"/><path class="st3" d="M360.1 732.6c-12.4 5.7-14.3 22-16.2 47.7-2.9 43.9-13.4 53.5-13.4 53.5-6.7 10.5-28.8 16.2-45.8 16.2-28.6 0-44.9-11.5-48.7-35.3-3.8-23.9 5.7-156.6-1.9-180.4-7.6-23.9-38.2-22.9-44.9-28.6-6.7-5.7-1.9-15.3 8.6-16.2 10.5-1 63 2.9 72.6 44.9 6.7 33.4 4.8 156.6 4.8 165.2 0 8.6 22 11.5 22.9-1 1-12.4-1-89.7 28.6-107.9s43.4-10.5 43.4-10.5"/><circle class="st10" cx="261.7" cy="691.5" r="6.7"/><circle class="st10" cx="259.8" cy="731.6" r="6.7"/><circle class="st10" cx="260.8" cy="766" r="6.7"/><circle class="st10" cx="262.7" cy="803.2" r="6.7"/><circle class="st10" cx="296.1" cy="819.5" r="6.7"/><circle class="st10" cx="316.1" cy="794.6" r="6.7"/><circle class="st10" cx="319" cy="760.3" r="6.7"/><circle class="st10" cx="328.5" cy="722.1" r="6.7"/><circle class="st10" cx="363.9" cy="702" r="6.7"/><circle class="st10" cx="404.9" cy="703.9" r="6.7"/><circle class="st10" cx="450.7" cy="706.8" r="6.7"/><circle class="st10" cx="499.4" cy="704.9" r="6.7"/><circle class="st10" cx="522.3" cy="736.4" r="6.7"/><circle class="st10" cx="469.8" cy="735.4" r="6.7"/><circle class="st10" cx="429.7" cy="735.4" r="6.7"/><circle class="st10" cx="388.7" cy="733.5" r="6.7"/><circle class="st10" cx="365.8" cy="768.9" r="6.7"/><circle class="st10" cx="404.9" cy="769.8" r="6.7"/><circle class="st10" cx="448.8" cy="771.7" r="6.7"/><circle class="st10" cx="493.7" cy="771.7" r="6.7"/><circle class="st10" cx="531.9" cy="770.8" r="6.7"/><path class="st0" d="M611.1 724s9.5 18.1 15.3 18.1c5.7 0 10.5-2.9 8.6-9.5 5.2 0 11.5-6.7 9.5-13.4 6.7-3.8 9.5-11.5 7.6-15.3 3.8-5.7 3.8-11.5-1-12.4 5.7-11.5-1.9-17.2-1.9-17.2l-18.1-4.8-13.4 13.4-6.6 41.1z"/><path class="st3" d="m651.2 691.5-19.1-.9M652.2 703.9l-20.1-1.9M644.5 719.2l-17.1-6.7M635 732.6l-12.4-13.4"/><path class="st0" d="M546.2 681c-5.7 4.8-7.2 27.2 1.4 32.9 8.6 5.7 25.3-3.3 33.9 1.4 8.6 4.8 31.5 15.3 41.1 10.5 9.5-4.8 21-31.5 12.4-50.6-7.6-5.7-20-3.8-25.8 1.9s-2.9 19.1-11.5 20c-8.6 1-16.2-14.3-26.7-18.1-10.5-3.7-19.1-2.7-24.8 2z"/><path class="st4" d="M327.6 583.7s-4.8 46.3 4.8 63.5c9.5 17.2 19.6 30.1 37.7 32.9s263 3.8 275.4-3.8c23.9-14.3 22-52.5 1-64.9-21-12.4-39.1-11.5-39.1-11.5l-74.5-42-127-11.5-78.3 37.3z"/><circle class="st0" cx="475.6" cy="626.6" r="37.7"/><circle class="st11" cx="475.6" cy="626.6" r="11"/><path class="st1" d="M467 505.4c-35.3-1.4-61.1 27.7-86.9 42-18.2 10.1-49.1 22.6-65.8 21.3-2.1 7.1-4.1 13.7-5.8 19.8 16.2 2.9 71.6 1 103.1-23.9 20-15.7 75.5-11.6 120.1-7.1l-2.7-13.9s-15.2-36.3-62-38.2z"/><path class="st1" d="M471.7 492.5c-48.7-3.8-59.2 39.1-93.6 50.6-22 7.4-45.2 9-59 9.3-1.7 5.6-3.4 11.1-4.9 16.3 16.7 1.3 46-4.8 65.8-10.8 31.5-9.5 51.6-53.9 86.9-52.5 46.8 1.9 62.1 38.2 62.1 38.2l2.7 13.9c5.7.6 11.2 1.1 16.4 1.7l-1.9-9.9s-25.8-53-74.5-56.8z"/><path class="st1" d="M504.2 489.1c-26.7-10.5-52.5-9.5-66.8-2.9-14.3 6.7-44.9 39.1-64.9 46.8-13.4 5.1-35.8 6-49.2 5.9-1.4 4.5-2.8 9-4.1 13.3 13.8-.2 37-1.9 59-9.3 34.4-11.5 44.9-54.4 93.6-50.6s74.5 56.8 74.5 56.8l1.9 9.9c8.6.9 16.4 1.7 23.1 2.1-14.5-20.4-46.9-64-67.1-72z"/><path class="st5" d="M589.2 561.7c-2.9-27.7-34.4-198.6-52.5-219.6s-139.4 21-139.4 21l-26.7 28.6s-26.9 81.2-47.3 147.2c13.4 0 35.8-.8 49.2-5.9 20-7.6 50.6-40.1 64.9-46.8 14.3-6.7 40.1-7.6 66.8 2.9 20.2 8 52.6 51.6 67 72.2 7.8.6 14 .9 18 .4z"/><path class="st3" d="M320.9 588.4v-10.5M335.2 588.4l-1.9-10.5M349.6 586.5l-2.9-10.5M363.9 583.7l-2.9-10.5M377.2 580.8l-3.8-9.6M389.6 573.2l-4.7-7.7M403.5 566.5l-6.7-7.7M413.5 558.8l-6.7-7.6M425.9 550.2l-6.7-10.5M436.4 541.6l-7.6-11.4M447.4 535.4l-6.7-14.3M504.2 534l1.9-7.6"/><path class="st0" d="M599.7 547.7c-1 1.1-2 2.3-2.9 3.6-6.7-7.6-37.2-3.3-62.1-7.2-24.8-3.8-35.3-16.7-57.3-16.7s-65.9 37.2-65.9 37.2c7.6 2.9 71.6 4.8 84 5.7s29.6 1 43 3.8c13.4 2.9 51.6 25.8 68.7 25.8 11.9 0 23.1-5.9 29.9-11.5-5-9.2-17-27.6-37.4-40.7z"/><path class="st1" d="M637.9 568.4c1.9-6.7-2.9-8.6-8.6-10.5 0-5.7-7.6-10.5-14.3-6.7 0-6.7-4.3-11.5-8.1-9.5-2.6 1.3-5 3.5-7.2 6 20.4 13.1 32.5 31.6 37.6 40.8 3.1-2.5 5.3-4.9 6.3-6.6 3.4-5.9 0-8.7-5.7-13.5z"/><path class="st3" d="M495.9 561.6c3.8.6 6.3 1.1 6.3 1.1l1.9-16.2s-2.5.3-6.2.5l-2 14.6z"/><path class="st0" d="M469.8 560.3c-5.7 4.8-3.3 13.8 3.3 15.8 6.7 1.9 21.5-5.8 21.5-5.8l3.8-11.4c-8.2-1.3-24.6-1.9-28.6 1.4zM477.5 527.3c-1.1 0-2.1.1-3.2.2-3.2 3.9-4.3 13 .4 16.9 3.9 3.2 16 3 23.4 2.4l2.1-14.7c-6.8-2.6-13.8-4.8-22.7-4.8z"/><path class="st4" d="m500.2 532.2-5.5 38h.9c11.5.9 27 1 39.8 3.2l2.7-29c-1.1-.1-2.2-.3-3.4-.5-14.7-2.1-24.4-7.6-34.5-11.7z"/><path class="st3" d="M614.9 551.2c6.7-3.8-6.7 12.4-18.1 14.3M629.3 557.9c6.7-3.8-15.3 16.2-26.7 18.1M637.9 568.4c-5.2 5.7-14.3 18.1-25.8 20"/><path class="st0" d="M534.8 544c24.8 3.8 55.4-.5 62.1 7.2 2.9-3.8 4.8 11.5 0 14.3s-35.3-3.8-35.3-3.8"/><path class="st1" d="M596.8 551.2c-2-2.3-6.2-3.5-11.6-4.2l-2.1 18.5c6.3.8 11.9 1.1 13.8 0 4.7-2.9 2.8-18.1-.1-14.3zM273.3 662.2c-.1-2.6-.3-5.1-.5-7.4h-.3l.8 7.4zM270.3 634.2l1 8.7h.4c-.4-3.3-.9-6.2-1.4-8.7zM234.4 635.7l.7 8h.6c-.3-3.2-.8-6-1.3-8zM236.9 662.7c-.1-2.9-.2-5.7-.3-8.3h-.4l.7 8.3z"/><path d="M235.8 643.6c.3 3.2.6 6.8.8 10.8l35.9.3-1.2-11.8-35.5.7z"/><path d="m271.3 643 1.2 11.8h.3c-.3-4.3-.7-8.3-1.1-11.8h-.4zM235.2 643.7l1 10.8h.4c-.2-4-.5-7.6-.8-10.8h-.6z"/><path class="st3" d="m457.4 529.2-2.8-12.4M467 526.4l.9-12.4M476.5 525.9l2.9-10M488.9 527.3l2.9-7.1"/><circle class="st0" cx="369.1" cy="416.1" r="15.8"/><circle class="st0" cx="398.2" cy="457.6" r="15.8"/><circle class="st0" cx="453.6" cy="470" r="15.8"/><circle class="st0" cx="508" cy="454.8" r="15.8"/><circle class="st0" cx="548.1" cy="407" r="15.8"/><circle class="st0" cx="543.3" cy="336.4" r="15.8"/><path class="st4" d="M376.8 398.4c1.4 22 32 67.8 92.1 54.4 60.1-13.4 73.5-50.6 64.9-103.1-4.8-22-24.8-43.9-24.8-43.9l-91.6 33.4c-.1.1-42.1 37.3-40.6 59.2z"/><path class="st0" d="M391.6 171.2c37.2 6.7 42 20.5 50.6 21.5s49.6-3.3 57.3-1.4l-1 35.3s12.4-3.3 14.3-.5c1.9 2.9 2.9 7.2 1 11s-24.3 17.2-28.2 23.9c-3.8 6.7-1.9 11.7 4.8 11.7 6.7 0 21.5-20.8 25.3-21.7s8.6 1.4 9.5 6.2c1 4.8-4.8 10.5-4.8 10.5S540 273.4 540 282c0 8.6-1 16.7-8.6 21.5-7.6 4.8-68.3 28.2-81.6 39.6s-81.1-24.8-81.1-24.8L340 258.1l31.5-77.3 20.1-9.6z"/><path class="st0" d="M391.6 171.2c37.2 6.7 42 20.5 50.6 21.5s49.6-3.3 57.3-1.4c7.6 1.9 14.3 9.1 12.4 13.8-1.9 4.8-8.6 21.5-21 25.3-12.4 3.8-12.4-13.4-12.4-13.4"/><path class="st1" d="M493.6 253.2c-3.7 2.9-6.8 5.7-8 7.8-3.8 6.7-1.4 12.8 4.8 16 6.2 3.2 11.9.2 12.9-6.4.9-6.8-4.8-12.5-9.7-17.4z"/><path class="st12" d="M405.4 253.3c6.2 2.9 10-3.8 15.8-4.8 1.7-.3 4.1-1.1 6.7-2.4l-16.5-9.1c-3.7 9-6 16.3-6 16.3z"/><path class="st7" d="M430.2 207.5c-6.6 2.2-13.9 17.3-18.9 29.6l16.6 9.1c6.3-3.1 14.3-8.8 17.7-16.2 4.7-10.5-3.9-26.3-15.4-22.5z"/><path class="st3" d="M405.4 253.3s13.4-42 24.8-45.8 20 11.9 15.3 22.4c-4.8 10.5-18.6 17.7-24.3 18.6-5.8 1-9.6 7.7-15.8 4.8z"/><circle class="st1" cx="424.5" cy="227.1" r="6.2"/><path d="M359.1 277.2c2.9-52.5 42-108.8 42-108.8s-28.6-16.2-52.5-13.4c-23.9 2.9-46.8 41.1-46.8 41.1l-21 22s-7.6 28.2 3.8 66.3 87.8 71.1 87.8 71.1l53.5 22.9s10.5 18.1 10.5 43c0 24.8-6.7 42-7.6 49.6-1 7.6 19.1 6.7 22.9-4.8 3.8-11.5 9.5-25.8 10.5-51.6S445 368.8 445 368.8s23.9 20 28.6 40.1c4.8 20 3.3 47.7 6.2 55.4 2.9 7.6 21 10.5 21-10.5s2.4-43.9-4.3-65.9c-6.7-22-47.7-51.6-47.7-51.6l-48.7-25.8c0 .1-29.5-23.7-41-33.3z" style="fill:#707070;stroke:#000;stroke-width:6.6826;stroke-linecap:round;stroke-linejoin:round;stroke-miterlimit:10"/><path class="st3" d="M289.4 272.7c13.4 16.9 90.7 64.7 90.7 64.7M301.2 240.6c23.7 25.6 93.2 76.7 93.2 76.7"/><path class="st5" d="M384.9 159.8c-10.5-11.5-36.3-4.8-36.3-4.8s-20.3 52.5-36.4 96.5c7.6 7 16.9 14.9 26.4 22.7 15.8-41.9 36.4-95.2 46.3-114.4zM300.9 283.5c-2.6 7.7-4.8 14.3-6.1 19 6.6 8.3 15.5 16 24.9 22.9 1.7-4.5 4.5-12.3 8.1-22.1-10-7-19.6-13.9-26.9-19.8z"/><path class="st0" d="M344.8 138.8s-2.9 24.8 16.2 30.5 32.5-1 26.7-16.2c-4.8-12.4-13.4-21-13.4-21l-29.5 6.7z"/><path class="st3" d="M293.2 261.9c27.7 29.6 88.8 65.9 88.8 65.9M298 250.5c22.9 30.5 90.7 72.6 90.7 72.6"/><path class="st12" d="m363.9 90.1 19.1 18.1s6.7-3.1 12.2-7.1l-21.3-22.5c-5.1 5.3-10 11.5-10 11.5z"/><path class="st7" d="M402.1 91.1c-1.9-7.6-11.5-8.6-11.5-8.6S387.7 72 383 72c-2 0-5.6 3.1-9.1 6.7l21.3 22.5c4.2-3.1 7.7-6.8 6.9-10.1z"/><path class="st3" d="M383 108.2s21-9.5 19.1-17.2-11.5-8.6-11.5-8.6S387.7 72 383 72c-4.8 0-19.1 18.1-19.1 18.1l19.1 18.1z"/><path class="st3" d="m383 108.2-9.6-10.5 17.2-15.2"/><path class="st0" d="M361 140.7c0 9.5 8.6 21 19.1 18.1 16.2-5.7 19.1-23.9 26.7-31.5 0 8.6.5 12.9 9.1 12.9 13.4 0 17-7.6 17.7-16.2 1-12.4-8.6-16.7-20-18.6s-19.1 11.5-19.1 11.5L363 81.6s12.9-10 8.1-19.6c-4.8-9.5-11.9-13.4-21.5-11.5-9.5 1.9-16.7 11.9-16.7 27.2s28.1 53.4 28.1 63z"/><path class="st3" d="M406.8 127.3c0-6.7 9.1-10 12.9-4.3M362.9 81.5c-7.6 3.8-19.1-10.5-7.6-17.2"/><path class="st11" d="M336.2 137.8s-32.5 4.8-43.9 2.9c-11.5-1.9-10.5-21-2.9-24.8-6.7-7.6-1.9-24.8 8.6-28.6-1.9-11.5 10.5-26.7 20-23.9 9.5 2.9 27.7 32.5 27.7 32.5l-9.5 41.9z"/><path class="st3" d="m313.3 118.7-23.9-2.8M320 96.8l-22-9.6"/><ellipse class="st4" cx="345.7" cy="120.6" rx="21.5" ry="24.8"/><circle class="st7" cx="357.7" cy="119.7" r="16.7"/><path class="st12" d="M372.7 127c-4.1 8.3-14.1 11.7-22.3 7.7-8.3-4.1-11.7-14.1-7.7-22.3l30 14.6z"/><circle class="st1" cx="357.7" cy="119.7" r="5.9"/><circle class="st3" cx="357.7" cy="119.7" r="16.7"/><path class="st11" d="M186.3 351.7s-51.1 101.2-53.9 112.6 13.8 15.3 20.5 5.7c6.7-9.5 64.9-128.9 64.9-128.9l6.7-52.5-11.5 6.7-26.7 56.4z"/><path class="st11" d="M207.3 333.5s-23.9 141.8-23.9 149.4c0 7.6 18.1 6.7 18.1 2.9s39.1-189.5 39.1-189.5l-16.2-21-11.5 20-5.6 38.2z"/><path class="st11" d="M235.5 296.3s-.5 178.5 2.9 186.2c3.3 7.6 22.4 6.2 21.5-2.4S258 297.3 258 297.3l-22.5-1zM220.7 289.6s-7.6 52.5-18.1 63c-10.5 10.5-33.9 7.6-39.6-8.6-5.7-16.2-.5-29.6 12.9-33.4 13.4-3.8 21 7.6 21 7.6s5.7-28.6 9.5-34.8c3.8-6.2 14.3 6.2 14.3 6.2z"/><path class="st3" d="M177.2 324.9c-5.3 16.2 16.7 22 19.6-6.7"/><path class="st0" d="M282.2 246.7s2.4 52.5-2.4 59.2c-4.8 6.7-18.1 7.6-21-2.9-6.7 6.7-23.9 4.8-25.8-6.7-7.6 7.6-23.4-2.9-23.4-11.5-7.6 0-20.5-5.7-15.8-18.1s26.7-30.5 36.3-36.3c9.7-5.7 52.1 16.3 52.1 16.3z"/><path class="st3" d="m209.7 284.8 28.2-42M233.1 296.3l18.1-46.8M258.9 303l7.6-52.5"/><path class="st4" d="M289.4 220.9s9.1 24.3-7.2 32.9c-16.2 8.6-52.5-3.8-57.3-21s9.1-26.3 19.6-24.3c10.5 1.9 44.9 12.4 44.9 12.4z"/><circle class="st5" cx="271.7" cy="201.3" r="30.1"/><path class="st3" d="M429.7 370.8s17.2 11.5 18.1 42-4.8 51.6-4.8 51.6M446 352.6s21 11.5 34.4 36.3c13.4 24.8 11.9 65.9 11.9 65.9"/><circle class="st4" cx="411.1" cy="346.4" r="39.6"/></svg>