<svg version="1.1" id="Calque_1" xmlns="http://www.w3.org/2000/svg" x="0" y="0" viewBox="0 0 900 900" style="enable-background:new 0 0 900 900" xml:space="preserve"><style>.st0,.st1,.st2,.st3,.st4,.st5,.st6,.st7,.st8,.st9{fill:#fff;stroke:#000;stroke-width:2.8563;stroke-linecap:round;stroke-linejoin:round}.st1,.st2,.st3,.st4,.st5,.st6,.st7,.st8,.st9{fill:none}.st2,.st3,.st4,.st5,.st6,.st7,.st8,.st9{fill:#2d2d2d}.st3,.st4,.st5,.st6,.st7,.st8,.st9{fill:#ffce00}.st4,.st5,.st6,.st7,.st8,.st9{fill:#f79c0f}.st5,.st6,.st7,.st8,.st9{fill:#fdce12}.st6,.st7,.st8,.st9{fill:#f39b14}.st7,.st8,.st9{fill:red}.st8,.st9{fill:#00f}.st9{fill:#ff9d00}.st10{fill:#fff}.st11{fill:red}.st12{stroke:#000;stroke-width:2.8563;stroke-linecap:round;stroke-linejoin:round}</style><path class="st0" d="M138.4 455.7c0-2.9 8.6-47.1 8.6-47.1l41.4-21.9-7.1 72.8-44.3-3.3"/><path d="m153.4 456.7 5.7-45 18.8-23.2-10.9 70z"/><path class="st1" d="m145.5 454.9 6.5-35.4M173.7 458.8l6.1-44.6"/><path class="st0" d="M117 568.1s-3.3 10-2.9 11.9c.4 1.9 12.9 7.6 15.7 6.1 2.9-1.4 3.3-12.4 3.3-12.4l-16.1-5.6z"/><path class="st1" d="m117 581.6 2.1-6.4M121.5 582.8l1.2-6.2M125.8 584.8l1-7"/><path class="st0" d="M162.2 573.8s2.9 9.6 2.4 11.4c-.4 1.9-16.1 4.3-16.7 1.9-.4-2.4.4-11.9.4-11.9l13.9-1.4z"/><path class="st0" d="M148.4 575.2s.4 9.6-.4 11.9c-1 2.4-17.6.4-18.1-1s1.9-12.9 1.9-12.9l16.6 2z"/><path class="st1" d="m134.4 587.1 1.4-7.2M139.4 587.8l.7-6.9M144.1 587.6l-.1-6.4M152 587.6v-6.3M156.5 587.1l-1-6.5M161.2 585.5l-1.4-5"/><path class="st0" d="M116.5 579.1s-11.4 37.6-5.3 39.6c6.1 1.9 18.6-34.3 18.6-34.3l-13.3-5.3z"/><path class="st1" d="m114.7 616.6 9.4-31.1M109.8 615.9l10.6-33.6"/><path class="st0" d="M147 586.2s-3.9 36.1-10 36.7c-6.1.4-6.1-37.7-6.1-37.7l16.1 1z"/><path class="st1" d="m134.7 619.5 1.8-33.3M139 621.3l2.8-33.2"/><path class="st0" d="M161.8 586.6s1 31.8-3.9 33.8-10-33.3-10-33.3l13.9-.5z"/><path class="st1" d="m155.5 617.8-2.8-30.7M160.1 616.6l-3.3-30.7"/><path class="st0" d="M203.4 523.8s8.4 38.1 5.1 42.6c-3.3 4.4-16-17-18.1-25.4-2.1-8.6 5.7-24.4 5.7-24.4l7.3 7.2z"/><path class="st1" d="m209.1 561.3-10.2-25.1M204.1 564.2l-9.3-25.1"/><path class="st0" d="M93.3 517.6s-20 36.7-18.1 42.4c1.9 5.7 21-12.4 25.7-20.4 4.7-8.1 1.9-27.1 1.9-27.1l-9.5 5.1z"/><path class="st1" d="M76.3 554.5 97 522.4M77.5 560.5l22.9-31"/><path class="st0" d="M98 507.6s-13.3 65.3 45.7 67.6c59 2.3 50.4-55.7 50.4-55.7l-84.3-25.3L98 507.6z"/><path class="st2" d="M119.4 508.5s-11 49.6 23.9 51c34.8 1.4 29-42.4 29-42.4l-28.6-15.7-24.3 7.1z"/><path class="st1" d="M113.3 504.8s-16.1 57.6 28.1 61c44.3 3.3 38.6-48.1 38.6-48.1"/><path class="st1" d="M127.5 511.4s-8.1 39 16.7 39.6c24.8.6 21.9-34.3 21.9-34.3"/><path class="st0" d="M133.2 511.9s-5.7 30 11 31.4 15.7-27.6 15.7-27.6l-26.7-3.8z"/><path class="st1" d="m98 534.8 5.3-3.6M100.4 542.4l3.6-3.6M103 549.9l2.8-3.6M106.8 556.2l2.2-2.7M111.3 562.3l2-3.5M117.7 567.3l1.4-3.8M124.8 571.2l.3-3.9M130.5 573.3l-.1-3.4M136.8 574.2l-.6-3.3M143 575.2l-.3-3.9M149.8 574.9l-.1-4M157.2 574.2l-1.1-3.7M163 572.6l-1.8-4.1M168.4 570.6l-1.6-3.7M174.1 567.8l-2.1-4M179.8 563.5l-3-3.6M184.1 558.3l-3.3-2.7M187.9 552.1l-4-2.3M191.8 543.8l-5-1.7M193.7 535.9l-6.5-.7M194.1 527.8l-6.9-.4"/><circle class="st0" cx="96.1" cy="512.8" r="11.9"/><path class="st1" d="m85.4 515.9 6.4-6.1M89.8 522.1l3.9-8.3M97.5 523.8l.8-8.9M103.4 520.5l-.4-6.3"/><circle class="st0" cx="195.5" cy="527.6" r="11.9"/><path class="st1" d="m205.1 532.8-4.7-6.2M200.4 537.6l-3.6-8.5M193.4 538.5l-.5-8.7M188.2 536.2l.5-7.7"/><path class="st3" d="M609.7 251s16.1 12.1 17.4 18.1c1.3 6-3.9 14.7-13.6 15s-14.6-10.4-11.4-13.6c3.1-3.1 10.4 4.6 12.4 2.4 2.9-2.9-11.9-16.1-20.3-20.4-8.4-4.2 15.5-1.5 15.5-1.5zM539.3 542.8l-2.5-37.6-34.2-2.1-6.2 31.8 12.9 12.9z"/><path class="st4" d="M687.1 522.1s26.8 34.3 30.4 39.6c3.6 5.3 7.4 12.4 3.9 15-3.6 2.6-9.3-3.1-13.1-7.9s-32.1-43.3-32.1-43.3l10.9-3.4zM721.8 483.8s32.6 29.1 37.1 33.6c4.6 4.4 9.9 10.6 6.9 13.9-3 3.3-9.7-1.1-14.4-5-4.7-3.9-40.4-35.7-40.4-35.7l10.8-6.8z"/><path class="st1" d="m755.9 522.4-38.4-36.7"/><path class="st4" d="M668.9 531.4s21.4 39.7 24.7 46.4 9.1 14.3 13.9 11.4c3.6-2.1-.3-12.4-4.3-18.9-3.1-5.1-24.6-46-24.6-46l-9.7 7.1z"/><path class="st1" d="m699.2 574.9-25-47.5M713.5 565.9l-33.3-44.3"/><path class="st4" d="M715.5 488.8s29.8 31.8 33.8 36.7c4 4.9 8.4 11.7 5.1 14.6s-9.6-2.3-13.7-6.7-35.8-40.3-35.8-40.3l10.6-4.3z"/><path class="st1" d="m745.6 530.1-37.1-41.2"/><path class="st4" d="M729.2 476.5s35.4 25.3 40.4 29.3c4.9 4 10.6 9.9 7.9 13.3-2.7 3.6-9.7-.3-14.7-3.9-5-3.4-43-32.6-43-32.6l9.4-6.1z"/><path class="st1" d="m766.9 511.1-44.5-33.2"/><path class="st4" d="M697.5 516.6s26.8 27.6 30.7 31.4 9.6 10.4 5.7 13.9c-3.9 3.3-11.4-3.3-13.6-5.3-2.1-1.9-33.3-34.6-33.3-34.6l3.1-6.1 7.4.7z"/><path class="st1" d="m725.9 553.1-39.2-37.6"/><path class="st5" d="M693.8 577.8c3.3 6.7 9.1 14.3 13.9 11.4 3.6-2.1-.3-12.4-4.3-18.9l-9.6 7.5zM717.5 561.6c3.6 5.3 7.4 12.4 3.9 15-3.6 2.6-9.3-3.1-13.1-7.9l9.2-7.1zM749.2 525.5c4 4.9 8.4 11.7 5.1 14.6s-9.6-2.3-13.7-6.7l8.6-7.9zM758.9 517.4c4.6 4.4 9.9 10.6 6.9 13.9-3 3.3-9.7-1.1-14.4-5l7.5-8.9zM769.5 505.8c4.9 4 10.6 9.9 7.9 13.3-2.7 3.6-9.7-.3-14.7-3.9l6.8-9.4zM728.2 548.1c3.9 3.9 9.6 10.4 5.7 13.9-3.9 3.3-11.4-3.3-13.6-5.3l7.9-8.6zM599.7 408.5l-3.3-16.1s13.9-22.1 23.1-1.9c13.6 36.1 81.1 124.5 81.1 124.5l-35.7 20.4-52.1-97.4-13.1-29.5z"/><path class="st4" d="m599.7 408.5-3.3-16.1s13.9-22.1 23.1-1.9c6.3 17 24.6 45.3 42.1 70.7l-26.8 17.9-22-41-13.1-29.6z"/><path class="st5" d="m629.7 384.5 101.9 94-22.1 23.1-89.8-94.6 5.3-22z"/><path class="st6" d="m629.7 384.5 50.5 46.6-19 19.7-41.5-43.8 5.3-22z"/><path class="st1" d="m674.5 436.4-50.7-48.7M666.8 443.8l-48-50.3M654.7 465.2l-40-61M647.5 470.2l-40.1-64.7"/><path class="st0" d="M673.8 478.5c4.1 5.9 8.1 11.3 11.6 16l-32 19.3-10.1-19c-.1 0 26.9-11.7 30.5-16.3z"/><path class="st2" d="M681.1 488.7c3 4.1 5.9 8 8.3 11.3l-33.8 17.9-5.1-9.7 30.6-19.5z"/><path class="st0" d="m661.2 501.4 8-5s6.1 6.9 0 9.9c-6.1 2.9-8-4.9-8-4.9z"/><path class="st7" d="m646.2 500.5-5.7-10.7 28.3-18.4c2.9 4 5.6 7.7 8.1 11.4l-30.7 17.7zM682.2 472.9l-10.7-11.4 20.2-19.8 11 10.1z"/><path class="st2" d="m698.8 490.4-10.3-10.9 20.9-21.6 11.5 10.9z"/><path class="st0" d="M704.9 476.2c-5.3 4.7-9.7-3.6-9.7-3.6l6.9-7c-.2.1 8.1 5.8 2.8 10.6z"/><path class="st3" d="M609.3 554.1c22.9 4 38.1 32.6 38.1 32.6l20 55.3 38.3 45.4-39 1.1-44.6-57.1-19.7-38.4s-16-43.1 6.9-38.9z"/><circle class="st0" cx="708.9" cy="646.6" r="9.6"/><circle class="st1" cx="708.2" cy="646.6" r="3.1"/><path class="st7" d="M657.8 586.3s3.9-.4 6.1.4c2.4 1 46 48.8 46 48.8l-11.7 13.3-37.4-36.1-3-26.4z"/><path class="st4" d="M685.8 636.9 661 612.8l-3.1-26.4s3.9-.4 6.1.4c1.6.6 20.4 20.9 33.4 35.1l-11.6 15z"/><path class="st8" d="M705.5 630.8c2.7 3 4.4 4.9 4.4 4.9L698.2 649l-4.6-4.4 11.9-13.8z"/><path class="st1" d="M659.9 591.6c4.7.4 34 34.7 34 34.7M678.1 629.2l8.6-10.4M674.9 626.3l9-10.8M667.1 618.5l9.6-11.5M664.2 616.3l9.3-12.1"/><circle class="st1" cx="675.7" cy="617.3" r="1.9"/><circle class="st1" cx="685.7" cy="628.8" r="1.9"/><circle class="st1" cx="664.2" cy="604.5" r="1.9"/><circle class="st3" cx="622.1" cy="643" r="10.3"/><circle class="st3" cx="662.5" cy="632.8" r="10.4"/><path class="st7" d="m605.4 634.9 63.1-9.3s-10-38.3-10.7-39.3c-.7-1-50.3 3.9-50.3 3.9l-2.1 44.7z"/><path class="st4" d="M662.8 604.2c-2.4-9-4.7-17.4-5-17.9-.7-1-50.3 3.9-50.3 3.9l-1 20 56.3-6z"/><path class="st1" d="M657.8 604.2s-3.1-8.9-4-9.7c-1-1-45.7 3.1-45.7 3.1M620 608.5l-1.8-11.5M625.2 607.8l-2.1-10.8M638.5 606.6l-2.1-11M643.5 605.5l-2.4-10.3"/><circle class="st1" cx="630.8" cy="601.8" r="2"/><circle class="st1" cx="612.2" cy="603.2" r="2"/><circle class="st1" cx="649.4" cy="600.3" r="2"/><path class="st0" d="m605.8 626.9-.4 8.1 63.1-9.3s-.7-2.9-1.9-7.1l-60.8 8.3z"/><path class="st1" d="m613.1 633.3-1-6.3M619.2 632.3l-1.4-6M626.1 630.6l-1.1-5.7M632.4 629.9l-1.3-5.1M639 629l-.9-5.2M645.2 628.3l-.7-5.3M651.8 627.3l-.8-5.7M656.8 626.3l-.4-5.4M663.2 624.9l-1.4-5"/><path class="st7" d="M701.1 688s42.6-6 44.3-5.3c1.7.7.3 24 .3 24l-45.3-7.4.7-11.3z"/><path class="st4" d="m729.8 704.2-29.3-4.7.7-11.4s16.4-2.3 29.3-3.9l-.7 20z"/><path class="st0" d="M737.8 683.3c4.3-.4 7.1-.7 7.6-.6 1.7.7.3 24 .3 24l-7.9-1.3v-22.1z"/><path class="st1" d="M745.4 687.6h-6.6M744.6 693l-5.4.3M744.9 699l-5.3.2M729.5 692.3l-23.6 1.9"/><circle class="st0" cx="756.3" cy="694" r="11.1"/><circle class="st1" cx="756.8" cy="694.3" r="4"/><path class="st3" d="M704.7 695.9c46.4 5 66.4 25.7 66 27.4-2.4.4-28.8 1.4-28.8 1.4l-41 1.4-3.3-15.4c-.1-.1-39.4-19.8 7.1-14.8z"/><path class="st0" d="M741.8 724.7s27.6-3.9 28.8-1.4c1.1 2.4 4.7 8.3 4 9-.7.7-29-2.6-29-2.6l-3.8-5z"/><path class="st1" d="m768.9 732-2.8-8.6M761.8 730.9l-1.9-7.5M753.9 729.7l-.8-5.5"/><path class="st0" d="M665.7 698.7s-3.1 23.1.3 23.1h41.4s-2.4-20.4-4.7-24.7c-2.5-4.4-37 1.6-37 1.6z"/><path class="st1" d="M665.7 706.6s28.3-1 30 .3c1.7 1.1.7 14.6.7 14.6"/><path class="st0" d="M740.9 722.3c-1.9-.3-73.1-.4-75-.4-1.9 0-3.1 8.9 0 8.9s78.3-.3 79.7-1c1.5-.8-2.8-7.2-4.7-7.5z"/><path class="st1" d="m677.4 730.2-4.6-7.6M683.5 730.2l-3.8-7.9M704.9 730.2l-3.1-8.2M710.4 729.9l-3-8M728.8 729.4l-2-7.4M734.5 729.9l-2.1-7.3"/><path class="st7" d="M665.7 698.7c-5.4.3-6.4-11.4-.7-12.4 3.9-.7 35 0 37.6 1 2.6 1 4 11.1 1.7 11.7-2.4.6-33.2-.6-38.6-.3z"/><circle class="st0" cx="200.9" cy="625.5" r="9.9"/><circle class="st1" cx="199.5" cy="626" r="3.7"/><path class="st7" d="m248.6 568.1-47.7 47.1 11.5 12 44.2-46.4 11.9-9.3-6.6-9z"/><path class="st9" d="m224.5 614.5 32.1-33.7 11.9-9.3-6.6-9-13.3 5.6-35.5 35.1z"/><path class="st0" d="m205.5 610.6-4.6 4.6 11.5 12 4-4.3z"/><path class="st1" d="m216.9 606.3 41.5-41M232.4 606l-6.6-7.2M235.2 603l-6.1-7.7M245.2 592.3l-6.4-7M248.6 589.9l-6.5-7.8M248.4 575.8l6.7 6.7M251.9 572.3l6.6 7"/><path class="st3" d="M244.4 432.1s79.3 27.1 84.3 26.1 52.8-32.1 52.8-32.1l4.3 47.1s-30.4 24.3-44.3 25.4c-13.9 1.1-102.5-40-102.5-40l5.4-26.5z"/><circle class="st3" cx="368.2" cy="427.8" r="8"/><circle class="st3" cx="372.5" cy="463.5" r="8"/><circle class="st3" cx="375.3" cy="502.1" r="8"/><path class="st3" d="M781.8 269.3s19.3-10.3 20.4-12.6c-3.3 1.4-9.6 1.7-10-5.3-.4-6.9 7.9-10.7 11.7-10.3 13.1 2.9 4 18.3 4 18.3s13.9-6.7 16.7-2.9c2.9 3.9-11.1 13.6-11.1 13.6s11.7.4 11.4 7.4c-.3 6.9-8.9 11.9-14.6 10.7-5.7-1.1-2.4-9.7-2.4-9.7-2.9.3-13.9 7.6-13.9 7.6l-12.2-16.8z"/><path class="st1" d="M815.6 281c1.4-5.3-6-6.4-7.6-2.4M802.3 256.7c3.6-1.4 1-7.6-3.3-6"/><path class="st7" d="M763.2 291s31-2.6 31-4.7-15-28.1-17.6-28.8c-2.6-.7-22.4 14.3-22.4 14.3l9 19.2z"/><circle class="st8" cx="750.2" cy="284.9" r="16.7"/><path class="st1" d="M745.9 285.7c1.1 7.9-7.4 10.9-7.4 10.9-3-3-4.9-7.1-4.9-11.9 0-2 .4-4 1-5.9-.1.2 10-.9 11.3 6.9z"/><path class="st1" d="M740.6 286.4c1.1 3.9-4.9 6.9-4.9 6.9-1.4-2.4-2.3-5.4-2.3-8.4.1 0 6.1-2.2 7.2 1.5zM758.2 298.9l-7.8-.5M763.8 294.1l-10.3-.5M765.9 288.4h-11.7M766.3 282.1l-11.7.8M763.5 276.4l-10.7 1.7M759.5 271l-10.3 2.9"/><path class="st10" d="M641.7 317.4c9.4-6.6 87.5-42.1 91.4-36 6.7 10.4-11.4 17.9-11.4 17.9s11.4 5.9 13.1 12.1c1.9 6.9-2.4 16.9-8.6 19.6-7.4 3.1-23.6 2.1-19.6-18.1-8.3 1-61.1 21.9-61.1 21.9s-13.3-10.8-3.8-17.4z"/><path class="st11" d="M693.9 292.7c19.6-8 37.3-14.1 39.1-11.3 6.7 10.4-11.4 17.9-11.4 17.9s11.4 5.9 13.1 12.1c1.9 6.9-2.4 16.9-8.6 19.6-7.4 3.1-23.6 2.1-19.6-18.1-.9.1-2.3.4-4.1 1l-8.5-21.2z"/><path class="st1" d="M641.7 317.4c9.4-6.6 87.5-42.1 91.4-36 6.7 10.4-11.4 17.9-11.4 17.9s11.4 5.9 13.1 12.1c1.9 6.9-2.4 16.9-8.6 19.6-7.4 3.1-23.6 2.1-19.6-18.1-8.3 1-61.1 21.9-61.1 21.9s-13.3-10.8-3.8-17.4z"/><path class="st1" d="M714.5 319.6c1 3.6 10.3-3.6 6.1-9.3s-12.1-3.4-14 2.6"/><path class="st0" d="M785.9 288.4c4.7-.7 8.3-1.6 8.3-2.3 0-2.1-15-28.1-17.6-28.8-.9-.3-3.6 1.3-6.9 3.3l16.2 27.8z"/><path class="st1" d="m772.3 265.3 6.5-4.3M775.9 270.7l6.4-4M780.2 277l5.1-3.4M783.5 282.7l6.8-3.6"/><path class="st0" d="M610.4 219.6c23.3 1.9 47.1 18.6 46.1 22.1-1 3.6-23.6 9.7-44.7 10.4s-14.3-5-14.3-5-10.4-29.2 12.9-27.5z"/><path class="st12" d="M625.2 251c-2 .3-4 .4-6.1.7l-1-30.8c2.4.4 4.7 1.1 7 1.9l.1 28.2zM632.2 225c14.1 5.7 24.8 14.3 24.1 16.7-.7 2.4-11.1 6-24.3 8.1l.2-24.8z"/><path class="st1" d="m610.4 226 23.6 4M611.8 235.3l23.9.4M610 244.6l24-1"/><path class="st0" d="M588.5 156.5c13.6-7.6 61.1-17.9 64-13.6 2.9 4.3-20.4 33.6-46.1 41.7s-19.7 1.9-19.7 1.9-11.7-22.6 1.8-30z"/><path class="st12" d="M622.1 177c-2.7 1.7-5.4 3.3-8.3 4.6l-13.6-30c3.1-1 6.7-2.1 10.4-3.1l11.5 28.5zM620 146.2c15.7-3.7 31-5.7 32.6-3.4 1.9 2.7-7.3 16-20.9 27.3L620 146.2z"/><path class="st1" d="m592.5 162.5 33.2-12.5M598.3 170l29.2-13.5M599 179.3l32.4-16.1"/><circle class="st0" cx="372.3" cy="371.8" r="12"/><circle class="st8" cx="373.6" cy="371.7" r="7.6"/><circle class="st1" cx="373.6" cy="371.7" r="3.6"/><path class="st3" d="M189.1 278.6s-8.3-5-7.9-11.1c.4-6.1 1.1-15.7 3.3-14.7s7.1 24.3 7.1 24.3l-2.5 1.5zM211.5 223.2s-1.9-10.4 0-15 7.9-15 9.7-13.3c1.9 1.7 4.7 15.4 3.3 18.6-1.4 3.1-12.6 11.4-12.6 11.4l-.4-1.7zM237.2 230.7c-3.3-1.4-1.1-12.9 1.1-15.7 2.3-2.9 10.7-12.9 12.1-11.4 1.4 1.4.7 14.7 0 18.3-.6 3.5-9.9 10.3-13.2 8.8zM255.1 256.7c-1.1-1.4 0-9.3 3.3-14 3.3-4.7 14.7-13.9 16.1-13.9s-1.9 12.9-3.3 19.6c-1.4 6.7-15 9.7-16.1 8.3zM231.9 313.6c.4-2.1 1.4-6.9 4.7-9.7 3.3-2.9 19.7-10 19.7-7.9 0 2.1-12.1 17.1-14.7 18.6-2.5 1.4-10.1 1.1-9.7-1zM223.4 341c1.4-3.3 9-8.6 14-8.6s16.4-1.4 16.1.4c-.3 1.9-9.3 12.9-15.7 15.4-6.4 2.6-15.9-3.9-14.4-7.2z"/><path class="st4" d="M178.9 358.1s7.3-82.1 10.9-82.5c3.6-.4 5 18.6 6.9 17.6s6.1-54.7 6.1-60 11.1-12.9 10.7-10-3.6 67.1-1.9 67.1 11.9-42.6 13.6-46.8c1.7-4.3 10-15 12.6-11.7 1.1 1.7-14.7 58.1-13.6 60.3 1.1 2.1 25.7-36.4 30-36.8 2.9-.4.4 11.4-.4 15S216 322.1 216 324.6c0 2.4 16.4-14.3 17.6-10.7 1.1 3.6-16.9 20.7-16.4 22.1.4 1.4 9.3-4 10.7-3.3 1.4.7-20.4 42.8-20.4 42.8l-28.6-17.4z"/><circle class="st3" cx="198.4" cy="333" r="7.3"/><path class="st1" d="m183.4 349.8.5-7.1M189.1 351.4l.6-6.4M193.9 353.4l1.2-6.7M199.4 355.5l1.7-6.7M204.4 358.4l2.4-6.7M208.7 361.7l3.5-6.7M215.4 347.7l3-6.7M208.4 344.3l3.1-6.9M186.1 335.7l.4-8.3M188.9 316.3l.2-9.2M194.1 316.4l.6-7.6M199.7 317.1l.7-7.8M203.7 318.8l1.8-7.8M209.7 322.1l2.5-8.5M189.7 300v-7.9M194.4 297.1l.7 5.7M199.8 295l.3 7.8M205.8 285.6l-.7 12.1M210.4 268.4l-10 4.3M210.4 263.4l-10 4.3M210.1 259.1l-8.6 3M211.5 242.7l-9.3 5.5M212.7 231.4l-9.3 5.8M212.2 236.7l-9.3 5.7M234.8 241l-9.7 3.6M233.4 248.6l-9.8 3.1M232.5 255l-11 3.6M227.6 270.3l-8.9.3M226.8 274.6l-9.1.3M225.5 279.6l-10 1M245.1 267.4l7.5 4M241.9 270.7l7 5M238.9 274.9l6.5 4.7M235.4 280l6.1 5.7M232.2 283.9l6.7 6.7M229.1 287.4l6.7 6.7M211.8 294.6l-2.7 8.5M212.9 305.3l3.9-8.2M216.2 308.1l4.9-7.1M219.7 310.3l5.8-6.9"/><path class="st0" d="M144.4 359.3s-47.1-27.1-47.1-41.8c0-14.7 12.1-27.8 19.7-23.6 7.6 4.3 34.7 27.6 34.7 27.6l-7.3 37.8z"/><path class="st2" d="M143.7 346.4s-30.7-23.3-31.1-27.6 2.9-7.1 7.1-7.1 27.6 15 27.6 15l-3.6 19.7z"/><path class="st1" d="M148.7 342.4s-28.1-18.6-26.4-22.1c1.7-3.6 26.4 14 26.4 14"/><path class="st0" d="M94.7 502.4s14.3-45.7 15.3-55.7c0 0 50.4 11.9 93.8 11.9-6.1 51 .4 60.4.4 60.4-74.8-.5-109.5-16.6-109.5-16.6z"/><path class="st0" d="M116.1 496.6s2.9-28.6 8.1-34.3c14.7 1.9 62.8 10 62.8 10l-2 33.3c-18.9 2-68.9-9-68.9-9z"/><path class="st1" d="M129.4 472.4c-1.4 1.4-2.9 15.3-2.4 16.7.4 1.4 50 9.6 51 7.6 1-1.9 2.4-16.7 1-18.1-1.5-1.5-48.2-7.7-49.6-6.2zM131.5 489.2l2.2-16.4M141.1 491.7l2.1-18.3M147.7 493.1l1.7-18.9M158 494.5l1.4-19M163.4 495.2l2-18.5M172.7 496.2l1.2-18.4M109 500.6l-.7 5.3M114.1 501.4v6.2M120.5 502.6l-.1 6.5M127 504.5v5.7M133.7 505.6l-.5 6.3M141.2 507.4v6M148.4 508.5l.6 5.7M156.5 509.5l.2 6.1M164.8 510.5l.3 6.6M172.5 510.5l.5 6.4M178.4 511.6l.5 6.2M185.8 511.4l1 6.2M191.8 511.4l2.9 6.2M194.7 506.4l6.8 3.8M194.5 499.6l6 2M194.4 492.4l5.8 2M194.4 485.4l5.7 2M194.7 478.8l6.4 1.9M195.2 473.5l6.3.7M195.8 467.8l6.9-.7M192.7 459.2l-.9 5.7M187.2 458.4l-.7 5.7M180.7 458.1l-.2 6.7M175.1 458.2l-.7 6M168.4 457.4l-.4 6M161 456.7l-.2 6.2M155.5 456.4l-.7 5.3M148.5 454.5l-.3 6.2M141.7 454.1l-.5 5.4M135.1 452.1l-.6 6.4M128.1 451.1l-.1 6.4M121.7 449.5l.1 6.9M115.8 448.8l1.2 8.1M108.4 456.4l5.3 7.7M106.3 465.5l5.2 5.4M105.1 473.1l4.3 4M102 480.9l6.1 3M99.5 488.1l6 2.8M98.3 494.8l5.4 1.8"/><path d="M142.2 356.7c-1.4 29 11 90.4 15.7 90.4 4.7 0 21.4-53.3 21-89-.4-35.7-13.3-96.7-16.7-96.7-3.2 0-18.5 66.3-20 95.3z" style="fill:#2d2d2d"/><path d="M155.1 311s-8.1 35.7-8.1 47.6 10 75.3 11.9 75.3 14.7-59.6 14.3-74.7c-.4-15.1-5.3-48.6-5.3-48.6l-12.8.4z"/><path class="st11" d="M174.5 313.7c-4.1-27.3-10.1-52.1-12.3-52.1-2 0-8.6 25-13.7 51.1l26 1z"/><path class="st1" d="M142.2 356.7c-1.4 29 11 90.4 15.7 90.4 4.7 0 21.4-53.3 21-89-.4-35.7-13.3-96.7-16.7-96.7-3.2 0-18.5 66.3-20 95.3z"/><path class="st3" d="M184.4 399.2c4.9.1 8.6-.1 9.3-1.1.4 9.7 3.6 28.6 3.6 28.6 10.7-5.4 11.9 10.4 8.6 14-3.3 3.6-11.4 4.3-21.1-2.1-9.7-6.4-6.7-39.7-6.7-39.7l8.6-10-2.3 10.3z"/><path class="st4" d="M142.2 409.5c2.9-.4 6.1-8.6 10-11 3.9-2.4 39 2.9 41.4-.4s-3.3-31.8-3.3-31.8-9.1-3.9-25.3-2.4c-16.1 1.4-24.3 11.4-26.7 18.6s1.1 27.5 3.9 27z"/><path class="st9" d="M169.4 355.7s35.7 7.6 38.1 18.1c2.4 10.4-2.4 30 1.9 40s22.4 13.9 22.4 13.9l1.4 22.9-16.1 5.7-17.1-17.1-11.4-10.4 5.1-30.6s-1.4-10-2.4-25.7c-24.3-3.9-26.7-11.9-26.7-11.9l4.8-4.9z"/><path class="st0" d="M184.4 399.2c4.9.1 8.6-.1 9.3-1.1 2.4-3.3-3.3-31.8-3.3-31.8s-2.3-1-6.6-1.7l.6 34.6z"/><path class="st1" d="m191.9 376-28.2.4M192.9 383.8l-27.1.5M194.1 392.4l-27.9-.7"/><path class="st9" d="M191.2 372.4c-24.3-3.9-26.7-11.9-26.7-11.9l4.7-4.7s35.7 7.6 38.1 18.1"/><path class="st0" d="M155.1 352.8c1.9-.4 11.9 2 14.3 3 2.6 1 6.1 5.3 5 6.7-4.3 3.2-14.3-4.7-19.3-9.7z"/><path class="st3" d="M184.4 399.2c4.9.1 8.6-.1 9.3-1.1.4 9.7 3.6 28.6 3.6 28.6 10.7-5.4 11.9 10.4 8.6 14-3.3 3.6-11.4 4.3-21.1-2.1"/><path class="st3" d="M205.8 440.7c-3.3 3.6-11.4 4.3-21.1-2.1-9.7-6.4-6.7-39.7-6.7-39.7"/><path class="st1" d="M197.2 426.7c-4.7 3.3-2.1 11.1 2.9 10.7"/><path class="st9" d="M374 418.5s1.1 100.7 18.3 114 29.3 13.3 29.3 13.3l3.1-9 73.5 1.7s24.7-123.8 9.3-123.2c-6 8.9-39.8 102.7-39.8 102.7l-46.6-31.4-17-79.8-30.1 11.7z"/><path class="st1" d="M425.7 238.6c-4.3 1.9-9.9-3.7-17.3-8.4-6.7-4.3-13.7-8.9-14.1-14.4M403.6 173.9s31.4 17.6 31.1 20c-.3 2.4-10.7 19.3-10.7 19.3l-31.4-.7-.7-23.3 11.7-15.3z"/><path class="st0" d="m398.9 179.9 4.7-6s31.4 17.6 31.1 20c-.1.9-1.6 3.7-3.4 7l-32.4-21z"/><path class="st1" d="m407.9 185 3.3-6.8M414.7 188.2l3.2-5M420 192.2l3.3-5.7M425.4 195.7l3.6-6.1"/><circle class="st0" cx="425.9" cy="166.9" r="17.7"/><circle class="st8" cx="425" cy="167.2" r="9.7"/><circle class="st0" cx="424.3" cy="166.7" r="3.3"/><path class="st1" d="M656.7 265s-1.7 3.3-3.1 3.4M679.9 236.3c1.9 0 3.9-3.1 3.9-3.1"/><circle class="st9" cx="454.2" cy="581.5" r="4.3"/><path class="st0" d="M274.1 568.5s-48.8.3-50.4 0c-1.7-.3-5.7-1.7-6-6.9s5.4-7.9 5.4-7.9-6.4-2.1-6.4-7.6c0-5.4 6.1-8.3 6.1-8.3s-3.9-2.1-3.3-6.1c.4-4 4.3-6 4.3-6s-4.3-2.1-3.6-8.1c.7-6 4.3-7.6 6.9-7.9 2.6-.3 55.7 15 55.7 15l1.9 38.1-10.6 5.7z"/><path class="st1" d="m239.8 558.5 28.4.6M266.9 564.2l-26.8-.4M270.4 550.2l-26.3-1.4M269.8 545.9l-26.2-1.1M269.6 537.8l-27.7-3.7M271.8 529.1l-28.2-4.9M273.2 525.6l-29.8-6.4"/><path class="st2" d="M241.8 568.6c-9.4 0-17.4 0-18.1-.1-1.7-.3-5.7-1.7-6-6.9s5.4-7.9 5.4-7.9-6.4-2.1-6.4-7.6 6.1-8.3 6.1-8.3-3.9-2.1-3.3-6.1c.4-4 4.3-6 4.3-6s-4.3-2.1-3.6-8.1c.7-6 4.3-7.6 6.9-7.9 1-.1 8.9 2 18.4 4.6l-3.7 54.3z"/><path class="st1" d="m223.2 553.8 58 .7M222.9 537.8l57.9 4.6M223.9 525.6l58.3 9.2"/><path d="M256.5 517.2c2 .6 4 1.1 5.9 1.6l-6.3 49.7h-5.4l5.8-51.3zM270.9 521.4c2 .6 3.9 1.1 5.4 1.6-1.3 4.7-5.4 45.7-5.4 45.7h-6l6-47.3zM242.5 558.6l-.4 5.6s-17.6.1-18-3.1 18.4-2.5 18.4-2.5zM243.2 548.9l.4-5.1s-19.4-2.4-20.1 1.4c-.7 3.9 19.7 3.7 19.7 3.7zM244.4 532.5l-.3 4s-17.6-1.9-17-4.7c.5-2.9 17.3.7 17.3.7zM229.2 518.1c1.6-3.7 16.1 1.3 16.1 1.3l-.4 6.4c-.1 0-17.3-4-15.7-7.7z"/><path class="st5" d="M280.1 561.3s-.3-36.4 2.9-36.7c3.1-.3 30.4.4 30.4.4l-4.7 33.8-28.6 2.5z"/><path class="st7" d="m294.3 560.2 1.4-35.4c8.4.1 17.6.4 17.6.4l-4.7 33.8-14.3 1.2z"/><path class="st5" d="M307.6 541.4s-20.7-5.7-33.3 27.8c-12.6 33.6-21.4 39-21.4 39l-37.1 51.4 24.7 11.1 50.7-54.7 26.8-38.6-10.4-36z"/><circle class="st3" cx="290.8" cy="627.3" r="7.9"/><circle class="st3" cx="245.9" cy="612.5" r="8.4"/><path class="st7" d="M306.2 581.6s-29.3-14.3-37.8-14-31.1 32.6-30 35.7 40.4 6.1 67.6 26.4c27 20.3.2-48.1.2-48.1z"/><path class="st9" d="M315.2 609.6c-3.4-13.6-9.1-28-9.1-28s-29.3-14.3-37.8-14c-4.1.1-11.3 7.6-17.7 15.6l64.6 26.4z"/><path class="st0" d="M242.1 595.2c-2.6 4.1-4.1 7.3-3.9 8.1 1.1 3.3 40.4 6.1 67.6 26.4 9.1 6.9 26.1 7.7 12.1-3.9-13.8-11.3-75.8-30.6-75.8-30.6z"/><path class="st1" d="m260.8 571.6 46.8 17.6M264.4 588.8l6.1-13.3M270.1 590.9l5.7-13.1M284.8 596.6l5.3-13.8M289.8 599.2l5.7-14.3"/><circle class="st1" cx="261.6" cy="579.6" r="2.3"/><circle class="st1" cx="280.2" cy="586.8" r="2.3"/><path class="st0" d="M543.3 711.6s34.6 29 37.6 30.4c3.1 1.4 6.1-3.6 3.6-5.3 2.9 1.7 6-4.7 2.9-6.7 3.1 2.1 6.1-6.1 2.6-7.9 3.6 1.9 6-5.3 1.7-6.7-4.3-1.4-42.8-15.7-42.8-15.7l-5.6 11.9z"/><path class="st1" d="m555.4 714.4 11.3 7.9M558.8 709.2l12.9 7"/><path class="st3" d="M561.3 726.4c9 7.4 18.1 14.9 19.7 15.6 3.1 1.4 6.1-3.6 3.6-5.3 2.9 1.7 6-4.7 2.9-6.7 3.1 2.1 6.1-6.1 2.6-7.9 3.6 1.9 6-5.3 1.7-6.7-1.9-.6-10.3-3.7-19.3-7l-11.2 18z"/><path class="st7" d="M563 705.2c-7.9-2.9-14.1-5.3-14.1-5.3l-5.4 11.7s4.7 4 10.9 9.1l8.6-15.5z"/><path class="st1" d="m584.5 736.9-7.1-4.6M587.4 730.2l-8.1-3.9M590 722.3l-8.3-3.3"/><circle class="st3" cx="537.3" cy="702.2" r="13"/><circle class="st1" cx="536.4" cy="701.9" r="4.7"/><path class="st3" d="M414.3 533.5C397.5 504.9 397.6 409 397.6 409l-15.7 6.4s-2.6 86.7 14.6 117.4 34.7 29.3 17.8.7z"/><path class="st9" d="M387.5 503.9c.4 2.3.9 4.4 1.3 6.6l17.4-.9c-.6-2.4-1-4.9-1.4-7.4l-17.3 1.7zM384.2 480.9c.3 3 .7 6 1 9l17-3.9c-.3-2.6-.7-5.3-1-7.9l-17 2.8zM382.7 463.1c.1 2.3.3 4.6.4 6.9l17-2.4c-.1-2.1-.4-4.3-.6-6.4l-16.8 1.9zM398 428.5c-.1-2.4-.1-4.6-.1-6.7l-16 .7v7.1l16.1-1.1zM382.2 441.2c0 2.7-.1 4-.1 6.9l16.7-1.9c-.1-2.7 0-4.1-.1-6.7l-16.5 1.7z"/><circle class="st4" cx="390.3" cy="434.4" r="2.3"/><circle class="st4" cx="391.7" cy="454.4" r="2.3"/><circle class="st4" cx="391.7" cy="474.4" r="2.3"/><circle class="st4" cx="394.6" cy="495.8" r="2.3"/><circle class="st4" cx="398.9" cy="518.6" r="2.3"/><circle class="st0" cx="354" cy="726.7" r="11.3"/><circle class="st1" cx="353.3" cy="726.3" r="4"/><path class="st7" d="M370.5 696.6s-19.6 15.4-19 16.9c.4 1.4 13.3 16.1 15.4 15.3 2.1-.9 16.7-22.6 16.7-22.6l-13.1-9.6z"/><path class="st8" d="M357.2 707.7c-3.3 2.9-5.9 5.3-5.7 5.9.4 1.4 13.3 16.1 15.4 15.3.6-.3 2.4-2.4 4.4-5.1l-14.1-16.1z"/><circle class="st3" cx="381.5" cy="696.2" r="14"/><path class="st3" d="M383.3 693.3c-7.6-.7-5.7-10.7-5.7-10.7 1.3-.3 2.6-.6 3.9-.6 2.7 0 5.1.7 7.3 2-.1.2 2.2 10-5.5 9.3z"/><path class="st1" d="m372.6 691.3-5 7M375 695.9l-4.5 8.5M378.9 699.4l-1.3 10.3M384.3 699.9l.7 9.3M389.3 697.3l2.2 8.9"/><circle class="st3" cx="239.9" cy="468.2" r="7.7"/><circle class="st3" cx="250.9" cy="423.2" r="7.7"/><path class="st8" d="M234.1 413.5c10 2.6 13.3 21.1 11.1 33.3s-13.6 25-22.6 22.1c-9-2.9-5.6-12.6-5.6-12.6s7-6 9.9-12.7c2.9-6.7 1.1-16.9 1.1-16.9-1.7-.6-4-1.3-6.3-2.3-3-6.6 2.4-13.4 12.4-10.9z"/><path class="st1" d="m241.2 419.1-7.6 2.1M243.9 426l-7 1M245.4 434.5l-7.8.5M244.8 441.2h-6.2M244.4 448.5l-6.5-1.6M242.2 454.8l-6.1-3.1M238.4 460.7l-5.5-4.5M233.4 464.8l-4.8-5M227.6 468.1l-4.4-5.3"/><path class="st4" d="M603.5 184.3c17.6-1.1 58.6-38.6 64.3-45 5.7-6.4 14.7-15.3 17.9-17.4s12.9 3.6 10 6.9c-2.9 3.3-10.7 12.4-18.6 20s-33.1 39.1-67.8 53.4c-32.8 9-12.6-5-12.6-5s-8.7-12 6.8-12.9zM610.7 223.9c32.8.4 84-34 91.4-39 7.6-5 18.3-12.1 19.7-12.9 1.4-.7-3.6-9.3-6.4-8.6-2.9.7-16.1 9-21.9 12.3-5.7 3.3-40.4 22.1-52.1 26.1s-39.3 7.4-39.3 7.4-24.3 14.4 8.6 14.7z"/><path class="st4" d="M608.3 201c26-8.9 72.7-40.7 78.1-45.7s16.9-15.7 19.3-17.4c2.6-1.9 9.3 7.1 6.1 10.7-3.1 3.6-14.3 12.9-18.3 16.4-4 3.6-41.4 40.3-81 47.8-39.6 7.6-7.6-6.1-7.6-6.1s-20.9 2.6 3.4-5.7z"/><path class="st1" d="M697.5 180.3s-57.1 34-88.3 38.3M604 193.2c31.7-13.6 70.7-50.7 70.7-50.7"/><path class="st3" d="M667.8 139.3c5.7-6.4 14.7-15.3 17.9-17.4s12.9 3.6 10 6.9c-2.9 3.3-10.7 12.4-18.6 20l-9.3-9.5zM686.4 155.3c5.4-5 16.9-15.7 19.3-17.4 2.6-1.9 9.3 7.1 6.1 10.7-3.1 3.6-14.3 12.9-18.3 16.4l-7.1-9.7zM702.1 185c7.6-5 18.3-12.1 19.7-12.9 1.4-.7-3.6-9.3-6.4-8.6-2.9.7-16.1 8.9-21.9 12.1l8.6 9.4zM570.4 257.9c-8.6-3.6-1.9-87.8-15-92.8 0 0 27.1-11.9 32.1-10.7s9 5.7 5 10.4c10.7.7 12.9 10.7 5 14.3 7.1-.4 11.9 7.1 6.4 14.3 11.4 1.9 5.4 12.1 5.4 12.1s9 5.4 0 13.3c8.3 6.4.4 12.9.4 12.9s6.4 5.3-.7 12.1c2.9 3.6 10 12.1-13.3 11.9 0 0 14.3 5 10.4 10-2.6 1.7-27.1-4.3-35.7-7.8z"/><path class="st1" d="m569.7 250 26 5.3M569.3 240.3l39.7 3.3M570 229.6l39.7 1.8M567.1 217.9l42.2.7M564 195.7l40-2.5M563.3 185l34.2-6.1M558.6 174.3l33.9-9.7"/><path class="st8" d="M480.7 236.4s-8.6-38.8-6.1-41.7c2.4-2.9 66.1-19.4 80.8-29.7 13.3 5 15 92.8 15 92.8s-35.4-12.1-48.6-10c-13.1 2.2-41.1-11.4-41.1-11.4z"/><path class="st1" d="M545.4 171c9.3 37.1 7.9 80.7 7.9 80.7"/><path class="st2" d="M487.9 233.2s-6.4-33.6-5.4-35.3c1-1.7 8.3-2.9 9.3-1.4 1 1.4 5.4 35.7 5.4 35.7l-9.3 1z"/><path class="st1" d="m492.4 201.5-9.3 1.2M493.1 207.2l-8.5 1M494.3 212.4l-9 1M494 217.7l-7.9 1.2M495.7 222.9l-8.6 1M559.3 170l-6.7 2M561.1 175.7l-6.5 1.5M562.5 181.7l-7.2 1M564 187l-7.9.7M564.7 191.7l-8 .8M565.4 196.7l-7.6.5M566.1 201.5l-7.8 1.2M566.7 207.2l-7.1.7M567.5 212.7l-7.8.5M567.1 217.9h-6.7M568.1 222.9l-7 .7M568.8 228.2l-7.7.2M568.5 233.2l-6.8.7M569.5 239.2h-7.7M569.5 245l-8.4-.8M570 250.6l-10-1.3"/><path class="st7" d="M513.6 247.6c.4-39.4-8.1-58.6-6.7-63.8 8.9-2.9 18.4-5.9 26.8-9 2 7.4 10.4 45.1 8.4 75.1-7.9-1.7-15.6-2.9-20.4-2-2.3.3-5.1.1-8.1-.3z"/><path class="st3" d="M519 246.4c-2.6 13.6-7.7 1.1-14-.7l-7.6-59c4.9-1.6 10.3-3.3 15.7-5 0 0 8.3 51.2 5.9 64.7z"/><path class="st0" d="M536.1 212.2c-1.1-19.3-6.9-35.7-6.9-35.7 2.9-1 5.7-2 8.3-3 5 4.9 9.6 44.8 9.1 77.5-2.9-.7-5.7-1.3-8.6-1.9.1-.1-.9-17.7-1.9-36.9z"/><path class="st1" d="m540 178.5-8.3 1.8M541 183.9l-8.4 1.7M541.4 189.6l-6.7 1.1M542.8 195.3l-7.8 1.4M544 201.5l-8 .7M544 207.2l-6.6.5M544.3 212.4l-7.5.5M545 218.2l-7.2.4M545.3 223.4l-7.2.2M545.4 228.9l-7.1.3M546 234.2h-7.2M546.4 240l-7.4-.4M545.4 245.6l-6.4-1.3M566.8 205.3h42.4c32.6-5 80.7-45.4 80.7-45.4"/><path class="st7" d="M515.3 499.5s16.9 34.6 19 36.8c1 1.1 15.4-3.6 29.7-9.1 15-5.9 29.7-12.7 28.8-14.6-1.7-3.9-29.3-50-29.3-50l-46.4-14.7-1.8 51.6z"/><path class="st0" d="M522.8 514.9c4.7 9.6 10.3 20.1 11.4 21.4 1 1.1 15.4-3.6 29.7-9.1 15-5.9 29.7-12.7 28.8-14.6-.7-1.6-6-10.7-12-20.9l-57.9 23.2z"/><path class="st1" d="m575 494.5 4 7.9M568.3 497.8l4.1 7.8M546 505.9l3 7.9M539.3 508.5l3.1 8.1M531.8 511.4l3.5 7.8"/><path class="st2" d="M576.3 483.9c-2.1-3.6-4.1-7-6-10l-55 25.6s1.9 3.9 4.4 9l56.6-24.6z"/><path class="st5" d="M526.6 522.1c3.6 7.1 6.9 13.3 7.7 14.3 1 1.1 15.4-3.6 29.7-9.1 15-5.9 29.7-12.7 28.8-14.6-.6-1.1-3.7-6.7-7.7-13.6l-58.5 23z"/><path class="st0" d="m532.4 463.1 31.6 64.1c2.6-1 5-2 7.4-3l-30.7-60.8 22.9-.7-46.4-14.7 15.2 15.1z"/><circle class="st5" cx="528.3" cy="482.8" r="6.7"/><circle class="st5" cx="522.6" cy="512.8" r="6.7"/><path class="st5" d="M532.4 463.1s78.5 23.6 84 24.3c12.6 3.3 12.1-16.4 12.6-23.1.4-6.7-6.6-69.6-9.6-70.7-2-.9-19.9-10.4-21.9 4 3.6 19.6 10.9 58.7 6.7 57.1-31-11.4-79.7-28.8-79.7-28.8l-10 15.3 7.4 27.6 10.5-5.7z"/><circle class="st5" cx="531.4" cy="454.2" r="8.9"/><path class="st5" d="M506.9 463.5c.3 6.9-11 48.8-8.9 53.6 2.1 4.7 12.1 6.7 14.6 3.3 2.4-3.3 12.6-45.7 11.9-53.6-.8-7.9-17.8-10.1-17.6-3.3z"/><circle class="st5" cx="500.4" cy="531.5" r="10.9"/><circle class="st1" cx="500.4" cy="530.9" r="4.3"/><path class="st9" d="M511.1 465.2c0 6.1-9 45-7.9 47.6 1.1 2.6 5.7 2.9 7.1 1 1.4-1.9 9.7-41.7 9.6-47.4-.2-5.7-8.8-7.3-8.8-1.2z"/><path class="st1" d="m504.7 502.8 7.7 1M505.7 496.9l8.3 1.2M508.9 483.5l7.8 1M510 478.8l7.6.4"/><path class="st3" d="M526.4 427s-1.7 20.3-2.6 23.3c-1 3.1-16.1 2.4-16.7-1.4-.4-3.9-3.3-41.1-3.3-41.1l22.6 19.2z"/><path class="st9" d="M510.4 410.5s1.1 34.3 1.9 35.7c.7 1.4 6.1 1.9 7.1.3 1-1.7.3-31 .3-31l-9.3-5z"/><path class="st1" d="m513.1 441 5.5-.3M512.6 436.2h7M511.1 428.1l8.5.3M511.4 423.5l8.6.6"/><circle class="st0" cx="299.1" cy="314.6" r="13.3"/><circle class="st1" cx="298.8" cy="314.7" r="5.6"/><path class="st7" d="M348.6 321.4s-32.8-14-34-12.9c-1.1 1.1-8.3 20.7-7.1 22.9 1.1 2.1 35.7 4 35.7 4l5.4-14z"/><path class="st9" d="M326.2 334.1c8.7.7 17.1 1.1 17.1 1.1l5.4-14s-7.9-3.3-16-6.6l-6.5 19.5z"/><path class="st0" d="M321.6 310.6c-3.9-1.4-6.7-2.3-7-2-1.1 1.1-8.3 20.7-7.1 22.9.3.6 2.6 1 6 1.6l8.1-22.5z"/><path class="st1" d="m330.8 321 17.8 5.4M329.3 327.7l15 4"/><path class="st3" d="m407.5 417.1 2.4-2.1 11.3 72.4s45.4 12.6 46.4 11.9 25.4-13.6 25.4-13.6l4.3-94.3-75.4 8.6-14.4 17.1zM384.3 260.3s-16.9-4.7-17.9-7.6c-1-2.9 7.6-21.4 7.6-21.4l25.4 9.3-3.6 16.1-11.5 3.6z"/><path class="st1" d="m370.7 255.7 10-23.3M376.9 257.4l8.8-21"/><path class="st3" d="M477 278.9 393.3 241s-26.1 42.6-25 47.1c1.1 4.6 5.7 7.1 5.7 7.1s-39.7 21.9-36.1 42.8c3.3 11.1 25.7 1.9 29 2.9s49.7 19 49.7 19l69.7 1.4 8.3-62.1-17.6-20.3z"/><path class="st10" d="M391.2 288.1c6.4-4 17.9 9 21.4 10.4 3.6 1.4 12.9-.4 18.6-.4.4 4.7-19.7 18.6-31.8 14-12.2-4.5-11.1-22.1-8.2-24z"/><path class="st11" d="M413.5 303s3-1.7 2.7-3.9c4.4.1 10.7-.9 15-.9.3 2.9-7.3 9.3-15.9 12.6l-1.8-7.8z"/><path class="st1" d="M403.3 304.6c-10-1.9-6.7-16.7-6.7-16.7 6.1 2 13.3 9.6 16 10.6 1.1.4 3 .6 5 .6 0-.1-4.3 7.3-14.3 5.5z"/><path class="st2" d="M402.7 291.1c2.4 1.7 4.7 3.6 6.6 5.1 0 0-2.1 5.4-5.7 2.9-3.6-2.5-.9-8-.9-8z"/><path class="st1" d="M391.2 288.1c6.4-4 17.9 9 21.4 10.4 3.6 1.4 12.9-.4 18.6-.4.4 4.7-19.7 18.6-31.8 14-12.2-4.5-11.1-22.1-8.2-24z"/><path class="st7" d="M528.3 284.6s18.3-2.6 19.7 2.9c1.4 5.4-8.3 97.1-3.6 106.8 4.7 9.7-18.6 4-18.6 4l-15.4-41.8 5.7-67.1 12.2-4.8z"/><path class="st1" d="M543.6 347.8h-17.5M544.7 336H525M545 323.6h-20.7"/><path class="st7" d="M406.5 415.7s.3 63 10.4 80.7c18.9 33.3 27.8 20.7 56.4 21.1 28.6.4 31.8-110 31.8-110l-6.4-21.4-7.9 3.3s-.4 73.5-13.3 93.5c-6.7 10.4-11.4-5.3-21.4-8.6-9.1-3-23.9 7.3-26.8 2.9-6.1-9.3-11.9-61.8-11.9-61.8l-10.9.3z"/><path class="st3" d="M435.4 515.9s6.4-6.9 7.6-10c1.1-3.1.7-12.9 0-15.7-.7-2.9-5-9-5-9l10-7.6 11.9 6.9s-6.9 7.1-7.6 10.4-.4 12.9 0 15.7c.4 2.9 5.7 12.6 5.7 12.6l-14.3 5.7-8.3-9z"/><path d="M447.7 466.7c-18 0-32.7 14.6-32.7 32.7s14.6 32.7 32.7 32.7 32.7-14.6 32.7-32.7-14.7-32.7-32.7-32.7zm.6 51.8c-10.7 0-19.3-8.6-19.3-19.3 0-10.7 8.6-19.3 19.3-19.3 10.7 0 19.3 8.6 19.3 19.3 0 10.6-8.7 19.3-19.3 19.3z" style="fill:#fdce12"/><path class="st1" d="M447.7 466.7c-18 0-32.7 14.6-32.7 32.7s14.6 32.7 32.7 32.7 32.7-14.6 32.7-32.7-14.7-32.7-32.7-32.7zm.6 51.8c-10.7 0-19.3-8.6-19.3-19.3 0-10.7 8.6-19.3 19.3-19.3 10.7 0 19.3 8.6 19.3 19.3 0 10.6-8.7 19.3-19.3 19.3z"/><path class="st3" d="M477 278.9s-5.1 37.6-4.4 40.4c.7 2.9 11.4-1.1 11.4-1.1l-.7 23.6 10.3 39.3s5.7 19.7 11.4 29 45.4 36.1 52.1 40.4c4.3-1.4 2.1-11.1-21.9-27.1C592 451 612 466 614.9 464.8c1.9-.4 4-7.6-3.3-13.3 0 0 21.9 12.6 23.6 12.9 1.7.3 6.1-7.1 4-10.4S611 438.1 611 438.1s31.4 6.1 31.4 4.7c0-1.4 1.1-11.1-.7-13.3-1.9-2.1-37.1-10-37.1-10s34.3 1.1 37.8 1.1 1.9-12.9-2.1-13.3c-4-.4-64 2.1-77.8-7.1 6.1-1.1 16.9-1.9 14-5.4-2.1-2.6-25 1.1-39.3-3.6-14.3-4.7-15.4-23.6-15.7-37.1 4.7 7.1 11.9 13.3 14 9.3.7-2.9-10-12.1-10.7-19.3-.7-7.1-2.1-29.7-1.1-48.6 1.4 11.9 7.9 20.4 11.4 17.6 1.9-1.9-2.6-14.3-4.3-20.7-1.7-6.4 9-47.8-23.6-59.6-16.1-6.1-30 2.9-30 2.9s-2.9-19.6-19-27.4c-12.6-6.4-22.9-9.3-26.8-7.1-4 2.1-7.1 11.1-7.1 11.1l-20 18.3-11.3 10.7 84 37.6z"/><path class="st1" d="M487.1 244.6c-.3-3.1 18.3-5 27.1 4.7 8.9 9.7 9.7 32.8 9.3 46.4"/><path class="st1" d="M483.6 242.2c-.3-3.1 15.4-9 29-.4 17.1 10 11.4 40.4 11.1 54M477 278.9s3-22.4 3.7-19.6M486.4 261c.7 2.9-2.6 57.1-2.6 57.1M548.6 421.7c10.7 6.1 51.8 11.4 62.6 16.4"/><path class="st1" d="M611.8 451.4s-91.1-38.6-95.4-51.4c-.9-2.4-6.1-4.4-7.1-12.6-4-34-4.3-109.4-3.6-109.3"/><path class="st1" d="M501.3 279.6c-.6 14-4.9 64-1.6 95.7s20.7 40 35.7 47.8"/><path class="st1" d="M511.4 275.3s-3.3 106.4 5.4 117.1c8.7 10.7 30.4 22.1 87.8 27.1M642.5 436.7s-85.8-17.9-90.7-20"/><path class="st1" d="M515.7 265.7c6.7 14-8.3 102 11.4 127.5 14.4 18.6 104.3 24.3 116.8 21.1"/><path class="st1" d="M515.7 265.7c4.6 17.7-.6 35.1 1 69 .4 6.1 2.1 16.1 4.7 19.7M496.4 277.1l-3.8 66.7M490.4 273.6l-3.3 66.4M469.7 275.3l2.2-13.2M461.2 271.7l3.1-11.7M455.4 268.6l4.3-12.2M450 266.7l5.7-20.3M444.7 263.9l5.3-16.7M438.6 261.4l4.7-11.4M432.6 257.4l4.3-10.7M425.7 254.6l4-9.3M418.3 252.1l7.4-13.5M427.6 206.4c38.7-1.3 45.1 27.8 45.1 27.8"/><path class="st1" d="M426.2 218.9c31.6-8.9 36.8 17.9 36.8 17.9"/><path class="st1" d="M425.7 213.2c33.1-7.1 42.6 22.1 42.6 22.1"/><circle class="st9" cx="409.7" cy="215" r="16.4"/><circle class="st0" cx="409.2" cy="215.2" r="9.4"/><circle class="st1" cx="408.5" cy="214.7" r="3.7"/><path class="st10" d="M391.2 183.6s-14.7-.7-16.9 3.6c-.4 1.4 16.1 2.9 16.1 2.9l.8-6.5z"/><path class="st11" d="M381.5 183.9c-3.3.4-6.3 1.4-7.1 3.1-.1.6 2.9 1.3 6.1 1.7l1-4.8z"/><path class="st1" d="M391.2 183.6s-14.7-.7-16.9 3.6c-.4 1.4 16.1 2.9 16.1 2.9l.8-6.5z"/><path class="st10" d="M390 189.3s-5.6-.3-10.3.6c-3 .4-5.7 1.4-6.6 3-.1.6 2.6 1.1 5.9 1.7 4.6.7 10.1 1.1 10.1 1.1l.9-6.4z"/><path class="st11" d="M379.7 189.7c-3 .4-5.7 1.4-6.6 3-.1.6 2.6 1.1 5.9 1.7l.7-4.7z"/><path class="st1" d="M390 189.3s-5.6-.3-10.3.6c-3 .4-5.7 1.4-6.6 3-.1.6 2.6 1.1 5.9 1.7 4.6.7 10.1 1.1 10.1 1.1l.9-6.4z"/><path class="st10" d="M387.2 195s-14.7-.7-16.9 3.6c-.4 1.4 16.1 2.9 16.1 2.9l.8-6.5z"/><path class="st11" d="M378.7 195.2c-3.7.4-7.3 1.3-8.3 3.3-.1.7 3.9 1.4 7.9 2l.4-5.3z"/><path class="st1" d="M387.2 195s-14.7-.7-16.9 3.6c-.4 1.4 16.1 2.9 16.1 2.9l.8-6.5z"/><path class="st10" d="M388.6 200s-14.7-.7-16.9 3.6c-.4 1.4 16.1 2.9 16.1 2.9l.8-6.5z"/><path class="st11" d="M378 200.5c-2.9.6-5.4 1.4-6.3 3-.1.6 2.9 1.3 6.1 1.7l.2-4.7z"/><path class="st1" d="M388.6 200s-14.7-.7-16.9 3.6c-.4 1.4 16.1 2.9 16.1 2.9l.8-6.5z"/><path class="st3" d="M393.3 241c7.1 2.9 21.9 8.3 25.7 3.6 7.1-10-24-17.1-24.7-28.8-.7-11.7 14.7-41.1 7.9-49-6.9-7.9-15.7-6.9-19-3.3-6.9 9.3 5.4 14.7 9 12.9 1.4-.4-12.6 31.1-12.1 36.4s1.4 11.9 5.7 14.7c-15.3-6.4-26.4-8.1-31-.7-4.7 7.4 1.1 15.3 7.6 14.6 11.4-1.9 6.9-10.3 6.9-10.3s16.9 7.1 24 9.9z"/><path class="st1" d="m385.7 227.4 21.2 10M361.2 234.3c-1.1-3.9 3.6-5.3 7.9-3.1M389.7 166.7c5.7-1.1 6.9 8.3 2.6 9.7"/><circle class="st8" cx="512.9" cy="393.5" r="7.9"/><circle class="st1" cx="513.3" cy="393.5" r="2.1"/><circle class="st8" cx="544" cy="415.2" r="8.3"/><circle class="st1" cx="542.7" cy="415.1" r="2"/><circle class="st8" cx="503.6" cy="311.4" r="7.9"/><circle class="st1" cx="502.9" cy="311.4" r="2.1"/><circle class="st4" cx="441.2" cy="236.7" r="15.7"/><circle class="st1" cx="440.7" cy="237.2" r="8.3"/><circle class="st1" cx="440.7" cy="237.2" r="2.1"/><circle class="st4" cx="472.7" cy="250.2" r="15.9"/><circle class="st1" cx="472.6" cy="250.7" r="8.6"/><circle class="st1" cx="472" cy="250.4" r="2.3"/><circle class="st4" cx="501.3" cy="264.7" r="14.9"/><circle class="st1" cx="500.7" cy="265.7" r="7.9"/><circle class="st1" cx="500.9" cy="265.1" r="2"/><circle class="st9" cx="407" cy="431.1" r="8.7"/><circle class="st9" cx="477.3" cy="446.1" r="10.1"/><circle class="st9" cx="439" cy="448.1" r="10.4"/><path class="st8" d="M402.6 406.7c1.9 19.7 37.6 46.1 77.5 29.3-7.3-32.1-15.1-60.7-15.1-60.7l-57.1 16.1s-7.2-4.3-5.3 15.3z"/><path class="st7" d="m436.2 387.4 10.7 19.7 28.4 1.7-3.2-41.8z"/><path class="st9" d="M439.3 387.8s6.9 12.9 14 13.6c7.1.7 20.3-7.6 20.3-7.6l4.3 12.1-29.7 6.9-16-13.3-5.4-10.7 12.5-1z"/><path class="st3" d="M415.7 400s7.6 37.8 54.3 22.9c46.7-15 6.1-21.9 6.1-21.9s-18.6 10-28.3 6.4c-9.7-3.6-16.1-16.1-16.1-16.1l-16 8.7z"/><path class="st1" d="M421.2 392.4s10 20.7 23.6 22.9c13.6 2.1 28.6-3.3 28.6-3.3"/><path class="st1" d="M409.7 403.1c2.9 24 39 38.6 68.6 24M406.9 409.2l-3.3 1.8M412.5 419.1l-2 2.1M416.4 422.8l-2.1 3.2M421.7 427.7l-1 2.1M426 431l-.7 2.4M431.4 432.8l-.7 2.9M437.4 435.2l-.5 2.9M442.6 436.2l-.4 2.6M448.2 437.1l.4 2.9M453.3 437l.6 2.8M459.3 437l.4 2.8M464.7 436.2l1 2.9M470.4 434.5l.7 2.5M475.3 433.5l.1 2.9"/><path class="st7" d="M469.7 379.3s-53.3 22.1-65.7 27.1c-12.4 5-29.3 3.1-34.7-5.4-6.1-9.7 11.4-29.7 12.6-31.1s-5.4-7.9-7.9-9.7c-2.4-1.9-23.6 0-25-1.1 1.1-3.3 11.1-17.6 17.9-18.3 6.7-.7 96.8 14.3 96.8 14.3l6 24.2z"/><path class="st1" d="M381.9 370c0 2.9 16.4 4.3 19.3 1.1"/><path class="st7" d="M383.3 335s1.4-15.7 3.3-16.4c1.9-.7 40.7 6.9 42.1 8.3 1.4 1.4-1.4 12.6-1.4 12.6l-44-4.5z"/><path class="st2" d="m395 336.1-11.9-1.1s1.4-15.7 3.3-16.4c.6-.3 6 .6 12.6 1.7l-4 15.8z"/><path class="st0" d="M419.4 324.3c5 1.1 8.7 2 9.1 2.4 1.4 1.4-1.4 12.6-1.4 12.6l-9.6-1 1.9-14z"/><path class="st0" d="m374.3 331.7 44.7 5-4.3 15-46.4-10.7z"/><circle class="st0" cx="421.3" cy="345.1" r="10.1"/><circle class="st1" cx="421.2" cy="344.6" r="4.3"/><path class="st7" d="m374.3 331.7 32.9 3.7-2.9 13.9-36-8.3z"/><path class="st9" d="m374.3 331.7 25 2.9-3.4 12.8-27.6-6.4z"/><path class="st1" d="m370.7 336 26.2 4.3"/><path class="st3" d="M365 331c5.4-12.9 16.1 6.4 1.9 10"/><path class="st7" d="M466.9 377.8s-5.4 22.9-4.3 24.3 34.3 2.6 36.1.7c1.9-1.9-5.7-25.7-5.7-25.7l-26.1.7z"/><path class="st0" d="M463.6 393.1c-.9 4.4-1.4 8.4-1 9 1.1 1.4 34.3 2.6 36.1.7.7-.7 0-4.3-1-8.7-.1 0-25.6 1.9-34.1-1z"/><path class="st1" d="m467.9 402.4.4-7.9M473.6 403.1l.7-7.4M479.3 403.5V396M485.4 403.5V396M491.9 403.1v-7.8"/><circle class="st0" cx="480.6" cy="415.1" r="15.9"/><circle class="st1" cx="479.7" cy="416.4" r="7.9"/><circle cx="481.3" cy="359.7" r="23.7" style="fill:#00f"/><path class="st2" d="m457.7 356.1 47.3 1.3s1.3 3.3-.4 7.7l-47-1.6c.1 0-.6-3.8.1-7.4z"/><path class="st2" d="m462.6 372.8 34.3-31.3s4.9 4.3 4.9 6.1L466.9 379c-2.7-1.6-4.3-6.2-4.3-6.2z"/><path class="st2" d="m487.1 337.4-1.4 45.7c-4 1.4-7.9-.4-7.9-.4L479 337c0 .1 4-2.4 8.1.4z"/><path class="st2" d="m495.7 378.8-31.7-35s3.3-4.4 6.4-4.7c0 0 30 34.1 30 33.6.5 2-4.7 6.1-4.7 6.1z"/><circle class="st9" cx="482.1" cy="360.3" r="11.4"/><circle class="st7" cx="482.3" cy="360.4" r="5.1"/><circle class="st1" cx="481.3" cy="359.7" r="23.7"/><circle class="st5" cx="516.3" cy="460.7" r="10.6"/><circle class="st1" cx="516.7" cy="460.5" r="4"/><path class="st3" d="M761.3 210.3c2.9-1.9 16.4-14.6 16-16.1-2.9 1.9-8.1 2.6-9.7 0-3.6-6.1.3-17.1 9.7-15.4 9.6 1.7 6.9 12.9 6.9 12.9s13.3-14 21-6.9c9.7 10.3-10 21-10 21s10-2.1 13.3 3.9c2.7 4.7.3 16.4-7.6 16.4-7.9 0-8.9-8.9-7.6-11.4-2.9.3-19.6 12.9-19.6 12.9s-15.2-15.4-12.4-17.3z"/><path class="st1" d="M777.3 194.2c1.9-4.7-3.1-6.7-5.7-4.6M800.6 216.4c1.1-5-6-5.7-7.4-2.1"/><path class="st7" d="M734.9 230.7s20.4-26 22.9-24.3c2.4 1.7 19.6 22.6 19.7 24.7.3 2.1-30.7 11.4-30.7 11.4l-11.9-11.8z"/><circle class="st5" cx="731.1" cy="241.4" r="17.1"/><path class="st4" d="M726.1 244.6c1.4 7.4-4.6 11.1-4.6 11.1-4.6-3.1-7.6-8.3-7.6-14.3 0 0 10.7-4.2 12.2 3.2z"/><path class="st1" d="M718.5 253c-1.7-1.9-3-4.1-3.7-6.6 0 0 4.3-3.3 6.4-1 2 2.5-2.7 7.6-2.7 7.6zM725.9 231.4l6.2-6.4M730.2 234.3l8.3-6.6M734.5 237.9l10.1-5.5M736.8 241.7l10.6-2.8M747.5 245l-10 1.7M744.6 251.4l-8.7.3"/><path class="st3" d="m641.4 319.6 76.1-69.3s.4-5.4-6.1-3.3c1.4-7.6-5.7-5-5.7-5s.7-5.7-5-2.9c-.7-6.1-6.4-3.6-6.4-3.6s.4-5.7-6.1-3.1c-6.4 2.4-56.8 69.6-56.8 69.6l10 17.6z"/><path class="st1" d="m711.4 247.2-5.7 6.4M705.7 242.2l-5.5 6.7M700.7 239.3l-5 6M694.2 235.7l-4.5 5.3"/><path class="st7" d="M672.5 249.3c-10.6 13.4-31.4 39.8-38.3 49-1.9 2.4-2.9 3.7-2.9 3.7l10 17.6 9.6-8.7 34.3-31.1 11.9-10.9-24.6-19.6z"/><path class="st8" d="m651 310.8 34.3-31.1-22.6-18c-10.6 13.4-23.4 29.8-28.4 36.6l16.7 12.5z"/><path class="st2" d="m651 310.8 22.3-20.3-.7-21-9.9-7.9c-10.6 13.4-5.4 3-10.6 9.9l-1.1 39.3z"/><path d="m658.7 303.8 9.9-9-2-30.1-3.9-3c-2.7 3.4-4.3 5.3-5.4 6.3-.2-.9 1.4 35.8 1.4 35.8z"/><path class="st7" d="m658.8 261 21.1-24.7s-6.9 1.7-6.9-1.9c0-4 6-9 11.7-7.6 5.7 1.4 5 9.3-.4 15-3.9 4-22.9 26.4-22.9 26.4l-2.6-7.2z"/><path class="st7" d="M634.2 302.4s27.6-29.3 27.8-35-1.9-8-5.7-8.3-9.3 2.3-9.7 6.1c-.4 3.9 6.9 3.3 6.9 3.3L631 299l3.2 3.4z"/><path class="st0" d="M751.5 211.3c3.1-3.3 5.6-5.4 6.3-4.9 2.4 1.7 19.6 22.6 19.7 24.7.1.7-3 2.1-7.3 3.7-.6-.2-18.7-23.5-18.7-23.5z"/><path class="st1" d="m756.1 215.7 5-5M759.9 220.6l5.3-4.9M763.5 224.6l5.4-4.6M766.8 229.9l5.3-4.2"/><path class="st4" d="M594.3 380c10.3 2.3 21.1-2.9 21.1-2.9s-3.3-11.1-1.1-13.3c2.1-2.1 28.6-9.7 32.8-18.3 4.3-8.6-7.1-33.3-7.1-33.3s-5-14.3-7.1-15-7.6 1.4 0 16.9c4 15.7-21.1 31.8-21.1 31.8l-18.6 11.9 1.1 22.2z"/><path class="st6" d="M608.4 334.3c-5.6 2-12.4 5-19.6 8.6-3.6-7.6 1-31.4 22.9-40s26.8 29 26.1 31.8c-.7 2.9-24 11.4-25 11.4s-3.4-12.1-4.4-11.8z"/><path class="st7" d="M612.8 346c1.1 0-47.6 45.7-49.7 43.3-2.1-2.4 16.1-27.8 23.6-34 7.4-6.1 16.9-12.6 16.9-12.6l9.2 3.3z"/><path class="st0" d="M611.1 333.6c-21.1 6.4-65.7 32.8-66.1 36.8s6.1 4.7 66.8-24.3c11-13.3 11.4-15.8-.7-12.5z"/><path class="st0" d="M636.4 324c1.3 5.3 1.6 9.7 1.4 10.6-.7 2.9-24 11.4-25 11.4s-3.4-12-4.4-11.7l28-10.3z"/><path class="st1" d="M600 322.1c4.7-1.9 5.9 4.1 8.4 12.3M611.8 318.8l7.2 25M626.4 341l-7.9-22.9M633.2 337.4l-7.1-22.4"/><path class="st0" d="M640 312.4s-5-14.3-7.1-15-6.6 2.3 1 17.6l6.1-2.6z"/><path class="st8" d="M632.1 382.8c-.7-7.1-13.6-12.4-17.9-10.1.4 2.4 1 4.3 1 4.3s-10.9 5.1-21.1 2.9l-.3-4.7s-14.7 4.3-11.9 16c1.7 6.1 15.4 8.3 26.7 6.1 11.4-2.2 24.2-7.3 23.5-14.5z"/><path class="st1" d="M584 383.1c-.3 1 5.7 7.9 22.1 4.6 16.4-3.3 20.7-11 19.6-12.4M587.8 395.3l-.3-4M593.8 397.4l-.7-4.6M600.7 398.4l-1-4.3M607.1 397.8l-1-4.7M613.2 396.3l-1.4-4.6M619.5 393.5l-1.7-3.7M626 390.5l-2.8-4.1M630.4 386l-3-3.2"/><path class="st3" d="M627.4 729.7s20.3 25 22.1 26.4c2.6 2.1 6.4-.7 5-3.3 1.7 2.6 6.9-.4 4.6-3.3 2.9 3.3 6.1-1.7 3.6-3.9 2.9 2.1 6.7-2.9 3.6-5.3s-27.8-22.9-27.8-22.9l-11.1 12.3z"/><path class="st1" d="m662.5 745.6-3.3-3.3M655 746.1l3.9 3.3M654.5 752.7l-3.4-3"/><path class="st8" d="M614 713.4s11 20.7 12.4 20c1.4-.7 14.7-15.4 14.7-17.6 0-2.1-19.7-11.1-19.7-11.1l-7.4 8.7z"/><path class="st7" d="M614 713.4s4.6 8.7 8.1 14.6l13.7-16.1c-5.9-3.3-14.4-7.3-14.4-7.3l-7.4 8.8z"/><circle class="st8" cx="612.4" cy="705.2" r="11.1"/><circle class="st1" cx="612.4" cy="705.4" r="4"/><circle class="st3" cx="596.1" cy="694.7" r="11.1"/><circle class="st1" cx="596.1" cy="694.9" r="4"/><circle class="st8" cx="580.7" cy="683.3" r="10.7"/><circle class="st1" cx="580.7" cy="683.5" r="3.9"/><circle class="st3" cx="565" cy="670.6" r="10.7"/><circle class="st1" cx="565" cy="670.9" r="3.9"/><circle class="st8" cx="549.6" cy="661.3" r="10"/><circle class="st1" cx="549" cy="661.6" r="3.7"/><circle class="st0" cx="302.9" cy="714.4" r="15.3"/><circle class="st1" cx="303.6" cy="714.2" r="5.3"/><path class="st7" d="m300.8 695.4 46.1-48.5 30.3-4.9-56.2 72z"/><path class="st0" d="m326 707.6-5 6.4-20.2-18.6 5.5-5.8z"/><path class="st8" d="m317.2 678.2 29.7-31.3 30.3-4.9-41.6 53.3z"/><path class="st1" d="m321.9 682.6 37-42M331.9 671.6l11.7 11.9M334.8 668l11.7 11.2M344.8 657l11.7 11.5M348.6 652.3l11.7 11"/><circle class="st1" cx="332.6" cy="682.7" r="2.7"/><circle class="st1" cx="345.5" cy="668" r="2.7"/><circle class="st1" cx="359.8" cy="652" r="2.7"/><path class="st0" d="m359.8 534.2-48.3-21.4s-21.1 69.3-4 152.1c13.3-5 66.1-19.7 66.1-19.7l-.4-103.3-13.4-7.7zM538.6 652c19.6-4.3 67.1 10.3 67.1 10.3l5.4-134-55.7 15.7-24.6 40.7-2.6 60c.1 0-9.2 11.6 10.4 7.3z"/><path class="st0" d="m566.7 565.6-1.3 60.6h21.7l.7-60.6z"/><path d="m587.7 577.6.1-12h-21.1l-.3 11.5z"/><path class="st7" d="m587.3 610.6.2-25.7-21.2-.1-.5 25.4z"/><path d="m565.7 616.3-.3 9.9h21.7l.2-9.6z"/><circle class="st0" cx="575.8" cy="598.9" r="3.4"/><path class="st0" d="M418.2 646.9c24 1.4 32.8-8.6 32.8-8.6s1 10.4 40.4 11.4c39.6 1 12.9-18.1 12.9-18.1l-69.6-7.1-20.7 5s-20 16 4.2 17.4z"/><path class="st4" d="m490.7 652.6 13.6.9-.4 11.4 15.4.7.4 11.4 23.6.7-5.5-38.5-44.5-.6zM418.2 637.6l-49.3-.7-2 33.3 15 .7 2.4-16.4 18.2-.3.4-7.9 15.3.6z"/><path class="st3" d="m368.2 580.9.7 56 168.9 2.3 6.5-50-10.5-33.7-163.3-6.3z"/><path class="st3" d="M357.5 529.5s-3.9 51.8-2.4 56.7l21 1 1-18.6L535.6 579l-.4 15.7 20.4-.4 3.3-58.1-201.4-6.7z"/><path class="st7" d="M389.7 550.9s5.7 59.6 11.4 63.8c57.6-.4 109 2.9 109 2.9l19.6-60.4c-33.3-10.6-140-6.3-140-6.3z"/><circle class="st3" cx="454.3" cy="581.6" r="22.6"/><path class="st4" d="M441.6 562.9c-2.6 1.7-4.7 4-6.4 6.6l30.6 31.7c2.3-1.4 4.4-3.1 6.1-5.3l-30.3-33z"/><path class="st4" d="M432 585.5c-.3-1.3-.3-2.6-.3-3.9 0-1 0-1.9.1-2.9l44.8-.4c.1 1 .3 2.1.3 3.3 0 1.3-.1 2.7-.3 3.9H432z"/><path class="st4" d="M442.4 600.9c-2.3-1.4-4.3-3.1-5.9-5.3l30.7-32.6c2.4 1.7 4.6 4 6.1 6.6l-30.9 31.3z"/><path class="st4" d="M458.3 559.3c-1.3-.3-2.6-.3-4-.3s-3 .1-4.4.4l1.6 44.6c1 .1 1.9.1 2.9.1 1.1 0 2.1-.1 3.1-.3l.8-44.5z"/><circle class="st3" cx="454.6" cy="581.5" r="10.4"/><path class="st0" d="m323.6 561.2 1.2 62.8 22-.7-1-63.5z"/><path d="m324.6 610.2.2 13.8 22-.7-.3-13.5zM345.9 572.1l-.1-12.3-22.2 1.4.3 12.9z"/><path class="st7" d="m323.9 579.9.6 24.6h22l-.5-25z"/><circle class="st0" cx="164.4" cy="660.6" r="10"/><circle class="st1" cx="164.4" cy="660.6" r="3.4"/><path class="st5" d="M138 688.7c5-9.7 43.6-19.7 43.6-19.7l18.3-4.6 18.3 3.1-1.4 34-52.1-8.9c0 .1-27.9 0-26.7-3.9z"/><path class="st7" d="m210.5 668.7-39.7.5 2.2-20.5 42.8 10.8z"/><path class="st9" d="m210.5 668.7-19 .2 1.2-15.3 23.1 5.9z"/><path class="st1" d="m192.7 660.2 18.5 3.5"/><path class="st8" d="m179.4 669-8.6.2 2.2-20.5 7.8 2z"/><path class="st0" d="m214.4 669.5-4.6 29.2 34.6-.3-1-24.2zM164.7 692.7s-24-6.1-26.7-4c-2.7 2.1-6.1 6.1-6.7 8.3-.6 2.1 32.4 3.9 32.4 3.9l4.3-4-3.3-4.2z"/><path class="st1" d="m137.2 698.4 4.3-8.5M143.7 699.2l2.5-9M150.8 699.4l1.4-7.8M156.8 700.2l1.4-8.3"/><path class="st7" d="M212.2 658.7c-2.6 1.1-5.7 9-3.6 11.1s32.1 8.6 34.7 7.9c2.6-.7 3.6-8.6 1.1-10.4s-29.6-9.6-32.2-8.6z"/><path class="st0" d="M164.4 693.4c-1.4.4-2.9 6.9-.7 7.6 2.1.7 78.3 3.6 80.4 3.6s2.6-8.3.4-8.3-78.7-3.3-80.1-2.9zM428.3 689.9s1.7-17.6 6-18.9c4.3-1.1 29.3 3.3 31.1 4.6 1.9 1.1 2.9 17.4 2.9 17.4l-25.4 6.1-14.6-9.2z"/><path class="st0" d="M466.9 668.7s-36-11.9-39.6-13.6-6.7 5-2.9 6.9c-4-1.7-5.7 4.6-2.1 6-4-1.4-5.7 4.3-1.7 5.3-4-1.1-6.1 6.4-1.7 6.9 4.6.4 51 1.9 51 1.9l-3-13.4z"/><path class="st7" d="M454.7 681.6c8.6.3 15.3.4 15.3.4l-3.1-13.3s-4-1.3-9.6-3.1l-2.6 16z"/><circle class="st8" cx="474" cy="673.9" r="10.4"/><circle class="st1" cx="473.9" cy="673.9" r="3.7"/><path class="st3" d="M449.3 662.9c-9.7-3.3-20-6.9-21.9-7.7-3.6-1.7-6.7 5-2.9 6.9-4-1.7-5.7 4.6-2.1 6-4-1.4-5.7 4.3-1.7 5.3-4-1.1-6.1 6.4-1.7 6.9 2.3.3 15 .7 27.1 1.1l3.2-18.5z"/><path class="st1" d="m431.9 674.2-11.2-.9M431.9 668.5l-9.5-.5M432.2 663.5l-7.6-1.5"/><path class="st8" d="M409.3 751.1s-5 7.6-1.4 11.7c3.6 4 9.7-1.1 10.3-.3 1.7 2.1-15.4 16-11 16 15.3-.7 29.3-27.8 29.3-27.8l-9-8.1-18.2 8.5zM511.9 749.9s4 9.3 2.1 12.1c-3 4.4-7.7-1.7-8.1-.7-1.9 3.6 16 15.3 11.6 15.3-25.1-.4-27.8-26.4-27.8-26.4l7-8.9 15.2 8.6z"/><path class="st3" d="M521.4 706.9c-52.6-2.6-127.1 4-127.1 4s-5.7-19 3.3-20c5.4-.7 8.1 10.3 8.1 10.3s-.3-12.9 8.1-12.9c8.3 0 9.3 11.7 9.3 11.7s0-12.9 7.6-12.6 8.9 11.7 8.9 11.7 3.9-13.9 11.7-12.9c7.9 1 8.6 10.4 8.6 10.4s2.1-11.4 8.3-11c6.1.4 7.1 8.9 7.1 8.9s.7-9 7.4-9.3c6.7-.3 8.1 8.6 8.1 8.6s-.4-10 8.6-10.3c9-.3 9.6 10 9.6 10s1.9-9.3 9.7-7.9c7.9 1.6 2.7 21.3 2.7 21.3z"/><path class="st1" d="m507.9 707.3 1-13.9M490.3 707l.4-13.3M475.3 707.3v-12.9M459.7 696.6l-.1 11M440.4 708.7l-.8-9.7M424 710.2l-.8-10.3M405.7 701.2l1.9 10.7"/><path class="st7" d="M394.3 710.9s74.5-6.7 127.1-4l-6.1 43.1-106 1.1-15-40.2z"/><path class="st8" d="M397.9 720.4s25.4-2.1 62.4-2.9c37-.7 59.7 0 59.7 0l-4.7 32.4-106 1.1-11.4-30.6z"/><path class="st1" d="M401 727.3c52.8-4.6 117.8-2.1 117.8-2.1M406.7 743.3l109-.3M422.4 743.4l.8-17.2M428.9 743.4v-17.2M459.3 743l.3-18.3M465.4 742.6v-17.7M493.3 743l-.2-17.8M498.9 743l.4-17.4"/><circle class="st1" cx="412.6" cy="734" r="3.3"/><circle class="st1" cx="444" cy="734" r="3.3"/><circle class="st1" cx="478.3" cy="734" r="3.3"/><circle class="st1" cx="508.3" cy="734" r="3.3"/><path class="st0" d="m697.4 446.9 16.8 15.6-20.3 22.7-15.5-16.3z"/></svg>