<svg version="1.1" id="Calque_1" xmlns="http://www.w3.org/2000/svg" x="0" y="0" viewBox="0 0 900 900" style="enable-background:new 0 0 900 900" xml:space="preserve"><style>.st0{fill:#195e00;stroke-width:3.5274;stroke-linecap:round;stroke-linejoin:round}.st0,.st1,.st2{stroke:#000}.st1{fill:none;stroke-width:3.5274;stroke-linecap:round;stroke-linejoin:round}.st2{fill:red}.st2,.st3,.st4{stroke-width:3.5274;stroke-linecap:round;stroke-linejoin:round}.st3{fill:#ff9d00;stroke:#000}.st4{fill:#fff}.st4,.st5,.st6{stroke:#000}.st5{fill:#f79c0f;stroke-width:3.5274;stroke-linecap:round;stroke-linejoin:round}.st6{fill:#ff4800}.st12,.st6,.st7,.st8,.st9{stroke-width:3.5274;stroke-linecap:round;stroke-linejoin:round}.st7{fill:none;stroke:red}.st12,.st8,.st9{stroke:#000}.st12,.st9{fill:#133f00}.st12{fill:#525b00}</style><path class="st0" d="M165.8 318.9c3.5 9.3 7.9 112 13.2 123 5.3 11 21.6 18.5 21.6 18.5l22.9.9L216 441s-20.3 1.8-23.4-5.3c-3.1-7.1-10.1-112-12.8-119.9-1.7-2.2-12.7-.9-14 3.1z"/><path class="st0" d="M101.4 344.5s51.2 102.3 69.2 119.9 24.7 18.5 24.7 18.5l25.6-2.6-7.5-20.3s-25.1-4-32.2-8.8C174.1 446.3 112 337 112 337l-10.6 7.5z"/><path class="st1" d="M120.5 365.6s41.3 83.4 62.5 94.9M176.1 350.3s5 82.4 12.2 91c8.9 9.3 24.8 7.3 24.8 7.3"/><path class="st2" d="M214.7 468c-12.8.4-28.2 4.4-47.6-25.6-17.3-26.8-21.6-83.8-37.5-113.8 2.6-8.4 8.8-8.4 12.3-5.3 10.1 21.6 28.2 98.3 37 112.5 11.9 19 22.5 19.8 34.8 18.5 12.5-1.3 13.8 13.2 1 13.7z"/><path class="st3" d="M183.8 350.1c-1.6-17.5-3-31.5-3.9-34.2-1.8-2.2-12.8-.9-14.1 3.1 1.2 3 2.4 16.1 3.8 32.8l14.2-1.7zM127.9 364.8c-9.3-16-16-27.8-16-27.8l-10.6 7.5s5.7 11.5 14.1 27.4l12.5-7.1z"/><path class="st2" d="M92.1 318.5s-15.9-23.8-15.9-26.9c0-3.1 8.8-5.7 11-6.2s12.8 28.2 12.8 28.2l-7.9 4.9zM133.6 304.8s-6.2-26.5-9.7-28.2-14.6 2.2-15.4 6.2 15.4 26.5 15.4 26.5l9.7-4.5zM163.1 298.2s-7.9-27.3-7.5-29.5c.4-2.2 11.5-3.1 13.2-1.3s4.9 29.5 4.9 29.5l-10.6 1.3z"/><path class="st3" d="M98.7 333s-9.3-10.8-9.3-14.6c0-3.1 13.2-10.6 15.9-7.5 2.6 3.1 4 17.2 4 17.2L98.7 333zM138.9 315.4s-.4-11.5-2.2-12.8-16.3 3.1-15.9 6.6 7.5 10.6 7.5 10.6l10.6-4.4zM160.9 297.3c-1.8 1.3 1.3 10.6 1.3 10.6l15.9-1.3s0-8.8-1.3-10.6c-1.3-1.8-14.1 0-15.9 1.3z"/><path class="st2" d="M93.4 334.8c-1.3 3.5 4 14.1 7.9 12.8s11.9-6.2 12.8-8.4-2.2-13.7-5.7-13.7-13.7 5.8-15 9.3zM129.6 328.6c-2.2-.9-5.7-8.4-4.4-10.1s12.3-5.7 15-5.7 5.7 11.9 3.5 13.2c-2.2 1.3-11.9 3.5-14.1 2.6zM160 308.8c-2.6 1.8.4 10.6 3.5 12.8 3.1 2.2 15.9 0 17.6-2.2 1.8-2.2-.4-11.5-3.1-12.8-2.5-1.4-15.3.4-18 2.2z"/><path class="st0" d="M219.1 490.5c-9.7 5.7-34.8 30.9-55.1 55.1-20.3 24.3-56.5 60.4-56.5 60.4l8.8 9.7s47.2-43.7 60.9-63.5c13.7-19.8 33.1-42.8 45-48.1 11.9-5.3 6.6-19.4-3.1-13.6zM226.2 515.2c-23.4 11-37 37.5-47.6 73.2-10.6 35.7-16.3 61.3-16.3 61.3h11.9s11.5-39.2 19.4-61.7c7.9-22.5 12.3-51.2 35.3-60 19.8-7.1 20.6-23.9-2.7-12.8z"/><path class="st1" d="M110.3 612.6c49.3-46.3 91.6-104.2 109.8-114.8M167.9 649.3c7.3-17.2 21.2-109.5 58.9-127.7"/><path class="st2" d="M124.3 640.9c14.1-18.5 63.1-123 97.9-136.7 4.9-4 32.2-.4 3.1 12.3-29.1 12.8-78.9 117.3-87.8 128.8-6.1 2.6-12.8 2.6-13.2-4.4zM93 626.7s-15.9 15.9-17.6 19.8 3.5 9.3 8.8 8.4c5.3-.9 18.1-20.7 18.1-20.7l-9.3-7.5zM121.7 648.8s-11 16.3-11.9 19c-.9 2.6 7.1 8.4 10.6 6.2s10.6-20.7 10.6-20.7l-9.3-4.5zM160.9 669.1s-4 17.6-3.1 20.7c.9 3.1 10.6 4 11.5.4s2.2-20.7 2.2-20.7l-10.6-.4zM97.4 616.6c-.4 4 8.8 12.8 11.9 11.5s9.3-9.3 9.3-12.3-8.4-9.3-11-9.7c-2.7-.5-9.8 6.5-10.2 10.5zM161.8 647.9c-2.2.9-4.4 13.2-3.5 16.3s15 1.8 15.4-.4c.4-2.2 1.3-11.9.4-14.1-.9-2.2-10.1-2.7-12.3-1.8z"/><path class="st3" d="M175.5 671.7c.9-2.6 1.3-8.4 0-9.3-1.3-.9-15.9-.9-18.1.4-2.2 1.3-.9 6.6-.4 8.8.4 2.3 17.6 2.8 18.5.1zM123.9 639.1c-2.6 0-5.3 8.4-4 10.6 1.3 2.2 12.3 7.9 15 7.1s4.9-10.6 3.5-12.3c-1.3-1.9-11.9-5.4-14.5-5.4zM97.1 617.9c-2-.3-7.6 4.9-7.6 7.9 0 3.1 10.1 11.9 13.2 11.9s7.3-7.3 6.6-9.7c-.7-2.4-10.2-9.8-12.2-10.1z"/><path class="st4" d="M179.9 480.8c-26.5 1.3-55.6 8.8-55.6 15.4s26.5 12.3 59.1 8.4c8.4-6.6 4.9-10.6 4.9-10.6s18-14.6-8.4-13.2z"/><path class="st0" d="M152 484.2c-2 .4-3.9.8-5.8 1.3l.5 19.6c1.7.2 3.5.4 5.3.5v-21.4zM130.9 495.8c0-2.2 9.7-3.5 9.7-3.5v6.2c0-.1-9.7-.5-9.7-2.7z"/><path class="st5" d="M180.7 483.4c-4.4 11.5 2.6 14.6 2.6 14.6l9.3 1.3 9.7-9.3-6.2-8.8c.1 0-7 1.8-15.4 2.2z"/><path class="st3" d="M197.1 480.3s-12.8-7.5-16.3-7.1-4.4 10.1-1.3 12.3c3.1 2.2 15.4 2.6 15.4 2.6l2.2-7.8zM195.7 491.4s-12.8 4.9-13.7 7.5c-.9 2.6.9 9.3 4 9.3s12.3-12.3 12.3-12.3l-2.6-4.5z"/><path class="st4" d="M217.8 487.2c0 7.2-5.8 13-13 13s-13-5.8-13-13 5.8-13 13-13 13 5.8 13 13z"/><path class="st3" d="m258.8 429.2-49.4 2.2s3.1 66.2 26 111.1l112-58.7-41.9-43.7-46.7-10.9z"/><path class="st6" d="M261.9 437.1c1.3 30 19 81.6 19 81.6l20.1-10.5-17.9-54.8-9.3-15.9-11.9-.4z"/><path class="st0" d="m294.7 489.1-4.2-12.7s-4.9 7.1-9.3 8.4c-4.4 1.3-10.5.5-10.5.5.9 3.5 1.9 6.9 2.8 10.1 0 0 5.9-4.5 9.4-5.8 3.7-1.3 11.8-.5 11.8-.5zM285.2 459.9l-2.1-6.5-9.3-15.9-11.9-.4c.4 8.7 2.1 19.1 4.4 29.6 0 0 4-4.5 9.3-5.4 5.3-.8 9.6-1.4 9.6-1.4zM297.4 497.5l3.5 10.8-20.1 10.5s-1.1-3.2-2.8-8.5c0 0 8.9.6 12.5-1.2 3.6-1.9 6.9-11.6 6.9-11.6zM347.4 483.9l-39.3 20.6s-10.5-26.3-15.8-44.9c-5.3-18.5 43.2 1.8 43.2 1.8l11.9 22.5z"/><path class="st4" d="m238.5 430.1-6.6.3-6.2.3s2.6 22.3 9.7 52.3 16.2 51 16.2 51l4.9-2.6 6.3-3.3"/><path class="st2" d="m270.9 523.9-14.3 7.5s-6.6-18.5-14.5-49.8-10.1-51.3-10.1-51.3l16.8-.7s2.2 22 8.4 48.1c6 26 13.7 46.2 13.7 46.2z"/><path class="st3" d="M377.4 501.9s-100.5-33.5-125.2-77.2c-38.4-63.1-26.9-176.4 29.5-212.1 49.4-31.3 112.5-24.7 112.5-24.7l7.9 82.9L392 445.1l5.3 46.3-19.9 10.5z"/><path class="st7" d="m359.4 211.8-2.4-22.5M366 211.8l-1.7-22.9M309.1 225.9l-13.3-20.3M302.5 229.4l-12.6-19.6M267.2 269.1l-21.6-10.2M264.5 276.6 243.3 266M231 342.7l23.8-1.7M232 352.3l23.3-2.9M247.6 412.5l23.6-15.1M252.8 422.1l22.3-19.4M307.8 469.1l15-24.5M316.7 474l13.6-26.3"/><path class="st1" d="M377.4 501.9s-100.5-33.5-125.2-77.2c-38.4-63.1-26.9-176.4 29.5-212.1 49.4-31.3 112.5-24.7 112.5-24.7"/><path class="st7" d="M394.6 227.2s-115.5-3.5-123.9 96.6 90.8 122.6 90.8 122.6"/><path class="st2" d="M259.2 464c-3.1-2.6 44.5-66 44.5-66l20.5 18.5c.1 0-61.9 50.2-65 47.5zM286.6 301.3l-4.9 20.7s-76.3-19.4-76.7-23.4c-.4-3.9 81.6 2.7 81.6 2.7zM318.8 172.9c-4 1.8 14.4 78.2 14.4 78.2l22.5-9.3c0 .1-32.9-70.6-36.9-68.9z"/><path class="st0" d="M395.1 236.5s-100.5-8.8-113.3 83.8 83.4 116.9 83.4 116.9l26.9-2.6 6.6-183-3.6-15.1z"/><path class="st2" d="M300.3 349.8s-84.7 30-84.7 34 91.7-7.5 91.7-7.5l-7-26.5zM313.1 284.1s-61.7-55.6-59.1-58.7c2.6-3.1 74.5 43.7 74.5 43.7l-15.4 15zM392 253.2s-2.2-72.8 4.4-72.8 10.6 72.8 10.6 72.8l-14.6.9-.4-.9zM368.2 420.8s-24.7 75-21.6 76.3 45.4-68.8 45.4-68.8l-23.8-7.5z"/><path class="st4" d="M390.2 427.4s-39.7-2.2-68.8-30c-39.7-37.9-24.7-114.2 8.8-131.9 31.9-16.8 80.7-12.3 80.7-12.3l6.2 70.1-15 90-11.9 14.1z"/><path class="st2" d="M392 419.9s-39.7-10.6-62.6-28.7-22-93.5 4.9-109.4c26.9-15.9 71-12.3 71-12.3l6.2 58.7-8.4 78.9-11.1 12.8z"/><path class="st0" d="M384.9 387.3c-31.3-7.1-50.3-22.5-47.6-58.7 2.6-36.2 26.5-34.4 26.5-34.4l25.1 3.5 12.8-5.3 4 12.3-11 79.8c-.1.1-.1 6.3-9.8 2.8z"/><path class="st1" d="M386.3 379.3c-30.9-11.9-41-23.8-39.7-46.7 1.3-22.9 15-31.7 15-31.7"/><path class="st0" d="M370.8 318c-2.2-9.7-7.9-12.8-10.1-18.5-1.3-9.3 12.8-12.3 21.6-10.1s15.4 28.7 15.4 28.7l-8.4 8.8s-16.3.8-18.5-8.9z"/><path class="st2" d="M375.7 318c0-10.1-6.2-15.9-7.1-17.6-.9-1.8 4.9-4.4 8.8-2.2 4 2.2 9.7 23.4 9.7 23.4s-11.4 6.6-11.4-3.6z"/><path class="st2" d="M366.9 327.3s-23.4 47.2-24.3 51.2c-.9 4 7.9 7.5 10.6 5.7 2.6-1.8 23.8-55.1 23.8-55.1s-14.6 53.8-14.6 57.8 10.1 4.4 11.5-.4c1.3-4.9 12.3-43.7 12.3-43.7l8.8-9.3-6.2-8.8-15.4-1.3-6.5 3.9z"/><path class="st3" d="M395.5 321.6s-26-6.2-28.2-5.7c-2.2.4-3.1 8.8-2.2 11.5.9 2.6 26.9 5.6 26.9 5.6l3.5-11.4z"/><path class="st3" d="M400.4 294.7c-2.6 28.2-15.9 41.9-17.2 48.5-1.3 6.6 7.1 6.2 8.8 4"/><path class="st0" d="M366.7 368.2c-2.4 9.4-4.3 17.2-4.3 18.7 0 4 10.1 4.4 11.5-.4.5-1.8 2.3-8.3 4.4-15.7l-11.6-2.6zM349.3 363.3c-3.6 7.6-6.4 13.8-6.7 15.1-.9 4 7.9 7.5 10.6 5.7.9-.6 4-7.2 7.6-15.6l-11.5-5.2z"/><path class="st3" d="M600.2 475c0 4.4-3.5 7.9-7.9 7.9s-7.9-3.6-7.9-7.9c0-4.4 3.6-7.9 7.9-7.9 4.3 0 7.9 3.6 7.9 7.9zM626.6 463.1c0 4.4-3.6 7.9-7.9 7.9-4.4 0-7.9-3.6-7.9-7.9 0-4.4 3.6-7.9 7.9-7.9s7.9 3.5 7.9 7.9z"/><path class="st0" d="M609.9 508.6s-14.6-20.3-11.9-26.9c2.6-6.6 13.7-10.1 20.3-9.3 14.1 2.6 20.3 32.2 20.3 32.2l-28.7 4z"/><path class="st3" d="M619.1 505.5s-9.3-17.6-10.1-19.4c-.9-1.8 5.3-5.3 7.9-2.6 2.6 2.6 13.2 20.7 13.2 20.7l-11 1.3z"/><path class="st1" d="M344.4 580.4s-25.8 24.7-47.8 46.5c-2.6 2.6-5.3 5.2-7.7 7.7l-.4.4"/><path class="st0" d="M377.9 657.6s1.8 24.3 4 24.7 8.4-1.3 9.3-3.1c.9-1.8-1.3-24.3-1.3-24.3l-3.1-6.2-8.9 8.9z"/><path class="st2" d="M410.1 649.9c0 6.9-6 12.6-13.5 12.6-7.4 0-13.5-5.6-13.5-12.6s6-12.6 13.5-12.6c7.4 0 13.5 5.7 13.5 12.6z"/><path class="st3" d="M413.2 642.2c0 6.8-5.1 12.3-11.5 12.3s-11.5-5.5-11.5-12.3c0-6.8 5.1-12.3 11.5-12.3 6.3-.1 11.5 5.5 11.5 12.3z"/><path class="st6" d="m436.5 631.6 15.9 3.8 31.1-7.1s-5.5-12.6-9.5-15.7c-4-3.1-32.6-10.4-32.6-10.4l-12.1 3.8 7.2 25.6z"/><path class="st3" d="M501.6 638.7s-1.1-14.3-4.9-15.7c-3.8-1.3-10.8 2.9-11.7 6.4-.9 3.5 2.9 16.5 2.9 16.5l7.5-.9 6.2-6.3zM514.2 668.6s9.5 7.9 11.7 7.5c2.2-.4 6.4-5.7 4.9-9.3s-11.5-5.5-11.5-5.5l-5.1 7.3z"/><path class="st0" d="m493.4 652.3 13 12.6 7.5-6.4-10.3-13z"/><path class="st2" d="M489.4 643.1s10.8-6.8 12.3-6.4c1.6.4 4 8.4 3.5 9.5-.4 1.1-13.7 9.3-13.7 9.3l-5.5-6.6 3.4-5.8zM503.3 664.5c-.2 2.2 5.5 8.4 8.4 7.7 2.9-.7 10.1-10.8 9.9-12.8-.2-2-6.6-4.9-7.9-4.6-1.3.2-10.1 7.5-10.4 9.7z"/><path class="st6" d="M461.9 658.7 487 711l28.2 1.1-25.3-62.2z"/><path class="st4" d="M485.5 176.9s27.3-7.1 31.3-4c4 3.1 3.1 6.6 7.1 7.9 4 1.3 15.9-2.2 18.5.4 2.6 2.6 1.8 8.8 5.7 11.5s12.8 0 15.9 3.1c3.1 3.1 5.3 9.7 8.4 12.8s11.5.9 14.1 3.1c2.6 2.2 2.2 7.9 4 10.6 1.8 2.6 13.7 3.1 15.4 5.7 1.8 2.6-1.8 5.7-.4 7.5s6.6 0 8.8 4c2.2 4-6.2 11.5-6.2 11.5l-93.9-60.4-30.4-2.6 1.7-11.1z"/><path class="st0" d="M478.4 206s7.5-7.9 24.7-7.5c17.2.4 105.8 84.7 111.1 87.8 5.3 3.1 8.4-2.2 5.7-5.3 4 3.1 10.6-3.5 7.5-7.1 3.5 2.6 9.3-4.4 6.2-7.5-3.1-3.1-99.7-81.1-130.1-86-8.8-.9-20.3 3.5-20.3 3.5l-15 10.1.4 11.5 9.8.5z"/><path class="st1" d="m620 281-23.5-22.3M627.5 273.9s-20-18.7-23.1-21.8M472.8 201.5s15.2-13.9 32.1-12.6c16.9 1.3 54.3 34.4 54.3 34.4"/><path class="st3" d="M593.5 268.6s17.2-21.2 17.6-20.3c-12.6-9.8-29.1-22.2-45.7-33.8l-15.6 16.1 43.7 38z"/><path class="st2" d="M575.4 255.4c2.2-2.6 16.8-22.5 17-21.3-5.2-3.9-10.6-7.9-16.2-11.9 0 0-17.6 16.4-18 19.1-.4 2.7 15 16.8 17.2 14.1z"/><path class="st4" d="M437 186.2s5.9-34.7 8-40.9c3.6-10.6 26.8-5 25.5 11.8 11.5-8.8 27.3 2.6 23.8 14.1-2.6 7.1-22.9 30.4-22.9 30.4L437 186.2z"/><path class="st0" d="M488.7 180.2c-2.1 2.8-4.5 5.9-6.8 8.9l-41.8-20.3c.6-3.3 1.3-6.7 1.9-9.9l46.7 21.3z"/><path class="st8" d="M446.3 154.5s4-15.5 13.6-9.3c8.3 4.6 3.3 17.2 3.3 17.2l-16.9-7.9zM471.8 166.1s6.6-11.3 14.6-6.3c6 4 1.7 14.6 1.7 14.6l-16.3-8.3z"/><path class="st2" d="m426.4 235.1-.9-31.3s23.4-4.9 45 17.2l-24.3 19.4-19.8-5.3z"/><path class="st3" d="m430.8 182.2 1.3 21.2c8.5.1 23.8 2.8 38.4 17.6l11.9-14.6c0 .1-26-20.2-51.6-24.2z"/><path class="st4" d="M301.4 317.4c0 5.8-4.7 10.6-10.6 10.6-5.8 0-10.6-4.7-10.6-10.6 0-5.8 4.7-10.6 10.6-10.6 5.8 0 10.6 4.7 10.6 10.6z"/><path class="st1" d="M294.3 317.6c0 2.3-1.9 4.2-4.2 4.2-2.3 0-4.2-1.9-4.2-4.2 0-2.3 1.9-4.2 4.2-4.2s4.2 1.9 4.2 4.2z"/><circle class="st4" cx="345" cy="248.6" r="10.6"/><path class="st1" d="M348.5 248.8c0 2.3-1.9 4.2-4.2 4.2-2.3 0-4.2-1.9-4.2-4.2 0-2.3 1.9-4.2 4.2-4.2s4.2 1.9 4.2 4.2z"/><path class="st4" d="M329.1 406c0 5.8-4.7 10.6-10.6 10.6S308 411.9 308 406s4.7-10.6 10.6-10.6c5.8 0 10.5 4.8 10.5 10.6z"/><path class="st1" d="M322.1 406.2c0 2.3-1.9 4.2-4.2 4.2-2.3 0-4.2-1.9-4.2-4.2 0-2.3 1.9-4.2 4.2-4.2 2.3.1 4.2 1.9 4.2 4.2z"/><path class="st6" d="m369.9 598.5 5.3 20.7c-7.9 4.4-61.3 61.3-65.7 76.7 3.1 3.5 30.4 0 30.4 0s63.1-59.5 67.9-70.1c4.9-10.6 4-30 4-30l-22.9-8.4-19 11.1z"/><path class="st2" d="M406.6 600.3S393.4 722 395.1 724.2s58.7 4 59.1.9-6.6-19.4-11.9-34.8c-5.3-15.4-5.7-86.9-5.7-86.9l-30-3.1z"/><path class="st4" d="M442.3 690.2c-.9-2.5-1.6-6.5-2.2-11.5l-41.6-.5c-.4 4.3-.8 8.6-1.2 12.6l45-.6zM396 705.2c-.9 11-1.4 18.4-.9 19 1.8 2.2 58.7 4 59.1.9.3-2-2.6-9.6-6.1-19 0 0-52-1.4-52.1-.9z"/><path class="st1" d="M412.7 684.8c0 1.4-1.1 2.5-2.5 2.5s-2.5-1.1-2.5-2.5 1.1-2.5 2.5-2.5 2.5 1.2 2.5 2.5zM433.9 684.8c0 1.4-1.1 2.5-2.5 2.5s-2.5-1.1-2.5-2.5 1.1-2.5 2.5-2.5 2.5 1.2 2.5 2.5zM441.8 716.6c0 1.4-1.1 2.5-2.5 2.5s-2.5-1.1-2.5-2.5 1.1-2.5 2.5-2.5 2.5 1.1 2.5 2.5zM426 716.6c0 1.4-1.1 2.5-2.5 2.5s-2.5-1.1-2.5-2.5 1.1-2.5 2.5-2.5c1.3 0 2.5 1.1 2.5 2.5zM410.1 716.6c0 1.4-1.1 2.5-2.5 2.5s-2.5-1.1-2.5-2.5 1.1-2.5 2.5-2.5c1.3 0 2.5 1.1 2.5 2.5z"/><path class="st0" d="M240.7 677s-3.5 7.1-2.2 13.7c1.3 6.6 16.8 22.9 20.7 28.7 4 5.7 12.3 14.6 11.5 17.2-.9 2.6-5.7 5.7-7.9 5.3-2.2-.4-7.9-9.3-12.8-15-4.9-5.7-19-24.7-22-31.7-3.1-7.1-3.1-16.3-3.1-16.3l8.4-10.6 7.4 8.7z"/><path class="st0" d="M226.6 663.3s-11.9 7.9-13.7 16.3c-1.8 8.4-2.2 56-2.2 59.5s-.4 13.2-.4 16.8 11.9 3.5 12.3-.4c.4-4 .6-11 .4-16.8-.3-10 0-51.7 0-51.7l9.3-15.2 4-6.7-9.7-1.8z"/><path class="st6" d="M220 654.1s-10.1 10.6-18.1 13.2c1.3-7.9-8.4-7.9-12.3 0-4 7.9 5.3 20.7 14.6 15.4 9.3-5.3 23.8-19.8 23.8-19.8l-8-8.8z"/><path class="st1" d="M201.9 667.3c.4 5.3-4 7.1-4 7.1"/><path class="st2" d="M231.5 667.3s-14.1 7.1-8.8 30.9c5.3 23.8 14.1 48.5 18.1 52.5 4 4 10.1-.4 9.3-5.7-.9-5.3-16.3-37.5-19.8-49.4s6.2-24 6.2-24l-5-4.3z"/><path class="st3" d="M259.2 719.4c4 5.7 12.3 14.6 11.5 17.2-.9 2.6-5.7 5.7-7.9 5.3-2.2-.4-7.9-9.3-12.8-15l9.2-7.5zM210.7 739.2c0 3.5-.4 13.2-.4 16.8s11.9 3.5 12.3-.4c.4-4 .6-11 .4-16.8l-12.3.4zM253.5 671.7s-9.7 10.6-11.5 10.1-29.1-32.6-28.7-34c.4-1.3 42.3-32.6 42.3-32.6l26 23.8-28.1 32.7z"/><path class="st0" d="M244.6 623.6c-2.9 2.2-6.1 4.6-9.3 7-3.2 2.4 13.1 19.5 10.2 21.7l12.8-11.5-13.7-17.2z"/><path class="st3" d="M272.7 605.6s.7-20.1 2.4-20.7 4.6 7.9 6 6.6c1.3-1.3 25.4-24.5 25.4-24.5l16.5 11.7-40.3 42.3-3.8-.9-6.2-14.5z"/><path class="st0" d="M301.4 563.5s-11 15.4-11.5 17.9c-.4 2.4 5.3 8.4 7.9 8.2 2.6-.2 14.6-19.2 14.6-19.2l-11-6.9z"/><path class="st2" d="M235.3 630.6c-3.2 2.4-6.3 4.8-9.3 7.1l15.9 19.1 8.4-9.3-15-16.9z"/><path class="st2" d="M268.1 628.5s-32.6 26-32.2 28.2c.4 2.2 15 19 17.2 19 2.2 0 16.3-16.3 16.3-16.3l11-6.6 2.2-17.2-14.5-7.1z"/><path class="st2" d="M344.4 580.4s-78.9 75.9-78.9 78.9 20.3 22 22 21.2 73.2-85.6 73.2-85.6l7.1-23.4-8.8-4.9-14.6 13.8z"/><path class="st4" d="M277.7 645.7c-7.4 7.5-12.3 12.9-12.3 13.6 0 3.1 20.3 22 22 21.2.4-.2 5.2-5.6 12-13.6l-21.7-21.2zM315.7 648c-2.6 3.1-5.2 6.1-7.7 9l-24.1-25.4 9.3-7.1 22.5 23.5z"/><path class="st1" d="M280 658.7c0 1.8-1.5 3.3-3.3 3.3s-3.3-1.5-3.3-3.3 1.5-3.3 3.3-3.3 3.3 1.5 3.3 3.3zM289.2 668c0 1.8-1.5 3.3-3.3 3.3-1.8 0-3.3-1.5-3.3-3.3 0-1.8 1.5-3.3 3.3-3.3 1.8 0 3.3 1.5 3.3 3.3z"/><path class="st0" d="m321.9 572.5-40.1 44.1s-22-30-23.4-30c-1.3 0-18.1 14.6-17.2 16.3.9 1.8 37.9 42.8 40.1 42.8 2.2 0 62.6-64 62.6-64l-11.5-12.3-10.5 3.1z"/><path class="st1" d="M264.8 615.5s15 18.7 17 18.5c2-.2 50.9-50.9 50.9-50.9"/><path class="st9" d="M253.8 589.9c-2.9 2.4-6.6 5.7-9.3 8.4 0 0 6.8 9.9 7.7 9.7.9-.2 9.5-7.1 9.7-8.2.2-1.1-8.1-9.9-8.1-9.9zM308 587.7l-6.2 6.8 10.4 9.5c2.3-2.4 4.6-4.7 6.8-6.9l-11-9.4zM276 608.9c-1.5-2-3.1-4.2-4.8-6.4L253.5 617c1.7 1.9 3.5 3.8 5.3 5.8l17.2-13.9zM288.8 608.9 285 613l8.5 10 5-5c.2-.2-9.7-9.1-9.7-9.1z"/><path class="st1" d="M322.5 585.4c0 1.4-1.1 2.5-2.5 2.5s-2.5-1.1-2.5-2.5 1.1-2.5 2.5-2.5 2.5 1.1 2.5 2.5zM302.7 606.6c0 1.4-1.1 2.5-2.5 2.5s-2.5-1.1-2.5-2.5 1.1-2.5 2.5-2.5c1.4-.1 2.5 1.1 2.5 2.5zM284.2 625.1c0 1.4-1.1 2.5-2.5 2.5s-2.5-1.1-2.5-2.5 1.1-2.5 2.5-2.5c1.3 0 2.5 1.1 2.5 2.5z"/><path class="st0" d="M303.8 563.7c0 14.6 26 12.8 26 12.8l4.9-34L317 539l-8.8-12.8-11 8.4s3.5 21.1 6.6 29.1z"/><path class="st1" d="m318.8 569.9 14.1-.3M319.7 563.7l11.4.3M320.3 557.7l11.3.8M321 552.1l11.5 1.2M322.3 546.5l11.3 1.5"/><path class="st3" d="M281.3 550.9s-16.3 3.5-12.8 11.5c-5.3 1.8-6.2 14.6-1.3 16.8 0 0 3.1-6.2 6.6-7.5 3.5-1.3 18.1 3.1 22.5 1.3 4.4-1.8 4-15.4-3.5-15.4-4.9-.5-11.5-6.7-11.5-6.7z"/><path class="st1" d="M277.3 562s-6.6 2.6-8.8.3"/><path class="st9" d="M291.9 550.9s7.1 17.6 8.8 17.2c1.8-.4 7.1-3.1 7.1-5.3s-7.9-15.9-7.9-15.9l-8 4zM293.2 530.2s.4-14.6 2.2-15.4c1.8-.9 6.2 1.3 6.6 3.5.4 2.2-2.6 14.1-2.6 14.1l-6.2-2.2zM305.1 534.6s5.7-7.5 6.6-10.6c.9-3.1-5.3-5.7-7.5-5.7s-3.5 11.9-3.5 11.9l4.4 4.4zM304.7 536.3s13.2-.9 13.7 1.3c.4 2.2-.9 8.4-3.1 9.7-2.2 1.3-11.5-3.1-11.5-3.1l.9-7.9z"/><path class="st9" d="M303.3 546s13.7 12.3 13.2 14.6c-.4 2.2-4.4 5.3-6.6 4.4-2.2-.9-10.6-16.8-10.6-16.8l4-2.2z"/><path class="st0" d="M280.4 546.9s-5.3-7.1 0-14.6 23.8-6.6 26.5 4.4c2.6 11-11.5 15.4-11.5 15.4l-15-5.2z"/><path class="st4" d="M297.2 549.8c0 5-4.1 9-9 9-5 0-9-4-9-9s4.1-9 9-9 9 4 9 9z"/><path class="st1" d="M289.2 549.6c0 1.5-1.2 2.6-2.6 2.6s-2.6-1.2-2.6-2.6 1.2-2.6 2.6-2.6 2.6 1.1 2.6 2.6z"/><path class="st3" d="M374.8 549.1c-7.5-11-31.7-26.5-36.6-24.3-4.9 2.2-11.9 56.5-6.6 59.5s34.4-9.7 38.4-14.6c3.9-4.7 12.3-9.5 4.8-20.6z"/><path class="st0" d="M368.6 568.1c-9.7 4.4-16.8 38.8-4.4 41.9.9 0 7.1-13.2 15.9-13.2s86 20.3 91.3 19c5.3-1.3 12.8-15 4-20.3-8.9-5.4-97.1-31.8-106.8-27.4z"/><path class="st1" d="M364.3 578.2c18.2 3 80.4 25.1 80.4 25.1M360.7 588.5c21.5-1.3 33.7 10.6 33.7 10.6M358 599.4c4.3-2.6 14.6 0 14.6 0"/><path class="st3" d="M381.8 682.3c-1.3.9-.9 8.4 1.8 8.4 2.6 0 11-1.8 11-4s-1.8-7.5-3.5-7.5-7.9 2.2-9.3 3.1zM387.6 701.3s2.9 12.6 4.4 13.9c1.6 1.3 7.5-2.2 8.2-5.1.7-2.9-4.2-11.9-4.2-11.9l-8.4 3.1z"/><path class="st2" d="M383.6 690.7c-2.6 1.3-1.3 11 1.8 11.7 3.1.7 13.9-2.4 15-4.6 1.1-2.2-2.6-11.3-5.7-11-3.2.1-8.4 2.6-11.1 3.9z"/><path class="st9" d="M375.2 619.3c-2 1.1-6.8 5.5-13 11.7-1.9 1.9 21.2 22.6 22.8 21 5.4-5.5 10.4-10.7 14.3-15.1l-24.1-17.6z"/><path class="st4" d="M362.2 630.9c-1.9 1.9-3.9 3.9-6 6.1l23.8 19.9c1.7-1.7 3.3-3.3 4.9-5l-22.7-21z"/><path class="st9" d="M450.9 635.1c-.9 1.1 6 16.3 7.5 17 1.6.7 30.4-7.5 31.1-9 .7-1.6-3.8-14.8-5.5-16.1-1.8-1.4-32.3 7-33.1 8.1z"/><path class="st4" d="M462.1 660.5c-1.6 0-5.3-9-3.8-8.4 1.6.7 30.4-7.5 31.1-9s3.5 7.5 2.6 8.6c-.8 1.1-28.3 8.8-29.9 8.8z"/><path class="st2" d="M369.6 715.2s22.8 8.3 22.2 10.2c-.7 2-12.9 11.6-12.9 11.6l-15.2-9.3-.7-6.9 6.6-5.6z"/><path class="st3" d="M362 702.9s-2-9.9-5-11.3c-3-1.3-10.2 2-10.2 7.3s5.6 14.9 5.6 14.9l8.9-.7.7-10.2z"/><path class="st1" d="M355.4 710.9s-5-11.6-2.3-12.9c2.6-1.3 6.9 10.2 6.9 10.2"/><path class="st2" d="M352.4 713.8s7.9-11.6 9.6-10.9c1.7.7 9.3 9.6 9.6 11.9.3 2.3-7.9 9.3-7.9 9.3l-11.3-10.3z"/><path class="st6" d="M343.1 700.6c4.3 8.6 51.6 45.6 51.6 48.6s-4.2 5.4-8.5 4.1c-.3 8.3-10.4 7.9-14 3.5-1 3.1-7.9 4.6-11.6 1.7s-5.3-10.6-5.3-10.6l-21.5-5.6 2-40c.1 0 .4-2 7.3-1.7z"/><path class="st1" d="M363.6 743.2s9.5 9.9 8.7 13.7c-1 3.1-7.9 4.6-11.6 1.7"/><path class="st1" d="M372.6 740.1s13.7 11.9 13.7 13.2c-.3 8.3-10.4 7.9-14 3.5"/><path class="st4" d="M379.2 746c3.5 3.2 7 6.6 7 7.3 0 0-5.1 2-6.2 1.8-1.1-.2-5.5-5.1-5.1-6.6.6-1.6 4.3-2.5 4.3-2.5zM384.5 745.3c-.2-1.9 2.9-3.6 2.9-3.6 2.7 2.5 4.9 4.5 6.1 5.8 0 0-2.6 2.3-3.4 2.1-.8-.3-5.4-2.5-5.6-4.3zM368.9 749.5c2 2.7 3.7 5.6 3.4 7.3 0 0-3.9 1.3-4.7.4-.9-.9-3.5-3.3-2.9-4.9.6-1.4 4.2-2.8 4.2-2.8zM342.2 705.6l1 35.1-46.3-4.3c.3-4.3 11.9-31.4 11.9-31.4l33.4.6z"/><path class="st4" d="M355.7 748.9c.3-1.3-3-9.3-5.3-9.9-2.3-.7-51.9-6.3-54.3-5-2.3 1.3-5 7.9-4.3 9.6.7 1.7 63.6 6.6 63.9 5.3z"/><path class="st1" d="m310.1 715.2-2.7 14.2M319.3 716.5l-1.6 14.2M329.2 717.5l-1.3 14.5"/><path class="st2" d="M308.8 694c-6 1.7-7.6 11.3-1.7 14.2 6 3 30.8 2.6 34.7 0s3.6-12.6.3-13.6c-3.3-.9-24.4.4-33.3-.6z"/><path class="st4" d="m681.5 497.2 17.2 19.5 31.8-15.5-6.7-10.9-16.2-7-22.8 11.3z"/><path class="st1" d="M715.7 500.2s-4.4-5.6-8.7-9.6M706 501.9c-2-2.4-10.9-6.4-10.9-6.4"/><path class="st3" d="M724.5 513s17.2-1.8 19 0c1.8 1.8 7.1 10.6 12.8 13.7s61.7-.4 67-13.7c5.3-13.2-2.6-23.8-11.5-22.9-8.8.9-41.9 8.4-41.9 8.4l-6.2-2.6-28.2-7.9-14.6 5.3 3.6 19.7z"/><path class="st6" d="M691.9 521.4s0 12.8 5.3 14.1c5.3 1.3 29.1-11 30.9-20.7 1.3-5.3-.9-16.8-4.4-17.6-1.8 2.4-7.9 3.1-7.9 3.1s-4.7 1.3-9.7 1.8c-5.6 1.2-12.8 4-12.8 4l-1.4 15.3z"/><path class="st1" d="M715.7 500.2s3.1 2.6 2.2 11.5M706 501.9c2.6.9 2.6 10.1 2.6 10.1"/><path class="st3" d="M652.2 539.4c1.3-3.1 28.7-26.9 29.1-29.5.4-2.6 1.3-12.3 5.3-11.9 4 .4 19.4 18.1 19 21.6-.4 3.5-11.5 4.9-13.2 6.6-1.8 1.8-27.3 20.3-31.7 22-4.5 1.8-9.8-5.7-8.5-8.8z"/><path class="st6" d="M479.3 535.5s-.4-22.5 1.3-23.8 11.5-6.2 14.6-4.4c3.1 1.7 40.1 47.2 46.3 48.1 6.2.9 131.4-40.1 139.8-45.4 8.4-5.3 7.5-12.3 7.5-12.3s10.1-3.1 17.2-6.6c.4 3.5 22.9 10.1 29.5-3.1 1.8-3.5-21.6-9.3-26.9-9.7-5.3-.4-69.7 24.7-69.7 24.7l-33.5 7.1-49.4 13.5s-32.6-37.5-48.1-45.4c-15.4-7.9-19.4-5.7-19.4-5.7l-92.2 5.3L381 561l83.8 29.1 4-21.2 10.5-33.4z"/><path class="st4" d="M733.4 490.9c.8-.9 1.6-1.9 2.2-3.1 1.3-2.6-11-6.4-19.7-8.4-1.5 4.5 4.6 12 17.5 11.5zM515.5 491.8s-14.1 20.3-14.6 22.5c-.4 2.2 6.6 6.2 6.6 6.2l19.4-13.7-.9-11-10.5-4z"/><path class="st2" d="M519.4 483s5.3-15.4 8.4-16.3c3.1-.9 9.7 7.5 9.3 9.3s-7.9 13.7-7.9 13.7l-9.8-6.7z"/><path class="st3" d="M532.7 494s11-14.6 13.2-15c2.2-.4 9.7 9.7 8.8 12.3-.9 2.6-12.8 13.7-12.8 13.7l-9.2-11z"/><path class="st2" d="M525.2 499.7s-17.6 18.1-18.5 20.3c-1.8 3.5 9.3 14.6 12.3 12.3 3.1-2.2 20.7-21.2 20.7-21.2l-14.5-11.4z"/><path class="st4" d="M519.4 483c-3.5 0-4.9 4.4-5.3 7.5-.4 3.1 23.4 24.3 26 23.8 2.6-.4 7.9-2.2 7.5-6.2-.4-4-24.6-25.1-28.2-25.1z"/><path class="st9" d="M598.8 612.2s20.5 2.6 25.6-2.9c5.1-5.5 3.1-20.5-11.5-17.4s-17.4 1.6-17.4 1.6l-6.4 2.6 9.7 16.1z"/><path class="st1" d="M594 607.8s19.8-.4 22.5-2.9c3.1-2.9 3.5-11.3-4.2-11"/><path class="st6" d="M505.8 560.2s41 21.6 46.7 22c5.7.4 36.6-2.2 44.1-1.3s16.3 8.6 16.3 12.1-10.6 10.4-22 1.6c-7.5 7.9-39.2 10.1-41.9 9.3-2.6-.9-49.4-21.2-49.4-21.2l6.2-22.5z"/><path class="st4" d="M596.6 580.9c5.6.7 12 5.2 14.8 8.9-.3 1.1-4.9 3.7-6.7 3-1.8-.7-7.7-5.5-8.2-7.1-.3-1.5.1-4.8.1-4.8z"/><path class="st2" d="M583.3 694s-30.8.9-30.5 4.4c.2 3.5 26.2 3.5 26.2 3.5l3.3-3.6 1-4.3z"/><path class="st6" d="M564.4 599.8c1.6-4.9 7.7-4 9.7-.9-1.3-4.2 6-6.2 9.5-2-.4-3.5 5.5-4.9 8.6-1.8 3.1 3.1 10.1 13 7.7 22-2 6.6-30 17.2-30 17.2l-15.4-13c0 .2 8.3-16.3 9.9-21.5z"/><path class="st4" d="M566.2 606.7s-3.4-1.6-1.8-6.8c1.6-4.9 7.7-4 9.7-.9-1.3-4.2 6-6.2 9.5-2-.4-3.5 5.5-4.9 8.6-1.8.7.7 1.6 1.8 2.6 3.1l-28.6 8.4z"/><path class="st1" d="m588.2 612.2-4.6-15.2M574.1 599l3.5 15.6"/><path class="st9" d="M562.2 619.7c-3.8 1.3 18.3 24 18.3 24s-5.1 16.1-8.4 17.9c-22.5-11-32.9-32-30-45 2.4-10.9 9.9-18.1 18.3-18.3 9.5-.2 10 19.4 1.8 21.4z"/><path class="st1" d="M574.1 658.7s-27.1-22.9-26.7-36.4c.4-13.5 11.3-23.2 15.2-17.6s-6.4 8.2-6.6 17c.2 13.7 22.7 31.1 22.7 31.1"/><path class="st0" d="M568.6 685.6s-5.3 5.1-4.2 6.8c1.1 1.8 13.7 7.3 13.7 7.3l9.5-8.4-19-5.7zM588.2 706.8s11.7 21 13.7 21.4c2 .4 9-4.6 9-6.8s-15.4-20.1-15.4-20.1l-7.3 5.5z"/><path class="st3" d="M597.5 700.6c.7-2.4-8.2-11.3-8.2-11.3s-12.8 8.2-12.6 9.7c.2 1.6 7.9 11.7 9.7 11 1.8-.6 10.4-7 11.1-9.4z"/><path class="st2" d="M655.7 694s26.2 7.7 27.8 6.4c1.6-1.3 1.6-13.7-1.1-15.4-2.6-1.8-24-4.2-24-4.2l-2.7 13.2z"/><path class="st0" d="M659.7 668s22-3.5 22.7-1.5c.7 2 .2 11.3-1.1 13-1.3 1.8-23.4.7-23.4.7l-3.1-.7.9-5.7 4-5.8z"/><path class="st2" d="M656.6 641.7s16.3-11.9 17.6-12.1c1.3-.2 6.8 8.4 6.2 10.1-.7 1.8-20.1 10.8-20.1 10.8l-3.7-8.8zM632.3 713.8s15 20.5 16.8 20.7c1.8.2 9.3-6.2 9.3-8.6 0-2.4-16.1-19.2-16.1-19.2l-10 7.1z"/><path class="st9" d="M656.6 641.7s17-10.1 17.6-12.1c.7-2-4.4-8.6-6-7.9-1.5.7-15 13.9-15 13.9l3.4 6.1zM626.2 720.2s11.7 21 13.5 21c1.8 0 7.9-4.4 7.7-7.1-.2-2.6-13.5-21-13.5-21l-7.7 7.1z"/><path class="st3" d="M641.8 641.7s10.4-10.1 12.6-8.2c2.2 2 6.2 14.1 6 17-.2 2.9-13.7 2.9-13.7 2.9l-4.9-11.7z"/><path class="st2" d="M612.3 696.9s8.8 16.1 11 15.9c2.2-.2 12.6-8.2 13-10.4.4-2.2-6.8-15.9-6.8-15.9l-15.9-5.3-1.3 15.7z"/><path class="st3" d="M636.3 688.7c.9 1.3 17.9 7.1 19.8 6 2-1.1 4.2-13.5 2.6-15.4-1.5-2-19.6-2.4-19.6-2.4s-3.7 10.5-2.8 11.8z"/><path class="st3" d="M641.4 664s16.1-2.2 17.6-.7c1.6 1.6 2 12.3-.7 13.5s-19.2 0-19.2 0l2.3-12.8z"/><path class="st2" d="M629 643.9s12.1-4.9 14.1-4c2 .9 5.1 9.3 4.9 12.3-.2 3.1-10.6 13.2-10.6 13.2l-15.2-2.6 2.2-10.4 4.6-8.5z"/><path class="st3" d="M626.2 721.6c1.3-.2 16.1-12.8 16.8-14.6.7-1.8-5.1-7.9-6.6-7.7-1.5.2-14.8 12.3-15 13.9-.3 1.5 3.4 8.6 4.8 8.4z"/><path class="st9" d="M616.2 686.5s19.2 6 21.2 4.2c2-1.8 4.2-24.3 4-26.7-.2-2.4-17-3.3-17-3.3l-8.2 25.8z"/><path class="st3" d="M588.7 623.7c-1.8 1.1-28.2 57.8-28 61.1.2 3.3 51.2 16.5 52.9 14.1 1.8-2.4 19.2-61.3 18.5-63.5-.6-2.3-41.6-12.8-43.4-11.7z"/><path class="st2" d="M575.7 681.7c-.4-2.2 17-45.9 18.5-47.4s28 5.1 27.8 7.7c-.2 2.6-14.6 49.6-17.2 50.3-2.7.6-28.7-8.4-29.1-10.6z"/><path class="st0" d="M599.3 645.5c-1.1.7-11.5 27.3-11.7 29.1-.2 1.8 11.3 6.2 12.8 4 1.6-2.2 10.4-28.2 10.1-29.8-.2-1.6-10.1-4-11.2-3.3z"/><path class="st9" d="M594.6 655.8c-1 2.5-2 5.1-3 7.6l12.9 4.7c.9-2.5 1.8-5.1 2.6-7.6l-12.5-4.7z"/><path class="st1" d="M598.2 671.8c0 1.3-1 2.3-2.3 2.3-1.3 0-2.3-1-2.3-2.3 0-1.3 1-2.3 2.3-2.3 1.2 0 2.3 1.1 2.3 2.3zM604.8 652c0 1.3-1 2.3-2.3 2.3-1.3 0-2.3-1-2.3-2.3 0-1.3 1-2.3 2.3-2.3 1.2 0 2.3 1 2.3 2.3z"/><path class="st4" d="M373 535.9s-.4 17.6 0 20.7 7.9 4.9 10.1 3.5c2.2-1.3 3.1-18.5 3.1-18.5l-13.2-5.7z"/><path class="st6" d="M386.3 476.8s-21.6 43.7-19 54.2c5.7 15.9 76.3 40.6 88.2 41.9 11.9 1.3 14.1-13.2 14.1-13.2s2.2-11.9-.4-15.9c-10.1-8.8-56-21.6-56-21.6l10.6-23.4-37.5-22z"/><path class="st4" d="M474.5 530.2c4-.4 35.7 29.1 34.4 33.1S504 584 501 585.8c-3.1 1.8-43.7-5.7-45.4-8.8s14.9-46.4 18.9-46.8z"/><path class="st1" d="m481.4 574.6-8.3-3.3M484 568.6l-8.5-3.9M488.4 557.7l-7.6-4.6M491 552.1l-8.3-6"/><path class="st3" d="M467.8 581.1c-6.6-1.5-11.7-3.1-12.3-4.1-1.8-3.1 15-46.3 19-46.7 1.4-.2 6 3.2 11.4 7.9l-18.1 42.9z"/><path class="st4" d="m480.3 551.3-5.1 12.1-14.2-6.2c1.8-4.9 3.9-9.9 5.9-14.3l13.4 8.4z"/><path class="st2" d="M495.4 546.7c7.6 7.3 14.1 14.7 13.5 16.5-1.3 4-4.9 20.7-7.9 22.5-1.5.9-12-.5-22.5-2.5l16.9-36.5z"/><path class="st0" d="M383.6 454.3s-3.5 16.8 3.5 32.6c11 22.9 90.8 21.2 103.2 1.8 10.6-15.9 7.1-37 7.1-37L474 419.5l-71 17.6-19.4 17.2z"/><path class="st2" d="M393.7 449s-1.3 12.8-.4 18.5c-6.6 36.6 91.7 34.8 90.8 1.8 2.2-7.5 1.3-20.7 1.3-20.7l-26.9-28.7-57.3 6.2-7.5 22.9z"/><path class="st3" d="M393.7 449s-1.3 12.8-.4 18.5c.4 19 82.9 22.9 90.8 1.8 2.2-7.5 1.3-20.7 1.3-20.7l-26.9-28.7-57.3 6.2-7.5 22.9z"/><path class="st2" d="M427.3 462.2s27.3 7.5 34 3.5c6.6-4 3.5-30.4 3.5-30.4l-23.4-26.5-19.4 8.8-1.8 26 7.1 18.6z"/><path class="st4" d="M554.3 397s26.9-1.3 28.2 2.2c1.3 3.5-1.8 14.1-5.3 15-3.5.9-23.4-8.4-23.4-8.4l.5-8.8z"/><path class="st2" d="M554.3 397s14.8-.7 22.9.3l-4.9 16c-7-2.2-18.5-7.5-18.5-7.5l.5-8.8z"/><path class="st0" d="M554.3 397s6.5-.3 13.2-.2l-3.2 13.6c-5.5-2.2-10.5-4.6-10.5-4.6l.5-8.8z"/><path class="st4" d="M504.5 420.8s28.7 4.9 30.4 3.5c1.8-1.3 1.3-8.4 1.3-8.4l-14.6-5.3-16.3 2.6-.8 7.6z"/><path class="st1" d="m511.8 421.1 2-7.6M519.4 421.8l1.7-8.3M527.7 422.8l1.7-8.6"/><path class="st6" d="M437.9 416c23.4 33.5 71.4 45.4 80.3 41.9 5.9-2.4 6.3-12.5 5.9-18.9 10.9 4.8 14.4-5.8.7-8.4-10-1.9-19.8-3.5-18.1-11s32.2-.9 32.2-.9l1.8-9.7s12.3 2.6 16.3 0-.9-37.5-23.4-48.9c.9 0 6.2-1.3 6.6-4.9s-7.5-11.9-9.7-16.3c-2.2-4.4 0-18.5 0-18.5l-4.4-9.3-98.8-1.3-12.8 17.2-6.2 45.9v41.9c0-.2 6.2-32.4 29.6 1.2z"/><path class="st4" d="M438.7 346.7c-2.6 1.8-3.1 11-2.2 14.1.9 3.1 26.5 3.5 28.2 1.3s5.7-13.7 2.2-15.4c-3.5-1.8-25.5-1.8-28.2 0z"/><path class="st2" d="M517.7 383.7c0 2.9-2.4 5.3-5.3 5.3s-5.3-2.4-5.3-5.3 2.4-5.3 5.3-5.3c2.9.1 5.3 2.4 5.3 5.3z"/><path class="st4" d="M507.1 393.4s-9.7-1.3-12.8-.4c-3.1.9-2.6 6.2 0 8.8 2.6 2.6 15 1.3 15 1.3l-2.2-9.7z"/><path class="st3" d="M384.5 487.8c0 3.9-3.2 7.1-7.1 7.1s-7.1-3.2-7.1-7.1 3.2-7.1 7.1-7.1c3.9.1 7.1 3.2 7.1 7.1z"/><circle class="st3" cx="406.6" cy="507.7" r="7.1"/><path class="st3" d="M444 511.7c0 3.9-3.2 7.1-7.1 7.1s-7.1-3.2-7.1-7.1c0-3.9 3.2-7.1 7.1-7.1 4 0 7.1 3.2 7.1 7.1zM471.8 509c0 3.9-3.2 7.1-7.1 7.1s-7.1-3.2-7.1-7.1c0-3.9 3.2-7.1 7.1-7.1 4 0 7.1 3.2 7.1 7.1zM496.9 499.7c0 3.9-3.2 7.1-7.1 7.1s-7.1-3.2-7.1-7.1c0-3.9 3.2-7.1 7.1-7.1s7.1 3.2 7.1 7.1zM510.2 475.9c0 3.9-3.2 7.1-7.1 7.1s-7.1-3.2-7.1-7.1c0-3.9 3.2-7.1 7.1-7.1s7.1 3.2 7.1 7.1zM612.9 533.3c-5.7 8.4 5.3 30 11 36.2 5.7 6.2 24.3 48.1 24.3 48.1l11.9-13.2-27.3-44.1 41.4 32.2 9.7-15.4s-37.5-21.2-42.3-25.6c-4.9-4.4-11.5-15.9-11.5-15.9s-11.4-10.7-17.2-2.3z"/><path class="st4" d="m604.1 506.3 12.3 37s32.6-14.6 33.5-17.2-8.8-25.1-10.1-26c-1.3-.8-35.7 6.2-35.7 6.2z"/><path class="st2" d="m617 503.8 12.4 33.7c9.2-4.4 20.1-9.8 20.6-11.3.9-2.6-8.8-25.1-10.1-26-.8-.5-13 1.7-22.9 3.6z"/><path class="st2" d="M641.6 551.3c-4.9-4.4-11.5-15.9-11.5-15.9s-11.5-10.6-17.2-2.2c-5.7 8.4 5.3 30 11 36.2l17.7-18.1z"/><path class="st1" d="m632.8 560.2-13.5-18.8"/><path class="st3" d="M464.8 256.7s-52-4.4-55.1-3.5-18.5 39.2-20.3 42.8 8.4 4.4 11-1.3c-2.6 28.2-15.9 41.9-17.2 48.5-1.3 6.6 7.1 6.2 8.8 4-.9 22.5-9.7 41-10.6 48.5-.9 7.5 9.3 7.1 11 4.4.9 11-5.3 41-16.8 46.7-11.5 5.7-37 11.9-40.1 14.6-3.1 2.6-1.8 6.6 2.6 5.7 4.4-.9 36.6-8.4 42.8-9.3 6.2-.9 23.4-12.8 27.3-19.4s8.8-40.6 8.8-40.6l1.3-26.9s6.6 0 7.5-1.8c.9-1.8-1.3-26-1.3-26s1.8.9 3.5-1.3-.9-22.9-.9-22.9 101.4-9.3 103.2 4l15-.9s-5.7-44.1-11-46.7c-5.3-2.6-10.6-2.2-10.6-2.2L488 258.5l-23.2-1.8z"/><path class="st2" d="M415.4 264.7c-4.9 1.3.4 38.8 1.8 42.3 1.3 3.5 113.8 3.5 114.7 2.2.9-1.3-3.5-37-6.2-38.4-2.7-1.3-105.5-7.4-110.3-6.1z"/><path class="st4" d="m508 293.8-1.3 16.2c4.8 0 9.1-.1 12.8-.2l-.9-16.5-10.6.5z"/><circle class="st0" cx="428.4" cy="284.7" r="6"/><path class="st0" d="M444.9 286.1c0 3.3-2.7 6-6 6s-6-2.7-6-6 2.7-6 6-6 6 2.7 6 6z"/><circle class="st0" cx="450.9" cy="287.4" r="6"/><path class="st0" d="M468.7 288.7c0 3.3-2.7 6-6 6s-6-2.7-6-6 2.7-6 6-6c3.4.1 6 2.7 6 6z"/><path class="st3" d="M475.8 253.9c0 3.3-4 6-8.8 6-4.9 0-8.8-2.7-8.8-6s4-6 8.8-6c4.8 0 8.8 2.7 8.8 6zM480.2 242.2c-2.6 2-7.1.5-10.1-3.4-2.9-3.9-3.2-8.6-.6-10.6s7.1-.5 10.1 3.4c3 3.8 3.2 8.6.6 10.6z"/><path class="st0" d="M473.1 274.8s-5.7-30 3.5-34c9.3-4 18.1 0 18.1 0l5.3 24.7-20.7 14.1-6.2-4.8z"/><path class="st5" d="M503.6 262.5c0 6.3-5.1 11.5-11.5 11.5s-11.5-5.1-11.5-11.5 5.1-11.5 11.5-11.5c6.3 0 11.5 5.1 11.5 11.5z"/><path class="st3" d="M496.9 269.1s-22.5-6.2-24.7 4c-.8-6.7-13.3-1.4-13.2 3.5.1 5.3-1.3 17.2 21.6 11.9 6.6 2.6 15.9 2.2 15.9 2.2l5.7-12.3-5.3-9.3z"/><path class="st0" d="m494.8 281.4-.5-30.4 21.2-.4 2.2 33-12.4 6.7z"/><path class="st4" d="m497.4 223.2-.9 17.2h15.9v-17.6z"/><path class="st3" d="M515.5 215.9c0 6.9-4.9 12.6-11 12.6s-11-5.6-11-12.6c0-6.9 4.9-12.6 11-12.6s11 5.7 11 12.6z"/><path class="st1" d="M508.4 219c0 2.8-2.1 5.1-4.6 5.1s-4.6-2.3-4.6-5.1 2.1-5.1 4.6-5.1c2.5.1 4.6 2.3 4.6 5.1z"/><path class="st2" d="M491 237.9c-2.6.4-1.2 13.5 2.3 13.9 3.5.4 18.2.5 22.6-.3 4.4-.9 3.5-12.7.9-13.6-2.6-.9-23.2-.5-25.8 0z"/><path class="st0" d="M490.3 295.1s7.1 7.9 2.2 11.9c-8.8 6.2-19-8.8-11-20.7 4.9-7.5 31.3-4 31.3-4s1.8-35.3 9.3-40.1c7.5-4.9 19-1.8 20.7 7.9 1.8 9.7-7.9 15.4-12.8 11.9-1.8-1.3-2.2-6.6-2.2-6.6-2.6.9-.4 38.4-7.5 40.6-7 2.2-30-.9-30-.9z"/><path class="st1" d="M490.3 295.1c-1.7 4.6-6.9 1.3-3.3-5 2.6-4.3 23.8 1.7 29.1-1.7 5.3-3.3 3-52.3 17.2-39.4 1.3 2-.8 6.9-5.5 6.3"/><path class="st0" d="M451.1 243.3c0 7.9-7.1 14.3-15.9 14.3s-15.9-6.4-15.9-14.3 7.1-14.3 15.9-14.3 15.9 6.4 15.9 14.3z"/><path class="st1" d="M440.5 243.5c0 2.7-2.2 4.9-4.9 4.9s-4.9-2.2-4.9-4.9 2.2-4.9 4.9-4.9c2.7.1 4.9 2.2 4.9 4.9z"/><path class="st0" d="M407.9 423.4s-.9 34.8-.4 37.9c.4 3.1 25.1 2.2 26-.4.9-2.6-3.1-37.5-3.1-37.5h-22.5 0z"/><path class="st2" d="M407.4 445.3c-.1 7.7-.2 14.8 0 16.1.4 3.1 25.1 2.2 26-.4.4-1.2-.2-8.9-1-16.9-2.3 2.8-22.1 3.2-25 1.2z"/><path class="st4" d="M412.7 460s-2.2 14.6-.9 19c1.3 4.4 14.6 3.5 16.3 0s1.3-19 1.3-19h-16.7z"/><path class="st4" d="M407.3 453.9c0 3.8 0 6.7.1 7.5.4 3.1 25.1 2.2 26-.4.2-.7.1-3.9-.2-8.1-2.1 1.6-22.2 3.3-25.9 1z"/><path class="st0" d="M439.6 413.3c0 10.2-8.3 18.5-18.5 18.5s-18.5-8.3-18.5-18.5 8.3-18.5 18.5-18.5 18.5 8.3 18.5 18.5z"/><path class="st0" d="M427.9 413.5c0 3.8-3.1 6.8-6.8 6.8-3.8 0-6.8-3.1-6.8-6.8s3.1-6.8 6.8-6.8c3.8 0 6.8 3 6.8 6.8z"/><path class="st2" d="M528.3 346.3v-10.6s-56.8-9.6-64.4 23.4c-9.3 40.1 20.3 45.4 20.3 45.4l4.9-9.3s-27.3-7.5-15.4-34.8c11.8-27.4 54.6-14.1 54.6-14.1zM532.7 397s-24.7-5.3-26-4.4c-1.3.9-1.3 9.7-.4 11.9.9 2.2 24.7 0 24.7 0l1.7-7.5z"/><path class="st0" d="M522.1 405.1c4.8-.3 8.8-.7 8.8-.7l1.8-7.5s-4.3-.9-9.5-1.9l-1.1 10.1z"/><path class="st4" d="M511.9 393c-2.8-.4-4.9-.7-5.2-.4-1.3.9-1.3 9.7-.4 11.9.2.6 1.9.8 4.3.9l1.3-12.4z"/><path class="st6" d="M556.9 408.9c-4 2.6-16.3 0-16.3 0s-12.8.4-11.9-8.4 15-3.1 15-3.1"/><path d="M518.1 360.6c0 7.2-5.8 13-13 13s-13-5.8-13-13 5.8-13 13-13 13 5.8 13 13z" style="fill:#fff"/><path d="M505.1 373.6c-7.2 0-13-5.8-13-13 0-6.2 4.4-11.4 10.2-12.7l2.8 25.7z" style="fill:red"/><circle class="st1" cx="505.1" cy="359.5" r="5.3"/><path class="st1" d="M518.1 360.6c0 7.2-5.8 13-13 13s-13-5.8-13-13 5.8-13 13-13 13 5.8 13 13z"/><path class="st5" d="M633.2 339.7s-15.9-4-19-12.3c-3.1-8.4 11-19.8 16.8-18.5 5.7 1.3 15.4 15.9 15.4 15.9l-13.2 14.9z"/><path class="st1" d="M639 336.6s-13.2-10.6-15-13.2c-1.8-2.6 3.1-5.7 5.7-4.4 2.6 1.3 15.4 11.9 15.4 11.9l-6.1 5.7z"/><path class="st5" d="M687.9 385.5s-10.1 4.4-10.6 8.4c-.4 4 4.9 8.8 7.9 8.4 3.1-.4 11.5-10.6 11.5-10.6l-8.8-6.2zM659.7 363.5s-11.9 7.9-12.3 11.9c-.4 4 6.6 11 9.7 10.6 3.1-.4 11-15.9 11-15.9l-8.4-6.6zM720.5 321.6s10.1-8.4 14.6-7.9c8.4.4 12 9.8 6.3 15.5-3.5 3.5-14.9 6.6-14.9 6.6l-6-14.2zM737.7 360.4s10.1-7.9 12.8-7.5c2.6.4 8.8 7.1 5.7 12.8-1.5 2.8-7.5 6.2-7.5 6.2l-13.7 1.3 2.7-12.8zM695.9 296.4s-9.3-12.8-9.3-18.5c0-5.7 15-11.9 19-7.1 4 4.9 5.3 20.7 5.3 20.7l-15 4.9z"/><path class="st1" d="M701.1 296.9s-6.6-14.6-5.7-16.8c.9-2.2 3.1-2.2 5.3-1.8 2.2.4 6.2 17.6 6.2 17.6M723.2 326s11.5-10.1 14.1-4.9c2.6 5.3-12.6 11.3-12.6 11.3M739.9 364.3s9.7-8.2 11.9-4.2c2.2 4-7.3 10.4-7.3 10.4M662.8 365.5s-13 9-9 12.8c4 3.7 12.3-11.3 12.3-11.3M690.3 387.7s-10.6 6-7.9 9.3c2.6 3.3 11.9-8.2 11.9-8.2"/><path class="st4" d="M636.7 347.1s-4.9-2.6-6.2-5.7c-1.3-3.1 18.1-22.9 21.2-22.5 3.1.4 5.7 7.5 5.7 7.5l-20.7 20.7zM695.4 306.6s-6.6-7.1-4.9-10.6c1.8-3.5 22.9-9.3 26-7.1 3.1 2.2.9 11.5.9 11.5l-22 6.2z"/><path class="st2" d="M658.4 356.4s-21.6.4-23.4-6.2c-1.8-6.6 15.4-26.5 21.6-25.6 6.2.9 12.3 19.4 12.3 19.4l-10.5 12.4z"/><path class="st0" d="M658.4 364.8c7.1 7.5 108 79.8 108 79.8l12.8 5.7-2.2-26s-95.7-82-104.1-84.2c-8.4-2.2-21.6 17.2-14.5 24.7z"/><path class="st4" d="M775.2 442s-100.1-74.1-102.3-78.1c-2.2-4 3.1-8.8 5.7-7.9 2.6.9 97.9 79.4 97.9 79.4l-1.3 6.6z"/><path class="st9" d="M775.2 442s-38.7-28.7-68.6-51.3c-2-2.3 2.3-9.9 5.6-8 28.3 23.1 64.2 52.6 64.2 52.6l-1.2 6.7z"/><path class="st4" d="M689.4 388.7c7.1 5.3 14.9 10.9 22.6 16.6l14.9-23.3c-6.5-5.4-13-10.8-19.2-15.8l-18.3 22.5z"/><path class="st3" d="M784.5 358.2s-4.9-17.6.4-22c5.3-4.4 22 .4 22.9 8.4.9 7.9-5.3 16.3-5.3 16.3l-18-2.7zM795.5 393s11.9-7.9 16.8-6.2c4.9 1.8 5.7 15.4.4 18.1-5.3 2.6-17.2-1.3-17.2-1.3V393z"/><path class="st1" d="M796.6 395.2s14.3-5.3 15 .2c.7 5.5-16.5 5.3-16.5 5.3M788 356.9s2.2-16.8 7.5-15.2c5.3 1.6 2 17 2 17"/><path class="st0" d="m774.3 447.7 4.4-72.8 20.8 3.6-4 52.4-5.3 27.8-6.1.9z"/><path class="st1" d="M782.7 379.1s-1.1 23.2-.2 24.5c.9 1.3 14.8 2.9 14.8 2.9M797.1 411.1s-12.1-2-13.9-.7c-1.8 1.3-2.2 16.5-1.3 17.9s13.5 2 13.5 2M781 452.1s.2-15.2 1.5-16.8c1.3-1.6 11.7.9 11.7.9"/><path class="st1" d="M791.3 420.4c0 1.5-1.2 2.6-2.6 2.6-1.5 0-2.6-1.2-2.6-2.6 0-1.5 1.2-2.6 2.6-2.6 1.4-.1 2.6 1.1 2.6 2.6zM792.6 392.6c0 1.5-1.2 2.6-2.6 2.6-1.5 0-2.6-1.2-2.6-2.6s1.2-2.6 2.6-2.6c1.5-.1 2.6 1.1 2.6 2.6zM790 446.8c0 1.5-1.2 2.6-2.6 2.6-1.5 0-2.6-1.2-2.6-2.6s1.2-2.6 2.6-2.6c1.4 0 2.6 1.2 2.6 2.6z"/><path class="st12" d="M719.7 451.7s-7.9 6.6-13.7 4.9c-5.7-1.8-12.3-15.9-16.8-16.8 3.1 3.1 0 9.3-5.7 7.5-9.3-4-7.5-21.2 5.7-20.3 7.9.4 17.6 14.1 17.6 14.1l12.9 10.6z"/><path class="st1" d="M684.4 442s-4-9.3 2.6-10.1c6.6-.9 18.1 22.9 24.7 18.1"/><path class="st12" d="M789.8 473.7s-4.4-41.6 4.9-45.9c12.3-5.7 27.2 3.5 23.4 14.6-4 11.5-15 4-14.1-1.8l-1.3 33.1h-12.9z"/><path class="st1" d="M796 473.3s-4-36.2 5.3-39.7 10.6 8.8 10.6 8.8"/><path class="st12" d="M713 451.2c9.7 4.4 53.4 3.5 56.5 10.1 3.1 6.6 1.8 14.1 1.8 14.1l18.5-1.8s-.4-19-5.7-24.7c-5.3-5.7-56-8.4-60-11.9s.4-12.8-10.6-12.3c-11.9 1.8-10.2 22.1-.5 26.5z"/><path class="st1" d="M714.8 433.1c-11.8 21.1 53.7 11.8 62.2 22 5.1 6.1 2.6 20.3 2.6 20.3"/><path class="st3" d="M800.8 473.7s13.2-7.9 19-3.1c5.7 4.9-4.9 23.8-4.9 23.8l-10.6-.4-3.5-20.3z"/><path class="st3" d="M807.4 488.3s.4-15.4-6.2-17.2-19.8-.4-21.6 4.4c-1.8 4.9 3.1 18.5 3.1 18.5l7.9 6.2 16.8-11.9z"/><path class="st3" d="M759.3 479c.4-5.3 15.4-9.3 20.3-5.7 4.9 3.5 5.7 19 5.7 19l-15.9 4.9-5.7-1.3c.1-.1-4.8-11.6-4.4-16.9z"/><path class="st12" d="M757.1 487.8c4.4 1.8.9 16.8 4.4 17.2 3.5.4 13.2.9 13.2.9s31.3 4.9 33.5 2.2c2.2-2.6-.9-11.9-.9-11.9s4.9 3.1 5.7.9-1.3-10.6-7.5-11c-6.2-.4-8.4 7.5-8.4 7.5l-30-4s-4.4-13.7-10.6-12.8c-6.2.9-10.1 12.3-5.7 15 4.6 2.6 6.3-4 6.3-4z"/><path class="st12" d="M778.3 504.8c0 3.3-2.7 6-6 6h0c-3.3 0-6-2.7-6-6v-11c0-3.3 2.7-6 6-6h0c3.3 0 6 2.7 6 6v11zM802.1 506.1c0 3.3-2.7 6-6 6h0c-3.3 0-6-2.7-6-6v-11c0-3.3 2.7-6 6-6h0c3.3 0 6 2.7 6 6v11z"/><path class="st12" d="M790.2 506.1c0 3.3-2.7 6-6 6h0c-3.3 0-6-2.7-6-6v-11c0-3.3 2.7-6 6-6h0c3.3 0 6 2.7 6 6v11z"/><path class="st4" d="M777.4 366.6s-1.8-9.3.9-11 29.1 2.2 30 5.7c.9 3.5-4.4 10.1-4.4 10.1l-26.5-4.8z"/><path class="st1" d="m784.4 355.3-1.4 13.9M800.6 357.9l-2.7 13.3M791.7 356l-2 14.9"/><path class="st2" d="M777.9 364.8c-3.5.4-.9 11 0 13.7.9 2.6 22.5 4.4 24.3 1.8 1.8-2.6 2.6-10.1 1.8-11.9-1-1.8-22.6-4.1-26.1-3.6z"/><path class="st0" d="m722.3 366.6-22.9-54.7 18.1-5.3 25.5 62.2z"/><path class="st4" d="M720.5 323.3c1.3 3.4.4 6.9-2 7.8-2.4.9-5.4-1.1-6.7-4.6-1.3-3.4-.4-6.9 2-7.8 2.4-.8 5.4 1.2 6.7 4.6zM727.1 339.7c1.3 3.4.4 6.9-2 7.8-2.4.9-5.4-1.1-6.7-4.6-1.3-3.4-.4-6.9 2-7.8 2.4-.9 5.4 1.1 6.7 4.6zM733.7 354.2c1.3 3.4.4 6.9-2 7.8-2.4.9-5.4-1.1-6.7-4.6-1.3-3.4-.4-6.9 2-7.8 2.4-.8 5.4 1.2 6.7 4.6z"/><path class="st2" d="M692.8 305.7c-1.8 2.6 1.3 12.3 4.4 12.3s20.7-5.3 22.9-8.4c2.2-3.1 0-11-4-11.5-3.9-.4-21.6 4.9-23.3 7.6zM717.5 390.8c5.3-.4 6.6-6.2 9.7-6.2s11 11.9 18.1 11.9 20.7-2.2 21.2-6.2c1.3-10.6-13.2-23.8-26-25.1-12.8-1.3-26.9.9-31.7 6.6-5 5.8-5.5 19.9 8.7 19z"/><path class="st4" d="M471.4 589.7c-4-2.2-93.5-37.9-97.9-35.7-4.4 2.2-8.8 12.3-6.2 15.9 1.3 1.7 26 8.8 50.3 17.6 24.7 9 49.2 19.6 52 19 5.7-1.4 9.7-12 1.8-16.8z"/><path class="st1" d="M466.2 597.1s-64.5-29.1-92.6-33.7"/><path class="st6" d="M525.7 709c1.8-.1 3.5-.1 5 0 4.3 8.6 50.6 37.3 50.6 40.2s-4.2 5.4-8.5 4.1c-.3 8.3-10.4 7.9-14 3.5-1 3.1-7.9 4.6-11.6 1.7-3.6-3-5.3-10.6-5.3-10.6l-21.5-5.6-10.2-31.7c0-.1 8.5-1.2 15.5-1.6z"/><path class="st1" d="M550.1 743.2s9.5 9.9 8.7 13.7c-1 3.1-7.9 4.6-11.6 1.7"/><path class="st1" d="M559.1 740.1s13.7 11.9 13.7 13.2c-.3 8.3-10.4 7.9-14 3.5"/><path class="st4" d="M565.8 746c3.5 3.2 7 6.6 7 7.3 0 0-5.1 2-6.2 1.8-1.1-.2-5.5-5.1-5.1-6.6.5-1.6 4.3-2.5 4.3-2.5zM571 745.3c-.2-1.9 2.4-3 2.4-3 2.7 2.5 5.3 3.8 6.6 5.2 0 0-2.6 2.3-3.4 2.1-.7-.3-5.3-2.5-5.6-4.3zM555.4 749.5c2 2.7 3.7 5.6 3.4 7.3 0 0-3.9 1.3-4.7.4-.9-.9-3.5-3.3-2.9-4.9.7-1.4 4.2-2.8 4.2-2.8zM485.7 721.8s-2 21.2 1.1 24.3l37-.2-3.8-25.8-34.3 1.7z"/><path class="st4" d="M534.2 744.3c.9 1.6 1.6 6.8.7 7.3-.9.4-51.8.7-52.3-.2-.4-.9-.9-6.6.7-8.2 1.5-1.6 50-.5 50.9 1.1z"/><path class="st1" d="m493 726.7-.3 11M501.6 727.1v10.6M509.9 727.4l.6 10.3"/><path class="st2" d="M485 709c-2.6 1.8-3.1 11.5.7 12.8 3.8 1.3 30.3 1.1 32.8 0s1.9-11.5-3-12.3c-4.9-1-27.8-2.3-30.5-.5zM537.7 711.9s22.8 8.3 22.2 10.2c-.7 2-9.5 11.9-12.9 11.6-3.4-.3-15.9-16.2-15.9-16.2l6.6-5.6z"/><path class="st3" d="M529.3 699.8s-2-9.9-5-11.3c-3-1.3-10.2 2-10.2 7.3s5.6 14.9 5.6 14.9l8.9-.7.7-10.2z"/><path class="st1" d="M522.6 707.8s-5-11.6-2.3-12.9c2.6-1.3 6.9 10.2 6.9 10.2"/><path class="st2" d="M519.9 710.8c-.4-2.2 7.9-11.6 9.6-10.9 1.7.7 9.3 9.6 9.6 11.9.3 2.3-4.5 8.5-7.9 9.3-3.5.7-10.9-8.1-11.3-10.3z"/></svg>