<svg version="1.1" id="Calque_1" xmlns="http://www.w3.org/2000/svg" x="0" y="0" viewBox="0 0 900 900" style="enable-background:new 0 0 900 900" xml:space="preserve"><style>.st0,.st1,.st2{fill:#ffeb99;stroke:#000;stroke-width:2.539;stroke-linecap:round;stroke-linejoin:round;stroke-miterlimit:10}.st1,.st2{fill:none}.st2{fill:red}.st3{fill:#fff}.st4{fill:red}.st11,.st14,.st6,.st7,.st9{fill:#0068ff;stroke:#000;stroke-width:2.539;stroke-linecap:round;stroke-linejoin:round;stroke-miterlimit:10}.st11,.st14,.st7,.st9{fill:#fff}.st11,.st14,.st9{fill:#ff7300}.st11,.st14{fill:#498e00}.st14{fill:none;stroke:red;stroke-width:3.3853}</style><path class="st0" d="M306.7 632.3s-57.4 41-59.8 43.4c-2.4 2.3 1.8 7.3.8 8.7s-6.1 5.6-7.6 9.9 3 9.4 3.4 20.9c.4 11.5-16.2 72.6-18.9 78.1-2.8 5.5-21.5 18.3-23.1 20.6s3.2 7.5 7.9 8.2c4.7.6 17.8-16.9 17.8-16.9s-9 19.5-9.9 23.7c-.9 4.2 7.6 5.4 9.3 2.5 1.7-2.9 13-22.9 13-22.9s-4.2 22-3.7 24.5 10.1 3.2 10.2.8c.1-2.4-.4-7.5.6-8.5 1-.9 3-1.1 3.9-3.4.9-2.3-1.8-7.4-.8-9.3.9-1.9 3.5-.4 3.5-2.5s-.8-10.2.8-10.7 4.7 6.3 7.5 6.2-.1 6.2 1.1 8.7 5.6.3 5.6.3.8 5.6 3.1 5.6 9-2.3 9-5.1-14.3-22-15.5-26.2.8-33 5.1-51.6 11.6-40.1 11.6-40.1 3.7 1.3 6.1-2.5c2.4-3.9 7-12.3 11.4-14.7 4.5-2.4 74.8-38.5 77.9-43.7s-70.3-4-70.3-4z"/><path class="st1" d="M261.7 669.9c14.2 3 11.6 26.3 20 27.4M238.8 775.9c10.8 1.9 14.6 12.1 18 14.6 3.4 2.5 8.5 1.1 8.2-1.5"/><path class="st2" d="M216 690.3s12.2-5.7 22-5.1c12.8.8 16.4 6.5 16.4 6.5s-8.3 5.2-18.1 4.5-20.3-5.9-20.3-5.9z"/><path class="st3" d="M250.3 703.2c.3-3.1.9-5.9 1.6-8.3-1-1-2.5-2-4.3-2.4-.7 3-.5 7 2.7 10.7z"/><path class="st4" d="M249.6 687.4s-1.4 2.1-2 5.1c1.9.4 3.3 1.3 4.3 2.4 1.2-4.1 2.5-6.7 2.5-6.7l-4.8-.8z"/><path class="st1" d="M249.6 687.4s-5.7 8.5.7 15.8c.7-8.5 4.1-15 4.1-15l-4.8-.8z"/><path class="st4" d="m256.7 686.8-5.9-.7s-.8 3.9-.2 7.9c1.9-.5 4.1-.6 5.7-.7-.1-3.8.4-6.5.4-6.5z"/><path class="st3" d="M250.7 694c.6 3.9 2.4 7.9 7.4 8.3-1.1-3.2-1.6-6.4-1.7-9-1.7.1-3.8.3-5.7.7z"/><path class="st1" d="M250.8 686.1s-2.9 15.4 7.2 16.2c-2.8-8.1-1.3-15.5-1.3-15.5l-5.9-.7z"/><path class="st3" d="M266.4 702.3c-1.5-3.4-2.3-6.4-2.8-8.7-2.2.2-4.6.7-7 1.5 1.6 3.2 4.6 6.8 9.8 7.2z"/><path class="st4" d="M254.4 689.3s.5 2.8 2.1 5.7c2.4-.8 4.8-1.2 7-1.5-.7-3.4-.8-5.5-.8-5.5l-8.3 1.3z"/><path class="st1" d="M254.4 689.3s2.2 12.1 11.9 13c-3.6-8.3-3.6-14.2-3.6-14.2l-8.3 1.2z"/><path class="st3" d="M224.1 787.6c-.7 3.5-.8 7.7 1.5 11.2.6-2.6 1.5-5 2.5-7.2-.8-1.4-2.1-3-4-4z"/><path class="st4" d="M226.8 780.3s-1.8 3.1-2.7 7.2c1.9 1 3.2 2.6 3.9 4 2.3-5 4.9-8.5 4.9-8.5l-6.1-2.7z"/><path class="st1" d="M226.8 780.3s-6.2 10.9-1.2 18.5c1.9-8.5 7.4-15.7 7.4-15.7l-6.2-2.8z"/><path class="st3" d="M229.7 790.8c.6 3.4 1.7 7 4.1 8.7.3-2.8.6-5.4 1-7.6-1.2-.7-2.8-1.3-5.1-1.1z"/><path class="st4" d="M229.2 783.9s-.1 3.2.5 6.9c2.3-.2 4 .4 5.1 1.1.8-4.9 1.7-8 1.7-8h-7.3z"/><path class="st1" d="M229.2 783.9s-.3 12.1 4.7 15.6c.8-9.2 2.7-15.6 2.7-15.6h-7.4z"/><path class="st4" d="m241.7 782.2-7.9.6s.9 4.9 3.1 8.9c1.5-1 3.5-1.8 5.3-2.3-.2-4.1-.5-7.2-.5-7.2z"/><path class="st3" d="M236.9 791.6c1.3 2.5 3.1 4.7 5.5 5.2 0-2.5-.1-5.2-.2-7.5-1.8.5-3.8 1.3-5.3 2.3z"/><path class="st1" d="M233.8 782.7s2.4 12.7 8.5 14.1c0-6.9-.6-14.7-.6-14.7l-7.9.6z"/><path class="st4" d="M208.2 823c2.3-.5 4.9-.8 4.9-2.5 0-2.9-4.5-10.4-8.2-9.6-1.7.4-3.4 2.1-4.7 4.5 4.2 1.3 6.7 5 8 7.6z"/><path class="st3" d="M204.8 824.6c.3-.9 1.8-1.2 3.4-1.6-1.3-2.6-3.8-6.3-8-7.7-1.4 2.6-2.4 5.9-2.4 8.8 0 5.5 7.8 11.4 12.5 9.5-1.7-2.2-6.4-6.8-5.5-9zM223.4 838.8c.2-1.3 1-2.7 1.9-4.1-2.1-1-5.6-2.1-9.8-1.5-.1 1.7.1 3.5.7 5 1.7 4.7 7 11.8 14.4 11.8-3-4.4-7.6-7.8-7.2-11.2z"/><path class="st4" d="M225.3 834.7c1.6-2.3 3.4-4.6 2.9-6.1-.8-2.3-7.2-5.3-9.6-3.7-1.7 1.1-3 4.6-3.1 8.3 4.2-.7 7.7.5 9.8 1.5zM243.2 839.8c1.3-2.4 3.9-4.9 2.9-7.4-1.3-3.5-8-5.1-10-3-1.2 1.3-2.2 4.6-2.3 8.1 4.4-.6 7.5 1 9.4 2.3z"/><path class="st3" d="M242.7 842.8c-.3-1 0-2 .5-3-1.8-1.3-5-2.9-9.3-2.3 0 2.3.4 4.6 1.4 6.6 2.7 4.9 10.1 7.6 15.6 4.7-2.3-1.6-7.1-2.8-8.2-6zM277.6 827c.5 1.1.7 2 .2 2.9-1.8 3-8-.4-10.6-3.2 1.1 10.4 10.8 13.9 16.9 9.5 3.2-2.3 2.6-6.9 1-11.3-1.5 0-4.2.2-7.5 2.1z"/><path class="st4" d="M285.1 825c-1.5-4-3.7-7.8-4.6-9.7-1.8-3.8-8.7-.8-8 3.2.5 2.8 3.9 5.9 5.1 8.5 3.3-1.9 6-2.1 7.5-2z"/><path class="st1" d="M204.9 810.9c-3.7.8-7.1 7.8-7.1 13.3 0 5.5 7.8 11.4 12.5 9.5-1.7-2.3-6.3-6.9-5.5-9.1.8-2.2 8.3-1.2 8.3-4.1s-4.5-10.4-8.2-9.6zM218.6 824.9c-2.4 1.6-4.1 8.6-2.4 13.2s7 11.8 14.4 11.8c-3-4.4-7.6-7.8-7.2-11.2.4-3.4 5.7-7.8 4.8-10.2-.8-2.2-7.1-5.2-9.6-3.6zM236.1 829.5c-1.9 2.1-3.6 9.8-.8 14.6 2.7 4.9 10.1 7.6 15.6 4.7-2.3-1.5-7.1-2.8-8.2-5.9s4.8-6.9 3.4-10.4c-1.3-3.6-8-5.2-10-3zM272.5 818.5c.6 4 7.1 8.5 5.3 11.4-1.8 3-8-.4-10.6-3.2 1.1 10.4 10.8 13.9 16.9 9.5 6.1-4.4-1.8-17.1-3.6-20.9s-8.7-.8-8 3.2z"/><path d="M246.9 675.7c-2.4 2.3-4.7 14.4 5.6 15 3.4.2 6.7-1.6 9.4-.8s1.3 6.8 4.6 5.5c3.4-1.3 1-14.6 1-14.6" style="fill:#feea98;stroke:#000;stroke-width:2.539;stroke-linecap:round;stroke-linejoin:round;stroke-miterlimit:10"/><path class="st6" d="M256.7 668.3s-.1-8.1 6.2-9.8c6.3-1.7 14.2 1.6 16.7 6.6 3.4 6.8 0 14.4-4 16.5-4 2.1-8.1-.8-8.1-.8l-10.8-12.5z"/><circle class="st3" cx="262.8" cy="674.2" r="10.2"/><path class="st4" d="M256.7 666c4.5-3.3 10.9-2.3 14.2 2.2 3.3 4.5 2.3 10.9-2.2 14.2l-12-16.4z"/><circle class="st1" cx="262.8" cy="674.2" r="10.2"/><circle class="st7" cx="262.8" cy="674.2" r="3.6"/><path d="M249.6 779.6s-6.4 6.9-13 7.6c-6.6.7-11-2-11.7-7.3-.7-5.5 4.9-7.9 4.9-7.9l7-16.6 10 5.2" style="fill:#fde997;stroke:#000;stroke-width:2.539;stroke-linecap:round;stroke-linejoin:round;stroke-miterlimit:10"/><path class="st6" d="M228.8 763.8s-1.7-7.9 4.2-10.8c5.9-2.9 14.2-1.2 17.7 3.2 4.6 6 2.8 14.1-.7 17s-8.1.7-8.1.7l-13.1-10.1z"/><circle class="st3" cx="235.8" cy="768.4" r="10.2"/><path class="st4" d="M228.3 761.5c3.8-4.1 10.3-4.4 14.4-.6 4.1 3.8 4.4 10.3.6 14.4l-15-13.8z"/><circle class="st1" cx="235.8" cy="768.4" r="10.2"/><circle class="st7" cx="235.8" cy="768.4" r="3.6"/><path class="st0" d="M597.9 683.8s18.3 56.8 20.3 62.8 2 21.5 2 24.6-6.5 8.7-5.4 17.8c1.1 9 11.3 16.1 11.3 16.1s2.5-.6 4.2-3.4-1.1-11.3-.6-16.1 3.1-6.5 5.4-5.9 2.1 5.9 4.2 6.5 6.2-.6 8.2.3c2 .8 2 2.7 3.7 3.8 1.7 1.1 6.1-.9 6.8 0 .6.9 1.3 3 3.1 4.1 1.8 1.1 4.9 1.1 5.4 2 .4 1 .8 4.2 3.1 4.4 2.3.2 5.2 1.5 6.8 2.5s1.6 2.2 4.5 3.9c3 1.8 11.1.1 12.4-2.5 1.3-2.7-8.3-5.1-7.1-9.2 3.3 1.6 7.3 2.4 9.9 0 2.5-2.4 3-9.5 0-10.5s-11.1-.8-14.1-4.8c3.7.9 16.6 2.4 16.6-.6s-1.5-6.6-4.2-8.2-5.9-3.7-7.9-4.5c-2-.8-14.7 1.5-17.5-.8-2.8-2.3-5.3-1.5-7.9-1.7-4.6-3.3-5.9-8.7-5.9-8.7s-21.6-62-21.4-65.1c.1-3.1 3.7-4.4 3.4-11.8-.3-7.4-6.2-15-6.2-15l-33 4.7v15.3z"/><path class="st1" d="M644.9 773.6c8.3 2.9 13.3 0 16.2-9.1M650.6 777.8s4.2 3.4 8 5.7c3.8 2.3 5.5.2 9.3.8 3.8.6 6.3 5.5 8.7 7.4s4.4.1 5.9.8c1.5.7 3.6 1.5 3.7 3M659.9 774.7c1 .3 2.1.6 2.9.8 2.3.6 6.3-1.5 10.6-.5 4.2 1 6.8 3.8 8.5 5.3"/><path class="st2" d="M630 673.4c.2-.4 4.1-9.9 10.6-13.5 6.5-3.6 16.4-2.6 16.4-2.6s-6.9 9.5-12.3 11.9c-5.3 2.5-14.7 4.2-14.7 4.2z"/><path class="st3" d="M653.6 764.7c1.6 2.3 3.5 5.6 5.5 10.4 2.2-6.2 1.4-10.9-.1-14.2-2.6.7-4.3 2.3-5.4 3.8z"/><path class="st4" d="m654.2 755.1-4.9 5.1s1.8.9 4.4 4.6c1.1-1.5 2.9-3.2 5.3-3.8-1.9-4-4.8-5.9-4.8-5.9z"/><path class="st1" d="M654.2 755.1s9.8 6.5 4.9 20c-5.3-12.7-9.8-15-9.8-15l4.9-5z"/><path class="st3" d="M653 777c1.7-3.4 1.4-8 .5-11.8-2.2.2-4.2.8-5.8 1.5 1.2 2.3 2.9 5.6 5.3 10.3z"/><path class="st4" d="M644.6 760.7s.5.8 3.1 5.9c1.6-.7 3.6-1.3 5.8-1.5-.9-4-2.2-7.1-2.2-7.1l-6.7 2.7z"/><path class="st1" d="M644.6 760.7s1.1 1.7 8.4 16.3c3.5-6.9-1.7-19-1.7-19l-6.7 2.7z"/><path class="st3" d="M641.2 766.5c.6 2.5 1.2 5.5 1.7 9.3 2.1-1.1 3.3-4.3 3.9-7.5-1.1-.9-3-1.8-5.6-1.8z"/><path class="st4" d="M639.1 759.6s1 2.4 2.1 7c2.6-.1 4.5.9 5.6 1.7.8-3.9.9-7.8.9-7.8l-8.6-.9z"/><path class="st1" d="M639.6 760.9c.4 1.1 1 3 1.6 5.6.6 2.5 1.2 5.5 1.7 9.3 2.1-1.1 3.3-4.3 3.9-7.5.8-3.9.9-7.8.9-7.8l-6.5-.6c0-.1-1.9.1-1.6 1z"/><path class="st3" d="M623.7 798.8c-1.9 1.1-3.9 3.1-4.6 6.8 3.8 3.4 9.7 5.7 13.7 5.3 5.9-.7 12.8-10.7 12.8-10.7s-8.1 5.1-12.2 4.8c-3.3-.4-7.6-3.1-9.7-6.2z"/><path class="st4" d="M623.7 798.8c-.5-.8-.8-1.6-1-2.4-.8-4.1-2.3-5.6-3.8-5.6s-4.9 3.9-3.4 9.6c.5 1.8 1.8 3.6 3.6 5.2.7-3.8 2.7-5.8 4.6-6.8zM692.2 802.6c-2.6-1.6-6.3.4-6.6 2.2-.2 1.2 1.5 2.4 2.7 4.1 2.4-1.8 5.1-2.3 7.2-2.4-.6-1.8-1.8-3-3.3-3.9z"/><path class="st3" d="M689.3 811.9c-.1 3.4-5.5 3.1-9.7 3.1 3 2.5 14.2 3.7 15.8-2.1.7-2.7.7-4.8.2-6.3-2.2 0-4.8.6-7.2 2.4.5.8.9 1.8.9 2.9zM698.3 784.1c-1.7 2.9-1.6 5.7-1 7.7 1.6.1 3 .1 3.8.8 1.6 1.3.7 6.2.7 9.7 3-1.5 6.1-11.4 3-15-1.6-1.7-4.1-2.8-6.5-3.2z"/><path class="st4" d="M698.3 784.1c-2.3-.4-4.5-.1-5.4.9-1.7 2-2.7 5 .1 6.1 1.3.5 2.8.6 4.2.6-.4-1.9-.6-4.7 1.1-7.6z"/><path class="st3" d="M707.6 773.5c-2.1-1.7-4.5-2.8-6.7-3.4-1.3 3.1.3 7.8 1.4 10.4 2.1-.3 4.1-.7 5.5-.2 2.5.8 2 3.7 3.2 8.2 3.4-6.1 1.5-11-3.4-15z"/><path class="st4" d="M700.9 770.1c-2.9-.8-5.5-.6-6.5.6-1.8 2 .1 8.3 3 9.6 1.3.6 3.1.4 5 .2-1.2-2.6-2.8-7.3-1.5-10.4z"/><path class="st1" d="M618.9 790.8c-1.6 0-4.9 3.9-3.4 9.6 1.6 5.6 11.4 11.1 17.3 10.4 5.9-.7 12.8-10.7 12.8-10.7s-8.1 5.1-12.2 4.8c-4.1-.3-9.9-4.4-10.7-8.5-.8-4.1-2.2-5.6-3.8-5.6zM685.6 804.9c-.3 1.8 3.8 3.7 3.7 7.1-.1 3.4-5.5 3.1-9.7 3.1 3 2.5 14.2 3.7 15.8-2.1 1.6-5.8-.3-8.6-3.1-10.3-2.7-1.6-6.4.3-6.7 2.2zM693 785.1c-1.7 2-2.7 5 .1 6.1 2.8 1.1 6.5.2 8 1.4s.7 6.2.7 9.7c3-1.5 6.1-11.4 3-15-3.1-3.5-10.1-4.3-11.8-2.2zM694.4 770.7c-1.8 2 .1 8.3 3 9.6 2.8 1.3 7.9-.8 10.4 0s2 3.7 3.2 8.2c3.4-6.1 1.5-11-3.4-15s-11.4-4.8-13.2-2.8z"/><path class="st3" d="M630 677.7c1.9 2.7 4.3 6.5 6.8 11.7 2.5-4.6 1.9-10.5.6-15.3-3.9.3-6.1 1.9-7.4 3.6z"/><path class="st4" d="M626 672.7s1.6 1.6 4 5c1.3-1.6 3.5-3.3 7.4-3.7-1.2-4.5-2.9-8-2.9-8l-8.5 6.7z"/><path class="st1" d="M626 672.7s5.2 5.1 10.9 16.6c4.9-8.9-2.3-23.3-2.3-23.3l-8.6 6.7z"/><path class="st4" d="m627.1 670.9-7.9 3.9s1.8 2.1 4.2 6.3c1.9-1.4 4.3-1.9 5.9-2.1-.9-4.5-2.2-8.1-2.2-8.1z"/><path class="st3" d="M623.4 681.1c1.6 2.8 3.5 6.5 5.3 11.1 1.9-3.4 1.5-8.7.6-13.2-1.6.2-4 .7-5.9 2.1z"/><path class="st1" d="M619.2 674.8s5 5.9 9.4 17.3c3.8-6.7-1.6-21.3-1.6-21.3l-7.8 4z"/><path class="st4" d="m623.9 674.8-9.6 4.7s1.2 1.5 2.6 4.6c2.1-1.4 5-2 7.3-2.3.1-4-.3-7-.3-7z"/><path class="st3" d="M624.1 681.8c-2.3.3-5.2.9-7.3 2.3 1.2 2.7 2.4 6.6 3 12 3.2-4 4.2-9.8 4.3-14.3z"/><path class="st1" d="M614.3 679.5s4.2 4.9 5.6 16.6c5.9-7.6 4-21.3 4-21.3l-9.6 4.7z"/><path class="st0" d="M634.3 662.4c-1-3.3-32.2-14.6-58.4-25.9s-36.7-22.3-36.7-22.3-68.1 4.6-57.6 13.9c10.5 9.3 103 49.3 103 49.3s3.7 15.8 13 13.3 2.5-14.6 4.2-16.1c1.7-1.5 5.6-3.7 8.2-1s-.7 17.4 3.7 16.3c2.8-.7 1.8-9.4 4.4-11.4 2.5-2 4.7.8 7.2-.7 2.5-1.6 1.3-3.2 2.8-4.9 1.6-1.7 2.8-2.1 4.7-3.6 1.8-1.5 2.5-3.6 1.5-6.9z"/><path class="st6" d="M609.7 667.3s-7.7 2.4-11.1-3.2-2.5-14.1 1.6-17.9c5.5-5.2 13.8-4 17-.8 3.2 3.2 1.5 8 1.5 8l-9 13.9z"/><circle class="st3" cx="613.7" cy="659.9" r="10.2"/><path class="st4" d="M607.5 668c-4.5-3.4-5.3-9.8-1.9-14.3s9.8-5.3 14.3-1.9L607.5 668z"/><circle class="st1" cx="613.7" cy="659.9" r="10.2"/><circle class="st7" cx="613.7" cy="659.9" r="3.6"/><path class="st0" d="M633.4 763.7s2.4-2 4.5-2.3c2.1-.3 4.4 2.3 8 2.3 3.6 0 9-3.9 9.7-7.3s-4.4-5.8-4.4-5.8l-13.8-4.9"/><path class="st6" d="M639.1 747.8s-5-3.5-4.6-9.8c.4-6.6 7.6-10 13.2-9.2 7.5 1 11.8 6.5 11.3 11s-5.3 6.2-5.3 6.2l-14.6 1.8z"/><circle class="st3" cx="645.6" cy="746.2" r="10.2"/><path class="st4" d="M635.4 746.5c-.2-5.6 4.3-10.3 9.9-10.5s10.3 4.3 10.5 9.9l-20.4.6z"/><circle class="st1" cx="645.6" cy="746.2" r="10.2"/><circle class="st7" cx="645.6" cy="746.2" r="3.6"/><path class="st6" d="M470.3 757.3s-4.4 15.7-2.8 22.4c1.7 6.8 10.4 10.6 10.4 10.6s4 8.2 7.6 6.8c3.6-1.4 3.8-6.8 3.8-6.8s5.5 5.8 9.1 3.6-.8-10.2-.8-10.2 7.4-7 5.5-16.3c-1.9-9.3-12.9-14.2-12.9-14.2l-19.9 4.1z"/><path class="st6" d="M465.6 730s-5.4 15.4-3.1 22.6c2.3 7.2 8 10.8 8 10.8s1.3 10 7.4 10c6.1 0 6.1-8.5 6.1-8.5s6.3 9.9 11.2 6.1c4.9-3.8-2.1-11.6-2.1-11.6s9.6-7.2 7.9-18c-1.7-10.8-10.6-14.8-10.6-14.8l-24.8 3.4z"/><path class="st6" d="M458.9 695.5s-9.3 12.3-6.3 23.9c3 11.6 12.7 15.2 12.7 15.2s3.1 8.4 9.9 8.5c7 .1 8-7 8-7s4.2 7.6 9.9 4.7c5.7-3 0-11 0-11s10.2-5.3 7.4-20.3c-2.8-15-15.7-17.1-15.7-17.1l-25.9 3.1z"/><path class="st9" d="M472 621c-16.6-2.7-42.6-1.2-35.3 10.4 10.8 17 19 69.5 25 78.4 4 6 14 7.1 20.4 3.7l-10.2-88.3.1-4.2z"/><path class="st7" d="m484.1 643-10.1.4 1.3 11.7 9.4-.6c-.2-4.1-.4-8-.6-11.5zM484.7 627.2c1-2.6-4.8-4.9-12.7-6.2l-.2 4.1 2.1 18.3 10.1-.4c-.2-7.7-.1-13.6.7-15.8z"/><path class="st7" d="m484.7 654.5-9.4.6 1.5 13.2 8.8-.4c-.2-4.5-.6-9.1-.9-13.4zM479.9 695.1l2.1 18.3c3.1-1.7 5.4-4.4 5.7-8.1.2-2.2.1-6.3-.2-11.4l-7.6 1.2zM485.7 667.9l-8.8.4 1.4 12.3 8.3-.8c-.3-3.9-.6-7.9-.9-11.9z"/><path class="st7" d="m486.6 679.8-8.3.8 1.7 14.5 7.6-1.2c-.3-4.2-.6-9-1-14.1z"/><path class="st9" d="M399.3 635.2s-3.9 6.1-7.9 18.2-4.7 49.1-7.2 56.1-14.8 14.4-16.3 17.1c-1.5 2.8-2 10.3-1.1 13.3 1 3.1 1.5 5.3 1.5 8 0 2.8-8 5.1-9.5 14.2s7.6 11.7 8 15.9c.4 4.2-1.7 12.5.4 15.9s12.8 2.8 11.8-.8c9.4-4.2 22.1-40 28.9-47.2 6.8-7.2 19.3-54.3 23.9-69 4.7-14.7 12.3-44.1 12.3-44.1l-44.8 2.4z"/><path class="st9" d="M375.3 789.1s3.4-.2 3.7 4 6 2.5 11.9 0 15-10.6 16.2-25.6c1.2-15 1.6-30.3-.1-35.1-1.7-4.9-6.8-5.7-6.8-5.7"/><path class="st3" d="M382.3 809.1c-1.7 3.9-3.5 6.7-5.3 7.5-5.2 2.1-14.3-.8-14.3-.8s4.8 9.7 12.6 8.7c7.7-.9 12.4-7.5 12.4-7.5-.4-3.2-3.3-6.1-5.4-7.9z"/><path class="st3" d="M395 812.7c-.1-.7-.2-1.4-.2-2.2-3.6 1.5-7.6 3.9-7 6.5 0 0 1.7 8.6 9.3 10.7s12.1-1.8 12.1-1.8-13.2-4.8-14.2-13.2z"/><path class="st4" d="M394.8 810.5c-.7-9.3 0-26.8-.4-32.4-.2-3.6-2.5-7.9-4.3-10.9-.7 5.3-1 10.9-1.2 15.9-.3 6.6-3.1 18.3-6.5 26.1 2.1 1.8 5 4.7 5.4 7.9-.6-2.8 3.3-5.1 7-6.6z"/><path class="st1" d="M390.1 767.2c.7-5.2 2-10 4.1-13.2M395 812.7c-1.1-8.4-.2-28.5-.6-34.6-.2-3.6-2.5-7.9-4.3-10.9-.7 5.3-1 10.9-1.2 15.9-.4 9.9-6.6 31.4-11.8 33.5s-14.3-.8-14.3-.8 4.8 9.7 12.6 8.7c7.7-.9 12.4-7.5 12.4-7.5s1.7 8.6 9.3 10.7 12.1-1.8 12.1-1.8-13.2-4.8-14.2-13.2z"/><path class="st3" d="M400.3 769c-2.1 1.4-4 2.3-5.7 3-.8 1.8-.3 3.8.4 5.3 2.7-2 5-4.7 5.3-8.3z"/><path class="st4" d="M394.6 771.9c-5.3 1.9-8.6.9-8.6.9l-1.2 8.7c.5-.1 5.9-1.3 10.1-4.2-.6-1.6-1.1-3.6-.3-5.4z"/><path class="st1" d="M384.8 781.4c.8-.2 14.9-3.1 15.4-12.5-8.5 5.7-14.3 3.8-14.3 3.8l-1.1 8.7z"/><path class="st4" d="M393.5 766c-5.2 2.2-7.5 2.9-7.5 2.9l1.6 7s3.4-1.2 6.6-3.9c-.6-1.7-1.1-3.9-.7-6z"/><path class="st3" d="M399.3 763.4c-2.3 1-4.2 1.9-5.9 2.6-.3 2.1.2 4.3.8 6 2.3-2 4.5-4.8 5.1-8.6z"/><path class="st1" d="M386 769s4-1.2 13.3-5.5c-1.6 9.1-11.8 12.5-11.8 12.5l-1.5-7z"/><path d="M394.1 753.9c-2.1 3.2-3.3 8-4.1 13.2-.7 5.3-1 10.9-1.2 15.9-.1 1.9-.4 4.2-.8 6.8l-9.5-11.6 7.5-25.8 8.1 1.5z" style="fill:#ff7300"/><path class="st1" d="M394.1 753.9c-2.1 3.2-3.3 8-4.1 13.2-.7 5.3-1 10.9-1.2 15.9-.1 1.9-.4 4.2-.8 6.8"/><path class="st7" d="m410.9 709.3 10.7 1.6c1.4-4.7 2.8-9.4 4.2-13.8l-10.8-.6c-1.3 4.4-2.7 8.8-4.1 12.8zM406.4 722.5l9.8 5.1c1.8-5.1 3.6-10.9 5.4-16.6l-10.7-1.6c-1.6 4.8-3.1 9.3-4.5 13.1zM415 696.4l10.8.6c.9-3 1.7-5.9 2.5-8.5l-10.8-.9c-.8 3-1.6 5.9-2.5 8.8zM444.1 632.9l-13.6.7c-.6 2.4-1.3 5.5-2.2 9.3l13 .5c1.6-6.2 2.8-10.5 2.8-10.5zM420.2 677.3c-.8 3.4-1.7 6.8-2.6 10.3l10.8.9c1.4-4.7 2.6-8.8 3.5-11.6.3-.9.6-2 .9-3l-11.6-.7c-.4 1.4-.7 2.7-1 4.1z"/><path class="st7" d="M424.7 657.8c-1.1 4.8-2.3 9.9-3.6 15.4l11.6.7c1.4-4.8 3.1-10.5 4.7-16.2l-12.7.1z"/><path class="st7" d="m441.3 643.4-13-.5c-1 4.2-2.2 9.3-3.5 14.9l12.6-.1c1.4-5.1 2.8-10.1 3.9-14.3zM416.2 727.5l-9.8-5.1c-.8 2.3-1.5 4.3-2.2 6 1.1.9 2.2 2.1 2.8 3.9.8 2.4 1.2 7.3 1.1 13.5l1.3-2.1c2.1-3.4 4.4-9.2 6.8-16.2zM375.3 757.3s-5.3 2.5-5.3 8.9 5.3 9.7 5.3 9.7 6.8-3.4 6.8-9.3-6.8-9.3-6.8-9.3z"/><circle class="st1" cx="376" cy="766.4" r="2.5"/><path class="st6" d="M375.3 757.3s-5.3 2.5-5.3 8.9 5.3 9.7 5.3 9.7v-18.6z"/><path class="st0" d="M358.2 398.3s7.4-4.9 7-12.5-5.5-13.5-5.5-13.5 7.2-2.3 8.5-8.5c1.3-6.1-5-21.3-5-21.3l79.4 3.3s-1.1 14.2 2.5 19.5c3.7 5.3 13.2 5.1 13.2 5.1s-5.1 9.3-1.5 16.5c3.6 7.2 13.8 9.9 13.8 9.9l-32.4 22.9-58.2-3-21.8-18.4z"/><path class="st0" d="M379 350.7c-3.3 3.6-2.2 10.3 2.9 12.2-4.7 1.9-7.4 5.1-7.4 10.6s6.3 8 6.3 8-6.6 2.3-6.1 8.3c.4 5.9 9.9 6.3 9.9 6.3s-7.5 4.9-7.5 8.7c0 3.8 15.3 9.9 15.3 9.9l29.8-1.7s12.3-6.5 12.3-12.6-14.4-5-14.4-5 6.6-2.1 7.2-7.4c.6-5.3-6.6-7-6.6-7s5.5-2.5 5.5-6.7-6.2-6.8-6.2-6.8 6.1-2.5 6.3-7.8c.2-5.3-4.2-9.1-4.2-9.1s-39.8-3.5-43.1.1z"/><path class="st1" d="M381.9 362.9c5.1 2.1 33.9 7 38.3 4.7M380.8 381.6c4.4 2.1 37.2.8 40-.5"/><path class="st0" d="M394.3 367.6c0 10.2 17.6 11.4 17.6.8.1-10.5-17.6-11-17.6-.8z"/><path class="st0" d="M394.3 384.1c0 12.1 13.7 9.6 14.5 0s-14.5-12.1-14.5 0z"/><path class="st0" d="M394.3 402.9c2.5 12.3 21.6 4 19-4.2-2.5-8.3-21.5-8-19 4.2z"/><path class="st7" d="M285.6 453c6.5 66.4-5.1 181.2-5.1 181.2s46.8 5.9 129.2 3.4c82.4-2.5 134.6-21.7 134.6-21.7s-11.3-63-20.6-118.2-6.8-93.1-6.8-93.1l-115.2 25.1-60.7-28.5c-.1-.1-52.6 30.3-55.4 51.8z"/><path class="st0" d="M490.6 298.2s-1 6-2.5 12.7c-1.5 6.7-22.4 35.4-32.4 39.8-9.9 4.4-13.1 0-13.1 0l-75.7-4.5s-11.4 3.6-26.2-12.3c-14.8-15.9-20.5-44.5-20.5-44.5l-.1-69.7 18.5-47 45.2-21.5 83.4 13.6 32.4 18.1 4.4 59.9-3.5 47.6-9.9 7.8zM229.1 294v23l38.5-3.8-1.1-23zM227.7 230.1l-4.3 24.1h39.3l1.4-24.1zM264.1 159.8l-20.4 19.9 33.4 17.8 13.6-20.8zM305 118.1l-27.5 19.3 24.2 19.2 21.6-15.4zM350.7 90l-32.3 12.3 27.5 32.5 18.2-12.2zM392.5 76h27.7l-1.3 39.6-24.1 1.1zM438.4 78.8l28.3 4.6-8.9 37.2-25.6-4.8zM469.5 126l20.1 13.3 18.4-26.9-20.1-12.7zM503.9 148.4l14.4 14.4 29.4-22.5-18.3-16zM535.7 188.8c-.2-1.3-7.2-20.7-7.2-20.7l36-8.3 5.1 22.1-33.9 6.9zM547.7 241.7l-3.1-21 32.8-3.3 1.4 24.3z"/><path class="st2" d="m274.8 285.1-55 6.3 1.7 5.7 53.3-5.2zM221.7 225.6v6.8l74.3 2.1v-6.3zM305 188.6l-48.4-30.5 2.2-6.8 51 34zM296.6 112.2l6.8-2.7 40 53.9-6 1.8zM365.1 131.3l-21.7-47.9 6.1-2.7 25.8 55.5zM391.8 131.3l-5.5-58.7h8.3l4.1 63.7zM425.9 123.6l7.6-49.9 8 1.5-7.8 48.4zM454 141.8c1.1 0 32.2-47 32.2-47l5.1 3.8-34.1 47.7-3.2-4.5zM497.2 149.9l30.7-32 4.6 7.2-32.2 30.4zM530.3 188.8l47.3-11.6 6.3 4.6-55.4 13.3zM581.2 238.9l-55.8 1.5 1.2 6.2 61.3-2.2z"/><path class="st11" d="M602.5 219.1s-22.4-1.7-22.4 15.2 25 12.3 25 12.3l-2.6-27.5zM589.2 157.5s-23.9.4-22 15.2c1.9 14.8 26.7 9 26.7 9l-4.7-24.2zM540.3 93.2s-24.1 17.6-12.7 29.6c11.4 12.1 30.3-13.2 30.3-13.2l-17.6-16.4zM491.2 73.7s-15.3 18.6-3.4 26c12 7.4 23.9-16.3 23.9-16.3l-20.5-9.7zM428.5 52.8s-4.7 22 9.8 26 21.2-21.6 21.2-21.6l-31-4.4zM378.7 50s-3.5 26 13.8 26S408 50 408 50h-29.3zM320 68.8s8.4 26.2 23.4 20.3c15-5.9 2.3-29.4 2.3-29.4L320 68.8zM273.7 99.9s11.9 24 26.3 16.8c14.5-7.2 2.4-27.8 2.4-27.8l-28.7 11zM225.7 159.8l20.5-26.4s21.6 14.7 10.4 28.1c-11.2 13.3-30.9-1.7-30.9-1.7zM206 213.6l-9.1 25.6s21.8 9.9 27.7-5c6-14.9-18.6-20.6-18.6-20.6zM201.2 291.1l4 23.8s24.5-3.2 22.4-16.7c-2-13.6-26.4-7.1-26.4-7.1z"/><path class="st1" d="M526.6 229.4s4.2.2 7.6-1.7M539.1 232.6c-2.8.8-9.6 1.7-9.6 1.7"/><path d="M296.4 286.6c-3.4 2.8-12.5-3.6-16.5-1.1s-3.2 11.7.6 11.7c3.8 0 1.1-5.9 4.7-5.3 3.5.6 4 10.4-1.9 11.4-5.9 1.1-12.7-2-14.4-8.6-1.7-6.7 4.2-10.8 4.2-10.8s-10.2-6.9-8.9-13.8 5.7-11.6 10.4-11 9.4 4.3 7.9 6.3-3.9 0-6.8-.1c-2.8-.1-4.7 3.5 1.2 5.5 5.9 2.1 18.4-8.4 18.4-8.4l5.5-19.7s-5.7-1.7-8.4-5.4c-2.8-3.7 1.7-18.3-2.5-19.8s-6.8-1.3-8.3 1.1c-2.8 4.5 5.9 6.1 2.8 9-3.2 2.9-12.9-.1-9.7-10s14.1-6.1 14.1-6.1-9.4-7.7-5.8-14c3.6-6.3 13.1-6.5 13.8-3 .6 3.5-6.2 1.6-6.2 5.1 0 3.6 3.7 7.8 9.1 5.2 5.5-2.6 21.2-26.2 22.3-30.8s-.8-9.1-4.4-9.1c-3.6 0-.7 6.2-3.5 8.5s-9.3-4.9-6.4-11c2.9-6.1 12.6-2.3 12.6-2.3s-4.8-8.4-1.6-12.5c3.2-4 11.7-3.1 12.3-1 .6 2.1-6.8 2.2-6.4 5.7.4 3.5 8.5 6 13.3 4.8s11.8 11.3 11.8 11.3l13.2-9.1-2-8.5s5.9-14.1 3.6-16.2-4 6.2-6.4 5.7c-2.4-.5-5.4-8.8 1.3-13.1 6.8-4.3 10.9 4.9 10.7 4.4-.3-.5 1.1-6.8 8.2-8.7 7.1-1.9 15 .6 13.5 4.3-1.5 3.7-9.3-1.2-12.3 4.5s6.1 13.5 9.3 13.8c3.2.3 20.5-3.4 20.5-3.4l6.2-8.4s7.7-5.8 4.3-8.3c-3.4-2.5-7.7 3.5-10.3.9-2.6-2.6 2.1-8.1 9.4-9.1s7.5 5.3 8.1 5.7c.6.4 5.2-5.1 11.2-3 6 2.1 8.4 12.7 6 14.6-2.4 1.9-2.8-5.4-6-6.5-3.2-1.1-6.1 5.5-6.1 5.5l5.1 16.2 26.7.6s12.8 4.9 14.6-.8c1.7-5.7-1.4-10.6-1.4-10.6s-7.4 5.3-8.5 2.1c-1.1-3.2 5.3-7.5 11.2-5.9s5.9 13.5 5.9 13.5 9.3-5.6 15.2-.4c5.9 5.2.8 15-2.8 13.9-3.5-1.1 1.4-9.3-1.8-9.9-3.2-.6-5 .9-6.2 5.2s.1 10 4.5 13.5 18.8 21.4 18.8 21.4 9.8 4.1 11.7 0c1.9-4.1-8.7-1.4-6.6-6.9s9.3-4.7 12.9.7c3.6 5.4-2.8 12.5-2.8 12.5s12.3 2.1 12.1 11.1c-.2 8.9-6.3 13.1-10.2 11.2-3.8-1.9 8-9.9 2.1-12.9s-13.1 9.3-13.1 9.3l-1.1 18 9.9 7.5s-2.3 17.2 3.2 18.1c5.5.8 2.8-7.3 7.4-6.6s3.6 6.3 2.5 10c-1.1 3.6-11 2.2-11 2.2s8.7 6.8 6.8 14c-1.9 7.2-9.5 11.2-13.5 7.2s7.5-7.2 3-12.8c-4.6-5.6-11.5-1.9-11.5-1.9l-25.5-48.6s-.5-8.4-3.6-11.8c-3.1-3.4-2.1-7.8-4.8-10.9-2.7-3.1-4.8-3.7-7.9-6.8s-.6-5.6-4.4-6.2c-3.8-.6-2.8.9-5.7-1.2-3-2-2.1-4.2-5.3-5.9s-6.3.5-10-.3c-3.7-.9-4.9-5.4-9.7-5s-20.1 1.7-27.3 0c-7.2-1.7-14.6-8-17.3-8-2.8 0-4.9 11.5-12.8 13-2.5.5-4.5 5.6-7.9 6.7-3.3 1-7.3.6-10.1 2.3-2.8 1.7-1.8 7.2-5.6 10.3-3.9 3.1-15.6 2.3-19.2 6-3.6 3.7 2.3 8.5 0 12.3-2.3 3.8-3.6 3.4-5.4 6.3-1.8 3 1 4.2-.5 10.2-1.5 5.9-10.3 8.5-10.3 8.5s4.6 5.6 5.1 8.6-2.4 6.8-2.4 6.8-24.8 24.5-28.2 27.3z" style="fill:#506738;stroke:#000;stroke-width:2.539;stroke-linecap:round;stroke-linejoin:round;stroke-miterlimit:10"/><path class="st9" d="M300.8 238.9c4.9-43 43.4-90.8 120.5-88.7 77.2 2 95.5 47.9 91.9 75.4-3.6 27.5-13.5 23.7-11.4 0s-12.9-63.5-81.7-65.8c-68.8-2.3-103.3 41.4-108 81.9-4.8 40.8-16.2 40.3-11.3-2.8z"/><path class="st0" d="M340.6 380.7c-2.4.7-29.1 13.3-51.4 32.2-24 20.4-43.7 47.2-46 46.9-4.4-.6-5.5-52.5-4.7-57.8.8-5.3 19-27.5 19-30.3 0-2.8-7.3-4.5-8.3-2.3-1 2.2-1.1 3-2.8 4.7-1.7 1.7-3.2.6-4.6 2.3-1.5 1.7 0 4.9-1.1 7s-5.1 3.4-6.3 1.7c-1.3-1.7-1.5-3.4-2.3-5.5-.8-2.1.8-4.2 0-7.4s-3.6-2.4-3.7-4.4c0-.6 3.2-1.5 2.9-3.8-.2-1.9-3.3-2.6-4.1-4.9-1.5-4.7-.9-7.5-2.6-9.1s-5.7.6-5.7 3.4 2.1 21.8.8 22c-1.3.2-3-4.4-3-6.6s.6-4 0-6.3-3.3-.9-3.6-2.3c-.3-1.4-.4-8-2.8-8.7-2.3-.6-5.5.8-5.9 3.6-.4 2.8 10.3 27.3 8.8 28.4-1.4 1.1-5.4-6.8-5.7-9.3-.3-2.5-.9-4.8-3.4-7s-5.1-5.5-6.8-6.8-6.2 3.6-5.1 5.5c1.1 1.9 4.4 8.9 5.1 10.6.6 1.7 3 2.5 4.2 3.8 1.3 1.3.5 5.6 1.9 6.3s3 1.9 3.4 3.2c.4 1.3 1.5 9.3 5.1 11.4.4 5.3 1.5 71.5 5.1 80.6 3.6 9.1 10.6 12.6 23.5 11.6 21.8-1.7 77.4-68.8 89.1-69.8 11.6-1.1 78 35.8 78 35.8s86-23.5 86-24.1c0-.6 14.6-33.2 14.6-33.2s69.8 50.4 85.1 59.2 38.1-2.8 44.4-16.3c6.3-13.5-1.1-25.6 8.5-49.9 9.6-24.3 9-30.5 11.8-32.2 2.3.6 4.2-4.9 9.1-6.8 4.9-1.9 5.7-4.7 8-8 2.3-3.4 4-4.4 5.7-6.8 1.7-2.3 11.2-11.4 11.2-13.5 0-2.1-3.4-8.9-6.3-8.9s-5.9 6.1-7.4 8.7c-1.5 2.5-5.5.4-7.2 2.8-.4-4.7 7.4-13.8 7.4-16.3s-4.2-4.7-6.8-4c-2.5.6-8.5 13.1-9.9 15.4-.5-4 1.9-15.9-.2-18.2s-9.3-2.3-10.6 1.3c-1.3 3.6.4 6.6 1.5 10.4-4 2.3-2.3 10.2-2.3 10.2s-12.5 17.3-15.7 16.5c-3.2-.8-4.7-1.7-5.7-4-1.1-2.3 1.1-3.2.6-5.1-.4-1.9-3.6-2.1-3-3.4s1.3-2.3.6-4.7-1.1-2.3-3-4c-1.9-1.7 2.3-7.2-1.1-8.5-3.4-1.3-10.2-3.4-11.2-.6-1.1 2.8-.4 10.1.8 12.7 1.3 2.6 2.4 8.9 2.3 11.6s-1.7 15.4-.4 20.5c1.3 5.1-4.7 69.9-12.1 72.2-6.1 1.9-23.5-22.4-48-36.6s-35.5-18.4-35.5-18.4l-38.1-15s-8.3-1.1-12.5 7 3 21.6-3.6 25.8c-6.6 4.2-9-.2-15.9 2.1-6.9 2.3-7.8 11-11.2 12.9-3.4 1.9-9.7 1.3-13.5.4-3.8-.8-4.9-5.2-9.3-5.7-8.6-1-13.5 7.4-21.6 5.9-8-1.5-9.9-8.8-15.7-9.9s-9 1.3-16.1-2.5c-7.1-3.8-6-12.5-8-15.4-1.3-3.1-7.6-3.8-12.7-2.3z"/><path class="st1" d="M212.4 401.2c6.1 2 11.7-7.8 16.2-7.3 4.5.6 10.2 7.3 10.2 7.3M228.7 477.2l-5.4-80.8M410.6 482.1s-6.6-4-11.2.8c-4.6 4.9-3.8 13.4-2 16.2M623.6 425.7c7.2 3.5 0 15.7 0 15.7M662.2 325.5c0 2.8-3.4 4.2-4.1 6.3-.6 2-1.5 6.5-3.5 8.5s-3.8 3.1-6.1 4.4-2.3 4.4-2.3 4.4M671.5 330.3c0 3-4.8 4.4-5.4 8-.6 3.7-3.3 6.9-6.3 7.8s-5.7 7.6-5.7 7.6M658.4 362.9c-7.3 1.1-7.9-5.1-10-6.9s-4.7-1.1-4.7-1.1"/><path class="st7" d="M480 336.6c1.2 2 45.7 1 46.7-2.4s-3.4-67.3-3.4-67.3l-20.4-11.7-23.7 16.4s-.4 63 .8 65z"/><path class="st1" d="m485.2 311.9 1.1 25.5M494.3 311.3l.6 26.1M504.8 310.1l.3 27.2M513.9 310.1v26.7M520.4 311.9l.5 24.1"/><path class="st0" d="M239 488.5s2.7 4.3 6.9 4.9 6.9-3 6.9-3l-1.3-11.6"/><path class="st3" d="M257 355.3c-3.8-7.4-18.8-6.2-22.6-.4 4.9-.4 8.6.3 13.4 2.7 1.3.7 1.9 1.9 2.2 3.3 3.5-1.3 6.3-1.7 8.5-1.7-.4-1.2-.9-2.5-1.5-3.9z"/><path class="st4" d="M249.9 360.9c.6 3.9-1.4 9.4 0 10.5 1.9 1.5 6.1.8 7.4-.6 1.1-1.2 2.7-5.8 1.2-11.5-2.2-.1-5.1.3-8.6 1.6z"/><path class="st3" d="M225.4 345.6c1.1-3.8 4.7-7.6 10.3-7.6-2.5-2.4-12.7-4.2-17.6 3-1.5 2.2-2.1 4.6-2.3 7.1 6.4-.8 8.3 5.4 11.3 6.1-.7-2.9-2.5-5.9-1.7-8.6z"/><path class="st4" d="M215.7 348c-.3 5.8 2.2 11.5 4 12.8 2.5 1.8 6 .6 7.3-3.2.4-1.1.3-2.3 0-3.5-2.9-.6-4.8-6.9-11.3-6.1z"/><path class="st3" d="M208.4 346.1c.2-2.5 3.1-8 6-11.5-3.3 0-11.5 5.5-13.3 10.6-.3.7-.4 1.6-.4 2.5 2.4-2.1 5.6-2 7.7-1.6z"/><path class="st4" d="M208.4 346.4v-.4c-2.2-.4-5.4-.5-7.7 1.6-.3 5.4 2.7 13 5.5 13 3.3 0 5.9-3.9 5.7-7.2-.2-3.1-3.3-4.7-3.5-7z"/><path class="st3" d="M194 359c-.2-.6-.3-1.1-.4-1.7-.6-4.6 1.7-13.7 1.7-13.7s-8 9.5-8 16.1c0 1.1.2 2.2.5 3.4 1.9-2.7 4.5-3.7 6.2-4.1z"/><path class="st4" d="M194 359c-1.7.4-4.3 1.4-6.2 4 1.6 5.6 6.7 10.9 8.5 10.9 2.1 0 3.8-2.8 2.8-5.8-.8-2.5-3.9-5.3-5.1-9.1z"/><path class="st1" d="M249.9 371.4c-1.9-1.5 2.7-11.4-2.1-13.8-4.8-2.4-8.5-3.1-13.4-2.7 3.8-5.8 18.8-7 22.6.4 3.8 7.4 1.6 14 .3 15.4-1.3 1.5-5.5 2.2-7.4.7zM219.7 360.8c-2.5-1.8-6.6-12.7-1.7-19.9s15.1-5.4 17.6-3c-5.6 0-9.2 3.8-10.3 7.6-1.1 3.8 3.1 8.3 1.7 12.1s-4.7 5.1-7.3 3.2zM206.2 360.7c-3.3 0-6.8-10.4-5-15.5 1.8-5.1 10-10.6 13.3-10.6-3.1 3.7-6.2 9.5-6 11.8.1 2.3 3.3 3.8 3.5 7.1.1 3.2-2.5 7.2-5.8 7.2zM195.3 343.6s-8 9.5-8 16.1 6.9 14.2 9 14.2 3.8-2.8 2.8-5.8-4.9-6.2-5.5-10.9 1.7-13.6 1.7-13.6z"/><path class="st4" d="M241.9 402.8c-1.2 4.6-2.6 7.4-2.6 7.4s4.9 1.7 6.6-1.7c.6-1.2 1-3.3 1.1-5.7-1.5.3-3.3.4-5.1 0z"/><path class="st3" d="M247 402.8c.1-4.3-.8-9.4-3.5-11.6-.1 4.6-.8 8.5-1.6 11.7 1.8.3 3.6.2 5.1-.1z"/><path class="st1" d="M246 408.5c1.7-3.4 1.8-13.8-2.4-17.3-.3 11.4-4.2 19-4.2 19s4.8 1.7 6.6-1.7z"/><path class="st3" d="M241.2 402.8c-.7-3.2-2.1-6.8-4.6-9.9 0 4.4-.3 7.9-.7 10.6 1.9.3 3.8-.1 5.3-.7z"/><path class="st4" d="M235.8 403.4c-.6 4.2-1.4 6.3-1.4 6.3l7.6.8s.2-3.5-.8-7.8c-1.5.7-3.4 1.1-5.4.7z"/><path class="st1" d="M234.4 409.8s2.2-5.6 2.2-16.9c6 7.4 5.5 17.8 5.5 17.8l-7.7-.9z"/><path class="st4" d="M230.8 402.2c-1.1 4.1-2.3 6.2-2.3 6.2l5.9 2.8s1.1-3.7 1.1-8.4c-1.4.1-3.1 0-4.7-.6z"/><path class="st3" d="M235.4 402.8c-.1-3.5-.8-7.4-3.3-10.7-.1 4.1-.7 7.5-1.4 10 1.7.7 3.4.8 4.7.7z"/><path class="st1" d="M228.5 408.4s3.3-5.6 3.7-16.2c5.8 7.5 2.2 19 2.2 19l-5.9-2.8z"/><path class="st3" d="M229.4 492.8c-4.5.2-10.3-.7-16.3-4.3 5.5 11.1 12.5 13.1 17.8 12.4.1-2.6-.2-5.7-1.5-8.1z"/><path class="st4" d="M238.3 491s-3.6 1.6-9 1.8c1.3 2.5 1.6 5.5 1.5 8.1 4.7-.6 8.1-3.1 8.1-3.1l-.6-6.8z"/><path class="st1" d="M238.3 491s-3.6 1.6-9 1.8c-4.5.2-10.3-.7-16.3-4.3 5.5 11.1 12.5 13.1 17.8 12.4 4.7-.6 8.1-3.1 8.1-3.1l-.6-6.8z"/><path class="st3" d="M229.6 485.8c-3.1-.9-7-3.3-11.5-8.7-1 10.8 5 15.1 10.5 16.8 1-1.3 2.1-3.9 1-8.1z"/><path class="st4" d="m237.5 495-1-9.3s-2.6 1.5-6.9.2c1.1 4.2 0 6.8-.9 8.1 4.5 1.3 8.8 1 8.8 1z"/><path class="st1" d="M218.2 477.2c10.6 12.8 18.3 8.5 18.3 8.5l1 9.3s-21.2 1.8-19.3-17.8z"/><path class="st3" d="M229.8 477.6c-2.2-.9-4.7-2.2-7.2-4.4 0 8.3 3.7 11.8 7.4 13.1.6-2.1 1-5.3-.2-8.7z"/><path class="st4" d="M229.8 477.6c1.3 3.3.8 6.6.1 8.8 3.8 1.4 7.6.7 7.6.7l1.5-8.2c0-.1-3.8.8-9.2-1.3z"/><path class="st1" d="M239 478.8s-7.8 1.7-16.5-5.6c0 16.8 15 13.8 15 13.8l1.5-8.2z"/><path class="st4" d="M625.8 456.1c-5.2 3.8-9.1 5.4-9.1 5.4l4.1 8.1s3.7-1.5 7.6-5c-1.3-1.9-2.8-4.9-2.6-8.5z"/><path class="st3" d="M637.9 445c-4.2 4.9-8.5 8.5-12.1 11.1-.2 3.6 1.2 6.5 2.6 8.4 4.4-3.8 9.1-10.1 9.5-19.5z"/><path class="st1" d="M616.8 461.5s10.9-4.5 21.2-16.4c-.8 17.8-17.1 24.6-17.1 24.6l-4.1-8.2z"/><path class="st4" d="M622.2 450.4c-3.2 2.4-5.6 3.5-6 3.8l3.1 9.4s3.9-1.9 7.6-6.5c-1.7-.9-4.1-2.8-4.7-6.7z"/><path class="st3" d="M622.2 450.4c.6 3.9 3 5.8 4.7 6.7 3.3-4.1 6.4-10.3 6.4-19-3.6 5.9-7.7 9.8-11.1 12.3z"/><path class="st1" d="M616.2 454.3c.7-.6 10.1-4.6 17.1-16.2 0 18.6-14 25.5-14 25.5l-3.1-9.3z"/><path class="st4" d="M618.8 444.7c-1.2 2.7-2.4 4.3-2.4 4.3s-6.9 7.8.8 6.4c2.7-.5 5.1-2.5 6.8-5.2-1.8-.5-4.4-1.8-5.2-5.5z"/><path class="st3" d="M621.4 434.2c-.3 4.4-1.5 8-2.7 10.5.9 3.7 3.4 5 5.3 5.4 3.2-5 3.6-12.4-2.6-15.9z"/><path class="st1" d="M616.4 449s4.4-5.7 5.1-14.8c9.5 5.4 3.5 19.8-4.2 21.2-7.8 1.3-.9-6.4-.9-6.4zM614.5 354.8c-2.7 14.5 9.9 1.7 14.1 2.4s9.2 3.3 8.6 5.8"/><path class="st3" d="M616.7 364c-.5-4.2-.5-9.3.9-14.2-5.7 3.3-7.7 8.7-8.2 13.4 2.4 1.8 5.2 1.5 7.3.8z"/><path class="st4" d="M609.4 363.2c-.6 5.3.7 9.9.7 9.9h8.5s-1.3-3.8-1.9-9.1c-2.1.7-4.9 1-7.3-.8z"/><path class="st1" d="M610.2 373.1s-4.7-16.1 7.5-23.3c-3.3 11.1 1 23.3 1 23.3h-8.5z"/><path class="st3" d="M624.7 364.5c.1-4 .5-8.6 1.6-12.8-5.1 2.1-7.9 7.1-9.4 11.4 2.6 1.6 5.5 1.8 7.8 1.4z"/><path class="st4" d="M624.7 364.5c-2.3.4-5.2.3-7.8-1.4-1.5 4.2-1.8 7.9-1.8 7.9l1.1 2.7 8.9.6c.1-.1-.5-4.3-.4-9.8z"/><path class="st1" d="M615.1 371s1.1-15.1 11.2-19.3c-2.7 10.2-1.1 22.6-1.1 22.6l-8.9-.6-1.2-2.7z"/><path class="st4" d="M625.3 363.6c-2.5 4.9-1.7 9.5-1.7 9.5l9 .6c-.1-.4-.4-4 .6-8.5-2.4.5-5.4.5-7.9-1.6z"/><path class="st3" d="M633.1 365.1c.8-3.7 2.3-7.9 5.5-11.4-7.6 2.1-11.5 6.1-13.4 9.8 2.6 2.2 5.6 2.2 7.9 1.6z"/><path class="st1" d="M632.6 373.7c-.1-.7-1-12.2 6.1-19.9-17.4 4.8-15.1 19.3-15.1 19.3l9 .6z"/><path class="st0" d="M645.4 339.9c0-.4-3.7-4.9 0-8.8s8-1.8 8-1.8"/><path class="st4" d="M688.2 318.4c-1.9 2.6-4.5 4.7-4.5 8.2 0 5.1 5.1 3.7 8.1 2.5 2.5-1 4.6-5 5.3-10-2.2 1.2-5.5 2.1-8.9-.7z"/><path class="st3" d="M687.3 299.6c1.7 6.1 3.5 9.7 2.7 14.8-.2 1.6-.9 2.9-1.8 4 3.3 2.8 6.7 1.9 8.9.7.1-1 .2-2 .2-3 0-6.3-3.2-13.3-10-16.5zM660.9 292.5c3.5 1.3 7.5 3.7 10 8.6 1 2 .9 4.5.3 7 3.8 2.1 7.3.5 9.3-.9-.2-2.3-.7-4.8-1.6-7-3-7.2-10.3-8.9-18-7.7z"/><path class="st4" d="M671.3 308.2c-.8 3.6-2.3 7.1-2 8.8.4 2.9 4.7 3.1 8 1.7 2.3-1 3.8-5.9 3.4-11.3-2.1 1.3-5.6 2.9-9.4.8z"/><path class="st3" d="M659.4 300.4c-2.4-3-6-5.7-11-6.3-10-1.1-15.2 10.6-12 16.1 1.4-3 4.9-9.5 10.7-9.9 2.2-.2 3.6 1.3 4.4 3.3 4.2.4 6.6-1.5 7.9-3.2z"/><path class="st4" d="M651.6 303.6c1.4 3.2 1.7 7.6 2.7 8.5 1.6 1.6 8.6.4 8.6-3.5 0-2-1.1-5.3-3.5-8.3-1.3 1.8-3.7 3.7-7.8 3.3zM611.2 309.2c-.1 3.9.7 8.1 1.9 9.8 2 2.6 8.9.9 9.9-1.4.6-1.3 0-4-.5-6.9-2.8 1.4-7.8 2.8-11.3-1.5z"/><path class="st3" d="M628.6 292.2c-7.2 0-14.1 7.4-16.2 11.3-.8 1.4-1.1 3.5-1.2 5.7 3.5 4.3 8.5 2.9 11.4 1.5-.4-2.1-.6-4.4-.4-6.4.6-4.7 1.3-7 6.4-12.1z"/><path class="st1" d="M683.8 326.7c0-5.1 5.4-7.2 6.2-12.3.8-5.1-1-8.7-2.7-14.8 6.8 3.2 10 10.2 10 16.5s-2.4 11.9-5.4 13.1c-3 1.1-8.1 2.6-8.1-2.5zM669.3 316.9c-.4-2.9 4.2-10.9 1.7-15.8s-6.5-7.3-10-8.6c7.6-1.3 15 .4 18.1 7.8 3.1 7.3 1.6 16.9-1.7 18.3-3.5 1.5-7.7 1.2-8.1-1.7zM654.2 312.2c-1.6-1.6-1.3-12.3-7.1-11.8-5.8.4-9.3 6.9-10.7 9.9-3.2-5.5 2-17.2 12-16.1 10 1.1 14.5 10.6 14.5 14.5s-7 5-8.7 3.5zM613.1 318.9c-2-2.6-2.8-11.6-.7-15.5 2.1-3.9 9-11.3 16.2-11.3-5.2 5.2-5.8 7.4-6.4 12.1-.6 4.7 1.9 11 .8 13.3-1 2.3-7.9 4-9.9 1.4z"/><path class="st2" d="M397.7 259c-3 0-19.5 24.1-19.5 25.8 0 1.7 5.7 5 8.3 3.6 2.5-1.3 1.7-5.9 3.4-7.2 1.7-1.3 3 1.1 4-.8 1.1-2-.6-5.5-.4-7.6s2.8-8.1 3.8-7.5c1.1.6 3 4.9 2.5 7.5-.4 2.6-1.1 4.5-.2 5.7.8 1.1 3.2-.3 5.1.8 1.9 1.1 0 6.1 1.9 7.3 1.9 1.2 8.9-1.7 8.9-4.8S400.7 259 397.7 259z"/><circle class="st7" cx="429.7" cy="242.6" r="18.9"/><circle class="st6" cx="429.7" cy="242.6" r="14.4"/><circle class="st7" cx="366.3" cy="242.6" r="18.9"/><circle class="st6" cx="366.3" cy="242.6" r="14.4"/><circle class="st3" cx="366.3" cy="248.6" r="8.4"/><path class="st4" d="M357.9 248.6c0-4.6 3.8-8.4 8.4-8.4s8.4 3.8 8.4 8.4h-16.8z"/><circle class="st7" cx="366.3" cy="248.6" r="3.6"/><circle class="st3" cx="429.7" cy="248.6" r="8.4"/><path class="st4" d="M421.4 248.6c0-4.6 3.8-8.4 8.4-8.4s8.4 3.8 8.4 8.4h-16.8z"/><circle class="st1" cx="429.7" cy="248.6" r="8.4"/><circle class="st7" cx="429.7" cy="248.6" r="3.6"/><circle class="st1" cx="366.3" cy="248.6" r="8.4"/><path class="st0" d="M358.6 306.7c-2.3.6-5.3 6.2-4.4 9.7.8 3.6 6.8 6.6 8.7 9.9s-1.3 20.5-.2 23.3c1.1 2.8 81.2 5.1 83.2 1.5 1.9-3.6 0-39.8.8-39.8 2.2.1 9.1-2.3 9.1-7.2s-2.3-12.4-7-13.6c-4.7-1.2-7.7 4.8-9.5 3.9-1.8-.9-6.8-4.2-9.9-4.2s-4.9 5.9-4.1 9.9c1.3 6.5 10.7 7 10.7 7s2.3 6.6 2.3 10c0 8.5-55.9 15.4-59.9 8.7-4-6.8 3.2-16.5 2.5-20.3-.6-3.8-5.1-4.2-7.8-4.2-2.8 0-6.1 9.4-7.4 8.5-1.5-1.1-4.8-3.8-7.1-3.1z"/><path d="M438.1 317c0-3.4-2.3-10-2.3-10l-55.1-1.7c.6 3.8-6.6 13.5-2.5 20.3l59.9-8.6z" style="fill:#ff8080;stroke:#000;stroke-width:2.539;stroke-linecap:round;stroke-linejoin:round;stroke-miterlimit:10"/><path class="st7" d="M377.1 320.6s-.8 10.5 4.3 11c3 .3 5.1-2.5 5.1-2.5s1.1 4.7 4.4 4.6c3.4 0 3.6-3.7 3.6-3.7l21.8-1s1.5 2.5 4.9 2.5c3.5 0 3.8-3.1 3.8-3.1s5.3 2.3 9.1-.4c3.8-2.8 3.8-11 3.8-11l-60.8 3.6z"/><path class="st1" d="M425.2 317.8v10.7M386.5 329.1v-9M400.9 305.8s-6.6 10.6-6.6 31.3 10.5 35.1 10.5 35.1 12.3-10.2 12.3-32.4-9.3-34.7-9.3-34.7l-6.9.7z"/><path class="st3" d="m407.9 305.2-7 .6s-6.6 10.6-6.6 31.3c0 6 .9 11.5 2.1 16.3l19.9-24.2c-2.1-15.5-8.4-24-8.4-24z"/><path class="st4" d="M396.5 353.4c3.1 11.6 8.4 18.9 8.4 18.9s12.3-10.2 12.3-32.4c0-3.9-.3-7.5-.8-10.7l-19.9 24.2z"/><path class="st14" d="M399.6 331.6v21.8M404.7 326.5v21.8M409.8 322.3v21.8"/><path class="st1" d="M416.4 329.1c-2.2-15.5-8.6-24-8.6-24l-7 .6s-6.6 10.6-6.6 31.3c0 6 .9 11.5 2.1 16.3 3.1 11.6 8.4 18.9 8.4 18.9S417 362 417 339.8c.2-3.8-.1-7.4-.6-10.7z"/><path class="st7" d="m426.2 308.1-47.2 5s.1-7.3 1.7-9.6c1.6-2.2 5.2-1.5 6.3.5 1.3-3.6 6.4-4.9 9.6-2.5 1.2-5.3 9.1-3.6 11.2-1.5 1.3-3.8 8.4-4 9.5 0 2.3-2.9 6.8-2.9 8.1-1 1.1-1.9 7.4-2.6 9.2 0 1.8 2.5 1.3 8 1.3 8l-9.7 1.1z"/><path class="st1" d="M417.2 309.1v-9M407.7 300.1l.3 10M396.9 311.3l-.4-9.7M386.9 304.1l.9 8.1"/><path class="st7" d="m425.3 299.1.9 9"/><path class="st0" d="M309.8 240.2s-7.1-4.3-14-4.3-17.6-.7-16.7 3c.8 3.7 16.2 1.6 15.4 5.2-.8 3.6-24.9 2.3-25.1 6.5-.2 4.2 20.2-.3 19.8 2.4-.4 2.8-22.1 3.7-21.5 7.6.6 3.9 20.3-3.1 20.2-1.6s-20.2 6.9-18.1 10.1c2.1 3.1 15.3-6.4 16.7-4.5 1.4 1.9-7.8 7.4-3.6 9.5s8.1-7.3 10.4-9.1c2.3-1.8 16.5-7 16.5-7v-17.8z"/><path class="st2" d="M321.3 255.9s.3-2.5.3-6.1c5 1.5 7.1-.9 7.3-5.2.2-4.2-4.5-7.2-9.4-8.3-4.9-1.1-11.3.1-14.8 4.2s-.9 18.5-.9 18.5l17.5-3.1z"/><path class="st1" d="M318.4 244.5s-.3 4.4 3.2 5.2"/><path class="st7" d="M292.5 314.9c-1.3 4.8-3.1 39.5-1.8 41.7 1.3 2.2 35.8-2.8 36.2-4.8.4-2-4.5-40.6-4.5-40.6l-16.6-6.2c0 .1-12 5.1-13.3 9.9z"/><path class="st1" d="m296.4 333.2 1 23.8M303.2 333.2l1.3 23.1M310.7 332.6l2.3 22.6M317.5 329.8l2.5 24.1"/><ellipse transform="matrix(-.9988 -.04847 .04847 -.9988 616.412 570.082)" class="st0" cx="315.1" cy="277.6" rx="21.9" ry="25.2"/><path class="st0" d="M321.7 291.1c.5 2.3-2.5 13-1.8 14.3.8 1.3 11.5 13.3 8.3 15.4-3.2 2.2-10.6-11.8-12.4-9.9-1.8 1.8 5.8 20.2 1.5 21.3-4.3 1.1-5.9-17.2-7-17.5-1-.3-.7 19.2-4.1 19.1-3.4-.2 1-21.1 0-21.7-1-.6-6.2 18.7-9.3 16.6-3.1-2.1 6.2-17.5 4.9-18.4-1.2-.9-8.1 12.5-10.8 9.4-2.7-3.1 5.9-14.2 8.8-17.6 2.9-3.4 2.9-9.2 4.8-11.8 2-2.6 16.6-1.5 17.1.8zM302.8 275.5c-1.3.7-2.4 1.8-3.3 3.1v-1.8c.5-9.9 7.8-17.6 16.4-17.2 8.6.4 15.2 8.8 14.7 18.7-.1 1.2-.2 2.5-.5 3.6-.2-1.2-.6-2.1-1.2-2.8-3.9-4.2-19.8-6.8-26.1-3.6z"/><path class="st2" d="M312.7 280.5c7.7.4 12.1 5.8 14 8.8-3.1 4-7.6 6.4-12.5 6.2-6.1-.3-11.2-4.6-13.4-10.6 1.9-2.1 5.5-4.7 11.9-4.4z"/><path class="st7" d="M302.8 275.5c6.3-3.3 22.2-.6 26.2 3.6.6.7 1 1.6 1.2 2.8-.6 2.8-1.8 5.3-3.4 7.4-1.9-3.1-6.3-8.5-14-8.8-6.4-.3-10 2.3-11.9 4.4-.7-1.9-1.2-4-1.3-6.3.8-1.3 1.8-2.4 3.2-3.1z"/><path class="st0" d="M433.7 164.9c-2.4-2.7-.1-10.4-1.5-17.7-1.4-7.8-6.3-15.2-1.9-15.7 8.5-1.1 5.7 14 9.7 12.7s3.2-21.2 7.2-21.4c4-.2-.2 19 1.7 18.8 1.9-.2 5.1-21.4 9.7-18.8 4.7 2.5-5.1 18.6-3.6 19 1.5.4 10.4-15.9 14.4-13.1s-9.3 14.9-9.1 16.3c.2 1.4 14.2-9.7 16.5-6.3 2.3 3.4-10.4 8.6-11 10.6-.6 2-5.5 19.3-13.3 20.3-7.8 1-13.9.9-18.8-4.7zM373.2 170.4c1.1-4.7-.2-9.7-1.5-15.7-1.3-5.9 2.8-17.1-1.1-18.2-3.8-1.1-4.9 15.2-6.6 14.4-1.7-.8-3.4-19.6-7.4-19.6s1.5 19.5-.2 20.1c-1.7.5-7.2-16.1-10.6-14.8-3.4 1.3 8 17.3 6.6 18.6-1.5 1.3-11.8-15.3-14.6-12.1-2.8 3.2 10.8 18 9.9 19.7-.8 1.7-11.2-12.2-12.9-7.4-1.7 4.8 7.6 9.3 10.8 12.7 3.2 3.4 5.1 11.6 10.8 11.6s15.7-4.7 16.8-9.3zM318.5 193.3c-2.6 5-3.8 11.5-4.4 16.3.9.9 1.9 1.7 3.1 2.5 2.8 1.9 7 3.1 11.3 3 .4-3.9 1.4-8.9 3.3-11.9 2.1-3.3 6.8-6.8 10.3-9.1-1.3-2.9-3.3-5.6-5.6-8.2-2-2.2-4.2-3.3-6.4-4-4.3 2.8-9.3 6.8-11.6 11.4z"/><path class="st2" d="M328.4 215c4.8-.1 9.7-1.9 12.5-6.3 3.3-5.1 3.1-10.1 1-14.7-3.5 2.3-8.2 5.8-10.3 9.1-1.8 3.1-2.8 8-3.2 11.9zM309.9 181.1c-5.4.8-8.2 5.1-5 10-5.3.7-5.2 8-2.6 10s4.6-3.5 6.6-1.3c.2 2.7 1.5 6.4 5 9.8.6-4.7 1.8-11.3 4.4-16.3 2.4-4.6 7.3-8.6 11.5-11.4-3.8-2.3-8.4-2.3-9.9-1.3-2.4-1.2-2.1-6.2-5.3-6-3.1.2-5.6 1.9-4.7 6.5z"/><path class="st1" d="M314.3 185.3s-4.4-1.1-4.4-4.2M305 191c2.1-.5 5.3 2.3 5.3 2.3"/><path class="st0" d="M504.6 178.4c-4.3-3.6-10.5-6.2-15-7.7-1 .7-2.1 1.5-3.1 2.5-2.4 2.3-4.5 6.2-5.3 10.4 3.7 1.3 8.4 3.2 10.9 5.7 2.8 2.7 5.2 8.1 6.7 12 3.1-.6 6.2-2 9.2-3.7 2.5-1.5 4.2-3.4 5.3-5.4-1.9-4.8-4.8-10.5-8.7-13.8z"/><path class="st2" d="M481.2 183.5c-.9 4.7-.2 9.8 3.5 13.5 4.3 4.3 9.2 5.1 14.1 4.1-1.5-3.9-3.9-9.2-6.7-12-2.5-2.4-7.1-4.3-10.9-5.6zM518.3 172.7c0-5.9-3.2-9.1-8.7-7 .4-5.3-6.8-6.8-9.2-4.7s2.5 5.3-.1 6.8c-2.7-.3-6.6.1-10.7 2.8 4.5 1.6 10.6 4.1 15 7.7 3.9 3.3 6.8 9 8.7 13.7 2.3-4 2.4-8.3 3.4-9.4 1.6-1.7 6.3.6 8.3-1.9 1.8-2.5-2-8-6.7-8z"/><path class="st2" d="M513.2 176.1s2-4 5.1-3.4M509.7 165.7c0 2.1-3.4 4.7-3.4 4.7"/><path class="st0" d="M400.9 143.5c-5.6 0-12 2-16.4 3.7-.3 1.2-.6 2.5-.8 3.9-.4 3.3.5 7.6 2.6 11.4 3.7-1.4 8.5-2.9 12-2.7 3.9.3 9.2 2.8 12.8 4.8 2-2.5 3.5-5.5 4.6-8.8 1-2.8 1-5.3.6-7.5-4.4-2.3-10.3-4.8-15.4-4.8z"/><path class="st2" d="M386.3 162.5c2.3 4.2 6.2 7.7 11.4 8.1 6 .5 10.3-2 13.4-5.9-3.7-2-8.9-4.5-12.8-4.8-3.5-.4-8.3 1.1-12 2.6zM407.7 130.3c-3.2-4.4-8.3-4.9-11.1.3-3.1-4.3-9.5-.8-10 2.4s5.3 2.5 4.3 5.3c-2.3 1.5-5 4.4-6.3 9.1 4.4-1.7 10.8-3.7 16.4-3.7 5.1 0 11 2.5 15.4 4.9.3-4.4-1.9-8.5-3.5-9.4-.1-2.7 5.3-3.6 5.1-6.8-.3-3.4-6.7-5.1-10.3-2.1z"/><path class="st1" d="M406 136.2s-1.1-4.4 1.7-5.9M396.6 130.5c1.4 1.6.4 5.7.4 5.7"/><path class="st0" d="M508 226.9c0-.6 4-9.1 6.4-10.6 2.3-1.5 15.4-5.1 16.5-2.3s-6.4 2.5-8.8 4.2-2.2 4-2.2 4 3.2.7 10.2-.4 15.6-6.4 16.5-4.7c1.9 3.6-8.8 9.1-12.3 10.6 6.4-1.6 17.1-8 18.2-5.3s-8.3 9.3-13.3 10.2c2.5.8 13.5-2.4 13.5.8s-10.6 5.1-14.6 4.9c3.5 2 14.6 2.3 13.5 5.1-.6 1.6-9.4.3-17.8.2-6-.1-11.8 1.2-14.2.8-5.6-.9-9.2-3.9-9.2-3.9l-2.4-13.6z"/><path class="st2" d="M494.4 240.4s-.1-2.5 0-6.1c-5.1 1.3-7-1.3-7-5.5s4.8-7 9.8-7.8c5-.8 11.3.6 14.6 4.9 3.3 4.2 0 18.6 0 18.6l-17.4-4.1z"/><path class="st1" d="M497.9 229.2s.1 4.4-3.5 5.1"/><ellipse class="st0" cx="499.6" cy="262.4" rx="21.9" ry="25.2"/><path class="st0" d="M492.3 275.5c-.6 2.3 1.9 13.1 1.1 14.4-.8 1.3-12.1 12.7-9.1 15 3.1 2.3 11.2-11.2 12.9-9.3s-6.8 19.9-2.5 21.2c4.2 1.3 6.8-16.9 7.8-17.1s-.2 19.3 3.2 19.3 0-21.2 1.1-21.7 5.3 18.9 8.5 17c3.2-1.9-5.3-17.8-4-18.6 1.3-.8 7.5 12.9 10.3 9.9 2.8-3-5.2-14.5-7.9-18-2.7-3.6-2.5-9.3-4.2-12s-16.6-2.4-17.2-.1zM512 260.9c1.3.8 2.3 1.9 3.1 3.3.1-.6.1-1.2.1-1.8 0-9.9-7-18-15.6-18s-15.6 8-15.6 18c0 1.2.1 2.5.3 3.6.3-1.1.7-2.1 1.4-2.7 4.1-4.1 20.1-5.9 26.3-2.4z"/><path class="st2" d="M501.8 265.4c-7.7 0-12.4 5.2-14.4 8.2 2.9 4.1 7.3 6.8 12.2 6.8 6.1 0 11.4-4.1 13.9-9.9-1.8-2.4-5.3-5.1-11.7-5.1z"/><path class="st0" d="M512 260.9c-6.1-3.6-22.1-1.7-26.3 2.3-.7.6-1.1 1.6-1.4 2.7.5 2.8 1.6 5.4 3.1 7.5 2-3 6.7-8.2 14.4-8.2 6.4 0 9.9 2.7 11.7 5 .8-1.9 1.4-4 1.6-6.2-.8-1.1-1.8-2.3-3.1-3.1z"/><path class="st1" d="M412.5 551c68.3-3.5 103.5-6.6 118.9-8.2-.8-4.5-1.6-9-2.4-13.6-8.6.5-46.3 2.7-120.4 7.1-69.3 4.1-109.2 4.2-121.8 4-.2 4.3-.3 8.6-.5 12.8 18.4.8 58.1 1.4 126.2-2.1z"/><path class="st7" d="M412.5 551c-68.1 3.5-107.9 2.9-126.3 2.1-.3 6.1-.6 12.1-.9 17.9 11.5.5 45.6.9 123.3-3.7 83.1-4.9 116.3-8.6 125.4-9.8-.8-4.8-1.7-9.7-2.6-14.7-15.4 1.6-50.6 4.7-118.9 8.2z"/><path class="st1" d="M292.1 553.3c3.5.1 7.5.2 12.1.3l5.7-6-7.8-7.3c-5.6.1-10 .1-13.2 0l8.9 6.3-5.7 6.7zM502.2 545.4c3.3-.3 6.4-.5 9.2-.7l4-7.6-7.1-6.7c-2.8.2-5.9.3-9.2.5l7.7 6.1-4.6 8.4zM384 552.3c2.7-.1 5.5-.2 8.4-.3l6.2-9.1-4.7-5.7c-3.7.2-7.3.4-10.8.6l6 5.2-5.1 9.3z"/><path class="st1" d="m297.9 546.6-8.9-6.3h-2.1c-.2 4.3-.3 8.6-.5 12.8 1.7.1 3.7.1 5.8.2l5.7-6.7zM511.4 544.7c3.1-.3 5.9-.5 8.4-.7l4.8-8.1-5.4-6c-3 .2-6.7.4-10.9.6l7.1 6.7-4 7.5z"/><path class="st1" d="M519.8 543.9c4.7-.4 8.6-.8 11.6-1.1-.8-4.5-1.6-9-2.4-13.6-1.9.1-5.1.3-9.9.6l5.4 6-4.7 8.1zM324.8 553.7h6.9l5.3-9-2.8-5c-3.8.1-7.3.2-10.7.3l6.1 6.5-4.8 7.2zM304.2 553.6c3.3 0 6.8.1 10.6.1l6.2-7.9-6.4-5.6c-4.7.1-8.8.1-12.5.2l7.8 7.3-5.7 5.9z"/><path class="st1" d="M331.7 553.6c3 0 6.1-.1 9.4-.1l6.9-8-7.1-6.1c-2.3.1-4.6.1-6.8.2l2.8 5-5.2 9zM349.9 553.4c3.2-.1 6.5-.1 9.9-.2l5.4-8-6.8-6.3c-2.3.1-4.6.2-6.8.3l4.9 5.5-6.6 8.7z"/><path class="st1" d="M341.1 553.5c2.8 0 5.8-.1 8.8-.2l6.6-8.8-4.9-5.5c-3.7.1-7.2.3-10.6.4l7.1 6.1-7 8zM359.8 553.1c2.7-.1 5.5-.2 8.3-.2l4.9-7.6-6-6.9c-2.9.1-5.8.3-8.6.4l6.8 6.3-5.4 8zM314.8 553.7h10l4.8-7.3-6.1-6.5c-3.1.1-6.1.1-8.9.2l6.4 5.6-6.2 8zM475.6 547.3c2.8-.2 5.5-.4 8-.5l6.8-8.7-6.8-6.2c-3 .2-6.1.4-9.3.5l6.5 6.5-5.2 8.4zM416.7 550.8c2.8-.1 5.6-.3 8.4-.4l4.9-8.9-6.2-6.1c-1.9.1-3.8.2-5.8.3l5.3 5.7-6.6 9.4z"/><path class="st1" d="M425 550.4c2.5-.1 5-.3 7.4-.4l5.9-8.5-6.2-6.6c-2.8.2-5.6.3-8.5.5l6.2 6.1-4.8 8.9z"/><path class="st1" d="M432.5 549.9c3-.2 5.8-.3 8.6-.5l5.9-9-6.3-6.1c-2.8.2-5.6.3-8.5.5l6.2 6.6-5.9 8.5zM376.9 552.6c2.3-.1 4.7-.2 7.1-.3l5-9.5-6-5.2c-3.1.2-6.1.3-9.1.4l6.2 6.6-3.2 8zM392.4 552l7.2-.3 5.9-8.8-3.5-6.2c-2.8.2-5.5.3-8.2.5l4.7 5.7-6.1 9.1z"/><path class="st1" d="M399.7 551.6c3.1-.1 6.4-.3 9.6-.5l5.4-8.4-6.6-6.5c-2 .1-4 .2-5.9.3l3.5 6.2-6 8.9zM493.7 546.1c3-.2 5.8-.4 8.4-.6l4.6-8.3-7.7-6.1c-2.6.2-5.3.3-8.2.5 3 2.4 7.4 5.6 7.8 5.6.4-.1-2.5 4.9-4.9 8.9z"/><path class="st1" d="M409.3 551.2c1.1-.1 2.2-.1 3.3-.2 1.4-.1 2.8-.1 4.1-.2l6.5-9.3-5.3-5.7c-3 .2-6.1.4-9.3.5h-.6l6.6 6.5-5.3 8.4zM467.2 547.9c2.9-.2 5.7-.4 8.4-.6l5.2-8.4-6.5-6.5c-3 .2-6 .4-9.2.5l6.3 6.2-4.2 8.8zM441.1 549.5c2.8-.2 5.6-.3 8.3-.5l5.6-8.9-6.3-6.1c-2.6.2-5.3.3-8.1.5l6.3 6.1-5.8 8.9zM483.6 546.8c3.6-.2 6.9-.5 10.1-.7 2.4-3.9 5.3-9 4.9-9-.4 0-4.7-3.3-7.8-5.6-2.3.1-4.8.3-7.3.4l6.8 6.2-6.7 8.7zM368.1 552.9c2.9-.1 5.8-.2 8.9-.3l3.2-7.9-6.2-6.6c-2.4.1-4.8.2-7.1.3l6 6.9-4.8 7.6z"/><path class="st1" d="M449.4 549c3.5-.2 6.9-.4 10.2-.6l4.1-8.1-6.5-6.8c-2.7.2-5.6.3-8.5.5l6.3 6.1-5.6 8.9z"/><path class="st1" d="M459.7 548.4c2.6-.2 5.1-.3 7.5-.5l4.1-8.7-6.3-6.2c-2.5.1-5.1.3-7.8.5l6.5 6.8-4 8.1zM326 563.7v11.5M344.2 561l1.5 17.1M361.5 562.5l1.1 14.6M377.1 561l1 16.1M394.8 559.5l1.7 17.6M411.9 557l.8 20.1M427.1 557v18.2M444.1 557l3.5 14.2M459.9 555.9l.9 9.3M480.5 554.6l2.1 24.8"/><path class="st2" d="M408.6 567.3c-77.7 4.6-111.8 4.1-123.3 3.7-2.1 35.8-4.8 63.2-4.8 63.2s46.8 5.9 129.2 3.4c82.4-2.5 134.6-21.7 134.6-21.7s-4.6-25.5-10.3-58.3c-9.1 1.1-42.3 4.8-125.4 9.7z"/><path class="st1" d="m516.4 552.3 9.5 53.5M306.7 563.7v72.7M333.8 570.7l1.9 63.4M356.5 570.7l1 60.7M381.5 569.4l3.7 68.7M405.6 567.5l6.3 65.6M431.8 566.1l5.1 68M457.2 564.1l2.3 64.8M476.6 562.8l5 65.2M496.7 552.9l7.2 57.6"/><path class="st7" d="M530.7 584.5c-6 .8-7.6 6.2-7.6 6.2s-3.1-8.2-11-6.2c-7.9 2-9 8.7-9 8.7s-1.7-7.1-11.8-7.1c-10.2 0-11.8 8.2-11.8 8.2s-2.3-5.6-9.9-5.1c-7.6.6-8.2 8.5-8.2 8.5s-2.5-7.1-13-6.8c-10.4.3-13.5 11-13.5 11s-.5-8.9-9.6-10.2c-10.6-1.5-15.8 8.2-15.8 8.2s-2.4-7.6-10.8-8.2c-8.4-.6-15.2 10.2-15.2 10.2s-.3-8.7-12.1-9.3c-11.8-.6-16.6 9.3-16.6 9.3s-3.4-8.7-13.5-9c-10.2-.3-14.1 9.3-14.1 9.3s-2-9.6-11.8-10.4c-9.9-.8-13 8.7-13 8.7s-2-6.5-8.7-7.6c-3.2-.5-6.9 1.2-9.8 3.1-1.6 22.7-3.2 38.1-3.2 38.1s46.8 5.9 129.2 3.4c82.4-2.5 134.6-21.7 134.6-21.7s-2.1-11.8-5.2-29.6c-3.1-1.1-6.2-2-8.6-1.7z"/><path class="st1" d="M361.5 634.1h10.4M391.5 633.3l10.3-.3M523.1 590.7l5.1 30.1M287.2 599.2s8.7-3.9 10.4.9c1.7 4.9-.5 37.7-.3 35.6M332.1 601.5c5.8-5.3 16.7-5.8 17.6 3.9s0 32.8 0 32.8M306.7 599.9c3.6-4.1 11-4.2 14.4.8s-1.7 36.4-1.7 36.4M359.9 603.7s11-8.4 15.4-3 4.4 37.4 4.4 37.4M388.8 602.3c3.6-5.8 14.1-7.4 15.7-1.6 1.6 5.9 3.4 36.9 3.4 36.9M413.8 602.3c2.2-4.4 11.1-8 15-3.3s2.9 37.4 2.9 37.4M439.8 601.2c3.8-5.7 12.8-6.5 15.2-3.4 2.4 3.1 6.6 35.8 6.6 35.8M464.6 597c.9-3.3 9.3-5.7 10.8-1.2s4.5 35.2 4.5 35.2M483 595c2.1-4.3 11.1-5.6 14.4-2.6 3.3 3 4.6 34.6 4.6 34.6M506.7 592.4c3.8-4.6 9.9-4.7 12.3-2 2.3 2.7 4.8 31.6 4.8 31.6M527.4 589.9c1.7-1.3 6.8-1.6 8-.4 1.3 1.2 5.7 27.4 5.7 27.4M286.9 602.3l7.2.9M286 608.2l8.1.6M285.5 614.1l8.6 1.1M285.5 619.2l8.6 1.1M285.5 625.1l8.6 1.1M285.5 629.7l6.7.9M306.7 631h9.2M306.7 620.8l9.2.2M306.7 610.9h9.2M306.7 605.8h9.2M333.8 605.8h10.4M333.8 612.3l10.4.3M333.8 619.1l10.4-.1M333.8 625.7h10.4M333.8 632.3h10.4M306.7 616l9.2-.2M306.7 626h9.2M361.5 607.6h10.4M361.5 614.1l10.4.2M361.5 620.9l10.4-.1M361.5 627.4h10.4M390.8 606.9l10.4-.3M391 613.4l10.3-.1M391.1 620.1l10.4-.3M391.3 626.7l10.4-.3M415.5 606.7l10.4-.3M415.7 613.2l10.3-.1M415.8 619.9l10.4-.3M416 626.5l10.4-.3M416.2 633.1l10.3-.2M440.7 605l10.3-.9M441.3 611.5l10.3-.7M441.8 618.2l10.4-.9M442.4 624.8l10.3-.9M443 631.4l10.3-.9M465.4 601.7l7-.9M466 608.2l6.9-.7M466.6 614.9l7.7-1M468 621.4l6.9-.8M468.5 628l7-.8M484.7 598.8l10.3-.9M485.2 605.2l10.4-.6M485.8 612l10.3-1M486.4 618.5l10.3-.9M486.9 625.1l10.4-.9M506.5 596.3l9.4-1.7M507.6 602.7l9.4-1.5M508.7 609.4l9.4-1.8M509.8 615.9l9.4-1.7M510.9 621.6l9.4-1.7M526.6 593.6l5.4-1.1M527.7 600.1l6.2-1M528.8 606.9l6.2-1.4M530.1 611.3l6-1.8M530.5 616l6.7-1.6M505.6 626.2l-2.5-32.9M479.4 594.4l3.2 36.1M465.9 632.4l-4.6-34.6M434.8 602l2.9 34M412.4 637.5l-2.9-37.5M383.5 602l2.6 36.2M355.6 638.5l-.9-36.5M327.1 602.3l-1.5 35M301.3 635.8c0-.8 1-35.1 1-35.1"/><path class="st2" d="M507.4 396.4s8.4 11.2 35.6 30.3c-19.4 9.5-39.1-5.4-39.1-5.4s5.3 15.8 28.5 38.3c-15.7-.4-35.3-11.2-35.3-11.2s-6.4 15.3 11.8 39.6c-26.2-1.1-44.2-24.3-44.2-24.3s-2.8 9.4 1.1 29.9c-22.6 0-38.1-26.6-38.1-26.6l-62.8 12.9s-2.5 35.8-40.4 35.8c14.6-23.7 12.1-42.5 12.1-42.5s-17.2 30-35.7 32C312 479 320.1 460 320.1 460s-17.1 30.4-38.5 20.5c19-24.5 30.3-46.8 30.3-46.8l25.4-11.3 26 10.2 71.3 4.6 31.7-11.4 20-18.1 8.6-26.5 19 5.1-6.5 10.1z"/><path class="st9" d="M315.6 396.6s27.3 51.6 102.6 46.3c72.3-5.1 81.9-56.7 81.9-56.7l-9.6-2.6s-1.9 46.2-73.4 51.2c-71.5 5.1-92.9-41.9-92.9-41.9l-8.6 3.7zM499.6 358.3c-3.1 9 4.3 11.7 7.9 1.9 2.5-6.7 4.2-17.4 5.1-23.4-3.1.2-6.5.4-9.8.5-.4 6-1.3 15.2-3.2 21zM306.9 373.1c2.3 6.3 10.4 2.8 8.7-2.7-1.2-4-2-11.4-2.4-15.3-3.2.5-6.6 1-9.7 1.3.6 4.1 1.8 12.1 3.4 16.7z"/><path class="st0" d="M305.3 388.6c3.1 4.7 8.3 8.9 12.2 11.7 1.2-.4 2.4-.8 3.7-1.5 3-1.5 6.1-4.6 8-8.4-3.2-2.3-7.1-5.5-8.8-8.6-1.9-3.4-2.7-9.2-3-13.4-3.2-.3-6.5.2-9.9 1-2.8.7-4.9 2.1-6.6 3.7.4 5 1.6 11.2 4.4 15.5z"/><path class="st2" d="M329.2 390.3c2.2-4.3 3-9.4.5-14-2.9-5.3-7.4-7.5-12.4-8 .3 4.2 1.1 10 3 13.4 1.8 3.2 5.7 6.4 8.9 8.6zM289.7 389.4c-3.5 6.5-.5 11.7 7.2 10.8-1.9 5 6.3 8.4 9.2 7.1 3-1.3-.9-6.6 2-7.3 2.5 1.1 4.7 1.7 9.4.3-3.9-2.8-9-7-12.2-11.7-2.9-4.3-4-10.5-4.4-15.5-3.9 2.2-6 6.2-5.9 8.1-2.2 1.6-5.9-2.4-8.5-.5-2.5 1.8-1.3 7.3 3.2 8.7z"/><path class="st1" d="M296.4 388.4s-3.9 2.4-6.7 1M296.9 400.2c.6-2 4.6-4.4 4.6-4.4"/><path class="st0" d="M506.5 372.3c1.5-6 1-13.3.4-18.5-1.2-.7-2.5-1.3-3.9-1.9-3.4-1.3-8.3-1.5-12.8-.2.6 4.3.9 9.8-.3 13.5-1.4 4.1-5.4 9-8.6 12.4 2.1 2.8 5 5.2 8.1 7.3 2.7 1.8 5.4 2.4 7.9 2.6 3.6-4.1 7.8-9.7 9.2-15.2z"/><path class="st2" d="M490.1 351.7c-5.1 1.4-9.8 4.6-11.7 10-2.1 6.3-.6 11.6 2.8 15.9 3.1-3.4 7.2-8.3 8.6-12.4 1.2-3.7.8-9.2.3-13.5zM516.9 386.2c9.1 0 12.3-8.6 4.6-12.3 5.4-2.2 6.7-11.4 3.4-12.8s-5.6 3.6-8.3 1.8c-1-2.8-5-6.5-9.7-9.2.6 5.2 1.1 12.5-.4 18.5-1.3 5.5-5.5 11.1-9.3 15.2 4.7 1.5 9.5.2 11-1.2 4 5-7.5 5.6-2.5 11.4 5.1 6 15.8-1.7 11.2-11.4z"/><path class="st1" d="M511 381.1s5 1.8 5.8 5.1M521.5 373.9c-2.1 1-7.5-.9-7.5-.9"/><path class="st0" d="M346.1 407.6c7 0 10.7 13.6 9.7 18.2-1 4.7-6.1 6.3-7.4 9.9-1.3 3.7-2.5 12.7-5.5 12.7s-1.3-15-1.3-15-13.1 19.9-17.4 18.2c-4.3-1.7 12.1-20.9 12.3-22S315.8 452 313 448.4c-2.8-3.6 14.6-16.9 14.6-18.8s-18.4 11.4-19.7 6.1c-1.3-5.2 21.5-11.8 21.5-13.3s-14.5 2.8-14.5-.4 24.2-14.4 31.2-14.4zM450.4 420.9c-1.9 6.3-1.3 11.3.4 14.2 1.7 2.8.6 18 5.1 16.6 4.4-1.4.2-16.8 1.9-16.8s15.8 27 19.6 24.9c3.8-2.1-9.4-21.3-8.6-21.3.8 0 14.6 18.9 17.3 16.1 2.8-2.9-14.4-20.1-12.5-20.5 1.9-.4 17.5 16.7 19 13.3s-18.5-17.7-16.9-19.7c1.6-2.1 20.1 14 21.4 10.2 1.3-3.8-20.5-19.6-25.6-23.7-5-4.2-19.2.4-21.1 6.7zM367.3 525.6s8.8 13.1 36 11.4c27.2-1.7 28.5-18.4 28.5-18.4L405.6 487l-24.3 4.4-14 34.2z"/><path class="st2" d="M427.1 506.6s-5.9 17.1-23.8 19.5c-17.9 2.3-24.6-9.1-24.6-9.1l-5.7-30.6 34.6-8.8 19.5 29z"/><path class="st0" d="M366.4 512.3s2.7-7.9-8.9-14.3c-.2 2.4-.7 4.8-1.6 7-4.6 11.3-11.4 14.7-14.8 14.7 11.5 13.1 40.7 14 52-6.8-13.5-7.4-26.7-.6-26.7-.6z"/><path class="st2" d="M426.7 504.7s.5-11 8.6-16.6c-1.6-9.6-1.5-20.2-9.3-27.7-7.8-7.5-21.6-11-21.6-11h-22s-21.1 6.1-24.8 18c-3 9.5.7 20.6-.1 30.5 11.6 6.4 8.9 14.3 8.9 14.3s13.2-6.8 26.8.6c2.1-3.8 3.6-8.4 4.2-13.8 1.9 3.4 5.1 6.8 9 9.8 9.4-6.7 20.3-4.1 20.3-4.1z"/><path class="st0" d="M435.4 488.3v-.3c-8.2 5.6-8.6 16.6-8.6 16.6s-10.9-2.6-20.3 4.1c14.9 11.4 40.1 16.7 45.1-5.3-2.4-1.2-14.5-5.4-16.2-15.1zM392.4 452.8c5.6.5 12.1-.8 16.7-2 .5-1.1.9-2.4 1.2-3.8.7-3.3.3-7.6-1.4-11.6-3.8 1.1-8.7 2-12.2 1.4-3.8-.7-8.8-3.7-12.3-6.1-2.2 2.3-4 5.2-5.5 8.2-1.3 2.6-1.5 5.1-1.3 7.4 4.1 3 9.7 6 14.8 6.5z"/><path class="st2" d="M408.8 435.5c-1.9-4.4-5.4-8.3-10.5-9.2-5.9-1.1-10.5.9-14 4.5 3.4 2.4 8.4 5.4 12.3 6.1 3.5.6 8.4-.4 12.2-1.4zM382.5 465.3c0 8.9 12.4 11.3 13.6 1.7 2.6 4.6 11 .9 12.9-1.7 3.5-4.9-5.2-5.9-3.9-8.6 2.4-1.3 2-1.4 3.9-5.9-4.6 1.2-11.1 2.6-16.7 2-5.1-.5-10.7-3.6-14.8-6.4-.7 4.4 1 6.9 2.5 8-.5 6-5.6-1.8-8.5 3.4-1.6 2.8 4.3 12.8 11 7.5z"/><path class="st1" d="M386.5 459.6s-1.1 2.7-4 5.7M396.2 467c-1.2-1.7-.7-6.6-.7-6.6"/><path class="st0" d="M226.8 405.4s2.6 2.8 7.6 3.2c5 .4 9.3-3.1 11.5-.7s-4.5 4.5-5 9c-.6 4.5-8.7 2.8-8.7 2.8"/><path class="st6" d="M244.2 422.2s5.8 5.6 2.5 11.3-11.2 8.9-16.5 7.1c-7.2-2.4-10.1-10.2-8.8-14.5 1.3-4.3 6.4-5.1 6.4-5.1l16.4 1.2z"/><circle class="st3" cx="235.8" cy="422.3" r="10.2"/><path class="st4" d="M245.8 423.9c-.9 5.6-6.1 9.3-11.7 8.5-5.6-.9-9.3-6.1-8.5-11.7l20.2 3.2z"/><circle class="st1" cx="235.8" cy="422.3" r="10.2"/><circle class="st7" cx="235.8" cy="422.3" r="3.6"/><path class="st0" d="M243.3 459.8c2.7 1.4.8 14.8-1.7 15-2.5.1-4.4-3.2-7.2-3-2.8.3-4.7 2.7-3.7 5.4s4.4 1.4 5 4.8c.6 3.4-1.4 9.5-.1 12.8s3.1 3.4 5.3 2.5c2.3-.8-.4-8 2.3-8.1"/><path class="st6" d="M250.2 476.6s1.2-8 7.7-8.6c6.5-.6 13.8 3.9 15.4 9.2 2.2 7.2-2.4 14.2-6.7 15.6s-7.9-2.2-7.9-2.2l-8.5-14z"/><circle class="st3" cx="255.2" cy="483.4" r="10.2"/><path class="st4" d="M250.6 474.3c5-2.5 11.2-.5 13.7 4.5s.5 11.2-4.5 13.7l-9.2-18.2z"/><circle class="st1" cx="255.2" cy="483.4" r="10.2"/><circle class="st7" cx="255.2" cy="483.4" r="3.6"/><path class="st0" d="M606.8 463.2c5.1 2.1 7.5 10.7 14 6.4 3.5-2.3-1.8-7.7-2.7-11.8-.8-4.1 1.6-7.7.1-11.2-1.4-3.5-8.1 0-11.4-3.1-3.4-3.1-.1-12.1-3.9-11.1"/><path class="st6" d="M605.5 463.6s-7.1 5.6-12.7 2.2c-5.6-3.4-5.9-10.4-3.9-15.7 2.6-7.1 11.9-9 16.2-7.6 4.3 1.4 3.6 7.1 3.6 7.1l-3.2 14z"/><circle class="st3" cx="605" cy="457.9" r="10.2"/><path class="st4" d="M603.2 467.9c-5.5-1-9.2-6.3-8.2-11.9 1-5.5 6.3-9.2 11.9-8.2l-3.7 20.1z"/><circle class="st1" cx="605" cy="457.9" r="10.2"/><circle class="st7" cx="605" cy="457.9" r="3.6"/><path class="st0" d="M610.9 381.9c.3-.3-6.1-8.2-.7-11.8 5.4-3.5 8.3 1.6 12.6 1.8 4.3.3 7.6-5.1 12.3-1 4.7 4.1-3.7 9.2-3.7 9.2"/><path class="st6" d="M625.9 383.6s6.9 4.2 4.9 10.5-9 11.1-14.5 10.5c-7.5-.8-12.1-7.8-11.7-12.3.4-4.5 5.1-6.4 5.1-6.4l16.2-2.3z"/><circle class="st3" cx="617.6" cy="385.5" r="10.2"/><path class="st4" d="M627.8 384.9c.3 5.6-3.9 10.5-9.6 10.8-5.6.3-10.5-3.9-10.8-9.6l20.4-1.2z"/><circle class="st1" cx="617.6" cy="385.5" r="10.2"/><circle class="st7" cx="617.6" cy="385.5" r="3.6"/><path class="st0" d="M640.9 346.9s-2.8-4.7 0-7.6 8.2-.4 8.2-.4"/></svg>