<svg version="1.1" id="Calque_1" xmlns="http://www.w3.org/2000/svg" x="0" y="0" viewBox="0 0 900 900" style="enable-background:new 0 0 900 900" xml:space="preserve"><style>.st0{fill:red}.st1{fill:#fff}.st2,.st3,.st4,.st5,.st6,.st7{fill:#437200;stroke:#000;stroke-width:3.0935;stroke-linecap:round;stroke-linejoin:round;stroke-miterlimit:10}.st3,.st4,.st5,.st6,.st7{fill:none}.st4,.st5,.st6,.st7{fill:#fff}.st5,.st6,.st7{fill:red}.st6,.st7{fill:#ffce00}.st7{fill:#007cd8}.st8{fill:#ffce00}.st9{fill:none}.st11{stroke:#000;stroke-width:3.0935;stroke-linecap:round;stroke-linejoin:round;stroke-miterlimit:10}.st11,.st12{fill:#ffc2c2}</style><path class="st0" d="M665.9 387.2c9.3-3.7 79.2-14.2 146.6 21.7l-14.8 47.6S717.3 399 656 413.2c-11.1 0 .6-22.3 9.9-26z"/><path class="st1" d="m769.3 400.5-7.4 23.2s22.3 12.4 32.5 18.9l8.4-31.2c-7.6-4.4-33.5-10.9-33.5-10.9z"/><path class="st0" d="M645.5 526.4s40.2-40.2 131.8-37.1v53.2c-54.4-19.8-110.1-5.3-110.1-5.3l-21.7 7.7v-18.5z"/><path class="st1" d="m735.2 498.9 1.2 26.3s24.7 3.1 34.6 6.8l-2.5-35.3c-14.1-1.2-33.3 2.2-33.3 2.2z"/><path class="st2" d="M662.2 399c-12.4-2.5-55.1-1.9-62.5-.6 0 0-6.8-14.2-13-20.4 0-6.2 1.9-14.2 1.9-14.2l24.1-11.1 34.6-6.8s48.3 17.3 37.1 25.4-22.2 27.7-22.2 27.7z"/><path class="st3" d="M597.3 363.7c4.9 5.6 10.5 27.8 10.5 27.8M617.1 353.8l4.9 38.3M635.3 348.2l-.9 40.2M658.8 352.5c-2.8 4.9-10.8 37.1-10.8 37.1M677.7 360c-9.3 8-20.4 29.7-20.4 29.7"/><path class="st4" d="M659.6 409.3c1.1-4.8 2-8.4 2.7-10.3-12.4-2.5-55.1-1.9-62.5-.6 1.7 3.4 3.2 7.5 4.6 11.9 22.5-2.5 46.6-1.5 55.2-1z"/><path class="st5" d="M650.2 465.8c1.6-18 6.2-42.3 9.4-56.5-8.6-.5-32.7-1.5-55.2 1 9 28.9 10.8 74.1 10.8 74.1l1.9 62.5s-.3 24.1 1.5 26.6c1.9 2.5 28.5 4.6 30.9.9 2.5-3.7-1.5-56-1.5-56s0-28.5 2.2-52.6z"/><circle class="st6" cx="585.2" cy="367.1" r="10.8"/><circle class="st6" cx="603.4" cy="356.3" r="10.8"/><circle class="st6" cx="624.5" cy="348.2" r="10.8"/><circle class="st6" cx="646.7" cy="346.4" r="10.8"/><circle class="st6" cx="669.6" cy="352.5" r="10.8"/><circle class="st6" cx="685.7" cy="364.9" r="10.8"/><path class="st4" d="M598.5 540c-1.2 2.5-1.5 8.7 1.5 9.9 3.1 1.2 63.1-1.2 66.2-2.5 3.1-1.2 3.1-8.4.9-10.2-2.1-1.8-67.4.3-68.6 2.8zM587 428.3c-2.5 1.2-1.9 11.1 1.2 12.4 3.1 1.2 34-1.5 34-1.5l20.7 2.2s28.5 3.7 31.6 1.9c3.1-1.9 5.6-13.3 3.7-14.5-1.9-1.2-29.7 3.7-34 3.4-4.3-.3-17.9.3-21.3-1.2-3.4-1.7-33.4-3.9-35.9-2.7z"/><path class="st4" d="M622.9 430.8c-3.1 1.9-3.1 7.4-.6 9.9s18.3 1.9 20.7.6 2.5-5.6 1.2-9.3c-1.2-3.7-18.2-3-21.3-1.2zM626.3 538.2c-2.5 1.5-1.2 9 .6 10.8 1.9 1.9 12.4.3 14.2-.3s1.9-9.3.6-11.1-12.9-1-15.4.6zM622 498.9c-3.1 4.9-2.8 18.9-5.3 24.4-3.4 8.7-12.7 10.5-12.7 10.5l-.5 2.4c1.8.3 3.4.6 4.8 1.1 3.4 1 7.7 1.5 12.3 1.3 4.1-9.6 11-28.3 12.8-48.4-5.3 3.4-10.1 6.6-11.4 8.7z"/><path class="st6" d="M657.3 495.5c0-3.7-3.7-5.6-3.7-5.6s1.9-3.7 2.5-7.4c.6-3.7-4.3-5.6-4.3-5.6-1.5 2.9-10.5 8.3-18.2 13.3-1.8 20.1-8.8 38.8-12.8 48.4 9.5-.4 20.4-4 27.9-12.7 2.5-3.7-.6-7.4-.6-7.4s5.6-4.9 6.2-8.7c.6-3.7-1.2-6.2-1.2-6.2s4.2-4.4 4.2-8.1z"/><path class="st3" d="M653.6 489.9s-21.9 19.5-37.2 16.7M652.9 503.5s-14.4 15.7-38 17M648 518.4s-16.4 12.4-35.9 10.5"/><path class="st6" d="M616.7 523.3c2.5-5.6 2.2-19.5 5.3-24.4 3.1-4.9 27.2-17 29.7-22 0 0 3.1-4.9.6-11.1-4.9-1.2-19.2 12.4-31.2 15.8-5.6.9-10.2 0-16.4 2.5-6.2 2.5-9.3 12.1-9.3 12.1l-19.2 11.1-9.3-6.8h-53.8l16.1 42.7 45.8-8s17.1-.7 28.6 1.1l.5-2.4c0-.1 9.2-1.9 12.6-10.6z"/><path class="st4" d="M566.9 500.4c-3.4 8 8 41.5 11.1 41.5 3.1 0 6.2 1.2 9.6-1.9-13.3-17.2-13.9-41.4-13.9-41.4s-4.9-1.3-6.8 1.8zM595.7 495.2c-1.2-3.1-7.7-2.2-10.2 1.5 3.7 24.1 13.4 41.5 13.4 41.5s8.2 2.4 9.5-1c-13-22.5-11.5-38.9-12.7-42z"/><path class="st7" d="M573.7 498.6s.6 24.1 13.9 41.4c7.7 1.9 11.3-1.7 11.3-1.7s-9.7-17.4-13.4-41.5c-4.3-2.6-11.8 1.8-11.8 1.8z"/><path class="st5" d="M234 363.3c-6-.5-37.7 9.7-38.7 12.5-.9 2.8 11.3 37.6 23.8 54.8 12.5 17.2 24.6 25.1 24.6 25.1l23.2-8.8 6-12.1-5.6-49.7c.1 0-27.3-21.4-33.3-21.8z"/><path class="st3" d="M262.4 444.5c-37.1-49.2-37.3-78.9-37.3-78.9"/><path class="st3" d="M258.3 445.8c-34-41.8-39.1-78.9-39.1-78.9"/><path class="st3" d="M254.4 447.7c-34.3-40.8-42.2-79-42.2-79"/><path class="st3" d="M250.7 450c-39.4-40.4-44.5-79.3-44.5-79.3"/><path class="st3" d="M200.1 373.9c12.5 49.2 47.3 79.3 47.3 79.3"/><path class="st2" d="M222.2 511.8c1.4 10.2 5.4 20.1 12.5 28.8 28.5 34.6 29.7 0 29.7 0s6.7-7.3 11.8-20c-22.1-18.5-46.5-11.6-54-8.8z"/><path class="st6" d="M267.5 442.9c-30.2 5.6-49.6 38.3-45.3 69 7.5-2.8 31.9-9.7 54 8.8 6.9-17.4 10.9-44.7-8.7-77.8z"/><path class="st3" d="M222.3 499.8s14.8-6.2 18.6-1.9c3.7 4.3 1.2 9.9 1.2 9.9s5.6-9.3 13.6-6.8c8 2.5 6.2 10.5 6.2 10.5s5.9-7.1 11.4-5.3c5.6 1.9 4.9 7.7 4.9 7.7"/><path class="st3" d="M228.5 488.7s9.3-4.9 14.8-.6-.6 13.6-.6 13.6M233.5 476.9c4.3-6.8 14.2-1.2 9.9 11.1 3.1-9.9 6.8-11.8 13-9.9 8 1.9 2.5 12.4 2.5 12.4s6.2-14.8 15.5-6.2"/><path class="st3" d="M245.8 493s1.9-3.1 10.5-2.5c8.7.6 3.7 11.8 3.7 11.8s3.4-11.4 11.4-9.6c8 1.9 9 11.1 9 11.1M242.7 470.1s4.9-6.8 11.1-4.3c6.2 2.5 2.5 12.4 2.5 12.4s3.1-7.4 9.3-7.4c6.2 0 6.8 4.3 6.8 4.3M245.8 457.7c16.1-4.9 9 8 9 8s3.7-9.6 11.1-7.1 2.8 9 2.8 9"/><path class="st0" d="M98 387.4s-5.6 48.3-4.6 49.7c2.7 2.4 14.8 4.2 27.1 6.1l7.7-46.2c-16.3-5.9-30.2-9.6-30.2-9.6z"/><path class="st8" d="M173.2 419.4c-9.2-8.4-28.3-16.6-45-22.5l-7.7 46.2c11.5 1.8 23.1 3.7 27.6 6.4 9.3 5.6 15.3 20 15.3 20l26.8-7.4s1.1-26-17-42.7z"/><path class="st3" d="M98 387.4s-5.6 48.3-4.6 49.7c5.1 4.6 45.5 7 54.8 12.5 9.3 5.6 15.3 20 15.3 20l26.8-7.4s1.1-26-17-42.7C155.1 402.7 98 387.4 98 387.4z"/><path class="st3" d="M184.8 457.9s0-18.1-14.4-33.4c-14.4-15.3-66.4-26.9-71.9-29.7"/><path class="st3" d="M97.1 399.9c8.4 5.6 51 14.8 64.5 24.6 13.5 9.7 17.3 30.9 17.3 30.9"/><path class="st3" d="M96.6 408.3c5.6 3.2 46.9 12.1 59.9 20.4s18.5 25.6 18.5 25.6"/><path class="st3" d="M95.2 413.8c6.5 5.6 41.8 10.7 56.6 19 14.8 8.4 20.4 24.6 20.4 24.6"/><path class="st3" d="M94.3 422.2c8.4 4.2 42.2 9.7 56.1 16.7 13.9 7 17.6 22.7 17.6 22.7"/><path class="st3" d="M93.8 430.5c10.2 6 45.5 6.3 56.1 13.8 10.7 7.4 16.2 22.4 16.2 22.4"/><path class="st5" d="M187 526.4s1.1-17.2 26.6-13.5c.3-19.7-6-46.1-37.8-59.5-21.6 16.3-30.2 48.9-19.6 71.5 14.9-13.4 30.8 1.5 30.8 1.5z"/><path class="st2" d="M187 526.4s-16-14.8-30.7-1.5c1.8 3.9 4.2 7.5 7.2 10.8 20.4 21.7 46.4 1.9 46.4 1.9s3.5-10.6 3.7-24.7c-25.4-3.7-26.6 13.5-26.6 13.5z"/><path class="st3" d="M161.1 470.1c11.1-6.2 16.1 4.9 16.1 4.9s1.2-13 16.7-10.8M153.9 487.4c12.1-5.6 14.5 4.3 14.5 4.3M187.7 486.2s-5.9-10.2-14.5-10.8c-8.7-.6-10.8 9.6-10.8 9.6M177.5 520.2s-2.5-9 5.6-13.3 15.2 6.5 15.2 6.5"/><path class="st3" d="M153.6 516.5c13-16.7 23.5-.6 23.5-.6M196 509.7c3.1-14.8 17-8.7 17-8.7M152.4 498.6c13.6-4.3 16.7 3.1 16.7 3.1"/><path class="st3" d="M167.6 507.8s.9-9.3 10.2-9.3c9.3 0 9.3 6.2 9.3 6.2s0-9 8-10.8c8-1.9 11.1 4.6 11.1 4.6s-3.1-16.7-13.6-14.8c-10.5 1.9-5.9 20.7-5.9 20.7s.9-17-10.2-16.4c-11.1.6-9 10.2-9 10.2"/><path class="st3" d="M183.3 480s1.2-9.6 10.5-8.4c9.3 1.2 6.2 13.3 6.2 13.3"/><path class="st0" d="M196.4 578.5c.9 3.7 4.2 7.4 34.3 7.4s29.1-1.5 32-10.1c1.5-4.2 2-9 2-15.4l-68.7 1.1c0 8.4 0 15.6.4 17z"/><path class="st1" d="M178.3 588.7c.9 6 7.4 13 17.6 15.3 10.2 2.3 62.6 3.7 69.6.9 7-2.8 11.6-6.5 14.4-17.6 2.2-8.2 2.9-18.1 3.1-27.2l-18.3.3c.1 6.4-.5 11.2-2 15.4-2.9 8.5-1.9 10.1-32 10.1s-33.4-3.7-34.3-7.4c-.4-1.4-.4-8.6-.4-16.9l-17.7.3c-.3 12.4-.4 24.2 0 26.8zM87.4 746.7l210.4 3.1 33.4-26.6 1-7.4-230.7-6.3zM122.1 655.3l-7.5 19.7 222 9.2 2.5-18.2z"/><path class="st1" d="m307.6 561.4-3.6 31s-18.1 24.4-27.4 28.2c-9.3 3.7-81.2 2.9-94.7-.8s-17.2-13-18.6-21.8c-.7-4.2-1.1-20.3-1.4-35.8l-4.7.1-28.9 76.3 205 7.4-25.7-84.6z"/><path class="st0" d="M182 619.8c13.5 3.7 85.4 4.5 94.7.8 9.3-3.7 27.4-28.2 27.4-28.2l3.6-31-.5-1.6-24.1.4c-.1 9.1-.9 19-3.1 27.2-2.8 11.1-7.4 14.8-14.4 17.6-7 2.8-59.4 1.4-69.6-.9-10.2-2.3-16.7-9.3-17.6-15.3-.4-2.7-.3-14.4 0-26.8l-16.3.3c.3 15.5.7 31.6 1.4 35.8 1.3 8.7 5 18 18.5 21.7zM339.3 665l-5.9-19.1-205-7.3-6.3 16.7 217 10.7zM101.5 709.5l230.7 6.3 4.4-31.6-222-9.2z"/><path class="st3" d="m111.9 746 4.2-17.6M119.4 747l3.7-18.1M155.6 747l3.7-16.7M163.1 747.4l3.7-17.1M197.8 747.4l2.8-15.7M205.7 747l2.3-14.9M241.9 747.9l2.3-14.8M248.7 747.9l2.8-14.8M297.8 749.8l-210.4-3.1 70-184.4 149.7-2.5L339.3 665l-8.1 58.2z"/><path class="st9" d="M262.7 575.9c-2.9 8.5-1.9 10.1-32 10.1s-33.4-3.7-34.3-7.4c-.3-1.2-.4-6.7-.4-13.5-6.1-.1-12-.1-17.8-.2-.2 11.3-.3 21.4.1 23.9.9 6 7.4 13 17.6 15.3 10.2 2.3 62.6 3.7 69.6.9 7-2.8 11.6-6.5 14.4-17.6 1.6-6 2.4-12.9 2.8-19.7-5.4-.4-11.5-.7-18.2-1-.2 3.4-.8 6.4-1.8 9.2z"/><path class="st9" d="M196.4 578.5c.9 3.7 4.2 7.4 34.3 7.4s29.1-1.5 32-10.1c1-2.8 1.5-5.8 1.8-9.3-20.2-.9-45.2-1.3-68.6-1.6.1 6.9.2 12.4.5 13.6z"/><path class="st1" d="m142.4 534.8-.4 29.9c5.7 0 12.5 0 20 .1-.2-11.3-.4-22.6-.4-29.3l-19.2-.7zM264.5 566.7c6.7.3 12.8.6 18.2 1 .6-10.9.1-21.6-.4-27.9l-19.1-.7c1.2 12.4 1.8 20.9 1.3 27.6zM196 565c0-9.6.2-21.8.3-28.3l-17.3-.6c-.2 7-.6 18.3-.8 28.8 5.8 0 11.7.1 17.8.1z"/><path class="st0" d="M123.9 534.1v30.6H142l.4-29.9-18.5-.7zM264.5 566.7c.5-6.7-.1-15.2-1.4-27.6l-66.9-2.4c-.1 6.5-.3 18.7-.3 28.3 23.4.3 48.4.8 68.6 1.7zM306.5 540.6l-24.2-.9c.5 6.3 1 17 .4 27.9 7.2.5 13.1 1.1 17 1.8 3.3-.1 5.7-1 7.3-2.6l2.1-18c-1.2-4.6-2.6-8.2-2.6-8.2zM179 536.1l-17.4-.6c.1 6.7.2 18.1.4 29.3 5.1 0 10.5.1 16.1.1.3-10.5.7-21.8.9-28.8z"/><path class="st3" d="M123.9 534.1v30.6s146-.6 175.7 4.6c18.6-.3 6.8-28.8 6.8-28.8l-182.5-6.4z"/><path d="M364.6 355.6s-4.9 24.7-16.1 44.5c-11.1 19.8-58.2 67.4-61.3 76.7 8 3.1 30.3 4.3 30.3 4.3l76.7-16.7 34-14.2 6.8-60-35.9-48.1-34.5 13.5z" style="fill:#606060;stroke:#000;stroke-width:3.0935;stroke-linecap:round;stroke-linejoin:round;stroke-miterlimit:10"/><path class="st3" d="M368.9 363.7s-7.4 27.2-17.3 43.9-50.1 59.4-53.8 70.5"/><path class="st3" d="M305.2 478.8c7.4-14.8 43.3-51.4 52.6-68.7 9.3-17.3 16.1-41.5 16.1-41.5"/><path class="st3" d="M381.3 368s-9.3 28.5-17.9 45.2-38.4 47-39.6 54.4"/><path class="st3" d="M338 457.7c2.5-6.8 18.6-25.4 27.2-35.3 8.7-9.9 22.3-52 22.3-52"/><path class="st3" d="M348.5 453.4c1.9-4.9 17.6-21.7 25.7-34s17-45.8 17-45.8M359.7 449.7c2.5-5.6 20.4-23.5 23.5-32.2 5.6-14.2 11.8-34 11.8-34M369.6 449.1l14.8-22.3M377.6 448.4l8.4-14.2M385 448.4l5-9.2"/><path class="st6" d="M463.6 434.2s3.1 15.5-4.3 27.8c-7.4 12.4-43.9 16.1-43.9 16.1l-19.8-17.9 15.5-39 32.2-6.2 20.3 19.2z"/><path class="st11" d="m638.7 639-13 32.2 41.5 4.9 24.1-6.2-15.5-26.6zM692.5 571c-5.6-.6-16.1 6.8-19.2 14.2-3.1 7.4-34 13-34 13l6.8 24.7 18.6-4.6s22.6 3.1 33.1-.6 12.7-9.6 13.9-20.7c.6-14.9-13.6-25.4-19.2-26zm-.3 36.1c-5.6 3.7-14.2 2.2-14.2 2.2 6.5-4.3 13.3-12.4 18.9-16.1 0 0 .9 10.2-4.7 13.9z"/><path class="st3" d="M678 609.3c6.5-4.3-18.9 12.7-13.3 9"/><path class="st6" d="M539.1 562.9c2.5 3.1 2.5 13 2.5 13s45.2 8 53.2 11.1c8 3.1 28.5 10.8 30.3 10.8s8.7-8 13.6-8 30.3-.9 34.6-4.6c.6 2.5 1.9 6.2-2.5 9.9-4.3 3.7-15.5 8-26 10.5 9.9 0 15.5 11.4 19.8 12.7 4.3 1.2 19.8.9 22.9 3.4 3.1 2.5 5.6 3.7 3.7 10.5s-15.5 17.9-20.4 19.2c-3.1 3.1-10.5 3.1-19.8 0s-26-18.6-33.4-26-19.8-3.7-30.9-6.2c-10.5 1.9-77.3-7.4-84.1-11.1-6.8-3.7-11.8-32.2-11.8-32.2l10.5-17.9 29.1-4.9c0-.1 6.2 6.7 8.7 9.8z"/><path class="st3" d="M649.2 622.9s12.4 7.7 21 7.7c13.6.3 20.1 2.2 20.1 2.2M644.9 629.1s8 7.1 18.6 10.2c10.5 3.1 19.2 3.4 19.2 3.4M642.1 634.4c9.9 12.4 30.3 15.5 30.3 15.5"/><path class="st1" d="M471 600s52.3 15.8 83.2 60.9c30.9 45.2 27.5 81.4 27.5 81.4s-10.5 7.4-21.7.6c-7.3-6.8-11-30.9-11-30.9l-13-42.7-19.8-21-47.6-30.9-9.9-3.7L471 600z"/><path class="st1" d="M471 600s52.3 15.8 83.2 60.9c30.9 45.2 27.5 81.4 27.5 81.4s-10.5 7.4-21.7.6c-7.3-6.8-11-30.9-11-30.9l-13-42.7-19.8-21-47.6-30.9-9.9-3.7L471 600z"/><path class="st0" d="M467.1 610.6c-1.5.8-2.1 2.7-1.3 4.2.6 1.1 1.6 1.7 2.8 1.7.5 0 1-.1 1.4-.3 4.2-2.2 22.1-2.1 32.4-1.5h.4c-4.4-2.5-8.5-4.7-12.3-6.6-8.7-.1-19.2.3-23.4 2.5zM496.2 623.5c-1.7.1-3 1.6-2.9 3.3.1 1.7 1.6 3 3.3 2.9 14.9-.9 29.2 1.2 29.4 1.2h.6c-3.1-2.6-6.2-4.9-9.4-7.2-5.7-.3-13.2-.6-21-.2zM518.2 641.2h-.1c-1.6 0-3 1.3-3.1 3-.1 1.7 1.3 3.2 3 3.2 14.4.6 29.5 6.2 29.7 6.3.4.1.7.2 1.1.2h.3c-2.4-3-4.8-5.9-7.3-8.6-6.2-1.8-14.9-3.8-23.6-4.1zM537.2 661.3c-1.7-.3-3.3.7-3.7 2.4-.3 1.7.7 3.3 2.4 3.7 13.3 2.7 27.2 9.6 27.4 9.6.3.2.6.2.9.3-1.6-2.9-3.3-6-5.2-9-5.5-2.3-13.7-5.3-21.8-7zM549 683.8c-1.6-.7-3.4 0-4.1 1.6-.7 1.6 0 3.4 1.6 4.1 15.1 6.6 29.1 18 29.3 18.1.4.3.8.5 1.2.6-.9-3.2-2-6.5-3.3-9.9-5.6-4.2-14.8-10.2-24.7-14.5zM556.8 710.1c-1.5-.7-3.4 0-4.1 1.5-.7 1.5 0 3.4 1.5 4.1 6.9 3.1 22 16.3 27.7 21.5-.1-2.3-.2-5.3-.6-8.9-6.7-5.8-18-15.3-24.5-18.2z"/><path class="st3" d="M471 600s52.3 15.8 83.2 60.9c30.9 45.2 27.5 81.4 27.5 81.4s-10.5 7.4-21.7.6c-7.3-6.8-11-30.9-11-30.9l-13-42.7-19.8-21-47.6-30.9-9.9-3.7L471 600z"/><path class="st11" d="M295.3 582.1s6.8-62.5 33.4-89.7c26.6-27.2 37.1-21.7 37.1-21.7L510 497.9l15.5 33.4s4.3 9.3 7.4 13c3.1 3.7 6.2 18.6 6.2 18.6s-23.5-3.1-43.3 10.5c-19.8 13.6-34.6 53.2-34.6 53.2l-20.4-4.3-86.9-36.2-58.6-4z"/><path class="st4" d="M531.7 757.2s-14.2 5.6-25.4 13.6c4.3 4.9 16.1 20.4 26 21.7 9.9 1.2 14.8-3.1 14.8-3.1s9.3 11.1 28.5 8c19.2-3.1 28.5-9.9 28.5-9.9l-15.5-21.7-25.4-12.4-31.5 3.8z"/><path class="st3" d="M547.1 789.4s.6-12.4 8.7-21.7"/><path class="st5" d="M603.4 586.4c-3.1-5.6-10.2-2.2-9 .3 2.2 5.9-8 27.5-8.7 32.5-.6 4.9 2.2 8.7 9 7.4 5-12.3 10.6-28.4 8.7-40.2z"/><path class="st7" d="M615.2 588.9c-1.9-5.6-8.7-6.8-11.8-2.5 1.9 11.8-3.7 27.8-8.7 40.2 6.2 4.3 11.1 1.2 11.1 1.2 5.1-12.3 11.3-27.1 9.4-38.9z"/><path class="st5" d="M623.9 589.5c-1.9-3.1-5.6-.6-8.7-.6 1.9 11.8-4.3 26.6-9.3 39 0 0 8.7 2.5 10.2 0 1.6-2.5 10.9-31.6 7.8-38.4z"/><path class="st3" d="M256.3 453.4s3.1-4.9 8-3.1c4.9 1.9 1.5 8.4 1.5 8.4M339.1 666l4.4.2v-19.9l-10.1-.4 5.9 19.1zM336.1 715.9l4.6-31.6-4.1-.1-4.4 31.6z"/><circle class="st0" cx="389.1" cy="730.3" r="4.6"/><circle class="st0" cx="409.8" cy="763.4" r="4.6"/><circle class="st0" cx="320" cy="234" r="3"/><circle class="st0" cx="311.9" cy="238.9" r="3"/><circle class="st0" cx="298.5" cy="244.9" r="3"/><circle class="st0" cx="306.8" cy="244.5" r="3"/><circle class="st0" cx="303.1" cy="251" r="3"/><circle class="st0" cx="307.8" cy="257.9" r="3"/><circle class="st0" cx="315.2" cy="256.5" r="3"/><circle class="st0" cx="312.4" cy="249.1" r="3"/><circle class="st0" cx="322.1" cy="252.3" r="3"/><circle class="st0" cx="328.2" cy="247.7" r="3"/><circle class="st0" cx="335.1" cy="244.5" r="3"/><circle class="st0" cx="331" cy="238.4" r="3"/><circle class="st0" cx="320.8" cy="244.5" r="3"/><circle class="st0" cx="329.1" cy="227.8" r="3"/><circle class="st0" cx="339.8" cy="230.1" r="3"/><circle class="st0" cx="340.2" cy="236.6" r="3"/><circle class="st0" cx="343.5" cy="244" r="3"/><circle class="st0" cx="350.4" cy="236.1" r="3"/><circle class="st0" cx="350" cy="229.1" r="3"/><circle class="st0" cx="346.7" cy="221.3" r="3"/><circle class="st0" cx="356" cy="223.1" r="3"/><circle class="st0" cx="357.9" cy="212.9" r="3"/><circle class="st0" cx="366.7" cy="218" r="3"/><circle class="st0" cx="365.8" cy="226.4" r="3"/><circle class="st0" cx="359.3" cy="231" r="3"/><circle class="st0" cx="376" cy="227.3" r="3"/><circle class="st0" cx="375.5" cy="218" r="3"/><circle class="st0" cx="368.1" cy="210.6" r="3"/><circle class="st0" cx="375" cy="210.1" r="3"/><circle class="st0" cx="381.5" cy="205.9" r="3"/><circle class="st0" cx="382.5" cy="213.4" r="3"/><circle class="st0" cx="385.7" cy="224" r="3"/><circle class="st0" cx="388" cy="216.2" r="3"/><circle class="st0" cx="395" cy="221.3" r="3"/><circle class="st0" cx="397.8" cy="213.4" r="3"/><circle class="st0" cx="390.4" cy="209.7" r="3"/><circle class="st0" cx="392.7" cy="201.8" r="3"/><circle class="st0" cx="401.9" cy="206.9" r="3"/><circle class="st0" cx="407" cy="196.7" r="3"/><circle class="st0" cx="406.6" cy="216.6" r="3"/><circle class="st0" cx="414.9" cy="213.8" r="3"/><circle class="st0" cx="409.8" cy="205.5" r="3"/><circle class="st0" cx="418.2" cy="201.8" r="3"/><circle class="st0" cx="422.3" cy="209.7" r="3"/><path class="st0" d="M531.7 757.2s-13 11.8-17.9 17.9c12.4-6.2 19.8-14.2 19.8-14.2l2.5 1.2s-11.8 13-15.5 18.6c6.8-1.9 17.9-17.3 17.9-17.3h2.5s-10.5 16.1-12.4 23.5c6.8-4.3 14.8-21.7 14.8-21.7l3.1-.6s-9.3 17.9-10.5 24.1c6.8-3.7 13-24.1 13-24.1l9.3 1.9s-5.6 17.3-4.9 22.9c4.3-6.2 7.4-21.7 7.4-21.7l3.1.6s-2.5 18.6-1.2 24.7c3.7-8.7 4.3-24.7 4.3-24.7h3.7s-1.2 19.2 1.9 24.1c1.9-4.3 1.2-24.7 1.2-24.7h2.5s3.1 17.9 8 22.3c0-6.2-5.6-22.9-5.6-22.9l2.5-.6s5.6 14.2 9.9 19.8c.6-6.8-7.4-22.3-7.4-22.3l-16.7-9.3-35.3 2.5zM313.8 298c-12.4-6.1-24.3-14.6-33.7-22.4-7.8 10.1-25.4 38.2-20 78.1 5.5 41.1 24.5 67.6 31.4 76.2 9.6-11.2 22.5-25.2 36-37.2-3.2-5.2-11.8-21.3-14.3-48.3-2.2-24.3-.5-39.8.6-46.4z"/><path class="st1" d="M280.1 275.7c-12.4-10.2-20.7-19-20.7-19s-35.9 29.1-29.1 95.9c6.8 66.8 44.5 97.8 44.5 97.8s6.5-8.6 16.6-20.3c-7-8.5-25.9-35-31.4-76.2-5.3-40.1 12.4-68.1 20.1-78.2z"/><path class="st12" d="M375.8 327.2s3.1-18.6-34.6-21c-1.1-.1-2.2-.2-3.2-.3-1.3 8.4-2.9 22.6-1.7 36.3 1.5 16.7 8.1 30.1 11 35.3 5.8-3.8 11.4-6.9 16.8-8.8 37.6-13.7 11.7-41.5 11.7-41.5zM326 303.1c-4.1-1.3-8.2-3-12.2-5-1.1 6.6-2.8 22.1-.5 46.5 2.5 27 11.1 43.1 14.3 48.3 2.9-2.6 5.8-5 8.8-7.4-2.8-4.7-9.9-18.8-11.9-41.5-1.9-20.6.2-34.7 1.5-40.9z"/><path class="st0" d="M337.9 305.8c-3.9-.5-7.9-1.5-11.9-2.8-1.3 6.3-3.4 20.4-1.6 40.8 2 22.8 9.1 36.8 11.9 41.5 3.6-2.9 7.3-5.6 10.9-8-2.9-5.2-9.6-18.6-11-35.3-1.2-13.6.4-27.7 1.7-36.2z"/><path class="st3" d="M341.1 306.1c-37.7-2.5-81.7-49.5-81.7-49.5s-35.9 29.1-29.1 95.9c6.8 66.8 44.5 97.8 44.5 97.8s51.4-68.1 89.1-81.7 11.8-41.5 11.8-41.5 3.1-18.5-34.6-21zM246.5 272.3l14.4 7.4M244.2 276.9l13.4 7.5M236.3 296.9l14.8 4.6M233.5 302.9l15.3 3.7M230.3 323.3l15.7 3.8M230.7 329.4l15.3 3.2M230.4 352.5l16.6.5M232.6 361.4l16.7-1.9M236.3 381.8l14.8-3.7M238.6 387.8l16.3-4.6M245.1 405.5l13.5-4.7M249.3 411l12.1-5.5M258.1 429.1l12.1-8.8M261.8 433.8l10.2-7.4"/><path class="st6" d="M429 433c15.5 7.4 42.1 9.9 54.4 3.1 12.4-6.8 7.1-15.2 7.1-15.2s3.7 1.9 5.6 0c1.9-1.9 2.2-3.4 2.2-5.3s-6.2-4.9-6.2-4.9l5.6-20.4s.3-4.3-.3-7.4c-.6-3.1-13-17.6-14.2-20.1-1.2-2.5 3.4-4.6 2.8-7.7-.6-3.1-.6-7.4-.6-7.4l-8.7-17.9-75.5 4.3 4.9 55.7c0-.1 7.4 35.8 22.9 43.2z"/><path class="st3" d="M446.9 359.4c11.1-6.2 25.4-6.2 25.4-6.2"/><path class="st4" d="M466.6 362c.3 2.2.1 5.5-3.6 6.3-3.4.7-5.6-1.6-6.9-3.6-5.6 2.1-9.8 4.5-9.8 4.5s10.5 4.9 18.6 3.1c8-1.9 9.3-5.6 11.1-9.3-2.6-1.3-6-1.4-9.4-1z"/><path class="st4" d="M463 368.3c3.6-.8 3.8-4.1 3.6-6.3-3.5.5-7.2 1.5-10.4 2.8 1.2 1.9 3.4 4.3 6.8 3.5zM391.2 373.6s-3.7 9.9 4.9 14.2c-3.1 4.9 6.2 13.6 6.2 13.6l11.8 6.2 4.9-7.4s3.1-8 1.2-14.2c-1.9-6.2-6.8-13.6-6.8-13.6l-22.2 1.2z"/><path class="st3" d="m409.8 386.6-13.6 1.2"/><circle class="st7" cx="408.2" cy="424" r="25.7"/><circle class="st2" cx="408.2" cy="424.9" r="9.9"/><path class="st4" d="M379.5 349.5c5.6 8.7 6.8 23.5 8.7 26.6s36.5 1.2 36.5-1.2c-3.1-11.1-6.2-29.1-6.2-29.1l-26.6-5.6c-.1 0-18 .6-12.4 9.3z"/><path class="st6" d="m442.6 179.3-26-13.6s-76.7 7.4-138.6 67.4c10.4 8.7 22.2 21.5 32.7 33.7 59-43.8 129.6-54.6 147.4-56.7l-15.5-30.8z"/><path class="st7" d="M468.7 231.1c-15.8 2-81.9 12.6-144.1 52.7 8.4 10.5 14 18.1 14 18.1h5.6l12.4 14.2 87.2-4.3 29.1-72.4-4.2-8.3z"/><path class="st5" d="M458.1 210.1c-17.8 2.1-88.4 12.9-147.4 56.7 5.1 6 9.9 11.8 14 17 62.2-40.1 128.2-50.6 144.1-52.7l-10.7-21z"/><path class="st3" d="m305.4 238.1-12.5-17.6M320.8 228.7l-11.2-20M338.4 221.7l-10.7-24.1M351.8 214.3l-9.2-23.7M368.5 206.4l-10.6-23.7M384.1 199.1l-7.4-22.2M398.7 194.8l-7-23.7M414.9 190.6l-5.5-22.7"/><path class="st2" d="M439.5 194.8C391.2 126.7 323.2 95.2 317 85.3c67.4 4.9 115.4 67.4 129 78.6-6.2-11.8-76.4-82.3-63.4-113.8 14.2 24.7 53.8 63.7 73 89.1 19.2 25.4 36.2 68.4 36.2 68.4l-17 46.7-16.7.6-4.9-45.2c-.1-.1-6.9 1.8-13.7-14.9z"/><path class="st3" d="M446 163.8c12.1 12.4 33.7 58.2 33.7 58.2"/><path class="st6" d="M422.2 194.8c24.1 23.5 22.9 51.4 22.9 51.4l9.3 8 13.6-5.6c-.1 0 .6-62.5-45.8-53.8z"/><path class="st3" d="M438.9 203.4c21.7 16.1 17.9 43.3 17.9 43.3"/><path class="st6" d="M490.2 255.4c3.7-29.1 30.3-51.4 31.6-66.2-43.9 11.1-53.8 59.4-53.8 59.4l1.9 7.4c-.1 0 15.4 6.2 20.3-.6z"/><path class="st3" d="M506.3 204.7c-19.2 17.9-27.8 47.6-27.8 47.6"/><path class="st5" d="M445.1 264.7s-7.4-9.9-6.2-15.5c1.2-5.6 11.8-6.2 14.2-1.9 3.1-3.1 13-3.1 14.8 1.2 3.1-2.5 13.6-1.2 16.7 6.8 4.9-1.9 13.6 1.2 11.8 8.7-.6 1.9-13.6 8.7-16.7 14.8-24.1-6.1-34.6-14.1-34.6-14.1z"/><path class="st3" d="m453.1 247.4.8 8.2M484.6 255.4l-6.1 7.2M467.9 248.6l-2.4 8.4"/><circle class="st11" cx="349.2" cy="301.8" r="10.5"/><circle class="st11" cx="426.5" cy="287.6" r="10.5"/><circle class="st11" cx="488.4" cy="290.7" r="10.5"/><circle class="st11" cx="490.2" cy="342.2" r="10.5"/><circle class="st5" cx="386.9" cy="291.9" r="10.5"/><circle class="st5" cx="492.1" cy="316" r="10.5"/><circle class="st5" cx="374.2" cy="364.3" r="7.4"/><circle class="st5" cx="400.5" cy="361.8" r="7.4"/><circle class="st5" cx="427.1" cy="354.4" r="7.4"/><circle class="st5" cx="459.9" cy="343.9" r="7.4"/><circle class="st4" cx="457.4" cy="282.3" r="22.9"/><circle class="st5" cx="457.4" cy="283.9" r="6.2"/><path class="st11" d="M375.1 340.2c4.3-.6 9.9.6 16.7 0 6.8-.6 11.1-6.8 16.1-6.2s14.5 1.2 18.3 1.2 10.8-5.9 15.2-6.5c4.3-.6 14.8 2.2 18.6 1.5s7.4-4 11.8-5.3c4.3-1.2 9.9-.3 11.8.3 0 0 4.3-9.3-.6-15.5 0 0-7.4-1.5-11.8-.9s-11.1 4.6-15.5 5.3-11.8-1.9-16.7-1.9c-4.9 0-12.7 5.3-18.9 5.9-6.2.6-12.7-.9-18.9-.9-6.2 0-8 4.3-14.2 4.9-6.2.6-9.9 0-15.5 0s-7.4 2.8-11.8 4-9.9.9-9.9.9c-3.7 5.6-.6 15 6.8 15.9 5.5 2.8 14.2-2.1 18.5-2.7z"/><path class="st5" d="M359.7 326.3c4.3-1.2 6.2-4 11.8-4s9.3.6 15.5 0c6.2-.6 8-4.9 14.2-4.9 6.2 0 12.7 1.5 18.9.9 6.2-.6 13.9-5.9 18.9-5.9 4.9 0 12.4 2.5 16.7 1.9s11.1-4.6 15.5-5.3 11.8.9 11.8.9c2.5-4.9 3.1-13.6-3.7-17.9-3.1-2.5-9.9-2.2-15.5-1.5-5.6.6-10.5 4.9-15.5 5.6-4.9.6-11.1-1.5-16.7-1.5s-13 4.9-16.7 4.9c-3.7 0-6.8-1.5-13-1.5s-7.4 4.6-14.2 5.3-8.7-.6-16.7-.6-12 5.3-15 5.9c-3.1.6-8.7-1.5-11.1 1.5-2.5 3.1-3.7 12.7 4.9 17 0 .1 5.5.4 9.9-.8zM483.4 325.3c-1.9-.6-7.4-1.5-11.8-.3-4.3 1.2-8 4.6-11.8 5.3s-14.2-2.2-18.6-1.5c-4.3.6-11.4 6.5-15.2 6.5s-13.3-.6-18.3-1.2-9.3 5.6-16.1 6.2c-6.8.6-12.4-.6-16.7 0-4.3.6-13 5.6-18.6 2.9-1.2 3.6-2.5 5.7-1.9 10.1s11.8 6.8 14.8 6.2c3.1-.6 10.5-6.2 13.6-6.8s12.4 1.9 15.5 1.2c3.1-.6 12.4-5.6 17.3-6.2s13.6 1.5 17.9 1.5 11.8-5.6 19.2-7 21 2.3 29.1-2 1.6-14.9 1.6-14.9z"/><path class="st7" d="m465.5 380.4 1.2 8 14.8 1.2 15.5-3.1 11.1-1.9-.6-6.8s8-.6 10.8 0c2.8.6 1.5 13.6 1.5 13.6l-3.7-.3-1.9 4.6 4.9 2.5c-3.7 6.8-10.5 9.3-10.5 9.3l-2.5-4.9-3.7 1.2.6 5.6-14.8 2.5-.6-5.6-5.6.6v4.3h-13.6l.6-5.6-4.3-2.5-4.9 4.9c-6.2-4.9-9-23.5-9-23.5l14.7-4.1z"/><path class="st4" d="M478.9 391.9c-1.4-2.3-1.1-6.3-1.1-6.3l-16.7 2.8 1.9 6.2s16.4-2 15.9-2.7zM497 385l13.6-2.8 1.3 5-14.6 2.8z"/><path class="st6" d="M477.8 385.6s-.6 7.1 3.1 7.7 15.2-1.5 16.4-3.4c1.2-1.9.6-4 0-7.1-.6-3.1-13-17.6-14.2-20.1M317 686.7s-11.1 3.4-13.3 10.2c-2.2 6.8 7.7 20.7 4 28.2-2.5 4.3-11.1 3.7-13.6 5.6-2.5 1.9-3.1 6.8 0 8.7-3.1 3.1-4.9 7.4-.6 11.8-4.3 3.1-3.4 9-.9 11.4-3.1 3.1-2.8 10.2.3 12.1-3.7 3.1-3.7 12.4-.6 12.4s19.8-7.1 26-15.2c6.2-8 11.8-30 17.9-35.6 6.2-5.6 17.9-8.7 17.9-8.7l1.9-38.4-39-2.5z"/><path class="st3" d="M309.6 735.5c-2.5 1.9-11.1 4.3-15.5 3.7M310.8 746c-2.5 1.9-6.8 4.3-17.3 4.9M309.6 756.6c-2.5 1.9-6.5 5.3-17 5.9M310.8 765.2c-2.5 1.9-10.5 7.4-17.9 9.3"/><path class="st6" d="M374.5 757.8c-13 1.9-19.2-7.4-24.7-9.9-5.6-2.5-17.9-.6-22.9 12.4-2.5 8.7 2.5 17.9 0 24.7s-16.1 21.7-15.5 32.2c.6 10.5 8.7 13.3 10.5 17 1.9 3.7 2.5 12.7 6.2 14.5 3.7 1.9 10.8 1.5 12.1-.3 1.2-1.9-4.6-12.1-4-21.3s9-17.6 12.7-23.8c3.7-6.2 5.6-14.2 7.4-15.5 1.9-1.2 22.6-2.8 22.6-2.8s8.6-29.1-4.4-27.2z"/><path class="st0" d="M291 598.8s-13.6 39.6-1.9 64.3 42.7 33.4 57.8 37.4c-.9 6.5-2.2 20.7 3.4 28.2 5.6 7.4 22.3 25.4 23.5 32.8 1.2 7.4-.9 16.1.9 24.7 1.9 8.7 9 19.8 18.9 19.8 13.6-1.2 29.1-19.8 39.6-26.6 10.5-6.8 46.4-23.5 58.8-25.4s25.4-1.9 30.9-3.1c5.6-1.2 13.3-10.2 16.4-17s5.9-41.8-17-69.6c-22.9-27.8-69.9-45.8-69.9-45.8L362.1 592s1.5 12.3-13-1.2c-14.4-13.7-58.1 8-58.1 8z"/><path class="st6" d="M391.2 755.3s10.5 3.7 15.5.6c4.9-3.1 14.8-9.9 14.8-9.9l5.6 21s-11.1 8.4-16.1 9c-4.9.6-15.5-4.6-15.5-4.6l-4.3-16.1z"/><path class="st9" d="M388.3 702.6c-7.6.4-14.9.5-21.7.3 2.3 15.1 9.1 28.1 22.2 45 12.6 16.3 13.2 46.8 13.1 55.7 9.1-4.5 18.5-13.9 26.2-20.2-1-8.9-4.6-32.6-17-46-13.2-14.2-20.1-27.1-22.8-34.8z"/><path class="st6" d="M368.3 720.1s10.5 5.6 16.1 3.1 11.8-11.1 11.8-11.1l11.1 17.3s-1.5 9-10.8 12.1c-9.3 3.1-17 .3-17 .3l-11.2-21.7z"/><path d="M388.7 747.9c-13.1-16.9-19.9-29.9-22.2-45-1.8-.1-3.5-.2-5.2-.3.1 14.3 5.7 25.9 22.5 46.5 15.6 19.3 14.1 47.8 13.3 56.3 1.5-.4 3.1-1.1 4.7-1.8.1-8.9-.4-39.4-13.1-55.7z"/><path class="st8" d="M383.8 749.1c-16.7-20.6-22.4-32.2-22.5-46.5-.9-.1-1.7-.1-2.6-.2-1.1-.1-2.1-.2-3.1-.3-.7 20.4 10.4 29.7 22.6 47.7 10.5 15.5 10.1 44.5 9.5 54.9 1.6.8 3.3 1.2 5.1 1.4h.8c1.1-.1 2.3-.3 3.4-.6 1-8.6 2.5-37.1-13.2-56.4z"/><path class="st6" d="M404.9 701.6c-5.6.4-11.2.8-16.6 1 2.7 7.7 9.6 20.6 22.8 34.8 12.4 13.4 16.1 37.1 17 46 1.9-1.5 3.6-2.9 5.3-3.9 1.7-1.1 4-2.4 6.8-3.9-.3-18.3-8-28.4-18-41.9-8.1-10.9-14.6-25.7-17.3-32.1z"/><path class="st3" d="M347 700.6c41.1 9.9 124.1-15.2 151.3 11.4"/><path class="st3" d="M291 598.8s-13.6 39.6-1.9 64.3 42.7 33.4 57.8 37.4c-.9 6.5-2.2 20.7 3.4 28.2 5.6 7.4 22.3 25.4 23.5 32.8 1.2 7.4-.9 16.1.9 24.7 1.9 8.7 9 19.8 18.9 19.8 13.6-1.2 29.1-19.8 39.6-26.6 10.5-6.8 46.4-23.5 58.8-25.4s25.4-1.9 30.9-3.1c5.6-1.2 13.3-10.2 16.4-17s5.9-41.8-17-69.6c-22.9-27.8-69.9-45.8-69.9-45.8L362.1 592s1.5 12.3-13-1.2c-14.4-13.7-58.1 8-58.1 8z"/><path class="st1" d="M532.9 657c-30.3-35.9-73.6-50.1-73.6-50.1s-102.1-26-113.8-29.7c-11.8-3.7-53.2.6-58.8 8.7s-3.7 15.5 3.7 16.1 19.2-12.4 55.1-7.4c35.9 4.9 107 24.1 107 24.1s47 17.9 69.9 45.8c22.9 27.8 20.1 62.8 17 69.6-.3.8-.8 1.5-1.2 2.4.1.1.2.3.3.4 8 11.8 21.7 6.2 21.7 6.2s3-50.3-27.3-86.1z"/><path class="st9" d="M525.9 649.3c-4.5-4.7-9.3-8.9-14-12.7l-20 2.2c5.3 3.3 10.5 7.1 15.6 11.1 6.3-1.3 13.6-1 18.4-.6zM309.8 577.6c-5.6.9-10.9 2-15 3.5 2.7 7.6 9.5 13.4 12.3 15.5 3.9-1.2 8.7-2.3 14.4-2.9-3.8-3.6-8.8-9.1-11.7-16.1zM554.4 698.3c-1.7-1.1-10.1-6.2-17.4-7.2 1.6 4.8 2.7 9.5 3.4 13.9 8 2.5 13.9 6.1 17.7 9-.9-4.9-2.1-10.2-3.7-15.7zM544.7 674.2c-2.7-.8-8.9-2.2-16.4-1.8 2.6 4.1 4.6 8.2 6.4 12.3 5.8 0 12.3 2.5 16.9 4.9-1.9-5.1-4.2-10.2-6.9-15.4zM490.3 621.6c-2 .8-9.3 3.7-19.4 5.3 3.8 1.9 7.9 4.1 12.2 6.5l21.6-2.4c-4.9-3.5-9.8-6.6-14.4-9.4zM483.3 617.6c-13.9-7.5-24-10.8-24-10.8s-102.1-26-113.8-29.7c-1.3-.4-3-.7-5-1 2.9 7 8.7 15.1 11.9 19.3 37.4 6.2 100.1 23.1 100.1 23.1s2.9 1.1 7.7 3.2c.2-.1.5-.1.8-.2 9.3-.2 17.4-2.3 22.3-3.9zM540.3 667c-2.2-3.4-4.7-6.8-7.4-10-.3-.4-.6-.8-1-1.2-.5.2-1.1.3-1.6.2-.1 0-8.5-1.2-16.6-.7 3.1 2.9 6 5.9 8.6 9.1.6.8 1.2 1.5 1.8 2.3 6.4-.9 12-.4 16.2.3zM560.2 737.7c0-3.4-.2-8.4-.9-14.3-.3-.2-.6-.4-.9-.7-.1-.1-5.9-6.7-17.2-10.9.3 4.1.4 7.9.2 11.1 9.1 3.6 15.5 10.5 18.8 14.8zM316.2 576.7c4.7 9.8 14.2 16.3 14.3 16.4.1.1.2.1.2.2 3.9 0 8.2.3 13 .9-3.5-4.9-7.9-12-10.1-18.4-5.2-.1-11.3.3-17.4.9z"/><path class="st0" d="M294.8 581.1c-2.3.8-4.2 1.6-5.7 2.5 2.5 6.7 7.5 12.1 11.1 15.4 2-.8 4.2-1.6 6.8-2.4-2.7-2.1-9.5-7.9-12.2-15.5zM316.2 576.7c-2.2.2-4.3.5-6.4.9 2.9 7 7.8 12.5 11.7 16.1 2.8-.3 5.9-.4 9.2-.4-.1-.1-.2-.1-.2-.2-.1 0-9.6-6.6-14.3-16.4zM333.7 575.8c2.2 6.4 6.6 13.5 10.1 18.4.6.1 1.1.2 1.7.2 2.2.3 4.5.6 6.9 1.1-3.3-4.2-9-12.3-11.9-19.3-2.1-.2-4.3-.4-6.8-.4zM483.3 617.6c-4.9 1.6-13 3.7-22.2 4.1-.3 0-.6.1-.8.2 3 1.3 6.7 3 10.8 5.1 10-1.5 17.4-4.4 19.4-5.3-2.6-1.5-5-2.9-7.2-4.1zM504.8 631.1l-21.6 2.4c2.9 1.6 5.8 3.4 8.8 5.3l20-2.2c-2.5-2-4.9-3.8-7.2-5.5zM530.3 656c.6.1 1.1 0 1.6-.2-1.9-2.3-3.9-4.4-6-6.5-4.9-.4-12.2-.6-18.5.5 2.2 1.8 4.3 3.6 6.3 5.4 8.1-.4 16.5.8 16.6.8zM544.7 674.2c-1.3-2.4-2.8-4.9-4.3-7.3-4.2-.7-9.9-1.1-16.1-.3 1.5 1.9 2.8 3.9 4.1 5.8 7.4-.4 13.6 1.1 16.3 1.8zM551.6 689.6c-4.6-2.3-11.1-4.8-16.9-4.9.9 2.1 1.7 4.2 2.4 6.3 7.4 1 15.7 6.1 17.4 7.2-.9-2.8-1.9-5.7-2.9-8.6zM558.4 722.7c.3.3.6.6.9.7-.3-2.9-.7-6.1-1.3-9.4-3.8-2.9-9.7-6.6-17.7-9 .4 2.4.6 4.6.8 6.8 11.4 4.2 17.3 10.8 17.3 10.9zM560.2 737.7c-3.3-4.3-9.7-11.1-18.9-14.7-.1 2.5-.4 4.6-.7 6.4 9 4.1 14.8 12.1 16.4 14.4 1.9-.4 3.1-.9 3.1-.9s.2-1.9.1-5.2z"/><path class="st3" d="M532.9 657c-30.3-35.9-73.6-50.1-73.6-50.1s-102.1-26-113.8-29.7c-11.8-3.7-53.2.6-58.8 8.7s-3.7 15.5 3.7 16.1 19.2-12.4 55.1-7.4c35.9 4.9 107 24.1 107 24.1h0s47 17.9 69.9 45.8c22.9 27.8 20.1 62.8 17 69.6-.3.8-.8 1.5-1.2 2.4.1.1.2.3.3.4 8 11.8 21.7 6.2 21.7 6.2s3-50.3-27.3-86.1z"/><path class="st6" d="M362.8 532.6c-16.1 10.5-21.7 34-19.8 52.6 1.9 18.6 4.6 55.4 60.9 55.4s60.6-41.5 61.3-59.4-10.2-41.1-25.1-47.3c-14.8-6.3-61.3-11.8-77.3-1.3z"/><path class="st0" d="M367.1 545.3c-11.1 8.4-15.2 27.2-13.3 40.8 1.9 13.6 7.1 44.2 52.3 43 40.8-1.2 45.8-28.5 47-46.4s-6.2-29.7-17.3-37.7c-15.5-9.9-57.6-8.1-68.7.3z"/><circle class="st8" cx="372.7" cy="558.6" r="9.6"/><circle class="st0" cx="372.7" cy="558.6" r="4.3"/><circle class="st8" cx="378.2" cy="610.6" r="9.6"/><circle class="st0" cx="378.2" cy="610.6" r="4.3"/><circle class="st8" cx="434.5" cy="605.6" r="9.6"/><circle class="st0" cx="434.5" cy="605.6" r="4.3"/><circle class="st8" cx="430.8" cy="556.1" r="9.6"/><circle class="st0" cx="430.8" cy="556.1" r="4.3"/><path class="st8" d="m386.9 582.1 12.4-.6s-1.2-29.1 1.9-29.1 3.7 14.2 3.7 14.2l10.5-.6s.9-13 .3-15.5-4.6-9.3-9.6-9.3c-4.9 0-13-.6-16.7 6.2-3.7 6.8-2.5 34.7-2.5 34.7z"/><path class="st8" d="m381.9 571.6.6 9.9s-14.8.6-14.8 4.3c0 3.7 32.2 1.2 32.2 1.2v8s-30.3 1.2-36.5 0c-6.2-1.2-6.2-16.1-2.5-18.6s21-4.8 21-4.8zM406.1 570.3l-.6 10.5s32.2-1.9 32.8 1.9c.6 3.7-16.7 2.8-16.7 2.8v7.4s19.2-.3 24.7-3.4c5.6-3.1 4.3-15.5-1.2-17.9-5.6-2.5-39-1.3-39-1.3z"/><path class="st8" d="M405.5 587s3.1 29.1-1.5 29.1c-2.5-.6-2.8-16.7-2.8-16.7l-11.8.6s.9 17 5.3 22c7.7 7.7 21.3 2.8 23.2-1.5 1.9-4.3-.9-33.7-.9-33.7l-11.5.2z"/><circle class="st4" cx="306.2" cy="498" r="17.6"/><circle class="st3" cx="306.2" cy="498" r="6"/><circle class="st4" cx="360.3" cy="527" r="17.6"/><circle class="st3" cx="360.3" cy="527" r="6"/><circle class="st4" cx="422.8" cy="536.9" r="17.6"/><circle class="st3" cx="422.8" cy="536.9" r="6"/><circle class="st4" cx="480.3" cy="541.3" r="17.6"/><circle class="st3" cx="480.3" cy="541.3" r="6"/><circle class="st4" cx="518.7" cy="535.1" r="17.6"/><circle class="st3" cx="518.7" cy="535.1" r="6"/><path class="st4" d="M327.5 463.3s-13 13-13.3 18.6c-.3 5.6 7.7 15.5 17 13.6 9.3-1.9 16.1-13.6 16.1-13.6s-8 11.8-6.2 19.2c1.9 7.4 10.5 13.6 20.4 9.9 5.6-2.5 12.4-17.3 12.4-17.3s-7.4 14.8-5.6 20.4c1.9 5.6 17.3 9.9 24.1 4.3 4.9-3.7 8-17.3 8-17.3s-2.5 14.8 0 19.2c2.5 4.3 21.7 5.6 25.4 1.9 3.7-3.7 3.7-16.7 3.7-16.7s-2.5 15.5 1.2 19.8c3.7 4.3 21 3.4 25.4.9 4.3-2.5 2.5-17 2.5-17s-.3 16.1 2.8 18.6 15.2 5.6 23.8-.6c16.7 4.3 21-6.2 21-6.2s13.6 6.2 17.9-3.1c-2.5-7.4-7.4-16.7-7.4-16.7L471 481.9l-118.2-17.3-25.3-1.3z"/><path class="st3" d="m506.3 520.8-1.8-16.5M485.3 527l-1.7-23.6M334.7 470.4s-8.4 6.2-9.7 9c-1.4 2.8 1.4 4.5 4.2 4.5 2.8 0 10.7-9.3 10.7-9.3l18.7 11.6s-6.2 6.5-6.7 9.7c-.5 3.2 3.7 6 7 3.7s5.6-9.7 5.6-9.7l19 6.5s-4.9 7-5.4 10.7c-.5 3.7 6.3 4.6 9.1 1.9 2.8-2.8 3.7-10.7 3.7-10.7l20.9 3.7s-3.1 8.2-2.2 11c.9 2.8 7.3 3.4 9.6 1.1s1.9-10.7 1.9-10.7l21.3 2.8s-2.9 6.7-2 10.4c.9 3.7 9.7 3.6 10.7.8.9-2.8-.3-11.1-.3-11.1l19 .9s-.8 7 .2 10.2 6.8 2.3 7.7 0c.9-2.3-.5-11.6-.5-11.6l13.5-.5s-.8 11.1 1.1 13.5c1.9 2.3 4.9 0 5.4-3.2s-1.4-11.1-1.4-11.1l12.1-2.3s1.9 7.9 3.7 10.7c1.9 2.8 5.1 0 5.1-1.9s-6.5-12.9-6.5-12.9"/><path class="st2" d="M508.8 488.7c-9-12.4-24.7-30-42.1-31.6-27.2-2.5-42.7 9.3-42.7 9.3s-6.2-13.6-23.5-18.6c-27.3-5.4-50.7 3.3-63.2 9.7 13.5 12 42.3 32.7 84.3 37 43.7 4.6 74-2 87.2-5.8z"/><path class="st5" d="M508.8 488.7c-13.2 3.9-43.5 10.4-87.2 5.9-41.9-4.3-70.7-25-84.3-37-6.2 3.2-9.8 5.8-9.8 5.8s13 31.6 87.9 41.5 101.5-3.7 101.5-3.7-3-5.5-8.1-12.5z"/><path class="st9" d="M540.1 731.8c0 .2-.1.3-.1.4.1 0 .1-.2.1-.4zM539.7 733.2c0 .1-.1.2-.1.2.1 0 .1-.1.1-.2zM540 732.4c0 .1-.1.2-.1.4 0-.2.1-.3.1-.4zM539.8 732.8c0 .1-.1.2-.1.3.1-.1.1-.2.1-.3zM539.1 734.6c-.1.2-.2.3-.2.4.1-.2.2-.3.2-.4zM539.6 733.6c-.1.1-.1.2-.2.3.1 0 .1-.2.2-.3zM538.2 736.3l.3-.6-.3.6zM540.3 731.3c0 .2-.1.3-.1.5 0-.1 0-.3.1-.5zM538.8 735.2l-.3.6c.2-.3.3-.5.3-.6z"/><path class="st5" d="M540.3 731.3s0 0 0 0 0 0 0 0zM540.1 731.8h0zM540 732.3s0 0 0 0 0 0 0 0zM539.9 732.7c0 .1-.1.1 0 0 0 .1 0 .1 0 0zM538.5 735.7s0 0 0 0 0 0 0 0zM539.7 733.1v.1-.1zM581.8 742.3s-10.5 7.4-21.7.6c0 0-13.6 5.6-21.7-6.2-.1-.2-.2-.3-.3-.4-2.5 4.4-6.4 9.2-10.3 12.1-.4 2.6-.7 6.4.4 9.7 1.9 5.6 14.5 11.4 24.4 9 4.9 4.9 32.8 3.7 35.9-1.2 3.2-5 .1-18.6-6.7-23.6zM538.9 735c0 .1-.1.1-.1.2.1-.1.1-.1.1-.2zM539.6 733.5s0 .1-.1.1c.1 0 .1-.1.1-.1zM539.4 734l-.3.6.3-.6z"/><path class="st3" d="M552.7 767.1c-3.1-13 4.3-19.2 7.4-24.1"/><path class="st1" d="m632.8 735.8 56.6 1.3.2-10.9-57.4-.9zM683.6 694.1c1.6-2.8 2.4-9.5 2.9-15.6l-11.1-.3c-.1 4.7-.3 9.5-1.2 10.8-1.9 2.8-20.3 3.7-21.7-.5-.6-1.8-.8-6.4-.8-11.1l-11-.3c.1 5.6.3 11.4 1.1 14.2 1.9 6.5 38.5 8.3 41.8 2.8zM689.8 706.4c-5.7 4.6-49 .1-53.5-2.2-2.4-1.2-4.2-3-5.5-5.3l.9 15.4c16.3.4 39.8 1.2 58.1 2.3v-10.2z"/><path class="st0" d="m631.6 714.5.6 10.8 57.3.9.1-9.5c-18.2-1-41.7-1.8-58-2.2zM636.3 704.3c4.5 2.3 47.8 6.8 53.5 2.2l.3-27.8-3.6-.1c-.4 6.1-1.3 12.8-2.9 15.6-3.2 5.6-39.9 3.7-41.8-2.8-.8-2.9-1.1-8.7-1.1-14.2l-11.2-.3 1.3 22.3c1.3 2.1 3.1 3.9 5.5 5.1z"/><path class="st0" d="M652.5 688.5c1.4 4.2 19.8 3.2 21.7.5.9-1.3 1.2-6.1 1.2-10.8l-23.6-.7c-.1 4.6.1 9.2.7 11z"/><path class="st3" d="m632.8 735.8 56.6 1.3.7-58.5-60.7-1.8z"/><path class="st9" d="M641.8 691.3c1.9 6.5 38.5 8.4 41.8 2.8 1.2-2.1 2-6.5 2.5-11.2l-45.3-1.1c.1 3.9.4 7.4 1 9.5z"/><path class="st0" d="M611.3 749.3h24.6l.8-34.7c-10.1-.3-18.3-.5-22.1-.5l-3.3 35.2z"/><path class="st1" d="m610.2 760.9 25.4 1.2.3-12.8h-24.6zM686.1 682.9c.1-.8.2-1.6.2-2.4l-19.1-4.4-26.5 2.3c0 1.1.1 2.2.1 3.3l45.3 1.2zM708.8 718.3l-.8-32.9-10.1-2.3c-.3 3.3-.6 6.5-1.1 8.7-1.4 7-2.6 9.3-6.8 14.4-.6.7-1.9 1.2-3.7 1.6v8.8c9 .5 16.9 1 22.5 1.7zM628.2 691.4c-.3-2.3-.6-6.9-.6-11.9l-9.9.9-3.1 33.6c3.9.1 12 .2 22.1.5l.2-10.1c-.3-.1-.5-.2-.7-.3-4.6-2.1-7.1-6.6-8-12.7z"/><path class="st0" d="M640.8 681.8c0-1.1-.1-2.2-.1-3.3l-13.1 1.1c.1 4.9.3 9.6.6 11.9.9 6 3.4 10.5 8 12.8.2.1.4.2.7.3l.5-22.9 3.4.1zM690.1 706.1c4.2-5.1 5.4-7.4 6.8-14.4.4-2.2.8-5.3 1.1-8.7l-11.6-2.6c-.1.8-.2 1.6-.2 2.4h.2v24.8c1.8-.3 3.1-.7 3.7-1.5zM686.3 754.5l23.3 1.1-.9-37.3c-5.6-.6-13.5-1.2-22.4-1.7v37.9z"/><path class="st1" d="m686.3 764 23.6 1.2-.3-9.7-23.3-1z"/><path class="st3" d="M686.3 754.5v9.5l23.6 1.2-.3-9.7-.8-37.2-.8-32.9-40.8-9.3-49.5 4.4-3.1 33.6-3.3 35.2-1.1 11.6 25.4 1.2.3-12.8.8-34.7.8-32.9 48.8 1.2v33.7z"/><path class="st1" d="M698.7 670.2c-.2 4-.5 11.8-1.2 17.6l11.2.5.3-17.7-10.3-.4z"/><path class="st0" d="M589.2 666.5v16.4l27.2 1.2.3-16.7z"/><path class="st1" d="m674.8 686.7 10.7.5c1-5.8 1.3-13.3 1.4-17.4l-11.6-.4c.1 3.9.3 12.9-.5 17.3zM641 685.2l11 .5c-.5-4.6-.3-12.6-.1-17.1l-11.2-.4c0 4.7-.1 11.6.3 17zM616.7 667.4l-.3 16.7 11.4.5c-.2-5.3-.3-12.1-.3-16.8l-10.8-.4z"/><path class="st0" d="m727.8 671.2-18.8-.7-.3 17.8 19.1.8zM686.9 669.8c-.1 4.1-.5 11.6-1.4 17.4l12 .5c.7-5.7 1-13.6 1.2-17.6l-11.8-.3zM640.7 668.2l-13.3-.4c0 4.7.1 11.5.3 16.8l13.2.6c-.3-5.4-.2-12.3-.2-17zM652 685.7l22.8 1c.7-4.5.6-13.5.5-17.3l-23.4-.8c-.1 4.5-.3 12.5.1 17.1z"/><path class="st3" d="m709 670.5-10.3-.3-11.8-.4-11.6-.4-23.4-.8-11.2-.4-13.3-.4-10.7-.4-27.5-.9v16.4l27.2 1.2 11.3.5 13.3.6 11 .5 22.8 1 10.7.5 12 .6 11.2.5 19.1.8v-17.9z"/></svg>