<svg version="1.1" id="Calque_1" xmlns="http://www.w3.org/2000/svg" x="0" y="0" viewBox="0 0 900 900" style="enable-background:new 0 0 900 900" xml:space="preserve"><style>.st0,.st1,.st2,.st3,.st4,.st5{fill:red;stroke:#000;stroke-width:4.1688;stroke-linecap:round;stroke-linejoin:round}.st1,.st2,.st3,.st4,.st5{fill:#883e0a}.st2,.st3,.st4,.st5{fill:none}.st3,.st4,.st5{fill:#ffce00}.st4,.st5{fill:#893e00}.st5{fill:#00f}.st6{fill:#fff}.st7{fill:red}.st10,.st8{fill:#ff7300;stroke:#000;stroke-width:4.1688;stroke-linecap:round;stroke-linejoin:round}.st10{fill:none;stroke:#883e0a;stroke-width:6.9481}.st11{fill:#fff;stroke:#000}.st11,.st14,.st15{stroke-width:4.1688;stroke-linecap:round;stroke-linejoin:round}.st14{fill:none;stroke:red}.st15{stroke:#000}</style><path class="st0" d="M444.7 422s122.7 40.7 141 49.7 34.5 32.4 32.4 45.9c-2.1 13.5-36.5 15.7-80.6 1.4-44.1-14.3-91.7-78.9-91.7-78.9l-1.1-18.1z"/><path class="st1" d="M208.8 265c-5.1 4.3-53.4 18.2-88.2 30-21 7.1-34.5 9.9-32.7 15.4 1.8 5.6 15.7 2.8 35.3-2.1 16.8-4.3 35.4-10.4 47.2-16 25.4-12.1 35.2-10.1 35.2-10.1s11.5-24.2 3.2-17.2z"/><path class="st2" d="m119.8 302.9 86.2-29.2"/><path class="st1" d="M216.1 278.9s-12.5-1.4-20.8-.4-62.9 36.1-70.9 40.3c-7.9 4.2-30.6 17.1-26.8 20.3s29.2-3.8 38.5-8.8c9.3-5.1 72.7-37.1 72.7-37.1l7.3-14.3z"/><path class="st2" d="M129 325.7s62.1-40.3 69.1-41.3c6.9-1 20.8 4.2 20.8 4.2"/><path class="st3" d="M124.4 318.8c-7.9 4.2-30.6 17.1-26.8 20.4 3.8 3.2 29.2-3.8 38.5-8.8l-11.7-11.6z"/><path class="st1" d="M111.5 359.5c-.4-2.8 16.3-19.9 25.4-26.8s60.2-43.5 70.5-43.1c10.1.4 30.6 11.5 30.6 11.5l-26.4 5.1s-57.9 36.5-64.3 41.3c-6.6 4.6-33 18.9-35.8 12z"/><path class="st2" d="M138.3 341.8s58.8-41.7 68.1-43.5c9.3-1.8 28.2 3.2 28.2 3.2"/><path class="st3" d="M147.1 347.4c-6.5 4.6-32.9 19-35.7 12.1-.4-2.8 16.3-19.9 25.4-26.8l10.3 14.7zM120.5 295c-21 7.1-34.5 9.9-32.7 15.4 1.8 5.6 15.7 2.8 35.3-2.1l-2.6-13.3z"/><path class="st4" d="M90.7 102c-3.8 5.6 19.9 11.5 36.1 11.1 16.3-.4 54.2 1 58.8 3.8 4.6 2.8 68.5-.4 68.5-.4s-6-19.5-15.7-20.8c-9.7-1.4-100.1 3.8-113 2.4-12.9-1.5-31.1-1.7-34.7 3.9z"/><path class="st2" d="M123 105.6s96.3-4.2 106-1.4"/><path class="st3" d="M125.4 97.8c-12.9-1.4-31-1.4-34.7 4.2-3.8 5.6 19.9 11.5 36.1 11.1l-1.4-15.3z"/><path class="st4" d="M94.8 147.3c-1.8 5.1 19.9 4.6 38.5-.4 18.5-5.1 87.1-23.2 91.7-17.6 4.6 5.6 32.4-3.2 32.4-3.2s-16.3-20.4-28.2-21.8c-12.1-1.4-83.8 23.2-101.4 27.4s-31.2 10.6-33 15.6z"/><path class="st2" d="M126.8 140.3s89.4-27.4 99.6-26.4c10.1 1 26.8 16.3 26.8 16.3"/><path class="st1" d="M91.1 180.6c-1.4 4.2 24.6 5.6 38.5 2.4 8.9-2.1 88.9-32.4 93.1-34.3 39.9-4.2 32.9-18.1 32.9-18.1s-10.7-7.9-20.4-6.9-102.4 39.9-109.4 42.2c-6.9 2.2-33.3 10.6-34.7 14.7z"/><path class="st2" d="M125.8 173.7s114.4-50.3 120.5-41"/><path class="st1" d="M100.8 205.2c-1.4-2.4 20.8-19.9 29.2-23.6 8.3-3.8 103.8-44.5 128.3-42.1 56 8.8 37.9 61.1 0 27.4-15.7-14.9-98.7 23.2-119.9 32-21.3 8.7-36.2 8.7-37.6 6.3z"/><path class="st2" d="M131.8 190.4c65.3-20.8 125.5-66.3 142.2-24.6"/><path class="st3" d="M138.3 198.7c-21.3 8.8-36.1 8.8-37.5 6.5-1.4-2.4 20.8-19.9 29.2-23.6l8.3 17.1z"/><path class="st3" d="M125.8 165.9c-6.9 2.4-33.4 10.7-34.7 14.9s24.6 5.6 38.5 2.4l-3.8-17.3zM127.6 131.6c-17.6 4.2-31 10.7-32.9 15.7-1.7 4.6 15.8 4.7 32.9.8 2-.3 0-16.5 0-16.5z"/><path class="st5" d="m484.3 508.2 25.6-64.2c.1 26 34.2 76 34.2 76s-16 9.7-36.1 12.5c-20.1 2.8-19.5-25.7-19.5-25.7"/><path class="st6" d="M555.9 550.5c1.4 0 33.5-.3 68.8-6.3 35.9-6.1 75-18.1 75-18.1s-14.6 29.9-48.6 39.6c24.3 8.3 36.1 34 36.1 34s-20.8-6.9-55.6-8.3c-34.7-1.4-66 7.6-66 7.6l-21.5-17.4 11.8-31.1z"/><path class="st7" d="M550.3 570c1.4 0 39.7-2.4 75-8.3 35.9-6.1 49.3-11.1 74.3-35.4 0 0-14.6 29.9-48.6 39.6 24.3 8.3 36.1 34 36.1 34s-24.3-22.2-59.1-23.6c-34.7-1.4-75 6.9-75 6.9l-9-1.4 6.3-11.8z"/><path class="st2" d="M555.9 550.5c1.4 0 33.5-.3 68.8-6.3 35.9-6.1 75-18.1 75-18.1s-14.6 29.9-48.6 39.6c24.3 8.3 36.1 34 36.1 34s-20.8-6.9-55.6-8.3c-34.7-1.4-66 7.6-66 7.6l-21.5-17.4 11.8-31.1z"/><path class="st0" d="m102.9 752.7-7 97.3 59.1-3.5v-31.2l16-1.4 2.8-62.6z"/><path class="st3" d="M161.9 751.6v53.2h-20.8l-.7 31.3-43.5.7-1 13.2 59.1-3.5v-31.2l16-1.4 2.8-62.6z"/><circle class="st8" cx="130" cy="784" r="14.6"/><circle class="st2" cx="129.7" cy="784.4" r="6"/><path class="st3" d="m275.9 753.4 10.4 61.9 45.2.7 3.5 28.4 63.2-1.3-3.5-104.3z"/><path class="st0" d="m298.1 747.2 2.8 52.8 47.3-.7 2.7 29.9 46.7-1.4-2.9-89z"/><circle class="st5" cx="366.6" cy="782.3" r="15"/><circle class="st2" cx="366.2" cy="781.9" r="6.3"/><path class="st3" d="m105.7 657.5-14.6-54.2 32.6-14.5L98 502.6l36.8-14.6-25-84.8 93.8-24.3 48 171.6-41 130.7z"/><path class="st0" d="M119.6 657.5 105 613.1l34-13.9-23.6-86.2 36.1-13.9-22.2-84.7 66-18.1 47.2 166.1-21.5 109z"/><circle class="st5" cx="169.3" cy="450.9" r="17.1"/><circle class="st2" cx="168.9" cy="450.5" r="5.6"/><circle class="st8" cx="176.5" cy="534.6" r="16.7"/><circle class="st2" cx="176.3" cy="534.3" r="5.3"/><path class="st3" d="m92.5 654.8 253.6-5.6 42.4.7 15.3 99.6s-276.5 15.7-314.1 8.8l2.8-103.5z"/><path class="st0" d="m107.7 672.1-1.4 73.6c73.6 2.8 277.9-12.5 277.9-12.5l-8.3-65.3-268.2 4.2z"/><circle class="st5" cx="154.3" cy="706.9" r="18.8"/><circle class="st2" cx="154.7" cy="707.3" r="8.1"/><circle class="st8" cx="324.9" cy="706.6" r="18.8"/><circle class="st2" cx="325.2" cy="706.9" r="8.1"/><path class="st8" d="M390.8 662.8c-1.8 44.9 10.7 83.8 10.7 83.8l-11.1 1.4c9.7 47.7-4.2 74.6 21.8 92.7 32 20.8 104.2-6.5 104.2-6.5s-24.6-112.6-28.8-183.4c-4.2-70.9-31.5-43.9-31.5-43.9l-69.5 32.4c0-.1 6-21.4 4.2 23.5z"/><path d="M475.6 670.7c1.8 29.7 14.9 118.5 16.3 122.3s16.1-.6 16.1-.6c.4 2.1.8 4.2 1.3 6.1 0 0-17.2 6.4-22.8-1.4-5.6-7.9-8.3-73.2-12.5-80.6-4.2-7.4-10.1-40.3-10.1-40.3l11.7-5.5z" style="stroke:#000;stroke-width:2.7792"/><path class="st6" d="M406.9 782.9c-1.4-19-5.6-36.1-5.6-36.1l-11.1 1.4c9.7 47.7-4.2 74.6 21.8 92.7 32 20.8 104.2-6.5 104.2-6.5s-1.1-4.9-2.8-13.3c-2.2.8-57 26.8-86.2 12.9-21.1-10.4-18.9-32.2-20.3-51.1z"/><path class="st2" d="m401.4 746.8-11.1 1.4c9.7 47.7-4.2 74.6 21.8 92.7 32 20.8 104.2-6.5 104.2-6.5s-1.1-4.9-2.8-13.3M393 761.5l9.8-2.8M394 773.2l10.4-3.1M395.4 784.4l10.1-3.5M395.4 796.2l10.8-4.6M395.8 808.3l11.1-6.2M397.2 818.5l11.8-6.7M400 827.8l11.1-8M408.3 836.1l6.6-10.7M416.9 842.4l4.2-11.2M427.8 845.8l1.9-10.7M438.5 846.9l.4-9M448.6 847.2v-9.3M459.3 847.2l-1-9.7M469 846.2l-1.3-9.7M477.4 844.4l-1.4-9.7M487.1 841.7l-1.8-10.2M496.4 839.9l-3-10M503.8 837.5l-2.8-10.4M509.8 835.1l-2.5-10.4"/><circle class="st10" cx="420.1" cy="766.3" r="7.2"/><circle class="st10" cx="456.5" cy="762.9" r="7.9"/><circle class="st10" cx="425.6" cy="799.6" r="9.3"/><circle class="st10" cx="444.5" cy="819.8" r="7.9"/><circle class="st10" cx="461.4" cy="792.7" r="9.4"/><circle class="st10" cx="482.9" cy="815.3" r="9.3"/><circle class="st10" cx="407.9" cy="702.7" r="8.1"/><circle class="st10" cx="418.6" cy="673.1" r="8.8"/><path class="st0" d="M290.5 618.4s27.9 47.8 72.4 52.7c44.5 4.7 91.6-51 91.6-51L431 690.9l38.9-3.6s31.8-66.8 36-67.5c27.8-.1 75.2 47.8 75.2 47.8l40.3-5.7s-56.4-67.3-59.9-78.4c-3.5-11.1-152.2-6.5-152.2-6.5l-118.8 41.4z"/><path class="st0" d="M293.3 376.1c-21.5 139-63.9 210.5-63.9 210.5s136.2 14.6 150.8-3.5c10.6-13.1 5.6-46.6 5.6-46.6L365 329.7c-.2.3-50.2-92.5-71.7 46.4z"/><path class="st5" d="M278.7 619.3c20.1 9 79.2 0 100.1 0 47.2-.7 53.5-28.5 53.5-28.5l-19.5-29.2-16 9.7-19.5 21.5-88.9 7.6-26.4 2.1c0 .1-3.5 7.8 16.7 16.8z"/><path class="st2" d="m300.9 622.1-9.7-12.5M315.5 622.8 303 605.4M326.6 622.1l-13.2-18.8M336.3 621.4l-12.5-20.1M347.5 620l-11.9-18.7M358.6 618.6l-11.8-19.4M371.1 619.3l-12.5-19.4M379.4 617.2l-11.1-18M391.2 617.2l-12.5-19.4M403 615.2l-11.8-18.1M411.4 610.3l-14.6-17.4M421.1 605.4l-14.6-18"/><path class="st0" d="M280.8 615.9s34-12.5 54.2-12.5 62.5-.7 71.6-8.3c9-7.6 18.1-33.4 18.1-33.4l-33.4-36.1-24.3-4.2-18.8 43.8-96.6-.7 29.2 51.4zM578.8 454.7c2.1-.7 36.8-16.7 36.8-16.7l-22.2-40.3-16.7 6.9-1.4 13.2-69.5-2.8-4.9 14.6 67.4 29.2 10.5-4.1zM233.2 341s-1 22.2 12.5 21.3 45.4-11.1 45.4-11.1l-10.7-50-47.2 39.8z"/><path class="st0" d="M241.2 374.3c1.4-7.9 62.5-47.7 62.5-47.7l3.8 38.9-45.9 27.8-19.5-10.7c0 .1-2.3-.5-.9-8.3zM226.8 297.4h0s0 22.2 5.6 27.4c5.6 5.1 49.1 1.8 49.1 1.8l36.1-13.9 5.6-35.2-26.4-6-70 25.9z"/><path class="st0" d="M220.3 277.5s-1 23.2 4.6 23.6c5.6.4 84.3-19.5 84.3-19.5l-3.8-19.9-85.1 15.8zM302.7 177s-28.8-15.7-40.7-12.9c-12.1 2.8-42.7 55.2-32.4 76 10.1 20.8 39.9 16.7 41.7 15.7 1.8-1 48.2-3.8 48.2-3.8l-16.8-75z"/><path class="st11" d="m271.3 107 38.9-9.2 3.2 20.8-33.8 19.9-13.4-24.6zM395.4 61.4l-37.5 13.9 46.5 78.5 39.6-15.3z"/><path class="st2" d="m419 93.4 20.9 38.9"/><path class="st8" d="m445.4 126.7-33.3-61.8-13.9 6.2 38.2 66.7z"/><path class="st0" d="m425.7 90-13.6-25.1-13.9 6.2 14.8 26z"/><path class="st5" d="m418.9 77.5-6.8-12.6-13.9 6.2 7.8 13.5z"/><circle class="st11" cx="404.4" cy="63.5" r="12.5"/><circle class="st2" cx="403" cy="62.1" r="4.2"/><path class="st0" d="m427.4 133-45.9-67.4-11.1 3.4 45.1 74.4zM407.2 146.9l-48.6-74.4-25 16-21.6 14.6-6 15.5-6.9-8.3-32.9 33.1 50 54.9 89.6-38.2z"/><path class="st2" d="m306 118.6 37.6 41.7"/><circle class="st11" cx="349.5" cy="70.8" r="12.9"/><circle class="st11" cx="372.2" cy="62.5" r="12.5"/><circle class="st11" cx="259.2" cy="132.7" r="12.9"/><circle class="st11" cx="290.9" cy="103.5" r="11.8"/><circle class="st2" cx="290.2" cy="103.4" r="5.1"/><circle class="st11" cx="240.2" cy="171.9" r="11.5"/><circle class="st2" cx="239.3" cy="171.9" r="4.6"/><path class="st0" d="m216.6 227.5 88.1 18.4-1.4-12.5-82-17.1z"/><circle class="st11" cx="212.7" cy="218.8" r="11.8"/><circle class="st2" cx="211.6" cy="220.1" r="4.6"/><circle class="st11" cx="227.5" cy="204.9" r="13.2"/><circle class="st2" cx="227" cy="204.1" r="5.8"/><circle class="st2" cx="258.1" cy="133.2" r="4.9"/><path class="st0" d="M306 245.9s-75.5-8.3-81-6.5c-5.6 1.8-3.8 19-2.8 22.2s90.7 11.1 90.7 11.1l-6.9-26.8z"/><circle class="st11" cx="210.3" cy="255.9" r="12.2"/><circle class="st2" cx="210.2" cy="255.2" r="4.6"/><path class="st11" d="M306.9 267.8s-72.3-10.1-84.3-3.2c-12.1 6.9-6 15.3.4 13.9 19.9-6 91.3 6 91.3 6l-7.4-16.7z"/><circle class="st11" cx="214.5" cy="271.2" r="11.4"/><circle class="st2" cx="213.8" cy="271.5" r="4.2"/><circle class="st11" cx="216.4" cy="292.5" r="11.4"/><circle class="st2" cx="216.8" cy="292.5" r="3.9"/><circle class="st11" cx="221.3" cy="313.2" r="10.7"/><circle class="st2" cx="220.6" cy="313.9" r="3.9"/><circle class="st11" cx="225.9" cy="349.7" r="11.5"/><circle class="st2" cx="226.8" cy="349.7" r="4.2"/><circle class="st11" cx="240" cy="384.2" r="10.8"/><circle class="st11" cx="348.6" cy="70.1" r="4.6"/><circle class="st11" cx="371.8" cy="62.8" r="4.9"/><circle class="st11" cx="349.5" cy="128.1" r="20.1"/><circle class="st5" cx="351.3" cy="129.9" r="9.4"/><path class="st11" d="M348.8 178.8s-16-16-13.9-20.1 45.2-27.8 50.7-27.8 11.1 28.5 11.1 28.5l-47.9 19.4z"/><path class="st11" d="M346.1 176.7s-9-5.6-6.3-9 46.6-27.8 51.4-27.8c4.9 0 7.6 13.2 7.6 13.2l-52.7 23.6zM327.3 114.9l-10.7-13.5-8.3 7-2.3-50.1 40.3 24.6-9.3 5.6 11.6 16.7z"/><path class="st2" d="m315.2 78.3 22.8 34.2"/><path class="st11" d="M314.1 121.8c-.3 1.4 2.1 8.3 4.9 6.9 2.8-1.4 46.3-26.4 47.9-28.5s-3.1-8.1-5.6-7.6-46.9 27.9-47.2 29.2z"/><path class="st8" d="m262 125.6 65.3 64.8 13.9-13-68.1-63.5z"/><path class="st2" d="m291.6 143.1 45 42.7"/><path class="st0" d="m262 125.6 24.2 23.9 12.3-11.8-25.4-23.8z"/><path class="st5" d="m262 125.6 9.3 9.2 11.1-12.1-9.3-8.8z"/><circle class="st11" cx="259.5" cy="112.8" r="14.2"/><circle class="st2" cx="259.5" cy="112.8" r="5.8"/><circle class="st11" cx="266.9" cy="199" r="22.5"/><circle class="st5" cx="266.9" cy="199" r="8.6"/><path class="st11" d="M287 240.9c-1.4 2.4-9.7 1-10.1-1.8-.4-2.8 15.3-54.2 17.1-56.6 1.8-2.4 8.3 1 8.8 3.2.5 2.4-14.4 52.9-15.8 55.2z"/><path class="st11" d="M294 243.7c-1.4 2.4-9.7 1-10.1-1.8-.4-2.8 15.3-54.2 17.1-56.6 1.8-2.4 8.3 1 8.8 3.2.4 2.4-14.5 52.8-15.8 55.2zM246.3 200.1l-30.2-5L211 209l-56-41.3 75.5-3.8-4.6 14.5 31.5 5.6z"/><path class="st2" d="m182.4 179.8 72.2 13.9"/><path class="st11" d="M246.7 222.9c-1.4 2.4-9.7 1-10.1-1.8-.4-2.8 15.3-54.2 17.1-56.6 1.8-2.4 8.3 1 8.8 3.2.5 2.4-14.4 52.8-15.8 55.2z"/><circle class="st11" cx="280.5" cy="329.3" r="21.3"/><circle class="st5" cx="280.3" cy="330" r="8.1"/><path class="st11" d="m249.9 318.8-33.3 3.6-1.4-17.5-58.4 36.1 65.3 14.7-1.8-14.3 31.6-2.4z"/><path class="st2" d="m194.3 334.5 55.6-3.2"/><path class="st11" d="M306 302.8c-.4-3.1-9.3-2.6-8.8 0 .4 2.6 2.4 38.9 3.2 41.4 1 2.6 11.1.8 10.7-1.7-.5-2.6-4.6-36.7-5.1-39.7z"/><path class="st11" d="M314.4 300.1c-.4-3.2-9.3-2.8-8.8 0 .4 2.8 2.4 41.7 3.2 44.5 1 2.8 11.1 1 10.7-1.8-.5-2.8-4.7-39.3-5.1-42.7zM254.6 307.1c-.4 3.2.4 52.8 0 54.6-.4 1.8 10.1 1 9.7-1-.4-1.8-1-52.4-.4-54.2.5-1.6-8.9-2.6-9.3.6z"/><path class="st11" d="M244.9 307.1c-.4 3.2.4 52.8 0 54.6-.4 1.8 10.1 1 9.7-1-.4-1.8-1-52.4-.4-54.2.4-1.6-8.9-2.6-9.3.6z"/><path class="st0" d="M238.8 398c1.8-1.8 76.8-56.6 76.8-56.6l4.2 21.3s-69.5 45.9-72.3 46.8c-2.6 1-10.5-9.7-8.7-11.5z"/><path class="st8" d="M263.8 379.3c22.5-16.5 52-37.9 52-37.9l4.2 21.3s-24.3 16-44.7 29.3l-11.5-12.7z"/><path class="st5" d="M238.8 398c.4-.4 4.2-3.2 9.9-7.4l10.4 12c-6.4 4-10.8 6.8-11.5 7.1-2.7.8-10.6-9.9-8.8-11.7z"/><path class="st2" d="m271 385.2 49.8-33.7"/><circle class="st11" cx="237.7" cy="412" r="12.2"/><circle class="st2" cx="237" cy="413.2" r="5.1"/><path class="st11" d="M519.1 337s2.5 6.9 2.1 8.3-11.5 3.2-11.5 2.1-2.8-9.7-2.8-9.7l12.2-.7z"/><path class="st11" d="M507 337.6s3.5 8.3 2.8 9.7c-.7 1.4-11.8 7.4-12.5 6-.7-1.4-4.6-10.6-4.6-10.6l14.3-5.1z"/><path class="st11" d="M483.4 353.6s2.5 6 4.6 6.7c2.1.7 8.3-4.9 9.4-6.9 1.1-2.1-4.7-10.6-4.7-10.6l-9.3 10.8z"/><path class="st6" d="M532.7 296.9s9 1.1 12.9-6.9c3.9-8.1-9.7-48.4-12.2-49.1s-20.6 9-18.8 10.4c1.8 1.4 12.2 32.7 9.7 36.5s8.4 9.1 8.4 9.1z"/><path class="st7" d="M532.7 296.9s3.3.4 6.7-1.1c0 0-1.8-4.2-1.5-7.9.3-3.8-7.6-36.8-11-44.7-2.4 1.1-5 2.5-7.4 3.9 3.6 4 14.5 36.4 13.8 38.8-.7 2.4-9.3-5.3-9.3-5.3.7 3.6 1 6.4.3 7.4-2.4 3.8 8.4 8.9 8.4 8.9z"/><path class="st2" d="M532.7 296.9s9 1.1 12.9-6.9c3.9-8.1-9.7-48.4-12.2-49.1s-20.6 9-18.8 10.4c1.8 1.4 12.2 32.7 9.7 36.5s8.4 9.1 8.4 9.1z"/><path class="st3" d="M460.7 401.8c24.3-11.8 24-28.2 25.7-28.5 1.7-.3 11.1-1.8 12.9.4 1.8 2.2 5.3 3.9 8.1 1.1 2.5-2.5.4-9.7-8.1-12.2s-15-1.1-15-1.1c-2.5-4.6 2.5-22.2 34.7-24.7-2.8-12.9-12.9-15.7-6.3-20.8 6.7-5.1 19.6-12.9 21.3-17.4 1.4-3.9-10.1-17.1-18.1-19.2-7.9-2.1-25.4-12.2-27.8-14.3-2.4-2.1 1.1-10.8-3.9-18.1-4.9-7.2-17.1-20.8-17.1-20.8l-13.9-17.8-98 51.8 12.9 110.5 26.1 18.8c.2.3 54.1 18.3 66.5 12.3z"/><path d="M413.2 235.1s33.4 37.2 26.8 76.8c-6.5 39.6-20.1 70.2-20.1 70.2l6.3 2.5s16.4-28.9 22-72.3-25.4-81.3-25.4-81.3l-9.6 4.1z" style="fill:#ff7300"/><path class="st11" d="M313.4 311.8s-3.1 3.2.6 9.7c-2.4 4.7.6 10.3.6 10.3s-2.2 4.4.6 8.3c-1.7 3.1.6 10.7.6 10.7s-1.9 3.6.6 8.8c2.5 5.1 30.2 2.4 30.2 2.4l14.9-44.1-24.6-100.1s116.3-61.6 116.7-69.1c.4-7.4-2.4-22.4-7.9-24-2.1-.7-5.3 0-6.5 3.5-7.6-3.5-8.8 4.3-8.8 4.3s-8.1-2.4-9.3 4.6c-8.1-3.9-10.1 4.2-10.1 4.2s-6.3-3.2-9.3 2.4c-7.1-3.1-8.8 4.6-8.8 4.6s-7.6-1.8-8.8 5.1c-8.9-3.8-9.7 4.2-9.7 4.2s-7.9-3.1-9.3 5.1c-8.8-2.5-7.9 5.1-7.9 5.1s-7.8-3.2-8.8 4.2c-7.6-2.5-8.8 4.6-8.8 4.6s-7.5-4.3-9.3 5.1c-3.9-1.4-11.8-2.5-10.1 8.8-6.5-3.6-8.8 2.4-8.8 2.4s-10.8-5.6-12.9 5.1c-4.2.8-4.2 7.9-4.2 7.9s-6.3 3.8-4.6 12.1c-5.8 10.8 2.8 16.3 2.8 16.3s.1 9.9 9.3 7.8c-3.2 6.3 2.1 10.3 2.1 10.3s-3.2 4.7 1.9 9.7c-2.8 3.9 1.8 8.8 1.8 8.8s-2.5 5.1 1.9 9.3c-1.9 3.9 1.8 8.8 1.8 8.8s-2.8 3.2 1.5 7.5c-3.8 7.8.6 15.3.6 15.3z"/><path class="st2" d="m438.9 128.1 3.1 6.9M430.1 132.5l2.5 6.7M420.8 137.1l2.8 6M413.5 146.9l-2.8-5.6M404.8 151.4l-3.4-7.7M392.6 148.2l3.5 7.4M383.9 153.4l3.2 6M374.1 157.6l3.2 5.9M364.8 162.6l3.9 6.5M356.9 167.7l2.8 5.3M350.9 177.8l-2.7-5.9M339.4 176.5l2.9 5.8M330.1 181.6l2.5 5.3M319.9 190.4l1.6 3M311.1 192.7l1.6 4.6M304.4 202.2l-6.3-4.3M300.2 210.5l-6.2-4.9M295.3 219.1l-5.9-1.4M292.2 234l5.9-3.8M301.3 241.8l4.5-2.8M309.7 250.1l-6.3 1.8M311.3 259.8l-5.8 2M313.4 268.9l-6.1 1.6M315.9 277.5l-6.8 2.3M310.9 288.6l6.4-1.7M319.4 296h-7M320.4 310.8l-7 1M320.8 321.3l-6.8.1M322.9 340h-7.8M314.5 331.7l7.7-.3M322.9 350.2l-7.3.5"/><path class="st3" d="M315.5 217c-.7 3.5 24.7 43.5 25 47.7.3 4.2 134.8-66.7 136.6-72.7s-19.7-43.2-23.8-43.4c-4 .1-137.1 65-137.8 68.4z"/><path class="st0" d="M333.3 224.4c.7 4.2 16 35.2 16 35.2l119.2-62.3s-14.6-30.6-20.6-31.7c-5.9-1.1-115.3 54.6-114.6 58.8z"/><circle class="st5" cx="377.2" cy="219.9" r="15.1"/><circle class="st2" cx="377.9" cy="219.9" r="6.4"/><circle class="st5" cx="426.7" cy="195.2" r="14.6"/><circle class="st2" cx="425" cy="194.8" r="6"/><path class="st4" d="M477.1 192c3.9 2.8 12.2 18.1 13.6 20.1 1.4 2.1-19.9 13.9-23.3 14.3s-9.4-9.4-12.5-10.8-84.9 43.7-84.9 46.2 10.1 21.3 8.5 37.9c-1.7 16.7-28.5 9-28.5 9s-13.9-40.3-10.1-49.1c3.7-8.7 133.3-70.4 137.2-67.6z"/><path class="st8" d="M375.7 328.6s9.7-6 3.2-25.4c-6.5-19.5-24.7-7.4-27.8 0-3.1 7.4-.7 24.3.7 29.6-3.9 1.4-15 17.4-11.8 29.9 3.2 12.5 18.1 10.3 18.1 10.3s.1-22.4 6-25.4 16.3.6 16.3.6 8.8-2.8 6.9-12.5c-1.9-9.9-11.6-7.1-11.6-7.1z"/><path class="st2" d="M375.7 328.6c-3.9 3.2-8.1 6-10.8 1.4-2.8-4.6-.7-10.8 3.9-12.2M503.1 301.1c6-5.3 10.8-4.9 10.8-4.9"/><path class="st11" d="M532.7 321.3c-.4 2.5 46.6 49.3 50 51.4 6.3 6 12.5-3.2 8.8-8.1s-44.5-53.2-47-53.5c-2.5-.3-11.5 7.8-11.8 10.2z"/><path class="st0" d="m559.9 350.9 8.9 8.9 10.6-9.4c-2.5-3.1-5.3-6.3-8.2-9.6l-11.3 10.1zM562.4 330.6c-9-10.4-17-19.3-18.1-19.5-2.5-.4-11.5 7.6-11.8 10.1-.1 1 8.1 9.9 17.9 20l12-10.6zM453.1 274c-8.8-2.1-23.3 1.8-24.3 7.4-1 5.6 22.2 13.6 34 6.3s-1.4-15.3-1.4-15.3.4 3.7-8.3 1.6z"/><path class="st11" d="M463.9 402.3s113.3 8.8 114.6 10.4c1.4 1.7 3.9 18.5 2.5 19.5s-120.6-12.5-120.6-12.5l3.5-17.4z"/><path class="st0" d="M523.9 426.6c-3.5-.4-6.9-.7-10.4-1.1l.4-19.3c3.3.3 6.7.6 10 .8v19.6zM547.3 409.1c17.4 1.5 30.7 2.9 31.3 3.6 1.4 1.8 3.9 18.5 2.5 19.5-.6.4-15.7-1.1-35.2-3.1l1.4-20z"/><path class="st11" d="M456.3 412.3s132.4 34.7 132.4 37.2-1.8 20.8-2.8 22.2c-1 1.4-138.3-49.1-138.3-49.1l8.7-10.3z"/><path class="st0" d="M523 450.2c-3.2-1.1-6.4-2.4-9.6-3.5l.8-18.9c3.2.8 6.3 1.7 9.4 2.5l-.6 19.9zM549.4 437.4c22 6.1 39.2 11.3 39.2 12.1 0 2.5-1.8 20.8-2.8 22.2-.4.6-18.6-5.8-41.7-14l5.3-20.3z"/><path class="st11" d="m376.4 438.7 7.9 82.9 37.9 16.2 78.1-13-10.1-31.1 19-48.5-61.7-22.5z"/><path class="st3" d="M223.8 620c-15.3 13.9-22.9 76.4-33.4 86.9 7.6 2.1 12.5 1.4 20.8-7.6 0 0-9.7 11.8-10.4 18.1s-.7 20.8-5.6 30.6c-4.9 9.7-38.2 45.9-38.2 47.9s13.2 22.9 28.5 10.4c15.3-12.5 59.8-83.4 59.8-83.4l8.3-119.5c.1-.1-14.5 2.7-29.8 16.6z"/><path class="st6" d="M245.3 639.5s-20.1 37.5-22.2 64.6c-2.1 27.1-13.9 82.7-40.3 100.7 3.5 2.8 27.1 13.2 49.3-9-5.6 20.1 10.4 21.5 16 21.5 2.8-23.6 28.5-125.8 32-143.8 3.5-18.1.7-54.9-3.5-60.4-4.2-5.6-31.3 26.4-31.3 26.4z"/><path class="st7" d="M256.4 629.7c2.1 11.1-25 136.2-34 153.6-9 17.4-29.9 13.2-39.6 21.5 3.5 2.8 27.1 13.2 49.3-9-5.6 20.1 10.4 21.5 16 21.5 2.1-15.3-11.8-6.9-11.1-29.2.7-22.2 38.9-168.8 34.7-174.4-4.1-5.5-17.3 4.9-15.3 16z"/><path class="st2" d="M245.3 639.5s-20.1 37.5-22.2 64.6c-2.1 27.1-13.9 82.7-40.3 100.7 3.5 2.8 27.1 13.2 49.3-9-5.6 20.1 10.4 21.5 16 21.5 2.8-23.6 28.5-125.8 32-143.8 3.5-18.1.7-54.9-3.5-60.4-4.2-5.6-31.3 26.4-31.3 26.4zM449.6 587.4l-5.6-7.7M435.7 588.8l-6.9-7.7M471.8 432.4s-18.8 20.8-36.1 24.3"/><circle class="st2" cx="476.7" cy="456.7" r="2.1"/><circle class="st2" cx="487.8" cy="454" r="2.1"/><circle class="st2" cx="490.6" cy="462.3" r="2.1"/><circle class="st2" cx="479.5" cy="466.5" r="2.1"/><circle class="st2" cx="405.8" cy="497" r="2.1"/><circle class="st2" cx="405.8" cy="510.9" r="2.1"/><circle class="st2" cx="398.9" cy="504" r="2.1"/><circle class="st2" cx="412.8" cy="504" r="2.1"/><path class="st11" d="M451 274.4c1.4-3.9 15.3-13.2 19.9-11.8 4.6 1.4 11.5 7.4 8.3 14.6-3.2 7.2-8.8 8.8-12.2 10.1-9.3 1.7-17.4-9.1-16-12.9z"/><path class="st2" d="M456.5 284.3c-3.9-3.1-6.3-7.6-5.6-9.9.8-2.2 5.8-6.3 10.7-9 5.1 4.2 4 14.2-5.1 18.9z"/><path class="st6" d="M503.4 301.1c-6.9 5.6-2.9 10.8-1.8 12.5 3.5 4.9 14 0 18.5-1.8 4.6-1.8 7.4 11.5 1.8 15s-48.9-2.8-52.4-8.3-1.4-8.8 2.8-10.1c-6-5.2-1.2-15.9 31.1-7.3z"/><path class="st7" d="M501.6 313.6c3.5 4.9 14 0 18.5-1.8 4.6-1.8 7.4 11.5 1.8 15 0 0-.3-6.3-2.8-6.9-2.5-.7-41.7-6.7-51.4-6.3 0-2.6 1.8-4.3 4.6-5.3 11.3-.5 28 3.6 29.3 5.3z"/><path class="st2" d="M503.4 301.1c-6.9 5.6-2.9 10.8-1.8 12.5 3.5 4.9 14 0 18.5-1.8 4.6-1.8 7.4 11.5 1.8 15s-48.9-2.8-52.4-8.3-1.4-8.8 2.8-10.1c-6-5.2-1.2-15.9 31.1-7.3zM501.7 466.5s22.9 52.1 32 59.1"/><path class="st0" d="m523.9 623.5 37.5-39.6s2.1-38.9-6.3-50c3.5 2.8 11.1 7.6 14.6 2.8 6.3-7.6 1.4-20.8-13.9-16.7-2.8-4.2-5.6-9-14.6-1.4-4.2-4.2-10.4 3.5-10.4 3.5s-5.6-2.1-8.3 5.6c-6.3-4.9-15.3 6.9-15.3 6.9l-2.8 59.1 19.5 29.8z"/><path class="st2" d="m548.3 526.9-7-8.3M530.9 522.1l6.2 11.1M526.7 538l-4.2-10.4"/><path class="st3" d="M428.8 590.1s14.6 25.7 25.7 29.9 63.9 3.5 63.9 6.9c0 3.5-10.4-.7-9.7 4.2.7 4.9 13.9 6.9 18.8 2.1s2.1-14.6-9.7-20.1C506 607.5 458 602 458 602l-24.3-27.1-4.9 15.2z"/><path class="st3" d="M515.6 583.9c4.9 1.4 17.4 30.6 11.1 32s-50.7 1.4-65.3-3.5c-14.6-4.9-25.7-27.8-25.7-27.8l12.5-16 36.1 20.1c0 .1 26.4-6.2 31.3-4.8z"/><path class="st2" d="M453.1 588.1c16.7 29.2 69.5 4.9 69.5 4.9"/><path class="st2" d="M453.1 588.1c16.7 29.2 73.6 16.7 73.6 16.7"/><path class="st11" d="M385.7 536.6s5 33.5-5.6 46.6c-14.6 18.1-150.8 3.5-150.8 3.5s12.4-20.8 27.1-62.1l98.4 4 30.9 8z"/><path class="st2" d="m259.2 579.7 4.2-24.3 8.3 2.1-5.6 25 29.9 2.8 2.8-24.3 8.3 1.4L305 586l27.1.7v-25s9-1.4 9 .7c0 2.1 1.4 25 1.4 25l-83.4-2.8v-4.9z"/><path class="st3" d="m373.9 535.5 11.8 1.1s5 33.5-5.6 46.6c-14.6 18.1-150.8 3.5-150.8 3.5s2.2-3.8 6-11.3c0 0 128.1 16.1 137.2.8 9-15.2 1.4-40.7 1.4-40.7z"/><path class="st2" d="m252.3 538 110.4 6.3M267.6 525.5l4.8 13.9M276.6 525.5l4.9 13.9M299.5 526.2l6.3 14.6M309.2 526.9l6.3 14.6M328 528.3l7.6 14.6M339.1 528.3l7.7 15.3"/><path class="st0" d="m416.9 532.5 27.1-32 13.9 43.1z"/><path class="st3" d="m450.3 531.1-73-15.3c2.1.7 32.7 50.7 29.9 62.5-2.1 6.9-15.3 10.4-13.2 14.6 6.9 4.9 23.6 3.5 24.3-9.7 4.9 15.3 17.4 5.6 17.4 5.6 8.3 7.6 13.9-1.4 13.9-1.4 9 6.9 21.5.7 21.5.7l-27.1-39 6.3-18"/><path class="st3" d="m450.3 531.1-21.3-4.4s21.3 83 73.4 65.6-12.2-98.5-12.2-98.5l-5.8 14.5-34.1 22.8z"/><path class="st0" d="M452.4 543.6s22.9 52.8 50 38.2c27.1-14.6-11.1-61.1-11.1-61.1l-38.9 22.9z"/><path class="st11" d="M387.5 451.6s2.1 89.6-1.8 100.7c-2.1 7.4-4.9 15.7-15 15.3-10.1-.4-15.6-15-16.3-21.3-1.8-28.5 13.9-93.5 13.9-93.5l19.2-1.2z"/><path class="st0" d="M387.6 528.6c-.3 11.5-1 20.6-1.9 23.6-2.1 7.4-4.9 15.7-15 15.3s-15.6-14.9-16.3-21.1c-.3-5-.1-11.1.6-17.6l32.6-.2zM356.8 512.2c.8-5.4 1.7-11 2.6-16.3l28.5 1.4v16l-31.1-1.1zM444.7 422s6.8 2.2 17.5 5.8c-12 17.8-31.4 17.8-31.4 17.8l-9.7-13.2 23.6-10.4z"/><path class="st11" d="M383.6 447s7.6 13.9 22.2 11.1c0 0-6.3 23.6 7.6 35.4 13.9 11.8 28.5 7.6 28.5 7.6s-6.9 24.3 3.5 37.5 25.7 7.6 25.7 7.6 13.9 18.8 20.1 14.6-1.4-26.4-1.4-26.4 7.6-16-1.4-29.9c-9-13.9-22.9-13.9-22.9-13.9s6.3-23.6-6.9-33.4c-13.2-9.7-22.2-9-22.2-9s10.4-13.2 3.5-24.3c-7-10.9-56.3 23.1-56.3 23.1z"/><circle class="st2" cx="436.4" cy="475.5" r="14.6"/><circle class="st2" cx="436.8" cy="475.2" r="5.3"/><circle class="st2" cx="467.7" cy="520.7" r="15.3"/><circle class="st2" cx="467.7" cy="521.4" r="5.6"/><path class="st8" d="M389.8 441.9s61.8 1.4 76.2-41.7c-13.2-1.1-78.2-37.5-85.9-36.5-7.6.9 9.7 78.2 9.7 78.2z"/><path class="st5" d="M387.1 428.9s48.6 6 69.3-31.7c-22.5-8.8-69.8-34.6-76.3-33.6-5.8.9 2.5 43.9 7 65.3z"/><path class="st11" d="M383.7 411.9c40.2 3.5 57.3-21.3 57.3-21.3-23.9-11.1-55.6-27.7-60.9-27-4.4.6-.5 26.4 3.6 48.3z"/><path class="st0" d="M381.1 397.4c1.1 0 37.5 3.1 45.2-13.6-20.7-10-42.1-20.7-46.3-20-3.4.3-1.7 16.2 1.1 33.6z"/><path class="st2" d="M379.8 403.7c36.5 6 53.6-14.5 53.6-14.5M386.1 421c45.9 4.6 63.5-26.4 63.5-26.4"/><path class="st11" d="M358.6 442.1c-8.3-25.4-1.7-90 3.5-95.2 4.7-4.7 14.6-6 18.1 1.1 3.5 7.1 14.6 100.1 9.4 104.9-1.8 1.5-22.7 14.7-31-10.8z"/><path class="st0" d="M358.6 442.1c-1.9-6.1-3.2-14.6-3.8-23.9l34.6-1.8c1.5 18.8 2.1 34.5 0 36.4-1.6 1.6-22.5 14.8-30.8-10.7zM354.4 405.6c0-4.4 0-8.9.3-13.2-1-.3 32.4-.7 32.4-.7.6 4.4 1 9 1.4 13.5 0-1.3-34.1.4-34.1.4z"/><circle class="st11" cx="328.7" cy="403.9" r="24.7"/><path class="st2" d="M330.1 400.5c-14.3-.4-19.7-13.1-19.7-13.1 4.4-5 11-8.1 18.3-8.1 8.9 0 16.7 4.7 21 11.7-.9.1-5.3 9.9-19.6 9.5z"/><path class="st2" d="M330.2 389.9c-7.4-.8-11.7-8.3-11.7-8.3 3.1-1.4 6.5-2.2 10.1-2.2 5.1 0 10 1.7 14 4.3.1-.1-5 7-12.4 6.2zM310.4 404.6l-1.4 13.6M317.6 407.8l-1 17.4M325.9 409.9l-.3 18.1M332.9 409.2l.4 18.4M339.1 407.1l1.4 17.7M344.7 403.9l3.2 14.6"/><ellipse class="st11" cx="319.7" cy="488.6" rx="28.9" ry="25.8"/><path class="st2" d="M321.3 484.9c-16.7-.4-23.1-13.8-23.1-13.8 5.3-5.3 12.9-8.5 21.4-8.5 10.4 0 19.5 4.9 24.6 12.2-.9.3-6.2 10.4-22.9 10.1z"/><path class="st2" d="M321.5 473.8c-8.8-1-13.6-8.8-13.6-8.8 3.6-1.5 7.6-2.4 12-2.4 6.1 0 11.7 1.7 16.4 4.6-.2 0-6.2 7.5-14.8 6.6zM298.1 489.3l-1.6 14.1M306.6 492.6l-1.1 18.2M316.5 494.7l-.4 19M324.5 494l.4 19.3M331.9 491.8l1.5 18.6M338.3 488.6l3.7 15.2"/><path class="st11" d="m710.6 708.3-32.7 1.1 1 10.4 35.1-1.4z"/><path class="st2" d="m684.4 718.7-.9-10M692.8 718.7l-1.7-10M699.7 717.6l-1.8-10.3M708.1 718l-3.1-11.1"/><path class="st0" d="M627.2 672.5c63.2-.7 83.4 35.9 83.4 35.9l-32.7 1.1-54.6-.4-10.8-19.5c.1-.1-48.5-16.4 14.7-17.1z"/><path class="st3" d="M625.4 664.5s60.4-8.3 61.6-6.9c1.1 1.4-.7 27.1.4 26.4 1.1-.7-60.2-11.5-60.2-11.5l-1.8-8z"/><path class="st11" d="M587.6 680.5c-1.8 2.1-1.8 28.2-1.8 28.2l37.9-3.9s3.2-25.7-1.4-28.9c-4.6-3.2-33 2.5-34.7 4.6z"/><path class="st2" d="M618.4 708.3s2.1-18.5-1.4-19.2c-3.5-.7-30.6.4-30.6.4"/><path class="st11" d="M583.7 704.1c-2.5 1.8-2.1 11.1-.7 12.9 1.4 1.8 93.1-4.2 94.5-4.9 1.4-.7-2.5-12.2-3.9-12.9-1.4-.7-87.4 3.2-89.9 4.9z"/><path class="st2" d="m596.2 716.3-2.5-12.2M604.5 716.3l-4.1-13.9M626.8 714.9l-4.5-13.6M634.8 714.5l-3.9-13.5M657.8 713.1l-4.9-12.8M664.7 712.8l-5.3-12.9"/><path class="st0" d="M580.9 668c-1.4 2.5-.4 11.8 2.1 14.3s45.2-3.2 45.9-6.9c.7-3.8-2.8-12.9-6.3-13.9s-40.3 4.1-41.7 6.5z"/><path class="st5" d="M667.3 660s18.5-3.9 19.6-2.5c1.1 1.4-.7 27.1.4 26.4 1.1-.7-19.9-3.5-19.9-3.5V660h-.1z"/><path class="st0" d="M661.9 658.2c-1.8 1.1-.7 19.5.4 20.8 1.1 1.4 14.6 3.2 14.6 3.2s1.4-25-.4-25.7c-1.8-.6-12.9.8-14.6 1.7z"/><circle class="st11" cx="698.3" cy="670" r="12.2"/><circle class="st2" cx="697.8" cy="669.9" r="5"/><path class="st11" d="m570.5 730.5-32 3.7 1.4 7.8 34.8-3.2z"/><path class="st2" d="m545.2 740.9-1.4-9.7M551.7 740.9l-.9-9.3M558.7 739.9l-1.4-9M566 738.6l-2-8.8"/><path class="st0" d="M477.4 699.5c76.4-5.1 93.1 31 93.1 31l-32 3.8c-1-7.9-6.9-6.9-6.9-6.9l-72.7 4.6 1-33.4c-.2-.1-58.9 5.9 17.5.9z"/><path class="st3" d="m477.1 690.6 56.6-5.5-1.4 19.7-54.9-5.3z"/><path class="st5" d="m514.8 686.9 18.9-1.8-1.4 19.7-17.8-1.7z"/><path class="st0" d="M507 685.1c-1.1.7-2.1 17.1-1.1 18.5 1 1.4 14.6 1.9 14.6 1.9l.7-21.3c0 .2-13.2.2-14.2.9z"/><circle class="st11" cx="544.1" cy="694.8" r="12.9"/><circle class="st2" cx="543.1" cy="695.1" r="4.6"/><path class="st11" d="M426.9 701.7c-2.4 2.4-8.8 30.2-8.8 30.2l15.3 4.2 38.5-6.9-.4-32.9c-.1-.1-42.3 3.2-44.6 5.4z"/><path class="st2" d="M457.9 735.1s1-18.5-.4-20.4c-1.4-1.8-34.3 0-34.3 0"/><path class="st0" d="M428.8 691.2c-4.6 2.4-7.4 12.5-3.2 15.3 4.2 2.8 46.3-2.8 51.8-6.9 5.6-4.2-1.4-12.5-4.6-14.3-3.3-2.1-39.5 3.5-44 5.9z"/><path class="st11" d="M417.2 730.9c-2.4 1.4-6 11.5-4.6 13.5 1.4 1.8 119.9-10.1 120.5-12.1.6-1.9-.4-8.3-4.6-9.7-4.1-1.4-109.1 6.9-111.3 8.3z"/><path class="st2" d="m513.2 734.4-3.4-10.4M504.8 734.7l-2-9.8M485 737.9l-1.6-11.6M477.4 739.5l-1.8-13.2M443.6 742.6l-1.4-13.1M432.2 743.7l-.7-14.2"/><path class="st11" d="M207.1 556.8s-10.4-7.6-14.6-5.6-13.2 28.5-10.4 30.6c2.8 2.1 16 2.8 16 2.8l9-27.8z"/><path class="st2" d="m188.8 557.8 8.9 4.1M185.2 567.9l10.5 4.6"/><path class="st5" d="M277.3 579.7c-5.6-5.6-72.3-29.2-76.4-24.3-4.2 4.9-10.4 26.4-10.4 26.4l1.4 38.2 42.4 6.3s-7.6 4.2-4.2 11.8c5.6 10.4 34-5.6 34.7-15.3 4.2 2.1 14.6-2.1 16-6.9s2-30.6-3.5-36.2z"/><path class="st2" d="M221.7 603.6c5.1 9.3 47.2-1.4 43.1 19.2M253.4 578.6l15.1 5M222.1 568.3l18.2 6M253.1 586.1l14 4.5M217.5 574.9l19.8 6.2M250 594l13 4.5M224.5 585l14.6 5.1M224.1 594.3l15.2 4.3"/><circle class="st6" cx="217.1" cy="596.7" r="11.1"/><path class="st7" d="M223.9 587.9c2.6 2.1 4.2 5.1 4.2 8.8 0 6.1-5 11.1-11.1 11.1-1.4 0-2.6-.3-3.8-.7l10.7-19.2z"/><circle class="st2" cx="216.8" cy="596.4" r="3.9"/><circle class="st2" cx="217.1" cy="596.7" r="11.1"/><path class="st3" d="M239.1 626.3c-14.2-4.6-25.4 2.4-42 .4-15.6-1.8-25.7-6.9-27.8-5.1-4.2 3.8 1 7.4 1.7 12.9-13.2-2.4-21.1-19-16.7-31.3 4.4-12.2 26.4-13.9 26.4-13.9s-7.6-5.3-.7-10.4c4.2-2.4 12.9-.4 13.9 2.8 1 3.2-3.8 15.3-.7 27.8 4.4 15.3 36.8 5.6 45.2 4.2 8.3-1.5 8.3 15.4.7 12.6z"/><path class="st2" d="M180.7 589.4c3.5 2.1 6.7-.7 6.7-.7"/><path class="st11" d="M673.3 427.1s23.6 107 27.8 107.4c4.2.4 10.1-99.1 10.1-99.1l-37.9-8.3z"/><path class="st0" d="M684.6 476.2c6.7 28.2 14.3 58.1 16.5 58.4 2.4.3 5.3-30.6 7.4-57.9"/><path class="st14" d="m692.8 479.4-1.8-14.7M699.3 479.4v-14.3"/><path class="st11" d="M694.6 431.7s22.2 103.8 27.8 103.8c5.6 0 6.9-107 6.9-107l-34.7 3.2z"/><path class="st0" d="M704.3 474.9c6.7 28.5 15 60.6 18.1 60.6 3.1 0 4.9-31.8 5.8-60.7"/><path class="st14" d="m713.6 479.4-3.5-15M720.3 477.6l.3-14.2"/><path class="st11" d="M644.6 432.1s22.2 110.2 26.4 110.2 5.6-110.2 5.6-110.2h-32z"/><path class="st0" d="M653.5 474.8c6.7 31 15.1 67.7 17.5 67.7s3.9-37 4.7-68.1"/><path class="st14" d="m661.5 477.6-2.1-15.3M668.7 479.9l-.5-16.2"/><path class="st0" d="M623.3 111.7 643.2 239l21.8-3.6-17.7-127.9zM667.8 116.3l5.5 111.2 20.9 1.3 1.8-113.5zM713.6 113.5 699.7 232l21.8 3.8 17.1-119.9z"/><path class="st3" d="m632.7 172.3 10.5 66.7 21.8-3.6-9.3-67.7zM670.4 168.7l2.9 58.8 20.9 1.3.9-60.1zM707.6 163.9l-7.9 68.1 21.8 3.8 10.2-70.9z"/><circle class="st11" cx="611.9" cy="240.7" r="16"/><circle class="st11" cx="745.3" cy="240.7" r="16"/><path class="st15" d="M610.4 233c-3.8 1-5 1-5 7.6 0 6.4 4.6 7.2 7.4 8.1 2.8.8 1.7 7.9-.7 7.9-8.9 0-16-7.1-16-16s7.1-16 16-16c2 .1 1.9 7.4-1.7 8.4zM747 233c3.8 1 5 1 5 7.6 0 6.4-4.6 7.2-7.4 8.1-2.8.8-1.7 7.9.7 7.9 8.9 0 16-7.1 16-16s-7.1-16-16-16c-2.2.1-2.1 7.4 1.7 8.4z"/><path class="st11" d="M646.5 332.6s-19.5-88-19-93.1 12.9-10.7 15.7-2.4c1-9.3 18.1-8.8 19.5-3.8.4-6 21.8-11.1 24-2.4 1.4-7.9 19-7.4 20.8 3.2 3.2-8.3 20.4-6.5 21.3 3.2.8 9.7-23.5 106.7-22.1 112.3 1.4 5.7-60.2-17-60.2-17z"/><path class="st15" d="M679.9 270.5c-30.2.4-45.6 5.6-45.6 5.6-.4-2.2-.8-4.3-1.4-6.4 0 0 40.9-12.5 91-2.9-.6 2.4-1.1 4.9-1.7 7.5 0-.2-12.3-4.2-42.3-3.8zM629.7 253c-1.4-7.4-2.2-12.5-2.2-13.6.4-5.1 12.9-10.7 15.7-2.4 1-9.3 18.1-8.8 19.5-3.8.4-6 21.8-11.1 24-2.4 1.4-7.9 19-7.4 20.8 3.2 3.2-8.3 20.4-6.5 21.3 3.2.1 1.8-.6 6.5-1.7 13.1-45.4-10.8-97.4 2.7-97.4 2.7z"/><path class="st2" d="m704.3 291.4 3.3-57M685.4 293.2l1.4-62M667.3 294.6l-4.7-61.2M652.1 299.3l-8.9-62.1"/><path class="st3" d="M680.3 290c25-1 38.5.4 38.5.4-6.3 27.8-12.8 56.4-12.1 59.3 1.4 5.6-60.2-17.1-60.2-17.1s-4-18.2-8.3-38.5c0 .1 17.1-3.1 42.1-4.1z"/><path class="st0" d="M715.1 306.2c-4.9 22-9 41.1-8.5 43.5 1.4 5.6-60.2-17.1-60.2-17.1s-1.9-8.9-4.7-21.3c31.6-12.6 73.4-5.1 73.4-5.1z"/><circle class="st3" cx="579.2" cy="402.3" r="9.4"/><circle class="st3" cx="604.3" cy="449.5" r="10.1"/><path class="st5" d="M622.6 401.8s-10.4-14.6-16.7-16c-6.3-1.4-22.9 7.6-19.5 16 3.5 8.3 25 47.9 32 48.6 6.9.7 24.3-7.6 21.5-16s-17.3-32.6-17.3-32.6z"/><path class="st2" d="M616.3 405.3s-9.7-16-17.4-10.4c-7.6 5.6 16.7 51.4 28.5 45.2 6.3-3.5-.7-16.7-.7-16.7"/><path class="st8" d="M606.6 404.6c.7-4.9 22.2-10.4 22.2-14.6 0-4.2-4.2-38.9-1.4-42.4 2.8-3.5 13.9-15.3 18.8-17.4s52.8-18.8 54.2-16c5.6 16-22.9 25.7-22.9 25.7l-13.9 67.4s-27.1 21.5-36.8 24.3c-9.8 2.9-20.9-22.1-20.2-27z"/><path class="st11" d="M676.5 319.9c12.1-3.8 23.2-6.9 23.9-5.6.4 1.4.7 2.6.7 3.9-5.5 7.9-26.4 8.9-24.6 1.7z"/><path class="st3" d="M662.2 438.7c-1.8-2.4-4.9-53.8-3.2-54.1 9.2-1.5 33.8-6.8 41.4-1.5 9 6.3 6.9 24.3 6.9 24.3s1.1 28.5-.3 30.3c-1.3 1.9-43 3.3-44.8 1z"/><path class="st2" d="m673.7 439.6-2.2-60.7M691 438.3l-2-61.2"/><path class="st8" d="M693.5 332.4c6.9.7 21.5 20.1 25.7 28.5 4.2 8.3 5.6 38.9-11.8 46.6 0 0 2.1-18.1-6.9-24.3-9-6.3-42 2.4-44.7 1.8-2.8-.4-3.8-8.3-1.1-9.4-2.5-.7-4.4-11.4-1.4-11.8-2.5 0-4.9-10.1-2.1-10.4-1.8.3-3.8-4.9-2.1-7.6s37.4-14.1 44.4-13.4z"/><path class="st11" d="M668.6 383c-6.7 1.1-12 2.2-12.9 2.1-2.8-.4-3.8-8.3-1.1-9.4-2.5-.7-4.4-11.4-1.4-11.8-2.5 0-4.9-10.1-2.1-10.4-1.8.3-3.8-4.9-2.1-7.6.6-1.1 6.1-3.3 13.1-5.6l6.5 42.7z"/><path class="st2" d="M654.6 375.4c-2.5-.7 30.3-5.8 31.7-5.8M653.2 363.6c-2.5 0 32.2-3.8 32.2-3.8M651.1 353.2c-1.8.3 30.2-4.9 30.2-4.9"/><path class="st3" d="m754.3 82 57-11.6 1 47.7-48.2-13.3z"/><path class="st2" d="M810.5 80.6 793.2 82M810.6 89.6l-16.7.4M810.2 100l-16.7-1.4M810.9 109.8l-17-3.5"/><path class="st11" d="M734 81.1c1.4-4.6 32.9-9.3 33.8-6 1 3.2 2.8 34.3 1 37.1-1.8 2.8-28.2-1-30.6-3.2-2.3-2.4-5.5-23.3-4.2-27.9z"/><path class="st2" d="M769.2 107.5h-11.1M768.8 99.6h-9.3M767.8 91.3l-8.7.4M767.4 82l-8.3 1.4"/><path class="st0" d="M734 81.1c.8-2.9 13.9-5.8 23.5-6.8 3.8 2.2 4.3 25.3 3.3 38.8-8.6-.4-21.1-2.6-22.7-4.2-2.2-2.3-5.4-23.2-4.1-27.8z"/><circle class="st5" cx="726.1" cy="97.2" r="19.5"/><path class="st2" d="M710.3 108.5c-2.2-3.2-3.6-7.1-3.6-11.3 0-2.9.7-5.8 1.8-8.3 0 0 8.3-.4 9.3 7.4 1 7.8-7.2 12.8-7.5 12.2zM726.8 84.7l11.8-2.2M730.3 91.3l13.6-1.7M729.3 98.9l15.6 1.1M727.5 107.5l12.5 1.8"/><path class="st3" d="m587.6 98.6-55.7-3.4 7.5 47.1 49.2-20z"/><path class="st2" d="m534.6 105 17.1-.5M536 115.6l16.6-2.5M537.1 124.8l17.4-3.1M539.1 135.2l16.7-6.3"/><path class="st11" d="M619.1 92.7c-1.4-2.8-29.9-2.1-39.6-1.3 0 0 .7 23.5 6.7 40.2 8.3-1.9 39-17.6 40.3-19.5 1.9-2.6-5.1-15.1-7.4-19.4z"/><path class="st2" d="m580.2 97.2 17.7-.8M581.2 107.5l15.3-2.7M583 117.3l17.1-4.8M584.8 125l15.8-5.9"/><path class="st0" d="M619.1 92.7c-1-1.9-15.1-2.2-26.8-1.8-.4 12.9 6.4 36 6.4 36 12-5.4 27-13.3 27.9-14.6 1.8-2.8-5.2-15.3-7.5-19.6z"/><circle class="st8" cx="634.8" cy="98.9" r="19.5"/><path class="st2" d="M652.5 107.1c1.7-3.5 2.2-7.5 1.5-11.7-.6-2.9-1.7-5.6-3.3-7.9 0 0-8.3 1-7.8 8.9s9.3 11.3 9.6 10.7zM631.4 87.8l-9.8-.3M632.2 94.9l-14.7 1.2M633.7 102.8l-16.5 2.9M635.1 110.7l-11.4 2.5M343.6 258.4l10.1 39.9M350.5 254.8l11.1 38.4M356.1 249.7c8.3 17.1 13.9 42.7 13.9 42.7M363.4 247.9l6.6 13.9M370.8 243.2l6.5 12.5M380.1 236.8l6 12.5M387.1 231.6l7.3 12.9M395.8 228.8l7 12.5M406.1 224.3l6 11.9M414.4 219.1l5.6 11.5M423.2 214.9l5.6 12.1M430.6 212.2l6.9 10.7M446.4 204.8l7.4 10.6M438.5 207.6l7.3 10.5M453.3 202l17.6 21.7M461.1 198.3l16.7 20.8M468.1 194.5l16.7 20.9M503.5 487.3l-5.5 6.5M507.5 495.9l-5.1 4.6M511.2 504l-4.4 3.9M515.3 511.9l-4.8 3.2M520 518.9l-5.4 3.2"/></svg>