<svg version="1.1" id="Calque_1" xmlns="http://www.w3.org/2000/svg" x="0" y="0" viewBox="0 0 900 900" style="enable-background:new 0 0 900 900" xml:space="preserve"><style>.st0,.st1,.st2,.st3,.st4{fill:#004859;stroke:#000;stroke-width:5.4579;stroke-linecap:round;stroke-linejoin:round;stroke-miterlimit:10}.st1,.st2,.st3,.st4{fill:#fff}.st2,.st3,.st4{fill:red}.st3,.st4{fill:#005cff}.st4{fill:#00337c}.st5{fill:#006787}.st5,.st6{stroke:#000;stroke-width:5.4579;stroke-linecap:round;stroke-linejoin:round;stroke-miterlimit:10}.st6,.st7{fill:none}</style><path class="st0" d="m219.6 461.5 13.7 150.6 24 19.6 31.6-3.2 11 31.6 46.9 5.5 46.9-9.8 37.2-20.8 6.5-46.9-58.1-87.9-107.8-40.9zM219.6 603.4l-32.2 13.1-60 14.2s4.7 8.7 10.1 17.6l88.5-26.4-6.4-18.5zM143.9 658.2c3.6 5.2 6.9 9.1 8.6 9.1 5.5 0 80.8-24 80.8-24l-4.1-12.2-85.3 27.1z"/><path class="st0" d="m226 621.9-88.5 26.4c2.1 3.4 4.3 6.9 6.4 9.9l85.3-27.1-3.2-9.2z"/><path class="st1" d="m139.3 582.9-12 35.1 16.6-1.7 4.3-33.1c-3-.1-6-.2-8.9-.3zM111.8 580.6l-15.1 20.9 6.8 8.6 17.4-27.5-17.4 27.5 7.5 9.6 19.6-37.1-19.6 37.1 16.3-1.7 12-35.1c-11.2-.5-21.7-1.2-27.5-2.3z"/><path class="st1" d="M111 580.4c-15.3-3.3-19.6 14.2-19.6 14.2l5.4 6.9 15.1-20.9c-.3 0-.6-.1-.9-.2zM148.2 583.2l-4.3 33.1 11.1-1.2 3.2-31.7c-3.2 0-6.6-.1-10-.2zM183.1 583.7s-11.1 0-24.8-.3l-3.2 31.7 28-2.9v-28.5h0z"/><path class="st2" d="M121.4 572.8s-9.3-1.1-10.4 7.6c5.5 3.3 56.8 8.7 58.9 13.1 2.2 4.4 0 19.6 0 19.6L183 612l13.1-24-27.3-22.9-47.4 7.7z"/><path class="st3" d="m191.3 516 .8-30.5-30.8-24.1s-25.1 12-28.9 18.6c-3.8 6.5-5.5 15.3-5.5 21.8s9.3 6.5 8.2 16.4-13.1 16.4-15.3 27.3c-2.2 10.9 5.5 15.3 5.5 15.3s51.5-1.4 77.5 8.5v-35.7L191.3 516z"/><path class="st4" d="m206 496.4-13.9-10.9-.8 30.5 11.5 17.5v35.7c6.1 2.3 10.8 5.3 13.1 9 4.8 5.2 8.9 8.1 12.2 9.6l9.7-18.3-31.8-73.1z"/><path class="st1" d="M144.9 513.9c-4.4 7.6 22.9 19.6 34.9 7.6-10.9-9.8-30.6-15.3-34.9-7.6z"/><circle class="st2" cx="161.8" cy="519.9" r="6.5"/><path class="st5" d="M155.8 547.7c-2.2 3.3-1.1 18.6-1.1 18.6l13.2 2 .7-21.1c-6.4-.8-11.9-.8-12.8.5z"/><path class="st4" d="M189.6 553.7c-.9-1.7-6-3.5-12-4.9v20.9l13.1 2s1.1-13.6-1.1-18z"/><path class="st0" d="m168.6 547.3-.7 21.1 9.7 1.5v-21c-2.9-.7-6-1.3-9-1.6z"/><path class="st4" d="M215.8 578.3c-12-19.6-90.6-17.5-90.6-17.5s-9.8 6.5-3.8 12c6 5.5 44.2 0 54 8.7 9.8 8.7 7.6 30.6 7.6 30.6l32.7-1.1 12.2-23.1c-3.2-1.6-7.2-4.5-12.1-9.6z"/><path class="st5" d="M707 434.2c-7.6-1.1-135.4 85.7-299.6 107.5l-12.3-.2 41.2 56.4 30.6 19.6 64.4-13.1.2.1c107.4-41.1 177.9-75.2 221.9-99.3-8-14-39.7-70-46.4-71z"/><path class="st3" d="M453.8 548.8s6.2-15.5 9.1-17.8c2.9-2.3 10.5 2.6 10.5 2.6s5.5-5.5 12 0c7.6-4.4 17.5-1.1 17.5-1.1l12 4.4s-14.7 7.6-18 12c-3.3 4.4 2.7 7.6 7.1 6.5 4.4-1.1 22.9-13.1 22.9-13.1l12 10.9s-28.9 8.7-32.2 10.9c-3.3 2.2-.5 14.2-.5 14.2s7.3-16.5 49.5-.1c8.4 19.8-14.6 21.9-14.6 21.9l-83 6.5-4.3-57.8z"/><path class="st6" d="M473.4 533.5c-5.5 3.3-6.5 6.5-6.5 6.5M485.4 533.5c-5.5 3.3-7.6 10.9-7.6 10.9M502.9 532.4c-12 4.4-15.3 15.3-15.3 15.3"/><path class="st4" d="M428.7 547.7s30-6 38.8 8.2c8.7 14.2 7.6 31.1 7.6 31.1l-16.9 19.6-21.8-4.4-7.7-54.5z"/><path class="st1" d="M438.5 555.3s16.4 0 21.3 11.5 2.2 23.5 2.2 23.5l-25.7 7.6 2.2-42.6z"/><path class="st3" d="M633.9 494.2s-7.6-28.4 17.5-29.5c5.5-5.5 32.7-22.9 40.4-21.8-2.2 8.7-7.1 16.4-7.1 16.4s12.6-2.7 9.3 8.2c-3.3 10.9-21.8 13.6-25.1 18-3.3 4.4-3.8 7.6 3.3 7.6s30.6-14.2 36-18.6c5.5-4.4 4.4-9.8 8.7-15.3 3.3 5.5 2.2 17.5 2.2 17.5s12 1.1 13.1 15.3c-5.5-2.2-12-4.4-20.7-2.2s-37.6 14.2-34.9 16.4c2.7 2.2 33.8 0 42.6 2.2 8.7 2.2 9.8 9.8 9.8 9.8l-87.3 40.4-14.7-37.1 6.9-27.3z"/><path class="st6" d="M653.5 484.4c2.2-8.7 26.2-16.4 31.1-25.1M643.7 478.9s3.3-8.7 7.6-14.2M679.1 517.1c22.4-3.3 29-9.8 29-9.8M672.1 527c43.7-5.5 48.6-18.6 48.6-18.6M667.7 534.6s17.5 1.6 31.7-4.4"/><path class="st4" d="M624.1 489.3c-7.6 2.2-10.9 7.1-14.2 13.6-3.3 6.5 5.5 9.8 7.6 6.5s10.9 28.4 26.2 37.1c24-5.5 20.2-30.6 11.5-44.8-8.8-14-23.5-14.6-31.1-12.4z"/><ellipse class="st1" cx="632.8" cy="521" rx="18" ry="19.6"/><circle class="st2" cx="633.3" cy="520.4" r="7.1"/><path class="st0" d="M810.1 470.4c-20.5 14.8-96.6 64.3-278.7 134.1l29.2 8.7c148.3-49.9 235.2-108.8 258.8-126.1-2.5-4.9-5.6-10.6-9.3-16.7z"/><circle class="st5" cx="805.3" cy="487.1" r="10.9"/><circle class="st5" cx="775.8" cy="504" r="10.9"/><circle class="st5" cx="748.5" cy="519.3" r="10.9"/><circle class="st5" cx="722.3" cy="533.5" r="10.9"/><circle class="st5" cx="698.3" cy="546.6" r="10.9"/><circle class="st5" cx="667.7" cy="558.6" r="10.9"/><circle class="st5" cx="641.5" cy="569.5" r="10.9"/><circle class="st5" cx="612.1" cy="581.5" r="10.9"/><circle class="st4" cx="545.5" cy="384" r="9.8"/><path class="st4" d="M583.1 394.9s-10.9-24-10.9-29.5 12.6-10.9 16.9-8.7 8.7 16.4 8.7 16.4l-14.7 21.8zM621.9 353.4s-8.2-8.2-9.3-12.6c-1.1-4.4 12.6-12.6 15.8-10.4 3.3 2.2 10.9 16.4 10.9 16.4l-17.4 6.6zM671 327.2l-15.3 4.4s-7.6-9.8-10.9-15.3 13.1-16.4 18.6-12c5.4 4.3 7.6 22.9 7.6 22.9z"/><path class="st3" d="M636.1 409.1c-1.1-20.7 34.9-29.5 51.3-36s27.3-31.7 22.9-50.2c-9.8 9.8-7.6 30.6-45.8 31.7 15.3-13.1 13.1-30.6-1.1-50.2-4.4 24-15.3 40.4-36 44.8-20.7 4.4-42.6 22.9-45.8 45.8-15.3 2.2-20.7-7.6-28.4-9.8-7.6-2.2-14.7 10.4-10.4 16.9 3.8 3.8 10.4 2.7 10.4 2.7l16.4 2.2 16.4 33.8c-.1-.1 51.2-11 50.1-31.7z"/><path class="st6" d="M664.5 354.5c-6.5 6.5-34.9 15.3-40.4 27.3"/><path class="st6" d="M663.4 304.3c9.8 46.9-30.6 50.2-51.3 72-20.7 21.8-7.6 49.1-7.6 49.1"/><path class="st6" d="M616.4 420s1.1-31.7 39.3-44.8c38.2-13.1 46.9-20.7 52.4-28.4"/><path class="st0" d="M137.2 416.7s-12.6 0-11.5-7.6 12.6-14.7 21.3-9.3c8.7 5.5 9.8 25.7 9.8 25.7l-1.1 8.7h-15.3l-3.2-17.5z"/><path class="st5" d="M134.5 429.8c-8.7 0-2.7-22.9 6-20.7s2.7 20.7-6 20.7z"/><path class="st4" d="M156.9 425.4s-26.2-3.3-33.8 0c-4.3 1.9-6.2 10-7 16.8l35.9 5.7 4.9-22.5z"/><path class="st3" d="M116 442.2c-.6 5.1-.6 9.4-.6 9.4l6.5 13.1h26.2l3.7-16.8-35.8-5.7z"/><path class="st5" d="m144.9 456-29.5-4.4s-8.7 10.9-3.3 20.7c5.5 9.8 15.3 5.5 20.7 1.1 5.5-4.3 12.1-17.4 12.1-17.4z"/><path class="st3" d="M144.9 456c-7.6 1.1-15.8 19.6-12.6 24 3.3 4.4 10.4 1.1 10.4 1.1l14.2-12s-4.4-14.2-12-13.1z"/><path class="st3" d="M147.6 465.8s-7.6 10.9-5.5 16.4c2.2 5.5 15.3 3.3 15.3 3.3l-9.8-19.7z"/><path class="st6" d="M251.8 623c28.4-6.5 41.5-20.7 41.5-20.7l-30.6-14.2-12 5.5c0-.1-8.7 7.6 1.1 29.4z"/><path class="st3" d="M721.2 394.9c3.9 0 50.5 76.2 61.2 93.6 13.5-8.2 22.4-14.3 27.7-18.1-27.2-45.4-82.4-114.8-82.4-114.8S597.9 446.2 422.1 480c2.8 10.4 4.2 21.2 4.9 27.7l2.7.7C624.1 456 716.8 394.9 721.2 394.9z"/><path class="st4" d="M768.5 409.3 755.6 431l6 7.8 11.7-22.8c-1.6-2.3-3.2-4.6-4.8-6.7z"/><path class="st4" d="m773.3 415.9-11.7 22.8 6.9 8.8 11.1-22.9-6.3-8.7zM791.7 441.9c-1.9-2.7-3.8-5.5-5.7-8.2l-11.2 21.9 5.4 7 11.5-20.7zM779.6 424.7l-11.1 22.9 6.2 8 11.2-21.9c-2-3-4.1-6-6.3-9zM709.5 367.4l-1.1 18.1 7.6-.2 2-23.3c-2.4 1.5-5.2 3.3-8.5 5.4zM701.2 372.4l-.7 13.2 7.9-.2 1.1-18.1c-2.5 1.7-5.3 3.3-8.3 5.1zM727.8 355.6s-3.3 2.3-9.7 6.4l-2.1 23.4 7.8-.2 4.2-29.3c-.1-.2-.2-.3-.2-.3zM736 366.1c-4.3-5.5-7.1-9.1-8-10.2l-4.2 29.3 7.2-.1 5-19zM626.7 412l.6 16.8 10.9-5.1v-17.3c-3.7 1.8-7.5 3.7-11.5 5.6zM638.3 406.4v17.2l9.6-4.5-.5-17.3c-3 1.6-6 3.1-9.1 4.6zM672.1 408l-1.4-18.3c-3.3 1.8-6.8 3.6-10.3 5.5l.6 18 11.1-5.2z"/><path class="st4" d="M660.4 395.2c-4.2 2.2-8.6 4.4-13.1 6.7l.5 17.3 13.1-6.1-.5-17.9zM470.2 469.2V484l10.9-2.8v-14.9c-3.6.9-7.3 1.9-10.9 2.9zM461.6 471.3l-1.3 15.3 9.8-2.6v-14.9c-2.8.8-5.6 1.5-8.5 2.2zM481.1 466.3v14.9l11.1-2.9.4-15.2c-3.8 1-7.7 2.1-11.5 3.2z"/><path class="st4" d="M505 459.3c-4.1 1.3-8.3 2.5-12.4 3.7l-.4 15.2 14.1-3.7-1.3-15.2zM402.9 558.5 383 577.7l3.9 6.7 26.8-18.3c-3.2-3.1-6.9-5.6-10.8-7.6zM392.8 554.8l-13.2 17 3.4 5.9 19.9-19.2c-3.2-1.6-6.6-2.8-10.1-3.7z"/><path class="st4" d="m413.7 566.1-26.8 18.3 4.6 8 30.2-15.4c-2-4.1-4.8-7.8-8-10.9z"/><path class="st4" d="m391.5 592.5 4.4 7.7 29.9-8.7c-.5-5.3-1.9-10.2-4.1-14.5l-30.2 15.5zM364.3 643.8l-1.8 12.8c5.1-.9 10.1-2 14.9-3.4l-8.7-12.7-4.4 3.3z"/><path class="st4" d="m368.7 640.5 8.7 12.7c4.7-1.3 9.2-2.9 13.4-4.7l-14-14-8.1 6zM412.1 634.1l-22.8-8.9-5.4 4 17.3 13.8c4.3-2.6 7.9-5.6 10.9-8.9z"/><path class="st4" d="m376.8 634.5 14 14c3.8-1.6 7.3-3.4 10.5-5.5L384 629.2l-7.2 5.3z"/><ellipse class="st1" cx="430.9" cy="451.6" rx="29.5" ry="25.7"/><circle class="st2" cx="430.9" cy="451.6" r="10.9"/><path class="st4" d="M278.6 494.2H248c.5 3.8 1.1 7.8 2 11.5l29-2.6-.4-8.9zM278.2 483.4l-31.2.8c.3 3 .6 6.4 1.1 10h30.6l-.5-10.8z"/><path class="st4" d="m278 478.9-6.5-19.6-25.1 15.3s.2 3.9.6 9.6l31.2-.8-.2-4.5zM252.8 515.3c1.6 4.1 3.7 7.1 6.2 7.9 10.9 3.3 20.7-2.7 20.7-2.7l-.3-7.8-26.6 2.6z"/><path class="st4" d="m279 503.2-29 2.6c.8 3.5 1.7 6.8 2.7 9.6l26.6-2.7-.3-9.5z"/><path class="st6" d="M421 565.2c2.2-6.5 17.5-18.6 21.8-17.5 4.4 1.1 3.3 8.7 3.3 8.7l-12.6 7.6c.1.1-8.1.1-12.5 1.2z"/><path class="st4" d="M447.2 567.9s7.6 7.1 8.7 24.6c11.5 13.1-5.5 15.3-5.5 15.3l-14.2-5.5-2.7-38.2 13.7 3.8z"/><path class="st1" d="M256.2 265c0-11.5-9.3-20.7-20.7-20.7s-20.7 9.3-20.7 20.7c0 2.3.4 4.5 1 6.5l40.3-4.1c0-.8.1-1.6.1-2.4zM315.1 239.9c0-11.5-9.3-20.7-20.7-20.7-11.5 0-20.7 9.3-20.7 20.7 0 2.3.4 4.5 1 6.5l40.3-4.1c.1-.8.1-1.6.1-2.4zM398.9 261.5c4.1-10.7-1.3-22.7-12-26.8-10.7-4.1-22.7 1.3-26.8 12-.8 2.1-1.3 4.3-1.4 6.4l39.1 10.5c.5-.6.9-1.4 1.1-2.1zM438.6 354.6c12.1 1 22.7-8 23.7-20s-8-22.7-20-23.7c-2.4-.2-4.7 0-7 .5l.8 42.9c.9.1 1.7.2 2.5.3zM414.9 423.6c9.7 6.4 22.8 3.8 29.1-5.9 6.4-9.7 3.8-22.8-5.9-29.1-1.9-1.3-4-2.2-6.1-2.8l-19 36.4c.6.5 1.3.9 1.9 1.4zM377.5 436.8c4.3 8.4 14.6 11.7 23 7.4s11.7-14.6 7.4-23c-.9-1.7-2-3.1-3.2-4.4L376.8 435c.1.6.4 1.2.7 1.8zM324.3 436.1c-3.4 10.6 2.4 21.9 13 25.4 10.6 3.4 21.9-2.4 25.4-13 .7-2.1 1-4.3 1-6.3l-38.5-8.1c-.4.6-.7 1.3-.9 2zM289.9 387.6c-10.7 3.1-16.9 14.3-13.8 24.9 3.1 10.7 14.3 16.9 24.9 13.8 2.1-.6 4.1-1.6 5.8-2.7L292 387.1c-.6.1-1.4.2-2.1.5z"/><circle class="st2" cx="235.5" cy="265" r="8.7"/><circle class="st2" cx="294.4" cy="239.9" r="8.7"/><circle class="st2" cx="379.6" cy="254.1" r="8.7"/><circle class="st2" cx="440.5" cy="332.7" r="9.2"/><circle class="st2" cx="426.5" cy="406" r="8.8"/><circle class="st2" cx="392.7" cy="429" r="7.2"/><circle class="st2" cx="343.5" cy="442.3" r="8.5"/><circle class="st2" cx="295.5" cy="406.9" r="8.5"/><path class="st4" d="M215.8 271.5c2.7 8.2 10.5 14.2 19.7 14.2 10.6 0 19.4-8 20.6-18.4l-40.3 4.2zM274.7 246.4c2.7 8.2 10.5 14.2 19.7 14.2 10.6 0 19.4-8 20.6-18.4l-40.3 4.2zM358.8 253.1c-.4 8.7 4.7 17 13.3 20.3 9.9 3.8 21-.5 25.8-9.8l-39.1-10.5zM435.3 311.4c-9 2.1-15.9 9.8-16.8 19.5-.9 11.2 6.8 21.2 17.6 23.4l-.8-42.9zM432.1 385.7c-8.5-2.3-17.9.9-23.1 8.7-5.9 9-4.1 21 4 27.7l19.1-36.4zM404.7 416.8c-5.1-5-13.1-6.4-19.8-3-7.8 4-11.2 13.3-8.1 21.3l27.9-18.3zM363.6 442.1c-.1-8.5-5.5-16.3-14-19-9.9-3.2-20.4 1.6-24.5 10.9l38.5 8.1zM306.9 423.5c7-4.8 10.4-13.6 8-22.2-2.9-9.9-12.8-15.9-22.8-14.2l14.8 36.4z"/><path class="st5" d="M332.2 351.7c.2-1 .4-1.6.4-1.6s-.2.6-.4 1.6c5.6 8.7 9.8 25 20 22.4 30.6-10.9 13.1-57.9-24-62.2-37.1-4.4-80.8 21.8-103.7 96.1l4.1 26.1c12.9-6.1 32.4-17.1 42.8-31.6 5.5-74.2 55.7-55.7 55.7-55.7 2 .7 3.6 2.5 5.1 4.9z"/><path class="st4" d="M340.8 331c-1.1-10.1-27.8-10.4-32.2-7.1-3.7 2.7-2 16.8-1.3 21.4 2.6-.4 5-.6 7.3-.5v-21.9 21.9c2.9.1 5.5.4 7.5.8l2.8-22.2-2.8 22.2c3.1.6 5 1.3 5 1.3.6.2 1.1.5 1.6.9l4.9-21.7-4.9 21.7c1.2.9 2.3 2.3 3.4 3.9.2-1 .2-1 0 0 .5.9 1.1 1.9 1.7 2.9 3.5-5.8 8-15.3 7-23.6z"/><path class="st0" d="M328.2 311.9c37.1 4.4 54.6 51.3 24 62.2-10.3 2.6-14.5-13.8-20-22.4-1.5 6.6-5.8 31.9 17.8 32.8 27.3 1.1 31.1-29.5 24.6-50.2-6.5-20.7-34.4-37.1-75.9-30.6-41.5 6.5-76.4 67.1-85.1 103.2l.7 32.3 1.5.5s5.3-1.9 12.9-5.5l-4.1-26.1c22.9-74.4 66.5-100.6 103.6-96.2z"/><path class="st5" d="M359.9 398.1C397 397 394.8 343.8 385 325c-9.8-18.8-44.8-44.8-95-29.5s-91.7 110.2-92.8 121.2l-2.7 16.1 19.8 6.3-.7-32.3c8.7-36 43.7-96.6 85.1-103.2 41.5-6.5 69.3 9.8 75.9 30.6 6.5 20.7 2.7 51.3-24.6 50.2-23.7-.9-19.4-26.2-17.8-32.8-1.5-2.4-3.2-4.2-5.1-4.9 0 0-4.2 2.5-9 6.7-.1 13.5 3.7 45.9 41.8 44.7z"/><path class="st3" d="m154.7 420 20.4 6.5 2.6-9.8c.9-2.3 1.9-4.7 2.9-7.3l-18.2-7.5c-5.1 11.1-7.7 18.1-7.7 18.1z"/><path class="st3" d="m162.3 402 18.2 7.5c1.5-3.7 3.2-7.5 5.1-11.5l-17.5-8.1c-2.2 4.4-4.1 8.5-5.8 12.1zM392.5 390.1l13.3 8.8a79 79 0 0 0 9.3-18.3l-16.8-5.1c-1.5 5.6-3.3 10.4-5.8 14.6zM193.7 344.8l13 14.5c3.5-5.6 7.3-11.2 11.2-16.8l-14.8-11.4c-3.2 4.6-6.4 9.2-9.4 13.7z"/><path class="st3" d="m184.9 358.8 15 11.8c2.2-3.8 4.4-7.5 6.8-11.3l-13-14.5c-3.1 4.7-6 9.4-8.8 14zM384 399.4l9.1 13.6c1.3-1 2.6-2.2 3.9-3.4 3.3-3.5 6.3-7.1 8.7-10.7l-13.3-8.8c-2.2 3.7-4.9 6.8-8.4 9.3zM168.1 389.9l17.5 8.1c2-4.3 4.1-8.6 6.4-13.1l-15.9-10.6c-3 5.5-5.6 10.8-8 15.6z"/><path class="st3" d="m176.1 374.2 15.9 10.6c2.5-4.7 5-9.4 7.8-14.3l-15-11.8c-3 5.4-6 10.6-8.7 15.5zM322.3 392.1l-12.2 11.4c3.2 6.2 7.4 11.5 12.7 15.2l8.1-18.7c-3.4-2.3-6.3-5-8.6-7.9zM315.9 381.3l-11.7 3.1c1 6.7 2.9 13.2 5.9 19l12.2-11.4c-2.7-3.3-4.8-6.9-6.4-10.7zM310.9 360.8c-4.3 5.2-7.7 11.5-7.3 18.2.1 1.8.3 3.6.5 5.3l11.7-3.1c-3.4-7.8-4.5-15.7-4.9-20.4zM370.6 405.2l5.8 17.5c5.6-2.1 11.2-5.3 16.6-9.7l-9.1-13.6c-3.5 2.6-7.9 4.5-13.3 5.8z"/><path class="st3" d="m356.8 406.9 1.6 19.7c5.8-.4 11.9-1.6 18-3.9l-5.8-17.5c-4 1-8.6 1.5-13.8 1.7zM356.6 406.9c-5.5 0-10.2-.7-14.5-1.9l-1.5 20.4c5.3 1 11.4 1.6 17.7 1.2l-1.6-19.7h-.1z"/><path class="st3" d="m330.9 399.9-8.1 18.7c1.4 1 2.8 1.8 4.4 2.5 3.6 1.6 8.2 3.2 13.6 4.3l1.5-20.4c-4.4-1.2-8.2-2.9-11.4-5.1zM401.2 360.5c-.8 5.5-1.7 10.4-2.9 15l16.8 5.1c2.1-6.1 3.3-12.2 3.9-18.1l-17.8-2zM367.8 272.2l-11 13.2c6.9 2.7 12.9 6 18 9.7l13.9-7.9c-5.5-5.2-12.5-10.5-20.9-15zM321 260.6l-1.4 16.4c.3.1.7.1 1 .1 5.5.5 10.7 1.3 15.6 2.3l5.6-16.6c-6.5-1.5-13.4-2.2-20.8-2.2z"/><path class="st3" d="M402.5 303.2c-2.3-3.7-6.9-9.8-13.8-16.1l-13.9 7.9c6.2 4.4 11.2 9.3 15.2 14.6l14.5-3.5c-.6-1-1.3-2-2-2.9zM341.8 262.7l-5.6 16.6c7.6 1.5 14.5 3.5 20.6 6l11-13.2c-7.6-4-16.2-7.3-26-9.4zM203.2 331.2l14.8 11.4c3.2-4.5 6.5-8.8 10-13.1L215.2 316c-4.2 4.9-8.2 10-12 15.2zM418.7 346.1l-16.3-2c.2 3.9 0 7.8-.5 11.5-.2 1.7-.5 3.3-.7 5l17.7 2c.5-5.7.4-11.2-.2-16.5zM414 325.3l-15.1.6c2.2 6 3.3 12.2 3.6 18.2l16.3 2c-.9-7.5-2.6-14.5-4.8-20.8z"/><path class="st3" d="m404.6 306.1-14.5 3.5c3.9 5.2 6.8 10.6 8.8 16.3l15.1-.6c-2.7-7.6-6.1-14.1-9.4-19.2zM225.8 304.2l10.9 15.1c3.2-3.5 6.5-7 10-10.2l-8-16.9c-4.5 3.7-8.8 7.8-12.9 12zM215.2 316l12.8 13.5c2.8-3.5 5.7-6.9 8.7-10.2l-10.9-15.1c-3.7 3.8-7.2 7.7-10.6 11.8zM299.3 262.7v15.6c6.7-1.4 13.4-1.9 20.3-1.4l1.4-16.4c-6.8.1-14 .7-21.7 2.2z"/><path class="st3" d="m238.6 292.2 8 16.9c4.7-4.5 9.6-8.7 14.6-12.4l-6.6-16.5c-5.5 3.6-10.8 7.6-16 12z"/><path class="st3" d="m254.6 280.2 6.6 16.5c5.7-4.3 11.6-8 17.6-11l-4-15.9c-6.9 2.7-13.7 6.2-20.2 10.4zM275.9 269.3c-.3.1-.7.3-1 .4l4 15.9c6.7-3.3 13.5-5.9 20.5-7.4v-15.6c-7.5 1.5-15.3 3.7-23.5 6.7z"/><path class="st4" d="m198 372.8 13.2 8.8c1.9-3.7 3.9-7.5 6.1-11.4l-12.4-9.1c-2.5 4-4.8 7.9-6.9 11.7z"/><path class="st4" d="m204.8 361.2 12.4 9.1c2.1-3.8 4.3-7.6 6.7-11.5l-12-8.8c-2.4 3.7-4.8 7.4-7.1 11.2zM192.6 382.7l14 8.4c1.4-3 2.9-6.2 4.6-9.5l-13.2-8.8c-1.9 3.4-3.7 6.7-5.4 9.9zM239.2 315.4l7.6 11.4c3.2-3.8 6.5-7.4 10-10.8l-5.5-12.3c-4.1 3.6-8.1 7.6-12.1 11.7z"/><path class="st4" d="m231.2 324.5 8.8 10.8c2.2-2.9 4.5-5.8 6.9-8.5l-7.6-11.4c-2.8 3-5.5 6-8.1 9.1zM186.3 395.4l15.9 5.5c1.3-2.9 2.7-6.2 4.3-9.8l-14-8.4c-2.1 4.3-4.2 8.6-6.2 12.7zM222.1 335.9l9.8 10.5c2.6-3.8 5.2-7.5 8-11.1l-8.8-10.8c-3.1 3.7-6.1 7.5-9 11.4z"/><path class="st4" d="m212 350 12 8.8c2.5-4.1 5.2-8.2 8-12.3l-9.8-10.5c-3.6 4.5-7 9.2-10.2 14zM251.3 303.7l5.5 12.3c3.9-3.8 8-7.4 12.1-10.4l-4.4-12.4c-4.4 3.1-8.9 6.7-13.2 10.5zM320.4 370.2l-7.4 2c1.4 5.1 3.5 10.7 7 15.8l7-4.2c-3.1-4.2-5.2-9-6.6-13.6z"/><path class="st4" d="M318.1 353.6c-2.4 2.1-5 4.5-7.2 7.3.2 3.1.9 6.4 2.2 11.4l7.4-2c-2-6.8-2.4-12.3-2.4-16.7zM327.1 383.8l-7 4.2c3.7 5.5 8.9 10.5 16.2 13.8l3.1-8.3c-5.3-2.4-9.3-5.8-12.3-9.7zM359.9 397.1c-1.7.1-3.4.1-5.1-.1l.4 8.8h1.4c4.7-.2 9-.6 12.7-1.4l-1.4-8.5c-2.4.7-5.1 1.1-8 1.2z"/><path class="st4" d="m339.4 393.5-3.1 8.3c5.2 2.3 11.5 3.8 18.9 4l-.4-8.8c-6-.3-11.2-1.6-15.4-3.5zM367.9 395.9l1.4 8.5c5-1 9.1-2.6 12.6-4.7l-4.6-8.6c-2.7 2.1-5.8 3.8-9.4 4.8z"/><path class="st4" d="m377.3 391.2 4.6 8.6c4.6-2.8 8.1-6.5 10.8-11l-8.2-5.7c-2 3-4.3 5.8-7.2 8.1zM177.6 415.6l-2.6 9.8 19.5 6.3 2.7-16.1c.2-2.1 2-7.5 5-14.7l-15.9-5.5c-3.4 7.2-6.3 14-8.7 20.2zM402 337.5l-12.2 1.1c.7 3.5 1.1 7.4 1.3 11.2l11.4-.5c.1-3.8 0-7.8-.5-11.8zM394.5 315.2l-12.1 4.4c1 1.5 1.9 2.9 2.6 4.3.9 1.7 1.8 3.8 2.5 6.1l12.1-3.2c-1.3-3.9-3-7.7-5.1-11.6z"/><path class="st4" d="m399.6 326.9-12.1 3.2c.9 2.6 1.6 5.5 2.2 8.6l12.2-1.1c-.4-3.6-1.2-7.2-2.3-10.7zM387.2 305l-12.5 5.7c3.1 2.9 5.7 5.9 7.7 8.9l12.1-4.4c-2-3.5-4.5-6.9-7.3-10.2zM401.9 354.5c.2-1.7.4-3.4.5-5.1l-11.4.5c.2 3.4.2 6.9-.1 10.4l10 .5c.4-2 .8-4.1 1-6.3zM388.7 372.9c-1 3.6-2.5 7-4.3 10l8.2 5.7c2.3-4 4.1-8.6 5.5-13.9l-9.4-1.8z"/><path class="st4" d="m401 360.9-10-.5c-.3 4.3-1 8.6-2.2 12.6l9.4 1.9c1.1-4.3 2-9 2.8-14zM376.5 295.1l-9.7 9.1c2.9 2.1 5.6 4.3 8 6.5l12.5-5.7c-3.2-3.5-6.7-6.8-10.8-9.9zM276.9 285.6l3 13.1c3.3-1.7 6.7-3.2 10.2-4.2.7-.2 1.5-.4 2.2-.7l-3-13.8c-4.2 1.6-8.3 3.4-12.4 5.6zM304 276.3l-.6 15c5-.9 9.8-1.3 14.5-1.4l2-14c-5.4-.5-10.7-.3-15.9.4z"/><path class="st4" d="m364.4 287.7-8.6 10.2c4 1.9 7.6 4 10.9 6.4l9.7-9.1c-3.5-2.8-7.5-5.3-12-7.5zM264.6 293.1l4.4 12.4c3.6-2.7 7.3-5 11-6.9l-3-13.1c-4.3 2.3-8.4 4.8-12.4 7.6zM289.2 280.1l3 13.8c3.8-1.1 7.5-1.9 11.1-2.6l.6-15c-4.9.8-9.8 2-14.7 3.8zM353.6 283l-7.5 10.9c3.4 1.1 6.7 2.5 9.7 3.9l8.6-10.2c-3.4-1.6-7-3.2-10.8-4.6z"/><path class="st4" d="m338.8 278.8-3.4 12.4c3.8.7 7.3 1.6 10.8 2.7l7.5-10.9c-4.7-1.6-9.6-3-14.9-4.2zM320.6 275.9c-.3 0-.5-.1-.8-.1l-2 14c6.2-.1 12.1.4 17.6 1.4l3.4-12.4c-5.6-1.3-11.6-2.3-18.2-2.9zM281.6 364c-5.9-2.7-18.5-8.2-21-7.4-1 .3-3.4 3.2-5.9 7.5l23.4 7c1-2.5 2.2-4.9 3.5-7.1zM246.4 402.5c5.3 2 15.3 3.2 22.1 3.8 1.1-1.3 2.1-2.5 3-3.8.3-4.6.9-9 1.5-12.9l-26.7-4.6c-1.2 6-1.5 12.1.1 17.5z"/><path class="st4" d="M250.1 373.3c-1.5 3.7-2.9 7.7-3.8 11.8l26.7 4.6c.6-3.4 1.3-6.6 2.1-9.6l-25-6.8z"/><path class="st4" d="m278 371.2-23.4-7c-1.5 2.6-3.1 5.7-4.5 9.1l25 6.8c.9-3.2 1.8-6.1 2.9-8.9z"/><path class="st2" d="M181.4 449.1c1.2-3.9 1.7-6.2 1.7-6.2l-17.5-18.6s-4.4-6.5-10.9-4.4c-2.6.9-7.6 9-10.4 19.5 15.4-2.6 29.8 4.9 37.1 9.7z"/><path class="st1" d="M144.3 439.6c-4.3 16.1-3.7 38 18.1 49.2 10.5-15.1 16.4-31.1 19-39.7-7.3-4.8-21.7-12.3-37.1-9.5z"/><path class="st1" d="M158.3 457.1c-.8 19 4.9 40.2 18.3 42.6 4.8-11.8 9.7-21.9 13.7-29.7-4.6-7.6-13.8-16.5-32-12.9z"/><path class="st2" d="M171.1 426.5c-7.7 1.9-12.2 15.6-12.8 30.5 18.2-3.5 27.5 5.3 32 12.9 6-11.6 10.3-18.3 10.3-18.3s-12.1-29.4-29.5-25.1z"/><path class="st2" d="M186.3 482.2c4.1.4 8.4 3.1 11.7 5.9.4-5 1.4-5.9 1.4-5.9s4.4-43.7-12-33.8c-8 4.8-13.4 19.8-12.3 37.2 2.6-2 6.4-3.9 11.2-3.4z"/><path class="st1" d="M198.1 488.2c-3.4-2.9-7.6-5.5-11.7-5.9-4.9-.5-8.7 1.3-11.2 3.4 1.1 18.2 9.2 38.9 28.7 53.4-5.8-29.8-6.3-44.1-5.8-50.9z"/><path class="st5" d="M219.6 477.8s51.9 3.3 54-6.5 14.2-30.6 12-52.4c-2.2-21.8-26.7-21.8-34.4-21.8s-11.5 4.4-15.8 10.9c-9.8-14.2-36-2.2-34.9 3.3 1.1 5.5-4.4 17.5-4.4 17.5l23.5 49z"/><path class="st6" d="M245.3 440.7c-17.5-4.4-15.3-22.9-9.8-32.7"/><path class="st0" d="M245.3 440.7c15.3-3.3 8.7-22.9 17.5-22.9 8.7 0 8.1 38.2-17.5 22.9z"/><path class="st4" d="m560.6 613.3 3.4 1s-1.1 8.7 19.6 7.6c20.7-1.1 199.8-77.5 241.2-116.8.5-3.7-1.6-9.9-5.5-18-23.5 17.4-110.4 76.2-258.7 126.2zM721.2 394.9c-4.4 0-97.2 61.1-291.5 113.5l-2.7-.7c.4 3.8.5 6.1.5 6.1l-3.2 2.6 5.3.1c145.3-31 267.6-103.1 287.2-108.5 8.5-2.3 47.4 68.3 56.9 85.7 3.1-1.8 5.9-3.5 8.7-5.1-10.6-17.5-57.3-93.7-61.2-93.7z"/><path class="st4" d="M716.8 408c-19.6 5.5-141.9 77.5-287.1 108.6l-5.3-.1-10.4 8.7 10.3 1.9C614.2 478 704.8 416.9 713.6 419c7.5 1.9 42 63.3 51.2 79.9 3.2-1.8 6.1-3.5 9-5.1-9.5-17.5-48.4-88.2-57-85.8z"/><path class="st0" d="m628.5 457.4 6.5 13c3.9-1.9 7.7-3.7 11.3-5.5l-7.3-12.2c-3.3 1.6-6.8 3.1-10.5 4.7zM639.1 452.7l7.3 12.2c4.6-2.3 9.1-4.6 13.3-6.7l-6.9-11.7c-4.3 2-8.9 4-13.7 6.2zM616.8 462.4l6.4 13.6c4.1-1.9 8-3.8 11.8-5.6l-6.5-13c-3.7 1.6-7.7 3.3-11.7 5zM424.3 527l-10.3-1.9-19.2 16 .3.3 12.3.2c19.4-2.6 38.3-6.1 56.6-10.2l-4-14.2c-11.6 3.4-23.4 6.6-35.7 9.8z"/><path class="st0" d="m459.9 517.3 4 14.2c6-1.4 12-2.8 17.8-4.3l-5.2-14.7c-5.3 1.6-10.9 3.2-16.6 4.8zM476.6 512.4l5.2 14.7c55.2-14.1 103.7-33.6 141.5-51.2l-6.4-13.6c-36.2 15.4-82.7 33.1-140.3 50.1zM652.8 446.5l6.9 11.7c5.3-2.7 10.2-5.3 14.6-7.6l-5.5-11.6c-4.9 2.3-10.2 4.8-16 7.5zM733.4 444.9l-11.6 7.3c3.2 5 6.7 10.5 10.2 16.2l11-7.8c-3.2-5.3-6.5-10.7-9.6-15.7zM668.9 438.9l5.5 11.6c6.2-3.3 11.5-6.1 16-8.5l-3.2-12c-5.3 2.6-11.4 5.6-18.3 8.9zM742.9 460.7l-11 7.8c3.5 5.9 7.1 11.8 10.3 17.4l11.3-7c-3.3-5.9-6.9-12-10.6-18.2z"/><path class="st0" d="M764.8 498.8c-2.4-4.3-6.4-11.6-11.3-20.1l-11.3 7c4.9 8.4 8.9 15.6 11.1 19.5 4-2.2 7.9-4.3 11.5-6.4zM719.5 424.5l-7.2 14.4c2.7 3.2 5.9 7.9 9.4 13.3l11.6-7.3c-5.2-8.3-10-15.6-13.8-20.4z"/><path class="st0" d="M713.6 418.9c-1.4-.3-4.8.9-10.4 3.4v13.1c2-.9 3.2-1.3 3.8-1.2 1.1.2 2.9 1.9 5.3 4.7l7.2-14.4c-2.6-3.2-4.6-5.3-5.9-5.6z"/><path class="st0" d="m687.2 430 3.2 12c5.7-3 10-5.3 12.9-6.5v-13.1c-4.2 1.8-9.5 4.4-16.1 7.6z"/><path class="st4" d="M588.6 427.1c-7.6-17.5-10.4-22.4-26.2-27.3-6-2.7-10.4.5-9.3 4.9 1.1 4.4 15.3 1.1 9.8 14.2 0 0-14.2-5.5-21.8-4.4-7.6 1.1-14.2 8.7-13.1 18.6 5.7.9 21.4.2 27.5 9.6l33.4-14.7c-.1-.4-.2-.7-.3-.9zM642.6 542.2l-24-50.2s-10.6-22.5-19.7-42.2l-32 14.3c5.7 10.6 11.3 21.3 11.3 21.3l17.5 32.7 17.5 54.6 34.9-14.2-5.5-16.3z"/><path class="st6" d="M537.8 425.4c29.5 1.1 34.9 17.5 34.9 17.5"/><path class="st3" d="M555.5 442.6c.9 1.3 1.5 2.9 2 4.6 1.6 2.7 3.8 6.5 6.1 10.6l.9-19.2-9 4zM564.5 438.7l-.9 19.2c1.1 2 2.2 4.1 3.4 6.2l9.4-4.2 1.3-27.1-13.2 5.9z"/><path class="st3" d="m587.2 428.7-9.6 4.2-1.3 27.1 11.5-5.1zM599 449.9c-3.9-8.5-7.6-16.5-10-21.9l-1.7.8.7 26.1 11-5z"/><path class="st5" d="M623 541.1c-3.3-12-72-18.6-83-38.2-10.5-18.9 4.3-30.8 18.1-28.7l.2-.2c-5-1.5-10.9-2.7-15-1.7-26.2 4.4-18.6 30.6-10.9 41.5 7.6 10.9 74.8 25.7 77 34.4-.5 16.9-46.9 60-46.9 60l-11.6 9 6.1 10.7 5-8.2c26-18.5 64.2-66.5 61-78.6z"/><path class="st7" d="m568.8 583.3 3.9 1.5 10.9-12-4.2-.4c-2.7 3.2-6.5 7-10.6 10.9zM573.9 549.9l-10.9-4.4-3.9 8.1c3.3 1.4 6.6 2.7 9.6 3.9l5.2-7.6zM531 538.9l3.6-3.2-8.7-12-6.4 3.9c2.6 4.2 6.7 7.9 11.5 11.3zM509.1 496.6l5.8.9 4.4-19.6-5.1-1c-3.5 5.3-5.5 11.9-5.1 19.7zM523.6 470.2l14.2-7.6-.7-2.9c-5.4 2.1-10.5 4.9-15 8.4l1.5 2.1zM561 471.7l-6.8-1.5-4.4 7.1 3.4 3.2c2.3-4 5.6-7.1 7.8-8.8zM583.2 476.5l5.9 1.3 1.1-18.6-8.4 1.6c1.5 4.9 1.9 10.3 1.4 15.7z"/><path class="st3" d="M579.5 572.4c2.9-3.4 4.7-6.1 4.2-7.3-.7-1.7-6.8-4.3-15.1-7.6l-9 13 19.9 1.9z"/><path class="st4" d="m559.7 570.6 9-13c-2.9-1.2-6.2-2.5-9.6-3.9l-6.5 13.6c3.6 1.6 6.1 2.8 7.1 3.3z"/><path class="st3" d="m536.7 592.5 7.2 12.7c4.3-3.5 15.4-13 24.8-21.9l-13.1-5.1c-6.8 6.4-18.9 14.3-18.9 14.3z"/><path class="st4" d="M550.9 489.8c1.1 10.9 14.2 13.1 19.6 16.4 1.5-1.7 2.9-3.5 4.1-5.5l-21.5-20.2c-1.5 2.8-2.5 6-2.2 9.3zM555.7 578.2l13.1 5.1c4.1-3.9 7.9-7.7 10.7-10.9l-19.8-1.8c1.9 1.2-.3 4.2-4 7.6z"/><path class="st3" d="m552.6 567.3 6.5-13.6c-9.4-4-19.9-8.9-28.1-14.7l-10.6 9.4c11.6 8.9 24.4 15.2 32.2 18.9z"/><path class="st4" d="m581.8 460.9-20.4 3.9c1.3 2.8 1.5 5.3 1.5 5.3s-.8.5-2 1.5l22.2 4.9c.6-5.4.2-10.8-1.3-15.6z"/><path class="st3" d="M553.1 444c-6.8.4-13.1 1.3-18.9 2.6l2.9 12.9c.8-.3 1.5-.6 2.3-.9 13.9-4.9 19.6 1.1 21.9 6.1l20.4-3.9c-3.2-10.3-12-17.7-28.6-16.8z"/><path class="st4" d="m520.4 548.3 10.6-9.4c-4.8-3.4-8.9-7.2-11.6-11.3l-12.9 7.9c4.1 4.7 8.9 9 13.9 12.8z"/><path class="st3" d="M561 471.7c-2.1 1.7-5.5 4.9-7.8 8.8l21.5 20.2c4.5-7 7.6-15.7 8.5-24.2l-22.2-4.8z"/><path class="st4" d="m514.1 455.1 8.1 12.9c4.4-3.5 9.6-6.3 15-8.4l-2.9-12.9c-7.8 1.8-14.5 4.6-20.2 8.4z"/><path class="st3" d="m498.1 473.6 16 3.2c2.2-3.4 4.9-6.3 8.1-8.8l-8.1-12.9c-7.1 4.6-12.5 10.7-16 18.5zM493.1 505.1c.7 11.7 6 21.8 13.4 30.3l12.9-7.9c-.9-1.4-1.7-2.9-2.3-4.5-5.2-10.2-7.7-19-8-26.6l-15.9-2.6c-.3 3.7-.3 7.4-.1 11.3z"/><path class="st4" d="m493.1 494 15.9 2.6c-.3-7.9 1.6-14.4 5-19.8l-16-3.2c-2.6 5.9-4.3 12.6-4.9 20.4z"/><path class="st0" d="m543.3 472.4-2.5-14.1c-.4.1-.9.3-1.3.4-9.8 3.4-18.9 8.8-24.6 17l13.1 5.5c2.6-4.2 7.4-7.5 15.3-8.8zM527.9 481.3l-13.1-5.5c-3.5 5-5.6 11-5.8 18.2l15.7-.8-15.7.8c-.2 7.3 1.7 15.7 6.3 25.6l17-5.7c-5.3-7.6-10.6-22.7-4.4-32.6zM532.4 513.9l-17 5.7c.5 1.2 1.1 2.4 1.7 3.6 1.7 4.7 5.5 9.1 10.2 13l13.8-16.3c-4.3-2.1-7.4-4.1-8.7-6zM571.9 580.3l10.8 7.5c4.8-5.2 9.8-10.9 14.1-16.4l-13.2-6.2c.9 2-4.5 8.1-11.7 15.1z"/><path class="st0" d="M558.4 474.1c2.5-2.4 4.6-3.9 4.6-3.9s-1.6-18.3-22.2-11.9l2.5 14.1c4.1-1.1 10 .1 15.1 1.7zM543.9 605.2l6.9 12.1 11.6-9s9.8-9.1 20.4-20.5l-10.8-7.5c-10 9.7-23.3 20.9-28.1 24.9zM596.2 540.2l-18.1 21.3c3.1 1.4 5.1 2.6 5.5 3.6l24.8-18.3c-1.8-1.9-6.3-4.2-12.2-6.6zM608.5 546.8l-24.8 18.3 13.2 6.2c6.9-8.9 12.2-17.5 12.4-23.1-.1-.4-.4-.9-.8-1.4z"/><path class="st0" d="m581.7 534.9-14.9 21.9c4.5 1.8 8.5 3.4 11.4 4.8l18.1-21.3c-4.3-1.8-9.3-3.6-14.6-5.4zM541.1 519.8l-13.8 16.3c3.2 2.6 6.8 5 10.8 7.3l12.3-19.6c-3.5-1.3-6.7-2.6-9.3-4z"/><path class="st0" d="M550.4 523.8 538 543.4c9.3 5.4 20 9.8 28.7 13.4l14.9-21.9c-10.3-3.6-21.8-7.3-31.2-11.1z"/><path class="st3" d="m558 500.2-12.4 8.8c4.4 3.3 10.4 6.3 17.2 8.9l7.8-11.6c-3-1.8-8.3-3.3-12.6-6.1z"/><path class="st3" d="m570.6 506.2-7.8 11.6c4.1 1.6 8.6 3.1 13.2 4.5l5-11.8c-5.2-1.9-9.1-3.5-10.4-4.3zM550.9 489.8c-.1-.7-.1-1.4-.1-2.1l-14.4 3.9c.2 3.4 1.3 7.1 3.5 11.2 1.2 2.2 3.1 4.1 5.6 6.1l12.4-8.8c-3.5-2.1-6.5-5.3-7-10.3zM561.8 619.7l-5 8.2.6 1s19.6-2.7 26.2-7.1c6.5-4.3 31.9-41 47.2-60.7l-13.8-2.8c-11.3 19.5-36.3 48.1-55.2 61.4z"/><path class="st3" d="M558.1 474.3c-10.8-1.6-22.2 5.3-21.6 17.4l14.4-3.9c.3-5.5 4-10.3 7.2-13.5zM580.9 510.6l-5 11.8c5.3 1.7 10.8 3.2 16 4.7l3.5-11.2c-5.2-1.9-10.3-3.7-14.5-5.3zM631.7 529.1l-14.8 6.6c3.4 1.7 5.6 3.5 6.1 5.4.4 1.6.2 3.7-.7 6.4l16.9-.7c3.3-10.1-2-15.3-7.5-17.7zM639.2 546.9l-16.9.7c-1 3.1-2.8 6.8-5.2 10.8l13.8 2.8c.1-.2.2-.3.3-.4 4.2-5.4 6.7-10 8-13.9z"/><path class="st3" d="m610.6 521.4-6.1 9.6c4.9 1.6 9.1 3.2 12.3 4.8l14.8-6.6c-2.7-1.3-11.2-4.3-21-7.8z"/><path class="st3" d="m595.5 515.9-3.5 11.2c4.4 1.3 8.7 2.6 12.6 3.8l6.1-9.6c-5-1.7-10.2-3.5-15.2-5.4z"/><path class="st5" d="M446.1 625.2c-8.7-2.2-7.6-31.7 9.8-29.5-1.1-9.8 8.7-15.3 20.7-13.1 12 2.2 15.3 3.3 29.5-4.4s17.5 4.4 48 8.7c12 2.2 25.1 29.5 3.3 42-12 2.7-13.1-7.1-13.1-7.1s-3.8-9.3-13.6-7.1 3.8 14.7-22.4 15.8c-26.1 1.2-53.4-3.1-62.2-5.3z"/><path class="st6" d="M456 595.7c1.1 7.6 8.7 4.4 8.7 4.4"/><ellipse class="st4" cx="499.6" cy="589.7" rx="13.1" ry="13.6"/><circle class="st1" cx="487.1" cy="589.7" r="13.6"/><circle class="st2" cx="487.1" cy="589.7" r="5.5"/><path class="st1" d="M446.1 625.2c-3.3 4.4 4.4 25.1 26.2 22.9 5.5-9.8-8.7-20.7-12-24-3.2-3.3-10.9-3.3-14.2 1.1z"/><path class="st1" d="M488.7 648.1c2.2-12-10.9-19.1-12-23.5s-15.3-6-16.4-.5c-1.1 5.5 10.9 29.5 28.4 24z"/><path class="st1" d="M502.9 644.8c-16.4 8.7-26.2-15.3-26.2-20.2s14.7-3.8 16.9 1.6c2.2 5.5 11.5 7.7 9.3 18.6z"/><path class="st1" d="M518.2 643.8c-6.5-4.4-9.3-16.9-12.6-20.2-3.3-3.3-11.5-2.7-13.1 2.7-1.6 5.4 6 20.7 25.7 17.5zM544.4 621.9c-4.4 3.3-7.6 7.6-16.4 17.5 17.5 0 28.4-2.7 29.5-10.4 1.1-7.6-8.8-10.4-13.1-7.1z"/><path class="st4" d="M434.1 572.8s16.4-1.1 16.4-4.4c0-3.3-.5-6-3.8-10.4s-21.3 6-21.3 6l8.7 8.8z"/><path class="st4" d="M440.7 536.8c5.5 0 2.2 15.3 2.2 15.3l-12 9.8s-7.6-3.3-13.1-6.5c3.2-6.6 17.4-18.6 22.9-18.6z"/><path class="st4" d="M429.8 518.2s16.4 1.1 10.9 18.6c-3.3 4.4-22.9 18.6-22.9 18.6l-14.2-8.7 5.5-14.2 20.7-14.3z"/><path class="st3" d="M273.7 487.7c-5.5 15.3 4.9 62.2 46.4 67.7s43.1-6.5 70.4-1.1c27.3 5.5 48 32.7 26.7 72.6-16.4 31.7-87.9 37.7-115.2 27.8-5.5-3.3-6.5 9.8-2.2 13.1 4.4 3.3 101.5 12 131-32.7s9.3-85.1-22.4-95-58.4-6.5-58.4-6.5l-51.3-52.4c.1-.1-19.6-8.8-25 6.5z"/><path class="st1" d="M286.2 485.5c-1.6 14.2 11.5 52.4 42 55.7 25.1 2.2 36-25.1 36-25.1L325 495.3s-37.1-24-38.8-9.8z"/><path class="st2" d="M310.8 497.5s-3.3 21.8 19.6 25.1c13.1 1.1 15.3-16.4 15.3-16.4l-14.2-7.6-20.7-1.1z"/><path class="st3" d="M387.7 507.9c8.7 2.2 16.9-3.8 14.7-10.4-2.2-6.5-10.9-9.8-9.8-13.1 1.1-3.3 4.4-5.5 10.9-4.4 10.9 1.1 20.7 15.3 18.6 28.4-2.2 13.1-15.3 22.9-26.2 19.6s-32.7-26.2-42.6-31.7c-9.8-5.5-21.8-5.5-31.7-9.8-9.8-4.4-16.4-15.3-22.9-16.4s-19.6-2.2-25.1 1.1c-5.5 3.3-4.4 14.2 0 16.4 4.4 2.2 21.8 0 25.1 2.2s10.9 12 17.5 14.2c6.5 2.2 29.5 2.2 38.2 7.6 8.7 5.5 22.9 28.4 40.4 29.5 17.5 1.1 36-7.1 40.4-32.2 4.4-25.1-20.7-37.7-29.5-42-8.7-4.4-30.6 2.7-32.7 10.4-2.2 7.6 6 28.4 14.7 30.6z"/><path class="st4" d="m333 450.2-8.9 37.4c2.2.8 4.4 1.4 6.7 2l11.5-35.2c-3.2-1.7-6.4-3.1-9.3-4.2zM350.6 458.8l-11.2 32.7c3.7.9 7.3 1.9 10.8 3.3l10.4-29.7c-3.2-2.1-6.6-4.2-10-6.3z"/><path class="st4" d="m342.3 454.4-11.5 35.2c2.8.7 5.7 1.3 8.5 2l11.1-32.6c-2.6-1.7-5.4-3.3-8.1-4.6zM327.2 448.4c-1.4-.3-2.8-.5-4.3-.8l-5.5 36.6c1.4.9 2.8 1.7 4.3 2.5.8.4 1.6.7 2.5 1l8.9-37.4c-2.2-.9-4.2-1.6-5.9-1.9zM314.3 446.7l-3.5 31.2 3.5-31.2c-3.2-.2-6.4-.3-9.6-.4l-1.4 26c4.1 2.9 8.5 8.1 14 11.8l5.5-36.6c-2.6-.3-5.5-.6-8.5-.8zM280.2 448.4c-7.6 2.2-6.5 22.9-6.5 22.9 2.6-1.6 6.9-2.1 11.5-2.2v-21.7c-2 .3-3.7.6-5 1z"/><path class="st4" d="M285.1 447.4v21.7c3.2-.1 6.4.2 9.3.5v-23.1c-3.5.3-6.7.6-9.3.9z"/><path class="st4" d="M294.4 446.6v23.1c1.6.2 3.1.4 4.4.6 1.5.3 3.1 1 4.6 2.1l1.4-26c-3.6-.1-7.1 0-10.4.2zM403.6 480c-6.5-1.1-9.8 1.1-10.9 4.4-.7 2.2 2.9 4.4 6.1 7.5l13.8-8c-2.8-2.1-5.9-3.6-9-3.9zM412.6 484l-13.8 8c1.6 1.6 3 3.4 3.7 5.6 1.4 4.3-1.5 8.3-6.2 10l5.8 21.1c5.3-.5 10.7-3.7 14.5-8.3l-16.3-14.1 16.3 14.1c2.8-3.3 4.8-7.4 5.6-11.9 1.5-9.4-3-19.2-9.6-24.5zm-9.6 15.7 17.5-1.1-17.5 1.1zM387.7 507.9c-.6-.2-1.2-.4-1.8-.7l-.8 14.7c4.1 3 7.8 5.3 10.8 6.2 2 .6 4 .8 6.1.5l-5.8-21.1c-2.4.9-5.4 1.1-8.5.4zM360.6 465.1l-10.4 29.7c1.1.5 2.2 1 3.2 1.6 1.4.8 3.1 1.9 4.9 3.3l10.5-28.9c-2.5-1.8-5.3-3.8-8.2-5.7z"/><path class="st4" d="M373 477.3c.2-.7.6-1.4 1.1-2.1-1.5-1.4-3.3-2.8-5.4-4.4l-10.5 28.9c2.7 2.1 5.8 4.6 9.1 7.4l7-17.8c-1.5-4.7-2.1-9.2-1.3-12zM379.3 500.2l-4.1 13.6c3.4 2.9 6.8 5.7 10 8.1l.8-14.7c-2.5-1.3-4.8-3.9-6.7-7z"/><path class="st4" d="m374.3 489.3-7 17.8c2.6 2.2 5.2 4.4 7.9 6.7l4.1-13.6c-2.1-3.3-3.8-7.1-5-10.9z"/><path class="st3" d="M133.3 605.4c-5.3-.1-9.9-.2-13.2-.3-1.1 11.7-3.6 33.6-7 49.8 5.9-6.2 10.6-14.8 16-17.9-.1-8.6.5-21.2 4.2-31.6z"/><path class="st3" d="M133.3 605.4c-3.7 10.4-4.3 23-4.2 31.6.2-.1.3-.2.5-.3 1.6-.8 5.7-1.9 11.2-3 .8-6.7 2.9-17.5 9.6-28.3h-17.1zM119.8 605c-9.4-.5-13.5-3.5-16.9-6.2-5.3 9.5-15.4 33.9.8 62.4 3.5-1 6.5-3.4 9.4-6.4 3.4-16.2 5.9-38.1 7-49.8-.1.1-.2.1-.3 0z"/><path class="st3" d="M102.9 598.9c-3.2-2.5-5.7-4.7-11.5-4.2-12 1.1-7.1 24-8.2 38.2-1.1 14.2 5.5 30 18 28.9.8-.1 1.6-.2 2.5-.5-16.2-28.5-6.1-53-.8-62.4zM185.8 626.1c15.9-2.4 28.9-4.1 28.9-4.1s0-15.3-8.7-16.4c-2.5-.3-9.1-.4-17.7-.4-1.7 5.9-3 13.3-2.5 20.9zM150.4 605.4c-6.6 10.8-8.8 21.6-9.6 28.3 4.3-.9 9.4-1.9 15-2.8.3-6.1 1.7-15.7 6.6-25.5-4.1-.1-8 0-12 0z"/><path class="st3" d="M188.3 605.2c-4.1 0-8.6.1-13.3.1-1.7 6.1-3.3 14.3-3.1 23 4.7-.8 9.4-1.5 14-2.1-.6-7.7.7-15.1 2.4-21z"/><path class="st3" d="M174.9 605.2c-4.1.1-8.3.1-12.6.1-4.9 9.9-6.2 19.5-6.6 25.5 5.1-.9 10.6-1.8 16-2.6-.1-8.7 1.5-16.9 3.2-23z"/><circle class="st1" cx="90.3" cy="622.7" r="15.3"/><circle class="st2" cx="90.3" cy="622.7" r="6.2"/><path class="st1" d="M225.6 629.6c-6 13.1 2.2 24 7.6 27.3s5.5 14.2 7.6 24c15.3-9.8 6.5-52.4 6.5-52.4s-15.7-12-21.7 1.1z"/><path class="st1" d="M247.5 628.5s-2.2 12 12 23.5c5.5 5.5 4.4 16.9 5.5 23.5 25.1-13.1 4.4-57.9 4.4-57.9l-15.3-1.1-6.6 12z"/><path class="st1" d="M294.4 667.8c29.5-28.4-3.8-55.7-10.4-55.7-6.5 0-14.7 5.5-12 19.1 3.3 8.7 11.5 8.2 16.9 15.8 5.5 7.7 4.4 12 5.5 20.8z"/><path class="st5" d="M210.4 578.3c-31.7 25.1 14.2 75.3 40.4 50.2 26.1-25.1-12.1-69.9-40.4-50.2z"/><path class="st0" d="M216.9 589.2c-15.3 14.2 7.6 41.5 25.1 28.4 14.2-12-13.1-39.3-25.1-28.4z"/><path class="st3" d="m200.9 445.5-14.5 7.3c2.8 5.7 5.3 11.6 7.5 17.8l13.6-7.5c-2.1-6.1-4.3-12-6.6-17.6zM215.2 486.6l-14.1 6.9c1.9 6.8 3.7 13.6 5.5 20.4l14.6-8c-2.1-6.3-4-12.8-6-19.3zM181.9 411.7c-8.1 2.3-15.7 6.9-16.3 12.7 3.9 3.5 7.5 7.4 10.6 11.7l16.4-7.9c-3.1-6.1-6.8-11.6-10.7-16.5zM192.7 428.2l-16.4 7.9c3.8 5.1 7.1 10.7 10.1 16.6l14.5-7.3c-2.6-6-5.2-11.8-8.2-17.2zM221.2 505.9l-14.6 8c1.9 7 3.7 13.9 5.7 20.5l15.1-10.3c-2.2-5.8-4.2-11.9-6.2-18.2z"/><path class="st3" d="m207.5 463-13.6 7.5c2.7 7.4 5 15.2 7.2 22.9l14.1-6.9c-2.5-7.8-5-15.7-7.7-23.5zM275.4 581.3l-2.9 19.3c8.6 2.1 17.1 3 24.6 3.3l1.1-15.3c-7.3-1.8-15-4.1-22.8-7.3z"/><path class="st3" d="m298.1 588.5-1.1 15.3c15.4.6 26.9-1.5 26.9-1.5l4.9-9.8c-7.5-.2-18.3-1.1-30.7-4zM227.3 524.1l-15.1 10.3c2.2 7.5 4.6 14.7 7.4 21.3l14.2-15c-2.2-5.2-4.4-10.8-6.5-16.6zM258.4 572.8c-.6-.3-1.1-.7-1.7-1.1l-7.3 19.7c7.3 4.3 15.2 7.1 23 9.1l2.9-19.3c-5.6-2.3-11.2-5-16.9-8.4z"/><path class="st3" d="M243.1 557.6 233 577.9c4.9 5.6 10.5 10 16.5 13.5l7.2-19.7c-5.1-3.4-9.6-8.2-13.6-14.1z"/><path class="st3" d="m233.9 540.7-14.2 15c2.7 6.3 5.7 12.1 9.3 17.1 1.3 1.8 2.6 3.5 4 5.1l10.2-20.4c-3.4-4.9-6.5-10.6-9.3-16.8z"/><path class="st4" d="m229.9 485.5-14.1 3.2c1.7 5.5 3.4 10.9 5 16.2l13.9-3.2c-1.7-5.5-3.2-10.8-4.8-16.2zM225.3 468.3l-15.2 2.2c2 6 3.9 12.1 5.8 18.1l14.1-3.2c-1.7-5.7-3.2-11.5-4.7-17.1zM238 511.3l-13.9 3.5c1.5 4.5 3 8.8 4.6 13l13.8-5c-1.6-3.6-3.1-7.5-4.5-11.5z"/><path class="st4" d="m234.8 501.6-13.9 3.2c1.1 3.4 2.2 6.8 3.3 10.1l13.9-3.5c-1.2-3.3-2.3-6.5-3.3-9.8zM217.8 443l-16.6 3.3c1.5 3.6 2.9 7.3 4.3 11.1l15.8-3.3c-1.2-3.8-2.3-7.5-3.5-11.1zM206.8 418.9l-16.9 4.3c2.1 3.4 4 7.1 5.9 10.9l17-4.1c-1.8-4.1-3.8-7.8-6-11.1zM200.5 411.2c-3.6-2.1-11.4-1.7-18.7.4 2.8 3.5 5.5 7.4 8 11.5l16.9-4.3c-1.8-2.8-3.9-5.4-6.2-7.6z"/><path class="st4" d="m221.3 454.1-15.8 3.3c1.6 4.3 3.1 8.7 4.5 13.2l15.2-2.2c-1.3-5-2.6-9.7-3.9-14.3zM212.8 430l-17 4.1c1.9 3.9 3.7 8 5.5 12.2l16.6-3.3c-1.6-4.6-3.3-9-5.1-13zM242.6 523l-13.8 5c1.5 3.9 3 7.8 4.6 11.4l13.5-7c-1.6-3.1-3-6.2-4.3-9.4zM284.5 571.2l-5.5 11.5c4.3 1.6 8.6 3 12.7 4.1l5.2-11.7c-4.1-1-8.3-2.3-12.4-3.9z"/><path class="st4" d="m274.3 566.2-5.9 11.9c3.6 1.7 7.1 3.2 10.7 4.6l5.5-11.5c-3.7-1.4-7.1-3-10.3-5zM296.9 575.1l-5.2 11.7c5.3 1.5 10.4 2.6 15.2 3.4l5.2-12.6c-4.8-.5-9.9-1.3-15.2-2.5zM335.9 578.3s-10.4.8-23.8-.6l-5.2 12.6c8.7 1.5 16.3 2.1 21.9 2.3l7.1-14.3zM246.9 532.4l-13.5 7c1.9 4.3 3.9 8.3 5.9 12.1l12.8-9.4c-1.8-3.2-3.6-6.4-5.2-9.7z"/><path class="st4" d="m252.1 542-12.8 9.4c2.2 3.9 4.5 7.4 7 10.5l11.4-11.4c-1.9-2.7-3.8-5.5-5.6-8.5zM260.6 554.2c-1-1.2-1.9-2.5-2.8-3.7l-11.4 11.4c3.4 4.4 7.3 7.9 11.5 10.5l8.8-11.8c-2.3-1.8-4.3-4-6.1-6.4zM266.7 560.7l-8.8 11.8c.2.1.4.2.5.3 3.3 2 6.6 3.7 9.9 5.3l5.9-11.9c-2.7-1.6-5.2-3.4-7.5-5.5z"/><path class="st5" d="M381.7 605.6c-1.1-18.6-12-30.6-37.1-31.7-14.5-.7-20.4 9.7-21.7 18.3-.7 4.3-.2 8.2.9 10 0 0-11.4 2.1-26.9 1.5-4.4-.2-9-.5-13.8-1.3 4.5 12.8 18.5 39 58.1 39 28.5-2 41.6-17.3 40.5-35.8z"/><path class="st6" d="M347.9 614.3c-8.7 3.3-19.6-3.3-24-12"/><path class="st0" d="M347.9 614.3c1.1-8.7 3.3-21.8 13.1-18.6s1.1 26.2-13.1 18.6z"/></svg>