<svg version="1.1" id="Calque_1" xmlns="http://www.w3.org/2000/svg" x="0" y="0" viewBox="0 0 900 900" style="enable-background:new 0 0 900 900" xml:space="preserve"><style>.st0,.st1,.st2,.st3,.st4,.st5,.st7{fill:#ffce00;stroke:#000;stroke-width:4.4291;stroke-linecap:round;stroke-linejoin:round;stroke-miterlimit:10}.st1,.st2,.st3,.st4,.st5,.st7{fill:red}.st2,.st3,.st4,.st5,.st7{fill:#005a72}.st3,.st4,.st5,.st7{fill:#005102}.st4,.st5,.st7{fill:#fff}.st5,.st7{fill:none}.st7{stroke-width:3.4449}</style><path class="st0" d="m365.1 196.8-20.7-2.2c-.8 5.3-1 13.5-.7 22.7l18.8 1.6c1.4-12.3 2.6-22.1 2.6-22.1zM389.4 203.5s-4 7.9-9.2 17.8l15.2 9.3 11-16.8-17-10.3z"/><path class="st1" d="M357.7 258.8c1.2-9.4 3.2-26.2 4.8-40l-18.8-1.6c.6 24.2 3.7 54.9 3.7 54.9l19.9 1.5 28.1-43-15.2-9.3c-7.7 14.7-18.1 33.6-22.5 37.5zM249.1 378.7l4.5 18.2 50.9-13.3-1.4-11.1zM621.3 722s-15.7 4.4-81.2 15.7c0 9.8 7.9 20.2 7.9 20.2l82.4-16.8-9.1-19.1zM586.3 564.5S755.1 691 781.7 718c28.1-29.5 43.3-57.6 43.3-57.6-66.4-38.4-320.9-221-320.9-221L483 438l3.9 23.1 99.4 103.4z"/><path class="st0" d="M148.8 726.9c13.3 12.8 47.7 34.4 61.3 41.3 60.8-86.1 238.9-279 238.9-279l-10.8-40.4s-47.2 2-53.1 16.7c-6 14.9-193 226.5-236.3 261.4z"/><path class="st1" d="M319.1 323.9c-40.4-23.1-204.2-143.7-204.2-143.7l-39.9 58S247.7 338.6 256.1 347c8.4 8.4 62.5 18.2 62.5 18.2s40.8-18.2.5-41.3z"/><path class="st0" d="M491.8 362.3c62-69.4 208.2-235.7 208.2-235.7l55.1 47.2S570.6 348 525.5 412.5c-16 11.8-54.4 8.9-54.4 8.9l-12.8-19.7c.1-.1 21.2-23.2 33.5-39.4z"/><path d="M205.7 703.8c-3 6.4 6.2 14.8 13 12.8 6.9-2 10.8-8.4 11.3-13.3s-.5-10.3-1-13.8 6.9-20.2 10.3-21.2c3.4-1 13.8 13.3 17.2 14.3 3.4 1 6.9-1.5 6.4-6.4S248.5 660 244.5 659s-8.1-1-10.1 0-6.9 15.7-11.8 24.1c-4.9 8.4-14 14.3-16.9 20.7zM239.9 650.9c-2.5-2.2 1-7.1 3.4-6.2s-1 8.4-3.4 6.2zM248.2 654.1c-2.5-1.5 1-7.4 3.9-5.9 3 1.5-1.4 7.4-3.9 5.9zM257.1 659.5c-3-2.5 3.2-7.1 5.2-4.7s-2.3 7.2-5.2 4.7zM264.5 666.9c-2.5-2 2-7.4 4.4-4.9 2.5 2.4-2 6.9-4.4 4.9zM268.9 674.3c-2-3 3.9-6.9 5.9-4.9s-3.9 7.8-5.9 4.9zM769.8 658.9c3.7 6-4.2 15.4-11.3 14.3-7.1-1.1-11.8-6.9-12.9-11.8-1.1-4.8-.8-10.3-.8-13.8s-9.4-19.1-12.9-19.7-12 14.9-15.3 16.3c-3.3 1.4-7-.6-7.2-5.5-.1-4.9 12.4-17.9 16.1-19.4 3.8-1.5 7.9-2 10-1.3 2.1.7 8.8 14.8 14.8 22.4 6 7.8 15.8 12.5 19.5 18.5zM729.2 610.7c2.2-2.5-1.9-7-4.2-5.7-2.3 1.4 2 8.2 4.2 5.7zM721.3 615c2.3-1.8-1.9-7.2-4.7-5.4s2.4 7.1 4.7 5.4zM713.2 621.5c2.6-2.8-4.1-6.7-5.7-4-1.7 2.7 3.1 6.8 5.7 4zM706.8 629.7c2.2-2.3-2.9-7.1-5-4.3-2.1 2.7 2.8 6.6 5 4.3zM703.3 637.6c1.6-3.2-4.8-6.3-6.5-4.1-1.6 2.2 5 7.3 6.5 4.1zM662.5 234.8c-5.8 4-15.6-3.6-14.8-10.8.8-7.1 6.5-12.1 11.2-13.3 4.8-1.3 10.3-1.2 13.8-1.3 3.5-.1 18.8-10.1 19.2-13.7.4-3.6-15.4-11.4-16.9-14.6-1.5-3.2.3-7 5.3-7.4 4.9-.3 18.4 11.7 20 15.4 1.6 3.7 2.3 7.8 1.6 9.9-.6 2.1-14.4 9.4-21.9 15.6-7.4 6.3-11.7 16.2-17.5 20.2zM709 192.4c2.6 2.1 6.9-2.1 5.5-4.4-1.3-2.3-8.1 2.3-5.5 4.4zM704.5 184.6c1.9 2.2 7.1-2.2 5.2-4.8-1.9-2.7-7 2.7-5.2 4.8zM697.7 176.8c2.9 2.5 6.5-4.3 3.8-5.9s-6.7 3.4-3.8 5.9zM689.2 170.7c2.3 2.1 7-3.1 4.1-5.2-2.8-2-6.4 3.1-4.1 5.2zM681.2 167.5c3.2 1.5 6.2-5 3.9-6.6-2.3-1.6-7.1 5.2-3.9 6.6zM196.1 283.4c6.8 1.9 13.6-8.3 10.6-14.9-3-6.5-9.9-9.4-14.9-9.2-4.9.3-10.1 2.1-13.5 3.1-3.3 1-21-3.7-22.5-7-1.5-3.2 11-15.6 11.5-19.2.4-3.5-2.5-6.6-7.3-5.3s-13.8 16.8-14.2 20.9c-.4 4 .3 8.2 1.6 10s16.6 4.4 25.6 8c9.1 3.6 16.3 11.7 23.1 13.6zM138.6 257.7c-1.8 2.8-7.2.1-6.6-2.5.6-2.5 8.4-.3 6.6 2.5zM140.4 249c-1.1 2.7-7.5.2-6.4-3 1-3.2 7.5.3 6.4 3zM144.4 239.4c-2 3.3-7.6-2.1-5.4-4.4 2.1-2.3 7.4 1.1 5.4 4.4zM150.6 231c-1.6 2.7-7.6-.8-5.5-3.6 2-2.9 7.1.8 5.5 3.6zM157.2 225.4c-2.6 2.4-7.4-2.8-5.8-5.1 1.7-2.2 8.4 2.8 5.8 5.1z"/><path class="st2" d="M603.5 633.9C594.6 621.4 585 614 585 614s10.3-56.8 1.5-76c1.5-11.8-5.2-25.1-5.2-25.1l-20.7-18.5s-63.5-41.3-70.1-52.4c10.3-.7 61.3-.7 67.9-1.5 6.6-.7 12.5-5.2 14-13.3 1.5-8.1-4.4-67.9-4.4-67.9l2.2-53.9s-1.5-12.5 3.7-16.2c5.2-3.7 32.5-13.3 39.1-16.2 5.1-2.3 12.3-7.5 16.8-12.2-1.2-.6-6.3-3.6-8.6-9.5-5.9-1.5-8.9-7.8-8.9-7.8s-5.2-.7-9.1-5.3c-4 1.1-8.2-4.7-10.3-8-3.5 3.2-1.1 16.4-13.5 27.3 0-4.8-1.9-6.7-5.6-8.2-3.7-1.5-28.1 17.7-31.7 25.1-3.7 7.4-1.5 31-1.5 31l8.9 28.1-5.4 27.3-.7 50.9s-65.5 0-69.9-3c-2.2-1.5-6.2-17.5-9-33.8l-27.8-5.8s-11.3-24.2-79.9-32.1l-7.3 14.1 5.9 44.3 39.1 35.4 11.8 63.5-17 34-28.1 35.4-32.5 36.2s-19.2 12.5-27.3 19.2c-8.1 6.6-11.5 22.7-10 27.1s3.4 6.1 3.4 6.1-11.4 18.1-17.1 27.5c6.9 1 8.9 5.1 9.5 7.2 7.9-8.9 25.3-30.3 25.3-30.3s3 5.9 9.6 5.9 19.2-9.6 19.9-16.2c.7-6.6-1.5-19.9-1.5-19.9l8.9-11.1 15.5-36.2 18.5-3s47.2-42.1 49.5-51.7c2.2-9.6 4.4-45 4.4-45s35.4 48 53.9 58.3c7.4 2.2 8.9 11.8 8.9 11.8s-19.9 39.9-37.6 65.7c-11.8 19.2-25.8 76.8-50.9 105.6s34 2.2 34 2.2 43.6-63.5 56.1-91.5c22.9-14.8 32.7-19.2 37.6-8.9 4.9 10.3 70.9 81.9 78.2 98.2 7.4 16.2 32.5-1.5 32.5-1.5s-37.6-73-46.5-85.5z"/><path class="st1" d="m436.7 369.1 27.8 5.7c-2.9-17-4.5-34.3-1.3-35.6 5.5-2.2 3.9-10.3 3.9-10.3s7.9-8.9 9.4-14 .7-17.7-6.6-22.1c-7.4-4.4-14-3.7-17-.7s2.2 10.3-11.1 23.6c-3.7.7-14 1.5-14 1.5s.7-5.2-5.2-8.1c-5.9-3-28.1-8.9-28.1-8.9l-22.1 6.6-15.6 30.2c68.6 7.9 79.9 32.1 79.9 32.1z"/><path class="st3" d="M298.6 234.5s-16.2-18.5-19.2-31c-1.5-5.2 4.4-12.5 12.5-11.8s8.9 10.3 6.6 12.5c-5.9 3.7-5.2-4.4-8.9-3.7s-4.4 5.2-3 8.1c2.2 5.9 10.3 6.6 16.2 4.4 13.3-7.4 3.2-25.3-.2-28.5-3.4-3.2-15.3-5.4-23.4-1-8.1 4.4-19.2 16.2-12.5 30.3 6.6 14 8.9 20.7 8.9 20.7l14.8 13.3 8.2-13.3z"/><path class="st3" d="M290.5 239.6c-10.3-13.3-69.4-70.1-73.1-70.1-3.7 0-10.8 3.7-9.4 9.6 1.5 5.9 61.8 51.7 71.4 63.5-17-11.8-78.5-50-82.9-50.7s-10.1 4.2-7.1 10.1c3 5.9 65 34 81.9 50.2-24.4-17-79-31.5-86.4-31.5-7.4 0-6.2 11.6-1 12.3 5.2.7 68.2 17 84.4 29.5 16.2 12.5 20.7-3 20.7-3s11.8-6.6 1.5-19.9z"/><path class="st4" d="M314.1 260.3s-6.4-25.3-10.8-26.8-10.6-.5-12.8 6.2c-5.9-3.7-16.2 3.7-13.3 11.1-6.6-.7-13.3 6.6-8.9 11.8-4.4 3-6.6 8.1-3.7 11.8 3 3.7 22.6 8.1 22.6 8.1l26.9-22.2z"/><path class="st5" d="m291.3 273.7-23-11.2M296.1 265.9l-18.9-15.2M305.8 259.9l-15.3-20.3"/><path class="st2" d="M305.3 286.1s-13.5 5.9-18-3c-4.4-8.9 18.2-28.8 27.8-27.3s7.9 14.8 7.9 14.8l-17.7 15.5z"/><circle class="st1" cx="318.8" cy="285.9" r="17"/><circle class="st4" cx="422.9" cy="458" r="10.6"/><circle class="st4" cx="443.6" cy="468.1" r="10.6"/><circle class="st4" cx="461.3" cy="481.8" r="10.6"/><circle class="st4" cx="480.5" cy="493.7" r="10.6"/><circle class="st4" cx="499.2" cy="504" r="10.6"/><circle class="st4" cx="522.3" cy="507.4" r="10.6"/><circle class="st4" cx="544.2" cy="506.4" r="10.6"/><circle class="st4" cx="566.1" cy="504.5" r="10.6"/><path class="st4" d="M363.6 363.7c2.2 9.6 21.4 18.5 21.4 18.5l17 33.2s13.3 10.3 14.8 22.1c3 4.4.7 8.1.7 8.1s4.4 4.4.7 10.3c4.4 3 1.5 11.8 1.5 11.8s3 4.4-.7 10.3c3.7 5.9-.7 11.8-.7 11.8s3.7 5.9-2.2 11.8c3 8.1-5.2 11.8-5.2 11.8s-.7 7.4-9.6 10.3c-2.2 7.4-14.8 7.4-14.8 7.4s-5.2 4.4-12.5 2.2c-5.9 5.9-12.5 0-12.5 0s-6.6 3-13.3-1.5c-7.4 0-11-5.2-11-5.2s-9.6-5.2-7.4-14c-5.2-4.4-.7-12.5-.7-12.5s-3.7-6.6-.7-11.8c-5.9-4.4-1.5-9.6-1.5-9.6s-4.4-3-2.2-8.9c-3.7-5.9-1.5-11.1-1.5-11.1s-3.7-3.7-4.4-11.8c-3.7-2.2-3-8.9-3-8.9s-4.4-5.2-3.7-10.1c-3.7-3.9-4.4-12.1-4.4-12.1s-5.2-4.4-3-10.3c-5.2-4.4-2.2-12.5-2.2-12.5s-5.2-5.9-1.5-10.3c-4.4-5.2 2.2-10.3 2.2-10.3s58.2-18.3 60.4-8.7z"/><path class="st4" d="M418.2 456c-1.7-.2-8.1-1.2-8.1-1.2"/><path class="st5" d="M315.6 380.5s-5.9 1-14.8 2.4M314.2 390.8l-11.9 2.4M316.6 402.6l-12.1 3.2M319.6 412.5l-12.1 3.6M324.5 425.7l-12.6 2.5M327.5 435.6l-11.9 2.6M331.9 445.9l-13.3 1.2M334.8 456.7l-11.8 2.2M337.1 466.6l-13.1 2M339.3 478.4l-12.6.4M340.3 488.7l-12.2-.3M340.7 498.6l-11.8.5M341.2 509.9l-11.6 2.9M344.2 515.8l-7.1 9.8M350.6 518.8l-2.5 13.2M361.4 519.2v14.3M371.3 520.2l2.6 13.3M382.6 517.3l3.9 14M391.4 512.8l9.8 11.1M398.3 505.5l12.5 8M402.8 497.1l13.2 4.6M405.7 488.7l12.5 1.2M407.7 477.4l11.2.7M409.6 466.6l8.9 1.5M406.2 443l11.3 2.6"/><path class="st4" d="m345.7 578.8 15.7-21.2 25.1 20.7-19.7 17.2-14.7-4.4z"/><path class="st5" d="m357.5 572.9 8.8-10.3M362.9 576.3l7.4-9.8M367.6 580l8.1-9.6M371.8 584.7l9.3-9.4"/><path class="st4" d="m328.9 599.9 15.3-23.1 24.6 19.2-19.2 19.4z"/><path class="st5" d="m354.5 603.4 8.9-10.8M348.1 600l9.9-10.9M344.2 596l9.3-11.3M340.3 591.6l7.8-9.9"/><path class="st2" d="M301.6 619.1c-6.1 5-13.1 18-15.5 26 12.6-1.2 8.9 7.3 8.9 7.3 3.5-2.7 12.8-11.5 12.8-11.5"/><path class="st4" d="M286.1 645.1c-.8 2.6-1.1 4.7-.7 5.8 1.5 4.4 6.1 4.2 9.6 1.5-.1-.1 3.6-8.5-8.9-7.3zM277.8 679.9c-1.4 2.3-2.4 4.1-2.9 4.9-2.2 4.4 5.9 8.1 8.9 5.9.5-.4 1.8-1.7 3.5-3.7-.5-2.1-2.6-6.2-9.5-7.1zM309.7 640.8s6.9-1 8.4-7.9c3.3-.7 6.4-3.7 8.7-6.6-1.4-3.2-2.8-5.9-3.8-6.6-3-2-8.4 1.5-8.9 7.1-4.9-.7-8.4.7-9.4 7.6-3.4 1.5-6.4 6.4-4.4 9.8.6 1 1.9 2.6 3.5 4.3 5.9-3 5.9-7.7 5.9-7.7z"/><path class="st5" d="m304.8 634.4 12.3 14.8M314.2 626.8l10.3 15"/><path class="st1" d="M407.2 718.1s-21.7 7.9-87.1 18.2c0 9.8 8.4 23.6 8.4 23.6l94-19.7-15.3-22.1z"/><path class="st5" d="M426.4 765.3v-15.7"/><path class="st2" d="M407.2 729.9S334.9 754 328 758c-4.9 2.8-6.8 6.2-7 9.1 43.9-4 58-.2 62.5 2.5 0-.1.1-.1.1-.2 6.9 1.5 15.7 0 15.7 0l12.7-1.5 7.3-36.3-12.1-1.7z"/><path class="st5" d="M383.6 769.2c1-3.4 9.4-10.3 9.4-10.3M380.6 756c-5.9 3-7.9 6.4-8.4 12.8M334.4 769.2c-1.5-4.9.5-8.4 8.9-12.3M344.7 769.2c-1-4.9 4.9-9.8 8.9-11.8M359 769c-2.5-6.2 4.9-12.5 8.9-14.5"/><path class="st4" d="M321 767c0 1.2.2 2.2.6 3.2 1.5 3.4 9.8 3.9 12.8-1 2 4.4 9.8 3.9 10.3 0 3.4 4.4 12.8 3.2 14.3-.2 3 4.7 11.8 3.7 13.3-.2 1 5.9 8.4 6.4 11.2.7-4.6-2.7-18.6-6.5-62.5-2.5zM444.6 734.3l-26.1-6.4-6.5 39.8 33.1-3.9z"/><path class="st5" d="m417.8 743.2 26.3.5M418.5 765.3l2.5-16.2M433.3 763.8v-13.7M426.4 762.7l.4-14M439.7 764.3l-.5-14.2"/><path class="st4" d="M400.3 764.1c-3 1-4.4 6.2-4.4 6.2l51.7 1.2s.7-5.7-2.2-7.6-42.2-.8-45.1.2z"/><path class="st1" d="M407.2 718.1c-3.9 2-4.9 11.3-2.7 15.3 2.2 3.9 38.6 4.4 41.6 3.4s4.9-12.3 1.5-15.7c-3.5-3.5-36.5-5-40.4-3z"/><path class="st4" d="M501.7 544.3s-.5 136.3-8.1 172.2c21.4-.5 59.8-2 58.8-3.4-7.9-38.4-20.7-174.2-20.7-174.2l-30 5.4zM599.1 551.2c5.4 10.3 54.1 152.6 54.1 152.6s26.6-7.4 29-17.2c-24.6-43.8-65.5-142.2-65.5-142.2s-23-3.5-17.6 6.8z"/><path class="st4" d="M576 512.8c-2-10.8 10.8-15.3 19.2-11.3s23.6 25.6 22.6 42.8c-.5 9.4-15.3 11.6-21.7 10.1s-9.6-16.5-9.6-16.5-8.5-14.2-10.5-25.1z"/><path class="st5" d="M579.9 515.3s9.1-5.4 12.5-3 11.1 28.1 11.1 28.1"/><path class="st4" d="M489.4 537c-3 3.9 4.9 15.3 8.4 13.8 3.4-1.5 44.7-18.3 88.8-12.8 5.7-1.4-.3-23.7-5.2-25.1-37.2-6.5-89.1 20.1-92 24.1z"/><path d="M451 334.2c-7.9 3.4-28.1 41.8-10.3 62.5 17.7 20.7 81.7 5.4 94.5-15.7-8.4-3.4-26.1-6.9-31-7.9-1-12.8-14.8-13.1-15.3-14.6-.5-1.6 5.7-6 4.7-11.4s-10.1-6.4-10.1-6.4 3.4-6.9 1-7.9c-2.5-1-17.2 1.5-20.2 0s-5.4-2-13.3 1.4z" style="fill:#fff"/><path class="st5" d="M535.1 381c-8.4-3.4-26.1-6.9-31-7.9-1-12.8-14.8-13.1-15.3-14.6-.5-1.6 5.7-6 4.7-11.4s-10.1-6.4-10.1-6.4 3.4-6.9 1-7.9c-2.5-1-17.2 1.5-20.2 0"/><path class="st5" d="M474.1 356.8c-1-5.4 3.4-11.3 9.4-16.2"/><path class="st7" d="m445 340.1 9.8 3M440.9 346.8l13.6 1.1M439 352.3l11.8.4M436 357.5h13.3M434.8 363.3l13-.8M433.4 369.9l13.7-2.5M432.9 376.7l13.2-4.3M434.4 385.2l11.2-7.8M438 393l8.7-11.2M443.6 399.7l6.1-14.3M450.8 403.3l2.9-14.1M457.4 405.8l.4-14M466.3 406.6l-3.7-12.6M473.9 406.1l-4.3-11.3M483.5 405.1l-8-9.6M494.8 402.8l-11.6-6.9M505 399.9l-15.1-5.9M515.4 395.9l-17.8-4.5M524.6 390.7l-24.7-5.2M530.1 385.9l-27.3-6.6"/><path class="st1" d="M452 328.8c-8.9 5.4 1 14.8 11.3 10.5 5.5-2.2 3.9-10.3 3.9-10.3s7.9-8.9 9.4-14c1.5-5.2.7-17.7-6.6-22.1"/><path class="st4" d="m539.7 330.2-1.5 31 34.7-.8-4.4-30.2z"/><path class="st5" d="m544.2 359.7 1.1-13.3M551.3 359l-.1-13M556.7 359l.4-12.6M563.7 359l-.4-12.6"/><path class="st4" d="M540.8 305.3c-1.8 1.2-2.9 28.1-2.9 28.1l34.7-.7s-.8-26.4-2.3-27.4c-1.4-1-27.8-1.2-29.5 0z"/><path class="st5" d="m544.5 332.8.4-14.8M550.4 332v-13.6M557.1 331.6v-13.2M564.1 331.6l-.4-12.5"/><path class="st2" d="M563 269.6s13.3-8.9 16.6-12.2c0-4.8-1.9-6.7-5.6-8.2-3.7-1.5-28.1 17.7-31.7 25.1"/><path class="st4" d="M603.3 238.1c3.9 4.6 9.1 5.3 9.1 5.3s3 6.3 8.9 7.8c2.3 5.9 7.4 8.8 8.6 9.5 1.4-1.4 2.5-2.8 3.2-4 3-5.2-5.9-9.6-5.9-9.6s-1.5-8.1-10.3-8.9c-3-8.1-10.3-5.2-10.3-5.2s-5.2-9.6-13.3-3l-.1.1c1.9 3.4 6.1 9.1 10.1 8zM574 249.2c-1-.4-3.5.7-6.6 2.7.4 6 4.6 8.6 7.1 9.7 2.2-1.6 4.1-3.1 5.1-4.2 0-4.7-1.9-6.7-5.6-8.2z"/><path class="st5" d="M606.5 233s-6.6 18.2-21.4 28.9M616.8 238.2s-8.8 16.7-23.6 27.4M627.1 247s-9.2 13.4-26.9 23"/><circle class="st4" cx="419.2" cy="340.1" r="14.5"/><circle class="st5" cx="419.2" cy="340.1" r="4.9"/><path class="st1" d="M363.6 363.7c-1.6-6.9-31.9.6-49 5.5-.8 3.1-3 12.8-1.2 25.6 2.2 15.5 21.4 55.4 24.4 83.4 2.1 19.8 0 34 5.9 39.9s51.7 11.1 62.7-18.5c8.9-25.1-4.4-84.2-4.4-84.2l-17-33.2c0-.1-19.2-8.9-21.4-18.5z"/><path class="st0" d="M363.6 363.7c-.9-3.8-10.8-3.2-22.3-1l-4.2 6.2s-5.2 9.6-3.7 22.1c1.5 12.5 19.9 53.1 22.1 70.9 2.2 17.7-1.2 39.9 3.2 45 4.4 5.2 27.1 2.2 32.2-16.2 5.2-18.5-9.4-73.1-10.8-81.9-.8-5 2.7-15.9 6-24.5l-1.1-2.1c0-.1-19.2-8.9-21.4-18.5z"/><path class="st0" d="m303.1 359.3 39.1 14.8 18.5-1.5S336 351.8 306 350.5c-2 5.4-2.9 8.8-2.9 8.8zM312.3 334c8.7 4.7 35.8 18.8 53.7 24.5 2.9-7 6-14.1 9.3-20.9-7.2-7-26.5-23-53.1-25.3-4 7.7-7.2 15.1-9.9 21.7zM344.8 274.3c-4.5 6.1-8.6 12.4-12.4 18.8 12.7 13.7 40.6 23.7 51.3 27.2 3.3-6.4 6.4-12.2 9.1-17.1-4.4-6.5-17.8-22-48-28.9z"/><path class="st1" d="M353.2 364.4c-21.4 8.1-95.2-22.9-95.2-22.9l-6.6 17s81.2 22.1 101.1 19.2c11.4-1.7 8.9-11.5 8.9-11.5s-5.9-7.8-8.2-1.8z"/><path class="st1" d="M306 350.4c29.9 1.3 54.7 22.1 54.7 22.1 1.6-4.6 3.4-9.3 5.3-14.1-17.9-5.7-44.9-19.9-53.7-24.5-2.7 6.6-4.8 12.2-6.3 16.5zM332.5 293.1c-3.8 6.4-7.3 12.9-10.4 19.1 26.6 2.4 45.9 18.4 53.1 25.3 2.9-6.1 5.8-11.9 8.5-17.3-10.6-3.4-38.6-13.4-51.2-27.1zM392.8 303.2c5-9.1 8.4-14.8 8.4-14.8s-28.1-7.4-43.6-29.5c-4.6 4.8-8.8 10.1-12.8 15.5 30.2 6.8 43.6 22.3 48 28.8z"/><circle class="st1" cx="375" cy="282.1" r="8.5"/><circle class="st1" cx="355.5" cy="314.9" r="8.5"/><circle class="st1" cx="337.7" cy="351.9" r="8.5"/><path class="st5" d="M340.7 626.5s2.2 13.3 1.5 19.9c-.7 6.6-13.3 16.2-19.9 16.2s-9.6-5.9-9.6-5.9-10.3-9.1-12.3-12.5 1-8.4 4.4-9.8c1-6.9 4.4-8.4 9.4-7.6.5-5.7 5.9-9.1 8.9-7.1s8.4 19.2 8.4 19.2"/><path class="st2" d="M619.3 729.9s-64.5 21.7-71.4 25.6c-4.9 2.8-6.8 6.2-7 9.1 43.9-4 58-.2 62.5 2.5 0-.1.1-.1.1-.2 6.9 1.5 15.7 0 15.7 0l13.2-1.6-2.9-34.6-10.2-.8z"/><path class="st5" d="M603.5 766.8c1-3.4 9.4-10.3 9.4-10.3M600.1 754.5c-4.3 2.3-8.3 8.2-7.9 11.8M554.3 766.8c-1.5-4.9 3-8.9 11.3-12.8M564.7 766.8c-1.7-4.1 5.8-9.1 9.7-11.1M578.9 766.5c-.8-3.8 4.4-10.1 8.4-12.1"/><path class="st4" d="M540.9 764.5c0 1.2.2 2.2.6 3.2 1.5 3.4 9.8 3.9 12.8-1 2 4.4 9.8 3.9 10.3 0 3.4 4.4 12.8 3.2 14.3-.2 3 4.7 11.8 3.7 13.3-.2-.1 4.6 8.8 6.8 11.2.7-4.5-2.7-18.5-6.5-62.5-2.5zM653.4 731.7l-28.4-1.5 7.5 34.9 33.1-1.6z"/><path class="st5" d="m627.9 741.7 27.3-.8M638.2 762.4l-1.4-12.8M649.8 761.4l-1.7-11.8M644.6 761.9l-2.2-12.4M655.2 759.4l-2.2-9.8"/><path class="st4" d="M620.3 761.6c-3 1-4.4 6.2-4.4 6.2l51.7 1.2s.7-5.7-2.2-7.6-42.2-.8-45.1.2z"/><path class="st1" d="M618.3 719c-3.9 2-5.5 12.3-1.5 14.3 4.9 2.5 33 .5 35.9-.5s2-8.9-1.5-12.3c-3.4-3.4-29-3.4-32.9-1.5z"/><path class="st4" d="M448 419.3c-8.4-1-18.5 11.8-15.5 20.7 3 8.9 13 21.7 39.1 10.3-3.4-25.5-15.2-30-23.6-31z"/><path class="st5" d="M458.4 443c-7.4 1.5-11.8-1.5-13.3-3.9s2.5-6.9 5.9-6.9 6.4 4.9 7.4 10.8z"/><path class="st1" d="M403.4 412.4c-2.2 5.2-1.6 18.2 7.9 23.4 9.8 5.4 18.7.2 23.9-7.1s5.2-14.8 0-20.7-17-6.6-17-6.6-12.5 5.8-14.8 11z"/><path class="st2" d="M404.2 393.2c-3.7-5.9-11.1-10.3-19.2-11.1s-17.7 14.8-13.3 23.6 19.2 8.1 25.8 11.1c6.6 3 12.3 7.6 18.2 6.9s7.6-3.2 7.6-6.9-7.4-7.4-7.4-7.4 3.7-4.4 2.2-9.6-8-7.3-13.9-6.6z"/><path class="st5" d="M404.2 393.2c6.9 11.4-13.7 20.2-15.2 6"/></svg>