<svg version="1.1" id="Calque_1" xmlns="http://www.w3.org/2000/svg" x="0" y="0" viewBox="0 0 900 900" style="enable-background:new 0 0 900 900" xml:space="preserve"><style>.st0,.st1{stroke:#000;stroke-miterlimit:10}.st0{fill:#ffce00;stroke-width:2.4506;stroke-linecap:round;stroke-linejoin:round}.st1{fill:red}.st1,.st2,.st3{stroke-width:2.4506;stroke-linecap:round;stroke-linejoin:round}.st2{fill:none;stroke:#000;stroke-miterlimit:10}.st3{fill:#fff}.st3,.st4,.st5,.st6,.st7{stroke:#000;stroke-miterlimit:10}.st4{fill:#0068ff;stroke-width:2.4506;stroke-linecap:round;stroke-linejoin:round}.st5,.st6,.st7{stroke-width:1.6338}.st6,.st7{fill:#ff7300;stroke-width:2.4506;stroke-linecap:round;stroke-linejoin:round}.st7{fill:#7b5f53}</style><path class="st0" d="M310.1 775.5s-7.1-6.4-5.4-10.4 20.1 0 20.1 0l.2 10.4h-14.9z"/><path class="st1" d="M432.1 634.2s7.5-18.1 12.8-20.6c5.4-2.5 13.4 4.1 9.7 12.3-3.7 8.2-11.9 14.7-11.9 14.7l-10.6-6.4zM425.9 644.8c-.5 2-18.4 46.8-17 46.8 1.4 0 20.4 3.3 35 2.5-8.8-24.6-8-49.3-8-49.3h-11.2 1.2z"/><path class="st2" d="M449.2 621.2s-14.1 12.4-18 22c-3.8 9.6-5.3 50.4-5.3 50.4"/><path class="st1" d="M423.9 631.5s23.1-.3 20.9 11.2c-2.2 11.4-22.8 5.7-22.8 5.7l1.9-16.9z"/><path class="st2" d="m425.9 637.9 12.4 2.7"/><path class="st0" d="M383.5 659.8c-.9 7.3-2 14.9-3.1 22.4 9.3 4 25.7 6.9 33.1 8.1 7.8-17.8 12.2-25.6 14.6-41.6.1-.6.2-1.1.2-1.7-4.7-.2-25.4-1.8-42.5-14.8-.2 7.4-.9 16.3-2.3 27.6z"/><path class="st1" d="M378.6 693.3c7.7 3.7 21.5 6.5 30.2 8 .5-1.4 1.1-2.8 1.7-4.2 1-2.4 2-4.7 2.9-6.8-7.4-1.2-23.7-4-33.1-8.1-.5 3.7-1.1 7.4-1.7 11.1z"/><path class="st0" d="m366.4 757.3 19.6 11.2s14.2 5.7 13.1-7.9c-1-12.8 1.4-37.3 9.8-59.3-8.7-1.5-22.5-4.3-30.2-8-5.7 34-12.3 64-12.3 64z"/><path class="st1" d="M385.9 632.2c17.1 13 37.7 14.6 42.5 14.8.4-3.5.6-7.1.6-10.4-7.4-1.3-30.9-6-42.9-18 0 3.9 0 8.3-.2 13.6z"/><path class="st0" d="m485.4 558-3.3-63.7s-23.7-44.6-32.9-5.2c-9.3 39.5-58.1 84-62.1 100.7-2.3 9.5-1.3 16.4-1.1 28.8 12 11.9 35.4 16.7 42.9 18-.1-13.1-3.1-23.6-3.1-23.6l59.6-55zM324.8 765.1c-4.8 4.1-16.2 3.6-20.3 7.1s-.3 9.5 4.2 10.6 17.2 5.9 21 5.4 50.8-5.4 50.8-5.4V763l-15.6-6.4-40.1 8.5z"/><path class="st3" d="M364.3 757s6.9 8 5.7 27c5.1-.3 23.4 6 31 4.4 6-9 1.1-31.1-2.1-30.5-3.2.5-10 5.1-18.5 1.2-16.4-7.5-16.1-2.1-16.1-2.1z"/><path class="st1" d="m317.4 751.8 3 20.4s32.8-4.7 40.2-10.2 18.2-9.9 19.5-17c1.4-7.1-3.1-11.7-5.9-11.7s-12.8 15.5-16.6 18.2c-3.7 2.8-40.2.3-40.2.3z"/><path class="st2" d="M374.6 742s-5.4 9.2-15.6 14.6c-10.2 5.3-39.8 4.5-39.8 4.5"/><path class="st3" d="M326.1 784.4c-3 1.4 0 8.2 4.6 7.8 4.6-.4 32.9-3.8 40.8-3.8 7.9 0 27.5 7.3 30 7.3s3.2-11.1 0-11.7c-3.2-.6-22.6-4.6-32.8-4.6s-39.6 3.6-42.6 5z"/><path class="st1" d="M368.7 758.6c0-3-5.2-10.6-8.1-10.6-1.2 0-2.7.1-4.1.6 2.1 5.3 6.1 10.3 9.5 13.9 1.6-1.3 2.7-2.7 2.7-3.9z"/><path class="st1" d="M352.5 753.2c0 4.4 2.3 10.3 5.6 11.7 2 .8 5.4-.6 7.9-2.4-3.4-3.6-7.4-8.6-9.5-13.9-2.1.7-4 2-4 4.6zM542 654.1c5.7 9 33.3 30.9 35.2 32.4-4.6 7.1-36.5 18-36.5 18L526 659.3s10.2-14.2 16-5.2z"/><path class="st2" d="M536.6 653.8c.6 4.4 30.4 39.8 30.4 39.8"/><path class="st1" d="M526 654.4s12.4-22.9 17.4-22.9 8.5 5.2 7.7 11.4c-.8 6.2-16.3 23.9-16.3 23.9l-8.8-12.4z"/><path class="st2" d="M543.4 640.6c-1 1.5-13.3 21.7-13.3 21.7"/><path class="st0" d="M529.7 650.1c-2.7-4.5-4.7-8.1-4.8-10.8-.3-7.7 17.1-60.1 17.1-60.1s-63.9-57.6-60.1-33.6c3.8 24-9.8 79.6-7.4 95 .4 2.7 1.1 5.4 2 8.1 20.8 6.8 47 2.5 53.2 1.4zM545.9 700.3c-.1-5.1-.4-10.3-1.1-15.3-1.5-9.9-5.7-18.7-9.9-26.1-9.4 3.5-34.2 11.6-50.6 7.1 3.5 6.2 7.4 12.2 10.9 17.6 2.4 3.7 5.1 12 7.9 22 16.2 2.7 33.8-2.2 42.8-5.3z"/><path class="st1" d="M534.9 658.9c-1.8-3.2-3.7-6.2-5.2-8.8-6.2 1.2-32.3 5.5-53.1-1.3 1.9 5.9 4.7 11.7 7.8 17.2 16.3 4.5 41.1-3.7 50.5-7.1z"/><path class="st0" d="M556.6 772.4c-11.3-8.9-10.1-18.5-11.8-30.4-1-7 .3-18.1.9-30.5-8.3 3.7-23.6 8.5-39.7 4.3 5.9 21.7 12.6 47.3 19.4 56.5 11.4 15.3-1.4 14.4-1.4 14.4l11.4 7.2 21.1-7.2c.1 0 3-2.1.1-14.3z"/><path class="st1" d="M545.7 711.5c.2-3.7.3-7.4.2-11.2-9.1 3.1-26.6 8-42.8 5.2.9 3.3 1.9 6.7 2.9 10.3 16.1 4.3 31.4-.6 39.7-4.3z"/><path class="st0" d="M487.4 811.7c-5.3 6.8-19.7 8.7-21.3 15s2.7 11.2 7.1 9.5c-1.4 5.2 5.1 6 7.4 3.9-.4 3.9 4.9 5 7.6 3.3-.2 2.9 5.9 5.3 8.4 1.8 1.1 6 10.1 6.3 10.3 1.2.2-3.3 15.7-10.5 15.7-10.5l29.5-24.2-11.4-21.3-16.6-3.7-26.4 26.1-10.3-1.1z"/><path class="st2" d="M496.6 845.2c-.3-6.8 6.5-9.3 6.5-9.3M494.9 832.1s-7.6 3.1-6.7 11.4M480.6 840.2c0-7.2 6.7-11.8 6.7-11.8M480.2 824s-5.9 5-7 12.3"/><path class="st3" d="M522.6 791.9c8.5 0 25.1 23.5 25.1 23.5l22.4-15.8s-4.9-18.3-13.5-27.2c-8.3 14.3-30.8 10.3-30.8 10.3s-11.7 9.2-3.2 9.2z"/><path class="st1" d="M519.2 786.1c-.3-.8.5-15.9 3.5-17.8 3-1.9 13.9 2.5 13.9 7.6S526 790.4 526 790.4l-25.6 38s-21.2-10.9-20.1-11.2 38.9-31.1 38.9-31.1z"/><path class="st2" d="M527.3 772.8s-2.6 9.9-6.3 17.6c-3.7 7.7-31.3 32.4-31.3 32.4"/><path class="st1" d="M514.6 785.6c-1.6 2.6-2.6 5.6-2.6 7.3 0 3 10.5 7.1 12.9 6 2.5-1.1 2.4-4.2 3.7-6.8-4-.2-9.9-1.4-14-6.5z"/><path class="st1" d="M518.9 781.5c-1.6.6-3.1 2.2-4.3 4.1 4.1 5.1 10 6.3 14 6.5.8-1.7 1.4-3.3 1.4-4.6.1-3.3-7.3-7.3-11.1-6z"/><path class="st3" d="M506.9 840.6c-1.4 2.9 1.6 8 5 8s61-39.6 61-43.2-1.2-7.8-4.5-7.8-60.1 40.1-61.5 43z"/><path class="st0" d="M417.6 321.7c-23.7 5.6-37.8 20.4-43.8 18.2-6-2.2-8.7-22.3-17.7-31.6s-19.3-21.9-22.1-39.6-2.5-44.9-2.5-44.9-28.5-18.1-33.1-16.8-8 3.5-5.3 7.6c-3.3 0-6.3 5.7-1.9 9.2-4.6 2.5-2.6 9.7 1.4 11.3-3 3-.4 8.8 4.9 11.1 5.6 2.4 12.8 4.8 12.8 4.8s5 73.4 18.7 95.2c13.6 21.8 27.4 32.4 44.8 34.4S437 362 437 362l2.4-46.4c-.1 0 1.9.5-21.8 6.1z"/><path class="st2" d="M292.6 235.2C298 237 310 237 310 237M311.2 226.4s-17.3-1.2-20-2.6M293.2 214.6c2.7 2.7 18 4.4 18 4.4"/><path class="st0" d="M328.7 110.6c-1.7-.4-3.3-.9-4.8-1.4-.8 5.9-3.2 22.5-6.1 43.2 4.2 2.3 8.8 2.5 12.1 2.2 2.9-20.1 5.3-35.7 6.3-42.3-2.3-.5-4.8-1.1-7.5-1.7zM298.8 295.3c-1.2 9.1-2.6 19.8-4.2 31.5 4.9 2.7 9.7 2.8 13 2.4 1.3-10.9 2.5-21.2 3.6-30.8-2.8.5-7.8.6-12.4-3.1z"/><path class="st0" d="M302 376.1c1.9-16.1 3.8-32 5.6-47-3.3.4-8.1.3-13-2.4-1.9 14.3-4.1 30.1-6.4 46.5 5.5 3.1 10.5 3.3 13.8 2.9zM280.4 430.5c-3.3 24.7-6.5 47.9-8.8 66.3 5.6 4.8 11.8 3.7 15.8 2 2.2-18.2 4.9-41.2 7.8-65.9-4 1.4-9.6 2-14.8-2.4z"/><path class="st0" d="M271.6 496.8c-2.7 21.2-4.3 35.9-4 38.7 1.1 11.3 14.4 8.8 15.1 3.3.2-1.5 2-16.9 4.8-40-4.1 1.7-10.3 2.8-15.9-2zM288.2 373.3c-2.6 18.9-5.3 38.5-7.8 57.2 5.2 4.4 10.8 3.9 14.9 2.4 2.2-18.4 4.5-37.7 6.7-56.7-3.3.3-8.3.1-13.8-2.9zM324.9 189.4c-3.3.5-7.7.3-11.9-2.5-4.4 32.1-9 65.8-11.1 84.4-.6 5.5-1.7 13.7-3 24 4.5 3.7 9.5 3.6 12.4 3.1 1.8-15.4 3.4-28.8 4.6-38.8 2.5-22.5 5.8-47.3 9-70.2z"/><path class="st0" d="M317.8 152.4c-1.5 10.7-3.1 22.5-4.8 34.5 4.2 2.8 8.6 3 11.9 2.5 1.7-12.4 3.4-24.2 5-34.8-3.3.3-7.9.1-12.1-2.2zM356.1 308.3c-9-9.3-19.3-21.9-22.1-39.6s3.4-38.7-1.2-44.9c-4.6-6.1-15.9-14.5-17.8-14.5-1.9 0-4.1 2.3-2.5 8.4s6.1 7.3 6.9 10.3c.8 3-3.4 10.5-2.9 18.6s7.9 9.4 7.9 9.4"/><path class="st3" d="M486.2 515.5c27.3 41.6 113.2 67.4 136.2 73.7-1-3.6-1.9-7.3-2.9-11.1-28.3-9.9-115.5-33.3-134.9-89.3-18.9-54.3-18.8-139.9-24.4-178-3.5.4-6.6.6-9.2.7 3.1 42.7 8.8 163.6 35.2 204z"/><path class="st1" d="M443.5 311.6c2.5 42.2 11.1 158.2 33.2 203.9 23.4 48.5 121.7 77.5 148.6 84.6-.9-3.5-1.9-7.2-2.9-10.9-22.9-6.3-108.9-32-136.2-73.7-26.4-40.3-32.1-161.3-35.3-204-3.5.2-6.1.1-7.4.1z"/><path class="st3" d="M476.7 515.5c-22.1-45.7-30.7-161.7-33.2-203.9h-.8.8c-.2-3.5-.4-6.4-.5-8.8l-13.7 2.6 2.2 10.2s-6.7 13.3 5.8 87.7 4.8 114.9 38 143.8c33.2 28.9 132.9 74.3 156.8 78.1-2-7.3-4.3-15.8-6.8-25.2-26.9-7.1-125.2-36-148.6-84.5z"/><path class="st1" d="M451.3 457.8c.8 2.2 5.6 2.1 9 1.7-.5-2.4-.9-4.9-1.4-7.4-3.1 1-8.5 3.2-7.6 5.7zM446.8 419.4c.6 2.5 4.5 2.9 7.3 2.8-.4-2.5-.7-5.1-1-7.6-3.2.8-6.9 2.3-6.3 4.8zM449.2 437.1c0 2.6 4.5 2.5 7.5 2.2-.4-2.3-.7-4.5-1.1-6.8-2.6.7-6.4 2.1-6.4 4.6zM436.9 340.5c-.3 3.5 5.2 4.4 8.9 4.7-.2-2.9-.5-5.8-.7-8.6-2.9-.1-7.8.3-8.2 3.9zM439.5 365.5c.1 3.1 5 3.9 8.5 4.1-.2-2.5-.5-5-.7-7.5-3.5-.1-7.9.4-7.8 3.4zM442.7 387.1c0 2.6 4.2 2.6 7.3 2.2-.2-2.2-.5-4.4-.7-6.6-2.6.5-6.6 1.6-6.6 4.4zM444.8 402.6c-.2 2.2 3.8 2.4 7 2.1-.2-1.9-.5-3.9-.7-5.8-2.9.6-6.1 1.7-6.3 3.7zM549.7 584.4c3.5 1.2 6.7-3.7 8.5-7.3-2.9-1.2-5.8-2.5-8.7-3.8-1.5 3.7-3.4 9.8.2 11.1zM526.5 571.9c3.3 1.8 8-2 10.7-4.7-3.2-1.7-6.5-3.4-9.6-5.2-1.9 2.8-4.6 8-1.1 9.9zM574.5 594.2c3.3 1.2 6.4-3.8 8.2-7.5-3.5-1.3-7-2.6-10.7-4-.6 4.2-.8 10.3 2.5 11.5zM459.7 508.2c1.5 3.9 9.8 2.1 14.2.9-1.1-2.7-2.1-5.5-3.1-8.5-5 1.3-12.5 4-11.1 7.6zM499.1 555c3.4 3.3 7.7-1.2 10.1-4.5-2.7-1.9-5.3-3.9-7.8-5.9-2.4 2.4-5.9 7-2.3 10.4zM455.8 480c1 3.3 6.3 2.9 9.6 2.3-.7-2.7-1.3-5.4-2-8.2-3.7.9-8.5 2.8-7.6 5.9zM474.2 533.9c2.6 3.8 9.8-.2 13.3-2.5-2.1-2.4-4-4.8-5.8-7.4-3.9 2.3-9.9 6.4-7.5 9.9zM599.8 592.5c-1.3 4-2.6 10.1 1.4 11.8 4.1 1.7 7.8-4.3 9.8-8.4-3.5-.9-7.2-2.1-11.2-3.4z"/><path class="st2" d="M429.7 339c-.4 9.5 11.4 13.4 16.8 14.7-.8-8.8-1.4-17.1-1.9-24.4-3.3-.3-14.4-.7-14.9 9.7zM431.5 315.6c-1.6 9.3 9.8 12.8 13.2 13.7-.6-8.8-1.1-16.3-1.4-21.9-4.3 0-10.6 1.1-11.8 8.2zM448.7 377.3c-4.8.4-15.1 2.1-14 10.2 1.2 8.2 11.1 8.3 15.3 7.9.2 0 .4-.1.6-.1-.6-6.1-1.3-12.1-1.9-18zM431.7 364.4c.5 9.9 11.9 12.2 17 12.7-.8-8-1.5-15.7-2.1-22.9-5-.3-15.3.4-14.9 10.2zM547.2 590.6c8.6 4.4 15.6-6 18.2-10.5-7-2.9-14.2-6-21.3-9.4-2 5.3-4.8 15.9 3.1 19.9zM494.4 561c10.1 7 20.1-1.7 23.2-4.9-9.2-5.8-17.6-12.1-24.6-19-2.9 5.1-8.2 17.3 1.4 23.9zM572.5 602.7c10.2 4.8 16.5-7.9 18.6-13-7.9-2.7-16.4-5.8-25.2-9.4-1.3 5.1-3.4 17.7 6.6 22.4zM522.5 577.7c8.5 4.8 16.9-3 20.8-7.4-8.7-4.2-17.3-8.9-25.3-13.9-1.5 4.1-5 16 4.5 21.3zM442.1 437.9c.8 6.4 10.2 6.6 15.4 6.2-.9-5.4-1.8-10.9-2.6-16.4-4.7.9-13.6 3.6-12.8 10.2zM447 480.9c1 8.9 14.8 10.6 21 10.9-2.3-7.9-4.4-16.7-6.4-25.9-3.4.9-15.8 5-14.6 15zM444.1 456.7c.1 9.9 13.8 9.3 17.5 9-1.4-6.9-2.8-14.1-4-21.4-5 1.1-13.6 4.2-13.5 12.4zM591.4 589.8c-1.2 5.6-3.1 20.9 8.8 24.9 11.3 3.8 17.2-9.7 19.3-16.2-7.2-2-17-4.9-28.1-8.7zM477.9 517.7c-4.9 2.9-18.9 12.5-10.1 21.7 8.3 8.7 20 .8 24.6-2.9-6-5.8-11-12.1-14.5-18.8z"/><path class="st2" d="M450 395.4c-4.1.6-13.5 2.8-12.3 9.3 1.2 6.3 8.8 5 12.5 4 1.2-.4 2-.6 2-.6s-.8.3-2 .6c-3.8 1.4-11.4 5-10.4 12 1 6.8 10.3 7.1 15.1 6.8-1.6-10.7-3-21.6-4.2-32.2-.2 0-.4 0-.7.1zM468.1 492.1c-5.9.8-18.7 4-16.1 16 2.7 13 20 10.4 25.7 9.2l-.9-1.8c-3.2-6.5-6.1-14.5-8.7-23.4z"/><path class="st4" d="M557.5 283.6c-18.2 21.9-70.6 85.4-90 111.2 1.1 11.9 2.4 24 4.1 36L567.8 317c-3.6-13.6-7.2-25.1-10.3-33.4zM488.8 304.5c-10.2 3.5-19.8 5.3-27.7 6.2-.3 0-.6.1-.9.1 1.9 12.9 3.2 31.4 4.8 52.2 9.7-19 25.6-45.5 37-63.9-4.5 2.1-8.9 3.9-13.2 5.4zM567.8 317l-96.1 113.7c1.9 13.1 4.2 26 7.1 38 18.9-23.8 77.8-84.9 99.1-107-3.1-16.1-6.6-31.4-10.1-44.7z"/><path class="st4" d="M583.7 398.5c-1.5-12.4-3.5-24.8-5.8-36.7-21.3 22-80.2 83.2-99.1 107 1.7 7 3.6 13.7 5.8 20 1.8 5.1 4.1 10 7 14.6 22.8-38.4 69-83.6 92.1-104.9zM551.9 270.7c-4.6-7-10.9-11-14.9-13.1-1.5 4-3.8 9-6.8 14.1-2.4 4-5.3 8.2-8.8 12.2-3.4 3.9-7.5 7.6-12.2 10.8l-6.7 3.9-.6.3c-11.4 18.5-27.4 45-37 63.9.8 10.1 1.6 20.9 2.6 31.8 19.4-25.8 71.8-89.3 90-111.2-2.2-6-4.2-10.4-5.6-12.7zM604.6 517.9c-9.6 13.6-21.6 31.3-29.2 44.6 18.2 7.2 34.6 12.1 44.2 15.5-5-18.5-10.2-39.1-15-60.1z"/><path class="st4" d="M596.7 482.1c-18.1 21-43.7 51.3-53.9 65.4 10.8 5.9 22 10.8 32.5 15 7.7-13.4 19.7-31 29.2-44.6-2.7-11.9-5.4-23.9-7.8-35.8z"/><path class="st4" d="M589.8 445.7c-23.2 21.4-62.5 58.8-78.2 80.8 9.3 8.1 20.1 15.1 31.2 21.1 10.1-14.2 35.8-44.4 53.9-65.4-2.6-12.5-5-24.8-6.9-36.5z"/><path class="st4" d="M589.8 445.7c-2-12.2-3.7-23.9-4.7-34.5-.4-4.2-.9-8.5-1.4-12.7-23 21.4-69.3 66.5-92.1 104.9 5.3 8.6 12.2 16.2 20.1 23.1 15.6-22.1 54.9-59.5 78.1-80.8z"/><path class="st5" d="M581.7 384.6c-25.1-12.8-76.6-37.3-118.7-46 .2 2.2.4 4.5.5 6.8 43.5 9.5 96.7 35.5 119.3 47.2-.3-2.7-.7-5.4-1.1-8zM585.1 411.2c-.1-.6-.1-1.2-.2-1.8-25.3-12.4-84-39.7-119.8-44.2.2 2.2.3 4.4.5 6.7 36.4 5.1 98 34.3 120.1 45.2-.2-2-.4-4-.6-5.9zM589.8 445.9c-7.6-4.4-18.8-10.7-32.2-17.4-22.8-11.4-56.6-26.4-90.1-34.1.2 2.3.4 4.6.7 6.9 52.2 12.5 105.9 42.8 123.1 53.1-.5-2.9-1-5.7-1.5-8.5zM595.7 477.4c-29.4-14-86.2-39.9-124.5-50.3.3 2.4.7 4.7 1 7.1 39.9 11.3 98.3 38.3 125.2 51.3-.6-2.8-1.2-5.4-1.7-8.1zM603.9 514.9c-18.5-9.5-75-37.4-126-49.8.6 2.4 1.1 4.8 1.8 7.2 55.7 14.2 117.2 46.3 126.2 51.1-.7-2.9-1.4-5.7-2-8.5zM614.6 558.9c-.7-2.9-1.5-5.9-2.2-8.9-7.7-4.5-18.6-10.5-31.6-16.7-22.3-10.6-55.1-23.8-88-28.2 1.7 2.6 3.5 5 5.4 7.4 30 5 59.3 16.9 79.7 26.6 16.3 7.9 29.4 15.5 36.7 19.8zM558.6 286.5c-8.8-5-19.3-10.6-28.7-14.3-1.1 1.8-2.3 3.7-3.6 5.6 11.6 4.4 25.6 12.2 35.5 18.1-1.2-3.4-2.2-6.5-3.2-9.4zM567.3 315.1c-15-6.9-35.2-15.7-55-22.5-1 .8-2 1.5-3 2.2-1.2.8-2.5 1.6-3.8 2.4 23.2 7.6 47.8 18.5 64 26.1-.8-2.8-1.5-5.5-2.2-8.2zM578.8 366.7c-.5-2.8-1-5.6-1.6-8.3-19.9-10.9-64.9-34.1-109.7-48.5-2.3.4-4.4.7-6.4.9-.3 0-.6.1-.9.1.2 1.2.3 2.4.5 3.7 49.8 15.2 101.2 42.7 118.1 52.1z"/><circle class="st5" cx="533.5" cy="291.7" r="3.3"/><circle class="st5" cx="557.5" cy="302.8" r="3.3"/><circle class="st5" cx="544" cy="270.7" r="3.3"/><circle class="st5" cx="512.4" cy="313.6" r="3.3"/><circle class="st5" cx="540.7" cy="326.2" r="3.3"/><circle class="st5" cx="471.7" cy="327.9" r="3.3"/><circle class="st5" cx="496.8" cy="338.2" r="3.3"/><circle class="st5" cx="524.8" cy="348.5" r="3.3"/><circle class="st5" cx="549.7" cy="360.5" r="3.3"/><circle class="st5" cx="481.1" cy="359.6" r="3.3"/><circle class="st5" cx="508.5" cy="366.7" r="3.3"/><circle class="st5" cx="536.7" cy="378.6" r="3.3"/><circle class="st5" cx="567.8" cy="392.9" r="3.3"/><circle class="st5" cx="487.7" cy="388.6" r="3.3"/><circle class="st5" cx="498.6" cy="422.1" r="3.3"/><circle class="st5" cx="528.1" cy="432.6" r="3.3"/><circle class="st5" cx="505.3" cy="457.7" r="3.3"/><circle class="st5" cx="536.7" cy="470.7" r="3.3"/><circle class="st5" cx="571.1" cy="485.4" r="3.3"/><circle class="st5" cx="559.3" cy="448.7" r="3.3"/><circle class="st5" cx="519.5" cy="399" r="3.3"/><circle class="st5" cx="549.7" cy="411.2" r="3.3"/><circle class="st5" cx="576.2" cy="425.5" r="3.3"/><path class="st5" d="M481.3 306.8c.5 1.3 1.7 2.2 3.1 2.2 1.8 0 3.3-1.5 3.3-3.3 0-.3 0-.6-.1-.8-2.1.7-4.3 1.3-6.3 1.9zM572.9 338.1c-.5-.4-1.2-.6-1.8-.6-1.8 0-3.3 1.5-3.3 3.3s1.5 3.3 3.3 3.3c1.2 0 2.3-.6 2.8-1.6-.3-1.4-.6-2.9-1-4.4zM579.7 371.9h-.2c-1.8 0-3.3 1.5-3.3 3.3 0 1.8 1.5 3.3 3.3 3.3.4 0 .8-.1 1.2-.2-.3-2.1-.6-4.2-1-6.4zM468.7 381.9c0-1.6-1.1-2.9-2.6-3.2.2 2.1.3 4.2.5 6.3 1.3-.5 2.1-1.7 2.1-3.1zM470.8 414.8c1.8 0 3.3-1.5 3.3-3.3 0-1.8-1.5-3.3-3.3-3.3-.7 0-1.3.2-1.8.6.2 2 .4 3.9.7 5.9.3 0 .6.1 1.1.1zM592.6 461.8h-.4c-1.8 0-3.3 1.5-3.3 3.3 0 1.8 1.5 3.3 3.3 3.3.6 0 1.1-.1 1.6-.4-.4-2.1-.8-4.2-1.2-6.2z"/><circle class="st5" cx="516.1" cy="495.4" r="3.3"/><circle class="st5" cx="549.6" cy="507.2" r="3.3"/><circle class="st5" cx="586" cy="522.4" r="3.3"/><circle class="st5" cx="600" cy="559.7" r="3.3"/><circle class="st5" cx="565.5" cy="545.6" r="3.3"/><circle class="st5" cx="531.4" cy="530.6" r="3.3"/><path class="st5" d="M478.8 447.6c0-1.8-1.5-3.3-3.3-3.3-.6 0-1.1.1-1.6.4.4 2.1.7 4.2 1.1 6.2h.5c1.8 0 3.3-1.5 3.3-3.3zM488.7 485.4c0-1.8-1.5-3.3-3.3-3.3-1.1 0-2 .5-2.6 1.3.6 1.8 1.1 3.6 1.7 5.3.3.1.6.1.9.1 1.9 0 3.3-1.5 3.3-3.4zM596.7 500c0 1.8 1.5 3.3 3.3 3.3.4 0 .8-.1 1.2-.2-.5-2.1-1-4.3-1.4-6.4-1.8.1-3.1 1.5-3.1 3.3zM608 532.4c-1.3.5-2.2 1.7-2.2 3.1 0 1.8 1.5 3.3 3.3 3.3h.4c-.5-2.1-1-4.3-1.5-6.4z"/><path class="st0" d="m433.1 215.7 2.5-9.1-8.4-37.7 20.4-25.6 32.1 8.1 32.1 48.6 11.8 45.5-18.8 32.9-43 13.1s1.6-36.5-27-47.4l-3.3-11.7 25-2.1-11.5-13.5-11.9-1.1z"/><path class="st0" d="M435 231.3s-8.5-3.1-6.5 1-10.8 10.9-6.1 17.2c4.7 6.3 27.7-7.8 35.8-6.9"/><path class="st0" d="M436.9 234.8s-8.6 1.4-11.4 0c-2.9-1.4-3.9-4.6-3.9-6.8s19.7 2.7 17.3-3c-2.4-5.7-15.2-1.1-18.2-5.4s-3.2-14.7-3.2-14.7l17.2-55.8c1.1.3 30.2 3.5 30.2 3.5l30.5 18M417.6 91s-12.8-8.3-20.3-15.8-11.6-20.4-21.4-25.2c-1.1 10.2 16.1 29.3 19.3 41s21.2 9 21.2 9l1.2-9z"/><path class="st0" d="M344.6 50c6.3 7.5 13.5 16 26.5 20.6 13.1 4.6 20.8 8.4 27.9 19.1s-25.3 6.3-30.8-4.1c-5.3-10.5-26.6-20.2-23.6-35.6z"/><path class="st0" d="M321.2 53.4c2.5 19.5 25.7 41.4 34 43.4s24.8 6.7 25.6 6.4c.8-.3 29.7 11.4 29.7 11.4l7.1-12.5S404 85.8 383.8 84c-20.2-1.8-19.1 1.5-35.7-6.9-16.4-8.4-17.1-11.2-26.9-23.7z"/><path class="st0" d="M311.4 71.4c2.2 19.6 35.1 27.7 39.2 35.5 4.1 7.8 38.7 7.8 38.7 7.8l21 5.7s21.2-16.9 2.2-16.3-20.5-6.9-37.6-9.1c-17.1-2.2-22.3-.8-36.5-5.9-14.2-5.1-17.2-7.1-27-17.7z"/><path class="st0" d="M291.3 78.7s9.5 25.1 37.4 31.9c27.9 6.8 35.1 2.6 50.6 5.3s30.4 11.3 30.4 11.3l.8-12.5s-8.1-6.7-24.6-8.9-38 .5-56.8-5.5c-18.8-6.1-37.8-21.6-37.8-21.6zM542 136.5s13.8 16.8 31.4 14.5c17.7-2.3 27.4-10.9 36.9-9.6s22.1 12.5 22.1 12.5-10.1-3.4-19.6-3.1c-9.5.3-42.2 17.3-58.5 20 2.5 5.7 4.2 20 18.4 25.5 14.2 5.4 20.6-1.5 26.8 1.2 6.3 2.7 17.2 24.2 16.9 30.5-13.6-5.7-16.3-18.2-27.8-18.9s-24.5 8-38.4-4.5-10.6-21-13.6-25.3c-3-4.4-10.9-4.5-10.1-5.7s.3-24.2.3-24.2l15.2-12.9zM428.5 202.1s8.2 5.3 3.5 9.1c-4.6 3.8-7.7-2.5-10.1-2.7s-6.3 3.1-10.9 4.5c-4.7 1.4-9.5 1.5-10.9-2.5-1.4-3.9 17.3-18.2 20.8-24.2 1.8-3-.3-10.3 1.7-17.4 1.9-6.9 7.9-13.6 7.8-16.1-.1-4.9 8.4-7.9 8.4-7.9l40.7 8.9"/><path class="st3" d="M404.7 278.3c10.1 8.8 21.2 13.9 26.8 16.2l1.6-12.5s-10.1-3.4-15.5-14.9C412.2 255.7 389 247 389 247s1.4 18.9 15.7 31.3z"/><path class="st1" d="M402.2 282.1c9.3 8.1 21.5 13.2 28.8 15.8l.5-3.5c-5.6-2.3-16.7-7.4-26.8-16.2C390.4 265.9 389 247 389 247s-1.1 22.7 13.2 35.1z"/><path class="st3" d="M402.2 282.1C387.9 269.7 389 247 389 247s-8.1 18.9 4.6 35 36.8 20 36.8 20l.5-4.1c-7.2-2.5-19.3-7.7-28.7-15.8z"/><path class="st2" d="M417.6 267.2c-.7-1.4-1.6-2.7-2.7-4-3.9 1.6-9 4.9-4.7 11.3 3.9 5.7 9.8 4.1 14 1.9-2.3-2.4-4.7-5.3-6.6-9.2z"/><path class="st0" d="m418.7 492.1-121.6-16.2-20.6 67.6 19.1 5.6 9.9-61.3 13.3 12.9-10.3 53.1 22 3.7 2.8-46.8s12.8 3.8 12 4.1c-.5.2-2.9 27.4-4.4 45.8l22.4 3V516l10.6 1.7v45.7l22-1.5-4.3-50.4 11.4-3.8 3.4 52.8c6.4-8.2 13.7-17.4 20.4-27.1l-8.1-41.3z"/><path class="st6" d="m339.5 577 23.8 2.2v-15.8l-22.4-3c-.9 9.5-1.4 16.6-1.4 16.6zM395.8 562l-22 1.5v17.7l18.6-1.8c1.3-1.9 2.7-4 4.3-6.2l-.9-11.2zM271.6 559.3l21.3 6 2.6-16.2-19-5.7zM305.2 570.7l24.2 3.9 1-17.2-21.9-3.7z"/><path class="st7" d="M493.3 90.3c-3.8 7.7-11.6 24-14.1 33.7l2.5 1.7c2.3-6.7 14.2-24.7 18.9-31.8-2.3-1.3-4.7-2.5-7.3-3.6zM482.1 87.4c-6.5 10.1-8.7 32.7-8.7 32.7l2.9 1.9c2.2-9.9 7.3-25.4 10.2-33.9-1.4-.3-2.9-.5-4.4-.7z"/><path class="st7" d="M486.5 88.2c-2.9 8.4-8 24-10.2 33.9l2.9 2c2.5-9.7 10.3-26 14.1-33.7-2.2-1-4.5-1.7-6.8-2.2zM500.6 93.9c-4.7 7.1-16.6 25.1-18.9 31.8l2.3 1.5c3.6-6.3 16.6-23.3 21.8-30.1-1.6-1.1-3.4-2.2-5.2-3.2zM517.5 106.8s-2.4-2.5-6.3-5.6c-6.7 7-20.3 21.3-25.4 27.2l2.8 1.9 28.9-23.5z"/><path class="st7" d="M505.8 97.1c-5.2 6.8-18.2 23.8-21.8 30.1l1.9 1.2c5.1-5.9 18.7-20.2 25.4-27.2-1.6-1.3-3.5-2.7-5.5-4.1zM468.3 139.2l-2.1-.6c-2.4 5.2-5.4 12-7 16.9 2 .4 3.9.8 5.8 1.3 1.4-5.5 4.2-12.6 6-16.8-.9-.2-1.8-.5-2.7-.8z"/><path class="st7" d="M471 140.1c-1.8 4.2-4.6 11.2-6 16.8 1.6.4 3.2.9 4.6 1.3 1.9-5.1 5-12.1 6.8-16.2-1.7-.7-3.5-1.3-5.4-1.9zM460.7 137c-2.5 5.4-5.6 12.4-7.4 17.4 2 .3 3.9.7 5.9 1.1 1.6-5 4.5-11.7 7-16.9-1.9-.6-3.7-1.1-5.5-1.6z"/><path class="st7" d="M476.5 142c-1.8 4.1-4.9 11.1-6.8 16.2 2 .6 3.8 1.3 5.4 2.1 1.2-5.3 4-13.2 5.2-16.8-1.3-.5-2.5-1-3.8-1.5zM439.8 133.2c-3.9 4.1-10.1 12-9.2 19.6.3-.3 1.8-.4 4.1-.3 1.9-6.5 6-13.4 10-18.7-1.7-.2-3.3-.4-4.9-.6zM450.6 134.8c-3.2 5.5-7.3 12.8-9.4 18.1 1.9.2 4 .4 6.1.7 1.6-5 5-12.5 7.5-17.9l-4.2-.9z"/><path class="st7" d="M454.8 135.7c-2.6 5.4-5.9 12.8-7.5 17.9 1.9.2 3.9.5 6 .9 1.8-4.9 4.9-12 7.4-17.4-2-.6-3.9-1-5.9-1.4zM444.7 133.8c-4 5.3-8.1 12.1-10 18.7 1.8 0 4 .2 6.5.4 2.1-5.2 6.2-12.6 9.4-18.1-2-.3-4-.7-5.9-1zM506.2 157.3c-1.7-1.1-3.5-2.3-5.4-3.4-.2-.1-.5-.3-.7-.4.9 12.5 1.9 30.6 1.6 41 1.9-.2 3.8-.2 5.6 0 0-10.4-.6-27.2-1.1-37.2z"/><path class="st7" d="M512.3 161.5c-1.9-1.4-3.9-2.8-6.1-4.3.4 10 1.1 26.9 1 37.1 2.1.2 4.1.6 6 1.3.2-8.9-.3-22.6-.9-34.1z"/><path class="st7" d="M512.3 161.5c.5 11.5 1 25.1 1 34.2 2.2.8 4.2 1.8 6 3.2l-1.2-33c-1.7-1.3-3.6-2.8-5.8-4.4zM523.2 170.3c-1.3-1.2-3-2.7-5.1-4.4l1.2 33c1.9 1.5 3.6 3.3 5 5.5.9 1.5 1.6 3.1 2.1 4.8l-3.2-38.9zM500.1 153.4c-2-1.2-4.1-2.4-6.3-3.5.3 7.7 1.1 28.7 2 45.6 1.9-.5 3.9-.9 5.9-1.1.3-10.4-.7-28.5-1.6-41zM489.3 147.6c-1.5-.7-3-1.4-4.6-2.2-.9 4.5-2.4 12.7-3.4 19.7.1.2.2.3.3.5 3.6 7.8 5 25.3 5.5 34.1 1.1-.9 2.4-1.8 4-2.5-3.2-21.2-2.3-41.6-1.8-49.6z"/><path class="st7" d="M480.3 143.5c-1.3 3.6-4.1 11.5-5.2 16.8 3 1.4 5.3 3 6.3 4.8 1-6.9 2.5-15.2 3.4-19.7-1.5-.6-3-1.3-4.5-1.9zM489.3 147.6c-.5 8-1.4 28.4 1.7 49.6.1-.1.2-.1.3-.2 1.4-.6 2.9-1.2 4.4-1.6-.9-16.9-1.7-37.9-2-45.6-1.3-.7-2.8-1.5-4.4-2.2z"/><path class="st1" d="m536.2 247.4-4-.8c-2.8 7.9-11.8 27.2-35.1 40.2-22.1 12.4-42.8 13.9-52.1 13.8l-1 4.8c9.4-.2 33.2-2.1 56.4-14 23.8-12.3 33.1-35.4 35.8-44z"/><path class="st3" d="M488.3 275.6c-3.5 2.2-7 4-10.3 5.5l5 12.3c4.6-1.8 9.3-3.9 14.1-6.6 1.4-.8 2.8-1.6 4.1-2.4l-8.7-11.4c-1.3.8-2.7 1.7-4.2 2.6z"/><path class="st3" d="M464.4 285.9 468 298c4.7-1.1 9.7-2.5 15-4.6l-5-12.3c-4.9 2.1-9.5 3.7-13.6 4.8z"/><path class="st3" d="m447.6 288.7-2.5 11.9c4.9 0 13.1-.4 22.9-2.6l-3.6-12.1c-10 2.7-16.8 2.8-16.8 2.8zM520 244s-4.3 7.7-13 16.6l12.2 8.1c7.6-8.9 11.3-17.5 13-22.1L520 244z"/><path class="st3" d="m492.5 272.9 8.7 11.4c7.6-4.8 13.5-10.3 18-15.6l-12.2-8.1c-4 4-8.8 8.3-14.5 12.3z"/><path class="st1" d="M489.6 282c-2.5.7-1.4 5.6-.4 8.7 2-.9 4.1-1.9 6.1-3-1.4-2.8-3.5-6.3-5.7-5.7zM457.8 291.8c-2.5 0-2.1 5.2-1.6 8.2 1.9-.2 4-.5 6.1-.9-.6-2.5-1.9-7.3-4.5-7.3zM473.3 288.7c-2.8 1.4-1.2 5.8-.2 8 2-.6 4.2-1.2 6.3-2-.9-2.3-3.2-7.5-6.1-6zM517.7 257.2c-1.8 3.1 2.2 6.3 4.5 7.8 1.4-1.9 2.7-3.8 3.8-5.6-2.2-2-6.5-5.3-8.3-2.2zM505.8 270.7c-1.9 2.3.8 5.9 2.9 8.2 1.9-1.5 3.7-3.1 5.3-4.7-2.1-2.4-6.1-6-8.2-3.5z"/><path class="st3" d="m459.8 304 1.3 6.7c7.8-.9 17.5-2.7 27.7-6.2l-6.1-5.8c-8.4 2.7-16.2 4.3-22.9 5.3zM444 305.4l-1.3 6.1s7.4.5 18.4-.8l-1.3-6.7c-6.7 1-12.3 1.3-15.8 1.4z"/><path class="st3" d="M500.4 291.4c-6 3.1-12 5.5-17.7 7.3l6.1 5.8c4.5-1.6 9.2-3.5 13.8-5.8 2.4-1.2 4.6-2.5 6.7-3.9l-8.1-3.8c-.3.1-.6.3-.8.4zM524.5 270.5c-2.9 4-6.4 7.9-10.5 11.6l7.5 1.9c3.5-4 6.4-8.1 8.8-12.2l-5.8-1.3z"/><path class="st3" d="m501.1 291 8.1 3.8c4.7-3.2 8.7-6.9 12.2-10.8l-7.5-1.9c-3.7 3.3-7.9 6.3-12.8 8.9zM540 248.2l-3.8-.8c-1.5 4.7-5 13.8-11.7 23.1l5.7 1.3c7.3-12.4 9.8-23.6 9.8-23.6zM434 307.7l-3.5-10.6s-8.2-4.6-24.6-2.2c-16.3 2.5-32.1 15-32.1 15 22.7 12.1 51 1.8 60.2-2.2z"/><path class="st1" d="m435.2 311.6-1.3-3.9c-9.1 3.9-37.4 14.3-60.2 2.2 23 17.6 51.9 6.4 61.5 1.7z"/><path class="st3" d="M373.8 309.9s16.4 16.9 40 14.4h.3l-6.1-5c-10.9.9-23.2-1-34.2-9.4zM437.4 318.3l-2.2-6.7c-5 2.4-15.3 6.6-27.2 7.6l6.1 5c23.3-2.3 23.3-5.9 23.3-5.9z"/><path class="st2" d="M393.2 298.6c2 4 6.5 10.9 12.8 8.8 5.5-1.8 5.6-8.4 4.9-13-1.6.1-3.2.3-5 .6-4.4.6-8.7 2-12.7 3.6z"/><path class="st3" d="M437.8 282.6c-3.9-.9-7.7-.9-9.8 1-4.9 4.4-6.6 33.5.9 36.8 2 .9 4 1.4 5.9 1.6 2.1-8.4 5.2-24.5 3-39.4zM449.8 288.5c-1.2-1.3-3.6-2.8-6.4-4 1.7 14.1-1.1 29-3.2 37.2 2.9-.7 5.1-2.1 6.3-4.2 2.5-4.3 6.8-25.3 3.3-29z"/><path class="st1" d="M443.3 284.5c-1.8-.8-3.7-1.4-5.6-1.9 2.3 14.8-.9 30.9-3 39.3 1.9.2 3.7.1 5.4-.3 2.1-8 4.9-22.9 3.2-37.1z"/><path class="st3" d="M541.6 237.2c-1.3-5-6.8-6.3-11.1-5.4 3.7 1.6 7.2 5.6 6.1 10.1-1.5 5.9-9.2 9.9-14.4 3.6-5.2-6.4 4.1-21.4 0-36.3-3.1-11-24.7-10.2-35.6-9-5.7 5.4-3.1 12.6-3.1 13.2l28.3 3.9s-6.4 17.6-.4 26.4c6 8.8 11.3 10.6 20.1 9.3 8.6-1.4 12-8.3 10.1-15.8z"/><path class="st3" d="M522.2 209.2c4.1 14.8-5.2 29.9 0 36.3 5.2 6.4 12.9 2.3 14.4-3.6 1.1-4.5-2.4-8.5-6.1-10.1-2.2.5-4.1 1.5-5 3-1-4.6 5.4-19.6-1.2-30.4-6.6-10.8-21.2-12.5-32.9-7.4-2 .9-3.6 2-4.8 3.1 11-1.1 32.6-1.9 35.6 9.1z"/><path class="st3" d="M511.8 214.9c-1.6-4.4-35.4-9.8-40.5-7.9-1.4.5-2.5 2.2-3.3 4.4l44.5 5.7c-.2-.8-.5-1.5-.7-2.2zM467.9 211.4c-2.3 6.2-2.4 16.5 1 16.5 4.6 0 35.8 1.9 40.3 0 3.8-1.6 4.1-6.7 3.2-10.8l-44.5-5.7z"/><path class="st2" d="M525.5 234.8c-3.3 3.9-1.4 12.5 5.4 10.3"/><path class="st0" d="M473.4 120.1c-15-4.3-26.2-8.9-34.5-13.3l-8.4 25.6c10.4.5 23.3 2.3 37.7 6.7 12.7 3.9 23.7 9.3 32.5 14.7l11-24.7c-10.7-1.9-23.7-4.8-38.3-9z"/><path class="st1" d="M417.6 91c-17.4 19.3-12.8 42.8-12.8 42.8s9.9-2.1 25.8-1.3l8.4-25.6C422.4 98.2 417.6 91 417.6 91zM511.8 129.2l-11 24.7c16.4 9.9 25.7 19.7 25.7 19.7s14.4-20.1 21.2-39.8c.1-.1-13.4-.4-35.9-4.6z"/><circle class="st1" cx="471.3" cy="128.8" r="16.1"/><path class="st0" d="M547.8 166.9s6.8 12.5 25.1 13.9c18.2 1.4 24.5-2 32.7.4 8.2 2.5 15 17 15 17s.3-23.1-11.4-27.2c-11.7-4.1-21.8.1-32.9-3.7S557 157.1 557 157.1"/><path class="st2" d="M427.1 180.2c26.9 1.2 29.4 12 29.4 12"/><path class="st2" d="M440.7 181.9c-2.1 1.5-4 3.5-3.8 5.6.5 4.5 5.8 7.9 5.8 7.9M435.2 166.3c2.3 2.1 21.2 2.1 24.5 4.6"/><circle class="st1" cx="363.2" cy="447.2" r="74.4"/><circle class="st0" cx="363.2" cy="447.2" r="61.9"/><path d="m347.4 422.1-3.8 26.7-42.1-6.1c-.1 1.5-.2 3-.2 4.5 0 4.5.5 8.9 1.4 13.2l56.7 8.3 3.9-30.5 19.8 3-2.2 24.7 18.2 2.8 3.8-38.2-55.5-8.4z" style="fill:maroon;stroke:#000;stroke-width:2.4506;stroke-linecap:round;stroke-linejoin:round;stroke-miterlimit:10"/><path class="st6" d="m347.4 422.1 15.6-36.9c-8 0-15.6 1.6-22.7 4.4l7.1 32.5z"/><path d="M436.9 234.8s-8.6 1.4-11.4 0c-2.9-1.4-3.9-4.6-3.9-6.8s19.7 2.7 17.3-3c-2.4-5.7-15.2-1.1-18.2-5.4l34.1-6.1 7.4 19.5-25.3 1.8z" style="fill:#ffce00"/><path class="st2" d="M436.9 234.8s-8.6 1.4-11.4 0c-2.9-1.4-3.9-4.6-3.9-6.8s19.7 2.7 17.3-3c-2.4-5.7-15.2-1.1-18.2-5.4"/></svg>