<svg version="1.1" id="Calque_1" xmlns="http://www.w3.org/2000/svg" x="0" y="0" viewBox="0 0 900 900" style="enable-background:new 0 0 900 900" xml:space="preserve"><style>.st0,.st1,.st2,.st3{fill:red;stroke:#000;stroke-width:4.0952;stroke-linecap:round;stroke-linejoin:round;stroke-miterlimit:10}.st1,.st2,.st3{fill:none}.st2,.st3{fill:#fff}.st3{fill:#006b56}</style><path class="st0" d="M580.3 759.8c1.3 20.3-50 59.2-50 67 0 7.8 22.7 1.6 22.1.3-.6-1.2 60.1-64.8 60.1-64.8L590 718.8s-19.2-10.2-23.5 1c-4.3 11.3 12.5 19.7 13.8 40z"/><path class="st1" d="M550.5 811.5s37.6-34.2 36-53.4c-1.4-19.2-12.1-33.3-12.1-33.3"/><path class="st0" d="M596 748.5s-16-2.5-19.6 2.6c-3.6 5.1-1.8 14.8 4.2 15.4 6 .5 22.3-4.2 22.3-4.2l-6.9-13.8z"/><path class="st2" d="M598.5 755.8c-1 21.4-53.5 66-53.5 72.9 0 6.9 7.8 12.9 12.9 3.6-.2 8.2 11.6 9.3 11.3 0-.7 10.4 11.3 12.2 12.6 4.6 1 10.2 13.3 5.8 13.3 5.8l33.1-50.2c0 .1-28.6-58-29.7-36.7z"/><path class="st1" d="M581.8 836.9c-1.5-7 4.8-14 4.8-14M569.3 832.3c0-5.6 7.2-10.3 7.2-10.3M566.5 819.2s-8.5 5.5-8.5 13.1"/><path class="st2" d="M574 660.5s3.1 41 16.1 78.8c13 37.9 32.5 58.7 32.5 58.7l21.5-31.3s-14.3-68.5-16.1-88.3c-1.7-19.7-15.7-31.8-15.7-31.8L574 660.5z"/><path class="st0" d="M593.2 749.3c-1.9 3.4-.9 13.1 5.6 13.1s38.7-8.6 42-11.3c3.2-2.6 2.4-12.5-2.5-12.5-5 0-43.1 7.3-45.1 10.7z"/><path class="st2" d="M591.8 839.7c2.8-9.9 48.4-70.5 52.2-73 3.8-2.5 4.1 13.1-1 18.7s-34.8 58.7-39.6 62.8c-4.9 4-14.4 1.4-11.6-8.5z"/><path class="st0" d="M442.3 823c-.9-.2-16.5-5.9-13.3-14.6 4.1-11.3 67-59.9 65.5-60.7-1.4-.8-29.6-14.3-20.7-29 8.9-14.6 27.8-4.8 27.8-4.8l6.8 32.2-29.8 54.8-36.3 22.1z"/><path class="st1" d="m438.7 806.1 61.3-58.4-16.4-27.1"/><path class="st0" d="M501.2 735.9s-15 1.1-18.2 4.6c-3.2 3.5-.7 14.8 4.9 16.9 5.6 2 20.6-1.5 20.6-1.5l-7.3-20z"/><path class="st2" d="M500 747.7c-1.2 11.1-63.9 65.6-63.9 73.2 0 4.6 1.7 9.1 6.4 7.2 2 4.3 6.4 6 11.3 1.4 2 7.2 11.8 3.8 13.1-.7 2.8 9.5 13.5 4 13.5.1s55.4-47.9 55.4-47.9-34.5-44.3-35.8-33.3z"/><path class="st1" d="M473 815.1s-8.9 6.4-5.9 13.6M453.9 829.4c-4.1-6.4 9.4-17.1 9.4-17.1M455.9 810.3c-1 .3-17.1 11.7-13.3 17.7"/><path class="st2" d="M490.9 677.9c-5.3 61.7 29.8 114.7 29.8 114.7l31.7-28.7s-11.7-50.1-14.6-93.3c-2.9-43.2-41.5-54.4-46.9 7.3z"/><path class="st0" d="M494.2 741.4c-3.4 4.8 1.3 13.1 5.1 14.3s45.4-6.3 49.2-10.3c4-4 1.5-10.6-2.6-12.3-4-1.7-48.3 3.5-51.7 8.3z"/><path class="st2" d="M480.5 822.3c-5.1 6.9 1.5 13.3 9.9 8.2 8.4-5.1 61.7-53.5 64.5-58.4 2.8-4.8 1-9.8-2.8-9.8-3.7 0-66.5 53.1-71.6 60zM532 359.2c35.2 33.1 23.2 46.1 55.4 138.2 32.1 92.1 63.5 147.4 63.5 147.4s-105.5 35.8-197.3 44.3c-8-88.8-14.4-199.4-26.1-219.7-11.7-20.3-4.3-29.4-6.3-43.8-2.8-11 74.4-68.3 74.4-68.3s1.2-31.3 36.4 1.9z"/><path class="st3" d="M524.6 613.9c-8.5 8.5-19.1 14.7-31 17.9l-39.9 57.3c91.8-8.5 197.3-44.3 197.3-44.3s-9.5-16.7-23.3-47h0c-18 3.7-66.5 13.3-103.1 16.1z"/><path class="st2" d="m492.8 376.2 57-22.8 3.2 2.4 8.3-8.8-44.5-56-34.8-9.2-57.1-3.6-6.4 5-8 24.5s-11.1 14.6-8.4 18.4c2.8 3.8 1.7 16.7 4.1 19.1 2.4 2.4 11.3 0 17.6 0s4.6 8.9.5 8.9-11 1-13.8 1c-2.9 0-3.5 5.8.2 8.2 3.7 2.4 12.4-1.5 14.6 1 2.3 2.6-4.4 25.9 3.1 27.6 7.5 1.7 11.6-8.2 17.7-6.9 6.1 1.3 34.5 47.4 34.5 47.4l1.7-1.8 1.3-3.3c0 .1-.3-37.8 9.2-51.1z"/><path class="st3" d="m424.9 278.1-6.4 5-8 24.5s-11.1 14.6-8.4 18.4c2.8 3.8 1.7 16.7 4.1 19.1 2.4 2.4 11.3 0 17.6 0s4.6 8.9.5 8.9-11 1-13.8 1c-2.9 0-3.5 5.8.2 8.2 3.7 2.4 12.4-1.5 14.6 1 2.3 2.6-4.4 25.9 3.1 27.6 2 .4 3.8.1 5.4-.7 4.3-20.5 4.8-91.3 4.8-112.2l-13.7-.8z"/><path class="st2" d="M446.9 610.3c2.1 26.3 4.3 53.4 6.7 78.8 9.7-.9 19.6-2.1 29.4-3.6l-7.1-77.7-29 2.5z"/><path class="st2" d="m508.8 605.2-33 2.7 7.1 77.7c10.7-1.5 21.6-3.4 32.2-5.4l-6.3-75z"/><path class="st3" d="M450.3 130.2c.2-1-2.6-37.2 27.8-45.4s29.3 8.3 54-1S557 59.9 562.8 50c7.5 14-11.3 43.3-11.3 43.3l-52.9 25.6-14.6 19-33.7-7.7z"/><path class="st3" d="M463.4 128.8s2.3-18.1 23.1-28.4c20.9-10.2 32.8-.5 50.3-6.6s27.7-22.1 34.8-37.5c2 15-18.4 59.4-43 65.2-24.6 5.8-28.2 16.4-28.2 16.4l-37-9.1zM408.5 327s8.6 3.4 5.6 8.9c-1.5 2.8-6.6 1-11.8 1.8s-10.6 4.1-12.7.5c-4.1-7.2 8.1-13.8 12.3-21.5 4.2-7.7 12.3-21.4 13-30 .7-8.7 6.9-3.7 6.9-3.7l10.2.7"/><path class="st1" d="M508.9 431.2s-32.9 40.2-40 76.8l44.3 27.3s30-43.7 33.1-75c2.6-26.1 12.2-45.1 15.4-50.8M456.9 643.4l14.1 7.1M466.9 640.3l-7.2 12.7M459.8 666.8l14 7.1M469.7 663.8l-7.1 12.7M488.9 647.2l14 6.9M498.8 644.1l-7.2 12.6M491.7 667.1l14.1 7M501.7 664.1l-7.2 12.6"/><path class="st3" d="M546.3 460.1c-3.1 31.4-33.1 75-33.1 75l22.5 69.9c26.8-29.2 44.4-87 50.7-110.4-14.4-42-19.8-67.2-24.8-85.5-3.1 5.9-12.7 24.9-15.3 51z"/><circle class="st2" cx="475.4" cy="564.6" r="69.6"/><circle class="st0" cx="475.4" cy="564.6" r="59.5"/><path class="st2" d="M442.9 557.1s-17.1 15-15.4 20.5c1.7 5.4 7.4 9.8 13.1 7.5 5.6-2.4 9.1-6.8 9.1-6.8s-4.1 11.7-1.7 17.1c2.4 5.4 12.6 6.9 16.7 3.8 4.1-3.1 7.7-13.6 7.7-13.6s-.2 11 5.6 15.4 20.2-2 21.5-6.4c1.3-4.4-3.8-17.1-3.8-17.1s6.4 12.3 13 12.3c6.4 0 14-5.2 14-13.3 0-8.1-13-11.6-13-11.6s12 1.7 14.6 0c2.7-1.7 2.4-15.4-1.7-18.4-4.1-3.1-20.8-1-20.8-1l-31.4-11.3h-16.1l-11.4 22.9z"/><ellipse transform="rotate(-101.982 474.624 559.344)" cx="474.6" cy="559.3" rx="19.3" ry="28.6" style="fill:#ffce00;stroke:#000;stroke-width:4.0952;stroke-linecap:round;stroke-linejoin:round;stroke-miterlimit:10"/><path class="st3" d="M441.8 515.5c1.8 8.4 4 27.8-7.7 51.5 23.5 0 25.9-24.9 25.9-24.9s-2.4 21.5 19.1 24.9c8.7-14.7 4.1-23.9 4.1-23.9s12.3 16.4 29.7 7.5c-15-9-19.9-32.9-21.3-43.2-5.1-1.4-10.6-2.3-16.3-2.3-12.4 0-24 3.9-33.5 10.4z"/><path class="st2" d="M249.1 414.2c-1.7-2.8 35.3-46.5 35.3-46.5l-9.4-46.1 44.7 6.4 6.1 30.4 19.5 56.3c0 .1-94.5 2.2-96.2-.5z"/><path class="st1" d="m275 389.5-5.4 13.7M284.4 393.3l-4.6 12.6M299.3 393.3l-4.4 14.8M313.3 396.4l-1.4 11.7M320.5 401.2l.6 8.2M307.5 386l-1.8 9M294 383.3l-2.2 8.6M284.4 381.3l-2.7 7.2"/><path class="st2" d="M256.3 308c-3.4 0-4.6 13-1 13.6 3.6.7 93.9 16.3 97.3 16.3s4.7-11 0-11.9c-4.8-.9-92.9-18-96.3-18z"/><circle class="st3" cx="304" cy="255.8" r="32"/><circle class="st2" cx="304" cy="255.8" r="11.6"/><circle class="st3" cx="311.9" cy="202.5" r="16.4"/><path class="st1" d="M492.8 376.2c-9.5 13.3-9.2 51.2-9.2 51.2"/><path class="st3" d="M334.1 271.4c1-.7-65.8-9.9-65.8-9.9l.5 20.2 58.2 8.9c3.5-10.2 6.7-18.8 7.1-19.2z"/><path class="st0" d="M404.4 150.3s-14-33.5-6.1-38.6 21.5 7.9 67.9 15.4c46.4 7.5 67.6 2.8 67.6 7.9s-21.2 27.6-21.2 27.6l-108.2-12.3z"/><path class="st2" d="M410.4 190.6c-9.2-17.4-23.3-23.2-25.6-28.2-2.3-4.9 7.7-7.7 12.8-5.1-5.1-10 2.8-18.6 11.8-11.8-1.5-7.2 11.4-8.9 19.6-3.1 1.4-6.9 13-5.4 20.4 1.5 1-9.4 16.1-2.9 19.1 2 3.1-4.6 9-3.3 13.6 1 2.3-4.9 12.8-4.3 18.4 4.6 2.6-6.9 18.1-4.9 19.5 1 1.3 5.9 2.7 23 2.7 23l-40 52.7-49.7-.5c-.1.2-13.4-19.7-22.6-37.1z"/><path class="st1" d="M500.5 151.7c4.3 5.6 3.6 16.7 3.6 16.7M482 147.1c5.9 4.6 9 20.3 9 20.3M468.5 146c4.9 7 4.9 18.9 4.9 18.9M449.3 144c7.3 5.6 12.5 22 12.5 22M428.9 142.4c7.6 4.6 13 20.2 13 20.2M428 167s-9.9-16.3-18.6-21.5M397.6 157.3l16 14.5"/><path class="st2" d="M478.4 183.9c-2-3.6-24.1-6.1-28.2-3.1s0 32.8-5.6 33.3-14.7-26.6-17.9-29.2c-3.2-2.6-25.6-1.5-25.6 2 0 3.6 5.1 19.7 9.2 36.9 2 8.5 27.8 9.6 53.4 8.5 3.4-12.6 9.7-20.3 9.7-20.3-3.2-2.6 7.1-24.5 5-28.1z"/><path class="st3" d="M503.4 187.2c-15.9 12.9-26.1 27.8-29.9 24.9 0 0-6.3 7.8-9.7 20.3 26.1-1.1 52-4.4 52-4.4s.5-25.8 7.7-30.2l.6-.3-20.7-10.3z"/><path class="st2" d="M533.7 173.7c-10.6 0-21.1 6-30.3 13.5l20.7 10.2c6.9-3.9 12.9-.2 18.8-2.3 6.2-2 1.6-21.4-9.2-21.4zM466.7 223.8h-56.3l.8 10.9 51.9.7c1-4.6 2.3-8.5 3.6-11.6z"/><path class="st3" d="M466.7 223.8c-1.2 3.1-2.5 7-3.6 11.7l56.7.8.7-12.5h-53.8z"/><path class="st2" d="m464.3 276.7-50.3-1.3.8 11.5 51.7 2c-.2-1.8-.4-3.5-.6-4.7-.4-2.6-1-5.1-1.6-7.5z"/><path class="st3" d="M466.1 284.1c.2 1.2.4 2.9.6 4.7l50.2 2 .7-12.8-53.1-1.4c.4 2.5 1 5 1.6 7.5z"/><path class="st2" d="M461.8 241.8c.4-2.3.8-4.3 1.3-6.2l-51.9-.7 3 40.6 50.3 1.3c-2.7-10.4-5.5-19.6-2.7-35z"/><path class="st3" d="M461.8 241.8c-2.8 15.5.1 24.7 2.7 34.9l53.1 1.4 2.3-41.8-56.7-.8c-.6 2-1 4-1.4 6.3z"/><path class="st1" d="m434.9 246.4-2.9 16.9M425.7 251.5l15.9 5.8M461.5 246.4l-2.9 16.9M452.3 251.5l15.9 5.8"/><path class="st2" d="m326.9 290.6-58.2-8.9.7 28.5c12.2 2.3 30.9 5.7 47.4 9 2.4-6.8 6.4-18.5 10.1-28.6z"/><path class="st3" d="M267.2 206.9c-3.4 0-1.3 16.1 3.1 16.9 2.3.4 21.7.5 40.7 4.4 18.4 3.7 36.7 11.2 38.5 10.1 3.8-2 9.1-12 6.1-15.7-1.5-1.8-22.2-9.8-43.2-13.2-21.6-3.5-43.4-2.5-45.2-2.5zM280.8 164.6c.7-2.4 28.7-54 28.7-54l28.7 57.8-57.4-3.8z"/><path class="st3" d="M280.8 190.6c1.3-1.7 30.1-41 30.1-41l23.1 44.7-53.2-3.7z"/><path class="st2" d="M421.9 430.9c-2.1 1.5-4.4 2.5-6.4 2-3.1-.6-20.6-17.5-38.1-32.9-18.3-16.1-39.4-30.6-39.9-37.2-1.3-18.9-15-40.2-20.8-43.7-5.8-3.4-8.9.3-9.9 5.8-1 5.4 19.1 31.3 13.6 32.8-5.4 1.4-19.2-11.3-24.3-13.8-4.9-2.6-19.5-12.8-26.9-13.8-7.5-1-8.7 6.4-4.8 9.8-5.1 0-5.4 9.6 0 13.4-4.4.7-3.4 8.5 3.8 12-4.4-.3-2 7.5 5.8 8.9 7.9 1.3 27.3 2.8 41.3 9.2 14 6.4 43 69.9 82.2 83.6 25.6 8.9 47.7-.6 60-8.4-15.8-11-28.4-20.3-35.6-27.7z"/><path class="st1" d="M268.3 365.3c9.5 4.8 32.5 4.8 32.5 4.8M264.5 353.4c4.8 5.1 34.5 10.2 34.5 10.2M300.6 355.3s-32.2-11-36.1-15.4"/><path class="st2" d="M428.3 312.8c-3.6 1.7-3.3 11 2 12s16.5.6 20-1.7c3.5-2.4 1-9.4-2.5-10.2-3.5-.8-15.9-1.7-19.5-.1z"/><circle cx="441.6" cy="318.6" r="4.9"/><path class="st1" d="M425.9 304.2c24.4-8.2 30.7 4.8 30.7 4.8"/><path class="st3" d="m516.8 290.9-50.2-2s-2.4 53.9 1.1 66.4c2.5 9 28.8 32.5 43.2 44.8l50.4-53.3-44.5-55.9z"/><path class="st2" d="M446 385.1c-8.5-1.3-32.5 22.8-30.4 35.8 1.7 11 29.5 29.3 65.3 53.7 6.6-13 14.1-24.7 19.8-32.7-28.7-26.1-47.5-55.7-54.7-56.8zM648.4 518.5c-12.6-6.8-64.3-24.4-104.3-46.2-3.3 12.4-9.2 25.4-15 36.4 40.5 30.3 83.5 65.7 83.5 65.7s28.9-35.7 35.8-55.9z"/><path class="st1" d="M598.5 549c2.8 2.3 5.1 4.3 7.3 6.2M576.8 532.5c3.4 2.5 6.6 4.8 9.5 7.1M557.1 518.5c2.7 1.8 5.2 3.7 7.8 5.4M541.2 507.2c2.6 1.8 5.1 3.6 7.6 5.3M467.8 453.1c3.2 2.6 6.4 5.2 9.8 7.9M447.5 435.3c3.8 3.7 8 7.5 12.5 11.3M429 413.1c1.6 3 3.9 6.1 6.7 9.5M628.2 528.8c2.9 1.3 4.4 2 4.4 2M611.7 523.5c3.4 1.6 5.7 2.8 7.9 3.8M589 509.5c3.7 1.9 7.3 3.8 10.5 5.4M481.5 440.8c2.6 2.1 5.2 4.2 7.9 6.2M462.7 424.1c3.5 3.4 7.1 6.7 10.7 9.9M443.6 403.2c2.6 3.4 5.4 6.7 8.4 9.9M605.5 534.2c3.3 2 6.3 3.8 8.9 5.3M583.4 520.6c3.2 1.9 6.2 3.9 9.2 5.6M566.7 506.8c2.6 1.6 5.1 3.3 7.7 4.9M546.4 491.9c3.7 2.5 7 4.7 10.3 6.9M630.9 520.9c3.1 1.2 4.8 2 4.8 2M615.1 514.2c3 1.3 5.8 2.6 8.4 3.6M573.4 498l6.1 3.8M621.1 539.6l7.1 3.4M614.6 550l5.8 4"/><path class="st2" d="M621.6 584.6c-11.9 3.3-42.9 10.9-85.3 13.9-3.2 5.6-7.1 10.9-11.7 15.5 36.7-2.8 85.1-12.4 102.9-16.1-1.9-4.3-3.9-8.7-5.9-13.3z"/><path class="st3" d="M481 474.7c-8.3-5.7-16.2-11.1-23.4-16.1-7.1 4.4-17.4 9.5-29.8 11.3 3.3 6 6.1 19.1 8.7 37 10.3-7 22.7-11.3 36-11.9 2.3-6.9 5.2-13.8 8.5-20.3h0z"/></svg>