<svg version="1.1" id="Calque_1" xmlns="http://www.w3.org/2000/svg" x="0" y="0" viewBox="0 0 900 900" style="enable-background:new 0 0 900 900" xml:space="preserve"><style>.st0,.st1,.st2,.st3{fill:#ad6b3e;stroke:#000;stroke-width:5.2743;stroke-linecap:round;stroke-linejoin:round;stroke-miterlimit:10}.st1,.st2,.st3{fill:red}.st2,.st3{fill:none}.st3{fill:#fff}</style><g id="XMLID_178_"><path id="XMLID_2_" class="st0" d="M233.3 767.2c-5.9 6.6-9.9 9.9-5.9 21.8s7.9 3.3 18.5 9.9 27 41.5 33 48.8c5.9 7.3 17.1-4 13.8-10.5 5.9 9.1 23.1 1.3 17.1-7.3 7.9 7.9 27-2 18.2-9.4-9-7.4-32.7-16.4-34-28.2-1.3-11.9 19.1-40.2 46.1-65.3 27-25.1 60.7-67.2 73.2-89.7s26.4-96.3 26.4-96.3 25.7-31.9 35.6-5.9c10.5 64 42.2 85 46.8 96.3 4.6 11.2 0 18.5 3.3 46.1 3.3 27.7 27 74.5 33 89.7 5.9 15.2-13.8 36.9-11.9 47.5s9.2 12.5 20.4 13.2 17.1-11.2 30.3-11.9c13.2-.7 34.3 11.9 40.9 9.9 6.6-2 27.7-7.9 33-11.9 5.3-4 3.2-15.2-1.3-16.5-4.5-1.3-19.1 1.3-19.1 1.3s16.5-6.6 13.2-12.5-20.4.7-20.4.7 15.2-9.9 6.6-14.5-29.7 9.9-36.9 5.9c-7.3-4-13.4-182.6-33.6-217.6s-85-135.2-87.7-151.6c-2.6-16.5 18.5-80.4 23.1-109.4 4.6-29-11.2-60.7-11.2-60.7l86.4 16.5s-8.6-81.1-37.6-101.5-42.2-23.9-60.7-45.5S476 62.4 476 62.4H375.1s6.6 34.3-5.9 46.1c-12.5 11.9-55.4 16.5-75.8 34.9s-19.1 81.1-19.1 81.1l12.5 73.8 46.8 14.4s19.1 26.5 21.8 63.4c2.6 36.9-29.7 94.9-31 127.2s22.4 85.7 19.1 96.3c-3.3 10.5-21.8 15.8-29 30.3s-10.5 56.7-23.1 80.4c-12.6 23.9-52.1 50.3-58.1 56.9z"/><path id="XMLID_8_" class="st1" d="M436.4 112.5s-35.6 66.6-42.2 143.7c-6.6 77.1 43.5 156.2 42.2 154.3-1.3-2 25.3-85.6 25.7-150.3.4-74.5-25.7-147.7-25.7-147.7z"/><path id="XMLID_9_" class="st1" d="M375.1 62.4c4.2 13.8 104.2 19.1 100.9 0s-105.1-13.8-100.9 0z"/><path id="XMLID_15_" class="st2" d="m300.6 817.3 9.2 12.5"/><path id="XMLID_12_" class="st2" d="m292.7 837.1-8.6-13.8"/><path id="XMLID_16_" class="st2" d="m650.7 798.9-15.2 4.6"/><path id="XMLID_17_" class="st2" d="m643.4 787-13.2 3.9"/><path id="XMLID_25_" class="st2" d="M326.6 245.5s27.4-11.7 33.4-27.2c5.9-15.4 2.6-34.5 2.6-34.5"/><g id="XMLID_5_"><path id="XMLID_7_" class="st0" d="M491.8 108.6c18.5 21.6 31.6 25.1 60.7 45.5s59.3 80.4 37.6 105.5c-21.8 25.1-89.7-26.4-102.2-28.3-12.5-2-23.9.7-36.7-.7-12.8-1.3-28.3-13.8-32.6-19.1-4.2-5.3 3.8-11.2 3.8-11.2S412 195 412 187.7s8.6-8.6 8.6-8.6-2-2.6-7.3-7.9c-5.3-5.3 3.3-12.5 9.1-10.5s24.4 26.6 30.1 26.6-14.1-35.2-17.4-41.1c-3.3-5.9 9.8-15 14.9-4 5.1 11.1 20 46.8 34.5 50.8s30.3-4.6 54.1-.7c23.7 4 38.9 21.1 38.9 21.1"/><path id="XMLID_162_" class="st2" d="M420.6 179.1c8.6 10 28.9 20 28.9 20"/><path id="XMLID_163_" class="st2" d="M422.4 200.2c9.4 7.1 22.5 14.4 22.5 14.4"/></g><g id="XMLID_4_"><path id="XMLID_6_" class="st0" d="M293.3 143.5c-20.4 18.5-29.7 53.4-25.7 95.6s7.3 60.3 19.8 67.9c61.6 37.8 121.3-3.3 121.3-3.3s27.3 15.7 33.6 19.8c6.3 4.1 17.1 5.3 23.1 1.3s2.6-12 2.6-12 7.9-.4 11.9-7-2.6-14.8-2.6-14.8 14.5-7.6 14.5-12.8-.7-14.5-5.3-11.6c-4.6 2.9-25.2 13.8-34 14.5-8.8.7-13.4-4-9.5-7.9s22.4-7.3 28.3-11.2c5.9-4 6.6-13.8.7-13.2s-16.6.1-23.3 4c-6.7 3.8-34.7 23.1-43.2 17.8-8.6-5.3-27-17.7-49.4-23.6-22.4-5.9-61.3 4.6-61.3 4.6"/><path id="XMLID_164_" class="st2" d="M477.3 291.2c-6.6 4.5-27.8 8.6-27.8 8.6"/><path id="XMLID_165_" class="st2" d="M468.1 312.8c-13.3 4.1-24.4-2.1-24.4-2.1"/></g><g id="XMLID_3_"><g id="XMLID_10_"><path id="XMLID_174_" class="st3" d="M465.4 421.5s-62.6 7.5-50.8 18.1c7.5 6.7 14.4 61.2 19.3 101.5l50.8-10.2c-7.9-44.3-19.3-109.4-19.3-109.4z"/><path id="XMLID_176_" class="st3" d="M440.4 584.6c4 6.6 53.3-4.7 51.4-13.8-.4-2-2-10.5-4.1-22.7L436 558.4c1.9 14.2 3.3 24.5 4.4 26.2z"/><path id="XMLID_177_" class="st3" d="M433.9 541.1c.8 6.2 1.5 12 2.1 17.3l51.7-10.3c-.9-5.1-2-10.9-3-17.1l-50.8 10.1z"/></g><path id="XMLID_11_" class="st2" d="m437.1 436.9 7.9 83.7"/><path id="XMLID_13_" class="st2" d="m452.5 433.6 9.4 70.4"/></g></g><g id="XMLID_175_"><path id="XMLID_186_" d="M486.9 576.7c.9 2.1 1.8 4.2 2.8 6.3.4-3.2.9-6.5 1.5-9.8-.9 1.2-2.3 2.4-4.3 3.5z"/><path id="XMLID_187_" d="M500 529.3c-1.1-.4-2.1.3-2.5 1.3-.3 1.1-4.4 13.6-7.8 29 .9 5.1 1.6 8.8 2 10.5 3.7-19.8 9.5-38.1 9.6-38.4.2-.9-.3-2.1-1.3-2.4z"/><path id="XMLID_190_" d="M367.6 450.4c-5.5 3.8-14.4 10.8-28.7 23.6-4 3.4-7.8 7-11.3 10.3-.7 2.4-1.2 4.6-1.6 6.9 19.5-18.2 38.2-34.3 46.7-39.3-1.7-.6-3.4-1-5.1-1.5z"/><path id="XMLID_262_" d="m287.4 757.3-58.7 34.9c.8 1.6 1.7 2.5 2.6 3l58-34.5c.9-.5 1.2-1.7.7-2.8-.5-.8-1.7-1.2-2.6-.6z"/><path id="XMLID_263_" d="M288.1 743.7c-.5-.9-1.8-1.2-2.8-.7l-59.5 36.4c-.1 1.3 0 2.8.3 4.5l61.3-37.4c.9-.6 1.3-1.8.7-2.8z"/><path id="XMLID_264_" d="M309 723.8 262.6 743c-3.4 2.9-6.7 5.8-10 8.3l57.9-23.7c1.1-.4 1.5-1.6 1.1-2.6-.3-1-1.5-1.6-2.6-1.2z"/><path id="XMLID_265_" d="m325.8 700.1-38.1 16.4c-1.5 2.1-3.2 4.2-4.9 6.5l44.6-19.1c1.1-.4 1.5-1.6 1.1-2.6s-1.7-1.6-2.7-1.2z"/><path id="XMLID_266_" d="m340.8 684.9-45.6 17.3c-.7 1.7-1.5 3.4-2.1 5l49.2-18.6c1.1-.4 1.6-1.6 1.2-2.5-.4-.9-1.8-1.6-2.7-1.2z"/><path id="XMLID_267_" d="M340.7 669.6 300 687.5c-.5 1.7-.9 3.3-1.5 5l43.8-19.3c1.1-.4 1.5-1.6 1.1-2.6-.6-1-1.7-1.4-2.7-1z"/><path id="XMLID_268_" d="m342.4 658.4-39.3 16.5c-.5 2.1-.9 4.2-1.5 6.2l42.2-17.7c1.1-.4 1.5-1.6 1.1-2.6-.4-1.1-1.6-1.4-2.5-2.4z"/><path id="XMLID_269_" d="M362.7 636.8c-14.4 4.4-40.5 17.9-57.1 26.9-.4 1.7-.7 3.4-1.1 5.1 16.2-8.8 44.7-23.7 59.3-28.2 1.1-.3 1.6-1.5 1.3-2.5-.3-1-1.3-1.7-2.4-1.3z"/><path id="XMLID_270_" d="M363.2 623.5c-7.3 0-35.9 13.7-53.9 22.7-.4 1.6-.8 3.3-1.2 5 22-11.1 49.2-23.7 55-23.7 1.1 0 2-.9 2-2s-.7-2-1.9-2z"/><path id="XMLID_271_" d="M376.3 605.8 314 630.9c-.7 1.5-1.3 3.2-2 5l65.7-26.4c1.1-.4 1.5-1.6 1.1-2.6-.3-.9-1.5-1.5-2.5-1.1z"/><path id="XMLID_272_" d="M376.9 592.4c-.4-1.1-1.6-1.5-2.6-1.1l-34.8 14.5c-2.9 3-6.7 5.8-10.8 8.8l47.1-19.6c1-.4 1.5-1.6 1.1-2.6z"/><path id="XMLID_273_" d="m395.4 565.2-52.5 24.9c.3 1.5.5 2.9.7 4.1l53.5-25.4c.9-.5 1.5-1.7.9-2.6-.5-1-1.7-1.4-2.6-1z"/><path id="XMLID_274_" d="M389.9 543.3c-.7-.9-1.8-1.1-2.8-.4l-47.3 34.5c.4 1.5.8 2.8 1.1 4.1l48.7-35.5c.8-.6.9-1.8.3-2.7z"/><path id="XMLID_275_" d="m338.3 572.3 48.1-44.3c.8-.8.8-2 .1-2.8-.8-.8-2-.8-2.8-.1L337.1 568c.3 1.4.7 2.9 1.2 4.3z"/><path id="XMLID_276_" d="m379.7 513.9-46.3 41.5c.4 1.5.8 2.9 1.2 4.2l47.7-42.9c.8-.8.9-2 .1-2.8-.6-.6-1.9-.8-2.7 0z"/><path id="XMLID_277_" d="m375.8 502.6-46.1 38.8c.4 1.5.7 2.9 1.1 4.2l47.6-40.1c.8-.7.9-2 .3-2.8-.8-.8-2-.9-2.9-.1z"/><path id="XMLID_278_" d="M371.8 495.7c.8-.7.9-2 .3-2.8-.7-.8-2-.9-2.8-.3L327 529.2c.3 1.5.7 2.9.9 4.5l43.9-38z"/><path id="XMLID_279_" d="M374.2 482.9c1.1.1 2.1-.7 2.2-1.7.1-1.1-.7-2.1-1.7-2.2-5.3-.7-31 20.6-49.8 36.9.1 1.6.4 3.2.7 4.7 22.6-19.6 44.9-37.5 48.6-37.7z"/><path id="XMLID_280_" d="M372.5 469.9c0-1.1-.9-2-2-2-4.9 0-28.5 17.5-45.8 31-.1 1.6-.3 3-.4 4.5v.8c21.9-17 42.9-32.2 46.1-32.4 1.1.1 2.1-.9 2.1-1.9z"/><path id="XMLID_281_" d="M518.3 552c-.9-.5-2.1-.1-2.6.8-.7 1.1-11.7 21.6-17.3 46.1 1.1 1.6 2.1 3.2 3 4.7 5.1-26 17.5-48.7 17.7-49.1.5-.8.1-1.9-.8-2.5z"/><path id="XMLID_282_" d="M526.3 555.8c-.9-.5-2.1-.1-2.6.9-.7 1.3-13.1 25.8-17.7 53.5 1.2 1.6 2.2 3 3.4 4.4 4.1-28.9 17.7-55.8 17.8-56.2.5-1 .1-2.2-.9-2.6z"/><path id="XMLID_283_" d="M511.8 540.2c-.8-.7-2.1-.5-2.8.3-6.2 7.6-12.4 28.9-17 47.3.9 1.8 1.8 3.6 2.8 5.3 4.5-19 11.1-42.6 17.3-50.1.7-.9.5-2.1-.3-2.8z"/><path id="XMLID_284_" d="M532.5 574.8c-1.1-.3-2.1.3-2.5 1.3l-14.4 46.3c1.1 1.3 2.1 2.6 3 3.7l15.2-48.8c.4-1-.2-2.2-1.3-2.5z"/><path id="XMLID_285_" d="M538.7 602.9c-1.1-.4-2.1 0-2.6 1.1l-12.9 30.5c.7 2.5 1.1 4.9 1.1 7.5l15.4-36.5c.5-1-.1-2.2-1-2.6z"/><path id="XMLID_286_" d="M546 618.5c-1.1-.4-2.1.1-2.6 1.1l-19 46.3c.1 2.6.4 5.5.7 8.7l21.9-53.4c.4-1.1-.1-2.3-1-2.7z"/><path id="XMLID_287_" d="M550.5 636.8c-1.1-.4-2.1.3-2.5 1.3l-18.6 57.4c.7 2.1 1.3 4.4 2.1 6.6l20.3-62.8c.2-1-.4-2.2-1.3-2.5z"/><path id="XMLID_288_" d="M558.6 653.2c-1.1-.1-2.1.7-2.1 1.7-1.2 10.9-12.8 36.9-21.9 55.9.7 1.7 1.3 3.4 2 5.1 9.2-19.3 22.4-48.3 23.7-60.5.2-1.2-.6-2.1-1.7-2.2z"/><path id="XMLID_289_" d="M561.9 674.4c-1.1-.1-2.1.7-2.2 1.7-1.3 12-11.9 37.2-18.5 51.8.7 1.7 1.5 3.3 2.1 5 6.3-14 18.7-42.7 20.2-56.4.3-.9-.5-2-1.6-2.1z"/><path id="XMLID_290_" d="M570 693.8c-1.1-.4-2.1.1-2.5 1.2l-19.3 49.2c.8 1.7 1.6 3.4 2.2 5.1l20.6-52.9c.4-1 0-2.2-1-2.6z"/><path id="XMLID_291_" d="M575 719.9c-.9-.5-2.1 0-2.6.9l-17.9 37.3c.8 1.7 1.5 3.3 2.1 4.7l19.4-40.3c.4-.9 0-2.1-1-2.6z"/><path id="XMLID_292_" d="M579.9 738.5c.5-.9.1-2.1-.8-2.6s-2.1-.1-2.6.8L559 769.3c.7 2.6.5 5.4.1 8.2l20.8-39z"/><path id="XMLID_293_" d="M585.5 749.8c-.9-.7-2.1-.4-2.8.5-1.1 1.5-19.4 27.4-32.4 50.1-2.5 5.7-4.5 10.5-3.8 14.2 0 .3.1.5.1.8 12-24.4 39-62.5 39.3-62.9.8-.8.6-2-.4-2.7z"/><path id="XMLID_294_" d="M585.5 766.9c-.9-.7-2.1-.4-2.8.5-1.1 1.5-22.4 33.9-32.2 55.5.9.9 2.1 1.7 3.3 2.2 9.6-21.5 32-55.2 32.2-55.6.7-.8.5-2-.5-2.6z"/><path id="XMLID_295_" d="M589.6 782.9c-.8.9-19.6 20-30.7 43.9 1.3.3 2.6.5 4.1.7 10.9-22.9 29.3-41.7 29.4-41.8.8-.8.8-2 0-2.8-.8-.7-2-.7-2.8 0z"/><path id="XMLID_296_" d="M393.2 377c-.7-.9-1.8-1.1-2.8-.5-1.2.9-20.8 14.9-38.5 29.7-.5 2.2-1.1 4.5-1.7 6.7 18.7-16.2 42.2-33 42.5-33.2.9-.5 1.1-1.7.5-2.7z"/><path id="XMLID_297_" d="M387.8 363.7c-.8-.8-2-.9-2.8-.1L354.8 391c-.3 2-.5 4.1-.9 6.2l33.8-30.7c.7-.7.8-2 .1-2.8z"/><path id="XMLID_298_" d="M389.7 345.5c-.8-.8-2-.8-2.8-.1l-31.6 29.7c0 .4 0 .7.1 1.1.1 1.3.1 2.8.1 4.1l34.2-32c.7-.7.8-2 0-2.8z"/><path id="XMLID_299_" d="M380.6 342.2c.8-.7.9-2 .3-2.8s-2-.9-2.8-.3l-25.2 20.3c.3 1.5.5 2.9.8 4.4l26.9-21.6z"/><path id="XMLID_300_" d="M371.8 334.3c.8-.7.9-2 .3-2.8-.7-.8-2-.9-2.8-.3l-19.5 16c.4 1.3.8 2.8 1.2 4.1l20.8-17z"/><path id="XMLID_301_" d="M368.2 322.9c-.7-.8-2-.9-2.8-.3L346.6 338c.5 1.3.9 2.6 1.5 4l19.9-16.4c.8-.6.9-1.8.2-2.7z"/><path id="XMLID_302_" d="M390.1 302.9c-.4-1.1-1.6-1.5-2.6-1.1L337.9 323c3.4.1 6.7.1 10 0l41-17.4c1.1-.4 1.6-1.6 1.2-2.7z"/><path id="XMLID_303_" d="M381.7 300.3c1.1-.4 1.6-1.6 1.2-2.5-.4-.9-1.6-1.6-2.5-1.2l-62.1 23.5c2.4.7 4.9 1.1 7.3 1.5l56.1-21.3z"/><path id="XMLID_304_" d="M368 294.1c1.1-.4 1.6-1.5 1.2-2.5-.4-1.1-1.6-1.6-2.5-1.2l-65.1 24.1c1.8.8 3.7 1.6 5.4 2.2l61-22.6z"/><path id="XMLID_305_" d="M347.9 288.2c.9-.5 1.5-1.7.9-2.6-.5-.9-1.7-1.5-2.6-.9l-53.3 25.6c1.5.8 2.9 1.6 4.5 2.2l50.5-24.3z"/><path id="XMLID_306_" d="M327.8 285.1c1.1-.4 1.5-1.6 1.1-2.6-.4-1.1-1.6-1.5-2.6-1.1l-45.8 19c.8 1.2 1.7 2.2 2.6 3.2l44.7-18.5z"/><path id="XMLID_307_" d="M317.7 276.6c1.1-.4 1.6-1.6 1.2-2.5-.4-1.1-1.6-1.6-2.5-1.2l-41.3 16c.4 1.3.8 2.5 1.3 3.7l41.3-16z"/><path id="XMLID_308_" d="M306.9 263.5c1.1-.1 1.8-1.1 1.7-2.2-.1-1.1-1.1-1.8-2.2-1.7-9.9 1.2-24.7 6.7-35.2 11.2.3 1.5.4 2.8.7 4.1 10.5-4.5 25.4-10.2 35-11.4z"/><path id="XMLID_309_" d="M297.8 246c1.1-.3 1.6-1.5 1.3-2.5-.3-1.1-1.5-1.6-2.5-1.3l-27.7 8.4c.1 1.3.3 2.6.4 4l28.5-8.6z"/><path id="XMLID_310_" d="M308.6 229.2c0-1.1-.9-2-2-2-8.7 0-27 5-39.3 8.7.1 1.1.1 2.1.3 3.2 0 .3 0 .7.1.9 12.1-3.7 30.6-8.8 38.9-8.8 1.2 0 2-.9 2-2z"/><path id="XMLID_311_" d="M318.4 217.9c1.1 0 2-.9 2-2s-.9-2-2-2c-23.7.5-41 6.3-51.6 11.5 0 1.5.1 2.9.1 4.4 10.1-5 27.5-11.5 51.5-11.9z"/><path id="XMLID_312_" d="M319.1 205.5c0-1.1-.9-2-2-2-16 .5-39.3 5.4-50 7.8-.1 1.3-.1 2.8-.1 4.1 10.2-2.2 34.3-7.4 50.2-7.9 1.1 0 1.9-.9 1.9-2z"/><path id="XMLID_313_" d="M326 195.6c0-1.1-.9-2-2-2-17 0-42.5 3.6-56 5.8-.1 1.3-.3 2.8-.5 4.1 13.2-2.1 39.3-5.9 56.4-5.9 1.2 0 2.1-.9 2.1-2z"/><path id="XMLID_314_" d="M332.5 188.1c1.1.4 2.1-.1 2.5-1.2.4-1.1-.1-2.1-1.2-2.5-11.9-4.5-47.1.5-63.8 3.3-.3 1.3-.5 2.8-.8 4.2 15.7-2.7 52-8.2 63.3-3.8z"/><path id="XMLID_315_" d="M338.7 178.5c1.1.3 2.1-.4 2.4-1.5s-.4-2.1-1.5-2.4c-11.7-3.2-49.3 1.7-67.4 4.4-.4 1.3-.8 2.8-1.2 4.2 17.1-2.5 56.4-7.8 67.7-4.7z"/><path id="XMLID_316_" d="M338.8 165.9c1.1.1 2.1-.5 2.2-1.6.1-1.1-.5-2.1-1.6-2.2-11.1-2-44.8 3.8-63.7 7.4-.5 1.5-1.2 2.9-1.7 4.4 18.2-3.6 54-9.8 64.8-8z"/><path id="XMLID_317_" d="M349.8 155.4c1.1.3 2.1-.5 2.4-1.6s-.5-2.1-1.6-2.4c-11.9-2.5-47.3 0-65.8 1.6-.9 1.3-2 2.8-2.9 4.2 17.1-1.4 56-4.3 67.9-1.8z"/><path id="XMLID_318_" d="M344.2 147.5h.3c.9 0 1.8-.8 2-1.7.1-1.1-.7-2.1-1.7-2.2-13.7-1.7-36.4-1.2-50.6-.7-.3.3-.5.4-.8.7-1.2 1.1-2.4 2.2-3.6 3.6 13.4-.8 39.7-1.6 54.4.3z"/><path id="XMLID_319_" d="M382.3 144.8c.8 0 1.6-.5 1.8-1.2.4-1.1-.1-2.1-1.1-2.5-15.3-6.2-49.3-8.3-71.2-9-2.6 1.2-5.1 2.4-7.5 3.8 20.7.5 60.8 2.4 77.3 8.8.2.1.5.1.7.1z"/><path id="XMLID_320_" d="M391.6 135.6c.8 0 1.6-.5 1.8-1.2.4-1.1-.1-2.1-1.1-2.6-10.5-4.2-38.4-7.8-54.2-9.5-3 .9-6.1 2-9.1 3 10.5 1.1 49.4 5.1 61.7 10.2.3.1.6.1.9.1z"/><path id="XMLID_321_" d="M396.2 127.7c.7 0 1.3-.4 1.7-1.1.5-.9.1-2.1-.8-2.6-7.6-4.2-27.8-7-40-8.4-2.5 1.1-5.3 2.1-8.2 3.2 7.9.8 37.4 4 46.3 8.8.3 0 .7.1 1 .1z"/><path id="XMLID_322_" d="M406.7 110.7c-15.2-6.9-24.8-9.6-32.3-10.9-.4 1.3-.9 2.5-1.6 3.7 7.5 1.2 16.7 3.8 32.3 10.8.3.1.5.1.8.1.8 0 1.5-.4 1.8-1.2.5-.8.1-2-1-2.5z"/><path id="XMLID_323_" d="M405.4 104c.5 0 1.1-.3 1.5-.7.8-.8.7-2.1-.1-2.8-5.4-5-18.7-9.1-30.2-11.7-.1 1.3-.3 2.6-.5 4 10.9 2.5 23.2 6.2 28 10.7.4.3.8.5 1.3.5z"/><path id="XMLID_324_" d="M399.6 88.2c.3.3.7.3 1.1.3.7 0 1.3-.4 1.7-.9.5-.9.3-2.1-.7-2.8-7.9-4.9-17.7-7.9-25.1-9.6.1 1.3.1 2.8.1 4.1 7.1 1.7 15.9 4.5 22.9 8.9z"/><path id="XMLID_325_" d="M554.2 214.9c-.5-.9-1.7-1.2-2.8-.7-.9.5-1.2 1.7-.7 2.8 9.8 16.2 31.9 29.3 43.8 35.3.5-1.2.9-2.5 1.3-3.8-11.6-6.1-32.7-18.6-41.6-33.6z"/><path id="XMLID_327_" d="M547.8 223.2c-1.1.4-1.5 1.6-1.1 2.5 3.8 9.8 17.8 27.2 29.4 40.5 1.6-.1 3-.4 4.5-.8-11.6-13.4-26.5-31.5-30.3-41.1-.4-1-1.6-1.5-2.5-1.1z"/><path id="XMLID_330_" d="M530.6 212.6c-1.1.1-1.8 1.1-1.8 2.1.8 9 14.8 31.5 26.2 48.5 2 .7 4 1.2 5.8 1.6-12.4-18.2-27.3-42.1-28.1-50.5-.2-1-1.1-1.8-2.1-1.7z"/><path id="XMLID_332_" d="M515.5 210.4c.1-1.1-.5-2.1-1.6-2.2-1.1-.1-2.1.5-2.2 1.6-.9 5.9 9 25.6 18.7 43.2 2.1 1.1 4.1 2 6.2 3-11.5-20.2-21.9-40.7-21.1-45.6z"/><path id="XMLID_333_" d="M498.8 211c.5-.9.1-2.1-.9-2.6-.9-.5-2.1-.1-2.6.9-.8 1.6-2.5 4.9 12.7 31.8 2.1 1.2 4.4 2.4 6.6 3.7-9.5-16.5-16.7-31-15.8-33.8z"/><path id="XMLID_336_" d="M479.1 199.7c.4-.9.1-2.1-.9-2.6-.9-.5-2.1-.1-2.6.8-.8 1.5-2.1 4.1 9.9 30.7.4.8.7 1.6 1.1 2.4.4 0 .8.1 1.2.1.9.1 2.2.5 3.8 1.2-7.5-15.9-13.1-29.8-12.5-32.6z"/><path id="XMLID_338_" d="M461.9 201.4c-1.1 0-2 .8-2.1 1.8-.1 5 7.3 16.6 14.8 27.2h4.9c-8.4-11.5-15.8-23.1-15.7-27 0-.9-.9-1.9-1.9-2z"/><path id="XMLID_339_" d="M451.3 215c-.9.7-1.1 1.8-.4 2.8l9.5 13.2c1.6 0 3.2 0 4.7-.1L454 215.5c-.6-1-1.8-1.2-2.7-.5z"/><path id="XMLID_261_" d="M414.3 108.1c.4.4.9.5 1.3.5.5 0 1.1-.3 1.5-.7.8-.8.8-2 0-2.8-5.8-5.7-10.9-20.6-14.5-32.6-1.5-.3-2.9-.4-4.4-.7 3.7 12.9 9.3 29.8 16.1 36.3z"/><path id="XMLID_328_" d="M399.8 106.9c.4.7 1.1 1.1 1.7 1.1.3 0 .7-.1.9-.3.9-.5 1.3-1.7.8-2.6-.1-.3-10.2-19.1-16.6-35.7-1.8-.5-3.4-1.1-4.9-1.7 6.3 17.3 17.4 38 18.1 39.2z"/><path id="XMLID_193_" d="M553.5 594.2c-10-6.9-46.5-20.6-62.4-26.4.3 1.5.4 2.4.5 2.9.1.5 0 .9-.1 1.5 16.5 6.1 50.5 19 59.6 25.2.4.3.8.4 1.1.4.7 0 1.2-.3 1.6-.9.9-.8.6-2.2-.3-2.7z"/><path id="XMLID_194_" d="M545.5 578.7c.7 0 1.3-.4 1.7-1.1.5-.9.1-2.1-.8-2.6-9.1-5-38.9-13.8-57.4-19 .3 1.6.5 3 .8 4.4 18.5 5.3 46.3 13.6 54.7 18.2.4-.1.7.1 1 .1z"/><path id="XMLID_197_" d="M537.9 555.6c.8 0 1.6-.5 1.8-1.3.4-1.1-.3-2.1-1.3-2.5l-53.3-17.7c.3 1.5.5 3 .8 4.5l51.3 17h.7z"/><path id="XMLID_199_" d="M525.4 543.7c.8 0 1.6-.5 1.8-1.2.4-1.1-.1-2.1-1.1-2.6l-43-17.4c.3 1.6.5 3 .8 4.6l40.7 16.5c.3.1.5.1.8.1z"/><path id="XMLID_331_" d="M402.5 116.8c-11.1-7-20.6-26.2-25.7-38.8.1 3 .1 6.3-.1 9.6 5.7 12.1 14 26.4 23.7 32.6.3.3.7.3 1.1.3.7 0 1.3-.3 1.7-.9.5-1 .2-2.2-.7-2.8z"/><path id="XMLID_334_" d="M391.6 144.8c.5 0 1.1-.3 1.5-.7.8-.8.7-2.1-.1-2.8-8.2-7.5-14.9-29.7-18.2-42.5-.7 2.1-1.5 4.1-2.5 5.8 3.7 13.3 10.2 32.2 18.1 39.6.3.5.6.6 1.2.6z"/><path id="XMLID_335_" d="M379.7 154.9c.4.4.8.5 1.3.5s1.1-.3 1.5-.7c.8-.8.7-2.1-.1-2.8-6.9-6.1-11.9-26.6-14.9-41.9-1.1.8-2.2 1.6-3.6 2.4 3.1 15.6 8.4 35.9 15.8 42.5z"/><path id="XMLID_337_" d="M370.5 161.5c.4.4.8.5 1.3.5s1.1-.3 1.5-.7c.8-.8.7-2.1-.1-2.8-7-6.2-12.3-28-15.2-43.4-1.2.5-2.5 1.1-3.7 1.6 3 15.9 8.4 37.9 16.2 44.8z"/><path id="XMLID_340_" d="M358.6 165.4c.4.4.8.5 1.3.5s1.1-.3 1.5-.7c.8-.8.7-2.1-.1-2.8-7-6.2-12.1-27.6-15-42.9-1.2.4-2.5.8-3.8 1.3 2.9 15.9 8.3 37.8 16.1 44.6z"/><path id="XMLID_341_" d="M345.4 171.2c.4 0 .8-.1 1.1-.3.9-.5 1.2-1.8.7-2.8-5.5-8.7-11.1-29.4-14.6-44-1.3.4-2.5.8-3.8 1.3 3.6 14.9 9.2 35.7 15 44.8.3.8 1 1 1.6 1z"/><path id="XMLID_342_" d="M341.5 185.7h.5c1.1-.3 1.7-1.3 1.5-2.4-4-15.3-18.2-41.1-25.6-53.8-1.2.5-2.5 1.1-3.7 1.6 7.1 12.4 21.5 38.4 25.4 53.3.2.8.9 1.3 1.9 1.3z"/><path id="XMLID_343_" d="M327 189.5c.1 0 .4 0 .5-.1 1.1-.3 1.7-1.5 1.3-2.5-4-13.6-17.9-38.2-25.3-50.6-1.2.7-2.2 1.3-3.4 2.1 7.3 12.4 21.1 36.8 24.9 49.7.3.8 1 1.4 2 1.4z"/><path id="XMLID_344_" d="M326.7 204.8c.3 0 .4 0 .7-.1 1.1-.4 1.6-1.5 1.2-2.5-5-13.8-24.3-42.7-35.1-58.7-.9.9-2 1.8-2.9 2.8 10.9 16 29.5 44.2 34.3 57.2.2.8.9 1.3 1.8 1.3z"/><path id="XMLID_345_" d="M317.1 213.4c.5 0 1.1-.1 1.3-.5.8-.8.8-2 .1-2.8-1.6-1.7-21.5-31.2-36.3-53.1-.8 1.2-1.6 2.5-2.2 3.8 10.7 15.8 34 50.5 35.7 52.2.3.2.8.4 1.4.4z"/><path id="XMLID_346_" d="M311.8 220.3c1.1 0 2-.9 2-2s-.9-2-2-2c-7.1 0-24.7-23.9-37.3-43.6-.5 1.6-1.2 3.2-1.6 4.7 10.7 16.5 29.3 42.9 38.9 42.9z"/><path id="XMLID_347_" d="M311.1 239.7c.3.1.4.1.7.1.8 0 1.6-.5 1.8-1.3.4-1.1-.1-2.1-1.2-2.5-9.8-3.6-30.7-30.7-42.6-47.2-.4 1.7-.7 3.6-1.1 5.4 11.2 15 31.6 41.5 42.4 45.5z"/><path id="XMLID_348_" d="M288.3 243.5c.3.1.7.3.9.3.7 0 1.5-.4 1.7-1.1.5-.9.1-2.1-.8-2.6-6.6-3.6-16-13.4-23.5-22.4v6.1c7.4 8.1 15.5 16.4 21.7 19.7z"/><path id="XMLID_349_" d="M361.2 285.1c-.8.7-.9 2-.3 2.8l23.5 27.7c1.3-.5 2.6-1.1 4-1.5L364 285.3c-.6-.8-1.8-.9-2.8-.2z"/><path id="XMLID_350_" d="M335.1 271c-.9.5-1.3 1.7-.7 2.8 3.6 6.2 27.7 32.7 39 45.2 1.5-.4 2.9-.8 4.2-1.2-10.7-11.6-36.4-40-40-46-.2-1-1.4-1.3-2.5-.8z"/><path id="XMLID_351_" d="M326.8 270.8c-1.1-.1-2.1.7-2.2 1.7-1.3 11.3 22.4 36.8 34.8 49.3 1.6-.3 3.3-.5 4.7-.8-13.6-13.4-36.8-38.8-35.7-48.1.3-.9-.4-2-1.6-2.1z"/><path id="XMLID_352_" d="M354.1 322.6c-19.3-20.4-44-48-45.5-53.7-.3-1.1-1.3-1.7-2.4-1.5-1.1.3-1.7 1.3-1.5 2.4 2 7.3 29.8 37.6 44.3 53 1.8.1 3.5-.1 5.1-.2z"/><path id="XMLID_353_" d="M331.6 322.5c-14.2-15.7-37.2-42.2-40.3-53.5-.3-1.1-1.3-1.7-2.4-1.5-1.1.3-1.7 1.3-1.5 2.4 3 11.3 23.5 35.5 38 51.6 2.1.4 4.1.7 6.2 1z"/><path id="XMLID_354_" d="M302.3 314.8c2.4 1.1 4.7 2 7.1 2.8-13.4-17-30.5-39.4-39.2-53.3.4 3.3.9 6.3 1.3 9.2 9.1 13 21.4 29.3 30.8 41.3z"/><path id="XMLID_355_" d="M285.4 260.5c.8-.7.9-2 .3-2.8-.1-.1-12.1-14.5-18.3-23.1.1 1.6.3 3 .4 4.6.1.9.1 1.8.3 2.8 6.2 8 14.1 17.5 14.5 18.2.4.5.9.7 1.6.7.3 0 .8-.1 1.2-.4z"/><path id="XMLID_356_" d="M347.9 323c-1.7.1-3.3.1-5 .1l43.9 53.8c.4.5.9.8 1.6.8.4 0 .9-.1 1.2-.4.8-.7.9-2 .3-2.8l-42-51.5z"/><path id="XMLID_357_" d="M387.2 400.3c.4.3.8.4 1.1.4.7 0 1.3-.3 1.6-.9.7-.9.4-2.1-.5-2.8-5.5-3.7-26.6-30.3-38.4-45.5.8 2.9 1.6 6.1 2.2 9.2 11.1 14.2 28.5 35.7 34 39.6z"/><path id="XMLID_358_" d="M380.5 415.4c.9-.7 1.1-2 .4-2.8l-16-20.6c-3.3-4.2-6.6-8.6-9.4-12.1 0 2 0 4.1-.3 6.2 6.7 8.6 15.6 20 22.5 28.9.4.5.9.8 1.6.8.4 0 .9-.1 1.2-.4z"/><path id="XMLID_359_" d="m352.1 405.8 23.5 29.1c.4.5.9.8 1.6.8.4 0 .9-.1 1.2-.4.8-.7.9-2 .3-2.8L353.2 401c-.4 1.5-.8 3.1-1.1 4.8z"/><path id="XMLID_360_" d="M391.6 499.5c.3 0 .7-.1.9-.3.9-.5 1.3-1.7.8-2.6l-33-64c-.5-.9-1.7-1.3-2.6-.8-.9.5-1.3 1.7-.8 2.6l33 64c.2.7 1 1.1 1.7 1.1z"/><path id="XMLID_361_" d="M375.1 499.5c.4 0 .7-.1.9-.3.9-.5 1.3-1.7.8-2.6l-34-59.3c-.5 1.7-1.2 3.3-1.7 5l32.3 56.3c.4.5 1 .9 1.7.9z"/><path id="XMLID_362_" d="M393.2 540c-11.5-5.9-39.6-54.5-56.3-85.4-.5 1.7-1.2 3.4-1.7 5 13.2 24.1 43 77 56.2 83.9.3.1.7.3.9.3.7 0 1.5-.4 1.7-1.1.5-1 .1-2.1-.8-2.7z"/><path id="XMLID_363_" d="M392.4 570.9c-14.4-6.6-44.3-65.3-60.7-100.9-.7 1.8-1.2 3.8-1.7 5.7 12.5 26.6 44.2 91.2 60.8 98.9.3.1.5.1.8.1.8 0 1.5-.4 1.8-1.2.4-.9 0-2.1-1-2.6z"/><path id="XMLID_364_" d="M326.3 489.7c-.5 2.4-.9 4.6-1.3 6.9 16.7 34.9 56.6 83.7 58.4 86.1.4.5.9.7 1.6.7.4 0 .9-.1 1.2-.4.8-.7.9-2 .3-2.8-.5-.8-45.4-55.9-60.2-90.5z"/><path id="XMLID_365_" d="M325 517.3c.4 3 .9 6.2 1.5 9.5 19.6 29 51.3 65.7 53 67.6.4.4.9.7 1.5.7.4 0 .9-.1 1.3-.5.8-.7.9-2 .3-2.8-.5-.5-38.9-44.8-57.6-74.5z"/><path id="XMLID_366_" d="M332.6 552.6c.9 3.2 1.7 6.3 2.6 9.4 14.2 17.1 38.9 48.5 43.9 64.9.3.8 1.1 1.5 1.8 1.5.1 0 .4 0 .5-.1 1.1-.3 1.6-1.5 1.3-2.5-5.8-20-38.1-59.1-50.1-73.2z"/><path id="XMLID_367_" d="M339.8 577.5c.8 3 1.6 5.8 2.2 8.3 19.1 22.9 24 50.9 24 51.2.1.9 1.1 1.7 2 1.7h.3c1.1-.1 1.8-1.2 1.6-2.2-.3-1.7-6-34.6-30.1-59z"/><path id="XMLID_368_" d="M343.4 599.8c-.5 1.6-1.3 3.2-2.5 4.5l20.4 54.2c.3.8 1.1 1.3 1.8 1.3.3 0 .5 0 .7-.1 1.1-.4 1.6-1.6 1.2-2.5l-21.6-57.4z"/><path id="XMLID_369_" d="M336.5 608.7c-1.1.9-2.2 1.8-3.4 2.6l16.1 61.3c.3.9 1.1 1.5 2 1.5h.5c1.1-.3 1.7-1.3 1.5-2.4l-16.7-63z"/><path id="XMLID_370_" d="M326.8 616.2c-1.2.9-2.4 2-3.6 2.9 2.5 15.3 9.6 55.5 16.4 68.6.4.7 1.1 1.1 1.7 1.1.3 0 .7-.1.9-.3.9-.5 1.3-1.7.8-2.6-6.7-13.1-14.1-57-16.2-69.7z"/><path id="XMLID_371_" d="M319.1 623.2c-1.2 1.3-2.2 2.8-3.3 4.4 3.8 22.7 11.3 63.6 15.7 70.1.4.5 1.1.9 1.7.9.4 0 .8-.1 1.1-.3.9-.7 1.2-1.8.5-2.8-3.7-5.7-11.5-47.4-15.7-72.3z"/><path id="XMLID_372_" d="M309.3 646.7c-.7 3-1.5 6.2-2.1 9.6l12.7 63.2c.1.9 1.1 1.6 2 1.6h.4c1.1-.3 1.7-1.3 1.6-2.4l-14.6-72z"/><path id="XMLID_373_" d="M302.2 679c-.5 2.4-1.2 4.9-1.8 7.3l13.2 41.4c.3.8 1.1 1.3 1.8 1.3.3 0 .4 0 .7-.1 1.1-.4 1.6-1.5 1.3-2.5L302.2 679z"/><path id="XMLID_374_" d="M296.1 699.6c-.8 2.1-1.6 4.1-2.4 6.1 5.1 16.6 14.5 34.4 15 35.5.4.7 1.1 1.1 1.7 1.1.3 0 .7-.1.9-.3.9-.5 1.3-1.7.8-2.6 0-.4-11.5-22.3-16-39.8z"/><path id="XMLID_375_" d="M288.5 715.4c-1.2 1.7-2.4 3.4-3.7 5.1 1.3 15.7 9 36.9 9.5 38.1.3.8 1.1 1.3 1.8 1.3.3 0 .4 0 .7-.1 1.1-.4 1.6-1.5 1.2-2.5-3.2-8.4-9.8-29.6-9.5-41.9z"/><path id="XMLID_376_" d="M276.3 730c-1.5 1.5-2.8 2.9-4.2 4.2-.4 19.6 9.6 49.3 10.2 50.8.3.8 1.1 1.3 1.8 1.3.3 0 .4 0 .7-.1 1.1-.4 1.6-1.5 1.2-2.5-.2-.4-12-35.6-9.7-53.7z"/><path id="XMLID_377_" d="M270.3 792.9h.4c1.1-.3 1.7-1.2 1.6-2.4l-9.4-47.9c-1.2 1.1-2.2 2-3.4 3l9 45.6c.1 1.1.8 1.7 1.8 1.7z"/><path id="XMLID_378_" d="M255 749.4c-1.2.9-2.4 2-3.4 2.8 3.4 16.5 10.2 45.1 17.7 53.8.4.4.9.7 1.5.7.4 0 .9-.1 1.3-.5.8-.7.9-2 .3-2.8-7.4-8.2-14.3-38.3-17.4-54z"/><path id="XMLID_379_" d="M242 759.7c-1.3 1.1-2.4 2-3.4 2.8 4.1 19.3 16.9 38.8 17.5 39.7.4.5 1.1.9 1.7.9.4 0 .8-.1 1.1-.3.9-.7 1.2-1.8.5-2.8-.2-.2-13.8-21.1-17.4-40.3z"/><path id="XMLID_380_" d="M575.8 815.6 550 801.1c-.5 1.3-1.1 2.5-1.6 3.7l25.4 14.2c.3.1.7.3.9.3.7 0 1.3-.4 1.7-1.1.7-.9.4-2.1-.6-2.6z"/><path id="XMLID_381_" d="m592.1 806.2-36.8-16.9c-.5 1.2-1.1 2.4-1.6 3.6l36.8 16.9c.3.1.5.1.8.1.8 0 1.5-.4 1.8-1.2.5-.7.1-1.9-1-2.5z"/><path id="XMLID_382_" d="m601.4 799.4-42.6-20c-.3 1.3-.7 2.6-1.1 3.8l41.9 19.8c.3.1.5.1.8.1.8 0 1.5-.4 1.8-1.2.6-.9.2-2.1-.8-2.5z"/><path id="XMLID_383_" d="M558.1 766.6c.1.3.1.4.3.7.5 1.5.9 2.9 1.1 4.4l36.4 17.1c.3.1.5.1.8.1.8 0 1.5-.4 1.8-1.2.5-.9 0-2.1-.9-2.6l-39.5-18.5z"/><path id="XMLID_384_" d="M599.6 774.2c.3.1.7.3.9.3.7 0 1.5-.4 1.7-1.1.5-.9.1-2.1-.8-2.6l-53.7-27.7c.9 2 1.7 4 2.5 5.8l49.4 25.3z"/><path id="XMLID_385_" d="M596.6 760c.7 0 1.3-.4 1.7-1.1.5-.9.1-2.1-.8-2.6L540 725.2c.8 2 1.6 4 2.4 5.8l53.1 28.7c.5.1.8.3 1.1.3z"/><path id="XMLID_386_" d="M596.6 746.8c.7 0 1.3-.4 1.7-.9.5-.9.3-2.1-.7-2.8L533 704.9c-.3-.1-.5-.3-.7-.3.7 1.8 1.3 3.7 2 5.5l61.3 36.3c.4.2.6.4 1 .4z"/><path id="XMLID_387_" d="M579.5 723.7c.7 0 1.3-.4 1.7-.9.5-.9.3-2.1-.7-2.8L527 686.5c.4 1.8.9 3.7 1.5 5.5l50 31.3c.3.3.6.4 1 .4z"/><path id="XMLID_388_" d="M578.2 701.9c.8 0 1.5-.4 1.7-1.1.5-.9.1-2.1-.9-2.6l-54.2-26.5c.1 1.5.3 3 .5 4.6l52 25.4c.3.2.6.2.9.2z"/><path id="XMLID_389_" d="M578.2 690.1c.7 0 1.5-.4 1.7-1.1.5-.9.1-2.1-.9-2.6l-55-28c0 1.5 0 2.9.1 4.5l53 27c.4 0 .8.2 1.1.2z"/><path id="XMLID_390_" d="M524.2 651.4c14.2 6.9 36.7 18.2 43.6 25.2.4.4.9.5 1.5.5.5 0 1.1-.1 1.5-.5.8-.8.8-2 0-2.8-7.8-7.8-32.2-20-46.4-26.8-.2 1.4-.2 2.9-.2 4.4z"/><path id="XMLID_391_" d="M557.3 656.7c.4.3.8.4 1.1.4.7 0 1.2-.3 1.6-.9.7-.9.4-2.1-.5-2.8-9.2-6.3-29.5-13.8-35.6-16.1.3 1.5.4 2.9.4 4.4 7.4 2.9 25 9.6 33 15z"/><path id="XMLID_392_" d="M558.4 640.6c.8 0 1.6-.5 1.8-1.3.4-1.1-.3-2.1-1.2-2.5l-43.6-14.9c1.8 2.1 3.3 4.1 4.5 5.7l37.8 12.9c.3.1.4.1.7.1z"/><path id="XMLID_393_" d="M553.8 627.4c.7 0 1.2-.3 1.6-.8.7-.9.4-2.1-.4-2.8-12.4-9.1-40.7-19.3-56.3-24.5 1.2 1.8 2.4 3.7 3.6 5.4 16 5.5 39.8 14.5 50.5 22.3.2.3.6.4 1 .4z"/><path id="XMLID_394_" d="M553.8 609.6c.7 0 1.5-.4 1.7-1.1.5-.9.1-2.1-.8-2.6-20.6-11.1-50-17.4-63.7-20 .8 1.6 1.6 3 2.2 4.5 14.5 2.9 41 9.1 59.5 19 .4.1.8.2 1.1.2z"/><path id="XMLID_395_" d="M475 204.4c-.5-.9-1.7-1.2-2.8-.7l-35.9 21.5c1.3.8 2.8 1.5 4.2 2.1l33.8-20.2c1-.4 1.3-1.7.7-2.7z"/><path id="XMLID_397_" d="M494.6 201.7c-.7-.9-2-1.1-2.8-.4-12.1 9.4-31 22.8-42.3 29 .5.1 1.2.3 1.7.3 1.7.1 3.4.3 5.1.4 15.2-9 34.8-24.1 37.8-26.5 1-.7 1.1-2 .5-2.8z"/><path id="XMLID_400_" d="M507.9 208.9c-.7-.9-1.8-1.1-2.8-.5-9.6 6.9-23.7 16.4-33.9 22.2 2.6-.1 5.3-.1 7.9-.1 11.6-7.1 24.4-16.1 28.2-18.9 1-.6 1.2-1.9.6-2.7z"/><path id="XMLID_401_" d="M523 208.9c-.7-.8-2-.9-2.8-.3-6.3 5.1-19.8 15.7-30.5 23.2 1.2.4 2.6 1.1 4.4 1.8 12.4-8.7 26.4-20 28.7-21.9.8-.8.9-2 .2-2.8z"/><path id="XMLID_404_" d="M536 219.7c.8-.7.9-2 .3-2.8s-2-.9-2.8-.3c-.1.1-14.5 12.4-31.8 20.8 1.3.8 2.8 1.5 4.2 2.4 16.3-8.3 29.3-19.4 30.1-20.1z"/><path id="XMLID_405_" d="M560.7 224c.9-.7 1.2-1.8.5-2.8-.7-.9-1.8-1.2-2.8-.5-8.7 5.7-28.1 17.7-42.9 24.8 1.5.8 2.8 1.6 4.2 2.4 18.4-9 39.7-23 41-23.9z"/><path id="XMLID_408_" d="M567.3 230.8c.9-.7 1.2-1.8.5-2.8-.7-.9-1.8-1.2-2.8-.5-.3.1-23.5 16.1-39 23.3 1.5.8 2.9 1.5 4.4 2.2 15.7-7.7 35.9-21.4 36.9-22.2z"/><path id="XMLID_409_" d="M584.5 237.1c.9-.7 1.2-1.8.5-2.8-.7-.9-1.8-1.2-2.8-.5-.3.3-24.8 16.5-41.5 24.1 1.6.7 3.3 1.5 4.9 2 16.7-8.1 37.7-22 38.9-22.8z"/><path id="XMLID_412_" d="M595 243.5c.9-.5 1.2-1.8.7-2.8-.5-.9-1.8-1.2-2.8-.7l-37.7 23.3c1.7.5 3.6 1.1 5.3 1.5l34.5-21.3z"/><path id="XMLID_179_" class="st3" d="M499.8 427.8c-4.6-8.7-7.5-15.3-8-18.6-.4-2.9-.1-7.3.5-12.5-19 9.4-53.9 24.7-81.6 26.1-27.2 1.5-49.1-4.9-60.5-9.2-2.2 8.4-5.1 17-8 25.6 11.1 6.1 29.1 14.4 44.2 14.4 17-.1 79.8-16.6 113.4-25.8z"/></g></svg>