<svg version="1.1" id="Calque_1" xmlns="http://www.w3.org/2000/svg" x="0" y="0" viewBox="0 0 900 900" style="enable-background:new 0 0 900 900" xml:space="preserve"><style>.st0,.st1,.st2,.st3,.st4,.st5,.st6,.st7{fill:#ffce00;stroke:#000;stroke-width:3.0996;stroke-linecap:round;stroke-linejoin:round;stroke-miterlimit:10}.st1,.st2,.st3,.st4,.st5,.st6,.st7{fill:#fff}.st2,.st3,.st4,.st5,.st6,.st7{fill:none}.st3,.st4,.st5,.st6,.st7{fill:red}.st4,.st5,.st6,.st7{fill:#bf9b00}.st5,.st6,.st7{fill:#0074ff}.st6,.st7{fill:#4c4c4c}.st7{fill:#ff7300}.st8{fill:none}.st9{fill:#fff}.st10{fill:red}</style><path class="st0" d="M527.3 407.5 558.1 543l31 10.2 54.1-3.9 30.7-18.4 8-17.4-22.3-122.6zM395.7 444c-13.9-5-7.4-12.8-13.6-15.1-5.9-2.2-12 3.9-14.3 2-8.9 1.1-56.1 6.4-57.7.4-.5-1.8 2.2-10.3 6.2-21.9-8.8-.4-18.8-3.3-25.4-7.5-8.2 18.8-15.3 35-15.4 39-.5 10.2 10.2 16.7 20.1 21 33.5 14.7 106.2 3.2 106.2 3.2l3.9-8.2 2.1-14.1c-4.9 1.6-9.1 2.2-12.1 1.2z"/><path class="st0" d="m315.7 468.8 86-3.7s-10.1 33.6-10.8 33.6c-.8.1-67.6-2.6-67.6-2.6l-13.2-1.8 5.6-25.5z"/><circle class="st1" cx="284.4" cy="684.3" r="10.8"/><circle class="st2" cx="284.4" cy="684.3" r="4.4"/><path class="st3" d="m298.7 674.2-.6 20.5 9.4-1.3v-18.2z"/><path class="st1" d="m298.7 674.2-6.5-.8-.6 5.2h7zM289.3 696l8.8-1.3.3-9.2-7.7-.2z"/><path class="st1" d="m291.6 678.6-.9 6.7 7.7.2.2-6.9z"/><path class="st4" d="m337.9 678.6-30.4-3.4v7l32 1z"/><path class="st4" d="M307.5 682.2v11.2l33.8-5-1.8-5.2z"/><path class="st0" d="m398.6 610.2-17 11.2s-28.4 50.4-46.7 60.4c-18.3 10-62.8 10-70.3 14.3-4.7 2.7-9.2 8.5-11.9 13.3 8.1 3.2 21.2 5.9 29.8 7.4 2.1-1.9 4.1-3.2 4.1-3.2l75.7 5.7s5.2-29.4 7.5-36c2.3-6.6 43.8-40.8 43.8-40.8l7.8-21.2-22.8-11.1z"/><path class="st1" d="m263.8 712.8-1.8 7.8c1.8.3 3.6.6 5.3.8l1.3-7.4c-1.7-.4-3.3-.8-4.8-1.2zM258.5 711.3l-2.5 8c1.8.5 3.8 1 5.9 1.4l1.8-7.8c-1.8-.6-3.5-1.1-5.2-1.6z"/><path class="st1" d="M252.6 709.4c-1.5 2.9-2.6 5.3-2.6 6.7 0 1.1 2.5 2.2 6 3.3l2.5-8c-2.1-.7-4.1-1.3-5.9-2zM268.6 713.9l-1.3 7.4c1.9.2 3.9.3 5.5.4l1.5-6.6c-1.9-.2-3.8-.7-5.7-1.2z"/><path class="st1" d="m274.2 715.3-1.5 6.6c3.3 0 5.8-.4 6.5-1.5.9-1.3 2-2.5 3.1-3.5-2.3-.5-5.1-1-8.1-1.6zM339.3 688.8c-7.1 7.5-7.1 27.2-7.1 27.2l39.3.8-4-25s-21.1-10.5-28.2-3z"/><path class="st1" d="M280.7 709c-2.8 1.6-3 11.9 1.4 12.8s89.5 3 92.3 3c2.8 0 .2-10.4-3.4-11.2-3.6-.7-87.5-6.3-90.3-4.6z"/><path class="st3" d="M336.6 676c-5.7 2.6-9.1 12.2-2.9 15 6.2 2.9 32.3 8.3 37.7 5 5.4-3.3 4.3-13.4 0-15.4s-29.1-7.3-34.8-4.6z"/><path class="st0" d="M416.4 626.2s-9.5 13.9-7.8 19.5c1.6 5.5 23.6 1.8 23.6 1.8l2.7-19.4-18.5-1.9z"/><circle class="st1" cx="476.8" cy="704.9" r="11.5"/><circle class="st2" cx="476.8" cy="704.9" r="4.4"/><path class="st3" d="M501.1 694.1c-3.6-.5-6.9-1-9.6-1.4l.6 20.2 9.8-.3-.8-18.5z"/><path class="st1" d="m485.2 713.1 6.9-.2-.3-9.6h-6.6z"/><path class="st1" d="M485.2 697.2v6.1h6.6l-.2-6.1zM491.5 692.7c-3.8-.5-6.3-.9-6.3-.9v5.4h6.4l-.1-4.5z"/><path class="st4" d="m501.4 700.6.5 12 28-.9-1-8.7z"/><path class="st4" d="M528.3 698c-.9-.1-15.3-2.1-27.2-3.9l.3 6.5 27.4 2.4-.5-5z"/><path class="st0" d="M544.8 641.9c-.8-.4-5.2-22.6-5.2-22.6s-54.9 2.9-42.4 19.2c12.6 16.4 28.1 51.8 29.2 57 1 5.3-1.5 10.8-1.5 10.8s-19.1.4-38.2 2.9c-12.6 1.6-24.7 11.1-31.5 18.2 2.6 1.5 7 3.2 13.5 4 12.6 1.5 19.9.8 19.9.8l.3 4.1c16.4-1.8 66.5 2.1 66.5 2.1l10.2-31c-.1 0-20-65.1-20.8-65.5z"/><path class="st1" d="m462 730.1-2.5 8.4c1.7.2 3.5.5 5.3.6l1.9-8.1c-1.8-.1-3.3-.5-4.7-.9zM455.2 727.4c-3.6 3.7-5.7 6.8-5.7 7.9 0 .7 1.6 1.5 4.2 2.2l4.4-8.6c-1.2-.6-2.1-1-2.9-1.5z"/><path class="st1" d="m458.1 728.8-4.4 8.6c1.6.5 3.6.9 5.9 1.2l2.5-8.4c-1.6-.5-2.9-.9-4-1.4zM468.7 731.4c-.7-.1-1.3-.2-1.9-.3l-1.9 8.1c2.2.2 4.4.3 6.5.4l.8-7.8c-1.2-.1-2.4-.2-3.5-.4z"/><path class="st1" d="m472.1 731.8-.8 7.8c1.5 0 3.1 0 4.5-.1l.5-7.4c-1.2 0-2.7-.1-4.2-.3zM488.8 736.3l-.3-4.1s-4.3.5-12.1-.1l-.5 7.4c3.8-.2 6.9-.8 8-1.9.6-.6 2.3-1 4.9-1.3z"/><path class="st0" d="M488.8 638.3s-4.6 13.3-3.3 19.4c1.3 6.1 16 4.2 18.6-2.3 2.6-6.5-3.1-18-3.1-18l39.3-5.5s-2.1 16.8 3.9 19.6c6 2.8 12.2 1.5 13.7-4s-5.4-14.9-5.4-14.9l-4.6-8.8-59.1 14.5zM477.9 611.3c1.3 2.7 2.3 5.7 3.1 8.8l23.2-5.8c-8.1-.6-17-1.6-26.3-3z"/><path class="st4" d="M482.4 627.4c1.2 7.3 1.3 13.5 2.2 14.6 1.8 2.2 66.9-7.1 67.6-9.5.4-1.2-1.5-8-3.5-14.3l-66.3 9.2zM547.3 613.5c-4.8 1.4-21.2 2.4-43.2.8l-23.2 5.8c.6 2.5 1.1 5 1.5 7.3l66.3-9.2c-.4-1.7-.9-3.2-1.4-4.7z"/><path class="st2" d="m488.5 633 4.6 8.9M495.5 631.8l4.1 9.1M502.8 631.8l3.8 8M508.6 630.2l5.2 9.4M515.5 628.9l4.3 9.7M521.6 628.2l4.6 9.3M528 626.2l4.4 10.6M535.5 627.1l2.9 8.9M540.9 625.8l2.9 9.1M546.1 624.9l2.7 8.9"/><path class="st1" d="M530.3 705.9v30.9l41.3-3.3s-.2-12.1-7.5-21.8l-33.8-5.8z"/><path class="st3" d="M523.7 695.3c-2.1 2.6-2.9 11 0 13.7 2.9 2.7 41.8 8.5 46 6.7 4.1-1.8 3.6-13.6-2.1-14.7-5.7-1.2-41.9-8.4-43.9-5.7z"/><path class="st1" d="M485.2 729.9c-4 1.3-2.6 8.8-1.3 9.8s87.8 8.5 90.9 8.5.8-14.5-3.3-14.7c-4-.2-82.4-4.9-86.3-3.6z"/><path class="st3" d="M417.5 659.1 461 672c.6-1.9 1.2-3.9 1.9-5.8l-43.2-12.6c-.7 1.8-1.4 3.7-2.2 5.5z"/><path class="st3" d="M417.5 659.1c-2.3 5.6-4.7 10.9-7.1 15.9l45.1 13.8c1.9-5.5 3.7-11.2 5.6-16.7l-43.6-13s0 0 0 0zM482.4 606.7l-47.5-6.2s-2.2 15.7-10.2 39.7l43 11.8c8.1-24.9 14.7-45.3 14.7-45.3z"/><path class="st5" d="M424.6 640.2c-1.5 4.3-3.1 8.8-4.9 13.5l43.2 12.6c1.6-4.9 3.2-9.6 4.6-14.3l-42.9-11.8z"/><path class="st1" d="m393.5 706.7 49.3 19.6c1-2.9 2.2-6.3 3.5-9.9l-48.7-17c-1.5 2.6-2.9 5-4.1 7.3z"/><path class="st6" d="M385.7 725.8c0 9.8 16 8.3 20.7.2-3.3 13.6 9.8 19.4 16 7.5 1.3 11.5 11.9 10.8 15.5 5.4.6-.9 2.4-5.6 4.9-12.6l-49.3-19.6c-4.7 8.6-7.8 14.9-7.8 19.1z"/><path class="st1" d="M404.8 686.1c-1.2 2.3-2.4 4.5-3.6 6.7l47.3 16.7c.9-2.9 1.9-5.8 3-8.9l-46.7-14.5zM455.5 688.8 410.4 675c-1 2-1.9 4-2.9 6l45.9 14.3c.7-2.2 1.4-4.3 2.1-6.5z"/><path d="M414.9 676.7s-23.2 44.9-18.2 46c5 1 23-44.1 23-44.1M428.7 680.6s-18.9 49.9-14.6 50.6c4.3.7 20.1-48.8 20.1-48.8M444.6 685.5S425.2 734 430 734.7c4.7.7 19.7-47.7 19.7-47.7"/><path class="st1" d="M401.7 589c61.1 29.8 141 27.7 146.7 24.1 5.7-3.6 11.1-51.1 11.1-51.1l-20.9-93.2-54 5.8s-76.9 94.1-82.9 114.4z"/><path class="st3" d="M481.7 582.1c-4.9-2.3-8.8-5-11.8-7.2-2.6 2.9-6 5.3-9.8 7.1 5.3 4.3 12.3 9.6 18.1 11.7 8.7 3.3 60 1.8 76.3 1.2.9-4.3 1.6-9 2.3-13.4-15.9 1.6-64.7 5.7-75.1.6z"/><path class="st0" d="M449.7 515.1c1.5 1.5 28.5 49.5 29.5 49.7 1 .2 78.3-27.2 78.3-27.2l-19.1-79.4-57.5 15.2-31.2 41.7z"/><path class="st5" d="M489.8 568.4c3.3 2.3 45.8-2.5 65.6-4.9-.1-.2-.1-.4-.2-.5-3.6-11.7-6.4-20.6-7.7-24.9L484 556.4c1.4 4.6 3.3 10.3 5.8 12z"/><path class="st5" d="M489.8 568.4c-2.5-1.8-4.5-7.4-5.7-12.1l-10.9 3.2s3.7 12.1 12.6 15.7c7.2 2.9 55.6-1.4 72.5-3.1-.9-3-1.8-5.9-2.6-8.6-20 2.4-62.6 7.2-65.9 4.9z"/><path class="st2" d="m492.1 557.7 5.2 7.1M499.6 556.5l5.2 6.5M508.6 554l6.5 9M517.5 551.7l6.5 9.6M526.2 549.9l6.2 10.9M532.4 547.7l6.8 12M540.9 547.7l5.9 11.8"/><path class="st4" d="M407.7 438.5s-30 77.3-31.8 112.4c-1.8 35.1 78.8 50.4 96.9 20.1 18.1-30.2 32-104.3 32-104.3L494 410.1l-54 2.9-32.3 25.5z"/><path class="st2" d="M416 444.5s-36.9 84.9-30.2 109.7c6.7 24.8 56.3 30.3 74.9 20.4 18.6-9.9 39.1-105.6 39.1-105.6l-12.9-28.4-70.9 3.9z"/><circle class="st2" cx="412.2" cy="484.8" r="2.9"/><circle class="st2" cx="400.6" cy="514.6" r="2.9"/><circle class="st2" cx="474.2" cy="530.1" r="2.9"/><circle class="st2" cx="487.2" cy="496.1" r="2.9"/><path class="st2" d="m489.7 509.4-15.5-3.7M487.2 515.8l-15.9-2.4M478.3 544.6l-13.3-4.5M476.3 549.9l-11.3-4.3M394.4 501.9l23.9 4M396.3 496.1l22.8 4.4"/><path class="st1" d="M461.1 540.3s-15.3-7.4-15.1-8.8c.2-1.3 31.2-70.8 31.2-70.8l10.1 10.6-1.8 4.8-24.4 64.2z"/><path class="st0" d="M603.7 554s8.5 19.9 12.4 29.2 15.3 14 16.8 16.8.5 6.7-4.6 7c-5.2.2-13.5-7-16-7.5 9.5 8.9 25.3 44.2 28.7 49.1 3.3 4.9 12.6 7.5 15 10.3 2.3 2.8-.7 7.4-3.3 6.7s-7.2-4.1-9.8-3.1c3.6 10.9 15.2 35.2 19.4 41.8s13.9 15.7 13.9 18.8-8.2 9.1-13.6 9.1-10.3-5.7-10.3-5.7L605.8 643 574 551.7l29.7 2.3z"/><path class="st5" d="m610.8 629.8-32.4 8c1 3.2 2 6.4 2.9 9.5l33-9.1c-1.1-2.8-2.3-5.6-3.5-8.4zM616.7 643.6c-.8-1.8-1.5-3.6-2.2-5.3l-33 9.1c1 3.2 1.9 6.4 2.9 9.5l34.1-9.1c-.6-1.5-1.2-2.8-1.8-4.2z"/><path class="st3" d="m618.5 647.7-34.1 9.1c.8 2.6 1.6 5.1 2.4 7.7l34.6-10.4c-1-2.1-2-4.2-2.9-6.4z"/><path class="st1" d="m559.9 543.4-13.2-8.3s3.3 10.9 8.6 27.8l25.6-5.3c-1.2-2.9-2.2-5.4-3.1-7.6-2.1-5.1-17.9-6.6-17.9-6.6z"/><path class="st3" d="m580.9 557.7-25.6 5.3c6 19.6 14.6 47.3 23.2 74.9l32.4-8c-12-28.1-23.3-55.6-30-72.2zM621.3 654.1l-34.6 10.4c.9 3 1.9 6 2.8 8.9l35.6-10.5c-1.2-2.8-2.6-5.8-3.8-8.8z"/><path class="st6" d="M611.2 740.5c3.9 8 16 4.4 14.7-3.3 4.1 6.7 13.9 3.6 12.6-3.6 4.9 5.2 19.3 1.9 15-8-.6-1.5-2.9-6.4-6.4-13.8l-41.4 13.1c3 8.6 4.9 14.4 5.5 15.6z"/><path class="st1" d="M602.1 713.1c1.4 4.3 2.6 8.3 3.8 11.7l41.4-13.1c-1.2-2.8-2.7-5.9-4.3-9.2l-40.9 10.6zM635.8 686.8 597 697.2c.9 2.8 1.7 5.4 2.6 8l39.7-10.8c-1.2-2.5-2.3-5-3.5-7.6z"/><path class="st0" d="m627.7 668.8-36.6 9.8c.6 2.1 1.3 4.1 1.9 6.2l37.4-9.8c-.9-2.1-1.7-4.2-2.7-6.2z"/><path class="st1" d="m630.5 674.9-37.4 9.8c.8 2.4 1.5 4.7 2.2 7.1l38-10.5c-.9-2.1-1.8-4.3-2.8-6.4z"/><path class="st0" d="m625.2 662.9-35.6 10.5c.5 1.7 1.1 3.4 1.6 5.1l36.6-9.8c-.9-1.9-1.8-3.8-2.6-5.8z"/><path d="M599.5 690.6s14.7 46.4 17.8 45.3c3.1-1.1-12.9-46.6-12.9-46.6M611.6 687.7c-2.2-5.7 16.4 46.9 18.9 45.9 2.6-1.1-14.9-47.3-14.9-47.3M622.3 684.7s19 44.2 21.9 42.7-15.7-44.9-15.7-44.9"/><path class="st3" d="m424.5 454.3-7 67.4 14.7 2.9 8.1-62.2 16-.5-17.7 64.5s20.4 3.1 20.7 2.3c.2-.8 26.3-71.3 26.3-71.3l-61.1-3.1z"/><path class="st0" d="M415.9 448.8c-2.9 3.8-8.7 12.2-8.7 17.9 0 7.7 12.9 11.8 16.5 8.2 2.1-2 4.3-7.5 5.7-11.8-6.8-3.4-11-8.9-13.5-14.3zM448.2 481.2c3.4 4.1 12 .5 13.9-4.1 1.1-2.6.8-7.1.2-10.8-4.7.4-9.8.5-15 .5-.7 4.7-1.3 11.7.9 14.4zM495.2 472.2c-1.5-2.2-2.9-5.8-4.1-10.4-2.9.6-6.2 1.3-10 2-.4 5.8-.6 15.6 2.2 18.1 4.1 3.8 14.1 4 15.3-1.4.2-1 .2-2.6.2-4.3-1.4-1.1-2.6-2.4-3.6-4z"/><path class="st5" d="M435.8 452.5c13.9 7.8 50.6 2.4 62.8-1.9l-16.9-55.9-56.3 30.3c-.8 7.9-.5 21.4 10.4 27.5z"/><path class="st5" d="M481.1 454.5c-6.4 1-13.4 1.7-20.1 1.9l1.4 9.8c8.1-.6 15.4-1.7 21.4-2.8l-2.7-8.9zM425.4 424.8l-13.9 7.4s.2 7.2 3.6 15l11.7-5.9c-1.9-5.6-1.9-11.9-1.4-16.5zM435.8 452.5c-1.2-.7-2.3-1.5-3.3-2.3l-6.7 10.8c2 1.5 4.4 2.7 7.1 3.6l4.3-11.5c-.5-.2-.9-.4-1.4-.6zM426.8 441.4l-11.7 5.9c2.1 4.9 5.4 10 10.7 13.7l6.7-10.8c-2.7-2.4-4.5-5.5-5.7-8.8zM501.2 459.2l-2.6-8.7c-3.9 1.4-10.2 2.9-17.4 4l2.6 8.8c10.7-1.9 17.4-4.1 17.4-4.1zM437.2 453.2l-4.3 11.5c3.3 1.2 7.1 1.9 11.4 2 3.9.1 7.7.1 11.4-.1l-.8-10.2c-6.9-.2-13.2-1.1-17.7-3.2zM454.9 456.4l.8 10.2c2.2-.1 4.4-.2 6.6-.4l-1.4-9.8h-6z"/><path class="st0" d="M433.2 423.2s-7 20.8 15.5 26.3c22.5 5.3 46.3-6 46.3-6l-7.1-40.1-54.7 19.8z"/><path class="st3" d="M435.8 421.3s4.1 12.4 15.3 16.3c11.1 3.9 39.8-4.4 39.8-4.4l-2.2-25.3-37.7.8-15.2 12.6z"/><path class="st6" d="m504.5 263.8 37.6 215.8s-34.9 10.8-46.9-7.4c-12-18.2-16.7-125.1-16.7-125.1l-119.7-38.5s-13.6.9-16.3-3.3 10.1-36.8 10.1-36.8l-4.6-36.2s8.5-8 46.5-16.1c38-8.1 70.5 1.2 92.2 17.6s17.8 30 17.8 30z"/><path class="st2" d="m491 345.9.2-57.3M485.7 343l.9-55.8M481.7 340.1l-.8-49.2M476 341.3v-49.8M471.4 339.5l.4-52.3M467.1 340.1l-1.3-54.5M457.8 309.7l.9-31.3M451.2 307.3l.6-28.9M444.2 305.7l1.8-26.4M437.7 304.6l2.5-25.6M431.5 303.5l3.2-25.3M424.7 302.1l1.6-22.8M418.3 300.7l3.1-25M411 300.7l3.1-25M403.6 299.4l3.5-22.6M397.4 299.2l3-22.2M389.8 298.3l2.9-21.3M383.3 299.2l2.8-19.8M377.2 299.2l2.3-22.2M369.2 299.2l2.1-18.4M363.6 301.4l1.4-19.8M355.9 308.5l3.3-26.1M349.3 307.3l3.7-22.5M502 344l21.3-26.1M484.5 365.5l14.1-17.3M505.1 346.6l14.2-17.2M486.6 369.1l14.6-17.7M490.5 340.3l32.6 32M491.3 334.2l30.3 29.6M517.4 367.2l-30.7 47.3M485 425.8l36.6-55.1M526.4 403.4l-35.1 57.4M492.7 466.7l36.9-58.9M512.3 481.2l21.4-36.7M517.9 482.2l19.4-29.9M502.2 451.5l20.8 11.4M505.7 446l20.6 11.2M497.6 407.8l18.8 11.9M500.4 403.4l18.9 11.9M434.7 213.8l26.1 42.5M426.3 213.2l25.5 44.1M383.3 219.2l20.3 31M375.8 220.7l15.4 25.1M479.6 235.5 493 266M485.7 233l13.9 33.7M448.6 235l26.6-9M415.8 246.1l24.4-8.3M451.5 240.2l29.7-10.3M423.3 249.8l20.2-6.9"/><path class="st1" d="M501.2 271.8c.8-.4 16 1.2 24.4 9.8 8.4 8.7 9.1 40.1 9.1 40.1s-2.4 22.8-3.6 22.6-11.2 0-11.2 0l-10.5-57.1-9.8-1.6 1.6-13.8z"/><path class="st0" d="m258.3 488.8-.2 34.2c1.5 2.3 2.9 4.6 4.4 7.1l1-31.5c-2.1-4.1-3.9-7.4-5.2-9.8z"/><path class="st0" d="m256.3 485.1-15-.3v11.3s7.8 12.6 16.8 26.9l.2-34.2c-1.3-2.3-2-3.7-2-3.7zM279.3 528l-1.6 25.7c2.1 3.2 3.9 5.9 5.1 7.7l1.7-23.2c-1.6-3.3-3.3-6.8-5.2-10.2zM263.6 498.5l-1 31.5c5.4 8.6 10.9 17.3 15.1 23.6l1.6-25.7c-5.4-10.3-11.2-21.2-15.7-29.4zM294.1 559c-.8-3-4.6-11.1-9.6-20.8l-1.7 23.2c.9 1.3 1.5 2.2 1.9 2.5 3.4 3.3 11.9 4.9 9.4-4.9z"/><path class="st5" d="M225.6 600.5H243c.1-2.1.1-4.3.2-6.4l-17.7-.5c0 2.4.1 4.6.1 6.9z"/><path class="st5" d="m225.4 593.7 17.7.5c.4-13.6.8-28.4 1.2-43.8l-19.8-.2c.3 15.3.6 29.9.9 43.5zM224.3 544h20.1c.3-11.2.6-22.8.9-34.4l-21.7.2c.3 11.6.5 23 .7 34.2zM224.5 550.1l19.8.2c.1-2.1.1-4.2.2-6.3h-20.1c0 2.1 0 4.1.1 6.1zM227.7 671.3c1.3 7.3 13.3 5.7 13.4-.8 0-1.2.3-12.4.8-30.3h-15.3c.4 18.3.8 29.8 1.1 31.1zM226.3 633.3H242c.2-9.6.5-20.7.9-32.9h-17.4c.4 12.3.6 23.3.8 32.9zM226.6 640.2h15.3c.1-2.2.2-4.5.2-6.8h-15.7c0 2.3.1 4.6.2 6.8zM248 406.8c.2-10.2.5-19.7.8-28.6l-27.8-1.4c.2 7.8.3 16.2.5 25 3.5.5 7.5 1.2 11.7 2 5.1.9 10.5 2 14.8 3zM221.9 424.5c3.3-.9 7.8-1.5 12.3-1.9-2.8-1.3-7.6-2.2-12.4-3.3 0 1.7.1 3.5.1 5.2z"/><path class="st5" d="M243.3 422.5c-6.7-.1-15.7.5-21.4 2.1.2 12.3.5 25.1.8 38.2l23.9.6c.4-13.9.7-27.6 1.1-40.7-1.4-.1-2.8-.2-4.4-.2zM249.9 335.8l-29.7-1.3c.2 8.5.4 19.8.6 32.9l28.2 1.3c.4-13.3.7-24.5.9-32.9zM223.6 509.9l21.7-.2c.1-2.6.2-5.1.2-7.7l-22.1-.1c.1 2.6.1 5.3.2 8zM250.1 328.4l-30.1-1.3c.1 2.2.1 4.6.2 7.4l29.7 1.3c.1-2.8.2-5.2.2-7.4z"/><path class="st5" d="M220.8 367.4c.1 3 .2 6.2.2 9.4l27.8 1.4c.1-3.3.2-6.4.2-9.5l-28.2-1.3zM223.5 501.8l22.1.1c.3-12.9.7-25.9 1-38.6l-23.9-.6c.2 13 .5 26 .8 39.1zM250.4 319.4l-30.5-2.6s.1 3.7.2 10.4l30.1 1.3c.1-5.8.2-9.1.2-9.1z"/><path class="st1" d="M298.4 361.5s-16.3 18.6-15 30.9c1.3 12.3 33.9 21.5 46.3 14.6 12.3-7 10-32.4 10-32.4l-41.3-13.1z"/><path class="st2" d="m295.5 378.2-10 18.2M303.3 396.4l-2.3 9.7M310 397.2l-1 10.6M317.6 396.4v12.9M322.7 396.4l2.4 12.3M328.4 394.6l2.3 11.5"/><path class="st1" d="M301 345.2c-8 2.4-8.2 10.5-6.8 17.1 1.4 6.7 32.5 20.1 39.3 17.5 6.8-2.6 10.6-12.1 6.8-17-3.9-4.7-31.3-20-39.3-17.6z"/><path class="st2" d="m298.2 353.5-4.1 9.6M303.3 358.5l-3.9 9.4M308.2 363.1l-2.2 8.7M313.1 366.2l-.4 8.8M319.4 367.8v9.8M325.1 369.1v9.9M330.7 370.6l1.3 8.5M336.4 369.1l1.8 7.5"/><path class="st7" d="M334.4 360.3c6.7-18.3 12.2-33.9 11.9-37.7-.6-7.3-11.6-26.3-18.4-35.3l-8.7 7.5c.6 2.4 1.3 4.4 1.3 4.4s-8.8-11.8-15.5-19.7l-20.1 27.2c10.2 9.5 29 23.9 32.3 27.6 1.2 1.3-1.2 8.8-5.3 19.2 3.4 8.6 17.8 9.2 22.5 6.8z"/><path class="st1" d="M297.4 272.6c-3.3 0-6 2.2-4.4 5.9-2.9-.9-6.4 2.4-5.2 6.4-2.6-.8-7 2.9-4.4 7.1-3.6-1.9-8.1 1.3-5.1 7.6.7 1.5 3.1 4.1 6.4 7.2l20.1-27.2c-3.4-4.1-6.3-7-7.4-7z"/><path class="st2" d="m293 278.4 18.6 20.9M304.8 302.1l-17-17.3M283.4 291.8l17.6 16.8"/><path class="st1" d="M323 282.4c-3.1 0-5.2 1.7-5.2 5.3 0 1.8.6 4.6 1.3 7.1l8.7-7.5c-2.3-3-4.1-4.9-4.8-4.9z"/><path class="st2" d="M320.3 299.2c7.2 9.5 13.1 19.1 13.1 19.1"/><circle class="st1" cx="514.8" cy="427.9" r="12.6"/><path class="st2" d="m506.9 427.1-1.2 9.5M510.5 427.9l1 12.6M514.8 427.9l3.1 12.3M519.3 425.9l4.7 10.7"/><ellipse class="st1" cx="504.3" cy="312.4" rx="15.7" ry="19"/><path class="st2" d="m495 308.7-4.1 13.8M498.9 312.4l-3.7 15.3M503 315l-.8 15.7M507.1 315.4l2.3 15"/><path class="st1" d="m535.1 396.4-13.4-1.6c.2 2 .5 4 .8 6l13.6 2.6c-.4-2.4-.7-4.7-1-7zM539.4 427.7l-13.9-3.1c.3 2.2.6 4.5.9 6.8l13.9 3c-.3-2.2-.6-4.5-.9-6.7zM543.4 454.2l-13.9-2.3c.4 2.7.8 5.3 1.2 8.1l13.9 1.3c-.6-2.4-.9-4.8-1.2-7.1z"/><path class="st1" d="m542.3 448-14-2.9c.3 2.2.6 4.6.9 6.8l13.9 2.3c-.1-2.1-.4-4.1-.8-6.2zM540.4 434.4l-13.9-3c.3 2.1.5 4.2.9 6.3l13.9 2.9c-.4-2.1-.7-4.1-.9-6.2zM538.4 420.6l-14-4.9c.4 2.9.8 5.9 1.2 8.8l13.9 3.1c-.4-2.2-.8-4.6-1.1-7zM553.5 511.4l-13.9-.5c.5 2.5 1.2 5 1.8 7.3l13.6-.5c-.6-2.1-1-4.2-1.5-6.3z"/><path class="st1" d="m554.9 517.7-13.6.5c.9 3.7 1.9 7.2 3 10.4l12.4-3.9c-.6-2.2-1.2-4.6-1.8-7zM536 403.4l-13.6-2.6c.3 2.2.6 4.5.9 6.7l13.9 4-1.2-8.1zM544.4 461.2l-13.9-1.3c.4 2.6.8 5.1 1.2 7.7l13.9 1.4-1.2-7.8zM549.4 491l-14-.9c.4 2 .8 4 1.1 6l13.9.6c-.3-1.9-.6-3.8-1-5.7zM552 504.2l-14-.9c.5 2.6 1.1 5.1 1.6 7.6l13.9.5c-.5-2.3-1-4.7-1.5-7.2z"/><path class="st1" d="m550.5 496.7-13.9-.6c.5 2.5.9 4.9 1.5 7.2l14 .9c-.6-2.4-1.2-4.9-1.6-7.5zM545.7 468.9l-13.9-1.4c.3 2.1.6 4.1.9 6.1l14.2 2.4c-.4-2.2-.8-4.6-1.2-7.1zM546.8 476.1l-14.2-2.4c.4 2.4.8 4.8 1.2 7.1l14.2 2.1c-.4-2.2-.8-4.5-1.2-6.8z"/><path class="st1" d="m548 482.9-14.2-2.1c.5 3.1 1.1 6.2 1.6 9.2l14 .9c-.5-2.5-.9-5.3-1.4-8zM537.2 411.6l-13.9-4c.3 2.1.5 4.2.9 6.2.1.7.2 1.4.3 2l14 4.9c-.5-3.1-1-6.1-1.3-9.1zM523.5 313.2l-12.6-.6c.5 2.6.9 5.4 1.3 8.5l12.5.5c-.3-2.9-.7-5.8-1.2-8.4zM521.3 299.4l-12.4 2.8c.3 1.2.6 2.6 1 4.3l12.6-.3c-.5-2.5-.8-4.7-1.2-6.8z"/><path class="st1" d="m522.4 306.3-12.6.3c.4 1.8.7 3.8 1.1 6l12.6.6c-.3-2.5-.7-4.8-1.1-6.9zM524.8 321.6l-12.5-.5c.3 2.2.7 4.7 1 7.2l12.6.8c-.4-2.5-.8-5.1-1.1-7.5zM518.9 289.8c-1.3-1.9-2.9-3.3-4.7-4.3l-8.4 11.8c.4.2.8.3 1.2.5.2.1.5.4.7.8l11.9-7.3c-.3-.8-.6-1.3-.7-1.5z"/><path class="st1" d="m519.5 291.2-11.9 7.3c.5.8.9 2 1.4 3.7l12.4-2.8c-.8-3.7-1.4-6.5-1.9-8.2zM534 388.5l-13.3-1.1c.3 2.4.6 4.9.9 7.4l13.4 1.6c-.3-2.7-.7-5.3-1-7.9zM525.8 329.1l-12.6-.8c.3 2.2.6 4.4.9 6.7h12.5c-.1-2-.5-3.9-.8-5.9zM499.6 281.6v13.3s2.3.9 6 2.3l8.4-11.8c-5.7-3.4-12.6-3.2-14.4-3.8zM531.2 367.9l-13-.8c.3 2.3.5 4.6.9 7.1l13 .5c-.3-2.3-.6-4.5-.9-6.8z"/><path class="st1" d="m532.1 374.7-13-.5c.2 2.2.5 4.4.9 6.7l13.2.7c-.5-2.3-.8-4.7-1.1-6.9zM530.4 362.1l-12.9-1.1c.2 2 .5 4.1.8 6.2l13 .8c-.4-2.1-.7-4-.9-5.9zM526.7 335h-12.5c.3 2.4.6 5 .9 7.6l12.6.1c-.3-2.7-.6-5.2-1-7.7zM533 381.6l-13.2-.7c.2 2.2.5 4.3.8 6.5l13.3 1.1c-.2-2.3-.5-4.7-.9-6.9z"/><path class="st1" d="m527.8 342.7-12.6-.1c.2 1.9.5 3.8.7 5.8l12.8 1.3c-.3-2.3-.6-4.7-.9-7zM529.6 356.2l-12.9-1.7c.2 2.1.5 4.3.8 6.4l12.9 1.1c-.3-2-.5-3.9-.8-5.8z"/><path class="st1" d="m528.7 349.8-12.8-1.3c.2 2 .5 4 .8 6l12.9 1.7c-.3-2.2-.6-4.3-.9-6.4zM541.3 440.6l-13.9-2.9c.3 2.5.7 5 1 7.4l14 2.9c-.4-2.5-.8-4.9-1.1-7.4zM665.3 532.3l8.5 7.8c2.2-1.8 4.1-3.7 5.7-5.7l-9.8-6.1c-1.1 1.4-2.7 2.8-4.4 4zM678.5 445.4l-11.2-5.9 1.2 8.4 11.2 5.3-1.2-7.8z"/><path class="st1" d="m677.2 437.1-11.1-5.4c.4 2.6.8 5.2 1.2 7.9l11.2 5.9c-.5-2.9-.9-5.7-1.3-8.4zM679.7 453.3l-11.2-5.3c.4 2.6.7 5.3 1.1 7.9l11.1 4.3c-.3-2.4-.7-4.6-1-6.9z"/><path class="st1" d="m680.7 460.2-11.1-4.3 1.2 8.7 11.2 4.9c-.5-3.1-.9-6.2-1.3-9.3zM669.9 528.3l9.8 6.1c1.9-2.3 3.4-4.8 4.4-7.4l-10.3-4.7c-.9 2.2-2.2 4.2-3.9 6zM674.4 420.2l-10.8-5c.4 2.6.9 5.3 1.3 8.2l11.1 6c-.6-3.2-1.1-6.3-1.6-9.2zM662.6 409c.3 1.9.6 3.9 1 6.1l10.8 5c-.9-4.8-1.5-8.9-2.2-12.2l-9.6 1.1zM675.9 429.5l-11.1-6c.4 2.6.9 5.3 1.2 8.2l11.1 5.4c-.3-2.7-.8-5.2-1.2-7.6zM685.6 512.3l-10.8-2.2c.1 2.3 0 4.4-.1 6.3l10.8 2.9c.1-2.1.1-4.5.1-7zM685.3 504.4l-10.8-3.2c.2 3.2.3 6.1.4 8.8l10.8 2.2c-.2-2.4-.2-5-.4-7.8z"/><path class="st1" d="m685.5 519.4-10.8-2.9c-.1.9-.1 1.6-.2 2.4-.2 1.2-.4 2.4-.9 3.6l10.3 4.7c.8-2 1.2-4.2 1.4-6.4.2-.6.2-1.1.2-1.4zM681.9 469.5l-11.2-4.9c.3 2.3.6 4.7.9 7.1l11.1 4.2c-.3-2.2-.6-4.4-.8-6.4zM684.8 497l-10.9-3.3c.2 2.6.4 5.1.5 7.5l10.8 3.2c0-2.3-.2-4.8-.4-7.4z"/><path class="st1" d="m684.2 490.3-11-3.8c.2 2.5.5 5 .7 7.3l10.9 3.3c-.1-2.2-.3-4.5-.6-6.8zM682.7 475.8l-11.1-4.2c.3 2.6.6 5.1.9 7.7l11 3.7c-.3-2.4-.5-4.8-.8-7.2z"/><path class="st1" d="m683.5 483-11-3.7c.2 2.4.5 4.8.8 7.2l11 3.8c-.3-2.4-.5-4.8-.8-7.3zM610.1 548l2.6 12.3c2.9-.2 5.8-.5 8.7-.9l-3.8-12.1c-2.4.3-5 .6-7.5.7zM581.6 547l-2.7 11.7c2.9.6 6 1.1 9.3 1.4l.9-12.2c-2.7-.2-5.1-.5-7.5-.9zM568.1 543l-8.3 8.8c2.3 1.4 4.9 2.6 7.7 3.7l6.8-10.2c-2.3-.6-4.3-1.4-6.2-2.3zM574.3 545.4l-6.8 10.2c3.5 1.3 7.3 2.4 11.3 3.3l2.7-11.7c-2.5-.6-4.9-1.2-7.2-1.8zM589.1 548l-.9 12.2c2.3.2 4.7.5 7.2.5l.2-12.3c-2.2-.1-4.4-.2-6.5-.4z"/><path class="st1" d="m595.6 548.3-.2 12.3c2.7.2 5.4.2 8.1.2l-.8-12.5c-2.4.1-4.8.1-7.1 0zM558.2 529.4l-11.4 5.9c1.2 2.8 2.3 5.3 3.6 7.4l9.8-7.8c-.7-1.6-1.4-3.5-2-5.5zM563.3 539.7l-8.8 8.1c1.5 1.5 3.3 2.8 5.3 4l8.3-8.8c-1.9-1-3.5-2.1-4.8-3.3z"/><path class="st1" d="M562.3 538.5c-.7-.9-1.4-2.1-2.1-3.7l-9.8 7.8c.9 1.6 1.9 2.9 2.9 4l1.2 1.2 8.8-8.1c-.3-.4-.7-.8-1-1.2zM602.8 548.4l.8 12.5c3-.1 6.1-.2 9.2-.5l-2.6-12.3c-2.5.2-5 .2-7.4.3zM646.3 541.4l6.4 10.4c2.5-.9 5-2 7.2-3.1l-7.8-9.3c-1.9.6-3.7 1.3-5.8 2z"/><path class="st1" d="m638.7 543.6 6.4 10.8c2.6-.8 5.2-1.7 7.7-2.6l-6.4-10.4c-2.5.8-5 1.5-7.7 2.2zM652.1 539.3l7.9 9.4c2.2-1 4.3-2.2 6.3-3.3l-7.8-9c-2.1 1.1-4.3 2-6.4 2.9zM631 545.3l5.6 11.3c2.9-.7 5.7-1.5 8.4-2.2l-6.4-10.8c-2.4.6-5 1.3-7.6 1.7z"/><path class="st1" d="m624.4 546.5 5.7 11.6c2.2-.4 4.4-.9 6.7-1.4l-5.6-11.3c-2.4.4-4.6.8-6.8 1.1zM556.7 524.6l-12.4 3.9c.8 2.5 1.6 4.7 2.5 6.7l11.4-5.9c-.5-1.3-1-3-1.5-4.7zM658.4 536.5l7.8 8.9c2.8-1.6 5.4-3.4 7.7-5.3l-8.5-7.8c-2.1 1.5-4.4 2.9-7 4.2zM617.7 547.4l3.8 12.1c2.9-.4 5.7-.9 8.5-1.4l-5.7-11.6c-2.1.4-4.4.7-6.6.9z"/><path class="st0" d="M365.4 300.2c-8.9 3.9-11.6 28.7-11.2 33.3s6 7.1 4.8 8.9c-1.2 1.8-10.2 10.8-18.4 27.5-8.1 16.7-9.3 29.8-3.9 33.3s23.6 1.2 23.6 1.2-10.1 11.2-6.6 15.1 8.1-1.9 8.1-1.9 3.5 9.7 5.4 12.8 8.5-3.9 14.7-1.5-.4 10.1 13.6 15.1 53.1-26.8 65.1-27.1c12-.3 20.5 4.3 27.5-2.3s-1.9-31-1.9-31l-26-41.5s1.5-24.8-1.5-31.4-84.4-14.4-93.3-10.5zM531.3 388.2s-12.4-60.1 2.3-72.8 105.8-15.9 113.9-9.3 17 66.6 17 66.6l-22.1 15.6H531.3z"/><path class="st2" d="M649.1 335.5 537.4 346c-.1 2.2-.1 4.4 0 6.7l112.8-10.1c-.3-2.4-.7-4.8-1.1-7.1zM539.8 378.2c.5 2.9.9 5.5 1.2 7.5 24.4-4 87.5-10 112.7-12.2-.2-1.9-.4-4-.6-6.4l-113.3 11.1zM542.5 325.2c-3.3 4.6-4.8 12.4-5.1 20.8l26.3-2.5-3.2-26.7c-8.7 1.9-15.4 4.6-18 8.4z"/><path class="st2" d="M649.1 335.5c-1.8-11-3.8-20.1-5.9-21-2.2-1-16.4-2-33.6-1.9l3 26.3 36.5-3.4z"/><path class="st2" d="m612.7 338.9-3-26.3c-2.2 0-4.3.1-6.6.1l3.1 26.9 6.5-.7zM606.1 339.5l-3.1-26.9c-11.7.2-24.2 1.1-34.9 2.7l3.9 27.4 34.1-3.2z"/><path class="st2" d="M568.1 315.4c-2.6.4-5.2.9-7.6 1.4l3.2 26.7 8.3-.8-3.9-27.3zM613.5 345.9l-6.6.6 2.9 24.9 6.5-.7zM537.4 352.7c.2 9.1 1.3 18.4 2.5 25.6l27.7-2.7-3-25.3-27.2 2.4zM653.2 367.1c-.7-7-1.8-15.9-2.9-24.5l-36.7 3.3 2.9 24.8 36.7-3.6zM573 349.5l3.5 25.1 33.3-3.2-2.9-24.9z"/><path class="st2" d="m564.6 350.3 2.9 25.2 9-.9-3.5-25.1z"/><circle class="st2" cx="552.6" cy="332.4" r="3.9"/><circle class="st2" cx="554.4" cy="363.8" r="3.9"/><circle class="st2" cx="590.2" cy="361.6" r="3.9"/><circle class="st2" cx="584.8" cy="327.3" r="3.9"/><circle class="st2" cx="629.1" cy="358.6" r="3.9"/><path class="st0" d="M218.8 285.6s1.5-41.5-8.8-69.2c42.6-5.7 58.7 9.7 58.7 9.7l-16.3 63.5-33.6-4z"/><path class="st2" d="m224 229.5-1.8-14.2M235.1 230.9l-.5-15.6M244.7 232.2l2.7-15.2M255.6 235.5l4.1-14.8"/><path class="st3" d="M214.5 302.7c-3.1-1.8-5.7-13.7 1-19.5 6.7-5.8 42.6.4 46 6 3.3 5.7-.7 17.4-5.3 17.4s-38.7-2.1-41.7-3.9z"/><path class="st4" d="m223.3 299.3 14.7 21.8c2.2.2 4.4.2 6.4.3l-14.6-21.5c-2.2-.3-4.5-.5-6.5-.6z"/><path class="st4" d="m216.4 299.4 14.2 21c2.4.3 5 .5 7.4.7l-14.7-21.8c-2.8-.2-5.2-.2-6.9.1zM216.3 317.5c1.2.6 3.6 1.2 6.6 1.8L212 303.2c-1.7 4.5.3 12.2 4.3 14.3z"/><path class="st4" d="M214.5 300c-1.2.6-2 1.8-2.5 3.2l10.9 16.1c2.3.4 5 .8 7.7 1.1l-14.2-21c-.8.1-1.5.3-1.9.6zM245.3 302.1c-2.6-.5-5.7-.9-8.7-1.4l13.9 20.5c2-.2 3.6-.5 4.2-1 .6-.5 1.1-1.2 1.5-2l-10.9-16.1z"/><path class="st4" d="m229.9 299.8 14.6 21.5c2.3.1 4.4 0 6.1-.2l-13.9-20.5c-2.3-.2-4.5-.5-6.8-.8zM254.8 303.9c-1.3-.4-4.9-1.1-9.4-1.9l10.9 16.2c2.3-4.4 2.4-13.2-1.5-14.3z"/><circle class="st2" cx="234.3" cy="351.7" r="3.7"/><circle class="st2" cx="235.1" cy="390.9" r="3.7"/><circle class="st2" cx="234.9" cy="479.9" r="3.7"/><circle class="st2" cx="234.2" cy="524.6" r="3.7"/><circle class="st2" cx="234.2" cy="572.1" r="3.7"/><circle class="st2" cx="234.6" cy="613.8" r="3.7"/><circle class="st2" cx="234.6" cy="658.1" r="3.7"/><path class="st2" d="M360.4 404.4c5.2-1 8.5-1 10.3-5.4s-.8-11.9-5.6-13.6c-4.8-1.7-9.3 0-9.3 0"/><path class="st1" d="M357.4 420.8s.2 3.7 1.2 5.6c1 1.9 5.9.3 5.8-2.4 1.2 2.7 6.9-.2 6.9-2.7 2.2 3.6 9.5 2.7 9.2-.5 1.5 2.4 7.5 4 8.5.5.5 3.3 5.7 3.6 7.5 2.7 1.8-.8.8-6.4.8-6.4s-9.2-3.9-20-3.9-19.9 7.1-19.9 7.1z"/><path class="st2" d="m389.7 415.3-.6 6M380.5 420.8v-6.9M369.9 414.8l1.4 6.5M364.3 424l-2.4-6.4"/><path class="st0" d="M209.1 461.8s-23.4-22.5-52.7-47.1c-32.1-27-59.9-26-61.4-32.4s25.6-20 48-10.4c-37.2-23.2-68-40.4-68-40.4s26.3-36.8 81.6-57.5c6.7 39.3 14.7 75.4 14.7 75.4s2.1-30.6 23-34.9c4.1.5 6.5 62.6 22.8 88.9 16.3 26.3 28.4 16.7 28.4 16.7l-10.4 20.8-26 20.9z"/><path class="st2" d="M171.3 349.4c-1.5 12.1 4.9 22.4 4.9 22.4M142.9 371.8c6.7 2.4 20.4 12.9 20.4 12.9"/><path class="st8" d="M151.9 383.4c5.7 4 9.9 8.2 11.6 8.3 6.2.2 8-6.4 1.5-12.2-1.5-1.3-6.4-4.6-13-8.9-.1 4.3-.1 8.6-.1 12.8zM182.4 372c-.1-.5-.4-1.4-.8-2.6l-.2 6.7c.8-1 1.2-2.5 1-4.1z"/><path class="st2" d="M157.9 315.9c-.8-3.8-1.5-7.4-2.2-10.8-3 11.4-8.7 35.3-10.5 61.1 2.4 1.5 4.7 3 6.8 4.3.8-20.4 3.7-41.5 5.9-54.6zM113.2 308.4c-4 12.4-4.6 27-4.7 34.6 2.2 1.4 4.4 2.9 6.7 4.3.2-9.2 1.1-31 6.8-45.1-2.9 2-5.9 4.1-8.8 6.2z"/><path class="st2" d="M87.9 328.4c0 1 8.9 7 20.6 14.5.1-7.5.8-22.2 4.7-34.6-13.4 9.7-25.3 18.9-25.3 20.1zM210.4 401.7c.3 10.1.8 22.4 1.2 30.7 1.8-2.3 3.7-4.2 5.6-5.5v-16.2c-1.9-2.2-4.3-5.3-6.8-9z"/><path class="st2" d="M219.9 413.9s-1.1-1.2-2.8-3.2v16.1c1.1-.8 2.1-1.4 3.1-1.7 4.6-1.7 12.6-2.5 19.3-2.6l.7-4.3-20.3-4.3zM144.7 379c-.1 6.3.2 12.6.9 18.8 2.6 1.5 5.3 3 7.9 4.6-.9-5.8-1.4-12.3-1.5-19.1-2.2-1.5-4.7-3-7.3-4.3zM177.9 344.5c-1.5 9.6 2 20 3.7 25l1.5-38.4c-2.3 3.8-4.4 8.5-5.2 13.4zM175.7 378.1l-1.8 39.3c1.9 1.6 3.9 3.3 5.7 4.9l1.7-46.1c-1.1 1.4-3.2 2.3-5.6 1.9z"/><path class="st8" d="M182.4 372c-.1-.5-.4-1.4-.8-2.6l.2-4.9-13.6-.2c1.8 7 3.3 11.8 4.4 12.6 1.1.7 2.1 1.1 3.1 1.2l-.3 6.4h5.6l.3-8.4c.9-1 1.3-2.5 1.1-4.1zM175.4 384.5l-.3 6.4h5.7l.3-6.4zM181.8 364.5l.2-6.5-15.3-.1c.5 2.2 1 4.3 1.5 6.3l13.6.3zM167.1 390.8c1.9-1.2 2.6-3.6 1.6-6.3h-15.2c3.4 2.6 6.2 5 8.1 6.3h5.5zM163.6 391.7c1.4.1 2.6-.2 3.5-.9h-5.4c.8.5 1.4.9 1.9.9z"/><path class="st2" d="M145.2 366.2c.2-2.8.5-5.6.7-8.4l-14.1-.1c4.7 3 9.3 5.8 13.4 8.5z"/><path class="st2" d="M118.5 314.2c-2.6 12.4-3.2 26.3-3.3 33.1 5.3 3.4 11.1 7 16.6 10.5l14.1.1c1.4-14.3 3.9-27.7 6.2-38l-33.6-5.7z"/><path class="st2" d="m153.5 313.7-33.7-4.6c-.5 1.7-.9 3.4-1.2 5.2l33.6 5.7c.4-2.3.9-4.4 1.3-6.3z"/><path class="st2" d="M155.7 305.2c-2.5-11.6-4.5-19.8-5.6-19.6-3.3.3-15.3 7.9-28.1 16.7-.9 2.1-1.6 4.4-2.2 6.8l33.7 4.6c.9-3.3 1.5-6.2 2.2-8.5zM144.7 379c-1.6-.8-3.4-1.5-5.1-2-3.6-1.1-7.4-1.7-11.1-1.9l2.4 15.1c4.6 2.2 9.5 4.7 14.6 7.6-.6-6.2-.8-12.5-.8-18.8z"/><path class="st2" d="m122.7 374.8 1.5 12.1c2.1 1 4.4 2.1 6.7 3.3l-2.4-15.1c-2-.3-4-.3-5.8-.3zM108 377.9c-.2 1.5 6.5 4.5 16.2 9.1l-1.5-12.1c-8.3.2-14.6 1.8-14.7 3zM202.9 387.9c-.4-.9-.8-2.1-1.2-3.3h-20.6l-.2 6.4 23.5.2c-.6-1.2-1.2-2.3-1.5-3.3z"/><path class="st2" d="M210.4 401.7c-2.2-3.2-4.3-6.8-6.1-10.6l-23.5-.2-1.2 31.3c2.8 2.5 5.4 4.9 7.8 7.2l23.9-.2c-.2-8.1-.6-18.6-.9-27.5zM211.4 429.2l-23.9.2c2.4 2.2 4.6 4.4 6.5 6.5l15.4-.5c.7-1.1 1.4-2.1 2.1-3 0-1.1 0-2.1-.1-3.2zM204.7 447.8c.8-4.6 2.6-8.8 4.7-12.3l-15.4.5c4.9 4.9 8.5 9.1 10.7 11.8zM197.5 364.8c-.4-2.2-.7-4.4-1.1-6.7L182 358l-.2 6.5 15.7.3z"/><path class="st2" d="M190.7 321.4c-.5.1-4.3 4-7.6 9.7l-1 27 14.4.1c-2.8-18.2-4.9-36.9-5.8-36.8zM181.6 369.4c.4 1.2.7 2.1.8 2.6.2 1.5-.2 3-1.1 4.1l-.3 8.4h20.6c-1.5-4.9-2.9-12-4.1-19.7l-15.7-.3-.2 4.9zM153.6 384.5H152c.1 2.1.2 4.2.2 6.2l9.5.1c-1.9-1.2-4.7-3.7-8.1-6.3zM166.7 357.9l-13.9-.1c-.2 2-.3 4-.4 6.1l15.8.3c-.5-1.8-1-4-1.5-6.3zM175.7 378.1c-1-.2-2.1-.5-3.1-1.2-1.1-.8-2.6-5.5-4.4-12.6l-15.8-.3c-.2 2.2-.2 4.4-.3 6.6 6.7 4.3 11.5 7.6 13 8.9 1.9 1.7 3 3.5 3.6 5.1h6.7l.3-6.5z"/><path class="st2" d="M168.8 384.5c.9 2.7.2 5-1.6 6.3l8.1.1.3-6.4h-6.8zM157.9 315.9c-1.7 10.3-4 25.7-5.1 41.9l13.9.1c-2.8-12-5.9-28-8.8-42zM163.6 391.7c-.5 0-1.1-.3-1.9-.9l-9.5-.1c.2 4.1.6 8 1.2 11.7 3.9 2.4 7.7 5 11.4 7.7 3.2 2.4 6.2 4.8 9.1 7.2l1.2-26.4-8.1-.1c-.9.6-2 .9-3.4.9zM151.9 383.4v1.2h1.5c-.4-.5-.9-.9-1.5-1.2z"/><circle class="st2" cx="101.4" cy="327.7" r="2.9"/><circle class="st2" cx="140" cy="302.2" r="2.9"/><circle class="st2" cx="187.5" cy="347.9" r="2.9"/><circle class="st2" cx="190.5" cy="376.2" r="2.9"/><circle class="st2" cx="163.3" cy="373.1" r="2.9"/><circle class="st2" cx="138.9" cy="384" r="2.9"/><circle class="st2" cx="164.3" cy="397.7" r="2.9"/><circle class="st2" cx="197.5" cy="417" r="2.9"/><circle class="st2" cx="252.8" cy="500.5" r="2.9"/><circle class="st2" cx="271" cy="526.9" r="2.9"/><path class="st2" d="m477.2 602.7 1.9 9.3M482.4 602.7l2.5 9.3M487.2 602l4 11M493.1 602.7l3.6 10M498.1 602.7l4.1 10.9M504.8 604.7l3.7 9.7M510.3 605.7l3.5 9M516.4 605.4l3.4 9.3M521.6 606.7l2.4 8M528 605.7l2.9 9.4M534 604.7l3.1 9.3M539.2 604.7l3.3 9.3M543.8 602.7l4.7 10.3M470.7 600.5l1.4 10.1M464.8 600.5l.9 8.8M458.6 598.3l1.5 10M453.5 598.3l1.7 8.4"/><path class="st4" d="m440.3 591.8-43.6-7.8s-1.5 4.7-2.9 10.5c8.1 3.5 28.5 12.4 42 18.2l4.5-20.9z"/><path class="st4" d="M393.7 594.4c-1.9 7.4-4 16.6-3.3 20.1 1.2 6.4 40.5 20.2 40.5 20.2l4.9-22.2c-13.6-5.7-34-14.5-42.1-18.1z"/><path class="st2" d="m408.6 615.8.6 10M415.3 617.5v10.4M553.7 470.8l96.4 57.6c3.7-1.7 7-3.6 9.5-5.9l-107.4-61.8c.6 3.3 1.1 6.7 1.5 10.1zM559.2 502.3l57.3 33.9c3.7-.3 7.4-.8 11-1.4L557.6 494c.5 2.9 1 5.7 1.6 8.3zM658.1 439.7l-44.4-25.6-12 1.2 57.9 33.3c-.4-2.9-.9-6-1.5-8.9zM548.6 429c.2 2.6.5 5.5.9 8.7l116.4 67.6c0-2.8-.1-5.8-.3-9l-117-67.3zM663.1 471.5l-87.6-53.2-12.4 1.3 101 60.1c-.3-2.8-.6-5.5-1-8.2z"/><path class="st8" d="m583.5 449.1-4.4 5.8 5.9 3.4 4.3-5.9zM577.1 505.5l-3.8 5.2 18.3 10.7 3.7-5.3zM573.9 473.1l-5.1 6.7 13.6 8.2 5.1-7.1z"/><path class="st8" d="m587.5 480.9-5.1 7.1 5.3 3.2 5.2-7.2zM602.7 460.2l-13.4-7.8-4.3 5.9 13.4 7.7zM591.6 521.4l5 3.1 3.7-5.5-5-2.9zM653.2 473l5.8 3.6 3.5-5.5-5.9-3.6zM641.8 491.4l5.9 3.4 4.1-6.4-6-3.4zM646.9 441.3l4 2.3 4-5.8-4-2.3z"/><path class="st8" d="m629.5 475.5-4.2 6.3 16.5 9.6 4-6.4zM610.1 504.5l17.3 10.3 5-8.1-17.2-9.8zM610.5 494.1l-5.2 7.5 4.8 2.9 5.1-7.6zM629.5 423.3l-12.8-7.5-4.3 5.8 13 7.4zM653.2 473l3.4-5.5-15.4-9.4-3.8 5.6zM616.8 451.5l16.4 9.7 3.8-5.6-16.1-9.8z"/><path class="st8" d="m637.4 463.7 3.8-5.6-4.2-2.5-3.8 5.6zM569.6 441.1l-4.4 5.6 13.9 8.2 4.4-5.8zM603.8 469.2l17 9.9 4.2-6.2-16.9-9.6z"/><path class="st8" d="m608.1 463.3-5.4-3.1-4.3 5.8 5.4 3.2zM620.8 479.1l4.5 2.7 4.2-6.3-4.5-2.6zM598.3 440.5l4.3-5.8-5.5-3.3-4.4 5.7zM611.4 448.2l4.1-5.6-12.9-7.9-4.3 5.8zM646.9 441.3l4-5.8-15.7-9.1-4.3 5.8z"/><path class="st8" d="m597.1 431.4-13.5-8.3-4.6 5.9 13.7 8.1zM616.8 451.5l4.1-5.7-5.4-3.2-4.1 5.6zM635.2 426.4l-5.7-3.1-4.1 5.7 5.5 3.2zM610.5 494.1 592.9 484l-5.2 7.2 17.6 10.4zM596.6 524.5l18.2 10.7 3.5-5.7-18-10.5zM569.6 441.1l-5.6-3.3-4.5 5.7 5.7 3.2z"/><path class="st8" d="m583.6 423.1-5.6-3.3-4.6 5.9 5.6 3.3zM577.1 505.5l-5.2-3.1-3.8 5.3 5.2 3zM627.4 514.8l5.8 3.5 5-8.2-5.8-3.4zM573.9 473.1l-6.1-3.6-5.2 6.7 6.2 3.6z"/><path class="st2" d="m615.2 496.9 17.2 9.8 9.4-15.3-16.5-9.6zM598.4 466l-13.4-7.7-11.1 14.8 13.6 7.8zM565.2 446.7l-11.4 14.8 14 8 11.3-14.6z"/><path class="st2" d="m559.5 443.5-8 10.3c.3 2.2.5 4.6.9 6.9l1.4.9 11.4-14.7-5.7-3.4zM610.5 494.1l4.7 2.8 10.1-15.1-4.5-2.7zM598.4 466l-10.9 14.9 5.4 3.1 10.9-14.8zM638.2 510.1l21.5 12.4c3.4-3 5.6-6.6 6-10.6.2-1.9.2-4.1.2-6.5l-18.2-10.6-9.5 15.3z"/><path class="st2" d="M549.6 437.7c.5 4.8 1.2 10.2 1.9 16l8.1-10.3-10-5.7zM641.8 491.4l-9.4 15.3 5.8 3.4 9.5-15.3zM585 458.3l-5.9-3.4-11.3 14.6 6.1 3.6zM603.8 469.2 592.9 484l17.6 10.1 10.3-15zM613.8 414.1l2.9 1.7 1.6-2.1zM658.1 439.7c-.3-1.9-.6-3.6-.9-5.3l-2.3 3.5 3.2 1.8zM635.2 426.4l11.5-15.7-8.7.9-8.5 11.7zM650.9 435.5l5.2-7.4c-1.5-7.7-2.7-14.1-3.5-18l-5.9.6-11.5 15.7 15.7 9.1z"/><path class="st2" d="m654.9 437.8 2.3-3.5c-.4-2.2-.8-4.3-1.2-6.3l-5.2 7.4 4.1 2.4zM638 411.6l-19.7 2.1-1.6 2.1 12.8 7.5zM618.3 529.5l5.8 3.4 9.1-14.6-5.8-3.5z"/><path class="st2" d="M627.4 534.9c8.4-1.4 16.4-3.5 22.8-6.4l-17-10.2-9.1 14.6 3.3 2zM553.7 470.8c.7 4.7 1.4 9.5 2.2 14l6.7-8.8-8.9-5.2zM610.1 504.5l-9.8 14.5 18 10.5 9.1-14.7zM595.3 516.1l5 2.9 9.8-14.5-4.8-2.9zM562.6 476.2l-6.7 8.8c.5 3.1 1 6.1 1.5 9.1l.5.3 10.8-14.4-6.1-3.8zM587.7 491.2l-5.3-3.2-10.5 14.4 5.2 3.1z"/><path class="st2" d="m568.8 479.8-10.7 14.5 13.8 8.1 10.5-14.4zM605.3 501.6l-17.6-10.4-10.6 14.3 18.2 10.6zM588.8 536c7.5.9 16.4 1 25.3.3l.7-1.2-18.2-10.8-7.8 11.7z"/><path class="st2" d="m591.6 521.4-9.4 13.6c2.1.4 4.3.7 6.7 1l7.7-11.5-5-3.1z"/><path class="st2" d="m573.3 510.7-8.7 11.9c1.2 3.2 2.5 5.5 3.8 6.9 2.3 2.5 7.2 4.4 13.7 5.7l9.4-13.6-18.2-10.9z"/><path class="st2" d="m568.1 507.7-5.7 7.9c.8 2.6 1.5 5 2.3 7l8.7-11.8-5.3-3.1zM616.4 536.2l-1.6-.9-.7 1.2c.8-.2 1.5-.2 2.3-.3zM559.2 502.3c1 4.8 2.1 9.3 3.2 13.2l5.7-7.9-8.9-5.3zM592.7 437.1l-9.2 12 5.8 3.3 9-11.9z"/><path class="st2" d="m598.3 440.5-9 11.9 13.4 7.8 8.7-12zM665.6 496.3c-.3-5.2-.9-10.8-1.5-16.7l-5-3-7.3 11.8 13.8 7.9zM625 472.9l8.2-11.7-16.4-9.7-8.7 11.8zM592.7 437.1 579 429l-9.4 12.1 13.9 8zM563 419.5l-15.2 1.6c.2 1.7.5 4.5.8 7.9l15.3 8.8 9.5-12.2-10.4-6.1z"/><path class="st2" d="m579 429-5.6-3.3-9.4 12.1 5.6 3.3zM633.2 461.2l-8.2 11.7 4.5 2.6 7.9-11.8zM616.8 451.5l-5.4-3.3-8.7 12 5.4 3.1zM645.8 485l6 3.4 7.2-11.8-5.8-3.6z"/><path class="st2" d="m629.5 475.5 16.3 9.5 7.4-12-15.8-9.3zM597.1 431.4l9.9-12.9-5.2-3.1-13.4 1.4-4.8 6.3zM620.9 445.8l16.1 9.8 9.9-14.3-16-9.1zM662.5 471.1l.5-.8c-.5-3.6-1-7.1-1.5-10.7l-4.9 7.8 5.9 3.7z"/><path class="st2" d="m588.4 416.8-8.8 1-1.6 2 5.6 3.3zM615.5 442.6l9.9-13.6-13-7.4-9.8 13.1z"/><path class="st2" d="m630.9 432.2-5.5-3.2-9.9 13.6 5.4 3.2zM602.6 434.7l9.8-13.1-5.4-3.1-9.9 12.9zM663.1 471.5c-.1-.4-.1-.8-.2-1.1l-.5.8.7.3zM656.6 467.5l4.9-7.8c-.5-3.7-1.2-7.4-1.7-10.9l-8.8-5-9.8 14.5 15.4 9.2zM575.4 418.2l2.6 1.6 1.6-2zM637 455.6l4.2 2.5 9.7-14.5-4-2.3z"/><circle class="st1" cx="410.9" cy="285.6" r="10.5"/><path class="st2" d="m405.1 287.2-2.9 4.6M408.4 288l-1.3 6.9M412.2 287.2l1.1 8.8M417.2 286.4l2.1 6.1"/><path class="st0" d="M467.1 280.1s-98.6 7.4-119.1 5c-20.5-2.3-27.9-40.3-10.8-50.8 17-10.5 136.6 20.9 136.6 20.9l-6.7 24.9z"/><path class="st2" d="M465.8 261.2c-.2.2-13.4-2.7-31.1-6.4l23 20.8c5-.4 8-.6 8-.6l.1-13.8h0zM410.1 249.8c-9-1.8-18.1-3.5-26.6-4.9l16.8 17 13.1-8.8-3.3-3.3zM437.7 277l-24.1-23.9-13.2 8.8 16.2 16.3c7.4-.3 14.5-.8 21.1-1.2z"/><path class="st2" d="M434.7 254.8c-7.6-1.5-16-3.3-24.6-5l16.1 15.9 10.2-9.5-1.7-1.4zM457.8 275.7l-21.4-19.3-10.2 9.5 11.4 11.2c8.2-.6 15.2-1.1 20.2-1.4zM357.7 278.2c5.3.8 13 1.1 21.8 1.1l-10.2-9.8-11.6 8.7z"/><path class="st2" d="M342.2 243.5c-8.8 7.8-8.7 29.9 12.8 34.3.9.2 1.7.3 2.7.5l11.5-8.8-27-26zM379.8 261.4l-20.7-19.8c-7.6-.7-13-.7-15 .5-.7.4-1.3.9-1.9 1.4l27 26 10.2 9.8c5.9 0 12.2-.1 18.8-.3l-18.4-17.6z"/><path class="st2" d="m416.6 278.2-9.1-9.1-11.6 7.7 2.2 2.2c6.2-.2 12.4-.5 18.5-.8z"/><path class="st2" d="M383.6 245c-9.2-1.5-17.7-2.8-24.4-3.4l36.8 35.2 11.6-7.7-24-24.1z"/><path class="st1" d="M495.6 258c-2.8 3.5-4.6 31.8-4.6 35.3s13.1 6.6 13.1 2.7 4.7-30.5 4.3-34.7c-.4-4.2-10-6.8-12.8-3.3zM489.6 258.7s-15-12.2-22.5-7.3-11.6 34.1-1.3 41.1 20.5-3.1 20.5-3.1l3.3-30.7z"/><path class="st2" d="m465.8 254 7.9 4.6M461.8 261.6l9.6 1.6M460 268.8l9.9.7M460 276.8l9.9-.3M460.8 284.8l9.1-2.4M465.8 292.5l6-5.3"/><path class="st1" d="M485.5 255.7c-2.8 3.5-4.6 31.8-4.6 35.3s13.1 6.6 13.1 2.7 4.7-30.5 4.3-34.7c-.4-4.3-10-6.8-12.8-3.3zM394.5 220.5c0 8.1 6.5 14.6 14.6 14.6s14.6-6.5 14.6-14.6c0-2.7-.8-5.2-2-7.4-8.4 0-17.2.9-26.3 2.9-.7 1.4-.9 2.9-.9 4.5zM459.2 219.2c-2.8 2.4-4.5 6-4.5 10 0 7.4 6 13.3 13.3 13.3 7.1 0 12.9-5.6 13.3-12.6-6.7-4.2-14-7.9-22.1-10.7z"/><path class="st2" d="m398.6 220.7-1.2 8.5M403.6 220.7V234M407.1 222.5l.6 12.5M411 222.5l2.3 11.5M414.1 222.5l3.1 9.7M417.2 219.2l4.2 8.9M459.6 227.6l-3.7 6.1M464 228.6l-4.4 10.2M468 230.9l-2.2 10.8M471.8 230.9l-.4 10.3M476.4 230.7l.6 7.4"/><path class="st7" d="M491.8 399.8c6.1 0 19.7-6.2 19.7-17s-7.7-18.6-14.3-18.6-18.6 9.7-18.6 14.3 7.1 21.3 13.2 21.3z"/><path class="st7" d="M465.8 363c-1.2 3.9-1.5 6.6-.4 11.2s20.1 1.5 23.9-4 7.8-29-3.4-33.6c-11.3-4.6-21.3-2.3-25.6 5.4s.8 18.3 5.5 21z"/><path class="st2" d="M470.8 352.1s10.8-3.9 10.8 5-12.6 9.1-15.9 5.8"/><path class="st1" d="M468 376.9c-2.2 1.9-.1 13.6 4 14.3 4.1.8 26.3-3.5 26.3-5.8s-1-11.3-5-12.9c-4-1.5-23.1 2.4-25.3 4.4z"/><path class="st9" d="M382.9 345.2c-1.8-1.5-1.6-5.2-1.1-8.1-4.5-1.1-7.9-2.5-9-1.7-3 2.2-2.9 6.8-.7 10.9s5.3 10.2 15.4 9.1c1.7-.2 3.3-.4 4.7-.5l-.4-8.6c-3 .6-6.9.6-8.9-1.1z"/><path class="st10" d="M404 338.2c-1.4-.2-4.4-.1-8 0 .2 2.1.3 4.8-.5 6-.5.9-1.9 1.5-3.7 2l.4 8.6c7.2-1 11.7-2.6 14.9-5.3 3.9-3.3 2.1-10.5-3.1-11.3z"/><path class="st1" d="M382.9 345.2c3.3 2.7 11.1 1.3 12.6-.9.9-1.2.8-3.9.5-6-3.1.1-6.6.1-9.8-.4-1.5-.2-3-.5-4.4-.9-.6 3-.7 6.6 1.1 8.2z"/><path class="st2" d="M404 338.2c-1.4-.2-4.4-.1-8 0 .2 2.1.3 4.8-.5 6-1.5 2.2-9.5 3.7-12.6.9-1.8-1.5-1.6-5.2-1.1-8.1-4.5-1.1-7.9-2.5-9-1.7-3 2.2-2.9 6.8-.7 10.9s5.3 10.2 15.4 9.1c10.2-1 15.7-2.6 19.6-5.9s2.1-10.4-3.1-11.2z"/><path class="st1" d="M407.1 384.7s-28.4 2.7-38.5 3.3c2 2.5 3 6.1 2.6 9.1l36-4.3-.1-8.1h0zM334.7 385.7l-41.1 2.5 2 15.3 37.9-7.6c-.2-2.9.2-6.3 1.2-10.2z"/><path class="st0" d="M315.2 464.4s16.5-2.9 20.9-1.1c4.4 1.8 5.4 12.7.5 16-4.9 3.3-19.4-3.8-19.4-3.8l-.8 14.4s19.5-.5 22.2 2.9c2.7 3.5 2.5 13.7-6 16-8.4 2.2-17.4-6.3-17.4-6.3l-5.2-28 5.2-10.1z"/><path class="st5" d="M297.6 470.1c.8-.5-.8-8.5 11.6-8.2 6.4.2 9.5 4.9 10.1 11.5s-1 28.7-3.9 32.5c-2.9 3.8-13.2 3.2-16.3-.8-3.1-4-3.6-11.5-3.6-11.5l2.1-23.5z"/><path class="st5" d="M282.9 461.9c3.3-4 15.9-3.2 17 2 1.2 5.2 2.9 29.1-2.6 34.8-5.4 5.7-17 5-18.6-1.5-1.5-6.6.7-31.2 4.2-35.3z"/><path class="st2" d="M282.1 487.4s-.2 8.7 6.4 8.8c6.7.1 7.5-30.3 1.7-31-6.1-.7-6.6 4.4-6.6 4.4l-1.5 17.8z"/><path class="st1" d="M235.1 410.2c.4-.8-.8-3.8-1.9-6.4-9.9-1.8-19.4-3.3-21.3-3.3-.3 0-.5.1-.9.2.6 2.4 1.5 5.7 2.7 7.1 2 2.4 20.6 3.8 21.4 2.4z"/><path class="st7" d="M285.5 468.8c-2.1-1-18.1 0-18.4-2-.2-2 6.2-22.2 4.4-34.2-1.8-11.9-8.5-20.4-14.5-23.2-3-1.5-13.6-3.7-23.9-5.6 1.2 2.6 2.3 5.6 1.9 6.4-.8 1.5-19.4 0-21.4-2.3-1.2-1.4-2.1-4.6-2.7-7.1-3.6 1.1-6.4 8.8-1.5 13.6 5.3 5.2 20.7 5.8 25.6 8.9 2.9 1.9-3.5 9.2-9.1 14.7 9.1-2 16.8-3.7 17.4-3.6-.3 13 3.6 15.1 3.3 29.1-.2 9.1-.5 18.4-.7 27.7 10.2 3.6 38.5 0 40.4-.3 2.1-.5 1.3-21.1-.8-22.1z"/><path class="st2" d="m303.3 500.5 8.3 7.5M306 496.1l9.5 8.1M308.2 490.1l9.7 6.6M308.2 483.6l9.7 6.5M309 478.3l10.2 5.3M310 471.9l8.8 4.4M310.7 466.7l8.1 3.5"/><path class="st7" d="M220.2 425.1c-8.2 3.1-21 20.9-13.8 38.2 7.2 17.3 15.2 11.2 16.3 11.2v-16.2s3.6-2.3 8.8-1.8c4.8.5 8.9 2.4 13.6 2.6l-1.8-36.7c-7.4-.1-17.6.6-23.1 2.7z"/><path class="st1" d="M251.1 433.1c3.8.5 3.9-8.8 0-9.9-1.3-.4-4.2-.6-7.8-.7l1.8 36.7h.8c5 0 9.5-6.7 4.1-10.3 4.4.5 5.3-6 1.2-7.2 4.5-.6 2.8-8-.1-8.6z"/><path class="st2" d="M249.9 448.8c-4.6-3.3-23.6-1-23.6-1M251.1 441.6c-8.3-4.6-26.3 0-26.3 0M251.1 433.1c-5.4-2.5-26.3 0-26.3 0"/><circle class="st0" cx="191.2" cy="404.9" r="10.4"/><circle class="st0" cx="191.2" cy="404.9" r="4.4"/><circle class="st5" cx="136.9" cy="329.2" r="13.3"/><circle class="st5" cx="136.9" cy="329.2" r="5.5"/><path class="st2" d="M163.7 344.3c-.2 0-.3-.1-.5-.1-1.6 0-2.9 1.3-2.9 2.9 0 1.6 1.3 2.9 2.9 2.9.6 0 1.2-.2 1.6-.5-.3-1.5-.7-3.3-1.1-5.2z"/><circle class="st1" cx="390.8" cy="618.2" r="13.6"/><circle class="st2" cx="390.8" cy="618.2" r="4.4"/><circle class="st1" cx="434.9" cy="623.7" r="13.6"/><circle class="st2" cx="434.9" cy="623.7" r="4.4"/><path class="st3" d="m422.5 587-2.5 15.7 29.7 2V589z"/><path class="st4" d="m406.7 555.4-8.6 25 16.8 6c3.6-12.9 6.7-25.4 6.7-25.4l5 1.7-4 24.5 9.1.7 3.3-27.3-28.3-5.2zM398.9 554l-10.5 22.9 9.7 3.4 8.6-24.9z"/><path class="st4" d="m449.7 563.1-14.8-2.7-3.1 27.3 17.9 1.3z"/><path class="st1" d="m426 603.1-.5 9.8c1.7.3 3.5.5 5.3.7l.6-10.2-5.4-.3z"/><path class="st1" d="m420 602.7-1.2 7.4c1.4 1.4 3.9 2.3 6.8 2.9l.5-9.8-6.1-.5zM431.5 603.5l-.6 10.2c2.3.2 4.7.2 7 .2v-10.1l-6.4-.3zM438 603.9V614c2.1 0 4-.1 5.7-.2v-9.5l-5.7-.4z"/><path class="st1" d="m449.7 604.7-6.1-.4v9.5c3.6-.2 6.1-.4 6.1-.4v-8.7zM389 592.8l-4.3 9.6c2.5 1.2 5.6 2.3 9.2 3.2l2.5-10.4-7.4-2.4zM382.2 590.6l-3.7 8.1s2.2 1.8 6.3 3.7l4.3-9.6-6.9-2.2zM396.4 595.2l-2.5 10.4c2.4.5 5 .9 7.8 1.1l1.5-9.2-6.8-2.3zM403.3 597.4l-1.5 9.2c2.1.1 4.3.1 6.6-.2.8-1.9 1.5-4.2 2.3-6.7l-7.4-2.3z"/><path class="st3" d="m388.4 576.9-6 13.2-.2.5 28.6 9.2c1.4-4.2 2.8-8.8 4.1-13.5l-26.5-9.4z"/><path class="st1" d="m465 526.1-57.9-10.3-3.5 7.1c22.9 7.4 49.7 10.6 61.4 11.8v-8.6z"/><path class="st3" d="M465 559.4v-16c-10.8-1.1-39.9-4.4-65.7-11.9l-7 14c34.7 14.6 61.8 14.7 72.7 13.9z"/><path class="st1" d="m403.6 522.8-4.3 8.7c7.2 2.1 14.6 3.9 21.9 5.3l1.5-8.9c-6.4-1.4-12.9-3-19.1-5.1zM422.7 528l-1.5 8.9c2 .4 4 .8 5.9 1.2l1.2-8.8c-1.8-.5-3.7-1-5.6-1.3zM465 534.6c-2.8-.3-6.5-.7-10.8-1.2l-.5 8.8c4.6.6 8.5 1 11.2 1.2l.1-8.8h0z"/><path class="st1" d="m448.7 532.7-.7 8.8c2 .3 3.9.5 5.7.8l.5-8.8c-1.7-.3-3.5-.6-5.5-.8zM428.3 529.1 427 538c7.6 1.4 14.7 2.6 21 3.4l.7-8.8c-6.1-.8-13.1-1.9-20.4-3.5zM408.9 551.7l-1.5 9.5c2.4.8 4.7 1.5 7 2.1l2.2-9.4c-2.6-.7-5.1-1.4-7.7-2.2zM421.2 555.2l-1.3 9.6c2.2.5 4.3.9 6.4 1.3l.7-9.6c-1.9-.5-3.8-.9-5.8-1.3zM465 559.4c-2 .2-4.6.2-7.6.2l.8 9c4.3-.2 6.8-.5 6.8-.5v-8.7z"/><path class="st1" d="m403 549.7-2.2 9.3c2.2.9 4.4 1.5 6.6 2.2l1.5-9.5c-1.9-.6-3.9-1.3-5.9-2zM392.3 545.5l-4 8.1c1.9.9 3.8 1.8 5.7 2.6l2.9-8.8c-1.5-.5-3-1.2-4.6-1.9zM397 547.4l-2.9 8.8c2.2.9 4.5 1.9 6.7 2.6l2.2-9.3c-2-.5-4-1.2-6-2.1zM416.5 553.9l-2.2 9.4c1.9.5 3.8 1 5.7 1.4l1.3-9.6c-1.6-.3-3.2-.7-4.8-1.2zM446 559.2v9.3c2.5.2 4.8.2 6.8.2l-.8-9.1c-1.8-.1-3.9-.2-6-.4zM427 556.4l-.7 9.6c1.9.4 3.8.7 5.7.9l.9-9.5c-2.1-.2-4-.5-5.9-1zM452.1 559.6l.8 9.1c2 0 3.8 0 5.3-.1l-.8-9c-1.6.1-3.4.1-5.3 0z"/><path class="st1" d="m432.7 557.5-.9 9.5c2.6.4 5 .7 7.4.9v-9.5c-2-.1-4.2-.5-6.5-.9zM439.3 558.5v9.5c2.4.2 4.6.4 6.7.5v-9.3c-2.1-.2-4.4-.4-6.7-.7z"/><circle class="st2" cx="413.7" cy="530.1" r="2.2"/><circle class="st2" cx="438" cy="535.3" r="2.2"/><path class="st3" d="M664.5 372.6c-2.7 0-130.6 11.6-133.3 15.6-1.7 2.5-.9 15.5-.1 24.8l142.7-15.4c-2.9-10.4-7.5-25-9.3-25z"/><path class="st1" d="m569.9 408.8 1.3 9.8 6.6-.7-1.1-9.8zM576.7 408.1l1.1 9.8 6.6-.7-1.6-9.8zM589.8 406.6l1.4 9.9 6.7-.7-.8-10z"/><path class="st1" d="m597.1 405.8.8 10 7.5-.7-1.2-10zM582.8 407.4l1.6 9.8 6.8-.7-1.4-9.9zM531.2 413c.5 5.5 1 9.8 1 9.8l6.6-.7-1.1-9.8-6.5.7zM537.7 412.3l1.1 9.7 6.3-.6-.6-9.8zM563.1 409.6l1.4 9.7 6.7-.7-1.3-9.8z"/><path class="st1" d="m544.5 411.6.6 9.8 6.8-.7-1-9.8zM556.4 410.3l1.2 9.8 6.9-.8-1.4-9.7z"/><path class="st1" d="m550.9 410.9 1 9.8 5.7-.6-1.2-9.8zM630.5 402.2l2.1 10 7.1-.8-1.2-10.1zM652.2 399.9l1.7 10 7.5-.7-1.2-10.2zM673.9 397.5l-7.3.8 1.3 10.2 8.9-.9c0-.1-1.3-4.4-2.9-10.1zM604.2 405.1l1.2 10 5.9-.7-.7-10z"/><path class="st1" d="m660.2 399 1.2 10.2 6.5-.7-1.3-10.2zM645.1 400.6l1.3 10.1 7.5-.8-1.7-10zM610.6 404.4l.7 10 7.8-.8-1.7-9.9z"/><path class="st1" d="m617.4 403.7 1.7 9.9 5.8-.6-1.2-10zM623.7 403l1.2 10 7.7-.8-2.1-10zM638.5 401.3l1.2 10.1 6.7-.7-1.3-10.1z"/><path class="st4" d="m631.4 246.3-11.9 32.3s-22.5 4.1-33.1-9.8c-7.4-9.8-7-22-6-28.5-27.9-6.4-55.6-15.6-56.7-13.1-1.8 3.9 4.6 12.2 11.4 15.3-7 3.3-6 15.3 4.9 16.9-5.7 1.6-3.9 15.4 3.1 14-2.3 2.2 2.3 17.4 10.6 14.6-2.3 4.3 5.4 15.7 14.5 8.2-1.3 7.2 8.5 17.8 15.5 11.4-.5 9.8 14.6 10.1 16.5 7 1.9 6 11.4 3.9 13.2 0 6.2 5.7 13.2-5.8 13.2-5.8l18.9-43.5c-.2-.1 6.6-16.5-14.1-19z"/><path class="st0" d="M605.3 271.9c-12.2-3.1-14.7-19.9-15.2-29.4-3.3-.7-6.5-1.4-9.8-2.2-.9 6.5-1.4 18.8 6 28.5 10.6 13.9 33.1 9.8 33.1 9.8l2.1-5.6c-3.4.7-8.7.8-16.2-1.1z"/><path class="st4" d="M611.5 263.1c6 1.6 10.8.8 13.9-.3l6-16.4c-2.5-.3-5.4-.4-8.8-.2-6.2.3-13.8-.4-22-1.7 1.3 6.8 4.1 16.7 10.9 18.6z"/><path class="st3" d="M611.5 263.1c-6.7-1.9-9.6-11.7-10.8-18.7-3.4-.5-6.9-1.2-10.5-1.9.5 9.5 2.9 26.3 15.2 29.4 7.4 1.9 12.7 1.9 16.2 1.2l3.8-10.2c-3.2 1-8 1.8-13.9.2zM669.6 258c2.7-6.9 2.3-13.1 1.2-17.5-10.5-.3-18-1.6-18-1.6v25l.1.6c5 1.5 13 2.5 16.7-6.5z"/><path class="st4" d="M734.7 252.8c8.5-2.3 6.2-12.6.8-14.7-5.4-2.1-33.9.8-50.9 2.1-.3 0-.5.1-.9.1.9 5.3 1.2 12.8-.4 22.2-2.8 15.7-19.7 14.1-28.9 12.3l2 13.3s35.5 25.8 39.2 28.7c3.7 2.9 12.2.2 10.3-11.2 9.5 4.1 13.9-5.2 9.5-10.6 8.3.8 13.4-10.8 7.2-14.2 11.6.8 10.8-10.8 6.2-13.9 11.8-.4 11.5-11.2 5.9-14.1z"/><path class="st0" d="M683.3 262.4c1.6-9.4 1.3-16.8.4-22.2-4.6.3-8.9.4-12.9.2 1.1 4.4 1.5 10.6-1.2 17.5-3.6 9.1-11.7 8.1-16.7 6.4l1.5 10.2c9.2 1.9 26.1 3.6 28.9-12.1z"/><path class="st2" d="m535 242.5 44.8 8.1M582.6 262.2 543 273.3M539.9 259.4l40.6-3.8M553.6 288l34.3-17.3M568.1 296.2l25.9-20.4M583.6 307.6l18.5-24.1M600.1 314.6l7.9-19.7M613.2 314.6l4.7-16.7M524.1 231.7l55.7 14M530.6 251l48.8 1.9M537.3 267.5l43.2-8.9M544.3 282.4l40.5-15.9M555.7 295.7l34.5-23M572 306l26.8-28.7M590.2 314.6l13.8-25.2M605.3 317.8l7.4-20.8M617.9 315.2l4.7-16.7M734.7 252.8l-50.3.6M729 266.7l-45.7-4.3M722.8 280.7l-42.4-11.1M715.5 294.9l-35.1-12.5M706 305.5l-24.7-13.3M739.1 244.3l-54.7 1.8M738.5 259.4l-54.5-1.9M732 275.1l-49.6-9.6M724.6 289.4l-50.7-14.9M716.9 301.9l-35-13.9M705.3 313.5l-25.8-17.3"/><path class="st0" d="m639.9 300.1-13.6 4s-1.6 13.5-6.7 14.4c-5.1.9-11.9 2-21.7 5.7-1.5.6-3.1 1.5-4.5 2.7 12.1 6.4 15 12.8 15.7 16.3 10.8-4 24-8.6 25.3-8.4 2.1.5 9.1-13 9.1-13l-3.6-21.7z"/><path class="st5" d="M586.6 334.5c-4 5.6-7.2 11.8-10.1 14.2 2.3 1.5 6.7-1.4 6.7-1.4s-1.3 4.7-2.6 6.7c3.3-.2 7.2-5.3 7.2-5.3s-.5 3.3-1 7.4c4.4-1.9 7.6-7.4 7.6-7.4s2.4-.9 6-2.2c-2.2-6-8.8-9.9-13.8-12z"/><path class="st3" d="M593.3 327.1c-2.4 2-4.6 4.6-6.7 7.5 5 2.1 11.5 5.9 13.9 11.9 2.4-.9 5.3-1.9 8.4-3.1-.6-3.6-3.6-10-15.6-16.3z"/><path class="st5" d="M592.6 354.3s2.8 1.8 4.9-.5c0 0-.4 3.7 1.5 5.1 1.5-2.8 2.4-5 3.8-5.8 0 2.8 4 5 4 5-.4-3.7.9-7.4 3.6-9.8-3.3-2.5-8.7-6.1-13-6.9-2.8 6.1-4.8 12.9-4.8 12.9z"/><path class="st3" d="M604.6 332.1c-.2.1-.4.2-.5.2-2.3 1.1-4.6 4.9-6.5 9.1 4.3.8 9.8 4.4 13 6.9 1.2-1 2.5-1.8 4.1-2.2.6-.2 1.5-.2 2.6-.2-1-4.3-3.8-11.6-12.7-13.8z"/><path class="st0" d="m636.5 304.2-4.3 25.3s-21.1.2-27.6 2.6c9 2.2 11.7 9.5 12.6 13.7 8 .1 26.3 4.8 29.3.4 3.3-5 6.4-38.6 6.4-38.6l-16.4-3.4z"/><path class="st4" d="M599.1 179.2s-8.4-6-5.7-14.2c2.8-8.2 14.4-12.6 20.6-13.2s16.5 30.8 16.5 30.8-.5-9.8 0-13.7c.5-3.9 5.8-3.9 6.4-1.3.6 2.6 2.6 28.1 4.4 28.1 1.8 0 5.4-13.2 7-14.7s6.7-.4 6 2.9-8.5 25.6-6 35.6c.6 1.8 2.9-13.7 4.4-15 1.5-1.3 7-.8 7 2.6 0 3.3-2.3 12-2.9 18.8-.5 6.8 1.5 79-3.3 83.9s-16.5-2.1-16.5-2.1-10.1 3.3-12.4-.5c-2.3-3.8 1.4-13.7 1.4-13.7l-1.4-53.2s-7.4 5-12.6.7c-5.3-4.3-6.8-13.7 3.1-20.1 2.9-3.9-19.6-15.7-19.6-15.7l-2.8-15.5 6.4-10.5z"/><path class="st2" d="M616.3 204.3s16.5 4.9 19.1 9.7c2.6 4.8-.5 16.6-2.6 17.8-2.1 1.2-13.4-1.5-15 1.5-1.5 3 3.1 2.5 3.1 2.5M646.4 298.5l-1.8 6.3M651 300l-1.9 6.5M637 307.8l1.3-8.9M650.1 273.5v5.7M644 272.7l-.1 6.5M638.3 272.5v5.3M641.1 265.5l2.1-13.6M648.7 250.6l-.8 14.9M652.8 253.4v14.3M642.2 223.3l1.7 15.5M647.9 224.9l1.1 10.3M653.2 220l-.4 11.7M634.2 203l2.8 7.7M638.3 200.1l2.8 9.1M645.4 197.6l-.6 10M626.4 184.8l3 6.5M606.7 179.7l3 8.3M612.7 179.7l2.9 8.3M617.9 180.7l3.6 8.9M613.2 157.2l4.7 17.6M605.9 159.8l6.3 15M599.5 165l4.4 8.5"/><path class="st0" d="M568.1 201.4c-2.1 1-2.8 7.2 1.9 8.5 4.7 1.3 37.9 10.1 46.9 12.8 9 2.7 14.6-5.3 8.1-8.1-6.4-2.7-23.4-6.6-25.7-15.6-2.3-9.1 6-16.5 2-20.9-4-4.4-8.7 0-8.7 0s-13.5-10.8-24.6-7-11.9 16.2-4.3 20.9c1.9-2.9 4.3-4.9 9.7-4.3 5.4.6 22 21.3 22 21.3s-25.2-8.6-27.3-7.6z"/><path class="st2" d="m617.9 217.1-22.5-7.9"/><path class="st9" d="M615.1 184.8c-6 0-11 4.9-11 11 0 4.3 2.4 7.9 6 9.8l10-19.5c-1.6-1-3.2-1.3-5-1.3z"/><path class="st10" d="m620.1 185.9-10 19.5c1.5.8 3.2 1.2 5 1.2 6 0 11-4.9 11-11-.1-4.2-2.5-7.8-6-9.7z"/><circle class="st1" cx="615.1" cy="195.8" r="4.4"/><circle class="st2" cx="615.1" cy="195.8" r="11"/><path class="st3" d="M620.2 291.5c3.3 1.1 15.8.6 22.9.3.5-3.7.2-7.7-1.9-8.7-4-1.8-12.6 1.1-12.6-6.1 0-7.2 11.3-25.3 11.8-33.2.3-5-1.6-11.1-4.4-13.8-6 10.3-23.4 40-25.3 46.6-2.3 8 4.9 13.4 9.5 14.9z"/><path class="st0" d="M620.2 291.5c-4.6-1.5-11.9-7-9.5-15 1.9-6.6 19.2-36.3 25.3-46.6-.5-.5-.9-.8-1.4-1-.5 1.4-1.2 2.4-1.7 2.7-.7.4-2.4.4-4.5.3-7.5 9.8-25.4 42.4-26.3 48-.9 6.3 3.7 14.6 11.7 16.9s24.8 2.6 26.9 1.5c.9-.5 2-3.5 2.4-6.7-7.1.6-19.5 1-22.9-.1zM820.3 353.7c2.6-.4 1.4-5.7-1-7.5-2.2-1.6-26 1.4-35.8 2.8l3 9.8c7.7-1.6 31.2-4.7 33.8-5.1zM811.4 325.6c4-1.4 1.8-7.2 0-7.7-1.7-.5-25 5.3-38.4 9.6l3.9 10c11-4.4 30.7-10.6 34.5-11.9z"/><path class="st4" d="M748 366.9c-1.9.3-3.6.6-4.8 1 1.6-.4 3.3-.7 4.8-1z"/><path class="st0" d="M823 368.9c-3.1-1.7-23.2-3.8-33.8-4l4 11.9c19.9 1.7 26.3 1.4 29.1 1.3 3 0 3.8-7.4.7-9.2z"/><path class="st4" d="M788.9 364.9c-8.8-.2-30 .3-40.9 1.9-1.5.3-3.2.6-4.8 1 1.2-.4 2.9-.7 4.8-1 19.9-4.1 31.5-6.6 38-8 .2 0 .3-.1.5-.1l-3-9.8c-.5.1-1.1.2-1.5.2-8.5 1.2-40.9 4.6-60.1 6.6 10.5.6 42.6-13.4 53.1-17.7.6-.2 1.2-.5 1.9-.8l-3.9-10c-.8.2-1.5.5-2.2.8-12.8 4.3-44.6 14.1-55.4 11.8S700 327.2 700 327.2l-23 8.1s8.7 33.5 23.2 40.3c14.6 6.8 72.5-.5 92.8 1.2.2 0 .3 0 .5.1l-4-11.9c-.3-.1-.5-.1-.6-.1z"/><path class="st2" d="M743.2 367.8c-11.1 2.2-26.7 4.3-40.3-2.9-13.6-7.1-19.6-30.6-19.6-30.6"/><path class="st2" d="M721.9 355.8c-24.1 2.6-29.7-24.3-29.7-24.3"/><path class="st2" d="M697.2 328.8s3.5 16.9 18.2 19.8 59.4-16 59.4-16"/><path class="st2" d="M687 332.9s9 28.6 29.4 30.1c20.5 1.6 59.5-9.5 68.5-9.4"/><path class="st2" d="M680.4 336.8s8.9 32.4 27.8 35.8c21.2 3.8 76.3-5.1 83.4-1.1"/><path class="st0" d="M668.2 338.8c.2.5 16.8 39.7 15.1 44.9-3-2.6-4.3-3.3-7.5-1.3-3.3 1.9-3.6 9.8 1.9 13.7 5.6 3.9 15.6.5 18.1-7.6 2.5-8.1-17-57-17-57l-10.6 7.3z"/><path class="st2" d="M679.8 391c4.3 2.5 7.1-4.3 3.6-7.4"/><path class="st4" d="m686.1 301.8-27.5 7.5 1 5.9 29.7-8.7z"/><path class="st4" d="m678.6 291.1-22.5 4.6 2.5 13.6 27.5-7.5z"/><path class="st0" d="m662.2 329.6 2.3 12.8 40-14.1-6.7-9.6z"/><path class="st3" d="m689.3 306.5-29.7 8.7 2.6 14.4 35.6-10.9z"/><circle class="st5" cx="666.4" cy="288" r="15.4"/><path class="st2" d="M661.1 288.7v13.2M666.4 290.2l2.3 13.3M671.1 288.7l5.7 10.4M673.9 284.3l7.4 7.9M656.5 288l-2 9"/><path class="st1" d="M640.1 349.5c-1.5-2-2.6-5.3-1.2-7.4 1.4-2.2 9.3-4 10.8-2.7 1.5 1.2 1.2 6.5 1.2 8.8.1 2.2-9.2 3.4-10.8 1.3z"/><path class="st5" d="M642.5 346.1c-1.2 2 .5 9.1-2 10-2.6.9-4.6-2.4-7-3 0 8.5 5.1 10.1 9.8 8.9 4.6-1.2 5.3-13.6 5.3-15 0-1.5-4.9-2.8-6.1-.9z"/><path class="st2" d="M590.9 335.2s-5 5.3-7.6 12.1M595.4 337.4c-3.7 1-7.5 11.3-7.5 11.3M602.9 339.3s-5.3 10.3-5.3 14.5M608 342.4s-6.2 6.4-5.1 10.6"/><path class="st6" d="m397.6 699.4 48.7 17c.8-2.2 1.5-4.5 2.3-6.9l-47.3-16.7c-1.4 2.3-2.5 4.5-3.7 6.6zM453.4 695.2l-45.9-14.3c-.9 1.8-1.8 3.5-2.7 5.2l46.8 14.4c.5-1.7 1.2-3.5 1.8-5.3zM633.3 681.3l-38 10.5c.5 1.9 1.2 3.6 1.7 5.4l38.8-10.4c-.8-1.8-1.6-3.6-2.5-5.5zM639.3 694.3l-39.8 10.8c.9 2.8 1.7 5.4 2.6 7.9l40.9-10.6c-1.2-2.5-2.5-5.2-3.7-8.1z"/><path class="st2" d="m439.3 683.9-16.9 49.6M406.3 726l18.3-46.6M618.7 685.2l19.9 48.3M626 737.1l-18.5-48.7"/></svg>